<?xml version="1.0" encoding="utf-8" standalone="no"?>
<!DOCTYPE svg PUBLIC "-//W3C//DTD SVG 1.1//EN"
  "http://www.w3.org/Graphics/SVG/1.1/DTD/svg11.dtd">
<!-- Created with matplotlib (https://matplotlib.org/) -->
<svg height="288pt" version="1.1" viewBox="0 0 576 288" width="576pt" xmlns="http://www.w3.org/2000/svg" xmlns:xlink="http://www.w3.org/1999/xlink">
 <metadata>
  <rdf:RDF xmlns:cc="http://creativecommons.org/ns#" xmlns:dc="http://purl.org/dc/elements/1.1/" xmlns:rdf="http://www.w3.org/1999/02/22-rdf-syntax-ns#">
   <cc:Work>
    <dc:type rdf:resource="http://purl.org/dc/dcmitype/StillImage"/>
    <dc:date>2021-08-12T13:09:04.823434</dc:date>
    <dc:format>image/svg+xml</dc:format>
    <dc:creator>
     <cc:Agent>
      <dc:title>Matplotlib v3.3.4, https://matplotlib.org/</dc:title>
     </cc:Agent>
    </dc:creator>
   </cc:Work>
  </rdf:RDF>
 </metadata>
 <defs>
  <style type="text/css">*{stroke-linecap:butt;stroke-linejoin:round;}</style>
 </defs>
 <g id="figure_1">
  <g id="patch_1">
   <path d="M 0 288 
L 576 288 
L 576 0 
L 0 0 
z
" style="fill:#ffffff;"/>
  </g>
  <g id="axes_1">
   <g id="patch_2">
    <path d="M 46.19 234.52 
L 560.88 234.52 
L 560.88 34.08 
L 46.19 34.08 
z
" style="fill:#ffffff;"/>
   </g>
   <g id="matplotlib.axis_1">
    <g id="xtick_1">
     <g id="line2d_1">
      <path clip-path="url(#p9994ca8cff)" d="M 69.585 234.52 
L 69.585 34.08 
" style="fill:none;stroke:#b0b0b0;stroke-dasharray:1.48,0.64;stroke-dashoffset:0;stroke-width:0.4;"/>
     </g>
     <g id="text_1">
      <!-- 0.0 -->
      <g transform="translate(61.603906 251.665625)scale(0.14 -0.14)">
       <defs>
        <path d="M 42.390625 34.421875 
Q 42.390625 24.515625 40.84375 17.75 
Q 39.3125 10.984375 36.640625 6.8125 
Q 33.984375 2.640625 30.390625 0.828125 
Q 26.8125 -0.984375 22.703125 -0.984375 
Q 18.609375 -0.984375 15.03125 0.828125 
Q 11.46875 2.640625 8.828125 6.78125 
Q 6.203125 10.9375 4.703125 17.703125 
Q 3.21875 24.46875 3.21875 34.421875 
Q 3.21875 44.828125 4.703125 51.640625 
Q 6.203125 58.453125 8.828125 62.5 
Q 11.46875 66.546875 15.078125 68.1875 
Q 18.703125 69.828125 22.953125 69.828125 
Q 27 69.828125 30.53125 68.1875 
Q 34.078125 66.546875 36.71875 62.5 
Q 39.359375 58.453125 40.875 51.640625 
Q 42.390625 44.828125 42.390625 34.421875 
z
M 35.0625 34.421875 
Q 35.0625 42.625 34.28125 48.0625 
Q 33.5 53.515625 31.9375 56.765625 
Q 30.375 60.015625 28.09375 61.359375 
Q 25.828125 62.703125 22.953125 62.703125 
Q 19.921875 62.703125 17.578125 61.328125 
Q 15.234375 59.96875 13.671875 56.71875 
Q 12.109375 53.46875 11.296875 48.015625 
Q 10.5 42.578125 10.5 34.421875 
Q 10.5 26.515625 11.296875 21.09375 
Q 12.109375 15.671875 13.6875 12.375 
Q 15.28125 9.078125 17.578125 7.640625 
Q 19.875 6.203125 22.796875 6.203125 
Q 25.640625 6.203125 27.90625 7.640625 
Q 30.171875 9.078125 31.75 12.375 
Q 33.34375 15.671875 34.203125 21.09375 
Q 35.0625 26.515625 35.0625 34.421875 
z
" id="LiberationSansNarrow-48"/>
        <path d="M 7.46875 0 
L 7.46875 10.6875 
L 15.328125 10.6875 
L 15.328125 0 
z
" id="LiberationSansNarrow-46"/>
       </defs>
       <use xlink:href="#LiberationSansNarrow-48"/>
       <use x="45.605469" xlink:href="#LiberationSansNarrow-46"/>
       <use x="68.408203" xlink:href="#LiberationSansNarrow-48"/>
      </g>
     </g>
    </g>
    <g id="xtick_2">
     <g id="line2d_2">
      <path clip-path="url(#p9994ca8cff)" d="M 147.568333 234.52 
L 147.568333 34.08 
" style="fill:none;stroke:#b0b0b0;stroke-dasharray:1.48,0.64;stroke-dashoffset:0;stroke-width:0.4;"/>
     </g>
     <g id="text_2">
      <!-- 0.5 -->
      <g transform="translate(139.58724 251.665625)scale(0.14 -0.14)">
       <defs>
        <path d="M 42.140625 22.40625 
Q 42.140625 17.234375 40.859375 12.9375 
Q 39.59375 8.640625 37.078125 5.53125 
Q 34.578125 2.4375 30.8125 0.71875 
Q 27.046875 -0.984375 22.125 -0.984375 
Q 17.671875 -0.984375 14.375 0.28125 
Q 11.078125 1.5625 8.8125 3.78125 
Q 6.546875 6 5.203125 8.984375 
Q 3.859375 11.96875 3.265625 15.375 
L 10.546875 16.40625 
Q 10.984375 14.453125 11.78125 12.625 
Q 12.59375 10.796875 13.984375 9.34375 
Q 15.375 7.90625 17.40625 7.046875 
Q 19.4375 6.203125 22.3125 6.203125 
Q 25.09375 6.203125 27.390625 7.25 
Q 29.6875 8.296875 31.296875 10.34375 
Q 32.90625 12.40625 33.78125 15.375 
Q 34.671875 18.359375 34.671875 22.21875 
Q 34.671875 25.390625 33.84375 28.046875 
Q 33.015625 30.71875 31.453125 32.640625 
Q 29.890625 34.578125 27.609375 35.640625 
Q 25.34375 36.71875 22.46875 36.71875 
Q 20.65625 36.71875 19.140625 36.328125 
Q 17.625 35.9375 16.328125 35.25 
Q 15.046875 34.578125 13.96875 33.671875 
Q 12.890625 32.765625 11.96875 31.78125 
L 4.9375 31.78125 
L 6.78125 68.796875 
L 38.875 68.796875 
L 38.875 61.328125 
L 13.375 61.328125 
L 12.3125 39.5 
Q 14.203125 41.3125 17.078125 42.59375 
Q 19.96875 43.890625 23.921875 43.890625 
Q 28.125 43.890625 31.484375 42.328125 
Q 34.859375 40.765625 37.21875 37.90625 
Q 39.59375 35.0625 40.859375 31.109375 
Q 42.140625 27.15625 42.140625 22.40625 
z
" id="LiberationSansNarrow-53"/>
       </defs>
       <use xlink:href="#LiberationSansNarrow-48"/>
       <use x="45.605469" xlink:href="#LiberationSansNarrow-46"/>
       <use x="68.408203" xlink:href="#LiberationSansNarrow-53"/>
      </g>
     </g>
    </g>
    <g id="xtick_3">
     <g id="line2d_3">
      <path clip-path="url(#p9994ca8cff)" d="M 225.551667 234.52 
L 225.551667 34.08 
" style="fill:none;stroke:#b0b0b0;stroke-dasharray:1.48,0.64;stroke-dashoffset:0;stroke-width:0.4;"/>
     </g>
     <g id="text_3">
      <!-- 1.0 -->
      <g transform="translate(217.570573 251.665625)scale(0.14 -0.14)">
       <defs>
        <path d="M 6.25 0 
L 6.25 7.46875 
L 20.609375 7.46875 
L 20.609375 60.40625 
L 7.90625 49.3125 
L 7.90625 57.625 
L 21.234375 68.796875 
L 27.875 68.796875 
L 27.875 7.46875 
L 41.609375 7.46875 
L 41.609375 0 
z
" id="LiberationSansNarrow-49"/>
       </defs>
       <use xlink:href="#LiberationSansNarrow-49"/>
       <use x="45.605469" xlink:href="#LiberationSansNarrow-46"/>
       <use x="68.408203" xlink:href="#LiberationSansNarrow-48"/>
      </g>
     </g>
    </g>
    <g id="xtick_4">
     <g id="line2d_4">
      <path clip-path="url(#p9994ca8cff)" d="M 303.535 234.52 
L 303.535 34.08 
" style="fill:none;stroke:#b0b0b0;stroke-dasharray:1.48,0.64;stroke-dashoffset:0;stroke-width:0.4;"/>
     </g>
     <g id="text_4">
      <!-- 1.5 -->
      <g transform="translate(295.553906 251.665625)scale(0.14 -0.14)">
       <use xlink:href="#LiberationSansNarrow-49"/>
       <use x="45.605469" xlink:href="#LiberationSansNarrow-46"/>
       <use x="68.408203" xlink:href="#LiberationSansNarrow-53"/>
      </g>
     </g>
    </g>
    <g id="xtick_5">
     <g id="line2d_5">
      <path clip-path="url(#p9994ca8cff)" d="M 381.518333 234.52 
L 381.518333 34.08 
" style="fill:none;stroke:#b0b0b0;stroke-dasharray:1.48,0.64;stroke-dashoffset:0;stroke-width:0.4;"/>
     </g>
     <g id="text_5">
      <!-- 2.0 -->
      <g transform="translate(373.53724 251.665625)scale(0.14 -0.14)">
       <defs>
        <path d="M 4.109375 0 
L 4.109375 6.203125 
Q 6.15625 11.921875 9.109375 16.28125 
Q 12.0625 20.65625 15.3125 24.1875 
Q 18.5625 27.734375 21.734375 30.765625 
Q 24.90625 33.796875 27.46875 36.8125 
Q 30.03125 39.84375 31.609375 43.15625 
Q 33.203125 46.484375 33.203125 50.6875 
Q 33.203125 53.609375 32.46875 55.828125 
Q 31.734375 58.0625 30.390625 59.5625 
Q 29.046875 61.078125 27.140625 61.828125 
Q 25.25 62.59375 22.90625 62.59375 
Q 20.75 62.59375 18.84375 61.859375 
Q 16.9375 61.140625 15.453125 59.671875 
Q 13.96875 58.203125 13.03125 56.03125 
Q 12.109375 53.859375 11.8125 50.984375 
L 4.4375 51.8125 
Q 4.78125 55.515625 6.125 58.78125 
Q 7.46875 62.0625 9.78125 64.53125 
Q 12.109375 67 15.359375 68.40625 
Q 18.609375 69.828125 22.90625 69.828125 
Q 27.09375 69.828125 30.390625 68.609375 
Q 33.6875 67.390625 35.9375 64.984375 
Q 38.1875 62.59375 39.40625 59.078125 
Q 40.625 55.5625 40.625 50.984375 
Q 40.625 47.515625 39.59375 44.390625 
Q 38.578125 41.265625 36.859375 38.421875 
Q 35.15625 35.59375 32.90625 32.953125 
Q 30.671875 30.328125 28.21875 27.828125 
L 23.296875 22.859375 
Q 20.796875 20.359375 18.625 17.859375 
Q 16.453125 15.375 14.734375 12.8125 
Q 13.03125 10.25 12.0625 7.46875 
L 41.5 7.46875 
L 41.5 0 
z
" id="LiberationSansNarrow-50"/>
       </defs>
       <use xlink:href="#LiberationSansNarrow-50"/>
       <use x="45.605469" xlink:href="#LiberationSansNarrow-46"/>
       <use x="68.408203" xlink:href="#LiberationSansNarrow-48"/>
      </g>
     </g>
    </g>
    <g id="xtick_6">
     <g id="line2d_6">
      <path clip-path="url(#p9994ca8cff)" d="M 459.501667 234.52 
L 459.501667 34.08 
" style="fill:none;stroke:#b0b0b0;stroke-dasharray:1.48,0.64;stroke-dashoffset:0;stroke-width:0.4;"/>
     </g>
     <g id="text_6">
      <!-- 2.5 -->
      <g transform="translate(451.520573 251.665625)scale(0.14 -0.14)">
       <use xlink:href="#LiberationSansNarrow-50"/>
       <use x="45.605469" xlink:href="#LiberationSansNarrow-46"/>
       <use x="68.408203" xlink:href="#LiberationSansNarrow-53"/>
      </g>
     </g>
    </g>
    <g id="xtick_7">
     <g id="line2d_7">
      <path clip-path="url(#p9994ca8cff)" d="M 537.485 234.52 
L 537.485 34.08 
" style="fill:none;stroke:#b0b0b0;stroke-dasharray:1.48,0.64;stroke-dashoffset:0;stroke-width:0.4;"/>
     </g>
     <g id="text_7">
      <!-- 3.0 -->
      <g transform="translate(529.503906 251.665625)scale(0.14 -0.14)">
       <defs>
        <path d="M 42 19 
Q 42 14.265625 40.75 10.546875 
Q 39.5 6.84375 37.0625 4.265625 
Q 34.625 1.703125 31.046875 0.359375 
Q 27.484375 -0.984375 22.859375 -0.984375 
Q 17.625 -0.984375 14.03125 0.609375 
Q 10.453125 2.203125 8.125 4.8125 
Q 5.8125 7.421875 4.640625 10.765625 
Q 3.46875 14.109375 3.125 17.671875 
L 10.546875 18.5 
Q 10.890625 15.765625 11.734375 13.515625 
Q 12.59375 11.28125 14.078125 9.671875 
Q 15.578125 8.0625 17.75 7.171875 
Q 19.921875 6.296875 22.859375 6.296875 
Q 28.328125 6.296875 31.421875 9.5625 
Q 34.515625 12.84375 34.515625 19.28125 
Q 34.515625 23.09375 33.125 25.40625 
Q 31.734375 27.734375 29.6875 29.03125 
Q 27.640625 30.328125 25.21875 30.765625 
Q 22.796875 31.203125 20.75 31.203125 
L 16.65625 31.203125 
L 16.65625 38.8125 
L 20.5625 38.8125 
Q 22.609375 38.8125 24.828125 39.328125 
Q 27.046875 39.84375 28.859375 41.1875 
Q 30.671875 42.53125 31.859375 44.828125 
Q 33.0625 47.125 33.0625 50.6875 
Q 33.0625 56.203125 30.375 59.390625 
Q 27.6875 62.59375 22.46875 62.59375 
Q 17.671875 62.59375 14.734375 59.609375 
Q 11.8125 56.640625 11.328125 51.21875 
L 4.109375 51.90625 
Q 4.546875 56.453125 6.125 59.8125 
Q 7.71875 63.1875 10.171875 65.40625 
Q 12.640625 67.625 15.8125 68.71875 
Q 19 69.828125 22.5625 69.828125 
Q 27.296875 69.828125 30.6875 68.375 
Q 34.078125 66.9375 36.21875 64.46875 
Q 38.375 62.015625 39.40625 58.6875 
Q 40.4375 55.375 40.4375 51.609375 
Q 40.4375 48.578125 39.75 45.9375 
Q 39.0625 43.3125 37.625 41.203125 
Q 36.1875 39.109375 33.953125 37.59375 
Q 31.734375 36.078125 28.609375 35.296875 
L 28.609375 35.109375 
Q 32.03125 34.671875 34.546875 33.21875 
Q 37.0625 31.78125 38.71875 29.625 
Q 40.375 27.484375 41.1875 24.75 
Q 42 22.015625 42 19 
z
" id="LiberationSansNarrow-51"/>
       </defs>
       <use xlink:href="#LiberationSansNarrow-51"/>
       <use x="45.605469" xlink:href="#LiberationSansNarrow-46"/>
       <use x="68.408203" xlink:href="#LiberationSansNarrow-48"/>
      </g>
     </g>
    </g>
    <g id="text_8">
     <!-- Экспозиция -->
     <g transform="translate(272.281094 268.71625)scale(0.14 -0.14)">
      <defs>
       <path d="M 28.5625 62.203125 
Q 25.046875 62.203125 22.28125 61.171875 
Q 19.53125 60.15625 17.5 58.4375 
Q 15.484375 56.734375 14.09375 54.515625 
Q 12.703125 52.296875 11.921875 49.859375 
L 4.6875 52.78125 
Q 7.515625 61.234375 13.5625 65.53125 
Q 19.625 69.828125 28.609375 69.828125 
Q 35.15625 69.828125 40.296875 67.359375 
Q 45.453125 64.890625 48.9375 60.328125 
Q 52.4375 55.765625 54.265625 49.265625 
Q 56.109375 42.78125 56.109375 34.71875 
Q 56.109375 26.953125 54.375 20.40625 
Q 52.640625 13.875 49.1875 9.109375 
Q 45.75 4.34375 40.59375 1.671875 
Q 35.453125 -0.984375 28.609375 -0.984375 
Q 23.875 -0.984375 20.109375 0.328125 
Q 16.359375 1.65625 13.359375 4.078125 
Q 10.359375 6.5 8.109375 9.8125 
Q 5.859375 13.140625 4.203125 17.1875 
L 10.453125 21 
Q 11.53125 18.3125 13.15625 15.75 
Q 14.796875 13.1875 16.96875 11.15625 
Q 19.140625 9.125 21.9375 7.90625 
Q 24.75 6.6875 28.21875 6.6875 
Q 32.5625 6.6875 36.109375 8.4375 
Q 39.65625 10.203125 42.21875 13.421875 
Q 44.78125 16.65625 46.3125 21.171875 
Q 47.859375 25.6875 48.1875 31.15625 
L 22.015625 31.15625 
L 22.015625 38.671875 
L 48.1875 38.671875 
Q 47.796875 44.046875 46.328125 48.390625 
Q 44.875 52.734375 42.40625 55.8125 
Q 39.9375 58.890625 36.46875 60.546875 
Q 33.015625 62.203125 28.5625 62.203125 
z
" id="LiberationSansNarrow-1069"/>
       <path d="M 5.515625 52.828125 
L 12.703125 52.828125 
L 12.703125 29.6875 
Q 13.921875 29.6875 14.875 30.078125 
Q 15.828125 30.46875 16.875 31.6875 
Q 17.921875 32.90625 19.21875 35.15625 
Q 20.515625 37.40625 22.46875 41.15625 
L 28.375 52.828125 
L 35.890625 52.828125 
L 27.25 36.96875 
Q 25.4375 33.734375 24.109375 31.65625 
Q 22.796875 29.59375 22.125 28.90625 
L 36.234375 0 
L 28.21875 0 
L 17.140625 24.265625 
Q 16.359375 23.875 15.0625 23.578125 
Q 13.765625 23.296875 12.703125 23.296875 
L 12.703125 0 
L 5.515625 0 
z
" id="LiberationSansNarrow-1082"/>
       <path d="M 11.03125 26.65625 
Q 11.03125 22.125 11.5625 18.3125 
Q 12.109375 14.5 13.375 11.734375 
Q 14.65625 8.984375 16.75 7.46875 
Q 18.84375 5.953125 21.96875 5.953125 
Q 25.828125 5.953125 28.390625 8.484375 
Q 30.953125 11.03125 31.546875 16.3125 
L 38.875 15.71875 
Q 38.53125 12.453125 37.296875 9.421875 
Q 36.078125 6.390625 34.03125 4.09375 
Q 31.984375 1.8125 29 0.40625 
Q 26.03125 -0.984375 22.171875 -0.984375 
Q 17.09375 -0.984375 13.5 1.109375 
Q 9.90625 3.21875 7.6875 6.90625 
Q 5.46875 10.59375 4.46875 15.59375 
Q 3.46875 20.609375 3.46875 26.46875 
Q 3.46875 31.78125 4.203125 35.859375 
Q 4.9375 39.9375 6.21875 42.984375 
Q 7.515625 46.046875 9.265625 48.125 
Q 11.03125 50.203125 13.109375 51.4375 
Q 15.1875 52.6875 17.453125 53.25 
Q 19.734375 53.8125 22.078125 53.8125 
Q 25.734375 53.8125 28.5625 52.59375 
Q 31.390625 51.375 33.46875 49.25 
Q 35.546875 47.125 36.8125 44.234375 
Q 38.09375 41.359375 38.625 38.03125 
L 31.203125 37.359375 
Q 30.671875 41.75 28.375 44.328125 
Q 26.078125 46.921875 21.875 46.921875 
Q 18.796875 46.921875 16.71875 45.671875 
Q 14.65625 44.4375 13.375 41.921875 
Q 12.109375 39.40625 11.5625 35.59375 
Q 11.03125 31.78125 11.03125 26.65625 
z
" id="LiberationSansNarrow-1089"/>
       <path d="M 38.71875 52.828125 
L 38.71875 0 
L 31.546875 0 
L 31.546875 46.4375 
L 12.890625 46.4375 
L 12.890625 0 
L 5.71875 0 
L 5.71875 52.828125 
z
" id="LiberationSansNarrow-1087"/>
       <path d="M 42.140625 26.46875 
Q 42.140625 12.59375 37.125 5.796875 
Q 32.125 -0.984375 22.609375 -0.984375 
Q 18.0625 -0.984375 14.515625 0.671875 
Q 10.984375 2.34375 8.515625 5.765625 
Q 6.0625 9.1875 4.765625 14.328125 
Q 3.46875 19.484375 3.46875 26.46875 
Q 3.46875 53.8125 22.859375 53.8125 
Q 27.875 53.8125 31.5625 52.09375 
Q 35.25 50.390625 37.59375 46.96875 
Q 39.9375 43.5625 41.03125 38.421875 
Q 42.140625 33.296875 42.140625 26.46875 
z
M 34.578125 26.46875 
Q 34.578125 32.625 33.8125 36.625 
Q 33.0625 40.625 31.546875 43.015625 
Q 30.03125 45.40625 27.859375 46.359375 
Q 25.6875 47.3125 23 47.3125 
Q 20.21875 47.3125 17.984375 46.3125 
Q 15.765625 45.3125 14.203125 42.890625 
Q 12.640625 40.484375 11.828125 36.46875 
Q 11.03125 32.46875 11.03125 26.46875 
Q 11.03125 20.3125 11.90625 16.28125 
Q 12.796875 12.25 14.328125 9.859375 
Q 15.875 7.46875 17.96875 6.484375 
Q 20.0625 5.515625 22.5625 5.515625 
Q 25.34375 5.515625 27.5625 6.46875 
Q 29.78125 7.421875 31.34375 9.8125 
Q 32.90625 12.203125 33.734375 16.25 
Q 34.578125 20.3125 34.578125 26.46875 
z
" id="LiberationSansNarrow-1086"/>
       <path d="M 18.3125 -0.984375 
Q 11.625 -0.984375 7.6875 2.0625 
Q 3.765625 5.125 1.953125 11.421875 
L 8.296875 13.578125 
Q 9.28125 9.765625 11.8125 7.65625 
Q 14.359375 5.5625 18.453125 5.5625 
Q 22.3125 5.5625 24.578125 7.859375 
Q 26.859375 10.15625 26.859375 14.59375 
Q 26.859375 17.484375 25.734375 19.390625 
Q 24.609375 21.296875 22.78125 22.390625 
Q 20.953125 23.484375 18.546875 23.921875 
Q 16.15625 24.359375 13.578125 24.359375 
L 13.578125 31.0625 
Q 16.109375 31.0625 18.40625 31.421875 
Q 20.703125 31.78125 22.4375 32.703125 
Q 24.171875 33.640625 25.140625 35.28125 
Q 26.125 36.921875 26.125 39.453125 
Q 26.125 43.0625 24.140625 45.15625 
Q 22.171875 47.265625 18.453125 47.265625 
Q 17.046875 47.265625 15.65625 46.921875 
Q 14.265625 46.578125 13.03125 45.765625 
Q 11.8125 44.96875 10.984375 43.625 
Q 10.15625 42.28125 9.859375 40.234375 
L 3.421875 41.21875 
Q 3.90625 44.53125 5.125 46.921875 
Q 6.34375 49.3125 8.296875 50.84375 
Q 10.25 52.390625 12.78125 53.09375 
Q 15.328125 53.8125 18.453125 53.8125 
Q 21.875 53.8125 24.625 52.78125 
Q 27.390625 51.765625 29.34375 49.90625 
Q 31.296875 48.046875 32.375 45.5 
Q 33.453125 42.96875 33.453125 39.890625 
Q 33.453125 37.109375 32.5625 34.953125 
Q 31.6875 32.8125 30.25 31.3125 
Q 28.8125 29.828125 27.046875 28.953125 
Q 25.296875 28.078125 23.53125 27.875 
L 23.53125 27.78125 
Q 25.78125 27.484375 27.75 26.484375 
Q 29.734375 25.484375 31.25 23.84375 
Q 32.765625 22.21875 33.609375 19.9375 
Q 34.46875 17.671875 34.46875 14.84375 
Q 34.46875 11.46875 33.484375 8.5625 
Q 32.515625 5.671875 30.484375 3.546875 
Q 28.46875 1.421875 25.4375 0.21875 
Q 22.40625 -0.984375 18.3125 -0.984375 
z
" id="LiberationSansNarrow-1079"/>
       <path d="M 12.640625 52.828125 
L 12.640625 23.921875 
Q 12.640625 22.796875 12.59375 20.921875 
Q 12.546875 19.046875 12.46875 17.046875 
Q 12.40625 15.046875 12.359375 13.234375 
Q 12.3125 11.421875 12.25 10.40625 
L 32.28125 52.828125 
L 40.140625 52.828125 
L 40.140625 0 
L 33.25 0 
L 33.25 32.234375 
Q 33.25 33.15625 33.296875 34.578125 
L 33.40625 37.40625 
Q 33.453125 38.875 33.5 40.234375 
L 33.640625 42.625 
L 13.375 0 
L 5.71875 0 
L 5.71875 52.828125 
z
" id="LiberationSansNarrow-1080"/>
       <path d="M 12.890625 52.828125 
L 12.890625 6.390625 
L 31.984375 6.390625 
L 31.984375 52.828125 
L 39.203125 52.828125 
L 39.203125 6.390625 
L 45.0625 6.390625 
L 45.0625 -19.921875 
L 38.578125 -19.921875 
L 38.578125 0 
L 5.671875 0 
L 5.671875 52.828125 
z
" id="LiberationSansNarrow-1094"/>
       <path d="M 21.4375 22.359375 
L 8.84375 0 
L 0.6875 0 
L 14.453125 23 
Q 9.234375 24.3125 6.859375 28.296875 
Q 4.5 32.28125 4.5 38.234375 
Q 4.5 45.515625 8.8125 49.171875 
Q 13.140625 52.828125 21.4375 52.828125 
L 38.71875 52.828125 
L 38.71875 0 
L 31.546875 0 
L 31.546875 22.359375 
z
M 31.546875 46.625 
L 22.171875 46.625 
Q 16.9375 46.625 14.546875 44.375 
Q 12.15625 42.140625 12.15625 37.59375 
Q 12.15625 33.015625 14.28125 30.734375 
Q 16.40625 28.46875 21.390625 28.46875 
L 31.546875 28.46875 
z
" id="LiberationSansNarrow-1103"/>
      </defs>
      <use xlink:href="#LiberationSansNarrow-1069"/>
      <use x="58.935547" xlink:href="#LiberationSansNarrow-1082"/>
      <use x="95.900391" xlink:href="#LiberationSansNarrow-1089"/>
      <use x="136.916016" xlink:href="#LiberationSansNarrow-1087"/>
      <use x="181.349609" xlink:href="#LiberationSansNarrow-1086"/>
      <use x="225.830078" xlink:href="#LiberationSansNarrow-1079"/>
      <use x="263.378906" xlink:href="#LiberationSansNarrow-1080"/>
      <use x="309.228516" xlink:href="#LiberationSansNarrow-1094"/>
      <use x="356.201172" xlink:href="#LiberationSansNarrow-1080"/>
      <use x="402.050781" xlink:href="#LiberationSansNarrow-1103"/>
     </g>
    </g>
   </g>
   <g id="matplotlib.axis_2">
    <g id="ytick_1">
     <g id="line2d_8">
      <path clip-path="url(#p9994ca8cff)" d="M 46.19 225.409091 
L 560.88 225.409091 
" style="fill:none;stroke:#b0b0b0;stroke-dasharray:1.48,0.64;stroke-dashoffset:0;stroke-width:0.4;"/>
     </g>
     <g id="text_9">
      <!-- 0 -->
      <g transform="translate(32.804688 230.481903)scale(0.14 -0.14)">
       <use xlink:href="#LiberationSansNarrow-48"/>
      </g>
     </g>
    </g>
    <g id="ytick_2">
     <g id="line2d_9">
      <path clip-path="url(#p9994ca8cff)" d="M 46.19 169.263045 
L 560.88 169.263045 
" style="fill:none;stroke:#b0b0b0;stroke-dasharray:1.48,0.64;stroke-dashoffset:0;stroke-width:0.4;"/>
     </g>
     <g id="text_10">
      <!-- 1 -->
      <g transform="translate(32.804688 174.335857)scale(0.14 -0.14)">
       <use xlink:href="#LiberationSansNarrow-49"/>
      </g>
     </g>
    </g>
    <g id="ytick_3">
     <g id="line2d_10">
      <path clip-path="url(#p9994ca8cff)" d="M 46.19 113.116998 
L 560.88 113.116998 
" style="fill:none;stroke:#b0b0b0;stroke-dasharray:1.48,0.64;stroke-dashoffset:0;stroke-width:0.4;"/>
     </g>
     <g id="text_11">
      <!-- 2 -->
      <g transform="translate(32.804688 118.189811)scale(0.14 -0.14)">
       <use xlink:href="#LiberationSansNarrow-50"/>
      </g>
     </g>
    </g>
    <g id="ytick_4">
     <g id="line2d_11">
      <path clip-path="url(#p9994ca8cff)" d="M 46.19 56.970952 
L 560.88 56.970952 
" style="fill:none;stroke:#b0b0b0;stroke-dasharray:1.48,0.64;stroke-dashoffset:0;stroke-width:0.4;"/>
     </g>
     <g id="text_12">
      <!-- 3 -->
      <g transform="translate(32.804688 62.043765)scale(0.14 -0.14)">
       <use xlink:href="#LiberationSansNarrow-51"/>
      </g>
     </g>
    </g>
    <g id="text_13">
     <!-- Доля риска/доходности -->
     <g transform="translate(25.899688 196.782656)rotate(-90)scale(0.14 -0.14)">
      <defs>
       <path d="M 46.96875 7.8125 
L 54 7.8125 
L 54 -19.921875 
L 46.78125 -19.921875 
L 46.78125 0 
L 7.8125 0 
L 7.8125 -19.921875 
L 0.59375 -19.921875 
L 0.59375 7.8125 
L 6.34375 7.8125 
Q 8.015625 10.296875 9.328125 13.671875 
Q 10.640625 17.046875 11.734375 21.453125 
Q 12.84375 25.875 13.71875 31.4375 
Q 14.59375 37.015625 15.328125 43.890625 
L 18.015625 68.796875 
L 46.96875 68.796875 
z
M 39.546875 7.8125 
L 39.546875 60.984375 
L 24.5625 60.984375 
L 22.5625 43.015625 
Q 21.828125 36.46875 21.046875 31.078125 
Q 20.265625 25.6875 19.328125 21.34375 
Q 18.40625 17 17.328125 13.640625 
Q 16.265625 10.296875 14.984375 7.8125 
z
" id="LiberationSansNarrow-1044"/>
       <path d="M 34.859375 0 
L 34.859375 46.4375 
L 19.875 46.4375 
Q 18.890625 37.453125 18.03125 30.4375 
Q 17.1875 23.4375 16.3125 18.15625 
Q 15.4375 12.890625 14.40625 9.25 
Q 13.375 5.609375 11.953125 3.34375 
Q 10.546875 1.078125 8.65625 0.046875 
Q 6.78125 -0.984375 4.203125 -0.984375 
Q 3.03125 -0.984375 2.078125 -0.78125 
Q 1.125 -0.59375 0.4375 -0.34375 
L 0.4375 5.953125 
Q 0.875 5.765625 1.625 5.640625 
Q 2.390625 5.515625 3.171875 5.515625 
Q 4.59375 5.515625 5.59375 6.53125 
Q 6.59375 7.5625 7.390625 9.859375 
Q 8.203125 12.15625 8.859375 15.796875 
Q 9.515625 19.4375 10.203125 24.703125 
Q 10.890625 29.984375 11.625 36.921875 
L 13.375 52.828125 
L 42.140625 52.828125 
L 42.140625 0 
z
" id="LiberationSansNarrow-1083"/>
       <path id="LiberationSansNarrow-32"/>
       <path d="M 42.140625 26.65625 
Q 42.140625 20.65625 41.359375 15.578125 
Q 40.578125 10.5 38.6875 6.828125 
Q 36.8125 3.171875 33.765625 1.09375 
Q 30.71875 -0.984375 26.21875 -0.984375 
Q 21.578125 -0.984375 18.078125 1.171875 
Q 14.59375 3.328125 12.796875 8.203125 
L 12.546875 8.203125 
Q 12.59375 8.109375 12.609375 7.328125 
Q 12.640625 6.546875 12.671875 5.375 
Q 12.703125 4.203125 12.71875 2.75 
Q 12.75 1.3125 12.75 -0.09375 
L 12.75 -20.75 
L 5.515625 -20.75 
L 5.515625 42.046875 
Q 5.515625 43.953125 5.484375 45.703125 
Q 5.46875 47.46875 5.4375 48.90625 
Q 5.421875 50.34375 5.375 51.359375 
Q 5.328125 52.390625 5.28125 52.828125 
L 12.25 52.828125 
Q 12.3125 52.6875 12.359375 51.8125 
L 12.5 49.703125 
Q 12.546875 48.4375 12.59375 47.015625 
Q 12.640625 45.609375 12.640625 44.34375 
L 12.796875 44.34375 
Q 13.765625 46.875 15.0625 48.65625 
Q 16.359375 50.4375 18.015625 51.578125 
Q 19.671875 52.734375 21.671875 53.25 
Q 23.6875 53.765625 26.21875 53.765625 
Q 30.71875 53.765625 33.765625 51.8125 
Q 36.8125 49.859375 38.6875 46.3125 
Q 40.578125 42.78125 41.359375 37.765625 
Q 42.140625 32.765625 42.140625 26.65625 
z
M 34.578125 26.46875 
Q 34.578125 31.34375 34.109375 35.15625 
Q 33.640625 38.96875 32.4375 41.59375 
Q 31.25 44.234375 29.296875 45.59375 
Q 27.34375 46.96875 24.359375 46.96875 
Q 21.96875 46.96875 19.84375 46.140625 
Q 17.71875 45.3125 16.125 42.96875 
Q 14.546875 40.625 13.640625 36.5 
Q 12.75 32.375 12.75 25.78125 
Q 12.75 20.171875 13.5 16.28125 
Q 14.265625 12.40625 15.71875 10.015625 
Q 17.1875 7.625 19.328125 6.5625 
Q 21.484375 5.515625 24.3125 5.515625 
Q 27.34375 5.515625 29.296875 6.921875 
Q 31.25 8.34375 32.4375 11.03125 
Q 33.640625 13.71875 34.109375 17.59375 
Q 34.578125 21.484375 34.578125 26.46875 
z
" id="LiberationSansNarrow-1088"/>
       <path d="M 16.546875 -0.984375 
Q 10.015625 -0.984375 6.734375 3.21875 
Q 3.46875 7.421875 3.46875 14.75 
Q 3.46875 19.96875 5.09375 23.3125 
Q 6.734375 26.65625 9.34375 28.5625 
Q 11.96875 30.46875 15.328125 31.203125 
Q 18.703125 31.9375 22.171875 32.03125 
L 31.9375 32.234375 
L 31.9375 35.109375 
Q 31.9375 38.375 31.375 40.671875 
Q 30.8125 42.96875 29.640625 44.375 
Q 28.46875 45.796875 26.734375 46.453125 
Q 25 47.125 22.609375 47.125 
Q 20.515625 47.125 18.84375 46.75 
Q 17.1875 46.390625 15.9375 45.4375 
Q 14.703125 44.484375 13.9375 42.84375 
Q 13.1875 41.21875 12.9375 38.71875 
L 5.421875 39.546875 
Q 5.8125 42.671875 6.9375 45.28125 
Q 8.0625 47.90625 10.109375 49.796875 
Q 12.15625 51.703125 15.25 52.75 
Q 18.359375 53.8125 22.796875 53.8125 
Q 30.953125 53.8125 35.078125 49.234375 
Q 39.203125 44.671875 39.203125 36.03125 
L 39.203125 13.28125 
Q 39.203125 9.375 40.03125 7.390625 
Q 40.875 5.421875 43.265625 5.421875 
Q 43.84375 5.421875 44.453125 5.515625 
Q 45.0625 5.609375 45.609375 5.765625 
L 45.609375 0.296875 
Q 44.234375 -0.09375 42.890625 -0.28125 
Q 41.546875 -0.484375 40.046875 -0.484375 
Q 37.984375 -0.484375 36.515625 0.171875 
Q 35.0625 0.828125 34.15625 2.171875 
Q 33.25 3.515625 32.765625 5.484375 
Q 32.28125 7.46875 32.125 10.109375 
L 31.9375 10.109375 
Q 30.765625 7.5625 29.375 5.515625 
Q 27.984375 3.46875 26.140625 2.03125 
Q 24.3125 0.59375 21.9375 -0.1875 
Q 19.578125 -0.984375 16.546875 -0.984375 
z
M 18.21875 5.609375 
Q 21.6875 5.609375 24.25 7.140625 
Q 26.8125 8.6875 28.515625 11.078125 
Q 30.21875 13.484375 31.078125 16.3125 
Q 31.9375 19.140625 31.9375 21.734375 
L 31.9375 26.078125 
L 24.03125 25.875 
Q 21.390625 25.828125 19 25.40625 
Q 16.609375 25 14.8125 23.78125 
Q 13.03125 22.5625 11.953125 20.359375 
Q 10.890625 18.171875 10.890625 14.59375 
Q 10.890625 10.296875 12.796875 7.953125 
Q 14.703125 5.609375 18.21875 5.609375 
z
" id="LiberationSansNarrow-1072"/>
       <path d="M 0 -0.984375 
L 16.453125 72.46875 
L 22.796875 72.46875 
L 6.5 -0.984375 
z
" id="LiberationSansNarrow-47"/>
       <path d="M 33.34375 46.4375 
L 21.140625 46.4375 
Q 20.171875 37.796875 19.1875 31.375 
Q 18.21875 24.953125 17.234375 20.21875 
Q 16.265625 15.484375 15.3125 12.15625 
Q 14.359375 8.84375 13.484375 6.390625 
L 33.34375 6.390625 
z
M 46.390625 -19.921875 
L 39.890625 -19.921875 
L 39.890625 0 
L 7.328125 0 
L 7.328125 -19.921875 
L 0.78125 -19.921875 
L 0.78125 6.390625 
L 5.5625 6.390625 
Q 6.78125 8.84375 7.921875 12.328125 
Q 9.078125 15.828125 10.21875 21.1875 
Q 11.375 26.5625 12.515625 34.25 
Q 13.671875 41.9375 14.796875 52.828125 
L 40.578125 52.828125 
L 40.578125 6.390625 
L 46.390625 6.390625 
z
" id="LiberationSansNarrow-1076"/>
       <path d="M 32.078125 0 
L 20.40625 21.6875 
L 8.6875 0 
L 0.921875 0 
L 16.359375 27.15625 
L 1.65625 52.828125 
L 9.625 52.828125 
L 20.40625 32.28125 
L 31.15625 52.828125 
L 39.203125 52.828125 
L 24.515625 27.25 
L 40.140625 0 
z
" id="LiberationSansNarrow-1093"/>
       <path d="M 12.890625 52.828125 
L 12.890625 30.46875 
L 32.375 30.46875 
L 32.375 52.828125 
L 39.59375 52.828125 
L 39.59375 0 
L 32.375 0 
L 32.375 24.078125 
L 12.890625 24.078125 
L 12.890625 0 
L 5.671875 0 
L 5.671875 52.828125 
z
" id="LiberationSansNarrow-1085"/>
       <path d="M 1.421875 52.828125 
L 36.140625 52.828125 
L 36.140625 46.4375 
L 22.359375 46.4375 
L 22.359375 0 
L 15.1875 0 
L 15.1875 46.4375 
L 1.421875 46.4375 
z
" id="LiberationSansNarrow-1090"/>
      </defs>
      <use xlink:href="#LiberationSansNarrow-1044"/>
      <use x="56.642578" xlink:href="#LiberationSansNarrow-1086"/>
      <use x="99.998047" xlink:href="#LiberationSansNarrow-1083"/>
      <use x="147.800781" xlink:href="#LiberationSansNarrow-1103"/>
      <use x="192.234375" xlink:href="#LiberationSansNarrow-32"/>
      <use x="215.037109" xlink:href="#LiberationSansNarrow-1088"/>
      <use x="260.642578" xlink:href="#LiberationSansNarrow-1080"/>
      <use x="306.492188" xlink:href="#LiberationSansNarrow-1089"/>
      <use x="347.507812" xlink:href="#LiberationSansNarrow-1082"/>
      <use x="385.597656" xlink:href="#LiberationSansNarrow-1072"/>
      <use x="431.203125" xlink:href="#LiberationSansNarrow-47"/>
      <use x="454.005859" xlink:href="#LiberationSansNarrow-1076"/>
      <use x="501.808594" xlink:href="#LiberationSansNarrow-1086"/>
      <use x="546.289062" xlink:href="#LiberationSansNarrow-1093"/>
      <use x="586.179688" xlink:href="#LiberationSansNarrow-1086"/>
      <use x="629.535156" xlink:href="#LiberationSansNarrow-1076"/>
      <use x="677.337891" xlink:href="#LiberationSansNarrow-1085"/>
      <use x="722.601562" xlink:href="#LiberationSansNarrow-1086"/>
      <use x="768.207031" xlink:href="#LiberationSansNarrow-1089"/>
      <use x="809.222656" xlink:href="#LiberationSansNarrow-1090"/>
      <use x="846.771484" xlink:href="#LiberationSansNarrow-1080"/>
     </g>
    </g>
   </g>
   <g id="line2d_12">
    <path clip-path="url(#p9994ca8cff)" d="M 71.144667 224.793525 
L 77.383333 222.342288 
L 85.181667 219.303029 
L 108.576667 210.350071 
L 147.568333 195.975464 
L 186.56 182.280899 
L 225.551667 169.263045 
L 264.543333 156.919571 
L 303.535 145.249126 
L 342.526667 134.251327 
L 381.518333 123.926758 
L 420.51 114.276983 
L 459.501667 105.30457 
L 498.493333 97.013127 
L 537.485 89.407351 
" style="fill:none;stroke:#1f77b4;stroke-linecap:square;stroke-width:1.2;"/>
   </g>
   <g id="line2d_13">
    <path clip-path="url(#p9994ca8cff)" d="M 71.144667 224.852716 
L 77.383333 222.627212 
L 85.181667 219.845081 
L 108.576667 211.493175 
L 147.568333 197.530849 
L 186.56 183.471414 
L 225.551667 169.263045 
L 264.543333 154.852271 
L 303.535 140.183433 
L 342.526667 125.198079 
L 381.518333 109.834308 
L 420.51 94.026018 
L 459.501667 77.702044 
L 498.493333 60.785161 
L 537.485 43.190909 
" style="fill:none;stroke:#ff7f0e;stroke-linecap:square;stroke-width:0.7;"/>
   </g>
   <g id="line2d_14">
    <path clip-path="url(#p9994ca8cff)" d="M 71.144667 224.827603 
L 77.383333 222.505661 
L 85.181667 219.612262 
L 108.576667 210.992375 
L 147.568333 196.828334 
L 186.56 182.916705 
L 225.551667 169.263045 
L 264.543333 155.876904 
L 303.535 142.767344 
L 342.526667 129.94166 
L 381.518333 117.40689 
L 420.51 105.14364 
L 459.501667 93.168857 
L 498.493333 81.504988 
L 537.485 70.158816 
" style="fill:none;stroke:#2ca02c;stroke-linecap:square;stroke-width:0.7;"/>
   </g>
   <g id="line2d_15">
    <path clip-path="url(#p9994ca8cff)" d="M 71.144667 224.848629 
L 77.383333 222.607638 
L 85.181667 219.808075 
L 108.576667 211.416504 
L 147.568333 197.429015 
L 186.56 183.394817 
L 225.551667 169.263045 
L 264.543333 154.984066 
L 303.535 140.509024 
L 342.526667 125.790461 
L 381.518333 110.778928 
L 420.51 95.424103 
L 459.501667 79.676896 
L 498.493333 63.488815 
L 537.485 46.809472 
" style="fill:none;stroke:#d62728;stroke-linecap:square;stroke-width:0.7;"/>
   </g>
   <g id="line2d_16">
    <path clip-path="url(#p9994ca8cff)" d="M 71.144667 163.289784 
L 77.383333 163.512489 
L 85.181667 163.793239 
L 108.576667 164.651005 
L 147.568333 166.13054 
L 186.56 167.669187 
L 225.551667 169.263045 
L 264.543333 170.908111 
L 303.535 172.600287 
L 342.526667 174.335382 
L 381.518333 176.109134 
L 420.51 177.917216 
L 459.501667 179.75525 
L 498.493333 181.618824 
L 537.485 183.503503 
" style="fill:none;stroke:#9467bd;stroke-linecap:square;stroke-width:0.7;"/>
   </g>
   <g id="line2d_17">
    <path clip-path="url(#p9994ca8cff)" d="M 69.585 225.409091 
L 537.485 56.970952 
" style="fill:none;stroke:#000000;stroke-dasharray:3.7,1.6;stroke-dashoffset:0;"/>
   </g>
   <g id="text_14">
    <!-- Портфель 30/35/35% -->
    <g transform="translate(236.260187 28.08)scale(0.168 -0.168)">
     <defs>
      <path d="M 44.78125 0 
L 44.78125 60.9375 
L 14.265625 60.9375 
L 14.265625 0 
L 6.640625 0 
L 6.640625 68.796875 
L 52.390625 68.796875 
L 52.390625 0 
z
" id="LiberationSansNarrow-1055"/>
      <path d="M 64.015625 26.65625 
Q 64.015625 20.65625 63.234375 15.578125 
Q 62.453125 10.5 60.734375 6.828125 
Q 59.03125 3.171875 56.21875 1.09375 
Q 53.421875 -0.984375 49.359375 -0.984375 
Q 45.171875 -0.984375 42.015625 1.171875 
Q 38.875 3.328125 37.15625 8.203125 
L 36.921875 8.203125 
Q 37.015625 6.5 37.0625 4.609375 
Q 37.109375 2.734375 37.109375 -0.09375 
L 37.109375 -20.75 
L 30.328125 -20.75 
L 30.328125 -0.09375 
Q 30.328125 2.546875 30.375 4.546875 
Q 30.421875 6.546875 30.515625 8.5 
L 30.328125 8.5 
Q 28.46875 3.421875 25.484375 1.21875 
Q 22.515625 -0.984375 18.0625 -0.984375 
Q 10.59375 -0.984375 7.03125 5.734375 
Q 3.46875 12.453125 3.46875 26.171875 
Q 3.46875 40.046875 7.15625 46.921875 
Q 10.84375 53.8125 18.0625 53.8125 
Q 22.5625 53.8125 25.53125 51.609375 
Q 28.515625 49.421875 30.328125 44.625 
L 30.515625 44.625 
Q 30.515625 45.125 30.46875 46.125 
Q 30.421875 47.125 30.375 48.25 
L 30.375 50.390625 
Q 30.328125 51.421875 30.328125 52 
L 30.328125 72.46875 
L 37.109375 72.46875 
L 37.109375 51.953125 
Q 37.109375 51.421875 37.078125 50.359375 
Q 37.0625 49.3125 37.0625 48.15625 
Q 37.0625 47.015625 37.03125 45.96875 
Q 37.015625 44.921875 37.015625 44.34375 
L 37.203125 44.34375 
Q 39.0625 49.421875 41.9375 51.59375 
Q 44.828125 53.765625 49.359375 53.765625 
Q 53.421875 53.765625 56.21875 51.8125 
Q 59.03125 49.859375 60.734375 46.3125 
Q 62.453125 42.78125 63.234375 37.765625 
Q 64.015625 32.765625 64.015625 26.65625 
z
M 11.03125 26.46875 
Q 11.03125 21 11.546875 17.09375 
Q 12.0625 13.1875 13.1875 10.671875 
Q 14.3125 8.15625 16.015625 6.984375 
Q 17.71875 5.8125 20.125 5.8125 
Q 22.515625 5.8125 24.390625 6.859375 
Q 26.265625 7.90625 27.5625 10.296875 
Q 28.859375 12.703125 29.53125 16.53125 
Q 30.21875 20.359375 30.328125 25.875 
L 30.328125 27.046875 
Q 30.328125 32.671875 29.640625 36.546875 
Q 28.953125 40.4375 27.65625 42.828125 
Q 26.375 45.21875 24.484375 46.265625 
Q 22.609375 47.3125 20.171875 47.3125 
Q 17.875 47.3125 16.15625 46.1875 
Q 14.453125 45.0625 13.296875 42.578125 
Q 12.15625 40.09375 11.59375 36.109375 
Q 11.03125 32.125 11.03125 26.46875 
z
M 56.453125 26.46875 
Q 56.453125 31.34375 55.984375 35.15625 
Q 55.515625 38.96875 54.46875 41.59375 
Q 53.421875 44.234375 51.65625 45.59375 
Q 49.90625 46.96875 47.3125 46.96875 
Q 45.21875 46.96875 43.375 46.140625 
Q 41.546875 45.3125 40.125 42.96875 
Q 38.71875 40.625 37.90625 36.5 
Q 37.109375 32.375 37.109375 25.78125 
L 37.109375 24.65625 
Q 37.15625 19.390625 37.859375 15.71875 
Q 38.578125 12.0625 39.859375 9.78125 
Q 41.15625 7.515625 43.015625 6.515625 
Q 44.875 5.515625 47.265625 5.515625 
Q 49.859375 5.515625 51.609375 6.921875 
Q 53.375 8.34375 54.4375 11.03125 
Q 55.515625 13.71875 55.984375 17.59375 
Q 56.453125 21.484375 56.453125 26.46875 
z
" id="LiberationSansNarrow-1092"/>
      <path d="M 10.6875 24.5625 
Q 10.6875 20.40625 11.5625 16.90625 
Q 12.453125 13.421875 13.90625 10.90625 
Q 15.375 8.40625 17.640625 7 
Q 19.921875 5.609375 23.140625 5.609375 
Q 27.828125 5.609375 30.65625 7.90625 
Q 33.5 10.203125 34.46875 13.71875 
L 40.828125 11.53125 
Q 40.140625 9.328125 38.921875 7.109375 
Q 37.703125 4.890625 35.640625 3.09375 
Q 33.59375 1.3125 30.53125 0.15625 
Q 27.484375 -0.984375 23.140625 -0.984375 
Q 13.53125 -0.984375 8.5 6 
Q 3.46875 12.984375 3.46875 26.765625 
Q 3.46875 34.1875 5 39.328125 
Q 6.546875 44.484375 9.171875 47.703125 
Q 11.8125 50.921875 15.328125 52.359375 
Q 18.84375 53.8125 22.859375 53.8125 
Q 28.328125 53.8125 31.984375 51.65625 
Q 39.0625 47.515625 41.015625 36.8125 
Q 41.9375 31.6875 41.9375 25.734375 
L 41.9375 24.5625 
z
M 34.71875 31.296875 
Q 34.71875 40.140625 31.421875 43.71875 
Q 28.125 47.3125 22.75 47.3125 
Q 18.953125 47.3125 15.328125 44.09375 
Q 10.9375 40.328125 10.6875 31.296875 
z
" id="LiberationSansNarrow-1077"/>
      <path d="M 22.75 30.46875 
Q 30.953125 30.46875 35.15625 26.875 
Q 39.359375 23.296875 39.359375 15.53125 
Q 39.359375 11.921875 38.296875 9.03125 
Q 37.25 6.15625 35.171875 4.15625 
Q 33.109375 2.15625 30 1.078125 
Q 26.90625 0 22.796875 0 
L 5.671875 0 
L 5.671875 52.828125 
L 12.890625 52.828125 
L 12.890625 30.46875 
z
M 12.890625 6.203125 
L 21.6875 6.203125 
Q 24.46875 6.203125 26.390625 6.8125 
Q 28.328125 7.421875 29.5 8.609375 
Q 30.671875 9.8125 31.171875 11.546875 
Q 31.6875 13.28125 31.6875 15.53125 
Q 31.6875 20.125 29.359375 22.234375 
Q 27.046875 24.359375 21.734375 24.359375 
L 12.890625 24.359375 
z
" id="LiberationSansNarrow-1100"/>
      <path d="M 69.96875 21.1875 
Q 69.96875 15.09375 68.9375 10.90625 
Q 67.921875 6.734375 66.1875 4.171875 
Q 64.453125 1.609375 62.125 0.5 
Q 59.8125 -0.59375 57.171875 -0.59375 
Q 54.546875 -0.59375 52.21875 0.5 
Q 49.90625 1.609375 48.21875 4.140625 
Q 46.53125 6.6875 45.546875 10.859375 
Q 44.578125 15.046875 44.578125 21.1875 
Q 44.578125 27.6875 45.53125 31.9375 
Q 46.484375 36.1875 48.1875 38.703125 
Q 49.90625 41.21875 52.25 42.21875 
Q 54.59375 43.21875 57.328125 43.21875 
Q 59.96875 43.21875 62.25 42.21875 
Q 64.546875 41.21875 66.25 38.703125 
Q 67.96875 36.1875 68.96875 31.9375 
Q 69.96875 27.6875 69.96875 21.1875 
z
M 21.09375 0 
L 14.890625 0 
L 51.8125 68.796875 
L 58.109375 68.796875 
z
M 15.765625 69.390625 
Q 18.3125 69.390625 20.609375 68.390625 
Q 22.90625 67.390625 24.609375 64.890625 
Q 26.3125 62.40625 27.3125 58.203125 
Q 28.328125 54 28.328125 47.609375 
Q 28.328125 41.453125 27.3125 37.25 
Q 26.3125 33.0625 24.609375 30.4375 
Q 22.90625 27.828125 20.578125 26.703125 
Q 18.265625 25.59375 15.625 25.59375 
Q 12.9375 25.59375 10.609375 26.703125 
Q 8.296875 27.828125 6.59375 30.421875 
Q 4.890625 33.015625 3.90625 37.203125 
Q 2.9375 41.40625 2.9375 47.609375 
Q 2.9375 54 3.90625 58.203125 
Q 4.890625 62.40625 6.609375 64.890625 
Q 8.34375 67.390625 10.6875 68.390625 
Q 13.03125 69.390625 15.765625 69.390625 
z
M 64.0625 21.1875 
Q 64.0625 26.03125 63.625 29.21875 
Q 63.1875 32.421875 62.328125 34.328125 
Q 61.46875 36.234375 60.203125 37.015625 
Q 58.9375 37.796875 57.328125 37.796875 
Q 55.671875 37.796875 54.375 36.984375 
Q 53.078125 36.1875 52.1875 34.28125 
Q 51.3125 32.375 50.875 29.171875 
Q 50.4375 25.984375 50.4375 21.1875 
Q 50.4375 16.546875 50.90625 13.421875 
Q 51.375 10.296875 52.21875 8.375 
Q 53.078125 6.453125 54.34375 5.609375 
Q 55.609375 4.78125 57.234375 4.78125 
Q 58.796875 4.78125 60.0625 5.609375 
Q 61.328125 6.453125 62.203125 8.375 
Q 63.09375 10.296875 63.578125 13.421875 
Q 64.0625 16.546875 64.0625 21.1875 
z
M 22.40625 47.609375 
Q 22.40625 52.390625 21.96875 55.5625 
Q 21.53125 58.734375 20.703125 60.640625 
Q 19.875 62.546875 18.625 63.328125 
Q 17.390625 64.109375 15.765625 64.109375 
Q 14.0625 64.109375 12.734375 63.296875 
Q 11.421875 62.5 10.546875 60.59375 
Q 9.671875 58.6875 9.234375 55.515625 
Q 8.796875 52.34375 8.796875 47.609375 
Q 8.796875 42.96875 9.25 39.796875 
Q 9.71875 36.625 10.5625 34.6875 
Q 11.421875 32.765625 12.71875 31.9375 
Q 14.015625 31.109375 15.671875 31.109375 
Q 17.1875 31.109375 18.421875 31.9375 
Q 19.671875 32.765625 20.546875 34.6875 
Q 21.4375 36.625 21.921875 39.796875 
Q 22.40625 42.96875 22.40625 47.609375 
z
" id="LiberationSansNarrow-37"/>
     </defs>
     <use xlink:href="#LiberationSansNarrow-1055"/>
     <use x="59.179688" xlink:href="#LiberationSansNarrow-1086"/>
     <use x="104.785156" xlink:href="#LiberationSansNarrow-1088"/>
     <use x="148.140625" xlink:href="#LiberationSansNarrow-1090"/>
     <use x="185.689453" xlink:href="#LiberationSansNarrow-1092"/>
     <use x="253.169922" xlink:href="#LiberationSansNarrow-1077"/>
     <use x="295.400391" xlink:href="#LiberationSansNarrow-1083"/>
     <use x="343.203125" xlink:href="#LiberationSansNarrow-1100"/>
     <use x="385.927734" xlink:href="#LiberationSansNarrow-32"/>
     <use x="408.730469" xlink:href="#LiberationSansNarrow-51"/>
     <use x="454.335938" xlink:href="#LiberationSansNarrow-48"/>
     <use x="499.941406" xlink:href="#LiberationSansNarrow-47"/>
     <use x="522.744141" xlink:href="#LiberationSansNarrow-51"/>
     <use x="568.349609" xlink:href="#LiberationSansNarrow-53"/>
     <use x="613.955078" xlink:href="#LiberationSansNarrow-47"/>
     <use x="636.757812" xlink:href="#LiberationSansNarrow-51"/>
     <use x="682.363281" xlink:href="#LiberationSansNarrow-53"/>
     <use x="727.96875" xlink:href="#LiberationSansNarrow-37"/>
    </g>
   </g>
   <g id="legend_1">
    <g id="patch_3">
     <path d="M 54.3534 129.045124 
L 212.792603 129.045124 
Q 215.125003 129.045124 215.125003 126.712724 
L 215.125003 42.2434 
Q 215.125003 39.911 212.792603 39.911 
L 54.3534 39.911 
Q 52.021 39.911 52.021 42.2434 
L 52.021 126.712724 
Q 52.021 129.045124 54.3534 129.045124 
z
" style="fill:#ffffff;opacity:0.5;stroke:#cccccc;stroke-linejoin:miter;"/>
    </g>
    <g id="line2d_18">
     <path d="M 56.6858 48.945406 
L 80.0098 48.945406 
" style="fill:none;stroke:#1f77b4;stroke-linecap:square;stroke-width:1.2;"/>
    </g>
    <g id="line2d_19"/>
    <g id="text_15">
     <!-- хар. доходность -->
     <g transform="translate(89.3394 53.027106)scale(0.11662 -0.11662)">
      <use xlink:href="#LiberationSansNarrow-1093"/>
      <use x="39.890625" xlink:href="#LiberationSansNarrow-1072"/>
      <use x="85.496094" xlink:href="#LiberationSansNarrow-1088"/>
      <use x="131.101562" xlink:href="#LiberationSansNarrow-46"/>
      <use x="153.904297" xlink:href="#LiberationSansNarrow-32"/>
      <use x="176.707031" xlink:href="#LiberationSansNarrow-1076"/>
      <use x="224.509766" xlink:href="#LiberationSansNarrow-1086"/>
      <use x="268.990234" xlink:href="#LiberationSansNarrow-1093"/>
      <use x="308.880859" xlink:href="#LiberationSansNarrow-1086"/>
      <use x="352.236328" xlink:href="#LiberationSansNarrow-1076"/>
      <use x="400.039062" xlink:href="#LiberationSansNarrow-1085"/>
      <use x="445.302734" xlink:href="#LiberationSansNarrow-1086"/>
      <use x="490.908203" xlink:href="#LiberationSansNarrow-1089"/>
      <use x="531.923828" xlink:href="#LiberationSansNarrow-1090"/>
      <use x="569.472656" xlink:href="#LiberationSansNarrow-1100"/>
     </g>
    </g>
    <g id="line2d_20">
     <path d="M 56.6858 62.732076 
L 80.0098 62.732076 
" style="fill:none;stroke:#ff7f0e;stroke-linecap:square;stroke-width:0.7;"/>
    </g>
    <g id="line2d_21"/>
    <g id="text_16">
     <!-- волатильность капитала -->
     <g transform="translate(89.3394 66.813776)scale(0.11662 -0.11662)">
      <defs>
       <path d="M 22.5625 52.828125 
Q 25.59375 52.828125 28.484375 52.234375 
Q 31.390625 51.65625 33.640625 50.140625 
Q 35.890625 48.640625 37.234375 46.09375 
Q 38.578125 43.5625 38.578125 39.59375 
Q 38.578125 37.015625 37.890625 35.03125 
Q 37.203125 33.0625 35.984375 31.640625 
Q 34.765625 30.21875 33.125 29.3125 
Q 31.5 28.421875 29.6875 27.984375 
L 29.6875 27.640625 
Q 31.84375 27.296875 33.734375 26.4375 
Q 35.640625 25.59375 37 24.09375 
Q 38.375 22.609375 39.171875 20.40625 
Q 39.984375 18.21875 39.984375 15.234375 
Q 39.984375 11.421875 38.765625 8.5625 
Q 37.546875 5.71875 35.375 3.8125 
Q 33.203125 1.90625 30.171875 0.953125 
Q 27.15625 0 23.484375 0 
L 5.671875 0 
L 5.671875 52.828125 
z
M 12.890625 6.5 
L 22.3125 6.5 
Q 25.09375 6.5 27 6.984375 
Q 28.90625 7.46875 30.078125 8.546875 
Q 31.25 9.625 31.78125 11.25 
Q 32.328125 12.890625 32.328125 15.1875 
Q 32.328125 17.625 31.765625 19.328125 
Q 31.203125 21.046875 29.953125 22.109375 
Q 28.71875 23.1875 26.703125 23.671875 
Q 24.703125 24.171875 21.875 24.171875 
L 12.890625 24.171875 
z
M 12.890625 46.140625 
L 12.890625 30.515625 
L 21.53125 30.515625 
Q 24.265625 30.515625 26.0625 30.984375 
Q 27.875 31.453125 29 32.390625 
Q 30.125 33.34375 30.5625 34.828125 
Q 31 36.328125 31 38.421875 
Q 31 42.4375 28.96875 44.28125 
Q 26.953125 46.140625 22.125 46.140625 
z
" id="LiberationSansNarrow-1074"/>
      </defs>
      <use xlink:href="#LiberationSansNarrow-1074"/>
      <use x="42.429688" xlink:href="#LiberationSansNarrow-1086"/>
      <use x="85.785156" xlink:href="#LiberationSansNarrow-1083"/>
      <use x="133.587891" xlink:href="#LiberationSansNarrow-1072"/>
      <use x="176.943359" xlink:href="#LiberationSansNarrow-1090"/>
      <use x="214.492188" xlink:href="#LiberationSansNarrow-1080"/>
      <use x="260.341797" xlink:href="#LiberationSansNarrow-1083"/>
      <use x="308.144531" xlink:href="#LiberationSansNarrow-1100"/>
      <use x="350.869141" xlink:href="#LiberationSansNarrow-1085"/>
      <use x="396.132812" xlink:href="#LiberationSansNarrow-1086"/>
      <use x="441.738281" xlink:href="#LiberationSansNarrow-1089"/>
      <use x="482.753906" xlink:href="#LiberationSansNarrow-1090"/>
      <use x="520.302734" xlink:href="#LiberationSansNarrow-1100"/>
      <use x="563.027344" xlink:href="#LiberationSansNarrow-32"/>
      <use x="585.830078" xlink:href="#LiberationSansNarrow-1082"/>
      <use x="623.919922" xlink:href="#LiberationSansNarrow-1072"/>
      <use x="669.525391" xlink:href="#LiberationSansNarrow-1087"/>
      <use x="713.958984" xlink:href="#LiberationSansNarrow-1080"/>
      <use x="759.808594" xlink:href="#LiberationSansNarrow-1090"/>
      <use x="796.232422" xlink:href="#LiberationSansNarrow-1072"/>
      <use x="841.837891" xlink:href="#LiberationSansNarrow-1083"/>
      <use x="889.640625" xlink:href="#LiberationSansNarrow-1072"/>
     </g>
    </g>
    <g id="line2d_22">
     <path d="M 56.6858 76.518747 
L 80.0098 76.518747 
" style="fill:none;stroke:#2ca02c;stroke-linecap:square;stroke-width:0.7;"/>
    </g>
    <g id="line2d_23"/>
    <g id="text_17">
     <!-- ср.-кв. просадка -->
     <g transform="translate(89.3394 80.600447)scale(0.11662 -0.11662)">
      <defs>
       <path d="M 3.65625 22.65625 
L 3.65625 30.46875 
L 23.640625 30.46875 
L 23.640625 22.65625 
z
" id="LiberationSansNarrow-45"/>
      </defs>
      <use xlink:href="#LiberationSansNarrow-1089"/>
      <use x="41.015625" xlink:href="#LiberationSansNarrow-1088"/>
      <use x="86.621094" xlink:href="#LiberationSansNarrow-46"/>
      <use x="109.423828" xlink:href="#LiberationSansNarrow-45"/>
      <use x="136.71875" xlink:href="#LiberationSansNarrow-1082"/>
      <use x="172.558594" xlink:href="#LiberationSansNarrow-1074"/>
      <use x="216.113281" xlink:href="#LiberationSansNarrow-46"/>
      <use x="238.916016" xlink:href="#LiberationSansNarrow-32"/>
      <use x="261.71875" xlink:href="#LiberationSansNarrow-1087"/>
      <use x="306.152344" xlink:href="#LiberationSansNarrow-1088"/>
      <use x="351.757812" xlink:href="#LiberationSansNarrow-1086"/>
      <use x="397.363281" xlink:href="#LiberationSansNarrow-1089"/>
      <use x="438.378906" xlink:href="#LiberationSansNarrow-1072"/>
      <use x="483.984375" xlink:href="#LiberationSansNarrow-1076"/>
      <use x="531.787109" xlink:href="#LiberationSansNarrow-1082"/>
      <use x="569.876953" xlink:href="#LiberationSansNarrow-1072"/>
     </g>
    </g>
    <g id="line2d_24">
     <path d="M 56.6858 90.305417 
L 80.0098 90.305417 
" style="fill:none;stroke:#d62728;stroke-linecap:square;stroke-width:0.7;"/>
    </g>
    <g id="line2d_25"/>
    <g id="text_18">
     <!-- отставание от хар. дох-сти. -->
     <g transform="translate(89.3394 94.387117)scale(0.11662 -0.11662)">
      <use xlink:href="#LiberationSansNarrow-1086"/>
      <use x="43.355469" xlink:href="#LiberationSansNarrow-1090"/>
      <use x="79.779297" xlink:href="#LiberationSansNarrow-1089"/>
      <use x="120.794922" xlink:href="#LiberationSansNarrow-1090"/>
      <use x="157.21875" xlink:href="#LiberationSansNarrow-1072"/>
      <use x="202.824219" xlink:href="#LiberationSansNarrow-1074"/>
      <use x="245.253906" xlink:href="#LiberationSansNarrow-1072"/>
      <use x="290.859375" xlink:href="#LiberationSansNarrow-1085"/>
      <use x="336.123047" xlink:href="#LiberationSansNarrow-1080"/>
      <use x="381.972656" xlink:href="#LiberationSansNarrow-1077"/>
      <use x="427.578125" xlink:href="#LiberationSansNarrow-32"/>
      <use x="450.380859" xlink:href="#LiberationSansNarrow-1086"/>
      <use x="493.736328" xlink:href="#LiberationSansNarrow-1090"/>
      <use x="531.285156" xlink:href="#LiberationSansNarrow-32"/>
      <use x="554.087891" xlink:href="#LiberationSansNarrow-1093"/>
      <use x="593.978516" xlink:href="#LiberationSansNarrow-1072"/>
      <use x="639.583984" xlink:href="#LiberationSansNarrow-1088"/>
      <use x="685.189453" xlink:href="#LiberationSansNarrow-46"/>
      <use x="707.992188" xlink:href="#LiberationSansNarrow-32"/>
      <use x="730.794922" xlink:href="#LiberationSansNarrow-1076"/>
      <use x="778.597656" xlink:href="#LiberationSansNarrow-1086"/>
      <use x="823.078125" xlink:href="#LiberationSansNarrow-1093"/>
      <use x="864.09375" xlink:href="#LiberationSansNarrow-45"/>
      <use x="891.388672" xlink:href="#LiberationSansNarrow-1089"/>
      <use x="932.404297" xlink:href="#LiberationSansNarrow-1090"/>
      <use x="969.953125" xlink:href="#LiberationSansNarrow-1080"/>
      <use x="1015.802734" xlink:href="#LiberationSansNarrow-46"/>
     </g>
    </g>
    <g id="line2d_26">
     <path d="M 56.6858 104.092088 
L 80.0098 104.092088 
" style="fill:none;stroke:#9467bd;stroke-linecap:square;stroke-width:0.7;"/>
    </g>
    <g id="line2d_27"/>
    <g id="text_19">
     <!-- дох./вол.кап. -->
     <g transform="translate(89.3394 108.173788)scale(0.11662 -0.11662)">
      <use xlink:href="#LiberationSansNarrow-1076"/>
      <use x="47.802734" xlink:href="#LiberationSansNarrow-1086"/>
      <use x="92.283203" xlink:href="#LiberationSansNarrow-1093"/>
      <use x="133.298828" xlink:href="#LiberationSansNarrow-46"/>
      <use x="156.101562" xlink:href="#LiberationSansNarrow-47"/>
      <use x="178.904297" xlink:href="#LiberationSansNarrow-1074"/>
      <use x="221.333984" xlink:href="#LiberationSansNarrow-1086"/>
      <use x="264.689453" xlink:href="#LiberationSansNarrow-1083"/>
      <use x="312.492188" xlink:href="#LiberationSansNarrow-46"/>
      <use x="335.294922" xlink:href="#LiberationSansNarrow-1082"/>
      <use x="373.384766" xlink:href="#LiberationSansNarrow-1072"/>
      <use x="418.990234" xlink:href="#LiberationSansNarrow-1087"/>
      <use x="463.423828" xlink:href="#LiberationSansNarrow-46"/>
     </g>
    </g>
    <g id="line2d_28">
     <path d="M 56.6858 117.878759 
L 80.0098 117.878759 
" style="fill:none;stroke:#000000;stroke-dasharray:3.7,1.6;stroke-dashoffset:0;"/>
    </g>
    <g id="line2d_29"/>
    <g id="text_20">
     <!-- классическая теория -->
     <g transform="translate(89.3394 121.960459)scale(0.11662 -0.11662)">
      <defs>
       <path d="M 12.109375 52.828125 
L 12.109375 33.203125 
Q 12.109375 31.546875 12.421875 30.09375 
Q 12.75 28.65625 13.53125 27.578125 
Q 14.3125 26.515625 15.578125 25.90625 
Q 16.84375 25.296875 18.75 25.296875 
Q 21.53125 25.296875 24.171875 25.921875 
Q 26.8125 26.5625 29.78125 27.59375 
L 29.78125 52.828125 
L 37.015625 52.828125 
L 37.015625 0 
L 29.78125 0 
L 29.78125 22.515625 
Q 29.78125 22.515625 26.65625 21 
Q 25.046875 20.265625 23.28125 19.671875 
Q 21.53125 19.09375 19.671875 18.703125 
Q 17.828125 18.3125 15.765625 18.3125 
Q 13.140625 18.3125 11.109375 19.3125 
Q 9.078125 20.3125 7.703125 22.171875 
Q 6.34375 24.03125 5.609375 26.703125 
Q 4.890625 29.390625 4.890625 32.765625 
L 4.890625 52.828125 
z
" id="LiberationSansNarrow-1095"/>
      </defs>
      <use xlink:href="#LiberationSansNarrow-1082"/>
      <use x="36.964844" xlink:href="#LiberationSansNarrow-1083"/>
      <use x="84.767578" xlink:href="#LiberationSansNarrow-1072"/>
      <use x="130.373047" xlink:href="#LiberationSansNarrow-1089"/>
      <use x="171.388672" xlink:href="#LiberationSansNarrow-1089"/>
      <use x="212.404297" xlink:href="#LiberationSansNarrow-1080"/>
      <use x="258.253906" xlink:href="#LiberationSansNarrow-1095"/>
      <use x="300.978516" xlink:href="#LiberationSansNarrow-1077"/>
      <use x="346.583984" xlink:href="#LiberationSansNarrow-1089"/>
      <use x="387.599609" xlink:href="#LiberationSansNarrow-1082"/>
      <use x="425.689453" xlink:href="#LiberationSansNarrow-1072"/>
      <use x="471.294922" xlink:href="#LiberationSansNarrow-1103"/>
      <use x="515.728516" xlink:href="#LiberationSansNarrow-32"/>
      <use x="538.53125" xlink:href="#LiberationSansNarrow-1090"/>
      <use x="574.955078" xlink:href="#LiberationSansNarrow-1077"/>
      <use x="620.560547" xlink:href="#LiberationSansNarrow-1086"/>
      <use x="666.166016" xlink:href="#LiberationSansNarrow-1088"/>
      <use x="711.771484" xlink:href="#LiberationSansNarrow-1080"/>
      <use x="757.621094" xlink:href="#LiberationSansNarrow-1103"/>
     </g>
    </g>
   </g>
  </g>
 </g>
 <defs>
  <clipPath id="p9994ca8cff">
   <rect height="200.44" width="514.69" x="46.19" y="34.08"/>
  </clipPath>
 </defs>
</svg>
