<?xml version="1.0" encoding="utf-8" standalone="no"?>
<!DOCTYPE svg PUBLIC "-//W3C//DTD SVG 1.1//EN"
  "http://www.w3.org/Graphics/SVG/1.1/DTD/svg11.dtd">
<!-- Created with matplotlib (https://matplotlib.org/) -->
<svg height="288pt" version="1.1" viewBox="0 0 576 288" width="576pt" xmlns="http://www.w3.org/2000/svg" xmlns:xlink="http://www.w3.org/1999/xlink">
 <defs>
  <style type="text/css">
*{stroke-linecap:butt;stroke-linejoin:round;}
  </style>
 </defs>
 <g id="figure_1">
  <g id="patch_1">
   <path d="M 0 288 
L 576 288 
L 576 0 
L 0 0 
z
" style="fill:#ffffff;"/>
  </g>
  <g id="axes_1">
   <g id="patch_2">
    <path d="M 72 256.32 
L 518.4 256.32 
L 518.4 34.56 
L 72 34.56 
z
" style="fill:#ffffff;"/>
   </g>
   <g id="matplotlib.axis_1">
    <g id="xtick_1">
     <g id="line2d_1">
      <defs>
       <path d="M 0 0 
L 0 3.5 
" id="mf7338a6b82" style="stroke:#000000;stroke-width:0.8;"/>
      </defs>
      <g>
       <use style="stroke:#000000;stroke-width:0.8;" x="92.290909" xlink:href="#mf7338a6b82" y="256.32"/>
      </g>
     </g>
     <g id="text_1">
      <!-- 0 -->
      <defs>
       <path d="M 31.78125 66.40625 
Q 24.171875 66.40625 20.328125 58.90625 
Q 16.5 51.421875 16.5 36.375 
Q 16.5 21.390625 20.328125 13.890625 
Q 24.171875 6.390625 31.78125 6.390625 
Q 39.453125 6.390625 43.28125 13.890625 
Q 47.125 21.390625 47.125 36.375 
Q 47.125 51.421875 43.28125 58.90625 
Q 39.453125 66.40625 31.78125 66.40625 
z
M 31.78125 74.21875 
Q 44.046875 74.21875 50.515625 64.515625 
Q 56.984375 54.828125 56.984375 36.375 
Q 56.984375 17.96875 50.515625 8.265625 
Q 44.046875 -1.421875 31.78125 -1.421875 
Q 19.53125 -1.421875 13.0625 8.265625 
Q 6.59375 17.96875 6.59375 36.375 
Q 6.59375 54.828125 13.0625 64.515625 
Q 19.53125 74.21875 31.78125 74.21875 
z
" id="DejaVuSans-48"/>
      </defs>
      <g transform="translate(89.109659 270.918437)scale(0.1 -0.1)">
       <use xlink:href="#DejaVuSans-48"/>
      </g>
     </g>
    </g>
    <g id="xtick_2">
     <g id="line2d_2">
      <g>
       <use style="stroke:#000000;stroke-width:0.8;" x="173.495148" xlink:href="#mf7338a6b82" y="256.32"/>
      </g>
     </g>
     <g id="text_2">
      <!-- 20 -->
      <defs>
       <path d="M 19.1875 8.296875 
L 53.609375 8.296875 
L 53.609375 0 
L 7.328125 0 
L 7.328125 8.296875 
Q 12.9375 14.109375 22.625 23.890625 
Q 32.328125 33.6875 34.8125 36.53125 
Q 39.546875 41.84375 41.421875 45.53125 
Q 43.3125 49.21875 43.3125 52.78125 
Q 43.3125 58.59375 39.234375 62.25 
Q 35.15625 65.921875 28.609375 65.921875 
Q 23.96875 65.921875 18.8125 64.3125 
Q 13.671875 62.703125 7.8125 59.421875 
L 7.8125 69.390625 
Q 13.765625 71.78125 18.9375 73 
Q 24.125 74.21875 28.421875 74.21875 
Q 39.75 74.21875 46.484375 68.546875 
Q 53.21875 62.890625 53.21875 53.421875 
Q 53.21875 48.921875 51.53125 44.890625 
Q 49.859375 40.875 45.40625 35.40625 
Q 44.1875 33.984375 37.640625 27.21875 
Q 31.109375 20.453125 19.1875 8.296875 
z
" id="DejaVuSans-50"/>
      </defs>
      <g transform="translate(167.132648 270.918437)scale(0.1 -0.1)">
       <use xlink:href="#DejaVuSans-50"/>
       <use x="63.623047" xlink:href="#DejaVuSans-48"/>
      </g>
     </g>
    </g>
    <g id="xtick_3">
     <g id="line2d_3">
      <g>
       <use style="stroke:#000000;stroke-width:0.8;" x="254.699386" xlink:href="#mf7338a6b82" y="256.32"/>
      </g>
     </g>
     <g id="text_3">
      <!-- 40 -->
      <defs>
       <path d="M 37.796875 64.3125 
L 12.890625 25.390625 
L 37.796875 25.390625 
z
M 35.203125 72.90625 
L 47.609375 72.90625 
L 47.609375 25.390625 
L 58.015625 25.390625 
L 58.015625 17.1875 
L 47.609375 17.1875 
L 47.609375 0 
L 37.796875 0 
L 37.796875 17.1875 
L 4.890625 17.1875 
L 4.890625 26.703125 
z
" id="DejaVuSans-52"/>
      </defs>
      <g transform="translate(248.336886 270.918437)scale(0.1 -0.1)">
       <use xlink:href="#DejaVuSans-52"/>
       <use x="63.623047" xlink:href="#DejaVuSans-48"/>
      </g>
     </g>
    </g>
    <g id="xtick_4">
     <g id="line2d_4">
      <g>
       <use style="stroke:#000000;stroke-width:0.8;" x="335.903625" xlink:href="#mf7338a6b82" y="256.32"/>
      </g>
     </g>
     <g id="text_4">
      <!-- 60 -->
      <defs>
       <path d="M 33.015625 40.375 
Q 26.375 40.375 22.484375 35.828125 
Q 18.609375 31.296875 18.609375 23.390625 
Q 18.609375 15.53125 22.484375 10.953125 
Q 26.375 6.390625 33.015625 6.390625 
Q 39.65625 6.390625 43.53125 10.953125 
Q 47.40625 15.53125 47.40625 23.390625 
Q 47.40625 31.296875 43.53125 35.828125 
Q 39.65625 40.375 33.015625 40.375 
z
M 52.59375 71.296875 
L 52.59375 62.3125 
Q 48.875 64.0625 45.09375 64.984375 
Q 41.3125 65.921875 37.59375 65.921875 
Q 27.828125 65.921875 22.671875 59.328125 
Q 17.53125 52.734375 16.796875 39.40625 
Q 19.671875 43.65625 24.015625 45.921875 
Q 28.375 48.1875 33.59375 48.1875 
Q 44.578125 48.1875 50.953125 41.515625 
Q 57.328125 34.859375 57.328125 23.390625 
Q 57.328125 12.15625 50.6875 5.359375 
Q 44.046875 -1.421875 33.015625 -1.421875 
Q 20.359375 -1.421875 13.671875 8.265625 
Q 6.984375 17.96875 6.984375 36.375 
Q 6.984375 53.65625 15.1875 63.9375 
Q 23.390625 74.21875 37.203125 74.21875 
Q 40.921875 74.21875 44.703125 73.484375 
Q 48.484375 72.75 52.59375 71.296875 
z
" id="DejaVuSans-54"/>
      </defs>
      <g transform="translate(329.541125 270.918437)scale(0.1 -0.1)">
       <use xlink:href="#DejaVuSans-54"/>
       <use x="63.623047" xlink:href="#DejaVuSans-48"/>
      </g>
     </g>
    </g>
    <g id="xtick_5">
     <g id="line2d_5">
      <g>
       <use style="stroke:#000000;stroke-width:0.8;" x="417.107863" xlink:href="#mf7338a6b82" y="256.32"/>
      </g>
     </g>
     <g id="text_5">
      <!-- 80 -->
      <defs>
       <path d="M 31.78125 34.625 
Q 24.75 34.625 20.71875 30.859375 
Q 16.703125 27.09375 16.703125 20.515625 
Q 16.703125 13.921875 20.71875 10.15625 
Q 24.75 6.390625 31.78125 6.390625 
Q 38.8125 6.390625 42.859375 10.171875 
Q 46.921875 13.96875 46.921875 20.515625 
Q 46.921875 27.09375 42.890625 30.859375 
Q 38.875 34.625 31.78125 34.625 
z
M 21.921875 38.8125 
Q 15.578125 40.375 12.03125 44.71875 
Q 8.5 49.078125 8.5 55.328125 
Q 8.5 64.0625 14.71875 69.140625 
Q 20.953125 74.21875 31.78125 74.21875 
Q 42.671875 74.21875 48.875 69.140625 
Q 55.078125 64.0625 55.078125 55.328125 
Q 55.078125 49.078125 51.53125 44.71875 
Q 48 40.375 41.703125 38.8125 
Q 48.828125 37.15625 52.796875 32.3125 
Q 56.78125 27.484375 56.78125 20.515625 
Q 56.78125 9.90625 50.3125 4.234375 
Q 43.84375 -1.421875 31.78125 -1.421875 
Q 19.734375 -1.421875 13.25 4.234375 
Q 6.78125 9.90625 6.78125 20.515625 
Q 6.78125 27.484375 10.78125 32.3125 
Q 14.796875 37.15625 21.921875 38.8125 
z
M 18.3125 54.390625 
Q 18.3125 48.734375 21.84375 45.5625 
Q 25.390625 42.390625 31.78125 42.390625 
Q 38.140625 42.390625 41.71875 45.5625 
Q 45.3125 48.734375 45.3125 54.390625 
Q 45.3125 60.0625 41.71875 63.234375 
Q 38.140625 66.40625 31.78125 66.40625 
Q 25.390625 66.40625 21.84375 63.234375 
Q 18.3125 60.0625 18.3125 54.390625 
z
" id="DejaVuSans-56"/>
      </defs>
      <g transform="translate(410.745363 270.918437)scale(0.1 -0.1)">
       <use xlink:href="#DejaVuSans-56"/>
       <use x="63.623047" xlink:href="#DejaVuSans-48"/>
      </g>
     </g>
    </g>
    <g id="xtick_6">
     <g id="line2d_6">
      <g>
       <use style="stroke:#000000;stroke-width:0.8;" x="498.312102" xlink:href="#mf7338a6b82" y="256.32"/>
      </g>
     </g>
     <g id="text_6">
      <!-- 100 -->
      <defs>
       <path d="M 12.40625 8.296875 
L 28.515625 8.296875 
L 28.515625 63.921875 
L 10.984375 60.40625 
L 10.984375 69.390625 
L 28.421875 72.90625 
L 38.28125 72.90625 
L 38.28125 8.296875 
L 54.390625 8.296875 
L 54.390625 0 
L 12.40625 0 
z
" id="DejaVuSans-49"/>
      </defs>
      <g transform="translate(488.768352 270.918437)scale(0.1 -0.1)">
       <use xlink:href="#DejaVuSans-49"/>
       <use x="63.623047" xlink:href="#DejaVuSans-48"/>
       <use x="127.246094" xlink:href="#DejaVuSans-48"/>
      </g>
     </g>
    </g>
    <g id="text_7">
     <!-- доля портфелей, % -->
     <defs>
      <path d="M 21.625 7.171875 
L 47.703125 7.171875 
L 47.703125 47.515625 
L 28.8125 47.515625 
L 28.8125 40.671875 
Q 28.8125 20.5625 23.046875 9.8125 
z
M 8.59375 7.171875 
Q 13.03125 9.125 14.984375 13.28125 
Q 19.78125 23.578125 19.78125 44.34375 
L 19.78125 54.6875 
L 56.734375 54.6875 
L 56.734375 7.171875 
L 63.921875 7.171875 
L 63.921875 -13.8125 
L 56.734375 -13.8125 
L 56.734375 0 
L 12.40625 0 
L 12.40625 -13.8125 
L 5.21875 -13.8125 
L 5.21875 7.171875 
z
" id="DejaVuSans-1076"/>
      <path d="M 30.609375 48.390625 
Q 23.390625 48.390625 19.1875 42.75 
Q 14.984375 37.109375 14.984375 27.296875 
Q 14.984375 17.484375 19.15625 11.84375 
Q 23.34375 6.203125 30.609375 6.203125 
Q 37.796875 6.203125 41.984375 11.859375 
Q 46.1875 17.53125 46.1875 27.296875 
Q 46.1875 37.015625 41.984375 42.703125 
Q 37.796875 48.390625 30.609375 48.390625 
z
M 30.609375 56 
Q 42.328125 56 49.015625 48.375 
Q 55.71875 40.765625 55.71875 27.296875 
Q 55.71875 13.875 49.015625 6.21875 
Q 42.328125 -1.421875 30.609375 -1.421875 
Q 18.84375 -1.421875 12.171875 6.21875 
Q 5.515625 13.875 5.515625 27.296875 
Q 5.515625 40.765625 12.171875 48.375 
Q 18.84375 56 30.609375 56 
z
" id="DejaVuSans-1086"/>
      <path d="M 3.71875 0 
L 3.71875 7.46875 
Q 12.59375 8.84375 15.328125 14.984375 
Q 18.65625 23.640625 18.65625 45.75 
L 18.65625 54.6875 
L 55.609375 54.6875 
L 55.609375 0 
L 46.625 0 
L 46.625 47.515625 
L 27.640625 47.515625 
L 27.640625 42.09375 
Q 27.640625 21 23.34375 11.53125 
Q 18.75 1.421875 3.71875 0 
z
" id="DejaVuSans-1083"/>
      <path d="M 18.453125 38.921875 
Q 18.453125 34.859375 21.578125 32.5625 
Q 24.703125 30.28125 30.515625 30.28125 
L 42.625 30.28125 
L 42.625 47.515625 
L 30.515625 47.515625 
Q 24.703125 47.515625 21.578125 45.265625 
Q 18.453125 43.015625 18.453125 38.921875 
z
M 5.671875 0 
L 22.359375 23.96875 
Q 16.703125 25.25 12.9375 28.59375 
Q 9.1875 31.9375 9.1875 38.921875 
Q 9.1875 46.828125 14.421875 50.75 
Q 19.671875 54.6875 30.28125 54.6875 
L 51.65625 54.6875 
L 51.65625 0 
L 42.625 0 
L 42.625 23.09375 
L 31.453125 23.09375 
L 15.328125 0 
z
" id="DejaVuSans-1103"/>
      <path id="DejaVuSans-32"/>
      <path d="M 56.296875 54.6875 
L 56.296875 0 
L 47.265625 0 
L 47.265625 47.515625 
L 18.109375 47.515625 
L 18.109375 0 
L 9.078125 0 
L 9.078125 54.6875 
z
" id="DejaVuSans-1087"/>
      <path d="M 18.109375 8.203125 
L 18.109375 -20.796875 
L 9.078125 -20.796875 
L 9.078125 54.6875 
L 18.109375 54.6875 
L 18.109375 46.390625 
Q 20.953125 51.265625 25.265625 53.625 
Q 29.59375 56 35.59375 56 
Q 45.5625 56 51.78125 48.09375 
Q 58.015625 40.1875 58.015625 27.296875 
Q 58.015625 14.40625 51.78125 6.484375 
Q 45.5625 -1.421875 35.59375 -1.421875 
Q 29.59375 -1.421875 25.265625 0.953125 
Q 20.953125 3.328125 18.109375 8.203125 
z
M 48.6875 27.296875 
Q 48.6875 37.203125 44.609375 42.84375 
Q 40.53125 48.484375 33.40625 48.484375 
Q 26.265625 48.484375 22.1875 42.84375 
Q 18.109375 37.203125 18.109375 27.296875 
Q 18.109375 17.390625 22.1875 11.75 
Q 26.265625 6.109375 33.40625 6.109375 
Q 40.53125 6.109375 44.609375 11.75 
Q 48.6875 17.390625 48.6875 27.296875 
z
" id="DejaVuSans-1088"/>
      <path d="M 2.9375 54.6875 
L 55.328125 54.6875 
L 55.328125 47.515625 
L 33.546875 47.515625 
L 33.546875 0 
L 24.703125 0 
L 24.703125 47.515625 
L 2.9375 47.515625 
z
" id="DejaVuSans-1090"/>
      <path d="M 14.796875 27.296875 
Q 14.796875 15.828125 18.328125 10.96875 
Q 21.875 6.109375 27.875 6.109375 
Q 32.671875 6.109375 38.234375 14.3125 
L 38.234375 40.28125 
Q 32.671875 48.484375 27.875 48.484375 
Q 21.875 48.484375 18.328125 43.625 
Q 14.796875 38.765625 14.796875 27.296875 
z
M 38.234375 -20.796875 
L 38.234375 6.984375 
Q 35.453125 2.390625 32.25 0.484375 
Q 29.046875 -1.421875 25 -1.421875 
Q 16.84375 -1.421875 11.15625 6.125 
Q 5.46875 13.671875 5.46875 27.09375 
Q 5.46875 40.53125 11.15625 48.265625 
Q 16.84375 56 25 56 
Q 29.046875 56 32.25 54.140625 
Q 35.453125 52.296875 38.234375 47.703125 
L 38.234375 72.90625 
L 47.265625 72.90625 
L 47.265625 47.703125 
Q 50.046875 52.296875 53.25 54.140625 
Q 56.453125 56 60.5 56 
Q 68.65625 56 74.34375 48.265625 
Q 80.03125 40.53125 80.03125 27.09375 
Q 80.03125 13.671875 74.34375 6.125 
Q 68.65625 -1.421875 60.5 -1.421875 
Q 56.453125 -1.421875 53.25 0.484375 
Q 50.046875 2.390625 47.265625 6.984375 
L 47.265625 -20.796875 
z
M 70.703125 27.296875 
Q 70.703125 38.765625 67.15625 43.625 
Q 63.625 48.484375 57.625 48.484375 
Q 52.828125 48.484375 47.265625 40.28125 
L 47.265625 14.3125 
Q 52.828125 6.109375 57.625 6.109375 
Q 63.625 6.109375 67.15625 10.96875 
Q 70.703125 15.828125 70.703125 27.296875 
z
" id="DejaVuSans-1092"/>
      <path d="M 56.203125 29.59375 
L 56.203125 25.203125 
L 14.890625 25.203125 
Q 15.484375 15.921875 20.484375 11.0625 
Q 25.484375 6.203125 34.421875 6.203125 
Q 39.59375 6.203125 44.453125 7.46875 
Q 49.3125 8.734375 54.109375 11.28125 
L 54.109375 2.78125 
Q 49.265625 0.734375 44.1875 -0.34375 
Q 39.109375 -1.421875 33.890625 -1.421875 
Q 20.796875 -1.421875 13.15625 6.1875 
Q 5.515625 13.8125 5.515625 26.8125 
Q 5.515625 40.234375 12.765625 48.109375 
Q 20.015625 56 32.328125 56 
Q 43.359375 56 49.78125 48.890625 
Q 56.203125 41.796875 56.203125 29.59375 
z
M 47.21875 32.234375 
Q 47.125 39.59375 43.09375 43.984375 
Q 39.0625 48.390625 32.421875 48.390625 
Q 24.90625 48.390625 20.390625 44.140625 
Q 15.875 39.890625 15.1875 32.171875 
z
" id="DejaVuSans-1077"/>
      <path d="M 55.90625 54.6875 
L 55.90625 0 
L 46.96875 0 
L 46.96875 43.890625 
L 20.609375 0 
L 9.078125 0 
L 9.078125 54.6875 
L 18.015625 54.6875 
L 18.015625 10.890625 
L 44.34375 54.6875 
z
M 17.234375 75.96875 
L 23 75.96875 
Q 23.53125 72.3125 25.890625 70.46875 
Q 28.265625 68.640625 32.515625 68.640625 
Q 36.71875 68.640625 39.0625 70.453125 
Q 41.40625 72.265625 42.046875 75.96875 
L 47.796875 75.96875 
Q 47.3125 68.984375 43.453125 65.46875 
Q 39.59375 61.953125 32.515625 61.953125 
Q 25.4375 61.953125 21.578125 65.46875 
Q 17.71875 68.984375 17.234375 75.96875 
z
" id="DejaVuSans-1081"/>
      <path d="M 11.71875 12.40625 
L 22.015625 12.40625 
L 22.015625 4 
L 14.015625 -11.625 
L 7.71875 -11.625 
L 11.71875 4 
z
" id="DejaVuSans-44"/>
      <path d="M 72.703125 32.078125 
Q 68.453125 32.078125 66.03125 28.46875 
Q 63.625 24.859375 63.625 18.40625 
Q 63.625 12.0625 66.03125 8.421875 
Q 68.453125 4.78125 72.703125 4.78125 
Q 76.859375 4.78125 79.265625 8.421875 
Q 81.6875 12.0625 81.6875 18.40625 
Q 81.6875 24.8125 79.265625 28.4375 
Q 76.859375 32.078125 72.703125 32.078125 
z
M 72.703125 38.28125 
Q 80.421875 38.28125 84.953125 32.90625 
Q 89.5 27.546875 89.5 18.40625 
Q 89.5 9.28125 84.9375 3.921875 
Q 80.375 -1.421875 72.703125 -1.421875 
Q 64.890625 -1.421875 60.34375 3.921875 
Q 55.8125 9.28125 55.8125 18.40625 
Q 55.8125 27.59375 60.375 32.9375 
Q 64.9375 38.28125 72.703125 38.28125 
z
M 22.3125 68.015625 
Q 18.109375 68.015625 15.6875 64.375 
Q 13.28125 60.75 13.28125 54.390625 
Q 13.28125 47.953125 15.671875 44.328125 
Q 18.0625 40.71875 22.3125 40.71875 
Q 26.5625 40.71875 28.96875 44.328125 
Q 31.390625 47.953125 31.390625 54.390625 
Q 31.390625 60.6875 28.953125 64.34375 
Q 26.515625 68.015625 22.3125 68.015625 
z
M 66.40625 74.21875 
L 74.21875 74.21875 
L 28.609375 -1.421875 
L 20.796875 -1.421875 
z
M 22.3125 74.21875 
Q 30.03125 74.21875 34.609375 68.875 
Q 39.203125 63.53125 39.203125 54.390625 
Q 39.203125 45.171875 34.640625 39.84375 
Q 30.078125 34.515625 22.3125 34.515625 
Q 14.546875 34.515625 10.03125 39.859375 
Q 5.515625 45.21875 5.515625 54.390625 
Q 5.515625 63.484375 10.046875 68.84375 
Q 14.59375 74.21875 22.3125 74.21875 
z
" id="DejaVuSans-37"/>
     </defs>
     <g transform="translate(243.673437 284.596563)scale(0.1 -0.1)">
      <use xlink:href="#DejaVuSans-1076"/>
      <use x="69.140625" xlink:href="#DejaVuSans-1086"/>
      <use x="130.322266" xlink:href="#DejaVuSans-1083"/>
      <use x="194.238281" xlink:href="#DejaVuSans-1103"/>
      <use x="254.394531" xlink:href="#DejaVuSans-32"/>
      <use x="286.181641" xlink:href="#DejaVuSans-1087"/>
      <use x="351.5625" xlink:href="#DejaVuSans-1086"/>
      <use x="412.744141" xlink:href="#DejaVuSans-1088"/>
      <use x="476.220703" xlink:href="#DejaVuSans-1090"/>
      <use x="534.472656" xlink:href="#DejaVuSans-1092"/>
      <use x="619.970703" xlink:href="#DejaVuSans-1077"/>
      <use x="681.494141" xlink:href="#DejaVuSans-1083"/>
      <use x="745.410156" xlink:href="#DejaVuSans-1077"/>
      <use x="806.933594" xlink:href="#DejaVuSans-1081"/>
      <use x="871.923828" xlink:href="#DejaVuSans-44"/>
      <use x="903.710938" xlink:href="#DejaVuSans-32"/>
      <use x="935.498047" xlink:href="#DejaVuSans-37"/>
     </g>
    </g>
   </g>
   <g id="matplotlib.axis_2">
    <g id="ytick_1">
     <g id="line2d_7">
      <defs>
       <path d="M 0 0 
L -3.5 0 
" id="mf683579f04" style="stroke:#000000;stroke-width:0.8;"/>
      </defs>
      <g>
       <use style="stroke:#000000;stroke-width:0.8;" x="72" xlink:href="#mf683579f04" y="244.934842"/>
      </g>
     </g>
     <g id="text_8">
      <!-- 0 -->
      <g transform="translate(58.6375 248.734061)scale(0.1 -0.1)">
       <use xlink:href="#DejaVuSans-48"/>
      </g>
     </g>
    </g>
    <g id="ytick_2">
     <g id="line2d_8">
      <g>
       <use style="stroke:#000000;stroke-width:0.8;" x="72" xlink:href="#mf683579f04" y="217.16282"/>
      </g>
     </g>
     <g id="text_9">
      <!-- 2 -->
      <g transform="translate(58.6375 220.962039)scale(0.1 -0.1)">
       <use xlink:href="#DejaVuSans-50"/>
      </g>
     </g>
    </g>
    <g id="ytick_3">
     <g id="line2d_9">
      <g>
       <use style="stroke:#000000;stroke-width:0.8;" x="72" xlink:href="#mf683579f04" y="189.390798"/>
      </g>
     </g>
     <g id="text_10">
      <!-- 4 -->
      <g transform="translate(58.6375 193.190017)scale(0.1 -0.1)">
       <use xlink:href="#DejaVuSans-52"/>
      </g>
     </g>
    </g>
    <g id="ytick_4">
     <g id="line2d_10">
      <g>
       <use style="stroke:#000000;stroke-width:0.8;" x="72" xlink:href="#mf683579f04" y="161.618776"/>
      </g>
     </g>
     <g id="text_11">
      <!-- 6 -->
      <g transform="translate(58.6375 165.417995)scale(0.1 -0.1)">
       <use xlink:href="#DejaVuSans-54"/>
      </g>
     </g>
    </g>
    <g id="ytick_5">
     <g id="line2d_11">
      <g>
       <use style="stroke:#000000;stroke-width:0.8;" x="72" xlink:href="#mf683579f04" y="133.846755"/>
      </g>
     </g>
     <g id="text_12">
      <!-- 8 -->
      <g transform="translate(58.6375 137.645973)scale(0.1 -0.1)">
       <use xlink:href="#DejaVuSans-56"/>
      </g>
     </g>
    </g>
    <g id="ytick_6">
     <g id="line2d_12">
      <g>
       <use style="stroke:#000000;stroke-width:0.8;" x="72" xlink:href="#mf683579f04" y="106.074733"/>
      </g>
     </g>
     <g id="text_13">
      <!-- 10 -->
      <g transform="translate(52.275 109.873951)scale(0.1 -0.1)">
       <use xlink:href="#DejaVuSans-49"/>
       <use x="63.623047" xlink:href="#DejaVuSans-48"/>
      </g>
     </g>
    </g>
    <g id="ytick_7">
     <g id="line2d_13">
      <g>
       <use style="stroke:#000000;stroke-width:0.8;" x="72" xlink:href="#mf683579f04" y="78.302711"/>
      </g>
     </g>
     <g id="text_14">
      <!-- 12 -->
      <g transform="translate(52.275 82.101929)scale(0.1 -0.1)">
       <use xlink:href="#DejaVuSans-49"/>
       <use x="63.623047" xlink:href="#DejaVuSans-50"/>
      </g>
     </g>
    </g>
    <g id="ytick_8">
     <g id="line2d_14">
      <g>
       <use style="stroke:#000000;stroke-width:0.8;" x="72" xlink:href="#mf683579f04" y="50.530689"/>
      </g>
     </g>
     <g id="text_15">
      <!-- 14 -->
      <g transform="translate(52.275 54.329907)scale(0.1 -0.1)">
       <use xlink:href="#DejaVuSans-49"/>
       <use x="63.623047" xlink:href="#DejaVuSans-52"/>
      </g>
     </g>
    </g>
    <g id="text_16">
     <!-- доходность, %г -->
     <defs>
      <path d="M 54.890625 54.6875 
L 35.109375 28.078125 
L 55.90625 0 
L 45.3125 0 
L 29.390625 21.484375 
L 13.484375 0 
L 2.875 0 
L 24.125 28.609375 
L 4.6875 54.6875 
L 15.28125 54.6875 
L 29.78125 35.203125 
L 44.28125 54.6875 
z
" id="DejaVuSans-1093"/>
      <path d="M 9.078125 54.6875 
L 18.109375 54.6875 
L 18.109375 32.375 
L 47.265625 32.375 
L 47.265625 54.6875 
L 56.296875 54.6875 
L 56.296875 0 
L 47.265625 0 
L 47.265625 25.203125 
L 18.109375 25.203125 
L 18.109375 0 
L 9.078125 0 
z
" id="DejaVuSans-1085"/>
      <path d="M 48.78125 52.59375 
L 48.78125 44.1875 
Q 44.96875 46.296875 41.140625 47.34375 
Q 37.3125 48.390625 33.40625 48.390625 
Q 24.65625 48.390625 19.8125 42.84375 
Q 14.984375 37.3125 14.984375 27.296875 
Q 14.984375 17.28125 19.8125 11.734375 
Q 24.65625 6.203125 33.40625 6.203125 
Q 37.3125 6.203125 41.140625 7.25 
Q 44.96875 8.296875 48.78125 10.40625 
L 48.78125 2.09375 
Q 45.015625 0.34375 40.984375 -0.53125 
Q 36.96875 -1.421875 32.421875 -1.421875 
Q 20.0625 -1.421875 12.78125 6.34375 
Q 5.515625 14.109375 5.515625 27.296875 
Q 5.515625 40.671875 12.859375 48.328125 
Q 20.21875 56 33.015625 56 
Q 37.15625 56 41.109375 55.140625 
Q 45.0625 54.296875 48.78125 52.59375 
z
" id="DejaVuSans-1089"/>
      <path d="M 43.453125 16.21875 
Q 43.453125 20.609375 40.25 22.90625 
Q 37.0625 25.203125 30.90625 25.203125 
L 18.109375 25.203125 
L 18.109375 7.171875 
L 30.90625 7.171875 
Q 37.0625 7.171875 40.25 9.484375 
Q 43.453125 11.8125 43.453125 16.21875 
z
M 9.078125 54.6875 
L 18.109375 54.6875 
L 18.109375 32.375 
L 31.296875 32.375 
Q 41.75 32.375 47.390625 28.390625 
Q 53.03125 24.421875 53.03125 16.21875 
Q 53.03125 8.015625 47.390625 4 
Q 41.75 0 31.296875 0 
L 9.078125 0 
z
" id="DejaVuSans-1100"/>
      <path d="M 9.078125 0 
L 9.078125 54.6875 
L 47.65625 54.6875 
L 47.65625 47.515625 
L 18.109375 47.515625 
L 18.109375 0 
z
" id="DejaVuSans-1075"/>
     </defs>
     <g transform="translate(46.195312 186.925156)rotate(-90)scale(0.1 -0.1)">
      <use xlink:href="#DejaVuSans-1076"/>
      <use x="69.140625" xlink:href="#DejaVuSans-1086"/>
      <use x="130.322266" xlink:href="#DejaVuSans-1093"/>
      <use x="189.501953" xlink:href="#DejaVuSans-1086"/>
      <use x="250.683594" xlink:href="#DejaVuSans-1076"/>
      <use x="319.824219" xlink:href="#DejaVuSans-1085"/>
      <use x="385.205078" xlink:href="#DejaVuSans-1086"/>
      <use x="446.386719" xlink:href="#DejaVuSans-1089"/>
      <use x="501.367188" xlink:href="#DejaVuSans-1090"/>
      <use x="559.619141" xlink:href="#DejaVuSans-1100"/>
      <use x="618.554688" xlink:href="#DejaVuSans-44"/>
      <use x="650.341797" xlink:href="#DejaVuSans-32"/>
      <use x="682.128906" xlink:href="#DejaVuSans-37"/>
      <use x="777.148438" xlink:href="#DejaVuSans-1075"/>
     </g>
    </g>
   </g>
   <g id="line2d_15">
    <path clip-path="url(#p98dcff0b02)" d="M 92.290909 239.059387 
L 92.49392 237.917715 
L 92.69693 231.719576 
L 93.102951 228.474058 
L 93.305962 227.75259 
L 93.711983 227.122417 
L 94.727036 224.875519 
L 94.930047 223.907188 
L 95.539079 223.476856 
L 95.742089 222.988635 
L 96.14811 222.850213 
L 96.757142 222.592045 
L 96.960153 222.450606 
L 97.163163 221.85813 
L 97.366174 220.42089 
L 97.569185 220.393506 
L 97.772195 219.717376 
L 98.178216 219.470267 
L 98.584238 218.764646 
L 99.193269 217.735132 
L 99.599291 217.431589 
L 99.802301 217.023036 
L 100.614344 216.882723 
L 101.020365 216.474517 
L 102.035418 216.281168 
L 102.84746 215.801867 
L 104.674555 215.636891 
L 105.283587 214.840125 
L 105.486598 214.817331 
L 105.689608 214.495859 
L 105.892619 214.434812 
L 106.09563 214.109406 
L 107.922725 213.592682 
L 108.125736 213.137524 
L 109.140789 212.611861 
L 109.54681 212.323518 
L 110.155842 211.944321 
L 110.764873 211.820861 
L 110.967884 211.56536 
L 111.170895 211.512564 
L 111.576916 211.106156 
L 111.982937 210.945355 
L 112.794979 210.198074 
L 113.607022 209.844058 
L 114.013043 209.803799 
L 114.216053 209.41533 
L 115.028096 209.180123 
L 116.246159 208.780067 
L 116.855191 208.699753 
L 117.464223 208.512653 
L 117.870244 208.455207 
L 118.276265 208.247711 
L 119.494329 208.041425 
L 120.915403 207.789873 
L 121.930456 207.71002 
L 122.336477 207.598176 
L 123.35153 207.258097 
L 123.960562 206.758891 
L 125.990668 206.378652 
L 126.193679 206.187214 
L 128.832816 205.721182 
L 129.035827 205.505131 
L 130.253891 205.229854 
L 130.659912 204.871738 
L 131.065933 204.84886 
L 131.471954 204.692466 
L 132.080986 204.546834 
L 132.283997 204.234834 
L 134.111092 204.019717 
L 134.923134 203.795057 
L 136.95324 203.470041 
L 137.156251 203.273292 
L 143.65259 202.108549 
L 144.058611 202.026099 
L 145.073664 201.864611 
L 146.291728 201.620258 
L 149.133876 200.981263 
L 150.960971 200.792037 
L 152.585056 200.212509 
L 156.645268 199.387789 
L 157.660321 199.188947 
L 159.081395 198.994339 
L 159.284406 198.982117 
L 159.690427 198.846222 
L 160.70548 198.715312 
L 161.111501 198.59891 
L 164.359671 198.289712 
L 165.780745 197.969686 
L 172.277084 197.380715 
L 174.104179 197.087165 
L 176.337296 196.885583 
L 177.149338 196.757714 
L 179.991487 196.524199 
L 183.239656 196.193026 
L 183.442667 196.136526 
L 183.645677 195.911703 
L 188.111911 195.388539 
L 188.517932 195.278455 
L 189.735995 195.073575 
L 190.142016 194.982181 
L 191.157069 194.808214 
L 191.563091 194.690288 
L 192.375133 194.50227 
L 195.014271 194.244598 
L 198.668462 193.726438 
L 199.074483 193.621666 
L 205.164801 192.830566 
L 205.570822 192.643299 
L 206.179854 192.551422 
L 206.585875 192.532925 
L 206.991896 192.391617 
L 208.006949 192.284323 
L 209.428023 192.0962 
L 217.345436 191.246551 
L 218.157479 191.172918 
L 218.5635 191.047782 
L 219.781564 190.934121 
L 220.390595 190.77744 
L 222.623712 190.614587 
L 224.044786 190.411109 
L 231.353167 189.404122 
L 233.383273 189.24016 
L 234.195316 189.151207 
L 235.413379 189.028448 
L 236.428432 188.918067 
L 237.849507 188.813143 
L 239.06757 188.63939 
L 239.879613 188.581694 
L 241.909718 188.382678 
L 242.924771 188.271449 
L 243.533803 188.108448 
L 245.563909 187.857175 
L 246.578962 187.773035 
L 250.233153 187.436183 
L 251.248206 187.322875 
L 252.466269 187.179617 
L 253.278312 187.121997 
L 254.090354 186.843705 
L 254.293365 186.81713 
L 254.699386 186.578493 
L 255.511428 186.388882 
L 257.541534 186.214043 
L 258.556587 186.104007 
L 260.789704 185.882154 
L 262.81981 185.74575 
L 263.225831 185.621506 
L 265.864969 185.275302 
L 267.286043 185.101102 
L 273.17335 184.523478 
L 273.579372 184.41472 
L 275.812488 184.163811 
L 276.827541 183.998699 
L 280.481732 183.485757 
L 280.887753 183.35838 
L 281.293774 183.263177 
L 281.902806 183.227175 
L 282.308827 183.112008 
L 286.166028 182.618344 
L 286.77506 182.552423 
L 290.429251 182.107061 
L 292.662368 182.005964 
L 293.271399 181.876731 
L 294.895484 181.743484 
L 296.519569 181.435547 
L 297.737632 181.284382 
L 298.143654 181.229067 
L 298.549675 181.096538 
L 304.843003 180.415084 
L 305.655046 180.30543 
L 307.27913 180.124344 
L 307.685152 180.091853 
L 308.091173 179.962691 
L 311.542353 179.672928 
L 312.151385 179.500722 
L 313.369448 179.218416 
L 314.384501 179.109415 
L 315.196544 178.995498 
L 316.414607 178.770418 
L 317.22665 178.645365 
L 317.835681 178.597499 
L 318.241703 178.581865 
L 318.850734 178.276033 
L 320.068798 178.188868 
L 320.88084 177.920661 
L 322.707936 177.643564 
L 323.113957 177.561494 
L 323.925999 177.459744 
L 324.535031 177.367584 
L 325.956105 177.184923 
L 326.768148 177.030523 
L 328.392232 176.955591 
L 328.798254 176.867345 
L 330.016317 176.716675 
L 330.625349 176.566875 
L 331.437391 176.473926 
L 332.452444 176.36533 
L 332.655455 176.172368 
L 345.445123 174.550319 
L 345.851144 174.441653 
L 347.678239 174.313344 
L 349.099313 174.111707 
L 350.926409 173.977835 
L 351.53544 173.890225 
L 352.753504 173.762861 
L 353.768557 173.545795 
L 354.377589 173.365215 
L 357.422748 172.992364 
L 358.640811 172.87434 
L 360.873928 172.700223 
L 362.091991 172.505581 
L 367.370267 171.922759 
L 367.776288 171.820595 
L 368.588331 171.716677 
L 369.197362 171.650415 
L 370.212415 171.486505 
L 370.618436 171.272215 
L 372.648542 171.120562 
L 372.851553 170.951699 
L 374.272627 170.867074 
L 374.678648 170.744166 
L 375.28768 170.630899 
L 379.347892 170.11532 
L 379.753913 170.00059 
L 381.174987 169.8418 
L 381.784019 169.763362 
L 387.468316 168.909555 
L 389.701433 168.717945 
L 390.107454 168.629198 
L 393.152613 168.458323 
L 394.370676 168.199813 
L 395.994761 167.909978 
L 398.430888 167.543719 
L 400.664005 167.275111 
L 401.882068 167.128669 
L 403.709164 166.920236 
L 404.115185 166.766229 
L 406.551312 166.46484 
L 406.754323 166.300241 
L 408.581418 166.125177 
L 409.799482 165.963657 
L 410.611524 165.87593 
L 411.423566 165.615934 
L 412.64163 165.424907 
L 418.731948 164.463662 
L 419.54399 164.362383 
L 420.356033 164.157467 
L 421.371086 163.762967 
L 421.777107 163.688875 
L 422.183128 163.526726 
L 423.401192 163.35433 
L 424.213234 163.232668 
L 425.837319 162.911829 
L 426.649361 162.81242 
L 427.258393 162.621453 
L 428.070435 162.483424 
L 429.491509 162.194343 
L 429.897531 162.049406 
L 430.709573 161.888153 
L 431.115594 161.755363 
L 432.333658 161.650408 
L 433.348711 161.562525 
L 435.581827 160.87087 
L 435.784838 160.584006 
L 436.190859 160.466944 
L 436.39387 160.179451 
L 439.642039 159.564527 
L 440.04806 159.26943 
L 440.454082 159.140238 
L 441.875156 158.930077 
L 442.484188 158.554577 
L 443.093219 158.456604 
L 443.499241 158.355522 
L 443.905262 158.307754 
L 444.311283 158.03038 
L 445.529346 157.887426 
L 446.950421 157.510943 
L 447.559452 157.417255 
L 447.965474 157.182371 
L 449.386548 156.851843 
L 450.401601 156.68298 
L 450.807622 156.345951 
L 451.416654 156.150073 
L 452.025686 155.827043 
L 452.228696 155.823201 
L 452.431707 155.673975 
L 452.837728 155.627721 
L 453.243749 155.505983 
L 454.055792 155.334037 
L 454.867834 155.057745 
L 455.273855 155.045038 
L 455.476866 154.819031 
L 455.882887 154.789171 
L 458.725035 153.587502 
L 459.131056 153.527151 
L 459.537078 153.282974 
L 459.943099 153.077294 
L 460.755141 152.854248 
L 460.958152 152.84158 
L 461.567184 152.461301 
L 463.394279 151.917263 
L 464.003311 151.48717 
L 464.206321 151.112175 
L 464.612343 151.078177 
L 465.018364 150.761368 
L 466.033417 150.434644 
L 466.439438 150.388496 
L 466.845459 150.028137 
L 467.25148 149.874834 
L 467.657501 149.711203 
L 467.860512 149.657603 
L 468.266533 149.231627 
L 468.469544 149.073809 
L 468.672554 149.065115 
L 469.890618 148.350529 
L 470.296639 148.274828 
L 470.70266 148.089844 
L 472.123735 147.569418 
L 473.138788 146.366976 
L 474.153841 145.926755 
L 474.559862 145.452076 
L 474.762872 145.435453 
L 475.371904 145.056717 
L 475.777925 144.988944 
L 476.589968 144.718524 
L 477.40201 144.549057 
L 477.808031 144.160737 
L 478.417063 143.850562 
L 478.620074 143.639643 
L 479.229105 143.522493 
L 479.635127 143.052435 
L 480.041148 142.771709 
L 480.244158 141.828668 
L 480.447169 141.714315 
L 480.65018 141.305906 
L 481.462222 140.800152 
L 481.665233 140.205518 
L 482.477275 139.732998 
L 482.680286 139.523664 
L 483.086307 139.444038 
L 483.289317 139.126846 
L 483.898349 139.038024 
L 484.10136 138.833935 
L 484.507381 137.697663 
L 484.710392 137.684673 
L 484.913402 136.608224 
L 485.319423 136.157753 
L 485.928455 135.949094 
L 486.131466 135.080208 
L 486.943508 134.855279 
L 487.55254 134.350315 
L 487.958561 134.089191 
L 488.161572 134.08766 
L 488.364582 133.850648 
L 489.176625 133.543667 
L 489.582646 133.089826 
L 489.785656 133.087305 
L 489.988667 131.873674 
L 490.191678 131.566495 
L 490.597699 131.413556 
L 491.00372 130.884873 
L 491.206731 130.703438 
L 491.409741 129.848577 
L 491.612752 129.66527 
L 491.815762 128.591681 
L 492.018773 125.190681 
L 492.627805 124.406557 
L 493.033826 123.570546 
L 493.236837 120.812432 
L 493.439847 120.467502 
L 493.845868 120.323016 
L 494.657911 116.371392 
L 494.860921 116.154283 
L 495.469953 113.930034 
L 495.672964 113.875682 
L 495.875974 109.850564 
L 496.078985 108.420984 
L 496.281996 108.354692 
L 496.688017 100.168935 
L 496.891027 96.713616 
L 497.500059 74.041737 
L 497.70307 70.873582 
L 497.90608 61.076339 
L 498.109091 44.64 
L 498.109091 44.64 
" style="fill:none;stroke:#1f77b4;stroke-linecap:square;stroke-width:1.5;"/>
   </g>
   <g id="line2d_16">
    <path clip-path="url(#p98dcff0b02)" d="M 92.290909 238.305459 
L 92.69693 228.201797 
L 92.899941 228.118979 
L 93.102951 227.398289 
L 93.305962 227.377736 
L 93.508973 224.780585 
L 93.711983 224.45893 
L 93.914994 223.82565 
L 94.118004 222.804489 
L 94.321015 222.797341 
L 94.727036 222.580848 
L 94.930047 222.538397 
L 95.133057 222.247601 
L 95.336068 222.242699 
L 95.9451 221.77487 
L 96.351121 221.669485 
L 96.757142 220.797283 
L 97.163163 220.53176 
L 97.569185 219.173516 
L 98.584238 217.81054 
L 98.787248 216.885768 
L 99.599291 216.398891 
L 100.005312 216.05231 
L 101.223375 215.595872 
L 101.832407 215.329847 
L 102.441439 215.192911 
L 102.84746 214.641347 
L 103.253481 214.436306 
L 104.674555 213.633668 
L 104.877566 213.307551 
L 105.283587 213.190916 
L 106.09563 212.993471 
L 106.501651 212.634335 
L 106.704661 212.39033 
L 107.719714 212.292859 
L 108.125736 211.830028 
L 108.328746 211.820915 
L 108.531757 211.583734 
L 109.140789 211.476174 
L 109.54681 211.06303 
L 109.952831 211.00645 
L 110.358852 210.801639 
L 110.764873 210.264763 
L 111.170895 210.164239 
L 111.576916 210.152503 
L 112.591969 209.68143 
L 112.794979 209.658546 
L 112.99799 209.218613 
L 114.825085 208.343443 
L 115.231106 208.326591 
L 115.637128 208.001068 
L 117.058202 207.426522 
L 117.261212 207.416697 
L 118.682287 206.587336 
L 119.69734 206.493505 
L 120.509382 206.321903 
L 122.945509 205.725338 
L 123.14852 205.494094 
L 123.757552 205.395535 
L 123.960562 205.172115 
L 127.208732 204.611237 
L 127.817763 204.506119 
L 128.629806 204.348282 
L 129.644859 204.069313 
L 130.456901 203.9638 
L 131.065933 203.751563 
L 131.877975 203.659235 
L 132.080986 203.441241 
L 135.329155 202.881961 
L 135.938187 202.807652 
L 136.547219 202.368725 
L 138.780336 201.989422 
L 143.449579 201.350874 
L 143.855601 201.256204 
L 144.870654 201.093576 
L 145.073664 201.057832 
L 145.276675 200.901257 
L 146.494738 200.733376 
L 147.915812 200.502191 
L 148.727855 200.385358 
L 150.35194 200.165361 
L 150.757961 199.996066 
L 151.366993 199.916007 
L 152.788067 199.573203 
L 153.397099 199.416282 
L 155.224194 199.228338 
L 159.487416 198.687228 
L 159.690427 198.482256 
L 161.111501 198.347672 
L 161.923544 198.082757 
L 163.547628 197.982841 
L 172.886116 196.847828 
L 173.292137 196.731042 
L 174.104179 196.644165 
L 176.337296 196.208042 
L 176.743317 196.062554 
L 178.367402 195.954656 
L 178.570412 195.706361 
L 182.630624 195.265827 
L 183.036646 195.143972 
L 184.254709 195.001056 
L 185.066752 194.830861 
L 186.893847 194.688252 
L 188.923953 194.519273 
L 190.548038 194.38457 
L 197.044377 193.659029 
L 197.450398 193.535215 
L 198.871472 193.338354 
L 200.089536 193.204517 
L 200.698567 193.039961 
L 206.382864 192.374177 
L 206.788885 192.226555 
L 208.006949 192.127968 
L 209.022002 191.931238 
L 209.428023 191.919965 
L 209.834044 191.706535 
L 211.66114 191.493305 
L 212.473182 191.325398 
L 214.097267 191.205954 
L 215.924362 190.862601 
L 218.157479 190.650437 
L 218.969521 190.48249 
L 220.796616 190.263303 
L 221.405648 190.164947 
L 222.01468 190.07122 
L 222.623712 189.978343 
L 223.638765 189.799031 
L 226.886934 189.471845 
L 227.292956 189.322467 
L 230.135104 188.983174 
L 234.804348 188.458986 
L 235.210369 188.311974 
L 236.225422 188.223041 
L 237.037464 188.09681 
L 238.255528 187.941442 
L 239.270581 187.85057 
L 241.503697 187.685357 
L 242.112729 187.634641 
L 245.360899 187.418812 
L 246.578962 187.298075 
L 248.609068 187.166363 
L 252.872291 186.733311 
L 253.481322 186.594565 
L 257.744545 186.081705 
L 258.556587 185.946606 
L 260.789704 185.721552 
L 262.007768 185.58921 
L 263.428842 185.440299 
L 266.880022 185.147415 
L 268.910128 184.965945 
L 270.737223 184.707807 
L 271.549266 184.621014 
L 272.97034 184.477136 
L 274.594424 184.235633 
L 275.812488 184.072166 
L 277.233562 183.842926 
L 280.481732 183.50908 
L 281.699795 183.333286 
L 282.917859 183.165514 
L 284.541944 182.989576 
L 285.556997 182.832751 
L 286.369039 182.710077 
L 286.978071 182.62556 
L 297.940643 181.440306 
L 299.158707 181.26651 
L 312.354395 179.832134 
L 315.196544 179.498737 
L 319.459766 178.991761 
L 319.865787 178.927755 
L 321.692883 178.80838 
L 322.910946 178.615982 
L 324.941052 178.460103 
L 325.550084 178.3383 
L 327.174169 178.141525 
L 327.986211 177.994586 
L 330.219328 177.827166 
L 330.625349 177.686765 
L 331.234381 177.52547 
L 331.843413 177.348543 
L 339.151794 176.545218 
L 339.760826 176.416177 
L 342.602974 176.260003 
L 343.008995 176.125445 
L 343.415017 176.045958 
L 344.024048 175.921325 
L 345.445123 175.768612 
L 351.738451 175.078781 
L 352.550493 174.928864 
L 355.798663 174.74975 
L 356.407695 174.637465 
L 358.437801 174.539889 
L 358.843822 174.433901 
L 359.452854 174.327141 
L 365.13715 173.68551 
L 365.543172 173.541241 
L 367.370267 173.321616 
L 370.009405 173.026789 
L 371.227468 172.9162 
L 372.242521 172.820232 
L 372.648542 172.707474 
L 373.054564 172.59968 
L 373.663595 172.34535 
L 374.678648 172.171891 
L 375.693701 171.945392 
L 376.505744 171.795153 
L 380.159935 171.057998 
L 381.377998 170.907355 
L 385.032189 170.534231 
L 386.047242 170.429833 
L 388.88939 170.047748 
L 389.295411 169.903963 
L 390.513475 169.778458 
L 394.167666 169.332908 
L 394.573687 169.242127 
L 395.182719 169.167744 
L 396.400782 169.051813 
L 396.603793 168.869374 
L 397.821856 168.735614 
L 398.633899 168.611781 
L 399.445941 168.37031 
L 400.460994 168.27248 
L 401.273037 168.189822 
L 402.085079 168.096757 
L 403.506153 167.891619 
L 405.536259 167.585398 
L 407.566365 167.270195 
L 408.175397 167.073747 
L 408.784429 166.986488 
L 409.596471 166.79581 
L 410.205503 166.687534 
L 410.611524 166.497564 
L 412.64163 166.222668 
L 413.453672 166.061108 
L 419.34098 165.18831 
L 422.386139 164.577035 
L 422.79216 164.535445 
L 423.401192 164.304472 
L 425.431297 163.977563 
L 426.24334 163.727227 
L 426.649361 163.626713 
L 426.852372 163.401635 
L 427.867425 163.298367 
L 428.679467 163.211218 
L 429.897531 163.06414 
L 430.709573 162.988463 
L 431.115594 162.859409 
L 431.927637 162.744723 
L 432.536668 162.660452 
L 433.754732 162.517642 
L 434.160753 162.446662 
L 435.581827 162.370217 
L 435.987848 161.791876 
L 438.423976 161.436633 
L 438.829997 161.3373 
L 441.266124 160.657674 
L 442.281177 160.490262 
L 444.920315 159.885724 
L 445.326336 159.759614 
L 446.341389 159.536088 
L 446.74741 159.406296 
L 447.559452 159.189903 
L 447.762463 159.170703 
L 448.168484 158.936619 
L 449.589558 158.41829 
L 450.401601 158.331187 
L 450.807622 158.171692 
L 452.228696 158.039879 
L 452.634717 157.927576 
L 453.243749 157.865421 
L 453.64977 157.688597 
L 454.664823 157.519521 
L 455.679876 157.09931 
L 455.882887 156.875772 
L 456.694929 156.725709 
L 457.303961 156.363536 
L 458.522025 156.058089 
L 458.928046 155.644964 
L 459.334067 155.382141 
L 459.537078 155.360207 
L 459.943099 155.209551 
L 461.770194 154.460973 
L 462.582237 153.732006 
L 462.988258 153.571664 
L 463.8003 153.43967 
L 464.612343 153.022088 
L 465.424385 152.934738 
L 466.439438 152.50742 
L 467.454491 152.11629 
L 467.657501 151.793656 
L 468.063523 151.658814 
L 468.266533 151.47211 
L 468.469544 151.464901 
L 469.484597 150.945762 
L 469.687607 150.933421 
L 470.905671 150.217404 
L 471.514703 150.138921 
L 471.717713 150.036726 
L 471.920724 149.670827 
L 472.529756 149.342518 
L 473.95083 149.060025 
L 476.792978 148.296291 
L 477.198999 148.022191 
L 477.605021 147.844389 
L 477.808031 147.478763 
L 478.214052 147.300841 
L 479.026095 146.793409 
L 479.838137 146.539215 
L 480.85319 146.006772 
L 481.259211 145.606597 
L 482.883296 145.040598 
L 483.086307 144.970263 
L 483.289317 144.747062 
L 483.492328 144.718852 
L 483.695339 144.452194 
L 484.10136 143.463509 
L 484.913402 143.24251 
L 485.116413 142.89186 
L 485.522434 142.746252 
L 486.334476 141.351204 
L 486.740498 141.261298 
L 487.146519 140.966661 
L 487.349529 140.597564 
L 487.55254 140.565241 
L 487.755551 140.077429 
L 487.958561 139.890989 
L 488.364582 139.107171 
L 488.567593 138.450025 
L 489.176625 137.928129 
L 489.379635 137.276538 
L 489.582646 136.188 
L 489.988667 135.841707 
L 490.597699 134.837557 
L 490.800709 133.744959 
L 491.409741 132.653791 
L 491.612752 132.54324 
L 492.018773 131.959174 
L 492.221784 130.85064 
L 492.830815 130.441263 
L 493.236837 128.912842 
L 493.439847 128.121976 
L 493.642858 126.636009 
L 493.845868 126.522262 
L 494.048879 126.040362 
L 494.25189 126.027741 
L 494.4549 125.8368 
L 494.657911 125.449116 
L 494.860921 125.448186 
L 495.266943 124.588322 
L 495.469953 124.430985 
L 495.672964 124.054794 
L 496.281996 121.968132 
L 496.485006 121.835035 
L 496.891027 118.871624 
L 497.094038 118.849602 
L 497.297049 118.029676 
L 497.500059 113.320919 
L 497.70307 88.298525 
L 498.109091 80.589899 
L 498.109091 80.589899 
" style="fill:none;stroke:#ff7f0e;stroke-linecap:square;stroke-width:1.5;"/>
   </g>
   <g id="line2d_17">
    <path clip-path="url(#p98dcff0b02)" d="M 92.290909 237.230902 
L 92.49392 231.031701 
L 92.69693 229.234754 
L 92.899941 228.861781 
L 93.508973 226.898531 
L 93.711983 226.79153 
L 93.914994 226.496424 
L 94.118004 224.754064 
L 94.727036 223.896796 
L 94.930047 223.825568 
L 95.539079 223.008077 
L 95.742089 222.976252 
L 96.14811 221.934075 
L 96.351121 221.828153 
L 96.757142 220.178961 
L 96.960153 220.165649 
L 97.569185 219.202351 
L 97.975206 219.115872 
L 98.381227 218.604676 
L 98.787248 218.47292 
L 99.39628 217.634953 
L 99.599291 217.153858 
L 99.802301 217.133483 
L 100.005312 216.653054 
L 100.411333 216.492831 
L 100.614344 216.229575 
L 100.817354 216.20432 
L 101.020365 215.897358 
L 101.223375 215.839271 
L 101.426386 215.56334 
L 101.832407 215.483831 
L 102.441439 215.013126 
L 102.644449 214.963181 
L 102.84746 214.698333 
L 103.050471 214.695321 
L 103.253481 214.513419 
L 103.456492 214.512438 
L 104.471545 213.495758 
L 104.877566 212.917175 
L 105.486598 212.715792 
L 105.689608 212.346084 
L 105.892619 212.33311 
L 106.907672 211.706512 
L 107.110683 211.660738 
L 107.719714 210.819703 
L 108.125736 210.623052 
L 108.531757 210.217085 
L 108.734767 210.188677 
L 109.140789 209.63726 
L 109.343799 209.463103 
L 109.54681 209.123609 
L 109.952831 209.02688 
L 110.561863 208.93214 
L 110.967884 208.53604 
L 111.170895 208.500248 
L 111.576916 207.997032 
L 111.982937 207.957161 
L 112.591969 207.616888 
L 114.013043 207.304658 
L 114.825085 207.143227 
L 115.231106 207.012548 
L 115.840138 206.902207 
L 116.246159 206.543468 
L 116.855191 206.453421 
L 117.058202 206.262943 
L 117.261212 206.245918 
L 117.870244 205.895062 
L 118.479276 205.642106 
L 119.69734 205.079478 
L 120.306371 204.937153 
L 121.524435 204.360895 
L 121.930456 204.170602 
L 123.35153 203.89308 
L 123.757552 203.529549 
L 125.178626 203.216836 
L 125.381636 203.145505 
L 125.787657 202.684867 
L 126.193679 202.518849 
L 128.832816 201.960234 
L 129.035827 201.849788 
L 129.238838 201.583562 
L 130.05088 201.451013 
L 132.283997 200.939913 
L 132.487007 200.716666 
L 133.705071 200.582979 
L 135.735177 200.23736 
L 136.75023 199.902427 
L 137.562272 199.444267 
L 138.374314 199.141747 
L 139.186357 198.928806 
L 142.231516 198.264132 
L 143.043558 198.170696 
L 143.246569 197.902515 
L 144.464632 197.681577 
L 144.870654 197.528153 
L 145.276675 197.408309 
L 146.291728 197.183717 
L 146.697749 197.031383 
L 147.915812 196.927572 
L 148.524844 196.81378 
L 153.397099 195.960669 
L 153.80312 195.770441 
L 156.036236 195.258574 
L 156.442257 195.15913 
L 157.45731 195.039677 
L 158.269353 194.930751 
L 159.081395 194.706335 
L 160.502469 194.53775 
L 161.517522 194.385371 
L 162.329565 194.176583 
L 162.938597 194.096123 
L 164.15666 194.008053 
L 164.765692 193.911883 
L 166.592787 193.687745 
L 166.998808 193.547212 
L 168.419883 193.253622 
L 177.149338 191.63258 
L 177.555359 191.476836 
L 179.991487 191.133078 
L 180.397508 190.98634 
L 181.20955 190.82175 
L 182.427614 190.41273 
L 182.833635 190.260931 
L 183.442667 190.221835 
L 183.848688 190.136064 
L 185.878794 189.908605 
L 187.9089 189.520606 
L 188.720942 189.200218 
L 190.142016 189.080817 
L 193.593197 188.813621 
L 193.796207 188.537773 
L 195.014271 188.360933 
L 196.435345 188.185851 
L 197.653409 188.051369 
L 198.26244 187.941792 
L 198.871472 187.808784 
L 205.570822 186.648342 
L 206.382864 186.620923 
L 206.788885 186.490649 
L 207.803938 186.398434 
L 208.20996 186.321928 
L 208.818991 186.179338 
L 209.428023 186.03121 
L 210.037055 185.960208 
L 210.849097 185.820625 
L 213.082214 185.403285 
L 214.097267 185.253046 
L 214.503288 185.120069 
L 215.721352 184.996674 
L 217.345436 184.617116 
L 218.5635 184.463477 
L 219.172532 184.228599 
L 220.999627 184.068203 
L 221.811669 183.953509 
L 222.420701 183.859425 
L 223.029733 183.734401 
L 224.450807 183.596831 
L 225.871881 183.47073 
L 226.886934 183.357652 
L 227.495966 183.261566 
L 229.120051 182.827874 
L 229.526072 182.726498 
L 238.255528 181.453821 
L 238.86456 181.279404 
L 242.924771 180.596741 
L 243.533803 180.523771 
L 256.932503 178.495758 
L 257.744545 178.408996 
L 257.947556 178.265207 
L 258.150566 178.264496 
L 258.556587 178.056831 
L 261.601746 177.753099 
L 262.007768 177.635663 
L 263.225831 177.502714 
L 263.834863 177.447898 
L 264.240884 177.336265 
L 265.255937 177.204541 
L 265.661958 177.138804 
L 266.474001 177.047285 
L 267.083032 176.934848 
L 269.72217 176.751764 
L 270.534213 176.595834 
L 271.143244 176.454044 
L 271.752276 176.344229 
L 274.594424 175.976657 
L 277.639583 175.649427 
L 278.045605 175.51205 
L 278.857647 175.382526 
L 279.263668 175.313728 
L 279.8727 175.203927 
L 281.293774 175.034142 
L 282.105817 174.863883 
L 286.57205 174.245608 
L 287.181081 174.155765 
L 287.587103 174.049812 
L 288.602156 173.935541 
L 289.414198 173.758486 
L 290.632262 173.60664 
L 292.865378 173.284828 
L 297.534622 172.402679 
L 297.737632 172.232793 
L 298.549675 172.12728 
L 300.782791 171.664493 
L 303.218919 171.385206 
L 303.421929 171.215628 
L 304.030961 171.12118 
L 305.046014 170.835734 
L 307.888162 170.528093 
L 308.700205 170.219397 
L 318.444713 168.953346 
L 319.256756 168.861748 
L 319.865787 168.782541 
L 322.098904 168.51452 
L 322.707936 168.362006 
L 328.189222 167.594229 
L 328.595243 167.499104 
L 329.001264 167.390883 
L 330.016317 167.268017 
L 331.437391 167.090397 
L 332.046423 166.982762 
L 332.249434 166.966758 
L 332.452444 166.78262 
L 333.467497 166.623166 
L 334.27954 166.415268 
L 336.512656 166.150491 
L 338.339752 165.882242 
L 338.745773 165.772458 
L 339.354805 165.693162 
L 339.760826 165.555858 
L 343.008995 165.021418 
L 343.415017 164.754205 
L 344.024048 164.706939 
L 344.836091 164.480804 
L 347.475229 164.141946 
L 348.08426 164.07924 
L 348.896303 163.917478 
L 349.708345 163.622286 
L 351.738451 163.32252 
L 352.550493 163.097114 
L 354.78361 162.811654 
L 355.595652 162.565517 
L 355.798663 162.565361 
L 356.001674 162.426977 
L 357.016727 162.332778 
L 359.858875 161.845528 
L 360.467907 161.791923 
L 360.873928 161.657021 
L 362.091991 161.47335 
L 362.904034 161.354747 
L 363.919087 161.256296 
L 364.325108 161.070455 
L 366.152203 160.830038 
L 366.558225 160.686471 
L 368.38532 160.444756 
L 368.588331 160.432534 
L 368.791341 160.194921 
L 370.415426 160.009896 
L 370.821447 160.008388 
L 371.227468 159.810488 
L 372.242521 159.70426 
L 373.054564 159.433892 
L 376.708754 159.034017 
L 377.114776 158.770657 
L 381.174987 158.244585 
L 381.98703 157.980348 
L 384.017136 157.388365 
L 384.220146 157.197313 
L 385.641221 157.062502 
L 386.250252 156.965432 
L 388.077348 156.677467 
L 388.280358 156.499863 
L 388.483369 156.498164 
L 388.68638 156.222628 
L 389.295411 156.066734 
L 390.716486 155.80697 
L 391.122507 155.645824 
L 392.746591 155.438792 
L 394.167666 155.222997 
L 394.776697 155.045749 
L 395.994761 154.918617 
L 396.603793 154.783945 
L 397.212825 154.701756 
L 397.618846 154.550444 
L 398.633899 154.35531 
L 398.836909 154.158211 
L 400.257984 154.012461 
L 400.867015 153.754797 
L 401.679058 153.643246 
L 402.694111 153.521179 
L 402.897121 153.328073 
L 403.506153 153.230623 
L 403.912174 153.124559 
L 405.130238 152.88669 
L 405.536259 152.720192 
L 405.73927 152.69582 
L 406.145291 152.481494 
L 406.348301 152.480921 
L 406.754323 152.332447 
L 412.438619 150.981648 
L 413.250662 150.848558 
L 414.671736 150.411912 
L 415.077757 150.180714 
L 416.295821 150.090699 
L 416.498831 149.868785 
L 417.310874 149.74973 
L 417.513884 149.744673 
L 417.716895 149.496405 
L 418.122916 149.443608 
L 418.528937 149.326049 
L 419.747001 149.222307 
L 420.356033 149.103849 
L 420.559043 149.087214 
L 420.965064 148.872691 
L 421.574096 148.735867 
L 421.777107 148.44735 
L 421.980117 148.431878 
L 422.386139 148.282173 
L 424.619255 148.01624 
L 425.228287 147.718582 
L 426.040329 147.592402 
L 426.44635 147.510634 
L 427.461403 147.386378 
L 427.867425 147.250381 
L 428.070435 146.969986 
L 428.476456 146.865995 
L 430.912584 146.212381 
L 431.724626 146.168568 
L 432.130647 145.870819 
L 433.551721 145.576573 
L 433.957743 145.152058 
L 434.160753 145.119672 
L 434.363764 144.903309 
L 434.769785 144.832818 
L 435.175806 144.517229 
L 436.39387 144.076624 
L 436.799891 143.995818 
L 437.205912 143.854114 
L 441.875156 142.6027 
L 442.078166 142.602652 
L 442.484188 142.387905 
L 443.29623 142.261575 
L 444.311283 141.893476 
L 445.935368 141.449014 
L 446.950421 141.253322 
L 447.356442 140.967431 
L 447.762463 140.814232 
L 447.965474 140.772981 
L 448.168484 140.47251 
L 449.183537 140.295522 
L 449.792569 139.847419 
L 451.416654 139.698889 
L 452.025686 139.216181 
L 452.431707 139.061501 
L 452.634717 138.940903 
L 452.837728 138.544858 
L 453.243749 138.364436 
L 453.64977 138.204794 
L 454.055792 137.844498 
L 454.867834 137.572682 
L 455.476866 137.288239 
L 455.882887 137.071964 
L 456.89794 136.77534 
L 457.10095 136.724951 
L 457.709982 136.299994 
L 458.725035 135.991809 
L 458.928046 135.946138 
L 459.334067 135.671924 
L 459.740088 135.534199 
L 460.34912 135.28121 
L 461.364173 134.58811 
L 461.567184 134.584205 
L 461.973205 134.264926 
L 462.582237 134.150685 
L 462.988258 133.901265 
L 463.394279 133.651068 
L 463.59729 133.095602 
L 464.003311 132.893558 
L 464.409332 132.774951 
L 464.612343 132.453297 
L 465.424385 132.349045 
L 466.236427 131.664886 
L 466.439438 131.124828 
L 467.454491 130.923251 
L 468.063523 130.501091 
L 468.469544 130.374879 
L 468.672554 130.160782 
L 469.484597 129.908194 
L 469.687607 129.457777 
L 470.093629 129.17694 
L 470.296639 128.781343 
L 470.905671 128.677219 
L 471.514703 128.363906 
L 471.717713 127.839842 
L 472.732766 127.443679 
L 473.341798 127.210428 
L 474.153841 126.450802 
L 474.762872 125.028052 
L 475.371904 124.510435 
L 475.980936 124.402015 
L 476.386957 123.921464 
L 476.589968 123.335421 
L 477.40201 123.12937 
L 477.808031 122.480814 
L 478.011042 122.46952 
L 478.417063 122.324524 
L 479.432116 122.074753 
L 479.635127 121.522484 
L 479.838137 121.408397 
L 480.244158 120.956554 
L 481.056201 120.580189 
L 481.868243 119.937577 
L 482.274264 119.727578 
L 482.883296 119.182964 
L 483.492328 117.74638 
L 483.898349 116.910121 
L 484.507381 116.473418 
L 484.710392 116.444971 
L 485.522434 114.25891 
L 485.725445 114.226604 
L 485.928455 113.227848 
L 486.334476 113.100346 
L 486.740498 111.961416 
L 487.146519 111.658739 
L 487.55254 110.679608 
L 487.755551 110.670412 
L 487.958561 110.016357 
L 488.364582 109.699717 
L 488.770603 109.417997 
L 488.973614 109.059683 
L 489.176625 108.425086 
L 489.379635 106.567216 
L 489.988667 106.465258 
L 490.597699 106.026061 
L 491.206731 104.094697 
L 491.409741 103.443037 
L 491.612752 103.357393 
L 491.815762 103.000228 
L 492.018773 102.97721 
L 492.221784 102.393749 
L 492.627805 101.964311 
L 492.830815 100.893912 
L 493.033826 97.122111 
L 493.236837 97.069491 
L 493.439847 96.580777 
L 493.642858 96.458946 
L 493.845868 95.023809 
L 494.25189 94.388489 
L 494.4549 92.437412 
L 494.657911 91.866766 
L 494.860921 91.715684 
L 495.063932 90.552684 
L 495.266943 87.989544 
L 495.469953 79.877649 
L 495.875974 78.75752 
L 496.281996 75.237431 
L 496.688017 74.562716 
L 496.891027 74.04806 
L 497.094038 65.587605 
L 497.297049 62.814976 
L 497.500059 56.474763 
L 497.70307 56.097793 
L 498.109091 45.08289 
L 498.109091 45.08289 
" style="fill:none;stroke:#2ca02c;stroke-linecap:square;stroke-width:1.5;"/>
   </g>
   <g id="line2d_18">
    <path clip-path="url(#p98dcff0b02)" d="M 92.290909 246.24 
L 92.49392 243.888953 
L 92.69693 240.03682 
L 92.899941 238.893594 
L 93.102951 234.065523 
L 93.305962 232.754021 
L 93.508973 232.717987 
L 93.914994 232.259972 
L 94.118004 231.205609 
L 94.524026 230.806062 
L 94.727036 230.761694 
L 94.930047 230.216168 
L 96.14811 229.510019 
L 96.351121 228.971163 
L 97.772195 227.640499 
L 97.975206 227.000097 
L 98.178216 226.964991 
L 98.584238 226.757046 
L 98.787248 226.748307 
L 98.990259 226.296424 
L 99.39628 226.228286 
L 99.599291 225.902042 
L 100.208322 225.70967 
L 100.817354 225.566929 
L 101.426386 225.480583 
L 101.629397 225.438608 
L 103.050471 224.20775 
L 103.659502 224.148116 
L 104.065524 223.691299 
L 104.877566 223.247766 
L 105.486598 223.156393 
L 106.29864 222.998717 
L 106.501651 222.588977 
L 107.313693 222.495683 
L 108.328746 221.704019 
L 108.734767 221.529658 
L 109.952831 221.44911 
L 110.358852 221.287668 
L 110.561863 221.286404 
L 110.967884 220.952169 
L 112.591969 220.554394 
L 112.794979 220.291256 
L 115.231106 219.555176 
L 115.434117 219.205927 
L 115.840138 219.089308 
L 116.44917 218.86092 
L 120.712393 218.240196 
L 121.118414 218.137502 
L 124.569594 217.477185 
L 124.975615 217.319019 
L 126.193679 216.86308 
L 131.674965 215.854811 
L 131.877975 215.685078 
L 132.690018 215.617334 
L 136.95324 214.733581 
L 137.968293 214.570547 
L 139.795389 214.343249 
L 140.810442 214.259675 
L 143.449579 214.040129 
L 144.464632 213.887807 
L 147.306781 213.536947 
L 147.915812 213.239015 
L 149.336887 213.099121 
L 150.757961 212.928559 
L 151.163982 212.723463 
L 154.818173 212.203817 
L 156.239247 212.048393 
L 157.051289 211.839591 
L 157.45731 211.765619 
L 158.675374 211.651119 
L 161.314512 211.435022 
L 173.495148 210.086573 
L 174.713211 210.017295 
L 176.540307 209.898223 
L 178.570412 209.62346 
L 183.036646 209.23629 
L 183.848688 209.176147 
L 184.051699 209.175274 
L 184.254709 209.009062 
L 188.111911 208.752223 
L 191.157069 208.448226 
L 193.187175 208.162065 
L 194.60825 208.050833 
L 195.217281 207.819779 
L 197.247387 207.645503 
L 198.05943 207.513897 
L 198.465451 207.451216 
L 199.277493 207.327292 
L 201.71362 207.116484 
L 212.473182 206.133069 
L 213.285224 206.026348 
L 217.548447 205.710807 
L 218.766511 205.600666 
L 222.217691 205.315656 
L 222.623712 205.261694 
L 223.029733 205.17326 
L 225.26285 205.060275 
L 227.495966 204.915126 
L 230.744136 204.691223 
L 232.977252 204.56859 
L 235.007358 204.439065 
L 236.428432 204.354149 
L 239.676602 204.16527 
L 240.488644 204.070225 
L 242.112729 203.981409 
L 243.330793 203.864467 
L 249.2181 203.428771 
L 250.639174 203.348301 
L 251.045195 203.163594 
L 252.872291 203.041995 
L 253.481322 202.97217 
L 255.91745 202.828303 
L 259.774651 202.587909 
L 260.789704 202.44013 
L 262.413789 202.336321 
L 282.105817 200.604075 
L 282.917859 200.484935 
L 284.541944 200.344177 
L 286.77506 200.234168 
L 292.256346 199.609644 
L 293.068389 199.52105 
L 293.677421 199.44621 
L 298.752685 199.021238 
L 301.594834 198.831972 
L 303.421929 198.71316 
L 305.249025 198.61092 
L 308.903215 198.382392 
L 310.324289 198.257408 
L 311.542353 198.150719 
L 313.369448 197.99799 
L 315.399554 197.794874 
L 316.008586 197.717188 
L 318.038692 197.548037 
L 319.256756 197.456027 
L 323.519978 197.171329 
L 323.925999 197.019597 
L 324.738042 196.823705 
L 329.001264 196.478694 
L 329.610296 196.464368 
L 330.016317 196.323182 
L 332.452444 196.12687 
L 340.369858 195.552766 
L 340.775879 195.467435 
L 342.196953 195.365968 
L 342.602974 195.285094 
L 345.648133 195.108944 
L 347.069207 195.015688 
L 349.099313 194.801193 
L 350.926409 194.697054 
L 352.956515 194.579449 
L 357.219737 194.245125 
L 359.452854 194.137774 
L 361.279949 193.961906 
L 362.701023 193.86038 
L 363.310055 193.803655 
L 364.122097 193.767366 
L 364.528119 193.682954 
L 370.618436 193.163753 
L 371.633489 193.083245 
L 373.054564 192.941614 
L 373.663595 192.850101 
L 377.520797 192.580877 
L 380.768966 192.283604 
L 388.077348 191.585042 
L 389.295411 191.458593 
L 390.513475 191.355523 
L 392.13756 191.110318 
L 392.543581 190.994907 
L 395.58874 190.604288 
L 397.618846 190.418316 
L 398.024867 190.323149 
L 398.633899 190.272143 
L 399.03992 190.165307 
L 410.408513 189.07181 
L 410.814535 188.975621 
L 412.64163 188.878876 
L 415.077757 188.682878 
L 416.09281 188.529995 
L 418.122916 188.275308 
L 418.528937 188.210051 
L 419.54399 188.185996 
L 419.950011 187.985894 
L 423.198181 187.574882 
L 423.604202 187.489174 
L 424.416244 187.403113 
L 425.634308 187.208845 
L 426.649361 186.993454 
L 428.882478 186.808368 
L 429.897531 186.698539 
L 431.115594 186.546523 
L 436.59688 185.763109 
L 437.814944 185.639113 
L 440.657092 185.306072 
L 450.19859 183.56844 
L 450.807622 183.27572 
L 453.44676 183.044255 
L 453.852781 182.94087 
L 454.867834 182.817894 
L 455.273855 182.719862 
L 455.679876 182.659836 
L 457.912993 181.98771 
L 459.943099 181.728669 
L 460.34912 181.481884 
L 465.424385 180.586515 
L 465.830406 180.497491 
L 466.439438 180.451883 
L 467.25148 179.972297 
L 467.860512 179.866299 
L 468.266533 179.733776 
L 469.484597 179.613112 
L 470.093629 179.569227 
L 470.49965 179.27398 
L 472.529756 178.956574 
L 473.138788 178.794832 
L 473.341798 178.764582 
L 473.544809 178.559006 
L 475.168894 178.348506 
L 477.198999 177.542414 
L 477.808031 177.461001 
L 478.214052 177.292967 
L 480.041148 176.907477 
L 480.447169 176.79359 
L 481.665233 176.690929 
L 482.477275 176.576472 
L 482.680286 176.546751 
L 482.883296 176.161591 
L 483.289317 176.139717 
L 483.492328 175.914435 
L 484.10136 175.703771 
L 484.710392 175.500011 
L 485.319423 175.432122 
L 485.725445 174.927737 
L 486.740498 174.687476 
L 487.146519 174.633153 
L 487.55254 174.207588 
L 487.755551 174.181223 
L 487.958561 173.694388 
L 488.161572 173.639612 
L 488.567593 173.335383 
L 489.785656 172.899026 
L 489.988667 172.527484 
L 491.206731 171.936382 
L 491.409741 171.913163 
L 491.815762 171.684664 
L 492.424794 171.481361 
L 492.830815 171.225981 
L 493.033826 170.938246 
L 493.439847 170.883918 
L 493.642858 170.731559 
L 493.845868 169.81617 
L 494.25189 169.097018 
L 494.4549 168.766009 
L 494.657911 168.670201 
L 495.875974 167.155976 
L 496.281996 166.039588 
L 496.485006 165.978833 
L 496.891027 164.940074 
L 497.297049 164.605312 
L 497.70307 161.463396 
L 497.90608 161.34036 
L 498.109091 158.928533 
L 498.109091 158.928533 
" style="fill:none;stroke:#d62728;stroke-linecap:square;stroke-width:1.5;"/>
   </g>
   <g id="patch_3">
    <path d="M 72 256.32 
L 72 34.56 
" style="fill:none;stroke:#000000;stroke-linecap:square;stroke-linejoin:miter;stroke-width:0.8;"/>
   </g>
   <g id="patch_4">
    <path d="M 518.4 256.32 
L 518.4 34.56 
" style="fill:none;stroke:#000000;stroke-linecap:square;stroke-linejoin:miter;stroke-width:0.8;"/>
   </g>
   <g id="patch_5">
    <path d="M 72 256.32 
L 518.4 256.32 
" style="fill:none;stroke:#000000;stroke-linecap:square;stroke-linejoin:miter;stroke-width:0.8;"/>
   </g>
   <g id="patch_6">
    <path d="M 72 34.56 
L 518.4 34.56 
" style="fill:none;stroke:#000000;stroke-linecap:square;stroke-linejoin:miter;stroke-width:0.8;"/>
   </g>
   <g id="legend_1">
    <g id="patch_7">
     <path d="M 79 101.613125 
L 337.392187 101.613125 
Q 339.392187 101.613125 339.392187 99.613125 
L 339.392187 41.56 
Q 339.392187 39.56 337.392187 39.56 
L 79 39.56 
Q 77 39.56 77 41.56 
L 77 99.613125 
Q 77 101.613125 79 101.613125 
z
" style="fill:#ffffff;opacity:0.8;stroke:#cccccc;stroke-linejoin:miter;"/>
    </g>
    <g id="line2d_19">
     <path d="M 81 47.82875 
L 101 47.82875 
" style="fill:none;stroke:#1f77b4;stroke-linecap:square;stroke-width:1.5;"/>
    </g>
    <g id="line2d_20"/>
    <g id="text_17">
     <!-- без довложений и ребалансировок -->
     <defs>
      <path d="M 31.109375 56 
Q 42.828125 56 49.515625 48.375 
Q 56.203125 40.765625 56.203125 27.296875 
Q 56.203125 13.875 49.515625 6.21875 
Q 42.828125 -1.421875 31.109375 -1.421875 
Q 19.34375 -1.421875 12.84375 6 
Q 6.34375 13.421875 6 27.296875 
L 5.71875 38.484375 
Q 5.46875 44.28125 5.46875 46.296875 
Q 5.46875 54.109375 8.296875 59.859375 
Q 12.75 68.890625 20.4375 72.796875 
Q 28.125 76.703125 41.015625 76.8125 
Q 46.96875 76.859375 49.609375 77.6875 
L 52.09375 70.5625 
Q 49.703125 69.578125 47.515625 69.53125 
L 35.296875 68.703125 
Q 29.15625 68.265625 25.4375 66.109375 
Q 15.71875 60.40625 14.796875 52.9375 
L 14.453125 50.203125 
Q 20.796875 56 31.109375 56 
z
M 31.109375 48.390625 
Q 23.875 48.390625 19.671875 42.75 
Q 15.484375 37.109375 15.484375 27.296875 
Q 15.484375 17.484375 19.65625 11.84375 
Q 23.828125 6.203125 31.109375 6.203125 
Q 38.28125 6.203125 42.484375 11.859375 
Q 46.6875 17.53125 46.6875 27.296875 
Q 46.6875 37.015625 42.484375 42.703125 
Q 38.28125 48.390625 31.109375 48.390625 
z
" id="DejaVuSans-1073"/>
      <path d="M 34.46875 29.5 
Q 40.53125 28.328125 43.890625 24.75 
Q 47.265625 21.1875 47.265625 15.921875 
Q 47.265625 7.46875 40.96875 3.015625 
Q 34.671875 -1.421875 23.046875 -1.421875 
Q 19.140625 -1.421875 15.015625 -0.734375 
Q 10.890625 -0.046875 6.5 1.3125 
L 6.5 9.671875 
Q 9.96875 7.859375 14.109375 6.953125 
Q 18.265625 6.0625 22.796875 6.0625 
Q 30.171875 6.0625 34.296875 8.796875 
Q 38.421875 11.53125 38.421875 15.921875 
Q 38.421875 20.21875 34.765625 22.828125 
Q 31.109375 25.4375 24.421875 25.4375 
L 17.1875 25.4375 
L 17.1875 32.859375 
L 24.75 32.859375 
Q 30.421875 32.859375 33.71875 35.03125 
Q 37.015625 37.203125 37.015625 40.625 
Q 37.015625 43.75 33.609375 46 
Q 30.21875 48.25 24.421875 48.25 
Q 20.953125 48.25 17.015625 47.609375 
Q 13.09375 46.96875 8.34375 45.5625 
L 8.34375 53.71875 
Q 13.140625 54.890625 17.28125 55.46875 
Q 21.4375 56.0625 25.140625 56.0625 
Q 34.71875 56.0625 40.25 52.21875 
Q 45.796875 48.390625 45.796875 41.5 
Q 45.796875 36.96875 42.859375 33.8125 
Q 39.9375 30.671875 34.46875 29.5 
z
" id="DejaVuSans-1079"/>
      <path d="M 18.0625 25.203125 
L 18.0625 7.171875 
L 30.859375 7.171875 
Q 37.015625 7.171875 40.234375 9.484375 
Q 43.453125 11.8125 43.453125 16.21875 
Q 43.453125 20.609375 40.234375 22.90625 
Q 37.015625 25.203125 30.859375 25.203125 
z
M 18.0625 47.515625 
L 18.0625 32.375 
L 29.890625 32.375 
Q 34.96875 32.375 38.1875 34.390625 
Q 41.40625 36.421875 41.40625 40.046875 
Q 41.40625 43.65625 38.1875 45.578125 
Q 34.96875 47.515625 29.890625 47.515625 
z
M 9.078125 54.6875 
L 30.46875 54.6875 
Q 40.09375 54.6875 45.265625 51.171875 
Q 50.4375 47.65625 50.4375 41.15625 
Q 50.4375 36.140625 47.796875 33.171875 
Q 45.171875 30.21875 39.984375 29.5 
Q 46.1875 28.328125 49.609375 24.609375 
Q 53.03125 20.90625 53.03125 15.328125 
Q 53.03125 8.015625 47.390625 4 
Q 41.75 0 31.296875 0 
L 9.078125 0 
z
" id="DejaVuSans-1074"/>
      <path d="M 40.578125 54.6875 
L 49.515625 54.6875 
L 49.515625 29 
L 73.390625 54.6875 
L 83.84375 54.6875 
L 64.203125 33.640625 
L 86.671875 0 
L 77.046875 0 
L 58.640625 27.640625 
L 49.515625 17.828125 
L 49.515625 0 
L 40.578125 0 
L 40.578125 17.828125 
L 31.453125 27.640625 
L 13.03125 0 
L 3.421875 0 
L 25.875 33.640625 
L 6.25 54.6875 
L 16.703125 54.6875 
L 40.578125 29 
z
" id="DejaVuSans-1078"/>
      <path d="M 55.90625 54.6875 
L 55.90625 0 
L 46.96875 0 
L 46.96875 43.890625 
L 20.609375 0 
L 9.078125 0 
L 9.078125 54.6875 
L 18.015625 54.6875 
L 18.015625 10.890625 
L 44.34375 54.6875 
z
" id="DejaVuSans-1080"/>
      <path d="M 34.28125 27.484375 
Q 23.390625 27.484375 19.1875 25 
Q 14.984375 22.515625 14.984375 16.5 
Q 14.984375 11.71875 18.140625 8.90625 
Q 21.296875 6.109375 26.703125 6.109375 
Q 34.1875 6.109375 38.703125 11.40625 
Q 43.21875 16.703125 43.21875 25.484375 
L 43.21875 27.484375 
z
M 52.203125 31.203125 
L 52.203125 0 
L 43.21875 0 
L 43.21875 8.296875 
Q 40.140625 3.328125 35.546875 0.953125 
Q 30.953125 -1.421875 24.3125 -1.421875 
Q 15.921875 -1.421875 10.953125 3.296875 
Q 6 8.015625 6 15.921875 
Q 6 25.140625 12.171875 29.828125 
Q 18.359375 34.515625 30.609375 34.515625 
L 43.21875 34.515625 
L 43.21875 35.40625 
Q 43.21875 41.609375 39.140625 45 
Q 35.0625 48.390625 27.6875 48.390625 
Q 23 48.390625 18.546875 47.265625 
Q 14.109375 46.140625 10.015625 43.890625 
L 10.015625 52.203125 
Q 14.9375 54.109375 19.578125 55.046875 
Q 24.21875 56 28.609375 56 
Q 40.484375 56 46.34375 49.84375 
Q 52.203125 43.703125 52.203125 31.203125 
z
" id="DejaVuSans-1072"/>
      <path d="M 9.078125 54.6875 
L 18.015625 54.6875 
L 18.015625 29 
L 43.359375 54.6875 
L 54.390625 54.6875 
L 33.5 33.546875 
L 57.078125 0 
L 47.015625 0 
L 27.640625 27.59375 
L 18.015625 17.828125 
L 18.015625 0 
L 9.078125 0 
z
" id="DejaVuSans-1082"/>
     </defs>
     <g transform="translate(109 51.32875)scale(0.1 -0.1)">
      <use xlink:href="#DejaVuSans-1073"/>
      <use x="61.669922" xlink:href="#DejaVuSans-1077"/>
      <use x="123.193359" xlink:href="#DejaVuSans-1079"/>
      <use x="176.367188" xlink:href="#DejaVuSans-32"/>
      <use x="208.154297" xlink:href="#DejaVuSans-1076"/>
      <use x="277.294922" xlink:href="#DejaVuSans-1086"/>
      <use x="338.476562" xlink:href="#DejaVuSans-1074"/>
      <use x="397.412109" xlink:href="#DejaVuSans-1083"/>
      <use x="461.328125" xlink:href="#DejaVuSans-1086"/>
      <use x="522.509766" xlink:href="#DejaVuSans-1078"/>
      <use x="612.597656" xlink:href="#DejaVuSans-1077"/>
      <use x="674.121094" xlink:href="#DejaVuSans-1085"/>
      <use x="739.501953" xlink:href="#DejaVuSans-1080"/>
      <use x="804.492188" xlink:href="#DejaVuSans-1081"/>
      <use x="869.482422" xlink:href="#DejaVuSans-32"/>
      <use x="901.269531" xlink:href="#DejaVuSans-1080"/>
      <use x="966.259766" xlink:href="#DejaVuSans-32"/>
      <use x="998.046875" xlink:href="#DejaVuSans-1088"/>
      <use x="1061.523438" xlink:href="#DejaVuSans-1077"/>
      <use x="1123.046875" xlink:href="#DejaVuSans-1073"/>
      <use x="1184.716797" xlink:href="#DejaVuSans-1072"/>
      <use x="1245.996094" xlink:href="#DejaVuSans-1083"/>
      <use x="1309.912109" xlink:href="#DejaVuSans-1072"/>
      <use x="1371.191406" xlink:href="#DejaVuSans-1085"/>
      <use x="1436.572266" xlink:href="#DejaVuSans-1089"/>
      <use x="1491.552734" xlink:href="#DejaVuSans-1080"/>
      <use x="1556.542969" xlink:href="#DejaVuSans-1088"/>
      <use x="1620.019531" xlink:href="#DejaVuSans-1086"/>
      <use x="1681.201172" xlink:href="#DejaVuSans-1074"/>
      <use x="1740.136719" xlink:href="#DejaVuSans-1086"/>
      <use x="1801.318359" xlink:href="#DejaVuSans-1082"/>
     </g>
    </g>
    <g id="line2d_21">
     <path d="M 81 62.506875 
L 101 62.506875 
" style="fill:none;stroke:#ff7f0e;stroke-linecap:square;stroke-width:1.5;"/>
    </g>
    <g id="line2d_22"/>
    <g id="text_18">
     <!-- докупка на равную сумму -->
     <defs>
      <path d="M 32.171875 -5.078125 
Q 28.375 -14.84375 24.75 -17.8125 
Q 21.140625 -20.796875 15.09375 -20.796875 
L 7.90625 -20.796875 
L 7.90625 -13.28125 
L 13.1875 -13.28125 
Q 16.890625 -13.28125 18.9375 -11.515625 
Q 21 -9.765625 23.484375 -3.21875 
L 25.09375 0.875 
L 2.984375 54.6875 
L 12.5 54.6875 
L 29.59375 11.921875 
L 46.6875 54.6875 
L 56.203125 54.6875 
z
" id="DejaVuSans-1091"/>
      <path d="M 53.609375 48.390625 
Q 46.390625 48.390625 42.1875 42.75 
Q 37.984375 37.109375 37.984375 27.296875 
Q 37.984375 17.484375 42.15625 11.84375 
Q 46.34375 6.203125 53.609375 6.203125 
Q 60.796875 6.203125 64.984375 11.859375 
Q 69.1875 17.53125 69.1875 27.296875 
Q 69.1875 37.015625 64.984375 42.703125 
Q 60.796875 48.390625 53.609375 48.390625 
z
M 28.8125 32.859375 
Q 29.734375 42.140625 35.8125 49.0625 
Q 41.890625 56 53.609375 56 
Q 65.328125 56 72.015625 48.375 
Q 78.71875 40.765625 78.71875 27.296875 
Q 78.71875 13.875 72.015625 6.21875 
Q 65.328125 -1.421875 53.609375 -1.421875 
Q 41.84375 -1.421875 35.421875 5.953125 
Q 29 13.328125 28.5625 25.4375 
L 18.40625 25.4375 
L 18.40625 0 
L 9.421875 0 
L 9.421875 54.6875 
L 18.40625 54.6875 
L 18.40625 32.859375 
z
" id="DejaVuSans-1102"/>
      <path d="M 9.078125 54.6875 
L 22.21875 54.6875 
L 37.75 18.0625 
L 53.328125 54.6875 
L 66.359375 54.6875 
L 66.359375 0 
L 57.328125 0 
L 57.328125 46.09375 
L 42.234375 10.5 
L 33.25 10.5 
L 18.109375 46.09375 
L 18.109375 0 
L 9.078125 0 
z
" id="DejaVuSans-1084"/>
     </defs>
     <g transform="translate(109 66.006875)scale(0.1 -0.1)">
      <use xlink:href="#DejaVuSans-1076"/>
      <use x="69.140625" xlink:href="#DejaVuSans-1086"/>
      <use x="130.322266" xlink:href="#DejaVuSans-1082"/>
      <use x="190.722656" xlink:href="#DejaVuSans-1091"/>
      <use x="249.902344" xlink:href="#DejaVuSans-1087"/>
      <use x="315.283203" xlink:href="#DejaVuSans-1082"/>
      <use x="375.683594" xlink:href="#DejaVuSans-1072"/>
      <use x="436.962891" xlink:href="#DejaVuSans-32"/>
      <use x="468.75" xlink:href="#DejaVuSans-1085"/>
      <use x="534.130859" xlink:href="#DejaVuSans-1072"/>
      <use x="595.410156" xlink:href="#DejaVuSans-32"/>
      <use x="627.197266" xlink:href="#DejaVuSans-1088"/>
      <use x="690.673828" xlink:href="#DejaVuSans-1072"/>
      <use x="751.953125" xlink:href="#DejaVuSans-1074"/>
      <use x="810.888672" xlink:href="#DejaVuSans-1085"/>
      <use x="876.269531" xlink:href="#DejaVuSans-1091"/>
      <use x="935.449219" xlink:href="#DejaVuSans-1102"/>
      <use x="1019.628906" xlink:href="#DejaVuSans-32"/>
      <use x="1051.416016" xlink:href="#DejaVuSans-1089"/>
      <use x="1106.396484" xlink:href="#DejaVuSans-1091"/>
      <use x="1165.576172" xlink:href="#DejaVuSans-1084"/>
      <use x="1241.015625" xlink:href="#DejaVuSans-1084"/>
      <use x="1316.455078" xlink:href="#DejaVuSans-1091"/>
     </g>
    </g>
    <g id="line2d_23">
     <path d="M 81 77.185 
L 101 77.185 
" style="fill:none;stroke:#2ca02c;stroke-linecap:square;stroke-width:1.5;"/>
    </g>
    <g id="line2d_24"/>
    <g id="text_19">
     <!-- докупка пропорционально капитализации -->
     <defs>
      <path d="M 56.296875 0 
L 9.078125 0 
L 9.078125 54.6875 
L 18.109375 54.6875 
L 18.109375 7.171875 
L 47.265625 7.171875 
L 47.265625 54.6875 
L 56.296875 54.6875 
L 56.296875 7.171875 
L 63.484375 7.171875 
L 63.484375 -13.8125 
L 56.296875 -13.8125 
z
" id="DejaVuSans-1094"/>
     </defs>
     <g transform="translate(109 80.685)scale(0.1 -0.1)">
      <use xlink:href="#DejaVuSans-1076"/>
      <use x="69.140625" xlink:href="#DejaVuSans-1086"/>
      <use x="130.322266" xlink:href="#DejaVuSans-1082"/>
      <use x="190.722656" xlink:href="#DejaVuSans-1091"/>
      <use x="249.902344" xlink:href="#DejaVuSans-1087"/>
      <use x="315.283203" xlink:href="#DejaVuSans-1082"/>
      <use x="375.683594" xlink:href="#DejaVuSans-1072"/>
      <use x="436.962891" xlink:href="#DejaVuSans-32"/>
      <use x="468.75" xlink:href="#DejaVuSans-1087"/>
      <use x="534.130859" xlink:href="#DejaVuSans-1088"/>
      <use x="597.607422" xlink:href="#DejaVuSans-1086"/>
      <use x="658.789062" xlink:href="#DejaVuSans-1087"/>
      <use x="724.169922" xlink:href="#DejaVuSans-1086"/>
      <use x="785.351562" xlink:href="#DejaVuSans-1088"/>
      <use x="848.828125" xlink:href="#DejaVuSans-1094"/>
      <use x="916.894531" xlink:href="#DejaVuSans-1080"/>
      <use x="981.884766" xlink:href="#DejaVuSans-1086"/>
      <use x="1043.066406" xlink:href="#DejaVuSans-1085"/>
      <use x="1108.447266" xlink:href="#DejaVuSans-1072"/>
      <use x="1169.726562" xlink:href="#DejaVuSans-1083"/>
      <use x="1233.642578" xlink:href="#DejaVuSans-1100"/>
      <use x="1292.578125" xlink:href="#DejaVuSans-1085"/>
      <use x="1357.958984" xlink:href="#DejaVuSans-1086"/>
      <use x="1419.140625" xlink:href="#DejaVuSans-32"/>
      <use x="1450.927734" xlink:href="#DejaVuSans-1082"/>
      <use x="1511.328125" xlink:href="#DejaVuSans-1072"/>
      <use x="1572.607422" xlink:href="#DejaVuSans-1087"/>
      <use x="1637.988281" xlink:href="#DejaVuSans-1080"/>
      <use x="1702.978516" xlink:href="#DejaVuSans-1090"/>
      <use x="1761.230469" xlink:href="#DejaVuSans-1072"/>
      <use x="1822.509766" xlink:href="#DejaVuSans-1083"/>
      <use x="1886.425781" xlink:href="#DejaVuSans-1080"/>
      <use x="1951.416016" xlink:href="#DejaVuSans-1079"/>
      <use x="2004.589844" xlink:href="#DejaVuSans-1072"/>
      <use x="2065.869141" xlink:href="#DejaVuSans-1094"/>
      <use x="2133.935547" xlink:href="#DejaVuSans-1080"/>
      <use x="2198.925781" xlink:href="#DejaVuSans-1080"/>
     </g>
    </g>
    <g id="line2d_25">
     <path d="M 81 92.033438 
L 101 92.033438 
" style="fill:none;stroke:#d62728;stroke-linecap:square;stroke-width:1.5;"/>
    </g>
    <g id="line2d_26"/>
    <g id="text_20">
     <!-- довложение с ребалансировкой -->
     <g transform="translate(109 95.533438)scale(0.1 -0.1)">
      <use xlink:href="#DejaVuSans-1076"/>
      <use x="69.140625" xlink:href="#DejaVuSans-1086"/>
      <use x="130.322266" xlink:href="#DejaVuSans-1074"/>
      <use x="189.257812" xlink:href="#DejaVuSans-1083"/>
      <use x="253.173828" xlink:href="#DejaVuSans-1086"/>
      <use x="314.355469" xlink:href="#DejaVuSans-1078"/>
      <use x="404.443359" xlink:href="#DejaVuSans-1077"/>
      <use x="465.966797" xlink:href="#DejaVuSans-1085"/>
      <use x="531.347656" xlink:href="#DejaVuSans-1080"/>
      <use x="596.337891" xlink:href="#DejaVuSans-1077"/>
      <use x="657.861328" xlink:href="#DejaVuSans-32"/>
      <use x="689.648438" xlink:href="#DejaVuSans-1089"/>
      <use x="744.628906" xlink:href="#DejaVuSans-32"/>
      <use x="776.416016" xlink:href="#DejaVuSans-1088"/>
      <use x="839.892578" xlink:href="#DejaVuSans-1077"/>
      <use x="901.416016" xlink:href="#DejaVuSans-1073"/>
      <use x="963.085938" xlink:href="#DejaVuSans-1072"/>
      <use x="1024.365234" xlink:href="#DejaVuSans-1083"/>
      <use x="1088.28125" xlink:href="#DejaVuSans-1072"/>
      <use x="1149.560547" xlink:href="#DejaVuSans-1085"/>
      <use x="1214.941406" xlink:href="#DejaVuSans-1089"/>
      <use x="1269.921875" xlink:href="#DejaVuSans-1080"/>
      <use x="1334.912109" xlink:href="#DejaVuSans-1088"/>
      <use x="1398.388672" xlink:href="#DejaVuSans-1086"/>
      <use x="1459.570312" xlink:href="#DejaVuSans-1074"/>
      <use x="1518.505859" xlink:href="#DejaVuSans-1082"/>
      <use x="1578.90625" xlink:href="#DejaVuSans-1086"/>
      <use x="1640.087891" xlink:href="#DejaVuSans-1081"/>
     </g>
    </g>
   </g>
  </g>
 </g>
 <defs>
  <clipPath id="p98dcff0b02">
   <rect height="221.76" width="446.4" x="72" y="34.56"/>
  </clipPath>
 </defs>
</svg>
