<?xml version="1.0" encoding="utf-8" standalone="no"?>
<!DOCTYPE svg PUBLIC "-//W3C//DTD SVG 1.1//EN"
  "http://www.w3.org/Graphics/SVG/1.1/DTD/svg11.dtd">
<!-- Created with matplotlib (https://matplotlib.org/) -->
<svg height="288pt" version="1.1" viewBox="0 0 576 288" width="576pt" xmlns="http://www.w3.org/2000/svg" xmlns:xlink="http://www.w3.org/1999/xlink">
 <defs>
  <style type="text/css">
*{stroke-linecap:butt;stroke-linejoin:round;}
  </style>
 </defs>
 <g id="figure_1">
  <g id="patch_1">
   <path d="M 0 288 
L 576 288 
L 576 0 
L 0 0 
z
" style="fill:#ffffff;"/>
  </g>
  <g id="axes_1">
   <g id="patch_2">
    <path d="M 72 256.32 
L 518.4 256.32 
L 518.4 34.56 
L 72 34.56 
z
" style="fill:#ffffff;"/>
   </g>
   <g id="matplotlib.axis_1">
    <g id="xtick_1">
     <g id="line2d_1">
      <defs>
       <path d="M 0 0 
L 0 3.5 
" id="mf499b16888" style="stroke:#000000;stroke-width:0.8;"/>
      </defs>
      <g>
       <use style="stroke:#000000;stroke-width:0.8;" x="92.290909" xlink:href="#mf499b16888" y="256.32"/>
      </g>
     </g>
     <g id="text_1">
      <!-- 0 -->
      <defs>
       <path d="M 31.78125 66.40625 
Q 24.171875 66.40625 20.328125 58.90625 
Q 16.5 51.421875 16.5 36.375 
Q 16.5 21.390625 20.328125 13.890625 
Q 24.171875 6.390625 31.78125 6.390625 
Q 39.453125 6.390625 43.28125 13.890625 
Q 47.125 21.390625 47.125 36.375 
Q 47.125 51.421875 43.28125 58.90625 
Q 39.453125 66.40625 31.78125 66.40625 
z
M 31.78125 74.21875 
Q 44.046875 74.21875 50.515625 64.515625 
Q 56.984375 54.828125 56.984375 36.375 
Q 56.984375 17.96875 50.515625 8.265625 
Q 44.046875 -1.421875 31.78125 -1.421875 
Q 19.53125 -1.421875 13.0625 8.265625 
Q 6.59375 17.96875 6.59375 36.375 
Q 6.59375 54.828125 13.0625 64.515625 
Q 19.53125 74.21875 31.78125 74.21875 
z
" id="DejaVuSans-48"/>
      </defs>
      <g transform="translate(89.109659 270.918437)scale(0.1 -0.1)">
       <use xlink:href="#DejaVuSans-48"/>
      </g>
     </g>
    </g>
    <g id="xtick_2">
     <g id="line2d_2">
      <g>
       <use style="stroke:#000000;stroke-width:0.8;" x="173.495148" xlink:href="#mf499b16888" y="256.32"/>
      </g>
     </g>
     <g id="text_2">
      <!-- 20 -->
      <defs>
       <path d="M 19.1875 8.296875 
L 53.609375 8.296875 
L 53.609375 0 
L 7.328125 0 
L 7.328125 8.296875 
Q 12.9375 14.109375 22.625 23.890625 
Q 32.328125 33.6875 34.8125 36.53125 
Q 39.546875 41.84375 41.421875 45.53125 
Q 43.3125 49.21875 43.3125 52.78125 
Q 43.3125 58.59375 39.234375 62.25 
Q 35.15625 65.921875 28.609375 65.921875 
Q 23.96875 65.921875 18.8125 64.3125 
Q 13.671875 62.703125 7.8125 59.421875 
L 7.8125 69.390625 
Q 13.765625 71.78125 18.9375 73 
Q 24.125 74.21875 28.421875 74.21875 
Q 39.75 74.21875 46.484375 68.546875 
Q 53.21875 62.890625 53.21875 53.421875 
Q 53.21875 48.921875 51.53125 44.890625 
Q 49.859375 40.875 45.40625 35.40625 
Q 44.1875 33.984375 37.640625 27.21875 
Q 31.109375 20.453125 19.1875 8.296875 
z
" id="DejaVuSans-50"/>
      </defs>
      <g transform="translate(167.132648 270.918437)scale(0.1 -0.1)">
       <use xlink:href="#DejaVuSans-50"/>
       <use x="63.623047" xlink:href="#DejaVuSans-48"/>
      </g>
     </g>
    </g>
    <g id="xtick_3">
     <g id="line2d_3">
      <g>
       <use style="stroke:#000000;stroke-width:0.8;" x="254.699386" xlink:href="#mf499b16888" y="256.32"/>
      </g>
     </g>
     <g id="text_3">
      <!-- 40 -->
      <defs>
       <path d="M 37.796875 64.3125 
L 12.890625 25.390625 
L 37.796875 25.390625 
z
M 35.203125 72.90625 
L 47.609375 72.90625 
L 47.609375 25.390625 
L 58.015625 25.390625 
L 58.015625 17.1875 
L 47.609375 17.1875 
L 47.609375 0 
L 37.796875 0 
L 37.796875 17.1875 
L 4.890625 17.1875 
L 4.890625 26.703125 
z
" id="DejaVuSans-52"/>
      </defs>
      <g transform="translate(248.336886 270.918437)scale(0.1 -0.1)">
       <use xlink:href="#DejaVuSans-52"/>
       <use x="63.623047" xlink:href="#DejaVuSans-48"/>
      </g>
     </g>
    </g>
    <g id="xtick_4">
     <g id="line2d_4">
      <g>
       <use style="stroke:#000000;stroke-width:0.8;" x="335.903625" xlink:href="#mf499b16888" y="256.32"/>
      </g>
     </g>
     <g id="text_4">
      <!-- 60 -->
      <defs>
       <path d="M 33.015625 40.375 
Q 26.375 40.375 22.484375 35.828125 
Q 18.609375 31.296875 18.609375 23.390625 
Q 18.609375 15.53125 22.484375 10.953125 
Q 26.375 6.390625 33.015625 6.390625 
Q 39.65625 6.390625 43.53125 10.953125 
Q 47.40625 15.53125 47.40625 23.390625 
Q 47.40625 31.296875 43.53125 35.828125 
Q 39.65625 40.375 33.015625 40.375 
z
M 52.59375 71.296875 
L 52.59375 62.3125 
Q 48.875 64.0625 45.09375 64.984375 
Q 41.3125 65.921875 37.59375 65.921875 
Q 27.828125 65.921875 22.671875 59.328125 
Q 17.53125 52.734375 16.796875 39.40625 
Q 19.671875 43.65625 24.015625 45.921875 
Q 28.375 48.1875 33.59375 48.1875 
Q 44.578125 48.1875 50.953125 41.515625 
Q 57.328125 34.859375 57.328125 23.390625 
Q 57.328125 12.15625 50.6875 5.359375 
Q 44.046875 -1.421875 33.015625 -1.421875 
Q 20.359375 -1.421875 13.671875 8.265625 
Q 6.984375 17.96875 6.984375 36.375 
Q 6.984375 53.65625 15.1875 63.9375 
Q 23.390625 74.21875 37.203125 74.21875 
Q 40.921875 74.21875 44.703125 73.484375 
Q 48.484375 72.75 52.59375 71.296875 
z
" id="DejaVuSans-54"/>
      </defs>
      <g transform="translate(329.541125 270.918437)scale(0.1 -0.1)">
       <use xlink:href="#DejaVuSans-54"/>
       <use x="63.623047" xlink:href="#DejaVuSans-48"/>
      </g>
     </g>
    </g>
    <g id="xtick_5">
     <g id="line2d_5">
      <g>
       <use style="stroke:#000000;stroke-width:0.8;" x="417.107863" xlink:href="#mf499b16888" y="256.32"/>
      </g>
     </g>
     <g id="text_5">
      <!-- 80 -->
      <defs>
       <path d="M 31.78125 34.625 
Q 24.75 34.625 20.71875 30.859375 
Q 16.703125 27.09375 16.703125 20.515625 
Q 16.703125 13.921875 20.71875 10.15625 
Q 24.75 6.390625 31.78125 6.390625 
Q 38.8125 6.390625 42.859375 10.171875 
Q 46.921875 13.96875 46.921875 20.515625 
Q 46.921875 27.09375 42.890625 30.859375 
Q 38.875 34.625 31.78125 34.625 
z
M 21.921875 38.8125 
Q 15.578125 40.375 12.03125 44.71875 
Q 8.5 49.078125 8.5 55.328125 
Q 8.5 64.0625 14.71875 69.140625 
Q 20.953125 74.21875 31.78125 74.21875 
Q 42.671875 74.21875 48.875 69.140625 
Q 55.078125 64.0625 55.078125 55.328125 
Q 55.078125 49.078125 51.53125 44.71875 
Q 48 40.375 41.703125 38.8125 
Q 48.828125 37.15625 52.796875 32.3125 
Q 56.78125 27.484375 56.78125 20.515625 
Q 56.78125 9.90625 50.3125 4.234375 
Q 43.84375 -1.421875 31.78125 -1.421875 
Q 19.734375 -1.421875 13.25 4.234375 
Q 6.78125 9.90625 6.78125 20.515625 
Q 6.78125 27.484375 10.78125 32.3125 
Q 14.796875 37.15625 21.921875 38.8125 
z
M 18.3125 54.390625 
Q 18.3125 48.734375 21.84375 45.5625 
Q 25.390625 42.390625 31.78125 42.390625 
Q 38.140625 42.390625 41.71875 45.5625 
Q 45.3125 48.734375 45.3125 54.390625 
Q 45.3125 60.0625 41.71875 63.234375 
Q 38.140625 66.40625 31.78125 66.40625 
Q 25.390625 66.40625 21.84375 63.234375 
Q 18.3125 60.0625 18.3125 54.390625 
z
" id="DejaVuSans-56"/>
      </defs>
      <g transform="translate(410.745363 270.918437)scale(0.1 -0.1)">
       <use xlink:href="#DejaVuSans-56"/>
       <use x="63.623047" xlink:href="#DejaVuSans-48"/>
      </g>
     </g>
    </g>
    <g id="xtick_6">
     <g id="line2d_6">
      <g>
       <use style="stroke:#000000;stroke-width:0.8;" x="498.312102" xlink:href="#mf499b16888" y="256.32"/>
      </g>
     </g>
     <g id="text_6">
      <!-- 100 -->
      <defs>
       <path d="M 12.40625 8.296875 
L 28.515625 8.296875 
L 28.515625 63.921875 
L 10.984375 60.40625 
L 10.984375 69.390625 
L 28.421875 72.90625 
L 38.28125 72.90625 
L 38.28125 8.296875 
L 54.390625 8.296875 
L 54.390625 0 
L 12.40625 0 
z
" id="DejaVuSans-49"/>
      </defs>
      <g transform="translate(488.768352 270.918437)scale(0.1 -0.1)">
       <use xlink:href="#DejaVuSans-49"/>
       <use x="63.623047" xlink:href="#DejaVuSans-48"/>
       <use x="127.246094" xlink:href="#DejaVuSans-48"/>
      </g>
     </g>
    </g>
    <g id="text_7">
     <!-- доля портфелей, % -->
     <defs>
      <path d="M 21.625 7.171875 
L 47.703125 7.171875 
L 47.703125 47.515625 
L 28.8125 47.515625 
L 28.8125 40.671875 
Q 28.8125 20.5625 23.046875 9.8125 
z
M 8.59375 7.171875 
Q 13.03125 9.125 14.984375 13.28125 
Q 19.78125 23.578125 19.78125 44.34375 
L 19.78125 54.6875 
L 56.734375 54.6875 
L 56.734375 7.171875 
L 63.921875 7.171875 
L 63.921875 -13.8125 
L 56.734375 -13.8125 
L 56.734375 0 
L 12.40625 0 
L 12.40625 -13.8125 
L 5.21875 -13.8125 
L 5.21875 7.171875 
z
" id="DejaVuSans-1076"/>
      <path d="M 30.609375 48.390625 
Q 23.390625 48.390625 19.1875 42.75 
Q 14.984375 37.109375 14.984375 27.296875 
Q 14.984375 17.484375 19.15625 11.84375 
Q 23.34375 6.203125 30.609375 6.203125 
Q 37.796875 6.203125 41.984375 11.859375 
Q 46.1875 17.53125 46.1875 27.296875 
Q 46.1875 37.015625 41.984375 42.703125 
Q 37.796875 48.390625 30.609375 48.390625 
z
M 30.609375 56 
Q 42.328125 56 49.015625 48.375 
Q 55.71875 40.765625 55.71875 27.296875 
Q 55.71875 13.875 49.015625 6.21875 
Q 42.328125 -1.421875 30.609375 -1.421875 
Q 18.84375 -1.421875 12.171875 6.21875 
Q 5.515625 13.875 5.515625 27.296875 
Q 5.515625 40.765625 12.171875 48.375 
Q 18.84375 56 30.609375 56 
z
" id="DejaVuSans-1086"/>
      <path d="M 3.71875 0 
L 3.71875 7.46875 
Q 12.59375 8.84375 15.328125 14.984375 
Q 18.65625 23.640625 18.65625 45.75 
L 18.65625 54.6875 
L 55.609375 54.6875 
L 55.609375 0 
L 46.625 0 
L 46.625 47.515625 
L 27.640625 47.515625 
L 27.640625 42.09375 
Q 27.640625 21 23.34375 11.53125 
Q 18.75 1.421875 3.71875 0 
z
" id="DejaVuSans-1083"/>
      <path d="M 18.453125 38.921875 
Q 18.453125 34.859375 21.578125 32.5625 
Q 24.703125 30.28125 30.515625 30.28125 
L 42.625 30.28125 
L 42.625 47.515625 
L 30.515625 47.515625 
Q 24.703125 47.515625 21.578125 45.265625 
Q 18.453125 43.015625 18.453125 38.921875 
z
M 5.671875 0 
L 22.359375 23.96875 
Q 16.703125 25.25 12.9375 28.59375 
Q 9.1875 31.9375 9.1875 38.921875 
Q 9.1875 46.828125 14.421875 50.75 
Q 19.671875 54.6875 30.28125 54.6875 
L 51.65625 54.6875 
L 51.65625 0 
L 42.625 0 
L 42.625 23.09375 
L 31.453125 23.09375 
L 15.328125 0 
z
" id="DejaVuSans-1103"/>
      <path id="DejaVuSans-32"/>
      <path d="M 56.296875 54.6875 
L 56.296875 0 
L 47.265625 0 
L 47.265625 47.515625 
L 18.109375 47.515625 
L 18.109375 0 
L 9.078125 0 
L 9.078125 54.6875 
z
" id="DejaVuSans-1087"/>
      <path d="M 18.109375 8.203125 
L 18.109375 -20.796875 
L 9.078125 -20.796875 
L 9.078125 54.6875 
L 18.109375 54.6875 
L 18.109375 46.390625 
Q 20.953125 51.265625 25.265625 53.625 
Q 29.59375 56 35.59375 56 
Q 45.5625 56 51.78125 48.09375 
Q 58.015625 40.1875 58.015625 27.296875 
Q 58.015625 14.40625 51.78125 6.484375 
Q 45.5625 -1.421875 35.59375 -1.421875 
Q 29.59375 -1.421875 25.265625 0.953125 
Q 20.953125 3.328125 18.109375 8.203125 
z
M 48.6875 27.296875 
Q 48.6875 37.203125 44.609375 42.84375 
Q 40.53125 48.484375 33.40625 48.484375 
Q 26.265625 48.484375 22.1875 42.84375 
Q 18.109375 37.203125 18.109375 27.296875 
Q 18.109375 17.390625 22.1875 11.75 
Q 26.265625 6.109375 33.40625 6.109375 
Q 40.53125 6.109375 44.609375 11.75 
Q 48.6875 17.390625 48.6875 27.296875 
z
" id="DejaVuSans-1088"/>
      <path d="M 2.9375 54.6875 
L 55.328125 54.6875 
L 55.328125 47.515625 
L 33.546875 47.515625 
L 33.546875 0 
L 24.703125 0 
L 24.703125 47.515625 
L 2.9375 47.515625 
z
" id="DejaVuSans-1090"/>
      <path d="M 14.796875 27.296875 
Q 14.796875 15.828125 18.328125 10.96875 
Q 21.875 6.109375 27.875 6.109375 
Q 32.671875 6.109375 38.234375 14.3125 
L 38.234375 40.28125 
Q 32.671875 48.484375 27.875 48.484375 
Q 21.875 48.484375 18.328125 43.625 
Q 14.796875 38.765625 14.796875 27.296875 
z
M 38.234375 -20.796875 
L 38.234375 6.984375 
Q 35.453125 2.390625 32.25 0.484375 
Q 29.046875 -1.421875 25 -1.421875 
Q 16.84375 -1.421875 11.15625 6.125 
Q 5.46875 13.671875 5.46875 27.09375 
Q 5.46875 40.53125 11.15625 48.265625 
Q 16.84375 56 25 56 
Q 29.046875 56 32.25 54.140625 
Q 35.453125 52.296875 38.234375 47.703125 
L 38.234375 72.90625 
L 47.265625 72.90625 
L 47.265625 47.703125 
Q 50.046875 52.296875 53.25 54.140625 
Q 56.453125 56 60.5 56 
Q 68.65625 56 74.34375 48.265625 
Q 80.03125 40.53125 80.03125 27.09375 
Q 80.03125 13.671875 74.34375 6.125 
Q 68.65625 -1.421875 60.5 -1.421875 
Q 56.453125 -1.421875 53.25 0.484375 
Q 50.046875 2.390625 47.265625 6.984375 
L 47.265625 -20.796875 
z
M 70.703125 27.296875 
Q 70.703125 38.765625 67.15625 43.625 
Q 63.625 48.484375 57.625 48.484375 
Q 52.828125 48.484375 47.265625 40.28125 
L 47.265625 14.3125 
Q 52.828125 6.109375 57.625 6.109375 
Q 63.625 6.109375 67.15625 10.96875 
Q 70.703125 15.828125 70.703125 27.296875 
z
" id="DejaVuSans-1092"/>
      <path d="M 56.203125 29.59375 
L 56.203125 25.203125 
L 14.890625 25.203125 
Q 15.484375 15.921875 20.484375 11.0625 
Q 25.484375 6.203125 34.421875 6.203125 
Q 39.59375 6.203125 44.453125 7.46875 
Q 49.3125 8.734375 54.109375 11.28125 
L 54.109375 2.78125 
Q 49.265625 0.734375 44.1875 -0.34375 
Q 39.109375 -1.421875 33.890625 -1.421875 
Q 20.796875 -1.421875 13.15625 6.1875 
Q 5.515625 13.8125 5.515625 26.8125 
Q 5.515625 40.234375 12.765625 48.109375 
Q 20.015625 56 32.328125 56 
Q 43.359375 56 49.78125 48.890625 
Q 56.203125 41.796875 56.203125 29.59375 
z
M 47.21875 32.234375 
Q 47.125 39.59375 43.09375 43.984375 
Q 39.0625 48.390625 32.421875 48.390625 
Q 24.90625 48.390625 20.390625 44.140625 
Q 15.875 39.890625 15.1875 32.171875 
z
" id="DejaVuSans-1077"/>
      <path d="M 55.90625 54.6875 
L 55.90625 0 
L 46.96875 0 
L 46.96875 43.890625 
L 20.609375 0 
L 9.078125 0 
L 9.078125 54.6875 
L 18.015625 54.6875 
L 18.015625 10.890625 
L 44.34375 54.6875 
z
M 17.234375 75.96875 
L 23 75.96875 
Q 23.53125 72.3125 25.890625 70.46875 
Q 28.265625 68.640625 32.515625 68.640625 
Q 36.71875 68.640625 39.0625 70.453125 
Q 41.40625 72.265625 42.046875 75.96875 
L 47.796875 75.96875 
Q 47.3125 68.984375 43.453125 65.46875 
Q 39.59375 61.953125 32.515625 61.953125 
Q 25.4375 61.953125 21.578125 65.46875 
Q 17.71875 68.984375 17.234375 75.96875 
z
" id="DejaVuSans-1081"/>
      <path d="M 11.71875 12.40625 
L 22.015625 12.40625 
L 22.015625 4 
L 14.015625 -11.625 
L 7.71875 -11.625 
L 11.71875 4 
z
" id="DejaVuSans-44"/>
      <path d="M 72.703125 32.078125 
Q 68.453125 32.078125 66.03125 28.46875 
Q 63.625 24.859375 63.625 18.40625 
Q 63.625 12.0625 66.03125 8.421875 
Q 68.453125 4.78125 72.703125 4.78125 
Q 76.859375 4.78125 79.265625 8.421875 
Q 81.6875 12.0625 81.6875 18.40625 
Q 81.6875 24.8125 79.265625 28.4375 
Q 76.859375 32.078125 72.703125 32.078125 
z
M 72.703125 38.28125 
Q 80.421875 38.28125 84.953125 32.90625 
Q 89.5 27.546875 89.5 18.40625 
Q 89.5 9.28125 84.9375 3.921875 
Q 80.375 -1.421875 72.703125 -1.421875 
Q 64.890625 -1.421875 60.34375 3.921875 
Q 55.8125 9.28125 55.8125 18.40625 
Q 55.8125 27.59375 60.375 32.9375 
Q 64.9375 38.28125 72.703125 38.28125 
z
M 22.3125 68.015625 
Q 18.109375 68.015625 15.6875 64.375 
Q 13.28125 60.75 13.28125 54.390625 
Q 13.28125 47.953125 15.671875 44.328125 
Q 18.0625 40.71875 22.3125 40.71875 
Q 26.5625 40.71875 28.96875 44.328125 
Q 31.390625 47.953125 31.390625 54.390625 
Q 31.390625 60.6875 28.953125 64.34375 
Q 26.515625 68.015625 22.3125 68.015625 
z
M 66.40625 74.21875 
L 74.21875 74.21875 
L 28.609375 -1.421875 
L 20.796875 -1.421875 
z
M 22.3125 74.21875 
Q 30.03125 74.21875 34.609375 68.875 
Q 39.203125 63.53125 39.203125 54.390625 
Q 39.203125 45.171875 34.640625 39.84375 
Q 30.078125 34.515625 22.3125 34.515625 
Q 14.546875 34.515625 10.03125 39.859375 
Q 5.515625 45.21875 5.515625 54.390625 
Q 5.515625 63.484375 10.046875 68.84375 
Q 14.59375 74.21875 22.3125 74.21875 
z
" id="DejaVuSans-37"/>
     </defs>
     <g transform="translate(243.673437 284.596563)scale(0.1 -0.1)">
      <use xlink:href="#DejaVuSans-1076"/>
      <use x="69.140625" xlink:href="#DejaVuSans-1086"/>
      <use x="130.322266" xlink:href="#DejaVuSans-1083"/>
      <use x="194.238281" xlink:href="#DejaVuSans-1103"/>
      <use x="254.394531" xlink:href="#DejaVuSans-32"/>
      <use x="286.181641" xlink:href="#DejaVuSans-1087"/>
      <use x="351.5625" xlink:href="#DejaVuSans-1086"/>
      <use x="412.744141" xlink:href="#DejaVuSans-1088"/>
      <use x="476.220703" xlink:href="#DejaVuSans-1090"/>
      <use x="534.472656" xlink:href="#DejaVuSans-1092"/>
      <use x="619.970703" xlink:href="#DejaVuSans-1077"/>
      <use x="681.494141" xlink:href="#DejaVuSans-1083"/>
      <use x="745.410156" xlink:href="#DejaVuSans-1077"/>
      <use x="806.933594" xlink:href="#DejaVuSans-1081"/>
      <use x="871.923828" xlink:href="#DejaVuSans-44"/>
      <use x="903.710938" xlink:href="#DejaVuSans-32"/>
      <use x="935.498047" xlink:href="#DejaVuSans-37"/>
     </g>
    </g>
   </g>
   <g id="matplotlib.axis_2">
    <g id="ytick_1">
     <g id="line2d_7">
      <defs>
       <path d="M 0 0 
L -3.5 0 
" id="m783315c8c2" style="stroke:#000000;stroke-width:0.8;"/>
      </defs>
      <g>
       <use style="stroke:#000000;stroke-width:0.8;" x="72" xlink:href="#m783315c8c2" y="241.905128"/>
      </g>
     </g>
     <g id="text_8">
      <!-- 0 -->
      <g transform="translate(58.6375 245.704346)scale(0.1 -0.1)">
       <use xlink:href="#DejaVuSans-48"/>
      </g>
     </g>
    </g>
    <g id="ytick_2">
     <g id="line2d_8">
      <g>
       <use style="stroke:#000000;stroke-width:0.8;" x="72" xlink:href="#m783315c8c2" y="211.071405"/>
      </g>
     </g>
     <g id="text_9">
      <!-- 2 -->
      <g transform="translate(58.6375 214.870623)scale(0.1 -0.1)">
       <use xlink:href="#DejaVuSans-50"/>
      </g>
     </g>
    </g>
    <g id="ytick_3">
     <g id="line2d_9">
      <g>
       <use style="stroke:#000000;stroke-width:0.8;" x="72" xlink:href="#m783315c8c2" y="180.237682"/>
      </g>
     </g>
     <g id="text_10">
      <!-- 4 -->
      <g transform="translate(58.6375 184.036901)scale(0.1 -0.1)">
       <use xlink:href="#DejaVuSans-52"/>
      </g>
     </g>
    </g>
    <g id="ytick_4">
     <g id="line2d_10">
      <g>
       <use style="stroke:#000000;stroke-width:0.8;" x="72" xlink:href="#m783315c8c2" y="149.403959"/>
      </g>
     </g>
     <g id="text_11">
      <!-- 6 -->
      <g transform="translate(58.6375 153.203178)scale(0.1 -0.1)">
       <use xlink:href="#DejaVuSans-54"/>
      </g>
     </g>
    </g>
    <g id="ytick_5">
     <g id="line2d_11">
      <g>
       <use style="stroke:#000000;stroke-width:0.8;" x="72" xlink:href="#m783315c8c2" y="118.570236"/>
      </g>
     </g>
     <g id="text_12">
      <!-- 8 -->
      <g transform="translate(58.6375 122.369455)scale(0.1 -0.1)">
       <use xlink:href="#DejaVuSans-56"/>
      </g>
     </g>
    </g>
    <g id="ytick_6">
     <g id="line2d_12">
      <g>
       <use style="stroke:#000000;stroke-width:0.8;" x="72" xlink:href="#m783315c8c2" y="87.736513"/>
      </g>
     </g>
     <g id="text_13">
      <!-- 10 -->
      <g transform="translate(52.275 91.535732)scale(0.1 -0.1)">
       <use xlink:href="#DejaVuSans-49"/>
       <use x="63.623047" xlink:href="#DejaVuSans-48"/>
      </g>
     </g>
    </g>
    <g id="ytick_7">
     <g id="line2d_13">
      <g>
       <use style="stroke:#000000;stroke-width:0.8;" x="72" xlink:href="#m783315c8c2" y="56.902791"/>
      </g>
     </g>
     <g id="text_14">
      <!-- 12 -->
      <g transform="translate(52.275 60.702009)scale(0.1 -0.1)">
       <use xlink:href="#DejaVuSans-49"/>
       <use x="63.623047" xlink:href="#DejaVuSans-50"/>
      </g>
     </g>
    </g>
    <g id="text_15">
     <!-- доходность, %г -->
     <defs>
      <path d="M 54.890625 54.6875 
L 35.109375 28.078125 
L 55.90625 0 
L 45.3125 0 
L 29.390625 21.484375 
L 13.484375 0 
L 2.875 0 
L 24.125 28.609375 
L 4.6875 54.6875 
L 15.28125 54.6875 
L 29.78125 35.203125 
L 44.28125 54.6875 
z
" id="DejaVuSans-1093"/>
      <path d="M 9.078125 54.6875 
L 18.109375 54.6875 
L 18.109375 32.375 
L 47.265625 32.375 
L 47.265625 54.6875 
L 56.296875 54.6875 
L 56.296875 0 
L 47.265625 0 
L 47.265625 25.203125 
L 18.109375 25.203125 
L 18.109375 0 
L 9.078125 0 
z
" id="DejaVuSans-1085"/>
      <path d="M 48.78125 52.59375 
L 48.78125 44.1875 
Q 44.96875 46.296875 41.140625 47.34375 
Q 37.3125 48.390625 33.40625 48.390625 
Q 24.65625 48.390625 19.8125 42.84375 
Q 14.984375 37.3125 14.984375 27.296875 
Q 14.984375 17.28125 19.8125 11.734375 
Q 24.65625 6.203125 33.40625 6.203125 
Q 37.3125 6.203125 41.140625 7.25 
Q 44.96875 8.296875 48.78125 10.40625 
L 48.78125 2.09375 
Q 45.015625 0.34375 40.984375 -0.53125 
Q 36.96875 -1.421875 32.421875 -1.421875 
Q 20.0625 -1.421875 12.78125 6.34375 
Q 5.515625 14.109375 5.515625 27.296875 
Q 5.515625 40.671875 12.859375 48.328125 
Q 20.21875 56 33.015625 56 
Q 37.15625 56 41.109375 55.140625 
Q 45.0625 54.296875 48.78125 52.59375 
z
" id="DejaVuSans-1089"/>
      <path d="M 43.453125 16.21875 
Q 43.453125 20.609375 40.25 22.90625 
Q 37.0625 25.203125 30.90625 25.203125 
L 18.109375 25.203125 
L 18.109375 7.171875 
L 30.90625 7.171875 
Q 37.0625 7.171875 40.25 9.484375 
Q 43.453125 11.8125 43.453125 16.21875 
z
M 9.078125 54.6875 
L 18.109375 54.6875 
L 18.109375 32.375 
L 31.296875 32.375 
Q 41.75 32.375 47.390625 28.390625 
Q 53.03125 24.421875 53.03125 16.21875 
Q 53.03125 8.015625 47.390625 4 
Q 41.75 0 31.296875 0 
L 9.078125 0 
z
" id="DejaVuSans-1100"/>
      <path d="M 9.078125 0 
L 9.078125 54.6875 
L 47.65625 54.6875 
L 47.65625 47.515625 
L 18.109375 47.515625 
L 18.109375 0 
z
" id="DejaVuSans-1075"/>
     </defs>
     <g transform="translate(46.195312 186.925156)rotate(-90)scale(0.1 -0.1)">
      <use xlink:href="#DejaVuSans-1076"/>
      <use x="69.140625" xlink:href="#DejaVuSans-1086"/>
      <use x="130.322266" xlink:href="#DejaVuSans-1093"/>
      <use x="189.501953" xlink:href="#DejaVuSans-1086"/>
      <use x="250.683594" xlink:href="#DejaVuSans-1076"/>
      <use x="319.824219" xlink:href="#DejaVuSans-1085"/>
      <use x="385.205078" xlink:href="#DejaVuSans-1086"/>
      <use x="446.386719" xlink:href="#DejaVuSans-1089"/>
      <use x="501.367188" xlink:href="#DejaVuSans-1090"/>
      <use x="559.619141" xlink:href="#DejaVuSans-1100"/>
      <use x="618.554688" xlink:href="#DejaVuSans-44"/>
      <use x="650.341797" xlink:href="#DejaVuSans-32"/>
      <use x="682.128906" xlink:href="#DejaVuSans-37"/>
      <use x="777.148438" xlink:href="#DejaVuSans-1075"/>
     </g>
    </g>
   </g>
   <g id="line2d_14">
    <path clip-path="url(#p93594bd629)" d="M 92.290909 238.058071 
L 92.49392 231.124238 
L 92.899941 226.220706 
L 93.102951 225.351444 
L 93.305962 223.727624 
L 93.711983 222.54894 
L 93.914994 221.800893 
L 94.321015 221.281186 
L 94.524026 219.755214 
L 94.930047 218.67791 
L 95.133057 217.986924 
L 95.539079 217.340449 
L 95.9451 216.529557 
L 96.351121 216.335504 
L 97.163163 216.00514 
L 97.569185 215.523662 
L 97.772195 215.481983 
L 97.975206 214.810221 
L 98.178216 214.546541 
L 98.584238 214.456446 
L 98.787248 214.262233 
L 98.990259 213.637529 
L 99.193269 213.629636 
L 99.802301 212.705035 
L 100.208322 212.331647 
L 100.614344 212.033137 
L 101.020365 211.686721 
L 101.223375 211.355013 
L 101.426386 211.351523 
L 101.832407 210.722455 
L 102.238428 210.689641 
L 102.644449 210.397058 
L 102.84746 210.357423 
L 103.050471 210.096483 
L 103.253481 210.07585 
L 103.659502 209.750072 
L 104.065524 209.704062 
L 104.674555 209.128336 
L 105.689608 209.047431 
L 106.09563 208.695799 
L 106.29864 208.649539 
L 106.501651 208.356478 
L 107.110683 208.174095 
L 108.125736 207.407573 
L 108.531757 207.344138 
L 108.734767 207.213981 
L 108.937778 206.829162 
L 109.343799 206.731219 
L 109.54681 206.406911 
L 110.358852 206.170572 
L 110.764873 206.02383 
L 111.576916 205.638644 
L 111.779926 205.377848 
L 111.982937 205.337209 
L 112.388958 204.849907 
L 112.99799 204.69576 
L 113.607022 204.604459 
L 113.810032 204.362644 
L 114.216053 204.349389 
L 115.028096 203.787508 
L 116.44917 203.636434 
L 119.088308 202.274789 
L 119.291318 202.2708 
L 119.90035 201.736583 
L 120.103361 201.725404 
L 120.306371 201.528057 
L 120.712393 201.498498 
L 120.915403 201.383988 
L 121.118414 201.136801 
L 122.336477 201.078756 
L 122.945509 200.715299 
L 123.35153 200.569855 
L 123.757552 200.401375 
L 124.772604 200.24249 
L 125.787657 200.120863 
L 127.005721 199.78693 
L 127.208732 199.640733 
L 128.020774 199.53382 
L 129.644859 199.127687 
L 129.847869 198.739845 
L 130.659912 198.652018 
L 131.065933 198.356658 
L 132.487007 198.158045 
L 133.096039 198.07335 
L 133.50206 197.952999 
L 134.314103 197.673823 
L 134.923134 197.545094 
L 139.592378 196.248236 
L 139.998399 196.13395 
L 140.810442 195.902993 
L 142.840548 195.536587 
L 143.449579 195.466851 
L 143.65259 195.164732 
L 144.058611 195.054577 
L 144.667643 194.849808 
L 146.291728 194.515074 
L 146.494738 194.475328 
L 146.697749 194.185965 
L 147.10377 194.084636 
L 147.509791 193.978415 
L 149.742908 193.618116 
L 151.163982 193.407037 
L 151.773014 193.363814 
L 152.382046 193.108857 
L 153.600109 192.996717 
L 154.209141 192.924726 
L 154.615162 192.773786 
L 155.224194 192.66328 
L 156.036236 192.434129 
L 156.442257 192.338962 
L 160.502469 191.291034 
L 163.344618 191.03658 
L 166.998808 190.545271 
L 167.60784 190.503949 
L 168.013861 190.332016 
L 168.622893 190.235874 
L 170.449989 189.979794 
L 170.85601 189.847263 
L 171.465042 189.782161 
L 172.074073 189.691425 
L 172.886116 189.563293 
L 173.698158 189.508367 
L 174.104179 189.383826 
L 174.916222 189.312777 
L 175.322243 189.184226 
L 176.134285 189.03605 
L 177.352349 188.901037 
L 177.555359 188.747819 
L 178.773423 188.644407 
L 179.585465 188.585873 
L 180.600518 188.463052 
L 181.00654 188.336545 
L 181.615571 188.170025 
L 190.142016 187.03935 
L 190.954059 186.885082 
L 192.375133 186.7575 
L 195.623303 186.364234 
L 198.05943 186.158183 
L 198.465451 185.971499 
L 200.495557 185.728055 
L 201.104589 185.61292 
L 201.71362 185.569826 
L 202.119642 185.445468 
L 210.646087 184.455667 
L 218.157479 183.447612 
L 218.5635 183.316623 
L 220.187585 183.151088 
L 222.217691 182.831838 
L 224.044786 182.65653 
L 224.653818 182.509676 
L 227.292956 182.142195 
L 227.901987 181.967588 
L 228.71403 181.857691 
L 228.91704 181.842782 
L 229.323062 181.599366 
L 229.932093 181.441858 
L 230.541125 181.306803 
L 231.962199 181.145409 
L 232.571231 181.059696 
L 236.428432 180.541683 
L 236.834454 180.516561 
L 237.240475 180.329789 
L 239.270581 180.02494 
L 245.360899 179.178909 
L 245.96993 179.063966 
L 246.375952 178.996814 
L 247.594015 178.88189 
L 248.203047 178.783292 
L 249.827132 178.666503 
L 250.030142 178.64842 
L 250.436164 178.449111 
L 251.654227 178.261188 
L 252.872291 178.130947 
L 254.902397 177.908557 
L 255.714439 177.822433 
L 256.729492 177.707252 
L 260.383683 177.295759 
L 261.398736 177.201496 
L 263.225831 176.937202 
L 266.474001 176.707821 
L 266.880022 176.493213 
L 272.97034 175.779035 
L 273.579372 175.672136 
L 275.000446 175.545511 
L 275.812488 175.401694 
L 276.42152 175.206871 
L 286.369039 174.007103 
L 287.587103 173.919191 
L 292.662368 172.918634 
L 293.068389 172.813176 
L 294.286452 172.667692 
L 294.692474 172.603681 
L 295.707526 172.544865 
L 296.113548 172.386442 
L 298.143654 172.094907 
L 298.549675 172.078245 
L 298.752685 171.851846 
L 299.767738 171.657216 
L 300.782791 171.516892 
L 306.264077 170.967721 
L 307.685152 170.691897 
L 308.294183 170.616523 
L 308.700205 170.498935 
L 309.106226 170.479131 
L 309.512247 170.304699 
L 310.324289 170.141076 
L 311.745364 169.912923 
L 312.963427 169.8157 
L 313.97848 169.704171 
L 314.993533 169.590172 
L 315.805576 169.509037 
L 316.414607 169.435122 
L 318.241703 169.28193 
L 318.647724 169.196768 
L 321.489872 168.96405 
L 324.332021 168.647155 
L 325.347074 168.535675 
L 326.768148 168.336106 
L 328.392232 168.215239 
L 340.369858 166.725645 
L 340.775879 166.631204 
L 342.805985 166.377719 
L 343.821038 166.090709 
L 344.836091 165.967531 
L 345.445123 165.789932 
L 346.663186 165.681833 
L 347.272218 165.481954 
L 348.896303 165.28826 
L 349.099313 165.116902 
L 349.911356 165.003482 
L 350.520387 164.920251 
L 351.33243 164.741104 
L 351.941462 164.519491 
L 353.159525 164.391483 
L 354.174578 164.212294 
L 355.595652 163.95992 
L 356.001674 163.869238 
L 357.219737 163.641023 
L 358.640811 163.347286 
L 360.873928 163.176943 
L 361.888981 163.030831 
L 363.310055 162.709105 
L 363.716076 162.630099 
L 364.528119 162.376154 
L 365.13715 162.297223 
L 365.746182 162.237416 
L 366.558225 162.078069 
L 370.821447 161.346889 
L 371.227468 161.231448 
L 371.633489 161.12015 
L 372.445532 161.00842 
L 373.257574 160.957108 
L 374.069617 160.870722 
L 374.272627 160.623521 
L 376.302733 160.370963 
L 377.114776 160.095719 
L 381.784019 159.497843 
L 382.596062 159.322478 
L 383.002083 159.204232 
L 383.408104 159.071277 
L 383.814125 158.871099 
L 384.626168 158.729291 
L 385.032189 158.615103 
L 386.656274 158.498046 
L 387.671327 158.369045 
L 388.483369 158.236881 
L 392.13756 157.756917 
L 392.543581 157.528381 
L 393.964655 157.338635 
L 394.776697 157.110831 
L 396.400782 156.99517 
L 397.618846 156.787016 
L 398.024867 156.753659 
L 398.227878 156.540903 
L 398.430888 156.519611 
L 398.633899 156.337089 
L 399.851962 156.242669 
L 407.160344 154.663467 
L 408.175397 154.407445 
L 410.002492 154.21883 
L 411.220556 153.808636 
L 411.626577 153.751416 
L 412.032598 153.501058 
L 413.453672 153.367298 
L 413.859693 153.194852 
L 415.889799 152.957179 
L 416.295821 152.796781 
L 416.498831 152.782507 
L 416.904852 152.515681 
L 418.731948 152.232183 
L 419.137969 152.091187 
L 420.356033 151.968309 
L 421.168075 151.613564 
L 421.371086 151.604972 
L 421.777107 151.459801 
L 422.99517 151.280685 
L 423.401192 151.080248 
L 424.213234 150.987372 
L 424.619255 150.852419 
L 425.025276 150.770208 
L 425.228287 150.757131 
L 425.634308 150.507457 
L 427.055382 150.176522 
L 427.461403 150.018578 
L 427.664414 149.962502 
L 427.867425 149.512294 
L 428.882478 149.316899 
L 430.100541 149.116524 
L 432.333658 148.664691 
L 434.972795 148.012014 
L 435.581827 147.899987 
L 435.987848 147.775188 
L 436.190859 147.764198 
L 436.59688 147.617885 
L 436.799891 147.566391 
L 437.002901 147.302397 
L 437.611933 147.221041 
L 438.220965 147.042758 
L 442.687198 146.323701 
L 443.29623 145.762993 
L 443.499241 145.750513 
L 443.702251 145.593358 
L 443.905262 145.580589 
L 444.311283 145.397011 
L 444.920315 145.140234 
L 445.326336 144.675154 
L 446.544399 144.404923 
L 446.950421 144.252082 
L 447.356442 144.05265 
L 447.762463 143.829699 
L 448.371495 143.814136 
L 448.777516 143.41092 
L 448.980527 143.21302 
L 449.99558 143.033098 
L 451.010633 142.344007 
L 452.025686 142.217773 
L 452.228696 141.925974 
L 454.055792 141.339609 
L 454.664823 141.126058 
L 455.070845 140.956822 
L 455.476866 140.730416 
L 456.288908 140.592543 
L 456.491919 140.346006 
L 457.10095 140.056537 
L 457.709982 139.691548 
L 458.116003 139.528175 
L 458.319014 139.248437 
L 458.522025 139.247311 
L 458.928046 139.117888 
L 459.537078 138.872651 
L 460.146109 138.601908 
L 460.34912 138.547387 
L 460.755141 138.176549 
L 462.176215 137.867213 
L 462.582237 137.734697 
L 463.191268 137.538894 
L 463.8003 137.351963 
L 464.206321 137.012596 
L 464.409332 137.008029 
L 466.033417 135.866913 
L 466.642448 135.78322 
L 466.845459 135.644621 
L 467.25148 135.630635 
L 467.454491 135.162341 
L 467.860512 135.010994 
L 468.266533 134.808645 
L 468.469544 134.796796 
L 468.672554 134.611563 
L 469.484597 134.419343 
L 470.093629 134.140629 
L 470.296639 134.132294 
L 470.49965 133.907603 
L 471.108682 133.84244 
L 471.717713 133.571762 
L 471.920724 133.532273 
L 472.123735 133.317825 
L 472.529756 133.236737 
L 473.138788 132.87784 
L 473.747819 132.694001 
L 475.168894 132.105218 
L 475.371904 131.857498 
L 475.574915 131.852821 
L 476.386957 131.12576 
L 476.792978 130.380581 
L 477.198999 130.336854 
L 477.605021 130.176831 
L 478.011042 130.044245 
L 478.214052 129.591247 
L 478.620074 129.525335 
L 478.823084 129.05887 
L 479.026095 129.001932 
L 479.229105 128.427048 
L 479.838137 128.347283 
L 480.041148 128.322632 
L 480.447169 127.964141 
L 480.85319 127.698947 
L 481.462222 127.173408 
L 482.071254 126.435735 
L 483.086307 125.572929 
L 483.695339 125.457866 
L 483.898349 125.346516 
L 484.30437 124.154628 
L 484.507381 124.136775 
L 484.710392 123.937273 
L 485.522434 123.718312 
L 485.725445 123.462358 
L 485.928455 122.451721 
L 486.131466 122.049001 
L 486.537487 121.937779 
L 486.740498 121.554265 
L 487.146519 121.309195 
L 487.349529 121.020579 
L 487.55254 120.934321 
L 487.755551 119.60852 
L 488.161572 119.416839 
L 488.770603 118.316746 
L 489.582646 117.703001 
L 489.785656 117.281823 
L 489.988667 117.273705 
L 490.191678 115.223189 
L 490.394688 115.12392 
L 491.409741 113.568619 
L 491.815762 112.276772 
L 493.033826 109.902312 
L 494.048879 104.315554 
L 494.25189 104.310737 
L 494.4549 101.589396 
L 494.657911 101.528384 
L 494.860921 100.819942 
L 495.063932 100.728938 
L 495.266943 100.236769 
L 495.469953 98.755808 
L 495.875974 97.745748 
L 496.281996 93.173241 
L 496.485006 93.096787 
L 496.688017 91.379857 
L 496.891027 88.442853 
L 497.094038 88.179963 
L 497.297049 84.935476 
L 497.500059 83.897128 
L 497.70307 81.199712 
L 497.90608 69.92383 
L 498.109091 68.279962 
L 498.109091 68.279962 
" style="fill:none;stroke:#1f77b4;stroke-linecap:square;stroke-width:1.5;"/>
   </g>
   <g id="line2d_15">
    <path clip-path="url(#p93594bd629)" d="M 92.290909 228.021596 
L 92.49392 225.037782 
L 92.69693 224.691908 
L 92.899941 221.831848 
L 93.305962 221.010374 
L 93.711983 220.08313 
L 93.914994 218.826228 
L 94.321015 214.652983 
L 94.524026 214.605995 
L 94.727036 213.913068 
L 94.930047 213.646105 
L 95.539079 210.051173 
L 95.9451 209.777269 
L 96.14811 209.455587 
L 96.351121 208.199823 
L 96.757142 207.766435 
L 96.960153 207.201382 
L 97.366174 207.073485 
L 97.975206 206.168238 
L 98.584238 205.616018 
L 98.787248 205.507629 
L 98.990259 204.866868 
L 99.599291 204.590758 
L 100.411333 204.228559 
L 101.223375 202.776266 
L 101.629397 202.753482 
L 102.035418 202.260417 
L 102.644449 202.121389 
L 102.84746 201.978312 
L 103.253481 201.54452 
L 103.862513 200.92287 
L 104.471545 200.709936 
L 104.674555 200.324398 
L 105.080577 200.102063 
L 105.892619 199.928007 
L 106.09563 199.703988 
L 106.501651 199.599995 
L 107.719714 198.652951 
L 108.125736 198.537339 
L 108.328746 198.334148 
L 108.734767 198.24077 
L 109.140789 197.885384 
L 109.343799 197.644404 
L 109.54681 197.611976 
L 109.74982 196.937167 
L 111.373905 196.134062 
L 112.388958 195.99769 
L 112.591969 195.736758 
L 113.810032 195.462278 
L 114.216053 195.107872 
L 115.028096 194.863082 
L 115.231106 194.484146 
L 115.637128 194.46611 
L 116.246159 194.173948 
L 117.261212 193.929004 
L 117.464223 193.662214 
L 117.667234 193.644347 
L 117.870244 193.440831 
L 118.885297 193.25874 
L 119.291318 193.122615 
L 120.103361 192.871263 
L 120.509382 192.776842 
L 120.915403 192.634132 
L 121.930456 192.411275 
L 122.336477 192.239101 
L 123.14852 191.991425 
L 123.757552 191.628031 
L 124.366583 191.557008 
L 125.584647 191.238713 
L 125.990668 191.094354 
L 127.614753 190.441686 
L 128.020774 190.056403 
L 128.629806 189.968782 
L 129.238838 189.750424 
L 129.847869 189.652768 
L 130.456901 189.256007 
L 130.862922 189.221542 
L 131.065933 189.068873 
L 132.080986 188.951746 
L 133.908081 188.666835 
L 134.314103 188.543471 
L 137.156251 188.005475 
L 137.562272 187.850267 
L 138.577325 187.665918 
L 140.20141 187.442345 
L 140.607431 187.358766 
L 141.013452 187.049639 
L 142.028505 186.87501 
L 144.870654 186.229475 
L 145.276675 186.030977 
L 148.727855 185.340937 
L 149.133876 185.082908 
L 151.366993 184.63042 
L 151.976024 184.467642 
L 152.991077 184.391748 
L 153.397099 184.287753 
L 153.80312 184.189615 
L 158.675374 183.469585 
L 159.081395 183.340401 
L 159.893438 183.244728 
L 161.720533 182.912336 
L 162.532575 182.813948 
L 163.141607 182.572537 
L 165.374724 182.331958 
L 166.998808 182.265421 
L 167.40483 182.052389 
L 168.825904 181.903519 
L 169.231925 181.784363 
L 170.85601 181.568528 
L 171.05902 181.566132 
L 171.668052 181.136116 
L 172.480095 181.065058 
L 173.089126 180.92335 
L 174.510201 180.796268 
L 175.525254 180.610654 
L 176.946328 180.382711 
L 177.555359 180.300551 
L 178.164391 180.170652 
L 179.382455 180.106257 
L 180.600518 179.776618 
L 181.20955 179.693763 
L 181.818582 179.531961 
L 183.036646 179.387113 
L 184.254709 179.189675 
L 184.45772 179.030888 
L 185.066752 178.905161 
L 189.126963 178.143275 
L 191.969112 177.862299 
L 192.375133 177.772803 
L 195.014271 177.400314 
L 195.217281 177.39681 
L 195.623303 177.239212 
L 200.292546 176.531909 
L 203.134695 175.939756 
L 203.946737 175.832565 
L 206.585875 175.418476 
L 207.397917 175.325535 
L 208.818991 175.068299 
L 210.646087 174.895925 
L 211.052108 174.738738 
L 212.270171 174.594483 
L 212.879203 174.518898 
L 213.894256 174.350141 
L 215.31533 174.143925 
L 219.172532 173.683816 
L 219.781564 173.576305 
L 223.029733 173.152359 
L 223.841775 172.942256 
L 225.059839 172.830542 
L 225.46586 172.768205 
L 225.871881 172.656519 
L 226.683924 172.606712 
L 227.495966 172.417518 
L 228.104998 172.343296 
L 228.91704 172.257392 
L 229.932093 172.10714 
L 232.571231 171.938268 
L 232.977252 171.82482 
L 233.789295 171.747135 
L 234.398326 171.543671 
L 235.210369 171.396942 
L 235.61639 171.359485 
L 236.022411 171.206012 
L 237.849507 170.982209 
L 238.458538 170.825285 
L 240.488644 170.629853 
L 240.894666 170.533182 
L 244.142835 170.189333 
L 245.76692 170.072582 
L 247.594015 169.755996 
L 248.000036 169.610746 
L 249.2181 169.488675 
L 253.684333 168.985969 
L 256.526481 168.671893 
L 256.932503 168.576409 
L 258.556587 168.306357 
L 259.36863 168.143845 
L 259.57164 168.140562 
L 259.977662 168.005053 
L 260.789704 167.885381 
L 265.661958 167.144803 
L 266.880022 167.033437 
L 267.489054 166.885433 
L 268.707117 166.800292 
L 269.51916 166.685118 
L 269.925181 166.614819 
L 272.158297 166.46781 
L 272.767329 166.365653 
L 276.42152 166.020152 
L 276.827541 165.945456 
L 283.32388 165.362339 
L 283.932912 165.250364 
L 287.181081 164.907086 
L 289.008177 164.757774 
L 290.632262 164.503308 
L 291.241293 164.368575 
L 291.647315 164.280603 
L 292.865378 164.182034 
L 293.880431 164.026709 
L 294.286452 163.846741 
L 298.346664 163.461816 
L 299.158707 163.36228 
L 301.188813 163.22437 
L 302.406876 163.07818 
L 309.106226 162.113039 
L 311.745364 161.888212 
L 312.354395 161.770566 
L 313.572459 161.632493 
L 314.790523 161.418761 
L 316.617618 161.279353 
L 317.023639 161.17062 
L 318.850734 160.965915 
L 319.256756 160.841478 
L 324.941052 160.312961 
L 326.159116 160.074264 
L 330.219328 159.560667 
L 330.625349 159.448693 
L 333.467497 159.212279 
L 333.873519 159.115471 
L 335.497603 159.031874 
L 337.933731 158.568996 
L 338.542762 158.445511 
L 340.369858 158.231243 
L 341.384911 158.118897 
L 342.399964 157.999828 
L 343.821038 157.899281 
L 344.43007 157.714858 
L 346.054154 157.514681 
L 347.88125 157.311478 
L 349.911356 157.046874 
L 350.520387 156.803607 
L 350.926409 156.691438 
L 353.565546 156.544551 
L 354.377589 156.340897 
L 358.437801 155.986353 
L 358.843822 155.833067 
L 360.264896 155.629096 
L 361.076938 155.398731 
L 362.091991 155.300319 
L 362.904034 155.201425 
L 363.513066 155.02016 
L 365.340161 154.707619 
L 365.746182 154.507742 
L 366.355214 154.442251 
L 367.979299 154.262856 
L 368.38532 154.13777 
L 370.212415 153.722955 
L 370.618436 153.587317 
L 371.430479 153.452797 
L 373.663595 153.17335 
L 376.099723 153.022631 
L 377.317786 152.853993 
L 378.73886 152.565651 
L 379.753913 152.424491 
L 381.174987 152.248849 
L 381.581009 152.097456 
L 383.002083 152.051824 
L 383.205093 151.854086 
L 384.220146 151.703025 
L 388.88939 151.0574 
L 389.701433 150.970287 
L 389.904443 150.797707 
L 390.107454 150.797361 
L 390.513475 150.594954 
L 392.34057 150.458212 
L 392.949602 150.363264 
L 393.761644 150.260925 
L 395.385729 149.978131 
L 395.79175 149.822006 
L 398.227878 149.319312 
L 402.085079 148.812591 
L 403.303142 148.58822 
L 404.724217 148.443642 
L 406.551312 148.079277 
L 406.957333 147.951449 
L 407.566365 147.84817 
L 415.889799 145.93459 
L 416.09281 145.582178 
L 416.701842 145.422717 
L 418.122916 145.218572 
L 418.528937 145.075326 
L 419.137969 145.046126 
L 419.34098 144.902181 
L 421.168075 144.737671 
L 421.574096 144.585565 
L 422.183128 144.530399 
L 422.589149 144.415846 
L 422.79216 144.41233 
L 423.198181 144.145297 
L 423.604202 144.09108 
L 424.010223 143.859426 
L 424.416244 143.771188 
L 425.025276 143.753909 
L 425.431297 143.47614 
L 425.634308 143.340228 
L 426.24334 143.256091 
L 428.070435 142.774419 
L 428.476456 142.623365 
L 430.912584 142.231635 
L 431.318605 142.056118 
L 431.724626 141.932107 
L 434.363764 141.521145 
L 434.566774 141.345248 
L 435.175806 141.2542 
L 436.190859 140.954592 
L 437.611933 140.646767 
L 437.814944 140.480964 
L 438.626986 140.399607 
L 439.439029 140.306442 
L 440.657092 140.054071 
L 440.860103 139.861974 
L 442.281177 139.655314 
L 442.890209 139.480342 
L 443.29623 139.430744 
L 443.499241 139.250054 
L 444.311283 139.073659 
L 444.717304 139.025588 
L 445.123325 138.781025 
L 445.326336 138.618676 
L 446.138378 138.533435 
L 446.544399 138.199634 
L 447.965474 138.022876 
L 448.574505 137.891051 
L 448.777516 137.867378 
L 449.183537 137.54243 
L 452.228696 137.036778 
L 452.634717 136.987927 
L 452.837728 136.829655 
L 453.64977 136.694937 
L 457.506972 135.828986 
L 458.725035 135.327802 
L 459.537078 135.14341 
L 459.943099 134.960254 
L 460.146109 134.938433 
L 460.552131 134.756919 
L 461.567184 134.334884 
L 462.176215 134.170207 
L 462.582237 134.110195 
L 462.988258 133.733948 
L 463.8003 133.640739 
L 464.612343 133.053071 
L 464.815353 133.041435 
L 465.221374 132.82198 
L 465.830406 132.689684 
L 466.033417 132.672393 
L 466.642448 132.243501 
L 467.04847 132.086839 
L 467.454491 131.86905 
L 468.469544 131.750162 
L 469.078576 131.534126 
L 469.281586 131.430235 
L 469.484597 130.807255 
L 469.687607 130.760495 
L 470.49965 130.155787 
L 470.70266 130.113147 
L 471.717713 129.392955 
L 472.123735 129.372398 
L 473.341798 128.562049 
L 474.356851 128.139039 
L 475.168894 127.582684 
L 476.386957 127.01217 
L 477.198999 126.608617 
L 477.808031 126.46594 
L 479.026095 126.264769 
L 479.432116 126.068714 
L 479.838137 126.014471 
L 480.244158 125.726594 
L 480.447169 125.149039 
L 481.056201 124.985296 
L 481.259211 124.533051 
L 481.462222 124.531984 
L 482.274264 123.861189 
L 482.477275 123.135657 
L 482.883296 122.990781 
L 483.086307 122.800437 
L 483.289317 122.428606 
L 483.492328 122.324593 
L 483.898349 121.895418 
L 484.10136 121.878299 
L 484.30437 121.530251 
L 484.710392 121.418532 
L 484.913402 121.094285 
L 485.116413 120.305858 
L 485.522434 120.141309 
L 485.725445 120.100784 
L 485.928455 119.793679 
L 486.334476 119.737516 
L 486.740498 118.832224 
L 486.943508 118.718632 
L 487.146519 118.396129 
L 487.349529 117.828515 
L 487.958561 117.478277 
L 488.161572 117.12184 
L 488.364582 117.062039 
L 488.770603 116.648502 
L 491.00372 114.366466 
L 491.409741 113.84509 
L 491.612752 113.812453 
L 491.815762 113.655882 
L 492.018773 112.142837 
L 492.424794 111.621801 
L 492.830815 110.483805 
L 493.439847 110.224993 
L 493.642858 110.067898 
L 493.845868 110.064018 
L 494.048879 106.473046 
L 494.25189 106.152944 
L 494.657911 104.673067 
L 494.860921 104.419268 
L 495.672964 101.60994 
L 495.875974 97.758423 
L 496.078985 97.741023 
L 496.281996 96.772394 
L 496.485006 95.041049 
L 496.688017 94.622612 
L 496.891027 94.476008 
L 497.094038 92.63267 
L 497.297049 92.11461 
L 497.70307 86.600213 
L 497.90608 75.778559 
L 498.109091 75.163 
L 498.109091 75.163 
" style="fill:none;stroke:#ff7f0e;stroke-linecap:square;stroke-width:1.5;"/>
   </g>
   <g id="line2d_16">
    <path clip-path="url(#p93594bd629)" d="M 92.290909 246.24 
L 92.49392 239.161179 
L 92.899941 232.794558 
L 93.102951 232.752778 
L 93.305962 230.99056 
L 93.914994 230.458521 
L 94.118004 229.571627 
L 94.321015 227.936826 
L 94.930047 226.636193 
L 95.133057 226.2243 
L 95.336068 226.180698 
L 95.539079 225.072579 
L 95.9451 224.827981 
L 96.14811 224.411675 
L 96.351121 223.492565 
L 96.554132 223.366764 
L 96.960153 222.509272 
L 97.163163 222.413569 
L 97.569185 221.349483 
L 98.178216 221.073334 
L 98.381227 220.887802 
L 98.787248 220.049341 
L 99.599291 219.712276 
L 100.614344 218.382834 
L 100.817354 218.33034 
L 101.426386 217.772775 
L 101.629397 217.737872 
L 101.832407 217.424115 
L 102.238428 217.119602 
L 102.441439 216.675506 
L 102.84746 216.531691 
L 103.253481 216.367321 
L 103.456492 215.759506 
L 103.862513 215.714595 
L 104.065524 214.940477 
L 104.268534 214.937806 
L 104.877566 214.667911 
L 105.080577 214.657409 
L 105.689608 213.961411 
L 106.09563 213.862025 
L 106.29864 213.347588 
L 106.907672 212.983563 
L 107.516704 212.331838 
L 107.922725 212.103668 
L 108.125736 211.767265 
L 108.937778 211.650976 
L 109.343799 211.429019 
L 109.54681 211.387855 
L 109.952831 211.058528 
L 110.358852 210.948528 
L 110.561863 210.749617 
L 110.764873 210.734003 
L 111.170895 210.573122 
L 111.373905 210.110258 
L 111.779926 210.043004 
L 112.388958 209.614085 
L 112.794979 209.471794 
L 112.99799 209.179827 
L 113.607022 208.904744 
L 114.013043 208.647054 
L 115.028096 208.514669 
L 115.840138 208.083189 
L 116.043149 208.078622 
L 116.246159 207.672728 
L 116.855191 207.527751 
L 117.261212 207.110624 
L 117.667234 207.056774 
L 118.073255 206.849419 
L 118.479276 206.678516 
L 123.35153 204.709859 
L 123.960562 203.969058 
L 124.772604 203.747699 
L 124.975615 203.28621 
L 125.584647 203.191453 
L 125.990668 202.872272 
L 128.629806 201.767534 
L 129.238838 201.664473 
L 129.644859 201.45373 
L 130.862922 201.090454 
L 131.674965 201.004902 
L 131.877975 200.825632 
L 132.487007 200.715263 
L 134.111092 200.272974 
L 134.517113 199.999229 
L 135.126145 199.736679 
L 135.938187 199.629105 
L 143.043558 197.715198 
L 143.65259 197.603332 
L 145.479685 197.134527 
L 146.088717 196.853682 
L 146.900759 196.710253 
L 148.118823 196.400658 
L 148.930865 196.287226 
L 149.336887 196.055597 
L 150.148929 195.964404 
L 154.209141 194.979356 
L 154.818173 194.871008 
L 155.427205 194.524312 
L 156.036236 194.407433 
L 156.645268 194.236097 
L 159.487416 193.891699 
L 160.908491 193.414899 
L 161.517522 193.2974 
L 161.923544 193.118311 
L 163.750639 192.566703 
L 164.15666 192.477837 
L 164.968703 192.342256 
L 165.983756 192.186236 
L 166.592787 191.996849 
L 167.810851 191.767793 
L 168.622893 191.64415 
L 169.637946 191.487271 
L 170.449989 191.374544 
L 170.652999 191.233304 
L 171.871063 191.114928 
L 172.277084 190.931309 
L 172.683105 190.817365 
L 173.089126 190.723725 
L 177.555359 190.04508 
L 177.961381 189.753664 
L 178.570412 189.630299 
L 180.803529 189.279808 
L 181.20955 188.811162 
L 181.818582 188.721582 
L 182.630624 188.593307 
L 183.848688 188.270859 
L 185.878794 187.847694 
L 186.690836 187.635181 
L 187.9089 187.448375 
L 188.923953 187.198728 
L 189.329974 187.072961 
L 190.751048 186.852839 
L 191.36008 186.654497 
L 191.563091 186.648766 
L 191.969112 186.50381 
L 192.578144 186.432134 
L 192.984165 186.216062 
L 193.187175 186.213274 
L 193.390186 185.885005 
L 194.202228 185.735573 
L 196.232334 185.399968 
L 196.841366 185.223099 
L 199.074483 184.831742 
L 199.277493 184.808683 
L 199.683514 184.529094 
L 200.698567 184.44136 
L 201.307599 184.284057 
L 202.119642 184.097606 
L 203.946737 183.88353 
L 205.164801 183.661855 
L 216.533394 181.901418 
L 216.939415 181.809933 
L 218.5635 181.687255 
L 219.172532 181.529753 
L 220.593606 181.331889 
L 221.202638 181.055985 
L 221.405648 181.046359 
L 221.811669 180.904473 
L 225.668871 180.177684 
L 227.292956 179.987 
L 227.901987 179.885113 
L 229.323062 179.662272 
L 229.729083 179.561579 
L 231.962199 179.44199 
L 235.007358 178.968483 
L 235.413379 178.828504 
L 236.428432 178.671778 
L 240.894666 178.311837 
L 241.300687 178.206408 
L 242.31574 178.073903 
L 244.142835 177.544116 
L 245.96993 177.31638 
L 246.375952 177.289814 
L 246.781973 177.065377 
L 247.797026 176.989778 
L 248.812079 176.852833 
L 250.233153 176.725706 
L 257.744545 175.676666 
L 259.36863 175.560879 
L 262.413789 175.02479 
L 262.81981 174.896394 
L 265.864969 174.586499 
L 266.677011 174.525315 
L 267.286043 174.39514 
L 267.895075 174.194959 
L 268.301096 174.116489 
L 268.707117 174.024013 
L 269.113138 173.859999 
L 269.51916 173.722308 
L 271.955287 173.373026 
L 272.767329 173.214043 
L 273.376361 173.088835 
L 276.42152 172.844914 
L 278.857647 172.38831 
L 279.8727 172.295083 
L 280.278721 172.118243 
L 282.105817 171.863581 
L 282.714848 171.594845 
L 284.744954 171.218605 
L 289.820219 170.575669 
L 291.038283 170.487419 
L 294.692474 169.878149 
L 294.895484 169.644493 
L 295.504516 169.57635 
L 296.316558 169.494532 
L 297.128601 169.078476 
L 299.361717 168.865503 
L 299.564728 168.68463 
L 300.17376 168.585164 
L 301.594834 168.347298 
L 303.218919 168.137818 
L 304.436982 168.04633 
L 306.264077 167.567386 
L 306.670099 167.404665 
L 307.07612 167.318059 
L 307.482141 167.179454 
L 308.700205 167.076709 
L 309.106226 166.935373 
L 312.354395 166.486768 
L 313.572459 166.316635 
L 315.196544 166.154139 
L 316.211597 165.979973 
L 316.820628 165.863657 
L 318.850734 165.542577 
L 319.256756 165.442139 
L 320.271809 165.308078 
L 321.083851 165.229148 
L 321.692883 165.099709 
L 322.098904 164.891892 
L 331.234381 163.881896 
L 331.437391 163.736215 
L 332.452444 163.645542 
L 332.858466 163.488861 
L 336.309646 162.90751 
L 336.512656 162.653482 
L 337.933731 162.523131 
L 339.151794 162.272392 
L 339.557815 162.181682 
L 340.369858 161.955028 
L 340.572868 161.786872 
L 344.63308 161.286307 
L 345.039101 161.173962 
L 346.866197 160.933454 
L 347.272218 160.823259 
L 348.287271 160.736579 
L 348.693292 160.612235 
L 351.53544 160.018509 
L 351.941462 159.918395 
L 352.550493 159.810034 
L 352.956515 159.614532 
L 356.001674 159.109893 
L 357.016727 158.959664 
L 357.625758 158.866623 
L 358.843822 158.638784 
L 359.655864 158.480562 
L 360.264896 158.331786 
L 362.904034 157.784934 
L 363.310055 157.599752 
L 363.919087 157.421712 
L 364.122097 157.409444 
L 364.528119 157.250065 
L 366.761235 156.923078 
L 368.994352 156.668206 
L 370.212415 156.345853 
L 372.445532 156.043701 
L 373.460585 155.725434 
L 374.272627 155.579842 
L 376.708754 155.056006 
L 376.911765 155.053913 
L 377.114776 154.789515 
L 377.317786 154.75619 
L 377.520797 154.598219 
L 378.332839 154.428899 
L 378.73886 154.351545 
L 379.347892 154.247478 
L 379.956924 154.175897 
L 381.784019 153.965356 
L 383.611115 153.353359 
L 384.220146 153.108034 
L 386.250252 152.804697 
L 389.295411 152.103045 
L 389.701433 151.953052 
L 392.34057 151.472534 
L 392.746591 151.307375 
L 393.558634 151.19946 
L 394.573687 150.991745 
L 394.776697 150.753737 
L 395.994761 150.613114 
L 396.603793 150.450897 
L 398.024867 150.146494 
L 398.836909 149.785862 
L 401.882068 149.192071 
L 402.288089 149.052142 
L 402.694111 149.011139 
L 403.303142 148.87113 
L 404.318195 148.555605 
L 404.521206 148.345841 
L 405.536259 148.174085 
L 405.94228 147.997174 
L 407.566365 147.613933 
L 407.972386 147.376627 
L 408.175397 147.329283 
L 408.378407 147.160762 
L 408.987439 147.057336 
L 409.596471 146.89983 
L 409.799482 146.68073 
L 410.205503 146.571307 
L 411.220556 146.24162 
L 411.829588 146.15733 
L 412.032598 146.128974 
L 412.438619 145.931803 
L 413.250662 145.775972 
L 414.468725 145.639916 
L 416.09281 145.318505 
L 416.295821 145.31635 
L 416.701842 145.18475 
L 417.919905 145.010472 
L 418.325927 144.767722 
L 418.731948 144.587613 
L 418.934958 144.190935 
L 419.950011 144.065859 
L 420.559043 143.703991 
L 423.604202 142.794068 
L 424.010223 142.711697 
L 424.822266 142.372166 
L 425.837319 142.211234 
L 426.852372 142.038749 
L 427.055382 141.939598 
L 427.258393 141.590571 
L 427.867425 141.405615 
L 428.476456 141.276147 
L 429.491509 140.818889 
L 430.506562 140.519149 
L 431.521615 140.338316 
L 432.130647 140.219593 
L 432.94269 139.970493 
L 433.551721 139.896039 
L 433.957743 139.635896 
L 434.160753 139.202906 
L 435.581827 138.469348 
L 437.002901 138.150259 
L 437.814944 137.770081 
L 438.626986 137.449728 
L 438.829997 137.194266 
L 439.236018 137.158245 
L 439.642039 136.736083 
L 440.454082 136.510096 
L 440.657092 136.171499 
L 441.672145 135.793657 
L 442.687198 135.672663 
L 442.890209 135.641172 
L 443.29623 135.412066 
L 443.905262 135.307363 
L 444.311283 134.97021 
L 444.717304 134.868024 
L 444.920315 134.83539 
L 445.326336 134.521406 
L 446.138378 134.153665 
L 446.950421 133.810889 
L 448.168484 133.654755 
L 448.371495 133.453334 
L 449.386548 133.231688 
L 449.792569 133.114948 
L 450.401601 132.98949 
L 451.822675 132.356473 
L 452.025686 132.049906 
L 453.243749 131.723111 
L 453.64977 131.538747 
L 454.258802 131.42105 
L 454.867834 131.1606 
L 455.070845 130.888114 
L 455.273855 130.864954 
L 456.085897 130.367076 
L 456.694929 130.092111 
L 456.89794 129.845036 
L 457.709982 129.596349 
L 458.319014 129.376696 
L 458.725035 129.33962 
L 459.131056 128.813075 
L 459.334067 128.790561 
L 460.552131 127.975263 
L 460.755141 127.971813 
L 460.958152 127.652737 
L 461.567184 127.454622 
L 461.973205 127.178987 
L 462.176215 126.706269 
L 462.988258 126.104119 
L 463.394279 125.476097 
L 463.59729 125.464832 
L 463.8003 125.235689 
L 465.018364 124.839109 
L 465.424385 124.690358 
L 465.830406 124.602793 
L 466.236427 124.290295 
L 466.642448 124.117603 
L 468.266533 123.628909 
L 468.469544 123.502003 
L 468.672554 122.252513 
L 468.875565 122.200444 
L 469.281586 121.916687 
L 469.687607 121.870502 
L 470.296639 121.345026 
L 472.123735 120.653183 
L 472.326745 120.196246 
L 473.747819 119.733027 
L 474.153841 119.158878 
L 474.559862 118.949412 
L 474.965883 118.785246 
L 475.371904 118.189402 
L 475.574915 118.121737 
L 475.777925 117.282813 
L 476.183947 117.151223 
L 476.386957 116.521969 
L 476.589968 116.32974 
L 476.995989 116.227044 
L 478.011042 115.744553 
L 479.026095 114.944013 
L 479.635127 114.115074 
L 479.838137 113.048597 
L 480.244158 112.904097 
L 480.447169 112.190325 
L 480.65018 112.079519 
L 480.85319 111.55227 
L 481.056201 111.390293 
L 482.274264 109.193163 
L 482.680286 108.594664 
L 482.883296 108.582197 
L 483.086307 108.278725 
L 483.289317 108.257208 
L 483.492328 107.982723 
L 483.898349 106.805714 
L 484.30437 106.196285 
L 484.507381 106.162987 
L 485.522434 105.09666 
L 485.725445 105.083941 
L 486.131466 104.266836 
L 486.537487 102.013988 
L 486.740498 101.942798 
L 486.943508 101.539864 
L 487.146519 101.45893 
L 487.55254 100.146901 
L 487.958561 99.731803 
L 488.364582 98.652162 
L 489.785656 97.248772 
L 489.988667 96.317419 
L 490.191678 96.293578 
L 490.394688 95.857783 
L 490.597699 95.83978 
L 491.00372 94.991011 
L 491.815762 91.666815 
L 492.018773 90.187019 
L 492.221784 89.7044 
L 492.627805 88.062871 
L 492.830815 87.584422 
L 493.236837 85.167117 
L 493.642858 84.531904 
L 493.845868 82.622227 
L 494.048879 82.146249 
L 494.25189 82.103089 
L 494.657911 81.655852 
L 494.860921 78.509858 
L 495.063932 78.142317 
L 495.266943 77.355388 
L 495.672964 71.391584 
L 495.875974 70.173143 
L 496.281996 61.186691 
L 496.485006 60.935155 
L 497.094038 59.236712 
L 497.297049 56.308788 
L 497.500059 56.141433 
L 497.70307 47.954752 
L 497.90608 45.417099 
L 498.109091 44.64 
L 498.109091 44.64 
" style="fill:none;stroke:#2ca02c;stroke-linecap:square;stroke-width:1.5;"/>
   </g>
   <g id="line2d_17">
    <path clip-path="url(#p93594bd629)" d="M 92.290909 213.88912 
L 92.49392 212.609912 
L 92.69693 205.755784 
L 92.899941 204.211255 
L 93.102951 203.54435 
L 93.305962 201.864342 
L 93.508973 201.797907 
L 93.711983 201.07534 
L 93.914994 201.07316 
L 94.118004 200.198444 
L 94.524026 199.796253 
L 94.727036 199.700853 
L 94.930047 199.009226 
L 95.336068 198.891748 
L 95.742089 196.770398 
L 96.14811 196.316075 
L 96.351121 195.683449 
L 96.757142 195.585652 
L 97.569185 194.454148 
L 97.772195 194.449822 
L 98.381227 193.922791 
L 98.990259 193.288784 
L 99.193269 192.680615 
L 99.802301 192.58302 
L 100.411333 191.451579 
L 100.614344 191.407526 
L 101.223375 190.902462 
L 101.629397 190.833241 
L 102.035418 190.502813 
L 102.441439 190.365186 
L 102.644449 190.339318 
L 103.050471 189.882903 
L 103.456492 189.851519 
L 104.268534 189.293029 
L 104.674555 189.040042 
L 105.080577 188.855647 
L 105.689608 188.552676 
L 106.09563 188.231722 
L 106.29864 188.181429 
L 107.110683 187.425033 
L 107.922725 187.315524 
L 108.328746 186.99519 
L 108.531757 186.970746 
L 108.734767 186.824096 
L 109.140789 186.741973 
L 109.343799 186.2716 
L 109.952831 186.132734 
L 110.967884 185.479804 
L 111.373905 185.305618 
L 111.982937 185.116386 
L 112.185948 185.112889 
L 112.388958 184.822979 
L 113.810032 184.675766 
L 114.013043 184.644345 
L 114.216053 184.450192 
L 115.231106 184.158032 
L 115.840138 183.833569 
L 116.246159 183.730045 
L 125.178626 181.517047 
L 126.5997 181.288615 
L 127.208732 181.160123 
L 127.411742 181.159984 
L 127.817763 181.033737 
L 129.238838 180.723357 
L 132.487007 180.163967 
L 134.314103 179.936977 
L 135.126145 179.742912 
L 136.95324 179.526803 
L 138.171304 179.402209 
L 139.186357 179.28253 
L 139.795389 179.098572 
L 140.810442 179.006814 
L 141.419473 178.802427 
L 142.840548 178.679792 
L 145.479685 178.213693 
L 146.494738 178.095019 
L 147.509791 177.851828 
L 148.321834 177.613982 
L 149.133876 177.525716 
L 149.539897 177.407995 
L 150.757961 177.302655 
L 153.397099 176.97234 
L 153.80312 176.857796 
L 155.021183 176.766846 
L 155.427205 176.610943 
L 161.517522 175.708931 
L 164.562681 175.370314 
L 165.171713 175.051127 
L 166.389777 174.898817 
L 169.231925 174.587832 
L 169.637946 174.454681 
L 171.262031 174.118889 
L 172.683105 174.046345 
L 173.292137 173.93771 
L 175.931275 173.608183 
L 177.75837 173.491509 
L 179.179444 173.333267 
L 180.194497 173.217025 
L 182.427614 172.884217 
L 184.051699 172.763161 
L 186.487826 172.548347 
L 186.893847 172.480072 
L 187.299868 172.379392 
L 188.720942 172.278251 
L 190.548038 172.061856 
L 191.563091 171.95039 
L 192.578144 171.759143 
L 193.999218 171.671853 
L 194.405239 171.516622 
L 195.217281 171.447106 
L 195.623303 171.33423 
L 197.450398 171.12978 
L 198.668462 171.016815 
L 200.495557 170.810384 
L 207.397917 170.188661 
L 208.615981 170.141483 
L 209.022002 170.052719 
L 209.834044 169.974366 
L 210.849097 169.904824 
L 211.255118 169.816172 
L 212.879203 169.672932 
L 213.894256 169.461266 
L 215.31533 169.228386 
L 224.856828 168.373802 
L 225.46586 168.303425 
L 226.074892 168.21463 
L 227.292956 168.042985 
L 228.104998 167.967406 
L 230.541125 167.681312 
L 230.947146 167.60804 
L 232.16521 167.496242 
L 232.774242 167.42471 
L 234.601337 167.286072 
L 235.007358 167.179144 
L 240.285634 166.905911 
L 240.894666 166.838695 
L 247.797026 166.13862 
L 250.842185 165.902177 
L 251.654227 165.816428 
L 253.075301 165.733957 
L 253.684333 165.636304 
L 254.699386 165.51961 
L 270.331202 163.976727 
L 271.143244 163.818575 
L 272.361308 163.556475 
L 272.97034 163.479172 
L 273.985393 163.275935 
L 276.42152 162.91293 
L 277.233562 162.84882 
L 288.196134 161.915483 
L 289.211187 161.798951 
L 289.820219 161.720798 
L 290.632262 161.641767 
L 292.256346 161.51178 
L 294.286452 161.308688 
L 296.92559 161.173364 
L 298.143654 160.980572 
L 299.361717 160.861777 
L 300.579781 160.660183 
L 306.873109 160.195518 
L 307.27913 160.082752 
L 309.309236 159.955393 
L 310.324289 159.770943 
L 318.241703 159.072668 
L 318.647724 158.919359 
L 319.459766 158.821941 
L 320.474819 158.748887 
L 321.489872 158.633182 
L 322.504925 158.545403 
L 323.925999 158.431913 
L 329.001264 157.874983 
L 338.745773 156.968445 
L 340.369858 156.701605 
L 342.196953 156.497304 
L 344.227059 156.27978 
L 346.054154 156.17647 
L 349.911356 155.850088 
L 352.550493 155.664445 
L 352.956515 155.581294 
L 359.249843 154.948759 
L 359.655864 154.80545 
L 360.467907 154.742742 
L 365.746182 154.262013 
L 366.152203 154.181784 
L 370.821447 153.792676 
L 371.430479 153.704365 
L 373.460585 153.52849 
L 373.866606 153.35594 
L 376.911765 153.114393 
L 377.723807 152.960453 
L 392.13756 151.425066 
L 392.543581 151.354252 
L 395.58874 151.072218 
L 395.994761 150.968902 
L 398.430888 150.747231 
L 399.03992 150.641645 
L 400.867015 150.492226 
L 401.273037 150.413804 
L 405.73927 150.037052 
L 406.145291 149.906174 
L 407.363354 149.784968 
L 407.972386 149.692478 
L 409.39346 149.604627 
L 410.205503 149.431402 
L 411.829588 149.27507 
L 412.235609 149.09748 
L 413.047651 148.975891 
L 413.453672 148.863161 
L 421.777107 147.831787 
L 422.183128 147.699348 
L 424.416244 147.374804 
L 424.822266 147.234678 
L 425.837319 147.129593 
L 426.24334 146.944488 
L 427.258393 146.907939 
L 429.491509 146.758792 
L 430.303552 146.615853 
L 430.709573 146.481076 
L 431.318605 146.309177 
L 436.59688 145.695309 
L 437.611933 145.587868 
L 438.220965 145.514401 
L 439.439029 145.370436 
L 441.063113 144.951714 
L 441.469135 144.830229 
L 442.281177 144.684187 
L 442.687198 144.641159 
L 443.093219 144.519202 
L 446.341389 143.918853 
L 446.74741 143.834791 
L 446.950421 143.800417 
L 447.356442 143.617944 
L 448.574505 143.367107 
L 448.980527 143.225105 
L 450.401601 143.12648 
L 451.010633 142.996307 
L 451.213643 142.800875 
L 452.228696 142.707901 
L 452.837728 142.57332 
L 453.44676 142.47857 
L 454.461813 142.282078 
L 456.694929 142.046128 
L 457.303961 141.681998 
L 458.522025 141.434282 
L 458.928046 141.335594 
L 459.131056 141.334123 
L 459.537078 141.145586 
L 462.176215 140.648779 
L 462.582237 140.488897 
L 463.394279 140.35679 
L 464.206321 140.259306 
L 465.018364 140.136755 
L 465.221374 140.135069 
L 465.627396 139.934273 
L 467.860512 139.40097 
L 469.484597 138.786393 
L 471.514703 138.396456 
L 471.920724 138.095192 
L 472.123735 137.930308 
L 472.529756 137.795693 
L 472.935777 137.707381 
L 473.138788 137.670382 
L 473.341798 137.392421 
L 475.371904 137.128735 
L 475.574915 137.084406 
L 475.777925 136.900878 
L 476.386957 136.7862 
L 476.792978 136.597936 
L 480.244158 135.347406 
L 480.65018 135.286338 
L 480.85319 135.017349 
L 481.665233 134.933908 
L 482.680286 134.57012 
L 483.086307 134.550085 
L 483.898349 134.097204 
L 484.10136 134.07496 
L 484.30437 133.605723 
L 484.710392 133.524148 
L 484.913402 132.80631 
L 485.522434 132.515075 
L 485.928455 132.346279 
L 486.131466 132.292306 
L 486.334476 131.811217 
L 486.537487 131.803895 
L 486.740498 131.554757 
L 487.349529 131.490597 
L 487.55254 131.118411 
L 487.958561 131.078264 
L 488.161572 130.788693 
L 488.567593 130.669676 
L 488.973614 130.524592 
L 489.176625 129.791441 
L 489.379635 129.716237 
L 489.988667 129.168628 
L 491.00372 128.864603 
L 491.206731 128.487875 
L 491.409741 128.476621 
L 491.815762 128.130495 
L 492.627805 127.842766 
L 492.830815 127.640759 
L 493.236837 126.573824 
L 493.439847 126.21253 
L 493.642858 126.126672 
L 493.845868 125.008939 
L 494.25189 124.82998 
L 494.4549 124.506968 
L 494.657911 123.72202 
L 494.860921 123.491988 
L 495.266943 122.891535 
L 495.672964 122.622885 
L 495.875974 122.087169 
L 496.078985 121.117095 
L 496.485006 120.63057 
L 496.688017 120.564712 
L 496.891027 120.227255 
L 497.500059 112.617296 
L 497.90608 110.01583 
L 498.109091 109.082591 
L 498.109091 109.082591 
" style="fill:none;stroke:#d62728;stroke-linecap:square;stroke-width:1.5;"/>
   </g>
   <g id="patch_3">
    <path d="M 72 256.32 
L 72 34.56 
" style="fill:none;stroke:#000000;stroke-linecap:square;stroke-linejoin:miter;stroke-width:0.8;"/>
   </g>
   <g id="patch_4">
    <path d="M 518.4 256.32 
L 518.4 34.56 
" style="fill:none;stroke:#000000;stroke-linecap:square;stroke-linejoin:miter;stroke-width:0.8;"/>
   </g>
   <g id="patch_5">
    <path d="M 72 256.32 
L 518.4 256.32 
" style="fill:none;stroke:#000000;stroke-linecap:square;stroke-linejoin:miter;stroke-width:0.8;"/>
   </g>
   <g id="patch_6">
    <path d="M 72 34.56 
L 518.4 34.56 
" style="fill:none;stroke:#000000;stroke-linecap:square;stroke-linejoin:miter;stroke-width:0.8;"/>
   </g>
   <g id="legend_1">
    <g id="patch_7">
     <path d="M 79 101.613125 
L 337.392187 101.613125 
Q 339.392187 101.613125 339.392187 99.613125 
L 339.392187 41.56 
Q 339.392187 39.56 337.392187 39.56 
L 79 39.56 
Q 77 39.56 77 41.56 
L 77 99.613125 
Q 77 101.613125 79 101.613125 
z
" style="fill:#ffffff;opacity:0.8;stroke:#cccccc;stroke-linejoin:miter;"/>
    </g>
    <g id="line2d_18">
     <path d="M 81 47.82875 
L 101 47.82875 
" style="fill:none;stroke:#1f77b4;stroke-linecap:square;stroke-width:1.5;"/>
    </g>
    <g id="line2d_19"/>
    <g id="text_16">
     <!-- без довложений и ребалансировок -->
     <defs>
      <path d="M 31.109375 56 
Q 42.828125 56 49.515625 48.375 
Q 56.203125 40.765625 56.203125 27.296875 
Q 56.203125 13.875 49.515625 6.21875 
Q 42.828125 -1.421875 31.109375 -1.421875 
Q 19.34375 -1.421875 12.84375 6 
Q 6.34375 13.421875 6 27.296875 
L 5.71875 38.484375 
Q 5.46875 44.28125 5.46875 46.296875 
Q 5.46875 54.109375 8.296875 59.859375 
Q 12.75 68.890625 20.4375 72.796875 
Q 28.125 76.703125 41.015625 76.8125 
Q 46.96875 76.859375 49.609375 77.6875 
L 52.09375 70.5625 
Q 49.703125 69.578125 47.515625 69.53125 
L 35.296875 68.703125 
Q 29.15625 68.265625 25.4375 66.109375 
Q 15.71875 60.40625 14.796875 52.9375 
L 14.453125 50.203125 
Q 20.796875 56 31.109375 56 
z
M 31.109375 48.390625 
Q 23.875 48.390625 19.671875 42.75 
Q 15.484375 37.109375 15.484375 27.296875 
Q 15.484375 17.484375 19.65625 11.84375 
Q 23.828125 6.203125 31.109375 6.203125 
Q 38.28125 6.203125 42.484375 11.859375 
Q 46.6875 17.53125 46.6875 27.296875 
Q 46.6875 37.015625 42.484375 42.703125 
Q 38.28125 48.390625 31.109375 48.390625 
z
" id="DejaVuSans-1073"/>
      <path d="M 34.46875 29.5 
Q 40.53125 28.328125 43.890625 24.75 
Q 47.265625 21.1875 47.265625 15.921875 
Q 47.265625 7.46875 40.96875 3.015625 
Q 34.671875 -1.421875 23.046875 -1.421875 
Q 19.140625 -1.421875 15.015625 -0.734375 
Q 10.890625 -0.046875 6.5 1.3125 
L 6.5 9.671875 
Q 9.96875 7.859375 14.109375 6.953125 
Q 18.265625 6.0625 22.796875 6.0625 
Q 30.171875 6.0625 34.296875 8.796875 
Q 38.421875 11.53125 38.421875 15.921875 
Q 38.421875 20.21875 34.765625 22.828125 
Q 31.109375 25.4375 24.421875 25.4375 
L 17.1875 25.4375 
L 17.1875 32.859375 
L 24.75 32.859375 
Q 30.421875 32.859375 33.71875 35.03125 
Q 37.015625 37.203125 37.015625 40.625 
Q 37.015625 43.75 33.609375 46 
Q 30.21875 48.25 24.421875 48.25 
Q 20.953125 48.25 17.015625 47.609375 
Q 13.09375 46.96875 8.34375 45.5625 
L 8.34375 53.71875 
Q 13.140625 54.890625 17.28125 55.46875 
Q 21.4375 56.0625 25.140625 56.0625 
Q 34.71875 56.0625 40.25 52.21875 
Q 45.796875 48.390625 45.796875 41.5 
Q 45.796875 36.96875 42.859375 33.8125 
Q 39.9375 30.671875 34.46875 29.5 
z
" id="DejaVuSans-1079"/>
      <path d="M 18.0625 25.203125 
L 18.0625 7.171875 
L 30.859375 7.171875 
Q 37.015625 7.171875 40.234375 9.484375 
Q 43.453125 11.8125 43.453125 16.21875 
Q 43.453125 20.609375 40.234375 22.90625 
Q 37.015625 25.203125 30.859375 25.203125 
z
M 18.0625 47.515625 
L 18.0625 32.375 
L 29.890625 32.375 
Q 34.96875 32.375 38.1875 34.390625 
Q 41.40625 36.421875 41.40625 40.046875 
Q 41.40625 43.65625 38.1875 45.578125 
Q 34.96875 47.515625 29.890625 47.515625 
z
M 9.078125 54.6875 
L 30.46875 54.6875 
Q 40.09375 54.6875 45.265625 51.171875 
Q 50.4375 47.65625 50.4375 41.15625 
Q 50.4375 36.140625 47.796875 33.171875 
Q 45.171875 30.21875 39.984375 29.5 
Q 46.1875 28.328125 49.609375 24.609375 
Q 53.03125 20.90625 53.03125 15.328125 
Q 53.03125 8.015625 47.390625 4 
Q 41.75 0 31.296875 0 
L 9.078125 0 
z
" id="DejaVuSans-1074"/>
      <path d="M 40.578125 54.6875 
L 49.515625 54.6875 
L 49.515625 29 
L 73.390625 54.6875 
L 83.84375 54.6875 
L 64.203125 33.640625 
L 86.671875 0 
L 77.046875 0 
L 58.640625 27.640625 
L 49.515625 17.828125 
L 49.515625 0 
L 40.578125 0 
L 40.578125 17.828125 
L 31.453125 27.640625 
L 13.03125 0 
L 3.421875 0 
L 25.875 33.640625 
L 6.25 54.6875 
L 16.703125 54.6875 
L 40.578125 29 
z
" id="DejaVuSans-1078"/>
      <path d="M 55.90625 54.6875 
L 55.90625 0 
L 46.96875 0 
L 46.96875 43.890625 
L 20.609375 0 
L 9.078125 0 
L 9.078125 54.6875 
L 18.015625 54.6875 
L 18.015625 10.890625 
L 44.34375 54.6875 
z
" id="DejaVuSans-1080"/>
      <path d="M 34.28125 27.484375 
Q 23.390625 27.484375 19.1875 25 
Q 14.984375 22.515625 14.984375 16.5 
Q 14.984375 11.71875 18.140625 8.90625 
Q 21.296875 6.109375 26.703125 6.109375 
Q 34.1875 6.109375 38.703125 11.40625 
Q 43.21875 16.703125 43.21875 25.484375 
L 43.21875 27.484375 
z
M 52.203125 31.203125 
L 52.203125 0 
L 43.21875 0 
L 43.21875 8.296875 
Q 40.140625 3.328125 35.546875 0.953125 
Q 30.953125 -1.421875 24.3125 -1.421875 
Q 15.921875 -1.421875 10.953125 3.296875 
Q 6 8.015625 6 15.921875 
Q 6 25.140625 12.171875 29.828125 
Q 18.359375 34.515625 30.609375 34.515625 
L 43.21875 34.515625 
L 43.21875 35.40625 
Q 43.21875 41.609375 39.140625 45 
Q 35.0625 48.390625 27.6875 48.390625 
Q 23 48.390625 18.546875 47.265625 
Q 14.109375 46.140625 10.015625 43.890625 
L 10.015625 52.203125 
Q 14.9375 54.109375 19.578125 55.046875 
Q 24.21875 56 28.609375 56 
Q 40.484375 56 46.34375 49.84375 
Q 52.203125 43.703125 52.203125 31.203125 
z
" id="DejaVuSans-1072"/>
      <path d="M 9.078125 54.6875 
L 18.015625 54.6875 
L 18.015625 29 
L 43.359375 54.6875 
L 54.390625 54.6875 
L 33.5 33.546875 
L 57.078125 0 
L 47.015625 0 
L 27.640625 27.59375 
L 18.015625 17.828125 
L 18.015625 0 
L 9.078125 0 
z
" id="DejaVuSans-1082"/>
     </defs>
     <g transform="translate(109 51.32875)scale(0.1 -0.1)">
      <use xlink:href="#DejaVuSans-1073"/>
      <use x="61.669922" xlink:href="#DejaVuSans-1077"/>
      <use x="123.193359" xlink:href="#DejaVuSans-1079"/>
      <use x="176.367188" xlink:href="#DejaVuSans-32"/>
      <use x="208.154297" xlink:href="#DejaVuSans-1076"/>
      <use x="277.294922" xlink:href="#DejaVuSans-1086"/>
      <use x="338.476562" xlink:href="#DejaVuSans-1074"/>
      <use x="397.412109" xlink:href="#DejaVuSans-1083"/>
      <use x="461.328125" xlink:href="#DejaVuSans-1086"/>
      <use x="522.509766" xlink:href="#DejaVuSans-1078"/>
      <use x="612.597656" xlink:href="#DejaVuSans-1077"/>
      <use x="674.121094" xlink:href="#DejaVuSans-1085"/>
      <use x="739.501953" xlink:href="#DejaVuSans-1080"/>
      <use x="804.492188" xlink:href="#DejaVuSans-1081"/>
      <use x="869.482422" xlink:href="#DejaVuSans-32"/>
      <use x="901.269531" xlink:href="#DejaVuSans-1080"/>
      <use x="966.259766" xlink:href="#DejaVuSans-32"/>
      <use x="998.046875" xlink:href="#DejaVuSans-1088"/>
      <use x="1061.523438" xlink:href="#DejaVuSans-1077"/>
      <use x="1123.046875" xlink:href="#DejaVuSans-1073"/>
      <use x="1184.716797" xlink:href="#DejaVuSans-1072"/>
      <use x="1245.996094" xlink:href="#DejaVuSans-1083"/>
      <use x="1309.912109" xlink:href="#DejaVuSans-1072"/>
      <use x="1371.191406" xlink:href="#DejaVuSans-1085"/>
      <use x="1436.572266" xlink:href="#DejaVuSans-1089"/>
      <use x="1491.552734" xlink:href="#DejaVuSans-1080"/>
      <use x="1556.542969" xlink:href="#DejaVuSans-1088"/>
      <use x="1620.019531" xlink:href="#DejaVuSans-1086"/>
      <use x="1681.201172" xlink:href="#DejaVuSans-1074"/>
      <use x="1740.136719" xlink:href="#DejaVuSans-1086"/>
      <use x="1801.318359" xlink:href="#DejaVuSans-1082"/>
     </g>
    </g>
    <g id="line2d_20">
     <path d="M 81 62.506875 
L 101 62.506875 
" style="fill:none;stroke:#ff7f0e;stroke-linecap:square;stroke-width:1.5;"/>
    </g>
    <g id="line2d_21"/>
    <g id="text_17">
     <!-- докупка на равную сумму -->
     <defs>
      <path d="M 32.171875 -5.078125 
Q 28.375 -14.84375 24.75 -17.8125 
Q 21.140625 -20.796875 15.09375 -20.796875 
L 7.90625 -20.796875 
L 7.90625 -13.28125 
L 13.1875 -13.28125 
Q 16.890625 -13.28125 18.9375 -11.515625 
Q 21 -9.765625 23.484375 -3.21875 
L 25.09375 0.875 
L 2.984375 54.6875 
L 12.5 54.6875 
L 29.59375 11.921875 
L 46.6875 54.6875 
L 56.203125 54.6875 
z
" id="DejaVuSans-1091"/>
      <path d="M 53.609375 48.390625 
Q 46.390625 48.390625 42.1875 42.75 
Q 37.984375 37.109375 37.984375 27.296875 
Q 37.984375 17.484375 42.15625 11.84375 
Q 46.34375 6.203125 53.609375 6.203125 
Q 60.796875 6.203125 64.984375 11.859375 
Q 69.1875 17.53125 69.1875 27.296875 
Q 69.1875 37.015625 64.984375 42.703125 
Q 60.796875 48.390625 53.609375 48.390625 
z
M 28.8125 32.859375 
Q 29.734375 42.140625 35.8125 49.0625 
Q 41.890625 56 53.609375 56 
Q 65.328125 56 72.015625 48.375 
Q 78.71875 40.765625 78.71875 27.296875 
Q 78.71875 13.875 72.015625 6.21875 
Q 65.328125 -1.421875 53.609375 -1.421875 
Q 41.84375 -1.421875 35.421875 5.953125 
Q 29 13.328125 28.5625 25.4375 
L 18.40625 25.4375 
L 18.40625 0 
L 9.421875 0 
L 9.421875 54.6875 
L 18.40625 54.6875 
L 18.40625 32.859375 
z
" id="DejaVuSans-1102"/>
      <path d="M 9.078125 54.6875 
L 22.21875 54.6875 
L 37.75 18.0625 
L 53.328125 54.6875 
L 66.359375 54.6875 
L 66.359375 0 
L 57.328125 0 
L 57.328125 46.09375 
L 42.234375 10.5 
L 33.25 10.5 
L 18.109375 46.09375 
L 18.109375 0 
L 9.078125 0 
z
" id="DejaVuSans-1084"/>
     </defs>
     <g transform="translate(109 66.006875)scale(0.1 -0.1)">
      <use xlink:href="#DejaVuSans-1076"/>
      <use x="69.140625" xlink:href="#DejaVuSans-1086"/>
      <use x="130.322266" xlink:href="#DejaVuSans-1082"/>
      <use x="190.722656" xlink:href="#DejaVuSans-1091"/>
      <use x="249.902344" xlink:href="#DejaVuSans-1087"/>
      <use x="315.283203" xlink:href="#DejaVuSans-1082"/>
      <use x="375.683594" xlink:href="#DejaVuSans-1072"/>
      <use x="436.962891" xlink:href="#DejaVuSans-32"/>
      <use x="468.75" xlink:href="#DejaVuSans-1085"/>
      <use x="534.130859" xlink:href="#DejaVuSans-1072"/>
      <use x="595.410156" xlink:href="#DejaVuSans-32"/>
      <use x="627.197266" xlink:href="#DejaVuSans-1088"/>
      <use x="690.673828" xlink:href="#DejaVuSans-1072"/>
      <use x="751.953125" xlink:href="#DejaVuSans-1074"/>
      <use x="810.888672" xlink:href="#DejaVuSans-1085"/>
      <use x="876.269531" xlink:href="#DejaVuSans-1091"/>
      <use x="935.449219" xlink:href="#DejaVuSans-1102"/>
      <use x="1019.628906" xlink:href="#DejaVuSans-32"/>
      <use x="1051.416016" xlink:href="#DejaVuSans-1089"/>
      <use x="1106.396484" xlink:href="#DejaVuSans-1091"/>
      <use x="1165.576172" xlink:href="#DejaVuSans-1084"/>
      <use x="1241.015625" xlink:href="#DejaVuSans-1084"/>
      <use x="1316.455078" xlink:href="#DejaVuSans-1091"/>
     </g>
    </g>
    <g id="line2d_22">
     <path d="M 81 77.185 
L 101 77.185 
" style="fill:none;stroke:#2ca02c;stroke-linecap:square;stroke-width:1.5;"/>
    </g>
    <g id="line2d_23"/>
    <g id="text_18">
     <!-- докупка пропорционально капитализации -->
     <defs>
      <path d="M 56.296875 0 
L 9.078125 0 
L 9.078125 54.6875 
L 18.109375 54.6875 
L 18.109375 7.171875 
L 47.265625 7.171875 
L 47.265625 54.6875 
L 56.296875 54.6875 
L 56.296875 7.171875 
L 63.484375 7.171875 
L 63.484375 -13.8125 
L 56.296875 -13.8125 
z
" id="DejaVuSans-1094"/>
     </defs>
     <g transform="translate(109 80.685)scale(0.1 -0.1)">
      <use xlink:href="#DejaVuSans-1076"/>
      <use x="69.140625" xlink:href="#DejaVuSans-1086"/>
      <use x="130.322266" xlink:href="#DejaVuSans-1082"/>
      <use x="190.722656" xlink:href="#DejaVuSans-1091"/>
      <use x="249.902344" xlink:href="#DejaVuSans-1087"/>
      <use x="315.283203" xlink:href="#DejaVuSans-1082"/>
      <use x="375.683594" xlink:href="#DejaVuSans-1072"/>
      <use x="436.962891" xlink:href="#DejaVuSans-32"/>
      <use x="468.75" xlink:href="#DejaVuSans-1087"/>
      <use x="534.130859" xlink:href="#DejaVuSans-1088"/>
      <use x="597.607422" xlink:href="#DejaVuSans-1086"/>
      <use x="658.789062" xlink:href="#DejaVuSans-1087"/>
      <use x="724.169922" xlink:href="#DejaVuSans-1086"/>
      <use x="785.351562" xlink:href="#DejaVuSans-1088"/>
      <use x="848.828125" xlink:href="#DejaVuSans-1094"/>
      <use x="916.894531" xlink:href="#DejaVuSans-1080"/>
      <use x="981.884766" xlink:href="#DejaVuSans-1086"/>
      <use x="1043.066406" xlink:href="#DejaVuSans-1085"/>
      <use x="1108.447266" xlink:href="#DejaVuSans-1072"/>
      <use x="1169.726562" xlink:href="#DejaVuSans-1083"/>
      <use x="1233.642578" xlink:href="#DejaVuSans-1100"/>
      <use x="1292.578125" xlink:href="#DejaVuSans-1085"/>
      <use x="1357.958984" xlink:href="#DejaVuSans-1086"/>
      <use x="1419.140625" xlink:href="#DejaVuSans-32"/>
      <use x="1450.927734" xlink:href="#DejaVuSans-1082"/>
      <use x="1511.328125" xlink:href="#DejaVuSans-1072"/>
      <use x="1572.607422" xlink:href="#DejaVuSans-1087"/>
      <use x="1637.988281" xlink:href="#DejaVuSans-1080"/>
      <use x="1702.978516" xlink:href="#DejaVuSans-1090"/>
      <use x="1761.230469" xlink:href="#DejaVuSans-1072"/>
      <use x="1822.509766" xlink:href="#DejaVuSans-1083"/>
      <use x="1886.425781" xlink:href="#DejaVuSans-1080"/>
      <use x="1951.416016" xlink:href="#DejaVuSans-1079"/>
      <use x="2004.589844" xlink:href="#DejaVuSans-1072"/>
      <use x="2065.869141" xlink:href="#DejaVuSans-1094"/>
      <use x="2133.935547" xlink:href="#DejaVuSans-1080"/>
      <use x="2198.925781" xlink:href="#DejaVuSans-1080"/>
     </g>
    </g>
    <g id="line2d_24">
     <path d="M 81 92.033438 
L 101 92.033438 
" style="fill:none;stroke:#d62728;stroke-linecap:square;stroke-width:1.5;"/>
    </g>
    <g id="line2d_25"/>
    <g id="text_19">
     <!-- довложение с ребалансировкой -->
     <g transform="translate(109 95.533438)scale(0.1 -0.1)">
      <use xlink:href="#DejaVuSans-1076"/>
      <use x="69.140625" xlink:href="#DejaVuSans-1086"/>
      <use x="130.322266" xlink:href="#DejaVuSans-1074"/>
      <use x="189.257812" xlink:href="#DejaVuSans-1083"/>
      <use x="253.173828" xlink:href="#DejaVuSans-1086"/>
      <use x="314.355469" xlink:href="#DejaVuSans-1078"/>
      <use x="404.443359" xlink:href="#DejaVuSans-1077"/>
      <use x="465.966797" xlink:href="#DejaVuSans-1085"/>
      <use x="531.347656" xlink:href="#DejaVuSans-1080"/>
      <use x="596.337891" xlink:href="#DejaVuSans-1077"/>
      <use x="657.861328" xlink:href="#DejaVuSans-32"/>
      <use x="689.648438" xlink:href="#DejaVuSans-1089"/>
      <use x="744.628906" xlink:href="#DejaVuSans-32"/>
      <use x="776.416016" xlink:href="#DejaVuSans-1088"/>
      <use x="839.892578" xlink:href="#DejaVuSans-1077"/>
      <use x="901.416016" xlink:href="#DejaVuSans-1073"/>
      <use x="963.085938" xlink:href="#DejaVuSans-1072"/>
      <use x="1024.365234" xlink:href="#DejaVuSans-1083"/>
      <use x="1088.28125" xlink:href="#DejaVuSans-1072"/>
      <use x="1149.560547" xlink:href="#DejaVuSans-1085"/>
      <use x="1214.941406" xlink:href="#DejaVuSans-1089"/>
      <use x="1269.921875" xlink:href="#DejaVuSans-1080"/>
      <use x="1334.912109" xlink:href="#DejaVuSans-1088"/>
      <use x="1398.388672" xlink:href="#DejaVuSans-1086"/>
      <use x="1459.570312" xlink:href="#DejaVuSans-1074"/>
      <use x="1518.505859" xlink:href="#DejaVuSans-1082"/>
      <use x="1578.90625" xlink:href="#DejaVuSans-1086"/>
      <use x="1640.087891" xlink:href="#DejaVuSans-1081"/>
     </g>
    </g>
   </g>
  </g>
 </g>
 <defs>
  <clipPath id="p93594bd629">
   <rect height="221.76" width="446.4" x="72" y="34.56"/>
  </clipPath>
 </defs>
</svg>
