<?xml version="1.0" encoding="utf-8" standalone="no"?>
<!DOCTYPE svg PUBLIC "-//W3C//DTD SVG 1.1//EN"
  "http://www.w3.org/Graphics/SVG/1.1/DTD/svg11.dtd">
<!-- Created with matplotlib (https://matplotlib.org/) -->
<svg height="288pt" version="1.1" viewBox="0 0 576 288" width="576pt" xmlns="http://www.w3.org/2000/svg" xmlns:xlink="http://www.w3.org/1999/xlink">
 <defs>
  <style type="text/css">
*{stroke-linecap:butt;stroke-linejoin:round;}
  </style>
 </defs>
 <g id="figure_1">
  <g id="patch_1">
   <path d="M 0 288 
L 576 288 
L 576 0 
L 0 0 
z
" style="fill:#ffffff;"/>
  </g>
  <g id="axes_1">
   <g id="patch_2">
    <path d="M 72 256.32 
L 518.4 256.32 
L 518.4 34.56 
L 72 34.56 
z
" style="fill:#ffffff;"/>
   </g>
   <g id="matplotlib.axis_1">
    <g id="xtick_1">
     <g id="line2d_1">
      <defs>
       <path d="M 0 0 
L 0 3.5 
" id="mff4dbae046" style="stroke:#000000;stroke-width:0.8;"/>
      </defs>
      <g>
       <use style="stroke:#000000;stroke-width:0.8;" x="92.290909" xlink:href="#mff4dbae046" y="256.32"/>
      </g>
     </g>
     <g id="text_1">
      <!-- 0 -->
      <defs>
       <path d="M 31.78125 66.40625 
Q 24.171875 66.40625 20.328125 58.90625 
Q 16.5 51.421875 16.5 36.375 
Q 16.5 21.390625 20.328125 13.890625 
Q 24.171875 6.390625 31.78125 6.390625 
Q 39.453125 6.390625 43.28125 13.890625 
Q 47.125 21.390625 47.125 36.375 
Q 47.125 51.421875 43.28125 58.90625 
Q 39.453125 66.40625 31.78125 66.40625 
z
M 31.78125 74.21875 
Q 44.046875 74.21875 50.515625 64.515625 
Q 56.984375 54.828125 56.984375 36.375 
Q 56.984375 17.96875 50.515625 8.265625 
Q 44.046875 -1.421875 31.78125 -1.421875 
Q 19.53125 -1.421875 13.0625 8.265625 
Q 6.59375 17.96875 6.59375 36.375 
Q 6.59375 54.828125 13.0625 64.515625 
Q 19.53125 74.21875 31.78125 74.21875 
z
" id="DejaVuSans-48"/>
      </defs>
      <g transform="translate(89.109659 270.918437)scale(0.1 -0.1)">
       <use xlink:href="#DejaVuSans-48"/>
      </g>
     </g>
    </g>
    <g id="xtick_2">
     <g id="line2d_2">
      <g>
       <use style="stroke:#000000;stroke-width:0.8;" x="173.462663" xlink:href="#mff4dbae046" y="256.32"/>
      </g>
     </g>
     <g id="text_2">
      <!-- 20 -->
      <defs>
       <path d="M 19.1875 8.296875 
L 53.609375 8.296875 
L 53.609375 0 
L 7.328125 0 
L 7.328125 8.296875 
Q 12.9375 14.109375 22.625 23.890625 
Q 32.328125 33.6875 34.8125 36.53125 
Q 39.546875 41.84375 41.421875 45.53125 
Q 43.3125 49.21875 43.3125 52.78125 
Q 43.3125 58.59375 39.234375 62.25 
Q 35.15625 65.921875 28.609375 65.921875 
Q 23.96875 65.921875 18.8125 64.3125 
Q 13.671875 62.703125 7.8125 59.421875 
L 7.8125 69.390625 
Q 13.765625 71.78125 18.9375 73 
Q 24.125 74.21875 28.421875 74.21875 
Q 39.75 74.21875 46.484375 68.546875 
Q 53.21875 62.890625 53.21875 53.421875 
Q 53.21875 48.921875 51.53125 44.890625 
Q 49.859375 40.875 45.40625 35.40625 
Q 44.1875 33.984375 37.640625 27.21875 
Q 31.109375 20.453125 19.1875 8.296875 
z
" id="DejaVuSans-50"/>
      </defs>
      <g transform="translate(167.100163 270.918437)scale(0.1 -0.1)">
       <use xlink:href="#DejaVuSans-50"/>
       <use x="63.623047" xlink:href="#DejaVuSans-48"/>
      </g>
     </g>
    </g>
    <g id="xtick_3">
     <g id="line2d_3">
      <g>
       <use style="stroke:#000000;stroke-width:0.8;" x="254.634416" xlink:href="#mff4dbae046" y="256.32"/>
      </g>
     </g>
     <g id="text_3">
      <!-- 40 -->
      <defs>
       <path d="M 37.796875 64.3125 
L 12.890625 25.390625 
L 37.796875 25.390625 
z
M 35.203125 72.90625 
L 47.609375 72.90625 
L 47.609375 25.390625 
L 58.015625 25.390625 
L 58.015625 17.1875 
L 47.609375 17.1875 
L 47.609375 0 
L 37.796875 0 
L 37.796875 17.1875 
L 4.890625 17.1875 
L 4.890625 26.703125 
z
" id="DejaVuSans-52"/>
      </defs>
      <g transform="translate(248.271916 270.918437)scale(0.1 -0.1)">
       <use xlink:href="#DejaVuSans-52"/>
       <use x="63.623047" xlink:href="#DejaVuSans-48"/>
      </g>
     </g>
    </g>
    <g id="xtick_4">
     <g id="line2d_4">
      <g>
       <use style="stroke:#000000;stroke-width:0.8;" x="335.80617" xlink:href="#mff4dbae046" y="256.32"/>
      </g>
     </g>
     <g id="text_4">
      <!-- 60 -->
      <defs>
       <path d="M 33.015625 40.375 
Q 26.375 40.375 22.484375 35.828125 
Q 18.609375 31.296875 18.609375 23.390625 
Q 18.609375 15.53125 22.484375 10.953125 
Q 26.375 6.390625 33.015625 6.390625 
Q 39.65625 6.390625 43.53125 10.953125 
Q 47.40625 15.53125 47.40625 23.390625 
Q 47.40625 31.296875 43.53125 35.828125 
Q 39.65625 40.375 33.015625 40.375 
z
M 52.59375 71.296875 
L 52.59375 62.3125 
Q 48.875 64.0625 45.09375 64.984375 
Q 41.3125 65.921875 37.59375 65.921875 
Q 27.828125 65.921875 22.671875 59.328125 
Q 17.53125 52.734375 16.796875 39.40625 
Q 19.671875 43.65625 24.015625 45.921875 
Q 28.375 48.1875 33.59375 48.1875 
Q 44.578125 48.1875 50.953125 41.515625 
Q 57.328125 34.859375 57.328125 23.390625 
Q 57.328125 12.15625 50.6875 5.359375 
Q 44.046875 -1.421875 33.015625 -1.421875 
Q 20.359375 -1.421875 13.671875 8.265625 
Q 6.984375 17.96875 6.984375 36.375 
Q 6.984375 53.65625 15.1875 63.9375 
Q 23.390625 74.21875 37.203125 74.21875 
Q 40.921875 74.21875 44.703125 73.484375 
Q 48.484375 72.75 52.59375 71.296875 
z
" id="DejaVuSans-54"/>
      </defs>
      <g transform="translate(329.44367 270.918437)scale(0.1 -0.1)">
       <use xlink:href="#DejaVuSans-54"/>
       <use x="63.623047" xlink:href="#DejaVuSans-48"/>
      </g>
     </g>
    </g>
    <g id="xtick_5">
     <g id="line2d_5">
      <g>
       <use style="stroke:#000000;stroke-width:0.8;" x="416.977923" xlink:href="#mff4dbae046" y="256.32"/>
      </g>
     </g>
     <g id="text_5">
      <!-- 80 -->
      <defs>
       <path d="M 31.78125 34.625 
Q 24.75 34.625 20.71875 30.859375 
Q 16.703125 27.09375 16.703125 20.515625 
Q 16.703125 13.921875 20.71875 10.15625 
Q 24.75 6.390625 31.78125 6.390625 
Q 38.8125 6.390625 42.859375 10.171875 
Q 46.921875 13.96875 46.921875 20.515625 
Q 46.921875 27.09375 42.890625 30.859375 
Q 38.875 34.625 31.78125 34.625 
z
M 21.921875 38.8125 
Q 15.578125 40.375 12.03125 44.71875 
Q 8.5 49.078125 8.5 55.328125 
Q 8.5 64.0625 14.71875 69.140625 
Q 20.953125 74.21875 31.78125 74.21875 
Q 42.671875 74.21875 48.875 69.140625 
Q 55.078125 64.0625 55.078125 55.328125 
Q 55.078125 49.078125 51.53125 44.71875 
Q 48 40.375 41.703125 38.8125 
Q 48.828125 37.15625 52.796875 32.3125 
Q 56.78125 27.484375 56.78125 20.515625 
Q 56.78125 9.90625 50.3125 4.234375 
Q 43.84375 -1.421875 31.78125 -1.421875 
Q 19.734375 -1.421875 13.25 4.234375 
Q 6.78125 9.90625 6.78125 20.515625 
Q 6.78125 27.484375 10.78125 32.3125 
Q 14.796875 37.15625 21.921875 38.8125 
z
M 18.3125 54.390625 
Q 18.3125 48.734375 21.84375 45.5625 
Q 25.390625 42.390625 31.78125 42.390625 
Q 38.140625 42.390625 41.71875 45.5625 
Q 45.3125 48.734375 45.3125 54.390625 
Q 45.3125 60.0625 41.71875 63.234375 
Q 38.140625 66.40625 31.78125 66.40625 
Q 25.390625 66.40625 21.84375 63.234375 
Q 18.3125 60.0625 18.3125 54.390625 
z
" id="DejaVuSans-56"/>
      </defs>
      <g transform="translate(410.615423 270.918437)scale(0.1 -0.1)">
       <use xlink:href="#DejaVuSans-56"/>
       <use x="63.623047" xlink:href="#DejaVuSans-48"/>
      </g>
     </g>
    </g>
    <g id="xtick_6">
     <g id="line2d_6">
      <g>
       <use style="stroke:#000000;stroke-width:0.8;" x="498.149677" xlink:href="#mff4dbae046" y="256.32"/>
      </g>
     </g>
     <g id="text_6">
      <!-- 100 -->
      <defs>
       <path d="M 12.40625 8.296875 
L 28.515625 8.296875 
L 28.515625 63.921875 
L 10.984375 60.40625 
L 10.984375 69.390625 
L 28.421875 72.90625 
L 38.28125 72.90625 
L 38.28125 8.296875 
L 54.390625 8.296875 
L 54.390625 0 
L 12.40625 0 
z
" id="DejaVuSans-49"/>
      </defs>
      <g transform="translate(488.605927 270.918437)scale(0.1 -0.1)">
       <use xlink:href="#DejaVuSans-49"/>
       <use x="63.623047" xlink:href="#DejaVuSans-48"/>
       <use x="127.246094" xlink:href="#DejaVuSans-48"/>
      </g>
     </g>
    </g>
    <g id="text_7">
     <!-- доля акций/портфелей, % -->
     <defs>
      <path d="M 21.625 7.171875 
L 47.703125 7.171875 
L 47.703125 47.515625 
L 28.8125 47.515625 
L 28.8125 40.671875 
Q 28.8125 20.5625 23.046875 9.8125 
z
M 8.59375 7.171875 
Q 13.03125 9.125 14.984375 13.28125 
Q 19.78125 23.578125 19.78125 44.34375 
L 19.78125 54.6875 
L 56.734375 54.6875 
L 56.734375 7.171875 
L 63.921875 7.171875 
L 63.921875 -13.8125 
L 56.734375 -13.8125 
L 56.734375 0 
L 12.40625 0 
L 12.40625 -13.8125 
L 5.21875 -13.8125 
L 5.21875 7.171875 
z
" id="DejaVuSans-1076"/>
      <path d="M 30.609375 48.390625 
Q 23.390625 48.390625 19.1875 42.75 
Q 14.984375 37.109375 14.984375 27.296875 
Q 14.984375 17.484375 19.15625 11.84375 
Q 23.34375 6.203125 30.609375 6.203125 
Q 37.796875 6.203125 41.984375 11.859375 
Q 46.1875 17.53125 46.1875 27.296875 
Q 46.1875 37.015625 41.984375 42.703125 
Q 37.796875 48.390625 30.609375 48.390625 
z
M 30.609375 56 
Q 42.328125 56 49.015625 48.375 
Q 55.71875 40.765625 55.71875 27.296875 
Q 55.71875 13.875 49.015625 6.21875 
Q 42.328125 -1.421875 30.609375 -1.421875 
Q 18.84375 -1.421875 12.171875 6.21875 
Q 5.515625 13.875 5.515625 27.296875 
Q 5.515625 40.765625 12.171875 48.375 
Q 18.84375 56 30.609375 56 
z
" id="DejaVuSans-1086"/>
      <path d="M 3.71875 0 
L 3.71875 7.46875 
Q 12.59375 8.84375 15.328125 14.984375 
Q 18.65625 23.640625 18.65625 45.75 
L 18.65625 54.6875 
L 55.609375 54.6875 
L 55.609375 0 
L 46.625 0 
L 46.625 47.515625 
L 27.640625 47.515625 
L 27.640625 42.09375 
Q 27.640625 21 23.34375 11.53125 
Q 18.75 1.421875 3.71875 0 
z
" id="DejaVuSans-1083"/>
      <path d="M 18.453125 38.921875 
Q 18.453125 34.859375 21.578125 32.5625 
Q 24.703125 30.28125 30.515625 30.28125 
L 42.625 30.28125 
L 42.625 47.515625 
L 30.515625 47.515625 
Q 24.703125 47.515625 21.578125 45.265625 
Q 18.453125 43.015625 18.453125 38.921875 
z
M 5.671875 0 
L 22.359375 23.96875 
Q 16.703125 25.25 12.9375 28.59375 
Q 9.1875 31.9375 9.1875 38.921875 
Q 9.1875 46.828125 14.421875 50.75 
Q 19.671875 54.6875 30.28125 54.6875 
L 51.65625 54.6875 
L 51.65625 0 
L 42.625 0 
L 42.625 23.09375 
L 31.453125 23.09375 
L 15.328125 0 
z
" id="DejaVuSans-1103"/>
      <path id="DejaVuSans-32"/>
      <path d="M 34.28125 27.484375 
Q 23.390625 27.484375 19.1875 25 
Q 14.984375 22.515625 14.984375 16.5 
Q 14.984375 11.71875 18.140625 8.90625 
Q 21.296875 6.109375 26.703125 6.109375 
Q 34.1875 6.109375 38.703125 11.40625 
Q 43.21875 16.703125 43.21875 25.484375 
L 43.21875 27.484375 
z
M 52.203125 31.203125 
L 52.203125 0 
L 43.21875 0 
L 43.21875 8.296875 
Q 40.140625 3.328125 35.546875 0.953125 
Q 30.953125 -1.421875 24.3125 -1.421875 
Q 15.921875 -1.421875 10.953125 3.296875 
Q 6 8.015625 6 15.921875 
Q 6 25.140625 12.171875 29.828125 
Q 18.359375 34.515625 30.609375 34.515625 
L 43.21875 34.515625 
L 43.21875 35.40625 
Q 43.21875 41.609375 39.140625 45 
Q 35.0625 48.390625 27.6875 48.390625 
Q 23 48.390625 18.546875 47.265625 
Q 14.109375 46.140625 10.015625 43.890625 
L 10.015625 52.203125 
Q 14.9375 54.109375 19.578125 55.046875 
Q 24.21875 56 28.609375 56 
Q 40.484375 56 46.34375 49.84375 
Q 52.203125 43.703125 52.203125 31.203125 
z
" id="DejaVuSans-1072"/>
      <path d="M 9.078125 54.6875 
L 18.015625 54.6875 
L 18.015625 29 
L 43.359375 54.6875 
L 54.390625 54.6875 
L 33.5 33.546875 
L 57.078125 0 
L 47.015625 0 
L 27.640625 27.59375 
L 18.015625 17.828125 
L 18.015625 0 
L 9.078125 0 
z
" id="DejaVuSans-1082"/>
      <path d="M 56.296875 0 
L 9.078125 0 
L 9.078125 54.6875 
L 18.109375 54.6875 
L 18.109375 7.171875 
L 47.265625 7.171875 
L 47.265625 54.6875 
L 56.296875 54.6875 
L 56.296875 7.171875 
L 63.484375 7.171875 
L 63.484375 -13.8125 
L 56.296875 -13.8125 
z
" id="DejaVuSans-1094"/>
      <path d="M 55.90625 54.6875 
L 55.90625 0 
L 46.96875 0 
L 46.96875 43.890625 
L 20.609375 0 
L 9.078125 0 
L 9.078125 54.6875 
L 18.015625 54.6875 
L 18.015625 10.890625 
L 44.34375 54.6875 
z
" id="DejaVuSans-1080"/>
      <path d="M 55.90625 54.6875 
L 55.90625 0 
L 46.96875 0 
L 46.96875 43.890625 
L 20.609375 0 
L 9.078125 0 
L 9.078125 54.6875 
L 18.015625 54.6875 
L 18.015625 10.890625 
L 44.34375 54.6875 
z
M 17.234375 75.96875 
L 23 75.96875 
Q 23.53125 72.3125 25.890625 70.46875 
Q 28.265625 68.640625 32.515625 68.640625 
Q 36.71875 68.640625 39.0625 70.453125 
Q 41.40625 72.265625 42.046875 75.96875 
L 47.796875 75.96875 
Q 47.3125 68.984375 43.453125 65.46875 
Q 39.59375 61.953125 32.515625 61.953125 
Q 25.4375 61.953125 21.578125 65.46875 
Q 17.71875 68.984375 17.234375 75.96875 
z
" id="DejaVuSans-1081"/>
      <path d="M 25.390625 72.90625 
L 33.6875 72.90625 
L 8.296875 -9.28125 
L 0 -9.28125 
z
" id="DejaVuSans-47"/>
      <path d="M 56.296875 54.6875 
L 56.296875 0 
L 47.265625 0 
L 47.265625 47.515625 
L 18.109375 47.515625 
L 18.109375 0 
L 9.078125 0 
L 9.078125 54.6875 
z
" id="DejaVuSans-1087"/>
      <path d="M 18.109375 8.203125 
L 18.109375 -20.796875 
L 9.078125 -20.796875 
L 9.078125 54.6875 
L 18.109375 54.6875 
L 18.109375 46.390625 
Q 20.953125 51.265625 25.265625 53.625 
Q 29.59375 56 35.59375 56 
Q 45.5625 56 51.78125 48.09375 
Q 58.015625 40.1875 58.015625 27.296875 
Q 58.015625 14.40625 51.78125 6.484375 
Q 45.5625 -1.421875 35.59375 -1.421875 
Q 29.59375 -1.421875 25.265625 0.953125 
Q 20.953125 3.328125 18.109375 8.203125 
z
M 48.6875 27.296875 
Q 48.6875 37.203125 44.609375 42.84375 
Q 40.53125 48.484375 33.40625 48.484375 
Q 26.265625 48.484375 22.1875 42.84375 
Q 18.109375 37.203125 18.109375 27.296875 
Q 18.109375 17.390625 22.1875 11.75 
Q 26.265625 6.109375 33.40625 6.109375 
Q 40.53125 6.109375 44.609375 11.75 
Q 48.6875 17.390625 48.6875 27.296875 
z
" id="DejaVuSans-1088"/>
      <path d="M 2.9375 54.6875 
L 55.328125 54.6875 
L 55.328125 47.515625 
L 33.546875 47.515625 
L 33.546875 0 
L 24.703125 0 
L 24.703125 47.515625 
L 2.9375 47.515625 
z
" id="DejaVuSans-1090"/>
      <path d="M 14.796875 27.296875 
Q 14.796875 15.828125 18.328125 10.96875 
Q 21.875 6.109375 27.875 6.109375 
Q 32.671875 6.109375 38.234375 14.3125 
L 38.234375 40.28125 
Q 32.671875 48.484375 27.875 48.484375 
Q 21.875 48.484375 18.328125 43.625 
Q 14.796875 38.765625 14.796875 27.296875 
z
M 38.234375 -20.796875 
L 38.234375 6.984375 
Q 35.453125 2.390625 32.25 0.484375 
Q 29.046875 -1.421875 25 -1.421875 
Q 16.84375 -1.421875 11.15625 6.125 
Q 5.46875 13.671875 5.46875 27.09375 
Q 5.46875 40.53125 11.15625 48.265625 
Q 16.84375 56 25 56 
Q 29.046875 56 32.25 54.140625 
Q 35.453125 52.296875 38.234375 47.703125 
L 38.234375 72.90625 
L 47.265625 72.90625 
L 47.265625 47.703125 
Q 50.046875 52.296875 53.25 54.140625 
Q 56.453125 56 60.5 56 
Q 68.65625 56 74.34375 48.265625 
Q 80.03125 40.53125 80.03125 27.09375 
Q 80.03125 13.671875 74.34375 6.125 
Q 68.65625 -1.421875 60.5 -1.421875 
Q 56.453125 -1.421875 53.25 0.484375 
Q 50.046875 2.390625 47.265625 6.984375 
L 47.265625 -20.796875 
z
M 70.703125 27.296875 
Q 70.703125 38.765625 67.15625 43.625 
Q 63.625 48.484375 57.625 48.484375 
Q 52.828125 48.484375 47.265625 40.28125 
L 47.265625 14.3125 
Q 52.828125 6.109375 57.625 6.109375 
Q 63.625 6.109375 67.15625 10.96875 
Q 70.703125 15.828125 70.703125 27.296875 
z
" id="DejaVuSans-1092"/>
      <path d="M 56.203125 29.59375 
L 56.203125 25.203125 
L 14.890625 25.203125 
Q 15.484375 15.921875 20.484375 11.0625 
Q 25.484375 6.203125 34.421875 6.203125 
Q 39.59375 6.203125 44.453125 7.46875 
Q 49.3125 8.734375 54.109375 11.28125 
L 54.109375 2.78125 
Q 49.265625 0.734375 44.1875 -0.34375 
Q 39.109375 -1.421875 33.890625 -1.421875 
Q 20.796875 -1.421875 13.15625 6.1875 
Q 5.515625 13.8125 5.515625 26.8125 
Q 5.515625 40.234375 12.765625 48.109375 
Q 20.015625 56 32.328125 56 
Q 43.359375 56 49.78125 48.890625 
Q 56.203125 41.796875 56.203125 29.59375 
z
M 47.21875 32.234375 
Q 47.125 39.59375 43.09375 43.984375 
Q 39.0625 48.390625 32.421875 48.390625 
Q 24.90625 48.390625 20.390625 44.140625 
Q 15.875 39.890625 15.1875 32.171875 
z
" id="DejaVuSans-1077"/>
      <path d="M 11.71875 12.40625 
L 22.015625 12.40625 
L 22.015625 4 
L 14.015625 -11.625 
L 7.71875 -11.625 
L 11.71875 4 
z
" id="DejaVuSans-44"/>
      <path d="M 72.703125 32.078125 
Q 68.453125 32.078125 66.03125 28.46875 
Q 63.625 24.859375 63.625 18.40625 
Q 63.625 12.0625 66.03125 8.421875 
Q 68.453125 4.78125 72.703125 4.78125 
Q 76.859375 4.78125 79.265625 8.421875 
Q 81.6875 12.0625 81.6875 18.40625 
Q 81.6875 24.8125 79.265625 28.4375 
Q 76.859375 32.078125 72.703125 32.078125 
z
M 72.703125 38.28125 
Q 80.421875 38.28125 84.953125 32.90625 
Q 89.5 27.546875 89.5 18.40625 
Q 89.5 9.28125 84.9375 3.921875 
Q 80.375 -1.421875 72.703125 -1.421875 
Q 64.890625 -1.421875 60.34375 3.921875 
Q 55.8125 9.28125 55.8125 18.40625 
Q 55.8125 27.59375 60.375 32.9375 
Q 64.9375 38.28125 72.703125 38.28125 
z
M 22.3125 68.015625 
Q 18.109375 68.015625 15.6875 64.375 
Q 13.28125 60.75 13.28125 54.390625 
Q 13.28125 47.953125 15.671875 44.328125 
Q 18.0625 40.71875 22.3125 40.71875 
Q 26.5625 40.71875 28.96875 44.328125 
Q 31.390625 47.953125 31.390625 54.390625 
Q 31.390625 60.6875 28.953125 64.34375 
Q 26.515625 68.015625 22.3125 68.015625 
z
M 66.40625 74.21875 
L 74.21875 74.21875 
L 28.609375 -1.421875 
L 20.796875 -1.421875 
z
M 22.3125 74.21875 
Q 30.03125 74.21875 34.609375 68.875 
Q 39.203125 63.53125 39.203125 54.390625 
Q 39.203125 45.171875 34.640625 39.84375 
Q 30.078125 34.515625 22.3125 34.515625 
Q 14.546875 34.515625 10.03125 39.859375 
Q 5.515625 45.21875 5.515625 54.390625 
Q 5.515625 63.484375 10.046875 68.84375 
Q 14.59375 74.21875 22.3125 74.21875 
z
" id="DejaVuSans-37"/>
     </defs>
     <g transform="translate(226.003125 284.596563)scale(0.1 -0.1)">
      <use xlink:href="#DejaVuSans-1076"/>
      <use x="69.140625" xlink:href="#DejaVuSans-1086"/>
      <use x="130.322266" xlink:href="#DejaVuSans-1083"/>
      <use x="194.238281" xlink:href="#DejaVuSans-1103"/>
      <use x="254.394531" xlink:href="#DejaVuSans-32"/>
      <use x="286.181641" xlink:href="#DejaVuSans-1072"/>
      <use x="347.460938" xlink:href="#DejaVuSans-1082"/>
      <use x="407.861328" xlink:href="#DejaVuSans-1094"/>
      <use x="475.927734" xlink:href="#DejaVuSans-1080"/>
      <use x="540.917969" xlink:href="#DejaVuSans-1081"/>
      <use x="605.908203" xlink:href="#DejaVuSans-47"/>
      <use x="639.599609" xlink:href="#DejaVuSans-1087"/>
      <use x="704.980469" xlink:href="#DejaVuSans-1086"/>
      <use x="766.162109" xlink:href="#DejaVuSans-1088"/>
      <use x="829.638672" xlink:href="#DejaVuSans-1090"/>
      <use x="887.890625" xlink:href="#DejaVuSans-1092"/>
      <use x="973.388672" xlink:href="#DejaVuSans-1077"/>
      <use x="1034.912109" xlink:href="#DejaVuSans-1083"/>
      <use x="1098.828125" xlink:href="#DejaVuSans-1077"/>
      <use x="1160.351562" xlink:href="#DejaVuSans-1081"/>
      <use x="1225.341797" xlink:href="#DejaVuSans-44"/>
      <use x="1257.128906" xlink:href="#DejaVuSans-32"/>
      <use x="1288.916016" xlink:href="#DejaVuSans-37"/>
     </g>
    </g>
   </g>
   <g id="matplotlib.axis_2">
    <g id="ytick_1">
     <g id="line2d_7">
      <defs>
       <path d="M 0 0 
L -3.5 0 
" id="m4c0f0d8943" style="stroke:#000000;stroke-width:0.8;"/>
      </defs>
      <g>
       <use style="stroke:#000000;stroke-width:0.8;" x="72" xlink:href="#m4c0f0d8943" y="248.994769"/>
      </g>
     </g>
     <g id="text_8">
      <!-- −0.2 -->
      <defs>
       <path d="M 10.59375 35.5 
L 73.1875 35.5 
L 73.1875 27.203125 
L 10.59375 27.203125 
z
" id="DejaVuSans-8722"/>
       <path d="M 10.6875 12.40625 
L 21 12.40625 
L 21 0 
L 10.6875 0 
z
" id="DejaVuSans-46"/>
      </defs>
      <g transform="translate(40.717187 252.793988)scale(0.1 -0.1)">
       <use xlink:href="#DejaVuSans-8722"/>
       <use x="83.789062" xlink:href="#DejaVuSans-48"/>
       <use x="147.412109" xlink:href="#DejaVuSans-46"/>
       <use x="179.199219" xlink:href="#DejaVuSans-50"/>
      </g>
     </g>
    </g>
    <g id="ytick_2">
     <g id="line2d_8">
      <g>
       <use style="stroke:#000000;stroke-width:0.8;" x="72" xlink:href="#m4c0f0d8943" y="205.526989"/>
      </g>
     </g>
     <g id="text_9">
      <!-- −0.1 -->
      <g transform="translate(40.717187 209.326208)scale(0.1 -0.1)">
       <use xlink:href="#DejaVuSans-8722"/>
       <use x="83.789062" xlink:href="#DejaVuSans-48"/>
       <use x="147.412109" xlink:href="#DejaVuSans-46"/>
       <use x="179.199219" xlink:href="#DejaVuSans-49"/>
      </g>
     </g>
    </g>
    <g id="ytick_3">
     <g id="line2d_9">
      <g>
       <use style="stroke:#000000;stroke-width:0.8;" x="72" xlink:href="#m4c0f0d8943" y="162.059208"/>
      </g>
     </g>
     <g id="text_10">
      <!-- 0.0 -->
      <g transform="translate(49.096875 165.858427)scale(0.1 -0.1)">
       <use xlink:href="#DejaVuSans-48"/>
       <use x="63.623047" xlink:href="#DejaVuSans-46"/>
       <use x="95.410156" xlink:href="#DejaVuSans-48"/>
      </g>
     </g>
    </g>
    <g id="ytick_4">
     <g id="line2d_10">
      <g>
       <use style="stroke:#000000;stroke-width:0.8;" x="72" xlink:href="#m4c0f0d8943" y="118.591428"/>
      </g>
     </g>
     <g id="text_11">
      <!-- 0.1 -->
      <g transform="translate(49.096875 122.390647)scale(0.1 -0.1)">
       <use xlink:href="#DejaVuSans-48"/>
       <use x="63.623047" xlink:href="#DejaVuSans-46"/>
       <use x="95.410156" xlink:href="#DejaVuSans-49"/>
      </g>
     </g>
    </g>
    <g id="ytick_5">
     <g id="line2d_11">
      <g>
       <use style="stroke:#000000;stroke-width:0.8;" x="72" xlink:href="#m4c0f0d8943" y="75.123648"/>
      </g>
     </g>
     <g id="text_12">
      <!-- 0.2 -->
      <g transform="translate(49.096875 78.922867)scale(0.1 -0.1)">
       <use xlink:href="#DejaVuSans-48"/>
       <use x="63.623047" xlink:href="#DejaVuSans-46"/>
       <use x="95.410156" xlink:href="#DejaVuSans-50"/>
      </g>
     </g>
    </g>
    <g id="text_13">
     <!-- доходность, %г -->
     <defs>
      <path d="M 54.890625 54.6875 
L 35.109375 28.078125 
L 55.90625 0 
L 45.3125 0 
L 29.390625 21.484375 
L 13.484375 0 
L 2.875 0 
L 24.125 28.609375 
L 4.6875 54.6875 
L 15.28125 54.6875 
L 29.78125 35.203125 
L 44.28125 54.6875 
z
" id="DejaVuSans-1093"/>
      <path d="M 9.078125 54.6875 
L 18.109375 54.6875 
L 18.109375 32.375 
L 47.265625 32.375 
L 47.265625 54.6875 
L 56.296875 54.6875 
L 56.296875 0 
L 47.265625 0 
L 47.265625 25.203125 
L 18.109375 25.203125 
L 18.109375 0 
L 9.078125 0 
z
" id="DejaVuSans-1085"/>
      <path d="M 48.78125 52.59375 
L 48.78125 44.1875 
Q 44.96875 46.296875 41.140625 47.34375 
Q 37.3125 48.390625 33.40625 48.390625 
Q 24.65625 48.390625 19.8125 42.84375 
Q 14.984375 37.3125 14.984375 27.296875 
Q 14.984375 17.28125 19.8125 11.734375 
Q 24.65625 6.203125 33.40625 6.203125 
Q 37.3125 6.203125 41.140625 7.25 
Q 44.96875 8.296875 48.78125 10.40625 
L 48.78125 2.09375 
Q 45.015625 0.34375 40.984375 -0.53125 
Q 36.96875 -1.421875 32.421875 -1.421875 
Q 20.0625 -1.421875 12.78125 6.34375 
Q 5.515625 14.109375 5.515625 27.296875 
Q 5.515625 40.671875 12.859375 48.328125 
Q 20.21875 56 33.015625 56 
Q 37.15625 56 41.109375 55.140625 
Q 45.0625 54.296875 48.78125 52.59375 
z
" id="DejaVuSans-1089"/>
      <path d="M 43.453125 16.21875 
Q 43.453125 20.609375 40.25 22.90625 
Q 37.0625 25.203125 30.90625 25.203125 
L 18.109375 25.203125 
L 18.109375 7.171875 
L 30.90625 7.171875 
Q 37.0625 7.171875 40.25 9.484375 
Q 43.453125 11.8125 43.453125 16.21875 
z
M 9.078125 54.6875 
L 18.109375 54.6875 
L 18.109375 32.375 
L 31.296875 32.375 
Q 41.75 32.375 47.390625 28.390625 
Q 53.03125 24.421875 53.03125 16.21875 
Q 53.03125 8.015625 47.390625 4 
Q 41.75 0 31.296875 0 
L 9.078125 0 
z
" id="DejaVuSans-1100"/>
      <path d="M 9.078125 0 
L 9.078125 54.6875 
L 47.65625 54.6875 
L 47.65625 47.515625 
L 18.109375 47.515625 
L 18.109375 0 
z
" id="DejaVuSans-1075"/>
     </defs>
     <g transform="translate(34.6375 186.925156)rotate(-90)scale(0.1 -0.1)">
      <use xlink:href="#DejaVuSans-1076"/>
      <use x="69.140625" xlink:href="#DejaVuSans-1086"/>
      <use x="130.322266" xlink:href="#DejaVuSans-1093"/>
      <use x="189.501953" xlink:href="#DejaVuSans-1086"/>
      <use x="250.683594" xlink:href="#DejaVuSans-1076"/>
      <use x="319.824219" xlink:href="#DejaVuSans-1085"/>
      <use x="385.205078" xlink:href="#DejaVuSans-1086"/>
      <use x="446.386719" xlink:href="#DejaVuSans-1089"/>
      <use x="501.367188" xlink:href="#DejaVuSans-1090"/>
      <use x="559.619141" xlink:href="#DejaVuSans-1100"/>
      <use x="618.554688" xlink:href="#DejaVuSans-44"/>
      <use x="650.341797" xlink:href="#DejaVuSans-32"/>
      <use x="682.128906" xlink:href="#DejaVuSans-37"/>
      <use x="777.148438" xlink:href="#DejaVuSans-1075"/>
     </g>
    </g>
   </g>
   <g id="line2d_12">
    <path clip-path="url(#p7a98a3fd97)" d="M 92.290909 246.24 
L 92.656182 230.260701 
L 92.899697 228.897378 
L 92.980869 228.612572 
L 93.224384 226.934206 
L 93.386728 226.74907 
L 93.670829 224.855487 
L 93.752001 224.688349 
L 94.036102 221.966765 
L 95.010163 218.238315 
L 95.172506 217.999364 
L 95.375436 217.186271 
L 95.700123 216.424389 
L 95.781294 216.383455 
L 96.268325 214.990826 
L 96.349497 214.870228 
L 96.71477 214.239878 
L 97.810588 212.488397 
L 98.013518 212.315096 
L 98.175861 212.170692 
L 98.257033 212.105779 
L 98.500548 211.820679 
L 98.58172 211.699194 
L 98.744063 211.464525 
L 98.865821 211.356709 
L 99.27168 210.808862 
L 99.636953 210.325806 
L 99.921054 210.166365 
L 100.164569 209.776654 
L 100.408084 209.544607 
L 100.570428 209.2934 
L 100.611014 209.289779 
L 100.813943 208.855206 
L 101.016873 208.735141 
L 101.179216 208.617673 
L 101.260388 208.499508 
L 101.666247 207.892116 
L 101.82859 207.769538 
L 102.072105 207.579251 
L 102.234449 207.396683 
L 102.51855 207.232484 
L 102.883823 206.913033 
L 103.127338 206.576638 
L 103.370853 206.451851 
L 103.736126 206.253195 
L 104.223157 205.937789 
L 104.3855 205.755835 
L 104.710187 205.528434 
L 104.953703 205.248237 
L 105.156632 205.104681 
L 105.603077 204.812647 
L 105.846592 204.773984 
L 106.049521 204.574385 
L 107.754128 203.581674 
L 108.078815 203.489943 
L 108.241159 203.396633 
L 109.093462 202.958161 
L 109.418149 202.691472 
L 111.366271 201.755856 
L 112.299746 201.279494 
L 112.380918 201.211836 
L 112.543262 201.077591 
L 113.192636 200.809951 
L 113.801424 200.430212 
L 113.963767 200.284579 
L 114.450798 200.119601 
L 115.587202 199.676284 
L 115.871303 199.53341 
L 117.048294 198.932914 
L 117.616496 198.795229 
L 119.767548 197.671742 
L 121.269225 197.154769 
L 121.472154 197.061703 
L 122.567973 196.705702 
L 122.973832 196.485595 
L 123.298519 196.339317 
L 124.110236 196.088447 
L 124.719025 195.943261 
L 125.043712 195.752995 
L 125.6525 195.501345 
L 126.301874 195.305048 
L 127.154177 195.081109 
L 127.478864 194.954692 
L 128.047067 194.822992 
L 128.574683 194.55843 
L 128.777612 194.445104 
L 128.980542 194.33652 
L 129.305229 194.236959 
L 130.116946 194.061691 
L 130.401047 193.971638 
L 130.847492 193.856239 
L 132.511513 193.315878 
L 132.8362 193.184374 
L 133.160887 193.094294 
L 134.297292 192.845841 
L 134.581393 192.7703 
L 135.149595 192.569824 
L 135.677211 192.462755 
L 136.123656 192.299691 
L 137.138303 192.079728 
L 137.381818 191.972987 
L 137.544162 191.902198 
L 137.828263 191.796833 
L 138.802324 191.517115 
L 138.964667 191.460018 
L 140.547517 191.021269 
L 141.318648 190.768064 
L 144.078488 190.015473 
L 144.443761 189.885171 
L 145.620751 189.541962 
L 145.945438 189.455953 
L 146.270125 189.348027 
L 147.041257 189.123302 
L 148.055904 188.83596 
L 148.218247 188.746445 
L 148.78645 188.640047 
L 151.34336 187.897385 
L 153.250896 187.358624 
L 153.494411 187.286065 
L 153.981442 187.175224 
L 154.265543 187.10565 
L 154.671402 186.994784 
L 156.010736 186.701758 
L 156.578938 186.580507 
L 156.903625 186.515176 
L 157.796514 186.316944 
L 158.324131 186.194477 
L 159.298192 185.959214 
L 159.947566 185.812695 
L 160.272253 185.701714 
L 161.327485 185.416331 
L 162.017445 185.236357 
L 162.301547 185.167046 
L 167.983569 184.070689 
L 168.876459 183.892409 
L 169.931691 183.663988 
L 170.54048 183.527598 
L 170.946338 183.40599 
L 173.137976 182.803762 
L 173.990279 182.670759 
L 175.491956 182.312928 
L 175.694886 182.240115 
L 176.628361 182.095274 
L 176.993634 182.0237 
L 181.539252 181.287633 
L 182.229212 181.149657 
L 182.635071 181.051324 
L 188.073578 179.991696 
L 188.682366 179.839951 
L 199.640553 177.881255 
L 199.884068 177.818341 
L 207.473627 176.423222 
L 208.934719 176.233168 
L 225.777858 173.140046 
L 226.061959 173.095992 
L 226.792505 172.980696 
L 228.943556 172.63462 
L 229.308829 172.577006 
L 230.201718 172.466896 
L 233.205073 171.995918 
L 235.437296 171.676647 
L 235.924327 171.565989 
L 239.090025 171.072941 
L 239.658228 170.963866 
L 241.038147 170.763029 
L 242.661583 170.414823 
L 243.554472 170.266428 
L 244.325603 170.168616 
L 250.048212 169.276133 
L 251.265788 169.128954 
L 253.863285 168.73137 
L 254.675002 168.610388 
L 255.567891 168.458074 
L 256.501367 168.294352 
L 257.434842 168.168496 
L 257.637771 168.082489 
L 258.368317 167.948272 
L 259.42355 167.694121 
L 260.032338 167.582875 
L 260.641126 167.447776 
L 261.574601 167.320417 
L 264.862057 166.841692 
L 265.308502 166.758251 
L 266.40432 166.58249 
L 266.769593 166.531398 
L 268.352443 166.295086 
L 270.706423 165.871532 
L 271.883414 165.68968 
L 272.208101 165.636787 
L 273.141576 165.530005 
L 273.750364 165.409996 
L 273.993879 165.324967 
L 275.252042 165.171831 
L 278.580083 164.708066 
L 278.823599 164.653517 
L 279.757074 164.546142 
L 280.081761 164.476911 
L 280.649963 164.354868 
L 291.770493 162.745525 
L 293.109827 162.520051 
L 295.747909 162.115428 
L 296.356697 161.965787 
L 297.371344 161.80445 
L 302.647508 160.994619 
L 303.093953 160.922366 
L 304.473873 160.704183 
L 305.123247 160.581877 
L 305.853793 160.438431 
L 307.030783 160.254793 
L 308.04543 160.091941 
L 328.784813 156.903448 
L 329.231258 156.780569 
L 329.961803 156.661302 
L 331.260552 156.446184 
L 332.194027 156.326142 
L 333.289845 156.131791 
L 334.91328 155.869525 
L 335.522069 155.742684 
L 337.348433 155.457564 
L 337.997807 155.343584 
L 338.647181 155.214565 
L 341.325849 154.849854 
L 341.488192 154.768607 
L 342.421668 154.627948 
L 342.746355 154.55222 
L 344.085689 154.379945 
L 344.36979 154.324185 
L 345.343851 154.191911 
L 346.439669 153.98938 
L 347.291973 153.850572 
L 349.037166 153.479836 
L 349.970641 153.342384 
L 351.228803 153.12128 
L 352.405793 152.972758 
L 354.556845 152.604404 
L 355.327976 152.466654 
L 356.18028 152.285047 
L 369.289518 150.111897 
L 370.54768 149.827113 
L 371.602913 149.674483 
L 371.846428 149.576127 
L 373.713379 149.22171 
L 375.499157 148.902686 
L 375.986188 148.799578 
L 376.879077 148.680642 
L 377.325522 148.576287 
L 378.786613 148.247476 
L 378.989543 148.168659 
L 379.679502 148.057674 
L 381.262352 147.823144 
L 381.911726 147.706854 
L 385.726798 146.928463 
L 386.010899 146.823984 
L 386.416758 146.730633 
L 387.471991 146.548843 
L 391.81468 145.70597 
L 392.017609 145.655346 
L 392.423468 145.525033 
L 392.951084 145.421545 
L 395.305065 144.963868 
L 396.197954 144.766571 
L 396.969086 144.598053 
L 397.253187 144.519427 
L 397.740218 144.405207 
L 398.227248 144.284723 
L 399.850683 143.996946 
L 402.569937 143.458676 
L 403.097553 143.317568 
L 403.665756 143.213358 
L 404.720988 143.057645 
L 407.156141 142.537854 
L 408.130202 142.375238 
L 409.753637 141.981863 
L 410.281254 141.893132 
L 411.782931 141.607748 
L 412.554063 141.435457 
L 413.122265 141.283302 
L 413.649881 141.198385 
L 415.841519 140.628985 
L 416.166206 140.517353 
L 416.531479 140.421 
L 417.059095 140.300269 
L 420.305965 139.558747 
L 420.590066 139.478892 
L 421.077097 139.400973 
L 421.23944 139.322626 
L 422.091744 139.095547 
L 423.593421 138.785243 
L 424.242795 138.615294 
L 424.567482 138.513596 
L 425.095099 138.387414 
L 425.3792 138.162198 
L 425.86623 138.014628 
L 426.028574 137.954821 
L 426.596776 137.815143 
L 427.976696 137.54879 
L 428.220211 137.478146 
L 429.80306 137.031209 
L 430.371263 136.819454 
L 430.898879 136.681555 
L 432.035284 136.387408 
L 432.400556 136.292686 
L 433.009345 136.070727 
L 434.226921 135.794559 
L 434.42985 135.725682 
L 436.702659 135.097809 
L 436.905589 135.00933 
L 439.665428 134.245512 
L 442.790541 133.269308 
L 444.251632 132.789723 
L 444.616905 132.663356 
L 445.469209 132.470771 
L 446.808543 132.033688 
L 447.336159 131.839061 
L 447.62026 131.756626 
L 448.269634 131.576008 
L 448.756665 131.419986 
L 449.162524 131.300939 
L 449.974241 131.119632 
L 451.435333 130.69381 
L 452.003535 130.546056 
L 452.409394 130.391354 
L 452.93701 130.276418 
L 453.951657 129.934058 
L 454.235758 129.85497 
L 454.80396 129.574283 
L 455.209819 129.426928 
L 455.453334 129.322477 
L 456.18388 129.086109 
L 456.38681 128.948182 
L 456.87384 128.835524 
L 457.198527 128.721553 
L 458.091416 128.404999 
L 458.903134 128.116115 
L 459.106063 128.018675 
L 459.755437 127.713969 
L 460.039538 127.634196 
L 460.283054 127.502815 
L 460.567155 127.337306 
L 460.770084 127.218736 
L 462.109418 126.860813 
L 462.231176 126.780224 
L 462.474691 126.621937 
L 463.083479 126.395685 
L 463.976369 125.989805 
L 464.463399 125.791212 
L 464.788086 125.633068 
L 466.776794 124.907853 
L 467.263825 124.717556 
L 468.400229 124.290663 
L 470.794796 123.239993 
L 470.997725 123.132423 
L 471.281826 123.030431 
L 473.676393 121.701018 
L 473.838737 121.584308 
L 474.041666 121.525123 
L 474.204009 121.324533 
L 474.853384 120.995618 
L 476.598576 120.147953 
L 476.720334 120.040712 
L 477.085607 119.643107 
L 477.24795 119.461133 
L 477.45088 119.349838 
L 477.775567 119.167417 
L 479.033729 118.599923 
L 479.236658 118.253351 
L 479.764275 117.929997 
L 480.251305 117.567391 
L 480.575992 117.361417 
L 480.778922 117.077669 
L 481.793568 116.515057 
L 482.07767 116.247649 
L 482.524114 115.871148 
L 482.686458 115.71353 
L 483.701105 115.187136 
L 484.106963 114.943088 
L 484.188135 114.834659 
L 485.405711 113.598972 
L 485.892742 113.390242 
L 485.973914 113.359987 
L 486.217429 112.880034 
L 486.379773 112.785165 
L 486.50153 112.566508 
L 486.663874 112.178223 
L 486.826217 112.102931 
L 486.988561 111.820528 
L 487.272662 111.64239 
L 487.597349 111.007063 
L 487.800278 110.864387 
L 487.88145 110.755614 
L 488.246723 110.013949 
L 488.449652 109.929175 
L 488.896097 109.386006 
L 489.05844 109.320604 
L 489.301956 109.028968 
L 489.504885 108.793309 
L 489.829572 108.281513 
L 489.870158 108.2707 
L 490.032501 107.837166 
L 490.194845 107.734064 
L 490.357188 107.378138 
L 490.681875 106.871646 
L 490.844219 106.45684 
L 491.006562 106.331207 
L 491.12832 106.193005 
L 491.412421 105.537914 
L 491.574765 105.475072 
L 491.737108 105.299119 
L 491.858866 105.165438 
L 492.061795 104.986429 
L 492.50824 104.518222 
L 492.873513 104.000019 
L 493.076442 103.70567 
L 493.360543 103.36534 
L 493.563473 102.83205 
L 493.644644 102.671821 
L 493.806988 101.993981 
L 493.88816 101.948146 
L 494.294018 100.646614 
L 494.57812 99.905753 
L 494.618706 99.891472 
L 495.06515 98.599584 
L 495.105736 98.598645 
L 495.227494 98.375454 
L 495.26808 98.365539 
L 495.471009 97.619711 
L 495.511595 97.614657 
L 495.998625 96.2071 
L 496.079797 96.047797 
L 496.323312 94.538629 
L 496.810343 91.248479 
L 497.053858 89.840309 
L 497.540889 85.546633 
L 497.946747 70.443473 
L 498.109091 44.64 
L 498.109091 44.64 
" style="fill:none;stroke:#1f77b4;stroke-linecap:square;stroke-width:1.5;"/>
   </g>
   <g id="line2d_13">
    <path clip-path="url(#p7a98a3fd97)" d="M 92.290909 180.744331 
L 92.453399 175.976945 
L 92.859623 175.014599 
L 92.940868 175.000585 
L 93.712694 172.340201 
L 93.793939 172.261468 
L 94.403276 171.024685 
L 94.8095 170.47772 
L 95.012612 170.331967 
L 95.256347 170.093299 
L 95.540704 169.883168 
L 95.825061 169.513731 
L 95.865684 169.506677 
L 96.068796 169.152252 
L 96.231285 168.995781 
L 96.393775 168.925003 
L 96.718755 168.433208 
L 97.449959 168.029169 
L 97.693693 167.81254 
L 98.30303 167.383936 
L 98.668632 167.243528 
L 99.237346 166.85169 
L 99.684193 166.743931 
L 100.131039 166.543526 
L 100.374774 166.356372 
L 101.105978 165.971996 
L 101.512202 165.816898 
L 101.715314 165.706928 
L 102.121539 165.541862 
L 107.077476 163.604335 
L 107.443078 163.482549 
L 107.889925 163.324576 
L 112.602128 162.157053 
L 113.048974 161.97291 
L 113.617688 161.836846 
L 120.767237 160.499725 
L 121.823421 160.342372 
L 122.798359 160.134565 
L 124.342012 159.927535 
L 125.723175 159.723266 
L 127.591807 159.453219 
L 153.224565 156.380333 
L 154.158881 156.271072 
L 154.48386 156.206433 
L 162.242746 155.481177 
L 163.583286 155.364812 
L 164.152 155.308923 
L 165.736275 155.153322 
L 166.183122 155.122658 
L 174.470099 154.390066 
L 175.079436 154.323943 
L 179.872883 153.899186 
L 194.740695 152.788739 
L 195.634389 152.738883 
L 202.905805 152.235038 
L 204.693192 152.088554 
L 243.487619 149.498621 
L 246.006211 149.364482 
L 266.683031 147.884851 
L 267.657969 147.798831 
L 269.648469 147.642343 
L 271.923325 147.486378 
L 273.426356 147.353277 
L 343.053212 142.406607 
L 344.109396 142.324251 
L 347.156079 142.127046 
L 349.309068 142.003593 
L 356.377372 141.483212 
L 356.824219 141.419315 
L 360.764595 141.132939 
L 363.120696 140.943779 
L 364.420614 140.831166 
L 376.769835 139.762503 
L 378.35411 139.611192 
L 380.263365 139.424602 
L 381.928885 139.307021 
L 385.097435 139.023747 
L 386.478598 138.898228 
L 388.306607 138.731233 
L 389.565903 138.599844 
L 390.459596 138.549619 
L 394.35935 138.167621 
L 394.84682 138.12084 
L 397.609145 137.867945 
L 398.055992 137.810452 
L 399.884002 137.551153 
L 400.290226 137.473067 
L 404.677449 137.067384 
L 405.368031 137.007112 
L 409.02405 136.654671 
L 410.323968 136.531109 
L 411.542641 136.408286 
L 414.426834 136.197473 
L 415.117416 136.096408 
L 417.229782 135.851853 
L 419.788996 135.579045 
L 421.170159 135.440418 
L 422.307587 135.30561 
L 424.013729 135.106139 
L 424.338709 135.051833 
L 429.903983 134.319315 
L 430.635187 134.211733 
L 432.178839 134.089792 
L 434.372451 133.864355 
L 434.941165 133.800484 
L 437.419134 133.538341 
L 439.572123 133.165029 
L 442.293826 132.873613 
L 443.146897 132.752966 
L 444.568682 132.622338 
L 445.137397 132.552113 
L 446.19358 132.426883 
L 451.555742 131.592202 
L 452.69317 131.437361 
L 454.724292 131.130111 
L 455.577363 131.042191 
L 459.03027 130.571043 
L 459.720851 130.433601 
L 460.777035 130.256149 
L 473.2075 127.821207 
L 473.410613 127.716797 
L 475.766714 127.118252 
L 475.929204 127.021951 
L 480.235182 125.599383 
L 480.641406 125.309639 
L 481.169498 125.118953 
L 481.453855 124.848337 
L 482.103814 124.668052 
L 485.191119 123.326407 
L 485.800456 123.127891 
L 488.440914 121.883325 
L 488.603404 121.772053 
L 488.887761 121.636184 
L 489.131496 121.389634 
L 489.37523 121.248585 
L 489.659587 121.066265 
L 489.984567 120.948087 
L 490.106434 120.909045 
L 490.268924 120.629697 
L 490.390791 120.505843 
L 491.000128 119.996922 
L 491.121995 119.662699 
L 491.487597 119.575836 
L 491.771954 119.283104 
L 491.934444 119.211782 
L 492.137556 119.006176 
L 492.340668 118.858588 
L 492.503158 118.646852 
L 492.990627 118.361004 
L 493.193739 118.104961 
L 493.234362 118.1011 
L 493.396852 117.616046 
L 493.924943 117.086043 
L 494.087433 116.69085 
L 494.981127 115.91888 
L 495.224861 115.296408 
L 495.387351 113.532614 
L 495.590463 113.334978 
L 495.631086 113.230959 
L 495.834198 111.716909 
L 495.996688 111.582361 
L 496.077933 111.38782 
L 496.240422 107.822449 
L 496.321667 107.738753 
L 496.443534 106.158554 
L 496.484157 106.071369 
L 496.606024 101.365336 
L 496.768514 100.953183 
L 496.890381 100.730795 
L 497.012249 98.389206 
L 497.093493 98.382371 
L 497.255983 98.088631 
L 497.296606 98.085455 
L 497.418473 97.03705 
L 497.459095 97.023878 
L 497.499718 96.879695 
L 497.621585 95.210321 
L 497.70283 95.163385 
L 497.824697 85.158269 
L 497.946565 85.140673 
L 498.109054 83.805937 
L 498.109054 83.805937 
" style="fill:none;stroke:#ff7f0e;stroke-linecap:square;stroke-width:1.5;"/>
   </g>
   <g id="line2d_14">
    <path clip-path="url(#p7a98a3fd97)" d="M 92.290909 158.031159 
L 92.413266 157.562596 
L 92.535623 156.170281 
L 93.677624 155.060966 
L 94.00391 154.731766 
L 94.28941 154.598937 
L 94.534124 154.44623 
L 95.349839 154.044535 
L 95.512982 153.946819 
L 95.839267 153.860566 
L 96.00241 153.764549 
L 96.532625 153.650763 
L 97.389125 153.341718 
L 98.082482 153.204365 
L 99.183697 152.916306 
L 100.040197 152.72271 
L 100.48884 152.59508 
L 101.304555 152.406438 
L 103.792484 151.945983 
L 104.445056 151.820859 
L 104.730556 151.725672 
L 105.383127 151.62918 
L 106.321199 151.514511 
L 106.729056 151.437507 
L 107.993414 151.194138 
L 108.278914 151.09244 
L 109.257771 150.936861 
L 109.951129 150.844218 
L 110.766843 150.787906 
L 111.786487 150.672923 
L 112.112772 150.631174 
L 122.676276 149.859247 
L 123.77749 149.772637 
L 125.001062 149.641337 
L 125.694419 149.582342 
L 126.958777 149.458789 
L 129.936135 149.215733 
L 132.016207 149.040128 
L 132.383279 148.999005 
L 134.055493 148.877345 
L 134.422565 148.842293 
L 136.298708 148.719564 
L 136.66578 148.664331 
L 138.419566 148.54383 
L 139.194495 148.4632 
L 141.315353 148.31732 
L 141.845567 148.254129 
L 147.147712 147.930369 
L 149.309355 147.82642 
L 150.369784 147.740759 
L 152.939285 147.609046 
L 153.469499 147.571117 
L 155.427214 147.451346 
L 160.647787 147.225486 
L 162.727859 147.111149 
L 163.58436 147.061236 
L 170.35479 146.779154 
L 174.84122 146.625548 
L 176.024006 146.56439 
L 178.675079 146.423598 
L 183.406223 146.172596 
L 186.995367 146.045293 
L 187.688724 146.004803 
L 191.685725 145.850372 
L 193.684226 145.764776 
L 197.232584 145.630996 
L 212.894303 144.958385 
L 217.788591 144.73909 
L 218.930591 144.679605 
L 221.826378 144.532134 
L 227.046951 144.330874 
L 234.633096 144.051795 
L 245.441313 143.687606 
L 246.379385 143.659348 
L 251.518387 143.472696 
L 257.636246 143.277934 
L 262.285819 143.138246 
L 263.550176 143.094308 
L 268.158963 142.928285 
L 270.810035 142.833945 
L 274.725465 142.69828 
L 281.291967 142.470016 
L 285.615254 142.333327 
L 290.42797 142.193859 
L 291.406827 142.160211 
L 293.119828 142.114027 
L 301.562473 141.834678 
L 376.159568 139.633487 
L 380.278926 139.475315 
L 385.703428 139.279923 
L 386.6415 139.224918 
L 416.945295 137.830322 
L 419.963438 137.585212 
L 421.676439 137.447049 
L 422.777654 137.369131 
L 424.857726 137.229271 
L 425.918155 137.169552 
L 428.406084 137.060004 
L 429.384941 137.02531 
L 431.01637 136.906769 
L 431.628156 136.845792 
L 435.258086 136.598106 
L 437.256587 136.46929 
L 438.113087 136.375798 
L 440.682588 136.227139 
L 441.294374 136.143742 
L 443.945446 135.898827 
L 444.516446 135.834231 
L 445.862375 135.749654 
L 448.309519 135.564296 
L 450.879019 135.373059 
L 455.528592 135.042831 
L 457.282379 134.920557 
L 462.42138 134.420609 
L 464.379095 134.216594 
L 466.744667 134.0362 
L 467.152524 133.983206 
L 474.657098 132.904744 
L 474.901812 132.793043 
L 475.268884 132.70578 
L 475.432027 132.634202 
L 475.88067 132.544865 
L 476.084599 132.501216 
L 476.492456 132.371818 
L 477.716028 132.019133 
L 478.694885 131.8701 
L 478.898814 131.785375 
L 479.429028 131.67951 
L 481.916958 130.814782 
L 482.610315 130.295637 
L 484.85353 129.850183 
L 486.933602 128.637054 
L 487.259888 128.551832 
L 487.463816 128.398804 
L 487.994031 128.280719 
L 488.197959 127.986557 
L 488.361102 127.913201 
L 488.565031 127.751996 
L 488.728174 127.641839 
L 488.809745 127.610705 
L 488.972888 127.171848 
L 489.503103 126.607945 
L 489.584674 126.584198 
L 489.707031 125.203296 
L 489.951746 125.070957 
L 490.114889 123.910871 
L 490.441174 123.750724 
L 491.62396 122.955704 
L 491.787103 122.233901 
L 491.991032 122.064656 
L 492.154175 121.846077 
L 492.684389 121.678317 
L 493.744818 121.332589 
L 493.948747 121.042077 
L 494.071104 120.983893 
L 494.39739 119.943677 
L 495.25389 119.710915 
L 495.947248 119.562322 
L 496.069605 119.444821 
L 496.191962 110.076034 
L 496.436676 110.026259 
L 496.559033 109.238869 
L 496.722176 109.128874 
L 496.885319 108.85684 
L 497.74182 108.728397 
L 497.904962 108.402084 
L 498.108891 108.236023 
L 498.108891 108.236023 
" style="fill:none;stroke:#2ca02c;stroke-linecap:square;stroke-width:1.5;"/>
   </g>
   <g id="line2d_15">
    <path clip-path="url(#p7a98a3fd97)" d="M 92.290909 146.006237 
L 93.187976 145.702183 
L 93.871456 145.589479 
L 95.964612 145.42323 
L 99.211141 145.236596 
L 100.5781 144.950913 
L 100.74897 144.887491 
L 101.731472 144.704245 
L 101.987777 144.636942 
L 102.842126 144.546671 
L 106.34496 144.088937 
L 106.51583 144.028629 
L 109.121596 143.917277 
L 115.913675 143.535574 
L 157.691369 142.790366 
L 252.73776 141.471458 
L 255.813419 141.418905 
L 269.867469 141.254697 
L 273.028563 141.22645 
L 283.75065 141.089196 
L 285.074892 141.054494 
L 299.00079 140.882609 
L 354.832535 140.098837 
L 357.181996 140.055072 
L 366.622559 139.926098 
L 380.078565 139.781594 
L 397.592731 139.576836 
L 430.100733 138.921709 
L 435.440418 138.739146 
L 441.33543 138.516716 
L 441.719887 138.491058 
L 444.923698 138.334175 
L 445.350873 138.308877 
L 450.049795 138.144357 
L 457.140897 137.531472 
L 457.610789 137.501416 
L 457.995247 137.368795 
L 458.208834 137.138279 
L 458.636009 136.967173 
L 462.608734 136.463283 
L 462.736887 136.211764 
L 463.035909 136.092177 
L 463.463084 135.97247 
L 463.932976 135.891284 
L 464.103846 135.785148 
L 465.513523 135.623616 
L 467.179505 135.532097 
L 469.315378 135.4186 
L 470.895925 135.26488 
L 471.194948 135.168086 
L 474.313324 135.010621 
L 476.57735 134.919561 
L 476.74822 134.90075 
L 476.91909 134.73121 
L 479.524856 134.561498 
L 482.472362 134.427464 
L 483.113124 134.406942 
L 486.445088 134.150194 
L 486.530523 134.005312 
L 486.658675 132.279977 
L 490.332378 132.021524 
L 495.074018 131.873487 
L 495.415758 131.832371 
L 496.270108 131.791433 
L 498.106959 131.693716 
L 498.106959 131.693716 
" style="fill:none;stroke:#d62728;stroke-linecap:square;stroke-width:1.5;"/>
   </g>
   <g id="line2d_16">
    <path clip-path="url(#p7a98a3fd97)" d="M 295.220293 256.32 
L 295.220293 34.56 
" style="fill:none;stroke:#808080;stroke-linecap:square;stroke-width:0.3;"/>
   </g>
   <g id="line2d_17">
    <path clip-path="url(#p7a98a3fd97)" d="M 72 162.059208 
L 518.4 162.059208 
" style="fill:none;stroke:#808080;stroke-linecap:square;stroke-width:0.3;"/>
   </g>
   <g id="patch_3">
    <path d="M 72 256.32 
L 72 34.56 
" style="fill:none;stroke:#000000;stroke-linecap:square;stroke-linejoin:miter;stroke-width:0.8;"/>
   </g>
   <g id="patch_4">
    <path d="M 518.4 256.32 
L 518.4 34.56 
" style="fill:none;stroke:#000000;stroke-linecap:square;stroke-linejoin:miter;stroke-width:0.8;"/>
   </g>
   <g id="patch_5">
    <path d="M 72 256.32 
L 518.4 256.32 
" style="fill:none;stroke:#000000;stroke-linecap:square;stroke-linejoin:miter;stroke-width:0.8;"/>
   </g>
   <g id="patch_6">
    <path d="M 72 34.56 
L 518.4 34.56 
" style="fill:none;stroke:#000000;stroke-linecap:square;stroke-linejoin:miter;stroke-width:0.8;"/>
   </g>
   <g id="legend_1">
    <g id="patch_7">
     <path d="M 79 101.2725 
L 204.032813 101.2725 
Q 206.032813 101.2725 206.032813 99.2725 
L 206.032813 41.56 
Q 206.032813 39.56 204.032813 39.56 
L 79 39.56 
Q 77 39.56 77 41.56 
L 77 99.2725 
Q 77 101.2725 79 101.2725 
z
" style="fill:#ffffff;opacity:0.8;stroke:#cccccc;stroke-linejoin:miter;"/>
    </g>
    <g id="line2d_18">
     <path d="M 81 47.658438 
L 101 47.658438 
" style="fill:none;stroke:#1f77b4;stroke-linecap:square;stroke-width:1.5;"/>
    </g>
    <g id="line2d_19"/>
    <g id="text_14">
     <!-- отдельные акции -->
     <defs>
      <path d="M 61.078125 54.6875 
L 70.0625 54.6875 
L 70.0625 0 
L 61.078125 0 
z
M 65.578125 56 
z
M 43.453125 16.21875 
Q 43.453125 20.609375 40.25 22.90625 
Q 37.0625 25.203125 30.90625 25.203125 
L 18.109375 25.203125 
L 18.109375 7.171875 
L 30.90625 7.171875 
Q 37.0625 7.171875 40.25 9.484375 
Q 43.453125 11.8125 43.453125 16.21875 
z
M 9.078125 54.6875 
L 18.109375 54.6875 
L 18.109375 32.375 
L 31.296875 32.375 
Q 41.75 32.375 47.390625 28.390625 
Q 53.03125 24.421875 53.03125 16.21875 
Q 53.03125 8.015625 47.390625 4 
Q 41.75 0 31.296875 0 
L 9.078125 0 
z
" id="DejaVuSans-1099"/>
     </defs>
     <g transform="translate(109 51.158438)scale(0.1 -0.1)">
      <use xlink:href="#DejaVuSans-1086"/>
      <use x="61.181641" xlink:href="#DejaVuSans-1090"/>
      <use x="119.433594" xlink:href="#DejaVuSans-1076"/>
      <use x="188.574219" xlink:href="#DejaVuSans-1077"/>
      <use x="250.097656" xlink:href="#DejaVuSans-1083"/>
      <use x="314.013672" xlink:href="#DejaVuSans-1100"/>
      <use x="372.949219" xlink:href="#DejaVuSans-1085"/>
      <use x="438.330078" xlink:href="#DejaVuSans-1099"/>
      <use x="517.285156" xlink:href="#DejaVuSans-1077"/>
      <use x="578.808594" xlink:href="#DejaVuSans-32"/>
      <use x="610.595703" xlink:href="#DejaVuSans-1072"/>
      <use x="671.875" xlink:href="#DejaVuSans-1082"/>
      <use x="732.275391" xlink:href="#DejaVuSans-1094"/>
      <use x="800.341797" xlink:href="#DejaVuSans-1080"/>
      <use x="865.332031" xlink:href="#DejaVuSans-1080"/>
     </g>
    </g>
    <g id="line2d_20">
     <path d="M 81 62.336563 
L 101 62.336563 
" style="fill:none;stroke:#ff7f0e;stroke-linecap:square;stroke-width:1.5;"/>
    </g>
    <g id="line2d_21"/>
    <g id="text_15">
     <!-- 10 акций -->
     <g transform="translate(109 65.836563)scale(0.1 -0.1)">
      <use xlink:href="#DejaVuSans-49"/>
      <use x="63.623047" xlink:href="#DejaVuSans-48"/>
      <use x="127.246094" xlink:href="#DejaVuSans-32"/>
      <use x="159.033203" xlink:href="#DejaVuSans-1072"/>
      <use x="220.3125" xlink:href="#DejaVuSans-1082"/>
      <use x="280.712891" xlink:href="#DejaVuSans-1094"/>
      <use x="348.779297" xlink:href="#DejaVuSans-1080"/>
      <use x="413.769531" xlink:href="#DejaVuSans-1081"/>
     </g>
    </g>
    <g id="line2d_22">
     <path d="M 81 77.014688 
L 101 77.014688 
" style="fill:none;stroke:#2ca02c;stroke-linecap:square;stroke-width:1.5;"/>
    </g>
    <g id="line2d_23"/>
    <g id="text_16">
     <!-- 50 акций -->
     <defs>
      <path d="M 10.796875 72.90625 
L 49.515625 72.90625 
L 49.515625 64.59375 
L 19.828125 64.59375 
L 19.828125 46.734375 
Q 21.96875 47.46875 24.109375 47.828125 
Q 26.265625 48.1875 28.421875 48.1875 
Q 40.625 48.1875 47.75 41.5 
Q 54.890625 34.8125 54.890625 23.390625 
Q 54.890625 11.625 47.5625 5.09375 
Q 40.234375 -1.421875 26.90625 -1.421875 
Q 22.3125 -1.421875 17.546875 -0.640625 
Q 12.796875 0.140625 7.71875 1.703125 
L 7.71875 11.625 
Q 12.109375 9.234375 16.796875 8.0625 
Q 21.484375 6.890625 26.703125 6.890625 
Q 35.15625 6.890625 40.078125 11.328125 
Q 45.015625 15.765625 45.015625 23.390625 
Q 45.015625 31 40.078125 35.4375 
Q 35.15625 39.890625 26.703125 39.890625 
Q 22.75 39.890625 18.8125 39.015625 
Q 14.890625 38.140625 10.796875 36.28125 
z
" id="DejaVuSans-53"/>
     </defs>
     <g transform="translate(109 80.514688)scale(0.1 -0.1)">
      <use xlink:href="#DejaVuSans-53"/>
      <use x="63.623047" xlink:href="#DejaVuSans-48"/>
      <use x="127.246094" xlink:href="#DejaVuSans-32"/>
      <use x="159.033203" xlink:href="#DejaVuSans-1072"/>
      <use x="220.3125" xlink:href="#DejaVuSans-1082"/>
      <use x="280.712891" xlink:href="#DejaVuSans-1094"/>
      <use x="348.779297" xlink:href="#DejaVuSans-1080"/>
      <use x="413.769531" xlink:href="#DejaVuSans-1081"/>
     </g>
    </g>
    <g id="line2d_24">
     <path d="M 81 91.692813 
L 101 91.692813 
" style="fill:none;stroke:#d62728;stroke-linecap:square;stroke-width:1.5;"/>
    </g>
    <g id="line2d_25"/>
    <g id="text_17">
     <!-- 500 акций -->
     <g transform="translate(109 95.192813)scale(0.1 -0.1)">
      <use xlink:href="#DejaVuSans-53"/>
      <use x="63.623047" xlink:href="#DejaVuSans-48"/>
      <use x="127.246094" xlink:href="#DejaVuSans-48"/>
      <use x="190.869141" xlink:href="#DejaVuSans-32"/>
      <use x="222.65625" xlink:href="#DejaVuSans-1072"/>
      <use x="283.935547" xlink:href="#DejaVuSans-1082"/>
      <use x="344.335938" xlink:href="#DejaVuSans-1094"/>
      <use x="412.402344" xlink:href="#DejaVuSans-1080"/>
      <use x="477.392578" xlink:href="#DejaVuSans-1081"/>
     </g>
    </g>
   </g>
  </g>
 </g>
 <defs>
  <clipPath id="p7a98a3fd97">
   <rect height="221.76" width="446.4" x="72" y="34.56"/>
  </clipPath>
 </defs>
</svg>
