<?xml version="1.0" encoding="utf-8" standalone="no"?>
<!DOCTYPE svg PUBLIC "-//W3C//DTD SVG 1.1//EN"
  "http://www.w3.org/Graphics/SVG/1.1/DTD/svg11.dtd">
<!-- Created with matplotlib (https://matplotlib.org/) -->
<svg height="288pt" version="1.1" viewBox="0 0 576 288" width="576pt" xmlns="http://www.w3.org/2000/svg" xmlns:xlink="http://www.w3.org/1999/xlink">
 <defs>
  <style type="text/css">
*{stroke-linecap:butt;stroke-linejoin:round;}
  </style>
 </defs>
 <g id="figure_1">
  <g id="patch_1">
   <path d="M 0 288 
L 576 288 
L 576 0 
L 0 0 
z
" style="fill:#ffffff;"/>
  </g>
  <g id="axes_1">
   <g id="patch_2">
    <path d="M 72 256.32 
L 518.4 256.32 
L 518.4 34.56 
L 72 34.56 
z
" style="fill:#ffffff;"/>
   </g>
   <g id="matplotlib.axis_1">
    <g id="xtick_1">
     <g id="line2d_1">
      <defs>
       <path d="M 0 0 
L 0 3.5 
" id="m2189b6756c" style="stroke:#000000;stroke-width:0.8;"/>
      </defs>
      <g>
       <use style="stroke:#000000;stroke-width:0.8;" x="92.290909" xlink:href="#m2189b6756c" y="256.32"/>
      </g>
     </g>
     <g id="text_1">
      <!-- 0 -->
      <defs>
       <path d="M 31.78125 66.40625 
Q 24.171875 66.40625 20.328125 58.90625 
Q 16.5 51.421875 16.5 36.375 
Q 16.5 21.390625 20.328125 13.890625 
Q 24.171875 6.390625 31.78125 6.390625 
Q 39.453125 6.390625 43.28125 13.890625 
Q 47.125 21.390625 47.125 36.375 
Q 47.125 51.421875 43.28125 58.90625 
Q 39.453125 66.40625 31.78125 66.40625 
z
M 31.78125 74.21875 
Q 44.046875 74.21875 50.515625 64.515625 
Q 56.984375 54.828125 56.984375 36.375 
Q 56.984375 17.96875 50.515625 8.265625 
Q 44.046875 -1.421875 31.78125 -1.421875 
Q 19.53125 -1.421875 13.0625 8.265625 
Q 6.59375 17.96875 6.59375 36.375 
Q 6.59375 54.828125 13.0625 64.515625 
Q 19.53125 74.21875 31.78125 74.21875 
z
" id="DejaVuSans-48"/>
      </defs>
      <g transform="translate(89.109659 270.918437)scale(0.1 -0.1)">
       <use xlink:href="#DejaVuSans-48"/>
      </g>
     </g>
    </g>
    <g id="xtick_2">
     <g id="line2d_2">
      <g>
       <use style="stroke:#000000;stroke-width:0.8;" x="173.462663" xlink:href="#m2189b6756c" y="256.32"/>
      </g>
     </g>
     <g id="text_2">
      <!-- 20 -->
      <defs>
       <path d="M 19.1875 8.296875 
L 53.609375 8.296875 
L 53.609375 0 
L 7.328125 0 
L 7.328125 8.296875 
Q 12.9375 14.109375 22.625 23.890625 
Q 32.328125 33.6875 34.8125 36.53125 
Q 39.546875 41.84375 41.421875 45.53125 
Q 43.3125 49.21875 43.3125 52.78125 
Q 43.3125 58.59375 39.234375 62.25 
Q 35.15625 65.921875 28.609375 65.921875 
Q 23.96875 65.921875 18.8125 64.3125 
Q 13.671875 62.703125 7.8125 59.421875 
L 7.8125 69.390625 
Q 13.765625 71.78125 18.9375 73 
Q 24.125 74.21875 28.421875 74.21875 
Q 39.75 74.21875 46.484375 68.546875 
Q 53.21875 62.890625 53.21875 53.421875 
Q 53.21875 48.921875 51.53125 44.890625 
Q 49.859375 40.875 45.40625 35.40625 
Q 44.1875 33.984375 37.640625 27.21875 
Q 31.109375 20.453125 19.1875 8.296875 
z
" id="DejaVuSans-50"/>
      </defs>
      <g transform="translate(167.100163 270.918437)scale(0.1 -0.1)">
       <use xlink:href="#DejaVuSans-50"/>
       <use x="63.623047" xlink:href="#DejaVuSans-48"/>
      </g>
     </g>
    </g>
    <g id="xtick_3">
     <g id="line2d_3">
      <g>
       <use style="stroke:#000000;stroke-width:0.8;" x="254.634416" xlink:href="#m2189b6756c" y="256.32"/>
      </g>
     </g>
     <g id="text_3">
      <!-- 40 -->
      <defs>
       <path d="M 37.796875 64.3125 
L 12.890625 25.390625 
L 37.796875 25.390625 
z
M 35.203125 72.90625 
L 47.609375 72.90625 
L 47.609375 25.390625 
L 58.015625 25.390625 
L 58.015625 17.1875 
L 47.609375 17.1875 
L 47.609375 0 
L 37.796875 0 
L 37.796875 17.1875 
L 4.890625 17.1875 
L 4.890625 26.703125 
z
" id="DejaVuSans-52"/>
      </defs>
      <g transform="translate(248.271916 270.918437)scale(0.1 -0.1)">
       <use xlink:href="#DejaVuSans-52"/>
       <use x="63.623047" xlink:href="#DejaVuSans-48"/>
      </g>
     </g>
    </g>
    <g id="xtick_4">
     <g id="line2d_4">
      <g>
       <use style="stroke:#000000;stroke-width:0.8;" x="335.80617" xlink:href="#m2189b6756c" y="256.32"/>
      </g>
     </g>
     <g id="text_4">
      <!-- 60 -->
      <defs>
       <path d="M 33.015625 40.375 
Q 26.375 40.375 22.484375 35.828125 
Q 18.609375 31.296875 18.609375 23.390625 
Q 18.609375 15.53125 22.484375 10.953125 
Q 26.375 6.390625 33.015625 6.390625 
Q 39.65625 6.390625 43.53125 10.953125 
Q 47.40625 15.53125 47.40625 23.390625 
Q 47.40625 31.296875 43.53125 35.828125 
Q 39.65625 40.375 33.015625 40.375 
z
M 52.59375 71.296875 
L 52.59375 62.3125 
Q 48.875 64.0625 45.09375 64.984375 
Q 41.3125 65.921875 37.59375 65.921875 
Q 27.828125 65.921875 22.671875 59.328125 
Q 17.53125 52.734375 16.796875 39.40625 
Q 19.671875 43.65625 24.015625 45.921875 
Q 28.375 48.1875 33.59375 48.1875 
Q 44.578125 48.1875 50.953125 41.515625 
Q 57.328125 34.859375 57.328125 23.390625 
Q 57.328125 12.15625 50.6875 5.359375 
Q 44.046875 -1.421875 33.015625 -1.421875 
Q 20.359375 -1.421875 13.671875 8.265625 
Q 6.984375 17.96875 6.984375 36.375 
Q 6.984375 53.65625 15.1875 63.9375 
Q 23.390625 74.21875 37.203125 74.21875 
Q 40.921875 74.21875 44.703125 73.484375 
Q 48.484375 72.75 52.59375 71.296875 
z
" id="DejaVuSans-54"/>
      </defs>
      <g transform="translate(329.44367 270.918437)scale(0.1 -0.1)">
       <use xlink:href="#DejaVuSans-54"/>
       <use x="63.623047" xlink:href="#DejaVuSans-48"/>
      </g>
     </g>
    </g>
    <g id="xtick_5">
     <g id="line2d_5">
      <g>
       <use style="stroke:#000000;stroke-width:0.8;" x="416.977923" xlink:href="#m2189b6756c" y="256.32"/>
      </g>
     </g>
     <g id="text_5">
      <!-- 80 -->
      <defs>
       <path d="M 31.78125 34.625 
Q 24.75 34.625 20.71875 30.859375 
Q 16.703125 27.09375 16.703125 20.515625 
Q 16.703125 13.921875 20.71875 10.15625 
Q 24.75 6.390625 31.78125 6.390625 
Q 38.8125 6.390625 42.859375 10.171875 
Q 46.921875 13.96875 46.921875 20.515625 
Q 46.921875 27.09375 42.890625 30.859375 
Q 38.875 34.625 31.78125 34.625 
z
M 21.921875 38.8125 
Q 15.578125 40.375 12.03125 44.71875 
Q 8.5 49.078125 8.5 55.328125 
Q 8.5 64.0625 14.71875 69.140625 
Q 20.953125 74.21875 31.78125 74.21875 
Q 42.671875 74.21875 48.875 69.140625 
Q 55.078125 64.0625 55.078125 55.328125 
Q 55.078125 49.078125 51.53125 44.71875 
Q 48 40.375 41.703125 38.8125 
Q 48.828125 37.15625 52.796875 32.3125 
Q 56.78125 27.484375 56.78125 20.515625 
Q 56.78125 9.90625 50.3125 4.234375 
Q 43.84375 -1.421875 31.78125 -1.421875 
Q 19.734375 -1.421875 13.25 4.234375 
Q 6.78125 9.90625 6.78125 20.515625 
Q 6.78125 27.484375 10.78125 32.3125 
Q 14.796875 37.15625 21.921875 38.8125 
z
M 18.3125 54.390625 
Q 18.3125 48.734375 21.84375 45.5625 
Q 25.390625 42.390625 31.78125 42.390625 
Q 38.140625 42.390625 41.71875 45.5625 
Q 45.3125 48.734375 45.3125 54.390625 
Q 45.3125 60.0625 41.71875 63.234375 
Q 38.140625 66.40625 31.78125 66.40625 
Q 25.390625 66.40625 21.84375 63.234375 
Q 18.3125 60.0625 18.3125 54.390625 
z
" id="DejaVuSans-56"/>
      </defs>
      <g transform="translate(410.615423 270.918437)scale(0.1 -0.1)">
       <use xlink:href="#DejaVuSans-56"/>
       <use x="63.623047" xlink:href="#DejaVuSans-48"/>
      </g>
     </g>
    </g>
    <g id="xtick_6">
     <g id="line2d_6">
      <g>
       <use style="stroke:#000000;stroke-width:0.8;" x="498.149677" xlink:href="#m2189b6756c" y="256.32"/>
      </g>
     </g>
     <g id="text_6">
      <!-- 100 -->
      <defs>
       <path d="M 12.40625 8.296875 
L 28.515625 8.296875 
L 28.515625 63.921875 
L 10.984375 60.40625 
L 10.984375 69.390625 
L 28.421875 72.90625 
L 38.28125 72.90625 
L 38.28125 8.296875 
L 54.390625 8.296875 
L 54.390625 0 
L 12.40625 0 
z
" id="DejaVuSans-49"/>
      </defs>
      <g transform="translate(488.605927 270.918437)scale(0.1 -0.1)">
       <use xlink:href="#DejaVuSans-49"/>
       <use x="63.623047" xlink:href="#DejaVuSans-48"/>
       <use x="127.246094" xlink:href="#DejaVuSans-48"/>
      </g>
     </g>
    </g>
    <g id="text_7">
     <!-- доля акций/портфелей, % -->
     <defs>
      <path d="M 21.625 7.171875 
L 47.703125 7.171875 
L 47.703125 47.515625 
L 28.8125 47.515625 
L 28.8125 40.671875 
Q 28.8125 20.5625 23.046875 9.8125 
z
M 8.59375 7.171875 
Q 13.03125 9.125 14.984375 13.28125 
Q 19.78125 23.578125 19.78125 44.34375 
L 19.78125 54.6875 
L 56.734375 54.6875 
L 56.734375 7.171875 
L 63.921875 7.171875 
L 63.921875 -13.8125 
L 56.734375 -13.8125 
L 56.734375 0 
L 12.40625 0 
L 12.40625 -13.8125 
L 5.21875 -13.8125 
L 5.21875 7.171875 
z
" id="DejaVuSans-1076"/>
      <path d="M 30.609375 48.390625 
Q 23.390625 48.390625 19.1875 42.75 
Q 14.984375 37.109375 14.984375 27.296875 
Q 14.984375 17.484375 19.15625 11.84375 
Q 23.34375 6.203125 30.609375 6.203125 
Q 37.796875 6.203125 41.984375 11.859375 
Q 46.1875 17.53125 46.1875 27.296875 
Q 46.1875 37.015625 41.984375 42.703125 
Q 37.796875 48.390625 30.609375 48.390625 
z
M 30.609375 56 
Q 42.328125 56 49.015625 48.375 
Q 55.71875 40.765625 55.71875 27.296875 
Q 55.71875 13.875 49.015625 6.21875 
Q 42.328125 -1.421875 30.609375 -1.421875 
Q 18.84375 -1.421875 12.171875 6.21875 
Q 5.515625 13.875 5.515625 27.296875 
Q 5.515625 40.765625 12.171875 48.375 
Q 18.84375 56 30.609375 56 
z
" id="DejaVuSans-1086"/>
      <path d="M 3.71875 0 
L 3.71875 7.46875 
Q 12.59375 8.84375 15.328125 14.984375 
Q 18.65625 23.640625 18.65625 45.75 
L 18.65625 54.6875 
L 55.609375 54.6875 
L 55.609375 0 
L 46.625 0 
L 46.625 47.515625 
L 27.640625 47.515625 
L 27.640625 42.09375 
Q 27.640625 21 23.34375 11.53125 
Q 18.75 1.421875 3.71875 0 
z
" id="DejaVuSans-1083"/>
      <path d="M 18.453125 38.921875 
Q 18.453125 34.859375 21.578125 32.5625 
Q 24.703125 30.28125 30.515625 30.28125 
L 42.625 30.28125 
L 42.625 47.515625 
L 30.515625 47.515625 
Q 24.703125 47.515625 21.578125 45.265625 
Q 18.453125 43.015625 18.453125 38.921875 
z
M 5.671875 0 
L 22.359375 23.96875 
Q 16.703125 25.25 12.9375 28.59375 
Q 9.1875 31.9375 9.1875 38.921875 
Q 9.1875 46.828125 14.421875 50.75 
Q 19.671875 54.6875 30.28125 54.6875 
L 51.65625 54.6875 
L 51.65625 0 
L 42.625 0 
L 42.625 23.09375 
L 31.453125 23.09375 
L 15.328125 0 
z
" id="DejaVuSans-1103"/>
      <path id="DejaVuSans-32"/>
      <path d="M 34.28125 27.484375 
Q 23.390625 27.484375 19.1875 25 
Q 14.984375 22.515625 14.984375 16.5 
Q 14.984375 11.71875 18.140625 8.90625 
Q 21.296875 6.109375 26.703125 6.109375 
Q 34.1875 6.109375 38.703125 11.40625 
Q 43.21875 16.703125 43.21875 25.484375 
L 43.21875 27.484375 
z
M 52.203125 31.203125 
L 52.203125 0 
L 43.21875 0 
L 43.21875 8.296875 
Q 40.140625 3.328125 35.546875 0.953125 
Q 30.953125 -1.421875 24.3125 -1.421875 
Q 15.921875 -1.421875 10.953125 3.296875 
Q 6 8.015625 6 15.921875 
Q 6 25.140625 12.171875 29.828125 
Q 18.359375 34.515625 30.609375 34.515625 
L 43.21875 34.515625 
L 43.21875 35.40625 
Q 43.21875 41.609375 39.140625 45 
Q 35.0625 48.390625 27.6875 48.390625 
Q 23 48.390625 18.546875 47.265625 
Q 14.109375 46.140625 10.015625 43.890625 
L 10.015625 52.203125 
Q 14.9375 54.109375 19.578125 55.046875 
Q 24.21875 56 28.609375 56 
Q 40.484375 56 46.34375 49.84375 
Q 52.203125 43.703125 52.203125 31.203125 
z
" id="DejaVuSans-1072"/>
      <path d="M 9.078125 54.6875 
L 18.015625 54.6875 
L 18.015625 29 
L 43.359375 54.6875 
L 54.390625 54.6875 
L 33.5 33.546875 
L 57.078125 0 
L 47.015625 0 
L 27.640625 27.59375 
L 18.015625 17.828125 
L 18.015625 0 
L 9.078125 0 
z
" id="DejaVuSans-1082"/>
      <path d="M 56.296875 0 
L 9.078125 0 
L 9.078125 54.6875 
L 18.109375 54.6875 
L 18.109375 7.171875 
L 47.265625 7.171875 
L 47.265625 54.6875 
L 56.296875 54.6875 
L 56.296875 7.171875 
L 63.484375 7.171875 
L 63.484375 -13.8125 
L 56.296875 -13.8125 
z
" id="DejaVuSans-1094"/>
      <path d="M 55.90625 54.6875 
L 55.90625 0 
L 46.96875 0 
L 46.96875 43.890625 
L 20.609375 0 
L 9.078125 0 
L 9.078125 54.6875 
L 18.015625 54.6875 
L 18.015625 10.890625 
L 44.34375 54.6875 
z
" id="DejaVuSans-1080"/>
      <path d="M 55.90625 54.6875 
L 55.90625 0 
L 46.96875 0 
L 46.96875 43.890625 
L 20.609375 0 
L 9.078125 0 
L 9.078125 54.6875 
L 18.015625 54.6875 
L 18.015625 10.890625 
L 44.34375 54.6875 
z
M 17.234375 75.96875 
L 23 75.96875 
Q 23.53125 72.3125 25.890625 70.46875 
Q 28.265625 68.640625 32.515625 68.640625 
Q 36.71875 68.640625 39.0625 70.453125 
Q 41.40625 72.265625 42.046875 75.96875 
L 47.796875 75.96875 
Q 47.3125 68.984375 43.453125 65.46875 
Q 39.59375 61.953125 32.515625 61.953125 
Q 25.4375 61.953125 21.578125 65.46875 
Q 17.71875 68.984375 17.234375 75.96875 
z
" id="DejaVuSans-1081"/>
      <path d="M 25.390625 72.90625 
L 33.6875 72.90625 
L 8.296875 -9.28125 
L 0 -9.28125 
z
" id="DejaVuSans-47"/>
      <path d="M 56.296875 54.6875 
L 56.296875 0 
L 47.265625 0 
L 47.265625 47.515625 
L 18.109375 47.515625 
L 18.109375 0 
L 9.078125 0 
L 9.078125 54.6875 
z
" id="DejaVuSans-1087"/>
      <path d="M 18.109375 8.203125 
L 18.109375 -20.796875 
L 9.078125 -20.796875 
L 9.078125 54.6875 
L 18.109375 54.6875 
L 18.109375 46.390625 
Q 20.953125 51.265625 25.265625 53.625 
Q 29.59375 56 35.59375 56 
Q 45.5625 56 51.78125 48.09375 
Q 58.015625 40.1875 58.015625 27.296875 
Q 58.015625 14.40625 51.78125 6.484375 
Q 45.5625 -1.421875 35.59375 -1.421875 
Q 29.59375 -1.421875 25.265625 0.953125 
Q 20.953125 3.328125 18.109375 8.203125 
z
M 48.6875 27.296875 
Q 48.6875 37.203125 44.609375 42.84375 
Q 40.53125 48.484375 33.40625 48.484375 
Q 26.265625 48.484375 22.1875 42.84375 
Q 18.109375 37.203125 18.109375 27.296875 
Q 18.109375 17.390625 22.1875 11.75 
Q 26.265625 6.109375 33.40625 6.109375 
Q 40.53125 6.109375 44.609375 11.75 
Q 48.6875 17.390625 48.6875 27.296875 
z
" id="DejaVuSans-1088"/>
      <path d="M 2.9375 54.6875 
L 55.328125 54.6875 
L 55.328125 47.515625 
L 33.546875 47.515625 
L 33.546875 0 
L 24.703125 0 
L 24.703125 47.515625 
L 2.9375 47.515625 
z
" id="DejaVuSans-1090"/>
      <path d="M 14.796875 27.296875 
Q 14.796875 15.828125 18.328125 10.96875 
Q 21.875 6.109375 27.875 6.109375 
Q 32.671875 6.109375 38.234375 14.3125 
L 38.234375 40.28125 
Q 32.671875 48.484375 27.875 48.484375 
Q 21.875 48.484375 18.328125 43.625 
Q 14.796875 38.765625 14.796875 27.296875 
z
M 38.234375 -20.796875 
L 38.234375 6.984375 
Q 35.453125 2.390625 32.25 0.484375 
Q 29.046875 -1.421875 25 -1.421875 
Q 16.84375 -1.421875 11.15625 6.125 
Q 5.46875 13.671875 5.46875 27.09375 
Q 5.46875 40.53125 11.15625 48.265625 
Q 16.84375 56 25 56 
Q 29.046875 56 32.25 54.140625 
Q 35.453125 52.296875 38.234375 47.703125 
L 38.234375 72.90625 
L 47.265625 72.90625 
L 47.265625 47.703125 
Q 50.046875 52.296875 53.25 54.140625 
Q 56.453125 56 60.5 56 
Q 68.65625 56 74.34375 48.265625 
Q 80.03125 40.53125 80.03125 27.09375 
Q 80.03125 13.671875 74.34375 6.125 
Q 68.65625 -1.421875 60.5 -1.421875 
Q 56.453125 -1.421875 53.25 0.484375 
Q 50.046875 2.390625 47.265625 6.984375 
L 47.265625 -20.796875 
z
M 70.703125 27.296875 
Q 70.703125 38.765625 67.15625 43.625 
Q 63.625 48.484375 57.625 48.484375 
Q 52.828125 48.484375 47.265625 40.28125 
L 47.265625 14.3125 
Q 52.828125 6.109375 57.625 6.109375 
Q 63.625 6.109375 67.15625 10.96875 
Q 70.703125 15.828125 70.703125 27.296875 
z
" id="DejaVuSans-1092"/>
      <path d="M 56.203125 29.59375 
L 56.203125 25.203125 
L 14.890625 25.203125 
Q 15.484375 15.921875 20.484375 11.0625 
Q 25.484375 6.203125 34.421875 6.203125 
Q 39.59375 6.203125 44.453125 7.46875 
Q 49.3125 8.734375 54.109375 11.28125 
L 54.109375 2.78125 
Q 49.265625 0.734375 44.1875 -0.34375 
Q 39.109375 -1.421875 33.890625 -1.421875 
Q 20.796875 -1.421875 13.15625 6.1875 
Q 5.515625 13.8125 5.515625 26.8125 
Q 5.515625 40.234375 12.765625 48.109375 
Q 20.015625 56 32.328125 56 
Q 43.359375 56 49.78125 48.890625 
Q 56.203125 41.796875 56.203125 29.59375 
z
M 47.21875 32.234375 
Q 47.125 39.59375 43.09375 43.984375 
Q 39.0625 48.390625 32.421875 48.390625 
Q 24.90625 48.390625 20.390625 44.140625 
Q 15.875 39.890625 15.1875 32.171875 
z
" id="DejaVuSans-1077"/>
      <path d="M 11.71875 12.40625 
L 22.015625 12.40625 
L 22.015625 4 
L 14.015625 -11.625 
L 7.71875 -11.625 
L 11.71875 4 
z
" id="DejaVuSans-44"/>
      <path d="M 72.703125 32.078125 
Q 68.453125 32.078125 66.03125 28.46875 
Q 63.625 24.859375 63.625 18.40625 
Q 63.625 12.0625 66.03125 8.421875 
Q 68.453125 4.78125 72.703125 4.78125 
Q 76.859375 4.78125 79.265625 8.421875 
Q 81.6875 12.0625 81.6875 18.40625 
Q 81.6875 24.8125 79.265625 28.4375 
Q 76.859375 32.078125 72.703125 32.078125 
z
M 72.703125 38.28125 
Q 80.421875 38.28125 84.953125 32.90625 
Q 89.5 27.546875 89.5 18.40625 
Q 89.5 9.28125 84.9375 3.921875 
Q 80.375 -1.421875 72.703125 -1.421875 
Q 64.890625 -1.421875 60.34375 3.921875 
Q 55.8125 9.28125 55.8125 18.40625 
Q 55.8125 27.59375 60.375 32.9375 
Q 64.9375 38.28125 72.703125 38.28125 
z
M 22.3125 68.015625 
Q 18.109375 68.015625 15.6875 64.375 
Q 13.28125 60.75 13.28125 54.390625 
Q 13.28125 47.953125 15.671875 44.328125 
Q 18.0625 40.71875 22.3125 40.71875 
Q 26.5625 40.71875 28.96875 44.328125 
Q 31.390625 47.953125 31.390625 54.390625 
Q 31.390625 60.6875 28.953125 64.34375 
Q 26.515625 68.015625 22.3125 68.015625 
z
M 66.40625 74.21875 
L 74.21875 74.21875 
L 28.609375 -1.421875 
L 20.796875 -1.421875 
z
M 22.3125 74.21875 
Q 30.03125 74.21875 34.609375 68.875 
Q 39.203125 63.53125 39.203125 54.390625 
Q 39.203125 45.171875 34.640625 39.84375 
Q 30.078125 34.515625 22.3125 34.515625 
Q 14.546875 34.515625 10.03125 39.859375 
Q 5.515625 45.21875 5.515625 54.390625 
Q 5.515625 63.484375 10.046875 68.84375 
Q 14.59375 74.21875 22.3125 74.21875 
z
" id="DejaVuSans-37"/>
     </defs>
     <g transform="translate(226.003125 284.596563)scale(0.1 -0.1)">
      <use xlink:href="#DejaVuSans-1076"/>
      <use x="69.140625" xlink:href="#DejaVuSans-1086"/>
      <use x="130.322266" xlink:href="#DejaVuSans-1083"/>
      <use x="194.238281" xlink:href="#DejaVuSans-1103"/>
      <use x="254.394531" xlink:href="#DejaVuSans-32"/>
      <use x="286.181641" xlink:href="#DejaVuSans-1072"/>
      <use x="347.460938" xlink:href="#DejaVuSans-1082"/>
      <use x="407.861328" xlink:href="#DejaVuSans-1094"/>
      <use x="475.927734" xlink:href="#DejaVuSans-1080"/>
      <use x="540.917969" xlink:href="#DejaVuSans-1081"/>
      <use x="605.908203" xlink:href="#DejaVuSans-47"/>
      <use x="639.599609" xlink:href="#DejaVuSans-1087"/>
      <use x="704.980469" xlink:href="#DejaVuSans-1086"/>
      <use x="766.162109" xlink:href="#DejaVuSans-1088"/>
      <use x="829.638672" xlink:href="#DejaVuSans-1090"/>
      <use x="887.890625" xlink:href="#DejaVuSans-1092"/>
      <use x="973.388672" xlink:href="#DejaVuSans-1077"/>
      <use x="1034.912109" xlink:href="#DejaVuSans-1083"/>
      <use x="1098.828125" xlink:href="#DejaVuSans-1077"/>
      <use x="1160.351562" xlink:href="#DejaVuSans-1081"/>
      <use x="1225.341797" xlink:href="#DejaVuSans-44"/>
      <use x="1257.128906" xlink:href="#DejaVuSans-32"/>
      <use x="1288.916016" xlink:href="#DejaVuSans-37"/>
     </g>
    </g>
   </g>
   <g id="matplotlib.axis_2">
    <g id="ytick_1">
     <g id="line2d_7">
      <defs>
       <path d="M 0 0 
L -3.5 0 
" id="m4232edebba" style="stroke:#000000;stroke-width:0.8;"/>
      </defs>
      <g>
       <use style="stroke:#000000;stroke-width:0.8;" x="72" xlink:href="#m4232edebba" y="251.139336"/>
      </g>
     </g>
     <g id="text_8">
      <!-- −20 -->
      <defs>
       <path d="M 10.59375 35.5 
L 73.1875 35.5 
L 73.1875 27.203125 
L 10.59375 27.203125 
z
" id="DejaVuSans-8722"/>
      </defs>
      <g transform="translate(43.895313 254.938555)scale(0.1 -0.1)">
       <use xlink:href="#DejaVuSans-8722"/>
       <use x="83.789062" xlink:href="#DejaVuSans-50"/>
       <use x="147.412109" xlink:href="#DejaVuSans-48"/>
      </g>
     </g>
    </g>
    <g id="ytick_2">
     <g id="line2d_8">
      <g>
       <use style="stroke:#000000;stroke-width:0.8;" x="72" xlink:href="#m4232edebba" y="204.379013"/>
      </g>
     </g>
     <g id="text_9">
      <!-- −10 -->
      <g transform="translate(43.895313 208.178232)scale(0.1 -0.1)">
       <use xlink:href="#DejaVuSans-8722"/>
       <use x="83.789062" xlink:href="#DejaVuSans-49"/>
       <use x="147.412109" xlink:href="#DejaVuSans-48"/>
      </g>
     </g>
    </g>
    <g id="ytick_3">
     <g id="line2d_9">
      <g>
       <use style="stroke:#000000;stroke-width:0.8;" x="72" xlink:href="#m4232edebba" y="157.61869"/>
      </g>
     </g>
     <g id="text_10">
      <!-- 0 -->
      <g transform="translate(58.6375 161.417909)scale(0.1 -0.1)">
       <use xlink:href="#DejaVuSans-48"/>
      </g>
     </g>
    </g>
    <g id="ytick_4">
     <g id="line2d_10">
      <g>
       <use style="stroke:#000000;stroke-width:0.8;" x="72" xlink:href="#m4232edebba" y="110.858367"/>
      </g>
     </g>
     <g id="text_11">
      <!-- 10 -->
      <g transform="translate(52.275 114.657585)scale(0.1 -0.1)">
       <use xlink:href="#DejaVuSans-49"/>
       <use x="63.623047" xlink:href="#DejaVuSans-48"/>
      </g>
     </g>
    </g>
    <g id="ytick_5">
     <g id="line2d_11">
      <g>
       <use style="stroke:#000000;stroke-width:0.8;" x="72" xlink:href="#m4232edebba" y="64.098044"/>
      </g>
     </g>
     <g id="text_12">
      <!-- 20 -->
      <g transform="translate(52.275 67.897262)scale(0.1 -0.1)">
       <use xlink:href="#DejaVuSans-50"/>
       <use x="63.623047" xlink:href="#DejaVuSans-48"/>
      </g>
     </g>
    </g>
    <g id="text_13">
     <!-- доходность, %г -->
     <defs>
      <path d="M 54.890625 54.6875 
L 35.109375 28.078125 
L 55.90625 0 
L 45.3125 0 
L 29.390625 21.484375 
L 13.484375 0 
L 2.875 0 
L 24.125 28.609375 
L 4.6875 54.6875 
L 15.28125 54.6875 
L 29.78125 35.203125 
L 44.28125 54.6875 
z
" id="DejaVuSans-1093"/>
      <path d="M 9.078125 54.6875 
L 18.109375 54.6875 
L 18.109375 32.375 
L 47.265625 32.375 
L 47.265625 54.6875 
L 56.296875 54.6875 
L 56.296875 0 
L 47.265625 0 
L 47.265625 25.203125 
L 18.109375 25.203125 
L 18.109375 0 
L 9.078125 0 
z
" id="DejaVuSans-1085"/>
      <path d="M 48.78125 52.59375 
L 48.78125 44.1875 
Q 44.96875 46.296875 41.140625 47.34375 
Q 37.3125 48.390625 33.40625 48.390625 
Q 24.65625 48.390625 19.8125 42.84375 
Q 14.984375 37.3125 14.984375 27.296875 
Q 14.984375 17.28125 19.8125 11.734375 
Q 24.65625 6.203125 33.40625 6.203125 
Q 37.3125 6.203125 41.140625 7.25 
Q 44.96875 8.296875 48.78125 10.40625 
L 48.78125 2.09375 
Q 45.015625 0.34375 40.984375 -0.53125 
Q 36.96875 -1.421875 32.421875 -1.421875 
Q 20.0625 -1.421875 12.78125 6.34375 
Q 5.515625 14.109375 5.515625 27.296875 
Q 5.515625 40.671875 12.859375 48.328125 
Q 20.21875 56 33.015625 56 
Q 37.15625 56 41.109375 55.140625 
Q 45.0625 54.296875 48.78125 52.59375 
z
" id="DejaVuSans-1089"/>
      <path d="M 43.453125 16.21875 
Q 43.453125 20.609375 40.25 22.90625 
Q 37.0625 25.203125 30.90625 25.203125 
L 18.109375 25.203125 
L 18.109375 7.171875 
L 30.90625 7.171875 
Q 37.0625 7.171875 40.25 9.484375 
Q 43.453125 11.8125 43.453125 16.21875 
z
M 9.078125 54.6875 
L 18.109375 54.6875 
L 18.109375 32.375 
L 31.296875 32.375 
Q 41.75 32.375 47.390625 28.390625 
Q 53.03125 24.421875 53.03125 16.21875 
Q 53.03125 8.015625 47.390625 4 
Q 41.75 0 31.296875 0 
L 9.078125 0 
z
" id="DejaVuSans-1100"/>
      <path d="M 9.078125 0 
L 9.078125 54.6875 
L 47.65625 54.6875 
L 47.65625 47.515625 
L 18.109375 47.515625 
L 18.109375 0 
z
" id="DejaVuSans-1075"/>
     </defs>
     <g transform="translate(37.815625 186.925156)rotate(-90)scale(0.1 -0.1)">
      <use xlink:href="#DejaVuSans-1076"/>
      <use x="69.140625" xlink:href="#DejaVuSans-1086"/>
      <use x="130.322266" xlink:href="#DejaVuSans-1093"/>
      <use x="189.501953" xlink:href="#DejaVuSans-1086"/>
      <use x="250.683594" xlink:href="#DejaVuSans-1076"/>
      <use x="319.824219" xlink:href="#DejaVuSans-1085"/>
      <use x="385.205078" xlink:href="#DejaVuSans-1086"/>
      <use x="446.386719" xlink:href="#DejaVuSans-1089"/>
      <use x="501.367188" xlink:href="#DejaVuSans-1090"/>
      <use x="559.619141" xlink:href="#DejaVuSans-1100"/>
      <use x="618.554688" xlink:href="#DejaVuSans-44"/>
      <use x="650.341797" xlink:href="#DejaVuSans-32"/>
      <use x="682.128906" xlink:href="#DejaVuSans-37"/>
      <use x="777.148438" xlink:href="#DejaVuSans-1075"/>
     </g>
    </g>
   </g>
   <g id="line2d_12">
    <path clip-path="url(#pa17fb521f6)" d="M 92.290909 246.24 
L 92.493838 237.151207 
L 92.859111 228.129751 
L 92.899697 228.025763 
L 93.102627 225.789673 
L 93.386728 224.284704 
L 93.508485 223.826054 
L 93.833172 222.237068 
L 93.914344 221.946173 
L 94.076688 220.200358 
L 94.360789 219.812611 
L 94.401375 219.785474 
L 94.64489 218.959427 
L 94.726062 218.896842 
L 94.888405 218.623722 
L 94.969577 218.527559 
L 95.253678 217.583299 
L 95.497193 217.23675 
L 95.618951 216.813462 
L 95.700123 216.566775 
L 95.903052 216.387519 
L 95.943638 216.372448 
L 96.187153 215.791258 
L 96.227739 215.785551 
L 96.471254 215.395765 
L 96.674184 215.079031 
L 96.795941 214.847021 
L 97.080043 214.604677 
L 97.161214 214.508089 
L 97.323558 214.366892 
L 97.688831 213.628834 
L 98.58172 212.135696 
L 98.744063 211.664731 
L 98.906407 211.412334 
L 99.393438 211.016252 
L 99.555781 210.697314 
L 99.677539 210.613497 
L 100.326913 209.567894 
L 100.489256 209.453552 
L 100.854529 208.608042 
L 101.34156 208.178125 
L 101.585075 207.950121 
L 101.747418 207.836761 
L 101.909762 207.672096 
L 102.559136 207.079436 
L 103.086752 206.717561 
L 103.654955 206.106501 
L 103.817298 205.950412 
L 103.939056 205.824878 
L 104.3855 205.465191 
L 104.58843 204.976664 
L 105.846592 204.040125 
L 106.008935 203.806014 
L 106.252451 203.475572 
L 106.698895 203.158425 
L 106.861239 203.013178 
L 107.185926 202.799272 
L 107.388855 202.597034 
L 107.957058 202.336408 
L 108.200573 202.234234 
L 108.362916 201.965962 
L 108.444088 201.889103 
L 108.647017 201.767701 
L 108.971704 201.552759 
L 109.255806 201.317452 
L 109.418149 201.169865 
L 109.580493 201.067325 
L 109.742836 200.930623 
L 110.108109 200.707736 
L 110.39221 200.59762 
L 111.690958 199.892814 
L 111.975059 199.6926 
L 112.25916 199.572276 
L 112.786777 199.257491 
L 112.989706 199.135968 
L 113.233222 198.93764 
L 113.395565 198.793313 
L 113.598494 198.698395 
L 114.166697 198.404117 
L 119.280517 195.695995 
L 119.483447 195.615622 
L 119.929891 195.261177 
L 120.213992 195.165202 
L 120.416922 195.092228 
L 120.782195 194.980625 
L 120.985124 194.828306 
L 121.878013 194.564157 
L 122.324458 194.339739 
L 123.136175 194.113393 
L 123.420277 193.906987 
L 123.988479 193.651408 
L 124.516095 193.394206 
L 124.881368 193.302312 
L 125.084298 193.135418 
L 126.098944 192.791295 
L 126.261288 192.687388 
L 126.423631 192.592223 
L 126.626561 192.518078 
L 127.316521 192.228955 
L 127.641208 192.115185 
L 128.087652 191.93187 
L 128.331168 191.795871 
L 129.426986 191.379471 
L 129.629916 191.253815 
L 129.792259 191.183844 
L 130.563391 190.924093 
L 131.131593 190.727525 
L 131.821553 190.549702 
L 131.983897 190.437071 
L 132.349169 190.250629 
L 132.511513 190.141895 
L 135.717797 189.10334 
L 137.341232 188.638157 
L 138.112364 188.402027 
L 139.857557 187.846341 
L 140.060486 187.763025 
L 140.385173 187.649535 
L 140.628688 187.549911 
L 143.063841 186.755353 
L 143.713215 186.617788 
L 144.403175 186.422879 
L 147.528287 185.58194 
L 148.340005 185.401509 
L 153.819098 183.895625 
L 154.022028 183.815926 
L 155.523705 183.361205 
L 156.091907 183.235397 
L 156.497766 183.120387 
L 157.14714 182.953977 
L 157.593585 182.789497 
L 158.324131 182.645199 
L 159.70405 182.264298 
L 159.90698 182.193548 
L 160.59694 181.996058 
L 161.733344 181.842335 
L 161.936274 181.776792 
L 162.707405 181.662833 
L 163.032092 181.609509 
L 163.478537 181.510946 
L 163.722052 181.432486 
L 164.371426 181.284274 
L 164.696113 181.183611 
L 166.035447 180.839087 
L 166.40072 180.711413 
L 166.968922 180.558523 
L 167.334195 180.434945 
L 168.95763 180.120629 
L 169.566418 179.982672 
L 170.418722 179.758246 
L 170.946338 179.592018 
L 173.340905 179.196859 
L 173.503249 179.13117 
L 174.071451 179.012815 
L 174.639653 178.87865 
L 175.045512 178.759062 
L 176.181916 178.576954 
L 176.993634 178.407078 
L 179.672302 177.907775 
L 180.808706 177.652023 
L 181.45808 177.514369 
L 183.000344 177.136646 
L 183.649718 177.018493 
L 184.299092 176.935576 
L 184.948466 176.811563 
L 185.232567 176.76056 
L 185.679012 176.641286 
L 196.921299 174.490924 
L 197.164815 174.391507 
L 197.89536 174.255958 
L 198.341805 174.160484 
L 198.991179 174.027669 
L 201.507503 173.394561 
L 202.278635 173.258031 
L 202.684494 173.13178 
L 204.105 172.954724 
L 207.270698 172.423607 
L 208.975305 172.123998 
L 209.259406 172.060235 
L 209.868194 171.95051 
L 211.004599 171.71726 
L 212.141003 171.518282 
L 212.425104 171.476937 
L 213.520923 171.299595 
L 214.089125 171.177555 
L 219.405875 170.393964 
L 219.64939 170.338749 
L 220.095835 170.23741 
L 220.501694 170.15768 
L 221.71927 169.928482 
L 222.530988 169.784355 
L 223.667392 169.644274 
L 225.696686 169.26961 
L 226.183717 169.155554 
L 226.751919 169.043734 
L 228.334768 168.823593 
L 228.659455 168.722743 
L 229.268243 168.576702 
L 229.552344 168.529967 
L 230.485819 168.335985 
L 232.312184 168.004029 
L 232.555699 167.931736 
L 233.976205 167.746017 
L 235.193781 167.582549 
L 235.924327 167.446865 
L 236.208428 167.400212 
L 236.817216 167.292197 
L 237.223075 167.217059 
L 249.48001 165.037323 
L 250.332313 164.899823 
L 251.590475 164.640474 
L 252.929809 164.449164 
L 253.700941 164.290158 
L 255.405548 164.052113 
L 267.824826 161.929662 
L 269.285918 161.65123 
L 269.975878 161.50627 
L 271.274626 161.31142 
L 272.370444 161.013836 
L 273.547435 160.879884 
L 274.237395 160.774197 
L 283.328631 159.246084 
L 285.154995 158.957905 
L 286.453744 158.816526 
L 286.859602 158.758042 
L 288.280108 158.577046 
L 288.523623 158.487091 
L 292.419867 157.968411 
L 292.98807 157.852477 
L 295.54498 157.5176 
L 296.803142 157.274944 
L 297.127829 157.18288 
L 297.533688 157.137282 
L 299.968841 156.662248 
L 301.186417 156.488224 
L 302.03872 156.316473 
L 302.282235 156.25797 
L 308.248359 155.190179 
L 309.100663 155.086941 
L 309.587693 155.038731 
L 311.535815 154.706248 
L 312.550462 154.516939 
L 314.011554 154.320727 
L 315.026201 154.16476 
L 315.959676 154.01095 
L 317.055495 153.836223 
L 318.435414 153.665395 
L 319.937092 153.4549 
L 320.505294 153.32147 
L 322.169315 153.151726 
L 323.386891 152.886342 
L 323.589821 152.840457 
L 325.253842 152.537949 
L 326.999034 152.30264 
L 329.1095 152.000012 
L 330.042975 151.85428 
L 331.057622 151.61014 
L 332.072269 151.461777 
L 332.518714 151.358284 
L 333.208674 151.229614 
L 334.060977 151.056626 
L 335.11621 150.883465 
L 347.048458 148.602904 
L 347.779003 148.39555 
L 349.645954 148.093171 
L 350.011227 147.980787 
L 351.309975 147.779895 
L 351.675248 147.681117 
L 352.324622 147.516784 
L 353.907471 147.296502 
L 354.31333 147.197237 
L 355.246805 147.038433 
L 356.220866 146.865286 
L 356.789068 146.748301 
L 359.711251 146.227072 
L 360.766484 146.06752 
L 362.998707 145.686505 
L 363.323394 145.601313 
L 371.156468 144.029844 
L 373.145176 143.66254 
L 373.875722 143.509659 
L 374.809197 143.371955 
L 376.229703 143.184289 
L 376.635562 143.097257 
L 378.380754 142.794039 
L 378.746027 142.729313 
L 379.435987 142.588529 
L 381.627625 142.119559 
L 382.195827 142.03449 
L 382.439342 141.959899 
L 383.291646 141.790063 
L 383.494575 141.72166 
L 384.022191 141.636379 
L 384.265707 141.551814 
L 384.671565 141.488678 
L 385.361525 141.374685 
L 386.295 141.168729 
L 386.944374 141.043046 
L 387.147304 140.988802 
L 387.471991 140.925261 
L 388.202537 140.80361 
L 388.730153 140.730445 
L 389.217184 140.563057 
L 389.866558 140.404288 
L 393.559872 139.644492 
L 393.762802 139.546108 
L 394.249832 139.392741 
L 394.85862 139.259158 
L 395.670338 139.115017 
L 396.360298 139.007027 
L 396.684985 138.894413 
L 397.293773 138.784453 
L 398.876622 138.468571 
L 399.160723 138.378147 
L 399.931855 138.187647 
L 400.702987 138.041206 
L 400.946502 137.933835 
L 401.514704 137.823857 
L 401.961149 137.688043 
L 402.569937 137.562004 
L 403.016382 137.452171 
L 404.031029 137.285527 
L 405.167433 137.052712 
L 405.776221 136.934078 
L 406.912626 136.728297 
L 407.521414 136.595461 
L 407.724343 136.521441 
L 419.494248 133.71827 
L 419.85952 133.60205 
L 421.158269 133.163998 
L 421.9294 133.025694 
L 422.13233 132.881061 
L 422.944047 132.676064 
L 423.268734 132.52758 
L 424.121038 132.339026 
L 424.323967 132.268439 
L 427.367908 131.595108 
L 427.854938 131.469571 
L 428.666656 131.265597 
L 429.397202 131.109052 
L 430.898879 130.662061 
L 435.80977 129.382017 
L 437.108518 128.94112 
L 437.798478 128.797694 
L 438.244923 128.655429 
L 438.975468 128.409657 
L 439.381327 128.250823 
L 439.990115 128.099066 
L 440.639489 127.912557 
L 441.045348 127.80582 
L 441.491793 127.6346 
L 442.100581 127.460355 
L 442.587611 127.332499 
L 446.24034 126.139494 
L 446.483856 125.965681 
L 447.011472 125.804807 
L 447.904361 125.468396 
L 448.229048 125.327035 
L 448.553735 125.216546 
L 449.324867 125.046593 
L 450.3801 124.625822 
L 451.029474 124.508303 
L 451.313575 124.353632 
L 452.368808 123.786125 
L 453.099354 123.413328 
L 453.667556 123.275596 
L 454.073415 123.036322 
L 454.560445 122.826853 
L 457.523214 121.708577 
L 457.847901 121.629136 
L 458.050831 121.457721 
L 458.659619 121.191265 
L 459.024892 121.055195 
L 460.891842 120.355222 
L 463.205237 119.404831 
L 463.57051 119.179969 
L 463.814025 119.000837 
L 464.219884 118.791161 
L 465.072187 118.555135 
L 465.275117 118.326692 
L 465.478046 118.196995 
L 466.249178 117.809219 
L 466.533279 117.701251 
L 466.81738 117.475518 
L 468.319057 116.555055 
L 468.88726 116.291694 
L 469.130775 116.189788 
L 471.281826 115.008019 
L 471.484756 114.904283 
L 471.687685 114.831823 
L 472.012372 114.714195 
L 472.174716 114.545413 
L 472.580574 114.303048 
L 473.676393 113.699185 
L 473.919908 113.483333 
L 474.934555 113.009238 
L 475.178071 112.750359 
L 475.502758 112.504539 
L 475.705687 112.339012 
L 476.111546 111.966045 
L 476.395647 111.856489 
L 476.55799 111.763384 
L 476.720334 111.638078 
L 477.085607 111.430905 
L 477.288536 111.369125 
L 477.491466 111.130844 
L 477.816153 110.954571 
L 478.019082 110.667516 
L 478.587284 110.218417 
L 479.033729 109.822301 
L 479.196072 109.693755 
L 479.399002 109.527689 
L 479.967204 109.151077 
L 480.048376 109.043063 
L 480.210719 108.850817 
L 480.454235 108.731285 
L 480.69775 108.497103 
L 480.941265 108.221014 
L 481.225366 107.937729 
L 482.158841 107.407415 
L 482.808215 106.741388 
L 483.092317 106.568054 
L 483.295246 106.374466 
L 483.538761 106.259118 
L 484.675166 105.301564 
L 484.796923 105.160826 
L 484.918681 104.95485 
L 485.12161 104.560465 
L 485.243368 104.419719 
L 485.405711 104.242726 
L 485.486883 104.210701 
L 485.649227 103.918186 
L 485.933328 103.546586 
L 486.623288 102.960265 
L 486.826217 102.746213 
L 487.029147 102.606731 
L 487.313248 102.312015 
L 487.394419 102.306944 
L 487.556763 102.135998 
L 487.88145 101.657575 
L 487.922036 101.651652 
L 488.084379 101.312116 
L 488.287309 101.187761 
L 488.449652 101.108706 
L 488.652582 100.929637 
L 488.936683 100.761626 
L 489.139612 100.123304 
L 490.276017 97.971333 
L 490.397774 97.634628 
L 490.64129 97.438214 
L 490.803633 97.264002 
L 490.844219 97.252998 
L 491.006562 96.637377 
L 491.168906 96.300802 
L 491.290664 95.837567 
L 491.615351 95.447856 
L 491.777694 94.90536 
L 492.021209 94.564323 
L 492.183553 94.455493 
L 492.427068 94.222849 
L 492.467654 94.213189 
L 492.99527 92.8006 
L 493.482301 91.56234 
L 493.644644 91.476643 
L 494.294018 89.731534 
L 494.334604 89.720466 
L 494.496948 88.841122 
L 494.618706 88.763943 
L 494.821635 88.41989 
L 494.983978 88.239989 
L 495.186908 87.183941 
L 496.566828 82.442776 
L 496.850929 81.205004 
L 496.9321 81.060517 
L 497.13503 77.821809 
L 497.62206 72.327333 
L 497.946747 64.608691 
L 498.109091 44.64 
L 498.109091 44.64 
" style="fill:none;stroke:#1f77b4;stroke-linecap:square;stroke-width:1.5;"/>
   </g>
   <g id="line2d_13">
    <path clip-path="url(#pa17fb521f6)" d="M 92.290909 177.827749 
L 92.412776 175.007196 
L 92.534644 172.456995 
L 92.575266 172.282919 
L 92.737756 170.659195 
L 92.940868 169.986598 
L 93.103358 169.819454 
L 93.30647 169.239692 
L 93.509582 168.991448 
L 93.672072 168.848428 
L 93.956429 168.491872 
L 94.443898 167.435986 
L 94.525143 167.331374 
L 94.728255 167.113762 
L 94.890745 167.031634 
L 95.053235 166.775657 
L 95.13448 166.705193 
L 95.337592 166.362985 
L 95.703194 166.117024 
L 95.906306 165.824478 
L 96.028173 165.759516 
L 96.271908 165.489936 
L 96.881244 164.774228 
L 97.937428 164.147216 
L 98.099918 164.01767 
L 98.343652 163.872744 
L 99.074856 163.32584 
L 99.318591 163.175981 
L 99.521703 163.052004 
L 99.846682 162.849598 
L 100.374774 162.667449 
L 100.699754 162.43345 
L 101.024733 162.237173 
L 101.187223 162.134573 
L 101.47158 161.982143 
L 101.715314 161.892241 
L 102.080916 161.78942 
L 102.284029 161.619908 
L 102.690253 161.415619 
L 103.543324 161.070517 
L 103.908926 160.946463 
L 104.518263 160.753487 
L 104.965109 160.637903 
L 105.818181 160.283024 
L 105.98067 160.19238 
L 106.224405 160.084199 
L 107.321211 159.803548 
L 107.564945 159.685868 
L 108.214904 159.580897 
L 109.596067 159.078142 
L 110.449138 158.884728 
L 110.692873 158.757737 
L 111.13972 158.635477 
L 111.992791 158.385885 
L 112.845862 158.174272 
L 113.577066 158.049652 
L 114.186403 157.921531 
L 114.430137 157.842084 
L 115.201964 157.707402 
L 116.501882 157.383195 
L 117.111218 157.275033 
L 117.558065 157.171941 
L 132.872724 154.778495 
L 133.969529 154.61183 
L 134.172642 154.570449 
L 136.97559 154.163561 
L 137.869283 154.037187 
L 140.794099 153.625636 
L 141.850282 153.505204 
L 142.784598 153.349993 
L 144.003271 153.207673 
L 144.531363 153.131075 
L 145.465679 153.016804 
L 145.993771 152.964205 
L 146.887464 152.835417 
L 147.293689 152.805095 
L 148.471739 152.674849 
L 153.387054 152.243196 
L 154.930707 152.074843 
L 155.377554 152.018178 
L 156.596227 151.896936 
L 158.058635 151.70559 
L 158.667971 151.627353 
L 160.089756 151.501099 
L 160.82096 151.406932 
L 162.202123 151.269036 
L 166.751836 150.779243 
L 167.036193 150.733754 
L 168.782958 150.564474 
L 169.636029 150.483902 
L 193.440777 148.293883 
L 194.375093 148.161243 
L 195.431277 148.049193 
L 198.112357 147.798279 
L 200.346591 147.62246 
L 200.874683 147.571778 
L 202.215224 147.428502 
L 202.66207 147.389631 
L 204.002611 147.281096 
L 204.693192 147.216296 
L 212.898924 146.508154 
L 213.427016 146.471283 
L 215.376893 146.282249 
L 219.032912 145.970688 
L 220.8203 145.836578 
L 221.429636 145.78658 
L 225.248145 145.447916 
L 227.1574 145.298799 
L 229.432256 145.157434 
L 233.575745 144.905899 
L 273.83258 141.739334 
L 275.701212 141.584666 
L 276.473038 141.521884 
L 277.894824 141.415446 
L 278.50416 141.360752 
L 284.963128 140.920476 
L 291.868942 140.346536 
L 293.33135 140.1902 
L 301.130858 139.553439 
L 303.608826 139.338319 
L 305.599326 139.217261 
L 306.330529 139.157015 
L 308.036672 139.053003 
L 308.402274 139.006854 
L 310.555263 138.857104 
L 311.652069 138.758762 
L 318.557883 138.221917 
L 320.792117 138.060238 
L 321.238964 138.028275 
L 323.554443 137.832197 
L 327.00735 137.578716 
L 330.907104 137.253468 
L 337.731673 136.734557 
L 338.869101 136.637766 
L 340.453376 136.519026 
L 341.875162 136.388105 
L 344.881222 136.139854 
L 347.724793 135.870213 
L 348.049772 135.8415 
L 349.918404 135.655459 
L 351.705792 135.484893 
L 355.036831 135.138966 
L 355.68679 135.057281 
L 359.099075 134.77915 
L 361.252064 134.598123 
L 362.145758 134.549043 
L 363.405053 134.439522 
L 363.8519 134.39656 
L 366.695471 134.082833 
L 367.142318 134.054323 
L 368.320368 133.929498 
L 369.660909 133.788076 
L 378.029131 133.075238 
L 378.719712 133.025629 
L 380.385232 132.908058 
L 382.131997 132.749953 
L 400.046492 130.769494 
L 400.371471 130.730375 
L 402.727572 130.401448 
L 403.418154 130.296683 
L 403.905623 130.220752 
L 405.002429 130.113143 
L 405.449276 130.04756 
L 409.511519 129.678385 
L 409.998989 129.618598 
L 411.339529 129.462602 
L 414.061232 129.08844 
L 414.426834 128.994651 
L 416.173599 128.815517 
L 416.742313 128.736466 
L 420.073353 128.394788 
L 421.292026 128.278655 
L 422.795056 128.092197 
L 424.419954 127.85932 
L 427.710371 127.428895 
L 437.094154 126.042012 
L 438.312827 125.874596 
L 439.206521 125.736861 
L 440.303327 125.601046 
L 440.668928 125.557527 
L 442.090714 125.392082 
L 442.984407 125.279451 
L 443.756234 125.191286 
L 443.999968 125.148189 
L 444.487438 125.025219 
L 452.002588 123.643227 
L 452.977527 123.493231 
L 453.221262 123.438606 
L 454.318067 123.19751 
L 454.683669 123.137106 
L 457.039771 122.824689 
L 458.055332 122.669351 
L 458.908403 122.544774 
L 461.711351 121.972394 
L 462.239443 121.847017 
L 466.220441 120.903833 
L 466.8704 120.767259 
L 470.729532 119.889102 
L 471.135756 119.765747 
L 472.070072 119.581513 
L 472.923143 119.282691 
L 473.288745 119.161209 
L 474.832398 118.660254 
L 475.522979 118.287209 
L 476.254183 118.155438 
L 476.985387 117.839763 
L 477.391611 117.739881 
L 477.838458 117.537171 
L 478.610285 117.320046 
L 479.016509 117.22243 
L 479.585223 117.045451 
L 483.20062 115.766442 
L 483.444355 115.625577 
L 483.688089 115.545247 
L 483.850579 115.398998 
L 485.069252 114.784389 
L 486.247303 113.937071 
L 486.775394 113.724077 
L 487.059751 113.609428 
L 488.075312 113.349465 
L 488.278425 113.244045 
L 488.400292 113.15537 
L 488.765894 112.824106 
L 489.37523 112.53247 
L 489.578343 112.337771 
L 489.903322 112.22612 
L 490.431414 111.707745 
L 490.797016 111.582901 
L 491.162618 111.400516 
L 491.325107 111.057232 
L 491.893821 110.318233 
L 492.015689 110.296623 
L 492.259423 109.93228 
L 493.03125 109.012154 
L 493.193739 108.633868 
L 494.412413 107.148534 
L 494.574902 106.768638 
L 495.062372 106.448064 
L 495.102994 106.439855 
L 495.224861 106.096956 
L 495.509218 106.00256 
L 495.834198 104.541431 
L 496.077933 104.278349 
L 496.646647 101.850475 
L 496.809136 101.784892 
L 496.890381 101.692585 
L 497.012249 100.972736 
L 497.296606 100.349358 
L 497.418473 99.295734 
L 497.662208 99.092789 
L 497.70283 98.444054 
L 497.824697 87.196505 
L 498.068432 87.0808 
L 498.109054 86.33049 
L 498.109054 86.33049 
" style="fill:none;stroke:#ff7f0e;stroke-linecap:square;stroke-width:1.5;"/>
   </g>
   <g id="line2d_14">
    <path clip-path="url(#pa17fb521f6)" d="M 92.290909 153.400365 
L 92.494838 152.060783 
L 92.535623 152.055928 
L 92.698766 151.739932 
L 92.861909 151.631545 
L 93.514481 150.738146 
L 93.677624 150.549078 
L 93.881552 150.420279 
L 93.963124 150.295899 
L 94.167053 149.913534 
L 94.452553 149.724706 
L 94.941981 149.476787 
L 95.309053 149.367609 
L 99.183697 148.154596 
L 100.244126 147.903272 
L 100.651983 147.794039 
L 102.609698 147.486543 
L 103.180698 147.344408 
L 107.177699 146.747321 
L 108.6052 146.616208 
L 114.23363 145.92303 
L 127.40742 144.625543 
L 127.733706 144.579879 
L 130.221635 144.337792 
L 130.670278 144.304795 
L 131.649135 144.227668 
L 134.218636 144.048996 
L 134.830422 144.005064 
L 137.073637 143.842244 
L 139.276066 143.608686 
L 140.418067 143.533562 
L 142.538925 143.408032 
L 145.597854 143.218834 
L 148.004212 143.050565 
L 149.350141 142.965858 
L 160.729359 142.115034 
L 162.687074 141.970809 
L 164.15536 141.876276 
L 166.684075 141.717904 
L 167.662932 141.630283 
L 169.21279 141.520894 
L 169.78379 141.477238 
L 171.904648 141.364827 
L 179.694722 140.962797 
L 181.774794 140.851772 
L 184.711366 140.717039 
L 188.545224 140.576379 
L 192.664583 140.422946 
L 195.356441 140.270797 
L 197.110227 140.17976 
L 199.842871 140.050883 
L 200.9033 139.984615 
L 219.012162 139.219552 
L 223.253878 138.969992 
L 233.491095 138.53497 
L 234.30681 138.490102 
L 264.121176 137.392007 
L 270.361392 137.193801 
L 272.400679 137.117279 
L 275.214894 137.003159 
L 279.701324 136.828273 
L 284.473254 136.583978 
L 288.592612 136.441114 
L 291.937042 136.310119 
L 343.530986 134.41703 
L 345.97813 134.285875 
L 348.629202 134.179226 
L 349.200202 134.143254 
L 351.03556 134.063832 
L 354.543133 133.908022 
L 354.910204 133.880357 
L 357.357348 133.761177 
L 359.72292 133.6521 
L 362.700278 133.543704 
L 364.943493 133.44305 
L 367.757708 133.329891 
L 368.940494 133.265509 
L 373.222996 133.041667 
L 374.854425 132.933594 
L 377.342354 132.807501 
L 395.043359 131.813198 
L 395.369645 131.7843 
L 398.632503 131.608991 
L 402.507147 131.310785 
L 404.628005 131.165922 
L 405.973934 131.093781 
L 408.135578 130.948842 
L 413.478508 130.578475 
L 415.803294 130.407379 
L 417.720223 130.29769 
L 421.309367 130.076695 
L 426.570726 129.772633 
L 438.439373 129.160058 
L 451.694734 127.973305 
L 451.898663 127.904172 
L 459.240093 126.867442 
L 460.259737 126.519293 
L 462.870023 126.136263 
L 463.237095 126.065744 
L 464.990881 125.863802 
L 467.19331 125.587728 
L 468.457668 125.455394 
L 469.558882 125.318308 
L 470.456168 125.201755 
L 471.761312 125.009416 
L 473.922955 124.756298 
L 474.901812 124.584865 
L 475.635956 124.451067 
L 475.962241 124.360611 
L 479.388242 123.124719 
L 479.551385 123.008012 
L 480.122386 122.908599 
L 480.3671 122.773359 
L 482.120886 122.305704 
L 483.181315 122.181281 
L 483.466815 122.142936 
L 484.241744 122.009407 
L 485.179816 121.921641 
L 486.607316 121.773096 
L 487.504602 121.547648 
L 488.320317 121.398679 
L 489.584674 121.075012 
L 490.359603 120.826978 
L 490.808246 120.607061 
L 491.664746 120.46585 
L 493.418532 120.031325 
L 493.581675 119.960248 
L 493.622461 119.916937 
L 493.744818 118.890791 
L 494.11189 118.808527 
L 494.275033 118.354807 
L 494.478961 118.276307 
L 494.68289 117.975675 
L 494.886819 117.936278 
L 495.009176 116.805832 
L 495.131533 116.731726 
L 495.335462 116.298152 
L 495.417033 116.195063 
L 495.743319 115.513287 
L 495.947248 115.471422 
L 496.069605 115.132941 
L 496.191962 111.276991 
L 496.436676 111.138441 
L 496.722176 108.544162 
L 496.885319 108.462062 
L 497.048462 107.737081 
L 497.170819 107.581077 
L 497.701034 107.403821 
L 497.74182 107.245373 
L 497.864177 106.548396 
L 498.108891 106.272397 
L 498.108891 106.272397 
" style="fill:none;stroke:#2ca02c;stroke-linecap:square;stroke-width:1.5;"/>
   </g>
   <g id="line2d_15">
    <path clip-path="url(#pa17fb521f6)" d="M 92.290909 140.03982 
L 96.34907 139.543249 
L 102.158647 139.21264 
L 102.500387 139.170755 
L 114.119541 138.721138 
L 118.519441 138.536882 
L 123.175646 138.343634 
L 125.909565 138.170535 
L 129.070658 138.015933 
L 130.90751 137.955993 
L 145.089713 137.703639 
L 168.328022 137.223942 
L 171.318245 137.110584 
L 179.562719 136.932784 
L 184.133489 136.811346 
L 184.731534 136.790522 
L 193.488617 136.414801 
L 195.923513 136.332486 
L 206.30386 136.011483 
L 215.787141 135.858898 
L 219.161822 135.822805 
L 233.728482 135.62438 
L 236.248813 135.589142 
L 294.686324 134.972953 
L 307.330698 134.714167 
L 308.783093 134.673896 
L 315.746042 134.508718 
L 317.454741 134.47004 
L 330.910747 134.25414 
L 336.933911 134.13201 
L 345.861864 133.910958 
L 353.038401 133.754227 
L 390.15989 133.11177 
L 397.293709 132.984843 
L 400.924695 132.904948 
L 406.136227 132.778567 
L 406.606119 132.745668 
L 414.295266 132.554064 
L 431.211387 131.666796 
L 431.595845 131.626122 
L 440.053905 131.316694 
L 448.084791 131.143178 
L 449.110011 131.091499 
L 455.38948 130.91096 
L 464.360151 130.086514 
L 464.616456 130.009399 
L 467.905702 129.882788 
L 472.860929 129.524252 
L 475.423978 129.3663 
L 476.534632 129.287348 
L 477.730722 129.17381 
L 482.087905 128.832448 
L 486.40237 128.639176 
L 489.862486 128.467519 
L 492.980862 128.310756 
L 493.621624 128.281407 
L 497.637067 128.065497 
L 498.106959 127.970881 
L 498.106959 127.970881 
" style="fill:none;stroke:#d62728;stroke-linecap:square;stroke-width:1.5;"/>
   </g>
   <g id="line2d_16">
    <path clip-path="url(#pa17fb521f6)" d="M 295.220293 256.32 
L 295.220293 34.56 
" style="fill:none;stroke:#808080;stroke-linecap:square;stroke-width:0.3;"/>
   </g>
   <g id="line2d_17">
    <path clip-path="url(#pa17fb521f6)" d="M 72 157.61869 
L 518.4 157.61869 
" style="fill:none;stroke:#808080;stroke-linecap:square;stroke-width:0.3;"/>
   </g>
   <g id="patch_3">
    <path d="M 72 256.32 
L 72 34.56 
" style="fill:none;stroke:#000000;stroke-linecap:square;stroke-linejoin:miter;stroke-width:0.8;"/>
   </g>
   <g id="patch_4">
    <path d="M 518.4 256.32 
L 518.4 34.56 
" style="fill:none;stroke:#000000;stroke-linecap:square;stroke-linejoin:miter;stroke-width:0.8;"/>
   </g>
   <g id="patch_5">
    <path d="M 72 256.32 
L 518.4 256.32 
" style="fill:none;stroke:#000000;stroke-linecap:square;stroke-linejoin:miter;stroke-width:0.8;"/>
   </g>
   <g id="patch_6">
    <path d="M 72 34.56 
L 518.4 34.56 
" style="fill:none;stroke:#000000;stroke-linecap:square;stroke-linejoin:miter;stroke-width:0.8;"/>
   </g>
   <g id="legend_1">
    <g id="patch_7">
     <path d="M 79 101.2725 
L 204.032813 101.2725 
Q 206.032813 101.2725 206.032813 99.2725 
L 206.032813 41.56 
Q 206.032813 39.56 204.032813 39.56 
L 79 39.56 
Q 77 39.56 77 41.56 
L 77 99.2725 
Q 77 101.2725 79 101.2725 
z
" style="fill:#ffffff;opacity:0.8;stroke:#cccccc;stroke-linejoin:miter;"/>
    </g>
    <g id="line2d_18">
     <path d="M 81 47.658438 
L 101 47.658438 
" style="fill:none;stroke:#1f77b4;stroke-linecap:square;stroke-width:1.5;"/>
    </g>
    <g id="line2d_19"/>
    <g id="text_14">
     <!-- отдельные акции -->
     <defs>
      <path d="M 61.078125 54.6875 
L 70.0625 54.6875 
L 70.0625 0 
L 61.078125 0 
z
M 65.578125 56 
z
M 43.453125 16.21875 
Q 43.453125 20.609375 40.25 22.90625 
Q 37.0625 25.203125 30.90625 25.203125 
L 18.109375 25.203125 
L 18.109375 7.171875 
L 30.90625 7.171875 
Q 37.0625 7.171875 40.25 9.484375 
Q 43.453125 11.8125 43.453125 16.21875 
z
M 9.078125 54.6875 
L 18.109375 54.6875 
L 18.109375 32.375 
L 31.296875 32.375 
Q 41.75 32.375 47.390625 28.390625 
Q 53.03125 24.421875 53.03125 16.21875 
Q 53.03125 8.015625 47.390625 4 
Q 41.75 0 31.296875 0 
L 9.078125 0 
z
" id="DejaVuSans-1099"/>
     </defs>
     <g transform="translate(109 51.158438)scale(0.1 -0.1)">
      <use xlink:href="#DejaVuSans-1086"/>
      <use x="61.181641" xlink:href="#DejaVuSans-1090"/>
      <use x="119.433594" xlink:href="#DejaVuSans-1076"/>
      <use x="188.574219" xlink:href="#DejaVuSans-1077"/>
      <use x="250.097656" xlink:href="#DejaVuSans-1083"/>
      <use x="314.013672" xlink:href="#DejaVuSans-1100"/>
      <use x="372.949219" xlink:href="#DejaVuSans-1085"/>
      <use x="438.330078" xlink:href="#DejaVuSans-1099"/>
      <use x="517.285156" xlink:href="#DejaVuSans-1077"/>
      <use x="578.808594" xlink:href="#DejaVuSans-32"/>
      <use x="610.595703" xlink:href="#DejaVuSans-1072"/>
      <use x="671.875" xlink:href="#DejaVuSans-1082"/>
      <use x="732.275391" xlink:href="#DejaVuSans-1094"/>
      <use x="800.341797" xlink:href="#DejaVuSans-1080"/>
      <use x="865.332031" xlink:href="#DejaVuSans-1080"/>
     </g>
    </g>
    <g id="line2d_20">
     <path d="M 81 62.336563 
L 101 62.336563 
" style="fill:none;stroke:#ff7f0e;stroke-linecap:square;stroke-width:1.5;"/>
    </g>
    <g id="line2d_21"/>
    <g id="text_15">
     <!-- 10 акций -->
     <g transform="translate(109 65.836563)scale(0.1 -0.1)">
      <use xlink:href="#DejaVuSans-49"/>
      <use x="63.623047" xlink:href="#DejaVuSans-48"/>
      <use x="127.246094" xlink:href="#DejaVuSans-32"/>
      <use x="159.033203" xlink:href="#DejaVuSans-1072"/>
      <use x="220.3125" xlink:href="#DejaVuSans-1082"/>
      <use x="280.712891" xlink:href="#DejaVuSans-1094"/>
      <use x="348.779297" xlink:href="#DejaVuSans-1080"/>
      <use x="413.769531" xlink:href="#DejaVuSans-1081"/>
     </g>
    </g>
    <g id="line2d_22">
     <path d="M 81 77.014688 
L 101 77.014688 
" style="fill:none;stroke:#2ca02c;stroke-linecap:square;stroke-width:1.5;"/>
    </g>
    <g id="line2d_23"/>
    <g id="text_16">
     <!-- 50 акций -->
     <defs>
      <path d="M 10.796875 72.90625 
L 49.515625 72.90625 
L 49.515625 64.59375 
L 19.828125 64.59375 
L 19.828125 46.734375 
Q 21.96875 47.46875 24.109375 47.828125 
Q 26.265625 48.1875 28.421875 48.1875 
Q 40.625 48.1875 47.75 41.5 
Q 54.890625 34.8125 54.890625 23.390625 
Q 54.890625 11.625 47.5625 5.09375 
Q 40.234375 -1.421875 26.90625 -1.421875 
Q 22.3125 -1.421875 17.546875 -0.640625 
Q 12.796875 0.140625 7.71875 1.703125 
L 7.71875 11.625 
Q 12.109375 9.234375 16.796875 8.0625 
Q 21.484375 6.890625 26.703125 6.890625 
Q 35.15625 6.890625 40.078125 11.328125 
Q 45.015625 15.765625 45.015625 23.390625 
Q 45.015625 31 40.078125 35.4375 
Q 35.15625 39.890625 26.703125 39.890625 
Q 22.75 39.890625 18.8125 39.015625 
Q 14.890625 38.140625 10.796875 36.28125 
z
" id="DejaVuSans-53"/>
     </defs>
     <g transform="translate(109 80.514688)scale(0.1 -0.1)">
      <use xlink:href="#DejaVuSans-53"/>
      <use x="63.623047" xlink:href="#DejaVuSans-48"/>
      <use x="127.246094" xlink:href="#DejaVuSans-32"/>
      <use x="159.033203" xlink:href="#DejaVuSans-1072"/>
      <use x="220.3125" xlink:href="#DejaVuSans-1082"/>
      <use x="280.712891" xlink:href="#DejaVuSans-1094"/>
      <use x="348.779297" xlink:href="#DejaVuSans-1080"/>
      <use x="413.769531" xlink:href="#DejaVuSans-1081"/>
     </g>
    </g>
    <g id="line2d_24">
     <path d="M 81 91.692813 
L 101 91.692813 
" style="fill:none;stroke:#d62728;stroke-linecap:square;stroke-width:1.5;"/>
    </g>
    <g id="line2d_25"/>
    <g id="text_17">
     <!-- 500 акций -->
     <g transform="translate(109 95.192813)scale(0.1 -0.1)">
      <use xlink:href="#DejaVuSans-53"/>
      <use x="63.623047" xlink:href="#DejaVuSans-48"/>
      <use x="127.246094" xlink:href="#DejaVuSans-48"/>
      <use x="190.869141" xlink:href="#DejaVuSans-32"/>
      <use x="222.65625" xlink:href="#DejaVuSans-1072"/>
      <use x="283.935547" xlink:href="#DejaVuSans-1082"/>
      <use x="344.335938" xlink:href="#DejaVuSans-1094"/>
      <use x="412.402344" xlink:href="#DejaVuSans-1080"/>
      <use x="477.392578" xlink:href="#DejaVuSans-1081"/>
     </g>
    </g>
   </g>
  </g>
 </g>
 <defs>
  <clipPath id="pa17fb521f6">
   <rect height="221.76" width="446.4" x="72" y="34.56"/>
  </clipPath>
 </defs>
</svg>
