<?xml version="1.0" encoding="utf-8" standalone="no"?>
<!DOCTYPE svg PUBLIC "-//W3C//DTD SVG 1.1//EN"
  "http://www.w3.org/Graphics/SVG/1.1/DTD/svg11.dtd">
<!-- Created with matplotlib (https://matplotlib.org/) -->
<svg height="288pt" version="1.1" viewBox="0 0 576 288" width="576pt" xmlns="http://www.w3.org/2000/svg" xmlns:xlink="http://www.w3.org/1999/xlink">
 <defs>
  <style type="text/css">
*{stroke-linecap:butt;stroke-linejoin:round;}
  </style>
 </defs>
 <g id="figure_1">
  <g id="patch_1">
   <path d="M 0 288 
L 576 288 
L 576 0 
L 0 0 
z
" style="fill:#ffffff;"/>
  </g>
  <g id="axes_1">
   <g id="patch_2">
    <path d="M 72 256.32 
L 518.4 256.32 
L 518.4 34.56 
L 72 34.56 
z
" style="fill:#ffffff;"/>
   </g>
   <g id="matplotlib.axis_1">
    <g id="xtick_1">
     <g id="line2d_1">
      <defs>
       <path d="M 0 0 
L 0 3.5 
" id="m64f5241f42" style="stroke:#000000;stroke-width:0.8;"/>
      </defs>
      <g>
       <use style="stroke:#000000;stroke-width:0.8;" x="92.290909" xlink:href="#m64f5241f42" y="256.32"/>
      </g>
     </g>
     <g id="text_1">
      <!-- 0 -->
      <defs>
       <path d="M 31.78125 66.40625 
Q 24.171875 66.40625 20.328125 58.90625 
Q 16.5 51.421875 16.5 36.375 
Q 16.5 21.390625 20.328125 13.890625 
Q 24.171875 6.390625 31.78125 6.390625 
Q 39.453125 6.390625 43.28125 13.890625 
Q 47.125 21.390625 47.125 36.375 
Q 47.125 51.421875 43.28125 58.90625 
Q 39.453125 66.40625 31.78125 66.40625 
z
M 31.78125 74.21875 
Q 44.046875 74.21875 50.515625 64.515625 
Q 56.984375 54.828125 56.984375 36.375 
Q 56.984375 17.96875 50.515625 8.265625 
Q 44.046875 -1.421875 31.78125 -1.421875 
Q 19.53125 -1.421875 13.0625 8.265625 
Q 6.59375 17.96875 6.59375 36.375 
Q 6.59375 54.828125 13.0625 64.515625 
Q 19.53125 74.21875 31.78125 74.21875 
z
" id="DejaVuSans-48"/>
      </defs>
      <g transform="translate(89.109659 270.918437)scale(0.1 -0.1)">
       <use xlink:href="#DejaVuSans-48"/>
      </g>
     </g>
    </g>
    <g id="xtick_2">
     <g id="line2d_2">
      <g>
       <use style="stroke:#000000;stroke-width:0.8;" x="173.462663" xlink:href="#m64f5241f42" y="256.32"/>
      </g>
     </g>
     <g id="text_2">
      <!-- 20 -->
      <defs>
       <path d="M 19.1875 8.296875 
L 53.609375 8.296875 
L 53.609375 0 
L 7.328125 0 
L 7.328125 8.296875 
Q 12.9375 14.109375 22.625 23.890625 
Q 32.328125 33.6875 34.8125 36.53125 
Q 39.546875 41.84375 41.421875 45.53125 
Q 43.3125 49.21875 43.3125 52.78125 
Q 43.3125 58.59375 39.234375 62.25 
Q 35.15625 65.921875 28.609375 65.921875 
Q 23.96875 65.921875 18.8125 64.3125 
Q 13.671875 62.703125 7.8125 59.421875 
L 7.8125 69.390625 
Q 13.765625 71.78125 18.9375 73 
Q 24.125 74.21875 28.421875 74.21875 
Q 39.75 74.21875 46.484375 68.546875 
Q 53.21875 62.890625 53.21875 53.421875 
Q 53.21875 48.921875 51.53125 44.890625 
Q 49.859375 40.875 45.40625 35.40625 
Q 44.1875 33.984375 37.640625 27.21875 
Q 31.109375 20.453125 19.1875 8.296875 
z
" id="DejaVuSans-50"/>
      </defs>
      <g transform="translate(167.100163 270.918437)scale(0.1 -0.1)">
       <use xlink:href="#DejaVuSans-50"/>
       <use x="63.623047" xlink:href="#DejaVuSans-48"/>
      </g>
     </g>
    </g>
    <g id="xtick_3">
     <g id="line2d_3">
      <g>
       <use style="stroke:#000000;stroke-width:0.8;" x="254.634416" xlink:href="#m64f5241f42" y="256.32"/>
      </g>
     </g>
     <g id="text_3">
      <!-- 40 -->
      <defs>
       <path d="M 37.796875 64.3125 
L 12.890625 25.390625 
L 37.796875 25.390625 
z
M 35.203125 72.90625 
L 47.609375 72.90625 
L 47.609375 25.390625 
L 58.015625 25.390625 
L 58.015625 17.1875 
L 47.609375 17.1875 
L 47.609375 0 
L 37.796875 0 
L 37.796875 17.1875 
L 4.890625 17.1875 
L 4.890625 26.703125 
z
" id="DejaVuSans-52"/>
      </defs>
      <g transform="translate(248.271916 270.918437)scale(0.1 -0.1)">
       <use xlink:href="#DejaVuSans-52"/>
       <use x="63.623047" xlink:href="#DejaVuSans-48"/>
      </g>
     </g>
    </g>
    <g id="xtick_4">
     <g id="line2d_4">
      <g>
       <use style="stroke:#000000;stroke-width:0.8;" x="335.80617" xlink:href="#m64f5241f42" y="256.32"/>
      </g>
     </g>
     <g id="text_4">
      <!-- 60 -->
      <defs>
       <path d="M 33.015625 40.375 
Q 26.375 40.375 22.484375 35.828125 
Q 18.609375 31.296875 18.609375 23.390625 
Q 18.609375 15.53125 22.484375 10.953125 
Q 26.375 6.390625 33.015625 6.390625 
Q 39.65625 6.390625 43.53125 10.953125 
Q 47.40625 15.53125 47.40625 23.390625 
Q 47.40625 31.296875 43.53125 35.828125 
Q 39.65625 40.375 33.015625 40.375 
z
M 52.59375 71.296875 
L 52.59375 62.3125 
Q 48.875 64.0625 45.09375 64.984375 
Q 41.3125 65.921875 37.59375 65.921875 
Q 27.828125 65.921875 22.671875 59.328125 
Q 17.53125 52.734375 16.796875 39.40625 
Q 19.671875 43.65625 24.015625 45.921875 
Q 28.375 48.1875 33.59375 48.1875 
Q 44.578125 48.1875 50.953125 41.515625 
Q 57.328125 34.859375 57.328125 23.390625 
Q 57.328125 12.15625 50.6875 5.359375 
Q 44.046875 -1.421875 33.015625 -1.421875 
Q 20.359375 -1.421875 13.671875 8.265625 
Q 6.984375 17.96875 6.984375 36.375 
Q 6.984375 53.65625 15.1875 63.9375 
Q 23.390625 74.21875 37.203125 74.21875 
Q 40.921875 74.21875 44.703125 73.484375 
Q 48.484375 72.75 52.59375 71.296875 
z
" id="DejaVuSans-54"/>
      </defs>
      <g transform="translate(329.44367 270.918437)scale(0.1 -0.1)">
       <use xlink:href="#DejaVuSans-54"/>
       <use x="63.623047" xlink:href="#DejaVuSans-48"/>
      </g>
     </g>
    </g>
    <g id="xtick_5">
     <g id="line2d_5">
      <g>
       <use style="stroke:#000000;stroke-width:0.8;" x="416.977923" xlink:href="#m64f5241f42" y="256.32"/>
      </g>
     </g>
     <g id="text_5">
      <!-- 80 -->
      <defs>
       <path d="M 31.78125 34.625 
Q 24.75 34.625 20.71875 30.859375 
Q 16.703125 27.09375 16.703125 20.515625 
Q 16.703125 13.921875 20.71875 10.15625 
Q 24.75 6.390625 31.78125 6.390625 
Q 38.8125 6.390625 42.859375 10.171875 
Q 46.921875 13.96875 46.921875 20.515625 
Q 46.921875 27.09375 42.890625 30.859375 
Q 38.875 34.625 31.78125 34.625 
z
M 21.921875 38.8125 
Q 15.578125 40.375 12.03125 44.71875 
Q 8.5 49.078125 8.5 55.328125 
Q 8.5 64.0625 14.71875 69.140625 
Q 20.953125 74.21875 31.78125 74.21875 
Q 42.671875 74.21875 48.875 69.140625 
Q 55.078125 64.0625 55.078125 55.328125 
Q 55.078125 49.078125 51.53125 44.71875 
Q 48 40.375 41.703125 38.8125 
Q 48.828125 37.15625 52.796875 32.3125 
Q 56.78125 27.484375 56.78125 20.515625 
Q 56.78125 9.90625 50.3125 4.234375 
Q 43.84375 -1.421875 31.78125 -1.421875 
Q 19.734375 -1.421875 13.25 4.234375 
Q 6.78125 9.90625 6.78125 20.515625 
Q 6.78125 27.484375 10.78125 32.3125 
Q 14.796875 37.15625 21.921875 38.8125 
z
M 18.3125 54.390625 
Q 18.3125 48.734375 21.84375 45.5625 
Q 25.390625 42.390625 31.78125 42.390625 
Q 38.140625 42.390625 41.71875 45.5625 
Q 45.3125 48.734375 45.3125 54.390625 
Q 45.3125 60.0625 41.71875 63.234375 
Q 38.140625 66.40625 31.78125 66.40625 
Q 25.390625 66.40625 21.84375 63.234375 
Q 18.3125 60.0625 18.3125 54.390625 
z
" id="DejaVuSans-56"/>
      </defs>
      <g transform="translate(410.615423 270.918437)scale(0.1 -0.1)">
       <use xlink:href="#DejaVuSans-56"/>
       <use x="63.623047" xlink:href="#DejaVuSans-48"/>
      </g>
     </g>
    </g>
    <g id="xtick_6">
     <g id="line2d_6">
      <g>
       <use style="stroke:#000000;stroke-width:0.8;" x="498.149677" xlink:href="#m64f5241f42" y="256.32"/>
      </g>
     </g>
     <g id="text_6">
      <!-- 100 -->
      <defs>
       <path d="M 12.40625 8.296875 
L 28.515625 8.296875 
L 28.515625 63.921875 
L 10.984375 60.40625 
L 10.984375 69.390625 
L 28.421875 72.90625 
L 38.28125 72.90625 
L 38.28125 8.296875 
L 54.390625 8.296875 
L 54.390625 0 
L 12.40625 0 
z
" id="DejaVuSans-49"/>
      </defs>
      <g transform="translate(488.605927 270.918437)scale(0.1 -0.1)">
       <use xlink:href="#DejaVuSans-49"/>
       <use x="63.623047" xlink:href="#DejaVuSans-48"/>
       <use x="127.246094" xlink:href="#DejaVuSans-48"/>
      </g>
     </g>
    </g>
    <g id="text_7">
     <!-- доля акций, % -->
     <defs>
      <path d="M 21.625 7.171875 
L 47.703125 7.171875 
L 47.703125 47.515625 
L 28.8125 47.515625 
L 28.8125 40.671875 
Q 28.8125 20.5625 23.046875 9.8125 
z
M 8.59375 7.171875 
Q 13.03125 9.125 14.984375 13.28125 
Q 19.78125 23.578125 19.78125 44.34375 
L 19.78125 54.6875 
L 56.734375 54.6875 
L 56.734375 7.171875 
L 63.921875 7.171875 
L 63.921875 -13.8125 
L 56.734375 -13.8125 
L 56.734375 0 
L 12.40625 0 
L 12.40625 -13.8125 
L 5.21875 -13.8125 
L 5.21875 7.171875 
z
" id="DejaVuSans-1076"/>
      <path d="M 30.609375 48.390625 
Q 23.390625 48.390625 19.1875 42.75 
Q 14.984375 37.109375 14.984375 27.296875 
Q 14.984375 17.484375 19.15625 11.84375 
Q 23.34375 6.203125 30.609375 6.203125 
Q 37.796875 6.203125 41.984375 11.859375 
Q 46.1875 17.53125 46.1875 27.296875 
Q 46.1875 37.015625 41.984375 42.703125 
Q 37.796875 48.390625 30.609375 48.390625 
z
M 30.609375 56 
Q 42.328125 56 49.015625 48.375 
Q 55.71875 40.765625 55.71875 27.296875 
Q 55.71875 13.875 49.015625 6.21875 
Q 42.328125 -1.421875 30.609375 -1.421875 
Q 18.84375 -1.421875 12.171875 6.21875 
Q 5.515625 13.875 5.515625 27.296875 
Q 5.515625 40.765625 12.171875 48.375 
Q 18.84375 56 30.609375 56 
z
" id="DejaVuSans-1086"/>
      <path d="M 3.71875 0 
L 3.71875 7.46875 
Q 12.59375 8.84375 15.328125 14.984375 
Q 18.65625 23.640625 18.65625 45.75 
L 18.65625 54.6875 
L 55.609375 54.6875 
L 55.609375 0 
L 46.625 0 
L 46.625 47.515625 
L 27.640625 47.515625 
L 27.640625 42.09375 
Q 27.640625 21 23.34375 11.53125 
Q 18.75 1.421875 3.71875 0 
z
" id="DejaVuSans-1083"/>
      <path d="M 18.453125 38.921875 
Q 18.453125 34.859375 21.578125 32.5625 
Q 24.703125 30.28125 30.515625 30.28125 
L 42.625 30.28125 
L 42.625 47.515625 
L 30.515625 47.515625 
Q 24.703125 47.515625 21.578125 45.265625 
Q 18.453125 43.015625 18.453125 38.921875 
z
M 5.671875 0 
L 22.359375 23.96875 
Q 16.703125 25.25 12.9375 28.59375 
Q 9.1875 31.9375 9.1875 38.921875 
Q 9.1875 46.828125 14.421875 50.75 
Q 19.671875 54.6875 30.28125 54.6875 
L 51.65625 54.6875 
L 51.65625 0 
L 42.625 0 
L 42.625 23.09375 
L 31.453125 23.09375 
L 15.328125 0 
z
" id="DejaVuSans-1103"/>
      <path id="DejaVuSans-32"/>
      <path d="M 34.28125 27.484375 
Q 23.390625 27.484375 19.1875 25 
Q 14.984375 22.515625 14.984375 16.5 
Q 14.984375 11.71875 18.140625 8.90625 
Q 21.296875 6.109375 26.703125 6.109375 
Q 34.1875 6.109375 38.703125 11.40625 
Q 43.21875 16.703125 43.21875 25.484375 
L 43.21875 27.484375 
z
M 52.203125 31.203125 
L 52.203125 0 
L 43.21875 0 
L 43.21875 8.296875 
Q 40.140625 3.328125 35.546875 0.953125 
Q 30.953125 -1.421875 24.3125 -1.421875 
Q 15.921875 -1.421875 10.953125 3.296875 
Q 6 8.015625 6 15.921875 
Q 6 25.140625 12.171875 29.828125 
Q 18.359375 34.515625 30.609375 34.515625 
L 43.21875 34.515625 
L 43.21875 35.40625 
Q 43.21875 41.609375 39.140625 45 
Q 35.0625 48.390625 27.6875 48.390625 
Q 23 48.390625 18.546875 47.265625 
Q 14.109375 46.140625 10.015625 43.890625 
L 10.015625 52.203125 
Q 14.9375 54.109375 19.578125 55.046875 
Q 24.21875 56 28.609375 56 
Q 40.484375 56 46.34375 49.84375 
Q 52.203125 43.703125 52.203125 31.203125 
z
" id="DejaVuSans-1072"/>
      <path d="M 9.078125 54.6875 
L 18.015625 54.6875 
L 18.015625 29 
L 43.359375 54.6875 
L 54.390625 54.6875 
L 33.5 33.546875 
L 57.078125 0 
L 47.015625 0 
L 27.640625 27.59375 
L 18.015625 17.828125 
L 18.015625 0 
L 9.078125 0 
z
" id="DejaVuSans-1082"/>
      <path d="M 56.296875 0 
L 9.078125 0 
L 9.078125 54.6875 
L 18.109375 54.6875 
L 18.109375 7.171875 
L 47.265625 7.171875 
L 47.265625 54.6875 
L 56.296875 54.6875 
L 56.296875 7.171875 
L 63.484375 7.171875 
L 63.484375 -13.8125 
L 56.296875 -13.8125 
z
" id="DejaVuSans-1094"/>
      <path d="M 55.90625 54.6875 
L 55.90625 0 
L 46.96875 0 
L 46.96875 43.890625 
L 20.609375 0 
L 9.078125 0 
L 9.078125 54.6875 
L 18.015625 54.6875 
L 18.015625 10.890625 
L 44.34375 54.6875 
z
" id="DejaVuSans-1080"/>
      <path d="M 55.90625 54.6875 
L 55.90625 0 
L 46.96875 0 
L 46.96875 43.890625 
L 20.609375 0 
L 9.078125 0 
L 9.078125 54.6875 
L 18.015625 54.6875 
L 18.015625 10.890625 
L 44.34375 54.6875 
z
M 17.234375 75.96875 
L 23 75.96875 
Q 23.53125 72.3125 25.890625 70.46875 
Q 28.265625 68.640625 32.515625 68.640625 
Q 36.71875 68.640625 39.0625 70.453125 
Q 41.40625 72.265625 42.046875 75.96875 
L 47.796875 75.96875 
Q 47.3125 68.984375 43.453125 65.46875 
Q 39.59375 61.953125 32.515625 61.953125 
Q 25.4375 61.953125 21.578125 65.46875 
Q 17.71875 68.984375 17.234375 75.96875 
z
" id="DejaVuSans-1081"/>
      <path d="M 11.71875 12.40625 
L 22.015625 12.40625 
L 22.015625 4 
L 14.015625 -11.625 
L 7.71875 -11.625 
L 11.71875 4 
z
" id="DejaVuSans-44"/>
      <path d="M 72.703125 32.078125 
Q 68.453125 32.078125 66.03125 28.46875 
Q 63.625 24.859375 63.625 18.40625 
Q 63.625 12.0625 66.03125 8.421875 
Q 68.453125 4.78125 72.703125 4.78125 
Q 76.859375 4.78125 79.265625 8.421875 
Q 81.6875 12.0625 81.6875 18.40625 
Q 81.6875 24.8125 79.265625 28.4375 
Q 76.859375 32.078125 72.703125 32.078125 
z
M 72.703125 38.28125 
Q 80.421875 38.28125 84.953125 32.90625 
Q 89.5 27.546875 89.5 18.40625 
Q 89.5 9.28125 84.9375 3.921875 
Q 80.375 -1.421875 72.703125 -1.421875 
Q 64.890625 -1.421875 60.34375 3.921875 
Q 55.8125 9.28125 55.8125 18.40625 
Q 55.8125 27.59375 60.375 32.9375 
Q 64.9375 38.28125 72.703125 38.28125 
z
M 22.3125 68.015625 
Q 18.109375 68.015625 15.6875 64.375 
Q 13.28125 60.75 13.28125 54.390625 
Q 13.28125 47.953125 15.671875 44.328125 
Q 18.0625 40.71875 22.3125 40.71875 
Q 26.5625 40.71875 28.96875 44.328125 
Q 31.390625 47.953125 31.390625 54.390625 
Q 31.390625 60.6875 28.953125 64.34375 
Q 26.515625 68.015625 22.3125 68.015625 
z
M 66.40625 74.21875 
L 74.21875 74.21875 
L 28.609375 -1.421875 
L 20.796875 -1.421875 
z
M 22.3125 74.21875 
Q 30.03125 74.21875 34.609375 68.875 
Q 39.203125 63.53125 39.203125 54.390625 
Q 39.203125 45.171875 34.640625 39.84375 
Q 30.078125 34.515625 22.3125 34.515625 
Q 14.546875 34.515625 10.03125 39.859375 
Q 5.515625 45.21875 5.515625 54.390625 
Q 5.515625 63.484375 10.046875 68.84375 
Q 14.59375 74.21875 22.3125 74.21875 
z
" id="DejaVuSans-37"/>
     </defs>
     <g transform="translate(256.975781 284.596563)scale(0.1 -0.1)">
      <use xlink:href="#DejaVuSans-1076"/>
      <use x="69.140625" xlink:href="#DejaVuSans-1086"/>
      <use x="130.322266" xlink:href="#DejaVuSans-1083"/>
      <use x="194.238281" xlink:href="#DejaVuSans-1103"/>
      <use x="254.394531" xlink:href="#DejaVuSans-32"/>
      <use x="286.181641" xlink:href="#DejaVuSans-1072"/>
      <use x="347.460938" xlink:href="#DejaVuSans-1082"/>
      <use x="407.861328" xlink:href="#DejaVuSans-1094"/>
      <use x="475.927734" xlink:href="#DejaVuSans-1080"/>
      <use x="540.917969" xlink:href="#DejaVuSans-1081"/>
      <use x="605.908203" xlink:href="#DejaVuSans-44"/>
      <use x="637.695312" xlink:href="#DejaVuSans-32"/>
      <use x="669.482422" xlink:href="#DejaVuSans-37"/>
     </g>
    </g>
   </g>
   <g id="matplotlib.axis_2">
    <g id="ytick_1">
     <g id="line2d_7">
      <defs>
       <path d="M 0 0 
L -3.5 0 
" id="m0214f5c3c0" style="stroke:#000000;stroke-width:0.8;"/>
      </defs>
      <g>
       <use style="stroke:#000000;stroke-width:0.8;" x="72" xlink:href="#m0214f5c3c0" y="256.32"/>
      </g>
     </g>
     <g id="text_8">
      <!-- 0.01 -->
      <defs>
       <path d="M 10.6875 12.40625 
L 21 12.40625 
L 21 0 
L 10.6875 0 
z
" id="DejaVuSans-46"/>
      </defs>
      <g transform="translate(42.734375 260.119219)scale(0.1 -0.1)">
       <use xlink:href="#DejaVuSans-48"/>
       <use x="63.623047" xlink:href="#DejaVuSans-46"/>
       <use x="95.410156" xlink:href="#DejaVuSans-48"/>
       <use x="159.033203" xlink:href="#DejaVuSans-49"/>
      </g>
     </g>
    </g>
    <g id="ytick_2">
     <g id="line2d_8">
      <g>
       <use style="stroke:#000000;stroke-width:0.8;" x="72" xlink:href="#m0214f5c3c0" y="200.88"/>
      </g>
     </g>
     <g id="text_9">
      <!-- 0.1 -->
      <g transform="translate(49.096875 204.679219)scale(0.1 -0.1)">
       <use xlink:href="#DejaVuSans-48"/>
       <use x="63.623047" xlink:href="#DejaVuSans-46"/>
       <use x="95.410156" xlink:href="#DejaVuSans-49"/>
      </g>
     </g>
    </g>
    <g id="ytick_3">
     <g id="line2d_9">
      <g>
       <use style="stroke:#000000;stroke-width:0.8;" x="72" xlink:href="#m0214f5c3c0" y="145.44"/>
      </g>
     </g>
     <g id="text_10">
      <!-- 1 -->
      <g transform="translate(58.6375 149.239219)scale(0.1 -0.1)">
       <use xlink:href="#DejaVuSans-49"/>
      </g>
     </g>
    </g>
    <g id="ytick_4">
     <g id="line2d_10">
      <g>
       <use style="stroke:#000000;stroke-width:0.8;" x="72" xlink:href="#m0214f5c3c0" y="90"/>
      </g>
     </g>
     <g id="text_11">
      <!-- 10 -->
      <g transform="translate(52.275 93.799219)scale(0.1 -0.1)">
       <use xlink:href="#DejaVuSans-49"/>
       <use x="63.623047" xlink:href="#DejaVuSans-48"/>
      </g>
     </g>
    </g>
    <g id="ytick_5">
     <g id="line2d_11">
      <g>
       <use style="stroke:#000000;stroke-width:0.8;" x="72" xlink:href="#m0214f5c3c0" y="34.56"/>
      </g>
     </g>
     <g id="text_12">
      <!-- 100 -->
      <g transform="translate(45.9125 38.359219)scale(0.1 -0.1)">
       <use xlink:href="#DejaVuSans-49"/>
       <use x="63.623047" xlink:href="#DejaVuSans-48"/>
       <use x="127.246094" xlink:href="#DejaVuSans-48"/>
      </g>
     </g>
    </g>
    <g id="ytick_6">
     <g id="line2d_12">
      <defs>
       <path d="M 0 0 
L -2 0 
" id="m1c154b54f8" style="stroke:#000000;stroke-width:0.6;"/>
      </defs>
      <g>
       <use style="stroke:#000000;stroke-width:0.6;" x="72" xlink:href="#m1c154b54f8" y="239.630897"/>
      </g>
     </g>
    </g>
    <g id="ytick_7">
     <g id="line2d_13">
      <g>
       <use style="stroke:#000000;stroke-width:0.6;" x="72" xlink:href="#m1c154b54f8" y="229.868398"/>
      </g>
     </g>
    </g>
    <g id="ytick_8">
     <g id="line2d_14">
      <g>
       <use style="stroke:#000000;stroke-width:0.6;" x="72" xlink:href="#m1c154b54f8" y="222.941794"/>
      </g>
     </g>
    </g>
    <g id="ytick_9">
     <g id="line2d_15">
      <g>
       <use style="stroke:#000000;stroke-width:0.6;" x="72" xlink:href="#m1c154b54f8" y="217.569103"/>
      </g>
     </g>
    </g>
    <g id="ytick_10">
     <g id="line2d_16">
      <g>
       <use style="stroke:#000000;stroke-width:0.6;" x="72" xlink:href="#m1c154b54f8" y="213.179295"/>
      </g>
     </g>
    </g>
    <g id="ytick_11">
     <g id="line2d_17">
      <g>
       <use style="stroke:#000000;stroke-width:0.6;" x="72" xlink:href="#m1c154b54f8" y="209.467765"/>
      </g>
     </g>
    </g>
    <g id="ytick_12">
     <g id="line2d_18">
      <g>
       <use style="stroke:#000000;stroke-width:0.6;" x="72" xlink:href="#m1c154b54f8" y="206.252691"/>
      </g>
     </g>
    </g>
    <g id="ytick_13">
     <g id="line2d_19">
      <g>
       <use style="stroke:#000000;stroke-width:0.6;" x="72" xlink:href="#m1c154b54f8" y="203.416795"/>
      </g>
     </g>
    </g>
    <g id="ytick_14">
     <g id="line2d_20">
      <g>
       <use style="stroke:#000000;stroke-width:0.6;" x="72" xlink:href="#m1c154b54f8" y="184.190897"/>
      </g>
     </g>
    </g>
    <g id="ytick_15">
     <g id="line2d_21">
      <g>
       <use style="stroke:#000000;stroke-width:0.6;" x="72" xlink:href="#m1c154b54f8" y="174.428398"/>
      </g>
     </g>
    </g>
    <g id="ytick_16">
     <g id="line2d_22">
      <g>
       <use style="stroke:#000000;stroke-width:0.6;" x="72" xlink:href="#m1c154b54f8" y="167.501794"/>
      </g>
     </g>
    </g>
    <g id="ytick_17">
     <g id="line2d_23">
      <g>
       <use style="stroke:#000000;stroke-width:0.6;" x="72" xlink:href="#m1c154b54f8" y="162.129103"/>
      </g>
     </g>
    </g>
    <g id="ytick_18">
     <g id="line2d_24">
      <g>
       <use style="stroke:#000000;stroke-width:0.6;" x="72" xlink:href="#m1c154b54f8" y="157.739295"/>
      </g>
     </g>
    </g>
    <g id="ytick_19">
     <g id="line2d_25">
      <g>
       <use style="stroke:#000000;stroke-width:0.6;" x="72" xlink:href="#m1c154b54f8" y="154.027765"/>
      </g>
     </g>
    </g>
    <g id="ytick_20">
     <g id="line2d_26">
      <g>
       <use style="stroke:#000000;stroke-width:0.6;" x="72" xlink:href="#m1c154b54f8" y="150.812691"/>
      </g>
     </g>
    </g>
    <g id="ytick_21">
     <g id="line2d_27">
      <g>
       <use style="stroke:#000000;stroke-width:0.6;" x="72" xlink:href="#m1c154b54f8" y="147.976795"/>
      </g>
     </g>
    </g>
    <g id="ytick_22">
     <g id="line2d_28">
      <g>
       <use style="stroke:#000000;stroke-width:0.6;" x="72" xlink:href="#m1c154b54f8" y="128.750897"/>
      </g>
     </g>
    </g>
    <g id="ytick_23">
     <g id="line2d_29">
      <g>
       <use style="stroke:#000000;stroke-width:0.6;" x="72" xlink:href="#m1c154b54f8" y="118.988398"/>
      </g>
     </g>
    </g>
    <g id="ytick_24">
     <g id="line2d_30">
      <g>
       <use style="stroke:#000000;stroke-width:0.6;" x="72" xlink:href="#m1c154b54f8" y="112.061794"/>
      </g>
     </g>
    </g>
    <g id="ytick_25">
     <g id="line2d_31">
      <g>
       <use style="stroke:#000000;stroke-width:0.6;" x="72" xlink:href="#m1c154b54f8" y="106.689103"/>
      </g>
     </g>
    </g>
    <g id="ytick_26">
     <g id="line2d_32">
      <g>
       <use style="stroke:#000000;stroke-width:0.6;" x="72" xlink:href="#m1c154b54f8" y="102.299295"/>
      </g>
     </g>
    </g>
    <g id="ytick_27">
     <g id="line2d_33">
      <g>
       <use style="stroke:#000000;stroke-width:0.6;" x="72" xlink:href="#m1c154b54f8" y="98.587765"/>
      </g>
     </g>
    </g>
    <g id="ytick_28">
     <g id="line2d_34">
      <g>
       <use style="stroke:#000000;stroke-width:0.6;" x="72" xlink:href="#m1c154b54f8" y="95.372691"/>
      </g>
     </g>
    </g>
    <g id="ytick_29">
     <g id="line2d_35">
      <g>
       <use style="stroke:#000000;stroke-width:0.6;" x="72" xlink:href="#m1c154b54f8" y="92.536795"/>
      </g>
     </g>
    </g>
    <g id="ytick_30">
     <g id="line2d_36">
      <g>
       <use style="stroke:#000000;stroke-width:0.6;" x="72" xlink:href="#m1c154b54f8" y="73.310897"/>
      </g>
     </g>
    </g>
    <g id="ytick_31">
     <g id="line2d_37">
      <g>
       <use style="stroke:#000000;stroke-width:0.6;" x="72" xlink:href="#m1c154b54f8" y="63.548398"/>
      </g>
     </g>
    </g>
    <g id="ytick_32">
     <g id="line2d_38">
      <g>
       <use style="stroke:#000000;stroke-width:0.6;" x="72" xlink:href="#m1c154b54f8" y="56.621794"/>
      </g>
     </g>
    </g>
    <g id="ytick_33">
     <g id="line2d_39">
      <g>
       <use style="stroke:#000000;stroke-width:0.6;" x="72" xlink:href="#m1c154b54f8" y="51.249103"/>
      </g>
     </g>
    </g>
    <g id="ytick_34">
     <g id="line2d_40">
      <g>
       <use style="stroke:#000000;stroke-width:0.6;" x="72" xlink:href="#m1c154b54f8" y="46.859295"/>
      </g>
     </g>
    </g>
    <g id="ytick_35">
     <g id="line2d_41">
      <g>
       <use style="stroke:#000000;stroke-width:0.6;" x="72" xlink:href="#m1c154b54f8" y="43.147765"/>
      </g>
     </g>
    </g>
    <g id="ytick_36">
     <g id="line2d_42">
      <g>
       <use style="stroke:#000000;stroke-width:0.6;" x="72" xlink:href="#m1c154b54f8" y="39.932691"/>
      </g>
     </g>
    </g>
    <g id="ytick_37">
     <g id="line2d_43">
      <g>
       <use style="stroke:#000000;stroke-width:0.6;" x="72" xlink:href="#m1c154b54f8" y="37.096795"/>
      </g>
     </g>
    </g>
    <g id="text_13">
     <!-- цена -->
     <defs>
      <path d="M 56.203125 29.59375 
L 56.203125 25.203125 
L 14.890625 25.203125 
Q 15.484375 15.921875 20.484375 11.0625 
Q 25.484375 6.203125 34.421875 6.203125 
Q 39.59375 6.203125 44.453125 7.46875 
Q 49.3125 8.734375 54.109375 11.28125 
L 54.109375 2.78125 
Q 49.265625 0.734375 44.1875 -0.34375 
Q 39.109375 -1.421875 33.890625 -1.421875 
Q 20.796875 -1.421875 13.15625 6.1875 
Q 5.515625 13.8125 5.515625 26.8125 
Q 5.515625 40.234375 12.765625 48.109375 
Q 20.015625 56 32.328125 56 
Q 43.359375 56 49.78125 48.890625 
Q 56.203125 41.796875 56.203125 29.59375 
z
M 47.21875 32.234375 
Q 47.125 39.59375 43.09375 43.984375 
Q 39.0625 48.390625 32.421875 48.390625 
Q 24.90625 48.390625 20.390625 44.140625 
Q 15.875 39.890625 15.1875 32.171875 
z
" id="DejaVuSans-1077"/>
      <path d="M 9.078125 54.6875 
L 18.109375 54.6875 
L 18.109375 32.375 
L 47.265625 32.375 
L 47.265625 54.6875 
L 56.296875 54.6875 
L 56.296875 0 
L 47.265625 0 
L 47.265625 25.203125 
L 18.109375 25.203125 
L 18.109375 0 
L 9.078125 0 
z
" id="DejaVuSans-1085"/>
     </defs>
     <g transform="translate(36.654688 158.2525)rotate(-90)scale(0.1 -0.1)">
      <use xlink:href="#DejaVuSans-1094"/>
      <use x="68.066406" xlink:href="#DejaVuSans-1077"/>
      <use x="129.589844" xlink:href="#DejaVuSans-1085"/>
      <use x="194.970703" xlink:href="#DejaVuSans-1072"/>
     </g>
    </g>
   </g>
   <g id="line2d_44">
    <path clip-path="url(#pe8f52d01fc)" d="M 92.290909 247.914908 
L 92.493838 222.054033 
L 92.534424 222.046056 
L 92.615596 220.768418 
L 92.77794 217.015245 
L 93.021455 213.872787 
L 93.062041 213.717568 
L 93.305556 211.164007 
L 93.386728 210.956025 
L 93.589657 209.643815 
L 93.873758 208.575842 
L 94.076688 207.262501 
L 94.360789 205.966246 
L 94.401375 205.922768 
L 94.523132 205.318335 
L 94.604304 205.148298 
L 94.685476 204.712959 
L 94.888405 204.059686 
L 95.172506 203.238233 
L 95.416022 201.940698 
L 95.456607 201.936693 
L 95.659537 201.293029 
L 95.984224 200.810529 
L 96.105982 200.706842 
L 96.430669 199.534671 
L 96.51184 199.384288 
L 96.755356 198.889289 
L 96.917699 198.683581 
L 97.120628 197.924033 
L 97.2018 197.85496 
L 97.364144 197.617329 
L 97.526487 197.473739 
L 98.500548 195.936239 
L 98.662892 195.82127 
L 98.906407 195.52976 
L 99.393438 194.700795 
L 99.636953 194.622455 
L 99.880468 194.05606 
L 100.083397 193.929344 
L 100.245741 193.593074 
L 100.6516 192.999055 
L 102.193863 191.449941 
L 102.437378 191.164376 
L 102.640308 191.044839 
L 102.843237 190.939281 
L 103.573783 190.126939 
L 104.669602 189.238502 
L 104.831945 189.060488 
L 105.237804 188.879178 
L 105.440733 188.551222 
L 106.536552 187.953544 
L 106.739481 187.659735 
L 107.064168 187.554799 
L 107.267098 187.198689 
L 108.809361 186.360249 
L 108.971704 186.228379 
L 109.134048 186.157373 
L 109.336977 185.911299 
L 109.742836 185.715832 
L 110.39221 185.086098 
L 110.554554 185.006995 
L 110.757483 184.906444 
L 111.325685 184.540138 
L 111.528615 184.403635 
L 111.934473 184.195797 
L 113.354979 183.593599 
L 113.923181 183.401636 
L 115.221929 182.611183 
L 115.343687 182.519588 
L 116.074233 182.156564 
L 116.358334 182.074325 
L 116.561263 181.950919 
L 117.941183 181.187808 
L 118.509385 180.888264 
L 118.874658 180.740355 
L 119.64579 180.434765 
L 120.782195 180.099927 
L 121.066296 179.931634 
L 121.51274 179.810769 
L 122.40563 179.533512 
L 122.608559 179.406527 
L 123.136175 179.186182 
L 123.298519 179.049234 
L 123.704378 178.951981 
L 124.069651 178.78572 
L 124.556681 178.636508 
L 124.921954 178.44378 
L 125.206055 178.322312 
L 125.855429 178.023764 
L 126.13953 177.920036 
L 127.681794 177.49738 
L 127.884723 177.383527 
L 128.20941 177.19915 
L 128.89937 177.020307 
L 129.832845 176.680853 
L 132.876786 175.569335 
L 133.363816 175.4198 
L 136.975959 174.311105 
L 137.46299 174.14432 
L 138.15295 173.911728 
L 138.599394 173.794516 
L 140.101072 173.439799 
L 140.385173 173.301185 
L 140.831618 173.190303 
L 144.281417 172.391289 
L 144.524932 172.30354 
L 144.84962 172.168035 
L 147.487701 171.399976 
L 147.731217 171.2659 
L 148.258833 171.142444 
L 148.542934 171.043743 
L 149.557581 170.7686 
L 150.896915 170.550651 
L 152.073906 170.208367 
L 152.398593 170.095101 
L 154.103199 169.708308 
L 154.59023 169.598731 
L 155.320776 169.391908 
L 156.132493 169.236567 
L 160.312839 168.317511 
L 160.840455 168.206272 
L 161.571001 168.024001 
L 162.017445 167.922072 
L 162.666819 167.656366 
L 163.64088 167.47726 
L 163.924982 167.405591 
L 165.670174 167.026733 
L 165.954275 166.925997 
L 166.360134 166.813568 
L 167.253023 166.667071 
L 170.621651 165.734894 
L 171.758056 165.533652 
L 171.920399 165.455266 
L 173.056804 165.22236 
L 176.790705 164.525401 
L 177.561836 164.398454 
L 178.048867 164.279759 
L 180.605777 163.831075 
L 181.133393 163.687384 
L 181.45808 163.581867 
L 187.708305 162.622223 
L 188.438851 162.502432 
L 188.722952 162.458026 
L 189.372326 162.336225 
L 190.71166 162.054731 
L 191.320448 161.929699 
L 191.482792 161.866003 
L 192.050994 161.792619 
L 194.973177 161.207639 
L 196.109582 161.045858 
L 196.393683 160.963068 
L 200.371099 160.209542 
L 201.385746 160.03181 
L 217.579511 157.267889 
L 217.823026 157.196028 
L 218.350642 157.114374 
L 224.519696 156.046718 
L 225.290827 155.923142 
L 225.6561 155.862879 
L 226.670747 155.616831 
L 229.268243 155.183229 
L 230.566991 154.969742 
L 231.135194 154.854746 
L 232.271598 154.681065 
L 234.382064 154.320228 
L 235.761983 154.183314 
L 236.695459 154.038278 
L 237.304247 153.942488 
L 240.348188 153.482887 
L 240.754046 153.402602 
L 248.952393 151.974988 
L 250.85993 151.74291 
L 251.671647 151.610408 
L 253.092153 151.406279 
L 253.457426 151.354633 
L 254.59383 151.224055 
L 255.770821 151.062303 
L 256.501367 150.932724 
L 256.704296 150.863355 
L 257.35367 150.736092 
L 257.921872 150.654111 
L 260.519368 150.357856 
L 261.452843 150.174529 
L 262.386319 150.064925 
L 264.009754 149.830829 
L 266.241977 149.530799 
L 268.514786 149.185164 
L 269.16416 149.075801 
L 272.573374 148.604315 
L 272.898061 148.532484 
L 274.927355 148.27656 
L 276.510204 148.060163 
L 276.956648 147.969616 
L 284.180934 146.923884 
L 284.465036 146.88357 
L 294.449161 145.406796 
L 294.692677 145.340789 
L 309.384764 143.156644 
L 309.628279 143.080125 
L 316.243777 142.033041 
L 317.907798 141.74118 
L 318.151313 141.690746 
L 319.490647 141.518567 
L 321.357598 141.167221 
L 322.250487 141.063719 
L 322.981033 140.96263 
L 324.360952 140.753997 
L 326.430832 140.423998 
L 327.648408 140.268699 
L 328.135439 140.162798 
L 349.118337 137.138096 
L 349.443024 137.067694 
L 350.254742 136.932281 
L 350.538843 136.854556 
L 351.55349 136.724638 
L 354.881532 136.112705 
L 355.287391 136.018979 
L 356.748482 135.822385 
L 357.641371 135.700252 
L 359.305392 135.478849 
L 359.711251 135.425695 
L 362.917535 134.972413 
L 363.282808 134.882395 
L 364.906243 134.671675 
L 368.274871 134.034504 
L 369.289518 133.89989 
L 369.735963 133.818373 
L 370.831781 133.630744 
L 375.499157 132.757974 
L 376.594976 132.580587 
L 377.24435 132.459418 
L 378.908371 132.181001 
L 379.720088 132.072419 
L 380.450634 131.952588 
L 383.575747 131.395034 
L 383.981605 131.252304 
L 385.605041 130.978986 
L 386.010899 130.899629 
L 386.98496 130.741659 
L 387.390819 130.654322 
L 389.176598 130.337171 
L 390.272416 130.101051 
L 391.165306 129.938521 
L 391.692922 129.825476 
L 391.895851 129.759656 
L 392.464054 129.652256 
L 394.046903 129.443203 
L 394.37159 129.360335 
L 397.740218 128.803571 
L 398.267834 128.6931 
L 400.053613 128.31057 
L 400.540643 128.194336 
L 402.204664 127.895431 
L 402.813452 127.744797 
L 403.746927 127.567997 
L 403.949857 127.518766 
L 405.167433 127.29563 
L 405.451534 127.248122 
L 409.469536 126.557499 
L 410.321839 126.379467 
L 411.458244 126.146836 
L 414.502185 125.628061 
L 414.786286 125.574149 
L 417.424368 124.992837 
L 417.830227 124.891142 
L 418.154914 124.781136 
L 419.169561 124.566229 
L 419.778349 124.417728 
L 420.305965 124.275439 
L 420.995925 124.154418 
L 421.888814 123.9234 
L 422.213501 123.842931 
L 425.947402 123.112928 
L 426.190917 123.02233 
L 427.93611 122.603944 
L 428.179625 122.546571 
L 429.1131 122.347861 
L 429.397202 122.244119 
L 430.046576 122.055132 
L 430.980051 121.816752 
L 432.035284 121.47655 
L 432.400556 121.386242 
L 433.212274 121.264687 
L 433.780476 121.09719 
L 434.308093 120.945072 
L 434.592194 120.8864 
L 437.18969 120.19012 
L 437.554963 120.070696 
L 438.204337 119.946609 
L 438.813125 119.821075 
L 439.381327 119.662555 
L 440.030701 119.454112 
L 440.355388 119.339482 
L 440.801833 119.255771 
L 441.329449 119.135883 
L 441.775894 118.961564 
L 442.790541 118.69382 
L 442.99347 118.559394 
L 444.941592 117.922906 
L 445.103936 117.818626 
L 445.834482 117.69074 
L 447.498503 117.183382 
L 449.771312 116.667056 
L 449.933655 116.559399 
L 458.903134 113.547703 
L 459.349579 113.447811 
L 459.63368 113.314613 
L 460.445397 113.16273 
L 460.729498 113.016025 
L 461.297701 112.866653 
L 461.50063 112.769145 
L 461.744145 112.674371 
L 461.987661 112.548986 
L 464.991015 111.533526 
L 465.193945 111.365633 
L 465.396874 111.261899 
L 466.086834 110.973537 
L 467.791441 110.351172 
L 467.99437 110.271286 
L 468.156714 110.162279 
L 468.440815 110.043642 
L 468.968431 109.833308 
L 469.333704 109.659954 
L 469.536634 109.569171 
L 470.104836 109.440067 
L 470.429523 109.297403 
L 470.835382 109.170702 
L 471.119483 108.973785 
L 472.13413 108.327697 
L 472.661746 108.139244 
L 472.945847 107.968448 
L 473.31112 107.858762 
L 473.798151 107.522918 
L 475.502758 106.94557 
L 475.827445 106.785857 
L 475.989788 106.67373 
L 476.436233 106.473422 
L 477.166778 106.13554 
L 477.45088 105.794537 
L 477.856738 105.5869 
L 478.303183 105.23767 
L 478.830799 104.936428 
L 479.114901 104.856856 
L 479.358416 104.686388 
L 479.601931 104.435162 
L 479.80486 104.293103 
L 480.251305 104.148817 
L 480.69775 103.794905 
L 481.306538 103.477509 
L 481.509467 103.302415 
L 481.712397 103.149649 
L 482.280599 102.428109 
L 482.442942 102.307944 
L 483.417004 101.703416 
L 483.619933 101.555015 
L 484.350479 101.114515 
L 484.472236 101.026622 
L 484.796923 100.845749 
L 484.999853 100.719509 
L 485.32454 100.495602 
L 486.0145 100.090218 
L 486.420358 99.681741 
L 486.826217 99.523917 
L 487.272662 99.303267 
L 487.759692 98.498525 
L 487.962622 98.238303 
L 488.165551 98.085566 
L 488.611996 97.60148 
L 488.814925 97.43346 
L 488.896097 97.390623 
L 489.05844 97.124432 
L 489.26137 96.894025 
L 489.626643 96.600997 
L 489.788986 96.160633 
L 490.194845 95.534241 
L 490.43836 95.123928 
L 490.803633 94.858862 
L 490.965977 94.735553 
L 491.453007 94.327211 
L 491.655937 94.068806 
L 491.81828 93.926226 
L 493.441715 91.384842 
L 493.604059 91.016285 
L 494.37519 90.125837 
L 494.496948 89.937062 
L 494.862221 88.567843 
L 495.511595 86.746333 
L 495.592767 86.631542 
L 495.795696 86.171526 
L 495.958039 84.719522 
L 497.013272 81.231233 
L 497.500303 75.253015 
L 497.784404 72.851246 
L 497.987333 69.423437 
L 498.068505 67.423452 
L 498.109091 60.16986 
L 498.109091 60.16986 
" style="fill:none;stroke:#1f77b4;stroke-linecap:square;stroke-width:1.5;"/>
   </g>
   <g id="line2d_45">
    <path clip-path="url(#pe8f52d01fc)" d="M 295.220293 256.32 
L 295.220293 34.56 
" style="fill:none;stroke:#808080;stroke-linecap:square;stroke-width:0.3;"/>
   </g>
   <g id="line2d_46">
    <path clip-path="url(#pe8f52d01fc)" d="M 72 145.44 
L 518.4 145.44 
" style="fill:none;stroke:#808080;stroke-linecap:square;stroke-width:0.3;"/>
   </g>
   <g id="line2d_47">
    <path clip-path="url(#pe8f52d01fc)" d="M 376.392046 256.32 
L 376.392046 132.615078 
" style="fill:none;stroke:#000000;stroke-linecap:square;stroke-width:0.5;"/>
   </g>
   <g id="line2d_48">
    <path clip-path="url(#pe8f52d01fc)" d="M 72 132.615078 
L 376.392046 132.615078 
" style="fill:none;stroke:#000000;stroke-linecap:square;stroke-width:0.5;"/>
   </g>
   <g id="line2d_49">
    <path clip-path="url(#pe8f52d01fc)" d="M 457.5638 256.32 
L 457.5638 113.9091 
" style="fill:none;stroke:#000000;stroke-linecap:square;stroke-width:0.5;"/>
   </g>
   <g id="line2d_50">
    <path clip-path="url(#pe8f52d01fc)" d="M 72 113.9091 
L 457.5638 113.9091 
" style="fill:none;stroke:#000000;stroke-linecap:square;stroke-width:0.5;"/>
   </g>
   <g id="patch_3">
    <path d="M 72 256.32 
L 72 34.56 
" style="fill:none;stroke:#000000;stroke-linecap:square;stroke-linejoin:miter;stroke-width:0.8;"/>
   </g>
   <g id="patch_4">
    <path d="M 518.4 256.32 
L 518.4 34.56 
" style="fill:none;stroke:#000000;stroke-linecap:square;stroke-linejoin:miter;stroke-width:0.8;"/>
   </g>
   <g id="patch_5">
    <path d="M 72 256.32 
L 518.4 256.32 
" style="fill:none;stroke:#000000;stroke-linecap:square;stroke-linejoin:miter;stroke-width:0.8;"/>
   </g>
   <g id="patch_6">
    <path d="M 72 34.56 
L 518.4 34.56 
" style="fill:none;stroke:#000000;stroke-linecap:square;stroke-linejoin:miter;stroke-width:0.8;"/>
   </g>
  </g>
  <g id="axes_2">
   <g id="matplotlib.axis_3">
    <g id="xtick_7">
     <g id="line2d_51">
      <g>
       <use style="stroke:#000000;stroke-width:0.8;" x="376.392046" xlink:href="#m64f5241f42" y="256.32"/>
      </g>
     </g>
     <g id="text_14">
      <!-- Ax -->
      <defs>
       <path d="M 34.1875 63.1875 
L 20.796875 26.90625 
L 47.609375 26.90625 
z
M 28.609375 72.90625 
L 39.796875 72.90625 
L 67.578125 0 
L 57.328125 0 
L 50.6875 18.703125 
L 17.828125 18.703125 
L 11.1875 0 
L 0.78125 0 
z
" id="DejaVuSans-65"/>
       <path d="M 54.890625 54.6875 
L 35.109375 28.078125 
L 55.90625 0 
L 45.3125 0 
L 29.390625 21.484375 
L 13.484375 0 
L 2.875 0 
L 24.125 28.609375 
L 4.6875 54.6875 
L 15.28125 54.6875 
L 29.78125 35.203125 
L 44.28125 54.6875 
z
" id="DejaVuSans-120"/>
      </defs>
      <g transform="translate(370.012359 270.918437)scale(0.1 -0.1)">
       <use xlink:href="#DejaVuSans-65"/>
       <use x="68.408203" xlink:href="#DejaVuSans-120"/>
      </g>
     </g>
    </g>
    <g id="xtick_8">
     <g id="line2d_52">
      <g>
       <use style="stroke:#000000;stroke-width:0.8;" x="457.5638" xlink:href="#m64f5241f42" y="256.32"/>
      </g>
     </g>
     <g id="text_15">
      <!-- Bx -->
      <defs>
       <path d="M 19.671875 34.8125 
L 19.671875 8.109375 
L 35.5 8.109375 
Q 43.453125 8.109375 47.28125 11.40625 
Q 51.125 14.703125 51.125 21.484375 
Q 51.125 28.328125 47.28125 31.5625 
Q 43.453125 34.8125 35.5 34.8125 
z
M 19.671875 64.796875 
L 19.671875 42.828125 
L 34.28125 42.828125 
Q 41.5 42.828125 45.03125 45.53125 
Q 48.578125 48.25 48.578125 53.8125 
Q 48.578125 59.328125 45.03125 62.0625 
Q 41.5 64.796875 34.28125 64.796875 
z
M 9.8125 72.90625 
L 35.015625 72.90625 
Q 46.296875 72.90625 52.390625 68.21875 
Q 58.5 63.53125 58.5 54.890625 
Q 58.5 48.1875 55.375 44.234375 
Q 52.25 40.28125 46.1875 39.3125 
Q 53.46875 37.75 57.5 32.78125 
Q 61.53125 27.828125 61.53125 20.40625 
Q 61.53125 10.640625 54.890625 5.3125 
Q 48.25 0 35.984375 0 
L 9.8125 0 
z
" id="DejaVuSans-66"/>
      </defs>
      <g transform="translate(451.173956 270.918437)scale(0.1 -0.1)">
       <use xlink:href="#DejaVuSans-66"/>
       <use x="68.603516" xlink:href="#DejaVuSans-120"/>
      </g>
     </g>
    </g>
   </g>
   <g id="patch_7">
    <path d="M 72 256.32 
L 72 34.56 
" style="fill:none;stroke:#000000;stroke-linecap:square;stroke-linejoin:miter;stroke-width:0.8;"/>
   </g>
   <g id="patch_8">
    <path d="M 518.4 256.32 
L 518.4 34.56 
" style="fill:none;stroke:#000000;stroke-linecap:square;stroke-linejoin:miter;stroke-width:0.8;"/>
   </g>
   <g id="patch_9">
    <path d="M 72 256.32 
L 518.4 256.32 
" style="fill:none;stroke:#000000;stroke-linecap:square;stroke-linejoin:miter;stroke-width:0.8;"/>
   </g>
   <g id="patch_10">
    <path d="M 72 34.56 
L 518.4 34.56 
" style="fill:none;stroke:#000000;stroke-linecap:square;stroke-linejoin:miter;stroke-width:0.8;"/>
   </g>
  </g>
  <g id="axes_3">
   <g id="matplotlib.axis_4">
    <g id="ytick_38">
     <g id="text_16">
      <!-- Ay -->
      <defs>
       <path d="M 32.171875 -5.078125 
Q 28.375 -14.84375 24.75 -17.8125 
Q 21.140625 -20.796875 15.09375 -20.796875 
L 7.90625 -20.796875 
L 7.90625 -13.28125 
L 13.1875 -13.28125 
Q 16.890625 -13.28125 18.9375 -11.515625 
Q 21 -9.765625 23.484375 -3.21875 
L 25.09375 0.875 
L 2.984375 54.6875 
L 12.5 54.6875 
L 29.59375 11.921875 
L 46.6875 54.6875 
L 56.203125 54.6875 
z
" id="DejaVuSans-121"/>
      </defs>
      <g transform="translate(52.25 136.414297)scale(0.1 -0.1)">
       <use xlink:href="#DejaVuSans-65"/>
       <use x="68.314453" xlink:href="#DejaVuSans-121"/>
      </g>
     </g>
    </g>
    <g id="ytick_39">
     <g id="text_17">
      <!-- By -->
      <g transform="translate(52.220312 117.708319)scale(0.1 -0.1)">
       <use xlink:href="#DejaVuSans-66"/>
       <use x="68.603516" xlink:href="#DejaVuSans-121"/>
      </g>
     </g>
    </g>
    <g id="ytick_40">
     <g id="line2d_53">
      <defs>
       <path d="M 0 0 
L 2 0 
" id="m0f90a9c850" style="stroke:#000000;stroke-width:0.6;"/>
      </defs>
      <g>
       <use style="stroke:#000000;stroke-width:0.6;" x="518.4" xlink:href="#m0f90a9c850" y="239.630897"/>
      </g>
     </g>
    </g>
    <g id="ytick_41">
     <g id="line2d_54">
      <g>
       <use style="stroke:#000000;stroke-width:0.6;" x="518.4" xlink:href="#m0f90a9c850" y="229.868398"/>
      </g>
     </g>
    </g>
    <g id="ytick_42">
     <g id="line2d_55">
      <g>
       <use style="stroke:#000000;stroke-width:0.6;" x="518.4" xlink:href="#m0f90a9c850" y="222.941794"/>
      </g>
     </g>
    </g>
    <g id="ytick_43">
     <g id="line2d_56">
      <g>
       <use style="stroke:#000000;stroke-width:0.6;" x="518.4" xlink:href="#m0f90a9c850" y="217.569103"/>
      </g>
     </g>
    </g>
    <g id="ytick_44">
     <g id="line2d_57">
      <g>
       <use style="stroke:#000000;stroke-width:0.6;" x="518.4" xlink:href="#m0f90a9c850" y="213.179295"/>
      </g>
     </g>
    </g>
    <g id="ytick_45">
     <g id="line2d_58">
      <g>
       <use style="stroke:#000000;stroke-width:0.6;" x="518.4" xlink:href="#m0f90a9c850" y="209.467765"/>
      </g>
     </g>
    </g>
    <g id="ytick_46">
     <g id="line2d_59">
      <g>
       <use style="stroke:#000000;stroke-width:0.6;" x="518.4" xlink:href="#m0f90a9c850" y="206.252691"/>
      </g>
     </g>
    </g>
    <g id="ytick_47">
     <g id="line2d_60">
      <g>
       <use style="stroke:#000000;stroke-width:0.6;" x="518.4" xlink:href="#m0f90a9c850" y="203.416795"/>
      </g>
     </g>
    </g>
    <g id="ytick_48">
     <g id="line2d_61">
      <g>
       <use style="stroke:#000000;stroke-width:0.6;" x="518.4" xlink:href="#m0f90a9c850" y="184.190897"/>
      </g>
     </g>
    </g>
    <g id="ytick_49">
     <g id="line2d_62">
      <g>
       <use style="stroke:#000000;stroke-width:0.6;" x="518.4" xlink:href="#m0f90a9c850" y="174.428398"/>
      </g>
     </g>
    </g>
    <g id="ytick_50">
     <g id="line2d_63">
      <g>
       <use style="stroke:#000000;stroke-width:0.6;" x="518.4" xlink:href="#m0f90a9c850" y="167.501794"/>
      </g>
     </g>
    </g>
    <g id="ytick_51">
     <g id="line2d_64">
      <g>
       <use style="stroke:#000000;stroke-width:0.6;" x="518.4" xlink:href="#m0f90a9c850" y="162.129103"/>
      </g>
     </g>
    </g>
    <g id="ytick_52">
     <g id="line2d_65">
      <g>
       <use style="stroke:#000000;stroke-width:0.6;" x="518.4" xlink:href="#m0f90a9c850" y="157.739295"/>
      </g>
     </g>
    </g>
    <g id="ytick_53">
     <g id="line2d_66">
      <g>
       <use style="stroke:#000000;stroke-width:0.6;" x="518.4" xlink:href="#m0f90a9c850" y="154.027765"/>
      </g>
     </g>
    </g>
    <g id="ytick_54">
     <g id="line2d_67">
      <g>
       <use style="stroke:#000000;stroke-width:0.6;" x="518.4" xlink:href="#m0f90a9c850" y="150.812691"/>
      </g>
     </g>
    </g>
    <g id="ytick_55">
     <g id="line2d_68">
      <g>
       <use style="stroke:#000000;stroke-width:0.6;" x="518.4" xlink:href="#m0f90a9c850" y="147.976795"/>
      </g>
     </g>
    </g>
    <g id="ytick_56">
     <g id="line2d_69">
      <g>
       <use style="stroke:#000000;stroke-width:0.6;" x="518.4" xlink:href="#m0f90a9c850" y="128.750897"/>
      </g>
     </g>
    </g>
    <g id="ytick_57">
     <g id="line2d_70">
      <g>
       <use style="stroke:#000000;stroke-width:0.6;" x="518.4" xlink:href="#m0f90a9c850" y="118.988398"/>
      </g>
     </g>
    </g>
    <g id="ytick_58">
     <g id="line2d_71">
      <g>
       <use style="stroke:#000000;stroke-width:0.6;" x="518.4" xlink:href="#m0f90a9c850" y="112.061794"/>
      </g>
     </g>
    </g>
    <g id="ytick_59">
     <g id="line2d_72">
      <g>
       <use style="stroke:#000000;stroke-width:0.6;" x="518.4" xlink:href="#m0f90a9c850" y="106.689103"/>
      </g>
     </g>
    </g>
    <g id="ytick_60">
     <g id="line2d_73">
      <g>
       <use style="stroke:#000000;stroke-width:0.6;" x="518.4" xlink:href="#m0f90a9c850" y="102.299295"/>
      </g>
     </g>
    </g>
    <g id="ytick_61">
     <g id="line2d_74">
      <g>
       <use style="stroke:#000000;stroke-width:0.6;" x="518.4" xlink:href="#m0f90a9c850" y="98.587765"/>
      </g>
     </g>
    </g>
    <g id="ytick_62">
     <g id="line2d_75">
      <g>
       <use style="stroke:#000000;stroke-width:0.6;" x="518.4" xlink:href="#m0f90a9c850" y="95.372691"/>
      </g>
     </g>
    </g>
    <g id="ytick_63">
     <g id="line2d_76">
      <g>
       <use style="stroke:#000000;stroke-width:0.6;" x="518.4" xlink:href="#m0f90a9c850" y="92.536795"/>
      </g>
     </g>
    </g>
    <g id="ytick_64">
     <g id="line2d_77">
      <g>
       <use style="stroke:#000000;stroke-width:0.6;" x="518.4" xlink:href="#m0f90a9c850" y="73.310897"/>
      </g>
     </g>
    </g>
    <g id="ytick_65">
     <g id="line2d_78">
      <g>
       <use style="stroke:#000000;stroke-width:0.6;" x="518.4" xlink:href="#m0f90a9c850" y="63.548398"/>
      </g>
     </g>
    </g>
    <g id="ytick_66">
     <g id="line2d_79">
      <g>
       <use style="stroke:#000000;stroke-width:0.6;" x="518.4" xlink:href="#m0f90a9c850" y="56.621794"/>
      </g>
     </g>
    </g>
    <g id="ytick_67">
     <g id="line2d_80">
      <g>
       <use style="stroke:#000000;stroke-width:0.6;" x="518.4" xlink:href="#m0f90a9c850" y="51.249103"/>
      </g>
     </g>
    </g>
    <g id="ytick_68">
     <g id="line2d_81">
      <g>
       <use style="stroke:#000000;stroke-width:0.6;" x="518.4" xlink:href="#m0f90a9c850" y="46.859295"/>
      </g>
     </g>
    </g>
    <g id="ytick_69">
     <g id="line2d_82">
      <g>
       <use style="stroke:#000000;stroke-width:0.6;" x="518.4" xlink:href="#m0f90a9c850" y="43.147765"/>
      </g>
     </g>
    </g>
    <g id="ytick_70">
     <g id="line2d_83">
      <g>
       <use style="stroke:#000000;stroke-width:0.6;" x="518.4" xlink:href="#m0f90a9c850" y="39.932691"/>
      </g>
     </g>
    </g>
    <g id="ytick_71">
     <g id="line2d_84">
      <g>
       <use style="stroke:#000000;stroke-width:0.6;" x="518.4" xlink:href="#m0f90a9c850" y="37.096795"/>
      </g>
     </g>
    </g>
   </g>
   <g id="patch_11">
    <path d="M 72 256.32 
L 72 34.56 
" style="fill:none;stroke:#000000;stroke-linecap:square;stroke-linejoin:miter;stroke-width:0.8;"/>
   </g>
   <g id="patch_12">
    <path d="M 518.4 256.32 
L 518.4 34.56 
" style="fill:none;stroke:#000000;stroke-linecap:square;stroke-linejoin:miter;stroke-width:0.8;"/>
   </g>
   <g id="patch_13">
    <path d="M 72 256.32 
L 518.4 256.32 
" style="fill:none;stroke:#000000;stroke-linecap:square;stroke-linejoin:miter;stroke-width:0.8;"/>
   </g>
   <g id="patch_14">
    <path d="M 72 34.56 
L 518.4 34.56 
" style="fill:none;stroke:#000000;stroke-linecap:square;stroke-linejoin:miter;stroke-width:0.8;"/>
   </g>
  </g>
 </g>
 <defs>
  <clipPath id="pe8f52d01fc">
   <rect height="221.76" width="446.4" x="72" y="34.56"/>
  </clipPath>
 </defs>
</svg>
