<?xml version="1.0" encoding="utf-8" standalone="no"?>
<!DOCTYPE svg PUBLIC "-//W3C//DTD SVG 1.1//EN"
  "http://www.w3.org/Graphics/SVG/1.1/DTD/svg11.dtd">
<!-- Created with matplotlib (https://matplotlib.org/) -->
<svg height="288pt" version="1.1" viewBox="0 0 576 288" width="576pt" xmlns="http://www.w3.org/2000/svg" xmlns:xlink="http://www.w3.org/1999/xlink">
 <defs>
  <style type="text/css">
*{stroke-linecap:butt;stroke-linejoin:round;}
  </style>
 </defs>
 <g id="figure_1">
  <g id="patch_1">
   <path d="M 0 288 
L 576 288 
L 576 0 
L 0 0 
z
" style="fill:#ffffff;"/>
  </g>
  <g id="axes_1">
   <g id="patch_2">
    <path d="M 72 256.32 
L 518.4 256.32 
L 518.4 34.56 
L 72 34.56 
z
" style="fill:#ffffff;"/>
   </g>
   <g id="matplotlib.axis_1">
    <g id="xtick_1">
     <g id="line2d_1">
      <defs>
       <path d="M 0 0 
L 0 3.5 
" id="m9d588292eb" style="stroke:#000000;stroke-width:0.8;"/>
      </defs>
      <g>
       <use style="stroke:#000000;stroke-width:0.8;" x="92.290909" xlink:href="#m9d588292eb" y="256.32"/>
      </g>
     </g>
     <g id="text_1">
      <!-- 0 -->
      <defs>
       <path d="M 31.78125 66.40625 
Q 24.171875 66.40625 20.328125 58.90625 
Q 16.5 51.421875 16.5 36.375 
Q 16.5 21.390625 20.328125 13.890625 
Q 24.171875 6.390625 31.78125 6.390625 
Q 39.453125 6.390625 43.28125 13.890625 
Q 47.125 21.390625 47.125 36.375 
Q 47.125 51.421875 43.28125 58.90625 
Q 39.453125 66.40625 31.78125 66.40625 
z
M 31.78125 74.21875 
Q 44.046875 74.21875 50.515625 64.515625 
Q 56.984375 54.828125 56.984375 36.375 
Q 56.984375 17.96875 50.515625 8.265625 
Q 44.046875 -1.421875 31.78125 -1.421875 
Q 19.53125 -1.421875 13.0625 8.265625 
Q 6.59375 17.96875 6.59375 36.375 
Q 6.59375 54.828125 13.0625 64.515625 
Q 19.53125 74.21875 31.78125 74.21875 
z
" id="DejaVuSans-48"/>
      </defs>
      <g transform="translate(89.109659 270.918437)scale(0.1 -0.1)">
       <use xlink:href="#DejaVuSans-48"/>
      </g>
     </g>
    </g>
    <g id="xtick_2">
     <g id="line2d_2">
      <g>
       <use style="stroke:#000000;stroke-width:0.8;" x="173.462663" xlink:href="#m9d588292eb" y="256.32"/>
      </g>
     </g>
     <g id="text_2">
      <!-- 20 -->
      <defs>
       <path d="M 19.1875 8.296875 
L 53.609375 8.296875 
L 53.609375 0 
L 7.328125 0 
L 7.328125 8.296875 
Q 12.9375 14.109375 22.625 23.890625 
Q 32.328125 33.6875 34.8125 36.53125 
Q 39.546875 41.84375 41.421875 45.53125 
Q 43.3125 49.21875 43.3125 52.78125 
Q 43.3125 58.59375 39.234375 62.25 
Q 35.15625 65.921875 28.609375 65.921875 
Q 23.96875 65.921875 18.8125 64.3125 
Q 13.671875 62.703125 7.8125 59.421875 
L 7.8125 69.390625 
Q 13.765625 71.78125 18.9375 73 
Q 24.125 74.21875 28.421875 74.21875 
Q 39.75 74.21875 46.484375 68.546875 
Q 53.21875 62.890625 53.21875 53.421875 
Q 53.21875 48.921875 51.53125 44.890625 
Q 49.859375 40.875 45.40625 35.40625 
Q 44.1875 33.984375 37.640625 27.21875 
Q 31.109375 20.453125 19.1875 8.296875 
z
" id="DejaVuSans-50"/>
      </defs>
      <g transform="translate(167.100163 270.918437)scale(0.1 -0.1)">
       <use xlink:href="#DejaVuSans-50"/>
       <use x="63.623047" xlink:href="#DejaVuSans-48"/>
      </g>
     </g>
    </g>
    <g id="xtick_3">
     <g id="line2d_3">
      <g>
       <use style="stroke:#000000;stroke-width:0.8;" x="254.634416" xlink:href="#m9d588292eb" y="256.32"/>
      </g>
     </g>
     <g id="text_3">
      <!-- 40 -->
      <defs>
       <path d="M 37.796875 64.3125 
L 12.890625 25.390625 
L 37.796875 25.390625 
z
M 35.203125 72.90625 
L 47.609375 72.90625 
L 47.609375 25.390625 
L 58.015625 25.390625 
L 58.015625 17.1875 
L 47.609375 17.1875 
L 47.609375 0 
L 37.796875 0 
L 37.796875 17.1875 
L 4.890625 17.1875 
L 4.890625 26.703125 
z
" id="DejaVuSans-52"/>
      </defs>
      <g transform="translate(248.271916 270.918437)scale(0.1 -0.1)">
       <use xlink:href="#DejaVuSans-52"/>
       <use x="63.623047" xlink:href="#DejaVuSans-48"/>
      </g>
     </g>
    </g>
    <g id="xtick_4">
     <g id="line2d_4">
      <g>
       <use style="stroke:#000000;stroke-width:0.8;" x="335.80617" xlink:href="#m9d588292eb" y="256.32"/>
      </g>
     </g>
     <g id="text_4">
      <!-- 60 -->
      <defs>
       <path d="M 33.015625 40.375 
Q 26.375 40.375 22.484375 35.828125 
Q 18.609375 31.296875 18.609375 23.390625 
Q 18.609375 15.53125 22.484375 10.953125 
Q 26.375 6.390625 33.015625 6.390625 
Q 39.65625 6.390625 43.53125 10.953125 
Q 47.40625 15.53125 47.40625 23.390625 
Q 47.40625 31.296875 43.53125 35.828125 
Q 39.65625 40.375 33.015625 40.375 
z
M 52.59375 71.296875 
L 52.59375 62.3125 
Q 48.875 64.0625 45.09375 64.984375 
Q 41.3125 65.921875 37.59375 65.921875 
Q 27.828125 65.921875 22.671875 59.328125 
Q 17.53125 52.734375 16.796875 39.40625 
Q 19.671875 43.65625 24.015625 45.921875 
Q 28.375 48.1875 33.59375 48.1875 
Q 44.578125 48.1875 50.953125 41.515625 
Q 57.328125 34.859375 57.328125 23.390625 
Q 57.328125 12.15625 50.6875 5.359375 
Q 44.046875 -1.421875 33.015625 -1.421875 
Q 20.359375 -1.421875 13.671875 8.265625 
Q 6.984375 17.96875 6.984375 36.375 
Q 6.984375 53.65625 15.1875 63.9375 
Q 23.390625 74.21875 37.203125 74.21875 
Q 40.921875 74.21875 44.703125 73.484375 
Q 48.484375 72.75 52.59375 71.296875 
z
" id="DejaVuSans-54"/>
      </defs>
      <g transform="translate(329.44367 270.918437)scale(0.1 -0.1)">
       <use xlink:href="#DejaVuSans-54"/>
       <use x="63.623047" xlink:href="#DejaVuSans-48"/>
      </g>
     </g>
    </g>
    <g id="xtick_5">
     <g id="line2d_5">
      <g>
       <use style="stroke:#000000;stroke-width:0.8;" x="416.977923" xlink:href="#m9d588292eb" y="256.32"/>
      </g>
     </g>
     <g id="text_5">
      <!-- 80 -->
      <defs>
       <path d="M 31.78125 34.625 
Q 24.75 34.625 20.71875 30.859375 
Q 16.703125 27.09375 16.703125 20.515625 
Q 16.703125 13.921875 20.71875 10.15625 
Q 24.75 6.390625 31.78125 6.390625 
Q 38.8125 6.390625 42.859375 10.171875 
Q 46.921875 13.96875 46.921875 20.515625 
Q 46.921875 27.09375 42.890625 30.859375 
Q 38.875 34.625 31.78125 34.625 
z
M 21.921875 38.8125 
Q 15.578125 40.375 12.03125 44.71875 
Q 8.5 49.078125 8.5 55.328125 
Q 8.5 64.0625 14.71875 69.140625 
Q 20.953125 74.21875 31.78125 74.21875 
Q 42.671875 74.21875 48.875 69.140625 
Q 55.078125 64.0625 55.078125 55.328125 
Q 55.078125 49.078125 51.53125 44.71875 
Q 48 40.375 41.703125 38.8125 
Q 48.828125 37.15625 52.796875 32.3125 
Q 56.78125 27.484375 56.78125 20.515625 
Q 56.78125 9.90625 50.3125 4.234375 
Q 43.84375 -1.421875 31.78125 -1.421875 
Q 19.734375 -1.421875 13.25 4.234375 
Q 6.78125 9.90625 6.78125 20.515625 
Q 6.78125 27.484375 10.78125 32.3125 
Q 14.796875 37.15625 21.921875 38.8125 
z
M 18.3125 54.390625 
Q 18.3125 48.734375 21.84375 45.5625 
Q 25.390625 42.390625 31.78125 42.390625 
Q 38.140625 42.390625 41.71875 45.5625 
Q 45.3125 48.734375 45.3125 54.390625 
Q 45.3125 60.0625 41.71875 63.234375 
Q 38.140625 66.40625 31.78125 66.40625 
Q 25.390625 66.40625 21.84375 63.234375 
Q 18.3125 60.0625 18.3125 54.390625 
z
" id="DejaVuSans-56"/>
      </defs>
      <g transform="translate(410.615423 270.918437)scale(0.1 -0.1)">
       <use xlink:href="#DejaVuSans-56"/>
       <use x="63.623047" xlink:href="#DejaVuSans-48"/>
      </g>
     </g>
    </g>
    <g id="xtick_6">
     <g id="line2d_6">
      <g>
       <use style="stroke:#000000;stroke-width:0.8;" x="498.149677" xlink:href="#m9d588292eb" y="256.32"/>
      </g>
     </g>
     <g id="text_6">
      <!-- 100 -->
      <defs>
       <path d="M 12.40625 8.296875 
L 28.515625 8.296875 
L 28.515625 63.921875 
L 10.984375 60.40625 
L 10.984375 69.390625 
L 28.421875 72.90625 
L 38.28125 72.90625 
L 38.28125 8.296875 
L 54.390625 8.296875 
L 54.390625 0 
L 12.40625 0 
z
" id="DejaVuSans-49"/>
      </defs>
      <g transform="translate(488.605927 270.918437)scale(0.1 -0.1)">
       <use xlink:href="#DejaVuSans-49"/>
       <use x="63.623047" xlink:href="#DejaVuSans-48"/>
       <use x="127.246094" xlink:href="#DejaVuSans-48"/>
      </g>
     </g>
    </g>
    <g id="text_7">
     <!-- доля акций, % -->
     <defs>
      <path d="M 21.625 7.171875 
L 47.703125 7.171875 
L 47.703125 47.515625 
L 28.8125 47.515625 
L 28.8125 40.671875 
Q 28.8125 20.5625 23.046875 9.8125 
z
M 8.59375 7.171875 
Q 13.03125 9.125 14.984375 13.28125 
Q 19.78125 23.578125 19.78125 44.34375 
L 19.78125 54.6875 
L 56.734375 54.6875 
L 56.734375 7.171875 
L 63.921875 7.171875 
L 63.921875 -13.8125 
L 56.734375 -13.8125 
L 56.734375 0 
L 12.40625 0 
L 12.40625 -13.8125 
L 5.21875 -13.8125 
L 5.21875 7.171875 
z
" id="DejaVuSans-1076"/>
      <path d="M 30.609375 48.390625 
Q 23.390625 48.390625 19.1875 42.75 
Q 14.984375 37.109375 14.984375 27.296875 
Q 14.984375 17.484375 19.15625 11.84375 
Q 23.34375 6.203125 30.609375 6.203125 
Q 37.796875 6.203125 41.984375 11.859375 
Q 46.1875 17.53125 46.1875 27.296875 
Q 46.1875 37.015625 41.984375 42.703125 
Q 37.796875 48.390625 30.609375 48.390625 
z
M 30.609375 56 
Q 42.328125 56 49.015625 48.375 
Q 55.71875 40.765625 55.71875 27.296875 
Q 55.71875 13.875 49.015625 6.21875 
Q 42.328125 -1.421875 30.609375 -1.421875 
Q 18.84375 -1.421875 12.171875 6.21875 
Q 5.515625 13.875 5.515625 27.296875 
Q 5.515625 40.765625 12.171875 48.375 
Q 18.84375 56 30.609375 56 
z
" id="DejaVuSans-1086"/>
      <path d="M 3.71875 0 
L 3.71875 7.46875 
Q 12.59375 8.84375 15.328125 14.984375 
Q 18.65625 23.640625 18.65625 45.75 
L 18.65625 54.6875 
L 55.609375 54.6875 
L 55.609375 0 
L 46.625 0 
L 46.625 47.515625 
L 27.640625 47.515625 
L 27.640625 42.09375 
Q 27.640625 21 23.34375 11.53125 
Q 18.75 1.421875 3.71875 0 
z
" id="DejaVuSans-1083"/>
      <path d="M 18.453125 38.921875 
Q 18.453125 34.859375 21.578125 32.5625 
Q 24.703125 30.28125 30.515625 30.28125 
L 42.625 30.28125 
L 42.625 47.515625 
L 30.515625 47.515625 
Q 24.703125 47.515625 21.578125 45.265625 
Q 18.453125 43.015625 18.453125 38.921875 
z
M 5.671875 0 
L 22.359375 23.96875 
Q 16.703125 25.25 12.9375 28.59375 
Q 9.1875 31.9375 9.1875 38.921875 
Q 9.1875 46.828125 14.421875 50.75 
Q 19.671875 54.6875 30.28125 54.6875 
L 51.65625 54.6875 
L 51.65625 0 
L 42.625 0 
L 42.625 23.09375 
L 31.453125 23.09375 
L 15.328125 0 
z
" id="DejaVuSans-1103"/>
      <path id="DejaVuSans-32"/>
      <path d="M 34.28125 27.484375 
Q 23.390625 27.484375 19.1875 25 
Q 14.984375 22.515625 14.984375 16.5 
Q 14.984375 11.71875 18.140625 8.90625 
Q 21.296875 6.109375 26.703125 6.109375 
Q 34.1875 6.109375 38.703125 11.40625 
Q 43.21875 16.703125 43.21875 25.484375 
L 43.21875 27.484375 
z
M 52.203125 31.203125 
L 52.203125 0 
L 43.21875 0 
L 43.21875 8.296875 
Q 40.140625 3.328125 35.546875 0.953125 
Q 30.953125 -1.421875 24.3125 -1.421875 
Q 15.921875 -1.421875 10.953125 3.296875 
Q 6 8.015625 6 15.921875 
Q 6 25.140625 12.171875 29.828125 
Q 18.359375 34.515625 30.609375 34.515625 
L 43.21875 34.515625 
L 43.21875 35.40625 
Q 43.21875 41.609375 39.140625 45 
Q 35.0625 48.390625 27.6875 48.390625 
Q 23 48.390625 18.546875 47.265625 
Q 14.109375 46.140625 10.015625 43.890625 
L 10.015625 52.203125 
Q 14.9375 54.109375 19.578125 55.046875 
Q 24.21875 56 28.609375 56 
Q 40.484375 56 46.34375 49.84375 
Q 52.203125 43.703125 52.203125 31.203125 
z
" id="DejaVuSans-1072"/>
      <path d="M 9.078125 54.6875 
L 18.015625 54.6875 
L 18.015625 29 
L 43.359375 54.6875 
L 54.390625 54.6875 
L 33.5 33.546875 
L 57.078125 0 
L 47.015625 0 
L 27.640625 27.59375 
L 18.015625 17.828125 
L 18.015625 0 
L 9.078125 0 
z
" id="DejaVuSans-1082"/>
      <path d="M 56.296875 0 
L 9.078125 0 
L 9.078125 54.6875 
L 18.109375 54.6875 
L 18.109375 7.171875 
L 47.265625 7.171875 
L 47.265625 54.6875 
L 56.296875 54.6875 
L 56.296875 7.171875 
L 63.484375 7.171875 
L 63.484375 -13.8125 
L 56.296875 -13.8125 
z
" id="DejaVuSans-1094"/>
      <path d="M 55.90625 54.6875 
L 55.90625 0 
L 46.96875 0 
L 46.96875 43.890625 
L 20.609375 0 
L 9.078125 0 
L 9.078125 54.6875 
L 18.015625 54.6875 
L 18.015625 10.890625 
L 44.34375 54.6875 
z
" id="DejaVuSans-1080"/>
      <path d="M 55.90625 54.6875 
L 55.90625 0 
L 46.96875 0 
L 46.96875 43.890625 
L 20.609375 0 
L 9.078125 0 
L 9.078125 54.6875 
L 18.015625 54.6875 
L 18.015625 10.890625 
L 44.34375 54.6875 
z
M 17.234375 75.96875 
L 23 75.96875 
Q 23.53125 72.3125 25.890625 70.46875 
Q 28.265625 68.640625 32.515625 68.640625 
Q 36.71875 68.640625 39.0625 70.453125 
Q 41.40625 72.265625 42.046875 75.96875 
L 47.796875 75.96875 
Q 47.3125 68.984375 43.453125 65.46875 
Q 39.59375 61.953125 32.515625 61.953125 
Q 25.4375 61.953125 21.578125 65.46875 
Q 17.71875 68.984375 17.234375 75.96875 
z
" id="DejaVuSans-1081"/>
      <path d="M 11.71875 12.40625 
L 22.015625 12.40625 
L 22.015625 4 
L 14.015625 -11.625 
L 7.71875 -11.625 
L 11.71875 4 
z
" id="DejaVuSans-44"/>
      <path d="M 72.703125 32.078125 
Q 68.453125 32.078125 66.03125 28.46875 
Q 63.625 24.859375 63.625 18.40625 
Q 63.625 12.0625 66.03125 8.421875 
Q 68.453125 4.78125 72.703125 4.78125 
Q 76.859375 4.78125 79.265625 8.421875 
Q 81.6875 12.0625 81.6875 18.40625 
Q 81.6875 24.8125 79.265625 28.4375 
Q 76.859375 32.078125 72.703125 32.078125 
z
M 72.703125 38.28125 
Q 80.421875 38.28125 84.953125 32.90625 
Q 89.5 27.546875 89.5 18.40625 
Q 89.5 9.28125 84.9375 3.921875 
Q 80.375 -1.421875 72.703125 -1.421875 
Q 64.890625 -1.421875 60.34375 3.921875 
Q 55.8125 9.28125 55.8125 18.40625 
Q 55.8125 27.59375 60.375 32.9375 
Q 64.9375 38.28125 72.703125 38.28125 
z
M 22.3125 68.015625 
Q 18.109375 68.015625 15.6875 64.375 
Q 13.28125 60.75 13.28125 54.390625 
Q 13.28125 47.953125 15.671875 44.328125 
Q 18.0625 40.71875 22.3125 40.71875 
Q 26.5625 40.71875 28.96875 44.328125 
Q 31.390625 47.953125 31.390625 54.390625 
Q 31.390625 60.6875 28.953125 64.34375 
Q 26.515625 68.015625 22.3125 68.015625 
z
M 66.40625 74.21875 
L 74.21875 74.21875 
L 28.609375 -1.421875 
L 20.796875 -1.421875 
z
M 22.3125 74.21875 
Q 30.03125 74.21875 34.609375 68.875 
Q 39.203125 63.53125 39.203125 54.390625 
Q 39.203125 45.171875 34.640625 39.84375 
Q 30.078125 34.515625 22.3125 34.515625 
Q 14.546875 34.515625 10.03125 39.859375 
Q 5.515625 45.21875 5.515625 54.390625 
Q 5.515625 63.484375 10.046875 68.84375 
Q 14.59375 74.21875 22.3125 74.21875 
z
" id="DejaVuSans-37"/>
     </defs>
     <g transform="translate(256.975781 284.596563)scale(0.1 -0.1)">
      <use xlink:href="#DejaVuSans-1076"/>
      <use x="69.140625" xlink:href="#DejaVuSans-1086"/>
      <use x="130.322266" xlink:href="#DejaVuSans-1083"/>
      <use x="194.238281" xlink:href="#DejaVuSans-1103"/>
      <use x="254.394531" xlink:href="#DejaVuSans-32"/>
      <use x="286.181641" xlink:href="#DejaVuSans-1072"/>
      <use x="347.460938" xlink:href="#DejaVuSans-1082"/>
      <use x="407.861328" xlink:href="#DejaVuSans-1094"/>
      <use x="475.927734" xlink:href="#DejaVuSans-1080"/>
      <use x="540.917969" xlink:href="#DejaVuSans-1081"/>
      <use x="605.908203" xlink:href="#DejaVuSans-44"/>
      <use x="637.695312" xlink:href="#DejaVuSans-32"/>
      <use x="669.482422" xlink:href="#DejaVuSans-37"/>
     </g>
    </g>
   </g>
   <g id="matplotlib.axis_2">
    <g id="ytick_1">
     <g id="line2d_7">
      <defs>
       <path d="M 0 0 
L -3.5 0 
" id="mefc6844d9b" style="stroke:#000000;stroke-width:0.8;"/>
      </defs>
      <g>
       <use style="stroke:#000000;stroke-width:0.8;" x="72" xlink:href="#mefc6844d9b" y="255.752717"/>
      </g>
     </g>
     <g id="text_8">
      <!-- 0.001 -->
      <defs>
       <path d="M 10.6875 12.40625 
L 21 12.40625 
L 21 0 
L 10.6875 0 
z
" id="DejaVuSans-46"/>
      </defs>
      <g transform="translate(36.371875 259.551936)scale(0.1 -0.1)">
       <use xlink:href="#DejaVuSans-48"/>
       <use x="63.623047" xlink:href="#DejaVuSans-46"/>
       <use x="95.410156" xlink:href="#DejaVuSans-48"/>
       <use x="159.033203" xlink:href="#DejaVuSans-48"/>
       <use x="222.65625" xlink:href="#DejaVuSans-49"/>
      </g>
     </g>
    </g>
    <g id="ytick_2">
     <g id="line2d_8">
      <g>
       <use style="stroke:#000000;stroke-width:0.8;" x="72" xlink:href="#mefc6844d9b" y="219.476438"/>
      </g>
     </g>
     <g id="text_9">
      <!-- 0.01 -->
      <g transform="translate(42.734375 223.275656)scale(0.1 -0.1)">
       <use xlink:href="#DejaVuSans-48"/>
       <use x="63.623047" xlink:href="#DejaVuSans-46"/>
       <use x="95.410156" xlink:href="#DejaVuSans-48"/>
       <use x="159.033203" xlink:href="#DejaVuSans-49"/>
      </g>
     </g>
    </g>
    <g id="ytick_3">
     <g id="line2d_9">
      <g>
       <use style="stroke:#000000;stroke-width:0.8;" x="72" xlink:href="#mefc6844d9b" y="183.200158"/>
      </g>
     </g>
     <g id="text_10">
      <!-- 0.1 -->
      <g transform="translate(49.096875 186.999376)scale(0.1 -0.1)">
       <use xlink:href="#DejaVuSans-48"/>
       <use x="63.623047" xlink:href="#DejaVuSans-46"/>
       <use x="95.410156" xlink:href="#DejaVuSans-49"/>
      </g>
     </g>
    </g>
    <g id="ytick_4">
     <g id="line2d_10">
      <g>
       <use style="stroke:#000000;stroke-width:0.8;" x="72" xlink:href="#mefc6844d9b" y="146.923878"/>
      </g>
     </g>
     <g id="text_11">
      <!-- 1 -->
      <g transform="translate(58.6375 150.723097)scale(0.1 -0.1)">
       <use xlink:href="#DejaVuSans-49"/>
      </g>
     </g>
    </g>
    <g id="ytick_5">
     <g id="line2d_11">
      <g>
       <use style="stroke:#000000;stroke-width:0.8;" x="72" xlink:href="#mefc6844d9b" y="110.647598"/>
      </g>
     </g>
     <g id="text_12">
      <!-- 10 -->
      <g transform="translate(52.275 114.446817)scale(0.1 -0.1)">
       <use xlink:href="#DejaVuSans-49"/>
       <use x="63.623047" xlink:href="#DejaVuSans-48"/>
      </g>
     </g>
    </g>
    <g id="ytick_6">
     <g id="line2d_12">
      <g>
       <use style="stroke:#000000;stroke-width:0.8;" x="72" xlink:href="#mefc6844d9b" y="74.371318"/>
      </g>
     </g>
     <g id="text_13">
      <!-- 100 -->
      <g transform="translate(45.9125 78.170537)scale(0.1 -0.1)">
       <use xlink:href="#DejaVuSans-49"/>
       <use x="63.623047" xlink:href="#DejaVuSans-48"/>
       <use x="127.246094" xlink:href="#DejaVuSans-48"/>
      </g>
     </g>
    </g>
    <g id="ytick_7">
     <g id="line2d_13">
      <g>
       <use style="stroke:#000000;stroke-width:0.8;" x="72" xlink:href="#mefc6844d9b" y="38.095038"/>
      </g>
     </g>
     <g id="text_14">
      <!-- 1000 -->
      <g transform="translate(39.55 41.894257)scale(0.1 -0.1)">
       <use xlink:href="#DejaVuSans-49"/>
       <use x="63.623047" xlink:href="#DejaVuSans-48"/>
       <use x="127.246094" xlink:href="#DejaVuSans-48"/>
       <use x="190.869141" xlink:href="#DejaVuSans-48"/>
      </g>
     </g>
    </g>
    <g id="ytick_8">
     <g id="line2d_14">
      <defs>
       <path d="M 0 0 
L -2 0 
" id="me276de3ca3" style="stroke:#000000;stroke-width:0.6;"/>
      </defs>
      <g>
       <use style="stroke:#000000;stroke-width:0.6;" x="72" xlink:href="#me276de3ca3" y="244.832469"/>
      </g>
     </g>
    </g>
    <g id="ytick_9">
     <g id="line2d_15">
      <g>
       <use style="stroke:#000000;stroke-width:0.6;" x="72" xlink:href="#me276de3ca3" y="238.444533"/>
      </g>
     </g>
    </g>
    <g id="ytick_10">
     <g id="line2d_16">
      <g>
       <use style="stroke:#000000;stroke-width:0.6;" x="72" xlink:href="#me276de3ca3" y="233.912221"/>
      </g>
     </g>
    </g>
    <g id="ytick_11">
     <g id="line2d_17">
      <g>
       <use style="stroke:#000000;stroke-width:0.6;" x="72" xlink:href="#me276de3ca3" y="230.396686"/>
      </g>
     </g>
    </g>
    <g id="ytick_12">
     <g id="line2d_18">
      <g>
       <use style="stroke:#000000;stroke-width:0.6;" x="72" xlink:href="#me276de3ca3" y="227.524285"/>
      </g>
     </g>
    </g>
    <g id="ytick_13">
     <g id="line2d_19">
      <g>
       <use style="stroke:#000000;stroke-width:0.6;" x="72" xlink:href="#me276de3ca3" y="225.095704"/>
      </g>
     </g>
    </g>
    <g id="ytick_14">
     <g id="line2d_20">
      <g>
       <use style="stroke:#000000;stroke-width:0.6;" x="72" xlink:href="#me276de3ca3" y="222.991972"/>
      </g>
     </g>
    </g>
    <g id="ytick_15">
     <g id="line2d_21">
      <g>
       <use style="stroke:#000000;stroke-width:0.6;" x="72" xlink:href="#me276de3ca3" y="221.136349"/>
      </g>
     </g>
    </g>
    <g id="ytick_16">
     <g id="line2d_22">
      <g>
       <use style="stroke:#000000;stroke-width:0.6;" x="72" xlink:href="#me276de3ca3" y="208.556189"/>
      </g>
     </g>
    </g>
    <g id="ytick_17">
     <g id="line2d_23">
      <g>
       <use style="stroke:#000000;stroke-width:0.6;" x="72" xlink:href="#me276de3ca3" y="202.168253"/>
      </g>
     </g>
    </g>
    <g id="ytick_18">
     <g id="line2d_24">
      <g>
       <use style="stroke:#000000;stroke-width:0.6;" x="72" xlink:href="#me276de3ca3" y="197.635941"/>
      </g>
     </g>
    </g>
    <g id="ytick_19">
     <g id="line2d_25">
      <g>
       <use style="stroke:#000000;stroke-width:0.6;" x="72" xlink:href="#me276de3ca3" y="194.120406"/>
      </g>
     </g>
    </g>
    <g id="ytick_20">
     <g id="line2d_26">
      <g>
       <use style="stroke:#000000;stroke-width:0.6;" x="72" xlink:href="#me276de3ca3" y="191.248005"/>
      </g>
     </g>
    </g>
    <g id="ytick_21">
     <g id="line2d_27">
      <g>
       <use style="stroke:#000000;stroke-width:0.6;" x="72" xlink:href="#me276de3ca3" y="188.819425"/>
      </g>
     </g>
    </g>
    <g id="ytick_22">
     <g id="line2d_28">
      <g>
       <use style="stroke:#000000;stroke-width:0.6;" x="72" xlink:href="#me276de3ca3" y="186.715692"/>
      </g>
     </g>
    </g>
    <g id="ytick_23">
     <g id="line2d_29">
      <g>
       <use style="stroke:#000000;stroke-width:0.6;" x="72" xlink:href="#me276de3ca3" y="184.860069"/>
      </g>
     </g>
    </g>
    <g id="ytick_24">
     <g id="line2d_30">
      <g>
       <use style="stroke:#000000;stroke-width:0.6;" x="72" xlink:href="#me276de3ca3" y="172.279909"/>
      </g>
     </g>
    </g>
    <g id="ytick_25">
     <g id="line2d_31">
      <g>
       <use style="stroke:#000000;stroke-width:0.6;" x="72" xlink:href="#me276de3ca3" y="165.891974"/>
      </g>
     </g>
    </g>
    <g id="ytick_26">
     <g id="line2d_32">
      <g>
       <use style="stroke:#000000;stroke-width:0.6;" x="72" xlink:href="#me276de3ca3" y="161.359661"/>
      </g>
     </g>
    </g>
    <g id="ytick_27">
     <g id="line2d_33">
      <g>
       <use style="stroke:#000000;stroke-width:0.6;" x="72" xlink:href="#me276de3ca3" y="157.844126"/>
      </g>
     </g>
    </g>
    <g id="ytick_28">
     <g id="line2d_34">
      <g>
       <use style="stroke:#000000;stroke-width:0.6;" x="72" xlink:href="#me276de3ca3" y="154.971725"/>
      </g>
     </g>
    </g>
    <g id="ytick_29">
     <g id="line2d_35">
      <g>
       <use style="stroke:#000000;stroke-width:0.6;" x="72" xlink:href="#me276de3ca3" y="152.543145"/>
      </g>
     </g>
    </g>
    <g id="ytick_30">
     <g id="line2d_36">
      <g>
       <use style="stroke:#000000;stroke-width:0.6;" x="72" xlink:href="#me276de3ca3" y="150.439413"/>
      </g>
     </g>
    </g>
    <g id="ytick_31">
     <g id="line2d_37">
      <g>
       <use style="stroke:#000000;stroke-width:0.6;" x="72" xlink:href="#me276de3ca3" y="148.583789"/>
      </g>
     </g>
    </g>
    <g id="ytick_32">
     <g id="line2d_38">
      <g>
       <use style="stroke:#000000;stroke-width:0.6;" x="72" xlink:href="#me276de3ca3" y="136.00363"/>
      </g>
     </g>
    </g>
    <g id="ytick_33">
     <g id="line2d_39">
      <g>
       <use style="stroke:#000000;stroke-width:0.6;" x="72" xlink:href="#me276de3ca3" y="129.615694"/>
      </g>
     </g>
    </g>
    <g id="ytick_34">
     <g id="line2d_40">
      <g>
       <use style="stroke:#000000;stroke-width:0.6;" x="72" xlink:href="#me276de3ca3" y="125.083381"/>
      </g>
     </g>
    </g>
    <g id="ytick_35">
     <g id="line2d_41">
      <g>
       <use style="stroke:#000000;stroke-width:0.6;" x="72" xlink:href="#me276de3ca3" y="121.567846"/>
      </g>
     </g>
    </g>
    <g id="ytick_36">
     <g id="line2d_42">
      <g>
       <use style="stroke:#000000;stroke-width:0.6;" x="72" xlink:href="#me276de3ca3" y="118.695445"/>
      </g>
     </g>
    </g>
    <g id="ytick_37">
     <g id="line2d_43">
      <g>
       <use style="stroke:#000000;stroke-width:0.6;" x="72" xlink:href="#me276de3ca3" y="116.266865"/>
      </g>
     </g>
    </g>
    <g id="ytick_38">
     <g id="line2d_44">
      <g>
       <use style="stroke:#000000;stroke-width:0.6;" x="72" xlink:href="#me276de3ca3" y="114.163133"/>
      </g>
     </g>
    </g>
    <g id="ytick_39">
     <g id="line2d_45">
      <g>
       <use style="stroke:#000000;stroke-width:0.6;" x="72" xlink:href="#me276de3ca3" y="112.30751"/>
      </g>
     </g>
    </g>
    <g id="ytick_40">
     <g id="line2d_46">
      <g>
       <use style="stroke:#000000;stroke-width:0.6;" x="72" xlink:href="#me276de3ca3" y="99.72735"/>
      </g>
     </g>
    </g>
    <g id="ytick_41">
     <g id="line2d_47">
      <g>
       <use style="stroke:#000000;stroke-width:0.6;" x="72" xlink:href="#me276de3ca3" y="93.339414"/>
      </g>
     </g>
    </g>
    <g id="ytick_42">
     <g id="line2d_48">
      <g>
       <use style="stroke:#000000;stroke-width:0.6;" x="72" xlink:href="#me276de3ca3" y="88.807101"/>
      </g>
     </g>
    </g>
    <g id="ytick_43">
     <g id="line2d_49">
      <g>
       <use style="stroke:#000000;stroke-width:0.6;" x="72" xlink:href="#me276de3ca3" y="85.291567"/>
      </g>
     </g>
    </g>
    <g id="ytick_44">
     <g id="line2d_50">
      <g>
       <use style="stroke:#000000;stroke-width:0.6;" x="72" xlink:href="#me276de3ca3" y="82.419166"/>
      </g>
     </g>
    </g>
    <g id="ytick_45">
     <g id="line2d_51">
      <g>
       <use style="stroke:#000000;stroke-width:0.6;" x="72" xlink:href="#me276de3ca3" y="79.990585"/>
      </g>
     </g>
    </g>
    <g id="ytick_46">
     <g id="line2d_52">
      <g>
       <use style="stroke:#000000;stroke-width:0.6;" x="72" xlink:href="#me276de3ca3" y="77.886853"/>
      </g>
     </g>
    </g>
    <g id="ytick_47">
     <g id="line2d_53">
      <g>
       <use style="stroke:#000000;stroke-width:0.6;" x="72" xlink:href="#me276de3ca3" y="76.03123"/>
      </g>
     </g>
    </g>
    <g id="ytick_48">
     <g id="line2d_54">
      <g>
       <use style="stroke:#000000;stroke-width:0.6;" x="72" xlink:href="#me276de3ca3" y="63.45107"/>
      </g>
     </g>
    </g>
    <g id="ytick_49">
     <g id="line2d_55">
      <g>
       <use style="stroke:#000000;stroke-width:0.6;" x="72" xlink:href="#me276de3ca3" y="57.063134"/>
      </g>
     </g>
    </g>
    <g id="ytick_50">
     <g id="line2d_56">
      <g>
       <use style="stroke:#000000;stroke-width:0.6;" x="72" xlink:href="#me276de3ca3" y="52.530822"/>
      </g>
     </g>
    </g>
    <g id="ytick_51">
     <g id="line2d_57">
      <g>
       <use style="stroke:#000000;stroke-width:0.6;" x="72" xlink:href="#me276de3ca3" y="49.015287"/>
      </g>
     </g>
    </g>
    <g id="ytick_52">
     <g id="line2d_58">
      <g>
       <use style="stroke:#000000;stroke-width:0.6;" x="72" xlink:href="#me276de3ca3" y="46.142886"/>
      </g>
     </g>
    </g>
    <g id="ytick_53">
     <g id="line2d_59">
      <g>
       <use style="stroke:#000000;stroke-width:0.6;" x="72" xlink:href="#me276de3ca3" y="43.714305"/>
      </g>
     </g>
    </g>
    <g id="ytick_54">
     <g id="line2d_60">
      <g>
       <use style="stroke:#000000;stroke-width:0.6;" x="72" xlink:href="#me276de3ca3" y="41.610573"/>
      </g>
     </g>
    </g>
    <g id="ytick_55">
     <g id="line2d_61">
      <g>
       <use style="stroke:#000000;stroke-width:0.6;" x="72" xlink:href="#me276de3ca3" y="39.75495"/>
      </g>
     </g>
    </g>
    <g id="text_15">
     <!-- цена -->
     <defs>
      <path d="M 56.203125 29.59375 
L 56.203125 25.203125 
L 14.890625 25.203125 
Q 15.484375 15.921875 20.484375 11.0625 
Q 25.484375 6.203125 34.421875 6.203125 
Q 39.59375 6.203125 44.453125 7.46875 
Q 49.3125 8.734375 54.109375 11.28125 
L 54.109375 2.78125 
Q 49.265625 0.734375 44.1875 -0.34375 
Q 39.109375 -1.421875 33.890625 -1.421875 
Q 20.796875 -1.421875 13.15625 6.1875 
Q 5.515625 13.8125 5.515625 26.8125 
Q 5.515625 40.234375 12.765625 48.109375 
Q 20.015625 56 32.328125 56 
Q 43.359375 56 49.78125 48.890625 
Q 56.203125 41.796875 56.203125 29.59375 
z
M 47.21875 32.234375 
Q 47.125 39.59375 43.09375 43.984375 
Q 39.0625 48.390625 32.421875 48.390625 
Q 24.90625 48.390625 20.390625 44.140625 
Q 15.875 39.890625 15.1875 32.171875 
z
" id="DejaVuSans-1077"/>
      <path d="M 9.078125 54.6875 
L 18.109375 54.6875 
L 18.109375 32.375 
L 47.265625 32.375 
L 47.265625 54.6875 
L 56.296875 54.6875 
L 56.296875 0 
L 47.265625 0 
L 47.265625 25.203125 
L 18.109375 25.203125 
L 18.109375 0 
L 9.078125 0 
z
" id="DejaVuSans-1085"/>
     </defs>
     <g transform="translate(30.292188 158.2525)rotate(-90)scale(0.1 -0.1)">
      <use xlink:href="#DejaVuSans-1094"/>
      <use x="68.066406" xlink:href="#DejaVuSans-1077"/>
      <use x="129.589844" xlink:href="#DejaVuSans-1085"/>
      <use x="194.970703" xlink:href="#DejaVuSans-1072"/>
     </g>
    </g>
   </g>
   <g id="line2d_62">
    <path clip-path="url(#p1289bb83d4)" d="M 92.290909 212.097995 
L 92.453253 202.224205 
L 92.77794 193.42905 
L 92.859111 193.192463 
L 93.102627 191.668873 
L 93.26497 191.101431 
L 93.427314 190.184583 
L 93.630243 189.675464 
L 93.873758 187.701149 
L 95.091335 184.688367 
L 95.13192 184.680394 
L 95.33485 184.42188 
L 95.497193 184.24662 
L 96.146567 183.439461 
L 96.308911 183.234899 
L 97.242386 182.42679 
L 97.40473 182.252604 
L 98.378791 180.998112 
L 98.703478 180.828079 
L 99.312266 180.276435 
L 99.474609 180.152723 
L 100.326913 179.45468 
L 100.529842 179.193644 
L 100.692186 179.030695 
L 100.935701 178.720649 
L 101.179216 178.388925 
L 101.422731 178.310751 
L 101.585075 178.142495 
L 101.747418 178.098291 
L 101.950348 177.842089 
L 102.437378 177.575134 
L 102.762065 177.460526 
L 103.086752 177.148335 
L 103.452025 177.039195 
L 103.736126 176.954132 
L 104.3855 176.649544 
L 104.547844 176.468337 
L 105.034874 176.330129 
L 105.197218 176.165785 
L 105.359561 176.040599 
L 106.577138 175.536213 
L 106.739481 175.427001 
L 107.104754 175.18561 
L 107.632371 174.974958 
L 107.997643 174.85914 
L 108.200573 174.720521 
L 108.728189 174.595097 
L 109.052876 174.396465 
L 109.296391 174.211875 
L 109.945765 173.93147 
L 113.801424 172.495082 
L 114.207283 172.357235 
L 115.100172 172.10735 
L 115.546616 171.991807 
L 115.830718 171.926631 
L 116.439506 171.758492 
L 118.144113 171.253318 
L 118.428214 171.169134 
L 118.834072 171.032157 
L 119.239931 170.865632 
L 119.605204 170.709723 
L 120.985124 170.259437 
L 121.431569 170.138777 
L 122.608559 169.729157 
L 122.973832 169.569597 
L 123.866721 169.382516 
L 124.597267 169.080195 
L 125.368399 168.931554 
L 125.693086 168.858202 
L 126.383046 168.726688 
L 126.748318 168.635102 
L 128.006481 168.35731 
L 129.345815 167.979492 
L 129.548744 167.869525 
L 130.96925 167.52746 
L 131.821553 167.30507 
L 134.946666 166.615571 
L 135.514868 166.49307 
L 136.610687 166.271248 
L 137.625333 166.011588 
L 138.315293 165.903805 
L 138.761738 165.798666 
L 139.492284 165.682882 
L 140.588102 165.502743 
L 144.281417 164.808184 
L 144.484347 164.750707 
L 145.296064 164.573514 
L 146.391883 164.40665 
L 146.919499 164.314242 
L 148.989379 163.918629 
L 149.192308 163.872575 
L 150.206955 163.718871 
L 151.018673 163.579781 
L 152.439178 163.306783 
L 161.205728 161.925795 
L 161.733344 161.817527 
L 162.382718 161.68513 
L 162.991506 161.570354 
L 169.201146 160.661977 
L 170.256378 160.528648 
L 171.595712 160.337038 
L 172.853874 160.199374 
L 173.58442 160.140903 
L 174.720825 159.992436 
L 175.126684 159.960909 
L 176.222502 159.835085 
L 177.602422 159.657113 
L 178.819998 159.514313 
L 179.794059 159.37762 
L 197.854775 157.078653 
L 199.397038 156.880362 
L 200.330513 156.788086 
L 201.872776 156.63827 
L 202.52215 156.567702 
L 204.429687 156.363915 
L 215.550217 155.133784 
L 216.970723 154.993888 
L 222.287472 154.34342 
L 223.180362 154.221685 
L 227.563636 153.853355 
L 228.497112 153.703831 
L 231.135194 153.400227 
L 237.66952 152.703885 
L 238.84651 152.565682 
L 241.728107 152.244386 
L 243.513886 152.098024 
L 245.259079 151.964104 
L 246.476655 151.807944 
L 247.815989 151.684141 
L 249.520596 151.505969 
L 250.210556 151.400747 
L 251.387546 151.294434 
L 251.793405 151.245628 
L 253.335668 151.069817 
L 255.608477 150.830342 
L 259.991752 150.424529 
L 260.397611 150.387782 
L 262.061632 150.265899 
L 264.943229 149.985702 
L 265.430259 149.898495 
L 266.972523 149.771915 
L 270.34115 149.437484 
L 271.071696 149.366971 
L 272.979232 149.188837 
L 279.472973 148.535304 
L 280.568791 148.426894 
L 283.612732 148.11755 
L 284.22152 148.065866 
L 297.980133 146.731946 
L 299.116537 146.617674 
L 303.743327 146.25791 
L 304.839146 146.159971 
L 306.056722 146.038105 
L 306.949611 145.937152 
L 310.237067 145.622986 
L 310.967613 145.56043 
L 319.084788 144.724257 
L 325.903216 144.052623 
L 326.714933 143.986848 
L 328.906571 143.822696 
L 329.718288 143.722319 
L 333.411603 143.404794 
L 336.090271 143.07487 
L 337.916635 142.917611 
L 339.05304 142.835335 
L 340.189444 142.736289 
L 340.635889 142.680998 
L 343.761002 142.430293 
L 345.790295 142.20506 
L 366.61085 139.988955 
L 366.976123 139.937215 
L 368.153113 139.801312 
L 369.37069 139.666368 
L 373.875722 139.101178 
L 375.336814 138.977951 
L 377.528451 138.76054 
L 378.989543 138.547331 
L 382.074069 138.172382 
L 382.35817 138.125664 
L 384.103363 137.939394 
L 385.036838 137.831199 
L 386.782031 137.622682 
L 391.205891 137.11772 
L 392.058195 137.026728 
L 395.75151 136.585766 
L 396.319712 136.480145 
L 401.149431 135.863768 
L 401.920563 135.772353 
L 402.93521 135.653737 
L 404.436887 135.443572 
L 407.115555 135.177252 
L 407.846101 135.108659 
L 428.707242 132.142846 
L 429.072515 132.069062 
L 429.721889 131.955792 
L 430.655364 131.806265 
L 430.898879 131.759423 
L 431.994698 131.614146 
L 432.400556 131.541502 
L 433.090516 131.42604 
L 433.73989 131.259315 
L 441.12652 130.00251 
L 441.410621 129.946446 
L 455.00689 127.300318 
L 456.711497 126.95179 
L 459.024892 126.554982 
L 459.349579 126.409604 
L 460.688913 126.125827 
L 460.891842 126.053526 
L 461.703559 125.924663 
L 463.529924 125.535966 
L 464.138712 125.407593 
L 466.452107 124.979668 
L 466.81738 124.887896 
L 467.466754 124.700332 
L 467.629097 124.602107 
L 468.278471 124.414215 
L 468.481401 124.340288 
L 469.009017 124.227523 
L 469.293118 124.114654 
L 471.728271 123.456363 
L 472.377645 123.345791 
L 472.742918 123.225611 
L 473.229948 123.093238 
L 474.812798 122.485413 
L 475.340414 122.335267 
L 475.624515 122.162625 
L 476.355061 121.921267 
L 478.262597 121.156978 
L 479.155486 120.795015 
L 479.399002 120.62476 
L 479.926618 120.438176 
L 480.210719 120.298316 
L 480.738336 120.128295 
L 481.428296 119.91156 
L 481.712397 119.714139 
L 481.996498 119.607289 
L 482.158841 119.465316 
L 482.524114 119.246048 
L 482.848801 119.018717 
L 483.904034 118.489007 
L 484.472236 118.321658 
L 484.959267 118.135203 
L 485.446297 118.032523 
L 487.759692 116.631155 
L 487.922036 116.490337 
L 488.084379 116.434407 
L 488.246723 116.273123 
L 489.383127 115.466464 
L 489.667229 115.09934 
L 489.788986 115.038363 
L 490.032501 114.724673 
L 490.316603 114.591017 
L 490.722461 114.118667 
L 490.803633 114.104176 
L 490.965977 113.774626 
L 491.250078 113.626122 
L 491.858866 113.154113 
L 492.183553 112.770579 
L 492.50824 112.606767 
L 492.670583 112.350754 
L 492.99527 111.804979 
L 493.360543 111.267123 
L 493.482301 111.198191 
L 493.806988 110.764243 
L 493.969331 110.641652 
L 495.308665 107.77535 
L 495.349251 107.766985 
L 495.511595 107.449814 
L 495.795696 106.933787 
L 496.079797 106.110686 
L 496.404484 105.604281 
L 496.526242 105.135159 
L 496.688585 105.026441 
L 496.769757 104.856557 
L 497.053858 101.812334 
L 497.094444 101.734699 
L 497.297373 100.214516 
L 497.378545 100.105504 
L 497.662646 97.707618 
L 497.865576 96.531652 
L 498.109091 89.733592 
L 498.109091 89.733592 
" style="fill:none;stroke:#1f77b4;stroke-linecap:square;stroke-width:1.5;"/>
   </g>
   <g id="line2d_63">
    <path clip-path="url(#p1289bb83d4)" d="M 92.290909 212.097995 
L 92.453253 202.224205 
L 92.77794 193.42905 
L 92.859111 193.192463 
L 93.102627 191.668873 
L 93.26497 191.101431 
L 93.427314 190.184583 
L 93.630243 189.675464 
L 93.873758 187.701149 
L 95.091335 184.688367 
L 95.13192 184.680394 
L 95.33485 184.42188 
L 95.497193 184.24662 
L 96.146567 183.439461 
L 96.308911 183.234899 
L 97.242386 182.42679 
L 97.40473 182.252604 
L 98.378791 180.998112 
L 98.703478 180.828079 
L 99.312266 180.276435 
L 99.474609 180.152723 
L 100.326913 179.45468 
L 100.529842 179.193644 
L 100.692186 179.030695 
L 100.935701 178.720649 
L 101.179216 178.388925 
L 101.422731 178.310751 
L 101.585075 178.142495 
L 101.747418 178.098291 
L 101.950348 177.842089 
L 102.437378 177.575134 
L 102.762065 177.460526 
L 103.086752 177.148335 
L 103.452025 177.039195 
L 103.736126 176.954132 
L 104.3855 176.649544 
L 104.547844 176.468337 
L 105.034874 176.330129 
L 105.197218 176.165785 
L 105.359561 176.040599 
L 106.577138 175.536213 
L 106.739481 175.427001 
L 107.104754 175.18561 
L 107.632371 174.974958 
L 107.997643 174.85914 
L 108.200573 174.720521 
L 108.728189 174.595097 
L 109.052876 174.396465 
L 109.296391 174.211875 
L 109.945765 173.93147 
L 113.801424 172.495082 
L 114.207283 172.357235 
L 115.100172 172.10735 
L 115.546616 171.991807 
L 115.830718 171.926631 
L 116.439506 171.758492 
L 118.144113 171.253318 
L 118.428214 171.169134 
L 118.834072 171.032157 
L 119.239931 170.865632 
L 119.605204 170.709723 
L 120.985124 170.259437 
L 121.431569 170.138777 
L 122.608559 169.729157 
L 122.973832 169.569597 
L 123.866721 169.382516 
L 124.597267 169.080195 
L 125.368399 168.931554 
L 125.693086 168.858202 
L 126.383046 168.726688 
L 126.748318 168.635102 
L 128.006481 168.35731 
L 129.345815 167.979492 
L 129.548744 167.869525 
L 130.96925 167.52746 
L 131.821553 167.30507 
L 134.946666 166.615571 
L 135.514868 166.49307 
L 136.610687 166.271248 
L 137.625333 166.011588 
L 138.315293 165.903805 
L 138.761738 165.798666 
L 139.492284 165.682882 
L 140.588102 165.502743 
L 144.281417 164.808184 
L 144.484347 164.750707 
L 145.296064 164.573514 
L 146.391883 164.40665 
L 146.919499 164.314242 
L 148.989379 163.918629 
L 149.192308 163.872575 
L 150.206955 163.718871 
L 151.018673 163.579781 
L 152.439178 163.306783 
L 161.205728 161.925795 
L 161.733344 161.817527 
L 162.382718 161.68513 
L 162.991506 161.570354 
L 169.201146 160.661977 
L 170.256378 160.528648 
L 171.595712 160.337038 
L 172.853874 160.199374 
L 173.58442 160.140903 
L 174.720825 159.992436 
L 175.126684 159.960909 
L 176.222502 159.835085 
L 177.602422 159.657113 
L 178.819998 159.514313 
L 179.794059 159.37762 
L 197.854775 157.078653 
L 199.397038 156.880362 
L 200.330513 156.788086 
L 201.872776 156.63827 
L 202.52215 156.567702 
L 204.429687 156.363915 
L 215.550217 155.133784 
L 216.970723 154.993888 
L 222.287472 154.34342 
L 223.180362 154.221685 
L 227.563636 153.853355 
L 228.497112 153.703831 
L 231.135194 153.400227 
L 237.66952 152.703885 
L 238.84651 152.565682 
L 241.728107 152.244386 
L 243.513886 152.098024 
L 245.259079 151.964104 
L 246.476655 151.807944 
L 247.815989 151.684141 
L 249.520596 151.505969 
L 250.210556 151.400747 
L 251.387546 151.294434 
L 251.793405 151.245628 
L 253.335668 151.069817 
L 255.608477 150.830342 
L 259.991752 150.424529 
L 260.397611 150.387782 
L 262.061632 150.265899 
L 264.943229 149.985702 
L 265.430259 149.898495 
L 266.972523 149.771915 
L 270.34115 149.437484 
L 271.071696 149.366971 
L 272.979232 149.188837 
L 279.472973 148.535304 
L 280.568791 148.426894 
L 283.612732 148.11755 
L 284.22152 148.065866 
L 297.980133 146.731946 
L 299.116537 146.617674 
L 303.743327 146.25791 
L 304.839146 146.159971 
L 306.056722 146.038105 
L 306.949611 145.937152 
L 310.237067 145.622986 
L 310.967613 145.56043 
L 319.084788 144.724257 
L 325.903216 144.052623 
L 326.714933 143.986848 
L 328.906571 143.822696 
L 329.718288 143.722319 
L 333.411603 143.404794 
L 336.090271 143.07487 
L 337.916635 142.917611 
L 339.05304 142.835335 
L 340.189444 142.736289 
L 340.635889 142.680998 
L 343.761002 142.430293 
L 345.790295 142.20506 
L 366.61085 139.988955 
L 366.976123 139.937215 
L 368.153113 139.801312 
L 369.37069 139.666368 
L 373.875722 139.101178 
L 375.336814 138.977951 
L 377.528451 138.76054 
L 378.989543 138.547331 
L 382.074069 138.172382 
L 382.35817 138.125664 
L 384.103363 137.939394 
L 385.036838 137.831199 
L 386.782031 137.622682 
L 391.205891 137.11772 
L 392.058195 137.026728 
L 395.75151 136.585766 
L 396.319712 136.480145 
L 401.149431 135.863768 
L 401.920563 135.772353 
L 402.93521 135.653737 
L 404.436887 135.443572 
L 407.115555 135.177252 
L 407.846101 135.108659 
L 428.707242 132.142846 
L 429.072515 132.069062 
L 429.721889 131.955792 
L 430.655364 131.806265 
L 430.898879 131.759423 
L 431.994698 131.614146 
L 432.400556 131.541502 
L 433.090516 131.42604 
L 433.73989 131.259315 
L 441.12652 130.00251 
L 441.410621 129.946446 
L 455.00689 127.300318 
L 456.711497 126.95179 
L 459.024892 126.554982 
L 459.349579 126.409604 
L 460.688913 126.125827 
L 460.891842 126.053526 
L 461.703559 125.924663 
L 463.529924 125.535966 
L 464.138712 125.407593 
L 466.452107 124.979668 
L 466.81738 124.887896 
L 467.466754 124.700332 
L 467.629097 124.602107 
L 468.278471 124.414215 
L 468.481401 124.340288 
L 469.009017 124.227523 
L 469.293118 124.114654 
L 471.728271 123.456363 
L 472.377645 123.345791 
L 472.742918 123.225611 
L 473.229948 123.093238 
L 474.812798 122.485413 
L 475.340414 122.335267 
L 475.624515 122.162625 
L 476.355061 121.921267 
L 478.262597 121.156978 
L 479.155486 120.795015 
L 479.399002 120.62476 
L 479.926618 120.438176 
L 480.210719 120.298316 
L 480.738336 120.128295 
L 481.428296 119.91156 
L 481.712397 119.714139 
L 481.996498 119.607289 
L 482.158841 119.465316 
L 482.524114 119.246048 
L 482.848801 119.018717 
L 483.904034 118.489007 
L 484.472236 118.321658 
L 484.959267 118.135203 
L 485.446297 118.032523 
L 487.759692 116.631155 
L 487.922036 116.490337 
L 488.084379 116.434407 
L 488.246723 116.273123 
L 489.383127 115.466464 
L 489.667229 115.09934 
L 489.788986 115.038363 
L 490.032501 114.724673 
L 490.316603 114.591017 
L 490.722461 114.118667 
L 490.803633 114.104176 
L 490.965977 113.774626 
L 491.250078 113.626122 
L 491.858866 113.154113 
L 492.183553 112.770579 
L 492.50824 112.606767 
L 492.670583 112.350754 
L 492.99527 111.804979 
L 493.360543 111.267123 
L 493.482301 111.198191 
L 493.806988 110.764243 
L 493.969331 110.641652 
L 495.308665 107.77535 
L 495.349251 107.766985 
L 495.511595 107.449814 
L 495.795696 106.933787 
L 496.079797 106.110686 
L 496.404484 105.604281 
L 496.526242 105.135159 
L 496.688585 105.026441 
L 496.769757 104.856557 
L 497.053858 101.812334 
L 497.094444 101.734699 
L 497.297373 100.214516 
L 497.378545 100.105504 
L 497.662646 97.707618 
L 497.865576 96.531652 
L 498.109091 89.733592 
L 498.109091 89.733592 
" style="fill:none;stroke:#ff7f0e;stroke-linecap:square;stroke-width:1.5;"/>
   </g>
   <g id="line2d_64">
    <path clip-path="url(#p1289bb83d4)" d="M 92.290909 246.24 
L 92.493838 235.038926 
L 92.859111 224.177313 
L 92.899697 224.053558 
L 93.102627 221.400218 
L 93.386728 219.622775 
L 93.508485 219.082412 
L 93.833172 217.215098 
L 93.914344 216.874048 
L 94.076688 214.832375 
L 94.360789 214.380112 
L 94.401375 214.348477 
L 94.64489 213.386492 
L 94.726062 213.313687 
L 94.888405 212.9961 
L 94.969577 212.884332 
L 95.253678 211.788237 
L 95.497193 211.3866 
L 95.618951 210.896489 
L 95.700123 210.611093 
L 95.903052 210.403816 
L 95.943638 210.386394 
L 96.187153 209.715004 
L 96.227739 209.708416 
L 96.430669 209.361998 
L 96.877113 208.520363 
L 97.2018 208.210663 
L 97.526487 207.65745 
L 98.135275 206.328148 
L 98.257033 206.229383 
L 98.378791 205.802565 
L 98.58172 205.513832 
L 98.744063 204.975279 
L 98.906407 204.686913 
L 99.393438 204.234739 
L 99.555781 203.870948 
L 99.677539 203.77539 
L 100.326913 202.584943 
L 100.489256 202.454944 
L 100.854529 201.494761 
L 101.300974 201.042833 
L 101.747418 200.620571 
L 101.909762 200.434144 
L 102.559136 199.76377 
L 103.086752 199.354911 
L 103.654955 198.665313 
L 103.817298 198.489324 
L 103.89847 198.377306 
L 104.3855 197.942658 
L 104.58843 197.392907 
L 105.846592 196.340781 
L 106.008935 196.078142 
L 106.252451 195.70768 
L 106.698895 195.352398 
L 106.861239 195.189774 
L 107.14534 194.996254 
L 107.672956 194.55492 
L 107.916472 194.4521 
L 108.200573 194.318596 
L 108.362916 194.018929 
L 108.444088 193.933111 
L 108.647017 193.797589 
L 108.971704 193.557743 
L 109.255806 193.295312 
L 109.418149 193.130786 
L 109.580493 193.016511 
L 109.742836 192.864208 
L 110.067523 192.620357 
L 110.432796 192.472382 
L 110.879241 192.257596 
L 111.812716 191.603269 
L 112.015645 191.48556 
L 112.380918 191.287192 
L 113.233222 190.64933 
L 113.395565 190.489337 
L 113.598494 190.384145 
L 114.126111 190.06575 
L 114.288454 189.922543 
L 114.53197 189.735951 
L 114.856657 189.596647 
L 115.221929 189.337267 
L 116.033647 189.011169 
L 116.439506 188.704336 
L 116.642435 188.604618 
L 117.170052 188.24467 
L 117.454153 188.028985 
L 117.616496 188.008666 
L 117.819426 187.727079 
L 118.144113 187.615449 
L 118.509385 187.392275 
L 119.524032 186.928424 
L 119.808134 186.692573 
L 120.092235 186.529517 
L 120.416922 186.404891 
L 120.782195 186.282275 
L 120.985124 186.114976 
L 121.878013 185.824988 
L 122.324458 185.578759 
L 123.136175 185.330543 
L 123.420277 185.104308 
L 123.988479 184.824326 
L 124.475509 184.548549 
L 124.881368 184.442165 
L 125.084298 184.259574 
L 126.098944 183.883304 
L 126.261288 183.769749 
L 126.423631 183.665773 
L 126.626561 183.584779 
L 127.073005 183.361519 
L 127.316521 183.269078 
L 127.600622 183.146902 
L 128.006481 183.02744 
L 128.331168 182.796576 
L 129.3864 182.348602 
L 129.629916 182.205851 
L 129.792259 182.129652 
L 130.563391 181.846885 
L 131.131593 181.633013 
L 131.821553 181.439619 
L 131.983897 181.317166 
L 132.308584 181.181098 
L 132.552099 180.980563 
L 132.876786 180.891399 
L 133.120301 180.753349 
L 133.485574 180.609712 
L 134.01319 180.395613 
L 134.865494 180.103002 
L 135.39311 179.978302 
L 136.367171 179.671664 
L 136.610687 179.580454 
L 137.422404 179.338143 
L 143.672629 177.18779 
L 144.362589 177.00546 
L 144.687276 176.862248 
L 145.255478 176.7628 
L 146.432469 176.348568 
L 149.598167 175.530097 
L 150.085198 175.42005 
L 156.45718 173.433444 
L 157.106554 173.269093 
L 157.958858 173.012142 
L 158.567646 172.870442 
L 158.811161 172.751459 
L 159.379363 172.649411 
L 159.825808 172.457514 
L 160.109909 172.359331 
L 160.312839 172.288402 
L 163.275608 171.766244 
L 168.632943 170.288781 
L 169.404075 170.135249 
L 169.64759 170.048356 
L 170.134621 169.94568 
L 170.54048 169.795394 
L 174.96434 168.837986 
L 175.126684 168.786944 
L 178.373554 168.202886 
L 178.819998 168.091963 
L 179.063514 168.047667 
L 183.406202 166.99011 
L 184.258506 166.874599 
L 186.531315 166.365489 
L 190.549317 165.619221 
L 191.645135 165.477899 
L 193.26857 165.123741 
L 194.120874 164.999945 
L 194.364389 164.936297 
L 194.932591 164.766543 
L 195.176107 164.713192 
L 195.987824 164.567514 
L 197.205401 164.186905 
L 198.463563 163.930646 
L 198.666492 163.869974 
L 200.16817 163.487204 
L 200.371099 163.399209 
L 201.020473 163.281212 
L 201.34516 163.159665 
L 205.160232 162.497513 
L 205.363162 162.431626 
L 206.783667 162.199266 
L 208.325931 161.974307 
L 208.772375 161.841187 
L 209.90878 161.623714 
L 210.314639 161.542308 
L 210.761083 161.431891 
L 212.830963 161.077256 
L 213.84561 160.892627 
L 218.066541 160.237531 
L 218.837673 160.132176 
L 219.121774 160.068437 
L 219.771148 159.9512 
L 220.014663 159.865838 
L 221.394583 159.625262 
L 221.881614 159.500691 
L 223.302119 159.294746 
L 226.224302 158.714692 
L 226.467818 158.651643 
L 227.198363 158.53966 
L 235.396711 157.084091 
L 235.802569 156.987202 
L 236.127256 156.923907 
L 236.817216 156.804089 
L 237.182489 156.727291 
L 238.034793 156.601619 
L 241.444006 155.934688 
L 242.661583 155.667425 
L 243.067441 155.559873 
L 243.838573 155.450013 
L 244.934392 155.237671 
L 245.949039 155.085138 
L 246.517241 154.94612 
L 250.494657 154.266566 
L 250.738172 154.17179 
L 251.712233 154.063206 
L 252.767466 153.908848 
L 254.715588 153.587147 
L 255.405548 153.471714 
L 267.621897 151.329862 
L 268.271271 151.206854 
L 270.54408 150.803363 
L 271.274626 150.671182 
L 272.370444 150.368097 
L 273.547435 150.231732 
L 274.237395 150.124169 
L 283.450389 148.554797 
L 283.937419 148.458073 
L 284.870894 148.332065 
L 285.154995 148.279454 
L 286.453744 148.136164 
L 286.819016 148.078454 
L 287.996007 147.928486 
L 288.564209 147.795817 
L 289.457098 147.675866 
L 290.025301 147.586126 
L 290.999362 147.479837 
L 291.283463 147.418946 
L 295.260879 146.859939 
L 295.626152 146.810375 
L 296.803142 146.576559 
L 297.087243 146.48819 
L 298.548335 146.232098 
L 298.751264 146.165554 
L 299.765911 146.003624 
L 302.03872 145.60947 
L 302.282235 145.550506 
L 308.248359 144.475573 
L 309.100663 144.371774 
L 309.587693 144.323309 
L 311.535815 143.989209 
L 312.550462 143.799084 
L 314.011554 143.602109 
L 315.026201 143.445592 
L 315.959676 143.291291 
L 317.055495 143.116067 
L 318.232485 142.961401 
L 318.963031 142.849832 
L 321.276426 142.53406 
L 322.453416 142.391635 
L 323.30572 142.184437 
L 324.036265 142.047798 
L 333.614532 140.425926 
L 334.953866 140.192629 
L 335.60324 140.077525 
L 336.171443 139.998864 
L 336.861403 139.848659 
L 339.215383 139.351738 
L 339.986515 139.209532 
L 341.569364 138.926648 
L 347.170215 137.869982 
L 347.373145 137.749111 
L 348.590721 137.585303 
L 349.077751 137.496322 
L 350.579429 137.203656 
L 350.86353 137.163903 
L 351.391146 137.033308 
L 355.571492 136.279876 
L 355.896179 136.200799 
L 358.128402 135.831282 
L 358.534261 135.736697 
L 359.386564 135.613858 
L 359.873595 135.539548 
L 363.282808 134.946652 
L 364.135112 134.718362 
L 364.7439 134.603488 
L 376.107945 132.583796 
L 377.406693 132.345897 
L 378.340169 132.181067 
L 385.199182 130.801778 
L 389.298355 129.974065 
L 389.501285 129.887902 
L 390.394174 129.725378 
L 390.840619 129.602325 
L 392.220538 129.387892 
L 393.438115 129.161182 
L 393.843973 128.959776 
L 395.670338 128.581554 
L 396.360298 128.476568 
L 396.684985 128.367112 
L 397.293773 128.260259 
L 398.876622 127.953438 
L 399.201309 127.85031 
L 400.256542 127.604287 
L 400.824744 127.467756 
L 401.392947 127.356877 
L 401.879977 127.21887 
L 402.407593 127.117025 
L 403.300483 126.925584 
L 403.62517 126.878399 
L 406.18208 126.413356 
L 406.547353 126.314906 
L 408.130202 126.002386 
L 408.333131 125.929188 
L 413.487538 124.659677 
L 413.974568 124.571407 
L 414.339841 124.453922 
L 414.908044 124.344282 
L 415.557418 124.206973 
L 416.856166 123.982334 
L 417.546126 123.793837 
L 418.398429 123.626921 
L 418.641944 123.494214 
L 419.697177 123.28556 
L 420.387137 123.074974 
L 420.833582 122.896316 
L 421.401784 122.752848 
L 422.578774 122.451779 
L 424.323967 121.971128 
L 427.367908 121.325987 
L 427.854938 121.205803 
L 428.666656 121.010593 
L 429.397202 120.860827 
L 430.898879 120.433457 
L 435.972114 119.170822 
L 437.554963 118.677544 
L 438.204337 118.539825 
L 438.650781 118.424317 
L 438.934883 118.327483 
L 439.218984 118.167564 
L 439.665428 118.064363 
L 444.37339 116.715289 
L 444.698077 116.616495 
L 445.103936 116.485186 
L 445.428623 116.404869 
L 445.956239 116.227056 
L 446.280926 116.081672 
L 446.483856 115.966429 
L 447.092644 115.790134 
L 447.82319 115.523028 
L 448.269634 115.33477 
L 448.472564 115.279234 
L 449.00018 115.172947 
L 449.203109 115.119953 
L 449.527796 115.022972 
L 450.3801 114.699705 
L 451.07006 114.582417 
L 452.287636 113.95297 
L 452.693495 113.74109 
L 453.058768 113.561412 
L 453.829899 113.363754 
L 453.992243 113.226583 
L 454.80396 112.913031 
L 455.047476 112.815034 
L 455.372163 112.716261 
L 455.737436 112.571524 
L 456.346224 112.387167 
L 456.955012 112.118205 
L 457.847901 111.878819 
L 458.050831 111.717969 
L 458.659619 111.468042 
L 459.024892 111.340465 
L 460.932428 110.670821 
L 462.515277 110.180363 
L 462.921136 109.891939 
L 463.245823 109.757239 
L 464.016954 109.309247 
L 465.072187 109.002543 
L 465.275117 108.789491 
L 465.478046 108.668574 
L 466.249178 108.307236 
L 466.533279 108.206679 
L 466.81738 107.996507 
L 468.440815 107.086995 
L 468.68433 106.961385 
L 470.916553 105.941364 
L 471.160069 105.82191 
L 472.012372 105.433084 
L 472.174716 105.276848 
L 472.661746 105.026301 
L 472.986433 104.905703 
L 473.270534 104.674927 
L 473.51405 104.571504 
L 473.676393 104.494301 
L 473.919908 104.2949 
L 474.934555 103.857233 
L 475.178071 103.618416 
L 475.624515 103.291331 
L 477.207364 102.390147 
L 477.288536 102.346257 
L 477.491466 102.127139 
L 477.816153 101.965107 
L 478.019082 101.701362 
L 478.587284 101.289029 
L 479.033729 100.925638 
L 479.277244 100.712935 
L 479.601931 100.509053 
L 479.80486 100.37644 
L 480.048376 100.211592 
L 480.210719 100.035595 
L 480.454235 99.9262 
L 480.738336 99.686808 
L 481.468881 99.097551 
L 482.118255 98.73816 
L 482.483528 98.42692 
L 482.645872 98.221764 
L 482.848801 98.100843 
L 483.214074 97.833517 
L 483.94462 97.317673 
L 484.918681 96.482978 
L 485.12161 96.124834 
L 485.486883 95.807437 
L 485.649227 95.542155 
L 485.933328 95.205366 
L 486.623288 94.674458 
L 486.826217 94.480784 
L 487.029147 94.354624 
L 487.313248 94.088166 
L 487.435005 93.972738 
L 487.922036 93.491667 
L 488.084379 93.185261 
L 488.287309 93.073089 
L 488.449652 93.001793 
L 488.652582 92.840339 
L 488.936683 92.688905 
L 489.139612 92.114006 
L 490.276017 90.18099 
L 490.397774 89.879257 
L 490.844219 89.537498 
L 491.006562 88.986716 
L 491.168906 88.68586 
L 491.331249 88.231431 
L 492.345896 86.905217 
L 492.548826 86.671157 
L 492.589412 86.607995 
L 492.792341 85.938732 
L 492.954685 85.602469 
L 493.035856 85.45801 
L 493.482301 84.470481 
L 493.644644 84.394589 
L 494.294018 82.851796 
L 494.334604 82.842027 
L 494.496948 82.066548 
L 494.618706 81.998546 
L 494.821635 81.695521 
L 494.983978 81.53715 
L 495.186908 80.608557 
L 496.769757 75.81344 
L 497.743818 66.239929 
L 497.906162 62.674097 
L 498.068505 57.094152 
L 498.109091 44.64 
L 498.109091 44.64 
" style="fill:none;stroke:#2ca02c;stroke-linecap:square;stroke-width:1.5;"/>
   </g>
   <g id="line2d_65">
    <path clip-path="url(#p1289bb83d4)" d="M 295.220293 256.32 
L 295.220293 34.56 
" style="fill:none;stroke:#808080;stroke-linecap:square;stroke-width:0.3;"/>
   </g>
   <g id="line2d_66">
    <path clip-path="url(#p1289bb83d4)" d="M 72 146.923878 
L 518.4 146.923878 
" style="fill:none;stroke:#808080;stroke-linecap:square;stroke-width:0.3;"/>
   </g>
   <g id="patch_3">
    <path d="M 72 256.32 
L 72 34.56 
" style="fill:none;stroke:#000000;stroke-linecap:square;stroke-linejoin:miter;stroke-width:0.8;"/>
   </g>
   <g id="patch_4">
    <path d="M 518.4 256.32 
L 518.4 34.56 
" style="fill:none;stroke:#000000;stroke-linecap:square;stroke-linejoin:miter;stroke-width:0.8;"/>
   </g>
   <g id="patch_5">
    <path d="M 72 256.32 
L 518.4 256.32 
" style="fill:none;stroke:#000000;stroke-linecap:square;stroke-linejoin:miter;stroke-width:0.8;"/>
   </g>
   <g id="patch_6">
    <path d="M 72 34.56 
L 518.4 34.56 
" style="fill:none;stroke:#000000;stroke-linecap:square;stroke-linejoin:miter;stroke-width:0.8;"/>
   </g>
   <g id="legend_1">
    <g id="patch_7">
     <path d="M 79 71.91625 
L 145.273438 71.91625 
Q 147.273438 71.91625 147.273438 69.91625 
L 147.273438 41.56 
Q 147.273438 39.56 145.273438 39.56 
L 79 39.56 
Q 77 39.56 77 41.56 
L 77 69.91625 
Q 77 71.91625 79 71.91625 
z
" style="fill:#ffffff;opacity:0.8;stroke:#cccccc;stroke-linejoin:miter;"/>
    </g>
    <g id="line2d_67">
     <path d="M 81 47.658437 
L 101 47.658437 
" style="fill:none;stroke:#ff7f0e;stroke-linecap:square;stroke-width:1.5;"/>
    </g>
    <g id="line2d_68"/>
    <g id="text_16">
     <!-- 10 лет -->
     <defs>
      <path d="M 2.9375 54.6875 
L 55.328125 54.6875 
L 55.328125 47.515625 
L 33.546875 47.515625 
L 33.546875 0 
L 24.703125 0 
L 24.703125 47.515625 
L 2.9375 47.515625 
z
" id="DejaVuSans-1090"/>
     </defs>
     <g transform="translate(109 51.158437)scale(0.1 -0.1)">
      <use xlink:href="#DejaVuSans-49"/>
      <use x="63.623047" xlink:href="#DejaVuSans-48"/>
      <use x="127.246094" xlink:href="#DejaVuSans-32"/>
      <use x="159.033203" xlink:href="#DejaVuSans-1083"/>
      <use x="222.949219" xlink:href="#DejaVuSans-1077"/>
      <use x="284.472656" xlink:href="#DejaVuSans-1090"/>
     </g>
    </g>
    <g id="line2d_69">
     <path d="M 81 62.336562 
L 101 62.336562 
" style="fill:none;stroke:#2ca02c;stroke-linecap:square;stroke-width:1.5;"/>
    </g>
    <g id="line2d_70"/>
    <g id="text_17">
     <!-- 30 лет -->
     <defs>
      <path d="M 40.578125 39.3125 
Q 47.65625 37.796875 51.625 33 
Q 55.609375 28.21875 55.609375 21.1875 
Q 55.609375 10.40625 48.1875 4.484375 
Q 40.765625 -1.421875 27.09375 -1.421875 
Q 22.515625 -1.421875 17.65625 -0.515625 
Q 12.796875 0.390625 7.625 2.203125 
L 7.625 11.71875 
Q 11.71875 9.328125 16.59375 8.109375 
Q 21.484375 6.890625 26.8125 6.890625 
Q 36.078125 6.890625 40.9375 10.546875 
Q 45.796875 14.203125 45.796875 21.1875 
Q 45.796875 27.640625 41.28125 31.265625 
Q 36.765625 34.90625 28.71875 34.90625 
L 20.21875 34.90625 
L 20.21875 43.015625 
L 29.109375 43.015625 
Q 36.375 43.015625 40.234375 45.921875 
Q 44.09375 48.828125 44.09375 54.296875 
Q 44.09375 59.90625 40.109375 62.90625 
Q 36.140625 65.921875 28.71875 65.921875 
Q 24.65625 65.921875 20.015625 65.03125 
Q 15.375 64.15625 9.8125 62.3125 
L 9.8125 71.09375 
Q 15.4375 72.65625 20.34375 73.4375 
Q 25.25 74.21875 29.59375 74.21875 
Q 40.828125 74.21875 47.359375 69.109375 
Q 53.90625 64.015625 53.90625 55.328125 
Q 53.90625 49.265625 50.4375 45.09375 
Q 46.96875 40.921875 40.578125 39.3125 
z
" id="DejaVuSans-51"/>
     </defs>
     <g transform="translate(109 65.836562)scale(0.1 -0.1)">
      <use xlink:href="#DejaVuSans-51"/>
      <use x="63.623047" xlink:href="#DejaVuSans-48"/>
      <use x="127.246094" xlink:href="#DejaVuSans-32"/>
      <use x="159.033203" xlink:href="#DejaVuSans-1083"/>
      <use x="222.949219" xlink:href="#DejaVuSans-1077"/>
      <use x="284.472656" xlink:href="#DejaVuSans-1090"/>
     </g>
    </g>
   </g>
  </g>
 </g>
 <defs>
  <clipPath id="p1289bb83d4">
   <rect height="221.76" width="446.4" x="72" y="34.56"/>
  </clipPath>
 </defs>
</svg>
