<?xml version="1.0" encoding="utf-8" standalone="no"?>
<!DOCTYPE svg PUBLIC "-//W3C//DTD SVG 1.1//EN"
  "http://www.w3.org/Graphics/SVG/1.1/DTD/svg11.dtd">
<!-- Created with matplotlib (https://matplotlib.org/) -->
<svg height="288pt" version="1.1" viewBox="0 0 576 288" width="576pt" xmlns="http://www.w3.org/2000/svg" xmlns:xlink="http://www.w3.org/1999/xlink">
 <defs>
  <style type="text/css">
*{stroke-linecap:butt;stroke-linejoin:round;}
  </style>
 </defs>
 <g id="figure_1">
  <g id="patch_1">
   <path d="M 0 288 
L 576 288 
L 576 0 
L 0 0 
z
" style="fill:#ffffff;"/>
  </g>
  <g id="axes_1">
   <g id="patch_2">
    <path d="M 72 256.32 
L 518.4 256.32 
L 518.4 34.56 
L 72 34.56 
z
" style="fill:#ffffff;"/>
   </g>
   <g id="matplotlib.axis_1">
    <g id="xtick_1">
     <g id="line2d_1">
      <defs>
       <path d="M 0 0 
L 0 3.5 
" id="mb10582654f" style="stroke:#000000;stroke-width:0.8;"/>
      </defs>
      <g>
       <use style="stroke:#000000;stroke-width:0.8;" x="92.290909" xlink:href="#mb10582654f" y="256.32"/>
      </g>
     </g>
     <g id="text_1">
      <!-- 0 -->
      <defs>
       <path d="M 31.78125 66.40625 
Q 24.171875 66.40625 20.328125 58.90625 
Q 16.5 51.421875 16.5 36.375 
Q 16.5 21.390625 20.328125 13.890625 
Q 24.171875 6.390625 31.78125 6.390625 
Q 39.453125 6.390625 43.28125 13.890625 
Q 47.125 21.390625 47.125 36.375 
Q 47.125 51.421875 43.28125 58.90625 
Q 39.453125 66.40625 31.78125 66.40625 
z
M 31.78125 74.21875 
Q 44.046875 74.21875 50.515625 64.515625 
Q 56.984375 54.828125 56.984375 36.375 
Q 56.984375 17.96875 50.515625 8.265625 
Q 44.046875 -1.421875 31.78125 -1.421875 
Q 19.53125 -1.421875 13.0625 8.265625 
Q 6.59375 17.96875 6.59375 36.375 
Q 6.59375 54.828125 13.0625 64.515625 
Q 19.53125 74.21875 31.78125 74.21875 
z
" id="DejaVuSans-48"/>
      </defs>
      <g transform="translate(89.109659 270.918437)scale(0.1 -0.1)">
       <use xlink:href="#DejaVuSans-48"/>
      </g>
     </g>
    </g>
    <g id="xtick_2">
     <g id="line2d_2">
      <g>
       <use style="stroke:#000000;stroke-width:0.8;" x="173.462663" xlink:href="#mb10582654f" y="256.32"/>
      </g>
     </g>
     <g id="text_2">
      <!-- 20 -->
      <defs>
       <path d="M 19.1875 8.296875 
L 53.609375 8.296875 
L 53.609375 0 
L 7.328125 0 
L 7.328125 8.296875 
Q 12.9375 14.109375 22.625 23.890625 
Q 32.328125 33.6875 34.8125 36.53125 
Q 39.546875 41.84375 41.421875 45.53125 
Q 43.3125 49.21875 43.3125 52.78125 
Q 43.3125 58.59375 39.234375 62.25 
Q 35.15625 65.921875 28.609375 65.921875 
Q 23.96875 65.921875 18.8125 64.3125 
Q 13.671875 62.703125 7.8125 59.421875 
L 7.8125 69.390625 
Q 13.765625 71.78125 18.9375 73 
Q 24.125 74.21875 28.421875 74.21875 
Q 39.75 74.21875 46.484375 68.546875 
Q 53.21875 62.890625 53.21875 53.421875 
Q 53.21875 48.921875 51.53125 44.890625 
Q 49.859375 40.875 45.40625 35.40625 
Q 44.1875 33.984375 37.640625 27.21875 
Q 31.109375 20.453125 19.1875 8.296875 
z
" id="DejaVuSans-50"/>
      </defs>
      <g transform="translate(167.100163 270.918437)scale(0.1 -0.1)">
       <use xlink:href="#DejaVuSans-50"/>
       <use x="63.623047" xlink:href="#DejaVuSans-48"/>
      </g>
     </g>
    </g>
    <g id="xtick_3">
     <g id="line2d_3">
      <g>
       <use style="stroke:#000000;stroke-width:0.8;" x="254.634416" xlink:href="#mb10582654f" y="256.32"/>
      </g>
     </g>
     <g id="text_3">
      <!-- 40 -->
      <defs>
       <path d="M 37.796875 64.3125 
L 12.890625 25.390625 
L 37.796875 25.390625 
z
M 35.203125 72.90625 
L 47.609375 72.90625 
L 47.609375 25.390625 
L 58.015625 25.390625 
L 58.015625 17.1875 
L 47.609375 17.1875 
L 47.609375 0 
L 37.796875 0 
L 37.796875 17.1875 
L 4.890625 17.1875 
L 4.890625 26.703125 
z
" id="DejaVuSans-52"/>
      </defs>
      <g transform="translate(248.271916 270.918437)scale(0.1 -0.1)">
       <use xlink:href="#DejaVuSans-52"/>
       <use x="63.623047" xlink:href="#DejaVuSans-48"/>
      </g>
     </g>
    </g>
    <g id="xtick_4">
     <g id="line2d_4">
      <g>
       <use style="stroke:#000000;stroke-width:0.8;" x="335.80617" xlink:href="#mb10582654f" y="256.32"/>
      </g>
     </g>
     <g id="text_4">
      <!-- 60 -->
      <defs>
       <path d="M 33.015625 40.375 
Q 26.375 40.375 22.484375 35.828125 
Q 18.609375 31.296875 18.609375 23.390625 
Q 18.609375 15.53125 22.484375 10.953125 
Q 26.375 6.390625 33.015625 6.390625 
Q 39.65625 6.390625 43.53125 10.953125 
Q 47.40625 15.53125 47.40625 23.390625 
Q 47.40625 31.296875 43.53125 35.828125 
Q 39.65625 40.375 33.015625 40.375 
z
M 52.59375 71.296875 
L 52.59375 62.3125 
Q 48.875 64.0625 45.09375 64.984375 
Q 41.3125 65.921875 37.59375 65.921875 
Q 27.828125 65.921875 22.671875 59.328125 
Q 17.53125 52.734375 16.796875 39.40625 
Q 19.671875 43.65625 24.015625 45.921875 
Q 28.375 48.1875 33.59375 48.1875 
Q 44.578125 48.1875 50.953125 41.515625 
Q 57.328125 34.859375 57.328125 23.390625 
Q 57.328125 12.15625 50.6875 5.359375 
Q 44.046875 -1.421875 33.015625 -1.421875 
Q 20.359375 -1.421875 13.671875 8.265625 
Q 6.984375 17.96875 6.984375 36.375 
Q 6.984375 53.65625 15.1875 63.9375 
Q 23.390625 74.21875 37.203125 74.21875 
Q 40.921875 74.21875 44.703125 73.484375 
Q 48.484375 72.75 52.59375 71.296875 
z
" id="DejaVuSans-54"/>
      </defs>
      <g transform="translate(329.44367 270.918437)scale(0.1 -0.1)">
       <use xlink:href="#DejaVuSans-54"/>
       <use x="63.623047" xlink:href="#DejaVuSans-48"/>
      </g>
     </g>
    </g>
    <g id="xtick_5">
     <g id="line2d_5">
      <g>
       <use style="stroke:#000000;stroke-width:0.8;" x="416.977923" xlink:href="#mb10582654f" y="256.32"/>
      </g>
     </g>
     <g id="text_5">
      <!-- 80 -->
      <defs>
       <path d="M 31.78125 34.625 
Q 24.75 34.625 20.71875 30.859375 
Q 16.703125 27.09375 16.703125 20.515625 
Q 16.703125 13.921875 20.71875 10.15625 
Q 24.75 6.390625 31.78125 6.390625 
Q 38.8125 6.390625 42.859375 10.171875 
Q 46.921875 13.96875 46.921875 20.515625 
Q 46.921875 27.09375 42.890625 30.859375 
Q 38.875 34.625 31.78125 34.625 
z
M 21.921875 38.8125 
Q 15.578125 40.375 12.03125 44.71875 
Q 8.5 49.078125 8.5 55.328125 
Q 8.5 64.0625 14.71875 69.140625 
Q 20.953125 74.21875 31.78125 74.21875 
Q 42.671875 74.21875 48.875 69.140625 
Q 55.078125 64.0625 55.078125 55.328125 
Q 55.078125 49.078125 51.53125 44.71875 
Q 48 40.375 41.703125 38.8125 
Q 48.828125 37.15625 52.796875 32.3125 
Q 56.78125 27.484375 56.78125 20.515625 
Q 56.78125 9.90625 50.3125 4.234375 
Q 43.84375 -1.421875 31.78125 -1.421875 
Q 19.734375 -1.421875 13.25 4.234375 
Q 6.78125 9.90625 6.78125 20.515625 
Q 6.78125 27.484375 10.78125 32.3125 
Q 14.796875 37.15625 21.921875 38.8125 
z
M 18.3125 54.390625 
Q 18.3125 48.734375 21.84375 45.5625 
Q 25.390625 42.390625 31.78125 42.390625 
Q 38.140625 42.390625 41.71875 45.5625 
Q 45.3125 48.734375 45.3125 54.390625 
Q 45.3125 60.0625 41.71875 63.234375 
Q 38.140625 66.40625 31.78125 66.40625 
Q 25.390625 66.40625 21.84375 63.234375 
Q 18.3125 60.0625 18.3125 54.390625 
z
" id="DejaVuSans-56"/>
      </defs>
      <g transform="translate(410.615423 270.918437)scale(0.1 -0.1)">
       <use xlink:href="#DejaVuSans-56"/>
       <use x="63.623047" xlink:href="#DejaVuSans-48"/>
      </g>
     </g>
    </g>
    <g id="xtick_6">
     <g id="line2d_6">
      <g>
       <use style="stroke:#000000;stroke-width:0.8;" x="498.149677" xlink:href="#mb10582654f" y="256.32"/>
      </g>
     </g>
     <g id="text_6">
      <!-- 100 -->
      <defs>
       <path d="M 12.40625 8.296875 
L 28.515625 8.296875 
L 28.515625 63.921875 
L 10.984375 60.40625 
L 10.984375 69.390625 
L 28.421875 72.90625 
L 38.28125 72.90625 
L 38.28125 8.296875 
L 54.390625 8.296875 
L 54.390625 0 
L 12.40625 0 
z
" id="DejaVuSans-49"/>
      </defs>
      <g transform="translate(488.605927 270.918437)scale(0.1 -0.1)">
       <use xlink:href="#DejaVuSans-49"/>
       <use x="63.623047" xlink:href="#DejaVuSans-48"/>
       <use x="127.246094" xlink:href="#DejaVuSans-48"/>
      </g>
     </g>
    </g>
    <g id="text_7">
     <!-- доля акций, % -->
     <defs>
      <path d="M 21.625 7.171875 
L 47.703125 7.171875 
L 47.703125 47.515625 
L 28.8125 47.515625 
L 28.8125 40.671875 
Q 28.8125 20.5625 23.046875 9.8125 
z
M 8.59375 7.171875 
Q 13.03125 9.125 14.984375 13.28125 
Q 19.78125 23.578125 19.78125 44.34375 
L 19.78125 54.6875 
L 56.734375 54.6875 
L 56.734375 7.171875 
L 63.921875 7.171875 
L 63.921875 -13.8125 
L 56.734375 -13.8125 
L 56.734375 0 
L 12.40625 0 
L 12.40625 -13.8125 
L 5.21875 -13.8125 
L 5.21875 7.171875 
z
" id="DejaVuSans-1076"/>
      <path d="M 30.609375 48.390625 
Q 23.390625 48.390625 19.1875 42.75 
Q 14.984375 37.109375 14.984375 27.296875 
Q 14.984375 17.484375 19.15625 11.84375 
Q 23.34375 6.203125 30.609375 6.203125 
Q 37.796875 6.203125 41.984375 11.859375 
Q 46.1875 17.53125 46.1875 27.296875 
Q 46.1875 37.015625 41.984375 42.703125 
Q 37.796875 48.390625 30.609375 48.390625 
z
M 30.609375 56 
Q 42.328125 56 49.015625 48.375 
Q 55.71875 40.765625 55.71875 27.296875 
Q 55.71875 13.875 49.015625 6.21875 
Q 42.328125 -1.421875 30.609375 -1.421875 
Q 18.84375 -1.421875 12.171875 6.21875 
Q 5.515625 13.875 5.515625 27.296875 
Q 5.515625 40.765625 12.171875 48.375 
Q 18.84375 56 30.609375 56 
z
" id="DejaVuSans-1086"/>
      <path d="M 3.71875 0 
L 3.71875 7.46875 
Q 12.59375 8.84375 15.328125 14.984375 
Q 18.65625 23.640625 18.65625 45.75 
L 18.65625 54.6875 
L 55.609375 54.6875 
L 55.609375 0 
L 46.625 0 
L 46.625 47.515625 
L 27.640625 47.515625 
L 27.640625 42.09375 
Q 27.640625 21 23.34375 11.53125 
Q 18.75 1.421875 3.71875 0 
z
" id="DejaVuSans-1083"/>
      <path d="M 18.453125 38.921875 
Q 18.453125 34.859375 21.578125 32.5625 
Q 24.703125 30.28125 30.515625 30.28125 
L 42.625 30.28125 
L 42.625 47.515625 
L 30.515625 47.515625 
Q 24.703125 47.515625 21.578125 45.265625 
Q 18.453125 43.015625 18.453125 38.921875 
z
M 5.671875 0 
L 22.359375 23.96875 
Q 16.703125 25.25 12.9375 28.59375 
Q 9.1875 31.9375 9.1875 38.921875 
Q 9.1875 46.828125 14.421875 50.75 
Q 19.671875 54.6875 30.28125 54.6875 
L 51.65625 54.6875 
L 51.65625 0 
L 42.625 0 
L 42.625 23.09375 
L 31.453125 23.09375 
L 15.328125 0 
z
" id="DejaVuSans-1103"/>
      <path id="DejaVuSans-32"/>
      <path d="M 34.28125 27.484375 
Q 23.390625 27.484375 19.1875 25 
Q 14.984375 22.515625 14.984375 16.5 
Q 14.984375 11.71875 18.140625 8.90625 
Q 21.296875 6.109375 26.703125 6.109375 
Q 34.1875 6.109375 38.703125 11.40625 
Q 43.21875 16.703125 43.21875 25.484375 
L 43.21875 27.484375 
z
M 52.203125 31.203125 
L 52.203125 0 
L 43.21875 0 
L 43.21875 8.296875 
Q 40.140625 3.328125 35.546875 0.953125 
Q 30.953125 -1.421875 24.3125 -1.421875 
Q 15.921875 -1.421875 10.953125 3.296875 
Q 6 8.015625 6 15.921875 
Q 6 25.140625 12.171875 29.828125 
Q 18.359375 34.515625 30.609375 34.515625 
L 43.21875 34.515625 
L 43.21875 35.40625 
Q 43.21875 41.609375 39.140625 45 
Q 35.0625 48.390625 27.6875 48.390625 
Q 23 48.390625 18.546875 47.265625 
Q 14.109375 46.140625 10.015625 43.890625 
L 10.015625 52.203125 
Q 14.9375 54.109375 19.578125 55.046875 
Q 24.21875 56 28.609375 56 
Q 40.484375 56 46.34375 49.84375 
Q 52.203125 43.703125 52.203125 31.203125 
z
" id="DejaVuSans-1072"/>
      <path d="M 9.078125 54.6875 
L 18.015625 54.6875 
L 18.015625 29 
L 43.359375 54.6875 
L 54.390625 54.6875 
L 33.5 33.546875 
L 57.078125 0 
L 47.015625 0 
L 27.640625 27.59375 
L 18.015625 17.828125 
L 18.015625 0 
L 9.078125 0 
z
" id="DejaVuSans-1082"/>
      <path d="M 56.296875 0 
L 9.078125 0 
L 9.078125 54.6875 
L 18.109375 54.6875 
L 18.109375 7.171875 
L 47.265625 7.171875 
L 47.265625 54.6875 
L 56.296875 54.6875 
L 56.296875 7.171875 
L 63.484375 7.171875 
L 63.484375 -13.8125 
L 56.296875 -13.8125 
z
" id="DejaVuSans-1094"/>
      <path d="M 55.90625 54.6875 
L 55.90625 0 
L 46.96875 0 
L 46.96875 43.890625 
L 20.609375 0 
L 9.078125 0 
L 9.078125 54.6875 
L 18.015625 54.6875 
L 18.015625 10.890625 
L 44.34375 54.6875 
z
" id="DejaVuSans-1080"/>
      <path d="M 55.90625 54.6875 
L 55.90625 0 
L 46.96875 0 
L 46.96875 43.890625 
L 20.609375 0 
L 9.078125 0 
L 9.078125 54.6875 
L 18.015625 54.6875 
L 18.015625 10.890625 
L 44.34375 54.6875 
z
M 17.234375 75.96875 
L 23 75.96875 
Q 23.53125 72.3125 25.890625 70.46875 
Q 28.265625 68.640625 32.515625 68.640625 
Q 36.71875 68.640625 39.0625 70.453125 
Q 41.40625 72.265625 42.046875 75.96875 
L 47.796875 75.96875 
Q 47.3125 68.984375 43.453125 65.46875 
Q 39.59375 61.953125 32.515625 61.953125 
Q 25.4375 61.953125 21.578125 65.46875 
Q 17.71875 68.984375 17.234375 75.96875 
z
" id="DejaVuSans-1081"/>
      <path d="M 11.71875 12.40625 
L 22.015625 12.40625 
L 22.015625 4 
L 14.015625 -11.625 
L 7.71875 -11.625 
L 11.71875 4 
z
" id="DejaVuSans-44"/>
      <path d="M 72.703125 32.078125 
Q 68.453125 32.078125 66.03125 28.46875 
Q 63.625 24.859375 63.625 18.40625 
Q 63.625 12.0625 66.03125 8.421875 
Q 68.453125 4.78125 72.703125 4.78125 
Q 76.859375 4.78125 79.265625 8.421875 
Q 81.6875 12.0625 81.6875 18.40625 
Q 81.6875 24.8125 79.265625 28.4375 
Q 76.859375 32.078125 72.703125 32.078125 
z
M 72.703125 38.28125 
Q 80.421875 38.28125 84.953125 32.90625 
Q 89.5 27.546875 89.5 18.40625 
Q 89.5 9.28125 84.9375 3.921875 
Q 80.375 -1.421875 72.703125 -1.421875 
Q 64.890625 -1.421875 60.34375 3.921875 
Q 55.8125 9.28125 55.8125 18.40625 
Q 55.8125 27.59375 60.375 32.9375 
Q 64.9375 38.28125 72.703125 38.28125 
z
M 22.3125 68.015625 
Q 18.109375 68.015625 15.6875 64.375 
Q 13.28125 60.75 13.28125 54.390625 
Q 13.28125 47.953125 15.671875 44.328125 
Q 18.0625 40.71875 22.3125 40.71875 
Q 26.5625 40.71875 28.96875 44.328125 
Q 31.390625 47.953125 31.390625 54.390625 
Q 31.390625 60.6875 28.953125 64.34375 
Q 26.515625 68.015625 22.3125 68.015625 
z
M 66.40625 74.21875 
L 74.21875 74.21875 
L 28.609375 -1.421875 
L 20.796875 -1.421875 
z
M 22.3125 74.21875 
Q 30.03125 74.21875 34.609375 68.875 
Q 39.203125 63.53125 39.203125 54.390625 
Q 39.203125 45.171875 34.640625 39.84375 
Q 30.078125 34.515625 22.3125 34.515625 
Q 14.546875 34.515625 10.03125 39.859375 
Q 5.515625 45.21875 5.515625 54.390625 
Q 5.515625 63.484375 10.046875 68.84375 
Q 14.59375 74.21875 22.3125 74.21875 
z
" id="DejaVuSans-37"/>
     </defs>
     <g transform="translate(256.975781 284.596563)scale(0.1 -0.1)">
      <use xlink:href="#DejaVuSans-1076"/>
      <use x="69.140625" xlink:href="#DejaVuSans-1086"/>
      <use x="130.322266" xlink:href="#DejaVuSans-1083"/>
      <use x="194.238281" xlink:href="#DejaVuSans-1103"/>
      <use x="254.394531" xlink:href="#DejaVuSans-32"/>
      <use x="286.181641" xlink:href="#DejaVuSans-1072"/>
      <use x="347.460938" xlink:href="#DejaVuSans-1082"/>
      <use x="407.861328" xlink:href="#DejaVuSans-1094"/>
      <use x="475.927734" xlink:href="#DejaVuSans-1080"/>
      <use x="540.917969" xlink:href="#DejaVuSans-1081"/>
      <use x="605.908203" xlink:href="#DejaVuSans-44"/>
      <use x="637.695312" xlink:href="#DejaVuSans-32"/>
      <use x="669.482422" xlink:href="#DejaVuSans-37"/>
     </g>
    </g>
   </g>
   <g id="matplotlib.axis_2">
    <g id="ytick_1">
     <g id="line2d_7">
      <defs>
       <path d="M 0 0 
L -3.5 0 
" id="m057b81e211" style="stroke:#000000;stroke-width:0.8;"/>
      </defs>
      <g>
       <use style="stroke:#000000;stroke-width:0.8;" x="72" xlink:href="#m057b81e211" y="256.363843"/>
      </g>
     </g>
     <g id="text_8">
      <!-- 0.001 -->
      <defs>
       <path d="M 10.6875 12.40625 
L 21 12.40625 
L 21 0 
L 10.6875 0 
z
" id="DejaVuSans-46"/>
      </defs>
      <g transform="translate(36.371875 260.163061)scale(0.1 -0.1)">
       <use xlink:href="#DejaVuSans-48"/>
       <use x="63.623047" xlink:href="#DejaVuSans-46"/>
       <use x="95.410156" xlink:href="#DejaVuSans-48"/>
       <use x="159.033203" xlink:href="#DejaVuSans-48"/>
       <use x="222.65625" xlink:href="#DejaVuSans-49"/>
      </g>
     </g>
    </g>
    <g id="ytick_2">
     <g id="line2d_8">
      <g>
       <use style="stroke:#000000;stroke-width:0.8;" x="72" xlink:href="#m057b81e211" y="221.015539"/>
      </g>
     </g>
     <g id="text_9">
      <!-- 0.01 -->
      <g transform="translate(42.734375 224.814758)scale(0.1 -0.1)">
       <use xlink:href="#DejaVuSans-48"/>
       <use x="63.623047" xlink:href="#DejaVuSans-46"/>
       <use x="95.410156" xlink:href="#DejaVuSans-48"/>
       <use x="159.033203" xlink:href="#DejaVuSans-49"/>
      </g>
     </g>
    </g>
    <g id="ytick_3">
     <g id="line2d_9">
      <g>
       <use style="stroke:#000000;stroke-width:0.8;" x="72" xlink:href="#m057b81e211" y="185.667236"/>
      </g>
     </g>
     <g id="text_10">
      <!-- 0.1 -->
      <g transform="translate(49.096875 189.466455)scale(0.1 -0.1)">
       <use xlink:href="#DejaVuSans-48"/>
       <use x="63.623047" xlink:href="#DejaVuSans-46"/>
       <use x="95.410156" xlink:href="#DejaVuSans-49"/>
      </g>
     </g>
    </g>
    <g id="ytick_4">
     <g id="line2d_10">
      <g>
       <use style="stroke:#000000;stroke-width:0.8;" x="72" xlink:href="#m057b81e211" y="150.318933"/>
      </g>
     </g>
     <g id="text_11">
      <!-- 1 -->
      <g transform="translate(58.6375 154.118152)scale(0.1 -0.1)">
       <use xlink:href="#DejaVuSans-49"/>
      </g>
     </g>
    </g>
    <g id="ytick_5">
     <g id="line2d_11">
      <g>
       <use style="stroke:#000000;stroke-width:0.8;" x="72" xlink:href="#m057b81e211" y="114.97063"/>
      </g>
     </g>
     <g id="text_12">
      <!-- 10 -->
      <g transform="translate(52.275 118.769849)scale(0.1 -0.1)">
       <use xlink:href="#DejaVuSans-49"/>
       <use x="63.623047" xlink:href="#DejaVuSans-48"/>
      </g>
     </g>
    </g>
    <g id="ytick_6">
     <g id="line2d_12">
      <g>
       <use style="stroke:#000000;stroke-width:0.8;" x="72" xlink:href="#m057b81e211" y="79.622327"/>
      </g>
     </g>
     <g id="text_13">
      <!-- 100 -->
      <g transform="translate(45.9125 83.421545)scale(0.1 -0.1)">
       <use xlink:href="#DejaVuSans-49"/>
       <use x="63.623047" xlink:href="#DejaVuSans-48"/>
       <use x="127.246094" xlink:href="#DejaVuSans-48"/>
      </g>
     </g>
    </g>
    <g id="ytick_7">
     <g id="line2d_13">
      <g>
       <use style="stroke:#000000;stroke-width:0.8;" x="72" xlink:href="#m057b81e211" y="44.274023"/>
      </g>
     </g>
     <g id="text_14">
      <!-- 1000 -->
      <g transform="translate(39.55 48.073242)scale(0.1 -0.1)">
       <use xlink:href="#DejaVuSans-49"/>
       <use x="63.623047" xlink:href="#DejaVuSans-48"/>
       <use x="127.246094" xlink:href="#DejaVuSans-48"/>
       <use x="190.869141" xlink:href="#DejaVuSans-48"/>
      </g>
     </g>
    </g>
    <g id="ytick_8">
     <g id="line2d_14">
      <defs>
       <path d="M 0 0 
L -2 0 
" id="m9f5f28c545" style="stroke:#000000;stroke-width:0.6;"/>
      </defs>
      <g>
       <use style="stroke:#000000;stroke-width:0.6;" x="72" xlink:href="#m9f5f28c545" y="245.722943"/>
      </g>
     </g>
    </g>
    <g id="ytick_9">
     <g id="line2d_15">
      <g>
       <use style="stroke:#000000;stroke-width:0.6;" x="72" xlink:href="#m9f5f28c545" y="239.498416"/>
      </g>
     </g>
    </g>
    <g id="ytick_10">
     <g id="line2d_16">
      <g>
       <use style="stroke:#000000;stroke-width:0.6;" x="72" xlink:href="#m9f5f28c545" y="235.082043"/>
      </g>
     </g>
    </g>
    <g id="ytick_11">
     <g id="line2d_17">
      <g>
       <use style="stroke:#000000;stroke-width:0.6;" x="72" xlink:href="#m9f5f28c545" y="231.656439"/>
      </g>
     </g>
    </g>
    <g id="ytick_12">
     <g id="line2d_18">
      <g>
       <use style="stroke:#000000;stroke-width:0.6;" x="72" xlink:href="#m9f5f28c545" y="228.857516"/>
      </g>
     </g>
    </g>
    <g id="ytick_13">
     <g id="line2d_19">
      <g>
       <use style="stroke:#000000;stroke-width:0.6;" x="72" xlink:href="#m9f5f28c545" y="226.491061"/>
      </g>
     </g>
    </g>
    <g id="ytick_14">
     <g id="line2d_20">
      <g>
       <use style="stroke:#000000;stroke-width:0.6;" x="72" xlink:href="#m9f5f28c545" y="224.441144"/>
      </g>
     </g>
    </g>
    <g id="ytick_15">
     <g id="line2d_21">
      <g>
       <use style="stroke:#000000;stroke-width:0.6;" x="72" xlink:href="#m9f5f28c545" y="222.632989"/>
      </g>
     </g>
    </g>
    <g id="ytick_16">
     <g id="line2d_22">
      <g>
       <use style="stroke:#000000;stroke-width:0.6;" x="72" xlink:href="#m9f5f28c545" y="210.37464"/>
      </g>
     </g>
    </g>
    <g id="ytick_17">
     <g id="line2d_23">
      <g>
       <use style="stroke:#000000;stroke-width:0.6;" x="72" xlink:href="#m9f5f28c545" y="204.150113"/>
      </g>
     </g>
    </g>
    <g id="ytick_18">
     <g id="line2d_24">
      <g>
       <use style="stroke:#000000;stroke-width:0.6;" x="72" xlink:href="#m9f5f28c545" y="199.73374"/>
      </g>
     </g>
    </g>
    <g id="ytick_19">
     <g id="line2d_25">
      <g>
       <use style="stroke:#000000;stroke-width:0.6;" x="72" xlink:href="#m9f5f28c545" y="196.308136"/>
      </g>
     </g>
    </g>
    <g id="ytick_20">
     <g id="line2d_26">
      <g>
       <use style="stroke:#000000;stroke-width:0.6;" x="72" xlink:href="#m9f5f28c545" y="193.509213"/>
      </g>
     </g>
    </g>
    <g id="ytick_21">
     <g id="line2d_27">
      <g>
       <use style="stroke:#000000;stroke-width:0.6;" x="72" xlink:href="#m9f5f28c545" y="191.142758"/>
      </g>
     </g>
    </g>
    <g id="ytick_22">
     <g id="line2d_28">
      <g>
       <use style="stroke:#000000;stroke-width:0.6;" x="72" xlink:href="#m9f5f28c545" y="189.092841"/>
      </g>
     </g>
    </g>
    <g id="ytick_23">
     <g id="line2d_29">
      <g>
       <use style="stroke:#000000;stroke-width:0.6;" x="72" xlink:href="#m9f5f28c545" y="187.284686"/>
      </g>
     </g>
    </g>
    <g id="ytick_24">
     <g id="line2d_30">
      <g>
       <use style="stroke:#000000;stroke-width:0.6;" x="72" xlink:href="#m9f5f28c545" y="175.026337"/>
      </g>
     </g>
    </g>
    <g id="ytick_25">
     <g id="line2d_31">
      <g>
       <use style="stroke:#000000;stroke-width:0.6;" x="72" xlink:href="#m9f5f28c545" y="168.801809"/>
      </g>
     </g>
    </g>
    <g id="ytick_26">
     <g id="line2d_32">
      <g>
       <use style="stroke:#000000;stroke-width:0.6;" x="72" xlink:href="#m9f5f28c545" y="164.385437"/>
      </g>
     </g>
    </g>
    <g id="ytick_27">
     <g id="line2d_33">
      <g>
       <use style="stroke:#000000;stroke-width:0.6;" x="72" xlink:href="#m9f5f28c545" y="160.959833"/>
      </g>
     </g>
    </g>
    <g id="ytick_28">
     <g id="line2d_34">
      <g>
       <use style="stroke:#000000;stroke-width:0.6;" x="72" xlink:href="#m9f5f28c545" y="158.16091"/>
      </g>
     </g>
    </g>
    <g id="ytick_29">
     <g id="line2d_35">
      <g>
       <use style="stroke:#000000;stroke-width:0.6;" x="72" xlink:href="#m9f5f28c545" y="155.794454"/>
      </g>
     </g>
    </g>
    <g id="ytick_30">
     <g id="line2d_36">
      <g>
       <use style="stroke:#000000;stroke-width:0.6;" x="72" xlink:href="#m9f5f28c545" y="153.744538"/>
      </g>
     </g>
    </g>
    <g id="ytick_31">
     <g id="line2d_37">
      <g>
       <use style="stroke:#000000;stroke-width:0.6;" x="72" xlink:href="#m9f5f28c545" y="151.936383"/>
      </g>
     </g>
    </g>
    <g id="ytick_32">
     <g id="line2d_38">
      <g>
       <use style="stroke:#000000;stroke-width:0.6;" x="72" xlink:href="#m9f5f28c545" y="139.678033"/>
      </g>
     </g>
    </g>
    <g id="ytick_33">
     <g id="line2d_39">
      <g>
       <use style="stroke:#000000;stroke-width:0.6;" x="72" xlink:href="#m9f5f28c545" y="133.453506"/>
      </g>
     </g>
    </g>
    <g id="ytick_34">
     <g id="line2d_40">
      <g>
       <use style="stroke:#000000;stroke-width:0.6;" x="72" xlink:href="#m9f5f28c545" y="129.037134"/>
      </g>
     </g>
    </g>
    <g id="ytick_35">
     <g id="line2d_41">
      <g>
       <use style="stroke:#000000;stroke-width:0.6;" x="72" xlink:href="#m9f5f28c545" y="125.611529"/>
      </g>
     </g>
    </g>
    <g id="ytick_36">
     <g id="line2d_42">
      <g>
       <use style="stroke:#000000;stroke-width:0.6;" x="72" xlink:href="#m9f5f28c545" y="122.812607"/>
      </g>
     </g>
    </g>
    <g id="ytick_37">
     <g id="line2d_43">
      <g>
       <use style="stroke:#000000;stroke-width:0.6;" x="72" xlink:href="#m9f5f28c545" y="120.446151"/>
      </g>
     </g>
    </g>
    <g id="ytick_38">
     <g id="line2d_44">
      <g>
       <use style="stroke:#000000;stroke-width:0.6;" x="72" xlink:href="#m9f5f28c545" y="118.396234"/>
      </g>
     </g>
    </g>
    <g id="ytick_39">
     <g id="line2d_45">
      <g>
       <use style="stroke:#000000;stroke-width:0.6;" x="72" xlink:href="#m9f5f28c545" y="116.588079"/>
      </g>
     </g>
    </g>
    <g id="ytick_40">
     <g id="line2d_46">
      <g>
       <use style="stroke:#000000;stroke-width:0.6;" x="72" xlink:href="#m9f5f28c545" y="104.32973"/>
      </g>
     </g>
    </g>
    <g id="ytick_41">
     <g id="line2d_47">
      <g>
       <use style="stroke:#000000;stroke-width:0.6;" x="72" xlink:href="#m9f5f28c545" y="98.105203"/>
      </g>
     </g>
    </g>
    <g id="ytick_42">
     <g id="line2d_48">
      <g>
       <use style="stroke:#000000;stroke-width:0.6;" x="72" xlink:href="#m9f5f28c545" y="93.688831"/>
      </g>
     </g>
    </g>
    <g id="ytick_43">
     <g id="line2d_49">
      <g>
       <use style="stroke:#000000;stroke-width:0.6;" x="72" xlink:href="#m9f5f28c545" y="90.263226"/>
      </g>
     </g>
    </g>
    <g id="ytick_44">
     <g id="line2d_50">
      <g>
       <use style="stroke:#000000;stroke-width:0.6;" x="72" xlink:href="#m9f5f28c545" y="87.464303"/>
      </g>
     </g>
    </g>
    <g id="ytick_45">
     <g id="line2d_51">
      <g>
       <use style="stroke:#000000;stroke-width:0.6;" x="72" xlink:href="#m9f5f28c545" y="85.097848"/>
      </g>
     </g>
    </g>
    <g id="ytick_46">
     <g id="line2d_52">
      <g>
       <use style="stroke:#000000;stroke-width:0.6;" x="72" xlink:href="#m9f5f28c545" y="83.047931"/>
      </g>
     </g>
    </g>
    <g id="ytick_47">
     <g id="line2d_53">
      <g>
       <use style="stroke:#000000;stroke-width:0.6;" x="72" xlink:href="#m9f5f28c545" y="81.239776"/>
      </g>
     </g>
    </g>
    <g id="ytick_48">
     <g id="line2d_54">
      <g>
       <use style="stroke:#000000;stroke-width:0.6;" x="72" xlink:href="#m9f5f28c545" y="68.981427"/>
      </g>
     </g>
    </g>
    <g id="ytick_49">
     <g id="line2d_55">
      <g>
       <use style="stroke:#000000;stroke-width:0.6;" x="72" xlink:href="#m9f5f28c545" y="62.7569"/>
      </g>
     </g>
    </g>
    <g id="ytick_50">
     <g id="line2d_56">
      <g>
       <use style="stroke:#000000;stroke-width:0.6;" x="72" xlink:href="#m9f5f28c545" y="58.340527"/>
      </g>
     </g>
    </g>
    <g id="ytick_51">
     <g id="line2d_57">
      <g>
       <use style="stroke:#000000;stroke-width:0.6;" x="72" xlink:href="#m9f5f28c545" y="54.914923"/>
      </g>
     </g>
    </g>
    <g id="ytick_52">
     <g id="line2d_58">
      <g>
       <use style="stroke:#000000;stroke-width:0.6;" x="72" xlink:href="#m9f5f28c545" y="52.116"/>
      </g>
     </g>
    </g>
    <g id="ytick_53">
     <g id="line2d_59">
      <g>
       <use style="stroke:#000000;stroke-width:0.6;" x="72" xlink:href="#m9f5f28c545" y="49.749545"/>
      </g>
     </g>
    </g>
    <g id="ytick_54">
     <g id="line2d_60">
      <g>
       <use style="stroke:#000000;stroke-width:0.6;" x="72" xlink:href="#m9f5f28c545" y="47.699628"/>
      </g>
     </g>
    </g>
    <g id="ytick_55">
     <g id="line2d_61">
      <g>
       <use style="stroke:#000000;stroke-width:0.6;" x="72" xlink:href="#m9f5f28c545" y="45.891473"/>
      </g>
     </g>
    </g>
    <g id="text_15">
     <!-- цена -->
     <defs>
      <path d="M 56.203125 29.59375 
L 56.203125 25.203125 
L 14.890625 25.203125 
Q 15.484375 15.921875 20.484375 11.0625 
Q 25.484375 6.203125 34.421875 6.203125 
Q 39.59375 6.203125 44.453125 7.46875 
Q 49.3125 8.734375 54.109375 11.28125 
L 54.109375 2.78125 
Q 49.265625 0.734375 44.1875 -0.34375 
Q 39.109375 -1.421875 33.890625 -1.421875 
Q 20.796875 -1.421875 13.15625 6.1875 
Q 5.515625 13.8125 5.515625 26.8125 
Q 5.515625 40.234375 12.765625 48.109375 
Q 20.015625 56 32.328125 56 
Q 43.359375 56 49.78125 48.890625 
Q 56.203125 41.796875 56.203125 29.59375 
z
M 47.21875 32.234375 
Q 47.125 39.59375 43.09375 43.984375 
Q 39.0625 48.390625 32.421875 48.390625 
Q 24.90625 48.390625 20.390625 44.140625 
Q 15.875 39.890625 15.1875 32.171875 
z
" id="DejaVuSans-1077"/>
      <path d="M 9.078125 54.6875 
L 18.109375 54.6875 
L 18.109375 32.375 
L 47.265625 32.375 
L 47.265625 54.6875 
L 56.296875 54.6875 
L 56.296875 0 
L 47.265625 0 
L 47.265625 25.203125 
L 18.109375 25.203125 
L 18.109375 0 
L 9.078125 0 
z
" id="DejaVuSans-1085"/>
     </defs>
     <g transform="translate(30.292188 158.2525)rotate(-90)scale(0.1 -0.1)">
      <use xlink:href="#DejaVuSans-1094"/>
      <use x="68.066406" xlink:href="#DejaVuSans-1077"/>
      <use x="129.589844" xlink:href="#DejaVuSans-1085"/>
      <use x="194.970703" xlink:href="#DejaVuSans-1072"/>
     </g>
    </g>
   </g>
   <g id="line2d_62">
    <path clip-path="url(#pba2f985936)" d="M 92.290909 203.076691 
L 92.453253 197.595154 
L 92.493838 197.437097 
L 92.818525 192.746885 
L 92.980869 192.191362 
L 93.021455 192.113444 
L 93.183798 191.331176 
L 93.427314 190.52862 
L 93.833172 188.853676 
L 93.995516 188.654148 
L 94.239031 187.698717 
L 94.360789 187.512382 
L 96.268325 185.427476 
L 96.471254 185.006668 
L 96.71477 184.438717 
L 96.755356 184.430562 
L 96.958285 183.8279 
L 97.080043 183.712486 
L 97.282972 183.440475 
L 97.364144 183.326828 
L 97.770002 182.900413 
L 97.972932 182.537751 
L 98.175861 182.41544 
L 98.541134 181.923825 
L 99.028165 181.584996 
L 99.474609 181.243017 
L 99.677539 181.090842 
L 100.286327 180.720139 
L 100.489256 180.560348 
L 101.747418 179.792166 
L 101.909762 179.706476 
L 102.112691 179.581898 
L 102.640308 179.257222 
L 103.046166 179.042081 
L 103.20851 178.933835 
L 103.492611 178.753126 
L 103.776712 178.617902 
L 104.141985 178.306607 
L 104.182571 178.305211 
L 104.344914 178.135742 
L 104.791359 177.901158 
L 105.237804 177.721027 
L 105.96835 177.30403 
L 106.252451 177.185479 
L 106.942411 176.909409 
L 107.14534 176.844528 
L 107.794714 176.664555 
L 109.418149 175.951108 
L 111.163342 175.374216 
L 111.366271 175.252633 
L 113.963767 174.332471 
L 114.166697 174.241884 
L 115.627788 174.00646 
L 115.871303 173.922126 
L 116.236576 173.7935 
L 116.39892 173.73562 
L 118.144113 173.300249 
L 118.915244 173.166776 
L 119.199345 173.048813 
L 120.33575 172.703951 
L 120.782195 172.580932 
L 122.40563 172.069628 
L 122.89266 171.938396 
L 123.217347 171.803294 
L 123.988479 171.65209 
L 127.51945 170.885347 
L 128.047067 170.770772 
L 128.452925 170.645482 
L 129.183471 170.50731 
L 130.07636 170.354017 
L 130.847492 170.227355 
L 131.983897 170.008477 
L 132.917372 169.87209 
L 133.729089 169.729587 
L 134.134948 169.609568 
L 135.109009 169.458915 
L 136.164242 169.254248 
L 146.554226 167.28406 
L 147.365944 167.172723 
L 148.218247 167.030124 
L 151.789804 166.406773 
L 153.372654 166.258126 
L 154.346715 166.104939 
L 155.604877 165.888207 
L 158.080615 165.509365 
L 158.811161 165.377303 
L 159.582293 165.262555 
L 160.312839 165.176904 
L 161.611587 164.996397 
L 162.910335 164.803936 
L 163.722052 164.694341 
L 164.574356 164.569065 
L 165.954275 164.403836 
L 166.319548 164.360003 
L 167.537125 164.162979 
L 170.012863 163.731881 
L 171.473955 163.567987 
L 172.935046 163.317932 
L 173.746764 163.178771 
L 174.355552 163.099173 
L 177.277735 162.604153 
L 178.495311 162.438496 
L 199.802897 159.859518 
L 201.101645 159.734764 
L 201.913362 159.636693 
L 203.293282 159.515996 
L 205.200818 159.259804 
L 205.566091 159.215367 
L 207.635971 159.023055 
L 210.152295 158.671017 
L 211.410457 158.552158 
L 212.506276 158.414759 
L 216.077833 158.046503 
L 216.930137 157.921463 
L 218.025955 157.805408 
L 218.269471 157.764552 
L 219.730562 157.62455 
L 220.461108 157.540949 
L 221.638098 157.423357 
L 223.748564 157.212445 
L 277.200164 152.040209 
L 278.742427 151.862195 
L 302.201064 149.701655 
L 302.972195 149.590683 
L 310.683512 148.794839 
L 311.170543 148.725691 
L 313.36218 148.554261 
L 314.660928 148.421961 
L 336.049685 146.362379 
L 336.658473 146.322207 
L 341.528778 145.8649 
L 341.894051 145.842374 
L 342.827526 145.731833 
L 350.579429 144.994223 
L 352.486965 144.822859 
L 352.973996 144.779948 
L 360.035938 143.987752 
L 362.024646 143.837404 
L 364.419213 143.548665 
L 365.474446 143.427981 
L 381.87114 141.636368 
L 387.959021 140.908162 
L 391.61175 140.549695 
L 393.316357 140.386245 
L 395.913853 140.097728 
L 396.725571 139.980385 
L 397.699632 139.864962 
L 398.267834 139.80381 
L 399.525996 139.685559 
L 400.256542 139.597606 
L 408.292546 138.591803 
L 408.820162 138.503693 
L 410.362425 138.311568 
L 410.890042 138.244839 
L 412.107618 138.128433 
L 412.391719 138.058221 
L 413.933982 137.859746 
L 414.421013 137.804777 
L 415.192145 137.678214 
L 415.395074 137.629754 
L 420.630652 136.888194 
L 420.955339 136.818617 
L 422.944047 136.618705 
L 424.526896 136.405498 
L 425.906816 136.257197 
L 426.312675 136.188587 
L 427.205564 136.059553 
L 431.832354 135.390087 
L 433.293446 135.188437 
L 433.536961 135.134257 
L 435.363325 134.837508 
L 435.566255 134.791792 
L 436.175043 134.67708 
L 438.407266 134.419144 
L 439.300155 134.202692 
L 444.129875 133.281716 
L 444.535734 133.155192 
L 445.834482 132.94239 
L 446.037411 132.89482 
L 447.052058 132.716166 
L 449.406039 132.369376 
L 450.055413 132.256343 
L 450.745373 132.14469 
L 453.018182 131.737683 
L 454.80396 131.403101 
L 455.331577 131.257243 
L 456.143294 131.127079 
L 456.549153 131.06009 
L 456.995598 130.956766 
L 457.198527 130.886797 
L 458.334932 130.67931 
L 458.781376 130.557509 
L 459.106063 130.474724 
L 459.877195 130.322542 
L 461.0136 130.078681 
L 461.460044 129.92781 
L 462.068832 129.743839 
L 463.124065 129.54159 
L 463.36758 129.483783 
L 464.138712 129.272096 
L 464.95043 129.0617 
L 465.43746 128.925963 
L 466.81738 128.601336 
L 471.038311 127.623433 
L 471.565928 127.388662 
L 472.13413 127.217207 
L 472.661746 126.893278 
L 473.676393 126.574769 
L 473.960494 126.496354 
L 474.609868 126.299854 
L 475.096899 126.165969 
L 475.502758 126.058404 
L 475.665101 125.943413 
L 475.989788 125.822674 
L 477.856738 125.224069 
L 484.066378 122.574744 
L 484.309893 122.482215 
L 484.715752 122.341083 
L 485.933328 121.629736 
L 486.136257 121.525789 
L 486.582702 121.259025 
L 486.745045 121.073732 
L 488.652582 119.736967 
L 488.855511 119.646565 
L 489.220784 119.39259 
L 489.464299 119.126579 
L 489.626643 118.980335 
L 490.235431 118.674524 
L 490.397774 118.473413 
L 490.763047 118.153547 
L 491.047148 117.873584 
L 492.50824 116.594678 
L 492.711169 116.216282 
L 494.37519 114.310686 
L 494.537534 114.019592 
L 494.618706 113.838122 
L 494.862221 113.236153 
L 494.943393 113.181253 
L 495.471009 112.012694 
L 495.633352 111.857961 
L 495.673938 111.806019 
L 495.917454 111.034632 
L 496.039211 110.907574 
L 496.201555 110.511622 
L 496.404484 109.912546 
L 496.526242 109.83634 
L 496.850929 108.929727 
L 496.891515 108.907814 
L 497.053858 108.379972 
L 497.094444 108.337025 
L 497.946747 100.401104 
L 498.109091 92.832531 
L 498.109091 92.832531 
" style="fill:none;stroke:#1f77b4;stroke-linecap:square;stroke-width:1.5;"/>
   </g>
   <g id="line2d_63">
    <path clip-path="url(#pba2f985936)" d="M 92.290909 203.076691 
L 92.453253 197.595154 
L 92.493838 197.437097 
L 92.818525 192.746885 
L 92.980869 192.191362 
L 93.021455 192.113444 
L 93.183798 191.331176 
L 93.427314 190.52862 
L 93.833172 188.853676 
L 93.995516 188.654148 
L 94.239031 187.698717 
L 94.360789 187.512382 
L 96.268325 185.427476 
L 96.471254 185.006668 
L 96.71477 184.438717 
L 96.755356 184.430562 
L 96.958285 183.8279 
L 97.080043 183.712486 
L 97.282972 183.440475 
L 97.364144 183.326828 
L 97.770002 182.900413 
L 97.972932 182.537751 
L 98.175861 182.41544 
L 98.541134 181.923825 
L 99.028165 181.584996 
L 99.474609 181.243017 
L 99.677539 181.090842 
L 100.286327 180.720139 
L 100.489256 180.560348 
L 101.747418 179.792166 
L 101.909762 179.706476 
L 102.112691 179.581898 
L 102.640308 179.257222 
L 103.046166 179.042081 
L 103.20851 178.933835 
L 103.492611 178.753126 
L 103.776712 178.617902 
L 104.141985 178.306607 
L 104.182571 178.305211 
L 104.344914 178.135742 
L 104.791359 177.901158 
L 105.237804 177.721027 
L 105.96835 177.30403 
L 106.252451 177.185479 
L 106.942411 176.909409 
L 107.14534 176.844528 
L 107.794714 176.664555 
L 109.418149 175.951108 
L 111.163342 175.374216 
L 111.366271 175.252633 
L 113.963767 174.332471 
L 114.166697 174.241884 
L 115.627788 174.00646 
L 115.871303 173.922126 
L 116.236576 173.7935 
L 116.39892 173.73562 
L 118.144113 173.300249 
L 118.915244 173.166776 
L 119.199345 173.048813 
L 120.33575 172.703951 
L 120.782195 172.580932 
L 122.40563 172.069628 
L 122.89266 171.938396 
L 123.217347 171.803294 
L 123.988479 171.65209 
L 127.51945 170.885347 
L 128.047067 170.770772 
L 128.452925 170.645482 
L 129.183471 170.50731 
L 130.07636 170.354017 
L 130.847492 170.227355 
L 131.983897 170.008477 
L 132.917372 169.87209 
L 133.729089 169.729587 
L 134.134948 169.609568 
L 135.109009 169.458915 
L 136.164242 169.254248 
L 146.554226 167.28406 
L 147.365944 167.172723 
L 148.218247 167.030124 
L 151.789804 166.406773 
L 153.372654 166.258126 
L 154.346715 166.104939 
L 155.604877 165.888207 
L 158.080615 165.509365 
L 158.811161 165.377303 
L 159.582293 165.262555 
L 160.312839 165.176904 
L 161.611587 164.996397 
L 162.910335 164.803936 
L 163.722052 164.694341 
L 164.574356 164.569065 
L 165.954275 164.403836 
L 166.319548 164.360003 
L 167.537125 164.162979 
L 170.012863 163.731881 
L 171.473955 163.567987 
L 172.935046 163.317932 
L 173.746764 163.178771 
L 174.355552 163.099173 
L 177.277735 162.604153 
L 178.495311 162.438496 
L 199.802897 159.859518 
L 201.101645 159.734764 
L 201.913362 159.636693 
L 203.293282 159.515996 
L 205.200818 159.259804 
L 205.566091 159.215367 
L 207.635971 159.023055 
L 210.152295 158.671017 
L 211.410457 158.552158 
L 212.506276 158.414759 
L 216.077833 158.046503 
L 216.930137 157.921463 
L 218.025955 157.805408 
L 218.269471 157.764552 
L 219.730562 157.62455 
L 220.461108 157.540949 
L 221.638098 157.423357 
L 223.748564 157.212445 
L 277.200164 152.040209 
L 278.742427 151.862195 
L 302.201064 149.701655 
L 302.972195 149.590683 
L 310.683512 148.794839 
L 311.170543 148.725691 
L 313.36218 148.554261 
L 314.660928 148.421961 
L 336.049685 146.362379 
L 336.658473 146.322207 
L 341.528778 145.8649 
L 341.894051 145.842374 
L 342.827526 145.731833 
L 350.579429 144.994223 
L 352.486965 144.822859 
L 352.973996 144.779948 
L 360.035938 143.987752 
L 362.024646 143.837404 
L 364.419213 143.548665 
L 365.474446 143.427981 
L 381.87114 141.636368 
L 387.959021 140.908162 
L 391.61175 140.549695 
L 393.316357 140.386245 
L 395.913853 140.097728 
L 396.725571 139.980385 
L 397.699632 139.864962 
L 398.267834 139.80381 
L 399.525996 139.685559 
L 400.256542 139.597606 
L 408.292546 138.591803 
L 408.820162 138.503693 
L 410.362425 138.311568 
L 410.890042 138.244839 
L 412.107618 138.128433 
L 412.391719 138.058221 
L 413.933982 137.859746 
L 414.421013 137.804777 
L 415.192145 137.678214 
L 415.395074 137.629754 
L 420.630652 136.888194 
L 420.955339 136.818617 
L 422.944047 136.618705 
L 424.526896 136.405498 
L 425.906816 136.257197 
L 426.312675 136.188587 
L 427.205564 136.059553 
L 431.832354 135.390087 
L 433.293446 135.188437 
L 433.536961 135.134257 
L 435.363325 134.837508 
L 435.566255 134.791792 
L 436.175043 134.67708 
L 438.407266 134.419144 
L 439.300155 134.202692 
L 444.129875 133.281716 
L 444.535734 133.155192 
L 445.834482 132.94239 
L 446.037411 132.89482 
L 447.052058 132.716166 
L 449.406039 132.369376 
L 450.055413 132.256343 
L 450.745373 132.14469 
L 453.018182 131.737683 
L 454.80396 131.403101 
L 455.331577 131.257243 
L 456.143294 131.127079 
L 456.549153 131.06009 
L 456.995598 130.956766 
L 457.198527 130.886797 
L 458.334932 130.67931 
L 458.781376 130.557509 
L 459.106063 130.474724 
L 459.877195 130.322542 
L 461.0136 130.078681 
L 461.460044 129.92781 
L 462.068832 129.743839 
L 463.124065 129.54159 
L 463.36758 129.483783 
L 464.138712 129.272096 
L 464.95043 129.0617 
L 465.43746 128.925963 
L 466.81738 128.601336 
L 471.038311 127.623433 
L 471.565928 127.388662 
L 472.13413 127.217207 
L 472.661746 126.893278 
L 473.676393 126.574769 
L 473.960494 126.496354 
L 474.609868 126.299854 
L 475.096899 126.165969 
L 475.502758 126.058404 
L 475.665101 125.943413 
L 475.989788 125.822674 
L 477.856738 125.224069 
L 484.066378 122.574744 
L 484.309893 122.482215 
L 484.715752 122.341083 
L 485.933328 121.629736 
L 486.136257 121.525789 
L 486.582702 121.259025 
L 486.745045 121.073732 
L 488.652582 119.736967 
L 488.855511 119.646565 
L 489.220784 119.39259 
L 489.464299 119.126579 
L 489.626643 118.980335 
L 490.235431 118.674524 
L 490.397774 118.473413 
L 490.763047 118.153547 
L 491.047148 117.873584 
L 492.50824 116.594678 
L 492.711169 116.216282 
L 494.37519 114.310686 
L 494.537534 114.019592 
L 494.618706 113.838122 
L 494.862221 113.236153 
L 494.943393 113.181253 
L 495.471009 112.012694 
L 495.633352 111.857961 
L 495.673938 111.806019 
L 495.917454 111.034632 
L 496.039211 110.907574 
L 496.201555 110.511622 
L 496.404484 109.912546 
L 496.526242 109.83634 
L 496.850929 108.929727 
L 496.891515 108.907814 
L 497.053858 108.379972 
L 497.094444 108.337025 
L 497.946747 100.401104 
L 498.109091 92.832531 
L 498.109091 92.832531 
" style="fill:none;stroke:#ff7f0e;stroke-linecap:square;stroke-width:1.5;"/>
   </g>
   <g id="line2d_64">
    <path clip-path="url(#pba2f985936)" d="M 92.290909 246.24 
L 92.453253 234.467658 
L 92.696768 227.55964 
L 93.102627 224.356698 
L 93.305556 223.695038 
L 93.508485 221.618353 
L 93.711415 220.206994 
L 93.914344 219.184026 
L 94.076688 217.716716 
L 94.888405 215.167964 
L 95.050749 214.495728 
L 95.091335 214.478029 
L 95.253678 214.010702 
L 95.294264 213.99584 
L 95.497193 212.870294 
L 96.02481 211.076481 
L 96.268325 210.684238 
L 96.349497 210.569561 
L 96.593012 209.549487 
L 96.958285 208.899745 
L 96.998871 208.885664 
L 97.161214 208.429512 
L 97.242386 208.299322 
L 97.607659 207.482165 
L 97.770002 207.325872 
L 97.89176 207.220977 
L 98.054104 206.712644 
L 98.257033 206.488587 
L 98.459962 205.95336 
L 98.58172 205.778119 
L 99.393438 204.405168 
L 99.636953 204.26466 
L 99.839882 204.086337 
L 100.245741 203.660934 
L 100.44867 203.507712 
L 100.935701 203.178088 
L 101.098044 202.861921 
L 101.219802 202.815166 
L 101.382145 202.528771 
L 101.585075 202.436485 
L 101.706833 202.20032 
L 101.950348 202.067079 
L 102.112691 201.94288 
L 102.234449 201.730768 
L 102.477964 201.457566 
L 102.680894 201.305159 
L 103.533197 200.521028 
L 103.69554 200.416161 
L 104.669602 199.372971 
L 104.872531 199.268719 
L 106.495966 197.597942 
L 106.861239 197.39225 
L 107.023582 197.286578 
L 107.429441 197.063268 
L 107.591785 196.956325 
L 107.8353 196.826957 
L 108.32233 196.576069 
L 108.565846 196.376825 
L 108.809361 196.263275 
L 110.189281 195.537481 
L 110.39221 195.434364 
L 110.879241 195.189012 
L 111.041584 194.970267 
L 111.285099 194.808251 
L 111.731544 194.558134 
L 111.893888 194.467124 
L 112.096817 194.336371 
L 113.354979 193.55271 
L 113.84201 193.33018 
L 114.126111 193.255927 
L 114.450798 193.14989 
L 114.694313 193.051421 
L 117.860011 191.392052 
L 118.022355 191.29305 
L 118.509385 190.996297 
L 119.199345 190.794795 
L 119.483447 190.612049 
L 120.254578 190.09128 
L 120.498093 189.881865 
L 120.741609 189.766126 
L 120.944538 189.696357 
L 121.106882 189.501374 
L 121.71567 189.210729 
L 122.162114 189.038599 
L 122.811488 188.553683 
L 123.014418 188.349512 
L 123.339105 188.234714 
L 123.460862 188.202587 
L 123.58262 188.033604 
L 123.826135 187.976496 
L 124.069651 187.638138 
L 124.556681 187.457167 
L 125.124883 187.145582 
L 125.327813 186.971084 
L 125.571328 186.905991 
L 125.855429 186.650787 
L 126.180116 186.537297 
L 126.585975 186.401679 
L 126.82949 186.262483 
L 128.331168 185.606063 
L 128.818198 185.431466 
L 129.142885 185.335225 
L 129.305229 185.202031 
L 130.441633 184.781202 
L 131.821553 184.297219 
L 132.024482 184.211987 
L 132.633271 184.074527 
L 132.876786 183.970569 
L 132.957958 183.870201 
L 133.323231 183.715845 
L 133.850847 183.545203 
L 134.053776 183.428583 
L 134.378463 183.312985 
L 134.865494 183.188152 
L 135.190181 182.97761 
L 139.167597 181.43463 
L 139.654627 181.27206 
L 139.898143 181.217098 
L 140.182244 181.090906 
L 140.425759 180.988188 
L 141.075133 180.865194 
L 141.521578 180.651453 
L 142.901497 180.163021 
L 143.429114 179.991526 
L 143.875558 179.897951 
L 144.281417 179.749621 
L 144.64669 179.660239 
L 145.093135 179.502379 
L 150.693986 177.690999 
L 150.978087 177.611705 
L 152.114491 177.356208 
L 159.01409 175.406348 
L 159.379363 175.249819 
L 161.043384 174.811635 
L 161.2869 174.750329 
L 163.437951 174.236556 
L 166.360134 173.565758 
L 166.563064 173.454148 
L 167.009508 173.348811 
L 170.662237 172.439623 
L 171.271025 172.217819 
L 171.798642 172.120905 
L 172.245086 172.009639 
L 173.300319 171.811023 
L 173.503249 171.720582 
L 174.193208 171.565242 
L 174.639653 171.456528 
L 175.816643 171.246871 
L 176.466018 171.126448 
L 176.83129 171.019644 
L 179.59113 170.472547 
L 180.443433 170.328289 
L 180.76812 170.26357 
L 182.066869 169.957607 
L 185.881941 169.188099 
L 186.450143 169.07876 
L 193.4715 167.699118 
L 193.836773 167.622502 
L 194.039702 167.553836 
L 194.932591 167.418247 
L 195.257278 167.328918 
L 195.987824 167.208114 
L 199.27528 166.500818 
L 199.96524 166.391641 
L 200.289927 166.303741 
L 200.817544 166.158103 
L 201.953948 165.991084 
L 202.116292 165.91652 
L 202.52215 165.826394 
L 207.35187 164.780392 
L 207.879486 164.66994 
L 208.569446 164.511661 
L 208.894133 164.435224 
L 210.111709 164.182115 
L 210.436396 164.131317 
L 213.967368 163.470761 
L 214.860257 163.322258 
L 215.266116 163.255912 
L 217.011308 162.935179 
L 217.78244 162.809691 
L 218.715915 162.666325 
L 219.64939 162.530274 
L 220.826381 162.288397 
L 221.881614 162.132445 
L 222.40923 162.054134 
L 223.342705 161.876266 
L 223.667392 161.80129 
L 224.560281 161.677224 
L 226.467818 161.331465 
L 227.279535 161.188063 
L 229.917617 160.75251 
L 230.932264 160.644036 
L 231.297537 160.567936 
L 231.987497 160.451451 
L 232.393356 160.393419 
L 233.73269 160.194682 
L 234.21972 160.089919 
L 236.08667 159.805567 
L 236.573701 159.715 
L 238.887096 159.368766 
L 239.130611 159.255278 
L 241.931037 158.771015 
L 250.981687 157.298447 
L 251.915162 157.151229 
L 253.457426 156.887104 
L 253.822699 156.817737 
L 258.246559 156.000204 
L 259.667065 155.739324 
L 259.991752 155.618455 
L 261.655773 155.43212 
L 262.021046 155.363533 
L 262.995107 155.232265 
L 265.876704 154.723524 
L 266.891351 154.580148 
L 267.824826 154.450662 
L 269.042402 154.283728 
L 270.097635 154.15697 
L 272.045757 153.799104 
L 273.872122 153.513728 
L 274.318566 153.41235 
L 275.292627 153.260777 
L 322.940447 145.809062 
L 323.99568 145.661038 
L 324.442124 145.532333 
L 326.187317 145.241228 
L 326.958449 145.075206 
L 328.581884 144.785482 
L 329.474773 144.617474 
L 330.28649 144.464158 
L 330.692349 144.394734 
L 335.035038 143.700856 
L 335.481483 143.630779 
L 336.252614 143.449199 
L 336.658473 143.330966 
L 337.389019 143.21292 
L 338.728353 143.052884 
L 339.54007 142.931072 
L 340.311202 142.768819 
L 351.837591 140.675122 
L 353.176925 140.496847 
L 361.902888 138.887375 
L 362.18699 138.801475 
L 362.714606 138.687272 
L 363.404566 138.573232 
L 363.851011 138.480408 
L 365.190344 138.287706 
L 366.326749 138.137989 
L 368.153113 137.81226 
L 370.020064 137.477437 
L 370.304165 137.412772 
L 372.130529 137.141126 
L 372.861075 136.98817 
L 373.185762 136.933784 
L 375.580329 136.435658 
L 377.000835 136.264631 
L 392.220538 133.420349 
L 392.666983 133.337406 
L 393.600458 133.176819 
L 393.843973 133.084034 
L 394.290418 132.9822 
L 394.493348 132.917557 
L 395.264479 132.793807 
L 396.400884 132.532911 
L 396.644399 132.441658 
L 400.297128 131.721398 
L 400.540643 131.640932 
L 401.392947 131.450387 
L 403.990443 130.883514 
L 404.80216 130.717202 
L 405.857393 130.450087 
L 406.669111 130.240093 
L 406.87204 130.13337 
L 408.820162 129.832535 
L 409.063677 129.791581 
L 409.672465 129.680462 
L 409.956567 129.623365 
L 411.133557 129.409452 
L 411.417658 129.37343 
L 412.513477 129.121168 
L 412.756992 129.076951 
L 413.041093 128.979577 
L 413.284608 128.850358 
L 432.765829 124.315965 
L 433.090516 124.169701 
L 433.618133 123.984904 
L 433.902234 123.923792 
L 434.308093 123.8108 
L 434.511022 123.749788 
L 436.98676 123.195902 
L 437.311448 123.096809 
L 437.514377 123.004641 
L 438.204337 122.843215 
L 438.407266 122.786447 
L 438.731953 122.680174 
L 438.975468 122.584412 
L 439.178398 122.477468 
L 439.381327 122.416859 
L 439.624842 122.329004 
L 439.827772 122.256231 
L 441.938237 121.684237 
L 442.222339 121.576752 
L 447.62026 119.820421 
L 447.82319 119.752084 
L 448.107291 119.651222 
L 448.350806 119.540166 
L 448.919008 119.339518 
L 449.365453 119.210002 
L 449.568382 119.118162 
L 449.974241 118.945554 
L 450.17717 118.859927 
L 450.461272 118.774555 
L 450.704787 118.654242 
L 451.719434 118.40593 
L 453.221111 117.748964 
L 453.424041 117.667952 
L 453.829899 117.552702 
L 454.154586 117.406989 
L 455.250405 117.133138 
L 456.143294 116.792449 
L 456.467981 116.683315 
L 457.5638 116.287313 
L 457.969659 116.147173 
L 459.63368 115.501491 
L 459.958367 115.347245 
L 460.81067 114.965639 
L 461.0136 114.86436 
L 461.216529 114.714706 
L 462.434105 114.26295 
L 464.219884 113.453785 
L 464.463399 113.410481 
L 464.585157 113.298605 
L 465.315702 112.906791 
L 465.680975 112.785079 
L 465.924491 112.708081 
L 466.492693 112.502385 
L 466.857966 112.370341 
L 467.466754 112.119654 
L 470.429523 110.643994 
L 470.875968 110.444853 
L 471.119483 110.271574 
L 475.381 108.201819 
L 475.462172 108.121598 
L 475.665101 107.91111 
L 475.908616 107.838656 
L 476.07096 107.705877 
L 477.653809 106.770573 
L 477.816153 106.636711 
L 480.048376 105.478064 
L 480.738336 105.197878 
L 481.063023 104.956495 
L 482.929973 103.536089 
L 483.782276 102.780406 
L 483.985206 102.594103 
L 484.188135 102.444239 
L 484.350479 102.308193 
L 484.512822 102.063555 
L 484.715752 101.920713 
L 485.405711 101.106667 
L 485.608641 101.008298 
L 485.770984 100.62249 
L 486.055086 100.263133 
L 486.542116 99.529225 
L 486.947975 99.349062 
L 487.232076 99.184537 
L 487.394419 99.047806 
L 487.759692 98.680029 
L 488.490238 97.565972 
L 488.936683 97.248017 
L 489.139612 97.028088 
L 490.194845 95.646103 
L 490.478946 94.930971 
L 490.519532 94.929174 
L 490.681875 94.699755 
L 490.803633 94.524365 
L 490.965977 94.175208 
L 491.087734 94.098738 
L 491.453007 93.321125 
L 491.534179 93.281048 
L 491.737108 92.957258 
L 491.980624 92.767275 
L 492.467654 91.785778 
L 493.360543 89.92431 
L 493.482301 89.590999 
L 493.644644 89.473632 
L 493.766402 88.916699 
L 493.88816 88.826587 
L 494.091089 88.237211 
L 494.294018 87.765161 
L 494.659291 86.2853 
L 494.699877 86.280106 
L 495.552181 83.912796 
L 495.714524 83.79391 
L 496.363898 81.645436 
L 496.566828 79.993553 
L 496.729171 79.419904 
L 496.769757 79.395534 
L 497.013272 77.752452 
L 497.13503 77.450354 
L 497.946747 63.604271 
L 498.109091 44.64 
L 498.109091 44.64 
" style="fill:none;stroke:#2ca02c;stroke-linecap:square;stroke-width:1.5;"/>
   </g>
   <g id="line2d_65">
    <path clip-path="url(#pba2f985936)" d="M 295.220293 256.32 
L 295.220293 34.56 
" style="fill:none;stroke:#808080;stroke-linecap:square;stroke-width:0.3;"/>
   </g>
   <g id="line2d_66">
    <path clip-path="url(#pba2f985936)" d="M 72 150.318933 
L 518.4 150.318933 
" style="fill:none;stroke:#808080;stroke-linecap:square;stroke-width:0.3;"/>
   </g>
   <g id="patch_3">
    <path d="M 72 256.32 
L 72 34.56 
" style="fill:none;stroke:#000000;stroke-linecap:square;stroke-linejoin:miter;stroke-width:0.8;"/>
   </g>
   <g id="patch_4">
    <path d="M 518.4 256.32 
L 518.4 34.56 
" style="fill:none;stroke:#000000;stroke-linecap:square;stroke-linejoin:miter;stroke-width:0.8;"/>
   </g>
   <g id="patch_5">
    <path d="M 72 256.32 
L 518.4 256.32 
" style="fill:none;stroke:#000000;stroke-linecap:square;stroke-linejoin:miter;stroke-width:0.8;"/>
   </g>
   <g id="patch_6">
    <path d="M 72 34.56 
L 518.4 34.56 
" style="fill:none;stroke:#000000;stroke-linecap:square;stroke-linejoin:miter;stroke-width:0.8;"/>
   </g>
   <g id="legend_1">
    <g id="patch_7">
     <path d="M 79 71.91625 
L 145.273438 71.91625 
Q 147.273438 71.91625 147.273438 69.91625 
L 147.273438 41.56 
Q 147.273438 39.56 145.273438 39.56 
L 79 39.56 
Q 77 39.56 77 41.56 
L 77 69.91625 
Q 77 71.91625 79 71.91625 
z
" style="fill:#ffffff;opacity:0.8;stroke:#cccccc;stroke-linejoin:miter;"/>
    </g>
    <g id="line2d_67">
     <path d="M 81 47.658437 
L 101 47.658437 
" style="fill:none;stroke:#ff7f0e;stroke-linecap:square;stroke-width:1.5;"/>
    </g>
    <g id="line2d_68"/>
    <g id="text_16">
     <!-- 10 лет -->
     <defs>
      <path d="M 2.9375 54.6875 
L 55.328125 54.6875 
L 55.328125 47.515625 
L 33.546875 47.515625 
L 33.546875 0 
L 24.703125 0 
L 24.703125 47.515625 
L 2.9375 47.515625 
z
" id="DejaVuSans-1090"/>
     </defs>
     <g transform="translate(109 51.158437)scale(0.1 -0.1)">
      <use xlink:href="#DejaVuSans-49"/>
      <use x="63.623047" xlink:href="#DejaVuSans-48"/>
      <use x="127.246094" xlink:href="#DejaVuSans-32"/>
      <use x="159.033203" xlink:href="#DejaVuSans-1083"/>
      <use x="222.949219" xlink:href="#DejaVuSans-1077"/>
      <use x="284.472656" xlink:href="#DejaVuSans-1090"/>
     </g>
    </g>
    <g id="line2d_69">
     <path d="M 81 62.336562 
L 101 62.336562 
" style="fill:none;stroke:#2ca02c;stroke-linecap:square;stroke-width:1.5;"/>
    </g>
    <g id="line2d_70"/>
    <g id="text_17">
     <!-- 30 лет -->
     <defs>
      <path d="M 40.578125 39.3125 
Q 47.65625 37.796875 51.625 33 
Q 55.609375 28.21875 55.609375 21.1875 
Q 55.609375 10.40625 48.1875 4.484375 
Q 40.765625 -1.421875 27.09375 -1.421875 
Q 22.515625 -1.421875 17.65625 -0.515625 
Q 12.796875 0.390625 7.625 2.203125 
L 7.625 11.71875 
Q 11.71875 9.328125 16.59375 8.109375 
Q 21.484375 6.890625 26.8125 6.890625 
Q 36.078125 6.890625 40.9375 10.546875 
Q 45.796875 14.203125 45.796875 21.1875 
Q 45.796875 27.640625 41.28125 31.265625 
Q 36.765625 34.90625 28.71875 34.90625 
L 20.21875 34.90625 
L 20.21875 43.015625 
L 29.109375 43.015625 
Q 36.375 43.015625 40.234375 45.921875 
Q 44.09375 48.828125 44.09375 54.296875 
Q 44.09375 59.90625 40.109375 62.90625 
Q 36.140625 65.921875 28.71875 65.921875 
Q 24.65625 65.921875 20.015625 65.03125 
Q 15.375 64.15625 9.8125 62.3125 
L 9.8125 71.09375 
Q 15.4375 72.65625 20.34375 73.4375 
Q 25.25 74.21875 29.59375 74.21875 
Q 40.828125 74.21875 47.359375 69.109375 
Q 53.90625 64.015625 53.90625 55.328125 
Q 53.90625 49.265625 50.4375 45.09375 
Q 46.96875 40.921875 40.578125 39.3125 
z
" id="DejaVuSans-51"/>
     </defs>
     <g transform="translate(109 65.836562)scale(0.1 -0.1)">
      <use xlink:href="#DejaVuSans-51"/>
      <use x="63.623047" xlink:href="#DejaVuSans-48"/>
      <use x="127.246094" xlink:href="#DejaVuSans-32"/>
      <use x="159.033203" xlink:href="#DejaVuSans-1083"/>
      <use x="222.949219" xlink:href="#DejaVuSans-1077"/>
      <use x="284.472656" xlink:href="#DejaVuSans-1090"/>
     </g>
    </g>
   </g>
  </g>
 </g>
 <defs>
  <clipPath id="pba2f985936">
   <rect height="221.76" width="446.4" x="72" y="34.56"/>
  </clipPath>
 </defs>
</svg>
