<?xml version="1.0" encoding="utf-8" standalone="no"?>
<!DOCTYPE svg PUBLIC "-//W3C//DTD SVG 1.1//EN"
  "http://www.w3.org/Graphics/SVG/1.1/DTD/svg11.dtd">
<!-- Created with matplotlib (https://matplotlib.org/) -->
<svg height="288pt" version="1.1" viewBox="0 0 576 288" width="576pt" xmlns="http://www.w3.org/2000/svg" xmlns:xlink="http://www.w3.org/1999/xlink">
 <defs>
  <style type="text/css">
*{stroke-linecap:butt;stroke-linejoin:round;}
  </style>
 </defs>
 <g id="figure_1">
  <g id="patch_1">
   <path d="M 0 288 
L 576 288 
L 576 0 
L 0 0 
z
" style="fill:#ffffff;"/>
  </g>
  <g id="axes_1">
   <g id="patch_2">
    <path d="M 72 256.32 
L 518.4 256.32 
L 518.4 34.56 
L 72 34.56 
z
" style="fill:#ffffff;"/>
   </g>
   <g id="matplotlib.axis_1">
    <g id="xtick_1">
     <g id="line2d_1">
      <defs>
       <path d="M 0 0 
L 0 3.5 
" id="ma62d3fadca" style="stroke:#000000;stroke-width:0.8;"/>
      </defs>
      <g>
       <use style="stroke:#000000;stroke-width:0.8;" x="92.290909" xlink:href="#ma62d3fadca" y="256.32"/>
      </g>
     </g>
     <g id="text_1">
      <!-- 0 -->
      <defs>
       <path d="M 31.78125 66.40625 
Q 24.171875 66.40625 20.328125 58.90625 
Q 16.5 51.421875 16.5 36.375 
Q 16.5 21.390625 20.328125 13.890625 
Q 24.171875 6.390625 31.78125 6.390625 
Q 39.453125 6.390625 43.28125 13.890625 
Q 47.125 21.390625 47.125 36.375 
Q 47.125 51.421875 43.28125 58.90625 
Q 39.453125 66.40625 31.78125 66.40625 
z
M 31.78125 74.21875 
Q 44.046875 74.21875 50.515625 64.515625 
Q 56.984375 54.828125 56.984375 36.375 
Q 56.984375 17.96875 50.515625 8.265625 
Q 44.046875 -1.421875 31.78125 -1.421875 
Q 19.53125 -1.421875 13.0625 8.265625 
Q 6.59375 17.96875 6.59375 36.375 
Q 6.59375 54.828125 13.0625 64.515625 
Q 19.53125 74.21875 31.78125 74.21875 
z
" id="DejaVuSans-48"/>
      </defs>
      <g transform="translate(89.109659 270.918437)scale(0.1 -0.1)">
       <use xlink:href="#DejaVuSans-48"/>
      </g>
     </g>
    </g>
    <g id="xtick_2">
     <g id="line2d_2">
      <g>
       <use style="stroke:#000000;stroke-width:0.8;" x="173.462663" xlink:href="#ma62d3fadca" y="256.32"/>
      </g>
     </g>
     <g id="text_2">
      <!-- 20 -->
      <defs>
       <path d="M 19.1875 8.296875 
L 53.609375 8.296875 
L 53.609375 0 
L 7.328125 0 
L 7.328125 8.296875 
Q 12.9375 14.109375 22.625 23.890625 
Q 32.328125 33.6875 34.8125 36.53125 
Q 39.546875 41.84375 41.421875 45.53125 
Q 43.3125 49.21875 43.3125 52.78125 
Q 43.3125 58.59375 39.234375 62.25 
Q 35.15625 65.921875 28.609375 65.921875 
Q 23.96875 65.921875 18.8125 64.3125 
Q 13.671875 62.703125 7.8125 59.421875 
L 7.8125 69.390625 
Q 13.765625 71.78125 18.9375 73 
Q 24.125 74.21875 28.421875 74.21875 
Q 39.75 74.21875 46.484375 68.546875 
Q 53.21875 62.890625 53.21875 53.421875 
Q 53.21875 48.921875 51.53125 44.890625 
Q 49.859375 40.875 45.40625 35.40625 
Q 44.1875 33.984375 37.640625 27.21875 
Q 31.109375 20.453125 19.1875 8.296875 
z
" id="DejaVuSans-50"/>
      </defs>
      <g transform="translate(167.100163 270.918437)scale(0.1 -0.1)">
       <use xlink:href="#DejaVuSans-50"/>
       <use x="63.623047" xlink:href="#DejaVuSans-48"/>
      </g>
     </g>
    </g>
    <g id="xtick_3">
     <g id="line2d_3">
      <g>
       <use style="stroke:#000000;stroke-width:0.8;" x="254.634416" xlink:href="#ma62d3fadca" y="256.32"/>
      </g>
     </g>
     <g id="text_3">
      <!-- 40 -->
      <defs>
       <path d="M 37.796875 64.3125 
L 12.890625 25.390625 
L 37.796875 25.390625 
z
M 35.203125 72.90625 
L 47.609375 72.90625 
L 47.609375 25.390625 
L 58.015625 25.390625 
L 58.015625 17.1875 
L 47.609375 17.1875 
L 47.609375 0 
L 37.796875 0 
L 37.796875 17.1875 
L 4.890625 17.1875 
L 4.890625 26.703125 
z
" id="DejaVuSans-52"/>
      </defs>
      <g transform="translate(248.271916 270.918437)scale(0.1 -0.1)">
       <use xlink:href="#DejaVuSans-52"/>
       <use x="63.623047" xlink:href="#DejaVuSans-48"/>
      </g>
     </g>
    </g>
    <g id="xtick_4">
     <g id="line2d_4">
      <g>
       <use style="stroke:#000000;stroke-width:0.8;" x="335.80617" xlink:href="#ma62d3fadca" y="256.32"/>
      </g>
     </g>
     <g id="text_4">
      <!-- 60 -->
      <defs>
       <path d="M 33.015625 40.375 
Q 26.375 40.375 22.484375 35.828125 
Q 18.609375 31.296875 18.609375 23.390625 
Q 18.609375 15.53125 22.484375 10.953125 
Q 26.375 6.390625 33.015625 6.390625 
Q 39.65625 6.390625 43.53125 10.953125 
Q 47.40625 15.53125 47.40625 23.390625 
Q 47.40625 31.296875 43.53125 35.828125 
Q 39.65625 40.375 33.015625 40.375 
z
M 52.59375 71.296875 
L 52.59375 62.3125 
Q 48.875 64.0625 45.09375 64.984375 
Q 41.3125 65.921875 37.59375 65.921875 
Q 27.828125 65.921875 22.671875 59.328125 
Q 17.53125 52.734375 16.796875 39.40625 
Q 19.671875 43.65625 24.015625 45.921875 
Q 28.375 48.1875 33.59375 48.1875 
Q 44.578125 48.1875 50.953125 41.515625 
Q 57.328125 34.859375 57.328125 23.390625 
Q 57.328125 12.15625 50.6875 5.359375 
Q 44.046875 -1.421875 33.015625 -1.421875 
Q 20.359375 -1.421875 13.671875 8.265625 
Q 6.984375 17.96875 6.984375 36.375 
Q 6.984375 53.65625 15.1875 63.9375 
Q 23.390625 74.21875 37.203125 74.21875 
Q 40.921875 74.21875 44.703125 73.484375 
Q 48.484375 72.75 52.59375 71.296875 
z
" id="DejaVuSans-54"/>
      </defs>
      <g transform="translate(329.44367 270.918437)scale(0.1 -0.1)">
       <use xlink:href="#DejaVuSans-54"/>
       <use x="63.623047" xlink:href="#DejaVuSans-48"/>
      </g>
     </g>
    </g>
    <g id="xtick_5">
     <g id="line2d_5">
      <g>
       <use style="stroke:#000000;stroke-width:0.8;" x="416.977923" xlink:href="#ma62d3fadca" y="256.32"/>
      </g>
     </g>
     <g id="text_5">
      <!-- 80 -->
      <defs>
       <path d="M 31.78125 34.625 
Q 24.75 34.625 20.71875 30.859375 
Q 16.703125 27.09375 16.703125 20.515625 
Q 16.703125 13.921875 20.71875 10.15625 
Q 24.75 6.390625 31.78125 6.390625 
Q 38.8125 6.390625 42.859375 10.171875 
Q 46.921875 13.96875 46.921875 20.515625 
Q 46.921875 27.09375 42.890625 30.859375 
Q 38.875 34.625 31.78125 34.625 
z
M 21.921875 38.8125 
Q 15.578125 40.375 12.03125 44.71875 
Q 8.5 49.078125 8.5 55.328125 
Q 8.5 64.0625 14.71875 69.140625 
Q 20.953125 74.21875 31.78125 74.21875 
Q 42.671875 74.21875 48.875 69.140625 
Q 55.078125 64.0625 55.078125 55.328125 
Q 55.078125 49.078125 51.53125 44.71875 
Q 48 40.375 41.703125 38.8125 
Q 48.828125 37.15625 52.796875 32.3125 
Q 56.78125 27.484375 56.78125 20.515625 
Q 56.78125 9.90625 50.3125 4.234375 
Q 43.84375 -1.421875 31.78125 -1.421875 
Q 19.734375 -1.421875 13.25 4.234375 
Q 6.78125 9.90625 6.78125 20.515625 
Q 6.78125 27.484375 10.78125 32.3125 
Q 14.796875 37.15625 21.921875 38.8125 
z
M 18.3125 54.390625 
Q 18.3125 48.734375 21.84375 45.5625 
Q 25.390625 42.390625 31.78125 42.390625 
Q 38.140625 42.390625 41.71875 45.5625 
Q 45.3125 48.734375 45.3125 54.390625 
Q 45.3125 60.0625 41.71875 63.234375 
Q 38.140625 66.40625 31.78125 66.40625 
Q 25.390625 66.40625 21.84375 63.234375 
Q 18.3125 60.0625 18.3125 54.390625 
z
" id="DejaVuSans-56"/>
      </defs>
      <g transform="translate(410.615423 270.918437)scale(0.1 -0.1)">
       <use xlink:href="#DejaVuSans-56"/>
       <use x="63.623047" xlink:href="#DejaVuSans-48"/>
      </g>
     </g>
    </g>
    <g id="xtick_6">
     <g id="line2d_6">
      <g>
       <use style="stroke:#000000;stroke-width:0.8;" x="498.149677" xlink:href="#ma62d3fadca" y="256.32"/>
      </g>
     </g>
     <g id="text_6">
      <!-- 100 -->
      <defs>
       <path d="M 12.40625 8.296875 
L 28.515625 8.296875 
L 28.515625 63.921875 
L 10.984375 60.40625 
L 10.984375 69.390625 
L 28.421875 72.90625 
L 38.28125 72.90625 
L 38.28125 8.296875 
L 54.390625 8.296875 
L 54.390625 0 
L 12.40625 0 
z
" id="DejaVuSans-49"/>
      </defs>
      <g transform="translate(488.605927 270.918437)scale(0.1 -0.1)">
       <use xlink:href="#DejaVuSans-49"/>
       <use x="63.623047" xlink:href="#DejaVuSans-48"/>
       <use x="127.246094" xlink:href="#DejaVuSans-48"/>
      </g>
     </g>
    </g>
    <g id="text_7">
     <!-- доля акций, % -->
     <defs>
      <path d="M 21.625 7.171875 
L 47.703125 7.171875 
L 47.703125 47.515625 
L 28.8125 47.515625 
L 28.8125 40.671875 
Q 28.8125 20.5625 23.046875 9.8125 
z
M 8.59375 7.171875 
Q 13.03125 9.125 14.984375 13.28125 
Q 19.78125 23.578125 19.78125 44.34375 
L 19.78125 54.6875 
L 56.734375 54.6875 
L 56.734375 7.171875 
L 63.921875 7.171875 
L 63.921875 -13.8125 
L 56.734375 -13.8125 
L 56.734375 0 
L 12.40625 0 
L 12.40625 -13.8125 
L 5.21875 -13.8125 
L 5.21875 7.171875 
z
" id="DejaVuSans-1076"/>
      <path d="M 30.609375 48.390625 
Q 23.390625 48.390625 19.1875 42.75 
Q 14.984375 37.109375 14.984375 27.296875 
Q 14.984375 17.484375 19.15625 11.84375 
Q 23.34375 6.203125 30.609375 6.203125 
Q 37.796875 6.203125 41.984375 11.859375 
Q 46.1875 17.53125 46.1875 27.296875 
Q 46.1875 37.015625 41.984375 42.703125 
Q 37.796875 48.390625 30.609375 48.390625 
z
M 30.609375 56 
Q 42.328125 56 49.015625 48.375 
Q 55.71875 40.765625 55.71875 27.296875 
Q 55.71875 13.875 49.015625 6.21875 
Q 42.328125 -1.421875 30.609375 -1.421875 
Q 18.84375 -1.421875 12.171875 6.21875 
Q 5.515625 13.875 5.515625 27.296875 
Q 5.515625 40.765625 12.171875 48.375 
Q 18.84375 56 30.609375 56 
z
" id="DejaVuSans-1086"/>
      <path d="M 3.71875 0 
L 3.71875 7.46875 
Q 12.59375 8.84375 15.328125 14.984375 
Q 18.65625 23.640625 18.65625 45.75 
L 18.65625 54.6875 
L 55.609375 54.6875 
L 55.609375 0 
L 46.625 0 
L 46.625 47.515625 
L 27.640625 47.515625 
L 27.640625 42.09375 
Q 27.640625 21 23.34375 11.53125 
Q 18.75 1.421875 3.71875 0 
z
" id="DejaVuSans-1083"/>
      <path d="M 18.453125 38.921875 
Q 18.453125 34.859375 21.578125 32.5625 
Q 24.703125 30.28125 30.515625 30.28125 
L 42.625 30.28125 
L 42.625 47.515625 
L 30.515625 47.515625 
Q 24.703125 47.515625 21.578125 45.265625 
Q 18.453125 43.015625 18.453125 38.921875 
z
M 5.671875 0 
L 22.359375 23.96875 
Q 16.703125 25.25 12.9375 28.59375 
Q 9.1875 31.9375 9.1875 38.921875 
Q 9.1875 46.828125 14.421875 50.75 
Q 19.671875 54.6875 30.28125 54.6875 
L 51.65625 54.6875 
L 51.65625 0 
L 42.625 0 
L 42.625 23.09375 
L 31.453125 23.09375 
L 15.328125 0 
z
" id="DejaVuSans-1103"/>
      <path id="DejaVuSans-32"/>
      <path d="M 34.28125 27.484375 
Q 23.390625 27.484375 19.1875 25 
Q 14.984375 22.515625 14.984375 16.5 
Q 14.984375 11.71875 18.140625 8.90625 
Q 21.296875 6.109375 26.703125 6.109375 
Q 34.1875 6.109375 38.703125 11.40625 
Q 43.21875 16.703125 43.21875 25.484375 
L 43.21875 27.484375 
z
M 52.203125 31.203125 
L 52.203125 0 
L 43.21875 0 
L 43.21875 8.296875 
Q 40.140625 3.328125 35.546875 0.953125 
Q 30.953125 -1.421875 24.3125 -1.421875 
Q 15.921875 -1.421875 10.953125 3.296875 
Q 6 8.015625 6 15.921875 
Q 6 25.140625 12.171875 29.828125 
Q 18.359375 34.515625 30.609375 34.515625 
L 43.21875 34.515625 
L 43.21875 35.40625 
Q 43.21875 41.609375 39.140625 45 
Q 35.0625 48.390625 27.6875 48.390625 
Q 23 48.390625 18.546875 47.265625 
Q 14.109375 46.140625 10.015625 43.890625 
L 10.015625 52.203125 
Q 14.9375 54.109375 19.578125 55.046875 
Q 24.21875 56 28.609375 56 
Q 40.484375 56 46.34375 49.84375 
Q 52.203125 43.703125 52.203125 31.203125 
z
" id="DejaVuSans-1072"/>
      <path d="M 9.078125 54.6875 
L 18.015625 54.6875 
L 18.015625 29 
L 43.359375 54.6875 
L 54.390625 54.6875 
L 33.5 33.546875 
L 57.078125 0 
L 47.015625 0 
L 27.640625 27.59375 
L 18.015625 17.828125 
L 18.015625 0 
L 9.078125 0 
z
" id="DejaVuSans-1082"/>
      <path d="M 56.296875 0 
L 9.078125 0 
L 9.078125 54.6875 
L 18.109375 54.6875 
L 18.109375 7.171875 
L 47.265625 7.171875 
L 47.265625 54.6875 
L 56.296875 54.6875 
L 56.296875 7.171875 
L 63.484375 7.171875 
L 63.484375 -13.8125 
L 56.296875 -13.8125 
z
" id="DejaVuSans-1094"/>
      <path d="M 55.90625 54.6875 
L 55.90625 0 
L 46.96875 0 
L 46.96875 43.890625 
L 20.609375 0 
L 9.078125 0 
L 9.078125 54.6875 
L 18.015625 54.6875 
L 18.015625 10.890625 
L 44.34375 54.6875 
z
" id="DejaVuSans-1080"/>
      <path d="M 55.90625 54.6875 
L 55.90625 0 
L 46.96875 0 
L 46.96875 43.890625 
L 20.609375 0 
L 9.078125 0 
L 9.078125 54.6875 
L 18.015625 54.6875 
L 18.015625 10.890625 
L 44.34375 54.6875 
z
M 17.234375 75.96875 
L 23 75.96875 
Q 23.53125 72.3125 25.890625 70.46875 
Q 28.265625 68.640625 32.515625 68.640625 
Q 36.71875 68.640625 39.0625 70.453125 
Q 41.40625 72.265625 42.046875 75.96875 
L 47.796875 75.96875 
Q 47.3125 68.984375 43.453125 65.46875 
Q 39.59375 61.953125 32.515625 61.953125 
Q 25.4375 61.953125 21.578125 65.46875 
Q 17.71875 68.984375 17.234375 75.96875 
z
" id="DejaVuSans-1081"/>
      <path d="M 11.71875 12.40625 
L 22.015625 12.40625 
L 22.015625 4 
L 14.015625 -11.625 
L 7.71875 -11.625 
L 11.71875 4 
z
" id="DejaVuSans-44"/>
      <path d="M 72.703125 32.078125 
Q 68.453125 32.078125 66.03125 28.46875 
Q 63.625 24.859375 63.625 18.40625 
Q 63.625 12.0625 66.03125 8.421875 
Q 68.453125 4.78125 72.703125 4.78125 
Q 76.859375 4.78125 79.265625 8.421875 
Q 81.6875 12.0625 81.6875 18.40625 
Q 81.6875 24.8125 79.265625 28.4375 
Q 76.859375 32.078125 72.703125 32.078125 
z
M 72.703125 38.28125 
Q 80.421875 38.28125 84.953125 32.90625 
Q 89.5 27.546875 89.5 18.40625 
Q 89.5 9.28125 84.9375 3.921875 
Q 80.375 -1.421875 72.703125 -1.421875 
Q 64.890625 -1.421875 60.34375 3.921875 
Q 55.8125 9.28125 55.8125 18.40625 
Q 55.8125 27.59375 60.375 32.9375 
Q 64.9375 38.28125 72.703125 38.28125 
z
M 22.3125 68.015625 
Q 18.109375 68.015625 15.6875 64.375 
Q 13.28125 60.75 13.28125 54.390625 
Q 13.28125 47.953125 15.671875 44.328125 
Q 18.0625 40.71875 22.3125 40.71875 
Q 26.5625 40.71875 28.96875 44.328125 
Q 31.390625 47.953125 31.390625 54.390625 
Q 31.390625 60.6875 28.953125 64.34375 
Q 26.515625 68.015625 22.3125 68.015625 
z
M 66.40625 74.21875 
L 74.21875 74.21875 
L 28.609375 -1.421875 
L 20.796875 -1.421875 
z
M 22.3125 74.21875 
Q 30.03125 74.21875 34.609375 68.875 
Q 39.203125 63.53125 39.203125 54.390625 
Q 39.203125 45.171875 34.640625 39.84375 
Q 30.078125 34.515625 22.3125 34.515625 
Q 14.546875 34.515625 10.03125 39.859375 
Q 5.515625 45.21875 5.515625 54.390625 
Q 5.515625 63.484375 10.046875 68.84375 
Q 14.59375 74.21875 22.3125 74.21875 
z
" id="DejaVuSans-37"/>
     </defs>
     <g transform="translate(256.975781 284.596563)scale(0.1 -0.1)">
      <use xlink:href="#DejaVuSans-1076"/>
      <use x="69.140625" xlink:href="#DejaVuSans-1086"/>
      <use x="130.322266" xlink:href="#DejaVuSans-1083"/>
      <use x="194.238281" xlink:href="#DejaVuSans-1103"/>
      <use x="254.394531" xlink:href="#DejaVuSans-32"/>
      <use x="286.181641" xlink:href="#DejaVuSans-1072"/>
      <use x="347.460938" xlink:href="#DejaVuSans-1082"/>
      <use x="407.861328" xlink:href="#DejaVuSans-1094"/>
      <use x="475.927734" xlink:href="#DejaVuSans-1080"/>
      <use x="540.917969" xlink:href="#DejaVuSans-1081"/>
      <use x="605.908203" xlink:href="#DejaVuSans-44"/>
      <use x="637.695312" xlink:href="#DejaVuSans-32"/>
      <use x="669.482422" xlink:href="#DejaVuSans-37"/>
     </g>
    </g>
   </g>
   <g id="matplotlib.axis_2">
    <g id="ytick_1">
     <g id="line2d_7">
      <defs>
       <path d="M 0 0 
L -3.5 0 
" id="m4dbae7ab7e" style="stroke:#000000;stroke-width:0.8;"/>
      </defs>
      <g>
       <use style="stroke:#000000;stroke-width:0.8;" x="72" xlink:href="#m4dbae7ab7e" y="238.704896"/>
      </g>
     </g>
     <g id="text_8">
      <!-- −30 -->
      <defs>
       <path d="M 10.59375 35.5 
L 73.1875 35.5 
L 73.1875 27.203125 
L 10.59375 27.203125 
z
" id="DejaVuSans-8722"/>
       <path d="M 40.578125 39.3125 
Q 47.65625 37.796875 51.625 33 
Q 55.609375 28.21875 55.609375 21.1875 
Q 55.609375 10.40625 48.1875 4.484375 
Q 40.765625 -1.421875 27.09375 -1.421875 
Q 22.515625 -1.421875 17.65625 -0.515625 
Q 12.796875 0.390625 7.625 2.203125 
L 7.625 11.71875 
Q 11.71875 9.328125 16.59375 8.109375 
Q 21.484375 6.890625 26.8125 6.890625 
Q 36.078125 6.890625 40.9375 10.546875 
Q 45.796875 14.203125 45.796875 21.1875 
Q 45.796875 27.640625 41.28125 31.265625 
Q 36.765625 34.90625 28.71875 34.90625 
L 20.21875 34.90625 
L 20.21875 43.015625 
L 29.109375 43.015625 
Q 36.375 43.015625 40.234375 45.921875 
Q 44.09375 48.828125 44.09375 54.296875 
Q 44.09375 59.90625 40.109375 62.90625 
Q 36.140625 65.921875 28.71875 65.921875 
Q 24.65625 65.921875 20.015625 65.03125 
Q 15.375 64.15625 9.8125 62.3125 
L 9.8125 71.09375 
Q 15.4375 72.65625 20.34375 73.4375 
Q 25.25 74.21875 29.59375 74.21875 
Q 40.828125 74.21875 47.359375 69.109375 
Q 53.90625 64.015625 53.90625 55.328125 
Q 53.90625 49.265625 50.4375 45.09375 
Q 46.96875 40.921875 40.578125 39.3125 
z
" id="DejaVuSans-51"/>
      </defs>
      <g transform="translate(43.895313 242.504114)scale(0.1 -0.1)">
       <use xlink:href="#DejaVuSans-8722"/>
       <use x="83.789062" xlink:href="#DejaVuSans-51"/>
       <use x="147.412109" xlink:href="#DejaVuSans-48"/>
      </g>
     </g>
    </g>
    <g id="ytick_2">
     <g id="line2d_8">
      <g>
       <use style="stroke:#000000;stroke-width:0.8;" x="72" xlink:href="#m4dbae7ab7e" y="212.476567"/>
      </g>
     </g>
     <g id="text_9">
      <!-- −20 -->
      <g transform="translate(43.895313 216.275786)scale(0.1 -0.1)">
       <use xlink:href="#DejaVuSans-8722"/>
       <use x="83.789062" xlink:href="#DejaVuSans-50"/>
       <use x="147.412109" xlink:href="#DejaVuSans-48"/>
      </g>
     </g>
    </g>
    <g id="ytick_3">
     <g id="line2d_9">
      <g>
       <use style="stroke:#000000;stroke-width:0.8;" x="72" xlink:href="#m4dbae7ab7e" y="186.248239"/>
      </g>
     </g>
     <g id="text_10">
      <!-- −10 -->
      <g transform="translate(43.895313 190.047458)scale(0.1 -0.1)">
       <use xlink:href="#DejaVuSans-8722"/>
       <use x="83.789062" xlink:href="#DejaVuSans-49"/>
       <use x="147.412109" xlink:href="#DejaVuSans-48"/>
      </g>
     </g>
    </g>
    <g id="ytick_4">
     <g id="line2d_10">
      <g>
       <use style="stroke:#000000;stroke-width:0.8;" x="72" xlink:href="#m4dbae7ab7e" y="160.019911"/>
      </g>
     </g>
     <g id="text_11">
      <!-- 0 -->
      <g transform="translate(58.6375 163.819129)scale(0.1 -0.1)">
       <use xlink:href="#DejaVuSans-48"/>
      </g>
     </g>
    </g>
    <g id="ytick_5">
     <g id="line2d_11">
      <g>
       <use style="stroke:#000000;stroke-width:0.8;" x="72" xlink:href="#m4dbae7ab7e" y="133.791582"/>
      </g>
     </g>
     <g id="text_12">
      <!-- 10 -->
      <g transform="translate(52.275 137.590801)scale(0.1 -0.1)">
       <use xlink:href="#DejaVuSans-49"/>
       <use x="63.623047" xlink:href="#DejaVuSans-48"/>
      </g>
     </g>
    </g>
    <g id="ytick_6">
     <g id="line2d_12">
      <g>
       <use style="stroke:#000000;stroke-width:0.8;" x="72" xlink:href="#m4dbae7ab7e" y="107.563254"/>
      </g>
     </g>
     <g id="text_13">
      <!-- 20 -->
      <g transform="translate(52.275 111.362473)scale(0.1 -0.1)">
       <use xlink:href="#DejaVuSans-50"/>
       <use x="63.623047" xlink:href="#DejaVuSans-48"/>
      </g>
     </g>
    </g>
    <g id="ytick_7">
     <g id="line2d_13">
      <g>
       <use style="stroke:#000000;stroke-width:0.8;" x="72" xlink:href="#m4dbae7ab7e" y="81.334926"/>
      </g>
     </g>
     <g id="text_14">
      <!-- 30 -->
      <g transform="translate(52.275 85.134144)scale(0.1 -0.1)">
       <use xlink:href="#DejaVuSans-51"/>
       <use x="63.623047" xlink:href="#DejaVuSans-48"/>
      </g>
     </g>
    </g>
    <g id="ytick_8">
     <g id="line2d_14">
      <g>
       <use style="stroke:#000000;stroke-width:0.8;" x="72" xlink:href="#m4dbae7ab7e" y="55.106597"/>
      </g>
     </g>
     <g id="text_15">
      <!-- 40 -->
      <g transform="translate(52.275 58.905816)scale(0.1 -0.1)">
       <use xlink:href="#DejaVuSans-52"/>
       <use x="63.623047" xlink:href="#DejaVuSans-48"/>
      </g>
     </g>
    </g>
    <g id="text_16">
     <!-- доходность, %г -->
     <defs>
      <path d="M 54.890625 54.6875 
L 35.109375 28.078125 
L 55.90625 0 
L 45.3125 0 
L 29.390625 21.484375 
L 13.484375 0 
L 2.875 0 
L 24.125 28.609375 
L 4.6875 54.6875 
L 15.28125 54.6875 
L 29.78125 35.203125 
L 44.28125 54.6875 
z
" id="DejaVuSans-1093"/>
      <path d="M 9.078125 54.6875 
L 18.109375 54.6875 
L 18.109375 32.375 
L 47.265625 32.375 
L 47.265625 54.6875 
L 56.296875 54.6875 
L 56.296875 0 
L 47.265625 0 
L 47.265625 25.203125 
L 18.109375 25.203125 
L 18.109375 0 
L 9.078125 0 
z
" id="DejaVuSans-1085"/>
      <path d="M 48.78125 52.59375 
L 48.78125 44.1875 
Q 44.96875 46.296875 41.140625 47.34375 
Q 37.3125 48.390625 33.40625 48.390625 
Q 24.65625 48.390625 19.8125 42.84375 
Q 14.984375 37.3125 14.984375 27.296875 
Q 14.984375 17.28125 19.8125 11.734375 
Q 24.65625 6.203125 33.40625 6.203125 
Q 37.3125 6.203125 41.140625 7.25 
Q 44.96875 8.296875 48.78125 10.40625 
L 48.78125 2.09375 
Q 45.015625 0.34375 40.984375 -0.53125 
Q 36.96875 -1.421875 32.421875 -1.421875 
Q 20.0625 -1.421875 12.78125 6.34375 
Q 5.515625 14.109375 5.515625 27.296875 
Q 5.515625 40.671875 12.859375 48.328125 
Q 20.21875 56 33.015625 56 
Q 37.15625 56 41.109375 55.140625 
Q 45.0625 54.296875 48.78125 52.59375 
z
" id="DejaVuSans-1089"/>
      <path d="M 2.9375 54.6875 
L 55.328125 54.6875 
L 55.328125 47.515625 
L 33.546875 47.515625 
L 33.546875 0 
L 24.703125 0 
L 24.703125 47.515625 
L 2.9375 47.515625 
z
" id="DejaVuSans-1090"/>
      <path d="M 43.453125 16.21875 
Q 43.453125 20.609375 40.25 22.90625 
Q 37.0625 25.203125 30.90625 25.203125 
L 18.109375 25.203125 
L 18.109375 7.171875 
L 30.90625 7.171875 
Q 37.0625 7.171875 40.25 9.484375 
Q 43.453125 11.8125 43.453125 16.21875 
z
M 9.078125 54.6875 
L 18.109375 54.6875 
L 18.109375 32.375 
L 31.296875 32.375 
Q 41.75 32.375 47.390625 28.390625 
Q 53.03125 24.421875 53.03125 16.21875 
Q 53.03125 8.015625 47.390625 4 
Q 41.75 0 31.296875 0 
L 9.078125 0 
z
" id="DejaVuSans-1100"/>
      <path d="M 9.078125 0 
L 9.078125 54.6875 
L 47.65625 54.6875 
L 47.65625 47.515625 
L 18.109375 47.515625 
L 18.109375 0 
z
" id="DejaVuSans-1075"/>
     </defs>
     <g transform="translate(37.815625 186.925156)rotate(-90)scale(0.1 -0.1)">
      <use xlink:href="#DejaVuSans-1076"/>
      <use x="69.140625" xlink:href="#DejaVuSans-1086"/>
      <use x="130.322266" xlink:href="#DejaVuSans-1093"/>
      <use x="189.501953" xlink:href="#DejaVuSans-1086"/>
      <use x="250.683594" xlink:href="#DejaVuSans-1076"/>
      <use x="319.824219" xlink:href="#DejaVuSans-1085"/>
      <use x="385.205078" xlink:href="#DejaVuSans-1086"/>
      <use x="446.386719" xlink:href="#DejaVuSans-1089"/>
      <use x="501.367188" xlink:href="#DejaVuSans-1090"/>
      <use x="559.619141" xlink:href="#DejaVuSans-1100"/>
      <use x="618.554688" xlink:href="#DejaVuSans-44"/>
      <use x="650.341797" xlink:href="#DejaVuSans-32"/>
      <use x="682.128906" xlink:href="#DejaVuSans-37"/>
      <use x="777.148438" xlink:href="#DejaVuSans-1075"/>
     </g>
    </g>
   </g>
   <g id="line2d_15">
    <path clip-path="url(#pc73fa12a00)" d="M 92.290909 246.24 
L 92.615596 228.755331 
L 92.940283 225.165727 
L 93.26497 223.309826 
L 93.914344 220.21988 
L 94.076688 219.528441 
L 94.198445 219.395054 
L 94.604304 218.27577 
L 94.766648 217.903919 
L 95.010163 216.461109 
L 95.091335 216.343763 
L 95.294264 215.884901 
L 95.578365 215.671063 
L 95.82188 215.131794 
L 96.065396 214.776971 
L 96.105982 214.769937 
L 96.308911 214.174095 
L 96.471254 214.1328 
L 96.633598 213.913746 
L 96.795941 213.591066 
L 97.323558 212.396875 
L 97.526487 211.917121 
L 97.688831 211.798757 
L 97.729417 211.733629 
L 97.89176 211.337985 
L 98.054104 211.157592 
L 98.216447 210.906778 
L 98.378791 210.677198 
L 98.622306 210.496665 
L 98.744063 210.355764 
L 98.906407 210.117125 
L 99.393438 209.220466 
L 99.596367 209.082565 
L 99.799296 208.849782 
L 99.921054 208.614443 
L 100.083397 208.53778 
L 101.260388 207.273637 
L 101.382145 207.160544 
L 101.585075 207.035636 
L 101.666247 206.817636 
L 102.153277 206.100242 
L 102.721479 205.823845 
L 102.883823 205.627363 
L 103.20851 205.331039 
L 103.370853 205.216488 
L 103.533197 205.016098 
L 103.857884 204.71438 
L 104.020227 204.641354 
L 104.141985 204.499751 
L 104.344914 204.356035 
L 104.831945 204.093647 
L 105.07546 203.878976 
L 106.820653 202.812603 
L 107.14534 202.55125 
L 107.794714 202.144793 
L 107.957058 201.950336 
L 108.119401 201.835971 
L 108.444088 201.715224 
L 108.728189 201.402386 
L 108.931119 201.321742 
L 109.093462 201.177023 
L 109.377563 200.987579 
L 109.70225 200.830313 
L 110.554554 200.353111 
L 110.960412 200.042279 
L 111.244514 199.885111 
L 111.650372 199.683777 
L 111.77213 199.545482 
L 111.975059 199.428837 
L 112.786777 198.992149 
L 113.030292 198.889168 
L 114.694313 197.975929 
L 114.978414 197.831662 
L 115.303101 197.708314 
L 115.587202 197.599361 
L 119.15876 195.658427 
L 119.361689 195.566069 
L 119.524032 195.459055 
L 120.295164 195.219133 
L 120.741609 194.96085 
L 120.985124 194.852394 
L 121.593912 194.605507 
L 121.837427 194.484811 
L 124.719025 193.41346 
L 124.96254 193.337785 
L 125.44957 193.225053 
L 125.936601 193.000701 
L 126.220702 192.876277 
L 126.667147 192.711688 
L 127.154177 192.517225 
L 128.493511 191.986383 
L 128.655855 191.858639 
L 129.061713 191.760551 
L 129.426986 191.676445 
L 130.238704 191.555554 
L 130.725734 191.384538 
L 131.131593 191.268862 
L 132.876786 190.84098 
L 133.566746 190.673507 
L 135.109009 190.216857 
L 135.352524 190.127676 
L 135.636625 189.970722 
L 138.315293 189.085883 
L 139.045839 188.879521 
L 139.938728 188.690006 
L 142.170952 188.271081 
L 142.942083 188.009539 
L 143.145013 187.929879 
L 143.550871 187.850886 
L 144.240831 187.696719 
L 144.443761 187.588205 
L 145.580165 187.230523 
L 145.823681 187.143965 
L 146.229539 187.028143 
L 147.122429 186.734213 
L 147.325358 186.641944 
L 147.568873 186.568078 
L 149.719925 185.891227 
L 150.491056 185.737021 
L 150.734572 185.674504 
L 152.398593 185.332032 
L 152.682694 185.227073 
L 160.962213 183.383697 
L 161.652172 183.278049 
L 161.895688 183.222908 
L 171.555126 181.013034 
L 171.879813 180.962549 
L 173.625006 180.593922 
L 174.193208 180.422365 
L 174.680239 180.302334 
L 175.938401 179.985085 
L 176.993634 179.763155 
L 177.155977 179.69427 
L 178.048867 179.554978 
L 180.443433 179.132207 
L 181.214565 178.986503 
L 181.579838 178.904937 
L 182.310384 178.768776 
L 183.284445 178.57093 
L 184.420849 178.367366 
L 184.826708 178.320192 
L 189.899943 177.258862 
L 190.995761 177.07022 
L 191.239277 177.003048 
L 192.943883 176.595698 
L 193.512086 176.474861 
L 218.350642 172.196749 
L 219.243532 172.062012 
L 219.771148 172.006082 
L 223.78915 171.430893 
L 224.438524 171.340726 
L 225.777858 171.164655 
L 226.061959 171.118344 
L 226.995434 171.003358 
L 228.091253 170.840034 
L 228.781213 170.724248 
L 229.349415 170.615784 
L 231.865739 170.174978 
L 232.109255 170.106061 
L 234.016791 169.831898 
L 238.237722 169.173376 
L 239.211783 169.026452 
L 240.22643 168.845965 
L 240.875804 168.729657 
L 241.849865 168.583493 
L 245.218493 168.145016 
L 245.786695 168.037386 
L 273.709778 163.689206 
L 273.912708 163.634083 
L 274.846183 163.508272 
L 277.403093 163.109659 
L 278.133639 162.961976 
L 278.823599 162.856069 
L 279.757074 162.680967 
L 280.162933 162.586799 
L 292.014009 161.115672 
L 293.67803 160.845896 
L 296.559627 160.412855 
L 310.034138 158.240753 
L 312.793978 157.814803 
L 313.483937 157.654246 
L 315.147958 157.428187 
L 317.014909 157.036213 
L 318.232485 156.891729 
L 320.54588 156.561504 
L 324.076851 156.047254 
L 324.523296 155.976555 
L 325.822044 155.737994 
L 330.083561 154.843219 
L 330.854693 154.746728 
L 331.098208 154.688821 
L 335.481483 154.049261 
L 336.374372 153.883658 
L 337.591948 153.715019 
L 341.082334 153.18178 
L 341.528778 153.11967 
L 341.934637 153.021961 
L 342.178152 152.934578 
L 344.16686 152.59471 
L 344.816234 152.415465 
L 345.465608 152.302359 
L 346.845528 152.138227 
L 347.819589 151.997075 
L 348.144276 151.886181 
L 364.094526 149.258009 
L 364.906243 149.125188 
L 366.042648 148.854966 
L 376.229703 146.978089 
L 376.473218 146.906201 
L 376.716733 146.789555 
L 377.041421 146.738276 
L 377.73138 146.620592 
L 381.911726 145.678523 
L 382.479928 145.563307 
L 384.346878 145.275005 
L 384.752737 145.173404 
L 385.036838 145.09463 
L 385.239768 144.986409 
L 386.010899 144.833578 
L 386.538516 144.750074 
L 388.527224 144.319375 
L 388.770739 144.239241 
L 390.028901 144.00755 
L 391.043548 143.7899 
L 391.855266 143.648747 
L 392.179953 143.516014 
L 397.374945 142.331666 
L 398.146076 142.211569 
L 398.470763 142.124197 
L 405.897979 140.188038 
L 406.912626 139.992159 
L 407.602586 139.806529 
L 408.698404 139.636872 
L 409.307193 139.434714 
L 409.956567 139.296353 
L 411.255315 138.958605 
L 411.782931 138.832742 
L 412.351133 138.738306 
L 412.797578 138.598575 
L 413.325194 138.453071 
L 413.56871 138.394086 
L 414.664528 138.130542 
L 414.989215 138.005932 
L 415.679175 137.912797 
L 415.841519 137.846766 
L 416.490893 137.725792 
L 416.734408 137.6677 
L 417.383782 137.529628 
L 420.630652 136.63687 
L 421.117683 136.509779 
L 424.648654 135.68223 
L 424.932755 135.574208 
L 425.17627 135.485022 
L 425.663301 135.411154 
L 429.437787 134.483963 
L 429.884232 134.316034 
L 430.533606 134.110828 
L 430.736535 134.052707 
L 431.38591 133.863722 
L 431.913526 133.725192 
L 432.441142 133.613433 
L 438.934883 131.723653 
L 439.827772 131.495735 
L 443.277571 130.269973 
L 443.521087 130.169701 
L 444.129875 129.939192 
L 444.657491 129.709055 
L 444.819835 129.593119 
L 445.144522 129.466363 
L 445.388037 129.336489 
L 445.55038 129.265407 
L 447.011472 128.769082 
L 447.295573 128.693936 
L 447.904361 128.53153 
L 448.675493 128.252506 
L 449.121938 128.128505 
L 449.730726 127.94845 
L 450.461272 127.690912 
L 450.745373 127.579527 
L 450.988888 127.464292 
L 451.191817 127.352223 
L 451.435333 127.247005 
L 451.597676 127.184284 
L 451.922363 127.073968 
L 454.114 126.33252 
L 454.276344 126.256477 
L 454.560445 126.138743 
L 455.128647 125.903084 
L 455.412749 125.738066 
L 456.711497 125.28232 
L 456.914426 125.123927 
L 457.604386 124.988121 
L 457.847901 124.838321 
L 458.578447 124.64304 
L 458.74079 124.565698 
L 458.94372 124.452665 
L 459.593094 124.222521 
L 459.796023 124.095442 
L 460.688913 123.810885 
L 461.054185 123.492383 
L 461.784731 123.224869 
L 462.068832 123.084278 
L 462.150004 123.003272 
L 462.393519 122.917939 
L 463.124065 122.660184 
L 465.112773 121.624773 
L 465.315702 121.534192 
L 466.289764 120.864261 
L 466.614451 120.713749 
L 467.060895 120.501583 
L 467.344996 120.374869 
L 468.765502 119.691558 
L 469.049603 119.497018 
L 469.658391 119.186032 
L 470.023664 119.044605 
L 470.307765 118.913367 
L 470.794796 118.658733 
L 470.997725 118.547522 
L 471.281826 118.436176 
L 471.403584 118.358977 
L 471.606513 118.110362 
L 473.270534 117.428972 
L 473.432878 117.214527 
L 473.716979 116.992722 
L 474.041666 116.841533 
L 474.650454 116.606536 
L 474.812798 116.414398 
L 475.786859 115.790401 
L 476.192717 115.276798 
L 476.273889 115.159631 
L 476.517404 115.04176 
L 477.613223 114.318286 
L 478.181425 114.008548 
L 478.465527 113.790736 
L 479.886032 112.762543 
L 480.048376 112.500736 
L 480.291891 112.389102 
L 480.819507 111.980806 
L 481.103609 111.669573 
L 481.468881 111.392267 
L 481.509467 111.391707 
L 481.671811 111.219991 
L 481.955912 110.991252 
L 482.280599 110.729296 
L 482.361771 110.647879 
L 482.524114 110.394549 
L 482.848801 110.172937 
L 483.173488 109.74222 
L 483.295246 109.675532 
L 483.904034 108.745779 
L 484.106963 108.331446 
L 484.391065 108.04289 
L 484.593994 107.893711 
L 484.715752 107.783997 
L 485.081024 107.268697 
L 485.730398 106.719042 
L 485.892742 106.580109 
L 486.623288 105.567849 
L 486.785631 105.250098 
L 486.907389 104.954751 
L 487.069732 104.742593 
L 487.150904 104.67188 
L 487.475591 104.211673 
L 487.678521 103.968528 
L 487.88145 103.820125 
L 488.206137 103.407133 
L 488.409066 103.15461 
L 488.774339 102.209405 
L 489.95133 99.93142 
L 490.032501 99.781423 
L 490.478946 98.641778 
L 490.519532 98.629128 
L 490.681875 98.317692 
L 490.925391 98.02874 
L 491.047148 97.70786 
L 491.12832 97.632027 
L 491.371835 97.114973 
L 491.534179 96.895133 
L 491.655937 96.763807 
L 492.021209 95.996978 
L 492.183553 95.777583 
L 492.589412 95.291528 
L 492.914099 94.340371 
L 493.076442 94.192426 
L 493.766402 91.560482 
L 493.847574 91.484743 
L 494.009917 90.945753 
L 494.334604 90.339835 
L 494.415776 90.290034 
L 495.105736 87.263336 
L 495.26808 86.581452 
L 495.308665 86.5475 
L 495.552181 85.115454 
L 495.633352 84.982265 
L 495.795696 84.607897 
L 495.836282 84.559604 
L 495.998625 83.941673 
L 496.242141 83.072415 
L 496.485656 79.570437 
L 496.729171 78.771266 
L 496.9321 78.327695 
L 497.094444 75.865605 
L 497.297373 74.624663 
L 497.337959 74.558892 
L 497.459717 72.998635 
L 497.62206 65.931212 
L 497.82499 59.105077 
L 498.109091 44.64 
L 498.109091 44.64 
" style="fill:none;stroke:#1f77b4;stroke-linecap:square;stroke-width:1.5;"/>
   </g>
   <g id="line2d_16">
    <path clip-path="url(#pc73fa12a00)" d="M 92.290909 192.651352 
L 92.615596 185.287811 
L 92.940283 183.831521 
L 93.305556 183.016364 
L 93.346142 183.009325 
L 93.549071 182.496434 
L 93.752001 182.344169 
L 93.792587 182.313866 
L 93.995516 181.670641 
L 94.604304 181.085077 
L 94.766648 180.938621 
L 95.010163 180.372039 
L 95.172506 180.241828 
L 95.33485 180.135944 
L 96.105982 179.711287 
L 96.308911 179.479343 
L 96.674184 179.361958 
L 97.648245 178.568299 
L 97.810588 178.419783 
L 99.190508 177.701379 
L 99.352852 177.568331 
L 99.75871 177.461153 
L 100.205155 177.188408 
L 100.570428 177.0772 
L 101.544489 176.745028 
L 101.747418 176.603972 
L 101.909762 176.478993 
L 102.234449 176.371913 
L 102.721479 176.274422 
L 102.924409 176.178165 
L 103.370853 176.04455 
L 103.533197 175.9688 
L 104.101399 175.774452 
L 104.629016 175.658771 
L 106.211865 175.269101 
L 106.536552 175.224197 
L 107.794714 174.888496 
L 107.997643 174.814974 
L 109.093462 174.526499 
L 110.351624 174.286311 
L 110.59514 174.202052 
L 111.041584 174.08622 
L 112.015645 173.864772 
L 113.63908 173.554099 
L 114.044939 173.429093 
L 114.978414 173.283231 
L 116.114819 173.089287 
L 116.439506 172.993621 
L 116.804779 172.920725 
L 117.57591 172.782788 
L 122.973832 171.89965 
L 124.597267 171.695349 
L 125.084298 171.613318 
L 126.667147 171.404146 
L 127.884723 171.227296 
L 133.323231 170.693878 
L 135.027837 170.50823 
L 136.570101 170.30093 
L 144.240831 169.590491 
L 144.524932 169.546957 
L 146.02661 169.371964 
L 147.89356 169.154504 
L 149.27348 168.989053 
L 149.801096 168.939619 
L 153.047967 168.668944 
L 153.372654 168.637033 
L 154.062614 168.562651 
L 155.929564 168.422278 
L 157.796514 168.265551 
L 160.028737 168.100986 
L 199.27528 165.251491 
L 201.629261 165.10472 
L 202.319221 165.0587 
L 205.363162 164.864041 
L 206.134293 164.833478 
L 208.812961 164.689429 
L 211.248114 164.542471 
L 214.089125 164.370998 
L 214.697913 164.327816 
L 219.000016 164.12018 
L 219.811734 164.076143 
L 236.208428 163.196642 
L 238.237722 163.107265 
L 240.794632 162.960601 
L 243.148613 162.850387 
L 245.746109 162.723859 
L 248.871222 162.54474 
L 255.689649 162.18887 
L 257.475428 162.10639 
L 262.548662 161.851941 
L 262.954521 161.819038 
L 272.532788 161.329771 
L 284.262106 160.734596 
L 287.752492 160.583471 
L 289.172997 160.506581 
L 300.6588 159.942507 
L 301.916963 159.874354 
L 303.743327 159.766279 
L 304.352115 159.713163 
L 308.329531 159.509971 
L 325.984388 158.591572 
L 326.471418 158.543416 
L 328.135439 158.43348 
L 361.618787 156.594311 
L 364.05394 156.481389 
L 366.489093 156.329611 
L 367.260224 156.270073 
L 373.185762 155.9184 
L 374.728026 155.844126 
L 377.974896 155.594547 
L 378.908371 155.525505 
L 390.43476 154.763568 
L 391.368235 154.701121 
L 403.016382 153.810234 
L 403.746927 153.737468 
L 405.00509 153.626236 
L 406.466181 153.539932 
L 410.646526 153.234829 
L 415.110973 152.874253 
L 416.856166 152.765457 
L 417.262024 152.736008 
L 419.37249 152.556884 
L 436.134457 151.141863 
L 436.743245 151.086703 
L 439.462499 150.877147 
L 445.185108 150.205926 
L 445.712724 150.13652 
L 447.782604 149.932429 
L 453.424041 149.317446 
L 454.398102 149.209571 
L 454.966304 149.138659 
L 458.132002 148.756001 
L 459.390164 148.615976 
L 460.12071 148.518049 
L 461.0136 148.387469 
L 461.419458 148.310624 
L 462.637035 148.169087 
L 464.788086 147.871085 
L 466.533279 147.531263 
L 467.426168 147.40927 
L 469.57722 147.083717 
L 470.388937 146.961308 
L 471.24124 146.841736 
L 472.864676 146.59581 
L 473.757565 146.387001 
L 482.848801 144.358088 
L 483.457589 144.141687 
L 483.904034 143.935115 
L 484.147549 143.804558 
L 484.553408 143.691787 
L 485.730398 143.336641 
L 486.055086 143.232458 
L 486.50153 143.059079 
L 486.988561 142.768501 
L 487.353834 142.656604 
L 487.637935 142.535695 
L 488.409066 142.290288 
L 488.855511 141.969586 
L 489.220784 141.781016 
L 489.464299 141.597313 
L 490.316603 141.132084 
L 490.560118 140.908521 
L 492.021209 140.212437 
L 492.224139 140.136253 
L 492.548826 140.022936 
L 492.670583 139.930597 
L 492.832927 139.79205 
L 493.076442 139.693382 
L 493.766402 138.939741 
L 493.847574 138.918113 
L 494.009917 138.764294 
L 494.821635 138.086181 
L 495.186908 137.566128 
L 496.242141 136.53614 
L 496.485656 135.556152 
L 496.9321 135.209991 
L 497.094444 134.526638 
L 497.297373 134.183442 
L 497.378545 134.051449 
L 497.459717 133.734979 
L 497.62206 131.801775 
L 497.82499 129.958688 
L 498.109091 126.128036 
L 498.109091 126.128036 
" style="fill:none;stroke:#ff7f0e;stroke-linecap:square;stroke-width:1.5;"/>
   </g>
   <g id="line2d_17">
    <path clip-path="url(#pc73fa12a00)" d="M 295.220293 256.32 
L 295.220293 34.56 
" style="fill:none;stroke:#808080;stroke-linecap:square;stroke-width:0.3;"/>
   </g>
   <g id="line2d_18">
    <path clip-path="url(#pc73fa12a00)" d="M 72 160.019911 
L 518.4 160.019911 
" style="fill:none;stroke:#808080;stroke-linecap:square;stroke-width:0.3;"/>
   </g>
   <g id="patch_3">
    <path d="M 72 256.32 
L 72 34.56 
" style="fill:none;stroke:#000000;stroke-linecap:square;stroke-linejoin:miter;stroke-width:0.8;"/>
   </g>
   <g id="patch_4">
    <path d="M 518.4 256.32 
L 518.4 34.56 
" style="fill:none;stroke:#000000;stroke-linecap:square;stroke-linejoin:miter;stroke-width:0.8;"/>
   </g>
   <g id="patch_5">
    <path d="M 72 256.32 
L 518.4 256.32 
" style="fill:none;stroke:#000000;stroke-linecap:square;stroke-linejoin:miter;stroke-width:0.8;"/>
   </g>
   <g id="patch_6">
    <path d="M 72 34.56 
L 518.4 34.56 
" style="fill:none;stroke:#000000;stroke-linecap:square;stroke-linejoin:miter;stroke-width:0.8;"/>
   </g>
   <g id="legend_1">
    <g id="patch_7">
     <path d="M 79 71.91625 
L 145.273438 71.91625 
Q 147.273438 71.91625 147.273438 69.91625 
L 147.273438 41.56 
Q 147.273438 39.56 145.273438 39.56 
L 79 39.56 
Q 77 39.56 77 41.56 
L 77 69.91625 
Q 77 71.91625 79 71.91625 
z
" style="fill:#ffffff;opacity:0.8;stroke:#cccccc;stroke-linejoin:miter;"/>
    </g>
    <g id="line2d_19">
     <path d="M 81 47.658437 
L 101 47.658437 
" style="fill:none;stroke:#1f77b4;stroke-linecap:square;stroke-width:1.5;"/>
    </g>
    <g id="line2d_20"/>
    <g id="text_17">
     <!-- 10 лет -->
     <defs>
      <path d="M 56.203125 29.59375 
L 56.203125 25.203125 
L 14.890625 25.203125 
Q 15.484375 15.921875 20.484375 11.0625 
Q 25.484375 6.203125 34.421875 6.203125 
Q 39.59375 6.203125 44.453125 7.46875 
Q 49.3125 8.734375 54.109375 11.28125 
L 54.109375 2.78125 
Q 49.265625 0.734375 44.1875 -0.34375 
Q 39.109375 -1.421875 33.890625 -1.421875 
Q 20.796875 -1.421875 13.15625 6.1875 
Q 5.515625 13.8125 5.515625 26.8125 
Q 5.515625 40.234375 12.765625 48.109375 
Q 20.015625 56 32.328125 56 
Q 43.359375 56 49.78125 48.890625 
Q 56.203125 41.796875 56.203125 29.59375 
z
M 47.21875 32.234375 
Q 47.125 39.59375 43.09375 43.984375 
Q 39.0625 48.390625 32.421875 48.390625 
Q 24.90625 48.390625 20.390625 44.140625 
Q 15.875 39.890625 15.1875 32.171875 
z
" id="DejaVuSans-1077"/>
     </defs>
     <g transform="translate(109 51.158437)scale(0.1 -0.1)">
      <use xlink:href="#DejaVuSans-49"/>
      <use x="63.623047" xlink:href="#DejaVuSans-48"/>
      <use x="127.246094" xlink:href="#DejaVuSans-32"/>
      <use x="159.033203" xlink:href="#DejaVuSans-1083"/>
      <use x="222.949219" xlink:href="#DejaVuSans-1077"/>
      <use x="284.472656" xlink:href="#DejaVuSans-1090"/>
     </g>
    </g>
    <g id="line2d_21">
     <path d="M 81 62.336562 
L 101 62.336562 
" style="fill:none;stroke:#ff7f0e;stroke-linecap:square;stroke-width:1.5;"/>
    </g>
    <g id="line2d_22"/>
    <g id="text_18">
     <!-- 30 лет -->
     <g transform="translate(109 65.836562)scale(0.1 -0.1)">
      <use xlink:href="#DejaVuSans-51"/>
      <use x="63.623047" xlink:href="#DejaVuSans-48"/>
      <use x="127.246094" xlink:href="#DejaVuSans-32"/>
      <use x="159.033203" xlink:href="#DejaVuSans-1083"/>
      <use x="222.949219" xlink:href="#DejaVuSans-1077"/>
      <use x="284.472656" xlink:href="#DejaVuSans-1090"/>
     </g>
    </g>
   </g>
  </g>
 </g>
 <defs>
  <clipPath id="pc73fa12a00">
   <rect height="221.76" width="446.4" x="72" y="34.56"/>
  </clipPath>
 </defs>
</svg>
