<?xml version="1.0" encoding="utf-8" standalone="no"?>
<!DOCTYPE svg PUBLIC "-//W3C//DTD SVG 1.1//EN"
  "http://www.w3.org/Graphics/SVG/1.1/DTD/svg11.dtd">
<!-- Created with matplotlib (https://matplotlib.org/) -->
<svg height="288pt" version="1.1" viewBox="0 0 576 288" width="576pt" xmlns="http://www.w3.org/2000/svg" xmlns:xlink="http://www.w3.org/1999/xlink">
 <defs>
  <style type="text/css">
*{stroke-linecap:butt;stroke-linejoin:round;}
  </style>
 </defs>
 <g id="figure_1">
  <g id="patch_1">
   <path d="M 0 288 
L 576 288 
L 576 0 
L 0 0 
z
" style="fill:#ffffff;"/>
  </g>
  <g id="axes_1">
   <g id="patch_2">
    <path d="M 72 256.32 
L 518.4 256.32 
L 518.4 34.56 
L 72 34.56 
z
" style="fill:#ffffff;"/>
   </g>
   <g id="matplotlib.axis_1">
    <g id="xtick_1">
     <g id="line2d_1">
      <defs>
       <path d="M 0 0 
L 0 3.5 
" id="mfab5a507c2" style="stroke:#000000;stroke-width:0.8;"/>
      </defs>
      <g>
       <use style="stroke:#000000;stroke-width:0.8;" x="92.290909" xlink:href="#mfab5a507c2" y="256.32"/>
      </g>
     </g>
     <g id="text_1">
      <!-- 0 -->
      <defs>
       <path d="M 31.78125 66.40625 
Q 24.171875 66.40625 20.328125 58.90625 
Q 16.5 51.421875 16.5 36.375 
Q 16.5 21.390625 20.328125 13.890625 
Q 24.171875 6.390625 31.78125 6.390625 
Q 39.453125 6.390625 43.28125 13.890625 
Q 47.125 21.390625 47.125 36.375 
Q 47.125 51.421875 43.28125 58.90625 
Q 39.453125 66.40625 31.78125 66.40625 
z
M 31.78125 74.21875 
Q 44.046875 74.21875 50.515625 64.515625 
Q 56.984375 54.828125 56.984375 36.375 
Q 56.984375 17.96875 50.515625 8.265625 
Q 44.046875 -1.421875 31.78125 -1.421875 
Q 19.53125 -1.421875 13.0625 8.265625 
Q 6.59375 17.96875 6.59375 36.375 
Q 6.59375 54.828125 13.0625 64.515625 
Q 19.53125 74.21875 31.78125 74.21875 
z
" id="DejaVuSans-48"/>
      </defs>
      <g transform="translate(89.109659 270.918437)scale(0.1 -0.1)">
       <use xlink:href="#DejaVuSans-48"/>
      </g>
     </g>
    </g>
    <g id="xtick_2">
     <g id="line2d_2">
      <g>
       <use style="stroke:#000000;stroke-width:0.8;" x="173.462663" xlink:href="#mfab5a507c2" y="256.32"/>
      </g>
     </g>
     <g id="text_2">
      <!-- 20 -->
      <defs>
       <path d="M 19.1875 8.296875 
L 53.609375 8.296875 
L 53.609375 0 
L 7.328125 0 
L 7.328125 8.296875 
Q 12.9375 14.109375 22.625 23.890625 
Q 32.328125 33.6875 34.8125 36.53125 
Q 39.546875 41.84375 41.421875 45.53125 
Q 43.3125 49.21875 43.3125 52.78125 
Q 43.3125 58.59375 39.234375 62.25 
Q 35.15625 65.921875 28.609375 65.921875 
Q 23.96875 65.921875 18.8125 64.3125 
Q 13.671875 62.703125 7.8125 59.421875 
L 7.8125 69.390625 
Q 13.765625 71.78125 18.9375 73 
Q 24.125 74.21875 28.421875 74.21875 
Q 39.75 74.21875 46.484375 68.546875 
Q 53.21875 62.890625 53.21875 53.421875 
Q 53.21875 48.921875 51.53125 44.890625 
Q 49.859375 40.875 45.40625 35.40625 
Q 44.1875 33.984375 37.640625 27.21875 
Q 31.109375 20.453125 19.1875 8.296875 
z
" id="DejaVuSans-50"/>
      </defs>
      <g transform="translate(167.100163 270.918437)scale(0.1 -0.1)">
       <use xlink:href="#DejaVuSans-50"/>
       <use x="63.623047" xlink:href="#DejaVuSans-48"/>
      </g>
     </g>
    </g>
    <g id="xtick_3">
     <g id="line2d_3">
      <g>
       <use style="stroke:#000000;stroke-width:0.8;" x="254.634416" xlink:href="#mfab5a507c2" y="256.32"/>
      </g>
     </g>
     <g id="text_3">
      <!-- 40 -->
      <defs>
       <path d="M 37.796875 64.3125 
L 12.890625 25.390625 
L 37.796875 25.390625 
z
M 35.203125 72.90625 
L 47.609375 72.90625 
L 47.609375 25.390625 
L 58.015625 25.390625 
L 58.015625 17.1875 
L 47.609375 17.1875 
L 47.609375 0 
L 37.796875 0 
L 37.796875 17.1875 
L 4.890625 17.1875 
L 4.890625 26.703125 
z
" id="DejaVuSans-52"/>
      </defs>
      <g transform="translate(248.271916 270.918437)scale(0.1 -0.1)">
       <use xlink:href="#DejaVuSans-52"/>
       <use x="63.623047" xlink:href="#DejaVuSans-48"/>
      </g>
     </g>
    </g>
    <g id="xtick_4">
     <g id="line2d_4">
      <g>
       <use style="stroke:#000000;stroke-width:0.8;" x="335.80617" xlink:href="#mfab5a507c2" y="256.32"/>
      </g>
     </g>
     <g id="text_4">
      <!-- 60 -->
      <defs>
       <path d="M 33.015625 40.375 
Q 26.375 40.375 22.484375 35.828125 
Q 18.609375 31.296875 18.609375 23.390625 
Q 18.609375 15.53125 22.484375 10.953125 
Q 26.375 6.390625 33.015625 6.390625 
Q 39.65625 6.390625 43.53125 10.953125 
Q 47.40625 15.53125 47.40625 23.390625 
Q 47.40625 31.296875 43.53125 35.828125 
Q 39.65625 40.375 33.015625 40.375 
z
M 52.59375 71.296875 
L 52.59375 62.3125 
Q 48.875 64.0625 45.09375 64.984375 
Q 41.3125 65.921875 37.59375 65.921875 
Q 27.828125 65.921875 22.671875 59.328125 
Q 17.53125 52.734375 16.796875 39.40625 
Q 19.671875 43.65625 24.015625 45.921875 
Q 28.375 48.1875 33.59375 48.1875 
Q 44.578125 48.1875 50.953125 41.515625 
Q 57.328125 34.859375 57.328125 23.390625 
Q 57.328125 12.15625 50.6875 5.359375 
Q 44.046875 -1.421875 33.015625 -1.421875 
Q 20.359375 -1.421875 13.671875 8.265625 
Q 6.984375 17.96875 6.984375 36.375 
Q 6.984375 53.65625 15.1875 63.9375 
Q 23.390625 74.21875 37.203125 74.21875 
Q 40.921875 74.21875 44.703125 73.484375 
Q 48.484375 72.75 52.59375 71.296875 
z
" id="DejaVuSans-54"/>
      </defs>
      <g transform="translate(329.44367 270.918437)scale(0.1 -0.1)">
       <use xlink:href="#DejaVuSans-54"/>
       <use x="63.623047" xlink:href="#DejaVuSans-48"/>
      </g>
     </g>
    </g>
    <g id="xtick_5">
     <g id="line2d_5">
      <g>
       <use style="stroke:#000000;stroke-width:0.8;" x="416.977923" xlink:href="#mfab5a507c2" y="256.32"/>
      </g>
     </g>
     <g id="text_5">
      <!-- 80 -->
      <defs>
       <path d="M 31.78125 34.625 
Q 24.75 34.625 20.71875 30.859375 
Q 16.703125 27.09375 16.703125 20.515625 
Q 16.703125 13.921875 20.71875 10.15625 
Q 24.75 6.390625 31.78125 6.390625 
Q 38.8125 6.390625 42.859375 10.171875 
Q 46.921875 13.96875 46.921875 20.515625 
Q 46.921875 27.09375 42.890625 30.859375 
Q 38.875 34.625 31.78125 34.625 
z
M 21.921875 38.8125 
Q 15.578125 40.375 12.03125 44.71875 
Q 8.5 49.078125 8.5 55.328125 
Q 8.5 64.0625 14.71875 69.140625 
Q 20.953125 74.21875 31.78125 74.21875 
Q 42.671875 74.21875 48.875 69.140625 
Q 55.078125 64.0625 55.078125 55.328125 
Q 55.078125 49.078125 51.53125 44.71875 
Q 48 40.375 41.703125 38.8125 
Q 48.828125 37.15625 52.796875 32.3125 
Q 56.78125 27.484375 56.78125 20.515625 
Q 56.78125 9.90625 50.3125 4.234375 
Q 43.84375 -1.421875 31.78125 -1.421875 
Q 19.734375 -1.421875 13.25 4.234375 
Q 6.78125 9.90625 6.78125 20.515625 
Q 6.78125 27.484375 10.78125 32.3125 
Q 14.796875 37.15625 21.921875 38.8125 
z
M 18.3125 54.390625 
Q 18.3125 48.734375 21.84375 45.5625 
Q 25.390625 42.390625 31.78125 42.390625 
Q 38.140625 42.390625 41.71875 45.5625 
Q 45.3125 48.734375 45.3125 54.390625 
Q 45.3125 60.0625 41.71875 63.234375 
Q 38.140625 66.40625 31.78125 66.40625 
Q 25.390625 66.40625 21.84375 63.234375 
Q 18.3125 60.0625 18.3125 54.390625 
z
" id="DejaVuSans-56"/>
      </defs>
      <g transform="translate(410.615423 270.918437)scale(0.1 -0.1)">
       <use xlink:href="#DejaVuSans-56"/>
       <use x="63.623047" xlink:href="#DejaVuSans-48"/>
      </g>
     </g>
    </g>
    <g id="xtick_6">
     <g id="line2d_6">
      <g>
       <use style="stroke:#000000;stroke-width:0.8;" x="498.149677" xlink:href="#mfab5a507c2" y="256.32"/>
      </g>
     </g>
     <g id="text_6">
      <!-- 100 -->
      <defs>
       <path d="M 12.40625 8.296875 
L 28.515625 8.296875 
L 28.515625 63.921875 
L 10.984375 60.40625 
L 10.984375 69.390625 
L 28.421875 72.90625 
L 38.28125 72.90625 
L 38.28125 8.296875 
L 54.390625 8.296875 
L 54.390625 0 
L 12.40625 0 
z
" id="DejaVuSans-49"/>
      </defs>
      <g transform="translate(488.605927 270.918437)scale(0.1 -0.1)">
       <use xlink:href="#DejaVuSans-49"/>
       <use x="63.623047" xlink:href="#DejaVuSans-48"/>
       <use x="127.246094" xlink:href="#DejaVuSans-48"/>
      </g>
     </g>
    </g>
    <g id="text_7">
     <!-- доля акций, % -->
     <defs>
      <path d="M 21.625 7.171875 
L 47.703125 7.171875 
L 47.703125 47.515625 
L 28.8125 47.515625 
L 28.8125 40.671875 
Q 28.8125 20.5625 23.046875 9.8125 
z
M 8.59375 7.171875 
Q 13.03125 9.125 14.984375 13.28125 
Q 19.78125 23.578125 19.78125 44.34375 
L 19.78125 54.6875 
L 56.734375 54.6875 
L 56.734375 7.171875 
L 63.921875 7.171875 
L 63.921875 -13.8125 
L 56.734375 -13.8125 
L 56.734375 0 
L 12.40625 0 
L 12.40625 -13.8125 
L 5.21875 -13.8125 
L 5.21875 7.171875 
z
" id="DejaVuSans-1076"/>
      <path d="M 30.609375 48.390625 
Q 23.390625 48.390625 19.1875 42.75 
Q 14.984375 37.109375 14.984375 27.296875 
Q 14.984375 17.484375 19.15625 11.84375 
Q 23.34375 6.203125 30.609375 6.203125 
Q 37.796875 6.203125 41.984375 11.859375 
Q 46.1875 17.53125 46.1875 27.296875 
Q 46.1875 37.015625 41.984375 42.703125 
Q 37.796875 48.390625 30.609375 48.390625 
z
M 30.609375 56 
Q 42.328125 56 49.015625 48.375 
Q 55.71875 40.765625 55.71875 27.296875 
Q 55.71875 13.875 49.015625 6.21875 
Q 42.328125 -1.421875 30.609375 -1.421875 
Q 18.84375 -1.421875 12.171875 6.21875 
Q 5.515625 13.875 5.515625 27.296875 
Q 5.515625 40.765625 12.171875 48.375 
Q 18.84375 56 30.609375 56 
z
" id="DejaVuSans-1086"/>
      <path d="M 3.71875 0 
L 3.71875 7.46875 
Q 12.59375 8.84375 15.328125 14.984375 
Q 18.65625 23.640625 18.65625 45.75 
L 18.65625 54.6875 
L 55.609375 54.6875 
L 55.609375 0 
L 46.625 0 
L 46.625 47.515625 
L 27.640625 47.515625 
L 27.640625 42.09375 
Q 27.640625 21 23.34375 11.53125 
Q 18.75 1.421875 3.71875 0 
z
" id="DejaVuSans-1083"/>
      <path d="M 18.453125 38.921875 
Q 18.453125 34.859375 21.578125 32.5625 
Q 24.703125 30.28125 30.515625 30.28125 
L 42.625 30.28125 
L 42.625 47.515625 
L 30.515625 47.515625 
Q 24.703125 47.515625 21.578125 45.265625 
Q 18.453125 43.015625 18.453125 38.921875 
z
M 5.671875 0 
L 22.359375 23.96875 
Q 16.703125 25.25 12.9375 28.59375 
Q 9.1875 31.9375 9.1875 38.921875 
Q 9.1875 46.828125 14.421875 50.75 
Q 19.671875 54.6875 30.28125 54.6875 
L 51.65625 54.6875 
L 51.65625 0 
L 42.625 0 
L 42.625 23.09375 
L 31.453125 23.09375 
L 15.328125 0 
z
" id="DejaVuSans-1103"/>
      <path id="DejaVuSans-32"/>
      <path d="M 34.28125 27.484375 
Q 23.390625 27.484375 19.1875 25 
Q 14.984375 22.515625 14.984375 16.5 
Q 14.984375 11.71875 18.140625 8.90625 
Q 21.296875 6.109375 26.703125 6.109375 
Q 34.1875 6.109375 38.703125 11.40625 
Q 43.21875 16.703125 43.21875 25.484375 
L 43.21875 27.484375 
z
M 52.203125 31.203125 
L 52.203125 0 
L 43.21875 0 
L 43.21875 8.296875 
Q 40.140625 3.328125 35.546875 0.953125 
Q 30.953125 -1.421875 24.3125 -1.421875 
Q 15.921875 -1.421875 10.953125 3.296875 
Q 6 8.015625 6 15.921875 
Q 6 25.140625 12.171875 29.828125 
Q 18.359375 34.515625 30.609375 34.515625 
L 43.21875 34.515625 
L 43.21875 35.40625 
Q 43.21875 41.609375 39.140625 45 
Q 35.0625 48.390625 27.6875 48.390625 
Q 23 48.390625 18.546875 47.265625 
Q 14.109375 46.140625 10.015625 43.890625 
L 10.015625 52.203125 
Q 14.9375 54.109375 19.578125 55.046875 
Q 24.21875 56 28.609375 56 
Q 40.484375 56 46.34375 49.84375 
Q 52.203125 43.703125 52.203125 31.203125 
z
" id="DejaVuSans-1072"/>
      <path d="M 9.078125 54.6875 
L 18.015625 54.6875 
L 18.015625 29 
L 43.359375 54.6875 
L 54.390625 54.6875 
L 33.5 33.546875 
L 57.078125 0 
L 47.015625 0 
L 27.640625 27.59375 
L 18.015625 17.828125 
L 18.015625 0 
L 9.078125 0 
z
" id="DejaVuSans-1082"/>
      <path d="M 56.296875 0 
L 9.078125 0 
L 9.078125 54.6875 
L 18.109375 54.6875 
L 18.109375 7.171875 
L 47.265625 7.171875 
L 47.265625 54.6875 
L 56.296875 54.6875 
L 56.296875 7.171875 
L 63.484375 7.171875 
L 63.484375 -13.8125 
L 56.296875 -13.8125 
z
" id="DejaVuSans-1094"/>
      <path d="M 55.90625 54.6875 
L 55.90625 0 
L 46.96875 0 
L 46.96875 43.890625 
L 20.609375 0 
L 9.078125 0 
L 9.078125 54.6875 
L 18.015625 54.6875 
L 18.015625 10.890625 
L 44.34375 54.6875 
z
" id="DejaVuSans-1080"/>
      <path d="M 55.90625 54.6875 
L 55.90625 0 
L 46.96875 0 
L 46.96875 43.890625 
L 20.609375 0 
L 9.078125 0 
L 9.078125 54.6875 
L 18.015625 54.6875 
L 18.015625 10.890625 
L 44.34375 54.6875 
z
M 17.234375 75.96875 
L 23 75.96875 
Q 23.53125 72.3125 25.890625 70.46875 
Q 28.265625 68.640625 32.515625 68.640625 
Q 36.71875 68.640625 39.0625 70.453125 
Q 41.40625 72.265625 42.046875 75.96875 
L 47.796875 75.96875 
Q 47.3125 68.984375 43.453125 65.46875 
Q 39.59375 61.953125 32.515625 61.953125 
Q 25.4375 61.953125 21.578125 65.46875 
Q 17.71875 68.984375 17.234375 75.96875 
z
" id="DejaVuSans-1081"/>
      <path d="M 11.71875 12.40625 
L 22.015625 12.40625 
L 22.015625 4 
L 14.015625 -11.625 
L 7.71875 -11.625 
L 11.71875 4 
z
" id="DejaVuSans-44"/>
      <path d="M 72.703125 32.078125 
Q 68.453125 32.078125 66.03125 28.46875 
Q 63.625 24.859375 63.625 18.40625 
Q 63.625 12.0625 66.03125 8.421875 
Q 68.453125 4.78125 72.703125 4.78125 
Q 76.859375 4.78125 79.265625 8.421875 
Q 81.6875 12.0625 81.6875 18.40625 
Q 81.6875 24.8125 79.265625 28.4375 
Q 76.859375 32.078125 72.703125 32.078125 
z
M 72.703125 38.28125 
Q 80.421875 38.28125 84.953125 32.90625 
Q 89.5 27.546875 89.5 18.40625 
Q 89.5 9.28125 84.9375 3.921875 
Q 80.375 -1.421875 72.703125 -1.421875 
Q 64.890625 -1.421875 60.34375 3.921875 
Q 55.8125 9.28125 55.8125 18.40625 
Q 55.8125 27.59375 60.375 32.9375 
Q 64.9375 38.28125 72.703125 38.28125 
z
M 22.3125 68.015625 
Q 18.109375 68.015625 15.6875 64.375 
Q 13.28125 60.75 13.28125 54.390625 
Q 13.28125 47.953125 15.671875 44.328125 
Q 18.0625 40.71875 22.3125 40.71875 
Q 26.5625 40.71875 28.96875 44.328125 
Q 31.390625 47.953125 31.390625 54.390625 
Q 31.390625 60.6875 28.953125 64.34375 
Q 26.515625 68.015625 22.3125 68.015625 
z
M 66.40625 74.21875 
L 74.21875 74.21875 
L 28.609375 -1.421875 
L 20.796875 -1.421875 
z
M 22.3125 74.21875 
Q 30.03125 74.21875 34.609375 68.875 
Q 39.203125 63.53125 39.203125 54.390625 
Q 39.203125 45.171875 34.640625 39.84375 
Q 30.078125 34.515625 22.3125 34.515625 
Q 14.546875 34.515625 10.03125 39.859375 
Q 5.515625 45.21875 5.515625 54.390625 
Q 5.515625 63.484375 10.046875 68.84375 
Q 14.59375 74.21875 22.3125 74.21875 
z
" id="DejaVuSans-37"/>
     </defs>
     <g transform="translate(256.975781 284.596563)scale(0.1 -0.1)">
      <use xlink:href="#DejaVuSans-1076"/>
      <use x="69.140625" xlink:href="#DejaVuSans-1086"/>
      <use x="130.322266" xlink:href="#DejaVuSans-1083"/>
      <use x="194.238281" xlink:href="#DejaVuSans-1103"/>
      <use x="254.394531" xlink:href="#DejaVuSans-32"/>
      <use x="286.181641" xlink:href="#DejaVuSans-1072"/>
      <use x="347.460938" xlink:href="#DejaVuSans-1082"/>
      <use x="407.861328" xlink:href="#DejaVuSans-1094"/>
      <use x="475.927734" xlink:href="#DejaVuSans-1080"/>
      <use x="540.917969" xlink:href="#DejaVuSans-1081"/>
      <use x="605.908203" xlink:href="#DejaVuSans-44"/>
      <use x="637.695312" xlink:href="#DejaVuSans-32"/>
      <use x="669.482422" xlink:href="#DejaVuSans-37"/>
     </g>
    </g>
   </g>
   <g id="matplotlib.axis_2">
    <g id="ytick_1">
     <g id="line2d_7">
      <defs>
       <path d="M 0 0 
L -3.5 0 
" id="m8ea1a1338b" style="stroke:#000000;stroke-width:0.8;"/>
      </defs>
      <g>
       <use style="stroke:#000000;stroke-width:0.8;" x="72" xlink:href="#m8ea1a1338b" y="243.769589"/>
      </g>
     </g>
     <g id="text_8">
      <!-- −30 -->
      <defs>
       <path d="M 10.59375 35.5 
L 73.1875 35.5 
L 73.1875 27.203125 
L 10.59375 27.203125 
z
" id="DejaVuSans-8722"/>
       <path d="M 40.578125 39.3125 
Q 47.65625 37.796875 51.625 33 
Q 55.609375 28.21875 55.609375 21.1875 
Q 55.609375 10.40625 48.1875 4.484375 
Q 40.765625 -1.421875 27.09375 -1.421875 
Q 22.515625 -1.421875 17.65625 -0.515625 
Q 12.796875 0.390625 7.625 2.203125 
L 7.625 11.71875 
Q 11.71875 9.328125 16.59375 8.109375 
Q 21.484375 6.890625 26.8125 6.890625 
Q 36.078125 6.890625 40.9375 10.546875 
Q 45.796875 14.203125 45.796875 21.1875 
Q 45.796875 27.640625 41.28125 31.265625 
Q 36.765625 34.90625 28.71875 34.90625 
L 20.21875 34.90625 
L 20.21875 43.015625 
L 29.109375 43.015625 
Q 36.375 43.015625 40.234375 45.921875 
Q 44.09375 48.828125 44.09375 54.296875 
Q 44.09375 59.90625 40.109375 62.90625 
Q 36.140625 65.921875 28.71875 65.921875 
Q 24.65625 65.921875 20.015625 65.03125 
Q 15.375 64.15625 9.8125 62.3125 
L 9.8125 71.09375 
Q 15.4375 72.65625 20.34375 73.4375 
Q 25.25 74.21875 29.59375 74.21875 
Q 40.828125 74.21875 47.359375 69.109375 
Q 53.90625 64.015625 53.90625 55.328125 
Q 53.90625 49.265625 50.4375 45.09375 
Q 46.96875 40.921875 40.578125 39.3125 
z
" id="DejaVuSans-51"/>
      </defs>
      <g transform="translate(43.895313 247.568808)scale(0.1 -0.1)">
       <use xlink:href="#DejaVuSans-8722"/>
       <use x="83.789062" xlink:href="#DejaVuSans-51"/>
       <use x="147.412109" xlink:href="#DejaVuSans-48"/>
      </g>
     </g>
    </g>
    <g id="ytick_2">
     <g id="line2d_8">
      <g>
       <use style="stroke:#000000;stroke-width:0.8;" x="72" xlink:href="#m8ea1a1338b" y="215.86961"/>
      </g>
     </g>
     <g id="text_9">
      <!-- −20 -->
      <g transform="translate(43.895313 219.668828)scale(0.1 -0.1)">
       <use xlink:href="#DejaVuSans-8722"/>
       <use x="83.789062" xlink:href="#DejaVuSans-50"/>
       <use x="147.412109" xlink:href="#DejaVuSans-48"/>
      </g>
     </g>
    </g>
    <g id="ytick_3">
     <g id="line2d_9">
      <g>
       <use style="stroke:#000000;stroke-width:0.8;" x="72" xlink:href="#m8ea1a1338b" y="187.96963"/>
      </g>
     </g>
     <g id="text_10">
      <!-- −10 -->
      <g transform="translate(43.895313 191.768849)scale(0.1 -0.1)">
       <use xlink:href="#DejaVuSans-8722"/>
       <use x="83.789062" xlink:href="#DejaVuSans-49"/>
       <use x="147.412109" xlink:href="#DejaVuSans-48"/>
      </g>
     </g>
    </g>
    <g id="ytick_4">
     <g id="line2d_10">
      <g>
       <use style="stroke:#000000;stroke-width:0.8;" x="72" xlink:href="#m8ea1a1338b" y="160.069651"/>
      </g>
     </g>
     <g id="text_11">
      <!-- 0 -->
      <g transform="translate(58.6375 163.868869)scale(0.1 -0.1)">
       <use xlink:href="#DejaVuSans-48"/>
      </g>
     </g>
    </g>
    <g id="ytick_5">
     <g id="line2d_11">
      <g>
       <use style="stroke:#000000;stroke-width:0.8;" x="72" xlink:href="#m8ea1a1338b" y="132.169671"/>
      </g>
     </g>
     <g id="text_12">
      <!-- 10 -->
      <g transform="translate(52.275 135.96889)scale(0.1 -0.1)">
       <use xlink:href="#DejaVuSans-49"/>
       <use x="63.623047" xlink:href="#DejaVuSans-48"/>
      </g>
     </g>
    </g>
    <g id="ytick_6">
     <g id="line2d_12">
      <g>
       <use style="stroke:#000000;stroke-width:0.8;" x="72" xlink:href="#m8ea1a1338b" y="104.269691"/>
      </g>
     </g>
     <g id="text_13">
      <!-- 20 -->
      <g transform="translate(52.275 108.06891)scale(0.1 -0.1)">
       <use xlink:href="#DejaVuSans-50"/>
       <use x="63.623047" xlink:href="#DejaVuSans-48"/>
      </g>
     </g>
    </g>
    <g id="ytick_7">
     <g id="line2d_13">
      <g>
       <use style="stroke:#000000;stroke-width:0.8;" x="72" xlink:href="#m8ea1a1338b" y="76.369712"/>
      </g>
     </g>
     <g id="text_14">
      <!-- 30 -->
      <g transform="translate(52.275 80.168931)scale(0.1 -0.1)">
       <use xlink:href="#DejaVuSans-51"/>
       <use x="63.623047" xlink:href="#DejaVuSans-48"/>
      </g>
     </g>
    </g>
    <g id="ytick_8">
     <g id="line2d_14">
      <g>
       <use style="stroke:#000000;stroke-width:0.8;" x="72" xlink:href="#m8ea1a1338b" y="48.469732"/>
      </g>
     </g>
     <g id="text_15">
      <!-- 40 -->
      <g transform="translate(52.275 52.268951)scale(0.1 -0.1)">
       <use xlink:href="#DejaVuSans-52"/>
       <use x="63.623047" xlink:href="#DejaVuSans-48"/>
      </g>
     </g>
    </g>
    <g id="text_16">
     <!-- доходность, %г -->
     <defs>
      <path d="M 54.890625 54.6875 
L 35.109375 28.078125 
L 55.90625 0 
L 45.3125 0 
L 29.390625 21.484375 
L 13.484375 0 
L 2.875 0 
L 24.125 28.609375 
L 4.6875 54.6875 
L 15.28125 54.6875 
L 29.78125 35.203125 
L 44.28125 54.6875 
z
" id="DejaVuSans-1093"/>
      <path d="M 9.078125 54.6875 
L 18.109375 54.6875 
L 18.109375 32.375 
L 47.265625 32.375 
L 47.265625 54.6875 
L 56.296875 54.6875 
L 56.296875 0 
L 47.265625 0 
L 47.265625 25.203125 
L 18.109375 25.203125 
L 18.109375 0 
L 9.078125 0 
z
" id="DejaVuSans-1085"/>
      <path d="M 48.78125 52.59375 
L 48.78125 44.1875 
Q 44.96875 46.296875 41.140625 47.34375 
Q 37.3125 48.390625 33.40625 48.390625 
Q 24.65625 48.390625 19.8125 42.84375 
Q 14.984375 37.3125 14.984375 27.296875 
Q 14.984375 17.28125 19.8125 11.734375 
Q 24.65625 6.203125 33.40625 6.203125 
Q 37.3125 6.203125 41.140625 7.25 
Q 44.96875 8.296875 48.78125 10.40625 
L 48.78125 2.09375 
Q 45.015625 0.34375 40.984375 -0.53125 
Q 36.96875 -1.421875 32.421875 -1.421875 
Q 20.0625 -1.421875 12.78125 6.34375 
Q 5.515625 14.109375 5.515625 27.296875 
Q 5.515625 40.671875 12.859375 48.328125 
Q 20.21875 56 33.015625 56 
Q 37.15625 56 41.109375 55.140625 
Q 45.0625 54.296875 48.78125 52.59375 
z
" id="DejaVuSans-1089"/>
      <path d="M 2.9375 54.6875 
L 55.328125 54.6875 
L 55.328125 47.515625 
L 33.546875 47.515625 
L 33.546875 0 
L 24.703125 0 
L 24.703125 47.515625 
L 2.9375 47.515625 
z
" id="DejaVuSans-1090"/>
      <path d="M 43.453125 16.21875 
Q 43.453125 20.609375 40.25 22.90625 
Q 37.0625 25.203125 30.90625 25.203125 
L 18.109375 25.203125 
L 18.109375 7.171875 
L 30.90625 7.171875 
Q 37.0625 7.171875 40.25 9.484375 
Q 43.453125 11.8125 43.453125 16.21875 
z
M 9.078125 54.6875 
L 18.109375 54.6875 
L 18.109375 32.375 
L 31.296875 32.375 
Q 41.75 32.375 47.390625 28.390625 
Q 53.03125 24.421875 53.03125 16.21875 
Q 53.03125 8.015625 47.390625 4 
Q 41.75 0 31.296875 0 
L 9.078125 0 
z
" id="DejaVuSans-1100"/>
      <path d="M 9.078125 0 
L 9.078125 54.6875 
L 47.65625 54.6875 
L 47.65625 47.515625 
L 18.109375 47.515625 
L 18.109375 0 
z
" id="DejaVuSans-1075"/>
     </defs>
     <g transform="translate(37.815625 186.925156)rotate(-90)scale(0.1 -0.1)">
      <use xlink:href="#DejaVuSans-1076"/>
      <use x="69.140625" xlink:href="#DejaVuSans-1086"/>
      <use x="130.322266" xlink:href="#DejaVuSans-1093"/>
      <use x="189.501953" xlink:href="#DejaVuSans-1086"/>
      <use x="250.683594" xlink:href="#DejaVuSans-1076"/>
      <use x="319.824219" xlink:href="#DejaVuSans-1085"/>
      <use x="385.205078" xlink:href="#DejaVuSans-1086"/>
      <use x="446.386719" xlink:href="#DejaVuSans-1089"/>
      <use x="501.367188" xlink:href="#DejaVuSans-1090"/>
      <use x="559.619141" xlink:href="#DejaVuSans-1100"/>
      <use x="618.554688" xlink:href="#DejaVuSans-44"/>
      <use x="650.341797" xlink:href="#DejaVuSans-32"/>
      <use x="682.128906" xlink:href="#DejaVuSans-37"/>
      <use x="777.148438" xlink:href="#DejaVuSans-1075"/>
     </g>
    </g>
   </g>
   <g id="line2d_15">
    <path clip-path="url(#p50f8c0a9e2)" d="M 92.290909 246.24 
L 92.57501 235.333016 
L 92.656182 233.693955 
L 92.859111 230.928175 
L 93.26497 228.007716 
L 93.346142 227.810272 
L 93.508485 227.137992 
L 93.630243 226.665281 
L 93.833172 225.730265 
L 93.873758 225.672143 
L 94.157859 223.899622 
L 94.847819 220.501953 
L 94.888405 220.482518 
L 95.010163 220.119953 
L 95.375436 219.768738 
L 95.659537 219.088422 
L 95.862466 218.390554 
L 96.430669 217.528857 
L 96.51184 217.508395 
L 96.755356 216.908573 
L 96.958285 216.699254 
L 97.161214 216.292709 
L 97.485901 215.87892 
L 97.648245 215.586615 
L 97.770002 215.343257 
L 97.932346 215.11094 
L 98.175861 214.848364 
L 99.068751 213.794527 
L 99.109336 213.7428 
L 99.27168 213.300311 
L 99.434023 213.185284 
L 99.636953 212.830265 
L 100.6516 211.754833 
L 100.854529 211.001142 
L 101.179216 210.823459 
L 101.463317 210.374061 
L 101.666247 210.250522 
L 101.909762 209.812248 
L 102.315621 209.574116 
L 102.721479 209.185332 
L 102.883823 208.860391 
L 104.263743 207.607288 
L 104.3855 207.463419 
L 105.643663 206.5972 
L 105.846592 206.463929 
L 106.090107 206.322994 
L 106.658309 205.975082 
L 106.861239 205.874849 
L 107.226512 205.520713 
L 107.957058 205.122536 
L 108.241159 204.965886 
L 108.32233 204.902023 
L 108.484674 204.573794 
L 109.21522 204.036579 
L 109.377563 203.83922 
L 109.580493 203.676012 
L 110.108109 203.388882 
L 110.513968 203.211198 
L 110.676311 203.076913 
L 114.085525 200.994997 
L 114.288454 200.883521 
L 114.653727 200.791048 
L 115.100172 200.683282 
L 115.627788 200.434463 
L 115.790132 200.321679 
L 115.993061 200.170709 
L 116.236576 199.950823 
L 116.723607 199.705913 
L 117.048294 199.607847 
L 117.77884 199.319058 
L 118.4688 199.030331 
L 118.95583 198.900686 
L 119.929891 198.594405 
L 120.33575 198.410667 
L 120.944538 198.192775 
L 121.147467 198.100641 
L 121.796842 197.852825 
L 122.2027 197.635304 
L 124.110236 196.715012 
L 124.597267 196.573185 
L 124.759611 196.446845 
L 125.084298 196.34649 
L 125.490156 196.209703 
L 129.061713 194.870618 
L 129.264643 194.800922 
L 133.160887 193.53711 
L 135.758383 192.869562 
L 136.286 192.703953 
L 136.894788 192.575404 
L 137.097717 192.474475 
L 139.370526 191.77119 
L 139.654627 191.666426 
L 140.385173 191.419336 
L 140.628688 191.260099 
L 145.417822 189.666144 
L 146.960085 189.310232 
L 147.284772 189.159436 
L 147.771803 189.020957 
L 148.502348 188.711205 
L 149.151722 188.515231 
L 149.395238 188.410003 
L 149.882268 188.305829 
L 150.856329 187.997347 
L 151.505703 187.828589 
L 152.479764 187.641314 
L 153.088552 187.441141 
L 153.819098 187.241532 
L 156.335423 186.538472 
L 158.851747 185.9622 
L 159.095262 185.872988 
L 159.338778 185.76815 
L 159.582293 185.724348 
L 160.840455 185.463819 
L 161.611587 185.32042 
L 162.545062 185.122859 
L 162.950921 185.034023 
L 163.15385 184.962266 
L 164.209083 184.741404 
L 165.142558 184.484224 
L 165.589003 184.318496 
L 165.954275 184.226469 
L 166.563064 184.127714 
L 166.765993 184.068786 
L 167.09068 183.986363 
L 168.186499 183.795545 
L 168.998216 183.57623 
L 169.404075 183.46454 
L 169.607004 183.350533 
L 169.931691 183.275796 
L 172.650945 182.76303 
L 173.137976 182.616889 
L 191.726307 178.644063 
L 192.943883 178.398107 
L 193.593258 178.291501 
L 195.297864 177.952546 
L 196.068996 177.806882 
L 196.271925 177.734346 
L 197.245986 177.541261 
L 197.935946 177.420055 
L 200.127584 177.100683 
L 200.817544 176.935074 
L 201.385746 176.816096 
L 201.872776 176.749046 
L 204.226757 176.359676 
L 205.038475 176.192927 
L 206.337223 175.971865 
L 208.975305 175.592814 
L 211.045185 175.240508 
L 211.491629 175.161818 
L 212.66862 174.970393 
L 212.993307 174.885392 
L 213.480337 174.776838 
L 214.373226 174.602744 
L 217.011308 174.11276 
L 218.553572 173.872217 
L 219.202946 173.750632 
L 219.487047 173.63383 
L 220.136421 173.513517 
L 220.704623 173.419643 
L 221.394583 173.256534 
L 222.246887 173.035963 
L 222.977432 172.91456 
L 223.707978 172.77495 
L 225.047312 172.563501 
L 225.574928 172.491456 
L 226.183717 172.384238 
L 226.427232 172.31534 
L 227.157778 172.205523 
L 228.050667 172.090925 
L 228.618869 171.944792 
L 228.862384 171.888782 
L 230.485819 171.599065 
L 231.175779 171.45184 
L 233.326831 171.096135 
L 233.651518 171.003845 
L 238.643581 170.186912 
L 238.968268 170.13544 
L 239.779985 169.991507 
L 240.023501 169.944627 
L 240.91639 169.828939 
L 241.484592 169.754496 
L 242.702168 169.548091 
L 243.108027 169.44722 
L 243.838573 169.312866 
L 244.366189 169.215694 
L 245.34025 169.048596 
L 246.273726 168.917525 
L 246.760756 168.800782 
L 247.653645 168.691676 
L 248.181262 168.585305 
L 250.210556 168.193911 
L 250.900516 168.024488 
L 253.132739 167.570034 
L 254.1068 167.336444 
L 260.032338 166.390872 
L 261.77753 166.108884 
L 262.67042 165.929545 
L 264.131511 165.691269 
L 264.415612 165.653568 
L 268.758301 165.053502 
L 270.016463 164.878974 
L 278.580083 163.468823 
L 279.229457 163.359886 
L 279.838246 163.237351 
L 285.926127 162.192144 
L 286.2914 162.070535 
L 287.143703 161.936768 
L 287.346633 161.865275 
L 290.674675 161.344872 
L 291.770493 161.206142 
L 296.437869 160.415227 
L 297.209001 160.265276 
L 297.777203 160.147666 
L 298.548335 160.010517 
L 306.909025 158.407149 
L 307.274298 158.331547 
L 308.573046 158.139777 
L 310.521168 157.8026 
L 311.251714 157.668015 
L 312.428705 157.506871 
L 313.15925 157.363759 
L 314.376827 157.162879 
L 315.269716 157.008877 
L 315.91909 156.903298 
L 316.487292 156.841938 
L 317.096081 156.70513 
L 317.339596 156.635685 
L 318.273071 156.507121 
L 325.497357 155.342911 
L 326.146731 155.221839 
L 326.593176 155.151536 
L 328.216611 154.860183 
L 328.581884 154.809145 
L 329.718288 154.605193 
L 331.66641 154.256374 
L 331.991097 154.102181 
L 332.396956 154.026432 
L 333.04633 153.912173 
L 334.263906 153.72329 
L 335.80617 153.398821 
L 337.064332 153.237758 
L 337.713706 153.088778 
L 343.801587 151.93463 
L 345.262679 151.656796 
L 345.587366 151.460931 
L 348.509549 150.854363 
L 350.741772 150.425715 
L 351.715833 150.252837 
L 352.324622 150.114698 
L 352.892824 149.988225 
L 353.663955 149.820976 
L 358.574847 148.990765 
L 358.818362 148.94299 
L 359.711251 148.814465 
L 360.198282 148.701648 
L 367.503739 147.139287 
L 367.747255 147.048299 
L 368.315457 146.973206 
L 369.289518 146.772501 
L 369.654791 146.687667 
L 370.385337 146.56733 
L 375.539743 145.557255 
L 376.676148 145.255805 
L 377.690795 145.012094 
L 379.435987 144.635586 
L 379.679502 144.557889 
L 380.125947 144.44068 
L 383.007544 143.919592 
L 383.25106 143.842171 
L 384.306292 143.698526 
L 385.523869 143.474252 
L 386.538516 143.251312 
L 388.648981 142.745537 
L 388.892497 142.687604 
L 391.002962 142.21657 
L 392.179953 142.004448 
L 392.464054 141.882256 
L 392.910498 141.773102 
L 393.438115 141.653353 
L 396.197954 140.965976 
L 401.839391 139.683084 
L 402.569937 139.541938 
L 405.126847 138.911515 
L 405.451534 138.842604 
L 406.222666 138.702157 
L 406.425595 138.635569 
L 407.399656 138.416331 
L 407.846101 138.295193 
L 414.380427 136.736969 
L 414.908044 136.585617 
L 416.937337 136.140634 
L 417.180853 136.021459 
L 419.656591 135.391435 
L 420.021864 135.300736 
L 420.184208 135.19007 
L 421.361198 134.843569 
L 421.726471 134.71635 
L 422.254087 134.578191 
L 422.741118 134.458947 
L 423.471664 134.265609 
L 424.323967 133.979755 
L 424.729826 133.870902 
L 425.298028 133.676596 
L 425.744473 133.569068 
L 426.921463 133.239926 
L 429.072515 132.720644 
L 431.264152 132.008987 
L 431.467081 131.912487 
L 432.035284 131.801069 
L 432.481728 131.667781 
L 432.806415 131.577506 
L 434.63278 131.112877 
L 434.835709 131.03574 
L 435.079224 130.916671 
L 435.606841 130.709755 
L 436.337386 130.491413 
L 436.540316 130.400059 
L 436.783831 130.30123 
L 438.650781 129.800901 
L 439.25957 129.564949 
L 441.694722 128.623513 
L 442.425268 128.429629 
L 442.587611 128.330352 
L 444.941592 127.736662 
L 445.144522 127.628201 
L 445.712724 127.509946 
L 445.996825 127.327473 
L 448.472564 126.549528 
L 448.634907 126.444031 
L 449.365453 126.255597 
L 450.664201 125.704637 
L 450.948302 125.594455 
L 452.044121 125.266403 
L 452.206464 125.195696 
L 452.368808 125.106969 
L 452.531151 124.989513 
L 453.911071 124.636466 
L 455.128647 124.19559 
L 455.331577 123.996529 
L 455.615678 123.877389 
L 455.859193 123.789197 
L 457.157941 123.345261 
L 457.685558 123.065031 
L 458.010245 123.010094 
L 458.25376 122.830511 
L 458.537861 122.734208 
L 458.74079 122.611556 
L 459.308993 122.422853 
L 459.511922 122.2972 
L 459.877195 122.218565 
L 461.419458 121.571745 
L 462.88055 120.988973 
L 463.205237 120.870103 
L 463.651682 120.618753 
L 465.072187 120.010685 
L 465.315702 119.88453 
L 465.559218 119.752817 
L 465.680975 119.663118 
L 465.924491 119.422748 
L 466.776794 119.124003 
L 466.979723 118.997033 
L 467.142067 118.893492 
L 467.344996 118.826418 
L 467.832027 118.672816 
L 468.68433 118.166902 
L 469.252533 117.941213 
L 469.496048 117.733482 
L 470.348351 117.249841 
L 470.510695 117.10654 
L 470.794796 116.900152 
L 471.038311 116.717703 
L 471.484756 116.45269 
L 471.687685 116.187091 
L 472.052958 116.081688 
L 472.539989 115.876466 
L 473.270534 115.351929 
L 473.676393 115.127495 
L 473.919908 114.946931 
L 474.244595 114.72959 
L 474.528697 114.634046 
L 474.853384 114.45762 
L 475.299828 114.270385 
L 475.502758 114.092809 
L 475.746273 113.95795 
L 476.355061 113.453886 
L 476.55799 113.338196 
L 476.801506 113.198018 
L 476.963849 113.063757 
L 477.572637 112.669047 
L 477.734981 112.333673 
L 478.993143 111.336469 
L 479.236658 111.232173 
L 479.399002 111.131812 
L 479.683103 110.807535 
L 480.00779 110.577163 
L 480.251305 110.293788 
L 480.535406 110.035156 
L 480.616578 109.932084 
L 480.778922 109.796043 
L 481.955912 108.849099 
L 482.158841 108.386787 
L 482.442942 108.147782 
L 482.5647 108.092406 
L 482.727044 107.939918 
L 486.095671 104.385182 
L 486.298601 104.091984 
L 486.582702 103.812689 
L 486.745045 103.482815 
L 486.907389 103.341584 
L 487.232076 103.046673 
L 487.475591 102.765223 
L 487.759692 102.600537 
L 488.084379 102.165801 
L 488.327895 102.004922 
L 488.774339 101.25777 
L 489.26137 100.800707 
L 489.7484 99.871398 
L 490.032501 99.309727 
L 490.235431 99.174262 
L 490.397774 98.926834 
L 490.600704 98.622048 
L 490.803633 98.0962 
L 490.965977 97.795987 
L 491.371835 96.316388 
L 491.493593 96.183185 
L 491.696522 95.934722 
L 492.102381 94.952544 
L 492.305311 94.773962 
L 492.467654 94.571989 
L 492.629998 94.346737 
L 492.711169 94.204109 
L 493.806988 90.94167 
L 494.050503 90.714718 
L 494.253433 89.742753 
L 494.537534 88.650597 
L 494.618706 88.54365 
L 494.983978 86.924252 
L 495.024564 86.911535 
L 495.227494 85.377791 
L 495.26808 85.37648 
L 495.552181 81.624466 
L 495.714524 80.080916 
L 495.917454 79.423023 
L 496.120383 78.325905 
L 496.160969 78.256459 
L 496.44507 75.582904 
L 496.566828 73.520933 
L 496.647999 73.402942 
L 496.891515 70.599845 
L 497.094444 68.24954 
L 497.13503 68.161935 
L 497.540889 64.057387 
L 497.581475 63.882311 
L 497.662646 60.588589 
L 498.109091 44.64 
L 498.109091 44.64 
" style="fill:none;stroke:#1f77b4;stroke-linecap:square;stroke-width:1.5;"/>
   </g>
   <g id="line2d_16">
    <path clip-path="url(#p50f8c0a9e2)" d="M 295.220293 256.32 
L 295.220293 34.56 
" style="fill:none;stroke:#808080;stroke-linecap:square;stroke-width:0.3;"/>
   </g>
   <g id="line2d_17">
    <path clip-path="url(#p50f8c0a9e2)" d="M 72 160.069651 
L 518.4 160.069651 
" style="fill:none;stroke:#808080;stroke-linecap:square;stroke-width:0.3;"/>
   </g>
   <g id="patch_3">
    <path d="M 72 256.32 
L 72 34.56 
" style="fill:none;stroke:#000000;stroke-linecap:square;stroke-linejoin:miter;stroke-width:0.8;"/>
   </g>
   <g id="patch_4">
    <path d="M 518.4 256.32 
L 518.4 34.56 
" style="fill:none;stroke:#000000;stroke-linecap:square;stroke-linejoin:miter;stroke-width:0.8;"/>
   </g>
   <g id="patch_5">
    <path d="M 72 256.32 
L 518.4 256.32 
" style="fill:none;stroke:#000000;stroke-linecap:square;stroke-linejoin:miter;stroke-width:0.8;"/>
   </g>
   <g id="patch_6">
    <path d="M 72 34.56 
L 518.4 34.56 
" style="fill:none;stroke:#000000;stroke-linecap:square;stroke-linejoin:miter;stroke-width:0.8;"/>
   </g>
  </g>
 </g>
 <defs>
  <clipPath id="p50f8c0a9e2">
   <rect height="221.76" width="446.4" x="72" y="34.56"/>
  </clipPath>
 </defs>
</svg>
