<?xml version="1.0" encoding="utf-8" standalone="no"?>
<!DOCTYPE svg PUBLIC "-//W3C//DTD SVG 1.1//EN"
  "http://www.w3.org/Graphics/SVG/1.1/DTD/svg11.dtd">
<!-- Created with matplotlib (https://matplotlib.org/) -->
<svg height="288pt" version="1.1" viewBox="0 0 576 288" width="576pt" xmlns="http://www.w3.org/2000/svg" xmlns:xlink="http://www.w3.org/1999/xlink">
 <defs>
  <style type="text/css">
*{stroke-linecap:butt;stroke-linejoin:round;}
  </style>
 </defs>
 <g id="figure_1">
  <g id="patch_1">
   <path d="M 0 288 
L 576 288 
L 576 0 
L 0 0 
z
" style="fill:#ffffff;"/>
  </g>
  <g id="axes_1">
   <g id="patch_2">
    <path d="M 72 256.32 
L 518.4 256.32 
L 518.4 34.56 
L 72 34.56 
z
" style="fill:#ffffff;"/>
   </g>
   <g id="matplotlib.axis_1">
    <g id="xtick_1">
     <g id="line2d_1">
      <defs>
       <path d="M 0 0 
L 0 3.5 
" id="m621edcd03d" style="stroke:#000000;stroke-width:0.8;"/>
      </defs>
      <g>
       <use style="stroke:#000000;stroke-width:0.8;" x="92.290909" xlink:href="#m621edcd03d" y="256.32"/>
      </g>
     </g>
     <g id="text_1">
      <!-- 0 -->
      <defs>
       <path d="M 31.78125 66.40625 
Q 24.171875 66.40625 20.328125 58.90625 
Q 16.5 51.421875 16.5 36.375 
Q 16.5 21.390625 20.328125 13.890625 
Q 24.171875 6.390625 31.78125 6.390625 
Q 39.453125 6.390625 43.28125 13.890625 
Q 47.125 21.390625 47.125 36.375 
Q 47.125 51.421875 43.28125 58.90625 
Q 39.453125 66.40625 31.78125 66.40625 
z
M 31.78125 74.21875 
Q 44.046875 74.21875 50.515625 64.515625 
Q 56.984375 54.828125 56.984375 36.375 
Q 56.984375 17.96875 50.515625 8.265625 
Q 44.046875 -1.421875 31.78125 -1.421875 
Q 19.53125 -1.421875 13.0625 8.265625 
Q 6.59375 17.96875 6.59375 36.375 
Q 6.59375 54.828125 13.0625 64.515625 
Q 19.53125 74.21875 31.78125 74.21875 
z
" id="DejaVuSans-48"/>
      </defs>
      <g transform="translate(89.109659 270.918437)scale(0.1 -0.1)">
       <use xlink:href="#DejaVuSans-48"/>
      </g>
     </g>
    </g>
    <g id="xtick_2">
     <g id="line2d_2">
      <g>
       <use style="stroke:#000000;stroke-width:0.8;" x="173.462663" xlink:href="#m621edcd03d" y="256.32"/>
      </g>
     </g>
     <g id="text_2">
      <!-- 20 -->
      <defs>
       <path d="M 19.1875 8.296875 
L 53.609375 8.296875 
L 53.609375 0 
L 7.328125 0 
L 7.328125 8.296875 
Q 12.9375 14.109375 22.625 23.890625 
Q 32.328125 33.6875 34.8125 36.53125 
Q 39.546875 41.84375 41.421875 45.53125 
Q 43.3125 49.21875 43.3125 52.78125 
Q 43.3125 58.59375 39.234375 62.25 
Q 35.15625 65.921875 28.609375 65.921875 
Q 23.96875 65.921875 18.8125 64.3125 
Q 13.671875 62.703125 7.8125 59.421875 
L 7.8125 69.390625 
Q 13.765625 71.78125 18.9375 73 
Q 24.125 74.21875 28.421875 74.21875 
Q 39.75 74.21875 46.484375 68.546875 
Q 53.21875 62.890625 53.21875 53.421875 
Q 53.21875 48.921875 51.53125 44.890625 
Q 49.859375 40.875 45.40625 35.40625 
Q 44.1875 33.984375 37.640625 27.21875 
Q 31.109375 20.453125 19.1875 8.296875 
z
" id="DejaVuSans-50"/>
      </defs>
      <g transform="translate(167.100163 270.918437)scale(0.1 -0.1)">
       <use xlink:href="#DejaVuSans-50"/>
       <use x="63.623047" xlink:href="#DejaVuSans-48"/>
      </g>
     </g>
    </g>
    <g id="xtick_3">
     <g id="line2d_3">
      <g>
       <use style="stroke:#000000;stroke-width:0.8;" x="254.634416" xlink:href="#m621edcd03d" y="256.32"/>
      </g>
     </g>
     <g id="text_3">
      <!-- 40 -->
      <defs>
       <path d="M 37.796875 64.3125 
L 12.890625 25.390625 
L 37.796875 25.390625 
z
M 35.203125 72.90625 
L 47.609375 72.90625 
L 47.609375 25.390625 
L 58.015625 25.390625 
L 58.015625 17.1875 
L 47.609375 17.1875 
L 47.609375 0 
L 37.796875 0 
L 37.796875 17.1875 
L 4.890625 17.1875 
L 4.890625 26.703125 
z
" id="DejaVuSans-52"/>
      </defs>
      <g transform="translate(248.271916 270.918437)scale(0.1 -0.1)">
       <use xlink:href="#DejaVuSans-52"/>
       <use x="63.623047" xlink:href="#DejaVuSans-48"/>
      </g>
     </g>
    </g>
    <g id="xtick_4">
     <g id="line2d_4">
      <g>
       <use style="stroke:#000000;stroke-width:0.8;" x="335.80617" xlink:href="#m621edcd03d" y="256.32"/>
      </g>
     </g>
     <g id="text_4">
      <!-- 60 -->
      <defs>
       <path d="M 33.015625 40.375 
Q 26.375 40.375 22.484375 35.828125 
Q 18.609375 31.296875 18.609375 23.390625 
Q 18.609375 15.53125 22.484375 10.953125 
Q 26.375 6.390625 33.015625 6.390625 
Q 39.65625 6.390625 43.53125 10.953125 
Q 47.40625 15.53125 47.40625 23.390625 
Q 47.40625 31.296875 43.53125 35.828125 
Q 39.65625 40.375 33.015625 40.375 
z
M 52.59375 71.296875 
L 52.59375 62.3125 
Q 48.875 64.0625 45.09375 64.984375 
Q 41.3125 65.921875 37.59375 65.921875 
Q 27.828125 65.921875 22.671875 59.328125 
Q 17.53125 52.734375 16.796875 39.40625 
Q 19.671875 43.65625 24.015625 45.921875 
Q 28.375 48.1875 33.59375 48.1875 
Q 44.578125 48.1875 50.953125 41.515625 
Q 57.328125 34.859375 57.328125 23.390625 
Q 57.328125 12.15625 50.6875 5.359375 
Q 44.046875 -1.421875 33.015625 -1.421875 
Q 20.359375 -1.421875 13.671875 8.265625 
Q 6.984375 17.96875 6.984375 36.375 
Q 6.984375 53.65625 15.1875 63.9375 
Q 23.390625 74.21875 37.203125 74.21875 
Q 40.921875 74.21875 44.703125 73.484375 
Q 48.484375 72.75 52.59375 71.296875 
z
" id="DejaVuSans-54"/>
      </defs>
      <g transform="translate(329.44367 270.918437)scale(0.1 -0.1)">
       <use xlink:href="#DejaVuSans-54"/>
       <use x="63.623047" xlink:href="#DejaVuSans-48"/>
      </g>
     </g>
    </g>
    <g id="xtick_5">
     <g id="line2d_5">
      <g>
       <use style="stroke:#000000;stroke-width:0.8;" x="416.977923" xlink:href="#m621edcd03d" y="256.32"/>
      </g>
     </g>
     <g id="text_5">
      <!-- 80 -->
      <defs>
       <path d="M 31.78125 34.625 
Q 24.75 34.625 20.71875 30.859375 
Q 16.703125 27.09375 16.703125 20.515625 
Q 16.703125 13.921875 20.71875 10.15625 
Q 24.75 6.390625 31.78125 6.390625 
Q 38.8125 6.390625 42.859375 10.171875 
Q 46.921875 13.96875 46.921875 20.515625 
Q 46.921875 27.09375 42.890625 30.859375 
Q 38.875 34.625 31.78125 34.625 
z
M 21.921875 38.8125 
Q 15.578125 40.375 12.03125 44.71875 
Q 8.5 49.078125 8.5 55.328125 
Q 8.5 64.0625 14.71875 69.140625 
Q 20.953125 74.21875 31.78125 74.21875 
Q 42.671875 74.21875 48.875 69.140625 
Q 55.078125 64.0625 55.078125 55.328125 
Q 55.078125 49.078125 51.53125 44.71875 
Q 48 40.375 41.703125 38.8125 
Q 48.828125 37.15625 52.796875 32.3125 
Q 56.78125 27.484375 56.78125 20.515625 
Q 56.78125 9.90625 50.3125 4.234375 
Q 43.84375 -1.421875 31.78125 -1.421875 
Q 19.734375 -1.421875 13.25 4.234375 
Q 6.78125 9.90625 6.78125 20.515625 
Q 6.78125 27.484375 10.78125 32.3125 
Q 14.796875 37.15625 21.921875 38.8125 
z
M 18.3125 54.390625 
Q 18.3125 48.734375 21.84375 45.5625 
Q 25.390625 42.390625 31.78125 42.390625 
Q 38.140625 42.390625 41.71875 45.5625 
Q 45.3125 48.734375 45.3125 54.390625 
Q 45.3125 60.0625 41.71875 63.234375 
Q 38.140625 66.40625 31.78125 66.40625 
Q 25.390625 66.40625 21.84375 63.234375 
Q 18.3125 60.0625 18.3125 54.390625 
z
" id="DejaVuSans-56"/>
      </defs>
      <g transform="translate(410.615423 270.918437)scale(0.1 -0.1)">
       <use xlink:href="#DejaVuSans-56"/>
       <use x="63.623047" xlink:href="#DejaVuSans-48"/>
      </g>
     </g>
    </g>
    <g id="xtick_6">
     <g id="line2d_6">
      <g>
       <use style="stroke:#000000;stroke-width:0.8;" x="498.149677" xlink:href="#m621edcd03d" y="256.32"/>
      </g>
     </g>
     <g id="text_6">
      <!-- 100 -->
      <defs>
       <path d="M 12.40625 8.296875 
L 28.515625 8.296875 
L 28.515625 63.921875 
L 10.984375 60.40625 
L 10.984375 69.390625 
L 28.421875 72.90625 
L 38.28125 72.90625 
L 38.28125 8.296875 
L 54.390625 8.296875 
L 54.390625 0 
L 12.40625 0 
z
" id="DejaVuSans-49"/>
      </defs>
      <g transform="translate(488.605927 270.918437)scale(0.1 -0.1)">
       <use xlink:href="#DejaVuSans-49"/>
       <use x="63.623047" xlink:href="#DejaVuSans-48"/>
       <use x="127.246094" xlink:href="#DejaVuSans-48"/>
      </g>
     </g>
    </g>
    <g id="text_7">
     <!-- доля акций, % -->
     <defs>
      <path d="M 21.625 7.171875 
L 47.703125 7.171875 
L 47.703125 47.515625 
L 28.8125 47.515625 
L 28.8125 40.671875 
Q 28.8125 20.5625 23.046875 9.8125 
z
M 8.59375 7.171875 
Q 13.03125 9.125 14.984375 13.28125 
Q 19.78125 23.578125 19.78125 44.34375 
L 19.78125 54.6875 
L 56.734375 54.6875 
L 56.734375 7.171875 
L 63.921875 7.171875 
L 63.921875 -13.8125 
L 56.734375 -13.8125 
L 56.734375 0 
L 12.40625 0 
L 12.40625 -13.8125 
L 5.21875 -13.8125 
L 5.21875 7.171875 
z
" id="DejaVuSans-1076"/>
      <path d="M 30.609375 48.390625 
Q 23.390625 48.390625 19.1875 42.75 
Q 14.984375 37.109375 14.984375 27.296875 
Q 14.984375 17.484375 19.15625 11.84375 
Q 23.34375 6.203125 30.609375 6.203125 
Q 37.796875 6.203125 41.984375 11.859375 
Q 46.1875 17.53125 46.1875 27.296875 
Q 46.1875 37.015625 41.984375 42.703125 
Q 37.796875 48.390625 30.609375 48.390625 
z
M 30.609375 56 
Q 42.328125 56 49.015625 48.375 
Q 55.71875 40.765625 55.71875 27.296875 
Q 55.71875 13.875 49.015625 6.21875 
Q 42.328125 -1.421875 30.609375 -1.421875 
Q 18.84375 -1.421875 12.171875 6.21875 
Q 5.515625 13.875 5.515625 27.296875 
Q 5.515625 40.765625 12.171875 48.375 
Q 18.84375 56 30.609375 56 
z
" id="DejaVuSans-1086"/>
      <path d="M 3.71875 0 
L 3.71875 7.46875 
Q 12.59375 8.84375 15.328125 14.984375 
Q 18.65625 23.640625 18.65625 45.75 
L 18.65625 54.6875 
L 55.609375 54.6875 
L 55.609375 0 
L 46.625 0 
L 46.625 47.515625 
L 27.640625 47.515625 
L 27.640625 42.09375 
Q 27.640625 21 23.34375 11.53125 
Q 18.75 1.421875 3.71875 0 
z
" id="DejaVuSans-1083"/>
      <path d="M 18.453125 38.921875 
Q 18.453125 34.859375 21.578125 32.5625 
Q 24.703125 30.28125 30.515625 30.28125 
L 42.625 30.28125 
L 42.625 47.515625 
L 30.515625 47.515625 
Q 24.703125 47.515625 21.578125 45.265625 
Q 18.453125 43.015625 18.453125 38.921875 
z
M 5.671875 0 
L 22.359375 23.96875 
Q 16.703125 25.25 12.9375 28.59375 
Q 9.1875 31.9375 9.1875 38.921875 
Q 9.1875 46.828125 14.421875 50.75 
Q 19.671875 54.6875 30.28125 54.6875 
L 51.65625 54.6875 
L 51.65625 0 
L 42.625 0 
L 42.625 23.09375 
L 31.453125 23.09375 
L 15.328125 0 
z
" id="DejaVuSans-1103"/>
      <path id="DejaVuSans-32"/>
      <path d="M 34.28125 27.484375 
Q 23.390625 27.484375 19.1875 25 
Q 14.984375 22.515625 14.984375 16.5 
Q 14.984375 11.71875 18.140625 8.90625 
Q 21.296875 6.109375 26.703125 6.109375 
Q 34.1875 6.109375 38.703125 11.40625 
Q 43.21875 16.703125 43.21875 25.484375 
L 43.21875 27.484375 
z
M 52.203125 31.203125 
L 52.203125 0 
L 43.21875 0 
L 43.21875 8.296875 
Q 40.140625 3.328125 35.546875 0.953125 
Q 30.953125 -1.421875 24.3125 -1.421875 
Q 15.921875 -1.421875 10.953125 3.296875 
Q 6 8.015625 6 15.921875 
Q 6 25.140625 12.171875 29.828125 
Q 18.359375 34.515625 30.609375 34.515625 
L 43.21875 34.515625 
L 43.21875 35.40625 
Q 43.21875 41.609375 39.140625 45 
Q 35.0625 48.390625 27.6875 48.390625 
Q 23 48.390625 18.546875 47.265625 
Q 14.109375 46.140625 10.015625 43.890625 
L 10.015625 52.203125 
Q 14.9375 54.109375 19.578125 55.046875 
Q 24.21875 56 28.609375 56 
Q 40.484375 56 46.34375 49.84375 
Q 52.203125 43.703125 52.203125 31.203125 
z
" id="DejaVuSans-1072"/>
      <path d="M 9.078125 54.6875 
L 18.015625 54.6875 
L 18.015625 29 
L 43.359375 54.6875 
L 54.390625 54.6875 
L 33.5 33.546875 
L 57.078125 0 
L 47.015625 0 
L 27.640625 27.59375 
L 18.015625 17.828125 
L 18.015625 0 
L 9.078125 0 
z
" id="DejaVuSans-1082"/>
      <path d="M 56.296875 0 
L 9.078125 0 
L 9.078125 54.6875 
L 18.109375 54.6875 
L 18.109375 7.171875 
L 47.265625 7.171875 
L 47.265625 54.6875 
L 56.296875 54.6875 
L 56.296875 7.171875 
L 63.484375 7.171875 
L 63.484375 -13.8125 
L 56.296875 -13.8125 
z
" id="DejaVuSans-1094"/>
      <path d="M 55.90625 54.6875 
L 55.90625 0 
L 46.96875 0 
L 46.96875 43.890625 
L 20.609375 0 
L 9.078125 0 
L 9.078125 54.6875 
L 18.015625 54.6875 
L 18.015625 10.890625 
L 44.34375 54.6875 
z
" id="DejaVuSans-1080"/>
      <path d="M 55.90625 54.6875 
L 55.90625 0 
L 46.96875 0 
L 46.96875 43.890625 
L 20.609375 0 
L 9.078125 0 
L 9.078125 54.6875 
L 18.015625 54.6875 
L 18.015625 10.890625 
L 44.34375 54.6875 
z
M 17.234375 75.96875 
L 23 75.96875 
Q 23.53125 72.3125 25.890625 70.46875 
Q 28.265625 68.640625 32.515625 68.640625 
Q 36.71875 68.640625 39.0625 70.453125 
Q 41.40625 72.265625 42.046875 75.96875 
L 47.796875 75.96875 
Q 47.3125 68.984375 43.453125 65.46875 
Q 39.59375 61.953125 32.515625 61.953125 
Q 25.4375 61.953125 21.578125 65.46875 
Q 17.71875 68.984375 17.234375 75.96875 
z
" id="DejaVuSans-1081"/>
      <path d="M 11.71875 12.40625 
L 22.015625 12.40625 
L 22.015625 4 
L 14.015625 -11.625 
L 7.71875 -11.625 
L 11.71875 4 
z
" id="DejaVuSans-44"/>
      <path d="M 72.703125 32.078125 
Q 68.453125 32.078125 66.03125 28.46875 
Q 63.625 24.859375 63.625 18.40625 
Q 63.625 12.0625 66.03125 8.421875 
Q 68.453125 4.78125 72.703125 4.78125 
Q 76.859375 4.78125 79.265625 8.421875 
Q 81.6875 12.0625 81.6875 18.40625 
Q 81.6875 24.8125 79.265625 28.4375 
Q 76.859375 32.078125 72.703125 32.078125 
z
M 72.703125 38.28125 
Q 80.421875 38.28125 84.953125 32.90625 
Q 89.5 27.546875 89.5 18.40625 
Q 89.5 9.28125 84.9375 3.921875 
Q 80.375 -1.421875 72.703125 -1.421875 
Q 64.890625 -1.421875 60.34375 3.921875 
Q 55.8125 9.28125 55.8125 18.40625 
Q 55.8125 27.59375 60.375 32.9375 
Q 64.9375 38.28125 72.703125 38.28125 
z
M 22.3125 68.015625 
Q 18.109375 68.015625 15.6875 64.375 
Q 13.28125 60.75 13.28125 54.390625 
Q 13.28125 47.953125 15.671875 44.328125 
Q 18.0625 40.71875 22.3125 40.71875 
Q 26.5625 40.71875 28.96875 44.328125 
Q 31.390625 47.953125 31.390625 54.390625 
Q 31.390625 60.6875 28.953125 64.34375 
Q 26.515625 68.015625 22.3125 68.015625 
z
M 66.40625 74.21875 
L 74.21875 74.21875 
L 28.609375 -1.421875 
L 20.796875 -1.421875 
z
M 22.3125 74.21875 
Q 30.03125 74.21875 34.609375 68.875 
Q 39.203125 63.53125 39.203125 54.390625 
Q 39.203125 45.171875 34.640625 39.84375 
Q 30.078125 34.515625 22.3125 34.515625 
Q 14.546875 34.515625 10.03125 39.859375 
Q 5.515625 45.21875 5.515625 54.390625 
Q 5.515625 63.484375 10.046875 68.84375 
Q 14.59375 74.21875 22.3125 74.21875 
z
" id="DejaVuSans-37"/>
     </defs>
     <g transform="translate(256.975781 284.596563)scale(0.1 -0.1)">
      <use xlink:href="#DejaVuSans-1076"/>
      <use x="69.140625" xlink:href="#DejaVuSans-1086"/>
      <use x="130.322266" xlink:href="#DejaVuSans-1083"/>
      <use x="194.238281" xlink:href="#DejaVuSans-1103"/>
      <use x="254.394531" xlink:href="#DejaVuSans-32"/>
      <use x="286.181641" xlink:href="#DejaVuSans-1072"/>
      <use x="347.460938" xlink:href="#DejaVuSans-1082"/>
      <use x="407.861328" xlink:href="#DejaVuSans-1094"/>
      <use x="475.927734" xlink:href="#DejaVuSans-1080"/>
      <use x="540.917969" xlink:href="#DejaVuSans-1081"/>
      <use x="605.908203" xlink:href="#DejaVuSans-44"/>
      <use x="637.695312" xlink:href="#DejaVuSans-32"/>
      <use x="669.482422" xlink:href="#DejaVuSans-37"/>
     </g>
    </g>
   </g>
   <g id="matplotlib.axis_2">
    <g id="ytick_1">
     <g id="line2d_7">
      <defs>
       <path d="M 0 0 
L -3.5 0 
" id="m93524987bc" style="stroke:#000000;stroke-width:0.8;"/>
      </defs>
      <g>
       <use style="stroke:#000000;stroke-width:0.8;" x="72" xlink:href="#m93524987bc" y="245.043991"/>
      </g>
     </g>
     <g id="text_8">
      <!-- −30 -->
      <defs>
       <path d="M 10.59375 35.5 
L 73.1875 35.5 
L 73.1875 27.203125 
L 10.59375 27.203125 
z
" id="DejaVuSans-8722"/>
       <path d="M 40.578125 39.3125 
Q 47.65625 37.796875 51.625 33 
Q 55.609375 28.21875 55.609375 21.1875 
Q 55.609375 10.40625 48.1875 4.484375 
Q 40.765625 -1.421875 27.09375 -1.421875 
Q 22.515625 -1.421875 17.65625 -0.515625 
Q 12.796875 0.390625 7.625 2.203125 
L 7.625 11.71875 
Q 11.71875 9.328125 16.59375 8.109375 
Q 21.484375 6.890625 26.8125 6.890625 
Q 36.078125 6.890625 40.9375 10.546875 
Q 45.796875 14.203125 45.796875 21.1875 
Q 45.796875 27.640625 41.28125 31.265625 
Q 36.765625 34.90625 28.71875 34.90625 
L 20.21875 34.90625 
L 20.21875 43.015625 
L 29.109375 43.015625 
Q 36.375 43.015625 40.234375 45.921875 
Q 44.09375 48.828125 44.09375 54.296875 
Q 44.09375 59.90625 40.109375 62.90625 
Q 36.140625 65.921875 28.71875 65.921875 
Q 24.65625 65.921875 20.015625 65.03125 
Q 15.375 64.15625 9.8125 62.3125 
L 9.8125 71.09375 
Q 15.4375 72.65625 20.34375 73.4375 
Q 25.25 74.21875 29.59375 74.21875 
Q 40.828125 74.21875 47.359375 69.109375 
Q 53.90625 64.015625 53.90625 55.328125 
Q 53.90625 49.265625 50.4375 45.09375 
Q 46.96875 40.921875 40.578125 39.3125 
z
" id="DejaVuSans-51"/>
      </defs>
      <g transform="translate(43.895313 248.843209)scale(0.1 -0.1)">
       <use xlink:href="#DejaVuSans-8722"/>
       <use x="83.789062" xlink:href="#DejaVuSans-51"/>
       <use x="147.412109" xlink:href="#DejaVuSans-48"/>
      </g>
     </g>
    </g>
    <g id="ytick_2">
     <g id="line2d_8">
      <g>
       <use style="stroke:#000000;stroke-width:0.8;" x="72" xlink:href="#m93524987bc" y="219.036574"/>
      </g>
     </g>
     <g id="text_9">
      <!-- −20 -->
      <g transform="translate(43.895313 222.835792)scale(0.1 -0.1)">
       <use xlink:href="#DejaVuSans-8722"/>
       <use x="83.789062" xlink:href="#DejaVuSans-50"/>
       <use x="147.412109" xlink:href="#DejaVuSans-48"/>
      </g>
     </g>
    </g>
    <g id="ytick_3">
     <g id="line2d_9">
      <g>
       <use style="stroke:#000000;stroke-width:0.8;" x="72" xlink:href="#m93524987bc" y="193.029156"/>
      </g>
     </g>
     <g id="text_10">
      <!-- −10 -->
      <g transform="translate(43.895313 196.828375)scale(0.1 -0.1)">
       <use xlink:href="#DejaVuSans-8722"/>
       <use x="83.789062" xlink:href="#DejaVuSans-49"/>
       <use x="147.412109" xlink:href="#DejaVuSans-48"/>
      </g>
     </g>
    </g>
    <g id="ytick_4">
     <g id="line2d_10">
      <g>
       <use style="stroke:#000000;stroke-width:0.8;" x="72" xlink:href="#m93524987bc" y="167.021739"/>
      </g>
     </g>
     <g id="text_11">
      <!-- 0 -->
      <g transform="translate(58.6375 170.820958)scale(0.1 -0.1)">
       <use xlink:href="#DejaVuSans-48"/>
      </g>
     </g>
    </g>
    <g id="ytick_5">
     <g id="line2d_11">
      <g>
       <use style="stroke:#000000;stroke-width:0.8;" x="72" xlink:href="#m93524987bc" y="141.014322"/>
      </g>
     </g>
     <g id="text_12">
      <!-- 10 -->
      <g transform="translate(52.275 144.813541)scale(0.1 -0.1)">
       <use xlink:href="#DejaVuSans-49"/>
       <use x="63.623047" xlink:href="#DejaVuSans-48"/>
      </g>
     </g>
    </g>
    <g id="ytick_6">
     <g id="line2d_12">
      <g>
       <use style="stroke:#000000;stroke-width:0.8;" x="72" xlink:href="#m93524987bc" y="115.006905"/>
      </g>
     </g>
     <g id="text_13">
      <!-- 20 -->
      <g transform="translate(52.275 118.806124)scale(0.1 -0.1)">
       <use xlink:href="#DejaVuSans-50"/>
       <use x="63.623047" xlink:href="#DejaVuSans-48"/>
      </g>
     </g>
    </g>
    <g id="ytick_7">
     <g id="line2d_13">
      <g>
       <use style="stroke:#000000;stroke-width:0.8;" x="72" xlink:href="#m93524987bc" y="88.999488"/>
      </g>
     </g>
     <g id="text_14">
      <!-- 30 -->
      <g transform="translate(52.275 92.798706)scale(0.1 -0.1)">
       <use xlink:href="#DejaVuSans-51"/>
       <use x="63.623047" xlink:href="#DejaVuSans-48"/>
      </g>
     </g>
    </g>
    <g id="ytick_8">
     <g id="line2d_14">
      <g>
       <use style="stroke:#000000;stroke-width:0.8;" x="72" xlink:href="#m93524987bc" y="62.99207"/>
      </g>
     </g>
     <g id="text_15">
      <!-- 40 -->
      <g transform="translate(52.275 66.791289)scale(0.1 -0.1)">
       <use xlink:href="#DejaVuSans-52"/>
       <use x="63.623047" xlink:href="#DejaVuSans-48"/>
      </g>
     </g>
    </g>
    <g id="ytick_9">
     <g id="line2d_15">
      <g>
       <use style="stroke:#000000;stroke-width:0.8;" x="72" xlink:href="#m93524987bc" y="36.984653"/>
      </g>
     </g>
     <g id="text_16">
      <!-- 50 -->
      <defs>
       <path d="M 10.796875 72.90625 
L 49.515625 72.90625 
L 49.515625 64.59375 
L 19.828125 64.59375 
L 19.828125 46.734375 
Q 21.96875 47.46875 24.109375 47.828125 
Q 26.265625 48.1875 28.421875 48.1875 
Q 40.625 48.1875 47.75 41.5 
Q 54.890625 34.8125 54.890625 23.390625 
Q 54.890625 11.625 47.5625 5.09375 
Q 40.234375 -1.421875 26.90625 -1.421875 
Q 22.3125 -1.421875 17.546875 -0.640625 
Q 12.796875 0.140625 7.71875 1.703125 
L 7.71875 11.625 
Q 12.109375 9.234375 16.796875 8.0625 
Q 21.484375 6.890625 26.703125 6.890625 
Q 35.15625 6.890625 40.078125 11.328125 
Q 45.015625 15.765625 45.015625 23.390625 
Q 45.015625 31 40.078125 35.4375 
Q 35.15625 39.890625 26.703125 39.890625 
Q 22.75 39.890625 18.8125 39.015625 
Q 14.890625 38.140625 10.796875 36.28125 
z
" id="DejaVuSans-53"/>
      </defs>
      <g transform="translate(52.275 40.783872)scale(0.1 -0.1)">
       <use xlink:href="#DejaVuSans-53"/>
       <use x="63.623047" xlink:href="#DejaVuSans-48"/>
      </g>
     </g>
    </g>
    <g id="text_17">
     <!-- доходность, %г -->
     <defs>
      <path d="M 54.890625 54.6875 
L 35.109375 28.078125 
L 55.90625 0 
L 45.3125 0 
L 29.390625 21.484375 
L 13.484375 0 
L 2.875 0 
L 24.125 28.609375 
L 4.6875 54.6875 
L 15.28125 54.6875 
L 29.78125 35.203125 
L 44.28125 54.6875 
z
" id="DejaVuSans-1093"/>
      <path d="M 9.078125 54.6875 
L 18.109375 54.6875 
L 18.109375 32.375 
L 47.265625 32.375 
L 47.265625 54.6875 
L 56.296875 54.6875 
L 56.296875 0 
L 47.265625 0 
L 47.265625 25.203125 
L 18.109375 25.203125 
L 18.109375 0 
L 9.078125 0 
z
" id="DejaVuSans-1085"/>
      <path d="M 48.78125 52.59375 
L 48.78125 44.1875 
Q 44.96875 46.296875 41.140625 47.34375 
Q 37.3125 48.390625 33.40625 48.390625 
Q 24.65625 48.390625 19.8125 42.84375 
Q 14.984375 37.3125 14.984375 27.296875 
Q 14.984375 17.28125 19.8125 11.734375 
Q 24.65625 6.203125 33.40625 6.203125 
Q 37.3125 6.203125 41.140625 7.25 
Q 44.96875 8.296875 48.78125 10.40625 
L 48.78125 2.09375 
Q 45.015625 0.34375 40.984375 -0.53125 
Q 36.96875 -1.421875 32.421875 -1.421875 
Q 20.0625 -1.421875 12.78125 6.34375 
Q 5.515625 14.109375 5.515625 27.296875 
Q 5.515625 40.671875 12.859375 48.328125 
Q 20.21875 56 33.015625 56 
Q 37.15625 56 41.109375 55.140625 
Q 45.0625 54.296875 48.78125 52.59375 
z
" id="DejaVuSans-1089"/>
      <path d="M 2.9375 54.6875 
L 55.328125 54.6875 
L 55.328125 47.515625 
L 33.546875 47.515625 
L 33.546875 0 
L 24.703125 0 
L 24.703125 47.515625 
L 2.9375 47.515625 
z
" id="DejaVuSans-1090"/>
      <path d="M 43.453125 16.21875 
Q 43.453125 20.609375 40.25 22.90625 
Q 37.0625 25.203125 30.90625 25.203125 
L 18.109375 25.203125 
L 18.109375 7.171875 
L 30.90625 7.171875 
Q 37.0625 7.171875 40.25 9.484375 
Q 43.453125 11.8125 43.453125 16.21875 
z
M 9.078125 54.6875 
L 18.109375 54.6875 
L 18.109375 32.375 
L 31.296875 32.375 
Q 41.75 32.375 47.390625 28.390625 
Q 53.03125 24.421875 53.03125 16.21875 
Q 53.03125 8.015625 47.390625 4 
Q 41.75 0 31.296875 0 
L 9.078125 0 
z
" id="DejaVuSans-1100"/>
      <path d="M 9.078125 0 
L 9.078125 54.6875 
L 47.65625 54.6875 
L 47.65625 47.515625 
L 18.109375 47.515625 
L 18.109375 0 
z
" id="DejaVuSans-1075"/>
     </defs>
     <g transform="translate(37.815625 186.925156)rotate(-90)scale(0.1 -0.1)">
      <use xlink:href="#DejaVuSans-1076"/>
      <use x="69.140625" xlink:href="#DejaVuSans-1086"/>
      <use x="130.322266" xlink:href="#DejaVuSans-1093"/>
      <use x="189.501953" xlink:href="#DejaVuSans-1086"/>
      <use x="250.683594" xlink:href="#DejaVuSans-1076"/>
      <use x="319.824219" xlink:href="#DejaVuSans-1085"/>
      <use x="385.205078" xlink:href="#DejaVuSans-1086"/>
      <use x="446.386719" xlink:href="#DejaVuSans-1089"/>
      <use x="501.367188" xlink:href="#DejaVuSans-1090"/>
      <use x="559.619141" xlink:href="#DejaVuSans-1100"/>
      <use x="618.554688" xlink:href="#DejaVuSans-44"/>
      <use x="650.341797" xlink:href="#DejaVuSans-32"/>
      <use x="682.128906" xlink:href="#DejaVuSans-37"/>
      <use x="777.148438" xlink:href="#DejaVuSans-1075"/>
     </g>
    </g>
   </g>
   <g id="line2d_16">
    <path clip-path="url(#p36ccdefa67)" d="M 92.290909 246.24 
L 92.615596 235.981768 
L 92.737354 235.755051 
L 92.980869 231.981728 
L 93.549071 226.805404 
L 93.670829 226.743337 
L 94.198445 223.856487 
L 94.279617 223.769066 
L 94.604304 222.929557 
L 94.807233 222.862798 
L 94.928991 222.450384 
L 94.969577 222.429155 
L 95.213092 221.866114 
L 95.253678 221.856553 
L 95.537779 221.05759 
L 95.700123 220.965409 
L 95.862466 220.327451 
L 96.349497 219.655556 
L 96.51184 219.322838 
L 96.674184 219.002205 
L 96.877113 218.526959 
L 97.2018 218.2986 
L 97.364144 218.187727 
L 97.729417 217.454274 
L 97.89176 217.089247 
L 98.622306 216.223621 
L 98.744063 216.093712 
L 98.906407 215.667555 
L 99.149922 215.479598 
L 99.312266 215.349682 
L 99.434023 215.209809 
L 99.636953 214.79592 
L 99.880468 214.564581 
L 100.367499 214.122068 
L 100.489256 213.960198 
L 101.016873 213.560493 
L 101.260388 213.233077 
L 101.544489 213.059034 
L 101.747418 212.662256 
L 101.909762 212.522393 
L 102.193863 212.350097 
L 102.599722 212.006948 
L 102.843237 211.917376 
L 103.086752 211.596568 
L 103.654955 211.140464 
L 103.817298 210.958161 
L 104.060813 210.6709 
L 105.197218 209.848544 
L 105.521905 209.644091 
L 105.76542 209.481624 
L 106.049521 209.315031 
L 106.374208 209.058973 
L 106.617724 208.938914 
L 107.267098 208.374954 
L 108.281745 207.929295 
L 108.565846 207.768698 
L 109.621078 207.023641 
L 110.513968 206.624512 
L 110.757483 206.449251 
L 111.000998 206.338024 
L 111.447443 206.160929 
L 111.731544 205.972137 
L 112.015645 205.85547 
L 112.218575 205.728495 
L 112.746191 205.490774 
L 113.111464 205.271094 
L 113.801424 205.02799 
L 114.004353 204.815074 
L 114.450798 204.693065 
L 115.506031 204.144082 
L 115.911889 203.934585 
L 116.155405 203.899882 
L 116.317748 203.758642 
L 116.561263 203.579668 
L 116.967122 203.451148 
L 117.454153 203.262127 
L 117.697668 203.125325 
L 117.981769 203.025033 
L 118.225284 202.826059 
L 118.509385 202.68791 
L 119.483447 202.384578 
L 119.848719 202.26313 
L 120.051649 202.195073 
L 120.295164 201.995716 
L 120.579265 201.849498 
L 120.782195 201.700287 
L 121.228639 201.550906 
L 122.243286 200.932252 
L 122.40563 200.792675 
L 125.084298 199.847446 
L 125.6525 199.658136 
L 125.896015 199.54374 
L 129.711087 198.116537 
L 130.238704 197.908307 
L 130.522805 197.837981 
L 130.725734 197.752788 
L 131.050421 197.570304 
L 132.186826 197.187947 
L 132.430341 197.102196 
L 133.160887 196.911964 
L 133.607332 196.756563 
L 134.90608 196.420468 
L 135.717797 196.267655 
L 136.407757 196.135188 
L 136.77303 196.004802 
L 136.935374 195.896624 
L 137.422404 195.693648 
L 138.63998 195.451052 
L 138.883496 195.318508 
L 139.492284 195.134722 
L 140.669274 194.678947 
L 141.318648 194.513824 
L 141.562163 194.436817 
L 142.08978 194.323233 
L 142.860912 194.088062 
L 143.226184 193.962664 
L 144.362589 193.767213 
L 145.864266 193.400838 
L 147.650045 192.963691 
L 147.89356 192.91839 
L 148.502348 192.828659 
L 148.745864 192.687025 
L 149.070551 192.592832 
L 149.232894 192.530171 
L 149.922854 192.367109 
L 152.398593 191.84825 
L 153.088552 191.71928 
L 153.534997 191.66467 
L 157.593585 190.878507 
L 158.405302 190.755644 
L 161.530415 190.114417 
L 162.46389 189.853143 
L 162.910335 189.762365 
L 163.113264 189.680582 
L 164.168497 189.45401 
L 172.245086 187.692639 
L 173.381491 187.478199 
L 174.030865 187.361634 
L 174.639653 187.248678 
L 175.248441 187.144941 
L 176.100745 187.036845 
L 176.303674 186.950748 
L 176.790705 186.847209 
L 176.993634 186.778867 
L 177.72418 186.624192 
L 178.048867 186.55967 
L 185.800769 185.13547 
L 186.08487 185.071937 
L 190.752246 184.19188 
L 192.172752 183.952486 
L 192.78154 183.826005 
L 193.715015 183.612916 
L 194.64849 183.387228 
L 195.54138 183.237781 
L 211.2887 180.360816 
L 212.059831 180.244667 
L 213.277408 180.053748 
L 214.616742 179.812204 
L 215.306702 179.692724 
L 217.051894 179.444412 
L 219.405875 179.08565 
L 219.811734 178.983855 
L 221.556927 178.669393 
L 221.962785 178.582222 
L 223.342705 178.37431 
L 223.545635 178.304957 
L 224.073251 178.220577 
L 225.412585 178.002948 
L 225.85903 177.908725 
L 226.711333 177.76071 
L 227.076606 177.694785 
L 228.578283 177.409709 
L 228.821799 177.369522 
L 229.430587 177.265155 
L 229.836445 177.171112 
L 230.932264 177.039723 
L 238.968268 176.028313 
L 239.333541 175.973547 
L 240.064086 175.861592 
L 240.551117 175.792927 
L 241.362834 175.665317 
L 241.646936 175.583556 
L 242.418067 175.454444 
L 243.392128 175.185972 
L 243.960331 174.988589 
L 245.177907 174.781518 
L 245.502594 174.737676 
L 246.882514 174.534802 
L 250.210556 173.855558 
L 250.657 173.745249 
L 251.184617 173.66167 
L 270.909353 170.588295 
L 272.695131 170.295931 
L 273.019818 170.224512 
L 278.742427 169.392089 
L 280.893478 169.13054 
L 281.624024 168.990677 
L 282.963358 168.837721 
L 283.978005 168.665522 
L 285.073824 168.442113 
L 285.357925 168.384922 
L 286.494329 168.230938 
L 287.224875 168.061973 
L 288.15835 167.904559 
L 288.84831 167.792376 
L 289.375927 167.710724 
L 290.187644 167.568671 
L 290.390574 167.504486 
L 309.790623 164.480113 
L 310.521168 164.335297 
L 311.901088 164.137476 
L 312.225775 164.041164 
L 312.834563 163.936416 
L 313.281008 163.885489 
L 313.768039 163.817167 
L 314.579756 163.702657 
L 315.472645 163.522795 
L 316.446706 163.401497 
L 316.974323 163.318042 
L 323.468063 162.269763 
L 323.99568 162.171629 
L 324.807397 162.061171 
L 325.294428 161.956203 
L 326.146731 161.7972 
L 326.55259 161.673274 
L 327.03962 161.609846 
L 327.891924 161.469257 
L 328.094853 161.402069 
L 328.906571 161.286034 
L 329.190672 161.211012 
L 330.570592 161.02578 
L 339.093626 159.429555 
L 339.743 159.308765 
L 341.731708 159.005957 
L 342.786941 158.813634 
L 343.436315 158.689474 
L 343.882759 158.556944 
L 345.871467 158.252172 
L 346.196154 158.19151 
L 347.373145 157.97981 
L 347.981933 157.872704 
L 348.79365 157.746417 
L 349.037166 157.703669 
L 352.081106 157.155564 
L 352.771066 157.060575 
L 358.128402 156.139105 
L 359.954766 155.866612 
L 360.198282 155.78357 
L 360.969413 155.656199 
L 365.271516 154.918207 
L 366.002062 154.784511 
L 370.791195 154.028749 
L 371.075297 153.960221 
L 371.846428 153.890294 
L 372.61756 153.7679 
L 385.077424 151.122704 
L 385.402111 151.029649 
L 385.970313 150.932885 
L 386.49793 150.76686 
L 388.283708 150.401698 
L 388.608395 150.357574 
L 389.379527 150.218932 
L 389.582456 150.137918 
L 390.678275 149.97535 
L 391.287063 149.862609 
L 394.412176 149.165194 
L 394.980378 149.068236 
L 395.345651 148.986591 
L 396.400884 148.849081 
L 396.644399 148.791873 
L 397.374945 148.622862 
L 401.311775 147.87469 
L 401.595876 147.768379 
L 402.367008 147.629679 
L 402.569937 147.549818 
L 403.62517 147.316318 
L 404.152786 147.211656 
L 405.776221 146.898792 
L 406.506767 146.696404 
L 407.156141 146.574067 
L 408.170788 146.241686 
L 419.210146 143.607671 
L 420.184208 143.434312 
L 420.54948 143.332864 
L 426.921463 141.905594 
L 427.286736 141.81514 
L 428.991343 141.334885 
L 429.275444 141.230598 
L 429.559545 141.142969 
L 430.208919 140.95535 
L 432.968759 140.231913 
L 433.73989 140.045625 
L 434.023991 139.954237 
L 435.200982 139.639832 
L 436.377972 139.411512 
L 436.662073 139.32872 
L 437.352033 139.140153 
L 438.447852 138.779876 
L 438.772539 138.729072 
L 438.975468 138.608164 
L 439.340741 138.503843 
L 439.665428 138.349525 
L 440.883005 138.086457 
L 441.694722 137.793763 
L 442.384682 137.637154 
L 442.668783 137.535966 
L 443.115228 137.406819 
L 444.048703 137.131955 
L 444.332804 137.016434 
L 444.819835 136.899201 
L 445.509795 136.709064 
L 446.037411 136.592938 
L 446.44327 136.472868 
L 446.849129 136.296821 
L 449.324867 135.691756 
L 449.811898 135.609431 
L 450.014827 135.465652 
L 452.003535 134.702591 
L 452.815252 134.4163 
L 452.977596 134.296045 
L 453.545798 134.060484 
L 453.911071 133.889248 
L 454.479273 133.655707 
L 455.49392 133.251064 
L 455.818607 133.166116 
L 456.021537 133.060113 
L 456.305638 132.946477 
L 456.752082 132.694707 
L 458.456689 132.128381 
L 458.659619 131.983597 
L 459.268407 131.729471 
L 459.43075 131.61653 
L 463.326995 129.747814 
L 463.529924 129.67344 
L 464.098126 129.401521 
L 465.275117 128.828096 
L 465.518632 128.745621 
L 465.843319 128.625216 
L 466.046248 128.445979 
L 467.547926 127.722978 
L 467.750855 127.57327 
L 468.075542 127.428765 
L 469.049603 127.127709 
L 469.252533 126.986188 
L 469.496048 126.871491 
L 470.023664 126.612174 
L 470.267179 126.532316 
L 470.713624 126.110006 
L 470.997725 126.034475 
L 471.850029 125.706861 
L 472.012372 125.483482 
L 472.255887 125.393089 
L 472.418231 125.240791 
L 473.838737 124.309615 
L 474.041666 124.176543 
L 474.609868 123.746915 
L 474.934555 123.506456 
L 475.178071 123.287612 
L 475.340414 123.212201 
L 475.502758 123.033638 
L 475.624515 123.013757 
L 475.827445 122.7943 
L 477.207364 121.808594 
L 477.410294 121.633654 
L 477.93791 121.234586 
L 478.222011 120.9037 
L 478.546698 120.667447 
L 478.587284 120.659338 
L 478.749628 120.415648 
L 480.088962 119.397812 
L 480.49482 119.191564 
L 480.69775 118.880681 
L 480.819507 118.789615 
L 480.981851 118.456933 
L 481.38771 118.073729 
L 482.483528 117.341472 
L 482.645872 116.984845 
L 482.970559 116.561493 
L 483.376418 116.402118 
L 483.660519 116.023563 
L 484.025792 115.878095 
L 484.188135 115.623472 
L 484.553408 115.276285 
L 486.460944 113.771592 
L 486.866803 113.127555 
L 487.922036 111.822362 
L 488.043793 111.678509 
L 488.36848 111.069522 
L 488.490238 111.010619 
L 488.733753 110.692252 
L 489.180198 110.189522 
L 489.383127 109.782331 
L 489.707814 109.449119 
L 489.95133 108.831957 
L 490.113673 108.588846 
L 490.276017 108.077955 
L 490.43836 107.971686 
L 491.087734 107.134784 
L 491.290664 106.67384 
L 491.331249 106.646645 
L 491.534179 106.219974 
L 491.574765 106.201548 
L 491.737108 105.801971 
L 491.777694 105.785345 
L 491.980624 105.453228 
L 492.264725 104.958713 
L 492.345896 104.805086 
L 492.589412 104.222392 
L 492.629998 104.221775 
L 492.792341 103.668143 
L 492.873513 103.509548 
L 493.035856 103.232623 
L 493.117028 103.19421 
L 493.319957 102.544071 
L 493.482301 102.402403 
L 493.644644 102.149899 
L 493.725816 102.093003 
L 493.88816 101.389319 
L 493.928746 101.362018 
L 494.253433 99.976021 
L 494.334604 99.883961 
L 495.430423 95.818834 
L 495.633352 94.780741 
L 495.673938 94.759656 
L 496.079797 91.902363 
L 496.120383 91.843555 
L 496.323312 90.805768 
L 496.485656 90.667784 
L 496.607413 90.127381 
L 496.647999 90.086963 
L 496.850929 88.06288 
L 497.053858 86.926271 
L 497.256787 85.080632 
L 497.337959 83.200855 
L 497.82499 71.06803 
L 498.068505 51.998861 
L 498.109091 44.64 
L 498.109091 44.64 
" style="fill:none;stroke:#1f77b4;stroke-linecap:square;stroke-width:1.5;"/>
   </g>
   <g id="line2d_17">
    <path clip-path="url(#p36ccdefa67)" d="M 92.290909 196.681811 
L 92.615596 192.405277 
L 92.737354 192.31251 
L 92.980869 190.779202 
L 93.549071 188.70761 
L 93.752001 188.573237 
L 94.076688 187.814312 
L 94.441961 187.228786 
L 94.807233 187.153583 
L 94.928991 186.992184 
L 95.13192 186.83764 
L 95.578365 186.447041 
L 95.700123 186.412826 
L 95.862466 186.164783 
L 96.633598 185.69032 
L 97.080043 185.412582 
L 97.526487 185.280605 
L 98.622306 184.581256 
L 98.744063 184.531465 
L 98.906407 184.368275 
L 99.231094 184.284722 
L 99.434023 184.193231 
L 99.677539 184.027293 
L 100.813943 183.646144 
L 101.098044 183.52711 
L 101.300974 183.431671 
L 101.747418 183.223616 
L 101.990934 183.137677 
L 102.437378 183.018391 
L 103.492611 182.703001 
L 104.466672 182.344917 
L 107.997643 181.493334 
L 108.565846 181.382427 
L 110.026937 181.035036 
L 111.163342 180.832868 
L 111.893888 180.695778 
L 112.827363 180.519299 
L 113.070878 180.467883 
L 113.63908 180.378047 
L 114.450798 180.239205 
L 118.103527 179.568902 
L 118.549971 179.496464 
L 120.092235 179.296402 
L 125.6525 178.390243 
L 126.423631 178.269999 
L 127.03242 178.182859 
L 130.157532 177.770982 
L 134.621979 177.242026 
L 136.610687 177.093689 
L 140.993961 176.558257 
L 145.011963 176.207971 
L 145.377236 176.152637 
L 147.081843 176.021809 
L 148.827035 175.869032 
L 150.206955 175.731255 
L 154.387301 175.459052 
L 162.220375 174.893778 
L 163.559709 174.782487 
L 165.101972 174.631337 
L 166.441306 174.550162 
L 191.320448 172.850886 
L 192.943883 172.74092 
L 193.390328 172.690814 
L 198.950593 172.340687 
L 199.721725 172.289541 
L 236.573701 170.171314 
L 239.171197 170.04612 
L 270.625252 168.221551 
L 277.646608 167.863767 
L 278.90477 167.81279 
L 290.187644 167.204178 
L 290.634089 167.169001 
L 296.762556 166.873494 
L 297.290173 166.842974 
L 323.752164 165.425374 
L 326.796105 165.234437 
L 328.987742 165.112601 
L 349.564782 163.917528 
L 350.092398 163.887677 
L 359.183635 163.385139 
L 361.334686 163.263828 
L 363.851011 163.142848 
L 364.378627 163.114943 
L 366.164406 162.999413 
L 367.057295 162.951669 
L 372.374045 162.69 
L 374.403339 162.571351 
L 375.620915 162.496964 
L 379.882432 162.215686 
L 381.505867 162.087988 
L 383.981605 161.910112 
L 386.010899 161.758756 
L 388.770739 161.576098 
L 390.394174 161.4721 
L 393.235185 161.272618 
L 395.305065 161.144049 
L 397.415531 161.025839 
L 398.105491 160.992538 
L 401.149431 160.815493 
L 403.381655 160.627657 
L 406.141494 160.454458 
L 406.669111 160.410382 
L 410.11891 160.08811 
L 412.797578 159.901451 
L 414.989215 159.70566 
L 416.856166 159.58069 
L 417.708469 159.531995 
L 420.265379 159.374266 
L 420.792996 159.33382 
L 422.700532 159.21844 
L 423.187562 159.171975 
L 424.729826 159.058709 
L 427.570837 158.84886 
L 427.93611 158.799889 
L 430.168333 158.612151 
L 435.566255 158.180413 
L 437.352033 158.041528 
L 440.314802 157.752914 
L 442.141167 157.60407 
L 443.480501 157.478639 
L 446.808543 157.190204 
L 447.011472 157.146503 
L 450.3801 156.841261 
L 454.519859 156.337726 
L 455.209819 156.254223 
L 458.456689 155.875177 
L 458.821962 155.822849 
L 463.245823 155.157326 
L 464.7475 154.948953 
L 465.559218 154.840538 
L 466.979723 154.616103 
L 470.348351 154.153802 
L 470.957139 154.021167 
L 471.850029 153.921107 
L 472.052958 153.851515 
L 472.702332 153.727132 
L 472.905261 153.654628 
L 473.595221 153.552765 
L 474.041666 153.459535 
L 475.502758 153.115826 
L 476.07096 153.008665 
L 477.24795 152.72264 
L 481.265952 151.672463 
L 481.671811 151.580678 
L 482.767629 151.271257 
L 482.970559 151.185516 
L 483.741691 151.023059 
L 487.313248 149.984263 
L 487.678521 149.861717 
L 488.043793 149.74685 
L 488.57141 149.487066 
L 490.113673 148.844203 
L 490.276017 148.695509 
L 490.681875 148.576166 
L 493.806988 146.847664 
L 494.009917 146.648694 
L 495.26808 145.444094 
L 496.323312 143.759191 
L 496.485656 143.720444 
L 496.688585 143.364628 
L 496.769757 143.345368 
L 497.216202 142.241182 
L 497.297373 142.045926 
L 497.662646 139.503835 
L 497.743818 138.766879 
L 497.987333 136.657082 
L 498.109091 131.345556 
L 498.109091 131.345556 
" style="fill:none;stroke:#ff7f0e;stroke-linecap:square;stroke-width:1.5;"/>
   </g>
   <g id="line2d_18">
    <path clip-path="url(#p36ccdefa67)" d="M 295.220293 256.32 
L 295.220293 34.56 
" style="fill:none;stroke:#808080;stroke-linecap:square;stroke-width:0.3;"/>
   </g>
   <g id="line2d_19">
    <path clip-path="url(#p36ccdefa67)" d="M 72 167.021739 
L 518.4 167.021739 
" style="fill:none;stroke:#808080;stroke-linecap:square;stroke-width:0.3;"/>
   </g>
   <g id="patch_3">
    <path d="M 72 256.32 
L 72 34.56 
" style="fill:none;stroke:#000000;stroke-linecap:square;stroke-linejoin:miter;stroke-width:0.8;"/>
   </g>
   <g id="patch_4">
    <path d="M 518.4 256.32 
L 518.4 34.56 
" style="fill:none;stroke:#000000;stroke-linecap:square;stroke-linejoin:miter;stroke-width:0.8;"/>
   </g>
   <g id="patch_5">
    <path d="M 72 256.32 
L 518.4 256.32 
" style="fill:none;stroke:#000000;stroke-linecap:square;stroke-linejoin:miter;stroke-width:0.8;"/>
   </g>
   <g id="patch_6">
    <path d="M 72 34.56 
L 518.4 34.56 
" style="fill:none;stroke:#000000;stroke-linecap:square;stroke-linejoin:miter;stroke-width:0.8;"/>
   </g>
   <g id="legend_1">
    <g id="patch_7">
     <path d="M 79 71.91625 
L 145.273438 71.91625 
Q 147.273438 71.91625 147.273438 69.91625 
L 147.273438 41.56 
Q 147.273438 39.56 145.273438 39.56 
L 79 39.56 
Q 77 39.56 77 41.56 
L 77 69.91625 
Q 77 71.91625 79 71.91625 
z
" style="fill:#ffffff;opacity:0.8;stroke:#cccccc;stroke-linejoin:miter;"/>
    </g>
    <g id="line2d_20">
     <path d="M 81 47.658437 
L 101 47.658437 
" style="fill:none;stroke:#1f77b4;stroke-linecap:square;stroke-width:1.5;"/>
    </g>
    <g id="line2d_21"/>
    <g id="text_18">
     <!-- 10 лет -->
     <defs>
      <path d="M 56.203125 29.59375 
L 56.203125 25.203125 
L 14.890625 25.203125 
Q 15.484375 15.921875 20.484375 11.0625 
Q 25.484375 6.203125 34.421875 6.203125 
Q 39.59375 6.203125 44.453125 7.46875 
Q 49.3125 8.734375 54.109375 11.28125 
L 54.109375 2.78125 
Q 49.265625 0.734375 44.1875 -0.34375 
Q 39.109375 -1.421875 33.890625 -1.421875 
Q 20.796875 -1.421875 13.15625 6.1875 
Q 5.515625 13.8125 5.515625 26.8125 
Q 5.515625 40.234375 12.765625 48.109375 
Q 20.015625 56 32.328125 56 
Q 43.359375 56 49.78125 48.890625 
Q 56.203125 41.796875 56.203125 29.59375 
z
M 47.21875 32.234375 
Q 47.125 39.59375 43.09375 43.984375 
Q 39.0625 48.390625 32.421875 48.390625 
Q 24.90625 48.390625 20.390625 44.140625 
Q 15.875 39.890625 15.1875 32.171875 
z
" id="DejaVuSans-1077"/>
     </defs>
     <g transform="translate(109 51.158437)scale(0.1 -0.1)">
      <use xlink:href="#DejaVuSans-49"/>
      <use x="63.623047" xlink:href="#DejaVuSans-48"/>
      <use x="127.246094" xlink:href="#DejaVuSans-32"/>
      <use x="159.033203" xlink:href="#DejaVuSans-1083"/>
      <use x="222.949219" xlink:href="#DejaVuSans-1077"/>
      <use x="284.472656" xlink:href="#DejaVuSans-1090"/>
     </g>
    </g>
    <g id="line2d_22">
     <path d="M 81 62.336562 
L 101 62.336562 
" style="fill:none;stroke:#ff7f0e;stroke-linecap:square;stroke-width:1.5;"/>
    </g>
    <g id="line2d_23"/>
    <g id="text_19">
     <!-- 30 лет -->
     <g transform="translate(109 65.836562)scale(0.1 -0.1)">
      <use xlink:href="#DejaVuSans-51"/>
      <use x="63.623047" xlink:href="#DejaVuSans-48"/>
      <use x="127.246094" xlink:href="#DejaVuSans-32"/>
      <use x="159.033203" xlink:href="#DejaVuSans-1083"/>
      <use x="222.949219" xlink:href="#DejaVuSans-1077"/>
      <use x="284.472656" xlink:href="#DejaVuSans-1090"/>
     </g>
    </g>
   </g>
  </g>
 </g>
 <defs>
  <clipPath id="p36ccdefa67">
   <rect height="221.76" width="446.4" x="72" y="34.56"/>
  </clipPath>
 </defs>
</svg>
