<?xml version="1.0" encoding="utf-8" standalone="no"?>
<!DOCTYPE svg PUBLIC "-//W3C//DTD SVG 1.1//EN"
  "http://www.w3.org/Graphics/SVG/1.1/DTD/svg11.dtd">
<svg xmlns:xlink="http://www.w3.org/1999/xlink" width="576pt" height="288pt" viewBox="0 0 576 288" xmlns="http://www.w3.org/2000/svg" version="1.1">
 <metadata>
  <rdf:RDF xmlns:dc="http://purl.org/dc/elements/1.1/" xmlns:cc="http://creativecommons.org/ns#" xmlns:rdf="http://www.w3.org/1999/02/22-rdf-syntax-ns#">
   <cc:Work>
    <dc:type rdf:resource="http://purl.org/dc/dcmitype/StillImage"/>
    <dc:date>2024-10-15T16:57:37.348545</dc:date>
    <dc:format>image/svg+xml</dc:format>
    <dc:creator>
     <cc:Agent>
      <dc:title>Matplotlib v3.6.3, https://matplotlib.org/</dc:title>
     </cc:Agent>
    </dc:creator>
   </cc:Work>
  </rdf:RDF>
 </metadata>
 <defs>
  <style type="text/css">*{stroke-linejoin: round; stroke-linecap: butt}</style>
 </defs>
 <g id="figure_1">
  <g id="patch_1">
   <path d="M 0 288 
L 576 288 
L 576 0 
L 0 0 
z
" style="fill: #ffffff"/>
  </g>
  <g id="axes_1">
   <g id="patch_2">
    <path d="M 55.73 234.52 
L 560.88 234.52 
L 560.88 15.12 
L 55.73 15.12 
z
" style="fill: #ffffff"/>
   </g>
   <g id="matplotlib.axis_1">
    <g id="xtick_1">
     <g id="line2d_1">
      <path d="M 78.691364 234.52 
L 78.691364 15.12 
" clip-path="url(#pc1cb0626fc)" style="fill: none; stroke-dasharray: 1.48,0.64; stroke-dashoffset: 0; stroke: #b0b0b0; stroke-width: 0.4"/>
     </g>
     <g id="text_1">
      <!-- −0.05 -->
      <g transform="translate(64.164176 251.665625) scale(0.14 -0.14)">
       <defs>
        <path id="LiberationSansNarrow-2212" d="M 259 1900 
L 259 2356 
L 2809 2356 
L 2809 1900 
L 259 1900 
z
" transform="scale(0.015625)"/>
        <path id="LiberationSansNarrow-30" d="M 2713 2203 
Q 2713 1569 2614 1136 
Q 2516 703 2345 436 
Q 2175 169 1945 53 
Q 1716 -63 1453 -63 
Q 1191 -63 962 53 
Q 734 169 565 434 
Q 397 700 301 1133 
Q 206 1566 206 2203 
Q 206 2869 301 3305 
Q 397 3741 565 4000 
Q 734 4259 965 4364 
Q 1197 4469 1469 4469 
Q 1728 4469 1954 4364 
Q 2181 4259 2350 4000 
Q 2519 3741 2616 3305 
Q 2713 2869 2713 2203 
z
M 2244 2203 
Q 2244 2728 2194 3076 
Q 2144 3425 2044 3633 
Q 1944 3841 1798 3927 
Q 1653 4013 1469 4013 
Q 1275 4013 1125 3925 
Q 975 3838 875 3630 
Q 775 3422 723 3073 
Q 672 2725 672 2203 
Q 672 1697 723 1350 
Q 775 1003 876 792 
Q 978 581 1125 489 
Q 1272 397 1459 397 
Q 1641 397 1786 489 
Q 1931 581 2032 792 
Q 2134 1003 2189 1350 
Q 2244 1697 2244 2203 
z
" transform="scale(0.015625)"/>
        <path id="LiberationSansNarrow-2e" d="M 478 0 
L 478 684 
L 981 684 
L 981 0 
L 478 0 
z
" transform="scale(0.015625)"/>
        <path id="LiberationSansNarrow-35" d="M 2697 1434 
Q 2697 1103 2615 828 
Q 2534 553 2373 354 
Q 2213 156 1972 46 
Q 1731 -63 1416 -63 
Q 1131 -63 920 18 
Q 709 100 564 242 
Q 419 384 333 575 
Q 247 766 209 984 
L 675 1050 
Q 703 925 754 808 
Q 806 691 895 598 
Q 984 506 1114 451 
Q 1244 397 1428 397 
Q 1606 397 1753 464 
Q 1900 531 2003 662 
Q 2106 794 2162 984 
Q 2219 1175 2219 1422 
Q 2219 1625 2166 1795 
Q 2113 1966 2013 2089 
Q 1913 2213 1767 2281 
Q 1622 2350 1438 2350 
Q 1322 2350 1225 2325 
Q 1128 2300 1045 2256 
Q 963 2213 894 2155 
Q 825 2097 766 2034 
L 316 2034 
L 434 4403 
L 2488 4403 
L 2488 3925 
L 856 3925 
L 788 2528 
Q 909 2644 1093 2726 
Q 1278 2809 1531 2809 
Q 1800 2809 2015 2709 
Q 2231 2609 2382 2426 
Q 2534 2244 2615 1991 
Q 2697 1738 2697 1434 
z
" transform="scale(0.015625)"/>
       </defs>
       <use xlink:href="#LiberationSansNarrow-2212"/>
       <use xlink:href="#LiberationSansNarrow-30" x="47.900391"/>
       <use xlink:href="#LiberationSansNarrow-2e" x="93.505859"/>
       <use xlink:href="#LiberationSansNarrow-30" x="116.308594"/>
       <use xlink:href="#LiberationSansNarrow-35" x="161.914062"/>
      </g>
     </g>
    </g>
    <g id="xtick_2">
     <g id="line2d_2">
      <path d="M 168.189571 234.52 
L 168.189571 15.12 
" clip-path="url(#pc1cb0626fc)" style="fill: none; stroke-dasharray: 1.48,0.64; stroke-dashoffset: 0; stroke: #b0b0b0; stroke-width: 0.4"/>
     </g>
     <g id="text_2">
      <!-- −0.04 -->
      <g transform="translate(153.662384 251.665625) scale(0.14 -0.14)">
       <defs>
        <path id="LiberationSansNarrow-34" d="M 2256 997 
L 2256 0 
L 1822 0 
L 1822 997 
L 122 997 
L 122 1434 
L 1772 4403 
L 2256 4403 
L 2256 1441 
L 2766 1441 
L 2766 997 
L 2256 997 
z
M 1822 3769 
Q 1816 3753 1794 3706 
L 1750 3606 
L 1700 3494 
Q 1672 3434 1650 3397 
L 725 1734 
Q 713 1709 688 1669 
L 638 1588 
L 588 1503 
Q 563 1463 547 1441 
L 1822 1441 
L 1822 3769 
z
" transform="scale(0.015625)"/>
       </defs>
       <use xlink:href="#LiberationSansNarrow-2212"/>
       <use xlink:href="#LiberationSansNarrow-30" x="47.900391"/>
       <use xlink:href="#LiberationSansNarrow-2e" x="93.505859"/>
       <use xlink:href="#LiberationSansNarrow-30" x="116.308594"/>
       <use xlink:href="#LiberationSansNarrow-34" x="161.914062"/>
      </g>
     </g>
    </g>
    <g id="xtick_3">
     <g id="line2d_3">
      <path d="M 257.687779 234.52 
L 257.687779 15.12 
" clip-path="url(#pc1cb0626fc)" style="fill: none; stroke-dasharray: 1.48,0.64; stroke-dashoffset: 0; stroke: #b0b0b0; stroke-width: 0.4"/>
     </g>
     <g id="text_3">
      <!-- −0.03 -->
      <g transform="translate(243.160591 251.665625) scale(0.14 -0.14)">
       <defs>
        <path id="LiberationSansNarrow-33" d="M 2688 1216 
Q 2688 913 2608 675 
Q 2528 438 2372 273 
Q 2216 109 1987 23 
Q 1759 -63 1463 -63 
Q 1128 -63 898 39 
Q 669 141 520 308 
Q 372 475 297 689 
Q 222 903 200 1131 
L 675 1184 
Q 697 1009 751 865 
Q 806 722 901 619 
Q 997 516 1136 459 
Q 1275 403 1463 403 
Q 1813 403 2011 612 
Q 2209 822 2209 1234 
Q 2209 1478 2120 1626 
Q 2031 1775 1900 1858 
Q 1769 1941 1614 1969 
Q 1459 1997 1328 1997 
L 1066 1997 
L 1066 2484 
L 1316 2484 
Q 1447 2484 1589 2517 
Q 1731 2550 1847 2636 
Q 1963 2722 2039 2869 
Q 2116 3016 2116 3244 
Q 2116 3597 1944 3801 
Q 1772 4006 1438 4006 
Q 1131 4006 943 3815 
Q 756 3625 725 3278 
L 263 3322 
Q 291 3613 392 3828 
Q 494 4044 651 4186 
Q 809 4328 1012 4398 
Q 1216 4469 1444 4469 
Q 1747 4469 1964 4376 
Q 2181 4284 2318 4126 
Q 2456 3969 2522 3756 
Q 2588 3544 2588 3303 
Q 2588 3109 2544 2940 
Q 2500 2772 2408 2637 
Q 2316 2503 2173 2406 
Q 2031 2309 1831 2259 
L 1831 2247 
Q 2050 2219 2211 2126 
Q 2372 2034 2478 1896 
Q 2584 1759 2636 1584 
Q 2688 1409 2688 1216 
z
" transform="scale(0.015625)"/>
       </defs>
       <use xlink:href="#LiberationSansNarrow-2212"/>
       <use xlink:href="#LiberationSansNarrow-30" x="47.900391"/>
       <use xlink:href="#LiberationSansNarrow-2e" x="93.505859"/>
       <use xlink:href="#LiberationSansNarrow-30" x="116.308594"/>
       <use xlink:href="#LiberationSansNarrow-33" x="161.914062"/>
      </g>
     </g>
    </g>
    <g id="xtick_4">
     <g id="line2d_4">
      <path d="M 347.185986 234.52 
L 347.185986 15.12 
" clip-path="url(#pc1cb0626fc)" style="fill: none; stroke-dasharray: 1.48,0.64; stroke-dashoffset: 0; stroke: #b0b0b0; stroke-width: 0.4"/>
     </g>
     <g id="text_4">
      <!-- −0.02 -->
      <g transform="translate(332.658798 251.665625) scale(0.14 -0.14)">
       <defs>
        <path id="LiberationSansNarrow-32" d="M 263 0 
L 263 397 
Q 394 763 583 1042 
Q 772 1322 980 1548 
Q 1188 1775 1391 1969 
Q 1594 2163 1758 2356 
Q 1922 2550 2023 2762 
Q 2125 2975 2125 3244 
Q 2125 3431 2078 3573 
Q 2031 3716 1945 3812 
Q 1859 3909 1737 3957 
Q 1616 4006 1466 4006 
Q 1328 4006 1206 3959 
Q 1084 3913 989 3819 
Q 894 3725 834 3586 
Q 775 3447 756 3263 
L 284 3316 
Q 306 3553 392 3762 
Q 478 3972 626 4130 
Q 775 4288 983 4378 
Q 1191 4469 1466 4469 
Q 1734 4469 1945 4391 
Q 2156 4313 2300 4159 
Q 2444 4006 2522 3781 
Q 2600 3556 2600 3263 
Q 2600 3041 2534 2841 
Q 2469 2641 2359 2459 
Q 2250 2278 2106 2109 
Q 1963 1941 1806 1781 
L 1491 1463 
Q 1331 1303 1192 1143 
Q 1053 984 943 820 
Q 834 656 772 478 
L 2656 478 
L 2656 0 
L 263 0 
z
" transform="scale(0.015625)"/>
       </defs>
       <use xlink:href="#LiberationSansNarrow-2212"/>
       <use xlink:href="#LiberationSansNarrow-30" x="47.900391"/>
       <use xlink:href="#LiberationSansNarrow-2e" x="93.505859"/>
       <use xlink:href="#LiberationSansNarrow-30" x="116.308594"/>
       <use xlink:href="#LiberationSansNarrow-32" x="161.914062"/>
      </g>
     </g>
    </g>
    <g id="xtick_5">
     <g id="line2d_5">
      <path d="M 436.684193 234.52 
L 436.684193 15.12 
" clip-path="url(#pc1cb0626fc)" style="fill: none; stroke-dasharray: 1.48,0.64; stroke-dashoffset: 0; stroke: #b0b0b0; stroke-width: 0.4"/>
     </g>
     <g id="text_5">
      <!-- −0.01 -->
      <g transform="translate(422.157006 251.665625) scale(0.14 -0.14)">
       <defs>
        <path id="LiberationSansNarrow-31" d="M 400 0 
L 400 478 
L 1319 478 
L 1319 3866 
L 506 3156 
L 506 3688 
L 1359 4403 
L 1784 4403 
L 1784 478 
L 2663 478 
L 2663 0 
L 400 0 
z
" transform="scale(0.015625)"/>
       </defs>
       <use xlink:href="#LiberationSansNarrow-2212"/>
       <use xlink:href="#LiberationSansNarrow-30" x="47.900391"/>
       <use xlink:href="#LiberationSansNarrow-2e" x="93.505859"/>
       <use xlink:href="#LiberationSansNarrow-30" x="116.308594"/>
       <use xlink:href="#LiberationSansNarrow-31" x="161.914062"/>
      </g>
     </g>
    </g>
    <g id="xtick_6">
     <g id="line2d_6">
      <path d="M 526.182401 234.52 
L 526.182401 15.12 
" clip-path="url(#pc1cb0626fc)" style="fill: none; stroke-dasharray: 1.48,0.64; stroke-dashoffset: 0; stroke: #b0b0b0; stroke-width: 0.4"/>
     </g>
     <g id="text_6">
      <!-- 0.00 -->
      <g transform="translate(515.008651 251.665625) scale(0.14 -0.14)">
       <use xlink:href="#LiberationSansNarrow-30"/>
       <use xlink:href="#LiberationSansNarrow-2e" x="45.605469"/>
       <use xlink:href="#LiberationSansNarrow-30" x="68.408203"/>
       <use xlink:href="#LiberationSansNarrow-30" x="114.013672"/>
      </g>
     </g>
    </g>
    <g id="text_7">
     <!-- бонус за ребалансировку относительно её отсутствия -->
     <g transform="translate(164.444063 268.83875) scale(0.14 -0.14)">
      <defs>
       <path id="LiberationSansNarrow-431" d="M 2300 1569 
Q 2300 1925 2250 2161 
Q 2200 2397 2108 2539 
Q 2016 2681 1881 2739 
Q 1747 2797 1581 2797 
Q 1403 2797 1258 2736 
Q 1113 2675 1009 2531 
Q 906 2388 848 2153 
Q 791 1919 791 1569 
Q 791 1213 848 978 
Q 906 744 1004 605 
Q 1103 466 1237 409 
Q 1372 353 1531 353 
Q 1709 353 1851 409 
Q 1994 466 2094 603 
Q 2194 741 2247 977 
Q 2300 1213 2300 1569 
z
M 1678 3209 
Q 2247 3209 2515 2801 
Q 2784 2394 2784 1575 
Q 2784 747 2464 342 
Q 2144 -63 1534 -63 
Q 1244 -63 1017 46 
Q 791 156 633 400 
Q 475 644 390 1034 
Q 306 1425 306 1988 
Q 306 2588 381 3022 
Q 456 3456 620 3757 
Q 784 4059 1048 4239 
Q 1313 4419 1688 4506 
Q 1834 4541 1962 4567 
Q 2091 4594 2206 4616 
L 2434 4656 
L 2656 4694 
L 2656 4191 
Q 2434 4156 2228 4120 
Q 2022 4084 1788 4031 
Q 1588 3988 1430 3936 
Q 1272 3884 1151 3806 
Q 1031 3728 945 3614 
Q 859 3500 803 3331 
Q 747 3163 717 2930 
Q 688 2697 681 2381 
Q 731 2553 817 2704 
Q 903 2856 1026 2968 
Q 1150 3081 1311 3145 
Q 1472 3209 1678 3209 
z
" transform="scale(0.015625)"/>
       <path id="LiberationSansNarrow-43e" d="M 2697 1694 
Q 2697 806 2376 371 
Q 2056 -63 1447 -63 
Q 1156 -63 929 43 
Q 703 150 545 369 
Q 388 588 305 917 
Q 222 1247 222 1694 
Q 222 3444 1463 3444 
Q 1784 3444 2020 3334 
Q 2256 3225 2406 3006 
Q 2556 2788 2626 2459 
Q 2697 2131 2697 1694 
z
M 2213 1694 
Q 2213 2088 2164 2344 
Q 2116 2600 2019 2753 
Q 1922 2906 1783 2967 
Q 1644 3028 1472 3028 
Q 1294 3028 1151 2964 
Q 1009 2900 909 2745 
Q 809 2591 757 2334 
Q 706 2078 706 1694 
Q 706 1300 762 1042 
Q 819 784 917 631 
Q 1016 478 1150 415 
Q 1284 353 1444 353 
Q 1622 353 1764 414 
Q 1906 475 2006 628 
Q 2106 781 2159 1040 
Q 2213 1300 2213 1694 
z
" transform="scale(0.015625)"/>
       <path id="LiberationSansNarrow-43d" d="M 825 3381 
L 825 1950 
L 2072 1950 
L 2072 3381 
L 2534 3381 
L 2534 0 
L 2072 0 
L 2072 1541 
L 825 1541 
L 825 0 
L 363 0 
L 363 3381 
L 825 3381 
z
" transform="scale(0.015625)"/>
       <path id="LiberationSansNarrow-443" d="M 1547 0 
Q 1450 -306 1348 -551 
Q 1247 -797 1122 -970 
Q 997 -1144 844 -1236 
Q 691 -1328 491 -1328 
Q 403 -1328 328 -1322 
Q 253 -1316 172 -1294 
L 172 -872 
Q 222 -881 283 -886 
Q 344 -891 388 -891 
Q 591 -891 764 -706 
Q 938 -522 1069 -119 
L 1113 16 
L 13 3381 
L 506 3381 
L 1091 1513 
Q 1091 1513 1156 1288 
L 1234 1006 
Q 1275 866 1304 753 
Q 1334 641 1341 613 
Q 1347 647 1375 750 
L 1444 975 
L 1519 1228 
Q 1559 1356 1584 1450 
L 2128 3381 
L 2616 3381 
L 1547 0 
z
" transform="scale(0.015625)"/>
       <path id="LiberationSansNarrow-441" d="M 706 1706 
Q 706 1416 740 1172 
Q 775 928 856 751 
Q 938 575 1072 478 
Q 1206 381 1406 381 
Q 1653 381 1817 543 
Q 1981 706 2019 1044 
L 2488 1006 
Q 2466 797 2387 603 
Q 2309 409 2178 262 
Q 2047 116 1856 26 
Q 1666 -63 1419 -63 
Q 1094 -63 864 71 
Q 634 206 492 442 
Q 350 678 286 998 
Q 222 1319 222 1694 
Q 222 2034 269 2295 
Q 316 2556 398 2751 
Q 481 2947 593 3080 
Q 706 3213 839 3292 
Q 972 3372 1117 3408 
Q 1263 3444 1413 3444 
Q 1647 3444 1828 3366 
Q 2009 3288 2142 3152 
Q 2275 3016 2356 2831 
Q 2438 2647 2472 2434 
L 1997 2391 
Q 1963 2672 1816 2837 
Q 1669 3003 1400 3003 
Q 1203 3003 1070 2923 
Q 938 2844 856 2683 
Q 775 2522 740 2278 
Q 706 2034 706 1706 
z
" transform="scale(0.015625)"/>
       <path id="LiberationSansNarrow-20" transform="scale(0.015625)"/>
       <path id="LiberationSansNarrow-437" d="M 1172 -63 
Q 744 -63 492 132 
Q 241 328 125 731 
L 531 869 
Q 594 625 756 490 
Q 919 356 1181 356 
Q 1428 356 1573 503 
Q 1719 650 1719 934 
Q 1719 1119 1647 1241 
Q 1575 1363 1458 1433 
Q 1341 1503 1187 1531 
Q 1034 1559 869 1559 
L 869 1988 
Q 1031 1988 1178 2011 
Q 1325 2034 1436 2093 
Q 1547 2153 1609 2258 
Q 1672 2363 1672 2525 
Q 1672 2756 1545 2890 
Q 1419 3025 1181 3025 
Q 1091 3025 1002 3003 
Q 913 2981 834 2929 
Q 756 2878 703 2792 
Q 650 2706 631 2575 
L 219 2638 
Q 250 2850 328 3003 
Q 406 3156 531 3254 
Q 656 3353 818 3398 
Q 981 3444 1181 3444 
Q 1400 3444 1576 3378 
Q 1753 3313 1878 3194 
Q 2003 3075 2072 2912 
Q 2141 2750 2141 2553 
Q 2141 2375 2084 2237 
Q 2028 2100 1936 2004 
Q 1844 1909 1731 1853 
Q 1619 1797 1506 1784 
L 1506 1778 
Q 1650 1759 1776 1695 
Q 1903 1631 2000 1526 
Q 2097 1422 2151 1276 
Q 2206 1131 2206 950 
Q 2206 734 2143 548 
Q 2081 363 1951 227 
Q 1822 91 1628 14 
Q 1434 -63 1172 -63 
z
" transform="scale(0.015625)"/>
       <path id="LiberationSansNarrow-430" d="M 1059 -63 
Q 641 -63 431 206 
Q 222 475 222 944 
Q 222 1278 326 1492 
Q 431 1706 598 1828 
Q 766 1950 981 1997 
Q 1197 2044 1419 2050 
L 2044 2063 
L 2044 2247 
Q 2044 2456 2008 2603 
Q 1972 2750 1897 2840 
Q 1822 2931 1711 2973 
Q 1600 3016 1447 3016 
Q 1313 3016 1206 2992 
Q 1100 2969 1020 2908 
Q 941 2847 892 2742 
Q 844 2638 828 2478 
L 347 2531 
Q 372 2731 444 2898 
Q 516 3066 647 3187 
Q 778 3309 976 3376 
Q 1175 3444 1459 3444 
Q 1981 3444 2245 3151 
Q 2509 2859 2509 2306 
L 2509 850 
Q 2509 600 2562 473 
Q 2616 347 2769 347 
Q 2806 347 2845 353 
Q 2884 359 2919 369 
L 2919 19 
Q 2831 -6 2745 -18 
Q 2659 -31 2563 -31 
Q 2431 -31 2337 11 
Q 2244 53 2186 139 
Q 2128 225 2097 351 
Q 2066 478 2056 647 
L 2044 647 
Q 1969 484 1880 353 
Q 1791 222 1673 130 
Q 1556 38 1404 -12 
Q 1253 -63 1059 -63 
z
M 1166 359 
Q 1388 359 1552 457 
Q 1716 556 1825 709 
Q 1934 863 1989 1044 
Q 2044 1225 2044 1391 
L 2044 1669 
L 1538 1656 
Q 1369 1653 1216 1626 
Q 1063 1600 948 1522 
Q 834 1444 765 1303 
Q 697 1163 697 934 
Q 697 659 819 509 
Q 941 359 1166 359 
z
" transform="scale(0.015625)"/>
       <path id="LiberationSansNarrow-440" d="M 2697 1706 
Q 2697 1322 2647 997 
Q 2597 672 2476 437 
Q 2356 203 2161 70 
Q 1966 -63 1678 -63 
Q 1381 -63 1157 75 
Q 934 213 819 525 
L 803 525 
Q 806 519 807 469 
Q 809 419 811 344 
Q 813 269 814 176 
Q 816 84 816 -6 
L 816 -1328 
L 353 -1328 
L 353 2691 
Q 353 2813 351 2925 
Q 350 3038 348 3130 
Q 347 3222 344 3287 
Q 341 3353 338 3381 
L 784 3381 
Q 788 3372 791 3316 
L 800 3181 
Q 803 3100 806 3009 
Q 809 2919 809 2838 
L 819 2838 
Q 881 3000 964 3114 
Q 1047 3228 1153 3301 
Q 1259 3375 1387 3408 
Q 1516 3441 1678 3441 
Q 1966 3441 2161 3316 
Q 2356 3191 2476 2964 
Q 2597 2738 2647 2417 
Q 2697 2097 2697 1706 
z
M 2213 1694 
Q 2213 2006 2183 2250 
Q 2153 2494 2076 2662 
Q 2000 2831 1875 2918 
Q 1750 3006 1559 3006 
Q 1406 3006 1270 2953 
Q 1134 2900 1032 2750 
Q 931 2600 873 2336 
Q 816 2072 816 1650 
Q 816 1291 864 1042 
Q 913 794 1006 641 
Q 1100 488 1237 420 
Q 1375 353 1556 353 
Q 1750 353 1875 443 
Q 2000 534 2076 706 
Q 2153 878 2183 1126 
Q 2213 1375 2213 1694 
z
" transform="scale(0.015625)"/>
       <path id="LiberationSansNarrow-435" d="M 684 1572 
Q 684 1306 740 1082 
Q 797 859 890 698 
Q 984 538 1129 448 
Q 1275 359 1481 359 
Q 1781 359 1962 506 
Q 2144 653 2206 878 
L 2613 738 
Q 2569 597 2491 455 
Q 2413 313 2281 198 
Q 2150 84 1954 10 
Q 1759 -63 1481 -63 
Q 866 -63 544 384 
Q 222 831 222 1713 
Q 222 2188 320 2517 
Q 419 2847 587 3053 
Q 756 3259 981 3351 
Q 1206 3444 1463 3444 
Q 1813 3444 2047 3306 
Q 2500 3041 2625 2356 
Q 2684 2028 2684 1647 
L 2684 1572 
L 684 1572 
z
M 2222 2003 
Q 2222 2569 2011 2798 
Q 1800 3028 1456 3028 
Q 1213 3028 981 2822 
Q 700 2581 684 2003 
L 2222 2003 
z
" transform="scale(0.015625)"/>
       <path id="LiberationSansNarrow-43b" d="M 2231 0 
L 2231 2972 
L 1272 2972 
Q 1209 2397 1154 1948 
Q 1100 1500 1044 1162 
Q 988 825 922 592 
Q 856 359 765 214 
Q 675 69 554 3 
Q 434 -63 269 -63 
Q 194 -63 133 -50 
Q 72 -38 28 -22 
L 28 381 
Q 56 369 104 361 
Q 153 353 203 353 
Q 294 353 358 418 
Q 422 484 473 631 
Q 525 778 567 1011 
Q 609 1244 653 1581 
Q 697 1919 744 2363 
L 856 3381 
L 2697 3381 
L 2697 0 
L 2231 0 
z
" transform="scale(0.015625)"/>
       <path id="LiberationSansNarrow-438" d="M 809 3381 
L 809 1531 
Q 809 1459 806 1339 
Q 803 1219 798 1091 
Q 794 963 791 847 
Q 788 731 784 666 
L 2066 3381 
L 2569 3381 
L 2569 0 
L 2128 0 
L 2128 2063 
Q 2128 2122 2131 2213 
L 2138 2394 
Q 2141 2488 2144 2575 
L 2153 2728 
L 856 0 
L 366 0 
L 366 3381 
L 809 3381 
z
" transform="scale(0.015625)"/>
       <path id="LiberationSansNarrow-432" d="M 1444 3381 
Q 1638 3381 1823 3343 
Q 2009 3306 2153 3209 
Q 2297 3113 2383 2950 
Q 2469 2788 2469 2534 
Q 2469 2369 2425 2242 
Q 2381 2116 2303 2025 
Q 2225 1934 2120 1876 
Q 2016 1819 1900 1791 
L 1900 1769 
Q 2038 1747 2159 1692 
Q 2281 1638 2368 1542 
Q 2456 1447 2507 1306 
Q 2559 1166 2559 975 
Q 2559 731 2481 548 
Q 2403 366 2264 244 
Q 2125 122 1931 61 
Q 1738 0 1503 0 
L 363 0 
L 363 3381 
L 1444 3381 
z
M 825 416 
L 1428 416 
Q 1606 416 1728 447 
Q 1850 478 1925 547 
Q 2000 616 2034 720 
Q 2069 825 2069 972 
Q 2069 1128 2033 1237 
Q 1997 1347 1917 1415 
Q 1838 1484 1709 1515 
Q 1581 1547 1400 1547 
L 825 1547 
L 825 416 
z
M 825 2953 
L 825 1953 
L 1378 1953 
Q 1553 1953 1668 1983 
Q 1784 2013 1856 2073 
Q 1928 2134 1956 2229 
Q 1984 2325 1984 2459 
Q 1984 2716 1854 2834 
Q 1725 2953 1416 2953 
L 825 2953 
z
" transform="scale(0.015625)"/>
       <path id="LiberationSansNarrow-43a" d="M 353 3381 
L 813 3381 
L 813 1900 
Q 891 1900 952 1925 
Q 1013 1950 1080 2028 
Q 1147 2106 1230 2250 
Q 1313 2394 1438 2634 
L 1816 3381 
L 2297 3381 
L 1744 2366 
Q 1628 2159 1543 2026 
Q 1459 1894 1416 1850 
L 2319 0 
L 1806 0 
L 1097 1553 
Q 1047 1528 964 1509 
Q 881 1491 813 1491 
L 813 0 
L 353 0 
L 353 3381 
z
" transform="scale(0.015625)"/>
       <path id="LiberationSansNarrow-442" d="M 91 3381 
L 2313 3381 
L 2313 2972 
L 1431 2972 
L 1431 0 
L 972 0 
L 972 2972 
L 91 2972 
L 91 3381 
z
" transform="scale(0.015625)"/>
       <path id="LiberationSansNarrow-44c" d="M 1456 1950 
Q 1981 1950 2250 1720 
Q 2519 1491 2519 994 
Q 2519 763 2451 578 
Q 2384 394 2251 266 
Q 2119 138 1920 69 
Q 1722 0 1459 0 
L 363 0 
L 363 3381 
L 825 3381 
L 825 1950 
L 1456 1950 
z
M 825 397 
L 1388 397 
Q 1566 397 1689 436 
Q 1813 475 1888 551 
Q 1963 628 1995 739 
Q 2028 850 2028 994 
Q 2028 1288 1879 1423 
Q 1731 1559 1391 1559 
L 825 1559 
L 825 397 
z
" transform="scale(0.015625)"/>
       <path id="LiberationSansNarrow-451" d="M 684 1572 
Q 684 1306 740 1082 
Q 797 859 890 698 
Q 984 538 1129 448 
Q 1275 359 1481 359 
Q 1781 359 1962 506 
Q 2144 653 2206 878 
L 2613 738 
Q 2569 597 2491 455 
Q 2413 313 2281 198 
Q 2150 84 1954 10 
Q 1759 -63 1481 -63 
Q 866 -63 544 384 
Q 222 831 222 1713 
Q 222 2188 320 2517 
Q 419 2847 587 3053 
Q 756 3259 981 3351 
Q 1206 3444 1463 3444 
Q 1813 3444 2047 3306 
Q 2500 3041 2625 2356 
Q 2684 2028 2684 1647 
L 2684 1572 
L 684 1572 
z
M 2222 2003 
Q 2222 2569 2011 2798 
Q 1800 3028 1456 3028 
Q 1213 3028 981 2822 
Q 700 2581 684 2003 
L 2222 2003 
z
M 1900 3809 
L 1900 4384 
L 2316 4384 
L 2316 3809 
L 1900 3809 
z
M 891 3809 
L 891 4384 
L 1313 4384 
L 1313 3809 
L 891 3809 
z
" transform="scale(0.015625)"/>
       <path id="LiberationSansNarrow-44f" d="M 1372 1431 
L 566 0 
L 44 0 
L 925 1472 
Q 591 1556 439 1811 
Q 288 2066 288 2447 
Q 288 2913 564 3147 
Q 841 3381 1372 3381 
L 2478 3381 
L 2478 0 
L 2019 0 
L 2019 1431 
L 1372 1431 
z
M 2019 2984 
L 1419 2984 
Q 1084 2984 931 2840 
Q 778 2697 778 2406 
Q 778 2113 914 1967 
Q 1050 1822 1369 1822 
L 2019 1822 
L 2019 2984 
z
" transform="scale(0.015625)"/>
      </defs>
      <use xlink:href="#LiberationSansNarrow-431"/>
      <use xlink:href="#LiberationSansNarrow-43e" x="46.972656"/>
      <use xlink:href="#LiberationSansNarrow-43d" x="92.578125"/>
      <use xlink:href="#LiberationSansNarrow-443" x="137.841797"/>
      <use xlink:href="#LiberationSansNarrow-441" x="177.732422"/>
      <use xlink:href="#LiberationSansNarrow-20" x="218.748047"/>
      <use xlink:href="#LiberationSansNarrow-437" x="241.550781"/>
      <use xlink:href="#LiberationSansNarrow-430" x="279.099609"/>
      <use xlink:href="#LiberationSansNarrow-20" x="324.705078"/>
      <use xlink:href="#LiberationSansNarrow-440" x="347.507812"/>
      <use xlink:href="#LiberationSansNarrow-435" x="393.113281"/>
      <use xlink:href="#LiberationSansNarrow-431" x="437.59375"/>
      <use xlink:href="#LiberationSansNarrow-430" x="482.316406"/>
      <use xlink:href="#LiberationSansNarrow-43b" x="527.921875"/>
      <use xlink:href="#LiberationSansNarrow-430" x="575.724609"/>
      <use xlink:href="#LiberationSansNarrow-43d" x="621.330078"/>
      <use xlink:href="#LiberationSansNarrow-441" x="666.59375"/>
      <use xlink:href="#LiberationSansNarrow-438" x="707.609375"/>
      <use xlink:href="#LiberationSansNarrow-440" x="753.458984"/>
      <use xlink:href="#LiberationSansNarrow-43e" x="799.064453"/>
      <use xlink:href="#LiberationSansNarrow-432" x="844.669922"/>
      <use xlink:href="#LiberationSansNarrow-43a" x="888.224609"/>
      <use xlink:href="#LiberationSansNarrow-443" x="925.189453"/>
      <use xlink:href="#LiberationSansNarrow-20" x="966.205078"/>
      <use xlink:href="#LiberationSansNarrow-43e" x="989.007812"/>
      <use xlink:href="#LiberationSansNarrow-442" x="1032.363281"/>
      <use xlink:href="#LiberationSansNarrow-43d" x="1069.912109"/>
      <use xlink:href="#LiberationSansNarrow-43e" x="1115.175781"/>
      <use xlink:href="#LiberationSansNarrow-441" x="1160.78125"/>
      <use xlink:href="#LiberationSansNarrow-438" x="1201.796875"/>
      <use xlink:href="#LiberationSansNarrow-442" x="1247.646484"/>
      <use xlink:href="#LiberationSansNarrow-435" x="1284.070312"/>
      <use xlink:href="#LiberationSansNarrow-43b" x="1326.300781"/>
      <use xlink:href="#LiberationSansNarrow-44c" x="1374.103516"/>
      <use xlink:href="#LiberationSansNarrow-43d" x="1416.828125"/>
      <use xlink:href="#LiberationSansNarrow-43e" x="1462.091797"/>
      <use xlink:href="#LiberationSansNarrow-20" x="1507.697266"/>
      <use xlink:href="#LiberationSansNarrow-435" x="1530.5"/>
      <use xlink:href="#LiberationSansNarrow-451" x="1576.105469"/>
      <use xlink:href="#LiberationSansNarrow-20" x="1621.710938"/>
      <use xlink:href="#LiberationSansNarrow-43e" x="1644.513672"/>
      <use xlink:href="#LiberationSansNarrow-442" x="1687.869141"/>
      <use xlink:href="#LiberationSansNarrow-441" x="1724.292969"/>
      <use xlink:href="#LiberationSansNarrow-443" x="1765.308594"/>
      <use xlink:href="#LiberationSansNarrow-442" x="1806.324219"/>
      <use xlink:href="#LiberationSansNarrow-441" x="1842.748047"/>
      <use xlink:href="#LiberationSansNarrow-442" x="1883.763672"/>
      <use xlink:href="#LiberationSansNarrow-432" x="1921.3125"/>
      <use xlink:href="#LiberationSansNarrow-438" x="1964.867188"/>
      <use xlink:href="#LiberationSansNarrow-44f" x="2010.716797"/>
     </g>
    </g>
   </g>
   <g id="matplotlib.axis_2">
    <g id="ytick_1">
     <g id="line2d_7">
      <path d="M 55.73 225.381765 
L 560.88 225.381765 
" clip-path="url(#pc1cb0626fc)" style="fill: none; stroke-dasharray: 1.48,0.64; stroke-dashoffset: 0; stroke: #b0b0b0; stroke-width: 0.4"/>
     </g>
     <g id="text_8">
      <!-- 0.0 -->
      <g transform="translate(32.767812 230.454578) scale(0.14 -0.14)">
       <use xlink:href="#LiberationSansNarrow-30"/>
       <use xlink:href="#LiberationSansNarrow-2e" x="45.605469"/>
       <use xlink:href="#LiberationSansNarrow-30" x="68.408203"/>
      </g>
     </g>
    </g>
    <g id="ytick_2">
     <g id="line2d_8">
      <path d="M 55.73 185.323958 
L 560.88 185.323958 
" clip-path="url(#pc1cb0626fc)" style="fill: none; stroke-dasharray: 1.48,0.64; stroke-dashoffset: 0; stroke: #b0b0b0; stroke-width: 0.4"/>
     </g>
     <g id="text_9">
      <!-- 0.2 -->
      <g transform="translate(32.767812 190.39677) scale(0.14 -0.14)">
       <use xlink:href="#LiberationSansNarrow-30"/>
       <use xlink:href="#LiberationSansNarrow-2e" x="45.605469"/>
       <use xlink:href="#LiberationSansNarrow-32" x="68.408203"/>
      </g>
     </g>
    </g>
    <g id="ytick_3">
     <g id="line2d_9">
      <path d="M 55.73 145.26615 
L 560.88 145.26615 
" clip-path="url(#pc1cb0626fc)" style="fill: none; stroke-dasharray: 1.48,0.64; stroke-dashoffset: 0; stroke: #b0b0b0; stroke-width: 0.4"/>
     </g>
     <g id="text_10">
      <!-- 0.4 -->
      <g transform="translate(32.767812 150.338963) scale(0.14 -0.14)">
       <use xlink:href="#LiberationSansNarrow-30"/>
       <use xlink:href="#LiberationSansNarrow-2e" x="45.605469"/>
       <use xlink:href="#LiberationSansNarrow-34" x="68.408203"/>
      </g>
     </g>
    </g>
    <g id="ytick_4">
     <g id="line2d_10">
      <path d="M 55.73 105.208343 
L 560.88 105.208343 
" clip-path="url(#pc1cb0626fc)" style="fill: none; stroke-dasharray: 1.48,0.64; stroke-dashoffset: 0; stroke: #b0b0b0; stroke-width: 0.4"/>
     </g>
     <g id="text_11">
      <!-- 0.6 -->
      <g transform="translate(32.767812 110.281155) scale(0.14 -0.14)">
       <defs>
        <path id="LiberationSansNarrow-36" d="M 2688 1441 
Q 2688 1109 2613 832 
Q 2538 556 2391 357 
Q 2244 159 2025 48 
Q 1806 -63 1522 -63 
Q 1206 -63 970 84 
Q 734 231 578 507 
Q 422 784 344 1186 
Q 266 1588 266 2100 
Q 266 2688 355 3131 
Q 444 3575 609 3872 
Q 775 4169 1015 4319 
Q 1256 4469 1559 4469 
Q 1744 4469 1905 4422 
Q 2066 4375 2197 4270 
Q 2328 4166 2428 3994 
Q 2528 3822 2588 3572 
L 2147 3475 
Q 2075 3759 1917 3886 
Q 1759 4013 1553 4013 
Q 1363 4013 1209 3903 
Q 1056 3794 948 3576 
Q 841 3359 783 3031 
Q 725 2703 725 2266 
Q 850 2550 1078 2698 
Q 1306 2847 1603 2847 
Q 1850 2847 2048 2750 
Q 2247 2653 2389 2470 
Q 2531 2288 2609 2027 
Q 2688 1766 2688 1441 
z
M 2219 1416 
Q 2219 1644 2173 1828 
Q 2128 2013 2036 2142 
Q 1944 2272 1808 2342 
Q 1672 2413 1491 2413 
Q 1366 2413 1237 2367 
Q 1109 2322 1006 2220 
Q 903 2119 837 1953 
Q 772 1788 772 1550 
Q 772 1306 823 1095 
Q 875 884 970 728 
Q 1066 572 1202 481 
Q 1338 391 1506 391 
Q 1672 391 1805 461 
Q 1938 531 2030 664 
Q 2122 797 2170 987 
Q 2219 1178 2219 1416 
z
" transform="scale(0.015625)"/>
       </defs>
       <use xlink:href="#LiberationSansNarrow-30"/>
       <use xlink:href="#LiberationSansNarrow-2e" x="45.605469"/>
       <use xlink:href="#LiberationSansNarrow-36" x="68.408203"/>
      </g>
     </g>
    </g>
    <g id="ytick_5">
     <g id="line2d_11">
      <path d="M 55.73 65.150535 
L 560.88 65.150535 
" clip-path="url(#pc1cb0626fc)" style="fill: none; stroke-dasharray: 1.48,0.64; stroke-dashoffset: 0; stroke: #b0b0b0; stroke-width: 0.4"/>
     </g>
     <g id="text_12">
      <!-- 0.8 -->
      <g transform="translate(32.767812 70.223347) scale(0.14 -0.14)">
       <defs>
        <path id="LiberationSansNarrow-38" d="M 2691 1228 
Q 2691 947 2617 711 
Q 2544 475 2394 303 
Q 2244 131 2011 34 
Q 1778 -63 1459 -63 
Q 1141 -63 909 34 
Q 678 131 526 301 
Q 375 472 301 708 
Q 228 944 228 1222 
Q 228 1463 289 1650 
Q 350 1838 450 1973 
Q 550 2109 679 2192 
Q 809 2275 947 2303 
L 947 2316 
Q 797 2359 678 2456 
Q 559 2553 478 2689 
Q 397 2825 355 2990 
Q 313 3156 313 3341 
Q 313 3572 386 3776 
Q 459 3981 603 4136 
Q 747 4291 959 4380 
Q 1172 4469 1450 4469 
Q 1744 4469 1961 4378 
Q 2178 4288 2320 4133 
Q 2463 3978 2531 3772 
Q 2600 3566 2600 3334 
Q 2600 3153 2558 2987 
Q 2516 2822 2436 2686 
Q 2356 2550 2236 2454 
Q 2116 2359 1959 2322 
L 1959 2309 
Q 2116 2278 2250 2195 
Q 2384 2113 2481 1977 
Q 2578 1841 2634 1653 
Q 2691 1466 2691 1228 
z
M 2122 3303 
Q 2122 3469 2087 3606 
Q 2053 3744 1973 3842 
Q 1894 3941 1766 3995 
Q 1638 4050 1450 4050 
Q 1269 4050 1144 3995 
Q 1019 3941 937 3842 
Q 856 3744 820 3606 
Q 784 3469 784 3303 
Q 784 3172 812 3034 
Q 841 2897 916 2784 
Q 991 2672 1120 2600 
Q 1250 2528 1456 2528 
Q 1675 2528 1806 2600 
Q 1938 2672 2008 2784 
Q 2078 2897 2100 3034 
Q 2122 3172 2122 3303 
z
M 2213 1281 
Q 2213 1441 2177 1589 
Q 2141 1738 2053 1852 
Q 1966 1966 1819 2036 
Q 1672 2106 1450 2106 
Q 1247 2106 1105 2036 
Q 963 1966 875 1850 
Q 788 1734 747 1582 
Q 706 1431 706 1269 
Q 706 1066 747 898 
Q 788 731 877 611 
Q 966 491 1112 425 
Q 1259 359 1466 359 
Q 1675 359 1819 425 
Q 1963 491 2050 611 
Q 2138 731 2175 901 
Q 2213 1072 2213 1281 
z
" transform="scale(0.015625)"/>
       </defs>
       <use xlink:href="#LiberationSansNarrow-30"/>
       <use xlink:href="#LiberationSansNarrow-2e" x="45.605469"/>
       <use xlink:href="#LiberationSansNarrow-38" x="68.408203"/>
      </g>
     </g>
    </g>
    <g id="ytick_6">
     <g id="line2d_12">
      <path d="M 55.73 25.092727 
L 560.88 25.092727 
" clip-path="url(#pc1cb0626fc)" style="fill: none; stroke-dasharray: 1.48,0.64; stroke-dashoffset: 0; stroke: #b0b0b0; stroke-width: 0.4"/>
     </g>
     <g id="text_13">
      <!-- 1.0 -->
      <g transform="translate(32.767812 30.16554) scale(0.14 -0.14)">
       <use xlink:href="#LiberationSansNarrow-31"/>
       <use xlink:href="#LiberationSansNarrow-2e" x="45.605469"/>
       <use xlink:href="#LiberationSansNarrow-30" x="68.408203"/>
      </g>
     </g>
    </g>
    <g id="text_14">
     <!-- P(r &lt;= x) -->
     <g transform="translate(25.862812 147.15) rotate(-90) scale(0.14 -0.14)">
      <defs>
       <path id="LiberationSansNarrow-50" d="M 3222 3078 
Q 3222 2791 3144 2542 
Q 3066 2294 2911 2111 
Q 2756 1928 2523 1822 
Q 2291 1716 1981 1716 
L 919 1716 
L 919 0 
L 431 0 
L 431 4403 
L 1950 4403 
Q 2269 4403 2508 4308 
Q 2747 4213 2906 4039 
Q 3066 3866 3144 3620 
Q 3222 3375 3222 3078 
z
M 2731 3072 
Q 2731 3491 2522 3708 
Q 2313 3925 1891 3925 
L 919 3925 
L 919 2188 
L 1913 2188 
Q 2334 2188 2532 2416 
Q 2731 2644 2731 3072 
z
" transform="scale(0.015625)"/>
       <path id="LiberationSansNarrow-28" d="M 325 1663 
Q 325 2097 379 2494 
Q 434 2891 548 3256 
Q 663 3622 842 3965 
Q 1022 4309 1272 4638 
L 1716 4638 
Q 1475 4309 1300 3964 
Q 1125 3619 1012 3251 
Q 900 2884 844 2487 
Q 788 2091 788 1656 
Q 788 1222 844 825 
Q 900 428 1012 59 
Q 1125 -309 1300 -653 
Q 1475 -997 1716 -1325 
L 1272 -1325 
Q 1022 -997 842 -653 
Q 663 -309 548 56 
Q 434 422 379 817 
Q 325 1213 325 1650 
L 325 1663 
z
" transform="scale(0.015625)"/>
       <path id="LiberationSansNarrow-72" d="M 363 0 
L 363 2594 
Q 363 2594 363 2813 
Q 363 2922 359 3025 
Q 356 3128 353 3218 
Q 350 3309 347 3381 
L 784 3381 
Q 788 3309 791 3217 
Q 794 3125 798 3028 
Q 803 2931 803 2844 
L 803 2691 
L 816 2691 
Q 866 2884 919 3026 
Q 972 3169 1047 3261 
Q 1122 3353 1225 3398 
Q 1328 3444 1472 3444 
Q 1528 3444 1579 3433 
Q 1631 3422 1659 3413 
L 1659 2897 
Q 1613 2913 1552 2920 
Q 1491 2928 1413 2928 
Q 1253 2928 1142 2840 
Q 1031 2753 961 2598 
Q 891 2444 858 2230 
Q 825 2016 825 1763 
L 825 0 
L 363 0 
z
" transform="scale(0.015625)"/>
       <path id="LiberationSansNarrow-3c" d="M 259 1784 
L 259 2425 
L 2809 3731 
L 2809 3250 
L 609 2106 
L 2809 959 
L 2809 481 
L 259 1784 
z
" transform="scale(0.015625)"/>
       <path id="LiberationSansNarrow-3d" d="M 256 2675 
L 256 3138 
L 2806 3138 
L 2806 2675 
L 256 2675 
z
M 256 1075 
L 256 1538 
L 2806 1538 
L 2806 1075 
L 256 1075 
z
" transform="scale(0.015625)"/>
       <path id="LiberationSansNarrow-78" d="M 2053 0 
L 1306 1388 
L 556 0 
L 59 0 
L 1047 1738 
L 106 3381 
L 616 3381 
L 1306 2066 
L 1994 3381 
L 2509 3381 
L 1569 1744 
L 2569 0 
L 2053 0 
z
" transform="scale(0.015625)"/>
       <path id="LiberationSansNarrow-29" d="M 1422 1650 
Q 1422 1213 1367 817 
Q 1313 422 1198 56 
Q 1084 -309 904 -653 
Q 725 -997 475 -1325 
L 31 -1325 
Q 272 -997 447 -653 
Q 622 -309 734 59 
Q 847 428 903 825 
Q 959 1222 959 1656 
Q 959 2091 903 2487 
Q 847 2884 734 3251 
Q 622 3619 447 3964 
Q 272 4309 31 4638 
L 475 4638 
Q 725 4309 904 3965 
Q 1084 3622 1198 3256 
Q 1313 2891 1367 2494 
Q 1422 2097 1422 1663 
L 1422 1650 
z
" transform="scale(0.015625)"/>
      </defs>
      <use xlink:href="#LiberationSansNarrow-50"/>
      <use xlink:href="#LiberationSansNarrow-28" x="54.6875"/>
      <use xlink:href="#LiberationSansNarrow-72" x="81.982422"/>
      <use xlink:href="#LiberationSansNarrow-20" x="109.277344"/>
      <use xlink:href="#LiberationSansNarrow-3c" x="132.080078"/>
      <use xlink:href="#LiberationSansNarrow-3d" x="179.980469"/>
      <use xlink:href="#LiberationSansNarrow-20" x="227.880859"/>
      <use xlink:href="#LiberationSansNarrow-78" x="250.683594"/>
      <use xlink:href="#LiberationSansNarrow-29" x="291.699219"/>
     </g>
    </g>
   </g>
   <g id="line2d_13">
    <path d="M 78.691364 224.547273 
L 87.641184 224.470284 
L 96.591005 224.386049 
L 105.540826 224.293869 
L 114.490647 224.192972 
L 123.440467 224.08251 
L 132.390288 223.961549 
L 141.340109 223.829059 
L 150.28993 223.683905 
L 159.23975 223.524836 
L 168.189571 223.350469 
L 177.139392 223.159279 
L 186.089213 222.94958 
L 195.039033 222.719506 
L 203.988854 222.466996 
L 212.938675 222.189763 
L 221.888496 221.885275 
L 230.838316 221.550721 
L 239.788137 221.182982 
L 248.737958 220.778587 
L 257.687779 220.333677 
L 266.637599 219.843951 
L 275.58742 219.304609 
L 284.537241 218.71029 
L 293.487061 218.054995 
L 302.436882 217.332 
L 311.386703 216.533754 
L 320.336524 215.651763 
L 329.286344 214.676447 
L 338.236165 213.596978 
L 347.185986 212.401083 
L 356.135807 211.074806 
L 365.085627 209.602231 
L 374.035448 207.965129 
L 382.985269 206.142537 
L 391.93509 204.110225 
L 400.88491 201.840033 
L 409.834731 199.29902 
L 418.784552 196.448355 
L 427.734373 193.241863 
L 436.684193 189.624054 
L 445.634014 185.527402 
L 454.583835 180.868464 
L 463.533656 175.54218 
L 472.483476 169.413104 
L 481.433297 162.301253 
L 490.383118 153.957701 
L 499.332939 144.018819 
L 508.282759 131.909862 
L 517.23258 116.603653 
L 526.182401 95.812137 
L 535.132222 60.466326 
L 537.918636 25.092727 
" clip-path="url(#pc1cb0626fc)" style="fill: none; stroke: #1f77b4; stroke-width: 1.5; stroke-linecap: square"/>
   </g>
   <g id="line2d_14">
    <path d="M 78.691364 222.559673 
L 87.641184 222.349692 
L 96.591005 222.124025 
L 105.540826 221.881488 
L 114.490647 221.620806 
L 123.440467 221.340602 
L 132.390288 221.039393 
L 141.340109 220.715582 
L 150.28993 220.367443 
L 159.23975 219.993115 
L 168.189571 219.590589 
L 177.139392 219.157693 
L 186.089213 218.692084 
L 195.039033 218.191224 
L 203.988854 217.652372 
L 212.938675 217.072557 
L 221.888496 216.448562 
L 230.838316 215.7769 
L 239.788137 215.053788 
L 248.737958 214.275116 
L 257.687779 213.436417 
L 266.637599 212.532828 
L 275.58742 211.559051 
L 284.537241 210.509305 
L 293.487061 209.37727 
L 302.436882 208.156029 
L 311.386703 206.837994 
L 320.336524 205.414824 
L 329.286344 203.877331 
L 338.236165 202.215361 
L 347.185986 200.417667 
L 356.135807 198.471741 
L 365.085627 196.363624 
L 374.035448 194.077666 
L 382.985269 191.596238 
L 391.93509 188.899363 
L 400.88491 185.964257 
L 409.834731 182.764735 
L 418.784552 179.270435 
L 427.734373 175.445786 
L 436.684193 171.248602 
L 445.634014 166.628112 
L 454.583835 161.522141 
L 463.533656 155.852904 
L 472.483476 149.520481 
L 481.433297 142.392173 
L 490.383118 134.28397 
L 499.332939 124.925452 
L 508.282759 113.885188 
L 517.23258 100.382414 
L 526.182401 82.650994 
L 535.132222 53.558624 
L 537.918636 25.092727 
" clip-path="url(#pc1cb0626fc)" style="fill: none; stroke: #ff7f0e; stroke-width: 1.5; stroke-linecap: square"/>
   </g>
   <g id="line2d_15">
    <path d="M 78.691364 222.927056 
L 87.641184 222.740243 
L 96.591005 222.539111 
L 105.540826 222.322548 
L 114.490647 222.089351 
L 123.440467 221.838221 
L 132.390288 221.567751 
L 141.340109 221.276425 
L 150.28993 220.962599 
L 159.23975 220.624497 
L 168.189571 220.260195 
L 177.139392 219.867608 
L 186.089213 219.44448 
L 195.039033 218.988361 
L 203.988854 218.496596 
L 212.938675 217.966301 
L 221.888496 217.394343 
L 230.838316 216.777314 
L 239.788137 216.111508 
L 248.737958 215.392884 
L 257.687779 214.617038 
L 266.637599 213.779159 
L 275.58742 212.87399 
L 284.537241 211.895774 
L 293.487061 210.838198 
L 302.436882 209.694331 
L 311.386703 208.45654 
L 320.336524 207.116412 
L 329.286344 205.664644 
L 338.236165 204.090923 
L 347.185986 202.383786 
L 356.135807 200.530444 
L 365.085627 198.516577 
L 374.035448 196.32608 
L 382.985269 193.940752 
L 391.93509 191.33991 
L 400.88491 188.499894 
L 409.834731 185.39344 
L 418.784552 181.988856 
L 427.734373 178.248929 
L 436.684193 174.12944 
L 445.634014 169.577086 
L 454.583835 164.52651 
L 463.533656 158.895878 
L 472.483476 152.580037 
L 481.433297 145.439363 
L 490.383118 137.280377 
L 499.332939 127.819101 
L 508.282759 116.603274 
L 517.23258 102.816274 
L 526.182401 84.615728 
L 535.132222 54.584572 
L 537.918636 25.092727 
" clip-path="url(#pc1cb0626fc)" style="fill: none; stroke: #2ca02c; stroke-width: 1.5; stroke-linecap: square"/>
   </g>
   <g id="legend_1">
    <g id="patch_3">
     <path d="M 62.73 66.085625 
L 144.13 66.085625 
Q 146.13 66.085625 146.13 64.085625 
L 146.13 22.12 
Q 146.13 20.12 144.13 20.12 
L 62.73 20.12 
Q 60.73 20.12 60.73 22.12 
L 60.73 64.085625 
Q 60.73 66.085625 62.73 66.085625 
z
" style="fill: #ffffff; opacity: 0.8; stroke: #cccccc; stroke-linejoin: miter"/>
    </g>
    <g id="line2d_16">
     <path d="M 64.73 27.866875 
L 74.73 27.866875 
L 84.73 27.866875 
" style="fill: none; stroke: #1f77b4; stroke-width: 1.5; stroke-linecap: square"/>
    </g>
    <g id="text_15">
     <!-- $r_B=0.057$ -->
     <g transform="translate(92.73 31.366875) scale(0.1 -0.1)">
      <defs>
       <path id="DejaVuSans-Oblique-72" d="M 2853 2969 
Q 2766 3016 2653 3041 
Q 2541 3066 2413 3066 
Q 1953 3066 1609 2717 
Q 1266 2369 1153 1784 
L 800 0 
L 225 0 
L 909 3500 
L 1484 3500 
L 1375 2956 
Q 1603 3259 1920 3421 
Q 2238 3584 2597 3584 
Q 2691 3584 2781 3573 
Q 2872 3563 2963 3538 
L 2853 2969 
z
" transform="scale(0.015625)"/>
       <path id="DejaVuSans-Oblique-42" d="M 1081 4666 
L 2694 4666 
Q 3350 4666 3675 4422 
Q 4000 4178 4000 3688 
Q 4000 3238 3720 2911 
Q 3441 2584 2988 2516 
Q 3375 2428 3569 2181 
Q 3763 1934 3763 1522 
Q 3763 819 3242 409 
Q 2722 0 1819 0 
L 172 0 
L 1081 4666 
z
M 1234 2228 
L 903 519 
L 1919 519 
Q 2491 519 2800 781 
Q 3109 1044 3109 1522 
Q 3109 1891 2904 2059 
Q 2700 2228 2247 2228 
L 1234 2228 
z
M 1606 4147 
L 1331 2741 
L 2272 2741 
Q 2775 2741 3058 2959 
Q 3341 3178 3341 3566 
Q 3341 3869 3150 4008 
Q 2959 4147 2541 4147 
L 1606 4147 
z
" transform="scale(0.015625)"/>
       <path id="DejaVuSans-3d" d="M 678 2906 
L 4684 2906 
L 4684 2381 
L 678 2381 
L 678 2906 
z
M 678 1631 
L 4684 1631 
L 4684 1100 
L 678 1100 
L 678 1631 
z
" transform="scale(0.015625)"/>
       <path id="DejaVuSans-30" d="M 2034 4250 
Q 1547 4250 1301 3770 
Q 1056 3291 1056 2328 
Q 1056 1369 1301 889 
Q 1547 409 2034 409 
Q 2525 409 2770 889 
Q 3016 1369 3016 2328 
Q 3016 3291 2770 3770 
Q 2525 4250 2034 4250 
z
M 2034 4750 
Q 2819 4750 3233 4129 
Q 3647 3509 3647 2328 
Q 3647 1150 3233 529 
Q 2819 -91 2034 -91 
Q 1250 -91 836 529 
Q 422 1150 422 2328 
Q 422 3509 836 4129 
Q 1250 4750 2034 4750 
z
" transform="scale(0.015625)"/>
       <path id="DejaVuSans-2e" d="M 684 794 
L 1344 794 
L 1344 0 
L 684 0 
L 684 794 
z
" transform="scale(0.015625)"/>
       <path id="DejaVuSans-35" d="M 691 4666 
L 3169 4666 
L 3169 4134 
L 1269 4134 
L 1269 2991 
Q 1406 3038 1543 3061 
Q 1681 3084 1819 3084 
Q 2600 3084 3056 2656 
Q 3513 2228 3513 1497 
Q 3513 744 3044 326 
Q 2575 -91 1722 -91 
Q 1428 -91 1123 -41 
Q 819 9 494 109 
L 494 744 
Q 775 591 1075 516 
Q 1375 441 1709 441 
Q 2250 441 2565 725 
Q 2881 1009 2881 1497 
Q 2881 1984 2565 2268 
Q 2250 2553 1709 2553 
Q 1456 2553 1204 2497 
Q 953 2441 691 2322 
L 691 4666 
z
" transform="scale(0.015625)"/>
       <path id="DejaVuSans-37" d="M 525 4666 
L 3525 4666 
L 3525 4397 
L 1831 0 
L 1172 0 
L 2766 4134 
L 525 4134 
L 525 4666 
z
" transform="scale(0.015625)"/>
      </defs>
      <use xlink:href="#DejaVuSans-Oblique-72" transform="translate(0 0.78125)"/>
      <use xlink:href="#DejaVuSans-Oblique-42" transform="translate(41.113281 -15.625) scale(0.7)"/>
      <use xlink:href="#DejaVuSans-3d" transform="translate(111.352539 0.78125)"/>
      <use xlink:href="#DejaVuSans-30" transform="translate(214.624023 0.78125)"/>
      <use xlink:href="#DejaVuSans-2e" transform="translate(278.24707 0.78125)"/>
      <use xlink:href="#DejaVuSans-30" transform="translate(310.03418 0.78125)"/>
      <use xlink:href="#DejaVuSans-35" transform="translate(373.657227 0.78125)"/>
      <use xlink:href="#DejaVuSans-37" transform="translate(430.030273 0.78125)"/>
     </g>
    </g>
    <g id="line2d_17">
     <path d="M 64.73 42.18875 
L 74.73 42.18875 
L 84.73 42.18875 
" style="fill: none; stroke: #ff7f0e; stroke-width: 1.5; stroke-linecap: square"/>
    </g>
    <g id="text_16">
     <!-- $r_B=0.01$ -->
     <g transform="translate(92.73 45.68875) scale(0.1 -0.1)">
      <defs>
       <path id="DejaVuSans-31" d="M 794 531 
L 1825 531 
L 1825 4091 
L 703 3866 
L 703 4441 
L 1819 4666 
L 2450 4666 
L 2450 531 
L 3481 531 
L 3481 0 
L 794 0 
L 794 531 
z
" transform="scale(0.015625)"/>
      </defs>
      <use xlink:href="#DejaVuSans-Oblique-72" transform="translate(0 0.78125)"/>
      <use xlink:href="#DejaVuSans-Oblique-42" transform="translate(41.113281 -15.625) scale(0.7)"/>
      <use xlink:href="#DejaVuSans-3d" transform="translate(111.352539 0.78125)"/>
      <use xlink:href="#DejaVuSans-30" transform="translate(214.624023 0.78125)"/>
      <use xlink:href="#DejaVuSans-2e" transform="translate(278.24707 0.78125)"/>
      <use xlink:href="#DejaVuSans-30" transform="translate(310.03418 0.78125)"/>
      <use xlink:href="#DejaVuSans-31" transform="translate(373.657227 0.78125)"/>
     </g>
    </g>
    <g id="line2d_18">
     <path d="M 64.73 56.510625 
L 74.73 56.510625 
L 84.73 56.510625 
" style="fill: none; stroke: #2ca02c; stroke-width: 1.5; stroke-linecap: square"/>
    </g>
    <g id="text_17">
     <!-- $r_B=0.1$ -->
     <g transform="translate(92.73 60.010625) scale(0.1 -0.1)">
      <use xlink:href="#DejaVuSans-Oblique-72" transform="translate(0 0.78125)"/>
      <use xlink:href="#DejaVuSans-Oblique-42" transform="translate(41.113281 -15.625) scale(0.7)"/>
      <use xlink:href="#DejaVuSans-3d" transform="translate(111.352539 0.78125)"/>
      <use xlink:href="#DejaVuSans-30" transform="translate(214.624023 0.78125)"/>
      <use xlink:href="#DejaVuSans-2e" transform="translate(278.24707 0.78125)"/>
      <use xlink:href="#DejaVuSans-31" transform="translate(310.03418 0.78125)"/>
     </g>
    </g>
   </g>
  </g>
 </g>
 <defs>
  <clipPath id="pc1cb0626fc">
   <rect x="55.73" y="15.12" width="505.15" height="219.4"/>
  </clipPath>
 </defs>
</svg>
