<?xml version="1.0" encoding="utf-8" standalone="no"?>
<!DOCTYPE svg PUBLIC "-//W3C//DTD SVG 1.1//EN"
  "http://www.w3.org/Graphics/SVG/1.1/DTD/svg11.dtd">
<!-- Created with matplotlib (https://matplotlib.org/) -->
<svg height="288pt" version="1.1" viewBox="0 0 576 288" width="576pt" xmlns="http://www.w3.org/2000/svg" xmlns:xlink="http://www.w3.org/1999/xlink">
 <defs>
  <style type="text/css">
*{stroke-linecap:butt;stroke-linejoin:round;}
  </style>
 </defs>
 <g id="figure_1">
  <g id="patch_1">
   <path d="M 0 288 
L 576 288 
L 576 0 
L 0 0 
z
" style="fill:#ffffff;"/>
  </g>
  <g id="axes_1">
   <g id="patch_2">
    <path d="M 38.14 252.2 
L 558.36 252.2 
L 558.36 17.64 
L 38.14 17.64 
z
" style="fill:#ffffff;"/>
   </g>
   <g id="matplotlib.axis_1">
    <g id="xtick_1">
     <g id="line2d_1">
      <path clip-path="url(#pee021d92c0)" d="M 89.727195 252.2 
L 89.727195 17.64 
" style="fill:none;stroke:#b0b0b0;stroke-dasharray:1.48,0.64;stroke-dashoffset:0;stroke-width:0.4;"/>
     </g>
     <g id="text_1">
      <!-- 2004 -->
      <defs>
       <path d="M 4.109375 0 
L 4.109375 6.203125 
Q 6.15625 11.921875 9.109375 16.28125 
Q 12.0625 20.65625 15.3125 24.1875 
Q 18.5625 27.734375 21.734375 30.765625 
Q 24.90625 33.796875 27.46875 36.8125 
Q 30.03125 39.84375 31.609375 43.15625 
Q 33.203125 46.484375 33.203125 50.6875 
Q 33.203125 53.609375 32.46875 55.828125 
Q 31.734375 58.0625 30.390625 59.5625 
Q 29.046875 61.078125 27.140625 61.828125 
Q 25.25 62.59375 22.90625 62.59375 
Q 20.75 62.59375 18.84375 61.859375 
Q 16.9375 61.140625 15.453125 59.671875 
Q 13.96875 58.203125 13.03125 56.03125 
Q 12.109375 53.859375 11.8125 50.984375 
L 4.4375 51.8125 
Q 4.78125 55.515625 6.125 58.78125 
Q 7.46875 62.0625 9.78125 64.53125 
Q 12.109375 67 15.359375 68.40625 
Q 18.609375 69.828125 22.90625 69.828125 
Q 27.09375 69.828125 30.390625 68.609375 
Q 33.6875 67.390625 35.9375 64.984375 
Q 38.1875 62.59375 39.40625 59.078125 
Q 40.625 55.5625 40.625 50.984375 
Q 40.625 47.515625 39.59375 44.390625 
Q 38.578125 41.265625 36.859375 38.421875 
Q 35.15625 35.59375 32.90625 32.953125 
Q 30.671875 30.328125 28.21875 27.828125 
L 23.296875 22.859375 
Q 20.796875 20.359375 18.625 17.859375 
Q 16.453125 15.375 14.734375 12.8125 
Q 13.03125 10.25 12.0625 7.46875 
L 41.5 7.46875 
L 41.5 0 
z
" id="LiberationSansNarrow-50"/>
       <path d="M 42.390625 34.421875 
Q 42.390625 24.515625 40.84375 17.75 
Q 39.3125 10.984375 36.640625 6.8125 
Q 33.984375 2.640625 30.390625 0.828125 
Q 26.8125 -0.984375 22.703125 -0.984375 
Q 18.609375 -0.984375 15.03125 0.828125 
Q 11.46875 2.640625 8.828125 6.78125 
Q 6.203125 10.9375 4.703125 17.703125 
Q 3.21875 24.46875 3.21875 34.421875 
Q 3.21875 44.828125 4.703125 51.640625 
Q 6.203125 58.453125 8.828125 62.5 
Q 11.46875 66.546875 15.078125 68.1875 
Q 18.703125 69.828125 22.953125 69.828125 
Q 27 69.828125 30.53125 68.1875 
Q 34.078125 66.546875 36.71875 62.5 
Q 39.359375 58.453125 40.875 51.640625 
Q 42.390625 44.828125 42.390625 34.421875 
z
M 35.0625 34.421875 
Q 35.0625 42.625 34.28125 48.0625 
Q 33.5 53.515625 31.9375 56.765625 
Q 30.375 60.015625 28.09375 61.359375 
Q 25.828125 62.703125 22.953125 62.703125 
Q 19.921875 62.703125 17.578125 61.328125 
Q 15.234375 59.96875 13.671875 56.71875 
Q 12.109375 53.46875 11.296875 48.015625 
Q 10.5 42.578125 10.5 34.421875 
Q 10.5 26.515625 11.296875 21.09375 
Q 12.109375 15.671875 13.6875 12.375 
Q 15.28125 9.078125 17.578125 7.640625 
Q 19.875 6.203125 22.796875 6.203125 
Q 25.640625 6.203125 27.90625 7.640625 
Q 30.171875 9.078125 31.75 12.375 
Q 33.34375 15.671875 34.203125 21.09375 
Q 35.0625 26.515625 35.0625 34.421875 
z
" id="LiberationSansNarrow-48"/>
       <path d="M 35.25 15.578125 
L 35.25 0 
L 28.46875 0 
L 28.46875 15.578125 
L 1.90625 15.578125 
L 1.90625 22.40625 
L 27.6875 68.796875 
L 35.25 68.796875 
L 35.25 22.515625 
L 43.21875 22.515625 
L 43.21875 15.578125 
z
M 28.46875 58.890625 
Q 28.375 58.640625 28.03125 57.90625 
L 27.34375 56.34375 
L 26.5625 54.59375 
Q 26.125 53.65625 25.78125 53.078125 
L 11.328125 27.09375 
Q 11.140625 26.703125 10.75 26.078125 
L 9.96875 24.8125 
L 9.1875 23.484375 
Q 8.796875 22.859375 8.546875 22.515625 
L 28.46875 22.515625 
z
" id="LiberationSansNarrow-52"/>
      </defs>
      <g transform="translate(76.95657 269.345625)scale(0.14 -0.14)">
       <use xlink:href="#LiberationSansNarrow-50"/>
       <use x="45.605469" xlink:href="#LiberationSansNarrow-48"/>
       <use x="91.210938" xlink:href="#LiberationSansNarrow-48"/>
       <use x="136.816406" xlink:href="#LiberationSansNarrow-52"/>
      </g>
     </g>
    </g>
    <g id="xtick_2">
     <g id="line2d_2">
      <path clip-path="url(#pee021d92c0)" d="M 145.685407 252.2 
L 145.685407 17.64 
" style="fill:none;stroke:#b0b0b0;stroke-dasharray:1.48,0.64;stroke-dashoffset:0;stroke-width:0.4;"/>
     </g>
     <g id="text_2">
      <!-- 2006 -->
      <defs>
       <path d="M 42 22.515625 
Q 42 17.328125 40.828125 13 
Q 39.65625 8.6875 37.359375 5.578125 
Q 35.0625 2.484375 31.640625 0.75 
Q 28.21875 -0.984375 23.78125 -0.984375 
Q 18.84375 -0.984375 15.15625 1.3125 
Q 11.46875 3.609375 9.03125 7.921875 
Q 6.59375 12.25 5.375 18.53125 
Q 4.15625 24.8125 4.15625 32.8125 
Q 4.15625 42 5.546875 48.921875 
Q 6.9375 55.859375 9.515625 60.5 
Q 12.109375 65.140625 15.859375 67.484375 
Q 19.625 69.828125 24.359375 69.828125 
Q 27.25 69.828125 29.765625 69.09375 
Q 32.28125 68.359375 34.328125 66.71875 
Q 36.375 65.09375 37.9375 62.40625 
Q 39.5 59.71875 40.4375 55.8125 
L 33.546875 54.296875 
Q 32.421875 58.734375 29.953125 60.71875 
Q 27.484375 62.703125 24.265625 62.703125 
Q 21.296875 62.703125 18.890625 60.984375 
Q 16.5 59.28125 14.8125 55.875 
Q 13.140625 52.484375 12.234375 47.359375 
Q 11.328125 42.234375 11.328125 35.40625 
Q 13.28125 39.84375 16.84375 42.15625 
Q 20.40625 44.484375 25.046875 44.484375 
Q 28.90625 44.484375 32 42.96875 
Q 35.109375 41.453125 37.328125 38.59375 
Q 39.546875 35.75 40.765625 31.671875 
Q 42 27.59375 42 22.515625 
z
M 34.671875 22.125 
Q 34.671875 25.6875 33.953125 28.5625 
Q 33.25 31.453125 31.8125 33.46875 
Q 30.375 35.5 28.25 36.59375 
Q 26.125 37.703125 23.296875 37.703125 
Q 21.34375 37.703125 19.328125 36.984375 
Q 17.328125 36.28125 15.71875 34.6875 
Q 14.109375 33.109375 13.078125 30.515625 
Q 12.0625 27.9375 12.0625 24.21875 
Q 12.0625 20.40625 12.859375 17.109375 
Q 13.671875 13.8125 15.15625 11.375 
Q 16.65625 8.9375 18.78125 7.515625 
Q 20.90625 6.109375 23.53125 6.109375 
Q 26.125 6.109375 28.203125 7.203125 
Q 30.28125 8.296875 31.71875 10.375 
Q 33.15625 12.453125 33.90625 15.421875 
Q 34.671875 18.40625 34.671875 22.125 
z
" id="LiberationSansNarrow-54"/>
      </defs>
      <g transform="translate(132.914782 269.345625)scale(0.14 -0.14)">
       <use xlink:href="#LiberationSansNarrow-50"/>
       <use x="45.605469" xlink:href="#LiberationSansNarrow-48"/>
       <use x="91.210938" xlink:href="#LiberationSansNarrow-48"/>
       <use x="136.816406" xlink:href="#LiberationSansNarrow-54"/>
      </g>
     </g>
    </g>
    <g id="xtick_3">
     <g id="line2d_3">
      <path clip-path="url(#pee021d92c0)" d="M 201.567069 252.2 
L 201.567069 17.64 
" style="fill:none;stroke:#b0b0b0;stroke-dasharray:1.48,0.64;stroke-dashoffset:0;stroke-width:0.4;"/>
     </g>
     <g id="text_3">
      <!-- 2008 -->
      <defs>
       <path d="M 42.046875 19.1875 
Q 42.046875 14.796875 40.890625 11.109375 
Q 39.75 7.421875 37.40625 4.734375 
Q 35.0625 2.046875 31.421875 0.53125 
Q 27.78125 -0.984375 22.796875 -0.984375 
Q 17.828125 -0.984375 14.203125 0.53125 
Q 10.59375 2.046875 8.21875 4.703125 
Q 5.859375 7.375 4.703125 11.0625 
Q 3.5625 14.75 3.5625 19.09375 
Q 3.5625 22.859375 4.515625 25.78125 
Q 5.46875 28.71875 7.03125 30.828125 
Q 8.59375 32.953125 10.609375 34.25 
Q 12.640625 35.546875 14.796875 35.984375 
L 14.796875 36.1875 
Q 12.453125 36.859375 10.59375 38.375 
Q 8.734375 39.890625 7.46875 42.015625 
Q 6.203125 44.140625 5.546875 46.71875 
Q 4.890625 49.3125 4.890625 52.203125 
Q 4.890625 55.8125 6.03125 59 
Q 7.171875 62.203125 9.421875 64.625 
Q 11.671875 67.046875 14.984375 68.4375 
Q 18.3125 69.828125 22.65625 69.828125 
Q 27.25 69.828125 30.640625 68.40625 
Q 34.03125 67 36.25 64.578125 
Q 38.484375 62.15625 39.546875 58.9375 
Q 40.625 55.71875 40.625 52.09375 
Q 40.625 49.265625 39.96875 46.671875 
Q 39.3125 44.09375 38.0625 41.96875 
Q 36.8125 39.84375 34.9375 38.34375 
Q 33.0625 36.859375 30.609375 36.28125 
L 30.609375 36.078125 
Q 33.0625 35.59375 35.15625 34.296875 
Q 37.25 33.015625 38.765625 30.890625 
Q 40.28125 28.765625 41.15625 25.828125 
Q 42.046875 22.90625 42.046875 19.1875 
z
M 33.15625 51.609375 
Q 33.15625 54.203125 32.609375 56.34375 
Q 32.078125 58.5 30.828125 60.03125 
Q 29.59375 61.578125 27.59375 62.421875 
Q 25.59375 63.28125 22.65625 63.28125 
Q 19.828125 63.28125 17.875 62.421875 
Q 15.921875 61.578125 14.640625 60.03125 
Q 13.375 58.5 12.8125 56.34375 
Q 12.25 54.203125 12.25 51.609375 
Q 12.25 49.5625 12.6875 47.40625 
Q 13.140625 45.265625 14.3125 43.5 
Q 15.484375 41.75 17.5 40.625 
Q 19.53125 39.5 22.75 39.5 
Q 26.171875 39.5 28.21875 40.625 
Q 30.28125 41.75 31.375 43.5 
Q 32.46875 45.265625 32.8125 47.40625 
Q 33.15625 49.5625 33.15625 51.609375 
z
M 34.578125 20.015625 
Q 34.578125 22.515625 34.015625 24.828125 
Q 33.453125 27.15625 32.078125 28.9375 
Q 30.71875 30.71875 28.421875 31.8125 
Q 26.125 32.90625 22.65625 32.90625 
Q 19.484375 32.90625 17.265625 31.8125 
Q 15.046875 30.71875 13.671875 28.90625 
Q 12.3125 27.09375 11.671875 24.71875 
Q 11.03125 22.359375 11.03125 19.828125 
Q 11.03125 16.65625 11.671875 14.03125 
Q 12.3125 11.421875 13.703125 9.546875 
Q 15.09375 7.671875 17.375 6.640625 
Q 19.671875 5.609375 22.90625 5.609375 
Q 26.171875 5.609375 28.421875 6.640625 
Q 30.671875 7.671875 32.03125 9.546875 
Q 33.40625 11.421875 33.984375 14.078125 
Q 34.578125 16.75 34.578125 20.015625 
z
" id="LiberationSansNarrow-56"/>
      </defs>
      <g transform="translate(188.796444 269.345625)scale(0.14 -0.14)">
       <use xlink:href="#LiberationSansNarrow-50"/>
       <use x="45.605469" xlink:href="#LiberationSansNarrow-48"/>
       <use x="91.210938" xlink:href="#LiberationSansNarrow-48"/>
       <use x="136.816406" xlink:href="#LiberationSansNarrow-56"/>
      </g>
     </g>
    </g>
    <g id="xtick_4">
     <g id="line2d_4">
      <path clip-path="url(#pee021d92c0)" d="M 257.525282 252.2 
L 257.525282 17.64 
" style="fill:none;stroke:#b0b0b0;stroke-dasharray:1.48,0.64;stroke-dashoffset:0;stroke-width:0.4;"/>
     </g>
     <g id="text_4">
      <!-- 2010 -->
      <defs>
       <path d="M 6.25 0 
L 6.25 7.46875 
L 20.609375 7.46875 
L 20.609375 60.40625 
L 7.90625 49.3125 
L 7.90625 57.625 
L 21.234375 68.796875 
L 27.875 68.796875 
L 27.875 7.46875 
L 41.609375 7.46875 
L 41.609375 0 
z
" id="LiberationSansNarrow-49"/>
      </defs>
      <g transform="translate(244.754657 269.345625)scale(0.14 -0.14)">
       <use xlink:href="#LiberationSansNarrow-50"/>
       <use x="45.605469" xlink:href="#LiberationSansNarrow-48"/>
       <use x="91.210938" xlink:href="#LiberationSansNarrow-49"/>
       <use x="136.816406" xlink:href="#LiberationSansNarrow-48"/>
      </g>
     </g>
    </g>
    <g id="xtick_5">
     <g id="line2d_5">
      <path clip-path="url(#pee021d92c0)" d="M 313.406944 252.2 
L 313.406944 17.64 
" style="fill:none;stroke:#b0b0b0;stroke-dasharray:1.48,0.64;stroke-dashoffset:0;stroke-width:0.4;"/>
     </g>
     <g id="text_5">
      <!-- 2012 -->
      <g transform="translate(300.636319 269.345625)scale(0.14 -0.14)">
       <use xlink:href="#LiberationSansNarrow-50"/>
       <use x="45.605469" xlink:href="#LiberationSansNarrow-48"/>
       <use x="91.210938" xlink:href="#LiberationSansNarrow-49"/>
       <use x="136.816406" xlink:href="#LiberationSansNarrow-50"/>
      </g>
     </g>
    </g>
    <g id="xtick_6">
     <g id="line2d_6">
      <path clip-path="url(#pee021d92c0)" d="M 369.365156 252.2 
L 369.365156 17.64 
" style="fill:none;stroke:#b0b0b0;stroke-dasharray:1.48,0.64;stroke-dashoffset:0;stroke-width:0.4;"/>
     </g>
     <g id="text_6">
      <!-- 2014 -->
      <g transform="translate(356.594531 269.345625)scale(0.14 -0.14)">
       <use xlink:href="#LiberationSansNarrow-50"/>
       <use x="45.605469" xlink:href="#LiberationSansNarrow-48"/>
       <use x="91.210938" xlink:href="#LiberationSansNarrow-49"/>
       <use x="136.816406" xlink:href="#LiberationSansNarrow-52"/>
      </g>
     </g>
    </g>
    <g id="xtick_7">
     <g id="line2d_7">
      <path clip-path="url(#pee021d92c0)" d="M 425.246819 252.2 
L 425.246819 17.64 
" style="fill:none;stroke:#b0b0b0;stroke-dasharray:1.48,0.64;stroke-dashoffset:0;stroke-width:0.4;"/>
     </g>
     <g id="text_7">
      <!-- 2016 -->
      <g transform="translate(412.476194 269.345625)scale(0.14 -0.14)">
       <use xlink:href="#LiberationSansNarrow-50"/>
       <use x="45.605469" xlink:href="#LiberationSansNarrow-48"/>
       <use x="91.210938" xlink:href="#LiberationSansNarrow-49"/>
       <use x="136.816406" xlink:href="#LiberationSansNarrow-54"/>
      </g>
     </g>
    </g>
    <g id="xtick_8">
     <g id="line2d_8">
      <path clip-path="url(#pee021d92c0)" d="M 481.205031 252.2 
L 481.205031 17.64 
" style="fill:none;stroke:#b0b0b0;stroke-dasharray:1.48,0.64;stroke-dashoffset:0;stroke-width:0.4;"/>
     </g>
     <g id="text_8">
      <!-- 2018 -->
      <g transform="translate(468.434406 269.345625)scale(0.14 -0.14)">
       <use xlink:href="#LiberationSansNarrow-50"/>
       <use x="45.605469" xlink:href="#LiberationSansNarrow-48"/>
       <use x="91.210938" xlink:href="#LiberationSansNarrow-49"/>
       <use x="136.816406" xlink:href="#LiberationSansNarrow-56"/>
      </g>
     </g>
    </g>
    <g id="xtick_9">
     <g id="line2d_9">
      <path clip-path="url(#pee021d92c0)" d="M 537.086693 252.2 
L 537.086693 17.64 
" style="fill:none;stroke:#b0b0b0;stroke-dasharray:1.48,0.64;stroke-dashoffset:0;stroke-width:0.4;"/>
     </g>
     <g id="text_9">
      <!-- 2020 -->
      <g transform="translate(524.316068 269.345625)scale(0.14 -0.14)">
       <use xlink:href="#LiberationSansNarrow-50"/>
       <use x="45.605469" xlink:href="#LiberationSansNarrow-48"/>
       <use x="91.210938" xlink:href="#LiberationSansNarrow-50"/>
       <use x="136.816406" xlink:href="#LiberationSansNarrow-48"/>
      </g>
     </g>
    </g>
   </g>
   <g id="matplotlib.axis_2">
    <g id="ytick_1">
     <g id="line2d_10">
      <path clip-path="url(#pee021d92c0)" d="M 38.14 252.2 
L 558.36 252.2 
" style="fill:none;stroke:#b0b0b0;stroke-dasharray:1.48,0.64;stroke-dashoffset:0;stroke-width:0.4;"/>
     </g>
     <g id="text_10">
      <!-- 0.0 -->
      <defs>
       <path d="M 7.46875 0 
L 7.46875 10.6875 
L 15.328125 10.6875 
L 15.328125 0 
z
" id="LiberationSansNarrow-46"/>
      </defs>
      <g transform="translate(15.177812 257.272812)scale(0.14 -0.14)">
       <use xlink:href="#LiberationSansNarrow-48"/>
       <use x="45.605469" xlink:href="#LiberationSansNarrow-46"/>
       <use x="68.408203" xlink:href="#LiberationSansNarrow-48"/>
      </g>
     </g>
    </g>
    <g id="ytick_2">
     <g id="line2d_11">
      <path clip-path="url(#pee021d92c0)" d="M 38.14 212.806214 
L 558.36 212.806214 
" style="fill:none;stroke:#b0b0b0;stroke-dasharray:1.48,0.64;stroke-dashoffset:0;stroke-width:0.4;"/>
     </g>
     <g id="text_11">
      <!-- 0.2 -->
      <g transform="translate(15.177812 217.879027)scale(0.14 -0.14)">
       <use xlink:href="#LiberationSansNarrow-48"/>
       <use x="45.605469" xlink:href="#LiberationSansNarrow-46"/>
       <use x="68.408203" xlink:href="#LiberationSansNarrow-50"/>
      </g>
     </g>
    </g>
    <g id="ytick_3">
     <g id="line2d_12">
      <path clip-path="url(#pee021d92c0)" d="M 38.14 173.412429 
L 558.36 173.412429 
" style="fill:none;stroke:#b0b0b0;stroke-dasharray:1.48,0.64;stroke-dashoffset:0;stroke-width:0.4;"/>
     </g>
     <g id="text_12">
      <!-- 0.4 -->
      <g transform="translate(15.177812 178.485241)scale(0.14 -0.14)">
       <use xlink:href="#LiberationSansNarrow-48"/>
       <use x="45.605469" xlink:href="#LiberationSansNarrow-46"/>
       <use x="68.408203" xlink:href="#LiberationSansNarrow-52"/>
      </g>
     </g>
    </g>
    <g id="ytick_4">
     <g id="line2d_13">
      <path clip-path="url(#pee021d92c0)" d="M 38.14 134.018643 
L 558.36 134.018643 
" style="fill:none;stroke:#b0b0b0;stroke-dasharray:1.48,0.64;stroke-dashoffset:0;stroke-width:0.4;"/>
     </g>
     <g id="text_13">
      <!-- 0.6 -->
      <g transform="translate(15.177812 139.091455)scale(0.14 -0.14)">
       <use xlink:href="#LiberationSansNarrow-48"/>
       <use x="45.605469" xlink:href="#LiberationSansNarrow-46"/>
       <use x="68.408203" xlink:href="#LiberationSansNarrow-54"/>
      </g>
     </g>
    </g>
    <g id="ytick_5">
     <g id="line2d_14">
      <path clip-path="url(#pee021d92c0)" d="M 38.14 94.624857 
L 558.36 94.624857 
" style="fill:none;stroke:#b0b0b0;stroke-dasharray:1.48,0.64;stroke-dashoffset:0;stroke-width:0.4;"/>
     </g>
     <g id="text_14">
      <!-- 0.8 -->
      <g transform="translate(15.177812 99.69767)scale(0.14 -0.14)">
       <use xlink:href="#LiberationSansNarrow-48"/>
       <use x="45.605469" xlink:href="#LiberationSansNarrow-46"/>
       <use x="68.408203" xlink:href="#LiberationSansNarrow-56"/>
      </g>
     </g>
    </g>
    <g id="ytick_6">
     <g id="line2d_15">
      <path clip-path="url(#pee021d92c0)" d="M 38.14 55.231071 
L 558.36 55.231071 
" style="fill:none;stroke:#b0b0b0;stroke-dasharray:1.48,0.64;stroke-dashoffset:0;stroke-width:0.4;"/>
     </g>
     <g id="text_15">
      <!-- 1.0 -->
      <g transform="translate(15.177812 60.303884)scale(0.14 -0.14)">
       <use xlink:href="#LiberationSansNarrow-49"/>
       <use x="45.605469" xlink:href="#LiberationSansNarrow-46"/>
       <use x="68.408203" xlink:href="#LiberationSansNarrow-48"/>
      </g>
     </g>
    </g>
   </g>
   <g id="line2d_16">
    <path clip-path="url(#pee021d92c0)" d="M 61.786364 55.231071 
L 66.302827 57.358835 
L 68.675884 60.149529 
L 70.97239 61.456959 
L 73.345447 61.834295 
L 75.641954 61.991362 
L 82.684574 61.377221 
L 85.057631 61.27957 
L 87.354138 60.390081 
L 89.727195 60.54834 
L 92.100252 60.864597 
L 94.320208 61.4639 
L 96.693265 63.39999 
L 98.989772 63.867316 
L 101.362829 63.929596 
L 103.659335 64.426679 
L 106.032392 64.333445 
L 108.405449 64.395571 
L 110.701956 64.597211 
L 115.371519 63.115023 
L 122.261039 64.793284 
L 124.634096 68.142007 
L 129.30366 70.090974 
L 131.600166 70.766453 
L 133.973223 70.916447 
L 136.34628 70.736245 
L 138.642787 70.360076 
L 141.015844 69.296635 
L 143.31235 68.536817 
L 145.685407 68.384677 
L 148.058464 68.399889 
L 150.20187 68.58223 
L 152.574927 71.645515 
L 154.871434 73.435673 
L 157.244491 73.701692 
L 159.540997 73.286855 
L 161.914054 73.093997 
L 164.287111 72.469001 
L 166.583618 72.587988 
L 171.253181 71.423813 
L 173.626238 71.228082 
L 175.999295 71.183109 
L 178.142701 71.512339 
L 180.515758 73.437069 
L 182.812265 74.276954 
L 189.854885 74.306431 
L 192.227942 75.040315 
L 194.524449 75.596317 
L 196.897506 75.445727 
L 199.194012 75.79643 
L 201.567069 77.518217 
L 206.160083 79.484222 
L 208.53314 82.382515 
L 213.202703 84.445792 
L 217.872267 87.027644 
L 220.245324 87.654535 
L 224.914887 87.305855 
L 231.957508 87.537386 
L 234.100914 88.474831 
L 236.473971 90.939769 
L 238.770477 92.208286 
L 241.143534 92.84004 
L 243.440041 92.523535 
L 252.855718 90.670498 
L 262.041745 88.415671 
L 264.414802 89.933685 
L 266.711308 90.362535 
L 269.084365 90.389347 
L 271.380872 89.986031 
L 273.753929 89.932228 
L 278.423492 89.635792 
L 280.796549 89.851251 
L 283.093056 90.388119 
L 285.466113 90.455205 
L 287.83917 91.016819 
L 289.982576 92.066396 
L 292.355633 95.141879 
L 294.65214 95.726172 
L 297.025196 95.998368 
L 299.321703 95.959474 
L 301.69476 96.089026 
L 315.780001 95.055944 
L 317.999957 94.83421 
L 320.373014 94.782016 
L 322.669521 94.551541 
L 325.042578 94.682132 
L 329.712141 94.564792 
L 332.085198 95.17669 
L 334.381705 96.211099 
L 336.754762 96.05064 
L 339.051268 96.10238 
L 345.940788 95.799037 
L 348.313845 96.482968 
L 350.610352 96.534564 
L 355.279916 96.444506 
L 357.652972 96.715183 
L 360.026029 96.663893 
L 362.322536 97.062506 
L 366.9921 97.095646 
L 369.365156 97.249825 
L 371.738213 97.206185 
L 373.88162 97.031028 
L 376.254676 97.000179 
L 378.551183 97.088799 
L 380.92424 97.622473 
L 385.593804 98.317468 
L 390.263367 98.25822 
L 394.932931 98.095601 
L 397.305988 97.570485 
L 399.679044 97.557765 
L 401.822451 99.689245 
L 404.195508 103.7858 
L 406.492014 105.425569 
L 408.865071 105.720472 
L 429.839832 107.26354 
L 434.509396 107.811273 
L 441.552016 108.531406 
L 450.891143 109.524593 
L 455.637257 110.023568 
L 462.450227 110.846083 
L 471.865904 111.713915 
L 481.205031 112.243731 
L 490.391058 112.436474 
L 497.433678 112.772865 
L 504.476299 113.205062 
L 506.772805 113.636952 
L 509.145862 114.277114 
L 513.662325 114.467577 
L 532.41713 115.400553 
L 534.713636 115.465381 
L 534.713636 115.465381 
" style="fill:none;stroke:#1f77b4;stroke-linecap:square;stroke-width:1.5;"/>
   </g>
   <g id="line2d_17">
    <path clip-path="url(#pee021d92c0)" d="M 61.786364 55.231071 
L 64.159421 57.151228 
L 66.302827 59.521025 
L 68.675884 64.243609 
L 70.97239 67.410616 
L 73.345447 70.163637 
L 75.641954 73.4827 
L 78.015011 74.450901 
L 80.388068 74.873821 
L 82.684574 73.626707 
L 85.057631 76.697839 
L 87.354138 78.379219 
L 89.727195 81.306817 
L 92.100252 85.562527 
L 94.320208 88.096362 
L 96.693265 89.967659 
L 98.989772 89.709134 
L 101.362829 88.379492 
L 103.659335 88.828081 
L 106.032392 88.723584 
L 108.405449 88.291326 
L 113.075013 89.404551 
L 115.371519 91.939532 
L 117.744576 96.734845 
L 120.117633 96.907542 
L 122.261039 98.043181 
L 124.634096 103.29629 
L 126.930603 103.457447 
L 129.30366 103.959658 
L 131.600166 102.10166 
L 133.973223 101.767073 
L 136.34628 103.424569 
L 138.642787 104.26856 
L 143.31235 101.859368 
L 145.685407 102.100523 
L 148.058464 105.720659 
L 150.20187 106.424823 
L 152.574927 111.012284 
L 154.871434 114.363246 
L 157.244491 117.476798 
L 159.540997 117.744734 
L 161.914054 118.212512 
L 164.287111 118.803646 
L 166.583618 119.2118 
L 168.956675 118.38632 
L 171.253181 119.579724 
L 173.626238 121.30889 
L 175.999295 120.291821 
L 178.142701 121.769992 
L 180.515758 124.505001 
L 182.812265 126.667613 
L 185.185322 126.8846 
L 187.481828 126.690096 
L 189.854885 128.721933 
L 192.227942 128.947246 
L 196.897506 133.152449 
L 199.194012 135.735383 
L 201.567069 136.539876 
L 203.940126 137.87259 
L 206.160083 138.613265 
L 208.53314 144.452991 
L 210.829646 146.517292 
L 213.202703 146.489913 
L 215.49921 147.890995 
L 217.872267 150.179638 
L 220.245324 146.931279 
L 222.54183 142.001564 
L 224.914887 137.248099 
L 227.211394 133.389588 
L 229.584451 130.231829 
L 231.957508 110.822117 
L 234.100914 98.513899 
L 236.473971 106.247496 
L 238.770477 112.067858 
L 241.143534 119.821367 
L 243.440041 123.597451 
L 245.813098 121.763152 
L 248.186155 121.212218 
L 250.482661 124.835227 
L 252.855718 130.582081 
L 255.152225 132.818605 
L 257.525282 128.142351 
L 259.898339 128.834185 
L 262.041745 127.426717 
L 264.414802 131.349576 
L 266.711308 133.451712 
L 269.084365 128.379284 
L 271.380872 125.536756 
L 273.753929 127.969056 
L 276.126986 129.261367 
L 278.423492 127.542711 
L 280.796549 129.892746 
L 283.093056 127.732532 
L 285.466113 128.607837 
L 289.982576 136.390026 
L 292.355633 142.099497 
L 294.65214 144.187554 
L 297.025196 144.939905 
L 299.321703 145.023983 
L 301.69476 145.597321 
L 304.067817 142.270674 
L 306.364324 135.332365 
L 308.73738 132.760733 
L 311.033887 134.796631 
L 313.406944 132.640034 
L 315.780001 133.898785 
L 317.999957 138.999364 
L 320.373014 141.11402 
L 322.669521 140.599172 
L 325.042578 135.671425 
L 327.339084 128.322439 
L 329.712141 129.850102 
L 334.381705 135.509222 
L 336.754762 136.969661 
L 339.051268 136.200381 
L 341.424325 138.846658 
L 343.797382 140.965481 
L 345.940788 141.290975 
L 350.610352 137.956736 
L 352.983409 138.314636 
L 355.279916 134.906465 
L 357.652972 133.939933 
L 360.026029 133.163069 
L 362.322536 135.421993 
L 364.695593 137.447577 
L 366.9921 135.436239 
L 369.365156 135.316654 
L 371.738213 132.249131 
L 373.88162 127.641541 
L 376.254676 124.766245 
L 378.551183 127.152895 
L 380.92424 131.162868 
L 383.220747 133.190125 
L 385.593804 133.101965 
L 387.96686 128.610036 
L 390.263367 122.952333 
L 392.636424 113.47122 
L 394.932931 95.082953 
L 399.679044 32.534806 
L 401.822451 42.097547 
L 404.195508 61.616541 
L 406.492014 87.548685 
L 408.865071 96.791596 
L 411.161578 85.327154 
L 413.534635 78.311441 
L 415.907692 54.023856 
L 418.204198 51.94289 
L 420.577255 64.150185 
L 422.873762 59.637487 
L 425.246819 47.061369 
L 427.619876 23.951411 
L 429.839832 28.154204 
L 432.212889 50.742485 
L 434.509396 62.202673 
L 436.882452 65.814883 
L 439.178959 68.990796 
L 441.552016 72.622539 
L 443.925073 72.377252 
L 446.22158 74.672954 
L 448.594636 81.268789 
L 450.891143 77.685892 
L 455.637257 92.838094 
L 457.780663 97.062347 
L 460.15372 99.33517 
L 462.450227 104.452293 
L 464.823283 104.186103 
L 467.11979 102.562027 
L 469.492847 99.045094 
L 471.865904 100.306089 
L 474.162411 105.994361 
L 476.535467 106.874368 
L 478.831974 104.458289 
L 481.205031 111.369107 
L 485.721494 111.211481 
L 488.094551 102.775081 
L 490.391058 99.869869 
L 492.764115 99.212272 
L 495.060621 99.586439 
L 497.433678 92.471337 
L 499.806735 89.300212 
L 502.103242 94.252232 
L 504.476299 93.613137 
L 506.772805 92.180182 
L 509.145862 95.244889 
L 513.662325 99.656947 
L 516.035382 108.170724 
L 518.331889 101.55698 
L 520.704946 103.734551 
L 523.001452 106.547104 
L 525.374509 101.766607 
L 530.044073 105.881363 
L 532.41713 107.704576 
L 534.713636 110.410508 
L 534.713636 110.410508 
" style="fill:none;stroke:#ff7f0e;stroke-linecap:square;stroke-width:1.5;"/>
   </g>
   <g id="line2d_18">
    <path clip-path="url(#pee021d92c0)" d="M 61.786364 55.231071 
L 64.159421 53.857846 
L 66.302827 52.380048 
L 68.675884 52.7577 
L 70.97239 51.6607 
L 73.345447 49.650917 
L 75.641954 47.506141 
L 85.057631 37.666552 
L 87.354138 34.51153 
L 89.727195 32.699115 
L 92.100252 32.934553 
L 94.320208 33.403477 
L 96.693265 35.389316 
L 98.989772 35.671737 
L 101.362829 35.54079 
L 103.659335 35.854818 
L 106.032392 35.540322 
L 108.405449 35.455891 
L 110.701956 35.601326 
L 115.371519 33.776484 
L 117.744576 34.398654 
L 122.261039 35.063701 
L 124.634096 38.593146 
L 126.930603 39.176396 
L 129.30366 39.985546 
L 131.600166 40.390829 
L 133.973223 40.183285 
L 136.34628 39.570493 
L 138.642787 38.760386 
L 141.015844 37.138682 
L 143.31235 35.921688 
L 145.685407 35.362466 
L 148.058464 35.631628 
L 150.20187 36.122103 
L 152.574927 39.986895 
L 154.871434 42.354731 
L 157.244491 42.850049 
L 159.540997 42.518653 
L 161.914054 42.402182 
L 164.287111 41.873501 
L 166.583618 42.187397 
L 168.956675 41.627757 
L 171.253181 41.231102 
L 175.999295 41.179407 
L 178.142701 41.57112 
L 180.515758 43.83035 
L 182.812265 44.849598 
L 189.854885 44.860507 
L 192.227942 45.699824 
L 194.524449 46.339024 
L 196.897506 46.195761 
L 199.194012 46.643641 
L 201.567069 48.712369 
L 206.160083 55.202449 
L 208.53314 60.554997 
L 215.49921 70.324358 
L 217.872267 73.712437 
L 220.245324 76.347933 
L 224.914887 80.018939 
L 229.584451 84.59754 
L 231.957508 81.036542 
L 234.100914 78.59438 
L 236.473971 77.953167 
L 238.770477 76.234485 
L 241.143534 73.920753 
L 257.525282 50.185946 
L 262.041745 48.090766 
L 264.414802 49.48056 
L 266.711308 49.480511 
L 269.084365 48.892109 
L 271.380872 47.708119 
L 273.753929 46.942319 
L 278.423492 45.036594 
L 280.796549 44.513719 
L 283.093056 44.417537 
L 285.466113 43.715473 
L 287.83917 44.370434 
L 289.982576 45.642885 
L 292.355633 49.518441 
L 294.65214 50.169063 
L 297.025196 50.42177 
L 299.321703 50.277212 
L 301.69476 50.338067 
L 308.73738 49.547911 
L 311.033887 49.436707 
L 315.780001 44.856386 
L 317.999957 42.45454 
L 320.373014 42.93276 
L 322.669521 44.904985 
L 325.042578 47.419519 
L 327.339084 43.825917 
L 329.712141 41.690236 
L 332.085198 41.513222 
L 334.381705 40.734593 
L 336.754762 38.034642 
L 339.051268 33.868873 
L 341.424325 31.550367 
L 343.797382 31.718256 
L 345.940788 33.587894 
L 348.313845 32.250801 
L 350.610352 31.144184 
L 352.983409 40.35617 
L 355.279916 38.212511 
L 357.652972 39.497878 
L 360.026029 39.117214 
L 362.322536 38.17683 
L 366.9921 41.355119 
L 369.365156 42.09874 
L 371.738213 44.877949 
L 373.88162 52.016274 
L 376.254676 51.672639 
L 378.551183 52.044573 
L 380.92424 49.864763 
L 383.220747 52.464534 
L 385.593804 58.113819 
L 387.96686 58.357252 
L 390.263367 59.609084 
L 392.636424 63.014479 
L 394.932931 80.533671 
L 397.305988 89.355609 
L 399.679044 81.804429 
L 401.822451 83.594561 
L 404.195508 78.934482 
L 406.492014 76.48535 
L 408.865071 79.071765 
L 411.161578 78.701376 
L 413.534635 81.330001 
L 415.907692 82.750424 
L 418.204198 75.979023 
L 420.577255 72.273332 
L 422.873762 73.041786 
L 425.246819 75.755419 
L 427.619876 75.031883 
L 429.839832 69.537091 
L 432.212889 69.738882 
L 434.509396 68.526649 
L 436.882452 68.005887 
L 439.178959 67.092567 
L 441.552016 66.579587 
L 443.925073 64.97393 
L 446.22158 66.661111 
L 448.594636 69.111045 
L 450.891143 67.757878 
L 453.2642 65.16365 
L 455.637257 66.098378 
L 457.780663 66.109029 
L 460.15372 64.977258 
L 462.450227 63.501705 
L 464.823283 64.274611 
L 467.11979 65.285587 
L 469.492847 64.664962 
L 471.865904 62.9103 
L 474.162411 62.446604 
L 476.535467 62.863808 
L 478.831974 61.755069 
L 481.205031 60.141689 
L 483.578088 57.884671 
L 485.721494 56.957759 
L 488.094551 59.04576 
L 490.391058 59.647701 
L 492.764115 61.995105 
L 495.060621 63.077282 
L 497.433678 68.618095 
L 499.806735 71.951171 
L 502.103242 70.667361 
L 504.476299 71.499348 
L 506.772805 71.44635 
L 509.145862 69.449124 
L 511.518919 70.804904 
L 513.662325 70.034175 
L 516.035382 68.891929 
L 518.331889 66.761337 
L 520.704946 63.52346 
L 523.001452 62.152206 
L 525.374509 60.518569 
L 527.747566 59.68435 
L 530.044073 54.065817 
L 532.41713 53.941275 
L 534.713636 52.515195 
L 534.713636 52.515195 
" style="fill:none;stroke:#2ca02c;stroke-linecap:square;stroke-width:1.5;"/>
   </g>
   <g id="legend_1">
    <g id="patch_3">
     <path d="M 47.94 245.2 
L 131.96625 245.2 
Q 134.76625 245.2 134.76625 242.4 
L 134.76625 183.525625 
Q 134.76625 180.725625 131.96625 180.725625 
L 47.94 180.725625 
Q 45.14 180.725625 45.14 183.525625 
L 45.14 242.4 
Q 45.14 245.2 47.94 245.2 
z
" style="fill:#ffffff;opacity:0.8;stroke:#cccccc;stroke-linejoin:miter;"/>
    </g>
    <g id="line2d_19">
     <path d="M 50.74 191.69375 
L 78.74 191.69375 
" style="fill:none;stroke:#1f77b4;stroke-linecap:square;stroke-width:1.5;"/>
    </g>
    <g id="line2d_20"/>
    <g id="text_16">
     <!-- рубль -->
     <defs>
      <path d="M 42.140625 26.65625 
Q 42.140625 20.65625 41.359375 15.578125 
Q 40.578125 10.5 38.6875 6.828125 
Q 36.8125 3.171875 33.765625 1.09375 
Q 30.71875 -0.984375 26.21875 -0.984375 
Q 21.578125 -0.984375 18.078125 1.171875 
Q 14.59375 3.328125 12.796875 8.203125 
L 12.546875 8.203125 
Q 12.59375 8.109375 12.609375 7.328125 
Q 12.640625 6.546875 12.671875 5.375 
Q 12.703125 4.203125 12.71875 2.75 
Q 12.75 1.3125 12.75 -0.09375 
L 12.75 -20.75 
L 5.515625 -20.75 
L 5.515625 42.046875 
Q 5.515625 43.953125 5.484375 45.703125 
Q 5.46875 47.46875 5.4375 48.90625 
Q 5.421875 50.34375 5.375 51.359375 
Q 5.328125 52.390625 5.28125 52.828125 
L 12.25 52.828125 
Q 12.3125 52.6875 12.359375 51.8125 
L 12.5 49.703125 
Q 12.546875 48.4375 12.59375 47.015625 
Q 12.640625 45.609375 12.640625 44.34375 
L 12.796875 44.34375 
Q 13.765625 46.875 15.0625 48.65625 
Q 16.359375 50.4375 18.015625 51.578125 
Q 19.671875 52.734375 21.671875 53.25 
Q 23.6875 53.765625 26.21875 53.765625 
Q 30.71875 53.765625 33.765625 51.8125 
Q 36.8125 49.859375 38.6875 46.3125 
Q 40.578125 42.78125 41.359375 37.765625 
Q 42.140625 32.765625 42.140625 26.65625 
z
M 34.578125 26.46875 
Q 34.578125 31.34375 34.109375 35.15625 
Q 33.640625 38.96875 32.4375 41.59375 
Q 31.25 44.234375 29.296875 45.59375 
Q 27.34375 46.96875 24.359375 46.96875 
Q 21.96875 46.96875 19.84375 46.140625 
Q 17.71875 45.3125 16.125 42.96875 
Q 14.546875 40.625 13.640625 36.5 
Q 12.75 32.375 12.75 25.78125 
Q 12.75 20.171875 13.5 16.28125 
Q 14.265625 12.40625 15.71875 10.015625 
Q 17.1875 7.625 19.328125 6.5625 
Q 21.484375 5.515625 24.3125 5.515625 
Q 27.34375 5.515625 29.296875 6.921875 
Q 31.25 8.34375 32.4375 11.03125 
Q 33.640625 13.71875 34.109375 17.59375 
Q 34.578125 21.484375 34.578125 26.46875 
z
" id="LiberationSansNarrow-1088"/>
      <path d="M 24.171875 0 
Q 22.65625 -4.78125 21.0625 -8.609375 
Q 19.484375 -12.453125 17.53125 -15.15625 
Q 15.578125 -17.875 13.1875 -19.3125 
Q 10.796875 -20.75 7.671875 -20.75 
Q 6.296875 -20.75 5.125 -20.65625 
Q 3.953125 -20.5625 2.6875 -20.21875 
L 2.6875 -13.625 
Q 3.46875 -13.765625 4.421875 -13.84375 
Q 5.375 -13.921875 6.0625 -13.921875 
Q 9.234375 -13.921875 11.9375 -11.03125 
Q 14.65625 -8.15625 16.703125 -1.859375 
L 17.390625 0.25 
L 0.203125 52.828125 
L 7.90625 52.828125 
L 17.046875 23.640625 
Q 17.046875 23.640625 18.0625 20.125 
L 19.28125 15.71875 
Q 19.921875 13.53125 20.375 11.765625 
Q 20.84375 10.015625 20.953125 9.578125 
Q 21.046875 10.109375 21.484375 11.71875 
L 22.5625 15.234375 
L 23.734375 19.1875 
Q 24.359375 21.1875 24.75 22.65625 
L 33.25 52.828125 
L 40.875 52.828125 
z
" id="LiberationSansNarrow-1091"/>
      <path d="M 35.9375 24.515625 
Q 35.9375 30.078125 35.15625 33.765625 
Q 34.375 37.453125 32.9375 39.671875 
Q 31.5 41.890625 29.390625 42.796875 
Q 27.296875 43.703125 24.703125 43.703125 
Q 21.921875 43.703125 19.65625 42.75 
Q 17.390625 41.796875 15.765625 39.546875 
Q 14.15625 37.3125 13.25 33.640625 
Q 12.359375 29.984375 12.359375 24.515625 
Q 12.359375 18.953125 13.25 15.28125 
Q 14.15625 11.625 15.6875 9.453125 
Q 17.234375 7.28125 19.328125 6.390625 
Q 21.4375 5.515625 23.921875 5.515625 
Q 26.703125 5.515625 28.921875 6.390625 
Q 31.15625 7.28125 32.71875 9.421875 
Q 34.28125 11.578125 35.109375 15.265625 
Q 35.9375 18.953125 35.9375 24.515625 
z
M 26.21875 50.140625 
Q 35.109375 50.140625 39.296875 43.765625 
Q 43.5 37.40625 43.5 24.609375 
Q 43.5 11.671875 38.5 5.34375 
Q 33.5 -0.984375 23.96875 -0.984375 
Q 19.4375 -0.984375 15.890625 0.71875 
Q 12.359375 2.4375 9.890625 6.25 
Q 7.421875 10.0625 6.09375 16.15625 
Q 4.78125 22.265625 4.78125 31.0625 
Q 4.78125 40.4375 5.953125 47.21875 
Q 7.125 54 9.6875 58.703125 
Q 12.25 63.421875 16.375 66.234375 
Q 20.515625 69.046875 26.375 70.40625 
Q 28.65625 70.953125 30.65625 71.359375 
Q 32.671875 71.78125 34.46875 72.125 
L 38.03125 72.75 
L 41.5 73.34375 
L 41.5 65.484375 
Q 38.03125 64.9375 34.8125 64.375 
Q 31.59375 63.8125 27.9375 62.984375 
Q 24.8125 62.3125 22.34375 61.5 
Q 19.875 60.6875 17.984375 59.46875 
Q 16.109375 58.25 14.765625 56.46875 
Q 13.421875 54.6875 12.546875 52.046875 
Q 11.671875 49.421875 11.203125 45.78125 
Q 10.75 42.140625 10.640625 37.203125 
Q 11.421875 39.890625 12.765625 42.25 
Q 14.109375 44.625 16.03125 46.375 
Q 17.96875 48.140625 20.484375 49.140625 
Q 23 50.140625 26.21875 50.140625 
z
" id="LiberationSansNarrow-1073"/>
      <path d="M 34.859375 0 
L 34.859375 46.4375 
L 19.875 46.4375 
Q 18.890625 37.453125 18.03125 30.4375 
Q 17.1875 23.4375 16.3125 18.15625 
Q 15.4375 12.890625 14.40625 9.25 
Q 13.375 5.609375 11.953125 3.34375 
Q 10.546875 1.078125 8.65625 0.046875 
Q 6.78125 -0.984375 4.203125 -0.984375 
Q 3.03125 -0.984375 2.078125 -0.78125 
Q 1.125 -0.59375 0.4375 -0.34375 
L 0.4375 5.953125 
Q 0.875 5.765625 1.625 5.640625 
Q 2.390625 5.515625 3.171875 5.515625 
Q 4.59375 5.515625 5.59375 6.53125 
Q 6.59375 7.5625 7.390625 9.859375 
Q 8.203125 12.15625 8.859375 15.796875 
Q 9.515625 19.4375 10.203125 24.703125 
Q 10.890625 29.984375 11.625 36.921875 
L 13.375 52.828125 
L 42.140625 52.828125 
L 42.140625 0 
z
" id="LiberationSansNarrow-1083"/>
      <path d="M 22.75 30.46875 
Q 30.953125 30.46875 35.15625 26.875 
Q 39.359375 23.296875 39.359375 15.53125 
Q 39.359375 11.921875 38.296875 9.03125 
Q 37.25 6.15625 35.171875 4.15625 
Q 33.109375 2.15625 30 1.078125 
Q 26.90625 0 22.796875 0 
L 5.671875 0 
L 5.671875 52.828125 
L 12.890625 52.828125 
L 12.890625 30.46875 
z
M 12.890625 6.203125 
L 21.6875 6.203125 
Q 24.46875 6.203125 26.390625 6.8125 
Q 28.328125 7.421875 29.5 8.609375 
Q 30.671875 9.8125 31.171875 11.546875 
Q 31.6875 13.28125 31.6875 15.53125 
Q 31.6875 20.125 29.359375 22.234375 
Q 27.046875 24.359375 21.734375 24.359375 
L 12.890625 24.359375 
z
" id="LiberationSansNarrow-1100"/>
     </defs>
     <g transform="translate(89.94 196.59375)scale(0.14 -0.14)">
      <use xlink:href="#LiberationSansNarrow-1088"/>
      <use x="45.589844" xlink:href="#LiberationSansNarrow-1091"/>
      <use x="86.621094" xlink:href="#LiberationSansNarrow-1073"/>
      <use x="133.53125" xlink:href="#LiberationSansNarrow-1083"/>
      <use x="181.333984" xlink:href="#LiberationSansNarrow-1100"/>
     </g>
    </g>
    <g id="line2d_21">
     <path d="M 50.74 211.744375 
L 78.74 211.744375 
" style="fill:none;stroke:#ff7f0e;stroke-linecap:square;stroke-width:1.5;"/>
    </g>
    <g id="line2d_22"/>
    <g id="text_17">
     <!-- доллар -->
     <defs>
      <path d="M 33.34375 46.4375 
L 21.140625 46.4375 
Q 20.171875 37.796875 19.1875 31.375 
Q 18.21875 24.953125 17.234375 20.21875 
Q 16.265625 15.484375 15.3125 12.15625 
Q 14.359375 8.84375 13.484375 6.390625 
L 33.34375 6.390625 
z
M 46.390625 -19.921875 
L 39.890625 -19.921875 
L 39.890625 0 
L 7.328125 0 
L 7.328125 -19.921875 
L 0.78125 -19.921875 
L 0.78125 6.390625 
L 5.5625 6.390625 
Q 6.78125 8.84375 7.921875 12.328125 
Q 9.078125 15.828125 10.21875 21.1875 
Q 11.375 26.5625 12.515625 34.25 
Q 13.671875 41.9375 14.796875 52.828125 
L 40.578125 52.828125 
L 40.578125 6.390625 
L 46.390625 6.390625 
z
" id="LiberationSansNarrow-1076"/>
      <path d="M 42.140625 26.46875 
Q 42.140625 12.59375 37.125 5.796875 
Q 32.125 -0.984375 22.609375 -0.984375 
Q 18.0625 -0.984375 14.515625 0.671875 
Q 10.984375 2.34375 8.515625 5.765625 
Q 6.0625 9.1875 4.765625 14.328125 
Q 3.46875 19.484375 3.46875 26.46875 
Q 3.46875 53.8125 22.859375 53.8125 
Q 27.875 53.8125 31.5625 52.09375 
Q 35.25 50.390625 37.59375 46.96875 
Q 39.9375 43.5625 41.03125 38.421875 
Q 42.140625 33.296875 42.140625 26.46875 
z
M 34.578125 26.46875 
Q 34.578125 32.625 33.8125 36.625 
Q 33.0625 40.625 31.546875 43.015625 
Q 30.03125 45.40625 27.859375 46.359375 
Q 25.6875 47.3125 23 47.3125 
Q 20.21875 47.3125 17.984375 46.3125 
Q 15.765625 45.3125 14.203125 42.890625 
Q 12.640625 40.484375 11.828125 36.46875 
Q 11.03125 32.46875 11.03125 26.46875 
Q 11.03125 20.3125 11.90625 16.28125 
Q 12.796875 12.25 14.328125 9.859375 
Q 15.875 7.46875 17.96875 6.484375 
Q 20.0625 5.515625 22.5625 5.515625 
Q 25.34375 5.515625 27.5625 6.46875 
Q 29.78125 7.421875 31.34375 9.8125 
Q 32.90625 12.203125 33.734375 16.25 
Q 34.578125 20.3125 34.578125 26.46875 
z
" id="LiberationSansNarrow-1086"/>
      <path d="M 16.546875 -0.984375 
Q 10.015625 -0.984375 6.734375 3.21875 
Q 3.46875 7.421875 3.46875 14.75 
Q 3.46875 19.96875 5.09375 23.3125 
Q 6.734375 26.65625 9.34375 28.5625 
Q 11.96875 30.46875 15.328125 31.203125 
Q 18.703125 31.9375 22.171875 32.03125 
L 31.9375 32.234375 
L 31.9375 35.109375 
Q 31.9375 38.375 31.375 40.671875 
Q 30.8125 42.96875 29.640625 44.375 
Q 28.46875 45.796875 26.734375 46.453125 
Q 25 47.125 22.609375 47.125 
Q 20.515625 47.125 18.84375 46.75 
Q 17.1875 46.390625 15.9375 45.4375 
Q 14.703125 44.484375 13.9375 42.84375 
Q 13.1875 41.21875 12.9375 38.71875 
L 5.421875 39.546875 
Q 5.8125 42.671875 6.9375 45.28125 
Q 8.0625 47.90625 10.109375 49.796875 
Q 12.15625 51.703125 15.25 52.75 
Q 18.359375 53.8125 22.796875 53.8125 
Q 30.953125 53.8125 35.078125 49.234375 
Q 39.203125 44.671875 39.203125 36.03125 
L 39.203125 13.28125 
Q 39.203125 9.375 40.03125 7.390625 
Q 40.875 5.421875 43.265625 5.421875 
Q 43.84375 5.421875 44.453125 5.515625 
Q 45.0625 5.609375 45.609375 5.765625 
L 45.609375 0.296875 
Q 44.234375 -0.09375 42.890625 -0.28125 
Q 41.546875 -0.484375 40.046875 -0.484375 
Q 37.984375 -0.484375 36.515625 0.171875 
Q 35.0625 0.828125 34.15625 2.171875 
Q 33.25 3.515625 32.765625 5.484375 
Q 32.28125 7.46875 32.125 10.109375 
L 31.9375 10.109375 
Q 30.765625 7.5625 29.375 5.515625 
Q 27.984375 3.46875 26.140625 2.03125 
Q 24.3125 0.59375 21.9375 -0.1875 
Q 19.578125 -0.984375 16.546875 -0.984375 
z
M 18.21875 5.609375 
Q 21.6875 5.609375 24.25 7.140625 
Q 26.8125 8.6875 28.515625 11.078125 
Q 30.21875 13.484375 31.078125 16.3125 
Q 31.9375 19.140625 31.9375 21.734375 
L 31.9375 26.078125 
L 24.03125 25.875 
Q 21.390625 25.828125 19 25.40625 
Q 16.609375 25 14.8125 23.78125 
Q 13.03125 22.5625 11.953125 20.359375 
Q 10.890625 18.171875 10.890625 14.59375 
Q 10.890625 10.296875 12.796875 7.953125 
Q 14.703125 5.609375 18.21875 5.609375 
z
" id="LiberationSansNarrow-1072"/>
     </defs>
     <g transform="translate(89.94 216.644375)scale(0.14 -0.14)">
      <use xlink:href="#LiberationSansNarrow-1076"/>
      <use x="47.802734" xlink:href="#LiberationSansNarrow-1086"/>
      <use x="93.376953" xlink:href="#LiberationSansNarrow-1083"/>
      <use x="141.179688" xlink:href="#LiberationSansNarrow-1083"/>
      <use x="188.982422" xlink:href="#LiberationSansNarrow-1072"/>
      <use x="234.587891" xlink:href="#LiberationSansNarrow-1088"/>
     </g>
    </g>
    <g id="line2d_23">
     <path d="M 50.74 231.795 
L 78.74 231.795 
" style="fill:none;stroke:#2ca02c;stroke-linecap:square;stroke-width:1.5;"/>
    </g>
    <g id="line2d_24"/>
    <g id="text_18">
     <!-- ОФЗ -->
     <defs>
      <path d="M 59.90625 34.71875 
Q 59.90625 26.65625 58 20.0625 
Q 56.109375 13.484375 52.484375 8.796875 
Q 48.875 4.109375 43.671875 1.5625 
Q 38.484375 -0.984375 31.84375 -0.984375 
Q 24.859375 -0.984375 19.625 1.671875 
Q 14.40625 4.34375 10.90625 9.109375 
Q 7.421875 13.875 5.65625 20.40625 
Q 3.90625 26.953125 3.90625 34.71875 
Q 3.90625 42.78125 5.734375 49.265625 
Q 7.5625 55.765625 11.125 60.328125 
Q 14.703125 64.890625 19.921875 67.359375 
Q 25.140625 69.828125 31.9375 69.828125 
Q 38.671875 69.828125 43.890625 67.328125 
Q 49.125 64.84375 52.65625 60.25 
Q 56.203125 55.671875 58.046875 49.171875 
Q 59.90625 42.671875 59.90625 34.71875 
z
M 52.09375 34.71875 
Q 52.09375 40.921875 50.78125 46 
Q 49.46875 51.078125 46.921875 54.6875 
Q 44.390625 58.296875 40.625 60.25 
Q 36.859375 62.203125 31.9375 62.203125 
Q 26.90625 62.203125 23.09375 60.25 
Q 19.28125 58.296875 16.71875 54.6875 
Q 14.15625 51.078125 12.90625 46 
Q 11.671875 40.921875 11.671875 34.71875 
Q 11.671875 28.515625 12.96875 23.359375 
Q 14.265625 18.21875 16.796875 14.484375 
Q 19.34375 10.75 23.125 8.671875 
Q 26.90625 6.59375 31.84375 6.59375 
Q 37.109375 6.59375 40.9375 8.6875 
Q 44.78125 10.796875 47.234375 14.53125 
Q 49.703125 18.265625 50.890625 23.4375 
Q 52.09375 28.609375 52.09375 34.71875 
z
" id="LiberationSansNarrow-1054"/>
      <path d="M 57.5625 35.9375 
Q 57.5625 30.8125 56.296875 26.21875 
Q 55.03125 21.625 52.390625 18.140625 
Q 49.75 14.65625 45.8125 12.59375 
Q 41.890625 10.546875 36.578125 10.546875 
L 34.96875 10.546875 
L 34.96875 -0.53125 
L 27.34375 -0.53125 
L 27.34375 10.546875 
L 25.734375 10.546875 
Q 20.40625 10.546875 16.46875 12.59375 
Q 12.546875 14.65625 9.90625 18.140625 
Q 7.28125 21.625 6 26.21875 
Q 4.734375 30.8125 4.734375 35.9375 
Q 4.734375 41.453125 6.078125 45.96875 
Q 7.421875 50.484375 10.078125 53.6875 
Q 12.75 56.890625 16.75 58.640625 
Q 20.75 60.40625 26.171875 60.40625 
L 27.34375 60.40625 
L 27.34375 69.28125 
L 34.96875 69.28125 
L 34.96875 60.40625 
L 36.078125 60.40625 
Q 41.5 60.40625 45.53125 58.640625 
Q 49.5625 56.890625 52.21875 53.6875 
Q 54.890625 50.484375 56.21875 45.96875 
Q 57.5625 41.453125 57.5625 35.9375 
z
M 49.90625 35.75 
Q 49.90625 44.875 46.1875 49.265625 
Q 42.484375 53.65625 35.15625 53.65625 
L 34.96875 53.65625 
L 34.96875 17.234375 
L 35.5 17.234375 
Q 39.15625 17.234375 41.890625 18.53125 
Q 44.625 19.828125 46.40625 22.21875 
Q 48.1875 24.609375 49.046875 28.03125 
Q 49.90625 31.453125 49.90625 35.75 
z
M 12.40625 35.75 
Q 12.40625 31.453125 13.25 28.03125 
Q 14.109375 24.609375 15.890625 22.21875 
Q 17.671875 19.828125 20.40625 18.53125 
Q 23.140625 17.234375 26.8125 17.234375 
L 27.34375 17.234375 
L 27.34375 53.65625 
L 26.953125 53.65625 
Q 19.671875 53.65625 16.03125 49.265625 
Q 12.40625 44.875 12.40625 35.75 
z
" id="LiberationSansNarrow-1060"/>
      <path d="M 24.859375 -0.984375 
Q 20.125 -0.984375 16.609375 0.234375 
Q 13.09375 1.46875 10.46875 3.6875 
Q 7.859375 5.90625 5.984375 9.03125 
Q 4.109375 12.15625 2.6875 16.015625 
L 9.28125 19.78125 
Q 10.25 17.09375 11.5625 14.703125 
Q 12.890625 12.3125 14.71875 10.46875 
Q 16.546875 8.640625 18.96875 7.5625 
Q 21.390625 6.5 24.5625 6.5 
Q 27.640625 6.5 30.078125 7.390625 
Q 32.515625 8.296875 34.21875 9.984375 
Q 35.9375 11.671875 36.84375 14.109375 
Q 37.75 16.546875 37.75 19.671875 
Q 37.75 26.171875 33.90625 29.046875 
Q 30.078125 31.9375 21.96875 31.9375 
L 19.140625 31.9375 
L 19.140625 39.15625 
L 21.96875 39.15625 
Q 29.203125 39.15625 32.671875 42.0625 
Q 36.140625 44.96875 36.140625 50.984375 
Q 36.140625 53.65625 35.359375 55.75 
Q 34.578125 57.859375 33.125 59.296875 
Q 31.6875 60.75 29.609375 61.46875 
Q 27.546875 62.203125 24.953125 62.203125 
Q 21.875 62.203125 19.578125 61.21875 
Q 17.28125 60.25 15.625 58.59375 
Q 13.96875 56.9375 12.84375 54.734375 
Q 11.71875 52.546875 10.984375 50.140625 
L 3.859375 53.125 
Q 5.171875 57.125 7.078125 60.21875 
Q 8.984375 63.328125 11.640625 65.453125 
Q 14.3125 67.578125 17.65625 68.671875 
Q 21 69.78125 25.203125 69.78125 
Q 29.546875 69.78125 32.984375 68.484375 
Q 36.421875 67.1875 38.8125 64.84375 
Q 41.21875 62.5 42.5 59.171875 
Q 43.796875 55.859375 43.796875 51.8125 
Q 43.796875 48.484375 42.984375 45.875 
Q 42.1875 43.265625 40.71875 41.3125 
Q 39.265625 39.359375 37.1875 38.015625 
Q 35.109375 36.671875 32.5625 35.9375 
Q 35.25 35.453125 37.59375 34.234375 
Q 39.9375 33.015625 41.671875 31 
Q 43.40625 29 44.421875 26.1875 
Q 45.453125 23.390625 45.453125 19.828125 
Q 45.453125 15.1875 44.078125 11.375 
Q 42.71875 7.5625 40.0625 4.796875 
Q 37.40625 2.046875 33.5625 0.53125 
Q 29.734375 -0.984375 24.859375 -0.984375 
z
" id="LiberationSansNarrow-1047"/>
     </defs>
     <g transform="translate(89.94 236.695)scale(0.14 -0.14)">
      <use xlink:href="#LiberationSansNarrow-1054"/>
      <use x="63.818359" xlink:href="#LiberationSansNarrow-1060"/>
      <use x="126.123047" xlink:href="#LiberationSansNarrow-1047"/>
     </g>
    </g>
   </g>
  </g>
 </g>
 <defs>
  <clipPath id="pee021d92c0">
   <rect height="234.56" width="520.22" x="38.14" y="17.64"/>
  </clipPath>
 </defs>
</svg>
