<?xml version="1.0" encoding="utf-8" standalone="no"?>
<!DOCTYPE svg PUBLIC "-//W3C//DTD SVG 1.1//EN"
  "http://www.w3.org/Graphics/SVG/1.1/DTD/svg11.dtd">
<!-- Created with matplotlib (https://matplotlib.org/) -->
<svg height="288pt" version="1.1" viewBox="0 0 576 288" width="576pt" xmlns="http://www.w3.org/2000/svg" xmlns:xlink="http://www.w3.org/1999/xlink">
 <metadata>
  <rdf:RDF xmlns:cc="http://creativecommons.org/ns#" xmlns:dc="http://purl.org/dc/elements/1.1/" xmlns:rdf="http://www.w3.org/1999/02/22-rdf-syntax-ns#">
   <cc:Work>
    <dc:type rdf:resource="http://purl.org/dc/dcmitype/StillImage"/>
    <dc:date>2022-01-27T11:53:59.463248</dc:date>
    <dc:format>image/svg+xml</dc:format>
    <dc:creator>
     <cc:Agent>
      <dc:title>Matplotlib v3.3.4, https://matplotlib.org/</dc:title>
     </cc:Agent>
    </dc:creator>
   </cc:Work>
  </rdf:RDF>
 </metadata>
 <defs>
  <style type="text/css">*{stroke-linecap:butt;stroke-linejoin:round;}</style>
 </defs>
 <g id="figure_1">
  <g id="patch_1">
   <path d="M 0 288 
L 576 288 
L 576 0 
L 0 0 
z
" style="fill:#ffffff;"/>
  </g>
  <g id="axes_1">
   <g id="patch_2">
    <path d="M 38.05 252.2 
L 560.88 252.2 
L 560.88 15.361759 
L 38.05 15.361759 
z
" style="fill:#ffffff;"/>
   </g>
   <g id="matplotlib.axis_1">
    <g id="xtick_1">
     <g id="line2d_1">
      <path clip-path="url(#p51e7a24ab2)" d="M 61.815 252.2 
L 61.815 15.361759 
" style="fill:none;stroke:#b0b0b0;stroke-dasharray:1.48,0.64;stroke-dashoffset:0;stroke-width:0.4;"/>
     </g>
     <g id="text_1">
      <!-- 2000 -->
      <g transform="translate(49.044375 269.345625)scale(0.14 -0.14)">
       <defs>
        <path d="M 4.109375 0 
L 4.109375 6.203125 
Q 6.15625 11.921875 9.109375 16.28125 
Q 12.0625 20.65625 15.3125 24.1875 
Q 18.5625 27.734375 21.734375 30.765625 
Q 24.90625 33.796875 27.46875 36.8125 
Q 30.03125 39.84375 31.609375 43.15625 
Q 33.203125 46.484375 33.203125 50.6875 
Q 33.203125 53.609375 32.46875 55.828125 
Q 31.734375 58.0625 30.390625 59.5625 
Q 29.046875 61.078125 27.140625 61.828125 
Q 25.25 62.59375 22.90625 62.59375 
Q 20.75 62.59375 18.84375 61.859375 
Q 16.9375 61.140625 15.453125 59.671875 
Q 13.96875 58.203125 13.03125 56.03125 
Q 12.109375 53.859375 11.8125 50.984375 
L 4.4375 51.8125 
Q 4.78125 55.515625 6.125 58.78125 
Q 7.46875 62.0625 9.78125 64.53125 
Q 12.109375 67 15.359375 68.40625 
Q 18.609375 69.828125 22.90625 69.828125 
Q 27.09375 69.828125 30.390625 68.609375 
Q 33.6875 67.390625 35.9375 64.984375 
Q 38.1875 62.59375 39.40625 59.078125 
Q 40.625 55.5625 40.625 50.984375 
Q 40.625 47.515625 39.59375 44.390625 
Q 38.578125 41.265625 36.859375 38.421875 
Q 35.15625 35.59375 32.90625 32.953125 
Q 30.671875 30.328125 28.21875 27.828125 
L 23.296875 22.859375 
Q 20.796875 20.359375 18.625 17.859375 
Q 16.453125 15.375 14.734375 12.8125 
Q 13.03125 10.25 12.0625 7.46875 
L 41.5 7.46875 
L 41.5 0 
z
" id="LiberationSansNarrow-50"/>
        <path d="M 42.390625 34.421875 
Q 42.390625 24.515625 40.84375 17.75 
Q 39.3125 10.984375 36.640625 6.8125 
Q 33.984375 2.640625 30.390625 0.828125 
Q 26.8125 -0.984375 22.703125 -0.984375 
Q 18.609375 -0.984375 15.03125 0.828125 
Q 11.46875 2.640625 8.828125 6.78125 
Q 6.203125 10.9375 4.703125 17.703125 
Q 3.21875 24.46875 3.21875 34.421875 
Q 3.21875 44.828125 4.703125 51.640625 
Q 6.203125 58.453125 8.828125 62.5 
Q 11.46875 66.546875 15.078125 68.1875 
Q 18.703125 69.828125 22.953125 69.828125 
Q 27 69.828125 30.53125 68.1875 
Q 34.078125 66.546875 36.71875 62.5 
Q 39.359375 58.453125 40.875 51.640625 
Q 42.390625 44.828125 42.390625 34.421875 
z
M 35.0625 34.421875 
Q 35.0625 42.625 34.28125 48.0625 
Q 33.5 53.515625 31.9375 56.765625 
Q 30.375 60.015625 28.09375 61.359375 
Q 25.828125 62.703125 22.953125 62.703125 
Q 19.921875 62.703125 17.578125 61.328125 
Q 15.234375 59.96875 13.671875 56.71875 
Q 12.109375 53.46875 11.296875 48.015625 
Q 10.5 42.578125 10.5 34.421875 
Q 10.5 26.515625 11.296875 21.09375 
Q 12.109375 15.671875 13.6875 12.375 
Q 15.28125 9.078125 17.578125 7.640625 
Q 19.875 6.203125 22.796875 6.203125 
Q 25.640625 6.203125 27.90625 7.640625 
Q 30.171875 9.078125 31.75 12.375 
Q 33.34375 15.671875 34.203125 21.09375 
Q 35.0625 26.515625 35.0625 34.421875 
z
" id="LiberationSansNarrow-48"/>
       </defs>
       <use xlink:href="#LiberationSansNarrow-50"/>
       <use x="45.605469" xlink:href="#LiberationSansNarrow-48"/>
       <use x="91.210938" xlink:href="#LiberationSansNarrow-48"/>
       <use x="136.816406" xlink:href="#LiberationSansNarrow-48"/>
      </g>
     </g>
    </g>
    <g id="xtick_2">
     <g id="line2d_2">
      <path clip-path="url(#p51e7a24ab2)" d="M 148.562445 252.2 
L 148.562445 15.361759 
" style="fill:none;stroke:#b0b0b0;stroke-dasharray:1.48,0.64;stroke-dashoffset:0;stroke-width:0.4;"/>
     </g>
     <g id="text_2">
      <!-- 2004 -->
      <g transform="translate(135.79182 269.345625)scale(0.14 -0.14)">
       <defs>
        <path d="M 35.25 15.578125 
L 35.25 0 
L 28.46875 0 
L 28.46875 15.578125 
L 1.90625 15.578125 
L 1.90625 22.40625 
L 27.6875 68.796875 
L 35.25 68.796875 
L 35.25 22.515625 
L 43.21875 22.515625 
L 43.21875 15.578125 
z
M 28.46875 58.890625 
Q 28.375 58.640625 28.03125 57.90625 
L 27.34375 56.34375 
L 26.5625 54.59375 
Q 26.125 53.65625 25.78125 53.078125 
L 11.328125 27.09375 
Q 11.140625 26.703125 10.75 26.078125 
L 9.96875 24.8125 
L 9.1875 23.484375 
Q 8.796875 22.859375 8.546875 22.515625 
L 28.46875 22.515625 
z
" id="LiberationSansNarrow-52"/>
       </defs>
       <use xlink:href="#LiberationSansNarrow-50"/>
       <use x="45.605469" xlink:href="#LiberationSansNarrow-48"/>
       <use x="91.210938" xlink:href="#LiberationSansNarrow-48"/>
       <use x="136.816406" xlink:href="#LiberationSansNarrow-52"/>
      </g>
     </g>
    </g>
    <g id="xtick_3">
     <g id="line2d_3">
      <path clip-path="url(#p51e7a24ab2)" d="M 235.309891 252.2 
L 235.309891 15.361759 
" style="fill:none;stroke:#b0b0b0;stroke-dasharray:1.48,0.64;stroke-dashoffset:0;stroke-width:0.4;"/>
     </g>
     <g id="text_3">
      <!-- 2008 -->
      <g transform="translate(222.539266 269.345625)scale(0.14 -0.14)">
       <defs>
        <path d="M 42.046875 19.1875 
Q 42.046875 14.796875 40.890625 11.109375 
Q 39.75 7.421875 37.40625 4.734375 
Q 35.0625 2.046875 31.421875 0.53125 
Q 27.78125 -0.984375 22.796875 -0.984375 
Q 17.828125 -0.984375 14.203125 0.53125 
Q 10.59375 2.046875 8.21875 4.703125 
Q 5.859375 7.375 4.703125 11.0625 
Q 3.5625 14.75 3.5625 19.09375 
Q 3.5625 22.859375 4.515625 25.78125 
Q 5.46875 28.71875 7.03125 30.828125 
Q 8.59375 32.953125 10.609375 34.25 
Q 12.640625 35.546875 14.796875 35.984375 
L 14.796875 36.1875 
Q 12.453125 36.859375 10.59375 38.375 
Q 8.734375 39.890625 7.46875 42.015625 
Q 6.203125 44.140625 5.546875 46.71875 
Q 4.890625 49.3125 4.890625 52.203125 
Q 4.890625 55.8125 6.03125 59 
Q 7.171875 62.203125 9.421875 64.625 
Q 11.671875 67.046875 14.984375 68.4375 
Q 18.3125 69.828125 22.65625 69.828125 
Q 27.25 69.828125 30.640625 68.40625 
Q 34.03125 67 36.25 64.578125 
Q 38.484375 62.15625 39.546875 58.9375 
Q 40.625 55.71875 40.625 52.09375 
Q 40.625 49.265625 39.96875 46.671875 
Q 39.3125 44.09375 38.0625 41.96875 
Q 36.8125 39.84375 34.9375 38.34375 
Q 33.0625 36.859375 30.609375 36.28125 
L 30.609375 36.078125 
Q 33.0625 35.59375 35.15625 34.296875 
Q 37.25 33.015625 38.765625 30.890625 
Q 40.28125 28.765625 41.15625 25.828125 
Q 42.046875 22.90625 42.046875 19.1875 
z
M 33.15625 51.609375 
Q 33.15625 54.203125 32.609375 56.34375 
Q 32.078125 58.5 30.828125 60.03125 
Q 29.59375 61.578125 27.59375 62.421875 
Q 25.59375 63.28125 22.65625 63.28125 
Q 19.828125 63.28125 17.875 62.421875 
Q 15.921875 61.578125 14.640625 60.03125 
Q 13.375 58.5 12.8125 56.34375 
Q 12.25 54.203125 12.25 51.609375 
Q 12.25 49.5625 12.6875 47.40625 
Q 13.140625 45.265625 14.3125 43.5 
Q 15.484375 41.75 17.5 40.625 
Q 19.53125 39.5 22.75 39.5 
Q 26.171875 39.5 28.21875 40.625 
Q 30.28125 41.75 31.375 43.5 
Q 32.46875 45.265625 32.8125 47.40625 
Q 33.15625 49.5625 33.15625 51.609375 
z
M 34.578125 20.015625 
Q 34.578125 22.515625 34.015625 24.828125 
Q 33.453125 27.15625 32.078125 28.9375 
Q 30.71875 30.71875 28.421875 31.8125 
Q 26.125 32.90625 22.65625 32.90625 
Q 19.484375 32.90625 17.265625 31.8125 
Q 15.046875 30.71875 13.671875 28.90625 
Q 12.3125 27.09375 11.671875 24.71875 
Q 11.03125 22.359375 11.03125 19.828125 
Q 11.03125 16.65625 11.671875 14.03125 
Q 12.3125 11.421875 13.703125 9.546875 
Q 15.09375 7.671875 17.375 6.640625 
Q 19.671875 5.609375 22.90625 5.609375 
Q 26.171875 5.609375 28.421875 6.640625 
Q 30.671875 7.671875 32.03125 9.546875 
Q 33.40625 11.421875 33.984375 14.078125 
Q 34.578125 16.75 34.578125 20.015625 
z
" id="LiberationSansNarrow-56"/>
       </defs>
       <use xlink:href="#LiberationSansNarrow-50"/>
       <use x="45.605469" xlink:href="#LiberationSansNarrow-48"/>
       <use x="91.210938" xlink:href="#LiberationSansNarrow-48"/>
       <use x="136.816406" xlink:href="#LiberationSansNarrow-56"/>
      </g>
     </g>
    </g>
    <g id="xtick_4">
     <g id="line2d_4">
      <path clip-path="url(#p51e7a24ab2)" d="M 322.057336 252.2 
L 322.057336 15.361759 
" style="fill:none;stroke:#b0b0b0;stroke-dasharray:1.48,0.64;stroke-dashoffset:0;stroke-width:0.4;"/>
     </g>
     <g id="text_4">
      <!-- 2012 -->
      <g transform="translate(309.286711 269.345625)scale(0.14 -0.14)">
       <defs>
        <path d="M 6.25 0 
L 6.25 7.46875 
L 20.609375 7.46875 
L 20.609375 60.40625 
L 7.90625 49.3125 
L 7.90625 57.625 
L 21.234375 68.796875 
L 27.875 68.796875 
L 27.875 7.46875 
L 41.609375 7.46875 
L 41.609375 0 
z
" id="LiberationSansNarrow-49"/>
       </defs>
       <use xlink:href="#LiberationSansNarrow-50"/>
       <use x="45.605469" xlink:href="#LiberationSansNarrow-48"/>
       <use x="91.210938" xlink:href="#LiberationSansNarrow-49"/>
       <use x="136.816406" xlink:href="#LiberationSansNarrow-50"/>
      </g>
     </g>
    </g>
    <g id="xtick_5">
     <g id="line2d_5">
      <path clip-path="url(#p51e7a24ab2)" d="M 408.804781 252.2 
L 408.804781 15.361759 
" style="fill:none;stroke:#b0b0b0;stroke-dasharray:1.48,0.64;stroke-dashoffset:0;stroke-width:0.4;"/>
     </g>
     <g id="text_5">
      <!-- 2016 -->
      <g transform="translate(396.034156 269.345625)scale(0.14 -0.14)">
       <defs>
        <path d="M 42 22.515625 
Q 42 17.328125 40.828125 13 
Q 39.65625 8.6875 37.359375 5.578125 
Q 35.0625 2.484375 31.640625 0.75 
Q 28.21875 -0.984375 23.78125 -0.984375 
Q 18.84375 -0.984375 15.15625 1.3125 
Q 11.46875 3.609375 9.03125 7.921875 
Q 6.59375 12.25 5.375 18.53125 
Q 4.15625 24.8125 4.15625 32.8125 
Q 4.15625 42 5.546875 48.921875 
Q 6.9375 55.859375 9.515625 60.5 
Q 12.109375 65.140625 15.859375 67.484375 
Q 19.625 69.828125 24.359375 69.828125 
Q 27.25 69.828125 29.765625 69.09375 
Q 32.28125 68.359375 34.328125 66.71875 
Q 36.375 65.09375 37.9375 62.40625 
Q 39.5 59.71875 40.4375 55.8125 
L 33.546875 54.296875 
Q 32.421875 58.734375 29.953125 60.71875 
Q 27.484375 62.703125 24.265625 62.703125 
Q 21.296875 62.703125 18.890625 60.984375 
Q 16.5 59.28125 14.8125 55.875 
Q 13.140625 52.484375 12.234375 47.359375 
Q 11.328125 42.234375 11.328125 35.40625 
Q 13.28125 39.84375 16.84375 42.15625 
Q 20.40625 44.484375 25.046875 44.484375 
Q 28.90625 44.484375 32 42.96875 
Q 35.109375 41.453125 37.328125 38.59375 
Q 39.546875 35.75 40.765625 31.671875 
Q 42 27.59375 42 22.515625 
z
M 34.671875 22.125 
Q 34.671875 25.6875 33.953125 28.5625 
Q 33.25 31.453125 31.8125 33.46875 
Q 30.375 35.5 28.25 36.59375 
Q 26.125 37.703125 23.296875 37.703125 
Q 21.34375 37.703125 19.328125 36.984375 
Q 17.328125 36.28125 15.71875 34.6875 
Q 14.109375 33.109375 13.078125 30.515625 
Q 12.0625 27.9375 12.0625 24.21875 
Q 12.0625 20.40625 12.859375 17.109375 
Q 13.671875 13.8125 15.15625 11.375 
Q 16.65625 8.9375 18.78125 7.515625 
Q 20.90625 6.109375 23.53125 6.109375 
Q 26.125 6.109375 28.203125 7.203125 
Q 30.28125 8.296875 31.71875 10.375 
Q 33.15625 12.453125 33.90625 15.421875 
Q 34.671875 18.40625 34.671875 22.125 
z
" id="LiberationSansNarrow-54"/>
       </defs>
       <use xlink:href="#LiberationSansNarrow-50"/>
       <use x="45.605469" xlink:href="#LiberationSansNarrow-48"/>
       <use x="91.210938" xlink:href="#LiberationSansNarrow-49"/>
       <use x="136.816406" xlink:href="#LiberationSansNarrow-54"/>
      </g>
     </g>
    </g>
    <g id="xtick_6">
     <g id="line2d_6">
      <path clip-path="url(#p51e7a24ab2)" d="M 495.552227 252.2 
L 495.552227 15.361759 
" style="fill:none;stroke:#b0b0b0;stroke-dasharray:1.48,0.64;stroke-dashoffset:0;stroke-width:0.4;"/>
     </g>
     <g id="text_6">
      <!-- 2020 -->
      <g transform="translate(482.781602 269.345625)scale(0.14 -0.14)">
       <use xlink:href="#LiberationSansNarrow-50"/>
       <use x="45.605469" xlink:href="#LiberationSansNarrow-48"/>
       <use x="91.210938" xlink:href="#LiberationSansNarrow-50"/>
       <use x="136.816406" xlink:href="#LiberationSansNarrow-48"/>
      </g>
     </g>
    </g>
   </g>
   <g id="matplotlib.axis_2">
    <g id="ytick_1">
     <g id="line2d_7">
      <path clip-path="url(#p51e7a24ab2)" d="M 38.05 252.2 
L 560.88 252.2 
" style="fill:none;stroke:#b0b0b0;stroke-dasharray:1.48,0.64;stroke-dashoffset:0;stroke-width:0.4;"/>
     </g>
     <g id="text_7">
      <!-- 0.0 -->
      <g transform="translate(15.087812 257.272812)scale(0.14 -0.14)">
       <defs>
        <path d="M 7.46875 0 
L 7.46875 10.6875 
L 15.328125 10.6875 
L 15.328125 0 
z
" id="LiberationSansNarrow-46"/>
       </defs>
       <use xlink:href="#LiberationSansNarrow-48"/>
       <use x="45.605469" xlink:href="#LiberationSansNarrow-46"/>
       <use x="68.408203" xlink:href="#LiberationSansNarrow-48"/>
      </g>
     </g>
    </g>
    <g id="ytick_2">
     <g id="line2d_8">
      <path clip-path="url(#p51e7a24ab2)" d="M 38.05 213.645121 
L 560.88 213.645121 
" style="fill:none;stroke:#b0b0b0;stroke-dasharray:1.48,0.64;stroke-dashoffset:0;stroke-width:0.4;"/>
     </g>
     <g id="text_8">
      <!-- 0.2 -->
      <g transform="translate(15.087812 218.717934)scale(0.14 -0.14)">
       <use xlink:href="#LiberationSansNarrow-48"/>
       <use x="45.605469" xlink:href="#LiberationSansNarrow-46"/>
       <use x="68.408203" xlink:href="#LiberationSansNarrow-50"/>
      </g>
     </g>
    </g>
    <g id="ytick_3">
     <g id="line2d_9">
      <path clip-path="url(#p51e7a24ab2)" d="M 38.05 175.090242 
L 560.88 175.090242 
" style="fill:none;stroke:#b0b0b0;stroke-dasharray:1.48,0.64;stroke-dashoffset:0;stroke-width:0.4;"/>
     </g>
     <g id="text_9">
      <!-- 0.4 -->
      <g transform="translate(15.087812 180.163055)scale(0.14 -0.14)">
       <use xlink:href="#LiberationSansNarrow-48"/>
       <use x="45.605469" xlink:href="#LiberationSansNarrow-46"/>
       <use x="68.408203" xlink:href="#LiberationSansNarrow-52"/>
      </g>
     </g>
    </g>
    <g id="ytick_4">
     <g id="line2d_10">
      <path clip-path="url(#p51e7a24ab2)" d="M 38.05 136.535363 
L 560.88 136.535363 
" style="fill:none;stroke:#b0b0b0;stroke-dasharray:1.48,0.64;stroke-dashoffset:0;stroke-width:0.4;"/>
     </g>
     <g id="text_10">
      <!-- 0.6 -->
      <g transform="translate(15.087812 141.608176)scale(0.14 -0.14)">
       <use xlink:href="#LiberationSansNarrow-48"/>
       <use x="45.605469" xlink:href="#LiberationSansNarrow-46"/>
       <use x="68.408203" xlink:href="#LiberationSansNarrow-54"/>
      </g>
     </g>
    </g>
    <g id="ytick_5">
     <g id="line2d_11">
      <path clip-path="url(#p51e7a24ab2)" d="M 38.05 97.980485 
L 560.88 97.980485 
" style="fill:none;stroke:#b0b0b0;stroke-dasharray:1.48,0.64;stroke-dashoffset:0;stroke-width:0.4;"/>
     </g>
     <g id="text_11">
      <!-- 0.8 -->
      <g transform="translate(15.087812 103.053297)scale(0.14 -0.14)">
       <use xlink:href="#LiberationSansNarrow-48"/>
       <use x="45.605469" xlink:href="#LiberationSansNarrow-46"/>
       <use x="68.408203" xlink:href="#LiberationSansNarrow-56"/>
      </g>
     </g>
    </g>
    <g id="ytick_6">
     <g id="line2d_12">
      <path clip-path="url(#p51e7a24ab2)" d="M 38.05 59.425606 
L 560.88 59.425606 
" style="fill:none;stroke:#b0b0b0;stroke-dasharray:1.48,0.64;stroke-dashoffset:0;stroke-width:0.4;"/>
     </g>
     <g id="text_12">
      <!-- 1.0 -->
      <g transform="translate(15.087812 64.498418)scale(0.14 -0.14)">
       <use xlink:href="#LiberationSansNarrow-49"/>
       <use x="45.605469" xlink:href="#LiberationSansNarrow-46"/>
       <use x="68.408203" xlink:href="#LiberationSansNarrow-48"/>
      </g>
     </g>
    </g>
    <g id="ytick_7">
     <g id="line2d_13">
      <path clip-path="url(#p51e7a24ab2)" d="M 38.05 20.870727 
L 560.88 20.870727 
" style="fill:none;stroke:#b0b0b0;stroke-dasharray:1.48,0.64;stroke-dashoffset:0;stroke-width:0.4;"/>
     </g>
     <g id="text_13">
      <!-- 1.2 -->
      <g transform="translate(15.087812 25.943539)scale(0.14 -0.14)">
       <use xlink:href="#LiberationSansNarrow-49"/>
       <use x="45.605469" xlink:href="#LiberationSansNarrow-46"/>
       <use x="68.408203" xlink:href="#LiberationSansNarrow-50"/>
      </g>
     </g>
    </g>
   </g>
   <g id="line2d_14">
    <path clip-path="url(#p51e7a24ab2)" d="M 61.815 59.425606 
L 63.655637 59.455707 
L 65.377523 59.973709 
L 67.218161 62.395195 
L 68.999422 65.982299 
L 70.840059 68.23372 
L 72.621321 69.124878 
L 74.461958 70.739982 
L 76.302595 73.774467 
L 79.924494 78.034891 
L 81.705756 82.074729 
L 83.546393 85.333827 
L 88.890178 92.348449 
L 90.67144 94.216696 
L 92.512077 94.378947 
L 94.293339 93.875899 
L 96.133976 94.111513 
L 97.974613 95.09055 
L 99.755874 96.494015 
L 101.596512 98.33197 
L 103.377773 102.245817 
L 105.21841 102.861221 
L 108.721558 103.734037 
L 110.562196 104.932268 
L 112.343457 104.474785 
L 114.184094 104.228508 
L 115.965356 102.989988 
L 117.805993 102.350454 
L 119.64663 102.664552 
L 121.427892 103.569827 
L 123.268529 104.348243 
L 125.049791 106.406925 
L 126.890428 107.407839 
L 130.393576 107.779337 
L 134.015475 107.611439 
L 135.856112 107.379806 
L 137.637374 105.556386 
L 139.478011 104.785412 
L 144.940547 105.654092 
L 146.721808 106.888605 
L 148.562445 107.200324 
L 150.403082 107.206825 
L 152.124969 107.562713 
L 155.746868 107.662963 
L 157.587505 107.962608 
L 161.209403 107.113744 
L 166.671939 108.658974 
L 168.453201 111.187957 
L 173.796986 113.221807 
L 175.637623 113.407836 
L 177.418885 113.33665 
L 179.259522 113.015528 
L 181.040784 111.886612 
L 182.881421 111.27488 
L 184.722058 111.075287 
L 188.343957 111.336679 
L 190.125219 113.703835 
L 191.965856 115.089825 
L 193.806493 115.320173 
L 195.469004 114.912666 
L 197.309641 114.651188 
L 199.090903 114.183596 
L 200.93154 114.244538 
L 202.712801 113.717559 
L 204.553438 112.977868 
L 206.394076 112.507592 
L 208.175337 112.506157 
L 210.015974 112.733395 
L 211.797236 114.149691 
L 213.637873 114.86446 
L 218.981658 114.873682 
L 222.603557 115.756726 
L 224.384819 115.144076 
L 226.225456 115.418854 
L 228.066093 116.826376 
L 229.847355 117.713819 
L 231.687992 118.44642 
L 233.469254 120.649668 
L 237.150528 122.34593 
L 238.872414 123.434598 
L 240.713051 124.422446 
L 242.494313 124.961437 
L 244.33495 124.869622 
L 246.116212 124.576145 
L 247.956849 124.815683 
L 249.797486 125.185838 
L 251.578748 125.386276 
L 253.419385 125.361982 
L 255.200646 127.274084 
L 257.041284 128.377743 
L 258.881921 129.01185 
L 260.544432 128.882146 
L 266.006968 127.931338 
L 271.469503 124.71154 
L 273.250765 123.996461 
L 275.091402 123.476813 
L 276.872664 124.523881 
L 278.713301 124.721738 
L 280.553938 124.67204 
L 282.216449 124.249212 
L 285.838348 123.87832 
L 287.678985 123.656539 
L 289.460247 123.689754 
L 291.300884 124.118046 
L 293.141521 124.178343 
L 294.922783 124.617128 
L 296.76342 125.393576 
L 298.544681 127.726754 
L 300.385319 128.150658 
L 302.225956 128.367398 
L 303.888467 128.33683 
L 305.729104 128.522362 
L 307.510365 128.216109 
L 309.351002 127.541433 
L 311.132264 126.682168 
L 312.972901 126.032427 
L 314.813538 125.923124 
L 320.216699 124.931667 
L 322.057336 124.433817 
L 323.897973 124.352925 
L 325.619859 123.901198 
L 327.460497 123.684888 
L 329.241758 123.935267 
L 331.082395 124.565162 
L 332.863657 123.83138 
L 336.544931 123.343218 
L 338.326193 122.850001 
L 340.16683 122.687972 
L 341.948092 122.941502 
L 343.788729 122.751765 
L 345.629366 122.298041 
L 347.291877 122.079996 
L 349.132514 122.084275 
L 350.913776 121.835939 
L 352.754413 122.106968 
L 354.535675 121.492633 
L 356.376312 120.995493 
L 359.99821 120.877862 
L 361.838848 120.593854 
L 363.620109 120.501037 
L 365.460746 120.617257 
L 368.963894 121.549157 
L 370.804532 121.90936 
L 372.585793 121.909008 
L 374.42643 121.705782 
L 376.207692 121.185739 
L 378.048329 121.165023 
L 379.888966 121.354074 
L 381.670228 122.093701 
L 383.510865 124.447946 
L 385.292127 127.758761 
L 387.132764 129.033978 
L 388.973401 129.18343 
L 392.476549 127.68675 
L 394.257811 126.754283 
L 396.098448 126.59874 
L 397.87971 125.995028 
L 399.720347 125.679687 
L 405.182883 125.566893 
L 406.964144 125.760412 
L 408.804781 125.59696 
L 414.207942 124.454002 
L 415.989204 124.00039 
L 417.829841 123.781458 
L 419.611102 122.940116 
L 421.45174 122.284523 
L 426.914275 121.382027 
L 428.695537 121.33792 
L 430.536174 120.813037 
L 432.376811 120.168097 
L 435.879959 119.445268 
L 437.661221 119.449059 
L 439.501858 118.774387 
L 441.28312 117.292008 
L 443.123757 116.288102 
L 446.745656 115.277218 
L 448.586293 115.059928 
L 450.367555 114.723695 
L 452.208192 114.243759 
L 455.71134 113.686155 
L 457.551977 113.515408 
L 459.333239 113.479643 
L 461.173876 113.183696 
L 462.955137 112.538573 
L 464.795775 112.083896 
L 466.636412 111.89711 
L 468.417673 111.896167 
L 470.25831 112.336138 
L 472.039572 112.997649 
L 473.880209 112.908929 
L 479.223994 111.994533 
L 481.005256 111.327265 
L 482.845893 110.869968 
L 484.627155 109.82067 
L 486.467792 108.874373 
L 488.308429 108.347792 
L 490.089691 108.054659 
L 495.552227 107.704532 
L 497.392864 107.894094 
L 499.11475 108.498106 
L 504.577286 108.002103 
L 508.199185 106.898196 
L 510.039822 107.031985 
L 511.821084 107.578224 
L 513.661721 108.288927 
L 515.442983 108.768912 
L 517.28362 109.389805 
L 524.408666 111.29373 
L 526.249304 111.253259 
L 528.030565 110.969824 
L 529.871202 111.211839 
L 531.711839 112.123954 
L 537.115 112.984581 
L 537.115 112.984581 
" style="fill:none;stroke:#1f77b4;stroke-linecap:square;stroke-width:1.5;"/>
   </g>
   <g id="line2d_15">
    <path clip-path="url(#p51e7a24ab2)" d="M 61.815 59.425606 
L 63.655637 58.183178 
L 65.377523 59.556107 
L 67.218161 61.563244 
L 68.999422 65.76823 
L 70.840059 68.829933 
L 72.621321 71.040419 
L 74.461958 72.279653 
L 76.302595 74.612168 
L 78.083857 75.53877 
L 81.705756 78.509396 
L 83.546393 80.039477 
L 85.38703 79.942401 
L 87.049541 81.77864 
L 88.890178 83.11882 
L 90.67144 83.180123 
L 92.512077 83.000293 
L 94.293339 80.749243 
L 96.133976 80.023528 
L 97.974613 80.605724 
L 99.755874 79.975893 
L 101.596512 80.399672 
L 103.377773 83.023286 
L 105.21841 80.946083 
L 107.059047 80.204725 
L 108.721558 79.924546 
L 110.562196 81.2437 
L 115.965356 78.682568 
L 117.805993 77.440051 
L 119.64663 77.660283 
L 123.268529 79.502719 
L 125.049791 82.634147 
L 126.890428 84.055985 
L 130.393576 87.659839 
L 132.234213 89.393905 
L 134.015475 91.679497 
L 135.856112 93.660937 
L 137.637374 92.498706 
L 139.478011 90.672599 
L 141.318648 90.623309 
L 143.099909 95.086212 
L 144.940547 96.402062 
L 146.721808 99.528051 
L 148.562445 105.021829 
L 150.403082 105.07331 
L 152.124969 105.736629 
L 153.965606 103.86562 
L 155.746868 103.556359 
L 157.587505 103.773272 
L 159.368766 103.12104 
L 161.209403 102.10551 
L 163.050041 102.982557 
L 164.831302 106.003974 
L 166.671939 109.426157 
L 168.453201 114.566357 
L 170.293838 113.848152 
L 172.134475 116.387212 
L 175.637623 117.427808 
L 177.418885 115.960972 
L 179.259522 112.981467 
L 181.040784 112.184311 
L 182.881421 112.136002 
L 184.722058 112.29931 
L 186.50332 112.872144 
L 188.343957 111.691801 
L 190.125219 113.907995 
L 191.965856 118.652735 
L 193.806493 119.091912 
L 195.469004 120.612954 
L 197.309641 122.889142 
L 199.090903 123.983538 
L 200.93154 123.724674 
L 202.712801 124.325078 
L 204.553438 124.436931 
L 206.394076 123.939015 
L 208.175337 124.236544 
L 210.015974 126.654734 
L 211.797236 127.992589 
L 213.637873 127.755524 
L 215.47851 129.591901 
L 217.141021 130.354289 
L 218.981658 131.975177 
L 220.76292 131.424051 
L 222.603557 132.213338 
L 224.384819 132.703031 
L 226.225456 132.730637 
L 228.066093 137.205304 
L 229.847355 139.026961 
L 231.687992 141.377005 
L 235.309891 143.414935 
L 237.150528 145.686464 
L 238.872414 149.192559 
L 240.713051 149.35538 
L 242.494313 149.321945 
L 244.33495 150.435306 
L 246.116212 150.220041 
L 247.956849 145.466874 
L 249.797486 142.861031 
L 251.578748 137.480101 
L 253.419385 132.963835 
L 255.200646 127.394711 
L 257.041284 103.458422 
L 258.881921 103.390263 
L 260.544432 110.855413 
L 262.385069 114.193795 
L 264.16633 123.779035 
L 266.006968 122.733636 
L 267.788229 120.238834 
L 269.628866 120.379795 
L 271.469503 125.972081 
L 273.250765 130.136856 
L 275.091402 126.843447 
L 276.872664 126.485198 
L 278.713301 126.31642 
L 280.553938 128.61363 
L 282.216449 130.957928 
L 284.057086 131.399875 
L 285.838348 126.434906 
L 287.678985 123.51955 
L 289.460247 127.878746 
L 291.300884 126.473989 
L 293.141521 127.701464 
L 294.922783 126.67067 
L 296.76342 125.401228 
L 298.544681 131.107806 
L 300.385319 135.049872 
L 302.225956 138.425464 
L 303.888467 140.694774 
L 305.729104 144.586876 
L 307.510365 142.424548 
L 309.351002 142.167328 
L 311.132264 143.216673 
L 312.972901 138.248107 
L 314.813538 126.661512 
L 316.5948 134.731909 
L 318.435437 129.402819 
L 320.216699 126.250053 
L 322.057336 133.565363 
L 323.897973 139.375532 
L 325.619859 137.940225 
L 327.460497 138.13635 
L 329.241758 126.949913 
L 331.082395 126.712063 
L 332.863657 129.042154 
L 334.704294 129.034229 
L 336.544931 134.556455 
L 338.326193 132.378011 
L 340.16683 134.467161 
L 341.948092 137.887842 
L 343.788729 139.571404 
L 345.629366 137.527829 
L 347.291877 136.130869 
L 349.132514 135.997336 
L 350.913776 134.94198 
L 352.754413 131.498899 
L 354.535675 130.857348 
L 356.376312 129.591277 
L 358.216949 133.336072 
L 359.99821 134.833121 
L 361.838848 131.133376 
L 363.620109 133.312091 
L 365.460746 124.743085 
L 367.301384 122.787211 
L 368.963894 124.962153 
L 370.804532 125.787213 
L 374.42643 133.966782 
L 376.207692 126.493449 
L 378.048329 122.661164 
L 379.888966 114.829436 
L 381.670228 102.417838 
L 383.510865 85.904689 
L 385.292127 68.818205 
L 387.132764 31.44947 
L 388.973401 57.435761 
L 390.635912 66.356526 
L 392.476549 87.774841 
L 394.257811 83.424121 
L 396.098448 76.161816 
L 397.87971 65.395098 
L 399.720347 42.408497 
L 401.560984 44.236117 
L 403.342245 51.200664 
L 405.182883 46.556855 
L 406.964144 27.716461 
L 408.804781 21.793833 
L 410.645418 22.764537 
L 412.367305 46.236746 
L 414.207942 56.747953 
L 415.989204 51.908244 
L 417.829841 58.2521 
L 419.611102 49.666153 
L 421.45174 56.268656 
L 423.292377 62.170286 
L 425.073638 63.619684 
L 426.914275 58.124818 
L 428.695537 71.876391 
L 430.536174 73.611254 
L 432.376811 80.295974 
L 434.039322 85.320041 
L 435.879959 84.01029 
L 437.661221 86.229908 
L 439.501858 78.686812 
L 441.28312 76.276892 
L 443.123757 78.229112 
L 444.964394 80.522816 
L 446.745656 81.186213 
L 448.586293 80.3852 
L 450.367555 82.912068 
L 452.208192 86.966887 
L 454.048829 89.114759 
L 455.71134 84.921578 
L 457.551977 71.606444 
L 459.333239 70.483729 
L 462.955137 69.906014 
L 464.795775 54.540698 
L 466.636412 62.087767 
L 468.417673 61.984807 
L 470.25831 60.612302 
L 472.039572 53.960886 
L 473.880209 63.986185 
L 475.720846 65.195349 
L 477.383357 68.320589 
L 479.223994 68.747332 
L 481.005256 67.496905 
L 482.845893 73.210744 
L 484.627155 71.707171 
L 486.467792 62.332979 
L 488.308429 68.308033 
L 490.089691 70.196667 
L 491.930328 70.103322 
L 493.71159 76.843544 
L 495.552227 74.098991 
L 497.392864 63.806858 
L 499.11475 35.230696 
L 500.955387 46.972994 
L 502.736649 55.431785 
L 504.577286 58.25094 
L 506.358548 48.667918 
L 508.199185 44.927575 
L 510.039822 31.768031 
L 511.821084 34.202138 
L 513.661721 45.393433 
L 515.442983 52.086795 
L 517.28362 47.181503 
L 519.124257 53.323253 
L 520.786768 51.062631 
L 522.627405 55.943077 
L 524.408666 59.306012 
L 526.249304 63.031093 
L 528.030565 61.286661 
L 529.871202 61.202069 
L 531.711839 65.279221 
L 533.493101 72.190312 
L 535.333738 61.951233 
L 537.115 64.872659 
L 537.115 64.872659 
" style="fill:none;stroke:#2ca02c;stroke-linecap:square;stroke-width:1.5;"/>
   </g>
   <g id="legend_1">
    <g id="patch_3">
     <path d="M 47.85 245.2 
L 269.599063 245.2 
Q 272.399063 245.2 272.399063 242.4 
L 272.399063 203.57625 
Q 272.399063 200.77625 269.599063 200.77625 
L 47.85 200.77625 
Q 45.05 200.77625 45.05 203.57625 
L 45.05 242.4 
Q 45.05 245.2 47.85 245.2 
z
" style="fill:#ffffff;opacity:0.8;stroke:#cccccc;stroke-linejoin:miter;"/>
    </g>
    <g id="line2d_16">
     <path d="M 50.65 211.744375 
L 78.65 211.744375 
" style="fill:none;stroke:#1f77b4;stroke-linecap:square;stroke-width:1.5;"/>
    </g>
    <g id="line2d_17"/>
    <g id="text_14">
     <!-- вклад в рублях по ср.-взв. ставке -->
     <g transform="translate(89.85 216.644375)scale(0.14 -0.14)">
      <defs>
       <path d="M 22.5625 52.828125 
Q 25.59375 52.828125 28.484375 52.234375 
Q 31.390625 51.65625 33.640625 50.140625 
Q 35.890625 48.640625 37.234375 46.09375 
Q 38.578125 43.5625 38.578125 39.59375 
Q 38.578125 37.015625 37.890625 35.03125 
Q 37.203125 33.0625 35.984375 31.640625 
Q 34.765625 30.21875 33.125 29.3125 
Q 31.5 28.421875 29.6875 27.984375 
L 29.6875 27.640625 
Q 31.84375 27.296875 33.734375 26.4375 
Q 35.640625 25.59375 37 24.09375 
Q 38.375 22.609375 39.171875 20.40625 
Q 39.984375 18.21875 39.984375 15.234375 
Q 39.984375 11.421875 38.765625 8.5625 
Q 37.546875 5.71875 35.375 3.8125 
Q 33.203125 1.90625 30.171875 0.953125 
Q 27.15625 0 23.484375 0 
L 5.671875 0 
L 5.671875 52.828125 
z
M 12.890625 6.5 
L 22.3125 6.5 
Q 25.09375 6.5 27 6.984375 
Q 28.90625 7.46875 30.078125 8.546875 
Q 31.25 9.625 31.78125 11.25 
Q 32.328125 12.890625 32.328125 15.1875 
Q 32.328125 17.625 31.765625 19.328125 
Q 31.203125 21.046875 29.953125 22.109375 
Q 28.71875 23.1875 26.703125 23.671875 
Q 24.703125 24.171875 21.875 24.171875 
L 12.890625 24.171875 
z
M 12.890625 46.140625 
L 12.890625 30.515625 
L 21.53125 30.515625 
Q 24.265625 30.515625 26.0625 30.984375 
Q 27.875 31.453125 29 32.390625 
Q 30.125 33.34375 30.5625 34.828125 
Q 31 36.328125 31 38.421875 
Q 31 42.4375 28.96875 44.28125 
Q 26.953125 46.140625 22.125 46.140625 
z
" id="LiberationSansNarrow-1074"/>
       <path d="M 5.515625 52.828125 
L 12.703125 52.828125 
L 12.703125 29.6875 
Q 13.921875 29.6875 14.875 30.078125 
Q 15.828125 30.46875 16.875 31.6875 
Q 17.921875 32.90625 19.21875 35.15625 
Q 20.515625 37.40625 22.46875 41.15625 
L 28.375 52.828125 
L 35.890625 52.828125 
L 27.25 36.96875 
Q 25.4375 33.734375 24.109375 31.65625 
Q 22.796875 29.59375 22.125 28.90625 
L 36.234375 0 
L 28.21875 0 
L 17.140625 24.265625 
Q 16.359375 23.875 15.0625 23.578125 
Q 13.765625 23.296875 12.703125 23.296875 
L 12.703125 0 
L 5.515625 0 
z
" id="LiberationSansNarrow-1082"/>
       <path d="M 34.859375 0 
L 34.859375 46.4375 
L 19.875 46.4375 
Q 18.890625 37.453125 18.03125 30.4375 
Q 17.1875 23.4375 16.3125 18.15625 
Q 15.4375 12.890625 14.40625 9.25 
Q 13.375 5.609375 11.953125 3.34375 
Q 10.546875 1.078125 8.65625 0.046875 
Q 6.78125 -0.984375 4.203125 -0.984375 
Q 3.03125 -0.984375 2.078125 -0.78125 
Q 1.125 -0.59375 0.4375 -0.34375 
L 0.4375 5.953125 
Q 0.875 5.765625 1.625 5.640625 
Q 2.390625 5.515625 3.171875 5.515625 
Q 4.59375 5.515625 5.59375 6.53125 
Q 6.59375 7.5625 7.390625 9.859375 
Q 8.203125 12.15625 8.859375 15.796875 
Q 9.515625 19.4375 10.203125 24.703125 
Q 10.890625 29.984375 11.625 36.921875 
L 13.375 52.828125 
L 42.140625 52.828125 
L 42.140625 0 
z
" id="LiberationSansNarrow-1083"/>
       <path d="M 16.546875 -0.984375 
Q 10.015625 -0.984375 6.734375 3.21875 
Q 3.46875 7.421875 3.46875 14.75 
Q 3.46875 19.96875 5.09375 23.3125 
Q 6.734375 26.65625 9.34375 28.5625 
Q 11.96875 30.46875 15.328125 31.203125 
Q 18.703125 31.9375 22.171875 32.03125 
L 31.9375 32.234375 
L 31.9375 35.109375 
Q 31.9375 38.375 31.375 40.671875 
Q 30.8125 42.96875 29.640625 44.375 
Q 28.46875 45.796875 26.734375 46.453125 
Q 25 47.125 22.609375 47.125 
Q 20.515625 47.125 18.84375 46.75 
Q 17.1875 46.390625 15.9375 45.4375 
Q 14.703125 44.484375 13.9375 42.84375 
Q 13.1875 41.21875 12.9375 38.71875 
L 5.421875 39.546875 
Q 5.8125 42.671875 6.9375 45.28125 
Q 8.0625 47.90625 10.109375 49.796875 
Q 12.15625 51.703125 15.25 52.75 
Q 18.359375 53.8125 22.796875 53.8125 
Q 30.953125 53.8125 35.078125 49.234375 
Q 39.203125 44.671875 39.203125 36.03125 
L 39.203125 13.28125 
Q 39.203125 9.375 40.03125 7.390625 
Q 40.875 5.421875 43.265625 5.421875 
Q 43.84375 5.421875 44.453125 5.515625 
Q 45.0625 5.609375 45.609375 5.765625 
L 45.609375 0.296875 
Q 44.234375 -0.09375 42.890625 -0.28125 
Q 41.546875 -0.484375 40.046875 -0.484375 
Q 37.984375 -0.484375 36.515625 0.171875 
Q 35.0625 0.828125 34.15625 2.171875 
Q 33.25 3.515625 32.765625 5.484375 
Q 32.28125 7.46875 32.125 10.109375 
L 31.9375 10.109375 
Q 30.765625 7.5625 29.375 5.515625 
Q 27.984375 3.46875 26.140625 2.03125 
Q 24.3125 0.59375 21.9375 -0.1875 
Q 19.578125 -0.984375 16.546875 -0.984375 
z
M 18.21875 5.609375 
Q 21.6875 5.609375 24.25 7.140625 
Q 26.8125 8.6875 28.515625 11.078125 
Q 30.21875 13.484375 31.078125 16.3125 
Q 31.9375 19.140625 31.9375 21.734375 
L 31.9375 26.078125 
L 24.03125 25.875 
Q 21.390625 25.828125 19 25.40625 
Q 16.609375 25 14.8125 23.78125 
Q 13.03125 22.5625 11.953125 20.359375 
Q 10.890625 18.171875 10.890625 14.59375 
Q 10.890625 10.296875 12.796875 7.953125 
Q 14.703125 5.609375 18.21875 5.609375 
z
" id="LiberationSansNarrow-1072"/>
       <path d="M 33.34375 46.4375 
L 21.140625 46.4375 
Q 20.171875 37.796875 19.1875 31.375 
Q 18.21875 24.953125 17.234375 20.21875 
Q 16.265625 15.484375 15.3125 12.15625 
Q 14.359375 8.84375 13.484375 6.390625 
L 33.34375 6.390625 
z
M 46.390625 -19.921875 
L 39.890625 -19.921875 
L 39.890625 0 
L 7.328125 0 
L 7.328125 -19.921875 
L 0.78125 -19.921875 
L 0.78125 6.390625 
L 5.5625 6.390625 
Q 6.78125 8.84375 7.921875 12.328125 
Q 9.078125 15.828125 10.21875 21.1875 
Q 11.375 26.5625 12.515625 34.25 
Q 13.671875 41.9375 14.796875 52.828125 
L 40.578125 52.828125 
L 40.578125 6.390625 
L 46.390625 6.390625 
z
" id="LiberationSansNarrow-1076"/>
       <path id="LiberationSansNarrow-32"/>
       <path d="M 42.140625 26.65625 
Q 42.140625 20.65625 41.359375 15.578125 
Q 40.578125 10.5 38.6875 6.828125 
Q 36.8125 3.171875 33.765625 1.09375 
Q 30.71875 -0.984375 26.21875 -0.984375 
Q 21.578125 -0.984375 18.078125 1.171875 
Q 14.59375 3.328125 12.796875 8.203125 
L 12.546875 8.203125 
Q 12.59375 8.109375 12.609375 7.328125 
Q 12.640625 6.546875 12.671875 5.375 
Q 12.703125 4.203125 12.71875 2.75 
Q 12.75 1.3125 12.75 -0.09375 
L 12.75 -20.75 
L 5.515625 -20.75 
L 5.515625 42.046875 
Q 5.515625 43.953125 5.484375 45.703125 
Q 5.46875 47.46875 5.4375 48.90625 
Q 5.421875 50.34375 5.375 51.359375 
Q 5.328125 52.390625 5.28125 52.828125 
L 12.25 52.828125 
Q 12.3125 52.6875 12.359375 51.8125 
L 12.5 49.703125 
Q 12.546875 48.4375 12.59375 47.015625 
Q 12.640625 45.609375 12.640625 44.34375 
L 12.796875 44.34375 
Q 13.765625 46.875 15.0625 48.65625 
Q 16.359375 50.4375 18.015625 51.578125 
Q 19.671875 52.734375 21.671875 53.25 
Q 23.6875 53.765625 26.21875 53.765625 
Q 30.71875 53.765625 33.765625 51.8125 
Q 36.8125 49.859375 38.6875 46.3125 
Q 40.578125 42.78125 41.359375 37.765625 
Q 42.140625 32.765625 42.140625 26.65625 
z
M 34.578125 26.46875 
Q 34.578125 31.34375 34.109375 35.15625 
Q 33.640625 38.96875 32.4375 41.59375 
Q 31.25 44.234375 29.296875 45.59375 
Q 27.34375 46.96875 24.359375 46.96875 
Q 21.96875 46.96875 19.84375 46.140625 
Q 17.71875 45.3125 16.125 42.96875 
Q 14.546875 40.625 13.640625 36.5 
Q 12.75 32.375 12.75 25.78125 
Q 12.75 20.171875 13.5 16.28125 
Q 14.265625 12.40625 15.71875 10.015625 
Q 17.1875 7.625 19.328125 6.5625 
Q 21.484375 5.515625 24.3125 5.515625 
Q 27.34375 5.515625 29.296875 6.921875 
Q 31.25 8.34375 32.4375 11.03125 
Q 33.640625 13.71875 34.109375 17.59375 
Q 34.578125 21.484375 34.578125 26.46875 
z
" id="LiberationSansNarrow-1088"/>
       <path d="M 24.171875 0 
Q 22.65625 -4.78125 21.0625 -8.609375 
Q 19.484375 -12.453125 17.53125 -15.15625 
Q 15.578125 -17.875 13.1875 -19.3125 
Q 10.796875 -20.75 7.671875 -20.75 
Q 6.296875 -20.75 5.125 -20.65625 
Q 3.953125 -20.5625 2.6875 -20.21875 
L 2.6875 -13.625 
Q 3.46875 -13.765625 4.421875 -13.84375 
Q 5.375 -13.921875 6.0625 -13.921875 
Q 9.234375 -13.921875 11.9375 -11.03125 
Q 14.65625 -8.15625 16.703125 -1.859375 
L 17.390625 0.25 
L 0.203125 52.828125 
L 7.90625 52.828125 
L 17.046875 23.640625 
Q 17.046875 23.640625 18.0625 20.125 
L 19.28125 15.71875 
Q 19.921875 13.53125 20.375 11.765625 
Q 20.84375 10.015625 20.953125 9.578125 
Q 21.046875 10.109375 21.484375 11.71875 
L 22.5625 15.234375 
L 23.734375 19.1875 
Q 24.359375 21.1875 24.75 22.65625 
L 33.25 52.828125 
L 40.875 52.828125 
z
" id="LiberationSansNarrow-1091"/>
       <path d="M 35.9375 24.515625 
Q 35.9375 30.078125 35.15625 33.765625 
Q 34.375 37.453125 32.9375 39.671875 
Q 31.5 41.890625 29.390625 42.796875 
Q 27.296875 43.703125 24.703125 43.703125 
Q 21.921875 43.703125 19.65625 42.75 
Q 17.390625 41.796875 15.765625 39.546875 
Q 14.15625 37.3125 13.25 33.640625 
Q 12.359375 29.984375 12.359375 24.515625 
Q 12.359375 18.953125 13.25 15.28125 
Q 14.15625 11.625 15.6875 9.453125 
Q 17.234375 7.28125 19.328125 6.390625 
Q 21.4375 5.515625 23.921875 5.515625 
Q 26.703125 5.515625 28.921875 6.390625 
Q 31.15625 7.28125 32.71875 9.421875 
Q 34.28125 11.578125 35.109375 15.265625 
Q 35.9375 18.953125 35.9375 24.515625 
z
M 26.21875 50.140625 
Q 35.109375 50.140625 39.296875 43.765625 
Q 43.5 37.40625 43.5 24.609375 
Q 43.5 11.671875 38.5 5.34375 
Q 33.5 -0.984375 23.96875 -0.984375 
Q 19.4375 -0.984375 15.890625 0.71875 
Q 12.359375 2.4375 9.890625 6.25 
Q 7.421875 10.0625 6.09375 16.15625 
Q 4.78125 22.265625 4.78125 31.0625 
Q 4.78125 40.4375 5.953125 47.21875 
Q 7.125 54 9.6875 58.703125 
Q 12.25 63.421875 16.375 66.234375 
Q 20.515625 69.046875 26.375 70.40625 
Q 28.65625 70.953125 30.65625 71.359375 
Q 32.671875 71.78125 34.46875 72.125 
L 38.03125 72.75 
L 41.5 73.34375 
L 41.5 65.484375 
Q 38.03125 64.9375 34.8125 64.375 
Q 31.59375 63.8125 27.9375 62.984375 
Q 24.8125 62.3125 22.34375 61.5 
Q 19.875 60.6875 17.984375 59.46875 
Q 16.109375 58.25 14.765625 56.46875 
Q 13.421875 54.6875 12.546875 52.046875 
Q 11.671875 49.421875 11.203125 45.78125 
Q 10.75 42.140625 10.640625 37.203125 
Q 11.421875 39.890625 12.765625 42.25 
Q 14.109375 44.625 16.03125 46.375 
Q 17.96875 48.140625 20.484375 49.140625 
Q 23 50.140625 26.21875 50.140625 
z
" id="LiberationSansNarrow-1073"/>
       <path d="M 21.4375 22.359375 
L 8.84375 0 
L 0.6875 0 
L 14.453125 23 
Q 9.234375 24.3125 6.859375 28.296875 
Q 4.5 32.28125 4.5 38.234375 
Q 4.5 45.515625 8.8125 49.171875 
Q 13.140625 52.828125 21.4375 52.828125 
L 38.71875 52.828125 
L 38.71875 0 
L 31.546875 0 
L 31.546875 22.359375 
z
M 31.546875 46.625 
L 22.171875 46.625 
Q 16.9375 46.625 14.546875 44.375 
Q 12.15625 42.140625 12.15625 37.59375 
Q 12.15625 33.015625 14.28125 30.734375 
Q 16.40625 28.46875 21.390625 28.46875 
L 31.546875 28.46875 
z
" id="LiberationSansNarrow-1103"/>
       <path d="M 32.078125 0 
L 20.40625 21.6875 
L 8.6875 0 
L 0.921875 0 
L 16.359375 27.15625 
L 1.65625 52.828125 
L 9.625 52.828125 
L 20.40625 32.28125 
L 31.15625 52.828125 
L 39.203125 52.828125 
L 24.515625 27.25 
L 40.140625 0 
z
" id="LiberationSansNarrow-1093"/>
       <path d="M 38.71875 52.828125 
L 38.71875 0 
L 31.546875 0 
L 31.546875 46.4375 
L 12.890625 46.4375 
L 12.890625 0 
L 5.71875 0 
L 5.71875 52.828125 
z
" id="LiberationSansNarrow-1087"/>
       <path d="M 42.140625 26.46875 
Q 42.140625 12.59375 37.125 5.796875 
Q 32.125 -0.984375 22.609375 -0.984375 
Q 18.0625 -0.984375 14.515625 0.671875 
Q 10.984375 2.34375 8.515625 5.765625 
Q 6.0625 9.1875 4.765625 14.328125 
Q 3.46875 19.484375 3.46875 26.46875 
Q 3.46875 53.8125 22.859375 53.8125 
Q 27.875 53.8125 31.5625 52.09375 
Q 35.25 50.390625 37.59375 46.96875 
Q 39.9375 43.5625 41.03125 38.421875 
Q 42.140625 33.296875 42.140625 26.46875 
z
M 34.578125 26.46875 
Q 34.578125 32.625 33.8125 36.625 
Q 33.0625 40.625 31.546875 43.015625 
Q 30.03125 45.40625 27.859375 46.359375 
Q 25.6875 47.3125 23 47.3125 
Q 20.21875 47.3125 17.984375 46.3125 
Q 15.765625 45.3125 14.203125 42.890625 
Q 12.640625 40.484375 11.828125 36.46875 
Q 11.03125 32.46875 11.03125 26.46875 
Q 11.03125 20.3125 11.90625 16.28125 
Q 12.796875 12.25 14.328125 9.859375 
Q 15.875 7.46875 17.96875 6.484375 
Q 20.0625 5.515625 22.5625 5.515625 
Q 25.34375 5.515625 27.5625 6.46875 
Q 29.78125 7.421875 31.34375 9.8125 
Q 32.90625 12.203125 33.734375 16.25 
Q 34.578125 20.3125 34.578125 26.46875 
z
" id="LiberationSansNarrow-1086"/>
       <path d="M 11.03125 26.65625 
Q 11.03125 22.125 11.5625 18.3125 
Q 12.109375 14.5 13.375 11.734375 
Q 14.65625 8.984375 16.75 7.46875 
Q 18.84375 5.953125 21.96875 5.953125 
Q 25.828125 5.953125 28.390625 8.484375 
Q 30.953125 11.03125 31.546875 16.3125 
L 38.875 15.71875 
Q 38.53125 12.453125 37.296875 9.421875 
Q 36.078125 6.390625 34.03125 4.09375 
Q 31.984375 1.8125 29 0.40625 
Q 26.03125 -0.984375 22.171875 -0.984375 
Q 17.09375 -0.984375 13.5 1.109375 
Q 9.90625 3.21875 7.6875 6.90625 
Q 5.46875 10.59375 4.46875 15.59375 
Q 3.46875 20.609375 3.46875 26.46875 
Q 3.46875 31.78125 4.203125 35.859375 
Q 4.9375 39.9375 6.21875 42.984375 
Q 7.515625 46.046875 9.265625 48.125 
Q 11.03125 50.203125 13.109375 51.4375 
Q 15.1875 52.6875 17.453125 53.25 
Q 19.734375 53.8125 22.078125 53.8125 
Q 25.734375 53.8125 28.5625 52.59375 
Q 31.390625 51.375 33.46875 49.25 
Q 35.546875 47.125 36.8125 44.234375 
Q 38.09375 41.359375 38.625 38.03125 
L 31.203125 37.359375 
Q 30.671875 41.75 28.375 44.328125 
Q 26.078125 46.921875 21.875 46.921875 
Q 18.796875 46.921875 16.71875 45.671875 
Q 14.65625 44.4375 13.375 41.921875 
Q 12.109375 39.40625 11.5625 35.59375 
Q 11.03125 31.78125 11.03125 26.65625 
z
" id="LiberationSansNarrow-1089"/>
       <path d="M 3.65625 22.65625 
L 3.65625 30.46875 
L 23.640625 30.46875 
L 23.640625 22.65625 
z
" id="LiberationSansNarrow-45"/>
       <path d="M 18.3125 -0.984375 
Q 11.625 -0.984375 7.6875 2.0625 
Q 3.765625 5.125 1.953125 11.421875 
L 8.296875 13.578125 
Q 9.28125 9.765625 11.8125 7.65625 
Q 14.359375 5.5625 18.453125 5.5625 
Q 22.3125 5.5625 24.578125 7.859375 
Q 26.859375 10.15625 26.859375 14.59375 
Q 26.859375 17.484375 25.734375 19.390625 
Q 24.609375 21.296875 22.78125 22.390625 
Q 20.953125 23.484375 18.546875 23.921875 
Q 16.15625 24.359375 13.578125 24.359375 
L 13.578125 31.0625 
Q 16.109375 31.0625 18.40625 31.421875 
Q 20.703125 31.78125 22.4375 32.703125 
Q 24.171875 33.640625 25.140625 35.28125 
Q 26.125 36.921875 26.125 39.453125 
Q 26.125 43.0625 24.140625 45.15625 
Q 22.171875 47.265625 18.453125 47.265625 
Q 17.046875 47.265625 15.65625 46.921875 
Q 14.265625 46.578125 13.03125 45.765625 
Q 11.8125 44.96875 10.984375 43.625 
Q 10.15625 42.28125 9.859375 40.234375 
L 3.421875 41.21875 
Q 3.90625 44.53125 5.125 46.921875 
Q 6.34375 49.3125 8.296875 50.84375 
Q 10.25 52.390625 12.78125 53.09375 
Q 15.328125 53.8125 18.453125 53.8125 
Q 21.875 53.8125 24.625 52.78125 
Q 27.390625 51.765625 29.34375 49.90625 
Q 31.296875 48.046875 32.375 45.5 
Q 33.453125 42.96875 33.453125 39.890625 
Q 33.453125 37.109375 32.5625 34.953125 
Q 31.6875 32.8125 30.25 31.3125 
Q 28.8125 29.828125 27.046875 28.953125 
Q 25.296875 28.078125 23.53125 27.875 
L 23.53125 27.78125 
Q 25.78125 27.484375 27.75 26.484375 
Q 29.734375 25.484375 31.25 23.84375 
Q 32.765625 22.21875 33.609375 19.9375 
Q 34.46875 17.671875 34.46875 14.84375 
Q 34.46875 11.46875 33.484375 8.5625 
Q 32.515625 5.671875 30.484375 3.546875 
Q 28.46875 1.421875 25.4375 0.21875 
Q 22.40625 -0.984375 18.3125 -0.984375 
z
" id="LiberationSansNarrow-1079"/>
       <path d="M 1.421875 52.828125 
L 36.140625 52.828125 
L 36.140625 46.4375 
L 22.359375 46.4375 
L 22.359375 0 
L 15.1875 0 
L 15.1875 46.4375 
L 1.421875 46.4375 
z
" id="LiberationSansNarrow-1090"/>
       <path d="M 10.6875 24.5625 
Q 10.6875 20.40625 11.5625 16.90625 
Q 12.453125 13.421875 13.90625 10.90625 
Q 15.375 8.40625 17.640625 7 
Q 19.921875 5.609375 23.140625 5.609375 
Q 27.828125 5.609375 30.65625 7.90625 
Q 33.5 10.203125 34.46875 13.71875 
L 40.828125 11.53125 
Q 40.140625 9.328125 38.921875 7.109375 
Q 37.703125 4.890625 35.640625 3.09375 
Q 33.59375 1.3125 30.53125 0.15625 
Q 27.484375 -0.984375 23.140625 -0.984375 
Q 13.53125 -0.984375 8.5 6 
Q 3.46875 12.984375 3.46875 26.765625 
Q 3.46875 34.1875 5 39.328125 
Q 6.546875 44.484375 9.171875 47.703125 
Q 11.8125 50.921875 15.328125 52.359375 
Q 18.84375 53.8125 22.859375 53.8125 
Q 28.328125 53.8125 31.984375 51.65625 
Q 39.0625 47.515625 41.015625 36.8125 
Q 41.9375 31.6875 41.9375 25.734375 
L 41.9375 24.5625 
z
M 34.71875 31.296875 
Q 34.71875 40.140625 31.421875 43.71875 
Q 28.125 47.3125 22.75 47.3125 
Q 18.953125 47.3125 15.328125 44.09375 
Q 10.9375 40.328125 10.6875 31.296875 
z
" id="LiberationSansNarrow-1077"/>
      </defs>
      <use xlink:href="#LiberationSansNarrow-1074"/>
      <use x="43.554688" xlink:href="#LiberationSansNarrow-1082"/>
      <use x="80.519531" xlink:href="#LiberationSansNarrow-1083"/>
      <use x="128.322266" xlink:href="#LiberationSansNarrow-1072"/>
      <use x="173.927734" xlink:href="#LiberationSansNarrow-1076"/>
      <use x="221.730469" xlink:href="#LiberationSansNarrow-32"/>
      <use x="244.533203" xlink:href="#LiberationSansNarrow-1074"/>
      <use x="288.087891" xlink:href="#LiberationSansNarrow-32"/>
      <use x="310.890625" xlink:href="#LiberationSansNarrow-1088"/>
      <use x="355.371094" xlink:href="#LiberationSansNarrow-1091"/>
      <use x="397.511719" xlink:href="#LiberationSansNarrow-1073"/>
      <use x="439.984375" xlink:href="#LiberationSansNarrow-1083"/>
      <use x="487.787109" xlink:href="#LiberationSansNarrow-1103"/>
      <use x="532.220703" xlink:href="#LiberationSansNarrow-1093"/>
      <use x="573.236328" xlink:href="#LiberationSansNarrow-32"/>
      <use x="596.039062" xlink:href="#LiberationSansNarrow-1087"/>
      <use x="640.472656" xlink:href="#LiberationSansNarrow-1086"/>
      <use x="686.078125" xlink:href="#LiberationSansNarrow-32"/>
      <use x="708.880859" xlink:href="#LiberationSansNarrow-1089"/>
      <use x="749.896484" xlink:href="#LiberationSansNarrow-1088"/>
      <use x="795.501953" xlink:href="#LiberationSansNarrow-46"/>
      <use x="818.304688" xlink:href="#LiberationSansNarrow-45"/>
      <use x="845.599609" xlink:href="#LiberationSansNarrow-1074"/>
      <use x="888.029297" xlink:href="#LiberationSansNarrow-1079"/>
      <use x="925.578125" xlink:href="#LiberationSansNarrow-1074"/>
      <use x="969.132812" xlink:href="#LiberationSansNarrow-46"/>
      <use x="991.935547" xlink:href="#LiberationSansNarrow-32"/>
      <use x="1014.738281" xlink:href="#LiberationSansNarrow-1089"/>
      <use x="1055.753906" xlink:href="#LiberationSansNarrow-1090"/>
      <use x="1092.177734" xlink:href="#LiberationSansNarrow-1072"/>
      <use x="1137.783203" xlink:href="#LiberationSansNarrow-1074"/>
      <use x="1181.337891" xlink:href="#LiberationSansNarrow-1082"/>
      <use x="1218.302734" xlink:href="#LiberationSansNarrow-1077"/>
     </g>
    </g>
    <g id="line2d_18">
     <path d="M 50.65 231.795 
L 78.65 231.795 
" style="fill:none;stroke:#2ca02c;stroke-linecap:square;stroke-width:1.5;"/>
    </g>
    <g id="line2d_19"/>
    <g id="text_15">
     <!-- вклад в долларах -->
     <g transform="translate(89.85 236.695)scale(0.14 -0.14)">
      <use xlink:href="#LiberationSansNarrow-1074"/>
      <use x="43.554688" xlink:href="#LiberationSansNarrow-1082"/>
      <use x="80.519531" xlink:href="#LiberationSansNarrow-1083"/>
      <use x="128.322266" xlink:href="#LiberationSansNarrow-1072"/>
      <use x="173.927734" xlink:href="#LiberationSansNarrow-1076"/>
      <use x="221.730469" xlink:href="#LiberationSansNarrow-32"/>
      <use x="244.533203" xlink:href="#LiberationSansNarrow-1074"/>
      <use x="288.087891" xlink:href="#LiberationSansNarrow-32"/>
      <use x="310.890625" xlink:href="#LiberationSansNarrow-1076"/>
      <use x="358.693359" xlink:href="#LiberationSansNarrow-1086"/>
      <use x="402.048828" xlink:href="#LiberationSansNarrow-1083"/>
      <use x="449.851562" xlink:href="#LiberationSansNarrow-1083"/>
      <use x="497.654297" xlink:href="#LiberationSansNarrow-1072"/>
      <use x="543.259766" xlink:href="#LiberationSansNarrow-1088"/>
      <use x="588.865234" xlink:href="#LiberationSansNarrow-1072"/>
      <use x="634.470703" xlink:href="#LiberationSansNarrow-1093"/>
     </g>
    </g>
   </g>
  </g>
 </g>
 <defs>
  <clipPath id="p51e7a24ab2">
   <rect height="236.838241" width="522.83" x="38.05" y="15.361759"/>
  </clipPath>
 </defs>
</svg>
