<?xml version="1.0" encoding="utf-8" standalone="no"?>
<!DOCTYPE svg PUBLIC "-//W3C//DTD SVG 1.1//EN"
  "http://www.w3.org/Graphics/SVG/1.1/DTD/svg11.dtd">
<!-- Created with matplotlib (https://matplotlib.org/) -->
<svg height="288pt" version="1.1" viewBox="0 0 576 288" width="576pt" xmlns="http://www.w3.org/2000/svg" xmlns:xlink="http://www.w3.org/1999/xlink">
 <metadata>
  <rdf:RDF xmlns:cc="http://creativecommons.org/ns#" xmlns:dc="http://purl.org/dc/elements/1.1/" xmlns:rdf="http://www.w3.org/1999/02/22-rdf-syntax-ns#">
   <cc:Work>
    <dc:type rdf:resource="http://purl.org/dc/dcmitype/StillImage"/>
    <dc:date>2022-01-27T11:53:59.681512</dc:date>
    <dc:format>image/svg+xml</dc:format>
    <dc:creator>
     <cc:Agent>
      <dc:title>Matplotlib v3.3.4, https://matplotlib.org/</dc:title>
     </cc:Agent>
    </dc:creator>
   </cc:Work>
  </rdf:RDF>
 </metadata>
 <defs>
  <style type="text/css">*{stroke-linecap:butt;stroke-linejoin:round;}</style>
 </defs>
 <g id="figure_1">
  <g id="patch_1">
   <path d="M 0 288 
L 576 288 
L 576 0 
L 0 0 
z
" style="fill:#ffffff;"/>
  </g>
  <g id="axes_1">
   <g id="patch_2">
    <path d="M 38.05 252.2 
L 560.88 252.2 
L 560.88 15.12 
L 38.05 15.12 
z
" style="fill:#ffffff;"/>
   </g>
   <g id="matplotlib.axis_1">
    <g id="xtick_1">
     <g id="line2d_1">
      <path clip-path="url(#pead22ec1d1)" d="M 74.775796 252.2 
L 74.775796 15.12 
" style="fill:none;stroke:#b0b0b0;stroke-dasharray:1.48,0.64;stroke-dashoffset:0;stroke-width:0.4;"/>
     </g>
     <g id="text_1">
      <!-- 2010 -->
      <g transform="translate(62.005171 269.345625)scale(0.14 -0.14)">
       <defs>
        <path d="M 4.109375 0 
L 4.109375 6.203125 
Q 6.15625 11.921875 9.109375 16.28125 
Q 12.0625 20.65625 15.3125 24.1875 
Q 18.5625 27.734375 21.734375 30.765625 
Q 24.90625 33.796875 27.46875 36.8125 
Q 30.03125 39.84375 31.609375 43.15625 
Q 33.203125 46.484375 33.203125 50.6875 
Q 33.203125 53.609375 32.46875 55.828125 
Q 31.734375 58.0625 30.390625 59.5625 
Q 29.046875 61.078125 27.140625 61.828125 
Q 25.25 62.59375 22.90625 62.59375 
Q 20.75 62.59375 18.84375 61.859375 
Q 16.9375 61.140625 15.453125 59.671875 
Q 13.96875 58.203125 13.03125 56.03125 
Q 12.109375 53.859375 11.8125 50.984375 
L 4.4375 51.8125 
Q 4.78125 55.515625 6.125 58.78125 
Q 7.46875 62.0625 9.78125 64.53125 
Q 12.109375 67 15.359375 68.40625 
Q 18.609375 69.828125 22.90625 69.828125 
Q 27.09375 69.828125 30.390625 68.609375 
Q 33.6875 67.390625 35.9375 64.984375 
Q 38.1875 62.59375 39.40625 59.078125 
Q 40.625 55.5625 40.625 50.984375 
Q 40.625 47.515625 39.59375 44.390625 
Q 38.578125 41.265625 36.859375 38.421875 
Q 35.15625 35.59375 32.90625 32.953125 
Q 30.671875 30.328125 28.21875 27.828125 
L 23.296875 22.859375 
Q 20.796875 20.359375 18.625 17.859375 
Q 16.453125 15.375 14.734375 12.8125 
Q 13.03125 10.25 12.0625 7.46875 
L 41.5 7.46875 
L 41.5 0 
z
" id="LiberationSansNarrow-50"/>
        <path d="M 42.390625 34.421875 
Q 42.390625 24.515625 40.84375 17.75 
Q 39.3125 10.984375 36.640625 6.8125 
Q 33.984375 2.640625 30.390625 0.828125 
Q 26.8125 -0.984375 22.703125 -0.984375 
Q 18.609375 -0.984375 15.03125 0.828125 
Q 11.46875 2.640625 8.828125 6.78125 
Q 6.203125 10.9375 4.703125 17.703125 
Q 3.21875 24.46875 3.21875 34.421875 
Q 3.21875 44.828125 4.703125 51.640625 
Q 6.203125 58.453125 8.828125 62.5 
Q 11.46875 66.546875 15.078125 68.1875 
Q 18.703125 69.828125 22.953125 69.828125 
Q 27 69.828125 30.53125 68.1875 
Q 34.078125 66.546875 36.71875 62.5 
Q 39.359375 58.453125 40.875 51.640625 
Q 42.390625 44.828125 42.390625 34.421875 
z
M 35.0625 34.421875 
Q 35.0625 42.625 34.28125 48.0625 
Q 33.5 53.515625 31.9375 56.765625 
Q 30.375 60.015625 28.09375 61.359375 
Q 25.828125 62.703125 22.953125 62.703125 
Q 19.921875 62.703125 17.578125 61.328125 
Q 15.234375 59.96875 13.671875 56.71875 
Q 12.109375 53.46875 11.296875 48.015625 
Q 10.5 42.578125 10.5 34.421875 
Q 10.5 26.515625 11.296875 21.09375 
Q 12.109375 15.671875 13.6875 12.375 
Q 15.28125 9.078125 17.578125 7.640625 
Q 19.875 6.203125 22.796875 6.203125 
Q 25.640625 6.203125 27.90625 7.640625 
Q 30.171875 9.078125 31.75 12.375 
Q 33.34375 15.671875 34.203125 21.09375 
Q 35.0625 26.515625 35.0625 34.421875 
z
" id="LiberationSansNarrow-48"/>
        <path d="M 6.25 0 
L 6.25 7.46875 
L 20.609375 7.46875 
L 20.609375 60.40625 
L 7.90625 49.3125 
L 7.90625 57.625 
L 21.234375 68.796875 
L 27.875 68.796875 
L 27.875 7.46875 
L 41.609375 7.46875 
L 41.609375 0 
z
" id="LiberationSansNarrow-49"/>
       </defs>
       <use xlink:href="#LiberationSansNarrow-50"/>
       <use x="45.605469" xlink:href="#LiberationSansNarrow-48"/>
       <use x="91.210938" xlink:href="#LiberationSansNarrow-49"/>
       <use x="136.816406" xlink:href="#LiberationSansNarrow-48"/>
      </g>
     </g>
    </g>
    <g id="xtick_2">
     <g id="line2d_2">
      <path clip-path="url(#pead22ec1d1)" d="M 152.328098 252.2 
L 152.328098 15.12 
" style="fill:none;stroke:#b0b0b0;stroke-dasharray:1.48,0.64;stroke-dashoffset:0;stroke-width:0.4;"/>
     </g>
     <g id="text_2">
      <!-- 2012 -->
      <g transform="translate(139.557473 269.345625)scale(0.14 -0.14)">
       <use xlink:href="#LiberationSansNarrow-50"/>
       <use x="45.605469" xlink:href="#LiberationSansNarrow-48"/>
       <use x="91.210938" xlink:href="#LiberationSansNarrow-49"/>
       <use x="136.816406" xlink:href="#LiberationSansNarrow-50"/>
      </g>
     </g>
    </g>
    <g id="xtick_3">
     <g id="line2d_3">
      <path clip-path="url(#pead22ec1d1)" d="M 229.986636 252.2 
L 229.986636 15.12 
" style="fill:none;stroke:#b0b0b0;stroke-dasharray:1.48,0.64;stroke-dashoffset:0;stroke-width:0.4;"/>
     </g>
     <g id="text_3">
      <!-- 2014 -->
      <g transform="translate(217.216011 269.345625)scale(0.14 -0.14)">
       <defs>
        <path d="M 35.25 15.578125 
L 35.25 0 
L 28.46875 0 
L 28.46875 15.578125 
L 1.90625 15.578125 
L 1.90625 22.40625 
L 27.6875 68.796875 
L 35.25 68.796875 
L 35.25 22.515625 
L 43.21875 22.515625 
L 43.21875 15.578125 
z
M 28.46875 58.890625 
Q 28.375 58.640625 28.03125 57.90625 
L 27.34375 56.34375 
L 26.5625 54.59375 
Q 26.125 53.65625 25.78125 53.078125 
L 11.328125 27.09375 
Q 11.140625 26.703125 10.75 26.078125 
L 9.96875 24.8125 
L 9.1875 23.484375 
Q 8.796875 22.859375 8.546875 22.515625 
L 28.46875 22.515625 
z
" id="LiberationSansNarrow-52"/>
       </defs>
       <use xlink:href="#LiberationSansNarrow-50"/>
       <use x="45.605469" xlink:href="#LiberationSansNarrow-48"/>
       <use x="91.210938" xlink:href="#LiberationSansNarrow-49"/>
       <use x="136.816406" xlink:href="#LiberationSansNarrow-52"/>
      </g>
     </g>
    </g>
    <g id="xtick_4">
     <g id="line2d_4">
      <path clip-path="url(#pead22ec1d1)" d="M 307.538938 252.2 
L 307.538938 15.12 
" style="fill:none;stroke:#b0b0b0;stroke-dasharray:1.48,0.64;stroke-dashoffset:0;stroke-width:0.4;"/>
     </g>
     <g id="text_4">
      <!-- 2016 -->
      <g transform="translate(294.768313 269.345625)scale(0.14 -0.14)">
       <defs>
        <path d="M 42 22.515625 
Q 42 17.328125 40.828125 13 
Q 39.65625 8.6875 37.359375 5.578125 
Q 35.0625 2.484375 31.640625 0.75 
Q 28.21875 -0.984375 23.78125 -0.984375 
Q 18.84375 -0.984375 15.15625 1.3125 
Q 11.46875 3.609375 9.03125 7.921875 
Q 6.59375 12.25 5.375 18.53125 
Q 4.15625 24.8125 4.15625 32.8125 
Q 4.15625 42 5.546875 48.921875 
Q 6.9375 55.859375 9.515625 60.5 
Q 12.109375 65.140625 15.859375 67.484375 
Q 19.625 69.828125 24.359375 69.828125 
Q 27.25 69.828125 29.765625 69.09375 
Q 32.28125 68.359375 34.328125 66.71875 
Q 36.375 65.09375 37.9375 62.40625 
Q 39.5 59.71875 40.4375 55.8125 
L 33.546875 54.296875 
Q 32.421875 58.734375 29.953125 60.71875 
Q 27.484375 62.703125 24.265625 62.703125 
Q 21.296875 62.703125 18.890625 60.984375 
Q 16.5 59.28125 14.8125 55.875 
Q 13.140625 52.484375 12.234375 47.359375 
Q 11.328125 42.234375 11.328125 35.40625 
Q 13.28125 39.84375 16.84375 42.15625 
Q 20.40625 44.484375 25.046875 44.484375 
Q 28.90625 44.484375 32 42.96875 
Q 35.109375 41.453125 37.328125 38.59375 
Q 39.546875 35.75 40.765625 31.671875 
Q 42 27.59375 42 22.515625 
z
M 34.671875 22.125 
Q 34.671875 25.6875 33.953125 28.5625 
Q 33.25 31.453125 31.8125 33.46875 
Q 30.375 35.5 28.25 36.59375 
Q 26.125 37.703125 23.296875 37.703125 
Q 21.34375 37.703125 19.328125 36.984375 
Q 17.328125 36.28125 15.71875 34.6875 
Q 14.109375 33.109375 13.078125 30.515625 
Q 12.0625 27.9375 12.0625 24.21875 
Q 12.0625 20.40625 12.859375 17.109375 
Q 13.671875 13.8125 15.15625 11.375 
Q 16.65625 8.9375 18.78125 7.515625 
Q 20.90625 6.109375 23.53125 6.109375 
Q 26.125 6.109375 28.203125 7.203125 
Q 30.28125 8.296875 31.71875 10.375 
Q 33.15625 12.453125 33.90625 15.421875 
Q 34.671875 18.40625 34.671875 22.125 
z
" id="LiberationSansNarrow-54"/>
       </defs>
       <use xlink:href="#LiberationSansNarrow-50"/>
       <use x="45.605469" xlink:href="#LiberationSansNarrow-48"/>
       <use x="91.210938" xlink:href="#LiberationSansNarrow-49"/>
       <use x="136.816406" xlink:href="#LiberationSansNarrow-54"/>
      </g>
     </g>
    </g>
    <g id="xtick_5">
     <g id="line2d_5">
      <path clip-path="url(#pead22ec1d1)" d="M 385.197477 252.2 
L 385.197477 15.12 
" style="fill:none;stroke:#b0b0b0;stroke-dasharray:1.48,0.64;stroke-dashoffset:0;stroke-width:0.4;"/>
     </g>
     <g id="text_5">
      <!-- 2018 -->
      <g transform="translate(372.426852 269.345625)scale(0.14 -0.14)">
       <defs>
        <path d="M 42.046875 19.1875 
Q 42.046875 14.796875 40.890625 11.109375 
Q 39.75 7.421875 37.40625 4.734375 
Q 35.0625 2.046875 31.421875 0.53125 
Q 27.78125 -0.984375 22.796875 -0.984375 
Q 17.828125 -0.984375 14.203125 0.53125 
Q 10.59375 2.046875 8.21875 4.703125 
Q 5.859375 7.375 4.703125 11.0625 
Q 3.5625 14.75 3.5625 19.09375 
Q 3.5625 22.859375 4.515625 25.78125 
Q 5.46875 28.71875 7.03125 30.828125 
Q 8.59375 32.953125 10.609375 34.25 
Q 12.640625 35.546875 14.796875 35.984375 
L 14.796875 36.1875 
Q 12.453125 36.859375 10.59375 38.375 
Q 8.734375 39.890625 7.46875 42.015625 
Q 6.203125 44.140625 5.546875 46.71875 
Q 4.890625 49.3125 4.890625 52.203125 
Q 4.890625 55.8125 6.03125 59 
Q 7.171875 62.203125 9.421875 64.625 
Q 11.671875 67.046875 14.984375 68.4375 
Q 18.3125 69.828125 22.65625 69.828125 
Q 27.25 69.828125 30.640625 68.40625 
Q 34.03125 67 36.25 64.578125 
Q 38.484375 62.15625 39.546875 58.9375 
Q 40.625 55.71875 40.625 52.09375 
Q 40.625 49.265625 39.96875 46.671875 
Q 39.3125 44.09375 38.0625 41.96875 
Q 36.8125 39.84375 34.9375 38.34375 
Q 33.0625 36.859375 30.609375 36.28125 
L 30.609375 36.078125 
Q 33.0625 35.59375 35.15625 34.296875 
Q 37.25 33.015625 38.765625 30.890625 
Q 40.28125 28.765625 41.15625 25.828125 
Q 42.046875 22.90625 42.046875 19.1875 
z
M 33.15625 51.609375 
Q 33.15625 54.203125 32.609375 56.34375 
Q 32.078125 58.5 30.828125 60.03125 
Q 29.59375 61.578125 27.59375 62.421875 
Q 25.59375 63.28125 22.65625 63.28125 
Q 19.828125 63.28125 17.875 62.421875 
Q 15.921875 61.578125 14.640625 60.03125 
Q 13.375 58.5 12.8125 56.34375 
Q 12.25 54.203125 12.25 51.609375 
Q 12.25 49.5625 12.6875 47.40625 
Q 13.140625 45.265625 14.3125 43.5 
Q 15.484375 41.75 17.5 40.625 
Q 19.53125 39.5 22.75 39.5 
Q 26.171875 39.5 28.21875 40.625 
Q 30.28125 41.75 31.375 43.5 
Q 32.46875 45.265625 32.8125 47.40625 
Q 33.15625 49.5625 33.15625 51.609375 
z
M 34.578125 20.015625 
Q 34.578125 22.515625 34.015625 24.828125 
Q 33.453125 27.15625 32.078125 28.9375 
Q 30.71875 30.71875 28.421875 31.8125 
Q 26.125 32.90625 22.65625 32.90625 
Q 19.484375 32.90625 17.265625 31.8125 
Q 15.046875 30.71875 13.671875 28.90625 
Q 12.3125 27.09375 11.671875 24.71875 
Q 11.03125 22.359375 11.03125 19.828125 
Q 11.03125 16.65625 11.671875 14.03125 
Q 12.3125 11.421875 13.703125 9.546875 
Q 15.09375 7.671875 17.375 6.640625 
Q 19.671875 5.609375 22.90625 5.609375 
Q 26.171875 5.609375 28.421875 6.640625 
Q 30.671875 7.671875 32.03125 9.546875 
Q 33.40625 11.421875 33.984375 14.078125 
Q 34.578125 16.75 34.578125 20.015625 
z
" id="LiberationSansNarrow-56"/>
       </defs>
       <use xlink:href="#LiberationSansNarrow-50"/>
       <use x="45.605469" xlink:href="#LiberationSansNarrow-48"/>
       <use x="91.210938" xlink:href="#LiberationSansNarrow-49"/>
       <use x="136.816406" xlink:href="#LiberationSansNarrow-56"/>
      </g>
     </g>
    </g>
    <g id="xtick_6">
     <g id="line2d_6">
      <path clip-path="url(#pead22ec1d1)" d="M 462.749779 252.2 
L 462.749779 15.12 
" style="fill:none;stroke:#b0b0b0;stroke-dasharray:1.48,0.64;stroke-dashoffset:0;stroke-width:0.4;"/>
     </g>
     <g id="text_6">
      <!-- 2020 -->
      <g transform="translate(449.979154 269.345625)scale(0.14 -0.14)">
       <use xlink:href="#LiberationSansNarrow-50"/>
       <use x="45.605469" xlink:href="#LiberationSansNarrow-48"/>
       <use x="91.210938" xlink:href="#LiberationSansNarrow-50"/>
       <use x="136.816406" xlink:href="#LiberationSansNarrow-48"/>
      </g>
     </g>
    </g>
    <g id="xtick_7">
     <g id="line2d_7">
      <path clip-path="url(#pead22ec1d1)" d="M 540.408317 252.2 
L 540.408317 15.12 
" style="fill:none;stroke:#b0b0b0;stroke-dasharray:1.48,0.64;stroke-dashoffset:0;stroke-width:0.4;"/>
     </g>
     <g id="text_7">
      <!-- 2022 -->
      <g transform="translate(527.637692 269.345625)scale(0.14 -0.14)">
       <use xlink:href="#LiberationSansNarrow-50"/>
       <use x="45.605469" xlink:href="#LiberationSansNarrow-48"/>
       <use x="91.210938" xlink:href="#LiberationSansNarrow-50"/>
       <use x="136.816406" xlink:href="#LiberationSansNarrow-50"/>
      </g>
     </g>
    </g>
   </g>
   <g id="matplotlib.axis_2">
    <g id="ytick_1">
     <g id="line2d_8">
      <path clip-path="url(#pead22ec1d1)" d="M 38.05 252.2 
L 560.88 252.2 
" style="fill:none;stroke:#b0b0b0;stroke-dasharray:1.48,0.64;stroke-dashoffset:0;stroke-width:0.4;"/>
     </g>
     <g id="text_8">
      <!-- 0.00 -->
      <g transform="translate(8.7025 257.272812)scale(0.14 -0.14)">
       <defs>
        <path d="M 7.46875 0 
L 7.46875 10.6875 
L 15.328125 10.6875 
L 15.328125 0 
z
" id="LiberationSansNarrow-46"/>
       </defs>
       <use xlink:href="#LiberationSansNarrow-48"/>
       <use x="45.605469" xlink:href="#LiberationSansNarrow-46"/>
       <use x="68.408203" xlink:href="#LiberationSansNarrow-48"/>
       <use x="114.013672" xlink:href="#LiberationSansNarrow-48"/>
      </g>
     </g>
    </g>
    <g id="ytick_2">
     <g id="line2d_9">
      <path clip-path="url(#pead22ec1d1)" d="M 38.05 220.571757 
L 560.88 220.571757 
" style="fill:none;stroke:#b0b0b0;stroke-dasharray:1.48,0.64;stroke-dashoffset:0;stroke-width:0.4;"/>
     </g>
     <g id="text_9">
      <!-- 0.25 -->
      <g transform="translate(8.7025 225.644569)scale(0.14 -0.14)">
       <defs>
        <path d="M 42.140625 22.40625 
Q 42.140625 17.234375 40.859375 12.9375 
Q 39.59375 8.640625 37.078125 5.53125 
Q 34.578125 2.4375 30.8125 0.71875 
Q 27.046875 -0.984375 22.125 -0.984375 
Q 17.671875 -0.984375 14.375 0.28125 
Q 11.078125 1.5625 8.8125 3.78125 
Q 6.546875 6 5.203125 8.984375 
Q 3.859375 11.96875 3.265625 15.375 
L 10.546875 16.40625 
Q 10.984375 14.453125 11.78125 12.625 
Q 12.59375 10.796875 13.984375 9.34375 
Q 15.375 7.90625 17.40625 7.046875 
Q 19.4375 6.203125 22.3125 6.203125 
Q 25.09375 6.203125 27.390625 7.25 
Q 29.6875 8.296875 31.296875 10.34375 
Q 32.90625 12.40625 33.78125 15.375 
Q 34.671875 18.359375 34.671875 22.21875 
Q 34.671875 25.390625 33.84375 28.046875 
Q 33.015625 30.71875 31.453125 32.640625 
Q 29.890625 34.578125 27.609375 35.640625 
Q 25.34375 36.71875 22.46875 36.71875 
Q 20.65625 36.71875 19.140625 36.328125 
Q 17.625 35.9375 16.328125 35.25 
Q 15.046875 34.578125 13.96875 33.671875 
Q 12.890625 32.765625 11.96875 31.78125 
L 4.9375 31.78125 
L 6.78125 68.796875 
L 38.875 68.796875 
L 38.875 61.328125 
L 13.375 61.328125 
L 12.3125 39.5 
Q 14.203125 41.3125 17.078125 42.59375 
Q 19.96875 43.890625 23.921875 43.890625 
Q 28.125 43.890625 31.484375 42.328125 
Q 34.859375 40.765625 37.21875 37.90625 
Q 39.59375 35.0625 40.859375 31.109375 
Q 42.140625 27.15625 42.140625 22.40625 
z
" id="LiberationSansNarrow-53"/>
       </defs>
       <use xlink:href="#LiberationSansNarrow-48"/>
       <use x="45.605469" xlink:href="#LiberationSansNarrow-46"/>
       <use x="68.408203" xlink:href="#LiberationSansNarrow-50"/>
       <use x="114.013672" xlink:href="#LiberationSansNarrow-53"/>
      </g>
     </g>
    </g>
    <g id="ytick_3">
     <g id="line2d_10">
      <path clip-path="url(#pead22ec1d1)" d="M 38.05 188.943513 
L 560.88 188.943513 
" style="fill:none;stroke:#b0b0b0;stroke-dasharray:1.48,0.64;stroke-dashoffset:0;stroke-width:0.4;"/>
     </g>
     <g id="text_10">
      <!-- 0.50 -->
      <g transform="translate(8.7025 194.016326)scale(0.14 -0.14)">
       <use xlink:href="#LiberationSansNarrow-48"/>
       <use x="45.605469" xlink:href="#LiberationSansNarrow-46"/>
       <use x="68.408203" xlink:href="#LiberationSansNarrow-53"/>
       <use x="114.013672" xlink:href="#LiberationSansNarrow-48"/>
      </g>
     </g>
    </g>
    <g id="ytick_4">
     <g id="line2d_11">
      <path clip-path="url(#pead22ec1d1)" d="M 38.05 157.31527 
L 560.88 157.31527 
" style="fill:none;stroke:#b0b0b0;stroke-dasharray:1.48,0.64;stroke-dashoffset:0;stroke-width:0.4;"/>
     </g>
     <g id="text_11">
      <!-- 0.75 -->
      <g transform="translate(8.7025 162.388082)scale(0.14 -0.14)">
       <defs>
        <path d="M 41.5 61.671875 
Q 37.25 53.765625 33.6875 46.453125 
Q 30.125 39.15625 27.5625 31.75 
Q 25 24.359375 23.5625 16.578125 
Q 22.125 8.796875 22.125 0 
L 14.59375 0 
Q 14.59375 8.25 16.203125 16.1875 
Q 17.828125 24.125 20.53125 31.765625 
Q 23.25 39.40625 26.859375 46.78125 
Q 30.46875 54.15625 34.515625 61.328125 
L 4.203125 61.328125 
L 4.203125 68.796875 
L 41.5 68.796875 
z
" id="LiberationSansNarrow-55"/>
       </defs>
       <use xlink:href="#LiberationSansNarrow-48"/>
       <use x="45.605469" xlink:href="#LiberationSansNarrow-46"/>
       <use x="68.408203" xlink:href="#LiberationSansNarrow-55"/>
       <use x="114.013672" xlink:href="#LiberationSansNarrow-53"/>
      </g>
     </g>
    </g>
    <g id="ytick_5">
     <g id="line2d_12">
      <path clip-path="url(#pead22ec1d1)" d="M 38.05 125.687026 
L 560.88 125.687026 
" style="fill:none;stroke:#b0b0b0;stroke-dasharray:1.48,0.64;stroke-dashoffset:0;stroke-width:0.4;"/>
     </g>
     <g id="text_12">
      <!-- 1.00 -->
      <g transform="translate(8.7025 130.759839)scale(0.14 -0.14)">
       <use xlink:href="#LiberationSansNarrow-49"/>
       <use x="45.605469" xlink:href="#LiberationSansNarrow-46"/>
       <use x="68.408203" xlink:href="#LiberationSansNarrow-48"/>
       <use x="114.013672" xlink:href="#LiberationSansNarrow-48"/>
      </g>
     </g>
    </g>
    <g id="ytick_6">
     <g id="line2d_13">
      <path clip-path="url(#pead22ec1d1)" d="M 38.05 94.058783 
L 560.88 94.058783 
" style="fill:none;stroke:#b0b0b0;stroke-dasharray:1.48,0.64;stroke-dashoffset:0;stroke-width:0.4;"/>
     </g>
     <g id="text_13">
      <!-- 1.25 -->
      <g transform="translate(8.7025 99.131595)scale(0.14 -0.14)">
       <use xlink:href="#LiberationSansNarrow-49"/>
       <use x="45.605469" xlink:href="#LiberationSansNarrow-46"/>
       <use x="68.408203" xlink:href="#LiberationSansNarrow-50"/>
       <use x="114.013672" xlink:href="#LiberationSansNarrow-53"/>
      </g>
     </g>
    </g>
    <g id="ytick_7">
     <g id="line2d_14">
      <path clip-path="url(#pead22ec1d1)" d="M 38.05 62.430539 
L 560.88 62.430539 
" style="fill:none;stroke:#b0b0b0;stroke-dasharray:1.48,0.64;stroke-dashoffset:0;stroke-width:0.4;"/>
     </g>
     <g id="text_14">
      <!-- 1.50 -->
      <g transform="translate(8.7025 67.503352)scale(0.14 -0.14)">
       <use xlink:href="#LiberationSansNarrow-49"/>
       <use x="45.605469" xlink:href="#LiberationSansNarrow-46"/>
       <use x="68.408203" xlink:href="#LiberationSansNarrow-53"/>
       <use x="114.013672" xlink:href="#LiberationSansNarrow-48"/>
      </g>
     </g>
    </g>
    <g id="ytick_8">
     <g id="line2d_15">
      <path clip-path="url(#pead22ec1d1)" d="M 38.05 30.802296 
L 560.88 30.802296 
" style="fill:none;stroke:#b0b0b0;stroke-dasharray:1.48,0.64;stroke-dashoffset:0;stroke-width:0.4;"/>
     </g>
     <g id="text_15">
      <!-- 1.75 -->
      <g transform="translate(8.7025 35.875108)scale(0.14 -0.14)">
       <use xlink:href="#LiberationSansNarrow-49"/>
       <use x="45.605469" xlink:href="#LiberationSansNarrow-46"/>
       <use x="68.408203" xlink:href="#LiberationSansNarrow-55"/>
       <use x="114.013672" xlink:href="#LiberationSansNarrow-53"/>
      </g>
     </g>
    </g>
   </g>
   <g id="line2d_16">
    <path clip-path="url(#pead22ec1d1)" d="M 61.815 125.687026 
L 65.002081 124.977418 
L 68.295398 124.461746 
L 71.482479 125.500803 
L 74.775796 125.697146 
L 78.069113 125.647828 
L 81.043722 125.228235 
L 87.524119 124.860181 
L 90.817436 124.640098 
L 94.004517 124.673058 
L 97.297834 125.098073 
L 100.591151 125.157909 
L 103.778232 125.593336 
L 107.071549 126.363843 
L 110.25863 128.679169 
L 113.551947 129.099829 
L 116.845264 129.314911 
L 119.819873 129.284577 
L 123.11319 129.468689 
L 126.30027 129.16478 
L 129.593587 128.495265 
L 132.780668 127.642575 
L 136.073985 126.997806 
L 139.367302 126.88934 
L 149.034781 125.905469 
L 152.328098 125.411428 
L 155.621415 125.331155 
L 158.70226 124.882884 
L 161.995577 124.66823 
L 165.182658 124.916693 
L 168.475975 125.541768 
L 171.663055 124.813601 
L 178.249689 124.329174 
L 181.43677 123.839731 
L 184.730087 123.678941 
L 187.917168 123.930531 
L 191.210485 123.742246 
L 194.503802 123.291994 
L 197.478411 123.075618 
L 200.771728 123.079864 
L 203.958809 122.833428 
L 207.252126 123.102383 
L 210.439207 122.492749 
L 213.732523 121.999413 
L 220.212921 121.882681 
L 223.506238 121.600846 
L 226.693319 121.50874 
L 229.986636 121.62407 
L 236.254562 122.54884 
L 239.547879 122.906287 
L 242.73496 122.905937 
L 246.028277 122.704267 
L 249.215358 122.188202 
L 252.508675 122.167646 
L 255.801992 122.35525 
L 258.989072 123.089217 
L 262.282389 125.425449 
L 265.46947 128.71093 
L 268.762787 129.976391 
L 272.056104 130.124699 
L 278.32403 128.639471 
L 281.511111 127.714138 
L 284.804428 127.559786 
L 287.991509 126.960693 
L 291.284826 126.647765 
L 301.05854 126.535834 
L 304.245621 126.727872 
L 307.538938 126.565671 
L 317.206417 125.431458 
L 320.393498 124.981317 
L 323.686815 124.76406 
L 326.873896 123.929156 
L 330.167213 123.278579 
L 339.940928 122.382989 
L 343.128008 122.339219 
L 346.421325 121.818352 
L 349.714642 121.178347 
L 355.982568 120.461049 
L 359.169649 120.464811 
L 362.462966 119.795301 
L 365.650047 118.324265 
L 368.943364 117.328041 
L 375.423762 116.324891 
L 378.717079 116.109264 
L 381.90416 115.775603 
L 385.197477 115.29934 
L 391.465402 114.746002 
L 394.758719 114.576562 
L 397.9458 114.541071 
L 401.239117 114.247388 
L 404.426198 113.607201 
L 407.719515 113.156003 
L 411.012832 112.970646 
L 414.199913 112.96971 
L 417.49323 113.406315 
L 420.680311 114.062764 
L 423.973628 113.974723 
L 433.53487 113.067323 
L 436.721951 112.405162 
L 440.015268 111.951364 
L 443.202349 110.910094 
L 446.495666 109.971038 
L 449.788983 109.448486 
L 452.976064 109.157596 
L 462.749779 108.810148 
L 466.043096 108.99826 
L 469.123941 109.59765 
L 478.897655 109.105442 
L 485.378053 108.009982 
L 488.67137 108.142747 
L 491.858451 108.684806 
L 495.151768 109.390071 
L 498.338849 109.866384 
L 501.632166 110.482526 
L 514.380489 112.371883 
L 517.673806 112.331722 
L 520.860887 112.050455 
L 524.154204 112.290619 
L 527.447521 113.195754 
L 537.115 114.049797 
L 537.115 114.049797 
" style="fill:none;stroke:#1f77b4;stroke-linecap:square;stroke-width:1.5;"/>
   </g>
   <g id="line2d_17">
    <path clip-path="url(#pead22ec1d1)" d="M 61.815 125.687026 
L 65.002081 124.62432 
L 68.295398 123.735066 
L 71.482479 124.409606 
L 74.775796 124.232586 
L 78.069113 123.809941 
L 81.043722 123.090458 
L 87.524119 122.145649 
L 90.817436 121.63353 
L 94.004517 121.389349 
L 97.297834 121.532062 
L 100.591151 121.295144 
L 103.778232 121.438373 
L 107.071549 121.952547 
L 110.25863 124.064476 
L 113.551947 124.264786 
L 116.845264 124.232872 
L 123.11319 123.756093 
L 126.30027 123.219237 
L 129.593587 122.368238 
L 132.780668 121.254401 
L 136.073985 120.374257 
L 142.554383 119.87151 
L 149.034781 119.308901 
L 152.328098 118.824712 
L 155.621415 118.590471 
L 158.70226 118.013283 
L 161.995577 117.697069 
L 165.182658 117.858705 
L 168.475975 118.459842 
L 171.663055 117.604817 
L 174.956372 117.267308 
L 178.249689 116.774381 
L 181.43677 116.11851 
L 184.730087 115.833329 
L 187.917168 116.113527 
L 191.210485 115.860564 
L 194.503802 115.278193 
L 197.478411 114.908057 
L 200.771728 114.7409 
L 203.958809 114.262178 
L 207.252126 114.335071 
L 213.732523 112.828137 
L 226.693319 112.066787 
L 229.986636 112.109322 
L 236.254562 112.933707 
L 239.547879 113.258114 
L 242.73496 113.186141 
L 246.028277 112.918143 
L 249.215358 112.290131 
L 252.508675 112.186698 
L 255.801992 112.312141 
L 258.989072 113.043002 
L 262.282389 115.508849 
L 265.46947 119.484355 
L 268.762787 121.043141 
L 272.056104 121.127232 
L 278.32403 119.428096 
L 281.511111 118.348543 
L 284.804428 118.160866 
L 287.991509 117.442814 
L 291.284826 117.05642 
L 301.05854 116.77445 
L 304.245621 117.008264 
L 307.538938 116.810356 
L 317.206417 115.45323 
L 320.393498 114.901029 
L 323.686815 114.580983 
L 326.873896 113.607764 
L 330.167213 112.859333 
L 339.940928 111.7322 
L 343.128008 111.629928 
L 346.421325 111.02042 
L 349.714642 110.281384 
L 355.982568 109.454848 
L 359.169649 109.423247 
L 362.462966 108.671879 
L 365.650047 107.061121 
L 368.943364 105.966056 
L 375.423762 104.849839 
L 378.717079 104.6103 
L 381.90416 104.207746 
L 385.197477 103.657718 
L 388.490793 103.239408 
L 394.758719 102.76063 
L 397.9458 102.72525 
L 401.239117 102.384982 
L 404.426198 101.65831 
L 407.719515 101.129525 
L 411.012832 100.877204 
L 414.199913 100.823621 
L 417.49323 101.236245 
L 420.680311 101.872507 
L 423.973628 101.677165 
L 433.53487 100.390178 
L 436.721951 99.558993 
L 440.015268 98.953372 
L 443.202349 97.713165 
L 446.495666 96.586699 
L 449.788983 95.930113 
L 452.976064 95.526716 
L 462.749779 94.902252 
L 466.043096 95.016118 
L 469.123941 95.62452 
L 472.417257 95.418461 
L 475.604338 95.087012 
L 478.897655 94.960008 
L 485.378053 93.600611 
L 488.67137 93.685673 
L 491.858451 94.231857 
L 495.151768 94.972911 
L 498.338849 95.466858 
L 501.632166 96.113738 
L 514.380489 97.975624 
L 517.673806 97.86166 
L 520.860887 97.490534 
L 524.154204 97.721132 
L 527.447521 98.655971 
L 533.927919 99.118141 
L 537.115 99.26691 
L 537.115 99.26691 
" style="fill:none;stroke:#ff7f0e;stroke-linecap:square;stroke-width:1.5;"/>
   </g>
   <g id="line2d_18">
    <path clip-path="url(#pead22ec1d1)" d="M 61.815 125.687026 
L 65.002081 129.861206 
L 68.295398 126.56036 
L 71.482479 126.201302 
L 74.775796 126.032143 
L 78.069113 128.334541 
L 81.043722 130.684133 
L 84.337038 131.127078 
L 87.524119 126.150896 
L 90.817436 123.228957 
L 94.004517 127.597997 
L 97.297834 126.190067 
L 100.591151 127.420314 
L 103.778232 126.387193 
L 107.071549 125.114884 
L 110.25863 130.834349 
L 113.551947 134.785318 
L 116.845264 138.168532 
L 119.819873 140.442967 
L 123.11319 144.343859 
L 126.30027 142.176647 
L 129.593587 141.918846 
L 132.780668 142.970561 
L 136.073985 137.990775 
L 139.367302 126.378014 
L 142.554383 134.466636 
L 145.8477 129.125512 
L 149.034781 125.965626 
L 152.328098 133.297456 
L 155.621415 139.120745 
L 158.70226 137.682197 
L 161.995577 137.878765 
L 165.182658 126.667067 
L 168.475975 126.428679 
L 171.663055 128.764032 
L 174.956372 128.75609 
L 178.249689 134.290786 
L 181.43677 132.107422 
L 184.730087 134.20129 
L 187.917168 137.629696 
L 191.210485 139.31706 
L 194.503802 137.26887 
L 197.478411 135.868755 
L 200.771728 135.734921 
L 203.958809 134.677182 
L 207.252126 131.226325 
L 210.439207 130.583326 
L 213.732523 129.314396 
L 217.02584 133.067647 
L 220.212921 134.568077 
L 223.506238 130.859977 
L 226.693319 133.043612 
L 229.986636 124.455255 
L 233.279953 122.494964 
L 236.254562 124.674818 
L 239.547879 125.50174 
L 242.73496 129.428301 
L 246.028277 133.699782 
L 249.215358 126.209571 
L 252.508675 122.368633 
L 255.801992 114.519219 
L 258.989072 102.079592 
L 262.282389 85.529152 
L 265.46947 68.404082 
L 268.762787 30.950959 
L 272.056104 56.995934 
L 275.030713 65.936844 
L 278.32403 87.403528 
L 281.511111 83.042982 
L 284.804428 75.764277 
L 287.991509 64.973245 
L 291.284826 41.934734 
L 294.578143 43.766482 
L 297.765224 50.746756 
L 301.05854 46.09246 
L 304.245621 27.20952 
L 307.538938 21.273517 
L 310.832255 22.246413 
L 313.9131 45.771628 
L 317.206417 56.306572 
L 320.393498 51.455934 
L 323.686815 57.814116 
L 326.873896 49.20878 
L 330.167213 55.826193 
L 333.46053 61.74115 
L 336.647611 63.193822 
L 339.940928 57.686547 
L 343.128008 71.469175 
L 346.421325 73.207956 
L 349.714642 79.907771 
L 352.689251 84.943183 
L 355.982568 83.630474 
L 359.169649 85.855106 
L 362.462966 78.294975 
L 365.650047 75.879613 
L 368.943364 77.836241 
L 372.236681 80.135125 
L 375.423762 80.80002 
L 378.717079 79.997199 
L 381.90416 82.529773 
L 385.197477 86.593749 
L 388.490793 88.746471 
L 391.465402 84.543821 
L 394.758719 71.198618 
L 397.9458 70.073368 
L 404.426198 69.494347 
L 407.719515 54.094333 
L 411.012832 61.658445 
L 414.199913 61.555253 
L 417.49323 60.179648 
L 420.680311 53.513211 
L 423.973628 63.561151 
L 427.266945 64.773045 
L 430.241553 67.905342 
L 433.53487 68.333049 
L 436.721951 67.079798 
L 440.015268 72.80654 
L 443.202349 71.299572 
L 446.495666 61.904211 
L 449.788983 67.892758 
L 452.976064 69.785657 
L 456.269381 69.692101 
L 459.456462 76.447545 
L 462.749779 73.696794 
L 466.043096 63.381418 
L 469.123941 34.740724 
L 472.417257 46.50954 
L 475.604338 54.987433 
L 478.897655 57.812954 
L 482.084736 48.20829 
L 485.378053 44.459501 
L 488.67137 31.27024 
L 491.858451 33.709844 
L 495.151768 44.926411 
L 498.338849 51.634888 
L 501.632166 46.718519 
L 504.925483 52.874139 
L 507.900092 50.608412 
L 511.193409 55.499879 
L 514.380489 58.870408 
L 517.673806 62.603902 
L 520.860887 60.855531 
L 524.154204 60.770747 
L 527.447521 64.857106 
L 530.634602 71.783804 
L 533.927919 61.521603 
L 537.115 64.449626 
L 537.115 64.449626 
" style="fill:none;stroke:#2ca02c;stroke-linecap:square;stroke-width:1.5;"/>
   </g>
   <g id="legend_1">
    <g id="patch_3">
     <path d="M 47.85 86.716875 
L 227.362813 86.716875 
Q 230.162813 86.716875 230.162813 83.916875 
L 230.162813 24.92 
Q 230.162813 22.12 227.362813 22.12 
L 47.85 22.12 
Q 45.05 22.12 45.05 24.92 
L 45.05 83.916875 
Q 45.05 86.716875 47.85 86.716875 
z
" style="fill:#ffffff;opacity:0.8;stroke:#cccccc;stroke-linejoin:miter;"/>
    </g>
    <g id="line2d_19">
     <path d="M 50.65 33.088125 
L 78.65 33.088125 
" style="fill:none;stroke:#1f77b4;stroke-linecap:square;stroke-width:1.5;"/>
    </g>
    <g id="line2d_20"/>
    <g id="text_16">
     <!-- рубль по ср.-взв. ставке -->
     <g transform="translate(89.85 37.988125)scale(0.14 -0.14)">
      <defs>
       <path d="M 42.140625 26.65625 
Q 42.140625 20.65625 41.359375 15.578125 
Q 40.578125 10.5 38.6875 6.828125 
Q 36.8125 3.171875 33.765625 1.09375 
Q 30.71875 -0.984375 26.21875 -0.984375 
Q 21.578125 -0.984375 18.078125 1.171875 
Q 14.59375 3.328125 12.796875 8.203125 
L 12.546875 8.203125 
Q 12.59375 8.109375 12.609375 7.328125 
Q 12.640625 6.546875 12.671875 5.375 
Q 12.703125 4.203125 12.71875 2.75 
Q 12.75 1.3125 12.75 -0.09375 
L 12.75 -20.75 
L 5.515625 -20.75 
L 5.515625 42.046875 
Q 5.515625 43.953125 5.484375 45.703125 
Q 5.46875 47.46875 5.4375 48.90625 
Q 5.421875 50.34375 5.375 51.359375 
Q 5.328125 52.390625 5.28125 52.828125 
L 12.25 52.828125 
Q 12.3125 52.6875 12.359375 51.8125 
L 12.5 49.703125 
Q 12.546875 48.4375 12.59375 47.015625 
Q 12.640625 45.609375 12.640625 44.34375 
L 12.796875 44.34375 
Q 13.765625 46.875 15.0625 48.65625 
Q 16.359375 50.4375 18.015625 51.578125 
Q 19.671875 52.734375 21.671875 53.25 
Q 23.6875 53.765625 26.21875 53.765625 
Q 30.71875 53.765625 33.765625 51.8125 
Q 36.8125 49.859375 38.6875 46.3125 
Q 40.578125 42.78125 41.359375 37.765625 
Q 42.140625 32.765625 42.140625 26.65625 
z
M 34.578125 26.46875 
Q 34.578125 31.34375 34.109375 35.15625 
Q 33.640625 38.96875 32.4375 41.59375 
Q 31.25 44.234375 29.296875 45.59375 
Q 27.34375 46.96875 24.359375 46.96875 
Q 21.96875 46.96875 19.84375 46.140625 
Q 17.71875 45.3125 16.125 42.96875 
Q 14.546875 40.625 13.640625 36.5 
Q 12.75 32.375 12.75 25.78125 
Q 12.75 20.171875 13.5 16.28125 
Q 14.265625 12.40625 15.71875 10.015625 
Q 17.1875 7.625 19.328125 6.5625 
Q 21.484375 5.515625 24.3125 5.515625 
Q 27.34375 5.515625 29.296875 6.921875 
Q 31.25 8.34375 32.4375 11.03125 
Q 33.640625 13.71875 34.109375 17.59375 
Q 34.578125 21.484375 34.578125 26.46875 
z
" id="LiberationSansNarrow-1088"/>
       <path d="M 24.171875 0 
Q 22.65625 -4.78125 21.0625 -8.609375 
Q 19.484375 -12.453125 17.53125 -15.15625 
Q 15.578125 -17.875 13.1875 -19.3125 
Q 10.796875 -20.75 7.671875 -20.75 
Q 6.296875 -20.75 5.125 -20.65625 
Q 3.953125 -20.5625 2.6875 -20.21875 
L 2.6875 -13.625 
Q 3.46875 -13.765625 4.421875 -13.84375 
Q 5.375 -13.921875 6.0625 -13.921875 
Q 9.234375 -13.921875 11.9375 -11.03125 
Q 14.65625 -8.15625 16.703125 -1.859375 
L 17.390625 0.25 
L 0.203125 52.828125 
L 7.90625 52.828125 
L 17.046875 23.640625 
Q 17.046875 23.640625 18.0625 20.125 
L 19.28125 15.71875 
Q 19.921875 13.53125 20.375 11.765625 
Q 20.84375 10.015625 20.953125 9.578125 
Q 21.046875 10.109375 21.484375 11.71875 
L 22.5625 15.234375 
L 23.734375 19.1875 
Q 24.359375 21.1875 24.75 22.65625 
L 33.25 52.828125 
L 40.875 52.828125 
z
" id="LiberationSansNarrow-1091"/>
       <path d="M 35.9375 24.515625 
Q 35.9375 30.078125 35.15625 33.765625 
Q 34.375 37.453125 32.9375 39.671875 
Q 31.5 41.890625 29.390625 42.796875 
Q 27.296875 43.703125 24.703125 43.703125 
Q 21.921875 43.703125 19.65625 42.75 
Q 17.390625 41.796875 15.765625 39.546875 
Q 14.15625 37.3125 13.25 33.640625 
Q 12.359375 29.984375 12.359375 24.515625 
Q 12.359375 18.953125 13.25 15.28125 
Q 14.15625 11.625 15.6875 9.453125 
Q 17.234375 7.28125 19.328125 6.390625 
Q 21.4375 5.515625 23.921875 5.515625 
Q 26.703125 5.515625 28.921875 6.390625 
Q 31.15625 7.28125 32.71875 9.421875 
Q 34.28125 11.578125 35.109375 15.265625 
Q 35.9375 18.953125 35.9375 24.515625 
z
M 26.21875 50.140625 
Q 35.109375 50.140625 39.296875 43.765625 
Q 43.5 37.40625 43.5 24.609375 
Q 43.5 11.671875 38.5 5.34375 
Q 33.5 -0.984375 23.96875 -0.984375 
Q 19.4375 -0.984375 15.890625 0.71875 
Q 12.359375 2.4375 9.890625 6.25 
Q 7.421875 10.0625 6.09375 16.15625 
Q 4.78125 22.265625 4.78125 31.0625 
Q 4.78125 40.4375 5.953125 47.21875 
Q 7.125 54 9.6875 58.703125 
Q 12.25 63.421875 16.375 66.234375 
Q 20.515625 69.046875 26.375 70.40625 
Q 28.65625 70.953125 30.65625 71.359375 
Q 32.671875 71.78125 34.46875 72.125 
L 38.03125 72.75 
L 41.5 73.34375 
L 41.5 65.484375 
Q 38.03125 64.9375 34.8125 64.375 
Q 31.59375 63.8125 27.9375 62.984375 
Q 24.8125 62.3125 22.34375 61.5 
Q 19.875 60.6875 17.984375 59.46875 
Q 16.109375 58.25 14.765625 56.46875 
Q 13.421875 54.6875 12.546875 52.046875 
Q 11.671875 49.421875 11.203125 45.78125 
Q 10.75 42.140625 10.640625 37.203125 
Q 11.421875 39.890625 12.765625 42.25 
Q 14.109375 44.625 16.03125 46.375 
Q 17.96875 48.140625 20.484375 49.140625 
Q 23 50.140625 26.21875 50.140625 
z
" id="LiberationSansNarrow-1073"/>
       <path d="M 34.859375 0 
L 34.859375 46.4375 
L 19.875 46.4375 
Q 18.890625 37.453125 18.03125 30.4375 
Q 17.1875 23.4375 16.3125 18.15625 
Q 15.4375 12.890625 14.40625 9.25 
Q 13.375 5.609375 11.953125 3.34375 
Q 10.546875 1.078125 8.65625 0.046875 
Q 6.78125 -0.984375 4.203125 -0.984375 
Q 3.03125 -0.984375 2.078125 -0.78125 
Q 1.125 -0.59375 0.4375 -0.34375 
L 0.4375 5.953125 
Q 0.875 5.765625 1.625 5.640625 
Q 2.390625 5.515625 3.171875 5.515625 
Q 4.59375 5.515625 5.59375 6.53125 
Q 6.59375 7.5625 7.390625 9.859375 
Q 8.203125 12.15625 8.859375 15.796875 
Q 9.515625 19.4375 10.203125 24.703125 
Q 10.890625 29.984375 11.625 36.921875 
L 13.375 52.828125 
L 42.140625 52.828125 
L 42.140625 0 
z
" id="LiberationSansNarrow-1083"/>
       <path d="M 22.75 30.46875 
Q 30.953125 30.46875 35.15625 26.875 
Q 39.359375 23.296875 39.359375 15.53125 
Q 39.359375 11.921875 38.296875 9.03125 
Q 37.25 6.15625 35.171875 4.15625 
Q 33.109375 2.15625 30 1.078125 
Q 26.90625 0 22.796875 0 
L 5.671875 0 
L 5.671875 52.828125 
L 12.890625 52.828125 
L 12.890625 30.46875 
z
M 12.890625 6.203125 
L 21.6875 6.203125 
Q 24.46875 6.203125 26.390625 6.8125 
Q 28.328125 7.421875 29.5 8.609375 
Q 30.671875 9.8125 31.171875 11.546875 
Q 31.6875 13.28125 31.6875 15.53125 
Q 31.6875 20.125 29.359375 22.234375 
Q 27.046875 24.359375 21.734375 24.359375 
L 12.890625 24.359375 
z
" id="LiberationSansNarrow-1100"/>
       <path id="LiberationSansNarrow-32"/>
       <path d="M 38.71875 52.828125 
L 38.71875 0 
L 31.546875 0 
L 31.546875 46.4375 
L 12.890625 46.4375 
L 12.890625 0 
L 5.71875 0 
L 5.71875 52.828125 
z
" id="LiberationSansNarrow-1087"/>
       <path d="M 42.140625 26.46875 
Q 42.140625 12.59375 37.125 5.796875 
Q 32.125 -0.984375 22.609375 -0.984375 
Q 18.0625 -0.984375 14.515625 0.671875 
Q 10.984375 2.34375 8.515625 5.765625 
Q 6.0625 9.1875 4.765625 14.328125 
Q 3.46875 19.484375 3.46875 26.46875 
Q 3.46875 53.8125 22.859375 53.8125 
Q 27.875 53.8125 31.5625 52.09375 
Q 35.25 50.390625 37.59375 46.96875 
Q 39.9375 43.5625 41.03125 38.421875 
Q 42.140625 33.296875 42.140625 26.46875 
z
M 34.578125 26.46875 
Q 34.578125 32.625 33.8125 36.625 
Q 33.0625 40.625 31.546875 43.015625 
Q 30.03125 45.40625 27.859375 46.359375 
Q 25.6875 47.3125 23 47.3125 
Q 20.21875 47.3125 17.984375 46.3125 
Q 15.765625 45.3125 14.203125 42.890625 
Q 12.640625 40.484375 11.828125 36.46875 
Q 11.03125 32.46875 11.03125 26.46875 
Q 11.03125 20.3125 11.90625 16.28125 
Q 12.796875 12.25 14.328125 9.859375 
Q 15.875 7.46875 17.96875 6.484375 
Q 20.0625 5.515625 22.5625 5.515625 
Q 25.34375 5.515625 27.5625 6.46875 
Q 29.78125 7.421875 31.34375 9.8125 
Q 32.90625 12.203125 33.734375 16.25 
Q 34.578125 20.3125 34.578125 26.46875 
z
" id="LiberationSansNarrow-1086"/>
       <path d="M 11.03125 26.65625 
Q 11.03125 22.125 11.5625 18.3125 
Q 12.109375 14.5 13.375 11.734375 
Q 14.65625 8.984375 16.75 7.46875 
Q 18.84375 5.953125 21.96875 5.953125 
Q 25.828125 5.953125 28.390625 8.484375 
Q 30.953125 11.03125 31.546875 16.3125 
L 38.875 15.71875 
Q 38.53125 12.453125 37.296875 9.421875 
Q 36.078125 6.390625 34.03125 4.09375 
Q 31.984375 1.8125 29 0.40625 
Q 26.03125 -0.984375 22.171875 -0.984375 
Q 17.09375 -0.984375 13.5 1.109375 
Q 9.90625 3.21875 7.6875 6.90625 
Q 5.46875 10.59375 4.46875 15.59375 
Q 3.46875 20.609375 3.46875 26.46875 
Q 3.46875 31.78125 4.203125 35.859375 
Q 4.9375 39.9375 6.21875 42.984375 
Q 7.515625 46.046875 9.265625 48.125 
Q 11.03125 50.203125 13.109375 51.4375 
Q 15.1875 52.6875 17.453125 53.25 
Q 19.734375 53.8125 22.078125 53.8125 
Q 25.734375 53.8125 28.5625 52.59375 
Q 31.390625 51.375 33.46875 49.25 
Q 35.546875 47.125 36.8125 44.234375 
Q 38.09375 41.359375 38.625 38.03125 
L 31.203125 37.359375 
Q 30.671875 41.75 28.375 44.328125 
Q 26.078125 46.921875 21.875 46.921875 
Q 18.796875 46.921875 16.71875 45.671875 
Q 14.65625 44.4375 13.375 41.921875 
Q 12.109375 39.40625 11.5625 35.59375 
Q 11.03125 31.78125 11.03125 26.65625 
z
" id="LiberationSansNarrow-1089"/>
       <path d="M 3.65625 22.65625 
L 3.65625 30.46875 
L 23.640625 30.46875 
L 23.640625 22.65625 
z
" id="LiberationSansNarrow-45"/>
       <path d="M 22.5625 52.828125 
Q 25.59375 52.828125 28.484375 52.234375 
Q 31.390625 51.65625 33.640625 50.140625 
Q 35.890625 48.640625 37.234375 46.09375 
Q 38.578125 43.5625 38.578125 39.59375 
Q 38.578125 37.015625 37.890625 35.03125 
Q 37.203125 33.0625 35.984375 31.640625 
Q 34.765625 30.21875 33.125 29.3125 
Q 31.5 28.421875 29.6875 27.984375 
L 29.6875 27.640625 
Q 31.84375 27.296875 33.734375 26.4375 
Q 35.640625 25.59375 37 24.09375 
Q 38.375 22.609375 39.171875 20.40625 
Q 39.984375 18.21875 39.984375 15.234375 
Q 39.984375 11.421875 38.765625 8.5625 
Q 37.546875 5.71875 35.375 3.8125 
Q 33.203125 1.90625 30.171875 0.953125 
Q 27.15625 0 23.484375 0 
L 5.671875 0 
L 5.671875 52.828125 
z
M 12.890625 6.5 
L 22.3125 6.5 
Q 25.09375 6.5 27 6.984375 
Q 28.90625 7.46875 30.078125 8.546875 
Q 31.25 9.625 31.78125 11.25 
Q 32.328125 12.890625 32.328125 15.1875 
Q 32.328125 17.625 31.765625 19.328125 
Q 31.203125 21.046875 29.953125 22.109375 
Q 28.71875 23.1875 26.703125 23.671875 
Q 24.703125 24.171875 21.875 24.171875 
L 12.890625 24.171875 
z
M 12.890625 46.140625 
L 12.890625 30.515625 
L 21.53125 30.515625 
Q 24.265625 30.515625 26.0625 30.984375 
Q 27.875 31.453125 29 32.390625 
Q 30.125 33.34375 30.5625 34.828125 
Q 31 36.328125 31 38.421875 
Q 31 42.4375 28.96875 44.28125 
Q 26.953125 46.140625 22.125 46.140625 
z
" id="LiberationSansNarrow-1074"/>
       <path d="M 18.3125 -0.984375 
Q 11.625 -0.984375 7.6875 2.0625 
Q 3.765625 5.125 1.953125 11.421875 
L 8.296875 13.578125 
Q 9.28125 9.765625 11.8125 7.65625 
Q 14.359375 5.5625 18.453125 5.5625 
Q 22.3125 5.5625 24.578125 7.859375 
Q 26.859375 10.15625 26.859375 14.59375 
Q 26.859375 17.484375 25.734375 19.390625 
Q 24.609375 21.296875 22.78125 22.390625 
Q 20.953125 23.484375 18.546875 23.921875 
Q 16.15625 24.359375 13.578125 24.359375 
L 13.578125 31.0625 
Q 16.109375 31.0625 18.40625 31.421875 
Q 20.703125 31.78125 22.4375 32.703125 
Q 24.171875 33.640625 25.140625 35.28125 
Q 26.125 36.921875 26.125 39.453125 
Q 26.125 43.0625 24.140625 45.15625 
Q 22.171875 47.265625 18.453125 47.265625 
Q 17.046875 47.265625 15.65625 46.921875 
Q 14.265625 46.578125 13.03125 45.765625 
Q 11.8125 44.96875 10.984375 43.625 
Q 10.15625 42.28125 9.859375 40.234375 
L 3.421875 41.21875 
Q 3.90625 44.53125 5.125 46.921875 
Q 6.34375 49.3125 8.296875 50.84375 
Q 10.25 52.390625 12.78125 53.09375 
Q 15.328125 53.8125 18.453125 53.8125 
Q 21.875 53.8125 24.625 52.78125 
Q 27.390625 51.765625 29.34375 49.90625 
Q 31.296875 48.046875 32.375 45.5 
Q 33.453125 42.96875 33.453125 39.890625 
Q 33.453125 37.109375 32.5625 34.953125 
Q 31.6875 32.8125 30.25 31.3125 
Q 28.8125 29.828125 27.046875 28.953125 
Q 25.296875 28.078125 23.53125 27.875 
L 23.53125 27.78125 
Q 25.78125 27.484375 27.75 26.484375 
Q 29.734375 25.484375 31.25 23.84375 
Q 32.765625 22.21875 33.609375 19.9375 
Q 34.46875 17.671875 34.46875 14.84375 
Q 34.46875 11.46875 33.484375 8.5625 
Q 32.515625 5.671875 30.484375 3.546875 
Q 28.46875 1.421875 25.4375 0.21875 
Q 22.40625 -0.984375 18.3125 -0.984375 
z
" id="LiberationSansNarrow-1079"/>
       <path d="M 1.421875 52.828125 
L 36.140625 52.828125 
L 36.140625 46.4375 
L 22.359375 46.4375 
L 22.359375 0 
L 15.1875 0 
L 15.1875 46.4375 
L 1.421875 46.4375 
z
" id="LiberationSansNarrow-1090"/>
       <path d="M 16.546875 -0.984375 
Q 10.015625 -0.984375 6.734375 3.21875 
Q 3.46875 7.421875 3.46875 14.75 
Q 3.46875 19.96875 5.09375 23.3125 
Q 6.734375 26.65625 9.34375 28.5625 
Q 11.96875 30.46875 15.328125 31.203125 
Q 18.703125 31.9375 22.171875 32.03125 
L 31.9375 32.234375 
L 31.9375 35.109375 
Q 31.9375 38.375 31.375 40.671875 
Q 30.8125 42.96875 29.640625 44.375 
Q 28.46875 45.796875 26.734375 46.453125 
Q 25 47.125 22.609375 47.125 
Q 20.515625 47.125 18.84375 46.75 
Q 17.1875 46.390625 15.9375 45.4375 
Q 14.703125 44.484375 13.9375 42.84375 
Q 13.1875 41.21875 12.9375 38.71875 
L 5.421875 39.546875 
Q 5.8125 42.671875 6.9375 45.28125 
Q 8.0625 47.90625 10.109375 49.796875 
Q 12.15625 51.703125 15.25 52.75 
Q 18.359375 53.8125 22.796875 53.8125 
Q 30.953125 53.8125 35.078125 49.234375 
Q 39.203125 44.671875 39.203125 36.03125 
L 39.203125 13.28125 
Q 39.203125 9.375 40.03125 7.390625 
Q 40.875 5.421875 43.265625 5.421875 
Q 43.84375 5.421875 44.453125 5.515625 
Q 45.0625 5.609375 45.609375 5.765625 
L 45.609375 0.296875 
Q 44.234375 -0.09375 42.890625 -0.28125 
Q 41.546875 -0.484375 40.046875 -0.484375 
Q 37.984375 -0.484375 36.515625 0.171875 
Q 35.0625 0.828125 34.15625 2.171875 
Q 33.25 3.515625 32.765625 5.484375 
Q 32.28125 7.46875 32.125 10.109375 
L 31.9375 10.109375 
Q 30.765625 7.5625 29.375 5.515625 
Q 27.984375 3.46875 26.140625 2.03125 
Q 24.3125 0.59375 21.9375 -0.1875 
Q 19.578125 -0.984375 16.546875 -0.984375 
z
M 18.21875 5.609375 
Q 21.6875 5.609375 24.25 7.140625 
Q 26.8125 8.6875 28.515625 11.078125 
Q 30.21875 13.484375 31.078125 16.3125 
Q 31.9375 19.140625 31.9375 21.734375 
L 31.9375 26.078125 
L 24.03125 25.875 
Q 21.390625 25.828125 19 25.40625 
Q 16.609375 25 14.8125 23.78125 
Q 13.03125 22.5625 11.953125 20.359375 
Q 10.890625 18.171875 10.890625 14.59375 
Q 10.890625 10.296875 12.796875 7.953125 
Q 14.703125 5.609375 18.21875 5.609375 
z
" id="LiberationSansNarrow-1072"/>
       <path d="M 5.515625 52.828125 
L 12.703125 52.828125 
L 12.703125 29.6875 
Q 13.921875 29.6875 14.875 30.078125 
Q 15.828125 30.46875 16.875 31.6875 
Q 17.921875 32.90625 19.21875 35.15625 
Q 20.515625 37.40625 22.46875 41.15625 
L 28.375 52.828125 
L 35.890625 52.828125 
L 27.25 36.96875 
Q 25.4375 33.734375 24.109375 31.65625 
Q 22.796875 29.59375 22.125 28.90625 
L 36.234375 0 
L 28.21875 0 
L 17.140625 24.265625 
Q 16.359375 23.875 15.0625 23.578125 
Q 13.765625 23.296875 12.703125 23.296875 
L 12.703125 0 
L 5.515625 0 
z
" id="LiberationSansNarrow-1082"/>
       <path d="M 10.6875 24.5625 
Q 10.6875 20.40625 11.5625 16.90625 
Q 12.453125 13.421875 13.90625 10.90625 
Q 15.375 8.40625 17.640625 7 
Q 19.921875 5.609375 23.140625 5.609375 
Q 27.828125 5.609375 30.65625 7.90625 
Q 33.5 10.203125 34.46875 13.71875 
L 40.828125 11.53125 
Q 40.140625 9.328125 38.921875 7.109375 
Q 37.703125 4.890625 35.640625 3.09375 
Q 33.59375 1.3125 30.53125 0.15625 
Q 27.484375 -0.984375 23.140625 -0.984375 
Q 13.53125 -0.984375 8.5 6 
Q 3.46875 12.984375 3.46875 26.765625 
Q 3.46875 34.1875 5 39.328125 
Q 6.546875 44.484375 9.171875 47.703125 
Q 11.8125 50.921875 15.328125 52.359375 
Q 18.84375 53.8125 22.859375 53.8125 
Q 28.328125 53.8125 31.984375 51.65625 
Q 39.0625 47.515625 41.015625 36.8125 
Q 41.9375 31.6875 41.9375 25.734375 
L 41.9375 24.5625 
z
M 34.71875 31.296875 
Q 34.71875 40.140625 31.421875 43.71875 
Q 28.125 47.3125 22.75 47.3125 
Q 18.953125 47.3125 15.328125 44.09375 
Q 10.9375 40.328125 10.6875 31.296875 
z
" id="LiberationSansNarrow-1077"/>
      </defs>
      <use xlink:href="#LiberationSansNarrow-1088"/>
      <use x="44.480469" xlink:href="#LiberationSansNarrow-1091"/>
      <use x="86.621094" xlink:href="#LiberationSansNarrow-1073"/>
      <use x="129.09375" xlink:href="#LiberationSansNarrow-1083"/>
      <use x="176.896484" xlink:href="#LiberationSansNarrow-1100"/>
      <use x="219.621094" xlink:href="#LiberationSansNarrow-32"/>
      <use x="242.423828" xlink:href="#LiberationSansNarrow-1087"/>
      <use x="286.857422" xlink:href="#LiberationSansNarrow-1086"/>
      <use x="332.462891" xlink:href="#LiberationSansNarrow-32"/>
      <use x="355.265625" xlink:href="#LiberationSansNarrow-1089"/>
      <use x="396.28125" xlink:href="#LiberationSansNarrow-1088"/>
      <use x="441.886719" xlink:href="#LiberationSansNarrow-46"/>
      <use x="464.689453" xlink:href="#LiberationSansNarrow-45"/>
      <use x="491.984375" xlink:href="#LiberationSansNarrow-1074"/>
      <use x="534.414062" xlink:href="#LiberationSansNarrow-1079"/>
      <use x="571.962891" xlink:href="#LiberationSansNarrow-1074"/>
      <use x="615.517578" xlink:href="#LiberationSansNarrow-46"/>
      <use x="638.320312" xlink:href="#LiberationSansNarrow-32"/>
      <use x="661.123047" xlink:href="#LiberationSansNarrow-1089"/>
      <use x="702.138672" xlink:href="#LiberationSansNarrow-1090"/>
      <use x="738.5625" xlink:href="#LiberationSansNarrow-1072"/>
      <use x="784.167969" xlink:href="#LiberationSansNarrow-1074"/>
      <use x="827.722656" xlink:href="#LiberationSansNarrow-1082"/>
      <use x="864.6875" xlink:href="#LiberationSansNarrow-1077"/>
     </g>
    </g>
    <g id="line2d_21">
     <path d="M 50.65 53.26125 
L 78.65 53.26125 
" style="fill:none;stroke:#ff7f0e;stroke-linecap:square;stroke-width:1.5;"/>
    </g>
    <g id="line2d_22"/>
    <g id="text_17">
     <!-- рубль по ср. макс. ставке -->
     <g transform="translate(89.85 58.16125)scale(0.14 -0.14)">
      <defs>
       <path d="M 31.546875 0 
L 25.390625 0 
L 12.40625 46.4375 
Q 12.453125 45.171875 12.515625 43.703125 
Q 12.59375 42.234375 12.59375 40.75 
Q 12.59375 39.265625 12.609375 37.859375 
Q 12.640625 36.46875 12.640625 35.359375 
L 12.640625 0 
L 5.671875 0 
L 5.671875 52.828125 
L 16.890625 52.828125 
L 25.734375 20.5625 
Q 26.65625 17.484375 27.390625 13.796875 
Q 28.125 10.109375 28.421875 6.59375 
Q 28.8125 10.109375 29.515625 13.796875 
Q 30.21875 17.484375 31.15625 20.5625 
L 39.984375 52.828125 
L 50.734375 52.828125 
L 50.734375 0 
L 43.796875 0 
L 43.796875 35.359375 
Q 43.796875 36.421875 43.8125 37.890625 
Q 43.84375 39.359375 43.921875 40.921875 
Q 44 42.484375 44.015625 43.9375 
Q 44.046875 45.40625 44.140625 46.53125 
z
" id="LiberationSansNarrow-1084"/>
      </defs>
      <use xlink:href="#LiberationSansNarrow-1088"/>
      <use x="44.480469" xlink:href="#LiberationSansNarrow-1091"/>
      <use x="86.621094" xlink:href="#LiberationSansNarrow-1073"/>
      <use x="129.09375" xlink:href="#LiberationSansNarrow-1083"/>
      <use x="176.896484" xlink:href="#LiberationSansNarrow-1100"/>
      <use x="219.621094" xlink:href="#LiberationSansNarrow-32"/>
      <use x="242.423828" xlink:href="#LiberationSansNarrow-1087"/>
      <use x="286.857422" xlink:href="#LiberationSansNarrow-1086"/>
      <use x="332.462891" xlink:href="#LiberationSansNarrow-32"/>
      <use x="355.265625" xlink:href="#LiberationSansNarrow-1089"/>
      <use x="396.28125" xlink:href="#LiberationSansNarrow-1088"/>
      <use x="441.886719" xlink:href="#LiberationSansNarrow-46"/>
      <use x="464.689453" xlink:href="#LiberationSansNarrow-32"/>
      <use x="487.492188" xlink:href="#LiberationSansNarrow-1084"/>
      <use x="543.888672" xlink:href="#LiberationSansNarrow-1072"/>
      <use x="589.494141" xlink:href="#LiberationSansNarrow-1082"/>
      <use x="626.458984" xlink:href="#LiberationSansNarrow-1089"/>
      <use x="667.474609" xlink:href="#LiberationSansNarrow-46"/>
      <use x="690.277344" xlink:href="#LiberationSansNarrow-32"/>
      <use x="713.080078" xlink:href="#LiberationSansNarrow-1089"/>
      <use x="754.095703" xlink:href="#LiberationSansNarrow-1090"/>
      <use x="790.519531" xlink:href="#LiberationSansNarrow-1072"/>
      <use x="836.125" xlink:href="#LiberationSansNarrow-1074"/>
      <use x="879.679688" xlink:href="#LiberationSansNarrow-1082"/>
      <use x="916.644531" xlink:href="#LiberationSansNarrow-1077"/>
     </g>
    </g>
    <g id="line2d_23">
     <path d="M 50.65 73.311875 
L 78.65 73.311875 
" style="fill:none;stroke:#2ca02c;stroke-linecap:square;stroke-width:1.5;"/>
    </g>
    <g id="line2d_24"/>
    <g id="text_18">
     <!-- вклад в долларах -->
     <g transform="translate(89.85 78.211875)scale(0.14 -0.14)">
      <defs>
       <path d="M 33.34375 46.4375 
L 21.140625 46.4375 
Q 20.171875 37.796875 19.1875 31.375 
Q 18.21875 24.953125 17.234375 20.21875 
Q 16.265625 15.484375 15.3125 12.15625 
Q 14.359375 8.84375 13.484375 6.390625 
L 33.34375 6.390625 
z
M 46.390625 -19.921875 
L 39.890625 -19.921875 
L 39.890625 0 
L 7.328125 0 
L 7.328125 -19.921875 
L 0.78125 -19.921875 
L 0.78125 6.390625 
L 5.5625 6.390625 
Q 6.78125 8.84375 7.921875 12.328125 
Q 9.078125 15.828125 10.21875 21.1875 
Q 11.375 26.5625 12.515625 34.25 
Q 13.671875 41.9375 14.796875 52.828125 
L 40.578125 52.828125 
L 40.578125 6.390625 
L 46.390625 6.390625 
z
" id="LiberationSansNarrow-1076"/>
       <path d="M 32.078125 0 
L 20.40625 21.6875 
L 8.6875 0 
L 0.921875 0 
L 16.359375 27.15625 
L 1.65625 52.828125 
L 9.625 52.828125 
L 20.40625 32.28125 
L 31.15625 52.828125 
L 39.203125 52.828125 
L 24.515625 27.25 
L 40.140625 0 
z
" id="LiberationSansNarrow-1093"/>
      </defs>
      <use xlink:href="#LiberationSansNarrow-1074"/>
      <use x="43.554688" xlink:href="#LiberationSansNarrow-1082"/>
      <use x="80.519531" xlink:href="#LiberationSansNarrow-1083"/>
      <use x="128.322266" xlink:href="#LiberationSansNarrow-1072"/>
      <use x="173.927734" xlink:href="#LiberationSansNarrow-1076"/>
      <use x="221.730469" xlink:href="#LiberationSansNarrow-32"/>
      <use x="244.533203" xlink:href="#LiberationSansNarrow-1074"/>
      <use x="288.087891" xlink:href="#LiberationSansNarrow-32"/>
      <use x="310.890625" xlink:href="#LiberationSansNarrow-1076"/>
      <use x="358.693359" xlink:href="#LiberationSansNarrow-1086"/>
      <use x="402.048828" xlink:href="#LiberationSansNarrow-1083"/>
      <use x="449.851562" xlink:href="#LiberationSansNarrow-1083"/>
      <use x="497.654297" xlink:href="#LiberationSansNarrow-1072"/>
      <use x="543.259766" xlink:href="#LiberationSansNarrow-1088"/>
      <use x="588.865234" xlink:href="#LiberationSansNarrow-1072"/>
      <use x="634.470703" xlink:href="#LiberationSansNarrow-1093"/>
     </g>
    </g>
   </g>
  </g>
 </g>
 <defs>
  <clipPath id="pead22ec1d1">
   <rect height="237.08" width="522.83" x="38.05" y="15.12"/>
  </clipPath>
 </defs>
</svg>
