<?xml version="1.0" encoding="utf-8" standalone="no"?>
<!DOCTYPE svg PUBLIC "-//W3C//DTD SVG 1.1//EN"
  "http://www.w3.org/Graphics/SVG/1.1/DTD/svg11.dtd">
<!-- Created with matplotlib (https://matplotlib.org/) -->
<svg height="288pt" version="1.1" viewBox="0 0 576 288" width="576pt" xmlns="http://www.w3.org/2000/svg" xmlns:xlink="http://www.w3.org/1999/xlink">
 <defs>
  <style type="text/css">
*{stroke-linecap:butt;stroke-linejoin:round;}
  </style>
 </defs>
 <g id="figure_1">
  <g id="patch_1">
   <path d="M 0 288 
L 576 288 
L 576 0 
L 0 0 
z
" style="fill:#ffffff;"/>
  </g>
  <g id="axes_1">
   <g id="patch_2">
    <path d="M 34.9 252.2 
L 558.36 252.2 
L 558.36 17.64 
L 34.9 17.64 
z
" style="fill:#ffffff;"/>
   </g>
   <g id="matplotlib.axis_1">
    <g id="xtick_1">
     <g id="line2d_1">
      <path clip-path="url(#pb68cdb5d9c)" d="M 35.824374 252.2 
L 35.824374 17.64 
" style="fill:none;stroke:#b0b0b0;stroke-dasharray:1.48,0.64;stroke-dashoffset:0;stroke-width:0.4;"/>
     </g>
     <g id="text_1">
      <!-- 1975 -->
      <defs>
       <path d="M 6.25 0 
L 6.25 7.46875 
L 20.609375 7.46875 
L 20.609375 60.40625 
L 7.90625 49.3125 
L 7.90625 57.625 
L 21.234375 68.796875 
L 27.875 68.796875 
L 27.875 7.46875 
L 41.609375 7.46875 
L 41.609375 0 
z
" id="LiberationSansNarrow-49"/>
       <path d="M 41.703125 35.796875 
Q 41.703125 26.609375 40.28125 19.703125 
Q 38.875 12.796875 36.234375 8.203125 
Q 33.59375 3.609375 29.8125 1.3125 
Q 26.03125 -0.984375 21.296875 -0.984375 
Q 18.0625 -0.984375 15.453125 -0.171875 
Q 12.84375 0.640625 10.8125 2.34375 
Q 8.796875 4.046875 7.328125 6.78125 
Q 5.859375 9.515625 4.984375 13.375 
L 11.921875 14.703125 
Q 13.03125 10.25 15.40625 8.171875 
Q 17.78125 6.109375 21.4375 6.109375 
Q 24.359375 6.109375 26.78125 7.78125 
Q 29.203125 9.46875 30.875 12.84375 
Q 32.5625 16.21875 33.546875 21.296875 
Q 34.46875 26.375 34.578125 33.203125 
Q 33.734375 30.90625 32.265625 29.09375 
Q 30.8125 27.296875 28.953125 26.046875 
Q 27.09375 24.8125 24.9375 24.140625 
Q 22.796875 23.484375 20.5625 23.484375 
Q 16.703125 23.484375 13.625 25.171875 
Q 10.546875 26.859375 8.375 29.875 
Q 6.203125 32.90625 5.03125 37.171875 
Q 3.859375 41.453125 3.859375 46.6875 
Q 3.859375 52 5.09375 56.296875 
Q 6.34375 60.59375 8.765625 63.59375 
Q 11.1875 66.609375 14.671875 68.21875 
Q 18.171875 69.828125 22.609375 69.828125 
Q 32.03125 69.828125 36.859375 61.328125 
Q 41.703125 52.828125 41.703125 35.796875 
z
M 33.890625 44.28125 
Q 33.890625 48.09375 33.125 51.453125 
Q 32.375 54.828125 30.9375 57.3125 
Q 29.5 59.8125 27.34375 61.25 
Q 25.203125 62.703125 22.359375 62.703125 
Q 19.78125 62.703125 17.703125 61.578125 
Q 15.625 60.453125 14.1875 58.375 
Q 12.75 56.296875 11.96875 53.3125 
Q 11.1875 50.34375 11.1875 46.6875 
Q 11.1875 43.21875 11.859375 40.234375 
Q 12.546875 37.25 13.953125 35.078125 
Q 15.375 32.90625 17.453125 31.65625 
Q 19.53125 30.421875 22.3125 30.421875 
Q 24.3125 30.421875 26.359375 31.25 
Q 28.421875 32.078125 30.078125 33.78125 
Q 31.734375 35.5 32.8125 38.109375 
Q 33.890625 40.71875 33.890625 44.28125 
z
" id="LiberationSansNarrow-57"/>
       <path d="M 41.5 61.671875 
Q 37.25 53.765625 33.6875 46.453125 
Q 30.125 39.15625 27.5625 31.75 
Q 25 24.359375 23.5625 16.578125 
Q 22.125 8.796875 22.125 0 
L 14.59375 0 
Q 14.59375 8.25 16.203125 16.1875 
Q 17.828125 24.125 20.53125 31.765625 
Q 23.25 39.40625 26.859375 46.78125 
Q 30.46875 54.15625 34.515625 61.328125 
L 4.203125 61.328125 
L 4.203125 68.796875 
L 41.5 68.796875 
z
" id="LiberationSansNarrow-55"/>
       <path d="M 42.140625 22.40625 
Q 42.140625 17.234375 40.859375 12.9375 
Q 39.59375 8.640625 37.078125 5.53125 
Q 34.578125 2.4375 30.8125 0.71875 
Q 27.046875 -0.984375 22.125 -0.984375 
Q 17.671875 -0.984375 14.375 0.28125 
Q 11.078125 1.5625 8.8125 3.78125 
Q 6.546875 6 5.203125 8.984375 
Q 3.859375 11.96875 3.265625 15.375 
L 10.546875 16.40625 
Q 10.984375 14.453125 11.78125 12.625 
Q 12.59375 10.796875 13.984375 9.34375 
Q 15.375 7.90625 17.40625 7.046875 
Q 19.4375 6.203125 22.3125 6.203125 
Q 25.09375 6.203125 27.390625 7.25 
Q 29.6875 8.296875 31.296875 10.34375 
Q 32.90625 12.40625 33.78125 15.375 
Q 34.671875 18.359375 34.671875 22.21875 
Q 34.671875 25.390625 33.84375 28.046875 
Q 33.015625 30.71875 31.453125 32.640625 
Q 29.890625 34.578125 27.609375 35.640625 
Q 25.34375 36.71875 22.46875 36.71875 
Q 20.65625 36.71875 19.140625 36.328125 
Q 17.625 35.9375 16.328125 35.25 
Q 15.046875 34.578125 13.96875 33.671875 
Q 12.890625 32.765625 11.96875 31.78125 
L 4.9375 31.78125 
L 6.78125 68.796875 
L 38.875 68.796875 
L 38.875 61.328125 
L 13.375 61.328125 
L 12.3125 39.5 
Q 14.203125 41.3125 17.078125 42.59375 
Q 19.96875 43.890625 23.921875 43.890625 
Q 28.125 43.890625 31.484375 42.328125 
Q 34.859375 40.765625 37.21875 37.90625 
Q 39.59375 35.0625 40.859375 31.109375 
Q 42.140625 27.15625 42.140625 22.40625 
z
" id="LiberationSansNarrow-53"/>
      </defs>
      <g transform="translate(23.053749 269.345625)scale(0.14 -0.14)">
       <use xlink:href="#LiberationSansNarrow-49"/>
       <use x="45.605469" xlink:href="#LiberationSansNarrow-57"/>
       <use x="91.210938" xlink:href="#LiberationSansNarrow-55"/>
       <use x="136.816406" xlink:href="#LiberationSansNarrow-53"/>
      </g>
     </g>
    </g>
    <g id="xtick_2">
     <g id="line2d_2">
      <path clip-path="url(#pb68cdb5d9c)" d="M 90.626569 252.2 
L 90.626569 17.64 
" style="fill:none;stroke:#b0b0b0;stroke-dasharray:1.48,0.64;stroke-dashoffset:0;stroke-width:0.4;"/>
     </g>
     <g id="text_2">
      <!-- 1980 -->
      <defs>
       <path d="M 42.046875 19.1875 
Q 42.046875 14.796875 40.890625 11.109375 
Q 39.75 7.421875 37.40625 4.734375 
Q 35.0625 2.046875 31.421875 0.53125 
Q 27.78125 -0.984375 22.796875 -0.984375 
Q 17.828125 -0.984375 14.203125 0.53125 
Q 10.59375 2.046875 8.21875 4.703125 
Q 5.859375 7.375 4.703125 11.0625 
Q 3.5625 14.75 3.5625 19.09375 
Q 3.5625 22.859375 4.515625 25.78125 
Q 5.46875 28.71875 7.03125 30.828125 
Q 8.59375 32.953125 10.609375 34.25 
Q 12.640625 35.546875 14.796875 35.984375 
L 14.796875 36.1875 
Q 12.453125 36.859375 10.59375 38.375 
Q 8.734375 39.890625 7.46875 42.015625 
Q 6.203125 44.140625 5.546875 46.71875 
Q 4.890625 49.3125 4.890625 52.203125 
Q 4.890625 55.8125 6.03125 59 
Q 7.171875 62.203125 9.421875 64.625 
Q 11.671875 67.046875 14.984375 68.4375 
Q 18.3125 69.828125 22.65625 69.828125 
Q 27.25 69.828125 30.640625 68.40625 
Q 34.03125 67 36.25 64.578125 
Q 38.484375 62.15625 39.546875 58.9375 
Q 40.625 55.71875 40.625 52.09375 
Q 40.625 49.265625 39.96875 46.671875 
Q 39.3125 44.09375 38.0625 41.96875 
Q 36.8125 39.84375 34.9375 38.34375 
Q 33.0625 36.859375 30.609375 36.28125 
L 30.609375 36.078125 
Q 33.0625 35.59375 35.15625 34.296875 
Q 37.25 33.015625 38.765625 30.890625 
Q 40.28125 28.765625 41.15625 25.828125 
Q 42.046875 22.90625 42.046875 19.1875 
z
M 33.15625 51.609375 
Q 33.15625 54.203125 32.609375 56.34375 
Q 32.078125 58.5 30.828125 60.03125 
Q 29.59375 61.578125 27.59375 62.421875 
Q 25.59375 63.28125 22.65625 63.28125 
Q 19.828125 63.28125 17.875 62.421875 
Q 15.921875 61.578125 14.640625 60.03125 
Q 13.375 58.5 12.8125 56.34375 
Q 12.25 54.203125 12.25 51.609375 
Q 12.25 49.5625 12.6875 47.40625 
Q 13.140625 45.265625 14.3125 43.5 
Q 15.484375 41.75 17.5 40.625 
Q 19.53125 39.5 22.75 39.5 
Q 26.171875 39.5 28.21875 40.625 
Q 30.28125 41.75 31.375 43.5 
Q 32.46875 45.265625 32.8125 47.40625 
Q 33.15625 49.5625 33.15625 51.609375 
z
M 34.578125 20.015625 
Q 34.578125 22.515625 34.015625 24.828125 
Q 33.453125 27.15625 32.078125 28.9375 
Q 30.71875 30.71875 28.421875 31.8125 
Q 26.125 32.90625 22.65625 32.90625 
Q 19.484375 32.90625 17.265625 31.8125 
Q 15.046875 30.71875 13.671875 28.90625 
Q 12.3125 27.09375 11.671875 24.71875 
Q 11.03125 22.359375 11.03125 19.828125 
Q 11.03125 16.65625 11.671875 14.03125 
Q 12.3125 11.421875 13.703125 9.546875 
Q 15.09375 7.671875 17.375 6.640625 
Q 19.671875 5.609375 22.90625 5.609375 
Q 26.171875 5.609375 28.421875 6.640625 
Q 30.671875 7.671875 32.03125 9.546875 
Q 33.40625 11.421875 33.984375 14.078125 
Q 34.578125 16.75 34.578125 20.015625 
z
" id="LiberationSansNarrow-56"/>
       <path d="M 42.390625 34.421875 
Q 42.390625 24.515625 40.84375 17.75 
Q 39.3125 10.984375 36.640625 6.8125 
Q 33.984375 2.640625 30.390625 0.828125 
Q 26.8125 -0.984375 22.703125 -0.984375 
Q 18.609375 -0.984375 15.03125 0.828125 
Q 11.46875 2.640625 8.828125 6.78125 
Q 6.203125 10.9375 4.703125 17.703125 
Q 3.21875 24.46875 3.21875 34.421875 
Q 3.21875 44.828125 4.703125 51.640625 
Q 6.203125 58.453125 8.828125 62.5 
Q 11.46875 66.546875 15.078125 68.1875 
Q 18.703125 69.828125 22.953125 69.828125 
Q 27 69.828125 30.53125 68.1875 
Q 34.078125 66.546875 36.71875 62.5 
Q 39.359375 58.453125 40.875 51.640625 
Q 42.390625 44.828125 42.390625 34.421875 
z
M 35.0625 34.421875 
Q 35.0625 42.625 34.28125 48.0625 
Q 33.5 53.515625 31.9375 56.765625 
Q 30.375 60.015625 28.09375 61.359375 
Q 25.828125 62.703125 22.953125 62.703125 
Q 19.921875 62.703125 17.578125 61.328125 
Q 15.234375 59.96875 13.671875 56.71875 
Q 12.109375 53.46875 11.296875 48.015625 
Q 10.5 42.578125 10.5 34.421875 
Q 10.5 26.515625 11.296875 21.09375 
Q 12.109375 15.671875 13.6875 12.375 
Q 15.28125 9.078125 17.578125 7.640625 
Q 19.875 6.203125 22.796875 6.203125 
Q 25.640625 6.203125 27.90625 7.640625 
Q 30.171875 9.078125 31.75 12.375 
Q 33.34375 15.671875 34.203125 21.09375 
Q 35.0625 26.515625 35.0625 34.421875 
z
" id="LiberationSansNarrow-48"/>
      </defs>
      <g transform="translate(77.855944 269.345625)scale(0.14 -0.14)">
       <use xlink:href="#LiberationSansNarrow-49"/>
       <use x="45.605469" xlink:href="#LiberationSansNarrow-57"/>
       <use x="91.210938" xlink:href="#LiberationSansNarrow-56"/>
       <use x="136.816406" xlink:href="#LiberationSansNarrow-48"/>
      </g>
     </g>
    </g>
    <g id="xtick_3">
     <g id="line2d_3">
      <path clip-path="url(#pb68cdb5d9c)" d="M 145.458776 252.2 
L 145.458776 17.64 
" style="fill:none;stroke:#b0b0b0;stroke-dasharray:1.48,0.64;stroke-dashoffset:0;stroke-width:0.4;"/>
     </g>
     <g id="text_3">
      <!-- 1985 -->
      <g transform="translate(132.688151 269.345625)scale(0.14 -0.14)">
       <use xlink:href="#LiberationSansNarrow-49"/>
       <use x="45.605469" xlink:href="#LiberationSansNarrow-57"/>
       <use x="91.210938" xlink:href="#LiberationSansNarrow-56"/>
       <use x="136.816406" xlink:href="#LiberationSansNarrow-53"/>
      </g>
     </g>
    </g>
    <g id="xtick_4">
     <g id="line2d_4">
      <path clip-path="url(#pb68cdb5d9c)" d="M 200.260971 252.2 
L 200.260971 17.64 
" style="fill:none;stroke:#b0b0b0;stroke-dasharray:1.48,0.64;stroke-dashoffset:0;stroke-width:0.4;"/>
     </g>
     <g id="text_4">
      <!-- 1990 -->
      <g transform="translate(187.490346 269.345625)scale(0.14 -0.14)">
       <use xlink:href="#LiberationSansNarrow-49"/>
       <use x="45.605469" xlink:href="#LiberationSansNarrow-57"/>
       <use x="91.210938" xlink:href="#LiberationSansNarrow-57"/>
       <use x="136.816406" xlink:href="#LiberationSansNarrow-48"/>
      </g>
     </g>
    </g>
    <g id="xtick_5">
     <g id="line2d_5">
      <path clip-path="url(#pb68cdb5d9c)" d="M 255.063166 252.2 
L 255.063166 17.64 
" style="fill:none;stroke:#b0b0b0;stroke-dasharray:1.48,0.64;stroke-dashoffset:0;stroke-width:0.4;"/>
     </g>
     <g id="text_5">
      <!-- 1995 -->
      <g transform="translate(242.292541 269.345625)scale(0.14 -0.14)">
       <use xlink:href="#LiberationSansNarrow-49"/>
       <use x="45.605469" xlink:href="#LiberationSansNarrow-57"/>
       <use x="91.210938" xlink:href="#LiberationSansNarrow-57"/>
       <use x="136.816406" xlink:href="#LiberationSansNarrow-53"/>
      </g>
     </g>
    </g>
    <g id="xtick_6">
     <g id="line2d_6">
      <path clip-path="url(#pb68cdb5d9c)" d="M 309.86536 252.2 
L 309.86536 17.64 
" style="fill:none;stroke:#b0b0b0;stroke-dasharray:1.48,0.64;stroke-dashoffset:0;stroke-width:0.4;"/>
     </g>
     <g id="text_6">
      <!-- 2000 -->
      <defs>
       <path d="M 4.109375 0 
L 4.109375 6.203125 
Q 6.15625 11.921875 9.109375 16.28125 
Q 12.0625 20.65625 15.3125 24.1875 
Q 18.5625 27.734375 21.734375 30.765625 
Q 24.90625 33.796875 27.46875 36.8125 
Q 30.03125 39.84375 31.609375 43.15625 
Q 33.203125 46.484375 33.203125 50.6875 
Q 33.203125 53.609375 32.46875 55.828125 
Q 31.734375 58.0625 30.390625 59.5625 
Q 29.046875 61.078125 27.140625 61.828125 
Q 25.25 62.59375 22.90625 62.59375 
Q 20.75 62.59375 18.84375 61.859375 
Q 16.9375 61.140625 15.453125 59.671875 
Q 13.96875 58.203125 13.03125 56.03125 
Q 12.109375 53.859375 11.8125 50.984375 
L 4.4375 51.8125 
Q 4.78125 55.515625 6.125 58.78125 
Q 7.46875 62.0625 9.78125 64.53125 
Q 12.109375 67 15.359375 68.40625 
Q 18.609375 69.828125 22.90625 69.828125 
Q 27.09375 69.828125 30.390625 68.609375 
Q 33.6875 67.390625 35.9375 64.984375 
Q 38.1875 62.59375 39.40625 59.078125 
Q 40.625 55.5625 40.625 50.984375 
Q 40.625 47.515625 39.59375 44.390625 
Q 38.578125 41.265625 36.859375 38.421875 
Q 35.15625 35.59375 32.90625 32.953125 
Q 30.671875 30.328125 28.21875 27.828125 
L 23.296875 22.859375 
Q 20.796875 20.359375 18.625 17.859375 
Q 16.453125 15.375 14.734375 12.8125 
Q 13.03125 10.25 12.0625 7.46875 
L 41.5 7.46875 
L 41.5 0 
z
" id="LiberationSansNarrow-50"/>
      </defs>
      <g transform="translate(297.094735 269.345625)scale(0.14 -0.14)">
       <use xlink:href="#LiberationSansNarrow-50"/>
       <use x="45.605469" xlink:href="#LiberationSansNarrow-48"/>
       <use x="91.210938" xlink:href="#LiberationSansNarrow-48"/>
       <use x="136.816406" xlink:href="#LiberationSansNarrow-48"/>
      </g>
     </g>
    </g>
    <g id="xtick_7">
     <g id="line2d_7">
      <path clip-path="url(#pb68cdb5d9c)" d="M 364.697567 252.2 
L 364.697567 17.64 
" style="fill:none;stroke:#b0b0b0;stroke-dasharray:1.48,0.64;stroke-dashoffset:0;stroke-width:0.4;"/>
     </g>
     <g id="text_7">
      <!-- 2005 -->
      <g transform="translate(351.926942 269.345625)scale(0.14 -0.14)">
       <use xlink:href="#LiberationSansNarrow-50"/>
       <use x="45.605469" xlink:href="#LiberationSansNarrow-48"/>
       <use x="91.210938" xlink:href="#LiberationSansNarrow-48"/>
       <use x="136.816406" xlink:href="#LiberationSansNarrow-53"/>
      </g>
     </g>
    </g>
    <g id="xtick_8">
     <g id="line2d_8">
      <path clip-path="url(#pb68cdb5d9c)" d="M 419.499762 252.2 
L 419.499762 17.64 
" style="fill:none;stroke:#b0b0b0;stroke-dasharray:1.48,0.64;stroke-dashoffset:0;stroke-width:0.4;"/>
     </g>
     <g id="text_8">
      <!-- 2010 -->
      <g transform="translate(406.729137 269.345625)scale(0.14 -0.14)">
       <use xlink:href="#LiberationSansNarrow-50"/>
       <use x="45.605469" xlink:href="#LiberationSansNarrow-48"/>
       <use x="91.210938" xlink:href="#LiberationSansNarrow-49"/>
       <use x="136.816406" xlink:href="#LiberationSansNarrow-48"/>
      </g>
     </g>
    </g>
    <g id="xtick_9">
     <g id="line2d_9">
      <path clip-path="url(#pb68cdb5d9c)" d="M 474.301957 252.2 
L 474.301957 17.64 
" style="fill:none;stroke:#b0b0b0;stroke-dasharray:1.48,0.64;stroke-dashoffset:0;stroke-width:0.4;"/>
     </g>
     <g id="text_9">
      <!-- 2015 -->
      <g transform="translate(461.531332 269.345625)scale(0.14 -0.14)">
       <use xlink:href="#LiberationSansNarrow-50"/>
       <use x="45.605469" xlink:href="#LiberationSansNarrow-48"/>
       <use x="91.210938" xlink:href="#LiberationSansNarrow-49"/>
       <use x="136.816406" xlink:href="#LiberationSansNarrow-53"/>
      </g>
     </g>
    </g>
    <g id="xtick_10">
     <g id="line2d_10">
      <path clip-path="url(#pb68cdb5d9c)" d="M 529.104151 252.2 
L 529.104151 17.64 
" style="fill:none;stroke:#b0b0b0;stroke-dasharray:1.48,0.64;stroke-dashoffset:0;stroke-width:0.4;"/>
     </g>
     <g id="text_10">
      <!-- 2020 -->
      <g transform="translate(516.333526 269.345625)scale(0.14 -0.14)">
       <use xlink:href="#LiberationSansNarrow-50"/>
       <use x="45.605469" xlink:href="#LiberationSansNarrow-48"/>
       <use x="91.210938" xlink:href="#LiberationSansNarrow-50"/>
       <use x="136.816406" xlink:href="#LiberationSansNarrow-48"/>
      </g>
     </g>
    </g>
   </g>
   <g id="matplotlib.axis_2">
    <g id="ytick_1">
     <g id="line2d_11">
      <path clip-path="url(#pb68cdb5d9c)" d="M 34.9 249.394893 
L 558.36 249.394893 
" style="fill:none;stroke:#b0b0b0;stroke-dasharray:1.48,0.64;stroke-dashoffset:0;stroke-width:0.4;"/>
     </g>
     <g id="text_11">
      <!-- 0 -->
      <g transform="translate(21.514688 254.467705)scale(0.14 -0.14)">
       <use xlink:href="#LiberationSansNarrow-48"/>
      </g>
     </g>
    </g>
    <g id="ytick_2">
     <g id="line2d_12">
      <path clip-path="url(#pb68cdb5d9c)" d="M 34.9 200.09856 
L 558.36 200.09856 
" style="fill:none;stroke:#b0b0b0;stroke-dasharray:1.48,0.64;stroke-dashoffset:0;stroke-width:0.4;"/>
     </g>
     <g id="text_12">
      <!-- 5 -->
      <g transform="translate(21.514688 205.171373)scale(0.14 -0.14)">
       <use xlink:href="#LiberationSansNarrow-53"/>
      </g>
     </g>
    </g>
    <g id="ytick_3">
     <g id="line2d_13">
      <path clip-path="url(#pb68cdb5d9c)" d="M 34.9 150.802228 
L 558.36 150.802228 
" style="fill:none;stroke:#b0b0b0;stroke-dasharray:1.48,0.64;stroke-dashoffset:0;stroke-width:0.4;"/>
     </g>
     <g id="text_13">
      <!-- 10 -->
      <g transform="translate(15.129375 155.87504)scale(0.14 -0.14)">
       <use xlink:href="#LiberationSansNarrow-49"/>
       <use x="45.605469" xlink:href="#LiberationSansNarrow-48"/>
      </g>
     </g>
    </g>
    <g id="ytick_4">
     <g id="line2d_14">
      <path clip-path="url(#pb68cdb5d9c)" d="M 34.9 101.505895 
L 558.36 101.505895 
" style="fill:none;stroke:#b0b0b0;stroke-dasharray:1.48,0.64;stroke-dashoffset:0;stroke-width:0.4;"/>
     </g>
     <g id="text_14">
      <!-- 15 -->
      <g transform="translate(15.129375 106.578707)scale(0.14 -0.14)">
       <use xlink:href="#LiberationSansNarrow-49"/>
       <use x="45.605469" xlink:href="#LiberationSansNarrow-53"/>
      </g>
     </g>
    </g>
    <g id="ytick_5">
     <g id="line2d_15">
      <path clip-path="url(#pb68cdb5d9c)" d="M 34.9 52.209562 
L 558.36 52.209562 
" style="fill:none;stroke:#b0b0b0;stroke-dasharray:1.48,0.64;stroke-dashoffset:0;stroke-width:0.4;"/>
     </g>
     <g id="text_15">
      <!-- 20 -->
      <g transform="translate(15.129375 57.282375)scale(0.14 -0.14)">
       <use xlink:href="#LiberationSansNarrow-50"/>
       <use x="45.605469" xlink:href="#LiberationSansNarrow-48"/>
      </g>
     </g>
    </g>
   </g>
   <g id="line2d_16">
    <path clip-path="url(#pb68cdb5d9c)" d="M 58.693636 240.288908 
L 62.295095 240.553433 
L 63.19546 240.483743 
L 65.956578 241.042121 
L 67.787319 241.03395 
L 68.717696 241.368792 
L 70.488413 241.538182 
L 72.319155 240.853003 
L 74.149896 240.957268 
L 75.080273 240.379846 
L 76.01065 240.411604 
L 76.911014 240.738736 
L 77.841391 241.245743 
L 78.741756 241.125735 
L 79.672133 240.85502 
L 80.602509 241.042802 
L 82.373227 240.82487 
L 83.273591 241.092613 
L 85.104333 240.959128 
L 86.034709 240.619773 
L 86.965086 240.579768 
L 87.865451 240.942958 
L 88.795828 241.047597 
L 89.696192 240.770571 
L 91.556946 240.351922 
L 92.427298 241.26896 
L 93.357675 241.452327 
L 94.25804 241.133622 
L 96.088781 240.228227 
L 99.780276 239.192699 
L 100.680641 239.412904 
L 101.611018 239.491983 
L 102.541395 239.894056 
L 103.381735 239.567244 
L 104.312112 239.506906 
L 105.212476 239.74243 
L 106.142853 239.745392 
L 107.043218 240.04291 
L 107.973595 240.039089 
L 108.903971 240.898458 
L 111.635078 240.459615 
L 112.565454 240.915757 
L 114.336171 241.32306 
L 115.266548 240.917288 
L 116.166913 240.948912 
L 117.09729 241.492868 
L 118.928031 241.467751 
L 120.758773 239.768785 
L 121.689149 239.315049 
L 122.589514 239.136505 
L 123.519891 238.755507 
L 124.450268 238.539903 
L 127.121349 237.287878 
L 128.051726 237.112663 
L 128.952091 237.075093 
L 129.882468 237.407528 
L 130.812844 237.071657 
L 131.713209 237.028469 
L 132.643586 237.193598 
L 133.543951 237.221077 
L 134.474327 237.101852 
L 135.404704 237.787066 
L 137.205433 237.755695 
L 138.105798 237.81851 
L 139.93654 238.211003 
L 140.866916 237.227958 
L 141.797293 237.115383 
L 142.697658 237.200557 
L 143.628035 237.043442 
L 144.528399 237.130526 
L 146.389153 235.900425 
L 147.229493 236.015191 
L 148.15987 235.941145 
L 150.890976 235.028037 
L 152.75173 235.622436 
L 153.652094 235.467774 
L 155.482836 233.874279 
L 156.413213 233.80016 
L 157.343589 232.866197 
L 158.18393 231.763358 
L 159.114306 231.246472 
L 160.014671 231.207286 
L 160.945048 230.740036 
L 161.845413 231.076279 
L 162.775789 230.692343 
L 163.706166 231.23422 
L 164.606531 231.266886 
L 165.536908 230.643327 
L 166.437272 230.340028 
L 169.138366 227.129887 
L 170.068743 227.43771 
L 170.969108 227.477173 
L 171.899484 226.571556 
L 172.799849 225.920741 
L 173.730226 224.536486 
L 174.660603 225.415276 
L 175.560967 228.312476 
L 176.491344 230.922041 
L 177.391709 231.168283 
L 178.322086 230.443256 
L 180.122815 229.317745 
L 181.053192 229.597009 
L 181.953556 230.095578 
L 182.883933 229.024064 
L 183.784298 229.171797 
L 184.714675 229.602361 
L 185.645051 229.355166 
L 186.545416 228.661997 
L 187.475793 229.097179 
L 188.376157 228.658851 
L 190.236911 227.421823 
L 191.077251 227.582205 
L 192.007628 226.950963 
L 193.83837 225.427475 
L 194.738734 224.815435 
L 195.669111 223.703017 
L 197.499853 223.716638 
L 198.430229 224.241626 
L 199.330594 223.5934 
L 201.191348 225.165597 
L 202.031688 224.644473 
L 202.962065 224.633734 
L 203.862429 223.739199 
L 204.792806 223.067912 
L 205.693171 223.123943 
L 206.623548 225.409542 
L 207.553924 226.640673 
L 208.454289 227.300227 
L 209.384666 226.691463 
L 210.285031 225.649686 
L 211.215407 225.952445 
L 212.145784 223.270312 
L 212.986124 222.514819 
L 213.916501 221.948185 
L 214.816866 222.07804 
L 215.747243 222.06381 
L 216.647607 221.890682 
L 217.577984 221.236299 
L 218.508361 221.444157 
L 220.339102 221.511224 
L 221.239467 221.271043 
L 222.169844 219.245168 
L 223.100221 219.534193 
L 223.970573 219.98479 
L 224.90095 219.949335 
L 225.801315 219.383325 
L 226.731691 219.887824 
L 227.632056 219.387679 
L 228.562433 219.190944 
L 229.49281 219.162343 
L 230.393174 219.625131 
L 231.323551 218.847513 
L 232.223916 217.825975 
L 233.154292 217.935913 
L 234.084669 217.505097 
L 234.92501 216.932642 
L 235.855386 217.457086 
L 237.686128 217.037024 
L 238.586493 217.017285 
L 240.447246 216.161306 
L 241.347611 215.887012 
L 242.277988 215.907348 
L 243.178352 215.610133 
L 244.108729 215.117448 
L 245.039106 215.259875 
L 245.879446 215.859932 
L 246.809823 217.025857 
L 248.640564 216.454399 
L 249.540929 216.713467 
L 250.471306 215.841678 
L 251.401683 215.657841 
L 253.232424 215.997869 
L 254.132789 216.339982 
L 255.063166 215.664879 
L 255.993542 214.515935 
L 256.833883 213.741867 
L 258.664624 211.562535 
L 259.595001 210.436532 
L 260.495366 209.054011 
L 261.425742 208.952668 
L 262.356119 207.53088 
L 263.256484 207.285852 
L 264.186861 206.264276 
L 265.087225 204.773046 
L 266.017602 204.960403 
L 266.947979 202.488093 
L 267.818331 202.822143 
L 268.748708 202.90917 
L 269.649073 201.905325 
L 270.57945 201.328481 
L 271.479814 203.087417 
L 272.410191 201.753369 
L 273.340568 200.942469 
L 274.240932 199.105339 
L 275.171309 196.664124 
L 276.071674 196.031812 
L 277.002051 194.466336 
L 277.932428 192.25008 
L 278.772768 192.748138 
L 279.703145 194.745213 
L 280.603509 189.670218 
L 281.533886 186.561111 
L 282.434251 183.039463 
L 283.364628 182.932576 
L 284.295004 182.306887 
L 285.195369 181.371491 
L 286.125746 182.113178 
L 287.02611 180.254602 
L 287.956487 180.219038 
L 289.727204 172.165958 
L 290.657581 169.682567 
L 291.557946 170.005383 
L 292.488323 170.009856 
L 293.388687 166.564432 
L 294.319064 172.432469 
L 295.249441 176.291574 
L 296.149806 175.528358 
L 297.080182 167.421862 
L 297.980547 164.005436 
L 298.910924 159.913127 
L 299.841301 160.081043 
L 300.681641 157.748008 
L 301.612018 154.542829 
L 302.512382 154.636573 
L 303.442759 155.216273 
L 304.343124 151.252031 
L 305.273501 155.182011 
L 306.203877 156.191263 
L 307.104242 157.541276 
L 308.034619 151.072562 
L 308.934983 148.310854 
L 309.86536 148.730002 
L 310.795737 151.802572 
L 311.66609 148.785888 
L 312.596466 147.412232 
L 313.496831 150.42298 
L 314.427208 147.825158 
L 315.327572 147.199256 
L 316.257949 146.239587 
L 317.188326 147.882688 
L 318.088691 153.341816 
L 319.019068 154.138786 
L 319.919432 157.248586 
L 320.849809 157.411395 
L 321.780186 159.735406 
L 322.620526 168.062031 
L 323.550903 168.020908 
L 324.451268 162.814995 
L 326.282009 167.039024 
L 327.212386 168.723798 
L 328.142763 178.11829 
L 329.043127 175.600493 
L 329.973504 171.740455 
L 330.873869 170.289864 
L 331.804245 170.703506 
L 332.734622 173.641287 
L 333.574963 170.339715 
L 334.505339 173.5417 
L 335.405704 175.680455 
L 336.336081 180.083017 
L 337.236446 187.609079 
L 338.166822 187.113414 
L 339.097199 190.17537 
L 339.997564 191.081067 
L 340.927941 187.216928 
L 342.758682 188.131801 
L 343.689059 192.49982 
L 344.529399 192.099617 
L 346.360141 185.624391 
L 347.290517 182.060288 
L 348.190882 181.731912 
L 349.121259 182.09981 
L 350.051636 180.19661 
L 350.952 178.715551 
L 351.882377 177.664539 
L 352.782742 175.385112 
L 353.713119 172.108973 
L 354.643495 171.687528 
L 355.513848 173.392423 
L 356.444225 172.900439 
L 357.344589 175.294429 
L 358.274966 173.416868 
L 359.175331 174.999152 
L 360.105708 176.069113 
L 361.036084 174.186436 
L 361.936449 174.503127 
L 362.866826 170.968433 
L 363.76719 168.532517 
L 364.697567 169.789376 
L 365.627944 168.913797 
L 366.468284 169.74097 
L 367.398661 172.17778 
L 368.299026 171.064466 
L 369.229403 169.396175 
L 370.129767 168.324102 
L 371.060144 168.485842 
L 371.990521 169.238069 
L 372.890885 171.496934 
L 373.821262 167.753861 
L 374.721627 165.663 
L 375.652004 165.076484 
L 376.582381 165.259203 
L 377.422721 164.477904 
L 378.353098 164.520933 
L 379.253462 165.603226 
L 380.183839 168.029985 
L 381.084204 167.684562 
L 382.014581 165.97474 
L 382.944957 163.440491 
L 383.845322 159.84556 
L 385.676063 156.087959 
L 386.60644 155.726314 
L 387.536817 154.73666 
L 388.377157 157.910322 
L 389.307534 154.699955 
L 390.207899 152.081569 
L 391.138276 151.933595 
L 392.03864 151.347174 
L 392.969017 155.292238 
L 394.799759 149.981433 
L 395.730135 155.316993 
L 396.6305 154.086823 
L 397.560877 160.849802 
L 398.491254 162.485993 
L 399.361606 165.495019 
L 400.291983 162.460984 
L 401.192347 160.977046 
L 402.122724 165.57571 
L 403.023089 171.081616 
L 403.953466 169.108075 
L 404.883843 172.893962 
L 405.784207 187.720048 
L 406.714584 191.92753 
L 407.614949 191.531748 
L 408.545325 192.415739 
L 409.475702 196.49988 
L 410.316043 199.631324 
L 411.246419 193.641811 
L 412.146784 190.103085 
L 413.077161 188.924567 
L 413.977525 188.057782 
L 414.907902 183.228231 
L 415.838279 180.858865 
L 418.569385 176.148675 
L 419.499762 175.408528 
L 420.430139 177.571835 
L 421.270479 173.615471 
L 422.200856 170.654169 
L 423.101221 175.34316 
L 424.031597 177.897174 
L 424.931962 178.025401 
L 425.862339 177.507729 
L 426.792716 175.126936 
L 427.69308 171.823261 
L 428.623457 169.923748 
L 429.523822 167.113097 
L 431.384575 162.424559 
L 432.224916 164.221324 
L 433.155292 162.885057 
L 434.055657 162.720843 
L 434.986034 165.804206 
L 435.886398 163.286225 
L 436.816775 172.452743 
L 437.747152 173.174228 
L 438.647517 170.708639 
L 440.478258 167.798677 
L 442.339012 161.112764 
L 443.209364 159.249795 
L 444.139741 159.553904 
L 445.040106 162.22681 
L 445.970483 163.103055 
L 447.801224 157.928138 
L 448.731601 155.581093 
L 449.631965 155.745376 
L 450.562342 157.966476 
L 451.462707 155.722129 
L 452.393084 152.009886 
L 453.32346 150.545877 
L 454.163801 148.117986 
L 455.094178 146.536591 
L 455.994542 142.020635 
L 456.924919 143.47291 
L 457.825284 140.066724 
L 458.75566 139.920273 
L 459.686037 138.741457 
L 460.586402 136.105488 
L 461.516779 131.490634 
L 462.417143 129.685174 
L 463.34752 128.972335 
L 464.277897 129.569754 
L 465.118237 127.093148 
L 466.048614 127.247031 
L 466.948979 125.805241 
L 467.879356 122.089892 
L 468.77972 120.133183 
L 469.710097 120.467672 
L 470.640474 118.271955 
L 471.540838 121.418986 
L 472.471215 113.380987 
L 473.37158 111.736519 
L 474.301957 112.618384 
L 475.232334 109.356793 
L 476.072674 110.105714 
L 477.003051 109.165523 
L 477.903415 108.50921 
L 478.833792 109.61069 
L 479.734157 109.72994 
L 480.664534 112.921263 
L 481.59491 118.867629 
L 482.495275 113.169713 
L 483.425652 108.876717 
L 484.326016 109.948437 
L 485.256393 119.114814 
L 486.18677 119.936866 
L 487.057123 112.289256 
L 487.987499 109.071628 
L 488.887864 110.061348 
L 489.818241 109.035275 
L 490.718605 104.170944 
L 491.648982 102.563121 
L 493.479724 104.474088 
L 494.4101 102.503614 
L 495.310465 96.756037 
L 496.240842 95.457469 
L 497.171219 91.985307 
L 498.011559 89.360608 
L 498.941936 90.07795 
L 500.772677 84.790616 
L 501.673042 83.047965 
L 502.603419 83.131827 
L 503.533796 81.271472 
L 504.43416 76.562974 
L 505.364537 73.818535 
L 506.264902 68.648137 
L 507.195278 60.885349 
L 508.125655 67.151438 
L 508.965996 67.443162 
L 509.896372 71.177367 
L 510.796737 68.432176 
L 511.727114 64.900708 
L 512.627478 61.994461 
L 513.557855 57.505729 
L 514.488232 54.506423 
L 515.388597 62.335512 
L 516.318973 65.600847 
L 517.219338 75.265607 
L 518.149715 72.578232 
L 519.080092 63.057179 
L 519.920432 60.49072 
L 520.850809 54.48731 
L 521.751174 57.878454 
L 522.68155 55.224677 
L 523.581915 48.12729 
L 524.512292 54.423838 
L 525.442669 48.563743 
L 526.343033 49.000288 
L 527.27341 40.001215 
L 528.173775 34.633321 
L 529.104151 28.301818 
L 530.034528 28.634423 
L 530.904881 70.004303 
L 531.835258 60.997124 
L 533.665999 38.082211 
L 534.566364 32.173323 
L 534.566364 32.173323 
" style="fill:none;stroke:#1f77b4;stroke-linecap:square;stroke-width:1.5;"/>
   </g>
   <g id="line2d_17">
    <path clip-path="url(#pb68cdb5d9c)" d="M 58.693636 224.824587 
L 59.533977 222.807404 
L 60.464353 222.878775 
L 61.364718 223.479013 
L 62.295095 224.652639 
L 63.19546 224.327639 
L 64.125836 224.126218 
L 65.056213 223.457324 
L 65.956578 221.894432 
L 66.886955 221.461928 
L 67.787319 221.835588 
L 68.717696 219.840342 
L 70.488413 218.482925 
L 71.41879 220.134714 
L 72.319155 220.263552 
L 73.249531 219.337958 
L 74.149896 218.786265 
L 75.080273 216.035326 
L 76.01065 215.362912 
L 76.911014 213.248248 
L 77.841391 216.629046 
L 78.741756 216.646174 
L 80.602509 211.492069 
L 82.373227 213.266537 
L 83.273591 210.952417 
L 84.203968 208.188475 
L 85.104333 206.356423 
L 86.034709 205.92883 
L 86.965086 198.717543 
L 87.865451 193.951179 
L 88.795828 194.383975 
L 89.696192 184.926206 
L 90.626569 156.926609 
L 91.556946 159.389946 
L 92.427298 175.598949 
L 93.357675 181.364844 
L 94.25804 182.348544 
L 95.188417 171.921383 
L 96.088781 166.123114 
L 97.019158 169.205311 
L 97.949535 163.832775 
L 98.8499 166.107711 
L 99.780276 171.578624 
L 100.680641 175.656629 
L 101.611018 181.018165 
L 102.541395 188.635366 
L 103.381735 189.180692 
L 104.312112 189.953386 
L 105.212476 192.353562 
L 106.142853 195.189765 
L 107.043218 201.744309 
L 107.973595 201.995232 
L 108.903971 198.615922 
L 109.804336 199.420358 
L 110.734713 202.34322 
L 111.635078 202.866187 
L 112.565454 205.949595 
L 113.495831 207.181436 
L 114.336171 212.107308 
L 115.266548 210.025724 
L 116.166913 212.157777 
L 117.09729 214.767166 
L 118.928031 209.726479 
L 119.858408 201.666253 
L 120.758773 203.480585 
L 121.689149 204.221757 
L 123.519891 196.853555 
L 124.450268 195.638163 
L 125.290608 203.566357 
L 126.220985 202.54362 
L 127.121349 202.37311 
L 128.051726 205.113476 
L 128.952091 204.276961 
L 129.882468 205.097465 
L 130.812844 205.73679 
L 131.713209 207.767064 
L 132.643586 209.243406 
L 133.543951 208.541477 
L 134.474327 210.595195 
L 135.404704 209.190914 
L 136.275057 208.364468 
L 137.205433 209.946625 
L 138.105798 210.516329 
L 139.036175 210.48925 
L 139.93654 213.785426 
L 140.866916 213.913668 
L 141.797293 214.76637 
L 142.697658 214.938757 
L 143.628035 214.830492 
L 144.528399 217.024555 
L 145.458776 218.781115 
L 146.389153 219.229256 
L 147.229493 219.004685 
L 148.15987 216.984207 
L 149.060235 217.948645 
L 149.990611 218.045935 
L 150.890976 218.014665 
L 151.821353 216.796102 
L 152.75173 217.513372 
L 153.652094 217.402195 
L 154.582471 217.54357 
L 155.482836 217.978638 
L 156.413213 215.770604 
L 157.343589 216.313304 
L 158.18393 215.471025 
L 159.114306 215.936765 
L 160.014671 215.871368 
L 160.945048 216.008992 
L 161.845413 215.448402 
L 162.775789 212.813942 
L 163.706166 208.928777 
L 164.606531 208.413291 
L 165.536908 211.046976 
L 166.437272 211.601682 
L 167.367649 210.216039 
L 168.298026 211.071156 
L 169.138366 210.499765 
L 170.068743 207.790718 
L 170.969108 205.864842 
L 171.899484 207.18035 
L 172.799849 207.193425 
L 173.730226 206.421214 
L 174.660603 206.725918 
L 175.560967 206.314908 
L 176.491344 206.132665 
L 177.391709 204.382455 
L 178.322086 205.358317 
L 179.252462 208.748217 
L 180.122815 208.79753 
L 181.053192 208.270871 
L 182.883933 208.575581 
L 183.784298 210.0262 
L 184.714675 210.76409 
L 185.645051 212.591017 
L 186.545416 213.338898 
L 187.475793 212.165373 
L 188.376157 212.290709 
L 190.236911 215.369209 
L 191.077251 215.363314 
L 192.007628 216.065635 
L 192.907993 217.405815 
L 193.83837 217.794486 
L 194.738734 217.229196 
L 195.669111 218.107793 
L 196.599488 218.527846 
L 197.499853 218.250589 
L 198.430229 215.990224 
L 199.330594 214.74977 
L 200.260971 215.064534 
L 201.191348 214.690152 
L 202.031688 216.774981 
L 202.962065 218.375374 
L 203.862429 218.948763 
L 204.792806 220.442645 
L 205.693171 219.804283 
L 206.623548 217.396565 
L 207.553924 218.087827 
L 208.454289 218.932637 
L 209.384666 218.958456 
L 210.285031 219.253761 
L 211.215407 218.923452 
L 212.145784 220.617618 
L 212.986124 220.688532 
L 213.916501 221.151817 
L 214.816866 221.308901 
L 215.747243 220.666715 
L 216.647607 220.57947 
L 217.577984 221.545424 
L 218.508361 222.309337 
L 219.408726 221.544193 
L 220.339102 221.537276 
L 221.239467 221.409381 
L 222.169844 222.024371 
L 223.100221 222.167968 
L 223.970573 223.010035 
L 224.90095 223.499898 
L 225.801315 223.665906 
L 226.731691 223.472797 
L 227.632056 222.642503 
L 228.562433 223.388214 
L 229.49281 223.333756 
L 230.393174 223.502588 
L 231.323551 224.241483 
L 232.223916 224.243823 
L 233.154292 224.790873 
L 234.92501 224.889356 
L 235.855386 224.070647 
L 236.755751 222.249696 
L 237.686128 221.9277 
L 238.586493 220.441766 
L 239.516869 221.423144 
L 240.447246 223.262111 
L 241.347611 222.751671 
L 243.178352 221.362792 
L 244.108729 221.157412 
L 245.039106 221.649991 
L 245.879446 221.574558 
L 246.809823 222.053065 
L 248.640564 221.601432 
L 249.540929 221.695319 
L 250.471306 222.182121 
L 251.401683 221.459714 
L 252.302047 221.562859 
L 254.132789 222.361159 
L 255.993542 222.769428 
L 256.833883 222.499881 
L 257.764259 221.920108 
L 258.664624 222.402244 
L 259.595001 222.288419 
L 260.495366 222.391916 
L 261.425742 222.646414 
L 263.256484 222.806454 
L 265.087225 222.477027 
L 266.017602 221.856891 
L 266.947979 221.517274 
L 267.818331 222.236338 
L 268.748708 222.58909 
L 269.649073 222.70037 
L 270.57945 223.176447 
L 271.479814 223.347998 
L 272.410191 223.122893 
L 274.240932 223.733557 
L 275.171309 223.98651 
L 276.071674 224.560145 
L 277.002051 225.597592 
L 277.932428 226.248467 
L 278.772768 225.912348 
L 279.703145 226.44786 
L 280.603509 226.473961 
L 281.533886 226.721768 
L 282.434251 227.881252 
L 283.364628 227.906931 
L 284.295004 228.05168 
L 285.195369 227.956223 
L 287.02611 230.302267 
L 287.956487 230.305506 
L 288.886864 229.782362 
L 289.727204 229.941784 
L 290.657581 229.145016 
L 291.557946 229.810343 
L 292.488323 230.275868 
L 293.388687 230.256758 
L 294.319064 230.844473 
L 295.249441 230.57818 
L 296.149806 230.108149 
L 297.980547 230.437202 
L 298.910924 230.744547 
L 299.841301 230.75672 
L 300.681641 230.89412 
L 302.512382 231.625153 
L 303.442759 232.621658 
L 304.343124 233.004888 
L 305.273501 232.997022 
L 306.203877 232.596619 
L 307.104242 229.640785 
L 308.034619 230.78753 
L 308.934983 231.415295 
L 309.86536 231.41504 
L 310.795737 230.499389 
L 311.66609 231.535408 
L 313.496831 232.276224 
L 314.427208 231.742363 
L 315.327572 231.981703 
L 316.257949 232.452532 
L 318.088691 232.821768 
L 319.019068 233.101788 
L 319.919432 232.730629 
L 320.849809 233.198188 
L 321.780186 233.500235 
L 322.620526 233.460359 
L 323.550903 233.675512 
L 324.451268 233.067704 
L 326.282009 233.310662 
L 327.212386 233.013258 
L 328.142763 232.499347 
L 329.043127 232.391648 
L 329.973504 232.78815 
L 330.873869 232.737812 
L 331.804245 232.427861 
L 332.734622 231.659797 
L 333.574963 231.838314 
L 334.505339 231.431265 
L 335.405704 230.742168 
L 336.336081 230.334257 
L 337.236446 230.827301 
L 338.166822 231.096813 
L 339.097199 230.6113 
L 339.997564 230.763084 
L 340.927941 230.615617 
L 341.828305 229.746109 
L 342.758682 228.449585 
L 343.689059 228.451835 
L 344.529399 229.619669 
L 345.459776 230.351576 
L 346.360141 228.739836 
L 347.290517 228.674837 
L 348.190882 229.053838 
L 349.121259 228.655634 
L 350.051636 227.578871 
L 350.952 227.541797 
L 351.882377 226.840568 
L 352.782742 225.804965 
L 353.713119 225.526826 
L 354.643495 226.214294 
L 356.444225 226.429428 
L 357.344589 227.741524 
L 359.175331 226.960052 
L 360.105708 226.876671 
L 361.036084 226.628205 
L 361.936449 225.920228 
L 362.866826 224.880087 
L 363.76719 224.570514 
L 364.697567 225.679188 
L 365.627944 225.851342 
L 366.468284 225.431301 
L 368.299026 226.195135 
L 369.229403 225.801375 
L 370.129767 226.213333 
L 371.990521 224.936583 
L 372.890885 224.227031 
L 373.821262 223.669146 
L 375.652004 219.846697 
L 376.582381 219.579591 
L 377.422721 219.653161 
L 378.353098 217.012348 
L 379.253462 213.753525 
L 380.183839 217.969263 
L 381.084204 216.217517 
L 382.014581 216.362939 
L 382.944957 217.850897 
L 383.845322 218.392489 
L 384.775699 216.219949 
L 385.676063 216.127216 
L 386.60644 216.184254 
L 387.536817 214.539855 
L 388.377157 215.332773 
L 389.307534 214.308243 
L 391.138276 215.832283 
L 392.03864 215.334702 
L 392.969017 215.309875 
L 395.730135 208.380883 
L 396.6305 208.591634 
L 397.560877 204.541101 
L 398.491254 202.832273 
L 399.361606 200.896435 
L 400.291983 204.140319 
L 401.192347 205.624631 
L 402.122724 206.041272 
L 403.023089 203.76452 
L 403.953466 208.487279 
L 404.883843 209.184604 
L 405.784207 209.370354 
L 406.714584 211.34823 
L 407.614949 207.800916 
L 408.545325 206.072661 
L 409.475702 202.163992 
L 410.316043 202.969146 
L 411.246419 204.751438 
L 412.146784 203.174962 
L 413.077161 202.53268 
L 413.977525 203.128528 
L 414.907902 202.479642 
L 416.738644 197.916322 
L 417.669021 193.880388 
L 418.569385 193.34327 
L 419.499762 194.293919 
L 420.430139 195.477466 
L 421.270479 194.729965 
L 422.200856 193.214334 
L 423.101221 190.528119 
L 424.031597 189.097641 
L 424.931962 190.890065 
L 425.862339 190.117619 
L 426.792716 187.320597 
L 427.69308 183.900253 
L 428.623457 182.534119 
L 429.523822 181.591612 
L 430.454198 183.512885 
L 431.384575 183.313916 
L 433.155292 179.481183 
L 434.055657 178.026574 
L 434.986034 177.185051 
L 435.886398 175.353917 
L 436.816775 166.567551 
L 437.747152 165.699111 
L 438.647517 170.836893 
L 439.577894 167.561095 
L 440.478258 171.292947 
L 441.408635 171.476548 
L 442.339012 167.742759 
L 443.209364 171.521292 
L 444.139741 172.984954 
L 445.040106 175.838391 
L 445.970483 175.24157 
L 446.870847 175.253089 
L 447.801224 174.140537 
L 448.731601 169.117752 
L 449.631965 168.882604 
L 450.562342 169.518228 
L 451.462707 171.021567 
L 452.393084 171.968438 
L 454.163801 176.50286 
L 455.094178 181.24752 
L 456.924919 188.071864 
L 457.825284 190.759985 
L 458.75566 188.0626 
L 459.686037 187.978263 
L 461.516779 190.944543 
L 462.417143 193.494295 
L 463.34752 192.722194 
L 464.277897 190.403429 
L 465.118237 189.072781 
L 466.048614 190.952724 
L 467.879356 192.218232 
L 468.77972 190.623347 
L 469.710097 191.241671 
L 470.640474 193.7798 
L 471.540838 194.437654 
L 472.471215 196.268667 
L 473.37158 194.874484 
L 474.301957 192.38563 
L 475.232334 193.460559 
L 476.072674 196.070733 
L 477.003051 195.384846 
L 477.903415 195.684268 
L 478.833792 196.56157 
L 479.734157 198.829256 
L 480.664534 199.38649 
L 481.59491 198.977754 
L 482.495275 197.510443 
L 483.425652 200.48924 
L 484.326016 201.226515 
L 485.256393 200.075426 
L 486.18677 195.652593 
L 487.057123 193.580275 
L 487.987499 194.06027 
L 488.887864 193.470717 
L 489.818241 193.042068 
L 490.718605 190.120992 
L 491.648982 190.023417 
L 492.579359 190.794951 
L 493.479724 193.41301 
L 494.4101 194.591111 
L 495.310465 198.501807 
L 497.171219 195.399497 
L 498.011559 195.545138 
L 498.941936 194.130491 
L 499.8423 195.131999 
L 500.772677 194.483419 
L 501.673042 195.585947 
L 502.603419 193.72159 
L 503.533796 192.488513 
L 504.43416 194.024891 
L 505.364537 193.917635 
L 506.264902 194.642691 
L 507.195278 192.050872 
L 508.125655 192.268361 
L 508.965996 192.748215 
L 509.896372 192.55664 
L 510.796737 194.136359 
L 511.727114 195.13386 
L 512.627478 197.002148 
L 513.557855 198.562521 
L 514.488232 198.733937 
L 515.388597 198.168451 
L 516.318973 197.719192 
L 517.219338 196.339076 
L 518.149715 194.671485 
L 519.080092 193.715253 
L 519.920432 194.760472 
L 520.850809 195.659023 
L 521.751174 195.989299 
L 522.68155 192.834522 
L 523.581915 190.596101 
L 524.512292 187.164182 
L 525.442669 186.663225 
L 527.27341 188.365512 
L 528.173775 187.973621 
L 529.104151 184.877238 
L 530.034528 183.480771 
L 530.904881 183.545814 
L 531.835258 179.5143 
L 532.735622 178.032128 
L 533.665999 177.662027 
L 534.566364 173.62824 
L 534.566364 173.62824 
" style="fill:none;stroke:#ff7f0e;stroke-linecap:square;stroke-width:1.5;"/>
   </g>
   <g id="line2d_18">
    <path clip-path="url(#pb68cdb5d9c)" d="M 58.693636 231.905534 
L 59.533977 228.145517 
L 60.464353 229.518472 
L 61.364718 230.394061 
L 62.295095 231.618983 
L 63.19546 231.56364 
L 64.125836 227.214072 
L 65.056213 231.563758 
L 65.956578 229.334636 
L 66.886955 229.132979 
L 67.787319 230.131575 
L 68.717696 228.754139 
L 69.648073 229.879077 
L 71.41879 230.167534 
L 72.319155 230.598987 
L 73.249531 230.231361 
L 74.149896 230.068971 
L 75.080273 226.910486 
L 76.01065 226.291292 
L 76.911014 223.962394 
L 77.841391 227.838097 
L 78.741756 230.937178 
L 80.602509 228.628336 
L 81.44285 228.125611 
L 82.373227 228.693004 
L 83.273591 228.267664 
L 84.203968 226.360396 
L 85.104333 226.366236 
L 86.034709 229.015874 
L 86.965086 226.46566 
L 87.865451 224.876599 
L 88.795828 227.685163 
L 89.696192 224.74384 
L 90.626569 216.314207 
L 91.556946 211.511697 
L 92.427298 211.909129 
L 93.357675 218.987918 
L 94.25804 218.76368 
L 95.188417 215.134774 
L 96.088781 208.801915 
L 97.019158 207.604151 
L 97.949535 199.134625 
L 98.8499 189.285092 
L 99.780276 195.175564 
L 100.680641 193.73865 
L 101.611018 206.828683 
L 102.541395 211.959889 
L 103.381735 217.468115 
L 104.312112 211.814957 
L 105.212476 210.957149 
L 106.142853 214.222067 
L 107.043218 218.871125 
L 107.973595 213.718256 
L 108.903971 212.780984 
L 109.804336 216.610862 
L 110.734713 216.971973 
L 111.635078 220.161556 
L 112.565454 222.406898 
L 113.495831 224.001524 
L 114.336171 231.13673 
L 115.266548 228.286816 
L 117.997654 234.310154 
L 118.928031 232.303685 
L 119.858408 225.58529 
L 120.758773 224.770776 
L 121.689149 219.649334 
L 122.589514 216.620472 
L 123.519891 208.77054 
L 124.450268 206.001241 
L 125.290608 212.665598 
L 126.220985 211.15947 
L 127.121349 207.761988 
L 128.051726 208.570538 
L 128.952091 210.733154 
L 129.882468 211.091348 
L 130.812844 210.105971 
L 131.713209 217.111536 
L 132.643586 220.648372 
L 133.543951 217.723368 
L 134.474327 218.336758 
L 136.275057 212.468999 
L 137.205433 214.809892 
L 138.105798 214.60115 
L 139.036175 216.579889 
L 139.93654 222.674817 
L 140.866916 222.909875 
L 141.797293 221.881983 
L 142.697658 220.085893 
L 143.628035 221.001168 
L 144.528399 222.761283 
L 145.458776 220.012571 
L 146.389153 221.809286 
L 147.229493 216.042857 
L 148.15987 218.286885 
L 149.060235 217.882185 
L 149.990611 217.715504 
L 150.890976 213.549765 
L 151.821353 213.158177 
L 152.75173 216.810757 
L 153.652094 217.550729 
L 154.582471 216.558652 
L 155.482836 218.256613 
L 156.413213 215.214803 
L 157.343589 218.459266 
L 158.18393 220.644826 
L 159.114306 223.391532 
L 160.014671 223.190883 
L 160.945048 225.169121 
L 161.845413 223.441823 
L 162.775789 219.336448 
L 163.706166 217.04615 
L 164.606531 217.288786 
L 165.536908 215.980255 
L 166.437272 217.239041 
L 167.367649 213.948951 
L 168.298026 207.301833 
L 169.138366 196.246385 
L 170.068743 194.303701 
L 170.969108 198.231494 
L 171.899484 200.884485 
L 172.799849 190.092433 
L 173.730226 189.831243 
L 174.660603 186.853474 
L 175.560967 206.309931 
L 176.491344 197.815226 
L 177.391709 198.150494 
L 178.322086 207.324995 
L 179.252462 203.858712 
L 180.122815 202.61231 
L 181.053192 203.419839 
L 181.953556 200.804328 
L 183.784298 201.421372 
L 185.645051 207.215341 
L 186.545416 207.927438 
L 187.475793 206.325306 
L 188.376157 208.357504 
L 189.306534 208.801748 
L 190.236911 204.841142 
L 192.007628 209.906441 
L 192.907993 213.153138 
L 193.83837 209.863952 
L 194.738734 210.838698 
L 196.599488 206.146777 
L 197.499853 204.988961 
L 198.430229 198.569365 
L 199.330594 198.101932 
L 200.260971 194.614534 
L 201.191348 196.021764 
L 202.962065 207.145369 
L 203.862429 203.129493 
L 204.792806 206.618339 
L 205.693171 201.592153 
L 206.623548 204.803741 
L 207.553924 205.531568 
L 208.454289 213.319861 
L 209.384666 215.247247 
L 210.285031 210.149003 
L 211.215407 216.850557 
L 212.145784 214.988074 
L 212.986124 215.812054 
L 213.916501 216.331197 
L 214.816866 215.126566 
L 215.747243 211.817435 
L 216.647607 213.328479 
L 217.577984 216.764061 
L 218.508361 215.373322 
L 220.339102 213.430952 
L 221.239467 214.132664 
L 222.169844 211.08867 
L 223.100221 212.360451 
L 223.970573 214.885584 
L 224.90095 216.881088 
L 225.801315 214.989375 
L 226.731691 214.248981 
L 227.632056 213.387104 
L 228.562433 215.743628 
L 229.49281 217.000607 
L 231.323551 222.908667 
L 232.223916 222.150311 
L 233.154292 221.829401 
L 234.084669 218.780771 
L 235.855386 207.723911 
L 236.755751 200.005726 
L 237.686128 198.28597 
L 238.586493 191.584982 
L 239.516869 199.018804 
L 240.447246 204.419467 
L 241.347611 196.952267 
L 242.277988 198.157584 
L 243.178352 190.208672 
L 244.108729 192.157905 
L 245.039106 196.080112 
L 245.879446 197.476952 
L 246.809823 199.65534 
L 247.710188 198.168084 
L 248.640564 199.504345 
L 249.540929 197.791266 
L 250.471306 195.364992 
L 251.401683 189.250292 
L 252.302047 193.643981 
L 253.232424 200.602125 
L 254.132789 198.370068 
L 255.063166 207.264686 
L 255.993542 205.145903 
L 256.833883 200.116848 
L 257.764259 199.705388 
L 258.664624 200.841717 
L 259.595001 199.658787 
L 260.495366 199.786555 
L 261.425742 199.34364 
L 262.356119 199.552181 
L 263.256484 206.058146 
L 264.186861 201.586542 
L 265.087225 201.203048 
L 266.017602 191.6617 
L 266.947979 190.987751 
L 268.748708 191.845817 
L 269.649073 190.778241 
L 270.57945 199.640356 
L 271.479814 200.251306 
L 272.410191 199.467869 
L 273.340568 204.025914 
L 274.240932 203.536196 
L 275.171309 203.757251 
L 276.071674 204.944354 
L 277.002051 208.126796 
L 277.932428 203.189579 
L 278.772768 209.415073 
L 279.703145 213.95409 
L 280.603509 211.486058 
L 281.533886 215.803327 
L 282.434251 215.331886 
L 283.364628 215.44881 
L 284.295004 212.820124 
L 286.125746 225.992509 
L 287.02611 224.031687 
L 287.956487 222.652704 
L 288.886864 223.675087 
L 289.727204 222.101175 
L 290.657581 218.504195 
L 291.557946 223.579091 
L 293.388687 228.060082 
L 294.319064 231.61505 
L 295.249441 223.378987 
L 296.149806 223.155319 
L 297.080182 224.522094 
L 297.980547 227.543113 
L 298.910924 227.461249 
L 299.841301 228.914931 
L 300.681641 229.033927 
L 301.612018 225.715256 
L 302.512382 230.058116 
L 303.442759 228.807596 
L 304.343124 229.807206 
L 305.273501 228.618638 
L 306.203877 223.374991 
L 307.104242 226.877361 
L 308.034619 227.892732 
L 308.934983 228.071216 
L 309.86536 230.632853 
L 310.795737 230.154568 
L 311.66609 231.742916 
L 312.596466 232.326013 
L 314.427208 231.287901 
L 315.327572 233.092339 
L 316.257949 232.888523 
L 317.188326 233.846737 
L 318.088691 236.235585 
L 319.019068 235.523014 
L 319.919432 234.206377 
L 320.849809 234.658366 
L 321.780186 233.676433 
L 322.620526 235.255666 
L 323.550903 232.974747 
L 324.451268 232.488241 
L 325.381644 232.532373 
L 326.282009 232.887373 
L 327.212386 231.83277 
L 328.142763 230.324186 
L 329.043127 231.206981 
L 329.973504 231.745051 
L 330.873869 231.134773 
L 333.574963 221.790613 
L 334.505339 219.628161 
L 335.405704 213.932343 
L 337.236446 224.082124 
L 338.166822 220.174041 
L 339.097199 219.008646 
L 339.997564 223.138245 
L 340.927941 223.254495 
L 341.828305 216.186853 
L 342.758682 216.463118 
L 343.689059 218.75371 
L 344.529399 221.492067 
L 345.459776 222.454675 
L 346.360141 218.569907 
L 348.190882 216.931749 
L 349.121259 213.281988 
L 350.051636 212.62651 
L 351.882377 206.372043 
L 352.782742 206.117432 
L 353.713119 211.090184 
L 354.643495 210.95633 
L 355.513848 208.569741 
L 356.444225 217.288114 
L 357.344589 214.509503 
L 358.274966 216.924375 
L 359.175331 216.350272 
L 361.036084 210.913232 
L 362.866826 208.21068 
L 364.697567 214.09554 
L 365.627944 211.90547 
L 366.468284 213.944222 
L 367.398661 217.568034 
L 368.299026 216.300002 
L 369.229403 213.184412 
L 370.129767 214.21899 
L 371.060144 212.695731 
L 371.990521 205.078295 
L 372.890885 209.053171 
L 373.821262 204.990166 
L 374.721627 198.679331 
L 375.652004 189.507057 
L 376.582381 197.02038 
L 377.422721 193.450493 
L 378.353098 187.149088 
L 379.253462 192.613147 
L 380.183839 193.246033 
L 381.084204 192.909434 
L 382.014581 191.941176 
L 382.944957 197.767719 
L 383.845322 194.343588 
L 384.775699 188.573814 
L 385.676063 190.529922 
L 386.60644 191.986933 
L 387.536817 191.195565 
L 388.377157 193.566588 
L 389.307534 193.767779 
L 391.138276 197.90785 
L 392.03864 193.921054 
L 392.969017 196.035406 
L 393.899394 184.302521 
L 394.799759 176.139267 
L 395.730135 181.696621 
L 396.6305 182.090565 
L 397.560877 174.857621 
L 398.491254 169.750023 
L 399.361606 180.575585 
L 400.291983 186.814565 
L 402.122724 177.152439 
L 403.023089 187.911349 
L 403.953466 194.828953 
L 404.883843 197.602518 
L 405.784207 216.475377 
L 407.614949 196.01286 
L 408.545325 194.86185 
L 409.475702 197.295784 
L 410.316043 192.134669 
L 411.246419 198.837974 
L 412.146784 183.791525 
L 413.077161 191.400431 
L 413.977525 189.843264 
L 414.907902 190.028315 
L 415.838279 182.93258 
L 416.738644 184.971536 
L 417.669021 173.944509 
L 418.569385 180.175944 
L 419.499762 187.811224 
L 420.430139 183.654041 
L 421.270479 182.465835 
L 422.200856 173.290782 
L 423.101221 174.965597 
L 424.031597 171.590582 
L 424.931962 176.628218 
L 425.862339 168.105653 
L 426.792716 163.613725 
L 428.623457 161.755504 
L 429.523822 158.913252 
L 430.454198 168.913999 
L 431.384575 163.276007 
L 432.224916 163.508897 
L 433.155292 160.1325 
L 434.055657 165.88108 
L 434.986034 169.546231 
L 435.886398 165.82739 
L 436.816775 159.434954 
L 437.747152 170.781698 
L 438.647517 165.747824 
L 439.577894 163.702443 
L 440.478258 176.295268 
L 441.408635 169.614974 
L 442.339012 170.767028 
L 443.209364 181.023588 
L 445.040106 189.97157 
L 445.970483 189.196867 
L 446.870847 190.478502 
L 447.801224 186.185982 
L 448.731601 177.363104 
L 449.631965 179.681943 
L 450.562342 184.977453 
L 452.393084 191.68907 
L 453.32346 197.289687 
L 454.163801 198.259661 
L 455.094178 208.101083 
L 455.994542 209.313657 
L 456.924919 217.877661 
L 457.825284 214.107472 
L 458.75566 211.397227 
L 459.686037 214.560405 
L 460.586402 214.559342 
L 461.516779 219.004001 
L 462.417143 220.479892 
L 464.277897 212.913195 
L 465.118237 215.834645 
L 466.048614 214.79728 
L 466.948979 216.963373 
L 467.879356 211.801059 
L 468.77972 212.195187 
L 469.710097 211.050821 
L 470.640474 218.337549 
L 471.540838 223.703681 
L 472.471215 222.041576 
L 473.37158 221.534726 
L 474.301957 215.552111 
L 475.232334 216.789564 
L 476.072674 221.363005 
L 477.003051 218.361478 
L 477.903415 219.239968 
L 478.833792 221.843568 
L 479.734157 227.243181 
L 480.664534 226.898211 
L 481.59491 227.075179 
L 482.495275 224.554367 
L 483.425652 226.64655 
L 484.326016 226.105462 
L 485.256393 224.681444 
L 486.18677 216.257488 
L 487.057123 215.109523 
L 487.987499 206.996331 
L 488.887864 212.004481 
L 489.818241 203.795638 
L 490.718605 199.631638 
L 491.648982 207.985222 
L 492.579359 206.458942 
L 493.479724 209.752932 
L 494.4101 215.823764 
L 495.310465 214.924751 
L 496.240842 210.774423 
L 497.171219 211.750242 
L 498.011559 211.926205 
L 498.941936 212.389597 
L 499.8423 211.667007 
L 500.772677 213.060904 
L 501.673042 211.876076 
L 502.603419 209.238506 
L 503.533796 212.049262 
L 504.43416 212.564205 
L 505.364537 212.657017 
L 506.264902 210.710516 
L 507.195278 210.010554 
L 508.125655 214.618158 
L 508.965996 213.825191 
L 509.896372 213.5314 
L 510.796737 213.91856 
L 511.727114 214.115681 
L 512.627478 215.703294 
L 513.557855 219.77217 
L 514.488232 219.983653 
L 515.388597 218.840945 
L 516.318973 218.100958 
L 517.219338 215.294574 
L 518.149715 211.814848 
L 519.080092 213.096118 
L 519.920432 212.893983 
L 520.850809 215.680426 
L 521.751174 214.442741 
L 522.68155 207.257449 
L 523.581915 205.891441 
L 524.512292 200.942837 
L 525.442669 205.363622 
L 526.343033 203.297482 
L 527.27341 205.292742 
L 528.173775 201.288449 
L 529.104151 201.760318 
L 530.034528 206.467996 
L 530.904881 211.462893 
L 531.835258 195.669791 
L 532.735622 194.193692 
L 533.665999 190.56493 
L 534.566364 180.010308 
L 534.566364 180.010308 
" style="fill:none;stroke:#2ca02c;stroke-linecap:square;stroke-width:1.5;"/>
   </g>
   <g id="legend_1">
    <g id="patch_3">
     <path d="M 43.0634 71.250578 
L 158.373247 71.250578 
Q 160.705647 71.250578 160.705647 68.918178 
L 160.705647 25.8034 
Q 160.705647 23.471 158.373247 23.471 
L 43.0634 23.471 
Q 40.731 23.471 40.731 25.8034 
L 40.731 68.918178 
Q 40.731 71.250578 43.0634 71.250578 
z
" style="fill:#ffffff;opacity:0.8;stroke:#cccccc;stroke-linejoin:miter;"/>
    </g>
    <g id="line2d_19">
     <path d="M 45.3958 32.505406 
L 68.7198 32.505406 
" style="fill:none;stroke:#1f77b4;stroke-linecap:square;stroke-width:1.5;"/>
    </g>
    <g id="line2d_20"/>
    <g id="text_16">
     <!--  -->
     <defs>
      <path d="M 16.546875 -0.984375 
Q 10.015625 -0.984375 6.734375 3.21875 
Q 3.46875 7.421875 3.46875 14.75 
Q 3.46875 19.96875 5.09375 23.3125 
Q 6.734375 26.65625 9.34375 28.5625 
Q 11.96875 30.46875 15.328125 31.203125 
Q 18.703125 31.9375 22.171875 32.03125 
L 31.9375 32.234375 
L 31.9375 35.109375 
Q 31.9375 38.375 31.375 40.671875 
Q 30.8125 42.96875 29.640625 44.375 
Q 28.46875 45.796875 26.734375 46.453125 
Q 25 47.125 22.609375 47.125 
Q 20.515625 47.125 18.84375 46.75 
Q 17.1875 46.390625 15.9375 45.4375 
Q 14.703125 44.484375 13.9375 42.84375 
Q 13.1875 41.21875 12.9375 38.71875 
L 5.421875 39.546875 
Q 5.8125 42.671875 6.9375 45.28125 
Q 8.0625 47.90625 10.109375 49.796875 
Q 12.15625 51.703125 15.25 52.75 
Q 18.359375 53.8125 22.796875 53.8125 
Q 30.953125 53.8125 35.078125 49.234375 
Q 39.203125 44.671875 39.203125 36.03125 
L 39.203125 13.28125 
Q 39.203125 9.375 40.03125 7.390625 
Q 40.875 5.421875 43.265625 5.421875 
Q 43.84375 5.421875 44.453125 5.515625 
Q 45.0625 5.609375 45.609375 5.765625 
L 45.609375 0.296875 
Q 44.234375 -0.09375 42.890625 -0.28125 
Q 41.546875 -0.484375 40.046875 -0.484375 
Q 37.984375 -0.484375 36.515625 0.171875 
Q 35.0625 0.828125 34.15625 2.171875 
Q 33.25 3.515625 32.765625 5.484375 
Q 32.28125 7.46875 32.125 10.109375 
L 31.9375 10.109375 
Q 30.765625 7.5625 29.375 5.515625 
Q 27.984375 3.46875 26.140625 2.03125 
Q 24.3125 0.59375 21.9375 -0.1875 
Q 19.578125 -0.984375 16.546875 -0.984375 
z
M 18.21875 5.609375 
Q 21.6875 5.609375 24.25 7.140625 
Q 26.8125 8.6875 28.515625 11.078125 
Q 30.21875 13.484375 31.078125 16.3125 
Q 31.9375 19.140625 31.9375 21.734375 
L 31.9375 26.078125 
L 24.03125 25.875 
Q 21.390625 25.828125 19 25.40625 
Q 16.609375 25 14.8125 23.78125 
Q 13.03125 22.5625 11.953125 20.359375 
Q 10.890625 18.171875 10.890625 14.59375 
Q 10.890625 10.296875 12.796875 7.953125 
Q 14.703125 5.609375 18.21875 5.609375 
z
" id="LiberationSansNarrow-1072"/>
      <path d="M 5.515625 52.828125 
L 12.703125 52.828125 
L 12.703125 29.6875 
Q 13.921875 29.6875 14.875 30.078125 
Q 15.828125 30.46875 16.875 31.6875 
Q 17.921875 32.90625 19.21875 35.15625 
Q 20.515625 37.40625 22.46875 41.15625 
L 28.375 52.828125 
L 35.890625 52.828125 
L 27.25 36.96875 
Q 25.4375 33.734375 24.109375 31.65625 
Q 22.796875 29.59375 22.125 28.90625 
L 36.234375 0 
L 28.21875 0 
L 17.140625 24.265625 
Q 16.359375 23.875 15.0625 23.578125 
Q 13.765625 23.296875 12.703125 23.296875 
L 12.703125 0 
L 5.515625 0 
z
" id="LiberationSansNarrow-1082"/>
      <path d="M 12.890625 52.828125 
L 12.890625 6.390625 
L 31.984375 6.390625 
L 31.984375 52.828125 
L 39.203125 52.828125 
L 39.203125 6.390625 
L 45.0625 6.390625 
L 45.0625 -19.921875 
L 38.578125 -19.921875 
L 38.578125 0 
L 5.671875 0 
L 5.671875 52.828125 
z
" id="LiberationSansNarrow-1094"/>
      <path d="M 12.640625 52.828125 
L 12.640625 23.921875 
Q 12.640625 22.796875 12.59375 20.921875 
Q 12.546875 19.046875 12.46875 17.046875 
Q 12.40625 15.046875 12.359375 13.234375 
Q 12.3125 11.421875 12.25 10.40625 
L 32.28125 52.828125 
L 40.140625 52.828125 
L 40.140625 0 
L 33.25 0 
L 33.25 32.234375 
Q 33.25 33.15625 33.296875 34.578125 
L 33.40625 37.40625 
Q 33.453125 38.875 33.5 40.234375 
L 33.640625 42.625 
L 13.375 0 
L 5.71875 0 
L 5.71875 52.828125 
z
" id="LiberationSansNarrow-1080"/>
     </defs>
     <g transform="translate(78.0494 36.587106)scale(0.11662 -0.11662)">
      <use xlink:href="#LiberationSansNarrow-1072"/>
      <use x="45.605469" xlink:href="#LiberationSansNarrow-1082"/>
      <use x="81.445312" xlink:href="#LiberationSansNarrow-1094"/>
      <use x="128.417969" xlink:href="#LiberationSansNarrow-1080"/>
      <use x="174.267578" xlink:href="#LiberationSansNarrow-1080"/>
     </g>
    </g>
    <g id="line2d_21">
     <path d="M 45.3958 46.292076 
L 68.7198 46.292076 
" style="fill:none;stroke:#ff7f0e;stroke-linecap:square;stroke-width:1.5;"/>
    </g>
    <g id="line2d_22"/>
    <g id="text_17">
     <!--  -->
     <defs>
      <path d="M 18.3125 -0.984375 
Q 11.625 -0.984375 7.6875 2.0625 
Q 3.765625 5.125 1.953125 11.421875 
L 8.296875 13.578125 
Q 9.28125 9.765625 11.8125 7.65625 
Q 14.359375 5.5625 18.453125 5.5625 
Q 22.3125 5.5625 24.578125 7.859375 
Q 26.859375 10.15625 26.859375 14.59375 
Q 26.859375 17.484375 25.734375 19.390625 
Q 24.609375 21.296875 22.78125 22.390625 
Q 20.953125 23.484375 18.546875 23.921875 
Q 16.15625 24.359375 13.578125 24.359375 
L 13.578125 31.0625 
Q 16.109375 31.0625 18.40625 31.421875 
Q 20.703125 31.78125 22.4375 32.703125 
Q 24.171875 33.640625 25.140625 35.28125 
Q 26.125 36.921875 26.125 39.453125 
Q 26.125 43.0625 24.140625 45.15625 
Q 22.171875 47.265625 18.453125 47.265625 
Q 17.046875 47.265625 15.65625 46.921875 
Q 14.265625 46.578125 13.03125 45.765625 
Q 11.8125 44.96875 10.984375 43.625 
Q 10.15625 42.28125 9.859375 40.234375 
L 3.421875 41.21875 
Q 3.90625 44.53125 5.125 46.921875 
Q 6.34375 49.3125 8.296875 50.84375 
Q 10.25 52.390625 12.78125 53.09375 
Q 15.328125 53.8125 18.453125 53.8125 
Q 21.875 53.8125 24.625 52.78125 
Q 27.390625 51.765625 29.34375 49.90625 
Q 31.296875 48.046875 32.375 45.5 
Q 33.453125 42.96875 33.453125 39.890625 
Q 33.453125 37.109375 32.5625 34.953125 
Q 31.6875 32.8125 30.25 31.3125 
Q 28.8125 29.828125 27.046875 28.953125 
Q 25.296875 28.078125 23.53125 27.875 
L 23.53125 27.78125 
Q 25.78125 27.484375 27.75 26.484375 
Q 29.734375 25.484375 31.25 23.84375 
Q 32.765625 22.21875 33.609375 19.9375 
Q 34.46875 17.671875 34.46875 14.84375 
Q 34.46875 11.46875 33.484375 8.5625 
Q 32.515625 5.671875 30.484375 3.546875 
Q 28.46875 1.421875 25.4375 0.21875 
Q 22.40625 -0.984375 18.3125 -0.984375 
z
" id="LiberationSansNarrow-1079"/>
      <path d="M 42.140625 26.46875 
Q 42.140625 12.59375 37.125 5.796875 
Q 32.125 -0.984375 22.609375 -0.984375 
Q 18.0625 -0.984375 14.515625 0.671875 
Q 10.984375 2.34375 8.515625 5.765625 
Q 6.0625 9.1875 4.765625 14.328125 
Q 3.46875 19.484375 3.46875 26.46875 
Q 3.46875 53.8125 22.859375 53.8125 
Q 27.875 53.8125 31.5625 52.09375 
Q 35.25 50.390625 37.59375 46.96875 
Q 39.9375 43.5625 41.03125 38.421875 
Q 42.140625 33.296875 42.140625 26.46875 
z
M 34.578125 26.46875 
Q 34.578125 32.625 33.8125 36.625 
Q 33.0625 40.625 31.546875 43.015625 
Q 30.03125 45.40625 27.859375 46.359375 
Q 25.6875 47.3125 23 47.3125 
Q 20.21875 47.3125 17.984375 46.3125 
Q 15.765625 45.3125 14.203125 42.890625 
Q 12.640625 40.484375 11.828125 36.46875 
Q 11.03125 32.46875 11.03125 26.46875 
Q 11.03125 20.3125 11.90625 16.28125 
Q 12.796875 12.25 14.328125 9.859375 
Q 15.875 7.46875 17.96875 6.484375 
Q 20.0625 5.515625 22.5625 5.515625 
Q 25.34375 5.515625 27.5625 6.46875 
Q 29.78125 7.421875 31.34375 9.8125 
Q 32.90625 12.203125 33.734375 16.25 
Q 34.578125 20.3125 34.578125 26.46875 
z
" id="LiberationSansNarrow-1086"/>
      <path d="M 34.859375 0 
L 34.859375 46.4375 
L 19.875 46.4375 
Q 18.890625 37.453125 18.03125 30.4375 
Q 17.1875 23.4375 16.3125 18.15625 
Q 15.4375 12.890625 14.40625 9.25 
Q 13.375 5.609375 11.953125 3.34375 
Q 10.546875 1.078125 8.65625 0.046875 
Q 6.78125 -0.984375 4.203125 -0.984375 
Q 3.03125 -0.984375 2.078125 -0.78125 
Q 1.125 -0.59375 0.4375 -0.34375 
L 0.4375 5.953125 
Q 0.875 5.765625 1.625 5.640625 
Q 2.390625 5.515625 3.171875 5.515625 
Q 4.59375 5.515625 5.59375 6.53125 
Q 6.59375 7.5625 7.390625 9.859375 
Q 8.203125 12.15625 8.859375 15.796875 
Q 9.515625 19.4375 10.203125 24.703125 
Q 10.890625 29.984375 11.625 36.921875 
L 13.375 52.828125 
L 42.140625 52.828125 
L 42.140625 0 
z
" id="LiberationSansNarrow-1083"/>
      <path d="M 1.421875 52.828125 
L 36.140625 52.828125 
L 36.140625 46.4375 
L 22.359375 46.4375 
L 22.359375 0 
L 15.1875 0 
L 15.1875 46.4375 
L 1.421875 46.4375 
z
" id="LiberationSansNarrow-1090"/>
     </defs>
     <g transform="translate(78.0494 50.373776)scale(0.11662 -0.11662)">
      <use xlink:href="#LiberationSansNarrow-1079"/>
      <use x="37.533203" xlink:href="#LiberationSansNarrow-1086"/>
      <use x="83.107422" xlink:href="#LiberationSansNarrow-1083"/>
      <use x="130.925781" xlink:href="#LiberationSansNarrow-1086"/>
      <use x="176.5" xlink:href="#LiberationSansNarrow-1090"/>
      <use x="214.033203" xlink:href="#LiberationSansNarrow-1086"/>
     </g>
    </g>
    <g id="line2d_23">
     <path d="M 45.3958 60.084213 
L 68.7198 60.084213 
" style="fill:none;stroke:#2ca02c;stroke-linecap:square;stroke-width:1.5;"/>
    </g>
    <g id="line2d_24"/>
    <g id="text_18">
     <!--  -->
     <defs>
      <path d="M 33.34375 46.4375 
L 21.140625 46.4375 
Q 20.171875 37.796875 19.1875 31.375 
Q 18.21875 24.953125 17.234375 20.21875 
Q 16.265625 15.484375 15.3125 12.15625 
Q 14.359375 8.84375 13.484375 6.390625 
L 33.34375 6.390625 
z
M 46.390625 -19.921875 
L 39.890625 -19.921875 
L 39.890625 0 
L 7.328125 0 
L 7.328125 -19.921875 
L 0.78125 -19.921875 
L 0.78125 6.390625 
L 5.5625 6.390625 
Q 6.78125 8.84375 7.921875 12.328125 
Q 9.078125 15.828125 10.21875 21.1875 
Q 11.375 26.5625 12.515625 34.25 
Q 13.671875 41.9375 14.796875 52.828125 
L 40.578125 52.828125 
L 40.578125 6.390625 
L 46.390625 6.390625 
z
" id="LiberationSansNarrow-1076"/>
      <path d="M 35.9375 24.515625 
Q 35.9375 30.078125 35.15625 33.765625 
Q 34.375 37.453125 32.9375 39.671875 
Q 31.5 41.890625 29.390625 42.796875 
Q 27.296875 43.703125 24.703125 43.703125 
Q 21.921875 43.703125 19.65625 42.75 
Q 17.390625 41.796875 15.765625 39.546875 
Q 14.15625 37.3125 13.25 33.640625 
Q 12.359375 29.984375 12.359375 24.515625 
Q 12.359375 18.953125 13.25 15.28125 
Q 14.15625 11.625 15.6875 9.453125 
Q 17.234375 7.28125 19.328125 6.390625 
Q 21.4375 5.515625 23.921875 5.515625 
Q 26.703125 5.515625 28.921875 6.390625 
Q 31.15625 7.28125 32.71875 9.421875 
Q 34.28125 11.578125 35.109375 15.265625 
Q 35.9375 18.953125 35.9375 24.515625 
z
M 26.21875 50.140625 
Q 35.109375 50.140625 39.296875 43.765625 
Q 43.5 37.40625 43.5 24.609375 
Q 43.5 11.671875 38.5 5.34375 
Q 33.5 -0.984375 23.96875 -0.984375 
Q 19.4375 -0.984375 15.890625 0.71875 
Q 12.359375 2.4375 9.890625 6.25 
Q 7.421875 10.0625 6.09375 16.15625 
Q 4.78125 22.265625 4.78125 31.0625 
Q 4.78125 40.4375 5.953125 47.21875 
Q 7.125 54 9.6875 58.703125 
Q 12.25 63.421875 16.375 66.234375 
Q 20.515625 69.046875 26.375 70.40625 
Q 28.65625 70.953125 30.65625 71.359375 
Q 32.671875 71.78125 34.46875 72.125 
L 38.03125 72.75 
L 41.5 73.34375 
L 41.5 65.484375 
Q 38.03125 64.9375 34.8125 64.375 
Q 31.59375 63.8125 27.9375 62.984375 
Q 24.8125 62.3125 22.34375 61.5 
Q 19.875 60.6875 17.984375 59.46875 
Q 16.109375 58.25 14.765625 56.46875 
Q 13.421875 54.6875 12.546875 52.046875 
Q 11.671875 49.421875 11.203125 45.78125 
Q 10.75 42.140625 10.640625 37.203125 
Q 11.421875 39.890625 12.765625 42.25 
Q 14.109375 44.625 16.03125 46.375 
Q 17.96875 48.140625 20.484375 49.140625 
Q 23 50.140625 26.21875 50.140625 
z
" id="LiberationSansNarrow-1073"/>
      <path d="M 22.796875 30.46875 
Q 31.296875 30.46875 35.640625 26.875 
Q 39.984375 23.296875 39.984375 15.53125 
Q 39.984375 11.921875 38.90625 9.03125 
Q 37.84375 6.15625 35.671875 4.15625 
Q 33.5 2.15625 30.296875 1.078125 
Q 27.09375 0 22.859375 0 
L 5.859375 0 
L 5.859375 52.828125 
L 13.328125 52.828125 
L 13.328125 30.46875 
z
M 13.328125 6.203125 
L 21.734375 6.203125 
Q 24.609375 6.203125 26.578125 6.8125 
Q 28.5625 7.421875 29.78125 8.609375 
Q 31 9.8125 31.53125 11.546875 
Q 32.078125 13.28125 32.078125 15.53125 
Q 32.078125 20.125 29.65625 22.234375 
Q 27.25 24.359375 21.734375 24.359375 
L 13.328125 24.359375 
z
M 47.65625 0 
L 47.65625 52.828125 
L 55.125 52.828125 
L 55.125 0 
z
" id="LiberationSansNarrow-1099"/>
      <path d="M 12.109375 52.828125 
L 12.109375 33.203125 
Q 12.109375 31.546875 12.421875 30.09375 
Q 12.75 28.65625 13.53125 27.578125 
Q 14.3125 26.515625 15.578125 25.90625 
Q 16.84375 25.296875 18.75 25.296875 
Q 21.53125 25.296875 24.171875 25.921875 
Q 26.8125 26.5625 29.78125 27.59375 
L 29.78125 52.828125 
L 37.015625 52.828125 
L 37.015625 0 
L 29.78125 0 
L 29.78125 22.515625 
Q 29.78125 22.515625 26.65625 21 
Q 25.046875 20.265625 23.28125 19.671875 
Q 21.53125 19.09375 19.671875 18.703125 
Q 17.828125 18.3125 15.765625 18.3125 
Q 13.140625 18.3125 11.109375 19.3125 
Q 9.078125 20.3125 7.703125 22.171875 
Q 6.34375 24.03125 5.609375 26.703125 
Q 4.890625 29.390625 4.890625 32.765625 
L 4.890625 52.828125 
z
" id="LiberationSansNarrow-1095"/>
     </defs>
     <g transform="translate(78.0494 64.165913)scale(0.11662 -0.11662)">
      <use xlink:href="#LiberationSansNarrow-1079"/>
      <use x="37.533203" xlink:href="#LiberationSansNarrow-1086"/>
      <use x="83.107422" xlink:href="#LiberationSansNarrow-1083"/>
      <use x="130.925781" xlink:href="#LiberationSansNarrow-1086"/>
      <use x="176.5" xlink:href="#LiberationSansNarrow-1090"/>
      <use x="214.033203" xlink:href="#LiberationSansNarrow-1086"/>
      <use x="259.607422" xlink:href="#LiberationSansNarrow-1076"/>
      <use x="307.410156" xlink:href="#LiberationSansNarrow-1086"/>
      <use x="353.015625" xlink:href="#LiberationSansNarrow-1073"/>
      <use x="399.988281" xlink:href="#LiberationSansNarrow-1099"/>
      <use x="460.974609" xlink:href="#LiberationSansNarrow-1090"/>
      <use x="498.523438" xlink:href="#LiberationSansNarrow-1095"/>
      <use x="541.248047" xlink:href="#LiberationSansNarrow-1080"/>
      <use x="587.097656" xlink:href="#LiberationSansNarrow-1082"/>
      <use x="622.9375" xlink:href="#LiberationSansNarrow-1080"/>
     </g>
    </g>
   </g>
  </g>
 </g>
 <defs>
  <clipPath id="pb68cdb5d9c">
   <rect height="234.56" width="523.46" x="34.9" y="17.64"/>
  </clipPath>
 </defs>
</svg>
