<?xml version="1.0" encoding="utf-8" standalone="no"?>
<!DOCTYPE svg PUBLIC "-//W3C//DTD SVG 1.1//EN"
  "http://www.w3.org/Graphics/SVG/1.1/DTD/svg11.dtd">
<!-- Created with matplotlib (https://matplotlib.org/) -->
<svg height="288pt" version="1.1" viewBox="0 0 576 288" width="576pt" xmlns="http://www.w3.org/2000/svg" xmlns:xlink="http://www.w3.org/1999/xlink">
 <defs>
  <style type="text/css">
*{stroke-linecap:butt;stroke-linejoin:round;}
  </style>
 </defs>
 <g id="figure_1">
  <g id="patch_1">
   <path d="M 0 288 
L 576 288 
L 576 0 
L 0 0 
z
" style="fill:#ffffff;"/>
  </g>
  <g id="axes_1">
   <g id="patch_2">
    <path d="M 28.51 252.2 
L 558.36 252.2 
L 558.36 17.64 
L 28.51 17.64 
z
" style="fill:#ffffff;"/>
   </g>
   <g id="matplotlib.axis_1">
    <g id="xtick_1">
     <g id="line2d_1">
      <path clip-path="url(#pbd47e3dab5)" d="M 81.687421 252.2 
L 81.687421 17.64 
" style="fill:none;stroke:#b0b0b0;stroke-dasharray:1.48,0.64;stroke-dashoffset:0;stroke-width:0.4;"/>
     </g>
     <g id="text_1">
      <!-- 1880 -->
      <defs>
       <path d="M 6.25 0 
L 6.25 7.46875 
L 20.609375 7.46875 
L 20.609375 60.40625 
L 7.90625 49.3125 
L 7.90625 57.625 
L 21.234375 68.796875 
L 27.875 68.796875 
L 27.875 7.46875 
L 41.609375 7.46875 
L 41.609375 0 
z
" id="LiberationSansNarrow-49"/>
       <path d="M 42.046875 19.1875 
Q 42.046875 14.796875 40.890625 11.109375 
Q 39.75 7.421875 37.40625 4.734375 
Q 35.0625 2.046875 31.421875 0.53125 
Q 27.78125 -0.984375 22.796875 -0.984375 
Q 17.828125 -0.984375 14.203125 0.53125 
Q 10.59375 2.046875 8.21875 4.703125 
Q 5.859375 7.375 4.703125 11.0625 
Q 3.5625 14.75 3.5625 19.09375 
Q 3.5625 22.859375 4.515625 25.78125 
Q 5.46875 28.71875 7.03125 30.828125 
Q 8.59375 32.953125 10.609375 34.25 
Q 12.640625 35.546875 14.796875 35.984375 
L 14.796875 36.1875 
Q 12.453125 36.859375 10.59375 38.375 
Q 8.734375 39.890625 7.46875 42.015625 
Q 6.203125 44.140625 5.546875 46.71875 
Q 4.890625 49.3125 4.890625 52.203125 
Q 4.890625 55.8125 6.03125 59 
Q 7.171875 62.203125 9.421875 64.625 
Q 11.671875 67.046875 14.984375 68.4375 
Q 18.3125 69.828125 22.65625 69.828125 
Q 27.25 69.828125 30.640625 68.40625 
Q 34.03125 67 36.25 64.578125 
Q 38.484375 62.15625 39.546875 58.9375 
Q 40.625 55.71875 40.625 52.09375 
Q 40.625 49.265625 39.96875 46.671875 
Q 39.3125 44.09375 38.0625 41.96875 
Q 36.8125 39.84375 34.9375 38.34375 
Q 33.0625 36.859375 30.609375 36.28125 
L 30.609375 36.078125 
Q 33.0625 35.59375 35.15625 34.296875 
Q 37.25 33.015625 38.765625 30.890625 
Q 40.28125 28.765625 41.15625 25.828125 
Q 42.046875 22.90625 42.046875 19.1875 
z
M 33.15625 51.609375 
Q 33.15625 54.203125 32.609375 56.34375 
Q 32.078125 58.5 30.828125 60.03125 
Q 29.59375 61.578125 27.59375 62.421875 
Q 25.59375 63.28125 22.65625 63.28125 
Q 19.828125 63.28125 17.875 62.421875 
Q 15.921875 61.578125 14.640625 60.03125 
Q 13.375 58.5 12.8125 56.34375 
Q 12.25 54.203125 12.25 51.609375 
Q 12.25 49.5625 12.6875 47.40625 
Q 13.140625 45.265625 14.3125 43.5 
Q 15.484375 41.75 17.5 40.625 
Q 19.53125 39.5 22.75 39.5 
Q 26.171875 39.5 28.21875 40.625 
Q 30.28125 41.75 31.375 43.5 
Q 32.46875 45.265625 32.8125 47.40625 
Q 33.15625 49.5625 33.15625 51.609375 
z
M 34.578125 20.015625 
Q 34.578125 22.515625 34.015625 24.828125 
Q 33.453125 27.15625 32.078125 28.9375 
Q 30.71875 30.71875 28.421875 31.8125 
Q 26.125 32.90625 22.65625 32.90625 
Q 19.484375 32.90625 17.265625 31.8125 
Q 15.046875 30.71875 13.671875 28.90625 
Q 12.3125 27.09375 11.671875 24.71875 
Q 11.03125 22.359375 11.03125 19.828125 
Q 11.03125 16.65625 11.671875 14.03125 
Q 12.3125 11.421875 13.703125 9.546875 
Q 15.09375 7.671875 17.375 6.640625 
Q 19.671875 5.609375 22.90625 5.609375 
Q 26.171875 5.609375 28.421875 6.640625 
Q 30.671875 7.671875 32.03125 9.546875 
Q 33.40625 11.421875 33.984375 14.078125 
Q 34.578125 16.75 34.578125 20.015625 
z
" id="LiberationSansNarrow-56"/>
       <path d="M 42.390625 34.421875 
Q 42.390625 24.515625 40.84375 17.75 
Q 39.3125 10.984375 36.640625 6.8125 
Q 33.984375 2.640625 30.390625 0.828125 
Q 26.8125 -0.984375 22.703125 -0.984375 
Q 18.609375 -0.984375 15.03125 0.828125 
Q 11.46875 2.640625 8.828125 6.78125 
Q 6.203125 10.9375 4.703125 17.703125 
Q 3.21875 24.46875 3.21875 34.421875 
Q 3.21875 44.828125 4.703125 51.640625 
Q 6.203125 58.453125 8.828125 62.5 
Q 11.46875 66.546875 15.078125 68.1875 
Q 18.703125 69.828125 22.953125 69.828125 
Q 27 69.828125 30.53125 68.1875 
Q 34.078125 66.546875 36.71875 62.5 
Q 39.359375 58.453125 40.875 51.640625 
Q 42.390625 44.828125 42.390625 34.421875 
z
M 35.0625 34.421875 
Q 35.0625 42.625 34.28125 48.0625 
Q 33.5 53.515625 31.9375 56.765625 
Q 30.375 60.015625 28.09375 61.359375 
Q 25.828125 62.703125 22.953125 62.703125 
Q 19.921875 62.703125 17.578125 61.328125 
Q 15.234375 59.96875 13.671875 56.71875 
Q 12.109375 53.46875 11.296875 48.015625 
Q 10.5 42.578125 10.5 34.421875 
Q 10.5 26.515625 11.296875 21.09375 
Q 12.109375 15.671875 13.6875 12.375 
Q 15.28125 9.078125 17.578125 7.640625 
Q 19.875 6.203125 22.796875 6.203125 
Q 25.640625 6.203125 27.90625 7.640625 
Q 30.171875 9.078125 31.75 12.375 
Q 33.34375 15.671875 34.203125 21.09375 
Q 35.0625 26.515625 35.0625 34.421875 
z
" id="LiberationSansNarrow-48"/>
      </defs>
      <g transform="translate(68.916796 269.345625)scale(0.14 -0.14)">
       <use xlink:href="#LiberationSansNarrow-49"/>
       <use x="45.605469" xlink:href="#LiberationSansNarrow-56"/>
       <use x="91.210938" xlink:href="#LiberationSansNarrow-56"/>
       <use x="136.816406" xlink:href="#LiberationSansNarrow-48"/>
      </g>
     </g>
    </g>
    <g id="xtick_2">
     <g id="line2d_2">
      <path clip-path="url(#pbd47e3dab5)" d="M 146.344184 252.2 
L 146.344184 17.64 
" style="fill:none;stroke:#b0b0b0;stroke-dasharray:1.48,0.64;stroke-dashoffset:0;stroke-width:0.4;"/>
     </g>
     <g id="text_2">
      <!-- 1900 -->
      <defs>
       <path d="M 41.703125 35.796875 
Q 41.703125 26.609375 40.28125 19.703125 
Q 38.875 12.796875 36.234375 8.203125 
Q 33.59375 3.609375 29.8125 1.3125 
Q 26.03125 -0.984375 21.296875 -0.984375 
Q 18.0625 -0.984375 15.453125 -0.171875 
Q 12.84375 0.640625 10.8125 2.34375 
Q 8.796875 4.046875 7.328125 6.78125 
Q 5.859375 9.515625 4.984375 13.375 
L 11.921875 14.703125 
Q 13.03125 10.25 15.40625 8.171875 
Q 17.78125 6.109375 21.4375 6.109375 
Q 24.359375 6.109375 26.78125 7.78125 
Q 29.203125 9.46875 30.875 12.84375 
Q 32.5625 16.21875 33.546875 21.296875 
Q 34.46875 26.375 34.578125 33.203125 
Q 33.734375 30.90625 32.265625 29.09375 
Q 30.8125 27.296875 28.953125 26.046875 
Q 27.09375 24.8125 24.9375 24.140625 
Q 22.796875 23.484375 20.5625 23.484375 
Q 16.703125 23.484375 13.625 25.171875 
Q 10.546875 26.859375 8.375 29.875 
Q 6.203125 32.90625 5.03125 37.171875 
Q 3.859375 41.453125 3.859375 46.6875 
Q 3.859375 52 5.09375 56.296875 
Q 6.34375 60.59375 8.765625 63.59375 
Q 11.1875 66.609375 14.671875 68.21875 
Q 18.171875 69.828125 22.609375 69.828125 
Q 32.03125 69.828125 36.859375 61.328125 
Q 41.703125 52.828125 41.703125 35.796875 
z
M 33.890625 44.28125 
Q 33.890625 48.09375 33.125 51.453125 
Q 32.375 54.828125 30.9375 57.3125 
Q 29.5 59.8125 27.34375 61.25 
Q 25.203125 62.703125 22.359375 62.703125 
Q 19.78125 62.703125 17.703125 61.578125 
Q 15.625 60.453125 14.1875 58.375 
Q 12.75 56.296875 11.96875 53.3125 
Q 11.1875 50.34375 11.1875 46.6875 
Q 11.1875 43.21875 11.859375 40.234375 
Q 12.546875 37.25 13.953125 35.078125 
Q 15.375 32.90625 17.453125 31.65625 
Q 19.53125 30.421875 22.3125 30.421875 
Q 24.3125 30.421875 26.359375 31.25 
Q 28.421875 32.078125 30.078125 33.78125 
Q 31.734375 35.5 32.8125 38.109375 
Q 33.890625 40.71875 33.890625 44.28125 
z
" id="LiberationSansNarrow-57"/>
      </defs>
      <g transform="translate(133.573559 269.345625)scale(0.14 -0.14)">
       <use xlink:href="#LiberationSansNarrow-49"/>
       <use x="45.605469" xlink:href="#LiberationSansNarrow-57"/>
       <use x="91.210938" xlink:href="#LiberationSansNarrow-48"/>
       <use x="136.816406" xlink:href="#LiberationSansNarrow-48"/>
      </g>
     </g>
    </g>
    <g id="xtick_3">
     <g id="line2d_3">
      <path clip-path="url(#pbd47e3dab5)" d="M 210.992096 252.2 
L 210.992096 17.64 
" style="fill:none;stroke:#b0b0b0;stroke-dasharray:1.48,0.64;stroke-dashoffset:0;stroke-width:0.4;"/>
     </g>
     <g id="text_3">
      <!-- 1920 -->
      <defs>
       <path d="M 4.109375 0 
L 4.109375 6.203125 
Q 6.15625 11.921875 9.109375 16.28125 
Q 12.0625 20.65625 15.3125 24.1875 
Q 18.5625 27.734375 21.734375 30.765625 
Q 24.90625 33.796875 27.46875 36.8125 
Q 30.03125 39.84375 31.609375 43.15625 
Q 33.203125 46.484375 33.203125 50.6875 
Q 33.203125 53.609375 32.46875 55.828125 
Q 31.734375 58.0625 30.390625 59.5625 
Q 29.046875 61.078125 27.140625 61.828125 
Q 25.25 62.59375 22.90625 62.59375 
Q 20.75 62.59375 18.84375 61.859375 
Q 16.9375 61.140625 15.453125 59.671875 
Q 13.96875 58.203125 13.03125 56.03125 
Q 12.109375 53.859375 11.8125 50.984375 
L 4.4375 51.8125 
Q 4.78125 55.515625 6.125 58.78125 
Q 7.46875 62.0625 9.78125 64.53125 
Q 12.109375 67 15.359375 68.40625 
Q 18.609375 69.828125 22.90625 69.828125 
Q 27.09375 69.828125 30.390625 68.609375 
Q 33.6875 67.390625 35.9375 64.984375 
Q 38.1875 62.59375 39.40625 59.078125 
Q 40.625 55.5625 40.625 50.984375 
Q 40.625 47.515625 39.59375 44.390625 
Q 38.578125 41.265625 36.859375 38.421875 
Q 35.15625 35.59375 32.90625 32.953125 
Q 30.671875 30.328125 28.21875 27.828125 
L 23.296875 22.859375 
Q 20.796875 20.359375 18.625 17.859375 
Q 16.453125 15.375 14.734375 12.8125 
Q 13.03125 10.25 12.0625 7.46875 
L 41.5 7.46875 
L 41.5 0 
z
" id="LiberationSansNarrow-50"/>
      </defs>
      <g transform="translate(198.221471 269.345625)scale(0.14 -0.14)">
       <use xlink:href="#LiberationSansNarrow-49"/>
       <use x="45.605469" xlink:href="#LiberationSansNarrow-57"/>
       <use x="91.210938" xlink:href="#LiberationSansNarrow-50"/>
       <use x="136.816406" xlink:href="#LiberationSansNarrow-48"/>
      </g>
     </g>
    </g>
    <g id="xtick_4">
     <g id="line2d_4">
      <path clip-path="url(#pbd47e3dab5)" d="M 275.648858 252.2 
L 275.648858 17.64 
" style="fill:none;stroke:#b0b0b0;stroke-dasharray:1.48,0.64;stroke-dashoffset:0;stroke-width:0.4;"/>
     </g>
     <g id="text_4">
      <!-- 1940 -->
      <defs>
       <path d="M 35.25 15.578125 
L 35.25 0 
L 28.46875 0 
L 28.46875 15.578125 
L 1.90625 15.578125 
L 1.90625 22.40625 
L 27.6875 68.796875 
L 35.25 68.796875 
L 35.25 22.515625 
L 43.21875 22.515625 
L 43.21875 15.578125 
z
M 28.46875 58.890625 
Q 28.375 58.640625 28.03125 57.90625 
L 27.34375 56.34375 
L 26.5625 54.59375 
Q 26.125 53.65625 25.78125 53.078125 
L 11.328125 27.09375 
Q 11.140625 26.703125 10.75 26.078125 
L 9.96875 24.8125 
L 9.1875 23.484375 
Q 8.796875 22.859375 8.546875 22.515625 
L 28.46875 22.515625 
z
" id="LiberationSansNarrow-52"/>
      </defs>
      <g transform="translate(262.878233 269.345625)scale(0.14 -0.14)">
       <use xlink:href="#LiberationSansNarrow-49"/>
       <use x="45.605469" xlink:href="#LiberationSansNarrow-57"/>
       <use x="91.210938" xlink:href="#LiberationSansNarrow-52"/>
       <use x="136.816406" xlink:href="#LiberationSansNarrow-48"/>
      </g>
     </g>
    </g>
    <g id="xtick_5">
     <g id="line2d_5">
      <path clip-path="url(#pbd47e3dab5)" d="M 340.305621 252.2 
L 340.305621 17.64 
" style="fill:none;stroke:#b0b0b0;stroke-dasharray:1.48,0.64;stroke-dashoffset:0;stroke-width:0.4;"/>
     </g>
     <g id="text_5">
      <!-- 1960 -->
      <defs>
       <path d="M 42 22.515625 
Q 42 17.328125 40.828125 13 
Q 39.65625 8.6875 37.359375 5.578125 
Q 35.0625 2.484375 31.640625 0.75 
Q 28.21875 -0.984375 23.78125 -0.984375 
Q 18.84375 -0.984375 15.15625 1.3125 
Q 11.46875 3.609375 9.03125 7.921875 
Q 6.59375 12.25 5.375 18.53125 
Q 4.15625 24.8125 4.15625 32.8125 
Q 4.15625 42 5.546875 48.921875 
Q 6.9375 55.859375 9.515625 60.5 
Q 12.109375 65.140625 15.859375 67.484375 
Q 19.625 69.828125 24.359375 69.828125 
Q 27.25 69.828125 29.765625 69.09375 
Q 32.28125 68.359375 34.328125 66.71875 
Q 36.375 65.09375 37.9375 62.40625 
Q 39.5 59.71875 40.4375 55.8125 
L 33.546875 54.296875 
Q 32.421875 58.734375 29.953125 60.71875 
Q 27.484375 62.703125 24.265625 62.703125 
Q 21.296875 62.703125 18.890625 60.984375 
Q 16.5 59.28125 14.8125 55.875 
Q 13.140625 52.484375 12.234375 47.359375 
Q 11.328125 42.234375 11.328125 35.40625 
Q 13.28125 39.84375 16.84375 42.15625 
Q 20.40625 44.484375 25.046875 44.484375 
Q 28.90625 44.484375 32 42.96875 
Q 35.109375 41.453125 37.328125 38.59375 
Q 39.546875 35.75 40.765625 31.671875 
Q 42 27.59375 42 22.515625 
z
M 34.671875 22.125 
Q 34.671875 25.6875 33.953125 28.5625 
Q 33.25 31.453125 31.8125 33.46875 
Q 30.375 35.5 28.25 36.59375 
Q 26.125 37.703125 23.296875 37.703125 
Q 21.34375 37.703125 19.328125 36.984375 
Q 17.328125 36.28125 15.71875 34.6875 
Q 14.109375 33.109375 13.078125 30.515625 
Q 12.0625 27.9375 12.0625 24.21875 
Q 12.0625 20.40625 12.859375 17.109375 
Q 13.671875 13.8125 15.15625 11.375 
Q 16.65625 8.9375 18.78125 7.515625 
Q 20.90625 6.109375 23.53125 6.109375 
Q 26.125 6.109375 28.203125 7.203125 
Q 30.28125 8.296875 31.71875 10.375 
Q 33.15625 12.453125 33.90625 15.421875 
Q 34.671875 18.40625 34.671875 22.125 
z
" id="LiberationSansNarrow-54"/>
      </defs>
      <g transform="translate(327.534996 269.345625)scale(0.14 -0.14)">
       <use xlink:href="#LiberationSansNarrow-49"/>
       <use x="45.605469" xlink:href="#LiberationSansNarrow-57"/>
       <use x="91.210938" xlink:href="#LiberationSansNarrow-54"/>
       <use x="136.816406" xlink:href="#LiberationSansNarrow-48"/>
      </g>
     </g>
    </g>
    <g id="xtick_6">
     <g id="line2d_6">
      <path clip-path="url(#pbd47e3dab5)" d="M 404.962384 252.2 
L 404.962384 17.64 
" style="fill:none;stroke:#b0b0b0;stroke-dasharray:1.48,0.64;stroke-dashoffset:0;stroke-width:0.4;"/>
     </g>
     <g id="text_6">
      <!-- 1980 -->
      <g transform="translate(392.191759 269.345625)scale(0.14 -0.14)">
       <use xlink:href="#LiberationSansNarrow-49"/>
       <use x="45.605469" xlink:href="#LiberationSansNarrow-57"/>
       <use x="91.210938" xlink:href="#LiberationSansNarrow-56"/>
       <use x="136.816406" xlink:href="#LiberationSansNarrow-48"/>
      </g>
     </g>
    </g>
    <g id="xtick_7">
     <g id="line2d_7">
      <path clip-path="url(#pbd47e3dab5)" d="M 469.619146 252.2 
L 469.619146 17.64 
" style="fill:none;stroke:#b0b0b0;stroke-dasharray:1.48,0.64;stroke-dashoffset:0;stroke-width:0.4;"/>
     </g>
     <g id="text_7">
      <!-- 2000 -->
      <g transform="translate(456.848521 269.345625)scale(0.14 -0.14)">
       <use xlink:href="#LiberationSansNarrow-50"/>
       <use x="45.605469" xlink:href="#LiberationSansNarrow-48"/>
       <use x="91.210938" xlink:href="#LiberationSansNarrow-48"/>
       <use x="136.816406" xlink:href="#LiberationSansNarrow-48"/>
      </g>
     </g>
    </g>
    <g id="xtick_8">
     <g id="line2d_8">
      <path clip-path="url(#pbd47e3dab5)" d="M 534.275909 252.2 
L 534.275909 17.64 
" style="fill:none;stroke:#b0b0b0;stroke-dasharray:1.48,0.64;stroke-dashoffset:0;stroke-width:0.4;"/>
     </g>
     <g id="text_8">
      <!-- 2020 -->
      <g transform="translate(521.505284 269.345625)scale(0.14 -0.14)">
       <use xlink:href="#LiberationSansNarrow-50"/>
       <use x="45.605469" xlink:href="#LiberationSansNarrow-48"/>
       <use x="91.210938" xlink:href="#LiberationSansNarrow-50"/>
       <use x="136.816406" xlink:href="#LiberationSansNarrow-48"/>
      </g>
     </g>
    </g>
   </g>
   <g id="matplotlib.axis_2">
    <g id="ytick_1">
     <g id="line2d_9">
      <path clip-path="url(#pbd47e3dab5)" d="M 28.51 252.2 
L 558.36 252.2 
" style="fill:none;stroke:#b0b0b0;stroke-dasharray:1.48,0.64;stroke-dashoffset:0;stroke-width:0.4;"/>
     </g>
     <g id="text_9">
      <!-- 0.0 -->
      <defs>
       <path d="M 7.46875 0 
L 7.46875 10.6875 
L 15.328125 10.6875 
L 15.328125 0 
z
" id="LiberationSansNarrow-46"/>
      </defs>
      <g transform="translate(5.547813 257.272812)scale(0.14 -0.14)">
       <use xlink:href="#LiberationSansNarrow-48"/>
       <use x="45.605469" xlink:href="#LiberationSansNarrow-46"/>
       <use x="68.408203" xlink:href="#LiberationSansNarrow-48"/>
      </g>
     </g>
    </g>
    <g id="ytick_2">
     <g id="line2d_10">
      <path clip-path="url(#pbd47e3dab5)" d="M 28.51 220.377036 
L 558.36 220.377036 
" style="fill:none;stroke:#b0b0b0;stroke-dasharray:1.48,0.64;stroke-dashoffset:0;stroke-width:0.4;"/>
     </g>
     <g id="text_10">
      <!-- 0.5 -->
      <defs>
       <path d="M 42.140625 22.40625 
Q 42.140625 17.234375 40.859375 12.9375 
Q 39.59375 8.640625 37.078125 5.53125 
Q 34.578125 2.4375 30.8125 0.71875 
Q 27.046875 -0.984375 22.125 -0.984375 
Q 17.671875 -0.984375 14.375 0.28125 
Q 11.078125 1.5625 8.8125 3.78125 
Q 6.546875 6 5.203125 8.984375 
Q 3.859375 11.96875 3.265625 15.375 
L 10.546875 16.40625 
Q 10.984375 14.453125 11.78125 12.625 
Q 12.59375 10.796875 13.984375 9.34375 
Q 15.375 7.90625 17.40625 7.046875 
Q 19.4375 6.203125 22.3125 6.203125 
Q 25.09375 6.203125 27.390625 7.25 
Q 29.6875 8.296875 31.296875 10.34375 
Q 32.90625 12.40625 33.78125 15.375 
Q 34.671875 18.359375 34.671875 22.21875 
Q 34.671875 25.390625 33.84375 28.046875 
Q 33.015625 30.71875 31.453125 32.640625 
Q 29.890625 34.578125 27.609375 35.640625 
Q 25.34375 36.71875 22.46875 36.71875 
Q 20.65625 36.71875 19.140625 36.328125 
Q 17.625 35.9375 16.328125 35.25 
Q 15.046875 34.578125 13.96875 33.671875 
Q 12.890625 32.765625 11.96875 31.78125 
L 4.9375 31.78125 
L 6.78125 68.796875 
L 38.875 68.796875 
L 38.875 61.328125 
L 13.375 61.328125 
L 12.3125 39.5 
Q 14.203125 41.3125 17.078125 42.59375 
Q 19.96875 43.890625 23.921875 43.890625 
Q 28.125 43.890625 31.484375 42.328125 
Q 34.859375 40.765625 37.21875 37.90625 
Q 39.59375 35.0625 40.859375 31.109375 
Q 42.140625 27.15625 42.140625 22.40625 
z
" id="LiberationSansNarrow-53"/>
      </defs>
      <g transform="translate(5.547813 225.449848)scale(0.14 -0.14)">
       <use xlink:href="#LiberationSansNarrow-48"/>
       <use x="45.605469" xlink:href="#LiberationSansNarrow-46"/>
       <use x="68.408203" xlink:href="#LiberationSansNarrow-53"/>
      </g>
     </g>
    </g>
    <g id="ytick_3">
     <g id="line2d_11">
      <path clip-path="url(#pbd47e3dab5)" d="M 28.51 188.554072 
L 558.36 188.554072 
" style="fill:none;stroke:#b0b0b0;stroke-dasharray:1.48,0.64;stroke-dashoffset:0;stroke-width:0.4;"/>
     </g>
     <g id="text_11">
      <!-- 1.0 -->
      <g transform="translate(5.547813 193.626884)scale(0.14 -0.14)">
       <use xlink:href="#LiberationSansNarrow-49"/>
       <use x="45.605469" xlink:href="#LiberationSansNarrow-46"/>
       <use x="68.408203" xlink:href="#LiberationSansNarrow-48"/>
      </g>
     </g>
    </g>
    <g id="ytick_4">
     <g id="line2d_12">
      <path clip-path="url(#pbd47e3dab5)" d="M 28.51 156.731108 
L 558.36 156.731108 
" style="fill:none;stroke:#b0b0b0;stroke-dasharray:1.48,0.64;stroke-dashoffset:0;stroke-width:0.4;"/>
     </g>
     <g id="text_12">
      <!-- 1.5 -->
      <g transform="translate(5.547813 161.80392)scale(0.14 -0.14)">
       <use xlink:href="#LiberationSansNarrow-49"/>
       <use x="45.605469" xlink:href="#LiberationSansNarrow-46"/>
       <use x="68.408203" xlink:href="#LiberationSansNarrow-53"/>
      </g>
     </g>
    </g>
    <g id="ytick_5">
     <g id="line2d_13">
      <path clip-path="url(#pbd47e3dab5)" d="M 28.51 124.908144 
L 558.36 124.908144 
" style="fill:none;stroke:#b0b0b0;stroke-dasharray:1.48,0.64;stroke-dashoffset:0;stroke-width:0.4;"/>
     </g>
     <g id="text_13">
      <!-- 2.0 -->
      <g transform="translate(5.547813 129.980956)scale(0.14 -0.14)">
       <use xlink:href="#LiberationSansNarrow-50"/>
       <use x="45.605469" xlink:href="#LiberationSansNarrow-46"/>
       <use x="68.408203" xlink:href="#LiberationSansNarrow-48"/>
      </g>
     </g>
    </g>
    <g id="ytick_6">
     <g id="line2d_14">
      <path clip-path="url(#pbd47e3dab5)" d="M 28.51 93.08518 
L 558.36 93.08518 
" style="fill:none;stroke:#b0b0b0;stroke-dasharray:1.48,0.64;stroke-dashoffset:0;stroke-width:0.4;"/>
     </g>
     <g id="text_14">
      <!-- 2.5 -->
      <g transform="translate(5.547813 98.157992)scale(0.14 -0.14)">
       <use xlink:href="#LiberationSansNarrow-50"/>
       <use x="45.605469" xlink:href="#LiberationSansNarrow-46"/>
       <use x="68.408203" xlink:href="#LiberationSansNarrow-53"/>
      </g>
     </g>
    </g>
    <g id="ytick_7">
     <g id="line2d_15">
      <path clip-path="url(#pbd47e3dab5)" d="M 28.51 61.262216 
L 558.36 61.262216 
" style="fill:none;stroke:#b0b0b0;stroke-dasharray:1.48,0.64;stroke-dashoffset:0;stroke-width:0.4;"/>
     </g>
     <g id="text_15">
      <!-- 3.0 -->
      <defs>
       <path d="M 42 19 
Q 42 14.265625 40.75 10.546875 
Q 39.5 6.84375 37.0625 4.265625 
Q 34.625 1.703125 31.046875 0.359375 
Q 27.484375 -0.984375 22.859375 -0.984375 
Q 17.625 -0.984375 14.03125 0.609375 
Q 10.453125 2.203125 8.125 4.8125 
Q 5.8125 7.421875 4.640625 10.765625 
Q 3.46875 14.109375 3.125 17.671875 
L 10.546875 18.5 
Q 10.890625 15.765625 11.734375 13.515625 
Q 12.59375 11.28125 14.078125 9.671875 
Q 15.578125 8.0625 17.75 7.171875 
Q 19.921875 6.296875 22.859375 6.296875 
Q 28.328125 6.296875 31.421875 9.5625 
Q 34.515625 12.84375 34.515625 19.28125 
Q 34.515625 23.09375 33.125 25.40625 
Q 31.734375 27.734375 29.6875 29.03125 
Q 27.640625 30.328125 25.21875 30.765625 
Q 22.796875 31.203125 20.75 31.203125 
L 16.65625 31.203125 
L 16.65625 38.8125 
L 20.5625 38.8125 
Q 22.609375 38.8125 24.828125 39.328125 
Q 27.046875 39.84375 28.859375 41.1875 
Q 30.671875 42.53125 31.859375 44.828125 
Q 33.0625 47.125 33.0625 50.6875 
Q 33.0625 56.203125 30.375 59.390625 
Q 27.6875 62.59375 22.46875 62.59375 
Q 17.671875 62.59375 14.734375 59.609375 
Q 11.8125 56.640625 11.328125 51.21875 
L 4.109375 51.90625 
Q 4.546875 56.453125 6.125 59.8125 
Q 7.71875 63.1875 10.171875 65.40625 
Q 12.640625 67.625 15.8125 68.71875 
Q 19 69.828125 22.5625 69.828125 
Q 27.296875 69.828125 30.6875 68.375 
Q 34.078125 66.9375 36.21875 64.46875 
Q 38.375 62.015625 39.40625 58.6875 
Q 40.4375 55.375 40.4375 51.609375 
Q 40.4375 48.578125 39.75 45.9375 
Q 39.0625 43.3125 37.625 41.203125 
Q 36.1875 39.109375 33.953125 37.59375 
Q 31.734375 36.078125 28.609375 35.296875 
L 28.609375 35.109375 
Q 32.03125 34.671875 34.546875 33.21875 
Q 37.0625 31.78125 38.71875 29.625 
Q 40.375 27.484375 41.1875 24.75 
Q 42 22.015625 42 19 
z
" id="LiberationSansNarrow-51"/>
      </defs>
      <g transform="translate(5.547813 66.335028)scale(0.14 -0.14)">
       <use xlink:href="#LiberationSansNarrow-51"/>
       <use x="45.605469" xlink:href="#LiberationSansNarrow-46"/>
       <use x="68.408203" xlink:href="#LiberationSansNarrow-48"/>
      </g>
     </g>
    </g>
    <g id="ytick_8">
     <g id="line2d_16">
      <path clip-path="url(#pbd47e3dab5)" d="M 28.51 29.439252 
L 558.36 29.439252 
" style="fill:none;stroke:#b0b0b0;stroke-dasharray:1.48,0.64;stroke-dashoffset:0;stroke-width:0.4;"/>
     </g>
     <g id="text_16">
      <!-- 3.5 -->
      <g transform="translate(5.547813 34.512064)scale(0.14 -0.14)">
       <use xlink:href="#LiberationSansNarrow-51"/>
       <use x="45.605469" xlink:href="#LiberationSansNarrow-46"/>
       <use x="68.408203" xlink:href="#LiberationSansNarrow-53"/>
      </g>
     </g>
    </g>
   </g>
   <g id="line2d_17">
    <path clip-path="url(#pbd47e3dab5)" d="M 52.594091 97.63458 
L 55.824716 124.514296 
L 59.064193 189.422291 
L 62.294818 210.210849 
L 65.525443 200.147619 
L 68.756069 147.431792 
L 71.995545 154.022685 
L 75.226171 194.963867 
L 78.456796 206.081834 
L 81.687421 209.988973 
L 84.926898 211.671879 
L 88.157523 218.190186 
L 91.388149 207.76734 
L 94.618774 211.798023 
L 97.85825 205.009318 
L 101.088876 212.765854 
L 104.319501 214.987496 
L 107.550126 205.545685 
L 110.789603 199.991413 
L 114.020228 201.463266 
L 117.250854 214.07988 
L 120.481479 218.269467 
L 123.720955 216.225481 
L 126.951581 197.769762 
L 130.182206 160.243404 
L 133.412832 173.553873 
L 136.652308 197.998479 
L 139.882933 191.549173 
L 143.113559 167.433449 
L 146.344184 185.309878 
L 149.574809 196.905782 
L 152.805435 207.231851 
L 156.03606 204.007503 
L 159.266686 206.081834 
L 162.506162 219.699005 
L 165.736787 213.932699 
L 168.967413 216.080264 
L 172.198038 215.286598 
L 175.437514 217.457247 
L 178.66814 224.835409 
L 181.898765 222.860469 
L 185.129391 216.23727 
L 188.368867 209.169172 
L 191.599492 216.244346 
L 194.830118 224.071876 
L 198.060743 205.24936 
L 201.30022 193.013738 
L 204.530845 189.420287 
L 207.76147 198.125279 
L 210.992096 181.590483 
L 214.231572 211.782013 
L 217.462197 209.911591 
L 220.692823 216.793933 
L 223.923448 215.507939 
L 227.162925 209.093243 
L 230.39355 205.578419 
L 233.624175 219.224797 
L 236.854801 222.179223 
L 240.094277 219.232214 
L 243.324903 221.308925 
L 246.555528 234.053269 
L 249.786153 225.193681 
L 253.02563 229.144886 
L 256.256255 218.571442 
L 259.48688 220.539702 
L 262.717506 217.138573 
L 265.956982 215.051176 
L 269.187608 216.875805 
L 272.418233 219.858935 
L 275.648858 219.626266 
L 278.888335 216.310458 
L 285.349586 220.680689 
L 288.580211 221.331303 
L 291.819687 226.015067 
L 295.050313 224.883264 
L 298.280938 212.971896 
L 301.511563 214.927639 
L 304.75104 219.277642 
L 307.981665 219.899412 
L 311.212291 222.315598 
L 314.442916 223.556083 
L 317.682392 219.992438 
L 320.913018 220.35163 
L 324.143643 220.113066 
L 327.374269 220.232793 
L 330.613745 221.641876 
L 333.84437 219.916584 
L 337.074996 220.361873 
L 340.305621 223.414873 
L 343.545097 225.387432 
L 346.775723 225.566182 
L 359.707075 227.073757 
L 366.168326 228.768489 
L 369.407803 229.755771 
L 372.638428 231.062049 
L 375.869053 227.216854 
L 379.099679 225.414976 
L 382.339155 217.917817 
L 385.56978 141.892557 
L 388.800406 153.963301 
L 392.031031 150.007893 
L 395.270508 146.575287 
L 398.501133 152.625033 
L 401.731758 46.759546 
L 404.962384 42.062144 
L 408.20186 68.875656 
L 411.432486 97.000818 
L 414.663111 118.077758 
L 417.893736 126.828512 
L 421.133213 136.239807 
L 424.363838 193.756267 
L 427.594463 178.60955 
L 430.825089 194.942887 
L 434.064565 185.391442 
L 437.295191 169.532656 
L 440.525816 186.230892 
L 443.756441 190.096736 
L 446.995918 199.369307 
L 450.226543 204.174978 
L 453.457168 201.942831 
L 456.687794 192.778502 
L 459.92727 198.930725 
L 463.157896 217.271513 
L 466.388521 203.649404 
L 469.619146 177.264909 
L 472.858623 190.232159 
L 476.089248 189.479801 
L 479.319874 181.765979 
L 482.550499 160.484464 
L 485.789975 125.289952 
L 489.020601 106.374223 
L 492.251226 93.451225 
L 495.481851 47.769509 
L 498.721328 122.545277 
L 501.951953 89.348394 
L 505.182579 27.945394 
L 508.413204 33.507913 
L 511.65268 42.745483 
L 514.883306 64.432457 
L 518.113931 152.69796 
L 521.344557 171.790339 
L 524.584033 154.681558 
L 527.814658 124.493236 
L 531.045284 153.602082 
L 534.275909 133.739114 
L 534.275909 133.739114 
" style="fill:none;stroke:#1f77b4;stroke-linecap:square;stroke-width:1.5;"/>
   </g>
   <g id="line2d_18">
    <path clip-path="url(#pbd47e3dab5)" d="M 52.594091 204.889646 
L 59.064193 205.780404 
L 62.294818 204.732117 
L 65.525443 199.515834 
L 68.756069 197.928711 
L 71.995545 201.645025 
L 75.226171 194.532556 
L 78.456796 188.428928 
L 81.687421 199.36126 
L 84.926898 196.158706 
L 88.157523 200.348683 
L 91.388149 199.36126 
L 94.618774 195.002972 
L 97.85825 188.428928 
L 101.088876 186.151308 
L 104.319501 186.151308 
L 107.550126 189.153747 
L 110.789603 186.151308 
L 114.020228 182.848894 
L 117.250854 184.540374 
L 120.481479 180.146881 
L 123.720955 185.355579 
L 126.951581 175.143179 
L 130.182206 171.792953 
L 133.412832 172.941569 
L 136.652308 170.610453 
L 139.882933 172.941569 
L 143.113559 174.057925 
L 146.344184 185.355579 
L 149.574809 183.705039 
L 152.805435 185.355579 
L 156.03606 191.232033 
L 159.266686 188.428928 
L 162.506162 189.861678 
L 165.736787 189.861678 
L 168.967413 192.54289 
L 172.198038 191.232033 
L 175.437514 193.177673 
L 178.66814 198.853091 
L 181.898765 195.002972 
L 185.129391 194.407555 
L 188.368867 198.335053 
L 191.599492 199.412352 
L 194.830118 199.935002 
L 198.060743 201.442646 
L 201.30022 207.082352 
L 204.530845 214.494537 
L 207.76147 220.207486 
L 210.992096 224.848887 
L 214.231572 224.417027 
L 217.462197 220.964705 
L 220.692823 220.778781 
L 223.923448 221.686909 
L 227.162925 221.686909 
L 230.39355 222.709694 
L 233.624175 222.03563 
L 240.094277 221.33003 
L 243.324903 221.33003 
L 246.555528 219.000221 
L 249.786153 215.285561 
L 253.02563 203.815827 
L 256.256255 184.600917 
L 259.48688 186.476457 
L 262.717506 187.428972 
L 265.956982 188.807079 
L 269.187608 189.253508 
L 272.418233 188.354272 
L 275.648858 187.89495 
L 278.888335 188.807079 
L 282.11896 195.267504 
L 285.349586 199.310048 
L 288.580211 200.829874 
L 295.050313 203.087902 
L 298.280938 210.626038 
L 301.511563 214.485224 
L 304.75104 214.956659 
L 307.981665 214.164247 
L 311.212291 217.009441 
L 314.442916 218.470181 
L 317.682392 218.596985 
L 320.913018 218.97174 
L 324.143643 218.722839 
L 327.374269 218.847754 
L 330.613745 219.814486 
L 333.84437 220.946846 
L 337.074996 221.377924 
L 340.305621 221.693509 
L 343.545097 222.205363 
L 346.775723 222.405327 
L 356.47645 223.551276 
L 359.707075 224.091818 
L 362.937701 225.031605 
L 366.168326 222.797264 
L 369.407803 222.422066 
L 372.638428 227.600815 
L 375.869053 225.731294 
L 379.099679 215.787741 
L 382.339155 193.563844 
L 385.56978 164.657368 
L 388.800406 173.041101 
L 392.031031 194.637794 
L 395.270508 187.454975 
L 398.501133 173.11302 
L 401.731758 137.221603 
L 404.962384 51.123706 
L 408.20186 117.27563 
L 411.432486 150.396193 
L 414.663111 141.481846 
L 417.893736 161.81099 
L 421.133213 175.304326 
L 424.363838 166.39507 
L 427.594463 149.323403 
L 430.825089 155.452477 
L 434.064565 171.519245 
L 437.295191 175.037877 
L 440.525816 183.271279 
L 443.756441 188.406051 
L 446.995918 187.564483 
L 450.226543 184.874636 
L 453.457168 186.697596 
L 456.687794 187.843175 
L 459.92727 198.845678 
L 463.157896 205.542048 
L 466.388521 208.691643 
L 469.619146 209.822776 
L 472.858623 212.496781 
L 476.089248 207.305386 
L 479.319874 200.926645 
L 482.550499 195.591041 
L 485.789975 192.472271 
L 489.020601 174.1556 
L 492.251226 164.009019 
L 495.481851 146.505964 
L 498.721328 134.271232 
L 501.951953 107.588264 
L 505.182579 69.902085 
L 508.413204 60.661408 
L 511.65268 95.27503 
L 514.883306 113.654148 
L 518.113931 125.11338 
L 521.344557 119.765441 
L 524.584033 121.748882 
L 527.814658 121.555125 
L 531.045284 110.767021 
L 534.275909 99.590619 
L 534.275909 99.590619 
" style="fill:none;stroke:#ff7f0e;stroke-linecap:square;stroke-width:1.5;"/>
   </g>
   <g id="line2d_19">
    <path clip-path="url(#pbd47e3dab5)" d="M 28.51 188.554072 
L 558.36 188.554072 
" style="fill:none;stroke:#000000;stroke-linecap:square;stroke-width:0.3;"/>
   </g>
   <g id="legend_1">
    <g id="patch_3">
     <path d="M 38.31 68.94125 
L 119.459688 68.94125 
Q 122.259688 68.94125 122.259688 66.14125 
L 122.259688 27.44 
Q 122.259688 24.64 119.459688 24.64 
L 38.31 24.64 
Q 35.51 24.64 35.51 27.44 
L 35.51 66.14125 
Q 35.51 68.94125 38.31 68.94125 
z
" style="fill:#ffffff;opacity:0.8;stroke:#cccccc;stroke-linejoin:miter;"/>
    </g>
    <g id="line2d_20">
     <path d="M 41.11 35.485625 
L 69.11 35.485625 
" style="fill:none;stroke:#1f77b4;stroke-linecap:square;stroke-width:1.5;"/>
    </g>
    <g id="line2d_21"/>
    <g id="text_17">
     <!-- нефть -->
     <defs>
      <path d="M 12.890625 52.828125 
L 12.890625 30.46875 
L 32.375 30.46875 
L 32.375 52.828125 
L 39.59375 52.828125 
L 39.59375 0 
L 32.375 0 
L 32.375 24.078125 
L 12.890625 24.078125 
L 12.890625 0 
L 5.671875 0 
L 5.671875 52.828125 
z
" id="LiberationSansNarrow-1085"/>
      <path d="M 10.6875 24.5625 
Q 10.6875 20.40625 11.5625 16.90625 
Q 12.453125 13.421875 13.90625 10.90625 
Q 15.375 8.40625 17.640625 7 
Q 19.921875 5.609375 23.140625 5.609375 
Q 27.828125 5.609375 30.65625 7.90625 
Q 33.5 10.203125 34.46875 13.71875 
L 40.828125 11.53125 
Q 40.140625 9.328125 38.921875 7.109375 
Q 37.703125 4.890625 35.640625 3.09375 
Q 33.59375 1.3125 30.53125 0.15625 
Q 27.484375 -0.984375 23.140625 -0.984375 
Q 13.53125 -0.984375 8.5 6 
Q 3.46875 12.984375 3.46875 26.765625 
Q 3.46875 34.1875 5 39.328125 
Q 6.546875 44.484375 9.171875 47.703125 
Q 11.8125 50.921875 15.328125 52.359375 
Q 18.84375 53.8125 22.859375 53.8125 
Q 28.328125 53.8125 31.984375 51.65625 
Q 39.0625 47.515625 41.015625 36.8125 
Q 41.9375 31.6875 41.9375 25.734375 
L 41.9375 24.5625 
z
M 34.71875 31.296875 
Q 34.71875 40.140625 31.421875 43.71875 
Q 28.125 47.3125 22.75 47.3125 
Q 18.953125 47.3125 15.328125 44.09375 
Q 10.9375 40.328125 10.6875 31.296875 
z
" id="LiberationSansNarrow-1077"/>
      <path d="M 64.015625 26.65625 
Q 64.015625 20.65625 63.234375 15.578125 
Q 62.453125 10.5 60.734375 6.828125 
Q 59.03125 3.171875 56.21875 1.09375 
Q 53.421875 -0.984375 49.359375 -0.984375 
Q 45.171875 -0.984375 42.015625 1.171875 
Q 38.875 3.328125 37.15625 8.203125 
L 36.921875 8.203125 
Q 37.015625 6.5 37.0625 4.609375 
Q 37.109375 2.734375 37.109375 -0.09375 
L 37.109375 -20.75 
L 30.328125 -20.75 
L 30.328125 -0.09375 
Q 30.328125 2.546875 30.375 4.546875 
Q 30.421875 6.546875 30.515625 8.5 
L 30.328125 8.5 
Q 28.46875 3.421875 25.484375 1.21875 
Q 22.515625 -0.984375 18.0625 -0.984375 
Q 10.59375 -0.984375 7.03125 5.734375 
Q 3.46875 12.453125 3.46875 26.171875 
Q 3.46875 40.046875 7.15625 46.921875 
Q 10.84375 53.8125 18.0625 53.8125 
Q 22.5625 53.8125 25.53125 51.609375 
Q 28.515625 49.421875 30.328125 44.625 
L 30.515625 44.625 
Q 30.515625 45.125 30.46875 46.125 
Q 30.421875 47.125 30.375 48.25 
L 30.375 50.390625 
Q 30.328125 51.421875 30.328125 52 
L 30.328125 72.46875 
L 37.109375 72.46875 
L 37.109375 51.953125 
Q 37.109375 51.421875 37.078125 50.359375 
Q 37.0625 49.3125 37.0625 48.15625 
Q 37.0625 47.015625 37.03125 45.96875 
Q 37.015625 44.921875 37.015625 44.34375 
L 37.203125 44.34375 
Q 39.0625 49.421875 41.9375 51.59375 
Q 44.828125 53.765625 49.359375 53.765625 
Q 53.421875 53.765625 56.21875 51.8125 
Q 59.03125 49.859375 60.734375 46.3125 
Q 62.453125 42.78125 63.234375 37.765625 
Q 64.015625 32.765625 64.015625 26.65625 
z
M 11.03125 26.46875 
Q 11.03125 21 11.546875 17.09375 
Q 12.0625 13.1875 13.1875 10.671875 
Q 14.3125 8.15625 16.015625 6.984375 
Q 17.71875 5.8125 20.125 5.8125 
Q 22.515625 5.8125 24.390625 6.859375 
Q 26.265625 7.90625 27.5625 10.296875 
Q 28.859375 12.703125 29.53125 16.53125 
Q 30.21875 20.359375 30.328125 25.875 
L 30.328125 27.046875 
Q 30.328125 32.671875 29.640625 36.546875 
Q 28.953125 40.4375 27.65625 42.828125 
Q 26.375 45.21875 24.484375 46.265625 
Q 22.609375 47.3125 20.171875 47.3125 
Q 17.875 47.3125 16.15625 46.1875 
Q 14.453125 45.0625 13.296875 42.578125 
Q 12.15625 40.09375 11.59375 36.109375 
Q 11.03125 32.125 11.03125 26.46875 
z
M 56.453125 26.46875 
Q 56.453125 31.34375 55.984375 35.15625 
Q 55.515625 38.96875 54.46875 41.59375 
Q 53.421875 44.234375 51.65625 45.59375 
Q 49.90625 46.96875 47.3125 46.96875 
Q 45.21875 46.96875 43.375 46.140625 
Q 41.546875 45.3125 40.125 42.96875 
Q 38.71875 40.625 37.90625 36.5 
Q 37.109375 32.375 37.109375 25.78125 
L 37.109375 24.65625 
Q 37.15625 19.390625 37.859375 15.71875 
Q 38.578125 12.0625 39.859375 9.78125 
Q 41.15625 7.515625 43.015625 6.515625 
Q 44.875 5.515625 47.265625 5.515625 
Q 49.859375 5.515625 51.609375 6.921875 
Q 53.375 8.34375 54.4375 11.03125 
Q 55.515625 13.71875 55.984375 17.59375 
Q 56.453125 21.484375 56.453125 26.46875 
z
" id="LiberationSansNarrow-1092"/>
      <path d="M 1.421875 52.828125 
L 36.140625 52.828125 
L 36.140625 46.4375 
L 22.359375 46.4375 
L 22.359375 0 
L 15.1875 0 
L 15.1875 46.4375 
L 1.421875 46.4375 
z
" id="LiberationSansNarrow-1090"/>
      <path d="M 22.75 30.46875 
Q 30.953125 30.46875 35.15625 26.875 
Q 39.359375 23.296875 39.359375 15.53125 
Q 39.359375 11.921875 38.296875 9.03125 
Q 37.25 6.15625 35.171875 4.15625 
Q 33.109375 2.15625 30 1.078125 
Q 26.90625 0 22.796875 0 
L 5.671875 0 
L 5.671875 52.828125 
L 12.890625 52.828125 
L 12.890625 30.46875 
z
M 12.890625 6.203125 
L 21.6875 6.203125 
Q 24.46875 6.203125 26.390625 6.8125 
Q 28.328125 7.421875 29.5 8.609375 
Q 30.671875 9.8125 31.171875 11.546875 
Q 31.6875 13.28125 31.6875 15.53125 
Q 31.6875 20.125 29.359375 22.234375 
Q 27.046875 24.359375 21.734375 24.359375 
L 12.890625 24.359375 
z
" id="LiberationSansNarrow-1100"/>
     </defs>
     <g transform="translate(80.31 40.385625)scale(0.14 -0.14)">
      <use xlink:href="#LiberationSansNarrow-1085"/>
      <use x="45.263672" xlink:href="#LiberationSansNarrow-1077"/>
      <use x="90.869141" xlink:href="#LiberationSansNarrow-1092"/>
      <use x="158.318359" xlink:href="#LiberationSansNarrow-1090"/>
      <use x="195.867188" xlink:href="#LiberationSansNarrow-1100"/>
     </g>
    </g>
    <g id="line2d_22">
     <path d="M 41.11 55.53625 
L 69.11 55.53625 
" style="fill:none;stroke:#ff7f0e;stroke-linecap:square;stroke-width:1.5;"/>
    </g>
    <g id="line2d_23"/>
    <g id="text_18">
     <!-- золото -->
     <defs>
      <path d="M 18.3125 -0.984375 
Q 11.625 -0.984375 7.6875 2.0625 
Q 3.765625 5.125 1.953125 11.421875 
L 8.296875 13.578125 
Q 9.28125 9.765625 11.8125 7.65625 
Q 14.359375 5.5625 18.453125 5.5625 
Q 22.3125 5.5625 24.578125 7.859375 
Q 26.859375 10.15625 26.859375 14.59375 
Q 26.859375 17.484375 25.734375 19.390625 
Q 24.609375 21.296875 22.78125 22.390625 
Q 20.953125 23.484375 18.546875 23.921875 
Q 16.15625 24.359375 13.578125 24.359375 
L 13.578125 31.0625 
Q 16.109375 31.0625 18.40625 31.421875 
Q 20.703125 31.78125 22.4375 32.703125 
Q 24.171875 33.640625 25.140625 35.28125 
Q 26.125 36.921875 26.125 39.453125 
Q 26.125 43.0625 24.140625 45.15625 
Q 22.171875 47.265625 18.453125 47.265625 
Q 17.046875 47.265625 15.65625 46.921875 
Q 14.265625 46.578125 13.03125 45.765625 
Q 11.8125 44.96875 10.984375 43.625 
Q 10.15625 42.28125 9.859375 40.234375 
L 3.421875 41.21875 
Q 3.90625 44.53125 5.125 46.921875 
Q 6.34375 49.3125 8.296875 50.84375 
Q 10.25 52.390625 12.78125 53.09375 
Q 15.328125 53.8125 18.453125 53.8125 
Q 21.875 53.8125 24.625 52.78125 
Q 27.390625 51.765625 29.34375 49.90625 
Q 31.296875 48.046875 32.375 45.5 
Q 33.453125 42.96875 33.453125 39.890625 
Q 33.453125 37.109375 32.5625 34.953125 
Q 31.6875 32.8125 30.25 31.3125 
Q 28.8125 29.828125 27.046875 28.953125 
Q 25.296875 28.078125 23.53125 27.875 
L 23.53125 27.78125 
Q 25.78125 27.484375 27.75 26.484375 
Q 29.734375 25.484375 31.25 23.84375 
Q 32.765625 22.21875 33.609375 19.9375 
Q 34.46875 17.671875 34.46875 14.84375 
Q 34.46875 11.46875 33.484375 8.5625 
Q 32.515625 5.671875 30.484375 3.546875 
Q 28.46875 1.421875 25.4375 0.21875 
Q 22.40625 -0.984375 18.3125 -0.984375 
z
" id="LiberationSansNarrow-1079"/>
      <path d="M 42.140625 26.46875 
Q 42.140625 12.59375 37.125 5.796875 
Q 32.125 -0.984375 22.609375 -0.984375 
Q 18.0625 -0.984375 14.515625 0.671875 
Q 10.984375 2.34375 8.515625 5.765625 
Q 6.0625 9.1875 4.765625 14.328125 
Q 3.46875 19.484375 3.46875 26.46875 
Q 3.46875 53.8125 22.859375 53.8125 
Q 27.875 53.8125 31.5625 52.09375 
Q 35.25 50.390625 37.59375 46.96875 
Q 39.9375 43.5625 41.03125 38.421875 
Q 42.140625 33.296875 42.140625 26.46875 
z
M 34.578125 26.46875 
Q 34.578125 32.625 33.8125 36.625 
Q 33.0625 40.625 31.546875 43.015625 
Q 30.03125 45.40625 27.859375 46.359375 
Q 25.6875 47.3125 23 47.3125 
Q 20.21875 47.3125 17.984375 46.3125 
Q 15.765625 45.3125 14.203125 42.890625 
Q 12.640625 40.484375 11.828125 36.46875 
Q 11.03125 32.46875 11.03125 26.46875 
Q 11.03125 20.3125 11.90625 16.28125 
Q 12.796875 12.25 14.328125 9.859375 
Q 15.875 7.46875 17.96875 6.484375 
Q 20.0625 5.515625 22.5625 5.515625 
Q 25.34375 5.515625 27.5625 6.46875 
Q 29.78125 7.421875 31.34375 9.8125 
Q 32.90625 12.203125 33.734375 16.25 
Q 34.578125 20.3125 34.578125 26.46875 
z
" id="LiberationSansNarrow-1086"/>
      <path d="M 34.859375 0 
L 34.859375 46.4375 
L 19.875 46.4375 
Q 18.890625 37.453125 18.03125 30.4375 
Q 17.1875 23.4375 16.3125 18.15625 
Q 15.4375 12.890625 14.40625 9.25 
Q 13.375 5.609375 11.953125 3.34375 
Q 10.546875 1.078125 8.65625 0.046875 
Q 6.78125 -0.984375 4.203125 -0.984375 
Q 3.03125 -0.984375 2.078125 -0.78125 
Q 1.125 -0.59375 0.4375 -0.34375 
L 0.4375 5.953125 
Q 0.875 5.765625 1.625 5.640625 
Q 2.390625 5.515625 3.171875 5.515625 
Q 4.59375 5.515625 5.59375 6.53125 
Q 6.59375 7.5625 7.390625 9.859375 
Q 8.203125 12.15625 8.859375 15.796875 
Q 9.515625 19.4375 10.203125 24.703125 
Q 10.890625 29.984375 11.625 36.921875 
L 13.375 52.828125 
L 42.140625 52.828125 
L 42.140625 0 
z
" id="LiberationSansNarrow-1083"/>
     </defs>
     <g transform="translate(80.31 60.43625)scale(0.14 -0.14)">
      <use xlink:href="#LiberationSansNarrow-1079"/>
      <use x="37.533203" xlink:href="#LiberationSansNarrow-1086"/>
      <use x="83.107422" xlink:href="#LiberationSansNarrow-1083"/>
      <use x="130.925781" xlink:href="#LiberationSansNarrow-1086"/>
      <use x="176.5" xlink:href="#LiberationSansNarrow-1090"/>
      <use x="214.033203" xlink:href="#LiberationSansNarrow-1086"/>
     </g>
    </g>
   </g>
  </g>
 </g>
 <defs>
  <clipPath id="pbd47e3dab5">
   <rect height="234.56" width="529.85" x="28.51" y="17.64"/>
  </clipPath>
 </defs>
</svg>
