<?xml version="1.0" encoding="utf-8" standalone="no"?>
<!DOCTYPE svg PUBLIC "-//W3C//DTD SVG 1.1//EN"
  "http://www.w3.org/Graphics/SVG/1.1/DTD/svg11.dtd">
<!-- Created with matplotlib (https://matplotlib.org/) -->
<svg height="288pt" version="1.1" viewBox="0 0 576 288" width="576pt" xmlns="http://www.w3.org/2000/svg" xmlns:xlink="http://www.w3.org/1999/xlink">
 <defs>
  <style type="text/css">
*{stroke-linecap:butt;stroke-linejoin:round;}
  </style>
 </defs>
 <g id="figure_1">
  <g id="patch_1">
   <path d="M 0 288 
L 576 288 
L 576 0 
L 0 0 
z
" style="fill:#ffffff;"/>
  </g>
  <g id="axes_1">
   <g id="patch_2">
    <path d="M 46.19 234.52 
L 558.36 234.52 
L 558.36 17.64 
L 46.19 17.64 
z
" style="fill:#ffffff;"/>
   </g>
   <g id="matplotlib.axis_1">
    <g id="xtick_1">
     <g id="line2d_1">
      <path clip-path="url(#p4de568d843)" d="M 126.698894 234.52 
L 126.698894 17.64 
" style="fill:none;stroke:#b0b0b0;stroke-dasharray:1.48,0.64;stroke-dashoffset:0;stroke-width:0.4;"/>
     </g>
     <g id="text_1">
      <!-- 30 -->
      <defs>
       <path d="M 42 19 
Q 42 14.265625 40.75 10.546875 
Q 39.5 6.84375 37.0625 4.265625 
Q 34.625 1.703125 31.046875 0.359375 
Q 27.484375 -0.984375 22.859375 -0.984375 
Q 17.625 -0.984375 14.03125 0.609375 
Q 10.453125 2.203125 8.125 4.8125 
Q 5.8125 7.421875 4.640625 10.765625 
Q 3.46875 14.109375 3.125 17.671875 
L 10.546875 18.5 
Q 10.890625 15.765625 11.734375 13.515625 
Q 12.59375 11.28125 14.078125 9.671875 
Q 15.578125 8.0625 17.75 7.171875 
Q 19.921875 6.296875 22.859375 6.296875 
Q 28.328125 6.296875 31.421875 9.5625 
Q 34.515625 12.84375 34.515625 19.28125 
Q 34.515625 23.09375 33.125 25.40625 
Q 31.734375 27.734375 29.6875 29.03125 
Q 27.640625 30.328125 25.21875 30.765625 
Q 22.796875 31.203125 20.75 31.203125 
L 16.65625 31.203125 
L 16.65625 38.8125 
L 20.5625 38.8125 
Q 22.609375 38.8125 24.828125 39.328125 
Q 27.046875 39.84375 28.859375 41.1875 
Q 30.671875 42.53125 31.859375 44.828125 
Q 33.0625 47.125 33.0625 50.6875 
Q 33.0625 56.203125 30.375 59.390625 
Q 27.6875 62.59375 22.46875 62.59375 
Q 17.671875 62.59375 14.734375 59.609375 
Q 11.8125 56.640625 11.328125 51.21875 
L 4.109375 51.90625 
Q 4.546875 56.453125 6.125 59.8125 
Q 7.71875 63.1875 10.171875 65.40625 
Q 12.640625 67.625 15.8125 68.71875 
Q 19 69.828125 22.5625 69.828125 
Q 27.296875 69.828125 30.6875 68.375 
Q 34.078125 66.9375 36.21875 64.46875 
Q 38.375 62.015625 39.40625 58.6875 
Q 40.4375 55.375 40.4375 51.609375 
Q 40.4375 48.578125 39.75 45.9375 
Q 39.0625 43.3125 37.625 41.203125 
Q 36.1875 39.109375 33.953125 37.59375 
Q 31.734375 36.078125 28.609375 35.296875 
L 28.609375 35.109375 
Q 32.03125 34.671875 34.546875 33.21875 
Q 37.0625 31.78125 38.71875 29.625 
Q 40.375 27.484375 41.1875 24.75 
Q 42 22.015625 42 19 
z
" id="LiberationSansNarrow-51"/>
       <path d="M 42.390625 34.421875 
Q 42.390625 24.515625 40.84375 17.75 
Q 39.3125 10.984375 36.640625 6.8125 
Q 33.984375 2.640625 30.390625 0.828125 
Q 26.8125 -0.984375 22.703125 -0.984375 
Q 18.609375 -0.984375 15.03125 0.828125 
Q 11.46875 2.640625 8.828125 6.78125 
Q 6.203125 10.9375 4.703125 17.703125 
Q 3.21875 24.46875 3.21875 34.421875 
Q 3.21875 44.828125 4.703125 51.640625 
Q 6.203125 58.453125 8.828125 62.5 
Q 11.46875 66.546875 15.078125 68.1875 
Q 18.703125 69.828125 22.953125 69.828125 
Q 27 69.828125 30.53125 68.1875 
Q 34.078125 66.546875 36.71875 62.5 
Q 39.359375 58.453125 40.875 51.640625 
Q 42.390625 44.828125 42.390625 34.421875 
z
M 35.0625 34.421875 
Q 35.0625 42.625 34.28125 48.0625 
Q 33.5 53.515625 31.9375 56.765625 
Q 30.375 60.015625 28.09375 61.359375 
Q 25.828125 62.703125 22.953125 62.703125 
Q 19.921875 62.703125 17.578125 61.328125 
Q 15.234375 59.96875 13.671875 56.71875 
Q 12.109375 53.46875 11.296875 48.015625 
Q 10.5 42.578125 10.5 34.421875 
Q 10.5 26.515625 11.296875 21.09375 
Q 12.109375 15.671875 13.6875 12.375 
Q 15.28125 9.078125 17.578125 7.640625 
Q 19.875 6.203125 22.796875 6.203125 
Q 25.640625 6.203125 27.90625 7.640625 
Q 30.171875 9.078125 31.75 12.375 
Q 33.34375 15.671875 34.203125 21.09375 
Q 35.0625 26.515625 35.0625 34.421875 
z
" id="LiberationSansNarrow-48"/>
      </defs>
      <g transform="translate(120.313581 251.665625)scale(0.14 -0.14)">
       <use xlink:href="#LiberationSansNarrow-51"/>
       <use x="45.605469" xlink:href="#LiberationSansNarrow-48"/>
      </g>
     </g>
    </g>
    <g id="xtick_2">
     <g id="line2d_2">
      <path clip-path="url(#p4de568d843)" d="M 210.068132 234.52 
L 210.068132 17.64 
" style="fill:none;stroke:#b0b0b0;stroke-dasharray:1.48,0.64;stroke-dashoffset:0;stroke-width:0.4;"/>
     </g>
     <g id="text_2">
      <!-- 40 -->
      <defs>
       <path d="M 35.25 15.578125 
L 35.25 0 
L 28.46875 0 
L 28.46875 15.578125 
L 1.90625 15.578125 
L 1.90625 22.40625 
L 27.6875 68.796875 
L 35.25 68.796875 
L 35.25 22.515625 
L 43.21875 22.515625 
L 43.21875 15.578125 
z
M 28.46875 58.890625 
Q 28.375 58.640625 28.03125 57.90625 
L 27.34375 56.34375 
L 26.5625 54.59375 
Q 26.125 53.65625 25.78125 53.078125 
L 11.328125 27.09375 
Q 11.140625 26.703125 10.75 26.078125 
L 9.96875 24.8125 
L 9.1875 23.484375 
Q 8.796875 22.859375 8.546875 22.515625 
L 28.46875 22.515625 
z
" id="LiberationSansNarrow-52"/>
      </defs>
      <g transform="translate(203.68282 251.665625)scale(0.14 -0.14)">
       <use xlink:href="#LiberationSansNarrow-52"/>
       <use x="45.605469" xlink:href="#LiberationSansNarrow-48"/>
      </g>
     </g>
    </g>
    <g id="xtick_3">
     <g id="line2d_3">
      <path clip-path="url(#p4de568d843)" d="M 293.437371 234.52 
L 293.437371 17.64 
" style="fill:none;stroke:#b0b0b0;stroke-dasharray:1.48,0.64;stroke-dashoffset:0;stroke-width:0.4;"/>
     </g>
     <g id="text_3">
      <!-- 50 -->
      <defs>
       <path d="M 42.140625 22.40625 
Q 42.140625 17.234375 40.859375 12.9375 
Q 39.59375 8.640625 37.078125 5.53125 
Q 34.578125 2.4375 30.8125 0.71875 
Q 27.046875 -0.984375 22.125 -0.984375 
Q 17.671875 -0.984375 14.375 0.28125 
Q 11.078125 1.5625 8.8125 3.78125 
Q 6.546875 6 5.203125 8.984375 
Q 3.859375 11.96875 3.265625 15.375 
L 10.546875 16.40625 
Q 10.984375 14.453125 11.78125 12.625 
Q 12.59375 10.796875 13.984375 9.34375 
Q 15.375 7.90625 17.40625 7.046875 
Q 19.4375 6.203125 22.3125 6.203125 
Q 25.09375 6.203125 27.390625 7.25 
Q 29.6875 8.296875 31.296875 10.34375 
Q 32.90625 12.40625 33.78125 15.375 
Q 34.671875 18.359375 34.671875 22.21875 
Q 34.671875 25.390625 33.84375 28.046875 
Q 33.015625 30.71875 31.453125 32.640625 
Q 29.890625 34.578125 27.609375 35.640625 
Q 25.34375 36.71875 22.46875 36.71875 
Q 20.65625 36.71875 19.140625 36.328125 
Q 17.625 35.9375 16.328125 35.25 
Q 15.046875 34.578125 13.96875 33.671875 
Q 12.890625 32.765625 11.96875 31.78125 
L 4.9375 31.78125 
L 6.78125 68.796875 
L 38.875 68.796875 
L 38.875 61.328125 
L 13.375 61.328125 
L 12.3125 39.5 
Q 14.203125 41.3125 17.078125 42.59375 
Q 19.96875 43.890625 23.921875 43.890625 
Q 28.125 43.890625 31.484375 42.328125 
Q 34.859375 40.765625 37.21875 37.90625 
Q 39.59375 35.0625 40.859375 31.109375 
Q 42.140625 27.15625 42.140625 22.40625 
z
" id="LiberationSansNarrow-53"/>
      </defs>
      <g transform="translate(287.052059 251.665625)scale(0.14 -0.14)">
       <use xlink:href="#LiberationSansNarrow-53"/>
       <use x="45.605469" xlink:href="#LiberationSansNarrow-48"/>
      </g>
     </g>
    </g>
    <g id="xtick_4">
     <g id="line2d_4">
      <path clip-path="url(#p4de568d843)" d="M 376.80661 234.52 
L 376.80661 17.64 
" style="fill:none;stroke:#b0b0b0;stroke-dasharray:1.48,0.64;stroke-dashoffset:0;stroke-width:0.4;"/>
     </g>
     <g id="text_4">
      <!-- 60 -->
      <defs>
       <path d="M 42 22.515625 
Q 42 17.328125 40.828125 13 
Q 39.65625 8.6875 37.359375 5.578125 
Q 35.0625 2.484375 31.640625 0.75 
Q 28.21875 -0.984375 23.78125 -0.984375 
Q 18.84375 -0.984375 15.15625 1.3125 
Q 11.46875 3.609375 9.03125 7.921875 
Q 6.59375 12.25 5.375 18.53125 
Q 4.15625 24.8125 4.15625 32.8125 
Q 4.15625 42 5.546875 48.921875 
Q 6.9375 55.859375 9.515625 60.5 
Q 12.109375 65.140625 15.859375 67.484375 
Q 19.625 69.828125 24.359375 69.828125 
Q 27.25 69.828125 29.765625 69.09375 
Q 32.28125 68.359375 34.328125 66.71875 
Q 36.375 65.09375 37.9375 62.40625 
Q 39.5 59.71875 40.4375 55.8125 
L 33.546875 54.296875 
Q 32.421875 58.734375 29.953125 60.71875 
Q 27.484375 62.703125 24.265625 62.703125 
Q 21.296875 62.703125 18.890625 60.984375 
Q 16.5 59.28125 14.8125 55.875 
Q 13.140625 52.484375 12.234375 47.359375 
Q 11.328125 42.234375 11.328125 35.40625 
Q 13.28125 39.84375 16.84375 42.15625 
Q 20.40625 44.484375 25.046875 44.484375 
Q 28.90625 44.484375 32 42.96875 
Q 35.109375 41.453125 37.328125 38.59375 
Q 39.546875 35.75 40.765625 31.671875 
Q 42 27.59375 42 22.515625 
z
M 34.671875 22.125 
Q 34.671875 25.6875 33.953125 28.5625 
Q 33.25 31.453125 31.8125 33.46875 
Q 30.375 35.5 28.25 36.59375 
Q 26.125 37.703125 23.296875 37.703125 
Q 21.34375 37.703125 19.328125 36.984375 
Q 17.328125 36.28125 15.71875 34.6875 
Q 14.109375 33.109375 13.078125 30.515625 
Q 12.0625 27.9375 12.0625 24.21875 
Q 12.0625 20.40625 12.859375 17.109375 
Q 13.671875 13.8125 15.15625 11.375 
Q 16.65625 8.9375 18.78125 7.515625 
Q 20.90625 6.109375 23.53125 6.109375 
Q 26.125 6.109375 28.203125 7.203125 
Q 30.28125 8.296875 31.71875 10.375 
Q 33.15625 12.453125 33.90625 15.421875 
Q 34.671875 18.40625 34.671875 22.125 
z
" id="LiberationSansNarrow-54"/>
      </defs>
      <g transform="translate(370.421298 251.665625)scale(0.14 -0.14)">
       <use xlink:href="#LiberationSansNarrow-54"/>
       <use x="45.605469" xlink:href="#LiberationSansNarrow-48"/>
      </g>
     </g>
    </g>
    <g id="xtick_5">
     <g id="line2d_5">
      <path clip-path="url(#p4de568d843)" d="M 460.175849 234.52 
L 460.175849 17.64 
" style="fill:none;stroke:#b0b0b0;stroke-dasharray:1.48,0.64;stroke-dashoffset:0;stroke-width:0.4;"/>
     </g>
     <g id="text_5">
      <!-- 70 -->
      <defs>
       <path d="M 41.5 61.671875 
Q 37.25 53.765625 33.6875 46.453125 
Q 30.125 39.15625 27.5625 31.75 
Q 25 24.359375 23.5625 16.578125 
Q 22.125 8.796875 22.125 0 
L 14.59375 0 
Q 14.59375 8.25 16.203125 16.1875 
Q 17.828125 24.125 20.53125 31.765625 
Q 23.25 39.40625 26.859375 46.78125 
Q 30.46875 54.15625 34.515625 61.328125 
L 4.203125 61.328125 
L 4.203125 68.796875 
L 41.5 68.796875 
z
" id="LiberationSansNarrow-55"/>
      </defs>
      <g transform="translate(453.790536 251.665625)scale(0.14 -0.14)">
       <use xlink:href="#LiberationSansNarrow-55"/>
       <use x="45.605469" xlink:href="#LiberationSansNarrow-48"/>
      </g>
     </g>
    </g>
    <g id="xtick_6">
     <g id="line2d_6">
      <path clip-path="url(#p4de568d843)" d="M 543.545088 234.52 
L 543.545088 17.64 
" style="fill:none;stroke:#b0b0b0;stroke-dasharray:1.48,0.64;stroke-dashoffset:0;stroke-width:0.4;"/>
     </g>
     <g id="text_6">
      <!-- 80 -->
      <defs>
       <path d="M 42.046875 19.1875 
Q 42.046875 14.796875 40.890625 11.109375 
Q 39.75 7.421875 37.40625 4.734375 
Q 35.0625 2.046875 31.421875 0.53125 
Q 27.78125 -0.984375 22.796875 -0.984375 
Q 17.828125 -0.984375 14.203125 0.53125 
Q 10.59375 2.046875 8.21875 4.703125 
Q 5.859375 7.375 4.703125 11.0625 
Q 3.5625 14.75 3.5625 19.09375 
Q 3.5625 22.859375 4.515625 25.78125 
Q 5.46875 28.71875 7.03125 30.828125 
Q 8.59375 32.953125 10.609375 34.25 
Q 12.640625 35.546875 14.796875 35.984375 
L 14.796875 36.1875 
Q 12.453125 36.859375 10.59375 38.375 
Q 8.734375 39.890625 7.46875 42.015625 
Q 6.203125 44.140625 5.546875 46.71875 
Q 4.890625 49.3125 4.890625 52.203125 
Q 4.890625 55.8125 6.03125 59 
Q 7.171875 62.203125 9.421875 64.625 
Q 11.671875 67.046875 14.984375 68.4375 
Q 18.3125 69.828125 22.65625 69.828125 
Q 27.25 69.828125 30.640625 68.40625 
Q 34.03125 67 36.25 64.578125 
Q 38.484375 62.15625 39.546875 58.9375 
Q 40.625 55.71875 40.625 52.09375 
Q 40.625 49.265625 39.96875 46.671875 
Q 39.3125 44.09375 38.0625 41.96875 
Q 36.8125 39.84375 34.9375 38.34375 
Q 33.0625 36.859375 30.609375 36.28125 
L 30.609375 36.078125 
Q 33.0625 35.59375 35.15625 34.296875 
Q 37.25 33.015625 38.765625 30.890625 
Q 40.28125 28.765625 41.15625 25.828125 
Q 42.046875 22.90625 42.046875 19.1875 
z
M 33.15625 51.609375 
Q 33.15625 54.203125 32.609375 56.34375 
Q 32.078125 58.5 30.828125 60.03125 
Q 29.59375 61.578125 27.59375 62.421875 
Q 25.59375 63.28125 22.65625 63.28125 
Q 19.828125 63.28125 17.875 62.421875 
Q 15.921875 61.578125 14.640625 60.03125 
Q 13.375 58.5 12.8125 56.34375 
Q 12.25 54.203125 12.25 51.609375 
Q 12.25 49.5625 12.6875 47.40625 
Q 13.140625 45.265625 14.3125 43.5 
Q 15.484375 41.75 17.5 40.625 
Q 19.53125 39.5 22.75 39.5 
Q 26.171875 39.5 28.21875 40.625 
Q 30.28125 41.75 31.375 43.5 
Q 32.46875 45.265625 32.8125 47.40625 
Q 33.15625 49.5625 33.15625 51.609375 
z
M 34.578125 20.015625 
Q 34.578125 22.515625 34.015625 24.828125 
Q 33.453125 27.15625 32.078125 28.9375 
Q 30.71875 30.71875 28.421875 31.8125 
Q 26.125 32.90625 22.65625 32.90625 
Q 19.484375 32.90625 17.265625 31.8125 
Q 15.046875 30.71875 13.671875 28.90625 
Q 12.3125 27.09375 11.671875 24.71875 
Q 11.03125 22.359375 11.03125 19.828125 
Q 11.03125 16.65625 11.671875 14.03125 
Q 12.3125 11.421875 13.703125 9.546875 
Q 15.09375 7.671875 17.375 6.640625 
Q 19.671875 5.609375 22.90625 5.609375 
Q 26.171875 5.609375 28.421875 6.640625 
Q 30.671875 7.671875 32.03125 9.546875 
Q 33.40625 11.421875 33.984375 14.078125 
Q 34.578125 16.75 34.578125 20.015625 
z
" id="LiberationSansNarrow-56"/>
      </defs>
      <g transform="translate(537.159775 251.665625)scale(0.14 -0.14)">
       <use xlink:href="#LiberationSansNarrow-56"/>
       <use x="45.605469" xlink:href="#LiberationSansNarrow-48"/>
      </g>
     </g>
    </g>
    <g id="text_7">
     <!-- риск, % недополученного капитала -->
     <defs>
      <path d="M 42.140625 26.65625 
Q 42.140625 20.65625 41.359375 15.578125 
Q 40.578125 10.5 38.6875 6.828125 
Q 36.8125 3.171875 33.765625 1.09375 
Q 30.71875 -0.984375 26.21875 -0.984375 
Q 21.578125 -0.984375 18.078125 1.171875 
Q 14.59375 3.328125 12.796875 8.203125 
L 12.546875 8.203125 
Q 12.59375 8.109375 12.609375 7.328125 
Q 12.640625 6.546875 12.671875 5.375 
Q 12.703125 4.203125 12.71875 2.75 
Q 12.75 1.3125 12.75 -0.09375 
L 12.75 -20.75 
L 5.515625 -20.75 
L 5.515625 42.046875 
Q 5.515625 43.953125 5.484375 45.703125 
Q 5.46875 47.46875 5.4375 48.90625 
Q 5.421875 50.34375 5.375 51.359375 
Q 5.328125 52.390625 5.28125 52.828125 
L 12.25 52.828125 
Q 12.3125 52.6875 12.359375 51.8125 
L 12.5 49.703125 
Q 12.546875 48.4375 12.59375 47.015625 
Q 12.640625 45.609375 12.640625 44.34375 
L 12.796875 44.34375 
Q 13.765625 46.875 15.0625 48.65625 
Q 16.359375 50.4375 18.015625 51.578125 
Q 19.671875 52.734375 21.671875 53.25 
Q 23.6875 53.765625 26.21875 53.765625 
Q 30.71875 53.765625 33.765625 51.8125 
Q 36.8125 49.859375 38.6875 46.3125 
Q 40.578125 42.78125 41.359375 37.765625 
Q 42.140625 32.765625 42.140625 26.65625 
z
M 34.578125 26.46875 
Q 34.578125 31.34375 34.109375 35.15625 
Q 33.640625 38.96875 32.4375 41.59375 
Q 31.25 44.234375 29.296875 45.59375 
Q 27.34375 46.96875 24.359375 46.96875 
Q 21.96875 46.96875 19.84375 46.140625 
Q 17.71875 45.3125 16.125 42.96875 
Q 14.546875 40.625 13.640625 36.5 
Q 12.75 32.375 12.75 25.78125 
Q 12.75 20.171875 13.5 16.28125 
Q 14.265625 12.40625 15.71875 10.015625 
Q 17.1875 7.625 19.328125 6.5625 
Q 21.484375 5.515625 24.3125 5.515625 
Q 27.34375 5.515625 29.296875 6.921875 
Q 31.25 8.34375 32.4375 11.03125 
Q 33.640625 13.71875 34.109375 17.59375 
Q 34.578125 21.484375 34.578125 26.46875 
z
" id="LiberationSansNarrow-1088"/>
      <path d="M 12.640625 52.828125 
L 12.640625 23.921875 
Q 12.640625 22.796875 12.59375 20.921875 
Q 12.546875 19.046875 12.46875 17.046875 
Q 12.40625 15.046875 12.359375 13.234375 
Q 12.3125 11.421875 12.25 10.40625 
L 32.28125 52.828125 
L 40.140625 52.828125 
L 40.140625 0 
L 33.25 0 
L 33.25 32.234375 
Q 33.25 33.15625 33.296875 34.578125 
L 33.40625 37.40625 
Q 33.453125 38.875 33.5 40.234375 
L 33.640625 42.625 
L 13.375 0 
L 5.71875 0 
L 5.71875 52.828125 
z
" id="LiberationSansNarrow-1080"/>
      <path d="M 11.03125 26.65625 
Q 11.03125 22.125 11.5625 18.3125 
Q 12.109375 14.5 13.375 11.734375 
Q 14.65625 8.984375 16.75 7.46875 
Q 18.84375 5.953125 21.96875 5.953125 
Q 25.828125 5.953125 28.390625 8.484375 
Q 30.953125 11.03125 31.546875 16.3125 
L 38.875 15.71875 
Q 38.53125 12.453125 37.296875 9.421875 
Q 36.078125 6.390625 34.03125 4.09375 
Q 31.984375 1.8125 29 0.40625 
Q 26.03125 -0.984375 22.171875 -0.984375 
Q 17.09375 -0.984375 13.5 1.109375 
Q 9.90625 3.21875 7.6875 6.90625 
Q 5.46875 10.59375 4.46875 15.59375 
Q 3.46875 20.609375 3.46875 26.46875 
Q 3.46875 31.78125 4.203125 35.859375 
Q 4.9375 39.9375 6.21875 42.984375 
Q 7.515625 46.046875 9.265625 48.125 
Q 11.03125 50.203125 13.109375 51.4375 
Q 15.1875 52.6875 17.453125 53.25 
Q 19.734375 53.8125 22.078125 53.8125 
Q 25.734375 53.8125 28.5625 52.59375 
Q 31.390625 51.375 33.46875 49.25 
Q 35.546875 47.125 36.8125 44.234375 
Q 38.09375 41.359375 38.625 38.03125 
L 31.203125 37.359375 
Q 30.671875 41.75 28.375 44.328125 
Q 26.078125 46.921875 21.875 46.921875 
Q 18.796875 46.921875 16.71875 45.671875 
Q 14.65625 44.4375 13.375 41.921875 
Q 12.109375 39.40625 11.5625 35.59375 
Q 11.03125 31.78125 11.03125 26.65625 
z
" id="LiberationSansNarrow-1089"/>
      <path d="M 5.515625 52.828125 
L 12.703125 52.828125 
L 12.703125 29.6875 
Q 13.921875 29.6875 14.875 30.078125 
Q 15.828125 30.46875 16.875 31.6875 
Q 17.921875 32.90625 19.21875 35.15625 
Q 20.515625 37.40625 22.46875 41.15625 
L 28.375 52.828125 
L 35.890625 52.828125 
L 27.25 36.96875 
Q 25.4375 33.734375 24.109375 31.65625 
Q 22.796875 29.59375 22.125 28.90625 
L 36.234375 0 
L 28.21875 0 
L 17.140625 24.265625 
Q 16.359375 23.875 15.0625 23.578125 
Q 13.765625 23.296875 12.703125 23.296875 
L 12.703125 0 
L 5.515625 0 
z
" id="LiberationSansNarrow-1082"/>
      <path d="M 15.4375 10.6875 
L 15.4375 2.484375 
Q 15.4375 -0.09375 15.265625 -2.21875 
Q 15.09375 -4.34375 14.671875 -6.171875 
Q 14.265625 -8.015625 13.671875 -9.625 
Q 13.09375 -11.234375 12.3125 -12.796875 
L 7.375 -12.796875 
Q 9.1875 -9.625 10.15625 -6.390625 
Q 11.140625 -3.171875 11.140625 0 
L 7.625 0 
L 7.625 10.6875 
z
" id="LiberationSansNarrow-44"/>
      <path id="LiberationSansNarrow-32"/>
      <path d="M 69.96875 21.1875 
Q 69.96875 15.09375 68.9375 10.90625 
Q 67.921875 6.734375 66.1875 4.171875 
Q 64.453125 1.609375 62.125 0.5 
Q 59.8125 -0.59375 57.171875 -0.59375 
Q 54.546875 -0.59375 52.21875 0.5 
Q 49.90625 1.609375 48.21875 4.140625 
Q 46.53125 6.6875 45.546875 10.859375 
Q 44.578125 15.046875 44.578125 21.1875 
Q 44.578125 27.6875 45.53125 31.9375 
Q 46.484375 36.1875 48.1875 38.703125 
Q 49.90625 41.21875 52.25 42.21875 
Q 54.59375 43.21875 57.328125 43.21875 
Q 59.96875 43.21875 62.25 42.21875 
Q 64.546875 41.21875 66.25 38.703125 
Q 67.96875 36.1875 68.96875 31.9375 
Q 69.96875 27.6875 69.96875 21.1875 
z
M 21.09375 0 
L 14.890625 0 
L 51.8125 68.796875 
L 58.109375 68.796875 
z
M 15.765625 69.390625 
Q 18.3125 69.390625 20.609375 68.390625 
Q 22.90625 67.390625 24.609375 64.890625 
Q 26.3125 62.40625 27.3125 58.203125 
Q 28.328125 54 28.328125 47.609375 
Q 28.328125 41.453125 27.3125 37.25 
Q 26.3125 33.0625 24.609375 30.4375 
Q 22.90625 27.828125 20.578125 26.703125 
Q 18.265625 25.59375 15.625 25.59375 
Q 12.9375 25.59375 10.609375 26.703125 
Q 8.296875 27.828125 6.59375 30.421875 
Q 4.890625 33.015625 3.90625 37.203125 
Q 2.9375 41.40625 2.9375 47.609375 
Q 2.9375 54 3.90625 58.203125 
Q 4.890625 62.40625 6.609375 64.890625 
Q 8.34375 67.390625 10.6875 68.390625 
Q 13.03125 69.390625 15.765625 69.390625 
z
M 64.0625 21.1875 
Q 64.0625 26.03125 63.625 29.21875 
Q 63.1875 32.421875 62.328125 34.328125 
Q 61.46875 36.234375 60.203125 37.015625 
Q 58.9375 37.796875 57.328125 37.796875 
Q 55.671875 37.796875 54.375 36.984375 
Q 53.078125 36.1875 52.1875 34.28125 
Q 51.3125 32.375 50.875 29.171875 
Q 50.4375 25.984375 50.4375 21.1875 
Q 50.4375 16.546875 50.90625 13.421875 
Q 51.375 10.296875 52.21875 8.375 
Q 53.078125 6.453125 54.34375 5.609375 
Q 55.609375 4.78125 57.234375 4.78125 
Q 58.796875 4.78125 60.0625 5.609375 
Q 61.328125 6.453125 62.203125 8.375 
Q 63.09375 10.296875 63.578125 13.421875 
Q 64.0625 16.546875 64.0625 21.1875 
z
M 22.40625 47.609375 
Q 22.40625 52.390625 21.96875 55.5625 
Q 21.53125 58.734375 20.703125 60.640625 
Q 19.875 62.546875 18.625 63.328125 
Q 17.390625 64.109375 15.765625 64.109375 
Q 14.0625 64.109375 12.734375 63.296875 
Q 11.421875 62.5 10.546875 60.59375 
Q 9.671875 58.6875 9.234375 55.515625 
Q 8.796875 52.34375 8.796875 47.609375 
Q 8.796875 42.96875 9.25 39.796875 
Q 9.71875 36.625 10.5625 34.6875 
Q 11.421875 32.765625 12.71875 31.9375 
Q 14.015625 31.109375 15.671875 31.109375 
Q 17.1875 31.109375 18.421875 31.9375 
Q 19.671875 32.765625 20.546875 34.6875 
Q 21.4375 36.625 21.921875 39.796875 
Q 22.40625 42.96875 22.40625 47.609375 
z
" id="LiberationSansNarrow-37"/>
      <path d="M 12.890625 52.828125 
L 12.890625 30.46875 
L 32.375 30.46875 
L 32.375 52.828125 
L 39.59375 52.828125 
L 39.59375 0 
L 32.375 0 
L 32.375 24.078125 
L 12.890625 24.078125 
L 12.890625 0 
L 5.671875 0 
L 5.671875 52.828125 
z
" id="LiberationSansNarrow-1085"/>
      <path d="M 10.6875 24.5625 
Q 10.6875 20.40625 11.5625 16.90625 
Q 12.453125 13.421875 13.90625 10.90625 
Q 15.375 8.40625 17.640625 7 
Q 19.921875 5.609375 23.140625 5.609375 
Q 27.828125 5.609375 30.65625 7.90625 
Q 33.5 10.203125 34.46875 13.71875 
L 40.828125 11.53125 
Q 40.140625 9.328125 38.921875 7.109375 
Q 37.703125 4.890625 35.640625 3.09375 
Q 33.59375 1.3125 30.53125 0.15625 
Q 27.484375 -0.984375 23.140625 -0.984375 
Q 13.53125 -0.984375 8.5 6 
Q 3.46875 12.984375 3.46875 26.765625 
Q 3.46875 34.1875 5 39.328125 
Q 6.546875 44.484375 9.171875 47.703125 
Q 11.8125 50.921875 15.328125 52.359375 
Q 18.84375 53.8125 22.859375 53.8125 
Q 28.328125 53.8125 31.984375 51.65625 
Q 39.0625 47.515625 41.015625 36.8125 
Q 41.9375 31.6875 41.9375 25.734375 
L 41.9375 24.5625 
z
M 34.71875 31.296875 
Q 34.71875 40.140625 31.421875 43.71875 
Q 28.125 47.3125 22.75 47.3125 
Q 18.953125 47.3125 15.328125 44.09375 
Q 10.9375 40.328125 10.6875 31.296875 
z
" id="LiberationSansNarrow-1077"/>
      <path d="M 33.34375 46.4375 
L 21.140625 46.4375 
Q 20.171875 37.796875 19.1875 31.375 
Q 18.21875 24.953125 17.234375 20.21875 
Q 16.265625 15.484375 15.3125 12.15625 
Q 14.359375 8.84375 13.484375 6.390625 
L 33.34375 6.390625 
z
M 46.390625 -19.921875 
L 39.890625 -19.921875 
L 39.890625 0 
L 7.328125 0 
L 7.328125 -19.921875 
L 0.78125 -19.921875 
L 0.78125 6.390625 
L 5.5625 6.390625 
Q 6.78125 8.84375 7.921875 12.328125 
Q 9.078125 15.828125 10.21875 21.1875 
Q 11.375 26.5625 12.515625 34.25 
Q 13.671875 41.9375 14.796875 52.828125 
L 40.578125 52.828125 
L 40.578125 6.390625 
L 46.390625 6.390625 
z
" id="LiberationSansNarrow-1076"/>
      <path d="M 42.140625 26.46875 
Q 42.140625 12.59375 37.125 5.796875 
Q 32.125 -0.984375 22.609375 -0.984375 
Q 18.0625 -0.984375 14.515625 0.671875 
Q 10.984375 2.34375 8.515625 5.765625 
Q 6.0625 9.1875 4.765625 14.328125 
Q 3.46875 19.484375 3.46875 26.46875 
Q 3.46875 53.8125 22.859375 53.8125 
Q 27.875 53.8125 31.5625 52.09375 
Q 35.25 50.390625 37.59375 46.96875 
Q 39.9375 43.5625 41.03125 38.421875 
Q 42.140625 33.296875 42.140625 26.46875 
z
M 34.578125 26.46875 
Q 34.578125 32.625 33.8125 36.625 
Q 33.0625 40.625 31.546875 43.015625 
Q 30.03125 45.40625 27.859375 46.359375 
Q 25.6875 47.3125 23 47.3125 
Q 20.21875 47.3125 17.984375 46.3125 
Q 15.765625 45.3125 14.203125 42.890625 
Q 12.640625 40.484375 11.828125 36.46875 
Q 11.03125 32.46875 11.03125 26.46875 
Q 11.03125 20.3125 11.90625 16.28125 
Q 12.796875 12.25 14.328125 9.859375 
Q 15.875 7.46875 17.96875 6.484375 
Q 20.0625 5.515625 22.5625 5.515625 
Q 25.34375 5.515625 27.5625 6.46875 
Q 29.78125 7.421875 31.34375 9.8125 
Q 32.90625 12.203125 33.734375 16.25 
Q 34.578125 20.3125 34.578125 26.46875 
z
" id="LiberationSansNarrow-1086"/>
      <path d="M 38.71875 52.828125 
L 38.71875 0 
L 31.546875 0 
L 31.546875 46.4375 
L 12.890625 46.4375 
L 12.890625 0 
L 5.71875 0 
L 5.71875 52.828125 
z
" id="LiberationSansNarrow-1087"/>
      <path d="M 34.859375 0 
L 34.859375 46.4375 
L 19.875 46.4375 
Q 18.890625 37.453125 18.03125 30.4375 
Q 17.1875 23.4375 16.3125 18.15625 
Q 15.4375 12.890625 14.40625 9.25 
Q 13.375 5.609375 11.953125 3.34375 
Q 10.546875 1.078125 8.65625 0.046875 
Q 6.78125 -0.984375 4.203125 -0.984375 
Q 3.03125 -0.984375 2.078125 -0.78125 
Q 1.125 -0.59375 0.4375 -0.34375 
L 0.4375 5.953125 
Q 0.875 5.765625 1.625 5.640625 
Q 2.390625 5.515625 3.171875 5.515625 
Q 4.59375 5.515625 5.59375 6.53125 
Q 6.59375 7.5625 7.390625 9.859375 
Q 8.203125 12.15625 8.859375 15.796875 
Q 9.515625 19.4375 10.203125 24.703125 
Q 10.890625 29.984375 11.625 36.921875 
L 13.375 52.828125 
L 42.140625 52.828125 
L 42.140625 0 
z
" id="LiberationSansNarrow-1083"/>
      <path d="M 24.171875 0 
Q 22.65625 -4.78125 21.0625 -8.609375 
Q 19.484375 -12.453125 17.53125 -15.15625 
Q 15.578125 -17.875 13.1875 -19.3125 
Q 10.796875 -20.75 7.671875 -20.75 
Q 6.296875 -20.75 5.125 -20.65625 
Q 3.953125 -20.5625 2.6875 -20.21875 
L 2.6875 -13.625 
Q 3.46875 -13.765625 4.421875 -13.84375 
Q 5.375 -13.921875 6.0625 -13.921875 
Q 9.234375 -13.921875 11.9375 -11.03125 
Q 14.65625 -8.15625 16.703125 -1.859375 
L 17.390625 0.25 
L 0.203125 52.828125 
L 7.90625 52.828125 
L 17.046875 23.640625 
Q 17.046875 23.640625 18.0625 20.125 
L 19.28125 15.71875 
Q 19.921875 13.53125 20.375 11.765625 
Q 20.84375 10.015625 20.953125 9.578125 
Q 21.046875 10.109375 21.484375 11.71875 
L 22.5625 15.234375 
L 23.734375 19.1875 
Q 24.359375 21.1875 24.75 22.65625 
L 33.25 52.828125 
L 40.875 52.828125 
z
" id="LiberationSansNarrow-1091"/>
      <path d="M 12.109375 52.828125 
L 12.109375 33.203125 
Q 12.109375 31.546875 12.421875 30.09375 
Q 12.75 28.65625 13.53125 27.578125 
Q 14.3125 26.515625 15.578125 25.90625 
Q 16.84375 25.296875 18.75 25.296875 
Q 21.53125 25.296875 24.171875 25.921875 
Q 26.8125 26.5625 29.78125 27.59375 
L 29.78125 52.828125 
L 37.015625 52.828125 
L 37.015625 0 
L 29.78125 0 
L 29.78125 22.515625 
Q 29.78125 22.515625 26.65625 21 
Q 25.046875 20.265625 23.28125 19.671875 
Q 21.53125 19.09375 19.671875 18.703125 
Q 17.828125 18.3125 15.765625 18.3125 
Q 13.140625 18.3125 11.109375 19.3125 
Q 9.078125 20.3125 7.703125 22.171875 
Q 6.34375 24.03125 5.609375 26.703125 
Q 4.890625 29.390625 4.890625 32.765625 
L 4.890625 52.828125 
z
" id="LiberationSansNarrow-1095"/>
      <path d="M 27.546875 52.828125 
L 27.546875 46.4375 
L 12.890625 46.4375 
L 12.890625 0 
L 5.71875 0 
L 5.71875 52.828125 
z
" id="LiberationSansNarrow-1075"/>
      <path d="M 16.546875 -0.984375 
Q 10.015625 -0.984375 6.734375 3.21875 
Q 3.46875 7.421875 3.46875 14.75 
Q 3.46875 19.96875 5.09375 23.3125 
Q 6.734375 26.65625 9.34375 28.5625 
Q 11.96875 30.46875 15.328125 31.203125 
Q 18.703125 31.9375 22.171875 32.03125 
L 31.9375 32.234375 
L 31.9375 35.109375 
Q 31.9375 38.375 31.375 40.671875 
Q 30.8125 42.96875 29.640625 44.375 
Q 28.46875 45.796875 26.734375 46.453125 
Q 25 47.125 22.609375 47.125 
Q 20.515625 47.125 18.84375 46.75 
Q 17.1875 46.390625 15.9375 45.4375 
Q 14.703125 44.484375 13.9375 42.84375 
Q 13.1875 41.21875 12.9375 38.71875 
L 5.421875 39.546875 
Q 5.8125 42.671875 6.9375 45.28125 
Q 8.0625 47.90625 10.109375 49.796875 
Q 12.15625 51.703125 15.25 52.75 
Q 18.359375 53.8125 22.796875 53.8125 
Q 30.953125 53.8125 35.078125 49.234375 
Q 39.203125 44.671875 39.203125 36.03125 
L 39.203125 13.28125 
Q 39.203125 9.375 40.03125 7.390625 
Q 40.875 5.421875 43.265625 5.421875 
Q 43.84375 5.421875 44.453125 5.515625 
Q 45.0625 5.609375 45.609375 5.765625 
L 45.609375 0.296875 
Q 44.234375 -0.09375 42.890625 -0.28125 
Q 41.546875 -0.484375 40.046875 -0.484375 
Q 37.984375 -0.484375 36.515625 0.171875 
Q 35.0625 0.828125 34.15625 2.171875 
Q 33.25 3.515625 32.765625 5.484375 
Q 32.28125 7.46875 32.125 10.109375 
L 31.9375 10.109375 
Q 30.765625 7.5625 29.375 5.515625 
Q 27.984375 3.46875 26.140625 2.03125 
Q 24.3125 0.59375 21.9375 -0.1875 
Q 19.578125 -0.984375 16.546875 -0.984375 
z
M 18.21875 5.609375 
Q 21.6875 5.609375 24.25 7.140625 
Q 26.8125 8.6875 28.515625 11.078125 
Q 30.21875 13.484375 31.078125 16.3125 
Q 31.9375 19.140625 31.9375 21.734375 
L 31.9375 26.078125 
L 24.03125 25.875 
Q 21.390625 25.828125 19 25.40625 
Q 16.609375 25 14.8125 23.78125 
Q 13.03125 22.5625 11.953125 20.359375 
Q 10.890625 18.171875 10.890625 14.59375 
Q 10.890625 10.296875 12.796875 7.953125 
Q 14.703125 5.609375 18.21875 5.609375 
z
" id="LiberationSansNarrow-1072"/>
      <path d="M 1.421875 52.828125 
L 36.140625 52.828125 
L 36.140625 46.4375 
L 22.359375 46.4375 
L 22.359375 0 
L 15.1875 0 
L 15.1875 46.4375 
L 1.421875 46.4375 
z
" id="LiberationSansNarrow-1090"/>
     </defs>
     <g transform="translate(208.210312 268.71625)scale(0.14 -0.14)">
      <use xlink:href="#LiberationSansNarrow-1088"/>
      <use x="45.605469" xlink:href="#LiberationSansNarrow-1080"/>
      <use x="91.455078" xlink:href="#LiberationSansNarrow-1089"/>
      <use x="132.470703" xlink:href="#LiberationSansNarrow-1082"/>
      <use x="168.310547" xlink:href="#LiberationSansNarrow-44"/>
      <use x="191.113281" xlink:href="#LiberationSansNarrow-32"/>
      <use x="213.916016" xlink:href="#LiberationSansNarrow-37"/>
      <use x="286.816406" xlink:href="#LiberationSansNarrow-32"/>
      <use x="309.619141" xlink:href="#LiberationSansNarrow-1085"/>
      <use x="354.882812" xlink:href="#LiberationSansNarrow-1077"/>
      <use x="400.457031" xlink:href="#LiberationSansNarrow-1076"/>
      <use x="448.259766" xlink:href="#LiberationSansNarrow-1086"/>
      <use x="493.865234" xlink:href="#LiberationSansNarrow-1087"/>
      <use x="538.298828" xlink:href="#LiberationSansNarrow-1086"/>
      <use x="583.873047" xlink:href="#LiberationSansNarrow-1083"/>
      <use x="631.675781" xlink:href="#LiberationSansNarrow-1091"/>
      <use x="672.691406" xlink:href="#LiberationSansNarrow-1095"/>
      <use x="715.416016" xlink:href="#LiberationSansNarrow-1077"/>
      <use x="761.021484" xlink:href="#LiberationSansNarrow-1085"/>
      <use x="806.285156" xlink:href="#LiberationSansNarrow-1085"/>
      <use x="851.548828" xlink:href="#LiberationSansNarrow-1086"/>
      <use x="897.154297" xlink:href="#LiberationSansNarrow-1075"/>
      <use x="927.054688" xlink:href="#LiberationSansNarrow-1086"/>
      <use x="972.660156" xlink:href="#LiberationSansNarrow-32"/>
      <use x="995.462891" xlink:href="#LiberationSansNarrow-1082"/>
      <use x="1031.333984" xlink:href="#LiberationSansNarrow-1072"/>
      <use x="1076.939453" xlink:href="#LiberationSansNarrow-1087"/>
      <use x="1121.373047" xlink:href="#LiberationSansNarrow-1080"/>
      <use x="1167.222656" xlink:href="#LiberationSansNarrow-1090"/>
      <use x="1204.755859" xlink:href="#LiberationSansNarrow-1072"/>
      <use x="1250.361328" xlink:href="#LiberationSansNarrow-1083"/>
      <use x="1298.164062" xlink:href="#LiberationSansNarrow-1072"/>
     </g>
    </g>
   </g>
   <g id="matplotlib.axis_2">
    <g id="ytick_1">
     <g id="line2d_7">
      <path clip-path="url(#p4de568d843)" d="M 46.19 200.244454 
L 558.36 200.244454 
" style="fill:none;stroke:#b0b0b0;stroke-dasharray:1.48,0.64;stroke-dashoffset:0;stroke-width:0.4;"/>
     </g>
     <g id="text_8">
      <!-- 0 -->
      <g transform="translate(32.804688 205.317266)scale(0.14 -0.14)">
       <use xlink:href="#LiberationSansNarrow-48"/>
      </g>
     </g>
    </g>
    <g id="ytick_2">
     <g id="line2d_8">
      <path clip-path="url(#p4de568d843)" d="M 46.19 148.561032 
L 558.36 148.561032 
" style="fill:none;stroke:#b0b0b0;stroke-dasharray:1.48,0.64;stroke-dashoffset:0;stroke-width:0.4;"/>
     </g>
     <g id="text_9">
      <!-- 2 -->
      <defs>
       <path d="M 4.109375 0 
L 4.109375 6.203125 
Q 6.15625 11.921875 9.109375 16.28125 
Q 12.0625 20.65625 15.3125 24.1875 
Q 18.5625 27.734375 21.734375 30.765625 
Q 24.90625 33.796875 27.46875 36.8125 
Q 30.03125 39.84375 31.609375 43.15625 
Q 33.203125 46.484375 33.203125 50.6875 
Q 33.203125 53.609375 32.46875 55.828125 
Q 31.734375 58.0625 30.390625 59.5625 
Q 29.046875 61.078125 27.140625 61.828125 
Q 25.25 62.59375 22.90625 62.59375 
Q 20.75 62.59375 18.84375 61.859375 
Q 16.9375 61.140625 15.453125 59.671875 
Q 13.96875 58.203125 13.03125 56.03125 
Q 12.109375 53.859375 11.8125 50.984375 
L 4.4375 51.8125 
Q 4.78125 55.515625 6.125 58.78125 
Q 7.46875 62.0625 9.78125 64.53125 
Q 12.109375 67 15.359375 68.40625 
Q 18.609375 69.828125 22.90625 69.828125 
Q 27.09375 69.828125 30.390625 68.609375 
Q 33.6875 67.390625 35.9375 64.984375 
Q 38.1875 62.59375 39.40625 59.078125 
Q 40.625 55.5625 40.625 50.984375 
Q 40.625 47.515625 39.59375 44.390625 
Q 38.578125 41.265625 36.859375 38.421875 
Q 35.15625 35.59375 32.90625 32.953125 
Q 30.671875 30.328125 28.21875 27.828125 
L 23.296875 22.859375 
Q 20.796875 20.359375 18.625 17.859375 
Q 16.453125 15.375 14.734375 12.8125 
Q 13.03125 10.25 12.0625 7.46875 
L 41.5 7.46875 
L 41.5 0 
z
" id="LiberationSansNarrow-50"/>
      </defs>
      <g transform="translate(32.804688 153.633845)scale(0.14 -0.14)">
       <use xlink:href="#LiberationSansNarrow-50"/>
      </g>
     </g>
    </g>
    <g id="ytick_3">
     <g id="line2d_9">
      <path clip-path="url(#p4de568d843)" d="M 46.19 96.87761 
L 558.36 96.87761 
" style="fill:none;stroke:#b0b0b0;stroke-dasharray:1.48,0.64;stroke-dashoffset:0;stroke-width:0.4;"/>
     </g>
     <g id="text_10">
      <!-- 4 -->
      <g transform="translate(32.804688 101.950423)scale(0.14 -0.14)">
       <use xlink:href="#LiberationSansNarrow-52"/>
      </g>
     </g>
    </g>
    <g id="ytick_4">
     <g id="line2d_10">
      <path clip-path="url(#p4de568d843)" d="M 46.19 45.194189 
L 558.36 45.194189 
" style="fill:none;stroke:#b0b0b0;stroke-dasharray:1.48,0.64;stroke-dashoffset:0;stroke-width:0.4;"/>
     </g>
     <g id="text_11">
      <!-- 6 -->
      <g transform="translate(32.804688 50.267001)scale(0.14 -0.14)">
       <use xlink:href="#LiberationSansNarrow-54"/>
      </g>
     </g>
    </g>
    <g id="text_12">
     <!-- реальная доходность, %г -->
     <defs>
      <path d="M 22.75 30.46875 
Q 30.953125 30.46875 35.15625 26.875 
Q 39.359375 23.296875 39.359375 15.53125 
Q 39.359375 11.921875 38.296875 9.03125 
Q 37.25 6.15625 35.171875 4.15625 
Q 33.109375 2.15625 30 1.078125 
Q 26.90625 0 22.796875 0 
L 5.671875 0 
L 5.671875 52.828125 
L 12.890625 52.828125 
L 12.890625 30.46875 
z
M 12.890625 6.203125 
L 21.6875 6.203125 
Q 24.46875 6.203125 26.390625 6.8125 
Q 28.328125 7.421875 29.5 8.609375 
Q 30.671875 9.8125 31.171875 11.546875 
Q 31.6875 13.28125 31.6875 15.53125 
Q 31.6875 20.125 29.359375 22.234375 
Q 27.046875 24.359375 21.734375 24.359375 
L 12.890625 24.359375 
z
" id="LiberationSansNarrow-1100"/>
      <path d="M 21.4375 22.359375 
L 8.84375 0 
L 0.6875 0 
L 14.453125 23 
Q 9.234375 24.3125 6.859375 28.296875 
Q 4.5 32.28125 4.5 38.234375 
Q 4.5 45.515625 8.8125 49.171875 
Q 13.140625 52.828125 21.4375 52.828125 
L 38.71875 52.828125 
L 38.71875 0 
L 31.546875 0 
L 31.546875 22.359375 
z
M 31.546875 46.625 
L 22.171875 46.625 
Q 16.9375 46.625 14.546875 44.375 
Q 12.15625 42.140625 12.15625 37.59375 
Q 12.15625 33.015625 14.28125 30.734375 
Q 16.40625 28.46875 21.390625 28.46875 
L 31.546875 28.46875 
z
" id="LiberationSansNarrow-1103"/>
      <path d="M 32.078125 0 
L 20.40625 21.6875 
L 8.6875 0 
L 0.921875 0 
L 16.359375 27.15625 
L 1.65625 52.828125 
L 9.625 52.828125 
L 20.40625 32.28125 
L 31.15625 52.828125 
L 39.203125 52.828125 
L 24.515625 27.25 
L 40.140625 0 
z
" id="LiberationSansNarrow-1093"/>
     </defs>
     <g transform="translate(25.899688 194.246875)rotate(-90)scale(0.14 -0.14)">
      <use xlink:href="#LiberationSansNarrow-1088"/>
      <use x="45.605469" xlink:href="#LiberationSansNarrow-1077"/>
      <use x="91.210938" xlink:href="#LiberationSansNarrow-1072"/>
      <use x="136.816406" xlink:href="#LiberationSansNarrow-1083"/>
      <use x="184.619141" xlink:href="#LiberationSansNarrow-1100"/>
      <use x="227.34375" xlink:href="#LiberationSansNarrow-1085"/>
      <use x="272.607422" xlink:href="#LiberationSansNarrow-1072"/>
      <use x="318.212891" xlink:href="#LiberationSansNarrow-1103"/>
      <use x="362.646484" xlink:href="#LiberationSansNarrow-32"/>
      <use x="385.449219" xlink:href="#LiberationSansNarrow-1076"/>
      <use x="433.251953" xlink:href="#LiberationSansNarrow-1086"/>
      <use x="478.841797" xlink:href="#LiberationSansNarrow-1093"/>
      <use x="519.841797" xlink:href="#LiberationSansNarrow-1086"/>
      <use x="565.416016" xlink:href="#LiberationSansNarrow-1076"/>
      <use x="613.21875" xlink:href="#LiberationSansNarrow-1085"/>
      <use x="658.482422" xlink:href="#LiberationSansNarrow-1086"/>
      <use x="704.087891" xlink:href="#LiberationSansNarrow-1089"/>
      <use x="745.103516" xlink:href="#LiberationSansNarrow-1090"/>
      <use x="782.652344" xlink:href="#LiberationSansNarrow-1100"/>
      <use x="825.376953" xlink:href="#LiberationSansNarrow-44"/>
      <use x="848.179688" xlink:href="#LiberationSansNarrow-32"/>
      <use x="870.982422" xlink:href="#LiberationSansNarrow-37"/>
      <use x="943.882812" xlink:href="#LiberationSansNarrow-1075"/>
     </g>
    </g>
   </g>
   <g id="line2d_11">
    <path clip-path="url(#p4de568d843)" d="M 388.078259 28.934211 
L 381.624617 33.984169 
L 383.177014 40.257382 
L 388.031163 46.60835 
L 389.184625 54.549704 
L 360.092534 72.332896 
L 326.655715 96.073428 
L 287.697442 121.049249 
L 262.450536 142.34092 
L 251.459392 160.843578 
L 245.297035 179.161956 
" style="fill:none;stroke:#1f77b4;stroke-linecap:square;stroke-width:1.5;"/>
    <defs>
     <path d="M 0 1.5 
C 0.397805 1.5 0.77937 1.341951 1.06066 1.06066 
C 1.341951 0.77937 1.5 0.397805 1.5 0 
C 1.5 -0.397805 1.341951 -0.77937 1.06066 -1.06066 
C 0.77937 -1.341951 0.397805 -1.5 0 -1.5 
C -0.397805 -1.5 -0.77937 -1.341951 -1.06066 -1.06066 
C -1.341951 -0.77937 -1.5 -0.397805 -1.5 0 
C -1.5 0.397805 -1.341951 0.77937 -1.06066 1.06066 
C -0.77937 1.341951 -0.397805 1.5 0 1.5 
z
" id="mca6a9be14e" style="stroke:#1f77b4;"/>
    </defs>
    <g clip-path="url(#p4de568d843)">
     <use style="fill:#1f77b4;stroke:#1f77b4;" x="388.078259" xlink:href="#mca6a9be14e" y="28.934211"/>
     <use style="fill:#1f77b4;stroke:#1f77b4;" x="381.624617" xlink:href="#mca6a9be14e" y="33.984169"/>
     <use style="fill:#1f77b4;stroke:#1f77b4;" x="383.177014" xlink:href="#mca6a9be14e" y="40.257382"/>
     <use style="fill:#1f77b4;stroke:#1f77b4;" x="388.031163" xlink:href="#mca6a9be14e" y="46.60835"/>
     <use style="fill:#1f77b4;stroke:#1f77b4;" x="389.184625" xlink:href="#mca6a9be14e" y="54.549704"/>
     <use style="fill:#1f77b4;stroke:#1f77b4;" x="360.092534" xlink:href="#mca6a9be14e" y="72.332896"/>
     <use style="fill:#1f77b4;stroke:#1f77b4;" x="326.655715" xlink:href="#mca6a9be14e" y="96.073428"/>
     <use style="fill:#1f77b4;stroke:#1f77b4;" x="287.697442" xlink:href="#mca6a9be14e" y="121.049249"/>
     <use style="fill:#1f77b4;stroke:#1f77b4;" x="262.450536" xlink:href="#mca6a9be14e" y="142.34092"/>
     <use style="fill:#1f77b4;stroke:#1f77b4;" x="251.459392" xlink:href="#mca6a9be14e" y="160.843578"/>
     <use style="fill:#1f77b4;stroke:#1f77b4;" x="245.297035" xlink:href="#mca6a9be14e" y="179.161956"/>
    </g>
   </g>
   <g id="line2d_12">
    <path clip-path="url(#p4de568d843)" d="M 388.078259 28.934211 
L 335.794382 33.222584 
L 297.021239 27.498182 
L 282.919324 36.168198 
L 265.095876 48.214999 
L 255.933453 63.171167 
L 301.184156 82.83939 
L 389.024168 99.645381 
L 440.314835 125.34463 
L 488.443005 149.57184 
L 535.079545 169.842939 
" style="fill:none;stroke:#ff7f0e;stroke-linecap:square;stroke-width:1.5;"/>
    <defs>
     <path d="M 0 1.5 
C 0.397805 1.5 0.77937 1.341951 1.06066 1.06066 
C 1.341951 0.77937 1.5 0.397805 1.5 0 
C 1.5 -0.397805 1.341951 -0.77937 1.06066 -1.06066 
C 0.77937 -1.341951 0.397805 -1.5 0 -1.5 
C -0.397805 -1.5 -0.77937 -1.341951 -1.06066 -1.06066 
C -1.341951 -0.77937 -1.5 -0.397805 -1.5 0 
C -1.5 0.397805 -1.341951 0.77937 -1.06066 1.06066 
C -0.77937 1.341951 -0.397805 1.5 0 1.5 
z
" id="mc01d80390c" style="stroke:#ff7f0e;"/>
    </defs>
    <g clip-path="url(#p4de568d843)">
     <use style="fill:#ff7f0e;stroke:#ff7f0e;" x="388.078259" xlink:href="#mc01d80390c" y="28.934211"/>
     <use style="fill:#ff7f0e;stroke:#ff7f0e;" x="335.794382" xlink:href="#mc01d80390c" y="33.222584"/>
     <use style="fill:#ff7f0e;stroke:#ff7f0e;" x="297.021239" xlink:href="#mc01d80390c" y="27.498182"/>
     <use style="fill:#ff7f0e;stroke:#ff7f0e;" x="282.919324" xlink:href="#mc01d80390c" y="36.168198"/>
     <use style="fill:#ff7f0e;stroke:#ff7f0e;" x="265.095876" xlink:href="#mc01d80390c" y="48.214999"/>
     <use style="fill:#ff7f0e;stroke:#ff7f0e;" x="255.933453" xlink:href="#mc01d80390c" y="63.171167"/>
     <use style="fill:#ff7f0e;stroke:#ff7f0e;" x="301.184156" xlink:href="#mc01d80390c" y="82.83939"/>
     <use style="fill:#ff7f0e;stroke:#ff7f0e;" x="389.024168" xlink:href="#mc01d80390c" y="99.645381"/>
     <use style="fill:#ff7f0e;stroke:#ff7f0e;" x="440.314835" xlink:href="#mc01d80390c" y="125.34463"/>
     <use style="fill:#ff7f0e;stroke:#ff7f0e;" x="488.443005" xlink:href="#mc01d80390c" y="149.57184"/>
     <use style="fill:#ff7f0e;stroke:#ff7f0e;" x="535.079545" xlink:href="#mc01d80390c" y="169.842939"/>
    </g>
   </g>
   <g id="line2d_13">
    <path clip-path="url(#p4de568d843)" d="M 245.297035 179.161956 
L 300.151803 161.139133 
L 390.617254 139.845892 
L 439.745418 127.068201 
L 462.324219 122.703686 
L 447.587178 133.775287 
L 430.053065 145.808664 
L 430.547791 151.487459 
L 427.486886 158.611468 
L 480.47687 163.394093 
L 535.079545 169.842939 
" style="fill:none;stroke:#2ca02c;stroke-linecap:square;stroke-width:1.5;"/>
    <defs>
     <path d="M 0 1.5 
C 0.397805 1.5 0.77937 1.341951 1.06066 1.06066 
C 1.341951 0.77937 1.5 0.397805 1.5 0 
C 1.5 -0.397805 1.341951 -0.77937 1.06066 -1.06066 
C 0.77937 -1.341951 0.397805 -1.5 0 -1.5 
C -0.397805 -1.5 -0.77937 -1.341951 -1.06066 -1.06066 
C -1.341951 -0.77937 -1.5 -0.397805 -1.5 0 
C -1.5 0.397805 -1.341951 0.77937 -1.06066 1.06066 
C -0.77937 1.341951 -0.397805 1.5 0 1.5 
z
" id="mbf8bca0c4d" style="stroke:#2ca02c;"/>
    </defs>
    <g clip-path="url(#p4de568d843)">
     <use style="fill:#2ca02c;stroke:#2ca02c;" x="245.297035" xlink:href="#mbf8bca0c4d" y="179.161956"/>
     <use style="fill:#2ca02c;stroke:#2ca02c;" x="300.151803" xlink:href="#mbf8bca0c4d" y="161.139133"/>
     <use style="fill:#2ca02c;stroke:#2ca02c;" x="390.617254" xlink:href="#mbf8bca0c4d" y="139.845892"/>
     <use style="fill:#2ca02c;stroke:#2ca02c;" x="439.745418" xlink:href="#mbf8bca0c4d" y="127.068201"/>
     <use style="fill:#2ca02c;stroke:#2ca02c;" x="462.324219" xlink:href="#mbf8bca0c4d" y="122.703686"/>
     <use style="fill:#2ca02c;stroke:#2ca02c;" x="447.587178" xlink:href="#mbf8bca0c4d" y="133.775287"/>
     <use style="fill:#2ca02c;stroke:#2ca02c;" x="430.053065" xlink:href="#mbf8bca0c4d" y="145.808664"/>
     <use style="fill:#2ca02c;stroke:#2ca02c;" x="430.547791" xlink:href="#mbf8bca0c4d" y="151.487459"/>
     <use style="fill:#2ca02c;stroke:#2ca02c;" x="427.486886" xlink:href="#mbf8bca0c4d" y="158.611468"/>
     <use style="fill:#2ca02c;stroke:#2ca02c;" x="480.47687" xlink:href="#mbf8bca0c4d" y="163.394093"/>
     <use style="fill:#2ca02c;stroke:#2ca02c;" x="535.079545" xlink:href="#mbf8bca0c4d" y="169.842939"/>
    </g>
   </g>
   <g id="line2d_14">
    <path clip-path="url(#p4de568d843)" d="M 276.996773 49.361211 
L 255.428257 59.641847 
L 224.025873 68.093538 
L 191.316709 79.217376 
L 162.162122 89.07758 
L 127.01878 104.53436 
L 113.497958 111.712946 
L 119.458771 129.582234 
L 136.975781 137.549742 
L 157.091682 143.794798 
L 165.970671 162.90775 
" style="fill:none;stroke:#1f77b4;stroke-dasharray:5.55,2.4;stroke-dashoffset:0;stroke-width:1.5;"/>
    <g clip-path="url(#p4de568d843)">
     <use style="fill:#1f77b4;stroke:#1f77b4;" x="276.996773" xlink:href="#mca6a9be14e" y="49.361211"/>
     <use style="fill:#1f77b4;stroke:#1f77b4;" x="255.428257" xlink:href="#mca6a9be14e" y="59.641847"/>
     <use style="fill:#1f77b4;stroke:#1f77b4;" x="224.025873" xlink:href="#mca6a9be14e" y="68.093538"/>
     <use style="fill:#1f77b4;stroke:#1f77b4;" x="191.316709" xlink:href="#mca6a9be14e" y="79.217376"/>
     <use style="fill:#1f77b4;stroke:#1f77b4;" x="162.162122" xlink:href="#mca6a9be14e" y="89.07758"/>
     <use style="fill:#1f77b4;stroke:#1f77b4;" x="127.01878" xlink:href="#mca6a9be14e" y="104.53436"/>
     <use style="fill:#1f77b4;stroke:#1f77b4;" x="113.497958" xlink:href="#mca6a9be14e" y="111.712946"/>
     <use style="fill:#1f77b4;stroke:#1f77b4;" x="119.458771" xlink:href="#mca6a9be14e" y="129.582234"/>
     <use style="fill:#1f77b4;stroke:#1f77b4;" x="136.975781" xlink:href="#mca6a9be14e" y="137.549742"/>
     <use style="fill:#1f77b4;stroke:#1f77b4;" x="157.091682" xlink:href="#mca6a9be14e" y="143.794798"/>
     <use style="fill:#1f77b4;stroke:#1f77b4;" x="165.970671" xlink:href="#mca6a9be14e" y="162.90775"/>
    </g>
   </g>
   <g id="line2d_15">
    <path clip-path="url(#p4de568d843)" d="M 276.996773 49.361211 
L 271.185298 55.28771 
L 261.083713 61.851475 
L 241.900313 73.652617 
L 224.668878 81.373082 
L 196.147668 103.137601 
L 176.957152 117.814838 
L 163.312848 148.158072 
L 214.036882 175.81884 
L 263.759626 203.973528 
L 317.298548 224.661818 
" style="fill:none;stroke:#ff7f0e;stroke-dasharray:5.55,2.4;stroke-dashoffset:0;stroke-width:1.5;"/>
    <g clip-path="url(#p4de568d843)">
     <use style="fill:#ff7f0e;stroke:#ff7f0e;" x="276.996773" xlink:href="#mc01d80390c" y="49.361211"/>
     <use style="fill:#ff7f0e;stroke:#ff7f0e;" x="271.185298" xlink:href="#mc01d80390c" y="55.28771"/>
     <use style="fill:#ff7f0e;stroke:#ff7f0e;" x="261.083713" xlink:href="#mc01d80390c" y="61.851475"/>
     <use style="fill:#ff7f0e;stroke:#ff7f0e;" x="241.900313" xlink:href="#mc01d80390c" y="73.652617"/>
     <use style="fill:#ff7f0e;stroke:#ff7f0e;" x="224.668878" xlink:href="#mc01d80390c" y="81.373082"/>
     <use style="fill:#ff7f0e;stroke:#ff7f0e;" x="196.147668" xlink:href="#mc01d80390c" y="103.137601"/>
     <use style="fill:#ff7f0e;stroke:#ff7f0e;" x="176.957152" xlink:href="#mc01d80390c" y="117.814838"/>
     <use style="fill:#ff7f0e;stroke:#ff7f0e;" x="163.312848" xlink:href="#mc01d80390c" y="148.158072"/>
     <use style="fill:#ff7f0e;stroke:#ff7f0e;" x="214.036882" xlink:href="#mc01d80390c" y="175.81884"/>
     <use style="fill:#ff7f0e;stroke:#ff7f0e;" x="263.759626" xlink:href="#mc01d80390c" y="203.973528"/>
     <use style="fill:#ff7f0e;stroke:#ff7f0e;" x="317.298548" xlink:href="#mc01d80390c" y="224.661818"/>
    </g>
   </g>
   <g id="line2d_16">
    <path clip-path="url(#p4de568d843)" d="M 165.970671 162.90775 
L 99.243209 150.314862 
L 101.499558 149.629154 
L 93.897495 160.376446 
L 77.176397 180.039891 
L 72.89472 189.254302 
L 69.470455 197.874676 
L 116.103646 202.604577 
L 186.842185 211.161003 
L 255.650632 217.109279 
L 317.298548 224.661818 
" style="fill:none;stroke:#2ca02c;stroke-dasharray:5.55,2.4;stroke-dashoffset:0;stroke-width:1.5;"/>
    <g clip-path="url(#p4de568d843)">
     <use style="fill:#2ca02c;stroke:#2ca02c;" x="165.970671" xlink:href="#mbf8bca0c4d" y="162.90775"/>
     <use style="fill:#2ca02c;stroke:#2ca02c;" x="99.243209" xlink:href="#mbf8bca0c4d" y="150.314862"/>
     <use style="fill:#2ca02c;stroke:#2ca02c;" x="101.499558" xlink:href="#mbf8bca0c4d" y="149.629154"/>
     <use style="fill:#2ca02c;stroke:#2ca02c;" x="93.897495" xlink:href="#mbf8bca0c4d" y="160.376446"/>
     <use style="fill:#2ca02c;stroke:#2ca02c;" x="77.176397" xlink:href="#mbf8bca0c4d" y="180.039891"/>
     <use style="fill:#2ca02c;stroke:#2ca02c;" x="72.89472" xlink:href="#mbf8bca0c4d" y="189.254302"/>
     <use style="fill:#2ca02c;stroke:#2ca02c;" x="69.470455" xlink:href="#mbf8bca0c4d" y="197.874676"/>
     <use style="fill:#2ca02c;stroke:#2ca02c;" x="116.103646" xlink:href="#mbf8bca0c4d" y="202.604577"/>
     <use style="fill:#2ca02c;stroke:#2ca02c;" x="186.842185" xlink:href="#mbf8bca0c4d" y="211.161003"/>
     <use style="fill:#2ca02c;stroke:#2ca02c;" x="255.650632" xlink:href="#mbf8bca0c4d" y="217.109279"/>
     <use style="fill:#2ca02c;stroke:#2ca02c;" x="317.298548" xlink:href="#mbf8bca0c4d" y="224.661818"/>
    </g>
   </g>
   <g id="patch_3">
    <path d="M 387.476459 55.593859 
Q 374.638573 63.441304 362.754616 70.705638 
" style="fill:none;stroke:#1f77b4;stroke-linecap:round;"/>
    <path d="M 369.43859 70.135999 
L 362.754616 70.705638 
L 366.309289 65.016675 
" style="fill:none;stroke:#1f77b4;stroke-linecap:round;"/>
   </g>
   <g id="patch_4">
    <path d="M 264.051234 49.920206 
Q 260.514569 55.693238 257.561949 60.512912 
" style="fill:none;stroke:#ff7f0e;stroke-linecap:round;"/>
    <path d="M 263.25439 56.963812 
L 257.561949 60.512912 
L 258.138133 53.829499 
" style="fill:none;stroke:#ff7f0e;stroke-linecap:round;"/>
   </g>
   <g id="patch_5">
    <path d="M 460.723149 123.906534 
Q 454.955316 128.239774 450.081362 131.901464 
" style="fill:none;stroke:#2ca02c;stroke-linecap:round;"/>
    <path d="M 456.68038 130.696073 
L 450.081362 131.901464 
L 453.07646 125.899015 
" style="fill:none;stroke:#2ca02c;stroke-linecap:round;"/>
   </g>
   <g id="patch_6">
    <path d="M 160.33031 89.88325 
Q 144.591507 96.805506 129.876124 103.27764 
" style="fill:none;stroke:#1f77b4;stroke-linecap:round;"/>
    <path d="M 136.576181 103.608158 
L 129.876124 103.27764 
L 134.160573 98.115906 
" style="fill:none;stroke:#1f77b4;stroke-linecap:round;"/>
   </g>
   <g id="patch_7">
    <path d="M 223.07779 82.58724 
Q 210.406629 92.256597 198.624275 101.247704 
" style="fill:none;stroke:#ff7f0e;stroke-linecap:round;"/>
    <path d="M 205.214049 99.992762 
L 198.624275 101.247704 
L 201.574185 95.22292 
" style="fill:none;stroke:#ff7f0e;stroke-linecap:round;"/>
   </g>
   <g id="patch_8">
    <path d="M 76.33386 181.853079 
Q 75.034947 184.648414 74.207172 186.429832 
" style="fill:none;stroke:#2ca02c;stroke-linecap:round;"/>
    <path d="M 79.456194 182.252779 
L 74.207172 186.429832 
L 74.014943 179.724383 
" style="fill:none;stroke:#2ca02c;stroke-linecap:round;"/>
   </g>
   <g id="legend_1">
    <g id="patch_9">
     <path d="M 404.6575 89.005 
L 548.56 89.005 
Q 551.36 89.005 551.36 86.205 
L 551.36 27.44 
Q 551.36 24.64 548.56 24.64 
L 404.6575 24.64 
Q 401.8575 24.64 401.8575 27.44 
L 401.8575 86.205 
Q 401.8575 89.005 404.6575 89.005 
z
" style="fill:#ffffff;opacity:0.8;stroke:#cccccc;stroke-linejoin:miter;"/>
    </g>
    <g id="line2d_17">
     <path d="M 407.4575 35.492187 
L 435.4575 35.492187 
" style="fill:none;stroke:#1f77b4;stroke-linecap:square;stroke-width:1.5;"/>
    </g>
    <g id="line2d_18">
     <g>
      <use style="fill:#1f77b4;stroke:#1f77b4;" x="421.4575" xlink:href="#mca6a9be14e" y="35.492187"/>
     </g>
    </g>
    <g id="text_13">
     <!-- акции+облигации -->
     <defs>
      <path d="M 12.890625 52.828125 
L 12.890625 6.390625 
L 31.984375 6.390625 
L 31.984375 52.828125 
L 39.203125 52.828125 
L 39.203125 6.390625 
L 45.0625 6.390625 
L 45.0625 -19.921875 
L 38.578125 -19.921875 
L 38.578125 0 
L 5.671875 0 
L 5.671875 52.828125 
z
" id="LiberationSansNarrow-1094"/>
      <path d="M 26.859375 29.6875 
L 26.859375 8.796875 
L 21 8.796875 
L 21 29.6875 
L 4 29.6875 
L 4 36.8125 
L 21 36.8125 
L 21 57.71875 
L 26.859375 57.71875 
L 26.859375 36.8125 
L 43.84375 36.8125 
L 43.84375 29.6875 
z
" id="LiberationSansNarrow-43"/>
      <path d="M 35.9375 24.515625 
Q 35.9375 30.078125 35.15625 33.765625 
Q 34.375 37.453125 32.9375 39.671875 
Q 31.5 41.890625 29.390625 42.796875 
Q 27.296875 43.703125 24.703125 43.703125 
Q 21.921875 43.703125 19.65625 42.75 
Q 17.390625 41.796875 15.765625 39.546875 
Q 14.15625 37.3125 13.25 33.640625 
Q 12.359375 29.984375 12.359375 24.515625 
Q 12.359375 18.953125 13.25 15.28125 
Q 14.15625 11.625 15.6875 9.453125 
Q 17.234375 7.28125 19.328125 6.390625 
Q 21.4375 5.515625 23.921875 5.515625 
Q 26.703125 5.515625 28.921875 6.390625 
Q 31.15625 7.28125 32.71875 9.421875 
Q 34.28125 11.578125 35.109375 15.265625 
Q 35.9375 18.953125 35.9375 24.515625 
z
M 26.21875 50.140625 
Q 35.109375 50.140625 39.296875 43.765625 
Q 43.5 37.40625 43.5 24.609375 
Q 43.5 11.671875 38.5 5.34375 
Q 33.5 -0.984375 23.96875 -0.984375 
Q 19.4375 -0.984375 15.890625 0.71875 
Q 12.359375 2.4375 9.890625 6.25 
Q 7.421875 10.0625 6.09375 16.15625 
Q 4.78125 22.265625 4.78125 31.0625 
Q 4.78125 40.4375 5.953125 47.21875 
Q 7.125 54 9.6875 58.703125 
Q 12.25 63.421875 16.375 66.234375 
Q 20.515625 69.046875 26.375 70.40625 
Q 28.65625 70.953125 30.65625 71.359375 
Q 32.671875 71.78125 34.46875 72.125 
L 38.03125 72.75 
L 41.5 73.34375 
L 41.5 65.484375 
Q 38.03125 64.9375 34.8125 64.375 
Q 31.59375 63.8125 27.9375 62.984375 
Q 24.8125 62.3125 22.34375 61.5 
Q 19.875 60.6875 17.984375 59.46875 
Q 16.109375 58.25 14.765625 56.46875 
Q 13.421875 54.6875 12.546875 52.046875 
Q 11.671875 49.421875 11.203125 45.78125 
Q 10.75 42.140625 10.640625 37.203125 
Q 11.421875 39.890625 12.765625 42.25 
Q 14.109375 44.625 16.03125 46.375 
Q 17.96875 48.140625 20.484375 49.140625 
Q 23 50.140625 26.21875 50.140625 
z
" id="LiberationSansNarrow-1073"/>
     </defs>
     <g transform="translate(446.6575 40.392187)scale(0.14 -0.14)">
      <use xlink:href="#LiberationSansNarrow-1072"/>
      <use x="45.605469" xlink:href="#LiberationSansNarrow-1082"/>
      <use x="81.445312" xlink:href="#LiberationSansNarrow-1094"/>
      <use x="128.417969" xlink:href="#LiberationSansNarrow-1080"/>
      <use x="174.267578" xlink:href="#LiberationSansNarrow-1080"/>
      <use x="220.117188" xlink:href="#LiberationSansNarrow-43"/>
      <use x="268.017578" xlink:href="#LiberationSansNarrow-1086"/>
      <use x="313.623047" xlink:href="#LiberationSansNarrow-1073"/>
      <use x="360.533203" xlink:href="#LiberationSansNarrow-1083"/>
      <use x="408.335938" xlink:href="#LiberationSansNarrow-1080"/>
      <use x="454.185547" xlink:href="#LiberationSansNarrow-1075"/>
      <use x="484.085938" xlink:href="#LiberationSansNarrow-1072"/>
      <use x="529.691406" xlink:href="#LiberationSansNarrow-1094"/>
      <use x="576.664062" xlink:href="#LiberationSansNarrow-1080"/>
      <use x="622.513672" xlink:href="#LiberationSansNarrow-1080"/>
     </g>
    </g>
    <g id="line2d_19">
     <path d="M 407.4575 55.542812 
L 435.4575 55.542812 
" style="fill:none;stroke:#ff7f0e;stroke-linecap:square;stroke-width:1.5;"/>
    </g>
    <g id="line2d_20">
     <g>
      <use style="fill:#ff7f0e;stroke:#ff7f0e;" x="421.4575" xlink:href="#mc01d80390c" y="55.542812"/>
     </g>
    </g>
    <g id="text_14">
     <!-- акции+золото -->
     <defs>
      <path d="M 18.3125 -0.984375 
Q 11.625 -0.984375 7.6875 2.0625 
Q 3.765625 5.125 1.953125 11.421875 
L 8.296875 13.578125 
Q 9.28125 9.765625 11.8125 7.65625 
Q 14.359375 5.5625 18.453125 5.5625 
Q 22.3125 5.5625 24.578125 7.859375 
Q 26.859375 10.15625 26.859375 14.59375 
Q 26.859375 17.484375 25.734375 19.390625 
Q 24.609375 21.296875 22.78125 22.390625 
Q 20.953125 23.484375 18.546875 23.921875 
Q 16.15625 24.359375 13.578125 24.359375 
L 13.578125 31.0625 
Q 16.109375 31.0625 18.40625 31.421875 
Q 20.703125 31.78125 22.4375 32.703125 
Q 24.171875 33.640625 25.140625 35.28125 
Q 26.125 36.921875 26.125 39.453125 
Q 26.125 43.0625 24.140625 45.15625 
Q 22.171875 47.265625 18.453125 47.265625 
Q 17.046875 47.265625 15.65625 46.921875 
Q 14.265625 46.578125 13.03125 45.765625 
Q 11.8125 44.96875 10.984375 43.625 
Q 10.15625 42.28125 9.859375 40.234375 
L 3.421875 41.21875 
Q 3.90625 44.53125 5.125 46.921875 
Q 6.34375 49.3125 8.296875 50.84375 
Q 10.25 52.390625 12.78125 53.09375 
Q 15.328125 53.8125 18.453125 53.8125 
Q 21.875 53.8125 24.625 52.78125 
Q 27.390625 51.765625 29.34375 49.90625 
Q 31.296875 48.046875 32.375 45.5 
Q 33.453125 42.96875 33.453125 39.890625 
Q 33.453125 37.109375 32.5625 34.953125 
Q 31.6875 32.8125 30.25 31.3125 
Q 28.8125 29.828125 27.046875 28.953125 
Q 25.296875 28.078125 23.53125 27.875 
L 23.53125 27.78125 
Q 25.78125 27.484375 27.75 26.484375 
Q 29.734375 25.484375 31.25 23.84375 
Q 32.765625 22.21875 33.609375 19.9375 
Q 34.46875 17.671875 34.46875 14.84375 
Q 34.46875 11.46875 33.484375 8.5625 
Q 32.515625 5.671875 30.484375 3.546875 
Q 28.46875 1.421875 25.4375 0.21875 
Q 22.40625 -0.984375 18.3125 -0.984375 
z
" id="LiberationSansNarrow-1079"/>
     </defs>
     <g transform="translate(446.6575 60.442812)scale(0.14 -0.14)">
      <use xlink:href="#LiberationSansNarrow-1072"/>
      <use x="45.605469" xlink:href="#LiberationSansNarrow-1082"/>
      <use x="81.445312" xlink:href="#LiberationSansNarrow-1094"/>
      <use x="128.417969" xlink:href="#LiberationSansNarrow-1080"/>
      <use x="174.267578" xlink:href="#LiberationSansNarrow-1080"/>
      <use x="220.117188" xlink:href="#LiberationSansNarrow-43"/>
      <use x="268.017578" xlink:href="#LiberationSansNarrow-1079"/>
      <use x="305.550781" xlink:href="#LiberationSansNarrow-1086"/>
      <use x="351.125" xlink:href="#LiberationSansNarrow-1083"/>
      <use x="398.943359" xlink:href="#LiberationSansNarrow-1086"/>
      <use x="444.517578" xlink:href="#LiberationSansNarrow-1090"/>
      <use x="482.050781" xlink:href="#LiberationSansNarrow-1086"/>
     </g>
    </g>
    <g id="line2d_21">
     <path d="M 407.4575 75.6 
L 435.4575 75.6 
" style="fill:none;stroke:#2ca02c;stroke-linecap:square;stroke-width:1.5;"/>
    </g>
    <g id="line2d_22">
     <g>
      <use style="fill:#2ca02c;stroke:#2ca02c;" x="421.4575" xlink:href="#mbf8bca0c4d" y="75.6"/>
     </g>
    </g>
    <g id="text_15">
     <!-- облигации+золото -->
     <g transform="translate(446.6575 80.5)scale(0.14 -0.14)">
      <use xlink:href="#LiberationSansNarrow-1086"/>
      <use x="45.605469" xlink:href="#LiberationSansNarrow-1073"/>
      <use x="92.515625" xlink:href="#LiberationSansNarrow-1083"/>
      <use x="140.318359" xlink:href="#LiberationSansNarrow-1080"/>
      <use x="186.167969" xlink:href="#LiberationSansNarrow-1075"/>
      <use x="216.068359" xlink:href="#LiberationSansNarrow-1072"/>
      <use x="261.673828" xlink:href="#LiberationSansNarrow-1094"/>
      <use x="308.646484" xlink:href="#LiberationSansNarrow-1080"/>
      <use x="354.496094" xlink:href="#LiberationSansNarrow-1080"/>
      <use x="400.345703" xlink:href="#LiberationSansNarrow-43"/>
      <use x="448.246094" xlink:href="#LiberationSansNarrow-1079"/>
      <use x="485.779297" xlink:href="#LiberationSansNarrow-1086"/>
      <use x="531.353516" xlink:href="#LiberationSansNarrow-1083"/>
      <use x="579.171875" xlink:href="#LiberationSansNarrow-1086"/>
      <use x="624.746094" xlink:href="#LiberationSansNarrow-1090"/>
      <use x="662.279297" xlink:href="#LiberationSansNarrow-1086"/>
     </g>
    </g>
   </g>
  </g>
 </g>
 <defs>
  <clipPath id="p4de568d843">
   <rect height="216.88" width="512.17" x="46.19" y="17.64"/>
  </clipPath>
 </defs>
</svg>
