<?xml version="1.0" encoding="utf-8" standalone="no"?>
<!DOCTYPE svg PUBLIC "-//W3C//DTD SVG 1.1//EN"
  "http://www.w3.org/Graphics/SVG/1.1/DTD/svg11.dtd">
<!-- Created with matplotlib (https://matplotlib.org/) -->
<svg height="288pt" version="1.1" viewBox="0 0 576 288" width="576pt" xmlns="http://www.w3.org/2000/svg" xmlns:xlink="http://www.w3.org/1999/xlink">
 <defs>
  <style type="text/css">
*{stroke-linecap:butt;stroke-linejoin:round;}
  </style>
 </defs>
 <g id="figure_1">
  <g id="patch_1">
   <path d="M 0 288 
L 576 288 
L 576 0 
L 0 0 
z
" style="fill:#ffffff;"/>
  </g>
  <g id="axes_1">
   <g id="patch_2">
    <path d="M 59.33 252.2 
L 558.36 252.2 
L 558.36 17.64 
L 59.33 17.64 
z
" style="fill:#ffffff;"/>
   </g>
   <g id="matplotlib.axis_1">
    <g id="xtick_1">
     <g id="line2d_1">
      <path clip-path="url(#p44cc3322c3)" d="M 82.013182 252.2 
L 82.013182 17.64 
" style="fill:none;stroke:#b0b0b0;stroke-dasharray:1.48,0.64;stroke-dashoffset:0;stroke-width:0.4;"/>
     </g>
     <g id="text_1">
      <!-- 0.0 -->
      <defs>
       <path d="M 42.390625 34.421875 
Q 42.390625 24.515625 40.84375 17.75 
Q 39.3125 10.984375 36.640625 6.8125 
Q 33.984375 2.640625 30.390625 0.828125 
Q 26.8125 -0.984375 22.703125 -0.984375 
Q 18.609375 -0.984375 15.03125 0.828125 
Q 11.46875 2.640625 8.828125 6.78125 
Q 6.203125 10.9375 4.703125 17.703125 
Q 3.21875 24.46875 3.21875 34.421875 
Q 3.21875 44.828125 4.703125 51.640625 
Q 6.203125 58.453125 8.828125 62.5 
Q 11.46875 66.546875 15.078125 68.1875 
Q 18.703125 69.828125 22.953125 69.828125 
Q 27 69.828125 30.53125 68.1875 
Q 34.078125 66.546875 36.71875 62.5 
Q 39.359375 58.453125 40.875 51.640625 
Q 42.390625 44.828125 42.390625 34.421875 
z
M 35.0625 34.421875 
Q 35.0625 42.625 34.28125 48.0625 
Q 33.5 53.515625 31.9375 56.765625 
Q 30.375 60.015625 28.09375 61.359375 
Q 25.828125 62.703125 22.953125 62.703125 
Q 19.921875 62.703125 17.578125 61.328125 
Q 15.234375 59.96875 13.671875 56.71875 
Q 12.109375 53.46875 11.296875 48.015625 
Q 10.5 42.578125 10.5 34.421875 
Q 10.5 26.515625 11.296875 21.09375 
Q 12.109375 15.671875 13.6875 12.375 
Q 15.28125 9.078125 17.578125 7.640625 
Q 19.875 6.203125 22.796875 6.203125 
Q 25.640625 6.203125 27.90625 7.640625 
Q 30.171875 9.078125 31.75 12.375 
Q 33.34375 15.671875 34.203125 21.09375 
Q 35.0625 26.515625 35.0625 34.421875 
z
" id="LiberationSansNarrow-48"/>
       <path d="M 7.46875 0 
L 7.46875 10.6875 
L 15.328125 10.6875 
L 15.328125 0 
z
" id="LiberationSansNarrow-46"/>
      </defs>
      <g transform="translate(74.032088 269.345625)scale(0.14 -0.14)">
       <use xlink:href="#LiberationSansNarrow-48"/>
       <use x="45.605469" xlink:href="#LiberationSansNarrow-46"/>
       <use x="68.408203" xlink:href="#LiberationSansNarrow-48"/>
      </g>
     </g>
    </g>
    <g id="xtick_2">
     <g id="line2d_2">
      <path clip-path="url(#p44cc3322c3)" d="M 172.745909 252.2 
L 172.745909 17.64 
" style="fill:none;stroke:#b0b0b0;stroke-dasharray:1.48,0.64;stroke-dashoffset:0;stroke-width:0.4;"/>
     </g>
     <g id="text_2">
      <!-- 0.2 -->
      <defs>
       <path d="M 4.109375 0 
L 4.109375 6.203125 
Q 6.15625 11.921875 9.109375 16.28125 
Q 12.0625 20.65625 15.3125 24.1875 
Q 18.5625 27.734375 21.734375 30.765625 
Q 24.90625 33.796875 27.46875 36.8125 
Q 30.03125 39.84375 31.609375 43.15625 
Q 33.203125 46.484375 33.203125 50.6875 
Q 33.203125 53.609375 32.46875 55.828125 
Q 31.734375 58.0625 30.390625 59.5625 
Q 29.046875 61.078125 27.140625 61.828125 
Q 25.25 62.59375 22.90625 62.59375 
Q 20.75 62.59375 18.84375 61.859375 
Q 16.9375 61.140625 15.453125 59.671875 
Q 13.96875 58.203125 13.03125 56.03125 
Q 12.109375 53.859375 11.8125 50.984375 
L 4.4375 51.8125 
Q 4.78125 55.515625 6.125 58.78125 
Q 7.46875 62.0625 9.78125 64.53125 
Q 12.109375 67 15.359375 68.40625 
Q 18.609375 69.828125 22.90625 69.828125 
Q 27.09375 69.828125 30.390625 68.609375 
Q 33.6875 67.390625 35.9375 64.984375 
Q 38.1875 62.59375 39.40625 59.078125 
Q 40.625 55.5625 40.625 50.984375 
Q 40.625 47.515625 39.59375 44.390625 
Q 38.578125 41.265625 36.859375 38.421875 
Q 35.15625 35.59375 32.90625 32.953125 
Q 30.671875 30.328125 28.21875 27.828125 
L 23.296875 22.859375 
Q 20.796875 20.359375 18.625 17.859375 
Q 16.453125 15.375 14.734375 12.8125 
Q 13.03125 10.25 12.0625 7.46875 
L 41.5 7.46875 
L 41.5 0 
z
" id="LiberationSansNarrow-50"/>
      </defs>
      <g transform="translate(164.764815 269.345625)scale(0.14 -0.14)">
       <use xlink:href="#LiberationSansNarrow-48"/>
       <use x="45.605469" xlink:href="#LiberationSansNarrow-46"/>
       <use x="68.408203" xlink:href="#LiberationSansNarrow-50"/>
      </g>
     </g>
    </g>
    <g id="xtick_3">
     <g id="line2d_3">
      <path clip-path="url(#p44cc3322c3)" d="M 263.478636 252.2 
L 263.478636 17.64 
" style="fill:none;stroke:#b0b0b0;stroke-dasharray:1.48,0.64;stroke-dashoffset:0;stroke-width:0.4;"/>
     </g>
     <g id="text_3">
      <!-- 0.4 -->
      <defs>
       <path d="M 35.25 15.578125 
L 35.25 0 
L 28.46875 0 
L 28.46875 15.578125 
L 1.90625 15.578125 
L 1.90625 22.40625 
L 27.6875 68.796875 
L 35.25 68.796875 
L 35.25 22.515625 
L 43.21875 22.515625 
L 43.21875 15.578125 
z
M 28.46875 58.890625 
Q 28.375 58.640625 28.03125 57.90625 
L 27.34375 56.34375 
L 26.5625 54.59375 
Q 26.125 53.65625 25.78125 53.078125 
L 11.328125 27.09375 
Q 11.140625 26.703125 10.75 26.078125 
L 9.96875 24.8125 
L 9.1875 23.484375 
Q 8.796875 22.859375 8.546875 22.515625 
L 28.46875 22.515625 
z
" id="LiberationSansNarrow-52"/>
      </defs>
      <g transform="translate(255.497543 269.345625)scale(0.14 -0.14)">
       <use xlink:href="#LiberationSansNarrow-48"/>
       <use x="45.605469" xlink:href="#LiberationSansNarrow-46"/>
       <use x="68.408203" xlink:href="#LiberationSansNarrow-52"/>
      </g>
     </g>
    </g>
    <g id="xtick_4">
     <g id="line2d_4">
      <path clip-path="url(#p44cc3322c3)" d="M 354.211364 252.2 
L 354.211364 17.64 
" style="fill:none;stroke:#b0b0b0;stroke-dasharray:1.48,0.64;stroke-dashoffset:0;stroke-width:0.4;"/>
     </g>
     <g id="text_4">
      <!-- 0.6 -->
      <defs>
       <path d="M 42 22.515625 
Q 42 17.328125 40.828125 13 
Q 39.65625 8.6875 37.359375 5.578125 
Q 35.0625 2.484375 31.640625 0.75 
Q 28.21875 -0.984375 23.78125 -0.984375 
Q 18.84375 -0.984375 15.15625 1.3125 
Q 11.46875 3.609375 9.03125 7.921875 
Q 6.59375 12.25 5.375 18.53125 
Q 4.15625 24.8125 4.15625 32.8125 
Q 4.15625 42 5.546875 48.921875 
Q 6.9375 55.859375 9.515625 60.5 
Q 12.109375 65.140625 15.859375 67.484375 
Q 19.625 69.828125 24.359375 69.828125 
Q 27.25 69.828125 29.765625 69.09375 
Q 32.28125 68.359375 34.328125 66.71875 
Q 36.375 65.09375 37.9375 62.40625 
Q 39.5 59.71875 40.4375 55.8125 
L 33.546875 54.296875 
Q 32.421875 58.734375 29.953125 60.71875 
Q 27.484375 62.703125 24.265625 62.703125 
Q 21.296875 62.703125 18.890625 60.984375 
Q 16.5 59.28125 14.8125 55.875 
Q 13.140625 52.484375 12.234375 47.359375 
Q 11.328125 42.234375 11.328125 35.40625 
Q 13.28125 39.84375 16.84375 42.15625 
Q 20.40625 44.484375 25.046875 44.484375 
Q 28.90625 44.484375 32 42.96875 
Q 35.109375 41.453125 37.328125 38.59375 
Q 39.546875 35.75 40.765625 31.671875 
Q 42 27.59375 42 22.515625 
z
M 34.671875 22.125 
Q 34.671875 25.6875 33.953125 28.5625 
Q 33.25 31.453125 31.8125 33.46875 
Q 30.375 35.5 28.25 36.59375 
Q 26.125 37.703125 23.296875 37.703125 
Q 21.34375 37.703125 19.328125 36.984375 
Q 17.328125 36.28125 15.71875 34.6875 
Q 14.109375 33.109375 13.078125 30.515625 
Q 12.0625 27.9375 12.0625 24.21875 
Q 12.0625 20.40625 12.859375 17.109375 
Q 13.671875 13.8125 15.15625 11.375 
Q 16.65625 8.9375 18.78125 7.515625 
Q 20.90625 6.109375 23.53125 6.109375 
Q 26.125 6.109375 28.203125 7.203125 
Q 30.28125 8.296875 31.71875 10.375 
Q 33.15625 12.453125 33.90625 15.421875 
Q 34.671875 18.40625 34.671875 22.125 
z
" id="LiberationSansNarrow-54"/>
      </defs>
      <g transform="translate(346.23027 269.345625)scale(0.14 -0.14)">
       <use xlink:href="#LiberationSansNarrow-48"/>
       <use x="45.605469" xlink:href="#LiberationSansNarrow-46"/>
       <use x="68.408203" xlink:href="#LiberationSansNarrow-54"/>
      </g>
     </g>
    </g>
    <g id="xtick_5">
     <g id="line2d_5">
      <path clip-path="url(#p44cc3322c3)" d="M 444.944091 252.2 
L 444.944091 17.64 
" style="fill:none;stroke:#b0b0b0;stroke-dasharray:1.48,0.64;stroke-dashoffset:0;stroke-width:0.4;"/>
     </g>
     <g id="text_5">
      <!-- 0.8 -->
      <defs>
       <path d="M 42.046875 19.1875 
Q 42.046875 14.796875 40.890625 11.109375 
Q 39.75 7.421875 37.40625 4.734375 
Q 35.0625 2.046875 31.421875 0.53125 
Q 27.78125 -0.984375 22.796875 -0.984375 
Q 17.828125 -0.984375 14.203125 0.53125 
Q 10.59375 2.046875 8.21875 4.703125 
Q 5.859375 7.375 4.703125 11.0625 
Q 3.5625 14.75 3.5625 19.09375 
Q 3.5625 22.859375 4.515625 25.78125 
Q 5.46875 28.71875 7.03125 30.828125 
Q 8.59375 32.953125 10.609375 34.25 
Q 12.640625 35.546875 14.796875 35.984375 
L 14.796875 36.1875 
Q 12.453125 36.859375 10.59375 38.375 
Q 8.734375 39.890625 7.46875 42.015625 
Q 6.203125 44.140625 5.546875 46.71875 
Q 4.890625 49.3125 4.890625 52.203125 
Q 4.890625 55.8125 6.03125 59 
Q 7.171875 62.203125 9.421875 64.625 
Q 11.671875 67.046875 14.984375 68.4375 
Q 18.3125 69.828125 22.65625 69.828125 
Q 27.25 69.828125 30.640625 68.40625 
Q 34.03125 67 36.25 64.578125 
Q 38.484375 62.15625 39.546875 58.9375 
Q 40.625 55.71875 40.625 52.09375 
Q 40.625 49.265625 39.96875 46.671875 
Q 39.3125 44.09375 38.0625 41.96875 
Q 36.8125 39.84375 34.9375 38.34375 
Q 33.0625 36.859375 30.609375 36.28125 
L 30.609375 36.078125 
Q 33.0625 35.59375 35.15625 34.296875 
Q 37.25 33.015625 38.765625 30.890625 
Q 40.28125 28.765625 41.15625 25.828125 
Q 42.046875 22.90625 42.046875 19.1875 
z
M 33.15625 51.609375 
Q 33.15625 54.203125 32.609375 56.34375 
Q 32.078125 58.5 30.828125 60.03125 
Q 29.59375 61.578125 27.59375 62.421875 
Q 25.59375 63.28125 22.65625 63.28125 
Q 19.828125 63.28125 17.875 62.421875 
Q 15.921875 61.578125 14.640625 60.03125 
Q 13.375 58.5 12.8125 56.34375 
Q 12.25 54.203125 12.25 51.609375 
Q 12.25 49.5625 12.6875 47.40625 
Q 13.140625 45.265625 14.3125 43.5 
Q 15.484375 41.75 17.5 40.625 
Q 19.53125 39.5 22.75 39.5 
Q 26.171875 39.5 28.21875 40.625 
Q 30.28125 41.75 31.375 43.5 
Q 32.46875 45.265625 32.8125 47.40625 
Q 33.15625 49.5625 33.15625 51.609375 
z
M 34.578125 20.015625 
Q 34.578125 22.515625 34.015625 24.828125 
Q 33.453125 27.15625 32.078125 28.9375 
Q 30.71875 30.71875 28.421875 31.8125 
Q 26.125 32.90625 22.65625 32.90625 
Q 19.484375 32.90625 17.265625 31.8125 
Q 15.046875 30.71875 13.671875 28.90625 
Q 12.3125 27.09375 11.671875 24.71875 
Q 11.03125 22.359375 11.03125 19.828125 
Q 11.03125 16.65625 11.671875 14.03125 
Q 12.3125 11.421875 13.703125 9.546875 
Q 15.09375 7.671875 17.375 6.640625 
Q 19.671875 5.609375 22.90625 5.609375 
Q 26.171875 5.609375 28.421875 6.640625 
Q 30.671875 7.671875 32.03125 9.546875 
Q 33.40625 11.421875 33.984375 14.078125 
Q 34.578125 16.75 34.578125 20.015625 
z
" id="LiberationSansNarrow-56"/>
      </defs>
      <g transform="translate(436.962997 269.345625)scale(0.14 -0.14)">
       <use xlink:href="#LiberationSansNarrow-48"/>
       <use x="45.605469" xlink:href="#LiberationSansNarrow-46"/>
       <use x="68.408203" xlink:href="#LiberationSansNarrow-56"/>
      </g>
     </g>
    </g>
    <g id="xtick_6">
     <g id="line2d_6">
      <path clip-path="url(#p44cc3322c3)" d="M 535.676818 252.2 
L 535.676818 17.64 
" style="fill:none;stroke:#b0b0b0;stroke-dasharray:1.48,0.64;stroke-dashoffset:0;stroke-width:0.4;"/>
     </g>
     <g id="text_6">
      <!-- 1.0 -->
      <defs>
       <path d="M 6.25 0 
L 6.25 7.46875 
L 20.609375 7.46875 
L 20.609375 60.40625 
L 7.90625 49.3125 
L 7.90625 57.625 
L 21.234375 68.796875 
L 27.875 68.796875 
L 27.875 7.46875 
L 41.609375 7.46875 
L 41.609375 0 
z
" id="LiberationSansNarrow-49"/>
      </defs>
      <g transform="translate(527.695724 269.345625)scale(0.14 -0.14)">
       <use xlink:href="#LiberationSansNarrow-49"/>
       <use x="45.605469" xlink:href="#LiberationSansNarrow-46"/>
       <use x="68.408203" xlink:href="#LiberationSansNarrow-48"/>
      </g>
     </g>
    </g>
   </g>
   <g id="matplotlib.axis_2">
    <g id="ytick_1">
     <g id="line2d_7">
      <path clip-path="url(#p44cc3322c3)" d="M 59.33 241.900066 
L 558.36 241.900066 
" style="fill:none;stroke:#b0b0b0;stroke-dasharray:1.48,0.64;stroke-dashoffset:0;stroke-width:0.4;"/>
     </g>
     <g id="text_7">
      <!-- −60 -->
      <defs>
       <path d="M 4.046875 29.6875 
L 4.046875 36.8125 
L 43.890625 36.8125 
L 43.890625 29.6875 
z
" id="LiberationSansNarrow-8722"/>
      </defs>
      <g transform="translate(32.8525 246.972879)scale(0.14 -0.14)">
       <use xlink:href="#LiberationSansNarrow-8722"/>
       <use x="47.900391" xlink:href="#LiberationSansNarrow-54"/>
       <use x="93.505859" xlink:href="#LiberationSansNarrow-48"/>
      </g>
     </g>
    </g>
    <g id="ytick_2">
     <g id="line2d_8">
      <path clip-path="url(#p44cc3322c3)" d="M 59.33 206.300358 
L 558.36 206.300358 
" style="fill:none;stroke:#b0b0b0;stroke-dasharray:1.48,0.64;stroke-dashoffset:0;stroke-width:0.4;"/>
     </g>
     <g id="text_8">
      <!-- −50 -->
      <defs>
       <path d="M 42.140625 22.40625 
Q 42.140625 17.234375 40.859375 12.9375 
Q 39.59375 8.640625 37.078125 5.53125 
Q 34.578125 2.4375 30.8125 0.71875 
Q 27.046875 -0.984375 22.125 -0.984375 
Q 17.671875 -0.984375 14.375 0.28125 
Q 11.078125 1.5625 8.8125 3.78125 
Q 6.546875 6 5.203125 8.984375 
Q 3.859375 11.96875 3.265625 15.375 
L 10.546875 16.40625 
Q 10.984375 14.453125 11.78125 12.625 
Q 12.59375 10.796875 13.984375 9.34375 
Q 15.375 7.90625 17.40625 7.046875 
Q 19.4375 6.203125 22.3125 6.203125 
Q 25.09375 6.203125 27.390625 7.25 
Q 29.6875 8.296875 31.296875 10.34375 
Q 32.90625 12.40625 33.78125 15.375 
Q 34.671875 18.359375 34.671875 22.21875 
Q 34.671875 25.390625 33.84375 28.046875 
Q 33.015625 30.71875 31.453125 32.640625 
Q 29.890625 34.578125 27.609375 35.640625 
Q 25.34375 36.71875 22.46875 36.71875 
Q 20.65625 36.71875 19.140625 36.328125 
Q 17.625 35.9375 16.328125 35.25 
Q 15.046875 34.578125 13.96875 33.671875 
Q 12.890625 32.765625 11.96875 31.78125 
L 4.9375 31.78125 
L 6.78125 68.796875 
L 38.875 68.796875 
L 38.875 61.328125 
L 13.375 61.328125 
L 12.3125 39.5 
Q 14.203125 41.3125 17.078125 42.59375 
Q 19.96875 43.890625 23.921875 43.890625 
Q 28.125 43.890625 31.484375 42.328125 
Q 34.859375 40.765625 37.21875 37.90625 
Q 39.59375 35.0625 40.859375 31.109375 
Q 42.140625 27.15625 42.140625 22.40625 
z
" id="LiberationSansNarrow-53"/>
      </defs>
      <g transform="translate(32.8525 211.373171)scale(0.14 -0.14)">
       <use xlink:href="#LiberationSansNarrow-8722"/>
       <use x="47.900391" xlink:href="#LiberationSansNarrow-53"/>
       <use x="93.505859" xlink:href="#LiberationSansNarrow-48"/>
      </g>
     </g>
    </g>
    <g id="ytick_3">
     <g id="line2d_9">
      <path clip-path="url(#p44cc3322c3)" d="M 59.33 170.70065 
L 558.36 170.70065 
" style="fill:none;stroke:#b0b0b0;stroke-dasharray:1.48,0.64;stroke-dashoffset:0;stroke-width:0.4;"/>
     </g>
     <g id="text_9">
      <!-- −40 -->
      <g transform="translate(32.8525 175.773463)scale(0.14 -0.14)">
       <use xlink:href="#LiberationSansNarrow-8722"/>
       <use x="47.900391" xlink:href="#LiberationSansNarrow-52"/>
       <use x="93.505859" xlink:href="#LiberationSansNarrow-48"/>
      </g>
     </g>
    </g>
    <g id="ytick_4">
     <g id="line2d_10">
      <path clip-path="url(#p44cc3322c3)" d="M 59.33 135.100942 
L 558.36 135.100942 
" style="fill:none;stroke:#b0b0b0;stroke-dasharray:1.48,0.64;stroke-dashoffset:0;stroke-width:0.4;"/>
     </g>
     <g id="text_10">
      <!-- −30 -->
      <defs>
       <path d="M 42 19 
Q 42 14.265625 40.75 10.546875 
Q 39.5 6.84375 37.0625 4.265625 
Q 34.625 1.703125 31.046875 0.359375 
Q 27.484375 -0.984375 22.859375 -0.984375 
Q 17.625 -0.984375 14.03125 0.609375 
Q 10.453125 2.203125 8.125 4.8125 
Q 5.8125 7.421875 4.640625 10.765625 
Q 3.46875 14.109375 3.125 17.671875 
L 10.546875 18.5 
Q 10.890625 15.765625 11.734375 13.515625 
Q 12.59375 11.28125 14.078125 9.671875 
Q 15.578125 8.0625 17.75 7.171875 
Q 19.921875 6.296875 22.859375 6.296875 
Q 28.328125 6.296875 31.421875 9.5625 
Q 34.515625 12.84375 34.515625 19.28125 
Q 34.515625 23.09375 33.125 25.40625 
Q 31.734375 27.734375 29.6875 29.03125 
Q 27.640625 30.328125 25.21875 30.765625 
Q 22.796875 31.203125 20.75 31.203125 
L 16.65625 31.203125 
L 16.65625 38.8125 
L 20.5625 38.8125 
Q 22.609375 38.8125 24.828125 39.328125 
Q 27.046875 39.84375 28.859375 41.1875 
Q 30.671875 42.53125 31.859375 44.828125 
Q 33.0625 47.125 33.0625 50.6875 
Q 33.0625 56.203125 30.375 59.390625 
Q 27.6875 62.59375 22.46875 62.59375 
Q 17.671875 62.59375 14.734375 59.609375 
Q 11.8125 56.640625 11.328125 51.21875 
L 4.109375 51.90625 
Q 4.546875 56.453125 6.125 59.8125 
Q 7.71875 63.1875 10.171875 65.40625 
Q 12.640625 67.625 15.8125 68.71875 
Q 19 69.828125 22.5625 69.828125 
Q 27.296875 69.828125 30.6875 68.375 
Q 34.078125 66.9375 36.21875 64.46875 
Q 38.375 62.015625 39.40625 58.6875 
Q 40.4375 55.375 40.4375 51.609375 
Q 40.4375 48.578125 39.75 45.9375 
Q 39.0625 43.3125 37.625 41.203125 
Q 36.1875 39.109375 33.953125 37.59375 
Q 31.734375 36.078125 28.609375 35.296875 
L 28.609375 35.109375 
Q 32.03125 34.671875 34.546875 33.21875 
Q 37.0625 31.78125 38.71875 29.625 
Q 40.375 27.484375 41.1875 24.75 
Q 42 22.015625 42 19 
z
" id="LiberationSansNarrow-51"/>
      </defs>
      <g transform="translate(32.8525 140.173755)scale(0.14 -0.14)">
       <use xlink:href="#LiberationSansNarrow-8722"/>
       <use x="47.900391" xlink:href="#LiberationSansNarrow-51"/>
       <use x="93.505859" xlink:href="#LiberationSansNarrow-48"/>
      </g>
     </g>
    </g>
    <g id="ytick_5">
     <g id="line2d_11">
      <path clip-path="url(#p44cc3322c3)" d="M 59.33 99.501234 
L 558.36 99.501234 
" style="fill:none;stroke:#b0b0b0;stroke-dasharray:1.48,0.64;stroke-dashoffset:0;stroke-width:0.4;"/>
     </g>
     <g id="text_11">
      <!-- −20 -->
      <g transform="translate(32.8525 104.574047)scale(0.14 -0.14)">
       <use xlink:href="#LiberationSansNarrow-8722"/>
       <use x="47.900391" xlink:href="#LiberationSansNarrow-50"/>
       <use x="93.505859" xlink:href="#LiberationSansNarrow-48"/>
      </g>
     </g>
    </g>
    <g id="ytick_6">
     <g id="line2d_12">
      <path clip-path="url(#p44cc3322c3)" d="M 59.33 63.901526 
L 558.36 63.901526 
" style="fill:none;stroke:#b0b0b0;stroke-dasharray:1.48,0.64;stroke-dashoffset:0;stroke-width:0.4;"/>
     </g>
     <g id="text_12">
      <!-- −10 -->
      <g transform="translate(32.8525 68.974339)scale(0.14 -0.14)">
       <use xlink:href="#LiberationSansNarrow-8722"/>
       <use x="47.900391" xlink:href="#LiberationSansNarrow-49"/>
       <use x="93.505859" xlink:href="#LiberationSansNarrow-48"/>
      </g>
     </g>
    </g>
    <g id="ytick_7">
     <g id="line2d_13">
      <path clip-path="url(#p44cc3322c3)" d="M 59.33 28.301818 
L 558.36 28.301818 
" style="fill:none;stroke:#b0b0b0;stroke-dasharray:1.48,0.64;stroke-dashoffset:0;stroke-width:0.4;"/>
     </g>
     <g id="text_13">
      <!-- 0 -->
      <g transform="translate(45.944688 33.374631)scale(0.14 -0.14)">
       <use xlink:href="#LiberationSansNarrow-48"/>
      </g>
     </g>
    </g>
    <g id="text_14">
     <!-- макс. просадка начального капитала, % -->
     <defs>
      <path d="M 31.546875 0 
L 25.390625 0 
L 12.40625 46.4375 
Q 12.453125 45.171875 12.515625 43.703125 
Q 12.59375 42.234375 12.59375 40.75 
Q 12.59375 39.265625 12.609375 37.859375 
Q 12.640625 36.46875 12.640625 35.359375 
L 12.640625 0 
L 5.671875 0 
L 5.671875 52.828125 
L 16.890625 52.828125 
L 25.734375 20.5625 
Q 26.65625 17.484375 27.390625 13.796875 
Q 28.125 10.109375 28.421875 6.59375 
Q 28.8125 10.109375 29.515625 13.796875 
Q 30.21875 17.484375 31.15625 20.5625 
L 39.984375 52.828125 
L 50.734375 52.828125 
L 50.734375 0 
L 43.796875 0 
L 43.796875 35.359375 
Q 43.796875 36.421875 43.8125 37.890625 
Q 43.84375 39.359375 43.921875 40.921875 
Q 44 42.484375 44.015625 43.9375 
Q 44.046875 45.40625 44.140625 46.53125 
z
" id="LiberationSansNarrow-1084"/>
      <path d="M 16.546875 -0.984375 
Q 10.015625 -0.984375 6.734375 3.21875 
Q 3.46875 7.421875 3.46875 14.75 
Q 3.46875 19.96875 5.09375 23.3125 
Q 6.734375 26.65625 9.34375 28.5625 
Q 11.96875 30.46875 15.328125 31.203125 
Q 18.703125 31.9375 22.171875 32.03125 
L 31.9375 32.234375 
L 31.9375 35.109375 
Q 31.9375 38.375 31.375 40.671875 
Q 30.8125 42.96875 29.640625 44.375 
Q 28.46875 45.796875 26.734375 46.453125 
Q 25 47.125 22.609375 47.125 
Q 20.515625 47.125 18.84375 46.75 
Q 17.1875 46.390625 15.9375 45.4375 
Q 14.703125 44.484375 13.9375 42.84375 
Q 13.1875 41.21875 12.9375 38.71875 
L 5.421875 39.546875 
Q 5.8125 42.671875 6.9375 45.28125 
Q 8.0625 47.90625 10.109375 49.796875 
Q 12.15625 51.703125 15.25 52.75 
Q 18.359375 53.8125 22.796875 53.8125 
Q 30.953125 53.8125 35.078125 49.234375 
Q 39.203125 44.671875 39.203125 36.03125 
L 39.203125 13.28125 
Q 39.203125 9.375 40.03125 7.390625 
Q 40.875 5.421875 43.265625 5.421875 
Q 43.84375 5.421875 44.453125 5.515625 
Q 45.0625 5.609375 45.609375 5.765625 
L 45.609375 0.296875 
Q 44.234375 -0.09375 42.890625 -0.28125 
Q 41.546875 -0.484375 40.046875 -0.484375 
Q 37.984375 -0.484375 36.515625 0.171875 
Q 35.0625 0.828125 34.15625 2.171875 
Q 33.25 3.515625 32.765625 5.484375 
Q 32.28125 7.46875 32.125 10.109375 
L 31.9375 10.109375 
Q 30.765625 7.5625 29.375 5.515625 
Q 27.984375 3.46875 26.140625 2.03125 
Q 24.3125 0.59375 21.9375 -0.1875 
Q 19.578125 -0.984375 16.546875 -0.984375 
z
M 18.21875 5.609375 
Q 21.6875 5.609375 24.25 7.140625 
Q 26.8125 8.6875 28.515625 11.078125 
Q 30.21875 13.484375 31.078125 16.3125 
Q 31.9375 19.140625 31.9375 21.734375 
L 31.9375 26.078125 
L 24.03125 25.875 
Q 21.390625 25.828125 19 25.40625 
Q 16.609375 25 14.8125 23.78125 
Q 13.03125 22.5625 11.953125 20.359375 
Q 10.890625 18.171875 10.890625 14.59375 
Q 10.890625 10.296875 12.796875 7.953125 
Q 14.703125 5.609375 18.21875 5.609375 
z
" id="LiberationSansNarrow-1072"/>
      <path d="M 5.515625 52.828125 
L 12.703125 52.828125 
L 12.703125 29.6875 
Q 13.921875 29.6875 14.875 30.078125 
Q 15.828125 30.46875 16.875 31.6875 
Q 17.921875 32.90625 19.21875 35.15625 
Q 20.515625 37.40625 22.46875 41.15625 
L 28.375 52.828125 
L 35.890625 52.828125 
L 27.25 36.96875 
Q 25.4375 33.734375 24.109375 31.65625 
Q 22.796875 29.59375 22.125 28.90625 
L 36.234375 0 
L 28.21875 0 
L 17.140625 24.265625 
Q 16.359375 23.875 15.0625 23.578125 
Q 13.765625 23.296875 12.703125 23.296875 
L 12.703125 0 
L 5.515625 0 
z
" id="LiberationSansNarrow-1082"/>
      <path d="M 11.03125 26.65625 
Q 11.03125 22.125 11.5625 18.3125 
Q 12.109375 14.5 13.375 11.734375 
Q 14.65625 8.984375 16.75 7.46875 
Q 18.84375 5.953125 21.96875 5.953125 
Q 25.828125 5.953125 28.390625 8.484375 
Q 30.953125 11.03125 31.546875 16.3125 
L 38.875 15.71875 
Q 38.53125 12.453125 37.296875 9.421875 
Q 36.078125 6.390625 34.03125 4.09375 
Q 31.984375 1.8125 29 0.40625 
Q 26.03125 -0.984375 22.171875 -0.984375 
Q 17.09375 -0.984375 13.5 1.109375 
Q 9.90625 3.21875 7.6875 6.90625 
Q 5.46875 10.59375 4.46875 15.59375 
Q 3.46875 20.609375 3.46875 26.46875 
Q 3.46875 31.78125 4.203125 35.859375 
Q 4.9375 39.9375 6.21875 42.984375 
Q 7.515625 46.046875 9.265625 48.125 
Q 11.03125 50.203125 13.109375 51.4375 
Q 15.1875 52.6875 17.453125 53.25 
Q 19.734375 53.8125 22.078125 53.8125 
Q 25.734375 53.8125 28.5625 52.59375 
Q 31.390625 51.375 33.46875 49.25 
Q 35.546875 47.125 36.8125 44.234375 
Q 38.09375 41.359375 38.625 38.03125 
L 31.203125 37.359375 
Q 30.671875 41.75 28.375 44.328125 
Q 26.078125 46.921875 21.875 46.921875 
Q 18.796875 46.921875 16.71875 45.671875 
Q 14.65625 44.4375 13.375 41.921875 
Q 12.109375 39.40625 11.5625 35.59375 
Q 11.03125 31.78125 11.03125 26.65625 
z
" id="LiberationSansNarrow-1089"/>
      <path id="LiberationSansNarrow-32"/>
      <path d="M 38.71875 52.828125 
L 38.71875 0 
L 31.546875 0 
L 31.546875 46.4375 
L 12.890625 46.4375 
L 12.890625 0 
L 5.71875 0 
L 5.71875 52.828125 
z
" id="LiberationSansNarrow-1087"/>
      <path d="M 42.140625 26.65625 
Q 42.140625 20.65625 41.359375 15.578125 
Q 40.578125 10.5 38.6875 6.828125 
Q 36.8125 3.171875 33.765625 1.09375 
Q 30.71875 -0.984375 26.21875 -0.984375 
Q 21.578125 -0.984375 18.078125 1.171875 
Q 14.59375 3.328125 12.796875 8.203125 
L 12.546875 8.203125 
Q 12.59375 8.109375 12.609375 7.328125 
Q 12.640625 6.546875 12.671875 5.375 
Q 12.703125 4.203125 12.71875 2.75 
Q 12.75 1.3125 12.75 -0.09375 
L 12.75 -20.75 
L 5.515625 -20.75 
L 5.515625 42.046875 
Q 5.515625 43.953125 5.484375 45.703125 
Q 5.46875 47.46875 5.4375 48.90625 
Q 5.421875 50.34375 5.375 51.359375 
Q 5.328125 52.390625 5.28125 52.828125 
L 12.25 52.828125 
Q 12.3125 52.6875 12.359375 51.8125 
L 12.5 49.703125 
Q 12.546875 48.4375 12.59375 47.015625 
Q 12.640625 45.609375 12.640625 44.34375 
L 12.796875 44.34375 
Q 13.765625 46.875 15.0625 48.65625 
Q 16.359375 50.4375 18.015625 51.578125 
Q 19.671875 52.734375 21.671875 53.25 
Q 23.6875 53.765625 26.21875 53.765625 
Q 30.71875 53.765625 33.765625 51.8125 
Q 36.8125 49.859375 38.6875 46.3125 
Q 40.578125 42.78125 41.359375 37.765625 
Q 42.140625 32.765625 42.140625 26.65625 
z
M 34.578125 26.46875 
Q 34.578125 31.34375 34.109375 35.15625 
Q 33.640625 38.96875 32.4375 41.59375 
Q 31.25 44.234375 29.296875 45.59375 
Q 27.34375 46.96875 24.359375 46.96875 
Q 21.96875 46.96875 19.84375 46.140625 
Q 17.71875 45.3125 16.125 42.96875 
Q 14.546875 40.625 13.640625 36.5 
Q 12.75 32.375 12.75 25.78125 
Q 12.75 20.171875 13.5 16.28125 
Q 14.265625 12.40625 15.71875 10.015625 
Q 17.1875 7.625 19.328125 6.5625 
Q 21.484375 5.515625 24.3125 5.515625 
Q 27.34375 5.515625 29.296875 6.921875 
Q 31.25 8.34375 32.4375 11.03125 
Q 33.640625 13.71875 34.109375 17.59375 
Q 34.578125 21.484375 34.578125 26.46875 
z
" id="LiberationSansNarrow-1088"/>
      <path d="M 42.140625 26.46875 
Q 42.140625 12.59375 37.125 5.796875 
Q 32.125 -0.984375 22.609375 -0.984375 
Q 18.0625 -0.984375 14.515625 0.671875 
Q 10.984375 2.34375 8.515625 5.765625 
Q 6.0625 9.1875 4.765625 14.328125 
Q 3.46875 19.484375 3.46875 26.46875 
Q 3.46875 53.8125 22.859375 53.8125 
Q 27.875 53.8125 31.5625 52.09375 
Q 35.25 50.390625 37.59375 46.96875 
Q 39.9375 43.5625 41.03125 38.421875 
Q 42.140625 33.296875 42.140625 26.46875 
z
M 34.578125 26.46875 
Q 34.578125 32.625 33.8125 36.625 
Q 33.0625 40.625 31.546875 43.015625 
Q 30.03125 45.40625 27.859375 46.359375 
Q 25.6875 47.3125 23 47.3125 
Q 20.21875 47.3125 17.984375 46.3125 
Q 15.765625 45.3125 14.203125 42.890625 
Q 12.640625 40.484375 11.828125 36.46875 
Q 11.03125 32.46875 11.03125 26.46875 
Q 11.03125 20.3125 11.90625 16.28125 
Q 12.796875 12.25 14.328125 9.859375 
Q 15.875 7.46875 17.96875 6.484375 
Q 20.0625 5.515625 22.5625 5.515625 
Q 25.34375 5.515625 27.5625 6.46875 
Q 29.78125 7.421875 31.34375 9.8125 
Q 32.90625 12.203125 33.734375 16.25 
Q 34.578125 20.3125 34.578125 26.46875 
z
" id="LiberationSansNarrow-1086"/>
      <path d="M 33.34375 46.4375 
L 21.140625 46.4375 
Q 20.171875 37.796875 19.1875 31.375 
Q 18.21875 24.953125 17.234375 20.21875 
Q 16.265625 15.484375 15.3125 12.15625 
Q 14.359375 8.84375 13.484375 6.390625 
L 33.34375 6.390625 
z
M 46.390625 -19.921875 
L 39.890625 -19.921875 
L 39.890625 0 
L 7.328125 0 
L 7.328125 -19.921875 
L 0.78125 -19.921875 
L 0.78125 6.390625 
L 5.5625 6.390625 
Q 6.78125 8.84375 7.921875 12.328125 
Q 9.078125 15.828125 10.21875 21.1875 
Q 11.375 26.5625 12.515625 34.25 
Q 13.671875 41.9375 14.796875 52.828125 
L 40.578125 52.828125 
L 40.578125 6.390625 
L 46.390625 6.390625 
z
" id="LiberationSansNarrow-1076"/>
      <path d="M 12.890625 52.828125 
L 12.890625 30.46875 
L 32.375 30.46875 
L 32.375 52.828125 
L 39.59375 52.828125 
L 39.59375 0 
L 32.375 0 
L 32.375 24.078125 
L 12.890625 24.078125 
L 12.890625 0 
L 5.671875 0 
L 5.671875 52.828125 
z
" id="LiberationSansNarrow-1085"/>
      <path d="M 12.109375 52.828125 
L 12.109375 33.203125 
Q 12.109375 31.546875 12.421875 30.09375 
Q 12.75 28.65625 13.53125 27.578125 
Q 14.3125 26.515625 15.578125 25.90625 
Q 16.84375 25.296875 18.75 25.296875 
Q 21.53125 25.296875 24.171875 25.921875 
Q 26.8125 26.5625 29.78125 27.59375 
L 29.78125 52.828125 
L 37.015625 52.828125 
L 37.015625 0 
L 29.78125 0 
L 29.78125 22.515625 
Q 29.78125 22.515625 26.65625 21 
Q 25.046875 20.265625 23.28125 19.671875 
Q 21.53125 19.09375 19.671875 18.703125 
Q 17.828125 18.3125 15.765625 18.3125 
Q 13.140625 18.3125 11.109375 19.3125 
Q 9.078125 20.3125 7.703125 22.171875 
Q 6.34375 24.03125 5.609375 26.703125 
Q 4.890625 29.390625 4.890625 32.765625 
L 4.890625 52.828125 
z
" id="LiberationSansNarrow-1095"/>
      <path d="M 34.859375 0 
L 34.859375 46.4375 
L 19.875 46.4375 
Q 18.890625 37.453125 18.03125 30.4375 
Q 17.1875 23.4375 16.3125 18.15625 
Q 15.4375 12.890625 14.40625 9.25 
Q 13.375 5.609375 11.953125 3.34375 
Q 10.546875 1.078125 8.65625 0.046875 
Q 6.78125 -0.984375 4.203125 -0.984375 
Q 3.03125 -0.984375 2.078125 -0.78125 
Q 1.125 -0.59375 0.4375 -0.34375 
L 0.4375 5.953125 
Q 0.875 5.765625 1.625 5.640625 
Q 2.390625 5.515625 3.171875 5.515625 
Q 4.59375 5.515625 5.59375 6.53125 
Q 6.59375 7.5625 7.390625 9.859375 
Q 8.203125 12.15625 8.859375 15.796875 
Q 9.515625 19.4375 10.203125 24.703125 
Q 10.890625 29.984375 11.625 36.921875 
L 13.375 52.828125 
L 42.140625 52.828125 
L 42.140625 0 
z
" id="LiberationSansNarrow-1083"/>
      <path d="M 22.75 30.46875 
Q 30.953125 30.46875 35.15625 26.875 
Q 39.359375 23.296875 39.359375 15.53125 
Q 39.359375 11.921875 38.296875 9.03125 
Q 37.25 6.15625 35.171875 4.15625 
Q 33.109375 2.15625 30 1.078125 
Q 26.90625 0 22.796875 0 
L 5.671875 0 
L 5.671875 52.828125 
L 12.890625 52.828125 
L 12.890625 30.46875 
z
M 12.890625 6.203125 
L 21.6875 6.203125 
Q 24.46875 6.203125 26.390625 6.8125 
Q 28.328125 7.421875 29.5 8.609375 
Q 30.671875 9.8125 31.171875 11.546875 
Q 31.6875 13.28125 31.6875 15.53125 
Q 31.6875 20.125 29.359375 22.234375 
Q 27.046875 24.359375 21.734375 24.359375 
L 12.890625 24.359375 
z
" id="LiberationSansNarrow-1100"/>
      <path d="M 27.546875 52.828125 
L 27.546875 46.4375 
L 12.890625 46.4375 
L 12.890625 0 
L 5.71875 0 
L 5.71875 52.828125 
z
" id="LiberationSansNarrow-1075"/>
      <path d="M 12.640625 52.828125 
L 12.640625 23.921875 
Q 12.640625 22.796875 12.59375 20.921875 
Q 12.546875 19.046875 12.46875 17.046875 
Q 12.40625 15.046875 12.359375 13.234375 
Q 12.3125 11.421875 12.25 10.40625 
L 32.28125 52.828125 
L 40.140625 52.828125 
L 40.140625 0 
L 33.25 0 
L 33.25 32.234375 
Q 33.25 33.15625 33.296875 34.578125 
L 33.40625 37.40625 
Q 33.453125 38.875 33.5 40.234375 
L 33.640625 42.625 
L 13.375 0 
L 5.71875 0 
L 5.71875 52.828125 
z
" id="LiberationSansNarrow-1080"/>
      <path d="M 1.421875 52.828125 
L 36.140625 52.828125 
L 36.140625 46.4375 
L 22.359375 46.4375 
L 22.359375 0 
L 15.1875 0 
L 15.1875 46.4375 
L 1.421875 46.4375 
z
" id="LiberationSansNarrow-1090"/>
      <path d="M 15.4375 10.6875 
L 15.4375 2.484375 
Q 15.4375 -0.09375 15.265625 -2.21875 
Q 15.09375 -4.34375 14.671875 -6.171875 
Q 14.265625 -8.015625 13.671875 -9.625 
Q 13.09375 -11.234375 12.3125 -12.796875 
L 7.375 -12.796875 
Q 9.1875 -9.625 10.15625 -6.390625 
Q 11.140625 -3.171875 11.140625 0 
L 7.625 0 
L 7.625 10.6875 
z
" id="LiberationSansNarrow-44"/>
      <path d="M 69.96875 21.1875 
Q 69.96875 15.09375 68.9375 10.90625 
Q 67.921875 6.734375 66.1875 4.171875 
Q 64.453125 1.609375 62.125 0.5 
Q 59.8125 -0.59375 57.171875 -0.59375 
Q 54.546875 -0.59375 52.21875 0.5 
Q 49.90625 1.609375 48.21875 4.140625 
Q 46.53125 6.6875 45.546875 10.859375 
Q 44.578125 15.046875 44.578125 21.1875 
Q 44.578125 27.6875 45.53125 31.9375 
Q 46.484375 36.1875 48.1875 38.703125 
Q 49.90625 41.21875 52.25 42.21875 
Q 54.59375 43.21875 57.328125 43.21875 
Q 59.96875 43.21875 62.25 42.21875 
Q 64.546875 41.21875 66.25 38.703125 
Q 67.96875 36.1875 68.96875 31.9375 
Q 69.96875 27.6875 69.96875 21.1875 
z
M 21.09375 0 
L 14.890625 0 
L 51.8125 68.796875 
L 58.109375 68.796875 
z
M 15.765625 69.390625 
Q 18.3125 69.390625 20.609375 68.390625 
Q 22.90625 67.390625 24.609375 64.890625 
Q 26.3125 62.40625 27.3125 58.203125 
Q 28.328125 54 28.328125 47.609375 
Q 28.328125 41.453125 27.3125 37.25 
Q 26.3125 33.0625 24.609375 30.4375 
Q 22.90625 27.828125 20.578125 26.703125 
Q 18.265625 25.59375 15.625 25.59375 
Q 12.9375 25.59375 10.609375 26.703125 
Q 8.296875 27.828125 6.59375 30.421875 
Q 4.890625 33.015625 3.90625 37.203125 
Q 2.9375 41.40625 2.9375 47.609375 
Q 2.9375 54 3.90625 58.203125 
Q 4.890625 62.40625 6.609375 64.890625 
Q 8.34375 67.390625 10.6875 68.390625 
Q 13.03125 69.390625 15.765625 69.390625 
z
M 64.0625 21.1875 
Q 64.0625 26.03125 63.625 29.21875 
Q 63.1875 32.421875 62.328125 34.328125 
Q 61.46875 36.234375 60.203125 37.015625 
Q 58.9375 37.796875 57.328125 37.796875 
Q 55.671875 37.796875 54.375 36.984375 
Q 53.078125 36.1875 52.1875 34.28125 
Q 51.3125 32.375 50.875 29.171875 
Q 50.4375 25.984375 50.4375 21.1875 
Q 50.4375 16.546875 50.90625 13.421875 
Q 51.375 10.296875 52.21875 8.375 
Q 53.078125 6.453125 54.34375 5.609375 
Q 55.609375 4.78125 57.234375 4.78125 
Q 58.796875 4.78125 60.0625 5.609375 
Q 61.328125 6.453125 62.203125 8.375 
Q 63.09375 10.296875 63.578125 13.421875 
Q 64.0625 16.546875 64.0625 21.1875 
z
M 22.40625 47.609375 
Q 22.40625 52.390625 21.96875 55.5625 
Q 21.53125 58.734375 20.703125 60.640625 
Q 19.875 62.546875 18.625 63.328125 
Q 17.390625 64.109375 15.765625 64.109375 
Q 14.0625 64.109375 12.734375 63.296875 
Q 11.421875 62.5 10.546875 60.59375 
Q 9.671875 58.6875 9.234375 55.515625 
Q 8.796875 52.34375 8.796875 47.609375 
Q 8.796875 42.96875 9.25 39.796875 
Q 9.71875 36.625 10.5625 34.6875 
Q 11.421875 32.765625 12.71875 31.9375 
Q 14.015625 31.109375 15.671875 31.109375 
Q 17.1875 31.109375 18.421875 31.9375 
Q 19.671875 32.765625 20.546875 34.6875 
Q 21.4375 36.625 21.921875 39.796875 
Q 22.40625 42.96875 22.40625 47.609375 
z
" id="LiberationSansNarrow-37"/>
     </defs>
     <g transform="translate(25.9475 241.636094)rotate(-90)scale(0.14 -0.14)">
      <use xlink:href="#LiberationSansNarrow-1084"/>
      <use x="56.396484" xlink:href="#LiberationSansNarrow-1072"/>
      <use x="102.001953" xlink:href="#LiberationSansNarrow-1082"/>
      <use x="137.857422" xlink:href="#LiberationSansNarrow-1089"/>
      <use x="178.873047" xlink:href="#LiberationSansNarrow-46"/>
      <use x="201.675781" xlink:href="#LiberationSansNarrow-32"/>
      <use x="224.478516" xlink:href="#LiberationSansNarrow-1087"/>
      <use x="268.912109" xlink:href="#LiberationSansNarrow-1088"/>
      <use x="314.517578" xlink:href="#LiberationSansNarrow-1086"/>
      <use x="360.123047" xlink:href="#LiberationSansNarrow-1089"/>
      <use x="401.138672" xlink:href="#LiberationSansNarrow-1072"/>
      <use x="446.744141" xlink:href="#LiberationSansNarrow-1076"/>
      <use x="494.546875" xlink:href="#LiberationSansNarrow-1082"/>
      <use x="530.417969" xlink:href="#LiberationSansNarrow-1072"/>
      <use x="576.023438" xlink:href="#LiberationSansNarrow-32"/>
      <use x="598.826172" xlink:href="#LiberationSansNarrow-1085"/>
      <use x="644.089844" xlink:href="#LiberationSansNarrow-1072"/>
      <use x="689.664062" xlink:href="#LiberationSansNarrow-1095"/>
      <use x="732.388672" xlink:href="#LiberationSansNarrow-1072"/>
      <use x="777.994141" xlink:href="#LiberationSansNarrow-1083"/>
      <use x="825.796875" xlink:href="#LiberationSansNarrow-1100"/>
      <use x="868.521484" xlink:href="#LiberationSansNarrow-1085"/>
      <use x="913.785156" xlink:href="#LiberationSansNarrow-1086"/>
      <use x="959.390625" xlink:href="#LiberationSansNarrow-1075"/>
      <use x="989.291016" xlink:href="#LiberationSansNarrow-1086"/>
      <use x="1034.896484" xlink:href="#LiberationSansNarrow-32"/>
      <use x="1057.699219" xlink:href="#LiberationSansNarrow-1082"/>
      <use x="1093.570312" xlink:href="#LiberationSansNarrow-1072"/>
      <use x="1139.175781" xlink:href="#LiberationSansNarrow-1087"/>
      <use x="1183.609375" xlink:href="#LiberationSansNarrow-1080"/>
      <use x="1229.458984" xlink:href="#LiberationSansNarrow-1090"/>
      <use x="1266.992188" xlink:href="#LiberationSansNarrow-1072"/>
      <use x="1312.597656" xlink:href="#LiberationSansNarrow-1083"/>
      <use x="1360.400391" xlink:href="#LiberationSansNarrow-1072"/>
      <use x="1406.005859" xlink:href="#LiberationSansNarrow-44"/>
      <use x="1428.808594" xlink:href="#LiberationSansNarrow-32"/>
      <use x="1451.611328" xlink:href="#LiberationSansNarrow-37"/>
     </g>
    </g>
   </g>
   <g id="line2d_14">
    <path clip-path="url(#p44cc3322c3)" d="M 82.013182 212.560907 
L 83.88011 210.9482 
L 85.747039 210.586182 
L 87.613967 209.879962 
L 89.480896 209.781114 
L 93.214753 208.312168 
L 95.081682 208.214411 
L 96.94861 205.301802 
L 98.815539 204.11923 
L 100.682467 203.789745 
L 102.549396 202.771449 
L 104.416324 199.862484 
L 106.283253 198.319378 
L 108.150181 197.527159 
L 110.01711 197.342386 
L 111.884039 196.260015 
L 113.750967 196.191608 
L 115.617896 194.223845 
L 117.484824 192.042849 
L 123.08561 190.995164 
L 124.952538 186.710381 
L 128.686395 185.94573 
L 130.553324 179.68229 
L 132.420253 176.829665 
L 134.287181 174.319894 
L 136.15411 170.420032 
L 138.021038 169.187512 
L 139.887967 168.18288 
L 141.754895 166.591912 
L 143.621824 166.481837 
L 145.488752 165.2145 
L 149.222609 164.176585 
L 151.089538 162.849286 
L 152.956467 162.053657 
L 156.690324 161.755465 
L 158.557252 161.149957 
L 160.424181 161.137383 
L 162.291109 160.347461 
L 164.158038 160.20624 
L 166.024966 159.170258 
L 167.891895 158.409765 
L 169.758823 158.132826 
L 171.625752 156.319414 
L 173.492681 156.164028 
L 175.359609 155.076228 
L 177.226538 154.907089 
L 179.093466 154.87197 
L 180.960395 154.112736 
L 184.694252 151.205354 
L 186.56118 151.130361 
L 190.295037 150.439602 
L 192.161966 148.74447 
L 194.028895 147.748393 
L 195.895823 146.17122 
L 197.762752 145.222323 
L 199.62968 144.929389 
L 201.496609 144.465188 
L 205.230466 143.970335 
L 207.097394 143.165867 
L 208.964323 142.696489 
L 210.831251 141.961268 
L 212.69818 137.32277 
L 214.565108 135.750508 
L 216.432037 133.650199 
L 218.298966 128.705108 
L 220.165894 128.285535 
L 223.899751 128.070804 
L 225.76668 123.863745 
L 227.633608 123.275737 
L 229.500537 122.476483 
L 231.367465 121.199634 
L 235.101322 120.992811 
L 236.968251 120.232547 
L 238.83518 117.746574 
L 240.702108 117.317207 
L 242.569037 113.709931 
L 244.435965 107.883375 
L 246.302894 106.495139 
L 248.169822 102.353671 
L 250.036751 100.001295 
L 251.903679 99.853421 
L 253.770608 99.379873 
L 255.637536 97.571508 
L 257.504465 97.037522 
L 259.371394 95.125034 
L 261.238322 92.872072 
L 263.105251 91.259748 
L 264.972179 88.786503 
L 268.706036 87.676354 
L 270.572965 85.531774 
L 272.439893 85.146114 
L 274.306822 84.894562 
L 276.17375 81.473059 
L 281.774536 78.569585 
L 283.641465 78.146234 
L 287.375322 77.71446 
L 289.24225 76.524892 
L 291.109179 75.099149 
L 292.976107 74.285018 
L 296.709964 71.590559 
L 298.576893 71.559269 
L 300.443822 69.345809 
L 302.31075 66.638633 
L 304.177679 66.500795 
L 306.044607 64.290367 
L 309.778464 61.776588 
L 311.645393 60.130756 
L 313.512321 59.665595 
L 315.37925 56.363889 
L 317.246178 56.118522 
L 320.980036 48.334044 
L 322.846964 48.122087 
L 324.713893 46.719402 
L 326.580821 45.789504 
L 328.44775 43.775896 
L 330.314678 43.219603 
L 332.181607 43.030446 
L 334.048535 42.09392 
L 337.782392 40.67893 
L 341.51625 40.192388 
L 343.383178 39.238062 
L 345.250107 38.62076 
L 347.117035 38.408022 
L 350.850892 38.268067 
L 352.717821 37.562865 
L 354.584749 37.266861 
L 358.318606 37.035011 
L 360.185535 36.003761 
L 363.919392 35.881241 
L 365.786321 35.774169 
L 367.653249 35.499843 
L 369.520178 34.286186 
L 373.254035 33.841723 
L 378.85482 33.673812 
L 384.455606 33.419337 
L 386.322535 33.047235 
L 388.189463 32.850358 
L 390.056392 32.840893 
L 391.92332 32.544679 
L 393.790249 32.025238 
L 397.524106 31.948586 
L 399.391034 31.777584 
L 401.257963 31.118881 
L 403.124892 31.101629 
L 404.99182 30.900251 
L 406.858749 30.329544 
L 408.725677 29.986103 
L 412.459534 29.666864 
L 421.794177 28.942152 
L 425.528034 28.396073 
L 509.539819 28.301818 
L 535.676818 28.301818 
L 535.676818 28.301818 
" style="fill:none;stroke:#1f77b4;stroke-linecap:square;stroke-width:2;"/>
   </g>
   <g id="line2d_15">
    <path clip-path="url(#p44cc3322c3)" d="M 82.013182 157.984785 
L 83.88011 155.769146 
L 85.747039 153.891863 
L 87.613967 151.124484 
L 89.480896 149.257492 
L 91.347825 146.335684 
L 93.214753 145.685479 
L 95.081682 143.95331 
L 96.94861 142.585758 
L 98.815539 141.887657 
L 100.682467 140.407106 
L 102.549396 140.328194 
L 104.416324 140.041898 
L 106.283253 138.466655 
L 108.150181 137.883188 
L 110.01711 136.071919 
L 111.884039 135.966357 
L 113.750967 133.657237 
L 115.617896 132.760159 
L 117.484824 130.274085 
L 119.351753 129.9385 
L 121.218681 129.41797 
L 124.952538 129.265438 
L 126.819467 128.235851 
L 128.686395 127.63106 
L 130.553324 126.250872 
L 132.420253 125.819896 
L 134.287181 125.797057 
L 136.15411 125.206295 
L 138.021038 124.372528 
L 139.887967 123.930504 
L 143.621824 123.667554 
L 145.488752 121.889802 
L 147.355681 120.567202 
L 149.222609 120.309564 
L 151.089538 120.29034 
L 154.823395 119.520019 
L 156.690324 119.49274 
L 158.557252 119.201403 
L 160.424181 118.352755 
L 162.291109 118.250653 
L 164.158038 116.186241 
L 166.024966 116.169429 
L 167.891895 115.505886 
L 169.758823 112.34277 
L 171.625752 111.21238 
L 173.492681 109.59805 
L 177.226538 109.342872 
L 179.093466 107.206515 
L 180.960395 106.74702 
L 182.827323 106.537806 
L 184.694252 105.614604 
L 186.56118 105.449765 
L 190.295037 104.711874 
L 192.161966 103.50344 
L 197.762752 102.322439 
L 199.62968 102.274506 
L 201.496609 101.262451 
L 203.363537 101.130569 
L 205.230466 100.420111 
L 207.097394 98.527066 
L 208.964323 97.991444 
L 212.69818 97.61653 
L 214.565108 96.676441 
L 216.432037 96.497802 
L 218.298966 91.93819 
L 222.032823 91.49027 
L 225.76668 90.077604 
L 227.633608 90.034409 
L 229.500537 88.914297 
L 233.234394 88.655954 
L 235.101322 87.024962 
L 236.968251 85.049635 
L 238.83518 84.500955 
L 240.702108 83.750175 
L 244.435965 81.960073 
L 246.302894 78.06629 
L 248.169822 75.954146 
L 250.036751 73.510522 
L 251.903679 72.514757 
L 253.770608 71.371624 
L 255.637536 70.528898 
L 257.504465 70.371234 
L 259.371394 70.006286 
L 261.238322 69.866294 
L 266.839108 68.37644 
L 268.706036 67.603202 
L 270.572965 67.46114 
L 272.439893 65.374268 
L 274.306822 64.792438 
L 276.17375 64.503653 
L 278.040679 64.48563 
L 279.907608 61.217545 
L 281.774536 59.474176 
L 285.508393 58.381443 
L 287.375322 56.958953 
L 289.24225 55.312647 
L 291.109179 55.280015 
L 292.976107 52.373542 
L 294.843036 51.824446 
L 298.576893 51.710073 
L 300.443822 51.112228 
L 302.31075 50.727602 
L 304.177679 48.545147 
L 306.044607 48.057379 
L 307.911536 47.727569 
L 311.645393 47.708126 
L 313.512321 47.071147 
L 315.37925 46.629334 
L 317.246178 46.366593 
L 320.980036 46.284551 
L 322.846964 45.409468 
L 330.314678 44.758135 
L 332.181607 44.711263 
L 334.048535 44.54073 
L 335.915464 44.001741 
L 339.649321 43.741936 
L 343.383178 42.452525 
L 345.250107 42.444144 
L 347.117035 41.855347 
L 356.451678 41.112765 
L 358.318606 40.637775 
L 360.185535 40.579919 
L 362.052464 40.219942 
L 365.786321 40.090592 
L 369.520178 39.83415 
L 376.987892 39.370757 
L 378.85482 39.119439 
L 380.721749 38.265945 
L 384.455606 37.972407 
L 386.322535 35.767484 
L 388.189463 35.457359 
L 390.056392 35.278639 
L 393.790249 35.107074 
L 395.657177 34.17577 
L 399.391034 34.017 
L 403.124892 32.893565 
L 404.99182 32.765001 
L 406.858749 31.877423 
L 408.725677 31.496345 
L 410.592606 31.38424 
L 412.459534 30.788998 
L 414.326463 29.529174 
L 416.193391 28.92765 
L 418.06032 28.720984 
L 423.661105 28.637222 
L 425.528034 28.426871 
L 444.197319 28.301818 
L 535.676818 28.301818 
L 535.676818 28.301818 
" style="fill:none;stroke:#ff7f0e;stroke-linecap:square;"/>
   </g>
   <g id="line2d_16">
    <path clip-path="url(#p44cc3322c3)" d="M 82.013182 185.197806 
L 83.88011 185.139712 
L 85.747039 179.807807 
L 87.613967 178.728521 
L 89.480896 178.054817 
L 91.347825 176.697896 
L 93.214753 173.31309 
L 95.081682 171.59686 
L 96.94861 161.05743 
L 98.815539 158.362792 
L 100.682467 156.154204 
L 102.549396 154.284401 
L 104.416324 153.181621 
L 106.283253 152.682239 
L 110.01711 150.373488 
L 111.884039 149.578025 
L 113.750967 145.934298 
L 115.617896 145.375842 
L 117.484824 142.299719 
L 119.351753 140.621228 
L 121.218681 139.511315 
L 123.08561 133.276197 
L 124.952538 132.709637 
L 126.819467 128.73749 
L 128.686395 128.485261 
L 132.420253 127.587464 
L 134.287181 127.435167 
L 136.15411 126.819785 
L 138.021038 122.103627 
L 139.887967 121.901519 
L 141.754895 120.372962 
L 145.488752 118.443256 
L 147.355681 116.199354 
L 149.222609 115.991615 
L 151.089538 115.420303 
L 152.956467 114.534706 
L 154.823395 114.306223 
L 158.557252 113.442438 
L 160.424181 112.177824 
L 162.291109 111.997128 
L 164.158038 111.682212 
L 167.891895 111.350641 
L 169.758823 110.724133 
L 171.625752 110.649972 
L 173.492681 109.450905 
L 175.359609 109.19813 
L 177.226538 107.931273 
L 179.093466 107.623076 
L 180.960395 105.972266 
L 182.827323 105.663215 
L 188.428109 105.337199 
L 190.295037 104.729017 
L 192.161966 102.637676 
L 194.028895 102.598515 
L 195.895823 101.994916 
L 205.230466 100.657923 
L 207.097394 100.063599 
L 208.964323 99.296159 
L 212.69818 98.822884 
L 216.432037 97.259169 
L 218.298966 94.631161 
L 220.165894 94.535507 
L 222.032823 93.924016 
L 223.899751 92.669846 
L 225.76668 90.391892 
L 227.633608 87.833497 
L 229.500537 86.948357 
L 231.367465 84.117149 
L 233.234394 83.461438 
L 235.101322 83.142536 
L 236.968251 82.690472 
L 240.702108 82.40011 
L 242.569037 81.679873 
L 244.435965 80.332958 
L 250.036751 79.813158 
L 251.903679 78.281038 
L 255.637536 77.837108 
L 257.504465 77.124415 
L 259.371394 75.264968 
L 263.105251 72.839957 
L 264.972179 72.596846 
L 266.839108 71.848398 
L 268.706036 70.930015 
L 272.439893 70.322984 
L 274.306822 70.128348 
L 276.17375 69.49533 
L 278.040679 69.443072 
L 279.907608 68.495972 
L 283.641465 68.012102 
L 285.508393 67.397203 
L 287.375322 67.270102 
L 289.24225 65.947364 
L 291.109179 65.80706 
L 292.976107 64.492859 
L 294.843036 64.199952 
L 296.709964 63.476448 
L 298.576893 63.044424 
L 300.443822 62.003274 
L 302.31075 61.621212 
L 304.177679 61.404825 
L 306.044607 60.924535 
L 311.645393 60.296767 
L 313.512321 59.306613 
L 317.246178 59.010385 
L 319.113107 58.717619 
L 320.980036 57.836235 
L 322.846964 57.320431 
L 324.713893 56.46193 
L 326.580821 56.234356 
L 328.44775 55.538689 
L 330.314678 53.725516 
L 332.181607 53.41738 
L 334.048535 52.114727 
L 335.915464 52.023152 
L 337.782392 51.62336 
L 339.649321 51.495722 
L 341.51625 51.204618 
L 343.383178 51.199055 
L 347.117035 49.337639 
L 352.717821 49.153241 
L 354.584749 48.077275 
L 356.451678 46.307973 
L 358.318606 46.279985 
L 360.185535 44.70117 
L 362.052464 44.389236 
L 363.919392 43.810144 
L 365.786321 43.351144 
L 369.520178 43.147473 
L 371.387106 42.82053 
L 375.120963 41.954264 
L 376.987892 41.796485 
L 378.85482 41.43592 
L 380.721749 41.35721 
L 382.588678 40.9509 
L 384.455606 40.74412 
L 386.322535 40.387738 
L 388.189463 40.358251 
L 390.056392 40.024047 
L 391.92332 39.954336 
L 399.391034 39.090126 
L 401.257963 37.691319 
L 406.858749 37.017979 
L 408.725677 35.945078 
L 410.592606 35.813618 
L 412.459534 34.907979 
L 414.326463 34.718839 
L 418.06032 33.814037 
L 419.927248 33.757207 
L 421.794177 33.486896 
L 423.661105 32.71007 
L 425.528034 32.168954 
L 427.394963 32.107754 
L 429.261891 31.625123 
L 431.12882 30.933678 
L 432.995748 30.803945 
L 434.862677 30.426 
L 436.729605 29.39742 
L 438.596534 29.115749 
L 440.463462 28.301818 
L 535.676818 28.301818 
L 535.676818 28.301818 
" style="fill:none;stroke:#2ca02c;stroke-linecap:square;"/>
   </g>
   <g id="line2d_17">
    <path clip-path="url(#p44cc3322c3)" d="M 82.013182 178.229227 
L 83.88011 176.649679 
L 85.747039 168.897663 
L 87.613967 167.811101 
L 89.480896 163.560254 
L 91.347825 162.670345 
L 93.214753 162.418481 
L 95.081682 162.021878 
L 96.94861 161.50947 
L 98.815539 161.500451 
L 100.682467 157.749713 
L 102.549396 157.611065 
L 104.416324 157.017031 
L 106.283253 156.199676 
L 108.150181 155.902374 
L 110.01711 154.425315 
L 111.884039 151.995029 
L 113.750967 146.059512 
L 115.617896 146.053531 
L 117.484824 144.850468 
L 119.351753 144.819961 
L 121.218681 143.963024 
L 123.08561 142.859241 
L 124.952538 142.560364 
L 126.819467 141.096805 
L 128.686395 141.091737 
L 130.553324 140.285565 
L 132.420253 138.713003 
L 134.287181 138.577409 
L 136.15411 137.049554 
L 138.021038 136.139032 
L 139.887967 134.512119 
L 141.754895 133.614987 
L 143.621824 133.464534 
L 145.488752 132.984056 
L 147.355681 130.69011 
L 149.222609 130.529578 
L 151.089538 130.104525 
L 152.956467 127.766941 
L 154.823395 127.520254 
L 158.557252 127.365404 
L 160.424181 126.682633 
L 164.158038 126.080697 
L 166.024966 125.731933 
L 167.891895 125.696454 
L 169.758823 122.663746 
L 171.625752 122.437149 
L 173.492681 122.378685 
L 175.359609 122.019062 
L 177.226538 120.815319 
L 179.093466 120.623705 
L 182.827323 119.585053 
L 184.694252 119.372772 
L 186.56118 116.326039 
L 188.428109 115.099171 
L 190.295037 115.082825 
L 192.161966 114.648584 
L 195.895823 114.176471 
L 197.762752 114.036875 
L 199.62968 111.939279 
L 205.230466 110.222876 
L 207.097394 109.172948 
L 208.964323 108.949987 
L 210.831251 106.462729 
L 212.69818 106.4542 
L 214.565108 105.942419 
L 218.298966 105.794176 
L 220.165894 102.677865 
L 222.032823 98.890888 
L 223.899751 95.846516 
L 225.76668 93.70212 
L 227.633608 93.201297 
L 229.500537 92.360953 
L 231.367465 89.105464 
L 233.234394 88.116299 
L 235.101322 87.402877 
L 236.968251 86.836405 
L 238.83518 83.428818 
L 240.702108 82.510807 
L 242.569037 79.541287 
L 244.435965 79.202362 
L 246.302894 78.132924 
L 248.169822 77.234803 
L 250.036751 75.17042 
L 251.903679 72.391243 
L 253.770608 71.648861 
L 255.637536 70.498818 
L 257.504465 70.413176 
L 261.238322 68.737165 
L 263.105251 66.10174 
L 266.839108 65.610495 
L 268.706036 65.426017 
L 270.572965 63.351142 
L 272.439893 61.710172 
L 274.306822 60.273439 
L 276.17375 59.843728 
L 278.040679 58.288 
L 279.907608 58.094661 
L 281.774536 57.172242 
L 285.508393 54.633288 
L 289.24225 54.258127 
L 291.109179 53.931688 
L 292.976107 51.073976 
L 294.843036 50.895594 
L 296.709964 50.5308 
L 298.576893 49.653673 
L 300.443822 49.512926 
L 302.31075 49.093 
L 304.177679 48.965663 
L 306.044607 48.109888 
L 307.911536 48.095365 
L 309.778464 47.677139 
L 311.645393 47.574072 
L 315.37925 47.130149 
L 317.246178 46.178332 
L 319.113107 46.145096 
L 320.980036 45.332891 
L 322.846964 44.938167 
L 324.713893 44.8088 
L 326.580821 44.161261 
L 328.44775 44.009659 
L 332.181607 43.145945 
L 334.048535 43.001294 
L 335.915464 42.59702 
L 337.782392 41.737338 
L 339.649321 41.718414 
L 341.51625 41.535837 
L 343.383178 41.488159 
L 345.250107 41.141666 
L 347.117035 40.986426 
L 348.983964 40.371061 
L 352.717821 39.95005 
L 354.584749 38.981389 
L 356.451678 38.920364 
L 358.318606 38.687919 
L 362.052464 38.532346 
L 363.919392 38.232605 
L 365.786321 38.213344 
L 369.520178 37.704393 
L 371.387106 37.325421 
L 375.120963 36.936528 
L 378.85482 36.854334 
L 380.721749 36.492975 
L 382.588678 36.352756 
L 384.455606 36.07564 
L 386.322535 36.051714 
L 390.056392 35.672903 
L 391.92332 35.049333 
L 395.657177 34.732052 
L 397.524106 34.100037 
L 399.391034 33.998277 
L 403.124892 33.431186 
L 404.99182 32.562332 
L 406.858749 32.276999 
L 408.725677 32.131236 
L 410.592606 31.131067 
L 412.459534 31.094511 
L 414.326463 29.51102 
L 416.193391 29.101812 
L 418.06032 28.914937 
L 421.794177 28.838473 
L 423.661105 28.653184 
L 425.528034 28.336458 
L 432.995748 28.301818 
L 535.676818 28.301818 
L 535.676818 28.301818 
" style="fill:none;stroke:#d62728;stroke-linecap:square;"/>
   </g>
   <g id="line2d_18">
    <path clip-path="url(#p44cc3322c3)" d="M 82.013182 241.538182 
L 83.88011 234.977041 
L 85.747039 234.739853 
L 89.480896 233.393962 
L 91.347825 232.094753 
L 93.214753 231.198554 
L 95.081682 229.881603 
L 96.94861 228.259276 
L 98.815539 225.847947 
L 100.682467 223.903922 
L 102.549396 222.752267 
L 104.416324 222.324555 
L 106.283253 222.294299 
L 108.150181 221.770143 
L 110.01711 221.562351 
L 111.884039 220.923716 
L 115.617896 219.898819 
L 117.484824 218.961683 
L 119.351753 218.801051 
L 121.218681 218.401297 
L 123.08561 216.318188 
L 124.952538 216.151896 
L 126.819467 216.125427 
L 128.686395 215.257815 
L 130.553324 214.530103 
L 132.420253 212.474362 
L 134.287181 212.371829 
L 136.15411 211.947798 
L 138.021038 211.066539 
L 139.887967 209.966531 
L 141.754895 209.266819 
L 143.621824 207.224562 
L 145.488752 207.148927 
L 149.222609 206.424803 
L 151.089538 205.262468 
L 152.956467 204.472763 
L 154.823395 204.212875 
L 156.690324 203.252879 
L 158.557252 200.551186 
L 160.424181 198.331444 
L 162.291109 193.095432 
L 164.158038 192.76714 
L 166.024966 189.30986 
L 167.891895 188.867917 
L 169.758823 186.278732 
L 171.625752 185.796484 
L 173.492681 180.988291 
L 175.359609 178.300258 
L 177.226538 175.997663 
L 179.093466 174.701069 
L 182.827323 171.743869 
L 184.694252 171.211521 
L 186.56118 171.161877 
L 188.428109 170.543989 
L 190.295037 169.459123 
L 192.161966 167.466699 
L 194.028895 167.055709 
L 195.895823 166.019408 
L 197.762752 164.232 
L 199.62968 163.826032 
L 201.496609 158.728613 
L 203.363537 158.178859 
L 205.230466 157.880193 
L 207.097394 147.90926 
L 208.964323 147.771187 
L 210.831251 144.257823 
L 212.69818 142.729198 
L 214.565108 142.412449 
L 216.432037 141.547144 
L 218.298966 139.312853 
L 220.165894 137.76363 
L 223.899751 136.664259 
L 225.76668 130.43016 
L 227.633608 128.152277 
L 229.500537 122.402835 
L 231.367465 121.313228 
L 233.234394 120.982022 
L 235.101322 120.416243 
L 236.968251 120.03919 
L 238.83518 119.946742 
L 240.702108 118.468885 
L 242.569037 115.228933 
L 246.302894 114.161776 
L 248.169822 110.054614 
L 250.036751 107.240881 
L 251.903679 107.109005 
L 253.770608 106.240405 
L 255.637536 105.829654 
L 257.504465 103.87503 
L 259.371394 103.405728 
L 261.238322 103.129732 
L 263.105251 102.541837 
L 266.839108 101.938855 
L 268.706036 101.056898 
L 270.572965 99.926494 
L 272.439893 97.891611 
L 274.306822 97.125942 
L 276.17375 95.473994 
L 278.040679 93.620305 
L 279.907608 93.400125 
L 281.774536 92.671196 
L 283.641465 91.069883 
L 285.508393 85.702343 
L 287.375322 82.874491 
L 289.24225 82.619189 
L 291.109179 80.975936 
L 292.976107 80.25617 
L 294.843036 79.981786 
L 296.709964 79.053915 
L 298.576893 76.3097 
L 300.443822 72.59622 
L 302.31075 72.261307 
L 304.177679 71.71918 
L 306.044607 70.550161 
L 307.911536 69.532305 
L 309.778464 69.406279 
L 311.645393 66.589689 
L 313.512321 64.277422 
L 315.37925 63.980774 
L 319.113107 63.727514 
L 320.980036 62.566614 
L 322.846964 62.515354 
L 324.713893 61.762029 
L 328.44775 61.254715 
L 330.314678 61.172257 
L 334.048535 60.216073 
L 335.915464 60.126452 
L 339.649321 59.796703 
L 341.51625 59.276343 
L 343.383178 58.286553 
L 345.250107 56.309502 
L 347.117035 54.57971 
L 348.983964 54.570126 
L 350.850892 52.882923 
L 352.717821 52.715639 
L 354.584749 51.60996 
L 358.318606 51.312669 
L 363.919392 49.776925 
L 365.786321 49.495764 
L 367.653249 49.352457 
L 369.520178 48.770566 
L 373.254035 48.092673 
L 375.120963 47.733802 
L 376.987892 46.824648 
L 384.455606 46.587384 
L 386.322535 45.239941 
L 388.189463 44.824015 
L 390.056392 42.448572 
L 391.92332 41.94622 
L 393.790249 41.100949 
L 395.657177 40.488184 
L 397.524106 40.021512 
L 399.391034 39.768478 
L 401.257963 39.216109 
L 403.124892 38.875859 
L 404.99182 38.686395 
L 406.858749 37.319397 
L 408.725677 37.161495 
L 410.592606 36.889784 
L 412.459534 35.840924 
L 414.326463 34.401664 
L 416.193391 34.196433 
L 418.06032 33.113119 
L 419.927248 32.721166 
L 423.661105 32.658734 
L 425.528034 31.967007 
L 427.394963 31.493562 
L 429.261891 30.383484 
L 431.12882 30.152339 
L 432.995748 30.07361 
L 438.596534 28.301818 
L 535.676818 28.301818 
L 535.676818 28.301818 
" style="fill:none;stroke:#9467bd;stroke-linecap:square;"/>
   </g>
   <g id="legend_1">
    <g id="patch_3">
     <path d="M 308.891598 246.369 
L 550.1966 246.369 
Q 552.529 246.369 552.529 244.0366 
L 552.529 214.713959 
Q 552.529 212.381559 550.1966 212.381559 
L 308.891598 212.381559 
Q 306.559198 212.381559 306.559198 214.713959 
L 306.559198 244.0366 
Q 306.559198 246.369 308.891598 246.369 
z
" style="fill:#ffffff;opacity:0.8;stroke:#cccccc;stroke-linejoin:miter;"/>
    </g>
    <g id="line2d_19">
     <path d="M 311.223998 221.415964 
L 334.547998 221.415964 
" style="fill:none;stroke:#1f77b4;stroke-linecap:square;stroke-width:2;"/>
    </g>
    <g id="line2d_20"/>
    <g id="text_15">
     <!-- MARKET -->
     <defs>
      <path d="M 54.6875 0 
L 54.6875 45.90625 
Q 54.6875 48.390625 54.734375 50.96875 
Q 54.78125 53.5625 54.828125 55.71875 
Q 54.9375 58.203125 55.078125 60.546875 
Q 54.546875 58.0625 53.90625 55.609375 
Q 53.90625 55.609375 52.734375 51.171875 
Q 52.15625 48.78125 51.515625 46.875 
L 36.96875 0 
L 31.59375 0 
L 16.796875 46.875 
Q 16.546875 47.609375 16.3125 48.578125 
L 15.765625 50.6875 
L 15.140625 52.9375 
L 14.546875 55.171875 
Q 13.875 57.765625 13.234375 60.546875 
Q 13.28125 57.8125 13.375 55.125 
Q 13.484375 52.828125 13.5 50.3125 
Q 13.53125 47.796875 13.53125 45.90625 
L 13.53125 0 
L 6.734375 0 
L 6.734375 68.796875 
L 16.796875 68.796875 
L 31.78125 21.09375 
Q 32.078125 20.125 32.46875 18.578125 
Q 32.859375 17.046875 33.21875 15.421875 
Q 33.59375 13.8125 33.890625 12.375 
Q 34.1875 10.9375 34.328125 10.15625 
Q 34.421875 10.9375 34.734375 12.40625 
Q 35.0625 13.875 35.5 15.484375 
L 36.328125 18.609375 
Q 36.71875 20.125 37.0625 21.09375 
L 51.765625 68.796875 
L 61.578125 68.796875 
L 61.578125 0 
z
" id="LiberationSansNarrow-77"/>
      <path d="M 46.734375 0 
L 40.28125 20.125 
L 14.546875 20.125 
L 8.109375 0 
L 0.140625 0 
L 23.1875 68.796875 
L 31.890625 68.796875 
L 54.546875 0 
z
M 30.765625 50.09375 
Q 30.125 52.046875 29.546875 54.046875 
L 28.515625 57.71875 
L 27.734375 60.453125 
Q 27.4375 61.53125 27.4375 61.765625 
Q 27.34375 61.53125 27.078125 60.40625 
Q 26.8125 59.28125 26.375 57.625 
L 25.296875 53.953125 
L 24.125 50 
L 16.890625 27.390625 
L 37.984375 27.390625 
z
" id="LiberationSansNarrow-65"/>
      <path d="M 46.578125 0 
L 31.9375 28.5625 
L 14.359375 28.5625 
L 14.359375 0 
L 6.734375 0 
L 6.734375 68.796875 
L 33.25 68.796875 
Q 38.03125 68.796875 41.734375 67.453125 
Q 45.453125 66.109375 47.96875 63.5625 
Q 50.484375 61.03125 51.796875 57.375 
Q 53.125 53.71875 53.125 49.125 
Q 53.125 45.84375 52.34375 42.671875 
Q 51.5625 39.5 49.875 36.859375 
Q 48.1875 34.234375 45.59375 32.328125 
Q 43.015625 30.421875 39.359375 29.640625 
L 55.375 0 
z
M 45.453125 49.03125 
Q 45.453125 52.15625 44.578125 54.4375 
Q 43.703125 56.734375 42.015625 58.265625 
Q 40.328125 59.8125 37.9375 60.5625 
Q 35.546875 61.328125 32.46875 61.328125 
L 14.359375 61.328125 
L 14.359375 35.9375 
L 32.8125 35.9375 
Q 36.078125 35.9375 38.5 36.9375 
Q 40.921875 37.9375 42.453125 39.6875 
Q 44 41.453125 44.71875 43.84375 
Q 45.453125 46.234375 45.453125 49.03125 
z
" id="LiberationSansNarrow-82"/>
      <path d="M 44.28125 0 
L 21.734375 33.203125 
L 14.359375 26.375 
L 14.359375 0 
L 6.734375 0 
L 6.734375 68.796875 
L 14.359375 68.796875 
L 14.359375 34.328125 
L 41.546875 68.796875 
L 50.59375 68.796875 
L 26.5625 38.921875 
L 53.765625 0 
z
" id="LiberationSansNarrow-75"/>
      <path d="M 6.734375 0 
L 6.734375 68.796875 
L 49.515625 68.796875 
L 49.515625 61.1875 
L 14.359375 61.1875 
L 14.359375 39.109375 
L 47.125 39.109375 
L 47.125 31.59375 
L 14.359375 31.59375 
L 14.359375 7.625 
L 51.171875 7.625 
L 51.171875 0 
z
" id="LiberationSansNarrow-69"/>
      <path d="M 28.8125 61.1875 
L 28.8125 0 
L 21.234375 0 
L 21.234375 61.1875 
L 1.859375 61.1875 
L 1.859375 68.796875 
L 48.1875 68.796875 
L 48.1875 61.1875 
z
" id="LiberationSansNarrow-84"/>
     </defs>
     <g transform="translate(343.877598 225.497664)scale(0.11662 -0.11662)">
      <use xlink:href="#LiberationSansNarrow-77"/>
      <use x="68.310547" xlink:href="#LiberationSansNarrow-65"/>
      <use x="122.998047" xlink:href="#LiberationSansNarrow-82"/>
      <use x="182.177734" xlink:href="#LiberationSansNarrow-75"/>
      <use x="236.865234" xlink:href="#LiberationSansNarrow-69"/>
      <use x="291.552734" xlink:href="#LiberationSansNarrow-84"/>
     </g>
    </g>
    <g id="line2d_21">
     <path d="M 311.223998 235.202635 
L 334.547998 235.202635 
" style="fill:none;stroke:#ff7f0e;stroke-linecap:square;"/>
    </g>
    <g id="line2d_22"/>
    <g id="text_16">
     <!-- Hop -->
     <defs>
      <path d="M 44.875 0 
L 44.875 31.890625 
L 14.359375 31.890625 
L 14.359375 0 
L 6.734375 0 
L 6.734375 68.796875 
L 14.359375 68.796875 
L 14.359375 39.703125 
L 44.875 39.703125 
L 44.875 68.796875 
L 52.484375 68.796875 
L 52.484375 0 
z
" id="LiberationSansNarrow-72"/>
      <path d="M 42.140625 26.46875 
Q 42.140625 12.59375 37.125 5.796875 
Q 32.125 -0.984375 22.609375 -0.984375 
Q 18.0625 -0.984375 14.515625 0.671875 
Q 10.984375 2.34375 8.515625 5.765625 
Q 6.0625 9.1875 4.765625 14.328125 
Q 3.46875 19.484375 3.46875 26.46875 
Q 3.46875 53.8125 22.859375 53.8125 
Q 27.875 53.8125 31.5625 52.09375 
Q 35.25 50.390625 37.59375 46.96875 
Q 39.9375 43.5625 41.03125 38.421875 
Q 42.140625 33.296875 42.140625 26.46875 
z
M 34.578125 26.46875 
Q 34.578125 32.625 33.8125 36.625 
Q 33.0625 40.625 31.546875 43.015625 
Q 30.03125 45.40625 27.859375 46.359375 
Q 25.6875 47.3125 23 47.3125 
Q 20.21875 47.3125 17.984375 46.3125 
Q 15.765625 45.3125 14.203125 42.890625 
Q 12.640625 40.484375 11.828125 36.46875 
Q 11.03125 32.46875 11.03125 26.46875 
Q 11.03125 20.3125 11.90625 16.28125 
Q 12.796875 12.25 14.328125 9.859375 
Q 15.875 7.46875 17.96875 6.484375 
Q 20.0625 5.515625 22.5625 5.515625 
Q 25.34375 5.515625 27.5625 6.46875 
Q 29.78125 7.421875 31.34375 9.8125 
Q 32.90625 12.203125 33.734375 16.25 
Q 34.578125 20.3125 34.578125 26.46875 
z
" id="LiberationSansNarrow-111"/>
      <path d="M 42.140625 26.65625 
Q 42.140625 20.65625 41.359375 15.578125 
Q 40.578125 10.5 38.6875 6.828125 
Q 36.8125 3.171875 33.765625 1.09375 
Q 30.71875 -0.984375 26.21875 -0.984375 
Q 21.578125 -0.984375 18.078125 1.171875 
Q 14.59375 3.328125 12.796875 8.203125 
L 12.546875 8.203125 
Q 12.59375 8.109375 12.609375 7.328125 
Q 12.640625 6.546875 12.671875 5.375 
Q 12.703125 4.203125 12.71875 2.75 
Q 12.75 1.3125 12.75 -0.09375 
L 12.75 -20.75 
L 5.515625 -20.75 
L 5.515625 42.046875 
Q 5.515625 43.953125 5.484375 45.703125 
Q 5.46875 47.46875 5.4375 48.90625 
Q 5.421875 50.34375 5.375 51.359375 
Q 5.328125 52.390625 5.28125 52.828125 
L 12.25 52.828125 
Q 12.3125 52.6875 12.359375 51.8125 
L 12.5 49.703125 
Q 12.546875 48.4375 12.59375 47.015625 
Q 12.640625 45.609375 12.640625 44.34375 
L 12.796875 44.34375 
Q 13.765625 46.875 15.0625 48.65625 
Q 16.359375 50.4375 18.015625 51.578125 
Q 19.671875 52.734375 21.671875 53.25 
Q 23.6875 53.765625 26.21875 53.765625 
Q 30.71875 53.765625 33.765625 51.8125 
Q 36.8125 49.859375 38.6875 46.3125 
Q 40.578125 42.78125 41.359375 37.765625 
Q 42.140625 32.765625 42.140625 26.65625 
z
M 34.578125 26.46875 
Q 34.578125 31.34375 34.109375 35.15625 
Q 33.640625 38.96875 32.4375 41.59375 
Q 31.25 44.234375 29.296875 45.59375 
Q 27.34375 46.96875 24.359375 46.96875 
Q 21.96875 46.96875 19.84375 46.140625 
Q 17.71875 45.3125 16.125 42.96875 
Q 14.546875 40.625 13.640625 36.5 
Q 12.75 32.375 12.75 25.78125 
Q 12.75 20.171875 13.5 16.28125 
Q 14.265625 12.40625 15.71875 10.015625 
Q 17.1875 7.625 19.328125 6.5625 
Q 21.484375 5.515625 24.3125 5.515625 
Q 27.34375 5.515625 29.296875 6.921875 
Q 31.25 8.34375 32.4375 11.03125 
Q 33.640625 13.71875 34.109375 17.59375 
Q 34.578125 21.484375 34.578125 26.46875 
z
" id="LiberationSansNarrow-112"/>
     </defs>
     <g transform="translate(343.877598 239.284335)scale(0.11662 -0.11662)">
      <use xlink:href="#LiberationSansNarrow-72"/>
      <use x="59.179688" xlink:href="#LiberationSansNarrow-111"/>
      <use x="104.785156" xlink:href="#LiberationSansNarrow-112"/>
     </g>
    </g>
    <g id="line2d_23">
     <path d="M 395.38355 221.415964 
L 418.70755 221.415964 
" style="fill:none;stroke:#2ca02c;stroke-linecap:square;"/>
    </g>
    <g id="line2d_24"/>
    <g id="text_17">
     <!-- Lpe -->
     <defs>
      <path d="M 6.734375 0 
L 6.734375 68.796875 
L 14.359375 68.796875 
L 14.359375 7.625 
L 42.875 7.625 
L 42.875 0 
z
" id="LiberationSansNarrow-76"/>
      <path d="M 10.6875 24.5625 
Q 10.6875 20.40625 11.5625 16.90625 
Q 12.453125 13.421875 13.90625 10.90625 
Q 15.375 8.40625 17.640625 7 
Q 19.921875 5.609375 23.140625 5.609375 
Q 27.828125 5.609375 30.65625 7.90625 
Q 33.5 10.203125 34.46875 13.71875 
L 40.828125 11.53125 
Q 40.140625 9.328125 38.921875 7.109375 
Q 37.703125 4.890625 35.640625 3.09375 
Q 33.59375 1.3125 30.53125 0.15625 
Q 27.484375 -0.984375 23.140625 -0.984375 
Q 13.53125 -0.984375 8.5 6 
Q 3.46875 12.984375 3.46875 26.765625 
Q 3.46875 34.1875 5 39.328125 
Q 6.546875 44.484375 9.171875 47.703125 
Q 11.8125 50.921875 15.328125 52.359375 
Q 18.84375 53.8125 22.859375 53.8125 
Q 28.328125 53.8125 31.984375 51.65625 
Q 39.0625 47.515625 41.015625 36.8125 
Q 41.9375 31.6875 41.9375 25.734375 
L 41.9375 24.5625 
z
M 34.71875 31.296875 
Q 34.71875 40.140625 31.421875 43.71875 
Q 28.125 47.3125 22.75 47.3125 
Q 18.953125 47.3125 15.328125 44.09375 
Q 10.9375 40.328125 10.6875 31.296875 
z
" id="LiberationSansNarrow-101"/>
     </defs>
     <g transform="translate(428.03715 225.497664)scale(0.11662 -0.11662)">
      <use xlink:href="#LiberationSansNarrow-76"/>
      <use x="45.605469" xlink:href="#LiberationSansNarrow-112"/>
      <use x="91.210938" xlink:href="#LiberationSansNarrow-101"/>
     </g>
    </g>
    <g id="line2d_25">
     <path d="M 395.38355 235.202635 
L 418.70755 235.202635 
" style="fill:none;stroke:#d62728;stroke-linecap:square;"/>
    </g>
    <g id="line2d_26"/>
    <g id="text_18">
     <!-- Lcap Lpe -->
     <defs>
      <path d="M 11.03125 26.65625 
Q 11.03125 22.125 11.5625 18.3125 
Q 12.109375 14.5 13.375 11.734375 
Q 14.65625 8.984375 16.75 7.46875 
Q 18.84375 5.953125 21.96875 5.953125 
Q 25.828125 5.953125 28.390625 8.484375 
Q 30.953125 11.03125 31.546875 16.3125 
L 38.875 15.71875 
Q 38.53125 12.453125 37.296875 9.421875 
Q 36.078125 6.390625 34.03125 4.09375 
Q 31.984375 1.8125 29 0.40625 
Q 26.03125 -0.984375 22.171875 -0.984375 
Q 17.09375 -0.984375 13.5 1.109375 
Q 9.90625 3.21875 7.6875 6.90625 
Q 5.46875 10.59375 4.46875 15.59375 
Q 3.46875 20.609375 3.46875 26.46875 
Q 3.46875 31.78125 4.203125 35.859375 
Q 4.9375 39.9375 6.21875 42.984375 
Q 7.515625 46.046875 9.265625 48.125 
Q 11.03125 50.203125 13.109375 51.4375 
Q 15.1875 52.6875 17.453125 53.25 
Q 19.734375 53.8125 22.078125 53.8125 
Q 25.734375 53.8125 28.5625 52.59375 
Q 31.390625 51.375 33.46875 49.25 
Q 35.546875 47.125 36.8125 44.234375 
Q 38.09375 41.359375 38.625 38.03125 
L 31.203125 37.359375 
Q 30.671875 41.75 28.375 44.328125 
Q 26.078125 46.921875 21.875 46.921875 
Q 18.796875 46.921875 16.71875 45.671875 
Q 14.65625 44.4375 13.375 41.921875 
Q 12.109375 39.40625 11.5625 35.59375 
Q 11.03125 31.78125 11.03125 26.65625 
z
" id="LiberationSansNarrow-99"/>
      <path d="M 16.546875 -0.984375 
Q 10.015625 -0.984375 6.734375 3.21875 
Q 3.46875 7.421875 3.46875 14.75 
Q 3.46875 19.96875 5.09375 23.3125 
Q 6.734375 26.65625 9.34375 28.5625 
Q 11.96875 30.46875 15.328125 31.203125 
Q 18.703125 31.9375 22.171875 32.03125 
L 31.9375 32.234375 
L 31.9375 35.109375 
Q 31.9375 38.375 31.375 40.671875 
Q 30.8125 42.96875 29.640625 44.375 
Q 28.46875 45.796875 26.734375 46.453125 
Q 25 47.125 22.609375 47.125 
Q 20.515625 47.125 18.84375 46.75 
Q 17.1875 46.390625 15.9375 45.4375 
Q 14.703125 44.484375 13.9375 42.84375 
Q 13.1875 41.21875 12.9375 38.71875 
L 5.421875 39.546875 
Q 5.8125 42.671875 6.9375 45.28125 
Q 8.0625 47.90625 10.109375 49.796875 
Q 12.15625 51.703125 15.25 52.75 
Q 18.359375 53.8125 22.796875 53.8125 
Q 30.953125 53.8125 35.078125 49.234375 
Q 39.203125 44.671875 39.203125 36.03125 
L 39.203125 13.28125 
Q 39.203125 9.375 40.03125 7.390625 
Q 40.875 5.421875 43.265625 5.421875 
Q 43.84375 5.421875 44.453125 5.515625 
Q 45.0625 5.609375 45.609375 5.765625 
L 45.609375 0.296875 
Q 44.234375 -0.09375 42.890625 -0.28125 
Q 41.546875 -0.484375 40.046875 -0.484375 
Q 37.984375 -0.484375 36.515625 0.171875 
Q 35.0625 0.828125 34.15625 2.171875 
Q 33.25 3.515625 32.765625 5.484375 
Q 32.28125 7.46875 32.125 10.109375 
L 31.9375 10.109375 
Q 30.765625 7.5625 29.375 5.515625 
Q 27.984375 3.46875 26.140625 2.03125 
Q 24.3125 0.59375 21.9375 -0.1875 
Q 19.578125 -0.984375 16.546875 -0.984375 
z
M 18.21875 5.609375 
Q 21.6875 5.609375 24.25 7.140625 
Q 26.8125 8.6875 28.515625 11.078125 
Q 30.21875 13.484375 31.078125 16.3125 
Q 31.9375 19.140625 31.9375 21.734375 
L 31.9375 26.078125 
L 24.03125 25.875 
Q 21.390625 25.828125 19 25.40625 
Q 16.609375 25 14.8125 23.78125 
Q 13.03125 22.5625 11.953125 20.359375 
Q 10.890625 18.171875 10.890625 14.59375 
Q 10.890625 10.296875 12.796875 7.953125 
Q 14.703125 5.609375 18.21875 5.609375 
z
" id="LiberationSansNarrow-97"/>
     </defs>
     <g transform="translate(428.03715 239.284335)scale(0.11662 -0.11662)">
      <use xlink:href="#LiberationSansNarrow-76"/>
      <use x="45.605469" xlink:href="#LiberationSansNarrow-99"/>
      <use x="86.621094" xlink:href="#LiberationSansNarrow-97"/>
      <use x="132.226562" xlink:href="#LiberationSansNarrow-112"/>
      <use x="177.832031" xlink:href="#LiberationSansNarrow-32"/>
      <use x="200.634766" xlink:href="#LiberationSansNarrow-76"/>
      <use x="246.240234" xlink:href="#LiberationSansNarrow-112"/>
      <use x="291.845703" xlink:href="#LiberationSansNarrow-101"/>
     </g>
    </g>
    <g id="line2d_27">
     <path d="M 479.054756 221.415964 
L 502.378756 221.415964 
" style="fill:none;stroke:#9467bd;stroke-linecap:square;"/>
    </g>
    <g id="line2d_28"/>
    <g id="text_19">
     <!-- Lpb Hop -->
     <defs>
      <path d="M 42.140625 26.65625 
Q 42.140625 -0.984375 26.21875 -0.984375 
Q 21.296875 -0.984375 18.046875 1.1875 
Q 14.796875 3.375 12.75 8.203125 
L 12.640625 8.203125 
Q 12.640625 6.9375 12.59375 5.5625 
Q 12.546875 4.203125 12.5 3.03125 
L 12.359375 1.03125 
Q 12.3125 0.203125 12.25 0 
L 5.28125 0 
Q 5.328125 0.4375 5.375 1.484375 
Q 5.421875 2.546875 5.4375 4 
Q 5.46875 5.46875 5.484375 7.21875 
Q 5.515625 8.984375 5.515625 10.890625 
L 5.515625 72.46875 
L 12.75 72.46875 
L 12.75 51.8125 
Q 12.75 50.34375 12.71875 49 
Q 12.703125 47.65625 12.640625 46.625 
Q 12.59375 45.40625 12.546875 44.34375 
L 12.75 44.34375 
Q 14.75 49.421875 18.046875 51.609375 
Q 21.34375 53.8125 26.21875 53.8125 
Q 34.421875 53.8125 38.28125 47.0625 
Q 42.140625 40.328125 42.140625 26.65625 
z
M 34.578125 26.375 
Q 34.578125 31.84375 34.03125 35.75 
Q 33.5 39.65625 32.25 42.15625 
Q 31 44.671875 29.078125 45.84375 
Q 27.15625 47.015625 24.359375 47.015625 
Q 21.53125 47.015625 19.359375 45.890625 
Q 17.1875 44.78125 15.71875 42.28125 
Q 14.265625 39.796875 13.5 35.734375 
Q 12.75 31.6875 12.75 25.828125 
Q 12.75 20.171875 13.5 16.3125 
Q 14.265625 12.453125 15.71875 10.03125 
Q 17.1875 7.625 19.328125 6.5625 
Q 21.484375 5.515625 24.3125 5.515625 
Q 26.953125 5.515625 28.875 6.640625 
Q 30.8125 7.765625 32.078125 10.25 
Q 33.34375 12.75 33.953125 16.71875 
Q 34.578125 20.703125 34.578125 26.375 
z
" id="LiberationSansNarrow-98"/>
     </defs>
     <g transform="translate(511.708356 225.497664)scale(0.11662 -0.11662)">
      <use xlink:href="#LiberationSansNarrow-76"/>
      <use x="45.605469" xlink:href="#LiberationSansNarrow-112"/>
      <use x="91.210938" xlink:href="#LiberationSansNarrow-98"/>
      <use x="136.816406" xlink:href="#LiberationSansNarrow-32"/>
      <use x="159.619141" xlink:href="#LiberationSansNarrow-72"/>
      <use x="218.798828" xlink:href="#LiberationSansNarrow-111"/>
      <use x="264.404297" xlink:href="#LiberationSansNarrow-112"/>
     </g>
    </g>
   </g>
  </g>
 </g>
 <defs>
  <clipPath id="p44cc3322c3">
   <rect height="234.56" width="499.03" x="59.33" y="17.64"/>
  </clipPath>
 </defs>
</svg>
