<?xml version="1.0" encoding="utf-8" standalone="no"?>
<!DOCTYPE svg PUBLIC "-//W3C//DTD SVG 1.1//EN"
  "http://www.w3.org/Graphics/SVG/1.1/DTD/svg11.dtd">
<!-- Created with matplotlib (https://matplotlib.org/) -->
<svg height="288pt" version="1.1" viewBox="0 0 576 288" width="576pt" xmlns="http://www.w3.org/2000/svg" xmlns:xlink="http://www.w3.org/1999/xlink">
 <defs>
  <style type="text/css">
*{stroke-linecap:butt;stroke-linejoin:round;}
  </style>
 </defs>
 <g id="figure_1">
  <g id="patch_1">
   <path d="M 0 288 
L 576 288 
L 576 0 
L 0 0 
z
" style="fill:#ffffff;"/>
  </g>
  <g id="axes_1">
   <g id="patch_2">
    <path d="M 59.33 252.2 
L 558.36 252.2 
L 558.36 17.64 
L 59.33 17.64 
z
" style="fill:#ffffff;"/>
   </g>
   <g id="matplotlib.axis_1">
    <g id="xtick_1">
     <g id="line2d_1">
      <path clip-path="url(#p08cbef0d5a)" d="M 82.013182 252.2 
L 82.013182 17.64 
" style="fill:none;stroke:#b0b0b0;stroke-dasharray:1.48,0.64;stroke-dashoffset:0;stroke-width:0.4;"/>
     </g>
     <g id="text_1">
      <!-- 0.0 -->
      <defs>
       <path d="M 42.390625 34.421875 
Q 42.390625 24.515625 40.84375 17.75 
Q 39.3125 10.984375 36.640625 6.8125 
Q 33.984375 2.640625 30.390625 0.828125 
Q 26.8125 -0.984375 22.703125 -0.984375 
Q 18.609375 -0.984375 15.03125 0.828125 
Q 11.46875 2.640625 8.828125 6.78125 
Q 6.203125 10.9375 4.703125 17.703125 
Q 3.21875 24.46875 3.21875 34.421875 
Q 3.21875 44.828125 4.703125 51.640625 
Q 6.203125 58.453125 8.828125 62.5 
Q 11.46875 66.546875 15.078125 68.1875 
Q 18.703125 69.828125 22.953125 69.828125 
Q 27 69.828125 30.53125 68.1875 
Q 34.078125 66.546875 36.71875 62.5 
Q 39.359375 58.453125 40.875 51.640625 
Q 42.390625 44.828125 42.390625 34.421875 
z
M 35.0625 34.421875 
Q 35.0625 42.625 34.28125 48.0625 
Q 33.5 53.515625 31.9375 56.765625 
Q 30.375 60.015625 28.09375 61.359375 
Q 25.828125 62.703125 22.953125 62.703125 
Q 19.921875 62.703125 17.578125 61.328125 
Q 15.234375 59.96875 13.671875 56.71875 
Q 12.109375 53.46875 11.296875 48.015625 
Q 10.5 42.578125 10.5 34.421875 
Q 10.5 26.515625 11.296875 21.09375 
Q 12.109375 15.671875 13.6875 12.375 
Q 15.28125 9.078125 17.578125 7.640625 
Q 19.875 6.203125 22.796875 6.203125 
Q 25.640625 6.203125 27.90625 7.640625 
Q 30.171875 9.078125 31.75 12.375 
Q 33.34375 15.671875 34.203125 21.09375 
Q 35.0625 26.515625 35.0625 34.421875 
z
" id="LiberationSansNarrow-48"/>
       <path d="M 7.46875 0 
L 7.46875 10.6875 
L 15.328125 10.6875 
L 15.328125 0 
z
" id="LiberationSansNarrow-46"/>
      </defs>
      <g transform="translate(74.032088 269.345625)scale(0.14 -0.14)">
       <use xlink:href="#LiberationSansNarrow-48"/>
       <use x="45.605469" xlink:href="#LiberationSansNarrow-46"/>
       <use x="68.408203" xlink:href="#LiberationSansNarrow-48"/>
      </g>
     </g>
    </g>
    <g id="xtick_2">
     <g id="line2d_2">
      <path clip-path="url(#p08cbef0d5a)" d="M 172.745909 252.2 
L 172.745909 17.64 
" style="fill:none;stroke:#b0b0b0;stroke-dasharray:1.48,0.64;stroke-dashoffset:0;stroke-width:0.4;"/>
     </g>
     <g id="text_2">
      <!-- 0.2 -->
      <defs>
       <path d="M 4.109375 0 
L 4.109375 6.203125 
Q 6.15625 11.921875 9.109375 16.28125 
Q 12.0625 20.65625 15.3125 24.1875 
Q 18.5625 27.734375 21.734375 30.765625 
Q 24.90625 33.796875 27.46875 36.8125 
Q 30.03125 39.84375 31.609375 43.15625 
Q 33.203125 46.484375 33.203125 50.6875 
Q 33.203125 53.609375 32.46875 55.828125 
Q 31.734375 58.0625 30.390625 59.5625 
Q 29.046875 61.078125 27.140625 61.828125 
Q 25.25 62.59375 22.90625 62.59375 
Q 20.75 62.59375 18.84375 61.859375 
Q 16.9375 61.140625 15.453125 59.671875 
Q 13.96875 58.203125 13.03125 56.03125 
Q 12.109375 53.859375 11.8125 50.984375 
L 4.4375 51.8125 
Q 4.78125 55.515625 6.125 58.78125 
Q 7.46875 62.0625 9.78125 64.53125 
Q 12.109375 67 15.359375 68.40625 
Q 18.609375 69.828125 22.90625 69.828125 
Q 27.09375 69.828125 30.390625 68.609375 
Q 33.6875 67.390625 35.9375 64.984375 
Q 38.1875 62.59375 39.40625 59.078125 
Q 40.625 55.5625 40.625 50.984375 
Q 40.625 47.515625 39.59375 44.390625 
Q 38.578125 41.265625 36.859375 38.421875 
Q 35.15625 35.59375 32.90625 32.953125 
Q 30.671875 30.328125 28.21875 27.828125 
L 23.296875 22.859375 
Q 20.796875 20.359375 18.625 17.859375 
Q 16.453125 15.375 14.734375 12.8125 
Q 13.03125 10.25 12.0625 7.46875 
L 41.5 7.46875 
L 41.5 0 
z
" id="LiberationSansNarrow-50"/>
      </defs>
      <g transform="translate(164.764815 269.345625)scale(0.14 -0.14)">
       <use xlink:href="#LiberationSansNarrow-48"/>
       <use x="45.605469" xlink:href="#LiberationSansNarrow-46"/>
       <use x="68.408203" xlink:href="#LiberationSansNarrow-50"/>
      </g>
     </g>
    </g>
    <g id="xtick_3">
     <g id="line2d_3">
      <path clip-path="url(#p08cbef0d5a)" d="M 263.478636 252.2 
L 263.478636 17.64 
" style="fill:none;stroke:#b0b0b0;stroke-dasharray:1.48,0.64;stroke-dashoffset:0;stroke-width:0.4;"/>
     </g>
     <g id="text_3">
      <!-- 0.4 -->
      <defs>
       <path d="M 35.25 15.578125 
L 35.25 0 
L 28.46875 0 
L 28.46875 15.578125 
L 1.90625 15.578125 
L 1.90625 22.40625 
L 27.6875 68.796875 
L 35.25 68.796875 
L 35.25 22.515625 
L 43.21875 22.515625 
L 43.21875 15.578125 
z
M 28.46875 58.890625 
Q 28.375 58.640625 28.03125 57.90625 
L 27.34375 56.34375 
L 26.5625 54.59375 
Q 26.125 53.65625 25.78125 53.078125 
L 11.328125 27.09375 
Q 11.140625 26.703125 10.75 26.078125 
L 9.96875 24.8125 
L 9.1875 23.484375 
Q 8.796875 22.859375 8.546875 22.515625 
L 28.46875 22.515625 
z
" id="LiberationSansNarrow-52"/>
      </defs>
      <g transform="translate(255.497543 269.345625)scale(0.14 -0.14)">
       <use xlink:href="#LiberationSansNarrow-48"/>
       <use x="45.605469" xlink:href="#LiberationSansNarrow-46"/>
       <use x="68.408203" xlink:href="#LiberationSansNarrow-52"/>
      </g>
     </g>
    </g>
    <g id="xtick_4">
     <g id="line2d_4">
      <path clip-path="url(#p08cbef0d5a)" d="M 354.211364 252.2 
L 354.211364 17.64 
" style="fill:none;stroke:#b0b0b0;stroke-dasharray:1.48,0.64;stroke-dashoffset:0;stroke-width:0.4;"/>
     </g>
     <g id="text_4">
      <!-- 0.6 -->
      <defs>
       <path d="M 42 22.515625 
Q 42 17.328125 40.828125 13 
Q 39.65625 8.6875 37.359375 5.578125 
Q 35.0625 2.484375 31.640625 0.75 
Q 28.21875 -0.984375 23.78125 -0.984375 
Q 18.84375 -0.984375 15.15625 1.3125 
Q 11.46875 3.609375 9.03125 7.921875 
Q 6.59375 12.25 5.375 18.53125 
Q 4.15625 24.8125 4.15625 32.8125 
Q 4.15625 42 5.546875 48.921875 
Q 6.9375 55.859375 9.515625 60.5 
Q 12.109375 65.140625 15.859375 67.484375 
Q 19.625 69.828125 24.359375 69.828125 
Q 27.25 69.828125 29.765625 69.09375 
Q 32.28125 68.359375 34.328125 66.71875 
Q 36.375 65.09375 37.9375 62.40625 
Q 39.5 59.71875 40.4375 55.8125 
L 33.546875 54.296875 
Q 32.421875 58.734375 29.953125 60.71875 
Q 27.484375 62.703125 24.265625 62.703125 
Q 21.296875 62.703125 18.890625 60.984375 
Q 16.5 59.28125 14.8125 55.875 
Q 13.140625 52.484375 12.234375 47.359375 
Q 11.328125 42.234375 11.328125 35.40625 
Q 13.28125 39.84375 16.84375 42.15625 
Q 20.40625 44.484375 25.046875 44.484375 
Q 28.90625 44.484375 32 42.96875 
Q 35.109375 41.453125 37.328125 38.59375 
Q 39.546875 35.75 40.765625 31.671875 
Q 42 27.59375 42 22.515625 
z
M 34.671875 22.125 
Q 34.671875 25.6875 33.953125 28.5625 
Q 33.25 31.453125 31.8125 33.46875 
Q 30.375 35.5 28.25 36.59375 
Q 26.125 37.703125 23.296875 37.703125 
Q 21.34375 37.703125 19.328125 36.984375 
Q 17.328125 36.28125 15.71875 34.6875 
Q 14.109375 33.109375 13.078125 30.515625 
Q 12.0625 27.9375 12.0625 24.21875 
Q 12.0625 20.40625 12.859375 17.109375 
Q 13.671875 13.8125 15.15625 11.375 
Q 16.65625 8.9375 18.78125 7.515625 
Q 20.90625 6.109375 23.53125 6.109375 
Q 26.125 6.109375 28.203125 7.203125 
Q 30.28125 8.296875 31.71875 10.375 
Q 33.15625 12.453125 33.90625 15.421875 
Q 34.671875 18.40625 34.671875 22.125 
z
" id="LiberationSansNarrow-54"/>
      </defs>
      <g transform="translate(346.23027 269.345625)scale(0.14 -0.14)">
       <use xlink:href="#LiberationSansNarrow-48"/>
       <use x="45.605469" xlink:href="#LiberationSansNarrow-46"/>
       <use x="68.408203" xlink:href="#LiberationSansNarrow-54"/>
      </g>
     </g>
    </g>
    <g id="xtick_5">
     <g id="line2d_5">
      <path clip-path="url(#p08cbef0d5a)" d="M 444.944091 252.2 
L 444.944091 17.64 
" style="fill:none;stroke:#b0b0b0;stroke-dasharray:1.48,0.64;stroke-dashoffset:0;stroke-width:0.4;"/>
     </g>
     <g id="text_5">
      <!-- 0.8 -->
      <defs>
       <path d="M 42.046875 19.1875 
Q 42.046875 14.796875 40.890625 11.109375 
Q 39.75 7.421875 37.40625 4.734375 
Q 35.0625 2.046875 31.421875 0.53125 
Q 27.78125 -0.984375 22.796875 -0.984375 
Q 17.828125 -0.984375 14.203125 0.53125 
Q 10.59375 2.046875 8.21875 4.703125 
Q 5.859375 7.375 4.703125 11.0625 
Q 3.5625 14.75 3.5625 19.09375 
Q 3.5625 22.859375 4.515625 25.78125 
Q 5.46875 28.71875 7.03125 30.828125 
Q 8.59375 32.953125 10.609375 34.25 
Q 12.640625 35.546875 14.796875 35.984375 
L 14.796875 36.1875 
Q 12.453125 36.859375 10.59375 38.375 
Q 8.734375 39.890625 7.46875 42.015625 
Q 6.203125 44.140625 5.546875 46.71875 
Q 4.890625 49.3125 4.890625 52.203125 
Q 4.890625 55.8125 6.03125 59 
Q 7.171875 62.203125 9.421875 64.625 
Q 11.671875 67.046875 14.984375 68.4375 
Q 18.3125 69.828125 22.65625 69.828125 
Q 27.25 69.828125 30.640625 68.40625 
Q 34.03125 67 36.25 64.578125 
Q 38.484375 62.15625 39.546875 58.9375 
Q 40.625 55.71875 40.625 52.09375 
Q 40.625 49.265625 39.96875 46.671875 
Q 39.3125 44.09375 38.0625 41.96875 
Q 36.8125 39.84375 34.9375 38.34375 
Q 33.0625 36.859375 30.609375 36.28125 
L 30.609375 36.078125 
Q 33.0625 35.59375 35.15625 34.296875 
Q 37.25 33.015625 38.765625 30.890625 
Q 40.28125 28.765625 41.15625 25.828125 
Q 42.046875 22.90625 42.046875 19.1875 
z
M 33.15625 51.609375 
Q 33.15625 54.203125 32.609375 56.34375 
Q 32.078125 58.5 30.828125 60.03125 
Q 29.59375 61.578125 27.59375 62.421875 
Q 25.59375 63.28125 22.65625 63.28125 
Q 19.828125 63.28125 17.875 62.421875 
Q 15.921875 61.578125 14.640625 60.03125 
Q 13.375 58.5 12.8125 56.34375 
Q 12.25 54.203125 12.25 51.609375 
Q 12.25 49.5625 12.6875 47.40625 
Q 13.140625 45.265625 14.3125 43.5 
Q 15.484375 41.75 17.5 40.625 
Q 19.53125 39.5 22.75 39.5 
Q 26.171875 39.5 28.21875 40.625 
Q 30.28125 41.75 31.375 43.5 
Q 32.46875 45.265625 32.8125 47.40625 
Q 33.15625 49.5625 33.15625 51.609375 
z
M 34.578125 20.015625 
Q 34.578125 22.515625 34.015625 24.828125 
Q 33.453125 27.15625 32.078125 28.9375 
Q 30.71875 30.71875 28.421875 31.8125 
Q 26.125 32.90625 22.65625 32.90625 
Q 19.484375 32.90625 17.265625 31.8125 
Q 15.046875 30.71875 13.671875 28.90625 
Q 12.3125 27.09375 11.671875 24.71875 
Q 11.03125 22.359375 11.03125 19.828125 
Q 11.03125 16.65625 11.671875 14.03125 
Q 12.3125 11.421875 13.703125 9.546875 
Q 15.09375 7.671875 17.375 6.640625 
Q 19.671875 5.609375 22.90625 5.609375 
Q 26.171875 5.609375 28.421875 6.640625 
Q 30.671875 7.671875 32.03125 9.546875 
Q 33.40625 11.421875 33.984375 14.078125 
Q 34.578125 16.75 34.578125 20.015625 
z
" id="LiberationSansNarrow-56"/>
      </defs>
      <g transform="translate(436.962997 269.345625)scale(0.14 -0.14)">
       <use xlink:href="#LiberationSansNarrow-48"/>
       <use x="45.605469" xlink:href="#LiberationSansNarrow-46"/>
       <use x="68.408203" xlink:href="#LiberationSansNarrow-56"/>
      </g>
     </g>
    </g>
    <g id="xtick_6">
     <g id="line2d_6">
      <path clip-path="url(#p08cbef0d5a)" d="M 535.676818 252.2 
L 535.676818 17.64 
" style="fill:none;stroke:#b0b0b0;stroke-dasharray:1.48,0.64;stroke-dashoffset:0;stroke-width:0.4;"/>
     </g>
     <g id="text_6">
      <!-- 1.0 -->
      <defs>
       <path d="M 6.25 0 
L 6.25 7.46875 
L 20.609375 7.46875 
L 20.609375 60.40625 
L 7.90625 49.3125 
L 7.90625 57.625 
L 21.234375 68.796875 
L 27.875 68.796875 
L 27.875 7.46875 
L 41.609375 7.46875 
L 41.609375 0 
z
" id="LiberationSansNarrow-49"/>
      </defs>
      <g transform="translate(527.695724 269.345625)scale(0.14 -0.14)">
       <use xlink:href="#LiberationSansNarrow-49"/>
       <use x="45.605469" xlink:href="#LiberationSansNarrow-46"/>
       <use x="68.408203" xlink:href="#LiberationSansNarrow-48"/>
      </g>
     </g>
    </g>
   </g>
   <g id="matplotlib.axis_2">
    <g id="ytick_1">
     <g id="line2d_7">
      <path clip-path="url(#p08cbef0d5a)" d="M 59.33 230.204463 
L 558.36 230.204463 
" style="fill:none;stroke:#b0b0b0;stroke-dasharray:1.48,0.64;stroke-dashoffset:0;stroke-width:0.4;"/>
     </g>
     <g id="text_7">
      <!-- −50 -->
      <defs>
       <path d="M 4.046875 29.6875 
L 4.046875 36.8125 
L 43.890625 36.8125 
L 43.890625 29.6875 
z
" id="LiberationSansNarrow-8722"/>
       <path d="M 42.140625 22.40625 
Q 42.140625 17.234375 40.859375 12.9375 
Q 39.59375 8.640625 37.078125 5.53125 
Q 34.578125 2.4375 30.8125 0.71875 
Q 27.046875 -0.984375 22.125 -0.984375 
Q 17.671875 -0.984375 14.375 0.28125 
Q 11.078125 1.5625 8.8125 3.78125 
Q 6.546875 6 5.203125 8.984375 
Q 3.859375 11.96875 3.265625 15.375 
L 10.546875 16.40625 
Q 10.984375 14.453125 11.78125 12.625 
Q 12.59375 10.796875 13.984375 9.34375 
Q 15.375 7.90625 17.40625 7.046875 
Q 19.4375 6.203125 22.3125 6.203125 
Q 25.09375 6.203125 27.390625 7.25 
Q 29.6875 8.296875 31.296875 10.34375 
Q 32.90625 12.40625 33.78125 15.375 
Q 34.671875 18.359375 34.671875 22.21875 
Q 34.671875 25.390625 33.84375 28.046875 
Q 33.015625 30.71875 31.453125 32.640625 
Q 29.890625 34.578125 27.609375 35.640625 
Q 25.34375 36.71875 22.46875 36.71875 
Q 20.65625 36.71875 19.140625 36.328125 
Q 17.625 35.9375 16.328125 35.25 
Q 15.046875 34.578125 13.96875 33.671875 
Q 12.890625 32.765625 11.96875 31.78125 
L 4.9375 31.78125 
L 6.78125 68.796875 
L 38.875 68.796875 
L 38.875 61.328125 
L 13.375 61.328125 
L 12.3125 39.5 
Q 14.203125 41.3125 17.078125 42.59375 
Q 19.96875 43.890625 23.921875 43.890625 
Q 28.125 43.890625 31.484375 42.328125 
Q 34.859375 40.765625 37.21875 37.90625 
Q 39.59375 35.0625 40.859375 31.109375 
Q 42.140625 27.15625 42.140625 22.40625 
z
" id="LiberationSansNarrow-53"/>
      </defs>
      <g transform="translate(32.8525 235.277275)scale(0.14 -0.14)">
       <use xlink:href="#LiberationSansNarrow-8722"/>
       <use x="47.900391" xlink:href="#LiberationSansNarrow-53"/>
       <use x="93.505859" xlink:href="#LiberationSansNarrow-48"/>
      </g>
     </g>
    </g>
    <g id="ytick_2">
     <g id="line2d_8">
      <path clip-path="url(#p08cbef0d5a)" d="M 59.33 189.823934 
L 558.36 189.823934 
" style="fill:none;stroke:#b0b0b0;stroke-dasharray:1.48,0.64;stroke-dashoffset:0;stroke-width:0.4;"/>
     </g>
     <g id="text_8">
      <!-- −40 -->
      <g transform="translate(32.8525 194.896746)scale(0.14 -0.14)">
       <use xlink:href="#LiberationSansNarrow-8722"/>
       <use x="47.900391" xlink:href="#LiberationSansNarrow-52"/>
       <use x="93.505859" xlink:href="#LiberationSansNarrow-48"/>
      </g>
     </g>
    </g>
    <g id="ytick_3">
     <g id="line2d_9">
      <path clip-path="url(#p08cbef0d5a)" d="M 59.33 149.443405 
L 558.36 149.443405 
" style="fill:none;stroke:#b0b0b0;stroke-dasharray:1.48,0.64;stroke-dashoffset:0;stroke-width:0.4;"/>
     </g>
     <g id="text_9">
      <!-- −30 -->
      <defs>
       <path d="M 42 19 
Q 42 14.265625 40.75 10.546875 
Q 39.5 6.84375 37.0625 4.265625 
Q 34.625 1.703125 31.046875 0.359375 
Q 27.484375 -0.984375 22.859375 -0.984375 
Q 17.625 -0.984375 14.03125 0.609375 
Q 10.453125 2.203125 8.125 4.8125 
Q 5.8125 7.421875 4.640625 10.765625 
Q 3.46875 14.109375 3.125 17.671875 
L 10.546875 18.5 
Q 10.890625 15.765625 11.734375 13.515625 
Q 12.59375 11.28125 14.078125 9.671875 
Q 15.578125 8.0625 17.75 7.171875 
Q 19.921875 6.296875 22.859375 6.296875 
Q 28.328125 6.296875 31.421875 9.5625 
Q 34.515625 12.84375 34.515625 19.28125 
Q 34.515625 23.09375 33.125 25.40625 
Q 31.734375 27.734375 29.6875 29.03125 
Q 27.640625 30.328125 25.21875 30.765625 
Q 22.796875 31.203125 20.75 31.203125 
L 16.65625 31.203125 
L 16.65625 38.8125 
L 20.5625 38.8125 
Q 22.609375 38.8125 24.828125 39.328125 
Q 27.046875 39.84375 28.859375 41.1875 
Q 30.671875 42.53125 31.859375 44.828125 
Q 33.0625 47.125 33.0625 50.6875 
Q 33.0625 56.203125 30.375 59.390625 
Q 27.6875 62.59375 22.46875 62.59375 
Q 17.671875 62.59375 14.734375 59.609375 
Q 11.8125 56.640625 11.328125 51.21875 
L 4.109375 51.90625 
Q 4.546875 56.453125 6.125 59.8125 
Q 7.71875 63.1875 10.171875 65.40625 
Q 12.640625 67.625 15.8125 68.71875 
Q 19 69.828125 22.5625 69.828125 
Q 27.296875 69.828125 30.6875 68.375 
Q 34.078125 66.9375 36.21875 64.46875 
Q 38.375 62.015625 39.40625 58.6875 
Q 40.4375 55.375 40.4375 51.609375 
Q 40.4375 48.578125 39.75 45.9375 
Q 39.0625 43.3125 37.625 41.203125 
Q 36.1875 39.109375 33.953125 37.59375 
Q 31.734375 36.078125 28.609375 35.296875 
L 28.609375 35.109375 
Q 32.03125 34.671875 34.546875 33.21875 
Q 37.0625 31.78125 38.71875 29.625 
Q 40.375 27.484375 41.1875 24.75 
Q 42 22.015625 42 19 
z
" id="LiberationSansNarrow-51"/>
      </defs>
      <g transform="translate(32.8525 154.516217)scale(0.14 -0.14)">
       <use xlink:href="#LiberationSansNarrow-8722"/>
       <use x="47.900391" xlink:href="#LiberationSansNarrow-51"/>
       <use x="93.505859" xlink:href="#LiberationSansNarrow-48"/>
      </g>
     </g>
    </g>
    <g id="ytick_4">
     <g id="line2d_10">
      <path clip-path="url(#p08cbef0d5a)" d="M 59.33 109.062876 
L 558.36 109.062876 
" style="fill:none;stroke:#b0b0b0;stroke-dasharray:1.48,0.64;stroke-dashoffset:0;stroke-width:0.4;"/>
     </g>
     <g id="text_10">
      <!-- −20 -->
      <g transform="translate(32.8525 114.135688)scale(0.14 -0.14)">
       <use xlink:href="#LiberationSansNarrow-8722"/>
       <use x="47.900391" xlink:href="#LiberationSansNarrow-50"/>
       <use x="93.505859" xlink:href="#LiberationSansNarrow-48"/>
      </g>
     </g>
    </g>
    <g id="ytick_5">
     <g id="line2d_11">
      <path clip-path="url(#p08cbef0d5a)" d="M 59.33 68.682347 
L 558.36 68.682347 
" style="fill:none;stroke:#b0b0b0;stroke-dasharray:1.48,0.64;stroke-dashoffset:0;stroke-width:0.4;"/>
     </g>
     <g id="text_11">
      <!-- −10 -->
      <g transform="translate(32.8525 73.75516)scale(0.14 -0.14)">
       <use xlink:href="#LiberationSansNarrow-8722"/>
       <use x="47.900391" xlink:href="#LiberationSansNarrow-49"/>
       <use x="93.505859" xlink:href="#LiberationSansNarrow-48"/>
      </g>
     </g>
    </g>
    <g id="ytick_6">
     <g id="line2d_12">
      <path clip-path="url(#p08cbef0d5a)" d="M 59.33 28.301818 
L 558.36 28.301818 
" style="fill:none;stroke:#b0b0b0;stroke-dasharray:1.48,0.64;stroke-dashoffset:0;stroke-width:0.4;"/>
     </g>
     <g id="text_12">
      <!-- 0 -->
      <g transform="translate(45.944688 33.374631)scale(0.14 -0.14)">
       <use xlink:href="#LiberationSansNarrow-48"/>
      </g>
     </g>
    </g>
    <g id="text_13">
     <!-- макс. просадка начального капитала, % -->
     <defs>
      <path d="M 31.546875 0 
L 25.390625 0 
L 12.40625 46.4375 
Q 12.453125 45.171875 12.515625 43.703125 
Q 12.59375 42.234375 12.59375 40.75 
Q 12.59375 39.265625 12.609375 37.859375 
Q 12.640625 36.46875 12.640625 35.359375 
L 12.640625 0 
L 5.671875 0 
L 5.671875 52.828125 
L 16.890625 52.828125 
L 25.734375 20.5625 
Q 26.65625 17.484375 27.390625 13.796875 
Q 28.125 10.109375 28.421875 6.59375 
Q 28.8125 10.109375 29.515625 13.796875 
Q 30.21875 17.484375 31.15625 20.5625 
L 39.984375 52.828125 
L 50.734375 52.828125 
L 50.734375 0 
L 43.796875 0 
L 43.796875 35.359375 
Q 43.796875 36.421875 43.8125 37.890625 
Q 43.84375 39.359375 43.921875 40.921875 
Q 44 42.484375 44.015625 43.9375 
Q 44.046875 45.40625 44.140625 46.53125 
z
" id="LiberationSansNarrow-1084"/>
      <path d="M 16.546875 -0.984375 
Q 10.015625 -0.984375 6.734375 3.21875 
Q 3.46875 7.421875 3.46875 14.75 
Q 3.46875 19.96875 5.09375 23.3125 
Q 6.734375 26.65625 9.34375 28.5625 
Q 11.96875 30.46875 15.328125 31.203125 
Q 18.703125 31.9375 22.171875 32.03125 
L 31.9375 32.234375 
L 31.9375 35.109375 
Q 31.9375 38.375 31.375 40.671875 
Q 30.8125 42.96875 29.640625 44.375 
Q 28.46875 45.796875 26.734375 46.453125 
Q 25 47.125 22.609375 47.125 
Q 20.515625 47.125 18.84375 46.75 
Q 17.1875 46.390625 15.9375 45.4375 
Q 14.703125 44.484375 13.9375 42.84375 
Q 13.1875 41.21875 12.9375 38.71875 
L 5.421875 39.546875 
Q 5.8125 42.671875 6.9375 45.28125 
Q 8.0625 47.90625 10.109375 49.796875 
Q 12.15625 51.703125 15.25 52.75 
Q 18.359375 53.8125 22.796875 53.8125 
Q 30.953125 53.8125 35.078125 49.234375 
Q 39.203125 44.671875 39.203125 36.03125 
L 39.203125 13.28125 
Q 39.203125 9.375 40.03125 7.390625 
Q 40.875 5.421875 43.265625 5.421875 
Q 43.84375 5.421875 44.453125 5.515625 
Q 45.0625 5.609375 45.609375 5.765625 
L 45.609375 0.296875 
Q 44.234375 -0.09375 42.890625 -0.28125 
Q 41.546875 -0.484375 40.046875 -0.484375 
Q 37.984375 -0.484375 36.515625 0.171875 
Q 35.0625 0.828125 34.15625 2.171875 
Q 33.25 3.515625 32.765625 5.484375 
Q 32.28125 7.46875 32.125 10.109375 
L 31.9375 10.109375 
Q 30.765625 7.5625 29.375 5.515625 
Q 27.984375 3.46875 26.140625 2.03125 
Q 24.3125 0.59375 21.9375 -0.1875 
Q 19.578125 -0.984375 16.546875 -0.984375 
z
M 18.21875 5.609375 
Q 21.6875 5.609375 24.25 7.140625 
Q 26.8125 8.6875 28.515625 11.078125 
Q 30.21875 13.484375 31.078125 16.3125 
Q 31.9375 19.140625 31.9375 21.734375 
L 31.9375 26.078125 
L 24.03125 25.875 
Q 21.390625 25.828125 19 25.40625 
Q 16.609375 25 14.8125 23.78125 
Q 13.03125 22.5625 11.953125 20.359375 
Q 10.890625 18.171875 10.890625 14.59375 
Q 10.890625 10.296875 12.796875 7.953125 
Q 14.703125 5.609375 18.21875 5.609375 
z
" id="LiberationSansNarrow-1072"/>
      <path d="M 5.515625 52.828125 
L 12.703125 52.828125 
L 12.703125 29.6875 
Q 13.921875 29.6875 14.875 30.078125 
Q 15.828125 30.46875 16.875 31.6875 
Q 17.921875 32.90625 19.21875 35.15625 
Q 20.515625 37.40625 22.46875 41.15625 
L 28.375 52.828125 
L 35.890625 52.828125 
L 27.25 36.96875 
Q 25.4375 33.734375 24.109375 31.65625 
Q 22.796875 29.59375 22.125 28.90625 
L 36.234375 0 
L 28.21875 0 
L 17.140625 24.265625 
Q 16.359375 23.875 15.0625 23.578125 
Q 13.765625 23.296875 12.703125 23.296875 
L 12.703125 0 
L 5.515625 0 
z
" id="LiberationSansNarrow-1082"/>
      <path d="M 11.03125 26.65625 
Q 11.03125 22.125 11.5625 18.3125 
Q 12.109375 14.5 13.375 11.734375 
Q 14.65625 8.984375 16.75 7.46875 
Q 18.84375 5.953125 21.96875 5.953125 
Q 25.828125 5.953125 28.390625 8.484375 
Q 30.953125 11.03125 31.546875 16.3125 
L 38.875 15.71875 
Q 38.53125 12.453125 37.296875 9.421875 
Q 36.078125 6.390625 34.03125 4.09375 
Q 31.984375 1.8125 29 0.40625 
Q 26.03125 -0.984375 22.171875 -0.984375 
Q 17.09375 -0.984375 13.5 1.109375 
Q 9.90625 3.21875 7.6875 6.90625 
Q 5.46875 10.59375 4.46875 15.59375 
Q 3.46875 20.609375 3.46875 26.46875 
Q 3.46875 31.78125 4.203125 35.859375 
Q 4.9375 39.9375 6.21875 42.984375 
Q 7.515625 46.046875 9.265625 48.125 
Q 11.03125 50.203125 13.109375 51.4375 
Q 15.1875 52.6875 17.453125 53.25 
Q 19.734375 53.8125 22.078125 53.8125 
Q 25.734375 53.8125 28.5625 52.59375 
Q 31.390625 51.375 33.46875 49.25 
Q 35.546875 47.125 36.8125 44.234375 
Q 38.09375 41.359375 38.625 38.03125 
L 31.203125 37.359375 
Q 30.671875 41.75 28.375 44.328125 
Q 26.078125 46.921875 21.875 46.921875 
Q 18.796875 46.921875 16.71875 45.671875 
Q 14.65625 44.4375 13.375 41.921875 
Q 12.109375 39.40625 11.5625 35.59375 
Q 11.03125 31.78125 11.03125 26.65625 
z
" id="LiberationSansNarrow-1089"/>
      <path id="LiberationSansNarrow-32"/>
      <path d="M 38.71875 52.828125 
L 38.71875 0 
L 31.546875 0 
L 31.546875 46.4375 
L 12.890625 46.4375 
L 12.890625 0 
L 5.71875 0 
L 5.71875 52.828125 
z
" id="LiberationSansNarrow-1087"/>
      <path d="M 42.140625 26.65625 
Q 42.140625 20.65625 41.359375 15.578125 
Q 40.578125 10.5 38.6875 6.828125 
Q 36.8125 3.171875 33.765625 1.09375 
Q 30.71875 -0.984375 26.21875 -0.984375 
Q 21.578125 -0.984375 18.078125 1.171875 
Q 14.59375 3.328125 12.796875 8.203125 
L 12.546875 8.203125 
Q 12.59375 8.109375 12.609375 7.328125 
Q 12.640625 6.546875 12.671875 5.375 
Q 12.703125 4.203125 12.71875 2.75 
Q 12.75 1.3125 12.75 -0.09375 
L 12.75 -20.75 
L 5.515625 -20.75 
L 5.515625 42.046875 
Q 5.515625 43.953125 5.484375 45.703125 
Q 5.46875 47.46875 5.4375 48.90625 
Q 5.421875 50.34375 5.375 51.359375 
Q 5.328125 52.390625 5.28125 52.828125 
L 12.25 52.828125 
Q 12.3125 52.6875 12.359375 51.8125 
L 12.5 49.703125 
Q 12.546875 48.4375 12.59375 47.015625 
Q 12.640625 45.609375 12.640625 44.34375 
L 12.796875 44.34375 
Q 13.765625 46.875 15.0625 48.65625 
Q 16.359375 50.4375 18.015625 51.578125 
Q 19.671875 52.734375 21.671875 53.25 
Q 23.6875 53.765625 26.21875 53.765625 
Q 30.71875 53.765625 33.765625 51.8125 
Q 36.8125 49.859375 38.6875 46.3125 
Q 40.578125 42.78125 41.359375 37.765625 
Q 42.140625 32.765625 42.140625 26.65625 
z
M 34.578125 26.46875 
Q 34.578125 31.34375 34.109375 35.15625 
Q 33.640625 38.96875 32.4375 41.59375 
Q 31.25 44.234375 29.296875 45.59375 
Q 27.34375 46.96875 24.359375 46.96875 
Q 21.96875 46.96875 19.84375 46.140625 
Q 17.71875 45.3125 16.125 42.96875 
Q 14.546875 40.625 13.640625 36.5 
Q 12.75 32.375 12.75 25.78125 
Q 12.75 20.171875 13.5 16.28125 
Q 14.265625 12.40625 15.71875 10.015625 
Q 17.1875 7.625 19.328125 6.5625 
Q 21.484375 5.515625 24.3125 5.515625 
Q 27.34375 5.515625 29.296875 6.921875 
Q 31.25 8.34375 32.4375 11.03125 
Q 33.640625 13.71875 34.109375 17.59375 
Q 34.578125 21.484375 34.578125 26.46875 
z
" id="LiberationSansNarrow-1088"/>
      <path d="M 42.140625 26.46875 
Q 42.140625 12.59375 37.125 5.796875 
Q 32.125 -0.984375 22.609375 -0.984375 
Q 18.0625 -0.984375 14.515625 0.671875 
Q 10.984375 2.34375 8.515625 5.765625 
Q 6.0625 9.1875 4.765625 14.328125 
Q 3.46875 19.484375 3.46875 26.46875 
Q 3.46875 53.8125 22.859375 53.8125 
Q 27.875 53.8125 31.5625 52.09375 
Q 35.25 50.390625 37.59375 46.96875 
Q 39.9375 43.5625 41.03125 38.421875 
Q 42.140625 33.296875 42.140625 26.46875 
z
M 34.578125 26.46875 
Q 34.578125 32.625 33.8125 36.625 
Q 33.0625 40.625 31.546875 43.015625 
Q 30.03125 45.40625 27.859375 46.359375 
Q 25.6875 47.3125 23 47.3125 
Q 20.21875 47.3125 17.984375 46.3125 
Q 15.765625 45.3125 14.203125 42.890625 
Q 12.640625 40.484375 11.828125 36.46875 
Q 11.03125 32.46875 11.03125 26.46875 
Q 11.03125 20.3125 11.90625 16.28125 
Q 12.796875 12.25 14.328125 9.859375 
Q 15.875 7.46875 17.96875 6.484375 
Q 20.0625 5.515625 22.5625 5.515625 
Q 25.34375 5.515625 27.5625 6.46875 
Q 29.78125 7.421875 31.34375 9.8125 
Q 32.90625 12.203125 33.734375 16.25 
Q 34.578125 20.3125 34.578125 26.46875 
z
" id="LiberationSansNarrow-1086"/>
      <path d="M 33.34375 46.4375 
L 21.140625 46.4375 
Q 20.171875 37.796875 19.1875 31.375 
Q 18.21875 24.953125 17.234375 20.21875 
Q 16.265625 15.484375 15.3125 12.15625 
Q 14.359375 8.84375 13.484375 6.390625 
L 33.34375 6.390625 
z
M 46.390625 -19.921875 
L 39.890625 -19.921875 
L 39.890625 0 
L 7.328125 0 
L 7.328125 -19.921875 
L 0.78125 -19.921875 
L 0.78125 6.390625 
L 5.5625 6.390625 
Q 6.78125 8.84375 7.921875 12.328125 
Q 9.078125 15.828125 10.21875 21.1875 
Q 11.375 26.5625 12.515625 34.25 
Q 13.671875 41.9375 14.796875 52.828125 
L 40.578125 52.828125 
L 40.578125 6.390625 
L 46.390625 6.390625 
z
" id="LiberationSansNarrow-1076"/>
      <path d="M 12.890625 52.828125 
L 12.890625 30.46875 
L 32.375 30.46875 
L 32.375 52.828125 
L 39.59375 52.828125 
L 39.59375 0 
L 32.375 0 
L 32.375 24.078125 
L 12.890625 24.078125 
L 12.890625 0 
L 5.671875 0 
L 5.671875 52.828125 
z
" id="LiberationSansNarrow-1085"/>
      <path d="M 12.109375 52.828125 
L 12.109375 33.203125 
Q 12.109375 31.546875 12.421875 30.09375 
Q 12.75 28.65625 13.53125 27.578125 
Q 14.3125 26.515625 15.578125 25.90625 
Q 16.84375 25.296875 18.75 25.296875 
Q 21.53125 25.296875 24.171875 25.921875 
Q 26.8125 26.5625 29.78125 27.59375 
L 29.78125 52.828125 
L 37.015625 52.828125 
L 37.015625 0 
L 29.78125 0 
L 29.78125 22.515625 
Q 29.78125 22.515625 26.65625 21 
Q 25.046875 20.265625 23.28125 19.671875 
Q 21.53125 19.09375 19.671875 18.703125 
Q 17.828125 18.3125 15.765625 18.3125 
Q 13.140625 18.3125 11.109375 19.3125 
Q 9.078125 20.3125 7.703125 22.171875 
Q 6.34375 24.03125 5.609375 26.703125 
Q 4.890625 29.390625 4.890625 32.765625 
L 4.890625 52.828125 
z
" id="LiberationSansNarrow-1095"/>
      <path d="M 34.859375 0 
L 34.859375 46.4375 
L 19.875 46.4375 
Q 18.890625 37.453125 18.03125 30.4375 
Q 17.1875 23.4375 16.3125 18.15625 
Q 15.4375 12.890625 14.40625 9.25 
Q 13.375 5.609375 11.953125 3.34375 
Q 10.546875 1.078125 8.65625 0.046875 
Q 6.78125 -0.984375 4.203125 -0.984375 
Q 3.03125 -0.984375 2.078125 -0.78125 
Q 1.125 -0.59375 0.4375 -0.34375 
L 0.4375 5.953125 
Q 0.875 5.765625 1.625 5.640625 
Q 2.390625 5.515625 3.171875 5.515625 
Q 4.59375 5.515625 5.59375 6.53125 
Q 6.59375 7.5625 7.390625 9.859375 
Q 8.203125 12.15625 8.859375 15.796875 
Q 9.515625 19.4375 10.203125 24.703125 
Q 10.890625 29.984375 11.625 36.921875 
L 13.375 52.828125 
L 42.140625 52.828125 
L 42.140625 0 
z
" id="LiberationSansNarrow-1083"/>
      <path d="M 22.75 30.46875 
Q 30.953125 30.46875 35.15625 26.875 
Q 39.359375 23.296875 39.359375 15.53125 
Q 39.359375 11.921875 38.296875 9.03125 
Q 37.25 6.15625 35.171875 4.15625 
Q 33.109375 2.15625 30 1.078125 
Q 26.90625 0 22.796875 0 
L 5.671875 0 
L 5.671875 52.828125 
L 12.890625 52.828125 
L 12.890625 30.46875 
z
M 12.890625 6.203125 
L 21.6875 6.203125 
Q 24.46875 6.203125 26.390625 6.8125 
Q 28.328125 7.421875 29.5 8.609375 
Q 30.671875 9.8125 31.171875 11.546875 
Q 31.6875 13.28125 31.6875 15.53125 
Q 31.6875 20.125 29.359375 22.234375 
Q 27.046875 24.359375 21.734375 24.359375 
L 12.890625 24.359375 
z
" id="LiberationSansNarrow-1100"/>
      <path d="M 27.546875 52.828125 
L 27.546875 46.4375 
L 12.890625 46.4375 
L 12.890625 0 
L 5.71875 0 
L 5.71875 52.828125 
z
" id="LiberationSansNarrow-1075"/>
      <path d="M 12.640625 52.828125 
L 12.640625 23.921875 
Q 12.640625 22.796875 12.59375 20.921875 
Q 12.546875 19.046875 12.46875 17.046875 
Q 12.40625 15.046875 12.359375 13.234375 
Q 12.3125 11.421875 12.25 10.40625 
L 32.28125 52.828125 
L 40.140625 52.828125 
L 40.140625 0 
L 33.25 0 
L 33.25 32.234375 
Q 33.25 33.15625 33.296875 34.578125 
L 33.40625 37.40625 
Q 33.453125 38.875 33.5 40.234375 
L 33.640625 42.625 
L 13.375 0 
L 5.71875 0 
L 5.71875 52.828125 
z
" id="LiberationSansNarrow-1080"/>
      <path d="M 1.421875 52.828125 
L 36.140625 52.828125 
L 36.140625 46.4375 
L 22.359375 46.4375 
L 22.359375 0 
L 15.1875 0 
L 15.1875 46.4375 
L 1.421875 46.4375 
z
" id="LiberationSansNarrow-1090"/>
      <path d="M 15.4375 10.6875 
L 15.4375 2.484375 
Q 15.4375 -0.09375 15.265625 -2.21875 
Q 15.09375 -4.34375 14.671875 -6.171875 
Q 14.265625 -8.015625 13.671875 -9.625 
Q 13.09375 -11.234375 12.3125 -12.796875 
L 7.375 -12.796875 
Q 9.1875 -9.625 10.15625 -6.390625 
Q 11.140625 -3.171875 11.140625 0 
L 7.625 0 
L 7.625 10.6875 
z
" id="LiberationSansNarrow-44"/>
      <path d="M 69.96875 21.1875 
Q 69.96875 15.09375 68.9375 10.90625 
Q 67.921875 6.734375 66.1875 4.171875 
Q 64.453125 1.609375 62.125 0.5 
Q 59.8125 -0.59375 57.171875 -0.59375 
Q 54.546875 -0.59375 52.21875 0.5 
Q 49.90625 1.609375 48.21875 4.140625 
Q 46.53125 6.6875 45.546875 10.859375 
Q 44.578125 15.046875 44.578125 21.1875 
Q 44.578125 27.6875 45.53125 31.9375 
Q 46.484375 36.1875 48.1875 38.703125 
Q 49.90625 41.21875 52.25 42.21875 
Q 54.59375 43.21875 57.328125 43.21875 
Q 59.96875 43.21875 62.25 42.21875 
Q 64.546875 41.21875 66.25 38.703125 
Q 67.96875 36.1875 68.96875 31.9375 
Q 69.96875 27.6875 69.96875 21.1875 
z
M 21.09375 0 
L 14.890625 0 
L 51.8125 68.796875 
L 58.109375 68.796875 
z
M 15.765625 69.390625 
Q 18.3125 69.390625 20.609375 68.390625 
Q 22.90625 67.390625 24.609375 64.890625 
Q 26.3125 62.40625 27.3125 58.203125 
Q 28.328125 54 28.328125 47.609375 
Q 28.328125 41.453125 27.3125 37.25 
Q 26.3125 33.0625 24.609375 30.4375 
Q 22.90625 27.828125 20.578125 26.703125 
Q 18.265625 25.59375 15.625 25.59375 
Q 12.9375 25.59375 10.609375 26.703125 
Q 8.296875 27.828125 6.59375 30.421875 
Q 4.890625 33.015625 3.90625 37.203125 
Q 2.9375 41.40625 2.9375 47.609375 
Q 2.9375 54 3.90625 58.203125 
Q 4.890625 62.40625 6.609375 64.890625 
Q 8.34375 67.390625 10.6875 68.390625 
Q 13.03125 69.390625 15.765625 69.390625 
z
M 64.0625 21.1875 
Q 64.0625 26.03125 63.625 29.21875 
Q 63.1875 32.421875 62.328125 34.328125 
Q 61.46875 36.234375 60.203125 37.015625 
Q 58.9375 37.796875 57.328125 37.796875 
Q 55.671875 37.796875 54.375 36.984375 
Q 53.078125 36.1875 52.1875 34.28125 
Q 51.3125 32.375 50.875 29.171875 
Q 50.4375 25.984375 50.4375 21.1875 
Q 50.4375 16.546875 50.90625 13.421875 
Q 51.375 10.296875 52.21875 8.375 
Q 53.078125 6.453125 54.34375 5.609375 
Q 55.609375 4.78125 57.234375 4.78125 
Q 58.796875 4.78125 60.0625 5.609375 
Q 61.328125 6.453125 62.203125 8.375 
Q 63.09375 10.296875 63.578125 13.421875 
Q 64.0625 16.546875 64.0625 21.1875 
z
M 22.40625 47.609375 
Q 22.40625 52.390625 21.96875 55.5625 
Q 21.53125 58.734375 20.703125 60.640625 
Q 19.875 62.546875 18.625 63.328125 
Q 17.390625 64.109375 15.765625 64.109375 
Q 14.0625 64.109375 12.734375 63.296875 
Q 11.421875 62.5 10.546875 60.59375 
Q 9.671875 58.6875 9.234375 55.515625 
Q 8.796875 52.34375 8.796875 47.609375 
Q 8.796875 42.96875 9.25 39.796875 
Q 9.71875 36.625 10.5625 34.6875 
Q 11.421875 32.765625 12.71875 31.9375 
Q 14.015625 31.109375 15.671875 31.109375 
Q 17.1875 31.109375 18.421875 31.9375 
Q 19.671875 32.765625 20.546875 34.6875 
Q 21.4375 36.625 21.921875 39.796875 
Q 22.40625 42.96875 22.40625 47.609375 
z
" id="LiberationSansNarrow-37"/>
     </defs>
     <g transform="translate(25.9475 241.636094)rotate(-90)scale(0.14 -0.14)">
      <use xlink:href="#LiberationSansNarrow-1084"/>
      <use x="56.396484" xlink:href="#LiberationSansNarrow-1072"/>
      <use x="102.001953" xlink:href="#LiberationSansNarrow-1082"/>
      <use x="137.857422" xlink:href="#LiberationSansNarrow-1089"/>
      <use x="178.873047" xlink:href="#LiberationSansNarrow-46"/>
      <use x="201.675781" xlink:href="#LiberationSansNarrow-32"/>
      <use x="224.478516" xlink:href="#LiberationSansNarrow-1087"/>
      <use x="268.912109" xlink:href="#LiberationSansNarrow-1088"/>
      <use x="314.517578" xlink:href="#LiberationSansNarrow-1086"/>
      <use x="360.123047" xlink:href="#LiberationSansNarrow-1089"/>
      <use x="401.138672" xlink:href="#LiberationSansNarrow-1072"/>
      <use x="446.744141" xlink:href="#LiberationSansNarrow-1076"/>
      <use x="494.546875" xlink:href="#LiberationSansNarrow-1082"/>
      <use x="530.417969" xlink:href="#LiberationSansNarrow-1072"/>
      <use x="576.023438" xlink:href="#LiberationSansNarrow-32"/>
      <use x="598.826172" xlink:href="#LiberationSansNarrow-1085"/>
      <use x="644.089844" xlink:href="#LiberationSansNarrow-1072"/>
      <use x="689.664062" xlink:href="#LiberationSansNarrow-1095"/>
      <use x="732.388672" xlink:href="#LiberationSansNarrow-1072"/>
      <use x="777.994141" xlink:href="#LiberationSansNarrow-1083"/>
      <use x="825.796875" xlink:href="#LiberationSansNarrow-1100"/>
      <use x="868.521484" xlink:href="#LiberationSansNarrow-1085"/>
      <use x="913.785156" xlink:href="#LiberationSansNarrow-1086"/>
      <use x="959.390625" xlink:href="#LiberationSansNarrow-1075"/>
      <use x="989.291016" xlink:href="#LiberationSansNarrow-1086"/>
      <use x="1034.896484" xlink:href="#LiberationSansNarrow-32"/>
      <use x="1057.699219" xlink:href="#LiberationSansNarrow-1082"/>
      <use x="1093.570312" xlink:href="#LiberationSansNarrow-1072"/>
      <use x="1139.175781" xlink:href="#LiberationSansNarrow-1087"/>
      <use x="1183.609375" xlink:href="#LiberationSansNarrow-1080"/>
      <use x="1229.458984" xlink:href="#LiberationSansNarrow-1090"/>
      <use x="1266.992188" xlink:href="#LiberationSansNarrow-1072"/>
      <use x="1312.597656" xlink:href="#LiberationSansNarrow-1083"/>
      <use x="1360.400391" xlink:href="#LiberationSansNarrow-1072"/>
      <use x="1406.005859" xlink:href="#LiberationSansNarrow-44"/>
      <use x="1428.808594" xlink:href="#LiberationSansNarrow-32"/>
      <use x="1451.611328" xlink:href="#LiberationSansNarrow-37"/>
     </g>
    </g>
   </g>
   <g id="line2d_13">
    <path clip-path="url(#p08cbef0d5a)" d="M 82.013182 237.305765 
L 83.88011 235.476481 
L 85.747039 235.065846 
L 87.613967 234.264786 
L 89.480896 234.152663 
L 93.214753 232.486446 
L 95.081682 232.375561 
L 96.94861 229.071807 
L 98.815539 227.730423 
L 100.682467 227.356689 
L 102.549396 226.201643 
L 104.416324 222.902022 
L 106.283253 221.151686 
L 108.150181 220.253077 
L 110.01711 220.04349 
L 111.884039 218.815764 
L 113.750967 218.738169 
L 115.617896 216.506148 
L 117.484824 214.032258 
L 123.08561 212.843875 
L 124.952538 207.983672 
L 128.686395 207.116334 
L 130.553324 200.011752 
L 132.420253 196.776038 
L 134.287181 193.92922 
L 136.15411 189.50563 
L 138.021038 188.107591 
L 139.887967 186.968042 
L 141.754895 185.163417 
L 143.621824 185.03856 
L 145.488752 183.601027 
L 149.222609 182.423727 
L 151.089538 180.91818 
L 152.956467 180.015702 
L 156.690324 179.677465 
L 158.557252 178.990641 
L 160.424181 178.976379 
L 162.291109 178.080375 
L 164.158038 177.920189 
L 166.024966 176.745081 
L 167.891895 175.882458 
L 169.758823 175.568329 
L 171.625752 173.511387 
L 173.492681 173.335133 
L 175.359609 172.101248 
L 177.226538 171.909395 
L 179.093466 171.86956 
L 180.960395 171.008365 
L 184.694252 167.71054 
L 186.56118 167.625476 
L 190.295037 166.841952 
L 192.161966 164.919174 
L 194.028895 163.78933 
L 195.895823 162.000353 
L 197.762752 160.924025 
L 199.62968 160.591751 
L 201.496609 160.065211 
L 205.230466 159.503903 
L 207.097394 158.591399 
L 208.964323 158.058986 
L 210.831251 157.22503 
L 212.69818 151.963611 
L 214.565108 150.180203 
L 216.432037 147.797835 
L 218.298966 142.18865 
L 220.165894 141.712731 
L 223.899751 141.469162 
L 225.76668 136.697122 
L 227.633608 136.030147 
L 229.500537 135.123559 
L 231.367465 133.675237 
L 233.234394 133.49997 
L 235.101322 133.440639 
L 236.968251 132.578275 
L 238.83518 129.758453 
L 240.702108 129.271423 
L 242.569037 125.179713 
L 244.435965 118.570686 
L 246.302894 116.996019 
L 248.169822 112.298377 
L 250.036751 109.630092 
L 251.903679 109.46236 
L 253.770608 108.925216 
L 255.637536 106.874 
L 257.504465 106.268303 
L 259.371394 104.09898 
L 261.238322 101.543458 
L 263.105251 99.714609 
L 264.972179 96.909222 
L 268.706036 95.649987 
L 270.572965 93.217403 
L 272.439893 92.779952 
L 274.306822 92.494618 
L 276.17375 88.613628 
L 281.774536 85.320235 
L 283.641465 84.840031 
L 285.508393 84.655819 
L 287.375322 84.350273 
L 289.24225 83.000953 
L 291.109179 81.383741 
L 292.976107 80.460278 
L 296.709964 77.40397 
L 298.576893 77.368478 
L 300.443822 74.857764 
L 302.31075 71.78703 
L 304.177679 71.630682 
L 306.044607 69.123407 
L 309.778464 66.272043 
L 311.645393 64.405186 
L 313.512321 63.877557 
L 315.37925 60.132452 
L 317.246178 59.854133 
L 320.980036 51.024248 
L 322.846964 50.783827 
L 324.713893 49.192769 
L 326.580821 48.137992 
L 328.44775 45.853969 
L 330.314678 45.222969 
L 332.181607 45.00841 
L 334.048535 43.946114 
L 335.915464 43.078615 
L 337.782392 42.341099 
L 341.51625 41.789218 
L 343.383178 40.706732 
L 345.250107 40.00653 
L 347.117035 39.765223 
L 350.850892 39.606473 
L 352.717821 38.806567 
L 354.584749 38.470811 
L 358.318606 38.207825 
L 360.185535 37.038085 
L 363.919392 36.899111 
L 365.786321 36.77766 
L 367.653249 36.466493 
L 369.520178 35.089849 
L 373.254035 34.585698 
L 376.987892 34.442638 
L 382.588678 34.29879 
L 384.455606 34.106589 
L 386.322535 33.684515 
L 388.189463 33.461199 
L 390.056392 33.450463 
L 391.92332 33.114469 
L 393.790249 32.52527 
L 397.524106 32.438324 
L 399.391034 32.244358 
L 401.257963 31.497195 
L 403.124892 31.477626 
L 404.99182 31.249205 
L 406.858749 30.601855 
L 408.725677 30.212291 
L 412.459534 29.850181 
L 419.927248 29.270738 
L 423.661105 28.756022 
L 425.528034 28.408731 
L 503.939033 28.301818 
L 535.676818 28.301818 
L 535.676818 28.301818 
" style="fill:none;stroke:#1f77b4;stroke-linecap:square;stroke-width:2;"/>
   </g>
   <g id="line2d_14">
    <path clip-path="url(#p08cbef0d5a)" d="M 82.013182 227.437805 
L 83.88011 219.239337 
L 85.747039 218.216706 
L 87.613967 217.461494 
L 89.480896 216.555963 
L 91.347825 212.131344 
L 93.214753 211.252766 
L 95.081682 209.977749 
L 96.94861 209.406298 
L 100.682467 205.308136 
L 102.549396 199.540559 
L 104.416324 197.944083 
L 110.01711 196.0977 
L 111.884039 194.581862 
L 113.750967 193.584117 
L 115.617896 193.448362 
L 117.484824 191.888811 
L 119.351753 191.05609 
L 121.218681 190.042809 
L 123.08561 186.556408 
L 124.952538 186.136761 
L 126.819467 186.011866 
L 128.686395 185.535477 
L 130.553324 184.655047 
L 132.420253 184.567567 
L 134.287181 183.420552 
L 136.15411 183.083934 
L 138.021038 183.066386 
L 139.887967 176.206229 
L 141.754895 176.173195 
L 143.621824 175.812907 
L 145.488752 172.068835 
L 147.355681 170.34924 
L 149.222609 167.889907 
L 152.956467 165.395749 
L 154.823395 164.81375 
L 156.690324 161.862006 
L 158.557252 161.762719 
L 160.424181 160.029395 
L 162.291109 159.574098 
L 164.158038 159.337918 
L 166.024966 159.248014 
L 167.891895 158.705641 
L 169.758823 158.569718 
L 173.492681 154.479901 
L 175.359609 153.814045 
L 177.226538 153.505072 
L 179.093466 152.483183 
L 180.960395 152.193479 
L 182.827323 150.114728 
L 184.694252 149.077788 
L 186.56118 147.505761 
L 188.428109 146.812685 
L 192.161966 146.378007 
L 194.028895 145.779883 
L 195.895823 145.584812 
L 197.762752 144.621067 
L 199.62968 141.153121 
L 201.496609 140.018955 
L 203.363537 140.015823 
L 205.230466 139.306021 
L 207.097394 139.119682 
L 208.964323 138.522095 
L 212.69818 138.385648 
L 214.565108 137.951627 
L 216.432037 137.825904 
L 218.298966 137.10775 
L 222.032823 136.636002 
L 223.899751 136.540986 
L 225.76668 135.701983 
L 229.500537 134.798128 
L 231.367465 133.960439 
L 233.234394 131.150548 
L 235.101322 130.828568 
L 238.83518 130.460717 
L 240.702108 128.550412 
L 242.569037 127.079944 
L 244.435965 125.429428 
L 248.169822 124.900665 
L 250.036751 123.925247 
L 251.903679 123.551937 
L 253.770608 122.045456 
L 255.637536 121.52289 
L 259.371394 119.027179 
L 261.238322 118.911969 
L 263.105251 117.880299 
L 264.972179 116.658728 
L 266.839108 116.488047 
L 268.706036 115.467613 
L 270.572965 114.180763 
L 272.439893 113.24934 
L 274.306822 111.829391 
L 276.17375 111.731428 
L 278.040679 111.355108 
L 279.907608 110.024929 
L 281.774536 109.092748 
L 283.641465 106.202522 
L 285.508393 105.942681 
L 287.375322 103.853296 
L 289.24225 103.627794 
L 291.109179 102.323019 
L 292.976107 101.940164 
L 294.843036 101.813745 
L 296.709964 101.125924 
L 298.576893 100.763619 
L 300.443822 99.94082 
L 302.31075 96.383717 
L 304.177679 92.542448 
L 306.044607 92.120173 
L 309.778464 91.598862 
L 311.645393 90.048936 
L 313.512321 88.296695 
L 315.37925 88.104822 
L 317.246178 86.521032 
L 319.113107 85.688957 
L 320.980036 85.551373 
L 324.713893 83.83346 
L 326.580821 82.299579 
L 328.44775 76.689602 
L 332.181607 73.852991 
L 334.048535 72.782311 
L 335.915464 72.742916 
L 339.649321 71.362415 
L 341.51625 70.228793 
L 343.383178 69.61861 
L 347.117035 69.448918 
L 348.983964 68.346907 
L 350.850892 66.330773 
L 352.717821 65.667114 
L 354.584749 65.349012 
L 356.451678 63.555102 
L 358.318606 62.899312 
L 360.185535 61.231463 
L 362.052464 60.335089 
L 363.919392 58.934364 
L 365.786321 58.437505 
L 367.653249 57.473994 
L 369.520178 56.129326 
L 373.254035 55.30393 
L 375.120963 52.63396 
L 376.987892 52.418961 
L 378.85482 51.854326 
L 380.721749 51.636718 
L 382.588678 51.579276 
L 384.455606 51.169673 
L 386.322535 51.148738 
L 391.92332 49.347877 
L 395.657177 49.285727 
L 397.524106 47.164395 
L 399.391034 47.08643 
L 401.257963 46.746531 
L 403.124892 46.585876 
L 404.99182 45.622314 
L 406.858749 45.103081 
L 408.725677 44.178548 
L 414.326463 43.51627 
L 416.193391 42.825849 
L 418.06032 42.293004 
L 419.927248 41.48768 
L 421.794177 40.295957 
L 423.661105 40.177354 
L 425.528034 39.493425 
L 427.394963 38.642788 
L 429.261891 37.335595 
L 434.862677 36.438098 
L 436.729605 34.327872 
L 438.596534 33.638484 
L 440.463462 33.585228 
L 442.330391 32.993326 
L 444.197319 32.246722 
L 446.064248 32.06878 
L 447.931177 31.323829 
L 449.798105 31.012707 
L 451.665034 30.88575 
L 453.531962 30.879311 
L 455.398891 29.90775 
L 457.265819 29.731323 
L 460.999676 28.86636 
L 462.866605 28.544101 
L 466.600462 28.301818 
L 535.676818 28.301818 
L 535.676818 28.301818 
" style="fill:none;stroke:#ff7f0e;stroke-linecap:square;"/>
   </g>
   <g id="line2d_15">
    <path clip-path="url(#p08cbef0d5a)" d="M 82.013182 227.489509 
L 83.88011 223.706862 
L 85.747039 223.673111 
L 87.613967 221.541144 
L 89.480896 221.02161 
L 91.347825 218.623754 
L 93.214753 215.124141 
L 95.081682 212.577034 
L 96.94861 200.924366 
L 98.815539 200.541751 
L 100.682467 200.287911 
L 102.549396 198.379549 
L 104.416324 198.160388 
L 106.283253 197.558944 
L 108.150181 197.210137 
L 110.01711 197.040761 
L 111.884039 196.366304 
L 113.750967 193.015835 
L 115.617896 191.837618 
L 117.484824 191.686717 
L 119.351753 190.276461 
L 121.218681 189.969008 
L 123.08561 189.545081 
L 124.952538 188.520446 
L 126.819467 188.225856 
L 128.686395 186.411975 
L 130.553324 185.962282 
L 132.420253 183.961301 
L 134.287181 179.413853 
L 136.15411 178.827694 
L 138.021038 178.751066 
L 141.754895 177.802481 
L 143.621824 175.391607 
L 145.488752 175.294888 
L 147.355681 174.169018 
L 149.222609 166.561707 
L 151.089538 157.861346 
L 152.956467 157.532748 
L 154.823395 157.478915 
L 156.690324 155.116368 
L 158.557252 154.964125 
L 160.424181 154.955502 
L 162.291109 151.283372 
L 164.158038 150.863136 
L 166.024966 146.603028 
L 167.891895 145.087669 
L 169.758823 142.891675 
L 171.625752 141.038063 
L 173.492681 140.809786 
L 175.359609 140.724974 
L 177.226538 138.160811 
L 179.093466 138.106096 
L 180.960395 137.110402 
L 182.827323 136.387903 
L 184.694252 134.488986 
L 186.56118 134.060815 
L 188.428109 132.742776 
L 190.295037 132.657831 
L 197.762752 131.073893 
L 199.62968 130.439219 
L 201.496609 130.365642 
L 207.097394 129.355513 
L 208.964323 129.265654 
L 210.831251 128.91061 
L 212.69818 127.71984 
L 214.565108 126.378784 
L 216.432037 125.307497 
L 218.298966 125.005395 
L 220.165894 123.960675 
L 222.032823 123.345726 
L 223.899751 121.668454 
L 227.633608 121.416567 
L 229.500537 120.497446 
L 231.367465 120.019792 
L 233.234394 119.863234 
L 235.101322 118.74656 
L 236.968251 118.380313 
L 238.83518 117.665466 
L 242.569037 114.684564 
L 244.435965 113.441394 
L 246.302894 111.209109 
L 248.169822 110.601393 
L 250.036751 110.117378 
L 251.903679 109.988583 
L 253.770608 109.530059 
L 255.637536 109.515615 
L 257.504465 108.024153 
L 259.371394 107.946413 
L 264.972179 107.153369 
L 266.839108 106.360591 
L 270.572965 106.035078 
L 272.439893 104.224279 
L 274.306822 103.792017 
L 276.17375 103.143941 
L 278.040679 102.247831 
L 279.907608 96.786573 
L 281.774536 94.215301 
L 283.641465 94.213076 
L 285.508393 89.87285 
L 287.375322 88.839347 
L 289.24225 88.418759 
L 291.109179 85.606779 
L 292.976107 84.584398 
L 296.709964 83.470591 
L 298.576893 83.232581 
L 300.443822 78.875063 
L 302.31075 78.253606 
L 304.177679 77.453814 
L 306.044607 76.45899 
L 307.911536 74.052756 
L 309.778464 73.028788 
L 311.645393 71.522779 
L 313.512321 70.525778 
L 315.37925 69.23015 
L 317.246178 68.790957 
L 319.113107 66.646495 
L 320.980036 64.007905 
L 322.846964 63.084312 
L 324.713893 62.748367 
L 328.44775 61.60612 
L 330.314678 61.565265 
L 334.048535 60.985061 
L 337.782392 60.648197 
L 339.649321 60.119306 
L 341.51625 58.238411 
L 345.250107 57.765802 
L 347.117035 56.140028 
L 348.983964 55.676714 
L 350.850892 54.050465 
L 352.717821 52.212567 
L 358.318606 51.939746 
L 360.185535 51.775598 
L 362.052464 51.043509 
L 363.919392 50.168475 
L 365.786321 50.085266 
L 367.653249 49.265436 
L 369.520178 48.942981 
L 373.254035 48.56373 
L 378.85482 47.688628 
L 380.721749 47.60233 
L 384.455606 46.272385 
L 386.322535 46.223807 
L 388.189463 45.70514 
L 390.056392 45.66484 
L 391.92332 45.245553 
L 395.657177 45.027242 
L 397.524106 44.812836 
L 399.391034 44.726622 
L 401.257963 42.999754 
L 403.124892 42.513248 
L 404.99182 42.173174 
L 406.858749 41.476576 
L 408.725677 40.582993 
L 412.459534 38.28948 
L 414.326463 37.822556 
L 416.193391 37.216438 
L 419.927248 37.063306 
L 421.794177 35.784377 
L 423.661105 34.800185 
L 425.528034 34.429107 
L 429.261891 33.010223 
L 431.12882 32.904456 
L 432.995748 31.840163 
L 434.862677 31.765227 
L 436.729605 30.966933 
L 438.596534 30.691135 
L 440.463462 29.771925 
L 442.330391 29.276872 
L 444.197319 29.20067 
L 446.064248 28.867159 
L 447.931177 28.301818 
L 535.676818 28.301818 
L 535.676818 28.301818 
" style="fill:none;stroke:#2ca02c;stroke-linecap:square;"/>
   </g>
   <g id="line2d_16">
    <path clip-path="url(#p08cbef0d5a)" d="M 82.013182 189.991368 
L 83.88011 188.406362 
L 85.747039 187.800278 
L 87.613967 182.796964 
L 89.480896 182.049688 
L 91.347825 181.571275 
L 93.214753 180.604063 
L 95.081682 180.546946 
L 98.815539 179.08317 
L 100.682467 178.703555 
L 104.416324 176.10961 
L 106.283253 173.19576 
L 108.150181 168.962086 
L 110.01711 168.347659 
L 111.884039 166.24654 
L 113.750967 165.440224 
L 115.617896 164.372253 
L 117.484824 163.066006 
L 119.351753 156.802818 
L 121.218681 149.637639 
L 123.08561 144.85273 
L 124.952538 142.885939 
L 126.819467 142.292547 
L 128.686395 141.172148 
L 130.553324 140.804903 
L 132.420253 139.721727 
L 134.287181 138.414294 
L 136.15411 136.083292 
L 138.021038 135.549488 
L 139.887967 134.319238 
L 141.754895 133.342447 
L 143.621824 132.934562 
L 145.488752 132.693465 
L 147.355681 131.956683 
L 149.222609 131.437266 
L 151.089538 129.985958 
L 152.956467 129.515201 
L 154.823395 129.465763 
L 156.690324 128.473359 
L 158.557252 128.038071 
L 160.424181 126.829442 
L 162.291109 126.650633 
L 164.158038 126.124956 
L 166.024966 123.186071 
L 167.891895 121.945861 
L 169.758823 121.070693 
L 171.625752 120.660954 
L 173.492681 119.141643 
L 175.359609 118.011283 
L 177.226538 117.431119 
L 179.093466 117.17978 
L 180.960395 117.100685 
L 182.827323 115.848785 
L 184.694252 115.56084 
L 186.56118 114.067765 
L 188.428109 113.754321 
L 190.295037 112.324001 
L 192.161966 111.776305 
L 194.028895 111.000993 
L 197.762752 110.096278 
L 199.62968 109.824037 
L 201.496609 108.221648 
L 203.363537 107.464316 
L 205.230466 105.799769 
L 207.097394 105.377411 
L 208.964323 104.505546 
L 210.831251 101.700485 
L 212.69818 100.870194 
L 214.565108 97.975052 
L 216.432037 97.473584 
L 218.298966 95.551745 
L 220.165894 94.371649 
L 223.899751 94.209327 
L 225.76668 91.316166 
L 227.633608 90.598087 
L 229.500537 90.457825 
L 233.234394 89.357649 
L 235.101322 88.505559 
L 236.968251 88.01033 
L 238.83518 87.995743 
L 240.702108 86.428692 
L 242.569037 85.841751 
L 244.435965 85.029865 
L 246.302894 84.855698 
L 248.169822 84.071508 
L 250.036751 83.706595 
L 251.903679 83.641521 
L 253.770608 82.691294 
L 255.637536 82.66788 
L 257.504465 81.726117 
L 259.371394 81.11315 
L 261.238322 78.65741 
L 263.105251 77.153065 
L 264.972179 76.853124 
L 266.839108 75.313113 
L 268.706036 72.189139 
L 270.572965 70.614619 
L 272.439893 68.56472 
L 274.306822 66.974749 
L 276.17375 66.234871 
L 278.040679 62.371439 
L 279.907608 62.017495 
L 281.774536 60.782178 
L 283.641465 60.373555 
L 285.508393 58.014259 
L 287.375322 56.971994 
L 289.24225 56.50857 
L 291.109179 56.167951 
L 294.843036 55.222117 
L 296.709964 54.503345 
L 298.576893 53.058334 
L 302.31075 52.659033 
L 307.911536 48.800583 
L 309.778464 47.769099 
L 311.645393 47.4867 
L 315.37925 47.209937 
L 317.246178 46.22206 
L 319.113107 45.635158 
L 320.980036 45.272092 
L 322.846964 45.141205 
L 324.713893 44.346558 
L 326.580821 43.685971 
L 328.44775 43.485586 
L 330.314678 42.843147 
L 334.048535 42.738334 
L 335.915464 42.513366 
L 337.782392 42.438754 
L 339.649321 41.446325 
L 341.51625 41.428788 
L 343.383178 41.058048 
L 350.850892 40.665493 
L 352.717821 40.475292 
L 354.584749 40.101401 
L 360.185535 39.665443 
L 362.052464 39.591505 
L 363.919392 39.335666 
L 365.786321 39.312501 
L 367.653249 38.965501 
L 369.520178 38.289198 
L 371.387106 36.661935 
L 373.254035 35.906668 
L 376.987892 35.773556 
L 378.85482 35.57994 
L 382.588678 35.509439 
L 388.189463 34.34823 
L 390.056392 34.010444 
L 397.524106 33.750725 
L 403.124892 33.183888 
L 404.99182 32.057502 
L 406.858749 31.784546 
L 408.725677 30.873782 
L 412.459534 30.701721 
L 414.326463 29.880968 
L 416.193391 29.836646 
L 418.06032 29.391272 
L 419.927248 29.256047 
L 421.794177 28.46334 
L 423.661105 28.301818 
L 535.676818 28.301818 
L 535.676818 28.301818 
" style="fill:none;stroke:#d62728;stroke-linecap:square;"/>
   </g>
   <g id="line2d_17">
    <path clip-path="url(#p08cbef0d5a)" d="M 82.013182 241.538182 
L 83.927374 239.35365 
L 85.841567 238.908426 
L 87.755759 220.697234 
L 89.669952 220.376993 
L 91.584145 212.946438 
L 93.498337 211.380079 
L 95.41253 205.200508 
L 97.326722 198.154362 
L 99.240915 192.748849 
L 101.155107 192.567023 
L 103.0693 168.094249 
L 104.983493 160.260137 
L 106.897685 159.356855 
L 108.811878 157.338025 
L 110.72607 156.617968 
L 112.640263 155.734869 
L 114.554455 155.593922 
L 116.468648 152.283999 
L 118.38284 151.887107 
L 120.297033 151.772351 
L 124.125418 149.164598 
L 126.039611 145.739711 
L 129.867996 145.62292 
L 131.782188 141.828135 
L 133.696381 136.95051 
L 135.610573 135.978063 
L 139.438959 134.559169 
L 141.353151 131.282078 
L 143.267344 130.393417 
L 145.181536 126.936882 
L 147.095729 125.853172 
L 149.009921 124.344934 
L 150.924114 122.440572 
L 152.838306 122.171727 
L 154.752499 121.514717 
L 156.666692 119.626052 
L 158.580884 114.909491 
L 160.495077 114.385602 
L 162.409269 114.170268 
L 164.323462 111.379068 
L 166.237654 111.35041 
L 168.151847 111.113751 
L 171.980232 110.278347 
L 173.894425 109.69273 
L 175.808617 108.808281 
L 177.72281 108.504684 
L 179.637002 108.315233 
L 181.551195 106.925715 
L 183.465387 105.256415 
L 185.37958 104.949528 
L 187.293773 104.796122 
L 189.207965 102.861829 
L 191.122158 101.162646 
L 193.03635 100.937442 
L 194.950543 100.533169 
L 198.778928 100.43304 
L 200.69312 99.474839 
L 202.607313 98.837758 
L 204.521506 97.906199 
L 206.435698 97.543153 
L 210.264083 96.965179 
L 212.178276 96.938899 
L 214.092468 95.208289 
L 217.920853 95.177247 
L 219.835046 94.641851 
L 221.749239 94.634793 
L 225.577624 94.317089 
L 227.491816 93.935636 
L 229.406009 89.627303 
L 231.320201 88.657745 
L 235.148586 88.489351 
L 237.062779 87.515539 
L 240.891164 87.318364 
L 242.805357 86.30978 
L 244.719549 83.423029 
L 246.633742 82.825612 
L 248.547934 82.416745 
L 250.462127 81.194134 
L 252.37632 79.772678 
L 254.290512 79.229732 
L 256.204705 77.729726 
L 258.118897 77.055457 
L 260.03309 74.486549 
L 261.947282 74.134713 
L 263.861475 74.132803 
L 265.775667 72.934847 
L 267.68986 71.961336 
L 269.604053 71.250497 
L 271.518245 69.98226 
L 273.432438 69.75934 
L 275.34663 69.011613 
L 277.260823 67.04614 
L 279.175015 67.033779 
L 281.089208 65.265328 
L 283.0034 63.675485 
L 284.917593 62.443025 
L 286.831786 62.212729 
L 288.745978 62.098463 
L 292.574363 61.53704 
L 296.402748 61.454957 
L 298.316941 60.718577 
L 300.231133 60.545746 
L 302.145326 58.638701 
L 304.059519 58.299021 
L 305.973711 56.940867 
L 307.887904 56.454769 
L 309.802096 55.273909 
L 311.716289 55.039477 
L 313.630481 54.989348 
L 315.544674 54.238861 
L 317.458867 53.717963 
L 321.287252 52.186794 
L 323.201444 52.062975 
L 325.115637 51.193885 
L 327.029829 49.584544 
L 328.944022 49.570652 
L 330.858214 48.539273 
L 332.772407 47.944702 
L 338.514985 47.413196 
L 340.429177 46.998003 
L 342.34337 46.962081 
L 344.257562 43.251645 
L 351.914333 42.688615 
L 353.828525 42.151281 
L 355.742718 41.870121 
L 357.65691 41.428971 
L 359.571103 41.187533 
L 361.485295 40.537331 
L 363.399488 40.238099 
L 365.31368 39.802368 
L 369.142066 39.668099 
L 371.056258 39.070005 
L 372.970451 37.926302 
L 374.884643 37.783613 
L 376.798836 37.151937 
L 378.713028 36.759961 
L 380.627221 35.961685 
L 384.455606 35.826883 
L 386.369799 35.134213 
L 388.283991 34.818944 
L 390.198184 34.192072 
L 392.112376 34.108933 
L 394.026569 33.170769 
L 399.769147 32.92665 
L 401.683339 32.556967 
L 403.597532 32.354611 
L 409.340109 32.18542 
L 411.254302 31.738011 
L 413.168494 31.710338 
L 416.99688 31.358353 
L 418.911072 31.35219 
L 420.825265 30.447469 
L 422.739457 30.374579 
L 424.65365 29.934023 
L 426.567842 28.435228 
L 428.482035 28.301818 
L 535.676818 28.301818 
L 535.676818 28.301818 
" style="fill:none;stroke:#9467bd;stroke-linecap:square;"/>
   </g>
   <g id="legend_1">
    <g id="patch_3">
     <path d="M 67.4934 57.458441 
L 273.679382 57.458441 
Q 276.011782 57.458441 276.011782 55.126041 
L 276.011782 25.8034 
Q 276.011782 23.471 273.679382 23.471 
L 67.4934 23.471 
Q 65.161 23.471 65.161 25.8034 
L 65.161 55.126041 
Q 65.161 57.458441 67.4934 57.458441 
z
" style="fill:#ffffff;opacity:0.8;stroke:#cccccc;stroke-linejoin:miter;"/>
    </g>
    <g id="line2d_18">
     <path d="M 69.8258 32.505406 
L 93.1498 32.505406 
" style="fill:none;stroke:#1f77b4;stroke-linecap:square;stroke-width:2;"/>
    </g>
    <g id="line2d_19"/>
    <g id="text_14">
     <!-- MARKET -->
     <defs>
      <path d="M 54.6875 0 
L 54.6875 45.90625 
Q 54.6875 48.390625 54.734375 50.96875 
Q 54.78125 53.5625 54.828125 55.71875 
Q 54.9375 58.203125 55.078125 60.546875 
Q 54.546875 58.0625 53.90625 55.609375 
Q 53.90625 55.609375 52.734375 51.171875 
Q 52.15625 48.78125 51.515625 46.875 
L 36.96875 0 
L 31.59375 0 
L 16.796875 46.875 
Q 16.546875 47.609375 16.3125 48.578125 
L 15.765625 50.6875 
L 15.140625 52.9375 
L 14.546875 55.171875 
Q 13.875 57.765625 13.234375 60.546875 
Q 13.28125 57.8125 13.375 55.125 
Q 13.484375 52.828125 13.5 50.3125 
Q 13.53125 47.796875 13.53125 45.90625 
L 13.53125 0 
L 6.734375 0 
L 6.734375 68.796875 
L 16.796875 68.796875 
L 31.78125 21.09375 
Q 32.078125 20.125 32.46875 18.578125 
Q 32.859375 17.046875 33.21875 15.421875 
Q 33.59375 13.8125 33.890625 12.375 
Q 34.1875 10.9375 34.328125 10.15625 
Q 34.421875 10.9375 34.734375 12.40625 
Q 35.0625 13.875 35.5 15.484375 
L 36.328125 18.609375 
Q 36.71875 20.125 37.0625 21.09375 
L 51.765625 68.796875 
L 61.578125 68.796875 
L 61.578125 0 
z
" id="LiberationSansNarrow-77"/>
      <path d="M 46.734375 0 
L 40.28125 20.125 
L 14.546875 20.125 
L 8.109375 0 
L 0.140625 0 
L 23.1875 68.796875 
L 31.890625 68.796875 
L 54.546875 0 
z
M 30.765625 50.09375 
Q 30.125 52.046875 29.546875 54.046875 
L 28.515625 57.71875 
L 27.734375 60.453125 
Q 27.4375 61.53125 27.4375 61.765625 
Q 27.34375 61.53125 27.078125 60.40625 
Q 26.8125 59.28125 26.375 57.625 
L 25.296875 53.953125 
L 24.125 50 
L 16.890625 27.390625 
L 37.984375 27.390625 
z
" id="LiberationSansNarrow-65"/>
      <path d="M 46.578125 0 
L 31.9375 28.5625 
L 14.359375 28.5625 
L 14.359375 0 
L 6.734375 0 
L 6.734375 68.796875 
L 33.25 68.796875 
Q 38.03125 68.796875 41.734375 67.453125 
Q 45.453125 66.109375 47.96875 63.5625 
Q 50.484375 61.03125 51.796875 57.375 
Q 53.125 53.71875 53.125 49.125 
Q 53.125 45.84375 52.34375 42.671875 
Q 51.5625 39.5 49.875 36.859375 
Q 48.1875 34.234375 45.59375 32.328125 
Q 43.015625 30.421875 39.359375 29.640625 
L 55.375 0 
z
M 45.453125 49.03125 
Q 45.453125 52.15625 44.578125 54.4375 
Q 43.703125 56.734375 42.015625 58.265625 
Q 40.328125 59.8125 37.9375 60.5625 
Q 35.546875 61.328125 32.46875 61.328125 
L 14.359375 61.328125 
L 14.359375 35.9375 
L 32.8125 35.9375 
Q 36.078125 35.9375 38.5 36.9375 
Q 40.921875 37.9375 42.453125 39.6875 
Q 44 41.453125 44.71875 43.84375 
Q 45.453125 46.234375 45.453125 49.03125 
z
" id="LiberationSansNarrow-82"/>
      <path d="M 44.28125 0 
L 21.734375 33.203125 
L 14.359375 26.375 
L 14.359375 0 
L 6.734375 0 
L 6.734375 68.796875 
L 14.359375 68.796875 
L 14.359375 34.328125 
L 41.546875 68.796875 
L 50.59375 68.796875 
L 26.5625 38.921875 
L 53.765625 0 
z
" id="LiberationSansNarrow-75"/>
      <path d="M 6.734375 0 
L 6.734375 68.796875 
L 49.515625 68.796875 
L 49.515625 61.1875 
L 14.359375 61.1875 
L 14.359375 39.109375 
L 47.125 39.109375 
L 47.125 31.59375 
L 14.359375 31.59375 
L 14.359375 7.625 
L 51.171875 7.625 
L 51.171875 0 
z
" id="LiberationSansNarrow-69"/>
      <path d="M 28.8125 61.1875 
L 28.8125 0 
L 21.234375 0 
L 21.234375 61.1875 
L 1.859375 61.1875 
L 1.859375 68.796875 
L 48.1875 68.796875 
L 48.1875 61.1875 
z
" id="LiberationSansNarrow-84"/>
     </defs>
     <g transform="translate(102.4794 36.587106)scale(0.11662 -0.11662)">
      <use xlink:href="#LiberationSansNarrow-77"/>
      <use x="68.310547" xlink:href="#LiberationSansNarrow-65"/>
      <use x="122.998047" xlink:href="#LiberationSansNarrow-82"/>
      <use x="182.177734" xlink:href="#LiberationSansNarrow-75"/>
      <use x="236.865234" xlink:href="#LiberationSansNarrow-69"/>
      <use x="291.552734" xlink:href="#LiberationSansNarrow-84"/>
     </g>
    </g>
    <g id="line2d_20">
     <path d="M 69.8258 46.292076 
L 93.1498 46.292076 
" style="fill:none;stroke:#ff7f0e;stroke-linecap:square;"/>
    </g>
    <g id="line2d_21"/>
    <g id="text_15">
     <!-- Lcap -->
     <defs>
      <path d="M 6.734375 0 
L 6.734375 68.796875 
L 14.359375 68.796875 
L 14.359375 7.625 
L 42.875 7.625 
L 42.875 0 
z
" id="LiberationSansNarrow-76"/>
      <path d="M 11.03125 26.65625 
Q 11.03125 22.125 11.5625 18.3125 
Q 12.109375 14.5 13.375 11.734375 
Q 14.65625 8.984375 16.75 7.46875 
Q 18.84375 5.953125 21.96875 5.953125 
Q 25.828125 5.953125 28.390625 8.484375 
Q 30.953125 11.03125 31.546875 16.3125 
L 38.875 15.71875 
Q 38.53125 12.453125 37.296875 9.421875 
Q 36.078125 6.390625 34.03125 4.09375 
Q 31.984375 1.8125 29 0.40625 
Q 26.03125 -0.984375 22.171875 -0.984375 
Q 17.09375 -0.984375 13.5 1.109375 
Q 9.90625 3.21875 7.6875 6.90625 
Q 5.46875 10.59375 4.46875 15.59375 
Q 3.46875 20.609375 3.46875 26.46875 
Q 3.46875 31.78125 4.203125 35.859375 
Q 4.9375 39.9375 6.21875 42.984375 
Q 7.515625 46.046875 9.265625 48.125 
Q 11.03125 50.203125 13.109375 51.4375 
Q 15.1875 52.6875 17.453125 53.25 
Q 19.734375 53.8125 22.078125 53.8125 
Q 25.734375 53.8125 28.5625 52.59375 
Q 31.390625 51.375 33.46875 49.25 
Q 35.546875 47.125 36.8125 44.234375 
Q 38.09375 41.359375 38.625 38.03125 
L 31.203125 37.359375 
Q 30.671875 41.75 28.375 44.328125 
Q 26.078125 46.921875 21.875 46.921875 
Q 18.796875 46.921875 16.71875 45.671875 
Q 14.65625 44.4375 13.375 41.921875 
Q 12.109375 39.40625 11.5625 35.59375 
Q 11.03125 31.78125 11.03125 26.65625 
z
" id="LiberationSansNarrow-99"/>
      <path d="M 16.546875 -0.984375 
Q 10.015625 -0.984375 6.734375 3.21875 
Q 3.46875 7.421875 3.46875 14.75 
Q 3.46875 19.96875 5.09375 23.3125 
Q 6.734375 26.65625 9.34375 28.5625 
Q 11.96875 30.46875 15.328125 31.203125 
Q 18.703125 31.9375 22.171875 32.03125 
L 31.9375 32.234375 
L 31.9375 35.109375 
Q 31.9375 38.375 31.375 40.671875 
Q 30.8125 42.96875 29.640625 44.375 
Q 28.46875 45.796875 26.734375 46.453125 
Q 25 47.125 22.609375 47.125 
Q 20.515625 47.125 18.84375 46.75 
Q 17.1875 46.390625 15.9375 45.4375 
Q 14.703125 44.484375 13.9375 42.84375 
Q 13.1875 41.21875 12.9375 38.71875 
L 5.421875 39.546875 
Q 5.8125 42.671875 6.9375 45.28125 
Q 8.0625 47.90625 10.109375 49.796875 
Q 12.15625 51.703125 15.25 52.75 
Q 18.359375 53.8125 22.796875 53.8125 
Q 30.953125 53.8125 35.078125 49.234375 
Q 39.203125 44.671875 39.203125 36.03125 
L 39.203125 13.28125 
Q 39.203125 9.375 40.03125 7.390625 
Q 40.875 5.421875 43.265625 5.421875 
Q 43.84375 5.421875 44.453125 5.515625 
Q 45.0625 5.609375 45.609375 5.765625 
L 45.609375 0.296875 
Q 44.234375 -0.09375 42.890625 -0.28125 
Q 41.546875 -0.484375 40.046875 -0.484375 
Q 37.984375 -0.484375 36.515625 0.171875 
Q 35.0625 0.828125 34.15625 2.171875 
Q 33.25 3.515625 32.765625 5.484375 
Q 32.28125 7.46875 32.125 10.109375 
L 31.9375 10.109375 
Q 30.765625 7.5625 29.375 5.515625 
Q 27.984375 3.46875 26.140625 2.03125 
Q 24.3125 0.59375 21.9375 -0.1875 
Q 19.578125 -0.984375 16.546875 -0.984375 
z
M 18.21875 5.609375 
Q 21.6875 5.609375 24.25 7.140625 
Q 26.8125 8.6875 28.515625 11.078125 
Q 30.21875 13.484375 31.078125 16.3125 
Q 31.9375 19.140625 31.9375 21.734375 
L 31.9375 26.078125 
L 24.03125 25.875 
Q 21.390625 25.828125 19 25.40625 
Q 16.609375 25 14.8125 23.78125 
Q 13.03125 22.5625 11.953125 20.359375 
Q 10.890625 18.171875 10.890625 14.59375 
Q 10.890625 10.296875 12.796875 7.953125 
Q 14.703125 5.609375 18.21875 5.609375 
z
" id="LiberationSansNarrow-97"/>
      <path d="M 42.140625 26.65625 
Q 42.140625 20.65625 41.359375 15.578125 
Q 40.578125 10.5 38.6875 6.828125 
Q 36.8125 3.171875 33.765625 1.09375 
Q 30.71875 -0.984375 26.21875 -0.984375 
Q 21.578125 -0.984375 18.078125 1.171875 
Q 14.59375 3.328125 12.796875 8.203125 
L 12.546875 8.203125 
Q 12.59375 8.109375 12.609375 7.328125 
Q 12.640625 6.546875 12.671875 5.375 
Q 12.703125 4.203125 12.71875 2.75 
Q 12.75 1.3125 12.75 -0.09375 
L 12.75 -20.75 
L 5.515625 -20.75 
L 5.515625 42.046875 
Q 5.515625 43.953125 5.484375 45.703125 
Q 5.46875 47.46875 5.4375 48.90625 
Q 5.421875 50.34375 5.375 51.359375 
Q 5.328125 52.390625 5.28125 52.828125 
L 12.25 52.828125 
Q 12.3125 52.6875 12.359375 51.8125 
L 12.5 49.703125 
Q 12.546875 48.4375 12.59375 47.015625 
Q 12.640625 45.609375 12.640625 44.34375 
L 12.796875 44.34375 
Q 13.765625 46.875 15.0625 48.65625 
Q 16.359375 50.4375 18.015625 51.578125 
Q 19.671875 52.734375 21.671875 53.25 
Q 23.6875 53.765625 26.21875 53.765625 
Q 30.71875 53.765625 33.765625 51.8125 
Q 36.8125 49.859375 38.6875 46.3125 
Q 40.578125 42.78125 41.359375 37.765625 
Q 42.140625 32.765625 42.140625 26.65625 
z
M 34.578125 26.46875 
Q 34.578125 31.34375 34.109375 35.15625 
Q 33.640625 38.96875 32.4375 41.59375 
Q 31.25 44.234375 29.296875 45.59375 
Q 27.34375 46.96875 24.359375 46.96875 
Q 21.96875 46.96875 19.84375 46.140625 
Q 17.71875 45.3125 16.125 42.96875 
Q 14.546875 40.625 13.640625 36.5 
Q 12.75 32.375 12.75 25.78125 
Q 12.75 20.171875 13.5 16.28125 
Q 14.265625 12.40625 15.71875 10.015625 
Q 17.1875 7.625 19.328125 6.5625 
Q 21.484375 5.515625 24.3125 5.515625 
Q 27.34375 5.515625 29.296875 6.921875 
Q 31.25 8.34375 32.4375 11.03125 
Q 33.640625 13.71875 34.109375 17.59375 
Q 34.578125 21.484375 34.578125 26.46875 
z
" id="LiberationSansNarrow-112"/>
     </defs>
     <g transform="translate(102.4794 50.373776)scale(0.11662 -0.11662)">
      <use xlink:href="#LiberationSansNarrow-76"/>
      <use x="45.605469" xlink:href="#LiberationSansNarrow-99"/>
      <use x="86.621094" xlink:href="#LiberationSansNarrow-97"/>
      <use x="132.226562" xlink:href="#LiberationSansNarrow-112"/>
     </g>
    </g>
    <g id="line2d_22">
     <path d="M 153.985352 32.505406 
L 177.309352 32.505406 
" style="fill:none;stroke:#2ca02c;stroke-linecap:square;"/>
    </g>
    <g id="line2d_23"/>
    <g id="text_16">
     <!-- Lpb -->
     <defs>
      <path d="M 42.140625 26.65625 
Q 42.140625 -0.984375 26.21875 -0.984375 
Q 21.296875 -0.984375 18.046875 1.1875 
Q 14.796875 3.375 12.75 8.203125 
L 12.640625 8.203125 
Q 12.640625 6.9375 12.59375 5.5625 
Q 12.546875 4.203125 12.5 3.03125 
L 12.359375 1.03125 
Q 12.3125 0.203125 12.25 0 
L 5.28125 0 
Q 5.328125 0.4375 5.375 1.484375 
Q 5.421875 2.546875 5.4375 4 
Q 5.46875 5.46875 5.484375 7.21875 
Q 5.515625 8.984375 5.515625 10.890625 
L 5.515625 72.46875 
L 12.75 72.46875 
L 12.75 51.8125 
Q 12.75 50.34375 12.71875 49 
Q 12.703125 47.65625 12.640625 46.625 
Q 12.59375 45.40625 12.546875 44.34375 
L 12.75 44.34375 
Q 14.75 49.421875 18.046875 51.609375 
Q 21.34375 53.8125 26.21875 53.8125 
Q 34.421875 53.8125 38.28125 47.0625 
Q 42.140625 40.328125 42.140625 26.65625 
z
M 34.578125 26.375 
Q 34.578125 31.84375 34.03125 35.75 
Q 33.5 39.65625 32.25 42.15625 
Q 31 44.671875 29.078125 45.84375 
Q 27.15625 47.015625 24.359375 47.015625 
Q 21.53125 47.015625 19.359375 45.890625 
Q 17.1875 44.78125 15.71875 42.28125 
Q 14.265625 39.796875 13.5 35.734375 
Q 12.75 31.6875 12.75 25.828125 
Q 12.75 20.171875 13.5 16.3125 
Q 14.265625 12.453125 15.71875 10.03125 
Q 17.1875 7.625 19.328125 6.5625 
Q 21.484375 5.515625 24.3125 5.515625 
Q 26.953125 5.515625 28.875 6.640625 
Q 30.8125 7.765625 32.078125 10.25 
Q 33.34375 12.75 33.953125 16.71875 
Q 34.578125 20.703125 34.578125 26.375 
z
" id="LiberationSansNarrow-98"/>
     </defs>
     <g transform="translate(186.638952 36.587106)scale(0.11662 -0.11662)">
      <use xlink:href="#LiberationSansNarrow-76"/>
      <use x="45.605469" xlink:href="#LiberationSansNarrow-112"/>
      <use x="91.210938" xlink:href="#LiberationSansNarrow-98"/>
     </g>
    </g>
    <g id="line2d_24">
     <path d="M 153.985352 46.292076 
L 177.309352 46.292076 
" style="fill:none;stroke:#d62728;stroke-linecap:square;"/>
    </g>
    <g id="line2d_25"/>
    <g id="text_17">
     <!-- Lgro -->
     <defs>
      <path d="M 21.921875 -20.75 
Q 18.21875 -20.75 15.328125 -19.8125 
Q 12.453125 -18.890625 10.390625 -17.15625 
Q 8.34375 -15.4375 7.078125 -13.03125 
Q 5.8125 -10.640625 5.21875 -7.71875 
L 12.5 -6.453125 
Q 13.234375 -10.109375 15.671875 -12.078125 
Q 18.109375 -14.0625 22.125 -14.0625 
Q 24.5625 -14.0625 26.5625 -13.234375 
Q 28.5625 -12.40625 29.96875 -10.5625 
Q 31.390625 -8.734375 32.140625 -5.796875 
Q 32.90625 -2.875 32.90625 1.3125 
L 32.90625 9.8125 
L 32.8125 9.8125 
Q 32.03125 7.8125 30.859375 5.984375 
Q 29.6875 4.15625 27.96875 2.734375 
Q 26.265625 1.3125 24.015625 0.453125 
Q 21.78125 -0.390625 18.890625 -0.390625 
Q 14.796875 -0.390625 11.84375 1.296875 
Q 8.890625 2.984375 7.03125 6.34375 
Q 5.171875 9.71875 4.3125 14.71875 
Q 3.46875 19.734375 3.46875 26.3125 
Q 3.46875 32.671875 4.3125 37.75 
Q 5.171875 42.828125 7.09375 46.359375 
Q 9.03125 49.90625 12.125 51.78125 
Q 15.234375 53.65625 19.671875 53.65625 
Q 24.265625 53.65625 27.65625 51.09375 
Q 31.0625 48.53125 32.90625 43.796875 
L 33.015625 43.796875 
Q 33.015625 45.015625 33.0625 46.53125 
Q 33.109375 48.046875 33.171875 49.390625 
Q 33.25 50.734375 33.328125 51.703125 
Q 33.40625 52.6875 33.5 52.828125 
L 40.328125 52.828125 
Q 40.28125 52.390625 40.234375 51.34375 
Q 40.1875 50.296875 40.15625 48.828125 
Q 40.140625 47.359375 40.109375 45.578125 
Q 40.09375 43.796875 40.09375 41.890625 
L 40.09375 1.515625 
Q 40.09375 -9.578125 35.625 -15.15625 
Q 31.15625 -20.75 21.921875 -20.75 
z
M 32.90625 26.421875 
Q 32.90625 31.9375 31.921875 35.859375 
Q 30.953125 39.796875 29.34375 42.28125 
Q 27.734375 44.78125 25.6875 45.953125 
Q 23.640625 47.125 21.484375 47.125 
Q 18.703125 47.125 16.71875 45.953125 
Q 14.75 44.78125 13.421875 42.265625 
Q 12.109375 39.75 11.5 35.8125 
Q 10.890625 31.890625 10.890625 26.421875 
Q 10.890625 20.703125 11.5 16.8125 
Q 12.109375 12.9375 13.40625 10.546875 
Q 14.703125 8.15625 16.65625 7.125 
Q 18.609375 6.109375 21.34375 6.109375 
Q 23.484375 6.109375 25.5625 7.21875 
Q 27.640625 8.34375 29.265625 10.78125 
Q 30.90625 13.234375 31.90625 17.09375 
Q 32.90625 20.953125 32.90625 26.421875 
z
" id="LiberationSansNarrow-103"/>
      <path d="M 5.671875 0 
L 5.671875 40.53125 
Q 5.671875 40.53125 5.671875 43.953125 
Q 5.671875 45.65625 5.609375 47.265625 
Q 5.5625 48.875 5.515625 50.28125 
Q 5.46875 51.703125 5.421875 52.828125 
L 12.25 52.828125 
Q 12.3125 51.703125 12.359375 50.265625 
Q 12.40625 48.828125 12.46875 47.3125 
Q 12.546875 45.796875 12.546875 44.4375 
L 12.546875 42.046875 
L 12.75 42.046875 
Q 13.53125 45.0625 14.359375 47.28125 
Q 15.1875 49.515625 16.359375 50.953125 
Q 17.53125 52.390625 19.140625 53.09375 
Q 20.75 53.8125 23 53.8125 
Q 23.875 53.8125 24.671875 53.640625 
Q 25.484375 53.46875 25.921875 53.328125 
L 25.921875 45.265625 
Q 25.203125 45.515625 24.25 45.625 
Q 23.296875 45.75 22.078125 45.75 
Q 19.578125 45.75 17.84375 44.375 
Q 16.109375 43.015625 15.015625 40.59375 
Q 13.921875 38.1875 13.40625 34.84375 
Q 12.890625 31.5 12.890625 27.546875 
L 12.890625 0 
z
" id="LiberationSansNarrow-114"/>
      <path d="M 42.140625 26.46875 
Q 42.140625 12.59375 37.125 5.796875 
Q 32.125 -0.984375 22.609375 -0.984375 
Q 18.0625 -0.984375 14.515625 0.671875 
Q 10.984375 2.34375 8.515625 5.765625 
Q 6.0625 9.1875 4.765625 14.328125 
Q 3.46875 19.484375 3.46875 26.46875 
Q 3.46875 53.8125 22.859375 53.8125 
Q 27.875 53.8125 31.5625 52.09375 
Q 35.25 50.390625 37.59375 46.96875 
Q 39.9375 43.5625 41.03125 38.421875 
Q 42.140625 33.296875 42.140625 26.46875 
z
M 34.578125 26.46875 
Q 34.578125 32.625 33.8125 36.625 
Q 33.0625 40.625 31.546875 43.015625 
Q 30.03125 45.40625 27.859375 46.359375 
Q 25.6875 47.3125 23 47.3125 
Q 20.21875 47.3125 17.984375 46.3125 
Q 15.765625 45.3125 14.203125 42.890625 
Q 12.640625 40.484375 11.828125 36.46875 
Q 11.03125 32.46875 11.03125 26.46875 
Q 11.03125 20.3125 11.90625 16.28125 
Q 12.796875 12.25 14.328125 9.859375 
Q 15.875 7.46875 17.96875 6.484375 
Q 20.0625 5.515625 22.5625 5.515625 
Q 25.34375 5.515625 27.5625 6.46875 
Q 29.78125 7.421875 31.34375 9.8125 
Q 32.90625 12.203125 33.734375 16.25 
Q 34.578125 20.3125 34.578125 26.46875 
z
" id="LiberationSansNarrow-111"/>
     </defs>
     <g transform="translate(186.638952 50.373776)scale(0.11662 -0.11662)">
      <use xlink:href="#LiberationSansNarrow-76"/>
      <use x="45.605469" xlink:href="#LiberationSansNarrow-103"/>
      <use x="91.210938" xlink:href="#LiberationSansNarrow-114"/>
      <use x="118.505859" xlink:href="#LiberationSansNarrow-111"/>
     </g>
    </g>
    <g id="line2d_26">
     <path d="M 217.441209 32.505406 
L 240.765209 32.505406 
" style="fill:none;stroke:#9467bd;stroke-linecap:square;"/>
    </g>
    <g id="line2d_27"/>
    <g id="text_18">
     <!-- mom -->
     <defs>
      <path d="M 30.765625 0 
L 30.765625 33.5 
Q 30.765625 37.359375 30.34375 39.9375 
Q 29.9375 42.53125 29 44.109375 
Q 28.078125 45.703125 26.5625 46.359375 
Q 25.046875 47.015625 22.796875 47.015625 
Q 20.515625 47.015625 18.671875 45.921875 
Q 16.84375 44.828125 15.546875 42.75 
Q 14.265625 40.671875 13.546875 37.625 
Q 12.84375 34.578125 12.84375 30.609375 
L 12.84375 0 
L 5.671875 0 
L 5.671875 41.546875 
Q 5.671875 41.546875 5.671875 45.015625 
Q 5.671875 46.875 5.609375 48.5 
Q 5.5625 50.140625 5.515625 51.3125 
Q 5.46875 52.484375 5.46875 52.828125 
L 12.25 52.828125 
Q 12.3125 52.59375 12.328125 51.515625 
Q 12.359375 50.4375 12.421875 49.046875 
Q 12.5 47.65625 12.515625 46.21875 
Q 12.546875 44.78125 12.546875 43.796875 
L 12.703125 43.796875 
Q 13.671875 46.09375 14.796875 47.953125 
Q 15.921875 49.8125 17.40625 51.09375 
Q 18.890625 52.390625 20.84375 53.09375 
Q 22.796875 53.8125 25.34375 53.8125 
Q 30.28125 53.8125 33.125 51.421875 
Q 35.984375 49.03125 37.109375 43.796875 
L 37.25 43.796875 
Q 38.234375 46.09375 39.421875 47.953125 
Q 40.625 49.8125 42.203125 51.09375 
Q 43.796875 52.390625 45.796875 53.09375 
Q 47.796875 53.8125 50.390625 53.8125 
Q 53.65625 53.8125 56.03125 52.734375 
Q 58.40625 51.65625 59.9375 49.40625 
Q 61.46875 47.171875 62.171875 43.625 
Q 62.890625 40.09375 62.890625 35.203125 
L 62.890625 0 
L 55.765625 0 
L 55.765625 33.5 
Q 55.765625 37.359375 55.375 39.9375 
Q 54.984375 42.53125 54.03125 44.109375 
Q 53.078125 45.703125 51.5625 46.359375 
Q 50.046875 47.015625 47.859375 47.015625 
Q 45.5625 47.015625 43.71875 45.96875 
Q 41.890625 44.921875 40.578125 42.875 
Q 39.265625 40.828125 38.578125 37.75 
Q 37.890625 34.671875 37.890625 30.609375 
L 37.890625 0 
z
" id="LiberationSansNarrow-109"/>
     </defs>
     <g transform="translate(250.094809 36.587106)scale(0.11662 -0.11662)">
      <use xlink:href="#LiberationSansNarrow-109"/>
      <use x="68.310547" xlink:href="#LiberationSansNarrow-111"/>
      <use x="113.916016" xlink:href="#LiberationSansNarrow-109"/>
     </g>
    </g>
   </g>
  </g>
 </g>
 <defs>
  <clipPath id="p08cbef0d5a">
   <rect height="234.56" width="499.03" x="59.33" y="17.64"/>
  </clipPath>
 </defs>
</svg>
