<?xml version="1.0" encoding="utf-8" standalone="no"?>
<!DOCTYPE svg PUBLIC "-//W3C//DTD SVG 1.1//EN"
  "http://www.w3.org/Graphics/SVG/1.1/DTD/svg11.dtd">
<!-- Created with matplotlib (https://matplotlib.org/) -->
<svg height="288pt" version="1.1" viewBox="0 0 576 288" width="576pt" xmlns="http://www.w3.org/2000/svg" xmlns:xlink="http://www.w3.org/1999/xlink">
 <defs>
  <style type="text/css">
*{stroke-linecap:butt;stroke-linejoin:round;}
  </style>
 </defs>
 <g id="figure_1">
  <g id="patch_1">
   <path d="M 0 288 
L 576 288 
L 576 0 
L 0 0 
z
" style="fill:#ffffff;"/>
  </g>
  <g id="axes_1">
   <g id="patch_2">
    <path d="M 59.33 252.2 
L 558.36 252.2 
L 558.36 17.64 
L 59.33 17.64 
z
" style="fill:#ffffff;"/>
   </g>
   <g id="matplotlib.axis_1">
    <g id="xtick_1">
     <g id="line2d_1">
      <path clip-path="url(#p88e92dd118)" d="M 82.013182 252.2 
L 82.013182 17.64 
" style="fill:none;stroke:#b0b0b0;stroke-dasharray:1.48,0.64;stroke-dashoffset:0;stroke-width:0.4;"/>
     </g>
     <g id="text_1">
      <!-- 0.0 -->
      <defs>
       <path d="M 42.390625 34.421875 
Q 42.390625 24.515625 40.84375 17.75 
Q 39.3125 10.984375 36.640625 6.8125 
Q 33.984375 2.640625 30.390625 0.828125 
Q 26.8125 -0.984375 22.703125 -0.984375 
Q 18.609375 -0.984375 15.03125 0.828125 
Q 11.46875 2.640625 8.828125 6.78125 
Q 6.203125 10.9375 4.703125 17.703125 
Q 3.21875 24.46875 3.21875 34.421875 
Q 3.21875 44.828125 4.703125 51.640625 
Q 6.203125 58.453125 8.828125 62.5 
Q 11.46875 66.546875 15.078125 68.1875 
Q 18.703125 69.828125 22.953125 69.828125 
Q 27 69.828125 30.53125 68.1875 
Q 34.078125 66.546875 36.71875 62.5 
Q 39.359375 58.453125 40.875 51.640625 
Q 42.390625 44.828125 42.390625 34.421875 
z
M 35.0625 34.421875 
Q 35.0625 42.625 34.28125 48.0625 
Q 33.5 53.515625 31.9375 56.765625 
Q 30.375 60.015625 28.09375 61.359375 
Q 25.828125 62.703125 22.953125 62.703125 
Q 19.921875 62.703125 17.578125 61.328125 
Q 15.234375 59.96875 13.671875 56.71875 
Q 12.109375 53.46875 11.296875 48.015625 
Q 10.5 42.578125 10.5 34.421875 
Q 10.5 26.515625 11.296875 21.09375 
Q 12.109375 15.671875 13.6875 12.375 
Q 15.28125 9.078125 17.578125 7.640625 
Q 19.875 6.203125 22.796875 6.203125 
Q 25.640625 6.203125 27.90625 7.640625 
Q 30.171875 9.078125 31.75 12.375 
Q 33.34375 15.671875 34.203125 21.09375 
Q 35.0625 26.515625 35.0625 34.421875 
z
" id="LiberationSansNarrow-48"/>
       <path d="M 7.46875 0 
L 7.46875 10.6875 
L 15.328125 10.6875 
L 15.328125 0 
z
" id="LiberationSansNarrow-46"/>
      </defs>
      <g transform="translate(74.032088 269.345625)scale(0.14 -0.14)">
       <use xlink:href="#LiberationSansNarrow-48"/>
       <use x="45.605469" xlink:href="#LiberationSansNarrow-46"/>
       <use x="68.408203" xlink:href="#LiberationSansNarrow-48"/>
      </g>
     </g>
    </g>
    <g id="xtick_2">
     <g id="line2d_2">
      <path clip-path="url(#p88e92dd118)" d="M 172.745909 252.2 
L 172.745909 17.64 
" style="fill:none;stroke:#b0b0b0;stroke-dasharray:1.48,0.64;stroke-dashoffset:0;stroke-width:0.4;"/>
     </g>
     <g id="text_2">
      <!-- 0.2 -->
      <defs>
       <path d="M 4.109375 0 
L 4.109375 6.203125 
Q 6.15625 11.921875 9.109375 16.28125 
Q 12.0625 20.65625 15.3125 24.1875 
Q 18.5625 27.734375 21.734375 30.765625 
Q 24.90625 33.796875 27.46875 36.8125 
Q 30.03125 39.84375 31.609375 43.15625 
Q 33.203125 46.484375 33.203125 50.6875 
Q 33.203125 53.609375 32.46875 55.828125 
Q 31.734375 58.0625 30.390625 59.5625 
Q 29.046875 61.078125 27.140625 61.828125 
Q 25.25 62.59375 22.90625 62.59375 
Q 20.75 62.59375 18.84375 61.859375 
Q 16.9375 61.140625 15.453125 59.671875 
Q 13.96875 58.203125 13.03125 56.03125 
Q 12.109375 53.859375 11.8125 50.984375 
L 4.4375 51.8125 
Q 4.78125 55.515625 6.125 58.78125 
Q 7.46875 62.0625 9.78125 64.53125 
Q 12.109375 67 15.359375 68.40625 
Q 18.609375 69.828125 22.90625 69.828125 
Q 27.09375 69.828125 30.390625 68.609375 
Q 33.6875 67.390625 35.9375 64.984375 
Q 38.1875 62.59375 39.40625 59.078125 
Q 40.625 55.5625 40.625 50.984375 
Q 40.625 47.515625 39.59375 44.390625 
Q 38.578125 41.265625 36.859375 38.421875 
Q 35.15625 35.59375 32.90625 32.953125 
Q 30.671875 30.328125 28.21875 27.828125 
L 23.296875 22.859375 
Q 20.796875 20.359375 18.625 17.859375 
Q 16.453125 15.375 14.734375 12.8125 
Q 13.03125 10.25 12.0625 7.46875 
L 41.5 7.46875 
L 41.5 0 
z
" id="LiberationSansNarrow-50"/>
      </defs>
      <g transform="translate(164.764815 269.345625)scale(0.14 -0.14)">
       <use xlink:href="#LiberationSansNarrow-48"/>
       <use x="45.605469" xlink:href="#LiberationSansNarrow-46"/>
       <use x="68.408203" xlink:href="#LiberationSansNarrow-50"/>
      </g>
     </g>
    </g>
    <g id="xtick_3">
     <g id="line2d_3">
      <path clip-path="url(#p88e92dd118)" d="M 263.478636 252.2 
L 263.478636 17.64 
" style="fill:none;stroke:#b0b0b0;stroke-dasharray:1.48,0.64;stroke-dashoffset:0;stroke-width:0.4;"/>
     </g>
     <g id="text_3">
      <!-- 0.4 -->
      <defs>
       <path d="M 35.25 15.578125 
L 35.25 0 
L 28.46875 0 
L 28.46875 15.578125 
L 1.90625 15.578125 
L 1.90625 22.40625 
L 27.6875 68.796875 
L 35.25 68.796875 
L 35.25 22.515625 
L 43.21875 22.515625 
L 43.21875 15.578125 
z
M 28.46875 58.890625 
Q 28.375 58.640625 28.03125 57.90625 
L 27.34375 56.34375 
L 26.5625 54.59375 
Q 26.125 53.65625 25.78125 53.078125 
L 11.328125 27.09375 
Q 11.140625 26.703125 10.75 26.078125 
L 9.96875 24.8125 
L 9.1875 23.484375 
Q 8.796875 22.859375 8.546875 22.515625 
L 28.46875 22.515625 
z
" id="LiberationSansNarrow-52"/>
      </defs>
      <g transform="translate(255.497543 269.345625)scale(0.14 -0.14)">
       <use xlink:href="#LiberationSansNarrow-48"/>
       <use x="45.605469" xlink:href="#LiberationSansNarrow-46"/>
       <use x="68.408203" xlink:href="#LiberationSansNarrow-52"/>
      </g>
     </g>
    </g>
    <g id="xtick_4">
     <g id="line2d_4">
      <path clip-path="url(#p88e92dd118)" d="M 354.211364 252.2 
L 354.211364 17.64 
" style="fill:none;stroke:#b0b0b0;stroke-dasharray:1.48,0.64;stroke-dashoffset:0;stroke-width:0.4;"/>
     </g>
     <g id="text_4">
      <!-- 0.6 -->
      <defs>
       <path d="M 42 22.515625 
Q 42 17.328125 40.828125 13 
Q 39.65625 8.6875 37.359375 5.578125 
Q 35.0625 2.484375 31.640625 0.75 
Q 28.21875 -0.984375 23.78125 -0.984375 
Q 18.84375 -0.984375 15.15625 1.3125 
Q 11.46875 3.609375 9.03125 7.921875 
Q 6.59375 12.25 5.375 18.53125 
Q 4.15625 24.8125 4.15625 32.8125 
Q 4.15625 42 5.546875 48.921875 
Q 6.9375 55.859375 9.515625 60.5 
Q 12.109375 65.140625 15.859375 67.484375 
Q 19.625 69.828125 24.359375 69.828125 
Q 27.25 69.828125 29.765625 69.09375 
Q 32.28125 68.359375 34.328125 66.71875 
Q 36.375 65.09375 37.9375 62.40625 
Q 39.5 59.71875 40.4375 55.8125 
L 33.546875 54.296875 
Q 32.421875 58.734375 29.953125 60.71875 
Q 27.484375 62.703125 24.265625 62.703125 
Q 21.296875 62.703125 18.890625 60.984375 
Q 16.5 59.28125 14.8125 55.875 
Q 13.140625 52.484375 12.234375 47.359375 
Q 11.328125 42.234375 11.328125 35.40625 
Q 13.28125 39.84375 16.84375 42.15625 
Q 20.40625 44.484375 25.046875 44.484375 
Q 28.90625 44.484375 32 42.96875 
Q 35.109375 41.453125 37.328125 38.59375 
Q 39.546875 35.75 40.765625 31.671875 
Q 42 27.59375 42 22.515625 
z
M 34.671875 22.125 
Q 34.671875 25.6875 33.953125 28.5625 
Q 33.25 31.453125 31.8125 33.46875 
Q 30.375 35.5 28.25 36.59375 
Q 26.125 37.703125 23.296875 37.703125 
Q 21.34375 37.703125 19.328125 36.984375 
Q 17.328125 36.28125 15.71875 34.6875 
Q 14.109375 33.109375 13.078125 30.515625 
Q 12.0625 27.9375 12.0625 24.21875 
Q 12.0625 20.40625 12.859375 17.109375 
Q 13.671875 13.8125 15.15625 11.375 
Q 16.65625 8.9375 18.78125 7.515625 
Q 20.90625 6.109375 23.53125 6.109375 
Q 26.125 6.109375 28.203125 7.203125 
Q 30.28125 8.296875 31.71875 10.375 
Q 33.15625 12.453125 33.90625 15.421875 
Q 34.671875 18.40625 34.671875 22.125 
z
" id="LiberationSansNarrow-54"/>
      </defs>
      <g transform="translate(346.23027 269.345625)scale(0.14 -0.14)">
       <use xlink:href="#LiberationSansNarrow-48"/>
       <use x="45.605469" xlink:href="#LiberationSansNarrow-46"/>
       <use x="68.408203" xlink:href="#LiberationSansNarrow-54"/>
      </g>
     </g>
    </g>
    <g id="xtick_5">
     <g id="line2d_5">
      <path clip-path="url(#p88e92dd118)" d="M 444.944091 252.2 
L 444.944091 17.64 
" style="fill:none;stroke:#b0b0b0;stroke-dasharray:1.48,0.64;stroke-dashoffset:0;stroke-width:0.4;"/>
     </g>
     <g id="text_5">
      <!-- 0.8 -->
      <defs>
       <path d="M 42.046875 19.1875 
Q 42.046875 14.796875 40.890625 11.109375 
Q 39.75 7.421875 37.40625 4.734375 
Q 35.0625 2.046875 31.421875 0.53125 
Q 27.78125 -0.984375 22.796875 -0.984375 
Q 17.828125 -0.984375 14.203125 0.53125 
Q 10.59375 2.046875 8.21875 4.703125 
Q 5.859375 7.375 4.703125 11.0625 
Q 3.5625 14.75 3.5625 19.09375 
Q 3.5625 22.859375 4.515625 25.78125 
Q 5.46875 28.71875 7.03125 30.828125 
Q 8.59375 32.953125 10.609375 34.25 
Q 12.640625 35.546875 14.796875 35.984375 
L 14.796875 36.1875 
Q 12.453125 36.859375 10.59375 38.375 
Q 8.734375 39.890625 7.46875 42.015625 
Q 6.203125 44.140625 5.546875 46.71875 
Q 4.890625 49.3125 4.890625 52.203125 
Q 4.890625 55.8125 6.03125 59 
Q 7.171875 62.203125 9.421875 64.625 
Q 11.671875 67.046875 14.984375 68.4375 
Q 18.3125 69.828125 22.65625 69.828125 
Q 27.25 69.828125 30.640625 68.40625 
Q 34.03125 67 36.25 64.578125 
Q 38.484375 62.15625 39.546875 58.9375 
Q 40.625 55.71875 40.625 52.09375 
Q 40.625 49.265625 39.96875 46.671875 
Q 39.3125 44.09375 38.0625 41.96875 
Q 36.8125 39.84375 34.9375 38.34375 
Q 33.0625 36.859375 30.609375 36.28125 
L 30.609375 36.078125 
Q 33.0625 35.59375 35.15625 34.296875 
Q 37.25 33.015625 38.765625 30.890625 
Q 40.28125 28.765625 41.15625 25.828125 
Q 42.046875 22.90625 42.046875 19.1875 
z
M 33.15625 51.609375 
Q 33.15625 54.203125 32.609375 56.34375 
Q 32.078125 58.5 30.828125 60.03125 
Q 29.59375 61.578125 27.59375 62.421875 
Q 25.59375 63.28125 22.65625 63.28125 
Q 19.828125 63.28125 17.875 62.421875 
Q 15.921875 61.578125 14.640625 60.03125 
Q 13.375 58.5 12.8125 56.34375 
Q 12.25 54.203125 12.25 51.609375 
Q 12.25 49.5625 12.6875 47.40625 
Q 13.140625 45.265625 14.3125 43.5 
Q 15.484375 41.75 17.5 40.625 
Q 19.53125 39.5 22.75 39.5 
Q 26.171875 39.5 28.21875 40.625 
Q 30.28125 41.75 31.375 43.5 
Q 32.46875 45.265625 32.8125 47.40625 
Q 33.15625 49.5625 33.15625 51.609375 
z
M 34.578125 20.015625 
Q 34.578125 22.515625 34.015625 24.828125 
Q 33.453125 27.15625 32.078125 28.9375 
Q 30.71875 30.71875 28.421875 31.8125 
Q 26.125 32.90625 22.65625 32.90625 
Q 19.484375 32.90625 17.265625 31.8125 
Q 15.046875 30.71875 13.671875 28.90625 
Q 12.3125 27.09375 11.671875 24.71875 
Q 11.03125 22.359375 11.03125 19.828125 
Q 11.03125 16.65625 11.671875 14.03125 
Q 12.3125 11.421875 13.703125 9.546875 
Q 15.09375 7.671875 17.375 6.640625 
Q 19.671875 5.609375 22.90625 5.609375 
Q 26.171875 5.609375 28.421875 6.640625 
Q 30.671875 7.671875 32.03125 9.546875 
Q 33.40625 11.421875 33.984375 14.078125 
Q 34.578125 16.75 34.578125 20.015625 
z
" id="LiberationSansNarrow-56"/>
      </defs>
      <g transform="translate(436.962997 269.345625)scale(0.14 -0.14)">
       <use xlink:href="#LiberationSansNarrow-48"/>
       <use x="45.605469" xlink:href="#LiberationSansNarrow-46"/>
       <use x="68.408203" xlink:href="#LiberationSansNarrow-56"/>
      </g>
     </g>
    </g>
    <g id="xtick_6">
     <g id="line2d_6">
      <path clip-path="url(#p88e92dd118)" d="M 535.676818 252.2 
L 535.676818 17.64 
" style="fill:none;stroke:#b0b0b0;stroke-dasharray:1.48,0.64;stroke-dashoffset:0;stroke-width:0.4;"/>
     </g>
     <g id="text_6">
      <!-- 1.0 -->
      <defs>
       <path d="M 6.25 0 
L 6.25 7.46875 
L 20.609375 7.46875 
L 20.609375 60.40625 
L 7.90625 49.3125 
L 7.90625 57.625 
L 21.234375 68.796875 
L 27.875 68.796875 
L 27.875 7.46875 
L 41.609375 7.46875 
L 41.609375 0 
z
" id="LiberationSansNarrow-49"/>
      </defs>
      <g transform="translate(527.695724 269.345625)scale(0.14 -0.14)">
       <use xlink:href="#LiberationSansNarrow-49"/>
       <use x="45.605469" xlink:href="#LiberationSansNarrow-46"/>
       <use x="68.408203" xlink:href="#LiberationSansNarrow-48"/>
      </g>
     </g>
    </g>
   </g>
   <g id="matplotlib.axis_2">
    <g id="ytick_1">
     <g id="line2d_7">
      <path clip-path="url(#p88e92dd118)" d="M 59.33 242.331523 
L 558.36 242.331523 
" style="fill:none;stroke:#b0b0b0;stroke-dasharray:1.48,0.64;stroke-dashoffset:0;stroke-width:0.4;"/>
     </g>
     <g id="text_7">
      <!-- −40 -->
      <defs>
       <path d="M 4.046875 29.6875 
L 4.046875 36.8125 
L 43.890625 36.8125 
L 43.890625 29.6875 
z
" id="LiberationSansNarrow-8722"/>
      </defs>
      <g transform="translate(32.8525 247.404336)scale(0.14 -0.14)">
       <use xlink:href="#LiberationSansNarrow-8722"/>
       <use x="47.900391" xlink:href="#LiberationSansNarrow-52"/>
       <use x="93.505859" xlink:href="#LiberationSansNarrow-48"/>
      </g>
     </g>
    </g>
    <g id="ytick_2">
     <g id="line2d_8">
      <path clip-path="url(#p88e92dd118)" d="M 59.33 188.824097 
L 558.36 188.824097 
" style="fill:none;stroke:#b0b0b0;stroke-dasharray:1.48,0.64;stroke-dashoffset:0;stroke-width:0.4;"/>
     </g>
     <g id="text_8">
      <!-- −30 -->
      <defs>
       <path d="M 42 19 
Q 42 14.265625 40.75 10.546875 
Q 39.5 6.84375 37.0625 4.265625 
Q 34.625 1.703125 31.046875 0.359375 
Q 27.484375 -0.984375 22.859375 -0.984375 
Q 17.625 -0.984375 14.03125 0.609375 
Q 10.453125 2.203125 8.125 4.8125 
Q 5.8125 7.421875 4.640625 10.765625 
Q 3.46875 14.109375 3.125 17.671875 
L 10.546875 18.5 
Q 10.890625 15.765625 11.734375 13.515625 
Q 12.59375 11.28125 14.078125 9.671875 
Q 15.578125 8.0625 17.75 7.171875 
Q 19.921875 6.296875 22.859375 6.296875 
Q 28.328125 6.296875 31.421875 9.5625 
Q 34.515625 12.84375 34.515625 19.28125 
Q 34.515625 23.09375 33.125 25.40625 
Q 31.734375 27.734375 29.6875 29.03125 
Q 27.640625 30.328125 25.21875 30.765625 
Q 22.796875 31.203125 20.75 31.203125 
L 16.65625 31.203125 
L 16.65625 38.8125 
L 20.5625 38.8125 
Q 22.609375 38.8125 24.828125 39.328125 
Q 27.046875 39.84375 28.859375 41.1875 
Q 30.671875 42.53125 31.859375 44.828125 
Q 33.0625 47.125 33.0625 50.6875 
Q 33.0625 56.203125 30.375 59.390625 
Q 27.6875 62.59375 22.46875 62.59375 
Q 17.671875 62.59375 14.734375 59.609375 
Q 11.8125 56.640625 11.328125 51.21875 
L 4.109375 51.90625 
Q 4.546875 56.453125 6.125 59.8125 
Q 7.71875 63.1875 10.171875 65.40625 
Q 12.640625 67.625 15.8125 68.71875 
Q 19 69.828125 22.5625 69.828125 
Q 27.296875 69.828125 30.6875 68.375 
Q 34.078125 66.9375 36.21875 64.46875 
Q 38.375 62.015625 39.40625 58.6875 
Q 40.4375 55.375 40.4375 51.609375 
Q 40.4375 48.578125 39.75 45.9375 
Q 39.0625 43.3125 37.625 41.203125 
Q 36.1875 39.109375 33.953125 37.59375 
Q 31.734375 36.078125 28.609375 35.296875 
L 28.609375 35.109375 
Q 32.03125 34.671875 34.546875 33.21875 
Q 37.0625 31.78125 38.71875 29.625 
Q 40.375 27.484375 41.1875 24.75 
Q 42 22.015625 42 19 
z
" id="LiberationSansNarrow-51"/>
      </defs>
      <g transform="translate(32.8525 193.896909)scale(0.14 -0.14)">
       <use xlink:href="#LiberationSansNarrow-8722"/>
       <use x="47.900391" xlink:href="#LiberationSansNarrow-51"/>
       <use x="93.505859" xlink:href="#LiberationSansNarrow-48"/>
      </g>
     </g>
    </g>
    <g id="ytick_3">
     <g id="line2d_9">
      <path clip-path="url(#p88e92dd118)" d="M 59.33 135.316671 
L 558.36 135.316671 
" style="fill:none;stroke:#b0b0b0;stroke-dasharray:1.48,0.64;stroke-dashoffset:0;stroke-width:0.4;"/>
     </g>
     <g id="text_9">
      <!-- −20 -->
      <g transform="translate(32.8525 140.389483)scale(0.14 -0.14)">
       <use xlink:href="#LiberationSansNarrow-8722"/>
       <use x="47.900391" xlink:href="#LiberationSansNarrow-50"/>
       <use x="93.505859" xlink:href="#LiberationSansNarrow-48"/>
      </g>
     </g>
    </g>
    <g id="ytick_4">
     <g id="line2d_10">
      <path clip-path="url(#p88e92dd118)" d="M 59.33 81.809244 
L 558.36 81.809244 
" style="fill:none;stroke:#b0b0b0;stroke-dasharray:1.48,0.64;stroke-dashoffset:0;stroke-width:0.4;"/>
     </g>
     <g id="text_10">
      <!-- −10 -->
      <g transform="translate(32.8525 86.882057)scale(0.14 -0.14)">
       <use xlink:href="#LiberationSansNarrow-8722"/>
       <use x="47.900391" xlink:href="#LiberationSansNarrow-49"/>
       <use x="93.505859" xlink:href="#LiberationSansNarrow-48"/>
      </g>
     </g>
    </g>
    <g id="ytick_5">
     <g id="line2d_11">
      <path clip-path="url(#p88e92dd118)" d="M 59.33 28.301818 
L 558.36 28.301818 
" style="fill:none;stroke:#b0b0b0;stroke-dasharray:1.48,0.64;stroke-dashoffset:0;stroke-width:0.4;"/>
     </g>
     <g id="text_11">
      <!-- 0 -->
      <g transform="translate(45.944688 33.374631)scale(0.14 -0.14)">
       <use xlink:href="#LiberationSansNarrow-48"/>
      </g>
     </g>
    </g>
    <g id="text_12">
     <!-- макс. оставание от рынка, % -->
     <defs>
      <path d="M 31.546875 0 
L 25.390625 0 
L 12.40625 46.4375 
Q 12.453125 45.171875 12.515625 43.703125 
Q 12.59375 42.234375 12.59375 40.75 
Q 12.59375 39.265625 12.609375 37.859375 
Q 12.640625 36.46875 12.640625 35.359375 
L 12.640625 0 
L 5.671875 0 
L 5.671875 52.828125 
L 16.890625 52.828125 
L 25.734375 20.5625 
Q 26.65625 17.484375 27.390625 13.796875 
Q 28.125 10.109375 28.421875 6.59375 
Q 28.8125 10.109375 29.515625 13.796875 
Q 30.21875 17.484375 31.15625 20.5625 
L 39.984375 52.828125 
L 50.734375 52.828125 
L 50.734375 0 
L 43.796875 0 
L 43.796875 35.359375 
Q 43.796875 36.421875 43.8125 37.890625 
Q 43.84375 39.359375 43.921875 40.921875 
Q 44 42.484375 44.015625 43.9375 
Q 44.046875 45.40625 44.140625 46.53125 
z
" id="LiberationSansNarrow-1084"/>
      <path d="M 16.546875 -0.984375 
Q 10.015625 -0.984375 6.734375 3.21875 
Q 3.46875 7.421875 3.46875 14.75 
Q 3.46875 19.96875 5.09375 23.3125 
Q 6.734375 26.65625 9.34375 28.5625 
Q 11.96875 30.46875 15.328125 31.203125 
Q 18.703125 31.9375 22.171875 32.03125 
L 31.9375 32.234375 
L 31.9375 35.109375 
Q 31.9375 38.375 31.375 40.671875 
Q 30.8125 42.96875 29.640625 44.375 
Q 28.46875 45.796875 26.734375 46.453125 
Q 25 47.125 22.609375 47.125 
Q 20.515625 47.125 18.84375 46.75 
Q 17.1875 46.390625 15.9375 45.4375 
Q 14.703125 44.484375 13.9375 42.84375 
Q 13.1875 41.21875 12.9375 38.71875 
L 5.421875 39.546875 
Q 5.8125 42.671875 6.9375 45.28125 
Q 8.0625 47.90625 10.109375 49.796875 
Q 12.15625 51.703125 15.25 52.75 
Q 18.359375 53.8125 22.796875 53.8125 
Q 30.953125 53.8125 35.078125 49.234375 
Q 39.203125 44.671875 39.203125 36.03125 
L 39.203125 13.28125 
Q 39.203125 9.375 40.03125 7.390625 
Q 40.875 5.421875 43.265625 5.421875 
Q 43.84375 5.421875 44.453125 5.515625 
Q 45.0625 5.609375 45.609375 5.765625 
L 45.609375 0.296875 
Q 44.234375 -0.09375 42.890625 -0.28125 
Q 41.546875 -0.484375 40.046875 -0.484375 
Q 37.984375 -0.484375 36.515625 0.171875 
Q 35.0625 0.828125 34.15625 2.171875 
Q 33.25 3.515625 32.765625 5.484375 
Q 32.28125 7.46875 32.125 10.109375 
L 31.9375 10.109375 
Q 30.765625 7.5625 29.375 5.515625 
Q 27.984375 3.46875 26.140625 2.03125 
Q 24.3125 0.59375 21.9375 -0.1875 
Q 19.578125 -0.984375 16.546875 -0.984375 
z
M 18.21875 5.609375 
Q 21.6875 5.609375 24.25 7.140625 
Q 26.8125 8.6875 28.515625 11.078125 
Q 30.21875 13.484375 31.078125 16.3125 
Q 31.9375 19.140625 31.9375 21.734375 
L 31.9375 26.078125 
L 24.03125 25.875 
Q 21.390625 25.828125 19 25.40625 
Q 16.609375 25 14.8125 23.78125 
Q 13.03125 22.5625 11.953125 20.359375 
Q 10.890625 18.171875 10.890625 14.59375 
Q 10.890625 10.296875 12.796875 7.953125 
Q 14.703125 5.609375 18.21875 5.609375 
z
" id="LiberationSansNarrow-1072"/>
      <path d="M 5.515625 52.828125 
L 12.703125 52.828125 
L 12.703125 29.6875 
Q 13.921875 29.6875 14.875 30.078125 
Q 15.828125 30.46875 16.875 31.6875 
Q 17.921875 32.90625 19.21875 35.15625 
Q 20.515625 37.40625 22.46875 41.15625 
L 28.375 52.828125 
L 35.890625 52.828125 
L 27.25 36.96875 
Q 25.4375 33.734375 24.109375 31.65625 
Q 22.796875 29.59375 22.125 28.90625 
L 36.234375 0 
L 28.21875 0 
L 17.140625 24.265625 
Q 16.359375 23.875 15.0625 23.578125 
Q 13.765625 23.296875 12.703125 23.296875 
L 12.703125 0 
L 5.515625 0 
z
" id="LiberationSansNarrow-1082"/>
      <path d="M 11.03125 26.65625 
Q 11.03125 22.125 11.5625 18.3125 
Q 12.109375 14.5 13.375 11.734375 
Q 14.65625 8.984375 16.75 7.46875 
Q 18.84375 5.953125 21.96875 5.953125 
Q 25.828125 5.953125 28.390625 8.484375 
Q 30.953125 11.03125 31.546875 16.3125 
L 38.875 15.71875 
Q 38.53125 12.453125 37.296875 9.421875 
Q 36.078125 6.390625 34.03125 4.09375 
Q 31.984375 1.8125 29 0.40625 
Q 26.03125 -0.984375 22.171875 -0.984375 
Q 17.09375 -0.984375 13.5 1.109375 
Q 9.90625 3.21875 7.6875 6.90625 
Q 5.46875 10.59375 4.46875 15.59375 
Q 3.46875 20.609375 3.46875 26.46875 
Q 3.46875 31.78125 4.203125 35.859375 
Q 4.9375 39.9375 6.21875 42.984375 
Q 7.515625 46.046875 9.265625 48.125 
Q 11.03125 50.203125 13.109375 51.4375 
Q 15.1875 52.6875 17.453125 53.25 
Q 19.734375 53.8125 22.078125 53.8125 
Q 25.734375 53.8125 28.5625 52.59375 
Q 31.390625 51.375 33.46875 49.25 
Q 35.546875 47.125 36.8125 44.234375 
Q 38.09375 41.359375 38.625 38.03125 
L 31.203125 37.359375 
Q 30.671875 41.75 28.375 44.328125 
Q 26.078125 46.921875 21.875 46.921875 
Q 18.796875 46.921875 16.71875 45.671875 
Q 14.65625 44.4375 13.375 41.921875 
Q 12.109375 39.40625 11.5625 35.59375 
Q 11.03125 31.78125 11.03125 26.65625 
z
" id="LiberationSansNarrow-1089"/>
      <path id="LiberationSansNarrow-32"/>
      <path d="M 42.140625 26.46875 
Q 42.140625 12.59375 37.125 5.796875 
Q 32.125 -0.984375 22.609375 -0.984375 
Q 18.0625 -0.984375 14.515625 0.671875 
Q 10.984375 2.34375 8.515625 5.765625 
Q 6.0625 9.1875 4.765625 14.328125 
Q 3.46875 19.484375 3.46875 26.46875 
Q 3.46875 53.8125 22.859375 53.8125 
Q 27.875 53.8125 31.5625 52.09375 
Q 35.25 50.390625 37.59375 46.96875 
Q 39.9375 43.5625 41.03125 38.421875 
Q 42.140625 33.296875 42.140625 26.46875 
z
M 34.578125 26.46875 
Q 34.578125 32.625 33.8125 36.625 
Q 33.0625 40.625 31.546875 43.015625 
Q 30.03125 45.40625 27.859375 46.359375 
Q 25.6875 47.3125 23 47.3125 
Q 20.21875 47.3125 17.984375 46.3125 
Q 15.765625 45.3125 14.203125 42.890625 
Q 12.640625 40.484375 11.828125 36.46875 
Q 11.03125 32.46875 11.03125 26.46875 
Q 11.03125 20.3125 11.90625 16.28125 
Q 12.796875 12.25 14.328125 9.859375 
Q 15.875 7.46875 17.96875 6.484375 
Q 20.0625 5.515625 22.5625 5.515625 
Q 25.34375 5.515625 27.5625 6.46875 
Q 29.78125 7.421875 31.34375 9.8125 
Q 32.90625 12.203125 33.734375 16.25 
Q 34.578125 20.3125 34.578125 26.46875 
z
" id="LiberationSansNarrow-1086"/>
      <path d="M 1.421875 52.828125 
L 36.140625 52.828125 
L 36.140625 46.4375 
L 22.359375 46.4375 
L 22.359375 0 
L 15.1875 0 
L 15.1875 46.4375 
L 1.421875 46.4375 
z
" id="LiberationSansNarrow-1090"/>
      <path d="M 22.5625 52.828125 
Q 25.59375 52.828125 28.484375 52.234375 
Q 31.390625 51.65625 33.640625 50.140625 
Q 35.890625 48.640625 37.234375 46.09375 
Q 38.578125 43.5625 38.578125 39.59375 
Q 38.578125 37.015625 37.890625 35.03125 
Q 37.203125 33.0625 35.984375 31.640625 
Q 34.765625 30.21875 33.125 29.3125 
Q 31.5 28.421875 29.6875 27.984375 
L 29.6875 27.640625 
Q 31.84375 27.296875 33.734375 26.4375 
Q 35.640625 25.59375 37 24.09375 
Q 38.375 22.609375 39.171875 20.40625 
Q 39.984375 18.21875 39.984375 15.234375 
Q 39.984375 11.421875 38.765625 8.5625 
Q 37.546875 5.71875 35.375 3.8125 
Q 33.203125 1.90625 30.171875 0.953125 
Q 27.15625 0 23.484375 0 
L 5.671875 0 
L 5.671875 52.828125 
z
M 12.890625 6.5 
L 22.3125 6.5 
Q 25.09375 6.5 27 6.984375 
Q 28.90625 7.46875 30.078125 8.546875 
Q 31.25 9.625 31.78125 11.25 
Q 32.328125 12.890625 32.328125 15.1875 
Q 32.328125 17.625 31.765625 19.328125 
Q 31.203125 21.046875 29.953125 22.109375 
Q 28.71875 23.1875 26.703125 23.671875 
Q 24.703125 24.171875 21.875 24.171875 
L 12.890625 24.171875 
z
M 12.890625 46.140625 
L 12.890625 30.515625 
L 21.53125 30.515625 
Q 24.265625 30.515625 26.0625 30.984375 
Q 27.875 31.453125 29 32.390625 
Q 30.125 33.34375 30.5625 34.828125 
Q 31 36.328125 31 38.421875 
Q 31 42.4375 28.96875 44.28125 
Q 26.953125 46.140625 22.125 46.140625 
z
" id="LiberationSansNarrow-1074"/>
      <path d="M 12.890625 52.828125 
L 12.890625 30.46875 
L 32.375 30.46875 
L 32.375 52.828125 
L 39.59375 52.828125 
L 39.59375 0 
L 32.375 0 
L 32.375 24.078125 
L 12.890625 24.078125 
L 12.890625 0 
L 5.671875 0 
L 5.671875 52.828125 
z
" id="LiberationSansNarrow-1085"/>
      <path d="M 12.640625 52.828125 
L 12.640625 23.921875 
Q 12.640625 22.796875 12.59375 20.921875 
Q 12.546875 19.046875 12.46875 17.046875 
Q 12.40625 15.046875 12.359375 13.234375 
Q 12.3125 11.421875 12.25 10.40625 
L 32.28125 52.828125 
L 40.140625 52.828125 
L 40.140625 0 
L 33.25 0 
L 33.25 32.234375 
Q 33.25 33.15625 33.296875 34.578125 
L 33.40625 37.40625 
Q 33.453125 38.875 33.5 40.234375 
L 33.640625 42.625 
L 13.375 0 
L 5.71875 0 
L 5.71875 52.828125 
z
" id="LiberationSansNarrow-1080"/>
      <path d="M 10.6875 24.5625 
Q 10.6875 20.40625 11.5625 16.90625 
Q 12.453125 13.421875 13.90625 10.90625 
Q 15.375 8.40625 17.640625 7 
Q 19.921875 5.609375 23.140625 5.609375 
Q 27.828125 5.609375 30.65625 7.90625 
Q 33.5 10.203125 34.46875 13.71875 
L 40.828125 11.53125 
Q 40.140625 9.328125 38.921875 7.109375 
Q 37.703125 4.890625 35.640625 3.09375 
Q 33.59375 1.3125 30.53125 0.15625 
Q 27.484375 -0.984375 23.140625 -0.984375 
Q 13.53125 -0.984375 8.5 6 
Q 3.46875 12.984375 3.46875 26.765625 
Q 3.46875 34.1875 5 39.328125 
Q 6.546875 44.484375 9.171875 47.703125 
Q 11.8125 50.921875 15.328125 52.359375 
Q 18.84375 53.8125 22.859375 53.8125 
Q 28.328125 53.8125 31.984375 51.65625 
Q 39.0625 47.515625 41.015625 36.8125 
Q 41.9375 31.6875 41.9375 25.734375 
L 41.9375 24.5625 
z
M 34.71875 31.296875 
Q 34.71875 40.140625 31.421875 43.71875 
Q 28.125 47.3125 22.75 47.3125 
Q 18.953125 47.3125 15.328125 44.09375 
Q 10.9375 40.328125 10.6875 31.296875 
z
" id="LiberationSansNarrow-1077"/>
      <path d="M 42.140625 26.65625 
Q 42.140625 20.65625 41.359375 15.578125 
Q 40.578125 10.5 38.6875 6.828125 
Q 36.8125 3.171875 33.765625 1.09375 
Q 30.71875 -0.984375 26.21875 -0.984375 
Q 21.578125 -0.984375 18.078125 1.171875 
Q 14.59375 3.328125 12.796875 8.203125 
L 12.546875 8.203125 
Q 12.59375 8.109375 12.609375 7.328125 
Q 12.640625 6.546875 12.671875 5.375 
Q 12.703125 4.203125 12.71875 2.75 
Q 12.75 1.3125 12.75 -0.09375 
L 12.75 -20.75 
L 5.515625 -20.75 
L 5.515625 42.046875 
Q 5.515625 43.953125 5.484375 45.703125 
Q 5.46875 47.46875 5.4375 48.90625 
Q 5.421875 50.34375 5.375 51.359375 
Q 5.328125 52.390625 5.28125 52.828125 
L 12.25 52.828125 
Q 12.3125 52.6875 12.359375 51.8125 
L 12.5 49.703125 
Q 12.546875 48.4375 12.59375 47.015625 
Q 12.640625 45.609375 12.640625 44.34375 
L 12.796875 44.34375 
Q 13.765625 46.875 15.0625 48.65625 
Q 16.359375 50.4375 18.015625 51.578125 
Q 19.671875 52.734375 21.671875 53.25 
Q 23.6875 53.765625 26.21875 53.765625 
Q 30.71875 53.765625 33.765625 51.8125 
Q 36.8125 49.859375 38.6875 46.3125 
Q 40.578125 42.78125 41.359375 37.765625 
Q 42.140625 32.765625 42.140625 26.65625 
z
M 34.578125 26.46875 
Q 34.578125 31.34375 34.109375 35.15625 
Q 33.640625 38.96875 32.4375 41.59375 
Q 31.25 44.234375 29.296875 45.59375 
Q 27.34375 46.96875 24.359375 46.96875 
Q 21.96875 46.96875 19.84375 46.140625 
Q 17.71875 45.3125 16.125 42.96875 
Q 14.546875 40.625 13.640625 36.5 
Q 12.75 32.375 12.75 25.78125 
Q 12.75 20.171875 13.5 16.28125 
Q 14.265625 12.40625 15.71875 10.015625 
Q 17.1875 7.625 19.328125 6.5625 
Q 21.484375 5.515625 24.3125 5.515625 
Q 27.34375 5.515625 29.296875 6.921875 
Q 31.25 8.34375 32.4375 11.03125 
Q 33.640625 13.71875 34.109375 17.59375 
Q 34.578125 21.484375 34.578125 26.46875 
z
" id="LiberationSansNarrow-1088"/>
      <path d="M 22.796875 30.46875 
Q 31.296875 30.46875 35.640625 26.875 
Q 39.984375 23.296875 39.984375 15.53125 
Q 39.984375 11.921875 38.90625 9.03125 
Q 37.84375 6.15625 35.671875 4.15625 
Q 33.5 2.15625 30.296875 1.078125 
Q 27.09375 0 22.859375 0 
L 5.859375 0 
L 5.859375 52.828125 
L 13.328125 52.828125 
L 13.328125 30.46875 
z
M 13.328125 6.203125 
L 21.734375 6.203125 
Q 24.609375 6.203125 26.578125 6.8125 
Q 28.5625 7.421875 29.78125 8.609375 
Q 31 9.8125 31.53125 11.546875 
Q 32.078125 13.28125 32.078125 15.53125 
Q 32.078125 20.125 29.65625 22.234375 
Q 27.25 24.359375 21.734375 24.359375 
L 13.328125 24.359375 
z
M 47.65625 0 
L 47.65625 52.828125 
L 55.125 52.828125 
L 55.125 0 
z
" id="LiberationSansNarrow-1099"/>
      <path d="M 15.4375 10.6875 
L 15.4375 2.484375 
Q 15.4375 -0.09375 15.265625 -2.21875 
Q 15.09375 -4.34375 14.671875 -6.171875 
Q 14.265625 -8.015625 13.671875 -9.625 
Q 13.09375 -11.234375 12.3125 -12.796875 
L 7.375 -12.796875 
Q 9.1875 -9.625 10.15625 -6.390625 
Q 11.140625 -3.171875 11.140625 0 
L 7.625 0 
L 7.625 10.6875 
z
" id="LiberationSansNarrow-44"/>
      <path d="M 69.96875 21.1875 
Q 69.96875 15.09375 68.9375 10.90625 
Q 67.921875 6.734375 66.1875 4.171875 
Q 64.453125 1.609375 62.125 0.5 
Q 59.8125 -0.59375 57.171875 -0.59375 
Q 54.546875 -0.59375 52.21875 0.5 
Q 49.90625 1.609375 48.21875 4.140625 
Q 46.53125 6.6875 45.546875 10.859375 
Q 44.578125 15.046875 44.578125 21.1875 
Q 44.578125 27.6875 45.53125 31.9375 
Q 46.484375 36.1875 48.1875 38.703125 
Q 49.90625 41.21875 52.25 42.21875 
Q 54.59375 43.21875 57.328125 43.21875 
Q 59.96875 43.21875 62.25 42.21875 
Q 64.546875 41.21875 66.25 38.703125 
Q 67.96875 36.1875 68.96875 31.9375 
Q 69.96875 27.6875 69.96875 21.1875 
z
M 21.09375 0 
L 14.890625 0 
L 51.8125 68.796875 
L 58.109375 68.796875 
z
M 15.765625 69.390625 
Q 18.3125 69.390625 20.609375 68.390625 
Q 22.90625 67.390625 24.609375 64.890625 
Q 26.3125 62.40625 27.3125 58.203125 
Q 28.328125 54 28.328125 47.609375 
Q 28.328125 41.453125 27.3125 37.25 
Q 26.3125 33.0625 24.609375 30.4375 
Q 22.90625 27.828125 20.578125 26.703125 
Q 18.265625 25.59375 15.625 25.59375 
Q 12.9375 25.59375 10.609375 26.703125 
Q 8.296875 27.828125 6.59375 30.421875 
Q 4.890625 33.015625 3.90625 37.203125 
Q 2.9375 41.40625 2.9375 47.609375 
Q 2.9375 54 3.90625 58.203125 
Q 4.890625 62.40625 6.609375 64.890625 
Q 8.34375 67.390625 10.6875 68.390625 
Q 13.03125 69.390625 15.765625 69.390625 
z
M 64.0625 21.1875 
Q 64.0625 26.03125 63.625 29.21875 
Q 63.1875 32.421875 62.328125 34.328125 
Q 61.46875 36.234375 60.203125 37.015625 
Q 58.9375 37.796875 57.328125 37.796875 
Q 55.671875 37.796875 54.375 36.984375 
Q 53.078125 36.1875 52.1875 34.28125 
Q 51.3125 32.375 50.875 29.171875 
Q 50.4375 25.984375 50.4375 21.1875 
Q 50.4375 16.546875 50.90625 13.421875 
Q 51.375 10.296875 52.21875 8.375 
Q 53.078125 6.453125 54.34375 5.609375 
Q 55.609375 4.78125 57.234375 4.78125 
Q 58.796875 4.78125 60.0625 5.609375 
Q 61.328125 6.453125 62.203125 8.375 
Q 63.09375 10.296875 63.578125 13.421875 
Q 64.0625 16.546875 64.0625 21.1875 
z
M 22.40625 47.609375 
Q 22.40625 52.390625 21.96875 55.5625 
Q 21.53125 58.734375 20.703125 60.640625 
Q 19.875 62.546875 18.625 63.328125 
Q 17.390625 64.109375 15.765625 64.109375 
Q 14.0625 64.109375 12.734375 63.296875 
Q 11.421875 62.5 10.546875 60.59375 
Q 9.671875 58.6875 9.234375 55.515625 
Q 8.796875 52.34375 8.796875 47.609375 
Q 8.796875 42.96875 9.25 39.796875 
Q 9.71875 36.625 10.5625 34.6875 
Q 11.421875 32.765625 12.71875 31.9375 
Q 14.015625 31.109375 15.671875 31.109375 
Q 17.1875 31.109375 18.421875 31.9375 
Q 19.671875 32.765625 20.546875 34.6875 
Q 21.4375 36.625 21.921875 39.796875 
Q 22.40625 42.96875 22.40625 47.609375 
z
" id="LiberationSansNarrow-37"/>
     </defs>
     <g transform="translate(25.9475 211.967031)rotate(-90)scale(0.14 -0.14)">
      <use xlink:href="#LiberationSansNarrow-1084"/>
      <use x="56.396484" xlink:href="#LiberationSansNarrow-1072"/>
      <use x="102.001953" xlink:href="#LiberationSansNarrow-1082"/>
      <use x="137.857422" xlink:href="#LiberationSansNarrow-1089"/>
      <use x="178.873047" xlink:href="#LiberationSansNarrow-46"/>
      <use x="201.675781" xlink:href="#LiberationSansNarrow-32"/>
      <use x="224.478516" xlink:href="#LiberationSansNarrow-1086"/>
      <use x="270.083984" xlink:href="#LiberationSansNarrow-1089"/>
      <use x="311.099609" xlink:href="#LiberationSansNarrow-1090"/>
      <use x="348.632812" xlink:href="#LiberationSansNarrow-1072"/>
      <use x="394.238281" xlink:href="#LiberationSansNarrow-1074"/>
      <use x="437.777344" xlink:href="#LiberationSansNarrow-1072"/>
      <use x="483.382812" xlink:href="#LiberationSansNarrow-1085"/>
      <use x="528.646484" xlink:href="#LiberationSansNarrow-1080"/>
      <use x="574.496094" xlink:href="#LiberationSansNarrow-1077"/>
      <use x="620.101562" xlink:href="#LiberationSansNarrow-32"/>
      <use x="642.904297" xlink:href="#LiberationSansNarrow-1086"/>
      <use x="688.478516" xlink:href="#LiberationSansNarrow-1090"/>
      <use x="726.027344" xlink:href="#LiberationSansNarrow-32"/>
      <use x="748.830078" xlink:href="#LiberationSansNarrow-1088"/>
      <use x="794.435547" xlink:href="#LiberationSansNarrow-1099"/>
      <use x="855.421875" xlink:href="#LiberationSansNarrow-1085"/>
      <use x="900.685547" xlink:href="#LiberationSansNarrow-1082"/>
      <use x="936.556641" xlink:href="#LiberationSansNarrow-1072"/>
      <use x="982.162109" xlink:href="#LiberationSansNarrow-44"/>
      <use x="1004.964844" xlink:href="#LiberationSansNarrow-32"/>
      <use x="1027.767578" xlink:href="#LiberationSansNarrow-37"/>
     </g>
    </g>
   </g>
   <g id="line2d_12">
    <path clip-path="url(#p88e92dd118)" d="M 82.013182 28.301818 
L 535.676818 28.301818 
L 535.676818 28.301818 
" style="fill:none;stroke:#1f77b4;stroke-linecap:square;stroke-width:2;"/>
   </g>
   <g id="line2d_13">
    <path clip-path="url(#p88e92dd118)" d="M 82.013182 118.038665 
L 85.747039 105.904847 
L 89.480896 104.65081 
L 91.347825 104.451908 
L 93.214753 102.156871 
L 95.081682 100.661222 
L 96.94861 99.399578 
L 98.815539 99.018981 
L 102.549396 98.873011 
L 104.416324 98.58034 
L 106.283253 98.528087 
L 108.150181 97.649314 
L 110.01711 97.434623 
L 111.884039 97.420473 
L 113.750967 97.08935 
L 115.617896 96.21463 
L 117.484824 95.957094 
L 119.351753 94.622672 
L 121.218681 93.66244 
L 124.952538 93.282737 
L 126.819467 92.627966 
L 128.686395 91.799117 
L 130.553324 91.60048 
L 132.420253 91.108849 
L 136.15411 91.098846 
L 138.021038 90.523702 
L 139.887967 90.227477 
L 141.754895 87.959285 
L 149.222609 87.719049 
L 151.089538 87.529098 
L 152.956467 86.646506 
L 156.690324 85.671235 
L 158.557252 85.360096 
L 160.424181 85.319074 
L 162.291109 84.516501 
L 164.158038 84.379866 
L 166.024966 84.039733 
L 167.891895 83.392557 
L 169.758823 82.994117 
L 171.625752 80.187297 
L 173.492681 79.754593 
L 175.359609 79.736519 
L 177.226538 79.47769 
L 179.093466 77.786955 
L 180.960395 77.706684 
L 182.827323 76.736976 
L 184.694252 76.520678 
L 186.56118 76.518381 
L 188.428109 75.957737 
L 190.295037 75.894767 
L 192.161966 75.333217 
L 194.028895 75.326253 
L 195.895823 75.116054 
L 203.363537 74.66921 
L 205.230466 74.184034 
L 207.097394 72.752636 
L 212.69818 72.176181 
L 214.565108 71.824447 
L 216.432037 71.781364 
L 218.298966 71.227297 
L 220.165894 70.979761 
L 222.032823 69.915946 
L 223.899751 69.243706 
L 227.633608 69.009674 
L 229.500537 68.431117 
L 231.367465 68.17548 
L 236.968251 68.120801 
L 238.83518 67.201786 
L 240.702108 66.859596 
L 242.569037 66.653337 
L 244.435965 66.615518 
L 248.169822 66.168958 
L 259.371394 65.359213 
L 261.238322 64.571371 
L 263.105251 64.440696 
L 264.972179 63.777832 
L 266.839108 63.708401 
L 272.439893 62.639415 
L 274.306822 62.505926 
L 276.17375 62.495846 
L 278.040679 62.244082 
L 279.907608 62.222255 
L 283.641465 61.562104 
L 285.508393 61.322397 
L 292.976107 61.236898 
L 294.843036 61.003784 
L 296.709964 60.978531 
L 298.576893 60.833587 
L 302.31075 60.769223 
L 304.177679 60.67677 
L 306.044607 60.353759 
L 307.911536 60.315826 
L 309.778464 59.497511 
L 317.246178 59.053224 
L 322.846964 58.803529 
L 324.713893 57.837749 
L 326.580821 57.574058 
L 328.44775 57.464938 
L 330.314678 56.954958 
L 335.915464 56.409712 
L 339.649321 56.264501 
L 341.51625 55.730116 
L 345.250107 55.599264 
L 350.850892 55.445722 
L 352.717821 55.297944 
L 354.584749 54.949497 
L 356.451678 54.893189 
L 358.318606 53.984891 
L 360.185535 53.828608 
L 362.052464 52.949261 
L 363.919392 52.797403 
L 365.786321 51.66767 
L 367.653249 51.38457 
L 369.520178 51.358261 
L 371.387106 51.122238 
L 373.254035 50.730077 
L 375.120963 50.712351 
L 376.987892 50.195267 
L 378.85482 50.094071 
L 382.588678 49.409479 
L 384.455606 49.18182 
L 390.056392 49.017939 
L 391.92332 48.598876 
L 393.790249 48.514724 
L 397.524106 47.820743 
L 399.391034 47.758486 
L 401.257963 47.116208 
L 404.99182 46.622723 
L 410.592606 46.416552 
L 414.326463 45.99818 
L 419.927248 45.221818 
L 421.794177 44.702725 
L 425.528034 44.509378 
L 427.394963 44.371858 
L 429.261891 44.053555 
L 431.12882 43.315129 
L 434.862677 42.558172 
L 442.330391 42.167882 
L 446.064248 41.635899 
L 447.931177 40.856819 
L 449.798105 40.436276 
L 451.665034 39.779101 
L 453.531962 39.346369 
L 455.398891 39.257765 
L 457.265819 38.543471 
L 460.999676 38.42669 
L 462.866605 38.081142 
L 464.733533 38.032438 
L 466.600462 37.53477 
L 470.334319 37.475513 
L 472.201248 36.855584 
L 474.068176 36.656796 
L 475.935105 36.159925 
L 479.668962 35.905584 
L 481.53589 35.426207 
L 483.402819 35.098723 
L 485.269747 33.547149 
L 489.003605 32.922015 
L 490.870533 32.081972 
L 494.60439 31.824855 
L 496.471319 30.514439 
L 502.072104 30.38641 
L 503.939033 28.528935 
L 505.805961 28.301818 
L 535.676818 28.301818 
L 535.676818 28.301818 
" style="fill:none;stroke:#ff7f0e;stroke-linecap:square;"/>
   </g>
   <g id="line2d_14">
    <path clip-path="url(#p88e92dd118)" d="M 82.013182 142.255212 
L 83.88011 138.527884 
L 85.747039 136.526103 
L 87.613967 135.515194 
L 89.480896 134.966923 
L 91.347825 134.627344 
L 95.081682 133.394395 
L 96.94861 132.837332 
L 98.815539 131.960975 
L 100.682467 131.680162 
L 102.549396 131.02994 
L 104.416324 130.603473 
L 106.283253 130.524733 
L 108.150181 128.433839 
L 111.884039 128.146581 
L 113.750967 127.774023 
L 121.218681 127.257889 
L 123.08561 126.241753 
L 128.686395 125.98102 
L 132.420253 124.700301 
L 134.287181 123.804199 
L 136.15411 123.563634 
L 138.021038 123.531507 
L 139.887967 123.122139 
L 147.355681 122.762106 
L 149.222609 120.801335 
L 151.089538 119.279403 
L 152.956467 118.502844 
L 156.690324 118.240406 
L 158.557252 117.890962 
L 160.424181 117.784312 
L 162.291109 116.964371 
L 166.024966 116.725961 
L 167.891895 116.060411 
L 169.758823 114.009334 
L 171.625752 113.424155 
L 173.492681 112.484457 
L 175.359609 111.746769 
L 177.226538 111.198374 
L 180.960395 110.503351 
L 186.56118 109.777898 
L 192.161966 104.862198 
L 194.028895 104.351964 
L 195.895823 102.181469 
L 197.762752 100.255899 
L 199.62968 98.881761 
L 205.230466 98.176729 
L 207.097394 98.141663 
L 210.831251 96.657729 
L 212.69818 96.227908 
L 218.298966 95.958017 
L 220.165894 95.633751 
L 222.032823 95.023859 
L 223.899751 94.253225 
L 225.76668 93.093015 
L 229.500537 92.990031 
L 233.234394 91.861346 
L 236.968251 91.808082 
L 240.702108 91.485815 
L 248.169822 90.796354 
L 250.036751 90.317614 
L 253.770608 90.087722 
L 255.637536 90.004675 
L 257.504465 88.937838 
L 259.371394 88.745613 
L 263.105251 87.914251 
L 264.972179 87.816143 
L 266.839108 87.329237 
L 272.439893 86.845803 
L 274.306822 86.311599 
L 276.17375 86.17692 
L 278.040679 85.655867 
L 279.907608 85.396791 
L 281.774536 84.671692 
L 285.508393 84.457155 
L 287.375322 83.481387 
L 289.24225 82.716427 
L 291.109179 82.491809 
L 292.976107 81.916217 
L 294.843036 81.836965 
L 296.709964 81.319108 
L 298.576893 81.318014 
L 302.31075 81.027476 
L 306.044607 79.328814 
L 309.778464 79.19347 
L 311.645393 79.174566 
L 313.512321 78.619276 
L 317.246178 77.961675 
L 319.113107 77.923378 
L 320.980036 77.610564 
L 322.846964 77.007175 
L 324.713893 76.794844 
L 326.580821 76.700061 
L 328.44775 75.636541 
L 330.314678 75.543019 
L 332.181607 75.286253 
L 334.048535 75.222109 
L 335.915464 75.00994 
L 341.51625 74.995 
L 343.383178 74.779664 
L 345.250107 74.764822 
L 347.117035 74.533346 
L 348.983964 74.473796 
L 350.850892 73.333323 
L 352.717821 73.080303 
L 362.052464 72.414319 
L 363.919392 71.909758 
L 365.786321 71.876765 
L 367.653249 71.357562 
L 371.387106 71.230499 
L 373.254035 70.989426 
L 376.987892 70.952181 
L 382.588678 70.39984 
L 386.322535 70.252372 
L 388.189463 69.975703 
L 393.790249 69.771871 
L 395.657177 68.362033 
L 397.524106 68.054977 
L 399.391034 67.575264 
L 401.257963 67.53897 
L 403.124892 67.143956 
L 404.99182 67.100583 
L 406.858749 66.882462 
L 408.725677 66.855851 
L 410.592606 65.917614 
L 412.459534 65.803562 
L 414.326463 64.834653 
L 419.927248 64.06487 
L 421.794177 64.006109 
L 423.661105 63.515211 
L 425.528034 63.344665 
L 427.394963 62.013326 
L 429.261891 61.79762 
L 434.862677 61.584677 
L 436.729605 60.892754 
L 440.463462 60.104704 
L 442.330391 58.702753 
L 444.197319 58.029978 
L 446.064248 57.701201 
L 447.931177 55.988272 
L 449.798105 55.090782 
L 451.665034 54.709997 
L 453.531962 54.565484 
L 455.398891 54.07113 
L 457.265819 53.304376 
L 459.132748 50.819558 
L 460.999676 50.017577 
L 462.866605 47.488508 
L 464.733533 47.119159 
L 466.600462 46.262104 
L 468.467391 44.973207 
L 470.334319 44.924871 
L 472.201248 43.705774 
L 474.068176 43.166237 
L 475.935105 41.869506 
L 477.802033 41.498283 
L 479.668962 40.913309 
L 483.402819 40.820094 
L 485.269747 38.532335 
L 487.136676 38.396836 
L 489.003605 38.104453 
L 490.870533 36.487336 
L 492.737462 35.687639 
L 494.60439 35.515985 
L 498.338247 30.899881 
L 500.205176 30.127798 
L 502.072104 28.301818 
L 535.676818 28.301818 
L 535.676818 28.301818 
" style="fill:none;stroke:#2ca02c;stroke-linecap:square;"/>
   </g>
   <g id="line2d_15">
    <path clip-path="url(#p88e92dd118)" d="M 82.013182 241.538182 
L 83.88011 239.215587 
L 85.747039 238.956564 
L 93.214753 238.439931 
L 95.081682 237.582948 
L 96.94861 237.158887 
L 98.815539 236.87953 
L 100.682467 236.452801 
L 102.549396 235.294557 
L 104.416324 235.271354 
L 106.283253 234.532577 
L 108.150181 234.525798 
L 110.01711 234.393518 
L 111.884039 233.450844 
L 115.617896 232.838005 
L 117.484824 232.110736 
L 119.351753 231.785467 
L 121.218681 231.72475 
L 123.08561 230.983009 
L 124.952538 230.559186 
L 126.819467 230.483499 
L 128.686395 229.701708 
L 130.553324 229.212104 
L 132.420253 228.884254 
L 134.287181 228.786375 
L 138.021038 228.377201 
L 139.887967 228.19128 
L 141.754895 227.009912 
L 143.621824 226.881027 
L 145.488752 226.43206 
L 147.355681 226.352475 
L 149.222609 225.881507 
L 154.823395 225.644277 
L 156.690324 225.340407 
L 162.291109 225.241067 
L 164.158038 224.932517 
L 166.024966 224.768293 
L 167.891895 224.436872 
L 171.625752 224.288084 
L 173.492681 223.685361 
L 180.960395 223.423299 
L 182.827323 223.187585 
L 186.56118 222.890305 
L 190.295037 222.649302 
L 194.028895 222.552889 
L 195.895823 221.812508 
L 199.62968 221.78249 
L 203.363537 220.770467 
L 210.831251 220.156743 
L 212.69818 219.718739 
L 216.432037 219.486295 
L 218.298966 219.339718 
L 220.165894 218.528118 
L 222.032823 218.487103 
L 223.899751 218.126647 
L 225.76668 217.997132 
L 227.633608 217.983633 
L 229.500537 217.839883 
L 231.367465 217.556336 
L 233.234394 217.436343 
L 235.101322 216.866931 
L 236.968251 216.805198 
L 238.83518 216.403263 
L 244.435965 216.191851 
L 250.036751 216.043305 
L 255.637536 215.983447 
L 257.504465 215.648839 
L 259.371394 215.571495 
L 263.105251 215.254699 
L 266.839108 215.111046 
L 268.706036 214.700257 
L 272.439893 214.288095 
L 274.306822 213.71137 
L 278.040679 213.10257 
L 279.907608 213.099371 
L 281.774536 212.520599 
L 283.641465 212.436228 
L 285.508393 212.178275 
L 287.375322 212.170463 
L 294.843036 211.697208 
L 296.709964 211.240106 
L 298.576893 211.212996 
L 300.443822 210.907639 
L 304.177679 210.678968 
L 306.044607 209.788856 
L 309.778464 209.244173 
L 311.645393 209.200028 
L 315.37925 208.783309 
L 317.246178 208.258041 
L 320.980036 208.081756 
L 322.846964 208.006647 
L 324.713893 207.073365 
L 326.580821 206.82175 
L 328.44775 206.81711 
L 332.181607 206.115119 
L 337.782392 205.842731 
L 339.649321 205.300085 
L 341.51625 205.005501 
L 343.383178 204.999075 
L 345.250107 204.057305 
L 348.983964 203.818696 
L 350.850892 203.549302 
L 352.717821 203.538289 
L 356.451678 202.99441 
L 358.318606 202.402947 
L 360.185535 201.109792 
L 362.052464 200.224319 
L 363.919392 200.060448 
L 365.786321 199.179317 
L 367.653249 198.111366 
L 371.387106 198.055673 
L 373.254035 197.750657 
L 375.120963 197.599743 
L 378.85482 193.679826 
L 380.721749 193.06833 
L 384.455606 192.96529 
L 388.189463 191.345402 
L 390.056392 188.839516 
L 391.92332 187.181981 
L 393.790249 185.306865 
L 395.657177 185.297623 
L 397.524106 183.455693 
L 399.391034 182.88133 
L 401.257963 182.740249 
L 403.124892 177.348056 
L 404.99182 174.306688 
L 406.858749 173.999674 
L 408.725677 167.372083 
L 412.459534 156.871838 
L 414.326463 156.195783 
L 416.193391 153.867974 
L 418.06032 146.609693 
L 419.927248 145.3801 
L 421.794177 143.80844 
L 423.661105 137.563175 
L 425.528034 135.780244 
L 427.394963 133.31657 
L 429.261891 132.515229 
L 431.12882 127.18907 
L 434.862677 126.465993 
L 436.729605 125.103105 
L 438.596534 124.279328 
L 440.463462 121.850006 
L 442.330391 118.779682 
L 444.197319 117.456246 
L 446.064248 117.38491 
L 447.931177 116.167109 
L 449.798105 114.212073 
L 451.665034 113.191487 
L 453.531962 112.916918 
L 455.398891 110.873418 
L 457.265819 110.199737 
L 459.132748 107.855884 
L 460.999676 107.813165 
L 462.866605 107.372632 
L 464.733533 107.278591 
L 466.600462 106.703457 
L 468.467391 106.426372 
L 470.334319 105.762969 
L 474.068176 104.777982 
L 475.935105 103.89993 
L 477.802033 93.064931 
L 479.668962 88.899095 
L 481.53589 84.37489 
L 483.402819 81.554774 
L 485.269747 81.51951 
L 487.136676 75.725418 
L 489.003605 65.78956 
L 490.870533 65.750416 
L 492.737462 62.440389 
L 494.60439 61.357523 
L 496.471319 47.469605 
L 498.338247 40.334192 
L 500.205176 36.462117 
L 502.072104 35.578969 
L 503.939033 35.311529 
L 505.805961 33.156841 
L 507.67289 32.792882 
L 509.539819 31.003462 
L 511.406747 29.776673 
L 513.273676 29.257764 
L 515.140604 28.301818 
L 535.676818 28.301818 
L 535.676818 28.301818 
" style="fill:none;stroke:#d62728;stroke-linecap:square;"/>
   </g>
   <g id="legend_1">
    <g id="patch_3">
     <path d="M 346.133466 246.369 
L 550.1966 246.369 
Q 552.529 246.369 552.529 244.0366 
L 552.529 214.713959 
Q 552.529 212.381559 550.1966 212.381559 
L 346.133466 212.381559 
Q 343.801066 212.381559 343.801066 214.713959 
L 343.801066 244.0366 
Q 343.801066 246.369 346.133466 246.369 
z
" style="fill:#ffffff;opacity:0.8;stroke:#cccccc;stroke-linejoin:miter;"/>
    </g>
    <g id="line2d_16">
     <path d="M 348.465866 221.415964 
L 371.789866 221.415964 
" style="fill:none;stroke:#1f77b4;stroke-linecap:square;stroke-width:2;"/>
    </g>
    <g id="line2d_17"/>
    <g id="text_13">
     <!-- MARKET -->
     <defs>
      <path d="M 54.6875 0 
L 54.6875 45.90625 
Q 54.6875 48.390625 54.734375 50.96875 
Q 54.78125 53.5625 54.828125 55.71875 
Q 54.9375 58.203125 55.078125 60.546875 
Q 54.546875 58.0625 53.90625 55.609375 
Q 53.90625 55.609375 52.734375 51.171875 
Q 52.15625 48.78125 51.515625 46.875 
L 36.96875 0 
L 31.59375 0 
L 16.796875 46.875 
Q 16.546875 47.609375 16.3125 48.578125 
L 15.765625 50.6875 
L 15.140625 52.9375 
L 14.546875 55.171875 
Q 13.875 57.765625 13.234375 60.546875 
Q 13.28125 57.8125 13.375 55.125 
Q 13.484375 52.828125 13.5 50.3125 
Q 13.53125 47.796875 13.53125 45.90625 
L 13.53125 0 
L 6.734375 0 
L 6.734375 68.796875 
L 16.796875 68.796875 
L 31.78125 21.09375 
Q 32.078125 20.125 32.46875 18.578125 
Q 32.859375 17.046875 33.21875 15.421875 
Q 33.59375 13.8125 33.890625 12.375 
Q 34.1875 10.9375 34.328125 10.15625 
Q 34.421875 10.9375 34.734375 12.40625 
Q 35.0625 13.875 35.5 15.484375 
L 36.328125 18.609375 
Q 36.71875 20.125 37.0625 21.09375 
L 51.765625 68.796875 
L 61.578125 68.796875 
L 61.578125 0 
z
" id="LiberationSansNarrow-77"/>
      <path d="M 46.734375 0 
L 40.28125 20.125 
L 14.546875 20.125 
L 8.109375 0 
L 0.140625 0 
L 23.1875 68.796875 
L 31.890625 68.796875 
L 54.546875 0 
z
M 30.765625 50.09375 
Q 30.125 52.046875 29.546875 54.046875 
L 28.515625 57.71875 
L 27.734375 60.453125 
Q 27.4375 61.53125 27.4375 61.765625 
Q 27.34375 61.53125 27.078125 60.40625 
Q 26.8125 59.28125 26.375 57.625 
L 25.296875 53.953125 
L 24.125 50 
L 16.890625 27.390625 
L 37.984375 27.390625 
z
" id="LiberationSansNarrow-65"/>
      <path d="M 46.578125 0 
L 31.9375 28.5625 
L 14.359375 28.5625 
L 14.359375 0 
L 6.734375 0 
L 6.734375 68.796875 
L 33.25 68.796875 
Q 38.03125 68.796875 41.734375 67.453125 
Q 45.453125 66.109375 47.96875 63.5625 
Q 50.484375 61.03125 51.796875 57.375 
Q 53.125 53.71875 53.125 49.125 
Q 53.125 45.84375 52.34375 42.671875 
Q 51.5625 39.5 49.875 36.859375 
Q 48.1875 34.234375 45.59375 32.328125 
Q 43.015625 30.421875 39.359375 29.640625 
L 55.375 0 
z
M 45.453125 49.03125 
Q 45.453125 52.15625 44.578125 54.4375 
Q 43.703125 56.734375 42.015625 58.265625 
Q 40.328125 59.8125 37.9375 60.5625 
Q 35.546875 61.328125 32.46875 61.328125 
L 14.359375 61.328125 
L 14.359375 35.9375 
L 32.8125 35.9375 
Q 36.078125 35.9375 38.5 36.9375 
Q 40.921875 37.9375 42.453125 39.6875 
Q 44 41.453125 44.71875 43.84375 
Q 45.453125 46.234375 45.453125 49.03125 
z
" id="LiberationSansNarrow-82"/>
      <path d="M 44.28125 0 
L 21.734375 33.203125 
L 14.359375 26.375 
L 14.359375 0 
L 6.734375 0 
L 6.734375 68.796875 
L 14.359375 68.796875 
L 14.359375 34.328125 
L 41.546875 68.796875 
L 50.59375 68.796875 
L 26.5625 38.921875 
L 53.765625 0 
z
" id="LiberationSansNarrow-75"/>
      <path d="M 6.734375 0 
L 6.734375 68.796875 
L 49.515625 68.796875 
L 49.515625 61.1875 
L 14.359375 61.1875 
L 14.359375 39.109375 
L 47.125 39.109375 
L 47.125 31.59375 
L 14.359375 31.59375 
L 14.359375 7.625 
L 51.171875 7.625 
L 51.171875 0 
z
" id="LiberationSansNarrow-69"/>
      <path d="M 28.8125 61.1875 
L 28.8125 0 
L 21.234375 0 
L 21.234375 61.1875 
L 1.859375 61.1875 
L 1.859375 68.796875 
L 48.1875 68.796875 
L 48.1875 61.1875 
z
" id="LiberationSansNarrow-84"/>
     </defs>
     <g transform="translate(381.119466 225.497664)scale(0.11662 -0.11662)">
      <use xlink:href="#LiberationSansNarrow-77"/>
      <use x="68.310547" xlink:href="#LiberationSansNarrow-65"/>
      <use x="122.998047" xlink:href="#LiberationSansNarrow-82"/>
      <use x="182.177734" xlink:href="#LiberationSansNarrow-75"/>
      <use x="236.865234" xlink:href="#LiberationSansNarrow-69"/>
      <use x="291.552734" xlink:href="#LiberationSansNarrow-84"/>
     </g>
    </g>
    <g id="line2d_18">
     <path d="M 348.465866 235.202635 
L 371.789866 235.202635 
" style="fill:none;stroke:#ff7f0e;stroke-linecap:square;"/>
    </g>
    <g id="line2d_19"/>
    <g id="text_14">
     <!-- Hop -->
     <defs>
      <path d="M 44.875 0 
L 44.875 31.890625 
L 14.359375 31.890625 
L 14.359375 0 
L 6.734375 0 
L 6.734375 68.796875 
L 14.359375 68.796875 
L 14.359375 39.703125 
L 44.875 39.703125 
L 44.875 68.796875 
L 52.484375 68.796875 
L 52.484375 0 
z
" id="LiberationSansNarrow-72"/>
      <path d="M 42.140625 26.46875 
Q 42.140625 12.59375 37.125 5.796875 
Q 32.125 -0.984375 22.609375 -0.984375 
Q 18.0625 -0.984375 14.515625 0.671875 
Q 10.984375 2.34375 8.515625 5.765625 
Q 6.0625 9.1875 4.765625 14.328125 
Q 3.46875 19.484375 3.46875 26.46875 
Q 3.46875 53.8125 22.859375 53.8125 
Q 27.875 53.8125 31.5625 52.09375 
Q 35.25 50.390625 37.59375 46.96875 
Q 39.9375 43.5625 41.03125 38.421875 
Q 42.140625 33.296875 42.140625 26.46875 
z
M 34.578125 26.46875 
Q 34.578125 32.625 33.8125 36.625 
Q 33.0625 40.625 31.546875 43.015625 
Q 30.03125 45.40625 27.859375 46.359375 
Q 25.6875 47.3125 23 47.3125 
Q 20.21875 47.3125 17.984375 46.3125 
Q 15.765625 45.3125 14.203125 42.890625 
Q 12.640625 40.484375 11.828125 36.46875 
Q 11.03125 32.46875 11.03125 26.46875 
Q 11.03125 20.3125 11.90625 16.28125 
Q 12.796875 12.25 14.328125 9.859375 
Q 15.875 7.46875 17.96875 6.484375 
Q 20.0625 5.515625 22.5625 5.515625 
Q 25.34375 5.515625 27.5625 6.46875 
Q 29.78125 7.421875 31.34375 9.8125 
Q 32.90625 12.203125 33.734375 16.25 
Q 34.578125 20.3125 34.578125 26.46875 
z
" id="LiberationSansNarrow-111"/>
      <path d="M 42.140625 26.65625 
Q 42.140625 20.65625 41.359375 15.578125 
Q 40.578125 10.5 38.6875 6.828125 
Q 36.8125 3.171875 33.765625 1.09375 
Q 30.71875 -0.984375 26.21875 -0.984375 
Q 21.578125 -0.984375 18.078125 1.171875 
Q 14.59375 3.328125 12.796875 8.203125 
L 12.546875 8.203125 
Q 12.59375 8.109375 12.609375 7.328125 
Q 12.640625 6.546875 12.671875 5.375 
Q 12.703125 4.203125 12.71875 2.75 
Q 12.75 1.3125 12.75 -0.09375 
L 12.75 -20.75 
L 5.515625 -20.75 
L 5.515625 42.046875 
Q 5.515625 43.953125 5.484375 45.703125 
Q 5.46875 47.46875 5.4375 48.90625 
Q 5.421875 50.34375 5.375 51.359375 
Q 5.328125 52.390625 5.28125 52.828125 
L 12.25 52.828125 
Q 12.3125 52.6875 12.359375 51.8125 
L 12.5 49.703125 
Q 12.546875 48.4375 12.59375 47.015625 
Q 12.640625 45.609375 12.640625 44.34375 
L 12.796875 44.34375 
Q 13.765625 46.875 15.0625 48.65625 
Q 16.359375 50.4375 18.015625 51.578125 
Q 19.671875 52.734375 21.671875 53.25 
Q 23.6875 53.765625 26.21875 53.765625 
Q 30.71875 53.765625 33.765625 51.8125 
Q 36.8125 49.859375 38.6875 46.3125 
Q 40.578125 42.78125 41.359375 37.765625 
Q 42.140625 32.765625 42.140625 26.65625 
z
M 34.578125 26.46875 
Q 34.578125 31.34375 34.109375 35.15625 
Q 33.640625 38.96875 32.4375 41.59375 
Q 31.25 44.234375 29.296875 45.59375 
Q 27.34375 46.96875 24.359375 46.96875 
Q 21.96875 46.96875 19.84375 46.140625 
Q 17.71875 45.3125 16.125 42.96875 
Q 14.546875 40.625 13.640625 36.5 
Q 12.75 32.375 12.75 25.78125 
Q 12.75 20.171875 13.5 16.28125 
Q 14.265625 12.40625 15.71875 10.015625 
Q 17.1875 7.625 19.328125 6.5625 
Q 21.484375 5.515625 24.3125 5.515625 
Q 27.34375 5.515625 29.296875 6.921875 
Q 31.25 8.34375 32.4375 11.03125 
Q 33.640625 13.71875 34.109375 17.59375 
Q 34.578125 21.484375 34.578125 26.46875 
z
" id="LiberationSansNarrow-112"/>
     </defs>
     <g transform="translate(381.119466 239.284335)scale(0.11662 -0.11662)">
      <use xlink:href="#LiberationSansNarrow-72"/>
      <use x="59.179688" xlink:href="#LiberationSansNarrow-111"/>
      <use x="104.785156" xlink:href="#LiberationSansNarrow-112"/>
     </g>
    </g>
    <g id="line2d_20">
     <path d="M 432.625418 221.415964 
L 455.949418 221.415964 
" style="fill:none;stroke:#2ca02c;stroke-linecap:square;"/>
    </g>
    <g id="line2d_21"/>
    <g id="text_15">
     <!-- Lgro -->
     <defs>
      <path d="M 6.734375 0 
L 6.734375 68.796875 
L 14.359375 68.796875 
L 14.359375 7.625 
L 42.875 7.625 
L 42.875 0 
z
" id="LiberationSansNarrow-76"/>
      <path d="M 21.921875 -20.75 
Q 18.21875 -20.75 15.328125 -19.8125 
Q 12.453125 -18.890625 10.390625 -17.15625 
Q 8.34375 -15.4375 7.078125 -13.03125 
Q 5.8125 -10.640625 5.21875 -7.71875 
L 12.5 -6.453125 
Q 13.234375 -10.109375 15.671875 -12.078125 
Q 18.109375 -14.0625 22.125 -14.0625 
Q 24.5625 -14.0625 26.5625 -13.234375 
Q 28.5625 -12.40625 29.96875 -10.5625 
Q 31.390625 -8.734375 32.140625 -5.796875 
Q 32.90625 -2.875 32.90625 1.3125 
L 32.90625 9.8125 
L 32.8125 9.8125 
Q 32.03125 7.8125 30.859375 5.984375 
Q 29.6875 4.15625 27.96875 2.734375 
Q 26.265625 1.3125 24.015625 0.453125 
Q 21.78125 -0.390625 18.890625 -0.390625 
Q 14.796875 -0.390625 11.84375 1.296875 
Q 8.890625 2.984375 7.03125 6.34375 
Q 5.171875 9.71875 4.3125 14.71875 
Q 3.46875 19.734375 3.46875 26.3125 
Q 3.46875 32.671875 4.3125 37.75 
Q 5.171875 42.828125 7.09375 46.359375 
Q 9.03125 49.90625 12.125 51.78125 
Q 15.234375 53.65625 19.671875 53.65625 
Q 24.265625 53.65625 27.65625 51.09375 
Q 31.0625 48.53125 32.90625 43.796875 
L 33.015625 43.796875 
Q 33.015625 45.015625 33.0625 46.53125 
Q 33.109375 48.046875 33.171875 49.390625 
Q 33.25 50.734375 33.328125 51.703125 
Q 33.40625 52.6875 33.5 52.828125 
L 40.328125 52.828125 
Q 40.28125 52.390625 40.234375 51.34375 
Q 40.1875 50.296875 40.15625 48.828125 
Q 40.140625 47.359375 40.109375 45.578125 
Q 40.09375 43.796875 40.09375 41.890625 
L 40.09375 1.515625 
Q 40.09375 -9.578125 35.625 -15.15625 
Q 31.15625 -20.75 21.921875 -20.75 
z
M 32.90625 26.421875 
Q 32.90625 31.9375 31.921875 35.859375 
Q 30.953125 39.796875 29.34375 42.28125 
Q 27.734375 44.78125 25.6875 45.953125 
Q 23.640625 47.125 21.484375 47.125 
Q 18.703125 47.125 16.71875 45.953125 
Q 14.75 44.78125 13.421875 42.265625 
Q 12.109375 39.75 11.5 35.8125 
Q 10.890625 31.890625 10.890625 26.421875 
Q 10.890625 20.703125 11.5 16.8125 
Q 12.109375 12.9375 13.40625 10.546875 
Q 14.703125 8.15625 16.65625 7.125 
Q 18.609375 6.109375 21.34375 6.109375 
Q 23.484375 6.109375 25.5625 7.21875 
Q 27.640625 8.34375 29.265625 10.78125 
Q 30.90625 13.234375 31.90625 17.09375 
Q 32.90625 20.953125 32.90625 26.421875 
z
" id="LiberationSansNarrow-103"/>
      <path d="M 5.671875 0 
L 5.671875 40.53125 
Q 5.671875 40.53125 5.671875 43.953125 
Q 5.671875 45.65625 5.609375 47.265625 
Q 5.5625 48.875 5.515625 50.28125 
Q 5.46875 51.703125 5.421875 52.828125 
L 12.25 52.828125 
Q 12.3125 51.703125 12.359375 50.265625 
Q 12.40625 48.828125 12.46875 47.3125 
Q 12.546875 45.796875 12.546875 44.4375 
L 12.546875 42.046875 
L 12.75 42.046875 
Q 13.53125 45.0625 14.359375 47.28125 
Q 15.1875 49.515625 16.359375 50.953125 
Q 17.53125 52.390625 19.140625 53.09375 
Q 20.75 53.8125 23 53.8125 
Q 23.875 53.8125 24.671875 53.640625 
Q 25.484375 53.46875 25.921875 53.328125 
L 25.921875 45.265625 
Q 25.203125 45.515625 24.25 45.625 
Q 23.296875 45.75 22.078125 45.75 
Q 19.578125 45.75 17.84375 44.375 
Q 16.109375 43.015625 15.015625 40.59375 
Q 13.921875 38.1875 13.40625 34.84375 
Q 12.890625 31.5 12.890625 27.546875 
L 12.890625 0 
z
" id="LiberationSansNarrow-114"/>
     </defs>
     <g transform="translate(465.279018 225.497664)scale(0.11662 -0.11662)">
      <use xlink:href="#LiberationSansNarrow-76"/>
      <use x="45.605469" xlink:href="#LiberationSansNarrow-103"/>
      <use x="91.210938" xlink:href="#LiberationSansNarrow-114"/>
      <use x="118.505859" xlink:href="#LiberationSansNarrow-111"/>
     </g>
    </g>
    <g id="line2d_22">
     <path d="M 496.081276 221.415964 
L 519.405276 221.415964 
" style="fill:none;stroke:#d62728;stroke-linecap:square;"/>
    </g>
    <g id="line2d_23"/>
    <g id="text_16">
     <!-- Hdiv -->
     <defs>
      <path d="M 32.859375 8.5 
Q 30.859375 3.421875 27.5625 1.21875 
Q 24.265625 -0.984375 19.390625 -0.984375 
Q 11.1875 -0.984375 7.328125 5.75 
Q 3.46875 12.5 3.46875 26.171875 
Q 3.46875 53.8125 19.390625 53.8125 
Q 24.3125 53.8125 27.578125 51.609375 
Q 30.859375 49.421875 32.859375 44.625 
L 32.953125 44.625 
Q 32.953125 45.125 32.90625 46.1875 
L 32.90625 48.34375 
Q 32.859375 49.515625 32.859375 50.53125 
L 32.859375 52 
L 32.859375 72.46875 
L 40.09375 72.46875 
L 40.09375 10.890625 
Q 40.09375 8.984375 40.109375 7.21875 
Q 40.140625 5.46875 40.15625 4 
Q 40.1875 2.546875 40.234375 1.484375 
Q 40.28125 0.4375 40.328125 0 
L 33.453125 0 
Q 33.34375 0.484375 33.296875 1.390625 
Q 33.25 2.296875 33.171875 3.46875 
Q 33.109375 4.640625 33.078125 5.9375 
Q 33.0625 7.234375 33.0625 8.5 
z
M 11.03125 26.46875 
Q 11.03125 21 11.5625 17.09375 
Q 12.109375 13.1875 13.34375 10.671875 
Q 14.59375 8.15625 16.515625 6.984375 
Q 18.453125 5.8125 21.234375 5.8125 
Q 24.078125 5.8125 26.25 6.9375 
Q 28.421875 8.0625 29.875 10.578125 
Q 31.34375 13.09375 32.09375 17.140625 
Q 32.859375 21.1875 32.859375 27.046875 
Q 32.859375 32.671875 32.09375 36.546875 
Q 31.34375 40.4375 29.859375 42.828125 
Q 28.375 45.21875 26.25 46.265625 
Q 24.125 47.3125 21.296875 47.3125 
Q 18.65625 47.3125 16.71875 46.1875 
Q 14.796875 45.0625 13.515625 42.578125 
Q 12.25 40.09375 11.640625 36.109375 
Q 11.03125 32.125 11.03125 26.46875 
z
" id="LiberationSansNarrow-100"/>
      <path d="M 5.46875 64.0625 
L 5.46875 72.46875 
L 12.703125 72.46875 
L 12.703125 64.0625 
z
M 5.46875 0 
L 5.46875 52.828125 
L 12.703125 52.828125 
L 12.703125 0 
z
" id="LiberationSansNarrow-105"/>
      <path d="M 24.5625 0 
L 16.015625 0 
L 0.296875 52.828125 
L 7.953125 52.828125 
L 17.484375 18.453125 
Q 17.484375 18.453125 18.171875 15.828125 
L 18.953125 12.640625 
L 19.671875 9.46875 
L 20.265625 6.890625 
Q 20.265625 6.890625 20.90625 9.46875 
L 21.6875 12.59375 
Q 22.078125 14.203125 22.484375 15.734375 
Q 22.90625 17.28125 23.25 18.359375 
L 33.109375 52.828125 
L 40.71875 52.828125 
z
" id="LiberationSansNarrow-118"/>
     </defs>
     <g transform="translate(528.734876 225.497664)scale(0.11662 -0.11662)">
      <use xlink:href="#LiberationSansNarrow-72"/>
      <use x="59.179688" xlink:href="#LiberationSansNarrow-100"/>
      <use x="104.785156" xlink:href="#LiberationSansNarrow-105"/>
      <use x="122.998047" xlink:href="#LiberationSansNarrow-118"/>
     </g>
    </g>
   </g>
  </g>
 </g>
 <defs>
  <clipPath id="p88e92dd118">
   <rect height="234.56" width="499.03" x="59.33" y="17.64"/>
  </clipPath>
 </defs>
</svg>
