<?xml version="1.0" encoding="utf-8" standalone="no"?>
<!DOCTYPE svg PUBLIC "-//W3C//DTD SVG 1.1//EN"
  "http://www.w3.org/Graphics/SVG/1.1/DTD/svg11.dtd">
<!-- Created with matplotlib (https://matplotlib.org/) -->
<svg height="288pt" version="1.1" viewBox="0 0 576 288" width="576pt" xmlns="http://www.w3.org/2000/svg" xmlns:xlink="http://www.w3.org/1999/xlink">
 <defs>
  <style type="text/css">
*{stroke-linecap:butt;stroke-linejoin:round;}
  </style>
 </defs>
 <g id="figure_1">
  <g id="patch_1">
   <path d="M 0 288 
L 576 288 
L 576 0 
L 0 0 
z
" style="fill:#ffffff;"/>
  </g>
  <g id="axes_1">
   <g id="patch_2">
    <path d="M 59.33 252.2 
L 558.36 252.2 
L 558.36 17.64 
L 59.33 17.64 
z
" style="fill:#ffffff;"/>
   </g>
   <g id="matplotlib.axis_1">
    <g id="xtick_1">
     <g id="line2d_1">
      <path clip-path="url(#pcb3d0dcc02)" d="M 82.013182 252.2 
L 82.013182 17.64 
" style="fill:none;stroke:#b0b0b0;stroke-dasharray:1.48,0.64;stroke-dashoffset:0;stroke-width:0.4;"/>
     </g>
     <g id="text_1">
      <!-- 0.0 -->
      <defs>
       <path d="M 42.390625 34.421875 
Q 42.390625 24.515625 40.84375 17.75 
Q 39.3125 10.984375 36.640625 6.8125 
Q 33.984375 2.640625 30.390625 0.828125 
Q 26.8125 -0.984375 22.703125 -0.984375 
Q 18.609375 -0.984375 15.03125 0.828125 
Q 11.46875 2.640625 8.828125 6.78125 
Q 6.203125 10.9375 4.703125 17.703125 
Q 3.21875 24.46875 3.21875 34.421875 
Q 3.21875 44.828125 4.703125 51.640625 
Q 6.203125 58.453125 8.828125 62.5 
Q 11.46875 66.546875 15.078125 68.1875 
Q 18.703125 69.828125 22.953125 69.828125 
Q 27 69.828125 30.53125 68.1875 
Q 34.078125 66.546875 36.71875 62.5 
Q 39.359375 58.453125 40.875 51.640625 
Q 42.390625 44.828125 42.390625 34.421875 
z
M 35.0625 34.421875 
Q 35.0625 42.625 34.28125 48.0625 
Q 33.5 53.515625 31.9375 56.765625 
Q 30.375 60.015625 28.09375 61.359375 
Q 25.828125 62.703125 22.953125 62.703125 
Q 19.921875 62.703125 17.578125 61.328125 
Q 15.234375 59.96875 13.671875 56.71875 
Q 12.109375 53.46875 11.296875 48.015625 
Q 10.5 42.578125 10.5 34.421875 
Q 10.5 26.515625 11.296875 21.09375 
Q 12.109375 15.671875 13.6875 12.375 
Q 15.28125 9.078125 17.578125 7.640625 
Q 19.875 6.203125 22.796875 6.203125 
Q 25.640625 6.203125 27.90625 7.640625 
Q 30.171875 9.078125 31.75 12.375 
Q 33.34375 15.671875 34.203125 21.09375 
Q 35.0625 26.515625 35.0625 34.421875 
z
" id="LiberationSansNarrow-48"/>
       <path d="M 7.46875 0 
L 7.46875 10.6875 
L 15.328125 10.6875 
L 15.328125 0 
z
" id="LiberationSansNarrow-46"/>
      </defs>
      <g transform="translate(74.032088 269.345625)scale(0.14 -0.14)">
       <use xlink:href="#LiberationSansNarrow-48"/>
       <use x="45.605469" xlink:href="#LiberationSansNarrow-46"/>
       <use x="68.408203" xlink:href="#LiberationSansNarrow-48"/>
      </g>
     </g>
    </g>
    <g id="xtick_2">
     <g id="line2d_2">
      <path clip-path="url(#pcb3d0dcc02)" d="M 172.745909 252.2 
L 172.745909 17.64 
" style="fill:none;stroke:#b0b0b0;stroke-dasharray:1.48,0.64;stroke-dashoffset:0;stroke-width:0.4;"/>
     </g>
     <g id="text_2">
      <!-- 0.2 -->
      <defs>
       <path d="M 4.109375 0 
L 4.109375 6.203125 
Q 6.15625 11.921875 9.109375 16.28125 
Q 12.0625 20.65625 15.3125 24.1875 
Q 18.5625 27.734375 21.734375 30.765625 
Q 24.90625 33.796875 27.46875 36.8125 
Q 30.03125 39.84375 31.609375 43.15625 
Q 33.203125 46.484375 33.203125 50.6875 
Q 33.203125 53.609375 32.46875 55.828125 
Q 31.734375 58.0625 30.390625 59.5625 
Q 29.046875 61.078125 27.140625 61.828125 
Q 25.25 62.59375 22.90625 62.59375 
Q 20.75 62.59375 18.84375 61.859375 
Q 16.9375 61.140625 15.453125 59.671875 
Q 13.96875 58.203125 13.03125 56.03125 
Q 12.109375 53.859375 11.8125 50.984375 
L 4.4375 51.8125 
Q 4.78125 55.515625 6.125 58.78125 
Q 7.46875 62.0625 9.78125 64.53125 
Q 12.109375 67 15.359375 68.40625 
Q 18.609375 69.828125 22.90625 69.828125 
Q 27.09375 69.828125 30.390625 68.609375 
Q 33.6875 67.390625 35.9375 64.984375 
Q 38.1875 62.59375 39.40625 59.078125 
Q 40.625 55.5625 40.625 50.984375 
Q 40.625 47.515625 39.59375 44.390625 
Q 38.578125 41.265625 36.859375 38.421875 
Q 35.15625 35.59375 32.90625 32.953125 
Q 30.671875 30.328125 28.21875 27.828125 
L 23.296875 22.859375 
Q 20.796875 20.359375 18.625 17.859375 
Q 16.453125 15.375 14.734375 12.8125 
Q 13.03125 10.25 12.0625 7.46875 
L 41.5 7.46875 
L 41.5 0 
z
" id="LiberationSansNarrow-50"/>
      </defs>
      <g transform="translate(164.764815 269.345625)scale(0.14 -0.14)">
       <use xlink:href="#LiberationSansNarrow-48"/>
       <use x="45.605469" xlink:href="#LiberationSansNarrow-46"/>
       <use x="68.408203" xlink:href="#LiberationSansNarrow-50"/>
      </g>
     </g>
    </g>
    <g id="xtick_3">
     <g id="line2d_3">
      <path clip-path="url(#pcb3d0dcc02)" d="M 263.478636 252.2 
L 263.478636 17.64 
" style="fill:none;stroke:#b0b0b0;stroke-dasharray:1.48,0.64;stroke-dashoffset:0;stroke-width:0.4;"/>
     </g>
     <g id="text_3">
      <!-- 0.4 -->
      <defs>
       <path d="M 35.25 15.578125 
L 35.25 0 
L 28.46875 0 
L 28.46875 15.578125 
L 1.90625 15.578125 
L 1.90625 22.40625 
L 27.6875 68.796875 
L 35.25 68.796875 
L 35.25 22.515625 
L 43.21875 22.515625 
L 43.21875 15.578125 
z
M 28.46875 58.890625 
Q 28.375 58.640625 28.03125 57.90625 
L 27.34375 56.34375 
L 26.5625 54.59375 
Q 26.125 53.65625 25.78125 53.078125 
L 11.328125 27.09375 
Q 11.140625 26.703125 10.75 26.078125 
L 9.96875 24.8125 
L 9.1875 23.484375 
Q 8.796875 22.859375 8.546875 22.515625 
L 28.46875 22.515625 
z
" id="LiberationSansNarrow-52"/>
      </defs>
      <g transform="translate(255.497543 269.345625)scale(0.14 -0.14)">
       <use xlink:href="#LiberationSansNarrow-48"/>
       <use x="45.605469" xlink:href="#LiberationSansNarrow-46"/>
       <use x="68.408203" xlink:href="#LiberationSansNarrow-52"/>
      </g>
     </g>
    </g>
    <g id="xtick_4">
     <g id="line2d_4">
      <path clip-path="url(#pcb3d0dcc02)" d="M 354.211364 252.2 
L 354.211364 17.64 
" style="fill:none;stroke:#b0b0b0;stroke-dasharray:1.48,0.64;stroke-dashoffset:0;stroke-width:0.4;"/>
     </g>
     <g id="text_4">
      <!-- 0.6 -->
      <defs>
       <path d="M 42 22.515625 
Q 42 17.328125 40.828125 13 
Q 39.65625 8.6875 37.359375 5.578125 
Q 35.0625 2.484375 31.640625 0.75 
Q 28.21875 -0.984375 23.78125 -0.984375 
Q 18.84375 -0.984375 15.15625 1.3125 
Q 11.46875 3.609375 9.03125 7.921875 
Q 6.59375 12.25 5.375 18.53125 
Q 4.15625 24.8125 4.15625 32.8125 
Q 4.15625 42 5.546875 48.921875 
Q 6.9375 55.859375 9.515625 60.5 
Q 12.109375 65.140625 15.859375 67.484375 
Q 19.625 69.828125 24.359375 69.828125 
Q 27.25 69.828125 29.765625 69.09375 
Q 32.28125 68.359375 34.328125 66.71875 
Q 36.375 65.09375 37.9375 62.40625 
Q 39.5 59.71875 40.4375 55.8125 
L 33.546875 54.296875 
Q 32.421875 58.734375 29.953125 60.71875 
Q 27.484375 62.703125 24.265625 62.703125 
Q 21.296875 62.703125 18.890625 60.984375 
Q 16.5 59.28125 14.8125 55.875 
Q 13.140625 52.484375 12.234375 47.359375 
Q 11.328125 42.234375 11.328125 35.40625 
Q 13.28125 39.84375 16.84375 42.15625 
Q 20.40625 44.484375 25.046875 44.484375 
Q 28.90625 44.484375 32 42.96875 
Q 35.109375 41.453125 37.328125 38.59375 
Q 39.546875 35.75 40.765625 31.671875 
Q 42 27.59375 42 22.515625 
z
M 34.671875 22.125 
Q 34.671875 25.6875 33.953125 28.5625 
Q 33.25 31.453125 31.8125 33.46875 
Q 30.375 35.5 28.25 36.59375 
Q 26.125 37.703125 23.296875 37.703125 
Q 21.34375 37.703125 19.328125 36.984375 
Q 17.328125 36.28125 15.71875 34.6875 
Q 14.109375 33.109375 13.078125 30.515625 
Q 12.0625 27.9375 12.0625 24.21875 
Q 12.0625 20.40625 12.859375 17.109375 
Q 13.671875 13.8125 15.15625 11.375 
Q 16.65625 8.9375 18.78125 7.515625 
Q 20.90625 6.109375 23.53125 6.109375 
Q 26.125 6.109375 28.203125 7.203125 
Q 30.28125 8.296875 31.71875 10.375 
Q 33.15625 12.453125 33.90625 15.421875 
Q 34.671875 18.40625 34.671875 22.125 
z
" id="LiberationSansNarrow-54"/>
      </defs>
      <g transform="translate(346.23027 269.345625)scale(0.14 -0.14)">
       <use xlink:href="#LiberationSansNarrow-48"/>
       <use x="45.605469" xlink:href="#LiberationSansNarrow-46"/>
       <use x="68.408203" xlink:href="#LiberationSansNarrow-54"/>
      </g>
     </g>
    </g>
    <g id="xtick_5">
     <g id="line2d_5">
      <path clip-path="url(#pcb3d0dcc02)" d="M 444.944091 252.2 
L 444.944091 17.64 
" style="fill:none;stroke:#b0b0b0;stroke-dasharray:1.48,0.64;stroke-dashoffset:0;stroke-width:0.4;"/>
     </g>
     <g id="text_5">
      <!-- 0.8 -->
      <defs>
       <path d="M 42.046875 19.1875 
Q 42.046875 14.796875 40.890625 11.109375 
Q 39.75 7.421875 37.40625 4.734375 
Q 35.0625 2.046875 31.421875 0.53125 
Q 27.78125 -0.984375 22.796875 -0.984375 
Q 17.828125 -0.984375 14.203125 0.53125 
Q 10.59375 2.046875 8.21875 4.703125 
Q 5.859375 7.375 4.703125 11.0625 
Q 3.5625 14.75 3.5625 19.09375 
Q 3.5625 22.859375 4.515625 25.78125 
Q 5.46875 28.71875 7.03125 30.828125 
Q 8.59375 32.953125 10.609375 34.25 
Q 12.640625 35.546875 14.796875 35.984375 
L 14.796875 36.1875 
Q 12.453125 36.859375 10.59375 38.375 
Q 8.734375 39.890625 7.46875 42.015625 
Q 6.203125 44.140625 5.546875 46.71875 
Q 4.890625 49.3125 4.890625 52.203125 
Q 4.890625 55.8125 6.03125 59 
Q 7.171875 62.203125 9.421875 64.625 
Q 11.671875 67.046875 14.984375 68.4375 
Q 18.3125 69.828125 22.65625 69.828125 
Q 27.25 69.828125 30.640625 68.40625 
Q 34.03125 67 36.25 64.578125 
Q 38.484375 62.15625 39.546875 58.9375 
Q 40.625 55.71875 40.625 52.09375 
Q 40.625 49.265625 39.96875 46.671875 
Q 39.3125 44.09375 38.0625 41.96875 
Q 36.8125 39.84375 34.9375 38.34375 
Q 33.0625 36.859375 30.609375 36.28125 
L 30.609375 36.078125 
Q 33.0625 35.59375 35.15625 34.296875 
Q 37.25 33.015625 38.765625 30.890625 
Q 40.28125 28.765625 41.15625 25.828125 
Q 42.046875 22.90625 42.046875 19.1875 
z
M 33.15625 51.609375 
Q 33.15625 54.203125 32.609375 56.34375 
Q 32.078125 58.5 30.828125 60.03125 
Q 29.59375 61.578125 27.59375 62.421875 
Q 25.59375 63.28125 22.65625 63.28125 
Q 19.828125 63.28125 17.875 62.421875 
Q 15.921875 61.578125 14.640625 60.03125 
Q 13.375 58.5 12.8125 56.34375 
Q 12.25 54.203125 12.25 51.609375 
Q 12.25 49.5625 12.6875 47.40625 
Q 13.140625 45.265625 14.3125 43.5 
Q 15.484375 41.75 17.5 40.625 
Q 19.53125 39.5 22.75 39.5 
Q 26.171875 39.5 28.21875 40.625 
Q 30.28125 41.75 31.375 43.5 
Q 32.46875 45.265625 32.8125 47.40625 
Q 33.15625 49.5625 33.15625 51.609375 
z
M 34.578125 20.015625 
Q 34.578125 22.515625 34.015625 24.828125 
Q 33.453125 27.15625 32.078125 28.9375 
Q 30.71875 30.71875 28.421875 31.8125 
Q 26.125 32.90625 22.65625 32.90625 
Q 19.484375 32.90625 17.265625 31.8125 
Q 15.046875 30.71875 13.671875 28.90625 
Q 12.3125 27.09375 11.671875 24.71875 
Q 11.03125 22.359375 11.03125 19.828125 
Q 11.03125 16.65625 11.671875 14.03125 
Q 12.3125 11.421875 13.703125 9.546875 
Q 15.09375 7.671875 17.375 6.640625 
Q 19.671875 5.609375 22.90625 5.609375 
Q 26.171875 5.609375 28.421875 6.640625 
Q 30.671875 7.671875 32.03125 9.546875 
Q 33.40625 11.421875 33.984375 14.078125 
Q 34.578125 16.75 34.578125 20.015625 
z
" id="LiberationSansNarrow-56"/>
      </defs>
      <g transform="translate(436.962997 269.345625)scale(0.14 -0.14)">
       <use xlink:href="#LiberationSansNarrow-48"/>
       <use x="45.605469" xlink:href="#LiberationSansNarrow-46"/>
       <use x="68.408203" xlink:href="#LiberationSansNarrow-56"/>
      </g>
     </g>
    </g>
    <g id="xtick_6">
     <g id="line2d_6">
      <path clip-path="url(#pcb3d0dcc02)" d="M 535.676818 252.2 
L 535.676818 17.64 
" style="fill:none;stroke:#b0b0b0;stroke-dasharray:1.48,0.64;stroke-dashoffset:0;stroke-width:0.4;"/>
     </g>
     <g id="text_6">
      <!-- 1.0 -->
      <defs>
       <path d="M 6.25 0 
L 6.25 7.46875 
L 20.609375 7.46875 
L 20.609375 60.40625 
L 7.90625 49.3125 
L 7.90625 57.625 
L 21.234375 68.796875 
L 27.875 68.796875 
L 27.875 7.46875 
L 41.609375 7.46875 
L 41.609375 0 
z
" id="LiberationSansNarrow-49"/>
      </defs>
      <g transform="translate(527.695724 269.345625)scale(0.14 -0.14)">
       <use xlink:href="#LiberationSansNarrow-49"/>
       <use x="45.605469" xlink:href="#LiberationSansNarrow-46"/>
       <use x="68.408203" xlink:href="#LiberationSansNarrow-48"/>
      </g>
     </g>
    </g>
   </g>
   <g id="matplotlib.axis_2">
    <g id="ytick_1">
     <g id="line2d_7">
      <path clip-path="url(#pcb3d0dcc02)" d="M 59.33 199.001042 
L 558.36 199.001042 
" style="fill:none;stroke:#b0b0b0;stroke-dasharray:1.48,0.64;stroke-dashoffset:0;stroke-width:0.4;"/>
     </g>
     <g id="text_7">
      <!-- −60 -->
      <defs>
       <path d="M 4.046875 29.6875 
L 4.046875 36.8125 
L 43.890625 36.8125 
L 43.890625 29.6875 
z
" id="LiberationSansNarrow-8722"/>
      </defs>
      <g transform="translate(32.8525 204.073854)scale(0.14 -0.14)">
       <use xlink:href="#LiberationSansNarrow-8722"/>
       <use x="47.900391" xlink:href="#LiberationSansNarrow-54"/>
       <use x="93.505859" xlink:href="#LiberationSansNarrow-48"/>
      </g>
     </g>
    </g>
    <g id="ytick_2">
     <g id="line2d_8">
      <path clip-path="url(#pcb3d0dcc02)" d="M 59.33 142.1013 
L 558.36 142.1013 
" style="fill:none;stroke:#b0b0b0;stroke-dasharray:1.48,0.64;stroke-dashoffset:0;stroke-width:0.4;"/>
     </g>
     <g id="text_8">
      <!-- −40 -->
      <g transform="translate(32.8525 147.174113)scale(0.14 -0.14)">
       <use xlink:href="#LiberationSansNarrow-8722"/>
       <use x="47.900391" xlink:href="#LiberationSansNarrow-52"/>
       <use x="93.505859" xlink:href="#LiberationSansNarrow-48"/>
      </g>
     </g>
    </g>
    <g id="ytick_3">
     <g id="line2d_9">
      <path clip-path="url(#pcb3d0dcc02)" d="M 59.33 85.201559 
L 558.36 85.201559 
" style="fill:none;stroke:#b0b0b0;stroke-dasharray:1.48,0.64;stroke-dashoffset:0;stroke-width:0.4;"/>
     </g>
     <g id="text_9">
      <!-- −20 -->
      <g transform="translate(32.8525 90.274372)scale(0.14 -0.14)">
       <use xlink:href="#LiberationSansNarrow-8722"/>
       <use x="47.900391" xlink:href="#LiberationSansNarrow-50"/>
       <use x="93.505859" xlink:href="#LiberationSansNarrow-48"/>
      </g>
     </g>
    </g>
    <g id="ytick_4">
     <g id="line2d_10">
      <path clip-path="url(#pcb3d0dcc02)" d="M 59.33 28.301818 
L 558.36 28.301818 
" style="fill:none;stroke:#b0b0b0;stroke-dasharray:1.48,0.64;stroke-dashoffset:0;stroke-width:0.4;"/>
     </g>
     <g id="text_10">
      <!-- 0 -->
      <g transform="translate(45.944688 33.374631)scale(0.14 -0.14)">
       <use xlink:href="#LiberationSansNarrow-48"/>
      </g>
     </g>
    </g>
    <g id="text_11">
     <!-- макс. оставание от рынка, % -->
     <defs>
      <path d="M 31.546875 0 
L 25.390625 0 
L 12.40625 46.4375 
Q 12.453125 45.171875 12.515625 43.703125 
Q 12.59375 42.234375 12.59375 40.75 
Q 12.59375 39.265625 12.609375 37.859375 
Q 12.640625 36.46875 12.640625 35.359375 
L 12.640625 0 
L 5.671875 0 
L 5.671875 52.828125 
L 16.890625 52.828125 
L 25.734375 20.5625 
Q 26.65625 17.484375 27.390625 13.796875 
Q 28.125 10.109375 28.421875 6.59375 
Q 28.8125 10.109375 29.515625 13.796875 
Q 30.21875 17.484375 31.15625 20.5625 
L 39.984375 52.828125 
L 50.734375 52.828125 
L 50.734375 0 
L 43.796875 0 
L 43.796875 35.359375 
Q 43.796875 36.421875 43.8125 37.890625 
Q 43.84375 39.359375 43.921875 40.921875 
Q 44 42.484375 44.015625 43.9375 
Q 44.046875 45.40625 44.140625 46.53125 
z
" id="LiberationSansNarrow-1084"/>
      <path d="M 16.546875 -0.984375 
Q 10.015625 -0.984375 6.734375 3.21875 
Q 3.46875 7.421875 3.46875 14.75 
Q 3.46875 19.96875 5.09375 23.3125 
Q 6.734375 26.65625 9.34375 28.5625 
Q 11.96875 30.46875 15.328125 31.203125 
Q 18.703125 31.9375 22.171875 32.03125 
L 31.9375 32.234375 
L 31.9375 35.109375 
Q 31.9375 38.375 31.375 40.671875 
Q 30.8125 42.96875 29.640625 44.375 
Q 28.46875 45.796875 26.734375 46.453125 
Q 25 47.125 22.609375 47.125 
Q 20.515625 47.125 18.84375 46.75 
Q 17.1875 46.390625 15.9375 45.4375 
Q 14.703125 44.484375 13.9375 42.84375 
Q 13.1875 41.21875 12.9375 38.71875 
L 5.421875 39.546875 
Q 5.8125 42.671875 6.9375 45.28125 
Q 8.0625 47.90625 10.109375 49.796875 
Q 12.15625 51.703125 15.25 52.75 
Q 18.359375 53.8125 22.796875 53.8125 
Q 30.953125 53.8125 35.078125 49.234375 
Q 39.203125 44.671875 39.203125 36.03125 
L 39.203125 13.28125 
Q 39.203125 9.375 40.03125 7.390625 
Q 40.875 5.421875 43.265625 5.421875 
Q 43.84375 5.421875 44.453125 5.515625 
Q 45.0625 5.609375 45.609375 5.765625 
L 45.609375 0.296875 
Q 44.234375 -0.09375 42.890625 -0.28125 
Q 41.546875 -0.484375 40.046875 -0.484375 
Q 37.984375 -0.484375 36.515625 0.171875 
Q 35.0625 0.828125 34.15625 2.171875 
Q 33.25 3.515625 32.765625 5.484375 
Q 32.28125 7.46875 32.125 10.109375 
L 31.9375 10.109375 
Q 30.765625 7.5625 29.375 5.515625 
Q 27.984375 3.46875 26.140625 2.03125 
Q 24.3125 0.59375 21.9375 -0.1875 
Q 19.578125 -0.984375 16.546875 -0.984375 
z
M 18.21875 5.609375 
Q 21.6875 5.609375 24.25 7.140625 
Q 26.8125 8.6875 28.515625 11.078125 
Q 30.21875 13.484375 31.078125 16.3125 
Q 31.9375 19.140625 31.9375 21.734375 
L 31.9375 26.078125 
L 24.03125 25.875 
Q 21.390625 25.828125 19 25.40625 
Q 16.609375 25 14.8125 23.78125 
Q 13.03125 22.5625 11.953125 20.359375 
Q 10.890625 18.171875 10.890625 14.59375 
Q 10.890625 10.296875 12.796875 7.953125 
Q 14.703125 5.609375 18.21875 5.609375 
z
" id="LiberationSansNarrow-1072"/>
      <path d="M 5.515625 52.828125 
L 12.703125 52.828125 
L 12.703125 29.6875 
Q 13.921875 29.6875 14.875 30.078125 
Q 15.828125 30.46875 16.875 31.6875 
Q 17.921875 32.90625 19.21875 35.15625 
Q 20.515625 37.40625 22.46875 41.15625 
L 28.375 52.828125 
L 35.890625 52.828125 
L 27.25 36.96875 
Q 25.4375 33.734375 24.109375 31.65625 
Q 22.796875 29.59375 22.125 28.90625 
L 36.234375 0 
L 28.21875 0 
L 17.140625 24.265625 
Q 16.359375 23.875 15.0625 23.578125 
Q 13.765625 23.296875 12.703125 23.296875 
L 12.703125 0 
L 5.515625 0 
z
" id="LiberationSansNarrow-1082"/>
      <path d="M 11.03125 26.65625 
Q 11.03125 22.125 11.5625 18.3125 
Q 12.109375 14.5 13.375 11.734375 
Q 14.65625 8.984375 16.75 7.46875 
Q 18.84375 5.953125 21.96875 5.953125 
Q 25.828125 5.953125 28.390625 8.484375 
Q 30.953125 11.03125 31.546875 16.3125 
L 38.875 15.71875 
Q 38.53125 12.453125 37.296875 9.421875 
Q 36.078125 6.390625 34.03125 4.09375 
Q 31.984375 1.8125 29 0.40625 
Q 26.03125 -0.984375 22.171875 -0.984375 
Q 17.09375 -0.984375 13.5 1.109375 
Q 9.90625 3.21875 7.6875 6.90625 
Q 5.46875 10.59375 4.46875 15.59375 
Q 3.46875 20.609375 3.46875 26.46875 
Q 3.46875 31.78125 4.203125 35.859375 
Q 4.9375 39.9375 6.21875 42.984375 
Q 7.515625 46.046875 9.265625 48.125 
Q 11.03125 50.203125 13.109375 51.4375 
Q 15.1875 52.6875 17.453125 53.25 
Q 19.734375 53.8125 22.078125 53.8125 
Q 25.734375 53.8125 28.5625 52.59375 
Q 31.390625 51.375 33.46875 49.25 
Q 35.546875 47.125 36.8125 44.234375 
Q 38.09375 41.359375 38.625 38.03125 
L 31.203125 37.359375 
Q 30.671875 41.75 28.375 44.328125 
Q 26.078125 46.921875 21.875 46.921875 
Q 18.796875 46.921875 16.71875 45.671875 
Q 14.65625 44.4375 13.375 41.921875 
Q 12.109375 39.40625 11.5625 35.59375 
Q 11.03125 31.78125 11.03125 26.65625 
z
" id="LiberationSansNarrow-1089"/>
      <path id="LiberationSansNarrow-32"/>
      <path d="M 42.140625 26.46875 
Q 42.140625 12.59375 37.125 5.796875 
Q 32.125 -0.984375 22.609375 -0.984375 
Q 18.0625 -0.984375 14.515625 0.671875 
Q 10.984375 2.34375 8.515625 5.765625 
Q 6.0625 9.1875 4.765625 14.328125 
Q 3.46875 19.484375 3.46875 26.46875 
Q 3.46875 53.8125 22.859375 53.8125 
Q 27.875 53.8125 31.5625 52.09375 
Q 35.25 50.390625 37.59375 46.96875 
Q 39.9375 43.5625 41.03125 38.421875 
Q 42.140625 33.296875 42.140625 26.46875 
z
M 34.578125 26.46875 
Q 34.578125 32.625 33.8125 36.625 
Q 33.0625 40.625 31.546875 43.015625 
Q 30.03125 45.40625 27.859375 46.359375 
Q 25.6875 47.3125 23 47.3125 
Q 20.21875 47.3125 17.984375 46.3125 
Q 15.765625 45.3125 14.203125 42.890625 
Q 12.640625 40.484375 11.828125 36.46875 
Q 11.03125 32.46875 11.03125 26.46875 
Q 11.03125 20.3125 11.90625 16.28125 
Q 12.796875 12.25 14.328125 9.859375 
Q 15.875 7.46875 17.96875 6.484375 
Q 20.0625 5.515625 22.5625 5.515625 
Q 25.34375 5.515625 27.5625 6.46875 
Q 29.78125 7.421875 31.34375 9.8125 
Q 32.90625 12.203125 33.734375 16.25 
Q 34.578125 20.3125 34.578125 26.46875 
z
" id="LiberationSansNarrow-1086"/>
      <path d="M 1.421875 52.828125 
L 36.140625 52.828125 
L 36.140625 46.4375 
L 22.359375 46.4375 
L 22.359375 0 
L 15.1875 0 
L 15.1875 46.4375 
L 1.421875 46.4375 
z
" id="LiberationSansNarrow-1090"/>
      <path d="M 22.5625 52.828125 
Q 25.59375 52.828125 28.484375 52.234375 
Q 31.390625 51.65625 33.640625 50.140625 
Q 35.890625 48.640625 37.234375 46.09375 
Q 38.578125 43.5625 38.578125 39.59375 
Q 38.578125 37.015625 37.890625 35.03125 
Q 37.203125 33.0625 35.984375 31.640625 
Q 34.765625 30.21875 33.125 29.3125 
Q 31.5 28.421875 29.6875 27.984375 
L 29.6875 27.640625 
Q 31.84375 27.296875 33.734375 26.4375 
Q 35.640625 25.59375 37 24.09375 
Q 38.375 22.609375 39.171875 20.40625 
Q 39.984375 18.21875 39.984375 15.234375 
Q 39.984375 11.421875 38.765625 8.5625 
Q 37.546875 5.71875 35.375 3.8125 
Q 33.203125 1.90625 30.171875 0.953125 
Q 27.15625 0 23.484375 0 
L 5.671875 0 
L 5.671875 52.828125 
z
M 12.890625 6.5 
L 22.3125 6.5 
Q 25.09375 6.5 27 6.984375 
Q 28.90625 7.46875 30.078125 8.546875 
Q 31.25 9.625 31.78125 11.25 
Q 32.328125 12.890625 32.328125 15.1875 
Q 32.328125 17.625 31.765625 19.328125 
Q 31.203125 21.046875 29.953125 22.109375 
Q 28.71875 23.1875 26.703125 23.671875 
Q 24.703125 24.171875 21.875 24.171875 
L 12.890625 24.171875 
z
M 12.890625 46.140625 
L 12.890625 30.515625 
L 21.53125 30.515625 
Q 24.265625 30.515625 26.0625 30.984375 
Q 27.875 31.453125 29 32.390625 
Q 30.125 33.34375 30.5625 34.828125 
Q 31 36.328125 31 38.421875 
Q 31 42.4375 28.96875 44.28125 
Q 26.953125 46.140625 22.125 46.140625 
z
" id="LiberationSansNarrow-1074"/>
      <path d="M 12.890625 52.828125 
L 12.890625 30.46875 
L 32.375 30.46875 
L 32.375 52.828125 
L 39.59375 52.828125 
L 39.59375 0 
L 32.375 0 
L 32.375 24.078125 
L 12.890625 24.078125 
L 12.890625 0 
L 5.671875 0 
L 5.671875 52.828125 
z
" id="LiberationSansNarrow-1085"/>
      <path d="M 12.640625 52.828125 
L 12.640625 23.921875 
Q 12.640625 22.796875 12.59375 20.921875 
Q 12.546875 19.046875 12.46875 17.046875 
Q 12.40625 15.046875 12.359375 13.234375 
Q 12.3125 11.421875 12.25 10.40625 
L 32.28125 52.828125 
L 40.140625 52.828125 
L 40.140625 0 
L 33.25 0 
L 33.25 32.234375 
Q 33.25 33.15625 33.296875 34.578125 
L 33.40625 37.40625 
Q 33.453125 38.875 33.5 40.234375 
L 33.640625 42.625 
L 13.375 0 
L 5.71875 0 
L 5.71875 52.828125 
z
" id="LiberationSansNarrow-1080"/>
      <path d="M 10.6875 24.5625 
Q 10.6875 20.40625 11.5625 16.90625 
Q 12.453125 13.421875 13.90625 10.90625 
Q 15.375 8.40625 17.640625 7 
Q 19.921875 5.609375 23.140625 5.609375 
Q 27.828125 5.609375 30.65625 7.90625 
Q 33.5 10.203125 34.46875 13.71875 
L 40.828125 11.53125 
Q 40.140625 9.328125 38.921875 7.109375 
Q 37.703125 4.890625 35.640625 3.09375 
Q 33.59375 1.3125 30.53125 0.15625 
Q 27.484375 -0.984375 23.140625 -0.984375 
Q 13.53125 -0.984375 8.5 6 
Q 3.46875 12.984375 3.46875 26.765625 
Q 3.46875 34.1875 5 39.328125 
Q 6.546875 44.484375 9.171875 47.703125 
Q 11.8125 50.921875 15.328125 52.359375 
Q 18.84375 53.8125 22.859375 53.8125 
Q 28.328125 53.8125 31.984375 51.65625 
Q 39.0625 47.515625 41.015625 36.8125 
Q 41.9375 31.6875 41.9375 25.734375 
L 41.9375 24.5625 
z
M 34.71875 31.296875 
Q 34.71875 40.140625 31.421875 43.71875 
Q 28.125 47.3125 22.75 47.3125 
Q 18.953125 47.3125 15.328125 44.09375 
Q 10.9375 40.328125 10.6875 31.296875 
z
" id="LiberationSansNarrow-1077"/>
      <path d="M 42.140625 26.65625 
Q 42.140625 20.65625 41.359375 15.578125 
Q 40.578125 10.5 38.6875 6.828125 
Q 36.8125 3.171875 33.765625 1.09375 
Q 30.71875 -0.984375 26.21875 -0.984375 
Q 21.578125 -0.984375 18.078125 1.171875 
Q 14.59375 3.328125 12.796875 8.203125 
L 12.546875 8.203125 
Q 12.59375 8.109375 12.609375 7.328125 
Q 12.640625 6.546875 12.671875 5.375 
Q 12.703125 4.203125 12.71875 2.75 
Q 12.75 1.3125 12.75 -0.09375 
L 12.75 -20.75 
L 5.515625 -20.75 
L 5.515625 42.046875 
Q 5.515625 43.953125 5.484375 45.703125 
Q 5.46875 47.46875 5.4375 48.90625 
Q 5.421875 50.34375 5.375 51.359375 
Q 5.328125 52.390625 5.28125 52.828125 
L 12.25 52.828125 
Q 12.3125 52.6875 12.359375 51.8125 
L 12.5 49.703125 
Q 12.546875 48.4375 12.59375 47.015625 
Q 12.640625 45.609375 12.640625 44.34375 
L 12.796875 44.34375 
Q 13.765625 46.875 15.0625 48.65625 
Q 16.359375 50.4375 18.015625 51.578125 
Q 19.671875 52.734375 21.671875 53.25 
Q 23.6875 53.765625 26.21875 53.765625 
Q 30.71875 53.765625 33.765625 51.8125 
Q 36.8125 49.859375 38.6875 46.3125 
Q 40.578125 42.78125 41.359375 37.765625 
Q 42.140625 32.765625 42.140625 26.65625 
z
M 34.578125 26.46875 
Q 34.578125 31.34375 34.109375 35.15625 
Q 33.640625 38.96875 32.4375 41.59375 
Q 31.25 44.234375 29.296875 45.59375 
Q 27.34375 46.96875 24.359375 46.96875 
Q 21.96875 46.96875 19.84375 46.140625 
Q 17.71875 45.3125 16.125 42.96875 
Q 14.546875 40.625 13.640625 36.5 
Q 12.75 32.375 12.75 25.78125 
Q 12.75 20.171875 13.5 16.28125 
Q 14.265625 12.40625 15.71875 10.015625 
Q 17.1875 7.625 19.328125 6.5625 
Q 21.484375 5.515625 24.3125 5.515625 
Q 27.34375 5.515625 29.296875 6.921875 
Q 31.25 8.34375 32.4375 11.03125 
Q 33.640625 13.71875 34.109375 17.59375 
Q 34.578125 21.484375 34.578125 26.46875 
z
" id="LiberationSansNarrow-1088"/>
      <path d="M 22.796875 30.46875 
Q 31.296875 30.46875 35.640625 26.875 
Q 39.984375 23.296875 39.984375 15.53125 
Q 39.984375 11.921875 38.90625 9.03125 
Q 37.84375 6.15625 35.671875 4.15625 
Q 33.5 2.15625 30.296875 1.078125 
Q 27.09375 0 22.859375 0 
L 5.859375 0 
L 5.859375 52.828125 
L 13.328125 52.828125 
L 13.328125 30.46875 
z
M 13.328125 6.203125 
L 21.734375 6.203125 
Q 24.609375 6.203125 26.578125 6.8125 
Q 28.5625 7.421875 29.78125 8.609375 
Q 31 9.8125 31.53125 11.546875 
Q 32.078125 13.28125 32.078125 15.53125 
Q 32.078125 20.125 29.65625 22.234375 
Q 27.25 24.359375 21.734375 24.359375 
L 13.328125 24.359375 
z
M 47.65625 0 
L 47.65625 52.828125 
L 55.125 52.828125 
L 55.125 0 
z
" id="LiberationSansNarrow-1099"/>
      <path d="M 15.4375 10.6875 
L 15.4375 2.484375 
Q 15.4375 -0.09375 15.265625 -2.21875 
Q 15.09375 -4.34375 14.671875 -6.171875 
Q 14.265625 -8.015625 13.671875 -9.625 
Q 13.09375 -11.234375 12.3125 -12.796875 
L 7.375 -12.796875 
Q 9.1875 -9.625 10.15625 -6.390625 
Q 11.140625 -3.171875 11.140625 0 
L 7.625 0 
L 7.625 10.6875 
z
" id="LiberationSansNarrow-44"/>
      <path d="M 69.96875 21.1875 
Q 69.96875 15.09375 68.9375 10.90625 
Q 67.921875 6.734375 66.1875 4.171875 
Q 64.453125 1.609375 62.125 0.5 
Q 59.8125 -0.59375 57.171875 -0.59375 
Q 54.546875 -0.59375 52.21875 0.5 
Q 49.90625 1.609375 48.21875 4.140625 
Q 46.53125 6.6875 45.546875 10.859375 
Q 44.578125 15.046875 44.578125 21.1875 
Q 44.578125 27.6875 45.53125 31.9375 
Q 46.484375 36.1875 48.1875 38.703125 
Q 49.90625 41.21875 52.25 42.21875 
Q 54.59375 43.21875 57.328125 43.21875 
Q 59.96875 43.21875 62.25 42.21875 
Q 64.546875 41.21875 66.25 38.703125 
Q 67.96875 36.1875 68.96875 31.9375 
Q 69.96875 27.6875 69.96875 21.1875 
z
M 21.09375 0 
L 14.890625 0 
L 51.8125 68.796875 
L 58.109375 68.796875 
z
M 15.765625 69.390625 
Q 18.3125 69.390625 20.609375 68.390625 
Q 22.90625 67.390625 24.609375 64.890625 
Q 26.3125 62.40625 27.3125 58.203125 
Q 28.328125 54 28.328125 47.609375 
Q 28.328125 41.453125 27.3125 37.25 
Q 26.3125 33.0625 24.609375 30.4375 
Q 22.90625 27.828125 20.578125 26.703125 
Q 18.265625 25.59375 15.625 25.59375 
Q 12.9375 25.59375 10.609375 26.703125 
Q 8.296875 27.828125 6.59375 30.421875 
Q 4.890625 33.015625 3.90625 37.203125 
Q 2.9375 41.40625 2.9375 47.609375 
Q 2.9375 54 3.90625 58.203125 
Q 4.890625 62.40625 6.609375 64.890625 
Q 8.34375 67.390625 10.6875 68.390625 
Q 13.03125 69.390625 15.765625 69.390625 
z
M 64.0625 21.1875 
Q 64.0625 26.03125 63.625 29.21875 
Q 63.1875 32.421875 62.328125 34.328125 
Q 61.46875 36.234375 60.203125 37.015625 
Q 58.9375 37.796875 57.328125 37.796875 
Q 55.671875 37.796875 54.375 36.984375 
Q 53.078125 36.1875 52.1875 34.28125 
Q 51.3125 32.375 50.875 29.171875 
Q 50.4375 25.984375 50.4375 21.1875 
Q 50.4375 16.546875 50.90625 13.421875 
Q 51.375 10.296875 52.21875 8.375 
Q 53.078125 6.453125 54.34375 5.609375 
Q 55.609375 4.78125 57.234375 4.78125 
Q 58.796875 4.78125 60.0625 5.609375 
Q 61.328125 6.453125 62.203125 8.375 
Q 63.09375 10.296875 63.578125 13.421875 
Q 64.0625 16.546875 64.0625 21.1875 
z
M 22.40625 47.609375 
Q 22.40625 52.390625 21.96875 55.5625 
Q 21.53125 58.734375 20.703125 60.640625 
Q 19.875 62.546875 18.625 63.328125 
Q 17.390625 64.109375 15.765625 64.109375 
Q 14.0625 64.109375 12.734375 63.296875 
Q 11.421875 62.5 10.546875 60.59375 
Q 9.671875 58.6875 9.234375 55.515625 
Q 8.796875 52.34375 8.796875 47.609375 
Q 8.796875 42.96875 9.25 39.796875 
Q 9.71875 36.625 10.5625 34.6875 
Q 11.421875 32.765625 12.71875 31.9375 
Q 14.015625 31.109375 15.671875 31.109375 
Q 17.1875 31.109375 18.421875 31.9375 
Q 19.671875 32.765625 20.546875 34.6875 
Q 21.4375 36.625 21.921875 39.796875 
Q 22.40625 42.96875 22.40625 47.609375 
z
" id="LiberationSansNarrow-37"/>
     </defs>
     <g transform="translate(25.9475 211.967031)rotate(-90)scale(0.14 -0.14)">
      <use xlink:href="#LiberationSansNarrow-1084"/>
      <use x="56.396484" xlink:href="#LiberationSansNarrow-1072"/>
      <use x="102.001953" xlink:href="#LiberationSansNarrow-1082"/>
      <use x="137.857422" xlink:href="#LiberationSansNarrow-1089"/>
      <use x="178.873047" xlink:href="#LiberationSansNarrow-46"/>
      <use x="201.675781" xlink:href="#LiberationSansNarrow-32"/>
      <use x="224.478516" xlink:href="#LiberationSansNarrow-1086"/>
      <use x="270.083984" xlink:href="#LiberationSansNarrow-1089"/>
      <use x="311.099609" xlink:href="#LiberationSansNarrow-1090"/>
      <use x="348.632812" xlink:href="#LiberationSansNarrow-1072"/>
      <use x="394.238281" xlink:href="#LiberationSansNarrow-1074"/>
      <use x="437.777344" xlink:href="#LiberationSansNarrow-1072"/>
      <use x="483.382812" xlink:href="#LiberationSansNarrow-1085"/>
      <use x="528.646484" xlink:href="#LiberationSansNarrow-1080"/>
      <use x="574.496094" xlink:href="#LiberationSansNarrow-1077"/>
      <use x="620.101562" xlink:href="#LiberationSansNarrow-32"/>
      <use x="642.904297" xlink:href="#LiberationSansNarrow-1086"/>
      <use x="688.478516" xlink:href="#LiberationSansNarrow-1090"/>
      <use x="726.027344" xlink:href="#LiberationSansNarrow-32"/>
      <use x="748.830078" xlink:href="#LiberationSansNarrow-1088"/>
      <use x="794.435547" xlink:href="#LiberationSansNarrow-1099"/>
      <use x="855.421875" xlink:href="#LiberationSansNarrow-1085"/>
      <use x="900.685547" xlink:href="#LiberationSansNarrow-1082"/>
      <use x="936.556641" xlink:href="#LiberationSansNarrow-1072"/>
      <use x="982.162109" xlink:href="#LiberationSansNarrow-44"/>
      <use x="1004.964844" xlink:href="#LiberationSansNarrow-32"/>
      <use x="1027.767578" xlink:href="#LiberationSansNarrow-37"/>
     </g>
    </g>
   </g>
   <g id="line2d_11">
    <path clip-path="url(#pcb3d0dcc02)" d="M 82.013182 28.301818 
L 535.676818 28.301818 
L 535.676818 28.301818 
" style="fill:none;stroke:#1f77b4;stroke-linecap:square;stroke-width:2;"/>
   </g>
   <g id="line2d_12">
    <path clip-path="url(#pcb3d0dcc02)" d="M 82.013182 76.014853 
L 85.747039 69.563308 
L 89.480896 68.896537 
L 91.347825 68.790781 
L 93.214753 67.570511 
L 95.081682 66.775275 
L 96.94861 66.10446 
L 98.815539 65.902097 
L 102.549396 65.824484 
L 104.416324 65.668872 
L 106.283253 65.641089 
L 108.150181 65.173845 
L 113.750967 64.876113 
L 115.617896 64.411025 
L 117.484824 64.274093 
L 119.351753 63.564581 
L 121.218681 63.054027 
L 124.952538 62.852139 
L 128.686395 62.063299 
L 130.553324 61.957683 
L 132.420253 61.696284 
L 136.15411 61.690965 
L 138.021038 61.385161 
L 139.887967 61.227658 
L 141.754895 60.021662 
L 151.089538 59.792932 
L 152.956467 59.323658 
L 158.557252 58.639675 
L 160.424181 58.617863 
L 162.291109 58.191136 
L 166.024966 57.937638 
L 167.891895 57.593535 
L 169.758823 57.381685 
L 171.625752 55.8893 
L 173.492681 55.659232 
L 175.359609 55.649622 
L 177.226538 55.512003 
L 179.093466 54.613039 
L 180.960395 54.570359 
L 182.827323 54.054766 
L 184.694252 53.939761 
L 186.56118 53.93854 
L 188.428109 53.640446 
L 190.295037 53.606964 
L 192.161966 53.308388 
L 195.895823 53.192923 
L 203.363537 52.955336 
L 205.230466 52.697368 
L 207.097394 51.936295 
L 216.432037 51.41987 
L 218.298966 51.125273 
L 220.165894 50.993658 
L 222.032823 50.428028 
L 223.899751 50.070598 
L 227.633608 49.946164 
L 229.500537 49.638546 
L 231.367465 49.502624 
L 236.968251 49.473551 
L 238.83518 48.984911 
L 242.569037 48.693301 
L 244.435965 48.673192 
L 248.169822 48.435757 
L 259.371394 48.005216 
L 261.238322 47.586321 
L 263.105251 47.516841 
L 264.972179 47.164396 
L 266.839108 47.12748 
L 274.306822 46.488124 
L 276.17375 46.482765 
L 278.040679 46.348902 
L 279.907608 46.337297 
L 285.508393 45.858843 
L 292.976107 45.813383 
L 296.709964 45.67601 
L 300.443822 45.594976 
L 304.177679 45.515563 
L 306.044607 45.343819 
L 307.911536 45.323649 
L 309.778464 44.888552 
L 320.980036 44.540933 
L 322.846964 44.519562 
L 324.713893 44.006057 
L 335.915464 43.24677 
L 339.649321 43.169562 
L 341.51625 42.88543 
L 348.983964 42.784174 
L 352.717821 42.655644 
L 354.584749 42.470375 
L 356.451678 42.440436 
L 358.318606 41.957495 
L 360.185535 41.874399 
L 362.052464 41.406851 
L 363.919392 41.326108 
L 365.786321 40.72543 
L 367.653249 40.574905 
L 369.520178 40.560917 
L 375.120963 40.217487 
L 376.987892 39.942553 
L 378.85482 39.888748 
L 384.455606 39.403704 
L 390.056392 39.316569 
L 391.92332 39.093753 
L 393.790249 39.04901 
L 397.524106 38.68002 
L 399.391034 38.646918 
L 401.257963 38.305419 
L 404.99182 38.043034 
L 412.459534 37.849451 
L 419.927248 37.298173 
L 421.794177 37.022172 
L 427.394963 36.84625 
L 429.261891 36.677008 
L 431.12882 36.284388 
L 436.729605 35.836853 
L 446.064248 35.391542 
L 447.931177 34.977306 
L 449.798105 34.753703 
L 451.665034 34.404284 
L 453.531962 34.1742 
L 455.398891 34.127089 
L 457.265819 33.747299 
L 464.733533 33.475584 
L 466.600462 33.210974 
L 470.334319 33.179467 
L 472.201248 32.849851 
L 474.068176 32.744155 
L 475.935105 32.47997 
L 479.668962 32.344737 
L 483.402819 31.915729 
L 485.269747 31.090758 
L 489.003605 30.758374 
L 490.870533 30.311724 
L 494.60439 30.175015 
L 496.471319 29.478268 
L 502.072104 29.410195 
L 503.939033 28.422576 
L 505.805961 28.301818 
L 535.676818 28.301818 
L 535.676818 28.301818 
" style="fill:none;stroke:#ff7f0e;stroke-linecap:square;"/>
   </g>
   <g id="line2d_13">
    <path clip-path="url(#pcb3d0dcc02)" d="M 82.013182 117.587784 
L 83.88011 117.172202 
L 85.747039 115.357708 
L 87.613967 113.926647 
L 89.480896 113.663641 
L 91.347825 112.600635 
L 93.214753 112.579085 
L 95.081682 112.232952 
L 96.94861 110.875527 
L 98.815539 110.675385 
L 100.682467 109.945605 
L 102.549396 108.740156 
L 104.416324 108.725457 
L 106.283253 107.953822 
L 108.150181 107.662856 
L 110.01711 107.518252 
L 111.884039 106.349104 
L 113.750967 105.493645 
L 115.617896 105.24009 
L 117.484824 104.140093 
L 119.351753 104.032338 
L 121.218681 103.719136 
L 123.08561 103.519854 
L 124.952538 103.176101 
L 128.686395 102.996391 
L 132.420253 102.581121 
L 134.287181 102.392865 
L 136.15411 102.044124 
L 143.621824 101.514667 
L 147.355681 101.348331 
L 149.222609 100.709094 
L 151.089538 100.530641 
L 152.956467 100.512392 
L 154.823395 99.916209 
L 156.690324 99.628934 
L 158.557252 99.476826 
L 160.424181 99.44961 
L 166.024966 98.564915 
L 167.891895 98.38395 
L 169.758823 98.381108 
L 171.625752 97.856204 
L 175.359609 97.794151 
L 177.226538 97.594313 
L 182.827323 97.516254 
L 184.694252 97.096016 
L 190.295037 96.576697 
L 192.161966 96.160981 
L 197.762752 95.532295 
L 210.831251 95.146274 
L 216.432037 94.888493 
L 218.298966 94.123251 
L 220.165894 93.932913 
L 225.76668 93.891728 
L 227.633608 93.652644 
L 235.101322 93.349887 
L 236.968251 92.931006 
L 240.702108 92.822428 
L 244.435965 92.649226 
L 246.302894 92.136001 
L 248.169822 92.096989 
L 251.903679 91.510821 
L 253.770608 91.468825 
L 255.637536 90.905741 
L 259.371394 90.256498 
L 263.105251 90.108999 
L 264.972179 89.955632 
L 266.839108 89.667419 
L 268.706036 88.873756 
L 270.572965 88.556962 
L 272.439893 88.117381 
L 274.306822 87.83146 
L 278.040679 87.6689 
L 279.907608 87.05118 
L 281.774536 86.187044 
L 283.641465 86.110977 
L 285.508393 85.621304 
L 294.843036 84.67779 
L 298.576893 84.099125 
L 300.443822 83.934938 
L 302.31075 83.5759 
L 304.177679 83.525174 
L 309.778464 81.461369 
L 313.512321 81.172021 
L 315.37925 80.526097 
L 317.246178 80.354442 
L 319.113107 80.022803 
L 320.980036 80.022268 
L 322.846964 79.739157 
L 324.713893 79.705524 
L 326.580821 79.462523 
L 328.44775 78.578829 
L 335.915464 78.072864 
L 339.649321 77.704806 
L 341.51625 76.716635 
L 343.383178 76.264828 
L 345.250107 76.22842 
L 347.117035 75.882706 
L 348.983964 75.870886 
L 350.850892 75.437325 
L 352.717821 75.214975 
L 354.584749 74.408349 
L 356.451678 73.30598 
L 360.185535 73.08496 
L 362.052464 70.634419 
L 363.919392 70.038287 
L 365.786321 69.94202 
L 367.653249 68.617316 
L 369.520178 68.044521 
L 371.387106 67.780794 
L 373.254035 67.245968 
L 375.120963 67.216166 
L 376.987892 65.006438 
L 378.85482 63.379477 
L 380.721749 63.115932 
L 382.588678 62.633629 
L 388.189463 61.654584 
L 390.056392 61.618864 
L 391.92332 61.211271 
L 395.657177 60.769855 
L 397.524106 60.262797 
L 399.391034 60.203592 
L 401.257963 57.981981 
L 403.124892 57.379578 
L 404.99182 57.225158 
L 412.459534 52.744887 
L 414.326463 52.20087 
L 418.06032 51.819495 
L 419.927248 51.231898 
L 421.794177 49.655151 
L 423.661105 49.190786 
L 429.261891 48.846488 
L 431.12882 47.516261 
L 434.862677 47.413767 
L 438.596534 45.526451 
L 442.330391 45.316334 
L 444.197319 44.950501 
L 446.064248 44.745085 
L 447.931177 44.057488 
L 449.798105 43.959065 
L 451.665034 43.052892 
L 455.398891 41.57797 
L 457.265819 39.771025 
L 460.999676 38.292877 
L 462.866605 37.320038 
L 466.600462 37.043253 
L 468.467391 37.023207 
L 472.201248 35.801841 
L 474.068176 35.53831 
L 475.935105 34.520343 
L 477.802033 34.167311 
L 479.668962 33.669254 
L 483.402819 33.054447 
L 485.269747 32.938779 
L 489.003605 32.847376 
L 490.870533 32.780874 
L 492.737462 31.75021 
L 494.60439 31.473793 
L 496.471319 30.768289 
L 498.338247 30.504761 
L 500.205176 29.856964 
L 502.072104 28.301818 
L 535.676818 28.301818 
L 535.676818 28.301818 
" style="fill:none;stroke:#2ca02c;stroke-linecap:square;"/>
   </g>
   <g id="line2d_14">
    <path clip-path="url(#pcb3d0dcc02)" d="M 82.013182 140.261674 
L 83.88011 139.51538 
L 85.747039 139.070126 
L 87.613967 137.34457 
L 89.480896 136.140911 
L 91.347825 135.806892 
L 93.214753 135.659432 
L 95.081682 134.433878 
L 96.94861 134.0168 
L 98.815539 132.93747 
L 100.682467 132.798742 
L 102.549396 131.983434 
L 104.416324 131.716674 
L 106.283253 130.877368 
L 108.150181 130.298728 
L 111.884039 130.087284 
L 113.750967 129.939576 
L 117.484824 129.158841 
L 119.351753 128.761149 
L 121.218681 128.121568 
L 126.819467 127.618701 
L 128.686395 127.335093 
L 132.420253 127.179558 
L 134.287181 126.533798 
L 136.15411 126.479501 
L 138.021038 126.190742 
L 141.754895 126.071642 
L 147.355681 125.932123 
L 149.222609 125.363293 
L 151.089538 125.20285 
L 152.956467 125.19139 
L 156.690324 124.432893 
L 166.024966 123.860949 
L 167.891895 123.418112 
L 169.758823 123.352803 
L 171.625752 123.077479 
L 173.492681 123.051975 
L 175.359609 122.885989 
L 177.226538 122.365182 
L 186.56118 121.896136 
L 190.295037 121.821528 
L 195.895823 121.30134 
L 197.762752 121.040846 
L 201.496609 120.936434 
L 207.097394 119.903846 
L 216.432037 119.664954 
L 220.165894 119.567463 
L 223.899751 119.171381 
L 225.76668 119.161338 
L 227.633608 118.964416 
L 233.234394 118.867967 
L 235.101322 118.835626 
L 236.968251 118.229798 
L 238.83518 117.962599 
L 242.569037 117.829139 
L 244.435965 117.585437 
L 246.302894 117.584359 
L 248.169822 117.344717 
L 250.036751 117.280086 
L 255.637536 116.401731 
L 261.238322 116.064284 
L 264.972179 116.044511 
L 268.706036 115.412379 
L 270.572965 115.340538 
L 272.439893 114.89015 
L 274.306822 114.617045 
L 278.040679 114.422981 
L 281.774536 114.314824 
L 283.641465 114.282244 
L 285.508393 113.39777 
L 291.109179 113.150811 
L 292.976107 112.798237 
L 296.709964 110.575266 
L 298.576893 110.271635 
L 300.443822 109.285003 
L 302.31075 108.692203 
L 306.044607 108.522986 
L 307.911536 108.391559 
L 311.645393 106.722866 
L 313.512321 106.684948 
L 315.37925 106.166307 
L 317.246178 103.930479 
L 319.113107 102.492063 
L 322.846964 101.247381 
L 324.713893 100.627189 
L 326.580821 98.085218 
L 328.44775 97.764511 
L 332.181607 97.45772 
L 334.048535 96.151464 
L 335.915464 95.437688 
L 337.782392 95.101941 
L 339.649321 94.37409 
L 343.383178 92.329312 
L 345.250107 91.19659 
L 347.117035 90.601481 
L 350.850892 90.378798 
L 352.717821 87.721233 
L 354.584749 87.542156 
L 356.451678 86.384837 
L 358.318606 86.356489 
L 360.185535 82.640415 
L 362.052464 81.213194 
L 363.919392 81.170684 
L 365.786321 79.51613 
L 367.653249 79.323472 
L 369.520178 77.677709 
L 371.387106 77.444902 
L 373.254035 75.496328 
L 375.120963 73.006386 
L 376.987892 71.859183 
L 378.85482 69.943544 
L 380.721749 68.65828 
L 384.455606 68.306231 
L 386.322535 67.641238 
L 388.189463 67.443767 
L 390.056392 64.150715 
L 391.92332 61.906684 
L 393.790249 61.31533 
L 395.657177 56.706641 
L 397.524106 55.935213 
L 401.257963 54.051205 
L 403.124892 52.188726 
L 404.99182 52.096633 
L 406.858749 51.73735 
L 408.725677 48.162326 
L 410.592606 46.360557 
L 412.459534 45.919148 
L 414.326463 44.332397 
L 416.193391 43.72767 
L 418.06032 41.627263 
L 421.794177 41.199744 
L 423.661105 40.90296 
L 425.528034 40.782876 
L 427.394963 40.291538 
L 429.261891 39.101763 
L 431.12882 38.108438 
L 432.995748 37.795077 
L 434.862677 37.130758 
L 436.729605 36.76538 
L 438.596534 36.198674 
L 444.197319 35.778276 
L 446.064248 35.645104 
L 447.931177 35.370909 
L 449.798105 34.765453 
L 451.665034 34.741684 
L 453.531962 34.458093 
L 455.398891 33.858082 
L 457.265819 33.057663 
L 459.132748 32.467718 
L 460.999676 32.229818 
L 462.866605 32.123345 
L 464.733533 31.831054 
L 466.600462 31.740172 
L 468.467391 31.392824 
L 470.334319 29.84795 
L 474.068176 29.504859 
L 477.802033 29.354851 
L 483.402819 28.387191 
L 487.136676 28.301818 
L 535.676818 28.301818 
L 535.676818 28.301818 
" style="fill:none;stroke:#d62728;stroke-linecap:square;"/>
   </g>
   <g id="line2d_15">
    <path clip-path="url(#pcb3d0dcc02)" d="M 82.013182 241.538182 
L 83.88011 240.393588 
L 85.747039 240.375472 
L 87.613967 240.031291 
L 89.480896 239.421586 
L 93.214753 238.994485 
L 95.081682 238.359747 
L 96.94861 237.91719 
L 98.815539 237.182515 
L 100.682467 236.950166 
L 102.549396 236.300395 
L 104.416324 233.918894 
L 106.283253 233.89815 
L 108.150181 231.962802 
L 110.01711 231.362931 
L 111.884039 230.454091 
L 113.750967 229.844617 
L 115.617896 229.461305 
L 117.484824 226.958798 
L 119.351753 226.401907 
L 121.218681 225.104665 
L 123.08561 219.558193 
L 124.952538 218.686251 
L 126.819467 218.352027 
L 128.686395 218.30521 
L 132.420253 211.656329 
L 134.287181 211.268624 
L 136.15411 209.958679 
L 138.021038 209.522815 
L 139.887967 207.649868 
L 141.754895 205.518 
L 143.621824 205.205956 
L 145.488752 204.699082 
L 147.355681 204.337654 
L 149.222609 202.787101 
L 151.089538 202.605618 
L 152.956467 196.997586 
L 154.823395 193.437723 
L 156.690324 192.897654 
L 158.557252 187.235918 
L 160.424181 184.888677 
L 164.158038 184.298133 
L 166.024966 183.191043 
L 169.758823 182.067766 
L 171.625752 182.0075 
L 175.359609 181.263842 
L 177.226538 179.991398 
L 179.093466 179.433679 
L 182.827323 179.163654 
L 184.694252 178.640791 
L 186.56118 172.962119 
L 188.428109 171.760099 
L 190.295037 170.76 
L 194.028895 170.528857 
L 195.895823 167.268087 
L 197.762752 166.824815 
L 199.62968 165.962589 
L 201.496609 163.997395 
L 203.363537 163.885222 
L 205.230466 162.95908 
L 207.097394 160.961779 
L 208.964323 158.414903 
L 210.831251 158.0232 
L 212.69818 157.942663 
L 216.432037 157.122873 
L 218.298966 155.415774 
L 220.165894 153.897345 
L 223.899751 153.544897 
L 227.633608 153.213669 
L 229.500537 151.631373 
L 233.234394 151.415101 
L 235.101322 150.815139 
L 236.968251 148.743244 
L 238.83518 147.138894 
L 240.702108 146.027306 
L 242.569037 145.493303 
L 244.435965 145.086785 
L 248.169822 144.545907 
L 250.036751 143.175627 
L 251.903679 141.394494 
L 253.770608 141.320628 
L 255.637536 138.95923 
L 257.504465 137.612289 
L 259.371394 134.625321 
L 261.238322 134.430776 
L 263.105251 132.984958 
L 264.972179 132.779659 
L 266.839108 132.751918 
L 268.706036 132.436941 
L 272.439893 132.187122 
L 274.306822 131.295685 
L 276.17375 131.010434 
L 279.907608 129.541647 
L 281.774536 129.53208 
L 283.641465 128.564227 
L 285.508393 125.567213 
L 287.375322 124.640973 
L 289.24225 124.27228 
L 291.109179 124.258141 
L 292.976107 122.517353 
L 294.843036 119.581042 
L 296.709964 119.022038 
L 298.576893 118.301704 
L 300.443822 117.069739 
L 302.31075 116.587435 
L 304.177679 115.841688 
L 307.911536 113.656633 
L 309.778464 111.996184 
L 311.645393 110.778234 
L 313.512321 109.962075 
L 315.37925 109.832446 
L 317.246178 103.799706 
L 319.113107 103.243505 
L 322.846964 96.846764 
L 324.713893 94.341525 
L 326.580821 94.28035 
L 328.44775 90.55781 
L 332.181607 85.510873 
L 334.048535 84.945385 
L 335.915464 83.482788 
L 341.51625 80.807849 
L 343.383178 80.535858 
L 347.117035 79.457487 
L 348.983964 78.258014 
L 350.850892 78.211351 
L 356.451678 76.918304 
L 358.318606 76.769612 
L 362.052464 72.723779 
L 363.919392 72.574181 
L 365.786321 71.130219 
L 369.520178 70.600923 
L 371.387106 70.028571 
L 373.254035 69.012055 
L 376.987892 68.898668 
L 378.85482 66.951731 
L 380.721749 64.534389 
L 382.588678 64.329027 
L 386.322535 63.300086 
L 388.189463 62.841879 
L 391.92332 62.691893 
L 393.790249 62.4076 
L 395.657177 61.670272 
L 397.524106 60.298626 
L 399.391034 60.28158 
L 401.257963 60.092868 
L 404.99182 58.958292 
L 406.858749 58.485209 
L 408.725677 58.449706 
L 410.592606 55.836381 
L 412.459534 55.32146 
L 414.326463 54.346166 
L 416.193391 54.207159 
L 418.06032 53.214317 
L 419.927248 53.010169 
L 421.794177 52.444038 
L 423.661105 52.315629 
L 425.528034 49.538368 
L 427.394963 49.134057 
L 429.261891 48.853198 
L 431.12882 48.449244 
L 432.995748 47.101171 
L 434.862677 46.486918 
L 436.729605 46.453415 
L 438.596534 45.875583 
L 440.463462 45.581126 
L 442.330391 44.273191 
L 444.197319 44.021201 
L 447.931177 43.919079 
L 449.798105 42.973618 
L 451.665034 41.669412 
L 455.398891 41.590914 
L 457.265819 41.07361 
L 459.132748 36.388151 
L 462.866605 35.985439 
L 464.733533 35.248669 
L 466.600462 35.00806 
L 468.467391 34.554784 
L 470.334319 33.33888 
L 474.068176 33.124267 
L 475.935105 32.317923 
L 477.802033 32.252442 
L 479.668962 31.251187 
L 481.53589 31.203141 
L 483.402819 30.7163 
L 485.269747 30.057352 
L 487.136676 30.048428 
L 489.003605 29.86562 
L 490.870533 28.906761 
L 492.737462 28.301818 
L 535.676818 28.301818 
L 535.676818 28.301818 
" style="fill:none;stroke:#9467bd;stroke-linecap:square;"/>
   </g>
   <g id="legend_1">
    <g id="patch_3">
     <path d="M 308.891598 246.369 
L 550.1966 246.369 
Q 552.529 246.369 552.529 244.0366 
L 552.529 214.713959 
Q 552.529 212.381559 550.1966 212.381559 
L 308.891598 212.381559 
Q 306.559198 212.381559 306.559198 214.713959 
L 306.559198 244.0366 
Q 306.559198 246.369 308.891598 246.369 
z
" style="fill:#ffffff;opacity:0.8;stroke:#cccccc;stroke-linejoin:miter;"/>
    </g>
    <g id="line2d_16">
     <path d="M 311.223998 221.415964 
L 334.547998 221.415964 
" style="fill:none;stroke:#1f77b4;stroke-linecap:square;stroke-width:2;"/>
    </g>
    <g id="line2d_17"/>
    <g id="text_12">
     <!-- MARKET -->
     <defs>
      <path d="M 54.6875 0 
L 54.6875 45.90625 
Q 54.6875 48.390625 54.734375 50.96875 
Q 54.78125 53.5625 54.828125 55.71875 
Q 54.9375 58.203125 55.078125 60.546875 
Q 54.546875 58.0625 53.90625 55.609375 
Q 53.90625 55.609375 52.734375 51.171875 
Q 52.15625 48.78125 51.515625 46.875 
L 36.96875 0 
L 31.59375 0 
L 16.796875 46.875 
Q 16.546875 47.609375 16.3125 48.578125 
L 15.765625 50.6875 
L 15.140625 52.9375 
L 14.546875 55.171875 
Q 13.875 57.765625 13.234375 60.546875 
Q 13.28125 57.8125 13.375 55.125 
Q 13.484375 52.828125 13.5 50.3125 
Q 13.53125 47.796875 13.53125 45.90625 
L 13.53125 0 
L 6.734375 0 
L 6.734375 68.796875 
L 16.796875 68.796875 
L 31.78125 21.09375 
Q 32.078125 20.125 32.46875 18.578125 
Q 32.859375 17.046875 33.21875 15.421875 
Q 33.59375 13.8125 33.890625 12.375 
Q 34.1875 10.9375 34.328125 10.15625 
Q 34.421875 10.9375 34.734375 12.40625 
Q 35.0625 13.875 35.5 15.484375 
L 36.328125 18.609375 
Q 36.71875 20.125 37.0625 21.09375 
L 51.765625 68.796875 
L 61.578125 68.796875 
L 61.578125 0 
z
" id="LiberationSansNarrow-77"/>
      <path d="M 46.734375 0 
L 40.28125 20.125 
L 14.546875 20.125 
L 8.109375 0 
L 0.140625 0 
L 23.1875 68.796875 
L 31.890625 68.796875 
L 54.546875 0 
z
M 30.765625 50.09375 
Q 30.125 52.046875 29.546875 54.046875 
L 28.515625 57.71875 
L 27.734375 60.453125 
Q 27.4375 61.53125 27.4375 61.765625 
Q 27.34375 61.53125 27.078125 60.40625 
Q 26.8125 59.28125 26.375 57.625 
L 25.296875 53.953125 
L 24.125 50 
L 16.890625 27.390625 
L 37.984375 27.390625 
z
" id="LiberationSansNarrow-65"/>
      <path d="M 46.578125 0 
L 31.9375 28.5625 
L 14.359375 28.5625 
L 14.359375 0 
L 6.734375 0 
L 6.734375 68.796875 
L 33.25 68.796875 
Q 38.03125 68.796875 41.734375 67.453125 
Q 45.453125 66.109375 47.96875 63.5625 
Q 50.484375 61.03125 51.796875 57.375 
Q 53.125 53.71875 53.125 49.125 
Q 53.125 45.84375 52.34375 42.671875 
Q 51.5625 39.5 49.875 36.859375 
Q 48.1875 34.234375 45.59375 32.328125 
Q 43.015625 30.421875 39.359375 29.640625 
L 55.375 0 
z
M 45.453125 49.03125 
Q 45.453125 52.15625 44.578125 54.4375 
Q 43.703125 56.734375 42.015625 58.265625 
Q 40.328125 59.8125 37.9375 60.5625 
Q 35.546875 61.328125 32.46875 61.328125 
L 14.359375 61.328125 
L 14.359375 35.9375 
L 32.8125 35.9375 
Q 36.078125 35.9375 38.5 36.9375 
Q 40.921875 37.9375 42.453125 39.6875 
Q 44 41.453125 44.71875 43.84375 
Q 45.453125 46.234375 45.453125 49.03125 
z
" id="LiberationSansNarrow-82"/>
      <path d="M 44.28125 0 
L 21.734375 33.203125 
L 14.359375 26.375 
L 14.359375 0 
L 6.734375 0 
L 6.734375 68.796875 
L 14.359375 68.796875 
L 14.359375 34.328125 
L 41.546875 68.796875 
L 50.59375 68.796875 
L 26.5625 38.921875 
L 53.765625 0 
z
" id="LiberationSansNarrow-75"/>
      <path d="M 6.734375 0 
L 6.734375 68.796875 
L 49.515625 68.796875 
L 49.515625 61.1875 
L 14.359375 61.1875 
L 14.359375 39.109375 
L 47.125 39.109375 
L 47.125 31.59375 
L 14.359375 31.59375 
L 14.359375 7.625 
L 51.171875 7.625 
L 51.171875 0 
z
" id="LiberationSansNarrow-69"/>
      <path d="M 28.8125 61.1875 
L 28.8125 0 
L 21.234375 0 
L 21.234375 61.1875 
L 1.859375 61.1875 
L 1.859375 68.796875 
L 48.1875 68.796875 
L 48.1875 61.1875 
z
" id="LiberationSansNarrow-84"/>
     </defs>
     <g transform="translate(343.877598 225.497664)scale(0.11662 -0.11662)">
      <use xlink:href="#LiberationSansNarrow-77"/>
      <use x="68.310547" xlink:href="#LiberationSansNarrow-65"/>
      <use x="122.998047" xlink:href="#LiberationSansNarrow-82"/>
      <use x="182.177734" xlink:href="#LiberationSansNarrow-75"/>
      <use x="236.865234" xlink:href="#LiberationSansNarrow-69"/>
      <use x="291.552734" xlink:href="#LiberationSansNarrow-84"/>
     </g>
    </g>
    <g id="line2d_18">
     <path d="M 311.223998 235.202635 
L 334.547998 235.202635 
" style="fill:none;stroke:#ff7f0e;stroke-linecap:square;"/>
    </g>
    <g id="line2d_19"/>
    <g id="text_13">
     <!-- Hop -->
     <defs>
      <path d="M 44.875 0 
L 44.875 31.890625 
L 14.359375 31.890625 
L 14.359375 0 
L 6.734375 0 
L 6.734375 68.796875 
L 14.359375 68.796875 
L 14.359375 39.703125 
L 44.875 39.703125 
L 44.875 68.796875 
L 52.484375 68.796875 
L 52.484375 0 
z
" id="LiberationSansNarrow-72"/>
      <path d="M 42.140625 26.46875 
Q 42.140625 12.59375 37.125 5.796875 
Q 32.125 -0.984375 22.609375 -0.984375 
Q 18.0625 -0.984375 14.515625 0.671875 
Q 10.984375 2.34375 8.515625 5.765625 
Q 6.0625 9.1875 4.765625 14.328125 
Q 3.46875 19.484375 3.46875 26.46875 
Q 3.46875 53.8125 22.859375 53.8125 
Q 27.875 53.8125 31.5625 52.09375 
Q 35.25 50.390625 37.59375 46.96875 
Q 39.9375 43.5625 41.03125 38.421875 
Q 42.140625 33.296875 42.140625 26.46875 
z
M 34.578125 26.46875 
Q 34.578125 32.625 33.8125 36.625 
Q 33.0625 40.625 31.546875 43.015625 
Q 30.03125 45.40625 27.859375 46.359375 
Q 25.6875 47.3125 23 47.3125 
Q 20.21875 47.3125 17.984375 46.3125 
Q 15.765625 45.3125 14.203125 42.890625 
Q 12.640625 40.484375 11.828125 36.46875 
Q 11.03125 32.46875 11.03125 26.46875 
Q 11.03125 20.3125 11.90625 16.28125 
Q 12.796875 12.25 14.328125 9.859375 
Q 15.875 7.46875 17.96875 6.484375 
Q 20.0625 5.515625 22.5625 5.515625 
Q 25.34375 5.515625 27.5625 6.46875 
Q 29.78125 7.421875 31.34375 9.8125 
Q 32.90625 12.203125 33.734375 16.25 
Q 34.578125 20.3125 34.578125 26.46875 
z
" id="LiberationSansNarrow-111"/>
      <path d="M 42.140625 26.65625 
Q 42.140625 20.65625 41.359375 15.578125 
Q 40.578125 10.5 38.6875 6.828125 
Q 36.8125 3.171875 33.765625 1.09375 
Q 30.71875 -0.984375 26.21875 -0.984375 
Q 21.578125 -0.984375 18.078125 1.171875 
Q 14.59375 3.328125 12.796875 8.203125 
L 12.546875 8.203125 
Q 12.59375 8.109375 12.609375 7.328125 
Q 12.640625 6.546875 12.671875 5.375 
Q 12.703125 4.203125 12.71875 2.75 
Q 12.75 1.3125 12.75 -0.09375 
L 12.75 -20.75 
L 5.515625 -20.75 
L 5.515625 42.046875 
Q 5.515625 43.953125 5.484375 45.703125 
Q 5.46875 47.46875 5.4375 48.90625 
Q 5.421875 50.34375 5.375 51.359375 
Q 5.328125 52.390625 5.28125 52.828125 
L 12.25 52.828125 
Q 12.3125 52.6875 12.359375 51.8125 
L 12.5 49.703125 
Q 12.546875 48.4375 12.59375 47.015625 
Q 12.640625 45.609375 12.640625 44.34375 
L 12.796875 44.34375 
Q 13.765625 46.875 15.0625 48.65625 
Q 16.359375 50.4375 18.015625 51.578125 
Q 19.671875 52.734375 21.671875 53.25 
Q 23.6875 53.765625 26.21875 53.765625 
Q 30.71875 53.765625 33.765625 51.8125 
Q 36.8125 49.859375 38.6875 46.3125 
Q 40.578125 42.78125 41.359375 37.765625 
Q 42.140625 32.765625 42.140625 26.65625 
z
M 34.578125 26.46875 
Q 34.578125 31.34375 34.109375 35.15625 
Q 33.640625 38.96875 32.4375 41.59375 
Q 31.25 44.234375 29.296875 45.59375 
Q 27.34375 46.96875 24.359375 46.96875 
Q 21.96875 46.96875 19.84375 46.140625 
Q 17.71875 45.3125 16.125 42.96875 
Q 14.546875 40.625 13.640625 36.5 
Q 12.75 32.375 12.75 25.78125 
Q 12.75 20.171875 13.5 16.28125 
Q 14.265625 12.40625 15.71875 10.015625 
Q 17.1875 7.625 19.328125 6.5625 
Q 21.484375 5.515625 24.3125 5.515625 
Q 27.34375 5.515625 29.296875 6.921875 
Q 31.25 8.34375 32.4375 11.03125 
Q 33.640625 13.71875 34.109375 17.59375 
Q 34.578125 21.484375 34.578125 26.46875 
z
" id="LiberationSansNarrow-112"/>
     </defs>
     <g transform="translate(343.877598 239.284335)scale(0.11662 -0.11662)">
      <use xlink:href="#LiberationSansNarrow-72"/>
      <use x="59.179688" xlink:href="#LiberationSansNarrow-111"/>
      <use x="104.785156" xlink:href="#LiberationSansNarrow-112"/>
     </g>
    </g>
    <g id="line2d_20">
     <path d="M 395.38355 221.415964 
L 418.70755 221.415964 
" style="fill:none;stroke:#2ca02c;stroke-linecap:square;"/>
    </g>
    <g id="line2d_21"/>
    <g id="text_14">
     <!-- Lpe -->
     <defs>
      <path d="M 6.734375 0 
L 6.734375 68.796875 
L 14.359375 68.796875 
L 14.359375 7.625 
L 42.875 7.625 
L 42.875 0 
z
" id="LiberationSansNarrow-76"/>
      <path d="M 10.6875 24.5625 
Q 10.6875 20.40625 11.5625 16.90625 
Q 12.453125 13.421875 13.90625 10.90625 
Q 15.375 8.40625 17.640625 7 
Q 19.921875 5.609375 23.140625 5.609375 
Q 27.828125 5.609375 30.65625 7.90625 
Q 33.5 10.203125 34.46875 13.71875 
L 40.828125 11.53125 
Q 40.140625 9.328125 38.921875 7.109375 
Q 37.703125 4.890625 35.640625 3.09375 
Q 33.59375 1.3125 30.53125 0.15625 
Q 27.484375 -0.984375 23.140625 -0.984375 
Q 13.53125 -0.984375 8.5 6 
Q 3.46875 12.984375 3.46875 26.765625 
Q 3.46875 34.1875 5 39.328125 
Q 6.546875 44.484375 9.171875 47.703125 
Q 11.8125 50.921875 15.328125 52.359375 
Q 18.84375 53.8125 22.859375 53.8125 
Q 28.328125 53.8125 31.984375 51.65625 
Q 39.0625 47.515625 41.015625 36.8125 
Q 41.9375 31.6875 41.9375 25.734375 
L 41.9375 24.5625 
z
M 34.71875 31.296875 
Q 34.71875 40.140625 31.421875 43.71875 
Q 28.125 47.3125 22.75 47.3125 
Q 18.953125 47.3125 15.328125 44.09375 
Q 10.9375 40.328125 10.6875 31.296875 
z
" id="LiberationSansNarrow-101"/>
     </defs>
     <g transform="translate(428.03715 225.497664)scale(0.11662 -0.11662)">
      <use xlink:href="#LiberationSansNarrow-76"/>
      <use x="45.605469" xlink:href="#LiberationSansNarrow-112"/>
      <use x="91.210938" xlink:href="#LiberationSansNarrow-101"/>
     </g>
    </g>
    <g id="line2d_22">
     <path d="M 395.38355 235.202635 
L 418.70755 235.202635 
" style="fill:none;stroke:#d62728;stroke-linecap:square;"/>
    </g>
    <g id="line2d_23"/>
    <g id="text_15">
     <!-- Lcap Lpe -->
     <defs>
      <path d="M 11.03125 26.65625 
Q 11.03125 22.125 11.5625 18.3125 
Q 12.109375 14.5 13.375 11.734375 
Q 14.65625 8.984375 16.75 7.46875 
Q 18.84375 5.953125 21.96875 5.953125 
Q 25.828125 5.953125 28.390625 8.484375 
Q 30.953125 11.03125 31.546875 16.3125 
L 38.875 15.71875 
Q 38.53125 12.453125 37.296875 9.421875 
Q 36.078125 6.390625 34.03125 4.09375 
Q 31.984375 1.8125 29 0.40625 
Q 26.03125 -0.984375 22.171875 -0.984375 
Q 17.09375 -0.984375 13.5 1.109375 
Q 9.90625 3.21875 7.6875 6.90625 
Q 5.46875 10.59375 4.46875 15.59375 
Q 3.46875 20.609375 3.46875 26.46875 
Q 3.46875 31.78125 4.203125 35.859375 
Q 4.9375 39.9375 6.21875 42.984375 
Q 7.515625 46.046875 9.265625 48.125 
Q 11.03125 50.203125 13.109375 51.4375 
Q 15.1875 52.6875 17.453125 53.25 
Q 19.734375 53.8125 22.078125 53.8125 
Q 25.734375 53.8125 28.5625 52.59375 
Q 31.390625 51.375 33.46875 49.25 
Q 35.546875 47.125 36.8125 44.234375 
Q 38.09375 41.359375 38.625 38.03125 
L 31.203125 37.359375 
Q 30.671875 41.75 28.375 44.328125 
Q 26.078125 46.921875 21.875 46.921875 
Q 18.796875 46.921875 16.71875 45.671875 
Q 14.65625 44.4375 13.375 41.921875 
Q 12.109375 39.40625 11.5625 35.59375 
Q 11.03125 31.78125 11.03125 26.65625 
z
" id="LiberationSansNarrow-99"/>
      <path d="M 16.546875 -0.984375 
Q 10.015625 -0.984375 6.734375 3.21875 
Q 3.46875 7.421875 3.46875 14.75 
Q 3.46875 19.96875 5.09375 23.3125 
Q 6.734375 26.65625 9.34375 28.5625 
Q 11.96875 30.46875 15.328125 31.203125 
Q 18.703125 31.9375 22.171875 32.03125 
L 31.9375 32.234375 
L 31.9375 35.109375 
Q 31.9375 38.375 31.375 40.671875 
Q 30.8125 42.96875 29.640625 44.375 
Q 28.46875 45.796875 26.734375 46.453125 
Q 25 47.125 22.609375 47.125 
Q 20.515625 47.125 18.84375 46.75 
Q 17.1875 46.390625 15.9375 45.4375 
Q 14.703125 44.484375 13.9375 42.84375 
Q 13.1875 41.21875 12.9375 38.71875 
L 5.421875 39.546875 
Q 5.8125 42.671875 6.9375 45.28125 
Q 8.0625 47.90625 10.109375 49.796875 
Q 12.15625 51.703125 15.25 52.75 
Q 18.359375 53.8125 22.796875 53.8125 
Q 30.953125 53.8125 35.078125 49.234375 
Q 39.203125 44.671875 39.203125 36.03125 
L 39.203125 13.28125 
Q 39.203125 9.375 40.03125 7.390625 
Q 40.875 5.421875 43.265625 5.421875 
Q 43.84375 5.421875 44.453125 5.515625 
Q 45.0625 5.609375 45.609375 5.765625 
L 45.609375 0.296875 
Q 44.234375 -0.09375 42.890625 -0.28125 
Q 41.546875 -0.484375 40.046875 -0.484375 
Q 37.984375 -0.484375 36.515625 0.171875 
Q 35.0625 0.828125 34.15625 2.171875 
Q 33.25 3.515625 32.765625 5.484375 
Q 32.28125 7.46875 32.125 10.109375 
L 31.9375 10.109375 
Q 30.765625 7.5625 29.375 5.515625 
Q 27.984375 3.46875 26.140625 2.03125 
Q 24.3125 0.59375 21.9375 -0.1875 
Q 19.578125 -0.984375 16.546875 -0.984375 
z
M 18.21875 5.609375 
Q 21.6875 5.609375 24.25 7.140625 
Q 26.8125 8.6875 28.515625 11.078125 
Q 30.21875 13.484375 31.078125 16.3125 
Q 31.9375 19.140625 31.9375 21.734375 
L 31.9375 26.078125 
L 24.03125 25.875 
Q 21.390625 25.828125 19 25.40625 
Q 16.609375 25 14.8125 23.78125 
Q 13.03125 22.5625 11.953125 20.359375 
Q 10.890625 18.171875 10.890625 14.59375 
Q 10.890625 10.296875 12.796875 7.953125 
Q 14.703125 5.609375 18.21875 5.609375 
z
" id="LiberationSansNarrow-97"/>
     </defs>
     <g transform="translate(428.03715 239.284335)scale(0.11662 -0.11662)">
      <use xlink:href="#LiberationSansNarrow-76"/>
      <use x="45.605469" xlink:href="#LiberationSansNarrow-99"/>
      <use x="86.621094" xlink:href="#LiberationSansNarrow-97"/>
      <use x="132.226562" xlink:href="#LiberationSansNarrow-112"/>
      <use x="177.832031" xlink:href="#LiberationSansNarrow-32"/>
      <use x="200.634766" xlink:href="#LiberationSansNarrow-76"/>
      <use x="246.240234" xlink:href="#LiberationSansNarrow-112"/>
      <use x="291.845703" xlink:href="#LiberationSansNarrow-101"/>
     </g>
    </g>
    <g id="line2d_24">
     <path d="M 479.054756 221.415964 
L 502.378756 221.415964 
" style="fill:none;stroke:#9467bd;stroke-linecap:square;"/>
    </g>
    <g id="line2d_25"/>
    <g id="text_16">
     <!-- Lpb Hop -->
     <defs>
      <path d="M 42.140625 26.65625 
Q 42.140625 -0.984375 26.21875 -0.984375 
Q 21.296875 -0.984375 18.046875 1.1875 
Q 14.796875 3.375 12.75 8.203125 
L 12.640625 8.203125 
Q 12.640625 6.9375 12.59375 5.5625 
Q 12.546875 4.203125 12.5 3.03125 
L 12.359375 1.03125 
Q 12.3125 0.203125 12.25 0 
L 5.28125 0 
Q 5.328125 0.4375 5.375 1.484375 
Q 5.421875 2.546875 5.4375 4 
Q 5.46875 5.46875 5.484375 7.21875 
Q 5.515625 8.984375 5.515625 10.890625 
L 5.515625 72.46875 
L 12.75 72.46875 
L 12.75 51.8125 
Q 12.75 50.34375 12.71875 49 
Q 12.703125 47.65625 12.640625 46.625 
Q 12.59375 45.40625 12.546875 44.34375 
L 12.75 44.34375 
Q 14.75 49.421875 18.046875 51.609375 
Q 21.34375 53.8125 26.21875 53.8125 
Q 34.421875 53.8125 38.28125 47.0625 
Q 42.140625 40.328125 42.140625 26.65625 
z
M 34.578125 26.375 
Q 34.578125 31.84375 34.03125 35.75 
Q 33.5 39.65625 32.25 42.15625 
Q 31 44.671875 29.078125 45.84375 
Q 27.15625 47.015625 24.359375 47.015625 
Q 21.53125 47.015625 19.359375 45.890625 
Q 17.1875 44.78125 15.71875 42.28125 
Q 14.265625 39.796875 13.5 35.734375 
Q 12.75 31.6875 12.75 25.828125 
Q 12.75 20.171875 13.5 16.3125 
Q 14.265625 12.453125 15.71875 10.03125 
Q 17.1875 7.625 19.328125 6.5625 
Q 21.484375 5.515625 24.3125 5.515625 
Q 26.953125 5.515625 28.875 6.640625 
Q 30.8125 7.765625 32.078125 10.25 
Q 33.34375 12.75 33.953125 16.71875 
Q 34.578125 20.703125 34.578125 26.375 
z
" id="LiberationSansNarrow-98"/>
     </defs>
     <g transform="translate(511.708356 225.497664)scale(0.11662 -0.11662)">
      <use xlink:href="#LiberationSansNarrow-76"/>
      <use x="45.605469" xlink:href="#LiberationSansNarrow-112"/>
      <use x="91.210938" xlink:href="#LiberationSansNarrow-98"/>
      <use x="136.816406" xlink:href="#LiberationSansNarrow-32"/>
      <use x="159.619141" xlink:href="#LiberationSansNarrow-72"/>
      <use x="218.798828" xlink:href="#LiberationSansNarrow-111"/>
      <use x="264.404297" xlink:href="#LiberationSansNarrow-112"/>
     </g>
    </g>
   </g>
  </g>
 </g>
 <defs>
  <clipPath id="pcb3d0dcc02">
   <rect height="234.56" width="499.03" x="59.33" y="17.64"/>
  </clipPath>
 </defs>
</svg>
