<?xml version="1.0" encoding="utf-8" standalone="no"?>
<!DOCTYPE svg PUBLIC "-//W3C//DTD SVG 1.1//EN"
  "http://www.w3.org/Graphics/SVG/1.1/DTD/svg11.dtd">
<!-- Created with matplotlib (https://matplotlib.org/) -->
<svg height="288pt" version="1.1" viewBox="0 0 576 288" width="576pt" xmlns="http://www.w3.org/2000/svg" xmlns:xlink="http://www.w3.org/1999/xlink">
 <defs>
  <style type="text/css">
*{stroke-linecap:butt;stroke-linejoin:round;}
  </style>
 </defs>
 <g id="figure_1">
  <g id="patch_1">
   <path d="M 0 288 
L 576 288 
L 576 0 
L 0 0 
z
" style="fill:#ffffff;"/>
  </g>
  <g id="axes_1">
   <g id="patch_2">
    <path d="M 38.14 252.2 
L 558.36 252.2 
L 558.36 17.64 
L 38.14 17.64 
z
" style="fill:#ffffff;"/>
   </g>
   <g id="matplotlib.axis_1">
    <g id="xtick_1">
     <g id="line2d_1">
      <path clip-path="url(#p9ce1bf2955)" d="M 87.762983 252.2 
L 87.762983 17.64 
" style="fill:none;stroke:#b0b0b0;stroke-dasharray:1.48,0.64;stroke-dashoffset:0;stroke-width:0.4;"/>
     </g>
     <g id="text_1">
      <!-- 2006 -->
      <defs>
       <path d="M 4.109375 0 
L 4.109375 6.203125 
Q 6.15625 11.921875 9.109375 16.28125 
Q 12.0625 20.65625 15.3125 24.1875 
Q 18.5625 27.734375 21.734375 30.765625 
Q 24.90625 33.796875 27.46875 36.8125 
Q 30.03125 39.84375 31.609375 43.15625 
Q 33.203125 46.484375 33.203125 50.6875 
Q 33.203125 53.609375 32.46875 55.828125 
Q 31.734375 58.0625 30.390625 59.5625 
Q 29.046875 61.078125 27.140625 61.828125 
Q 25.25 62.59375 22.90625 62.59375 
Q 20.75 62.59375 18.84375 61.859375 
Q 16.9375 61.140625 15.453125 59.671875 
Q 13.96875 58.203125 13.03125 56.03125 
Q 12.109375 53.859375 11.8125 50.984375 
L 4.4375 51.8125 
Q 4.78125 55.515625 6.125 58.78125 
Q 7.46875 62.0625 9.78125 64.53125 
Q 12.109375 67 15.359375 68.40625 
Q 18.609375 69.828125 22.90625 69.828125 
Q 27.09375 69.828125 30.390625 68.609375 
Q 33.6875 67.390625 35.9375 64.984375 
Q 38.1875 62.59375 39.40625 59.078125 
Q 40.625 55.5625 40.625 50.984375 
Q 40.625 47.515625 39.59375 44.390625 
Q 38.578125 41.265625 36.859375 38.421875 
Q 35.15625 35.59375 32.90625 32.953125 
Q 30.671875 30.328125 28.21875 27.828125 
L 23.296875 22.859375 
Q 20.796875 20.359375 18.625 17.859375 
Q 16.453125 15.375 14.734375 12.8125 
Q 13.03125 10.25 12.0625 7.46875 
L 41.5 7.46875 
L 41.5 0 
z
" id="LiberationSansNarrow-50"/>
       <path d="M 42.390625 34.421875 
Q 42.390625 24.515625 40.84375 17.75 
Q 39.3125 10.984375 36.640625 6.8125 
Q 33.984375 2.640625 30.390625 0.828125 
Q 26.8125 -0.984375 22.703125 -0.984375 
Q 18.609375 -0.984375 15.03125 0.828125 
Q 11.46875 2.640625 8.828125 6.78125 
Q 6.203125 10.9375 4.703125 17.703125 
Q 3.21875 24.46875 3.21875 34.421875 
Q 3.21875 44.828125 4.703125 51.640625 
Q 6.203125 58.453125 8.828125 62.5 
Q 11.46875 66.546875 15.078125 68.1875 
Q 18.703125 69.828125 22.953125 69.828125 
Q 27 69.828125 30.53125 68.1875 
Q 34.078125 66.546875 36.71875 62.5 
Q 39.359375 58.453125 40.875 51.640625 
Q 42.390625 44.828125 42.390625 34.421875 
z
M 35.0625 34.421875 
Q 35.0625 42.625 34.28125 48.0625 
Q 33.5 53.515625 31.9375 56.765625 
Q 30.375 60.015625 28.09375 61.359375 
Q 25.828125 62.703125 22.953125 62.703125 
Q 19.921875 62.703125 17.578125 61.328125 
Q 15.234375 59.96875 13.671875 56.71875 
Q 12.109375 53.46875 11.296875 48.015625 
Q 10.5 42.578125 10.5 34.421875 
Q 10.5 26.515625 11.296875 21.09375 
Q 12.109375 15.671875 13.6875 12.375 
Q 15.28125 9.078125 17.578125 7.640625 
Q 19.875 6.203125 22.796875 6.203125 
Q 25.640625 6.203125 27.90625 7.640625 
Q 30.171875 9.078125 31.75 12.375 
Q 33.34375 15.671875 34.203125 21.09375 
Q 35.0625 26.515625 35.0625 34.421875 
z
" id="LiberationSansNarrow-48"/>
       <path d="M 42 22.515625 
Q 42 17.328125 40.828125 13 
Q 39.65625 8.6875 37.359375 5.578125 
Q 35.0625 2.484375 31.640625 0.75 
Q 28.21875 -0.984375 23.78125 -0.984375 
Q 18.84375 -0.984375 15.15625 1.3125 
Q 11.46875 3.609375 9.03125 7.921875 
Q 6.59375 12.25 5.375 18.53125 
Q 4.15625 24.8125 4.15625 32.8125 
Q 4.15625 42 5.546875 48.921875 
Q 6.9375 55.859375 9.515625 60.5 
Q 12.109375 65.140625 15.859375 67.484375 
Q 19.625 69.828125 24.359375 69.828125 
Q 27.25 69.828125 29.765625 69.09375 
Q 32.28125 68.359375 34.328125 66.71875 
Q 36.375 65.09375 37.9375 62.40625 
Q 39.5 59.71875 40.4375 55.8125 
L 33.546875 54.296875 
Q 32.421875 58.734375 29.953125 60.71875 
Q 27.484375 62.703125 24.265625 62.703125 
Q 21.296875 62.703125 18.890625 60.984375 
Q 16.5 59.28125 14.8125 55.875 
Q 13.140625 52.484375 12.234375 47.359375 
Q 11.328125 42.234375 11.328125 35.40625 
Q 13.28125 39.84375 16.84375 42.15625 
Q 20.40625 44.484375 25.046875 44.484375 
Q 28.90625 44.484375 32 42.96875 
Q 35.109375 41.453125 37.328125 38.59375 
Q 39.546875 35.75 40.765625 31.671875 
Q 42 27.59375 42 22.515625 
z
M 34.671875 22.125 
Q 34.671875 25.6875 33.953125 28.5625 
Q 33.25 31.453125 31.8125 33.46875 
Q 30.375 35.5 28.25 36.59375 
Q 26.125 37.703125 23.296875 37.703125 
Q 21.34375 37.703125 19.328125 36.984375 
Q 17.328125 36.28125 15.71875 34.6875 
Q 14.109375 33.109375 13.078125 30.515625 
Q 12.0625 27.9375 12.0625 24.21875 
Q 12.0625 20.40625 12.859375 17.109375 
Q 13.671875 13.8125 15.15625 11.375 
Q 16.65625 8.9375 18.78125 7.515625 
Q 20.90625 6.109375 23.53125 6.109375 
Q 26.125 6.109375 28.203125 7.203125 
Q 30.28125 8.296875 31.71875 10.375 
Q 33.15625 12.453125 33.90625 15.421875 
Q 34.671875 18.40625 34.671875 22.125 
z
" id="LiberationSansNarrow-54"/>
      </defs>
      <g transform="translate(74.992358 269.345625)scale(0.14 -0.14)">
       <use xlink:href="#LiberationSansNarrow-50"/>
       <use x="45.605469" xlink:href="#LiberationSansNarrow-48"/>
       <use x="91.210938" xlink:href="#LiberationSansNarrow-48"/>
       <use x="136.816406" xlink:href="#LiberationSansNarrow-54"/>
      </g>
     </g>
    </g>
    <g id="xtick_2">
     <g id="line2d_2">
      <path clip-path="url(#p9ce1bf2955)" d="M 149.733349 252.2 
L 149.733349 17.64 
" style="fill:none;stroke:#b0b0b0;stroke-dasharray:1.48,0.64;stroke-dashoffset:0;stroke-width:0.4;"/>
     </g>
     <g id="text_2">
      <!-- 2008 -->
      <defs>
       <path d="M 42.046875 19.1875 
Q 42.046875 14.796875 40.890625 11.109375 
Q 39.75 7.421875 37.40625 4.734375 
Q 35.0625 2.046875 31.421875 0.53125 
Q 27.78125 -0.984375 22.796875 -0.984375 
Q 17.828125 -0.984375 14.203125 0.53125 
Q 10.59375 2.046875 8.21875 4.703125 
Q 5.859375 7.375 4.703125 11.0625 
Q 3.5625 14.75 3.5625 19.09375 
Q 3.5625 22.859375 4.515625 25.78125 
Q 5.46875 28.71875 7.03125 30.828125 
Q 8.59375 32.953125 10.609375 34.25 
Q 12.640625 35.546875 14.796875 35.984375 
L 14.796875 36.1875 
Q 12.453125 36.859375 10.59375 38.375 
Q 8.734375 39.890625 7.46875 42.015625 
Q 6.203125 44.140625 5.546875 46.71875 
Q 4.890625 49.3125 4.890625 52.203125 
Q 4.890625 55.8125 6.03125 59 
Q 7.171875 62.203125 9.421875 64.625 
Q 11.671875 67.046875 14.984375 68.4375 
Q 18.3125 69.828125 22.65625 69.828125 
Q 27.25 69.828125 30.640625 68.40625 
Q 34.03125 67 36.25 64.578125 
Q 38.484375 62.15625 39.546875 58.9375 
Q 40.625 55.71875 40.625 52.09375 
Q 40.625 49.265625 39.96875 46.671875 
Q 39.3125 44.09375 38.0625 41.96875 
Q 36.8125 39.84375 34.9375 38.34375 
Q 33.0625 36.859375 30.609375 36.28125 
L 30.609375 36.078125 
Q 33.0625 35.59375 35.15625 34.296875 
Q 37.25 33.015625 38.765625 30.890625 
Q 40.28125 28.765625 41.15625 25.828125 
Q 42.046875 22.90625 42.046875 19.1875 
z
M 33.15625 51.609375 
Q 33.15625 54.203125 32.609375 56.34375 
Q 32.078125 58.5 30.828125 60.03125 
Q 29.59375 61.578125 27.59375 62.421875 
Q 25.59375 63.28125 22.65625 63.28125 
Q 19.828125 63.28125 17.875 62.421875 
Q 15.921875 61.578125 14.640625 60.03125 
Q 13.375 58.5 12.8125 56.34375 
Q 12.25 54.203125 12.25 51.609375 
Q 12.25 49.5625 12.6875 47.40625 
Q 13.140625 45.265625 14.3125 43.5 
Q 15.484375 41.75 17.5 40.625 
Q 19.53125 39.5 22.75 39.5 
Q 26.171875 39.5 28.21875 40.625 
Q 30.28125 41.75 31.375 43.5 
Q 32.46875 45.265625 32.8125 47.40625 
Q 33.15625 49.5625 33.15625 51.609375 
z
M 34.578125 20.015625 
Q 34.578125 22.515625 34.015625 24.828125 
Q 33.453125 27.15625 32.078125 28.9375 
Q 30.71875 30.71875 28.421875 31.8125 
Q 26.125 32.90625 22.65625 32.90625 
Q 19.484375 32.90625 17.265625 31.8125 
Q 15.046875 30.71875 13.671875 28.90625 
Q 12.3125 27.09375 11.671875 24.71875 
Q 11.03125 22.359375 11.03125 19.828125 
Q 11.03125 16.65625 11.671875 14.03125 
Q 12.3125 11.421875 13.703125 9.546875 
Q 15.09375 7.671875 17.375 6.640625 
Q 19.671875 5.609375 22.90625 5.609375 
Q 26.171875 5.609375 28.421875 6.640625 
Q 30.671875 7.671875 32.03125 9.546875 
Q 33.40625 11.421875 33.984375 14.078125 
Q 34.578125 16.75 34.578125 20.015625 
z
" id="LiberationSansNarrow-56"/>
      </defs>
      <g transform="translate(136.962724 269.345625)scale(0.14 -0.14)">
       <use xlink:href="#LiberationSansNarrow-50"/>
       <use x="45.605469" xlink:href="#LiberationSansNarrow-48"/>
       <use x="91.210938" xlink:href="#LiberationSansNarrow-48"/>
       <use x="136.816406" xlink:href="#LiberationSansNarrow-56"/>
      </g>
     </g>
    </g>
    <g id="xtick_3">
     <g id="line2d_3">
      <path clip-path="url(#p9ce1bf2955)" d="M 211.788606 252.2 
L 211.788606 17.64 
" style="fill:none;stroke:#b0b0b0;stroke-dasharray:1.48,0.64;stroke-dashoffset:0;stroke-width:0.4;"/>
     </g>
     <g id="text_3">
      <!-- 2010 -->
      <defs>
       <path d="M 6.25 0 
L 6.25 7.46875 
L 20.609375 7.46875 
L 20.609375 60.40625 
L 7.90625 49.3125 
L 7.90625 57.625 
L 21.234375 68.796875 
L 27.875 68.796875 
L 27.875 7.46875 
L 41.609375 7.46875 
L 41.609375 0 
z
" id="LiberationSansNarrow-49"/>
      </defs>
      <g transform="translate(199.017981 269.345625)scale(0.14 -0.14)">
       <use xlink:href="#LiberationSansNarrow-50"/>
       <use x="45.605469" xlink:href="#LiberationSansNarrow-48"/>
       <use x="91.210938" xlink:href="#LiberationSansNarrow-49"/>
       <use x="136.816406" xlink:href="#LiberationSansNarrow-48"/>
      </g>
     </g>
    </g>
    <g id="xtick_4">
     <g id="line2d_4">
      <path clip-path="url(#p9ce1bf2955)" d="M 273.758972 252.2 
L 273.758972 17.64 
" style="fill:none;stroke:#b0b0b0;stroke-dasharray:1.48,0.64;stroke-dashoffset:0;stroke-width:0.4;"/>
     </g>
     <g id="text_4">
      <!-- 2012 -->
      <g transform="translate(260.988347 269.345625)scale(0.14 -0.14)">
       <use xlink:href="#LiberationSansNarrow-50"/>
       <use x="45.605469" xlink:href="#LiberationSansNarrow-48"/>
       <use x="91.210938" xlink:href="#LiberationSansNarrow-49"/>
       <use x="136.816406" xlink:href="#LiberationSansNarrow-50"/>
      </g>
     </g>
    </g>
    <g id="xtick_5">
     <g id="line2d_5">
      <path clip-path="url(#p9ce1bf2955)" d="M 335.814229 252.2 
L 335.814229 17.64 
" style="fill:none;stroke:#b0b0b0;stroke-dasharray:1.48,0.64;stroke-dashoffset:0;stroke-width:0.4;"/>
     </g>
     <g id="text_5">
      <!-- 2014 -->
      <defs>
       <path d="M 35.25 15.578125 
L 35.25 0 
L 28.46875 0 
L 28.46875 15.578125 
L 1.90625 15.578125 
L 1.90625 22.40625 
L 27.6875 68.796875 
L 35.25 68.796875 
L 35.25 22.515625 
L 43.21875 22.515625 
L 43.21875 15.578125 
z
M 28.46875 58.890625 
Q 28.375 58.640625 28.03125 57.90625 
L 27.34375 56.34375 
L 26.5625 54.59375 
Q 26.125 53.65625 25.78125 53.078125 
L 11.328125 27.09375 
Q 11.140625 26.703125 10.75 26.078125 
L 9.96875 24.8125 
L 9.1875 23.484375 
Q 8.796875 22.859375 8.546875 22.515625 
L 28.46875 22.515625 
z
" id="LiberationSansNarrow-52"/>
      </defs>
      <g transform="translate(323.043604 269.345625)scale(0.14 -0.14)">
       <use xlink:href="#LiberationSansNarrow-50"/>
       <use x="45.605469" xlink:href="#LiberationSansNarrow-48"/>
       <use x="91.210938" xlink:href="#LiberationSansNarrow-49"/>
       <use x="136.816406" xlink:href="#LiberationSansNarrow-52"/>
      </g>
     </g>
    </g>
    <g id="xtick_6">
     <g id="line2d_6">
      <path clip-path="url(#p9ce1bf2955)" d="M 397.784595 252.2 
L 397.784595 17.64 
" style="fill:none;stroke:#b0b0b0;stroke-dasharray:1.48,0.64;stroke-dashoffset:0;stroke-width:0.4;"/>
     </g>
     <g id="text_6">
      <!-- 2016 -->
      <g transform="translate(385.01397 269.345625)scale(0.14 -0.14)">
       <use xlink:href="#LiberationSansNarrow-50"/>
       <use x="45.605469" xlink:href="#LiberationSansNarrow-48"/>
       <use x="91.210938" xlink:href="#LiberationSansNarrow-49"/>
       <use x="136.816406" xlink:href="#LiberationSansNarrow-54"/>
      </g>
     </g>
    </g>
    <g id="xtick_7">
     <g id="line2d_7">
      <path clip-path="url(#p9ce1bf2955)" d="M 459.839852 252.2 
L 459.839852 17.64 
" style="fill:none;stroke:#b0b0b0;stroke-dasharray:1.48,0.64;stroke-dashoffset:0;stroke-width:0.4;"/>
     </g>
     <g id="text_7">
      <!-- 2018 -->
      <g transform="translate(447.069227 269.345625)scale(0.14 -0.14)">
       <use xlink:href="#LiberationSansNarrow-50"/>
       <use x="45.605469" xlink:href="#LiberationSansNarrow-48"/>
       <use x="91.210938" xlink:href="#LiberationSansNarrow-49"/>
       <use x="136.816406" xlink:href="#LiberationSansNarrow-56"/>
      </g>
     </g>
    </g>
    <g id="xtick_8">
     <g id="line2d_8">
      <path clip-path="url(#p9ce1bf2955)" d="M 521.810218 252.2 
L 521.810218 17.64 
" style="fill:none;stroke:#b0b0b0;stroke-dasharray:1.48,0.64;stroke-dashoffset:0;stroke-width:0.4;"/>
     </g>
     <g id="text_8">
      <!-- 2020 -->
      <g transform="translate(509.039593 269.345625)scale(0.14 -0.14)">
       <use xlink:href="#LiberationSansNarrow-50"/>
       <use x="45.605469" xlink:href="#LiberationSansNarrow-48"/>
       <use x="91.210938" xlink:href="#LiberationSansNarrow-50"/>
       <use x="136.816406" xlink:href="#LiberationSansNarrow-48"/>
      </g>
     </g>
    </g>
   </g>
   <g id="matplotlib.axis_2">
    <g id="ytick_1">
     <g id="line2d_9">
      <path clip-path="url(#p9ce1bf2955)" d="M 38.14 224.136955 
L 558.36 224.136955 
" style="fill:none;stroke:#b0b0b0;stroke-dasharray:1.48,0.64;stroke-dashoffset:0;stroke-width:0.4;"/>
     </g>
     <g id="text_9">
      <!-- 0.6 -->
      <defs>
       <path d="M 7.46875 0 
L 7.46875 10.6875 
L 15.328125 10.6875 
L 15.328125 0 
z
" id="LiberationSansNarrow-46"/>
      </defs>
      <g transform="translate(15.177812 229.209768)scale(0.14 -0.14)">
       <use xlink:href="#LiberationSansNarrow-48"/>
       <use x="45.605469" xlink:href="#LiberationSansNarrow-46"/>
       <use x="68.408203" xlink:href="#LiberationSansNarrow-54"/>
      </g>
     </g>
    </g>
    <g id="ytick_2">
     <g id="line2d_10">
      <path clip-path="url(#p9ce1bf2955)" d="M 38.14 167.701677 
L 558.36 167.701677 
" style="fill:none;stroke:#b0b0b0;stroke-dasharray:1.48,0.64;stroke-dashoffset:0;stroke-width:0.4;"/>
     </g>
     <g id="text_10">
      <!-- 0.8 -->
      <g transform="translate(15.177812 172.774489)scale(0.14 -0.14)">
       <use xlink:href="#LiberationSansNarrow-48"/>
       <use x="45.605469" xlink:href="#LiberationSansNarrow-46"/>
       <use x="68.408203" xlink:href="#LiberationSansNarrow-56"/>
      </g>
     </g>
    </g>
    <g id="ytick_3">
     <g id="line2d_11">
      <path clip-path="url(#p9ce1bf2955)" d="M 38.14 111.266398 
L 558.36 111.266398 
" style="fill:none;stroke:#b0b0b0;stroke-dasharray:1.48,0.64;stroke-dashoffset:0;stroke-width:0.4;"/>
     </g>
     <g id="text_11">
      <!-- 1.0 -->
      <g transform="translate(15.177812 116.33921)scale(0.14 -0.14)">
       <use xlink:href="#LiberationSansNarrow-49"/>
       <use x="45.605469" xlink:href="#LiberationSansNarrow-46"/>
       <use x="68.408203" xlink:href="#LiberationSansNarrow-48"/>
      </g>
     </g>
    </g>
    <g id="ytick_4">
     <g id="line2d_12">
      <path clip-path="url(#p9ce1bf2955)" d="M 38.14 54.831119 
L 558.36 54.831119 
" style="fill:none;stroke:#b0b0b0;stroke-dasharray:1.48,0.64;stroke-dashoffset:0;stroke-width:0.4;"/>
     </g>
     <g id="text_12">
      <!-- 1.2 -->
      <g transform="translate(15.177812 59.903932)scale(0.14 -0.14)">
       <use xlink:href="#LiberationSansNarrow-49"/>
       <use x="45.605469" xlink:href="#LiberationSansNarrow-46"/>
       <use x="68.408203" xlink:href="#LiberationSansNarrow-50"/>
      </g>
     </g>
    </g>
   </g>
   <g id="line2d_13">
    <path clip-path="url(#p9ce1bf2955)" d="M 61.786364 136.682297 
L 64.417982 137.768108 
L 66.964709 133.043892 
L 69.596328 134.018257 
L 72.143055 113.248398 
L 74.774673 129.81585 
L 79.953019 105.572292 
L 82.584637 138.64282 
L 85.131365 146.190633 
L 87.762983 165.362989 
L 90.394601 170.460393 
L 92.771547 169.46587 
L 95.403165 156.511058 
L 97.949892 149.334366 
L 100.581511 140.266142 
L 103.128238 134.161799 
L 105.759856 147.071488 
L 108.391475 148.807788 
L 110.938202 152.272605 
L 113.56982 144.217852 
L 116.116548 152.927505 
L 118.748166 158.168094 
L 121.379784 157.721703 
L 123.75673 132.675263 
L 126.388348 123.292989 
L 128.935075 146.9733 
L 131.566694 137.261886 
L 134.113421 172.835441 
L 136.745039 157.384631 
L 139.376658 164.979369 
L 141.923385 146.951772 
L 144.555003 116.333102 
L 147.101731 120.465249 
L 149.733349 129.984575 
L 152.364967 133.269019 
L 154.826804 166.840034 
L 157.458422 208.56461 
L 160.005149 228.651476 
L 162.636768 220.002215 
L 165.183495 230.937732 
L 167.815113 241.538182 
L 170.446731 226.08917 
L 172.993459 183.992214 
L 175.625077 158.996872 
L 178.171804 151.061814 
L 180.803423 134.496889 
L 183.435041 115.300512 
L 185.811987 83.621353 
L 188.443605 128.820918 
L 190.990332 129.451996 
L 193.621951 122.609221 
L 196.168678 143.9303 
L 198.800296 143.13578 
L 203.978642 118.981196 
L 209.156987 182.405159 
L 211.788606 163.906708 
L 214.420224 169.557076 
L 216.79717 153.013674 
L 219.428788 149.775871 
L 221.975515 118.444173 
L 224.607134 95.883559 
L 227.153861 93.504443 
L 229.785479 84.180203 
L 232.417097 85.502395 
L 234.963825 89.325583 
L 237.595443 105.383706 
L 240.14217 115.589661 
L 242.773789 129.134735 
L 245.405407 157.864294 
L 247.782353 193.11926 
L 250.413971 168.962212 
L 252.960698 173.714771 
L 255.592317 167.87437 
L 258.139044 168.888515 
L 260.770662 128.116165 
L 263.40228 112.505416 
L 265.949008 119.736965 
L 268.580626 137.568048 
L 271.127354 136.68013 
L 273.758972 142.13129 
L 276.39059 142.817863 
L 278.852427 144.463903 
L 281.484045 159.317717 
L 284.030772 148.376187 
L 289.209118 133.738957 
L 291.840736 137.281447 
L 294.472354 131.049652 
L 297.019082 130.723745 
L 299.6507 110.244201 
L 302.197427 127.979213 
L 304.829046 113.163116 
L 307.460664 126.322314 
L 309.83761 114.059057 
L 312.469228 111.266398 
L 315.015955 114.30553 
L 317.647573 103.900966 
L 320.194301 109.415003 
L 322.825919 92.315751 
L 325.457537 113.902727 
L 328.004265 128.981798 
L 330.635883 128.65319 
L 333.18261 118.488002 
L 335.814229 123.007635 
L 338.445847 107.523916 
L 340.822793 121.424502 
L 343.454411 116.43886 
L 346.001138 109.355778 
L 348.632756 124.105486 
L 351.179484 126.00922 
L 353.811102 107.704719 
L 356.44272 115.339794 
L 358.989448 115.181939 
L 361.621066 117.174688 
L 364.167793 120.730268 
L 366.799412 112.40704 
L 369.43103 137.958911 
L 371.807976 146.684293 
L 374.439594 132.202718 
L 376.986321 131.090644 
L 379.617939 132.634004 
L 382.164667 148.768292 
L 384.796285 150.866136 
L 387.427903 124.610194 
L 389.974631 139.810544 
L 392.606249 138.710789 
L 395.152976 133.606282 
L 397.784595 104.038451 
L 400.416213 105.17569 
L 402.878049 113.966095 
L 405.509668 135.931488 
L 408.056395 116.524229 
L 410.688013 119.777282 
L 413.234741 118.52735 
L 415.866359 121.705703 
L 418.497977 120.401245 
L 421.044705 118.822961 
L 423.676323 112.722911 
L 426.22305 121.113231 
L 428.854669 116.625727 
L 431.486287 123.25698 
L 433.863232 116.671799 
L 436.494851 100.336638 
L 439.041578 96.541753 
L 441.673196 104.060449 
L 444.219924 74.227797 
L 446.851542 84.732175 
L 449.48316 99.383042 
L 452.029888 103.14881 
L 454.661506 86.776494 
L 457.208233 94.300653 
L 459.839852 105.605921 
L 462.47147 67.295731 
L 464.848415 69.660951 
L 467.480034 115.450905 
L 470.026761 116.548714 
L 472.658379 145.11286 
L 475.205107 122.603026 
L 477.836725 116.528483 
L 480.468343 119.881105 
L 483.015071 106.658183 
L 485.646689 113.058059 
L 488.193416 76.714886 
L 490.825035 76.1138 
L 493.456653 94.52494 
L 495.833599 109.124152 
L 498.465217 120.429391 
L 501.011944 106.675482 
L 503.643562 97.642709 
L 506.19029 99.233672 
L 508.821908 109.61091 
L 511.453526 144.265359 
L 514.000254 107.69192 
L 516.631872 101.493522 
L 519.178599 85.824063 
L 519.178599 85.824063 
" style="fill:none;stroke:#1f77b4;stroke-linecap:square;stroke-width:1.2;"/>
   </g>
   <g id="line2d_14">
    <path clip-path="url(#p9ce1bf2955)" d="M 312.469228 111.266398 
L 315.015955 122.781789 
L 317.647573 123.043801 
L 320.194301 114.845631 
L 322.825919 125.455384 
L 325.457537 121.657177 
L 328.004265 111.424687 
L 330.635883 113.363423 
L 333.18261 111.16887 
L 335.814229 119.393562 
L 338.445847 100.605039 
L 340.822793 118.574784 
L 343.454411 121.40808 
L 346.001138 114.619141 
L 348.632756 118.522628 
L 351.179484 124.564978 
L 353.811102 110.99335 
L 356.44272 118.517141 
L 358.989448 103.785996 
L 364.167793 114.178469 
L 366.799412 112.030805 
L 369.43103 104.913923 
L 374.439594 113.540098 
L 376.986321 106.933547 
L 379.617939 107.564775 
L 382.164667 95.563902 
L 384.796285 106.486621 
L 387.427903 99.369896 
L 389.974631 90.153235 
L 392.606249 97.227331 
L 395.152976 95.14828 
L 397.784595 85.980719 
L 400.416213 88.22948 
L 402.878049 92.059439 
L 405.509668 101.431666 
L 408.056395 93.365057 
L 410.688013 88.634417 
L 413.234741 89.591285 
L 415.866359 97.672146 
L 418.497977 96.025181 
L 421.044705 99.20785 
L 423.676323 104.427106 
L 426.22305 113.778839 
L 428.854669 107.611522 
L 431.486287 104.216863 
L 433.863232 104.186819 
L 436.494851 95.425725 
L 439.041578 86.423266 
L 441.673196 91.547213 
L 444.219924 83.28809 
L 446.851542 79.517135 
L 449.48316 76.850206 
L 452.029888 68.837818 
L 454.661506 64.98554 
L 457.208233 74.749943 
L 459.839852 63.561791 
L 462.47147 58.720688 
L 464.848415 71.288828 
L 467.480034 63.385277 
L 470.026761 58.578329 
L 472.658379 66.761534 
L 475.205107 65.173473 
L 477.836725 54.229931 
L 480.468343 57.523312 
L 483.015071 77.815132 
L 485.646689 66.560846 
L 488.193416 74.547087 
L 490.825035 58.476044 
L 493.456653 66.190998 
L 495.833599 67.035902 
L 498.465217 70.294507 
L 501.011944 72.480614 
L 503.643562 58.846318 
L 506.19029 64.132293 
L 508.821908 52.57898 
L 511.453526 67.701044 
L 514.000254 64.472917 
L 516.631872 68.074995 
L 519.178599 71.84613 
L 521.810218 69.295356 
L 524.441836 92.957586 
L 526.903672 67.055889 
L 529.535291 42.393818 
L 532.082018 42.456688 
L 534.713636 50.60967 
L 534.713636 50.60967 
" style="fill:none;stroke:#ff7f0e;stroke-linecap:square;stroke-opacity:0.7;"/>
   </g>
   <g id="line2d_15">
    <path clip-path="url(#p9ce1bf2955)" d="M 123.75673 119.980515 
L 126.388348 120.979406 
L 128.935075 118.628501 
L 134.113421 135.792536 
L 136.745039 124.92247 
L 139.376658 118.515402 
L 141.923385 115.438211 
L 144.555003 110.555112 
L 147.101731 109.967896 
L 149.733349 117.528209 
L 152.364967 111.904402 
L 154.826804 108.491962 
L 157.458422 103.949883 
L 160.005149 97.832385 
L 162.636768 100.597388 
L 165.183495 100.838915 
L 167.815113 114.689819 
L 170.446731 152.172747 
L 172.993459 152.767348 
L 175.625077 155.4827 
L 178.171804 143.187617 
L 180.803423 159.639854 
L 183.435041 165.498104 
L 185.811987 135.589339 
L 188.443605 146.14956 
L 190.990332 158.454229 
L 193.621951 161.479258 
L 196.168678 140.355582 
L 198.800296 150.107476 
L 201.431914 142.52408 
L 203.978642 160.753539 
L 206.61026 153.17969 
L 209.156987 146.464631 
L 211.788606 162.766333 
L 214.420224 137.001813 
L 216.79717 134.457996 
L 219.428788 133.870653 
L 221.975515 137.394228 
L 224.607134 145.901025 
L 227.153861 125.846121 
L 229.785479 140.721878 
L 232.417097 121.513604 
L 234.963825 119.922012 
L 237.595443 119.927397 
L 240.14217 119.589433 
L 242.773789 120.558522 
L 245.405407 120.152683 
L 247.782353 110.007485 
L 250.413971 106.546469 
L 252.960698 110.364512 
L 255.592317 102.618919 
L 258.139044 115.374816 
L 260.770662 100.122816 
L 263.40228 126.264993 
L 265.949008 108.628142 
L 268.580626 112.304442 
L 271.127354 120.961232 
L 273.758972 120.048451 
L 276.39059 116.508304 
L 278.852427 115.204952 
L 281.484045 109.292547 
L 284.030772 116.752577 
L 286.66239 112.468252 
L 289.209118 119.047003 
L 291.840736 119.027865 
L 294.472354 125.525804 
L 297.019082 126.143227 
L 299.6507 112.223999 
L 302.197427 119.202885 
L 304.829046 116.285582 
L 307.460664 118.996182 
L 309.83761 114.642229 
L 312.469228 111.266398 
L 315.015955 122.76477 
L 317.647573 125.038966 
L 320.194301 119.535972 
L 322.825919 126.217432 
L 325.457537 115.32156 
L 328.004265 113.975322 
L 330.635883 115.524261 
L 333.18261 113.505469 
L 335.814229 121.298733 
L 338.445847 104.501447 
L 340.822793 118.583427 
L 343.454411 121.424196 
L 346.001138 115.234685 
L 348.632756 119.28797 
L 351.179484 129.910578 
L 353.811102 113.973404 
L 356.44272 124.872077 
L 358.989448 109.834076 
L 361.621066 117.233187 
L 364.167793 122.148003 
L 366.799412 119.842824 
L 369.43103 112.816384 
L 371.807976 111.418204 
L 374.439594 120.024723 
L 376.986321 117.190654 
L 379.617939 117.459821 
L 382.164667 110.22483 
L 384.796285 120.039946 
L 387.427903 116.51244 
L 389.974631 110.513005 
L 392.606249 120.375352 
L 395.152976 124.737696 
L 397.784595 126.961963 
L 400.416213 122.906473 
L 402.878049 125.698111 
L 405.509668 134.923553 
L 408.056395 127.027645 
L 410.688013 126.672769 
L 413.234741 128.650296 
L 415.866359 133.491483 
L 418.497977 134.606213 
L 421.044705 140.456694 
L 423.676323 138.9109 
L 426.22305 148.283506 
L 428.854669 145.508033 
L 431.486287 139.170315 
L 433.863232 142.602168 
L 436.494851 139.222334 
L 439.041578 138.273636 
L 441.673196 142.515389 
L 444.219924 138.778257 
L 446.851542 136.495467 
L 449.48316 139.999265 
L 452.029888 135.47541 
L 454.661506 133.408367 
L 457.208233 142.30348 
L 459.839852 138.688927 
L 462.47147 140.719971 
L 464.848415 142.031456 
L 467.480034 137.779898 
L 470.026761 129.656982 
L 472.658379 135.444303 
L 475.205107 135.4047 
L 477.836725 125.30989 
L 480.468343 130.756713 
L 483.015071 150.428975 
L 485.646689 143.313783 
L 488.193416 153.127076 
L 490.825035 137.353078 
L 493.456653 139.845904 
L 495.833599 137.189623 
L 498.465217 137.193802 
L 501.011944 141.310851 
L 503.643562 130.139585 
L 506.19029 133.84546 
L 508.821908 123.189625 
L 511.453526 136.842575 
L 514.000254 136.122771 
L 516.631872 137.276083 
L 519.178599 139.786092 
L 521.810218 141.793368 
L 524.441836 159.102978 
L 529.535291 119.725429 
L 532.082018 109.669981 
L 534.713636 123.929083 
L 534.713636 123.929083 
" style="fill:none;stroke:#2ca02c;stroke-linecap:square;stroke-opacity:0.7;"/>
   </g>
   <g id="line2d_16">
    <path clip-path="url(#p9ce1bf2955)" d="M 297.019082 116.425375 
L 299.6507 110.65924 
L 302.197427 113.592181 
L 304.829046 112.700969 
L 307.460664 115.055938 
L 309.83761 114.299125 
L 312.469228 111.266398 
L 315.015955 114.115337 
L 317.647573 117.610845 
L 320.194301 111.302253 
L 322.825919 118.898427 
L 325.457537 114.096402 
L 328.004265 105.478514 
L 333.18261 108.864344 
L 335.814229 116.495392 
L 338.445847 103.579804 
L 340.822793 111.372469 
L 343.454411 115.050351 
L 346.001138 111.751393 
L 348.632756 113.30992 
L 351.179484 114.597903 
L 353.811102 108.560491 
L 356.44272 117.580561 
L 358.989448 108.041715 
L 361.621066 111.764255 
L 364.167793 112.524111 
L 366.799412 116.17111 
L 369.43103 112.025816 
L 371.807976 113.508187 
L 374.439594 111.636619 
L 376.986321 115.022982 
L 379.617939 117.950677 
L 382.164667 109.903621 
L 384.796285 120.403727 
L 387.427903 117.896951 
L 389.974631 105.359385 
L 392.606249 110.492352 
L 395.152976 107.435353 
L 397.784595 108.501212 
L 400.416213 103.704202 
L 402.878049 109.173799 
L 405.509668 109.411813 
L 408.056395 110.031253 
L 410.688013 110.930414 
L 413.234741 109.992932 
L 415.866359 116.447678 
L 418.497977 115.289694 
L 421.044705 119.825237 
L 423.676323 116.870828 
L 426.22305 121.722188 
L 428.854669 117.501212 
L 431.486287 115.105032 
L 433.863232 126.858466 
L 436.494851 116.995324 
L 439.041578 116.479261 
L 441.673196 120.620393 
L 444.219924 115.852296 
L 446.851542 115.984114 
L 449.48316 115.591534 
L 452.029888 110.871249 
L 454.661506 107.055718 
L 457.208233 113.27764 
L 459.839852 109.143733 
L 462.47147 102.357045 
L 464.848415 114.431228 
L 467.480034 108.154627 
L 470.026761 105.366514 
L 472.658379 111.966743 
L 475.205107 108.049642 
L 477.836725 101.517058 
L 480.468343 106.589249 
L 483.015071 117.726902 
L 485.646689 109.264783 
L 488.193416 121.416132 
L 490.825035 102.287047 
L 493.456653 108.840836 
L 495.833599 108.510244 
L 498.465217 108.568371 
L 501.011944 119.956453 
L 503.643562 107.345187 
L 506.19029 113.109867 
L 508.821908 104.600473 
L 511.453526 112.034476 
L 514.000254 107.909535 
L 516.631872 112.138013 
L 519.178599 113.104365 
L 521.810218 119.032882 
L 524.441836 143.685188 
L 526.903672 121.854624 
L 529.535291 100.536517 
L 532.082018 103.816739 
L 534.713636 114.358818 
L 534.713636 114.358818 
" style="fill:none;stroke:#d62728;stroke-linecap:square;stroke-opacity:0.7;"/>
   </g>
   <g id="line2d_17">
    <path clip-path="url(#p9ce1bf2955)" d="M 61.786364 71.951692 
L 64.417982 82.884141 
L 66.964709 61.500224 
L 69.596328 58.18049 
L 72.143055 45.393318 
L 74.774673 47.534907 
L 77.406292 43.845425 
L 79.953019 51.608966 
L 82.584637 46.861618 
L 85.131365 50.046975 
L 87.762983 29.587618 
L 90.394601 32.761056 
L 92.771547 28.301818 
L 95.403165 28.633979 
L 97.949892 51.002324 
L 100.581511 50.068319 
L 103.128238 72.820551 
L 105.759856 70.684629 
L 108.391475 68.78952 
L 110.938202 61.638618 
L 113.56982 68.521073 
L 116.116548 77.330589 
L 118.748166 75.771905 
L 121.379784 80.41593 
L 123.75673 66.372536 
L 126.388348 72.604335 
L 128.935075 80.965596 
L 131.566694 86.8623 
L 134.113421 99.853182 
L 136.745039 84.396115 
L 139.376658 89.771377 
L 141.923385 87.5497 
L 144.555003 94.806129 
L 147.101731 98.96847 
L 149.733349 105.486211 
L 152.364967 115.770152 
L 154.826804 112.427064 
L 157.458422 110.499328 
L 160.005149 104.88737 
L 162.636768 113.98573 
L 165.183495 88.457096 
L 167.815113 85.553953 
L 170.446731 107.569313 
L 172.993459 98.3841 
L 175.625077 102.108559 
L 178.171804 92.201071 
L 180.803423 113.254022 
L 183.435041 123.477216 
L 185.811987 85.508831 
L 188.443605 95.433692 
L 190.990332 106.043636 
L 193.621951 108.094625 
L 196.168678 90.797884 
L 198.800296 118.721744 
L 201.431914 121.079321 
L 203.978642 143.85532 
L 206.61026 143.285619 
L 209.156987 122.648531 
L 211.788606 134.959778 
L 214.420224 117.413697 
L 216.79717 112.281731 
L 219.428788 114.01734 
L 221.975515 108.968244 
L 224.607134 125.34963 
L 227.153861 103.950081 
L 229.785479 126.575977 
L 232.417097 107.830425 
L 237.595443 95.88947 
L 240.14217 89.393214 
L 242.773789 97.75024 
L 245.405407 90.18439 
L 247.782353 65.166182 
L 250.413971 61.297227 
L 252.960698 64.173113 
L 255.592317 68.777516 
L 258.139044 89.734159 
L 260.770662 81.400133 
L 263.40228 112.734734 
L 265.949008 82.997702 
L 268.580626 95.146673 
L 271.127354 99.721622 
L 273.758972 95.338754 
L 276.39059 96.262977 
L 278.852427 98.844374 
L 281.484045 103.506646 
L 284.030772 116.156182 
L 286.66239 106.062126 
L 289.209118 113.904944 
L 291.840736 112.503615 
L 294.472354 114.121064 
L 297.019082 119.05733 
L 299.6507 108.612243 
L 302.197427 107.836442 
L 304.829046 101.507149 
L 307.460664 106.226684 
L 309.83761 104.106454 
L 312.469228 111.266398 
L 315.015955 112.657112 
L 317.647573 113.367081 
L 320.194301 101.733442 
L 322.825919 110.940719 
L 325.457537 100.728266 
L 328.004265 97.831944 
L 330.635883 101.642575 
L 333.18261 99.940348 
L 335.814229 107.304942 
L 338.445847 93.775041 
L 340.822793 99.805995 
L 343.454411 108.409286 
L 346.001138 111.891034 
L 348.632756 109.09621 
L 351.179484 122.3569 
L 353.811102 112.343535 
L 356.44272 130.420678 
L 358.989448 115.139255 
L 361.621066 128.321918 
L 364.167793 127.410369 
L 366.799412 129.04974 
L 369.43103 122.454938 
L 371.807976 120.05074 
L 374.439594 126.55688 
L 376.986321 124.855717 
L 379.617939 120.635559 
L 382.164667 115.78492 
L 384.796285 123.916891 
L 387.427903 130.558501 
L 389.974631 128.589499 
L 392.606249 123.689482 
L 395.152976 131.991408 
L 397.784595 148.596174 
L 400.416213 148.275656 
L 402.878049 147.533622 
L 405.509668 150.106074 
L 408.056395 143.471032 
L 410.688013 147.256278 
L 413.234741 136.531814 
L 415.866359 137.184106 
L 418.497977 132.850883 
L 421.044705 150.288808 
L 423.676323 135.054883 
L 426.22305 144.386867 
L 428.854669 147.163216 
L 431.486287 145.065632 
L 433.863232 144.451899 
L 436.494851 134.910617 
L 439.041578 138.2347 
L 441.673196 132.878816 
L 446.851542 137.253052 
L 449.48316 130.33885 
L 452.029888 135.459301 
L 454.661506 132.793755 
L 459.839852 143.513565 
L 462.47147 138.896443 
L 464.848415 134.384588 
L 467.480034 128.983498 
L 470.026761 110.147854 
L 472.658379 114.333653 
L 475.205107 112.564859 
L 477.836725 94.471115 
L 480.468343 106.057047 
L 483.015071 131.867639 
L 485.646689 125.557684 
L 488.193416 142.55692 
L 490.825035 118.445997 
L 493.456653 113.258356 
L 495.833599 123.435567 
L 498.465217 126.552999 
L 501.011944 136.998045 
L 503.643562 124.873002 
L 506.19029 127.879492 
L 508.821908 125.631751 
L 511.453526 135.792892 
L 514.000254 129.782349 
L 519.178599 138.258178 
L 521.810218 144.579461 
L 524.441836 165.546496 
L 526.903672 166.67086 
L 529.535291 150.949116 
L 532.082018 147.776707 
L 534.713636 153.975843 
L 534.713636 153.975843 
" style="fill:none;stroke:#9467bd;stroke-linecap:square;stroke-opacity:0.7;"/>
   </g>
   <g id="legend_1">
    <g id="patch_3">
     <path d="M 337.663939 246.369 
L 550.1966 246.369 
Q 552.529 246.369 552.529 244.0366 
L 552.529 214.713959 
Q 552.529 212.381559 550.1966 212.381559 
L 337.663939 212.381559 
Q 335.331539 212.381559 335.331539 214.713959 
L 335.331539 244.0366 
Q 335.331539 246.369 337.663939 246.369 
z
" style="fill:#ffffff;opacity:0.8;stroke:#cccccc;stroke-linejoin:miter;"/>
    </g>
    <g id="line2d_18">
     <path d="M 339.996339 221.415964 
L 363.320339 221.415964 
" style="fill:none;stroke:#1f77b4;stroke-linecap:square;stroke-width:1.2;"/>
    </g>
    <g id="line2d_19"/>
    <g id="text_13">
     <!-- mom -->
     <defs>
      <path d="M 30.765625 0 
L 30.765625 33.5 
Q 30.765625 37.359375 30.34375 39.9375 
Q 29.9375 42.53125 29 44.109375 
Q 28.078125 45.703125 26.5625 46.359375 
Q 25.046875 47.015625 22.796875 47.015625 
Q 20.515625 47.015625 18.671875 45.921875 
Q 16.84375 44.828125 15.546875 42.75 
Q 14.265625 40.671875 13.546875 37.625 
Q 12.84375 34.578125 12.84375 30.609375 
L 12.84375 0 
L 5.671875 0 
L 5.671875 41.546875 
Q 5.671875 41.546875 5.671875 45.015625 
Q 5.671875 46.875 5.609375 48.5 
Q 5.5625 50.140625 5.515625 51.3125 
Q 5.46875 52.484375 5.46875 52.828125 
L 12.25 52.828125 
Q 12.3125 52.59375 12.328125 51.515625 
Q 12.359375 50.4375 12.421875 49.046875 
Q 12.5 47.65625 12.515625 46.21875 
Q 12.546875 44.78125 12.546875 43.796875 
L 12.703125 43.796875 
Q 13.671875 46.09375 14.796875 47.953125 
Q 15.921875 49.8125 17.40625 51.09375 
Q 18.890625 52.390625 20.84375 53.09375 
Q 22.796875 53.8125 25.34375 53.8125 
Q 30.28125 53.8125 33.125 51.421875 
Q 35.984375 49.03125 37.109375 43.796875 
L 37.25 43.796875 
Q 38.234375 46.09375 39.421875 47.953125 
Q 40.625 49.8125 42.203125 51.09375 
Q 43.796875 52.390625 45.796875 53.09375 
Q 47.796875 53.8125 50.390625 53.8125 
Q 53.65625 53.8125 56.03125 52.734375 
Q 58.40625 51.65625 59.9375 49.40625 
Q 61.46875 47.171875 62.171875 43.625 
Q 62.890625 40.09375 62.890625 35.203125 
L 62.890625 0 
L 55.765625 0 
L 55.765625 33.5 
Q 55.765625 37.359375 55.375 39.9375 
Q 54.984375 42.53125 54.03125 44.109375 
Q 53.078125 45.703125 51.5625 46.359375 
Q 50.046875 47.015625 47.859375 47.015625 
Q 45.5625 47.015625 43.71875 45.96875 
Q 41.890625 44.921875 40.578125 42.875 
Q 39.265625 40.828125 38.578125 37.75 
Q 37.890625 34.671875 37.890625 30.609375 
L 37.890625 0 
z
" id="LiberationSansNarrow-109"/>
      <path d="M 42.140625 26.46875 
Q 42.140625 12.59375 37.125 5.796875 
Q 32.125 -0.984375 22.609375 -0.984375 
Q 18.0625 -0.984375 14.515625 0.671875 
Q 10.984375 2.34375 8.515625 5.765625 
Q 6.0625 9.1875 4.765625 14.328125 
Q 3.46875 19.484375 3.46875 26.46875 
Q 3.46875 53.8125 22.859375 53.8125 
Q 27.875 53.8125 31.5625 52.09375 
Q 35.25 50.390625 37.59375 46.96875 
Q 39.9375 43.5625 41.03125 38.421875 
Q 42.140625 33.296875 42.140625 26.46875 
z
M 34.578125 26.46875 
Q 34.578125 32.625 33.8125 36.625 
Q 33.0625 40.625 31.546875 43.015625 
Q 30.03125 45.40625 27.859375 46.359375 
Q 25.6875 47.3125 23 47.3125 
Q 20.21875 47.3125 17.984375 46.3125 
Q 15.765625 45.3125 14.203125 42.890625 
Q 12.640625 40.484375 11.828125 36.46875 
Q 11.03125 32.46875 11.03125 26.46875 
Q 11.03125 20.3125 11.90625 16.28125 
Q 12.796875 12.25 14.328125 9.859375 
Q 15.875 7.46875 17.96875 6.484375 
Q 20.0625 5.515625 22.5625 5.515625 
Q 25.34375 5.515625 27.5625 6.46875 
Q 29.78125 7.421875 31.34375 9.8125 
Q 32.90625 12.203125 33.734375 16.25 
Q 34.578125 20.3125 34.578125 26.46875 
z
" id="LiberationSansNarrow-111"/>
     </defs>
     <g transform="translate(372.649939 225.497664)scale(0.11662 -0.11662)">
      <use xlink:href="#LiberationSansNarrow-109"/>
      <use x="68.310547" xlink:href="#LiberationSansNarrow-111"/>
      <use x="113.916016" xlink:href="#LiberationSansNarrow-109"/>
     </g>
    </g>
    <g id="line2d_20">
     <path d="M 339.996339 235.202635 
L 363.320339 235.202635 
" style="fill:none;stroke:#ff7f0e;stroke-linecap:square;stroke-opacity:0.7;"/>
    </g>
    <g id="line2d_21"/>
    <g id="text_14">
     <!-- MTUM -->
     <defs>
      <path d="M 54.6875 0 
L 54.6875 45.90625 
Q 54.6875 48.390625 54.734375 50.96875 
Q 54.78125 53.5625 54.828125 55.71875 
Q 54.9375 58.203125 55.078125 60.546875 
Q 54.546875 58.0625 53.90625 55.609375 
Q 53.90625 55.609375 52.734375 51.171875 
Q 52.15625 48.78125 51.515625 46.875 
L 36.96875 0 
L 31.59375 0 
L 16.796875 46.875 
Q 16.546875 47.609375 16.3125 48.578125 
L 15.765625 50.6875 
L 15.140625 52.9375 
L 14.546875 55.171875 
Q 13.875 57.765625 13.234375 60.546875 
Q 13.28125 57.8125 13.375 55.125 
Q 13.484375 52.828125 13.5 50.3125 
Q 13.53125 47.796875 13.53125 45.90625 
L 13.53125 0 
L 6.734375 0 
L 6.734375 68.796875 
L 16.796875 68.796875 
L 31.78125 21.09375 
Q 32.078125 20.125 32.46875 18.578125 
Q 32.859375 17.046875 33.21875 15.421875 
Q 33.59375 13.8125 33.890625 12.375 
Q 34.1875 10.9375 34.328125 10.15625 
Q 34.421875 10.9375 34.734375 12.40625 
Q 35.0625 13.875 35.5 15.484375 
L 36.328125 18.609375 
Q 36.71875 20.125 37.0625 21.09375 
L 51.765625 68.796875 
L 61.578125 68.796875 
L 61.578125 0 
z
" id="LiberationSansNarrow-77"/>
      <path d="M 28.8125 61.1875 
L 28.8125 0 
L 21.234375 0 
L 21.234375 61.1875 
L 1.859375 61.1875 
L 1.859375 68.796875 
L 48.1875 68.796875 
L 48.1875 61.1875 
z
" id="LiberationSansNarrow-84"/>
      <path d="M 29.25 -0.984375 
Q 24.609375 -0.984375 20.453125 0.53125 
Q 16.3125 2.046875 13.15625 5.25 
Q 10.015625 8.453125 8.15625 13.359375 
Q 6.296875 18.265625 6.296875 25 
L 6.296875 68.796875 
L 13.96875 68.796875 
L 13.96875 25.78125 
Q 13.96875 20.5625 15.109375 16.921875 
Q 16.265625 13.28125 18.28125 10.984375 
Q 20.3125 8.6875 23.09375 7.640625 
Q 25.875 6.59375 29.203125 6.59375 
Q 32.46875 6.59375 35.390625 7.65625 
Q 38.328125 8.734375 40.515625 11.078125 
Q 42.71875 13.421875 43.984375 17.203125 
Q 45.265625 21 45.265625 26.421875 
L 45.265625 68.796875 
L 52.875 68.796875 
L 52.875 25.875 
Q 52.875 19 51 13.9375 
Q 49.125 8.890625 45.921875 5.5625 
Q 42.71875 2.25 38.421875 0.625 
Q 34.125 -0.984375 29.25 -0.984375 
z
" id="LiberationSansNarrow-85"/>
     </defs>
     <g transform="translate(372.649939 239.284335)scale(0.11662 -0.11662)">
      <use xlink:href="#LiberationSansNarrow-77"/>
      <use x="68.310547" xlink:href="#LiberationSansNarrow-84"/>
      <use x="118.408203" xlink:href="#LiberationSansNarrow-85"/>
      <use x="177.587891" xlink:href="#LiberationSansNarrow-77"/>
     </g>
    </g>
    <g id="line2d_22">
     <path d="M 412.989526 221.415964 
L 436.313526 221.415964 
" style="fill:none;stroke:#2ca02c;stroke-linecap:square;stroke-opacity:0.7;"/>
    </g>
    <g id="line2d_23"/>
    <g id="text_15">
     <!-- PDP -->
     <defs>
      <path d="M 50.34375 48.09375 
Q 50.34375 43.609375 49.125 39.71875 
Q 47.90625 35.84375 45.484375 32.984375 
Q 43.0625 30.125 39.421875 28.46875 
Q 35.796875 26.8125 30.953125 26.8125 
L 14.359375 26.8125 
L 14.359375 0 
L 6.734375 0 
L 6.734375 68.796875 
L 30.46875 68.796875 
Q 35.453125 68.796875 39.1875 67.3125 
Q 42.921875 65.828125 45.40625 63.109375 
Q 47.90625 60.40625 49.125 56.5625 
Q 50.34375 52.734375 50.34375 48.09375 
z
M 42.671875 48 
Q 42.671875 54.546875 39.40625 57.9375 
Q 36.140625 61.328125 29.546875 61.328125 
L 14.359375 61.328125 
L 14.359375 34.1875 
L 29.890625 34.1875 
Q 36.46875 34.1875 39.5625 37.75 
Q 42.671875 41.3125 42.671875 48 
z
" id="LiberationSansNarrow-80"/>
      <path d="M 55.28125 35.109375 
Q 55.28125 26.515625 53.15625 19.9375 
Q 51.03125 13.375 47.34375 8.953125 
Q 43.65625 4.546875 38.625 2.265625 
Q 33.59375 0 27.828125 0 
L 6.734375 0 
L 6.734375 68.796875 
L 25.390625 68.796875 
Q 31.9375 68.796875 37.40625 66.8125 
Q 42.875 64.84375 46.84375 60.71875 
Q 50.828125 56.59375 53.046875 50.234375 
Q 55.28125 43.890625 55.28125 35.109375 
z
M 47.5625 35.109375 
Q 47.5625 42.09375 45.921875 47.046875 
Q 44.28125 52 41.328125 55.171875 
Q 38.375 58.34375 34.25 59.828125 
Q 30.125 61.328125 25.203125 61.328125 
L 14.359375 61.328125 
L 14.359375 7.46875 
L 26.953125 7.46875 
Q 31.390625 7.46875 35.15625 9.21875 
Q 38.921875 10.984375 41.671875 14.453125 
Q 44.4375 17.921875 46 23.09375 
Q 47.5625 28.265625 47.5625 35.109375 
z
" id="LiberationSansNarrow-68"/>
     </defs>
     <g transform="translate(445.643126 225.497664)scale(0.11662 -0.11662)">
      <use xlink:href="#LiberationSansNarrow-80"/>
      <use x="54.6875" xlink:href="#LiberationSansNarrow-68"/>
      <use x="113.867188" xlink:href="#LiberationSansNarrow-80"/>
     </g>
    </g>
    <g id="line2d_24">
     <path d="M 412.989526 235.202635 
L 436.313526 235.202635 
" style="fill:none;stroke:#d62728;stroke-linecap:square;stroke-opacity:0.7;"/>
    </g>
    <g id="line2d_25"/>
    <g id="text_16">
     <!-- MMTM -->
     <g transform="translate(445.643126 239.284335)scale(0.11662 -0.11662)">
      <use xlink:href="#LiberationSansNarrow-77"/>
      <use x="68.310547" xlink:href="#LiberationSansNarrow-77"/>
      <use x="136.621094" xlink:href="#LiberationSansNarrow-84"/>
      <use x="186.71875" xlink:href="#LiberationSansNarrow-77"/>
     </g>
    </g>
    <g id="line2d_26">
     <path d="M 487.04687 221.415964 
L 510.37087 221.415964 
" style="fill:none;stroke:#9467bd;stroke-linecap:square;stroke-opacity:0.7;"/>
    </g>
    <g id="line2d_27"/>
    <g id="text_17">
     <!-- XSMO -->
     <defs>
      <path d="M 44.53125 0 
L 27.59375 30.078125 
L 10.296875 0 
L 1.859375 0 
L 23.296875 35.75 
L 3.46875 68.796875 
L 11.921875 68.796875 
L 27.640625 41.796875 
L 42.875 68.796875 
L 51.3125 68.796875 
L 32.03125 36.078125 
L 52.984375 0 
z
" id="LiberationSansNarrow-88"/>
      <path d="M 50.921875 19 
Q 50.921875 14.65625 49.53125 10.984375 
Q 48.140625 7.328125 45.265625 4.65625 
Q 42.390625 2 38.015625 0.5 
Q 33.640625 -0.984375 27.640625 -0.984375 
Q 17.09375 -0.984375 11.203125 3.515625 
Q 5.328125 8.015625 3.71875 16.5 
L 11.140625 18.3125 
Q 11.671875 15.625 12.84375 13.421875 
Q 14.015625 11.234375 15.984375 9.640625 
Q 17.96875 8.0625 20.890625 7.171875 
Q 23.828125 6.296875 27.875 6.296875 
Q 31.296875 6.296875 34.15625 7 
Q 37.015625 7.71875 39.03125 9.171875 
Q 41.0625 10.640625 42.203125 12.953125 
Q 43.359375 15.28125 43.359375 18.5 
Q 43.359375 21.875 42.09375 23.96875 
Q 40.828125 26.078125 38.546875 27.4375 
Q 36.28125 28.8125 33.109375 29.734375 
L 26.125 31.734375 
Q 23.78125 32.375 21.390625 33.125 
Q 19 33.890625 16.796875 34.9375 
Q 14.59375 35.984375 12.6875 37.390625 
Q 10.796875 38.8125 9.375 40.796875 
Q 7.953125 42.78125 7.140625 45.390625 
Q 6.34375 48 6.34375 51.421875 
Q 6.34375 56.296875 7.984375 59.78125 
Q 9.625 63.28125 12.5 65.53125 
Q 15.375 67.78125 19.3125 68.796875 
Q 23.25 69.828125 27.78125 69.828125 
Q 33.015625 69.828125 36.75 68.828125 
Q 40.484375 67.828125 43.046875 65.8125 
Q 45.609375 63.8125 47.140625 60.859375 
Q 48.6875 57.90625 49.609375 54 
L 42.09375 52.390625 
Q 41.546875 54.890625 40.46875 56.84375 
Q 39.40625 58.796875 37.671875 60.109375 
Q 35.9375 61.421875 33.46875 62.109375 
Q 31 62.796875 27.6875 62.796875 
Q 23.78125 62.796875 21.109375 61.9375 
Q 18.453125 61.078125 16.84375 59.609375 
Q 15.234375 58.15625 14.515625 56.171875 
Q 13.8125 54.203125 13.8125 51.90625 
Q 13.8125 48.828125 15.078125 46.84375 
Q 16.359375 44.875 18.5 43.546875 
Q 20.65625 42.234375 23.515625 41.359375 
Q 26.375 40.484375 29.546875 39.59375 
Q 29.546875 39.59375 34.71875 38.09375 
Q 37.3125 37.359375 39.671875 36.296875 
Q 42.046875 35.25 44.09375 33.828125 
Q 46.140625 32.421875 47.671875 30.375 
Q 49.21875 28.328125 50.0625 25.53125 
Q 50.921875 22.75 50.921875 19 
z
" id="LiberationSansNarrow-83"/>
      <path d="M 59.90625 34.71875 
Q 59.90625 26.65625 58 20.0625 
Q 56.109375 13.484375 52.484375 8.796875 
Q 48.875 4.109375 43.671875 1.5625 
Q 38.484375 -0.984375 31.84375 -0.984375 
Q 24.859375 -0.984375 19.625 1.671875 
Q 14.40625 4.34375 10.90625 9.109375 
Q 7.421875 13.875 5.65625 20.40625 
Q 3.90625 26.953125 3.90625 34.71875 
Q 3.90625 42.78125 5.734375 49.265625 
Q 7.5625 55.765625 11.125 60.328125 
Q 14.703125 64.890625 19.921875 67.359375 
Q 25.140625 69.828125 31.9375 69.828125 
Q 38.671875 69.828125 43.890625 67.328125 
Q 49.125 64.84375 52.65625 60.25 
Q 56.203125 55.671875 58.046875 49.171875 
Q 59.90625 42.671875 59.90625 34.71875 
z
M 52.09375 34.71875 
Q 52.09375 40.921875 50.78125 46 
Q 49.46875 51.078125 46.921875 54.6875 
Q 44.390625 58.296875 40.625 60.25 
Q 36.859375 62.203125 31.9375 62.203125 
Q 26.90625 62.203125 23.09375 60.25 
Q 19.28125 58.296875 16.71875 54.6875 
Q 14.15625 51.078125 12.90625 46 
Q 11.671875 40.921875 11.671875 34.71875 
Q 11.671875 28.515625 12.96875 23.359375 
Q 14.265625 18.21875 16.796875 14.484375 
Q 19.34375 10.75 23.125 8.671875 
Q 26.90625 6.59375 31.84375 6.59375 
Q 37.109375 6.59375 40.9375 8.6875 
Q 44.78125 10.796875 47.234375 14.53125 
Q 49.703125 18.265625 50.890625 23.4375 
Q 52.09375 28.609375 52.09375 34.71875 
z
" id="LiberationSansNarrow-79"/>
     </defs>
     <g transform="translate(519.70047 225.497664)scale(0.11662 -0.11662)">
      <use xlink:href="#LiberationSansNarrow-88"/>
      <use x="54.6875" xlink:href="#LiberationSansNarrow-83"/>
      <use x="109.375" xlink:href="#LiberationSansNarrow-77"/>
      <use x="177.685547" xlink:href="#LiberationSansNarrow-79"/>
     </g>
    </g>
   </g>
  </g>
 </g>
 <defs>
  <clipPath id="p9ce1bf2955">
   <rect height="234.56" width="520.22" x="38.14" y="17.64"/>
  </clipPath>
 </defs>
</svg>
