<?xml version="1.0" encoding="utf-8" standalone="no"?>
<!DOCTYPE svg PUBLIC "-//W3C//DTD SVG 1.1//EN"
  "http://www.w3.org/Graphics/SVG/1.1/DTD/svg11.dtd">
<!-- Created with matplotlib (https://matplotlib.org/) -->
<svg height="288pt" version="1.1" viewBox="0 0 576 288" width="576pt" xmlns="http://www.w3.org/2000/svg" xmlns:xlink="http://www.w3.org/1999/xlink">
 <defs>
  <style type="text/css">
*{stroke-linecap:butt;stroke-linejoin:round;}
  </style>
 </defs>
 <g id="figure_1">
  <g id="patch_1">
   <path d="M 0 288 
L 576 288 
L 576 0 
L 0 0 
z
" style="fill:#ffffff;"/>
  </g>
  <g id="axes_1">
   <g id="patch_2">
    <path d="M 38.14 252.2 
L 558.36 252.2 
L 558.36 17.64 
L 38.14 17.64 
z
" style="fill:#ffffff;"/>
   </g>
   <g id="matplotlib.axis_1">
    <g id="xtick_1">
     <g id="line2d_1">
      <path clip-path="url(#pea2d0e4391)" d="M 64.554631 252.2 
L 64.554631 17.64 
" style="fill:none;stroke:#b0b0b0;stroke-dasharray:1.48,0.64;stroke-dashoffset:0;stroke-width:0.4;"/>
     </g>
     <g id="text_1">
      <!-- 2006 -->
      <defs>
       <path d="M 4.109375 0 
L 4.109375 6.203125 
Q 6.15625 11.921875 9.109375 16.28125 
Q 12.0625 20.65625 15.3125 24.1875 
Q 18.5625 27.734375 21.734375 30.765625 
Q 24.90625 33.796875 27.46875 36.8125 
Q 30.03125 39.84375 31.609375 43.15625 
Q 33.203125 46.484375 33.203125 50.6875 
Q 33.203125 53.609375 32.46875 55.828125 
Q 31.734375 58.0625 30.390625 59.5625 
Q 29.046875 61.078125 27.140625 61.828125 
Q 25.25 62.59375 22.90625 62.59375 
Q 20.75 62.59375 18.84375 61.859375 
Q 16.9375 61.140625 15.453125 59.671875 
Q 13.96875 58.203125 13.03125 56.03125 
Q 12.109375 53.859375 11.8125 50.984375 
L 4.4375 51.8125 
Q 4.78125 55.515625 6.125 58.78125 
Q 7.46875 62.0625 9.78125 64.53125 
Q 12.109375 67 15.359375 68.40625 
Q 18.609375 69.828125 22.90625 69.828125 
Q 27.09375 69.828125 30.390625 68.609375 
Q 33.6875 67.390625 35.9375 64.984375 
Q 38.1875 62.59375 39.40625 59.078125 
Q 40.625 55.5625 40.625 50.984375 
Q 40.625 47.515625 39.59375 44.390625 
Q 38.578125 41.265625 36.859375 38.421875 
Q 35.15625 35.59375 32.90625 32.953125 
Q 30.671875 30.328125 28.21875 27.828125 
L 23.296875 22.859375 
Q 20.796875 20.359375 18.625 17.859375 
Q 16.453125 15.375 14.734375 12.8125 
Q 13.03125 10.25 12.0625 7.46875 
L 41.5 7.46875 
L 41.5 0 
z
" id="LiberationSansNarrow-50"/>
       <path d="M 42.390625 34.421875 
Q 42.390625 24.515625 40.84375 17.75 
Q 39.3125 10.984375 36.640625 6.8125 
Q 33.984375 2.640625 30.390625 0.828125 
Q 26.8125 -0.984375 22.703125 -0.984375 
Q 18.609375 -0.984375 15.03125 0.828125 
Q 11.46875 2.640625 8.828125 6.78125 
Q 6.203125 10.9375 4.703125 17.703125 
Q 3.21875 24.46875 3.21875 34.421875 
Q 3.21875 44.828125 4.703125 51.640625 
Q 6.203125 58.453125 8.828125 62.5 
Q 11.46875 66.546875 15.078125 68.1875 
Q 18.703125 69.828125 22.953125 69.828125 
Q 27 69.828125 30.53125 68.1875 
Q 34.078125 66.546875 36.71875 62.5 
Q 39.359375 58.453125 40.875 51.640625 
Q 42.390625 44.828125 42.390625 34.421875 
z
M 35.0625 34.421875 
Q 35.0625 42.625 34.28125 48.0625 
Q 33.5 53.515625 31.9375 56.765625 
Q 30.375 60.015625 28.09375 61.359375 
Q 25.828125 62.703125 22.953125 62.703125 
Q 19.921875 62.703125 17.578125 61.328125 
Q 15.234375 59.96875 13.671875 56.71875 
Q 12.109375 53.46875 11.296875 48.015625 
Q 10.5 42.578125 10.5 34.421875 
Q 10.5 26.515625 11.296875 21.09375 
Q 12.109375 15.671875 13.6875 12.375 
Q 15.28125 9.078125 17.578125 7.640625 
Q 19.875 6.203125 22.796875 6.203125 
Q 25.640625 6.203125 27.90625 7.640625 
Q 30.171875 9.078125 31.75 12.375 
Q 33.34375 15.671875 34.203125 21.09375 
Q 35.0625 26.515625 35.0625 34.421875 
z
" id="LiberationSansNarrow-48"/>
       <path d="M 42 22.515625 
Q 42 17.328125 40.828125 13 
Q 39.65625 8.6875 37.359375 5.578125 
Q 35.0625 2.484375 31.640625 0.75 
Q 28.21875 -0.984375 23.78125 -0.984375 
Q 18.84375 -0.984375 15.15625 1.3125 
Q 11.46875 3.609375 9.03125 7.921875 
Q 6.59375 12.25 5.375 18.53125 
Q 4.15625 24.8125 4.15625 32.8125 
Q 4.15625 42 5.546875 48.921875 
Q 6.9375 55.859375 9.515625 60.5 
Q 12.109375 65.140625 15.859375 67.484375 
Q 19.625 69.828125 24.359375 69.828125 
Q 27.25 69.828125 29.765625 69.09375 
Q 32.28125 68.359375 34.328125 66.71875 
Q 36.375 65.09375 37.9375 62.40625 
Q 39.5 59.71875 40.4375 55.8125 
L 33.546875 54.296875 
Q 32.421875 58.734375 29.953125 60.71875 
Q 27.484375 62.703125 24.265625 62.703125 
Q 21.296875 62.703125 18.890625 60.984375 
Q 16.5 59.28125 14.8125 55.875 
Q 13.140625 52.484375 12.234375 47.359375 
Q 11.328125 42.234375 11.328125 35.40625 
Q 13.28125 39.84375 16.84375 42.15625 
Q 20.40625 44.484375 25.046875 44.484375 
Q 28.90625 44.484375 32 42.96875 
Q 35.109375 41.453125 37.328125 38.59375 
Q 39.546875 35.75 40.765625 31.671875 
Q 42 27.59375 42 22.515625 
z
M 34.671875 22.125 
Q 34.671875 25.6875 33.953125 28.5625 
Q 33.25 31.453125 31.8125 33.46875 
Q 30.375 35.5 28.25 36.59375 
Q 26.125 37.703125 23.296875 37.703125 
Q 21.34375 37.703125 19.328125 36.984375 
Q 17.328125 36.28125 15.71875 34.6875 
Q 14.109375 33.109375 13.078125 30.515625 
Q 12.0625 27.9375 12.0625 24.21875 
Q 12.0625 20.40625 12.859375 17.109375 
Q 13.671875 13.8125 15.15625 11.375 
Q 16.65625 8.9375 18.78125 7.515625 
Q 20.90625 6.109375 23.53125 6.109375 
Q 26.125 6.109375 28.203125 7.203125 
Q 30.28125 8.296875 31.71875 10.375 
Q 33.15625 12.453125 33.90625 15.421875 
Q 34.671875 18.40625 34.671875 22.125 
z
" id="LiberationSansNarrow-54"/>
      </defs>
      <g transform="translate(51.784006 269.345625)scale(0.14 -0.14)">
       <use xlink:href="#LiberationSansNarrow-50"/>
       <use x="45.605469" xlink:href="#LiberationSansNarrow-48"/>
       <use x="91.210938" xlink:href="#LiberationSansNarrow-48"/>
       <use x="136.816406" xlink:href="#LiberationSansNarrow-54"/>
      </g>
     </g>
    </g>
    <g id="xtick_2">
     <g id="line2d_2">
      <path clip-path="url(#pea2d0e4391)" d="M 129.742869 252.2 
L 129.742869 17.64 
" style="fill:none;stroke:#b0b0b0;stroke-dasharray:1.48,0.64;stroke-dashoffset:0;stroke-width:0.4;"/>
     </g>
     <g id="text_2">
      <!-- 2008 -->
      <defs>
       <path d="M 42.046875 19.1875 
Q 42.046875 14.796875 40.890625 11.109375 
Q 39.75 7.421875 37.40625 4.734375 
Q 35.0625 2.046875 31.421875 0.53125 
Q 27.78125 -0.984375 22.796875 -0.984375 
Q 17.828125 -0.984375 14.203125 0.53125 
Q 10.59375 2.046875 8.21875 4.703125 
Q 5.859375 7.375 4.703125 11.0625 
Q 3.5625 14.75 3.5625 19.09375 
Q 3.5625 22.859375 4.515625 25.78125 
Q 5.46875 28.71875 7.03125 30.828125 
Q 8.59375 32.953125 10.609375 34.25 
Q 12.640625 35.546875 14.796875 35.984375 
L 14.796875 36.1875 
Q 12.453125 36.859375 10.59375 38.375 
Q 8.734375 39.890625 7.46875 42.015625 
Q 6.203125 44.140625 5.546875 46.71875 
Q 4.890625 49.3125 4.890625 52.203125 
Q 4.890625 55.8125 6.03125 59 
Q 7.171875 62.203125 9.421875 64.625 
Q 11.671875 67.046875 14.984375 68.4375 
Q 18.3125 69.828125 22.65625 69.828125 
Q 27.25 69.828125 30.640625 68.40625 
Q 34.03125 67 36.25 64.578125 
Q 38.484375 62.15625 39.546875 58.9375 
Q 40.625 55.71875 40.625 52.09375 
Q 40.625 49.265625 39.96875 46.671875 
Q 39.3125 44.09375 38.0625 41.96875 
Q 36.8125 39.84375 34.9375 38.34375 
Q 33.0625 36.859375 30.609375 36.28125 
L 30.609375 36.078125 
Q 33.0625 35.59375 35.15625 34.296875 
Q 37.25 33.015625 38.765625 30.890625 
Q 40.28125 28.765625 41.15625 25.828125 
Q 42.046875 22.90625 42.046875 19.1875 
z
M 33.15625 51.609375 
Q 33.15625 54.203125 32.609375 56.34375 
Q 32.078125 58.5 30.828125 60.03125 
Q 29.59375 61.578125 27.59375 62.421875 
Q 25.59375 63.28125 22.65625 63.28125 
Q 19.828125 63.28125 17.875 62.421875 
Q 15.921875 61.578125 14.640625 60.03125 
Q 13.375 58.5 12.8125 56.34375 
Q 12.25 54.203125 12.25 51.609375 
Q 12.25 49.5625 12.6875 47.40625 
Q 13.140625 45.265625 14.3125 43.5 
Q 15.484375 41.75 17.5 40.625 
Q 19.53125 39.5 22.75 39.5 
Q 26.171875 39.5 28.21875 40.625 
Q 30.28125 41.75 31.375 43.5 
Q 32.46875 45.265625 32.8125 47.40625 
Q 33.15625 49.5625 33.15625 51.609375 
z
M 34.578125 20.015625 
Q 34.578125 22.515625 34.015625 24.828125 
Q 33.453125 27.15625 32.078125 28.9375 
Q 30.71875 30.71875 28.421875 31.8125 
Q 26.125 32.90625 22.65625 32.90625 
Q 19.484375 32.90625 17.265625 31.8125 
Q 15.046875 30.71875 13.671875 28.90625 
Q 12.3125 27.09375 11.671875 24.71875 
Q 11.03125 22.359375 11.03125 19.828125 
Q 11.03125 16.65625 11.671875 14.03125 
Q 12.3125 11.421875 13.703125 9.546875 
Q 15.09375 7.671875 17.375 6.640625 
Q 19.671875 5.609375 22.90625 5.609375 
Q 26.171875 5.609375 28.421875 6.640625 
Q 30.671875 7.671875 32.03125 9.546875 
Q 33.40625 11.421875 33.984375 14.078125 
Q 34.578125 16.75 34.578125 20.015625 
z
" id="LiberationSansNarrow-56"/>
      </defs>
      <g transform="translate(116.972244 269.345625)scale(0.14 -0.14)">
       <use xlink:href="#LiberationSansNarrow-50"/>
       <use x="45.605469" xlink:href="#LiberationSansNarrow-48"/>
       <use x="91.210938" xlink:href="#LiberationSansNarrow-48"/>
       <use x="136.816406" xlink:href="#LiberationSansNarrow-56"/>
      </g>
     </g>
    </g>
    <g id="xtick_3">
     <g id="line2d_3">
      <path clip-path="url(#pea2d0e4391)" d="M 195.020406 252.2 
L 195.020406 17.64 
" style="fill:none;stroke:#b0b0b0;stroke-dasharray:1.48,0.64;stroke-dashoffset:0;stroke-width:0.4;"/>
     </g>
     <g id="text_3">
      <!-- 2010 -->
      <defs>
       <path d="M 6.25 0 
L 6.25 7.46875 
L 20.609375 7.46875 
L 20.609375 60.40625 
L 7.90625 49.3125 
L 7.90625 57.625 
L 21.234375 68.796875 
L 27.875 68.796875 
L 27.875 7.46875 
L 41.609375 7.46875 
L 41.609375 0 
z
" id="LiberationSansNarrow-49"/>
      </defs>
      <g transform="translate(182.249781 269.345625)scale(0.14 -0.14)">
       <use xlink:href="#LiberationSansNarrow-50"/>
       <use x="45.605469" xlink:href="#LiberationSansNarrow-48"/>
       <use x="91.210938" xlink:href="#LiberationSansNarrow-49"/>
       <use x="136.816406" xlink:href="#LiberationSansNarrow-48"/>
      </g>
     </g>
    </g>
    <g id="xtick_4">
     <g id="line2d_4">
      <path clip-path="url(#pea2d0e4391)" d="M 260.208645 252.2 
L 260.208645 17.64 
" style="fill:none;stroke:#b0b0b0;stroke-dasharray:1.48,0.64;stroke-dashoffset:0;stroke-width:0.4;"/>
     </g>
     <g id="text_4">
      <!-- 2012 -->
      <g transform="translate(247.43802 269.345625)scale(0.14 -0.14)">
       <use xlink:href="#LiberationSansNarrow-50"/>
       <use x="45.605469" xlink:href="#LiberationSansNarrow-48"/>
       <use x="91.210938" xlink:href="#LiberationSansNarrow-49"/>
       <use x="136.816406" xlink:href="#LiberationSansNarrow-50"/>
      </g>
     </g>
    </g>
    <g id="xtick_5">
     <g id="line2d_5">
      <path clip-path="url(#pea2d0e4391)" d="M 325.486182 252.2 
L 325.486182 17.64 
" style="fill:none;stroke:#b0b0b0;stroke-dasharray:1.48,0.64;stroke-dashoffset:0;stroke-width:0.4;"/>
     </g>
     <g id="text_5">
      <!-- 2014 -->
      <defs>
       <path d="M 35.25 15.578125 
L 35.25 0 
L 28.46875 0 
L 28.46875 15.578125 
L 1.90625 15.578125 
L 1.90625 22.40625 
L 27.6875 68.796875 
L 35.25 68.796875 
L 35.25 22.515625 
L 43.21875 22.515625 
L 43.21875 15.578125 
z
M 28.46875 58.890625 
Q 28.375 58.640625 28.03125 57.90625 
L 27.34375 56.34375 
L 26.5625 54.59375 
Q 26.125 53.65625 25.78125 53.078125 
L 11.328125 27.09375 
Q 11.140625 26.703125 10.75 26.078125 
L 9.96875 24.8125 
L 9.1875 23.484375 
Q 8.796875 22.859375 8.546875 22.515625 
L 28.46875 22.515625 
z
" id="LiberationSansNarrow-52"/>
      </defs>
      <g transform="translate(312.715557 269.345625)scale(0.14 -0.14)">
       <use xlink:href="#LiberationSansNarrow-50"/>
       <use x="45.605469" xlink:href="#LiberationSansNarrow-48"/>
       <use x="91.210938" xlink:href="#LiberationSansNarrow-49"/>
       <use x="136.816406" xlink:href="#LiberationSansNarrow-52"/>
      </g>
     </g>
    </g>
    <g id="xtick_6">
     <g id="line2d_6">
      <path clip-path="url(#pea2d0e4391)" d="M 390.67442 252.2 
L 390.67442 17.64 
" style="fill:none;stroke:#b0b0b0;stroke-dasharray:1.48,0.64;stroke-dashoffset:0;stroke-width:0.4;"/>
     </g>
     <g id="text_6">
      <!-- 2016 -->
      <g transform="translate(377.903795 269.345625)scale(0.14 -0.14)">
       <use xlink:href="#LiberationSansNarrow-50"/>
       <use x="45.605469" xlink:href="#LiberationSansNarrow-48"/>
       <use x="91.210938" xlink:href="#LiberationSansNarrow-49"/>
       <use x="136.816406" xlink:href="#LiberationSansNarrow-54"/>
      </g>
     </g>
    </g>
    <g id="xtick_7">
     <g id="line2d_7">
      <path clip-path="url(#pea2d0e4391)" d="M 455.951957 252.2 
L 455.951957 17.64 
" style="fill:none;stroke:#b0b0b0;stroke-dasharray:1.48,0.64;stroke-dashoffset:0;stroke-width:0.4;"/>
     </g>
     <g id="text_7">
      <!-- 2018 -->
      <g transform="translate(443.181332 269.345625)scale(0.14 -0.14)">
       <use xlink:href="#LiberationSansNarrow-50"/>
       <use x="45.605469" xlink:href="#LiberationSansNarrow-48"/>
       <use x="91.210938" xlink:href="#LiberationSansNarrow-49"/>
       <use x="136.816406" xlink:href="#LiberationSansNarrow-56"/>
      </g>
     </g>
    </g>
    <g id="xtick_8">
     <g id="line2d_8">
      <path clip-path="url(#pea2d0e4391)" d="M 521.140195 252.2 
L 521.140195 17.64 
" style="fill:none;stroke:#b0b0b0;stroke-dasharray:1.48,0.64;stroke-dashoffset:0;stroke-width:0.4;"/>
     </g>
     <g id="text_8">
      <!-- 2020 -->
      <g transform="translate(508.36957 269.345625)scale(0.14 -0.14)">
       <use xlink:href="#LiberationSansNarrow-50"/>
       <use x="45.605469" xlink:href="#LiberationSansNarrow-48"/>
       <use x="91.210938" xlink:href="#LiberationSansNarrow-50"/>
       <use x="136.816406" xlink:href="#LiberationSansNarrow-48"/>
      </g>
     </g>
    </g>
   </g>
   <g id="matplotlib.axis_2">
    <g id="ytick_1">
     <g id="line2d_9">
      <path clip-path="url(#pea2d0e4391)" d="M 38.14 225.684543 
L 558.36 225.684543 
" style="fill:none;stroke:#b0b0b0;stroke-dasharray:1.48,0.64;stroke-dashoffset:0;stroke-width:0.4;"/>
     </g>
     <g id="text_9">
      <!-- 0.8 -->
      <defs>
       <path d="M 7.46875 0 
L 7.46875 10.6875 
L 15.328125 10.6875 
L 15.328125 0 
z
" id="LiberationSansNarrow-46"/>
      </defs>
      <g transform="translate(15.177812 230.757355)scale(0.14 -0.14)">
       <use xlink:href="#LiberationSansNarrow-48"/>
       <use x="45.605469" xlink:href="#LiberationSansNarrow-46"/>
       <use x="68.408203" xlink:href="#LiberationSansNarrow-56"/>
      </g>
     </g>
    </g>
    <g id="ytick_2">
     <g id="line2d_10">
      <path clip-path="url(#pea2d0e4391)" d="M 38.14 195.166169 
L 558.36 195.166169 
" style="fill:none;stroke:#b0b0b0;stroke-dasharray:1.48,0.64;stroke-dashoffset:0;stroke-width:0.4;"/>
     </g>
     <g id="text_10">
      <!-- 0.9 -->
      <defs>
       <path d="M 41.703125 35.796875 
Q 41.703125 26.609375 40.28125 19.703125 
Q 38.875 12.796875 36.234375 8.203125 
Q 33.59375 3.609375 29.8125 1.3125 
Q 26.03125 -0.984375 21.296875 -0.984375 
Q 18.0625 -0.984375 15.453125 -0.171875 
Q 12.84375 0.640625 10.8125 2.34375 
Q 8.796875 4.046875 7.328125 6.78125 
Q 5.859375 9.515625 4.984375 13.375 
L 11.921875 14.703125 
Q 13.03125 10.25 15.40625 8.171875 
Q 17.78125 6.109375 21.4375 6.109375 
Q 24.359375 6.109375 26.78125 7.78125 
Q 29.203125 9.46875 30.875 12.84375 
Q 32.5625 16.21875 33.546875 21.296875 
Q 34.46875 26.375 34.578125 33.203125 
Q 33.734375 30.90625 32.265625 29.09375 
Q 30.8125 27.296875 28.953125 26.046875 
Q 27.09375 24.8125 24.9375 24.140625 
Q 22.796875 23.484375 20.5625 23.484375 
Q 16.703125 23.484375 13.625 25.171875 
Q 10.546875 26.859375 8.375 29.875 
Q 6.203125 32.90625 5.03125 37.171875 
Q 3.859375 41.453125 3.859375 46.6875 
Q 3.859375 52 5.09375 56.296875 
Q 6.34375 60.59375 8.765625 63.59375 
Q 11.1875 66.609375 14.671875 68.21875 
Q 18.171875 69.828125 22.609375 69.828125 
Q 32.03125 69.828125 36.859375 61.328125 
Q 41.703125 52.828125 41.703125 35.796875 
z
M 33.890625 44.28125 
Q 33.890625 48.09375 33.125 51.453125 
Q 32.375 54.828125 30.9375 57.3125 
Q 29.5 59.8125 27.34375 61.25 
Q 25.203125 62.703125 22.359375 62.703125 
Q 19.78125 62.703125 17.703125 61.578125 
Q 15.625 60.453125 14.1875 58.375 
Q 12.75 56.296875 11.96875 53.3125 
Q 11.1875 50.34375 11.1875 46.6875 
Q 11.1875 43.21875 11.859375 40.234375 
Q 12.546875 37.25 13.953125 35.078125 
Q 15.375 32.90625 17.453125 31.65625 
Q 19.53125 30.421875 22.3125 30.421875 
Q 24.3125 30.421875 26.359375 31.25 
Q 28.421875 32.078125 30.078125 33.78125 
Q 31.734375 35.5 32.8125 38.109375 
Q 33.890625 40.71875 33.890625 44.28125 
z
" id="LiberationSansNarrow-57"/>
      </defs>
      <g transform="translate(15.177812 200.238982)scale(0.14 -0.14)">
       <use xlink:href="#LiberationSansNarrow-48"/>
       <use x="45.605469" xlink:href="#LiberationSansNarrow-46"/>
       <use x="68.408203" xlink:href="#LiberationSansNarrow-57"/>
      </g>
     </g>
    </g>
    <g id="ytick_3">
     <g id="line2d_11">
      <path clip-path="url(#pea2d0e4391)" d="M 38.14 164.647796 
L 558.36 164.647796 
" style="fill:none;stroke:#b0b0b0;stroke-dasharray:1.48,0.64;stroke-dashoffset:0;stroke-width:0.4;"/>
     </g>
     <g id="text_11">
      <!-- 1.0 -->
      <g transform="translate(15.177812 169.720608)scale(0.14 -0.14)">
       <use xlink:href="#LiberationSansNarrow-49"/>
       <use x="45.605469" xlink:href="#LiberationSansNarrow-46"/>
       <use x="68.408203" xlink:href="#LiberationSansNarrow-48"/>
      </g>
     </g>
    </g>
    <g id="ytick_4">
     <g id="line2d_12">
      <path clip-path="url(#pea2d0e4391)" d="M 38.14 134.129423 
L 558.36 134.129423 
" style="fill:none;stroke:#b0b0b0;stroke-dasharray:1.48,0.64;stroke-dashoffset:0;stroke-width:0.4;"/>
     </g>
     <g id="text_12">
      <!-- 1.1 -->
      <g transform="translate(15.177812 139.202235)scale(0.14 -0.14)">
       <use xlink:href="#LiberationSansNarrow-49"/>
       <use x="45.605469" xlink:href="#LiberationSansNarrow-46"/>
       <use x="68.408203" xlink:href="#LiberationSansNarrow-49"/>
      </g>
     </g>
    </g>
    <g id="ytick_5">
     <g id="line2d_13">
      <path clip-path="url(#pea2d0e4391)" d="M 38.14 103.611049 
L 558.36 103.611049 
" style="fill:none;stroke:#b0b0b0;stroke-dasharray:1.48,0.64;stroke-dashoffset:0;stroke-width:0.4;"/>
     </g>
     <g id="text_13">
      <!-- 1.2 -->
      <g transform="translate(15.177812 108.683862)scale(0.14 -0.14)">
       <use xlink:href="#LiberationSansNarrow-49"/>
       <use x="45.605469" xlink:href="#LiberationSansNarrow-46"/>
       <use x="68.408203" xlink:href="#LiberationSansNarrow-50"/>
      </g>
     </g>
    </g>
    <g id="ytick_6">
     <g id="line2d_14">
      <path clip-path="url(#pea2d0e4391)" d="M 38.14 73.092676 
L 558.36 73.092676 
" style="fill:none;stroke:#b0b0b0;stroke-dasharray:1.48,0.64;stroke-dashoffset:0;stroke-width:0.4;"/>
     </g>
     <g id="text_14">
      <!-- 1.3 -->
      <defs>
       <path d="M 42 19 
Q 42 14.265625 40.75 10.546875 
Q 39.5 6.84375 37.0625 4.265625 
Q 34.625 1.703125 31.046875 0.359375 
Q 27.484375 -0.984375 22.859375 -0.984375 
Q 17.625 -0.984375 14.03125 0.609375 
Q 10.453125 2.203125 8.125 4.8125 
Q 5.8125 7.421875 4.640625 10.765625 
Q 3.46875 14.109375 3.125 17.671875 
L 10.546875 18.5 
Q 10.890625 15.765625 11.734375 13.515625 
Q 12.59375 11.28125 14.078125 9.671875 
Q 15.578125 8.0625 17.75 7.171875 
Q 19.921875 6.296875 22.859375 6.296875 
Q 28.328125 6.296875 31.421875 9.5625 
Q 34.515625 12.84375 34.515625 19.28125 
Q 34.515625 23.09375 33.125 25.40625 
Q 31.734375 27.734375 29.6875 29.03125 
Q 27.640625 30.328125 25.21875 30.765625 
Q 22.796875 31.203125 20.75 31.203125 
L 16.65625 31.203125 
L 16.65625 38.8125 
L 20.5625 38.8125 
Q 22.609375 38.8125 24.828125 39.328125 
Q 27.046875 39.84375 28.859375 41.1875 
Q 30.671875 42.53125 31.859375 44.828125 
Q 33.0625 47.125 33.0625 50.6875 
Q 33.0625 56.203125 30.375 59.390625 
Q 27.6875 62.59375 22.46875 62.59375 
Q 17.671875 62.59375 14.734375 59.609375 
Q 11.8125 56.640625 11.328125 51.21875 
L 4.109375 51.90625 
Q 4.546875 56.453125 6.125 59.8125 
Q 7.71875 63.1875 10.171875 65.40625 
Q 12.640625 67.625 15.8125 68.71875 
Q 19 69.828125 22.5625 69.828125 
Q 27.296875 69.828125 30.6875 68.375 
Q 34.078125 66.9375 36.21875 64.46875 
Q 38.375 62.015625 39.40625 58.6875 
Q 40.4375 55.375 40.4375 51.609375 
Q 40.4375 48.578125 39.75 45.9375 
Q 39.0625 43.3125 37.625 41.203125 
Q 36.1875 39.109375 33.953125 37.59375 
Q 31.734375 36.078125 28.609375 35.296875 
L 28.609375 35.109375 
Q 32.03125 34.671875 34.546875 33.21875 
Q 37.0625 31.78125 38.71875 29.625 
Q 40.375 27.484375 41.1875 24.75 
Q 42 22.015625 42 19 
z
" id="LiberationSansNarrow-51"/>
      </defs>
      <g transform="translate(15.177812 78.165488)scale(0.14 -0.14)">
       <use xlink:href="#LiberationSansNarrow-49"/>
       <use x="45.605469" xlink:href="#LiberationSansNarrow-46"/>
       <use x="68.408203" xlink:href="#LiberationSansNarrow-51"/>
      </g>
     </g>
    </g>
    <g id="ytick_7">
     <g id="line2d_15">
      <path clip-path="url(#pea2d0e4391)" d="M 38.14 42.574302 
L 558.36 42.574302 
" style="fill:none;stroke:#b0b0b0;stroke-dasharray:1.48,0.64;stroke-dashoffset:0;stroke-width:0.4;"/>
     </g>
     <g id="text_15">
      <!-- 1.4 -->
      <g transform="translate(15.177812 47.647115)scale(0.14 -0.14)">
       <use xlink:href="#LiberationSansNarrow-49"/>
       <use x="45.605469" xlink:href="#LiberationSansNarrow-46"/>
       <use x="68.408203" xlink:href="#LiberationSansNarrow-52"/>
      </g>
     </g>
    </g>
   </g>
   <g id="line2d_16">
    <path clip-path="url(#pea2d0e4391)" d="M 61.786364 173.111538 
L 64.554631 168.309892 
L 67.322899 169.59028 
L 69.82327 169.641627 
L 72.591537 169.015481 
L 75.270506 174.517813 
L 78.038774 163.365283 
L 80.717742 164.647796 
L 83.48601 164.955727 
L 86.254278 166.509647 
L 88.933246 166.092671 
L 91.701514 165.179197 
L 94.380483 170.189119 
L 97.14875 167.344349 
L 99.917018 177.637642 
L 102.417389 166.574177 
L 105.185656 164.395701 
L 107.864625 163.282126 
L 110.632893 167.516707 
L 113.311861 177.033487 
L 116.080129 160.86661 
L 118.848397 158.637385 
L 121.527365 159.794696 
L 124.295633 155.772616 
L 126.974602 157.943006 
L 129.742869 154.555317 
L 132.511137 154.386153 
L 135.100807 147.111949 
L 137.869074 145.516587 
L 140.548043 145.717175 
L 143.316311 150.944171 
L 145.995279 136.452659 
L 148.763547 136.879849 
L 151.531815 147.701836 
L 154.210783 127.056911 
L 156.979051 114.655115 
L 159.65802 106.376363 
L 162.426287 124.938015 
L 165.194555 133.824754 
L 167.694926 85.115963 
L 170.463193 100.720374 
L 173.142162 104.680768 
L 175.91043 111.474188 
L 178.589399 93.542881 
L 181.357666 114.445367 
L 184.125934 114.533468 
L 186.804902 123.41303 
L 189.57317 110.452336 
L 192.252139 111.092377 
L 195.020406 130.012963 
L 197.788674 107.721016 
L 200.289045 109.196693 
L 203.057313 115.877566 
L 205.736281 123.880171 
L 208.504549 130.826621 
L 211.183518 106.928688 
L 213.951785 123.998728 
L 216.720053 103.062292 
L 219.399022 103.758025 
L 222.167289 109.014958 
L 224.846258 103.847404 
L 227.614526 110.723097 
L 230.382793 112.019478 
L 232.883164 104.996358 
L 235.651432 100.616893 
L 238.3304 105.2426 
L 241.098668 94.681359 
L 243.777637 110.267378 
L 246.545904 88.120403 
L 249.314172 111.369183 
L 251.993141 84.862043 
L 254.761408 90.990077 
L 257.440377 95.121705 
L 260.208645 93.779322 
L 265.566582 92.290049 
L 268.33485 94.607972 
L 271.013818 105.452953 
L 273.782086 87.020511 
L 276.461055 94.69636 
L 279.229322 98.761172 
L 281.99759 103.600833 
L 284.676559 111.440512 
L 287.444826 99.363464 
L 290.123795 107.770849 
L 292.892063 108.189059 
L 295.66033 112.340127 
L 298.160701 108.595641 
L 300.928969 107.26354 
L 303.607937 114.635534 
L 306.376205 118.494068 
L 309.055174 112.561397 
L 311.823441 120.916017 
L 314.591709 113.897137 
L 317.270678 105.00395 
L 320.038945 106.061073 
L 322.717914 102.23635 
L 325.486182 123.824348 
L 328.254449 106.438924 
L 330.75482 113.281143 
L 333.523088 108.169476 
L 336.202056 106.223733 
L 338.970324 111.079007 
L 341.649293 119.800293 
L 344.41756 102.837771 
L 347.185828 115.600772 
L 349.864797 97.134151 
L 352.633064 102.835353 
L 355.312033 109.454942 
L 358.080301 112.012431 
L 360.848568 100.770348 
L 363.348939 107.141096 
L 366.117207 106.816269 
L 368.796176 106.852711 
L 371.564443 112.086812 
L 374.243412 105.933734 
L 377.011679 118.526361 
L 379.779947 110.447497 
L 382.458916 97.522894 
L 385.227183 107.591387 
L 387.906152 111.357453 
L 390.67442 107.224363 
L 393.442687 101.903981 
L 396.032357 99.04479 
L 398.800625 112.537714 
L 401.479594 104.819643 
L 404.247861 108.204663 
L 406.92683 103.367246 
L 409.695098 108.29204 
L 412.463365 105.358163 
L 415.142334 113.545064 
L 417.910601 103.589061 
L 420.58957 112.59768 
L 423.357838 108.648029 
L 426.126105 103.321595 
L 428.626476 106.599714 
L 431.394744 99.895026 
L 434.073713 98.16113 
L 436.84198 104.797913 
L 439.520949 101.902513 
L 442.289217 99.4394 
L 445.057484 99.09084 
L 447.736453 98.209043 
L 450.504721 87.638729 
L 453.183689 92.446773 
L 455.951957 87.743144 
L 458.720225 88.311191 
L 461.220595 97.483314 
L 463.988863 89.179804 
L 466.667832 85.456478 
L 469.436099 89.423874 
L 474.883336 70.644751 
L 477.651603 73.946644 
L 480.330572 89.684333 
L 483.09884 75.884936 
L 485.777808 89.938219 
L 488.546076 69.277298 
L 491.314344 75.560839 
L 493.814714 73.237435 
L 496.582982 71.915815 
L 499.261951 92.60297 
L 502.030218 69.858427 
L 504.709187 77.942151 
L 507.477455 68.664021 
L 510.245722 76.121523 
L 512.924691 64.865592 
L 515.692959 67.287771 
L 518.371927 63.360287 
L 521.140195 72.829381 
L 523.908463 104.127043 
L 529.2664 28.301818 
L 531.945369 30.37615 
L 534.713636 40.065551 
L 534.713636 40.065551 
" style="fill:none;stroke:#1f77b4;stroke-linecap:square;stroke-width:1.2;"/>
   </g>
   <g id="line2d_17">
    <path clip-path="url(#pea2d0e4391)" d="M 61.786364 152.318268 
L 64.554631 129.469998 
L 67.322899 141.297177 
L 69.82327 132.993724 
L 72.591537 127.457162 
L 75.270506 149.972969 
L 78.038774 143.156539 
L 80.717742 164.647796 
L 83.48601 178.736596 
L 86.254278 177.680569 
L 88.933246 174.426996 
L 91.701514 182.086079 
L 94.380483 179.231122 
L 97.14875 169.495058 
L 99.917018 177.238746 
L 102.417389 164.352193 
L 105.185656 162.092492 
L 107.864625 168.130464 
L 110.632893 173.386944 
L 113.311861 186.318189 
L 116.080129 171.089606 
L 118.848397 158.102989 
L 121.527365 152.655091 
L 124.295633 157.079991 
L 126.974602 150.646224 
L 129.742869 177.066147 
L 132.511137 175.20985 
L 135.100807 170.897586 
L 137.869074 162.901024 
L 140.548043 161.633923 
L 143.316311 153.195946 
L 145.995279 142.842252 
L 148.763547 154.857953 
L 151.531815 190.163572 
L 154.210783 181.944679 
L 156.979051 191.85935 
L 159.65802 188.342244 
L 162.426287 191.162679 
L 165.194555 198.924649 
L 167.694926 172.86037 
L 170.463193 192.448526 
L 173.142162 209.754938 
L 175.91043 215.155671 
L 178.589399 201.60406 
L 181.357666 222.9429 
L 184.125934 223.028506 
L 186.804902 238.342981 
L 189.57317 233.746185 
L 192.252139 225.82997 
L 195.020406 241.538182 
L 197.788674 228.09154 
L 200.289045 223.086258 
L 203.057313 225.163046 
L 205.736281 220.091537 
L 208.504549 226.368599 
L 211.183518 209.844036 
L 213.951785 222.154508 
L 216.720053 207.970136 
L 219.399022 211.121446 
L 222.167289 215.433075 
L 224.846258 213.481874 
L 227.614526 219.288716 
L 230.382793 218.136177 
L 232.883164 213.490338 
L 235.651432 209.638803 
L 238.3304 211.524354 
L 241.098668 205.377066 
L 243.777637 219.679203 
L 246.545904 202.263077 
L 249.314172 216.08721 
L 251.993141 197.037811 
L 257.440377 202.655906 
L 260.208645 203.428373 
L 262.976912 207.418177 
L 265.566582 207.963286 
L 268.33485 207.486909 
L 271.013818 209.543386 
L 273.782086 202.405376 
L 276.461055 204.405726 
L 279.229322 208.383372 
L 281.99759 213.107766 
L 284.676559 213.379494 
L 287.444826 202.504197 
L 290.123795 208.702989 
L 292.892063 204.388868 
L 295.66033 206.685279 
L 298.160701 203.599624 
L 300.928969 199.260111 
L 303.607937 206.614614 
L 306.376205 208.473591 
L 309.055174 200.857359 
L 311.823441 210.497224 
L 314.591709 206.251966 
L 317.270678 198.904558 
L 320.038945 202.325076 
L 322.717914 202.406078 
L 325.486182 214.386135 
L 328.254449 201.909727 
L 330.75482 206.471612 
L 333.523088 203.701848 
L 336.202056 202.580086 
L 338.970324 209.160589 
L 341.649293 219.428021 
L 344.41756 207.608516 
L 347.185828 213.736178 
L 349.864797 195.101722 
L 352.633064 200.32111 
L 355.312033 201.907134 
L 358.080301 204.816648 
L 360.848568 199.591914 
L 366.117207 206.834583 
L 368.796176 206.252159 
L 371.564443 210.837961 
L 374.243412 202.303934 
L 377.011679 207.252602 
L 379.779947 202.024883 
L 382.458916 195.828618 
L 385.227183 201.138429 
L 387.906152 204.118612 
L 390.67442 188.923278 
L 393.442687 181.638015 
L 396.032357 181.535253 
L 398.800625 188.335432 
L 401.479594 185.420603 
L 404.247861 188.989519 
L 406.92683 188.350783 
L 409.695098 192.558003 
L 412.463365 194.940989 
L 415.142334 197.051597 
L 417.910601 190.171557 
L 420.58957 194.19492 
L 423.357838 195.588655 
L 426.126105 192.430565 
L 428.626476 196.802672 
L 431.394744 193.756303 
L 434.073713 194.616999 
L 436.84198 199.713102 
L 439.520949 198.751902 
L 442.289217 200.095416 
L 445.057484 198.548741 
L 447.736453 200.997767 
L 450.504721 195.75545 
L 453.183689 200.877517 
L 455.951957 199.875208 
L 458.720225 202.055644 
L 461.220595 209.812362 
L 463.988863 207.329106 
L 466.667832 206.279196 
L 469.436099 213.613637 
L 474.883336 203.250704 
L 477.651603 204.257407 
L 480.330572 211.878571 
L 483.09884 207.018362 
L 485.777808 215.335713 
L 488.546076 200.331468 
L 491.314344 202.36009 
L 493.814714 200.349264 
L 496.582982 200.121568 
L 499.261951 213.700962 
L 502.030218 201.105658 
L 504.709187 207.183163 
L 507.477455 202.008711 
L 510.245722 206.255021 
L 512.924691 198.568582 
L 515.692959 201.393911 
L 518.371927 200.045192 
L 521.140195 210.149193 
L 523.908463 231.885352 
L 526.498132 205.436236 
L 529.2664 183.441061 
L 531.945369 185.277866 
L 534.713636 202.212523 
L 534.713636 202.212523 
" style="fill:none;stroke:#ff7f0e;stroke-linecap:square;stroke-opacity:0.7;"/>
   </g>
   <g id="line2d_18">
    <path clip-path="url(#pea2d0e4391)" d="M 61.786364 179.614919 
L 64.554631 174.821155 
L 67.322899 173.325131 
L 69.82327 174.468774 
L 72.591537 171.690528 
L 75.270506 175.29032 
L 78.038774 165.74895 
L 80.717742 164.647796 
L 83.48601 165.355208 
L 86.254278 166.22212 
L 91.701514 166.632548 
L 94.380483 168.600472 
L 97.14875 163.665095 
L 99.917018 173.011057 
L 102.417389 162.665391 
L 105.185656 162.904494 
L 107.864625 163.600011 
L 110.632893 169.013873 
L 113.311861 183.052536 
L 116.080129 168.009567 
L 118.848397 168.600853 
L 121.527365 173.289186 
L 124.295633 172.121685 
L 126.974602 182.681568 
L 129.742869 174.883171 
L 132.511137 179.886893 
L 135.100807 177.96013 
L 137.869074 176.076225 
L 140.548043 183.418245 
L 143.316311 205.413233 
L 145.995279 184.98657 
L 148.763547 185.282114 
L 151.531815 197.656329 
L 154.210783 189.40432 
L 156.979051 189.357755 
L 159.65802 187.121131 
L 162.426287 210.602907 
L 165.194555 225.011196 
L 167.694926 188.772332 
L 170.463193 171.100822 
L 173.142162 163.697226 
L 175.91043 177.941826 
L 178.589399 147.896728 
L 181.357666 142.379631 
L 184.125934 142.914802 
L 186.804902 168.739854 
L 189.57317 157.497744 
L 192.252139 160.111534 
L 195.020406 170.791648 
L 197.788674 148.535091 
L 200.289045 144.856518 
L 203.057313 149.037939 
L 205.736281 157.462324 
L 208.504549 166.578058 
L 211.183518 142.432461 
L 213.951785 161.514318 
L 216.720053 146.379062 
L 219.399022 148.4433 
L 222.167289 156.317215 
L 224.846258 145.083482 
L 227.614526 146.304816 
L 230.382793 145.905026 
L 232.883164 142.54247 
L 235.651432 139.886594 
L 238.3304 146.099618 
L 241.098668 142.197819 
L 243.777637 161.028426 
L 246.545904 146.154459 
L 249.314172 169.385806 
L 251.993141 143.441823 
L 254.761408 151.473956 
L 257.440377 153.341249 
L 260.208645 153.219029 
L 265.566582 155.26894 
L 268.33485 158.268924 
L 271.013818 168.310224 
L 273.782086 153.037713 
L 276.461055 158.013007 
L 279.229322 161.136759 
L 281.99759 162.45487 
L 284.676559 161.451489 
L 287.444826 151.317269 
L 290.123795 153.549638 
L 292.892063 145.375885 
L 295.66033 147.994304 
L 298.160701 143.443477 
L 300.928969 141.062119 
L 303.607937 146.646809 
L 306.376205 149.364911 
L 309.055174 139.948184 
L 311.823441 152.112474 
L 314.591709 147.317803 
L 317.270678 138.344515 
L 320.038945 140.842559 
L 322.717914 139.523994 
L 325.486182 153.470646 
L 328.254449 139.369924 
L 330.75482 142.762262 
L 333.523088 139.474193 
L 336.202056 139.093725 
L 338.970324 143.400518 
L 341.649293 152.156018 
L 344.41756 138.617314 
L 347.185828 152.880325 
L 349.864797 136.365121 
L 352.633064 147.544486 
L 355.312033 150.242685 
L 358.080301 156.841115 
L 360.848568 149.096257 
L 363.348939 154.25627 
L 366.117207 151.981436 
L 368.796176 153.024692 
L 371.564443 159.880363 
L 374.243412 156.60362 
L 377.011679 167.352803 
L 379.779947 163.998489 
L 382.458916 152.546508 
L 385.227183 160.794819 
L 387.906152 166.53837 
L 390.67442 159.604713 
L 393.442687 156.983127 
L 396.032357 156.12679 
L 398.800625 156.569398 
L 401.479594 153.838415 
L 404.247861 157.76144 
L 406.92683 156.519712 
L 409.695098 158.511529 
L 412.463365 158.273914 
L 415.142334 161.222986 
L 417.910601 143.287192 
L 420.58957 151.561731 
L 423.357838 150.606326 
L 426.126105 149.078092 
L 428.626476 157.611366 
L 431.394744 156.411863 
L 434.073713 161.510661 
L 436.84198 164.829653 
L 439.520949 161.216592 
L 442.289217 164.091535 
L 445.057484 161.115167 
L 447.736453 163.59532 
L 450.504721 158.563498 
L 453.183689 163.404685 
L 455.951957 163.477969 
L 458.720225 169.585842 
L 461.220595 176.518077 
L 463.988863 168.160522 
L 466.667832 169.65204 
L 469.436099 176.101172 
L 472.115068 168.576879 
L 474.883336 169.990569 
L 480.330572 180.720833 
L 483.09884 169.85888 
L 485.777808 185.230617 
L 488.546076 164.997607 
L 491.314344 173.302921 
L 493.814714 178.50984 
L 496.582982 177.054151 
L 499.261951 194.323406 
L 502.030218 179.339685 
L 504.709187 185.210197 
L 510.245722 185.138689 
L 512.924691 178.59758 
L 515.692959 181.799782 
L 518.371927 182.20586 
L 521.140195 195.743548 
L 523.908463 222.078771 
L 526.498132 218.225345 
L 529.2664 195.688337 
L 531.945369 200.687368 
L 534.713636 216.993809 
L 534.713636 216.993809 
" style="fill:none;stroke:#2ca02c;stroke-linecap:square;stroke-opacity:0.7;"/>
   </g>
   <g id="line2d_19">
    <path clip-path="url(#pea2d0e4391)" d="M 80.717742 164.647796 
L 83.48601 170.013151 
L 86.254278 171.803743 
L 88.933246 169.842264 
L 91.701514 163.47402 
L 94.380483 175.255543 
L 97.14875 168.814107 
L 99.917018 175.902137 
L 102.417389 166.973779 
L 105.185656 160.711407 
L 107.864625 155.035002 
L 110.632893 163.073046 
L 113.311861 173.389385 
L 116.080129 159.230417 
L 118.848397 163.983957 
L 121.527365 162.762302 
L 124.295633 158.138998 
L 126.974602 164.35688 
L 129.742869 160.652142 
L 132.511137 156.019991 
L 135.100807 154.937879 
L 137.869074 156.32504 
L 140.548043 151.286023 
L 143.316311 161.834707 
L 145.995279 153.807591 
L 148.763547 154.816361 
L 151.531815 177.726657 
L 154.210783 169.663113 
L 156.979051 165.693252 
L 159.65802 156.418999 
L 162.426287 166.257584 
L 165.194555 175.294445 
L 167.694926 130.659555 
L 170.463193 130.890833 
L 173.142162 123.295857 
L 175.91043 139.28479 
L 178.589399 119.441446 
L 181.357666 140.275125 
L 184.125934 134.280607 
L 186.804902 145.577306 
L 189.57317 129.842558 
L 192.252139 132.131313 
L 195.020406 142.211171 
L 197.788674 125.854576 
L 200.289045 127.011317 
L 203.057313 138.642167 
L 205.736281 148.634559 
L 208.504549 155.017502 
L 211.183518 129.619345 
L 213.951785 149.585515 
L 216.720053 127.043063 
L 219.399022 126.590222 
L 222.167289 137.677765 
L 224.846258 133.267435 
L 227.614526 131.924717 
L 230.382793 128.087007 
L 232.883164 122.000902 
L 235.651432 116.377225 
L 238.3304 125.249142 
L 241.098668 121.646486 
L 243.777637 141.304741 
L 246.545904 128.319636 
L 249.314172 159.814211 
L 251.993141 125.444183 
L 254.761408 144.928262 
L 257.440377 150.787423 
L 260.208645 132.594889 
L 262.976912 129.680112 
L 265.566582 134.742186 
L 268.33485 144.107812 
L 271.013818 167.172881 
L 273.782086 164.338258 
L 276.461055 158.741628 
L 279.229322 154.503087 
L 281.99759 156.055432 
L 284.676559 155.953946 
L 287.444826 152.155933 
L 290.123795 151.640256 
L 292.892063 132.615403 
L 295.66033 142.968075 
L 298.160701 140.221261 
L 300.928969 143.34523 
L 303.607937 135.94423 
L 306.376205 141.399834 
L 309.055174 134.697854 
L 311.823441 146.898553 
L 314.591709 140.248737 
L 317.270678 128.425946 
L 320.038945 129.687472 
L 322.717914 130.767835 
L 325.486182 144.855619 
L 328.254449 131.226751 
L 330.75482 138.160086 
L 333.523088 135.761336 
L 336.202056 134.261853 
L 338.970324 140.836397 
L 341.649293 152.628155 
L 344.41756 139.598052 
L 347.185828 146.28268 
L 349.864797 125.65482 
L 352.633064 129.315707 
L 355.312033 132.170894 
L 358.080301 135.49503 
L 360.848568 127.194764 
L 363.348939 132.549962 
L 366.117207 139.925255 
L 368.796176 135.714049 
L 371.564443 143.347324 
L 374.243412 132.320943 
L 377.011679 145.774302 
L 379.779947 135.149583 
L 382.458916 123.745591 
L 385.227183 133.609267 
L 387.906152 132.95004 
L 390.67442 121.069927 
L 393.442687 114.293071 
L 396.032357 117.58974 
L 398.800625 125.895241 
L 401.479594 122.657739 
L 404.247861 125.283816 
L 406.92683 127.251737 
L 409.695098 132.562145 
L 412.463365 134.338292 
L 415.142334 139.509275 
L 417.910601 132.36411 
L 420.58957 143.096036 
L 423.357838 140.065308 
L 426.126105 134.598465 
L 428.626476 138.086334 
L 431.394744 127.77842 
L 434.073713 124.547653 
L 436.84198 134.041513 
L 439.520949 130.953383 
L 442.289217 128.797988 
L 445.057484 129.243175 
L 447.736453 126.128062 
L 450.504721 118.321062 
L 453.183689 127.504431 
L 455.951957 126.089879 
L 458.720225 125.263748 
L 461.220595 135.73034 
L 463.988863 132.023982 
L 466.667832 130.863071 
L 469.436099 139.109692 
L 472.115068 130.431684 
L 474.883336 129.203983 
L 477.651603 131.218215 
L 480.330572 138.963331 
L 483.09884 124.126077 
L 485.777808 136.369366 
L 488.546076 119.309121 
L 491.314344 124.955774 
L 493.814714 128.325513 
L 496.582982 128.216425 
L 499.261951 140.292635 
L 502.030218 124.102872 
L 504.709187 132.31706 
L 507.477455 123.16998 
L 510.245722 133.548752 
L 512.924691 128.177709 
L 515.692959 130.615335 
L 518.371927 134.458904 
L 521.140195 142.227785 
L 523.908463 168.438448 
L 526.498132 139.587378 
L 529.2664 117.34337 
L 531.945369 116.845608 
L 534.713636 138.812059 
L 534.713636 138.812059 
" style="fill:none;stroke:#d62728;stroke-linecap:square;stroke-opacity:0.7;"/>
   </g>
   <g id="legend_1">
    <g id="patch_3">
     <path d="M 46.3034 57.458441 
L 243.438577 57.458441 
Q 245.770977 57.458441 245.770977 55.126041 
L 245.770977 25.8034 
Q 245.770977 23.471 243.438577 23.471 
L 46.3034 23.471 
Q 43.971 23.471 43.971 25.8034 
L 43.971 55.126041 
Q 43.971 57.458441 46.3034 57.458441 
z
" style="fill:#ffffff;opacity:0.8;stroke:#cccccc;stroke-linejoin:miter;"/>
    </g>
    <g id="line2d_20">
     <path d="M 48.6358 32.505406 
L 71.9598 32.505406 
" style="fill:none;stroke:#1f77b4;stroke-linecap:square;stroke-width:1.2;"/>
    </g>
    <g id="line2d_21"/>
    <g id="text_16">
     <!-- Hop -->
     <defs>
      <path d="M 44.875 0 
L 44.875 31.890625 
L 14.359375 31.890625 
L 14.359375 0 
L 6.734375 0 
L 6.734375 68.796875 
L 14.359375 68.796875 
L 14.359375 39.703125 
L 44.875 39.703125 
L 44.875 68.796875 
L 52.484375 68.796875 
L 52.484375 0 
z
" id="LiberationSansNarrow-72"/>
      <path d="M 42.140625 26.46875 
Q 42.140625 12.59375 37.125 5.796875 
Q 32.125 -0.984375 22.609375 -0.984375 
Q 18.0625 -0.984375 14.515625 0.671875 
Q 10.984375 2.34375 8.515625 5.765625 
Q 6.0625 9.1875 4.765625 14.328125 
Q 3.46875 19.484375 3.46875 26.46875 
Q 3.46875 53.8125 22.859375 53.8125 
Q 27.875 53.8125 31.5625 52.09375 
Q 35.25 50.390625 37.59375 46.96875 
Q 39.9375 43.5625 41.03125 38.421875 
Q 42.140625 33.296875 42.140625 26.46875 
z
M 34.578125 26.46875 
Q 34.578125 32.625 33.8125 36.625 
Q 33.0625 40.625 31.546875 43.015625 
Q 30.03125 45.40625 27.859375 46.359375 
Q 25.6875 47.3125 23 47.3125 
Q 20.21875 47.3125 17.984375 46.3125 
Q 15.765625 45.3125 14.203125 42.890625 
Q 12.640625 40.484375 11.828125 36.46875 
Q 11.03125 32.46875 11.03125 26.46875 
Q 11.03125 20.3125 11.90625 16.28125 
Q 12.796875 12.25 14.328125 9.859375 
Q 15.875 7.46875 17.96875 6.484375 
Q 20.0625 5.515625 22.5625 5.515625 
Q 25.34375 5.515625 27.5625 6.46875 
Q 29.78125 7.421875 31.34375 9.8125 
Q 32.90625 12.203125 33.734375 16.25 
Q 34.578125 20.3125 34.578125 26.46875 
z
" id="LiberationSansNarrow-111"/>
      <path d="M 42.140625 26.65625 
Q 42.140625 20.65625 41.359375 15.578125 
Q 40.578125 10.5 38.6875 6.828125 
Q 36.8125 3.171875 33.765625 1.09375 
Q 30.71875 -0.984375 26.21875 -0.984375 
Q 21.578125 -0.984375 18.078125 1.171875 
Q 14.59375 3.328125 12.796875 8.203125 
L 12.546875 8.203125 
Q 12.59375 8.109375 12.609375 7.328125 
Q 12.640625 6.546875 12.671875 5.375 
Q 12.703125 4.203125 12.71875 2.75 
Q 12.75 1.3125 12.75 -0.09375 
L 12.75 -20.75 
L 5.515625 -20.75 
L 5.515625 42.046875 
Q 5.515625 43.953125 5.484375 45.703125 
Q 5.46875 47.46875 5.4375 48.90625 
Q 5.421875 50.34375 5.375 51.359375 
Q 5.328125 52.390625 5.28125 52.828125 
L 12.25 52.828125 
Q 12.3125 52.6875 12.359375 51.8125 
L 12.5 49.703125 
Q 12.546875 48.4375 12.59375 47.015625 
Q 12.640625 45.609375 12.640625 44.34375 
L 12.796875 44.34375 
Q 13.765625 46.875 15.0625 48.65625 
Q 16.359375 50.4375 18.015625 51.578125 
Q 19.671875 52.734375 21.671875 53.25 
Q 23.6875 53.765625 26.21875 53.765625 
Q 30.71875 53.765625 33.765625 51.8125 
Q 36.8125 49.859375 38.6875 46.3125 
Q 40.578125 42.78125 41.359375 37.765625 
Q 42.140625 32.765625 42.140625 26.65625 
z
M 34.578125 26.46875 
Q 34.578125 31.34375 34.109375 35.15625 
Q 33.640625 38.96875 32.4375 41.59375 
Q 31.25 44.234375 29.296875 45.59375 
Q 27.34375 46.96875 24.359375 46.96875 
Q 21.96875 46.96875 19.84375 46.140625 
Q 17.71875 45.3125 16.125 42.96875 
Q 14.546875 40.625 13.640625 36.5 
Q 12.75 32.375 12.75 25.78125 
Q 12.75 20.171875 13.5 16.28125 
Q 14.265625 12.40625 15.71875 10.015625 
Q 17.1875 7.625 19.328125 6.5625 
Q 21.484375 5.515625 24.3125 5.515625 
Q 27.34375 5.515625 29.296875 6.921875 
Q 31.25 8.34375 32.4375 11.03125 
Q 33.640625 13.71875 34.109375 17.59375 
Q 34.578125 21.484375 34.578125 26.46875 
z
" id="LiberationSansNarrow-112"/>
     </defs>
     <g transform="translate(81.2894 36.587106)scale(0.11662 -0.11662)">
      <use xlink:href="#LiberationSansNarrow-72"/>
      <use x="59.179688" xlink:href="#LiberationSansNarrow-111"/>
      <use x="104.785156" xlink:href="#LiberationSansNarrow-112"/>
     </g>
    </g>
    <g id="line2d_22">
     <path d="M 48.6358 46.292076 
L 71.9598 46.292076 
" style="fill:none;stroke:#ff7f0e;stroke-linecap:square;stroke-opacity:0.7;"/>
    </g>
    <g id="line2d_23"/>
    <g id="text_17">
     <!-- SPHQ -->
     <defs>
      <path d="M 50.921875 19 
Q 50.921875 14.65625 49.53125 10.984375 
Q 48.140625 7.328125 45.265625 4.65625 
Q 42.390625 2 38.015625 0.5 
Q 33.640625 -0.984375 27.640625 -0.984375 
Q 17.09375 -0.984375 11.203125 3.515625 
Q 5.328125 8.015625 3.71875 16.5 
L 11.140625 18.3125 
Q 11.671875 15.625 12.84375 13.421875 
Q 14.015625 11.234375 15.984375 9.640625 
Q 17.96875 8.0625 20.890625 7.171875 
Q 23.828125 6.296875 27.875 6.296875 
Q 31.296875 6.296875 34.15625 7 
Q 37.015625 7.71875 39.03125 9.171875 
Q 41.0625 10.640625 42.203125 12.953125 
Q 43.359375 15.28125 43.359375 18.5 
Q 43.359375 21.875 42.09375 23.96875 
Q 40.828125 26.078125 38.546875 27.4375 
Q 36.28125 28.8125 33.109375 29.734375 
L 26.125 31.734375 
Q 23.78125 32.375 21.390625 33.125 
Q 19 33.890625 16.796875 34.9375 
Q 14.59375 35.984375 12.6875 37.390625 
Q 10.796875 38.8125 9.375 40.796875 
Q 7.953125 42.78125 7.140625 45.390625 
Q 6.34375 48 6.34375 51.421875 
Q 6.34375 56.296875 7.984375 59.78125 
Q 9.625 63.28125 12.5 65.53125 
Q 15.375 67.78125 19.3125 68.796875 
Q 23.25 69.828125 27.78125 69.828125 
Q 33.015625 69.828125 36.75 68.828125 
Q 40.484375 67.828125 43.046875 65.8125 
Q 45.609375 63.8125 47.140625 60.859375 
Q 48.6875 57.90625 49.609375 54 
L 42.09375 52.390625 
Q 41.546875 54.890625 40.46875 56.84375 
Q 39.40625 58.796875 37.671875 60.109375 
Q 35.9375 61.421875 33.46875 62.109375 
Q 31 62.796875 27.6875 62.796875 
Q 23.78125 62.796875 21.109375 61.9375 
Q 18.453125 61.078125 16.84375 59.609375 
Q 15.234375 58.15625 14.515625 56.171875 
Q 13.8125 54.203125 13.8125 51.90625 
Q 13.8125 48.828125 15.078125 46.84375 
Q 16.359375 44.875 18.5 43.546875 
Q 20.65625 42.234375 23.515625 41.359375 
Q 26.375 40.484375 29.546875 39.59375 
Q 29.546875 39.59375 34.71875 38.09375 
Q 37.3125 37.359375 39.671875 36.296875 
Q 42.046875 35.25 44.09375 33.828125 
Q 46.140625 32.421875 47.671875 30.375 
Q 49.21875 28.328125 50.0625 25.53125 
Q 50.921875 22.75 50.921875 19 
z
" id="LiberationSansNarrow-83"/>
      <path d="M 50.34375 48.09375 
Q 50.34375 43.609375 49.125 39.71875 
Q 47.90625 35.84375 45.484375 32.984375 
Q 43.0625 30.125 39.421875 28.46875 
Q 35.796875 26.8125 30.953125 26.8125 
L 14.359375 26.8125 
L 14.359375 0 
L 6.734375 0 
L 6.734375 68.796875 
L 30.46875 68.796875 
Q 35.453125 68.796875 39.1875 67.3125 
Q 42.921875 65.828125 45.40625 63.109375 
Q 47.90625 60.40625 49.125 56.5625 
Q 50.34375 52.734375 50.34375 48.09375 
z
M 42.671875 48 
Q 42.671875 54.546875 39.40625 57.9375 
Q 36.140625 61.328125 29.546875 61.328125 
L 14.359375 61.328125 
L 14.359375 34.1875 
L 29.890625 34.1875 
Q 36.46875 34.1875 39.5625 37.75 
Q 42.671875 41.3125 42.671875 48 
z
" id="LiberationSansNarrow-80"/>
      <path d="M 59.90625 34.71875 
Q 59.90625 27.4375 58.34375 21.40625 
Q 56.78125 15.375 53.875 10.828125 
Q 50.984375 6.296875 46.75 3.4375 
Q 42.53125 0.59375 37.15625 -0.296875 
Q 37.984375 -3.421875 39.0625 -5.609375 
Q 40.140625 -7.8125 41.5 -9.203125 
Q 42.875 -10.59375 44.53125 -11.25 
Q 46.1875 -11.921875 48.25 -11.921875 
Q 49.359375 -11.921875 50.625 -11.71875 
Q 51.90625 -11.53125 52.828125 -11.28125 
L 52.828125 -17.828125 
Q 51.3125 -18.265625 49.484375 -18.578125 
Q 47.65625 -18.890625 45.703125 -18.890625 
Q 42.234375 -18.890625 39.6875 -17.640625 
Q 37.15625 -16.40625 35.203125 -14.078125 
Q 33.25 -11.765625 31.859375 -8.390625 
Q 30.46875 -5.03125 29.34375 -0.78125 
Q 23 -0.390625 18.234375 2.40625 
Q 13.484375 5.21875 10.28125 9.9375 
Q 7.078125 14.65625 5.484375 20.96875 
Q 3.90625 27.296875 3.90625 34.71875 
Q 3.90625 42.78125 5.734375 49.265625 
Q 7.5625 55.765625 11.125 60.328125 
Q 14.703125 64.890625 19.921875 67.359375 
Q 25.140625 69.828125 31.9375 69.828125 
Q 38.671875 69.828125 43.890625 67.328125 
Q 49.125 64.84375 52.65625 60.25 
Q 56.203125 55.671875 58.046875 49.171875 
Q 59.90625 42.671875 59.90625 34.71875 
z
M 52.09375 34.71875 
Q 52.09375 40.921875 50.78125 46 
Q 49.46875 51.078125 46.921875 54.6875 
Q 44.390625 58.296875 40.625 60.25 
Q 36.859375 62.203125 31.9375 62.203125 
Q 26.90625 62.203125 23.09375 60.25 
Q 19.28125 58.296875 16.71875 54.6875 
Q 14.15625 51.078125 12.90625 46 
Q 11.671875 40.921875 11.671875 34.71875 
Q 11.671875 28.515625 12.96875 23.359375 
Q 14.265625 18.21875 16.796875 14.484375 
Q 19.34375 10.75 23.125 8.671875 
Q 26.90625 6.59375 31.84375 6.59375 
Q 37.109375 6.59375 40.9375 8.6875 
Q 44.78125 10.796875 47.234375 14.53125 
Q 49.703125 18.265625 50.890625 23.4375 
Q 52.09375 28.609375 52.09375 34.71875 
z
" id="LiberationSansNarrow-81"/>
     </defs>
     <g transform="translate(81.2894 50.373776)scale(0.11662 -0.11662)">
      <use xlink:href="#LiberationSansNarrow-83"/>
      <use x="54.6875" xlink:href="#LiberationSansNarrow-80"/>
      <use x="109.375" xlink:href="#LiberationSansNarrow-72"/>
      <use x="168.554688" xlink:href="#LiberationSansNarrow-81"/>
     </g>
    </g>
    <g id="line2d_24">
     <path d="M 120.050972 32.505406 
L 143.374972 32.505406 
" style="fill:none;stroke:#2ca02c;stroke-linecap:square;stroke-opacity:0.7;"/>
    </g>
    <g id="line2d_25"/>
    <g id="text_18">
     <!-- PRF -->
     <defs>
      <path d="M 46.578125 0 
L 31.9375 28.5625 
L 14.359375 28.5625 
L 14.359375 0 
L 6.734375 0 
L 6.734375 68.796875 
L 33.25 68.796875 
Q 38.03125 68.796875 41.734375 67.453125 
Q 45.453125 66.109375 47.96875 63.5625 
Q 50.484375 61.03125 51.796875 57.375 
Q 53.125 53.71875 53.125 49.125 
Q 53.125 45.84375 52.34375 42.671875 
Q 51.5625 39.5 49.875 36.859375 
Q 48.1875 34.234375 45.59375 32.328125 
Q 43.015625 30.421875 39.359375 29.640625 
L 55.375 0 
z
M 45.453125 49.03125 
Q 45.453125 52.15625 44.578125 54.4375 
Q 43.703125 56.734375 42.015625 58.265625 
Q 40.328125 59.8125 37.9375 60.5625 
Q 35.546875 61.328125 32.46875 61.328125 
L 14.359375 61.328125 
L 14.359375 35.9375 
L 32.8125 35.9375 
Q 36.078125 35.9375 38.5 36.9375 
Q 40.921875 37.9375 42.453125 39.6875 
Q 44 41.453125 44.71875 43.84375 
Q 45.453125 46.234375 45.453125 49.03125 
z
" id="LiberationSansNarrow-82"/>
      <path d="M 14.359375 61.1875 
L 14.359375 35.59375 
L 45.84375 35.59375 
L 45.84375 27.875 
L 14.359375 27.875 
L 14.359375 0 
L 6.734375 0 
L 6.734375 68.796875 
L 46.828125 68.796875 
L 46.828125 61.1875 
z
" id="LiberationSansNarrow-70"/>
     </defs>
     <g transform="translate(152.704572 36.587106)scale(0.11662 -0.11662)">
      <use xlink:href="#LiberationSansNarrow-80"/>
      <use x="54.6875" xlink:href="#LiberationSansNarrow-82"/>
      <use x="113.867188" xlink:href="#LiberationSansNarrow-70"/>
     </g>
    </g>
    <g id="line2d_26">
     <path d="M 183.488608 32.505406 
L 206.812608 32.505406 
" style="fill:none;stroke:#d62728;stroke-linecap:square;stroke-opacity:0.7;"/>
    </g>
    <g id="line2d_27"/>
    <g id="text_19">
     <!-- FTCS -->
     <defs>
      <path d="M 28.8125 61.1875 
L 28.8125 0 
L 21.234375 0 
L 21.234375 61.1875 
L 1.859375 61.1875 
L 1.859375 68.796875 
L 48.1875 68.796875 
L 48.1875 61.1875 
z
" id="LiberationSansNarrow-84"/>
      <path d="M 31.6875 62.203125 
Q 26.90625 62.203125 23.1875 60.25 
Q 19.484375 58.296875 16.984375 54.6875 
Q 14.5 51.078125 13.203125 46 
Q 11.921875 40.921875 11.921875 34.71875 
Q 11.921875 28.515625 13.3125 23.359375 
Q 14.703125 18.21875 17.265625 14.5 
Q 19.828125 10.796875 23.578125 8.734375 
Q 27.34375 6.6875 32.03125 6.6875 
Q 35.296875 6.6875 37.984375 7.734375 
Q 40.671875 8.796875 42.859375 10.6875 
Q 45.0625 12.59375 46.765625 15.203125 
Q 48.484375 17.828125 49.8125 21 
L 56.0625 17.1875 
Q 54.546875 13.328125 52.296875 10 
Q 50.046875 6.6875 47.015625 4.25 
Q 44 1.8125 40.1875 0.40625 
Q 36.375 -0.984375 31.640625 -0.984375 
Q 24.8125 -0.984375 19.65625 1.671875 
Q 14.5 4.34375 11.0625 9.109375 
Q 7.625 13.875 5.890625 20.40625 
Q 4.15625 26.953125 4.15625 34.71875 
Q 4.15625 42.78125 5.984375 49.265625 
Q 7.8125 55.765625 11.296875 60.328125 
Q 14.796875 64.890625 19.921875 67.359375 
Q 25.046875 69.828125 31.59375 69.828125 
Q 40.578125 69.828125 46.625 65.53125 
Q 52.6875 61.234375 55.515625 52.78125 
L 48.296875 49.859375 
Q 47.515625 52.296875 46.140625 54.515625 
Q 44.78125 56.734375 42.71875 58.4375 
Q 40.671875 60.15625 37.9375 61.171875 
Q 35.203125 62.203125 31.6875 62.203125 
z
" id="LiberationSansNarrow-67"/>
     </defs>
     <g transform="translate(216.142208 36.587106)scale(0.11662 -0.11662)">
      <use xlink:href="#LiberationSansNarrow-70"/>
      <use x="50.097656" xlink:href="#LiberationSansNarrow-84"/>
      <use x="100.195312" xlink:href="#LiberationSansNarrow-67"/>
      <use x="159.375" xlink:href="#LiberationSansNarrow-83"/>
     </g>
    </g>
   </g>
  </g>
 </g>
 <defs>
  <clipPath id="pea2d0e4391">
   <rect height="234.56" width="520.22" x="38.14" y="17.64"/>
  </clipPath>
 </defs>
</svg>
