<?xml version="1.0" encoding="utf-8" standalone="no"?>
<!DOCTYPE svg PUBLIC "-//W3C//DTD SVG 1.1//EN"
  "http://www.w3.org/Graphics/SVG/1.1/DTD/svg11.dtd">
<!-- Created with matplotlib (https://matplotlib.org/) -->
<svg height="288pt" version="1.1" viewBox="0 0 576 288" width="576pt" xmlns="http://www.w3.org/2000/svg" xmlns:xlink="http://www.w3.org/1999/xlink">
 <defs>
  <style type="text/css">
*{stroke-linecap:butt;stroke-linejoin:round;}
  </style>
 </defs>
 <g id="figure_1">
  <g id="patch_1">
   <path d="M 0 288 
L 576 288 
L 576 0 
L 0 0 
z
" style="fill:#ffffff;"/>
  </g>
  <g id="axes_1">
   <g id="patch_2">
    <path d="M 62.12 252.2 
L 558.36 252.2 
L 558.36 17.64 
L 62.12 17.64 
z
" style="fill:#ffffff;"/>
   </g>
   <g id="matplotlib.axis_1">
    <g id="xtick_1">
     <g id="line2d_1">
      <path clip-path="url(#p52efaed9e4)" d="M 84.676364 252.2 
L 84.676364 17.64 
" style="fill:none;stroke:#b0b0b0;stroke-dasharray:1.48,0.64;stroke-dashoffset:0;stroke-width:0.4;"/>
     </g>
     <g id="text_1">
      <!-- 0.0 -->
      <defs>
       <path d="M 42.390625 34.421875 
Q 42.390625 24.515625 40.84375 17.75 
Q 39.3125 10.984375 36.640625 6.8125 
Q 33.984375 2.640625 30.390625 0.828125 
Q 26.8125 -0.984375 22.703125 -0.984375 
Q 18.609375 -0.984375 15.03125 0.828125 
Q 11.46875 2.640625 8.828125 6.78125 
Q 6.203125 10.9375 4.703125 17.703125 
Q 3.21875 24.46875 3.21875 34.421875 
Q 3.21875 44.828125 4.703125 51.640625 
Q 6.203125 58.453125 8.828125 62.5 
Q 11.46875 66.546875 15.078125 68.1875 
Q 18.703125 69.828125 22.953125 69.828125 
Q 27 69.828125 30.53125 68.1875 
Q 34.078125 66.546875 36.71875 62.5 
Q 39.359375 58.453125 40.875 51.640625 
Q 42.390625 44.828125 42.390625 34.421875 
z
M 35.0625 34.421875 
Q 35.0625 42.625 34.28125 48.0625 
Q 33.5 53.515625 31.9375 56.765625 
Q 30.375 60.015625 28.09375 61.359375 
Q 25.828125 62.703125 22.953125 62.703125 
Q 19.921875 62.703125 17.578125 61.328125 
Q 15.234375 59.96875 13.671875 56.71875 
Q 12.109375 53.46875 11.296875 48.015625 
Q 10.5 42.578125 10.5 34.421875 
Q 10.5 26.515625 11.296875 21.09375 
Q 12.109375 15.671875 13.6875 12.375 
Q 15.28125 9.078125 17.578125 7.640625 
Q 19.875 6.203125 22.796875 6.203125 
Q 25.640625 6.203125 27.90625 7.640625 
Q 30.171875 9.078125 31.75 12.375 
Q 33.34375 15.671875 34.203125 21.09375 
Q 35.0625 26.515625 35.0625 34.421875 
z
" id="LiberationSansNarrow-48"/>
       <path d="M 7.46875 0 
L 7.46875 10.6875 
L 15.328125 10.6875 
L 15.328125 0 
z
" id="LiberationSansNarrow-46"/>
      </defs>
      <g transform="translate(76.69527 269.345625)scale(0.14 -0.14)">
       <use xlink:href="#LiberationSansNarrow-48"/>
       <use x="45.605469" xlink:href="#LiberationSansNarrow-46"/>
       <use x="68.408203" xlink:href="#LiberationSansNarrow-48"/>
      </g>
     </g>
    </g>
    <g id="xtick_2">
     <g id="line2d_2">
      <path clip-path="url(#p52efaed9e4)" d="M 174.901818 252.2 
L 174.901818 17.64 
" style="fill:none;stroke:#b0b0b0;stroke-dasharray:1.48,0.64;stroke-dashoffset:0;stroke-width:0.4;"/>
     </g>
     <g id="text_2">
      <!-- 0.2 -->
      <defs>
       <path d="M 4.109375 0 
L 4.109375 6.203125 
Q 6.15625 11.921875 9.109375 16.28125 
Q 12.0625 20.65625 15.3125 24.1875 
Q 18.5625 27.734375 21.734375 30.765625 
Q 24.90625 33.796875 27.46875 36.8125 
Q 30.03125 39.84375 31.609375 43.15625 
Q 33.203125 46.484375 33.203125 50.6875 
Q 33.203125 53.609375 32.46875 55.828125 
Q 31.734375 58.0625 30.390625 59.5625 
Q 29.046875 61.078125 27.140625 61.828125 
Q 25.25 62.59375 22.90625 62.59375 
Q 20.75 62.59375 18.84375 61.859375 
Q 16.9375 61.140625 15.453125 59.671875 
Q 13.96875 58.203125 13.03125 56.03125 
Q 12.109375 53.859375 11.8125 50.984375 
L 4.4375 51.8125 
Q 4.78125 55.515625 6.125 58.78125 
Q 7.46875 62.0625 9.78125 64.53125 
Q 12.109375 67 15.359375 68.40625 
Q 18.609375 69.828125 22.90625 69.828125 
Q 27.09375 69.828125 30.390625 68.609375 
Q 33.6875 67.390625 35.9375 64.984375 
Q 38.1875 62.59375 39.40625 59.078125 
Q 40.625 55.5625 40.625 50.984375 
Q 40.625 47.515625 39.59375 44.390625 
Q 38.578125 41.265625 36.859375 38.421875 
Q 35.15625 35.59375 32.90625 32.953125 
Q 30.671875 30.328125 28.21875 27.828125 
L 23.296875 22.859375 
Q 20.796875 20.359375 18.625 17.859375 
Q 16.453125 15.375 14.734375 12.8125 
Q 13.03125 10.25 12.0625 7.46875 
L 41.5 7.46875 
L 41.5 0 
z
" id="LiberationSansNarrow-50"/>
      </defs>
      <g transform="translate(166.920724 269.345625)scale(0.14 -0.14)">
       <use xlink:href="#LiberationSansNarrow-48"/>
       <use x="45.605469" xlink:href="#LiberationSansNarrow-46"/>
       <use x="68.408203" xlink:href="#LiberationSansNarrow-50"/>
      </g>
     </g>
    </g>
    <g id="xtick_3">
     <g id="line2d_3">
      <path clip-path="url(#p52efaed9e4)" d="M 265.127273 252.2 
L 265.127273 17.64 
" style="fill:none;stroke:#b0b0b0;stroke-dasharray:1.48,0.64;stroke-dashoffset:0;stroke-width:0.4;"/>
     </g>
     <g id="text_3">
      <!-- 0.4 -->
      <defs>
       <path d="M 35.25 15.578125 
L 35.25 0 
L 28.46875 0 
L 28.46875 15.578125 
L 1.90625 15.578125 
L 1.90625 22.40625 
L 27.6875 68.796875 
L 35.25 68.796875 
L 35.25 22.515625 
L 43.21875 22.515625 
L 43.21875 15.578125 
z
M 28.46875 58.890625 
Q 28.375 58.640625 28.03125 57.90625 
L 27.34375 56.34375 
L 26.5625 54.59375 
Q 26.125 53.65625 25.78125 53.078125 
L 11.328125 27.09375 
Q 11.140625 26.703125 10.75 26.078125 
L 9.96875 24.8125 
L 9.1875 23.484375 
Q 8.796875 22.859375 8.546875 22.515625 
L 28.46875 22.515625 
z
" id="LiberationSansNarrow-52"/>
      </defs>
      <g transform="translate(257.146179 269.345625)scale(0.14 -0.14)">
       <use xlink:href="#LiberationSansNarrow-48"/>
       <use x="45.605469" xlink:href="#LiberationSansNarrow-46"/>
       <use x="68.408203" xlink:href="#LiberationSansNarrow-52"/>
      </g>
     </g>
    </g>
    <g id="xtick_4">
     <g id="line2d_4">
      <path clip-path="url(#p52efaed9e4)" d="M 355.352727 252.2 
L 355.352727 17.64 
" style="fill:none;stroke:#b0b0b0;stroke-dasharray:1.48,0.64;stroke-dashoffset:0;stroke-width:0.4;"/>
     </g>
     <g id="text_4">
      <!-- 0.6 -->
      <defs>
       <path d="M 42 22.515625 
Q 42 17.328125 40.828125 13 
Q 39.65625 8.6875 37.359375 5.578125 
Q 35.0625 2.484375 31.640625 0.75 
Q 28.21875 -0.984375 23.78125 -0.984375 
Q 18.84375 -0.984375 15.15625 1.3125 
Q 11.46875 3.609375 9.03125 7.921875 
Q 6.59375 12.25 5.375 18.53125 
Q 4.15625 24.8125 4.15625 32.8125 
Q 4.15625 42 5.546875 48.921875 
Q 6.9375 55.859375 9.515625 60.5 
Q 12.109375 65.140625 15.859375 67.484375 
Q 19.625 69.828125 24.359375 69.828125 
Q 27.25 69.828125 29.765625 69.09375 
Q 32.28125 68.359375 34.328125 66.71875 
Q 36.375 65.09375 37.9375 62.40625 
Q 39.5 59.71875 40.4375 55.8125 
L 33.546875 54.296875 
Q 32.421875 58.734375 29.953125 60.71875 
Q 27.484375 62.703125 24.265625 62.703125 
Q 21.296875 62.703125 18.890625 60.984375 
Q 16.5 59.28125 14.8125 55.875 
Q 13.140625 52.484375 12.234375 47.359375 
Q 11.328125 42.234375 11.328125 35.40625 
Q 13.28125 39.84375 16.84375 42.15625 
Q 20.40625 44.484375 25.046875 44.484375 
Q 28.90625 44.484375 32 42.96875 
Q 35.109375 41.453125 37.328125 38.59375 
Q 39.546875 35.75 40.765625 31.671875 
Q 42 27.59375 42 22.515625 
z
M 34.671875 22.125 
Q 34.671875 25.6875 33.953125 28.5625 
Q 33.25 31.453125 31.8125 33.46875 
Q 30.375 35.5 28.25 36.59375 
Q 26.125 37.703125 23.296875 37.703125 
Q 21.34375 37.703125 19.328125 36.984375 
Q 17.328125 36.28125 15.71875 34.6875 
Q 14.109375 33.109375 13.078125 30.515625 
Q 12.0625 27.9375 12.0625 24.21875 
Q 12.0625 20.40625 12.859375 17.109375 
Q 13.671875 13.8125 15.15625 11.375 
Q 16.65625 8.9375 18.78125 7.515625 
Q 20.90625 6.109375 23.53125 6.109375 
Q 26.125 6.109375 28.203125 7.203125 
Q 30.28125 8.296875 31.71875 10.375 
Q 33.15625 12.453125 33.90625 15.421875 
Q 34.671875 18.40625 34.671875 22.125 
z
" id="LiberationSansNarrow-54"/>
      </defs>
      <g transform="translate(347.371634 269.345625)scale(0.14 -0.14)">
       <use xlink:href="#LiberationSansNarrow-48"/>
       <use x="45.605469" xlink:href="#LiberationSansNarrow-46"/>
       <use x="68.408203" xlink:href="#LiberationSansNarrow-54"/>
      </g>
     </g>
    </g>
    <g id="xtick_5">
     <g id="line2d_5">
      <path clip-path="url(#p52efaed9e4)" d="M 445.578182 252.2 
L 445.578182 17.64 
" style="fill:none;stroke:#b0b0b0;stroke-dasharray:1.48,0.64;stroke-dashoffset:0;stroke-width:0.4;"/>
     </g>
     <g id="text_5">
      <!-- 0.8 -->
      <defs>
       <path d="M 42.046875 19.1875 
Q 42.046875 14.796875 40.890625 11.109375 
Q 39.75 7.421875 37.40625 4.734375 
Q 35.0625 2.046875 31.421875 0.53125 
Q 27.78125 -0.984375 22.796875 -0.984375 
Q 17.828125 -0.984375 14.203125 0.53125 
Q 10.59375 2.046875 8.21875 4.703125 
Q 5.859375 7.375 4.703125 11.0625 
Q 3.5625 14.75 3.5625 19.09375 
Q 3.5625 22.859375 4.515625 25.78125 
Q 5.46875 28.71875 7.03125 30.828125 
Q 8.59375 32.953125 10.609375 34.25 
Q 12.640625 35.546875 14.796875 35.984375 
L 14.796875 36.1875 
Q 12.453125 36.859375 10.59375 38.375 
Q 8.734375 39.890625 7.46875 42.015625 
Q 6.203125 44.140625 5.546875 46.71875 
Q 4.890625 49.3125 4.890625 52.203125 
Q 4.890625 55.8125 6.03125 59 
Q 7.171875 62.203125 9.421875 64.625 
Q 11.671875 67.046875 14.984375 68.4375 
Q 18.3125 69.828125 22.65625 69.828125 
Q 27.25 69.828125 30.640625 68.40625 
Q 34.03125 67 36.25 64.578125 
Q 38.484375 62.15625 39.546875 58.9375 
Q 40.625 55.71875 40.625 52.09375 
Q 40.625 49.265625 39.96875 46.671875 
Q 39.3125 44.09375 38.0625 41.96875 
Q 36.8125 39.84375 34.9375 38.34375 
Q 33.0625 36.859375 30.609375 36.28125 
L 30.609375 36.078125 
Q 33.0625 35.59375 35.15625 34.296875 
Q 37.25 33.015625 38.765625 30.890625 
Q 40.28125 28.765625 41.15625 25.828125 
Q 42.046875 22.90625 42.046875 19.1875 
z
M 33.15625 51.609375 
Q 33.15625 54.203125 32.609375 56.34375 
Q 32.078125 58.5 30.828125 60.03125 
Q 29.59375 61.578125 27.59375 62.421875 
Q 25.59375 63.28125 22.65625 63.28125 
Q 19.828125 63.28125 17.875 62.421875 
Q 15.921875 61.578125 14.640625 60.03125 
Q 13.375 58.5 12.8125 56.34375 
Q 12.25 54.203125 12.25 51.609375 
Q 12.25 49.5625 12.6875 47.40625 
Q 13.140625 45.265625 14.3125 43.5 
Q 15.484375 41.75 17.5 40.625 
Q 19.53125 39.5 22.75 39.5 
Q 26.171875 39.5 28.21875 40.625 
Q 30.28125 41.75 31.375 43.5 
Q 32.46875 45.265625 32.8125 47.40625 
Q 33.15625 49.5625 33.15625 51.609375 
z
M 34.578125 20.015625 
Q 34.578125 22.515625 34.015625 24.828125 
Q 33.453125 27.15625 32.078125 28.9375 
Q 30.71875 30.71875 28.421875 31.8125 
Q 26.125 32.90625 22.65625 32.90625 
Q 19.484375 32.90625 17.265625 31.8125 
Q 15.046875 30.71875 13.671875 28.90625 
Q 12.3125 27.09375 11.671875 24.71875 
Q 11.03125 22.359375 11.03125 19.828125 
Q 11.03125 16.65625 11.671875 14.03125 
Q 12.3125 11.421875 13.703125 9.546875 
Q 15.09375 7.671875 17.375 6.640625 
Q 19.671875 5.609375 22.90625 5.609375 
Q 26.171875 5.609375 28.421875 6.640625 
Q 30.671875 7.671875 32.03125 9.546875 
Q 33.40625 11.421875 33.984375 14.078125 
Q 34.578125 16.75 34.578125 20.015625 
z
" id="LiberationSansNarrow-56"/>
      </defs>
      <g transform="translate(437.597088 269.345625)scale(0.14 -0.14)">
       <use xlink:href="#LiberationSansNarrow-48"/>
       <use x="45.605469" xlink:href="#LiberationSansNarrow-46"/>
       <use x="68.408203" xlink:href="#LiberationSansNarrow-56"/>
      </g>
     </g>
    </g>
    <g id="xtick_6">
     <g id="line2d_6">
      <path clip-path="url(#p52efaed9e4)" d="M 535.803636 252.2 
L 535.803636 17.64 
" style="fill:none;stroke:#b0b0b0;stroke-dasharray:1.48,0.64;stroke-dashoffset:0;stroke-width:0.4;"/>
     </g>
     <g id="text_6">
      <!-- 1.0 -->
      <defs>
       <path d="M 6.25 0 
L 6.25 7.46875 
L 20.609375 7.46875 
L 20.609375 60.40625 
L 7.90625 49.3125 
L 7.90625 57.625 
L 21.234375 68.796875 
L 27.875 68.796875 
L 27.875 7.46875 
L 41.609375 7.46875 
L 41.609375 0 
z
" id="LiberationSansNarrow-49"/>
      </defs>
      <g transform="translate(527.822543 269.345625)scale(0.14 -0.14)">
       <use xlink:href="#LiberationSansNarrow-49"/>
       <use x="45.605469" xlink:href="#LiberationSansNarrow-46"/>
       <use x="68.408203" xlink:href="#LiberationSansNarrow-48"/>
      </g>
     </g>
    </g>
   </g>
   <g id="matplotlib.axis_2">
    <g id="ytick_1">
     <g id="line2d_7">
      <path clip-path="url(#p52efaed9e4)" d="M 62.12 236.774091 
L 558.36 236.774091 
" style="fill:none;stroke:#b0b0b0;stroke-dasharray:1.48,0.64;stroke-dashoffset:0;stroke-width:0.4;"/>
     </g>
     <g id="text_7">
      <!-- 2 -->
      <g transform="translate(48.734688 241.846903)scale(0.14 -0.14)">
       <use xlink:href="#LiberationSansNarrow-50"/>
      </g>
     </g>
    </g>
    <g id="ytick_2">
     <g id="line2d_8">
      <path clip-path="url(#p52efaed9e4)" d="M 62.12 206.023677 
L 558.36 206.023677 
" style="fill:none;stroke:#b0b0b0;stroke-dasharray:1.48,0.64;stroke-dashoffset:0;stroke-width:0.4;"/>
     </g>
     <g id="text_8">
      <!-- 4 -->
      <g transform="translate(48.734688 211.096489)scale(0.14 -0.14)">
       <use xlink:href="#LiberationSansNarrow-52"/>
      </g>
     </g>
    </g>
    <g id="ytick_3">
     <g id="line2d_9">
      <path clip-path="url(#p52efaed9e4)" d="M 62.12 175.273263 
L 558.36 175.273263 
" style="fill:none;stroke:#b0b0b0;stroke-dasharray:1.48,0.64;stroke-dashoffset:0;stroke-width:0.4;"/>
     </g>
     <g id="text_9">
      <!-- 6 -->
      <g transform="translate(48.734688 180.346075)scale(0.14 -0.14)">
       <use xlink:href="#LiberationSansNarrow-54"/>
      </g>
     </g>
    </g>
    <g id="ytick_4">
     <g id="line2d_10">
      <path clip-path="url(#p52efaed9e4)" d="M 62.12 144.522849 
L 558.36 144.522849 
" style="fill:none;stroke:#b0b0b0;stroke-dasharray:1.48,0.64;stroke-dashoffset:0;stroke-width:0.4;"/>
     </g>
     <g id="text_10">
      <!-- 8 -->
      <g transform="translate(48.734688 149.595662)scale(0.14 -0.14)">
       <use xlink:href="#LiberationSansNarrow-56"/>
      </g>
     </g>
    </g>
    <g id="ytick_5">
     <g id="line2d_11">
      <path clip-path="url(#p52efaed9e4)" d="M 62.12 113.772435 
L 558.36 113.772435 
" style="fill:none;stroke:#b0b0b0;stroke-dasharray:1.48,0.64;stroke-dashoffset:0;stroke-width:0.4;"/>
     </g>
     <g id="text_11">
      <!-- 10 -->
      <g transform="translate(42.349375 118.845248)scale(0.14 -0.14)">
       <use xlink:href="#LiberationSansNarrow-49"/>
       <use x="45.605469" xlink:href="#LiberationSansNarrow-48"/>
      </g>
     </g>
    </g>
    <g id="ytick_6">
     <g id="line2d_12">
      <path clip-path="url(#p52efaed9e4)" d="M 62.12 83.022021 
L 558.36 83.022021 
" style="fill:none;stroke:#b0b0b0;stroke-dasharray:1.48,0.64;stroke-dashoffset:0;stroke-width:0.4;"/>
     </g>
     <g id="text_12">
      <!-- 12 -->
      <g transform="translate(42.349375 88.094834)scale(0.14 -0.14)">
       <use xlink:href="#LiberationSansNarrow-49"/>
       <use x="45.605469" xlink:href="#LiberationSansNarrow-50"/>
      </g>
     </g>
    </g>
    <g id="ytick_7">
     <g id="line2d_13">
      <path clip-path="url(#p52efaed9e4)" d="M 62.12 52.271607 
L 558.36 52.271607 
" style="fill:none;stroke:#b0b0b0;stroke-dasharray:1.48,0.64;stroke-dashoffset:0;stroke-width:0.4;"/>
     </g>
     <g id="text_13">
      <!-- 14 -->
      <g transform="translate(42.349375 57.34442)scale(0.14 -0.14)">
       <use xlink:href="#LiberationSansNarrow-49"/>
       <use x="45.605469" xlink:href="#LiberationSansNarrow-52"/>
      </g>
     </g>
    </g>
    <g id="ytick_8">
     <g id="line2d_14">
      <path clip-path="url(#p52efaed9e4)" d="M 62.12 21.521193 
L 558.36 21.521193 
" style="fill:none;stroke:#b0b0b0;stroke-dasharray:1.48,0.64;stroke-dashoffset:0;stroke-width:0.4;"/>
     </g>
     <g id="text_14">
      <!-- 16 -->
      <g transform="translate(42.349375 26.594006)scale(0.14 -0.14)">
       <use xlink:href="#LiberationSansNarrow-49"/>
       <use x="45.605469" xlink:href="#LiberationSansNarrow-54"/>
      </g>
     </g>
    </g>
    <g id="text_15">
     <!-- доходность, %г -->
     <defs>
      <path d="M 33.34375 46.4375 
L 21.140625 46.4375 
Q 20.171875 37.796875 19.1875 31.375 
Q 18.21875 24.953125 17.234375 20.21875 
Q 16.265625 15.484375 15.3125 12.15625 
Q 14.359375 8.84375 13.484375 6.390625 
L 33.34375 6.390625 
z
M 46.390625 -19.921875 
L 39.890625 -19.921875 
L 39.890625 0 
L 7.328125 0 
L 7.328125 -19.921875 
L 0.78125 -19.921875 
L 0.78125 6.390625 
L 5.5625 6.390625 
Q 6.78125 8.84375 7.921875 12.328125 
Q 9.078125 15.828125 10.21875 21.1875 
Q 11.375 26.5625 12.515625 34.25 
Q 13.671875 41.9375 14.796875 52.828125 
L 40.578125 52.828125 
L 40.578125 6.390625 
L 46.390625 6.390625 
z
" id="LiberationSansNarrow-1076"/>
      <path d="M 42.140625 26.46875 
Q 42.140625 12.59375 37.125 5.796875 
Q 32.125 -0.984375 22.609375 -0.984375 
Q 18.0625 -0.984375 14.515625 0.671875 
Q 10.984375 2.34375 8.515625 5.765625 
Q 6.0625 9.1875 4.765625 14.328125 
Q 3.46875 19.484375 3.46875 26.46875 
Q 3.46875 53.8125 22.859375 53.8125 
Q 27.875 53.8125 31.5625 52.09375 
Q 35.25 50.390625 37.59375 46.96875 
Q 39.9375 43.5625 41.03125 38.421875 
Q 42.140625 33.296875 42.140625 26.46875 
z
M 34.578125 26.46875 
Q 34.578125 32.625 33.8125 36.625 
Q 33.0625 40.625 31.546875 43.015625 
Q 30.03125 45.40625 27.859375 46.359375 
Q 25.6875 47.3125 23 47.3125 
Q 20.21875 47.3125 17.984375 46.3125 
Q 15.765625 45.3125 14.203125 42.890625 
Q 12.640625 40.484375 11.828125 36.46875 
Q 11.03125 32.46875 11.03125 26.46875 
Q 11.03125 20.3125 11.90625 16.28125 
Q 12.796875 12.25 14.328125 9.859375 
Q 15.875 7.46875 17.96875 6.484375 
Q 20.0625 5.515625 22.5625 5.515625 
Q 25.34375 5.515625 27.5625 6.46875 
Q 29.78125 7.421875 31.34375 9.8125 
Q 32.90625 12.203125 33.734375 16.25 
Q 34.578125 20.3125 34.578125 26.46875 
z
" id="LiberationSansNarrow-1086"/>
      <path d="M 32.078125 0 
L 20.40625 21.6875 
L 8.6875 0 
L 0.921875 0 
L 16.359375 27.15625 
L 1.65625 52.828125 
L 9.625 52.828125 
L 20.40625 32.28125 
L 31.15625 52.828125 
L 39.203125 52.828125 
L 24.515625 27.25 
L 40.140625 0 
z
" id="LiberationSansNarrow-1093"/>
      <path d="M 12.890625 52.828125 
L 12.890625 30.46875 
L 32.375 30.46875 
L 32.375 52.828125 
L 39.59375 52.828125 
L 39.59375 0 
L 32.375 0 
L 32.375 24.078125 
L 12.890625 24.078125 
L 12.890625 0 
L 5.671875 0 
L 5.671875 52.828125 
z
" id="LiberationSansNarrow-1085"/>
      <path d="M 11.03125 26.65625 
Q 11.03125 22.125 11.5625 18.3125 
Q 12.109375 14.5 13.375 11.734375 
Q 14.65625 8.984375 16.75 7.46875 
Q 18.84375 5.953125 21.96875 5.953125 
Q 25.828125 5.953125 28.390625 8.484375 
Q 30.953125 11.03125 31.546875 16.3125 
L 38.875 15.71875 
Q 38.53125 12.453125 37.296875 9.421875 
Q 36.078125 6.390625 34.03125 4.09375 
Q 31.984375 1.8125 29 0.40625 
Q 26.03125 -0.984375 22.171875 -0.984375 
Q 17.09375 -0.984375 13.5 1.109375 
Q 9.90625 3.21875 7.6875 6.90625 
Q 5.46875 10.59375 4.46875 15.59375 
Q 3.46875 20.609375 3.46875 26.46875 
Q 3.46875 31.78125 4.203125 35.859375 
Q 4.9375 39.9375 6.21875 42.984375 
Q 7.515625 46.046875 9.265625 48.125 
Q 11.03125 50.203125 13.109375 51.4375 
Q 15.1875 52.6875 17.453125 53.25 
Q 19.734375 53.8125 22.078125 53.8125 
Q 25.734375 53.8125 28.5625 52.59375 
Q 31.390625 51.375 33.46875 49.25 
Q 35.546875 47.125 36.8125 44.234375 
Q 38.09375 41.359375 38.625 38.03125 
L 31.203125 37.359375 
Q 30.671875 41.75 28.375 44.328125 
Q 26.078125 46.921875 21.875 46.921875 
Q 18.796875 46.921875 16.71875 45.671875 
Q 14.65625 44.4375 13.375 41.921875 
Q 12.109375 39.40625 11.5625 35.59375 
Q 11.03125 31.78125 11.03125 26.65625 
z
" id="LiberationSansNarrow-1089"/>
      <path d="M 1.421875 52.828125 
L 36.140625 52.828125 
L 36.140625 46.4375 
L 22.359375 46.4375 
L 22.359375 0 
L 15.1875 0 
L 15.1875 46.4375 
L 1.421875 46.4375 
z
" id="LiberationSansNarrow-1090"/>
      <path d="M 22.75 30.46875 
Q 30.953125 30.46875 35.15625 26.875 
Q 39.359375 23.296875 39.359375 15.53125 
Q 39.359375 11.921875 38.296875 9.03125 
Q 37.25 6.15625 35.171875 4.15625 
Q 33.109375 2.15625 30 1.078125 
Q 26.90625 0 22.796875 0 
L 5.671875 0 
L 5.671875 52.828125 
L 12.890625 52.828125 
L 12.890625 30.46875 
z
M 12.890625 6.203125 
L 21.6875 6.203125 
Q 24.46875 6.203125 26.390625 6.8125 
Q 28.328125 7.421875 29.5 8.609375 
Q 30.671875 9.8125 31.171875 11.546875 
Q 31.6875 13.28125 31.6875 15.53125 
Q 31.6875 20.125 29.359375 22.234375 
Q 27.046875 24.359375 21.734375 24.359375 
L 12.890625 24.359375 
z
" id="LiberationSansNarrow-1100"/>
      <path d="M 15.4375 10.6875 
L 15.4375 2.484375 
Q 15.4375 -0.09375 15.265625 -2.21875 
Q 15.09375 -4.34375 14.671875 -6.171875 
Q 14.265625 -8.015625 13.671875 -9.625 
Q 13.09375 -11.234375 12.3125 -12.796875 
L 7.375 -12.796875 
Q 9.1875 -9.625 10.15625 -6.390625 
Q 11.140625 -3.171875 11.140625 0 
L 7.625 0 
L 7.625 10.6875 
z
" id="LiberationSansNarrow-44"/>
      <path id="LiberationSansNarrow-32"/>
      <path d="M 69.96875 21.1875 
Q 69.96875 15.09375 68.9375 10.90625 
Q 67.921875 6.734375 66.1875 4.171875 
Q 64.453125 1.609375 62.125 0.5 
Q 59.8125 -0.59375 57.171875 -0.59375 
Q 54.546875 -0.59375 52.21875 0.5 
Q 49.90625 1.609375 48.21875 4.140625 
Q 46.53125 6.6875 45.546875 10.859375 
Q 44.578125 15.046875 44.578125 21.1875 
Q 44.578125 27.6875 45.53125 31.9375 
Q 46.484375 36.1875 48.1875 38.703125 
Q 49.90625 41.21875 52.25 42.21875 
Q 54.59375 43.21875 57.328125 43.21875 
Q 59.96875 43.21875 62.25 42.21875 
Q 64.546875 41.21875 66.25 38.703125 
Q 67.96875 36.1875 68.96875 31.9375 
Q 69.96875 27.6875 69.96875 21.1875 
z
M 21.09375 0 
L 14.890625 0 
L 51.8125 68.796875 
L 58.109375 68.796875 
z
M 15.765625 69.390625 
Q 18.3125 69.390625 20.609375 68.390625 
Q 22.90625 67.390625 24.609375 64.890625 
Q 26.3125 62.40625 27.3125 58.203125 
Q 28.328125 54 28.328125 47.609375 
Q 28.328125 41.453125 27.3125 37.25 
Q 26.3125 33.0625 24.609375 30.4375 
Q 22.90625 27.828125 20.578125 26.703125 
Q 18.265625 25.59375 15.625 25.59375 
Q 12.9375 25.59375 10.609375 26.703125 
Q 8.296875 27.828125 6.59375 30.421875 
Q 4.890625 33.015625 3.90625 37.203125 
Q 2.9375 41.40625 2.9375 47.609375 
Q 2.9375 54 3.90625 58.203125 
Q 4.890625 62.40625 6.609375 64.890625 
Q 8.34375 67.390625 10.6875 68.390625 
Q 13.03125 69.390625 15.765625 69.390625 
z
M 64.0625 21.1875 
Q 64.0625 26.03125 63.625 29.21875 
Q 63.1875 32.421875 62.328125 34.328125 
Q 61.46875 36.234375 60.203125 37.015625 
Q 58.9375 37.796875 57.328125 37.796875 
Q 55.671875 37.796875 54.375 36.984375 
Q 53.078125 36.1875 52.1875 34.28125 
Q 51.3125 32.375 50.875 29.171875 
Q 50.4375 25.984375 50.4375 21.1875 
Q 50.4375 16.546875 50.90625 13.421875 
Q 51.375 10.296875 52.21875 8.375 
Q 53.078125 6.453125 54.34375 5.609375 
Q 55.609375 4.78125 57.234375 4.78125 
Q 58.796875 4.78125 60.0625 5.609375 
Q 61.328125 6.453125 62.203125 8.375 
Q 63.09375 10.296875 63.578125 13.421875 
Q 64.0625 16.546875 64.0625 21.1875 
z
M 22.40625 47.609375 
Q 22.40625 52.390625 21.96875 55.5625 
Q 21.53125 58.734375 20.703125 60.640625 
Q 19.875 62.546875 18.625 63.328125 
Q 17.390625 64.109375 15.765625 64.109375 
Q 14.0625 64.109375 12.734375 63.296875 
Q 11.421875 62.5 10.546875 60.59375 
Q 9.671875 58.6875 9.234375 55.515625 
Q 8.796875 52.34375 8.796875 47.609375 
Q 8.796875 42.96875 9.25 39.796875 
Q 9.71875 36.625 10.5625 34.6875 
Q 11.421875 32.765625 12.71875 31.9375 
Q 14.015625 31.109375 15.671875 31.109375 
Q 17.1875 31.109375 18.421875 31.9375 
Q 19.671875 32.765625 20.546875 34.6875 
Q 21.4375 36.625 21.921875 39.796875 
Q 22.40625 42.96875 22.40625 47.609375 
z
" id="LiberationSansNarrow-37"/>
      <path d="M 27.546875 52.828125 
L 27.546875 46.4375 
L 12.890625 46.4375 
L 12.890625 0 
L 5.71875 0 
L 5.71875 52.828125 
z
" id="LiberationSansNarrow-1075"/>
     </defs>
     <g transform="translate(35.444375 176.105156)rotate(-90)scale(0.14 -0.14)">
      <use xlink:href="#LiberationSansNarrow-1076"/>
      <use x="47.802734" xlink:href="#LiberationSansNarrow-1086"/>
      <use x="93.392578" xlink:href="#LiberationSansNarrow-1093"/>
      <use x="134.392578" xlink:href="#LiberationSansNarrow-1086"/>
      <use x="179.966797" xlink:href="#LiberationSansNarrow-1076"/>
      <use x="227.769531" xlink:href="#LiberationSansNarrow-1085"/>
      <use x="273.033203" xlink:href="#LiberationSansNarrow-1086"/>
      <use x="318.638672" xlink:href="#LiberationSansNarrow-1089"/>
      <use x="359.654297" xlink:href="#LiberationSansNarrow-1090"/>
      <use x="397.203125" xlink:href="#LiberationSansNarrow-1100"/>
      <use x="439.927734" xlink:href="#LiberationSansNarrow-44"/>
      <use x="462.730469" xlink:href="#LiberationSansNarrow-32"/>
      <use x="485.533203" xlink:href="#LiberationSansNarrow-37"/>
      <use x="558.433594" xlink:href="#LiberationSansNarrow-1075"/>
     </g>
    </g>
   </g>
   <g id="line2d_15">
    <path clip-path="url(#p52efaed9e4)" d="M 84.676364 241.538182 
L 88.389345 241.170712 
L 90.245836 240.053805 
L 92.102327 239.485395 
L 93.958818 239.033333 
L 97.671799 238.565463 
L 99.52829 237.677833 
L 101.384781 237.661594 
L 103.241272 237.179763 
L 105.097763 237.104697 
L 106.954254 236.805741 
L 108.810744 236.781139 
L 110.667235 236.318893 
L 112.523726 236.260155 
L 114.380217 236.080718 
L 116.236708 235.779306 
L 118.093199 235.767102 
L 119.949689 235.541634 
L 121.80618 235.171758 
L 123.662671 235.032162 
L 125.519162 234.660443 
L 129.232144 234.440752 
L 132.945125 234.40232 
L 134.801616 233.899794 
L 136.658107 233.815529 
L 138.514598 233.151764 
L 140.371089 232.768086 
L 145.940561 232.064208 
L 147.797052 231.428909 
L 149.653543 231.289277 
L 151.510034 230.977947 
L 153.366525 230.900578 
L 155.223015 230.060493 
L 157.079506 229.811951 
L 158.935997 229.407056 
L 162.648979 227.154383 
L 164.50547 226.53079 
L 166.36196 224.465961 
L 168.218451 224.442119 
L 170.074942 224.006963 
L 171.931433 223.373861 
L 173.787924 223.055172 
L 175.644415 222.288954 
L 177.500905 221.968551 
L 179.357396 221.956894 
L 181.213887 220.945994 
L 183.070378 220.377819 
L 186.78336 217.972292 
L 188.63985 217.597052 
L 190.496341 215.717581 
L 192.352832 214.541048 
L 194.209323 214.454972 
L 196.065814 213.055499 
L 197.922305 211.370361 
L 199.778795 211.160748 
L 201.635286 210.768945 
L 203.491777 210.645356 
L 205.348268 209.746361 
L 207.204759 208.269618 
L 210.91774 207.628043 
L 212.774231 207.418202 
L 214.630722 205.266462 
L 218.343704 204.601646 
L 220.200195 204.384922 
L 222.056685 204.011753 
L 223.913176 203.982091 
L 225.769667 203.699697 
L 231.33914 203.504234 
L 233.19563 202.919235 
L 235.052121 202.609222 
L 236.908612 202.523089 
L 242.478085 199.922724 
L 244.334575 198.652566 
L 246.191066 197.183201 
L 248.047557 197.12031 
L 251.760539 196.322056 
L 253.61703 193.50992 
L 255.47352 193.131607 
L 262.899484 190.136268 
L 264.755975 189.545642 
L 266.612465 188.263829 
L 268.468956 187.441533 
L 270.325447 187.188915 
L 272.181938 184.865022 
L 274.038429 184.741707 
L 275.89492 183.766845 
L 279.607901 180.310371 
L 281.464392 179.645145 
L 283.320883 177.274788 
L 290.746846 173.327154 
L 292.603337 173.164077 
L 294.459828 172.008992 
L 296.316319 171.309146 
L 298.17281 170.438232 
L 300.0293 168.656796 
L 301.885791 168.602175 
L 305.598773 167.991718 
L 307.455264 167.048023 
L 309.311755 167.047406 
L 311.168245 166.801382 
L 313.024736 165.056352 
L 314.881227 164.667692 
L 316.737718 164.455036 
L 318.594209 164.07142 
L 320.4507 163.944615 
L 322.30719 163.510398 
L 326.020172 163.478261 
L 327.876663 163.254591 
L 329.733154 162.580525 
L 331.589645 162.051025 
L 333.446135 161.380435 
L 335.302626 161.247111 
L 337.159117 160.658604 
L 339.015608 160.536664 
L 340.872099 160.164771 
L 342.72859 159.621634 
L 344.58508 159.478081 
L 346.441571 159.171767 
L 348.298062 157.708802 
L 350.154553 157.640279 
L 352.011044 157.352291 
L 353.867535 156.810998 
L 355.724025 156.761902 
L 357.580516 156.28013 
L 361.293498 156.180471 
L 363.149989 153.93518 
L 365.00648 153.797567 
L 368.719461 153.325887 
L 370.575952 152.6186 
L 372.432443 152.075202 
L 374.288934 152.02638 
L 378.001915 151.537111 
L 379.858406 149.990689 
L 383.571388 149.340538 
L 385.427879 149.27612 
L 387.28437 148.751235 
L 389.14086 148.73425 
L 390.997351 148.236696 
L 392.853842 147.955713 
L 396.566824 147.79322 
L 400.279805 147.342731 
L 402.136296 146.827007 
L 407.705769 146.430471 
L 409.56226 146.411533 
L 411.41875 145.861722 
L 413.275241 144.97962 
L 415.131732 144.598788 
L 416.988223 144.596662 
L 418.844714 144.400227 
L 420.701205 143.987768 
L 422.557695 143.936105 
L 424.414186 143.570701 
L 428.127168 143.446582 
L 429.983659 143.005339 
L 433.69664 142.846142 
L 437.409622 142.092569 
L 439.266113 141.242755 
L 441.122604 140.793014 
L 442.979095 140.043382 
L 446.692076 139.960697 
L 448.548567 139.549254 
L 450.405058 139.417852 
L 452.261549 138.825396 
L 454.11804 138.612154 
L 455.97453 138.035543 
L 457.831021 137.94716 
L 461.544003 137.365567 
L 463.400494 136.826051 
L 465.256985 136.557383 
L 467.113475 136.53139 
L 468.969966 135.1039 
L 470.826457 135.054243 
L 472.682948 134.100007 
L 474.539439 132.878616 
L 483.821893 132.444014 
L 485.678384 131.998213 
L 487.534875 131.418788 
L 489.391366 130.582651 
L 491.247856 130.556323 
L 493.104347 129.885126 
L 494.960838 121.616827 
L 496.817329 120.787112 
L 498.67382 116.682068 
L 500.530311 114.748722 
L 502.386801 114.471202 
L 506.099783 105.768559 
L 507.956274 105.467201 
L 509.812765 104.791815 
L 511.669256 102.549465 
L 513.525746 98.974319 
L 515.382237 84.055989 
L 517.238728 74.419686 
L 519.095219 73.665826 
L 520.95171 64.170142 
L 522.808201 56.282141 
L 524.664691 52.675726 
L 526.521182 51.466497 
L 528.377673 51.011656 
L 530.234164 49.189599 
L 532.090655 48.518486 
L 533.947146 46.175507 
L 535.803636 45.23226 
L 535.803636 45.23226 
" style="fill:none;stroke:#1f77b4;stroke-linecap:square;stroke-width:2;"/>
   </g>
   <g id="line2d_16">
    <path clip-path="url(#p52efaed9e4)" d="M 84.676364 211.272472 
L 86.532854 208.774451 
L 88.389345 208.399393 
L 90.245836 207.359648 
L 92.102327 205.778035 
L 95.815309 205.739602 
L 97.671799 205.13535 
L 99.52829 204.778552 
L 101.384781 203.906593 
L 103.241272 203.332799 
L 105.097763 203.224543 
L 106.954254 202.275353 
L 112.523726 201.831524 
L 116.236708 201.175568 
L 119.949689 200.619204 
L 123.662671 199.773728 
L 129.232144 199.463301 
L 131.088634 199.330156 
L 134.801616 197.424492 
L 138.514598 196.733083 
L 140.371089 196.718978 
L 142.227579 196.115401 
L 145.940561 196.00072 
L 147.797052 195.708252 
L 149.653543 195.218463 
L 151.510034 195.00959 
L 153.366525 193.880582 
L 155.223015 193.676392 
L 160.792488 192.441167 
L 162.648979 191.85868 
L 164.50547 191.148167 
L 166.36196 189.806357 
L 168.218451 189.761078 
L 170.074942 189.233057 
L 171.931433 187.832631 
L 173.787924 187.543088 
L 175.644415 186.116263 
L 177.500905 186.094598 
L 179.357396 184.782901 
L 181.213887 184.181211 
L 183.070378 183.066221 
L 184.926869 182.231994 
L 186.78336 181.660241 
L 188.63985 180.175665 
L 190.496341 179.452328 
L 192.352832 178.514631 
L 194.209323 178.189514 
L 196.065814 178.091467 
L 197.922305 177.467832 
L 199.778795 176.547018 
L 201.635286 175.841416 
L 203.491777 175.444607 
L 205.348268 172.960954 
L 207.204759 172.814926 
L 209.06125 172.279135 
L 210.91774 172.004623 
L 214.630722 170.58509 
L 216.487213 170.203601 
L 220.200195 169.906622 
L 222.056685 167.751566 
L 225.769667 167.445666 
L 227.626158 167.036604 
L 229.482649 166.806372 
L 231.33914 166.232732 
L 233.19563 166.19813 
L 235.052121 165.936598 
L 236.908612 164.665157 
L 238.765103 163.820855 
L 240.621594 163.118508 
L 242.478085 162.702545 
L 244.334575 162.642431 
L 248.047557 161.844499 
L 253.61703 161.517272 
L 255.47352 160.806128 
L 257.330011 159.16123 
L 259.186502 157.366618 
L 261.042993 154.820824 
L 262.899484 153.397556 
L 264.755975 153.295958 
L 266.612465 152.931006 
L 268.468956 151.093244 
L 270.325447 150.008487 
L 272.181938 149.947731 
L 274.038429 149.726824 
L 275.89492 148.484761 
L 277.75141 147.496054 
L 279.607901 146.935433 
L 281.464392 146.741442 
L 283.320883 145.621374 
L 285.177374 145.045461 
L 287.033865 144.06089 
L 288.890355 143.913597 
L 292.603337 143.024407 
L 294.459828 141.936139 
L 296.316319 140.391759 
L 298.17281 139.595582 
L 300.0293 139.311591 
L 301.885791 138.857487 
L 307.455264 137.913602 
L 309.311755 137.832464 
L 311.168245 137.115264 
L 313.024736 136.604169 
L 316.737718 135.143308 
L 320.4507 134.945317 
L 322.30719 134.523787 
L 324.163681 134.268604 
L 326.020172 134.137583 
L 327.876663 133.304384 
L 331.589645 132.314746 
L 333.446135 131.62833 
L 337.159117 131.501619 
L 339.015608 131.053375 
L 340.872099 131.032012 
L 342.72859 130.796818 
L 344.58508 130.760069 
L 346.441571 130.391921 
L 348.298062 130.331466 
L 350.154553 129.825132 
L 352.011044 128.773296 
L 361.293498 128.521807 
L 365.00648 128.432822 
L 368.719461 128.124686 
L 370.575952 127.961624 
L 372.432443 127.234388 
L 374.288934 126.784764 
L 376.145425 125.405534 
L 378.001915 125.370591 
L 383.571388 124.795265 
L 385.427879 124.192304 
L 387.28437 124.09241 
L 389.14086 123.72271 
L 390.997351 123.58729 
L 392.853842 122.786987 
L 394.710333 122.686531 
L 396.566824 121.640721 
L 398.423315 121.619554 
L 400.279805 120.866422 
L 403.992787 120.838287 
L 405.849278 120.217819 
L 409.56226 119.83023 
L 411.41875 119.448557 
L 415.131732 119.442119 
L 416.988223 119.223098 
L 420.701205 118.245225 
L 424.414186 117.088438 
L 426.270677 116.844958 
L 428.127168 116.426764 
L 431.84015 115.097654 
L 433.69664 114.742037 
L 435.553131 114.022857 
L 437.409622 113.996494 
L 439.266113 113.341452 
L 442.979095 112.70508 
L 444.835585 111.656819 
L 446.692076 110.366163 
L 448.548567 110.244786 
L 450.405058 109.010627 
L 452.261549 108.931613 
L 454.11804 108.23871 
L 455.97453 107.414806 
L 459.687512 107.256769 
L 461.544003 107.187007 
L 463.400494 106.815997 
L 465.256985 106.762992 
L 467.113475 106.044701 
L 470.826457 105.733999 
L 472.682948 104.436425 
L 474.539439 103.940074 
L 476.39593 102.8715 
L 478.252421 102.850176 
L 480.108911 102.062217 
L 481.965402 100.612153 
L 483.821893 100.565799 
L 487.534875 99.840728 
L 489.391366 96.586171 
L 491.247856 94.877124 
L 493.104347 94.826696 
L 494.960838 94.400157 
L 496.817329 91.023434 
L 498.67382 90.0435 
L 502.386801 86.394101 
L 504.243292 85.502109 
L 506.099783 84.788427 
L 507.956274 83.339954 
L 509.812765 80.293375 
L 511.669256 78.005613 
L 513.525746 77.899394 
L 515.382237 69.344181 
L 517.238728 55.674795 
L 519.095219 53.316113 
L 520.95171 51.325743 
L 522.808201 41.289096 
L 524.664691 40.346125 
L 528.377673 36.420498 
L 530.234164 33.609534 
L 532.090655 32.381514 
L 533.947146 32.265511 
L 535.803636 28.301818 
L 535.803636 28.301818 
" style="fill:none;stroke:#ff7f0e;stroke-linecap:square;"/>
   </g>
   <g id="line2d_17">
    <path clip-path="url(#p52efaed9e4)" d="M 84.676364 196.982537 
L 86.532854 196.430378 
L 88.389345 192.723181 
L 92.102327 191.527863 
L 93.958818 191.298582 
L 95.815309 190.942576 
L 97.671799 190.903289 
L 101.384781 190.51514 
L 103.241272 190.369316 
L 105.097763 190.094934 
L 106.954254 189.492092 
L 108.810744 189.325636 
L 110.667235 188.808342 
L 114.380217 188.388441 
L 116.236708 187.856716 
L 118.093199 187.815154 
L 119.949689 187.452542 
L 123.662671 187.084089 
L 125.519162 185.96698 
L 127.375653 185.814931 
L 129.232144 185.793998 
L 131.088634 185.577335 
L 132.945125 185.517051 
L 134.801616 184.619832 
L 136.658107 184.415437 
L 138.514598 184.376376 
L 140.371089 183.988377 
L 142.227579 183.474507 
L 144.08407 182.689819 
L 145.940561 182.608403 
L 147.797052 182.287919 
L 149.653543 180.661683 
L 151.510034 180.49631 
L 153.366525 180.063092 
L 155.223015 179.506096 
L 158.935997 179.483203 
L 160.792488 179.33509 
L 162.648979 179.33268 
L 164.50547 179.127822 
L 166.36196 178.229223 
L 175.644415 177.958601 
L 177.500905 177.33206 
L 179.357396 177.064418 
L 183.070378 176.245168 
L 184.926869 176.197671 
L 186.78336 175.964005 
L 192.352832 175.823696 
L 194.209323 175.719065 
L 196.065814 174.998933 
L 197.922305 174.895802 
L 199.778795 174.574122 
L 201.635286 174.514562 
L 203.491777 174.278827 
L 205.348268 173.450689 
L 210.91774 173.048956 
L 216.487213 172.339163 
L 218.343704 171.930365 
L 222.056685 171.554073 
L 223.913176 170.998324 
L 225.769667 170.964741 
L 227.626158 170.786958 
L 231.33914 169.823358 
L 235.052121 168.946134 
L 238.765103 168.46648 
L 240.621594 168.410056 
L 242.478085 167.142819 
L 244.334575 166.957647 
L 248.047557 166.874546 
L 251.760539 166.379573 
L 253.61703 166.066327 
L 255.47352 166.014546 
L 259.186502 165.127709 
L 261.042993 164.239951 
L 262.899484 164.000374 
L 268.468956 163.801247 
L 270.325447 163.676657 
L 272.181938 163.415717 
L 274.038429 163.021337 
L 275.89492 162.318114 
L 277.75141 162.203102 
L 279.607901 161.681082 
L 281.464392 160.842524 
L 283.320883 160.363677 
L 285.177374 160.335829 
L 288.890355 160.036653 
L 290.746846 159.546318 
L 292.603337 159.285735 
L 294.459828 158.791373 
L 296.316319 158.487416 
L 298.17281 158.428514 
L 300.0293 158.113182 
L 301.885791 157.991397 
L 303.742282 155.371356 
L 305.598773 155.371301 
L 309.311755 155.027115 
L 311.168245 153.180126 
L 313.024736 151.911599 
L 314.881227 151.750184 
L 316.737718 151.721168 
L 318.594209 149.826988 
L 320.4507 148.931552 
L 324.163681 148.894311 
L 326.020172 148.744139 
L 327.876663 148.299977 
L 329.733154 146.367436 
L 331.589645 146.236589 
L 333.446135 144.673894 
L 335.302626 142.583777 
L 337.159117 142.4174 
L 339.015608 142.10323 
L 340.872099 140.225155 
L 342.72859 139.922963 
L 344.58508 137.487122 
L 346.441571 133.911056 
L 350.154553 131.388505 
L 352.011044 130.331824 
L 353.867535 129.701269 
L 355.724025 128.950557 
L 357.580516 128.385553 
L 359.437007 128.093836 
L 361.293498 127.332306 
L 363.149989 126.367514 
L 365.00648 124.687118 
L 366.86297 120.38919 
L 368.719461 116.924022 
L 370.575952 116.846683 
L 372.432443 112.197232 
L 374.288934 112.108245 
L 376.145425 109.926246 
L 378.001915 108.720076 
L 379.858406 108.405751 
L 381.714897 108.331012 
L 383.571388 107.732009 
L 385.427879 107.367526 
L 387.28437 107.360821 
L 389.14086 106.295003 
L 390.997351 104.953627 
L 392.853842 104.488823 
L 394.710333 104.248187 
L 402.136296 104.097611 
L 403.992787 103.645093 
L 407.705769 103.392595 
L 409.56226 102.752566 
L 411.41875 101.744084 
L 413.275241 101.676567 
L 415.131732 100.206608 
L 416.988223 100.064574 
L 418.844714 99.102884 
L 420.701205 98.596881 
L 424.414186 98.510691 
L 428.127168 97.938875 
L 431.84015 97.76619 
L 433.69664 97.223967 
L 435.553131 97.21322 
L 437.409622 96.849728 
L 439.266113 96.763266 
L 441.122604 96.54173 
L 442.979095 96.492645 
L 446.692076 95.844292 
L 448.548567 95.805444 
L 450.405058 95.421269 
L 452.261549 95.289788 
L 454.11804 94.974251 
L 455.97453 94.358281 
L 457.831021 94.309708 
L 465.256985 93.647826 
L 467.113475 92.865829 
L 468.969966 91.835825 
L 470.826457 90.647219 
L 472.682948 90.47055 
L 474.539439 89.056758 
L 478.252421 88.415675 
L 483.821893 88.356244 
L 485.678384 86.34698 
L 487.534875 86.22966 
L 489.391366 85.854424 
L 491.247856 84.663124 
L 493.104347 83.10478 
L 494.960838 82.898025 
L 496.817329 81.201865 
L 500.530311 79.279486 
L 502.386801 79.126991 
L 504.243292 77.068967 
L 506.099783 76.896569 
L 507.956274 74.919282 
L 509.812765 73.871131 
L 511.669256 70.410013 
L 513.525746 70.261539 
L 515.382237 62.609232 
L 517.238728 56.121182 
L 519.095219 55.076747 
L 522.808201 54.477566 
L 524.664691 52.316143 
L 526.521182 52.124283 
L 528.377673 46.342639 
L 530.234164 46.012997 
L 532.090655 45.958614 
L 533.947146 43.741197 
L 535.803636 43.149801 
L 535.803636 43.149801 
" style="fill:none;stroke:#2ca02c;stroke-linecap:square;"/>
   </g>
   <g id="line2d_18">
    <path clip-path="url(#p52efaed9e4)" d="M 84.676364 216.12846 
L 86.532854 205.065386 
L 88.389345 203.217437 
L 92.102327 201.833917 
L 93.958818 200.121032 
L 95.815309 199.514686 
L 97.671799 197.98296 
L 99.52829 195.881941 
L 101.384781 195.573238 
L 103.241272 195.456193 
L 105.097763 194.298536 
L 106.954254 193.951084 
L 108.810744 193.175937 
L 110.667235 193.170748 
L 112.523726 192.963501 
L 114.380217 192.213378 
L 116.236708 192.184728 
L 118.093199 191.934188 
L 123.662671 191.521665 
L 127.375653 191.237352 
L 129.232144 190.703818 
L 131.088634 190.530741 
L 132.945125 190.163557 
L 138.514598 190.049179 
L 140.371089 189.894374 
L 144.08407 189.838125 
L 145.940561 189.311122 
L 147.797052 189.137937 
L 149.653543 188.204039 
L 153.366525 187.45931 
L 155.223015 187.27769 
L 157.079506 186.302532 
L 158.935997 186.077041 
L 164.50547 185.929515 
L 166.36196 185.611465 
L 168.218451 185.557378 
L 170.074942 184.64584 
L 173.787924 184.467367 
L 177.500905 183.915243 
L 183.070378 183.073986 
L 184.926869 183.056017 
L 186.78336 182.839174 
L 188.63985 182.488211 
L 197.922305 181.891184 
L 199.778795 181.039336 
L 201.635286 180.760682 
L 203.491777 180.705454 
L 205.348268 180.488776 
L 207.204759 179.92756 
L 212.774231 179.559817 
L 216.487213 178.530521 
L 218.343704 178.497305 
L 220.200195 178.018698 
L 229.482649 177.568294 
L 233.19563 177.316983 
L 235.052121 177.137742 
L 240.621594 176.923789 
L 242.478085 176.214463 
L 244.334575 175.940376 
L 246.191066 175.291168 
L 248.047557 175.231498 
L 249.904048 174.855591 
L 253.61703 173.581896 
L 255.47352 172.985106 
L 257.330011 172.947213 
L 259.186502 172.246776 
L 261.042993 172.160942 
L 262.899484 171.824834 
L 266.612465 171.663333 
L 272.181938 170.503859 
L 275.89492 170.42431 
L 277.75141 170.14307 
L 279.607901 170.097286 
L 281.464392 169.763152 
L 283.320883 169.572401 
L 285.177374 169.260062 
L 287.033865 169.231373 
L 288.890355 168.996428 
L 292.603337 168.980249 
L 294.459828 167.683407 
L 298.17281 167.417685 
L 300.0293 166.848445 
L 301.885791 166.786988 
L 303.742282 166.478231 
L 305.598773 165.402906 
L 307.455264 165.397805 
L 309.311755 165.073283 
L 311.168245 164.531559 
L 314.881227 163.864405 
L 318.594209 163.136493 
L 320.4507 163.083064 
L 322.30719 161.705758 
L 324.163681 161.506009 
L 326.020172 158.89288 
L 327.876663 158.328335 
L 329.733154 158.007075 
L 331.589645 157.415076 
L 333.446135 157.25023 
L 335.302626 156.687468 
L 339.015608 153.74568 
L 340.872099 151.397709 
L 342.72859 150.814405 
L 344.58508 150.505206 
L 346.441571 149.131834 
L 348.298062 147.950632 
L 350.154553 146.592897 
L 352.011044 144.964891 
L 355.724025 132.704888 
L 357.580516 132.346799 
L 359.437007 129.896368 
L 361.293498 129.219405 
L 363.149989 126.831775 
L 366.86297 122.65519 
L 368.719461 122.422604 
L 370.575952 119.403108 
L 372.432443 118.285493 
L 374.288934 118.07506 
L 376.145425 116.961702 
L 378.001915 116.601894 
L 379.858406 115.139223 
L 381.714897 113.483312 
L 387.28437 112.564253 
L 390.997351 112.456913 
L 392.853842 112.248099 
L 394.710333 110.572364 
L 398.423315 110.218335 
L 400.279805 109.944697 
L 402.136296 108.797807 
L 407.705769 108.558538 
L 411.41875 108.418672 
L 415.131732 108.22021 
L 416.988223 107.724514 
L 418.844714 106.700433 
L 420.701205 106.040715 
L 422.557695 105.952938 
L 424.414186 105.379061 
L 426.270677 105.231844 
L 428.127168 105.212363 
L 429.983659 104.880205 
L 433.69664 104.527914 
L 439.266113 103.935276 
L 441.122604 103.531181 
L 442.979095 103.381315 
L 446.692076 103.298614 
L 452.261549 103.037839 
L 454.11804 102.182522 
L 461.544003 101.503138 
L 463.400494 101.364746 
L 465.256985 100.755361 
L 467.113475 100.516255 
L 468.969966 99.838817 
L 470.826457 99.541544 
L 472.682948 99.382997 
L 474.539439 98.568426 
L 476.39593 98.34043 
L 481.965402 97.974168 
L 483.821893 97.675539 
L 485.678384 97.213477 
L 487.534875 97.167687 
L 489.391366 96.780483 
L 491.247856 95.107561 
L 493.104347 94.79213 
L 494.960838 94.694374 
L 496.817329 94.414049 
L 502.386801 93.09733 
L 506.099783 91.409744 
L 507.956274 91.080672 
L 509.812765 90.929577 
L 513.525746 89.406683 
L 515.382237 88.925957 
L 517.238728 88.82782 
L 519.095219 87.173518 
L 520.95171 86.995177 
L 524.664691 85.188955 
L 526.521182 84.671393 
L 528.377673 81.177062 
L 530.234164 79.828331 
L 532.090655 79.794764 
L 533.947146 78.371551 
L 535.803636 74.762515 
L 535.803636 74.762515 
" style="fill:none;stroke:#d62728;stroke-linecap:square;"/>
   </g>
   <g id="legend_1">
    <g id="patch_3">
     <path d="M 70.2834 57.458441 
L 274.346534 57.458441 
Q 276.678934 57.458441 276.678934 55.126041 
L 276.678934 25.8034 
Q 276.678934 23.471 274.346534 23.471 
L 70.2834 23.471 
Q 67.951 23.471 67.951 25.8034 
L 67.951 55.126041 
Q 67.951 57.458441 70.2834 57.458441 
z
" style="fill:#ffffff;opacity:0.8;stroke:#cccccc;stroke-linejoin:miter;"/>
    </g>
    <g id="line2d_19">
     <path d="M 72.6158 32.505406 
L 95.9398 32.505406 
" style="fill:none;stroke:#1f77b4;stroke-linecap:square;stroke-width:2;"/>
    </g>
    <g id="line2d_20"/>
    <g id="text_16">
     <!-- MARKET -->
     <defs>
      <path d="M 54.6875 0 
L 54.6875 45.90625 
Q 54.6875 48.390625 54.734375 50.96875 
Q 54.78125 53.5625 54.828125 55.71875 
Q 54.9375 58.203125 55.078125 60.546875 
Q 54.546875 58.0625 53.90625 55.609375 
Q 53.90625 55.609375 52.734375 51.171875 
Q 52.15625 48.78125 51.515625 46.875 
L 36.96875 0 
L 31.59375 0 
L 16.796875 46.875 
Q 16.546875 47.609375 16.3125 48.578125 
L 15.765625 50.6875 
L 15.140625 52.9375 
L 14.546875 55.171875 
Q 13.875 57.765625 13.234375 60.546875 
Q 13.28125 57.8125 13.375 55.125 
Q 13.484375 52.828125 13.5 50.3125 
Q 13.53125 47.796875 13.53125 45.90625 
L 13.53125 0 
L 6.734375 0 
L 6.734375 68.796875 
L 16.796875 68.796875 
L 31.78125 21.09375 
Q 32.078125 20.125 32.46875 18.578125 
Q 32.859375 17.046875 33.21875 15.421875 
Q 33.59375 13.8125 33.890625 12.375 
Q 34.1875 10.9375 34.328125 10.15625 
Q 34.421875 10.9375 34.734375 12.40625 
Q 35.0625 13.875 35.5 15.484375 
L 36.328125 18.609375 
Q 36.71875 20.125 37.0625 21.09375 
L 51.765625 68.796875 
L 61.578125 68.796875 
L 61.578125 0 
z
" id="LiberationSansNarrow-77"/>
      <path d="M 46.734375 0 
L 40.28125 20.125 
L 14.546875 20.125 
L 8.109375 0 
L 0.140625 0 
L 23.1875 68.796875 
L 31.890625 68.796875 
L 54.546875 0 
z
M 30.765625 50.09375 
Q 30.125 52.046875 29.546875 54.046875 
L 28.515625 57.71875 
L 27.734375 60.453125 
Q 27.4375 61.53125 27.4375 61.765625 
Q 27.34375 61.53125 27.078125 60.40625 
Q 26.8125 59.28125 26.375 57.625 
L 25.296875 53.953125 
L 24.125 50 
L 16.890625 27.390625 
L 37.984375 27.390625 
z
" id="LiberationSansNarrow-65"/>
      <path d="M 46.578125 0 
L 31.9375 28.5625 
L 14.359375 28.5625 
L 14.359375 0 
L 6.734375 0 
L 6.734375 68.796875 
L 33.25 68.796875 
Q 38.03125 68.796875 41.734375 67.453125 
Q 45.453125 66.109375 47.96875 63.5625 
Q 50.484375 61.03125 51.796875 57.375 
Q 53.125 53.71875 53.125 49.125 
Q 53.125 45.84375 52.34375 42.671875 
Q 51.5625 39.5 49.875 36.859375 
Q 48.1875 34.234375 45.59375 32.328125 
Q 43.015625 30.421875 39.359375 29.640625 
L 55.375 0 
z
M 45.453125 49.03125 
Q 45.453125 52.15625 44.578125 54.4375 
Q 43.703125 56.734375 42.015625 58.265625 
Q 40.328125 59.8125 37.9375 60.5625 
Q 35.546875 61.328125 32.46875 61.328125 
L 14.359375 61.328125 
L 14.359375 35.9375 
L 32.8125 35.9375 
Q 36.078125 35.9375 38.5 36.9375 
Q 40.921875 37.9375 42.453125 39.6875 
Q 44 41.453125 44.71875 43.84375 
Q 45.453125 46.234375 45.453125 49.03125 
z
" id="LiberationSansNarrow-82"/>
      <path d="M 44.28125 0 
L 21.734375 33.203125 
L 14.359375 26.375 
L 14.359375 0 
L 6.734375 0 
L 6.734375 68.796875 
L 14.359375 68.796875 
L 14.359375 34.328125 
L 41.546875 68.796875 
L 50.59375 68.796875 
L 26.5625 38.921875 
L 53.765625 0 
z
" id="LiberationSansNarrow-75"/>
      <path d="M 6.734375 0 
L 6.734375 68.796875 
L 49.515625 68.796875 
L 49.515625 61.1875 
L 14.359375 61.1875 
L 14.359375 39.109375 
L 47.125 39.109375 
L 47.125 31.59375 
L 14.359375 31.59375 
L 14.359375 7.625 
L 51.171875 7.625 
L 51.171875 0 
z
" id="LiberationSansNarrow-69"/>
      <path d="M 28.8125 61.1875 
L 28.8125 0 
L 21.234375 0 
L 21.234375 61.1875 
L 1.859375 61.1875 
L 1.859375 68.796875 
L 48.1875 68.796875 
L 48.1875 61.1875 
z
" id="LiberationSansNarrow-84"/>
     </defs>
     <g transform="translate(105.2694 36.587106)scale(0.11662 -0.11662)">
      <use xlink:href="#LiberationSansNarrow-77"/>
      <use x="68.310547" xlink:href="#LiberationSansNarrow-65"/>
      <use x="122.998047" xlink:href="#LiberationSansNarrow-82"/>
      <use x="182.177734" xlink:href="#LiberationSansNarrow-75"/>
      <use x="236.865234" xlink:href="#LiberationSansNarrow-69"/>
      <use x="291.552734" xlink:href="#LiberationSansNarrow-84"/>
     </g>
    </g>
    <g id="line2d_21">
     <path d="M 72.6158 46.292076 
L 95.9398 46.292076 
" style="fill:none;stroke:#ff7f0e;stroke-linecap:square;"/>
    </g>
    <g id="line2d_22"/>
    <g id="text_17">
     <!-- Hop -->
     <defs>
      <path d="M 44.875 0 
L 44.875 31.890625 
L 14.359375 31.890625 
L 14.359375 0 
L 6.734375 0 
L 6.734375 68.796875 
L 14.359375 68.796875 
L 14.359375 39.703125 
L 44.875 39.703125 
L 44.875 68.796875 
L 52.484375 68.796875 
L 52.484375 0 
z
" id="LiberationSansNarrow-72"/>
      <path d="M 42.140625 26.46875 
Q 42.140625 12.59375 37.125 5.796875 
Q 32.125 -0.984375 22.609375 -0.984375 
Q 18.0625 -0.984375 14.515625 0.671875 
Q 10.984375 2.34375 8.515625 5.765625 
Q 6.0625 9.1875 4.765625 14.328125 
Q 3.46875 19.484375 3.46875 26.46875 
Q 3.46875 53.8125 22.859375 53.8125 
Q 27.875 53.8125 31.5625 52.09375 
Q 35.25 50.390625 37.59375 46.96875 
Q 39.9375 43.5625 41.03125 38.421875 
Q 42.140625 33.296875 42.140625 26.46875 
z
M 34.578125 26.46875 
Q 34.578125 32.625 33.8125 36.625 
Q 33.0625 40.625 31.546875 43.015625 
Q 30.03125 45.40625 27.859375 46.359375 
Q 25.6875 47.3125 23 47.3125 
Q 20.21875 47.3125 17.984375 46.3125 
Q 15.765625 45.3125 14.203125 42.890625 
Q 12.640625 40.484375 11.828125 36.46875 
Q 11.03125 32.46875 11.03125 26.46875 
Q 11.03125 20.3125 11.90625 16.28125 
Q 12.796875 12.25 14.328125 9.859375 
Q 15.875 7.46875 17.96875 6.484375 
Q 20.0625 5.515625 22.5625 5.515625 
Q 25.34375 5.515625 27.5625 6.46875 
Q 29.78125 7.421875 31.34375 9.8125 
Q 32.90625 12.203125 33.734375 16.25 
Q 34.578125 20.3125 34.578125 26.46875 
z
" id="LiberationSansNarrow-111"/>
      <path d="M 42.140625 26.65625 
Q 42.140625 20.65625 41.359375 15.578125 
Q 40.578125 10.5 38.6875 6.828125 
Q 36.8125 3.171875 33.765625 1.09375 
Q 30.71875 -0.984375 26.21875 -0.984375 
Q 21.578125 -0.984375 18.078125 1.171875 
Q 14.59375 3.328125 12.796875 8.203125 
L 12.546875 8.203125 
Q 12.59375 8.109375 12.609375 7.328125 
Q 12.640625 6.546875 12.671875 5.375 
Q 12.703125 4.203125 12.71875 2.75 
Q 12.75 1.3125 12.75 -0.09375 
L 12.75 -20.75 
L 5.515625 -20.75 
L 5.515625 42.046875 
Q 5.515625 43.953125 5.484375 45.703125 
Q 5.46875 47.46875 5.4375 48.90625 
Q 5.421875 50.34375 5.375 51.359375 
Q 5.328125 52.390625 5.28125 52.828125 
L 12.25 52.828125 
Q 12.3125 52.6875 12.359375 51.8125 
L 12.5 49.703125 
Q 12.546875 48.4375 12.59375 47.015625 
Q 12.640625 45.609375 12.640625 44.34375 
L 12.796875 44.34375 
Q 13.765625 46.875 15.0625 48.65625 
Q 16.359375 50.4375 18.015625 51.578125 
Q 19.671875 52.734375 21.671875 53.25 
Q 23.6875 53.765625 26.21875 53.765625 
Q 30.71875 53.765625 33.765625 51.8125 
Q 36.8125 49.859375 38.6875 46.3125 
Q 40.578125 42.78125 41.359375 37.765625 
Q 42.140625 32.765625 42.140625 26.65625 
z
M 34.578125 26.46875 
Q 34.578125 31.34375 34.109375 35.15625 
Q 33.640625 38.96875 32.4375 41.59375 
Q 31.25 44.234375 29.296875 45.59375 
Q 27.34375 46.96875 24.359375 46.96875 
Q 21.96875 46.96875 19.84375 46.140625 
Q 17.71875 45.3125 16.125 42.96875 
Q 14.546875 40.625 13.640625 36.5 
Q 12.75 32.375 12.75 25.78125 
Q 12.75 20.171875 13.5 16.28125 
Q 14.265625 12.40625 15.71875 10.015625 
Q 17.1875 7.625 19.328125 6.5625 
Q 21.484375 5.515625 24.3125 5.515625 
Q 27.34375 5.515625 29.296875 6.921875 
Q 31.25 8.34375 32.4375 11.03125 
Q 33.640625 13.71875 34.109375 17.59375 
Q 34.578125 21.484375 34.578125 26.46875 
z
" id="LiberationSansNarrow-112"/>
     </defs>
     <g transform="translate(105.2694 50.373776)scale(0.11662 -0.11662)">
      <use xlink:href="#LiberationSansNarrow-72"/>
      <use x="59.179688" xlink:href="#LiberationSansNarrow-111"/>
      <use x="104.785156" xlink:href="#LiberationSansNarrow-112"/>
     </g>
    </g>
    <g id="line2d_23">
     <path d="M 156.775352 32.505406 
L 180.099352 32.505406 
" style="fill:none;stroke:#2ca02c;stroke-linecap:square;"/>
    </g>
    <g id="line2d_24"/>
    <g id="text_18">
     <!-- Lgro -->
     <defs>
      <path d="M 6.734375 0 
L 6.734375 68.796875 
L 14.359375 68.796875 
L 14.359375 7.625 
L 42.875 7.625 
L 42.875 0 
z
" id="LiberationSansNarrow-76"/>
      <path d="M 21.921875 -20.75 
Q 18.21875 -20.75 15.328125 -19.8125 
Q 12.453125 -18.890625 10.390625 -17.15625 
Q 8.34375 -15.4375 7.078125 -13.03125 
Q 5.8125 -10.640625 5.21875 -7.71875 
L 12.5 -6.453125 
Q 13.234375 -10.109375 15.671875 -12.078125 
Q 18.109375 -14.0625 22.125 -14.0625 
Q 24.5625 -14.0625 26.5625 -13.234375 
Q 28.5625 -12.40625 29.96875 -10.5625 
Q 31.390625 -8.734375 32.140625 -5.796875 
Q 32.90625 -2.875 32.90625 1.3125 
L 32.90625 9.8125 
L 32.8125 9.8125 
Q 32.03125 7.8125 30.859375 5.984375 
Q 29.6875 4.15625 27.96875 2.734375 
Q 26.265625 1.3125 24.015625 0.453125 
Q 21.78125 -0.390625 18.890625 -0.390625 
Q 14.796875 -0.390625 11.84375 1.296875 
Q 8.890625 2.984375 7.03125 6.34375 
Q 5.171875 9.71875 4.3125 14.71875 
Q 3.46875 19.734375 3.46875 26.3125 
Q 3.46875 32.671875 4.3125 37.75 
Q 5.171875 42.828125 7.09375 46.359375 
Q 9.03125 49.90625 12.125 51.78125 
Q 15.234375 53.65625 19.671875 53.65625 
Q 24.265625 53.65625 27.65625 51.09375 
Q 31.0625 48.53125 32.90625 43.796875 
L 33.015625 43.796875 
Q 33.015625 45.015625 33.0625 46.53125 
Q 33.109375 48.046875 33.171875 49.390625 
Q 33.25 50.734375 33.328125 51.703125 
Q 33.40625 52.6875 33.5 52.828125 
L 40.328125 52.828125 
Q 40.28125 52.390625 40.234375 51.34375 
Q 40.1875 50.296875 40.15625 48.828125 
Q 40.140625 47.359375 40.109375 45.578125 
Q 40.09375 43.796875 40.09375 41.890625 
L 40.09375 1.515625 
Q 40.09375 -9.578125 35.625 -15.15625 
Q 31.15625 -20.75 21.921875 -20.75 
z
M 32.90625 26.421875 
Q 32.90625 31.9375 31.921875 35.859375 
Q 30.953125 39.796875 29.34375 42.28125 
Q 27.734375 44.78125 25.6875 45.953125 
Q 23.640625 47.125 21.484375 47.125 
Q 18.703125 47.125 16.71875 45.953125 
Q 14.75 44.78125 13.421875 42.265625 
Q 12.109375 39.75 11.5 35.8125 
Q 10.890625 31.890625 10.890625 26.421875 
Q 10.890625 20.703125 11.5 16.8125 
Q 12.109375 12.9375 13.40625 10.546875 
Q 14.703125 8.15625 16.65625 7.125 
Q 18.609375 6.109375 21.34375 6.109375 
Q 23.484375 6.109375 25.5625 7.21875 
Q 27.640625 8.34375 29.265625 10.78125 
Q 30.90625 13.234375 31.90625 17.09375 
Q 32.90625 20.953125 32.90625 26.421875 
z
" id="LiberationSansNarrow-103"/>
      <path d="M 5.671875 0 
L 5.671875 40.53125 
Q 5.671875 40.53125 5.671875 43.953125 
Q 5.671875 45.65625 5.609375 47.265625 
Q 5.5625 48.875 5.515625 50.28125 
Q 5.46875 51.703125 5.421875 52.828125 
L 12.25 52.828125 
Q 12.3125 51.703125 12.359375 50.265625 
Q 12.40625 48.828125 12.46875 47.3125 
Q 12.546875 45.796875 12.546875 44.4375 
L 12.546875 42.046875 
L 12.75 42.046875 
Q 13.53125 45.0625 14.359375 47.28125 
Q 15.1875 49.515625 16.359375 50.953125 
Q 17.53125 52.390625 19.140625 53.09375 
Q 20.75 53.8125 23 53.8125 
Q 23.875 53.8125 24.671875 53.640625 
Q 25.484375 53.46875 25.921875 53.328125 
L 25.921875 45.265625 
Q 25.203125 45.515625 24.25 45.625 
Q 23.296875 45.75 22.078125 45.75 
Q 19.578125 45.75 17.84375 44.375 
Q 16.109375 43.015625 15.015625 40.59375 
Q 13.921875 38.1875 13.40625 34.84375 
Q 12.890625 31.5 12.890625 27.546875 
L 12.890625 0 
z
" id="LiberationSansNarrow-114"/>
     </defs>
     <g transform="translate(189.428952 36.587106)scale(0.11662 -0.11662)">
      <use xlink:href="#LiberationSansNarrow-76"/>
      <use x="45.605469" xlink:href="#LiberationSansNarrow-103"/>
      <use x="91.210938" xlink:href="#LiberationSansNarrow-114"/>
      <use x="118.505859" xlink:href="#LiberationSansNarrow-111"/>
     </g>
    </g>
    <g id="line2d_25">
     <path d="M 220.231209 32.505406 
L 243.555209 32.505406 
" style="fill:none;stroke:#d62728;stroke-linecap:square;"/>
    </g>
    <g id="line2d_26"/>
    <g id="text_19">
     <!-- Hdiv -->
     <defs>
      <path d="M 32.859375 8.5 
Q 30.859375 3.421875 27.5625 1.21875 
Q 24.265625 -0.984375 19.390625 -0.984375 
Q 11.1875 -0.984375 7.328125 5.75 
Q 3.46875 12.5 3.46875 26.171875 
Q 3.46875 53.8125 19.390625 53.8125 
Q 24.3125 53.8125 27.578125 51.609375 
Q 30.859375 49.421875 32.859375 44.625 
L 32.953125 44.625 
Q 32.953125 45.125 32.90625 46.1875 
L 32.90625 48.34375 
Q 32.859375 49.515625 32.859375 50.53125 
L 32.859375 52 
L 32.859375 72.46875 
L 40.09375 72.46875 
L 40.09375 10.890625 
Q 40.09375 8.984375 40.109375 7.21875 
Q 40.140625 5.46875 40.15625 4 
Q 40.1875 2.546875 40.234375 1.484375 
Q 40.28125 0.4375 40.328125 0 
L 33.453125 0 
Q 33.34375 0.484375 33.296875 1.390625 
Q 33.25 2.296875 33.171875 3.46875 
Q 33.109375 4.640625 33.078125 5.9375 
Q 33.0625 7.234375 33.0625 8.5 
z
M 11.03125 26.46875 
Q 11.03125 21 11.5625 17.09375 
Q 12.109375 13.1875 13.34375 10.671875 
Q 14.59375 8.15625 16.515625 6.984375 
Q 18.453125 5.8125 21.234375 5.8125 
Q 24.078125 5.8125 26.25 6.9375 
Q 28.421875 8.0625 29.875 10.578125 
Q 31.34375 13.09375 32.09375 17.140625 
Q 32.859375 21.1875 32.859375 27.046875 
Q 32.859375 32.671875 32.09375 36.546875 
Q 31.34375 40.4375 29.859375 42.828125 
Q 28.375 45.21875 26.25 46.265625 
Q 24.125 47.3125 21.296875 47.3125 
Q 18.65625 47.3125 16.71875 46.1875 
Q 14.796875 45.0625 13.515625 42.578125 
Q 12.25 40.09375 11.640625 36.109375 
Q 11.03125 32.125 11.03125 26.46875 
z
" id="LiberationSansNarrow-100"/>
      <path d="M 5.46875 64.0625 
L 5.46875 72.46875 
L 12.703125 72.46875 
L 12.703125 64.0625 
z
M 5.46875 0 
L 5.46875 52.828125 
L 12.703125 52.828125 
L 12.703125 0 
z
" id="LiberationSansNarrow-105"/>
      <path d="M 24.5625 0 
L 16.015625 0 
L 0.296875 52.828125 
L 7.953125 52.828125 
L 17.484375 18.453125 
Q 17.484375 18.453125 18.171875 15.828125 
L 18.953125 12.640625 
L 19.671875 9.46875 
L 20.265625 6.890625 
Q 20.265625 6.890625 20.90625 9.46875 
L 21.6875 12.59375 
Q 22.078125 14.203125 22.484375 15.734375 
Q 22.90625 17.28125 23.25 18.359375 
L 33.109375 52.828125 
L 40.71875 52.828125 
z
" id="LiberationSansNarrow-118"/>
     </defs>
     <g transform="translate(252.884809 36.587106)scale(0.11662 -0.11662)">
      <use xlink:href="#LiberationSansNarrow-72"/>
      <use x="59.179688" xlink:href="#LiberationSansNarrow-100"/>
      <use x="104.785156" xlink:href="#LiberationSansNarrow-105"/>
      <use x="122.998047" xlink:href="#LiberationSansNarrow-118"/>
     </g>
    </g>
   </g>
  </g>
 </g>
 <defs>
  <clipPath id="p52efaed9e4">
   <rect height="234.56" width="496.24" x="62.12" y="17.64"/>
  </clipPath>
 </defs>
</svg>
