<?xml version="1.0" encoding="utf-8" standalone="no"?>
<!DOCTYPE svg PUBLIC "-//W3C//DTD SVG 1.1//EN"
  "http://www.w3.org/Graphics/SVG/1.1/DTD/svg11.dtd">
<!-- Created with matplotlib (https://matplotlib.org/) -->
<svg height="288pt" version="1.1" viewBox="0 0 576 288" width="576pt" xmlns="http://www.w3.org/2000/svg" xmlns:xlink="http://www.w3.org/1999/xlink">
 <defs>
  <style type="text/css">
*{stroke-linecap:butt;stroke-linejoin:round;}
  </style>
 </defs>
 <g id="figure_1">
  <g id="patch_1">
   <path d="M 0 288 
L 576 288 
L 576 0 
L 0 0 
z
" style="fill:#ffffff;"/>
  </g>
  <g id="axes_1">
   <g id="patch_2">
    <path d="M 52.58 252.2 
L 558.36 252.2 
L 558.36 17.64 
L 52.58 17.64 
z
" style="fill:#ffffff;"/>
   </g>
   <g id="matplotlib.axis_1">
    <g id="xtick_1">
     <g id="line2d_1">
      <path clip-path="url(#p3cb058bee1)" d="M 75.57 252.2 
L 75.57 17.64 
" style="fill:none;stroke:#b0b0b0;stroke-dasharray:1.48,0.64;stroke-dashoffset:0;stroke-width:0.4;"/>
     </g>
     <g id="text_1">
      <!-- 0.0 -->
      <defs>
       <path d="M 42.390625 34.421875 
Q 42.390625 24.515625 40.84375 17.75 
Q 39.3125 10.984375 36.640625 6.8125 
Q 33.984375 2.640625 30.390625 0.828125 
Q 26.8125 -0.984375 22.703125 -0.984375 
Q 18.609375 -0.984375 15.03125 0.828125 
Q 11.46875 2.640625 8.828125 6.78125 
Q 6.203125 10.9375 4.703125 17.703125 
Q 3.21875 24.46875 3.21875 34.421875 
Q 3.21875 44.828125 4.703125 51.640625 
Q 6.203125 58.453125 8.828125 62.5 
Q 11.46875 66.546875 15.078125 68.1875 
Q 18.703125 69.828125 22.953125 69.828125 
Q 27 69.828125 30.53125 68.1875 
Q 34.078125 66.546875 36.71875 62.5 
Q 39.359375 58.453125 40.875 51.640625 
Q 42.390625 44.828125 42.390625 34.421875 
z
M 35.0625 34.421875 
Q 35.0625 42.625 34.28125 48.0625 
Q 33.5 53.515625 31.9375 56.765625 
Q 30.375 60.015625 28.09375 61.359375 
Q 25.828125 62.703125 22.953125 62.703125 
Q 19.921875 62.703125 17.578125 61.328125 
Q 15.234375 59.96875 13.671875 56.71875 
Q 12.109375 53.46875 11.296875 48.015625 
Q 10.5 42.578125 10.5 34.421875 
Q 10.5 26.515625 11.296875 21.09375 
Q 12.109375 15.671875 13.6875 12.375 
Q 15.28125 9.078125 17.578125 7.640625 
Q 19.875 6.203125 22.796875 6.203125 
Q 25.640625 6.203125 27.90625 7.640625 
Q 30.171875 9.078125 31.75 12.375 
Q 33.34375 15.671875 34.203125 21.09375 
Q 35.0625 26.515625 35.0625 34.421875 
z
" id="LiberationSansNarrow-48"/>
       <path d="M 7.46875 0 
L 7.46875 10.6875 
L 15.328125 10.6875 
L 15.328125 0 
z
" id="LiberationSansNarrow-46"/>
      </defs>
      <g transform="translate(67.588906 269.345625)scale(0.14 -0.14)">
       <use xlink:href="#LiberationSansNarrow-48"/>
       <use x="45.605469" xlink:href="#LiberationSansNarrow-46"/>
       <use x="68.408203" xlink:href="#LiberationSansNarrow-48"/>
      </g>
     </g>
    </g>
    <g id="xtick_2">
     <g id="line2d_2">
      <path clip-path="url(#p3cb058bee1)" d="M 167.53 252.2 
L 167.53 17.64 
" style="fill:none;stroke:#b0b0b0;stroke-dasharray:1.48,0.64;stroke-dashoffset:0;stroke-width:0.4;"/>
     </g>
     <g id="text_2">
      <!-- 0.2 -->
      <defs>
       <path d="M 4.109375 0 
L 4.109375 6.203125 
Q 6.15625 11.921875 9.109375 16.28125 
Q 12.0625 20.65625 15.3125 24.1875 
Q 18.5625 27.734375 21.734375 30.765625 
Q 24.90625 33.796875 27.46875 36.8125 
Q 30.03125 39.84375 31.609375 43.15625 
Q 33.203125 46.484375 33.203125 50.6875 
Q 33.203125 53.609375 32.46875 55.828125 
Q 31.734375 58.0625 30.390625 59.5625 
Q 29.046875 61.078125 27.140625 61.828125 
Q 25.25 62.59375 22.90625 62.59375 
Q 20.75 62.59375 18.84375 61.859375 
Q 16.9375 61.140625 15.453125 59.671875 
Q 13.96875 58.203125 13.03125 56.03125 
Q 12.109375 53.859375 11.8125 50.984375 
L 4.4375 51.8125 
Q 4.78125 55.515625 6.125 58.78125 
Q 7.46875 62.0625 9.78125 64.53125 
Q 12.109375 67 15.359375 68.40625 
Q 18.609375 69.828125 22.90625 69.828125 
Q 27.09375 69.828125 30.390625 68.609375 
Q 33.6875 67.390625 35.9375 64.984375 
Q 38.1875 62.59375 39.40625 59.078125 
Q 40.625 55.5625 40.625 50.984375 
Q 40.625 47.515625 39.59375 44.390625 
Q 38.578125 41.265625 36.859375 38.421875 
Q 35.15625 35.59375 32.90625 32.953125 
Q 30.671875 30.328125 28.21875 27.828125 
L 23.296875 22.859375 
Q 20.796875 20.359375 18.625 17.859375 
Q 16.453125 15.375 14.734375 12.8125 
Q 13.03125 10.25 12.0625 7.46875 
L 41.5 7.46875 
L 41.5 0 
z
" id="LiberationSansNarrow-50"/>
      </defs>
      <g transform="translate(159.548906 269.345625)scale(0.14 -0.14)">
       <use xlink:href="#LiberationSansNarrow-48"/>
       <use x="45.605469" xlink:href="#LiberationSansNarrow-46"/>
       <use x="68.408203" xlink:href="#LiberationSansNarrow-50"/>
      </g>
     </g>
    </g>
    <g id="xtick_3">
     <g id="line2d_3">
      <path clip-path="url(#p3cb058bee1)" d="M 259.49 252.2 
L 259.49 17.64 
" style="fill:none;stroke:#b0b0b0;stroke-dasharray:1.48,0.64;stroke-dashoffset:0;stroke-width:0.4;"/>
     </g>
     <g id="text_3">
      <!-- 0.4 -->
      <defs>
       <path d="M 35.25 15.578125 
L 35.25 0 
L 28.46875 0 
L 28.46875 15.578125 
L 1.90625 15.578125 
L 1.90625 22.40625 
L 27.6875 68.796875 
L 35.25 68.796875 
L 35.25 22.515625 
L 43.21875 22.515625 
L 43.21875 15.578125 
z
M 28.46875 58.890625 
Q 28.375 58.640625 28.03125 57.90625 
L 27.34375 56.34375 
L 26.5625 54.59375 
Q 26.125 53.65625 25.78125 53.078125 
L 11.328125 27.09375 
Q 11.140625 26.703125 10.75 26.078125 
L 9.96875 24.8125 
L 9.1875 23.484375 
Q 8.796875 22.859375 8.546875 22.515625 
L 28.46875 22.515625 
z
" id="LiberationSansNarrow-52"/>
      </defs>
      <g transform="translate(251.508906 269.345625)scale(0.14 -0.14)">
       <use xlink:href="#LiberationSansNarrow-48"/>
       <use x="45.605469" xlink:href="#LiberationSansNarrow-46"/>
       <use x="68.408203" xlink:href="#LiberationSansNarrow-52"/>
      </g>
     </g>
    </g>
    <g id="xtick_4">
     <g id="line2d_4">
      <path clip-path="url(#p3cb058bee1)" d="M 351.45 252.2 
L 351.45 17.64 
" style="fill:none;stroke:#b0b0b0;stroke-dasharray:1.48,0.64;stroke-dashoffset:0;stroke-width:0.4;"/>
     </g>
     <g id="text_4">
      <!-- 0.6 -->
      <defs>
       <path d="M 42 22.515625 
Q 42 17.328125 40.828125 13 
Q 39.65625 8.6875 37.359375 5.578125 
Q 35.0625 2.484375 31.640625 0.75 
Q 28.21875 -0.984375 23.78125 -0.984375 
Q 18.84375 -0.984375 15.15625 1.3125 
Q 11.46875 3.609375 9.03125 7.921875 
Q 6.59375 12.25 5.375 18.53125 
Q 4.15625 24.8125 4.15625 32.8125 
Q 4.15625 42 5.546875 48.921875 
Q 6.9375 55.859375 9.515625 60.5 
Q 12.109375 65.140625 15.859375 67.484375 
Q 19.625 69.828125 24.359375 69.828125 
Q 27.25 69.828125 29.765625 69.09375 
Q 32.28125 68.359375 34.328125 66.71875 
Q 36.375 65.09375 37.9375 62.40625 
Q 39.5 59.71875 40.4375 55.8125 
L 33.546875 54.296875 
Q 32.421875 58.734375 29.953125 60.71875 
Q 27.484375 62.703125 24.265625 62.703125 
Q 21.296875 62.703125 18.890625 60.984375 
Q 16.5 59.28125 14.8125 55.875 
Q 13.140625 52.484375 12.234375 47.359375 
Q 11.328125 42.234375 11.328125 35.40625 
Q 13.28125 39.84375 16.84375 42.15625 
Q 20.40625 44.484375 25.046875 44.484375 
Q 28.90625 44.484375 32 42.96875 
Q 35.109375 41.453125 37.328125 38.59375 
Q 39.546875 35.75 40.765625 31.671875 
Q 42 27.59375 42 22.515625 
z
M 34.671875 22.125 
Q 34.671875 25.6875 33.953125 28.5625 
Q 33.25 31.453125 31.8125 33.46875 
Q 30.375 35.5 28.25 36.59375 
Q 26.125 37.703125 23.296875 37.703125 
Q 21.34375 37.703125 19.328125 36.984375 
Q 17.328125 36.28125 15.71875 34.6875 
Q 14.109375 33.109375 13.078125 30.515625 
Q 12.0625 27.9375 12.0625 24.21875 
Q 12.0625 20.40625 12.859375 17.109375 
Q 13.671875 13.8125 15.15625 11.375 
Q 16.65625 8.9375 18.78125 7.515625 
Q 20.90625 6.109375 23.53125 6.109375 
Q 26.125 6.109375 28.203125 7.203125 
Q 30.28125 8.296875 31.71875 10.375 
Q 33.15625 12.453125 33.90625 15.421875 
Q 34.671875 18.40625 34.671875 22.125 
z
" id="LiberationSansNarrow-54"/>
      </defs>
      <g transform="translate(343.468906 269.345625)scale(0.14 -0.14)">
       <use xlink:href="#LiberationSansNarrow-48"/>
       <use x="45.605469" xlink:href="#LiberationSansNarrow-46"/>
       <use x="68.408203" xlink:href="#LiberationSansNarrow-54"/>
      </g>
     </g>
    </g>
    <g id="xtick_5">
     <g id="line2d_5">
      <path clip-path="url(#p3cb058bee1)" d="M 443.41 252.2 
L 443.41 17.64 
" style="fill:none;stroke:#b0b0b0;stroke-dasharray:1.48,0.64;stroke-dashoffset:0;stroke-width:0.4;"/>
     </g>
     <g id="text_5">
      <!-- 0.8 -->
      <defs>
       <path d="M 42.046875 19.1875 
Q 42.046875 14.796875 40.890625 11.109375 
Q 39.75 7.421875 37.40625 4.734375 
Q 35.0625 2.046875 31.421875 0.53125 
Q 27.78125 -0.984375 22.796875 -0.984375 
Q 17.828125 -0.984375 14.203125 0.53125 
Q 10.59375 2.046875 8.21875 4.703125 
Q 5.859375 7.375 4.703125 11.0625 
Q 3.5625 14.75 3.5625 19.09375 
Q 3.5625 22.859375 4.515625 25.78125 
Q 5.46875 28.71875 7.03125 30.828125 
Q 8.59375 32.953125 10.609375 34.25 
Q 12.640625 35.546875 14.796875 35.984375 
L 14.796875 36.1875 
Q 12.453125 36.859375 10.59375 38.375 
Q 8.734375 39.890625 7.46875 42.015625 
Q 6.203125 44.140625 5.546875 46.71875 
Q 4.890625 49.3125 4.890625 52.203125 
Q 4.890625 55.8125 6.03125 59 
Q 7.171875 62.203125 9.421875 64.625 
Q 11.671875 67.046875 14.984375 68.4375 
Q 18.3125 69.828125 22.65625 69.828125 
Q 27.25 69.828125 30.640625 68.40625 
Q 34.03125 67 36.25 64.578125 
Q 38.484375 62.15625 39.546875 58.9375 
Q 40.625 55.71875 40.625 52.09375 
Q 40.625 49.265625 39.96875 46.671875 
Q 39.3125 44.09375 38.0625 41.96875 
Q 36.8125 39.84375 34.9375 38.34375 
Q 33.0625 36.859375 30.609375 36.28125 
L 30.609375 36.078125 
Q 33.0625 35.59375 35.15625 34.296875 
Q 37.25 33.015625 38.765625 30.890625 
Q 40.28125 28.765625 41.15625 25.828125 
Q 42.046875 22.90625 42.046875 19.1875 
z
M 33.15625 51.609375 
Q 33.15625 54.203125 32.609375 56.34375 
Q 32.078125 58.5 30.828125 60.03125 
Q 29.59375 61.578125 27.59375 62.421875 
Q 25.59375 63.28125 22.65625 63.28125 
Q 19.828125 63.28125 17.875 62.421875 
Q 15.921875 61.578125 14.640625 60.03125 
Q 13.375 58.5 12.8125 56.34375 
Q 12.25 54.203125 12.25 51.609375 
Q 12.25 49.5625 12.6875 47.40625 
Q 13.140625 45.265625 14.3125 43.5 
Q 15.484375 41.75 17.5 40.625 
Q 19.53125 39.5 22.75 39.5 
Q 26.171875 39.5 28.21875 40.625 
Q 30.28125 41.75 31.375 43.5 
Q 32.46875 45.265625 32.8125 47.40625 
Q 33.15625 49.5625 33.15625 51.609375 
z
M 34.578125 20.015625 
Q 34.578125 22.515625 34.015625 24.828125 
Q 33.453125 27.15625 32.078125 28.9375 
Q 30.71875 30.71875 28.421875 31.8125 
Q 26.125 32.90625 22.65625 32.90625 
Q 19.484375 32.90625 17.265625 31.8125 
Q 15.046875 30.71875 13.671875 28.90625 
Q 12.3125 27.09375 11.671875 24.71875 
Q 11.03125 22.359375 11.03125 19.828125 
Q 11.03125 16.65625 11.671875 14.03125 
Q 12.3125 11.421875 13.703125 9.546875 
Q 15.09375 7.671875 17.375 6.640625 
Q 19.671875 5.609375 22.90625 5.609375 
Q 26.171875 5.609375 28.421875 6.640625 
Q 30.671875 7.671875 32.03125 9.546875 
Q 33.40625 11.421875 33.984375 14.078125 
Q 34.578125 16.75 34.578125 20.015625 
z
" id="LiberationSansNarrow-56"/>
      </defs>
      <g transform="translate(435.428906 269.345625)scale(0.14 -0.14)">
       <use xlink:href="#LiberationSansNarrow-48"/>
       <use x="45.605469" xlink:href="#LiberationSansNarrow-46"/>
       <use x="68.408203" xlink:href="#LiberationSansNarrow-56"/>
      </g>
     </g>
    </g>
    <g id="xtick_6">
     <g id="line2d_6">
      <path clip-path="url(#p3cb058bee1)" d="M 535.37 252.2 
L 535.37 17.64 
" style="fill:none;stroke:#b0b0b0;stroke-dasharray:1.48,0.64;stroke-dashoffset:0;stroke-width:0.4;"/>
     </g>
     <g id="text_6">
      <!-- 1.0 -->
      <defs>
       <path d="M 6.25 0 
L 6.25 7.46875 
L 20.609375 7.46875 
L 20.609375 60.40625 
L 7.90625 49.3125 
L 7.90625 57.625 
L 21.234375 68.796875 
L 27.875 68.796875 
L 27.875 7.46875 
L 41.609375 7.46875 
L 41.609375 0 
z
" id="LiberationSansNarrow-49"/>
      </defs>
      <g transform="translate(527.388906 269.345625)scale(0.14 -0.14)">
       <use xlink:href="#LiberationSansNarrow-49"/>
       <use x="45.605469" xlink:href="#LiberationSansNarrow-46"/>
       <use x="68.408203" xlink:href="#LiberationSansNarrow-48"/>
      </g>
     </g>
    </g>
   </g>
   <g id="matplotlib.axis_2">
    <g id="ytick_1">
     <g id="line2d_7">
      <path clip-path="url(#p3cb058bee1)" d="M 52.58 238.950369 
L 558.36 238.950369 
" style="fill:none;stroke:#b0b0b0;stroke-dasharray:1.48,0.64;stroke-dashoffset:0;stroke-width:0.4;"/>
     </g>
     <g id="text_7">
      <!-- 0 -->
      <g transform="translate(39.194688 244.023181)scale(0.14 -0.14)">
       <use xlink:href="#LiberationSansNarrow-48"/>
      </g>
     </g>
    </g>
    <g id="ytick_2">
     <g id="line2d_8">
      <path clip-path="url(#p3cb058bee1)" d="M 52.58 201.934298 
L 558.36 201.934298 
" style="fill:none;stroke:#b0b0b0;stroke-dasharray:1.48,0.64;stroke-dashoffset:0;stroke-width:0.4;"/>
     </g>
     <g id="text_8">
      <!-- 5 -->
      <defs>
       <path d="M 42.140625 22.40625 
Q 42.140625 17.234375 40.859375 12.9375 
Q 39.59375 8.640625 37.078125 5.53125 
Q 34.578125 2.4375 30.8125 0.71875 
Q 27.046875 -0.984375 22.125 -0.984375 
Q 17.671875 -0.984375 14.375 0.28125 
Q 11.078125 1.5625 8.8125 3.78125 
Q 6.546875 6 5.203125 8.984375 
Q 3.859375 11.96875 3.265625 15.375 
L 10.546875 16.40625 
Q 10.984375 14.453125 11.78125 12.625 
Q 12.59375 10.796875 13.984375 9.34375 
Q 15.375 7.90625 17.40625 7.046875 
Q 19.4375 6.203125 22.3125 6.203125 
Q 25.09375 6.203125 27.390625 7.25 
Q 29.6875 8.296875 31.296875 10.34375 
Q 32.90625 12.40625 33.78125 15.375 
Q 34.671875 18.359375 34.671875 22.21875 
Q 34.671875 25.390625 33.84375 28.046875 
Q 33.015625 30.71875 31.453125 32.640625 
Q 29.890625 34.578125 27.609375 35.640625 
Q 25.34375 36.71875 22.46875 36.71875 
Q 20.65625 36.71875 19.140625 36.328125 
Q 17.625 35.9375 16.328125 35.25 
Q 15.046875 34.578125 13.96875 33.671875 
Q 12.890625 32.765625 11.96875 31.78125 
L 4.9375 31.78125 
L 6.78125 68.796875 
L 38.875 68.796875 
L 38.875 61.328125 
L 13.375 61.328125 
L 12.3125 39.5 
Q 14.203125 41.3125 17.078125 42.59375 
Q 19.96875 43.890625 23.921875 43.890625 
Q 28.125 43.890625 31.484375 42.328125 
Q 34.859375 40.765625 37.21875 37.90625 
Q 39.59375 35.0625 40.859375 31.109375 
Q 42.140625 27.15625 42.140625 22.40625 
z
" id="LiberationSansNarrow-53"/>
      </defs>
      <g transform="translate(39.194688 207.00711)scale(0.14 -0.14)">
       <use xlink:href="#LiberationSansNarrow-53"/>
      </g>
     </g>
    </g>
    <g id="ytick_3">
     <g id="line2d_9">
      <path clip-path="url(#p3cb058bee1)" d="M 52.58 164.918227 
L 558.36 164.918227 
" style="fill:none;stroke:#b0b0b0;stroke-dasharray:1.48,0.64;stroke-dashoffset:0;stroke-width:0.4;"/>
     </g>
     <g id="text_9">
      <!-- 10 -->
      <g transform="translate(32.809375 169.99104)scale(0.14 -0.14)">
       <use xlink:href="#LiberationSansNarrow-49"/>
       <use x="45.605469" xlink:href="#LiberationSansNarrow-48"/>
      </g>
     </g>
    </g>
    <g id="ytick_4">
     <g id="line2d_10">
      <path clip-path="url(#p3cb058bee1)" d="M 52.58 127.902157 
L 558.36 127.902157 
" style="fill:none;stroke:#b0b0b0;stroke-dasharray:1.48,0.64;stroke-dashoffset:0;stroke-width:0.4;"/>
     </g>
     <g id="text_10">
      <!-- 15 -->
      <g transform="translate(32.809375 132.974969)scale(0.14 -0.14)">
       <use xlink:href="#LiberationSansNarrow-49"/>
       <use x="45.605469" xlink:href="#LiberationSansNarrow-53"/>
      </g>
     </g>
    </g>
    <g id="ytick_5">
     <g id="line2d_11">
      <path clip-path="url(#p3cb058bee1)" d="M 52.58 90.886086 
L 558.36 90.886086 
" style="fill:none;stroke:#b0b0b0;stroke-dasharray:1.48,0.64;stroke-dashoffset:0;stroke-width:0.4;"/>
     </g>
     <g id="text_11">
      <!-- 20 -->
      <g transform="translate(32.809375 95.958899)scale(0.14 -0.14)">
       <use xlink:href="#LiberationSansNarrow-50"/>
       <use x="45.605469" xlink:href="#LiberationSansNarrow-48"/>
      </g>
     </g>
    </g>
    <g id="ytick_6">
     <g id="line2d_12">
      <path clip-path="url(#p3cb058bee1)" d="M 52.58 53.870016 
L 558.36 53.870016 
" style="fill:none;stroke:#b0b0b0;stroke-dasharray:1.48,0.64;stroke-dashoffset:0;stroke-width:0.4;"/>
     </g>
     <g id="text_12">
      <!-- 25 -->
      <g transform="translate(32.809375 58.942828)scale(0.14 -0.14)">
       <use xlink:href="#LiberationSansNarrow-50"/>
       <use x="45.605469" xlink:href="#LiberationSansNarrow-53"/>
      </g>
     </g>
    </g>
    <g id="text_13">
     <!-- доходность, %г -->
     <defs>
      <path d="M 33.34375 46.4375 
L 21.140625 46.4375 
Q 20.171875 37.796875 19.1875 31.375 
Q 18.21875 24.953125 17.234375 20.21875 
Q 16.265625 15.484375 15.3125 12.15625 
Q 14.359375 8.84375 13.484375 6.390625 
L 33.34375 6.390625 
z
M 46.390625 -19.921875 
L 39.890625 -19.921875 
L 39.890625 0 
L 7.328125 0 
L 7.328125 -19.921875 
L 0.78125 -19.921875 
L 0.78125 6.390625 
L 5.5625 6.390625 
Q 6.78125 8.84375 7.921875 12.328125 
Q 9.078125 15.828125 10.21875 21.1875 
Q 11.375 26.5625 12.515625 34.25 
Q 13.671875 41.9375 14.796875 52.828125 
L 40.578125 52.828125 
L 40.578125 6.390625 
L 46.390625 6.390625 
z
" id="LiberationSansNarrow-1076"/>
      <path d="M 42.140625 26.46875 
Q 42.140625 12.59375 37.125 5.796875 
Q 32.125 -0.984375 22.609375 -0.984375 
Q 18.0625 -0.984375 14.515625 0.671875 
Q 10.984375 2.34375 8.515625 5.765625 
Q 6.0625 9.1875 4.765625 14.328125 
Q 3.46875 19.484375 3.46875 26.46875 
Q 3.46875 53.8125 22.859375 53.8125 
Q 27.875 53.8125 31.5625 52.09375 
Q 35.25 50.390625 37.59375 46.96875 
Q 39.9375 43.5625 41.03125 38.421875 
Q 42.140625 33.296875 42.140625 26.46875 
z
M 34.578125 26.46875 
Q 34.578125 32.625 33.8125 36.625 
Q 33.0625 40.625 31.546875 43.015625 
Q 30.03125 45.40625 27.859375 46.359375 
Q 25.6875 47.3125 23 47.3125 
Q 20.21875 47.3125 17.984375 46.3125 
Q 15.765625 45.3125 14.203125 42.890625 
Q 12.640625 40.484375 11.828125 36.46875 
Q 11.03125 32.46875 11.03125 26.46875 
Q 11.03125 20.3125 11.90625 16.28125 
Q 12.796875 12.25 14.328125 9.859375 
Q 15.875 7.46875 17.96875 6.484375 
Q 20.0625 5.515625 22.5625 5.515625 
Q 25.34375 5.515625 27.5625 6.46875 
Q 29.78125 7.421875 31.34375 9.8125 
Q 32.90625 12.203125 33.734375 16.25 
Q 34.578125 20.3125 34.578125 26.46875 
z
" id="LiberationSansNarrow-1086"/>
      <path d="M 32.078125 0 
L 20.40625 21.6875 
L 8.6875 0 
L 0.921875 0 
L 16.359375 27.15625 
L 1.65625 52.828125 
L 9.625 52.828125 
L 20.40625 32.28125 
L 31.15625 52.828125 
L 39.203125 52.828125 
L 24.515625 27.25 
L 40.140625 0 
z
" id="LiberationSansNarrow-1093"/>
      <path d="M 12.890625 52.828125 
L 12.890625 30.46875 
L 32.375 30.46875 
L 32.375 52.828125 
L 39.59375 52.828125 
L 39.59375 0 
L 32.375 0 
L 32.375 24.078125 
L 12.890625 24.078125 
L 12.890625 0 
L 5.671875 0 
L 5.671875 52.828125 
z
" id="LiberationSansNarrow-1085"/>
      <path d="M 11.03125 26.65625 
Q 11.03125 22.125 11.5625 18.3125 
Q 12.109375 14.5 13.375 11.734375 
Q 14.65625 8.984375 16.75 7.46875 
Q 18.84375 5.953125 21.96875 5.953125 
Q 25.828125 5.953125 28.390625 8.484375 
Q 30.953125 11.03125 31.546875 16.3125 
L 38.875 15.71875 
Q 38.53125 12.453125 37.296875 9.421875 
Q 36.078125 6.390625 34.03125 4.09375 
Q 31.984375 1.8125 29 0.40625 
Q 26.03125 -0.984375 22.171875 -0.984375 
Q 17.09375 -0.984375 13.5 1.109375 
Q 9.90625 3.21875 7.6875 6.90625 
Q 5.46875 10.59375 4.46875 15.59375 
Q 3.46875 20.609375 3.46875 26.46875 
Q 3.46875 31.78125 4.203125 35.859375 
Q 4.9375 39.9375 6.21875 42.984375 
Q 7.515625 46.046875 9.265625 48.125 
Q 11.03125 50.203125 13.109375 51.4375 
Q 15.1875 52.6875 17.453125 53.25 
Q 19.734375 53.8125 22.078125 53.8125 
Q 25.734375 53.8125 28.5625 52.59375 
Q 31.390625 51.375 33.46875 49.25 
Q 35.546875 47.125 36.8125 44.234375 
Q 38.09375 41.359375 38.625 38.03125 
L 31.203125 37.359375 
Q 30.671875 41.75 28.375 44.328125 
Q 26.078125 46.921875 21.875 46.921875 
Q 18.796875 46.921875 16.71875 45.671875 
Q 14.65625 44.4375 13.375 41.921875 
Q 12.109375 39.40625 11.5625 35.59375 
Q 11.03125 31.78125 11.03125 26.65625 
z
" id="LiberationSansNarrow-1089"/>
      <path d="M 1.421875 52.828125 
L 36.140625 52.828125 
L 36.140625 46.4375 
L 22.359375 46.4375 
L 22.359375 0 
L 15.1875 0 
L 15.1875 46.4375 
L 1.421875 46.4375 
z
" id="LiberationSansNarrow-1090"/>
      <path d="M 22.75 30.46875 
Q 30.953125 30.46875 35.15625 26.875 
Q 39.359375 23.296875 39.359375 15.53125 
Q 39.359375 11.921875 38.296875 9.03125 
Q 37.25 6.15625 35.171875 4.15625 
Q 33.109375 2.15625 30 1.078125 
Q 26.90625 0 22.796875 0 
L 5.671875 0 
L 5.671875 52.828125 
L 12.890625 52.828125 
L 12.890625 30.46875 
z
M 12.890625 6.203125 
L 21.6875 6.203125 
Q 24.46875 6.203125 26.390625 6.8125 
Q 28.328125 7.421875 29.5 8.609375 
Q 30.671875 9.8125 31.171875 11.546875 
Q 31.6875 13.28125 31.6875 15.53125 
Q 31.6875 20.125 29.359375 22.234375 
Q 27.046875 24.359375 21.734375 24.359375 
L 12.890625 24.359375 
z
" id="LiberationSansNarrow-1100"/>
      <path d="M 15.4375 10.6875 
L 15.4375 2.484375 
Q 15.4375 -0.09375 15.265625 -2.21875 
Q 15.09375 -4.34375 14.671875 -6.171875 
Q 14.265625 -8.015625 13.671875 -9.625 
Q 13.09375 -11.234375 12.3125 -12.796875 
L 7.375 -12.796875 
Q 9.1875 -9.625 10.15625 -6.390625 
Q 11.140625 -3.171875 11.140625 0 
L 7.625 0 
L 7.625 10.6875 
z
" id="LiberationSansNarrow-44"/>
      <path id="LiberationSansNarrow-32"/>
      <path d="M 69.96875 21.1875 
Q 69.96875 15.09375 68.9375 10.90625 
Q 67.921875 6.734375 66.1875 4.171875 
Q 64.453125 1.609375 62.125 0.5 
Q 59.8125 -0.59375 57.171875 -0.59375 
Q 54.546875 -0.59375 52.21875 0.5 
Q 49.90625 1.609375 48.21875 4.140625 
Q 46.53125 6.6875 45.546875 10.859375 
Q 44.578125 15.046875 44.578125 21.1875 
Q 44.578125 27.6875 45.53125 31.9375 
Q 46.484375 36.1875 48.1875 38.703125 
Q 49.90625 41.21875 52.25 42.21875 
Q 54.59375 43.21875 57.328125 43.21875 
Q 59.96875 43.21875 62.25 42.21875 
Q 64.546875 41.21875 66.25 38.703125 
Q 67.96875 36.1875 68.96875 31.9375 
Q 69.96875 27.6875 69.96875 21.1875 
z
M 21.09375 0 
L 14.890625 0 
L 51.8125 68.796875 
L 58.109375 68.796875 
z
M 15.765625 69.390625 
Q 18.3125 69.390625 20.609375 68.390625 
Q 22.90625 67.390625 24.609375 64.890625 
Q 26.3125 62.40625 27.3125 58.203125 
Q 28.328125 54 28.328125 47.609375 
Q 28.328125 41.453125 27.3125 37.25 
Q 26.3125 33.0625 24.609375 30.4375 
Q 22.90625 27.828125 20.578125 26.703125 
Q 18.265625 25.59375 15.625 25.59375 
Q 12.9375 25.59375 10.609375 26.703125 
Q 8.296875 27.828125 6.59375 30.421875 
Q 4.890625 33.015625 3.90625 37.203125 
Q 2.9375 41.40625 2.9375 47.609375 
Q 2.9375 54 3.90625 58.203125 
Q 4.890625 62.40625 6.609375 64.890625 
Q 8.34375 67.390625 10.6875 68.390625 
Q 13.03125 69.390625 15.765625 69.390625 
z
M 64.0625 21.1875 
Q 64.0625 26.03125 63.625 29.21875 
Q 63.1875 32.421875 62.328125 34.328125 
Q 61.46875 36.234375 60.203125 37.015625 
Q 58.9375 37.796875 57.328125 37.796875 
Q 55.671875 37.796875 54.375 36.984375 
Q 53.078125 36.1875 52.1875 34.28125 
Q 51.3125 32.375 50.875 29.171875 
Q 50.4375 25.984375 50.4375 21.1875 
Q 50.4375 16.546875 50.90625 13.421875 
Q 51.375 10.296875 52.21875 8.375 
Q 53.078125 6.453125 54.34375 5.609375 
Q 55.609375 4.78125 57.234375 4.78125 
Q 58.796875 4.78125 60.0625 5.609375 
Q 61.328125 6.453125 62.203125 8.375 
Q 63.09375 10.296875 63.578125 13.421875 
Q 64.0625 16.546875 64.0625 21.1875 
z
M 22.40625 47.609375 
Q 22.40625 52.390625 21.96875 55.5625 
Q 21.53125 58.734375 20.703125 60.640625 
Q 19.875 62.546875 18.625 63.328125 
Q 17.390625 64.109375 15.765625 64.109375 
Q 14.0625 64.109375 12.734375 63.296875 
Q 11.421875 62.5 10.546875 60.59375 
Q 9.671875 58.6875 9.234375 55.515625 
Q 8.796875 52.34375 8.796875 47.609375 
Q 8.796875 42.96875 9.25 39.796875 
Q 9.71875 36.625 10.5625 34.6875 
Q 11.421875 32.765625 12.71875 31.9375 
Q 14.015625 31.109375 15.671875 31.109375 
Q 17.1875 31.109375 18.421875 31.9375 
Q 19.671875 32.765625 20.546875 34.6875 
Q 21.4375 36.625 21.921875 39.796875 
Q 22.40625 42.96875 22.40625 47.609375 
z
" id="LiberationSansNarrow-37"/>
      <path d="M 27.546875 52.828125 
L 27.546875 46.4375 
L 12.890625 46.4375 
L 12.890625 0 
L 5.71875 0 
L 5.71875 52.828125 
z
" id="LiberationSansNarrow-1075"/>
     </defs>
     <g transform="translate(25.904375 176.105156)rotate(-90)scale(0.14 -0.14)">
      <use xlink:href="#LiberationSansNarrow-1076"/>
      <use x="47.802734" xlink:href="#LiberationSansNarrow-1086"/>
      <use x="93.392578" xlink:href="#LiberationSansNarrow-1093"/>
      <use x="134.392578" xlink:href="#LiberationSansNarrow-1086"/>
      <use x="179.966797" xlink:href="#LiberationSansNarrow-1076"/>
      <use x="227.769531" xlink:href="#LiberationSansNarrow-1085"/>
      <use x="273.033203" xlink:href="#LiberationSansNarrow-1086"/>
      <use x="318.638672" xlink:href="#LiberationSansNarrow-1089"/>
      <use x="359.654297" xlink:href="#LiberationSansNarrow-1090"/>
      <use x="397.203125" xlink:href="#LiberationSansNarrow-1100"/>
      <use x="439.927734" xlink:href="#LiberationSansNarrow-44"/>
      <use x="462.730469" xlink:href="#LiberationSansNarrow-32"/>
      <use x="485.533203" xlink:href="#LiberationSansNarrow-37"/>
      <use x="558.433594" xlink:href="#LiberationSansNarrow-1075"/>
     </g>
    </g>
   </g>
   <g id="line2d_13">
    <path clip-path="url(#p3cb058bee1)" d="M 75.57 226.437866 
L 79.354362 226.260928 
L 81.246543 225.723134 
L 85.030905 225.231773 
L 88.815267 225.006492 
L 90.707449 224.579095 
L 92.59963 224.571276 
L 94.491811 224.339273 
L 100.168354 224.147334 
L 102.060535 223.924761 
L 105.844897 223.810079 
L 107.737078 223.664948 
L 111.52144 223.550508 
L 117.197984 223.126212 
L 122.874527 223.019735 
L 124.766708 223.001925 
L 126.658889 222.759957 
L 128.55107 222.719383 
L 130.443251 222.399778 
L 136.119794 221.910032 
L 138.011975 221.876116 
L 139.904156 221.570217 
L 145.5807 221.315824 
L 147.472881 220.91132 
L 151.257243 220.596688 
L 155.041605 219.512018 
L 156.933786 219.211756 
L 158.825967 218.217534 
L 160.718148 218.206054 
L 166.394691 217.538235 
L 168.286872 217.169298 
L 170.179053 217.015023 
L 172.071235 217.00941 
L 173.963416 216.522658 
L 175.855597 216.24908 
L 179.639959 215.090811 
L 181.53214 214.910131 
L 183.424321 214.005159 
L 185.316502 213.438655 
L 187.208683 213.397209 
L 189.100864 212.723358 
L 190.993045 211.911958 
L 196.669588 211.562866 
L 198.56177 211.129997 
L 200.453951 210.41894 
L 206.130494 210.008981 
L 208.022675 208.97291 
L 211.807037 208.652799 
L 221.267942 208.175132 
L 225.052305 208.124392 
L 226.944486 207.842713 
L 230.728848 207.651967 
L 236.405391 206.399883 
L 240.189753 205.080793 
L 242.081934 205.050511 
L 245.866296 204.666149 
L 247.758477 203.312096 
L 249.650658 203.129937 
L 257.219383 201.687671 
L 259.111564 201.403283 
L 261.003745 200.786085 
L 262.895926 200.390147 
L 264.788107 200.268511 
L 266.680288 199.149548 
L 268.572469 199.090172 
L 270.46465 198.620772 
L 274.249012 196.956469 
L 276.141193 196.63616 
L 278.033374 195.494825 
L 285.602099 193.594026 
L 287.49428 193.515504 
L 289.386461 192.959326 
L 293.170823 192.203 
L 295.063004 191.345233 
L 296.955185 191.318933 
L 300.739547 191.024995 
L 302.631728 190.570603 
L 304.523909 190.570306 
L 306.416091 190.451845 
L 308.308272 189.611607 
L 313.984815 189.137358 
L 315.876996 189.076301 
L 317.769177 188.867224 
L 323.44572 188.744053 
L 329.122263 187.84164 
L 331.014444 187.777444 
L 332.906626 187.494076 
L 334.798807 187.435362 
L 342.367531 186.778159 
L 344.259712 186.073737 
L 348.044074 185.902075 
L 349.936255 185.641441 
L 351.828436 185.617801 
L 353.720617 185.385826 
L 357.504979 185.33784 
L 359.39716 184.256725 
L 365.073704 183.963348 
L 368.858066 183.361139 
L 372.642428 183.212342 
L 374.534609 183.102046 
L 376.42679 182.357439 
L 391.564239 181.3458 
L 395.348601 181.192163 
L 397.240782 181.082438 
L 399.132963 180.834115 
L 406.701687 180.634064 
L 408.593868 180.369328 
L 410.486049 179.944592 
L 412.37823 179.761221 
L 416.162593 179.665613 
L 418.054774 179.467012 
L 419.946955 179.442136 
L 421.839136 179.266193 
L 425.623498 179.20643 
L 427.515679 178.993969 
L 431.300041 178.917315 
L 435.084403 178.554468 
L 436.976584 178.145279 
L 438.868765 177.928728 
L 440.760947 177.567777 
L 444.545309 177.527964 
L 446.43749 177.329853 
L 448.329671 177.266582 
L 450.221852 176.981313 
L 452.114033 176.878636 
L 454.006214 176.600996 
L 457.790576 176.441559 
L 465.3593 175.876741 
L 467.251481 175.1894 
L 469.143663 175.16549 
L 471.035844 174.706022 
L 472.928025 174.117918 
L 482.38893 173.908656 
L 486.173292 173.415006 
L 488.065473 173.012403 
L 489.957654 172.999726 
L 491.849835 172.676542 
L 493.742016 168.695328 
L 495.634198 168.295818 
L 497.526379 166.319225 
L 499.41856 165.388313 
L 501.310741 165.254686 
L 505.095103 161.064334 
L 506.987284 160.919229 
L 508.879465 160.594028 
L 510.771646 159.51433 
L 512.663827 157.792884 
L 514.556008 150.609658 
L 516.448189 145.969746 
L 518.34037 145.60676 
L 520.232551 141.034556 
L 522.124733 137.236457 
L 524.016914 135.499956 
L 525.909095 134.917708 
L 527.801276 134.6987 
L 529.693457 133.821374 
L 531.585638 133.498231 
L 533.477819 132.370078 
L 535.37 131.915901 
L 535.37 131.915901 
" style="fill:none;stroke:#1f77b4;stroke-linecap:square;stroke-width:2;"/>
   </g>
   <g id="line2d_14">
    <path clip-path="url(#p3cb058bee1)" d="M 75.57 211.864825 
L 77.462181 210.662019 
L 79.354362 210.481427 
L 81.246543 209.980787 
L 83.138724 209.219235 
L 86.923086 209.200729 
L 88.815267 208.90978 
L 90.707449 208.73798 
L 92.59963 208.318129 
L 94.491811 208.041845 
L 96.383992 207.98972 
L 98.276173 207.532681 
L 103.952716 207.318976 
L 109.629259 206.880174 
L 113.413621 206.553332 
L 115.305802 206.32814 
L 122.874527 206.114559 
L 126.658889 205.196976 
L 136.119794 204.523863 
L 138.011975 204.511424 
L 143.688519 204.034192 
L 145.5807 203.490571 
L 149.365062 203.193024 
L 155.041605 202.517018 
L 156.933786 202.174904 
L 158.825967 201.528818 
L 160.718148 201.507016 
L 162.610329 201.252772 
L 164.50251 200.578462 
L 166.394691 200.439046 
L 168.286872 199.752025 
L 170.179053 199.741593 
L 172.071235 199.110006 
L 173.963416 198.820291 
L 175.855597 198.283419 
L 177.747778 197.881736 
L 179.639959 197.606435 
L 181.53214 196.891607 
L 187.208683 195.935268 
L 189.100864 195.888058 
L 190.993045 195.587776 
L 194.777407 194.804651 
L 196.669588 194.613586 
L 198.56177 193.417699 
L 200.453951 193.347386 
L 202.346132 193.089401 
L 204.238313 192.957223 
L 209.914856 192.090024 
L 213.699218 191.947028 
L 215.591399 190.909361 
L 219.375761 190.762069 
L 225.052305 190.178038 
L 228.836667 190.035448 
L 230.728848 189.423245 
L 234.51321 188.678528 
L 236.405391 188.478241 
L 238.297572 188.449296 
L 243.974115 188.029423 
L 247.758477 187.907528 
L 249.650658 187.565109 
L 253.435021 185.908974 
L 255.327202 184.683165 
L 257.219383 183.997857 
L 259.111564 183.948937 
L 261.003745 183.773212 
L 262.895926 182.888323 
L 264.788107 182.366009 
L 268.572469 182.230387 
L 270.46465 181.63233 
L 272.356831 181.156264 
L 274.249012 180.886323 
L 276.141193 180.792916 
L 278.033374 180.253599 
L 279.925556 179.976295 
L 281.817737 179.502221 
L 283.709918 179.431299 
L 287.49428 179.003151 
L 289.386461 178.479146 
L 291.278642 177.735522 
L 293.170823 177.35216 
L 298.847366 176.855653 
L 302.631728 176.542281 
L 304.523909 176.503213 
L 312.092634 175.208375 
L 317.769177 174.910073 
L 321.553539 174.724115 
L 323.44572 174.322927 
L 327.230082 173.846413 
L 329.122263 173.515901 
L 332.906626 173.45489 
L 334.798807 173.239058 
L 340.47535 173.097831 
L 342.367531 172.920566 
L 344.259712 172.891457 
L 346.151893 172.647655 
L 348.044074 172.141193 
L 366.965885 171.75037 
L 368.858066 171.400203 
L 370.750247 171.183708 
L 372.642428 170.519604 
L 376.42679 170.402382 
L 380.211152 170.225757 
L 382.103333 169.935429 
L 383.995514 169.88733 
L 385.887695 169.709318 
L 387.779877 169.644113 
L 389.672058 169.258764 
L 391.564239 169.210395 
L 393.45642 168.706834 
L 395.348601 168.696642 
L 397.240782 168.334006 
L 401.025144 168.320459 
L 402.917325 168.021701 
L 416.162593 167.323897 
L 423.731317 166.397658 
L 427.515679 165.902485 
L 429.40786 165.556325 
L 431.300041 165.385094 
L 433.192222 165.038806 
L 435.084403 165.026112 
L 436.976584 164.710708 
L 440.760947 164.404292 
L 442.653128 163.899551 
L 444.545309 163.278096 
L 446.43749 163.219652 
L 448.329671 162.625401 
L 450.221852 162.587355 
L 454.006214 161.857008 
L 463.467119 161.543157 
L 465.3593 161.197297 
L 469.143663 161.047693 
L 471.035844 160.422907 
L 472.928025 160.183912 
L 474.820206 159.669391 
L 476.712387 159.659123 
L 478.604568 159.279718 
L 480.496749 158.581507 
L 482.38893 158.559188 
L 486.173292 158.210063 
L 488.065473 156.642983 
L 489.957654 155.820071 
L 491.849835 155.79579 
L 493.742016 155.59041 
L 495.634198 153.964507 
L 497.526379 153.492665 
L 501.310741 151.735467 
L 505.095103 150.96233 
L 506.987284 150.264885 
L 508.879465 148.797947 
L 510.771646 147.696382 
L 512.663827 147.645237 
L 514.556008 143.525873 
L 516.448189 136.944018 
L 518.34037 135.808304 
L 520.232551 134.849934 
L 522.124733 130.017255 
L 524.016914 129.563211 
L 527.801276 127.673008 
L 529.693457 126.31952 
L 531.585638 125.728224 
L 533.477819 125.672368 
L 535.37 123.763837 
L 535.37 123.763837 
" style="fill:none;stroke:#ff7f0e;stroke-linecap:square;"/>
   </g>
   <g id="line2d_15">
    <path clip-path="url(#p3cb058bee1)" d="M 75.57 207.731257 
L 77.462181 200.555876 
L 79.354362 199.900222 
L 81.246543 199.648024 
L 83.138724 197.913904 
L 85.030905 197.349173 
L 86.923086 196.595688 
L 88.815267 196.326924 
L 90.707449 195.741972 
L 92.59963 195.452547 
L 96.383992 195.366394 
L 98.276173 195.114331 
L 105.844897 194.544818 
L 107.737078 194.267055 
L 109.629259 193.679377 
L 111.52144 193.644521 
L 113.413621 192.934064 
L 117.197984 192.28291 
L 119.090165 192.230765 
L 122.874527 191.347032 
L 124.766708 190.76988 
L 126.658889 190.696555 
L 128.55107 190.418914 
L 130.443251 190.330992 
L 136.119794 187.256759 
L 138.011975 187.247096 
L 141.796337 187.02947 
L 147.472881 186.850217 
L 149.365062 186.454863 
L 162.610329 185.916312 
L 164.50251 185.492088 
L 166.394691 185.315553 
L 168.286872 185.300126 
L 170.179053 185.147788 
L 175.855597 185.095746 
L 179.639959 184.818909 
L 183.424321 184.755778 
L 187.208683 184.532583 
L 190.993045 184.20383 
L 192.885226 184.123891 
L 194.777407 183.556741 
L 198.56177 183.474793 
L 202.346132 182.81785 
L 206.130494 182.545283 
L 208.022675 182.0064 
L 211.807037 181.965805 
L 213.699218 181.476994 
L 217.48358 181.265296 
L 223.160123 181.18655 
L 226.944486 180.087621 
L 228.836667 179.976891 
L 230.728848 179.679149 
L 232.621029 179.675902 
L 234.51321 179.168521 
L 238.297572 178.951698 
L 243.974115 177.512525 
L 251.54284 177.054439 
L 262.895926 176.75338 
L 268.572469 176.346042 
L 270.46465 175.72211 
L 272.356831 175.550499 
L 274.249012 175.547736 
L 278.033374 175.136203 
L 287.49428 175.032365 
L 293.170823 174.770009 
L 298.847366 174.357692 
L 300.739547 173.811744 
L 302.631728 173.709615 
L 306.416091 172.91942 
L 310.200453 171.630702 
L 313.984815 171.484357 
L 317.769177 169.910145 
L 319.661358 169.697143 
L 321.553539 168.980185 
L 323.44572 168.015972 
L 325.337901 167.418346 
L 327.230082 167.321137 
L 331.014444 165.908828 
L 334.798807 165.563036 
L 340.47535 163.665312 
L 342.367531 163.520521 
L 344.259712 162.970768 
L 346.151893 162.945226 
L 348.044074 161.509132 
L 349.936255 161.432273 
L 351.828436 160.230677 
L 353.720617 158.805851 
L 355.612798 158.771615 
L 359.39716 156.622742 
L 361.289342 155.702015 
L 363.181523 155.172144 
L 365.073704 154.859659 
L 366.965885 154.825485 
L 368.858066 154.101912 
L 372.642428 153.882556 
L 374.534609 153.598222 
L 376.42679 153.514581 
L 385.887695 152.516669 
L 387.779877 151.829173 
L 389.672058 151.612364 
L 391.564239 151.244658 
L 397.240782 150.509397 
L 399.132963 150.460802 
L 401.025144 150.287092 
L 402.917325 149.110796 
L 406.701687 149.069543 
L 410.486049 148.826212 
L 414.270412 148.752994 
L 416.162593 148.616905 
L 418.054774 148.130537 
L 419.946955 148.06729 
L 423.731317 147.331923 
L 425.623498 147.233109 
L 427.515679 146.847903 
L 431.300041 146.717345 
L 433.192222 146.261633 
L 435.084403 146.09132 
L 436.976584 145.246021 
L 440.760947 145.040649 
L 442.653128 144.702895 
L 448.329671 144.474657 
L 450.221852 143.887891 
L 459.682757 142.70132 
L 463.467119 142.154484 
L 465.3593 142.028408 
L 469.143663 140.594014 
L 472.928025 140.368424 
L 476.712387 140.232799 
L 478.604568 139.922657 
L 480.496749 139.858799 
L 482.38893 139.273581 
L 486.173292 139.148269 
L 495.634198 138.346184 
L 499.41856 137.487841 
L 501.310741 137.294347 
L 505.095103 136.706494 
L 506.987284 136.61681 
L 508.879465 136.386445 
L 512.663827 136.26549 
L 514.556008 135.986321 
L 516.448189 135.115119 
L 520.232551 134.050067 
L 522.124733 134.046526 
L 524.016914 131.377361 
L 525.909095 130.218402 
L 527.801276 129.25472 
L 529.693457 127.902018 
L 533.477819 124.436614 
L 535.37 124.407913 
L 535.37 124.407913 
" style="fill:none;stroke:#2ca02c;stroke-linecap:square;"/>
   </g>
   <g id="line2d_16">
    <path clip-path="url(#p3cb058bee1)" d="M 75.57 217.322102 
L 77.462181 205.984792 
L 79.354362 205.117291 
L 81.246543 205.014551 
L 83.138724 199.665166 
L 85.030905 192.158114 
L 86.923086 189.114471 
L 88.815267 189.005056 
L 90.707449 187.321011 
L 92.59963 186.849042 
L 96.383992 186.708668 
L 98.276173 185.047348 
L 100.168354 183.857708 
L 103.952716 183.704233 
L 105.844897 182.500701 
L 107.737078 181.960493 
L 113.413621 180.685416 
L 115.305802 179.9789 
L 119.090165 179.532691 
L 120.982346 179.362311 
L 122.874527 178.795797 
L 128.55107 178.484494 
L 130.443251 178.072467 
L 132.335432 176.840339 
L 134.227613 176.22632 
L 136.119794 175.770069 
L 141.796337 175.33536 
L 143.688519 175.322175 
L 145.5807 175.05559 
L 151.257243 174.93767 
L 155.041605 174.150496 
L 156.933786 173.142301 
L 162.610329 172.305632 
L 164.50251 171.723075 
L 166.394691 171.405062 
L 168.286872 171.354921 
L 170.179053 170.12386 
L 172.071235 169.488573 
L 173.963416 168.682775 
L 175.855597 168.37085 
L 177.747778 168.336732 
L 179.639959 168.091984 
L 181.53214 168.075999 
L 183.424321 167.74619 
L 187.208683 167.660628 
L 189.100864 167.385825 
L 190.993045 166.48557 
L 192.885226 166.302988 
L 196.669588 166.205986 
L 198.56177 165.802627 
L 202.346132 165.65461 
L 204.238313 165.311716 
L 211.807037 165.11101 
L 215.591399 164.898561 
L 217.48358 164.863205 
L 223.160123 163.862709 
L 234.51321 162.708459 
L 236.405391 162.670465 
L 238.297572 162.180615 
L 240.189753 162.009984 
L 242.081934 161.962412 
L 243.974115 161.516964 
L 245.866296 161.386091 
L 249.650658 160.801744 
L 251.54284 160.147148 
L 257.219383 160.035395 
L 262.895926 159.793019 
L 264.788107 159.439143 
L 270.46465 159.130005 
L 272.356831 158.888048 
L 278.033374 158.576038 
L 287.49428 158.358851 
L 293.170823 157.950127 
L 295.063004 157.58941 
L 302.631728 157.548921 
L 304.523909 157.293085 
L 319.661358 156.312298 
L 327.230082 156.116073 
L 329.122263 155.954716 
L 331.014444 155.624328 
L 334.798807 155.254091 
L 340.47535 155.114117 
L 342.367531 154.994259 
L 344.259712 154.987053 
L 346.151893 154.67693 
L 353.720617 154.537909 
L 355.612798 154.173757 
L 357.504979 153.98377 
L 361.289342 153.887528 
L 368.858066 153.66697 
L 372.642428 153.140203 
L 376.42679 153.054941 
L 378.318971 152.845637 
L 380.211152 152.764287 
L 383.995514 152.294781 
L 387.779877 152.171568 
L 389.672058 151.627812 
L 393.45642 151.393697 
L 395.348601 151.263867 
L 397.240782 150.584972 
L 401.025144 150.486585 
L 402.917325 150.262913 
L 406.701687 150.185396 
L 408.593868 150.116628 
L 410.486049 149.934284 
L 412.37823 149.920035 
L 414.270412 149.619036 
L 416.162593 149.507489 
L 418.054774 149.132814 
L 419.946955 149.110679 
L 421.839136 148.876416 
L 427.515679 148.509243 
L 429.40786 148.277368 
L 431.300041 147.807435 
L 433.192222 147.574393 
L 436.976584 147.535221 
L 438.868765 146.662405 
L 440.760947 146.484803 
L 442.653128 145.948456 
L 446.43749 145.724909 
L 448.329671 145.185072 
L 450.221852 144.335244 
L 455.898395 142.828525 
L 457.790576 142.761075 
L 459.682757 140.112355 
L 461.574938 139.906989 
L 465.3593 138.827759 
L 467.251481 138.705651 
L 469.143663 138.0878 
L 471.035844 135.082659 
L 472.928025 135.067964 
L 476.712387 134.308264 
L 478.604568 133.62863 
L 480.496749 133.622452 
L 482.38893 133.455211 
L 484.281111 133.117096 
L 486.173292 131.554306 
L 488.065473 131.043554 
L 489.957654 130.856949 
L 491.849835 130.816626 
L 495.634198 129.235632 
L 497.526379 128.799063 
L 501.310741 128.385242 
L 503.202922 128.309209 
L 505.095103 127.290293 
L 508.879465 127.014062 
L 512.663827 124.587534 
L 514.556008 124.446936 
L 516.448189 123.863448 
L 518.34037 122.019896 
L 520.232551 121.250859 
L 522.124733 121.206302 
L 524.016914 120.670306 
L 525.909095 117.636256 
L 527.801276 113.164643 
L 529.693457 113.049121 
L 531.585638 110.906876 
L 533.477819 110.122284 
L 535.37 108.998616 
L 535.37 108.998616 
" style="fill:none;stroke:#d62728;stroke-linecap:square;"/>
   </g>
   <g id="line2d_17">
    <path clip-path="url(#p3cb058bee1)" d="M 75.57 241.538182 
L 77.462181 238.014999 
L 79.354362 232.19116 
L 81.246543 230.346901 
L 83.138724 229.265446 
L 85.030905 228.723081 
L 86.923086 227.286614 
L 88.815267 227.215324 
L 90.707449 225.153448 
L 92.59963 224.728721 
L 94.491811 224.188715 
L 96.383992 223.304873 
L 98.276173 223.206836 
L 100.168354 222.806028 
L 102.060535 221.198075 
L 103.952716 220.938684 
L 105.844897 220.170751 
L 109.629259 219.767109 
L 111.52144 219.162892 
L 113.413621 219.056303 
L 115.305802 217.861499 
L 117.197984 217.703563 
L 120.982346 214.754656 
L 124.766708 214.645242 
L 126.658889 214.387859 
L 130.443251 213.46758 
L 132.335432 213.249135 
L 134.227613 212.479331 
L 136.119794 211.246607 
L 138.011975 210.798645 
L 139.904156 210.217712 
L 141.796337 210.180897 
L 143.688519 209.833642 
L 145.5807 208.965307 
L 147.472881 208.492003 
L 149.365062 208.470256 
L 153.149424 206.696368 
L 155.041605 206.227171 
L 156.933786 204.979809 
L 158.825967 203.055667 
L 160.718148 200.559707 
L 162.610329 200.316952 
L 164.50251 199.74066 
L 166.394691 198.646727 
L 168.286872 198.542705 
L 170.179053 196.516568 
L 172.071235 196.067101 
L 173.963416 192.260228 
L 179.639959 189.94705 
L 181.53214 187.481114 
L 183.424321 186.642251 
L 185.316502 175.729977 
L 187.208683 167.832125 
L 189.100864 161.264142 
L 190.993045 157.460345 
L 192.885226 156.759733 
L 194.777407 155.940128 
L 196.669588 155.626673 
L 198.56177 153.756544 
L 200.453951 152.738668 
L 202.346132 152.519815 
L 204.238313 151.924296 
L 206.130494 151.801005 
L 208.022675 150.580009 
L 209.914856 148.932711 
L 211.807037 148.747976 
L 213.699218 148.317381 
L 215.591399 148.128898 
L 217.48358 145.146586 
L 219.375761 145.113288 
L 221.267942 144.74836 
L 223.160123 143.033906 
L 225.052305 142.954179 
L 226.944486 142.017506 
L 228.836667 140.363923 
L 230.728848 139.858589 
L 232.621029 138.970757 
L 236.405391 138.713273 
L 238.297572 136.79376 
L 240.189753 135.166592 
L 242.081934 135.011355 
L 243.974115 133.858482 
L 245.866296 133.363395 
L 247.758477 132.73457 
L 249.650658 130.822162 
L 251.54284 129.952157 
L 253.435021 129.582546 
L 255.327202 128.309609 
L 257.219383 125.814844 
L 259.111564 125.384028 
L 262.895926 125.127236 
L 264.788107 124.640616 
L 266.680288 121.475479 
L 268.572469 121.043856 
L 270.46465 119.289471 
L 272.356831 118.28313 
L 274.249012 116.983452 
L 276.141193 116.762767 
L 278.033374 115.08369 
L 279.925556 113.843492 
L 281.817737 113.673633 
L 283.709918 112.416673 
L 285.602099 110.894963 
L 287.49428 110.867432 
L 293.170823 108.507506 
L 295.063004 108.036709 
L 296.955185 107.276897 
L 298.847366 107.263572 
L 300.739547 106.078551 
L 302.631728 104.659828 
L 304.523909 104.095824 
L 306.416091 104.011614 
L 308.308272 103.721005 
L 310.200453 102.76333 
L 312.092634 102.506131 
L 313.984815 102.119274 
L 319.661358 101.894128 
L 321.553539 101.550312 
L 323.44572 101.504967 
L 325.337901 101.238797 
L 327.230082 101.1533 
L 331.014444 99.172993 
L 332.906626 98.985209 
L 334.798807 98.661645 
L 338.583169 98.559267 
L 340.47535 98.550506 
L 346.151893 98.106954 
L 348.044074 97.4616 
L 349.936255 97.287394 
L 351.828436 96.860119 
L 355.612798 96.727178 
L 357.504979 96.650651 
L 359.39716 96.459732 
L 361.289342 96.430127 
L 363.181523 95.90111 
L 365.073704 95.88628 
L 366.965885 95.691505 
L 368.858066 95.338398 
L 370.750247 95.218286 
L 372.642428 94.972494 
L 374.534609 94.853174 
L 378.318971 94.756075 
L 383.995514 94.502417 
L 385.887695 94.099519 
L 387.779877 93.84038 
L 389.672058 93.822946 
L 391.564239 93.626378 
L 393.45642 92.094132 
L 397.240782 91.185127 
L 399.132963 90.701257 
L 404.809506 89.832261 
L 406.701687 89.718338 
L 408.593868 89.403986 
L 410.486049 89.335358 
L 414.270412 88.854883 
L 416.162593 88.835646 
L 419.946955 88.673263 
L 421.839136 88.617041 
L 423.731317 88.42964 
L 425.623498 88.419207 
L 429.40786 88.10714 
L 431.300041 88.089364 
L 436.976584 87.574799 
L 438.868765 86.431908 
L 440.760947 86.230887 
L 444.545309 85.626588 
L 446.43749 85.086059 
L 448.329671 84.861226 
L 452.114033 84.715226 
L 454.006214 84.368708 
L 455.898395 84.156904 
L 457.790576 83.752677 
L 459.682757 81.953556 
L 467.251481 81.519297 
L 469.143663 81.037757 
L 471.035844 80.93223 
L 472.928025 80.695625 
L 474.820206 79.308219 
L 476.712387 78.834213 
L 478.604568 77.698985 
L 482.38893 77.657301 
L 484.281111 75.729008 
L 486.173292 71.04683 
L 488.065473 70.618074 
L 489.957654 69.449887 
L 491.849835 69.227243 
L 493.742016 67.656365 
L 495.634198 67.055456 
L 497.526379 66.002008 
L 499.41856 65.727732 
L 501.310741 65.070491 
L 503.202922 64.924405 
L 505.095103 63.739267 
L 506.987284 61.088389 
L 508.879465 60.890285 
L 510.771646 60.252257 
L 512.663827 58.96045 
L 514.556008 55.990074 
L 516.448189 55.551986 
L 518.34037 53.548785 
L 520.232551 51.226307 
L 522.124733 50.46683 
L 524.016914 47.315154 
L 525.909095 42.79372 
L 527.801276 40.917037 
L 529.693457 38.39664 
L 531.585638 37.510064 
L 533.477819 32.628449 
L 535.37 28.301818 
L 535.37 28.301818 
" style="fill:none;stroke:#9467bd;stroke-linecap:square;"/>
   </g>
   <g id="legend_1">
    <g id="patch_3">
     <path d="M 60.7434 57.458441 
L 302.048402 57.458441 
Q 304.380802 57.458441 304.380802 55.126041 
L 304.380802 25.8034 
Q 304.380802 23.471 302.048402 23.471 
L 60.7434 23.471 
Q 58.411 23.471 58.411 25.8034 
L 58.411 55.126041 
Q 58.411 57.458441 60.7434 57.458441 
z
" style="fill:#ffffff;opacity:0.8;stroke:#cccccc;stroke-linejoin:miter;"/>
    </g>
    <g id="line2d_18">
     <path d="M 63.0758 32.505406 
L 86.3998 32.505406 
" style="fill:none;stroke:#1f77b4;stroke-linecap:square;stroke-width:2;"/>
    </g>
    <g id="line2d_19"/>
    <g id="text_14">
     <!-- MARKET -->
     <defs>
      <path d="M 54.6875 0 
L 54.6875 45.90625 
Q 54.6875 48.390625 54.734375 50.96875 
Q 54.78125 53.5625 54.828125 55.71875 
Q 54.9375 58.203125 55.078125 60.546875 
Q 54.546875 58.0625 53.90625 55.609375 
Q 53.90625 55.609375 52.734375 51.171875 
Q 52.15625 48.78125 51.515625 46.875 
L 36.96875 0 
L 31.59375 0 
L 16.796875 46.875 
Q 16.546875 47.609375 16.3125 48.578125 
L 15.765625 50.6875 
L 15.140625 52.9375 
L 14.546875 55.171875 
Q 13.875 57.765625 13.234375 60.546875 
Q 13.28125 57.8125 13.375 55.125 
Q 13.484375 52.828125 13.5 50.3125 
Q 13.53125 47.796875 13.53125 45.90625 
L 13.53125 0 
L 6.734375 0 
L 6.734375 68.796875 
L 16.796875 68.796875 
L 31.78125 21.09375 
Q 32.078125 20.125 32.46875 18.578125 
Q 32.859375 17.046875 33.21875 15.421875 
Q 33.59375 13.8125 33.890625 12.375 
Q 34.1875 10.9375 34.328125 10.15625 
Q 34.421875 10.9375 34.734375 12.40625 
Q 35.0625 13.875 35.5 15.484375 
L 36.328125 18.609375 
Q 36.71875 20.125 37.0625 21.09375 
L 51.765625 68.796875 
L 61.578125 68.796875 
L 61.578125 0 
z
" id="LiberationSansNarrow-77"/>
      <path d="M 46.734375 0 
L 40.28125 20.125 
L 14.546875 20.125 
L 8.109375 0 
L 0.140625 0 
L 23.1875 68.796875 
L 31.890625 68.796875 
L 54.546875 0 
z
M 30.765625 50.09375 
Q 30.125 52.046875 29.546875 54.046875 
L 28.515625 57.71875 
L 27.734375 60.453125 
Q 27.4375 61.53125 27.4375 61.765625 
Q 27.34375 61.53125 27.078125 60.40625 
Q 26.8125 59.28125 26.375 57.625 
L 25.296875 53.953125 
L 24.125 50 
L 16.890625 27.390625 
L 37.984375 27.390625 
z
" id="LiberationSansNarrow-65"/>
      <path d="M 46.578125 0 
L 31.9375 28.5625 
L 14.359375 28.5625 
L 14.359375 0 
L 6.734375 0 
L 6.734375 68.796875 
L 33.25 68.796875 
Q 38.03125 68.796875 41.734375 67.453125 
Q 45.453125 66.109375 47.96875 63.5625 
Q 50.484375 61.03125 51.796875 57.375 
Q 53.125 53.71875 53.125 49.125 
Q 53.125 45.84375 52.34375 42.671875 
Q 51.5625 39.5 49.875 36.859375 
Q 48.1875 34.234375 45.59375 32.328125 
Q 43.015625 30.421875 39.359375 29.640625 
L 55.375 0 
z
M 45.453125 49.03125 
Q 45.453125 52.15625 44.578125 54.4375 
Q 43.703125 56.734375 42.015625 58.265625 
Q 40.328125 59.8125 37.9375 60.5625 
Q 35.546875 61.328125 32.46875 61.328125 
L 14.359375 61.328125 
L 14.359375 35.9375 
L 32.8125 35.9375 
Q 36.078125 35.9375 38.5 36.9375 
Q 40.921875 37.9375 42.453125 39.6875 
Q 44 41.453125 44.71875 43.84375 
Q 45.453125 46.234375 45.453125 49.03125 
z
" id="LiberationSansNarrow-82"/>
      <path d="M 44.28125 0 
L 21.734375 33.203125 
L 14.359375 26.375 
L 14.359375 0 
L 6.734375 0 
L 6.734375 68.796875 
L 14.359375 68.796875 
L 14.359375 34.328125 
L 41.546875 68.796875 
L 50.59375 68.796875 
L 26.5625 38.921875 
L 53.765625 0 
z
" id="LiberationSansNarrow-75"/>
      <path d="M 6.734375 0 
L 6.734375 68.796875 
L 49.515625 68.796875 
L 49.515625 61.1875 
L 14.359375 61.1875 
L 14.359375 39.109375 
L 47.125 39.109375 
L 47.125 31.59375 
L 14.359375 31.59375 
L 14.359375 7.625 
L 51.171875 7.625 
L 51.171875 0 
z
" id="LiberationSansNarrow-69"/>
      <path d="M 28.8125 61.1875 
L 28.8125 0 
L 21.234375 0 
L 21.234375 61.1875 
L 1.859375 61.1875 
L 1.859375 68.796875 
L 48.1875 68.796875 
L 48.1875 61.1875 
z
" id="LiberationSansNarrow-84"/>
     </defs>
     <g transform="translate(95.7294 36.587106)scale(0.11662 -0.11662)">
      <use xlink:href="#LiberationSansNarrow-77"/>
      <use x="68.310547" xlink:href="#LiberationSansNarrow-65"/>
      <use x="122.998047" xlink:href="#LiberationSansNarrow-82"/>
      <use x="182.177734" xlink:href="#LiberationSansNarrow-75"/>
      <use x="236.865234" xlink:href="#LiberationSansNarrow-69"/>
      <use x="291.552734" xlink:href="#LiberationSansNarrow-84"/>
     </g>
    </g>
    <g id="line2d_20">
     <path d="M 63.0758 46.292076 
L 86.3998 46.292076 
" style="fill:none;stroke:#ff7f0e;stroke-linecap:square;"/>
    </g>
    <g id="line2d_21"/>
    <g id="text_15">
     <!-- Hop -->
     <defs>
      <path d="M 44.875 0 
L 44.875 31.890625 
L 14.359375 31.890625 
L 14.359375 0 
L 6.734375 0 
L 6.734375 68.796875 
L 14.359375 68.796875 
L 14.359375 39.703125 
L 44.875 39.703125 
L 44.875 68.796875 
L 52.484375 68.796875 
L 52.484375 0 
z
" id="LiberationSansNarrow-72"/>
      <path d="M 42.140625 26.46875 
Q 42.140625 12.59375 37.125 5.796875 
Q 32.125 -0.984375 22.609375 -0.984375 
Q 18.0625 -0.984375 14.515625 0.671875 
Q 10.984375 2.34375 8.515625 5.765625 
Q 6.0625 9.1875 4.765625 14.328125 
Q 3.46875 19.484375 3.46875 26.46875 
Q 3.46875 53.8125 22.859375 53.8125 
Q 27.875 53.8125 31.5625 52.09375 
Q 35.25 50.390625 37.59375 46.96875 
Q 39.9375 43.5625 41.03125 38.421875 
Q 42.140625 33.296875 42.140625 26.46875 
z
M 34.578125 26.46875 
Q 34.578125 32.625 33.8125 36.625 
Q 33.0625 40.625 31.546875 43.015625 
Q 30.03125 45.40625 27.859375 46.359375 
Q 25.6875 47.3125 23 47.3125 
Q 20.21875 47.3125 17.984375 46.3125 
Q 15.765625 45.3125 14.203125 42.890625 
Q 12.640625 40.484375 11.828125 36.46875 
Q 11.03125 32.46875 11.03125 26.46875 
Q 11.03125 20.3125 11.90625 16.28125 
Q 12.796875 12.25 14.328125 9.859375 
Q 15.875 7.46875 17.96875 6.484375 
Q 20.0625 5.515625 22.5625 5.515625 
Q 25.34375 5.515625 27.5625 6.46875 
Q 29.78125 7.421875 31.34375 9.8125 
Q 32.90625 12.203125 33.734375 16.25 
Q 34.578125 20.3125 34.578125 26.46875 
z
" id="LiberationSansNarrow-111"/>
      <path d="M 42.140625 26.65625 
Q 42.140625 20.65625 41.359375 15.578125 
Q 40.578125 10.5 38.6875 6.828125 
Q 36.8125 3.171875 33.765625 1.09375 
Q 30.71875 -0.984375 26.21875 -0.984375 
Q 21.578125 -0.984375 18.078125 1.171875 
Q 14.59375 3.328125 12.796875 8.203125 
L 12.546875 8.203125 
Q 12.59375 8.109375 12.609375 7.328125 
Q 12.640625 6.546875 12.671875 5.375 
Q 12.703125 4.203125 12.71875 2.75 
Q 12.75 1.3125 12.75 -0.09375 
L 12.75 -20.75 
L 5.515625 -20.75 
L 5.515625 42.046875 
Q 5.515625 43.953125 5.484375 45.703125 
Q 5.46875 47.46875 5.4375 48.90625 
Q 5.421875 50.34375 5.375 51.359375 
Q 5.328125 52.390625 5.28125 52.828125 
L 12.25 52.828125 
Q 12.3125 52.6875 12.359375 51.8125 
L 12.5 49.703125 
Q 12.546875 48.4375 12.59375 47.015625 
Q 12.640625 45.609375 12.640625 44.34375 
L 12.796875 44.34375 
Q 13.765625 46.875 15.0625 48.65625 
Q 16.359375 50.4375 18.015625 51.578125 
Q 19.671875 52.734375 21.671875 53.25 
Q 23.6875 53.765625 26.21875 53.765625 
Q 30.71875 53.765625 33.765625 51.8125 
Q 36.8125 49.859375 38.6875 46.3125 
Q 40.578125 42.78125 41.359375 37.765625 
Q 42.140625 32.765625 42.140625 26.65625 
z
M 34.578125 26.46875 
Q 34.578125 31.34375 34.109375 35.15625 
Q 33.640625 38.96875 32.4375 41.59375 
Q 31.25 44.234375 29.296875 45.59375 
Q 27.34375 46.96875 24.359375 46.96875 
Q 21.96875 46.96875 19.84375 46.140625 
Q 17.71875 45.3125 16.125 42.96875 
Q 14.546875 40.625 13.640625 36.5 
Q 12.75 32.375 12.75 25.78125 
Q 12.75 20.171875 13.5 16.28125 
Q 14.265625 12.40625 15.71875 10.015625 
Q 17.1875 7.625 19.328125 6.5625 
Q 21.484375 5.515625 24.3125 5.515625 
Q 27.34375 5.515625 29.296875 6.921875 
Q 31.25 8.34375 32.4375 11.03125 
Q 33.640625 13.71875 34.109375 17.59375 
Q 34.578125 21.484375 34.578125 26.46875 
z
" id="LiberationSansNarrow-112"/>
     </defs>
     <g transform="translate(95.7294 50.373776)scale(0.11662 -0.11662)">
      <use xlink:href="#LiberationSansNarrow-72"/>
      <use x="59.179688" xlink:href="#LiberationSansNarrow-111"/>
      <use x="104.785156" xlink:href="#LiberationSansNarrow-112"/>
     </g>
    </g>
    <g id="line2d_22">
     <path d="M 147.235352 32.505406 
L 170.559352 32.505406 
" style="fill:none;stroke:#2ca02c;stroke-linecap:square;"/>
    </g>
    <g id="line2d_23"/>
    <g id="text_16">
     <!-- Lpe -->
     <defs>
      <path d="M 6.734375 0 
L 6.734375 68.796875 
L 14.359375 68.796875 
L 14.359375 7.625 
L 42.875 7.625 
L 42.875 0 
z
" id="LiberationSansNarrow-76"/>
      <path d="M 10.6875 24.5625 
Q 10.6875 20.40625 11.5625 16.90625 
Q 12.453125 13.421875 13.90625 10.90625 
Q 15.375 8.40625 17.640625 7 
Q 19.921875 5.609375 23.140625 5.609375 
Q 27.828125 5.609375 30.65625 7.90625 
Q 33.5 10.203125 34.46875 13.71875 
L 40.828125 11.53125 
Q 40.140625 9.328125 38.921875 7.109375 
Q 37.703125 4.890625 35.640625 3.09375 
Q 33.59375 1.3125 30.53125 0.15625 
Q 27.484375 -0.984375 23.140625 -0.984375 
Q 13.53125 -0.984375 8.5 6 
Q 3.46875 12.984375 3.46875 26.765625 
Q 3.46875 34.1875 5 39.328125 
Q 6.546875 44.484375 9.171875 47.703125 
Q 11.8125 50.921875 15.328125 52.359375 
Q 18.84375 53.8125 22.859375 53.8125 
Q 28.328125 53.8125 31.984375 51.65625 
Q 39.0625 47.515625 41.015625 36.8125 
Q 41.9375 31.6875 41.9375 25.734375 
L 41.9375 24.5625 
z
M 34.71875 31.296875 
Q 34.71875 40.140625 31.421875 43.71875 
Q 28.125 47.3125 22.75 47.3125 
Q 18.953125 47.3125 15.328125 44.09375 
Q 10.9375 40.328125 10.6875 31.296875 
z
" id="LiberationSansNarrow-101"/>
     </defs>
     <g transform="translate(179.888952 36.587106)scale(0.11662 -0.11662)">
      <use xlink:href="#LiberationSansNarrow-76"/>
      <use x="45.605469" xlink:href="#LiberationSansNarrow-112"/>
      <use x="91.210938" xlink:href="#LiberationSansNarrow-101"/>
     </g>
    </g>
    <g id="line2d_24">
     <path d="M 147.235352 46.292076 
L 170.559352 46.292076 
" style="fill:none;stroke:#d62728;stroke-linecap:square;"/>
    </g>
    <g id="line2d_25"/>
    <g id="text_17">
     <!-- Lcap Lpe -->
     <defs>
      <path d="M 11.03125 26.65625 
Q 11.03125 22.125 11.5625 18.3125 
Q 12.109375 14.5 13.375 11.734375 
Q 14.65625 8.984375 16.75 7.46875 
Q 18.84375 5.953125 21.96875 5.953125 
Q 25.828125 5.953125 28.390625 8.484375 
Q 30.953125 11.03125 31.546875 16.3125 
L 38.875 15.71875 
Q 38.53125 12.453125 37.296875 9.421875 
Q 36.078125 6.390625 34.03125 4.09375 
Q 31.984375 1.8125 29 0.40625 
Q 26.03125 -0.984375 22.171875 -0.984375 
Q 17.09375 -0.984375 13.5 1.109375 
Q 9.90625 3.21875 7.6875 6.90625 
Q 5.46875 10.59375 4.46875 15.59375 
Q 3.46875 20.609375 3.46875 26.46875 
Q 3.46875 31.78125 4.203125 35.859375 
Q 4.9375 39.9375 6.21875 42.984375 
Q 7.515625 46.046875 9.265625 48.125 
Q 11.03125 50.203125 13.109375 51.4375 
Q 15.1875 52.6875 17.453125 53.25 
Q 19.734375 53.8125 22.078125 53.8125 
Q 25.734375 53.8125 28.5625 52.59375 
Q 31.390625 51.375 33.46875 49.25 
Q 35.546875 47.125 36.8125 44.234375 
Q 38.09375 41.359375 38.625 38.03125 
L 31.203125 37.359375 
Q 30.671875 41.75 28.375 44.328125 
Q 26.078125 46.921875 21.875 46.921875 
Q 18.796875 46.921875 16.71875 45.671875 
Q 14.65625 44.4375 13.375 41.921875 
Q 12.109375 39.40625 11.5625 35.59375 
Q 11.03125 31.78125 11.03125 26.65625 
z
" id="LiberationSansNarrow-99"/>
      <path d="M 16.546875 -0.984375 
Q 10.015625 -0.984375 6.734375 3.21875 
Q 3.46875 7.421875 3.46875 14.75 
Q 3.46875 19.96875 5.09375 23.3125 
Q 6.734375 26.65625 9.34375 28.5625 
Q 11.96875 30.46875 15.328125 31.203125 
Q 18.703125 31.9375 22.171875 32.03125 
L 31.9375 32.234375 
L 31.9375 35.109375 
Q 31.9375 38.375 31.375 40.671875 
Q 30.8125 42.96875 29.640625 44.375 
Q 28.46875 45.796875 26.734375 46.453125 
Q 25 47.125 22.609375 47.125 
Q 20.515625 47.125 18.84375 46.75 
Q 17.1875 46.390625 15.9375 45.4375 
Q 14.703125 44.484375 13.9375 42.84375 
Q 13.1875 41.21875 12.9375 38.71875 
L 5.421875 39.546875 
Q 5.8125 42.671875 6.9375 45.28125 
Q 8.0625 47.90625 10.109375 49.796875 
Q 12.15625 51.703125 15.25 52.75 
Q 18.359375 53.8125 22.796875 53.8125 
Q 30.953125 53.8125 35.078125 49.234375 
Q 39.203125 44.671875 39.203125 36.03125 
L 39.203125 13.28125 
Q 39.203125 9.375 40.03125 7.390625 
Q 40.875 5.421875 43.265625 5.421875 
Q 43.84375 5.421875 44.453125 5.515625 
Q 45.0625 5.609375 45.609375 5.765625 
L 45.609375 0.296875 
Q 44.234375 -0.09375 42.890625 -0.28125 
Q 41.546875 -0.484375 40.046875 -0.484375 
Q 37.984375 -0.484375 36.515625 0.171875 
Q 35.0625 0.828125 34.15625 2.171875 
Q 33.25 3.515625 32.765625 5.484375 
Q 32.28125 7.46875 32.125 10.109375 
L 31.9375 10.109375 
Q 30.765625 7.5625 29.375 5.515625 
Q 27.984375 3.46875 26.140625 2.03125 
Q 24.3125 0.59375 21.9375 -0.1875 
Q 19.578125 -0.984375 16.546875 -0.984375 
z
M 18.21875 5.609375 
Q 21.6875 5.609375 24.25 7.140625 
Q 26.8125 8.6875 28.515625 11.078125 
Q 30.21875 13.484375 31.078125 16.3125 
Q 31.9375 19.140625 31.9375 21.734375 
L 31.9375 26.078125 
L 24.03125 25.875 
Q 21.390625 25.828125 19 25.40625 
Q 16.609375 25 14.8125 23.78125 
Q 13.03125 22.5625 11.953125 20.359375 
Q 10.890625 18.171875 10.890625 14.59375 
Q 10.890625 10.296875 12.796875 7.953125 
Q 14.703125 5.609375 18.21875 5.609375 
z
" id="LiberationSansNarrow-97"/>
     </defs>
     <g transform="translate(179.888952 50.373776)scale(0.11662 -0.11662)">
      <use xlink:href="#LiberationSansNarrow-76"/>
      <use x="45.605469" xlink:href="#LiberationSansNarrow-99"/>
      <use x="86.621094" xlink:href="#LiberationSansNarrow-97"/>
      <use x="132.226562" xlink:href="#LiberationSansNarrow-112"/>
      <use x="177.832031" xlink:href="#LiberationSansNarrow-32"/>
      <use x="200.634766" xlink:href="#LiberationSansNarrow-76"/>
      <use x="246.240234" xlink:href="#LiberationSansNarrow-112"/>
      <use x="291.845703" xlink:href="#LiberationSansNarrow-101"/>
     </g>
    </g>
    <g id="line2d_26">
     <path d="M 230.906558 32.505406 
L 254.230558 32.505406 
" style="fill:none;stroke:#9467bd;stroke-linecap:square;"/>
    </g>
    <g id="line2d_27"/>
    <g id="text_18">
     <!-- Lpb Hop -->
     <defs>
      <path d="M 42.140625 26.65625 
Q 42.140625 -0.984375 26.21875 -0.984375 
Q 21.296875 -0.984375 18.046875 1.1875 
Q 14.796875 3.375 12.75 8.203125 
L 12.640625 8.203125 
Q 12.640625 6.9375 12.59375 5.5625 
Q 12.546875 4.203125 12.5 3.03125 
L 12.359375 1.03125 
Q 12.3125 0.203125 12.25 0 
L 5.28125 0 
Q 5.328125 0.4375 5.375 1.484375 
Q 5.421875 2.546875 5.4375 4 
Q 5.46875 5.46875 5.484375 7.21875 
Q 5.515625 8.984375 5.515625 10.890625 
L 5.515625 72.46875 
L 12.75 72.46875 
L 12.75 51.8125 
Q 12.75 50.34375 12.71875 49 
Q 12.703125 47.65625 12.640625 46.625 
Q 12.59375 45.40625 12.546875 44.34375 
L 12.75 44.34375 
Q 14.75 49.421875 18.046875 51.609375 
Q 21.34375 53.8125 26.21875 53.8125 
Q 34.421875 53.8125 38.28125 47.0625 
Q 42.140625 40.328125 42.140625 26.65625 
z
M 34.578125 26.375 
Q 34.578125 31.84375 34.03125 35.75 
Q 33.5 39.65625 32.25 42.15625 
Q 31 44.671875 29.078125 45.84375 
Q 27.15625 47.015625 24.359375 47.015625 
Q 21.53125 47.015625 19.359375 45.890625 
Q 17.1875 44.78125 15.71875 42.28125 
Q 14.265625 39.796875 13.5 35.734375 
Q 12.75 31.6875 12.75 25.828125 
Q 12.75 20.171875 13.5 16.3125 
Q 14.265625 12.453125 15.71875 10.03125 
Q 17.1875 7.625 19.328125 6.5625 
Q 21.484375 5.515625 24.3125 5.515625 
Q 26.953125 5.515625 28.875 6.640625 
Q 30.8125 7.765625 32.078125 10.25 
Q 33.34375 12.75 33.953125 16.71875 
Q 34.578125 20.703125 34.578125 26.375 
z
" id="LiberationSansNarrow-98"/>
     </defs>
     <g transform="translate(263.560158 36.587106)scale(0.11662 -0.11662)">
      <use xlink:href="#LiberationSansNarrow-76"/>
      <use x="45.605469" xlink:href="#LiberationSansNarrow-112"/>
      <use x="91.210938" xlink:href="#LiberationSansNarrow-98"/>
      <use x="136.816406" xlink:href="#LiberationSansNarrow-32"/>
      <use x="159.619141" xlink:href="#LiberationSansNarrow-72"/>
      <use x="218.798828" xlink:href="#LiberationSansNarrow-111"/>
      <use x="264.404297" xlink:href="#LiberationSansNarrow-112"/>
     </g>
    </g>
   </g>
  </g>
 </g>
 <defs>
  <clipPath id="p3cb058bee1">
   <rect height="234.56" width="505.78" x="52.58" y="17.64"/>
  </clipPath>
 </defs>
</svg>
