<?xml version="1.0" encoding="utf-8" standalone="no"?>
<!DOCTYPE svg PUBLIC "-//W3C//DTD SVG 1.1//EN"
  "http://www.w3.org/Graphics/SVG/1.1/DTD/svg11.dtd">
<!-- Created with matplotlib (https://matplotlib.org/) -->
<svg height="288pt" version="1.1" viewBox="0 0 576 288" width="576pt" xmlns="http://www.w3.org/2000/svg" xmlns:xlink="http://www.w3.org/1999/xlink">
 <defs>
  <style type="text/css">
*{stroke-linecap:butt;stroke-linejoin:round;}
  </style>
 </defs>
 <g id="figure_1">
  <g id="patch_1">
   <path d="M 0 288 
L 576 288 
L 576 0 
L 0 0 
z
" style="fill:#ffffff;"/>
  </g>
  <g id="axes_1">
   <g id="patch_2">
    <path d="M 59.06 252.2 
L 558.36 252.2 
L 558.36 17.64 
L 59.06 17.64 
z
" style="fill:#ffffff;"/>
   </g>
   <g id="matplotlib.axis_1">
    <g id="xtick_1">
     <g id="line2d_1">
      <path clip-path="url(#p2ec54bf8b2)" d="M 81.755455 252.2 
L 81.755455 17.64 
" style="fill:none;stroke:#b0b0b0;stroke-dasharray:1.48,0.64;stroke-dashoffset:0;stroke-width:0.4;"/>
     </g>
     <g id="text_1">
      <!-- 0.0 -->
      <defs>
       <path d="M 42.390625 34.421875 
Q 42.390625 24.515625 40.84375 17.75 
Q 39.3125 10.984375 36.640625 6.8125 
Q 33.984375 2.640625 30.390625 0.828125 
Q 26.8125 -0.984375 22.703125 -0.984375 
Q 18.609375 -0.984375 15.03125 0.828125 
Q 11.46875 2.640625 8.828125 6.78125 
Q 6.203125 10.9375 4.703125 17.703125 
Q 3.21875 24.46875 3.21875 34.421875 
Q 3.21875 44.828125 4.703125 51.640625 
Q 6.203125 58.453125 8.828125 62.5 
Q 11.46875 66.546875 15.078125 68.1875 
Q 18.703125 69.828125 22.953125 69.828125 
Q 27 69.828125 30.53125 68.1875 
Q 34.078125 66.546875 36.71875 62.5 
Q 39.359375 58.453125 40.875 51.640625 
Q 42.390625 44.828125 42.390625 34.421875 
z
M 35.0625 34.421875 
Q 35.0625 42.625 34.28125 48.0625 
Q 33.5 53.515625 31.9375 56.765625 
Q 30.375 60.015625 28.09375 61.359375 
Q 25.828125 62.703125 22.953125 62.703125 
Q 19.921875 62.703125 17.578125 61.328125 
Q 15.234375 59.96875 13.671875 56.71875 
Q 12.109375 53.46875 11.296875 48.015625 
Q 10.5 42.578125 10.5 34.421875 
Q 10.5 26.515625 11.296875 21.09375 
Q 12.109375 15.671875 13.6875 12.375 
Q 15.28125 9.078125 17.578125 7.640625 
Q 19.875 6.203125 22.796875 6.203125 
Q 25.640625 6.203125 27.90625 7.640625 
Q 30.171875 9.078125 31.75 12.375 
Q 33.34375 15.671875 34.203125 21.09375 
Q 35.0625 26.515625 35.0625 34.421875 
z
" id="LiberationSansNarrow-48"/>
       <path d="M 7.46875 0 
L 7.46875 10.6875 
L 15.328125 10.6875 
L 15.328125 0 
z
" id="LiberationSansNarrow-46"/>
      </defs>
      <g transform="translate(73.774361 269.345625)scale(0.14 -0.14)">
       <use xlink:href="#LiberationSansNarrow-48"/>
       <use x="45.605469" xlink:href="#LiberationSansNarrow-46"/>
       <use x="68.408203" xlink:href="#LiberationSansNarrow-48"/>
      </g>
     </g>
    </g>
    <g id="xtick_2">
     <g id="line2d_2">
      <path clip-path="url(#p2ec54bf8b2)" d="M 172.537273 252.2 
L 172.537273 17.64 
" style="fill:none;stroke:#b0b0b0;stroke-dasharray:1.48,0.64;stroke-dashoffset:0;stroke-width:0.4;"/>
     </g>
     <g id="text_2">
      <!-- 0.2 -->
      <defs>
       <path d="M 4.109375 0 
L 4.109375 6.203125 
Q 6.15625 11.921875 9.109375 16.28125 
Q 12.0625 20.65625 15.3125 24.1875 
Q 18.5625 27.734375 21.734375 30.765625 
Q 24.90625 33.796875 27.46875 36.8125 
Q 30.03125 39.84375 31.609375 43.15625 
Q 33.203125 46.484375 33.203125 50.6875 
Q 33.203125 53.609375 32.46875 55.828125 
Q 31.734375 58.0625 30.390625 59.5625 
Q 29.046875 61.078125 27.140625 61.828125 
Q 25.25 62.59375 22.90625 62.59375 
Q 20.75 62.59375 18.84375 61.859375 
Q 16.9375 61.140625 15.453125 59.671875 
Q 13.96875 58.203125 13.03125 56.03125 
Q 12.109375 53.859375 11.8125 50.984375 
L 4.4375 51.8125 
Q 4.78125 55.515625 6.125 58.78125 
Q 7.46875 62.0625 9.78125 64.53125 
Q 12.109375 67 15.359375 68.40625 
Q 18.609375 69.828125 22.90625 69.828125 
Q 27.09375 69.828125 30.390625 68.609375 
Q 33.6875 67.390625 35.9375 64.984375 
Q 38.1875 62.59375 39.40625 59.078125 
Q 40.625 55.5625 40.625 50.984375 
Q 40.625 47.515625 39.59375 44.390625 
Q 38.578125 41.265625 36.859375 38.421875 
Q 35.15625 35.59375 32.90625 32.953125 
Q 30.671875 30.328125 28.21875 27.828125 
L 23.296875 22.859375 
Q 20.796875 20.359375 18.625 17.859375 
Q 16.453125 15.375 14.734375 12.8125 
Q 13.03125 10.25 12.0625 7.46875 
L 41.5 7.46875 
L 41.5 0 
z
" id="LiberationSansNarrow-50"/>
      </defs>
      <g transform="translate(164.556179 269.345625)scale(0.14 -0.14)">
       <use xlink:href="#LiberationSansNarrow-48"/>
       <use x="45.605469" xlink:href="#LiberationSansNarrow-46"/>
       <use x="68.408203" xlink:href="#LiberationSansNarrow-50"/>
      </g>
     </g>
    </g>
    <g id="xtick_3">
     <g id="line2d_3">
      <path clip-path="url(#p2ec54bf8b2)" d="M 263.319091 252.2 
L 263.319091 17.64 
" style="fill:none;stroke:#b0b0b0;stroke-dasharray:1.48,0.64;stroke-dashoffset:0;stroke-width:0.4;"/>
     </g>
     <g id="text_3">
      <!-- 0.4 -->
      <defs>
       <path d="M 35.25 15.578125 
L 35.25 0 
L 28.46875 0 
L 28.46875 15.578125 
L 1.90625 15.578125 
L 1.90625 22.40625 
L 27.6875 68.796875 
L 35.25 68.796875 
L 35.25 22.515625 
L 43.21875 22.515625 
L 43.21875 15.578125 
z
M 28.46875 58.890625 
Q 28.375 58.640625 28.03125 57.90625 
L 27.34375 56.34375 
L 26.5625 54.59375 
Q 26.125 53.65625 25.78125 53.078125 
L 11.328125 27.09375 
Q 11.140625 26.703125 10.75 26.078125 
L 9.96875 24.8125 
L 9.1875 23.484375 
Q 8.796875 22.859375 8.546875 22.515625 
L 28.46875 22.515625 
z
" id="LiberationSansNarrow-52"/>
      </defs>
      <g transform="translate(255.337997 269.345625)scale(0.14 -0.14)">
       <use xlink:href="#LiberationSansNarrow-48"/>
       <use x="45.605469" xlink:href="#LiberationSansNarrow-46"/>
       <use x="68.408203" xlink:href="#LiberationSansNarrow-52"/>
      </g>
     </g>
    </g>
    <g id="xtick_4">
     <g id="line2d_4">
      <path clip-path="url(#p2ec54bf8b2)" d="M 354.100909 252.2 
L 354.100909 17.64 
" style="fill:none;stroke:#b0b0b0;stroke-dasharray:1.48,0.64;stroke-dashoffset:0;stroke-width:0.4;"/>
     </g>
     <g id="text_4">
      <!-- 0.6 -->
      <defs>
       <path d="M 42 22.515625 
Q 42 17.328125 40.828125 13 
Q 39.65625 8.6875 37.359375 5.578125 
Q 35.0625 2.484375 31.640625 0.75 
Q 28.21875 -0.984375 23.78125 -0.984375 
Q 18.84375 -0.984375 15.15625 1.3125 
Q 11.46875 3.609375 9.03125 7.921875 
Q 6.59375 12.25 5.375 18.53125 
Q 4.15625 24.8125 4.15625 32.8125 
Q 4.15625 42 5.546875 48.921875 
Q 6.9375 55.859375 9.515625 60.5 
Q 12.109375 65.140625 15.859375 67.484375 
Q 19.625 69.828125 24.359375 69.828125 
Q 27.25 69.828125 29.765625 69.09375 
Q 32.28125 68.359375 34.328125 66.71875 
Q 36.375 65.09375 37.9375 62.40625 
Q 39.5 59.71875 40.4375 55.8125 
L 33.546875 54.296875 
Q 32.421875 58.734375 29.953125 60.71875 
Q 27.484375 62.703125 24.265625 62.703125 
Q 21.296875 62.703125 18.890625 60.984375 
Q 16.5 59.28125 14.8125 55.875 
Q 13.140625 52.484375 12.234375 47.359375 
Q 11.328125 42.234375 11.328125 35.40625 
Q 13.28125 39.84375 16.84375 42.15625 
Q 20.40625 44.484375 25.046875 44.484375 
Q 28.90625 44.484375 32 42.96875 
Q 35.109375 41.453125 37.328125 38.59375 
Q 39.546875 35.75 40.765625 31.671875 
Q 42 27.59375 42 22.515625 
z
M 34.671875 22.125 
Q 34.671875 25.6875 33.953125 28.5625 
Q 33.25 31.453125 31.8125 33.46875 
Q 30.375 35.5 28.25 36.59375 
Q 26.125 37.703125 23.296875 37.703125 
Q 21.34375 37.703125 19.328125 36.984375 
Q 17.328125 36.28125 15.71875 34.6875 
Q 14.109375 33.109375 13.078125 30.515625 
Q 12.0625 27.9375 12.0625 24.21875 
Q 12.0625 20.40625 12.859375 17.109375 
Q 13.671875 13.8125 15.15625 11.375 
Q 16.65625 8.9375 18.78125 7.515625 
Q 20.90625 6.109375 23.53125 6.109375 
Q 26.125 6.109375 28.203125 7.203125 
Q 30.28125 8.296875 31.71875 10.375 
Q 33.15625 12.453125 33.90625 15.421875 
Q 34.671875 18.40625 34.671875 22.125 
z
" id="LiberationSansNarrow-54"/>
      </defs>
      <g transform="translate(346.119815 269.345625)scale(0.14 -0.14)">
       <use xlink:href="#LiberationSansNarrow-48"/>
       <use x="45.605469" xlink:href="#LiberationSansNarrow-46"/>
       <use x="68.408203" xlink:href="#LiberationSansNarrow-54"/>
      </g>
     </g>
    </g>
    <g id="xtick_5">
     <g id="line2d_5">
      <path clip-path="url(#p2ec54bf8b2)" d="M 444.882727 252.2 
L 444.882727 17.64 
" style="fill:none;stroke:#b0b0b0;stroke-dasharray:1.48,0.64;stroke-dashoffset:0;stroke-width:0.4;"/>
     </g>
     <g id="text_5">
      <!-- 0.8 -->
      <defs>
       <path d="M 42.046875 19.1875 
Q 42.046875 14.796875 40.890625 11.109375 
Q 39.75 7.421875 37.40625 4.734375 
Q 35.0625 2.046875 31.421875 0.53125 
Q 27.78125 -0.984375 22.796875 -0.984375 
Q 17.828125 -0.984375 14.203125 0.53125 
Q 10.59375 2.046875 8.21875 4.703125 
Q 5.859375 7.375 4.703125 11.0625 
Q 3.5625 14.75 3.5625 19.09375 
Q 3.5625 22.859375 4.515625 25.78125 
Q 5.46875 28.71875 7.03125 30.828125 
Q 8.59375 32.953125 10.609375 34.25 
Q 12.640625 35.546875 14.796875 35.984375 
L 14.796875 36.1875 
Q 12.453125 36.859375 10.59375 38.375 
Q 8.734375 39.890625 7.46875 42.015625 
Q 6.203125 44.140625 5.546875 46.71875 
Q 4.890625 49.3125 4.890625 52.203125 
Q 4.890625 55.8125 6.03125 59 
Q 7.171875 62.203125 9.421875 64.625 
Q 11.671875 67.046875 14.984375 68.4375 
Q 18.3125 69.828125 22.65625 69.828125 
Q 27.25 69.828125 30.640625 68.40625 
Q 34.03125 67 36.25 64.578125 
Q 38.484375 62.15625 39.546875 58.9375 
Q 40.625 55.71875 40.625 52.09375 
Q 40.625 49.265625 39.96875 46.671875 
Q 39.3125 44.09375 38.0625 41.96875 
Q 36.8125 39.84375 34.9375 38.34375 
Q 33.0625 36.859375 30.609375 36.28125 
L 30.609375 36.078125 
Q 33.0625 35.59375 35.15625 34.296875 
Q 37.25 33.015625 38.765625 30.890625 
Q 40.28125 28.765625 41.15625 25.828125 
Q 42.046875 22.90625 42.046875 19.1875 
z
M 33.15625 51.609375 
Q 33.15625 54.203125 32.609375 56.34375 
Q 32.078125 58.5 30.828125 60.03125 
Q 29.59375 61.578125 27.59375 62.421875 
Q 25.59375 63.28125 22.65625 63.28125 
Q 19.828125 63.28125 17.875 62.421875 
Q 15.921875 61.578125 14.640625 60.03125 
Q 13.375 58.5 12.8125 56.34375 
Q 12.25 54.203125 12.25 51.609375 
Q 12.25 49.5625 12.6875 47.40625 
Q 13.140625 45.265625 14.3125 43.5 
Q 15.484375 41.75 17.5 40.625 
Q 19.53125 39.5 22.75 39.5 
Q 26.171875 39.5 28.21875 40.625 
Q 30.28125 41.75 31.375 43.5 
Q 32.46875 45.265625 32.8125 47.40625 
Q 33.15625 49.5625 33.15625 51.609375 
z
M 34.578125 20.015625 
Q 34.578125 22.515625 34.015625 24.828125 
Q 33.453125 27.15625 32.078125 28.9375 
Q 30.71875 30.71875 28.421875 31.8125 
Q 26.125 32.90625 22.65625 32.90625 
Q 19.484375 32.90625 17.265625 31.8125 
Q 15.046875 30.71875 13.671875 28.90625 
Q 12.3125 27.09375 11.671875 24.71875 
Q 11.03125 22.359375 11.03125 19.828125 
Q 11.03125 16.65625 11.671875 14.03125 
Q 12.3125 11.421875 13.703125 9.546875 
Q 15.09375 7.671875 17.375 6.640625 
Q 19.671875 5.609375 22.90625 5.609375 
Q 26.171875 5.609375 28.421875 6.640625 
Q 30.671875 7.671875 32.03125 9.546875 
Q 33.40625 11.421875 33.984375 14.078125 
Q 34.578125 16.75 34.578125 20.015625 
z
" id="LiberationSansNarrow-56"/>
      </defs>
      <g transform="translate(436.901634 269.345625)scale(0.14 -0.14)">
       <use xlink:href="#LiberationSansNarrow-48"/>
       <use x="45.605469" xlink:href="#LiberationSansNarrow-46"/>
       <use x="68.408203" xlink:href="#LiberationSansNarrow-56"/>
      </g>
     </g>
    </g>
    <g id="xtick_6">
     <g id="line2d_6">
      <path clip-path="url(#p2ec54bf8b2)" d="M 535.664545 252.2 
L 535.664545 17.64 
" style="fill:none;stroke:#b0b0b0;stroke-dasharray:1.48,0.64;stroke-dashoffset:0;stroke-width:0.4;"/>
     </g>
     <g id="text_6">
      <!-- 1.0 -->
      <defs>
       <path d="M 6.25 0 
L 6.25 7.46875 
L 20.609375 7.46875 
L 20.609375 60.40625 
L 7.90625 49.3125 
L 7.90625 57.625 
L 21.234375 68.796875 
L 27.875 68.796875 
L 27.875 7.46875 
L 41.609375 7.46875 
L 41.609375 0 
z
" id="LiberationSansNarrow-49"/>
      </defs>
      <g transform="translate(527.683452 269.345625)scale(0.14 -0.14)">
       <use xlink:href="#LiberationSansNarrow-49"/>
       <use x="45.605469" xlink:href="#LiberationSansNarrow-46"/>
       <use x="68.408203" xlink:href="#LiberationSansNarrow-48"/>
      </g>
     </g>
    </g>
   </g>
   <g id="matplotlib.axis_2">
    <g id="ytick_1">
     <g id="line2d_7">
      <path clip-path="url(#p2ec54bf8b2)" d="M 59.06 252.147404 
L 558.36 252.147404 
" style="fill:none;stroke:#b0b0b0;stroke-dasharray:1.48,0.64;stroke-dashoffset:0;stroke-width:0.4;"/>
     </g>
     <g id="text_7">
      <!-- 60 -->
      <g transform="translate(39.289375 257.220217)scale(0.14 -0.14)">
       <use xlink:href="#LiberationSansNarrow-54"/>
       <use x="45.605469" xlink:href="#LiberationSansNarrow-48"/>
      </g>
     </g>
    </g>
    <g id="ytick_2">
     <g id="line2d_8">
      <path clip-path="url(#p2ec54bf8b2)" d="M 59.06 218.034795 
L 558.36 218.034795 
" style="fill:none;stroke:#b0b0b0;stroke-dasharray:1.48,0.64;stroke-dashoffset:0;stroke-width:0.4;"/>
     </g>
     <g id="text_8">
      <!-- 80 -->
      <g transform="translate(39.289375 223.107607)scale(0.14 -0.14)">
       <use xlink:href="#LiberationSansNarrow-56"/>
       <use x="45.605469" xlink:href="#LiberationSansNarrow-48"/>
      </g>
     </g>
    </g>
    <g id="ytick_3">
     <g id="line2d_9">
      <path clip-path="url(#p2ec54bf8b2)" d="M 59.06 183.922185 
L 558.36 183.922185 
" style="fill:none;stroke:#b0b0b0;stroke-dasharray:1.48,0.64;stroke-dashoffset:0;stroke-width:0.4;"/>
     </g>
     <g id="text_9">
      <!-- 100 -->
      <g transform="translate(32.904063 188.994998)scale(0.14 -0.14)">
       <use xlink:href="#LiberationSansNarrow-49"/>
       <use x="45.605469" xlink:href="#LiberationSansNarrow-48"/>
       <use x="91.210938" xlink:href="#LiberationSansNarrow-48"/>
      </g>
     </g>
    </g>
    <g id="ytick_4">
     <g id="line2d_10">
      <path clip-path="url(#p2ec54bf8b2)" d="M 59.06 149.809575 
L 558.36 149.809575 
" style="fill:none;stroke:#b0b0b0;stroke-dasharray:1.48,0.64;stroke-dashoffset:0;stroke-width:0.4;"/>
     </g>
     <g id="text_10">
      <!-- 120 -->
      <g transform="translate(32.904063 154.882388)scale(0.14 -0.14)">
       <use xlink:href="#LiberationSansNarrow-49"/>
       <use x="45.605469" xlink:href="#LiberationSansNarrow-50"/>
       <use x="91.210938" xlink:href="#LiberationSansNarrow-48"/>
      </g>
     </g>
    </g>
    <g id="ytick_5">
     <g id="line2d_11">
      <path clip-path="url(#p2ec54bf8b2)" d="M 59.06 115.696966 
L 558.36 115.696966 
" style="fill:none;stroke:#b0b0b0;stroke-dasharray:1.48,0.64;stroke-dashoffset:0;stroke-width:0.4;"/>
     </g>
     <g id="text_11">
      <!-- 140 -->
      <g transform="translate(32.904063 120.769778)scale(0.14 -0.14)">
       <use xlink:href="#LiberationSansNarrow-49"/>
       <use x="45.605469" xlink:href="#LiberationSansNarrow-52"/>
       <use x="91.210938" xlink:href="#LiberationSansNarrow-48"/>
      </g>
     </g>
    </g>
    <g id="ytick_6">
     <g id="line2d_12">
      <path clip-path="url(#p2ec54bf8b2)" d="M 59.06 81.584356 
L 558.36 81.584356 
" style="fill:none;stroke:#b0b0b0;stroke-dasharray:1.48,0.64;stroke-dashoffset:0;stroke-width:0.4;"/>
     </g>
     <g id="text_12">
      <!-- 160 -->
      <g transform="translate(32.904063 86.657169)scale(0.14 -0.14)">
       <use xlink:href="#LiberationSansNarrow-49"/>
       <use x="45.605469" xlink:href="#LiberationSansNarrow-54"/>
       <use x="91.210938" xlink:href="#LiberationSansNarrow-48"/>
      </g>
     </g>
    </g>
    <g id="ytick_7">
     <g id="line2d_13">
      <path clip-path="url(#p2ec54bf8b2)" d="M 59.06 47.471747 
L 558.36 47.471747 
" style="fill:none;stroke:#b0b0b0;stroke-dasharray:1.48,0.64;stroke-dashoffset:0;stroke-width:0.4;"/>
     </g>
     <g id="text_13">
      <!-- 180 -->
      <g transform="translate(32.904063 52.544559)scale(0.14 -0.14)">
       <use xlink:href="#LiberationSansNarrow-49"/>
       <use x="45.605469" xlink:href="#LiberationSansNarrow-56"/>
       <use x="91.210938" xlink:href="#LiberationSansNarrow-48"/>
      </g>
     </g>
    </g>
    <g id="text_14">
     <!-- макс. оставание от рынка, % -->
     <defs>
      <path d="M 31.546875 0 
L 25.390625 0 
L 12.40625 46.4375 
Q 12.453125 45.171875 12.515625 43.703125 
Q 12.59375 42.234375 12.59375 40.75 
Q 12.59375 39.265625 12.609375 37.859375 
Q 12.640625 36.46875 12.640625 35.359375 
L 12.640625 0 
L 5.671875 0 
L 5.671875 52.828125 
L 16.890625 52.828125 
L 25.734375 20.5625 
Q 26.65625 17.484375 27.390625 13.796875 
Q 28.125 10.109375 28.421875 6.59375 
Q 28.8125 10.109375 29.515625 13.796875 
Q 30.21875 17.484375 31.15625 20.5625 
L 39.984375 52.828125 
L 50.734375 52.828125 
L 50.734375 0 
L 43.796875 0 
L 43.796875 35.359375 
Q 43.796875 36.421875 43.8125 37.890625 
Q 43.84375 39.359375 43.921875 40.921875 
Q 44 42.484375 44.015625 43.9375 
Q 44.046875 45.40625 44.140625 46.53125 
z
" id="LiberationSansNarrow-1084"/>
      <path d="M 16.546875 -0.984375 
Q 10.015625 -0.984375 6.734375 3.21875 
Q 3.46875 7.421875 3.46875 14.75 
Q 3.46875 19.96875 5.09375 23.3125 
Q 6.734375 26.65625 9.34375 28.5625 
Q 11.96875 30.46875 15.328125 31.203125 
Q 18.703125 31.9375 22.171875 32.03125 
L 31.9375 32.234375 
L 31.9375 35.109375 
Q 31.9375 38.375 31.375 40.671875 
Q 30.8125 42.96875 29.640625 44.375 
Q 28.46875 45.796875 26.734375 46.453125 
Q 25 47.125 22.609375 47.125 
Q 20.515625 47.125 18.84375 46.75 
Q 17.1875 46.390625 15.9375 45.4375 
Q 14.703125 44.484375 13.9375 42.84375 
Q 13.1875 41.21875 12.9375 38.71875 
L 5.421875 39.546875 
Q 5.8125 42.671875 6.9375 45.28125 
Q 8.0625 47.90625 10.109375 49.796875 
Q 12.15625 51.703125 15.25 52.75 
Q 18.359375 53.8125 22.796875 53.8125 
Q 30.953125 53.8125 35.078125 49.234375 
Q 39.203125 44.671875 39.203125 36.03125 
L 39.203125 13.28125 
Q 39.203125 9.375 40.03125 7.390625 
Q 40.875 5.421875 43.265625 5.421875 
Q 43.84375 5.421875 44.453125 5.515625 
Q 45.0625 5.609375 45.609375 5.765625 
L 45.609375 0.296875 
Q 44.234375 -0.09375 42.890625 -0.28125 
Q 41.546875 -0.484375 40.046875 -0.484375 
Q 37.984375 -0.484375 36.515625 0.171875 
Q 35.0625 0.828125 34.15625 2.171875 
Q 33.25 3.515625 32.765625 5.484375 
Q 32.28125 7.46875 32.125 10.109375 
L 31.9375 10.109375 
Q 30.765625 7.5625 29.375 5.515625 
Q 27.984375 3.46875 26.140625 2.03125 
Q 24.3125 0.59375 21.9375 -0.1875 
Q 19.578125 -0.984375 16.546875 -0.984375 
z
M 18.21875 5.609375 
Q 21.6875 5.609375 24.25 7.140625 
Q 26.8125 8.6875 28.515625 11.078125 
Q 30.21875 13.484375 31.078125 16.3125 
Q 31.9375 19.140625 31.9375 21.734375 
L 31.9375 26.078125 
L 24.03125 25.875 
Q 21.390625 25.828125 19 25.40625 
Q 16.609375 25 14.8125 23.78125 
Q 13.03125 22.5625 11.953125 20.359375 
Q 10.890625 18.171875 10.890625 14.59375 
Q 10.890625 10.296875 12.796875 7.953125 
Q 14.703125 5.609375 18.21875 5.609375 
z
" id="LiberationSansNarrow-1072"/>
      <path d="M 5.515625 52.828125 
L 12.703125 52.828125 
L 12.703125 29.6875 
Q 13.921875 29.6875 14.875 30.078125 
Q 15.828125 30.46875 16.875 31.6875 
Q 17.921875 32.90625 19.21875 35.15625 
Q 20.515625 37.40625 22.46875 41.15625 
L 28.375 52.828125 
L 35.890625 52.828125 
L 27.25 36.96875 
Q 25.4375 33.734375 24.109375 31.65625 
Q 22.796875 29.59375 22.125 28.90625 
L 36.234375 0 
L 28.21875 0 
L 17.140625 24.265625 
Q 16.359375 23.875 15.0625 23.578125 
Q 13.765625 23.296875 12.703125 23.296875 
L 12.703125 0 
L 5.515625 0 
z
" id="LiberationSansNarrow-1082"/>
      <path d="M 11.03125 26.65625 
Q 11.03125 22.125 11.5625 18.3125 
Q 12.109375 14.5 13.375 11.734375 
Q 14.65625 8.984375 16.75 7.46875 
Q 18.84375 5.953125 21.96875 5.953125 
Q 25.828125 5.953125 28.390625 8.484375 
Q 30.953125 11.03125 31.546875 16.3125 
L 38.875 15.71875 
Q 38.53125 12.453125 37.296875 9.421875 
Q 36.078125 6.390625 34.03125 4.09375 
Q 31.984375 1.8125 29 0.40625 
Q 26.03125 -0.984375 22.171875 -0.984375 
Q 17.09375 -0.984375 13.5 1.109375 
Q 9.90625 3.21875 7.6875 6.90625 
Q 5.46875 10.59375 4.46875 15.59375 
Q 3.46875 20.609375 3.46875 26.46875 
Q 3.46875 31.78125 4.203125 35.859375 
Q 4.9375 39.9375 6.21875 42.984375 
Q 7.515625 46.046875 9.265625 48.125 
Q 11.03125 50.203125 13.109375 51.4375 
Q 15.1875 52.6875 17.453125 53.25 
Q 19.734375 53.8125 22.078125 53.8125 
Q 25.734375 53.8125 28.5625 52.59375 
Q 31.390625 51.375 33.46875 49.25 
Q 35.546875 47.125 36.8125 44.234375 
Q 38.09375 41.359375 38.625 38.03125 
L 31.203125 37.359375 
Q 30.671875 41.75 28.375 44.328125 
Q 26.078125 46.921875 21.875 46.921875 
Q 18.796875 46.921875 16.71875 45.671875 
Q 14.65625 44.4375 13.375 41.921875 
Q 12.109375 39.40625 11.5625 35.59375 
Q 11.03125 31.78125 11.03125 26.65625 
z
" id="LiberationSansNarrow-1089"/>
      <path id="LiberationSansNarrow-32"/>
      <path d="M 42.140625 26.46875 
Q 42.140625 12.59375 37.125 5.796875 
Q 32.125 -0.984375 22.609375 -0.984375 
Q 18.0625 -0.984375 14.515625 0.671875 
Q 10.984375 2.34375 8.515625 5.765625 
Q 6.0625 9.1875 4.765625 14.328125 
Q 3.46875 19.484375 3.46875 26.46875 
Q 3.46875 53.8125 22.859375 53.8125 
Q 27.875 53.8125 31.5625 52.09375 
Q 35.25 50.390625 37.59375 46.96875 
Q 39.9375 43.5625 41.03125 38.421875 
Q 42.140625 33.296875 42.140625 26.46875 
z
M 34.578125 26.46875 
Q 34.578125 32.625 33.8125 36.625 
Q 33.0625 40.625 31.546875 43.015625 
Q 30.03125 45.40625 27.859375 46.359375 
Q 25.6875 47.3125 23 47.3125 
Q 20.21875 47.3125 17.984375 46.3125 
Q 15.765625 45.3125 14.203125 42.890625 
Q 12.640625 40.484375 11.828125 36.46875 
Q 11.03125 32.46875 11.03125 26.46875 
Q 11.03125 20.3125 11.90625 16.28125 
Q 12.796875 12.25 14.328125 9.859375 
Q 15.875 7.46875 17.96875 6.484375 
Q 20.0625 5.515625 22.5625 5.515625 
Q 25.34375 5.515625 27.5625 6.46875 
Q 29.78125 7.421875 31.34375 9.8125 
Q 32.90625 12.203125 33.734375 16.25 
Q 34.578125 20.3125 34.578125 26.46875 
z
" id="LiberationSansNarrow-1086"/>
      <path d="M 1.421875 52.828125 
L 36.140625 52.828125 
L 36.140625 46.4375 
L 22.359375 46.4375 
L 22.359375 0 
L 15.1875 0 
L 15.1875 46.4375 
L 1.421875 46.4375 
z
" id="LiberationSansNarrow-1090"/>
      <path d="M 22.5625 52.828125 
Q 25.59375 52.828125 28.484375 52.234375 
Q 31.390625 51.65625 33.640625 50.140625 
Q 35.890625 48.640625 37.234375 46.09375 
Q 38.578125 43.5625 38.578125 39.59375 
Q 38.578125 37.015625 37.890625 35.03125 
Q 37.203125 33.0625 35.984375 31.640625 
Q 34.765625 30.21875 33.125 29.3125 
Q 31.5 28.421875 29.6875 27.984375 
L 29.6875 27.640625 
Q 31.84375 27.296875 33.734375 26.4375 
Q 35.640625 25.59375 37 24.09375 
Q 38.375 22.609375 39.171875 20.40625 
Q 39.984375 18.21875 39.984375 15.234375 
Q 39.984375 11.421875 38.765625 8.5625 
Q 37.546875 5.71875 35.375 3.8125 
Q 33.203125 1.90625 30.171875 0.953125 
Q 27.15625 0 23.484375 0 
L 5.671875 0 
L 5.671875 52.828125 
z
M 12.890625 6.5 
L 22.3125 6.5 
Q 25.09375 6.5 27 6.984375 
Q 28.90625 7.46875 30.078125 8.546875 
Q 31.25 9.625 31.78125 11.25 
Q 32.328125 12.890625 32.328125 15.1875 
Q 32.328125 17.625 31.765625 19.328125 
Q 31.203125 21.046875 29.953125 22.109375 
Q 28.71875 23.1875 26.703125 23.671875 
Q 24.703125 24.171875 21.875 24.171875 
L 12.890625 24.171875 
z
M 12.890625 46.140625 
L 12.890625 30.515625 
L 21.53125 30.515625 
Q 24.265625 30.515625 26.0625 30.984375 
Q 27.875 31.453125 29 32.390625 
Q 30.125 33.34375 30.5625 34.828125 
Q 31 36.328125 31 38.421875 
Q 31 42.4375 28.96875 44.28125 
Q 26.953125 46.140625 22.125 46.140625 
z
" id="LiberationSansNarrow-1074"/>
      <path d="M 12.890625 52.828125 
L 12.890625 30.46875 
L 32.375 30.46875 
L 32.375 52.828125 
L 39.59375 52.828125 
L 39.59375 0 
L 32.375 0 
L 32.375 24.078125 
L 12.890625 24.078125 
L 12.890625 0 
L 5.671875 0 
L 5.671875 52.828125 
z
" id="LiberationSansNarrow-1085"/>
      <path d="M 12.640625 52.828125 
L 12.640625 23.921875 
Q 12.640625 22.796875 12.59375 20.921875 
Q 12.546875 19.046875 12.46875 17.046875 
Q 12.40625 15.046875 12.359375 13.234375 
Q 12.3125 11.421875 12.25 10.40625 
L 32.28125 52.828125 
L 40.140625 52.828125 
L 40.140625 0 
L 33.25 0 
L 33.25 32.234375 
Q 33.25 33.15625 33.296875 34.578125 
L 33.40625 37.40625 
Q 33.453125 38.875 33.5 40.234375 
L 33.640625 42.625 
L 13.375 0 
L 5.71875 0 
L 5.71875 52.828125 
z
" id="LiberationSansNarrow-1080"/>
      <path d="M 10.6875 24.5625 
Q 10.6875 20.40625 11.5625 16.90625 
Q 12.453125 13.421875 13.90625 10.90625 
Q 15.375 8.40625 17.640625 7 
Q 19.921875 5.609375 23.140625 5.609375 
Q 27.828125 5.609375 30.65625 7.90625 
Q 33.5 10.203125 34.46875 13.71875 
L 40.828125 11.53125 
Q 40.140625 9.328125 38.921875 7.109375 
Q 37.703125 4.890625 35.640625 3.09375 
Q 33.59375 1.3125 30.53125 0.15625 
Q 27.484375 -0.984375 23.140625 -0.984375 
Q 13.53125 -0.984375 8.5 6 
Q 3.46875 12.984375 3.46875 26.765625 
Q 3.46875 34.1875 5 39.328125 
Q 6.546875 44.484375 9.171875 47.703125 
Q 11.8125 50.921875 15.328125 52.359375 
Q 18.84375 53.8125 22.859375 53.8125 
Q 28.328125 53.8125 31.984375 51.65625 
Q 39.0625 47.515625 41.015625 36.8125 
Q 41.9375 31.6875 41.9375 25.734375 
L 41.9375 24.5625 
z
M 34.71875 31.296875 
Q 34.71875 40.140625 31.421875 43.71875 
Q 28.125 47.3125 22.75 47.3125 
Q 18.953125 47.3125 15.328125 44.09375 
Q 10.9375 40.328125 10.6875 31.296875 
z
" id="LiberationSansNarrow-1077"/>
      <path d="M 42.140625 26.65625 
Q 42.140625 20.65625 41.359375 15.578125 
Q 40.578125 10.5 38.6875 6.828125 
Q 36.8125 3.171875 33.765625 1.09375 
Q 30.71875 -0.984375 26.21875 -0.984375 
Q 21.578125 -0.984375 18.078125 1.171875 
Q 14.59375 3.328125 12.796875 8.203125 
L 12.546875 8.203125 
Q 12.59375 8.109375 12.609375 7.328125 
Q 12.640625 6.546875 12.671875 5.375 
Q 12.703125 4.203125 12.71875 2.75 
Q 12.75 1.3125 12.75 -0.09375 
L 12.75 -20.75 
L 5.515625 -20.75 
L 5.515625 42.046875 
Q 5.515625 43.953125 5.484375 45.703125 
Q 5.46875 47.46875 5.4375 48.90625 
Q 5.421875 50.34375 5.375 51.359375 
Q 5.328125 52.390625 5.28125 52.828125 
L 12.25 52.828125 
Q 12.3125 52.6875 12.359375 51.8125 
L 12.5 49.703125 
Q 12.546875 48.4375 12.59375 47.015625 
Q 12.640625 45.609375 12.640625 44.34375 
L 12.796875 44.34375 
Q 13.765625 46.875 15.0625 48.65625 
Q 16.359375 50.4375 18.015625 51.578125 
Q 19.671875 52.734375 21.671875 53.25 
Q 23.6875 53.765625 26.21875 53.765625 
Q 30.71875 53.765625 33.765625 51.8125 
Q 36.8125 49.859375 38.6875 46.3125 
Q 40.578125 42.78125 41.359375 37.765625 
Q 42.140625 32.765625 42.140625 26.65625 
z
M 34.578125 26.46875 
Q 34.578125 31.34375 34.109375 35.15625 
Q 33.640625 38.96875 32.4375 41.59375 
Q 31.25 44.234375 29.296875 45.59375 
Q 27.34375 46.96875 24.359375 46.96875 
Q 21.96875 46.96875 19.84375 46.140625 
Q 17.71875 45.3125 16.125 42.96875 
Q 14.546875 40.625 13.640625 36.5 
Q 12.75 32.375 12.75 25.78125 
Q 12.75 20.171875 13.5 16.28125 
Q 14.265625 12.40625 15.71875 10.015625 
Q 17.1875 7.625 19.328125 6.5625 
Q 21.484375 5.515625 24.3125 5.515625 
Q 27.34375 5.515625 29.296875 6.921875 
Q 31.25 8.34375 32.4375 11.03125 
Q 33.640625 13.71875 34.109375 17.59375 
Q 34.578125 21.484375 34.578125 26.46875 
z
" id="LiberationSansNarrow-1088"/>
      <path d="M 22.796875 30.46875 
Q 31.296875 30.46875 35.640625 26.875 
Q 39.984375 23.296875 39.984375 15.53125 
Q 39.984375 11.921875 38.90625 9.03125 
Q 37.84375 6.15625 35.671875 4.15625 
Q 33.5 2.15625 30.296875 1.078125 
Q 27.09375 0 22.859375 0 
L 5.859375 0 
L 5.859375 52.828125 
L 13.328125 52.828125 
L 13.328125 30.46875 
z
M 13.328125 6.203125 
L 21.734375 6.203125 
Q 24.609375 6.203125 26.578125 6.8125 
Q 28.5625 7.421875 29.78125 8.609375 
Q 31 9.8125 31.53125 11.546875 
Q 32.078125 13.28125 32.078125 15.53125 
Q 32.078125 20.125 29.65625 22.234375 
Q 27.25 24.359375 21.734375 24.359375 
L 13.328125 24.359375 
z
M 47.65625 0 
L 47.65625 52.828125 
L 55.125 52.828125 
L 55.125 0 
z
" id="LiberationSansNarrow-1099"/>
      <path d="M 15.4375 10.6875 
L 15.4375 2.484375 
Q 15.4375 -0.09375 15.265625 -2.21875 
Q 15.09375 -4.34375 14.671875 -6.171875 
Q 14.265625 -8.015625 13.671875 -9.625 
Q 13.09375 -11.234375 12.3125 -12.796875 
L 7.375 -12.796875 
Q 9.1875 -9.625 10.15625 -6.390625 
Q 11.140625 -3.171875 11.140625 0 
L 7.625 0 
L 7.625 10.6875 
z
" id="LiberationSansNarrow-44"/>
      <path d="M 69.96875 21.1875 
Q 69.96875 15.09375 68.9375 10.90625 
Q 67.921875 6.734375 66.1875 4.171875 
Q 64.453125 1.609375 62.125 0.5 
Q 59.8125 -0.59375 57.171875 -0.59375 
Q 54.546875 -0.59375 52.21875 0.5 
Q 49.90625 1.609375 48.21875 4.140625 
Q 46.53125 6.6875 45.546875 10.859375 
Q 44.578125 15.046875 44.578125 21.1875 
Q 44.578125 27.6875 45.53125 31.9375 
Q 46.484375 36.1875 48.1875 38.703125 
Q 49.90625 41.21875 52.25 42.21875 
Q 54.59375 43.21875 57.328125 43.21875 
Q 59.96875 43.21875 62.25 42.21875 
Q 64.546875 41.21875 66.25 38.703125 
Q 67.96875 36.1875 68.96875 31.9375 
Q 69.96875 27.6875 69.96875 21.1875 
z
M 21.09375 0 
L 14.890625 0 
L 51.8125 68.796875 
L 58.109375 68.796875 
z
M 15.765625 69.390625 
Q 18.3125 69.390625 20.609375 68.390625 
Q 22.90625 67.390625 24.609375 64.890625 
Q 26.3125 62.40625 27.3125 58.203125 
Q 28.328125 54 28.328125 47.609375 
Q 28.328125 41.453125 27.3125 37.25 
Q 26.3125 33.0625 24.609375 30.4375 
Q 22.90625 27.828125 20.578125 26.703125 
Q 18.265625 25.59375 15.625 25.59375 
Q 12.9375 25.59375 10.609375 26.703125 
Q 8.296875 27.828125 6.59375 30.421875 
Q 4.890625 33.015625 3.90625 37.203125 
Q 2.9375 41.40625 2.9375 47.609375 
Q 2.9375 54 3.90625 58.203125 
Q 4.890625 62.40625 6.609375 64.890625 
Q 8.34375 67.390625 10.6875 68.390625 
Q 13.03125 69.390625 15.765625 69.390625 
z
M 64.0625 21.1875 
Q 64.0625 26.03125 63.625 29.21875 
Q 63.1875 32.421875 62.328125 34.328125 
Q 61.46875 36.234375 60.203125 37.015625 
Q 58.9375 37.796875 57.328125 37.796875 
Q 55.671875 37.796875 54.375 36.984375 
Q 53.078125 36.1875 52.1875 34.28125 
Q 51.3125 32.375 50.875 29.171875 
Q 50.4375 25.984375 50.4375 21.1875 
Q 50.4375 16.546875 50.90625 13.421875 
Q 51.375 10.296875 52.21875 8.375 
Q 53.078125 6.453125 54.34375 5.609375 
Q 55.609375 4.78125 57.234375 4.78125 
Q 58.796875 4.78125 60.0625 5.609375 
Q 61.328125 6.453125 62.203125 8.375 
Q 63.09375 10.296875 63.578125 13.421875 
Q 64.0625 16.546875 64.0625 21.1875 
z
M 22.40625 47.609375 
Q 22.40625 52.390625 21.96875 55.5625 
Q 21.53125 58.734375 20.703125 60.640625 
Q 19.875 62.546875 18.625 63.328125 
Q 17.390625 64.109375 15.765625 64.109375 
Q 14.0625 64.109375 12.734375 63.296875 
Q 11.421875 62.5 10.546875 60.59375 
Q 9.671875 58.6875 9.234375 55.515625 
Q 8.796875 52.34375 8.796875 47.609375 
Q 8.796875 42.96875 9.25 39.796875 
Q 9.71875 36.625 10.5625 34.6875 
Q 11.421875 32.765625 12.71875 31.9375 
Q 14.015625 31.109375 15.671875 31.109375 
Q 17.1875 31.109375 18.421875 31.9375 
Q 19.671875 32.765625 20.546875 34.6875 
Q 21.4375 36.625 21.921875 39.796875 
Q 22.40625 42.96875 22.40625 47.609375 
z
" id="LiberationSansNarrow-37"/>
     </defs>
     <g transform="translate(25.999063 211.967031)rotate(-90)scale(0.14 -0.14)">
      <use xlink:href="#LiberationSansNarrow-1084"/>
      <use x="56.396484" xlink:href="#LiberationSansNarrow-1072"/>
      <use x="102.001953" xlink:href="#LiberationSansNarrow-1082"/>
      <use x="137.857422" xlink:href="#LiberationSansNarrow-1089"/>
      <use x="178.873047" xlink:href="#LiberationSansNarrow-46"/>
      <use x="201.675781" xlink:href="#LiberationSansNarrow-32"/>
      <use x="224.478516" xlink:href="#LiberationSansNarrow-1086"/>
      <use x="270.083984" xlink:href="#LiberationSansNarrow-1089"/>
      <use x="311.099609" xlink:href="#LiberationSansNarrow-1090"/>
      <use x="348.632812" xlink:href="#LiberationSansNarrow-1072"/>
      <use x="394.238281" xlink:href="#LiberationSansNarrow-1074"/>
      <use x="437.777344" xlink:href="#LiberationSansNarrow-1072"/>
      <use x="483.382812" xlink:href="#LiberationSansNarrow-1085"/>
      <use x="528.646484" xlink:href="#LiberationSansNarrow-1080"/>
      <use x="574.496094" xlink:href="#LiberationSansNarrow-1077"/>
      <use x="620.101562" xlink:href="#LiberationSansNarrow-32"/>
      <use x="642.904297" xlink:href="#LiberationSansNarrow-1086"/>
      <use x="688.478516" xlink:href="#LiberationSansNarrow-1090"/>
      <use x="726.027344" xlink:href="#LiberationSansNarrow-32"/>
      <use x="748.830078" xlink:href="#LiberationSansNarrow-1088"/>
      <use x="794.435547" xlink:href="#LiberationSansNarrow-1099"/>
      <use x="855.421875" xlink:href="#LiberationSansNarrow-1085"/>
      <use x="900.685547" xlink:href="#LiberationSansNarrow-1082"/>
      <use x="936.556641" xlink:href="#LiberationSansNarrow-1072"/>
      <use x="982.162109" xlink:href="#LiberationSansNarrow-44"/>
      <use x="1004.964844" xlink:href="#LiberationSansNarrow-32"/>
      <use x="1027.767578" xlink:href="#LiberationSansNarrow-37"/>
     </g>
    </g>
   </g>
   <g id="line2d_14">
    <path clip-path="url(#p2ec54bf8b2)" d="M 81.755455 183.922185 
L 535.664545 183.922185 
L 535.664545 183.922185 
" style="fill:none;stroke:#1f77b4;stroke-linecap:square;stroke-width:2;"/>
   </g>
   <g id="line2d_15">
    <path clip-path="url(#p2ec54bf8b2)" d="M 81.755455 204.948376 
L 82.828526 198.243919 
L 83.901597 194.02926 
L 84.974668 192.887617 
L 86.047739 192.337741 
L 87.12081 190.934492 
L 88.193881 190.393933 
L 90.340024 189.637097 
L 91.413095 188.63569 
L 92.486166 187.923352 
L 94.632308 187.528446 
L 95.705379 187.52779 
L 97.851522 187.113304 
L 98.924593 187.098941 
L 99.997664 186.647265 
L 101.070735 186.335962 
L 104.289948 186.200677 
L 105.36302 185.939205 
L 106.436091 185.423186 
L 109.655304 185.271062 
L 110.728375 185.064991 
L 112.874518 185.061403 
L 113.947589 184.884849 
L 115.02066 184.85199 
L 116.093731 184.654666 
L 117.166802 184.329601 
L 120.386015 184.16677 
L 122.532158 184.140333 
L 123.605229 183.80521 
L 125.751371 183.727688 
L 128.970585 183.496595 
L 130.043656 183.209707 
L 131.116727 183.129503 
L 132.189798 182.682088 
L 133.262869 182.437667 
L 137.555154 182.19984 
L 139.701296 182.089744 
L 140.774367 181.991743 
L 141.847438 181.563785 
L 142.920509 181.003033 
L 145.066652 180.575462 
L 146.139723 180.121904 
L 147.212794 180.059867 
L 148.285865 179.822362 
L 150.432007 179.804977 
L 151.505078 179.581726 
L 153.651221 179.491839 
L 154.724292 178.805563 
L 157.943505 178.644786 
L 159.016576 178.363894 
L 160.089648 177.495909 
L 168.674217 175.638875 
L 170.820359 175.612715 
L 172.966501 175.404059 
L 174.039572 174.816244 
L 176.185715 174.168369 
L 177.258786 174.148398 
L 179.404928 173.680762 
L 181.55107 173.628974 
L 183.697213 173.251746 
L 184.770284 173.212647 
L 185.843355 172.756471 
L 189.062568 172.520676 
L 190.135639 172.093814 
L 196.574066 171.859263 
L 198.720208 171.531345 
L 200.866351 171.431412 
L 203.012493 171.260218 
L 205.158635 170.987191 
L 206.231706 170.96169 
L 207.304778 170.717868 
L 208.377849 170.669726 
L 209.45092 170.21436 
L 212.670133 170.079104 
L 214.816276 169.913333 
L 215.889347 169.550244 
L 216.962418 169.349294 
L 219.10856 169.236271 
L 220.181631 169.019474 
L 223.400845 168.731292 
L 224.473916 168.535922 
L 225.546987 168.183765 
L 227.693129 167.823874 
L 230.912343 167.674526 
L 231.985414 167.057736 
L 233.058485 166.794911 
L 236.277698 166.616405 
L 238.423841 166.158185 
L 239.496912 165.69829 
L 241.643054 165.65427 
L 244.862267 165.007354 
L 247.00841 164.729088 
L 248.081481 164.396826 
L 249.154552 163.204014 
L 253.446836 163.013568 
L 254.519908 162.85759 
L 255.592979 162.352893 
L 257.739121 162.142 
L 258.812192 161.697645 
L 260.958334 161.627005 
L 262.031406 161.40553 
L 264.177548 160.05665 
L 266.32369 159.443031 
L 267.396761 158.844234 
L 268.469832 158.381997 
L 269.542904 158.327089 
L 270.615975 157.85077 
L 271.689046 157.720432 
L 273.835188 157.70506 
L 274.908259 157.210294 
L 275.98133 156.87169 
L 277.054401 156.014999 
L 278.127473 155.837561 
L 279.200544 154.696148 
L 280.273615 154.16822 
L 281.346686 153.816809 
L 282.419757 153.336754 
L 283.492828 152.474012 
L 284.565899 150.560028 
L 285.638971 150.119924 
L 286.712042 149.97199 
L 287.785113 149.060421 
L 288.858184 148.470108 
L 289.931255 146.301744 
L 291.004326 146.213341 
L 292.077397 140.436079 
L 293.150469 139.312995 
L 294.22354 138.624788 
L 295.296611 138.459472 
L 297.442753 137.838699 
L 298.515824 137.78053 
L 299.588895 137.339035 
L 300.661966 137.18278 
L 303.88118 135.899869 
L 304.954251 135.817342 
L 306.027322 135.559578 
L 309.246536 135.4604 
L 310.319607 135.307171 
L 311.392678 135.281094 
L 312.465749 135.114096 
L 313.53882 134.626537 
L 315.684962 134.112533 
L 316.758034 133.893112 
L 317.831105 133.122135 
L 321.050318 132.8295 
L 324.269531 132.717671 
L 327.488745 132.591776 
L 328.561816 132.286682 
L 329.634887 132.255101 
L 332.854101 131.733842 
L 333.927172 131.706471 
L 336.073314 131.166574 
L 338.219456 131.02054 
L 340.365599 130.870198 
L 341.43867 130.479362 
L 343.584812 130.403897 
L 344.657883 130.151145 
L 346.804025 129.930863 
L 350.023239 129.623671 
L 351.09631 129.421017 
L 352.169381 129.415696 
L 356.461666 128.768075 
L 357.534737 128.228831 
L 359.680879 128.019542 
L 360.75395 127.620352 
L 361.827021 126.235061 
L 362.900092 125.619753 
L 366.119306 125.170392 
L 367.192377 125.051355 
L 369.338519 124.075227 
L 370.41159 123.143291 
L 371.484662 122.699739 
L 372.557733 122.471834 
L 374.703875 121.572546 
L 375.776946 121.447574 
L 376.850017 118.904784 
L 377.923088 118.759742 
L 378.996159 116.509485 
L 380.069231 116.073701 
L 381.142302 115.043302 
L 382.215373 114.895116 
L 383.288444 108.51466 
L 384.361515 108.19907 
L 385.434586 106.257685 
L 386.507657 104.042792 
L 387.580729 103.441696 
L 388.6538 101.25789 
L 389.726871 99.69254 
L 390.799942 98.998634 
L 392.946084 98.86981 
L 394.019155 98.565946 
L 395.092227 96.721258 
L 397.238369 94.955882 
L 398.31144 94.932025 
L 399.384511 92.999065 
L 400.457582 92.794581 
L 401.530653 92.095969 
L 403.676796 92.006102 
L 404.749867 91.941017 
L 405.822938 91.536007 
L 407.96908 91.080938 
L 409.042151 90.576024 
L 412.261365 90.385755 
L 413.334436 90.198616 
L 415.480578 90.143667 
L 416.553649 89.746036 
L 419.772863 89.659797 
L 420.845934 89.46397 
L 421.919005 89.454093 
L 424.065147 88.991135 
L 425.138218 88.98756 
L 426.211289 88.854495 
L 427.284361 88.254302 
L 430.503574 87.65819 
L 431.576645 87.619488 
L 432.649716 87.3952 
L 435.86893 87.304655 
L 436.942001 87.010166 
L 439.088143 86.877587 
L 440.161214 86.635388 
L 442.307357 86.544931 
L 444.453499 86.331884 
L 445.52657 86.304963 
L 447.672712 86.026197 
L 449.818855 85.867223 
L 451.964997 85.652984 
L 453.038068 85.297803 
L 455.18421 85.142403 
L 456.257281 84.966099 
L 457.330352 84.96049 
L 458.403424 84.82994 
L 460.549566 84.727345 
L 461.622637 84.318276 
L 462.695708 84.111691 
L 468.061064 83.723246 
L 470.207206 83.365817 
L 471.280277 83.364031 
L 472.353348 82.921513 
L 473.42642 82.675973 
L 474.499491 82.674888 
L 475.572562 81.838493 
L 477.718704 81.725127 
L 478.791775 81.191842 
L 479.864846 80.855245 
L 480.937917 80.799147 
L 482.010989 80.597743 
L 483.08406 80.563724 
L 484.157131 80.354199 
L 485.230202 79.946309 
L 486.303273 79.910914 
L 487.376344 79.439412 
L 488.449415 79.410172 
L 489.522487 79.152225 
L 490.595558 77.665515 
L 491.668629 77.351288 
L 493.814771 77.285991 
L 494.887842 76.67382 
L 495.960913 76.499147 
L 498.107056 75.804781 
L 500.253198 75.573608 
L 501.326269 74.613244 
L 502.39934 73.836176 
L 505.618554 73.275891 
L 506.691625 72.634197 
L 507.764696 72.49325 
L 508.837767 72.214548 
L 509.910838 72.13741 
L 510.983909 71.680697 
L 512.05698 70.525256 
L 514.203123 70.086112 
L 515.276194 66.684042 
L 516.349265 64.973989 
L 517.422336 63.628987 
L 519.568478 63.214778 
L 520.64155 62.022279 
L 521.714621 61.498345 
L 522.787692 61.196892 
L 523.860763 60.521988 
L 524.933834 59.58298 
L 526.006905 59.002078 
L 528.153047 58.119701 
L 529.226119 57.102986 
L 530.29919 56.707725 
L 531.372261 55.313582 
L 532.445332 54.201527 
L 533.518403 36.992365 
L 534.591474 29.834246 
L 535.664545 28.301818 
L 535.664545 28.301818 
" style="fill:none;stroke:#ff7f0e;stroke-linecap:square;"/>
   </g>
   <g id="line2d_16">
    <path clip-path="url(#p2ec54bf8b2)" d="M 81.755455 197.554328 
L 82.828526 193.070201 
L 83.901597 190.339414 
L 84.974668 189.453905 
L 86.047739 187.45186 
L 87.12081 186.636869 
L 90.340024 186.140198 
L 91.413095 185.911503 
L 92.486166 185.368884 
L 94.632308 185.123494 
L 95.705379 184.854313 
L 96.77845 184.239914 
L 98.924593 183.419917 
L 102.143806 183.221901 
L 103.216877 182.712836 
L 104.289948 182.63146 
L 106.436091 182.096284 
L 107.509162 182.080211 
L 108.582233 181.948093 
L 113.947589 180.400167 
L 117.166802 180.107522 
L 120.386015 179.264263 
L 122.532158 179.120851 
L 123.605229 178.780067 
L 124.6783 178.247272 
L 125.751371 177.878651 
L 126.824442 177.740723 
L 127.897513 177.389964 
L 128.970585 176.896633 
L 130.043656 176.74377 
L 132.189798 176.618119 
L 133.262869 176.319505 
L 134.33594 176.297241 
L 135.409011 175.745946 
L 136.482083 175.485444 
L 137.555154 175.413546 
L 138.628225 175.211748 
L 139.701296 175.197755 
L 140.774367 174.862654 
L 142.920509 174.818302 
L 143.99358 174.472327 
L 145.066652 174.377468 
L 146.139723 174.046204 
L 147.212794 173.372832 
L 149.358936 173.242155 
L 151.505078 173.187938 
L 153.651221 172.984581 
L 155.797363 172.857448 
L 156.870434 172.324944 
L 157.943505 172.303639 
L 159.016576 172.10266 
L 160.089648 171.677212 
L 162.23579 171.482118 
L 166.528074 171.372916 
L 167.601145 170.805197 
L 168.674217 170.725009 
L 170.820359 170.378196 
L 171.89343 170.36367 
L 172.966501 170.22775 
L 174.039572 169.902459 
L 176.185715 169.882257 
L 177.258786 168.851361 
L 178.331857 168.629167 
L 179.404928 167.928212 
L 180.477999 167.782831 
L 181.55107 167.499602 
L 184.770284 167.141043 
L 186.916426 166.548336 
L 189.062568 166.180299 
L 190.135639 166.104005 
L 191.208711 165.67945 
L 194.427924 165.554551 
L 195.500995 165.202688 
L 198.720208 164.945676 
L 199.79328 164.935994 
L 201.939422 164.478821 
L 203.012493 164.439566 
L 205.158635 163.447617 
L 207.304778 163.274696 
L 209.45092 162.98803 
L 211.597062 162.377221 
L 213.743204 162.299555 
L 215.889347 162.071128 
L 216.962418 161.50021 
L 219.10856 159.778123 
L 220.181631 159.561454 
L 223.400845 157.44904 
L 229.839271 156.590064 
L 233.058485 155.59366 
L 234.131556 154.681683 
L 235.204627 154.383957 
L 237.350769 154.277091 
L 238.423841 153.908685 
L 240.569983 153.70317 
L 242.716125 153.584726 
L 243.789196 153.233426 
L 244.862267 152.541358 
L 245.935338 151.642691 
L 249.154552 151.525588 
L 250.227623 151.476809 
L 251.300694 151.287867 
L 254.519908 151.161812 
L 255.592979 150.843966 
L 256.66605 150.746474 
L 258.812192 150.149914 
L 262.031406 150.028037 
L 263.104477 149.551661 
L 266.32369 149.366497 
L 267.396761 149.30884 
L 269.542904 149.047772 
L 270.615975 148.997583 
L 272.762117 148.004973 
L 273.835188 147.967405 
L 277.054401 147.31757 
L 278.127473 146.895883 
L 283.492828 145.596639 
L 284.565899 145.101928 
L 285.638971 144.115365 
L 286.712042 142.253388 
L 287.785113 140.158914 
L 288.858184 137.625366 
L 292.077397 134.94844 
L 293.150469 134.322825 
L 294.22354 129.720918 
L 295.296611 129.048647 
L 296.369682 127.497358 
L 297.442753 125.139584 
L 298.515824 123.971689 
L 299.588895 121.775136 
L 300.661966 117.239035 
L 301.735038 114.877193 
L 302.808109 110.000699 
L 303.88118 109.565634 
L 304.954251 104.994937 
L 306.027322 103.360054 
L 307.100393 102.224047 
L 308.173464 101.707977 
L 309.246536 101.411053 
L 310.319607 98.887918 
L 312.465749 97.466265 
L 313.53882 97.245657 
L 314.611891 96.657249 
L 315.684962 96.280545 
L 316.758034 94.917067 
L 317.831105 92.666789 
L 318.904176 92.238213 
L 319.977247 89.38525 
L 323.19646 88.225541 
L 327.488745 87.658963 
L 328.561816 87.266645 
L 329.634887 85.997414 
L 330.707958 85.045197 
L 332.854101 84.901358 
L 333.927172 84.383016 
L 336.073314 84.014263 
L 338.219456 83.789186 
L 339.292527 82.568912 
L 340.365599 82.531591 
L 341.43867 81.934639 
L 345.730954 81.506627 
L 346.804025 81.379012 
L 348.950168 80.580818 
L 350.023239 80.435457 
L 351.09631 80.126419 
L 352.169381 79.655011 
L 353.242452 79.535889 
L 354.315523 79.167855 
L 355.388594 78.924991 
L 357.534737 78.798698 
L 358.607808 77.597444 
L 359.680879 77.39168 
L 361.827021 77.299227 
L 362.900092 76.968845 
L 366.119306 76.741895 
L 367.192377 76.408151 
L 368.265448 76.227379 
L 370.41159 76.191869 
L 372.557733 75.997682 
L 374.703875 75.74036 
L 375.776946 74.44218 
L 376.850017 74.082407 
L 378.996159 73.84039 
L 381.142302 73.625645 
L 383.288444 72.676282 
L 384.361515 72.503558 
L 389.726871 72.301082 
L 391.873013 72.013051 
L 392.946084 71.995236 
L 394.019155 71.792659 
L 395.092227 71.456082 
L 397.238369 71.432006 
L 399.384511 71.152028 
L 403.676796 71.029023 
L 404.749867 70.312926 
L 407.96908 69.807287 
L 409.042151 69.262352 
L 411.188294 68.658347 
L 413.334436 68.636119 
L 416.553649 68.213254 
L 418.699792 68.11973 
L 419.772863 67.667565 
L 426.211289 66.558393 
L 428.357432 65.720234 
L 430.503574 65.234112 
L 433.722787 64.903684 
L 435.86893 64.686428 
L 441.234285 64.315035 
L 442.307357 64.304923 
L 444.453499 64.086946 
L 445.52657 64.026869 
L 446.599641 63.85476 
L 448.745783 63.737781 
L 449.818855 63.48146 
L 450.891926 62.599538 
L 451.964997 62.5563 
L 454.111139 62.222821 
L 456.257281 62.094829 
L 458.403424 61.988528 
L 461.622637 61.243452 
L 462.695708 60.464736 
L 463.768779 60.334652 
L 464.84185 60.325129 
L 465.914922 59.89068 
L 468.061064 59.535407 
L 469.134135 59.524845 
L 471.280277 59.265462 
L 472.353348 59.18421 
L 473.42642 58.88156 
L 474.499491 58.184565 
L 475.572562 57.968625 
L 476.645633 57.331531 
L 479.864846 57.022081 
L 482.010989 56.776529 
L 483.08406 56.566705 
L 484.157131 56.545833 
L 485.230202 56.037689 
L 486.303273 55.915631 
L 487.376344 55.604813 
L 488.449415 54.936303 
L 491.668629 54.706468 
L 494.887842 53.472692 
L 495.960913 53.465116 
L 499.180127 53.084458 
L 501.326269 52.978187 
L 503.472411 52.895939 
L 504.545482 52.632508 
L 505.618554 52.553262 
L 506.691625 52.129799 
L 507.764696 51.890251 
L 509.910838 51.694175 
L 510.983909 51.359221 
L 512.05698 51.323975 
L 513.130052 51.073336 
L 514.203123 50.370574 
L 515.276194 48.991803 
L 516.349265 48.898255 
L 517.422336 48.063163 
L 518.495407 47.769117 
L 521.714621 47.434667 
L 526.006905 45.934214 
L 527.079976 45.74831 
L 528.153047 42.827333 
L 531.372261 42.256642 
L 532.445332 41.998197 
L 533.518403 40.183132 
L 534.591474 39.717325 
L 535.664545 38.613505 
L 535.664545 38.613505 
" style="fill:none;stroke:#2ca02c;stroke-linecap:square;"/>
   </g>
   <g id="line2d_17">
    <path clip-path="url(#p2ec54bf8b2)" d="M 81.755455 241.538182 
L 82.828526 235.941962 
L 83.901597 234.856505 
L 86.047739 233.840885 
L 87.12081 231.945069 
L 88.193881 229.05479 
L 89.266953 224.413732 
L 90.340024 221.980535 
L 91.413095 221.102883 
L 92.486166 216.005557 
L 93.559237 209.475794 
L 94.632308 207.423446 
L 96.77845 206.90559 
L 97.851522 206.061892 
L 98.924593 205.81505 
L 101.070735 201.872985 
L 102.143806 199.275366 
L 103.216877 199.152891 
L 104.289948 197.929086 
L 105.36302 195.711268 
L 106.436091 195.652397 
L 107.509162 195.412275 
L 109.655304 193.836621 
L 110.728375 192.038791 
L 111.801446 191.282977 
L 112.874518 191.013033 
L 115.02066 189.26115 
L 119.312944 189.029722 
L 121.459087 188.142101 
L 122.532158 188.067039 
L 123.605229 187.785395 
L 124.6783 187.66027 
L 125.751371 187.062634 
L 126.824442 186.787858 
L 128.970585 186.534391 
L 130.043656 186.52925 
L 132.189798 186.382126 
L 134.33594 186.291795 
L 135.409011 185.849804 
L 136.482083 185.84678 
L 137.555154 185.708043 
L 138.628225 185.451882 
L 141.847438 185.323005 
L 143.99358 184.98996 
L 145.066652 184.987754 
L 146.139723 184.868058 
L 147.212794 184.422604 
L 150.432007 184.302214 
L 151.505078 184.050117 
L 156.870434 183.565426 
L 157.943505 183.134071 
L 162.23579 182.861018 
L 163.308861 182.637946 
L 170.820359 182.234653 
L 171.89343 181.950039 
L 172.966501 181.948463 
L 175.112643 181.64806 
L 176.185715 181.362517 
L 183.697213 180.723694 
L 196.574066 180.30715 
L 197.647137 180.105148 
L 198.720208 180.07408 
L 199.79328 179.787002 
L 205.158635 179.437704 
L 206.231706 179.254756 
L 207.304778 179.233915 
L 209.45092 178.820487 
L 212.670133 178.626746 
L 213.743204 178.402322 
L 216.962418 178.152499 
L 218.035489 178.086897 
L 220.181631 177.69996 
L 221.254702 177.56429 
L 223.400845 177.548742 
L 224.473916 177.164377 
L 227.693129 177.078026 
L 233.058485 176.694781 
L 236.277698 176.573219 
L 237.350769 176.256983 
L 241.643054 175.917617 
L 242.716125 175.754674 
L 245.935338 175.70215 
L 247.00841 175.541292 
L 250.227623 175.415509 
L 251.300694 175.165271 
L 252.373765 175.122916 
L 253.446836 174.883603 
L 254.519908 174.814785 
L 255.592979 174.181532 
L 260.958334 173.63073 
L 262.031406 173.365359 
L 263.104477 172.940004 
L 264.177548 172.898718 
L 265.250619 172.667183 
L 266.32369 172.561952 
L 267.396761 172.260545 
L 268.469832 172.227178 
L 269.542904 172.048219 
L 270.615975 171.646811 
L 272.762117 171.307187 
L 273.835188 170.782304 
L 275.98133 170.704622 
L 277.054401 170.290812 
L 278.127473 170.277785 
L 279.200544 169.625164 
L 282.419757 168.983901 
L 283.492828 168.494662 
L 288.858184 168.049621 
L 289.931255 166.704178 
L 291.004326 166.665151 
L 292.077397 162.027329 
L 293.150469 161.491678 
L 294.22354 159.602407 
L 295.296611 158.642021 
L 296.369682 158.052846 
L 297.442753 154.321271 
L 298.515824 153.22083 
L 301.735038 151.517249 
L 302.808109 150.549177 
L 303.88118 150.103855 
L 304.954251 148.590821 
L 307.100393 144.917816 
L 308.173464 144.686838 
L 309.246536 143.566156 
L 310.319607 142.969714 
L 311.392678 142.702403 
L 312.465749 141.779626 
L 313.53882 141.420298 
L 314.611891 141.348559 
L 315.684962 140.589757 
L 316.758034 140.447886 
L 317.831105 139.968458 
L 318.904176 139.143961 
L 319.977247 139.100986 
L 321.050318 138.655893 
L 322.123389 138.074767 
L 323.19646 138.057742 
L 324.269531 136.915911 
L 327.488745 136.70343 
L 328.561816 136.189576 
L 329.634887 136.090749 
L 330.707958 135.667677 
L 331.781029 134.597627 
L 333.927172 133.733186 
L 335.000243 133.51861 
L 336.073314 133.440781 
L 337.146385 132.891442 
L 338.219456 132.188594 
L 339.292527 130.992583 
L 340.365599 130.867718 
L 341.43867 130.360446 
L 344.657883 128.216693 
L 345.730954 127.804428 
L 347.877096 127.516581 
L 348.950168 126.92394 
L 350.023239 126.809399 
L 351.09631 126.357919 
L 353.242452 126.014055 
L 354.315523 125.506179 
L 355.388594 125.451808 
L 356.461666 125.056386 
L 357.534737 124.821916 
L 359.680879 124.148453 
L 360.75395 123.922761 
L 363.973164 123.882244 
L 367.192377 122.502108 
L 369.338519 122.377648 
L 371.484662 121.615371 
L 373.630804 121.517578 
L 374.703875 121.062037 
L 376.850017 120.461007 
L 377.923088 120.368825 
L 378.996159 120.106578 
L 384.361515 119.378734 
L 385.434586 119.195128 
L 386.507657 119.152374 
L 387.580729 118.810716 
L 388.6538 118.667721 
L 390.799942 118.615996 
L 392.946084 118.442294 
L 396.165298 118.130645 
L 398.31144 118.071123 
L 399.384511 117.407734 
L 401.530653 117.314528 
L 402.603724 116.974703 
L 403.676796 116.848376 
L 404.749867 116.526654 
L 405.822938 116.494585 
L 409.042151 115.889694 
L 410.115222 115.86698 
L 411.188294 115.493749 
L 414.407507 115.246255 
L 416.553649 114.103541 
L 417.62672 114.049502 
L 418.699792 113.677448 
L 420.845934 113.604454 
L 421.919005 113.460686 
L 422.992076 113.01991 
L 424.065147 112.981282 
L 426.211289 112.262394 
L 427.284361 112.176384 
L 428.357432 111.824731 
L 431.576645 111.358053 
L 433.722787 110.625827 
L 438.015072 110.470824 
L 439.088143 110.270499 
L 440.161214 110.213722 
L 441.234285 109.827009 
L 443.380428 109.608397 
L 444.453499 109.363967 
L 447.672712 109.228575 
L 448.745783 108.773502 
L 449.818855 108.767591 
L 453.038068 108.271133 
L 454.111139 108.24448 
L 456.257281 108.001105 
L 458.403424 107.82882 
L 459.476495 107.826875 
L 460.549566 107.597621 
L 463.768779 107.489805 
L 465.914922 107.336158 
L 470.207206 107.091771 
L 472.353348 106.555939 
L 474.499491 106.501235 
L 475.572562 105.891254 
L 476.645633 105.740769 
L 477.718704 105.717646 
L 478.791775 105.385123 
L 488.449415 104.074768 
L 489.522487 103.790697 
L 490.595558 103.787459 
L 491.668629 103.411452 
L 493.814771 103.061816 
L 494.887842 102.654071 
L 497.033985 102.532667 
L 500.253198 102.204273 
L 501.326269 101.690149 
L 504.545482 101.577441 
L 505.618554 100.825566 
L 506.691625 100.495252 
L 507.764696 99.875795 
L 509.910838 99.828055 
L 510.983909 99.702313 
L 512.05698 99.694752 
L 513.130052 99.11133 
L 514.203123 99.041908 
L 515.276194 98.689464 
L 516.349265 97.901994 
L 518.495407 97.812908 
L 519.568478 96.862044 
L 520.64155 96.647 
L 522.787692 96.487179 
L 524.933834 95.849827 
L 526.006905 95.412542 
L 527.079976 95.402286 
L 529.226119 94.988246 
L 530.29919 94.311563 
L 531.372261 91.9547 
L 532.445332 91.436582 
L 533.518403 90.766512 
L 534.591474 90.712733 
L 535.664545 90.063213 
L 535.664545 90.063213 
" style="fill:none;stroke:#d62728;stroke-linecap:square;"/>
   </g>
   <g id="legend_1">
    <g id="patch_3">
     <path d="M 67.2234 57.458441 
L 271.286534 57.458441 
Q 273.618934 57.458441 273.618934 55.126041 
L 273.618934 25.8034 
Q 273.618934 23.471 271.286534 23.471 
L 67.2234 23.471 
Q 64.891 23.471 64.891 25.8034 
L 64.891 55.126041 
Q 64.891 57.458441 67.2234 57.458441 
z
" style="fill:#ffffff;opacity:0.8;stroke:#cccccc;stroke-linejoin:miter;"/>
    </g>
    <g id="line2d_18">
     <path d="M 69.5558 32.505406 
L 92.8798 32.505406 
" style="fill:none;stroke:#1f77b4;stroke-linecap:square;stroke-width:2;"/>
    </g>
    <g id="line2d_19"/>
    <g id="text_15">
     <!-- MARKET -->
     <defs>
      <path d="M 54.6875 0 
L 54.6875 45.90625 
Q 54.6875 48.390625 54.734375 50.96875 
Q 54.78125 53.5625 54.828125 55.71875 
Q 54.9375 58.203125 55.078125 60.546875 
Q 54.546875 58.0625 53.90625 55.609375 
Q 53.90625 55.609375 52.734375 51.171875 
Q 52.15625 48.78125 51.515625 46.875 
L 36.96875 0 
L 31.59375 0 
L 16.796875 46.875 
Q 16.546875 47.609375 16.3125 48.578125 
L 15.765625 50.6875 
L 15.140625 52.9375 
L 14.546875 55.171875 
Q 13.875 57.765625 13.234375 60.546875 
Q 13.28125 57.8125 13.375 55.125 
Q 13.484375 52.828125 13.5 50.3125 
Q 13.53125 47.796875 13.53125 45.90625 
L 13.53125 0 
L 6.734375 0 
L 6.734375 68.796875 
L 16.796875 68.796875 
L 31.78125 21.09375 
Q 32.078125 20.125 32.46875 18.578125 
Q 32.859375 17.046875 33.21875 15.421875 
Q 33.59375 13.8125 33.890625 12.375 
Q 34.1875 10.9375 34.328125 10.15625 
Q 34.421875 10.9375 34.734375 12.40625 
Q 35.0625 13.875 35.5 15.484375 
L 36.328125 18.609375 
Q 36.71875 20.125 37.0625 21.09375 
L 51.765625 68.796875 
L 61.578125 68.796875 
L 61.578125 0 
z
" id="LiberationSansNarrow-77"/>
      <path d="M 46.734375 0 
L 40.28125 20.125 
L 14.546875 20.125 
L 8.109375 0 
L 0.140625 0 
L 23.1875 68.796875 
L 31.890625 68.796875 
L 54.546875 0 
z
M 30.765625 50.09375 
Q 30.125 52.046875 29.546875 54.046875 
L 28.515625 57.71875 
L 27.734375 60.453125 
Q 27.4375 61.53125 27.4375 61.765625 
Q 27.34375 61.53125 27.078125 60.40625 
Q 26.8125 59.28125 26.375 57.625 
L 25.296875 53.953125 
L 24.125 50 
L 16.890625 27.390625 
L 37.984375 27.390625 
z
" id="LiberationSansNarrow-65"/>
      <path d="M 46.578125 0 
L 31.9375 28.5625 
L 14.359375 28.5625 
L 14.359375 0 
L 6.734375 0 
L 6.734375 68.796875 
L 33.25 68.796875 
Q 38.03125 68.796875 41.734375 67.453125 
Q 45.453125 66.109375 47.96875 63.5625 
Q 50.484375 61.03125 51.796875 57.375 
Q 53.125 53.71875 53.125 49.125 
Q 53.125 45.84375 52.34375 42.671875 
Q 51.5625 39.5 49.875 36.859375 
Q 48.1875 34.234375 45.59375 32.328125 
Q 43.015625 30.421875 39.359375 29.640625 
L 55.375 0 
z
M 45.453125 49.03125 
Q 45.453125 52.15625 44.578125 54.4375 
Q 43.703125 56.734375 42.015625 58.265625 
Q 40.328125 59.8125 37.9375 60.5625 
Q 35.546875 61.328125 32.46875 61.328125 
L 14.359375 61.328125 
L 14.359375 35.9375 
L 32.8125 35.9375 
Q 36.078125 35.9375 38.5 36.9375 
Q 40.921875 37.9375 42.453125 39.6875 
Q 44 41.453125 44.71875 43.84375 
Q 45.453125 46.234375 45.453125 49.03125 
z
" id="LiberationSansNarrow-82"/>
      <path d="M 44.28125 0 
L 21.734375 33.203125 
L 14.359375 26.375 
L 14.359375 0 
L 6.734375 0 
L 6.734375 68.796875 
L 14.359375 68.796875 
L 14.359375 34.328125 
L 41.546875 68.796875 
L 50.59375 68.796875 
L 26.5625 38.921875 
L 53.765625 0 
z
" id="LiberationSansNarrow-75"/>
      <path d="M 6.734375 0 
L 6.734375 68.796875 
L 49.515625 68.796875 
L 49.515625 61.1875 
L 14.359375 61.1875 
L 14.359375 39.109375 
L 47.125 39.109375 
L 47.125 31.59375 
L 14.359375 31.59375 
L 14.359375 7.625 
L 51.171875 7.625 
L 51.171875 0 
z
" id="LiberationSansNarrow-69"/>
      <path d="M 28.8125 61.1875 
L 28.8125 0 
L 21.234375 0 
L 21.234375 61.1875 
L 1.859375 61.1875 
L 1.859375 68.796875 
L 48.1875 68.796875 
L 48.1875 61.1875 
z
" id="LiberationSansNarrow-84"/>
     </defs>
     <g transform="translate(102.2094 36.587106)scale(0.11662 -0.11662)">
      <use xlink:href="#LiberationSansNarrow-77"/>
      <use x="68.310547" xlink:href="#LiberationSansNarrow-65"/>
      <use x="122.998047" xlink:href="#LiberationSansNarrow-82"/>
      <use x="182.177734" xlink:href="#LiberationSansNarrow-75"/>
      <use x="236.865234" xlink:href="#LiberationSansNarrow-69"/>
      <use x="291.552734" xlink:href="#LiberationSansNarrow-84"/>
     </g>
    </g>
    <g id="line2d_20">
     <path d="M 69.5558 46.292076 
L 92.8798 46.292076 
" style="fill:none;stroke:#ff7f0e;stroke-linecap:square;"/>
    </g>
    <g id="line2d_21"/>
    <g id="text_16">
     <!-- Hop -->
     <defs>
      <path d="M 44.875 0 
L 44.875 31.890625 
L 14.359375 31.890625 
L 14.359375 0 
L 6.734375 0 
L 6.734375 68.796875 
L 14.359375 68.796875 
L 14.359375 39.703125 
L 44.875 39.703125 
L 44.875 68.796875 
L 52.484375 68.796875 
L 52.484375 0 
z
" id="LiberationSansNarrow-72"/>
      <path d="M 42.140625 26.46875 
Q 42.140625 12.59375 37.125 5.796875 
Q 32.125 -0.984375 22.609375 -0.984375 
Q 18.0625 -0.984375 14.515625 0.671875 
Q 10.984375 2.34375 8.515625 5.765625 
Q 6.0625 9.1875 4.765625 14.328125 
Q 3.46875 19.484375 3.46875 26.46875 
Q 3.46875 53.8125 22.859375 53.8125 
Q 27.875 53.8125 31.5625 52.09375 
Q 35.25 50.390625 37.59375 46.96875 
Q 39.9375 43.5625 41.03125 38.421875 
Q 42.140625 33.296875 42.140625 26.46875 
z
M 34.578125 26.46875 
Q 34.578125 32.625 33.8125 36.625 
Q 33.0625 40.625 31.546875 43.015625 
Q 30.03125 45.40625 27.859375 46.359375 
Q 25.6875 47.3125 23 47.3125 
Q 20.21875 47.3125 17.984375 46.3125 
Q 15.765625 45.3125 14.203125 42.890625 
Q 12.640625 40.484375 11.828125 36.46875 
Q 11.03125 32.46875 11.03125 26.46875 
Q 11.03125 20.3125 11.90625 16.28125 
Q 12.796875 12.25 14.328125 9.859375 
Q 15.875 7.46875 17.96875 6.484375 
Q 20.0625 5.515625 22.5625 5.515625 
Q 25.34375 5.515625 27.5625 6.46875 
Q 29.78125 7.421875 31.34375 9.8125 
Q 32.90625 12.203125 33.734375 16.25 
Q 34.578125 20.3125 34.578125 26.46875 
z
" id="LiberationSansNarrow-111"/>
      <path d="M 42.140625 26.65625 
Q 42.140625 20.65625 41.359375 15.578125 
Q 40.578125 10.5 38.6875 6.828125 
Q 36.8125 3.171875 33.765625 1.09375 
Q 30.71875 -0.984375 26.21875 -0.984375 
Q 21.578125 -0.984375 18.078125 1.171875 
Q 14.59375 3.328125 12.796875 8.203125 
L 12.546875 8.203125 
Q 12.59375 8.109375 12.609375 7.328125 
Q 12.640625 6.546875 12.671875 5.375 
Q 12.703125 4.203125 12.71875 2.75 
Q 12.75 1.3125 12.75 -0.09375 
L 12.75 -20.75 
L 5.515625 -20.75 
L 5.515625 42.046875 
Q 5.515625 43.953125 5.484375 45.703125 
Q 5.46875 47.46875 5.4375 48.90625 
Q 5.421875 50.34375 5.375 51.359375 
Q 5.328125 52.390625 5.28125 52.828125 
L 12.25 52.828125 
Q 12.3125 52.6875 12.359375 51.8125 
L 12.5 49.703125 
Q 12.546875 48.4375 12.59375 47.015625 
Q 12.640625 45.609375 12.640625 44.34375 
L 12.796875 44.34375 
Q 13.765625 46.875 15.0625 48.65625 
Q 16.359375 50.4375 18.015625 51.578125 
Q 19.671875 52.734375 21.671875 53.25 
Q 23.6875 53.765625 26.21875 53.765625 
Q 30.71875 53.765625 33.765625 51.8125 
Q 36.8125 49.859375 38.6875 46.3125 
Q 40.578125 42.78125 41.359375 37.765625 
Q 42.140625 32.765625 42.140625 26.65625 
z
M 34.578125 26.46875 
Q 34.578125 31.34375 34.109375 35.15625 
Q 33.640625 38.96875 32.4375 41.59375 
Q 31.25 44.234375 29.296875 45.59375 
Q 27.34375 46.96875 24.359375 46.96875 
Q 21.96875 46.96875 19.84375 46.140625 
Q 17.71875 45.3125 16.125 42.96875 
Q 14.546875 40.625 13.640625 36.5 
Q 12.75 32.375 12.75 25.78125 
Q 12.75 20.171875 13.5 16.28125 
Q 14.265625 12.40625 15.71875 10.015625 
Q 17.1875 7.625 19.328125 6.5625 
Q 21.484375 5.515625 24.3125 5.515625 
Q 27.34375 5.515625 29.296875 6.921875 
Q 31.25 8.34375 32.4375 11.03125 
Q 33.640625 13.71875 34.109375 17.59375 
Q 34.578125 21.484375 34.578125 26.46875 
z
" id="LiberationSansNarrow-112"/>
     </defs>
     <g transform="translate(102.2094 50.373776)scale(0.11662 -0.11662)">
      <use xlink:href="#LiberationSansNarrow-72"/>
      <use x="59.179688" xlink:href="#LiberationSansNarrow-111"/>
      <use x="104.785156" xlink:href="#LiberationSansNarrow-112"/>
     </g>
    </g>
    <g id="line2d_22">
     <path d="M 153.715352 32.505406 
L 177.039352 32.505406 
" style="fill:none;stroke:#2ca02c;stroke-linecap:square;"/>
    </g>
    <g id="line2d_23"/>
    <g id="text_17">
     <!-- Lgro -->
     <defs>
      <path d="M 6.734375 0 
L 6.734375 68.796875 
L 14.359375 68.796875 
L 14.359375 7.625 
L 42.875 7.625 
L 42.875 0 
z
" id="LiberationSansNarrow-76"/>
      <path d="M 21.921875 -20.75 
Q 18.21875 -20.75 15.328125 -19.8125 
Q 12.453125 -18.890625 10.390625 -17.15625 
Q 8.34375 -15.4375 7.078125 -13.03125 
Q 5.8125 -10.640625 5.21875 -7.71875 
L 12.5 -6.453125 
Q 13.234375 -10.109375 15.671875 -12.078125 
Q 18.109375 -14.0625 22.125 -14.0625 
Q 24.5625 -14.0625 26.5625 -13.234375 
Q 28.5625 -12.40625 29.96875 -10.5625 
Q 31.390625 -8.734375 32.140625 -5.796875 
Q 32.90625 -2.875 32.90625 1.3125 
L 32.90625 9.8125 
L 32.8125 9.8125 
Q 32.03125 7.8125 30.859375 5.984375 
Q 29.6875 4.15625 27.96875 2.734375 
Q 26.265625 1.3125 24.015625 0.453125 
Q 21.78125 -0.390625 18.890625 -0.390625 
Q 14.796875 -0.390625 11.84375 1.296875 
Q 8.890625 2.984375 7.03125 6.34375 
Q 5.171875 9.71875 4.3125 14.71875 
Q 3.46875 19.734375 3.46875 26.3125 
Q 3.46875 32.671875 4.3125 37.75 
Q 5.171875 42.828125 7.09375 46.359375 
Q 9.03125 49.90625 12.125 51.78125 
Q 15.234375 53.65625 19.671875 53.65625 
Q 24.265625 53.65625 27.65625 51.09375 
Q 31.0625 48.53125 32.90625 43.796875 
L 33.015625 43.796875 
Q 33.015625 45.015625 33.0625 46.53125 
Q 33.109375 48.046875 33.171875 49.390625 
Q 33.25 50.734375 33.328125 51.703125 
Q 33.40625 52.6875 33.5 52.828125 
L 40.328125 52.828125 
Q 40.28125 52.390625 40.234375 51.34375 
Q 40.1875 50.296875 40.15625 48.828125 
Q 40.140625 47.359375 40.109375 45.578125 
Q 40.09375 43.796875 40.09375 41.890625 
L 40.09375 1.515625 
Q 40.09375 -9.578125 35.625 -15.15625 
Q 31.15625 -20.75 21.921875 -20.75 
z
M 32.90625 26.421875 
Q 32.90625 31.9375 31.921875 35.859375 
Q 30.953125 39.796875 29.34375 42.28125 
Q 27.734375 44.78125 25.6875 45.953125 
Q 23.640625 47.125 21.484375 47.125 
Q 18.703125 47.125 16.71875 45.953125 
Q 14.75 44.78125 13.421875 42.265625 
Q 12.109375 39.75 11.5 35.8125 
Q 10.890625 31.890625 10.890625 26.421875 
Q 10.890625 20.703125 11.5 16.8125 
Q 12.109375 12.9375 13.40625 10.546875 
Q 14.703125 8.15625 16.65625 7.125 
Q 18.609375 6.109375 21.34375 6.109375 
Q 23.484375 6.109375 25.5625 7.21875 
Q 27.640625 8.34375 29.265625 10.78125 
Q 30.90625 13.234375 31.90625 17.09375 
Q 32.90625 20.953125 32.90625 26.421875 
z
" id="LiberationSansNarrow-103"/>
      <path d="M 5.671875 0 
L 5.671875 40.53125 
Q 5.671875 40.53125 5.671875 43.953125 
Q 5.671875 45.65625 5.609375 47.265625 
Q 5.5625 48.875 5.515625 50.28125 
Q 5.46875 51.703125 5.421875 52.828125 
L 12.25 52.828125 
Q 12.3125 51.703125 12.359375 50.265625 
Q 12.40625 48.828125 12.46875 47.3125 
Q 12.546875 45.796875 12.546875 44.4375 
L 12.546875 42.046875 
L 12.75 42.046875 
Q 13.53125 45.0625 14.359375 47.28125 
Q 15.1875 49.515625 16.359375 50.953125 
Q 17.53125 52.390625 19.140625 53.09375 
Q 20.75 53.8125 23 53.8125 
Q 23.875 53.8125 24.671875 53.640625 
Q 25.484375 53.46875 25.921875 53.328125 
L 25.921875 45.265625 
Q 25.203125 45.515625 24.25 45.625 
Q 23.296875 45.75 22.078125 45.75 
Q 19.578125 45.75 17.84375 44.375 
Q 16.109375 43.015625 15.015625 40.59375 
Q 13.921875 38.1875 13.40625 34.84375 
Q 12.890625 31.5 12.890625 27.546875 
L 12.890625 0 
z
" id="LiberationSansNarrow-114"/>
     </defs>
     <g transform="translate(186.368952 36.587106)scale(0.11662 -0.11662)">
      <use xlink:href="#LiberationSansNarrow-76"/>
      <use x="45.605469" xlink:href="#LiberationSansNarrow-103"/>
      <use x="91.210938" xlink:href="#LiberationSansNarrow-114"/>
      <use x="118.505859" xlink:href="#LiberationSansNarrow-111"/>
     </g>
    </g>
    <g id="line2d_24">
     <path d="M 217.171209 32.505406 
L 240.495209 32.505406 
" style="fill:none;stroke:#d62728;stroke-linecap:square;"/>
    </g>
    <g id="line2d_25"/>
    <g id="text_18">
     <!-- Hdiv -->
     <defs>
      <path d="M 32.859375 8.5 
Q 30.859375 3.421875 27.5625 1.21875 
Q 24.265625 -0.984375 19.390625 -0.984375 
Q 11.1875 -0.984375 7.328125 5.75 
Q 3.46875 12.5 3.46875 26.171875 
Q 3.46875 53.8125 19.390625 53.8125 
Q 24.3125 53.8125 27.578125 51.609375 
Q 30.859375 49.421875 32.859375 44.625 
L 32.953125 44.625 
Q 32.953125 45.125 32.90625 46.1875 
L 32.90625 48.34375 
Q 32.859375 49.515625 32.859375 50.53125 
L 32.859375 52 
L 32.859375 72.46875 
L 40.09375 72.46875 
L 40.09375 10.890625 
Q 40.09375 8.984375 40.109375 7.21875 
Q 40.140625 5.46875 40.15625 4 
Q 40.1875 2.546875 40.234375 1.484375 
Q 40.28125 0.4375 40.328125 0 
L 33.453125 0 
Q 33.34375 0.484375 33.296875 1.390625 
Q 33.25 2.296875 33.171875 3.46875 
Q 33.109375 4.640625 33.078125 5.9375 
Q 33.0625 7.234375 33.0625 8.5 
z
M 11.03125 26.46875 
Q 11.03125 21 11.5625 17.09375 
Q 12.109375 13.1875 13.34375 10.671875 
Q 14.59375 8.15625 16.515625 6.984375 
Q 18.453125 5.8125 21.234375 5.8125 
Q 24.078125 5.8125 26.25 6.9375 
Q 28.421875 8.0625 29.875 10.578125 
Q 31.34375 13.09375 32.09375 17.140625 
Q 32.859375 21.1875 32.859375 27.046875 
Q 32.859375 32.671875 32.09375 36.546875 
Q 31.34375 40.4375 29.859375 42.828125 
Q 28.375 45.21875 26.25 46.265625 
Q 24.125 47.3125 21.296875 47.3125 
Q 18.65625 47.3125 16.71875 46.1875 
Q 14.796875 45.0625 13.515625 42.578125 
Q 12.25 40.09375 11.640625 36.109375 
Q 11.03125 32.125 11.03125 26.46875 
z
" id="LiberationSansNarrow-100"/>
      <path d="M 5.46875 64.0625 
L 5.46875 72.46875 
L 12.703125 72.46875 
L 12.703125 64.0625 
z
M 5.46875 0 
L 5.46875 52.828125 
L 12.703125 52.828125 
L 12.703125 0 
z
" id="LiberationSansNarrow-105"/>
      <path d="M 24.5625 0 
L 16.015625 0 
L 0.296875 52.828125 
L 7.953125 52.828125 
L 17.484375 18.453125 
Q 17.484375 18.453125 18.171875 15.828125 
L 18.953125 12.640625 
L 19.671875 9.46875 
L 20.265625 6.890625 
Q 20.265625 6.890625 20.90625 9.46875 
L 21.6875 12.59375 
Q 22.078125 14.203125 22.484375 15.734375 
Q 22.90625 17.28125 23.25 18.359375 
L 33.109375 52.828125 
L 40.71875 52.828125 
z
" id="LiberationSansNarrow-118"/>
     </defs>
     <g transform="translate(249.824809 36.587106)scale(0.11662 -0.11662)">
      <use xlink:href="#LiberationSansNarrow-72"/>
      <use x="59.179688" xlink:href="#LiberationSansNarrow-100"/>
      <use x="104.785156" xlink:href="#LiberationSansNarrow-105"/>
      <use x="122.998047" xlink:href="#LiberationSansNarrow-118"/>
     </g>
    </g>
   </g>
  </g>
 </g>
 <defs>
  <clipPath id="p2ec54bf8b2">
   <rect height="234.56" width="499.3" x="59.06" y="17.64"/>
  </clipPath>
 </defs>
</svg>
