<?xml version="1.0" encoding="utf-8" standalone="no"?>
<!DOCTYPE svg PUBLIC "-//W3C//DTD SVG 1.1//EN"
  "http://www.w3.org/Graphics/SVG/1.1/DTD/svg11.dtd">
<!-- Created with matplotlib (https://matplotlib.org/) -->
<svg height="288pt" version="1.1" viewBox="0 0 576 288" width="576pt" xmlns="http://www.w3.org/2000/svg" xmlns:xlink="http://www.w3.org/1999/xlink">
 <defs>
  <style type="text/css">
*{stroke-linecap:butt;stroke-linejoin:round;}
  </style>
 </defs>
 <g id="figure_1">
  <g id="patch_1">
   <path d="M 0 288 
L 576 288 
L 576 0 
L 0 0 
z
" style="fill:#ffffff;"/>
  </g>
  <g id="axes_1">
   <g id="patch_2">
    <path d="M 59.33 252.2 
L 558.36 252.2 
L 558.36 18.923374 
L 59.33 18.923374 
z
" style="fill:#ffffff;"/>
   </g>
   <g id="matplotlib.axis_1">
    <g id="xtick_1">
     <g id="line2d_1">
      <path clip-path="url(#p58bafad64e)" d="M 82.013182 252.2 
L 82.013182 18.923374 
" style="fill:none;stroke:#b0b0b0;stroke-dasharray:1.48,0.64;stroke-dashoffset:0;stroke-width:0.4;"/>
     </g>
     <g id="text_1">
      <!-- 0.0 -->
      <defs>
       <path d="M 42.390625 34.421875 
Q 42.390625 24.515625 40.84375 17.75 
Q 39.3125 10.984375 36.640625 6.8125 
Q 33.984375 2.640625 30.390625 0.828125 
Q 26.8125 -0.984375 22.703125 -0.984375 
Q 18.609375 -0.984375 15.03125 0.828125 
Q 11.46875 2.640625 8.828125 6.78125 
Q 6.203125 10.9375 4.703125 17.703125 
Q 3.21875 24.46875 3.21875 34.421875 
Q 3.21875 44.828125 4.703125 51.640625 
Q 6.203125 58.453125 8.828125 62.5 
Q 11.46875 66.546875 15.078125 68.1875 
Q 18.703125 69.828125 22.953125 69.828125 
Q 27 69.828125 30.53125 68.1875 
Q 34.078125 66.546875 36.71875 62.5 
Q 39.359375 58.453125 40.875 51.640625 
Q 42.390625 44.828125 42.390625 34.421875 
z
M 35.0625 34.421875 
Q 35.0625 42.625 34.28125 48.0625 
Q 33.5 53.515625 31.9375 56.765625 
Q 30.375 60.015625 28.09375 61.359375 
Q 25.828125 62.703125 22.953125 62.703125 
Q 19.921875 62.703125 17.578125 61.328125 
Q 15.234375 59.96875 13.671875 56.71875 
Q 12.109375 53.46875 11.296875 48.015625 
Q 10.5 42.578125 10.5 34.421875 
Q 10.5 26.515625 11.296875 21.09375 
Q 12.109375 15.671875 13.6875 12.375 
Q 15.28125 9.078125 17.578125 7.640625 
Q 19.875 6.203125 22.796875 6.203125 
Q 25.640625 6.203125 27.90625 7.640625 
Q 30.171875 9.078125 31.75 12.375 
Q 33.34375 15.671875 34.203125 21.09375 
Q 35.0625 26.515625 35.0625 34.421875 
z
" id="LiberationSansNarrow-48"/>
       <path d="M 7.46875 0 
L 7.46875 10.6875 
L 15.328125 10.6875 
L 15.328125 0 
z
" id="LiberationSansNarrow-46"/>
      </defs>
      <g transform="translate(74.032088 269.345625)scale(0.14 -0.14)">
       <use xlink:href="#LiberationSansNarrow-48"/>
       <use x="45.605469" xlink:href="#LiberationSansNarrow-46"/>
       <use x="68.408203" xlink:href="#LiberationSansNarrow-48"/>
      </g>
     </g>
    </g>
    <g id="xtick_2">
     <g id="line2d_2">
      <path clip-path="url(#p58bafad64e)" d="M 172.745909 252.2 
L 172.745909 18.923374 
" style="fill:none;stroke:#b0b0b0;stroke-dasharray:1.48,0.64;stroke-dashoffset:0;stroke-width:0.4;"/>
     </g>
     <g id="text_2">
      <!-- 0.2 -->
      <defs>
       <path d="M 4.109375 0 
L 4.109375 6.203125 
Q 6.15625 11.921875 9.109375 16.28125 
Q 12.0625 20.65625 15.3125 24.1875 
Q 18.5625 27.734375 21.734375 30.765625 
Q 24.90625 33.796875 27.46875 36.8125 
Q 30.03125 39.84375 31.609375 43.15625 
Q 33.203125 46.484375 33.203125 50.6875 
Q 33.203125 53.609375 32.46875 55.828125 
Q 31.734375 58.0625 30.390625 59.5625 
Q 29.046875 61.078125 27.140625 61.828125 
Q 25.25 62.59375 22.90625 62.59375 
Q 20.75 62.59375 18.84375 61.859375 
Q 16.9375 61.140625 15.453125 59.671875 
Q 13.96875 58.203125 13.03125 56.03125 
Q 12.109375 53.859375 11.8125 50.984375 
L 4.4375 51.8125 
Q 4.78125 55.515625 6.125 58.78125 
Q 7.46875 62.0625 9.78125 64.53125 
Q 12.109375 67 15.359375 68.40625 
Q 18.609375 69.828125 22.90625 69.828125 
Q 27.09375 69.828125 30.390625 68.609375 
Q 33.6875 67.390625 35.9375 64.984375 
Q 38.1875 62.59375 39.40625 59.078125 
Q 40.625 55.5625 40.625 50.984375 
Q 40.625 47.515625 39.59375 44.390625 
Q 38.578125 41.265625 36.859375 38.421875 
Q 35.15625 35.59375 32.90625 32.953125 
Q 30.671875 30.328125 28.21875 27.828125 
L 23.296875 22.859375 
Q 20.796875 20.359375 18.625 17.859375 
Q 16.453125 15.375 14.734375 12.8125 
Q 13.03125 10.25 12.0625 7.46875 
L 41.5 7.46875 
L 41.5 0 
z
" id="LiberationSansNarrow-50"/>
      </defs>
      <g transform="translate(164.764815 269.345625)scale(0.14 -0.14)">
       <use xlink:href="#LiberationSansNarrow-48"/>
       <use x="45.605469" xlink:href="#LiberationSansNarrow-46"/>
       <use x="68.408203" xlink:href="#LiberationSansNarrow-50"/>
      </g>
     </g>
    </g>
    <g id="xtick_3">
     <g id="line2d_3">
      <path clip-path="url(#p58bafad64e)" d="M 263.478636 252.2 
L 263.478636 18.923374 
" style="fill:none;stroke:#b0b0b0;stroke-dasharray:1.48,0.64;stroke-dashoffset:0;stroke-width:0.4;"/>
     </g>
     <g id="text_3">
      <!-- 0.4 -->
      <defs>
       <path d="M 35.25 15.578125 
L 35.25 0 
L 28.46875 0 
L 28.46875 15.578125 
L 1.90625 15.578125 
L 1.90625 22.40625 
L 27.6875 68.796875 
L 35.25 68.796875 
L 35.25 22.515625 
L 43.21875 22.515625 
L 43.21875 15.578125 
z
M 28.46875 58.890625 
Q 28.375 58.640625 28.03125 57.90625 
L 27.34375 56.34375 
L 26.5625 54.59375 
Q 26.125 53.65625 25.78125 53.078125 
L 11.328125 27.09375 
Q 11.140625 26.703125 10.75 26.078125 
L 9.96875 24.8125 
L 9.1875 23.484375 
Q 8.796875 22.859375 8.546875 22.515625 
L 28.46875 22.515625 
z
" id="LiberationSansNarrow-52"/>
      </defs>
      <g transform="translate(255.497543 269.345625)scale(0.14 -0.14)">
       <use xlink:href="#LiberationSansNarrow-48"/>
       <use x="45.605469" xlink:href="#LiberationSansNarrow-46"/>
       <use x="68.408203" xlink:href="#LiberationSansNarrow-52"/>
      </g>
     </g>
    </g>
    <g id="xtick_4">
     <g id="line2d_4">
      <path clip-path="url(#p58bafad64e)" d="M 354.211364 252.2 
L 354.211364 18.923374 
" style="fill:none;stroke:#b0b0b0;stroke-dasharray:1.48,0.64;stroke-dashoffset:0;stroke-width:0.4;"/>
     </g>
     <g id="text_4">
      <!-- 0.6 -->
      <defs>
       <path d="M 42 22.515625 
Q 42 17.328125 40.828125 13 
Q 39.65625 8.6875 37.359375 5.578125 
Q 35.0625 2.484375 31.640625 0.75 
Q 28.21875 -0.984375 23.78125 -0.984375 
Q 18.84375 -0.984375 15.15625 1.3125 
Q 11.46875 3.609375 9.03125 7.921875 
Q 6.59375 12.25 5.375 18.53125 
Q 4.15625 24.8125 4.15625 32.8125 
Q 4.15625 42 5.546875 48.921875 
Q 6.9375 55.859375 9.515625 60.5 
Q 12.109375 65.140625 15.859375 67.484375 
Q 19.625 69.828125 24.359375 69.828125 
Q 27.25 69.828125 29.765625 69.09375 
Q 32.28125 68.359375 34.328125 66.71875 
Q 36.375 65.09375 37.9375 62.40625 
Q 39.5 59.71875 40.4375 55.8125 
L 33.546875 54.296875 
Q 32.421875 58.734375 29.953125 60.71875 
Q 27.484375 62.703125 24.265625 62.703125 
Q 21.296875 62.703125 18.890625 60.984375 
Q 16.5 59.28125 14.8125 55.875 
Q 13.140625 52.484375 12.234375 47.359375 
Q 11.328125 42.234375 11.328125 35.40625 
Q 13.28125 39.84375 16.84375 42.15625 
Q 20.40625 44.484375 25.046875 44.484375 
Q 28.90625 44.484375 32 42.96875 
Q 35.109375 41.453125 37.328125 38.59375 
Q 39.546875 35.75 40.765625 31.671875 
Q 42 27.59375 42 22.515625 
z
M 34.671875 22.125 
Q 34.671875 25.6875 33.953125 28.5625 
Q 33.25 31.453125 31.8125 33.46875 
Q 30.375 35.5 28.25 36.59375 
Q 26.125 37.703125 23.296875 37.703125 
Q 21.34375 37.703125 19.328125 36.984375 
Q 17.328125 36.28125 15.71875 34.6875 
Q 14.109375 33.109375 13.078125 30.515625 
Q 12.0625 27.9375 12.0625 24.21875 
Q 12.0625 20.40625 12.859375 17.109375 
Q 13.671875 13.8125 15.15625 11.375 
Q 16.65625 8.9375 18.78125 7.515625 
Q 20.90625 6.109375 23.53125 6.109375 
Q 26.125 6.109375 28.203125 7.203125 
Q 30.28125 8.296875 31.71875 10.375 
Q 33.15625 12.453125 33.90625 15.421875 
Q 34.671875 18.40625 34.671875 22.125 
z
" id="LiberationSansNarrow-54"/>
      </defs>
      <g transform="translate(346.23027 269.345625)scale(0.14 -0.14)">
       <use xlink:href="#LiberationSansNarrow-48"/>
       <use x="45.605469" xlink:href="#LiberationSansNarrow-46"/>
       <use x="68.408203" xlink:href="#LiberationSansNarrow-54"/>
      </g>
     </g>
    </g>
    <g id="xtick_5">
     <g id="line2d_5">
      <path clip-path="url(#p58bafad64e)" d="M 444.944091 252.2 
L 444.944091 18.923374 
" style="fill:none;stroke:#b0b0b0;stroke-dasharray:1.48,0.64;stroke-dashoffset:0;stroke-width:0.4;"/>
     </g>
     <g id="text_5">
      <!-- 0.8 -->
      <defs>
       <path d="M 42.046875 19.1875 
Q 42.046875 14.796875 40.890625 11.109375 
Q 39.75 7.421875 37.40625 4.734375 
Q 35.0625 2.046875 31.421875 0.53125 
Q 27.78125 -0.984375 22.796875 -0.984375 
Q 17.828125 -0.984375 14.203125 0.53125 
Q 10.59375 2.046875 8.21875 4.703125 
Q 5.859375 7.375 4.703125 11.0625 
Q 3.5625 14.75 3.5625 19.09375 
Q 3.5625 22.859375 4.515625 25.78125 
Q 5.46875 28.71875 7.03125 30.828125 
Q 8.59375 32.953125 10.609375 34.25 
Q 12.640625 35.546875 14.796875 35.984375 
L 14.796875 36.1875 
Q 12.453125 36.859375 10.59375 38.375 
Q 8.734375 39.890625 7.46875 42.015625 
Q 6.203125 44.140625 5.546875 46.71875 
Q 4.890625 49.3125 4.890625 52.203125 
Q 4.890625 55.8125 6.03125 59 
Q 7.171875 62.203125 9.421875 64.625 
Q 11.671875 67.046875 14.984375 68.4375 
Q 18.3125 69.828125 22.65625 69.828125 
Q 27.25 69.828125 30.640625 68.40625 
Q 34.03125 67 36.25 64.578125 
Q 38.484375 62.15625 39.546875 58.9375 
Q 40.625 55.71875 40.625 52.09375 
Q 40.625 49.265625 39.96875 46.671875 
Q 39.3125 44.09375 38.0625 41.96875 
Q 36.8125 39.84375 34.9375 38.34375 
Q 33.0625 36.859375 30.609375 36.28125 
L 30.609375 36.078125 
Q 33.0625 35.59375 35.15625 34.296875 
Q 37.25 33.015625 38.765625 30.890625 
Q 40.28125 28.765625 41.15625 25.828125 
Q 42.046875 22.90625 42.046875 19.1875 
z
M 33.15625 51.609375 
Q 33.15625 54.203125 32.609375 56.34375 
Q 32.078125 58.5 30.828125 60.03125 
Q 29.59375 61.578125 27.59375 62.421875 
Q 25.59375 63.28125 22.65625 63.28125 
Q 19.828125 63.28125 17.875 62.421875 
Q 15.921875 61.578125 14.640625 60.03125 
Q 13.375 58.5 12.8125 56.34375 
Q 12.25 54.203125 12.25 51.609375 
Q 12.25 49.5625 12.6875 47.40625 
Q 13.140625 45.265625 14.3125 43.5 
Q 15.484375 41.75 17.5 40.625 
Q 19.53125 39.5 22.75 39.5 
Q 26.171875 39.5 28.21875 40.625 
Q 30.28125 41.75 31.375 43.5 
Q 32.46875 45.265625 32.8125 47.40625 
Q 33.15625 49.5625 33.15625 51.609375 
z
M 34.578125 20.015625 
Q 34.578125 22.515625 34.015625 24.828125 
Q 33.453125 27.15625 32.078125 28.9375 
Q 30.71875 30.71875 28.421875 31.8125 
Q 26.125 32.90625 22.65625 32.90625 
Q 19.484375 32.90625 17.265625 31.8125 
Q 15.046875 30.71875 13.671875 28.90625 
Q 12.3125 27.09375 11.671875 24.71875 
Q 11.03125 22.359375 11.03125 19.828125 
Q 11.03125 16.65625 11.671875 14.03125 
Q 12.3125 11.421875 13.703125 9.546875 
Q 15.09375 7.671875 17.375 6.640625 
Q 19.671875 5.609375 22.90625 5.609375 
Q 26.171875 5.609375 28.421875 6.640625 
Q 30.671875 7.671875 32.03125 9.546875 
Q 33.40625 11.421875 33.984375 14.078125 
Q 34.578125 16.75 34.578125 20.015625 
z
" id="LiberationSansNarrow-56"/>
      </defs>
      <g transform="translate(436.962997 269.345625)scale(0.14 -0.14)">
       <use xlink:href="#LiberationSansNarrow-48"/>
       <use x="45.605469" xlink:href="#LiberationSansNarrow-46"/>
       <use x="68.408203" xlink:href="#LiberationSansNarrow-56"/>
      </g>
     </g>
    </g>
    <g id="xtick_6">
     <g id="line2d_6">
      <path clip-path="url(#p58bafad64e)" d="M 535.676818 252.2 
L 535.676818 18.923374 
" style="fill:none;stroke:#b0b0b0;stroke-dasharray:1.48,0.64;stroke-dashoffset:0;stroke-width:0.4;"/>
     </g>
     <g id="text_6">
      <!-- 1.0 -->
      <defs>
       <path d="M 6.25 0 
L 6.25 7.46875 
L 20.609375 7.46875 
L 20.609375 60.40625 
L 7.90625 49.3125 
L 7.90625 57.625 
L 21.234375 68.796875 
L 27.875 68.796875 
L 27.875 7.46875 
L 41.609375 7.46875 
L 41.609375 0 
z
" id="LiberationSansNarrow-49"/>
      </defs>
      <g transform="translate(527.695724 269.345625)scale(0.14 -0.14)">
       <use xlink:href="#LiberationSansNarrow-49"/>
       <use x="45.605469" xlink:href="#LiberationSansNarrow-46"/>
       <use x="68.408203" xlink:href="#LiberationSansNarrow-48"/>
      </g>
     </g>
    </g>
   </g>
   <g id="matplotlib.axis_2">
    <g id="ytick_1">
     <g id="line2d_7">
      <path clip-path="url(#p58bafad64e)" d="M 59.33 251.443466 
L 558.36 251.443466 
" style="fill:none;stroke:#b0b0b0;stroke-dasharray:1.48,0.64;stroke-dashoffset:0;stroke-width:0.4;"/>
     </g>
     <g id="text_7">
      <!-- −10 -->
      <defs>
       <path d="M 4.046875 29.6875 
L 4.046875 36.8125 
L 43.890625 36.8125 
L 43.890625 29.6875 
z
" id="LiberationSansNarrow-8722"/>
      </defs>
      <g transform="translate(32.8525 256.516279)scale(0.14 -0.14)">
       <use xlink:href="#LiberationSansNarrow-8722"/>
       <use x="47.900391" xlink:href="#LiberationSansNarrow-49"/>
       <use x="93.505859" xlink:href="#LiberationSansNarrow-48"/>
      </g>
     </g>
    </g>
    <g id="ytick_2">
     <g id="line2d_8">
      <path clip-path="url(#p58bafad64e)" d="M 59.33 193.733329 
L 558.36 193.733329 
" style="fill:none;stroke:#b0b0b0;stroke-dasharray:1.48,0.64;stroke-dashoffset:0;stroke-width:0.4;"/>
     </g>
     <g id="text_8">
      <!-- 0 -->
      <g transform="translate(45.944688 198.806141)scale(0.14 -0.14)">
       <use xlink:href="#LiberationSansNarrow-48"/>
      </g>
     </g>
    </g>
    <g id="ytick_3">
     <g id="line2d_9">
      <path clip-path="url(#p58bafad64e)" d="M 59.33 136.023192 
L 558.36 136.023192 
" style="fill:none;stroke:#b0b0b0;stroke-dasharray:1.48,0.64;stroke-dashoffset:0;stroke-width:0.4;"/>
     </g>
     <g id="text_9">
      <!-- 10 -->
      <g transform="translate(39.559375 141.096004)scale(0.14 -0.14)">
       <use xlink:href="#LiberationSansNarrow-49"/>
       <use x="45.605469" xlink:href="#LiberationSansNarrow-48"/>
      </g>
     </g>
    </g>
    <g id="ytick_4">
     <g id="line2d_10">
      <path clip-path="url(#p58bafad64e)" d="M 59.33 78.313055 
L 558.36 78.313055 
" style="fill:none;stroke:#b0b0b0;stroke-dasharray:1.48,0.64;stroke-dashoffset:0;stroke-width:0.4;"/>
     </g>
     <g id="text_10">
      <!-- 20 -->
      <g transform="translate(39.559375 83.385867)scale(0.14 -0.14)">
       <use xlink:href="#LiberationSansNarrow-50"/>
       <use x="45.605469" xlink:href="#LiberationSansNarrow-48"/>
      </g>
     </g>
    </g>
    <g id="ytick_5">
     <g id="line2d_11">
      <path clip-path="url(#p58bafad64e)" d="M 59.33 20.602917 
L 558.36 20.602917 
" style="fill:none;stroke:#b0b0b0;stroke-dasharray:1.48,0.64;stroke-dashoffset:0;stroke-width:0.4;"/>
     </g>
     <g id="text_11">
      <!-- 30 -->
      <defs>
       <path d="M 42 19 
Q 42 14.265625 40.75 10.546875 
Q 39.5 6.84375 37.0625 4.265625 
Q 34.625 1.703125 31.046875 0.359375 
Q 27.484375 -0.984375 22.859375 -0.984375 
Q 17.625 -0.984375 14.03125 0.609375 
Q 10.453125 2.203125 8.125 4.8125 
Q 5.8125 7.421875 4.640625 10.765625 
Q 3.46875 14.109375 3.125 17.671875 
L 10.546875 18.5 
Q 10.890625 15.765625 11.734375 13.515625 
Q 12.59375 11.28125 14.078125 9.671875 
Q 15.578125 8.0625 17.75 7.171875 
Q 19.921875 6.296875 22.859375 6.296875 
Q 28.328125 6.296875 31.421875 9.5625 
Q 34.515625 12.84375 34.515625 19.28125 
Q 34.515625 23.09375 33.125 25.40625 
Q 31.734375 27.734375 29.6875 29.03125 
Q 27.640625 30.328125 25.21875 30.765625 
Q 22.796875 31.203125 20.75 31.203125 
L 16.65625 31.203125 
L 16.65625 38.8125 
L 20.5625 38.8125 
Q 22.609375 38.8125 24.828125 39.328125 
Q 27.046875 39.84375 28.859375 41.1875 
Q 30.671875 42.53125 31.859375 44.828125 
Q 33.0625 47.125 33.0625 50.6875 
Q 33.0625 56.203125 30.375 59.390625 
Q 27.6875 62.59375 22.46875 62.59375 
Q 17.671875 62.59375 14.734375 59.609375 
Q 11.8125 56.640625 11.328125 51.21875 
L 4.109375 51.90625 
Q 4.546875 56.453125 6.125 59.8125 
Q 7.71875 63.1875 10.171875 65.40625 
Q 12.640625 67.625 15.8125 68.71875 
Q 19 69.828125 22.5625 69.828125 
Q 27.296875 69.828125 30.6875 68.375 
Q 34.078125 66.9375 36.21875 64.46875 
Q 38.375 62.015625 39.40625 58.6875 
Q 40.4375 55.375 40.4375 51.609375 
Q 40.4375 48.578125 39.75 45.9375 
Q 39.0625 43.3125 37.625 41.203125 
Q 36.1875 39.109375 33.953125 37.59375 
Q 31.734375 36.078125 28.609375 35.296875 
L 28.609375 35.109375 
Q 32.03125 34.671875 34.546875 33.21875 
Q 37.0625 31.78125 38.71875 29.625 
Q 40.375 27.484375 41.1875 24.75 
Q 42 22.015625 42 19 
z
" id="LiberationSansNarrow-51"/>
      </defs>
      <g transform="translate(39.559375 25.67573)scale(0.14 -0.14)">
       <use xlink:href="#LiberationSansNarrow-51"/>
       <use x="45.605469" xlink:href="#LiberationSansNarrow-48"/>
      </g>
     </g>
    </g>
    <g id="text_12">
     <!-- доходность, %г -->
     <defs>
      <path d="M 33.34375 46.4375 
L 21.140625 46.4375 
Q 20.171875 37.796875 19.1875 31.375 
Q 18.21875 24.953125 17.234375 20.21875 
Q 16.265625 15.484375 15.3125 12.15625 
Q 14.359375 8.84375 13.484375 6.390625 
L 33.34375 6.390625 
z
M 46.390625 -19.921875 
L 39.890625 -19.921875 
L 39.890625 0 
L 7.328125 0 
L 7.328125 -19.921875 
L 0.78125 -19.921875 
L 0.78125 6.390625 
L 5.5625 6.390625 
Q 6.78125 8.84375 7.921875 12.328125 
Q 9.078125 15.828125 10.21875 21.1875 
Q 11.375 26.5625 12.515625 34.25 
Q 13.671875 41.9375 14.796875 52.828125 
L 40.578125 52.828125 
L 40.578125 6.390625 
L 46.390625 6.390625 
z
" id="LiberationSansNarrow-1076"/>
      <path d="M 42.140625 26.46875 
Q 42.140625 12.59375 37.125 5.796875 
Q 32.125 -0.984375 22.609375 -0.984375 
Q 18.0625 -0.984375 14.515625 0.671875 
Q 10.984375 2.34375 8.515625 5.765625 
Q 6.0625 9.1875 4.765625 14.328125 
Q 3.46875 19.484375 3.46875 26.46875 
Q 3.46875 53.8125 22.859375 53.8125 
Q 27.875 53.8125 31.5625 52.09375 
Q 35.25 50.390625 37.59375 46.96875 
Q 39.9375 43.5625 41.03125 38.421875 
Q 42.140625 33.296875 42.140625 26.46875 
z
M 34.578125 26.46875 
Q 34.578125 32.625 33.8125 36.625 
Q 33.0625 40.625 31.546875 43.015625 
Q 30.03125 45.40625 27.859375 46.359375 
Q 25.6875 47.3125 23 47.3125 
Q 20.21875 47.3125 17.984375 46.3125 
Q 15.765625 45.3125 14.203125 42.890625 
Q 12.640625 40.484375 11.828125 36.46875 
Q 11.03125 32.46875 11.03125 26.46875 
Q 11.03125 20.3125 11.90625 16.28125 
Q 12.796875 12.25 14.328125 9.859375 
Q 15.875 7.46875 17.96875 6.484375 
Q 20.0625 5.515625 22.5625 5.515625 
Q 25.34375 5.515625 27.5625 6.46875 
Q 29.78125 7.421875 31.34375 9.8125 
Q 32.90625 12.203125 33.734375 16.25 
Q 34.578125 20.3125 34.578125 26.46875 
z
" id="LiberationSansNarrow-1086"/>
      <path d="M 32.078125 0 
L 20.40625 21.6875 
L 8.6875 0 
L 0.921875 0 
L 16.359375 27.15625 
L 1.65625 52.828125 
L 9.625 52.828125 
L 20.40625 32.28125 
L 31.15625 52.828125 
L 39.203125 52.828125 
L 24.515625 27.25 
L 40.140625 0 
z
" id="LiberationSansNarrow-1093"/>
      <path d="M 12.890625 52.828125 
L 12.890625 30.46875 
L 32.375 30.46875 
L 32.375 52.828125 
L 39.59375 52.828125 
L 39.59375 0 
L 32.375 0 
L 32.375 24.078125 
L 12.890625 24.078125 
L 12.890625 0 
L 5.671875 0 
L 5.671875 52.828125 
z
" id="LiberationSansNarrow-1085"/>
      <path d="M 11.03125 26.65625 
Q 11.03125 22.125 11.5625 18.3125 
Q 12.109375 14.5 13.375 11.734375 
Q 14.65625 8.984375 16.75 7.46875 
Q 18.84375 5.953125 21.96875 5.953125 
Q 25.828125 5.953125 28.390625 8.484375 
Q 30.953125 11.03125 31.546875 16.3125 
L 38.875 15.71875 
Q 38.53125 12.453125 37.296875 9.421875 
Q 36.078125 6.390625 34.03125 4.09375 
Q 31.984375 1.8125 29 0.40625 
Q 26.03125 -0.984375 22.171875 -0.984375 
Q 17.09375 -0.984375 13.5 1.109375 
Q 9.90625 3.21875 7.6875 6.90625 
Q 5.46875 10.59375 4.46875 15.59375 
Q 3.46875 20.609375 3.46875 26.46875 
Q 3.46875 31.78125 4.203125 35.859375 
Q 4.9375 39.9375 6.21875 42.984375 
Q 7.515625 46.046875 9.265625 48.125 
Q 11.03125 50.203125 13.109375 51.4375 
Q 15.1875 52.6875 17.453125 53.25 
Q 19.734375 53.8125 22.078125 53.8125 
Q 25.734375 53.8125 28.5625 52.59375 
Q 31.390625 51.375 33.46875 49.25 
Q 35.546875 47.125 36.8125 44.234375 
Q 38.09375 41.359375 38.625 38.03125 
L 31.203125 37.359375 
Q 30.671875 41.75 28.375 44.328125 
Q 26.078125 46.921875 21.875 46.921875 
Q 18.796875 46.921875 16.71875 45.671875 
Q 14.65625 44.4375 13.375 41.921875 
Q 12.109375 39.40625 11.5625 35.59375 
Q 11.03125 31.78125 11.03125 26.65625 
z
" id="LiberationSansNarrow-1089"/>
      <path d="M 1.421875 52.828125 
L 36.140625 52.828125 
L 36.140625 46.4375 
L 22.359375 46.4375 
L 22.359375 0 
L 15.1875 0 
L 15.1875 46.4375 
L 1.421875 46.4375 
z
" id="LiberationSansNarrow-1090"/>
      <path d="M 22.75 30.46875 
Q 30.953125 30.46875 35.15625 26.875 
Q 39.359375 23.296875 39.359375 15.53125 
Q 39.359375 11.921875 38.296875 9.03125 
Q 37.25 6.15625 35.171875 4.15625 
Q 33.109375 2.15625 30 1.078125 
Q 26.90625 0 22.796875 0 
L 5.671875 0 
L 5.671875 52.828125 
L 12.890625 52.828125 
L 12.890625 30.46875 
z
M 12.890625 6.203125 
L 21.6875 6.203125 
Q 24.46875 6.203125 26.390625 6.8125 
Q 28.328125 7.421875 29.5 8.609375 
Q 30.671875 9.8125 31.171875 11.546875 
Q 31.6875 13.28125 31.6875 15.53125 
Q 31.6875 20.125 29.359375 22.234375 
Q 27.046875 24.359375 21.734375 24.359375 
L 12.890625 24.359375 
z
" id="LiberationSansNarrow-1100"/>
      <path d="M 15.4375 10.6875 
L 15.4375 2.484375 
Q 15.4375 -0.09375 15.265625 -2.21875 
Q 15.09375 -4.34375 14.671875 -6.171875 
Q 14.265625 -8.015625 13.671875 -9.625 
Q 13.09375 -11.234375 12.3125 -12.796875 
L 7.375 -12.796875 
Q 9.1875 -9.625 10.15625 -6.390625 
Q 11.140625 -3.171875 11.140625 0 
L 7.625 0 
L 7.625 10.6875 
z
" id="LiberationSansNarrow-44"/>
      <path id="LiberationSansNarrow-32"/>
      <path d="M 69.96875 21.1875 
Q 69.96875 15.09375 68.9375 10.90625 
Q 67.921875 6.734375 66.1875 4.171875 
Q 64.453125 1.609375 62.125 0.5 
Q 59.8125 -0.59375 57.171875 -0.59375 
Q 54.546875 -0.59375 52.21875 0.5 
Q 49.90625 1.609375 48.21875 4.140625 
Q 46.53125 6.6875 45.546875 10.859375 
Q 44.578125 15.046875 44.578125 21.1875 
Q 44.578125 27.6875 45.53125 31.9375 
Q 46.484375 36.1875 48.1875 38.703125 
Q 49.90625 41.21875 52.25 42.21875 
Q 54.59375 43.21875 57.328125 43.21875 
Q 59.96875 43.21875 62.25 42.21875 
Q 64.546875 41.21875 66.25 38.703125 
Q 67.96875 36.1875 68.96875 31.9375 
Q 69.96875 27.6875 69.96875 21.1875 
z
M 21.09375 0 
L 14.890625 0 
L 51.8125 68.796875 
L 58.109375 68.796875 
z
M 15.765625 69.390625 
Q 18.3125 69.390625 20.609375 68.390625 
Q 22.90625 67.390625 24.609375 64.890625 
Q 26.3125 62.40625 27.3125 58.203125 
Q 28.328125 54 28.328125 47.609375 
Q 28.328125 41.453125 27.3125 37.25 
Q 26.3125 33.0625 24.609375 30.4375 
Q 22.90625 27.828125 20.578125 26.703125 
Q 18.265625 25.59375 15.625 25.59375 
Q 12.9375 25.59375 10.609375 26.703125 
Q 8.296875 27.828125 6.59375 30.421875 
Q 4.890625 33.015625 3.90625 37.203125 
Q 2.9375 41.40625 2.9375 47.609375 
Q 2.9375 54 3.90625 58.203125 
Q 4.890625 62.40625 6.609375 64.890625 
Q 8.34375 67.390625 10.6875 68.390625 
Q 13.03125 69.390625 15.765625 69.390625 
z
M 64.0625 21.1875 
Q 64.0625 26.03125 63.625 29.21875 
Q 63.1875 32.421875 62.328125 34.328125 
Q 61.46875 36.234375 60.203125 37.015625 
Q 58.9375 37.796875 57.328125 37.796875 
Q 55.671875 37.796875 54.375 36.984375 
Q 53.078125 36.1875 52.1875 34.28125 
Q 51.3125 32.375 50.875 29.171875 
Q 50.4375 25.984375 50.4375 21.1875 
Q 50.4375 16.546875 50.90625 13.421875 
Q 51.375 10.296875 52.21875 8.375 
Q 53.078125 6.453125 54.34375 5.609375 
Q 55.609375 4.78125 57.234375 4.78125 
Q 58.796875 4.78125 60.0625 5.609375 
Q 61.328125 6.453125 62.203125 8.375 
Q 63.09375 10.296875 63.578125 13.421875 
Q 64.0625 16.546875 64.0625 21.1875 
z
M 22.40625 47.609375 
Q 22.40625 52.390625 21.96875 55.5625 
Q 21.53125 58.734375 20.703125 60.640625 
Q 19.875 62.546875 18.625 63.328125 
Q 17.390625 64.109375 15.765625 64.109375 
Q 14.0625 64.109375 12.734375 63.296875 
Q 11.421875 62.5 10.546875 60.59375 
Q 9.671875 58.6875 9.234375 55.515625 
Q 8.796875 52.34375 8.796875 47.609375 
Q 8.796875 42.96875 9.25 39.796875 
Q 9.71875 36.625 10.5625 34.6875 
Q 11.421875 32.765625 12.71875 31.9375 
Q 14.015625 31.109375 15.671875 31.109375 
Q 17.1875 31.109375 18.421875 31.9375 
Q 19.671875 32.765625 20.546875 34.6875 
Q 21.4375 36.625 21.921875 39.796875 
Q 22.40625 42.96875 22.40625 47.609375 
z
" id="LiberationSansNarrow-37"/>
      <path d="M 27.546875 52.828125 
L 27.546875 46.4375 
L 12.890625 46.4375 
L 12.890625 0 
L 5.71875 0 
L 5.71875 52.828125 
z
" id="LiberationSansNarrow-1075"/>
     </defs>
     <g transform="translate(25.9475 176.746843)rotate(-90)scale(0.14 -0.14)">
      <use xlink:href="#LiberationSansNarrow-1076"/>
      <use x="47.802734" xlink:href="#LiberationSansNarrow-1086"/>
      <use x="93.392578" xlink:href="#LiberationSansNarrow-1093"/>
      <use x="134.392578" xlink:href="#LiberationSansNarrow-1086"/>
      <use x="179.966797" xlink:href="#LiberationSansNarrow-1076"/>
      <use x="227.769531" xlink:href="#LiberationSansNarrow-1085"/>
      <use x="273.033203" xlink:href="#LiberationSansNarrow-1086"/>
      <use x="318.638672" xlink:href="#LiberationSansNarrow-1089"/>
      <use x="359.654297" xlink:href="#LiberationSansNarrow-1090"/>
      <use x="397.203125" xlink:href="#LiberationSansNarrow-1100"/>
      <use x="439.927734" xlink:href="#LiberationSansNarrow-44"/>
      <use x="462.730469" xlink:href="#LiberationSansNarrow-32"/>
      <use x="485.533203" xlink:href="#LiberationSansNarrow-37"/>
      <use x="558.433594" xlink:href="#LiberationSansNarrow-1075"/>
     </g>
    </g>
   </g>
   <g id="line2d_12">
    <path clip-path="url(#p58bafad64e)" d="M 82.013182 205.484399 
L 82.492235 205.12645 
L 82.971289 204.393136 
L 83.450342 202.791977 
L 83.929396 202.365572 
L 84.408449 202.33647 
L 84.887503 201.751222 
L 85.84561 201.496523 
L 86.324663 201.004258 
L 86.803717 200.905985 
L 87.28277 199.116886 
L 87.761823 198.655658 
L 88.71993 198.407795 
L 89.198984 197.733062 
L 89.678037 197.659196 
L 90.157091 197.461114 
L 91.115198 197.298061 
L 91.594251 196.965176 
L 92.073305 196.921366 
L 92.552358 196.672896 
L 93.031412 196.551884 
L 93.510465 196.217637 
L 94.468572 195.948937 
L 95.426679 195.863786 
L 95.905732 195.602994 
L 97.821946 195.494904 
L 98.301 195.327107 
L 99.73816 195.224913 
L 102.612481 194.810063 
L 103.091535 194.606111 
L 103.570588 194.545163 
L 104.049641 194.317183 
L 105.007748 194.196662 
L 105.965855 193.419445 
L 106.444909 193.39773 
L 107.403016 193.0366 
L 109.798283 192.372347 
L 110.277337 191.969244 
L 110.75639 191.963379 
L 111.235444 191.756248 
L 111.714497 191.726015 
L 112.19355 191.472891 
L 113.151657 191.3904 
L 113.630711 191.091505 
L 116.984085 190.765083 
L 117.463139 190.636793 
L 118.421246 190.589536 
L 118.900299 190.443973 
L 120.337459 190.278686 
L 120.816513 190.24521 
L 121.295566 189.946831 
L 122.253673 189.792751 
L 123.21178 189.568595 
L 124.169887 189.369358 
L 124.648941 189.112078 
L 126.086101 188.7762 
L 127.523261 187.911051 
L 128.002315 187.867772 
L 128.481368 187.54816 
L 128.960422 187.505299 
L 129.439475 187.286018 
L 129.918529 186.652413 
L 130.876636 186.237075 
L 131.834743 186.137802 
L 132.313796 185.837146 
L 133.271903 185.607521 
L 133.750957 185.272194 
L 134.23001 184.77577 
L 134.709064 184.600702 
L 135.188117 184.562488 
L 135.66717 184.305896 
L 136.146224 184.295648 
L 136.625277 184.107945 
L 139.020545 183.841553 
L 139.499598 183.552395 
L 140.457705 183.422327 
L 142.373919 183.298203 
L 143.332026 183.191119 
L 143.811079 183.190563 
L 144.769186 182.955304 
L 145.727293 182.863685 
L 146.206347 182.534019 
L 147.643507 182.448891 
L 148.601614 182.363013 
L 150.517828 182.193947 
L 155.308363 181.817913 
L 156.745523 181.726166 
L 160.577951 181.382006 
L 169.200913 180.687666 
L 170.638074 180.423468 
L 171.117127 180.410714 
L 171.596181 180.185012 
L 174.470502 179.886252 
L 174.949555 179.671383 
L 177.823876 179.576167 
L 179.261036 179.186581 
L 180.219143 179.058495 
L 181.656304 178.807255 
L 182.135357 178.580588 
L 184.051571 178.346525 
L 184.530624 178.250747 
L 185.009678 178.017721 
L 185.967785 177.846662 
L 186.446838 177.571501 
L 186.925892 177.562552 
L 187.404945 177.399218 
L 187.883999 177.384084 
L 188.363052 177.161586 
L 190.279266 176.936723 
L 191.237373 176.754372 
L 192.19548 176.63411 
L 192.674533 176.629734 
L 193.153587 176.250297 
L 194.590747 175.981032 
L 195.069801 175.864845 
L 196.027908 175.352493 
L 197.944122 174.993287 
L 198.423175 174.644524 
L 199.860336 174.308845 
L 200.339389 174.287836 
L 201.776549 173.84623 
L 205.129924 173.600177 
L 206.088031 173.288636 
L 207.525191 173.126859 
L 208.004245 172.879273 
L 209.920458 172.656127 
L 210.878565 172.57745 
L 211.836672 172.430389 
L 212.794779 172.384 
L 213.752886 172.262177 
L 216.148153 171.926465 
L 217.10626 171.812889 
L 221.417742 171.069624 
L 222.854902 170.74001 
L 223.813009 170.647887 
L 224.292062 170.365057 
L 225.729223 170.225133 
L 237.226506 169.222884 
L 238.184613 168.995793 
L 239.14272 168.924097 
L 239.621774 168.680913 
L 241.537987 168.359309 
L 242.017041 168.189725 
L 242.496094 168.153092 
L 242.975148 167.967318 
L 243.933255 167.882561 
L 245.370415 167.514499 
L 246.328522 167.331042 
L 248.244736 167.174428 
L 249.202843 167.007815 
L 250.16095 166.862211 
L 250.640003 166.825693 
L 251.59811 166.43425 
L 252.556217 166.116098 
L 253.514324 165.952292 
L 253.993378 165.810295 
L 254.472431 165.540386 
L 255.430538 165.495954 
L 256.867698 164.897944 
L 260.700126 164.454821 
L 261.17918 164.446873 
L 263.095394 163.835396 
L 264.053501 163.604513 
L 264.532554 163.579732 
L 265.490661 163.314854 
L 265.969714 163.231456 
L 266.448768 162.832026 
L 267.406875 162.670016 
L 268.364982 162.541817 
L 271.718356 162.265266 
L 273.155516 161.854956 
L 277.466998 161.36526 
L 278.425105 160.748213 
L 282.736586 160.093157 
L 283.215639 159.906332 
L 284.6528 159.760573 
L 287.048067 159.478477 
L 287.527121 159.083714 
L 289.443334 158.731267 
L 290.401441 158.642531 
L 291.359548 158.376783 
L 294.712923 157.882017 
L 295.67103 157.641743 
L 296.150083 157.619333 
L 297.10819 157.372529 
L 299.024404 157.169691 
L 299.503457 157.169406 
L 300.461564 156.623786 
L 301.419671 156.481091 
L 303.814939 156.01994 
L 304.773046 155.927365 
L 306.210206 155.743532 
L 306.689259 155.295376 
L 308.12642 155.126494 
L 309.56358 154.96727 
L 312.437901 154.85509 
L 312.916954 154.692109 
L 314.354115 154.596093 
L 315.312222 154.411705 
L 316.749382 154.304308 
L 317.228436 154.161127 
L 318.665596 154.089546 
L 319.14465 153.912397 
L 320.102757 153.842594 
L 320.58181 153.621701 
L 324.414238 153.178597 
L 325.851398 152.979312 
L 326.330452 152.95651 
L 327.288559 152.514507 
L 328.725719 152.375572 
L 329.204772 152.17752 
L 329.683826 152.159092 
L 330.162879 151.978261 
L 332.079093 151.769368 
L 332.558147 151.455267 
L 333.995307 151.381452 
L 334.474361 151.17572 
L 336.869628 151.046442 
L 338.306788 150.869399 
L 342.139216 150.39996 
L 343.097323 150.283969 
L 344.534484 149.961215 
L 345.013537 149.617548 
L 349.325018 149.238503 
L 351.720286 148.88842 
L 357.468927 148.378409 
L 358.906088 148.281237 
L 360.822302 148.145503 
L 364.654729 147.593723 
L 365.612836 147.519193 
L 366.09189 147.364379 
L 366.570943 147.344987 
L 367.049997 147.207835 
L 368.966211 147.161247 
L 369.445264 146.995629 
L 371.361478 146.780584 
L 372.319585 146.558362 
L 372.798638 146.5156 
L 373.756745 146.184365 
L 374.714852 146.165243 
L 375.193906 145.883872 
L 376.152013 145.852836 
L 376.631066 145.701157 
L 378.068226 145.61868 
L 378.54728 145.452407 
L 379.505387 145.346667 
L 379.98444 145.130238 
L 381.421601 145.005953 
L 382.858761 144.676261 
L 384.295922 144.565661 
L 384.774975 144.02986 
L 385.254029 144.011221 
L 387.170242 143.194609 
L 391.481724 142.864154 
L 393.397938 142.34466 
L 394.356044 142.322948 
L 395.314151 141.840913 
L 396.272258 141.768561 
L 396.751312 141.645271 
L 397.230365 141.204001 
L 398.188472 140.992648 
L 398.667526 140.704749 
L 402.499953 139.727731 
L 404.416167 139.578151 
L 405.374274 139.237452 
L 405.853328 139.203059 
L 406.332381 138.967548 
L 409.206702 138.520438 
L 409.685755 138.249381 
L 410.643862 138.159061 
L 411.122916 137.845593 
L 411.601969 137.710018 
L 413.03913 136.960983 
L 413.997237 136.946839 
L 414.955344 136.491812 
L 416.392504 136.389637 
L 416.871558 136.285471 
L 417.350611 135.983447 
L 417.829664 135.978909 
L 418.308718 135.529496 
L 418.787771 135.516086 
L 419.745878 135.120991 
L 421.183039 134.664607 
L 421.662092 134.229232 
L 422.141146 134.197087 
L 422.620199 133.940956 
L 424.05736 133.592827 
L 424.536413 133.232524 
L 428.368841 132.487582 
L 429.326948 132.120542 
L 430.285055 131.810701 
L 431.243162 131.763798 
L 432.201269 131.203302 
L 433.638429 131.002311 
L 434.596536 130.661351 
L 435.075589 130.649472 
L 436.033696 130.275629 
L 436.51275 129.91275 
L 437.470857 129.825455 
L 438.428964 129.682109 
L 442.740445 128.785071 
L 443.698552 128.673223 
L 444.177605 128.557271 
L 446.093819 128.529807 
L 447.051926 128.182281 
L 447.53098 127.849866 
L 448.489087 127.625293 
L 450.884354 127.340257 
L 451.842461 127.255782 
L 452.321514 126.875401 
L 453.279621 126.59213 
L 454.237728 126.49495 
L 455.674889 126.233057 
L 456.632996 126.065342 
L 457.591103 125.822806 
L 458.549209 125.27242 
L 459.507316 125.08824 
L 459.98637 124.945289 
L 460.944477 124.869259 
L 462.860691 124.357419 
L 464.776905 124.045453 
L 465.735012 123.553878 
L 467.651225 123.36574 
L 469.088386 122.711813 
L 469.567439 122.707936 
L 470.046493 122.499561 
L 471.0046 122.405293 
L 471.962707 122.348756 
L 472.920814 121.751525 
L 473.878921 121.691678 
L 474.837027 121.389434 
L 475.795134 121.139397 
L 479.148509 120.818403 
L 480.106616 120.71355 
L 481.064723 120.646409 
L 483.45999 120.169813 
L 484.418097 119.942519 
L 485.855257 119.295543 
L 486.813364 119.132323 
L 487.771471 117.682285 
L 488.729578 117.537475 
L 490.166739 117.393665 
L 491.124845 117.271753 
L 495.436327 116.370009 
L 495.91538 116.200478 
L 496.394434 115.897373 
L 496.873487 115.874379 
L 497.352541 115.715864 
L 501.184968 115.451084 
L 501.664022 115.267984 
L 502.143075 114.894995 
L 504.059289 114.640235 
L 504.538343 114.470898 
L 505.49645 114.310663 
L 506.454556 114.174272 
L 507.412663 114.059588 
L 508.37077 113.70574 
L 509.807931 113.6641 
L 510.286984 113.379826 
L 510.766038 113.349944 
L 511.245091 113.128721 
L 513.640359 112.972263 
L 515.077519 112.564552 
L 516.035626 112.364541 
L 516.993733 111.899544 
L 518.909947 111.782319 
L 519.389 111.579268 
L 520.347107 111.504032 
L 520.826161 111.264736 
L 521.305214 110.650993 
L 524.179535 110.13571 
L 525.137642 109.639081 
L 525.616695 109.358766 
L 526.095749 109.345751 
L 526.574802 108.943758 
L 528.491016 108.169662 
L 529.928177 108.061443 
L 530.40723 107.921335 
L 530.886283 107.178548 
L 531.365337 107.101276 
L 534.718711 105.654424 
L 535.676818 103.818325 
L 535.676818 103.818325 
" style="fill:none;stroke:#1f77b4;stroke-linecap:square;stroke-width:2;"/>
   </g>
   <g id="line2d_13">
    <path clip-path="url(#p58bafad64e)" d="M 82.013182 204.381515 
L 82.915098 201.626444 
L 83.817013 200.79437 
L 84.718929 200.713322 
L 85.620845 200.291274 
L 86.522761 200.254755 
L 87.424676 199.761073 
L 89.228508 196.165225 
L 90.130424 196.09246 
L 91.03234 195.694518 
L 91.934255 194.518684 
L 92.836171 194.221629 
L 94.640003 194.069359 
L 95.541918 192.099865 
L 96.443834 191.69779 
L 97.34575 191.463045 
L 98.247666 191.459086 
L 100.051497 191.012781 
L 100.953413 190.686512 
L 102.757245 190.405105 
L 110.874487 190.029617 
L 111.776402 189.885859 
L 112.678318 189.874364 
L 113.580234 189.604793 
L 114.48215 189.592487 
L 116.285981 189.417373 
L 118.089813 189.341574 
L 118.991729 189.182236 
L 121.697476 189.103711 
L 122.599392 188.822392 
L 125.305139 188.665449 
L 129.814718 188.519782 
L 130.716634 188.378356 
L 132.520465 188.311767 
L 136.128129 187.793756 
L 139.735792 187.466524 
L 141.539623 187.111728 
L 142.441539 187.034169 
L 143.343455 186.764681 
L 144.245371 186.374069 
L 145.147286 186.287624 
L 146.049202 185.696987 
L 146.951118 184.691161 
L 148.754949 184.108561 
L 149.656865 182.642656 
L 150.558781 182.565027 
L 151.460697 182.155652 
L 152.362613 180.308077 
L 153.264528 178.121221 
L 154.166444 178.052916 
L 155.970276 177.465047 
L 156.872191 175.816128 
L 157.774107 175.594475 
L 158.676023 173.488877 
L 159.577939 173.427689 
L 160.479855 172.722769 
L 161.38177 172.619385 
L 162.283686 172.291491 
L 163.185602 172.172341 
L 164.087518 171.681764 
L 164.989433 171.540988 
L 165.891349 171.150725 
L 167.695181 171.00912 
L 168.597097 170.557074 
L 172.20476 170.501603 
L 173.106675 170.326707 
L 174.910507 170.260149 
L 175.812423 170.181922 
L 176.714339 169.991757 
L 179.420086 169.79516 
L 183.027749 169.596767 
L 183.929665 169.289805 
L 191.144991 168.829558 
L 193.850738 168.478927 
L 194.752654 168.303384 
L 201.066065 167.980033 
L 201.96798 167.808494 
L 202.869896 167.799264 
L 203.771812 167.677031 
L 204.673728 167.421609 
L 212.79097 166.896899 
L 216.398633 166.766075 
L 220.908212 166.423306 
L 227.221622 165.551141 
L 228.123538 165.332507 
L 231.731201 165.029414 
L 232.633117 164.562177 
L 233.535033 164.545182 
L 235.338864 164.25161 
L 236.24078 163.821348 
L 237.142696 163.712669 
L 238.044611 163.177117 
L 238.946527 163.168985 
L 239.848443 162.676646 
L 240.750359 162.450804 
L 241.652275 162.368586 
L 243.456106 161.719174 
L 244.358022 161.50457 
L 245.259938 160.996395 
L 246.161853 160.947341 
L 248.867601 160.201848 
L 249.769517 160.165046 
L 251.573348 159.585345 
L 252.475264 159.3205 
L 253.37718 159.17156 
L 254.279095 158.239332 
L 255.181011 158.184521 
L 257.886759 157.68119 
L 259.69059 157.546674 
L 261.494422 157.204372 
L 263.298253 157.092902 
L 264.200169 156.284012 
L 266.905916 156.015654 
L 267.807832 155.929238 
L 268.709748 155.713925 
L 271.415495 155.57666 
L 272.317411 155.125542 
L 274.121243 154.545015 
L 275.023158 154.388885 
L 276.82699 154.233593 
L 277.728906 154.066821 
L 280.434653 153.943998 
L 281.336569 153.677073 
L 283.1404 152.386069 
L 284.042316 152.072711 
L 285.846148 150.8963 
L 287.649979 150.721183 
L 288.551895 150.245933 
L 289.453811 150.031387 
L 290.355727 149.624228 
L 292.159558 149.518508 
L 293.061474 149.350329 
L 294.865305 148.867238 
L 296.669137 148.530943 
L 299.374884 148.268634 
L 301.178716 147.977546 
L 302.080632 147.761379 
L 302.982547 147.391825 
L 304.786379 147.180341 
L 307.492126 146.594309 
L 308.394042 146.014633 
L 310.197874 145.95406 
L 311.099789 145.715792 
L 314.707453 145.328751 
L 315.609368 145.321067 
L 320.118947 144.784816 
L 321.922779 144.592979 
L 323.72661 144.044651 
L 330.040021 143.667157 
L 330.941937 143.35442 
L 331.843852 143.191806 
L 334.5496 143.045598 
L 335.451515 142.982963 
L 336.353431 142.72532 
L 345.372589 142.238548 
L 346.274505 142.048498 
L 347.176421 142.034505 
L 348.078336 141.653696 
L 357.99941 141.349039 
L 358.901326 141.124302 
L 359.803241 141.076074 
L 363.410905 140.409578 
L 367.018568 140.237676 
L 367.920483 140.16056 
L 368.822399 139.934242 
L 370.626231 139.757982 
L 371.528147 139.707153 
L 372.430062 139.406762 
L 374.233894 139.239439 
L 375.13581 138.976517 
L 376.037725 138.968572 
L 376.939641 138.685887 
L 378.743473 138.675327 
L 379.645389 138.442437 
L 387.762631 137.702033 
L 393.174125 136.790448 
L 394.076041 136.588851 
L 396.781788 136.387127 
L 398.58562 136.117186 
L 399.487536 136.107291 
L 401.291367 135.861424 
L 405.800946 135.546469 
L 415.72202 134.873915 
L 417.525851 134.744663 
L 419.329683 134.626924 
L 421.133514 134.320643 
L 425.643093 133.946133 
L 426.545009 133.647502 
L 430.152672 133.551381 
L 436.466083 133.006001 
L 437.367998 132.648867 
L 442.779493 131.931576 
L 443.681409 131.923572 
L 447.289072 131.364854 
L 449.092903 131.310058 
L 449.994819 131.08354 
L 450.896735 131.066141 
L 453.602482 130.758662 
L 454.504398 130.755385 
L 458.112061 129.572406 
L 459.013977 129.481413 
L 460.817809 129.074756 
L 461.719724 128.930923 
L 462.62164 128.911995 
L 464.425472 128.751896 
L 465.327387 128.728923 
L 466.229303 128.344849 
L 467.131219 128.220258 
L 468.033135 127.836918 
L 468.935051 127.593066 
L 473.444629 126.95523 
L 474.346545 126.4947 
L 475.248461 126.424267 
L 477.052293 125.746859 
L 478.856124 125.144177 
L 479.75804 125.096433 
L 481.561871 124.600499 
L 482.463787 123.805149 
L 483.365703 123.456979 
L 484.267619 122.779177 
L 485.169535 122.598278 
L 486.07145 122.55841 
L 486.973366 120.744811 
L 487.875282 119.347249 
L 488.777198 117.086625 
L 489.679114 116.808905 
L 490.581029 115.308267 
L 491.482945 114.753076 
L 494.188692 114.216508 
L 496.89444 111.537401 
L 497.796356 111.503056 
L 498.698271 110.343146 
L 499.600187 110.295524 
L 500.502103 110.080378 
L 501.404019 109.981355 
L 504.109766 109.177267 
L 505.011682 108.94739 
L 506.815513 108.816901 
L 507.717429 108.549967 
L 510.423176 108.258912 
L 511.325092 108.067491 
L 512.227008 107.727237 
L 513.128924 107.642838 
L 514.932755 106.989495 
L 516.736587 105.934413 
L 517.638503 105.473481 
L 519.442334 105.424492 
L 520.34425 105.116698 
L 521.246166 104.314753 
L 522.148082 103.979573 
L 523.049997 103.942186 
L 523.951913 103.624965 
L 524.853829 102.893519 
L 525.755745 102.598277 
L 526.65766 101.964693 
L 527.559576 101.940155 
L 528.461492 101.467161 
L 529.363408 101.130839 
L 530.265324 101.02021 
L 531.167239 100.661653 
L 532.971071 99.575559 
L 533.872987 99.384149 
L 534.774902 98.342301 
L 535.676818 96.788526 
L 535.676818 96.788526 
" style="fill:none;stroke:#ff7f0e;stroke-linecap:square;"/>
   </g>
   <g id="line2d_14">
    <path clip-path="url(#p58bafad64e)" d="M 82.013182 180.808552 
L 82.714362 176.696257 
L 83.415542 176.425514 
L 84.116723 176.308857 
L 84.817903 173.510091 
L 86.220263 173.117169 
L 86.921444 172.590456 
L 87.622624 171.890051 
L 88.323804 171.454036 
L 90.427345 171.172223 
L 92.530886 170.761838 
L 93.232066 170.725856 
L 94.634427 170.334954 
L 95.335607 170.020279 
L 96.036787 170.017009 
L 96.737968 169.447973 
L 98.140328 169.397153 
L 98.841508 169.234693 
L 99.542689 168.900984 
L 101.646229 168.687666 
L 103.74977 167.741424 
L 105.853311 167.48731 
L 106.554491 167.222515 
L 107.956852 166.923079 
L 108.658032 166.379475 
L 109.359212 166.151636 
L 110.060393 166.123956 
L 110.761573 165.774214 
L 115.669835 165.235101 
L 117.773376 164.518121 
L 120.578097 164.220926 
L 121.279277 163.842569 
L 122.681638 163.684457 
L 125.486359 163.096046 
L 126.187539 162.603653 
L 127.5899 162.418888 
L 128.29108 161.999333 
L 128.99226 161.785969 
L 129.69344 161.74425 
L 133.199342 160.611924 
L 135.302883 160.409954 
L 136.004063 160.051168 
L 147.222947 158.730463 
L 147.924127 158.719406 
L 148.625308 158.443317 
L 149.326488 158.416146 
L 150.027668 157.862325 
L 150.728849 157.617288 
L 152.131209 157.48854 
L 153.53357 157.323727 
L 154.23475 157.314083 
L 155.63711 156.625189 
L 156.338291 156.175282 
L 158.441832 155.901694 
L 159.143012 155.833157 
L 160.545372 155.046187 
L 161.246553 155.02326 
L 161.947733 154.591401 
L 162.648913 154.579415 
L 163.350093 154.295186 
L 165.453634 154.037526 
L 166.154815 153.707941 
L 166.855995 153.688756 
L 167.557175 153.436706 
L 170.361896 153.333147 
L 176.672519 152.744733 
L 178.074879 152.699089 
L 180.17842 152.468491 
L 185.086682 152.183783 
L 189.293764 151.792703 
L 192.098485 151.752135 
L 193.500845 151.536333 
L 195.604386 151.407152 
L 197.707927 151.150466 
L 200.512648 151.038541 
L 201.213828 150.994547 
L 201.915008 150.758868 
L 205.42091 150.488557 
L 207.524451 150.408611 
L 208.225631 150.20175 
L 213.835073 149.763977 
L 214.536253 149.518169 
L 215.938614 149.38975 
L 218.743335 149.312258 
L 219.444515 148.931216 
L 220.846876 148.812729 
L 223.651597 148.704807 
L 225.755138 148.581484 
L 227.858679 148.34869 
L 228.559859 148.315891 
L 229.962219 147.848161 
L 232.76694 147.527214 
L 233.468121 147.259843 
L 234.870481 147.093189 
L 236.974022 146.962677 
L 241.181104 146.59426 
L 241.882284 146.324381 
L 243.985825 146.169487 
L 244.687005 145.840801 
L 247.491726 145.490444 
L 250.997628 145.354234 
L 255.204709 144.866872 
L 257.30825 144.43111 
L 258.00943 144.311347 
L 258.710611 144.309193 
L 260.112971 143.994258 
L 265.021233 143.849316 
L 268.527134 143.533208 
L 269.929495 143.187103 
L 270.630675 142.955938 
L 273.435396 142.602497 
L 274.837757 141.954356 
L 275.538937 141.755664 
L 276.240117 141.729449 
L 276.941298 141.357926 
L 279.044838 141.141675 
L 280.447199 141.009634 
L 281.84956 140.546771 
L 283.25192 140.412246 
L 285.355461 139.74849 
L 286.757821 139.657874 
L 288.160182 139.618365 
L 289.562543 139.205361 
L 290.964903 139.109208 
L 295.873165 138.204678 
L 296.574345 137.972104 
L 299.379066 137.573521 
L 300.781427 137.099919 
L 301.482607 137.019761 
L 302.884968 136.645517 
L 304.988509 136.525838 
L 305.689689 136.452443 
L 306.390869 136.015703 
L 309.89677 135.557251 
L 311.299131 135.046509 
L 314.103852 134.793858 
L 315.506213 134.634857 
L 321.816835 134.083261 
L 323.219196 133.433817 
L 325.322736 133.300939 
L 326.725097 133.241693 
L 328.828638 132.67237 
L 330.932179 132.491547 
L 331.633359 132.369114 
L 333.7369 132.312187 
L 334.43808 132.093072 
L 335.84044 131.936178 
L 336.541621 131.730683 
L 337.242801 131.396669 
L 340.047522 131.231734 
L 340.748702 130.96018 
L 341.449883 130.446943 
L 342.151063 130.397607 
L 345.656964 129.556628 
L 347.059325 129.529218 
L 347.760505 129.292178 
L 351.967587 128.838895 
L 354.772308 128.284273 
L 356.875849 128.032668 
L 357.577029 127.602115 
L 358.979389 127.548681 
L 368.795913 125.826778 
L 369.497094 125.819906 
L 370.899454 125.650897 
L 372.301815 125.519849 
L 375.106536 125.087752 
L 376.508896 124.942971 
L 377.210077 124.791103 
L 380.014798 124.604623 
L 382.118338 123.738231 
L 393.337223 123.062244 
L 394.739583 122.95243 
L 398.946665 122.829673 
L 401.751386 122.262092 
L 403.153747 122.152947 
L 403.854927 121.981344 
L 407.360828 121.772126 
L 408.062009 121.479852 
L 409.464369 121.347087 
L 410.165549 121.048681 
L 410.86673 121.012198 
L 412.26909 120.688153 
L 414.372631 120.42737 
L 415.073811 120.309223 
L 417.177352 120.216746 
L 418.579713 120.086853 
L 421.384434 119.629453 
L 423.487975 119.453167 
L 424.890335 119.292993 
L 425.591515 119.142323 
L 429.097417 118.948594 
L 429.798597 118.704487 
L 431.902138 118.599753 
L 434.706859 118.180098 
L 435.408039 118.179933 
L 436.109219 117.829827 
L 436.8104 117.635881 
L 437.51158 117.269641 
L 439.615121 117.061783 
L 441.017481 116.959475 
L 442.419842 116.873062 
L 443.822202 116.780205 
L 444.523383 116.582549 
L 448.730464 116.24732 
L 453.638726 115.739454 
L 454.339907 115.51537 
L 456.443447 115.229214 
L 457.144628 114.954016 
L 457.845808 114.953036 
L 459.248168 114.640434 
L 460.650529 114.489599 
L 461.351709 114.248162 
L 462.05289 114.238695 
L 462.75407 114.031351 
L 464.15643 113.961441 
L 464.857611 113.781865 
L 466.259971 113.687576 
L 466.961151 113.469957 
L 467.662332 112.833022 
L 469.765873 112.659531 
L 470.467053 112.397353 
L 471.869413 112.343276 
L 472.570594 111.960592 
L 473.271774 111.957832 
L 473.972954 111.691532 
L 474.674134 111.655734 
L 476.076495 111.423522 
L 476.777675 111.383746 
L 477.478856 111.069318 
L 478.180036 111.046301 
L 478.881216 110.864403 
L 479.582396 110.381677 
L 480.984757 110.260719 
L 482.387117 109.878581 
L 483.088298 109.877143 
L 483.789478 109.100509 
L 484.490658 108.973701 
L 485.191839 108.318499 
L 486.594199 108.222484 
L 487.295379 107.51864 
L 488.69774 107.392713 
L 491.502461 107.147324 
L 492.203641 106.76799 
L 493.606002 106.475225 
L 494.307182 106.453923 
L 495.008362 105.919905 
L 496.410723 105.840213 
L 497.111903 105.839747 
L 497.813083 105.575295 
L 498.514264 105.526621 
L 499.215444 104.466635 
L 499.916624 104.444262 
L 500.617805 103.952643 
L 502.721345 103.760745 
L 503.422526 103.187065 
L 504.123706 102.835564 
L 504.824886 100.985035 
L 505.526066 100.910947 
L 506.227247 100.054605 
L 506.928427 98.854342 
L 507.629607 94.840134 
L 508.330788 94.363472 
L 509.031968 93.675968 
L 510.434328 89.054872 
L 512.537869 85.793026 
L 513.239049 85.354795 
L 513.94023 85.160887 
L 514.64141 84.51632 
L 515.34259 83.340499 
L 516.043771 81.845371 
L 517.446131 80.854006 
L 519.549672 80.223073 
L 520.250852 80.190556 
L 520.952032 80.006617 
L 522.354393 79.846024 
L 523.055573 79.704613 
L 524.457934 77.763317 
L 525.159114 77.177507 
L 525.860294 77.169313 
L 526.561475 76.832531 
L 527.262655 75.9598 
L 527.963835 75.863344 
L 528.665015 74.794827 
L 529.366196 74.58182 
L 530.067376 73.54031 
L 530.768556 72.007897 
L 531.469737 71.782752 
L 532.170917 70.943214 
L 532.872097 67.543163 
L 533.573277 67.418571 
L 534.274458 67.166277 
L 534.975638 65.811643 
L 535.676818 65.379976 
L 535.676818 65.379976 
" style="fill:none;stroke:#2ca02c;stroke-linecap:square;"/>
   </g>
   <g id="line2d_15">
    <path clip-path="url(#p58bafad64e)" d="M 82.013182 176.873487 
L 82.714362 168.035735 
L 83.415542 167.359493 
L 84.116723 167.279404 
L 84.817903 164.437718 
L 85.519083 163.109408 
L 86.220263 160.57919 
L 86.921444 159.186925 
L 87.622624 157.369716 
L 88.323804 157.25745 
L 89.024985 157.026689 
L 89.726165 155.13432 
L 90.427345 154.884844 
L 91.128525 154.799553 
L 91.829706 153.929077 
L 93.232066 153.118879 
L 94.634427 153.009453 
L 95.335607 152.771771 
L 96.036787 152.758972 
L 96.737968 152.142191 
L 97.439148 152.041227 
L 98.140328 151.714407 
L 98.841508 150.816971 
L 101.646229 150.667411 
L 102.34741 150.490829 
L 103.04859 149.729224 
L 103.74977 149.379966 
L 107.255672 148.986294 
L 107.956852 148.735966 
L 112.865114 148.256306 
L 113.566294 147.76341 
L 114.968655 147.415577 
L 120.578097 146.781174 
L 123.382818 146.689868 
L 125.486359 146.582338 
L 126.187539 146.277292 
L 126.888719 146.237335 
L 127.5899 145.90469 
L 131.796981 145.316813 
L 132.498161 145.311162 
L 133.199342 145.085155 
L 136.705243 144.988208 
L 139.509964 144.416063 
L 143.015866 144.222661 
L 146.521767 143.897138 
L 149.326488 143.833629 
L 150.027668 143.624067 
L 152.131209 143.570024 
L 153.53357 143.502308 
L 156.338291 142.434088 
L 157.740651 142.232466 
L 158.441832 142.228981 
L 159.844192 141.990632 
L 164.752454 141.327762 
L 165.453634 141.092194 
L 166.855995 141.040775 
L 168.258355 140.701163 
L 168.959536 140.67577 
L 170.361896 140.278143 
L 171.764257 139.92064 
L 178.074879 138.957762 
L 178.776059 138.924263 
L 179.47724 138.714608 
L 183.684321 138.484763 
L 184.385502 138.227668 
L 187.190223 138.108166 
L 189.994944 137.975305 
L 191.397304 137.890135 
L 192.799665 137.359687 
L 194.903206 137.238367 
L 196.305566 137.102651 
L 197.707927 137.027036 
L 199.811468 136.77564 
L 207.524451 136.173471 
L 211.030352 135.9803 
L 211.731532 135.770726 
L 213.835073 135.670944 
L 214.536253 135.44542 
L 220.145696 135.054582 
L 221.548056 134.775107 
L 224.352777 134.577784 
L 225.755138 134.45983 
L 226.456318 134.300615 
L 228.559859 134.178447 
L 229.261039 133.889146 
L 232.06576 133.386266 
L 233.468121 133.269792 
L 235.571662 132.814277 
L 236.272842 132.744012 
L 237.675202 132.304001 
L 239.778743 132.216886 
L 245.388185 131.511109 
L 246.089366 131.322497 
L 247.491726 131.221864 
L 248.894087 131.079276 
L 253.101168 130.801837 
L 253.802349 130.664875 
L 255.905889 130.502611 
L 256.60707 130.310172 
L 259.411791 130.27861 
L 260.814151 129.979328 
L 261.515332 129.835482 
L 262.216512 129.833277 
L 262.917692 129.619805 
L 265.021233 129.435015 
L 266.423594 129.285276 
L 268.527134 129.161665 
L 269.228315 129.035883 
L 269.929495 128.778336 
L 271.331855 128.613716 
L 272.734216 128.464418 
L 274.136577 128.380612 
L 277.642478 128.022911 
L 279.044838 127.931442 
L 280.447199 127.647575 
L 281.148379 127.499475 
L 282.55074 127.424451 
L 285.355461 127.25252 
L 286.757821 126.84189 
L 290.263723 126.548853 
L 291.666083 126.243351 
L 293.769624 126.086812 
L 294.470804 125.662939 
L 295.873165 125.48044 
L 296.574345 125.379233 
L 297.275526 124.850016 
L 298.677886 124.773321 
L 299.379066 124.598962 
L 302.183787 124.481287 
L 304.287328 124.331679 
L 304.988509 124.097041 
L 305.689689 124.010088 
L 306.390869 123.719888 
L 307.79323 123.700763 
L 309.19559 123.433869 
L 312.701491 123.231927 
L 313.402672 123.051173 
L 314.103852 122.684847 
L 316.908573 122.472649 
L 317.609753 121.940284 
L 319.012114 121.653818 
L 319.713294 121.235721 
L 321.115655 121.06146 
L 321.816835 120.640642 
L 322.518015 120.601596 
L 323.219196 120.113284 
L 323.920376 119.978177 
L 324.621556 119.569604 
L 326.023917 119.485393 
L 328.828638 119.182636 
L 329.529818 119.110546 
L 330.230998 118.803647 
L 332.334539 118.698497 
L 333.7369 118.079052 
L 334.43808 118.048728 
L 335.13926 117.572185 
L 336.541621 116.994065 
L 337.242801 116.686316 
L 339.346342 116.34482 
L 341.449883 115.697934 
L 344.254604 115.552388 
L 344.955784 115.4909 
L 346.358145 115.108118 
L 349.162866 114.941153 
L 350.565226 114.535883 
L 351.967587 113.382599 
L 352.668767 113.023706 
L 354.071128 112.927838 
L 354.772308 112.765526 
L 357.577029 112.630924 
L 358.278209 112.415037 
L 361.08293 112.161864 
L 361.784111 111.988403 
L 363.887651 111.827953 
L 364.588832 111.63207 
L 365.991192 111.608206 
L 368.795913 111.270137 
L 370.198274 111.123898 
L 373.002995 110.55203 
L 373.704175 110.551515 
L 374.405355 110.374759 
L 377.911257 110.265359 
L 378.612437 110.112496 
L 380.014798 110.015076 
L 382.118338 109.692433 
L 383.520699 109.616931 
L 385.62424 109.440034 
L 387.0266 109.352065 
L 388.428961 109.19135 
L 391.233682 109.12883 
L 393.337223 108.824581 
L 394.739583 108.745318 
L 395.440764 108.443883 
L 396.843124 108.207605 
L 397.544304 107.941889 
L 403.153747 107.544702 
L 404.556107 107.485432 
L 406.659648 107.215503 
L 410.165549 107.08055 
L 410.86673 106.804696 
L 412.97027 106.689925 
L 415.073811 106.546238 
L 421.384434 106.243982 
L 422.085614 106.174495 
L 422.786794 105.905051 
L 424.189155 105.724277 
L 424.890335 105.564676 
L 428.396236 105.46224 
L 429.798597 104.987904 
L 433.304498 104.925023 
L 441.017481 104.36602 
L 442.419842 104.20268 
L 448.029284 103.931387 
L 448.730464 103.422538 
L 450.132825 103.270006 
L 457.144628 102.689205 
L 458.546988 102.536754 
L 459.949349 102.426205 
L 461.351709 101.983249 
L 463.45525 101.796709 
L 469.064692 101.19596 
L 470.467053 100.89499 
L 471.869413 100.64696 
L 473.972954 100.150172 
L 478.881216 99.477701 
L 479.582396 99.296519 
L 480.984757 99.165565 
L 482.387117 98.662617 
L 483.088298 98.264487 
L 484.490658 97.921165 
L 485.191839 97.517122 
L 485.893019 97.2966 
L 487.99656 97.268641 
L 488.69774 97.16562 
L 490.1001 96.255596 
L 491.502461 96.143883 
L 492.203641 95.679817 
L 492.904822 95.589764 
L 493.606002 95.083392 
L 494.307182 95.023249 
L 495.709543 94.735584 
L 496.410723 93.919823 
L 497.813083 93.774952 
L 498.514264 93.308212 
L 499.215444 93.275713 
L 500.617805 91.648787 
L 501.318985 91.091203 
L 503.422526 90.276247 
L 504.824886 90.122432 
L 505.526066 89.321234 
L 506.227247 88.961279 
L 506.928427 88.94008 
L 507.629607 88.154164 
L 508.330788 87.719826 
L 509.031968 87.70499 
L 509.733148 87.397751 
L 511.135509 87.205507 
L 511.836689 85.803365 
L 512.537869 85.442283 
L 513.94023 83.812413 
L 514.64141 83.457426 
L 515.34259 83.28312 
L 516.043771 82.917247 
L 516.744951 81.606583 
L 517.446131 81.061473 
L 518.147311 80.718696 
L 518.848492 79.951237 
L 519.549672 79.777031 
L 520.250852 79.379548 
L 520.952032 78.4943 
L 521.653213 77.950674 
L 522.354393 77.178184 
L 523.055573 76.899535 
L 523.756754 76.474756 
L 524.457934 75.587191 
L 525.159114 75.226181 
L 526.561475 73.289847 
L 527.262655 73.162748 
L 527.963835 72.556515 
L 528.665015 72.384664 
L 530.768556 70.693831 
L 531.469737 70.593407 
L 532.170917 68.106065 
L 533.573277 66.780706 
L 534.975638 64.506237 
L 535.676818 64.425688 
L 535.676818 64.425688 
" style="fill:none;stroke:#d62728;stroke-linecap:square;"/>
   </g>
   <g id="line2d_16">
    <path clip-path="url(#p58bafad64e)" d="M 82.013182 241.596517 
L 82.915098 238.98866 
L 83.817013 238.105873 
L 84.718929 235.867092 
L 85.620845 235.081901 
L 86.522761 234.517441 
L 87.424676 232.439952 
L 88.326592 230.698976 
L 89.228508 230.623241 
L 91.934255 229.565525 
L 94.640003 229.35635 
L 96.443834 228.705201 
L 97.34575 228.665556 
L 98.247666 228.274963 
L 99.149582 228.027527 
L 100.051497 227.385018 
L 100.953413 227.003809 
L 101.855329 226.067137 
L 102.757245 226.053537 
L 103.65916 225.277432 
L 105.462992 224.440808 
L 106.364908 224.329734 
L 107.266824 224.077074 
L 108.168739 223.945027 
L 109.972571 223.369243 
L 110.874487 222.999928 
L 112.678318 222.625329 
L 113.580234 222.175248 
L 114.48215 222.07885 
L 115.384066 221.618669 
L 117.187897 221.417205 
L 118.089813 220.881146 
L 119.893644 220.087801 
L 120.79556 219.553721 
L 121.697476 219.403044 
L 122.599392 218.947128 
L 123.501308 218.718853 
L 124.403223 218.663218 
L 125.305139 218.469559 
L 126.207055 218.023308 
L 129.814718 217.449858 
L 130.716634 215.506247 
L 132.520465 215.279609 
L 133.422381 213.742983 
L 136.128129 212.824578 
L 137.030044 211.522458 
L 137.93196 211.317109 
L 138.833876 211.284872 
L 140.637707 210.787325 
L 141.539623 207.816784 
L 142.441539 207.501005 
L 143.343455 206.482233 
L 144.245371 205.947307 
L 145.147286 204.802381 
L 146.049202 204.088069 
L 146.951118 203.157797 
L 148.754949 197.512942 
L 149.656865 195.750602 
L 150.558781 193.004182 
L 151.460697 189.149073 
L 152.362613 188.464336 
L 153.264528 187.026684 
L 154.166444 186.183659 
L 155.06836 185.76087 
L 155.970276 184.641104 
L 156.872191 184.585532 
L 157.774107 182.978241 
L 158.676023 182.754178 
L 159.577939 182.647154 
L 160.479855 182.246094 
L 161.38177 182.226205 
L 162.283686 181.537225 
L 163.185602 181.460802 
L 164.087518 181.148361 
L 164.989433 179.894917 
L 165.891349 179.692714 
L 166.793265 179.30722 
L 169.499012 178.779438 
L 170.400928 178.308434 
L 171.302844 178.225345 
L 172.20476 177.293962 
L 173.106675 177.170846 
L 174.008591 175.983064 
L 174.910507 175.853435 
L 175.812423 174.87209 
L 178.51817 174.586162 
L 181.223917 173.698494 
L 182.125833 173.09841 
L 183.027749 173.052956 
L 183.929665 172.137467 
L 185.733496 171.335415 
L 186.635412 171.306716 
L 187.537328 171.036021 
L 188.439244 170.500093 
L 189.341159 170.35913 
L 190.243075 169.990176 
L 191.144991 169.973223 
L 192.948823 168.590428 
L 193.850738 168.495485 
L 194.752654 168.224675 
L 195.65457 167.819984 
L 196.556486 167.252322 
L 197.458401 166.300839 
L 198.360317 165.752399 
L 199.262233 164.498064 
L 200.164149 164.456924 
L 201.066065 163.806728 
L 201.96798 163.617493 
L 202.869896 163.168258 
L 203.771812 162.315506 
L 204.673728 162.234418 
L 205.575643 160.98312 
L 208.281391 160.304615 
L 209.183307 159.192094 
L 210.085222 158.782037 
L 210.987138 158.162801 
L 211.889054 157.337051 
L 213.692885 156.183002 
L 214.594801 155.915265 
L 215.496717 155.903525 
L 217.300549 155.104271 
L 218.202464 153.955331 
L 219.10438 153.615622 
L 220.006296 153.611597 
L 221.810127 152.95768 
L 222.712043 152.900767 
L 223.613959 145.97878 
L 226.319706 143.720779 
L 228.123538 140.884093 
L 229.025454 138.294657 
L 229.927369 136.714689 
L 230.829285 134.603194 
L 231.731201 134.114411 
L 232.633117 133.174729 
L 233.535033 130.376208 
L 234.436948 130.209562 
L 236.24078 129.02451 
L 237.142696 128.852255 
L 239.848443 128.629444 
L 240.750359 127.322345 
L 244.358022 125.894057 
L 245.259938 125.797948 
L 246.161853 125.230704 
L 247.063769 124.846147 
L 247.965685 123.562032 
L 248.867601 123.418026 
L 249.769517 123.082365 
L 252.475264 122.726477 
L 254.279095 121.315079 
L 256.082927 121.023458 
L 256.984843 120.624923 
L 258.788674 120.584684 
L 260.592506 120.122332 
L 261.494422 119.937254 
L 262.396337 119.609338 
L 264.200169 119.533141 
L 265.102085 119.41542 
L 266.004001 118.991703 
L 267.807832 118.901598 
L 268.709748 118.72298 
L 269.611664 118.171435 
L 271.415495 118.052746 
L 272.317411 117.560089 
L 273.219327 116.88242 
L 275.023158 116.488498 
L 275.925074 115.901067 
L 278.630821 115.710764 
L 280.434653 115.413388 
L 281.336569 114.828305 
L 282.238485 114.680903 
L 284.944232 113.804977 
L 285.846148 112.830955 
L 286.748063 112.709943 
L 288.551895 111.811246 
L 289.453811 111.71265 
L 290.355727 111.425312 
L 291.257642 111.377589 
L 292.159558 111.178851 
L 294.865305 110.858276 
L 295.767221 110.089782 
L 296.669137 109.93681 
L 297.571053 109.444349 
L 298.472969 109.196577 
L 299.374884 108.766156 
L 302.982547 108.204143 
L 303.884463 108.138907 
L 304.786379 107.485744 
L 306.590211 106.620998 
L 307.492126 105.954891 
L 309.295958 105.205171 
L 312.001705 105.099859 
L 312.903621 105.004994 
L 313.805537 104.625661 
L 314.707453 104.442957 
L 316.511284 104.31992 
L 317.4132 104.019128 
L 318.315116 103.461058 
L 319.217031 103.074012 
L 320.118947 103.005019 
L 321.020863 102.321428 
L 321.922779 102.158347 
L 322.824695 101.821885 
L 324.628526 100.724337 
L 326.432358 100.550397 
L 330.941937 100.013576 
L 331.843852 99.669821 
L 332.745768 99.608261 
L 333.647684 99.272773 
L 334.5496 99.150731 
L 335.451515 98.875565 
L 336.353431 98.855109 
L 338.157263 98.484655 
L 339.059179 98.394737 
L 339.961094 97.825923 
L 340.86301 97.653335 
L 341.764926 97.343512 
L 343.568757 97.175767 
L 347.176421 96.076589 
L 348.078336 95.801147 
L 348.980252 95.096753 
L 349.882168 93.910537 
L 350.784084 93.889076 
L 352.587915 92.759506 
L 355.293663 92.63366 
L 357.097494 92.480634 
L 359.803241 91.090153 
L 362.508989 91.014148 
L 369.724315 90.039244 
L 371.528147 89.183789 
L 374.233894 89.050074 
L 376.037725 88.95458 
L 376.939641 88.610417 
L 377.841557 88.544773 
L 378.743473 88.349989 
L 382.351136 88.156993 
L 383.253052 87.5717 
L 385.056883 87.371206 
L 385.958799 87.120998 
L 391.370294 86.894133 
L 392.272209 86.626119 
L 393.174125 86.590771 
L 394.076041 86.383284 
L 395.879873 86.304134 
L 398.58562 85.587121 
L 399.487536 84.772932 
L 402.193283 84.374322 
L 408.506693 83.941924 
L 409.408609 83.697136 
L 411.212441 83.651681 
L 413.918188 83.084948 
L 415.72202 82.95135 
L 420.231599 82.63479 
L 421.133514 82.222407 
L 422.03543 82.210847 
L 422.937346 82.059014 
L 423.839262 81.783757 
L 429.250756 81.32982 
L 431.956504 81.132086 
L 433.760335 80.61601 
L 434.662251 80.602419 
L 435.564167 80.449189 
L 436.466083 79.812495 
L 438.269914 79.25476 
L 439.17183 79.250066 
L 440.073746 78.857401 
L 441.877577 78.57854 
L 442.779493 78.546165 
L 443.681409 78.168975 
L 445.48524 77.925164 
L 446.387156 77.626574 
L 448.190988 77.491568 
L 449.092903 77.402762 
L 449.994819 77.157716 
L 453.602482 76.874937 
L 454.504398 76.729675 
L 459.013977 76.54427 
L 459.915893 76.398185 
L 461.719724 76.272168 
L 463.523556 76.132931 
L 468.033135 75.731813 
L 468.935051 75.427214 
L 469.836966 74.840897 
L 475.248461 73.79177 
L 476.150377 73.616506 
L 477.954208 73.502696 
L 480.659956 72.752361 
L 481.561871 72.066746 
L 482.463787 72.036854 
L 483.365703 71.349896 
L 487.875282 71.002224 
L 488.777198 70.636005 
L 491.482945 70.369304 
L 492.384861 69.287781 
L 495.090608 69.081669 
L 496.89444 68.77988 
L 497.796356 68.755438 
L 498.698271 68.369553 
L 500.502103 68.033338 
L 502.305934 68.000844 
L 503.20785 67.567927 
L 504.109766 66.497685 
L 505.011682 65.961301 
L 505.913598 65.825187 
L 506.815513 64.303139 
L 507.717429 63.751047 
L 508.619345 62.924697 
L 509.521261 62.847796 
L 512.227008 61.799937 
L 514.03084 61.602934 
L 514.932755 61.429377 
L 515.834671 60.204833 
L 516.736587 59.736408 
L 517.638503 58.915216 
L 518.540418 58.701409 
L 519.442334 58.189072 
L 520.34425 58.075194 
L 521.246166 57.151345 
L 522.148082 55.084911 
L 523.049997 54.930483 
L 523.951913 54.433123 
L 524.853829 53.426123 
L 525.755745 51.110631 
L 526.65766 50.769129 
L 527.559576 49.207578 
L 528.461492 47.397141 
L 529.363408 46.805107 
L 530.265324 44.348287 
L 531.167239 40.823701 
L 532.069155 39.360775 
L 532.971071 37.396054 
L 533.872987 36.704943 
L 535.676818 29.526857 
L 535.676818 29.526857 
" style="fill:none;stroke:#9467bd;stroke-linecap:square;"/>
   </g>
   <g id="legend_1">
    <g id="patch_3">
     <path d="M 67.4934 58.741815 
L 308.798402 58.741815 
Q 311.130802 58.741815 311.130802 56.409415 
L 311.130802 27.086774 
Q 311.130802 24.754374 308.798402 24.754374 
L 67.4934 24.754374 
Q 65.161 24.754374 65.161 27.086774 
L 65.161 56.409415 
Q 65.161 58.741815 67.4934 58.741815 
z
" style="fill:#ffffff;opacity:0.8;stroke:#cccccc;stroke-linejoin:miter;"/>
    </g>
    <g id="line2d_17">
     <path d="M 69.8258 33.788779 
L 93.1498 33.788779 
" style="fill:none;stroke:#1f77b4;stroke-linecap:square;stroke-width:2;"/>
    </g>
    <g id="line2d_18"/>
    <g id="text_13">
     <!-- MARKET -->
     <defs>
      <path d="M 54.6875 0 
L 54.6875 45.90625 
Q 54.6875 48.390625 54.734375 50.96875 
Q 54.78125 53.5625 54.828125 55.71875 
Q 54.9375 58.203125 55.078125 60.546875 
Q 54.546875 58.0625 53.90625 55.609375 
Q 53.90625 55.609375 52.734375 51.171875 
Q 52.15625 48.78125 51.515625 46.875 
L 36.96875 0 
L 31.59375 0 
L 16.796875 46.875 
Q 16.546875 47.609375 16.3125 48.578125 
L 15.765625 50.6875 
L 15.140625 52.9375 
L 14.546875 55.171875 
Q 13.875 57.765625 13.234375 60.546875 
Q 13.28125 57.8125 13.375 55.125 
Q 13.484375 52.828125 13.5 50.3125 
Q 13.53125 47.796875 13.53125 45.90625 
L 13.53125 0 
L 6.734375 0 
L 6.734375 68.796875 
L 16.796875 68.796875 
L 31.78125 21.09375 
Q 32.078125 20.125 32.46875 18.578125 
Q 32.859375 17.046875 33.21875 15.421875 
Q 33.59375 13.8125 33.890625 12.375 
Q 34.1875 10.9375 34.328125 10.15625 
Q 34.421875 10.9375 34.734375 12.40625 
Q 35.0625 13.875 35.5 15.484375 
L 36.328125 18.609375 
Q 36.71875 20.125 37.0625 21.09375 
L 51.765625 68.796875 
L 61.578125 68.796875 
L 61.578125 0 
z
" id="LiberationSansNarrow-77"/>
      <path d="M 46.734375 0 
L 40.28125 20.125 
L 14.546875 20.125 
L 8.109375 0 
L 0.140625 0 
L 23.1875 68.796875 
L 31.890625 68.796875 
L 54.546875 0 
z
M 30.765625 50.09375 
Q 30.125 52.046875 29.546875 54.046875 
L 28.515625 57.71875 
L 27.734375 60.453125 
Q 27.4375 61.53125 27.4375 61.765625 
Q 27.34375 61.53125 27.078125 60.40625 
Q 26.8125 59.28125 26.375 57.625 
L 25.296875 53.953125 
L 24.125 50 
L 16.890625 27.390625 
L 37.984375 27.390625 
z
" id="LiberationSansNarrow-65"/>
      <path d="M 46.578125 0 
L 31.9375 28.5625 
L 14.359375 28.5625 
L 14.359375 0 
L 6.734375 0 
L 6.734375 68.796875 
L 33.25 68.796875 
Q 38.03125 68.796875 41.734375 67.453125 
Q 45.453125 66.109375 47.96875 63.5625 
Q 50.484375 61.03125 51.796875 57.375 
Q 53.125 53.71875 53.125 49.125 
Q 53.125 45.84375 52.34375 42.671875 
Q 51.5625 39.5 49.875 36.859375 
Q 48.1875 34.234375 45.59375 32.328125 
Q 43.015625 30.421875 39.359375 29.640625 
L 55.375 0 
z
M 45.453125 49.03125 
Q 45.453125 52.15625 44.578125 54.4375 
Q 43.703125 56.734375 42.015625 58.265625 
Q 40.328125 59.8125 37.9375 60.5625 
Q 35.546875 61.328125 32.46875 61.328125 
L 14.359375 61.328125 
L 14.359375 35.9375 
L 32.8125 35.9375 
Q 36.078125 35.9375 38.5 36.9375 
Q 40.921875 37.9375 42.453125 39.6875 
Q 44 41.453125 44.71875 43.84375 
Q 45.453125 46.234375 45.453125 49.03125 
z
" id="LiberationSansNarrow-82"/>
      <path d="M 44.28125 0 
L 21.734375 33.203125 
L 14.359375 26.375 
L 14.359375 0 
L 6.734375 0 
L 6.734375 68.796875 
L 14.359375 68.796875 
L 14.359375 34.328125 
L 41.546875 68.796875 
L 50.59375 68.796875 
L 26.5625 38.921875 
L 53.765625 0 
z
" id="LiberationSansNarrow-75"/>
      <path d="M 6.734375 0 
L 6.734375 68.796875 
L 49.515625 68.796875 
L 49.515625 61.1875 
L 14.359375 61.1875 
L 14.359375 39.109375 
L 47.125 39.109375 
L 47.125 31.59375 
L 14.359375 31.59375 
L 14.359375 7.625 
L 51.171875 7.625 
L 51.171875 0 
z
" id="LiberationSansNarrow-69"/>
      <path d="M 28.8125 61.1875 
L 28.8125 0 
L 21.234375 0 
L 21.234375 61.1875 
L 1.859375 61.1875 
L 1.859375 68.796875 
L 48.1875 68.796875 
L 48.1875 61.1875 
z
" id="LiberationSansNarrow-84"/>
     </defs>
     <g transform="translate(102.4794 37.870479)scale(0.11662 -0.11662)">
      <use xlink:href="#LiberationSansNarrow-77"/>
      <use x="68.310547" xlink:href="#LiberationSansNarrow-65"/>
      <use x="122.998047" xlink:href="#LiberationSansNarrow-82"/>
      <use x="182.177734" xlink:href="#LiberationSansNarrow-75"/>
      <use x="236.865234" xlink:href="#LiberationSansNarrow-69"/>
      <use x="291.552734" xlink:href="#LiberationSansNarrow-84"/>
     </g>
    </g>
    <g id="line2d_19">
     <path d="M 69.8258 47.57545 
L 93.1498 47.57545 
" style="fill:none;stroke:#ff7f0e;stroke-linecap:square;"/>
    </g>
    <g id="line2d_20"/>
    <g id="text_14">
     <!-- Hop -->
     <defs>
      <path d="M 44.875 0 
L 44.875 31.890625 
L 14.359375 31.890625 
L 14.359375 0 
L 6.734375 0 
L 6.734375 68.796875 
L 14.359375 68.796875 
L 14.359375 39.703125 
L 44.875 39.703125 
L 44.875 68.796875 
L 52.484375 68.796875 
L 52.484375 0 
z
" id="LiberationSansNarrow-72"/>
      <path d="M 42.140625 26.46875 
Q 42.140625 12.59375 37.125 5.796875 
Q 32.125 -0.984375 22.609375 -0.984375 
Q 18.0625 -0.984375 14.515625 0.671875 
Q 10.984375 2.34375 8.515625 5.765625 
Q 6.0625 9.1875 4.765625 14.328125 
Q 3.46875 19.484375 3.46875 26.46875 
Q 3.46875 53.8125 22.859375 53.8125 
Q 27.875 53.8125 31.5625 52.09375 
Q 35.25 50.390625 37.59375 46.96875 
Q 39.9375 43.5625 41.03125 38.421875 
Q 42.140625 33.296875 42.140625 26.46875 
z
M 34.578125 26.46875 
Q 34.578125 32.625 33.8125 36.625 
Q 33.0625 40.625 31.546875 43.015625 
Q 30.03125 45.40625 27.859375 46.359375 
Q 25.6875 47.3125 23 47.3125 
Q 20.21875 47.3125 17.984375 46.3125 
Q 15.765625 45.3125 14.203125 42.890625 
Q 12.640625 40.484375 11.828125 36.46875 
Q 11.03125 32.46875 11.03125 26.46875 
Q 11.03125 20.3125 11.90625 16.28125 
Q 12.796875 12.25 14.328125 9.859375 
Q 15.875 7.46875 17.96875 6.484375 
Q 20.0625 5.515625 22.5625 5.515625 
Q 25.34375 5.515625 27.5625 6.46875 
Q 29.78125 7.421875 31.34375 9.8125 
Q 32.90625 12.203125 33.734375 16.25 
Q 34.578125 20.3125 34.578125 26.46875 
z
" id="LiberationSansNarrow-111"/>
      <path d="M 42.140625 26.65625 
Q 42.140625 20.65625 41.359375 15.578125 
Q 40.578125 10.5 38.6875 6.828125 
Q 36.8125 3.171875 33.765625 1.09375 
Q 30.71875 -0.984375 26.21875 -0.984375 
Q 21.578125 -0.984375 18.078125 1.171875 
Q 14.59375 3.328125 12.796875 8.203125 
L 12.546875 8.203125 
Q 12.59375 8.109375 12.609375 7.328125 
Q 12.640625 6.546875 12.671875 5.375 
Q 12.703125 4.203125 12.71875 2.75 
Q 12.75 1.3125 12.75 -0.09375 
L 12.75 -20.75 
L 5.515625 -20.75 
L 5.515625 42.046875 
Q 5.515625 43.953125 5.484375 45.703125 
Q 5.46875 47.46875 5.4375 48.90625 
Q 5.421875 50.34375 5.375 51.359375 
Q 5.328125 52.390625 5.28125 52.828125 
L 12.25 52.828125 
Q 12.3125 52.6875 12.359375 51.8125 
L 12.5 49.703125 
Q 12.546875 48.4375 12.59375 47.015625 
Q 12.640625 45.609375 12.640625 44.34375 
L 12.796875 44.34375 
Q 13.765625 46.875 15.0625 48.65625 
Q 16.359375 50.4375 18.015625 51.578125 
Q 19.671875 52.734375 21.671875 53.25 
Q 23.6875 53.765625 26.21875 53.765625 
Q 30.71875 53.765625 33.765625 51.8125 
Q 36.8125 49.859375 38.6875 46.3125 
Q 40.578125 42.78125 41.359375 37.765625 
Q 42.140625 32.765625 42.140625 26.65625 
z
M 34.578125 26.46875 
Q 34.578125 31.34375 34.109375 35.15625 
Q 33.640625 38.96875 32.4375 41.59375 
Q 31.25 44.234375 29.296875 45.59375 
Q 27.34375 46.96875 24.359375 46.96875 
Q 21.96875 46.96875 19.84375 46.140625 
Q 17.71875 45.3125 16.125 42.96875 
Q 14.546875 40.625 13.640625 36.5 
Q 12.75 32.375 12.75 25.78125 
Q 12.75 20.171875 13.5 16.28125 
Q 14.265625 12.40625 15.71875 10.015625 
Q 17.1875 7.625 19.328125 6.5625 
Q 21.484375 5.515625 24.3125 5.515625 
Q 27.34375 5.515625 29.296875 6.921875 
Q 31.25 8.34375 32.4375 11.03125 
Q 33.640625 13.71875 34.109375 17.59375 
Q 34.578125 21.484375 34.578125 26.46875 
z
" id="LiberationSansNarrow-112"/>
     </defs>
     <g transform="translate(102.4794 51.65715)scale(0.11662 -0.11662)">
      <use xlink:href="#LiberationSansNarrow-72"/>
      <use x="59.179688" xlink:href="#LiberationSansNarrow-111"/>
      <use x="104.785156" xlink:href="#LiberationSansNarrow-112"/>
     </g>
    </g>
    <g id="line2d_21">
     <path d="M 153.985352 33.788779 
L 177.309352 33.788779 
" style="fill:none;stroke:#2ca02c;stroke-linecap:square;"/>
    </g>
    <g id="line2d_22"/>
    <g id="text_15">
     <!-- Lpe -->
     <defs>
      <path d="M 6.734375 0 
L 6.734375 68.796875 
L 14.359375 68.796875 
L 14.359375 7.625 
L 42.875 7.625 
L 42.875 0 
z
" id="LiberationSansNarrow-76"/>
      <path d="M 10.6875 24.5625 
Q 10.6875 20.40625 11.5625 16.90625 
Q 12.453125 13.421875 13.90625 10.90625 
Q 15.375 8.40625 17.640625 7 
Q 19.921875 5.609375 23.140625 5.609375 
Q 27.828125 5.609375 30.65625 7.90625 
Q 33.5 10.203125 34.46875 13.71875 
L 40.828125 11.53125 
Q 40.140625 9.328125 38.921875 7.109375 
Q 37.703125 4.890625 35.640625 3.09375 
Q 33.59375 1.3125 30.53125 0.15625 
Q 27.484375 -0.984375 23.140625 -0.984375 
Q 13.53125 -0.984375 8.5 6 
Q 3.46875 12.984375 3.46875 26.765625 
Q 3.46875 34.1875 5 39.328125 
Q 6.546875 44.484375 9.171875 47.703125 
Q 11.8125 50.921875 15.328125 52.359375 
Q 18.84375 53.8125 22.859375 53.8125 
Q 28.328125 53.8125 31.984375 51.65625 
Q 39.0625 47.515625 41.015625 36.8125 
Q 41.9375 31.6875 41.9375 25.734375 
L 41.9375 24.5625 
z
M 34.71875 31.296875 
Q 34.71875 40.140625 31.421875 43.71875 
Q 28.125 47.3125 22.75 47.3125 
Q 18.953125 47.3125 15.328125 44.09375 
Q 10.9375 40.328125 10.6875 31.296875 
z
" id="LiberationSansNarrow-101"/>
     </defs>
     <g transform="translate(186.638952 37.870479)scale(0.11662 -0.11662)">
      <use xlink:href="#LiberationSansNarrow-76"/>
      <use x="45.605469" xlink:href="#LiberationSansNarrow-112"/>
      <use x="91.210938" xlink:href="#LiberationSansNarrow-101"/>
     </g>
    </g>
    <g id="line2d_23">
     <path d="M 153.985352 47.57545 
L 177.309352 47.57545 
" style="fill:none;stroke:#d62728;stroke-linecap:square;"/>
    </g>
    <g id="line2d_24"/>
    <g id="text_16">
     <!-- Lcap Lpe -->
     <defs>
      <path d="M 11.03125 26.65625 
Q 11.03125 22.125 11.5625 18.3125 
Q 12.109375 14.5 13.375 11.734375 
Q 14.65625 8.984375 16.75 7.46875 
Q 18.84375 5.953125 21.96875 5.953125 
Q 25.828125 5.953125 28.390625 8.484375 
Q 30.953125 11.03125 31.546875 16.3125 
L 38.875 15.71875 
Q 38.53125 12.453125 37.296875 9.421875 
Q 36.078125 6.390625 34.03125 4.09375 
Q 31.984375 1.8125 29 0.40625 
Q 26.03125 -0.984375 22.171875 -0.984375 
Q 17.09375 -0.984375 13.5 1.109375 
Q 9.90625 3.21875 7.6875 6.90625 
Q 5.46875 10.59375 4.46875 15.59375 
Q 3.46875 20.609375 3.46875 26.46875 
Q 3.46875 31.78125 4.203125 35.859375 
Q 4.9375 39.9375 6.21875 42.984375 
Q 7.515625 46.046875 9.265625 48.125 
Q 11.03125 50.203125 13.109375 51.4375 
Q 15.1875 52.6875 17.453125 53.25 
Q 19.734375 53.8125 22.078125 53.8125 
Q 25.734375 53.8125 28.5625 52.59375 
Q 31.390625 51.375 33.46875 49.25 
Q 35.546875 47.125 36.8125 44.234375 
Q 38.09375 41.359375 38.625 38.03125 
L 31.203125 37.359375 
Q 30.671875 41.75 28.375 44.328125 
Q 26.078125 46.921875 21.875 46.921875 
Q 18.796875 46.921875 16.71875 45.671875 
Q 14.65625 44.4375 13.375 41.921875 
Q 12.109375 39.40625 11.5625 35.59375 
Q 11.03125 31.78125 11.03125 26.65625 
z
" id="LiberationSansNarrow-99"/>
      <path d="M 16.546875 -0.984375 
Q 10.015625 -0.984375 6.734375 3.21875 
Q 3.46875 7.421875 3.46875 14.75 
Q 3.46875 19.96875 5.09375 23.3125 
Q 6.734375 26.65625 9.34375 28.5625 
Q 11.96875 30.46875 15.328125 31.203125 
Q 18.703125 31.9375 22.171875 32.03125 
L 31.9375 32.234375 
L 31.9375 35.109375 
Q 31.9375 38.375 31.375 40.671875 
Q 30.8125 42.96875 29.640625 44.375 
Q 28.46875 45.796875 26.734375 46.453125 
Q 25 47.125 22.609375 47.125 
Q 20.515625 47.125 18.84375 46.75 
Q 17.1875 46.390625 15.9375 45.4375 
Q 14.703125 44.484375 13.9375 42.84375 
Q 13.1875 41.21875 12.9375 38.71875 
L 5.421875 39.546875 
Q 5.8125 42.671875 6.9375 45.28125 
Q 8.0625 47.90625 10.109375 49.796875 
Q 12.15625 51.703125 15.25 52.75 
Q 18.359375 53.8125 22.796875 53.8125 
Q 30.953125 53.8125 35.078125 49.234375 
Q 39.203125 44.671875 39.203125 36.03125 
L 39.203125 13.28125 
Q 39.203125 9.375 40.03125 7.390625 
Q 40.875 5.421875 43.265625 5.421875 
Q 43.84375 5.421875 44.453125 5.515625 
Q 45.0625 5.609375 45.609375 5.765625 
L 45.609375 0.296875 
Q 44.234375 -0.09375 42.890625 -0.28125 
Q 41.546875 -0.484375 40.046875 -0.484375 
Q 37.984375 -0.484375 36.515625 0.171875 
Q 35.0625 0.828125 34.15625 2.171875 
Q 33.25 3.515625 32.765625 5.484375 
Q 32.28125 7.46875 32.125 10.109375 
L 31.9375 10.109375 
Q 30.765625 7.5625 29.375 5.515625 
Q 27.984375 3.46875 26.140625 2.03125 
Q 24.3125 0.59375 21.9375 -0.1875 
Q 19.578125 -0.984375 16.546875 -0.984375 
z
M 18.21875 5.609375 
Q 21.6875 5.609375 24.25 7.140625 
Q 26.8125 8.6875 28.515625 11.078125 
Q 30.21875 13.484375 31.078125 16.3125 
Q 31.9375 19.140625 31.9375 21.734375 
L 31.9375 26.078125 
L 24.03125 25.875 
Q 21.390625 25.828125 19 25.40625 
Q 16.609375 25 14.8125 23.78125 
Q 13.03125 22.5625 11.953125 20.359375 
Q 10.890625 18.171875 10.890625 14.59375 
Q 10.890625 10.296875 12.796875 7.953125 
Q 14.703125 5.609375 18.21875 5.609375 
z
" id="LiberationSansNarrow-97"/>
     </defs>
     <g transform="translate(186.638952 51.65715)scale(0.11662 -0.11662)">
      <use xlink:href="#LiberationSansNarrow-76"/>
      <use x="45.605469" xlink:href="#LiberationSansNarrow-99"/>
      <use x="86.621094" xlink:href="#LiberationSansNarrow-97"/>
      <use x="132.226562" xlink:href="#LiberationSansNarrow-112"/>
      <use x="177.832031" xlink:href="#LiberationSansNarrow-32"/>
      <use x="200.634766" xlink:href="#LiberationSansNarrow-76"/>
      <use x="246.240234" xlink:href="#LiberationSansNarrow-112"/>
      <use x="291.845703" xlink:href="#LiberationSansNarrow-101"/>
     </g>
    </g>
    <g id="line2d_25">
     <path d="M 237.656558 33.788779 
L 260.980558 33.788779 
" style="fill:none;stroke:#9467bd;stroke-linecap:square;"/>
    </g>
    <g id="line2d_26"/>
    <g id="text_17">
     <!-- Lpb Hop -->
     <defs>
      <path d="M 42.140625 26.65625 
Q 42.140625 -0.984375 26.21875 -0.984375 
Q 21.296875 -0.984375 18.046875 1.1875 
Q 14.796875 3.375 12.75 8.203125 
L 12.640625 8.203125 
Q 12.640625 6.9375 12.59375 5.5625 
Q 12.546875 4.203125 12.5 3.03125 
L 12.359375 1.03125 
Q 12.3125 0.203125 12.25 0 
L 5.28125 0 
Q 5.328125 0.4375 5.375 1.484375 
Q 5.421875 2.546875 5.4375 4 
Q 5.46875 5.46875 5.484375 7.21875 
Q 5.515625 8.984375 5.515625 10.890625 
L 5.515625 72.46875 
L 12.75 72.46875 
L 12.75 51.8125 
Q 12.75 50.34375 12.71875 49 
Q 12.703125 47.65625 12.640625 46.625 
Q 12.59375 45.40625 12.546875 44.34375 
L 12.75 44.34375 
Q 14.75 49.421875 18.046875 51.609375 
Q 21.34375 53.8125 26.21875 53.8125 
Q 34.421875 53.8125 38.28125 47.0625 
Q 42.140625 40.328125 42.140625 26.65625 
z
M 34.578125 26.375 
Q 34.578125 31.84375 34.03125 35.75 
Q 33.5 39.65625 32.25 42.15625 
Q 31 44.671875 29.078125 45.84375 
Q 27.15625 47.015625 24.359375 47.015625 
Q 21.53125 47.015625 19.359375 45.890625 
Q 17.1875 44.78125 15.71875 42.28125 
Q 14.265625 39.796875 13.5 35.734375 
Q 12.75 31.6875 12.75 25.828125 
Q 12.75 20.171875 13.5 16.3125 
Q 14.265625 12.453125 15.71875 10.03125 
Q 17.1875 7.625 19.328125 6.5625 
Q 21.484375 5.515625 24.3125 5.515625 
Q 26.953125 5.515625 28.875 6.640625 
Q 30.8125 7.765625 32.078125 10.25 
Q 33.34375 12.75 33.953125 16.71875 
Q 34.578125 20.703125 34.578125 26.375 
z
" id="LiberationSansNarrow-98"/>
     </defs>
     <g transform="translate(270.310158 37.870479)scale(0.11662 -0.11662)">
      <use xlink:href="#LiberationSansNarrow-76"/>
      <use x="45.605469" xlink:href="#LiberationSansNarrow-112"/>
      <use x="91.210938" xlink:href="#LiberationSansNarrow-98"/>
      <use x="136.816406" xlink:href="#LiberationSansNarrow-32"/>
      <use x="159.619141" xlink:href="#LiberationSansNarrow-72"/>
      <use x="218.798828" xlink:href="#LiberationSansNarrow-111"/>
      <use x="264.404297" xlink:href="#LiberationSansNarrow-112"/>
     </g>
    </g>
   </g>
  </g>
 </g>
 <defs>
  <clipPath id="p58bafad64e">
   <rect height="233.276626" width="499.03" x="59.33" y="18.923374"/>
  </clipPath>
 </defs>
</svg>
