<?xml version="1.0" encoding="utf-8" standalone="no"?>
<!DOCTYPE svg PUBLIC "-//W3C//DTD SVG 1.1//EN"
  "http://www.w3.org/Graphics/SVG/1.1/DTD/svg11.dtd">
<!-- Created with matplotlib (https://matplotlib.org/) -->
<svg height="288pt" version="1.1" viewBox="0 0 576 288" width="576pt" xmlns="http://www.w3.org/2000/svg" xmlns:xlink="http://www.w3.org/1999/xlink">
 <defs>
  <style type="text/css">
*{stroke-linecap:butt;stroke-linejoin:round;}
  </style>
 </defs>
 <g id="figure_1">
  <g id="patch_1">
   <path d="M 0 288 
L 576 288 
L 576 0 
L 0 0 
z
" style="fill:#ffffff;"/>
  </g>
  <g id="axes_1">
   <g id="patch_2">
    <path d="M 52.58 252.2 
L 558.36 252.2 
L 558.36 17.64 
L 52.58 17.64 
z
" style="fill:#ffffff;"/>
   </g>
   <g id="matplotlib.axis_1">
    <g id="xtick_1">
     <g id="line2d_1">
      <path clip-path="url(#pd438b0b6ba)" d="M 75.57 252.2 
L 75.57 17.64 
" style="fill:none;stroke:#b0b0b0;stroke-dasharray:1.48,0.64;stroke-dashoffset:0;stroke-width:0.4;"/>
     </g>
     <g id="text_1">
      <!-- 0.0 -->
      <defs>
       <path d="M 42.390625 34.421875 
Q 42.390625 24.515625 40.84375 17.75 
Q 39.3125 10.984375 36.640625 6.8125 
Q 33.984375 2.640625 30.390625 0.828125 
Q 26.8125 -0.984375 22.703125 -0.984375 
Q 18.609375 -0.984375 15.03125 0.828125 
Q 11.46875 2.640625 8.828125 6.78125 
Q 6.203125 10.9375 4.703125 17.703125 
Q 3.21875 24.46875 3.21875 34.421875 
Q 3.21875 44.828125 4.703125 51.640625 
Q 6.203125 58.453125 8.828125 62.5 
Q 11.46875 66.546875 15.078125 68.1875 
Q 18.703125 69.828125 22.953125 69.828125 
Q 27 69.828125 30.53125 68.1875 
Q 34.078125 66.546875 36.71875 62.5 
Q 39.359375 58.453125 40.875 51.640625 
Q 42.390625 44.828125 42.390625 34.421875 
z
M 35.0625 34.421875 
Q 35.0625 42.625 34.28125 48.0625 
Q 33.5 53.515625 31.9375 56.765625 
Q 30.375 60.015625 28.09375 61.359375 
Q 25.828125 62.703125 22.953125 62.703125 
Q 19.921875 62.703125 17.578125 61.328125 
Q 15.234375 59.96875 13.671875 56.71875 
Q 12.109375 53.46875 11.296875 48.015625 
Q 10.5 42.578125 10.5 34.421875 
Q 10.5 26.515625 11.296875 21.09375 
Q 12.109375 15.671875 13.6875 12.375 
Q 15.28125 9.078125 17.578125 7.640625 
Q 19.875 6.203125 22.796875 6.203125 
Q 25.640625 6.203125 27.90625 7.640625 
Q 30.171875 9.078125 31.75 12.375 
Q 33.34375 15.671875 34.203125 21.09375 
Q 35.0625 26.515625 35.0625 34.421875 
z
" id="LiberationSansNarrow-48"/>
       <path d="M 7.46875 0 
L 7.46875 10.6875 
L 15.328125 10.6875 
L 15.328125 0 
z
" id="LiberationSansNarrow-46"/>
      </defs>
      <g transform="translate(67.588906 269.345625)scale(0.14 -0.14)">
       <use xlink:href="#LiberationSansNarrow-48"/>
       <use x="45.605469" xlink:href="#LiberationSansNarrow-46"/>
       <use x="68.408203" xlink:href="#LiberationSansNarrow-48"/>
      </g>
     </g>
    </g>
    <g id="xtick_2">
     <g id="line2d_2">
      <path clip-path="url(#pd438b0b6ba)" d="M 167.53 252.2 
L 167.53 17.64 
" style="fill:none;stroke:#b0b0b0;stroke-dasharray:1.48,0.64;stroke-dashoffset:0;stroke-width:0.4;"/>
     </g>
     <g id="text_2">
      <!-- 0.2 -->
      <defs>
       <path d="M 4.109375 0 
L 4.109375 6.203125 
Q 6.15625 11.921875 9.109375 16.28125 
Q 12.0625 20.65625 15.3125 24.1875 
Q 18.5625 27.734375 21.734375 30.765625 
Q 24.90625 33.796875 27.46875 36.8125 
Q 30.03125 39.84375 31.609375 43.15625 
Q 33.203125 46.484375 33.203125 50.6875 
Q 33.203125 53.609375 32.46875 55.828125 
Q 31.734375 58.0625 30.390625 59.5625 
Q 29.046875 61.078125 27.140625 61.828125 
Q 25.25 62.59375 22.90625 62.59375 
Q 20.75 62.59375 18.84375 61.859375 
Q 16.9375 61.140625 15.453125 59.671875 
Q 13.96875 58.203125 13.03125 56.03125 
Q 12.109375 53.859375 11.8125 50.984375 
L 4.4375 51.8125 
Q 4.78125 55.515625 6.125 58.78125 
Q 7.46875 62.0625 9.78125 64.53125 
Q 12.109375 67 15.359375 68.40625 
Q 18.609375 69.828125 22.90625 69.828125 
Q 27.09375 69.828125 30.390625 68.609375 
Q 33.6875 67.390625 35.9375 64.984375 
Q 38.1875 62.59375 39.40625 59.078125 
Q 40.625 55.5625 40.625 50.984375 
Q 40.625 47.515625 39.59375 44.390625 
Q 38.578125 41.265625 36.859375 38.421875 
Q 35.15625 35.59375 32.90625 32.953125 
Q 30.671875 30.328125 28.21875 27.828125 
L 23.296875 22.859375 
Q 20.796875 20.359375 18.625 17.859375 
Q 16.453125 15.375 14.734375 12.8125 
Q 13.03125 10.25 12.0625 7.46875 
L 41.5 7.46875 
L 41.5 0 
z
" id="LiberationSansNarrow-50"/>
      </defs>
      <g transform="translate(159.548906 269.345625)scale(0.14 -0.14)">
       <use xlink:href="#LiberationSansNarrow-48"/>
       <use x="45.605469" xlink:href="#LiberationSansNarrow-46"/>
       <use x="68.408203" xlink:href="#LiberationSansNarrow-50"/>
      </g>
     </g>
    </g>
    <g id="xtick_3">
     <g id="line2d_3">
      <path clip-path="url(#pd438b0b6ba)" d="M 259.49 252.2 
L 259.49 17.64 
" style="fill:none;stroke:#b0b0b0;stroke-dasharray:1.48,0.64;stroke-dashoffset:0;stroke-width:0.4;"/>
     </g>
     <g id="text_3">
      <!-- 0.4 -->
      <defs>
       <path d="M 35.25 15.578125 
L 35.25 0 
L 28.46875 0 
L 28.46875 15.578125 
L 1.90625 15.578125 
L 1.90625 22.40625 
L 27.6875 68.796875 
L 35.25 68.796875 
L 35.25 22.515625 
L 43.21875 22.515625 
L 43.21875 15.578125 
z
M 28.46875 58.890625 
Q 28.375 58.640625 28.03125 57.90625 
L 27.34375 56.34375 
L 26.5625 54.59375 
Q 26.125 53.65625 25.78125 53.078125 
L 11.328125 27.09375 
Q 11.140625 26.703125 10.75 26.078125 
L 9.96875 24.8125 
L 9.1875 23.484375 
Q 8.796875 22.859375 8.546875 22.515625 
L 28.46875 22.515625 
z
" id="LiberationSansNarrow-52"/>
      </defs>
      <g transform="translate(251.508906 269.345625)scale(0.14 -0.14)">
       <use xlink:href="#LiberationSansNarrow-48"/>
       <use x="45.605469" xlink:href="#LiberationSansNarrow-46"/>
       <use x="68.408203" xlink:href="#LiberationSansNarrow-52"/>
      </g>
     </g>
    </g>
    <g id="xtick_4">
     <g id="line2d_4">
      <path clip-path="url(#pd438b0b6ba)" d="M 351.45 252.2 
L 351.45 17.64 
" style="fill:none;stroke:#b0b0b0;stroke-dasharray:1.48,0.64;stroke-dashoffset:0;stroke-width:0.4;"/>
     </g>
     <g id="text_4">
      <!-- 0.6 -->
      <defs>
       <path d="M 42 22.515625 
Q 42 17.328125 40.828125 13 
Q 39.65625 8.6875 37.359375 5.578125 
Q 35.0625 2.484375 31.640625 0.75 
Q 28.21875 -0.984375 23.78125 -0.984375 
Q 18.84375 -0.984375 15.15625 1.3125 
Q 11.46875 3.609375 9.03125 7.921875 
Q 6.59375 12.25 5.375 18.53125 
Q 4.15625 24.8125 4.15625 32.8125 
Q 4.15625 42 5.546875 48.921875 
Q 6.9375 55.859375 9.515625 60.5 
Q 12.109375 65.140625 15.859375 67.484375 
Q 19.625 69.828125 24.359375 69.828125 
Q 27.25 69.828125 29.765625 69.09375 
Q 32.28125 68.359375 34.328125 66.71875 
Q 36.375 65.09375 37.9375 62.40625 
Q 39.5 59.71875 40.4375 55.8125 
L 33.546875 54.296875 
Q 32.421875 58.734375 29.953125 60.71875 
Q 27.484375 62.703125 24.265625 62.703125 
Q 21.296875 62.703125 18.890625 60.984375 
Q 16.5 59.28125 14.8125 55.875 
Q 13.140625 52.484375 12.234375 47.359375 
Q 11.328125 42.234375 11.328125 35.40625 
Q 13.28125 39.84375 16.84375 42.15625 
Q 20.40625 44.484375 25.046875 44.484375 
Q 28.90625 44.484375 32 42.96875 
Q 35.109375 41.453125 37.328125 38.59375 
Q 39.546875 35.75 40.765625 31.671875 
Q 42 27.59375 42 22.515625 
z
M 34.671875 22.125 
Q 34.671875 25.6875 33.953125 28.5625 
Q 33.25 31.453125 31.8125 33.46875 
Q 30.375 35.5 28.25 36.59375 
Q 26.125 37.703125 23.296875 37.703125 
Q 21.34375 37.703125 19.328125 36.984375 
Q 17.328125 36.28125 15.71875 34.6875 
Q 14.109375 33.109375 13.078125 30.515625 
Q 12.0625 27.9375 12.0625 24.21875 
Q 12.0625 20.40625 12.859375 17.109375 
Q 13.671875 13.8125 15.15625 11.375 
Q 16.65625 8.9375 18.78125 7.515625 
Q 20.90625 6.109375 23.53125 6.109375 
Q 26.125 6.109375 28.203125 7.203125 
Q 30.28125 8.296875 31.71875 10.375 
Q 33.15625 12.453125 33.90625 15.421875 
Q 34.671875 18.40625 34.671875 22.125 
z
" id="LiberationSansNarrow-54"/>
      </defs>
      <g transform="translate(343.468906 269.345625)scale(0.14 -0.14)">
       <use xlink:href="#LiberationSansNarrow-48"/>
       <use x="45.605469" xlink:href="#LiberationSansNarrow-46"/>
       <use x="68.408203" xlink:href="#LiberationSansNarrow-54"/>
      </g>
     </g>
    </g>
    <g id="xtick_5">
     <g id="line2d_5">
      <path clip-path="url(#pd438b0b6ba)" d="M 443.41 252.2 
L 443.41 17.64 
" style="fill:none;stroke:#b0b0b0;stroke-dasharray:1.48,0.64;stroke-dashoffset:0;stroke-width:0.4;"/>
     </g>
     <g id="text_5">
      <!-- 0.8 -->
      <defs>
       <path d="M 42.046875 19.1875 
Q 42.046875 14.796875 40.890625 11.109375 
Q 39.75 7.421875 37.40625 4.734375 
Q 35.0625 2.046875 31.421875 0.53125 
Q 27.78125 -0.984375 22.796875 -0.984375 
Q 17.828125 -0.984375 14.203125 0.53125 
Q 10.59375 2.046875 8.21875 4.703125 
Q 5.859375 7.375 4.703125 11.0625 
Q 3.5625 14.75 3.5625 19.09375 
Q 3.5625 22.859375 4.515625 25.78125 
Q 5.46875 28.71875 7.03125 30.828125 
Q 8.59375 32.953125 10.609375 34.25 
Q 12.640625 35.546875 14.796875 35.984375 
L 14.796875 36.1875 
Q 12.453125 36.859375 10.59375 38.375 
Q 8.734375 39.890625 7.46875 42.015625 
Q 6.203125 44.140625 5.546875 46.71875 
Q 4.890625 49.3125 4.890625 52.203125 
Q 4.890625 55.8125 6.03125 59 
Q 7.171875 62.203125 9.421875 64.625 
Q 11.671875 67.046875 14.984375 68.4375 
Q 18.3125 69.828125 22.65625 69.828125 
Q 27.25 69.828125 30.640625 68.40625 
Q 34.03125 67 36.25 64.578125 
Q 38.484375 62.15625 39.546875 58.9375 
Q 40.625 55.71875 40.625 52.09375 
Q 40.625 49.265625 39.96875 46.671875 
Q 39.3125 44.09375 38.0625 41.96875 
Q 36.8125 39.84375 34.9375 38.34375 
Q 33.0625 36.859375 30.609375 36.28125 
L 30.609375 36.078125 
Q 33.0625 35.59375 35.15625 34.296875 
Q 37.25 33.015625 38.765625 30.890625 
Q 40.28125 28.765625 41.15625 25.828125 
Q 42.046875 22.90625 42.046875 19.1875 
z
M 33.15625 51.609375 
Q 33.15625 54.203125 32.609375 56.34375 
Q 32.078125 58.5 30.828125 60.03125 
Q 29.59375 61.578125 27.59375 62.421875 
Q 25.59375 63.28125 22.65625 63.28125 
Q 19.828125 63.28125 17.875 62.421875 
Q 15.921875 61.578125 14.640625 60.03125 
Q 13.375 58.5 12.8125 56.34375 
Q 12.25 54.203125 12.25 51.609375 
Q 12.25 49.5625 12.6875 47.40625 
Q 13.140625 45.265625 14.3125 43.5 
Q 15.484375 41.75 17.5 40.625 
Q 19.53125 39.5 22.75 39.5 
Q 26.171875 39.5 28.21875 40.625 
Q 30.28125 41.75 31.375 43.5 
Q 32.46875 45.265625 32.8125 47.40625 
Q 33.15625 49.5625 33.15625 51.609375 
z
M 34.578125 20.015625 
Q 34.578125 22.515625 34.015625 24.828125 
Q 33.453125 27.15625 32.078125 28.9375 
Q 30.71875 30.71875 28.421875 31.8125 
Q 26.125 32.90625 22.65625 32.90625 
Q 19.484375 32.90625 17.265625 31.8125 
Q 15.046875 30.71875 13.671875 28.90625 
Q 12.3125 27.09375 11.671875 24.71875 
Q 11.03125 22.359375 11.03125 19.828125 
Q 11.03125 16.65625 11.671875 14.03125 
Q 12.3125 11.421875 13.703125 9.546875 
Q 15.09375 7.671875 17.375 6.640625 
Q 19.671875 5.609375 22.90625 5.609375 
Q 26.171875 5.609375 28.421875 6.640625 
Q 30.671875 7.671875 32.03125 9.546875 
Q 33.40625 11.421875 33.984375 14.078125 
Q 34.578125 16.75 34.578125 20.015625 
z
" id="LiberationSansNarrow-56"/>
      </defs>
      <g transform="translate(435.428906 269.345625)scale(0.14 -0.14)">
       <use xlink:href="#LiberationSansNarrow-48"/>
       <use x="45.605469" xlink:href="#LiberationSansNarrow-46"/>
       <use x="68.408203" xlink:href="#LiberationSansNarrow-56"/>
      </g>
     </g>
    </g>
    <g id="xtick_6">
     <g id="line2d_6">
      <path clip-path="url(#pd438b0b6ba)" d="M 535.37 252.2 
L 535.37 17.64 
" style="fill:none;stroke:#b0b0b0;stroke-dasharray:1.48,0.64;stroke-dashoffset:0;stroke-width:0.4;"/>
     </g>
     <g id="text_6">
      <!-- 1.0 -->
      <defs>
       <path d="M 6.25 0 
L 6.25 7.46875 
L 20.609375 7.46875 
L 20.609375 60.40625 
L 7.90625 49.3125 
L 7.90625 57.625 
L 21.234375 68.796875 
L 27.875 68.796875 
L 27.875 7.46875 
L 41.609375 7.46875 
L 41.609375 0 
z
" id="LiberationSansNarrow-49"/>
      </defs>
      <g transform="translate(527.388906 269.345625)scale(0.14 -0.14)">
       <use xlink:href="#LiberationSansNarrow-49"/>
       <use x="45.605469" xlink:href="#LiberationSansNarrow-46"/>
       <use x="68.408203" xlink:href="#LiberationSansNarrow-48"/>
      </g>
     </g>
    </g>
   </g>
   <g id="matplotlib.axis_2">
    <g id="ytick_1">
     <g id="line2d_7">
      <path clip-path="url(#pd438b0b6ba)" d="M 52.58 207.787709 
L 558.36 207.787709 
" style="fill:none;stroke:#b0b0b0;stroke-dasharray:1.48,0.64;stroke-dashoffset:0;stroke-width:0.4;"/>
     </g>
     <g id="text_7">
      <!-- 5 -->
      <defs>
       <path d="M 42.140625 22.40625 
Q 42.140625 17.234375 40.859375 12.9375 
Q 39.59375 8.640625 37.078125 5.53125 
Q 34.578125 2.4375 30.8125 0.71875 
Q 27.046875 -0.984375 22.125 -0.984375 
Q 17.671875 -0.984375 14.375 0.28125 
Q 11.078125 1.5625 8.8125 3.78125 
Q 6.546875 6 5.203125 8.984375 
Q 3.859375 11.96875 3.265625 15.375 
L 10.546875 16.40625 
Q 10.984375 14.453125 11.78125 12.625 
Q 12.59375 10.796875 13.984375 9.34375 
Q 15.375 7.90625 17.40625 7.046875 
Q 19.4375 6.203125 22.3125 6.203125 
Q 25.09375 6.203125 27.390625 7.25 
Q 29.6875 8.296875 31.296875 10.34375 
Q 32.90625 12.40625 33.78125 15.375 
Q 34.671875 18.359375 34.671875 22.21875 
Q 34.671875 25.390625 33.84375 28.046875 
Q 33.015625 30.71875 31.453125 32.640625 
Q 29.890625 34.578125 27.609375 35.640625 
Q 25.34375 36.71875 22.46875 36.71875 
Q 20.65625 36.71875 19.140625 36.328125 
Q 17.625 35.9375 16.328125 35.25 
Q 15.046875 34.578125 13.96875 33.671875 
Q 12.890625 32.765625 11.96875 31.78125 
L 4.9375 31.78125 
L 6.78125 68.796875 
L 38.875 68.796875 
L 38.875 61.328125 
L 13.375 61.328125 
L 12.3125 39.5 
Q 14.203125 41.3125 17.078125 42.59375 
Q 19.96875 43.890625 23.921875 43.890625 
Q 28.125 43.890625 31.484375 42.328125 
Q 34.859375 40.765625 37.21875 37.90625 
Q 39.59375 35.0625 40.859375 31.109375 
Q 42.140625 27.15625 42.140625 22.40625 
z
" id="LiberationSansNarrow-53"/>
      </defs>
      <g transform="translate(39.194688 212.860521)scale(0.14 -0.14)">
       <use xlink:href="#LiberationSansNarrow-53"/>
      </g>
     </g>
    </g>
    <g id="ytick_2">
     <g id="line2d_8">
      <path clip-path="url(#pd438b0b6ba)" d="M 52.58 156.802894 
L 558.36 156.802894 
" style="fill:none;stroke:#b0b0b0;stroke-dasharray:1.48,0.64;stroke-dashoffset:0;stroke-width:0.4;"/>
     </g>
     <g id="text_8">
      <!-- 10 -->
      <g transform="translate(32.809375 161.875707)scale(0.14 -0.14)">
       <use xlink:href="#LiberationSansNarrow-49"/>
       <use x="45.605469" xlink:href="#LiberationSansNarrow-48"/>
      </g>
     </g>
    </g>
    <g id="ytick_3">
     <g id="line2d_9">
      <path clip-path="url(#pd438b0b6ba)" d="M 52.58 105.818079 
L 558.36 105.818079 
" style="fill:none;stroke:#b0b0b0;stroke-dasharray:1.48,0.64;stroke-dashoffset:0;stroke-width:0.4;"/>
     </g>
     <g id="text_9">
      <!-- 15 -->
      <g transform="translate(32.809375 110.890892)scale(0.14 -0.14)">
       <use xlink:href="#LiberationSansNarrow-49"/>
       <use x="45.605469" xlink:href="#LiberationSansNarrow-53"/>
      </g>
     </g>
    </g>
    <g id="ytick_4">
     <g id="line2d_10">
      <path clip-path="url(#pd438b0b6ba)" d="M 52.58 54.833265 
L 558.36 54.833265 
" style="fill:none;stroke:#b0b0b0;stroke-dasharray:1.48,0.64;stroke-dashoffset:0;stroke-width:0.4;"/>
     </g>
     <g id="text_10">
      <!-- 20 -->
      <g transform="translate(32.809375 59.906077)scale(0.14 -0.14)">
       <use xlink:href="#LiberationSansNarrow-50"/>
       <use x="45.605469" xlink:href="#LiberationSansNarrow-48"/>
      </g>
     </g>
    </g>
    <g id="text_11">
     <!-- доходность, %г -->
     <defs>
      <path d="M 33.34375 46.4375 
L 21.140625 46.4375 
Q 20.171875 37.796875 19.1875 31.375 
Q 18.21875 24.953125 17.234375 20.21875 
Q 16.265625 15.484375 15.3125 12.15625 
Q 14.359375 8.84375 13.484375 6.390625 
L 33.34375 6.390625 
z
M 46.390625 -19.921875 
L 39.890625 -19.921875 
L 39.890625 0 
L 7.328125 0 
L 7.328125 -19.921875 
L 0.78125 -19.921875 
L 0.78125 6.390625 
L 5.5625 6.390625 
Q 6.78125 8.84375 7.921875 12.328125 
Q 9.078125 15.828125 10.21875 21.1875 
Q 11.375 26.5625 12.515625 34.25 
Q 13.671875 41.9375 14.796875 52.828125 
L 40.578125 52.828125 
L 40.578125 6.390625 
L 46.390625 6.390625 
z
" id="LiberationSansNarrow-1076"/>
      <path d="M 42.140625 26.46875 
Q 42.140625 12.59375 37.125 5.796875 
Q 32.125 -0.984375 22.609375 -0.984375 
Q 18.0625 -0.984375 14.515625 0.671875 
Q 10.984375 2.34375 8.515625 5.765625 
Q 6.0625 9.1875 4.765625 14.328125 
Q 3.46875 19.484375 3.46875 26.46875 
Q 3.46875 53.8125 22.859375 53.8125 
Q 27.875 53.8125 31.5625 52.09375 
Q 35.25 50.390625 37.59375 46.96875 
Q 39.9375 43.5625 41.03125 38.421875 
Q 42.140625 33.296875 42.140625 26.46875 
z
M 34.578125 26.46875 
Q 34.578125 32.625 33.8125 36.625 
Q 33.0625 40.625 31.546875 43.015625 
Q 30.03125 45.40625 27.859375 46.359375 
Q 25.6875 47.3125 23 47.3125 
Q 20.21875 47.3125 17.984375 46.3125 
Q 15.765625 45.3125 14.203125 42.890625 
Q 12.640625 40.484375 11.828125 36.46875 
Q 11.03125 32.46875 11.03125 26.46875 
Q 11.03125 20.3125 11.90625 16.28125 
Q 12.796875 12.25 14.328125 9.859375 
Q 15.875 7.46875 17.96875 6.484375 
Q 20.0625 5.515625 22.5625 5.515625 
Q 25.34375 5.515625 27.5625 6.46875 
Q 29.78125 7.421875 31.34375 9.8125 
Q 32.90625 12.203125 33.734375 16.25 
Q 34.578125 20.3125 34.578125 26.46875 
z
" id="LiberationSansNarrow-1086"/>
      <path d="M 32.078125 0 
L 20.40625 21.6875 
L 8.6875 0 
L 0.921875 0 
L 16.359375 27.15625 
L 1.65625 52.828125 
L 9.625 52.828125 
L 20.40625 32.28125 
L 31.15625 52.828125 
L 39.203125 52.828125 
L 24.515625 27.25 
L 40.140625 0 
z
" id="LiberationSansNarrow-1093"/>
      <path d="M 12.890625 52.828125 
L 12.890625 30.46875 
L 32.375 30.46875 
L 32.375 52.828125 
L 39.59375 52.828125 
L 39.59375 0 
L 32.375 0 
L 32.375 24.078125 
L 12.890625 24.078125 
L 12.890625 0 
L 5.671875 0 
L 5.671875 52.828125 
z
" id="LiberationSansNarrow-1085"/>
      <path d="M 11.03125 26.65625 
Q 11.03125 22.125 11.5625 18.3125 
Q 12.109375 14.5 13.375 11.734375 
Q 14.65625 8.984375 16.75 7.46875 
Q 18.84375 5.953125 21.96875 5.953125 
Q 25.828125 5.953125 28.390625 8.484375 
Q 30.953125 11.03125 31.546875 16.3125 
L 38.875 15.71875 
Q 38.53125 12.453125 37.296875 9.421875 
Q 36.078125 6.390625 34.03125 4.09375 
Q 31.984375 1.8125 29 0.40625 
Q 26.03125 -0.984375 22.171875 -0.984375 
Q 17.09375 -0.984375 13.5 1.109375 
Q 9.90625 3.21875 7.6875 6.90625 
Q 5.46875 10.59375 4.46875 15.59375 
Q 3.46875 20.609375 3.46875 26.46875 
Q 3.46875 31.78125 4.203125 35.859375 
Q 4.9375 39.9375 6.21875 42.984375 
Q 7.515625 46.046875 9.265625 48.125 
Q 11.03125 50.203125 13.109375 51.4375 
Q 15.1875 52.6875 17.453125 53.25 
Q 19.734375 53.8125 22.078125 53.8125 
Q 25.734375 53.8125 28.5625 52.59375 
Q 31.390625 51.375 33.46875 49.25 
Q 35.546875 47.125 36.8125 44.234375 
Q 38.09375 41.359375 38.625 38.03125 
L 31.203125 37.359375 
Q 30.671875 41.75 28.375 44.328125 
Q 26.078125 46.921875 21.875 46.921875 
Q 18.796875 46.921875 16.71875 45.671875 
Q 14.65625 44.4375 13.375 41.921875 
Q 12.109375 39.40625 11.5625 35.59375 
Q 11.03125 31.78125 11.03125 26.65625 
z
" id="LiberationSansNarrow-1089"/>
      <path d="M 1.421875 52.828125 
L 36.140625 52.828125 
L 36.140625 46.4375 
L 22.359375 46.4375 
L 22.359375 0 
L 15.1875 0 
L 15.1875 46.4375 
L 1.421875 46.4375 
z
" id="LiberationSansNarrow-1090"/>
      <path d="M 22.75 30.46875 
Q 30.953125 30.46875 35.15625 26.875 
Q 39.359375 23.296875 39.359375 15.53125 
Q 39.359375 11.921875 38.296875 9.03125 
Q 37.25 6.15625 35.171875 4.15625 
Q 33.109375 2.15625 30 1.078125 
Q 26.90625 0 22.796875 0 
L 5.671875 0 
L 5.671875 52.828125 
L 12.890625 52.828125 
L 12.890625 30.46875 
z
M 12.890625 6.203125 
L 21.6875 6.203125 
Q 24.46875 6.203125 26.390625 6.8125 
Q 28.328125 7.421875 29.5 8.609375 
Q 30.671875 9.8125 31.171875 11.546875 
Q 31.6875 13.28125 31.6875 15.53125 
Q 31.6875 20.125 29.359375 22.234375 
Q 27.046875 24.359375 21.734375 24.359375 
L 12.890625 24.359375 
z
" id="LiberationSansNarrow-1100"/>
      <path d="M 15.4375 10.6875 
L 15.4375 2.484375 
Q 15.4375 -0.09375 15.265625 -2.21875 
Q 15.09375 -4.34375 14.671875 -6.171875 
Q 14.265625 -8.015625 13.671875 -9.625 
Q 13.09375 -11.234375 12.3125 -12.796875 
L 7.375 -12.796875 
Q 9.1875 -9.625 10.15625 -6.390625 
Q 11.140625 -3.171875 11.140625 0 
L 7.625 0 
L 7.625 10.6875 
z
" id="LiberationSansNarrow-44"/>
      <path id="LiberationSansNarrow-32"/>
      <path d="M 69.96875 21.1875 
Q 69.96875 15.09375 68.9375 10.90625 
Q 67.921875 6.734375 66.1875 4.171875 
Q 64.453125 1.609375 62.125 0.5 
Q 59.8125 -0.59375 57.171875 -0.59375 
Q 54.546875 -0.59375 52.21875 0.5 
Q 49.90625 1.609375 48.21875 4.140625 
Q 46.53125 6.6875 45.546875 10.859375 
Q 44.578125 15.046875 44.578125 21.1875 
Q 44.578125 27.6875 45.53125 31.9375 
Q 46.484375 36.1875 48.1875 38.703125 
Q 49.90625 41.21875 52.25 42.21875 
Q 54.59375 43.21875 57.328125 43.21875 
Q 59.96875 43.21875 62.25 42.21875 
Q 64.546875 41.21875 66.25 38.703125 
Q 67.96875 36.1875 68.96875 31.9375 
Q 69.96875 27.6875 69.96875 21.1875 
z
M 21.09375 0 
L 14.890625 0 
L 51.8125 68.796875 
L 58.109375 68.796875 
z
M 15.765625 69.390625 
Q 18.3125 69.390625 20.609375 68.390625 
Q 22.90625 67.390625 24.609375 64.890625 
Q 26.3125 62.40625 27.3125 58.203125 
Q 28.328125 54 28.328125 47.609375 
Q 28.328125 41.453125 27.3125 37.25 
Q 26.3125 33.0625 24.609375 30.4375 
Q 22.90625 27.828125 20.578125 26.703125 
Q 18.265625 25.59375 15.625 25.59375 
Q 12.9375 25.59375 10.609375 26.703125 
Q 8.296875 27.828125 6.59375 30.421875 
Q 4.890625 33.015625 3.90625 37.203125 
Q 2.9375 41.40625 2.9375 47.609375 
Q 2.9375 54 3.90625 58.203125 
Q 4.890625 62.40625 6.609375 64.890625 
Q 8.34375 67.390625 10.6875 68.390625 
Q 13.03125 69.390625 15.765625 69.390625 
z
M 64.0625 21.1875 
Q 64.0625 26.03125 63.625 29.21875 
Q 63.1875 32.421875 62.328125 34.328125 
Q 61.46875 36.234375 60.203125 37.015625 
Q 58.9375 37.796875 57.328125 37.796875 
Q 55.671875 37.796875 54.375 36.984375 
Q 53.078125 36.1875 52.1875 34.28125 
Q 51.3125 32.375 50.875 29.171875 
Q 50.4375 25.984375 50.4375 21.1875 
Q 50.4375 16.546875 50.90625 13.421875 
Q 51.375 10.296875 52.21875 8.375 
Q 53.078125 6.453125 54.34375 5.609375 
Q 55.609375 4.78125 57.234375 4.78125 
Q 58.796875 4.78125 60.0625 5.609375 
Q 61.328125 6.453125 62.203125 8.375 
Q 63.09375 10.296875 63.578125 13.421875 
Q 64.0625 16.546875 64.0625 21.1875 
z
M 22.40625 47.609375 
Q 22.40625 52.390625 21.96875 55.5625 
Q 21.53125 58.734375 20.703125 60.640625 
Q 19.875 62.546875 18.625 63.328125 
Q 17.390625 64.109375 15.765625 64.109375 
Q 14.0625 64.109375 12.734375 63.296875 
Q 11.421875 62.5 10.546875 60.59375 
Q 9.671875 58.6875 9.234375 55.515625 
Q 8.796875 52.34375 8.796875 47.609375 
Q 8.796875 42.96875 9.25 39.796875 
Q 9.71875 36.625 10.5625 34.6875 
Q 11.421875 32.765625 12.71875 31.9375 
Q 14.015625 31.109375 15.671875 31.109375 
Q 17.1875 31.109375 18.421875 31.9375 
Q 19.671875 32.765625 20.546875 34.6875 
Q 21.4375 36.625 21.921875 39.796875 
Q 22.40625 42.96875 22.40625 47.609375 
z
" id="LiberationSansNarrow-37"/>
      <path d="M 27.546875 52.828125 
L 27.546875 46.4375 
L 12.890625 46.4375 
L 12.890625 0 
L 5.71875 0 
L 5.71875 52.828125 
z
" id="LiberationSansNarrow-1075"/>
     </defs>
     <g transform="translate(25.904375 176.105156)rotate(-90)scale(0.14 -0.14)">
      <use xlink:href="#LiberationSansNarrow-1076"/>
      <use x="47.802734" xlink:href="#LiberationSansNarrow-1086"/>
      <use x="93.392578" xlink:href="#LiberationSansNarrow-1093"/>
      <use x="134.392578" xlink:href="#LiberationSansNarrow-1086"/>
      <use x="179.966797" xlink:href="#LiberationSansNarrow-1076"/>
      <use x="227.769531" xlink:href="#LiberationSansNarrow-1085"/>
      <use x="273.033203" xlink:href="#LiberationSansNarrow-1086"/>
      <use x="318.638672" xlink:href="#LiberationSansNarrow-1089"/>
      <use x="359.654297" xlink:href="#LiberationSansNarrow-1090"/>
      <use x="397.203125" xlink:href="#LiberationSansNarrow-1100"/>
      <use x="439.927734" xlink:href="#LiberationSansNarrow-44"/>
      <use x="462.730469" xlink:href="#LiberationSansNarrow-32"/>
      <use x="485.533203" xlink:href="#LiberationSansNarrow-37"/>
      <use x="558.433594" xlink:href="#LiberationSansNarrow-1075"/>
     </g>
    </g>
   </g>
   <g id="line2d_11">
    <path clip-path="url(#pd438b0b6ba)" d="M 75.57 241.538182 
L 79.354362 241.294473 
L 81.246543 240.553731 
L 85.030905 239.876946 
L 88.815267 239.56665 
L 90.707449 238.977967 
L 92.59963 238.967197 
L 94.491811 238.647643 
L 96.383992 238.597859 
L 98.276173 238.399588 
L 100.168354 238.383272 
L 102.060535 238.076707 
L 105.844897 237.918747 
L 107.737078 237.718848 
L 109.629259 237.710755 
L 115.305802 237.223336 
L 117.197984 236.976809 
L 122.874527 236.830152 
L 124.766708 236.80562 
L 126.658889 236.472341 
L 128.55107 236.416455 
L 130.443251 235.976241 
L 136.119794 235.30168 
L 138.011975 235.254965 
L 139.904156 234.83363 
L 141.796337 234.741024 
L 143.688519 234.534548 
L 145.5807 234.483236 
L 147.472881 233.926085 
L 151.257243 233.49272 
L 155.041605 231.998729 
L 156.933786 231.585157 
L 158.825967 230.215745 
L 160.718148 230.199933 
L 162.610329 229.911335 
L 164.50251 229.491456 
L 166.394691 229.280099 
L 168.286872 228.771937 
L 170.179053 228.559443 
L 172.071235 228.551712 
L 173.963416 227.881274 
L 175.855597 227.504457 
L 179.639959 225.909091 
L 181.53214 225.660229 
L 183.424321 224.413748 
L 185.316502 223.633462 
L 187.208683 223.576376 
L 189.100864 222.648234 
L 190.993045 221.530636 
L 192.885226 221.391619 
L 194.777407 221.131772 
L 196.669588 221.049807 
L 198.56177 220.453586 
L 200.453951 219.474198 
L 204.238313 219.0487 
L 206.130494 218.909532 
L 208.022675 217.48248 
L 211.807037 217.041569 
L 221.267942 216.383644 
L 225.052305 216.313757 
L 226.944486 215.92578 
L 228.836667 215.720177 
L 230.728848 215.663053 
L 236.405391 213.93847 
L 238.297572 213.096091 
L 240.189753 212.121596 
L 242.081934 212.079886 
L 245.866296 211.550478 
L 247.758477 209.685446 
L 249.650658 209.434546 
L 257.219383 207.448012 
L 259.111564 207.056304 
L 261.003745 206.206196 
L 262.895926 205.660842 
L 264.788107 205.493304 
L 266.680288 203.952079 
L 268.572469 203.870296 
L 270.46465 203.223759 
L 274.249012 200.931397 
L 276.141193 200.490214 
L 278.033374 198.918174 
L 285.602099 196.300071 
L 287.49428 196.191916 
L 289.386461 195.425855 
L 293.170823 194.384114 
L 295.063004 193.202651 
L 296.955185 193.166426 
L 300.739547 192.761566 
L 302.631728 192.135699 
L 304.523909 192.135291 
L 306.416091 191.972125 
L 308.308272 190.814807 
L 310.200453 190.557044 
L 312.092634 190.416009 
L 313.984815 190.161592 
L 315.876996 190.077494 
L 317.769177 189.789517 
L 321.553539 189.768204 
L 323.44572 189.619864 
L 329.122263 188.376909 
L 331.014444 188.288487 
L 332.906626 187.898185 
L 334.798807 187.817313 
L 336.690988 187.570671 
L 338.583169 187.210458 
L 342.367531 186.912102 
L 344.259712 185.941852 
L 346.151893 185.896407 
L 348.044074 185.705411 
L 349.936255 185.346421 
L 351.828436 185.31386 
L 353.720617 184.994345 
L 357.504979 184.92825 
L 359.39716 183.439155 
L 363.181523 183.179545 
L 365.073704 183.035067 
L 368.858066 182.205602 
L 370.750247 182.173223 
L 374.534609 181.848736 
L 376.42679 180.823136 
L 391.564239 179.429736 
L 395.348601 179.21812 
L 397.240782 179.066989 
L 399.132963 178.724956 
L 406.701687 178.449411 
L 408.593868 178.084772 
L 410.486049 177.499754 
L 412.37823 177.247184 
L 414.270412 177.245774 
L 416.162593 177.115496 
L 418.054774 176.84195 
L 419.946955 176.807687 
L 421.839136 176.565348 
L 425.623498 176.483031 
L 427.515679 176.190395 
L 431.300041 176.084814 
L 435.084403 175.585039 
L 436.976584 175.021435 
L 438.868765 174.723163 
L 440.760947 174.226001 
L 444.545309 174.171164 
L 446.43749 173.898291 
L 448.329671 173.811144 
L 450.221852 173.418222 
L 452.114033 173.276799 
L 454.006214 172.894386 
L 457.790576 172.674783 
L 459.682757 172.450052 
L 461.574938 172.092241 
L 463.467119 171.914058 
L 465.3593 171.896819 
L 467.251481 170.950096 
L 469.143663 170.917163 
L 471.035844 170.284306 
L 472.928025 169.474269 
L 482.38893 169.186038 
L 486.173292 168.5061 
L 488.065473 167.951567 
L 489.957654 167.934106 
L 491.849835 167.488962 
L 493.742016 162.005359 
L 495.634198 161.455085 
L 497.526379 158.732586 
L 499.41856 157.450376 
L 501.310741 157.266322 
L 505.095103 151.494658 
L 506.987284 151.294795 
L 508.879465 150.846873 
L 510.771646 149.359729 
L 512.663827 146.988663 
L 514.556008 137.094704 
L 516.448189 130.703829 
L 518.34037 130.203863 
L 520.232551 123.906248 
L 522.124733 118.674862 
L 524.016914 116.283058 
L 525.909095 115.481087 
L 527.801276 115.179433 
L 529.693457 113.97103 
L 531.585638 113.525942 
L 533.477819 111.972059 
L 535.37 111.34649 
L 535.37 111.34649 
" style="fill:none;stroke:#1f77b4;stroke-linecap:square;stroke-width:2;"/>
   </g>
   <g id="line2d_12">
    <path clip-path="url(#pd438b0b6ba)" d="M 75.57 226.340992 
L 77.462181 223.347738 
L 79.354362 214.498481 
L 81.246543 212.65436 
L 83.138724 210.21061 
L 86.923086 209.839035 
L 88.815267 209.080055 
L 90.707449 208.881926 
L 92.59963 206.706486 
L 94.491811 206.542548 
L 98.276173 205.240768 
L 100.168354 205.220601 
L 102.060535 204.786839 
L 103.952716 203.918704 
L 105.844897 203.622838 
L 109.629259 203.484928 
L 113.413621 202.926943 
L 115.305802 202.896283 
L 117.197984 202.54733 
L 119.090165 201.877076 
L 120.982346 201.769269 
L 122.874527 201.472813 
L 126.658889 201.301045 
L 132.335432 200.536574 
L 134.227613 200.284165 
L 136.119794 200.240573 
L 138.011975 199.845185 
L 147.472881 199.562774 
L 149.365062 199.150043 
L 153.149424 197.841956 
L 155.041605 197.670524 
L 156.933786 197.304586 
L 160.718148 197.186577 
L 162.610329 196.491379 
L 164.50251 196.40934 
L 166.394691 196.202804 
L 168.286872 196.201111 
L 172.071235 195.597033 
L 173.963416 195.520663 
L 175.855597 195.222548 
L 177.747778 195.123529 
L 185.316502 193.468024 
L 187.208683 193.239655 
L 189.100864 193.219723 
L 190.993045 193.021532 
L 192.885226 192.583987 
L 196.669588 192.312359 
L 198.56177 192.185005 
L 202.346132 191.642854 
L 206.130494 191.139548 
L 208.022675 191.039645 
L 209.914856 190.577688 
L 211.807037 189.985681 
L 219.375761 189.531183 
L 223.160123 189.442032 
L 226.944486 189.246868 
L 228.836667 188.393952 
L 232.621029 188.282257 
L 234.51321 187.910233 
L 238.297572 187.404538 
L 242.081934 186.552868 
L 253.435021 186.256888 
L 255.327202 185.661326 
L 257.219383 185.378831 
L 261.003745 185.238878 
L 266.680288 184.818516 
L 268.572469 184.312389 
L 270.46465 184.289814 
L 274.249012 183.994185 
L 276.141193 183.890201 
L 278.033374 183.547855 
L 281.817737 183.468089 
L 283.709918 183.311817 
L 285.602099 183.303075 
L 287.49428 182.999779 
L 289.386461 182.832392 
L 293.170823 182.703835 
L 298.847366 181.609847 
L 302.631728 181.173905 
L 304.523909 181.124657 
L 306.416091 180.739826 
L 308.308272 180.671379 
L 310.200453 180.362778 
L 312.092634 180.309217 
L 315.876996 179.739851 
L 317.769177 179.702636 
L 319.661358 179.339028 
L 323.44572 179.243877 
L 325.337901 178.903206 
L 327.230082 178.356669 
L 329.122263 178.32633 
L 332.906626 177.87349 
L 334.798807 177.524683 
L 336.690988 177.395657 
L 338.583169 177.001257 
L 340.47535 176.250064 
L 344.259712 175.485599 
L 348.044074 175.268798 
L 349.936255 175.072665 
L 361.289342 174.511865 
L 365.073704 174.169707 
L 366.965885 173.259598 
L 370.750247 173.086878 
L 372.642428 172.629019 
L 374.534609 172.410686 
L 376.42679 171.723279 
L 378.318971 171.677125 
L 380.211152 170.892296 
L 382.103333 169.982194 
L 383.995514 169.752412 
L 385.887695 169.714638 
L 387.779877 169.426502 
L 389.672058 169.368744 
L 391.564239 168.193691 
L 393.45642 167.869969 
L 397.240782 167.761858 
L 402.917325 167.243677 
L 406.701687 166.805087 
L 408.593868 166.696281 
L 410.486049 166.146854 
L 412.37823 165.988171 
L 416.162593 165.351349 
L 418.054774 164.685158 
L 419.946955 164.64619 
L 421.839136 164.450726 
L 425.623498 164.382803 
L 427.515679 163.352696 
L 429.40786 162.943363 
L 431.300041 162.323814 
L 433.192222 161.999331 
L 435.084403 161.411173 
L 436.976584 160.172602 
L 438.868765 159.238369 
L 440.760947 158.961553 
L 442.653128 158.820693 
L 444.545309 157.631677 
L 446.43749 157.610827 
L 450.221852 157.403651 
L 454.006214 157.019482 
L 455.898395 156.391173 
L 457.790576 154.764073 
L 461.574938 154.625831 
L 463.467119 153.296449 
L 465.3593 152.298275 
L 467.251481 151.813452 
L 469.143663 151.464499 
L 472.928025 151.402804 
L 476.712387 150.89547 
L 478.604568 148.44526 
L 480.496749 148.131303 
L 482.38893 146.131685 
L 484.281111 145.532793 
L 486.173292 145.296459 
L 488.065473 144.799456 
L 489.957654 143.361334 
L 491.849835 142.898835 
L 493.742016 142.87675 
L 497.526379 142.516783 
L 499.41856 141.492801 
L 501.310741 140.921546 
L 506.987284 140.167628 
L 508.879465 140.117537 
L 510.771646 139.071408 
L 514.556008 137.27355 
L 516.448189 135.775583 
L 518.34037 134.651234 
L 520.232551 132.898632 
L 522.124733 132.755998 
L 524.016914 132.114029 
L 525.909095 129.939364 
L 527.801276 125.560497 
L 529.693457 122.556216 
L 533.477819 121.64343 
L 535.37 121.310246 
L 535.37 121.310246 
" style="fill:none;stroke:#ff7f0e;stroke-linecap:square;"/>
   </g>
   <g id="line2d_13">
    <path clip-path="url(#pd438b0b6ba)" d="M 75.57 237.383005 
L 77.462181 226.428248 
L 79.354362 225.217276 
L 81.246543 224.680322 
L 83.138724 224.622483 
L 86.923086 222.884054 
L 88.815267 222.550528 
L 90.707449 221.650282 
L 92.59963 221.505958 
L 94.491811 220.735299 
L 96.383992 220.309197 
L 98.276173 219.361545 
L 100.168354 219.127836 
L 102.060535 219.061552 
L 103.952716 218.746881 
L 105.844897 218.602338 
L 107.737078 218.244582 
L 113.413621 217.848781 
L 117.197984 217.128674 
L 119.090165 216.65726 
L 120.982346 216.001649 
L 122.874527 215.845003 
L 124.766708 215.31217 
L 132.335432 214.1119 
L 134.227613 213.541265 
L 136.119794 213.183068 
L 138.011975 212.674547 
L 139.904156 211.943549 
L 141.796337 210.851268 
L 145.5807 210.405243 
L 147.472881 209.365417 
L 149.365062 209.178165 
L 151.257243 208.775498 
L 153.149424 208.134427 
L 155.041605 208.003857 
L 156.933786 207.377749 
L 160.718148 207.175179 
L 162.610329 206.452993 
L 164.50251 206.373641 
L 166.394691 206.064921 
L 168.286872 205.880471 
L 170.179053 205.405513 
L 173.963416 205.28817 
L 175.855597 204.858974 
L 185.316502 204.508705 
L 187.208683 204.125256 
L 190.993045 203.995088 
L 198.56177 203.652621 
L 200.453951 203.449905 
L 204.238313 203.32278 
L 206.130494 203.11323 
L 209.914856 202.98986 
L 211.807037 202.78426 
L 213.699218 202.141654 
L 215.591399 201.961268 
L 217.48358 201.937807 
L 219.375761 201.591128 
L 225.052305 200.834587 
L 226.944486 200.074758 
L 228.836667 199.750249 
L 232.621029 199.492491 
L 234.51321 199.47907 
L 236.405391 199.343668 
L 238.297572 198.824652 
L 240.189753 198.763288 
L 242.081934 198.352903 
L 243.974115 197.820155 
L 245.866296 197.775778 
L 247.758477 197.583106 
L 251.54284 197.547801 
L 253.435021 197.193723 
L 259.111564 196.974389 
L 261.003745 196.740803 
L 262.895926 194.751451 
L 264.788107 194.605189 
L 266.680288 194.272557 
L 270.46465 194.009835 
L 272.356831 193.99752 
L 274.249012 193.800358 
L 276.141193 193.789651 
L 278.033374 193.197461 
L 281.817737 192.501214 
L 287.49428 192.444893 
L 289.386461 190.34265 
L 293.170823 185.501416 
L 295.063004 185.328107 
L 296.955185 184.846301 
L 298.847366 184.790948 
L 300.739547 183.692181 
L 304.523909 183.597369 
L 306.416091 183.144322 
L 308.308272 182.306323 
L 310.200453 181.801007 
L 312.092634 181.710378 
L 313.984815 180.169498 
L 317.769177 178.997156 
L 319.661358 177.410542 
L 321.553539 176.650071 
L 323.44572 176.337603 
L 325.337901 175.729857 
L 329.122263 175.501067 
L 331.014444 175.121711 
L 332.906626 175.06426 
L 334.798807 174.360067 
L 336.690988 170.309474 
L 338.583169 167.996967 
L 340.47535 167.839971 
L 342.367531 167.3244 
L 344.259712 166.944056 
L 346.151893 166.707844 
L 348.044074 166.223152 
L 349.936255 165.2831 
L 351.828436 165.215077 
L 353.720617 164.726714 
L 355.612798 163.705205 
L 357.504979 163.347191 
L 359.39716 160.76592 
L 361.289342 157.611215 
L 363.181523 156.92016 
L 365.073704 156.600443 
L 368.858066 156.519817 
L 370.750247 156.214608 
L 372.642428 154.373223 
L 374.534609 154.062794 
L 378.318971 152.432319 
L 380.211152 152.158909 
L 382.103333 151.607321 
L 383.995514 151.571023 
L 385.887695 151.342571 
L 389.672058 150.648249 
L 391.564239 149.986714 
L 393.45642 148.882618 
L 395.348601 148.799202 
L 397.240782 147.635058 
L 399.132963 147.56624 
L 401.025144 147.021708 
L 402.917325 146.300945 
L 404.809506 144.847837 
L 406.701687 144.739437 
L 408.593868 144.504189 
L 410.486049 144.134125 
L 412.37823 143.274738 
L 414.270412 143.119269 
L 418.054774 142.338674 
L 419.946955 142.295398 
L 423.731317 141.012244 
L 429.40786 140.646193 
L 431.300041 140.361417 
L 433.192222 140.274127 
L 436.976584 139.633665 
L 438.868765 139.395273 
L 440.760947 139.306481 
L 442.653128 138.680309 
L 446.43749 138.569374 
L 448.329671 137.206362 
L 452.114033 134.877497 
L 454.006214 134.223986 
L 457.790576 133.756639 
L 459.682757 133.575131 
L 463.467119 133.480703 
L 467.251481 132.921346 
L 469.143663 132.674307 
L 472.928025 132.391221 
L 474.820206 131.501191 
L 476.712387 131.147062 
L 478.604568 130.152242 
L 482.38893 129.665748 
L 484.281111 129.519757 
L 486.173292 128.461481 
L 488.065473 128.378563 
L 489.957654 127.987984 
L 491.849835 127.886535 
L 493.742016 127.50667 
L 497.526379 127.346213 
L 499.41856 126.882811 
L 501.310741 126.865188 
L 503.202922 126.235203 
L 505.095103 126.20752 
L 506.987284 125.442181 
L 508.879465 125.138098 
L 510.771646 125.066719 
L 512.663827 122.687694 
L 514.556008 122.651943 
L 516.448189 122.176664 
L 518.34037 122.126119 
L 522.124733 121.155545 
L 524.016914 121.017405 
L 525.909095 121.01177 
L 527.801276 120.863507 
L 531.585638 120.33822 
L 535.37 118.032796 
L 535.37 118.032796 
" style="fill:none;stroke:#2ca02c;stroke-linecap:square;"/>
   </g>
   <g id="line2d_14">
    <path clip-path="url(#pd438b0b6ba)" d="M 75.57 211.988514 
L 77.462181 211.622317 
L 79.354362 209.163674 
L 83.138724 208.37093 
L 92.59963 207.699283 
L 96.383992 207.4206 
L 98.276173 207.02079 
L 100.168354 206.910394 
L 102.060535 206.567321 
L 105.844897 206.288839 
L 107.737078 205.936195 
L 109.629259 205.908631 
L 111.52144 205.668143 
L 115.305802 205.423783 
L 117.197984 204.682907 
L 124.766708 204.38451 
L 126.658889 203.789467 
L 132.335432 203.370681 
L 134.227613 203.029878 
L 136.119794 202.509467 
L 138.011975 202.455471 
L 139.904156 202.242923 
L 141.796337 201.16439 
L 143.688519 201.054713 
L 147.472881 200.397996 
L 155.041605 200.282985 
L 156.933786 200.147121 
L 158.825967 199.551163 
L 168.286872 199.371684 
L 170.179053 198.956157 
L 172.071235 198.778655 
L 175.855597 198.235321 
L 177.747778 198.203821 
L 179.639959 198.048852 
L 185.316502 197.955798 
L 187.208683 197.886405 
L 189.100864 197.408808 
L 190.993045 197.34041 
L 192.885226 197.12707 
L 194.777407 197.087569 
L 196.669588 196.931228 
L 198.56177 196.382 
L 206.130494 195.969508 
L 209.914856 195.644827 
L 211.807037 195.373709 
L 215.591399 195.124149 
L 217.48358 194.755572 
L 221.267942 194.615392 
L 226.944486 193.667526 
L 230.728848 193.217019 
L 234.51321 193.039011 
L 236.405391 192.198569 
L 238.297572 192.075761 
L 242.081934 192.020649 
L 249.650658 191.450289 
L 253.435021 190.862132 
L 255.327202 190.273363 
L 257.219383 190.114474 
L 262.895926 189.982411 
L 266.680288 189.726725 
L 268.572469 189.465168 
L 270.46465 188.998785 
L 272.356831 188.922508 
L 274.249012 188.576301 
L 276.141193 188.020162 
L 278.033374 187.702587 
L 281.817737 187.559152 
L 283.709918 187.485702 
L 285.602099 187.160508 
L 287.49428 186.987686 
L 289.386461 186.659822 
L 291.278642 186.458235 
L 293.170823 186.41917 
L 295.063004 186.21004 
L 296.955185 186.129271 
L 298.847366 184.391638 
L 300.739547 184.391602 
L 304.523909 184.163335 
L 306.416091 182.938397 
L 308.308272 182.0971 
L 312.092634 181.970804 
L 313.984815 180.714568 
L 315.876996 180.120708 
L 319.661358 180.09601 
L 321.553539 179.996414 
L 323.44572 179.701842 
L 325.337901 178.420165 
L 327.230082 178.333386 
L 329.122263 177.296994 
L 331.014444 175.910811 
L 334.798807 175.592109 
L 336.690988 174.346554 
L 338.583169 174.146138 
L 340.47535 172.530668 
L 342.367531 170.158993 
L 346.151893 168.486016 
L 348.044074 167.785217 
L 353.720617 166.494434 
L 355.612798 166.300964 
L 357.504979 165.795911 
L 359.39716 165.156053 
L 361.289342 164.041601 
L 363.181523 161.19118 
L 365.073704 158.893052 
L 366.965885 158.841761 
L 368.858066 155.758207 
L 370.750247 155.69919 
L 372.642428 154.25207 
L 374.534609 153.452129 
L 376.42679 153.243666 
L 378.318971 153.194098 
L 380.211152 152.796834 
L 382.103333 152.555106 
L 383.995514 152.550659 
L 385.887695 151.8438 
L 387.779877 150.954189 
L 389.672058 150.645927 
L 391.564239 150.486335 
L 399.132963 150.386472 
L 401.025144 150.086358 
L 404.809506 149.9189 
L 406.701687 149.494427 
L 408.593868 148.825593 
L 410.486049 148.780815 
L 412.37823 147.805927 
L 414.270412 147.711729 
L 416.162593 147.073928 
L 418.054774 146.738342 
L 423.731317 146.504901 
L 425.623498 146.301948 
L 429.40786 146.187421 
L 431.300041 145.827815 
L 433.192222 145.820688 
L 435.084403 145.579616 
L 440.760947 145.342796 
L 452.114033 144.335785 
L 454.006214 143.927268 
L 457.790576 143.770332 
L 463.467119 143.456089 
L 465.3593 142.937462 
L 469.143663 141.466062 
L 471.035844 141.348893 
L 472.928025 140.411255 
L 476.712387 139.986083 
L 482.38893 139.946669 
L 484.281111 138.614108 
L 486.173292 138.536301 
L 488.065473 138.287441 
L 489.957654 137.497361 
L 491.849835 136.463854 
L 493.742016 136.326733 
L 495.634198 135.201826 
L 499.41856 133.926888 
L 501.310741 133.825753 
L 503.202922 132.460854 
L 505.095103 132.346518 
L 506.987284 131.035166 
L 508.879465 130.340023 
L 510.771646 128.044581 
L 512.663827 127.946112 
L 514.556008 122.871039 
L 516.448189 118.568112 
L 518.34037 117.875434 
L 522.124733 117.478052 
L 524.016914 116.044579 
L 525.909095 115.917336 
L 527.801276 112.082902 
L 529.693457 111.864281 
L 531.585638 111.828214 
L 533.477819 110.357605 
L 535.37 109.965386 
L 535.37 109.965386 
" style="fill:none;stroke:#d62728;stroke-linecap:square;"/>
   </g>
   <g id="line2d_15">
    <path clip-path="url(#pd438b0b6ba)" d="M 75.57 232.551018 
L 77.510084 231.466562 
L 79.450169 231.382711 
L 81.390253 226.472645 
L 83.330338 226.039437 
L 85.270422 224.269891 
L 89.150591 221.54368 
L 93.030759 215.777592 
L 94.970844 214.029778 
L 96.910928 208.62966 
L 98.851013 206.311204 
L 100.791097 204.806853 
L 104.671266 204.188646 
L 106.61135 204.16501 
L 112.431603 201.776165 
L 114.371688 201.245777 
L 116.311772 201.09926 
L 118.251857 199.718187 
L 120.191941 199.650484 
L 124.07211 198.957967 
L 126.012194 198.462573 
L 127.952278 198.372658 
L 129.892363 197.368119 
L 131.832447 196.703097 
L 135.712616 196.462578 
L 141.532869 196.355983 
L 143.472954 195.462183 
L 145.413038 194.929594 
L 147.353122 194.884315 
L 149.293207 194.138164 
L 151.233291 193.905733 
L 153.173376 193.424592 
L 155.11346 191.887658 
L 158.993629 191.756931 
L 160.933713 191.535679 
L 162.873797 190.930843 
L 164.813882 190.916554 
L 166.753966 190.759023 
L 168.694051 189.175473 
L 176.454388 188.7317 
L 178.394473 188.073175 
L 180.334557 187.9246 
L 182.274641 187.890784 
L 184.214726 187.480969 
L 186.15481 187.452438 
L 188.094895 187.283887 
L 190.034979 186.27131 
L 193.915148 185.832862 
L 195.855232 185.079499 
L 197.795316 185.002137 
L 199.735401 184.808832 
L 201.675485 184.196531 
L 203.61557 184.036207 
L 205.555654 183.516387 
L 211.375907 183.305162 
L 215.256076 182.973587 
L 217.19616 182.251518 
L 219.136245 181.798902 
L 221.076329 181.128391 
L 223.016414 181.078529 
L 224.956498 180.766726 
L 226.896582 180.341705 
L 228.836667 180.233521 
L 230.776751 179.963706 
L 232.716835 179.894345 
L 234.65692 178.879287 
L 236.597004 178.483393 
L 238.537089 178.296577 
L 244.357342 177.377543 
L 246.297426 176.259563 
L 248.237511 175.819218 
L 250.177595 175.572429 
L 252.117679 174.172212 
L 254.057764 174.090208 
L 255.997848 173.677114 
L 257.937932 173.627479 
L 261.818101 172.901242 
L 267.638354 172.61227 
L 271.518523 171.130304 
L 275.398692 170.531492 
L 277.338776 170.514137 
L 279.278861 170.09 
L 281.218945 169.849332 
L 288.979283 169.784113 
L 290.919367 169.077772 
L 292.859451 168.984067 
L 296.73962 167.663554 
L 302.559873 166.870248 
L 304.499958 166.743572 
L 308.380127 165.741024 
L 310.320211 165.646139 
L 314.20038 164.866312 
L 316.140464 164.846942 
L 318.080549 164.46103 
L 320.020633 164.450282 
L 321.960717 164.113551 
L 323.900802 163.411393 
L 327.78097 163.146323 
L 329.721055 162.909762 
L 331.661139 162.385065 
L 333.601224 162.227553 
L 335.541308 161.779418 
L 337.481392 161.775841 
L 341.361561 160.645819 
L 343.301646 160.161849 
L 345.24173 156.873853 
L 347.181814 155.766088 
L 349.121899 153.245839 
L 351.061983 140.49597 
L 353.002068 132.878517 
L 354.942152 132.112102 
L 356.882236 130.665454 
L 358.822321 130.629797 
L 360.762405 129.742811 
L 362.702489 128.567476 
L 364.642574 126.960149 
L 366.582658 123.555318 
L 368.522743 121.043575 
L 370.462827 121.041772 
L 372.402911 120.150776 
L 374.342996 119.92005 
L 376.28308 118.541356 
L 378.223165 117.818126 
L 380.163249 117.795501 
L 382.103333 117.383303 
L 384.043418 114.985768 
L 385.983502 114.850882 
L 387.923586 114.089312 
L 389.863671 113.956186 
L 391.803755 113.288514 
L 393.74384 113.036529 
L 395.683924 112.916813 
L 399.564093 110.718528 
L 401.504177 110.365409 
L 403.444262 109.67593 
L 405.384346 109.518186 
L 407.32443 108.449673 
L 409.264515 108.390096 
L 418.964937 106.64894 
L 420.905021 106.506897 
L 422.845105 105.956497 
L 424.78519 105.894268 
L 426.725274 105.517349 
L 428.665359 105.505909 
L 430.605443 105.179664 
L 436.425696 104.783729 
L 438.365781 104.265202 
L 440.305865 104.225344 
L 442.245949 103.823859 
L 444.186034 103.647818 
L 446.126118 103.630777 
L 450.006287 102.805333 
L 451.946371 101.625747 
L 453.886456 99.910808 
L 455.82654 99.495623 
L 457.766624 99.485751 
L 459.706709 98.636816 
L 463.586878 98.449895 
L 465.526962 98.093147 
L 467.467046 97.953887 
L 469.407131 96.557057 
L 471.347215 96.430536 
L 473.2873 96.18538 
L 475.227384 96.059845 
L 477.167468 95.462048 
L 479.107553 95.418459 
L 481.047637 94.22832 
L 482.987722 93.822968 
L 486.86789 93.553615 
L 488.807975 93.408475 
L 490.748059 92.319125 
L 492.688143 92.317134 
L 494.628228 91.075563 
L 496.568312 91.03393 
L 498.508397 90.160977 
L 506.268734 89.036944 
L 508.208819 88.083251 
L 510.148903 87.988002 
L 512.088987 87.219573 
L 514.029072 85.919074 
L 515.969156 84.249607 
L 517.909241 83.774197 
L 519.849325 83.499971 
L 521.789409 82.768474 
L 523.729494 80.948903 
L 525.669578 80.796775 
L 527.609662 77.379984 
L 529.549747 69.708436 
L 531.489831 68.399526 
L 533.429916 40.655467 
L 535.37 28.301818 
L 535.37 28.301818 
" style="fill:none;stroke:#9467bd;stroke-linecap:square;"/>
   </g>
   <g id="legend_1">
    <g id="patch_3">
     <path d="M 60.7434 57.458441 
L 266.929382 57.458441 
Q 269.261782 57.458441 269.261782 55.126041 
L 269.261782 25.8034 
Q 269.261782 23.471 266.929382 23.471 
L 60.7434 23.471 
Q 58.411 23.471 58.411 25.8034 
L 58.411 55.126041 
Q 58.411 57.458441 60.7434 57.458441 
z
" style="fill:#ffffff;opacity:0.8;stroke:#cccccc;stroke-linejoin:miter;"/>
    </g>
    <g id="line2d_16">
     <path d="M 63.0758 32.505406 
L 86.3998 32.505406 
" style="fill:none;stroke:#1f77b4;stroke-linecap:square;stroke-width:2;"/>
    </g>
    <g id="line2d_17"/>
    <g id="text_12">
     <!-- MARKET -->
     <defs>
      <path d="M 54.6875 0 
L 54.6875 45.90625 
Q 54.6875 48.390625 54.734375 50.96875 
Q 54.78125 53.5625 54.828125 55.71875 
Q 54.9375 58.203125 55.078125 60.546875 
Q 54.546875 58.0625 53.90625 55.609375 
Q 53.90625 55.609375 52.734375 51.171875 
Q 52.15625 48.78125 51.515625 46.875 
L 36.96875 0 
L 31.59375 0 
L 16.796875 46.875 
Q 16.546875 47.609375 16.3125 48.578125 
L 15.765625 50.6875 
L 15.140625 52.9375 
L 14.546875 55.171875 
Q 13.875 57.765625 13.234375 60.546875 
Q 13.28125 57.8125 13.375 55.125 
Q 13.484375 52.828125 13.5 50.3125 
Q 13.53125 47.796875 13.53125 45.90625 
L 13.53125 0 
L 6.734375 0 
L 6.734375 68.796875 
L 16.796875 68.796875 
L 31.78125 21.09375 
Q 32.078125 20.125 32.46875 18.578125 
Q 32.859375 17.046875 33.21875 15.421875 
Q 33.59375 13.8125 33.890625 12.375 
Q 34.1875 10.9375 34.328125 10.15625 
Q 34.421875 10.9375 34.734375 12.40625 
Q 35.0625 13.875 35.5 15.484375 
L 36.328125 18.609375 
Q 36.71875 20.125 37.0625 21.09375 
L 51.765625 68.796875 
L 61.578125 68.796875 
L 61.578125 0 
z
" id="LiberationSansNarrow-77"/>
      <path d="M 46.734375 0 
L 40.28125 20.125 
L 14.546875 20.125 
L 8.109375 0 
L 0.140625 0 
L 23.1875 68.796875 
L 31.890625 68.796875 
L 54.546875 0 
z
M 30.765625 50.09375 
Q 30.125 52.046875 29.546875 54.046875 
L 28.515625 57.71875 
L 27.734375 60.453125 
Q 27.4375 61.53125 27.4375 61.765625 
Q 27.34375 61.53125 27.078125 60.40625 
Q 26.8125 59.28125 26.375 57.625 
L 25.296875 53.953125 
L 24.125 50 
L 16.890625 27.390625 
L 37.984375 27.390625 
z
" id="LiberationSansNarrow-65"/>
      <path d="M 46.578125 0 
L 31.9375 28.5625 
L 14.359375 28.5625 
L 14.359375 0 
L 6.734375 0 
L 6.734375 68.796875 
L 33.25 68.796875 
Q 38.03125 68.796875 41.734375 67.453125 
Q 45.453125 66.109375 47.96875 63.5625 
Q 50.484375 61.03125 51.796875 57.375 
Q 53.125 53.71875 53.125 49.125 
Q 53.125 45.84375 52.34375 42.671875 
Q 51.5625 39.5 49.875 36.859375 
Q 48.1875 34.234375 45.59375 32.328125 
Q 43.015625 30.421875 39.359375 29.640625 
L 55.375 0 
z
M 45.453125 49.03125 
Q 45.453125 52.15625 44.578125 54.4375 
Q 43.703125 56.734375 42.015625 58.265625 
Q 40.328125 59.8125 37.9375 60.5625 
Q 35.546875 61.328125 32.46875 61.328125 
L 14.359375 61.328125 
L 14.359375 35.9375 
L 32.8125 35.9375 
Q 36.078125 35.9375 38.5 36.9375 
Q 40.921875 37.9375 42.453125 39.6875 
Q 44 41.453125 44.71875 43.84375 
Q 45.453125 46.234375 45.453125 49.03125 
z
" id="LiberationSansNarrow-82"/>
      <path d="M 44.28125 0 
L 21.734375 33.203125 
L 14.359375 26.375 
L 14.359375 0 
L 6.734375 0 
L 6.734375 68.796875 
L 14.359375 68.796875 
L 14.359375 34.328125 
L 41.546875 68.796875 
L 50.59375 68.796875 
L 26.5625 38.921875 
L 53.765625 0 
z
" id="LiberationSansNarrow-75"/>
      <path d="M 6.734375 0 
L 6.734375 68.796875 
L 49.515625 68.796875 
L 49.515625 61.1875 
L 14.359375 61.1875 
L 14.359375 39.109375 
L 47.125 39.109375 
L 47.125 31.59375 
L 14.359375 31.59375 
L 14.359375 7.625 
L 51.171875 7.625 
L 51.171875 0 
z
" id="LiberationSansNarrow-69"/>
      <path d="M 28.8125 61.1875 
L 28.8125 0 
L 21.234375 0 
L 21.234375 61.1875 
L 1.859375 61.1875 
L 1.859375 68.796875 
L 48.1875 68.796875 
L 48.1875 61.1875 
z
" id="LiberationSansNarrow-84"/>
     </defs>
     <g transform="translate(95.7294 36.587106)scale(0.11662 -0.11662)">
      <use xlink:href="#LiberationSansNarrow-77"/>
      <use x="68.310547" xlink:href="#LiberationSansNarrow-65"/>
      <use x="122.998047" xlink:href="#LiberationSansNarrow-82"/>
      <use x="182.177734" xlink:href="#LiberationSansNarrow-75"/>
      <use x="236.865234" xlink:href="#LiberationSansNarrow-69"/>
      <use x="291.552734" xlink:href="#LiberationSansNarrow-84"/>
     </g>
    </g>
    <g id="line2d_18">
     <path d="M 63.0758 46.292076 
L 86.3998 46.292076 
" style="fill:none;stroke:#ff7f0e;stroke-linecap:square;"/>
    </g>
    <g id="line2d_19"/>
    <g id="text_13">
     <!-- Lcap -->
     <defs>
      <path d="M 6.734375 0 
L 6.734375 68.796875 
L 14.359375 68.796875 
L 14.359375 7.625 
L 42.875 7.625 
L 42.875 0 
z
" id="LiberationSansNarrow-76"/>
      <path d="M 11.03125 26.65625 
Q 11.03125 22.125 11.5625 18.3125 
Q 12.109375 14.5 13.375 11.734375 
Q 14.65625 8.984375 16.75 7.46875 
Q 18.84375 5.953125 21.96875 5.953125 
Q 25.828125 5.953125 28.390625 8.484375 
Q 30.953125 11.03125 31.546875 16.3125 
L 38.875 15.71875 
Q 38.53125 12.453125 37.296875 9.421875 
Q 36.078125 6.390625 34.03125 4.09375 
Q 31.984375 1.8125 29 0.40625 
Q 26.03125 -0.984375 22.171875 -0.984375 
Q 17.09375 -0.984375 13.5 1.109375 
Q 9.90625 3.21875 7.6875 6.90625 
Q 5.46875 10.59375 4.46875 15.59375 
Q 3.46875 20.609375 3.46875 26.46875 
Q 3.46875 31.78125 4.203125 35.859375 
Q 4.9375 39.9375 6.21875 42.984375 
Q 7.515625 46.046875 9.265625 48.125 
Q 11.03125 50.203125 13.109375 51.4375 
Q 15.1875 52.6875 17.453125 53.25 
Q 19.734375 53.8125 22.078125 53.8125 
Q 25.734375 53.8125 28.5625 52.59375 
Q 31.390625 51.375 33.46875 49.25 
Q 35.546875 47.125 36.8125 44.234375 
Q 38.09375 41.359375 38.625 38.03125 
L 31.203125 37.359375 
Q 30.671875 41.75 28.375 44.328125 
Q 26.078125 46.921875 21.875 46.921875 
Q 18.796875 46.921875 16.71875 45.671875 
Q 14.65625 44.4375 13.375 41.921875 
Q 12.109375 39.40625 11.5625 35.59375 
Q 11.03125 31.78125 11.03125 26.65625 
z
" id="LiberationSansNarrow-99"/>
      <path d="M 16.546875 -0.984375 
Q 10.015625 -0.984375 6.734375 3.21875 
Q 3.46875 7.421875 3.46875 14.75 
Q 3.46875 19.96875 5.09375 23.3125 
Q 6.734375 26.65625 9.34375 28.5625 
Q 11.96875 30.46875 15.328125 31.203125 
Q 18.703125 31.9375 22.171875 32.03125 
L 31.9375 32.234375 
L 31.9375 35.109375 
Q 31.9375 38.375 31.375 40.671875 
Q 30.8125 42.96875 29.640625 44.375 
Q 28.46875 45.796875 26.734375 46.453125 
Q 25 47.125 22.609375 47.125 
Q 20.515625 47.125 18.84375 46.75 
Q 17.1875 46.390625 15.9375 45.4375 
Q 14.703125 44.484375 13.9375 42.84375 
Q 13.1875 41.21875 12.9375 38.71875 
L 5.421875 39.546875 
Q 5.8125 42.671875 6.9375 45.28125 
Q 8.0625 47.90625 10.109375 49.796875 
Q 12.15625 51.703125 15.25 52.75 
Q 18.359375 53.8125 22.796875 53.8125 
Q 30.953125 53.8125 35.078125 49.234375 
Q 39.203125 44.671875 39.203125 36.03125 
L 39.203125 13.28125 
Q 39.203125 9.375 40.03125 7.390625 
Q 40.875 5.421875 43.265625 5.421875 
Q 43.84375 5.421875 44.453125 5.515625 
Q 45.0625 5.609375 45.609375 5.765625 
L 45.609375 0.296875 
Q 44.234375 -0.09375 42.890625 -0.28125 
Q 41.546875 -0.484375 40.046875 -0.484375 
Q 37.984375 -0.484375 36.515625 0.171875 
Q 35.0625 0.828125 34.15625 2.171875 
Q 33.25 3.515625 32.765625 5.484375 
Q 32.28125 7.46875 32.125 10.109375 
L 31.9375 10.109375 
Q 30.765625 7.5625 29.375 5.515625 
Q 27.984375 3.46875 26.140625 2.03125 
Q 24.3125 0.59375 21.9375 -0.1875 
Q 19.578125 -0.984375 16.546875 -0.984375 
z
M 18.21875 5.609375 
Q 21.6875 5.609375 24.25 7.140625 
Q 26.8125 8.6875 28.515625 11.078125 
Q 30.21875 13.484375 31.078125 16.3125 
Q 31.9375 19.140625 31.9375 21.734375 
L 31.9375 26.078125 
L 24.03125 25.875 
Q 21.390625 25.828125 19 25.40625 
Q 16.609375 25 14.8125 23.78125 
Q 13.03125 22.5625 11.953125 20.359375 
Q 10.890625 18.171875 10.890625 14.59375 
Q 10.890625 10.296875 12.796875 7.953125 
Q 14.703125 5.609375 18.21875 5.609375 
z
" id="LiberationSansNarrow-97"/>
      <path d="M 42.140625 26.65625 
Q 42.140625 20.65625 41.359375 15.578125 
Q 40.578125 10.5 38.6875 6.828125 
Q 36.8125 3.171875 33.765625 1.09375 
Q 30.71875 -0.984375 26.21875 -0.984375 
Q 21.578125 -0.984375 18.078125 1.171875 
Q 14.59375 3.328125 12.796875 8.203125 
L 12.546875 8.203125 
Q 12.59375 8.109375 12.609375 7.328125 
Q 12.640625 6.546875 12.671875 5.375 
Q 12.703125 4.203125 12.71875 2.75 
Q 12.75 1.3125 12.75 -0.09375 
L 12.75 -20.75 
L 5.515625 -20.75 
L 5.515625 42.046875 
Q 5.515625 43.953125 5.484375 45.703125 
Q 5.46875 47.46875 5.4375 48.90625 
Q 5.421875 50.34375 5.375 51.359375 
Q 5.328125 52.390625 5.28125 52.828125 
L 12.25 52.828125 
Q 12.3125 52.6875 12.359375 51.8125 
L 12.5 49.703125 
Q 12.546875 48.4375 12.59375 47.015625 
Q 12.640625 45.609375 12.640625 44.34375 
L 12.796875 44.34375 
Q 13.765625 46.875 15.0625 48.65625 
Q 16.359375 50.4375 18.015625 51.578125 
Q 19.671875 52.734375 21.671875 53.25 
Q 23.6875 53.765625 26.21875 53.765625 
Q 30.71875 53.765625 33.765625 51.8125 
Q 36.8125 49.859375 38.6875 46.3125 
Q 40.578125 42.78125 41.359375 37.765625 
Q 42.140625 32.765625 42.140625 26.65625 
z
M 34.578125 26.46875 
Q 34.578125 31.34375 34.109375 35.15625 
Q 33.640625 38.96875 32.4375 41.59375 
Q 31.25 44.234375 29.296875 45.59375 
Q 27.34375 46.96875 24.359375 46.96875 
Q 21.96875 46.96875 19.84375 46.140625 
Q 17.71875 45.3125 16.125 42.96875 
Q 14.546875 40.625 13.640625 36.5 
Q 12.75 32.375 12.75 25.78125 
Q 12.75 20.171875 13.5 16.28125 
Q 14.265625 12.40625 15.71875 10.015625 
Q 17.1875 7.625 19.328125 6.5625 
Q 21.484375 5.515625 24.3125 5.515625 
Q 27.34375 5.515625 29.296875 6.921875 
Q 31.25 8.34375 32.4375 11.03125 
Q 33.640625 13.71875 34.109375 17.59375 
Q 34.578125 21.484375 34.578125 26.46875 
z
" id="LiberationSansNarrow-112"/>
     </defs>
     <g transform="translate(95.7294 50.373776)scale(0.11662 -0.11662)">
      <use xlink:href="#LiberationSansNarrow-76"/>
      <use x="45.605469" xlink:href="#LiberationSansNarrow-99"/>
      <use x="86.621094" xlink:href="#LiberationSansNarrow-97"/>
      <use x="132.226562" xlink:href="#LiberationSansNarrow-112"/>
     </g>
    </g>
    <g id="line2d_20">
     <path d="M 147.235352 32.505406 
L 170.559352 32.505406 
" style="fill:none;stroke:#2ca02c;stroke-linecap:square;"/>
    </g>
    <g id="line2d_21"/>
    <g id="text_14">
     <!-- Lpb -->
     <defs>
      <path d="M 42.140625 26.65625 
Q 42.140625 -0.984375 26.21875 -0.984375 
Q 21.296875 -0.984375 18.046875 1.1875 
Q 14.796875 3.375 12.75 8.203125 
L 12.640625 8.203125 
Q 12.640625 6.9375 12.59375 5.5625 
Q 12.546875 4.203125 12.5 3.03125 
L 12.359375 1.03125 
Q 12.3125 0.203125 12.25 0 
L 5.28125 0 
Q 5.328125 0.4375 5.375 1.484375 
Q 5.421875 2.546875 5.4375 4 
Q 5.46875 5.46875 5.484375 7.21875 
Q 5.515625 8.984375 5.515625 10.890625 
L 5.515625 72.46875 
L 12.75 72.46875 
L 12.75 51.8125 
Q 12.75 50.34375 12.71875 49 
Q 12.703125 47.65625 12.640625 46.625 
Q 12.59375 45.40625 12.546875 44.34375 
L 12.75 44.34375 
Q 14.75 49.421875 18.046875 51.609375 
Q 21.34375 53.8125 26.21875 53.8125 
Q 34.421875 53.8125 38.28125 47.0625 
Q 42.140625 40.328125 42.140625 26.65625 
z
M 34.578125 26.375 
Q 34.578125 31.84375 34.03125 35.75 
Q 33.5 39.65625 32.25 42.15625 
Q 31 44.671875 29.078125 45.84375 
Q 27.15625 47.015625 24.359375 47.015625 
Q 21.53125 47.015625 19.359375 45.890625 
Q 17.1875 44.78125 15.71875 42.28125 
Q 14.265625 39.796875 13.5 35.734375 
Q 12.75 31.6875 12.75 25.828125 
Q 12.75 20.171875 13.5 16.3125 
Q 14.265625 12.453125 15.71875 10.03125 
Q 17.1875 7.625 19.328125 6.5625 
Q 21.484375 5.515625 24.3125 5.515625 
Q 26.953125 5.515625 28.875 6.640625 
Q 30.8125 7.765625 32.078125 10.25 
Q 33.34375 12.75 33.953125 16.71875 
Q 34.578125 20.703125 34.578125 26.375 
z
" id="LiberationSansNarrow-98"/>
     </defs>
     <g transform="translate(179.888952 36.587106)scale(0.11662 -0.11662)">
      <use xlink:href="#LiberationSansNarrow-76"/>
      <use x="45.605469" xlink:href="#LiberationSansNarrow-112"/>
      <use x="91.210938" xlink:href="#LiberationSansNarrow-98"/>
     </g>
    </g>
    <g id="line2d_22">
     <path d="M 147.235352 46.292076 
L 170.559352 46.292076 
" style="fill:none;stroke:#d62728;stroke-linecap:square;"/>
    </g>
    <g id="line2d_23"/>
    <g id="text_15">
     <!-- Lgro -->
     <defs>
      <path d="M 21.921875 -20.75 
Q 18.21875 -20.75 15.328125 -19.8125 
Q 12.453125 -18.890625 10.390625 -17.15625 
Q 8.34375 -15.4375 7.078125 -13.03125 
Q 5.8125 -10.640625 5.21875 -7.71875 
L 12.5 -6.453125 
Q 13.234375 -10.109375 15.671875 -12.078125 
Q 18.109375 -14.0625 22.125 -14.0625 
Q 24.5625 -14.0625 26.5625 -13.234375 
Q 28.5625 -12.40625 29.96875 -10.5625 
Q 31.390625 -8.734375 32.140625 -5.796875 
Q 32.90625 -2.875 32.90625 1.3125 
L 32.90625 9.8125 
L 32.8125 9.8125 
Q 32.03125 7.8125 30.859375 5.984375 
Q 29.6875 4.15625 27.96875 2.734375 
Q 26.265625 1.3125 24.015625 0.453125 
Q 21.78125 -0.390625 18.890625 -0.390625 
Q 14.796875 -0.390625 11.84375 1.296875 
Q 8.890625 2.984375 7.03125 6.34375 
Q 5.171875 9.71875 4.3125 14.71875 
Q 3.46875 19.734375 3.46875 26.3125 
Q 3.46875 32.671875 4.3125 37.75 
Q 5.171875 42.828125 7.09375 46.359375 
Q 9.03125 49.90625 12.125 51.78125 
Q 15.234375 53.65625 19.671875 53.65625 
Q 24.265625 53.65625 27.65625 51.09375 
Q 31.0625 48.53125 32.90625 43.796875 
L 33.015625 43.796875 
Q 33.015625 45.015625 33.0625 46.53125 
Q 33.109375 48.046875 33.171875 49.390625 
Q 33.25 50.734375 33.328125 51.703125 
Q 33.40625 52.6875 33.5 52.828125 
L 40.328125 52.828125 
Q 40.28125 52.390625 40.234375 51.34375 
Q 40.1875 50.296875 40.15625 48.828125 
Q 40.140625 47.359375 40.109375 45.578125 
Q 40.09375 43.796875 40.09375 41.890625 
L 40.09375 1.515625 
Q 40.09375 -9.578125 35.625 -15.15625 
Q 31.15625 -20.75 21.921875 -20.75 
z
M 32.90625 26.421875 
Q 32.90625 31.9375 31.921875 35.859375 
Q 30.953125 39.796875 29.34375 42.28125 
Q 27.734375 44.78125 25.6875 45.953125 
Q 23.640625 47.125 21.484375 47.125 
Q 18.703125 47.125 16.71875 45.953125 
Q 14.75 44.78125 13.421875 42.265625 
Q 12.109375 39.75 11.5 35.8125 
Q 10.890625 31.890625 10.890625 26.421875 
Q 10.890625 20.703125 11.5 16.8125 
Q 12.109375 12.9375 13.40625 10.546875 
Q 14.703125 8.15625 16.65625 7.125 
Q 18.609375 6.109375 21.34375 6.109375 
Q 23.484375 6.109375 25.5625 7.21875 
Q 27.640625 8.34375 29.265625 10.78125 
Q 30.90625 13.234375 31.90625 17.09375 
Q 32.90625 20.953125 32.90625 26.421875 
z
" id="LiberationSansNarrow-103"/>
      <path d="M 5.671875 0 
L 5.671875 40.53125 
Q 5.671875 40.53125 5.671875 43.953125 
Q 5.671875 45.65625 5.609375 47.265625 
Q 5.5625 48.875 5.515625 50.28125 
Q 5.46875 51.703125 5.421875 52.828125 
L 12.25 52.828125 
Q 12.3125 51.703125 12.359375 50.265625 
Q 12.40625 48.828125 12.46875 47.3125 
Q 12.546875 45.796875 12.546875 44.4375 
L 12.546875 42.046875 
L 12.75 42.046875 
Q 13.53125 45.0625 14.359375 47.28125 
Q 15.1875 49.515625 16.359375 50.953125 
Q 17.53125 52.390625 19.140625 53.09375 
Q 20.75 53.8125 23 53.8125 
Q 23.875 53.8125 24.671875 53.640625 
Q 25.484375 53.46875 25.921875 53.328125 
L 25.921875 45.265625 
Q 25.203125 45.515625 24.25 45.625 
Q 23.296875 45.75 22.078125 45.75 
Q 19.578125 45.75 17.84375 44.375 
Q 16.109375 43.015625 15.015625 40.59375 
Q 13.921875 38.1875 13.40625 34.84375 
Q 12.890625 31.5 12.890625 27.546875 
L 12.890625 0 
z
" id="LiberationSansNarrow-114"/>
      <path d="M 42.140625 26.46875 
Q 42.140625 12.59375 37.125 5.796875 
Q 32.125 -0.984375 22.609375 -0.984375 
Q 18.0625 -0.984375 14.515625 0.671875 
Q 10.984375 2.34375 8.515625 5.765625 
Q 6.0625 9.1875 4.765625 14.328125 
Q 3.46875 19.484375 3.46875 26.46875 
Q 3.46875 53.8125 22.859375 53.8125 
Q 27.875 53.8125 31.5625 52.09375 
Q 35.25 50.390625 37.59375 46.96875 
Q 39.9375 43.5625 41.03125 38.421875 
Q 42.140625 33.296875 42.140625 26.46875 
z
M 34.578125 26.46875 
Q 34.578125 32.625 33.8125 36.625 
Q 33.0625 40.625 31.546875 43.015625 
Q 30.03125 45.40625 27.859375 46.359375 
Q 25.6875 47.3125 23 47.3125 
Q 20.21875 47.3125 17.984375 46.3125 
Q 15.765625 45.3125 14.203125 42.890625 
Q 12.640625 40.484375 11.828125 36.46875 
Q 11.03125 32.46875 11.03125 26.46875 
Q 11.03125 20.3125 11.90625 16.28125 
Q 12.796875 12.25 14.328125 9.859375 
Q 15.875 7.46875 17.96875 6.484375 
Q 20.0625 5.515625 22.5625 5.515625 
Q 25.34375 5.515625 27.5625 6.46875 
Q 29.78125 7.421875 31.34375 9.8125 
Q 32.90625 12.203125 33.734375 16.25 
Q 34.578125 20.3125 34.578125 26.46875 
z
" id="LiberationSansNarrow-111"/>
     </defs>
     <g transform="translate(179.888952 50.373776)scale(0.11662 -0.11662)">
      <use xlink:href="#LiberationSansNarrow-76"/>
      <use x="45.605469" xlink:href="#LiberationSansNarrow-103"/>
      <use x="91.210938" xlink:href="#LiberationSansNarrow-114"/>
      <use x="118.505859" xlink:href="#LiberationSansNarrow-111"/>
     </g>
    </g>
    <g id="line2d_24">
     <path d="M 210.691209 32.505406 
L 234.015209 32.505406 
" style="fill:none;stroke:#9467bd;stroke-linecap:square;"/>
    </g>
    <g id="line2d_25"/>
    <g id="text_16">
     <!-- mom -->
     <defs>
      <path d="M 30.765625 0 
L 30.765625 33.5 
Q 30.765625 37.359375 30.34375 39.9375 
Q 29.9375 42.53125 29 44.109375 
Q 28.078125 45.703125 26.5625 46.359375 
Q 25.046875 47.015625 22.796875 47.015625 
Q 20.515625 47.015625 18.671875 45.921875 
Q 16.84375 44.828125 15.546875 42.75 
Q 14.265625 40.671875 13.546875 37.625 
Q 12.84375 34.578125 12.84375 30.609375 
L 12.84375 0 
L 5.671875 0 
L 5.671875 41.546875 
Q 5.671875 41.546875 5.671875 45.015625 
Q 5.671875 46.875 5.609375 48.5 
Q 5.5625 50.140625 5.515625 51.3125 
Q 5.46875 52.484375 5.46875 52.828125 
L 12.25 52.828125 
Q 12.3125 52.59375 12.328125 51.515625 
Q 12.359375 50.4375 12.421875 49.046875 
Q 12.5 47.65625 12.515625 46.21875 
Q 12.546875 44.78125 12.546875 43.796875 
L 12.703125 43.796875 
Q 13.671875 46.09375 14.796875 47.953125 
Q 15.921875 49.8125 17.40625 51.09375 
Q 18.890625 52.390625 20.84375 53.09375 
Q 22.796875 53.8125 25.34375 53.8125 
Q 30.28125 53.8125 33.125 51.421875 
Q 35.984375 49.03125 37.109375 43.796875 
L 37.25 43.796875 
Q 38.234375 46.09375 39.421875 47.953125 
Q 40.625 49.8125 42.203125 51.09375 
Q 43.796875 52.390625 45.796875 53.09375 
Q 47.796875 53.8125 50.390625 53.8125 
Q 53.65625 53.8125 56.03125 52.734375 
Q 58.40625 51.65625 59.9375 49.40625 
Q 61.46875 47.171875 62.171875 43.625 
Q 62.890625 40.09375 62.890625 35.203125 
L 62.890625 0 
L 55.765625 0 
L 55.765625 33.5 
Q 55.765625 37.359375 55.375 39.9375 
Q 54.984375 42.53125 54.03125 44.109375 
Q 53.078125 45.703125 51.5625 46.359375 
Q 50.046875 47.015625 47.859375 47.015625 
Q 45.5625 47.015625 43.71875 45.96875 
Q 41.890625 44.921875 40.578125 42.875 
Q 39.265625 40.828125 38.578125 37.75 
Q 37.890625 34.671875 37.890625 30.609375 
L 37.890625 0 
z
" id="LiberationSansNarrow-109"/>
     </defs>
     <g transform="translate(243.344809 36.587106)scale(0.11662 -0.11662)">
      <use xlink:href="#LiberationSansNarrow-109"/>
      <use x="68.310547" xlink:href="#LiberationSansNarrow-111"/>
      <use x="113.916016" xlink:href="#LiberationSansNarrow-109"/>
     </g>
    </g>
   </g>
  </g>
 </g>
 <defs>
  <clipPath id="pd438b0b6ba">
   <rect height="234.56" width="505.78" x="52.58" y="17.64"/>
  </clipPath>
 </defs>
</svg>
