<?xml version="1.0" encoding="utf-8" standalone="no"?>
<!DOCTYPE svg PUBLIC "-//W3C//DTD SVG 1.1//EN"
  "http://www.w3.org/Graphics/SVG/1.1/DTD/svg11.dtd">
<!-- Created with matplotlib (https://matplotlib.org/) -->
<svg height="288pt" version="1.1" viewBox="0 0 576 288" width="576pt" xmlns="http://www.w3.org/2000/svg" xmlns:xlink="http://www.w3.org/1999/xlink">
 <defs>
  <style type="text/css">
*{stroke-linecap:butt;stroke-linejoin:round;}
  </style>
 </defs>
 <g id="figure_1">
  <g id="patch_1">
   <path d="M 0 288 
L 576 288 
L 576 0 
L 0 0 
z
" style="fill:#ffffff;"/>
  </g>
  <g id="axes_1">
   <g id="patch_2">
    <path d="M 65.36 252.2 
L 558.36 252.2 
L 558.36 17.64 
L 65.36 17.64 
z
" style="fill:#ffffff;"/>
   </g>
   <g id="matplotlib.axis_1">
    <g id="xtick_1">
     <g id="line2d_1">
      <path clip-path="url(#pbe67af7510)" d="M 87.769091 252.2 
L 87.769091 17.64 
" style="fill:none;stroke:#b0b0b0;stroke-dasharray:1.48,0.64;stroke-dashoffset:0;stroke-width:0.4;"/>
     </g>
     <g id="text_1">
      <!-- 0.0 -->
      <defs>
       <path d="M 42.390625 34.421875 
Q 42.390625 24.515625 40.84375 17.75 
Q 39.3125 10.984375 36.640625 6.8125 
Q 33.984375 2.640625 30.390625 0.828125 
Q 26.8125 -0.984375 22.703125 -0.984375 
Q 18.609375 -0.984375 15.03125 0.828125 
Q 11.46875 2.640625 8.828125 6.78125 
Q 6.203125 10.9375 4.703125 17.703125 
Q 3.21875 24.46875 3.21875 34.421875 
Q 3.21875 44.828125 4.703125 51.640625 
Q 6.203125 58.453125 8.828125 62.5 
Q 11.46875 66.546875 15.078125 68.1875 
Q 18.703125 69.828125 22.953125 69.828125 
Q 27 69.828125 30.53125 68.1875 
Q 34.078125 66.546875 36.71875 62.5 
Q 39.359375 58.453125 40.875 51.640625 
Q 42.390625 44.828125 42.390625 34.421875 
z
M 35.0625 34.421875 
Q 35.0625 42.625 34.28125 48.0625 
Q 33.5 53.515625 31.9375 56.765625 
Q 30.375 60.015625 28.09375 61.359375 
Q 25.828125 62.703125 22.953125 62.703125 
Q 19.921875 62.703125 17.578125 61.328125 
Q 15.234375 59.96875 13.671875 56.71875 
Q 12.109375 53.46875 11.296875 48.015625 
Q 10.5 42.578125 10.5 34.421875 
Q 10.5 26.515625 11.296875 21.09375 
Q 12.109375 15.671875 13.6875 12.375 
Q 15.28125 9.078125 17.578125 7.640625 
Q 19.875 6.203125 22.796875 6.203125 
Q 25.640625 6.203125 27.90625 7.640625 
Q 30.171875 9.078125 31.75 12.375 
Q 33.34375 15.671875 34.203125 21.09375 
Q 35.0625 26.515625 35.0625 34.421875 
z
" id="LiberationSansNarrow-48"/>
       <path d="M 7.46875 0 
L 7.46875 10.6875 
L 15.328125 10.6875 
L 15.328125 0 
z
" id="LiberationSansNarrow-46"/>
      </defs>
      <g transform="translate(79.787997 269.345625)scale(0.14 -0.14)">
       <use xlink:href="#LiberationSansNarrow-48"/>
       <use x="45.605469" xlink:href="#LiberationSansNarrow-46"/>
       <use x="68.408203" xlink:href="#LiberationSansNarrow-48"/>
      </g>
     </g>
    </g>
    <g id="xtick_2">
     <g id="line2d_2">
      <path clip-path="url(#pbe67af7510)" d="M 177.405455 252.2 
L 177.405455 17.64 
" style="fill:none;stroke:#b0b0b0;stroke-dasharray:1.48,0.64;stroke-dashoffset:0;stroke-width:0.4;"/>
     </g>
     <g id="text_2">
      <!-- 0.2 -->
      <defs>
       <path d="M 4.109375 0 
L 4.109375 6.203125 
Q 6.15625 11.921875 9.109375 16.28125 
Q 12.0625 20.65625 15.3125 24.1875 
Q 18.5625 27.734375 21.734375 30.765625 
Q 24.90625 33.796875 27.46875 36.8125 
Q 30.03125 39.84375 31.609375 43.15625 
Q 33.203125 46.484375 33.203125 50.6875 
Q 33.203125 53.609375 32.46875 55.828125 
Q 31.734375 58.0625 30.390625 59.5625 
Q 29.046875 61.078125 27.140625 61.828125 
Q 25.25 62.59375 22.90625 62.59375 
Q 20.75 62.59375 18.84375 61.859375 
Q 16.9375 61.140625 15.453125 59.671875 
Q 13.96875 58.203125 13.03125 56.03125 
Q 12.109375 53.859375 11.8125 50.984375 
L 4.4375 51.8125 
Q 4.78125 55.515625 6.125 58.78125 
Q 7.46875 62.0625 9.78125 64.53125 
Q 12.109375 67 15.359375 68.40625 
Q 18.609375 69.828125 22.90625 69.828125 
Q 27.09375 69.828125 30.390625 68.609375 
Q 33.6875 67.390625 35.9375 64.984375 
Q 38.1875 62.59375 39.40625 59.078125 
Q 40.625 55.5625 40.625 50.984375 
Q 40.625 47.515625 39.59375 44.390625 
Q 38.578125 41.265625 36.859375 38.421875 
Q 35.15625 35.59375 32.90625 32.953125 
Q 30.671875 30.328125 28.21875 27.828125 
L 23.296875 22.859375 
Q 20.796875 20.359375 18.625 17.859375 
Q 16.453125 15.375 14.734375 12.8125 
Q 13.03125 10.25 12.0625 7.46875 
L 41.5 7.46875 
L 41.5 0 
z
" id="LiberationSansNarrow-50"/>
      </defs>
      <g transform="translate(169.424361 269.345625)scale(0.14 -0.14)">
       <use xlink:href="#LiberationSansNarrow-48"/>
       <use x="45.605469" xlink:href="#LiberationSansNarrow-46"/>
       <use x="68.408203" xlink:href="#LiberationSansNarrow-50"/>
      </g>
     </g>
    </g>
    <g id="xtick_3">
     <g id="line2d_3">
      <path clip-path="url(#pbe67af7510)" d="M 267.041818 252.2 
L 267.041818 17.64 
" style="fill:none;stroke:#b0b0b0;stroke-dasharray:1.48,0.64;stroke-dashoffset:0;stroke-width:0.4;"/>
     </g>
     <g id="text_3">
      <!-- 0.4 -->
      <defs>
       <path d="M 35.25 15.578125 
L 35.25 0 
L 28.46875 0 
L 28.46875 15.578125 
L 1.90625 15.578125 
L 1.90625 22.40625 
L 27.6875 68.796875 
L 35.25 68.796875 
L 35.25 22.515625 
L 43.21875 22.515625 
L 43.21875 15.578125 
z
M 28.46875 58.890625 
Q 28.375 58.640625 28.03125 57.90625 
L 27.34375 56.34375 
L 26.5625 54.59375 
Q 26.125 53.65625 25.78125 53.078125 
L 11.328125 27.09375 
Q 11.140625 26.703125 10.75 26.078125 
L 9.96875 24.8125 
L 9.1875 23.484375 
Q 8.796875 22.859375 8.546875 22.515625 
L 28.46875 22.515625 
z
" id="LiberationSansNarrow-52"/>
      </defs>
      <g transform="translate(259.060724 269.345625)scale(0.14 -0.14)">
       <use xlink:href="#LiberationSansNarrow-48"/>
       <use x="45.605469" xlink:href="#LiberationSansNarrow-46"/>
       <use x="68.408203" xlink:href="#LiberationSansNarrow-52"/>
      </g>
     </g>
    </g>
    <g id="xtick_4">
     <g id="line2d_4">
      <path clip-path="url(#pbe67af7510)" d="M 356.678182 252.2 
L 356.678182 17.64 
" style="fill:none;stroke:#b0b0b0;stroke-dasharray:1.48,0.64;stroke-dashoffset:0;stroke-width:0.4;"/>
     </g>
     <g id="text_4">
      <!-- 0.6 -->
      <defs>
       <path d="M 42 22.515625 
Q 42 17.328125 40.828125 13 
Q 39.65625 8.6875 37.359375 5.578125 
Q 35.0625 2.484375 31.640625 0.75 
Q 28.21875 -0.984375 23.78125 -0.984375 
Q 18.84375 -0.984375 15.15625 1.3125 
Q 11.46875 3.609375 9.03125 7.921875 
Q 6.59375 12.25 5.375 18.53125 
Q 4.15625 24.8125 4.15625 32.8125 
Q 4.15625 42 5.546875 48.921875 
Q 6.9375 55.859375 9.515625 60.5 
Q 12.109375 65.140625 15.859375 67.484375 
Q 19.625 69.828125 24.359375 69.828125 
Q 27.25 69.828125 29.765625 69.09375 
Q 32.28125 68.359375 34.328125 66.71875 
Q 36.375 65.09375 37.9375 62.40625 
Q 39.5 59.71875 40.4375 55.8125 
L 33.546875 54.296875 
Q 32.421875 58.734375 29.953125 60.71875 
Q 27.484375 62.703125 24.265625 62.703125 
Q 21.296875 62.703125 18.890625 60.984375 
Q 16.5 59.28125 14.8125 55.875 
Q 13.140625 52.484375 12.234375 47.359375 
Q 11.328125 42.234375 11.328125 35.40625 
Q 13.28125 39.84375 16.84375 42.15625 
Q 20.40625 44.484375 25.046875 44.484375 
Q 28.90625 44.484375 32 42.96875 
Q 35.109375 41.453125 37.328125 38.59375 
Q 39.546875 35.75 40.765625 31.671875 
Q 42 27.59375 42 22.515625 
z
M 34.671875 22.125 
Q 34.671875 25.6875 33.953125 28.5625 
Q 33.25 31.453125 31.8125 33.46875 
Q 30.375 35.5 28.25 36.59375 
Q 26.125 37.703125 23.296875 37.703125 
Q 21.34375 37.703125 19.328125 36.984375 
Q 17.328125 36.28125 15.71875 34.6875 
Q 14.109375 33.109375 13.078125 30.515625 
Q 12.0625 27.9375 12.0625 24.21875 
Q 12.0625 20.40625 12.859375 17.109375 
Q 13.671875 13.8125 15.15625 11.375 
Q 16.65625 8.9375 18.78125 7.515625 
Q 20.90625 6.109375 23.53125 6.109375 
Q 26.125 6.109375 28.203125 7.203125 
Q 30.28125 8.296875 31.71875 10.375 
Q 33.15625 12.453125 33.90625 15.421875 
Q 34.671875 18.40625 34.671875 22.125 
z
" id="LiberationSansNarrow-54"/>
      </defs>
      <g transform="translate(348.697088 269.345625)scale(0.14 -0.14)">
       <use xlink:href="#LiberationSansNarrow-48"/>
       <use x="45.605469" xlink:href="#LiberationSansNarrow-46"/>
       <use x="68.408203" xlink:href="#LiberationSansNarrow-54"/>
      </g>
     </g>
    </g>
    <g id="xtick_5">
     <g id="line2d_5">
      <path clip-path="url(#pbe67af7510)" d="M 446.314545 252.2 
L 446.314545 17.64 
" style="fill:none;stroke:#b0b0b0;stroke-dasharray:1.48,0.64;stroke-dashoffset:0;stroke-width:0.4;"/>
     </g>
     <g id="text_5">
      <!-- 0.8 -->
      <defs>
       <path d="M 42.046875 19.1875 
Q 42.046875 14.796875 40.890625 11.109375 
Q 39.75 7.421875 37.40625 4.734375 
Q 35.0625 2.046875 31.421875 0.53125 
Q 27.78125 -0.984375 22.796875 -0.984375 
Q 17.828125 -0.984375 14.203125 0.53125 
Q 10.59375 2.046875 8.21875 4.703125 
Q 5.859375 7.375 4.703125 11.0625 
Q 3.5625 14.75 3.5625 19.09375 
Q 3.5625 22.859375 4.515625 25.78125 
Q 5.46875 28.71875 7.03125 30.828125 
Q 8.59375 32.953125 10.609375 34.25 
Q 12.640625 35.546875 14.796875 35.984375 
L 14.796875 36.1875 
Q 12.453125 36.859375 10.59375 38.375 
Q 8.734375 39.890625 7.46875 42.015625 
Q 6.203125 44.140625 5.546875 46.71875 
Q 4.890625 49.3125 4.890625 52.203125 
Q 4.890625 55.8125 6.03125 59 
Q 7.171875 62.203125 9.421875 64.625 
Q 11.671875 67.046875 14.984375 68.4375 
Q 18.3125 69.828125 22.65625 69.828125 
Q 27.25 69.828125 30.640625 68.40625 
Q 34.03125 67 36.25 64.578125 
Q 38.484375 62.15625 39.546875 58.9375 
Q 40.625 55.71875 40.625 52.09375 
Q 40.625 49.265625 39.96875 46.671875 
Q 39.3125 44.09375 38.0625 41.96875 
Q 36.8125 39.84375 34.9375 38.34375 
Q 33.0625 36.859375 30.609375 36.28125 
L 30.609375 36.078125 
Q 33.0625 35.59375 35.15625 34.296875 
Q 37.25 33.015625 38.765625 30.890625 
Q 40.28125 28.765625 41.15625 25.828125 
Q 42.046875 22.90625 42.046875 19.1875 
z
M 33.15625 51.609375 
Q 33.15625 54.203125 32.609375 56.34375 
Q 32.078125 58.5 30.828125 60.03125 
Q 29.59375 61.578125 27.59375 62.421875 
Q 25.59375 63.28125 22.65625 63.28125 
Q 19.828125 63.28125 17.875 62.421875 
Q 15.921875 61.578125 14.640625 60.03125 
Q 13.375 58.5 12.8125 56.34375 
Q 12.25 54.203125 12.25 51.609375 
Q 12.25 49.5625 12.6875 47.40625 
Q 13.140625 45.265625 14.3125 43.5 
Q 15.484375 41.75 17.5 40.625 
Q 19.53125 39.5 22.75 39.5 
Q 26.171875 39.5 28.21875 40.625 
Q 30.28125 41.75 31.375 43.5 
Q 32.46875 45.265625 32.8125 47.40625 
Q 33.15625 49.5625 33.15625 51.609375 
z
M 34.578125 20.015625 
Q 34.578125 22.515625 34.015625 24.828125 
Q 33.453125 27.15625 32.078125 28.9375 
Q 30.71875 30.71875 28.421875 31.8125 
Q 26.125 32.90625 22.65625 32.90625 
Q 19.484375 32.90625 17.265625 31.8125 
Q 15.046875 30.71875 13.671875 28.90625 
Q 12.3125 27.09375 11.671875 24.71875 
Q 11.03125 22.359375 11.03125 19.828125 
Q 11.03125 16.65625 11.671875 14.03125 
Q 12.3125 11.421875 13.703125 9.546875 
Q 15.09375 7.671875 17.375 6.640625 
Q 19.671875 5.609375 22.90625 5.609375 
Q 26.171875 5.609375 28.421875 6.640625 
Q 30.671875 7.671875 32.03125 9.546875 
Q 33.40625 11.421875 33.984375 14.078125 
Q 34.578125 16.75 34.578125 20.015625 
z
" id="LiberationSansNarrow-56"/>
      </defs>
      <g transform="translate(438.333452 269.345625)scale(0.14 -0.14)">
       <use xlink:href="#LiberationSansNarrow-48"/>
       <use x="45.605469" xlink:href="#LiberationSansNarrow-46"/>
       <use x="68.408203" xlink:href="#LiberationSansNarrow-56"/>
      </g>
     </g>
    </g>
    <g id="xtick_6">
     <g id="line2d_6">
      <path clip-path="url(#pbe67af7510)" d="M 535.950909 252.2 
L 535.950909 17.64 
" style="fill:none;stroke:#b0b0b0;stroke-dasharray:1.48,0.64;stroke-dashoffset:0;stroke-width:0.4;"/>
     </g>
     <g id="text_6">
      <!-- 1.0 -->
      <defs>
       <path d="M 6.25 0 
L 6.25 7.46875 
L 20.609375 7.46875 
L 20.609375 60.40625 
L 7.90625 49.3125 
L 7.90625 57.625 
L 21.234375 68.796875 
L 27.875 68.796875 
L 27.875 7.46875 
L 41.609375 7.46875 
L 41.609375 0 
z
" id="LiberationSansNarrow-49"/>
      </defs>
      <g transform="translate(527.969815 269.345625)scale(0.14 -0.14)">
       <use xlink:href="#LiberationSansNarrow-49"/>
       <use x="45.605469" xlink:href="#LiberationSansNarrow-46"/>
       <use x="68.408203" xlink:href="#LiberationSansNarrow-48"/>
      </g>
     </g>
    </g>
   </g>
   <g id="matplotlib.axis_2">
    <g id="ytick_1">
     <g id="line2d_7">
      <path clip-path="url(#pbe67af7510)" d="M 65.36 252.246819 
L 558.36 252.246819 
" style="fill:none;stroke:#b0b0b0;stroke-dasharray:1.48,0.64;stroke-dashoffset:0;stroke-width:0.4;"/>
     </g>
     <g id="text_7">
      <!-- 0 -->
      <g transform="translate(51.974688 257.319631)scale(0.14 -0.14)">
       <use xlink:href="#LiberationSansNarrow-48"/>
      </g>
     </g>
    </g>
    <g id="ytick_2">
     <g id="line2d_8">
      <path clip-path="url(#pbe67af7510)" d="M 65.36 217.975835 
L 558.36 217.975835 
" style="fill:none;stroke:#b0b0b0;stroke-dasharray:1.48,0.64;stroke-dashoffset:0;stroke-width:0.4;"/>
     </g>
     <g id="text_8">
      <!-- 200 -->
      <g transform="translate(39.204063 223.048648)scale(0.14 -0.14)">
       <use xlink:href="#LiberationSansNarrow-50"/>
       <use x="45.605469" xlink:href="#LiberationSansNarrow-48"/>
       <use x="91.210938" xlink:href="#LiberationSansNarrow-48"/>
      </g>
     </g>
    </g>
    <g id="ytick_3">
     <g id="line2d_9">
      <path clip-path="url(#pbe67af7510)" d="M 65.36 183.704852 
L 558.36 183.704852 
" style="fill:none;stroke:#b0b0b0;stroke-dasharray:1.48,0.64;stroke-dashoffset:0;stroke-width:0.4;"/>
     </g>
     <g id="text_9">
      <!-- 400 -->
      <g transform="translate(39.204063 188.777664)scale(0.14 -0.14)">
       <use xlink:href="#LiberationSansNarrow-52"/>
       <use x="45.605469" xlink:href="#LiberationSansNarrow-48"/>
       <use x="91.210938" xlink:href="#LiberationSansNarrow-48"/>
      </g>
     </g>
    </g>
    <g id="ytick_4">
     <g id="line2d_10">
      <path clip-path="url(#pbe67af7510)" d="M 65.36 149.433868 
L 558.36 149.433868 
" style="fill:none;stroke:#b0b0b0;stroke-dasharray:1.48,0.64;stroke-dashoffset:0;stroke-width:0.4;"/>
     </g>
     <g id="text_10">
      <!-- 600 -->
      <g transform="translate(39.204063 154.506681)scale(0.14 -0.14)">
       <use xlink:href="#LiberationSansNarrow-54"/>
       <use x="45.605469" xlink:href="#LiberationSansNarrow-48"/>
       <use x="91.210938" xlink:href="#LiberationSansNarrow-48"/>
      </g>
     </g>
    </g>
    <g id="ytick_5">
     <g id="line2d_11">
      <path clip-path="url(#pbe67af7510)" d="M 65.36 115.162885 
L 558.36 115.162885 
" style="fill:none;stroke:#b0b0b0;stroke-dasharray:1.48,0.64;stroke-dashoffset:0;stroke-width:0.4;"/>
     </g>
     <g id="text_11">
      <!-- 800 -->
      <g transform="translate(39.204063 120.235697)scale(0.14 -0.14)">
       <use xlink:href="#LiberationSansNarrow-56"/>
       <use x="45.605469" xlink:href="#LiberationSansNarrow-48"/>
       <use x="91.210938" xlink:href="#LiberationSansNarrow-48"/>
      </g>
     </g>
    </g>
    <g id="ytick_6">
     <g id="line2d_12">
      <path clip-path="url(#pbe67af7510)" d="M 65.36 80.891901 
L 558.36 80.891901 
" style="fill:none;stroke:#b0b0b0;stroke-dasharray:1.48,0.64;stroke-dashoffset:0;stroke-width:0.4;"/>
     </g>
     <g id="text_12">
      <!-- 1000 -->
      <g transform="translate(32.81875 85.964714)scale(0.14 -0.14)">
       <use xlink:href="#LiberationSansNarrow-49"/>
       <use x="45.605469" xlink:href="#LiberationSansNarrow-48"/>
       <use x="91.210938" xlink:href="#LiberationSansNarrow-48"/>
       <use x="136.816406" xlink:href="#LiberationSansNarrow-48"/>
      </g>
     </g>
    </g>
    <g id="ytick_7">
     <g id="line2d_13">
      <path clip-path="url(#pbe67af7510)" d="M 65.36 46.620918 
L 558.36 46.620918 
" style="fill:none;stroke:#b0b0b0;stroke-dasharray:1.48,0.64;stroke-dashoffset:0;stroke-width:0.4;"/>
     </g>
     <g id="text_13">
      <!-- 1200 -->
      <g transform="translate(32.81875 51.69373)scale(0.14 -0.14)">
       <use xlink:href="#LiberationSansNarrow-49"/>
       <use x="45.605469" xlink:href="#LiberationSansNarrow-50"/>
       <use x="91.210938" xlink:href="#LiberationSansNarrow-48"/>
       <use x="136.816406" xlink:href="#LiberationSansNarrow-48"/>
      </g>
     </g>
    </g>
    <g id="text_14">
     <!-- макс. оставание от рынка, % -->
     <defs>
      <path d="M 31.546875 0 
L 25.390625 0 
L 12.40625 46.4375 
Q 12.453125 45.171875 12.515625 43.703125 
Q 12.59375 42.234375 12.59375 40.75 
Q 12.59375 39.265625 12.609375 37.859375 
Q 12.640625 36.46875 12.640625 35.359375 
L 12.640625 0 
L 5.671875 0 
L 5.671875 52.828125 
L 16.890625 52.828125 
L 25.734375 20.5625 
Q 26.65625 17.484375 27.390625 13.796875 
Q 28.125 10.109375 28.421875 6.59375 
Q 28.8125 10.109375 29.515625 13.796875 
Q 30.21875 17.484375 31.15625 20.5625 
L 39.984375 52.828125 
L 50.734375 52.828125 
L 50.734375 0 
L 43.796875 0 
L 43.796875 35.359375 
Q 43.796875 36.421875 43.8125 37.890625 
Q 43.84375 39.359375 43.921875 40.921875 
Q 44 42.484375 44.015625 43.9375 
Q 44.046875 45.40625 44.140625 46.53125 
z
" id="LiberationSansNarrow-1084"/>
      <path d="M 16.546875 -0.984375 
Q 10.015625 -0.984375 6.734375 3.21875 
Q 3.46875 7.421875 3.46875 14.75 
Q 3.46875 19.96875 5.09375 23.3125 
Q 6.734375 26.65625 9.34375 28.5625 
Q 11.96875 30.46875 15.328125 31.203125 
Q 18.703125 31.9375 22.171875 32.03125 
L 31.9375 32.234375 
L 31.9375 35.109375 
Q 31.9375 38.375 31.375 40.671875 
Q 30.8125 42.96875 29.640625 44.375 
Q 28.46875 45.796875 26.734375 46.453125 
Q 25 47.125 22.609375 47.125 
Q 20.515625 47.125 18.84375 46.75 
Q 17.1875 46.390625 15.9375 45.4375 
Q 14.703125 44.484375 13.9375 42.84375 
Q 13.1875 41.21875 12.9375 38.71875 
L 5.421875 39.546875 
Q 5.8125 42.671875 6.9375 45.28125 
Q 8.0625 47.90625 10.109375 49.796875 
Q 12.15625 51.703125 15.25 52.75 
Q 18.359375 53.8125 22.796875 53.8125 
Q 30.953125 53.8125 35.078125 49.234375 
Q 39.203125 44.671875 39.203125 36.03125 
L 39.203125 13.28125 
Q 39.203125 9.375 40.03125 7.390625 
Q 40.875 5.421875 43.265625 5.421875 
Q 43.84375 5.421875 44.453125 5.515625 
Q 45.0625 5.609375 45.609375 5.765625 
L 45.609375 0.296875 
Q 44.234375 -0.09375 42.890625 -0.28125 
Q 41.546875 -0.484375 40.046875 -0.484375 
Q 37.984375 -0.484375 36.515625 0.171875 
Q 35.0625 0.828125 34.15625 2.171875 
Q 33.25 3.515625 32.765625 5.484375 
Q 32.28125 7.46875 32.125 10.109375 
L 31.9375 10.109375 
Q 30.765625 7.5625 29.375 5.515625 
Q 27.984375 3.46875 26.140625 2.03125 
Q 24.3125 0.59375 21.9375 -0.1875 
Q 19.578125 -0.984375 16.546875 -0.984375 
z
M 18.21875 5.609375 
Q 21.6875 5.609375 24.25 7.140625 
Q 26.8125 8.6875 28.515625 11.078125 
Q 30.21875 13.484375 31.078125 16.3125 
Q 31.9375 19.140625 31.9375 21.734375 
L 31.9375 26.078125 
L 24.03125 25.875 
Q 21.390625 25.828125 19 25.40625 
Q 16.609375 25 14.8125 23.78125 
Q 13.03125 22.5625 11.953125 20.359375 
Q 10.890625 18.171875 10.890625 14.59375 
Q 10.890625 10.296875 12.796875 7.953125 
Q 14.703125 5.609375 18.21875 5.609375 
z
" id="LiberationSansNarrow-1072"/>
      <path d="M 5.515625 52.828125 
L 12.703125 52.828125 
L 12.703125 29.6875 
Q 13.921875 29.6875 14.875 30.078125 
Q 15.828125 30.46875 16.875 31.6875 
Q 17.921875 32.90625 19.21875 35.15625 
Q 20.515625 37.40625 22.46875 41.15625 
L 28.375 52.828125 
L 35.890625 52.828125 
L 27.25 36.96875 
Q 25.4375 33.734375 24.109375 31.65625 
Q 22.796875 29.59375 22.125 28.90625 
L 36.234375 0 
L 28.21875 0 
L 17.140625 24.265625 
Q 16.359375 23.875 15.0625 23.578125 
Q 13.765625 23.296875 12.703125 23.296875 
L 12.703125 0 
L 5.515625 0 
z
" id="LiberationSansNarrow-1082"/>
      <path d="M 11.03125 26.65625 
Q 11.03125 22.125 11.5625 18.3125 
Q 12.109375 14.5 13.375 11.734375 
Q 14.65625 8.984375 16.75 7.46875 
Q 18.84375 5.953125 21.96875 5.953125 
Q 25.828125 5.953125 28.390625 8.484375 
Q 30.953125 11.03125 31.546875 16.3125 
L 38.875 15.71875 
Q 38.53125 12.453125 37.296875 9.421875 
Q 36.078125 6.390625 34.03125 4.09375 
Q 31.984375 1.8125 29 0.40625 
Q 26.03125 -0.984375 22.171875 -0.984375 
Q 17.09375 -0.984375 13.5 1.109375 
Q 9.90625 3.21875 7.6875 6.90625 
Q 5.46875 10.59375 4.46875 15.59375 
Q 3.46875 20.609375 3.46875 26.46875 
Q 3.46875 31.78125 4.203125 35.859375 
Q 4.9375 39.9375 6.21875 42.984375 
Q 7.515625 46.046875 9.265625 48.125 
Q 11.03125 50.203125 13.109375 51.4375 
Q 15.1875 52.6875 17.453125 53.25 
Q 19.734375 53.8125 22.078125 53.8125 
Q 25.734375 53.8125 28.5625 52.59375 
Q 31.390625 51.375 33.46875 49.25 
Q 35.546875 47.125 36.8125 44.234375 
Q 38.09375 41.359375 38.625 38.03125 
L 31.203125 37.359375 
Q 30.671875 41.75 28.375 44.328125 
Q 26.078125 46.921875 21.875 46.921875 
Q 18.796875 46.921875 16.71875 45.671875 
Q 14.65625 44.4375 13.375 41.921875 
Q 12.109375 39.40625 11.5625 35.59375 
Q 11.03125 31.78125 11.03125 26.65625 
z
" id="LiberationSansNarrow-1089"/>
      <path id="LiberationSansNarrow-32"/>
      <path d="M 42.140625 26.46875 
Q 42.140625 12.59375 37.125 5.796875 
Q 32.125 -0.984375 22.609375 -0.984375 
Q 18.0625 -0.984375 14.515625 0.671875 
Q 10.984375 2.34375 8.515625 5.765625 
Q 6.0625 9.1875 4.765625 14.328125 
Q 3.46875 19.484375 3.46875 26.46875 
Q 3.46875 53.8125 22.859375 53.8125 
Q 27.875 53.8125 31.5625 52.09375 
Q 35.25 50.390625 37.59375 46.96875 
Q 39.9375 43.5625 41.03125 38.421875 
Q 42.140625 33.296875 42.140625 26.46875 
z
M 34.578125 26.46875 
Q 34.578125 32.625 33.8125 36.625 
Q 33.0625 40.625 31.546875 43.015625 
Q 30.03125 45.40625 27.859375 46.359375 
Q 25.6875 47.3125 23 47.3125 
Q 20.21875 47.3125 17.984375 46.3125 
Q 15.765625 45.3125 14.203125 42.890625 
Q 12.640625 40.484375 11.828125 36.46875 
Q 11.03125 32.46875 11.03125 26.46875 
Q 11.03125 20.3125 11.90625 16.28125 
Q 12.796875 12.25 14.328125 9.859375 
Q 15.875 7.46875 17.96875 6.484375 
Q 20.0625 5.515625 22.5625 5.515625 
Q 25.34375 5.515625 27.5625 6.46875 
Q 29.78125 7.421875 31.34375 9.8125 
Q 32.90625 12.203125 33.734375 16.25 
Q 34.578125 20.3125 34.578125 26.46875 
z
" id="LiberationSansNarrow-1086"/>
      <path d="M 1.421875 52.828125 
L 36.140625 52.828125 
L 36.140625 46.4375 
L 22.359375 46.4375 
L 22.359375 0 
L 15.1875 0 
L 15.1875 46.4375 
L 1.421875 46.4375 
z
" id="LiberationSansNarrow-1090"/>
      <path d="M 22.5625 52.828125 
Q 25.59375 52.828125 28.484375 52.234375 
Q 31.390625 51.65625 33.640625 50.140625 
Q 35.890625 48.640625 37.234375 46.09375 
Q 38.578125 43.5625 38.578125 39.59375 
Q 38.578125 37.015625 37.890625 35.03125 
Q 37.203125 33.0625 35.984375 31.640625 
Q 34.765625 30.21875 33.125 29.3125 
Q 31.5 28.421875 29.6875 27.984375 
L 29.6875 27.640625 
Q 31.84375 27.296875 33.734375 26.4375 
Q 35.640625 25.59375 37 24.09375 
Q 38.375 22.609375 39.171875 20.40625 
Q 39.984375 18.21875 39.984375 15.234375 
Q 39.984375 11.421875 38.765625 8.5625 
Q 37.546875 5.71875 35.375 3.8125 
Q 33.203125 1.90625 30.171875 0.953125 
Q 27.15625 0 23.484375 0 
L 5.671875 0 
L 5.671875 52.828125 
z
M 12.890625 6.5 
L 22.3125 6.5 
Q 25.09375 6.5 27 6.984375 
Q 28.90625 7.46875 30.078125 8.546875 
Q 31.25 9.625 31.78125 11.25 
Q 32.328125 12.890625 32.328125 15.1875 
Q 32.328125 17.625 31.765625 19.328125 
Q 31.203125 21.046875 29.953125 22.109375 
Q 28.71875 23.1875 26.703125 23.671875 
Q 24.703125 24.171875 21.875 24.171875 
L 12.890625 24.171875 
z
M 12.890625 46.140625 
L 12.890625 30.515625 
L 21.53125 30.515625 
Q 24.265625 30.515625 26.0625 30.984375 
Q 27.875 31.453125 29 32.390625 
Q 30.125 33.34375 30.5625 34.828125 
Q 31 36.328125 31 38.421875 
Q 31 42.4375 28.96875 44.28125 
Q 26.953125 46.140625 22.125 46.140625 
z
" id="LiberationSansNarrow-1074"/>
      <path d="M 12.890625 52.828125 
L 12.890625 30.46875 
L 32.375 30.46875 
L 32.375 52.828125 
L 39.59375 52.828125 
L 39.59375 0 
L 32.375 0 
L 32.375 24.078125 
L 12.890625 24.078125 
L 12.890625 0 
L 5.671875 0 
L 5.671875 52.828125 
z
" id="LiberationSansNarrow-1085"/>
      <path d="M 12.640625 52.828125 
L 12.640625 23.921875 
Q 12.640625 22.796875 12.59375 20.921875 
Q 12.546875 19.046875 12.46875 17.046875 
Q 12.40625 15.046875 12.359375 13.234375 
Q 12.3125 11.421875 12.25 10.40625 
L 32.28125 52.828125 
L 40.140625 52.828125 
L 40.140625 0 
L 33.25 0 
L 33.25 32.234375 
Q 33.25 33.15625 33.296875 34.578125 
L 33.40625 37.40625 
Q 33.453125 38.875 33.5 40.234375 
L 33.640625 42.625 
L 13.375 0 
L 5.71875 0 
L 5.71875 52.828125 
z
" id="LiberationSansNarrow-1080"/>
      <path d="M 10.6875 24.5625 
Q 10.6875 20.40625 11.5625 16.90625 
Q 12.453125 13.421875 13.90625 10.90625 
Q 15.375 8.40625 17.640625 7 
Q 19.921875 5.609375 23.140625 5.609375 
Q 27.828125 5.609375 30.65625 7.90625 
Q 33.5 10.203125 34.46875 13.71875 
L 40.828125 11.53125 
Q 40.140625 9.328125 38.921875 7.109375 
Q 37.703125 4.890625 35.640625 3.09375 
Q 33.59375 1.3125 30.53125 0.15625 
Q 27.484375 -0.984375 23.140625 -0.984375 
Q 13.53125 -0.984375 8.5 6 
Q 3.46875 12.984375 3.46875 26.765625 
Q 3.46875 34.1875 5 39.328125 
Q 6.546875 44.484375 9.171875 47.703125 
Q 11.8125 50.921875 15.328125 52.359375 
Q 18.84375 53.8125 22.859375 53.8125 
Q 28.328125 53.8125 31.984375 51.65625 
Q 39.0625 47.515625 41.015625 36.8125 
Q 41.9375 31.6875 41.9375 25.734375 
L 41.9375 24.5625 
z
M 34.71875 31.296875 
Q 34.71875 40.140625 31.421875 43.71875 
Q 28.125 47.3125 22.75 47.3125 
Q 18.953125 47.3125 15.328125 44.09375 
Q 10.9375 40.328125 10.6875 31.296875 
z
" id="LiberationSansNarrow-1077"/>
      <path d="M 42.140625 26.65625 
Q 42.140625 20.65625 41.359375 15.578125 
Q 40.578125 10.5 38.6875 6.828125 
Q 36.8125 3.171875 33.765625 1.09375 
Q 30.71875 -0.984375 26.21875 -0.984375 
Q 21.578125 -0.984375 18.078125 1.171875 
Q 14.59375 3.328125 12.796875 8.203125 
L 12.546875 8.203125 
Q 12.59375 8.109375 12.609375 7.328125 
Q 12.640625 6.546875 12.671875 5.375 
Q 12.703125 4.203125 12.71875 2.75 
Q 12.75 1.3125 12.75 -0.09375 
L 12.75 -20.75 
L 5.515625 -20.75 
L 5.515625 42.046875 
Q 5.515625 43.953125 5.484375 45.703125 
Q 5.46875 47.46875 5.4375 48.90625 
Q 5.421875 50.34375 5.375 51.359375 
Q 5.328125 52.390625 5.28125 52.828125 
L 12.25 52.828125 
Q 12.3125 52.6875 12.359375 51.8125 
L 12.5 49.703125 
Q 12.546875 48.4375 12.59375 47.015625 
Q 12.640625 45.609375 12.640625 44.34375 
L 12.796875 44.34375 
Q 13.765625 46.875 15.0625 48.65625 
Q 16.359375 50.4375 18.015625 51.578125 
Q 19.671875 52.734375 21.671875 53.25 
Q 23.6875 53.765625 26.21875 53.765625 
Q 30.71875 53.765625 33.765625 51.8125 
Q 36.8125 49.859375 38.6875 46.3125 
Q 40.578125 42.78125 41.359375 37.765625 
Q 42.140625 32.765625 42.140625 26.65625 
z
M 34.578125 26.46875 
Q 34.578125 31.34375 34.109375 35.15625 
Q 33.640625 38.96875 32.4375 41.59375 
Q 31.25 44.234375 29.296875 45.59375 
Q 27.34375 46.96875 24.359375 46.96875 
Q 21.96875 46.96875 19.84375 46.140625 
Q 17.71875 45.3125 16.125 42.96875 
Q 14.546875 40.625 13.640625 36.5 
Q 12.75 32.375 12.75 25.78125 
Q 12.75 20.171875 13.5 16.28125 
Q 14.265625 12.40625 15.71875 10.015625 
Q 17.1875 7.625 19.328125 6.5625 
Q 21.484375 5.515625 24.3125 5.515625 
Q 27.34375 5.515625 29.296875 6.921875 
Q 31.25 8.34375 32.4375 11.03125 
Q 33.640625 13.71875 34.109375 17.59375 
Q 34.578125 21.484375 34.578125 26.46875 
z
" id="LiberationSansNarrow-1088"/>
      <path d="M 22.796875 30.46875 
Q 31.296875 30.46875 35.640625 26.875 
Q 39.984375 23.296875 39.984375 15.53125 
Q 39.984375 11.921875 38.90625 9.03125 
Q 37.84375 6.15625 35.671875 4.15625 
Q 33.5 2.15625 30.296875 1.078125 
Q 27.09375 0 22.859375 0 
L 5.859375 0 
L 5.859375 52.828125 
L 13.328125 52.828125 
L 13.328125 30.46875 
z
M 13.328125 6.203125 
L 21.734375 6.203125 
Q 24.609375 6.203125 26.578125 6.8125 
Q 28.5625 7.421875 29.78125 8.609375 
Q 31 9.8125 31.53125 11.546875 
Q 32.078125 13.28125 32.078125 15.53125 
Q 32.078125 20.125 29.65625 22.234375 
Q 27.25 24.359375 21.734375 24.359375 
L 13.328125 24.359375 
z
M 47.65625 0 
L 47.65625 52.828125 
L 55.125 52.828125 
L 55.125 0 
z
" id="LiberationSansNarrow-1099"/>
      <path d="M 15.4375 10.6875 
L 15.4375 2.484375 
Q 15.4375 -0.09375 15.265625 -2.21875 
Q 15.09375 -4.34375 14.671875 -6.171875 
Q 14.265625 -8.015625 13.671875 -9.625 
Q 13.09375 -11.234375 12.3125 -12.796875 
L 7.375 -12.796875 
Q 9.1875 -9.625 10.15625 -6.390625 
Q 11.140625 -3.171875 11.140625 0 
L 7.625 0 
L 7.625 10.6875 
z
" id="LiberationSansNarrow-44"/>
      <path d="M 69.96875 21.1875 
Q 69.96875 15.09375 68.9375 10.90625 
Q 67.921875 6.734375 66.1875 4.171875 
Q 64.453125 1.609375 62.125 0.5 
Q 59.8125 -0.59375 57.171875 -0.59375 
Q 54.546875 -0.59375 52.21875 0.5 
Q 49.90625 1.609375 48.21875 4.140625 
Q 46.53125 6.6875 45.546875 10.859375 
Q 44.578125 15.046875 44.578125 21.1875 
Q 44.578125 27.6875 45.53125 31.9375 
Q 46.484375 36.1875 48.1875 38.703125 
Q 49.90625 41.21875 52.25 42.21875 
Q 54.59375 43.21875 57.328125 43.21875 
Q 59.96875 43.21875 62.25 42.21875 
Q 64.546875 41.21875 66.25 38.703125 
Q 67.96875 36.1875 68.96875 31.9375 
Q 69.96875 27.6875 69.96875 21.1875 
z
M 21.09375 0 
L 14.890625 0 
L 51.8125 68.796875 
L 58.109375 68.796875 
z
M 15.765625 69.390625 
Q 18.3125 69.390625 20.609375 68.390625 
Q 22.90625 67.390625 24.609375 64.890625 
Q 26.3125 62.40625 27.3125 58.203125 
Q 28.328125 54 28.328125 47.609375 
Q 28.328125 41.453125 27.3125 37.25 
Q 26.3125 33.0625 24.609375 30.4375 
Q 22.90625 27.828125 20.578125 26.703125 
Q 18.265625 25.59375 15.625 25.59375 
Q 12.9375 25.59375 10.609375 26.703125 
Q 8.296875 27.828125 6.59375 30.421875 
Q 4.890625 33.015625 3.90625 37.203125 
Q 2.9375 41.40625 2.9375 47.609375 
Q 2.9375 54 3.90625 58.203125 
Q 4.890625 62.40625 6.609375 64.890625 
Q 8.34375 67.390625 10.6875 68.390625 
Q 13.03125 69.390625 15.765625 69.390625 
z
M 64.0625 21.1875 
Q 64.0625 26.03125 63.625 29.21875 
Q 63.1875 32.421875 62.328125 34.328125 
Q 61.46875 36.234375 60.203125 37.015625 
Q 58.9375 37.796875 57.328125 37.796875 
Q 55.671875 37.796875 54.375 36.984375 
Q 53.078125 36.1875 52.1875 34.28125 
Q 51.3125 32.375 50.875 29.171875 
Q 50.4375 25.984375 50.4375 21.1875 
Q 50.4375 16.546875 50.90625 13.421875 
Q 51.375 10.296875 52.21875 8.375 
Q 53.078125 6.453125 54.34375 5.609375 
Q 55.609375 4.78125 57.234375 4.78125 
Q 58.796875 4.78125 60.0625 5.609375 
Q 61.328125 6.453125 62.203125 8.375 
Q 63.09375 10.296875 63.578125 13.421875 
Q 64.0625 16.546875 64.0625 21.1875 
z
M 22.40625 47.609375 
Q 22.40625 52.390625 21.96875 55.5625 
Q 21.53125 58.734375 20.703125 60.640625 
Q 19.875 62.546875 18.625 63.328125 
Q 17.390625 64.109375 15.765625 64.109375 
Q 14.0625 64.109375 12.734375 63.296875 
Q 11.421875 62.5 10.546875 60.59375 
Q 9.671875 58.6875 9.234375 55.515625 
Q 8.796875 52.34375 8.796875 47.609375 
Q 8.796875 42.96875 9.25 39.796875 
Q 9.71875 36.625 10.5625 34.6875 
Q 11.421875 32.765625 12.71875 31.9375 
Q 14.015625 31.109375 15.671875 31.109375 
Q 17.1875 31.109375 18.421875 31.9375 
Q 19.671875 32.765625 20.546875 34.6875 
Q 21.4375 36.625 21.921875 39.796875 
Q 22.40625 42.96875 22.40625 47.609375 
z
" id="LiberationSansNarrow-37"/>
     </defs>
     <g transform="translate(25.91375 211.967031)rotate(-90)scale(0.14 -0.14)">
      <use xlink:href="#LiberationSansNarrow-1084"/>
      <use x="56.396484" xlink:href="#LiberationSansNarrow-1072"/>
      <use x="102.001953" xlink:href="#LiberationSansNarrow-1082"/>
      <use x="137.857422" xlink:href="#LiberationSansNarrow-1089"/>
      <use x="178.873047" xlink:href="#LiberationSansNarrow-46"/>
      <use x="201.675781" xlink:href="#LiberationSansNarrow-32"/>
      <use x="224.478516" xlink:href="#LiberationSansNarrow-1086"/>
      <use x="270.083984" xlink:href="#LiberationSansNarrow-1089"/>
      <use x="311.099609" xlink:href="#LiberationSansNarrow-1090"/>
      <use x="348.632812" xlink:href="#LiberationSansNarrow-1072"/>
      <use x="394.238281" xlink:href="#LiberationSansNarrow-1074"/>
      <use x="437.777344" xlink:href="#LiberationSansNarrow-1072"/>
      <use x="483.382812" xlink:href="#LiberationSansNarrow-1085"/>
      <use x="528.646484" xlink:href="#LiberationSansNarrow-1080"/>
      <use x="574.496094" xlink:href="#LiberationSansNarrow-1077"/>
      <use x="620.101562" xlink:href="#LiberationSansNarrow-32"/>
      <use x="642.904297" xlink:href="#LiberationSansNarrow-1086"/>
      <use x="688.478516" xlink:href="#LiberationSansNarrow-1090"/>
      <use x="726.027344" xlink:href="#LiberationSansNarrow-32"/>
      <use x="748.830078" xlink:href="#LiberationSansNarrow-1088"/>
      <use x="794.435547" xlink:href="#LiberationSansNarrow-1099"/>
      <use x="855.421875" xlink:href="#LiberationSansNarrow-1085"/>
      <use x="900.685547" xlink:href="#LiberationSansNarrow-1082"/>
      <use x="936.556641" xlink:href="#LiberationSansNarrow-1072"/>
      <use x="982.162109" xlink:href="#LiberationSansNarrow-44"/>
      <use x="1004.964844" xlink:href="#LiberationSansNarrow-32"/>
      <use x="1027.767578" xlink:href="#LiberationSansNarrow-37"/>
     </g>
    </g>
   </g>
   <g id="line2d_14">
    <path clip-path="url(#pbe67af7510)" d="M 87.769091 235.111327 
L 535.950909 235.111327 
L 535.950909 235.111327 
" style="fill:none;stroke:#1f77b4;stroke-linecap:square;stroke-width:2;"/>
   </g>
   <g id="line2d_15">
    <path clip-path="url(#pbe67af7510)" d="M 87.769091 237.223708 
L 88.828622 236.55015 
L 89.888154 236.126727 
L 94.12628 235.761506 
L 97.304874 235.584866 
L 100.483469 235.473627 
L 105.781126 235.3851 
L 113.197847 235.260131 
L 134.388476 235.06857 
L 142.864728 234.938293 
L 148.162386 234.818057 
L 188.424582 234.039329 
L 202.198491 233.879722 
L 251.996471 233.149726 
L 253.056003 233.029891 
L 261.532254 232.923197 
L 274.246632 232.492081 
L 281.663353 232.289826 
L 283.782416 232.122117 
L 286.96101 231.951909 
L 288.020542 231.759622 
L 292.258668 231.54966 
L 293.318199 231.331817 
L 294.37773 231.322936 
L 295.437262 230.742527 
L 297.556325 230.560557 
L 306.032577 230.329007 
L 310.270703 230.250912 
L 317.687423 230.128087 
L 335.699458 229.868263 
L 346.294773 229.734651 
L 354.771025 229.635373 
L 363.247277 229.455005 
L 365.36634 229.254016 
L 371.723529 229.098846 
L 373.842592 228.960659 
L 378.080718 228.834861 
L 379.140249 228.579402 
L 380.199781 228.56483 
L 381.259312 228.33876 
L 384.437907 228.176573 
L 385.497438 227.535565 
L 386.55697 227.50386 
L 390.795096 226.806519 
L 392.914159 226.579545 
L 396.092753 226.536075 
L 398.211816 226.267942 
L 403.509473 225.886074 
L 409.866662 225.784099 
L 413.045257 225.728923 
L 490.391055 224.58569 
L 491.450587 224.436328 
L 514.760279 223.674869 
L 515.819811 223.333083 
L 517.938874 223.026159 
L 521.117468 222.864742 
L 530.653252 222.33082 
L 532.772315 222.079036 
L 533.831846 220.35013 
L 534.891378 219.630995 
L 535.950909 219.477041 
L 535.950909 219.477041 
" style="fill:none;stroke:#ff7f0e;stroke-linecap:square;"/>
   </g>
   <g id="line2d_16">
    <path clip-path="url(#pbe67af7510)" d="M 87.769091 238.84412 
L 89.888154 238.626502 
L 90.947685 238.586398 
L 92.007217 238.192457 
L 98.364406 237.782063 
L 108.959721 237.458039 
L 110.019252 237.327343 
L 111.078784 237.318323 
L 112.138315 237.147885 
L 143.92426 235.989127 
L 151.34098 235.866168 
L 203.258023 234.828375 
L 220.210527 234.696851 
L 241.401156 234.400324 
L 255.175066 234.163639 
L 266.829912 233.972868 
L 271.068038 233.672149 
L 275.306164 233.560924 
L 277.425227 233.382018 
L 279.54429 233.235518 
L 283.782416 233.073609 
L 286.96101 232.714024 
L 290.139605 231.424919 
L 291.199136 229.599547 
L 292.258668 229.547093 
L 293.318199 229.283688 
L 294.37773 229.157475 
L 295.437262 228.870534 
L 298.615856 228.549927 
L 299.675388 228.159659 
L 301.794451 228.067926 
L 304.973045 226.105051 
L 310.270703 224.752929 
L 311.330234 224.616123 
L 314.508829 224.479496 
L 316.627892 224.323434 
L 318.746955 224.292573 
L 319.806486 224.146611 
L 320.866018 224.134623 
L 322.985081 223.794929 
L 327.223207 223.598158 
L 328.282738 223.233873 
L 330.401801 223.055458 
L 331.461332 222.908572 
L 335.699458 222.712113 
L 340.997116 222.180994 
L 342.056647 221.613974 
L 345.235242 221.218713 
L 350.532899 220.798005 
L 355.830557 220.562018 
L 357.94962 220.296673 
L 361.128214 220.220759 
L 368.544934 220.065045 
L 371.723529 219.884771 
L 380.199781 219.725629 
L 384.437907 219.601617 
L 399.271348 219.391584 
L 401.39041 219.236966 
L 429.997761 218.690894 
L 437.414481 218.597249 
L 439.533544 218.514709 
L 457.545579 218.123486 
L 463.902768 218.012735 
L 468.140894 217.874282 
L 478.736209 217.694282 
L 480.855272 217.616422 
L 490.391055 217.447405 
L 492.510118 217.319037 
L 495.688713 217.195577 
L 502.045902 217.036778 
L 507.343559 216.785536 
L 508.40309 216.771435 
L 509.462622 216.624882 
L 513.700748 216.5269 
L 528.534189 216.078593 
L 530.653252 215.926754 
L 532.772315 215.767092 
L 533.831846 215.682955 
L 534.891378 215.220811 
L 535.950909 215.078866 
L 535.950909 215.078866 
" style="fill:none;stroke:#2ca02c;stroke-linecap:square;"/>
   </g>
   <g id="line2d_17">
    <path clip-path="url(#pbe67af7510)" d="M 87.769091 239.982711 
L 88.828622 239.844504 
L 89.888154 239.821458 
L 90.947685 239.464235 
L 100.483469 239.235055 
L 104.721595 238.934197 
L 105.781126 238.913738 
L 106.840658 238.731154 
L 112.138315 238.546303 
L 113.197847 238.216401 
L 115.31691 238.05641 
L 117.435972 237.879833 
L 123.793161 237.803398 
L 124.852693 237.602415 
L 126.971756 237.377961 
L 129.090819 237.240013 
L 137.567071 236.662906 
L 140.745665 236.377651 
L 143.92426 236.242723 
L 146.043323 236.044175 
L 151.34098 235.917831 
L 159.817232 235.361316 
L 184.186456 234.472927 
L 191.603176 234.343228 
L 199.019897 234.228138 
L 211.734275 234.137191 
L 213.853338 234.059755 
L 230.805841 233.889952 
L 238.222562 233.754974 
L 249.877408 233.615509 
L 255.175066 233.44979 
L 262.591786 233.309383 
L 265.77038 233.228863 
L 275.306164 233.067717 
L 276.365695 232.935452 
L 279.54429 232.836991 
L 281.663353 232.732942 
L 284.841947 232.644555 
L 291.199136 232.163271 
L 293.318199 232.024575 
L 294.37773 231.473031 
L 296.496793 230.941604 
L 297.556325 230.887974 
L 299.675388 230.268504 
L 300.734919 229.28425 
L 301.794451 228.745848 
L 302.853982 227.592579 
L 303.913514 226.901882 
L 304.973045 226.710494 
L 306.032577 224.620528 
L 307.092108 224.282562 
L 312.389766 223.954283 
L 314.508829 223.849138 
L 315.56836 223.308596 
L 320.866018 223.036723 
L 321.925549 222.549891 
L 324.044612 222.387619 
L 325.104144 221.702057 
L 326.163675 221.241264 
L 327.223207 221.238615 
L 329.34227 219.220638 
L 330.401801 218.948025 
L 331.461332 218.923509 
L 332.520864 218.537927 
L 335.699458 218.453187 
L 336.75899 218.058968 
L 337.818521 217.920487 
L 338.878053 217.897087 
L 339.937584 217.513594 
L 343.116179 217.187839 
L 344.17571 216.706287 
L 345.235242 216.559492 
L 347.354305 216.489593 
L 348.413836 216.246739 
L 353.711494 215.601028 
L 355.830557 215.187793 
L 357.94962 215.075322 
L 361.128214 214.696041 
L 363.247277 214.656771 
L 365.36634 214.449778 
L 367.485403 214.426107 
L 368.544934 214.132668 
L 370.663997 213.931838 
L 372.78306 213.826553 
L 373.842592 213.368406 
L 375.961655 212.908546 
L 378.080718 212.808879 
L 380.199781 212.375403 
L 382.318844 212.315173 
L 383.378375 212.116514 
L 391.854627 211.63151 
L 392.914159 211.427784 
L 393.97369 211.380455 
L 395.033222 211.186647 
L 398.211816 211.020035 
L 400.330879 210.610766 
L 405.628536 210.399216 
L 406.688068 210.157265 
L 408.807131 210.020122 
L 411.985725 209.770665 
L 414.104788 209.526769 
L 417.283383 209.364358 
L 419.402446 209.191673 
L 426.819166 208.724645 
L 427.878698 208.517565 
L 439.533544 208.129817 
L 441.652607 207.975778 
L 444.831201 207.890473 
L 445.890733 207.739448 
L 449.069327 207.58977 
L 464.9623 206.700212 
L 468.140894 206.67553 
L 469.200426 206.544335 
L 472.37902 206.442247 
L 475.557614 206.130261 
L 478.736209 205.927773 
L 482.974335 205.763614 
L 491.450587 205.358251 
L 492.510118 205.122516 
L 499.926839 204.899158 
L 500.98637 204.761105 
L 503.105433 204.616216 
L 506.284028 204.542386 
L 508.40309 204.462747 
L 510.522153 204.204156 
L 514.760279 204.045903 
L 516.879342 203.76109 
L 518.998405 203.480878 
L 521.117468 203.339806 
L 523.236531 202.982803 
L 528.534189 202.816919 
L 530.653252 202.151014 
L 532.772315 201.232932 
L 533.831846 201.138015 
L 534.891378 200.305076 
L 535.950909 200.296164 
L 535.950909 200.296164 
" style="fill:none;stroke:#d62728;stroke-linecap:square;"/>
   </g>
   <g id="line2d_18">
    <path clip-path="url(#pbe67af7510)" d="M 87.769091 241.538182 
L 88.828622 241.279663 
L 89.888154 240.782764 
L 90.947685 240.436288 
L 94.12628 239.985479 
L 95.185811 239.92325 
L 96.245343 239.425769 
L 99.423937 239.298281 
L 100.483469 239.159492 
L 101.543 238.747396 
L 102.602532 238.746485 
L 103.662063 238.614429 
L 104.721595 238.141404 
L 105.781126 238.108706 
L 106.840658 237.715628 
L 107.900189 237.708564 
L 108.959721 237.166337 
L 110.019252 236.948366 
L 112.138315 236.719856 
L 116.376441 236.256492 
L 117.435972 236.235979 
L 118.495504 236.086941 
L 121.674098 235.914054 
L 122.73363 235.710482 
L 126.971756 235.461628 
L 130.15035 235.362931 
L 132.269413 235.323262 
L 133.328945 235.166605 
L 134.388476 235.147956 
L 135.448008 234.83004 
L 136.507539 234.721677 
L 137.567071 234.480343 
L 139.686134 234.435931 
L 141.805197 234.139777 
L 148.162386 233.85636 
L 151.34098 233.42642 
L 155.579106 233.11661 
L 157.698169 232.676936 
L 160.876763 232.5631 
L 162.995826 231.792469 
L 166.174421 231.748883 
L 167.233952 231.49882 
L 169.353015 231.332802 
L 172.53161 231.194085 
L 173.591141 230.898199 
L 186.305519 230.159092 
L 188.424582 229.538117 
L 190.543645 229.420788 
L 195.841302 229.25969 
L 196.900834 229.095158 
L 199.019897 229.015705 
L 203.258023 228.871926 
L 206.436617 228.740873 
L 207.496149 228.574057 
L 209.615212 228.475257 
L 211.734275 228.28499 
L 221.270058 227.385685 
L 223.389121 227.248119 
L 225.508184 227.172711 
L 226.567715 226.926166 
L 237.16303 226.317394 
L 238.222562 225.761456 
L 239.282093 225.705566 
L 240.341625 225.445274 
L 242.460688 225.291453 
L 243.520219 225.100851 
L 247.758345 224.85863 
L 248.817877 224.236668 
L 249.877408 223.759509 
L 251.996471 223.691755 
L 253.056003 223.17082 
L 254.115534 222.875211 
L 256.234597 222.516465 
L 257.294129 222.282889 
L 258.35366 222.16939 
L 259.413191 221.826777 
L 260.472723 221.79947 
L 261.532254 221.264461 
L 262.591786 221.207562 
L 263.651317 219.71477 
L 264.710849 219.436252 
L 266.829912 219.351873 
L 267.889443 219.136679 
L 268.948975 219.058307 
L 271.068038 218.601922 
L 273.187101 217.075465 
L 274.246632 216.385863 
L 275.306164 215.85362 
L 276.365695 215.192858 
L 277.425227 215.169105 
L 278.484758 214.091518 
L 279.54429 214.067134 
L 280.603821 212.927394 
L 281.663353 212.680697 
L 282.722884 212.282072 
L 283.782416 212.16645 
L 284.841947 211.172192 
L 285.901479 209.987976 
L 286.96101 209.234499 
L 288.020542 209.178756 
L 289.080073 208.770517 
L 290.139605 206.829884 
L 291.199136 205.959193 
L 292.258668 205.336519 
L 293.318199 203.823064 
L 294.37773 203.15337 
L 295.437262 202.979507 
L 296.496793 202.387106 
L 297.556325 199.465559 
L 298.615856 198.477273 
L 299.675388 197.290807 
L 300.734919 196.455434 
L 301.794451 195.323036 
L 302.853982 195.304825 
L 303.913514 193.878525 
L 304.973045 193.819824 
L 306.032577 193.169568 
L 308.15164 192.966747 
L 310.270703 191.232122 
L 311.330234 191.019753 
L 313.449297 190.909244 
L 314.508829 190.644844 
L 315.56836 190.530802 
L 317.687423 189.764957 
L 318.746955 189.741159 
L 319.806486 189.436211 
L 320.866018 189.381755 
L 321.925549 188.849555 
L 322.985081 188.521749 
L 326.163675 188.437271 
L 329.34227 188.045187 
L 330.401801 187.787449 
L 331.461332 187.658543 
L 332.520864 187.374386 
L 333.580395 187.354121 
L 334.639927 186.371019 
L 335.699458 186.323962 
L 336.75899 185.822112 
L 337.818521 185.511552 
L 338.878053 185.458932 
L 339.937584 184.944975 
L 340.997116 184.636221 
L 342.056647 184.596953 
L 343.116179 184.280463 
L 344.17571 184.241022 
L 345.235242 183.997933 
L 346.294773 183.624845 
L 347.354305 183.539513 
L 348.413836 182.990347 
L 350.532899 182.84946 
L 351.592431 182.608083 
L 352.651962 182.601009 
L 353.711494 182.197747 
L 354.771025 182.18654 
L 355.830557 181.371395 
L 357.94962 180.717255 
L 360.068683 180.106669 
L 361.128214 179.564643 
L 362.187746 179.196313 
L 363.247277 178.603977 
L 365.36634 173.684964 
L 366.425871 173.399667 
L 367.485403 173.329503 
L 368.544934 170.90353 
L 369.604466 166.763812 
L 370.663997 166.622796 
L 371.723529 166.137245 
L 372.78306 165.853994 
L 373.842592 165.39874 
L 374.902123 165.108371 
L 375.961655 164.697865 
L 377.021186 164.443218 
L 378.080718 162.684962 
L 379.140249 162.663052 
L 380.199781 161.398073 
L 383.378375 161.038445 
L 385.497438 160.250136 
L 386.55697 160.016902 
L 387.616501 159.653298 
L 389.735564 159.470146 
L 391.854627 158.682076 
L 392.914159 157.12101 
L 395.033222 155.892944 
L 396.092753 154.534653 
L 397.152285 154.009249 
L 398.211816 153.90183 
L 400.330879 152.561538 
L 401.39041 152.512126 
L 404.569005 151.465802 
L 405.628536 151.238886 
L 406.688068 151.221975 
L 407.747599 147.129581 
L 408.807131 145.779101 
L 409.866662 144.832489 
L 410.926194 144.255179 
L 413.045257 143.78516 
L 414.104788 143.688453 
L 415.16432 143.219704 
L 416.223851 143.109702 
L 417.283383 142.512401 
L 418.342914 142.485165 
L 419.402446 141.620162 
L 420.461977 139.349594 
L 422.58104 138.975979 
L 423.640572 138.695026 
L 425.759635 137.097359 
L 426.819166 137.031837 
L 427.878698 136.577979 
L 428.938229 135.887915 
L 429.997761 135.719637 
L 431.057292 134.985273 
L 433.176355 134.537009 
L 434.235887 134.396152 
L 435.295418 134.072818 
L 436.354949 133.612261 
L 437.414481 133.299064 
L 438.474012 133.132088 
L 439.533544 133.089671 
L 440.593075 132.861413 
L 441.652607 132.830018 
L 442.712138 132.568508 
L 443.77167 131.173824 
L 445.890733 130.911682 
L 446.950264 130.400178 
L 448.009796 129.585012 
L 451.18839 128.057664 
L 453.307453 127.676071 
L 454.366985 126.453917 
L 455.426516 125.706067 
L 456.486048 124.617807 
L 458.605111 123.874944 
L 459.664642 122.799366 
L 460.724174 122.184201 
L 461.783705 122.151659 
L 462.843237 121.033917 
L 463.902768 120.628472 
L 464.9623 120.062111 
L 466.021831 119.074852 
L 467.081363 118.864683 
L 468.140894 112.557154 
L 469.200426 111.965438 
L 470.259957 106.853864 
L 471.319489 106.288654 
L 472.37902 105.555419 
L 473.438551 105.096078 
L 474.498083 104.472992 
L 475.557614 101.547797 
L 476.617146 101.308128 
L 477.676677 100.509019 
L 478.736209 99.287048 
L 479.79574 96.091991 
L 480.855272 95.704384 
L 481.914803 93.399094 
L 482.974335 92.29028 
L 484.033866 89.125574 
L 485.093398 88.812056 
L 486.152929 88.362584 
L 487.212461 86.868096 
L 488.271992 86.439481 
L 489.331524 85.863017 
L 491.450587 83.796302 
L 492.510118 83.365442 
L 495.688713 82.794152 
L 496.748244 82.033899 
L 497.807776 81.89181 
L 498.867307 81.052919 
L 502.045902 79.999819 
L 503.105433 78.031994 
L 504.164965 77.898968 
L 505.224496 77.491746 
L 506.284028 75.305473 
L 507.343559 72.646183 
L 509.462622 71.758781 
L 511.581685 68.367905 
L 512.641216 67.003165 
L 514.760279 65.932458 
L 515.819811 65.912888 
L 516.879342 63.45425 
L 517.938874 61.409895 
L 518.998405 57.295882 
L 520.057937 57.009384 
L 521.117468 53.780773 
L 522.177 51.456267 
L 523.236531 50.890681 
L 524.296063 48.210147 
L 525.355594 47.275159 
L 526.415126 47.064848 
L 528.534189 45.145409 
L 529.59372 44.767406 
L 530.653252 43.098435 
L 531.712783 42.902858 
L 532.772315 41.803363 
L 533.831846 39.368058 
L 534.891378 37.959013 
L 535.950909 28.301818 
L 535.950909 28.301818 
" style="fill:none;stroke:#9467bd;stroke-linecap:square;"/>
   </g>
   <g id="legend_1">
    <g id="patch_3">
     <path d="M 73.5234 57.458441 
L 314.828402 57.458441 
Q 317.160802 57.458441 317.160802 55.126041 
L 317.160802 25.8034 
Q 317.160802 23.471 314.828402 23.471 
L 73.5234 23.471 
Q 71.191 23.471 71.191 25.8034 
L 71.191 55.126041 
Q 71.191 57.458441 73.5234 57.458441 
z
" style="fill:#ffffff;opacity:0.8;stroke:#cccccc;stroke-linejoin:miter;"/>
    </g>
    <g id="line2d_19">
     <path d="M 75.8558 32.505406 
L 99.1798 32.505406 
" style="fill:none;stroke:#1f77b4;stroke-linecap:square;stroke-width:2;"/>
    </g>
    <g id="line2d_20"/>
    <g id="text_15">
     <!-- MARKET -->
     <defs>
      <path d="M 54.6875 0 
L 54.6875 45.90625 
Q 54.6875 48.390625 54.734375 50.96875 
Q 54.78125 53.5625 54.828125 55.71875 
Q 54.9375 58.203125 55.078125 60.546875 
Q 54.546875 58.0625 53.90625 55.609375 
Q 53.90625 55.609375 52.734375 51.171875 
Q 52.15625 48.78125 51.515625 46.875 
L 36.96875 0 
L 31.59375 0 
L 16.796875 46.875 
Q 16.546875 47.609375 16.3125 48.578125 
L 15.765625 50.6875 
L 15.140625 52.9375 
L 14.546875 55.171875 
Q 13.875 57.765625 13.234375 60.546875 
Q 13.28125 57.8125 13.375 55.125 
Q 13.484375 52.828125 13.5 50.3125 
Q 13.53125 47.796875 13.53125 45.90625 
L 13.53125 0 
L 6.734375 0 
L 6.734375 68.796875 
L 16.796875 68.796875 
L 31.78125 21.09375 
Q 32.078125 20.125 32.46875 18.578125 
Q 32.859375 17.046875 33.21875 15.421875 
Q 33.59375 13.8125 33.890625 12.375 
Q 34.1875 10.9375 34.328125 10.15625 
Q 34.421875 10.9375 34.734375 12.40625 
Q 35.0625 13.875 35.5 15.484375 
L 36.328125 18.609375 
Q 36.71875 20.125 37.0625 21.09375 
L 51.765625 68.796875 
L 61.578125 68.796875 
L 61.578125 0 
z
" id="LiberationSansNarrow-77"/>
      <path d="M 46.734375 0 
L 40.28125 20.125 
L 14.546875 20.125 
L 8.109375 0 
L 0.140625 0 
L 23.1875 68.796875 
L 31.890625 68.796875 
L 54.546875 0 
z
M 30.765625 50.09375 
Q 30.125 52.046875 29.546875 54.046875 
L 28.515625 57.71875 
L 27.734375 60.453125 
Q 27.4375 61.53125 27.4375 61.765625 
Q 27.34375 61.53125 27.078125 60.40625 
Q 26.8125 59.28125 26.375 57.625 
L 25.296875 53.953125 
L 24.125 50 
L 16.890625 27.390625 
L 37.984375 27.390625 
z
" id="LiberationSansNarrow-65"/>
      <path d="M 46.578125 0 
L 31.9375 28.5625 
L 14.359375 28.5625 
L 14.359375 0 
L 6.734375 0 
L 6.734375 68.796875 
L 33.25 68.796875 
Q 38.03125 68.796875 41.734375 67.453125 
Q 45.453125 66.109375 47.96875 63.5625 
Q 50.484375 61.03125 51.796875 57.375 
Q 53.125 53.71875 53.125 49.125 
Q 53.125 45.84375 52.34375 42.671875 
Q 51.5625 39.5 49.875 36.859375 
Q 48.1875 34.234375 45.59375 32.328125 
Q 43.015625 30.421875 39.359375 29.640625 
L 55.375 0 
z
M 45.453125 49.03125 
Q 45.453125 52.15625 44.578125 54.4375 
Q 43.703125 56.734375 42.015625 58.265625 
Q 40.328125 59.8125 37.9375 60.5625 
Q 35.546875 61.328125 32.46875 61.328125 
L 14.359375 61.328125 
L 14.359375 35.9375 
L 32.8125 35.9375 
Q 36.078125 35.9375 38.5 36.9375 
Q 40.921875 37.9375 42.453125 39.6875 
Q 44 41.453125 44.71875 43.84375 
Q 45.453125 46.234375 45.453125 49.03125 
z
" id="LiberationSansNarrow-82"/>
      <path d="M 44.28125 0 
L 21.734375 33.203125 
L 14.359375 26.375 
L 14.359375 0 
L 6.734375 0 
L 6.734375 68.796875 
L 14.359375 68.796875 
L 14.359375 34.328125 
L 41.546875 68.796875 
L 50.59375 68.796875 
L 26.5625 38.921875 
L 53.765625 0 
z
" id="LiberationSansNarrow-75"/>
      <path d="M 6.734375 0 
L 6.734375 68.796875 
L 49.515625 68.796875 
L 49.515625 61.1875 
L 14.359375 61.1875 
L 14.359375 39.109375 
L 47.125 39.109375 
L 47.125 31.59375 
L 14.359375 31.59375 
L 14.359375 7.625 
L 51.171875 7.625 
L 51.171875 0 
z
" id="LiberationSansNarrow-69"/>
      <path d="M 28.8125 61.1875 
L 28.8125 0 
L 21.234375 0 
L 21.234375 61.1875 
L 1.859375 61.1875 
L 1.859375 68.796875 
L 48.1875 68.796875 
L 48.1875 61.1875 
z
" id="LiberationSansNarrow-84"/>
     </defs>
     <g transform="translate(108.5094 36.587106)scale(0.11662 -0.11662)">
      <use xlink:href="#LiberationSansNarrow-77"/>
      <use x="68.310547" xlink:href="#LiberationSansNarrow-65"/>
      <use x="122.998047" xlink:href="#LiberationSansNarrow-82"/>
      <use x="182.177734" xlink:href="#LiberationSansNarrow-75"/>
      <use x="236.865234" xlink:href="#LiberationSansNarrow-69"/>
      <use x="291.552734" xlink:href="#LiberationSansNarrow-84"/>
     </g>
    </g>
    <g id="line2d_21">
     <path d="M 75.8558 46.292076 
L 99.1798 46.292076 
" style="fill:none;stroke:#ff7f0e;stroke-linecap:square;"/>
    </g>
    <g id="line2d_22"/>
    <g id="text_16">
     <!-- Hop -->
     <defs>
      <path d="M 44.875 0 
L 44.875 31.890625 
L 14.359375 31.890625 
L 14.359375 0 
L 6.734375 0 
L 6.734375 68.796875 
L 14.359375 68.796875 
L 14.359375 39.703125 
L 44.875 39.703125 
L 44.875 68.796875 
L 52.484375 68.796875 
L 52.484375 0 
z
" id="LiberationSansNarrow-72"/>
      <path d="M 42.140625 26.46875 
Q 42.140625 12.59375 37.125 5.796875 
Q 32.125 -0.984375 22.609375 -0.984375 
Q 18.0625 -0.984375 14.515625 0.671875 
Q 10.984375 2.34375 8.515625 5.765625 
Q 6.0625 9.1875 4.765625 14.328125 
Q 3.46875 19.484375 3.46875 26.46875 
Q 3.46875 53.8125 22.859375 53.8125 
Q 27.875 53.8125 31.5625 52.09375 
Q 35.25 50.390625 37.59375 46.96875 
Q 39.9375 43.5625 41.03125 38.421875 
Q 42.140625 33.296875 42.140625 26.46875 
z
M 34.578125 26.46875 
Q 34.578125 32.625 33.8125 36.625 
Q 33.0625 40.625 31.546875 43.015625 
Q 30.03125 45.40625 27.859375 46.359375 
Q 25.6875 47.3125 23 47.3125 
Q 20.21875 47.3125 17.984375 46.3125 
Q 15.765625 45.3125 14.203125 42.890625 
Q 12.640625 40.484375 11.828125 36.46875 
Q 11.03125 32.46875 11.03125 26.46875 
Q 11.03125 20.3125 11.90625 16.28125 
Q 12.796875 12.25 14.328125 9.859375 
Q 15.875 7.46875 17.96875 6.484375 
Q 20.0625 5.515625 22.5625 5.515625 
Q 25.34375 5.515625 27.5625 6.46875 
Q 29.78125 7.421875 31.34375 9.8125 
Q 32.90625 12.203125 33.734375 16.25 
Q 34.578125 20.3125 34.578125 26.46875 
z
" id="LiberationSansNarrow-111"/>
      <path d="M 42.140625 26.65625 
Q 42.140625 20.65625 41.359375 15.578125 
Q 40.578125 10.5 38.6875 6.828125 
Q 36.8125 3.171875 33.765625 1.09375 
Q 30.71875 -0.984375 26.21875 -0.984375 
Q 21.578125 -0.984375 18.078125 1.171875 
Q 14.59375 3.328125 12.796875 8.203125 
L 12.546875 8.203125 
Q 12.59375 8.109375 12.609375 7.328125 
Q 12.640625 6.546875 12.671875 5.375 
Q 12.703125 4.203125 12.71875 2.75 
Q 12.75 1.3125 12.75 -0.09375 
L 12.75 -20.75 
L 5.515625 -20.75 
L 5.515625 42.046875 
Q 5.515625 43.953125 5.484375 45.703125 
Q 5.46875 47.46875 5.4375 48.90625 
Q 5.421875 50.34375 5.375 51.359375 
Q 5.328125 52.390625 5.28125 52.828125 
L 12.25 52.828125 
Q 12.3125 52.6875 12.359375 51.8125 
L 12.5 49.703125 
Q 12.546875 48.4375 12.59375 47.015625 
Q 12.640625 45.609375 12.640625 44.34375 
L 12.796875 44.34375 
Q 13.765625 46.875 15.0625 48.65625 
Q 16.359375 50.4375 18.015625 51.578125 
Q 19.671875 52.734375 21.671875 53.25 
Q 23.6875 53.765625 26.21875 53.765625 
Q 30.71875 53.765625 33.765625 51.8125 
Q 36.8125 49.859375 38.6875 46.3125 
Q 40.578125 42.78125 41.359375 37.765625 
Q 42.140625 32.765625 42.140625 26.65625 
z
M 34.578125 26.46875 
Q 34.578125 31.34375 34.109375 35.15625 
Q 33.640625 38.96875 32.4375 41.59375 
Q 31.25 44.234375 29.296875 45.59375 
Q 27.34375 46.96875 24.359375 46.96875 
Q 21.96875 46.96875 19.84375 46.140625 
Q 17.71875 45.3125 16.125 42.96875 
Q 14.546875 40.625 13.640625 36.5 
Q 12.75 32.375 12.75 25.78125 
Q 12.75 20.171875 13.5 16.28125 
Q 14.265625 12.40625 15.71875 10.015625 
Q 17.1875 7.625 19.328125 6.5625 
Q 21.484375 5.515625 24.3125 5.515625 
Q 27.34375 5.515625 29.296875 6.921875 
Q 31.25 8.34375 32.4375 11.03125 
Q 33.640625 13.71875 34.109375 17.59375 
Q 34.578125 21.484375 34.578125 26.46875 
z
" id="LiberationSansNarrow-112"/>
     </defs>
     <g transform="translate(108.5094 50.373776)scale(0.11662 -0.11662)">
      <use xlink:href="#LiberationSansNarrow-72"/>
      <use x="59.179688" xlink:href="#LiberationSansNarrow-111"/>
      <use x="104.785156" xlink:href="#LiberationSansNarrow-112"/>
     </g>
    </g>
    <g id="line2d_23">
     <path d="M 160.015352 32.505406 
L 183.339352 32.505406 
" style="fill:none;stroke:#2ca02c;stroke-linecap:square;"/>
    </g>
    <g id="line2d_24"/>
    <g id="text_17">
     <!-- Lpe -->
     <defs>
      <path d="M 6.734375 0 
L 6.734375 68.796875 
L 14.359375 68.796875 
L 14.359375 7.625 
L 42.875 7.625 
L 42.875 0 
z
" id="LiberationSansNarrow-76"/>
      <path d="M 10.6875 24.5625 
Q 10.6875 20.40625 11.5625 16.90625 
Q 12.453125 13.421875 13.90625 10.90625 
Q 15.375 8.40625 17.640625 7 
Q 19.921875 5.609375 23.140625 5.609375 
Q 27.828125 5.609375 30.65625 7.90625 
Q 33.5 10.203125 34.46875 13.71875 
L 40.828125 11.53125 
Q 40.140625 9.328125 38.921875 7.109375 
Q 37.703125 4.890625 35.640625 3.09375 
Q 33.59375 1.3125 30.53125 0.15625 
Q 27.484375 -0.984375 23.140625 -0.984375 
Q 13.53125 -0.984375 8.5 6 
Q 3.46875 12.984375 3.46875 26.765625 
Q 3.46875 34.1875 5 39.328125 
Q 6.546875 44.484375 9.171875 47.703125 
Q 11.8125 50.921875 15.328125 52.359375 
Q 18.84375 53.8125 22.859375 53.8125 
Q 28.328125 53.8125 31.984375 51.65625 
Q 39.0625 47.515625 41.015625 36.8125 
Q 41.9375 31.6875 41.9375 25.734375 
L 41.9375 24.5625 
z
M 34.71875 31.296875 
Q 34.71875 40.140625 31.421875 43.71875 
Q 28.125 47.3125 22.75 47.3125 
Q 18.953125 47.3125 15.328125 44.09375 
Q 10.9375 40.328125 10.6875 31.296875 
z
" id="LiberationSansNarrow-101"/>
     </defs>
     <g transform="translate(192.668952 36.587106)scale(0.11662 -0.11662)">
      <use xlink:href="#LiberationSansNarrow-76"/>
      <use x="45.605469" xlink:href="#LiberationSansNarrow-112"/>
      <use x="91.210938" xlink:href="#LiberationSansNarrow-101"/>
     </g>
    </g>
    <g id="line2d_25">
     <path d="M 160.015352 46.292076 
L 183.339352 46.292076 
" style="fill:none;stroke:#d62728;stroke-linecap:square;"/>
    </g>
    <g id="line2d_26"/>
    <g id="text_18">
     <!-- Lcap Lpe -->
     <defs>
      <path d="M 11.03125 26.65625 
Q 11.03125 22.125 11.5625 18.3125 
Q 12.109375 14.5 13.375 11.734375 
Q 14.65625 8.984375 16.75 7.46875 
Q 18.84375 5.953125 21.96875 5.953125 
Q 25.828125 5.953125 28.390625 8.484375 
Q 30.953125 11.03125 31.546875 16.3125 
L 38.875 15.71875 
Q 38.53125 12.453125 37.296875 9.421875 
Q 36.078125 6.390625 34.03125 4.09375 
Q 31.984375 1.8125 29 0.40625 
Q 26.03125 -0.984375 22.171875 -0.984375 
Q 17.09375 -0.984375 13.5 1.109375 
Q 9.90625 3.21875 7.6875 6.90625 
Q 5.46875 10.59375 4.46875 15.59375 
Q 3.46875 20.609375 3.46875 26.46875 
Q 3.46875 31.78125 4.203125 35.859375 
Q 4.9375 39.9375 6.21875 42.984375 
Q 7.515625 46.046875 9.265625 48.125 
Q 11.03125 50.203125 13.109375 51.4375 
Q 15.1875 52.6875 17.453125 53.25 
Q 19.734375 53.8125 22.078125 53.8125 
Q 25.734375 53.8125 28.5625 52.59375 
Q 31.390625 51.375 33.46875 49.25 
Q 35.546875 47.125 36.8125 44.234375 
Q 38.09375 41.359375 38.625 38.03125 
L 31.203125 37.359375 
Q 30.671875 41.75 28.375 44.328125 
Q 26.078125 46.921875 21.875 46.921875 
Q 18.796875 46.921875 16.71875 45.671875 
Q 14.65625 44.4375 13.375 41.921875 
Q 12.109375 39.40625 11.5625 35.59375 
Q 11.03125 31.78125 11.03125 26.65625 
z
" id="LiberationSansNarrow-99"/>
      <path d="M 16.546875 -0.984375 
Q 10.015625 -0.984375 6.734375 3.21875 
Q 3.46875 7.421875 3.46875 14.75 
Q 3.46875 19.96875 5.09375 23.3125 
Q 6.734375 26.65625 9.34375 28.5625 
Q 11.96875 30.46875 15.328125 31.203125 
Q 18.703125 31.9375 22.171875 32.03125 
L 31.9375 32.234375 
L 31.9375 35.109375 
Q 31.9375 38.375 31.375 40.671875 
Q 30.8125 42.96875 29.640625 44.375 
Q 28.46875 45.796875 26.734375 46.453125 
Q 25 47.125 22.609375 47.125 
Q 20.515625 47.125 18.84375 46.75 
Q 17.1875 46.390625 15.9375 45.4375 
Q 14.703125 44.484375 13.9375 42.84375 
Q 13.1875 41.21875 12.9375 38.71875 
L 5.421875 39.546875 
Q 5.8125 42.671875 6.9375 45.28125 
Q 8.0625 47.90625 10.109375 49.796875 
Q 12.15625 51.703125 15.25 52.75 
Q 18.359375 53.8125 22.796875 53.8125 
Q 30.953125 53.8125 35.078125 49.234375 
Q 39.203125 44.671875 39.203125 36.03125 
L 39.203125 13.28125 
Q 39.203125 9.375 40.03125 7.390625 
Q 40.875 5.421875 43.265625 5.421875 
Q 43.84375 5.421875 44.453125 5.515625 
Q 45.0625 5.609375 45.609375 5.765625 
L 45.609375 0.296875 
Q 44.234375 -0.09375 42.890625 -0.28125 
Q 41.546875 -0.484375 40.046875 -0.484375 
Q 37.984375 -0.484375 36.515625 0.171875 
Q 35.0625 0.828125 34.15625 2.171875 
Q 33.25 3.515625 32.765625 5.484375 
Q 32.28125 7.46875 32.125 10.109375 
L 31.9375 10.109375 
Q 30.765625 7.5625 29.375 5.515625 
Q 27.984375 3.46875 26.140625 2.03125 
Q 24.3125 0.59375 21.9375 -0.1875 
Q 19.578125 -0.984375 16.546875 -0.984375 
z
M 18.21875 5.609375 
Q 21.6875 5.609375 24.25 7.140625 
Q 26.8125 8.6875 28.515625 11.078125 
Q 30.21875 13.484375 31.078125 16.3125 
Q 31.9375 19.140625 31.9375 21.734375 
L 31.9375 26.078125 
L 24.03125 25.875 
Q 21.390625 25.828125 19 25.40625 
Q 16.609375 25 14.8125 23.78125 
Q 13.03125 22.5625 11.953125 20.359375 
Q 10.890625 18.171875 10.890625 14.59375 
Q 10.890625 10.296875 12.796875 7.953125 
Q 14.703125 5.609375 18.21875 5.609375 
z
" id="LiberationSansNarrow-97"/>
     </defs>
     <g transform="translate(192.668952 50.373776)scale(0.11662 -0.11662)">
      <use xlink:href="#LiberationSansNarrow-76"/>
      <use x="45.605469" xlink:href="#LiberationSansNarrow-99"/>
      <use x="86.621094" xlink:href="#LiberationSansNarrow-97"/>
      <use x="132.226562" xlink:href="#LiberationSansNarrow-112"/>
      <use x="177.832031" xlink:href="#LiberationSansNarrow-32"/>
      <use x="200.634766" xlink:href="#LiberationSansNarrow-76"/>
      <use x="246.240234" xlink:href="#LiberationSansNarrow-112"/>
      <use x="291.845703" xlink:href="#LiberationSansNarrow-101"/>
     </g>
    </g>
    <g id="line2d_27">
     <path d="M 243.686558 32.505406 
L 267.010558 32.505406 
" style="fill:none;stroke:#9467bd;stroke-linecap:square;"/>
    </g>
    <g id="line2d_28"/>
    <g id="text_19">
     <!-- Lpb Hop -->
     <defs>
      <path d="M 42.140625 26.65625 
Q 42.140625 -0.984375 26.21875 -0.984375 
Q 21.296875 -0.984375 18.046875 1.1875 
Q 14.796875 3.375 12.75 8.203125 
L 12.640625 8.203125 
Q 12.640625 6.9375 12.59375 5.5625 
Q 12.546875 4.203125 12.5 3.03125 
L 12.359375 1.03125 
Q 12.3125 0.203125 12.25 0 
L 5.28125 0 
Q 5.328125 0.4375 5.375 1.484375 
Q 5.421875 2.546875 5.4375 4 
Q 5.46875 5.46875 5.484375 7.21875 
Q 5.515625 8.984375 5.515625 10.890625 
L 5.515625 72.46875 
L 12.75 72.46875 
L 12.75 51.8125 
Q 12.75 50.34375 12.71875 49 
Q 12.703125 47.65625 12.640625 46.625 
Q 12.59375 45.40625 12.546875 44.34375 
L 12.75 44.34375 
Q 14.75 49.421875 18.046875 51.609375 
Q 21.34375 53.8125 26.21875 53.8125 
Q 34.421875 53.8125 38.28125 47.0625 
Q 42.140625 40.328125 42.140625 26.65625 
z
M 34.578125 26.375 
Q 34.578125 31.84375 34.03125 35.75 
Q 33.5 39.65625 32.25 42.15625 
Q 31 44.671875 29.078125 45.84375 
Q 27.15625 47.015625 24.359375 47.015625 
Q 21.53125 47.015625 19.359375 45.890625 
Q 17.1875 44.78125 15.71875 42.28125 
Q 14.265625 39.796875 13.5 35.734375 
Q 12.75 31.6875 12.75 25.828125 
Q 12.75 20.171875 13.5 16.3125 
Q 14.265625 12.453125 15.71875 10.03125 
Q 17.1875 7.625 19.328125 6.5625 
Q 21.484375 5.515625 24.3125 5.515625 
Q 26.953125 5.515625 28.875 6.640625 
Q 30.8125 7.765625 32.078125 10.25 
Q 33.34375 12.75 33.953125 16.71875 
Q 34.578125 20.703125 34.578125 26.375 
z
" id="LiberationSansNarrow-98"/>
     </defs>
     <g transform="translate(276.340158 36.587106)scale(0.11662 -0.11662)">
      <use xlink:href="#LiberationSansNarrow-76"/>
      <use x="45.605469" xlink:href="#LiberationSansNarrow-112"/>
      <use x="91.210938" xlink:href="#LiberationSansNarrow-98"/>
      <use x="136.816406" xlink:href="#LiberationSansNarrow-32"/>
      <use x="159.619141" xlink:href="#LiberationSansNarrow-72"/>
      <use x="218.798828" xlink:href="#LiberationSansNarrow-111"/>
      <use x="264.404297" xlink:href="#LiberationSansNarrow-112"/>
     </g>
    </g>
   </g>
  </g>
 </g>
 <defs>
  <clipPath id="pbe67af7510">
   <rect height="234.56" width="493" x="65.36" y="17.64"/>
  </clipPath>
 </defs>
</svg>
