<?xml version="1.0" encoding="utf-8" standalone="no"?>
<!DOCTYPE svg PUBLIC "-//W3C//DTD SVG 1.1//EN"
  "http://www.w3.org/Graphics/SVG/1.1/DTD/svg11.dtd">
<!-- Created with matplotlib (https://matplotlib.org/) -->
<svg height="288pt" version="1.1" viewBox="0 0 576 288" width="576pt" xmlns="http://www.w3.org/2000/svg" xmlns:xlink="http://www.w3.org/1999/xlink">
 <defs>
  <style type="text/css">
*{stroke-linecap:butt;stroke-linejoin:round;}
  </style>
 </defs>
 <g id="figure_1">
  <g id="patch_1">
   <path d="M 0 288 
L 576 288 
L 576 0 
L 0 0 
z
" style="fill:#ffffff;"/>
  </g>
  <g id="axes_1">
   <g id="patch_2">
    <path d="M 28.6 252.2 
L 558.36 252.2 
L 558.36 17.64 
L 28.6 17.64 
z
" style="fill:#ffffff;"/>
   </g>
   <g id="matplotlib.axis_1">
    <g id="xtick_1">
     <g id="line2d_1">
      <path clip-path="url(#pe4f4b78af0)" d="M 36.783759 252.2 
L 36.783759 17.64 
" style="fill:none;stroke:#b0b0b0;stroke-dasharray:1.48,0.64;stroke-dashoffset:0;stroke-width:0.4;"/>
     </g>
     <g id="text_1">
      <!-- 1984 -->
      <defs>
       <path d="M 6.25 0 
L 6.25 7.46875 
L 20.609375 7.46875 
L 20.609375 60.40625 
L 7.90625 49.3125 
L 7.90625 57.625 
L 21.234375 68.796875 
L 27.875 68.796875 
L 27.875 7.46875 
L 41.609375 7.46875 
L 41.609375 0 
z
" id="LiberationSansNarrow-49"/>
       <path d="M 41.703125 35.796875 
Q 41.703125 26.609375 40.28125 19.703125 
Q 38.875 12.796875 36.234375 8.203125 
Q 33.59375 3.609375 29.8125 1.3125 
Q 26.03125 -0.984375 21.296875 -0.984375 
Q 18.0625 -0.984375 15.453125 -0.171875 
Q 12.84375 0.640625 10.8125 2.34375 
Q 8.796875 4.046875 7.328125 6.78125 
Q 5.859375 9.515625 4.984375 13.375 
L 11.921875 14.703125 
Q 13.03125 10.25 15.40625 8.171875 
Q 17.78125 6.109375 21.4375 6.109375 
Q 24.359375 6.109375 26.78125 7.78125 
Q 29.203125 9.46875 30.875 12.84375 
Q 32.5625 16.21875 33.546875 21.296875 
Q 34.46875 26.375 34.578125 33.203125 
Q 33.734375 30.90625 32.265625 29.09375 
Q 30.8125 27.296875 28.953125 26.046875 
Q 27.09375 24.8125 24.9375 24.140625 
Q 22.796875 23.484375 20.5625 23.484375 
Q 16.703125 23.484375 13.625 25.171875 
Q 10.546875 26.859375 8.375 29.875 
Q 6.203125 32.90625 5.03125 37.171875 
Q 3.859375 41.453125 3.859375 46.6875 
Q 3.859375 52 5.09375 56.296875 
Q 6.34375 60.59375 8.765625 63.59375 
Q 11.1875 66.609375 14.671875 68.21875 
Q 18.171875 69.828125 22.609375 69.828125 
Q 32.03125 69.828125 36.859375 61.328125 
Q 41.703125 52.828125 41.703125 35.796875 
z
M 33.890625 44.28125 
Q 33.890625 48.09375 33.125 51.453125 
Q 32.375 54.828125 30.9375 57.3125 
Q 29.5 59.8125 27.34375 61.25 
Q 25.203125 62.703125 22.359375 62.703125 
Q 19.78125 62.703125 17.703125 61.578125 
Q 15.625 60.453125 14.1875 58.375 
Q 12.75 56.296875 11.96875 53.3125 
Q 11.1875 50.34375 11.1875 46.6875 
Q 11.1875 43.21875 11.859375 40.234375 
Q 12.546875 37.25 13.953125 35.078125 
Q 15.375 32.90625 17.453125 31.65625 
Q 19.53125 30.421875 22.3125 30.421875 
Q 24.3125 30.421875 26.359375 31.25 
Q 28.421875 32.078125 30.078125 33.78125 
Q 31.734375 35.5 32.8125 38.109375 
Q 33.890625 40.71875 33.890625 44.28125 
z
" id="LiberationSansNarrow-57"/>
       <path d="M 42.046875 19.1875 
Q 42.046875 14.796875 40.890625 11.109375 
Q 39.75 7.421875 37.40625 4.734375 
Q 35.0625 2.046875 31.421875 0.53125 
Q 27.78125 -0.984375 22.796875 -0.984375 
Q 17.828125 -0.984375 14.203125 0.53125 
Q 10.59375 2.046875 8.21875 4.703125 
Q 5.859375 7.375 4.703125 11.0625 
Q 3.5625 14.75 3.5625 19.09375 
Q 3.5625 22.859375 4.515625 25.78125 
Q 5.46875 28.71875 7.03125 30.828125 
Q 8.59375 32.953125 10.609375 34.25 
Q 12.640625 35.546875 14.796875 35.984375 
L 14.796875 36.1875 
Q 12.453125 36.859375 10.59375 38.375 
Q 8.734375 39.890625 7.46875 42.015625 
Q 6.203125 44.140625 5.546875 46.71875 
Q 4.890625 49.3125 4.890625 52.203125 
Q 4.890625 55.8125 6.03125 59 
Q 7.171875 62.203125 9.421875 64.625 
Q 11.671875 67.046875 14.984375 68.4375 
Q 18.3125 69.828125 22.65625 69.828125 
Q 27.25 69.828125 30.640625 68.40625 
Q 34.03125 67 36.25 64.578125 
Q 38.484375 62.15625 39.546875 58.9375 
Q 40.625 55.71875 40.625 52.09375 
Q 40.625 49.265625 39.96875 46.671875 
Q 39.3125 44.09375 38.0625 41.96875 
Q 36.8125 39.84375 34.9375 38.34375 
Q 33.0625 36.859375 30.609375 36.28125 
L 30.609375 36.078125 
Q 33.0625 35.59375 35.15625 34.296875 
Q 37.25 33.015625 38.765625 30.890625 
Q 40.28125 28.765625 41.15625 25.828125 
Q 42.046875 22.90625 42.046875 19.1875 
z
M 33.15625 51.609375 
Q 33.15625 54.203125 32.609375 56.34375 
Q 32.078125 58.5 30.828125 60.03125 
Q 29.59375 61.578125 27.59375 62.421875 
Q 25.59375 63.28125 22.65625 63.28125 
Q 19.828125 63.28125 17.875 62.421875 
Q 15.921875 61.578125 14.640625 60.03125 
Q 13.375 58.5 12.8125 56.34375 
Q 12.25 54.203125 12.25 51.609375 
Q 12.25 49.5625 12.6875 47.40625 
Q 13.140625 45.265625 14.3125 43.5 
Q 15.484375 41.75 17.5 40.625 
Q 19.53125 39.5 22.75 39.5 
Q 26.171875 39.5 28.21875 40.625 
Q 30.28125 41.75 31.375 43.5 
Q 32.46875 45.265625 32.8125 47.40625 
Q 33.15625 49.5625 33.15625 51.609375 
z
M 34.578125 20.015625 
Q 34.578125 22.515625 34.015625 24.828125 
Q 33.453125 27.15625 32.078125 28.9375 
Q 30.71875 30.71875 28.421875 31.8125 
Q 26.125 32.90625 22.65625 32.90625 
Q 19.484375 32.90625 17.265625 31.8125 
Q 15.046875 30.71875 13.671875 28.90625 
Q 12.3125 27.09375 11.671875 24.71875 
Q 11.03125 22.359375 11.03125 19.828125 
Q 11.03125 16.65625 11.671875 14.03125 
Q 12.3125 11.421875 13.703125 9.546875 
Q 15.09375 7.671875 17.375 6.640625 
Q 19.671875 5.609375 22.90625 5.609375 
Q 26.171875 5.609375 28.421875 6.640625 
Q 30.671875 7.671875 32.03125 9.546875 
Q 33.40625 11.421875 33.984375 14.078125 
Q 34.578125 16.75 34.578125 20.015625 
z
" id="LiberationSansNarrow-56"/>
       <path d="M 35.25 15.578125 
L 35.25 0 
L 28.46875 0 
L 28.46875 15.578125 
L 1.90625 15.578125 
L 1.90625 22.40625 
L 27.6875 68.796875 
L 35.25 68.796875 
L 35.25 22.515625 
L 43.21875 22.515625 
L 43.21875 15.578125 
z
M 28.46875 58.890625 
Q 28.375 58.640625 28.03125 57.90625 
L 27.34375 56.34375 
L 26.5625 54.59375 
Q 26.125 53.65625 25.78125 53.078125 
L 11.328125 27.09375 
Q 11.140625 26.703125 10.75 26.078125 
L 9.96875 24.8125 
L 9.1875 23.484375 
Q 8.796875 22.859375 8.546875 22.515625 
L 28.46875 22.515625 
z
" id="LiberationSansNarrow-52"/>
      </defs>
      <g transform="translate(24.013134 269.345625)scale(0.14 -0.14)">
       <use xlink:href="#LiberationSansNarrow-49"/>
       <use x="45.605469" xlink:href="#LiberationSansNarrow-57"/>
       <use x="91.210938" xlink:href="#LiberationSansNarrow-56"/>
       <use x="136.816406" xlink:href="#LiberationSansNarrow-52"/>
      </g>
     </g>
    </g>
    <g id="xtick_2">
     <g id="line2d_2">
      <path clip-path="url(#pe4f4b78af0)" d="M 91.429425 252.2 
L 91.429425 17.64 
" style="fill:none;stroke:#b0b0b0;stroke-dasharray:1.48,0.64;stroke-dashoffset:0;stroke-width:0.4;"/>
     </g>
     <g id="text_2">
      <!-- 1988 -->
      <g transform="translate(78.6588 269.345625)scale(0.14 -0.14)">
       <use xlink:href="#LiberationSansNarrow-49"/>
       <use x="45.605469" xlink:href="#LiberationSansNarrow-57"/>
       <use x="91.210938" xlink:href="#LiberationSansNarrow-56"/>
       <use x="136.816406" xlink:href="#LiberationSansNarrow-56"/>
      </g>
     </g>
    </g>
    <g id="xtick_3">
     <g id="line2d_3">
      <path clip-path="url(#pe4f4b78af0)" d="M 146.075092 252.2 
L 146.075092 17.64 
" style="fill:none;stroke:#b0b0b0;stroke-dasharray:1.48,0.64;stroke-dashoffset:0;stroke-width:0.4;"/>
     </g>
     <g id="text_3">
      <!-- 1992 -->
      <defs>
       <path d="M 4.109375 0 
L 4.109375 6.203125 
Q 6.15625 11.921875 9.109375 16.28125 
Q 12.0625 20.65625 15.3125 24.1875 
Q 18.5625 27.734375 21.734375 30.765625 
Q 24.90625 33.796875 27.46875 36.8125 
Q 30.03125 39.84375 31.609375 43.15625 
Q 33.203125 46.484375 33.203125 50.6875 
Q 33.203125 53.609375 32.46875 55.828125 
Q 31.734375 58.0625 30.390625 59.5625 
Q 29.046875 61.078125 27.140625 61.828125 
Q 25.25 62.59375 22.90625 62.59375 
Q 20.75 62.59375 18.84375 61.859375 
Q 16.9375 61.140625 15.453125 59.671875 
Q 13.96875 58.203125 13.03125 56.03125 
Q 12.109375 53.859375 11.8125 50.984375 
L 4.4375 51.8125 
Q 4.78125 55.515625 6.125 58.78125 
Q 7.46875 62.0625 9.78125 64.53125 
Q 12.109375 67 15.359375 68.40625 
Q 18.609375 69.828125 22.90625 69.828125 
Q 27.09375 69.828125 30.390625 68.609375 
Q 33.6875 67.390625 35.9375 64.984375 
Q 38.1875 62.59375 39.40625 59.078125 
Q 40.625 55.5625 40.625 50.984375 
Q 40.625 47.515625 39.59375 44.390625 
Q 38.578125 41.265625 36.859375 38.421875 
Q 35.15625 35.59375 32.90625 32.953125 
Q 30.671875 30.328125 28.21875 27.828125 
L 23.296875 22.859375 
Q 20.796875 20.359375 18.625 17.859375 
Q 16.453125 15.375 14.734375 12.8125 
Q 13.03125 10.25 12.0625 7.46875 
L 41.5 7.46875 
L 41.5 0 
z
" id="LiberationSansNarrow-50"/>
      </defs>
      <g transform="translate(133.304467 269.345625)scale(0.14 -0.14)">
       <use xlink:href="#LiberationSansNarrow-49"/>
       <use x="45.605469" xlink:href="#LiberationSansNarrow-57"/>
       <use x="91.210938" xlink:href="#LiberationSansNarrow-57"/>
       <use x="136.816406" xlink:href="#LiberationSansNarrow-50"/>
      </g>
     </g>
    </g>
    <g id="xtick_4">
     <g id="line2d_4">
      <path clip-path="url(#pe4f4b78af0)" d="M 200.720758 252.2 
L 200.720758 17.64 
" style="fill:none;stroke:#b0b0b0;stroke-dasharray:1.48,0.64;stroke-dashoffset:0;stroke-width:0.4;"/>
     </g>
     <g id="text_4">
      <!-- 1996 -->
      <defs>
       <path d="M 42 22.515625 
Q 42 17.328125 40.828125 13 
Q 39.65625 8.6875 37.359375 5.578125 
Q 35.0625 2.484375 31.640625 0.75 
Q 28.21875 -0.984375 23.78125 -0.984375 
Q 18.84375 -0.984375 15.15625 1.3125 
Q 11.46875 3.609375 9.03125 7.921875 
Q 6.59375 12.25 5.375 18.53125 
Q 4.15625 24.8125 4.15625 32.8125 
Q 4.15625 42 5.546875 48.921875 
Q 6.9375 55.859375 9.515625 60.5 
Q 12.109375 65.140625 15.859375 67.484375 
Q 19.625 69.828125 24.359375 69.828125 
Q 27.25 69.828125 29.765625 69.09375 
Q 32.28125 68.359375 34.328125 66.71875 
Q 36.375 65.09375 37.9375 62.40625 
Q 39.5 59.71875 40.4375 55.8125 
L 33.546875 54.296875 
Q 32.421875 58.734375 29.953125 60.71875 
Q 27.484375 62.703125 24.265625 62.703125 
Q 21.296875 62.703125 18.890625 60.984375 
Q 16.5 59.28125 14.8125 55.875 
Q 13.140625 52.484375 12.234375 47.359375 
Q 11.328125 42.234375 11.328125 35.40625 
Q 13.28125 39.84375 16.84375 42.15625 
Q 20.40625 44.484375 25.046875 44.484375 
Q 28.90625 44.484375 32 42.96875 
Q 35.109375 41.453125 37.328125 38.59375 
Q 39.546875 35.75 40.765625 31.671875 
Q 42 27.59375 42 22.515625 
z
M 34.671875 22.125 
Q 34.671875 25.6875 33.953125 28.5625 
Q 33.25 31.453125 31.8125 33.46875 
Q 30.375 35.5 28.25 36.59375 
Q 26.125 37.703125 23.296875 37.703125 
Q 21.34375 37.703125 19.328125 36.984375 
Q 17.328125 36.28125 15.71875 34.6875 
Q 14.109375 33.109375 13.078125 30.515625 
Q 12.0625 27.9375 12.0625 24.21875 
Q 12.0625 20.40625 12.859375 17.109375 
Q 13.671875 13.8125 15.15625 11.375 
Q 16.65625 8.9375 18.78125 7.515625 
Q 20.90625 6.109375 23.53125 6.109375 
Q 26.125 6.109375 28.203125 7.203125 
Q 30.28125 8.296875 31.71875 10.375 
Q 33.15625 12.453125 33.90625 15.421875 
Q 34.671875 18.40625 34.671875 22.125 
z
" id="LiberationSansNarrow-54"/>
      </defs>
      <g transform="translate(187.950133 269.345625)scale(0.14 -0.14)">
       <use xlink:href="#LiberationSansNarrow-49"/>
       <use x="45.605469" xlink:href="#LiberationSansNarrow-57"/>
       <use x="91.210938" xlink:href="#LiberationSansNarrow-57"/>
       <use x="136.816406" xlink:href="#LiberationSansNarrow-54"/>
      </g>
     </g>
    </g>
    <g id="xtick_5">
     <g id="line2d_5">
      <path clip-path="url(#pe4f4b78af0)" d="M 255.366424 252.2 
L 255.366424 17.64 
" style="fill:none;stroke:#b0b0b0;stroke-dasharray:1.48,0.64;stroke-dashoffset:0;stroke-width:0.4;"/>
     </g>
     <g id="text_5">
      <!-- 2000 -->
      <defs>
       <path d="M 42.390625 34.421875 
Q 42.390625 24.515625 40.84375 17.75 
Q 39.3125 10.984375 36.640625 6.8125 
Q 33.984375 2.640625 30.390625 0.828125 
Q 26.8125 -0.984375 22.703125 -0.984375 
Q 18.609375 -0.984375 15.03125 0.828125 
Q 11.46875 2.640625 8.828125 6.78125 
Q 6.203125 10.9375 4.703125 17.703125 
Q 3.21875 24.46875 3.21875 34.421875 
Q 3.21875 44.828125 4.703125 51.640625 
Q 6.203125 58.453125 8.828125 62.5 
Q 11.46875 66.546875 15.078125 68.1875 
Q 18.703125 69.828125 22.953125 69.828125 
Q 27 69.828125 30.53125 68.1875 
Q 34.078125 66.546875 36.71875 62.5 
Q 39.359375 58.453125 40.875 51.640625 
Q 42.390625 44.828125 42.390625 34.421875 
z
M 35.0625 34.421875 
Q 35.0625 42.625 34.28125 48.0625 
Q 33.5 53.515625 31.9375 56.765625 
Q 30.375 60.015625 28.09375 61.359375 
Q 25.828125 62.703125 22.953125 62.703125 
Q 19.921875 62.703125 17.578125 61.328125 
Q 15.234375 59.96875 13.671875 56.71875 
Q 12.109375 53.46875 11.296875 48.015625 
Q 10.5 42.578125 10.5 34.421875 
Q 10.5 26.515625 11.296875 21.09375 
Q 12.109375 15.671875 13.6875 12.375 
Q 15.28125 9.078125 17.578125 7.640625 
Q 19.875 6.203125 22.796875 6.203125 
Q 25.640625 6.203125 27.90625 7.640625 
Q 30.171875 9.078125 31.75 12.375 
Q 33.34375 15.671875 34.203125 21.09375 
Q 35.0625 26.515625 35.0625 34.421875 
z
" id="LiberationSansNarrow-48"/>
      </defs>
      <g transform="translate(242.595799 269.345625)scale(0.14 -0.14)">
       <use xlink:href="#LiberationSansNarrow-50"/>
       <use x="45.605469" xlink:href="#LiberationSansNarrow-48"/>
       <use x="91.210938" xlink:href="#LiberationSansNarrow-48"/>
       <use x="136.816406" xlink:href="#LiberationSansNarrow-48"/>
      </g>
     </g>
    </g>
    <g id="xtick_6">
     <g id="line2d_6">
      <path clip-path="url(#pe4f4b78af0)" d="M 310.012091 252.2 
L 310.012091 17.64 
" style="fill:none;stroke:#b0b0b0;stroke-dasharray:1.48,0.64;stroke-dashoffset:0;stroke-width:0.4;"/>
     </g>
     <g id="text_6">
      <!-- 2004 -->
      <g transform="translate(297.241466 269.345625)scale(0.14 -0.14)">
       <use xlink:href="#LiberationSansNarrow-50"/>
       <use x="45.605469" xlink:href="#LiberationSansNarrow-48"/>
       <use x="91.210938" xlink:href="#LiberationSansNarrow-48"/>
       <use x="136.816406" xlink:href="#LiberationSansNarrow-52"/>
      </g>
     </g>
    </g>
    <g id="xtick_7">
     <g id="line2d_7">
      <path clip-path="url(#pe4f4b78af0)" d="M 364.657757 252.2 
L 364.657757 17.64 
" style="fill:none;stroke:#b0b0b0;stroke-dasharray:1.48,0.64;stroke-dashoffset:0;stroke-width:0.4;"/>
     </g>
     <g id="text_7">
      <!-- 2008 -->
      <g transform="translate(351.887132 269.345625)scale(0.14 -0.14)">
       <use xlink:href="#LiberationSansNarrow-50"/>
       <use x="45.605469" xlink:href="#LiberationSansNarrow-48"/>
       <use x="91.210938" xlink:href="#LiberationSansNarrow-48"/>
       <use x="136.816406" xlink:href="#LiberationSansNarrow-56"/>
      </g>
     </g>
    </g>
    <g id="xtick_8">
     <g id="line2d_8">
      <path clip-path="url(#pe4f4b78af0)" d="M 419.303423 252.2 
L 419.303423 17.64 
" style="fill:none;stroke:#b0b0b0;stroke-dasharray:1.48,0.64;stroke-dashoffset:0;stroke-width:0.4;"/>
     </g>
     <g id="text_8">
      <!-- 2012 -->
      <g transform="translate(406.532798 269.345625)scale(0.14 -0.14)">
       <use xlink:href="#LiberationSansNarrow-50"/>
       <use x="45.605469" xlink:href="#LiberationSansNarrow-48"/>
       <use x="91.210938" xlink:href="#LiberationSansNarrow-49"/>
       <use x="136.816406" xlink:href="#LiberationSansNarrow-50"/>
      </g>
     </g>
    </g>
    <g id="xtick_9">
     <g id="line2d_9">
      <path clip-path="url(#pe4f4b78af0)" d="M 473.94909 252.2 
L 473.94909 17.64 
" style="fill:none;stroke:#b0b0b0;stroke-dasharray:1.48,0.64;stroke-dashoffset:0;stroke-width:0.4;"/>
     </g>
     <g id="text_9">
      <!-- 2016 -->
      <g transform="translate(461.178465 269.345625)scale(0.14 -0.14)">
       <use xlink:href="#LiberationSansNarrow-50"/>
       <use x="45.605469" xlink:href="#LiberationSansNarrow-48"/>
       <use x="91.210938" xlink:href="#LiberationSansNarrow-49"/>
       <use x="136.816406" xlink:href="#LiberationSansNarrow-54"/>
      </g>
     </g>
    </g>
    <g id="xtick_10">
     <g id="line2d_10">
      <path clip-path="url(#pe4f4b78af0)" d="M 528.594756 252.2 
L 528.594756 17.64 
" style="fill:none;stroke:#b0b0b0;stroke-dasharray:1.48,0.64;stroke-dashoffset:0;stroke-width:0.4;"/>
     </g>
     <g id="text_10">
      <!-- 2020 -->
      <g transform="translate(515.824131 269.345625)scale(0.14 -0.14)">
       <use xlink:href="#LiberationSansNarrow-50"/>
       <use x="45.605469" xlink:href="#LiberationSansNarrow-48"/>
       <use x="91.210938" xlink:href="#LiberationSansNarrow-50"/>
       <use x="136.816406" xlink:href="#LiberationSansNarrow-48"/>
      </g>
     </g>
    </g>
   </g>
   <g id="matplotlib.axis_2">
    <g id="ytick_1">
     <g id="line2d_11">
      <path clip-path="url(#pe4f4b78af0)" d="M 28.6 208.567411 
L 558.36 208.567411 
" style="fill:none;stroke:#b0b0b0;stroke-dasharray:1.48,0.64;stroke-dashoffset:0;stroke-width:0.4;"/>
     </g>
     <g id="text_11">
      <!-- 1 -->
      <g transform="translate(15.214688 213.640224)scale(0.14 -0.14)">
       <use xlink:href="#LiberationSansNarrow-49"/>
      </g>
     </g>
    </g>
    <g id="ytick_2">
     <g id="line2d_12">
      <path clip-path="url(#pe4f4b78af0)" d="M 28.6 159.953209 
L 558.36 159.953209 
" style="fill:none;stroke:#b0b0b0;stroke-dasharray:1.48,0.64;stroke-dashoffset:0;stroke-width:0.4;"/>
     </g>
     <g id="text_12">
      <!-- 2 -->
      <g transform="translate(15.214688 165.026021)scale(0.14 -0.14)">
       <use xlink:href="#LiberationSansNarrow-50"/>
      </g>
     </g>
    </g>
    <g id="ytick_3">
     <g id="line2d_13">
      <path clip-path="url(#pe4f4b78af0)" d="M 28.6 111.339006 
L 558.36 111.339006 
" style="fill:none;stroke:#b0b0b0;stroke-dasharray:1.48,0.64;stroke-dashoffset:0;stroke-width:0.4;"/>
     </g>
     <g id="text_13">
      <!-- 4 -->
      <g transform="translate(15.214688 116.411819)scale(0.14 -0.14)">
       <use xlink:href="#LiberationSansNarrow-52"/>
      </g>
     </g>
    </g>
    <g id="ytick_4">
     <g id="line2d_14">
      <path clip-path="url(#pe4f4b78af0)" d="M 28.6 62.724804 
L 558.36 62.724804 
" style="fill:none;stroke:#b0b0b0;stroke-dasharray:1.48,0.64;stroke-dashoffset:0;stroke-width:0.4;"/>
     </g>
     <g id="text_14">
      <!-- 8 -->
      <g transform="translate(15.214688 67.797616)scale(0.14 -0.14)">
       <use xlink:href="#LiberationSansNarrow-56"/>
      </g>
     </g>
    </g>
   </g>
   <g id="line2d_15">
    <path clip-path="url(#pe4f4b78af0)" d="M 52.68 212.195381 
L 53.839491 210.40208 
L 54.961578 210.126186 
L 56.121069 212.678778 
L 57.243156 216.151209 
L 58.402647 215.48093 
L 59.562137 216.520785 
L 60.684225 210.694235 
L 61.843715 209.60486 
L 62.965803 209.670739 
L 64.125294 210.016048 
L 65.284784 204.563724 
L 66.332066 204.473683 
L 67.491556 209.440268 
L 68.613644 206.990437 
L 69.773135 208.79403 
L 70.895222 211.063651 
L 72.054713 204.079263 
L 73.214203 204.699506 
L 74.336291 202.036302 
L 75.495781 202.927689 
L 76.617869 204.303476 
L 77.777359 199.25062 
L 78.93685 203.610227 
L 79.984132 200.015511 
L 81.143622 198.880314 
L 82.26571 197.499445 
L 83.4252 195.150638 
L 84.547288 194.737592 
L 85.706779 196.083065 
L 86.866269 199.073594 
L 87.988357 209.573662 
L 90.269935 200.844315 
L 91.429425 196.135916 
L 92.588916 194.524294 
L 93.6736 198.84383 
L 94.833091 192.872413 
L 95.955179 188.456084 
L 97.114669 187.035025 
L 98.236757 187.432669 
L 99.396247 186.397482 
L 100.555738 184.173801 
L 101.677825 187.002701 
L 102.837316 185.79583 
L 103.959404 188.107877 
L 105.118894 185.609397 
L 106.278385 188.543646 
L 107.325666 188.401788 
L 108.485157 186.72036 
L 109.607244 187.222337 
L 110.766735 192.820941 
L 111.888823 188.81752 
L 113.048313 192.93498 
L 114.207804 191.725082 
L 115.329891 200.990035 
L 116.489382 201.682 
L 117.611469 206.031212 
L 118.77096 212.541484 
L 119.93045 208.717493 
L 120.977732 213.328619 
L 122.137223 217.527257 
L 123.25931 214.86548 
L 124.418801 220.095466 
L 125.540888 227.469448 
L 126.700379 232.0418 
L 127.85987 239.865142 
L 128.981957 241.538182 
L 130.141448 236.757339 
L 131.263535 234.669045 
L 132.423026 228.217193 
L 133.582516 228.863498 
L 134.629798 232.939274 
L 135.789289 231.686745 
L 136.911376 225.295065 
L 138.070867 228.506747 
L 139.192954 225.290331 
L 140.352445 220.129554 
L 141.511935 222.215287 
L 142.634023 224.607621 
L 143.793514 233.658189 
L 144.915601 228.911153 
L 146.075092 222.052896 
L 147.234582 213.418535 
L 148.319267 211.932417 
L 149.478757 207.425451 
L 150.600845 205.986695 
L 151.760336 201.989442 
L 152.882423 205.856106 
L 154.041914 213.420749 
L 155.201404 213.852655 
L 156.323492 209.758198 
L 157.482982 204.054897 
L 158.60507 201.422093 
L 159.76456 194.591676 
L 160.924051 194.128022 
L 161.971333 192.436832 
L 163.130823 196.001077 
L 164.252911 196.150368 
L 165.412401 193.149162 
L 166.534489 194.146279 
L 167.693979 190.762103 
L 168.85347 187.962832 
L 169.975558 190.787291 
L 171.135048 191.284096 
L 172.257136 191.034234 
L 173.416626 186.756281 
L 174.576117 190.815943 
L 175.623399 192.014979 
L 176.782889 186.950417 
L 177.904977 182.672451 
L 179.064467 183.271198 
L 180.186555 180.591474 
L 181.346045 180.617287 
L 182.505536 186.789603 
L 183.627623 185.202943 
L 184.787114 188.046986 
L 185.909202 188.200938 
L 187.068692 184.726373 
L 188.228183 181.867966 
L 189.275464 184.283099 
L 191.557043 180.051874 
L 192.716533 180.298422 
L 193.838621 179.515436 
L 194.998111 175.676681 
L 196.157602 175.850958 
L 197.279689 180.624087 
L 198.43918 180.132877 
L 199.561267 182.466228 
L 200.720758 178.027596 
L 201.880249 177.195277 
L 202.964933 174.101781 
L 204.124424 172.897433 
L 205.246511 172.91707 
L 206.406002 177.879752 
L 207.528089 176.793904 
L 208.68758 176.299718 
L 209.847071 181.181718 
L 210.969158 183.111609 
L 212.128649 182.386551 
L 213.250736 185.050271 
L 215.569717 189.688526 
L 216.616999 191.422339 
L 217.77649 181.915142 
L 218.898577 182.546453 
L 220.058068 185.901503 
L 221.180155 183.943595 
L 223.499136 177.040452 
L 224.621224 181.023928 
L 225.780715 180.980839 
L 226.902802 175.719835 
L 228.062293 171.482498 
L 229.221783 168.250242 
L 230.269065 162.82736 
L 231.428555 159.55543 
L 232.550643 152.423067 
L 233.710134 143.928468 
L 234.832221 149.173478 
L 235.991712 161.246341 
L 238.27329 144.019304 
L 239.43278 148.970862 
L 240.554868 147.252267 
L 241.714358 145.258804 
L 243.921131 154.477297 
L 245.080621 149.87655 
L 246.202709 155.739268 
L 247.362199 156.77256 
L 248.484287 162.204224 
L 249.643778 161.797169 
L 250.803268 162.963299 
L 251.925356 163.605394 
L 253.084846 166.899866 
L 254.206934 163.007496 
L 255.366424 170.773045 
L 256.525915 172.75046 
L 257.6106 167.028552 
L 258.77009 169.372734 
L 259.892178 169.921597 
L 261.051668 169.107573 
L 262.173756 176.106412 
L 263.333246 170.46535 
L 264.492737 168.313171 
L 265.614824 158.134393 
L 266.774315 154.432352 
L 267.896403 140.204042 
L 269.055893 138.872195 
L 270.215384 137.935003 
L 271.262665 126.832852 
L 272.422156 121.621258 
L 273.544244 121.520784 
L 274.703734 122.607909 
L 275.825822 121.761158 
L 276.985312 119.497967 
L 278.144803 128.363617 
L 279.26689 122.537409 
L 280.426381 117.402613 
L 281.548468 113.157233 
L 283.86745 99.329561 
L 284.914731 94.173217 
L 286.074222 90.105561 
L 287.196309 87.45217 
L 288.3558 89.837233 
L 289.477888 94.736948 
L 290.637378 94.502847 
L 291.796869 101.769719 
L 292.918956 101.453099 
L 294.078447 91.301268 
L 295.200534 91.004648 
L 296.360025 95.732484 
L 297.519515 95.848088 
L 298.566797 93.969516 
L 299.726288 92.561783 
L 300.848375 85.068236 
L 302.007866 84.784852 
L 303.129953 85.03348 
L 304.289444 79.830831 
L 305.448934 84.132038 
L 306.571022 78.785601 
L 307.730513 75.416537 
L 308.8526 67.737083 
L 310.012091 72.40164 
L 311.171581 74.638163 
L 313.415756 70.251571 
L 315.697335 66.412343 
L 316.819422 66.744854 
L 317.978913 67.510972 
L 319.138403 69.653315 
L 320.260491 68.753401 
L 321.419981 66.394798 
L 322.542069 65.277254 
L 324.86105 69.438142 
L 325.908332 74.119631 
L 327.067822 78.332073 
L 328.18991 76.257048 
L 329.3494 75.933721 
L 330.471488 71.382943 
L 331.630979 70.046926 
L 332.790469 64.755374 
L 333.912557 71.283922 
L 335.072047 73.327541 
L 336.194135 73.679019 
L 337.353625 65.794787 
L 338.513116 73.135381 
L 339.560398 71.435613 
L 340.719888 72.248218 
L 341.841976 74.953796 
L 343.001466 72.677661 
L 344.123554 74.9139 
L 345.283044 79.150296 
L 346.442535 81.346971 
L 347.564623 84.301517 
L 348.724113 84.143779 
L 349.846201 85.549517 
L 351.005691 86.017621 
L 352.165182 88.351818 
L 353.212463 86.094269 
L 354.371954 90.697695 
L 355.494042 91.421161 
L 356.653532 91.578353 
L 357.77562 95.335889 
L 358.93511 95.105562 
L 360.094601 92.578939 
L 361.216688 90.52011 
L 362.376179 91.492443 
L 363.498267 84.492381 
L 364.657757 86.470381 
L 365.817248 80.451654 
L 366.901932 79.454889 
L 368.061423 78.714873 
L 369.18351 73.515962 
L 370.343001 72.554304 
L 371.465089 73.411418 
L 372.624579 70.521228 
L 373.78407 74.220988 
L 374.906157 90.157018 
L 376.065648 89.512328 
L 377.187735 78.314667 
L 378.347226 90.244154 
L 379.506716 87.944979 
L 380.553998 69.55599 
L 381.713489 64.644775 
L 382.835576 65.578404 
L 383.995067 61.404161 
L 385.117154 48.699638 
L 386.276645 49.139298 
L 387.436135 41.405192 
L 388.558223 49.382716 
L 389.717714 48.273486 
L 390.839801 41.204299 
L 391.999292 42.127134 
L 393.158782 33.030481 
L 394.206064 34.831483 
L 395.365555 28.301818 
L 396.487642 32.663086 
L 397.647133 37.923286 
L 398.76922 33.65795 
L 399.928711 39.522177 
L 401.088201 31.856121 
L 403.369779 34.438899 
L 404.491867 31.393424 
L 405.651358 36.772952 
L 406.810848 35.758994 
L 407.85813 33.785845 
L 409.01762 34.510825 
L 410.139708 35.956274 
L 411.299199 34.129387 
L 412.421286 41.608514 
L 413.580777 40.277562 
L 414.740267 50.200931 
L 415.862355 43.778247 
L 417.021845 47.484987 
L 418.143933 46.991693 
L 419.303423 46.889035 
L 420.462914 44.824486 
L 421.547599 47.85747 
L 422.707089 47.974406 
L 423.829177 53.589336 
L 424.988667 50.52822 
L 426.110755 57.973991 
L 427.270245 58.325441 
L 428.429736 55.601801 
L 429.551824 52.390157 
L 430.711314 47.54351 
L 432.992892 45.860096 
L 434.152383 48.016362 
L 435.199664 43.627613 
L 437.481243 48.094323 
L 438.640733 49.564252 
L 439.762821 47.140462 
L 440.922311 45.696472 
L 442.081802 43.432563 
L 443.203889 38.026281 
L 444.36338 41.196932 
L 445.485468 42.779664 
L 446.644958 61.107699 
L 447.804449 55.03925 
L 448.85173 56.08359 
L 450.011221 57.754716 
L 451.133308 53.415462 
L 452.292799 51.902287 
L 453.414887 55.972137 
L 454.574377 50.39355 
L 455.733868 57.458365 
L 456.855955 58.597562 
L 458.015446 72.579275 
L 459.137533 72.862575 
L 460.297024 76.107467 
L 461.456514 76.339186 
L 462.503796 79.08779 
L 463.663287 70.988879 
L 464.785374 77.764115 
L 465.944865 79.300828 
L 467.066952 101.515483 
L 468.226443 103.887437 
L 469.385934 114.121636 
L 470.508021 111.930487 
L 471.667512 116.371161 
L 472.789599 133.658419 
L 473.94909 143.26679 
L 475.10858 162.370039 
L 476.193265 135.707975 
L 477.352756 119.254276 
L 478.474843 120.55349 
L 479.634334 124.365476 
L 480.756421 119.127802 
L 481.915912 117.804733 
L 483.075402 112.25784 
L 484.19749 116.356735 
L 485.35698 112.298562 
L 486.479068 116.811362 
L 487.638559 117.463392 
L 488.798049 110.566141 
L 489.845331 109.802353 
L 491.004821 107.225563 
L 492.126909 108.639249 
L 494.408487 118.696408 
L 495.567978 116.170376 
L 496.727468 110.611675 
L 499.009046 109.813574 
L 500.131134 110.469144 
L 501.290624 115.9271 
L 502.450115 118.255684 
L 503.497397 119.243919 
L 504.656887 115.198102 
L 505.778975 116.44965 
L 506.938465 116.214383 
L 508.060553 117.831441 
L 509.220043 113.212511 
L 510.379534 111.889799 
L 511.501622 115.176196 
L 512.661112 111.639544 
L 513.7832 114.071553 
L 514.94269 107.750557 
L 516.102181 108.082149 
L 517.149463 115.505987 
L 518.308953 116.424158 
L 519.431041 108.346702 
L 520.590531 110.218499 
L 521.712619 111.257187 
L 522.872109 111.170027 
L 524.0316 108.991044 
L 525.153687 115.646104 
L 526.313178 118.826128 
L 527.435266 106.871037 
L 528.594756 112.61958 
L 529.754247 125.774762 
L 530.838931 134.744658 
L 531.998422 124.343042 
L 533.120509 129.664704 
L 534.28 134.496714 
L 534.28 134.496714 
" style="fill:none;stroke:#1f77b4;stroke-linecap:square;"/>
   </g>
   <g id="line2d_16">
    <path clip-path="url(#pe4f4b78af0)" d="M 52.68 206.974442 
L 53.839491 206.501154 
L 54.961578 204.972948 
L 56.121069 204.988116 
L 57.243156 207.979017 
L 58.402647 206.240243 
L 59.562137 207.725878 
L 60.684225 204.873084 
L 61.843715 205.716034 
L 62.965803 206.227688 
L 64.125294 205.461528 
L 65.284784 203.685253 
L 66.332066 204.092174 
L 67.491556 207.815704 
L 68.613644 204.791994 
L 70.895222 205.615082 
L 72.054713 201.754688 
L 73.214203 205.90531 
L 74.336291 202.762225 
L 75.495781 204.264131 
L 76.617869 207.495306 
L 77.777359 204.197315 
L 78.93685 208.19075 
L 79.984132 210.400275 
L 81.143622 211.379974 
L 82.26571 211.727088 
L 83.4252 211.292306 
L 84.547288 211.895697 
L 85.706779 213.095252 
L 86.866269 212.850316 
L 87.988357 218.237689 
L 89.147847 213.722206 
L 90.269935 210.077477 
L 91.429425 207.015653 
L 92.588916 207.410518 
L 93.6736 211.627095 
L 94.833091 210.230765 
L 95.955179 207.05198 
L 97.114669 207.344533 
L 99.396247 207.578698 
L 100.555738 206.222343 
L 101.677825 207.582983 
L 102.837316 207.728051 
L 103.959404 208.485601 
L 105.118894 206.76199 
L 106.278385 209.84478 
L 107.325666 208.668618 
L 108.485157 208.585361 
L 109.607244 208.368953 
L 110.766735 210.488019 
L 111.888823 207.798691 
L 113.048313 208.177441 
L 114.207804 208.759268 
L 115.329891 212.160811 
L 116.489382 210.87235 
L 117.611469 212.369606 
L 118.77096 216.111543 
L 119.93045 212.422042 
L 120.977732 213.786901 
L 122.137223 217.177582 
L 123.25931 214.672673 
L 124.418801 218.280079 
L 125.540888 219.709752 
L 126.700379 221.803567 
L 127.85987 224.46356 
L 128.981957 224.669765 
L 130.141448 221.439746 
L 131.263535 222.065254 
L 132.423026 216.877419 
L 133.582516 219.246483 
L 134.629798 219.645476 
L 135.789289 220.327283 
L 136.911376 216.779946 
L 138.070867 220.45094 
L 139.192954 217.441491 
L 141.511935 216.570532 
L 142.634023 215.082003 
L 143.793514 218.897178 
L 144.915601 212.255535 
L 146.075092 215.483298 
L 147.234582 212.716222 
L 148.319267 212.963528 
L 149.478757 212.19432 
L 150.600845 212.967027 
L 151.760336 212.861111 
L 152.882423 211.11614 
L 154.041914 213.398634 
L 156.323492 210.186496 
L 157.482982 209.107443 
L 158.60507 208.573864 
L 159.76456 206.853599 
L 161.971333 205.556108 
L 163.130823 206.38455 
L 164.252911 205.964528 
L 167.693979 202.861775 
L 168.85347 203.309508 
L 169.975558 205.199822 
L 171.135048 207.522631 
L 172.257136 206.891154 
L 173.416626 206.435339 
L 174.576117 208.620333 
L 175.623399 210.310336 
L 176.782889 206.98324 
L 177.904977 207.003404 
L 179.064467 209.351402 
L 180.186555 207.050124 
L 181.346045 206.943135 
L 182.505536 210.648293 
L 183.627623 209.244794 
L 184.787114 211.812498 
L 185.909202 210.663812 
L 188.228183 209.008291 
L 189.275464 209.576824 
L 190.434955 209.384649 
L 191.557043 207.760504 
L 192.716533 208.087044 
L 193.838621 207.991415 
L 194.998111 205.965458 
L 196.157602 205.264838 
L 197.279689 207.412694 
L 198.43918 205.793509 
L 199.561267 206.687916 
L 200.720758 204.756952 
L 201.880249 207.592133 
L 202.964933 206.553201 
L 204.124424 206.146839 
L 205.246511 206.136941 
L 206.406002 207.098669 
L 207.528089 206.906424 
L 208.68758 206.247778 
L 209.847071 204.640802 
L 210.969158 204.439339 
L 212.128649 202.492482 
L 213.250736 204.523917 
L 214.410227 202.911197 
L 215.569717 204.379238 
L 216.616999 207.405553 
L 217.77649 202.076941 
L 218.898577 204.399917 
L 220.058068 204.578022 
L 221.180155 202.497533 
L 222.339646 204.798171 
L 223.499136 200.779533 
L 224.621224 203.599523 
L 225.780715 200.686842 
L 226.902802 199.383662 
L 228.062293 201.160474 
L 229.221783 200.180335 
L 230.269065 199.532812 
L 231.428555 201.281616 
L 232.550643 201.82417 
L 233.710134 201.152925 
L 234.832221 206.957684 
L 235.991712 215.246332 
L 237.151202 210.019655 
L 238.27329 205.606135 
L 239.43278 209.333988 
L 241.714358 213.750675 
L 242.873849 215.321862 
L 243.921131 214.70048 
L 245.080621 212.241436 
L 246.202709 213.160921 
L 247.362199 211.34167 
L 248.484287 217.248755 
L 249.643778 217.063865 
L 250.803268 219.74804 
L 251.925356 215.474786 
L 253.084846 220.542483 
L 254.206934 219.498911 
L 255.366424 224.944096 
L 256.525915 225.799398 
L 257.6106 220.280834 
L 258.77009 220.595864 
L 259.892178 219.778527 
L 261.051668 222.469599 
L 262.173756 219.942313 
L 263.333246 214.418741 
L 264.492737 210.8253 
L 265.614824 206.260482 
L 266.774315 207.413017 
L 267.896403 197.927965 
L 269.055893 196.884568 
L 270.215384 194.901271 
L 271.262665 189.007502 
L 272.422156 185.959254 
L 273.544244 188.845249 
L 275.825822 184.684385 
L 276.985312 186.486076 
L 278.144803 187.651657 
L 279.26689 188.036088 
L 280.426381 185.83005 
L 281.548468 184.458378 
L 282.707959 184.417791 
L 283.86745 182.539836 
L 284.914731 180.488522 
L 286.074222 177.37926 
L 287.196309 175.058406 
L 288.3558 174.301981 
L 289.477888 171.634754 
L 290.637378 171.204777 
L 291.796869 175.974309 
L 292.918956 172.549349 
L 294.078447 175.406524 
L 295.200534 174.712456 
L 296.360025 176.519499 
L 297.519515 172.844593 
L 298.566797 174.241904 
L 299.726288 173.004329 
L 300.848375 170.384667 
L 302.007866 173.876647 
L 303.129953 173.846731 
L 304.289444 172.520946 
L 305.448934 174.417567 
L 306.571022 170.852753 
L 307.730513 170.123914 
L 308.8526 169.134635 
L 310.012091 171.476872 
L 312.256266 170.151006 
L 313.415756 172.769063 
L 314.537844 170.703129 
L 315.697335 170.648014 
L 316.819422 169.73753 
L 317.978913 167.300944 
L 319.138403 167.824249 
L 320.260491 166.686794 
L 322.542069 166.282753 
L 323.701559 165.873462 
L 324.86105 163.729097 
L 325.908332 165.456173 
L 327.067822 164.871269 
L 328.18991 163.682371 
L 329.3494 163.287001 
L 330.471488 162.532629 
L 331.630979 162.912081 
L 332.790469 161.472859 
L 333.912557 161.701895 
L 335.072047 162.062588 
L 336.194135 163.418514 
L 337.353625 161.293098 
L 338.513116 161.859762 
L 339.560398 161.609594 
L 340.719888 160.09515 
L 341.841976 161.570151 
L 343.001466 158.88003 
L 344.123554 158.057288 
L 345.283044 159.416414 
L 346.442535 160.236969 
L 347.564623 160.22178 
L 348.724113 159.4921 
L 349.846201 159.718923 
L 351.005691 159.624276 
L 352.165182 162.245679 
L 353.212463 159.197088 
L 354.371954 159.50177 
L 355.494042 158.889229 
L 356.653532 160.562826 
L 357.77562 164.725807 
L 358.93511 161.415806 
L 360.094601 161.236601 
L 361.216688 163.522729 
L 362.376179 164.640437 
L 363.498267 165.560653 
L 364.657757 163.441491 
L 365.817248 164.364645 
L 366.901932 163.97286 
L 368.061423 161.822709 
L 369.18351 163.745368 
L 370.343001 166.925068 
L 371.465089 163.929665 
L 372.624579 164.481898 
L 373.78407 164.749799 
L 374.906157 163.121362 
L 376.065648 162.269622 
L 377.187735 160.756854 
L 378.347226 169.644192 
L 379.506716 175.02826 
L 380.553998 164.643153 
L 381.713489 164.484487 
L 382.835576 164.192041 
L 383.995067 167.439101 
L 385.117154 161.896874 
L 386.276645 164.686394 
L 387.436135 163.197163 
L 388.558223 165.898592 
L 389.717714 163.34235 
L 390.839801 161.803303 
L 391.999292 165.523191 
L 393.158782 160.412516 
L 394.206064 159.643335 
L 395.365555 160.183287 
L 397.647133 165.980494 
L 398.76922 161.00624 
L 399.928711 164.51681 
L 401.088201 161.432057 
L 402.210289 161.410853 
L 403.369779 163.361874 
L 404.491867 161.602 
L 405.651358 162.925252 
L 406.810848 163.144788 
L 407.85813 161.427655 
L 409.01762 160.99191 
L 410.139708 161.58043 
L 411.299199 159.464538 
L 412.421286 163.060851 
L 413.580777 159.379365 
L 414.740267 163.628809 
L 415.862355 158.949353 
L 417.021845 160.545547 
L 418.143933 160.433471 
L 419.303423 160.980847 
L 420.462914 161.064774 
L 421.547599 160.98011 
L 422.707089 161.78009 
L 423.829177 164.001214 
L 424.988667 160.028765 
L 426.110755 162.148205 
L 427.270245 162.263821 
L 428.429736 162.641766 
L 429.551824 162.582793 
L 430.711314 161.512407 
L 431.833402 161.005513 
L 432.992892 159.587538 
L 434.152383 160.473541 
L 435.199664 159.654956 
L 436.359155 159.012155 
L 437.481243 158.621792 
L 438.640733 158.937551 
L 439.762821 156.880331 
L 440.922311 158.934992 
L 442.081802 158.063237 
L 443.203889 156.944827 
L 444.36338 156.837503 
L 445.485468 155.572712 
L 446.644958 160.254255 
L 447.804449 156.996685 
L 448.85173 156.979048 
L 450.011221 156.174171 
L 451.133308 155.88035 
L 452.292799 155.974206 
L 453.414887 157.579973 
L 454.574377 154.530225 
L 455.733868 157.241588 
L 456.855955 154.261865 
L 458.015446 156.224479 
L 459.137533 156.696615 
L 460.297024 159.225184 
L 461.456514 157.048938 
L 462.503796 158.291592 
L 463.663287 157.530729 
L 464.785374 157.558612 
L 465.944865 158.648826 
L 467.066952 159.867609 
L 468.226443 162.501613 
L 469.385934 162.028723 
L 470.508021 159.745687 
L 471.667512 161.075761 
L 472.789599 163.125274 
L 473.94909 163.781143 
L 475.10858 163.908765 
L 476.193265 163.143731 
L 477.352756 163.117857 
L 478.474843 162.151208 
L 479.634334 163.955778 
L 480.756421 163.184793 
L 481.915912 162.15969 
L 483.075402 161.886939 
L 484.19749 161.286729 
L 485.35698 156.273937 
L 487.638559 157.238471 
L 488.798049 155.822007 
L 489.845331 157.750778 
L 491.004821 157.917439 
L 492.126909 159.221501 
L 493.2864 158.944615 
L 494.408487 158.493934 
L 495.567978 158.374318 
L 496.727468 157.595123 
L 497.849556 157.115916 
L 499.009046 155.411139 
L 500.131134 156.285244 
L 502.450115 156.364034 
L 503.497397 159.025194 
L 504.656887 158.10201 
L 505.778975 158.476276 
L 506.938465 160.316184 
L 508.060553 158.215965 
L 509.220043 158.340768 
L 510.379534 159.917957 
L 511.501622 160.256028 
L 512.661112 157.074322 
L 513.7832 160.880821 
L 514.94269 156.918524 
L 516.102181 159.876207 
L 517.149463 161.935035 
L 518.308953 161.325316 
L 519.431041 165.114868 
L 520.590531 161.552225 
L 521.712619 162.291342 
L 522.872109 164.704823 
L 524.0316 163.128142 
L 525.153687 160.661962 
L 526.313178 160.786074 
L 527.435266 160.329145 
L 528.594756 166.162228 
L 529.754247 174.319374 
L 530.838931 178.943417 
L 531.998422 173.349412 
L 533.120509 174.827002 
L 534.28 178.218879 
L 534.28 178.218879 
" style="fill:none;stroke:#ff7f0e;stroke-linecap:square;"/>
   </g>
   <g id="line2d_17">
    <path clip-path="url(#pe4f4b78af0)" d="M 52.68 206.754344 
L 53.839491 206.150161 
L 54.961578 204.608597 
L 56.121069 205.26999 
L 57.243156 207.676366 
L 58.402647 205.847036 
L 59.562137 207.625329 
L 60.684225 205.065071 
L 61.843715 206.068285 
L 62.965803 206.741155 
L 64.125294 206.11284 
L 65.284784 205.346569 
L 66.332066 206.508253 
L 67.491556 210.491412 
L 68.613644 207.474386 
L 69.773135 207.893296 
L 70.895222 208.710516 
L 72.054713 204.26202 
L 73.214203 207.586037 
L 74.336291 203.994672 
L 75.495781 205.44815 
L 76.617869 208.64323 
L 77.777359 205.969006 
L 78.93685 210.039195 
L 79.984132 211.188856 
L 81.143622 211.789385 
L 82.26571 211.422468 
L 83.4252 211.355501 
L 84.547288 210.815797 
L 85.706779 213.266295 
L 86.866269 212.819841 
L 87.988357 219.902966 
L 89.147847 214.700971 
L 90.269935 210.438127 
L 91.429425 208.055822 
L 92.588916 207.717344 
L 93.6736 210.470258 
L 94.833091 208.693451 
L 95.955179 205.865019 
L 97.114669 207.053584 
L 98.236757 206.67153 
L 99.396247 206.446315 
L 100.555738 205.373992 
L 101.677825 206.131017 
L 102.837316 205.180085 
L 103.959404 206.062455 
L 105.118894 203.857899 
L 106.278385 206.841437 
L 107.325666 204.854849 
L 108.485157 204.555478 
L 109.607244 204.675646 
L 110.766735 206.787721 
L 111.888823 204.76469 
L 113.048313 206.188434 
L 114.207804 206.56641 
L 115.329891 208.608456 
L 116.489382 206.761199 
L 117.611469 207.07596 
L 118.77096 210.704514 
L 119.93045 207.206416 
L 120.977732 208.599131 
L 122.137223 211.982466 
L 123.25931 209.758322 
L 124.418801 212.902079 
L 126.700379 216.219185 
L 127.85987 217.948715 
L 130.141448 215.038188 
L 131.263535 216.740941 
L 132.423026 212.970836 
L 133.582516 215.443977 
L 134.629798 215.229596 
L 135.789289 216.432756 
L 136.911376 213.019138 
L 138.070867 215.935625 
L 139.192954 213.81177 
L 140.352445 214.023757 
L 141.511935 215.035466 
L 142.634023 213.904246 
L 143.793514 217.956767 
L 144.915601 212.745466 
L 146.075092 214.09024 
L 147.234582 208.988434 
L 148.319267 208.994408 
L 149.478757 207.072375 
L 150.600845 207.998095 
L 151.760336 207.01058 
L 152.882423 206.703363 
L 154.041914 210.612427 
L 155.201404 209.999448 
L 157.482982 206.985207 
L 158.60507 206.721743 
L 159.76456 203.00729 
L 160.924051 202.310877 
L 161.971333 201.8188 
L 163.130823 201.732481 
L 164.252911 201.451026 
L 165.412401 199.914208 
L 167.693979 197.661425 
L 168.85347 198.921682 
L 169.975558 198.860933 
L 171.135048 199.997719 
L 173.416626 197.843627 
L 174.576117 200.6176 
L 175.623399 202.482742 
L 176.782889 199.024286 
L 177.904977 200.185231 
L 179.064467 202.590634 
L 180.186555 199.955847 
L 181.346045 199.692783 
L 182.505536 202.639318 
L 183.627623 201.915808 
L 184.787114 205.121679 
L 185.909202 203.244828 
L 187.068692 203.912966 
L 188.228183 202.83972 
L 189.275464 203.064384 
L 190.434955 202.399459 
L 191.557043 201.582283 
L 192.716533 201.881511 
L 193.838621 201.698006 
L 194.998111 199.705952 
L 196.157602 199.847224 
L 197.279689 202.708145 
L 198.43918 200.81498 
L 199.561267 201.819403 
L 200.720758 200.120427 
L 201.880249 203.183534 
L 202.964933 201.620326 
L 204.124424 201.576782 
L 205.246511 201.307022 
L 206.406002 202.75485 
L 207.528089 203.820149 
L 209.847071 202.813792 
L 210.969158 202.83433 
L 212.128649 201.841979 
L 213.250736 203.142423 
L 214.410227 202.532515 
L 215.569717 203.897693 
L 216.616999 206.366209 
L 217.77649 202.061194 
L 218.898577 203.644644 
L 220.058068 204.473243 
L 221.180155 203.273995 
L 222.339646 204.166085 
L 223.499136 200.620272 
L 224.621224 203.771464 
L 225.780715 201.316315 
L 226.902802 200.63974 
L 228.062293 200.792104 
L 230.269065 199.412608 
L 231.428555 200.946177 
L 232.550643 200.42717 
L 233.710134 199.458198 
L 235.991712 211.273893 
L 237.151202 203.684804 
L 238.27329 201.289616 
L 239.43278 205.405106 
L 240.554868 205.874376 
L 241.714358 208.902006 
L 242.873849 211.57999 
L 243.921131 213.146981 
L 245.080621 211.072243 
L 246.202709 210.3884 
L 247.362199 208.899978 
L 248.484287 214.435762 
L 249.643778 213.599657 
L 250.803268 216.364519 
L 251.925356 214.208314 
L 253.084846 217.792528 
L 254.206934 216.816199 
L 255.366424 219.479106 
L 256.525915 216.378578 
L 257.6106 214.514963 
L 258.77009 215.521057 
L 259.892178 215.543504 
L 261.051668 218.319401 
L 262.173756 216.724026 
L 263.333246 212.092347 
L 264.492737 211.703255 
L 265.614824 207.186986 
L 266.774315 208.167286 
L 267.896403 199.877336 
L 269.055893 198.758314 
L 270.215384 196.517715 
L 271.262665 190.815699 
L 272.422156 187.747399 
L 273.544244 188.94444 
L 275.825822 184.511374 
L 276.985312 187.267203 
L 278.144803 186.249526 
L 279.26689 190.367538 
L 280.426381 186.619436 
L 281.548468 184.741223 
L 282.707959 184.876617 
L 283.86745 184.860078 
L 284.914731 183.808895 
L 286.074222 183.51607 
L 287.196309 183.099015 
L 288.3558 184.903633 
L 289.477888 187.294464 
L 290.637378 185.398092 
L 291.796869 188.701215 
L 292.918956 184.61574 
L 294.078447 183.271373 
L 295.200534 187.031272 
L 296.360025 190.185504 
L 297.519515 188.589267 
L 298.566797 190.241281 
L 299.726288 186.515483 
L 300.848375 184.527386 
L 302.007866 187.290914 
L 303.129953 186.243973 
L 304.289444 182.873316 
L 305.448934 186.911753 
L 306.571022 183.31428 
L 307.730513 181.977731 
L 308.8526 179.98255 
L 310.012091 181.0307 
L 311.171581 180.359686 
L 312.256266 179.521359 
L 313.415756 182.805929 
L 314.537844 180.280226 
L 316.819422 179.893121 
L 317.978913 178.921142 
L 319.138403 178.964863 
L 321.419981 176.443884 
L 322.542069 175.769943 
L 323.701559 176.350046 
L 324.86105 175.427102 
L 325.908332 175.600458 
L 327.067822 176.172468 
L 328.18991 174.252493 
L 329.3494 173.720752 
L 330.471488 172.005234 
L 331.630979 172.216175 
L 332.790469 171.292733 
L 333.912557 170.938893 
L 335.072047 171.48971 
L 336.194135 172.873643 
L 337.353625 170.447115 
L 338.513116 170.950164 
L 339.560398 170.48685 
L 340.719888 169.013273 
L 341.841976 169.963236 
L 343.001466 167.474584 
L 344.123554 167.399075 
L 345.283044 168.360871 
L 346.442535 168.588748 
L 347.564623 168.000692 
L 348.724113 168.099245 
L 351.005691 166.548021 
L 352.165182 168.669576 
L 353.212463 166.153182 
L 354.371954 166.871523 
L 355.494042 166.440776 
L 356.653532 168.150173 
L 357.77562 172.520656 
L 358.93511 169.680118 
L 360.094601 169.704815 
L 361.216688 171.089204 
L 362.376179 171.499332 
L 363.498267 172.693831 
L 364.657757 170.969347 
L 365.817248 173.115951 
L 366.901932 171.869887 
L 368.061423 171.503945 
L 369.18351 171.924687 
L 370.343001 176.803267 
L 371.465089 167.883193 
L 372.624579 167.973122 
L 373.78407 166.458502 
L 374.906157 167.964496 
L 376.065648 173.348485 
L 377.187735 171.677467 
L 378.347226 184.897787 
L 379.506716 192.382986 
L 380.553998 179.807053 
L 381.713489 176.600394 
L 382.835576 177.884093 
L 383.995067 179.626299 
L 385.117154 173.421691 
L 387.436135 171.58744 
L 388.558223 178.309845 
L 389.717714 177.050589 
L 390.839801 176.464401 
L 391.999292 180.293825 
L 393.158782 174.255868 
L 394.206064 172.945299 
L 395.365555 173.614383 
L 396.487642 175.516266 
L 397.647133 179.685473 
L 398.76922 175.467812 
L 399.928711 180.852724 
L 401.088201 178.152098 
L 402.210289 180.573126 
L 403.369779 182.601586 
L 404.491867 178.468628 
L 405.651358 179.090794 
L 406.810848 178.153611 
L 407.85813 178.067854 
L 409.01762 178.842556 
L 410.139708 181.375946 
L 411.299199 180.25601 
L 412.421286 185.48219 
L 413.580777 183.88883 
L 414.740267 190.358684 
L 415.862355 184.454509 
L 417.021845 187.295471 
L 418.143933 187.266183 
L 419.303423 186.742461 
L 420.462914 186.088749 
L 421.547599 184.688816 
L 422.707089 185.937312 
L 423.829177 188.766128 
L 424.988667 184.612891 
L 426.110755 187.112623 
L 428.429736 185.607966 
L 429.551824 184.489588 
L 431.833402 180.787636 
L 432.992892 178.765833 
L 434.152383 179.430086 
L 435.199664 178.530567 
L 436.359155 178.320639 
L 437.481243 176.720273 
L 438.640733 177.107316 
L 439.762821 174.957812 
L 440.922311 178.211274 
L 442.081802 177.148117 
L 443.203889 175.948641 
L 445.485468 175.256366 
L 446.644958 178.613865 
L 447.804449 176.158622 
L 448.85173 175.245713 
L 450.011221 176.093136 
L 451.133308 176.379521 
L 452.292799 176.371371 
L 453.414887 179.326282 
L 454.574377 176.0073 
L 455.733868 178.962612 
L 456.855955 175.734769 
L 458.015446 179.431257 
L 459.137533 178.376537 
L 460.297024 182.098961 
L 461.456514 180.380447 
L 462.503796 181.0971 
L 463.663287 180.819313 
L 464.785374 180.861094 
L 465.944865 181.388369 
L 467.066952 181.769406 
L 468.226443 184.48555 
L 469.385934 184.239174 
L 470.508021 182.939178 
L 471.667512 183.702135 
L 472.789599 185.707849 
L 473.94909 186.781035 
L 475.10858 187.683014 
L 476.193265 186.436975 
L 477.352756 185.315212 
L 478.474843 184.696354 
L 479.634334 186.979618 
L 480.756421 186.531714 
L 481.915912 184.799882 
L 483.075402 184.604361 
L 484.19749 183.920332 
L 485.35698 176.404134 
L 486.479068 176.638535 
L 487.638559 177.423146 
L 488.798049 176.693497 
L 489.845331 179.513546 
L 491.004821 179.856453 
L 492.126909 182.358109 
L 493.2864 180.869966 
L 494.408487 180.198819 
L 495.567978 181.262477 
L 496.727468 178.937925 
L 497.849556 179.030588 
L 499.009046 177.955258 
L 500.131134 178.732796 
L 501.290624 178.661277 
L 502.450115 179.521888 
L 503.497397 181.566962 
L 504.656887 179.873743 
L 505.778975 181.033829 
L 506.938465 183.241346 
L 508.060553 181.618493 
L 509.220043 182.730893 
L 511.501622 186.782934 
L 512.661112 183.765688 
L 513.7832 188.060007 
L 514.94269 183.140037 
L 517.149463 188.8321 
L 518.308953 186.717028 
L 519.431041 191.934401 
L 520.590531 188.220724 
L 521.712619 189.535624 
L 522.872109 192.460551 
L 525.153687 189.285815 
L 526.313178 190.187902 
L 527.435266 188.892798 
L 528.594756 194.792287 
L 530.838931 210.702095 
L 531.998422 204.072862 
L 533.120509 205.753684 
L 534.28 208.993679 
L 534.28 208.993679 
" style="fill:none;stroke:#2ca02c;stroke-linecap:square;"/>
   </g>
   <g id="line2d_18">
    <path clip-path="url(#pe4f4b78af0)" d="M 52.68 207.264372 
L 53.839491 206.673956 
L 54.961578 204.919012 
L 56.121069 205.167235 
L 57.243156 208.244085 
L 58.402647 206.470469 
L 59.562137 207.345467 
L 60.684225 204.598909 
L 61.843715 205.608808 
L 64.125294 207.181252 
L 65.284784 206.500357 
L 66.332066 207.160187 
L 67.491556 210.324466 
L 68.613644 207.153846 
L 70.895222 208.137811 
L 72.054713 203.169958 
L 73.214203 206.208075 
L 74.336291 202.770275 
L 75.495781 203.631481 
L 76.617869 206.747219 
L 77.777359 204.085653 
L 78.93685 208.575984 
L 79.984132 209.36456 
L 81.143622 209.701596 
L 82.26571 209.167723 
L 83.4252 209.006947 
L 84.547288 209.548626 
L 85.706779 211.17842 
L 86.866269 210.710409 
L 87.988357 213.458803 
L 89.147847 209.078426 
L 91.429425 202.382712 
L 92.588916 203.332661 
L 93.6736 207.175066 
L 94.833091 205.453473 
L 95.955179 202.494313 
L 97.114669 204.94588 
L 98.236757 203.916128 
L 99.396247 203.562993 
L 100.555738 202.83031 
L 101.677825 203.362313 
L 102.837316 202.326692 
L 103.959404 203.334106 
L 105.118894 201.822366 
L 106.278385 205.153901 
L 107.325666 202.921917 
L 108.485157 202.420542 
L 109.607244 202.459785 
L 110.766735 204.35549 
L 111.888823 202.412044 
L 113.048313 204.633339 
L 114.207804 205.039396 
L 115.329891 206.88731 
L 116.489382 204.527101 
L 117.611469 204.547621 
L 118.77096 207.015151 
L 119.93045 203.928969 
L 120.977732 205.286866 
L 122.137223 208.041311 
L 123.25931 206.000595 
L 124.418801 209.187023 
L 125.540888 209.595185 
L 126.700379 209.564807 
L 127.85987 209.19926 
L 128.981957 207.096444 
L 130.141448 205.711508 
L 131.263535 207.945305 
L 132.423026 205.99894 
L 133.582516 209.145806 
L 134.629798 209.305627 
L 135.789289 210.292824 
L 136.911376 208.483495 
L 138.070867 210.768943 
L 139.192954 208.773486 
L 140.352445 209.363303 
L 142.634023 208.014334 
L 143.793514 210.705672 
L 144.915601 207.139165 
L 146.075092 212.767513 
L 147.234582 211.66142 
L 148.319267 211.986982 
L 149.478757 207.893772 
L 150.600845 208.749899 
L 151.760336 207.169166 
L 152.882423 205.05596 
L 154.041914 206.333599 
L 155.201404 206.290887 
L 156.323492 206.773524 
L 157.482982 208.198598 
L 158.60507 208.957436 
L 159.76456 208.21435 
L 160.924051 206.112207 
L 161.971333 205.838642 
L 163.130823 205.731025 
L 164.252911 205.484255 
L 165.412401 204.672252 
L 166.534489 204.190971 
L 167.693979 202.679044 
L 168.85347 203.69315 
L 169.975558 203.847296 
L 171.135048 205.650099 
L 172.257136 205.822396 
L 173.416626 205.270759 
L 174.576117 208.132411 
L 175.623399 209.647713 
L 176.782889 205.460892 
L 177.904977 205.808094 
L 179.064467 207.876909 
L 180.186555 205.38486 
L 181.346045 205.203183 
L 182.505536 207.169895 
L 183.627623 205.662895 
L 184.787114 207.122202 
L 185.909202 205.994432 
L 187.068692 204.458325 
L 188.228183 205.266258 
L 190.434955 206.234163 
L 191.557043 205.618507 
L 192.716533 207.638471 
L 193.838621 208.420865 
L 194.998111 207.43984 
L 196.157602 206.665615 
L 197.279689 206.862979 
L 198.43918 205.842239 
L 199.561267 205.1941 
L 200.720758 204.175023 
L 201.880249 207.996284 
L 202.964933 207.248774 
L 204.124424 207.002657 
L 205.246511 207.480888 
L 206.406002 207.328226 
L 207.528089 207.30284 
L 208.68758 208.723853 
L 209.847071 207.975372 
L 210.969158 207.760477 
L 212.128649 207.117863 
L 213.250736 207.946866 
L 214.410227 207.357161 
L 215.569717 208.537565 
L 216.616999 210.699716 
L 217.77649 206.435684 
L 218.898577 208.758661 
L 220.058068 209.870799 
L 221.180155 209.755786 
L 222.339646 211.545508 
L 223.499136 208.528822 
L 224.621224 210.797886 
L 225.780715 206.250396 
L 226.902802 205.350836 
L 228.062293 206.805449 
L 229.221783 207.522696 
L 230.269065 206.776266 
L 231.428555 210.121604 
L 232.550643 210.494356 
L 233.710134 209.649859 
L 234.832221 213.590754 
L 235.991712 214.57734 
L 237.151202 205.281772 
L 238.27329 203.174918 
L 239.43278 207.761118 
L 240.554868 209.00786 
L 241.714358 213.564753 
L 243.921131 218.718611 
L 245.080621 215.183068 
L 246.202709 215.127746 
L 247.362199 213.116231 
L 248.484287 218.318795 
L 249.643778 217.281316 
L 250.803268 219.950831 
L 251.925356 218.20225 
L 253.084846 226.275699 
L 254.206934 230.123803 
L 255.366424 232.852383 
L 256.525915 237.476261 
L 257.6106 233.445303 
L 258.77009 233.124179 
L 259.892178 227.575575 
L 261.051668 234.084585 
L 262.173756 231.758837 
L 263.333246 225.812684 
L 264.492737 223.182341 
L 265.614824 218.839735 
L 266.774315 218.965148 
L 267.896403 210.174228 
L 269.055893 209.586303 
L 270.215384 207.193161 
L 271.262665 200.096979 
L 272.422156 197.343504 
L 273.544244 199.902049 
L 274.703734 198.663352 
L 275.825822 196.765391 
L 276.985312 196.603958 
L 278.144803 191.870127 
L 279.26689 195.363816 
L 280.426381 196.36782 
L 281.548468 196.034099 
L 282.707959 195.881115 
L 283.86745 192.486545 
L 284.914731 191.86461 
L 286.074222 189.194807 
L 287.196309 186.276046 
L 288.3558 185.88934 
L 289.477888 182.694493 
L 290.637378 183.48115 
L 291.796869 189.611651 
L 292.918956 183.967177 
L 294.078447 184.17564 
L 295.200534 185.669586 
L 296.360025 187.910726 
L 297.519515 184.885988 
L 298.566797 185.846799 
L 299.726288 183.094192 
L 300.848375 182.96249 
L 302.007866 185.203437 
L 303.129953 186.14189 
L 304.289444 185.676163 
L 305.448934 188.529224 
L 306.571022 185.99109 
L 307.730513 185.743952 
L 308.8526 182.744051 
L 310.012091 185.307776 
L 311.171581 184.843225 
L 312.256266 184.684045 
L 313.415756 186.058583 
L 314.537844 184.378107 
L 315.697335 184.186859 
L 316.819422 182.627882 
L 317.978913 179.903377 
L 319.138403 181.766206 
L 320.260491 180.93965 
L 321.419981 181.635642 
L 322.542069 181.232703 
L 323.701559 181.555218 
L 324.86105 180.421565 
L 325.908332 181.696083 
L 327.067822 180.240007 
L 328.18991 180.25907 
L 329.3494 181.556124 
L 330.471488 181.831559 
L 331.630979 182.598715 
L 332.790469 183.132921 
L 333.912557 181.903132 
L 335.072047 182.419961 
L 336.194135 183.803894 
L 337.353625 183.705813 
L 338.513116 182.837591 
L 339.560398 183.265534 
L 340.719888 182.614349 
L 341.841976 183.585811 
L 343.001466 181.145876 
L 344.123554 179.135757 
L 345.283044 179.247751 
L 346.442535 179.585515 
L 347.564623 180.469337 
L 348.724113 181.176444 
L 349.846201 180.731453 
L 351.005691 180.456187 
L 352.165182 182.527953 
L 353.212463 179.568931 
L 354.371954 179.927724 
L 355.494042 180.46775 
L 356.653532 182.485782 
L 357.77562 185.839471 
L 358.93511 180.96869 
L 360.094601 181.238855 
L 361.216688 183.468723 
L 362.376179 183.450338 
L 363.498267 186.003833 
L 364.657757 183.202893 
L 365.817248 186.236645 
L 366.901932 183.78398 
L 368.061423 185.34507 
L 369.18351 188.066459 
L 370.343001 193.386143 
L 371.465089 185.452744 
L 372.624579 185.687246 
L 373.78407 183.37648 
L 374.906157 178.182342 
L 376.065648 179.369008 
L 377.187735 178.953105 
L 378.347226 191.094331 
L 379.506716 196.958976 
L 380.553998 185.473058 
L 381.713489 186.705003 
L 382.835576 187.415076 
L 383.995067 190.384173 
L 385.117154 185.143356 
L 386.276645 186.562542 
L 387.436135 186.728997 
L 388.558223 190.600394 
L 389.717714 187.773091 
L 390.839801 188.568013 
L 391.999292 190.408872 
L 393.158782 187.287022 
L 394.206064 186.47202 
L 395.365555 187.427399 
L 396.487642 189.413557 
L 397.647133 189.987986 
L 398.76922 184.909111 
L 399.928711 185.779785 
L 401.088201 183.242561 
L 402.210289 184.35685 
L 403.369779 187.13596 
L 404.491867 185.719856 
L 405.651358 188.115068 
L 406.810848 187.426557 
L 407.85813 185.212888 
L 409.01762 184.375998 
L 410.139708 184.502316 
L 411.299199 182.541998 
L 412.421286 186.382186 
L 413.580777 179.542056 
L 414.740267 181.821563 
L 415.862355 179.177409 
L 417.021845 179.460533 
L 418.143933 177.989611 
L 419.303423 181.450105 
L 420.462914 182.334039 
L 421.547599 182.590635 
L 422.707089 182.103818 
L 423.829177 182.097299 
L 424.988667 177.81712 
L 426.110755 178.003912 
L 427.270245 180.419484 
L 428.429736 180.640182 
L 429.551824 181.400607 
L 430.711314 179.644035 
L 431.833402 181.113697 
L 432.992892 179.913586 
L 434.152383 180.143305 
L 436.359155 178.320622 
L 437.481243 182.497616 
L 439.762821 181.352505 
L 440.922311 183.942277 
L 442.081802 182.695046 
L 443.203889 180.970913 
L 444.36338 182.763507 
L 445.485468 182.146261 
L 446.644958 185.44549 
L 447.804449 182.820928 
L 448.85173 183.392784 
L 450.011221 182.318566 
L 451.133308 182.813336 
L 452.292799 183.494904 
L 453.414887 185.789846 
L 454.574377 183.118772 
L 455.733868 185.025403 
L 456.855955 181.701304 
L 458.015446 184.060783 
L 459.137533 185.018726 
L 460.297024 186.69955 
L 461.456514 185.831417 
L 462.503796 187.417381 
L 463.663287 186.354565 
L 464.785374 186.996573 
L 465.944865 188.618228 
L 467.066952 188.311037 
L 468.226443 190.210089 
L 469.385934 187.894074 
L 470.508021 185.053582 
L 471.667512 187.701451 
L 472.789599 187.586805 
L 473.94909 184.315003 
L 475.10858 182.629336 
L 476.193265 182.322363 
L 477.352756 183.840566 
L 478.474843 182.964177 
L 479.634334 180.957982 
L 480.756421 181.906906 
L 481.915912 182.708459 
L 483.075402 182.5551 
L 484.19749 183.481016 
L 485.35698 181.205052 
L 486.479068 182.003613 
L 487.638559 183.124638 
L 488.798049 182.911144 
L 489.845331 184.486551 
L 491.004821 184.836518 
L 492.126909 186.18978 
L 493.2864 186.838743 
L 494.408487 186.963144 
L 495.567978 187.496087 
L 496.727468 186.193465 
L 497.849556 188.346331 
L 499.009046 186.958955 
L 501.290624 189.572478 
L 502.450115 191.427099 
L 503.497397 192.689971 
L 504.656887 191.26181 
L 505.778975 191.477203 
L 506.938465 192.643468 
L 508.060553 191.230065 
L 509.220043 192.2035 
L 510.379534 192.939222 
L 511.501622 192.962833 
L 512.661112 188.957795 
L 513.7832 191.459266 
L 514.94269 188.745899 
L 516.102181 190.477012 
L 517.149463 190.752194 
L 518.308953 192.058715 
L 519.431041 194.722138 
L 520.590531 191.495561 
L 521.712619 194.046421 
L 522.872109 194.123679 
L 525.153687 192.217496 
L 526.313178 193.672775 
L 527.435266 193.474724 
L 528.594756 198.874031 
L 529.754247 206.054399 
L 530.838931 204.045072 
L 531.998422 199.218811 
L 533.120509 201.807791 
L 534.28 206.574576 
L 534.28 206.574576 
" style="fill:none;stroke:#d62728;stroke-linecap:square;"/>
   </g>
   <g id="legend_1">
    <g id="patch_3">
     <path d="M 36.7634 57.458441 
L 233.955065 57.458441 
Q 236.287465 57.458441 236.287465 55.126041 
L 236.287465 25.8034 
Q 236.287465 23.471 233.955065 23.471 
L 36.7634 23.471 
Q 34.431 23.471 34.431 25.8034 
L 34.431 55.126041 
Q 34.431 57.458441 36.7634 57.458441 
z
" style="fill:#ffffff;opacity:0.8;stroke:#cccccc;stroke-linejoin:miter;"/>
    </g>
    <g id="line2d_19">
     <path d="M 39.0958 32.505406 
L 62.4198 32.505406 
" style="fill:none;stroke:#1f77b4;stroke-linecap:square;"/>
    </g>
    <g id="line2d_20"/>
    <g id="text_15">
     <!-- Lpb Hop -->
     <defs>
      <path d="M 6.734375 0 
L 6.734375 68.796875 
L 14.359375 68.796875 
L 14.359375 7.625 
L 42.875 7.625 
L 42.875 0 
z
" id="LiberationSansNarrow-76"/>
      <path d="M 42.140625 26.65625 
Q 42.140625 20.65625 41.359375 15.578125 
Q 40.578125 10.5 38.6875 6.828125 
Q 36.8125 3.171875 33.765625 1.09375 
Q 30.71875 -0.984375 26.21875 -0.984375 
Q 21.578125 -0.984375 18.078125 1.171875 
Q 14.59375 3.328125 12.796875 8.203125 
L 12.546875 8.203125 
Q 12.59375 8.109375 12.609375 7.328125 
Q 12.640625 6.546875 12.671875 5.375 
Q 12.703125 4.203125 12.71875 2.75 
Q 12.75 1.3125 12.75 -0.09375 
L 12.75 -20.75 
L 5.515625 -20.75 
L 5.515625 42.046875 
Q 5.515625 43.953125 5.484375 45.703125 
Q 5.46875 47.46875 5.4375 48.90625 
Q 5.421875 50.34375 5.375 51.359375 
Q 5.328125 52.390625 5.28125 52.828125 
L 12.25 52.828125 
Q 12.3125 52.6875 12.359375 51.8125 
L 12.5 49.703125 
Q 12.546875 48.4375 12.59375 47.015625 
Q 12.640625 45.609375 12.640625 44.34375 
L 12.796875 44.34375 
Q 13.765625 46.875 15.0625 48.65625 
Q 16.359375 50.4375 18.015625 51.578125 
Q 19.671875 52.734375 21.671875 53.25 
Q 23.6875 53.765625 26.21875 53.765625 
Q 30.71875 53.765625 33.765625 51.8125 
Q 36.8125 49.859375 38.6875 46.3125 
Q 40.578125 42.78125 41.359375 37.765625 
Q 42.140625 32.765625 42.140625 26.65625 
z
M 34.578125 26.46875 
Q 34.578125 31.34375 34.109375 35.15625 
Q 33.640625 38.96875 32.4375 41.59375 
Q 31.25 44.234375 29.296875 45.59375 
Q 27.34375 46.96875 24.359375 46.96875 
Q 21.96875 46.96875 19.84375 46.140625 
Q 17.71875 45.3125 16.125 42.96875 
Q 14.546875 40.625 13.640625 36.5 
Q 12.75 32.375 12.75 25.78125 
Q 12.75 20.171875 13.5 16.28125 
Q 14.265625 12.40625 15.71875 10.015625 
Q 17.1875 7.625 19.328125 6.5625 
Q 21.484375 5.515625 24.3125 5.515625 
Q 27.34375 5.515625 29.296875 6.921875 
Q 31.25 8.34375 32.4375 11.03125 
Q 33.640625 13.71875 34.109375 17.59375 
Q 34.578125 21.484375 34.578125 26.46875 
z
" id="LiberationSansNarrow-112"/>
      <path d="M 42.140625 26.65625 
Q 42.140625 -0.984375 26.21875 -0.984375 
Q 21.296875 -0.984375 18.046875 1.1875 
Q 14.796875 3.375 12.75 8.203125 
L 12.640625 8.203125 
Q 12.640625 6.9375 12.59375 5.5625 
Q 12.546875 4.203125 12.5 3.03125 
L 12.359375 1.03125 
Q 12.3125 0.203125 12.25 0 
L 5.28125 0 
Q 5.328125 0.4375 5.375 1.484375 
Q 5.421875 2.546875 5.4375 4 
Q 5.46875 5.46875 5.484375 7.21875 
Q 5.515625 8.984375 5.515625 10.890625 
L 5.515625 72.46875 
L 12.75 72.46875 
L 12.75 51.8125 
Q 12.75 50.34375 12.71875 49 
Q 12.703125 47.65625 12.640625 46.625 
Q 12.59375 45.40625 12.546875 44.34375 
L 12.75 44.34375 
Q 14.75 49.421875 18.046875 51.609375 
Q 21.34375 53.8125 26.21875 53.8125 
Q 34.421875 53.8125 38.28125 47.0625 
Q 42.140625 40.328125 42.140625 26.65625 
z
M 34.578125 26.375 
Q 34.578125 31.84375 34.03125 35.75 
Q 33.5 39.65625 32.25 42.15625 
Q 31 44.671875 29.078125 45.84375 
Q 27.15625 47.015625 24.359375 47.015625 
Q 21.53125 47.015625 19.359375 45.890625 
Q 17.1875 44.78125 15.71875 42.28125 
Q 14.265625 39.796875 13.5 35.734375 
Q 12.75 31.6875 12.75 25.828125 
Q 12.75 20.171875 13.5 16.3125 
Q 14.265625 12.453125 15.71875 10.03125 
Q 17.1875 7.625 19.328125 6.5625 
Q 21.484375 5.515625 24.3125 5.515625 
Q 26.953125 5.515625 28.875 6.640625 
Q 30.8125 7.765625 32.078125 10.25 
Q 33.34375 12.75 33.953125 16.71875 
Q 34.578125 20.703125 34.578125 26.375 
z
" id="LiberationSansNarrow-98"/>
      <path id="LiberationSansNarrow-32"/>
      <path d="M 44.875 0 
L 44.875 31.890625 
L 14.359375 31.890625 
L 14.359375 0 
L 6.734375 0 
L 6.734375 68.796875 
L 14.359375 68.796875 
L 14.359375 39.703125 
L 44.875 39.703125 
L 44.875 68.796875 
L 52.484375 68.796875 
L 52.484375 0 
z
" id="LiberationSansNarrow-72"/>
      <path d="M 42.140625 26.46875 
Q 42.140625 12.59375 37.125 5.796875 
Q 32.125 -0.984375 22.609375 -0.984375 
Q 18.0625 -0.984375 14.515625 0.671875 
Q 10.984375 2.34375 8.515625 5.765625 
Q 6.0625 9.1875 4.765625 14.328125 
Q 3.46875 19.484375 3.46875 26.46875 
Q 3.46875 53.8125 22.859375 53.8125 
Q 27.875 53.8125 31.5625 52.09375 
Q 35.25 50.390625 37.59375 46.96875 
Q 39.9375 43.5625 41.03125 38.421875 
Q 42.140625 33.296875 42.140625 26.46875 
z
M 34.578125 26.46875 
Q 34.578125 32.625 33.8125 36.625 
Q 33.0625 40.625 31.546875 43.015625 
Q 30.03125 45.40625 27.859375 46.359375 
Q 25.6875 47.3125 23 47.3125 
Q 20.21875 47.3125 17.984375 46.3125 
Q 15.765625 45.3125 14.203125 42.890625 
Q 12.640625 40.484375 11.828125 36.46875 
Q 11.03125 32.46875 11.03125 26.46875 
Q 11.03125 20.3125 11.90625 16.28125 
Q 12.796875 12.25 14.328125 9.859375 
Q 15.875 7.46875 17.96875 6.484375 
Q 20.0625 5.515625 22.5625 5.515625 
Q 25.34375 5.515625 27.5625 6.46875 
Q 29.78125 7.421875 31.34375 9.8125 
Q 32.90625 12.203125 33.734375 16.25 
Q 34.578125 20.3125 34.578125 26.46875 
z
" id="LiberationSansNarrow-111"/>
     </defs>
     <g transform="translate(71.7494 36.587106)scale(0.11662 -0.11662)">
      <use xlink:href="#LiberationSansNarrow-76"/>
      <use x="45.605469" xlink:href="#LiberationSansNarrow-112"/>
      <use x="91.210938" xlink:href="#LiberationSansNarrow-98"/>
      <use x="136.816406" xlink:href="#LiberationSansNarrow-32"/>
      <use x="159.619141" xlink:href="#LiberationSansNarrow-72"/>
      <use x="218.798828" xlink:href="#LiberationSansNarrow-111"/>
      <use x="264.404297" xlink:href="#LiberationSansNarrow-112"/>
     </g>
    </g>
    <g id="line2d_21">
     <path d="M 39.0958 46.292076 
L 62.4198 46.292076 
" style="fill:none;stroke:#ff7f0e;stroke-linecap:square;"/>
    </g>
    <g id="line2d_22"/>
    <g id="text_16">
     <!-- Lpe -->
     <defs>
      <path d="M 10.6875 24.5625 
Q 10.6875 20.40625 11.5625 16.90625 
Q 12.453125 13.421875 13.90625 10.90625 
Q 15.375 8.40625 17.640625 7 
Q 19.921875 5.609375 23.140625 5.609375 
Q 27.828125 5.609375 30.65625 7.90625 
Q 33.5 10.203125 34.46875 13.71875 
L 40.828125 11.53125 
Q 40.140625 9.328125 38.921875 7.109375 
Q 37.703125 4.890625 35.640625 3.09375 
Q 33.59375 1.3125 30.53125 0.15625 
Q 27.484375 -0.984375 23.140625 -0.984375 
Q 13.53125 -0.984375 8.5 6 
Q 3.46875 12.984375 3.46875 26.765625 
Q 3.46875 34.1875 5 39.328125 
Q 6.546875 44.484375 9.171875 47.703125 
Q 11.8125 50.921875 15.328125 52.359375 
Q 18.84375 53.8125 22.859375 53.8125 
Q 28.328125 53.8125 31.984375 51.65625 
Q 39.0625 47.515625 41.015625 36.8125 
Q 41.9375 31.6875 41.9375 25.734375 
L 41.9375 24.5625 
z
M 34.71875 31.296875 
Q 34.71875 40.140625 31.421875 43.71875 
Q 28.125 47.3125 22.75 47.3125 
Q 18.953125 47.3125 15.328125 44.09375 
Q 10.9375 40.328125 10.6875 31.296875 
z
" id="LiberationSansNarrow-101"/>
     </defs>
     <g transform="translate(71.7494 50.373776)scale(0.11662 -0.11662)">
      <use xlink:href="#LiberationSansNarrow-76"/>
      <use x="45.605469" xlink:href="#LiberationSansNarrow-112"/>
      <use x="91.210938" xlink:href="#LiberationSansNarrow-101"/>
     </g>
    </g>
    <g id="line2d_23">
     <path d="M 119.567244 32.505406 
L 142.891244 32.505406 
" style="fill:none;stroke:#2ca02c;stroke-linecap:square;"/>
    </g>
    <g id="line2d_24"/>
    <g id="text_17">
     <!-- Lpb -->
     <g transform="translate(152.220844 36.587106)scale(0.11662 -0.11662)">
      <use xlink:href="#LiberationSansNarrow-76"/>
      <use x="45.605469" xlink:href="#LiberationSansNarrow-112"/>
      <use x="91.210938" xlink:href="#LiberationSansNarrow-98"/>
     </g>
    </g>
    <g id="line2d_25">
     <path d="M 179.83974 32.505406 
L 203.16374 32.505406 
" style="fill:none;stroke:#d62728;stroke-linecap:square;"/>
    </g>
    <g id="line2d_26"/>
    <g id="text_18">
     <!-- Hdiv -->
     <defs>
      <path d="M 32.859375 8.5 
Q 30.859375 3.421875 27.5625 1.21875 
Q 24.265625 -0.984375 19.390625 -0.984375 
Q 11.1875 -0.984375 7.328125 5.75 
Q 3.46875 12.5 3.46875 26.171875 
Q 3.46875 53.8125 19.390625 53.8125 
Q 24.3125 53.8125 27.578125 51.609375 
Q 30.859375 49.421875 32.859375 44.625 
L 32.953125 44.625 
Q 32.953125 45.125 32.90625 46.1875 
L 32.90625 48.34375 
Q 32.859375 49.515625 32.859375 50.53125 
L 32.859375 52 
L 32.859375 72.46875 
L 40.09375 72.46875 
L 40.09375 10.890625 
Q 40.09375 8.984375 40.109375 7.21875 
Q 40.140625 5.46875 40.15625 4 
Q 40.1875 2.546875 40.234375 1.484375 
Q 40.28125 0.4375 40.328125 0 
L 33.453125 0 
Q 33.34375 0.484375 33.296875 1.390625 
Q 33.25 2.296875 33.171875 3.46875 
Q 33.109375 4.640625 33.078125 5.9375 
Q 33.0625 7.234375 33.0625 8.5 
z
M 11.03125 26.46875 
Q 11.03125 21 11.5625 17.09375 
Q 12.109375 13.1875 13.34375 10.671875 
Q 14.59375 8.15625 16.515625 6.984375 
Q 18.453125 5.8125 21.234375 5.8125 
Q 24.078125 5.8125 26.25 6.9375 
Q 28.421875 8.0625 29.875 10.578125 
Q 31.34375 13.09375 32.09375 17.140625 
Q 32.859375 21.1875 32.859375 27.046875 
Q 32.859375 32.671875 32.09375 36.546875 
Q 31.34375 40.4375 29.859375 42.828125 
Q 28.375 45.21875 26.25 46.265625 
Q 24.125 47.3125 21.296875 47.3125 
Q 18.65625 47.3125 16.71875 46.1875 
Q 14.796875 45.0625 13.515625 42.578125 
Q 12.25 40.09375 11.640625 36.109375 
Q 11.03125 32.125 11.03125 26.46875 
z
" id="LiberationSansNarrow-100"/>
      <path d="M 5.46875 64.0625 
L 5.46875 72.46875 
L 12.703125 72.46875 
L 12.703125 64.0625 
z
M 5.46875 0 
L 5.46875 52.828125 
L 12.703125 52.828125 
L 12.703125 0 
z
" id="LiberationSansNarrow-105"/>
      <path d="M 24.5625 0 
L 16.015625 0 
L 0.296875 52.828125 
L 7.953125 52.828125 
L 17.484375 18.453125 
Q 17.484375 18.453125 18.171875 15.828125 
L 18.953125 12.640625 
L 19.671875 9.46875 
L 20.265625 6.890625 
Q 20.265625 6.890625 20.90625 9.46875 
L 21.6875 12.59375 
Q 22.078125 14.203125 22.484375 15.734375 
Q 22.90625 17.28125 23.25 18.359375 
L 33.109375 52.828125 
L 40.71875 52.828125 
z
" id="LiberationSansNarrow-118"/>
     </defs>
     <g transform="translate(212.49334 36.587106)scale(0.11662 -0.11662)">
      <use xlink:href="#LiberationSansNarrow-72"/>
      <use x="59.179688" xlink:href="#LiberationSansNarrow-100"/>
      <use x="104.785156" xlink:href="#LiberationSansNarrow-105"/>
      <use x="122.998047" xlink:href="#LiberationSansNarrow-118"/>
     </g>
    </g>
   </g>
  </g>
 </g>
 <defs>
  <clipPath id="pe4f4b78af0">
   <rect height="234.56" width="529.76" x="28.6" y="17.64"/>
  </clipPath>
 </defs>
</svg>
