<?xml version="1.0" encoding="utf-8" standalone="no"?>
<!DOCTYPE svg PUBLIC "-//W3C//DTD SVG 1.1//EN"
  "http://www.w3.org/Graphics/SVG/1.1/DTD/svg11.dtd">
<!-- Created with matplotlib (https://matplotlib.org/) -->
<svg height="288pt" version="1.1" viewBox="0 0 576 288" width="576pt" xmlns="http://www.w3.org/2000/svg" xmlns:xlink="http://www.w3.org/1999/xlink">
 <defs>
  <style type="text/css">
*{stroke-linecap:butt;stroke-linejoin:round;}
  </style>
 </defs>
 <g id="figure_1">
  <g id="patch_1">
   <path d="M 0 288 
L 576 288 
L 576 0 
L 0 0 
z
" style="fill:#ffffff;"/>
  </g>
  <g id="axes_1">
   <g id="patch_2">
    <path d="M 38.14 252.2 
L 558.36 252.2 
L 558.36 20.77788 
L 38.14 20.77788 
z
" style="fill:#ffffff;"/>
   </g>
   <g id="matplotlib.axis_1">
    <g id="xtick_1">
     <g id="line2d_1">
      <path clip-path="url(#p8edffc0314)" d="M 47.880578 252.2 
L 47.880578 20.77788 
" style="fill:none;stroke:#b0b0b0;stroke-dasharray:1.48,0.64;stroke-dashoffset:0;stroke-width:0.4;"/>
     </g>
     <g id="text_1">
      <!-- 2000 -->
      <defs>
       <path d="M 4.109375 0 
L 4.109375 6.203125 
Q 6.15625 11.921875 9.109375 16.28125 
Q 12.0625 20.65625 15.3125 24.1875 
Q 18.5625 27.734375 21.734375 30.765625 
Q 24.90625 33.796875 27.46875 36.8125 
Q 30.03125 39.84375 31.609375 43.15625 
Q 33.203125 46.484375 33.203125 50.6875 
Q 33.203125 53.609375 32.46875 55.828125 
Q 31.734375 58.0625 30.390625 59.5625 
Q 29.046875 61.078125 27.140625 61.828125 
Q 25.25 62.59375 22.90625 62.59375 
Q 20.75 62.59375 18.84375 61.859375 
Q 16.9375 61.140625 15.453125 59.671875 
Q 13.96875 58.203125 13.03125 56.03125 
Q 12.109375 53.859375 11.8125 50.984375 
L 4.4375 51.8125 
Q 4.78125 55.515625 6.125 58.78125 
Q 7.46875 62.0625 9.78125 64.53125 
Q 12.109375 67 15.359375 68.40625 
Q 18.609375 69.828125 22.90625 69.828125 
Q 27.09375 69.828125 30.390625 68.609375 
Q 33.6875 67.390625 35.9375 64.984375 
Q 38.1875 62.59375 39.40625 59.078125 
Q 40.625 55.5625 40.625 50.984375 
Q 40.625 47.515625 39.59375 44.390625 
Q 38.578125 41.265625 36.859375 38.421875 
Q 35.15625 35.59375 32.90625 32.953125 
Q 30.671875 30.328125 28.21875 27.828125 
L 23.296875 22.859375 
Q 20.796875 20.359375 18.625 17.859375 
Q 16.453125 15.375 14.734375 12.8125 
Q 13.03125 10.25 12.0625 7.46875 
L 41.5 7.46875 
L 41.5 0 
z
" id="LiberationSansNarrow-50"/>
       <path d="M 42.390625 34.421875 
Q 42.390625 24.515625 40.84375 17.75 
Q 39.3125 10.984375 36.640625 6.8125 
Q 33.984375 2.640625 30.390625 0.828125 
Q 26.8125 -0.984375 22.703125 -0.984375 
Q 18.609375 -0.984375 15.03125 0.828125 
Q 11.46875 2.640625 8.828125 6.78125 
Q 6.203125 10.9375 4.703125 17.703125 
Q 3.21875 24.46875 3.21875 34.421875 
Q 3.21875 44.828125 4.703125 51.640625 
Q 6.203125 58.453125 8.828125 62.5 
Q 11.46875 66.546875 15.078125 68.1875 
Q 18.703125 69.828125 22.953125 69.828125 
Q 27 69.828125 30.53125 68.1875 
Q 34.078125 66.546875 36.71875 62.5 
Q 39.359375 58.453125 40.875 51.640625 
Q 42.390625 44.828125 42.390625 34.421875 
z
M 35.0625 34.421875 
Q 35.0625 42.625 34.28125 48.0625 
Q 33.5 53.515625 31.9375 56.765625 
Q 30.375 60.015625 28.09375 61.359375 
Q 25.828125 62.703125 22.953125 62.703125 
Q 19.921875 62.703125 17.578125 61.328125 
Q 15.234375 59.96875 13.671875 56.71875 
Q 12.109375 53.46875 11.296875 48.015625 
Q 10.5 42.578125 10.5 34.421875 
Q 10.5 26.515625 11.296875 21.09375 
Q 12.109375 15.671875 13.6875 12.375 
Q 15.28125 9.078125 17.578125 7.640625 
Q 19.875 6.203125 22.796875 6.203125 
Q 25.640625 6.203125 27.90625 7.640625 
Q 30.171875 9.078125 31.75 12.375 
Q 33.34375 15.671875 34.203125 21.09375 
Q 35.0625 26.515625 35.0625 34.421875 
z
" id="LiberationSansNarrow-48"/>
      </defs>
      <g transform="translate(35.109953 269.345625)scale(0.14 -0.14)">
       <use xlink:href="#LiberationSansNarrow-50"/>
       <use x="45.605469" xlink:href="#LiberationSansNarrow-48"/>
       <use x="91.210938" xlink:href="#LiberationSansNarrow-48"/>
       <use x="136.816406" xlink:href="#LiberationSansNarrow-48"/>
      </g>
     </g>
    </g>
    <g id="xtick_2">
     <g id="line2d_2">
      <path clip-path="url(#p8edffc0314)" d="M 143.262514 252.2 
L 143.262514 20.77788 
" style="fill:none;stroke:#b0b0b0;stroke-dasharray:1.48,0.64;stroke-dashoffset:0;stroke-width:0.4;"/>
     </g>
     <g id="text_2">
      <!-- 2004 -->
      <defs>
       <path d="M 35.25 15.578125 
L 35.25 0 
L 28.46875 0 
L 28.46875 15.578125 
L 1.90625 15.578125 
L 1.90625 22.40625 
L 27.6875 68.796875 
L 35.25 68.796875 
L 35.25 22.515625 
L 43.21875 22.515625 
L 43.21875 15.578125 
z
M 28.46875 58.890625 
Q 28.375 58.640625 28.03125 57.90625 
L 27.34375 56.34375 
L 26.5625 54.59375 
Q 26.125 53.65625 25.78125 53.078125 
L 11.328125 27.09375 
Q 11.140625 26.703125 10.75 26.078125 
L 9.96875 24.8125 
L 9.1875 23.484375 
Q 8.796875 22.859375 8.546875 22.515625 
L 28.46875 22.515625 
z
" id="LiberationSansNarrow-52"/>
      </defs>
      <g transform="translate(130.491889 269.345625)scale(0.14 -0.14)">
       <use xlink:href="#LiberationSansNarrow-50"/>
       <use x="45.605469" xlink:href="#LiberationSansNarrow-48"/>
       <use x="91.210938" xlink:href="#LiberationSansNarrow-48"/>
       <use x="136.816406" xlink:href="#LiberationSansNarrow-52"/>
      </g>
     </g>
    </g>
    <g id="xtick_3">
     <g id="line2d_3">
      <path clip-path="url(#p8edffc0314)" d="M 238.644451 252.2 
L 238.644451 20.77788 
" style="fill:none;stroke:#b0b0b0;stroke-dasharray:1.48,0.64;stroke-dashoffset:0;stroke-width:0.4;"/>
     </g>
     <g id="text_3">
      <!-- 2008 -->
      <defs>
       <path d="M 42.046875 19.1875 
Q 42.046875 14.796875 40.890625 11.109375 
Q 39.75 7.421875 37.40625 4.734375 
Q 35.0625 2.046875 31.421875 0.53125 
Q 27.78125 -0.984375 22.796875 -0.984375 
Q 17.828125 -0.984375 14.203125 0.53125 
Q 10.59375 2.046875 8.21875 4.703125 
Q 5.859375 7.375 4.703125 11.0625 
Q 3.5625 14.75 3.5625 19.09375 
Q 3.5625 22.859375 4.515625 25.78125 
Q 5.46875 28.71875 7.03125 30.828125 
Q 8.59375 32.953125 10.609375 34.25 
Q 12.640625 35.546875 14.796875 35.984375 
L 14.796875 36.1875 
Q 12.453125 36.859375 10.59375 38.375 
Q 8.734375 39.890625 7.46875 42.015625 
Q 6.203125 44.140625 5.546875 46.71875 
Q 4.890625 49.3125 4.890625 52.203125 
Q 4.890625 55.8125 6.03125 59 
Q 7.171875 62.203125 9.421875 64.625 
Q 11.671875 67.046875 14.984375 68.4375 
Q 18.3125 69.828125 22.65625 69.828125 
Q 27.25 69.828125 30.640625 68.40625 
Q 34.03125 67 36.25 64.578125 
Q 38.484375 62.15625 39.546875 58.9375 
Q 40.625 55.71875 40.625 52.09375 
Q 40.625 49.265625 39.96875 46.671875 
Q 39.3125 44.09375 38.0625 41.96875 
Q 36.8125 39.84375 34.9375 38.34375 
Q 33.0625 36.859375 30.609375 36.28125 
L 30.609375 36.078125 
Q 33.0625 35.59375 35.15625 34.296875 
Q 37.25 33.015625 38.765625 30.890625 
Q 40.28125 28.765625 41.15625 25.828125 
Q 42.046875 22.90625 42.046875 19.1875 
z
M 33.15625 51.609375 
Q 33.15625 54.203125 32.609375 56.34375 
Q 32.078125 58.5 30.828125 60.03125 
Q 29.59375 61.578125 27.59375 62.421875 
Q 25.59375 63.28125 22.65625 63.28125 
Q 19.828125 63.28125 17.875 62.421875 
Q 15.921875 61.578125 14.640625 60.03125 
Q 13.375 58.5 12.8125 56.34375 
Q 12.25 54.203125 12.25 51.609375 
Q 12.25 49.5625 12.6875 47.40625 
Q 13.140625 45.265625 14.3125 43.5 
Q 15.484375 41.75 17.5 40.625 
Q 19.53125 39.5 22.75 39.5 
Q 26.171875 39.5 28.21875 40.625 
Q 30.28125 41.75 31.375 43.5 
Q 32.46875 45.265625 32.8125 47.40625 
Q 33.15625 49.5625 33.15625 51.609375 
z
M 34.578125 20.015625 
Q 34.578125 22.515625 34.015625 24.828125 
Q 33.453125 27.15625 32.078125 28.9375 
Q 30.71875 30.71875 28.421875 31.8125 
Q 26.125 32.90625 22.65625 32.90625 
Q 19.484375 32.90625 17.265625 31.8125 
Q 15.046875 30.71875 13.671875 28.90625 
Q 12.3125 27.09375 11.671875 24.71875 
Q 11.03125 22.359375 11.03125 19.828125 
Q 11.03125 16.65625 11.671875 14.03125 
Q 12.3125 11.421875 13.703125 9.546875 
Q 15.09375 7.671875 17.375 6.640625 
Q 19.671875 5.609375 22.90625 5.609375 
Q 26.171875 5.609375 28.421875 6.640625 
Q 30.671875 7.671875 32.03125 9.546875 
Q 33.40625 11.421875 33.984375 14.078125 
Q 34.578125 16.75 34.578125 20.015625 
z
" id="LiberationSansNarrow-56"/>
      </defs>
      <g transform="translate(225.873826 269.345625)scale(0.14 -0.14)">
       <use xlink:href="#LiberationSansNarrow-50"/>
       <use x="45.605469" xlink:href="#LiberationSansNarrow-48"/>
       <use x="91.210938" xlink:href="#LiberationSansNarrow-48"/>
       <use x="136.816406" xlink:href="#LiberationSansNarrow-56"/>
      </g>
     </g>
    </g>
    <g id="xtick_4">
     <g id="line2d_4">
      <path clip-path="url(#p8edffc0314)" d="M 334.026387 252.2 
L 334.026387 20.77788 
" style="fill:none;stroke:#b0b0b0;stroke-dasharray:1.48,0.64;stroke-dashoffset:0;stroke-width:0.4;"/>
     </g>
     <g id="text_4">
      <!-- 2012 -->
      <defs>
       <path d="M 6.25 0 
L 6.25 7.46875 
L 20.609375 7.46875 
L 20.609375 60.40625 
L 7.90625 49.3125 
L 7.90625 57.625 
L 21.234375 68.796875 
L 27.875 68.796875 
L 27.875 7.46875 
L 41.609375 7.46875 
L 41.609375 0 
z
" id="LiberationSansNarrow-49"/>
      </defs>
      <g transform="translate(321.255762 269.345625)scale(0.14 -0.14)">
       <use xlink:href="#LiberationSansNarrow-50"/>
       <use x="45.605469" xlink:href="#LiberationSansNarrow-48"/>
       <use x="91.210938" xlink:href="#LiberationSansNarrow-49"/>
       <use x="136.816406" xlink:href="#LiberationSansNarrow-50"/>
      </g>
     </g>
    </g>
    <g id="xtick_5">
     <g id="line2d_5">
      <path clip-path="url(#p8edffc0314)" d="M 429.408323 252.2 
L 429.408323 20.77788 
" style="fill:none;stroke:#b0b0b0;stroke-dasharray:1.48,0.64;stroke-dashoffset:0;stroke-width:0.4;"/>
     </g>
     <g id="text_5">
      <!-- 2016 -->
      <defs>
       <path d="M 42 22.515625 
Q 42 17.328125 40.828125 13 
Q 39.65625 8.6875 37.359375 5.578125 
Q 35.0625 2.484375 31.640625 0.75 
Q 28.21875 -0.984375 23.78125 -0.984375 
Q 18.84375 -0.984375 15.15625 1.3125 
Q 11.46875 3.609375 9.03125 7.921875 
Q 6.59375 12.25 5.375 18.53125 
Q 4.15625 24.8125 4.15625 32.8125 
Q 4.15625 42 5.546875 48.921875 
Q 6.9375 55.859375 9.515625 60.5 
Q 12.109375 65.140625 15.859375 67.484375 
Q 19.625 69.828125 24.359375 69.828125 
Q 27.25 69.828125 29.765625 69.09375 
Q 32.28125 68.359375 34.328125 66.71875 
Q 36.375 65.09375 37.9375 62.40625 
Q 39.5 59.71875 40.4375 55.8125 
L 33.546875 54.296875 
Q 32.421875 58.734375 29.953125 60.71875 
Q 27.484375 62.703125 24.265625 62.703125 
Q 21.296875 62.703125 18.890625 60.984375 
Q 16.5 59.28125 14.8125 55.875 
Q 13.140625 52.484375 12.234375 47.359375 
Q 11.328125 42.234375 11.328125 35.40625 
Q 13.28125 39.84375 16.84375 42.15625 
Q 20.40625 44.484375 25.046875 44.484375 
Q 28.90625 44.484375 32 42.96875 
Q 35.109375 41.453125 37.328125 38.59375 
Q 39.546875 35.75 40.765625 31.671875 
Q 42 27.59375 42 22.515625 
z
M 34.671875 22.125 
Q 34.671875 25.6875 33.953125 28.5625 
Q 33.25 31.453125 31.8125 33.46875 
Q 30.375 35.5 28.25 36.59375 
Q 26.125 37.703125 23.296875 37.703125 
Q 21.34375 37.703125 19.328125 36.984375 
Q 17.328125 36.28125 15.71875 34.6875 
Q 14.109375 33.109375 13.078125 30.515625 
Q 12.0625 27.9375 12.0625 24.21875 
Q 12.0625 20.40625 12.859375 17.109375 
Q 13.671875 13.8125 15.15625 11.375 
Q 16.65625 8.9375 18.78125 7.515625 
Q 20.90625 6.109375 23.53125 6.109375 
Q 26.125 6.109375 28.203125 7.203125 
Q 30.28125 8.296875 31.71875 10.375 
Q 33.15625 12.453125 33.90625 15.421875 
Q 34.671875 18.40625 34.671875 22.125 
z
" id="LiberationSansNarrow-54"/>
      </defs>
      <g transform="translate(416.637698 269.345625)scale(0.14 -0.14)">
       <use xlink:href="#LiberationSansNarrow-50"/>
       <use x="45.605469" xlink:href="#LiberationSansNarrow-48"/>
       <use x="91.210938" xlink:href="#LiberationSansNarrow-49"/>
       <use x="136.816406" xlink:href="#LiberationSansNarrow-54"/>
      </g>
     </g>
    </g>
    <g id="xtick_6">
     <g id="line2d_6">
      <path clip-path="url(#p8edffc0314)" d="M 524.790259 252.2 
L 524.790259 20.77788 
" style="fill:none;stroke:#b0b0b0;stroke-dasharray:1.48,0.64;stroke-dashoffset:0;stroke-width:0.4;"/>
     </g>
     <g id="text_6">
      <!-- 2020 -->
      <g transform="translate(512.019634 269.345625)scale(0.14 -0.14)">
       <use xlink:href="#LiberationSansNarrow-50"/>
       <use x="45.605469" xlink:href="#LiberationSansNarrow-48"/>
       <use x="91.210938" xlink:href="#LiberationSansNarrow-50"/>
       <use x="136.816406" xlink:href="#LiberationSansNarrow-48"/>
      </g>
     </g>
    </g>
   </g>
   <g id="matplotlib.axis_2">
    <g id="ytick_1">
     <g id="line2d_7">
      <path clip-path="url(#p8edffc0314)" d="M 38.14 234.808385 
L 558.36 234.808385 
" style="fill:none;stroke:#b0b0b0;stroke-dasharray:1.48,0.64;stroke-dashoffset:0;stroke-width:0.4;"/>
     </g>
     <g id="text_7">
      <!-- 0.5 -->
      <defs>
       <path d="M 7.46875 0 
L 7.46875 10.6875 
L 15.328125 10.6875 
L 15.328125 0 
z
" id="LiberationSansNarrow-46"/>
       <path d="M 42.140625 22.40625 
Q 42.140625 17.234375 40.859375 12.9375 
Q 39.59375 8.640625 37.078125 5.53125 
Q 34.578125 2.4375 30.8125 0.71875 
Q 27.046875 -0.984375 22.125 -0.984375 
Q 17.671875 -0.984375 14.375 0.28125 
Q 11.078125 1.5625 8.8125 3.78125 
Q 6.546875 6 5.203125 8.984375 
Q 3.859375 11.96875 3.265625 15.375 
L 10.546875 16.40625 
Q 10.984375 14.453125 11.78125 12.625 
Q 12.59375 10.796875 13.984375 9.34375 
Q 15.375 7.90625 17.40625 7.046875 
Q 19.4375 6.203125 22.3125 6.203125 
Q 25.09375 6.203125 27.390625 7.25 
Q 29.6875 8.296875 31.296875 10.34375 
Q 32.90625 12.40625 33.78125 15.375 
Q 34.671875 18.359375 34.671875 22.21875 
Q 34.671875 25.390625 33.84375 28.046875 
Q 33.015625 30.71875 31.453125 32.640625 
Q 29.890625 34.578125 27.609375 35.640625 
Q 25.34375 36.71875 22.46875 36.71875 
Q 20.65625 36.71875 19.140625 36.328125 
Q 17.625 35.9375 16.328125 35.25 
Q 15.046875 34.578125 13.96875 33.671875 
Q 12.890625 32.765625 11.96875 31.78125 
L 4.9375 31.78125 
L 6.78125 68.796875 
L 38.875 68.796875 
L 38.875 61.328125 
L 13.375 61.328125 
L 12.3125 39.5 
Q 14.203125 41.3125 17.078125 42.59375 
Q 19.96875 43.890625 23.921875 43.890625 
Q 28.125 43.890625 31.484375 42.328125 
Q 34.859375 40.765625 37.21875 37.90625 
Q 39.59375 35.0625 40.859375 31.109375 
Q 42.140625 27.15625 42.140625 22.40625 
z
" id="LiberationSansNarrow-53"/>
      </defs>
      <g transform="translate(15.177812 239.881198)scale(0.14 -0.14)">
       <use xlink:href="#LiberationSansNarrow-48"/>
       <use x="45.605469" xlink:href="#LiberationSansNarrow-46"/>
       <use x="68.408203" xlink:href="#LiberationSansNarrow-53"/>
      </g>
     </g>
    </g>
    <g id="ytick_2">
     <g id="line2d_8">
      <path clip-path="url(#p8edffc0314)" d="M 38.14 204.194154 
L 558.36 204.194154 
" style="fill:none;stroke:#b0b0b0;stroke-dasharray:1.48,0.64;stroke-dashoffset:0;stroke-width:0.4;"/>
     </g>
     <g id="text_8">
      <!-- 0.6 -->
      <g transform="translate(15.177812 209.266966)scale(0.14 -0.14)">
       <use xlink:href="#LiberationSansNarrow-48"/>
       <use x="45.605469" xlink:href="#LiberationSansNarrow-46"/>
       <use x="68.408203" xlink:href="#LiberationSansNarrow-54"/>
      </g>
     </g>
    </g>
    <g id="ytick_3">
     <g id="line2d_9">
      <path clip-path="url(#p8edffc0314)" d="M 38.14 173.579922 
L 558.36 173.579922 
" style="fill:none;stroke:#b0b0b0;stroke-dasharray:1.48,0.64;stroke-dashoffset:0;stroke-width:0.4;"/>
     </g>
     <g id="text_9">
      <!-- 0.7 -->
      <defs>
       <path d="M 41.5 61.671875 
Q 37.25 53.765625 33.6875 46.453125 
Q 30.125 39.15625 27.5625 31.75 
Q 25 24.359375 23.5625 16.578125 
Q 22.125 8.796875 22.125 0 
L 14.59375 0 
Q 14.59375 8.25 16.203125 16.1875 
Q 17.828125 24.125 20.53125 31.765625 
Q 23.25 39.40625 26.859375 46.78125 
Q 30.46875 54.15625 34.515625 61.328125 
L 4.203125 61.328125 
L 4.203125 68.796875 
L 41.5 68.796875 
z
" id="LiberationSansNarrow-55"/>
      </defs>
      <g transform="translate(15.177812 178.652734)scale(0.14 -0.14)">
       <use xlink:href="#LiberationSansNarrow-48"/>
       <use x="45.605469" xlink:href="#LiberationSansNarrow-46"/>
       <use x="68.408203" xlink:href="#LiberationSansNarrow-55"/>
      </g>
     </g>
    </g>
    <g id="ytick_4">
     <g id="line2d_10">
      <path clip-path="url(#p8edffc0314)" d="M 38.14 142.96569 
L 558.36 142.96569 
" style="fill:none;stroke:#b0b0b0;stroke-dasharray:1.48,0.64;stroke-dashoffset:0;stroke-width:0.4;"/>
     </g>
     <g id="text_10">
      <!-- 0.8 -->
      <g transform="translate(15.177812 148.038503)scale(0.14 -0.14)">
       <use xlink:href="#LiberationSansNarrow-48"/>
       <use x="45.605469" xlink:href="#LiberationSansNarrow-46"/>
       <use x="68.408203" xlink:href="#LiberationSansNarrow-56"/>
      </g>
     </g>
    </g>
    <g id="ytick_5">
     <g id="line2d_11">
      <path clip-path="url(#p8edffc0314)" d="M 38.14 112.351459 
L 558.36 112.351459 
" style="fill:none;stroke:#b0b0b0;stroke-dasharray:1.48,0.64;stroke-dashoffset:0;stroke-width:0.4;"/>
     </g>
     <g id="text_11">
      <!-- 0.9 -->
      <defs>
       <path d="M 41.703125 35.796875 
Q 41.703125 26.609375 40.28125 19.703125 
Q 38.875 12.796875 36.234375 8.203125 
Q 33.59375 3.609375 29.8125 1.3125 
Q 26.03125 -0.984375 21.296875 -0.984375 
Q 18.0625 -0.984375 15.453125 -0.171875 
Q 12.84375 0.640625 10.8125 2.34375 
Q 8.796875 4.046875 7.328125 6.78125 
Q 5.859375 9.515625 4.984375 13.375 
L 11.921875 14.703125 
Q 13.03125 10.25 15.40625 8.171875 
Q 17.78125 6.109375 21.4375 6.109375 
Q 24.359375 6.109375 26.78125 7.78125 
Q 29.203125 9.46875 30.875 12.84375 
Q 32.5625 16.21875 33.546875 21.296875 
Q 34.46875 26.375 34.578125 33.203125 
Q 33.734375 30.90625 32.265625 29.09375 
Q 30.8125 27.296875 28.953125 26.046875 
Q 27.09375 24.8125 24.9375 24.140625 
Q 22.796875 23.484375 20.5625 23.484375 
Q 16.703125 23.484375 13.625 25.171875 
Q 10.546875 26.859375 8.375 29.875 
Q 6.203125 32.90625 5.03125 37.171875 
Q 3.859375 41.453125 3.859375 46.6875 
Q 3.859375 52 5.09375 56.296875 
Q 6.34375 60.59375 8.765625 63.59375 
Q 11.1875 66.609375 14.671875 68.21875 
Q 18.171875 69.828125 22.609375 69.828125 
Q 32.03125 69.828125 36.859375 61.328125 
Q 41.703125 52.828125 41.703125 35.796875 
z
M 33.890625 44.28125 
Q 33.890625 48.09375 33.125 51.453125 
Q 32.375 54.828125 30.9375 57.3125 
Q 29.5 59.8125 27.34375 61.25 
Q 25.203125 62.703125 22.359375 62.703125 
Q 19.78125 62.703125 17.703125 61.578125 
Q 15.625 60.453125 14.1875 58.375 
Q 12.75 56.296875 11.96875 53.3125 
Q 11.1875 50.34375 11.1875 46.6875 
Q 11.1875 43.21875 11.859375 40.234375 
Q 12.546875 37.25 13.953125 35.078125 
Q 15.375 32.90625 17.453125 31.65625 
Q 19.53125 30.421875 22.3125 30.421875 
Q 24.3125 30.421875 26.359375 31.25 
Q 28.421875 32.078125 30.078125 33.78125 
Q 31.734375 35.5 32.8125 38.109375 
Q 33.890625 40.71875 33.890625 44.28125 
z
" id="LiberationSansNarrow-57"/>
      </defs>
      <g transform="translate(15.177812 117.424271)scale(0.14 -0.14)">
       <use xlink:href="#LiberationSansNarrow-48"/>
       <use x="45.605469" xlink:href="#LiberationSansNarrow-46"/>
       <use x="68.408203" xlink:href="#LiberationSansNarrow-57"/>
      </g>
     </g>
    </g>
    <g id="ytick_6">
     <g id="line2d_12">
      <path clip-path="url(#p8edffc0314)" d="M 38.14 81.737227 
L 558.36 81.737227 
" style="fill:none;stroke:#b0b0b0;stroke-dasharray:1.48,0.64;stroke-dashoffset:0;stroke-width:0.4;"/>
     </g>
     <g id="text_12">
      <!-- 1.0 -->
      <g transform="translate(15.177812 86.81004)scale(0.14 -0.14)">
       <use xlink:href="#LiberationSansNarrow-49"/>
       <use x="45.605469" xlink:href="#LiberationSansNarrow-46"/>
       <use x="68.408203" xlink:href="#LiberationSansNarrow-48"/>
      </g>
     </g>
    </g>
    <g id="ytick_7">
     <g id="line2d_13">
      <path clip-path="url(#p8edffc0314)" d="M 38.14 51.122996 
L 558.36 51.122996 
" style="fill:none;stroke:#b0b0b0;stroke-dasharray:1.48,0.64;stroke-dashoffset:0;stroke-width:0.4;"/>
     </g>
     <g id="text_13">
      <!-- 1.1 -->
      <g transform="translate(15.177812 56.195808)scale(0.14 -0.14)">
       <use xlink:href="#LiberationSansNarrow-49"/>
       <use x="45.605469" xlink:href="#LiberationSansNarrow-46"/>
       <use x="68.408203" xlink:href="#LiberationSansNarrow-49"/>
      </g>
     </g>
    </g>
    <g id="ytick_8">
     <g id="line2d_14">
      <path clip-path="url(#p8edffc0314)" d="M 38.14 20.508764 
L 558.36 20.508764 
" style="fill:none;stroke:#b0b0b0;stroke-dasharray:1.48,0.64;stroke-dashoffset:0;stroke-width:0.4;"/>
     </g>
     <g id="text_14">
      <!-- 1.2 -->
      <g transform="translate(15.177812 25.581577)scale(0.14 -0.14)">
       <use xlink:href="#LiberationSansNarrow-49"/>
       <use x="45.605469" xlink:href="#LiberationSansNarrow-46"/>
       <use x="68.408203" xlink:href="#LiberationSansNarrow-50"/>
      </g>
     </g>
    </g>
   </g>
   <g id="line2d_15">
    <path clip-path="url(#p8edffc0314)" d="M 61.786364 241.680813 
L 63.81021 233.995003 
L 65.768772 223.646189 
L 67.792618 226.32298 
L 69.75118 202.92791 
L 71.775026 200.15584 
L 73.798873 194.771603 
L 75.626864 177.842611 
L 77.65071 168.512644 
L 79.609272 177.356144 
L 81.633118 171.081545 
L 83.59168 164.488697 
L 85.615526 170.154244 
L 87.639373 173.742717 
L 89.597934 174.913247 
L 91.621781 168.108151 
L 93.580342 163.767674 
L 95.604189 163.637945 
L 97.628036 157.552519 
L 99.456026 150.716458 
L 101.479873 139.96595 
L 103.438434 131.624994 
L 105.462281 128.846281 
L 107.420842 118.805625 
L 109.444689 117.150959 
L 111.468536 134.949681 
L 113.427097 122.291681 
L 115.450944 132.893765 
L 117.409505 130.357873 
L 119.433352 136.908179 
L 121.457198 123.407356 
L 123.285189 128.6243 
L 125.309036 124.009015 
L 127.267597 113.966685 
L 129.291444 127.270611 
L 131.250005 127.159425 
L 133.273852 122.184103 
L 135.297698 129.272827 
L 137.25626 115.788701 
L 139.280106 112.946423 
L 141.238668 109.040941 
L 143.262514 118.199232 
L 147.179637 113.052604 
L 149.203484 123.122387 
L 151.162045 115.207613 
L 153.185892 114.993254 
L 155.144453 111.427609 
L 157.1683 101.654572 
L 159.192146 103.782247 
L 161.150708 99.1372 
L 163.174554 98.488453 
L 165.133116 97.468995 
L 167.156963 95.769287 
L 169.180809 86.700193 
L 171.0088 94.02612 
L 173.032646 91.565242 
L 174.991208 86.499473 
L 177.015054 84.795726 
L 178.973616 81.518182 
L 180.997462 83.171204 
L 183.021309 76.853807 
L 184.97987 77.867845 
L 187.003717 79.458081 
L 188.962279 85.363513 
L 190.986125 76.055611 
L 193.009972 78.564861 
L 194.837962 77.45959 
L 196.861809 70.68376 
L 198.82037 77.284965 
L 200.844217 65.140357 
L 202.802778 61.33209 
L 204.826625 67.599197 
L 206.850472 71.324507 
L 208.809033 71.255944 
L 210.83288 67.944638 
L 212.791441 68.977656 
L 214.815288 68.547011 
L 216.839135 80.262175 
L 218.667125 66.596057 
L 220.690972 67.988744 
L 222.649533 65.182685 
L 224.67338 72.791842 
L 226.631941 90.950048 
L 228.655788 76.600696 
L 230.679635 75.804323 
L 232.638196 85.81269 
L 234.662043 90.588397 
L 236.620604 94.463545 
L 238.644451 85.462605 
L 240.668297 89.417064 
L 242.561573 87.745154 
L 244.58542 78.401406 
L 246.543981 86.770056 
L 248.567828 100.116493 
L 250.526389 87.56025 
L 252.550236 89.915621 
L 254.574083 91.0516 
L 256.532644 84.079086 
L 258.556491 80.367175 
L 260.515052 73.662318 
L 262.538899 111.059452 
L 264.562745 131.514826 
L 266.390736 90.59991 
L 268.414583 89.92662 
L 270.373144 88.681644 
L 272.396991 102.21784 
L 274.355552 78.72849 
L 276.379399 90.783137 
L 278.403245 84.407249 
L 280.361807 95.873932 
L 282.385653 85.034817 
L 284.344215 78.315762 
L 286.368061 94.30678 
L 288.391908 72.115841 
L 290.219899 68.633779 
L 292.243745 71.08212 
L 294.202307 84.034102 
L 296.226153 96.214728 
L 298.184715 74.777622 
L 300.208561 90.063906 
L 302.232408 76.672816 
L 304.190969 76.578712 
L 306.214816 85.119106 
L 308.173377 77.425978 
L 310.197224 83.22842 
L 312.221071 84.18054 
L 314.049061 76.653283 
L 316.072908 74.713642 
L 318.031469 77.330483 
L 320.055316 67.818885 
L 322.013877 83.81686 
L 324.037724 67.429965 
L 326.061571 86.26922 
L 328.020132 65.459198 
L 330.043979 72.714206 
L 332.00254 72.210172 
L 334.026387 74.66424 
L 336.050233 75.038823 
L 337.943509 74.660951 
L 339.967356 78.21329 
L 341.925917 87.866467 
L 343.949764 70.383382 
L 345.908325 79.834355 
L 347.932172 80.341739 
L 349.956019 81.994538 
L 351.91458 81.737227 
L 353.938427 77.029142 
L 355.896988 74.774376 
L 357.920835 68.379698 
L 359.944681 72.39047 
L 361.772672 68.686671 
L 363.796519 65.747778 
L 365.75508 63.949843 
L 367.778927 65.404942 
L 369.737488 55.805996 
L 371.761335 65.393173 
L 373.785181 61.359787 
L 375.743743 56.111227 
L 377.767589 55.603155 
L 379.726151 49.556679 
L 381.749997 71.402517 
L 383.773844 56.356445 
L 385.601835 56.273067 
L 387.625681 52.44562 
L 389.584243 51.037425 
L 391.608089 51.487889 
L 393.566651 59.102153 
L 395.590497 44.490321 
L 397.614344 57.512055 
L 399.572905 43.173889 
L 401.596752 52.686137 
L 403.555313 54.935006 
L 405.57916 66.724734 
L 407.603007 56.60335 
L 409.430997 62.421178 
L 411.454844 58.87123 
L 413.413405 59.002002 
L 415.437252 64.07468 
L 417.395813 69.653006 
L 419.41966 81.382672 
L 421.443507 79.309123 
L 423.402068 69.099331 
L 425.425915 75.087828 
L 427.384476 84.096029 
L 429.408323 86.923609 
L 431.43217 87.470743 
L 433.325446 84.175962 
L 435.349292 84.063902 
L 437.307854 79.847542 
L 439.3317 87.672047 
L 441.290262 84.353719 
L 443.314108 79.884792 
L 445.337955 78.684696 
L 447.296516 76.027291 
L 449.320363 52.922427 
L 451.278924 54.942296 
L 453.302771 57.497376 
L 455.326618 50.757103 
L 457.154608 59.901871 
L 459.178455 60.680309 
L 461.137016 66.707868 
L 463.160863 65.437419 
L 465.119424 63.358775 
L 467.143271 62.804836 
L 469.167118 59.173164 
L 471.125679 56.919558 
L 473.149526 48.776373 
L 475.108087 52.976424 
L 477.131934 53.337358 
L 479.15578 53.352443 
L 480.983771 65.807662 
L 483.007618 61.540247 
L 484.966179 63.277064 
L 486.990026 71.681837 
L 488.948587 62.070048 
L 490.972434 62.649297 
L 492.99628 69.881372 
L 494.954842 71.410516 
L 496.978688 56.723224 
L 498.93725 74.217222 
L 500.961096 55.986779 
L 502.984943 69.692019 
L 504.812934 78.896657 
L 506.83678 76.198818 
L 508.795342 92.592636 
L 510.819188 77.20557 
L 512.77775 80.462391 
L 514.801596 90.861193 
L 516.825443 84.108453 
L 518.784004 73.236904 
L 520.807851 73.793202 
L 522.766412 71.740266 
L 524.790259 96.969507 
L 526.814106 128.910511 
L 528.707382 145.433708 
L 530.731228 125.304131 
L 532.68979 130.778114 
L 534.713636 142.916129 
L 534.713636 142.916129 
" style="fill:none;stroke:#1f77b4;stroke-linecap:square;stroke-width:1.2;"/>
   </g>
   <g id="line2d_16">
    <path clip-path="url(#p8edffc0314)" d="M 61.786364 166.408789 
L 63.81021 162.703412 
L 65.768772 144.860358 
L 67.792618 153.587603 
L 69.75118 130.142211 
L 71.775026 130.71101 
L 73.798873 131.840683 
L 75.626864 118.116373 
L 77.65071 104.802633 
L 79.609272 116.620868 
L 81.633118 115.813765 
L 83.59168 106.866148 
L 85.615526 112.324563 
L 87.639373 102.199794 
L 89.597934 114.138765 
L 91.621781 108.831329 
L 93.580342 106.143992 
L 95.604189 107.979983 
L 97.628036 96.836406 
L 99.456026 98.645795 
L 101.479873 95.778229 
L 103.438434 85.29864 
L 105.462281 85.302152 
L 107.420842 82.504805 
L 109.444689 83.817417 
L 111.468536 103.729927 
L 113.427097 79.257567 
L 115.450944 77.762849 
L 117.409505 92.055957 
L 119.433352 98.262864 
L 121.457198 85.320545 
L 123.285189 87.363679 
L 125.309036 77.294117 
L 127.267597 74.862833 
L 129.291444 88.3296 
L 131.250005 83.729155 
L 133.273852 77.924665 
L 135.297698 91.63472 
L 137.25626 78.074187 
L 139.280106 76.870941 
L 141.238668 70.936488 
L 143.262514 76.291459 
L 145.286361 73.302433 
L 147.179637 71.952845 
L 149.203484 81.320138 
L 151.162045 70.651518 
L 153.185892 73.358299 
L 155.144453 70.592239 
L 157.1683 63.07372 
L 159.192146 66.979528 
L 161.150708 60.489669 
L 163.174554 57.945265 
L 167.156963 58.71781 
L 169.180809 53.673299 
L 171.0088 60.09112 
L 173.032646 57.142339 
L 174.991208 51.922279 
L 177.015054 55.589113 
L 178.973616 50.443037 
L 180.997462 52.650814 
L 183.021309 52.544504 
L 184.97987 50.516032 
L 187.003717 52.17322 
L 188.962279 59.988209 
L 190.986125 49.507349 
L 193.009972 47.688771 
L 194.837962 48.056809 
L 196.861809 41.579796 
L 198.82037 48.404659 
L 200.844217 37.905034 
L 202.802778 31.297067 
L 204.826625 33.421444 
L 206.850472 37.115462 
L 208.809033 36.685944 
L 210.83288 35.354527 
L 212.791441 37.77176 
L 214.815288 33.442061 
L 216.839135 44.444295 
L 218.667125 32.363455 
L 220.690972 32.796502 
L 222.649533 32.49505 
L 224.67338 44.506732 
L 226.631941 61.045363 
L 228.655788 42.838858 
L 230.679635 44.283593 
L 232.638196 52.073775 
L 234.662043 52.772813 
L 236.620604 63.218228 
L 238.644451 52.581576 
L 240.668297 60.222301 
L 242.561573 55.638359 
L 244.58542 52.281576 
L 246.543981 60.404895 
L 248.567828 78.541055 
L 250.526389 60.286379 
L 252.550236 58.54971 
L 254.574083 68.88582 
L 256.532644 55.897918 
L 258.556491 52.394439 
L 260.515052 46.88083 
L 262.538899 80.313959 
L 264.562745 102.269879 
L 266.390736 64.179641 
L 268.414583 63.323517 
L 270.373144 65.948679 
L 272.396991 77.365948 
L 274.355552 57.918279 
L 276.379399 64.26957 
L 278.403245 64.761729 
L 280.361807 82.064468 
L 282.385653 71.971612 
L 284.344215 73.617015 
L 286.368061 84.721338 
L 288.391908 66.015558 
L 290.219899 65.078943 
L 292.243745 67.00258 
L 294.202307 75.256426 
L 296.226153 83.094681 
L 298.184715 63.945432 
L 300.208561 79.376067 
L 302.232408 67.409208 
L 304.190969 70.282242 
L 306.214816 79.207969 
L 308.173377 68.576925 
L 310.197224 70.950896 
L 312.221071 69.622964 
L 314.049061 65.440646 
L 316.072908 63.361942 
L 318.031469 68.803681 
L 320.055316 63.551444 
L 322.013877 85.802821 
L 324.037724 70.605746 
L 326.061571 94.347373 
L 328.020132 68.400209 
L 330.043979 75.288389 
L 332.00254 76.373311 
L 334.026387 76.804711 
L 336.050233 77.870027 
L 337.943509 79.510087 
L 339.967356 80.950713 
L 341.925917 89.502311 
L 343.949764 74.216743 
L 345.908325 77.208489 
L 347.932172 81.196781 
L 349.956019 82.369079 
L 351.91458 81.737227 
L 353.938427 73.142362 
L 355.896988 75.030674 
L 357.920835 66.111146 
L 359.944681 69.889447 
L 361.772672 67.495605 
L 363.796519 66.053313 
L 365.75508 72.11176 
L 367.778927 71.869885 
L 369.737488 66.284822 
L 371.761335 77.907529 
L 373.785181 74.77439 
L 375.743743 66.029184 
L 377.767589 69.27705 
L 379.726151 68.753679 
L 381.749997 81.206598 
L 383.773844 67.572471 
L 385.601835 70.513943 
L 387.625681 67.402188 
L 389.584243 68.075162 
L 391.608089 69.210418 
L 393.566651 81.396872 
L 395.590497 67.793013 
L 397.614344 81.794234 
L 399.572905 64.400416 
L 401.596752 76.179855 
L 403.555313 76.985593 
L 405.57916 84.441917 
L 407.603007 78.761454 
L 409.430997 84.182002 
L 411.454844 83.553864 
L 413.413405 82.176427 
L 415.437252 87.15635 
L 417.395813 88.52734 
L 419.41966 96.636364 
L 421.443507 94.381566 
L 423.402068 83.740503 
L 427.384476 96.749955 
L 429.408323 91.564645 
L 431.43217 89.755168 
L 433.325446 88.697753 
L 435.349292 89.057458 
L 437.307854 83.515845 
L 439.3317 84.765983 
L 441.290262 86.42358 
L 443.314108 85.597157 
L 445.337955 86.035325 
L 447.296516 88.375109 
L 449.320363 73.109008 
L 451.278924 78.898748 
L 453.302771 79.491605 
L 455.326618 76.179381 
L 457.154608 86.378412 
L 459.178455 84.819134 
L 461.137016 91.106326 
L 463.160863 92.167407 
L 465.119424 89.590678 
L 467.143271 94.307731 
L 469.167118 91.09163 
L 471.125679 93.759444 
L 473.149526 88.361777 
L 475.108087 93.571138 
L 477.131934 94.965816 
L 480.983771 109.614189 
L 483.007618 101.888798 
L 484.966179 105.975034 
L 486.990026 111.656718 
L 488.948587 103.775958 
L 490.972434 106.695414 
L 492.99628 112.029136 
L 494.954842 115.404447 
L 496.978688 102.263909 
L 498.93725 116.264187 
L 500.961096 95.365102 
L 502.984943 105.063799 
L 504.812934 109.608344 
L 506.83678 106.865491 
L 508.795342 124.634143 
L 510.819188 108.72036 
L 512.77775 112.989427 
L 514.801596 112.083074 
L 516.825443 111.49393 
L 518.784004 102.941355 
L 520.807851 104.538114 
L 522.766412 104.580545 
L 524.790259 119.852403 
L 526.814106 145.269319 
L 528.707382 138.959576 
L 530.731228 120.558047 
L 532.68979 126.851822 
L 534.713636 146.36291 
L 534.713636 146.36291 
" style="fill:none;stroke:#ff7f0e;stroke-linecap:square;stroke-opacity:0.7;"/>
   </g>
   <g id="line2d_17">
    <path clip-path="url(#p8edffc0314)" d="M 351.91458 81.737227 
L 353.938427 80.50693 
L 355.896988 78.767035 
L 357.920835 72.282063 
L 359.944681 76.765477 
L 361.772672 75.040756 
L 363.796519 78.088624 
L 365.75508 69.303756 
L 367.778927 75.207992 
L 369.737488 67.771364 
L 371.761335 76.597291 
L 373.785181 73.161155 
L 375.743743 64.546178 
L 377.767589 67.290908 
L 379.726151 72.615223 
L 381.749997 81.181196 
L 383.773844 68.133185 
L 385.601835 71.159305 
L 387.625681 68.01098 
L 389.584243 71.139148 
L 391.608089 71.461691 
L 393.566651 74.657236 
L 395.590497 69.70094 
L 397.614344 79.772101 
L 399.572905 64.755758 
L 401.596752 74.007951 
L 403.555313 84.450305 
L 405.57916 83.277622 
L 407.603007 76.685307 
L 409.430997 79.703156 
L 411.454844 78.000835 
L 413.413405 77.453236 
L 415.437252 79.417586 
L 417.395813 82.815791 
L 419.41966 106.112691 
L 421.443507 91.64851 
L 423.402068 84.632506 
L 425.425915 85.356343 
L 427.384476 99.181025 
L 429.408323 95.582869 
L 431.43217 84.502377 
L 433.325446 85.360153 
L 435.349292 82.473852 
L 437.307854 83.152296 
L 439.3317 101.48922 
L 441.290262 85.691553 
L 443.314108 87.706854 
L 445.337955 87.558431 
L 447.296516 85.571529 
L 449.320363 63.818048 
L 451.278924 77.74094 
L 453.302771 78.171415 
L 455.326618 73.845868 
L 457.154608 83.959838 
L 459.178455 79.630504 
L 461.137016 85.259433 
L 463.160863 86.872687 
L 465.119424 82.760939 
L 467.143271 88.971355 
L 469.167118 83.424976 
L 471.125679 84.824487 
L 473.149526 79.018648 
L 475.108087 84.705065 
L 477.131934 84.357359 
L 479.15578 85.140364 
L 480.983771 100.882581 
L 483.007618 81.820766 
L 484.966179 88.828771 
L 486.990026 93.552043 
L 488.948587 87.917332 
L 490.972434 88.341572 
L 492.99628 94.359983 
L 494.954842 98.360113 
L 496.978688 88.310625 
L 498.93725 103.901209 
L 500.961096 82.39425 
L 502.984943 93.232068 
L 504.812934 99.774105 
L 506.83678 98.156163 
L 508.795342 115.872484 
L 510.819188 101.70044 
L 512.77775 106.859039 
L 514.801596 107.41898 
L 516.825443 106.909209 
L 518.784004 101.886403 
L 520.807851 102.027839 
L 522.766412 103.464286 
L 524.790259 117.957864 
L 526.814106 146.368202 
L 528.707382 139.782251 
L 530.731228 114.160731 
L 532.68979 119.365557 
L 534.713636 135.334422 
L 534.713636 135.334422 
" style="fill:none;stroke:#2ca02c;stroke-linecap:square;stroke-opacity:0.7;"/>
   </g>
   <g id="line2d_18">
    <path clip-path="url(#p8edffc0314)" d="M 222.649533 96.409219 
L 224.67338 98.186908 
L 226.631941 113.475387 
L 228.655788 109.661554 
L 230.679635 115.632101 
L 232.638196 125.714407 
L 234.662043 128.739824 
L 236.620604 133.479636 
L 238.644451 117.288195 
L 240.668297 128.097005 
L 242.561573 126.593341 
L 244.58542 121.929867 
L 246.543981 121.579883 
L 248.567828 140.398298 
L 250.526389 119.355751 
L 252.550236 112.680618 
L 254.574083 126.262768 
L 256.532644 121.033179 
L 258.556491 134.398926 
L 260.515052 121.716025 
L 262.538899 143.314365 
L 264.562745 162.312961 
L 266.390736 116.949338 
L 268.414583 85.378474 
L 270.373144 89.015256 
L 272.396991 98.724288 
L 274.355552 76.832743 
L 276.379399 85.697112 
L 278.403245 82.351621 
L 280.361807 98.742017 
L 282.385653 91.556655 
L 284.344215 83.382048 
L 286.368061 90.924362 
L 288.391908 71.420208 
L 290.219899 69.213381 
L 292.243745 71.96521 
L 294.202307 75.501185 
L 296.226153 86.193758 
L 298.184715 62.747265 
L 300.208561 83.230564 
L 302.232408 61.084654 
L 304.190969 66.418247 
L 306.214816 70.447687 
L 308.173377 60.598875 
L 310.197224 63.174628 
L 312.221071 61.048725 
L 314.049061 52.154974 
L 316.072908 52.644485 
L 318.031469 58.969482 
L 320.055316 53.495012 
L 322.013877 75.157237 
L 324.037724 61.422993 
L 326.061571 86.142774 
L 328.020132 52.71877 
L 332.00254 66.084668 
L 334.026387 58.064321 
L 336.050233 57.701601 
L 339.967356 70.291348 
L 341.925917 84.741463 
L 343.949764 71.693071 
L 345.908325 78.920233 
L 347.932172 78.653913 
L 349.956019 78.607573 
L 351.91458 81.737227 
L 353.938427 68.003024 
L 355.896988 66.791928 
L 357.920835 55.857197 
L 359.944681 61.117021 
L 361.772672 57.162762 
L 363.796519 60.722232 
L 365.75508 59.967254 
L 367.778927 62.380979 
L 369.737488 51.898845 
L 371.761335 63.602439 
L 373.785181 54.727105 
L 375.743743 43.735838 
L 377.767589 47.872989 
L 379.726151 46.212628 
L 381.749997 62.012726 
L 383.773844 45.543996 
L 385.601835 48.074961 
L 387.625681 48.248416 
L 389.584243 48.978434 
L 391.608089 48.820623 
L 393.566651 66.412228 
L 395.590497 51.634251 
L 397.614344 75.327945 
L 399.572905 54.891586 
L 401.596752 70.435797 
L 403.555313 70.424125 
L 405.57916 78.84091 
L 407.603007 67.6399 
L 409.430997 72.265437 
L 411.454844 68.083108 
L 413.413405 75.232279 
L 415.437252 83.37012 
L 417.395813 93.77567 
L 419.41966 99.957234 
L 421.443507 100.493321 
L 423.402068 95.414134 
L 425.425915 101.371392 
L 427.384476 115.747159 
L 429.408323 113.919208 
L 431.43217 104.327435 
L 433.325446 95.995939 
L 435.349292 102.188046 
L 437.307854 99.730479 
L 439.3317 109.842102 
L 441.290262 102.129477 
L 443.314108 100.867295 
L 445.337955 100.362248 
L 447.296516 101.233747 
L 449.320363 76.503144 
L 451.278924 82.270752 
L 453.302771 83.161972 
L 455.326618 81.637216 
L 457.154608 89.605582 
L 459.178455 87.494469 
L 461.137016 98.001121 
L 463.160863 96.149313 
L 465.119424 94.985689 
L 467.143271 102.23616 
L 469.167118 96.008216 
L 471.125679 101.626071 
L 473.149526 93.301874 
L 475.108087 98.410502 
L 477.131934 105.502184 
L 479.15578 107.947773 
L 480.983771 113.846836 
L 483.007618 108.607313 
L 484.966179 109.122347 
L 486.990026 111.998006 
L 488.948587 109.657862 
L 490.972434 112.09903 
L 492.99628 119.734682 
L 494.954842 128.745476 
L 496.978688 118.340177 
L 498.93725 136.534647 
L 500.961096 111.610966 
L 502.984943 118.912552 
L 504.812934 128.059003 
L 506.83678 127.119067 
L 508.795342 150.469886 
L 510.819188 136.631792 
L 512.77775 143.575817 
L 514.801596 153.00258 
L 516.825443 146.568165 
L 518.784004 141.931021 
L 520.807851 142.747281 
L 522.766412 141.046737 
L 524.790259 160.662212 
L 526.814106 187.351083 
L 528.707382 206.16792 
L 530.731228 176.528295 
L 532.68979 179.339592 
L 534.713636 187.777147 
L 534.713636 187.777147 
" style="fill:none;stroke:#d62728;stroke-linecap:square;stroke-opacity:0.7;"/>
   </g>
   <g id="legend_1">
    <g id="patch_3">
     <path d="M 364.741645 246.369 
L 550.1966 246.369 
Q 552.529 246.369 552.529 244.0366 
L 552.529 214.713959 
Q 552.529 212.381559 550.1966 212.381559 
L 364.741645 212.381559 
Q 362.409245 212.381559 362.409245 214.713959 
L 362.409245 244.0366 
Q 362.409245 246.369 364.741645 246.369 
z
" style="fill:#ffffff;opacity:0.8;stroke:#cccccc;stroke-linejoin:miter;"/>
    </g>
    <g id="line2d_19">
     <path d="M 367.074045 221.415964 
L 390.398045 221.415964 
" style="fill:none;stroke:#1f77b4;stroke-linecap:square;stroke-width:1.2;"/>
    </g>
    <g id="line2d_20"/>
    <g id="text_15">
     <!-- Lpe -->
     <defs>
      <path d="M 6.734375 0 
L 6.734375 68.796875 
L 14.359375 68.796875 
L 14.359375 7.625 
L 42.875 7.625 
L 42.875 0 
z
" id="LiberationSansNarrow-76"/>
      <path d="M 42.140625 26.65625 
Q 42.140625 20.65625 41.359375 15.578125 
Q 40.578125 10.5 38.6875 6.828125 
Q 36.8125 3.171875 33.765625 1.09375 
Q 30.71875 -0.984375 26.21875 -0.984375 
Q 21.578125 -0.984375 18.078125 1.171875 
Q 14.59375 3.328125 12.796875 8.203125 
L 12.546875 8.203125 
Q 12.59375 8.109375 12.609375 7.328125 
Q 12.640625 6.546875 12.671875 5.375 
Q 12.703125 4.203125 12.71875 2.75 
Q 12.75 1.3125 12.75 -0.09375 
L 12.75 -20.75 
L 5.515625 -20.75 
L 5.515625 42.046875 
Q 5.515625 43.953125 5.484375 45.703125 
Q 5.46875 47.46875 5.4375 48.90625 
Q 5.421875 50.34375 5.375 51.359375 
Q 5.328125 52.390625 5.28125 52.828125 
L 12.25 52.828125 
Q 12.3125 52.6875 12.359375 51.8125 
L 12.5 49.703125 
Q 12.546875 48.4375 12.59375 47.015625 
Q 12.640625 45.609375 12.640625 44.34375 
L 12.796875 44.34375 
Q 13.765625 46.875 15.0625 48.65625 
Q 16.359375 50.4375 18.015625 51.578125 
Q 19.671875 52.734375 21.671875 53.25 
Q 23.6875 53.765625 26.21875 53.765625 
Q 30.71875 53.765625 33.765625 51.8125 
Q 36.8125 49.859375 38.6875 46.3125 
Q 40.578125 42.78125 41.359375 37.765625 
Q 42.140625 32.765625 42.140625 26.65625 
z
M 34.578125 26.46875 
Q 34.578125 31.34375 34.109375 35.15625 
Q 33.640625 38.96875 32.4375 41.59375 
Q 31.25 44.234375 29.296875 45.59375 
Q 27.34375 46.96875 24.359375 46.96875 
Q 21.96875 46.96875 19.84375 46.140625 
Q 17.71875 45.3125 16.125 42.96875 
Q 14.546875 40.625 13.640625 36.5 
Q 12.75 32.375 12.75 25.78125 
Q 12.75 20.171875 13.5 16.28125 
Q 14.265625 12.40625 15.71875 10.015625 
Q 17.1875 7.625 19.328125 6.5625 
Q 21.484375 5.515625 24.3125 5.515625 
Q 27.34375 5.515625 29.296875 6.921875 
Q 31.25 8.34375 32.4375 11.03125 
Q 33.640625 13.71875 34.109375 17.59375 
Q 34.578125 21.484375 34.578125 26.46875 
z
" id="LiberationSansNarrow-112"/>
      <path d="M 10.6875 24.5625 
Q 10.6875 20.40625 11.5625 16.90625 
Q 12.453125 13.421875 13.90625 10.90625 
Q 15.375 8.40625 17.640625 7 
Q 19.921875 5.609375 23.140625 5.609375 
Q 27.828125 5.609375 30.65625 7.90625 
Q 33.5 10.203125 34.46875 13.71875 
L 40.828125 11.53125 
Q 40.140625 9.328125 38.921875 7.109375 
Q 37.703125 4.890625 35.640625 3.09375 
Q 33.59375 1.3125 30.53125 0.15625 
Q 27.484375 -0.984375 23.140625 -0.984375 
Q 13.53125 -0.984375 8.5 6 
Q 3.46875 12.984375 3.46875 26.765625 
Q 3.46875 34.1875 5 39.328125 
Q 6.546875 44.484375 9.171875 47.703125 
Q 11.8125 50.921875 15.328125 52.359375 
Q 18.84375 53.8125 22.859375 53.8125 
Q 28.328125 53.8125 31.984375 51.65625 
Q 39.0625 47.515625 41.015625 36.8125 
Q 41.9375 31.6875 41.9375 25.734375 
L 41.9375 24.5625 
z
M 34.71875 31.296875 
Q 34.71875 40.140625 31.421875 43.71875 
Q 28.125 47.3125 22.75 47.3125 
Q 18.953125 47.3125 15.328125 44.09375 
Q 10.9375 40.328125 10.6875 31.296875 
z
" id="LiberationSansNarrow-101"/>
     </defs>
     <g transform="translate(399.727645 225.497664)scale(0.11662 -0.11662)">
      <use xlink:href="#LiberationSansNarrow-76"/>
      <use x="45.605469" xlink:href="#LiberationSansNarrow-112"/>
      <use x="91.210938" xlink:href="#LiberationSansNarrow-101"/>
     </g>
    </g>
    <g id="line2d_21">
     <path d="M 367.074045 235.202635 
L 390.398045 235.202635 
" style="fill:none;stroke:#ff7f0e;stroke-linecap:square;stroke-opacity:0.7;"/>
    </g>
    <g id="line2d_22"/>
    <g id="text_16">
     <!-- IUSV -->
     <defs>
      <path d="M 7.5625 0 
L 7.5625 68.796875 
L 15.234375 68.796875 
L 15.234375 0 
z
" id="LiberationSansNarrow-73"/>
      <path d="M 29.25 -0.984375 
Q 24.609375 -0.984375 20.453125 0.53125 
Q 16.3125 2.046875 13.15625 5.25 
Q 10.015625 8.453125 8.15625 13.359375 
Q 6.296875 18.265625 6.296875 25 
L 6.296875 68.796875 
L 13.96875 68.796875 
L 13.96875 25.78125 
Q 13.96875 20.5625 15.109375 16.921875 
Q 16.265625 13.28125 18.28125 10.984375 
Q 20.3125 8.6875 23.09375 7.640625 
Q 25.875 6.59375 29.203125 6.59375 
Q 32.46875 6.59375 35.390625 7.65625 
Q 38.328125 8.734375 40.515625 11.078125 
Q 42.71875 13.421875 43.984375 17.203125 
Q 45.265625 21 45.265625 26.421875 
L 45.265625 68.796875 
L 52.875 68.796875 
L 52.875 25.875 
Q 52.875 19 51 13.9375 
Q 49.125 8.890625 45.921875 5.5625 
Q 42.71875 2.25 38.421875 0.625 
Q 34.125 -0.984375 29.25 -0.984375 
z
" id="LiberationSansNarrow-85"/>
      <path d="M 50.921875 19 
Q 50.921875 14.65625 49.53125 10.984375 
Q 48.140625 7.328125 45.265625 4.65625 
Q 42.390625 2 38.015625 0.5 
Q 33.640625 -0.984375 27.640625 -0.984375 
Q 17.09375 -0.984375 11.203125 3.515625 
Q 5.328125 8.015625 3.71875 16.5 
L 11.140625 18.3125 
Q 11.671875 15.625 12.84375 13.421875 
Q 14.015625 11.234375 15.984375 9.640625 
Q 17.96875 8.0625 20.890625 7.171875 
Q 23.828125 6.296875 27.875 6.296875 
Q 31.296875 6.296875 34.15625 7 
Q 37.015625 7.71875 39.03125 9.171875 
Q 41.0625 10.640625 42.203125 12.953125 
Q 43.359375 15.28125 43.359375 18.5 
Q 43.359375 21.875 42.09375 23.96875 
Q 40.828125 26.078125 38.546875 27.4375 
Q 36.28125 28.8125 33.109375 29.734375 
L 26.125 31.734375 
Q 23.78125 32.375 21.390625 33.125 
Q 19 33.890625 16.796875 34.9375 
Q 14.59375 35.984375 12.6875 37.390625 
Q 10.796875 38.8125 9.375 40.796875 
Q 7.953125 42.78125 7.140625 45.390625 
Q 6.34375 48 6.34375 51.421875 
Q 6.34375 56.296875 7.984375 59.78125 
Q 9.625 63.28125 12.5 65.53125 
Q 15.375 67.78125 19.3125 68.796875 
Q 23.25 69.828125 27.78125 69.828125 
Q 33.015625 69.828125 36.75 68.828125 
Q 40.484375 67.828125 43.046875 65.8125 
Q 45.609375 63.8125 47.140625 60.859375 
Q 48.6875 57.90625 49.609375 54 
L 42.09375 52.390625 
Q 41.546875 54.890625 40.46875 56.84375 
Q 39.40625 58.796875 37.671875 60.109375 
Q 35.9375 61.421875 33.46875 62.109375 
Q 31 62.796875 27.6875 62.796875 
Q 23.78125 62.796875 21.109375 61.9375 
Q 18.453125 61.078125 16.84375 59.609375 
Q 15.234375 58.15625 14.515625 56.171875 
Q 13.8125 54.203125 13.8125 51.90625 
Q 13.8125 48.828125 15.078125 46.84375 
Q 16.359375 44.875 18.5 43.546875 
Q 20.65625 42.234375 23.515625 41.359375 
Q 26.375 40.484375 29.546875 39.59375 
Q 29.546875 39.59375 34.71875 38.09375 
Q 37.3125 37.359375 39.671875 36.296875 
Q 42.046875 35.25 44.09375 33.828125 
Q 46.140625 32.421875 47.671875 30.375 
Q 49.21875 28.328125 50.0625 25.53125 
Q 50.921875 22.75 50.921875 19 
z
" id="LiberationSansNarrow-83"/>
      <path d="M 31.296875 0 
L 23.390625 0 
L 0.34375 68.796875 
L 8.40625 68.796875 
L 24.03125 20.359375 
Q 24.03125 20.359375 25.203125 16.015625 
L 26.3125 12.109375 
Q 26.3125 12.109375 27.390625 8.203125 
Q 27.390625 8.203125 28.421875 12.015625 
Q 28.421875 12.015625 29.5 15.875 
L 30.765625 20.359375 
L 46.296875 68.796875 
L 54.34375 68.796875 
z
" id="LiberationSansNarrow-86"/>
     </defs>
     <g transform="translate(399.727645 239.284335)scale(0.11662 -0.11662)">
      <use xlink:href="#LiberationSansNarrow-73"/>
      <use x="22.802734" xlink:href="#LiberationSansNarrow-85"/>
      <use x="81.982422" xlink:href="#LiberationSansNarrow-83"/>
      <use x="136.669922" xlink:href="#LiberationSansNarrow-86"/>
     </g>
    </g>
    <g id="line2d_23">
     <path d="M 433.705975 221.415964 
L 457.029975 221.415964 
" style="fill:none;stroke:#2ca02c;stroke-linecap:square;stroke-opacity:0.7;"/>
    </g>
    <g id="line2d_24"/>
    <g id="text_17">
     <!-- VLU -->
     <g transform="translate(466.359575 225.497664)scale(0.11662 -0.11662)">
      <use xlink:href="#LiberationSansNarrow-86"/>
      <use x="54.6875" xlink:href="#LiberationSansNarrow-76"/>
      <use x="100.292969" xlink:href="#LiberationSansNarrow-85"/>
     </g>
    </g>
    <g id="line2d_25">
     <path d="M 496.620643 221.415964 
L 519.944643 221.415964 
" style="fill:none;stroke:#d62728;stroke-linecap:square;stroke-opacity:0.7;"/>
    </g>
    <g id="line2d_26"/>
    <g id="text_18">
     <!-- FAB -->
     <defs>
      <path d="M 14.359375 61.1875 
L 14.359375 35.59375 
L 45.84375 35.59375 
L 45.84375 27.875 
L 14.359375 27.875 
L 14.359375 0 
L 6.734375 0 
L 6.734375 68.796875 
L 46.828125 68.796875 
L 46.828125 61.1875 
z
" id="LiberationSansNarrow-70"/>
      <path d="M 46.734375 0 
L 40.28125 20.125 
L 14.546875 20.125 
L 8.109375 0 
L 0.140625 0 
L 23.1875 68.796875 
L 31.890625 68.796875 
L 54.546875 0 
z
M 30.765625 50.09375 
Q 30.125 52.046875 29.546875 54.046875 
L 28.515625 57.71875 
L 27.734375 60.453125 
Q 27.4375 61.53125 27.4375 61.765625 
Q 27.34375 61.53125 27.078125 60.40625 
Q 26.8125 59.28125 26.375 57.625 
L 25.296875 53.953125 
L 24.125 50 
L 16.890625 27.390625 
L 37.984375 27.390625 
z
" id="LiberationSansNarrow-65"/>
      <path d="M 50.34375 19.390625 
Q 50.34375 14.15625 48.671875 10.46875 
Q 47.015625 6.78125 44.15625 4.46875 
Q 41.3125 2.15625 37.546875 1.078125 
Q 33.796875 0 29.640625 0 
L 6.734375 0 
L 6.734375 68.796875 
L 27.25 68.796875 
Q 31.9375 68.796875 35.59375 67.84375 
Q 39.265625 66.890625 41.828125 64.84375 
Q 44.390625 62.796875 45.734375 59.640625 
Q 47.078125 56.5 47.078125 52.09375 
Q 47.078125 49.21875 46.40625 46.671875 
Q 45.75 44.140625 44.40625 42.0625 
Q 43.0625 39.984375 41.03125 38.5 
Q 39.015625 37.015625 36.328125 36.28125 
Q 39.75 35.796875 42.375 34.375 
Q 45.015625 32.953125 46.765625 30.75 
Q 48.53125 28.5625 49.4375 25.65625 
Q 50.34375 22.75 50.34375 19.390625 
z
M 39.40625 50.984375 
Q 39.40625 56.546875 36.28125 58.9375 
Q 33.15625 61.328125 27.25 61.328125 
L 14.359375 61.328125 
L 14.359375 39.546875 
L 27.25 39.546875 
Q 30.609375 39.546875 32.921875 40.34375 
Q 35.25 41.15625 36.6875 42.640625 
Q 38.140625 44.140625 38.765625 46.234375 
Q 39.40625 48.34375 39.40625 50.984375 
z
M 42.625 20.125 
Q 42.625 23.390625 41.640625 25.6875 
Q 40.671875 27.984375 38.84375 29.4375 
Q 37.015625 30.90625 34.421875 31.59375 
Q 31.84375 32.28125 28.609375 32.28125 
L 14.359375 32.28125 
L 14.359375 7.46875 
L 29.25 7.46875 
Q 32.171875 7.46875 34.609375 8.046875 
Q 37.0625 8.640625 38.84375 10.109375 
Q 40.625 11.578125 41.625 14.015625 
Q 42.625 16.453125 42.625 20.125 
z
" id="LiberationSansNarrow-66"/>
     </defs>
     <g transform="translate(529.274243 225.497664)scale(0.11662 -0.11662)">
      <use xlink:href="#LiberationSansNarrow-70"/>
      <use x="50.035156" xlink:href="#LiberationSansNarrow-65"/>
      <use x="104.722656" xlink:href="#LiberationSansNarrow-66"/>
     </g>
    </g>
   </g>
  </g>
 </g>
 <defs>
  <clipPath id="p8edffc0314">
   <rect height="231.42212" width="520.22" x="38.14" y="20.77788"/>
  </clipPath>
 </defs>
</svg>
