<?xml version="1.0" encoding="utf-8" standalone="no"?>
<!DOCTYPE svg PUBLIC "-//W3C//DTD SVG 1.1//EN"
  "http://www.w3.org/Graphics/SVG/1.1/DTD/svg11.dtd">
<!-- Created with matplotlib (https://matplotlib.org/) -->
<svg height="288pt" version="1.1" viewBox="0 0 576 288" width="576pt" xmlns="http://www.w3.org/2000/svg" xmlns:xlink="http://www.w3.org/1999/xlink">
 <defs>
  <style type="text/css">
*{stroke-linecap:butt;stroke-linejoin:round;}
  </style>
 </defs>
 <g id="figure_1">
  <g id="patch_1">
   <path d="M 0 288 
L 576 288 
L 576 0 
L 0 0 
z
" style="fill:#ffffff;"/>
  </g>
  <g id="axes_1">
   <g id="patch_2">
    <path d="M 55.82 255.2 
L 558.36 255.2 
L 558.36 17.64 
L 55.82 17.64 
z
" style="fill:#ffffff;"/>
   </g>
   <g id="matplotlib.axis_1">
    <g id="xtick_1">
     <g id="line2d_1">
      <path clip-path="url(#p5f42759c91)" d="M 78.662727 255.2 
L 78.662727 17.64 
" style="fill:none;stroke:#b0b0b0;stroke-dasharray:1.48,0.64;stroke-dashoffset:0;stroke-width:0.4;"/>
     </g>
    </g>
    <g id="xtick_2">
     <g id="line2d_2">
      <path clip-path="url(#p5f42759c91)" d="M 135.232136 255.2 
L 135.232136 17.64 
" style="fill:none;stroke:#b0b0b0;stroke-dasharray:1.48,0.64;stroke-dashoffset:0;stroke-width:0.4;"/>
     </g>
    </g>
    <g id="xtick_3">
     <g id="line2d_3">
      <path clip-path="url(#p5f42759c91)" d="M 191.801545 255.2 
L 191.801545 17.64 
" style="fill:none;stroke:#b0b0b0;stroke-dasharray:1.48,0.64;stroke-dashoffset:0;stroke-width:0.4;"/>
     </g>
    </g>
    <g id="xtick_4">
     <g id="line2d_4">
      <path clip-path="url(#p5f42759c91)" d="M 248.370954 255.2 
L 248.370954 17.64 
" style="fill:none;stroke:#b0b0b0;stroke-dasharray:1.48,0.64;stroke-dashoffset:0;stroke-width:0.4;"/>
     </g>
    </g>
    <g id="xtick_5">
     <g id="line2d_5">
      <path clip-path="url(#p5f42759c91)" d="M 304.940362 255.2 
L 304.940362 17.64 
" style="fill:none;stroke:#b0b0b0;stroke-dasharray:1.48,0.64;stroke-dashoffset:0;stroke-width:0.4;"/>
     </g>
    </g>
    <g id="xtick_6">
     <g id="line2d_6">
      <path clip-path="url(#p5f42759c91)" d="M 361.509771 255.2 
L 361.509771 17.64 
" style="fill:none;stroke:#b0b0b0;stroke-dasharray:1.48,0.64;stroke-dashoffset:0;stroke-width:0.4;"/>
     </g>
    </g>
    <g id="xtick_7">
     <g id="line2d_7">
      <path clip-path="url(#p5f42759c91)" d="M 418.07918 255.2 
L 418.07918 17.64 
" style="fill:none;stroke:#b0b0b0;stroke-dasharray:1.48,0.64;stroke-dashoffset:0;stroke-width:0.4;"/>
     </g>
    </g>
    <g id="xtick_8">
     <g id="line2d_8">
      <path clip-path="url(#p5f42759c91)" d="M 474.648589 255.2 
L 474.648589 17.64 
" style="fill:none;stroke:#b0b0b0;stroke-dasharray:1.48,0.64;stroke-dashoffset:0;stroke-width:0.4;"/>
     </g>
    </g>
    <g id="xtick_9">
     <g id="line2d_9">
      <path clip-path="url(#p5f42759c91)" d="M 531.217998 255.2 
L 531.217998 17.64 
" style="fill:none;stroke:#b0b0b0;stroke-dasharray:1.48,0.64;stroke-dashoffset:0;stroke-width:0.4;"/>
     </g>
    </g>
    <g id="text_1">
     <!-- время -->
     <defs>
      <path d="M 22.5625 52.828125 
Q 25.59375 52.828125 28.484375 52.234375 
Q 31.390625 51.65625 33.640625 50.140625 
Q 35.890625 48.640625 37.234375 46.09375 
Q 38.578125 43.5625 38.578125 39.59375 
Q 38.578125 37.015625 37.890625 35.03125 
Q 37.203125 33.0625 35.984375 31.640625 
Q 34.765625 30.21875 33.125 29.3125 
Q 31.5 28.421875 29.6875 27.984375 
L 29.6875 27.640625 
Q 31.84375 27.296875 33.734375 26.4375 
Q 35.640625 25.59375 37 24.09375 
Q 38.375 22.609375 39.171875 20.40625 
Q 39.984375 18.21875 39.984375 15.234375 
Q 39.984375 11.421875 38.765625 8.5625 
Q 37.546875 5.71875 35.375 3.8125 
Q 33.203125 1.90625 30.171875 0.953125 
Q 27.15625 0 23.484375 0 
L 5.671875 0 
L 5.671875 52.828125 
z
M 12.890625 6.5 
L 22.3125 6.5 
Q 25.09375 6.5 27 6.984375 
Q 28.90625 7.46875 30.078125 8.546875 
Q 31.25 9.625 31.78125 11.25 
Q 32.328125 12.890625 32.328125 15.1875 
Q 32.328125 17.625 31.765625 19.328125 
Q 31.203125 21.046875 29.953125 22.109375 
Q 28.71875 23.1875 26.703125 23.671875 
Q 24.703125 24.171875 21.875 24.171875 
L 12.890625 24.171875 
z
M 12.890625 46.140625 
L 12.890625 30.515625 
L 21.53125 30.515625 
Q 24.265625 30.515625 26.0625 30.984375 
Q 27.875 31.453125 29 32.390625 
Q 30.125 33.34375 30.5625 34.828125 
Q 31 36.328125 31 38.421875 
Q 31 42.4375 28.96875 44.28125 
Q 26.953125 46.140625 22.125 46.140625 
z
" id="LiberationSansNarrow-1074"/>
      <path d="M 42.140625 26.65625 
Q 42.140625 20.65625 41.359375 15.578125 
Q 40.578125 10.5 38.6875 6.828125 
Q 36.8125 3.171875 33.765625 1.09375 
Q 30.71875 -0.984375 26.21875 -0.984375 
Q 21.578125 -0.984375 18.078125 1.171875 
Q 14.59375 3.328125 12.796875 8.203125 
L 12.546875 8.203125 
Q 12.59375 8.109375 12.609375 7.328125 
Q 12.640625 6.546875 12.671875 5.375 
Q 12.703125 4.203125 12.71875 2.75 
Q 12.75 1.3125 12.75 -0.09375 
L 12.75 -20.75 
L 5.515625 -20.75 
L 5.515625 42.046875 
Q 5.515625 43.953125 5.484375 45.703125 
Q 5.46875 47.46875 5.4375 48.90625 
Q 5.421875 50.34375 5.375 51.359375 
Q 5.328125 52.390625 5.28125 52.828125 
L 12.25 52.828125 
Q 12.3125 52.6875 12.359375 51.8125 
L 12.5 49.703125 
Q 12.546875 48.4375 12.59375 47.015625 
Q 12.640625 45.609375 12.640625 44.34375 
L 12.796875 44.34375 
Q 13.765625 46.875 15.0625 48.65625 
Q 16.359375 50.4375 18.015625 51.578125 
Q 19.671875 52.734375 21.671875 53.25 
Q 23.6875 53.765625 26.21875 53.765625 
Q 30.71875 53.765625 33.765625 51.8125 
Q 36.8125 49.859375 38.6875 46.3125 
Q 40.578125 42.78125 41.359375 37.765625 
Q 42.140625 32.765625 42.140625 26.65625 
z
M 34.578125 26.46875 
Q 34.578125 31.34375 34.109375 35.15625 
Q 33.640625 38.96875 32.4375 41.59375 
Q 31.25 44.234375 29.296875 45.59375 
Q 27.34375 46.96875 24.359375 46.96875 
Q 21.96875 46.96875 19.84375 46.140625 
Q 17.71875 45.3125 16.125 42.96875 
Q 14.546875 40.625 13.640625 36.5 
Q 12.75 32.375 12.75 25.78125 
Q 12.75 20.171875 13.5 16.28125 
Q 14.265625 12.40625 15.71875 10.015625 
Q 17.1875 7.625 19.328125 6.5625 
Q 21.484375 5.515625 24.3125 5.515625 
Q 27.34375 5.515625 29.296875 6.921875 
Q 31.25 8.34375 32.4375 11.03125 
Q 33.640625 13.71875 34.109375 17.59375 
Q 34.578125 21.484375 34.578125 26.46875 
z
" id="LiberationSansNarrow-1088"/>
      <path d="M 10.6875 24.5625 
Q 10.6875 20.40625 11.5625 16.90625 
Q 12.453125 13.421875 13.90625 10.90625 
Q 15.375 8.40625 17.640625 7 
Q 19.921875 5.609375 23.140625 5.609375 
Q 27.828125 5.609375 30.65625 7.90625 
Q 33.5 10.203125 34.46875 13.71875 
L 40.828125 11.53125 
Q 40.140625 9.328125 38.921875 7.109375 
Q 37.703125 4.890625 35.640625 3.09375 
Q 33.59375 1.3125 30.53125 0.15625 
Q 27.484375 -0.984375 23.140625 -0.984375 
Q 13.53125 -0.984375 8.5 6 
Q 3.46875 12.984375 3.46875 26.765625 
Q 3.46875 34.1875 5 39.328125 
Q 6.546875 44.484375 9.171875 47.703125 
Q 11.8125 50.921875 15.328125 52.359375 
Q 18.84375 53.8125 22.859375 53.8125 
Q 28.328125 53.8125 31.984375 51.65625 
Q 39.0625 47.515625 41.015625 36.8125 
Q 41.9375 31.6875 41.9375 25.734375 
L 41.9375 24.5625 
z
M 34.71875 31.296875 
Q 34.71875 40.140625 31.421875 43.71875 
Q 28.125 47.3125 22.75 47.3125 
Q 18.953125 47.3125 15.328125 44.09375 
Q 10.9375 40.328125 10.6875 31.296875 
z
" id="LiberationSansNarrow-1077"/>
      <path d="M 31.546875 0 
L 25.390625 0 
L 12.40625 46.4375 
Q 12.453125 45.171875 12.515625 43.703125 
Q 12.59375 42.234375 12.59375 40.75 
Q 12.59375 39.265625 12.609375 37.859375 
Q 12.640625 36.46875 12.640625 35.359375 
L 12.640625 0 
L 5.671875 0 
L 5.671875 52.828125 
L 16.890625 52.828125 
L 25.734375 20.5625 
Q 26.65625 17.484375 27.390625 13.796875 
Q 28.125 10.109375 28.421875 6.59375 
Q 28.8125 10.109375 29.515625 13.796875 
Q 30.21875 17.484375 31.15625 20.5625 
L 39.984375 52.828125 
L 50.734375 52.828125 
L 50.734375 0 
L 43.796875 0 
L 43.796875 35.359375 
Q 43.796875 36.421875 43.8125 37.890625 
Q 43.84375 39.359375 43.921875 40.921875 
Q 44 42.484375 44.015625 43.9375 
Q 44.046875 45.40625 44.140625 46.53125 
z
" id="LiberationSansNarrow-1084"/>
      <path d="M 21.4375 22.359375 
L 8.84375 0 
L 0.6875 0 
L 14.453125 23 
Q 9.234375 24.3125 6.859375 28.296875 
Q 4.5 32.28125 4.5 38.234375 
Q 4.5 45.515625 8.8125 49.171875 
Q 13.140625 52.828125 21.4375 52.828125 
L 38.71875 52.828125 
L 38.71875 0 
L 31.546875 0 
L 31.546875 22.359375 
z
M 31.546875 46.625 
L 22.171875 46.625 
Q 16.9375 46.625 14.546875 44.375 
Q 12.15625 42.140625 12.15625 37.59375 
Q 12.15625 33.015625 14.28125 30.734375 
Q 16.40625 28.46875 21.390625 28.46875 
L 31.546875 28.46875 
z
" id="LiberationSansNarrow-1103"/>
     </defs>
     <g transform="translate(290.597344 269.345625)scale(0.14 -0.14)">
      <use xlink:href="#LiberationSansNarrow-1074"/>
      <use x="43.554688" xlink:href="#LiberationSansNarrow-1088"/>
      <use x="89.160156" xlink:href="#LiberationSansNarrow-1077"/>
      <use x="134.765625" xlink:href="#LiberationSansNarrow-1084"/>
      <use x="191.162109" xlink:href="#LiberationSansNarrow-1103"/>
     </g>
    </g>
   </g>
   <g id="matplotlib.axis_2">
    <g id="ytick_1">
     <g id="line2d_10">
      <path clip-path="url(#p5f42759c91)" d="M 55.82 245.619857 
L 558.36 245.619857 
" style="fill:none;stroke:#b0b0b0;stroke-dasharray:1.48,0.64;stroke-dashoffset:0;stroke-width:0.4;"/>
     </g>
     <g id="text_2">
      <!-- 0.0 -->
      <defs>
       <path d="M 42.390625 34.421875 
Q 42.390625 24.515625 40.84375 17.75 
Q 39.3125 10.984375 36.640625 6.8125 
Q 33.984375 2.640625 30.390625 0.828125 
Q 26.8125 -0.984375 22.703125 -0.984375 
Q 18.609375 -0.984375 15.03125 0.828125 
Q 11.46875 2.640625 8.828125 6.78125 
Q 6.203125 10.9375 4.703125 17.703125 
Q 3.21875 24.46875 3.21875 34.421875 
Q 3.21875 44.828125 4.703125 51.640625 
Q 6.203125 58.453125 8.828125 62.5 
Q 11.46875 66.546875 15.078125 68.1875 
Q 18.703125 69.828125 22.953125 69.828125 
Q 27 69.828125 30.53125 68.1875 
Q 34.078125 66.546875 36.71875 62.5 
Q 39.359375 58.453125 40.875 51.640625 
Q 42.390625 44.828125 42.390625 34.421875 
z
M 35.0625 34.421875 
Q 35.0625 42.625 34.28125 48.0625 
Q 33.5 53.515625 31.9375 56.765625 
Q 30.375 60.015625 28.09375 61.359375 
Q 25.828125 62.703125 22.953125 62.703125 
Q 19.921875 62.703125 17.578125 61.328125 
Q 15.234375 59.96875 13.671875 56.71875 
Q 12.109375 53.46875 11.296875 48.015625 
Q 10.5 42.578125 10.5 34.421875 
Q 10.5 26.515625 11.296875 21.09375 
Q 12.109375 15.671875 13.6875 12.375 
Q 15.28125 9.078125 17.578125 7.640625 
Q 19.875 6.203125 22.796875 6.203125 
Q 25.640625 6.203125 27.90625 7.640625 
Q 30.171875 9.078125 31.75 12.375 
Q 33.34375 15.671875 34.203125 21.09375 
Q 35.0625 26.515625 35.0625 34.421875 
z
" id="LiberationSansNarrow-48"/>
       <path d="M 7.46875 0 
L 7.46875 10.6875 
L 15.328125 10.6875 
L 15.328125 0 
z
" id="LiberationSansNarrow-46"/>
      </defs>
      <g transform="translate(32.857812 250.692669)scale(0.14 -0.14)">
       <use xlink:href="#LiberationSansNarrow-48"/>
       <use x="45.605469" xlink:href="#LiberationSansNarrow-46"/>
       <use x="68.408203" xlink:href="#LiberationSansNarrow-48"/>
      </g>
     </g>
    </g>
    <g id="ytick_2">
     <g id="line2d_11">
      <path clip-path="url(#p5f42759c91)" d="M 55.82 202.078193 
L 558.36 202.078193 
" style="fill:none;stroke:#b0b0b0;stroke-dasharray:1.48,0.64;stroke-dashoffset:0;stroke-width:0.4;"/>
     </g>
     <g id="text_3">
      <!-- 0.2 -->
      <defs>
       <path d="M 4.109375 0 
L 4.109375 6.203125 
Q 6.15625 11.921875 9.109375 16.28125 
Q 12.0625 20.65625 15.3125 24.1875 
Q 18.5625 27.734375 21.734375 30.765625 
Q 24.90625 33.796875 27.46875 36.8125 
Q 30.03125 39.84375 31.609375 43.15625 
Q 33.203125 46.484375 33.203125 50.6875 
Q 33.203125 53.609375 32.46875 55.828125 
Q 31.734375 58.0625 30.390625 59.5625 
Q 29.046875 61.078125 27.140625 61.828125 
Q 25.25 62.59375 22.90625 62.59375 
Q 20.75 62.59375 18.84375 61.859375 
Q 16.9375 61.140625 15.453125 59.671875 
Q 13.96875 58.203125 13.03125 56.03125 
Q 12.109375 53.859375 11.8125 50.984375 
L 4.4375 51.8125 
Q 4.78125 55.515625 6.125 58.78125 
Q 7.46875 62.0625 9.78125 64.53125 
Q 12.109375 67 15.359375 68.40625 
Q 18.609375 69.828125 22.90625 69.828125 
Q 27.09375 69.828125 30.390625 68.609375 
Q 33.6875 67.390625 35.9375 64.984375 
Q 38.1875 62.59375 39.40625 59.078125 
Q 40.625 55.5625 40.625 50.984375 
Q 40.625 47.515625 39.59375 44.390625 
Q 38.578125 41.265625 36.859375 38.421875 
Q 35.15625 35.59375 32.90625 32.953125 
Q 30.671875 30.328125 28.21875 27.828125 
L 23.296875 22.859375 
Q 20.796875 20.359375 18.625 17.859375 
Q 16.453125 15.375 14.734375 12.8125 
Q 13.03125 10.25 12.0625 7.46875 
L 41.5 7.46875 
L 41.5 0 
z
" id="LiberationSansNarrow-50"/>
      </defs>
      <g transform="translate(32.857812 207.151006)scale(0.14 -0.14)">
       <use xlink:href="#LiberationSansNarrow-48"/>
       <use x="45.605469" xlink:href="#LiberationSansNarrow-46"/>
       <use x="68.408203" xlink:href="#LiberationSansNarrow-50"/>
      </g>
     </g>
    </g>
    <g id="ytick_3">
     <g id="line2d_12">
      <path clip-path="url(#p5f42759c91)" d="M 55.82 158.53653 
L 558.36 158.53653 
" style="fill:none;stroke:#b0b0b0;stroke-dasharray:1.48,0.64;stroke-dashoffset:0;stroke-width:0.4;"/>
     </g>
     <g id="text_4">
      <!-- 0.4 -->
      <defs>
       <path d="M 35.25 15.578125 
L 35.25 0 
L 28.46875 0 
L 28.46875 15.578125 
L 1.90625 15.578125 
L 1.90625 22.40625 
L 27.6875 68.796875 
L 35.25 68.796875 
L 35.25 22.515625 
L 43.21875 22.515625 
L 43.21875 15.578125 
z
M 28.46875 58.890625 
Q 28.375 58.640625 28.03125 57.90625 
L 27.34375 56.34375 
L 26.5625 54.59375 
Q 26.125 53.65625 25.78125 53.078125 
L 11.328125 27.09375 
Q 11.140625 26.703125 10.75 26.078125 
L 9.96875 24.8125 
L 9.1875 23.484375 
Q 8.796875 22.859375 8.546875 22.515625 
L 28.46875 22.515625 
z
" id="LiberationSansNarrow-52"/>
      </defs>
      <g transform="translate(32.857812 163.609342)scale(0.14 -0.14)">
       <use xlink:href="#LiberationSansNarrow-48"/>
       <use x="45.605469" xlink:href="#LiberationSansNarrow-46"/>
       <use x="68.408203" xlink:href="#LiberationSansNarrow-52"/>
      </g>
     </g>
    </g>
    <g id="ytick_4">
     <g id="line2d_13">
      <path clip-path="url(#p5f42759c91)" d="M 55.82 114.994866 
L 558.36 114.994866 
" style="fill:none;stroke:#b0b0b0;stroke-dasharray:1.48,0.64;stroke-dashoffset:0;stroke-width:0.4;"/>
     </g>
     <g id="text_5">
      <!-- 0.6 -->
      <defs>
       <path d="M 42 22.515625 
Q 42 17.328125 40.828125 13 
Q 39.65625 8.6875 37.359375 5.578125 
Q 35.0625 2.484375 31.640625 0.75 
Q 28.21875 -0.984375 23.78125 -0.984375 
Q 18.84375 -0.984375 15.15625 1.3125 
Q 11.46875 3.609375 9.03125 7.921875 
Q 6.59375 12.25 5.375 18.53125 
Q 4.15625 24.8125 4.15625 32.8125 
Q 4.15625 42 5.546875 48.921875 
Q 6.9375 55.859375 9.515625 60.5 
Q 12.109375 65.140625 15.859375 67.484375 
Q 19.625 69.828125 24.359375 69.828125 
Q 27.25 69.828125 29.765625 69.09375 
Q 32.28125 68.359375 34.328125 66.71875 
Q 36.375 65.09375 37.9375 62.40625 
Q 39.5 59.71875 40.4375 55.8125 
L 33.546875 54.296875 
Q 32.421875 58.734375 29.953125 60.71875 
Q 27.484375 62.703125 24.265625 62.703125 
Q 21.296875 62.703125 18.890625 60.984375 
Q 16.5 59.28125 14.8125 55.875 
Q 13.140625 52.484375 12.234375 47.359375 
Q 11.328125 42.234375 11.328125 35.40625 
Q 13.28125 39.84375 16.84375 42.15625 
Q 20.40625 44.484375 25.046875 44.484375 
Q 28.90625 44.484375 32 42.96875 
Q 35.109375 41.453125 37.328125 38.59375 
Q 39.546875 35.75 40.765625 31.671875 
Q 42 27.59375 42 22.515625 
z
M 34.671875 22.125 
Q 34.671875 25.6875 33.953125 28.5625 
Q 33.25 31.453125 31.8125 33.46875 
Q 30.375 35.5 28.25 36.59375 
Q 26.125 37.703125 23.296875 37.703125 
Q 21.34375 37.703125 19.328125 36.984375 
Q 17.328125 36.28125 15.71875 34.6875 
Q 14.109375 33.109375 13.078125 30.515625 
Q 12.0625 27.9375 12.0625 24.21875 
Q 12.0625 20.40625 12.859375 17.109375 
Q 13.671875 13.8125 15.15625 11.375 
Q 16.65625 8.9375 18.78125 7.515625 
Q 20.90625 6.109375 23.53125 6.109375 
Q 26.125 6.109375 28.203125 7.203125 
Q 30.28125 8.296875 31.71875 10.375 
Q 33.15625 12.453125 33.90625 15.421875 
Q 34.671875 18.40625 34.671875 22.125 
z
" id="LiberationSansNarrow-54"/>
      </defs>
      <g transform="translate(32.857812 120.067679)scale(0.14 -0.14)">
       <use xlink:href="#LiberationSansNarrow-48"/>
       <use x="45.605469" xlink:href="#LiberationSansNarrow-46"/>
       <use x="68.408203" xlink:href="#LiberationSansNarrow-54"/>
      </g>
     </g>
    </g>
    <g id="ytick_5">
     <g id="line2d_14">
      <path clip-path="url(#p5f42759c91)" d="M 55.82 71.453203 
L 558.36 71.453203 
" style="fill:none;stroke:#b0b0b0;stroke-dasharray:1.48,0.64;stroke-dashoffset:0;stroke-width:0.4;"/>
     </g>
     <g id="text_6">
      <!-- 0.8 -->
      <defs>
       <path d="M 42.046875 19.1875 
Q 42.046875 14.796875 40.890625 11.109375 
Q 39.75 7.421875 37.40625 4.734375 
Q 35.0625 2.046875 31.421875 0.53125 
Q 27.78125 -0.984375 22.796875 -0.984375 
Q 17.828125 -0.984375 14.203125 0.53125 
Q 10.59375 2.046875 8.21875 4.703125 
Q 5.859375 7.375 4.703125 11.0625 
Q 3.5625 14.75 3.5625 19.09375 
Q 3.5625 22.859375 4.515625 25.78125 
Q 5.46875 28.71875 7.03125 30.828125 
Q 8.59375 32.953125 10.609375 34.25 
Q 12.640625 35.546875 14.796875 35.984375 
L 14.796875 36.1875 
Q 12.453125 36.859375 10.59375 38.375 
Q 8.734375 39.890625 7.46875 42.015625 
Q 6.203125 44.140625 5.546875 46.71875 
Q 4.890625 49.3125 4.890625 52.203125 
Q 4.890625 55.8125 6.03125 59 
Q 7.171875 62.203125 9.421875 64.625 
Q 11.671875 67.046875 14.984375 68.4375 
Q 18.3125 69.828125 22.65625 69.828125 
Q 27.25 69.828125 30.640625 68.40625 
Q 34.03125 67 36.25 64.578125 
Q 38.484375 62.15625 39.546875 58.9375 
Q 40.625 55.71875 40.625 52.09375 
Q 40.625 49.265625 39.96875 46.671875 
Q 39.3125 44.09375 38.0625 41.96875 
Q 36.8125 39.84375 34.9375 38.34375 
Q 33.0625 36.859375 30.609375 36.28125 
L 30.609375 36.078125 
Q 33.0625 35.59375 35.15625 34.296875 
Q 37.25 33.015625 38.765625 30.890625 
Q 40.28125 28.765625 41.15625 25.828125 
Q 42.046875 22.90625 42.046875 19.1875 
z
M 33.15625 51.609375 
Q 33.15625 54.203125 32.609375 56.34375 
Q 32.078125 58.5 30.828125 60.03125 
Q 29.59375 61.578125 27.59375 62.421875 
Q 25.59375 63.28125 22.65625 63.28125 
Q 19.828125 63.28125 17.875 62.421875 
Q 15.921875 61.578125 14.640625 60.03125 
Q 13.375 58.5 12.8125 56.34375 
Q 12.25 54.203125 12.25 51.609375 
Q 12.25 49.5625 12.6875 47.40625 
Q 13.140625 45.265625 14.3125 43.5 
Q 15.484375 41.75 17.5 40.625 
Q 19.53125 39.5 22.75 39.5 
Q 26.171875 39.5 28.21875 40.625 
Q 30.28125 41.75 31.375 43.5 
Q 32.46875 45.265625 32.8125 47.40625 
Q 33.15625 49.5625 33.15625 51.609375 
z
M 34.578125 20.015625 
Q 34.578125 22.515625 34.015625 24.828125 
Q 33.453125 27.15625 32.078125 28.9375 
Q 30.71875 30.71875 28.421875 31.8125 
Q 26.125 32.90625 22.65625 32.90625 
Q 19.484375 32.90625 17.265625 31.8125 
Q 15.046875 30.71875 13.671875 28.90625 
Q 12.3125 27.09375 11.671875 24.71875 
Q 11.03125 22.359375 11.03125 19.828125 
Q 11.03125 16.65625 11.671875 14.03125 
Q 12.3125 11.421875 13.703125 9.546875 
Q 15.09375 7.671875 17.375 6.640625 
Q 19.671875 5.609375 22.90625 5.609375 
Q 26.171875 5.609375 28.421875 6.640625 
Q 30.671875 7.671875 32.03125 9.546875 
Q 33.40625 11.421875 33.984375 14.078125 
Q 34.578125 16.75 34.578125 20.015625 
z
" id="LiberationSansNarrow-56"/>
      </defs>
      <g transform="translate(32.857812 76.526016)scale(0.14 -0.14)">
       <use xlink:href="#LiberationSansNarrow-48"/>
       <use x="45.605469" xlink:href="#LiberationSansNarrow-46"/>
       <use x="68.408203" xlink:href="#LiberationSansNarrow-56"/>
      </g>
     </g>
    </g>
    <g id="ytick_6">
     <g id="line2d_15">
      <path clip-path="url(#p5f42759c91)" d="M 55.82 27.91154 
L 558.36 27.91154 
" style="fill:none;stroke:#b0b0b0;stroke-dasharray:1.48,0.64;stroke-dashoffset:0;stroke-width:0.4;"/>
     </g>
     <g id="text_7">
      <!-- 1.0 -->
      <defs>
       <path d="M 6.25 0 
L 6.25 7.46875 
L 20.609375 7.46875 
L 20.609375 60.40625 
L 7.90625 49.3125 
L 7.90625 57.625 
L 21.234375 68.796875 
L 27.875 68.796875 
L 27.875 7.46875 
L 41.609375 7.46875 
L 41.609375 0 
z
" id="LiberationSansNarrow-49"/>
      </defs>
      <g transform="translate(32.857812 32.984352)scale(0.14 -0.14)">
       <use xlink:href="#LiberationSansNarrow-49"/>
       <use x="45.605469" xlink:href="#LiberationSansNarrow-46"/>
       <use x="68.408203" xlink:href="#LiberationSansNarrow-48"/>
      </g>
     </g>
    </g>
    <g id="text_8">
     <!-- коэфф. Джини -->
     <defs>
      <path d="M 5.515625 52.828125 
L 12.703125 52.828125 
L 12.703125 29.6875 
Q 13.921875 29.6875 14.875 30.078125 
Q 15.828125 30.46875 16.875 31.6875 
Q 17.921875 32.90625 19.21875 35.15625 
Q 20.515625 37.40625 22.46875 41.15625 
L 28.375 52.828125 
L 35.890625 52.828125 
L 27.25 36.96875 
Q 25.4375 33.734375 24.109375 31.65625 
Q 22.796875 29.59375 22.125 28.90625 
L 36.234375 0 
L 28.21875 0 
L 17.140625 24.265625 
Q 16.359375 23.875 15.0625 23.578125 
Q 13.765625 23.296875 12.703125 23.296875 
L 12.703125 0 
L 5.515625 0 
z
" id="LiberationSansNarrow-1082"/>
      <path d="M 42.140625 26.46875 
Q 42.140625 12.59375 37.125 5.796875 
Q 32.125 -0.984375 22.609375 -0.984375 
Q 18.0625 -0.984375 14.515625 0.671875 
Q 10.984375 2.34375 8.515625 5.765625 
Q 6.0625 9.1875 4.765625 14.328125 
Q 3.46875 19.484375 3.46875 26.46875 
Q 3.46875 53.8125 22.859375 53.8125 
Q 27.875 53.8125 31.5625 52.09375 
Q 35.25 50.390625 37.59375 46.96875 
Q 39.9375 43.5625 41.03125 38.421875 
Q 42.140625 33.296875 42.140625 26.46875 
z
M 34.578125 26.46875 
Q 34.578125 32.625 33.8125 36.625 
Q 33.0625 40.625 31.546875 43.015625 
Q 30.03125 45.40625 27.859375 46.359375 
Q 25.6875 47.3125 23 47.3125 
Q 20.21875 47.3125 17.984375 46.3125 
Q 15.765625 45.3125 14.203125 42.890625 
Q 12.640625 40.484375 11.828125 36.46875 
Q 11.03125 32.46875 11.03125 26.46875 
Q 11.03125 20.3125 11.90625 16.28125 
Q 12.796875 12.25 14.328125 9.859375 
Q 15.875 7.46875 17.96875 6.484375 
Q 20.0625 5.515625 22.5625 5.515625 
Q 25.34375 5.515625 27.5625 6.46875 
Q 29.78125 7.421875 31.34375 9.8125 
Q 32.90625 12.203125 33.734375 16.25 
Q 34.578125 20.3125 34.578125 26.46875 
z
" id="LiberationSansNarrow-1086"/>
      <path d="M 2.203125 15.375 
L 9.46875 15.96875 
Q 10.109375 10.6875 12.796875 8.140625 
Q 15.484375 5.609375 19.484375 5.609375 
Q 22.40625 5.609375 24.453125 6.90625 
Q 26.515625 8.203125 27.875 10.5625 
Q 29.25 12.9375 29.921875 16.234375 
Q 30.609375 19.53125 30.8125 23.53125 
L 14.265625 23.53125 
L 14.265625 29.9375 
L 30.8125 29.9375 
Q 30.671875 34.328125 29.953125 37.578125 
Q 29.25 40.828125 27.921875 42.96875 
Q 26.609375 45.125 24.53125 46.1875 
Q 22.46875 47.265625 19.53125 47.265625 
Q 15.1875 47.265625 12.8125 44.703125 
Q 10.453125 42.140625 9.859375 37.703125 
L 2.4375 38.375 
Q 2.984375 41.703125 4.296875 44.53125 
Q 5.609375 47.359375 7.703125 49.40625 
Q 9.8125 51.46875 12.71875 52.640625 
Q 15.625 53.8125 19.34375 53.8125 
Q 22.953125 53.8125 26.34375 52.515625 
Q 29.734375 51.21875 32.421875 48.09375 
Q 35.109375 44.96875 36.734375 39.6875 
Q 38.375 34.421875 38.375 26.46875 
Q 38.375 20.609375 37.34375 15.59375 
Q 36.328125 10.59375 34.03125 6.90625 
Q 31.734375 3.21875 28.09375 1.109375 
Q 24.46875 -0.984375 19.234375 -0.984375 
Q 15.28125 -0.984375 12.25 0.328125 
Q 9.234375 1.65625 7.125 3.90625 
Q 5.03125 6.15625 3.78125 9.125 
Q 2.546875 12.109375 2.203125 15.375 
z
" id="LiberationSansNarrow-1101"/>
      <path d="M 64.015625 26.65625 
Q 64.015625 20.65625 63.234375 15.578125 
Q 62.453125 10.5 60.734375 6.828125 
Q 59.03125 3.171875 56.21875 1.09375 
Q 53.421875 -0.984375 49.359375 -0.984375 
Q 45.171875 -0.984375 42.015625 1.171875 
Q 38.875 3.328125 37.15625 8.203125 
L 36.921875 8.203125 
Q 37.015625 6.5 37.0625 4.609375 
Q 37.109375 2.734375 37.109375 -0.09375 
L 37.109375 -20.75 
L 30.328125 -20.75 
L 30.328125 -0.09375 
Q 30.328125 2.546875 30.375 4.546875 
Q 30.421875 6.546875 30.515625 8.5 
L 30.328125 8.5 
Q 28.46875 3.421875 25.484375 1.21875 
Q 22.515625 -0.984375 18.0625 -0.984375 
Q 10.59375 -0.984375 7.03125 5.734375 
Q 3.46875 12.453125 3.46875 26.171875 
Q 3.46875 40.046875 7.15625 46.921875 
Q 10.84375 53.8125 18.0625 53.8125 
Q 22.5625 53.8125 25.53125 51.609375 
Q 28.515625 49.421875 30.328125 44.625 
L 30.515625 44.625 
Q 30.515625 45.125 30.46875 46.125 
Q 30.421875 47.125 30.375 48.25 
L 30.375 50.390625 
Q 30.328125 51.421875 30.328125 52 
L 30.328125 72.46875 
L 37.109375 72.46875 
L 37.109375 51.953125 
Q 37.109375 51.421875 37.078125 50.359375 
Q 37.0625 49.3125 37.0625 48.15625 
Q 37.0625 47.015625 37.03125 45.96875 
Q 37.015625 44.921875 37.015625 44.34375 
L 37.203125 44.34375 
Q 39.0625 49.421875 41.9375 51.59375 
Q 44.828125 53.765625 49.359375 53.765625 
Q 53.421875 53.765625 56.21875 51.8125 
Q 59.03125 49.859375 60.734375 46.3125 
Q 62.453125 42.78125 63.234375 37.765625 
Q 64.015625 32.765625 64.015625 26.65625 
z
M 11.03125 26.46875 
Q 11.03125 21 11.546875 17.09375 
Q 12.0625 13.1875 13.1875 10.671875 
Q 14.3125 8.15625 16.015625 6.984375 
Q 17.71875 5.8125 20.125 5.8125 
Q 22.515625 5.8125 24.390625 6.859375 
Q 26.265625 7.90625 27.5625 10.296875 
Q 28.859375 12.703125 29.53125 16.53125 
Q 30.21875 20.359375 30.328125 25.875 
L 30.328125 27.046875 
Q 30.328125 32.671875 29.640625 36.546875 
Q 28.953125 40.4375 27.65625 42.828125 
Q 26.375 45.21875 24.484375 46.265625 
Q 22.609375 47.3125 20.171875 47.3125 
Q 17.875 47.3125 16.15625 46.1875 
Q 14.453125 45.0625 13.296875 42.578125 
Q 12.15625 40.09375 11.59375 36.109375 
Q 11.03125 32.125 11.03125 26.46875 
z
M 56.453125 26.46875 
Q 56.453125 31.34375 55.984375 35.15625 
Q 55.515625 38.96875 54.46875 41.59375 
Q 53.421875 44.234375 51.65625 45.59375 
Q 49.90625 46.96875 47.3125 46.96875 
Q 45.21875 46.96875 43.375 46.140625 
Q 41.546875 45.3125 40.125 42.96875 
Q 38.71875 40.625 37.90625 36.5 
Q 37.109375 32.375 37.109375 25.78125 
L 37.109375 24.65625 
Q 37.15625 19.390625 37.859375 15.71875 
Q 38.578125 12.0625 39.859375 9.78125 
Q 41.15625 7.515625 43.015625 6.515625 
Q 44.875 5.515625 47.265625 5.515625 
Q 49.859375 5.515625 51.609375 6.921875 
Q 53.375 8.34375 54.4375 11.03125 
Q 55.515625 13.71875 55.984375 17.59375 
Q 56.453125 21.484375 56.453125 26.46875 
z
" id="LiberationSansNarrow-1092"/>
      <path id="LiberationSansNarrow-32"/>
      <path d="M 46.96875 7.8125 
L 54 7.8125 
L 54 -19.921875 
L 46.78125 -19.921875 
L 46.78125 0 
L 7.8125 0 
L 7.8125 -19.921875 
L 0.59375 -19.921875 
L 0.59375 7.8125 
L 6.34375 7.8125 
Q 8.015625 10.296875 9.328125 13.671875 
Q 10.640625 17.046875 11.734375 21.453125 
Q 12.84375 25.875 13.71875 31.4375 
Q 14.59375 37.015625 15.328125 43.890625 
L 18.015625 68.796875 
L 46.96875 68.796875 
z
M 39.546875 7.8125 
L 39.546875 60.984375 
L 24.5625 60.984375 
L 22.5625 43.015625 
Q 21.828125 36.46875 21.046875 31.078125 
Q 20.265625 25.6875 19.328125 21.34375 
Q 18.40625 17 17.328125 13.640625 
Q 16.265625 10.296875 14.984375 7.8125 
z
" id="LiberationSansNarrow-1044"/>
      <path d="M 23.828125 23.296875 
Q 22.796875 23.296875 21.484375 23.578125 
Q 20.171875 23.875 19.4375 24.265625 
L 8.296875 0 
L 0.296875 0 
L 14.40625 28.90625 
Q 13.71875 29.59375 12.390625 31.65625 
Q 11.078125 33.734375 9.28125 36.96875 
L 0.640625 52.828125 
L 8.15625 52.828125 
L 14.109375 41.15625 
Q 16.015625 37.40625 17.3125 35.15625 
Q 18.609375 32.90625 19.65625 31.6875 
Q 20.703125 30.46875 21.65625 30.078125 
Q 22.609375 29.6875 23.828125 29.6875 
L 23.828125 52.828125 
L 31 52.828125 
L 31 29.6875 
Q 32.234375 29.6875 33.171875 30.078125 
Q 34.125 30.46875 35.171875 31.6875 
Q 36.234375 32.90625 37.515625 35.15625 
Q 38.8125 37.40625 40.71875 41.15625 
L 46.6875 52.828125 
L 54.203125 52.828125 
L 45.5625 36.96875 
Q 43.75 33.734375 42.421875 31.65625 
Q 41.109375 29.59375 40.4375 28.90625 
L 54.546875 0 
L 46.53125 0 
L 35.40625 24.265625 
Q 34.625 23.875 33.34375 23.578125 
Q 32.078125 23.296875 31 23.296875 
L 31 0 
L 23.828125 0 
z
" id="LiberationSansNarrow-1078"/>
      <path d="M 12.640625 52.828125 
L 12.640625 23.921875 
Q 12.640625 22.796875 12.59375 20.921875 
Q 12.546875 19.046875 12.46875 17.046875 
Q 12.40625 15.046875 12.359375 13.234375 
Q 12.3125 11.421875 12.25 10.40625 
L 32.28125 52.828125 
L 40.140625 52.828125 
L 40.140625 0 
L 33.25 0 
L 33.25 32.234375 
Q 33.25 33.15625 33.296875 34.578125 
L 33.40625 37.40625 
Q 33.453125 38.875 33.5 40.234375 
L 33.640625 42.625 
L 13.375 0 
L 5.71875 0 
L 5.71875 52.828125 
z
" id="LiberationSansNarrow-1080"/>
      <path d="M 12.890625 52.828125 
L 12.890625 30.46875 
L 32.375 30.46875 
L 32.375 52.828125 
L 39.59375 52.828125 
L 39.59375 0 
L 32.375 0 
L 32.375 24.078125 
L 12.890625 24.078125 
L 12.890625 0 
L 5.671875 0 
L 5.671875 52.828125 
z
" id="LiberationSansNarrow-1085"/>
     </defs>
     <g transform="translate(25.952812 175.002031)rotate(-90)scale(0.14 -0.14)">
      <use xlink:href="#LiberationSansNarrow-1082"/>
      <use x="35.855469" xlink:href="#LiberationSansNarrow-1086"/>
      <use x="81.460938" xlink:href="#LiberationSansNarrow-1101"/>
      <use x="123.306641" xlink:href="#LiberationSansNarrow-1092"/>
      <use x="190.787109" xlink:href="#LiberationSansNarrow-1092"/>
      <use x="258.267578" xlink:href="#LiberationSansNarrow-46"/>
      <use x="281.070312" xlink:href="#LiberationSansNarrow-32"/>
      <use x="303.873047" xlink:href="#LiberationSansNarrow-1044"/>
      <use x="359.390625" xlink:href="#LiberationSansNarrow-1078"/>
      <use x="414.224609" xlink:href="#LiberationSansNarrow-1080"/>
      <use x="460.074219" xlink:href="#LiberationSansNarrow-1085"/>
      <use x="505.337891" xlink:href="#LiberationSansNarrow-1080"/>
     </g>
    </g>
   </g>
   <g id="line2d_16">
    <path clip-path="url(#p5f42759c91)" d="M 78.662727 244.401818 
L 78.889005 233.28391 
L 79.34156 224.218257 
L 80.020393 215.564674 
L 80.925504 207.011893 
L 82.509447 195.820461 
L 82.962002 193.447922 
L 84.319668 185.733323 
L 86.582445 175.2904 
L 87.487555 171.841419 
L 89.750331 163.423704 
L 91.334275 158.366403 
L 92.013108 156.349777 
L 92.465663 154.893333 
L 92.918218 153.650926 
L 94.049606 150.691304 
L 94.954717 148.313492 
L 98.122604 140.461553 
L 98.575159 139.834626 
L 100.38538 135.939999 
L 102.648157 130.752456 
L 103.100712 129.813521 
L 103.779545 128.401775 
L 104.458378 127.390558 
L 105.589766 124.652004 
L 106.042321 123.822941 
L 106.494876 122.931502 
L 107.173709 121.79294 
L 107.626265 120.931461 
L 108.07882 120.234583 
L 109.210208 118.513684 
L 109.436486 118.054092 
L 109.662763 117.894781 
L 110.115319 117.227795 
L 111.472984 114.69491 
L 112.378095 113.188979 
L 112.604373 113.088419 
L 113.283205 112.036014 
L 113.509483 111.689599 
L 113.962038 110.817039 
L 114.414594 110.098939 
L 114.867149 109.804211 
L 115.093427 109.161315 
L 115.545982 108.675598 
L 115.998537 108.204353 
L 116.451092 107.334899 
L 117.129925 106.500078 
L 117.356203 106.483865 
L 117.582481 105.953324 
L 118.035036 105.530994 
L 118.487591 104.649518 
L 119.166424 103.899878 
L 119.392702 103.870539 
L 120.071535 102.11455 
L 120.52409 101.483504 
L 120.750367 101.31994 
L 120.976645 101.318473 
L 121.655478 100.077794 
L 121.881756 100.202592 
L 122.560589 98.72645 
L 122.786866 98.764691 
L 123.465699 98.267806 
L 123.691977 97.768093 
L 124.37081 97.010939 
L 124.823365 96.545049 
L 125.049642 95.972742 
L 125.954753 95.03839 
L 127.086141 93.004154 
L 127.538696 92.563853 
L 127.991252 91.880886 
L 128.443807 90.687512 
L 128.670085 90.639137 
L 129.12264 90.099698 
L 129.348918 89.520676 
L 129.575195 89.411086 
L 129.801473 89.499955 
L 130.254028 88.925313 
L 130.480306 88.582134 
L 130.932861 88.300827 
L 131.159139 87.866227 
L 131.385416 87.759031 
L 131.837972 86.77717 
L 132.064249 86.838619 
L 132.290527 86.243396 
L 132.516804 86.270729 
L 133.195637 85.41053 
L 133.87447 84.179384 
L 134.100748 84.094748 
L 134.327026 83.709362 
L 134.553303 83.91807 
L 134.779581 83.508977 
L 135.232136 83.230266 
L 135.458414 82.720374 
L 135.910969 82.936693 
L 136.137247 82.944966 
L 136.363524 82.72288 
L 136.81608 82.837425 
L 137.042357 82.741896 
L 137.268635 82.497128 
L 137.72119 81.6406 
L 137.947468 81.479362 
L 138.173745 81.152358 
L 138.400023 81.068099 
L 138.852578 80.608672 
L 139.078856 80.556585 
L 139.305134 80.071136 
L 139.983966 79.321648 
L 140.210244 78.952869 
L 140.436522 78.880783 
L 140.662799 79.044076 
L 140.889077 78.557781 
L 141.115355 78.513526 
L 141.794187 77.464794 
L 142.699298 76.74504 
L 142.925576 76.312898 
L 143.604409 75.981414 
L 144.509519 74.186923 
L 144.735797 74.08027 
L 145.188352 74.144501 
L 145.41463 73.967217 
L 145.640907 73.967085 
L 145.867185 74.2023 
L 146.31974 73.647631 
L 147.451128 73.425127 
L 147.903684 73.205113 
L 148.356239 72.827925 
L 148.582517 72.693252 
L 149.035072 71.928357 
L 149.487627 71.676523 
L 149.940182 71.4277 
L 150.392738 70.928463 
L 150.619015 71.101043 
L 151.071571 70.807401 
L 151.524126 71.153961 
L 152.202959 70.208451 
L 152.655514 69.818013 
L 153.108069 69.916034 
L 153.560625 69.296028 
L 153.786902 69.394754 
L 154.239457 68.809227 
L 155.144568 68.553534 
L 155.597123 68.406191 
L 156.275956 68.051941 
L 156.728511 67.548936 
L 157.181067 67.261461 
L 157.407344 67.228798 
L 157.633622 67.339347 
L 157.8599 67.667073 
L 158.086177 67.570181 
L 158.312455 67.639181 
L 158.538732 67.534183 
L 158.76501 67.622632 
L 159.670121 67.071693 
L 159.896398 66.619976 
L 160.348954 66.361723 
L 161.027786 65.528476 
L 161.480342 65.6664 
L 161.932897 65.865725 
L 162.838008 65.399231 
L 163.064285 65.422183 
L 164.195673 64.026825 
L 164.421951 64.00503 
L 164.648229 63.654128 
L 164.874506 63.879673 
L 165.327062 63.373371 
L 165.553339 63.472267 
L 165.779617 63.417434 
L 166.45845 62.623506 
L 166.911005 63.128739 
L 167.36356 62.88031 
L 167.816116 62.739264 
L 168.042393 62.230631 
L 168.494948 62.290555 
L 168.721226 62.015558 
L 168.947504 62.269598 
L 169.173781 61.867405 
L 169.400059 61.841094 
L 169.626337 62.085015 
L 170.078892 61.367301 
L 170.531447 60.739987 
L 170.757725 60.954661 
L 171.436558 61.143959 
L 171.889113 60.693657 
L 172.794224 60.66081 
L 173.020501 60.723107 
L 173.473056 60.111647 
L 174.151889 59.988018 
L 174.378167 59.757079 
L 174.604445 59.86426 
L 174.830722 59.813365 
L 175.283278 59.500132 
L 175.509555 59.38918 
L 175.96211 59.572431 
L 176.188388 59.157328 
L 176.414666 59.419556 
L 177.319776 59.443683 
L 177.998609 59.175681 
L 178.224887 59.378094 
L 178.451164 59.235063 
L 178.677442 58.851839 
L 178.90372 58.879301 
L 179.356275 58.405027 
L 179.80883 58.517705 
L 180.035108 58.145703 
L 180.261385 58.22206 
L 180.713941 57.541453 
L 180.940218 57.676715 
L 181.392774 56.638676 
L 181.619051 56.062561 
L 181.845329 55.826697 
L 182.297884 56.04822 
L 182.750439 55.551902 
L 183.202995 55.337915 
L 183.429272 55.413455 
L 185.013216 54.579232 
L 185.239493 54.380482 
L 185.692049 54.857278 
L 185.918326 54.88125 
L 186.597159 54.695774 
L 187.049715 54.846503 
L 187.275992 54.847982 
L 187.50227 54.541019 
L 187.728547 54.70359 
L 187.954825 54.346238 
L 188.181103 54.628919 
L 188.633658 54.087943 
L 188.859936 54.020729 
L 189.538769 53.462307 
L 189.765046 52.99699 
L 190.443879 52.875417 
L 190.670157 52.849823 
L 190.896434 53.041636 
L 191.122712 52.859776 
L 191.801545 53.066509 
L 192.027823 52.848976 
L 192.706655 53.154181 
L 193.159211 52.923614 
L 193.611766 52.610208 
L 193.838044 52.921496 
L 194.064321 52.666214 
L 194.290599 52.821587 
L 194.516876 52.766691 
L 194.969432 52.358735 
L 195.421987 52.358748 
L 195.648265 52.151278 
L 195.874542 52.337721 
L 196.327098 52.215553 
L 196.553375 52.128771 
L 196.779653 52.22761 
L 197.232208 51.752801 
L 197.458486 51.790087 
L 197.684763 52.097903 
L 197.911041 52.188665 
L 198.137319 52.126076 
L 198.363596 52.373934 
L 198.589874 52.400147 
L 198.816152 52.004844 
L 199.042429 51.945373 
L 199.268707 52.090104 
L 199.721262 52.057597 
L 200.173817 52.021621 
L 200.400095 51.894448 
L 201.078928 51.893761 
L 201.531483 51.486672 
L 201.757761 51.098448 
L 201.984038 51.36712 
L 202.210316 51.177728 
L 202.436594 51.311424 
L 202.662871 51.0795 
L 202.889149 51.080609 
L 203.115427 50.859111 
L 203.341704 50.918648 
L 205.151925 49.851761 
L 205.378203 49.475416 
L 205.604481 49.557234 
L 206.057036 49.207332 
L 206.509591 49.152855 
L 206.962146 49.015525 
L 207.188424 48.687797 
L 207.640979 48.955722 
L 208.093535 48.947858 
L 208.54609 48.65273 
L 208.772368 48.83536 
L 208.998645 48.709435 
L 209.224923 48.768458 
L 209.677478 48.544995 
L 209.903756 48.776432 
L 210.130033 48.667265 
L 210.356311 48.785135 
L 210.582589 48.513522 
L 211.035144 48.551333 
L 211.261421 48.319456 
L 211.487699 48.273027 
L 211.713977 48.04255 
L 211.940254 47.979126 
L 212.166532 47.758509 
L 212.619087 47.870161 
L 213.071643 47.754621 
L 213.29792 47.822626 
L 213.524198 47.636417 
L 213.750475 47.725451 
L 213.976753 47.601244 
L 214.203031 47.690025 
L 214.655586 47.487087 
L 214.881864 47.295401 
L 215.108141 47.324558 
L 215.560697 47.169427 
L 215.786974 47.351433 
L 216.013252 47.023012 
L 216.239529 47.133085 
L 216.692085 47.08901 
L 217.14464 46.687323 
L 217.370918 46.307818 
L 217.597195 46.246917 
L 218.049751 45.901944 
L 219.181139 45.384073 
L 219.407416 45.448337 
L 219.633694 45.012894 
L 219.859972 45.150185 
L 220.538805 44.964044 
L 220.765082 44.850136 
L 220.99136 44.376836 
L 221.217637 44.204306 
L 221.443915 44.22193 
L 221.670193 44.476425 
L 222.801581 44.861992 
L 223.027859 44.845738 
L 223.480414 44.198923 
L 223.706691 44.182445 
L 223.932969 44.331469 
L 224.159247 44.060123 
L 224.611802 44.264432 
L 224.83808 44.444104 
L 225.290635 44.379268 
L 225.969468 43.873588 
L 226.195745 43.934504 
L 226.422023 43.766068 
L 226.648301 43.9077 
L 227.100856 43.827355 
L 227.327134 43.745813 
L 227.553411 43.508253 
L 227.779689 43.493975 
L 228.005967 43.18281 
L 228.232244 43.223331 
L 228.684799 42.88238 
L 228.911077 43.004543 
L 229.137355 42.767331 
L 229.58991 42.627614 
L 229.816188 42.742463 
L 230.042465 42.698906 
L 230.947576 43.052628 
L 231.173853 43.018309 
L 231.852686 43.462262 
L 232.078964 43.246344 
L 232.305242 43.293739 
L 232.531519 43.189078 
L 232.757797 43.31089 
L 232.984074 43.16328 
L 233.43663 43.259104 
L 233.889185 43.029325 
L 234.115463 43.200749 
L 234.34174 43.127927 
L 234.568018 43.177942 
L 234.794296 42.896658 
L 235.246851 42.808359 
L 235.699406 42.579127 
L 236.151961 42.382696 
L 236.378239 42.353496 
L 236.604517 42.185911 
L 237.509627 42.107021 
L 237.735905 41.959054 
L 238.414738 42.107091 
L 239.546126 41.878502 
L 240.224959 41.827537 
L 240.451236 41.705865 
L 240.677514 41.921337 
L 240.903792 41.968007 
L 241.130069 41.575245 
L 241.582625 41.595818 
L 241.808902 41.197974 
L 242.03518 41.154177 
L 242.261458 41.289539 
L 242.487735 41.275058 
L 242.714013 41.10683 
L 242.94029 41.117208 
L 244.071679 40.264916 
L 244.297956 39.974715 
L 244.524234 40.156839 
L 244.750512 39.802264 
L 244.976789 40.059862 
L 246.108177 39.026608 
L 246.560733 38.956297 
L 246.78701 39.072742 
L 247.239565 38.57391 
L 248.144676 37.839098 
L 248.370954 38.203262 
L 248.597231 38.204665 
L 248.823509 37.902585 
L 249.049787 38.125177 
L 249.276064 38.050208 
L 249.502342 37.80642 
L 249.728619 38.043361 
L 249.954897 37.945321 
L 250.181175 38.174753 
L 250.407452 37.920639 
L 250.63373 37.997511 
L 250.860008 37.705773 
L 251.086285 37.760573 
L 251.312563 37.403499 
L 251.765118 37.202647 
L 251.991396 36.632948 
L 252.217673 36.66828 
L 252.670229 36.219654 
L 252.896506 36.197918 
L 253.122784 35.863257 
L 253.349062 36.124865 
L 253.575339 35.70605 
L 253.801617 35.833683 
L 254.027895 35.576319 
L 254.254172 35.843456 
L 254.48045 35.901135 
L 254.706727 35.748787 
L 254.933005 35.323077 
L 255.38556 36.046404 
L 255.611838 35.732667 
L 256.064393 36.256508 
L 256.290671 35.943309 
L 256.516949 36.211636 
L 256.743226 36.088904 
L 256.969504 36.125167 
L 257.195781 35.791216 
L 257.648337 35.880677 
L 257.874614 35.809858 
L 258.100892 35.963026 
L 259.23228 35.987045 
L 259.458558 36.208632 
L 259.684835 35.93509 
L 260.137391 35.987231 
L 260.363668 35.691333 
L 260.589946 35.901476 
L 260.816224 35.86507 
L 261.042501 35.604941 
L 261.268779 35.833547 
L 261.721334 35.872397 
L 262.173889 36.402033 
L 262.400167 36.157956 
L 262.626445 36.36844 
L 262.852722 36.315475 
L 263.079 36.417261 
L 263.305278 36.087722 
L 263.531555 36.079048 
L 263.757833 36.224792 
L 263.98411 36.512356 
L 264.210388 36.39744 
L 264.436666 35.99571 
L 264.662943 35.910643 
L 265.115499 35.173323 
L 265.341776 35.171429 
L 265.568054 34.760273 
L 265.794332 34.819017 
L 266.92572 33.114777 
L 267.151997 33.272005 
L 267.378275 33.597131 
L 267.83083 33.142639 
L 268.283386 32.892914 
L 268.509663 32.380667 
L 268.735941 32.85211 
L 268.962218 32.945597 
L 269.188496 33.656668 
L 269.641051 34.009548 
L 269.867329 33.704261 
L 270.093607 33.072961 
L 270.319884 33.020343 
L 270.77244 33.237365 
L 270.998717 33.130292 
L 271.224995 33.297375 
L 271.903828 32.460821 
L 272.130105 32.614508 
L 272.356383 32.515266 
L 272.582661 31.922123 
L 272.808938 32.06364 
L 273.940326 32.031448 
L 274.166604 32.119648 
L 274.392882 32.430068 
L 274.619159 32.058209 
L 274.845437 31.997096 
L 275.071715 32.121876 
L 275.297992 32.066648 
L 275.750548 32.618133 
L 275.976825 32.234586 
L 276.881936 32.033697 
L 277.108213 32.276942 
L 277.334491 32.318624 
L 277.560769 32.000204 
L 277.787046 32.099278 
L 278.013324 31.70153 
L 278.465879 31.737107 
L 278.918434 32.392556 
L 279.144712 32.396331 
L 279.37099 32.650596 
L 279.597267 32.594831 
L 279.823545 32.203448 
L 280.049823 32.121608 
L 280.2761 31.77163 
L 280.502378 31.952889 
L 280.954933 31.720917 
L 281.407488 31.72143 
L 281.860044 32.209788 
L 282.538877 32.40486 
L 282.765154 32.308229 
L 282.991432 31.768386 
L 283.896542 32.235109 
L 284.12282 32.655865 
L 284.575375 32.526752 
L 284.801653 32.329541 
L 285.027931 32.479497 
L 285.254208 32.271142 
L 285.706763 32.534572 
L 285.933041 32.870371 
L 286.385596 32.572131 
L 286.838152 31.777157 
L 287.064429 32.237436 
L 287.516985 32.248424 
L 287.743262 32.440086 
L 288.422095 31.596703 
L 288.87465 31.242618 
L 289.100928 31.59827 
L 289.327206 31.54542 
L 290.006039 31.728705 
L 290.232316 31.475921 
L 290.458594 30.969102 
L 291.137427 30.745828 
L 291.363704 30.569418 
L 291.589982 30.551945 
L 291.81626 30.756096 
L 292.268815 30.817958 
L 292.495093 31.065978 
L 292.947648 31.02841 
L 293.626481 31.025171 
L 294.757869 31.871194 
L 294.984147 31.691465 
L 295.436702 31.577302 
L 295.889257 32.459787 
L 296.115535 32.509278 
L 296.341812 32.110869 
L 296.56809 32.552875 
L 296.794368 32.750141 
L 297.020645 32.327752 
L 297.246923 32.200545 
L 297.473201 32.28528 
L 297.699478 32.124067 
L 297.925756 32.185079 
L 298.152033 32.040157 
L 298.378311 32.383635 
L 298.604589 32.512742 
L 298.830866 32.101258 
L 299.057144 32.193427 
L 299.283422 32.475445 
L 299.509699 32.29699 
L 299.962254 32.740346 
L 300.188532 32.762253 
L 300.41481 32.479215 
L 300.641087 32.674249 
L 301.093643 32.053548 
L 301.31992 31.778283 
L 301.772476 31.656348 
L 302.677586 31.090984 
L 302.903864 30.57168 
L 303.356419 30.283633 
L 303.582697 30.114316 
L 304.487807 30.102978 
L 304.714085 30.267701 
L 304.940362 30.100262 
L 305.619195 30.652753 
L 305.845473 30.672783 
L 306.298028 30.288629 
L 306.524306 30.376101 
L 306.976861 29.930991 
L 307.655694 30.233148 
L 308.560805 30.126819 
L 308.787082 29.719916 
L 309.01336 29.851602 
L 309.239638 29.634803 
L 309.465915 29.685583 
L 309.91847 29.40022 
L 310.371026 29.217869 
L 310.823581 29.594976 
L 311.049859 29.758975 
L 311.276136 29.765889 
L 311.502414 29.520877 
L 312.407524 29.495412 
L 312.86008 29.799013 
L 313.086357 29.865602 
L 313.538913 29.647885 
L 313.76519 29.666954 
L 314.217746 29.901347 
L 314.444023 30.020791 
L 314.670301 29.94178 
L 315.122856 30.184723 
L 315.349134 29.880458 
L 316.027967 29.852098 
L 316.480522 30.148669 
L 316.706799 30.235115 
L 316.933077 29.944442 
L 317.61191 29.789248 
L 317.838188 29.974011 
L 318.064465 29.964227 
L 318.290743 30.158315 
L 318.969576 30.112133 
L 319.195853 30.213274 
L 319.648409 30.965215 
L 320.100964 31.073763 
L 320.553519 31.642369 
L 320.779797 31.744427 
L 321.006075 31.6971 
L 321.232352 31.363441 
L 321.45863 31.396732 
L 321.911185 31.752534 
L 322.137463 31.61753 
L 322.36374 31.931696 
L 324.626517 31.085811 
L 325.079072 31.087396 
L 325.30535 31.462814 
L 325.531627 31.362825 
L 325.984183 30.674394 
L 326.21046 30.561469 
L 326.663015 31.210276 
L 327.341848 31.007255 
L 327.568126 31.2745 
L 327.794404 31.073126 
L 328.020681 31.13774 
L 328.246959 30.993137 
L 328.699514 31.173013 
L 329.604625 30.741066 
L 329.830902 31.014918 
L 330.05718 30.994648 
L 330.736013 31.428951 
L 331.188568 30.9814 
L 331.414846 30.77616 
L 332.319956 31.275954 
L 332.546234 31.394924 
L 332.772512 31.659002 
L 332.998789 31.360431 
L 333.225067 31.392183 
L 333.451344 31.194636 
L 333.677622 31.382129 
L 334.356455 31.170133 
L 334.80901 31.540416 
L 335.714121 31.847773 
L 336.166676 31.694065 
L 336.392954 31.991975 
L 336.619231 31.876089 
L 336.845509 31.914574 
L 337.071787 31.620086 
L 337.298064 31.620593 
L 337.524342 31.779928 
L 338.203175 31.863102 
L 338.429452 32.061781 
L 338.882008 32.176837 
L 339.334563 32.254078 
L 339.560841 32.23405 
L 340.013396 32.019905 
L 340.239674 31.942037 
L 340.465951 32.279446 
L 341.144784 32.368939 
L 341.371062 32.183134 
L 341.597339 32.395358 
L 341.823617 32.272149 
L 342.50245 32.401086 
L 342.728728 32.38549 
L 342.955005 32.167872 
L 343.40756 32.214751 
L 343.633838 32.040977 
L 344.991504 32.10886 
L 345.217782 32.413304 
L 345.444059 32.490254 
L 345.670337 32.234357 
L 346.575447 32.425103 
L 346.801725 32.41958 
L 347.25428 32.714235 
L 347.706836 32.793471 
L 347.933113 32.676772 
L 348.385668 32.77924 
L 348.838224 33.031598 
L 349.064501 33.014558 
L 349.517057 33.185447 
L 349.743334 33.082453 
L 350.648445 33.252989 
L 351.779833 33.118772 
L 352.006111 33.182976 
L 353.137499 32.619418 
L 353.363776 32.447674 
L 353.590054 32.416786 
L 353.816332 32.524935 
L 354.042609 32.477708 
L 354.495165 32.788632 
L 354.94772 32.754871 
L 355.173997 32.880667 
L 355.85283 32.687904 
L 356.079108 32.598111 
L 356.531663 32.710452 
L 356.984219 32.560199 
L 357.210496 32.746756 
L 358.115607 32.640729 
L 358.341884 32.678618 
L 358.79444 32.500357 
L 359.246995 32.36198 
L 359.473273 32.598893 
L 360.378383 32.628263 
L 361.283494 32.591701 
L 361.962327 32.55553 
L 362.188604 32.683331 
L 364.225103 32.602972 
L 364.677658 32.500538 
L 366.714157 32.529207 
L 367.39299 32.377962 
L 367.619267 32.491538 
L 368.2981 32.433542 
L 368.750656 32.534111 
L 369.882044 32.437695 
L 370.108321 32.462897 
L 370.560877 32.241186 
L 371.013432 32.392781 
L 371.23971 32.179204 
L 371.692265 32.165414 
L 371.918542 32.389621 
L 372.14482 32.395902 
L 372.597375 32.104166 
L 372.823653 32.215873 
L 373.502486 32.094706 
L 373.728764 32.109451 
L 373.955041 31.982032 
L 374.181319 32.034839 
L 374.633874 31.924757 
L 374.860152 32.010038 
L 375.99154 31.684065 
L 377.122928 31.855361 
L 377.575483 32.076642 
L 377.801761 32.063873 
L 378.028039 31.848895 
L 378.706872 31.790301 
L 378.933149 31.614176 
L 379.159427 31.586783 
L 379.611982 31.751455 
L 379.83826 31.543288 
L 381.195926 31.660055 
L 383.006147 31.201393 
L 384.59009 31.274084 
L 385.042645 31.249112 
L 385.495201 31.305637 
L 385.947756 31.218642 
L 386.400311 31.346551 
L 386.852866 31.128149 
L 387.984255 31.306025 
L 389.34192 31.261655 
L 390.020753 31.437328 
L 390.699586 31.31441 
L 391.604697 31.168517 
L 391.830974 30.962089 
L 392.509807 30.915578 
L 394.093751 30.437034 
L 394.320028 30.49803 
L 395.677694 30.208451 
L 396.809082 30.708367 
L 397.487915 30.445148 
L 397.714193 30.537149 
L 397.940471 30.486701 
L 398.393026 30.817088 
L 398.619303 30.690033 
L 399.524414 30.79165 
L 399.976969 30.607522 
L 401.78719 30.760738 
L 402.239746 30.802809 
L 403.597411 30.727094 
L 404.049967 30.828103 
L 404.276244 30.796062 
L 404.7288 30.898326 
L 406.991576 30.517892 
L 407.217854 30.576449 
L 408.122964 30.406855 
L 408.575519 30.462331 
L 408.801797 30.300608 
L 409.028075 30.350443 
L 409.48063 30.226485 
L 409.706908 30.164704 
L 410.38574 30.296828 
L 410.612018 30.220554 
L 411.064573 30.280358 
L 411.969684 29.931858 
L 412.195962 29.968719 
L 412.874794 29.735972 
L 413.779905 29.882335 
L 414.006183 29.758397 
L 414.458738 29.989874 
L 416.268959 29.228949 
L 416.495237 29.182411 
L 416.947792 29.39365 
L 417.626625 29.524061 
L 418.07918 29.348984 
L 418.305458 29.330482 
L 418.758013 29.047613 
L 418.984291 29.079223 
L 419.210568 28.980423 
L 419.663124 29.015796 
L 419.889401 28.850776 
L 420.341956 28.744859 
L 420.568234 28.6493 
L 421.020789 28.829886 
L 421.699622 28.861292 
L 422.378455 28.949637 
L 422.83101 28.865685 
L 423.283566 29.074363 
L 423.736121 29.043919 
L 424.641231 28.919488 
L 427.809118 29.362939 
L 428.035396 29.325402 
L 428.261674 29.42071 
L 428.940507 29.366095 
L 430.52445 29.516547 
L 430.750728 29.60621 
L 431.203283 29.355713 
L 431.882116 29.510429 
L 432.334671 29.51952 
L 432.787226 29.406374 
L 433.692337 29.53724 
L 434.37117 29.692849 
L 434.823725 29.606671 
L 435.502558 29.466799 
L 435.728836 29.370195 
L 436.181391 29.409633 
L 437.312779 29.355194 
L 437.539057 29.4786 
L 438.444167 29.331155 
L 438.896722 29.404902 
L 439.575555 29.311974 
L 440.028111 29.452315 
L 440.480666 29.439118 
L 440.706944 29.567121 
L 440.933221 29.566061 
L 441.159499 29.708367 
L 441.612054 29.744973 
L 442.064609 29.888956 
L 442.96972 29.61765 
L 443.195998 29.701297 
L 443.422275 29.657879 
L 444.101108 29.840281 
L 444.779941 29.590358 
L 445.685052 29.962566 
L 446.137607 29.819459 
L 447.042717 29.991779 
L 448.400383 29.995063 
L 448.852938 29.939607 
L 449.531771 30.053001 
L 450.210604 29.927636 
L 451.115715 30.052533 
L 452.473381 30.004008 
L 453.152214 29.992232 
L 454.057324 30.013076 
L 454.736157 30.179129 
L 455.41499 30.080516 
L 455.641268 29.949474 
L 455.867545 30.063013 
L 456.3201 29.940912 
L 456.546378 30.08542 
L 456.998933 30.119372 
L 457.225211 30.250434 
L 457.677766 30.16736 
L 457.904044 30.241503 
L 458.809154 30.088697 
L 459.26171 30.091414 
L 459.487987 30.147806 
L 460.16682 29.986305 
L 460.393098 30.085272 
L 460.845653 30.027069 
L 461.524486 29.91095 
L 461.977041 29.883014 
L 462.429597 29.896441 
L 463.108429 29.768091 
L 464.01354 29.868565 
L 464.466095 30.052258 
L 465.144928 29.862051 
L 465.597483 29.847984 
L 466.050039 29.924943 
L 466.276316 29.918208 
L 466.728872 29.717578 
L 468.539093 29.605213 
L 468.991648 29.594509 
L 471.480702 29.167653 
L 471.933257 29.267133 
L 472.838368 29.367505 
L 473.290923 29.259501 
L 474.648589 29.272665 
L 475.327422 29.196007 
L 476.232532 29.290295 
L 476.685088 29.317564 
L 477.816476 29.69376 
L 478.495309 29.624111 
L 479.174142 29.701939 
L 480.984363 29.478931 
L 481.889473 29.235861 
L 483.699694 29.325694 
L 484.15225 29.171426 
L 484.831082 29.071445 
L 485.736193 29.161894 
L 486.867581 29.020732 
L 488.451525 29.153758 
L 489.130358 29.191056 
L 490.035468 29.259188 
L 490.488023 29.373889 
L 491.166856 29.331315 
L 491.393134 29.391029 
L 492.298244 29.184239 
L 493.429633 29.303047 
L 494.561021 29.184593 
L 494.787298 29.267376 
L 496.144964 28.999296 
L 496.823797 28.948024 
L 497.276352 28.892734 
L 497.50263 28.948097 
L 497.955185 28.794923 
L 498.181463 28.745695 
L 498.634018 28.824843 
L 499.086573 28.764039 
L 499.765406 28.872988 
L 500.444239 28.767796 
L 504.743514 28.945014 
L 507.232568 28.9936 
L 507.911401 28.944332 
L 508.816512 28.969837 
L 509.269067 28.984235 
L 509.721622 28.906912 
L 510.174178 28.883502 
L 510.400455 28.779961 
L 510.85301 28.801356 
L 512.663232 28.683747 
L 513.79462 28.6476 
L 515.831118 28.532211 
L 516.283674 28.599844 
L 516.962507 28.739951 
L 518.093895 28.577733 
L 521.714337 28.481518 
L 522.619448 28.533387 
L 523.072003 28.467319 
L 528.276388 28.53835 
L 529.634054 28.697953 
L 530.99172 28.612214 
L 531.444275 28.545855 
L 532.349386 28.544831 
L 533.254496 28.602403 
L 533.707052 28.593756 
L 534.385885 28.678453 
L 535.064717 28.680747 
L 535.517273 28.685906 
L 535.517273 28.685906 
" style="fill:none;stroke:#1f77b4;stroke-linecap:square;stroke-width:1.5;"/>
   </g>
  </g>
 </g>
 <defs>
  <clipPath id="p5f42759c91">
   <rect height="237.56" width="502.54" x="55.82" y="17.64"/>
  </clipPath>
 </defs>
</svg>
