<?xml version="1.0" encoding="utf-8" standalone="no"?>
<!DOCTYPE svg PUBLIC "-//W3C//DTD SVG 1.1//EN"
  "http://www.w3.org/Graphics/SVG/1.1/DTD/svg11.dtd">
<!-- Created with matplotlib (https://matplotlib.org/) -->
<svg height="288pt" version="1.1" viewBox="0 0 576 288" width="576pt" xmlns="http://www.w3.org/2000/svg" xmlns:xlink="http://www.w3.org/1999/xlink">
 <defs>
  <style type="text/css">
*{stroke-linecap:butt;stroke-linejoin:round;}
  </style>
 </defs>
 <g id="figure_1">
  <g id="patch_1">
   <path d="M 0 288 
L 576 288 
L 576 0 
L 0 0 
z
" style="fill:#ffffff;"/>
  </g>
  <g id="axes_1">
   <g id="patch_2">
    <path d="M 32.8 255.2 
L 558.36 255.2 
L 558.36 17.64 
L 32.8 17.64 
z
" style="fill:#ffffff;"/>
   </g>
   <g id="patch_3">
    <path clip-path="url(#pb43796a271)" d="M 56.689091 255.2 
L 61.466909 255.2 
L 61.466909 254.285868 
L 56.689091 254.285868 
z
" style="fill:#1f77b4;opacity:0.5;"/>
   </g>
   <g id="patch_4">
    <path clip-path="url(#pb43796a271)" d="M 61.466909 255.2 
L 66.244727 255.2 
L 66.244727 249.715209 
L 61.466909 249.715209 
z
" style="fill:#1f77b4;opacity:0.5;"/>
   </g>
   <g id="patch_5">
    <path clip-path="url(#pb43796a271)" d="M 66.244727 255.2 
L 71.022545 255.2 
L 71.022545 236.003232 
L 66.244727 236.003232 
z
" style="fill:#1f77b4;opacity:0.5;"/>
   </g>
   <g id="patch_6">
    <path clip-path="url(#pb43796a271)" d="M 71.022545 255.2 
L 75.800364 255.2 
L 75.800364 223.662453 
L 71.022545 223.662453 
z
" style="fill:#1f77b4;opacity:0.5;"/>
   </g>
   <g id="patch_7">
    <path clip-path="url(#pb43796a271)" d="M 75.800364 255.2 
L 80.578182 255.2 
L 80.578182 198.980895 
L 75.800364 198.980895 
z
" style="fill:#1f77b4;opacity:0.5;"/>
   </g>
   <g id="patch_8">
    <path clip-path="url(#pb43796a271)" d="M 80.578182 255.2 
L 85.356 255.2 
L 85.356 163.329755 
L 80.578182 163.329755 
z
" style="fill:#1f77b4;opacity:0.5;"/>
   </g>
   <g id="patch_9">
    <path clip-path="url(#pb43796a271)" d="M 85.356 255.2 
L 90.133818 255.2 
L 90.133818 133.620471 
L 85.356 133.620471 
z
" style="fill:#1f77b4;opacity:0.5;"/>
   </g>
   <g id="patch_10">
    <path clip-path="url(#pb43796a271)" d="M 90.133818 255.2 
L 94.911636 255.2 
L 94.911636 116.251967 
L 90.133818 116.251967 
z
" style="fill:#1f77b4;opacity:0.5;"/>
   </g>
   <g id="patch_11">
    <path clip-path="url(#pb43796a271)" d="M 94.911636 255.2 
L 99.689455 255.2 
L 99.689455 71.002443 
L 94.911636 71.002443 
z
" style="fill:#1f77b4;opacity:0.5;"/>
   </g>
   <g id="patch_12">
    <path clip-path="url(#pb43796a271)" d="M 99.689455 255.2 
L 104.467273 255.2 
L 104.467273 68.260048 
L 99.689455 68.260048 
z
" style="fill:#1f77b4;opacity:0.5;"/>
   </g>
   <g id="patch_13">
    <path clip-path="url(#pb43796a271)" d="M 104.467273 255.2 
L 109.245091 255.2 
L 109.245091 37.179567 
L 104.467273 37.179567 
z
" style="fill:#1f77b4;opacity:0.5;"/>
   </g>
   <g id="patch_14">
    <path clip-path="url(#pb43796a271)" d="M 109.245091 255.2 
L 114.022909 255.2 
L 114.022909 42.664358 
L 109.245091 42.664358 
z
" style="fill:#1f77b4;opacity:0.5;"/>
   </g>
   <g id="patch_15">
    <path clip-path="url(#pb43796a271)" d="M 114.022909 255.2 
L 118.800727 255.2 
L 118.800727 39.007831 
L 114.022909 39.007831 
z
" style="fill:#1f77b4;opacity:0.5;"/>
   </g>
   <g id="patch_16">
    <path clip-path="url(#pb43796a271)" d="M 118.800727 255.2 
L 123.578545 255.2 
L 123.578545 30.780645 
L 118.800727 30.780645 
z
" style="fill:#1f77b4;opacity:0.5;"/>
   </g>
   <g id="patch_17">
    <path clip-path="url(#pb43796a271)" d="M 123.578545 255.2 
L 128.356364 255.2 
L 128.356364 43.121424 
L 123.578545 43.121424 
z
" style="fill:#1f77b4;opacity:0.5;"/>
   </g>
   <g id="patch_18">
    <path clip-path="url(#pb43796a271)" d="M 128.356364 255.2 
L 133.134182 255.2 
L 133.134182 28.952381 
L 128.356364 28.952381 
z
" style="fill:#1f77b4;opacity:0.5;"/>
   </g>
   <g id="patch_19">
    <path clip-path="url(#pb43796a271)" d="M 133.134182 255.2 
L 137.912 255.2 
L 137.912 47.235017 
L 133.134182 47.235017 
z
" style="fill:#1f77b4;opacity:0.5;"/>
   </g>
   <g id="patch_20">
    <path clip-path="url(#pb43796a271)" d="M 137.912 255.2 
L 142.689818 255.2 
L 142.689818 59.11873 
L 137.912 59.11873 
z
" style="fill:#1f77b4;opacity:0.5;"/>
   </g>
   <g id="patch_21">
    <path clip-path="url(#pb43796a271)" d="M 142.689818 255.2 
L 147.467636 255.2 
L 147.467636 58.661664 
L 142.689818 58.661664 
z
" style="fill:#1f77b4;opacity:0.5;"/>
   </g>
   <g id="patch_22">
    <path clip-path="url(#pb43796a271)" d="M 147.467636 255.2 
L 152.245455 255.2 
L 152.245455 101.625859 
L 147.467636 101.625859 
z
" style="fill:#1f77b4;opacity:0.5;"/>
   </g>
   <g id="patch_23">
    <path clip-path="url(#pb43796a271)" d="M 152.245455 255.2 
L 157.023273 255.2 
L 157.023273 71.002443 
L 152.245455 71.002443 
z
" style="fill:#1f77b4;opacity:0.5;"/>
   </g>
   <g id="patch_24">
    <path clip-path="url(#pb43796a271)" d="M 157.023273 255.2 
L 161.801091 255.2 
L 161.801091 109.853045 
L 157.023273 109.853045 
z
" style="fill:#1f77b4;opacity:0.5;"/>
   </g>
   <g id="patch_25">
    <path clip-path="url(#pb43796a271)" d="M 161.801091 255.2 
L 166.578909 255.2 
L 166.578909 118.994363 
L 161.801091 118.994363 
z
" style="fill:#1f77b4;opacity:0.5;"/>
   </g>
   <g id="patch_26">
    <path clip-path="url(#pb43796a271)" d="M 166.578909 255.2 
L 171.356727 255.2 
L 171.356727 140.47646 
L 166.578909 140.47646 
z
" style="fill:#1f77b4;opacity:0.5;"/>
   </g>
   <g id="patch_27">
    <path clip-path="url(#pb43796a271)" d="M 171.356727 255.2 
L 176.134545 255.2 
L 176.134545 140.933526 
L 171.356727 140.933526 
z
" style="fill:#1f77b4;opacity:0.5;"/>
   </g>
   <g id="patch_28">
    <path clip-path="url(#pb43796a271)" d="M 176.134545 255.2 
L 180.912364 255.2 
L 180.912364 152.360173 
L 176.134545 152.360173 
z
" style="fill:#1f77b4;opacity:0.5;"/>
   </g>
   <g id="patch_29">
    <path clip-path="url(#pb43796a271)" d="M 180.912364 255.2 
L 185.690182 255.2 
L 185.690182 163.786821 
L 180.912364 163.786821 
z
" style="fill:#1f77b4;opacity:0.5;"/>
   </g>
   <g id="patch_30">
    <path clip-path="url(#pb43796a271)" d="M 185.690182 255.2 
L 190.468 255.2 
L 190.468 177.955863 
L 185.690182 177.955863 
z
" style="fill:#1f77b4;opacity:0.5;"/>
   </g>
   <g id="patch_31">
    <path clip-path="url(#pb43796a271)" d="M 190.468 255.2 
L 195.245818 255.2 
L 195.245818 183.440654 
L 190.468 183.440654 
z
" style="fill:#1f77b4;opacity:0.5;"/>
   </g>
   <g id="patch_32">
    <path clip-path="url(#pb43796a271)" d="M 195.245818 255.2 
L 200.023636 255.2 
L 200.023636 188.011313 
L 195.245818 188.011313 
z
" style="fill:#1f77b4;opacity:0.5;"/>
   </g>
   <g id="patch_33">
    <path clip-path="url(#pb43796a271)" d="M 200.023636 255.2 
L 204.801455 255.2 
L 204.801455 194.410236 
L 200.023636 194.410236 
z
" style="fill:#1f77b4;opacity:0.5;"/>
   </g>
   <g id="patch_34">
    <path clip-path="url(#pb43796a271)" d="M 204.801455 255.2 
L 209.579273 255.2 
L 209.579273 204.922751 
L 204.801455 204.922751 
z
" style="fill:#1f77b4;opacity:0.5;"/>
   </g>
   <g id="patch_35">
    <path clip-path="url(#pb43796a271)" d="M 209.579273 255.2 
L 214.357091 255.2 
L 214.357091 215.892333 
L 209.579273 215.892333 
z
" style="fill:#1f77b4;opacity:0.5;"/>
   </g>
   <g id="patch_36">
    <path clip-path="url(#pb43796a271)" d="M 214.357091 255.2 
L 219.134909 255.2 
L 219.134909 211.321674 
L 214.357091 211.321674 
z
" style="fill:#1f77b4;opacity:0.5;"/>
   </g>
   <g id="patch_37">
    <path clip-path="url(#pb43796a271)" d="M 219.134909 255.2 
L 223.912727 255.2 
L 223.912727 218.634728 
L 219.134909 218.634728 
z
" style="fill:#1f77b4;opacity:0.5;"/>
   </g>
   <g id="patch_38">
    <path clip-path="url(#pb43796a271)" d="M 223.912727 255.2 
L 228.690545 255.2 
L 228.690545 214.978201 
L 223.912727 214.978201 
z
" style="fill:#1f77b4;opacity:0.5;"/>
   </g>
   <g id="patch_39">
    <path clip-path="url(#pb43796a271)" d="M 228.690545 255.2 
L 233.468364 255.2 
L 233.468364 219.54886 
L 228.690545 219.54886 
z
" style="fill:#1f77b4;opacity:0.5;"/>
   </g>
   <g id="patch_40">
    <path clip-path="url(#pb43796a271)" d="M 233.468364 255.2 
L 238.246182 255.2 
L 238.246182 222.748321 
L 233.468364 222.748321 
z
" style="fill:#1f77b4;opacity:0.5;"/>
   </g>
   <g id="patch_41">
    <path clip-path="url(#pb43796a271)" d="M 238.246182 255.2 
L 243.024 255.2 
L 243.024 231.432573 
L 238.246182 231.432573 
z
" style="fill:#1f77b4;opacity:0.5;"/>
   </g>
   <g id="patch_42">
    <path clip-path="url(#pb43796a271)" d="M 243.024 255.2 
L 247.801818 255.2 
L 247.801818 230.061376 
L 243.024 230.061376 
z
" style="fill:#1f77b4;opacity:0.5;"/>
   </g>
   <g id="patch_43">
    <path clip-path="url(#pb43796a271)" d="M 247.801818 255.2 
L 252.579636 255.2 
L 252.579636 236.460298 
L 247.801818 236.460298 
z
" style="fill:#1f77b4;opacity:0.5;"/>
   </g>
   <g id="patch_44">
    <path clip-path="url(#pb43796a271)" d="M 252.579636 255.2 
L 257.357455 255.2 
L 257.357455 236.460298 
L 252.579636 236.460298 
z
" style="fill:#1f77b4;opacity:0.5;"/>
   </g>
   <g id="patch_45">
    <path clip-path="url(#pb43796a271)" d="M 257.357455 255.2 
L 262.135273 255.2 
L 262.135273 241.030957 
L 257.357455 241.030957 
z
" style="fill:#1f77b4;opacity:0.5;"/>
   </g>
   <g id="patch_46">
    <path clip-path="url(#pb43796a271)" d="M 262.135273 255.2 
L 266.913091 255.2 
L 266.913091 239.659759 
L 262.135273 239.659759 
z
" style="fill:#1f77b4;opacity:0.5;"/>
   </g>
   <g id="patch_47">
    <path clip-path="url(#pb43796a271)" d="M 266.913091 255.2 
L 271.690909 255.2 
L 271.690909 245.14455 
L 266.913091 245.14455 
z
" style="fill:#1f77b4;opacity:0.5;"/>
   </g>
   <g id="patch_48">
    <path clip-path="url(#pb43796a271)" d="M 271.690909 255.2 
L 276.468727 255.2 
L 276.468727 243.316287 
L 271.690909 243.316287 
z
" style="fill:#1f77b4;opacity:0.5;"/>
   </g>
   <g id="patch_49">
    <path clip-path="url(#pb43796a271)" d="M 276.468727 255.2 
L 281.246545 255.2 
L 281.246545 246.515748 
L 276.468727 246.515748 
z
" style="fill:#1f77b4;opacity:0.5;"/>
   </g>
   <g id="patch_50">
    <path clip-path="url(#pb43796a271)" d="M 281.246545 255.2 
L 286.024364 255.2 
L 286.024364 245.601616 
L 281.246545 245.601616 
z
" style="fill:#1f77b4;opacity:0.5;"/>
   </g>
   <g id="patch_51">
    <path clip-path="url(#pb43796a271)" d="M 286.024364 255.2 
L 290.802182 255.2 
L 290.802182 247.42988 
L 286.024364 247.42988 
z
" style="fill:#1f77b4;opacity:0.5;"/>
   </g>
   <g id="patch_52">
    <path clip-path="url(#pb43796a271)" d="M 290.802182 255.2 
L 295.58 255.2 
L 295.58 247.886946 
L 290.802182 247.886946 
z
" style="fill:#1f77b4;opacity:0.5;"/>
   </g>
   <g id="patch_53">
    <path clip-path="url(#pb43796a271)" d="M 295.58 255.2 
L 300.357818 255.2 
L 300.357818 250.172275 
L 295.58 250.172275 
z
" style="fill:#1f77b4;opacity:0.5;"/>
   </g>
   <g id="patch_54">
    <path clip-path="url(#pb43796a271)" d="M 300.357818 255.2 
L 305.135636 255.2 
L 305.135636 248.801077 
L 300.357818 248.801077 
z
" style="fill:#1f77b4;opacity:0.5;"/>
   </g>
   <g id="patch_55">
    <path clip-path="url(#pb43796a271)" d="M 305.135636 255.2 
L 309.913455 255.2 
L 309.913455 251.543473 
L 305.135636 251.543473 
z
" style="fill:#1f77b4;opacity:0.5;"/>
   </g>
   <g id="patch_56">
    <path clip-path="url(#pb43796a271)" d="M 309.913455 255.2 
L 314.691273 255.2 
L 314.691273 251.543473 
L 309.913455 251.543473 
z
" style="fill:#1f77b4;opacity:0.5;"/>
   </g>
   <g id="patch_57">
    <path clip-path="url(#pb43796a271)" d="M 314.691273 255.2 
L 319.469091 255.2 
L 319.469091 249.258143 
L 314.691273 249.258143 
z
" style="fill:#1f77b4;opacity:0.5;"/>
   </g>
   <g id="patch_58">
    <path clip-path="url(#pb43796a271)" d="M 319.469091 255.2 
L 324.246909 255.2 
L 324.246909 249.258143 
L 319.469091 249.258143 
z
" style="fill:#1f77b4;opacity:0.5;"/>
   </g>
   <g id="patch_59">
    <path clip-path="url(#pb43796a271)" d="M 324.246909 255.2 
L 329.024727 255.2 
L 329.024727 251.086407 
L 324.246909 251.086407 
z
" style="fill:#1f77b4;opacity:0.5;"/>
   </g>
   <g id="patch_60">
    <path clip-path="url(#pb43796a271)" d="M 329.024727 255.2 
L 333.802545 255.2 
L 333.802545 252.000539 
L 329.024727 252.000539 
z
" style="fill:#1f77b4;opacity:0.5;"/>
   </g>
   <g id="patch_61">
    <path clip-path="url(#pb43796a271)" d="M 333.802545 255.2 
L 338.580364 255.2 
L 338.580364 254.285868 
L 333.802545 254.285868 
z
" style="fill:#1f77b4;opacity:0.5;"/>
   </g>
   <g id="patch_62">
    <path clip-path="url(#pb43796a271)" d="M 338.580364 255.2 
L 343.358182 255.2 
L 343.358182 252.457605 
L 338.580364 252.457605 
z
" style="fill:#1f77b4;opacity:0.5;"/>
   </g>
   <g id="patch_63">
    <path clip-path="url(#pb43796a271)" d="M 343.358182 255.2 
L 348.136 255.2 
L 348.136 253.371736 
L 343.358182 253.371736 
z
" style="fill:#1f77b4;opacity:0.5;"/>
   </g>
   <g id="patch_64">
    <path clip-path="url(#pb43796a271)" d="M 348.136 255.2 
L 352.913818 255.2 
L 352.913818 254.285868 
L 348.136 254.285868 
z
" style="fill:#1f77b4;opacity:0.5;"/>
   </g>
   <g id="patch_65">
    <path clip-path="url(#pb43796a271)" d="M 352.913818 255.2 
L 357.691636 255.2 
L 357.691636 254.285868 
L 352.913818 254.285868 
z
" style="fill:#1f77b4;opacity:0.5;"/>
   </g>
   <g id="patch_66">
    <path clip-path="url(#pb43796a271)" d="M 357.691636 255.2 
L 362.469455 255.2 
L 362.469455 255.2 
L 357.691636 255.2 
z
" style="fill:#1f77b4;opacity:0.5;"/>
   </g>
   <g id="patch_67">
    <path clip-path="url(#pb43796a271)" d="M 362.469455 255.2 
L 367.247273 255.2 
L 367.247273 254.285868 
L 362.469455 254.285868 
z
" style="fill:#1f77b4;opacity:0.5;"/>
   </g>
   <g id="patch_68">
    <path clip-path="url(#pb43796a271)" d="M 367.247273 255.2 
L 372.025091 255.2 
L 372.025091 254.742934 
L 367.247273 254.742934 
z
" style="fill:#1f77b4;opacity:0.5;"/>
   </g>
   <g id="patch_69">
    <path clip-path="url(#pb43796a271)" d="M 372.025091 255.2 
L 376.802909 255.2 
L 376.802909 254.285868 
L 372.025091 254.285868 
z
" style="fill:#1f77b4;opacity:0.5;"/>
   </g>
   <g id="patch_70">
    <path clip-path="url(#pb43796a271)" d="M 376.802909 255.2 
L 381.580727 255.2 
L 381.580727 255.2 
L 376.802909 255.2 
z
" style="fill:#1f77b4;opacity:0.5;"/>
   </g>
   <g id="patch_71">
    <path clip-path="url(#pb43796a271)" d="M 381.580727 255.2 
L 386.358545 255.2 
L 386.358545 253.828802 
L 381.580727 253.828802 
z
" style="fill:#1f77b4;opacity:0.5;"/>
   </g>
   <g id="patch_72">
    <path clip-path="url(#pb43796a271)" d="M 386.358545 255.2 
L 391.136364 255.2 
L 391.136364 254.285868 
L 386.358545 254.285868 
z
" style="fill:#1f77b4;opacity:0.5;"/>
   </g>
   <g id="patch_73">
    <path clip-path="url(#pb43796a271)" d="M 391.136364 255.2 
L 395.914182 255.2 
L 395.914182 255.2 
L 391.136364 255.2 
z
" style="fill:#1f77b4;opacity:0.5;"/>
   </g>
   <g id="patch_74">
    <path clip-path="url(#pb43796a271)" d="M 395.914182 255.2 
L 400.692 255.2 
L 400.692 254.742934 
L 395.914182 254.742934 
z
" style="fill:#1f77b4;opacity:0.5;"/>
   </g>
   <g id="patch_75">
    <path clip-path="url(#pb43796a271)" d="M 400.692 255.2 
L 405.469818 255.2 
L 405.469818 254.285868 
L 400.692 254.285868 
z
" style="fill:#1f77b4;opacity:0.5;"/>
   </g>
   <g id="patch_76">
    <path clip-path="url(#pb43796a271)" d="M 405.469818 255.2 
L 410.247636 255.2 
L 410.247636 254.742934 
L 405.469818 254.742934 
z
" style="fill:#1f77b4;opacity:0.5;"/>
   </g>
   <g id="patch_77">
    <path clip-path="url(#pb43796a271)" d="M 410.247636 255.2 
L 415.025455 255.2 
L 415.025455 255.2 
L 410.247636 255.2 
z
" style="fill:#1f77b4;opacity:0.5;"/>
   </g>
   <g id="patch_78">
    <path clip-path="url(#pb43796a271)" d="M 415.025455 255.2 
L 419.803273 255.2 
L 419.803273 255.2 
L 415.025455 255.2 
z
" style="fill:#1f77b4;opacity:0.5;"/>
   </g>
   <g id="patch_79">
    <path clip-path="url(#pb43796a271)" d="M 419.803273 255.2 
L 424.581091 255.2 
L 424.581091 255.2 
L 419.803273 255.2 
z
" style="fill:#1f77b4;opacity:0.5;"/>
   </g>
   <g id="patch_80">
    <path clip-path="url(#pb43796a271)" d="M 424.581091 255.2 
L 429.358909 255.2 
L 429.358909 254.742934 
L 424.581091 254.742934 
z
" style="fill:#1f77b4;opacity:0.5;"/>
   </g>
   <g id="patch_81">
    <path clip-path="url(#pb43796a271)" d="M 429.358909 255.2 
L 434.136727 255.2 
L 434.136727 254.742934 
L 429.358909 254.742934 
z
" style="fill:#1f77b4;opacity:0.5;"/>
   </g>
   <g id="patch_82">
    <path clip-path="url(#pb43796a271)" d="M 434.136727 255.2 
L 438.914545 255.2 
L 438.914545 255.2 
L 434.136727 255.2 
z
" style="fill:#1f77b4;opacity:0.5;"/>
   </g>
   <g id="patch_83">
    <path clip-path="url(#pb43796a271)" d="M 438.914545 255.2 
L 443.692364 255.2 
L 443.692364 255.2 
L 438.914545 255.2 
z
" style="fill:#1f77b4;opacity:0.5;"/>
   </g>
   <g id="patch_84">
    <path clip-path="url(#pb43796a271)" d="M 443.692364 255.2 
L 448.470182 255.2 
L 448.470182 255.2 
L 443.692364 255.2 
z
" style="fill:#1f77b4;opacity:0.5;"/>
   </g>
   <g id="patch_85">
    <path clip-path="url(#pb43796a271)" d="M 448.470182 255.2 
L 453.248 255.2 
L 453.248 255.2 
L 448.470182 255.2 
z
" style="fill:#1f77b4;opacity:0.5;"/>
   </g>
   <g id="patch_86">
    <path clip-path="url(#pb43796a271)" d="M 453.248 255.2 
L 458.025818 255.2 
L 458.025818 254.742934 
L 453.248 254.742934 
z
" style="fill:#1f77b4;opacity:0.5;"/>
   </g>
   <g id="patch_87">
    <path clip-path="url(#pb43796a271)" d="M 458.025818 255.2 
L 462.803636 255.2 
L 462.803636 255.2 
L 458.025818 255.2 
z
" style="fill:#1f77b4;opacity:0.5;"/>
   </g>
   <g id="patch_88">
    <path clip-path="url(#pb43796a271)" d="M 462.803636 255.2 
L 467.581455 255.2 
L 467.581455 255.2 
L 462.803636 255.2 
z
" style="fill:#1f77b4;opacity:0.5;"/>
   </g>
   <g id="patch_89">
    <path clip-path="url(#pb43796a271)" d="M 467.581455 255.2 
L 472.359273 255.2 
L 472.359273 255.2 
L 467.581455 255.2 
z
" style="fill:#1f77b4;opacity:0.5;"/>
   </g>
   <g id="patch_90">
    <path clip-path="url(#pb43796a271)" d="M 472.359273 255.2 
L 477.137091 255.2 
L 477.137091 254.742934 
L 472.359273 254.742934 
z
" style="fill:#1f77b4;opacity:0.5;"/>
   </g>
   <g id="patch_91">
    <path clip-path="url(#pb43796a271)" d="M 477.137091 255.2 
L 481.914909 255.2 
L 481.914909 255.2 
L 477.137091 255.2 
z
" style="fill:#1f77b4;opacity:0.5;"/>
   </g>
   <g id="patch_92">
    <path clip-path="url(#pb43796a271)" d="M 481.914909 255.2 
L 486.692727 255.2 
L 486.692727 255.2 
L 481.914909 255.2 
z
" style="fill:#1f77b4;opacity:0.5;"/>
   </g>
   <g id="patch_93">
    <path clip-path="url(#pb43796a271)" d="M 486.692727 255.2 
L 491.470545 255.2 
L 491.470545 255.2 
L 486.692727 255.2 
z
" style="fill:#1f77b4;opacity:0.5;"/>
   </g>
   <g id="patch_94">
    <path clip-path="url(#pb43796a271)" d="M 491.470545 255.2 
L 496.248364 255.2 
L 496.248364 255.2 
L 491.470545 255.2 
z
" style="fill:#1f77b4;opacity:0.5;"/>
   </g>
   <g id="patch_95">
    <path clip-path="url(#pb43796a271)" d="M 496.248364 255.2 
L 501.026182 255.2 
L 501.026182 254.742934 
L 496.248364 254.742934 
z
" style="fill:#1f77b4;opacity:0.5;"/>
   </g>
   <g id="patch_96">
    <path clip-path="url(#pb43796a271)" d="M 501.026182 255.2 
L 505.804 255.2 
L 505.804 255.2 
L 501.026182 255.2 
z
" style="fill:#1f77b4;opacity:0.5;"/>
   </g>
   <g id="patch_97">
    <path clip-path="url(#pb43796a271)" d="M 505.804 255.2 
L 510.581818 255.2 
L 510.581818 255.2 
L 505.804 255.2 
z
" style="fill:#1f77b4;opacity:0.5;"/>
   </g>
   <g id="patch_98">
    <path clip-path="url(#pb43796a271)" d="M 510.581818 255.2 
L 515.359636 255.2 
L 515.359636 255.2 
L 510.581818 255.2 
z
" style="fill:#1f77b4;opacity:0.5;"/>
   </g>
   <g id="patch_99">
    <path clip-path="url(#pb43796a271)" d="M 515.359636 255.2 
L 520.137455 255.2 
L 520.137455 255.2 
L 515.359636 255.2 
z
" style="fill:#1f77b4;opacity:0.5;"/>
   </g>
   <g id="patch_100">
    <path clip-path="url(#pb43796a271)" d="M 520.137455 255.2 
L 524.915273 255.2 
L 524.915273 255.2 
L 520.137455 255.2 
z
" style="fill:#1f77b4;opacity:0.5;"/>
   </g>
   <g id="patch_101">
    <path clip-path="url(#pb43796a271)" d="M 524.915273 255.2 
L 529.693091 255.2 
L 529.693091 255.2 
L 524.915273 255.2 
z
" style="fill:#1f77b4;opacity:0.5;"/>
   </g>
   <g id="patch_102">
    <path clip-path="url(#pb43796a271)" d="M 529.693091 255.2 
L 534.470909 255.2 
L 534.470909 254.742934 
L 529.693091 254.742934 
z
" style="fill:#1f77b4;opacity:0.5;"/>
   </g>
   <g id="matplotlib.axis_1">
    <g id="xtick_1">
     <g id="line2d_1">
      <path clip-path="url(#pb43796a271)" d="M 41.051412 255.2 
L 41.051412 17.64 
" style="fill:none;stroke:#b0b0b0;stroke-dasharray:1.48,0.64;stroke-dashoffset:0;stroke-width:0.4;"/>
     </g>
    </g>
    <g id="xtick_2">
     <g id="line2d_2">
      <path clip-path="url(#pb43796a271)" d="M 145.689948 255.2 
L 145.689948 17.64 
" style="fill:none;stroke:#b0b0b0;stroke-dasharray:1.48,0.64;stroke-dashoffset:0;stroke-width:0.4;"/>
     </g>
    </g>
    <g id="xtick_3">
     <g id="line2d_3">
      <path clip-path="url(#pb43796a271)" d="M 250.328484 255.2 
L 250.328484 17.64 
" style="fill:none;stroke:#b0b0b0;stroke-dasharray:1.48,0.64;stroke-dashoffset:0;stroke-width:0.4;"/>
     </g>
    </g>
    <g id="xtick_4">
     <g id="line2d_4">
      <path clip-path="url(#pb43796a271)" d="M 354.96702 255.2 
L 354.96702 17.64 
" style="fill:none;stroke:#b0b0b0;stroke-dasharray:1.48,0.64;stroke-dashoffset:0;stroke-width:0.4;"/>
     </g>
    </g>
    <g id="xtick_5">
     <g id="line2d_5">
      <path clip-path="url(#pb43796a271)" d="M 459.605555 255.2 
L 459.605555 17.64 
" style="fill:none;stroke:#b0b0b0;stroke-dasharray:1.48,0.64;stroke-dashoffset:0;stroke-width:0.4;"/>
     </g>
    </g>
    <g id="text_1">
     <!-- размер дохода -->
     <defs>
      <path d="M 42.140625 26.65625 
Q 42.140625 20.65625 41.359375 15.578125 
Q 40.578125 10.5 38.6875 6.828125 
Q 36.8125 3.171875 33.765625 1.09375 
Q 30.71875 -0.984375 26.21875 -0.984375 
Q 21.578125 -0.984375 18.078125 1.171875 
Q 14.59375 3.328125 12.796875 8.203125 
L 12.546875 8.203125 
Q 12.59375 8.109375 12.609375 7.328125 
Q 12.640625 6.546875 12.671875 5.375 
Q 12.703125 4.203125 12.71875 2.75 
Q 12.75 1.3125 12.75 -0.09375 
L 12.75 -20.75 
L 5.515625 -20.75 
L 5.515625 42.046875 
Q 5.515625 43.953125 5.484375 45.703125 
Q 5.46875 47.46875 5.4375 48.90625 
Q 5.421875 50.34375 5.375 51.359375 
Q 5.328125 52.390625 5.28125 52.828125 
L 12.25 52.828125 
Q 12.3125 52.6875 12.359375 51.8125 
L 12.5 49.703125 
Q 12.546875 48.4375 12.59375 47.015625 
Q 12.640625 45.609375 12.640625 44.34375 
L 12.796875 44.34375 
Q 13.765625 46.875 15.0625 48.65625 
Q 16.359375 50.4375 18.015625 51.578125 
Q 19.671875 52.734375 21.671875 53.25 
Q 23.6875 53.765625 26.21875 53.765625 
Q 30.71875 53.765625 33.765625 51.8125 
Q 36.8125 49.859375 38.6875 46.3125 
Q 40.578125 42.78125 41.359375 37.765625 
Q 42.140625 32.765625 42.140625 26.65625 
z
M 34.578125 26.46875 
Q 34.578125 31.34375 34.109375 35.15625 
Q 33.640625 38.96875 32.4375 41.59375 
Q 31.25 44.234375 29.296875 45.59375 
Q 27.34375 46.96875 24.359375 46.96875 
Q 21.96875 46.96875 19.84375 46.140625 
Q 17.71875 45.3125 16.125 42.96875 
Q 14.546875 40.625 13.640625 36.5 
Q 12.75 32.375 12.75 25.78125 
Q 12.75 20.171875 13.5 16.28125 
Q 14.265625 12.40625 15.71875 10.015625 
Q 17.1875 7.625 19.328125 6.5625 
Q 21.484375 5.515625 24.3125 5.515625 
Q 27.34375 5.515625 29.296875 6.921875 
Q 31.25 8.34375 32.4375 11.03125 
Q 33.640625 13.71875 34.109375 17.59375 
Q 34.578125 21.484375 34.578125 26.46875 
z
" id="LiberationSansNarrow-1088"/>
      <path d="M 16.546875 -0.984375 
Q 10.015625 -0.984375 6.734375 3.21875 
Q 3.46875 7.421875 3.46875 14.75 
Q 3.46875 19.96875 5.09375 23.3125 
Q 6.734375 26.65625 9.34375 28.5625 
Q 11.96875 30.46875 15.328125 31.203125 
Q 18.703125 31.9375 22.171875 32.03125 
L 31.9375 32.234375 
L 31.9375 35.109375 
Q 31.9375 38.375 31.375 40.671875 
Q 30.8125 42.96875 29.640625 44.375 
Q 28.46875 45.796875 26.734375 46.453125 
Q 25 47.125 22.609375 47.125 
Q 20.515625 47.125 18.84375 46.75 
Q 17.1875 46.390625 15.9375 45.4375 
Q 14.703125 44.484375 13.9375 42.84375 
Q 13.1875 41.21875 12.9375 38.71875 
L 5.421875 39.546875 
Q 5.8125 42.671875 6.9375 45.28125 
Q 8.0625 47.90625 10.109375 49.796875 
Q 12.15625 51.703125 15.25 52.75 
Q 18.359375 53.8125 22.796875 53.8125 
Q 30.953125 53.8125 35.078125 49.234375 
Q 39.203125 44.671875 39.203125 36.03125 
L 39.203125 13.28125 
Q 39.203125 9.375 40.03125 7.390625 
Q 40.875 5.421875 43.265625 5.421875 
Q 43.84375 5.421875 44.453125 5.515625 
Q 45.0625 5.609375 45.609375 5.765625 
L 45.609375 0.296875 
Q 44.234375 -0.09375 42.890625 -0.28125 
Q 41.546875 -0.484375 40.046875 -0.484375 
Q 37.984375 -0.484375 36.515625 0.171875 
Q 35.0625 0.828125 34.15625 2.171875 
Q 33.25 3.515625 32.765625 5.484375 
Q 32.28125 7.46875 32.125 10.109375 
L 31.9375 10.109375 
Q 30.765625 7.5625 29.375 5.515625 
Q 27.984375 3.46875 26.140625 2.03125 
Q 24.3125 0.59375 21.9375 -0.1875 
Q 19.578125 -0.984375 16.546875 -0.984375 
z
M 18.21875 5.609375 
Q 21.6875 5.609375 24.25 7.140625 
Q 26.8125 8.6875 28.515625 11.078125 
Q 30.21875 13.484375 31.078125 16.3125 
Q 31.9375 19.140625 31.9375 21.734375 
L 31.9375 26.078125 
L 24.03125 25.875 
Q 21.390625 25.828125 19 25.40625 
Q 16.609375 25 14.8125 23.78125 
Q 13.03125 22.5625 11.953125 20.359375 
Q 10.890625 18.171875 10.890625 14.59375 
Q 10.890625 10.296875 12.796875 7.953125 
Q 14.703125 5.609375 18.21875 5.609375 
z
" id="LiberationSansNarrow-1072"/>
      <path d="M 18.3125 -0.984375 
Q 11.625 -0.984375 7.6875 2.0625 
Q 3.765625 5.125 1.953125 11.421875 
L 8.296875 13.578125 
Q 9.28125 9.765625 11.8125 7.65625 
Q 14.359375 5.5625 18.453125 5.5625 
Q 22.3125 5.5625 24.578125 7.859375 
Q 26.859375 10.15625 26.859375 14.59375 
Q 26.859375 17.484375 25.734375 19.390625 
Q 24.609375 21.296875 22.78125 22.390625 
Q 20.953125 23.484375 18.546875 23.921875 
Q 16.15625 24.359375 13.578125 24.359375 
L 13.578125 31.0625 
Q 16.109375 31.0625 18.40625 31.421875 
Q 20.703125 31.78125 22.4375 32.703125 
Q 24.171875 33.640625 25.140625 35.28125 
Q 26.125 36.921875 26.125 39.453125 
Q 26.125 43.0625 24.140625 45.15625 
Q 22.171875 47.265625 18.453125 47.265625 
Q 17.046875 47.265625 15.65625 46.921875 
Q 14.265625 46.578125 13.03125 45.765625 
Q 11.8125 44.96875 10.984375 43.625 
Q 10.15625 42.28125 9.859375 40.234375 
L 3.421875 41.21875 
Q 3.90625 44.53125 5.125 46.921875 
Q 6.34375 49.3125 8.296875 50.84375 
Q 10.25 52.390625 12.78125 53.09375 
Q 15.328125 53.8125 18.453125 53.8125 
Q 21.875 53.8125 24.625 52.78125 
Q 27.390625 51.765625 29.34375 49.90625 
Q 31.296875 48.046875 32.375 45.5 
Q 33.453125 42.96875 33.453125 39.890625 
Q 33.453125 37.109375 32.5625 34.953125 
Q 31.6875 32.8125 30.25 31.3125 
Q 28.8125 29.828125 27.046875 28.953125 
Q 25.296875 28.078125 23.53125 27.875 
L 23.53125 27.78125 
Q 25.78125 27.484375 27.75 26.484375 
Q 29.734375 25.484375 31.25 23.84375 
Q 32.765625 22.21875 33.609375 19.9375 
Q 34.46875 17.671875 34.46875 14.84375 
Q 34.46875 11.46875 33.484375 8.5625 
Q 32.515625 5.671875 30.484375 3.546875 
Q 28.46875 1.421875 25.4375 0.21875 
Q 22.40625 -0.984375 18.3125 -0.984375 
z
" id="LiberationSansNarrow-1079"/>
      <path d="M 31.546875 0 
L 25.390625 0 
L 12.40625 46.4375 
Q 12.453125 45.171875 12.515625 43.703125 
Q 12.59375 42.234375 12.59375 40.75 
Q 12.59375 39.265625 12.609375 37.859375 
Q 12.640625 36.46875 12.640625 35.359375 
L 12.640625 0 
L 5.671875 0 
L 5.671875 52.828125 
L 16.890625 52.828125 
L 25.734375 20.5625 
Q 26.65625 17.484375 27.390625 13.796875 
Q 28.125 10.109375 28.421875 6.59375 
Q 28.8125 10.109375 29.515625 13.796875 
Q 30.21875 17.484375 31.15625 20.5625 
L 39.984375 52.828125 
L 50.734375 52.828125 
L 50.734375 0 
L 43.796875 0 
L 43.796875 35.359375 
Q 43.796875 36.421875 43.8125 37.890625 
Q 43.84375 39.359375 43.921875 40.921875 
Q 44 42.484375 44.015625 43.9375 
Q 44.046875 45.40625 44.140625 46.53125 
z
" id="LiberationSansNarrow-1084"/>
      <path d="M 10.6875 24.5625 
Q 10.6875 20.40625 11.5625 16.90625 
Q 12.453125 13.421875 13.90625 10.90625 
Q 15.375 8.40625 17.640625 7 
Q 19.921875 5.609375 23.140625 5.609375 
Q 27.828125 5.609375 30.65625 7.90625 
Q 33.5 10.203125 34.46875 13.71875 
L 40.828125 11.53125 
Q 40.140625 9.328125 38.921875 7.109375 
Q 37.703125 4.890625 35.640625 3.09375 
Q 33.59375 1.3125 30.53125 0.15625 
Q 27.484375 -0.984375 23.140625 -0.984375 
Q 13.53125 -0.984375 8.5 6 
Q 3.46875 12.984375 3.46875 26.765625 
Q 3.46875 34.1875 5 39.328125 
Q 6.546875 44.484375 9.171875 47.703125 
Q 11.8125 50.921875 15.328125 52.359375 
Q 18.84375 53.8125 22.859375 53.8125 
Q 28.328125 53.8125 31.984375 51.65625 
Q 39.0625 47.515625 41.015625 36.8125 
Q 41.9375 31.6875 41.9375 25.734375 
L 41.9375 24.5625 
z
M 34.71875 31.296875 
Q 34.71875 40.140625 31.421875 43.71875 
Q 28.125 47.3125 22.75 47.3125 
Q 18.953125 47.3125 15.328125 44.09375 
Q 10.9375 40.328125 10.6875 31.296875 
z
" id="LiberationSansNarrow-1077"/>
      <path id="LiberationSansNarrow-32"/>
      <path d="M 33.34375 46.4375 
L 21.140625 46.4375 
Q 20.171875 37.796875 19.1875 31.375 
Q 18.21875 24.953125 17.234375 20.21875 
Q 16.265625 15.484375 15.3125 12.15625 
Q 14.359375 8.84375 13.484375 6.390625 
L 33.34375 6.390625 
z
M 46.390625 -19.921875 
L 39.890625 -19.921875 
L 39.890625 0 
L 7.328125 0 
L 7.328125 -19.921875 
L 0.78125 -19.921875 
L 0.78125 6.390625 
L 5.5625 6.390625 
Q 6.78125 8.84375 7.921875 12.328125 
Q 9.078125 15.828125 10.21875 21.1875 
Q 11.375 26.5625 12.515625 34.25 
Q 13.671875 41.9375 14.796875 52.828125 
L 40.578125 52.828125 
L 40.578125 6.390625 
L 46.390625 6.390625 
z
" id="LiberationSansNarrow-1076"/>
      <path d="M 42.140625 26.46875 
Q 42.140625 12.59375 37.125 5.796875 
Q 32.125 -0.984375 22.609375 -0.984375 
Q 18.0625 -0.984375 14.515625 0.671875 
Q 10.984375 2.34375 8.515625 5.765625 
Q 6.0625 9.1875 4.765625 14.328125 
Q 3.46875 19.484375 3.46875 26.46875 
Q 3.46875 53.8125 22.859375 53.8125 
Q 27.875 53.8125 31.5625 52.09375 
Q 35.25 50.390625 37.59375 46.96875 
Q 39.9375 43.5625 41.03125 38.421875 
Q 42.140625 33.296875 42.140625 26.46875 
z
M 34.578125 26.46875 
Q 34.578125 32.625 33.8125 36.625 
Q 33.0625 40.625 31.546875 43.015625 
Q 30.03125 45.40625 27.859375 46.359375 
Q 25.6875 47.3125 23 47.3125 
Q 20.21875 47.3125 17.984375 46.3125 
Q 15.765625 45.3125 14.203125 42.890625 
Q 12.640625 40.484375 11.828125 36.46875 
Q 11.03125 32.46875 11.03125 26.46875 
Q 11.03125 20.3125 11.90625 16.28125 
Q 12.796875 12.25 14.328125 9.859375 
Q 15.875 7.46875 17.96875 6.484375 
Q 20.0625 5.515625 22.5625 5.515625 
Q 25.34375 5.515625 27.5625 6.46875 
Q 29.78125 7.421875 31.34375 9.8125 
Q 32.90625 12.203125 33.734375 16.25 
Q 34.578125 20.3125 34.578125 26.46875 
z
" id="LiberationSansNarrow-1086"/>
      <path d="M 32.078125 0 
L 20.40625 21.6875 
L 8.6875 0 
L 0.921875 0 
L 16.359375 27.15625 
L 1.65625 52.828125 
L 9.625 52.828125 
L 20.40625 32.28125 
L 31.15625 52.828125 
L 39.203125 52.828125 
L 24.515625 27.25 
L 40.140625 0 
z
" id="LiberationSansNarrow-1093"/>
     </defs>
     <g transform="translate(255.502813 269.345625)scale(0.14 -0.14)">
      <use xlink:href="#LiberationSansNarrow-1088"/>
      <use x="45.605469" xlink:href="#LiberationSansNarrow-1072"/>
      <use x="91.195312" xlink:href="#LiberationSansNarrow-1079"/>
      <use x="128.744141" xlink:href="#LiberationSansNarrow-1084"/>
      <use x="185.140625" xlink:href="#LiberationSansNarrow-1077"/>
      <use x="230.746094" xlink:href="#LiberationSansNarrow-1088"/>
      <use x="276.351562" xlink:href="#LiberationSansNarrow-32"/>
      <use x="299.154297" xlink:href="#LiberationSansNarrow-1076"/>
      <use x="346.957031" xlink:href="#LiberationSansNarrow-1086"/>
      <use x="392.546875" xlink:href="#LiberationSansNarrow-1093"/>
      <use x="433.546875" xlink:href="#LiberationSansNarrow-1086"/>
      <use x="479.121094" xlink:href="#LiberationSansNarrow-1076"/>
      <use x="526.923828" xlink:href="#LiberationSansNarrow-1072"/>
     </g>
    </g>
   </g>
   <g id="matplotlib.axis_2">
    <g id="ytick_1">
     <g id="line2d_6">
      <path clip-path="url(#pb43796a271)" d="M 32.8 255.2 
L 558.36 255.2 
" style="fill:none;stroke:#b0b0b0;stroke-dasharray:1.48,0.64;stroke-dashoffset:0;stroke-width:0.4;"/>
     </g>
    </g>
    <g id="ytick_2">
     <g id="line2d_7">
      <path clip-path="url(#pb43796a271)" d="M 32.8 213.460544 
L 558.36 213.460544 
" style="fill:none;stroke:#b0b0b0;stroke-dasharray:1.48,0.64;stroke-dashoffset:0;stroke-width:0.4;"/>
     </g>
    </g>
    <g id="ytick_3">
     <g id="line2d_8">
      <path clip-path="url(#pb43796a271)" d="M 32.8 171.721089 
L 558.36 171.721089 
" style="fill:none;stroke:#b0b0b0;stroke-dasharray:1.48,0.64;stroke-dashoffset:0;stroke-width:0.4;"/>
     </g>
    </g>
    <g id="ytick_4">
     <g id="line2d_9">
      <path clip-path="url(#pb43796a271)" d="M 32.8 129.981633 
L 558.36 129.981633 
" style="fill:none;stroke:#b0b0b0;stroke-dasharray:1.48,0.64;stroke-dashoffset:0;stroke-width:0.4;"/>
     </g>
    </g>
    <g id="ytick_5">
     <g id="line2d_10">
      <path clip-path="url(#pb43796a271)" d="M 32.8 88.242178 
L 558.36 88.242178 
" style="fill:none;stroke:#b0b0b0;stroke-dasharray:1.48,0.64;stroke-dashoffset:0;stroke-width:0.4;"/>
     </g>
    </g>
    <g id="ytick_6">
     <g id="line2d_11">
      <path clip-path="url(#pb43796a271)" d="M 32.8 46.502722 
L 558.36 46.502722 
" style="fill:none;stroke:#b0b0b0;stroke-dasharray:1.48,0.64;stroke-dashoffset:0;stroke-width:0.4;"/>
     </g>
    </g>
    <g id="text_2">
     <!-- доля населения -->
     <defs>
      <path d="M 34.859375 0 
L 34.859375 46.4375 
L 19.875 46.4375 
Q 18.890625 37.453125 18.03125 30.4375 
Q 17.1875 23.4375 16.3125 18.15625 
Q 15.4375 12.890625 14.40625 9.25 
Q 13.375 5.609375 11.953125 3.34375 
Q 10.546875 1.078125 8.65625 0.046875 
Q 6.78125 -0.984375 4.203125 -0.984375 
Q 3.03125 -0.984375 2.078125 -0.78125 
Q 1.125 -0.59375 0.4375 -0.34375 
L 0.4375 5.953125 
Q 0.875 5.765625 1.625 5.640625 
Q 2.390625 5.515625 3.171875 5.515625 
Q 4.59375 5.515625 5.59375 6.53125 
Q 6.59375 7.5625 7.390625 9.859375 
Q 8.203125 12.15625 8.859375 15.796875 
Q 9.515625 19.4375 10.203125 24.703125 
Q 10.890625 29.984375 11.625 36.921875 
L 13.375 52.828125 
L 42.140625 52.828125 
L 42.140625 0 
z
" id="LiberationSansNarrow-1083"/>
      <path d="M 21.4375 22.359375 
L 8.84375 0 
L 0.6875 0 
L 14.453125 23 
Q 9.234375 24.3125 6.859375 28.296875 
Q 4.5 32.28125 4.5 38.234375 
Q 4.5 45.515625 8.8125 49.171875 
Q 13.140625 52.828125 21.4375 52.828125 
L 38.71875 52.828125 
L 38.71875 0 
L 31.546875 0 
L 31.546875 22.359375 
z
M 31.546875 46.625 
L 22.171875 46.625 
Q 16.9375 46.625 14.546875 44.375 
Q 12.15625 42.140625 12.15625 37.59375 
Q 12.15625 33.015625 14.28125 30.734375 
Q 16.40625 28.46875 21.390625 28.46875 
L 31.546875 28.46875 
z
" id="LiberationSansNarrow-1103"/>
      <path d="M 12.890625 52.828125 
L 12.890625 30.46875 
L 32.375 30.46875 
L 32.375 52.828125 
L 39.59375 52.828125 
L 39.59375 0 
L 32.375 0 
L 32.375 24.078125 
L 12.890625 24.078125 
L 12.890625 0 
L 5.671875 0 
L 5.671875 52.828125 
z
" id="LiberationSansNarrow-1085"/>
      <path d="M 11.03125 26.65625 
Q 11.03125 22.125 11.5625 18.3125 
Q 12.109375 14.5 13.375 11.734375 
Q 14.65625 8.984375 16.75 7.46875 
Q 18.84375 5.953125 21.96875 5.953125 
Q 25.828125 5.953125 28.390625 8.484375 
Q 30.953125 11.03125 31.546875 16.3125 
L 38.875 15.71875 
Q 38.53125 12.453125 37.296875 9.421875 
Q 36.078125 6.390625 34.03125 4.09375 
Q 31.984375 1.8125 29 0.40625 
Q 26.03125 -0.984375 22.171875 -0.984375 
Q 17.09375 -0.984375 13.5 1.109375 
Q 9.90625 3.21875 7.6875 6.90625 
Q 5.46875 10.59375 4.46875 15.59375 
Q 3.46875 20.609375 3.46875 26.46875 
Q 3.46875 31.78125 4.203125 35.859375 
Q 4.9375 39.9375 6.21875 42.984375 
Q 7.515625 46.046875 9.265625 48.125 
Q 11.03125 50.203125 13.109375 51.4375 
Q 15.1875 52.6875 17.453125 53.25 
Q 19.734375 53.8125 22.078125 53.8125 
Q 25.734375 53.8125 28.5625 52.59375 
Q 31.390625 51.375 33.46875 49.25 
Q 35.546875 47.125 36.8125 44.234375 
Q 38.09375 41.359375 38.625 38.03125 
L 31.203125 37.359375 
Q 30.671875 41.75 28.375 44.328125 
Q 26.078125 46.921875 21.875 46.921875 
Q 18.796875 46.921875 16.71875 45.671875 
Q 14.65625 44.4375 13.375 41.921875 
Q 12.109375 39.40625 11.5625 35.59375 
Q 11.03125 31.78125 11.03125 26.65625 
z
" id="LiberationSansNarrow-1089"/>
      <path d="M 12.640625 52.828125 
L 12.640625 23.921875 
Q 12.640625 22.796875 12.59375 20.921875 
Q 12.546875 19.046875 12.46875 17.046875 
Q 12.40625 15.046875 12.359375 13.234375 
Q 12.3125 11.421875 12.25 10.40625 
L 32.28125 52.828125 
L 40.140625 52.828125 
L 40.140625 0 
L 33.25 0 
L 33.25 32.234375 
Q 33.25 33.15625 33.296875 34.578125 
L 33.40625 37.40625 
Q 33.453125 38.875 33.5 40.234375 
L 33.640625 42.625 
L 13.375 0 
L 5.71875 0 
L 5.71875 52.828125 
z
" id="LiberationSansNarrow-1080"/>
     </defs>
     <g transform="translate(25.895 179.456875)rotate(-90)scale(0.14 -0.14)">
      <use xlink:href="#LiberationSansNarrow-1076"/>
      <use x="47.802734" xlink:href="#LiberationSansNarrow-1086"/>
      <use x="93.376953" xlink:href="#LiberationSansNarrow-1083"/>
      <use x="141.179688" xlink:href="#LiberationSansNarrow-1103"/>
      <use x="185.613281" xlink:href="#LiberationSansNarrow-32"/>
      <use x="208.416016" xlink:href="#LiberationSansNarrow-1085"/>
      <use x="253.679688" xlink:href="#LiberationSansNarrow-1072"/>
      <use x="299.285156" xlink:href="#LiberationSansNarrow-1089"/>
      <use x="340.300781" xlink:href="#LiberationSansNarrow-1077"/>
      <use x="385.859375" xlink:href="#LiberationSansNarrow-1083"/>
      <use x="433.662109" xlink:href="#LiberationSansNarrow-1077"/>
      <use x="479.267578" xlink:href="#LiberationSansNarrow-1085"/>
      <use x="524.53125" xlink:href="#LiberationSansNarrow-1080"/>
      <use x="570.380859" xlink:href="#LiberationSansNarrow-1103"/>
     </g>
    </g>
   </g>
  </g>
 </g>
 <defs>
  <clipPath id="pb43796a271">
   <rect height="237.56" width="525.56" x="32.8" y="17.64"/>
  </clipPath>
 </defs>
</svg>
