<?xml version="1.0" encoding="utf-8" standalone="no"?>
<!DOCTYPE svg PUBLIC "-//W3C//DTD SVG 1.1//EN"
  "http://www.w3.org/Graphics/SVG/1.1/DTD/svg11.dtd">
<!-- Created with matplotlib (https://matplotlib.org/) -->
<svg height="288pt" version="1.1" viewBox="0 0 576 288" width="576pt" xmlns="http://www.w3.org/2000/svg" xmlns:xlink="http://www.w3.org/1999/xlink">
 <defs>
  <style type="text/css">
*{stroke-linecap:butt;stroke-linejoin:round;}
  </style>
 </defs>
 <g id="figure_1">
  <g id="patch_1">
   <path d="M 0 288 
L 576 288 
L 576 0 
L 0 0 
z
" style="fill:#ffffff;"/>
  </g>
  <g id="axes_1">
   <g id="patch_2">
    <path d="M 41.29 252.2 
L 558.36 252.2 
L 558.36 17.64 
L 41.29 17.64 
z
" style="fill:#ffffff;"/>
   </g>
   <g id="patch_3">
    <path clip-path="url(#pb96d09844a)" d="M 65.396507 252.2 
L 70.09111 252.2 
L 70.09111 56.216409 
L 65.396507 56.216409 
z
" style="fill:#1f77b4;opacity:0.5;"/>
   </g>
   <g id="patch_4">
    <path clip-path="url(#pb96d09844a)" d="M 70.09111 252.2 
L 74.785713 252.2 
L 74.785713 162.127086 
L 70.09111 162.127086 
z
" style="fill:#1f77b4;opacity:0.5;"/>
   </g>
   <g id="patch_5">
    <path clip-path="url(#pb96d09844a)" d="M 74.785713 252.2 
L 79.480316 252.2 
L 79.480316 222.303607 
L 74.785713 222.303607 
z
" style="fill:#1f77b4;opacity:0.5;"/>
   </g>
   <g id="patch_6">
    <path clip-path="url(#pb96d09844a)" d="M 79.480316 252.2 
L 84.174919 252.2 
L 84.174919 237.72275 
L 79.480316 237.72275 
z
" style="fill:#1f77b4;opacity:0.5;"/>
   </g>
   <g id="patch_7">
    <path clip-path="url(#pb96d09844a)" d="M 84.174919 252.2 
L 88.869522 252.2 
L 88.869522 246.130021 
L 84.174919 246.130021 
z
" style="fill:#1f77b4;opacity:0.5;"/>
   </g>
   <g id="patch_8">
    <path clip-path="url(#pb96d09844a)" d="M 88.869522 252.2 
L 93.564125 252.2 
L 93.564125 247.978922 
L 88.869522 247.978922 
z
" style="fill:#1f77b4;opacity:0.5;"/>
   </g>
   <g id="patch_9">
    <path clip-path="url(#pb96d09844a)" d="M 93.564125 252.2 
L 98.258729 252.2 
L 98.258729 249.653399 
L 93.564125 249.653399 
z
" style="fill:#1f77b4;opacity:0.5;"/>
   </g>
   <g id="patch_10">
    <path clip-path="url(#pb96d09844a)" d="M 98.258729 252.2 
L 102.953332 252.2 
L 102.953332 251.153452 
L 98.258729 251.153452 
z
" style="fill:#1f77b4;opacity:0.5;"/>
   </g>
   <g id="patch_11">
    <path clip-path="url(#pb96d09844a)" d="M 102.953332 252.2 
L 107.647935 252.2 
L 107.647935 251.258107 
L 102.953332 251.258107 
z
" style="fill:#1f77b4;opacity:0.5;"/>
   </g>
   <g id="patch_12">
    <path clip-path="url(#pb96d09844a)" d="M 107.647935 252.2 
L 112.342538 252.2 
L 112.342538 251.606956 
L 107.647935 251.606956 
z
" style="fill:#1f77b4;opacity:0.5;"/>
   </g>
   <g id="patch_13">
    <path clip-path="url(#pb96d09844a)" d="M 112.342538 252.2 
L 117.037141 252.2 
L 117.037141 251.781381 
L 112.342538 251.781381 
z
" style="fill:#1f77b4;opacity:0.5;"/>
   </g>
   <g id="patch_14">
    <path clip-path="url(#pb96d09844a)" d="M 117.037141 252.2 
L 121.731744 252.2 
L 121.731744 251.711611 
L 117.037141 251.711611 
z
" style="fill:#1f77b4;opacity:0.5;"/>
   </g>
   <g id="patch_15">
    <path clip-path="url(#pb96d09844a)" d="M 121.731744 252.2 
L 126.426347 252.2 
L 126.426347 251.886036 
L 121.731744 251.886036 
z
" style="fill:#1f77b4;opacity:0.5;"/>
   </g>
   <g id="patch_16">
    <path clip-path="url(#pb96d09844a)" d="M 126.426347 252.2 
L 131.12095 252.2 
L 131.12095 252.025575 
L 126.426347 252.025575 
z
" style="fill:#1f77b4;opacity:0.5;"/>
   </g>
   <g id="patch_17">
    <path clip-path="url(#pb96d09844a)" d="M 131.12095 252.2 
L 135.815553 252.2 
L 135.815553 251.99069 
L 131.12095 251.99069 
z
" style="fill:#1f77b4;opacity:0.5;"/>
   </g>
   <g id="patch_18">
    <path clip-path="url(#pb96d09844a)" d="M 135.815553 252.2 
L 140.510157 252.2 
L 140.510157 252.095345 
L 135.815553 252.095345 
z
" style="fill:#1f77b4;opacity:0.5;"/>
   </g>
   <g id="patch_19">
    <path clip-path="url(#pb96d09844a)" d="M 140.510157 252.2 
L 145.20476 252.2 
L 145.20476 251.99069 
L 140.510157 251.99069 
z
" style="fill:#1f77b4;opacity:0.5;"/>
   </g>
   <g id="patch_20">
    <path clip-path="url(#pb96d09844a)" d="M 145.20476 252.2 
L 149.899363 252.2 
L 149.899363 252.06046 
L 145.20476 252.06046 
z
" style="fill:#1f77b4;opacity:0.5;"/>
   </g>
   <g id="patch_21">
    <path clip-path="url(#pb96d09844a)" d="M 149.899363 252.2 
L 154.593966 252.2 
L 154.593966 252.095345 
L 149.899363 252.095345 
z
" style="fill:#1f77b4;opacity:0.5;"/>
   </g>
   <g id="patch_22">
    <path clip-path="url(#pb96d09844a)" d="M 154.593966 252.2 
L 159.288569 252.2 
L 159.288569 252.13023 
L 154.593966 252.13023 
z
" style="fill:#1f77b4;opacity:0.5;"/>
   </g>
   <g id="patch_23">
    <path clip-path="url(#pb96d09844a)" d="M 159.288569 252.2 
L 163.983172 252.2 
L 163.983172 252.13023 
L 159.288569 252.13023 
z
" style="fill:#1f77b4;opacity:0.5;"/>
   </g>
   <g id="patch_24">
    <path clip-path="url(#pb96d09844a)" d="M 163.983172 252.2 
L 168.677775 252.2 
L 168.677775 252.165115 
L 163.983172 252.165115 
z
" style="fill:#1f77b4;opacity:0.5;"/>
   </g>
   <g id="patch_25">
    <path clip-path="url(#pb96d09844a)" d="M 168.677775 252.2 
L 173.372378 252.2 
L 173.372378 252.2 
L 168.677775 252.2 
z
" style="fill:#1f77b4;opacity:0.5;"/>
   </g>
   <g id="patch_26">
    <path clip-path="url(#pb96d09844a)" d="M 173.372378 252.2 
L 178.066981 252.2 
L 178.066981 252.2 
L 173.372378 252.2 
z
" style="fill:#1f77b4;opacity:0.5;"/>
   </g>
   <g id="patch_27">
    <path clip-path="url(#pb96d09844a)" d="M 178.066981 252.2 
L 182.761585 252.2 
L 182.761585 252.13023 
L 178.066981 252.13023 
z
" style="fill:#1f77b4;opacity:0.5;"/>
   </g>
   <g id="patch_28">
    <path clip-path="url(#pb96d09844a)" d="M 182.761585 252.2 
L 187.456188 252.2 
L 187.456188 252.165115 
L 182.761585 252.165115 
z
" style="fill:#1f77b4;opacity:0.5;"/>
   </g>
   <g id="patch_29">
    <path clip-path="url(#pb96d09844a)" d="M 187.456188 252.2 
L 192.150791 252.2 
L 192.150791 252.13023 
L 187.456188 252.13023 
z
" style="fill:#1f77b4;opacity:0.5;"/>
   </g>
   <g id="patch_30">
    <path clip-path="url(#pb96d09844a)" d="M 192.150791 252.2 
L 196.845394 252.2 
L 196.845394 252.095345 
L 192.150791 252.095345 
z
" style="fill:#1f77b4;opacity:0.5;"/>
   </g>
   <g id="patch_31">
    <path clip-path="url(#pb96d09844a)" d="M 196.845394 252.2 
L 201.539997 252.2 
L 201.539997 252.2 
L 196.845394 252.2 
z
" style="fill:#1f77b4;opacity:0.5;"/>
   </g>
   <g id="patch_32">
    <path clip-path="url(#pb96d09844a)" d="M 201.539997 252.2 
L 206.2346 252.2 
L 206.2346 252.165115 
L 201.539997 252.165115 
z
" style="fill:#1f77b4;opacity:0.5;"/>
   </g>
   <g id="patch_33">
    <path clip-path="url(#pb96d09844a)" d="M 206.2346 252.2 
L 210.929203 252.2 
L 210.929203 252.165115 
L 206.2346 252.165115 
z
" style="fill:#1f77b4;opacity:0.5;"/>
   </g>
   <g id="patch_34">
    <path clip-path="url(#pb96d09844a)" d="M 210.929203 252.2 
L 215.623806 252.2 
L 215.623806 252.2 
L 210.929203 252.2 
z
" style="fill:#1f77b4;opacity:0.5;"/>
   </g>
   <g id="patch_35">
    <path clip-path="url(#pb96d09844a)" d="M 215.623806 252.2 
L 220.31841 252.2 
L 220.31841 252.2 
L 215.623806 252.2 
z
" style="fill:#1f77b4;opacity:0.5;"/>
   </g>
   <g id="patch_36">
    <path clip-path="url(#pb96d09844a)" d="M 220.31841 252.2 
L 225.013013 252.2 
L 225.013013 252.2 
L 220.31841 252.2 
z
" style="fill:#1f77b4;opacity:0.5;"/>
   </g>
   <g id="patch_37">
    <path clip-path="url(#pb96d09844a)" d="M 225.013013 252.2 
L 229.707616 252.2 
L 229.707616 252.2 
L 225.013013 252.2 
z
" style="fill:#1f77b4;opacity:0.5;"/>
   </g>
   <g id="patch_38">
    <path clip-path="url(#pb96d09844a)" d="M 229.707616 252.2 
L 234.402219 252.2 
L 234.402219 252.165115 
L 229.707616 252.165115 
z
" style="fill:#1f77b4;opacity:0.5;"/>
   </g>
   <g id="patch_39">
    <path clip-path="url(#pb96d09844a)" d="M 234.402219 252.2 
L 239.096822 252.2 
L 239.096822 252.165115 
L 234.402219 252.165115 
z
" style="fill:#1f77b4;opacity:0.5;"/>
   </g>
   <g id="patch_40">
    <path clip-path="url(#pb96d09844a)" d="M 239.096822 252.2 
L 243.791425 252.2 
L 243.791425 252.2 
L 239.096822 252.2 
z
" style="fill:#1f77b4;opacity:0.5;"/>
   </g>
   <g id="patch_41">
    <path clip-path="url(#pb96d09844a)" d="M 243.791425 252.2 
L 248.486028 252.2 
L 248.486028 252.2 
L 243.791425 252.2 
z
" style="fill:#1f77b4;opacity:0.5;"/>
   </g>
   <g id="patch_42">
    <path clip-path="url(#pb96d09844a)" d="M 248.486028 252.2 
L 253.180631 252.2 
L 253.180631 252.165115 
L 248.486028 252.165115 
z
" style="fill:#1f77b4;opacity:0.5;"/>
   </g>
   <g id="patch_43">
    <path clip-path="url(#pb96d09844a)" d="M 253.180631 252.2 
L 257.875234 252.2 
L 257.875234 252.165115 
L 253.180631 252.165115 
z
" style="fill:#1f77b4;opacity:0.5;"/>
   </g>
   <g id="patch_44">
    <path clip-path="url(#pb96d09844a)" d="M 257.875234 252.2 
L 262.569838 252.2 
L 262.569838 252.2 
L 257.875234 252.2 
z
" style="fill:#1f77b4;opacity:0.5;"/>
   </g>
   <g id="patch_45">
    <path clip-path="url(#pb96d09844a)" d="M 262.569838 252.2 
L 267.264441 252.2 
L 267.264441 252.2 
L 262.569838 252.2 
z
" style="fill:#1f77b4;opacity:0.5;"/>
   </g>
   <g id="patch_46">
    <path clip-path="url(#pb96d09844a)" d="M 267.264441 252.2 
L 271.959044 252.2 
L 271.959044 252.165115 
L 267.264441 252.165115 
z
" style="fill:#1f77b4;opacity:0.5;"/>
   </g>
   <g id="patch_47">
    <path clip-path="url(#pb96d09844a)" d="M 271.959044 252.2 
L 276.653647 252.2 
L 276.653647 252.2 
L 271.959044 252.2 
z
" style="fill:#1f77b4;opacity:0.5;"/>
   </g>
   <g id="patch_48">
    <path clip-path="url(#pb96d09844a)" d="M 276.653647 252.2 
L 281.34825 252.2 
L 281.34825 252.2 
L 276.653647 252.2 
z
" style="fill:#1f77b4;opacity:0.5;"/>
   </g>
   <g id="patch_49">
    <path clip-path="url(#pb96d09844a)" d="M 281.34825 252.2 
L 286.042853 252.2 
L 286.042853 252.2 
L 281.34825 252.2 
z
" style="fill:#1f77b4;opacity:0.5;"/>
   </g>
   <g id="patch_50">
    <path clip-path="url(#pb96d09844a)" d="M 286.042853 252.2 
L 290.737456 252.2 
L 290.737456 252.2 
L 286.042853 252.2 
z
" style="fill:#1f77b4;opacity:0.5;"/>
   </g>
   <g id="patch_51">
    <path clip-path="url(#pb96d09844a)" d="M 290.737456 252.2 
L 295.432059 252.2 
L 295.432059 252.165115 
L 290.737456 252.165115 
z
" style="fill:#1f77b4;opacity:0.5;"/>
   </g>
   <g id="patch_52">
    <path clip-path="url(#pb96d09844a)" d="M 295.432059 252.2 
L 300.126662 252.2 
L 300.126662 252.2 
L 295.432059 252.2 
z
" style="fill:#1f77b4;opacity:0.5;"/>
   </g>
   <g id="patch_53">
    <path clip-path="url(#pb96d09844a)" d="M 300.126662 252.2 
L 304.821266 252.2 
L 304.821266 252.2 
L 300.126662 252.2 
z
" style="fill:#1f77b4;opacity:0.5;"/>
   </g>
   <g id="patch_54">
    <path clip-path="url(#pb96d09844a)" d="M 304.821266 252.2 
L 309.515869 252.2 
L 309.515869 252.2 
L 304.821266 252.2 
z
" style="fill:#1f77b4;opacity:0.5;"/>
   </g>
   <g id="patch_55">
    <path clip-path="url(#pb96d09844a)" d="M 309.515869 252.2 
L 314.210472 252.2 
L 314.210472 252.2 
L 309.515869 252.2 
z
" style="fill:#1f77b4;opacity:0.5;"/>
   </g>
   <g id="patch_56">
    <path clip-path="url(#pb96d09844a)" d="M 314.210472 252.2 
L 318.905075 252.2 
L 318.905075 252.2 
L 314.210472 252.2 
z
" style="fill:#1f77b4;opacity:0.5;"/>
   </g>
   <g id="patch_57">
    <path clip-path="url(#pb96d09844a)" d="M 318.905075 252.2 
L 323.599678 252.2 
L 323.599678 252.2 
L 318.905075 252.2 
z
" style="fill:#1f77b4;opacity:0.5;"/>
   </g>
   <g id="patch_58">
    <path clip-path="url(#pb96d09844a)" d="M 323.599678 252.2 
L 328.294281 252.2 
L 328.294281 252.2 
L 323.599678 252.2 
z
" style="fill:#1f77b4;opacity:0.5;"/>
   </g>
   <g id="patch_59">
    <path clip-path="url(#pb96d09844a)" d="M 328.294281 252.2 
L 332.988884 252.2 
L 332.988884 252.165115 
L 328.294281 252.165115 
z
" style="fill:#1f77b4;opacity:0.5;"/>
   </g>
   <g id="patch_60">
    <path clip-path="url(#pb96d09844a)" d="M 332.988884 252.2 
L 337.683487 252.2 
L 337.683487 252.2 
L 332.988884 252.2 
z
" style="fill:#1f77b4;opacity:0.5;"/>
   </g>
   <g id="patch_61">
    <path clip-path="url(#pb96d09844a)" d="M 337.683487 252.2 
L 342.37809 252.2 
L 342.37809 252.2 
L 337.683487 252.2 
z
" style="fill:#1f77b4;opacity:0.5;"/>
   </g>
   <g id="patch_62">
    <path clip-path="url(#pb96d09844a)" d="M 342.37809 252.2 
L 347.072694 252.2 
L 347.072694 252.2 
L 342.37809 252.2 
z
" style="fill:#1f77b4;opacity:0.5;"/>
   </g>
   <g id="patch_63">
    <path clip-path="url(#pb96d09844a)" d="M 347.072694 252.2 
L 351.767297 252.2 
L 351.767297 252.2 
L 347.072694 252.2 
z
" style="fill:#1f77b4;opacity:0.5;"/>
   </g>
   <g id="patch_64">
    <path clip-path="url(#pb96d09844a)" d="M 351.767297 252.2 
L 356.4619 252.2 
L 356.4619 252.2 
L 351.767297 252.2 
z
" style="fill:#1f77b4;opacity:0.5;"/>
   </g>
   <g id="patch_65">
    <path clip-path="url(#pb96d09844a)" d="M 356.4619 252.2 
L 361.156503 252.2 
L 361.156503 252.2 
L 356.4619 252.2 
z
" style="fill:#1f77b4;opacity:0.5;"/>
   </g>
   <g id="patch_66">
    <path clip-path="url(#pb96d09844a)" d="M 361.156503 252.2 
L 365.851106 252.2 
L 365.851106 252.2 
L 361.156503 252.2 
z
" style="fill:#1f77b4;opacity:0.5;"/>
   </g>
   <g id="patch_67">
    <path clip-path="url(#pb96d09844a)" d="M 365.851106 252.2 
L 370.545709 252.2 
L 370.545709 252.2 
L 365.851106 252.2 
z
" style="fill:#1f77b4;opacity:0.5;"/>
   </g>
   <g id="patch_68">
    <path clip-path="url(#pb96d09844a)" d="M 370.545709 252.2 
L 375.240312 252.2 
L 375.240312 252.2 
L 370.545709 252.2 
z
" style="fill:#1f77b4;opacity:0.5;"/>
   </g>
   <g id="patch_69">
    <path clip-path="url(#pb96d09844a)" d="M 375.240312 252.2 
L 379.934915 252.2 
L 379.934915 252.2 
L 375.240312 252.2 
z
" style="fill:#1f77b4;opacity:0.5;"/>
   </g>
   <g id="patch_70">
    <path clip-path="url(#pb96d09844a)" d="M 379.934915 252.2 
L 384.629519 252.2 
L 384.629519 252.2 
L 379.934915 252.2 
z
" style="fill:#1f77b4;opacity:0.5;"/>
   </g>
   <g id="patch_71">
    <path clip-path="url(#pb96d09844a)" d="M 384.629519 252.2 
L 389.324122 252.2 
L 389.324122 252.2 
L 384.629519 252.2 
z
" style="fill:#1f77b4;opacity:0.5;"/>
   </g>
   <g id="patch_72">
    <path clip-path="url(#pb96d09844a)" d="M 389.324122 252.2 
L 394.018725 252.2 
L 394.018725 252.2 
L 389.324122 252.2 
z
" style="fill:#1f77b4;opacity:0.5;"/>
   </g>
   <g id="patch_73">
    <path clip-path="url(#pb96d09844a)" d="M 394.018725 252.2 
L 398.713328 252.2 
L 398.713328 252.2 
L 394.018725 252.2 
z
" style="fill:#1f77b4;opacity:0.5;"/>
   </g>
   <g id="patch_74">
    <path clip-path="url(#pb96d09844a)" d="M 398.713328 252.2 
L 403.407931 252.2 
L 403.407931 252.2 
L 398.713328 252.2 
z
" style="fill:#1f77b4;opacity:0.5;"/>
   </g>
   <g id="patch_75">
    <path clip-path="url(#pb96d09844a)" d="M 403.407931 252.2 
L 408.102534 252.2 
L 408.102534 252.2 
L 403.407931 252.2 
z
" style="fill:#1f77b4;opacity:0.5;"/>
   </g>
   <g id="patch_76">
    <path clip-path="url(#pb96d09844a)" d="M 408.102534 252.2 
L 412.797137 252.2 
L 412.797137 252.2 
L 408.102534 252.2 
z
" style="fill:#1f77b4;opacity:0.5;"/>
   </g>
   <g id="patch_77">
    <path clip-path="url(#pb96d09844a)" d="M 412.797137 252.2 
L 417.49174 252.2 
L 417.49174 252.2 
L 412.797137 252.2 
z
" style="fill:#1f77b4;opacity:0.5;"/>
   </g>
   <g id="patch_78">
    <path clip-path="url(#pb96d09844a)" d="M 417.49174 252.2 
L 422.186343 252.2 
L 422.186343 252.2 
L 417.49174 252.2 
z
" style="fill:#1f77b4;opacity:0.5;"/>
   </g>
   <g id="patch_79">
    <path clip-path="url(#pb96d09844a)" d="M 422.186343 252.2 
L 426.880947 252.2 
L 426.880947 252.2 
L 422.186343 252.2 
z
" style="fill:#1f77b4;opacity:0.5;"/>
   </g>
   <g id="patch_80">
    <path clip-path="url(#pb96d09844a)" d="M 426.880947 252.2 
L 431.57555 252.2 
L 431.57555 252.2 
L 426.880947 252.2 
z
" style="fill:#1f77b4;opacity:0.5;"/>
   </g>
   <g id="patch_81">
    <path clip-path="url(#pb96d09844a)" d="M 431.57555 252.2 
L 436.270153 252.2 
L 436.270153 252.2 
L 431.57555 252.2 
z
" style="fill:#1f77b4;opacity:0.5;"/>
   </g>
   <g id="patch_82">
    <path clip-path="url(#pb96d09844a)" d="M 436.270153 252.2 
L 440.964756 252.2 
L 440.964756 252.2 
L 436.270153 252.2 
z
" style="fill:#1f77b4;opacity:0.5;"/>
   </g>
   <g id="patch_83">
    <path clip-path="url(#pb96d09844a)" d="M 440.964756 252.2 
L 445.659359 252.2 
L 445.659359 252.2 
L 440.964756 252.2 
z
" style="fill:#1f77b4;opacity:0.5;"/>
   </g>
   <g id="patch_84">
    <path clip-path="url(#pb96d09844a)" d="M 445.659359 252.2 
L 450.353962 252.2 
L 450.353962 252.2 
L 445.659359 252.2 
z
" style="fill:#1f77b4;opacity:0.5;"/>
   </g>
   <g id="patch_85">
    <path clip-path="url(#pb96d09844a)" d="M 450.353962 252.2 
L 455.048565 252.2 
L 455.048565 252.2 
L 450.353962 252.2 
z
" style="fill:#1f77b4;opacity:0.5;"/>
   </g>
   <g id="patch_86">
    <path clip-path="url(#pb96d09844a)" d="M 455.048565 252.2 
L 459.743168 252.2 
L 459.743168 252.2 
L 455.048565 252.2 
z
" style="fill:#1f77b4;opacity:0.5;"/>
   </g>
   <g id="patch_87">
    <path clip-path="url(#pb96d09844a)" d="M 459.743168 252.2 
L 464.437771 252.2 
L 464.437771 252.2 
L 459.743168 252.2 
z
" style="fill:#1f77b4;opacity:0.5;"/>
   </g>
   <g id="patch_88">
    <path clip-path="url(#pb96d09844a)" d="M 464.437771 252.2 
L 469.132375 252.2 
L 469.132375 252.2 
L 464.437771 252.2 
z
" style="fill:#1f77b4;opacity:0.5;"/>
   </g>
   <g id="patch_89">
    <path clip-path="url(#pb96d09844a)" d="M 469.132375 252.2 
L 473.826978 252.2 
L 473.826978 252.2 
L 469.132375 252.2 
z
" style="fill:#1f77b4;opacity:0.5;"/>
   </g>
   <g id="patch_90">
    <path clip-path="url(#pb96d09844a)" d="M 473.826978 252.2 
L 478.521581 252.2 
L 478.521581 252.2 
L 473.826978 252.2 
z
" style="fill:#1f77b4;opacity:0.5;"/>
   </g>
   <g id="patch_91">
    <path clip-path="url(#pb96d09844a)" d="M 478.521581 252.2 
L 483.216184 252.2 
L 483.216184 252.165115 
L 478.521581 252.165115 
z
" style="fill:#1f77b4;opacity:0.5;"/>
   </g>
   <g id="patch_92">
    <path clip-path="url(#pb96d09844a)" d="M 483.216184 252.2 
L 487.910787 252.2 
L 487.910787 252.2 
L 483.216184 252.2 
z
" style="fill:#1f77b4;opacity:0.5;"/>
   </g>
   <g id="patch_93">
    <path clip-path="url(#pb96d09844a)" d="M 487.910787 252.2 
L 492.60539 252.2 
L 492.60539 252.2 
L 487.910787 252.2 
z
" style="fill:#1f77b4;opacity:0.5;"/>
   </g>
   <g id="patch_94">
    <path clip-path="url(#pb96d09844a)" d="M 492.60539 252.2 
L 497.299993 252.2 
L 497.299993 252.2 
L 492.60539 252.2 
z
" style="fill:#1f77b4;opacity:0.5;"/>
   </g>
   <g id="patch_95">
    <path clip-path="url(#pb96d09844a)" d="M 497.299993 252.2 
L 501.994596 252.2 
L 501.994596 252.2 
L 497.299993 252.2 
z
" style="fill:#1f77b4;opacity:0.5;"/>
   </g>
   <g id="patch_96">
    <path clip-path="url(#pb96d09844a)" d="M 501.994596 252.2 
L 506.689199 252.2 
L 506.689199 252.2 
L 501.994596 252.2 
z
" style="fill:#1f77b4;opacity:0.5;"/>
   </g>
   <g id="patch_97">
    <path clip-path="url(#pb96d09844a)" d="M 506.689199 252.2 
L 511.383803 252.2 
L 511.383803 252.2 
L 506.689199 252.2 
z
" style="fill:#1f77b4;opacity:0.5;"/>
   </g>
   <g id="patch_98">
    <path clip-path="url(#pb96d09844a)" d="M 511.383803 252.2 
L 516.078406 252.2 
L 516.078406 252.2 
L 511.383803 252.2 
z
" style="fill:#1f77b4;opacity:0.5;"/>
   </g>
   <g id="patch_99">
    <path clip-path="url(#pb96d09844a)" d="M 516.078406 252.2 
L 520.773009 252.2 
L 520.773009 252.2 
L 516.078406 252.2 
z
" style="fill:#1f77b4;opacity:0.5;"/>
   </g>
   <g id="patch_100">
    <path clip-path="url(#pb96d09844a)" d="M 520.773009 252.2 
L 525.467612 252.2 
L 525.467612 252.2 
L 520.773009 252.2 
z
" style="fill:#1f77b4;opacity:0.5;"/>
   </g>
   <g id="patch_101">
    <path clip-path="url(#pb96d09844a)" d="M 525.467612 252.2 
L 530.162215 252.2 
L 530.162215 252.2 
L 525.467612 252.2 
z
" style="fill:#1f77b4;opacity:0.5;"/>
   </g>
   <g id="patch_102">
    <path clip-path="url(#pb96d09844a)" d="M 530.162215 252.2 
L 534.856818 252.2 
L 534.856818 252.165115 
L 530.162215 252.165115 
z
" style="fill:#1f77b4;opacity:0.5;"/>
   </g>
   <g id="patch_103">
    <path clip-path="url(#pb96d09844a)" d="M 64.793182 252.2 
L 65.411931 252.2 
L 65.411931 214.880027 
L 64.793182 214.880027 
z
" style="fill:#ff7f0e;opacity:0.5;"/>
   </g>
   <g id="patch_104">
    <path clip-path="url(#pb96d09844a)" d="M 65.411931 252.2 
L 66.03068 252.2 
L 66.03068 121.977116 
L 65.411931 121.977116 
z
" style="fill:#ff7f0e;opacity:0.5;"/>
   </g>
   <g id="patch_105">
    <path clip-path="url(#pb96d09844a)" d="M 66.03068 252.2 
L 66.649429 252.2 
L 66.649429 62.423968 
L 66.03068 62.423968 
z
" style="fill:#ff7f0e;opacity:0.5;"/>
   </g>
   <g id="patch_106">
    <path clip-path="url(#pb96d09844a)" d="M 66.649429 252.2 
L 67.268179 252.2 
L 67.268179 28.809524 
L 66.649429 28.809524 
z
" style="fill:#ff7f0e;opacity:0.5;"/>
   </g>
   <g id="patch_107">
    <path clip-path="url(#pb96d09844a)" d="M 67.268179 252.2 
L 67.886928 252.2 
L 67.886928 37.808666 
L 67.268179 37.808666 
z
" style="fill:#ff7f0e;opacity:0.5;"/>
   </g>
   <g id="patch_108">
    <path clip-path="url(#pb96d09844a)" d="M 67.886928 252.2 
L 68.505677 252.2 
L 68.505677 51.57206 
L 67.886928 51.57206 
z
" style="fill:#ff7f0e;opacity:0.5;"/>
   </g>
   <g id="patch_109">
    <path clip-path="url(#pb96d09844a)" d="M 68.505677 252.2 
L 69.124426 252.2 
L 69.124426 69.835026 
L 68.505677 69.835026 
z
" style="fill:#ff7f0e;opacity:0.5;"/>
   </g>
   <g id="patch_110">
    <path clip-path="url(#pb96d09844a)" d="M 69.124426 252.2 
L 69.743175 252.2 
L 69.743175 101.067344 
L 69.124426 101.067344 
z
" style="fill:#ff7f0e;opacity:0.5;"/>
   </g>
   <g id="patch_111">
    <path clip-path="url(#pb96d09844a)" d="M 69.743175 252.2 
L 70.361925 252.2 
L 70.361925 125.417964 
L 69.743175 125.417964 
z
" style="fill:#ff7f0e;opacity:0.5;"/>
   </g>
   <g id="patch_112">
    <path clip-path="url(#pb96d09844a)" d="M 70.361925 252.2 
L 70.980674 252.2 
L 70.980674 139.71072 
L 70.361925 139.71072 
z
" style="fill:#ff7f0e;opacity:0.5;"/>
   </g>
   <g id="patch_113">
    <path clip-path="url(#pb96d09844a)" d="M 70.980674 252.2 
L 71.599423 252.2 
L 71.599423 144.210291 
L 70.980674 144.210291 
z
" style="fill:#ff7f0e;opacity:0.5;"/>
   </g>
   <g id="patch_114">
    <path clip-path="url(#pb96d09844a)" d="M 71.599423 252.2 
L 72.218172 252.2 
L 72.218172 157.973685 
L 71.599423 157.973685 
z
" style="fill:#ff7f0e;opacity:0.5;"/>
   </g>
   <g id="patch_115">
    <path clip-path="url(#pb96d09844a)" d="M 72.218172 252.2 
L 72.836921 252.2 
L 72.836921 174.119206 
L 72.218172 174.119206 
z
" style="fill:#ff7f0e;opacity:0.5;"/>
   </g>
   <g id="patch_116">
    <path clip-path="url(#pb96d09844a)" d="M 72.836921 252.2 
L 73.455671 252.2 
L 73.455671 178.883457 
L 72.836921 178.883457 
z
" style="fill:#ff7f0e;opacity:0.5;"/>
   </g>
   <g id="patch_117">
    <path clip-path="url(#pb96d09844a)" d="M 73.455671 252.2 
L 74.07442 252.2 
L 74.07442 183.91239 
L 73.455671 183.91239 
z
" style="fill:#ff7f0e;opacity:0.5;"/>
   </g>
   <g id="patch_118">
    <path clip-path="url(#pb96d09844a)" d="M 74.07442 252.2 
L 74.693169 252.2 
L 74.693169 195.558339 
L 74.07442 195.558339 
z
" style="fill:#ff7f0e;opacity:0.5;"/>
   </g>
   <g id="patch_119">
    <path clip-path="url(#pb96d09844a)" d="M 74.693169 252.2 
L 75.311918 252.2 
L 75.311918 198.734507 
L 74.693169 198.734507 
z
" style="fill:#ff7f0e;opacity:0.5;"/>
   </g>
   <g id="patch_120">
    <path clip-path="url(#pb96d09844a)" d="M 75.311918 252.2 
L 75.930667 252.2 
L 75.930667 207.468969 
L 75.311918 207.468969 
z
" style="fill:#ff7f0e;opacity:0.5;"/>
   </g>
   <g id="patch_121">
    <path clip-path="url(#pb96d09844a)" d="M 75.930667 252.2 
L 76.549417 252.2 
L 76.549417 213.027262 
L 75.930667 213.027262 
z
" style="fill:#ff7f0e;opacity:0.5;"/>
   </g>
   <g id="patch_122">
    <path clip-path="url(#pb96d09844a)" d="M 76.549417 252.2 
L 77.168166 252.2 
L 77.168166 221.761724 
L 76.549417 221.761724 
z
" style="fill:#ff7f0e;opacity:0.5;"/>
   </g>
   <g id="patch_123">
    <path clip-path="url(#pb96d09844a)" d="M 77.168166 252.2 
L 77.786915 252.2 
L 77.786915 218.056195 
L 77.168166 218.056195 
z
" style="fill:#ff7f0e;opacity:0.5;"/>
   </g>
   <g id="patch_124">
    <path clip-path="url(#pb96d09844a)" d="M 77.786915 252.2 
L 78.405664 252.2 
L 78.405664 217.791514 
L 77.786915 217.791514 
z
" style="fill:#ff7f0e;opacity:0.5;"/>
   </g>
   <g id="patch_125">
    <path clip-path="url(#pb96d09844a)" d="M 78.405664 252.2 
L 79.024413 252.2 
L 79.024413 223.085128 
L 78.405664 223.085128 
z
" style="fill:#ff7f0e;opacity:0.5;"/>
   </g>
   <g id="patch_126">
    <path clip-path="url(#pb96d09844a)" d="M 79.024413 252.2 
L 79.643163 252.2 
L 79.643163 230.496186 
L 79.024413 230.496186 
z
" style="fill:#ff7f0e;opacity:0.5;"/>
   </g>
   <g id="patch_127">
    <path clip-path="url(#pb96d09844a)" d="M 79.643163 252.2 
L 80.261912 252.2 
L 80.261912 224.14385 
L 79.643163 224.14385 
z
" style="fill:#ff7f0e;opacity:0.5;"/>
   </g>
   <g id="patch_128">
    <path clip-path="url(#pb96d09844a)" d="M 80.261912 252.2 
L 80.880661 252.2 
L 80.880661 232.348951 
L 80.261912 232.348951 
z
" style="fill:#ff7f0e;opacity:0.5;"/>
   </g>
   <g id="patch_129">
    <path clip-path="url(#pb96d09844a)" d="M 80.880661 252.2 
L 81.49941 252.2 
L 81.49941 232.08427 
L 80.880661 232.08427 
z
" style="fill:#ff7f0e;opacity:0.5;"/>
   </g>
   <g id="patch_130">
    <path clip-path="url(#pb96d09844a)" d="M 81.49941 252.2 
L 82.118159 252.2 
L 82.118159 233.937035 
L 81.49941 233.937035 
z
" style="fill:#ff7f0e;opacity:0.5;"/>
   </g>
   <g id="patch_131">
    <path clip-path="url(#pb96d09844a)" d="M 82.118159 252.2 
L 82.736909 252.2 
L 82.736909 237.907244 
L 82.118159 237.907244 
z
" style="fill:#ff7f0e;opacity:0.5;"/>
   </g>
   <g id="patch_132">
    <path clip-path="url(#pb96d09844a)" d="M 82.736909 252.2 
L 83.355658 252.2 
L 83.355658 240.28937 
L 82.736909 240.28937 
z
" style="fill:#ff7f0e;opacity:0.5;"/>
   </g>
   <g id="patch_133">
    <path clip-path="url(#pb96d09844a)" d="M 83.355658 252.2 
L 83.974407 252.2 
L 83.974407 235.789799 
L 83.355658 235.789799 
z
" style="fill:#ff7f0e;opacity:0.5;"/>
   </g>
   <g id="patch_134">
    <path clip-path="url(#pb96d09844a)" d="M 83.974407 252.2 
L 84.593156 252.2 
L 84.593156 240.02469 
L 83.974407 240.02469 
z
" style="fill:#ff7f0e;opacity:0.5;"/>
   </g>
   <g id="patch_135">
    <path clip-path="url(#pb96d09844a)" d="M 84.593156 252.2 
L 85.211905 252.2 
L 85.211905 241.612774 
L 84.593156 241.612774 
z
" style="fill:#ff7f0e;opacity:0.5;"/>
   </g>
   <g id="patch_136">
    <path clip-path="url(#pb96d09844a)" d="M 85.211905 252.2 
L 85.830655 252.2 
L 85.830655 241.083412 
L 85.211905 241.083412 
z
" style="fill:#ff7f0e;opacity:0.5;"/>
   </g>
   <g id="patch_137">
    <path clip-path="url(#pb96d09844a)" d="M 85.830655 252.2 
L 86.449404 252.2 
L 86.449404 242.142135 
L 85.830655 242.142135 
z
" style="fill:#ff7f0e;opacity:0.5;"/>
   </g>
   <g id="patch_138">
    <path clip-path="url(#pb96d09844a)" d="M 86.449404 252.2 
L 87.068153 252.2 
L 87.068153 243.200858 
L 86.449404 243.200858 
z
" style="fill:#ff7f0e;opacity:0.5;"/>
   </g>
   <g id="patch_139">
    <path clip-path="url(#pb96d09844a)" d="M 87.068153 252.2 
L 87.686902 252.2 
L 87.686902 243.9949 
L 87.068153 243.9949 
z
" style="fill:#ff7f0e;opacity:0.5;"/>
   </g>
   <g id="patch_140">
    <path clip-path="url(#pb96d09844a)" d="M 87.686902 252.2 
L 88.305651 252.2 
L 88.305651 243.9949 
L 87.686902 243.9949 
z
" style="fill:#ff7f0e;opacity:0.5;"/>
   </g>
   <g id="patch_141">
    <path clip-path="url(#pb96d09844a)" d="M 88.305651 252.2 
L 88.924401 252.2 
L 88.924401 243.730219 
L 88.305651 243.730219 
z
" style="fill:#ff7f0e;opacity:0.5;"/>
   </g>
   <g id="patch_142">
    <path clip-path="url(#pb96d09844a)" d="M 88.924401 252.2 
L 89.54315 252.2 
L 89.54315 244.788942 
L 88.924401 244.788942 
z
" style="fill:#ff7f0e;opacity:0.5;"/>
   </g>
   <g id="patch_143">
    <path clip-path="url(#pb96d09844a)" d="M 89.54315 252.2 
L 90.161899 252.2 
L 90.161899 245.847664 
L 89.54315 245.847664 
z
" style="fill:#ff7f0e;opacity:0.5;"/>
   </g>
   <g id="patch_144">
    <path clip-path="url(#pb96d09844a)" d="M 90.161899 252.2 
L 90.780648 252.2 
L 90.780648 246.906387 
L 90.161899 246.906387 
z
" style="fill:#ff7f0e;opacity:0.5;"/>
   </g>
   <g id="patch_145">
    <path clip-path="url(#pb96d09844a)" d="M 90.780648 252.2 
L 91.399397 252.2 
L 91.399397 246.641706 
L 90.780648 246.641706 
z
" style="fill:#ff7f0e;opacity:0.5;"/>
   </g>
   <g id="patch_146">
    <path clip-path="url(#pb96d09844a)" d="M 91.399397 252.2 
L 92.018147 252.2 
L 92.018147 246.112345 
L 91.399397 246.112345 
z
" style="fill:#ff7f0e;opacity:0.5;"/>
   </g>
   <g id="patch_147">
    <path clip-path="url(#pb96d09844a)" d="M 92.018147 252.2 
L 92.636896 252.2 
L 92.636896 246.641706 
L 92.018147 246.641706 
z
" style="fill:#ff7f0e;opacity:0.5;"/>
   </g>
   <g id="patch_148">
    <path clip-path="url(#pb96d09844a)" d="M 92.636896 252.2 
L 93.255645 252.2 
L 93.255645 245.053622 
L 92.636896 245.053622 
z
" style="fill:#ff7f0e;opacity:0.5;"/>
   </g>
   <g id="patch_149">
    <path clip-path="url(#pb96d09844a)" d="M 93.255645 252.2 
L 93.874394 252.2 
L 93.874394 248.759151 
L 93.255645 248.759151 
z
" style="fill:#ff7f0e;opacity:0.5;"/>
   </g>
   <g id="patch_150">
    <path clip-path="url(#pb96d09844a)" d="M 93.874394 252.2 
L 94.493143 252.2 
L 94.493143 248.22979 
L 93.874394 248.22979 
z
" style="fill:#ff7f0e;opacity:0.5;"/>
   </g>
   <g id="patch_151">
    <path clip-path="url(#pb96d09844a)" d="M 94.493143 252.2 
L 95.111893 252.2 
L 95.111893 247.700429 
L 94.493143 247.700429 
z
" style="fill:#ff7f0e;opacity:0.5;"/>
   </g>
   <g id="patch_152">
    <path clip-path="url(#pb96d09844a)" d="M 95.111893 252.2 
L 95.730642 252.2 
L 95.730642 249.288513 
L 95.111893 249.288513 
z
" style="fill:#ff7f0e;opacity:0.5;"/>
   </g>
   <g id="patch_153">
    <path clip-path="url(#pb96d09844a)" d="M 95.730642 252.2 
L 96.349391 252.2 
L 96.349391 249.023832 
L 95.730642 249.023832 
z
" style="fill:#ff7f0e;opacity:0.5;"/>
   </g>
   <g id="patch_154">
    <path clip-path="url(#pb96d09844a)" d="M 96.349391 252.2 
L 96.96814 252.2 
L 96.96814 248.22979 
L 96.349391 248.22979 
z
" style="fill:#ff7f0e;opacity:0.5;"/>
   </g>
   <g id="patch_155">
    <path clip-path="url(#pb96d09844a)" d="M 96.96814 252.2 
L 97.586889 252.2 
L 97.586889 247.965109 
L 96.96814 247.965109 
z
" style="fill:#ff7f0e;opacity:0.5;"/>
   </g>
   <g id="patch_156">
    <path clip-path="url(#pb96d09844a)" d="M 97.586889 252.2 
L 98.205639 252.2 
L 98.205639 250.082555 
L 97.586889 250.082555 
z
" style="fill:#ff7f0e;opacity:0.5;"/>
   </g>
   <g id="patch_157">
    <path clip-path="url(#pb96d09844a)" d="M 98.205639 252.2 
L 98.824388 252.2 
L 98.824388 251.141277 
L 98.205639 251.141277 
z
" style="fill:#ff7f0e;opacity:0.5;"/>
   </g>
   <g id="patch_158">
    <path clip-path="url(#pb96d09844a)" d="M 98.824388 252.2 
L 99.443137 252.2 
L 99.443137 249.817874 
L 98.824388 249.817874 
z
" style="fill:#ff7f0e;opacity:0.5;"/>
   </g>
   <g id="patch_159">
    <path clip-path="url(#pb96d09844a)" d="M 99.443137 252.2 
L 100.061886 252.2 
L 100.061886 250.347235 
L 99.443137 250.347235 
z
" style="fill:#ff7f0e;opacity:0.5;"/>
   </g>
   <g id="patch_160">
    <path clip-path="url(#pb96d09844a)" d="M 100.061886 252.2 
L 100.680635 252.2 
L 100.680635 250.082555 
L 100.061886 250.082555 
z
" style="fill:#ff7f0e;opacity:0.5;"/>
   </g>
   <g id="patch_161">
    <path clip-path="url(#pb96d09844a)" d="M 100.680635 252.2 
L 101.299385 252.2 
L 101.299385 251.405958 
L 100.680635 251.405958 
z
" style="fill:#ff7f0e;opacity:0.5;"/>
   </g>
   <g id="patch_162">
    <path clip-path="url(#pb96d09844a)" d="M 101.299385 252.2 
L 101.918134 252.2 
L 101.918134 250.876597 
L 101.299385 250.876597 
z
" style="fill:#ff7f0e;opacity:0.5;"/>
   </g>
   <g id="patch_163">
    <path clip-path="url(#pb96d09844a)" d="M 101.918134 252.2 
L 102.536883 252.2 
L 102.536883 250.347235 
L 101.918134 250.347235 
z
" style="fill:#ff7f0e;opacity:0.5;"/>
   </g>
   <g id="patch_164">
    <path clip-path="url(#pb96d09844a)" d="M 102.536883 252.2 
L 103.155632 252.2 
L 103.155632 252.2 
L 102.536883 252.2 
z
" style="fill:#ff7f0e;opacity:0.5;"/>
   </g>
   <g id="patch_165">
    <path clip-path="url(#pb96d09844a)" d="M 103.155632 252.2 
L 103.774381 252.2 
L 103.774381 250.347235 
L 103.155632 250.347235 
z
" style="fill:#ff7f0e;opacity:0.5;"/>
   </g>
   <g id="patch_166">
    <path clip-path="url(#pb96d09844a)" d="M 103.774381 252.2 
L 104.393131 252.2 
L 104.393131 250.876597 
L 103.774381 250.876597 
z
" style="fill:#ff7f0e;opacity:0.5;"/>
   </g>
   <g id="patch_167">
    <path clip-path="url(#pb96d09844a)" d="M 104.393131 252.2 
L 105.01188 252.2 
L 105.01188 250.876597 
L 104.393131 250.876597 
z
" style="fill:#ff7f0e;opacity:0.5;"/>
   </g>
   <g id="patch_168">
    <path clip-path="url(#pb96d09844a)" d="M 105.01188 252.2 
L 105.630629 252.2 
L 105.630629 250.876597 
L 105.01188 250.876597 
z
" style="fill:#ff7f0e;opacity:0.5;"/>
   </g>
   <g id="patch_169">
    <path clip-path="url(#pb96d09844a)" d="M 105.630629 252.2 
L 106.249378 252.2 
L 106.249378 251.670639 
L 105.630629 251.670639 
z
" style="fill:#ff7f0e;opacity:0.5;"/>
   </g>
   <g id="patch_170">
    <path clip-path="url(#pb96d09844a)" d="M 106.249378 252.2 
L 106.868127 252.2 
L 106.868127 251.141277 
L 106.249378 251.141277 
z
" style="fill:#ff7f0e;opacity:0.5;"/>
   </g>
   <g id="patch_171">
    <path clip-path="url(#pb96d09844a)" d="M 106.868127 252.2 
L 107.486877 252.2 
L 107.486877 251.405958 
L 106.868127 251.405958 
z
" style="fill:#ff7f0e;opacity:0.5;"/>
   </g>
   <g id="patch_172">
    <path clip-path="url(#pb96d09844a)" d="M 107.486877 252.2 
L 108.105626 252.2 
L 108.105626 251.141277 
L 107.486877 251.141277 
z
" style="fill:#ff7f0e;opacity:0.5;"/>
   </g>
   <g id="patch_173">
    <path clip-path="url(#pb96d09844a)" d="M 108.105626 252.2 
L 108.724375 252.2 
L 108.724375 251.405958 
L 108.105626 251.405958 
z
" style="fill:#ff7f0e;opacity:0.5;"/>
   </g>
   <g id="patch_174">
    <path clip-path="url(#pb96d09844a)" d="M 108.724375 252.2 
L 109.343124 252.2 
L 109.343124 251.405958 
L 108.724375 251.405958 
z
" style="fill:#ff7f0e;opacity:0.5;"/>
   </g>
   <g id="patch_175">
    <path clip-path="url(#pb96d09844a)" d="M 109.343124 252.2 
L 109.961873 252.2 
L 109.961873 251.141277 
L 109.343124 251.141277 
z
" style="fill:#ff7f0e;opacity:0.5;"/>
   </g>
   <g id="patch_176">
    <path clip-path="url(#pb96d09844a)" d="M 109.961873 252.2 
L 110.580623 252.2 
L 110.580623 251.670639 
L 109.961873 251.670639 
z
" style="fill:#ff7f0e;opacity:0.5;"/>
   </g>
   <g id="patch_177">
    <path clip-path="url(#pb96d09844a)" d="M 110.580623 252.2 
L 111.199372 252.2 
L 111.199372 251.670639 
L 110.580623 251.670639 
z
" style="fill:#ff7f0e;opacity:0.5;"/>
   </g>
   <g id="patch_178">
    <path clip-path="url(#pb96d09844a)" d="M 111.199372 252.2 
L 111.818121 252.2 
L 111.818121 251.405958 
L 111.199372 251.405958 
z
" style="fill:#ff7f0e;opacity:0.5;"/>
   </g>
   <g id="patch_179">
    <path clip-path="url(#pb96d09844a)" d="M 111.818121 252.2 
L 112.43687 252.2 
L 112.43687 251.141277 
L 111.818121 251.141277 
z
" style="fill:#ff7f0e;opacity:0.5;"/>
   </g>
   <g id="patch_180">
    <path clip-path="url(#pb96d09844a)" d="M 112.43687 252.2 
L 113.055619 252.2 
L 113.055619 252.2 
L 112.43687 252.2 
z
" style="fill:#ff7f0e;opacity:0.5;"/>
   </g>
   <g id="patch_181">
    <path clip-path="url(#pb96d09844a)" d="M 113.055619 252.2 
L 113.674369 252.2 
L 113.674369 251.670639 
L 113.055619 251.670639 
z
" style="fill:#ff7f0e;opacity:0.5;"/>
   </g>
   <g id="patch_182">
    <path clip-path="url(#pb96d09844a)" d="M 113.674369 252.2 
L 114.293118 252.2 
L 114.293118 250.876597 
L 113.674369 250.876597 
z
" style="fill:#ff7f0e;opacity:0.5;"/>
   </g>
   <g id="patch_183">
    <path clip-path="url(#pb96d09844a)" d="M 114.293118 252.2 
L 114.911867 252.2 
L 114.911867 252.2 
L 114.293118 252.2 
z
" style="fill:#ff7f0e;opacity:0.5;"/>
   </g>
   <g id="patch_184">
    <path clip-path="url(#pb96d09844a)" d="M 114.911867 252.2 
L 115.530616 252.2 
L 115.530616 252.2 
L 114.911867 252.2 
z
" style="fill:#ff7f0e;opacity:0.5;"/>
   </g>
   <g id="patch_185">
    <path clip-path="url(#pb96d09844a)" d="M 115.530616 252.2 
L 116.149365 252.2 
L 116.149365 252.2 
L 115.530616 252.2 
z
" style="fill:#ff7f0e;opacity:0.5;"/>
   </g>
   <g id="patch_186">
    <path clip-path="url(#pb96d09844a)" d="M 116.149365 252.2 
L 116.768115 252.2 
L 116.768115 251.935319 
L 116.149365 251.935319 
z
" style="fill:#ff7f0e;opacity:0.5;"/>
   </g>
   <g id="patch_187">
    <path clip-path="url(#pb96d09844a)" d="M 116.768115 252.2 
L 117.386864 252.2 
L 117.386864 251.935319 
L 116.768115 251.935319 
z
" style="fill:#ff7f0e;opacity:0.5;"/>
   </g>
   <g id="patch_188">
    <path clip-path="url(#pb96d09844a)" d="M 117.386864 252.2 
L 118.005613 252.2 
L 118.005613 251.935319 
L 117.386864 251.935319 
z
" style="fill:#ff7f0e;opacity:0.5;"/>
   </g>
   <g id="patch_189">
    <path clip-path="url(#pb96d09844a)" d="M 118.005613 252.2 
L 118.624362 252.2 
L 118.624362 251.405958 
L 118.005613 251.405958 
z
" style="fill:#ff7f0e;opacity:0.5;"/>
   </g>
   <g id="patch_190">
    <path clip-path="url(#pb96d09844a)" d="M 118.624362 252.2 
L 119.243111 252.2 
L 119.243111 251.935319 
L 118.624362 251.935319 
z
" style="fill:#ff7f0e;opacity:0.5;"/>
   </g>
   <g id="patch_191">
    <path clip-path="url(#pb96d09844a)" d="M 119.243111 252.2 
L 119.861861 252.2 
L 119.861861 251.935319 
L 119.243111 251.935319 
z
" style="fill:#ff7f0e;opacity:0.5;"/>
   </g>
   <g id="patch_192">
    <path clip-path="url(#pb96d09844a)" d="M 119.861861 252.2 
L 120.48061 252.2 
L 120.48061 251.670639 
L 119.861861 251.670639 
z
" style="fill:#ff7f0e;opacity:0.5;"/>
   </g>
   <g id="patch_193">
    <path clip-path="url(#pb96d09844a)" d="M 120.48061 252.2 
L 121.099359 252.2 
L 121.099359 251.405958 
L 120.48061 251.405958 
z
" style="fill:#ff7f0e;opacity:0.5;"/>
   </g>
   <g id="patch_194">
    <path clip-path="url(#pb96d09844a)" d="M 121.099359 252.2 
L 121.718108 252.2 
L 121.718108 252.2 
L 121.099359 252.2 
z
" style="fill:#ff7f0e;opacity:0.5;"/>
   </g>
   <g id="patch_195">
    <path clip-path="url(#pb96d09844a)" d="M 121.718108 252.2 
L 122.336857 252.2 
L 122.336857 251.935319 
L 121.718108 251.935319 
z
" style="fill:#ff7f0e;opacity:0.5;"/>
   </g>
   <g id="patch_196">
    <path clip-path="url(#pb96d09844a)" d="M 122.336857 252.2 
L 122.955607 252.2 
L 122.955607 251.935319 
L 122.336857 251.935319 
z
" style="fill:#ff7f0e;opacity:0.5;"/>
   </g>
   <g id="patch_197">
    <path clip-path="url(#pb96d09844a)" d="M 122.955607 252.2 
L 123.574356 252.2 
L 123.574356 251.670639 
L 122.955607 251.670639 
z
" style="fill:#ff7f0e;opacity:0.5;"/>
   </g>
   <g id="patch_198">
    <path clip-path="url(#pb96d09844a)" d="M 123.574356 252.2 
L 124.193105 252.2 
L 124.193105 251.935319 
L 123.574356 251.935319 
z
" style="fill:#ff7f0e;opacity:0.5;"/>
   </g>
   <g id="patch_199">
    <path clip-path="url(#pb96d09844a)" d="M 124.193105 252.2 
L 124.811854 252.2 
L 124.811854 252.2 
L 124.193105 252.2 
z
" style="fill:#ff7f0e;opacity:0.5;"/>
   </g>
   <g id="patch_200">
    <path clip-path="url(#pb96d09844a)" d="M 124.811854 252.2 
L 125.430603 252.2 
L 125.430603 251.935319 
L 124.811854 251.935319 
z
" style="fill:#ff7f0e;opacity:0.5;"/>
   </g>
   <g id="patch_201">
    <path clip-path="url(#pb96d09844a)" d="M 125.430603 252.2 
L 126.049353 252.2 
L 126.049353 251.935319 
L 125.430603 251.935319 
z
" style="fill:#ff7f0e;opacity:0.5;"/>
   </g>
   <g id="patch_202">
    <path clip-path="url(#pb96d09844a)" d="M 126.049353 252.2 
L 126.668102 252.2 
L 126.668102 251.405958 
L 126.049353 251.405958 
z
" style="fill:#ff7f0e;opacity:0.5;"/>
   </g>
   <g id="matplotlib.axis_1">
    <g id="xtick_1">
     <g id="line2d_1">
      <path clip-path="url(#pb96d09844a)" d="M 63.861253 252.2 
L 63.861253 17.64 
" style="fill:none;stroke:#b0b0b0;stroke-dasharray:1.48,0.64;stroke-dashoffset:0;stroke-width:0.4;"/>
     </g>
     <g id="text_1">
      <!-- 0.0 -->
      <defs>
       <path d="M 42.390625 34.421875 
Q 42.390625 24.515625 40.84375 17.75 
Q 39.3125 10.984375 36.640625 6.8125 
Q 33.984375 2.640625 30.390625 0.828125 
Q 26.8125 -0.984375 22.703125 -0.984375 
Q 18.609375 -0.984375 15.03125 0.828125 
Q 11.46875 2.640625 8.828125 6.78125 
Q 6.203125 10.9375 4.703125 17.703125 
Q 3.21875 24.46875 3.21875 34.421875 
Q 3.21875 44.828125 4.703125 51.640625 
Q 6.203125 58.453125 8.828125 62.5 
Q 11.46875 66.546875 15.078125 68.1875 
Q 18.703125 69.828125 22.953125 69.828125 
Q 27 69.828125 30.53125 68.1875 
Q 34.078125 66.546875 36.71875 62.5 
Q 39.359375 58.453125 40.875 51.640625 
Q 42.390625 44.828125 42.390625 34.421875 
z
M 35.0625 34.421875 
Q 35.0625 42.625 34.28125 48.0625 
Q 33.5 53.515625 31.9375 56.765625 
Q 30.375 60.015625 28.09375 61.359375 
Q 25.828125 62.703125 22.953125 62.703125 
Q 19.921875 62.703125 17.578125 61.328125 
Q 15.234375 59.96875 13.671875 56.71875 
Q 12.109375 53.46875 11.296875 48.015625 
Q 10.5 42.578125 10.5 34.421875 
Q 10.5 26.515625 11.296875 21.09375 
Q 12.109375 15.671875 13.6875 12.375 
Q 15.28125 9.078125 17.578125 7.640625 
Q 19.875 6.203125 22.796875 6.203125 
Q 25.640625 6.203125 27.90625 7.640625 
Q 30.171875 9.078125 31.75 12.375 
Q 33.34375 15.671875 34.203125 21.09375 
Q 35.0625 26.515625 35.0625 34.421875 
z
" id="LiberationSansNarrow-48"/>
       <path d="M 7.46875 0 
L 7.46875 10.6875 
L 15.328125 10.6875 
L 15.328125 0 
z
" id="LiberationSansNarrow-46"/>
      </defs>
      <g transform="translate(55.88016 269.345625)scale(0.14 -0.14)">
       <use xlink:href="#LiberationSansNarrow-48"/>
       <use x="45.605469" xlink:href="#LiberationSansNarrow-46"/>
       <use x="68.408203" xlink:href="#LiberationSansNarrow-48"/>
      </g>
     </g>
    </g>
    <g id="xtick_2">
     <g id="line2d_2">
      <path clip-path="url(#pb96d09844a)" d="M 146.731608 252.2 
L 146.731608 17.64 
" style="fill:none;stroke:#b0b0b0;stroke-dasharray:1.48,0.64;stroke-dashoffset:0;stroke-width:0.4;"/>
     </g>
     <g id="text_2">
      <!-- 0.1 -->
      <defs>
       <path d="M 6.25 0 
L 6.25 7.46875 
L 20.609375 7.46875 
L 20.609375 60.40625 
L 7.90625 49.3125 
L 7.90625 57.625 
L 21.234375 68.796875 
L 27.875 68.796875 
L 27.875 7.46875 
L 41.609375 7.46875 
L 41.609375 0 
z
" id="LiberationSansNarrow-49"/>
      </defs>
      <g transform="translate(138.750514 269.345625)scale(0.14 -0.14)">
       <use xlink:href="#LiberationSansNarrow-48"/>
       <use x="45.605469" xlink:href="#LiberationSansNarrow-46"/>
       <use x="68.408203" xlink:href="#LiberationSansNarrow-49"/>
      </g>
     </g>
    </g>
    <g id="xtick_3">
     <g id="line2d_3">
      <path clip-path="url(#pb96d09844a)" d="M 229.601963 252.2 
L 229.601963 17.64 
" style="fill:none;stroke:#b0b0b0;stroke-dasharray:1.48,0.64;stroke-dashoffset:0;stroke-width:0.4;"/>
     </g>
     <g id="text_3">
      <!-- 0.2 -->
      <defs>
       <path d="M 4.109375 0 
L 4.109375 6.203125 
Q 6.15625 11.921875 9.109375 16.28125 
Q 12.0625 20.65625 15.3125 24.1875 
Q 18.5625 27.734375 21.734375 30.765625 
Q 24.90625 33.796875 27.46875 36.8125 
Q 30.03125 39.84375 31.609375 43.15625 
Q 33.203125 46.484375 33.203125 50.6875 
Q 33.203125 53.609375 32.46875 55.828125 
Q 31.734375 58.0625 30.390625 59.5625 
Q 29.046875 61.078125 27.140625 61.828125 
Q 25.25 62.59375 22.90625 62.59375 
Q 20.75 62.59375 18.84375 61.859375 
Q 16.9375 61.140625 15.453125 59.671875 
Q 13.96875 58.203125 13.03125 56.03125 
Q 12.109375 53.859375 11.8125 50.984375 
L 4.4375 51.8125 
Q 4.78125 55.515625 6.125 58.78125 
Q 7.46875 62.0625 9.78125 64.53125 
Q 12.109375 67 15.359375 68.40625 
Q 18.609375 69.828125 22.90625 69.828125 
Q 27.09375 69.828125 30.390625 68.609375 
Q 33.6875 67.390625 35.9375 64.984375 
Q 38.1875 62.59375 39.40625 59.078125 
Q 40.625 55.5625 40.625 50.984375 
Q 40.625 47.515625 39.59375 44.390625 
Q 38.578125 41.265625 36.859375 38.421875 
Q 35.15625 35.59375 32.90625 32.953125 
Q 30.671875 30.328125 28.21875 27.828125 
L 23.296875 22.859375 
Q 20.796875 20.359375 18.625 17.859375 
Q 16.453125 15.375 14.734375 12.8125 
Q 13.03125 10.25 12.0625 7.46875 
L 41.5 7.46875 
L 41.5 0 
z
" id="LiberationSansNarrow-50"/>
      </defs>
      <g transform="translate(221.620869 269.345625)scale(0.14 -0.14)">
       <use xlink:href="#LiberationSansNarrow-48"/>
       <use x="45.605469" xlink:href="#LiberationSansNarrow-46"/>
       <use x="68.408203" xlink:href="#LiberationSansNarrow-50"/>
      </g>
     </g>
    </g>
    <g id="xtick_4">
     <g id="line2d_4">
      <path clip-path="url(#pb96d09844a)" d="M 312.472318 252.2 
L 312.472318 17.64 
" style="fill:none;stroke:#b0b0b0;stroke-dasharray:1.48,0.64;stroke-dashoffset:0;stroke-width:0.4;"/>
     </g>
     <g id="text_4">
      <!-- 0.3 -->
      <defs>
       <path d="M 42 19 
Q 42 14.265625 40.75 10.546875 
Q 39.5 6.84375 37.0625 4.265625 
Q 34.625 1.703125 31.046875 0.359375 
Q 27.484375 -0.984375 22.859375 -0.984375 
Q 17.625 -0.984375 14.03125 0.609375 
Q 10.453125 2.203125 8.125 4.8125 
Q 5.8125 7.421875 4.640625 10.765625 
Q 3.46875 14.109375 3.125 17.671875 
L 10.546875 18.5 
Q 10.890625 15.765625 11.734375 13.515625 
Q 12.59375 11.28125 14.078125 9.671875 
Q 15.578125 8.0625 17.75 7.171875 
Q 19.921875 6.296875 22.859375 6.296875 
Q 28.328125 6.296875 31.421875 9.5625 
Q 34.515625 12.84375 34.515625 19.28125 
Q 34.515625 23.09375 33.125 25.40625 
Q 31.734375 27.734375 29.6875 29.03125 
Q 27.640625 30.328125 25.21875 30.765625 
Q 22.796875 31.203125 20.75 31.203125 
L 16.65625 31.203125 
L 16.65625 38.8125 
L 20.5625 38.8125 
Q 22.609375 38.8125 24.828125 39.328125 
Q 27.046875 39.84375 28.859375 41.1875 
Q 30.671875 42.53125 31.859375 44.828125 
Q 33.0625 47.125 33.0625 50.6875 
Q 33.0625 56.203125 30.375 59.390625 
Q 27.6875 62.59375 22.46875 62.59375 
Q 17.671875 62.59375 14.734375 59.609375 
Q 11.8125 56.640625 11.328125 51.21875 
L 4.109375 51.90625 
Q 4.546875 56.453125 6.125 59.8125 
Q 7.71875 63.1875 10.171875 65.40625 
Q 12.640625 67.625 15.8125 68.71875 
Q 19 69.828125 22.5625 69.828125 
Q 27.296875 69.828125 30.6875 68.375 
Q 34.078125 66.9375 36.21875 64.46875 
Q 38.375 62.015625 39.40625 58.6875 
Q 40.4375 55.375 40.4375 51.609375 
Q 40.4375 48.578125 39.75 45.9375 
Q 39.0625 43.3125 37.625 41.203125 
Q 36.1875 39.109375 33.953125 37.59375 
Q 31.734375 36.078125 28.609375 35.296875 
L 28.609375 35.109375 
Q 32.03125 34.671875 34.546875 33.21875 
Q 37.0625 31.78125 38.71875 29.625 
Q 40.375 27.484375 41.1875 24.75 
Q 42 22.015625 42 19 
z
" id="LiberationSansNarrow-51"/>
      </defs>
      <g transform="translate(304.491224 269.345625)scale(0.14 -0.14)">
       <use xlink:href="#LiberationSansNarrow-48"/>
       <use x="45.605469" xlink:href="#LiberationSansNarrow-46"/>
       <use x="68.408203" xlink:href="#LiberationSansNarrow-51"/>
      </g>
     </g>
    </g>
    <g id="xtick_5">
     <g id="line2d_5">
      <path clip-path="url(#pb96d09844a)" d="M 395.342673 252.2 
L 395.342673 17.64 
" style="fill:none;stroke:#b0b0b0;stroke-dasharray:1.48,0.64;stroke-dashoffset:0;stroke-width:0.4;"/>
     </g>
     <g id="text_5">
      <!-- 0.4 -->
      <defs>
       <path d="M 35.25 15.578125 
L 35.25 0 
L 28.46875 0 
L 28.46875 15.578125 
L 1.90625 15.578125 
L 1.90625 22.40625 
L 27.6875 68.796875 
L 35.25 68.796875 
L 35.25 22.515625 
L 43.21875 22.515625 
L 43.21875 15.578125 
z
M 28.46875 58.890625 
Q 28.375 58.640625 28.03125 57.90625 
L 27.34375 56.34375 
L 26.5625 54.59375 
Q 26.125 53.65625 25.78125 53.078125 
L 11.328125 27.09375 
Q 11.140625 26.703125 10.75 26.078125 
L 9.96875 24.8125 
L 9.1875 23.484375 
Q 8.796875 22.859375 8.546875 22.515625 
L 28.46875 22.515625 
z
" id="LiberationSansNarrow-52"/>
      </defs>
      <g transform="translate(387.361579 269.345625)scale(0.14 -0.14)">
       <use xlink:href="#LiberationSansNarrow-48"/>
       <use x="45.605469" xlink:href="#LiberationSansNarrow-46"/>
       <use x="68.408203" xlink:href="#LiberationSansNarrow-52"/>
      </g>
     </g>
    </g>
    <g id="xtick_6">
     <g id="line2d_6">
      <path clip-path="url(#pb96d09844a)" d="M 478.213028 252.2 
L 478.213028 17.64 
" style="fill:none;stroke:#b0b0b0;stroke-dasharray:1.48,0.64;stroke-dashoffset:0;stroke-width:0.4;"/>
     </g>
     <g id="text_6">
      <!-- 0.5 -->
      <defs>
       <path d="M 42.140625 22.40625 
Q 42.140625 17.234375 40.859375 12.9375 
Q 39.59375 8.640625 37.078125 5.53125 
Q 34.578125 2.4375 30.8125 0.71875 
Q 27.046875 -0.984375 22.125 -0.984375 
Q 17.671875 -0.984375 14.375 0.28125 
Q 11.078125 1.5625 8.8125 3.78125 
Q 6.546875 6 5.203125 8.984375 
Q 3.859375 11.96875 3.265625 15.375 
L 10.546875 16.40625 
Q 10.984375 14.453125 11.78125 12.625 
Q 12.59375 10.796875 13.984375 9.34375 
Q 15.375 7.90625 17.40625 7.046875 
Q 19.4375 6.203125 22.3125 6.203125 
Q 25.09375 6.203125 27.390625 7.25 
Q 29.6875 8.296875 31.296875 10.34375 
Q 32.90625 12.40625 33.78125 15.375 
Q 34.671875 18.359375 34.671875 22.21875 
Q 34.671875 25.390625 33.84375 28.046875 
Q 33.015625 30.71875 31.453125 32.640625 
Q 29.890625 34.578125 27.609375 35.640625 
Q 25.34375 36.71875 22.46875 36.71875 
Q 20.65625 36.71875 19.140625 36.328125 
Q 17.625 35.9375 16.328125 35.25 
Q 15.046875 34.578125 13.96875 33.671875 
Q 12.890625 32.765625 11.96875 31.78125 
L 4.9375 31.78125 
L 6.78125 68.796875 
L 38.875 68.796875 
L 38.875 61.328125 
L 13.375 61.328125 
L 12.3125 39.5 
Q 14.203125 41.3125 17.078125 42.59375 
Q 19.96875 43.890625 23.921875 43.890625 
Q 28.125 43.890625 31.484375 42.328125 
Q 34.859375 40.765625 37.21875 37.90625 
Q 39.59375 35.0625 40.859375 31.109375 
Q 42.140625 27.15625 42.140625 22.40625 
z
" id="LiberationSansNarrow-53"/>
      </defs>
      <g transform="translate(470.231934 269.345625)scale(0.14 -0.14)">
       <use xlink:href="#LiberationSansNarrow-48"/>
       <use x="45.605469" xlink:href="#LiberationSansNarrow-46"/>
       <use x="68.408203" xlink:href="#LiberationSansNarrow-53"/>
      </g>
     </g>
    </g>
   </g>
   <g id="matplotlib.axis_2">
    <g id="ytick_1">
     <g id="line2d_7">
      <path clip-path="url(#pb96d09844a)" d="M 41.29 252.2 
L 558.36 252.2 
" style="fill:none;stroke:#b0b0b0;stroke-dasharray:1.48,0.64;stroke-dashoffset:0;stroke-width:0.4;"/>
     </g>
     <g id="text_7">
      <!-- 0 -->
      <g transform="translate(27.904688 257.272812)scale(0.14 -0.14)">
       <use xlink:href="#LiberationSansNarrow-48"/>
      </g>
     </g>
    </g>
    <g id="ytick_2">
     <g id="line2d_8">
      <path clip-path="url(#pb96d09844a)" d="M 41.29 212.675384 
L 558.36 212.675384 
" style="fill:none;stroke:#b0b0b0;stroke-dasharray:1.48,0.64;stroke-dashoffset:0;stroke-width:0.4;"/>
     </g>
     <g id="text_8">
      <!-- 20 -->
      <g transform="translate(21.519375 217.748197)scale(0.14 -0.14)">
       <use xlink:href="#LiberationSansNarrow-50"/>
       <use x="45.605469" xlink:href="#LiberationSansNarrow-48"/>
      </g>
     </g>
    </g>
    <g id="ytick_3">
     <g id="line2d_9">
      <path clip-path="url(#pb96d09844a)" d="M 41.29 173.150769 
L 558.36 173.150769 
" style="fill:none;stroke:#b0b0b0;stroke-dasharray:1.48,0.64;stroke-dashoffset:0;stroke-width:0.4;"/>
     </g>
     <g id="text_9">
      <!-- 40 -->
      <g transform="translate(21.519375 178.223581)scale(0.14 -0.14)">
       <use xlink:href="#LiberationSansNarrow-52"/>
       <use x="45.605469" xlink:href="#LiberationSansNarrow-48"/>
      </g>
     </g>
    </g>
    <g id="ytick_4">
     <g id="line2d_10">
      <path clip-path="url(#pb96d09844a)" d="M 41.29 133.626153 
L 558.36 133.626153 
" style="fill:none;stroke:#b0b0b0;stroke-dasharray:1.48,0.64;stroke-dashoffset:0;stroke-width:0.4;"/>
     </g>
     <g id="text_10">
      <!-- 60 -->
      <defs>
       <path d="M 42 22.515625 
Q 42 17.328125 40.828125 13 
Q 39.65625 8.6875 37.359375 5.578125 
Q 35.0625 2.484375 31.640625 0.75 
Q 28.21875 -0.984375 23.78125 -0.984375 
Q 18.84375 -0.984375 15.15625 1.3125 
Q 11.46875 3.609375 9.03125 7.921875 
Q 6.59375 12.25 5.375 18.53125 
Q 4.15625 24.8125 4.15625 32.8125 
Q 4.15625 42 5.546875 48.921875 
Q 6.9375 55.859375 9.515625 60.5 
Q 12.109375 65.140625 15.859375 67.484375 
Q 19.625 69.828125 24.359375 69.828125 
Q 27.25 69.828125 29.765625 69.09375 
Q 32.28125 68.359375 34.328125 66.71875 
Q 36.375 65.09375 37.9375 62.40625 
Q 39.5 59.71875 40.4375 55.8125 
L 33.546875 54.296875 
Q 32.421875 58.734375 29.953125 60.71875 
Q 27.484375 62.703125 24.265625 62.703125 
Q 21.296875 62.703125 18.890625 60.984375 
Q 16.5 59.28125 14.8125 55.875 
Q 13.140625 52.484375 12.234375 47.359375 
Q 11.328125 42.234375 11.328125 35.40625 
Q 13.28125 39.84375 16.84375 42.15625 
Q 20.40625 44.484375 25.046875 44.484375 
Q 28.90625 44.484375 32 42.96875 
Q 35.109375 41.453125 37.328125 38.59375 
Q 39.546875 35.75 40.765625 31.671875 
Q 42 27.59375 42 22.515625 
z
M 34.671875 22.125 
Q 34.671875 25.6875 33.953125 28.5625 
Q 33.25 31.453125 31.8125 33.46875 
Q 30.375 35.5 28.25 36.59375 
Q 26.125 37.703125 23.296875 37.703125 
Q 21.34375 37.703125 19.328125 36.984375 
Q 17.328125 36.28125 15.71875 34.6875 
Q 14.109375 33.109375 13.078125 30.515625 
Q 12.0625 27.9375 12.0625 24.21875 
Q 12.0625 20.40625 12.859375 17.109375 
Q 13.671875 13.8125 15.15625 11.375 
Q 16.65625 8.9375 18.78125 7.515625 
Q 20.90625 6.109375 23.53125 6.109375 
Q 26.125 6.109375 28.203125 7.203125 
Q 30.28125 8.296875 31.71875 10.375 
Q 33.15625 12.453125 33.90625 15.421875 
Q 34.671875 18.40625 34.671875 22.125 
z
" id="LiberationSansNarrow-54"/>
      </defs>
      <g transform="translate(21.519375 138.698966)scale(0.14 -0.14)">
       <use xlink:href="#LiberationSansNarrow-54"/>
       <use x="45.605469" xlink:href="#LiberationSansNarrow-48"/>
      </g>
     </g>
    </g>
    <g id="ytick_5">
     <g id="line2d_11">
      <path clip-path="url(#pb96d09844a)" d="M 41.29 94.101537 
L 558.36 94.101537 
" style="fill:none;stroke:#b0b0b0;stroke-dasharray:1.48,0.64;stroke-dashoffset:0;stroke-width:0.4;"/>
     </g>
     <g id="text_11">
      <!-- 80 -->
      <defs>
       <path d="M 42.046875 19.1875 
Q 42.046875 14.796875 40.890625 11.109375 
Q 39.75 7.421875 37.40625 4.734375 
Q 35.0625 2.046875 31.421875 0.53125 
Q 27.78125 -0.984375 22.796875 -0.984375 
Q 17.828125 -0.984375 14.203125 0.53125 
Q 10.59375 2.046875 8.21875 4.703125 
Q 5.859375 7.375 4.703125 11.0625 
Q 3.5625 14.75 3.5625 19.09375 
Q 3.5625 22.859375 4.515625 25.78125 
Q 5.46875 28.71875 7.03125 30.828125 
Q 8.59375 32.953125 10.609375 34.25 
Q 12.640625 35.546875 14.796875 35.984375 
L 14.796875 36.1875 
Q 12.453125 36.859375 10.59375 38.375 
Q 8.734375 39.890625 7.46875 42.015625 
Q 6.203125 44.140625 5.546875 46.71875 
Q 4.890625 49.3125 4.890625 52.203125 
Q 4.890625 55.8125 6.03125 59 
Q 7.171875 62.203125 9.421875 64.625 
Q 11.671875 67.046875 14.984375 68.4375 
Q 18.3125 69.828125 22.65625 69.828125 
Q 27.25 69.828125 30.640625 68.40625 
Q 34.03125 67 36.25 64.578125 
Q 38.484375 62.15625 39.546875 58.9375 
Q 40.625 55.71875 40.625 52.09375 
Q 40.625 49.265625 39.96875 46.671875 
Q 39.3125 44.09375 38.0625 41.96875 
Q 36.8125 39.84375 34.9375 38.34375 
Q 33.0625 36.859375 30.609375 36.28125 
L 30.609375 36.078125 
Q 33.0625 35.59375 35.15625 34.296875 
Q 37.25 33.015625 38.765625 30.890625 
Q 40.28125 28.765625 41.15625 25.828125 
Q 42.046875 22.90625 42.046875 19.1875 
z
M 33.15625 51.609375 
Q 33.15625 54.203125 32.609375 56.34375 
Q 32.078125 58.5 30.828125 60.03125 
Q 29.59375 61.578125 27.59375 62.421875 
Q 25.59375 63.28125 22.65625 63.28125 
Q 19.828125 63.28125 17.875 62.421875 
Q 15.921875 61.578125 14.640625 60.03125 
Q 13.375 58.5 12.8125 56.34375 
Q 12.25 54.203125 12.25 51.609375 
Q 12.25 49.5625 12.6875 47.40625 
Q 13.140625 45.265625 14.3125 43.5 
Q 15.484375 41.75 17.5 40.625 
Q 19.53125 39.5 22.75 39.5 
Q 26.171875 39.5 28.21875 40.625 
Q 30.28125 41.75 31.375 43.5 
Q 32.46875 45.265625 32.8125 47.40625 
Q 33.15625 49.5625 33.15625 51.609375 
z
M 34.578125 20.015625 
Q 34.578125 22.515625 34.015625 24.828125 
Q 33.453125 27.15625 32.078125 28.9375 
Q 30.71875 30.71875 28.421875 31.8125 
Q 26.125 32.90625 22.65625 32.90625 
Q 19.484375 32.90625 17.265625 31.8125 
Q 15.046875 30.71875 13.671875 28.90625 
Q 12.3125 27.09375 11.671875 24.71875 
Q 11.03125 22.359375 11.03125 19.828125 
Q 11.03125 16.65625 11.671875 14.03125 
Q 12.3125 11.421875 13.703125 9.546875 
Q 15.09375 7.671875 17.375 6.640625 
Q 19.671875 5.609375 22.90625 5.609375 
Q 26.171875 5.609375 28.421875 6.640625 
Q 30.671875 7.671875 32.03125 9.546875 
Q 33.40625 11.421875 33.984375 14.078125 
Q 34.578125 16.75 34.578125 20.015625 
z
" id="LiberationSansNarrow-56"/>
      </defs>
      <g transform="translate(21.519375 99.17435)scale(0.14 -0.14)">
       <use xlink:href="#LiberationSansNarrow-56"/>
       <use x="45.605469" xlink:href="#LiberationSansNarrow-48"/>
      </g>
     </g>
    </g>
    <g id="ytick_6">
     <g id="line2d_12">
      <path clip-path="url(#pb96d09844a)" d="M 41.29 54.576922 
L 558.36 54.576922 
" style="fill:none;stroke:#b0b0b0;stroke-dasharray:1.48,0.64;stroke-dashoffset:0;stroke-width:0.4;"/>
     </g>
     <g id="text_12">
      <!-- 100 -->
      <g transform="translate(15.134063 59.649734)scale(0.14 -0.14)">
       <use xlink:href="#LiberationSansNarrow-49"/>
       <use x="45.605469" xlink:href="#LiberationSansNarrow-48"/>
       <use x="91.210938" xlink:href="#LiberationSansNarrow-48"/>
      </g>
     </g>
    </g>
   </g>
  </g>
 </g>
 <defs>
  <clipPath id="pb96d09844a">
   <rect height="234.56" width="517.07" x="41.29" y="17.64"/>
  </clipPath>
 </defs>
</svg>
