<?xml version="1.0" encoding="utf-8" standalone="no"?>
<!DOCTYPE svg PUBLIC "-//W3C//DTD SVG 1.1//EN"
  "http://www.w3.org/Graphics/SVG/1.1/DTD/svg11.dtd">
<!-- Created with matplotlib (https://matplotlib.org/) -->
<svg height="288pt" version="1.1" viewBox="0 0 576 288" width="576pt" xmlns="http://www.w3.org/2000/svg" xmlns:xlink="http://www.w3.org/1999/xlink">
 <metadata>
  <rdf:RDF xmlns:cc="http://creativecommons.org/ns#" xmlns:dc="http://purl.org/dc/elements/1.1/" xmlns:rdf="http://www.w3.org/1999/02/22-rdf-syntax-ns#">
   <cc:Work>
    <dc:type rdf:resource="http://purl.org/dc/dcmitype/StillImage"/>
    <dc:date>2021-08-10T12:54:45.587105</dc:date>
    <dc:format>image/svg+xml</dc:format>
    <dc:creator>
     <cc:Agent>
      <dc:title>Matplotlib v3.3.4, https://matplotlib.org/</dc:title>
     </cc:Agent>
    </dc:creator>
   </cc:Work>
  </rdf:RDF>
 </metadata>
 <defs>
  <style type="text/css">*{stroke-linecap:butt;stroke-linejoin:round;}</style>
 </defs>
 <g id="figure_1">
  <g id="patch_1">
   <path d="M 0 288 
L 576 288 
L 576 0 
L 0 0 
z
" style="fill:#ffffff;"/>
  </g>
  <g id="axes_1">
   <g id="patch_2">
    <path d="M 46.19 234.52 
L 560.88 234.52 
L 560.88 15.12 
L 46.19 15.12 
z
" style="fill:#ffffff;"/>
   </g>
   <g id="matplotlib.axis_1">
    <g id="xtick_1">
     <g id="line2d_1">
      <path clip-path="url(#p068c835ab5)" d="M 69.585 234.52 
L 69.585 15.12 
" style="fill:none;stroke:#b0b0b0;stroke-dasharray:1.48,0.64;stroke-dashoffset:0;stroke-width:0.4;"/>
     </g>
     <g id="text_1">
      <!-- 0 -->
      <g transform="translate(66.392344 251.665625)scale(0.14 -0.14)">
       <defs>
        <path d="M 42.390625 34.421875 
Q 42.390625 24.515625 40.84375 17.75 
Q 39.3125 10.984375 36.640625 6.8125 
Q 33.984375 2.640625 30.390625 0.828125 
Q 26.8125 -0.984375 22.703125 -0.984375 
Q 18.609375 -0.984375 15.03125 0.828125 
Q 11.46875 2.640625 8.828125 6.78125 
Q 6.203125 10.9375 4.703125 17.703125 
Q 3.21875 24.46875 3.21875 34.421875 
Q 3.21875 44.828125 4.703125 51.640625 
Q 6.203125 58.453125 8.828125 62.5 
Q 11.46875 66.546875 15.078125 68.1875 
Q 18.703125 69.828125 22.953125 69.828125 
Q 27 69.828125 30.53125 68.1875 
Q 34.078125 66.546875 36.71875 62.5 
Q 39.359375 58.453125 40.875 51.640625 
Q 42.390625 44.828125 42.390625 34.421875 
z
M 35.0625 34.421875 
Q 35.0625 42.625 34.28125 48.0625 
Q 33.5 53.515625 31.9375 56.765625 
Q 30.375 60.015625 28.09375 61.359375 
Q 25.828125 62.703125 22.953125 62.703125 
Q 19.921875 62.703125 17.578125 61.328125 
Q 15.234375 59.96875 13.671875 56.71875 
Q 12.109375 53.46875 11.296875 48.015625 
Q 10.5 42.578125 10.5 34.421875 
Q 10.5 26.515625 11.296875 21.09375 
Q 12.109375 15.671875 13.6875 12.375 
Q 15.28125 9.078125 17.578125 7.640625 
Q 19.875 6.203125 22.796875 6.203125 
Q 25.640625 6.203125 27.90625 7.640625 
Q 30.171875 9.078125 31.75 12.375 
Q 33.34375 15.671875 34.203125 21.09375 
Q 35.0625 26.515625 35.0625 34.421875 
z
" id="LiberationSansNarrow-48"/>
       </defs>
       <use xlink:href="#LiberationSansNarrow-48"/>
      </g>
     </g>
    </g>
    <g id="xtick_2">
     <g id="line2d_2">
      <path clip-path="url(#p068c835ab5)" d="M 147.568333 234.52 
L 147.568333 15.12 
" style="fill:none;stroke:#b0b0b0;stroke-dasharray:1.48,0.64;stroke-dashoffset:0;stroke-width:0.4;"/>
     </g>
     <g id="text_2">
      <!-- 5 -->
      <g transform="translate(144.375677 251.665625)scale(0.14 -0.14)">
       <defs>
        <path d="M 42.140625 22.40625 
Q 42.140625 17.234375 40.859375 12.9375 
Q 39.59375 8.640625 37.078125 5.53125 
Q 34.578125 2.4375 30.8125 0.71875 
Q 27.046875 -0.984375 22.125 -0.984375 
Q 17.671875 -0.984375 14.375 0.28125 
Q 11.078125 1.5625 8.8125 3.78125 
Q 6.546875 6 5.203125 8.984375 
Q 3.859375 11.96875 3.265625 15.375 
L 10.546875 16.40625 
Q 10.984375 14.453125 11.78125 12.625 
Q 12.59375 10.796875 13.984375 9.34375 
Q 15.375 7.90625 17.40625 7.046875 
Q 19.4375 6.203125 22.3125 6.203125 
Q 25.09375 6.203125 27.390625 7.25 
Q 29.6875 8.296875 31.296875 10.34375 
Q 32.90625 12.40625 33.78125 15.375 
Q 34.671875 18.359375 34.671875 22.21875 
Q 34.671875 25.390625 33.84375 28.046875 
Q 33.015625 30.71875 31.453125 32.640625 
Q 29.890625 34.578125 27.609375 35.640625 
Q 25.34375 36.71875 22.46875 36.71875 
Q 20.65625 36.71875 19.140625 36.328125 
Q 17.625 35.9375 16.328125 35.25 
Q 15.046875 34.578125 13.96875 33.671875 
Q 12.890625 32.765625 11.96875 31.78125 
L 4.9375 31.78125 
L 6.78125 68.796875 
L 38.875 68.796875 
L 38.875 61.328125 
L 13.375 61.328125 
L 12.3125 39.5 
Q 14.203125 41.3125 17.078125 42.59375 
Q 19.96875 43.890625 23.921875 43.890625 
Q 28.125 43.890625 31.484375 42.328125 
Q 34.859375 40.765625 37.21875 37.90625 
Q 39.59375 35.0625 40.859375 31.109375 
Q 42.140625 27.15625 42.140625 22.40625 
z
" id="LiberationSansNarrow-53"/>
       </defs>
       <use xlink:href="#LiberationSansNarrow-53"/>
      </g>
     </g>
    </g>
    <g id="xtick_3">
     <g id="line2d_3">
      <path clip-path="url(#p068c835ab5)" d="M 225.551667 234.52 
L 225.551667 15.12 
" style="fill:none;stroke:#b0b0b0;stroke-dasharray:1.48,0.64;stroke-dashoffset:0;stroke-width:0.4;"/>
     </g>
     <g id="text_3">
      <!-- 10 -->
      <g transform="translate(219.166354 251.665625)scale(0.14 -0.14)">
       <defs>
        <path d="M 6.25 0 
L 6.25 7.46875 
L 20.609375 7.46875 
L 20.609375 60.40625 
L 7.90625 49.3125 
L 7.90625 57.625 
L 21.234375 68.796875 
L 27.875 68.796875 
L 27.875 7.46875 
L 41.609375 7.46875 
L 41.609375 0 
z
" id="LiberationSansNarrow-49"/>
       </defs>
       <use xlink:href="#LiberationSansNarrow-49"/>
       <use x="45.605469" xlink:href="#LiberationSansNarrow-48"/>
      </g>
     </g>
    </g>
    <g id="xtick_4">
     <g id="line2d_4">
      <path clip-path="url(#p068c835ab5)" d="M 303.535 234.52 
L 303.535 15.12 
" style="fill:none;stroke:#b0b0b0;stroke-dasharray:1.48,0.64;stroke-dashoffset:0;stroke-width:0.4;"/>
     </g>
     <g id="text_4">
      <!-- 15 -->
      <g transform="translate(297.149687 251.665625)scale(0.14 -0.14)">
       <use xlink:href="#LiberationSansNarrow-49"/>
       <use x="45.605469" xlink:href="#LiberationSansNarrow-53"/>
      </g>
     </g>
    </g>
    <g id="xtick_5">
     <g id="line2d_5">
      <path clip-path="url(#p068c835ab5)" d="M 381.518333 234.52 
L 381.518333 15.12 
" style="fill:none;stroke:#b0b0b0;stroke-dasharray:1.48,0.64;stroke-dashoffset:0;stroke-width:0.4;"/>
     </g>
     <g id="text_5">
      <!-- 20 -->
      <g transform="translate(375.133021 251.665625)scale(0.14 -0.14)">
       <defs>
        <path d="M 4.109375 0 
L 4.109375 6.203125 
Q 6.15625 11.921875 9.109375 16.28125 
Q 12.0625 20.65625 15.3125 24.1875 
Q 18.5625 27.734375 21.734375 30.765625 
Q 24.90625 33.796875 27.46875 36.8125 
Q 30.03125 39.84375 31.609375 43.15625 
Q 33.203125 46.484375 33.203125 50.6875 
Q 33.203125 53.609375 32.46875 55.828125 
Q 31.734375 58.0625 30.390625 59.5625 
Q 29.046875 61.078125 27.140625 61.828125 
Q 25.25 62.59375 22.90625 62.59375 
Q 20.75 62.59375 18.84375 61.859375 
Q 16.9375 61.140625 15.453125 59.671875 
Q 13.96875 58.203125 13.03125 56.03125 
Q 12.109375 53.859375 11.8125 50.984375 
L 4.4375 51.8125 
Q 4.78125 55.515625 6.125 58.78125 
Q 7.46875 62.0625 9.78125 64.53125 
Q 12.109375 67 15.359375 68.40625 
Q 18.609375 69.828125 22.90625 69.828125 
Q 27.09375 69.828125 30.390625 68.609375 
Q 33.6875 67.390625 35.9375 64.984375 
Q 38.1875 62.59375 39.40625 59.078125 
Q 40.625 55.5625 40.625 50.984375 
Q 40.625 47.515625 39.59375 44.390625 
Q 38.578125 41.265625 36.859375 38.421875 
Q 35.15625 35.59375 32.90625 32.953125 
Q 30.671875 30.328125 28.21875 27.828125 
L 23.296875 22.859375 
Q 20.796875 20.359375 18.625 17.859375 
Q 16.453125 15.375 14.734375 12.8125 
Q 13.03125 10.25 12.0625 7.46875 
L 41.5 7.46875 
L 41.5 0 
z
" id="LiberationSansNarrow-50"/>
       </defs>
       <use xlink:href="#LiberationSansNarrow-50"/>
       <use x="45.605469" xlink:href="#LiberationSansNarrow-48"/>
      </g>
     </g>
    </g>
    <g id="xtick_6">
     <g id="line2d_6">
      <path clip-path="url(#p068c835ab5)" d="M 459.501667 234.52 
L 459.501667 15.12 
" style="fill:none;stroke:#b0b0b0;stroke-dasharray:1.48,0.64;stroke-dashoffset:0;stroke-width:0.4;"/>
     </g>
     <g id="text_6">
      <!-- 25 -->
      <g transform="translate(453.116354 251.665625)scale(0.14 -0.14)">
       <use xlink:href="#LiberationSansNarrow-50"/>
       <use x="45.605469" xlink:href="#LiberationSansNarrow-53"/>
      </g>
     </g>
    </g>
    <g id="xtick_7">
     <g id="line2d_7">
      <path clip-path="url(#p068c835ab5)" d="M 537.485 234.52 
L 537.485 15.12 
" style="fill:none;stroke:#b0b0b0;stroke-dasharray:1.48,0.64;stroke-dashoffset:0;stroke-width:0.4;"/>
     </g>
     <g id="text_7">
      <!-- 30 -->
      <g transform="translate(531.099687 251.665625)scale(0.14 -0.14)">
       <defs>
        <path d="M 42 19 
Q 42 14.265625 40.75 10.546875 
Q 39.5 6.84375 37.0625 4.265625 
Q 34.625 1.703125 31.046875 0.359375 
Q 27.484375 -0.984375 22.859375 -0.984375 
Q 17.625 -0.984375 14.03125 0.609375 
Q 10.453125 2.203125 8.125 4.8125 
Q 5.8125 7.421875 4.640625 10.765625 
Q 3.46875 14.109375 3.125 17.671875 
L 10.546875 18.5 
Q 10.890625 15.765625 11.734375 13.515625 
Q 12.59375 11.28125 14.078125 9.671875 
Q 15.578125 8.0625 17.75 7.171875 
Q 19.921875 6.296875 22.859375 6.296875 
Q 28.328125 6.296875 31.421875 9.5625 
Q 34.515625 12.84375 34.515625 19.28125 
Q 34.515625 23.09375 33.125 25.40625 
Q 31.734375 27.734375 29.6875 29.03125 
Q 27.640625 30.328125 25.21875 30.765625 
Q 22.796875 31.203125 20.75 31.203125 
L 16.65625 31.203125 
L 16.65625 38.8125 
L 20.5625 38.8125 
Q 22.609375 38.8125 24.828125 39.328125 
Q 27.046875 39.84375 28.859375 41.1875 
Q 30.671875 42.53125 31.859375 44.828125 
Q 33.0625 47.125 33.0625 50.6875 
Q 33.0625 56.203125 30.375 59.390625 
Q 27.6875 62.59375 22.46875 62.59375 
Q 17.671875 62.59375 14.734375 59.609375 
Q 11.8125 56.640625 11.328125 51.21875 
L 4.109375 51.90625 
Q 4.546875 56.453125 6.125 59.8125 
Q 7.71875 63.1875 10.171875 65.40625 
Q 12.640625 67.625 15.8125 68.71875 
Q 19 69.828125 22.5625 69.828125 
Q 27.296875 69.828125 30.6875 68.375 
Q 34.078125 66.9375 36.21875 64.46875 
Q 38.375 62.015625 39.40625 58.6875 
Q 40.4375 55.375 40.4375 51.609375 
Q 40.4375 48.578125 39.75 45.9375 
Q 39.0625 43.3125 37.625 41.203125 
Q 36.1875 39.109375 33.953125 37.59375 
Q 31.734375 36.078125 28.609375 35.296875 
L 28.609375 35.109375 
Q 32.03125 34.671875 34.546875 33.21875 
Q 37.0625 31.78125 38.71875 29.625 
Q 40.375 27.484375 41.1875 24.75 
Q 42 22.015625 42 19 
z
" id="LiberationSansNarrow-51"/>
       </defs>
       <use xlink:href="#LiberationSansNarrow-51"/>
       <use x="45.605469" xlink:href="#LiberationSansNarrow-48"/>
      </g>
     </g>
    </g>
    <g id="text_8">
     <!-- годы -->
     <g transform="translate(290.947031 268.71625)scale(0.14 -0.14)">
      <defs>
       <path d="M 27.546875 52.828125 
L 27.546875 46.4375 
L 12.890625 46.4375 
L 12.890625 0 
L 5.71875 0 
L 5.71875 52.828125 
z
" id="LiberationSansNarrow-1075"/>
       <path d="M 42.140625 26.46875 
Q 42.140625 12.59375 37.125 5.796875 
Q 32.125 -0.984375 22.609375 -0.984375 
Q 18.0625 -0.984375 14.515625 0.671875 
Q 10.984375 2.34375 8.515625 5.765625 
Q 6.0625 9.1875 4.765625 14.328125 
Q 3.46875 19.484375 3.46875 26.46875 
Q 3.46875 53.8125 22.859375 53.8125 
Q 27.875 53.8125 31.5625 52.09375 
Q 35.25 50.390625 37.59375 46.96875 
Q 39.9375 43.5625 41.03125 38.421875 
Q 42.140625 33.296875 42.140625 26.46875 
z
M 34.578125 26.46875 
Q 34.578125 32.625 33.8125 36.625 
Q 33.0625 40.625 31.546875 43.015625 
Q 30.03125 45.40625 27.859375 46.359375 
Q 25.6875 47.3125 23 47.3125 
Q 20.21875 47.3125 17.984375 46.3125 
Q 15.765625 45.3125 14.203125 42.890625 
Q 12.640625 40.484375 11.828125 36.46875 
Q 11.03125 32.46875 11.03125 26.46875 
Q 11.03125 20.3125 11.90625 16.28125 
Q 12.796875 12.25 14.328125 9.859375 
Q 15.875 7.46875 17.96875 6.484375 
Q 20.0625 5.515625 22.5625 5.515625 
Q 25.34375 5.515625 27.5625 6.46875 
Q 29.78125 7.421875 31.34375 9.8125 
Q 32.90625 12.203125 33.734375 16.25 
Q 34.578125 20.3125 34.578125 26.46875 
z
" id="LiberationSansNarrow-1086"/>
       <path d="M 33.34375 46.4375 
L 21.140625 46.4375 
Q 20.171875 37.796875 19.1875 31.375 
Q 18.21875 24.953125 17.234375 20.21875 
Q 16.265625 15.484375 15.3125 12.15625 
Q 14.359375 8.84375 13.484375 6.390625 
L 33.34375 6.390625 
z
M 46.390625 -19.921875 
L 39.890625 -19.921875 
L 39.890625 0 
L 7.328125 0 
L 7.328125 -19.921875 
L 0.78125 -19.921875 
L 0.78125 6.390625 
L 5.5625 6.390625 
Q 6.78125 8.84375 7.921875 12.328125 
Q 9.078125 15.828125 10.21875 21.1875 
Q 11.375 26.5625 12.515625 34.25 
Q 13.671875 41.9375 14.796875 52.828125 
L 40.578125 52.828125 
L 40.578125 6.390625 
L 46.390625 6.390625 
z
" id="LiberationSansNarrow-1076"/>
       <path d="M 22.796875 30.46875 
Q 31.296875 30.46875 35.640625 26.875 
Q 39.984375 23.296875 39.984375 15.53125 
Q 39.984375 11.921875 38.90625 9.03125 
Q 37.84375 6.15625 35.671875 4.15625 
Q 33.5 2.15625 30.296875 1.078125 
Q 27.09375 0 22.859375 0 
L 5.859375 0 
L 5.859375 52.828125 
L 13.328125 52.828125 
L 13.328125 30.46875 
z
M 13.328125 6.203125 
L 21.734375 6.203125 
Q 24.609375 6.203125 26.578125 6.8125 
Q 28.5625 7.421875 29.78125 8.609375 
Q 31 9.8125 31.53125 11.546875 
Q 32.078125 13.28125 32.078125 15.53125 
Q 32.078125 20.125 29.65625 22.234375 
Q 27.25 24.359375 21.734375 24.359375 
L 13.328125 24.359375 
z
M 47.65625 0 
L 47.65625 52.828125 
L 55.125 52.828125 
L 55.125 0 
z
" id="LiberationSansNarrow-1099"/>
      </defs>
      <use xlink:href="#LiberationSansNarrow-1075"/>
      <use x="27.681641" xlink:href="#LiberationSansNarrow-1086"/>
      <use x="71.037109" xlink:href="#LiberationSansNarrow-1076"/>
      <use x="118.839844" xlink:href="#LiberationSansNarrow-1099"/>
     </g>
    </g>
   </g>
   <g id="matplotlib.axis_2">
    <g id="ytick_1">
     <g id="line2d_8">
      <path clip-path="url(#p068c835ab5)" d="M 46.19 214.249755 
L 560.88 214.249755 
" style="fill:none;stroke:#b0b0b0;stroke-dasharray:1.48,0.64;stroke-dashoffset:0;stroke-width:0.4;"/>
     </g>
     <g id="text_9">
      <!-- 1 -->
      <g transform="translate(32.804688 219.322567)scale(0.14 -0.14)">
       <use xlink:href="#LiberationSansNarrow-49"/>
      </g>
     </g>
    </g>
    <g id="ytick_2">
     <g id="line2d_9">
      <path clip-path="url(#p068c835ab5)" d="M 46.19 162.594681 
L 560.88 162.594681 
" style="fill:none;stroke:#b0b0b0;stroke-dasharray:1.48,0.64;stroke-dashoffset:0;stroke-width:0.4;"/>
     </g>
     <g id="text_10">
      <!-- 2 -->
      <g transform="translate(32.804688 167.667493)scale(0.14 -0.14)">
       <use xlink:href="#LiberationSansNarrow-50"/>
      </g>
     </g>
    </g>
    <g id="ytick_3">
     <g id="line2d_10">
      <path clip-path="url(#p068c835ab5)" d="M 46.19 110.939606 
L 560.88 110.939606 
" style="fill:none;stroke:#b0b0b0;stroke-dasharray:1.48,0.64;stroke-dashoffset:0;stroke-width:0.4;"/>
     </g>
     <g id="text_11">
      <!-- 3 -->
      <g transform="translate(32.804688 116.012419)scale(0.14 -0.14)">
       <use xlink:href="#LiberationSansNarrow-51"/>
      </g>
     </g>
    </g>
    <g id="ytick_4">
     <g id="line2d_11">
      <path clip-path="url(#p068c835ab5)" d="M 46.19 59.284532 
L 560.88 59.284532 
" style="fill:none;stroke:#b0b0b0;stroke-dasharray:1.48,0.64;stroke-dashoffset:0;stroke-width:0.4;"/>
     </g>
     <g id="text_12">
      <!-- 4 -->
      <g transform="translate(32.804688 64.357344)scale(0.14 -0.14)">
       <defs>
        <path d="M 35.25 15.578125 
L 35.25 0 
L 28.46875 0 
L 28.46875 15.578125 
L 1.90625 15.578125 
L 1.90625 22.40625 
L 27.6875 68.796875 
L 35.25 68.796875 
L 35.25 22.515625 
L 43.21875 22.515625 
L 43.21875 15.578125 
z
M 28.46875 58.890625 
Q 28.375 58.640625 28.03125 57.90625 
L 27.34375 56.34375 
L 26.5625 54.59375 
Q 26.125 53.65625 25.78125 53.078125 
L 11.328125 27.09375 
Q 11.140625 26.703125 10.75 26.078125 
L 9.96875 24.8125 
L 9.1875 23.484375 
Q 8.796875 22.859375 8.546875 22.515625 
L 28.46875 22.515625 
z
" id="LiberationSansNarrow-52"/>
       </defs>
       <use xlink:href="#LiberationSansNarrow-52"/>
      </g>
     </g>
    </g>
    <g id="text_13">
     <!-- прирост капитала, раз -->
     <g transform="translate(25.899688 184.39875)rotate(-90)scale(0.14 -0.14)">
      <defs>
       <path d="M 38.71875 52.828125 
L 38.71875 0 
L 31.546875 0 
L 31.546875 46.4375 
L 12.890625 46.4375 
L 12.890625 0 
L 5.71875 0 
L 5.71875 52.828125 
z
" id="LiberationSansNarrow-1087"/>
       <path d="M 42.140625 26.65625 
Q 42.140625 20.65625 41.359375 15.578125 
Q 40.578125 10.5 38.6875 6.828125 
Q 36.8125 3.171875 33.765625 1.09375 
Q 30.71875 -0.984375 26.21875 -0.984375 
Q 21.578125 -0.984375 18.078125 1.171875 
Q 14.59375 3.328125 12.796875 8.203125 
L 12.546875 8.203125 
Q 12.59375 8.109375 12.609375 7.328125 
Q 12.640625 6.546875 12.671875 5.375 
Q 12.703125 4.203125 12.71875 2.75 
Q 12.75 1.3125 12.75 -0.09375 
L 12.75 -20.75 
L 5.515625 -20.75 
L 5.515625 42.046875 
Q 5.515625 43.953125 5.484375 45.703125 
Q 5.46875 47.46875 5.4375 48.90625 
Q 5.421875 50.34375 5.375 51.359375 
Q 5.328125 52.390625 5.28125 52.828125 
L 12.25 52.828125 
Q 12.3125 52.6875 12.359375 51.8125 
L 12.5 49.703125 
Q 12.546875 48.4375 12.59375 47.015625 
Q 12.640625 45.609375 12.640625 44.34375 
L 12.796875 44.34375 
Q 13.765625 46.875 15.0625 48.65625 
Q 16.359375 50.4375 18.015625 51.578125 
Q 19.671875 52.734375 21.671875 53.25 
Q 23.6875 53.765625 26.21875 53.765625 
Q 30.71875 53.765625 33.765625 51.8125 
Q 36.8125 49.859375 38.6875 46.3125 
Q 40.578125 42.78125 41.359375 37.765625 
Q 42.140625 32.765625 42.140625 26.65625 
z
M 34.578125 26.46875 
Q 34.578125 31.34375 34.109375 35.15625 
Q 33.640625 38.96875 32.4375 41.59375 
Q 31.25 44.234375 29.296875 45.59375 
Q 27.34375 46.96875 24.359375 46.96875 
Q 21.96875 46.96875 19.84375 46.140625 
Q 17.71875 45.3125 16.125 42.96875 
Q 14.546875 40.625 13.640625 36.5 
Q 12.75 32.375 12.75 25.78125 
Q 12.75 20.171875 13.5 16.28125 
Q 14.265625 12.40625 15.71875 10.015625 
Q 17.1875 7.625 19.328125 6.5625 
Q 21.484375 5.515625 24.3125 5.515625 
Q 27.34375 5.515625 29.296875 6.921875 
Q 31.25 8.34375 32.4375 11.03125 
Q 33.640625 13.71875 34.109375 17.59375 
Q 34.578125 21.484375 34.578125 26.46875 
z
" id="LiberationSansNarrow-1088"/>
       <path d="M 12.640625 52.828125 
L 12.640625 23.921875 
Q 12.640625 22.796875 12.59375 20.921875 
Q 12.546875 19.046875 12.46875 17.046875 
Q 12.40625 15.046875 12.359375 13.234375 
Q 12.3125 11.421875 12.25 10.40625 
L 32.28125 52.828125 
L 40.140625 52.828125 
L 40.140625 0 
L 33.25 0 
L 33.25 32.234375 
Q 33.25 33.15625 33.296875 34.578125 
L 33.40625 37.40625 
Q 33.453125 38.875 33.5 40.234375 
L 33.640625 42.625 
L 13.375 0 
L 5.71875 0 
L 5.71875 52.828125 
z
" id="LiberationSansNarrow-1080"/>
       <path d="M 11.03125 26.65625 
Q 11.03125 22.125 11.5625 18.3125 
Q 12.109375 14.5 13.375 11.734375 
Q 14.65625 8.984375 16.75 7.46875 
Q 18.84375 5.953125 21.96875 5.953125 
Q 25.828125 5.953125 28.390625 8.484375 
Q 30.953125 11.03125 31.546875 16.3125 
L 38.875 15.71875 
Q 38.53125 12.453125 37.296875 9.421875 
Q 36.078125 6.390625 34.03125 4.09375 
Q 31.984375 1.8125 29 0.40625 
Q 26.03125 -0.984375 22.171875 -0.984375 
Q 17.09375 -0.984375 13.5 1.109375 
Q 9.90625 3.21875 7.6875 6.90625 
Q 5.46875 10.59375 4.46875 15.59375 
Q 3.46875 20.609375 3.46875 26.46875 
Q 3.46875 31.78125 4.203125 35.859375 
Q 4.9375 39.9375 6.21875 42.984375 
Q 7.515625 46.046875 9.265625 48.125 
Q 11.03125 50.203125 13.109375 51.4375 
Q 15.1875 52.6875 17.453125 53.25 
Q 19.734375 53.8125 22.078125 53.8125 
Q 25.734375 53.8125 28.5625 52.59375 
Q 31.390625 51.375 33.46875 49.25 
Q 35.546875 47.125 36.8125 44.234375 
Q 38.09375 41.359375 38.625 38.03125 
L 31.203125 37.359375 
Q 30.671875 41.75 28.375 44.328125 
Q 26.078125 46.921875 21.875 46.921875 
Q 18.796875 46.921875 16.71875 45.671875 
Q 14.65625 44.4375 13.375 41.921875 
Q 12.109375 39.40625 11.5625 35.59375 
Q 11.03125 31.78125 11.03125 26.65625 
z
" id="LiberationSansNarrow-1089"/>
       <path d="M 1.421875 52.828125 
L 36.140625 52.828125 
L 36.140625 46.4375 
L 22.359375 46.4375 
L 22.359375 0 
L 15.1875 0 
L 15.1875 46.4375 
L 1.421875 46.4375 
z
" id="LiberationSansNarrow-1090"/>
       <path id="LiberationSansNarrow-32"/>
       <path d="M 5.515625 52.828125 
L 12.703125 52.828125 
L 12.703125 29.6875 
Q 13.921875 29.6875 14.875 30.078125 
Q 15.828125 30.46875 16.875 31.6875 
Q 17.921875 32.90625 19.21875 35.15625 
Q 20.515625 37.40625 22.46875 41.15625 
L 28.375 52.828125 
L 35.890625 52.828125 
L 27.25 36.96875 
Q 25.4375 33.734375 24.109375 31.65625 
Q 22.796875 29.59375 22.125 28.90625 
L 36.234375 0 
L 28.21875 0 
L 17.140625 24.265625 
Q 16.359375 23.875 15.0625 23.578125 
Q 13.765625 23.296875 12.703125 23.296875 
L 12.703125 0 
L 5.515625 0 
z
" id="LiberationSansNarrow-1082"/>
       <path d="M 16.546875 -0.984375 
Q 10.015625 -0.984375 6.734375 3.21875 
Q 3.46875 7.421875 3.46875 14.75 
Q 3.46875 19.96875 5.09375 23.3125 
Q 6.734375 26.65625 9.34375 28.5625 
Q 11.96875 30.46875 15.328125 31.203125 
Q 18.703125 31.9375 22.171875 32.03125 
L 31.9375 32.234375 
L 31.9375 35.109375 
Q 31.9375 38.375 31.375 40.671875 
Q 30.8125 42.96875 29.640625 44.375 
Q 28.46875 45.796875 26.734375 46.453125 
Q 25 47.125 22.609375 47.125 
Q 20.515625 47.125 18.84375 46.75 
Q 17.1875 46.390625 15.9375 45.4375 
Q 14.703125 44.484375 13.9375 42.84375 
Q 13.1875 41.21875 12.9375 38.71875 
L 5.421875 39.546875 
Q 5.8125 42.671875 6.9375 45.28125 
Q 8.0625 47.90625 10.109375 49.796875 
Q 12.15625 51.703125 15.25 52.75 
Q 18.359375 53.8125 22.796875 53.8125 
Q 30.953125 53.8125 35.078125 49.234375 
Q 39.203125 44.671875 39.203125 36.03125 
L 39.203125 13.28125 
Q 39.203125 9.375 40.03125 7.390625 
Q 40.875 5.421875 43.265625 5.421875 
Q 43.84375 5.421875 44.453125 5.515625 
Q 45.0625 5.609375 45.609375 5.765625 
L 45.609375 0.296875 
Q 44.234375 -0.09375 42.890625 -0.28125 
Q 41.546875 -0.484375 40.046875 -0.484375 
Q 37.984375 -0.484375 36.515625 0.171875 
Q 35.0625 0.828125 34.15625 2.171875 
Q 33.25 3.515625 32.765625 5.484375 
Q 32.28125 7.46875 32.125 10.109375 
L 31.9375 10.109375 
Q 30.765625 7.5625 29.375 5.515625 
Q 27.984375 3.46875 26.140625 2.03125 
Q 24.3125 0.59375 21.9375 -0.1875 
Q 19.578125 -0.984375 16.546875 -0.984375 
z
M 18.21875 5.609375 
Q 21.6875 5.609375 24.25 7.140625 
Q 26.8125 8.6875 28.515625 11.078125 
Q 30.21875 13.484375 31.078125 16.3125 
Q 31.9375 19.140625 31.9375 21.734375 
L 31.9375 26.078125 
L 24.03125 25.875 
Q 21.390625 25.828125 19 25.40625 
Q 16.609375 25 14.8125 23.78125 
Q 13.03125 22.5625 11.953125 20.359375 
Q 10.890625 18.171875 10.890625 14.59375 
Q 10.890625 10.296875 12.796875 7.953125 
Q 14.703125 5.609375 18.21875 5.609375 
z
" id="LiberationSansNarrow-1072"/>
       <path d="M 34.859375 0 
L 34.859375 46.4375 
L 19.875 46.4375 
Q 18.890625 37.453125 18.03125 30.4375 
Q 17.1875 23.4375 16.3125 18.15625 
Q 15.4375 12.890625 14.40625 9.25 
Q 13.375 5.609375 11.953125 3.34375 
Q 10.546875 1.078125 8.65625 0.046875 
Q 6.78125 -0.984375 4.203125 -0.984375 
Q 3.03125 -0.984375 2.078125 -0.78125 
Q 1.125 -0.59375 0.4375 -0.34375 
L 0.4375 5.953125 
Q 0.875 5.765625 1.625 5.640625 
Q 2.390625 5.515625 3.171875 5.515625 
Q 4.59375 5.515625 5.59375 6.53125 
Q 6.59375 7.5625 7.390625 9.859375 
Q 8.203125 12.15625 8.859375 15.796875 
Q 9.515625 19.4375 10.203125 24.703125 
Q 10.890625 29.984375 11.625 36.921875 
L 13.375 52.828125 
L 42.140625 52.828125 
L 42.140625 0 
z
" id="LiberationSansNarrow-1083"/>
       <path d="M 15.4375 10.6875 
L 15.4375 2.484375 
Q 15.4375 -0.09375 15.265625 -2.21875 
Q 15.09375 -4.34375 14.671875 -6.171875 
Q 14.265625 -8.015625 13.671875 -9.625 
Q 13.09375 -11.234375 12.3125 -12.796875 
L 7.375 -12.796875 
Q 9.1875 -9.625 10.15625 -6.390625 
Q 11.140625 -3.171875 11.140625 0 
L 7.625 0 
L 7.625 10.6875 
z
" id="LiberationSansNarrow-44"/>
       <path d="M 18.3125 -0.984375 
Q 11.625 -0.984375 7.6875 2.0625 
Q 3.765625 5.125 1.953125 11.421875 
L 8.296875 13.578125 
Q 9.28125 9.765625 11.8125 7.65625 
Q 14.359375 5.5625 18.453125 5.5625 
Q 22.3125 5.5625 24.578125 7.859375 
Q 26.859375 10.15625 26.859375 14.59375 
Q 26.859375 17.484375 25.734375 19.390625 
Q 24.609375 21.296875 22.78125 22.390625 
Q 20.953125 23.484375 18.546875 23.921875 
Q 16.15625 24.359375 13.578125 24.359375 
L 13.578125 31.0625 
Q 16.109375 31.0625 18.40625 31.421875 
Q 20.703125 31.78125 22.4375 32.703125 
Q 24.171875 33.640625 25.140625 35.28125 
Q 26.125 36.921875 26.125 39.453125 
Q 26.125 43.0625 24.140625 45.15625 
Q 22.171875 47.265625 18.453125 47.265625 
Q 17.046875 47.265625 15.65625 46.921875 
Q 14.265625 46.578125 13.03125 45.765625 
Q 11.8125 44.96875 10.984375 43.625 
Q 10.15625 42.28125 9.859375 40.234375 
L 3.421875 41.21875 
Q 3.90625 44.53125 5.125 46.921875 
Q 6.34375 49.3125 8.296875 50.84375 
Q 10.25 52.390625 12.78125 53.09375 
Q 15.328125 53.8125 18.453125 53.8125 
Q 21.875 53.8125 24.625 52.78125 
Q 27.390625 51.765625 29.34375 49.90625 
Q 31.296875 48.046875 32.375 45.5 
Q 33.453125 42.96875 33.453125 39.890625 
Q 33.453125 37.109375 32.5625 34.953125 
Q 31.6875 32.8125 30.25 31.3125 
Q 28.8125 29.828125 27.046875 28.953125 
Q 25.296875 28.078125 23.53125 27.875 
L 23.53125 27.78125 
Q 25.78125 27.484375 27.75 26.484375 
Q 29.734375 25.484375 31.25 23.84375 
Q 32.765625 22.21875 33.609375 19.9375 
Q 34.46875 17.671875 34.46875 14.84375 
Q 34.46875 11.46875 33.484375 8.5625 
Q 32.515625 5.671875 30.484375 3.546875 
Q 28.46875 1.421875 25.4375 0.21875 
Q 22.40625 -0.984375 18.3125 -0.984375 
z
" id="LiberationSansNarrow-1079"/>
      </defs>
      <use xlink:href="#LiberationSansNarrow-1087"/>
      <use x="44.433594" xlink:href="#LiberationSansNarrow-1088"/>
      <use x="90.039062" xlink:href="#LiberationSansNarrow-1080"/>
      <use x="135.888672" xlink:href="#LiberationSansNarrow-1088"/>
      <use x="181.494141" xlink:href="#LiberationSansNarrow-1086"/>
      <use x="227.099609" xlink:href="#LiberationSansNarrow-1089"/>
      <use x="268.115234" xlink:href="#LiberationSansNarrow-1090"/>
      <use x="305.664062" xlink:href="#LiberationSansNarrow-32"/>
      <use x="328.466797" xlink:href="#LiberationSansNarrow-1082"/>
      <use x="366.556641" xlink:href="#LiberationSansNarrow-1072"/>
      <use x="412.162109" xlink:href="#LiberationSansNarrow-1087"/>
      <use x="456.595703" xlink:href="#LiberationSansNarrow-1080"/>
      <use x="502.445312" xlink:href="#LiberationSansNarrow-1090"/>
      <use x="538.869141" xlink:href="#LiberationSansNarrow-1072"/>
      <use x="584.474609" xlink:href="#LiberationSansNarrow-1083"/>
      <use x="632.277344" xlink:href="#LiberationSansNarrow-1072"/>
      <use x="677.882812" xlink:href="#LiberationSansNarrow-44"/>
      <use x="700.685547" xlink:href="#LiberationSansNarrow-32"/>
      <use x="723.488281" xlink:href="#LiberationSansNarrow-1088"/>
      <use x="769.09375" xlink:href="#LiberationSansNarrow-1072"/>
      <use x="813.574219" xlink:href="#LiberationSansNarrow-1079"/>
     </g>
    </g>
   </g>
   <g id="line2d_12">
    <path clip-path="url(#p068c835ab5)" d="M 69.585 215.105261 
L 70.888343 215.49981 
L 72.191685 214.418696 
L 73.495028 212.801931 
L 74.79837 214.128534 
L 76.101713 211.868449 
L 77.405056 211.957515 
L 78.708398 211.148634 
L 80.011741 207.241062 
L 81.315084 206.962587 
L 82.618426 208.680808 
L 83.921769 210.179096 
L 85.225111 210.261976 
L 86.528454 209.492942 
L 87.831797 211.818491 
L 89.135139 208.397261 
L 91.741825 206.074551 
L 93.045167 208.367788 
L 94.34851 208.221512 
L 95.651852 209.816486 
L 96.955195 208.886861 
L 98.258538 208.708828 
L 99.56188 208.387886 
L 100.865223 209.26906 
L 102.168565 209.511181 
L 103.471908 208.305034 
L 104.775251 204.439985 
L 107.381936 205.698938 
L 108.685279 204.499959 
L 109.988621 202.765193 
L 111.291964 200.664992 
L 112.595306 199.572336 
L 113.898649 195.040965 
L 115.201992 193.001993 
L 116.505334 193.77291 
L 117.808677 194.362357 
L 119.112019 195.148821 
L 120.415362 193.849187 
L 121.718705 195.93877 
L 123.022047 197.047611 
L 124.32539 196.240569 
L 125.628733 197.330069 
L 126.932075 197.635193 
L 128.235418 198.918405 
L 129.53876 197.544563 
L 132.145446 199.401159 
L 133.448788 198.345755 
L 134.752131 196.460305 
L 136.055474 195.217999 
L 137.358816 195.091563 
L 138.662159 195.36205 
L 139.965501 195.087601 
L 141.268844 199.403367 
L 142.572187 201.149654 
L 143.875529 201.733035 
L 145.178872 201.93074 
L 146.482214 200.007196 
L 147.785557 197.849725 
L 149.0889 198.998211 
L 150.392242 197.573939 
L 151.695585 198.9312 
L 152.998928 201.54801 
L 154.30227 199.387681 
L 155.605613 198.748825 
L 156.908955 195.868568 
L 158.212298 194.095255 
L 159.515641 195.055195 
L 160.818983 192.703629 
L 162.122326 191.168606 
L 163.425669 189.855913 
L 164.729011 191.539548 
L 166.032354 189.368443 
L 167.335696 189.9324 
L 168.639039 191.017749 
L 169.942382 195.720123 
L 171.245724 193.888703 
L 172.549067 192.894018 
L 173.852409 194.116168 
L 175.155752 191.607106 
L 176.459095 188.78787 
L 177.762437 187.183772 
L 179.06578 184.477231 
L 180.369123 186.260746 
L 181.672465 186.685176 
L 182.975808 188.734142 
L 184.27915 188.296026 
L 185.582493 189.838871 
L 186.885836 189.956936 
L 188.189178 187.617143 
L 189.492521 186.620814 
L 190.795864 186.772945 
L 192.099206 187.24351 
L 193.402549 186.976283 
L 194.705891 185.934683 
L 196.009234 185.202425 
L 197.312577 187.009116 
L 198.615919 184.527785 
L 199.919262 185.660078 
L 201.222604 185.314041 
L 202.525947 192.600199 
L 203.82929 194.917698 
L 205.132632 194.790635 
L 206.435975 191.050501 
L 207.739318 190.675675 
L 209.04266 191.14689 
L 210.346003 193.133572 
L 211.649345 194.017689 
L 212.952688 191.596705 
L 214.256031 195.314044 
L 215.559373 194.161543 
L 216.862716 196.806874 
L 218.166058 195.447218 
L 219.469401 195.281432 
L 220.772744 191.758613 
L 222.076086 186.976357 
L 223.379429 184.282983 
L 224.682772 186.69513 
L 225.986114 182.597404 
L 227.289457 183.544507 
L 228.592799 180.410938 
L 229.896142 180.504913 
L 231.199485 176.788561 
L 232.502827 174.049791 
L 233.80617 172.697194 
L 235.109513 172.594497 
L 236.412855 177.406203 
L 237.716198 174.580738 
L 239.01954 179.568573 
L 240.322883 183.606976 
L 241.626226 183.27281 
L 242.929568 182.669678 
L 244.232911 183.92499 
L 245.536253 186.789337 
L 246.839596 183.858731 
L 248.142939 186.51694 
L 249.446281 184.117482 
L 250.749624 183.78235 
L 252.052967 184.226164 
L 253.356309 184.855058 
L 255.962994 182.021669 
L 257.266337 180.70926 
L 258.56968 182.342496 
L 259.873022 182.747118 
L 261.176365 183.927617 
L 262.479708 181.394546 
L 263.78305 177.997791 
L 265.086393 181.501173 
L 266.389735 180.001869 
L 267.693078 181.469712 
L 268.996421 180.823594 
L 270.299763 183.357087 
L 271.603106 182.851037 
L 272.906448 176.029304 
L 274.209791 179.52829 
L 275.513134 178.749435 
L 276.816476 175.758157 
L 278.119819 173.155639 
L 279.423162 171.556001 
L 280.726504 169.558191 
L 282.029847 169.494691 
L 283.333189 166.934789 
L 284.636532 163.765965 
L 285.939875 165.864083 
L 287.243217 169.354464 
L 288.54656 165.086741 
L 289.849903 166.073525 
L 291.153245 165.399977 
L 292.456588 164.977758 
L 293.75993 166.111471 
L 295.063273 163.287822 
L 296.366616 165.139352 
L 297.669958 161.023762 
L 298.973301 161.080761 
L 300.276643 165.184619 
L 302.883329 157.169502 
L 304.186671 155.848812 
L 305.490014 151.061229 
L 306.793357 151.359145 
L 308.096699 154.013309 
L 309.400042 155.757021 
L 310.703384 154.47768 
L 312.006727 153.491486 
L 313.31007 153.236761 
L 314.613412 154.19735 
L 315.916755 157.8631 
L 317.220097 159.131197 
L 318.52344 156.345305 
L 319.826783 158.111988 
L 321.130125 158.255437 
L 322.433468 161.945697 
L 323.736811 156.816192 
L 325.040153 155.694484 
L 326.343496 156.961438 
L 327.646838 160.599122 
L 328.950181 163.316705 
L 330.253524 164.209535 
L 331.556866 162.246608 
L 332.860209 164.089886 
L 334.163552 163.953637 
L 335.466894 159.973451 
L 336.770237 163.785741 
L 338.073579 164.827552 
L 339.376922 167.660625 
L 340.680265 173.426704 
L 341.983607 170.444434 
L 343.28695 171.889315 
L 344.590292 170.697997 
L 345.893635 171.417628 
L 347.196978 168.221612 
L 348.50032 166.896582 
L 349.803663 170.624366 
L 351.107006 169.784302 
L 352.410348 170.540709 
L 353.713691 168.401296 
L 355.017033 167.846502 
L 356.320376 168.906598 
L 357.623719 171.292289 
L 358.927061 171.326873 
L 360.230404 170.057156 
L 361.533747 161.558038 
L 362.837089 160.022386 
L 364.140432 153.631028 
L 365.443774 152.913958 
L 366.747117 151.896727 
L 368.05046 153.220031 
L 369.353802 150.484217 
L 370.657145 149.218569 
L 371.960487 152.834179 
L 373.26383 153.10557 
L 374.567173 154.215141 
L 375.870515 151.305565 
L 377.173858 153.48471 
L 378.477201 150.575707 
L 379.780543 150.214553 
L 381.083886 155.706123 
L 383.690571 161.957149 
L 384.993914 159.682467 
L 386.297256 156.968274 
L 387.600599 154.839577 
L 388.903942 153.288431 
L 390.207284 152.174701 
L 391.510627 151.544084 
L 392.813969 147.771123 
L 394.117312 145.143812 
L 395.420655 143.448956 
L 396.723997 146.740448 
L 398.02734 147.994815 
L 399.330682 147.691865 
L 400.634025 144.633709 
L 401.937368 138.593454 
L 403.24071 143.684755 
L 404.544053 146.073597 
L 405.847396 144.906641 
L 407.150738 142.109246 
L 408.454081 138.285915 
L 409.757423 138.21805 
L 411.060766 137.38171 
L 412.364109 136.050129 
L 414.970794 129.341265 
L 416.274136 123.251777 
L 417.577479 125.506536 
L 418.880822 121.928808 
L 421.487507 120.897487 
L 422.79085 124.347128 
L 424.094192 127.45829 
L 425.397535 125.704302 
L 426.700877 120.278331 
L 428.00422 119.573639 
L 429.307563 125.596921 
L 430.610905 125.696323 
L 431.914248 128.370779 
L 433.217591 126.792932 
L 434.520933 125.81862 
L 435.824276 131.663036 
L 437.127618 134.18642 
L 438.430961 133.888128 
L 439.734304 131.897953 
L 441.037646 120.369988 
L 442.340989 122.191311 
L 443.644331 126.296211 
L 444.947674 121.451032 
L 446.251017 124.090196 
L 447.554359 117.156691 
L 448.857702 118.280279 
L 450.161045 126.145295 
L 451.464387 124.403123 
L 452.76773 115.417362 
L 454.071072 115.999336 
L 455.374415 123.590327 
L 456.677758 122.020482 
L 457.9811 125.360284 
L 459.284443 127.602556 
L 460.587786 129.337593 
L 461.891128 137.829798 
L 463.194471 138.227594 
L 464.497813 136.770543 
L 465.801156 139.148638 
L 467.104499 137.322189 
L 468.407841 136.547009 
L 469.711184 134.295262 
L 471.014526 132.785076 
L 472.317869 131.066455 
L 473.621212 126.927119 
L 474.924554 127.773033 
L 476.227897 119.221462 
L 477.53124 115.905006 
L 478.834582 109.412887 
L 480.137925 115.027537 
L 481.441267 117.83099 
L 482.74461 115.635019 
L 484.047953 119.420742 
L 485.351295 117.20528 
L 486.654638 108.073162 
L 487.957981 106.490532 
L 489.261323 108.38262 
L 490.564666 110.621841 
L 491.868008 111.477675 
L 493.171351 96.428868 
L 494.474694 87.827046 
L 495.778036 90.019465 
L 497.081379 89.852155 
L 498.384721 94.373079 
L 499.688064 87.140888 
L 500.991407 90.080365 
L 502.294749 90.847772 
L 503.598092 84.01628 
L 504.901435 81.697698 
L 506.204777 80.75982 
L 507.50812 70.497786 
L 508.811462 61.403882 
L 511.418148 85.100257 
L 512.72149 82.866693 
L 514.024833 75.713366 
L 515.328175 72.066729 
L 516.631518 56.911329 
L 517.934861 52.516893 
L 519.238203 30.784097 
L 520.541546 28.361071 
L 521.844889 29.326756 
L 523.148231 32.812914 
L 524.451574 25.092727 
L 525.754916 25.456208 
L 527.058259 25.59381 
L 528.361602 35.600825 
L 529.664944 31.608898 
L 530.968287 37.5045 
L 532.27163 42.863246 
L 533.574972 45.800573 
L 534.878315 42.47916 
L 536.181657 43.067102 
L 537.485 42.654575 
L 537.485 42.654575 
" style="fill:none;stroke:#1f77b4;stroke-linecap:square;"/>
   </g>
   <g id="line2d_13">
    <path clip-path="url(#p068c835ab5)" d="M 69.585 214.947528 
L 70.888343 215.87749 
L 72.191685 216.177197 
L 76.101713 211.242327 
L 77.405056 207.576342 
L 78.708398 205.433327 
L 80.011741 203.610569 
L 81.315084 201.225581 
L 82.618426 198.423768 
L 83.921769 192.143483 
L 85.225111 187.171753 
L 86.528454 182.688367 
L 87.831797 180.38337 
L 89.135139 179.636592 
L 90.438482 182.867495 
L 93.045167 187.404448 
L 94.34851 189.089257 
L 95.651852 190.080608 
L 96.955195 190.436931 
L 98.258538 187.809734 
L 99.56188 183.633527 
L 100.865223 181.583222 
L 102.168565 181.708525 
L 103.471908 184.960699 
L 104.775251 184.875718 
L 106.078593 186.203547 
L 107.381936 188.475553 
L 108.685279 187.926409 
L 109.988621 188.209639 
L 111.291964 189.007889 
L 112.595306 188.311398 
L 113.898649 187.892314 
L 115.201992 185.465131 
L 116.505334 184.560153 
L 117.808677 183.34755 
L 119.112019 181.645508 
L 121.718705 175.187224 
L 123.022047 173.387638 
L 124.32539 172.424692 
L 125.628733 173.953252 
L 126.932075 176.298658 
L 128.235418 172.829682 
L 129.53876 171.220953 
L 130.842103 168.984711 
L 132.145446 167.925671 
L 133.448788 167.671993 
L 134.752131 165.969535 
L 136.055474 165.47386 
L 137.358816 162.865668 
L 138.662159 158.014613 
L 139.965501 150.980261 
L 141.268844 145.232318 
L 142.572187 143.303321 
L 143.875529 140.147393 
L 145.178872 134.282241 
L 146.482214 133.488288 
L 149.0889 128.335995 
L 150.392242 128.097966 
L 151.695585 131.846021 
L 152.998928 133.543397 
L 154.30227 136.719559 
L 155.605613 138.182929 
L 156.908955 142.523139 
L 158.212298 147.458217 
L 160.818983 154.092168 
L 162.122326 159.737536 
L 163.425669 161.158711 
L 166.032354 164.18742 
L 167.335696 161.535342 
L 168.639039 160.784775 
L 169.942382 157.311477 
L 172.549067 157.120897 
L 173.852409 158.758809 
L 175.155752 157.754311 
L 176.459095 157.574314 
L 177.762437 158.904855 
L 179.06578 162.753885 
L 180.369123 163.856992 
L 182.975808 164.718213 
L 184.27915 162.343913 
L 185.582493 164.190254 
L 186.885836 163.579253 
L 188.189178 162.544482 
L 189.492521 159.676109 
L 190.795864 153.821171 
L 192.099206 151.443845 
L 194.705891 149.326189 
L 196.009234 145.963938 
L 199.919262 129.630389 
L 201.222604 127.152903 
L 202.525947 125.751047 
L 203.82929 129.255212 
L 205.132632 131.306052 
L 206.435975 126.984965 
L 207.739318 121.746859 
L 209.04266 118.622895 
L 210.346003 116.558889 
L 211.649345 117.081325 
L 212.952688 119.004174 
L 215.559373 111.953228 
L 216.862716 108.82658 
L 218.166058 103.338675 
L 219.469401 94.147034 
L 222.076086 80.213503 
L 223.379429 69.779417 
L 224.682772 67.845425 
L 225.986114 67.896596 
L 228.592799 64.612261 
L 229.896142 63.609065 
L 231.199485 76.308207 
L 232.502827 80.405161 
L 233.80617 81.1705 
L 235.109513 80.905734 
L 236.412855 77.48155 
L 237.716198 74.507446 
L 239.01954 73.260879 
L 240.322883 66.817481 
L 242.929568 65.382562 
L 244.232911 67.780097 
L 245.536253 78.978918 
L 246.839596 85.760289 
L 248.142939 89.46962 
L 249.446281 97.394465 
L 250.749624 106.434454 
L 252.052967 112.202142 
L 253.356309 118.770981 
L 254.659652 118.404174 
L 255.962994 122.901434 
L 257.266337 126.135351 
L 258.56968 130.533134 
L 259.873022 132.933192 
L 261.176365 134.402737 
L 262.479708 130.59709 
L 263.78305 128.068899 
L 265.086393 128.336645 
L 266.389735 127.771041 
L 267.693078 129.976423 
L 268.996421 130.116608 
L 270.299763 131.816771 
L 271.603106 137.291729 
L 272.906448 143.370396 
L 274.209791 148.764883 
L 275.513134 155.996991 
L 276.816476 160.739011 
L 278.119819 162.606122 
L 279.423162 166.197741 
L 280.726504 165.494992 
L 282.029847 165.651295 
L 283.333189 168.406582 
L 284.636532 169.15531 
L 285.939875 170.238465 
L 287.243217 168.186629 
L 288.54656 164.428112 
L 289.849903 162.542196 
L 291.153245 164.229778 
L 293.75993 170.196718 
L 295.063273 170.029228 
L 296.366616 167.586879 
L 297.669958 164.858484 
L 298.973301 163.372141 
L 300.276643 165.001224 
L 301.579986 164.669859 
L 302.883329 163.240063 
L 304.186671 162.06172 
L 305.490014 158.735922 
L 306.793357 155.862885 
L 308.096699 154.100563 
L 309.400042 152.823373 
L 310.703384 153.096207 
L 312.006727 153.604947 
L 313.31007 155.526556 
L 314.613412 155.375822 
L 315.916755 158.011229 
L 317.220097 158.70574 
L 318.52344 156.131657 
L 319.826783 151.747047 
L 321.130125 148.092433 
L 322.433468 143.195765 
L 323.736811 139.398174 
L 325.040153 133.961991 
L 326.343496 129.011822 
L 327.646838 126.284925 
L 328.950181 124.580254 
L 330.253524 119.577448 
L 331.556866 116.047138 
L 332.860209 116.407349 
L 334.163552 113.881371 
L 335.466894 109.739857 
L 336.770237 112.279783 
L 338.073579 119.154787 
L 339.376922 124.982302 
L 340.680265 128.087008 
L 341.983607 123.275889 
L 343.28695 115.811905 
L 344.590292 106.63161 
L 345.893635 105.466533 
L 347.196978 101.739576 
L 348.50032 97.217571 
L 351.107006 84.882047 
L 352.410348 83.723468 
L 353.713691 84.894012 
L 356.320376 100.254479 
L 357.623719 101.081741 
L 358.927061 103.985563 
L 360.230404 109.853738 
L 361.533747 113.799269 
L 362.837089 119.479661 
L 365.443774 126.96526 
L 366.747117 129.281287 
L 368.05046 134.016813 
L 370.657145 140.616175 
L 371.960487 147.254151 
L 373.26383 149.481341 
L 374.567173 153.628258 
L 375.870515 155.300885 
L 377.173858 158.591365 
L 378.477201 158.817691 
L 379.780543 158.556038 
L 381.083886 160.086013 
L 382.387228 159.230536 
L 383.690571 160.060455 
L 387.600599 164.898306 
L 388.903942 170.490867 
L 390.207284 173.396222 
L 391.510627 175.361423 
L 392.813969 180.942594 
L 395.420655 190.299232 
L 396.723997 193.894285 
L 398.02734 193.206634 
L 399.330682 193.449045 
L 400.634025 194.998901 
L 401.937368 196.858833 
L 403.24071 197.209516 
L 404.544053 196.95038 
L 405.847396 196.49272 
L 407.150738 195.512042 
L 408.454081 193.546655 
L 409.757423 193.486017 
L 411.060766 192.966234 
L 412.364109 193.378559 
L 413.667451 192.999638 
L 414.970794 192.127556 
L 416.274136 193.939067 
L 417.577479 197.074629 
L 418.880822 198.962074 
L 420.184164 199.940029 
L 421.487507 199.025494 
L 422.79085 199.01418 
L 424.094192 196.189056 
L 425.397535 192.564542 
L 429.307563 173.299782 
L 430.610905 169.11289 
L 431.914248 167.718332 
L 433.217591 168.435813 
L 434.520933 170.541608 
L 435.824276 173.361963 
L 437.127618 173.125778 
L 439.734304 168.549859 
L 441.037646 165.047996 
L 442.340989 161.922137 
L 443.644331 161.558347 
L 446.251017 160.256348 
L 447.554359 156.555504 
L 448.857702 155.041416 
L 450.161045 155.756948 
L 451.464387 149.62151 
L 454.071072 135.641199 
L 455.374415 130.81655 
L 456.677758 127.09727 
L 457.9811 122.796244 
L 459.284443 125.88823 
L 460.587786 125.830797 
L 461.891128 124.192096 
L 463.194471 121.716072 
L 464.497813 120.818896 
L 465.801156 118.076252 
L 467.104499 113.022421 
L 468.407841 106.790516 
L 469.711184 102.964075 
L 471.014526 105.452364 
L 472.317869 107.077935 
L 473.621212 108.454068 
L 474.924554 109.339701 
L 476.227897 113.12344 
L 477.53124 116.216395 
L 478.834582 117.256348 
L 480.137925 114.313262 
L 481.441267 113.839651 
L 482.74461 114.924152 
L 484.047953 112.414719 
L 485.351295 114.374267 
L 487.957981 113.950069 
L 489.261323 117.817213 
L 490.564666 115.122279 
L 491.868008 118.559336 
L 493.171351 116.852052 
L 494.474694 116.096843 
L 495.778036 117.525758 
L 497.081379 117.460027 
L 498.384721 117.885912 
L 499.688064 114.574758 
L 500.991407 114.998342 
L 502.294749 115.598466 
L 503.598092 115.835403 
L 504.901435 120.068221 
L 506.204777 128.616051 
L 507.50812 128.951895 
L 508.811462 132.208606 
L 510.114805 137.010155 
L 511.418148 138.409898 
L 512.72149 137.540767 
L 514.024833 132.917556 
L 515.328175 132.58841 
L 517.934861 128.298526 
L 519.238203 122.30677 
L 520.541546 115.753295 
L 521.844889 104.058983 
L 523.148231 99.43311 
L 524.451574 97.215689 
L 525.754916 91.021303 
L 527.058259 79.014538 
L 528.361602 70.961058 
L 529.664944 68.897644 
L 530.968287 65.811726 
L 532.27163 65.103262 
L 533.574972 63.953276 
L 534.878315 57.288359 
L 536.181657 53.474381 
L 537.485 42.654575 
L 537.485 42.654575 
" style="fill:none;stroke:#ff7f0e;stroke-linecap:square;"/>
   </g>
   <g id="line2d_14">
    <path clip-path="url(#p068c835ab5)" d="M 69.585 214.594168 
L 70.888343 212.946972 
L 72.191685 213.557281 
L 73.495028 212.43064 
L 74.79837 212.607115 
L 76.101713 212.202587 
L 77.405056 212.432548 
L 78.708398 210.960215 
L 80.011741 209.192948 
L 81.315084 208.850007 
L 82.618426 209.260941 
L 83.921769 207.095342 
L 85.225111 206.261591 
L 86.528454 205.896312 
L 87.831797 204.584127 
L 89.135139 203.830818 
L 90.438482 202.850487 
L 91.741825 203.328079 
L 93.045167 202.766779 
L 94.34851 202.729492 
L 95.651852 201.401705 
L 96.955195 202.381867 
L 98.258538 200.371921 
L 99.56188 201.940737 
L 100.865223 202.35109 
L 102.168565 200.961647 
L 103.471908 201.826154 
L 104.775251 201.719498 
L 106.078593 201.226257 
L 107.381936 202.344444 
L 108.685279 204.166603 
L 109.988621 204.233676 
L 111.291964 202.989516 
L 112.595306 204.956057 
L 113.898649 204.164118 
L 115.201992 203.569352 
L 116.505334 205.060739 
L 117.808677 203.927426 
L 119.112019 201.993668 
L 120.415362 201.485171 
L 121.718705 202.17939 
L 123.022047 200.634821 
L 124.32539 202.366758 
L 125.628733 203.419258 
L 126.932075 201.559588 
L 128.235418 199.906024 
L 129.53876 202.983544 
L 130.842103 201.435111 
L 132.145446 202.541926 
L 133.448788 200.185798 
L 134.752131 201.73768 
L 136.055474 198.075116 
L 137.358816 199.43261 
L 138.662159 197.816048 
L 139.965501 197.108375 
L 141.268844 195.426035 
L 142.572187 196.695294 
L 143.875529 197.232356 
L 145.178872 195.819908 
L 146.482214 196.059382 
L 147.785557 194.601573 
L 149.0889 193.73374 
L 150.392242 193.491494 
L 151.695585 192.433759 
L 152.998928 193.45612 
L 154.30227 190.464085 
L 155.605613 194.796303 
L 156.908955 187.853745 
L 158.212298 193.101 
L 159.515641 190.76031 
L 160.818983 194.163717 
L 162.122326 188.997089 
L 163.425669 194.249301 
L 164.729011 192.057673 
L 166.032354 190.736014 
L 167.335696 193.007144 
L 168.639039 192.660416 
L 169.942382 190.986617 
L 172.549067 189.75029 
L 173.852409 192.01198 
L 175.155752 191.234072 
L 176.459095 189.920085 
L 177.762437 187.882685 
L 179.06578 185.261868 
L 180.369123 185.35974 
L 181.672465 186.754407 
L 182.975808 184.133733 
L 184.27915 188.859683 
L 185.582493 187.857704 
L 186.885836 188.248742 
L 188.189178 187.026948 
L 189.492521 186.126679 
L 192.099206 187.12761 
L 193.402549 187.110756 
L 194.705891 186.556488 
L 196.009234 189.02419 
L 197.312577 184.45155 
L 198.615919 189.326188 
L 199.919262 185.033629 
L 201.222604 188.862345 
L 202.525947 188.9296 
L 205.132632 186.272091 
L 206.435975 185.849655 
L 207.739318 182.326563 
L 209.04266 179.130476 
L 210.346003 181.529123 
L 211.649345 182.536541 
L 212.952688 180.573227 
L 214.256031 180.744481 
L 215.559373 182.416621 
L 216.862716 179.12047 
L 218.166058 180.238307 
L 219.469401 182.471076 
L 220.772744 180.838286 
L 222.076086 176.555979 
L 223.379429 178.500428 
L 225.986114 179.36179 
L 227.289457 177.845157 
L 228.592799 176.931646 
L 229.896142 175.851828 
L 231.199485 176.147024 
L 232.502827 173.001104 
L 233.80617 175.849085 
L 235.109513 172.448475 
L 236.412855 175.552289 
L 237.716198 173.341366 
L 239.01954 172.023815 
L 240.322883 169.877508 
L 241.626226 170.787103 
L 242.929568 165.953854 
L 244.232911 166.00565 
L 245.536253 165.826958 
L 246.839596 167.186169 
L 248.142939 166.132485 
L 249.446281 163.201126 
L 250.749624 162.938291 
L 252.052967 160.492305 
L 253.356309 160.523631 
L 254.659652 159.12036 
L 255.962994 160.259712 
L 257.266337 160.392848 
L 258.56968 160.91319 
L 259.873022 160.868159 
L 261.176365 162.200531 
L 262.479708 160.134486 
L 263.78305 161.099817 
L 265.086393 162.271256 
L 266.389735 165.819845 
L 267.693078 166.904062 
L 268.996421 165.580838 
L 270.299763 167.945801 
L 271.603106 162.823147 
L 272.906448 167.517302 
L 274.209791 160.052121 
L 275.513134 165.6862 
L 276.816476 159.521575 
L 278.119819 164.711577 
L 279.423162 161.988545 
L 280.726504 164.762464 
L 282.029847 161.118131 
L 283.333189 164.531948 
L 285.939875 162.095344 
L 287.243217 161.107573 
L 288.54656 161.67274 
L 289.849903 158.11771 
L 291.153245 163.642433 
L 292.456588 157.55074 
L 293.75993 158.723457 
L 295.063273 152.414529 
L 296.366616 159.744725 
L 297.669958 155.441761 
L 298.973301 157.804823 
L 300.276643 151.985434 
L 301.579986 158.284408 
L 302.883329 154.607563 
L 304.186671 155.675642 
L 305.490014 153.332739 
L 306.793357 156.386333 
L 308.096699 151.884921 
L 309.400042 153.968941 
L 312.006727 150.23629 
L 313.31007 151.638257 
L 314.613412 147.125304 
L 315.916755 150.802025 
L 317.220097 149.133363 
L 318.52344 150.650673 
L 319.826783 148.495297 
L 321.130125 148.493921 
L 322.433468 151.665632 
L 323.736811 148.922164 
L 325.040153 150.069067 
L 326.343496 152.52257 
L 327.646838 151.547914 
L 328.950181 152.660033 
L 330.253524 148.210149 
L 331.556866 147.174204 
L 332.860209 150.529596 
L 334.163552 144.3863 
L 335.466894 151.931808 
L 336.770237 143.856815 
L 338.073579 149.421824 
L 339.376922 140.978994 
L 340.680265 143.337562 
L 341.983607 140.224786 
L 343.28695 146.398789 
L 344.590292 146.544423 
L 345.893635 144.66417 
L 347.196978 149.047658 
L 348.50032 144.588693 
L 349.803663 143.341501 
L 351.107006 144.015457 
L 352.410348 143.718929 
L 353.713691 139.41394 
L 355.017033 140.932199 
L 356.320376 142.773662 
L 357.623719 136.209066 
L 358.927061 139.079923 
L 360.230404 139.893583 
L 361.533747 135.64314 
L 362.837089 139.40723 
L 365.443774 134.284423 
L 366.747117 138.540722 
L 368.05046 133.87853 
L 369.353802 135.244869 
L 370.657145 135.102951 
L 371.960487 133.814502 
L 373.26383 136.384902 
L 374.567173 131.965973 
L 375.870515 136.401329 
L 377.173858 128.370846 
L 378.477201 134.194226 
L 379.780543 125.960088 
L 381.083886 129.321187 
L 382.387228 125.326972 
L 383.690571 126.818123 
L 384.993914 132.161152 
L 386.297256 131.190155 
L 387.600599 128.383647 
L 390.207284 129.334895 
L 391.510627 126.898022 
L 392.813969 132.558697 
L 394.117312 129.485407 
L 395.420655 129.733166 
L 396.723997 125.210469 
L 398.02734 123.967692 
L 399.330682 125.973445 
L 400.634025 124.732966 
L 401.937368 126.023781 
L 403.24071 123.147999 
L 404.544053 122.865635 
L 405.847396 120.514757 
L 407.150738 119.216902 
L 408.454081 115.457163 
L 409.757423 118.2949 
L 411.060766 114.861089 
L 412.364109 111.993014 
L 414.970794 110.994127 
L 416.274136 112.502581 
L 417.577479 113.042525 
L 418.880822 110.037677 
L 420.184164 115.931398 
L 421.487507 112.581704 
L 422.79085 108.21229 
L 424.094192 111.821668 
L 425.397535 104.901689 
L 426.700877 111.037958 
L 428.00422 103.40725 
L 429.307563 105.273556 
L 430.610905 101.576289 
L 431.914248 101.743641 
L 433.217591 101.511081 
L 434.520933 102.165376 
L 435.824276 104.649881 
L 437.127618 102.434601 
L 438.430961 103.907932 
L 439.734304 104.901396 
L 441.037646 101.746121 
L 442.340989 104.29551 
L 443.644331 100.927804 
L 444.947674 104.521079 
L 446.251017 98.748108 
L 447.554359 103.502136 
L 448.857702 103.548503 
L 450.161045 98.617884 
L 451.464387 105.20491 
L 452.76773 102.318387 
L 454.071072 94.267075 
L 455.374415 94.146832 
L 456.677758 92.372099 
L 457.9811 93.393817 
L 459.284443 87.925186 
L 460.587786 90.802549 
L 461.891128 88.813267 
L 463.194471 90.66675 
L 464.497813 89.765476 
L 465.801156 93.54504 
L 467.104499 85.108069 
L 468.407841 86.21549 
L 469.711184 79.387857 
L 471.014526 76.888921 
L 472.317869 71.45793 
L 473.621212 71.836242 
L 474.924554 71.614549 
L 476.227897 75.895145 
L 477.53124 67.616303 
L 478.834582 75.109612 
L 480.137925 65.904725 
L 481.441267 77.886154 
L 482.74461 68.737232 
L 484.047953 73.161868 
L 485.351295 66.659414 
L 486.654638 68.030778 
L 487.957981 67.89037 
L 489.261323 61.348997 
L 490.564666 73.959431 
L 491.868008 66.226137 
L 493.171351 70.339662 
L 494.474694 63.38244 
L 495.778036 67.598437 
L 497.081379 61.941432 
L 498.384721 67.358956 
L 500.991407 57.136353 
L 502.294749 61.988656 
L 503.598092 58.944802 
L 504.901435 52.760297 
L 506.204777 59.33736 
L 507.50812 58.437943 
L 508.811462 62.546962 
L 510.114805 48.685892 
L 511.418148 56.394929 
L 512.72149 53.701152 
L 514.024833 60.744893 
L 515.328175 56.91727 
L 516.631518 51.34024 
L 517.934861 50.899288 
L 519.238203 45.747269 
L 520.541546 47.288325 
L 521.844889 44.935977 
L 523.148231 50.692721 
L 524.451574 40.026731 
L 525.754916 55.65287 
L 527.058259 43.025371 
L 528.361602 47.671594 
L 529.664944 45.304869 
L 530.968287 47.235087 
L 532.27163 53.348277 
L 533.574972 46.804849 
L 534.878315 44.562784 
L 536.181657 38.44819 
L 537.485 42.654575 
L 537.485 42.654575 
" style="fill:none;stroke:#2ca02c;stroke-linecap:square;"/>
   </g>
   <g id="line2d_15">
    <path clip-path="url(#p068c835ab5)" d="M 69.585 215.331923 
L 70.888343 212.232671 
L 72.191685 213.764579 
L 73.495028 213.536766 
L 74.79837 215.071194 
L 76.101713 214.540171 
L 77.405056 215.421327 
L 78.708398 211.618954 
L 80.011741 211.722855 
L 81.315084 211.598372 
L 82.618426 210.954211 
L 83.921769 208.289676 
L 85.225111 206.68525 
L 86.528454 203.651864 
L 87.831797 200.107076 
L 89.135139 199.816271 
L 90.438482 201.037095 
L 93.045167 194.778648 
L 94.34851 193.442984 
L 95.651852 194.816293 
L 96.955195 194.791057 
L 98.258538 188.269933 
L 99.56188 189.784828 
L 100.865223 192.059043 
L 102.168565 192.339883 
L 103.471908 193.87008 
L 104.775251 195.17062 
L 106.078593 196.006007 
L 107.381936 187.212224 
L 108.685279 186.53207 
L 109.988621 186.368731 
L 111.291964 186.940964 
L 112.595306 186.625012 
L 113.898649 185.342696 
L 115.201992 187.241539 
L 117.808677 189.34005 
L 119.112019 190.609161 
L 120.415362 191.268955 
L 121.718705 191.269824 
L 123.022047 192.868511 
L 124.32539 190.767104 
L 125.628733 192.785614 
L 126.932075 193.781944 
L 128.235418 193.386125 
L 129.53876 194.823354 
L 130.842103 195.348562 
L 132.145446 194.961601 
L 133.448788 196.801679 
L 134.752131 188.931315 
L 136.055474 185.93527 
L 137.358816 187.744258 
L 138.662159 185.662564 
L 139.965501 183.207943 
L 141.268844 183.552833 
L 142.572187 182.938038 
L 143.875529 183.817215 
L 145.178872 184.336169 
L 146.482214 181.84318 
L 147.785557 184.117252 
L 149.0889 184.663122 
L 150.392242 185.794005 
L 151.695585 188.084847 
L 152.998928 189.926873 
L 155.605613 192.164494 
L 156.908955 190.08876 
L 158.212298 187.600606 
L 159.515641 185.406213 
L 160.818983 182.755805 
L 162.122326 181.702654 
L 163.425669 181.454483 
L 164.729011 180.598483 
L 166.032354 179.388662 
L 167.335696 177.823027 
L 168.639039 178.500986 
L 169.942382 178.680239 
L 171.245724 178.154215 
L 172.549067 179.392859 
L 173.852409 178.319313 
L 175.155752 175.672967 
L 176.459095 175.787958 
L 177.762437 177.751858 
L 179.06578 176.694748 
L 180.369123 177.371068 
L 182.975808 179.48183 
L 184.27915 181.653784 
L 185.582493 181.774821 
L 186.885836 183.559139 
L 188.189178 181.065537 
L 189.492521 177.866786 
L 190.795864 180.165825 
L 192.099206 182.031339 
L 193.402549 176.979316 
L 194.705891 178.193313 
L 196.009234 178.422636 
L 197.312577 179.273636 
L 198.615919 179.31807 
L 199.919262 181.552006 
L 201.222604 179.556023 
L 202.525947 182.062132 
L 203.82929 178.96527 
L 205.132632 174.388664 
L 206.435975 176.923389 
L 207.739318 175.997287 
L 209.04266 178.462317 
L 210.346003 176.827941 
L 211.649345 178.755395 
L 212.952688 179.164409 
L 214.256031 180.885922 
L 215.559373 181.268428 
L 216.862716 182.630688 
L 218.166058 185.005464 
L 219.469401 186.871411 
L 220.772744 187.338364 
L 222.076086 189.106293 
L 223.379429 190.203763 
L 224.682772 188.657672 
L 225.986114 184.098934 
L 227.289457 185.681866 
L 228.592799 187.805794 
L 229.896142 188.385053 
L 231.199485 188.555802 
L 232.502827 185.413575 
L 233.80617 186.310718 
L 235.109513 186.453848 
L 236.412855 186.971857 
L 237.716198 181.2287 
L 239.01954 182.498645 
L 240.322883 183.34136 
L 241.626226 183.073355 
L 242.929568 185.166268 
L 244.232911 182.388969 
L 245.536253 183.932379 
L 246.839596 182.179535 
L 248.142939 178.715544 
L 249.446281 179.644573 
L 250.749624 181.625821 
L 252.052967 183.92278 
L 253.356309 183.575101 
L 254.659652 179.878866 
L 255.962994 179.23365 
L 257.266337 179.385879 
L 258.56968 177.13975 
L 259.873022 178.409736 
L 261.176365 176.234527 
L 262.479708 175.299546 
L 263.78305 172.287059 
L 265.086393 173.696936 
L 266.389735 174.581525 
L 267.693078 172.099456 
L 268.996421 167.100258 
L 270.299763 163.6707 
L 271.603106 164.566492 
L 274.209791 168.247653 
L 275.513134 167.408107 
L 276.816476 155.796258 
L 278.119819 157.342508 
L 279.423162 157.086755 
L 280.726504 154.674913 
L 282.029847 155.106507 
L 283.333189 151.596294 
L 284.636532 154.553347 
L 285.939875 149.300107 
L 287.243217 149.923215 
L 288.54656 147.071068 
L 289.849903 143.628058 
L 291.153245 143.024856 
L 292.456588 146.663833 
L 293.75993 142.527775 
L 295.063273 140.120247 
L 296.366616 143.229842 
L 297.669958 139.7758 
L 298.973301 142.832916 
L 300.276643 144.480339 
L 301.579986 144.411788 
L 302.883329 147.762756 
L 304.186671 150.16471 
L 305.490014 153.085315 
L 306.793357 156.569724 
L 308.096699 154.31626 
L 309.400042 142.912264 
L 310.703384 144.526983 
L 312.006727 148.272546 
L 313.31007 144.122635 
L 314.613412 143.39424 
L 315.916755 138.222235 
L 317.220097 133.679598 
L 318.52344 119.610127 
L 319.826783 111.002997 
L 321.130125 110.925841 
L 322.433468 115.525904 
L 325.040153 121.57217 
L 326.343496 118.74916 
L 327.646838 110.694081 
L 328.950181 107.186673 
L 330.253524 102.94544 
L 331.556866 106.575134 
L 332.860209 109.030807 
L 334.163552 105.75043 
L 335.466894 108.432946 
L 336.770237 108.625199 
L 338.073579 103.735562 
L 339.376922 103.997343 
L 340.680265 98.773848 
L 343.28695 105.191483 
L 344.590292 103.176225 
L 345.893635 106.259784 
L 347.196978 103.477442 
L 348.50032 104.39381 
L 351.107006 94.336477 
L 352.410348 86.724055 
L 353.713691 91.256407 
L 355.017033 94.648877 
L 356.320376 88.281446 
L 357.623719 80.947701 
L 358.927061 78.928477 
L 360.230404 77.733106 
L 361.533747 77.860201 
L 362.837089 81.407449 
L 364.140432 79.341737 
L 365.443774 82.784613 
L 366.747117 78.147853 
L 369.353802 82.474921 
L 370.657145 85.455908 
L 371.960487 87.334512 
L 373.26383 89.442412 
L 374.567173 94.689011 
L 375.870515 86.683078 
L 377.173858 87.11198 
L 378.477201 76.150522 
L 379.780543 75.0923 
L 381.083886 77.499156 
L 382.387228 73.969686 
L 383.690571 67.549139 
L 384.993914 71.859296 
L 386.297256 70.592985 
L 387.600599 75.66606 
L 388.903942 61.070406 
L 390.207284 63.413677 
L 391.510627 62.607651 
L 392.813969 61.318617 
L 394.117312 66.186866 
L 395.420655 65.118129 
L 396.723997 62.783543 
L 398.02734 64.295305 
L 399.330682 64.949768 
L 400.634025 70.615774 
L 401.937368 59.372044 
L 403.24071 55.071852 
L 404.544053 58.246433 
L 407.150738 63.430601 
L 408.454081 65.480983 
L 409.757423 68.864298 
L 411.060766 70.739618 
L 412.364109 73.407594 
L 414.970794 79.278354 
L 416.274136 80.663443 
L 417.577479 78.104149 
L 418.880822 74.856463 
L 420.184164 80.173508 
L 421.487507 83.744801 
L 422.79085 83.110797 
L 424.094192 79.787562 
L 425.397535 70.291964 
L 426.700877 71.975941 
L 428.00422 76.131762 
L 429.307563 75.007053 
L 430.610905 77.880734 
L 431.914248 81.222553 
L 433.217591 76.79695 
L 434.520933 64.495151 
L 435.824276 53.893807 
L 437.127618 60.195145 
L 438.430961 61.857958 
L 439.734304 67.443897 
L 441.037646 63.017251 
L 442.340989 60.084747 
L 444.947674 68.007313 
L 446.251017 71.272871 
L 447.554359 70.238949 
L 448.857702 74.974884 
L 450.161045 73.695007 
L 451.464387 78.793846 
L 452.76773 82.753819 
L 455.374415 91.728955 
L 457.9811 101.406948 
L 459.284443 102.111457 
L 460.587786 104.99737 
L 461.891128 102.016854 
L 463.194471 103.645271 
L 464.497813 96.402735 
L 465.801156 94.502926 
L 467.104499 90.651543 
L 468.407841 95.64287 
L 469.711184 94.033134 
L 471.014526 90.346235 
L 472.317869 93.163864 
L 473.621212 89.320047 
L 474.924554 74.92046 
L 476.227897 77.473053 
L 477.53124 75.194167 
L 478.834582 79.869019 
L 480.137925 53.058634 
L 481.441267 44.898568 
L 482.74461 49.451799 
L 484.047953 53.543571 
L 485.351295 43.721203 
L 486.654638 47.413519 
L 487.957981 49.416796 
L 489.261323 54.831512 
L 490.564666 55.426352 
L 491.868008 54.342021 
L 493.171351 60.007526 
L 494.474694 56.874301 
L 495.778036 46.697107 
L 497.081379 47.441649 
L 498.384721 44.073031 
L 499.688064 46.705985 
L 500.991407 49.630224 
L 502.294749 54.499398 
L 503.598092 49.346284 
L 504.901435 42.684664 
L 506.204777 46.737106 
L 507.50812 45.33577 
L 508.811462 31.99053 
L 510.114805 32.746576 
L 511.418148 29.363154 
L 512.72149 34.817697 
L 515.328175 48.071247 
L 516.631518 54.392316 
L 517.934861 53.613458 
L 519.238203 56.424011 
L 520.541546 60.214967 
L 521.844889 60.537452 
L 523.148231 66.677016 
L 524.451574 62.413236 
L 525.754916 64.797736 
L 527.058259 70.617965 
L 528.361602 72.819737 
L 529.664944 71.751328 
L 530.968287 63.09588 
L 532.27163 56.325025 
L 533.574972 52.503835 
L 534.878315 39.376714 
L 536.181657 42.603718 
L 537.485 42.654575 
L 537.485 42.654575 
" style="fill:none;stroke:#d62728;stroke-linecap:square;"/>
   </g>
   <g id="line2d_16">
    <path clip-path="url(#p068c835ab5)" d="M 69.585 212.666436 
L 72.191685 209.50953 
L 73.495028 210.805027 
L 74.79837 210.829479 
L 76.101713 209.903227 
L 77.405056 209.417062 
L 78.708398 213.220227 
L 80.011741 213.506866 
L 81.315084 215.810096 
L 82.618426 214.166027 
L 83.921769 213.059098 
L 85.225111 212.858735 
L 86.528454 211.030499 
L 89.135139 209.349178 
L 90.438482 207.808661 
L 91.741825 206.675881 
L 93.045167 208.166276 
L 94.34851 207.236589 
L 95.651852 210.880746 
L 96.955195 210.27164 
L 98.258538 208.608056 
L 99.56188 207.347657 
L 100.865223 206.492969 
L 102.168565 207.481607 
L 103.471908 206.073717 
L 104.775251 208.224518 
L 106.078593 209.739744 
L 107.381936 209.580148 
L 108.685279 207.241069 
L 109.988621 209.17188 
L 111.291964 208.200771 
L 112.595306 206.644926 
L 113.898649 208.890212 
L 115.201992 213.984882 
L 116.505334 213.407945 
L 117.808677 217.232263 
L 119.112019 217.184738 
L 120.415362 215.135202 
L 121.718705 221.38423 
L 123.022047 223.255652 
L 124.32539 224.547273 
L 125.628733 222.859727 
L 126.932075 223.36546 
L 128.235418 223.044447 
L 129.53876 221.566811 
L 130.842103 220.623442 
L 132.145446 220.907571 
L 133.448788 219.605409 
L 134.752131 217.848868 
L 136.055474 220.443056 
L 137.358816 219.513447 
L 139.965501 217.150551 
L 141.268844 220.411399 
L 142.572187 220.098844 
L 143.875529 218.768657 
L 145.178872 219.314848 
L 146.482214 218.013017 
L 147.785557 216.382112 
L 149.0889 218.244197 
L 150.392242 218.610096 
L 151.695585 219.813231 
L 152.998928 219.576811 
L 154.30227 217.555038 
L 155.605613 217.757677 
L 156.908955 216.308324 
L 159.515641 213.901484 
L 160.818983 214.137686 
L 162.122326 211.956288 
L 163.425669 212.271373 
L 164.729011 210.358304 
L 166.032354 208.831308 
L 167.335696 206.671657 
L 168.639039 206.47093 
L 171.245724 203.14737 
L 172.549067 208.111711 
L 173.852409 209.608611 
L 175.155752 207.37572 
L 176.459095 206.999863 
L 177.762437 207.33086 
L 179.06578 205.754592 
L 182.975808 204.54353 
L 184.27915 203.103415 
L 185.582493 201.056838 
L 186.885836 203.02015 
L 188.189178 201.36499 
L 189.492521 198.873643 
L 190.795864 202.920017 
L 192.099206 202.378628 
L 193.402549 205.705449 
L 194.705891 206.204696 
L 196.009234 204.397243 
L 197.312577 203.120294 
L 198.615919 204.388191 
L 199.919262 206.805301 
L 201.222604 206.033434 
L 202.525947 208.451903 
L 203.82929 207.405528 
L 205.132632 206.506865 
L 206.435975 204.587658 
L 207.739318 203.705302 
L 209.04266 205.896229 
L 210.346003 204.978025 
L 211.649345 202.998199 
L 212.952688 204.905751 
L 214.256031 203.889994 
L 215.559373 204.134862 
L 216.862716 206.455623 
L 218.166058 205.646342 
L 219.469401 207.059178 
L 220.772744 206.205735 
L 222.076086 203.753864 
L 223.379429 201.699314 
L 224.682772 201.291236 
L 225.986114 199.839544 
L 227.289457 199.642329 
L 228.592799 202.948928 
L 229.896142 201.087768 
L 231.199485 200.163999 
L 232.502827 198.520351 
L 233.80617 196.337535 
L 235.109513 196.856138 
L 236.412855 196.730992 
L 237.716198 197.281094 
L 239.01954 194.821885 
L 240.322883 196.082184 
L 241.626226 194.85912 
L 242.929568 193.016113 
L 244.232911 190.431124 
L 245.536253 189.605748 
L 246.839596 186.735634 
L 248.142939 189.112976 
L 249.446281 187.903141 
L 250.749624 184.816737 
L 252.052967 185.866954 
L 253.356309 191.571433 
L 254.659652 190.582009 
L 255.962994 190.665397 
L 257.266337 189.269485 
L 258.56968 188.383867 
L 259.873022 191.512069 
L 261.176365 191.75815 
L 262.479708 190.365222 
L 263.78305 187.556321 
L 265.086393 185.146943 
L 266.389735 182.328418 
L 267.693078 183.575282 
L 268.996421 180.715756 
L 270.299763 186.460829 
L 271.603106 189.970729 
L 272.906448 188.182188 
L 274.209791 188.702034 
L 276.816476 188.763142 
L 280.726504 182.28585 
L 282.029847 179.297541 
L 283.333189 177.596745 
L 284.636532 178.055243 
L 285.939875 181.612822 
L 287.243217 179.958422 
L 288.54656 182.350658 
L 289.849903 181.759517 
L 291.153245 183.123907 
L 292.456588 181.917467 
L 295.063273 181.312681 
L 296.366616 179.221775 
L 297.669958 179.918844 
L 298.973301 179.804985 
L 300.276643 178.003557 
L 301.579986 177.972415 
L 302.883329 182.200794 
L 304.186671 179.323665 
L 305.490014 179.034692 
L 306.793357 178.186946 
L 308.096699 175.260473 
L 310.703384 179.851172 
L 312.006727 178.864218 
L 313.31007 179.094086 
L 314.613412 179.737918 
L 315.916755 180.54792 
L 318.52344 182.631703 
L 319.826783 181.64243 
L 321.130125 183.534819 
L 322.433468 186.373053 
L 323.736811 187.637854 
L 326.343496 186.901897 
L 327.646838 187.207405 
L 328.950181 187.984292 
L 330.253524 187.414937 
L 331.556866 185.076696 
L 332.860209 181.672394 
L 334.163552 183.343526 
L 335.466894 183.59887 
L 336.770237 185.363711 
L 338.073579 186.808228 
L 339.376922 183.795467 
L 340.680265 183.270587 
L 341.983607 183.583429 
L 343.28695 181.690397 
L 344.590292 180.363621 
L 345.893635 187.408894 
L 347.196978 189.311997 
L 349.803663 184.644686 
L 351.107006 187.074811 
L 353.713691 182.40366 
L 355.017033 179.998982 
L 356.320376 178.688323 
L 357.623719 180.054532 
L 358.927061 177.537468 
L 360.230404 175.636235 
L 361.533747 176.976222 
L 362.837089 175.68908 
L 364.140432 173.26826 
L 365.443774 177.554338 
L 366.747117 174.898849 
L 368.05046 176.030056 
L 369.353802 172.560609 
L 370.657145 168.494616 
L 371.960487 164.935997 
L 373.26383 166.202907 
L 374.567173 164.325033 
L 375.870515 164.455805 
L 377.173858 164.955263 
L 378.477201 168.454045 
L 379.780543 167.657235 
L 381.083886 169.182926 
L 382.387228 166.052967 
L 383.690571 165.815956 
L 384.993914 162.640822 
L 386.297256 164.505006 
L 387.600599 161.987032 
L 388.903942 159.200244 
L 390.207284 160.578584 
L 391.510627 156.359981 
L 392.813969 156.848205 
L 394.117312 158.289151 
L 395.420655 154.620044 
L 396.723997 154.979781 
L 398.02734 151.031108 
L 399.330682 148.569617 
L 400.634025 149.423189 
L 401.937368 144.97189 
L 403.24071 146.917792 
L 404.544053 146.456435 
L 405.847396 150.159775 
L 407.150738 154.285669 
L 408.454081 155.516455 
L 409.757423 162.915775 
L 411.060766 166.015995 
L 412.364109 163.582481 
L 413.667451 160.577814 
L 414.970794 159.580906 
L 416.274136 156.11073 
L 417.577479 151.443522 
L 418.880822 155.253762 
L 420.184164 154.37101 
L 421.487507 154.473507 
L 422.79085 153.95943 
L 424.094192 151.678459 
L 426.700877 145.21063 
L 428.00422 146.023893 
L 429.307563 141.519505 
L 430.610905 146.370909 
L 431.914248 141.811642 
L 433.217591 140.513423 
L 434.520933 139.499796 
L 435.824276 139.621861 
L 438.430961 135.28005 
L 439.734304 130.081059 
L 441.037646 125.880015 
L 442.340989 127.984357 
L 443.644331 123.550307 
L 444.947674 123.96283 
L 446.251017 120.18738 
L 447.554359 117.711149 
L 448.857702 113.698024 
L 450.161045 116.27608 
L 451.464387 122.241223 
L 452.76773 121.465979 
L 455.374415 112.754056 
L 456.677758 119.166928 
L 457.9811 127.80541 
L 459.284443 126.685796 
L 460.587786 122.375896 
L 461.891128 125.874611 
L 463.194471 121.394168 
L 464.497813 120.708682 
L 465.801156 118.917995 
L 467.104499 117.482494 
L 468.407841 113.47196 
L 469.711184 108.435197 
L 472.317869 112.393537 
L 473.621212 111.353152 
L 474.924554 104.64792 
L 476.227897 99.897371 
L 477.53124 93.928308 
L 478.834582 86.674305 
L 480.137925 81.689352 
L 481.441267 88.157417 
L 482.74461 82.580765 
L 484.047953 75.856171 
L 485.351295 83.894621 
L 486.654638 80.591836 
L 487.957981 73.464544 
L 489.261323 69.031663 
L 491.868008 75.956149 
L 493.171351 69.756256 
L 494.474694 79.972213 
L 495.778036 77.908587 
L 497.081379 86.444785 
L 498.384721 86.695776 
L 499.688064 86.75335 
L 500.991407 86.578444 
L 502.294749 82.695683 
L 503.598092 82.697059 
L 504.901435 87.262318 
L 506.204777 79.752571 
L 507.50812 77.842153 
L 508.811462 70.019347 
L 510.114805 71.618243 
L 511.418148 68.331112 
L 512.72149 63.700734 
L 514.024833 68.16917 
L 515.328175 64.654085 
L 516.631518 60.774468 
L 517.934861 60.390751 
L 519.238203 60.895032 
L 520.541546 58.504434 
L 521.844889 52.433514 
L 523.148231 56.348947 
L 524.451574 55.774226 
L 525.754916 53.94696 
L 527.058259 46.592388 
L 528.361602 51.194456 
L 529.664944 62.716167 
L 530.968287 68.375037 
L 532.27163 60.367313 
L 533.574972 58.334381 
L 534.878315 50.887452 
L 536.181657 45.730058 
L 537.485 42.654575 
L 537.485 42.654575 
" style="fill:none;stroke:#9467bd;stroke-linecap:square;"/>
   </g>
   <g id="legend_1">
    <g id="patch_3">
     <path d="M 55.99 126.573125 
L 115.153125 126.573125 
Q 117.953125 126.573125 117.953125 123.773125 
L 117.953125 24.92 
Q 117.953125 22.12 115.153125 22.12 
L 55.99 22.12 
Q 53.19 22.12 53.19 24.92 
L 53.19 123.773125 
Q 53.19 126.573125 55.99 126.573125 
z
" style="fill:#ffffff;opacity:0.8;stroke:#cccccc;stroke-linejoin:miter;"/>
    </g>
    <g id="line2d_17">
     <path d="M 58.79 32.965625 
L 86.79 32.965625 
" style="fill:none;stroke:#1f77b4;stroke-linecap:square;"/>
    </g>
    <g id="line2d_18"/>
    <g id="text_14">
     <!-- N -->
     <g transform="translate(97.99 37.865625)scale(0.14 -0.14)">
      <defs>
       <path d="M 43.3125 0 
L 13.140625 58.59375 
Q 13.140625 58.59375 13.328125 53.859375 
Q 13.421875 51.859375 13.46875 49.625 
Q 13.53125 47.40625 13.53125 45.703125 
L 13.53125 0 
L 6.734375 0 
L 6.734375 68.796875 
L 15.625 68.796875 
L 46.09375 9.8125 
Q 46 12.203125 45.84375 14.59375 
Q 45.75 16.65625 45.671875 19.0625 
Q 45.609375 21.484375 45.609375 23.6875 
L 45.609375 68.796875 
L 52.484375 68.796875 
L 52.484375 0 
z
" id="LiberationSansNarrow-78"/>
      </defs>
      <use xlink:href="#LiberationSansNarrow-78"/>
     </g>
    </g>
    <g id="line2d_19">
     <path d="M 58.79 53.01625 
L 86.79 53.01625 
" style="fill:none;stroke:#ff7f0e;stroke-linecap:square;"/>
    </g>
    <g id="line2d_20"/>
    <g id="text_15">
     <!-- A+ -->
     <g transform="translate(97.99 57.91625)scale(0.14 -0.14)">
      <defs>
       <path d="M 46.734375 0 
L 40.28125 20.125 
L 14.546875 20.125 
L 8.109375 0 
L 0.140625 0 
L 23.1875 68.796875 
L 31.890625 68.796875 
L 54.546875 0 
z
M 30.765625 50.09375 
Q 30.125 52.046875 29.546875 54.046875 
L 28.515625 57.71875 
L 27.734375 60.453125 
Q 27.4375 61.53125 27.4375 61.765625 
Q 27.34375 61.53125 27.078125 60.40625 
Q 26.8125 59.28125 26.375 57.625 
L 25.296875 53.953125 
L 24.125 50 
L 16.890625 27.390625 
L 37.984375 27.390625 
z
" id="LiberationSansNarrow-65"/>
       <path d="M 26.859375 29.6875 
L 26.859375 8.796875 
L 21 8.796875 
L 21 29.6875 
L 4 29.6875 
L 4 36.8125 
L 21 36.8125 
L 21 57.71875 
L 26.859375 57.71875 
L 26.859375 36.8125 
L 43.84375 36.8125 
L 43.84375 29.6875 
z
" id="LiberationSansNarrow-43"/>
      </defs>
      <use xlink:href="#LiberationSansNarrow-65"/>
      <use x="54.6875" xlink:href="#LiberationSansNarrow-43"/>
     </g>
    </g>
    <g id="line2d_21">
     <path d="M 58.79 73.066875 
L 86.79 73.066875 
" style="fill:none;stroke:#2ca02c;stroke-linecap:square;"/>
    </g>
    <g id="line2d_22"/>
    <g id="text_16">
     <!-- A− -->
     <g transform="translate(97.99 77.966875)scale(0.14 -0.14)">
      <defs>
       <path d="M 4.046875 29.6875 
L 4.046875 36.8125 
L 43.890625 36.8125 
L 43.890625 29.6875 
z
" id="LiberationSansNarrow-8722"/>
      </defs>
      <use xlink:href="#LiberationSansNarrow-65"/>
      <use x="54.6875" xlink:href="#LiberationSansNarrow-8722"/>
     </g>
    </g>
    <g id="line2d_23">
     <path d="M 58.79 93.1175 
L 86.79 93.1175 
" style="fill:none;stroke:#d62728;stroke-linecap:square;"/>
    </g>
    <g id="line2d_24"/>
    <g id="text_17">
     <!-- S+ -->
     <g transform="translate(97.99 98.0175)scale(0.14 -0.14)">
      <defs>
       <path d="M 50.921875 19 
Q 50.921875 14.65625 49.53125 10.984375 
Q 48.140625 7.328125 45.265625 4.65625 
Q 42.390625 2 38.015625 0.5 
Q 33.640625 -0.984375 27.640625 -0.984375 
Q 17.09375 -0.984375 11.203125 3.515625 
Q 5.328125 8.015625 3.71875 16.5 
L 11.140625 18.3125 
Q 11.671875 15.625 12.84375 13.421875 
Q 14.015625 11.234375 15.984375 9.640625 
Q 17.96875 8.0625 20.890625 7.171875 
Q 23.828125 6.296875 27.875 6.296875 
Q 31.296875 6.296875 34.15625 7 
Q 37.015625 7.71875 39.03125 9.171875 
Q 41.0625 10.640625 42.203125 12.953125 
Q 43.359375 15.28125 43.359375 18.5 
Q 43.359375 21.875 42.09375 23.96875 
Q 40.828125 26.078125 38.546875 27.4375 
Q 36.28125 28.8125 33.109375 29.734375 
L 26.125 31.734375 
Q 23.78125 32.375 21.390625 33.125 
Q 19 33.890625 16.796875 34.9375 
Q 14.59375 35.984375 12.6875 37.390625 
Q 10.796875 38.8125 9.375 40.796875 
Q 7.953125 42.78125 7.140625 45.390625 
Q 6.34375 48 6.34375 51.421875 
Q 6.34375 56.296875 7.984375 59.78125 
Q 9.625 63.28125 12.5 65.53125 
Q 15.375 67.78125 19.3125 68.796875 
Q 23.25 69.828125 27.78125 69.828125 
Q 33.015625 69.828125 36.75 68.828125 
Q 40.484375 67.828125 43.046875 65.8125 
Q 45.609375 63.8125 47.140625 60.859375 
Q 48.6875 57.90625 49.609375 54 
L 42.09375 52.390625 
Q 41.546875 54.890625 40.46875 56.84375 
Q 39.40625 58.796875 37.671875 60.109375 
Q 35.9375 61.421875 33.46875 62.109375 
Q 31 62.796875 27.6875 62.796875 
Q 23.78125 62.796875 21.109375 61.9375 
Q 18.453125 61.078125 16.84375 59.609375 
Q 15.234375 58.15625 14.515625 56.171875 
Q 13.8125 54.203125 13.8125 51.90625 
Q 13.8125 48.828125 15.078125 46.84375 
Q 16.359375 44.875 18.5 43.546875 
Q 20.65625 42.234375 23.515625 41.359375 
Q 26.375 40.484375 29.546875 39.59375 
Q 29.546875 39.59375 34.71875 38.09375 
Q 37.3125 37.359375 39.671875 36.296875 
Q 42.046875 35.25 44.09375 33.828125 
Q 46.140625 32.421875 47.671875 30.375 
Q 49.21875 28.328125 50.0625 25.53125 
Q 50.921875 22.75 50.921875 19 
z
" id="LiberationSansNarrow-83"/>
      </defs>
      <use xlink:href="#LiberationSansNarrow-83"/>
      <use x="54.6875" xlink:href="#LiberationSansNarrow-43"/>
     </g>
    </g>
    <g id="line2d_25">
     <path d="M 58.79 113.168125 
L 86.79 113.168125 
" style="fill:none;stroke:#9467bd;stroke-linecap:square;"/>
    </g>
    <g id="line2d_26"/>
    <g id="text_18">
     <!-- S− -->
     <g transform="translate(97.99 118.068125)scale(0.14 -0.14)">
      <use xlink:href="#LiberationSansNarrow-83"/>
      <use x="54.6875" xlink:href="#LiberationSansNarrow-8722"/>
     </g>
    </g>
   </g>
  </g>
 </g>
 <defs>
  <clipPath id="p068c835ab5">
   <rect height="219.4" width="514.69" x="46.19" y="15.12"/>
  </clipPath>
 </defs>
</svg>
