<?xml version="1.0" encoding="utf-8" standalone="no"?>
<!DOCTYPE svg PUBLIC "-//W3C//DTD SVG 1.1//EN"
  "http://www.w3.org/Graphics/SVG/1.1/DTD/svg11.dtd">
<!-- Created with matplotlib (https://matplotlib.org/) -->
<svg height="288pt" version="1.1" viewBox="0 0 576 288" width="576pt" xmlns="http://www.w3.org/2000/svg" xmlns:xlink="http://www.w3.org/1999/xlink">
 <metadata>
  <rdf:RDF xmlns:cc="http://creativecommons.org/ns#" xmlns:dc="http://purl.org/dc/elements/1.1/" xmlns:rdf="http://www.w3.org/1999/02/22-rdf-syntax-ns#">
   <cc:Work>
    <dc:type rdf:resource="http://purl.org/dc/dcmitype/StillImage"/>
    <dc:date>2021-07-31T18:59:53.987864</dc:date>
    <dc:format>image/svg+xml</dc:format>
    <dc:creator>
     <cc:Agent>
      <dc:title>Matplotlib v3.3.4, https://matplotlib.org/</dc:title>
     </cc:Agent>
    </dc:creator>
   </cc:Work>
  </rdf:RDF>
 </metadata>
 <defs>
  <style type="text/css">*{stroke-linecap:butt;stroke-linejoin:round;}</style>
 </defs>
 <g id="figure_1">
  <g id="patch_1">
   <path d="M 0 288 
L 576 288 
L 576 0 
L 0 0 
z
" style="fill:#ffffff;"/>
  </g>
  <g id="axes_1">
   <g id="patch_2">
    <path d="M 62.12 234.52 
L 531.56 234.52 
L 531.56 20.52 
L 62.12 20.52 
z
" style="fill:#ffffff;"/>
   </g>
   <g id="patch_3">
    <path clip-path="url(#pb339c0b502)" d="M 101.224699 234.52 
L 102.737752 234.52 
L 102.737752 232.349908 
L 101.224699 232.349908 
z
" style="fill:#1f77b4;opacity:0.5;"/>
   </g>
   <g id="patch_4">
    <path clip-path="url(#pb339c0b502)" d="M 102.737752 234.52 
L 104.277605 234.52 
L 104.277605 232.349908 
L 102.737752 232.349908 
z
" style="fill:#1f77b4;opacity:0.5;"/>
   </g>
   <g id="patch_5">
    <path clip-path="url(#pb339c0b502)" d="M 104.277605 234.52 
L 105.844733 234.52 
L 105.844733 234.52 
L 104.277605 234.52 
z
" style="fill:#1f77b4;opacity:0.5;"/>
   </g>
   <g id="patch_6">
    <path clip-path="url(#pb339c0b502)" d="M 105.844733 234.52 
L 107.439621 234.52 
L 107.439621 234.52 
L 105.844733 234.52 
z
" style="fill:#1f77b4;opacity:0.5;"/>
   </g>
   <g id="patch_7">
    <path clip-path="url(#pb339c0b502)" d="M 107.439621 234.52 
L 109.062758 234.52 
L 109.062758 234.52 
L 107.439621 234.52 
z
" style="fill:#1f77b4;opacity:0.5;"/>
   </g>
   <g id="patch_8">
    <path clip-path="url(#pb339c0b502)" d="M 109.062758 234.52 
L 110.714646 234.52 
L 110.714646 234.52 
L 109.062758 234.52 
z
" style="fill:#1f77b4;opacity:0.5;"/>
   </g>
   <g id="patch_9">
    <path clip-path="url(#pb339c0b502)" d="M 110.714646 234.52 
L 112.395794 234.52 
L 112.395794 230.179815 
L 110.714646 230.179815 
z
" style="fill:#1f77b4;opacity:0.5;"/>
   </g>
   <g id="patch_10">
    <path clip-path="url(#pb339c0b502)" d="M 112.395794 234.52 
L 114.10672 234.52 
L 114.10672 230.179815 
L 112.395794 230.179815 
z
" style="fill:#1f77b4;opacity:0.5;"/>
   </g>
   <g id="patch_11">
    <path clip-path="url(#pb339c0b502)" d="M 114.10672 234.52 
L 115.847952 234.52 
L 115.847952 230.179815 
L 114.10672 230.179815 
z
" style="fill:#1f77b4;opacity:0.5;"/>
   </g>
   <g id="patch_12">
    <path clip-path="url(#pb339c0b502)" d="M 115.847952 234.52 
L 117.620026 234.52 
L 117.620026 234.52 
L 115.847952 234.52 
z
" style="fill:#1f77b4;opacity:0.5;"/>
   </g>
   <g id="patch_13">
    <path clip-path="url(#pb339c0b502)" d="M 117.620026 234.52 
L 119.423489 234.52 
L 119.423489 234.52 
L 117.620026 234.52 
z
" style="fill:#1f77b4;opacity:0.5;"/>
   </g>
   <g id="patch_14">
    <path clip-path="url(#pb339c0b502)" d="M 119.423489 234.52 
L 121.258896 234.52 
L 121.258896 230.179815 
L 119.423489 230.179815 
z
" style="fill:#1f77b4;opacity:0.5;"/>
   </g>
   <g id="patch_15">
    <path clip-path="url(#pb339c0b502)" d="M 121.258896 234.52 
L 123.126815 234.52 
L 123.126815 228.009723 
L 121.258896 228.009723 
z
" style="fill:#1f77b4;opacity:0.5;"/>
   </g>
   <g id="patch_16">
    <path clip-path="url(#pb339c0b502)" d="M 123.126815 234.52 
L 125.027819 234.52 
L 125.027819 232.349908 
L 123.126815 232.349908 
z
" style="fill:#1f77b4;opacity:0.5;"/>
   </g>
   <g id="patch_17">
    <path clip-path="url(#pb339c0b502)" d="M 125.027819 234.52 
L 126.962496 234.52 
L 126.962496 223.669538 
L 125.027819 223.669538 
z
" style="fill:#1f77b4;opacity:0.5;"/>
   </g>
   <g id="patch_18">
    <path clip-path="url(#pb339c0b502)" d="M 126.962496 234.52 
L 128.931442 234.52 
L 128.931442 228.009723 
L 126.962496 228.009723 
z
" style="fill:#1f77b4;opacity:0.5;"/>
   </g>
   <g id="patch_19">
    <path clip-path="url(#pb339c0b502)" d="M 128.931442 234.52 
L 130.935264 234.52 
L 130.935264 223.669538 
L 128.931442 223.669538 
z
" style="fill:#1f77b4;opacity:0.5;"/>
   </g>
   <g id="patch_20">
    <path clip-path="url(#pb339c0b502)" d="M 130.935264 234.52 
L 132.974579 234.52 
L 132.974579 219.329354 
L 130.935264 219.329354 
z
" style="fill:#1f77b4;opacity:0.5;"/>
   </g>
   <g id="patch_21">
    <path clip-path="url(#pb339c0b502)" d="M 132.974579 234.52 
L 135.050017 234.52 
L 135.050017 214.989169 
L 132.974579 214.989169 
z
" style="fill:#1f77b4;opacity:0.5;"/>
   </g>
   <g id="patch_22">
    <path clip-path="url(#pb339c0b502)" d="M 135.050017 234.52 
L 137.162217 234.52 
L 137.162217 230.179815 
L 135.050017 230.179815 
z
" style="fill:#1f77b4;opacity:0.5;"/>
   </g>
   <g id="patch_23">
    <path clip-path="url(#pb339c0b502)" d="M 137.162217 234.52 
L 139.311831 234.52 
L 139.311831 225.839631 
L 137.162217 225.839631 
z
" style="fill:#1f77b4;opacity:0.5;"/>
   </g>
   <g id="patch_24">
    <path clip-path="url(#pb339c0b502)" d="M 139.311831 234.52 
L 141.499521 234.52 
L 141.499521 223.669538 
L 139.311831 223.669538 
z
" style="fill:#1f77b4;opacity:0.5;"/>
   </g>
   <g id="patch_25">
    <path clip-path="url(#pb339c0b502)" d="M 141.499521 234.52 
L 143.725961 234.52 
L 143.725961 223.669538 
L 141.499521 223.669538 
z
" style="fill:#1f77b4;opacity:0.5;"/>
   </g>
   <g id="patch_26">
    <path clip-path="url(#pb339c0b502)" d="M 143.725961 234.52 
L 145.991838 234.52 
L 145.991838 204.138707 
L 143.725961 204.138707 
z
" style="fill:#1f77b4;opacity:0.5;"/>
   </g>
   <g id="patch_27">
    <path clip-path="url(#pb339c0b502)" d="M 145.991838 234.52 
L 148.29785 234.52 
L 148.29785 225.839631 
L 145.991838 225.839631 
z
" style="fill:#1f77b4;opacity:0.5;"/>
   </g>
   <g id="patch_28">
    <path clip-path="url(#pb339c0b502)" d="M 148.29785 234.52 
L 150.644709 234.52 
L 150.644709 210.648984 
L 148.29785 210.648984 
z
" style="fill:#1f77b4;opacity:0.5;"/>
   </g>
   <g id="patch_29">
    <path clip-path="url(#pb339c0b502)" d="M 150.644709 234.52 
L 153.033138 234.52 
L 153.033138 201.968615 
L 150.644709 201.968615 
z
" style="fill:#1f77b4;opacity:0.5;"/>
   </g>
   <g id="patch_30">
    <path clip-path="url(#pb339c0b502)" d="M 153.033138 234.52 
L 155.463873 234.52 
L 155.463873 197.62843 
L 153.033138 197.62843 
z
" style="fill:#1f77b4;opacity:0.5;"/>
   </g>
   <g id="patch_31">
    <path clip-path="url(#pb339c0b502)" d="M 155.463873 234.52 
L 157.937663 234.52 
L 157.937663 204.138707 
L 155.463873 204.138707 
z
" style="fill:#1f77b4;opacity:0.5;"/>
   </g>
   <g id="patch_32">
    <path clip-path="url(#pb339c0b502)" d="M 157.937663 234.52 
L 160.455272 234.52 
L 160.455272 195.458338 
L 157.937663 195.458338 
z
" style="fill:#1f77b4;opacity:0.5;"/>
   </g>
   <g id="patch_33">
    <path clip-path="url(#pb339c0b502)" d="M 160.455272 234.52 
L 163.017475 234.52 
L 163.017475 199.798522 
L 160.455272 199.798522 
z
" style="fill:#1f77b4;opacity:0.5;"/>
   </g>
   <g id="patch_34">
    <path clip-path="url(#pb339c0b502)" d="M 163.017475 234.52 
L 165.625063 234.52 
L 165.625063 199.798522 
L 163.017475 199.798522 
z
" style="fill:#1f77b4;opacity:0.5;"/>
   </g>
   <g id="patch_35">
    <path clip-path="url(#pb339c0b502)" d="M 165.625063 234.52 
L 168.278838 234.52 
L 168.278838 193.288245 
L 165.625063 193.288245 
z
" style="fill:#1f77b4;opacity:0.5;"/>
   </g>
   <g id="patch_36">
    <path clip-path="url(#pb339c0b502)" d="M 168.278838 234.52 
L 170.97962 234.52 
L 170.97962 169.417229 
L 168.278838 169.417229 
z
" style="fill:#1f77b4;opacity:0.5;"/>
   </g>
   <g id="patch_37">
    <path clip-path="url(#pb339c0b502)" d="M 170.97962 234.52 
L 173.728241 234.52 
L 173.728241 154.226583 
L 170.97962 154.226583 
z
" style="fill:#1f77b4;opacity:0.5;"/>
   </g>
   <g id="patch_38">
    <path clip-path="url(#pb339c0b502)" d="M 173.728241 234.52 
L 176.525548 234.52 
L 176.525548 147.716306 
L 173.728241 147.716306 
z
" style="fill:#1f77b4;opacity:0.5;"/>
   </g>
   <g id="patch_39">
    <path clip-path="url(#pb339c0b502)" d="M 176.525548 234.52 
L 179.372404 234.52 
L 179.372404 141.206029 
L 176.525548 141.206029 
z
" style="fill:#1f77b4;opacity:0.5;"/>
   </g>
   <g id="patch_40">
    <path clip-path="url(#pb339c0b502)" d="M 179.372404 234.52 
L 182.269686 234.52 
L 182.269686 154.226583 
L 179.372404 154.226583 
z
" style="fill:#1f77b4;opacity:0.5;"/>
   </g>
   <g id="patch_41">
    <path clip-path="url(#pb339c0b502)" d="M 182.269686 234.52 
L 185.218288 234.52 
L 185.218288 130.355567 
L 182.269686 130.355567 
z
" style="fill:#1f77b4;opacity:0.5;"/>
   </g>
   <g id="patch_42">
    <path clip-path="url(#pb339c0b502)" d="M 185.218288 234.52 
L 188.219118 234.52 
L 188.219118 186.777968 
L 185.218288 186.777968 
z
" style="fill:#1f77b4;opacity:0.5;"/>
   </g>
   <g id="patch_43">
    <path clip-path="url(#pb339c0b502)" d="M 188.219118 234.52 
L 191.273102 234.52 
L 191.273102 123.84529 
L 188.219118 123.84529 
z
" style="fill:#1f77b4;opacity:0.5;"/>
   </g>
   <g id="patch_44">
    <path clip-path="url(#pb339c0b502)" d="M 191.273102 234.52 
L 194.381181 234.52 
L 194.381181 139.035936 
L 191.273102 139.035936 
z
" style="fill:#1f77b4;opacity:0.5;"/>
   </g>
   <g id="patch_45">
    <path clip-path="url(#pb339c0b502)" d="M 194.381181 234.52 
L 197.544314 234.52 
L 197.544314 95.634089 
L 194.381181 95.634089 
z
" style="fill:#1f77b4;opacity:0.5;"/>
   </g>
   <g id="patch_46">
    <path clip-path="url(#pb339c0b502)" d="M 197.544314 234.52 
L 200.763475 234.52 
L 200.763475 119.505105 
L 197.544314 119.505105 
z
" style="fill:#1f77b4;opacity:0.5;"/>
   </g>
   <g id="patch_47">
    <path clip-path="url(#pb339c0b502)" d="M 200.763475 234.52 
L 204.039657 234.52 
L 204.039657 82.613535 
L 200.763475 82.613535 
z
" style="fill:#1f77b4;opacity:0.5;"/>
   </g>
   <g id="patch_48">
    <path clip-path="url(#pb339c0b502)" d="M 204.039657 234.52 
L 207.37387 234.52 
L 207.37387 104.314459 
L 204.039657 104.314459 
z
" style="fill:#1f77b4;opacity:0.5;"/>
   </g>
   <g id="patch_49">
    <path clip-path="url(#pb339c0b502)" d="M 207.37387 234.52 
L 210.767142 234.52 
L 210.767142 60.912612 
L 207.37387 60.912612 
z
" style="fill:#1f77b4;opacity:0.5;"/>
   </g>
   <g id="patch_50">
    <path clip-path="url(#pb339c0b502)" d="M 210.767142 234.52 
L 214.220519 234.52 
L 214.220519 67.422889 
L 210.767142 67.422889 
z
" style="fill:#1f77b4;opacity:0.5;"/>
   </g>
   <g id="patch_51">
    <path clip-path="url(#pb339c0b502)" d="M 214.220519 234.52 
L 217.735065 234.52 
L 217.735065 84.783628 
L 214.220519 84.783628 
z
" style="fill:#1f77b4;opacity:0.5;"/>
   </g>
   <g id="patch_52">
    <path clip-path="url(#pb339c0b502)" d="M 217.735065 234.52 
L 221.311865 234.52 
L 221.311865 95.634089 
L 217.735065 95.634089 
z
" style="fill:#1f77b4;opacity:0.5;"/>
   </g>
   <g id="patch_53">
    <path clip-path="url(#pb339c0b502)" d="M 221.311865 234.52 
L 224.95202 234.52 
L 224.95202 99.974274 
L 221.311865 99.974274 
z
" style="fill:#1f77b4;opacity:0.5;"/>
   </g>
   <g id="patch_54">
    <path clip-path="url(#pb339c0b502)" d="M 224.95202 234.52 
L 228.656654 234.52 
L 228.656654 82.613535 
L 224.95202 82.613535 
z
" style="fill:#1f77b4;opacity:0.5;"/>
   </g>
   <g id="patch_55">
    <path clip-path="url(#pb339c0b502)" d="M 228.656654 234.52 
L 232.426907 234.52 
L 232.426907 76.103258 
L 228.656654 76.103258 
z
" style="fill:#1f77b4;opacity:0.5;"/>
   </g>
   <g id="patch_56">
    <path clip-path="url(#pb339c0b502)" d="M 232.426907 234.52 
L 236.263943 234.52 
L 236.263943 117.335013 
L 232.426907 117.335013 
z
" style="fill:#1f77b4;opacity:0.5;"/>
   </g>
   <g id="patch_57">
    <path clip-path="url(#pb339c0b502)" d="M 236.263943 234.52 
L 240.168945 234.52 
L 240.168945 99.974274 
L 236.263943 99.974274 
z
" style="fill:#1f77b4;opacity:0.5;"/>
   </g>
   <g id="patch_58">
    <path clip-path="url(#pb339c0b502)" d="M 240.168945 234.52 
L 244.143115 234.52 
L 244.143115 117.335013 
L 240.168945 117.335013 
z
" style="fill:#1f77b4;opacity:0.5;"/>
   </g>
   <g id="patch_59">
    <path clip-path="url(#pb339c0b502)" d="M 244.143115 234.52 
L 248.187681 234.52 
L 248.187681 162.906952 
L 244.143115 162.906952 
z
" style="fill:#1f77b4;opacity:0.5;"/>
   </g>
   <g id="patch_60">
    <path clip-path="url(#pb339c0b502)" d="M 248.187681 234.52 
L 252.303887 234.52 
L 252.303887 136.865844 
L 248.187681 136.865844 
z
" style="fill:#1f77b4;opacity:0.5;"/>
   </g>
   <g id="patch_61">
    <path clip-path="url(#pb339c0b502)" d="M 252.303887 234.52 
L 256.493004 234.52 
L 256.493004 139.035936 
L 252.303887 139.035936 
z
" style="fill:#1f77b4;opacity:0.5;"/>
   </g>
   <g id="patch_62">
    <path clip-path="url(#pb339c0b502)" d="M 256.493004 234.52 
L 260.756323 234.52 
L 260.756323 184.607876 
L 256.493004 184.607876 
z
" style="fill:#1f77b4;opacity:0.5;"/>
   </g>
   <g id="patch_63">
    <path clip-path="url(#pb339c0b502)" d="M 260.756323 234.52 
L 265.095157 234.52 
L 265.095157 173.757414 
L 260.756323 173.757414 
z
" style="fill:#1f77b4;opacity:0.5;"/>
   </g>
   <g id="patch_64">
    <path clip-path="url(#pb339c0b502)" d="M 265.095157 234.52 
L 269.510846 234.52 
L 269.510846 193.288245 
L 265.095157 193.288245 
z
" style="fill:#1f77b4;opacity:0.5;"/>
   </g>
   <g id="patch_65">
    <path clip-path="url(#pb339c0b502)" d="M 269.510846 234.52 
L 274.004749 234.52 
L 274.004749 173.757414 
L 269.510846 173.757414 
z
" style="fill:#1f77b4;opacity:0.5;"/>
   </g>
   <g id="patch_66">
    <path clip-path="url(#pb339c0b502)" d="M 274.004749 234.52 
L 278.578253 234.52 
L 278.578253 195.458338 
L 274.004749 195.458338 
z
" style="fill:#1f77b4;opacity:0.5;"/>
   </g>
   <g id="patch_67">
    <path clip-path="url(#pb339c0b502)" d="M 278.578253 234.52 
L 283.232768 234.52 
L 283.232768 201.968615 
L 278.578253 201.968615 
z
" style="fill:#1f77b4;opacity:0.5;"/>
   </g>
   <g id="patch_68">
    <path clip-path="url(#pb339c0b502)" d="M 283.232768 234.52 
L 287.969728 234.52 
L 287.969728 197.62843 
L 283.232768 197.62843 
z
" style="fill:#1f77b4;opacity:0.5;"/>
   </g>
   <g id="patch_69">
    <path clip-path="url(#pb339c0b502)" d="M 287.969728 234.52 
L 292.790593 234.52 
L 292.790593 204.138707 
L 287.969728 204.138707 
z
" style="fill:#1f77b4;opacity:0.5;"/>
   </g>
   <g id="patch_70">
    <path clip-path="url(#pb339c0b502)" d="M 292.790593 234.52 
L 297.696851 234.52 
L 297.696851 210.648984 
L 292.790593 210.648984 
z
" style="fill:#1f77b4;opacity:0.5;"/>
   </g>
   <g id="patch_71">
    <path clip-path="url(#pb339c0b502)" d="M 297.696851 234.52 
L 302.690013 234.52 
L 302.690013 228.009723 
L 297.696851 228.009723 
z
" style="fill:#1f77b4;opacity:0.5;"/>
   </g>
   <g id="patch_72">
    <path clip-path="url(#pb339c0b502)" d="M 302.690013 234.52 
L 307.771619 234.52 
L 307.771619 230.179815 
L 302.690013 230.179815 
z
" style="fill:#1f77b4;opacity:0.5;"/>
   </g>
   <g id="patch_73">
    <path clip-path="url(#pb339c0b502)" d="M 307.771619 234.52 
L 312.943235 234.52 
L 312.943235 230.179815 
L 307.771619 230.179815 
z
" style="fill:#1f77b4;opacity:0.5;"/>
   </g>
   <g id="patch_74">
    <path clip-path="url(#pb339c0b502)" d="M 312.943235 234.52 
L 318.206456 234.52 
L 318.206456 230.179815 
L 312.943235 230.179815 
z
" style="fill:#1f77b4;opacity:0.5;"/>
   </g>
   <g id="patch_75">
    <path clip-path="url(#pb339c0b502)" d="M 318.206456 234.52 
L 323.562904 234.52 
L 323.562904 230.179815 
L 318.206456 230.179815 
z
" style="fill:#1f77b4;opacity:0.5;"/>
   </g>
   <g id="patch_76">
    <path clip-path="url(#pb339c0b502)" d="M 323.562904 234.52 
L 329.014232 234.52 
L 329.014232 232.349908 
L 323.562904 232.349908 
z
" style="fill:#1f77b4;opacity:0.5;"/>
   </g>
   <g id="patch_77">
    <path clip-path="url(#pb339c0b502)" d="M 329.014232 234.52 
L 334.562118 234.52 
L 334.562118 230.179815 
L 329.014232 230.179815 
z
" style="fill:#1f77b4;opacity:0.5;"/>
   </g>
   <g id="patch_78">
    <path clip-path="url(#pb339c0b502)" d="M 334.562118 234.52 
L 340.208274 234.52 
L 340.208274 234.52 
L 334.562118 234.52 
z
" style="fill:#1f77b4;opacity:0.5;"/>
   </g>
   <g id="patch_79">
    <path clip-path="url(#pb339c0b502)" d="M 340.208274 234.52 
L 345.954441 234.52 
L 345.954441 234.52 
L 340.208274 234.52 
z
" style="fill:#1f77b4;opacity:0.5;"/>
   </g>
   <g id="patch_80">
    <path clip-path="url(#pb339c0b502)" d="M 345.954441 234.52 
L 351.802389 234.52 
L 351.802389 234.52 
L 345.954441 234.52 
z
" style="fill:#1f77b4;opacity:0.5;"/>
   </g>
   <g id="patch_81">
    <path clip-path="url(#pb339c0b502)" d="M 351.802389 234.52 
L 357.753922 234.52 
L 357.753922 232.349908 
L 351.802389 232.349908 
z
" style="fill:#1f77b4;opacity:0.5;"/>
   </g>
   <g id="patch_82">
    <path clip-path="url(#pb339c0b502)" d="M 357.753922 234.52 
L 363.810874 234.52 
L 363.810874 230.179815 
L 357.753922 230.179815 
z
" style="fill:#1f77b4;opacity:0.5;"/>
   </g>
   <g id="patch_83">
    <path clip-path="url(#pb339c0b502)" d="M 363.810874 234.52 
L 369.975113 234.52 
L 369.975113 234.52 
L 363.810874 234.52 
z
" style="fill:#1f77b4;opacity:0.5;"/>
   </g>
   <g id="patch_84">
    <path clip-path="url(#pb339c0b502)" d="M 369.975113 234.52 
L 376.248539 234.52 
L 376.248539 232.349908 
L 369.975113 232.349908 
z
" style="fill:#1f77b4;opacity:0.5;"/>
   </g>
   <g id="patch_85">
    <path clip-path="url(#pb339c0b502)" d="M 376.248539 234.52 
L 382.633087 234.52 
L 382.633087 234.52 
L 376.248539 234.52 
z
" style="fill:#1f77b4;opacity:0.5;"/>
   </g>
   <g id="patch_86">
    <path clip-path="url(#pb339c0b502)" d="M 382.633087 234.52 
L 389.130723 234.52 
L 389.130723 234.52 
L 382.633087 234.52 
z
" style="fill:#1f77b4;opacity:0.5;"/>
   </g>
   <g id="patch_87">
    <path clip-path="url(#pb339c0b502)" d="M 389.130723 234.52 
L 395.743453 234.52 
L 395.743453 232.349908 
L 389.130723 232.349908 
z
" style="fill:#1f77b4;opacity:0.5;"/>
   </g>
   <g id="patch_88">
    <path clip-path="url(#pb339c0b502)" d="M 395.743453 234.52 
L 402.473313 234.52 
L 402.473313 234.52 
L 395.743453 234.52 
z
" style="fill:#1f77b4;opacity:0.5;"/>
   </g>
   <g id="patch_89">
    <path clip-path="url(#pb339c0b502)" d="M 402.473313 234.52 
L 409.32238 234.52 
L 409.32238 234.52 
L 402.473313 234.52 
z
" style="fill:#1f77b4;opacity:0.5;"/>
   </g>
   <g id="patch_90">
    <path clip-path="url(#pb339c0b502)" d="M 409.32238 234.52 
L 416.292764 234.52 
L 416.292764 234.52 
L 409.32238 234.52 
z
" style="fill:#1f77b4;opacity:0.5;"/>
   </g>
   <g id="patch_91">
    <path clip-path="url(#pb339c0b502)" d="M 416.292764 234.52 
L 423.386614 234.52 
L 423.386614 234.52 
L 416.292764 234.52 
z
" style="fill:#1f77b4;opacity:0.5;"/>
   </g>
   <g id="patch_92">
    <path clip-path="url(#pb339c0b502)" d="M 423.386614 234.52 
L 430.606118 234.52 
L 430.606118 234.52 
L 423.386614 234.52 
z
" style="fill:#1f77b4;opacity:0.5;"/>
   </g>
   <g id="patch_93">
    <path clip-path="url(#pb339c0b502)" d="M 430.606118 234.52 
L 437.9535 234.52 
L 437.9535 234.52 
L 430.606118 234.52 
z
" style="fill:#1f77b4;opacity:0.5;"/>
   </g>
   <g id="patch_94">
    <path clip-path="url(#pb339c0b502)" d="M 437.9535 234.52 
L 445.431027 234.52 
L 445.431027 234.52 
L 437.9535 234.52 
z
" style="fill:#1f77b4;opacity:0.5;"/>
   </g>
   <g id="patch_95">
    <path clip-path="url(#pb339c0b502)" d="M 445.431027 234.52 
L 453.041003 234.52 
L 453.041003 234.52 
L 445.431027 234.52 
z
" style="fill:#1f77b4;opacity:0.5;"/>
   </g>
   <g id="patch_96">
    <path clip-path="url(#pb339c0b502)" d="M 453.041003 234.52 
L 460.785775 234.52 
L 460.785775 234.52 
L 453.041003 234.52 
z
" style="fill:#1f77b4;opacity:0.5;"/>
   </g>
   <g id="patch_97">
    <path clip-path="url(#pb339c0b502)" d="M 460.785775 234.52 
L 468.667729 234.52 
L 468.667729 234.52 
L 460.785775 234.52 
z
" style="fill:#1f77b4;opacity:0.5;"/>
   </g>
   <g id="patch_98">
    <path clip-path="url(#pb339c0b502)" d="M 468.667729 234.52 
L 476.689297 234.52 
L 476.689297 234.52 
L 468.667729 234.52 
z
" style="fill:#1f77b4;opacity:0.5;"/>
   </g>
   <g id="patch_99">
    <path clip-path="url(#pb339c0b502)" d="M 476.689297 234.52 
L 484.85295 234.52 
L 484.85295 234.52 
L 476.689297 234.52 
z
" style="fill:#1f77b4;opacity:0.5;"/>
   </g>
   <g id="patch_100">
    <path clip-path="url(#pb339c0b502)" d="M 484.85295 234.52 
L 493.161207 234.52 
L 493.161207 232.349908 
L 484.85295 232.349908 
z
" style="fill:#1f77b4;opacity:0.5;"/>
   </g>
   <g id="patch_101">
    <path clip-path="url(#pb339c0b502)" d="M 493.161207 234.52 
L 501.616627 234.52 
L 501.616627 234.52 
L 493.161207 234.52 
z
" style="fill:#1f77b4;opacity:0.5;"/>
   </g>
   <g id="patch_102">
    <path clip-path="url(#pb339c0b502)" d="M 501.616627 234.52 
L 510.221818 234.52 
L 510.221818 232.349908 
L 501.616627 232.349908 
z
" style="fill:#1f77b4;opacity:0.5;"/>
   </g>
   <g id="matplotlib.axis_1">
    <g id="xtick_1">
     <g id="line2d_1">
      <path clip-path="url(#pb339c0b502)" d="M 89.291712 234.52 
L 89.291712 20.52 
" style="fill:none;stroke:#b0b0b0;stroke-dasharray:1.48,0.64;stroke-dashoffset:0;stroke-width:0.4;"/>
     </g>
     <g id="text_1">
      <!-- -60 -->
      <g transform="translate(80.995618 251.665625)scale(0.14 -0.14)">
       <defs>
        <path d="M 3.65625 22.65625 
L 3.65625 30.46875 
L 23.640625 30.46875 
L 23.640625 22.65625 
z
" id="LiberationSansNarrow-45"/>
        <path d="M 42 22.515625 
Q 42 17.328125 40.828125 13 
Q 39.65625 8.6875 37.359375 5.578125 
Q 35.0625 2.484375 31.640625 0.75 
Q 28.21875 -0.984375 23.78125 -0.984375 
Q 18.84375 -0.984375 15.15625 1.3125 
Q 11.46875 3.609375 9.03125 7.921875 
Q 6.59375 12.25 5.375 18.53125 
Q 4.15625 24.8125 4.15625 32.8125 
Q 4.15625 42 5.546875 48.921875 
Q 6.9375 55.859375 9.515625 60.5 
Q 12.109375 65.140625 15.859375 67.484375 
Q 19.625 69.828125 24.359375 69.828125 
Q 27.25 69.828125 29.765625 69.09375 
Q 32.28125 68.359375 34.328125 66.71875 
Q 36.375 65.09375 37.9375 62.40625 
Q 39.5 59.71875 40.4375 55.8125 
L 33.546875 54.296875 
Q 32.421875 58.734375 29.953125 60.71875 
Q 27.484375 62.703125 24.265625 62.703125 
Q 21.296875 62.703125 18.890625 60.984375 
Q 16.5 59.28125 14.8125 55.875 
Q 13.140625 52.484375 12.234375 47.359375 
Q 11.328125 42.234375 11.328125 35.40625 
Q 13.28125 39.84375 16.84375 42.15625 
Q 20.40625 44.484375 25.046875 44.484375 
Q 28.90625 44.484375 32 42.96875 
Q 35.109375 41.453125 37.328125 38.59375 
Q 39.546875 35.75 40.765625 31.671875 
Q 42 27.59375 42 22.515625 
z
M 34.671875 22.125 
Q 34.671875 25.6875 33.953125 28.5625 
Q 33.25 31.453125 31.8125 33.46875 
Q 30.375 35.5 28.25 36.59375 
Q 26.125 37.703125 23.296875 37.703125 
Q 21.34375 37.703125 19.328125 36.984375 
Q 17.328125 36.28125 15.71875 34.6875 
Q 14.109375 33.109375 13.078125 30.515625 
Q 12.0625 27.9375 12.0625 24.21875 
Q 12.0625 20.40625 12.859375 17.109375 
Q 13.671875 13.8125 15.15625 11.375 
Q 16.65625 8.9375 18.78125 7.515625 
Q 20.90625 6.109375 23.53125 6.109375 
Q 26.125 6.109375 28.203125 7.203125 
Q 30.28125 8.296875 31.71875 10.375 
Q 33.15625 12.453125 33.90625 15.421875 
Q 34.671875 18.40625 34.671875 22.125 
z
" id="LiberationSansNarrow-54"/>
        <path d="M 42.390625 34.421875 
Q 42.390625 24.515625 40.84375 17.75 
Q 39.3125 10.984375 36.640625 6.8125 
Q 33.984375 2.640625 30.390625 0.828125 
Q 26.8125 -0.984375 22.703125 -0.984375 
Q 18.609375 -0.984375 15.03125 0.828125 
Q 11.46875 2.640625 8.828125 6.78125 
Q 6.203125 10.9375 4.703125 17.703125 
Q 3.21875 24.46875 3.21875 34.421875 
Q 3.21875 44.828125 4.703125 51.640625 
Q 6.203125 58.453125 8.828125 62.5 
Q 11.46875 66.546875 15.078125 68.1875 
Q 18.703125 69.828125 22.953125 69.828125 
Q 27 69.828125 30.53125 68.1875 
Q 34.078125 66.546875 36.71875 62.5 
Q 39.359375 58.453125 40.875 51.640625 
Q 42.390625 44.828125 42.390625 34.421875 
z
M 35.0625 34.421875 
Q 35.0625 42.625 34.28125 48.0625 
Q 33.5 53.515625 31.9375 56.765625 
Q 30.375 60.015625 28.09375 61.359375 
Q 25.828125 62.703125 22.953125 62.703125 
Q 19.921875 62.703125 17.578125 61.328125 
Q 15.234375 59.96875 13.671875 56.71875 
Q 12.109375 53.46875 11.296875 48.015625 
Q 10.5 42.578125 10.5 34.421875 
Q 10.5 26.515625 11.296875 21.09375 
Q 12.109375 15.671875 13.6875 12.375 
Q 15.28125 9.078125 17.578125 7.640625 
Q 19.875 6.203125 22.796875 6.203125 
Q 25.640625 6.203125 27.90625 7.640625 
Q 30.171875 9.078125 31.75 12.375 
Q 33.34375 15.671875 34.203125 21.09375 
Q 35.0625 26.515625 35.0625 34.421875 
z
" id="LiberationSansNarrow-48"/>
       </defs>
       <use xlink:href="#LiberationSansNarrow-45"/>
       <use x="27.294922" xlink:href="#LiberationSansNarrow-54"/>
       <use x="72.900391" xlink:href="#LiberationSansNarrow-48"/>
      </g>
     </g>
    </g>
    <g id="xtick_2">
     <g id="line2d_2">
      <path clip-path="url(#pb339c0b502)" d="M 126.035469 234.52 
L 126.035469 20.52 
" style="fill:none;stroke:#b0b0b0;stroke-dasharray:1.48,0.64;stroke-dashoffset:0;stroke-width:0.4;"/>
     </g>
     <g id="text_2">
      <!-- -40 -->
      <g transform="translate(117.739376 251.665625)scale(0.14 -0.14)">
       <defs>
        <path d="M 35.25 15.578125 
L 35.25 0 
L 28.46875 0 
L 28.46875 15.578125 
L 1.90625 15.578125 
L 1.90625 22.40625 
L 27.6875 68.796875 
L 35.25 68.796875 
L 35.25 22.515625 
L 43.21875 22.515625 
L 43.21875 15.578125 
z
M 28.46875 58.890625 
Q 28.375 58.640625 28.03125 57.90625 
L 27.34375 56.34375 
L 26.5625 54.59375 
Q 26.125 53.65625 25.78125 53.078125 
L 11.328125 27.09375 
Q 11.140625 26.703125 10.75 26.078125 
L 9.96875 24.8125 
L 9.1875 23.484375 
Q 8.796875 22.859375 8.546875 22.515625 
L 28.46875 22.515625 
z
" id="LiberationSansNarrow-52"/>
       </defs>
       <use xlink:href="#LiberationSansNarrow-45"/>
       <use x="27.294922" xlink:href="#LiberationSansNarrow-52"/>
       <use x="72.900391" xlink:href="#LiberationSansNarrow-48"/>
      </g>
     </g>
    </g>
    <g id="xtick_3">
     <g id="line2d_3">
      <path clip-path="url(#pb339c0b502)" d="M 162.779227 234.52 
L 162.779227 20.52 
" style="fill:none;stroke:#b0b0b0;stroke-dasharray:1.48,0.64;stroke-dashoffset:0;stroke-width:0.4;"/>
     </g>
     <g id="text_3">
      <!-- -20 -->
      <g transform="translate(154.483133 251.665625)scale(0.14 -0.14)">
       <defs>
        <path d="M 4.109375 0 
L 4.109375 6.203125 
Q 6.15625 11.921875 9.109375 16.28125 
Q 12.0625 20.65625 15.3125 24.1875 
Q 18.5625 27.734375 21.734375 30.765625 
Q 24.90625 33.796875 27.46875 36.8125 
Q 30.03125 39.84375 31.609375 43.15625 
Q 33.203125 46.484375 33.203125 50.6875 
Q 33.203125 53.609375 32.46875 55.828125 
Q 31.734375 58.0625 30.390625 59.5625 
Q 29.046875 61.078125 27.140625 61.828125 
Q 25.25 62.59375 22.90625 62.59375 
Q 20.75 62.59375 18.84375 61.859375 
Q 16.9375 61.140625 15.453125 59.671875 
Q 13.96875 58.203125 13.03125 56.03125 
Q 12.109375 53.859375 11.8125 50.984375 
L 4.4375 51.8125 
Q 4.78125 55.515625 6.125 58.78125 
Q 7.46875 62.0625 9.78125 64.53125 
Q 12.109375 67 15.359375 68.40625 
Q 18.609375 69.828125 22.90625 69.828125 
Q 27.09375 69.828125 30.390625 68.609375 
Q 33.6875 67.390625 35.9375 64.984375 
Q 38.1875 62.59375 39.40625 59.078125 
Q 40.625 55.5625 40.625 50.984375 
Q 40.625 47.515625 39.59375 44.390625 
Q 38.578125 41.265625 36.859375 38.421875 
Q 35.15625 35.59375 32.90625 32.953125 
Q 30.671875 30.328125 28.21875 27.828125 
L 23.296875 22.859375 
Q 20.796875 20.359375 18.625 17.859375 
Q 16.453125 15.375 14.734375 12.8125 
Q 13.03125 10.25 12.0625 7.46875 
L 41.5 7.46875 
L 41.5 0 
z
" id="LiberationSansNarrow-50"/>
       </defs>
       <use xlink:href="#LiberationSansNarrow-45"/>
       <use x="27.294922" xlink:href="#LiberationSansNarrow-50"/>
       <use x="72.900391" xlink:href="#LiberationSansNarrow-48"/>
      </g>
     </g>
    </g>
    <g id="xtick_4">
     <g id="line2d_4">
      <path clip-path="url(#pb339c0b502)" d="M 199.522985 234.52 
L 199.522985 20.52 
" style="fill:none;stroke:#b0b0b0;stroke-dasharray:1.48,0.64;stroke-dashoffset:0;stroke-width:0.4;"/>
     </g>
     <g id="text_4">
      <!-- 0 -->
      <g transform="translate(196.330328 251.665625)scale(0.14 -0.14)">
       <use xlink:href="#LiberationSansNarrow-48"/>
      </g>
     </g>
    </g>
    <g id="xtick_5">
     <g id="line2d_5">
      <path clip-path="url(#pb339c0b502)" d="M 236.266742 234.52 
L 236.266742 20.52 
" style="fill:none;stroke:#b0b0b0;stroke-dasharray:1.48,0.64;stroke-dashoffset:0;stroke-width:0.4;"/>
     </g>
     <g id="text_5">
      <!-- 20 -->
      <g transform="translate(229.88143 251.665625)scale(0.14 -0.14)">
       <use xlink:href="#LiberationSansNarrow-50"/>
       <use x="45.605469" xlink:href="#LiberationSansNarrow-48"/>
      </g>
     </g>
    </g>
    <g id="xtick_6">
     <g id="line2d_6">
      <path clip-path="url(#pb339c0b502)" d="M 273.0105 234.52 
L 273.0105 20.52 
" style="fill:none;stroke:#b0b0b0;stroke-dasharray:1.48,0.64;stroke-dashoffset:0;stroke-width:0.4;"/>
     </g>
     <g id="text_6">
      <!-- 40 -->
      <g transform="translate(266.625187 251.665625)scale(0.14 -0.14)">
       <use xlink:href="#LiberationSansNarrow-52"/>
       <use x="45.605469" xlink:href="#LiberationSansNarrow-48"/>
      </g>
     </g>
    </g>
    <g id="xtick_7">
     <g id="line2d_7">
      <path clip-path="url(#pb339c0b502)" d="M 309.754257 234.52 
L 309.754257 20.52 
" style="fill:none;stroke:#b0b0b0;stroke-dasharray:1.48,0.64;stroke-dashoffset:0;stroke-width:0.4;"/>
     </g>
     <g id="text_7">
      <!-- 60 -->
      <g transform="translate(303.368945 251.665625)scale(0.14 -0.14)">
       <use xlink:href="#LiberationSansNarrow-54"/>
       <use x="45.605469" xlink:href="#LiberationSansNarrow-48"/>
      </g>
     </g>
    </g>
    <g id="xtick_8">
     <g id="line2d_8">
      <path clip-path="url(#pb339c0b502)" d="M 346.498015 234.52 
L 346.498015 20.52 
" style="fill:none;stroke:#b0b0b0;stroke-dasharray:1.48,0.64;stroke-dashoffset:0;stroke-width:0.4;"/>
     </g>
     <g id="text_8">
      <!-- 80 -->
      <g transform="translate(340.112702 251.665625)scale(0.14 -0.14)">
       <defs>
        <path d="M 42.046875 19.1875 
Q 42.046875 14.796875 40.890625 11.109375 
Q 39.75 7.421875 37.40625 4.734375 
Q 35.0625 2.046875 31.421875 0.53125 
Q 27.78125 -0.984375 22.796875 -0.984375 
Q 17.828125 -0.984375 14.203125 0.53125 
Q 10.59375 2.046875 8.21875 4.703125 
Q 5.859375 7.375 4.703125 11.0625 
Q 3.5625 14.75 3.5625 19.09375 
Q 3.5625 22.859375 4.515625 25.78125 
Q 5.46875 28.71875 7.03125 30.828125 
Q 8.59375 32.953125 10.609375 34.25 
Q 12.640625 35.546875 14.796875 35.984375 
L 14.796875 36.1875 
Q 12.453125 36.859375 10.59375 38.375 
Q 8.734375 39.890625 7.46875 42.015625 
Q 6.203125 44.140625 5.546875 46.71875 
Q 4.890625 49.3125 4.890625 52.203125 
Q 4.890625 55.8125 6.03125 59 
Q 7.171875 62.203125 9.421875 64.625 
Q 11.671875 67.046875 14.984375 68.4375 
Q 18.3125 69.828125 22.65625 69.828125 
Q 27.25 69.828125 30.640625 68.40625 
Q 34.03125 67 36.25 64.578125 
Q 38.484375 62.15625 39.546875 58.9375 
Q 40.625 55.71875 40.625 52.09375 
Q 40.625 49.265625 39.96875 46.671875 
Q 39.3125 44.09375 38.0625 41.96875 
Q 36.8125 39.84375 34.9375 38.34375 
Q 33.0625 36.859375 30.609375 36.28125 
L 30.609375 36.078125 
Q 33.0625 35.59375 35.15625 34.296875 
Q 37.25 33.015625 38.765625 30.890625 
Q 40.28125 28.765625 41.15625 25.828125 
Q 42.046875 22.90625 42.046875 19.1875 
z
M 33.15625 51.609375 
Q 33.15625 54.203125 32.609375 56.34375 
Q 32.078125 58.5 30.828125 60.03125 
Q 29.59375 61.578125 27.59375 62.421875 
Q 25.59375 63.28125 22.65625 63.28125 
Q 19.828125 63.28125 17.875 62.421875 
Q 15.921875 61.578125 14.640625 60.03125 
Q 13.375 58.5 12.8125 56.34375 
Q 12.25 54.203125 12.25 51.609375 
Q 12.25 49.5625 12.6875 47.40625 
Q 13.140625 45.265625 14.3125 43.5 
Q 15.484375 41.75 17.5 40.625 
Q 19.53125 39.5 22.75 39.5 
Q 26.171875 39.5 28.21875 40.625 
Q 30.28125 41.75 31.375 43.5 
Q 32.46875 45.265625 32.8125 47.40625 
Q 33.15625 49.5625 33.15625 51.609375 
z
M 34.578125 20.015625 
Q 34.578125 22.515625 34.015625 24.828125 
Q 33.453125 27.15625 32.078125 28.9375 
Q 30.71875 30.71875 28.421875 31.8125 
Q 26.125 32.90625 22.65625 32.90625 
Q 19.484375 32.90625 17.265625 31.8125 
Q 15.046875 30.71875 13.671875 28.90625 
Q 12.3125 27.09375 11.671875 24.71875 
Q 11.03125 22.359375 11.03125 19.828125 
Q 11.03125 16.65625 11.671875 14.03125 
Q 12.3125 11.421875 13.703125 9.546875 
Q 15.09375 7.671875 17.375 6.640625 
Q 19.671875 5.609375 22.90625 5.609375 
Q 26.171875 5.609375 28.421875 6.640625 
Q 30.671875 7.671875 32.03125 9.546875 
Q 33.40625 11.421875 33.984375 14.078125 
Q 34.578125 16.75 34.578125 20.015625 
z
" id="LiberationSansNarrow-56"/>
       </defs>
       <use xlink:href="#LiberationSansNarrow-56"/>
       <use x="45.605469" xlink:href="#LiberationSansNarrow-48"/>
      </g>
     </g>
    </g>
    <g id="xtick_9">
     <g id="line2d_9">
      <path clip-path="url(#pb339c0b502)" d="M 383.241772 234.52 
L 383.241772 20.52 
" style="fill:none;stroke:#b0b0b0;stroke-dasharray:1.48,0.64;stroke-dashoffset:0;stroke-width:0.4;"/>
     </g>
     <g id="text_9">
      <!-- 100 -->
      <g transform="translate(373.663804 251.665625)scale(0.14 -0.14)">
       <defs>
        <path d="M 6.25 0 
L 6.25 7.46875 
L 20.609375 7.46875 
L 20.609375 60.40625 
L 7.90625 49.3125 
L 7.90625 57.625 
L 21.234375 68.796875 
L 27.875 68.796875 
L 27.875 7.46875 
L 41.609375 7.46875 
L 41.609375 0 
z
" id="LiberationSansNarrow-49"/>
       </defs>
       <use xlink:href="#LiberationSansNarrow-49"/>
       <use x="45.605469" xlink:href="#LiberationSansNarrow-48"/>
       <use x="91.210938" xlink:href="#LiberationSansNarrow-48"/>
      </g>
     </g>
    </g>
    <g id="xtick_10">
     <g id="line2d_10">
      <path clip-path="url(#pb339c0b502)" d="M 419.98553 234.52 
L 419.98553 20.52 
" style="fill:none;stroke:#b0b0b0;stroke-dasharray:1.48,0.64;stroke-dashoffset:0;stroke-width:0.4;"/>
     </g>
     <g id="text_10">
      <!-- 120 -->
      <g transform="translate(410.407561 251.665625)scale(0.14 -0.14)">
       <use xlink:href="#LiberationSansNarrow-49"/>
       <use x="45.605469" xlink:href="#LiberationSansNarrow-50"/>
       <use x="91.210938" xlink:href="#LiberationSansNarrow-48"/>
      </g>
     </g>
    </g>
    <g id="xtick_11">
     <g id="line2d_11">
      <path clip-path="url(#pb339c0b502)" d="M 456.729288 234.52 
L 456.729288 20.52 
" style="fill:none;stroke:#b0b0b0;stroke-dasharray:1.48,0.64;stroke-dashoffset:0;stroke-width:0.4;"/>
     </g>
     <g id="text_11">
      <!-- 140 -->
      <g transform="translate(447.151319 251.665625)scale(0.14 -0.14)">
       <use xlink:href="#LiberationSansNarrow-49"/>
       <use x="45.605469" xlink:href="#LiberationSansNarrow-52"/>
       <use x="91.210938" xlink:href="#LiberationSansNarrow-48"/>
      </g>
     </g>
    </g>
    <g id="text_12">
     <!-- доходность, %г -->
     <g transform="translate(255.965469 268.71625)scale(0.14 -0.14)">
      <defs>
       <path d="M 33.34375 46.4375 
L 21.140625 46.4375 
Q 20.171875 37.796875 19.1875 31.375 
Q 18.21875 24.953125 17.234375 20.21875 
Q 16.265625 15.484375 15.3125 12.15625 
Q 14.359375 8.84375 13.484375 6.390625 
L 33.34375 6.390625 
z
M 46.390625 -19.921875 
L 39.890625 -19.921875 
L 39.890625 0 
L 7.328125 0 
L 7.328125 -19.921875 
L 0.78125 -19.921875 
L 0.78125 6.390625 
L 5.5625 6.390625 
Q 6.78125 8.84375 7.921875 12.328125 
Q 9.078125 15.828125 10.21875 21.1875 
Q 11.375 26.5625 12.515625 34.25 
Q 13.671875 41.9375 14.796875 52.828125 
L 40.578125 52.828125 
L 40.578125 6.390625 
L 46.390625 6.390625 
z
" id="LiberationSansNarrow-1076"/>
       <path d="M 42.140625 26.46875 
Q 42.140625 12.59375 37.125 5.796875 
Q 32.125 -0.984375 22.609375 -0.984375 
Q 18.0625 -0.984375 14.515625 0.671875 
Q 10.984375 2.34375 8.515625 5.765625 
Q 6.0625 9.1875 4.765625 14.328125 
Q 3.46875 19.484375 3.46875 26.46875 
Q 3.46875 53.8125 22.859375 53.8125 
Q 27.875 53.8125 31.5625 52.09375 
Q 35.25 50.390625 37.59375 46.96875 
Q 39.9375 43.5625 41.03125 38.421875 
Q 42.140625 33.296875 42.140625 26.46875 
z
M 34.578125 26.46875 
Q 34.578125 32.625 33.8125 36.625 
Q 33.0625 40.625 31.546875 43.015625 
Q 30.03125 45.40625 27.859375 46.359375 
Q 25.6875 47.3125 23 47.3125 
Q 20.21875 47.3125 17.984375 46.3125 
Q 15.765625 45.3125 14.203125 42.890625 
Q 12.640625 40.484375 11.828125 36.46875 
Q 11.03125 32.46875 11.03125 26.46875 
Q 11.03125 20.3125 11.90625 16.28125 
Q 12.796875 12.25 14.328125 9.859375 
Q 15.875 7.46875 17.96875 6.484375 
Q 20.0625 5.515625 22.5625 5.515625 
Q 25.34375 5.515625 27.5625 6.46875 
Q 29.78125 7.421875 31.34375 9.8125 
Q 32.90625 12.203125 33.734375 16.25 
Q 34.578125 20.3125 34.578125 26.46875 
z
" id="LiberationSansNarrow-1086"/>
       <path d="M 32.078125 0 
L 20.40625 21.6875 
L 8.6875 0 
L 0.921875 0 
L 16.359375 27.15625 
L 1.65625 52.828125 
L 9.625 52.828125 
L 20.40625 32.28125 
L 31.15625 52.828125 
L 39.203125 52.828125 
L 24.515625 27.25 
L 40.140625 0 
z
" id="LiberationSansNarrow-1093"/>
       <path d="M 12.890625 52.828125 
L 12.890625 30.46875 
L 32.375 30.46875 
L 32.375 52.828125 
L 39.59375 52.828125 
L 39.59375 0 
L 32.375 0 
L 32.375 24.078125 
L 12.890625 24.078125 
L 12.890625 0 
L 5.671875 0 
L 5.671875 52.828125 
z
" id="LiberationSansNarrow-1085"/>
       <path d="M 11.03125 26.65625 
Q 11.03125 22.125 11.5625 18.3125 
Q 12.109375 14.5 13.375 11.734375 
Q 14.65625 8.984375 16.75 7.46875 
Q 18.84375 5.953125 21.96875 5.953125 
Q 25.828125 5.953125 28.390625 8.484375 
Q 30.953125 11.03125 31.546875 16.3125 
L 38.875 15.71875 
Q 38.53125 12.453125 37.296875 9.421875 
Q 36.078125 6.390625 34.03125 4.09375 
Q 31.984375 1.8125 29 0.40625 
Q 26.03125 -0.984375 22.171875 -0.984375 
Q 17.09375 -0.984375 13.5 1.109375 
Q 9.90625 3.21875 7.6875 6.90625 
Q 5.46875 10.59375 4.46875 15.59375 
Q 3.46875 20.609375 3.46875 26.46875 
Q 3.46875 31.78125 4.203125 35.859375 
Q 4.9375 39.9375 6.21875 42.984375 
Q 7.515625 46.046875 9.265625 48.125 
Q 11.03125 50.203125 13.109375 51.4375 
Q 15.1875 52.6875 17.453125 53.25 
Q 19.734375 53.8125 22.078125 53.8125 
Q 25.734375 53.8125 28.5625 52.59375 
Q 31.390625 51.375 33.46875 49.25 
Q 35.546875 47.125 36.8125 44.234375 
Q 38.09375 41.359375 38.625 38.03125 
L 31.203125 37.359375 
Q 30.671875 41.75 28.375 44.328125 
Q 26.078125 46.921875 21.875 46.921875 
Q 18.796875 46.921875 16.71875 45.671875 
Q 14.65625 44.4375 13.375 41.921875 
Q 12.109375 39.40625 11.5625 35.59375 
Q 11.03125 31.78125 11.03125 26.65625 
z
" id="LiberationSansNarrow-1089"/>
       <path d="M 1.421875 52.828125 
L 36.140625 52.828125 
L 36.140625 46.4375 
L 22.359375 46.4375 
L 22.359375 0 
L 15.1875 0 
L 15.1875 46.4375 
L 1.421875 46.4375 
z
" id="LiberationSansNarrow-1090"/>
       <path d="M 22.75 30.46875 
Q 30.953125 30.46875 35.15625 26.875 
Q 39.359375 23.296875 39.359375 15.53125 
Q 39.359375 11.921875 38.296875 9.03125 
Q 37.25 6.15625 35.171875 4.15625 
Q 33.109375 2.15625 30 1.078125 
Q 26.90625 0 22.796875 0 
L 5.671875 0 
L 5.671875 52.828125 
L 12.890625 52.828125 
L 12.890625 30.46875 
z
M 12.890625 6.203125 
L 21.6875 6.203125 
Q 24.46875 6.203125 26.390625 6.8125 
Q 28.328125 7.421875 29.5 8.609375 
Q 30.671875 9.8125 31.171875 11.546875 
Q 31.6875 13.28125 31.6875 15.53125 
Q 31.6875 20.125 29.359375 22.234375 
Q 27.046875 24.359375 21.734375 24.359375 
L 12.890625 24.359375 
z
" id="LiberationSansNarrow-1100"/>
       <path d="M 15.4375 10.6875 
L 15.4375 2.484375 
Q 15.4375 -0.09375 15.265625 -2.21875 
Q 15.09375 -4.34375 14.671875 -6.171875 
Q 14.265625 -8.015625 13.671875 -9.625 
Q 13.09375 -11.234375 12.3125 -12.796875 
L 7.375 -12.796875 
Q 9.1875 -9.625 10.15625 -6.390625 
Q 11.140625 -3.171875 11.140625 0 
L 7.625 0 
L 7.625 10.6875 
z
" id="LiberationSansNarrow-44"/>
       <path id="LiberationSansNarrow-32"/>
       <path d="M 69.96875 21.1875 
Q 69.96875 15.09375 68.9375 10.90625 
Q 67.921875 6.734375 66.1875 4.171875 
Q 64.453125 1.609375 62.125 0.5 
Q 59.8125 -0.59375 57.171875 -0.59375 
Q 54.546875 -0.59375 52.21875 0.5 
Q 49.90625 1.609375 48.21875 4.140625 
Q 46.53125 6.6875 45.546875 10.859375 
Q 44.578125 15.046875 44.578125 21.1875 
Q 44.578125 27.6875 45.53125 31.9375 
Q 46.484375 36.1875 48.1875 38.703125 
Q 49.90625 41.21875 52.25 42.21875 
Q 54.59375 43.21875 57.328125 43.21875 
Q 59.96875 43.21875 62.25 42.21875 
Q 64.546875 41.21875 66.25 38.703125 
Q 67.96875 36.1875 68.96875 31.9375 
Q 69.96875 27.6875 69.96875 21.1875 
z
M 21.09375 0 
L 14.890625 0 
L 51.8125 68.796875 
L 58.109375 68.796875 
z
M 15.765625 69.390625 
Q 18.3125 69.390625 20.609375 68.390625 
Q 22.90625 67.390625 24.609375 64.890625 
Q 26.3125 62.40625 27.3125 58.203125 
Q 28.328125 54 28.328125 47.609375 
Q 28.328125 41.453125 27.3125 37.25 
Q 26.3125 33.0625 24.609375 30.4375 
Q 22.90625 27.828125 20.578125 26.703125 
Q 18.265625 25.59375 15.625 25.59375 
Q 12.9375 25.59375 10.609375 26.703125 
Q 8.296875 27.828125 6.59375 30.421875 
Q 4.890625 33.015625 3.90625 37.203125 
Q 2.9375 41.40625 2.9375 47.609375 
Q 2.9375 54 3.90625 58.203125 
Q 4.890625 62.40625 6.609375 64.890625 
Q 8.34375 67.390625 10.6875 68.390625 
Q 13.03125 69.390625 15.765625 69.390625 
z
M 64.0625 21.1875 
Q 64.0625 26.03125 63.625 29.21875 
Q 63.1875 32.421875 62.328125 34.328125 
Q 61.46875 36.234375 60.203125 37.015625 
Q 58.9375 37.796875 57.328125 37.796875 
Q 55.671875 37.796875 54.375 36.984375 
Q 53.078125 36.1875 52.1875 34.28125 
Q 51.3125 32.375 50.875 29.171875 
Q 50.4375 25.984375 50.4375 21.1875 
Q 50.4375 16.546875 50.90625 13.421875 
Q 51.375 10.296875 52.21875 8.375 
Q 53.078125 6.453125 54.34375 5.609375 
Q 55.609375 4.78125 57.234375 4.78125 
Q 58.796875 4.78125 60.0625 5.609375 
Q 61.328125 6.453125 62.203125 8.375 
Q 63.09375 10.296875 63.578125 13.421875 
Q 64.0625 16.546875 64.0625 21.1875 
z
M 22.40625 47.609375 
Q 22.40625 52.390625 21.96875 55.5625 
Q 21.53125 58.734375 20.703125 60.640625 
Q 19.875 62.546875 18.625 63.328125 
Q 17.390625 64.109375 15.765625 64.109375 
Q 14.0625 64.109375 12.734375 63.296875 
Q 11.421875 62.5 10.546875 60.59375 
Q 9.671875 58.6875 9.234375 55.515625 
Q 8.796875 52.34375 8.796875 47.609375 
Q 8.796875 42.96875 9.25 39.796875 
Q 9.71875 36.625 10.5625 34.6875 
Q 11.421875 32.765625 12.71875 31.9375 
Q 14.015625 31.109375 15.671875 31.109375 
Q 17.1875 31.109375 18.421875 31.9375 
Q 19.671875 32.765625 20.546875 34.6875 
Q 21.4375 36.625 21.921875 39.796875 
Q 22.40625 42.96875 22.40625 47.609375 
z
" id="LiberationSansNarrow-37"/>
       <path d="M 27.546875 52.828125 
L 27.546875 46.4375 
L 12.890625 46.4375 
L 12.890625 0 
L 5.71875 0 
L 5.71875 52.828125 
z
" id="LiberationSansNarrow-1075"/>
      </defs>
      <use xlink:href="#LiberationSansNarrow-1076"/>
      <use x="47.802734" xlink:href="#LiberationSansNarrow-1086"/>
      <use x="92.283203" xlink:href="#LiberationSansNarrow-1093"/>
      <use x="132.173828" xlink:href="#LiberationSansNarrow-1086"/>
      <use x="175.529297" xlink:href="#LiberationSansNarrow-1076"/>
      <use x="223.332031" xlink:href="#LiberationSansNarrow-1085"/>
      <use x="268.595703" xlink:href="#LiberationSansNarrow-1086"/>
      <use x="314.201172" xlink:href="#LiberationSansNarrow-1089"/>
      <use x="355.216797" xlink:href="#LiberationSansNarrow-1090"/>
      <use x="392.765625" xlink:href="#LiberationSansNarrow-1100"/>
      <use x="435.490234" xlink:href="#LiberationSansNarrow-44"/>
      <use x="458.292969" xlink:href="#LiberationSansNarrow-32"/>
      <use x="481.095703" xlink:href="#LiberationSansNarrow-37"/>
      <use x="553.996094" xlink:href="#LiberationSansNarrow-1075"/>
     </g>
    </g>
   </g>
   <g id="matplotlib.axis_2">
    <g id="ytick_1">
     <g id="line2d_12">
      <path clip-path="url(#pb339c0b502)" d="M 62.12 234.52 
L 531.56 234.52 
" style="fill:none;stroke:#b0b0b0;stroke-dasharray:1.48,0.64;stroke-dashoffset:0;stroke-width:0.4;"/>
     </g>
     <g id="line2d_13">
      <defs>
       <path d="M 0 0 
L -3.5 0 
" id="md81ea2b906" style="stroke:#000000;stroke-width:0.8;"/>
      </defs>
      <g>
       <use style="stroke:#000000;stroke-width:0.8;" x="62.12" xlink:href="#md81ea2b906" y="234.52"/>
      </g>
     </g>
     <g id="text_13">
      <!-- 0.00 -->
      <g transform="translate(32.7725 239.592812)scale(0.14 -0.14)">
       <defs>
        <path d="M 7.46875 0 
L 7.46875 10.6875 
L 15.328125 10.6875 
L 15.328125 0 
z
" id="LiberationSansNarrow-46"/>
       </defs>
       <use xlink:href="#LiberationSansNarrow-48"/>
       <use x="45.605469" xlink:href="#LiberationSansNarrow-46"/>
       <use x="68.408203" xlink:href="#LiberationSansNarrow-48"/>
       <use x="114.013672" xlink:href="#LiberationSansNarrow-48"/>
      </g>
     </g>
    </g>
    <g id="ytick_2">
     <g id="line2d_14">
      <path clip-path="url(#pb339c0b502)" d="M 62.12 181.02 
L 531.56 181.02 
" style="fill:none;stroke:#b0b0b0;stroke-dasharray:1.48,0.64;stroke-dashoffset:0;stroke-width:0.4;"/>
     </g>
     <g id="line2d_15">
      <g>
       <use style="stroke:#000000;stroke-width:0.8;" x="62.12" xlink:href="#md81ea2b906" y="181.02"/>
      </g>
     </g>
     <g id="text_14">
      <!-- 0.79 -->
      <g transform="translate(32.7725 186.092813)scale(0.14 -0.14)">
       <defs>
        <path d="M 41.5 61.671875 
Q 37.25 53.765625 33.6875 46.453125 
Q 30.125 39.15625 27.5625 31.75 
Q 25 24.359375 23.5625 16.578125 
Q 22.125 8.796875 22.125 0 
L 14.59375 0 
Q 14.59375 8.25 16.203125 16.1875 
Q 17.828125 24.125 20.53125 31.765625 
Q 23.25 39.40625 26.859375 46.78125 
Q 30.46875 54.15625 34.515625 61.328125 
L 4.203125 61.328125 
L 4.203125 68.796875 
L 41.5 68.796875 
z
" id="LiberationSansNarrow-55"/>
        <path d="M 41.703125 35.796875 
Q 41.703125 26.609375 40.28125 19.703125 
Q 38.875 12.796875 36.234375 8.203125 
Q 33.59375 3.609375 29.8125 1.3125 
Q 26.03125 -0.984375 21.296875 -0.984375 
Q 18.0625 -0.984375 15.453125 -0.171875 
Q 12.84375 0.640625 10.8125 2.34375 
Q 8.796875 4.046875 7.328125 6.78125 
Q 5.859375 9.515625 4.984375 13.375 
L 11.921875 14.703125 
Q 13.03125 10.25 15.40625 8.171875 
Q 17.78125 6.109375 21.4375 6.109375 
Q 24.359375 6.109375 26.78125 7.78125 
Q 29.203125 9.46875 30.875 12.84375 
Q 32.5625 16.21875 33.546875 21.296875 
Q 34.46875 26.375 34.578125 33.203125 
Q 33.734375 30.90625 32.265625 29.09375 
Q 30.8125 27.296875 28.953125 26.046875 
Q 27.09375 24.8125 24.9375 24.140625 
Q 22.796875 23.484375 20.5625 23.484375 
Q 16.703125 23.484375 13.625 25.171875 
Q 10.546875 26.859375 8.375 29.875 
Q 6.203125 32.90625 5.03125 37.171875 
Q 3.859375 41.453125 3.859375 46.6875 
Q 3.859375 52 5.09375 56.296875 
Q 6.34375 60.59375 8.765625 63.59375 
Q 11.1875 66.609375 14.671875 68.21875 
Q 18.171875 69.828125 22.609375 69.828125 
Q 32.03125 69.828125 36.859375 61.328125 
Q 41.703125 52.828125 41.703125 35.796875 
z
M 33.890625 44.28125 
Q 33.890625 48.09375 33.125 51.453125 
Q 32.375 54.828125 30.9375 57.3125 
Q 29.5 59.8125 27.34375 61.25 
Q 25.203125 62.703125 22.359375 62.703125 
Q 19.78125 62.703125 17.703125 61.578125 
Q 15.625 60.453125 14.1875 58.375 
Q 12.75 56.296875 11.96875 53.3125 
Q 11.1875 50.34375 11.1875 46.6875 
Q 11.1875 43.21875 11.859375 40.234375 
Q 12.546875 37.25 13.953125 35.078125 
Q 15.375 32.90625 17.453125 31.65625 
Q 19.53125 30.421875 22.3125 30.421875 
Q 24.3125 30.421875 26.359375 31.25 
Q 28.421875 32.078125 30.078125 33.78125 
Q 31.734375 35.5 32.8125 38.109375 
Q 33.890625 40.71875 33.890625 44.28125 
z
" id="LiberationSansNarrow-57"/>
       </defs>
       <use xlink:href="#LiberationSansNarrow-48"/>
       <use x="45.605469" xlink:href="#LiberationSansNarrow-46"/>
       <use x="68.408203" xlink:href="#LiberationSansNarrow-55"/>
       <use x="114.013672" xlink:href="#LiberationSansNarrow-57"/>
      </g>
     </g>
    </g>
    <g id="ytick_3">
     <g id="line2d_16">
      <path clip-path="url(#pb339c0b502)" d="M 62.12 127.52 
L 531.56 127.52 
" style="fill:none;stroke:#b0b0b0;stroke-dasharray:1.48,0.64;stroke-dashoffset:0;stroke-width:0.4;"/>
     </g>
     <g id="line2d_17">
      <g>
       <use style="stroke:#000000;stroke-width:0.8;" x="62.12" xlink:href="#md81ea2b906" y="127.52"/>
      </g>
     </g>
     <g id="text_15">
      <!-- 1.57 -->
      <g transform="translate(32.7725 132.592813)scale(0.14 -0.14)">
       <defs>
        <path d="M 42.140625 22.40625 
Q 42.140625 17.234375 40.859375 12.9375 
Q 39.59375 8.640625 37.078125 5.53125 
Q 34.578125 2.4375 30.8125 0.71875 
Q 27.046875 -0.984375 22.125 -0.984375 
Q 17.671875 -0.984375 14.375 0.28125 
Q 11.078125 1.5625 8.8125 3.78125 
Q 6.546875 6 5.203125 8.984375 
Q 3.859375 11.96875 3.265625 15.375 
L 10.546875 16.40625 
Q 10.984375 14.453125 11.78125 12.625 
Q 12.59375 10.796875 13.984375 9.34375 
Q 15.375 7.90625 17.40625 7.046875 
Q 19.4375 6.203125 22.3125 6.203125 
Q 25.09375 6.203125 27.390625 7.25 
Q 29.6875 8.296875 31.296875 10.34375 
Q 32.90625 12.40625 33.78125 15.375 
Q 34.671875 18.359375 34.671875 22.21875 
Q 34.671875 25.390625 33.84375 28.046875 
Q 33.015625 30.71875 31.453125 32.640625 
Q 29.890625 34.578125 27.609375 35.640625 
Q 25.34375 36.71875 22.46875 36.71875 
Q 20.65625 36.71875 19.140625 36.328125 
Q 17.625 35.9375 16.328125 35.25 
Q 15.046875 34.578125 13.96875 33.671875 
Q 12.890625 32.765625 11.96875 31.78125 
L 4.9375 31.78125 
L 6.78125 68.796875 
L 38.875 68.796875 
L 38.875 61.328125 
L 13.375 61.328125 
L 12.3125 39.5 
Q 14.203125 41.3125 17.078125 42.59375 
Q 19.96875 43.890625 23.921875 43.890625 
Q 28.125 43.890625 31.484375 42.328125 
Q 34.859375 40.765625 37.21875 37.90625 
Q 39.59375 35.0625 40.859375 31.109375 
Q 42.140625 27.15625 42.140625 22.40625 
z
" id="LiberationSansNarrow-53"/>
       </defs>
       <use xlink:href="#LiberationSansNarrow-49"/>
       <use x="45.605469" xlink:href="#LiberationSansNarrow-46"/>
       <use x="68.408203" xlink:href="#LiberationSansNarrow-53"/>
       <use x="114.013672" xlink:href="#LiberationSansNarrow-55"/>
      </g>
     </g>
    </g>
    <g id="ytick_4">
     <g id="line2d_18">
      <path clip-path="url(#pb339c0b502)" d="M 62.12 74.02 
L 531.56 74.02 
" style="fill:none;stroke:#b0b0b0;stroke-dasharray:1.48,0.64;stroke-dashoffset:0;stroke-width:0.4;"/>
     </g>
     <g id="line2d_19">
      <g>
       <use style="stroke:#000000;stroke-width:0.8;" x="62.12" xlink:href="#md81ea2b906" y="74.02"/>
      </g>
     </g>
     <g id="text_16">
      <!-- 2.36 -->
      <g transform="translate(32.7725 79.092813)scale(0.14 -0.14)">
       <defs>
        <path d="M 42 19 
Q 42 14.265625 40.75 10.546875 
Q 39.5 6.84375 37.0625 4.265625 
Q 34.625 1.703125 31.046875 0.359375 
Q 27.484375 -0.984375 22.859375 -0.984375 
Q 17.625 -0.984375 14.03125 0.609375 
Q 10.453125 2.203125 8.125 4.8125 
Q 5.8125 7.421875 4.640625 10.765625 
Q 3.46875 14.109375 3.125 17.671875 
L 10.546875 18.5 
Q 10.890625 15.765625 11.734375 13.515625 
Q 12.59375 11.28125 14.078125 9.671875 
Q 15.578125 8.0625 17.75 7.171875 
Q 19.921875 6.296875 22.859375 6.296875 
Q 28.328125 6.296875 31.421875 9.5625 
Q 34.515625 12.84375 34.515625 19.28125 
Q 34.515625 23.09375 33.125 25.40625 
Q 31.734375 27.734375 29.6875 29.03125 
Q 27.640625 30.328125 25.21875 30.765625 
Q 22.796875 31.203125 20.75 31.203125 
L 16.65625 31.203125 
L 16.65625 38.8125 
L 20.5625 38.8125 
Q 22.609375 38.8125 24.828125 39.328125 
Q 27.046875 39.84375 28.859375 41.1875 
Q 30.671875 42.53125 31.859375 44.828125 
Q 33.0625 47.125 33.0625 50.6875 
Q 33.0625 56.203125 30.375 59.390625 
Q 27.6875 62.59375 22.46875 62.59375 
Q 17.671875 62.59375 14.734375 59.609375 
Q 11.8125 56.640625 11.328125 51.21875 
L 4.109375 51.90625 
Q 4.546875 56.453125 6.125 59.8125 
Q 7.71875 63.1875 10.171875 65.40625 
Q 12.640625 67.625 15.8125 68.71875 
Q 19 69.828125 22.5625 69.828125 
Q 27.296875 69.828125 30.6875 68.375 
Q 34.078125 66.9375 36.21875 64.46875 
Q 38.375 62.015625 39.40625 58.6875 
Q 40.4375 55.375 40.4375 51.609375 
Q 40.4375 48.578125 39.75 45.9375 
Q 39.0625 43.3125 37.625 41.203125 
Q 36.1875 39.109375 33.953125 37.59375 
Q 31.734375 36.078125 28.609375 35.296875 
L 28.609375 35.109375 
Q 32.03125 34.671875 34.546875 33.21875 
Q 37.0625 31.78125 38.71875 29.625 
Q 40.375 27.484375 41.1875 24.75 
Q 42 22.015625 42 19 
z
" id="LiberationSansNarrow-51"/>
       </defs>
       <use xlink:href="#LiberationSansNarrow-50"/>
       <use x="45.605469" xlink:href="#LiberationSansNarrow-46"/>
       <use x="68.408203" xlink:href="#LiberationSansNarrow-51"/>
       <use x="114.013672" xlink:href="#LiberationSansNarrow-54"/>
      </g>
     </g>
    </g>
    <g id="ytick_5">
     <g id="line2d_20">
      <path clip-path="url(#pb339c0b502)" d="M 62.12 20.52 
L 531.56 20.52 
" style="fill:none;stroke:#b0b0b0;stroke-dasharray:1.48,0.64;stroke-dashoffset:0;stroke-width:0.4;"/>
     </g>
     <g id="line2d_21">
      <g>
       <use style="stroke:#000000;stroke-width:0.8;" x="62.12" xlink:href="#md81ea2b906" y="20.52"/>
      </g>
     </g>
     <g id="text_17">
      <!-- 3.15 -->
      <g transform="translate(32.7725 25.592813)scale(0.14 -0.14)">
       <use xlink:href="#LiberationSansNarrow-51"/>
       <use x="45.605469" xlink:href="#LiberationSansNarrow-46"/>
       <use x="68.408203" xlink:href="#LiberationSansNarrow-49"/>
       <use x="114.013672" xlink:href="#LiberationSansNarrow-53"/>
      </g>
     </g>
    </g>
    <g id="text_18">
     <!-- плотность вероятности -->
     <g transform="translate(25.8675 189.5225)rotate(-90)scale(0.14 -0.14)">
      <defs>
       <path d="M 38.71875 52.828125 
L 38.71875 0 
L 31.546875 0 
L 31.546875 46.4375 
L 12.890625 46.4375 
L 12.890625 0 
L 5.71875 0 
L 5.71875 52.828125 
z
" id="LiberationSansNarrow-1087"/>
       <path d="M 34.859375 0 
L 34.859375 46.4375 
L 19.875 46.4375 
Q 18.890625 37.453125 18.03125 30.4375 
Q 17.1875 23.4375 16.3125 18.15625 
Q 15.4375 12.890625 14.40625 9.25 
Q 13.375 5.609375 11.953125 3.34375 
Q 10.546875 1.078125 8.65625 0.046875 
Q 6.78125 -0.984375 4.203125 -0.984375 
Q 3.03125 -0.984375 2.078125 -0.78125 
Q 1.125 -0.59375 0.4375 -0.34375 
L 0.4375 5.953125 
Q 0.875 5.765625 1.625 5.640625 
Q 2.390625 5.515625 3.171875 5.515625 
Q 4.59375 5.515625 5.59375 6.53125 
Q 6.59375 7.5625 7.390625 9.859375 
Q 8.203125 12.15625 8.859375 15.796875 
Q 9.515625 19.4375 10.203125 24.703125 
Q 10.890625 29.984375 11.625 36.921875 
L 13.375 52.828125 
L 42.140625 52.828125 
L 42.140625 0 
z
" id="LiberationSansNarrow-1083"/>
       <path d="M 22.5625 52.828125 
Q 25.59375 52.828125 28.484375 52.234375 
Q 31.390625 51.65625 33.640625 50.140625 
Q 35.890625 48.640625 37.234375 46.09375 
Q 38.578125 43.5625 38.578125 39.59375 
Q 38.578125 37.015625 37.890625 35.03125 
Q 37.203125 33.0625 35.984375 31.640625 
Q 34.765625 30.21875 33.125 29.3125 
Q 31.5 28.421875 29.6875 27.984375 
L 29.6875 27.640625 
Q 31.84375 27.296875 33.734375 26.4375 
Q 35.640625 25.59375 37 24.09375 
Q 38.375 22.609375 39.171875 20.40625 
Q 39.984375 18.21875 39.984375 15.234375 
Q 39.984375 11.421875 38.765625 8.5625 
Q 37.546875 5.71875 35.375 3.8125 
Q 33.203125 1.90625 30.171875 0.953125 
Q 27.15625 0 23.484375 0 
L 5.671875 0 
L 5.671875 52.828125 
z
M 12.890625 6.5 
L 22.3125 6.5 
Q 25.09375 6.5 27 6.984375 
Q 28.90625 7.46875 30.078125 8.546875 
Q 31.25 9.625 31.78125 11.25 
Q 32.328125 12.890625 32.328125 15.1875 
Q 32.328125 17.625 31.765625 19.328125 
Q 31.203125 21.046875 29.953125 22.109375 
Q 28.71875 23.1875 26.703125 23.671875 
Q 24.703125 24.171875 21.875 24.171875 
L 12.890625 24.171875 
z
M 12.890625 46.140625 
L 12.890625 30.515625 
L 21.53125 30.515625 
Q 24.265625 30.515625 26.0625 30.984375 
Q 27.875 31.453125 29 32.390625 
Q 30.125 33.34375 30.5625 34.828125 
Q 31 36.328125 31 38.421875 
Q 31 42.4375 28.96875 44.28125 
Q 26.953125 46.140625 22.125 46.140625 
z
" id="LiberationSansNarrow-1074"/>
       <path d="M 10.6875 24.5625 
Q 10.6875 20.40625 11.5625 16.90625 
Q 12.453125 13.421875 13.90625 10.90625 
Q 15.375 8.40625 17.640625 7 
Q 19.921875 5.609375 23.140625 5.609375 
Q 27.828125 5.609375 30.65625 7.90625 
Q 33.5 10.203125 34.46875 13.71875 
L 40.828125 11.53125 
Q 40.140625 9.328125 38.921875 7.109375 
Q 37.703125 4.890625 35.640625 3.09375 
Q 33.59375 1.3125 30.53125 0.15625 
Q 27.484375 -0.984375 23.140625 -0.984375 
Q 13.53125 -0.984375 8.5 6 
Q 3.46875 12.984375 3.46875 26.765625 
Q 3.46875 34.1875 5 39.328125 
Q 6.546875 44.484375 9.171875 47.703125 
Q 11.8125 50.921875 15.328125 52.359375 
Q 18.84375 53.8125 22.859375 53.8125 
Q 28.328125 53.8125 31.984375 51.65625 
Q 39.0625 47.515625 41.015625 36.8125 
Q 41.9375 31.6875 41.9375 25.734375 
L 41.9375 24.5625 
z
M 34.71875 31.296875 
Q 34.71875 40.140625 31.421875 43.71875 
Q 28.125 47.3125 22.75 47.3125 
Q 18.953125 47.3125 15.328125 44.09375 
Q 10.9375 40.328125 10.6875 31.296875 
z
" id="LiberationSansNarrow-1077"/>
       <path d="M 42.140625 26.65625 
Q 42.140625 20.65625 41.359375 15.578125 
Q 40.578125 10.5 38.6875 6.828125 
Q 36.8125 3.171875 33.765625 1.09375 
Q 30.71875 -0.984375 26.21875 -0.984375 
Q 21.578125 -0.984375 18.078125 1.171875 
Q 14.59375 3.328125 12.796875 8.203125 
L 12.546875 8.203125 
Q 12.59375 8.109375 12.609375 7.328125 
Q 12.640625 6.546875 12.671875 5.375 
Q 12.703125 4.203125 12.71875 2.75 
Q 12.75 1.3125 12.75 -0.09375 
L 12.75 -20.75 
L 5.515625 -20.75 
L 5.515625 42.046875 
Q 5.515625 43.953125 5.484375 45.703125 
Q 5.46875 47.46875 5.4375 48.90625 
Q 5.421875 50.34375 5.375 51.359375 
Q 5.328125 52.390625 5.28125 52.828125 
L 12.25 52.828125 
Q 12.3125 52.6875 12.359375 51.8125 
L 12.5 49.703125 
Q 12.546875 48.4375 12.59375 47.015625 
Q 12.640625 45.609375 12.640625 44.34375 
L 12.796875 44.34375 
Q 13.765625 46.875 15.0625 48.65625 
Q 16.359375 50.4375 18.015625 51.578125 
Q 19.671875 52.734375 21.671875 53.25 
Q 23.6875 53.765625 26.21875 53.765625 
Q 30.71875 53.765625 33.765625 51.8125 
Q 36.8125 49.859375 38.6875 46.3125 
Q 40.578125 42.78125 41.359375 37.765625 
Q 42.140625 32.765625 42.140625 26.65625 
z
M 34.578125 26.46875 
Q 34.578125 31.34375 34.109375 35.15625 
Q 33.640625 38.96875 32.4375 41.59375 
Q 31.25 44.234375 29.296875 45.59375 
Q 27.34375 46.96875 24.359375 46.96875 
Q 21.96875 46.96875 19.84375 46.140625 
Q 17.71875 45.3125 16.125 42.96875 
Q 14.546875 40.625 13.640625 36.5 
Q 12.75 32.375 12.75 25.78125 
Q 12.75 20.171875 13.5 16.28125 
Q 14.265625 12.40625 15.71875 10.015625 
Q 17.1875 7.625 19.328125 6.5625 
Q 21.484375 5.515625 24.3125 5.515625 
Q 27.34375 5.515625 29.296875 6.921875 
Q 31.25 8.34375 32.4375 11.03125 
Q 33.640625 13.71875 34.109375 17.59375 
Q 34.578125 21.484375 34.578125 26.46875 
z
" id="LiberationSansNarrow-1088"/>
       <path d="M 21.4375 22.359375 
L 8.84375 0 
L 0.6875 0 
L 14.453125 23 
Q 9.234375 24.3125 6.859375 28.296875 
Q 4.5 32.28125 4.5 38.234375 
Q 4.5 45.515625 8.8125 49.171875 
Q 13.140625 52.828125 21.4375 52.828125 
L 38.71875 52.828125 
L 38.71875 0 
L 31.546875 0 
L 31.546875 22.359375 
z
M 31.546875 46.625 
L 22.171875 46.625 
Q 16.9375 46.625 14.546875 44.375 
Q 12.15625 42.140625 12.15625 37.59375 
Q 12.15625 33.015625 14.28125 30.734375 
Q 16.40625 28.46875 21.390625 28.46875 
L 31.546875 28.46875 
z
" id="LiberationSansNarrow-1103"/>
       <path d="M 12.640625 52.828125 
L 12.640625 23.921875 
Q 12.640625 22.796875 12.59375 20.921875 
Q 12.546875 19.046875 12.46875 17.046875 
Q 12.40625 15.046875 12.359375 13.234375 
Q 12.3125 11.421875 12.25 10.40625 
L 32.28125 52.828125 
L 40.140625 52.828125 
L 40.140625 0 
L 33.25 0 
L 33.25 32.234375 
Q 33.25 33.15625 33.296875 34.578125 
L 33.40625 37.40625 
Q 33.453125 38.875 33.5 40.234375 
L 33.640625 42.625 
L 13.375 0 
L 5.71875 0 
L 5.71875 52.828125 
z
" id="LiberationSansNarrow-1080"/>
      </defs>
      <use xlink:href="#LiberationSansNarrow-1087"/>
      <use x="44.433594" xlink:href="#LiberationSansNarrow-1083"/>
      <use x="93.361328" xlink:href="#LiberationSansNarrow-1086"/>
      <use x="136.716797" xlink:href="#LiberationSansNarrow-1090"/>
      <use x="174.265625" xlink:href="#LiberationSansNarrow-1085"/>
      <use x="219.529297" xlink:href="#LiberationSansNarrow-1086"/>
      <use x="265.134766" xlink:href="#LiberationSansNarrow-1089"/>
      <use x="306.150391" xlink:href="#LiberationSansNarrow-1090"/>
      <use x="343.699219" xlink:href="#LiberationSansNarrow-1100"/>
      <use x="386.423828" xlink:href="#LiberationSansNarrow-32"/>
      <use x="409.226562" xlink:href="#LiberationSansNarrow-1074"/>
      <use x="451.65625" xlink:href="#LiberationSansNarrow-1077"/>
      <use x="497.261719" xlink:href="#LiberationSansNarrow-1088"/>
      <use x="542.867188" xlink:href="#LiberationSansNarrow-1086"/>
      <use x="588.472656" xlink:href="#LiberationSansNarrow-1103"/>
      <use x="632.90625" xlink:href="#LiberationSansNarrow-1090"/>
      <use x="670.455078" xlink:href="#LiberationSansNarrow-1085"/>
      <use x="715.71875" xlink:href="#LiberationSansNarrow-1086"/>
      <use x="761.324219" xlink:href="#LiberationSansNarrow-1089"/>
      <use x="802.339844" xlink:href="#LiberationSansNarrow-1090"/>
      <use x="839.888672" xlink:href="#LiberationSansNarrow-1080"/>
     </g>
    </g>
   </g>
   <g id="line2d_22">
    <path clip-path="url(#pb339c0b502)" d="M 101.224699 234.279201 
L 102.737752 234.215206 
L 104.277605 234.13582 
L 105.844733 234.037791 
L 107.439621 233.917288 
L 109.062758 233.769832 
L 110.714646 233.590218 
L 112.395794 233.372434 
L 114.10672 233.109582 
L 115.847952 232.793797 
L 117.620026 232.416175 
L 119.423489 231.966705 
L 121.258896 231.434212 
L 123.126815 230.806317 
L 125.027819 230.069417 
L 126.962496 229.208685 
L 128.931442 228.2081 
L 130.935264 227.050521 
L 132.974579 225.717782 
L 135.050017 224.190857 
L 137.162217 222.45005 
L 139.311831 220.475266 
L 141.499521 218.246327 
L 143.725961 215.743361 
L 145.991838 212.947269 
L 148.29785 209.840257 
L 150.644709 206.406466 
L 153.033138 202.632675 
L 155.463873 198.509101 
L 157.937663 194.030286 
L 160.455272 189.196072 
L 163.017475 184.012657 
L 165.625063 178.493708 
L 168.278838 172.661514 
L 170.97962 166.54813 
L 173.728241 160.196462 
L 176.525548 153.661208 
L 179.372404 147.009568 
L 182.269686 140.321613 
L 185.218288 133.690183 
L 188.219118 127.220198 
L 191.273102 121.027259 
L 194.381181 115.235454 
L 197.544314 109.974315 
L 200.763475 105.374933 
L 204.039657 101.565313 
L 207.37387 98.665129 
L 210.767142 96.780127 
L 214.220519 95.996492 
L 217.735065 96.37556 
L 221.311865 97.949282 
L 224.95202 100.716829 
L 228.656654 104.642703 
L 232.426907 109.656595 
L 236.263943 115.655139 
L 240.168945 122.505542 
L 244.143115 130.050915 
L 248.187681 138.116999 
L 252.303887 146.519822 
L 256.493004 155.073789 
L 260.756323 163.599611 
L 265.095157 171.93157 
L 269.510846 179.92363 
L 274.004749 187.454057 
L 278.578253 194.428324 
L 283.232768 200.780266 
L 287.969728 206.471552 
L 292.790593 211.489709 
L 297.696851 215.84499 
L 302.690013 219.566462 
L 307.771619 222.697672 
L 312.943235 225.292263 
L 318.206456 227.409819 
L 323.562904 229.112181 
L 329.014232 230.460385 
L 334.562118 231.512286 
L 340.208274 232.320892 
L 345.954441 232.933329 
L 351.802389 233.390383 
L 357.753922 233.726487 
L 363.810874 233.970037 
L 369.975113 234.143949 
L 376.248539 234.266328 
L 382.633087 234.351191 
L 389.130723 234.409186 
L 395.743453 234.448245 
L 402.473313 234.474169 
L 409.32238 234.491127 
L 416.292764 234.502059 
L 423.386614 234.509005 
L 430.606118 234.513354 
L 437.9535 234.516039 
L 445.431027 234.517671 
L 453.041003 234.51865 
L 460.785775 234.519228 
L 468.667729 234.519565 
L 476.689297 234.519758 
L 484.85295 234.519867 
L 493.161207 234.519928 
L 501.616627 234.519962 
L 510.221818 234.51998 
" style="fill:none;stroke:#ff7f0e;stroke-linecap:square;stroke-width:1.5;"/>
   </g>
   <g id="line2d_23">
    <path clip-path="url(#pb339c0b502)" d="M 208.13704 234.52 
L 208.13704 30.710476 
" style="fill:none;stroke:#000000;stroke-dasharray:3.7,1.6;stroke-dashoffset:0;"/>
   </g>
  </g>
  <g id="axes_2">
   <g id="PolyCollection_1">
    <defs>
     <path d="M 83.458182 -53.904646 
L 83.458182 -53.48 
L 84.91625 -53.48 
L 86.405741 -53.48 
L 87.927334 -53.48 
L 89.481721 -53.48 
L 91.069607 -53.48 
L 92.691715 -53.48 
L 94.348782 -53.48 
L 96.041562 -53.48 
L 97.770825 -53.48 
L 99.537356 -53.48 
L 101.34196 -53.48 
L 103.185456 -53.48 
L 105.068683 -53.48 
L 106.992496 -53.48 
L 108.957772 -53.48 
L 110.965402 -53.48 
L 113.016301 -53.48 
L 115.111401 -53.48 
L 117.251654 -53.48 
L 119.438033 -53.48 
L 121.671533 -53.48 
L 123.953168 -53.48 
L 126.283977 -53.48 
L 128.66502 -53.48 
L 131.097378 -53.48 
L 133.582158 -53.48 
L 136.120489 -53.48 
L 138.713527 -53.48 
L 141.362449 -53.48 
L 144.06846 -53.48 
L 146.83279 -53.48 
L 149.656697 -53.48 
L 152.541465 -53.48 
L 155.488404 -53.48 
L 158.498856 -53.48 
L 161.574188 -53.48 
L 164.715799 -53.48 
L 167.925118 -53.48 
L 171.203603 -53.48 
L 174.552746 -53.48 
L 177.974069 -53.48 
L 181.469128 -53.48 
L 185.039512 -53.48 
L 188.686844 -53.48 
L 192.412783 -53.48 
L 196.219022 -53.48 
L 200.107293 -53.48 
L 204.079364 -53.48 
L 208.13704 -53.48 
L 208.13704 -53.48 
L 208.13704 -53.48 
L 204.079364 -56.808875 
L 200.107293 -66.322794 
L 196.219022 -81.058849 
L 192.412783 -99.808336 
L 188.686844 -121.234116 
L 185.039512 -143.979692 
L 181.469128 -166.761391 
L 177.974069 -188.438852 
L 174.552746 -208.062479 
L 171.203603 -224.899118 
L 167.925118 -238.438982 
L 164.715799 -248.387642 
L 161.574188 -254.647084 
L 158.498856 -257.289524 
L 155.488404 -256.527141 
L 152.541465 -252.680287 
L 149.656697 -246.146145 
L 146.83279 -237.369294 
L 144.06846 -226.815239 
L 141.362449 -214.947597 
L 138.713527 -202.209325 
L 136.120489 -189.008144 
L 133.582158 -175.706096 
L 131.097378 -162.612975 
L 128.66502 -149.983246 
L 126.283977 -138.015959 
L 123.953168 -126.8571 
L 121.671533 -116.603809 
L 119.438033 -107.309888 
L 117.251654 -98.992089 
L 115.111401 -91.636716 
L 113.016301 -85.206161 
L 110.965402 -79.645082 
L 108.957772 -74.885994 
L 106.992496 -70.854155 
L 105.068683 -67.471664 
L 103.185456 -64.66076 
L 101.34196 -62.346358 
L 99.537356 -60.457892 
L 97.770825 -58.930529 
L 96.041562 -57.705877 
L 94.348782 -56.732257 
L 92.691715 -55.96466 
L 91.069607 -55.364456 
L 89.481721 -54.898937 
L 87.927334 -54.540761 
L 86.405741 -54.267351 
L 84.91625 -54.060273 
L 83.458182 -53.904646 
z
" id="m95b3ee657c" style="stroke:#1f77b4;stroke-opacity:0.3;"/>
    </defs>
    <g clip-path="url(#pb339c0b502)">
     <use style="fill:#1f77b4;fill-opacity:0.3;stroke:#1f77b4;stroke-opacity:0.3;" x="0" xlink:href="#m95b3ee657c" y="288"/>
    </g>
   </g>
   <g id="matplotlib.axis_3">
    <g id="ytick_6">
     <g id="line2d_24">
      <defs>
       <path d="M 0 0 
L 3.5 0 
" id="me76c70a94f" style="stroke:#000000;stroke-width:0.8;"/>
      </defs>
      <g>
       <use style="stroke:#000000;stroke-width:0.8;" x="531.56" xlink:href="#me76c70a94f" y="234.52"/>
      </g>
     </g>
     <g id="text_19">
      <!-- 0.00 -->
      <g transform="translate(538.56 239.592812)scale(0.14 -0.14)">
       <use xlink:href="#LiberationSansNarrow-48"/>
       <use x="45.605469" xlink:href="#LiberationSansNarrow-46"/>
       <use x="68.408203" xlink:href="#LiberationSansNarrow-48"/>
       <use x="114.013672" xlink:href="#LiberationSansNarrow-48"/>
      </g>
     </g>
    </g>
    <g id="ytick_7">
     <g id="line2d_25">
      <g>
       <use style="stroke:#000000;stroke-width:0.8;" x="531.56" xlink:href="#me76c70a94f" y="181.02"/>
      </g>
     </g>
     <g id="text_20">
      <!-- 0.01 -->
      <g transform="translate(538.56 186.092812)scale(0.14 -0.14)">
       <use xlink:href="#LiberationSansNarrow-48"/>
       <use x="45.605469" xlink:href="#LiberationSansNarrow-46"/>
       <use x="68.408203" xlink:href="#LiberationSansNarrow-48"/>
       <use x="114.013672" xlink:href="#LiberationSansNarrow-49"/>
      </g>
     </g>
    </g>
    <g id="ytick_8">
     <g id="line2d_26">
      <g>
       <use style="stroke:#000000;stroke-width:0.8;" x="531.56" xlink:href="#me76c70a94f" y="127.52"/>
      </g>
     </g>
     <g id="text_21">
      <!-- 0.03 -->
      <g transform="translate(538.56 132.592812)scale(0.14 -0.14)">
       <use xlink:href="#LiberationSansNarrow-48"/>
       <use x="45.605469" xlink:href="#LiberationSansNarrow-46"/>
       <use x="68.408203" xlink:href="#LiberationSansNarrow-48"/>
       <use x="114.013672" xlink:href="#LiberationSansNarrow-51"/>
      </g>
     </g>
    </g>
    <g id="ytick_9">
     <g id="line2d_27">
      <g>
       <use style="stroke:#000000;stroke-width:0.8;" x="531.56" xlink:href="#me76c70a94f" y="74.02"/>
      </g>
     </g>
     <g id="text_22">
      <!-- 0.04 -->
      <g transform="translate(538.56 79.092813)scale(0.14 -0.14)">
       <use xlink:href="#LiberationSansNarrow-48"/>
       <use x="45.605469" xlink:href="#LiberationSansNarrow-46"/>
       <use x="68.408203" xlink:href="#LiberationSansNarrow-48"/>
       <use x="114.013672" xlink:href="#LiberationSansNarrow-52"/>
      </g>
     </g>
    </g>
    <g id="ytick_10">
     <g id="line2d_28">
      <g>
       <use style="stroke:#000000;stroke-width:0.8;" x="531.56" xlink:href="#me76c70a94f" y="20.52"/>
      </g>
     </g>
     <g id="text_23">
      <!-- 0.06 -->
      <g transform="translate(538.56 25.592812)scale(0.14 -0.14)">
       <use xlink:href="#LiberationSansNarrow-48"/>
       <use x="45.605469" xlink:href="#LiberationSansNarrow-46"/>
       <use x="68.408203" xlink:href="#LiberationSansNarrow-48"/>
       <use x="114.013672" xlink:href="#LiberationSansNarrow-54"/>
      </g>
     </g>
    </g>
   </g>
   <g id="line2d_29">
    <path clip-path="url(#pb339c0b502)" d="M 83.458182 234.095354 
L 84.91625 233.939727 
L 86.405741 233.732649 
L 87.927334 233.459239 
L 89.481721 233.101063 
L 91.069607 232.635544 
L 92.691715 232.03534 
L 94.348782 231.267743 
L 96.041562 230.294123 
L 97.770825 229.069471 
L 99.537356 227.542108 
L 101.34196 225.653642 
L 103.185456 223.33924 
L 105.068683 220.528336 
L 106.992496 217.145845 
L 108.957772 213.114006 
L 110.965402 208.354918 
L 113.016301 202.793839 
L 115.111401 196.363284 
L 117.251654 189.007911 
L 119.438033 180.690112 
L 121.671533 171.396191 
L 123.953168 161.1429 
L 126.283977 149.984041 
L 128.66502 138.016754 
L 131.097378 125.387025 
L 133.582158 112.293904 
L 136.120489 98.991856 
L 138.713527 85.790675 
L 141.362449 73.052403 
L 144.06846 61.184761 
L 146.83279 50.630706 
L 149.656697 41.853855 
L 152.541465 35.319713 
L 155.488404 31.472859 
L 158.498856 30.710476 
L 161.574188 33.352916 
L 164.715799 39.612358 
L 167.925118 49.561018 
L 171.203603 63.100882 
L 174.552746 79.937521 
L 177.974069 99.561148 
L 181.469128 121.238609 
L 185.039512 144.020308 
L 188.686844 166.765884 
L 192.412783 188.191664 
L 196.219022 206.941151 
L 200.107293 221.677206 
L 204.079364 231.191125 
L 208.13704 234.52 
" style="fill:none;stroke:#1f77b4;stroke-linecap:square;stroke-width:1.5;"/>
   </g>
   <g id="legend_1">
    <g id="patch_103">
     <path d="M 274.4129 82.616506 
L 523.3966 82.616506 
Q 525.729 82.616506 525.729 80.284106 
L 525.729 28.6834 
Q 525.729 26.351 523.3966 26.351 
L 274.4129 26.351 
Q 272.0805 26.351 272.0805 28.6834 
L 272.0805 80.284106 
Q 272.0805 82.616506 274.4129 82.616506 
z
" style="fill:#ffffff;opacity:0.8;stroke:#cccccc;stroke-linejoin:miter;"/>
    </g>
    <g id="line2d_30">
     <path d="M 276.7453 35.79722 
L 300.0693 35.79722 
" style="fill:none;stroke:#ff7f0e;stroke-linecap:square;stroke-width:1.5;"/>
    </g>
    <g id="line2d_31"/>
    <g id="text_24">
     <!-- прибл. распределение $f(x)$ -->
     <g transform="translate(309.3989 39.87892)scale(0.11662 -0.11662)">
      <defs>
       <path d="M 35.9375 24.515625 
Q 35.9375 30.078125 35.15625 33.765625 
Q 34.375 37.453125 32.9375 39.671875 
Q 31.5 41.890625 29.390625 42.796875 
Q 27.296875 43.703125 24.703125 43.703125 
Q 21.921875 43.703125 19.65625 42.75 
Q 17.390625 41.796875 15.765625 39.546875 
Q 14.15625 37.3125 13.25 33.640625 
Q 12.359375 29.984375 12.359375 24.515625 
Q 12.359375 18.953125 13.25 15.28125 
Q 14.15625 11.625 15.6875 9.453125 
Q 17.234375 7.28125 19.328125 6.390625 
Q 21.4375 5.515625 23.921875 5.515625 
Q 26.703125 5.515625 28.921875 6.390625 
Q 31.15625 7.28125 32.71875 9.421875 
Q 34.28125 11.578125 35.109375 15.265625 
Q 35.9375 18.953125 35.9375 24.515625 
z
M 26.21875 50.140625 
Q 35.109375 50.140625 39.296875 43.765625 
Q 43.5 37.40625 43.5 24.609375 
Q 43.5 11.671875 38.5 5.34375 
Q 33.5 -0.984375 23.96875 -0.984375 
Q 19.4375 -0.984375 15.890625 0.71875 
Q 12.359375 2.4375 9.890625 6.25 
Q 7.421875 10.0625 6.09375 16.15625 
Q 4.78125 22.265625 4.78125 31.0625 
Q 4.78125 40.4375 5.953125 47.21875 
Q 7.125 54 9.6875 58.703125 
Q 12.25 63.421875 16.375 66.234375 
Q 20.515625 69.046875 26.375 70.40625 
Q 28.65625 70.953125 30.65625 71.359375 
Q 32.671875 71.78125 34.46875 72.125 
L 38.03125 72.75 
L 41.5 73.34375 
L 41.5 65.484375 
Q 38.03125 64.9375 34.8125 64.375 
Q 31.59375 63.8125 27.9375 62.984375 
Q 24.8125 62.3125 22.34375 61.5 
Q 19.875 60.6875 17.984375 59.46875 
Q 16.109375 58.25 14.765625 56.46875 
Q 13.421875 54.6875 12.546875 52.046875 
Q 11.671875 49.421875 11.203125 45.78125 
Q 10.75 42.140625 10.640625 37.203125 
Q 11.421875 39.890625 12.765625 42.25 
Q 14.109375 44.625 16.03125 46.375 
Q 17.96875 48.140625 20.484375 49.140625 
Q 23 50.140625 26.21875 50.140625 
z
" id="LiberationSansNarrow-1073"/>
       <path d="M 16.546875 -0.984375 
Q 10.015625 -0.984375 6.734375 3.21875 
Q 3.46875 7.421875 3.46875 14.75 
Q 3.46875 19.96875 5.09375 23.3125 
Q 6.734375 26.65625 9.34375 28.5625 
Q 11.96875 30.46875 15.328125 31.203125 
Q 18.703125 31.9375 22.171875 32.03125 
L 31.9375 32.234375 
L 31.9375 35.109375 
Q 31.9375 38.375 31.375 40.671875 
Q 30.8125 42.96875 29.640625 44.375 
Q 28.46875 45.796875 26.734375 46.453125 
Q 25 47.125 22.609375 47.125 
Q 20.515625 47.125 18.84375 46.75 
Q 17.1875 46.390625 15.9375 45.4375 
Q 14.703125 44.484375 13.9375 42.84375 
Q 13.1875 41.21875 12.9375 38.71875 
L 5.421875 39.546875 
Q 5.8125 42.671875 6.9375 45.28125 
Q 8.0625 47.90625 10.109375 49.796875 
Q 12.15625 51.703125 15.25 52.75 
Q 18.359375 53.8125 22.796875 53.8125 
Q 30.953125 53.8125 35.078125 49.234375 
Q 39.203125 44.671875 39.203125 36.03125 
L 39.203125 13.28125 
Q 39.203125 9.375 40.03125 7.390625 
Q 40.875 5.421875 43.265625 5.421875 
Q 43.84375 5.421875 44.453125 5.515625 
Q 45.0625 5.609375 45.609375 5.765625 
L 45.609375 0.296875 
Q 44.234375 -0.09375 42.890625 -0.28125 
Q 41.546875 -0.484375 40.046875 -0.484375 
Q 37.984375 -0.484375 36.515625 0.171875 
Q 35.0625 0.828125 34.15625 2.171875 
Q 33.25 3.515625 32.765625 5.484375 
Q 32.28125 7.46875 32.125 10.109375 
L 31.9375 10.109375 
Q 30.765625 7.5625 29.375 5.515625 
Q 27.984375 3.46875 26.140625 2.03125 
Q 24.3125 0.59375 21.9375 -0.1875 
Q 19.578125 -0.984375 16.546875 -0.984375 
z
M 18.21875 5.609375 
Q 21.6875 5.609375 24.25 7.140625 
Q 26.8125 8.6875 28.515625 11.078125 
Q 30.21875 13.484375 31.078125 16.3125 
Q 31.9375 19.140625 31.9375 21.734375 
L 31.9375 26.078125 
L 24.03125 25.875 
Q 21.390625 25.828125 19 25.40625 
Q 16.609375 25 14.8125 23.78125 
Q 13.03125 22.5625 11.953125 20.359375 
Q 10.890625 18.171875 10.890625 14.59375 
Q 10.890625 10.296875 12.796875 7.953125 
Q 14.703125 5.609375 18.21875 5.609375 
z
" id="LiberationSansNarrow-1072"/>
       <path d="M 47.796875 75.984375 
L 46.390625 68.5 
L 37.796875 68.5 
Q 32.90625 68.5 30.6875 66.578125 
Q 28.46875 64.65625 27.390625 59.515625 
L 26.421875 54.6875 
L 41.21875 54.6875 
L 39.890625 47.703125 
L 25.09375 47.703125 
L 15.828125 0 
L 6.78125 0 
L 16.109375 47.703125 
L 7.515625 47.703125 
L 8.796875 54.6875 
L 17.390625 54.6875 
L 18.109375 58.5 
Q 19.96875 68.171875 24.625 72.078125 
Q 29.296875 75.984375 39.3125 75.984375 
z
" id="DejaVuSans-Oblique-102"/>
       <path d="M 31 75.875 
Q 24.46875 64.65625 21.28125 53.65625 
Q 18.109375 42.671875 18.109375 31.390625 
Q 18.109375 20.125 21.3125 9.0625 
Q 24.515625 -2 31 -13.1875 
L 23.1875 -13.1875 
Q 15.875 -1.703125 12.234375 9.375 
Q 8.59375 20.453125 8.59375 31.390625 
Q 8.59375 42.28125 12.203125 53.3125 
Q 15.828125 64.359375 23.1875 75.875 
z
" id="DejaVuSans-40"/>
       <path d="M 60.015625 54.6875 
L 34.90625 27.875 
L 50.296875 0 
L 39.984375 0 
L 28.421875 21.6875 
L 8.296875 0 
L -2.59375 0 
L 24.3125 28.8125 
L 10.015625 54.6875 
L 20.3125 54.6875 
L 30.8125 34.90625 
L 49.125 54.6875 
z
" id="DejaVuSans-Oblique-120"/>
       <path d="M 8.015625 75.875 
L 15.828125 75.875 
Q 23.140625 64.359375 26.78125 53.3125 
Q 30.421875 42.28125 30.421875 31.390625 
Q 30.421875 20.453125 26.78125 9.375 
Q 23.140625 -1.703125 15.828125 -13.1875 
L 8.015625 -13.1875 
Q 14.5 -2 17.703125 9.0625 
Q 20.90625 20.125 20.90625 31.390625 
Q 20.90625 42.671875 17.703125 53.65625 
Q 14.5 64.65625 8.015625 75.875 
z
" id="DejaVuSans-41"/>
      </defs>
      <use transform="translate(0 0.015625)" xlink:href="#LiberationSansNarrow-1087"/>
      <use transform="translate(44.433594 0.015625)" xlink:href="#LiberationSansNarrow-1088"/>
      <use transform="translate(90.039062 0.015625)" xlink:href="#LiberationSansNarrow-1080"/>
      <use transform="translate(135.888672 0.015625)" xlink:href="#LiberationSansNarrow-1073"/>
      <use transform="translate(182.861328 0.015625)" xlink:href="#LiberationSansNarrow-1083"/>
      <use transform="translate(230.664062 0.015625)" xlink:href="#LiberationSansNarrow-46"/>
      <use transform="translate(253.466797 0.015625)" xlink:href="#LiberationSansNarrow-32"/>
      <use transform="translate(276.269531 0.015625)" xlink:href="#LiberationSansNarrow-1088"/>
      <use transform="translate(321.875 0.015625)" xlink:href="#LiberationSansNarrow-1072"/>
      <use transform="translate(367.480469 0.015625)" xlink:href="#LiberationSansNarrow-1089"/>
      <use transform="translate(408.496094 0.015625)" xlink:href="#LiberationSansNarrow-1087"/>
      <use transform="translate(452.929688 0.015625)" xlink:href="#LiberationSansNarrow-1088"/>
      <use transform="translate(498.535156 0.015625)" xlink:href="#LiberationSansNarrow-1077"/>
      <use transform="translate(544.140625 0.015625)" xlink:href="#LiberationSansNarrow-1076"/>
      <use transform="translate(591.943359 0.015625)" xlink:href="#LiberationSansNarrow-1077"/>
      <use transform="translate(637.548828 0.015625)" xlink:href="#LiberationSansNarrow-1083"/>
      <use transform="translate(685.351562 0.015625)" xlink:href="#LiberationSansNarrow-1077"/>
      <use transform="translate(730.957031 0.015625)" xlink:href="#LiberationSansNarrow-1085"/>
      <use transform="translate(776.220703 0.015625)" xlink:href="#LiberationSansNarrow-1080"/>
      <use transform="translate(822.070312 0.015625)" xlink:href="#LiberationSansNarrow-1077"/>
      <use transform="translate(867.675781 0.015625)" xlink:href="#LiberationSansNarrow-32"/>
      <use transform="translate(890.478516 0.015625)" xlink:href="#DejaVuSans-Oblique-102"/>
      <use transform="translate(925.683594 0.015625)" xlink:href="#DejaVuSans-40"/>
      <use transform="translate(964.697266 0.015625)" xlink:href="#DejaVuSans-Oblique-120"/>
      <use transform="translate(1023.876953 0.015625)" xlink:href="#DejaVuSans-41"/>
     </g>
    </g>
    <g id="line2d_32">
     <path d="M 276.7453 52.528546 
L 300.0693 52.528546 
" style="fill:none;stroke:#000000;stroke-dasharray:3.7,1.6;stroke-dashoffset:0;"/>
    </g>
    <g id="line2d_33"/>
    <g id="text_25">
     <!-- среднее $r_t$ -->
     <g transform="translate(309.3989 56.610246)scale(0.11662 -0.11662)">
      <defs>
       <path d="M 44.578125 46.390625 
Q 43.21875 47.125 41.453125 47.515625 
Q 39.703125 47.90625 37.703125 47.90625 
Q 30.515625 47.90625 25.140625 42.453125 
Q 19.78125 37.015625 18.015625 27.875 
L 12.5 0 
L 3.515625 0 
L 14.203125 54.6875 
L 23.1875 54.6875 
L 21.484375 46.1875 
Q 25.046875 50.921875 30 53.453125 
Q 34.96875 56 40.578125 56 
Q 42.046875 56 43.453125 55.828125 
Q 44.875 55.671875 46.296875 55.28125 
z
" id="DejaVuSans-Oblique-114"/>
       <path d="M 42.28125 54.6875 
L 40.921875 47.703125 
L 23 47.703125 
L 17.1875 18.015625 
Q 16.890625 16.359375 16.75 15.234375 
Q 16.609375 14.109375 16.609375 13.484375 
Q 16.609375 10.359375 18.484375 8.9375 
Q 20.359375 7.515625 24.515625 7.515625 
L 33.59375 7.515625 
L 32.078125 0 
L 23.484375 0 
Q 15.484375 0 11.546875 3.125 
Q 7.625 6.25 7.625 12.59375 
Q 7.625 13.71875 7.765625 15.0625 
Q 7.90625 16.40625 8.203125 18.015625 
L 14.015625 47.703125 
L 6.390625 47.703125 
L 7.8125 54.6875 
L 15.28125 54.6875 
L 18.3125 70.21875 
L 27.296875 70.21875 
L 24.3125 54.6875 
z
" id="DejaVuSans-Oblique-116"/>
      </defs>
      <use xlink:href="#LiberationSansNarrow-1089"/>
      <use transform="translate(41.015625 0)" xlink:href="#LiberationSansNarrow-1088"/>
      <use transform="translate(86.621094 0)" xlink:href="#LiberationSansNarrow-1077"/>
      <use transform="translate(132.226562 0)" xlink:href="#LiberationSansNarrow-1076"/>
      <use transform="translate(180.029297 0)" xlink:href="#LiberationSansNarrow-1085"/>
      <use transform="translate(225.292969 0)" xlink:href="#LiberationSansNarrow-1077"/>
      <use transform="translate(270.898438 0)" xlink:href="#LiberationSansNarrow-1077"/>
      <use transform="translate(316.503906 0)" xlink:href="#LiberationSansNarrow-32"/>
      <use transform="translate(339.306641 0)" xlink:href="#DejaVuSans-Oblique-114"/>
      <use transform="translate(380.419922 -16.40625)scale(0.7)" xlink:href="#DejaVuSans-Oblique-116"/>
     </g>
    </g>
    <g id="line2d_34">
     <path d="M 276.7453 71.420986 
L 300.0693 71.420986 
" style="fill:none;stroke:#1f77b4;stroke-linecap:square;stroke-width:1.5;"/>
    </g>
    <g id="line2d_35"/>
    <g id="text_26">
     <!-- взвеш. отставание (прав. шкала) $(r-r_t)^2 f(x)$ -->
     <g transform="translate(309.3989 75.502686)scale(0.11662 -0.11662)">
      <defs>
       <path d="M 18.3125 -0.984375 
Q 11.625 -0.984375 7.6875 2.0625 
Q 3.765625 5.125 1.953125 11.421875 
L 8.296875 13.578125 
Q 9.28125 9.765625 11.8125 7.65625 
Q 14.359375 5.5625 18.453125 5.5625 
Q 22.3125 5.5625 24.578125 7.859375 
Q 26.859375 10.15625 26.859375 14.59375 
Q 26.859375 17.484375 25.734375 19.390625 
Q 24.609375 21.296875 22.78125 22.390625 
Q 20.953125 23.484375 18.546875 23.921875 
Q 16.15625 24.359375 13.578125 24.359375 
L 13.578125 31.0625 
Q 16.109375 31.0625 18.40625 31.421875 
Q 20.703125 31.78125 22.4375 32.703125 
Q 24.171875 33.640625 25.140625 35.28125 
Q 26.125 36.921875 26.125 39.453125 
Q 26.125 43.0625 24.140625 45.15625 
Q 22.171875 47.265625 18.453125 47.265625 
Q 17.046875 47.265625 15.65625 46.921875 
Q 14.265625 46.578125 13.03125 45.765625 
Q 11.8125 44.96875 10.984375 43.625 
Q 10.15625 42.28125 9.859375 40.234375 
L 3.421875 41.21875 
Q 3.90625 44.53125 5.125 46.921875 
Q 6.34375 49.3125 8.296875 50.84375 
Q 10.25 52.390625 12.78125 53.09375 
Q 15.328125 53.8125 18.453125 53.8125 
Q 21.875 53.8125 24.625 52.78125 
Q 27.390625 51.765625 29.34375 49.90625 
Q 31.296875 48.046875 32.375 45.5 
Q 33.453125 42.96875 33.453125 39.890625 
Q 33.453125 37.109375 32.5625 34.953125 
Q 31.6875 32.8125 30.25 31.3125 
Q 28.8125 29.828125 27.046875 28.953125 
Q 25.296875 28.078125 23.53125 27.875 
L 23.53125 27.78125 
Q 25.78125 27.484375 27.75 26.484375 
Q 29.734375 25.484375 31.25 23.84375 
Q 32.765625 22.21875 33.609375 19.9375 
Q 34.46875 17.671875 34.46875 14.84375 
Q 34.46875 11.46875 33.484375 8.5625 
Q 32.515625 5.671875 30.484375 3.546875 
Q 28.46875 1.421875 25.4375 0.21875 
Q 22.40625 -0.984375 18.3125 -0.984375 
z
" id="LiberationSansNarrow-1079"/>
       <path d="M 5.671875 0 
L 5.671875 52.828125 
L 12.890625 52.828125 
L 12.890625 6.390625 
L 29.296875 6.390625 
L 29.296875 52.828125 
L 36.53125 52.828125 
L 36.53125 6.390625 
L 52.875 6.390625 
L 52.875 52.828125 
L 60.109375 52.828125 
L 60.109375 0 
z
" id="LiberationSansNarrow-1096"/>
       <path d="M 5.078125 25.984375 
Q 5.078125 32.765625 5.921875 38.96875 
Q 6.78125 45.171875 8.5625 50.875 
Q 10.359375 56.59375 13.15625 61.953125 
Q 15.96875 67.328125 19.875 72.46875 
L 26.8125 72.46875 
Q 23.046875 67.328125 20.3125 61.9375 
Q 17.578125 56.546875 15.8125 50.796875 
Q 14.0625 45.0625 13.1875 38.859375 
Q 12.3125 32.671875 12.3125 25.875 
Q 12.3125 19.09375 13.1875 12.890625 
Q 14.0625 6.6875 15.8125 0.921875 
Q 17.578125 -4.828125 20.3125 -10.203125 
Q 23.046875 -15.578125 26.8125 -20.703125 
L 19.875 -20.703125 
Q 15.96875 -15.578125 13.15625 -10.203125 
Q 10.359375 -4.828125 8.5625 0.875 
Q 6.78125 6.59375 5.921875 12.765625 
Q 5.078125 18.953125 5.078125 25.78125 
z
" id="LiberationSansNarrow-40"/>
       <path d="M 5.515625 52.828125 
L 12.703125 52.828125 
L 12.703125 29.6875 
Q 13.921875 29.6875 14.875 30.078125 
Q 15.828125 30.46875 16.875 31.6875 
Q 17.921875 32.90625 19.21875 35.15625 
Q 20.515625 37.40625 22.46875 41.15625 
L 28.375 52.828125 
L 35.890625 52.828125 
L 27.25 36.96875 
Q 25.4375 33.734375 24.109375 31.65625 
Q 22.796875 29.59375 22.125 28.90625 
L 36.234375 0 
L 28.21875 0 
L 17.140625 24.265625 
Q 16.359375 23.875 15.0625 23.578125 
Q 13.765625 23.296875 12.703125 23.296875 
L 12.703125 0 
L 5.515625 0 
z
" id="LiberationSansNarrow-1082"/>
       <path d="M 22.21875 25.78125 
Q 22.21875 18.953125 21.359375 12.765625 
Q 20.515625 6.59375 18.71875 0.875 
Q 16.9375 -4.828125 14.125 -10.203125 
Q 11.328125 -15.578125 7.421875 -20.703125 
L 0.484375 -20.703125 
Q 4.25 -15.578125 6.984375 -10.203125 
Q 9.71875 -4.828125 11.46875 0.921875 
Q 13.234375 6.6875 14.109375 12.890625 
Q 14.984375 19.09375 14.984375 25.875 
Q 14.984375 32.671875 14.109375 38.859375 
Q 13.234375 45.0625 11.46875 50.796875 
Q 9.71875 56.546875 6.984375 61.9375 
Q 4.25 67.328125 0.484375 72.46875 
L 7.421875 72.46875 
Q 11.328125 67.328125 14.125 61.953125 
Q 16.9375 56.59375 18.71875 50.875 
Q 20.515625 45.171875 21.359375 38.96875 
Q 22.21875 32.765625 22.21875 25.984375 
z
" id="LiberationSansNarrow-41"/>
       <path d="M 10.59375 35.5 
L 73.1875 35.5 
L 73.1875 27.203125 
L 10.59375 27.203125 
z
" id="DejaVuSans-8722"/>
       <path d="M 19.1875 8.296875 
L 53.609375 8.296875 
L 53.609375 0 
L 7.328125 0 
L 7.328125 8.296875 
Q 12.9375 14.109375 22.625 23.890625 
Q 32.328125 33.6875 34.8125 36.53125 
Q 39.546875 41.84375 41.421875 45.53125 
Q 43.3125 49.21875 43.3125 52.78125 
Q 43.3125 58.59375 39.234375 62.25 
Q 35.15625 65.921875 28.609375 65.921875 
Q 23.96875 65.921875 18.8125 64.3125 
Q 13.671875 62.703125 7.8125 59.421875 
L 7.8125 69.390625 
Q 13.765625 71.78125 18.9375 73 
Q 24.125 74.21875 28.421875 74.21875 
Q 39.75 74.21875 46.484375 68.546875 
Q 53.21875 62.890625 53.21875 53.421875 
Q 53.21875 48.921875 51.53125 44.890625 
Q 49.859375 40.875 45.40625 35.40625 
Q 44.1875 33.984375 37.640625 27.21875 
Q 31.109375 20.453125 19.1875 8.296875 
z
" id="DejaVuSans-50"/>
      </defs>
      <use transform="translate(0 0.765625)" xlink:href="#LiberationSansNarrow-1074"/>
      <use transform="translate(43.554688 0.765625)" xlink:href="#LiberationSansNarrow-1079"/>
      <use transform="translate(81.103516 0.765625)" xlink:href="#LiberationSansNarrow-1074"/>
      <use transform="translate(124.658203 0.765625)" xlink:href="#LiberationSansNarrow-1077"/>
      <use transform="translate(170.263672 0.765625)" xlink:href="#LiberationSansNarrow-1096"/>
      <use transform="translate(236.035156 0.765625)" xlink:href="#LiberationSansNarrow-46"/>
      <use transform="translate(258.837891 0.765625)" xlink:href="#LiberationSansNarrow-32"/>
      <use transform="translate(281.640625 0.765625)" xlink:href="#LiberationSansNarrow-1086"/>
      <use transform="translate(327.246094 0.765625)" xlink:href="#LiberationSansNarrow-1090"/>
      <use transform="translate(364.794922 0.765625)" xlink:href="#LiberationSansNarrow-1089"/>
      <use transform="translate(405.810547 0.765625)" xlink:href="#LiberationSansNarrow-1090"/>
      <use transform="translate(443.359375 0.765625)" xlink:href="#LiberationSansNarrow-1072"/>
      <use transform="translate(488.964844 0.765625)" xlink:href="#LiberationSansNarrow-1074"/>
      <use transform="translate(532.519531 0.765625)" xlink:href="#LiberationSansNarrow-1072"/>
      <use transform="translate(578.125 0.765625)" xlink:href="#LiberationSansNarrow-1085"/>
      <use transform="translate(623.388672 0.765625)" xlink:href="#LiberationSansNarrow-1080"/>
      <use transform="translate(669.238281 0.765625)" xlink:href="#LiberationSansNarrow-1077"/>
      <use transform="translate(714.84375 0.765625)" xlink:href="#LiberationSansNarrow-32"/>
      <use transform="translate(737.646484 0.765625)" xlink:href="#LiberationSansNarrow-40"/>
      <use transform="translate(764.941406 0.765625)" xlink:href="#LiberationSansNarrow-1087"/>
      <use transform="translate(809.375 0.765625)" xlink:href="#LiberationSansNarrow-1088"/>
      <use transform="translate(854.980469 0.765625)" xlink:href="#LiberationSansNarrow-1072"/>
      <use transform="translate(900.585938 0.765625)" xlink:href="#LiberationSansNarrow-1074"/>
      <use transform="translate(944.140625 0.765625)" xlink:href="#LiberationSansNarrow-46"/>
      <use transform="translate(966.943359 0.765625)" xlink:href="#LiberationSansNarrow-32"/>
      <use transform="translate(989.746094 0.765625)" xlink:href="#LiberationSansNarrow-1096"/>
      <use transform="translate(1055.517578 0.765625)" xlink:href="#LiberationSansNarrow-1082"/>
      <use transform="translate(1091.357422 0.765625)" xlink:href="#LiberationSansNarrow-1072"/>
      <use transform="translate(1136.962891 0.765625)" xlink:href="#LiberationSansNarrow-1083"/>
      <use transform="translate(1184.765625 0.765625)" xlink:href="#LiberationSansNarrow-1072"/>
      <use transform="translate(1230.371094 0.765625)" xlink:href="#LiberationSansNarrow-41"/>
      <use transform="translate(1257.666016 0.765625)" xlink:href="#LiberationSansNarrow-32"/>
      <use transform="translate(1280.46875 0.765625)" xlink:href="#DejaVuSans-40"/>
      <use transform="translate(1319.482422 0.765625)" xlink:href="#DejaVuSans-Oblique-114"/>
      <use transform="translate(1380.078125 0.765625)" xlink:href="#DejaVuSans-8722"/>
      <use transform="translate(1483.349609 0.765625)" xlink:href="#DejaVuSans-Oblique-114"/>
      <use transform="translate(1524.462891 -15.640625)scale(0.7)" xlink:href="#DejaVuSans-Oblique-116"/>
      <use transform="translate(1554.643555 0.765625)" xlink:href="#DejaVuSans-41"/>
      <use transform="translate(1594.614258 39.046875)scale(0.7)" xlink:href="#DejaVuSans-50"/>
      <use transform="translate(1641.884766 0.765625)" xlink:href="#DejaVuSans-Oblique-102"/>
      <use transform="translate(1677.089844 0.765625)" xlink:href="#DejaVuSans-40"/>
      <use transform="translate(1716.103516 0.765625)" xlink:href="#DejaVuSans-Oblique-120"/>
      <use transform="translate(1775.283203 0.765625)" xlink:href="#DejaVuSans-41"/>
     </g>
    </g>
   </g>
  </g>
 </g>
 <defs>
  <clipPath id="pb339c0b502">
   <rect height="214" width="469.44" x="62.12" y="20.52"/>
  </clipPath>
 </defs>
</svg>
