<?xml version="1.0" encoding="utf-8" standalone="no"?>
<!DOCTYPE svg PUBLIC "-//W3C//DTD SVG 1.1//EN"
  "http://www.w3.org/Graphics/SVG/1.1/DTD/svg11.dtd">
<!-- Created with matplotlib (https://matplotlib.org/) -->
<svg height="288pt" version="1.1" viewBox="0 0 576 288" width="576pt" xmlns="http://www.w3.org/2000/svg" xmlns:xlink="http://www.w3.org/1999/xlink">
 <metadata>
  <rdf:RDF xmlns:cc="http://creativecommons.org/ns#" xmlns:dc="http://purl.org/dc/elements/1.1/" xmlns:rdf="http://www.w3.org/1999/02/22-rdf-syntax-ns#">
   <cc:Work>
    <dc:type rdf:resource="http://purl.org/dc/dcmitype/StillImage"/>
    <dc:date>2021-07-29T16:39:15.394125</dc:date>
    <dc:format>image/svg+xml</dc:format>
    <dc:creator>
     <cc:Agent>
      <dc:title>Matplotlib v3.3.4, https://matplotlib.org/</dc:title>
     </cc:Agent>
    </dc:creator>
   </cc:Work>
  </rdf:RDF>
 </metadata>
 <defs>
  <style type="text/css">*{stroke-linecap:butt;stroke-linejoin:round;}</style>
 </defs>
 <g id="figure_1">
  <g id="patch_1">
   <path d="M 0 288 
L 576 288 
L 576 0 
L 0 0 
z
" style="fill:#ffffff;"/>
  </g>
  <g id="axes_1">
   <g id="patch_2">
    <path d="M 62.12 234.52 
L 531.56 234.52 
L 531.56 20.52 
L 62.12 20.52 
z
" style="fill:#ffffff;"/>
   </g>
   <g id="patch_3">
    <path clip-path="url(#p067a35bddb)" d="M 83.458182 234.52 
L 85.001092 234.52 
L 85.001092 232.521867 
L 83.458182 232.521867 
z
" style="fill:#1f77b4;opacity:0.5;"/>
   </g>
   <g id="patch_4">
    <path clip-path="url(#p067a35bddb)" d="M 85.001092 234.52 
L 86.571899 234.52 
L 86.571899 232.521867 
L 85.001092 232.521867 
z
" style="fill:#1f77b4;opacity:0.5;"/>
   </g>
   <g id="patch_5">
    <path clip-path="url(#p067a35bddb)" d="M 86.571899 234.52 
L 88.171108 234.52 
L 88.171108 234.52 
L 86.571899 234.52 
z
" style="fill:#1f77b4;opacity:0.5;"/>
   </g>
   <g id="patch_6">
    <path clip-path="url(#p067a35bddb)" d="M 88.171108 234.52 
L 89.799232 234.52 
L 89.799232 234.52 
L 88.171108 234.52 
z
" style="fill:#1f77b4;opacity:0.5;"/>
   </g>
   <g id="patch_7">
    <path clip-path="url(#p067a35bddb)" d="M 89.799232 234.52 
L 91.456795 234.52 
L 91.456795 234.52 
L 89.799232 234.52 
z
" style="fill:#1f77b4;opacity:0.5;"/>
   </g>
   <g id="patch_8">
    <path clip-path="url(#p067a35bddb)" d="M 91.456795 234.52 
L 93.144328 234.52 
L 93.144328 234.52 
L 91.456795 234.52 
z
" style="fill:#1f77b4;opacity:0.5;"/>
   </g>
   <g id="patch_9">
    <path clip-path="url(#p067a35bddb)" d="M 93.144328 234.52 
L 94.862373 234.52 
L 94.862373 232.521867 
L 93.144328 232.521867 
z
" style="fill:#1f77b4;opacity:0.5;"/>
   </g>
   <g id="patch_10">
    <path clip-path="url(#p067a35bddb)" d="M 94.862373 234.52 
L 96.611483 234.52 
L 96.611483 232.521867 
L 94.862373 232.521867 
z
" style="fill:#1f77b4;opacity:0.5;"/>
   </g>
   <g id="patch_11">
    <path clip-path="url(#p067a35bddb)" d="M 96.611483 234.52 
L 98.392218 234.52 
L 98.392218 234.52 
L 96.611483 234.52 
z
" style="fill:#1f77b4;opacity:0.5;"/>
   </g>
   <g id="patch_12">
    <path clip-path="url(#p067a35bddb)" d="M 98.392218 234.52 
L 100.20515 234.52 
L 100.20515 234.52 
L 98.392218 234.52 
z
" style="fill:#1f77b4;opacity:0.5;"/>
   </g>
   <g id="patch_13">
    <path clip-path="url(#p067a35bddb)" d="M 100.20515 234.52 
L 102.050863 234.52 
L 102.050863 234.52 
L 100.20515 234.52 
z
" style="fill:#1f77b4;opacity:0.5;"/>
   </g>
   <g id="patch_14">
    <path clip-path="url(#p067a35bddb)" d="M 102.050863 234.52 
L 103.929948 234.52 
L 103.929948 234.52 
L 102.050863 234.52 
z
" style="fill:#1f77b4;opacity:0.5;"/>
   </g>
   <g id="patch_15">
    <path clip-path="url(#p067a35bddb)" d="M 103.929948 234.52 
L 105.843008 234.52 
L 105.843008 234.52 
L 103.929948 234.52 
z
" style="fill:#1f77b4;opacity:0.5;"/>
   </g>
   <g id="patch_16">
    <path clip-path="url(#p067a35bddb)" d="M 105.843008 234.52 
L 107.790659 234.52 
L 107.790659 234.52 
L 105.843008 234.52 
z
" style="fill:#1f77b4;opacity:0.5;"/>
   </g>
   <g id="patch_17">
    <path clip-path="url(#p067a35bddb)" d="M 107.790659 234.52 
L 109.773525 234.52 
L 109.773525 234.52 
L 107.790659 234.52 
z
" style="fill:#1f77b4;opacity:0.5;"/>
   </g>
   <g id="patch_18">
    <path clip-path="url(#p067a35bddb)" d="M 109.773525 234.52 
L 111.792243 234.52 
L 111.792243 234.52 
L 109.773525 234.52 
z
" style="fill:#1f77b4;opacity:0.5;"/>
   </g>
   <g id="patch_19">
    <path clip-path="url(#p067a35bddb)" d="M 111.792243 234.52 
L 113.847462 234.52 
L 113.847462 232.521867 
L 111.792243 232.521867 
z
" style="fill:#1f77b4;opacity:0.5;"/>
   </g>
   <g id="patch_20">
    <path clip-path="url(#p067a35bddb)" d="M 113.847462 234.52 
L 115.939842 234.52 
L 115.939842 232.521867 
L 113.847462 232.521867 
z
" style="fill:#1f77b4;opacity:0.5;"/>
   </g>
   <g id="patch_21">
    <path clip-path="url(#p067a35bddb)" d="M 115.939842 234.52 
L 118.070053 234.52 
L 118.070053 232.521867 
L 115.939842 232.521867 
z
" style="fill:#1f77b4;opacity:0.5;"/>
   </g>
   <g id="patch_22">
    <path clip-path="url(#p067a35bddb)" d="M 118.070053 234.52 
L 120.238782 234.52 
L 120.238782 230.523735 
L 118.070053 230.523735 
z
" style="fill:#1f77b4;opacity:0.5;"/>
   </g>
   <g id="patch_23">
    <path clip-path="url(#p067a35bddb)" d="M 120.238782 234.52 
L 122.446723 234.52 
L 122.446723 228.525602 
L 120.238782 228.525602 
z
" style="fill:#1f77b4;opacity:0.5;"/>
   </g>
   <g id="patch_24">
    <path clip-path="url(#p067a35bddb)" d="M 122.446723 234.52 
L 124.694586 234.52 
L 124.694586 228.525602 
L 122.446723 228.525602 
z
" style="fill:#1f77b4;opacity:0.5;"/>
   </g>
   <g id="patch_25">
    <path clip-path="url(#p067a35bddb)" d="M 124.694586 234.52 
L 126.983092 234.52 
L 126.983092 230.523735 
L 124.694586 230.523735 
z
" style="fill:#1f77b4;opacity:0.5;"/>
   </g>
   <g id="patch_26">
    <path clip-path="url(#p067a35bddb)" d="M 126.983092 234.52 
L 129.312978 234.52 
L 129.312978 226.52747 
L 126.983092 226.52747 
z
" style="fill:#1f77b4;opacity:0.5;"/>
   </g>
   <g id="patch_27">
    <path clip-path="url(#p067a35bddb)" d="M 129.312978 234.52 
L 131.684989 234.52 
L 131.684989 228.525602 
L 129.312978 228.525602 
z
" style="fill:#1f77b4;opacity:0.5;"/>
   </g>
   <g id="patch_28">
    <path clip-path="url(#p067a35bddb)" d="M 131.684989 234.52 
L 134.09989 234.52 
L 134.09989 228.525602 
L 131.684989 228.525602 
z
" style="fill:#1f77b4;opacity:0.5;"/>
   </g>
   <g id="patch_29">
    <path clip-path="url(#p067a35bddb)" d="M 134.09989 234.52 
L 136.558454 234.52 
L 136.558454 218.534939 
L 134.09989 218.534939 
z
" style="fill:#1f77b4;opacity:0.5;"/>
   </g>
   <g id="patch_30">
    <path clip-path="url(#p067a35bddb)" d="M 136.558454 234.52 
L 139.061472 234.52 
L 139.061472 226.52747 
L 136.558454 226.52747 
z
" style="fill:#1f77b4;opacity:0.5;"/>
   </g>
   <g id="patch_31">
    <path clip-path="url(#p067a35bddb)" d="M 139.061472 234.52 
L 141.609746 234.52 
L 141.609746 226.52747 
L 139.061472 226.52747 
z
" style="fill:#1f77b4;opacity:0.5;"/>
   </g>
   <g id="patch_32">
    <path clip-path="url(#p067a35bddb)" d="M 141.609746 234.52 
L 144.204097 234.52 
L 144.204097 224.529337 
L 141.609746 224.529337 
z
" style="fill:#1f77b4;opacity:0.5;"/>
   </g>
   <g id="patch_33">
    <path clip-path="url(#p067a35bddb)" d="M 144.204097 234.52 
L 146.845355 234.52 
L 146.845355 220.533072 
L 144.204097 220.533072 
z
" style="fill:#1f77b4;opacity:0.5;"/>
   </g>
   <g id="patch_34">
    <path clip-path="url(#p067a35bddb)" d="M 146.845355 234.52 
L 149.534371 234.52 
L 149.534371 226.52747 
L 146.845355 226.52747 
z
" style="fill:#1f77b4;opacity:0.5;"/>
   </g>
   <g id="patch_35">
    <path clip-path="url(#p067a35bddb)" d="M 149.534371 234.52 
L 152.272007 234.52 
L 152.272007 210.542409 
L 149.534371 210.542409 
z
" style="fill:#1f77b4;opacity:0.5;"/>
   </g>
   <g id="patch_36">
    <path clip-path="url(#p067a35bddb)" d="M 152.272007 234.52 
L 155.059141 234.52 
L 155.059141 214.538674 
L 152.272007 214.538674 
z
" style="fill:#1f77b4;opacity:0.5;"/>
   </g>
   <g id="patch_37">
    <path clip-path="url(#p067a35bddb)" d="M 155.059141 234.52 
L 157.896671 234.52 
L 157.896671 210.542409 
L 155.059141 210.542409 
z
" style="fill:#1f77b4;opacity:0.5;"/>
   </g>
   <g id="patch_38">
    <path clip-path="url(#p067a35bddb)" d="M 157.896671 234.52 
L 160.785505 234.52 
L 160.785505 204.548011 
L 157.896671 204.548011 
z
" style="fill:#1f77b4;opacity:0.5;"/>
   </g>
   <g id="patch_39">
    <path clip-path="url(#p067a35bddb)" d="M 160.785505 234.52 
L 163.726573 234.52 
L 163.726573 192.559216 
L 160.785505 192.559216 
z
" style="fill:#1f77b4;opacity:0.5;"/>
   </g>
   <g id="patch_40">
    <path clip-path="url(#p067a35bddb)" d="M 163.726573 234.52 
L 166.720818 234.52 
L 166.720818 196.555481 
L 163.726573 196.555481 
z
" style="fill:#1f77b4;opacity:0.5;"/>
   </g>
   <g id="patch_41">
    <path clip-path="url(#p067a35bddb)" d="M 166.720818 234.52 
L 169.769203 234.52 
L 169.769203 190.561083 
L 166.720818 190.561083 
z
" style="fill:#1f77b4;opacity:0.5;"/>
   </g>
   <g id="patch_42">
    <path clip-path="url(#p067a35bddb)" d="M 169.769203 234.52 
L 172.872705 234.52 
L 172.872705 190.561083 
L 169.769203 190.561083 
z
" style="fill:#1f77b4;opacity:0.5;"/>
   </g>
   <g id="patch_43">
    <path clip-path="url(#p067a35bddb)" d="M 172.872705 234.52 
L 176.032322 234.52 
L 176.032322 172.57789 
L 172.872705 172.57789 
z
" style="fill:#1f77b4;opacity:0.5;"/>
   </g>
   <g id="patch_44">
    <path clip-path="url(#p067a35bddb)" d="M 176.032322 234.52 
L 179.249068 234.52 
L 179.249068 168.581625 
L 176.032322 168.581625 
z
" style="fill:#1f77b4;opacity:0.5;"/>
   </g>
   <g id="patch_45">
    <path clip-path="url(#p067a35bddb)" d="M 179.249068 234.52 
L 182.523976 234.52 
L 182.523976 164.585359 
L 179.249068 164.585359 
z
" style="fill:#1f77b4;opacity:0.5;"/>
   </g>
   <g id="patch_46">
    <path clip-path="url(#p067a35bddb)" d="M 182.523976 234.52 
L 185.858097 234.52 
L 185.858097 136.611503 
L 182.523976 136.611503 
z
" style="fill:#1f77b4;opacity:0.5;"/>
   </g>
   <g id="patch_47">
    <path clip-path="url(#p067a35bddb)" d="M 185.858097 234.52 
L 189.252504 234.52 
L 189.252504 166.583492 
L 185.858097 166.583492 
z
" style="fill:#1f77b4;opacity:0.5;"/>
   </g>
   <g id="patch_48">
    <path clip-path="url(#p067a35bddb)" d="M 189.252504 234.52 
L 192.708284 234.52 
L 192.708284 152.596564 
L 189.252504 152.596564 
z
" style="fill:#1f77b4;opacity:0.5;"/>
   </g>
   <g id="patch_49">
    <path clip-path="url(#p067a35bddb)" d="M 192.708284 234.52 
L 196.226549 234.52 
L 196.226549 130.617106 
L 192.708284 130.617106 
z
" style="fill:#1f77b4;opacity:0.5;"/>
   </g>
   <g id="patch_50">
    <path clip-path="url(#p067a35bddb)" d="M 196.226549 234.52 
L 199.808427 234.52 
L 199.808427 124.622708 
L 196.226549 124.622708 
z
" style="fill:#1f77b4;opacity:0.5;"/>
   </g>
   <g id="patch_51">
    <path clip-path="url(#p067a35bddb)" d="M 199.808427 234.52 
L 203.45507 234.52 
L 203.45507 134.613371 
L 199.808427 134.613371 
z
" style="fill:#1f77b4;opacity:0.5;"/>
   </g>
   <g id="patch_52">
    <path clip-path="url(#p067a35bddb)" d="M 203.45507 234.52 
L 207.167647 234.52 
L 207.167647 98.646984 
L 203.45507 98.646984 
z
" style="fill:#1f77b4;opacity:0.5;"/>
   </g>
   <g id="patch_53">
    <path clip-path="url(#p067a35bddb)" d="M 207.167647 234.52 
L 210.947352 234.52 
L 210.947352 80.663791 
L 207.167647 80.663791 
z
" style="fill:#1f77b4;opacity:0.5;"/>
   </g>
   <g id="patch_54">
    <path clip-path="url(#p067a35bddb)" d="M 210.947352 234.52 
L 214.795398 234.52 
L 214.795398 88.656321 
L 210.947352 88.656321 
z
" style="fill:#1f77b4;opacity:0.5;"/>
   </g>
   <g id="patch_55">
    <path clip-path="url(#p067a35bddb)" d="M 214.795398 234.52 
L 218.71302 234.52 
L 218.71302 60.682465 
L 214.795398 60.682465 
z
" style="fill:#1f77b4;opacity:0.5;"/>
   </g>
   <g id="patch_56">
    <path clip-path="url(#p067a35bddb)" d="M 218.71302 234.52 
L 222.701477 234.52 
L 222.701477 30.710476 
L 218.71302 30.710476 
z
" style="fill:#1f77b4;opacity:0.5;"/>
   </g>
   <g id="patch_57">
    <path clip-path="url(#p067a35bddb)" d="M 222.701477 234.52 
L 226.76205 234.52 
L 226.76205 82.661923 
L 222.701477 82.661923 
z
" style="fill:#1f77b4;opacity:0.5;"/>
   </g>
   <g id="patch_58">
    <path clip-path="url(#p067a35bddb)" d="M 226.76205 234.52 
L 230.896042 234.52 
L 230.896042 80.663791 
L 226.76205 80.663791 
z
" style="fill:#1f77b4;opacity:0.5;"/>
   </g>
   <g id="patch_59">
    <path clip-path="url(#p067a35bddb)" d="M 230.896042 234.52 
L 235.10478 234.52 
L 235.10478 88.656321 
L 230.896042 88.656321 
z
" style="fill:#1f77b4;opacity:0.5;"/>
   </g>
   <g id="patch_60">
    <path clip-path="url(#p067a35bddb)" d="M 235.10478 234.52 
L 239.389617 234.52 
L 239.389617 94.650719 
L 235.10478 94.650719 
z
" style="fill:#1f77b4;opacity:0.5;"/>
   </g>
   <g id="patch_61">
    <path clip-path="url(#p067a35bddb)" d="M 239.389617 234.52 
L 243.751929 234.52 
L 243.751929 92.652586 
L 239.389617 92.652586 
z
" style="fill:#1f77b4;opacity:0.5;"/>
   </g>
   <g id="patch_62">
    <path clip-path="url(#p067a35bddb)" d="M 243.751929 234.52 
L 248.193115 234.52 
L 248.193115 136.611503 
L 243.751929 136.611503 
z
" style="fill:#1f77b4;opacity:0.5;"/>
   </g>
   <g id="patch_63">
    <path clip-path="url(#p067a35bddb)" d="M 248.193115 234.52 
L 252.714603 234.52 
L 252.714603 110.63578 
L 248.193115 110.63578 
z
" style="fill:#1f77b4;opacity:0.5;"/>
   </g>
   <g id="patch_64">
    <path clip-path="url(#p067a35bddb)" d="M 252.714603 234.52 
L 257.317844 234.52 
L 257.317844 132.615238 
L 252.714603 132.615238 
z
" style="fill:#1f77b4;opacity:0.5;"/>
   </g>
   <g id="patch_65">
    <path clip-path="url(#p067a35bddb)" d="M 257.317844 234.52 
L 262.004316 234.52 
L 262.004316 130.617106 
L 257.317844 130.617106 
z
" style="fill:#1f77b4;opacity:0.5;"/>
   </g>
   <g id="patch_66">
    <path clip-path="url(#p067a35bddb)" d="M 262.004316 234.52 
L 266.775524 234.52 
L 266.775524 142.605901 
L 262.004316 142.605901 
z
" style="fill:#1f77b4;opacity:0.5;"/>
   </g>
   <g id="patch_67">
    <path clip-path="url(#p067a35bddb)" d="M 266.775524 234.52 
L 271.633001 234.52 
L 271.633001 170.579757 
L 266.775524 170.579757 
z
" style="fill:#1f77b4;opacity:0.5;"/>
   </g>
   <g id="patch_68">
    <path clip-path="url(#p067a35bddb)" d="M 271.633001 234.52 
L 276.578306 234.52 
L 276.578306 164.585359 
L 271.633001 164.585359 
z
" style="fill:#1f77b4;opacity:0.5;"/>
   </g>
   <g id="patch_69">
    <path clip-path="url(#p067a35bddb)" d="M 276.578306 234.52 
L 281.613027 234.52 
L 281.613027 182.568553 
L 276.578306 182.568553 
z
" style="fill:#1f77b4;opacity:0.5;"/>
   </g>
   <g id="patch_70">
    <path clip-path="url(#p067a35bddb)" d="M 281.613027 234.52 
L 286.738782 234.52 
L 286.738782 206.546144 
L 281.613027 206.546144 
z
" style="fill:#1f77b4;opacity:0.5;"/>
   </g>
   <g id="patch_71">
    <path clip-path="url(#p067a35bddb)" d="M 286.738782 234.52 
L 291.957215 234.52 
L 291.957215 198.553613 
L 286.738782 198.553613 
z
" style="fill:#1f77b4;opacity:0.5;"/>
   </g>
   <g id="patch_72">
    <path clip-path="url(#p067a35bddb)" d="M 291.957215 234.52 
L 297.270003 234.52 
L 297.270003 208.544276 
L 291.957215 208.544276 
z
" style="fill:#1f77b4;opacity:0.5;"/>
   </g>
   <g id="patch_73">
    <path clip-path="url(#p067a35bddb)" d="M 297.270003 234.52 
L 302.678851 234.52 
L 302.678851 216.536807 
L 297.270003 216.536807 
z
" style="fill:#1f77b4;opacity:0.5;"/>
   </g>
   <g id="patch_74">
    <path clip-path="url(#p067a35bddb)" d="M 302.678851 234.52 
L 308.185497 234.52 
L 308.185497 224.529337 
L 302.678851 224.529337 
z
" style="fill:#1f77b4;opacity:0.5;"/>
   </g>
   <g id="patch_75">
    <path clip-path="url(#p067a35bddb)" d="M 308.185497 234.52 
L 313.791709 234.52 
L 313.791709 216.536807 
L 308.185497 216.536807 
z
" style="fill:#1f77b4;opacity:0.5;"/>
   </g>
   <g id="patch_76">
    <path clip-path="url(#p067a35bddb)" d="M 313.791709 234.52 
L 319.499287 234.52 
L 319.499287 220.533072 
L 313.791709 220.533072 
z
" style="fill:#1f77b4;opacity:0.5;"/>
   </g>
   <g id="patch_77">
    <path clip-path="url(#p067a35bddb)" d="M 319.499287 234.52 
L 325.310064 234.52 
L 325.310064 232.521867 
L 319.499287 232.521867 
z
" style="fill:#1f77b4;opacity:0.5;"/>
   </g>
   <g id="patch_78">
    <path clip-path="url(#p067a35bddb)" d="M 325.310064 234.52 
L 331.225906 234.52 
L 331.225906 234.52 
L 325.310064 234.52 
z
" style="fill:#1f77b4;opacity:0.5;"/>
   </g>
   <g id="patch_79">
    <path clip-path="url(#p067a35bddb)" d="M 331.225906 234.52 
L 337.248712 234.52 
L 337.248712 234.52 
L 331.225906 234.52 
z
" style="fill:#1f77b4;opacity:0.5;"/>
   </g>
   <g id="patch_80">
    <path clip-path="url(#p067a35bddb)" d="M 337.248712 234.52 
L 343.380417 234.52 
L 343.380417 232.521867 
L 337.248712 232.521867 
z
" style="fill:#1f77b4;opacity:0.5;"/>
   </g>
   <g id="patch_81">
    <path clip-path="url(#p067a35bddb)" d="M 343.380417 234.52 
L 349.622989 234.52 
L 349.622989 230.523735 
L 343.380417 230.523735 
z
" style="fill:#1f77b4;opacity:0.5;"/>
   </g>
   <g id="patch_82">
    <path clip-path="url(#p067a35bddb)" d="M 349.622989 234.52 
L 355.978434 234.52 
L 355.978434 234.52 
L 349.622989 234.52 
z
" style="fill:#1f77b4;opacity:0.5;"/>
   </g>
   <g id="patch_83">
    <path clip-path="url(#p067a35bddb)" d="M 355.978434 234.52 
L 362.448792 234.52 
L 362.448792 234.52 
L 355.978434 234.52 
z
" style="fill:#1f77b4;opacity:0.5;"/>
   </g>
   <g id="patch_84">
    <path clip-path="url(#p067a35bddb)" d="M 362.448792 234.52 
L 369.03614 234.52 
L 369.03614 232.521867 
L 362.448792 232.521867 
z
" style="fill:#1f77b4;opacity:0.5;"/>
   </g>
   <g id="patch_85">
    <path clip-path="url(#p067a35bddb)" d="M 369.03614 234.52 
L 375.742594 234.52 
L 375.742594 232.521867 
L 369.03614 232.521867 
z
" style="fill:#1f77b4;opacity:0.5;"/>
   </g>
   <g id="patch_86">
    <path clip-path="url(#p067a35bddb)" d="M 375.742594 234.52 
L 382.570308 234.52 
L 382.570308 234.52 
L 375.742594 234.52 
z
" style="fill:#1f77b4;opacity:0.5;"/>
   </g>
   <g id="patch_87">
    <path clip-path="url(#p067a35bddb)" d="M 382.570308 234.52 
L 389.521475 234.52 
L 389.521475 232.521867 
L 382.570308 232.521867 
z
" style="fill:#1f77b4;opacity:0.5;"/>
   </g>
   <g id="patch_88">
    <path clip-path="url(#p067a35bddb)" d="M 389.521475 234.52 
L 396.598325 234.52 
L 396.598325 234.52 
L 389.521475 234.52 
z
" style="fill:#1f77b4;opacity:0.5;"/>
   </g>
   <g id="patch_89">
    <path clip-path="url(#p067a35bddb)" d="M 396.598325 234.52 
L 403.803132 234.52 
L 403.803132 234.52 
L 396.598325 234.52 
z
" style="fill:#1f77b4;opacity:0.5;"/>
   </g>
   <g id="patch_90">
    <path clip-path="url(#p067a35bddb)" d="M 403.803132 234.52 
L 411.13821 234.52 
L 411.13821 234.52 
L 403.803132 234.52 
z
" style="fill:#1f77b4;opacity:0.5;"/>
   </g>
   <g id="patch_91">
    <path clip-path="url(#p067a35bddb)" d="M 411.13821 234.52 
L 418.605913 234.52 
L 418.605913 234.52 
L 411.13821 234.52 
z
" style="fill:#1f77b4;opacity:0.5;"/>
   </g>
   <g id="patch_92">
    <path clip-path="url(#p067a35bddb)" d="M 418.605913 234.52 
L 426.20864 234.52 
L 426.20864 234.52 
L 418.605913 234.52 
z
" style="fill:#1f77b4;opacity:0.5;"/>
   </g>
   <g id="patch_93">
    <path clip-path="url(#p067a35bddb)" d="M 426.20864 234.52 
L 433.948833 234.52 
L 433.948833 234.52 
L 426.20864 234.52 
z
" style="fill:#1f77b4;opacity:0.5;"/>
   </g>
   <g id="patch_94">
    <path clip-path="url(#p067a35bddb)" d="M 433.948833 234.52 
L 441.828976 234.52 
L 441.828976 234.52 
L 433.948833 234.52 
z
" style="fill:#1f77b4;opacity:0.5;"/>
   </g>
   <g id="patch_95">
    <path clip-path="url(#p067a35bddb)" d="M 441.828976 234.52 
L 449.8516 234.52 
L 449.8516 234.52 
L 441.828976 234.52 
z
" style="fill:#1f77b4;opacity:0.5;"/>
   </g>
   <g id="patch_96">
    <path clip-path="url(#p067a35bddb)" d="M 449.8516 234.52 
L 458.019281 234.52 
L 458.019281 234.52 
L 449.8516 234.52 
z
" style="fill:#1f77b4;opacity:0.5;"/>
   </g>
   <g id="patch_97">
    <path clip-path="url(#p067a35bddb)" d="M 458.019281 234.52 
L 466.334643 234.52 
L 466.334643 234.52 
L 458.019281 234.52 
z
" style="fill:#1f77b4;opacity:0.5;"/>
   </g>
   <g id="patch_98">
    <path clip-path="url(#p067a35bddb)" d="M 466.334643 234.52 
L 474.800355 234.52 
L 474.800355 234.52 
L 466.334643 234.52 
z
" style="fill:#1f77b4;opacity:0.5;"/>
   </g>
   <g id="patch_99">
    <path clip-path="url(#p067a35bddb)" d="M 474.800355 234.52 
L 483.419136 234.52 
L 483.419136 234.52 
L 474.800355 234.52 
z
" style="fill:#1f77b4;opacity:0.5;"/>
   </g>
   <g id="patch_100">
    <path clip-path="url(#p067a35bddb)" d="M 483.419136 234.52 
L 492.193753 234.52 
L 492.193753 234.52 
L 483.419136 234.52 
z
" style="fill:#1f77b4;opacity:0.5;"/>
   </g>
   <g id="patch_101">
    <path clip-path="url(#p067a35bddb)" d="M 492.193753 234.52 
L 501.127024 234.52 
L 501.127024 234.52 
L 492.193753 234.52 
z
" style="fill:#1f77b4;opacity:0.5;"/>
   </g>
   <g id="patch_102">
    <path clip-path="url(#p067a35bddb)" d="M 501.127024 234.52 
L 510.221818 234.52 
L 510.221818 230.523735 
L 501.127024 230.523735 
z
" style="fill:#1f77b4;opacity:0.5;"/>
   </g>
   <g id="matplotlib.axis_1">
    <g id="xtick_1">
     <g id="line2d_1">
      <path clip-path="url(#p067a35bddb)" d="M 79.634354 234.52 
L 79.634354 20.52 
" style="fill:none;stroke:#b0b0b0;stroke-dasharray:1.48,0.64;stroke-dashoffset:0;stroke-width:0.4;"/>
     </g>
     <g id="text_1">
      <!-- -60 -->
      <g transform="translate(71.33826 251.665625)scale(0.14 -0.14)">
       <defs>
        <path d="M 3.65625 22.65625 
L 3.65625 30.46875 
L 23.640625 30.46875 
L 23.640625 22.65625 
z
" id="LiberationSansNarrow-45"/>
        <path d="M 42 22.515625 
Q 42 17.328125 40.828125 13 
Q 39.65625 8.6875 37.359375 5.578125 
Q 35.0625 2.484375 31.640625 0.75 
Q 28.21875 -0.984375 23.78125 -0.984375 
Q 18.84375 -0.984375 15.15625 1.3125 
Q 11.46875 3.609375 9.03125 7.921875 
Q 6.59375 12.25 5.375 18.53125 
Q 4.15625 24.8125 4.15625 32.8125 
Q 4.15625 42 5.546875 48.921875 
Q 6.9375 55.859375 9.515625 60.5 
Q 12.109375 65.140625 15.859375 67.484375 
Q 19.625 69.828125 24.359375 69.828125 
Q 27.25 69.828125 29.765625 69.09375 
Q 32.28125 68.359375 34.328125 66.71875 
Q 36.375 65.09375 37.9375 62.40625 
Q 39.5 59.71875 40.4375 55.8125 
L 33.546875 54.296875 
Q 32.421875 58.734375 29.953125 60.71875 
Q 27.484375 62.703125 24.265625 62.703125 
Q 21.296875 62.703125 18.890625 60.984375 
Q 16.5 59.28125 14.8125 55.875 
Q 13.140625 52.484375 12.234375 47.359375 
Q 11.328125 42.234375 11.328125 35.40625 
Q 13.28125 39.84375 16.84375 42.15625 
Q 20.40625 44.484375 25.046875 44.484375 
Q 28.90625 44.484375 32 42.96875 
Q 35.109375 41.453125 37.328125 38.59375 
Q 39.546875 35.75 40.765625 31.671875 
Q 42 27.59375 42 22.515625 
z
M 34.671875 22.125 
Q 34.671875 25.6875 33.953125 28.5625 
Q 33.25 31.453125 31.8125 33.46875 
Q 30.375 35.5 28.25 36.59375 
Q 26.125 37.703125 23.296875 37.703125 
Q 21.34375 37.703125 19.328125 36.984375 
Q 17.328125 36.28125 15.71875 34.6875 
Q 14.109375 33.109375 13.078125 30.515625 
Q 12.0625 27.9375 12.0625 24.21875 
Q 12.0625 20.40625 12.859375 17.109375 
Q 13.671875 13.8125 15.15625 11.375 
Q 16.65625 8.9375 18.78125 7.515625 
Q 20.90625 6.109375 23.53125 6.109375 
Q 26.125 6.109375 28.203125 7.203125 
Q 30.28125 8.296875 31.71875 10.375 
Q 33.15625 12.453125 33.90625 15.421875 
Q 34.671875 18.40625 34.671875 22.125 
z
" id="LiberationSansNarrow-54"/>
        <path d="M 42.390625 34.421875 
Q 42.390625 24.515625 40.84375 17.75 
Q 39.3125 10.984375 36.640625 6.8125 
Q 33.984375 2.640625 30.390625 0.828125 
Q 26.8125 -0.984375 22.703125 -0.984375 
Q 18.609375 -0.984375 15.03125 0.828125 
Q 11.46875 2.640625 8.828125 6.78125 
Q 6.203125 10.9375 4.703125 17.703125 
Q 3.21875 24.46875 3.21875 34.421875 
Q 3.21875 44.828125 4.703125 51.640625 
Q 6.203125 58.453125 8.828125 62.5 
Q 11.46875 66.546875 15.078125 68.1875 
Q 18.703125 69.828125 22.953125 69.828125 
Q 27 69.828125 30.53125 68.1875 
Q 34.078125 66.546875 36.71875 62.5 
Q 39.359375 58.453125 40.875 51.640625 
Q 42.390625 44.828125 42.390625 34.421875 
z
M 35.0625 34.421875 
Q 35.0625 42.625 34.28125 48.0625 
Q 33.5 53.515625 31.9375 56.765625 
Q 30.375 60.015625 28.09375 61.359375 
Q 25.828125 62.703125 22.953125 62.703125 
Q 19.921875 62.703125 17.578125 61.328125 
Q 15.234375 59.96875 13.671875 56.71875 
Q 12.109375 53.46875 11.296875 48.015625 
Q 10.5 42.578125 10.5 34.421875 
Q 10.5 26.515625 11.296875 21.09375 
Q 12.109375 15.671875 13.6875 12.375 
Q 15.28125 9.078125 17.578125 7.640625 
Q 19.875 6.203125 22.796875 6.203125 
Q 25.640625 6.203125 27.90625 7.640625 
Q 30.171875 9.078125 31.75 12.375 
Q 33.34375 15.671875 34.203125 21.09375 
Q 35.0625 26.515625 35.0625 34.421875 
z
" id="LiberationSansNarrow-48"/>
       </defs>
       <use xlink:href="#LiberationSansNarrow-45"/>
       <use x="27.294922" xlink:href="#LiberationSansNarrow-54"/>
       <use x="72.900391" xlink:href="#LiberationSansNarrow-48"/>
      </g>
     </g>
    </g>
    <g id="xtick_2">
     <g id="line2d_2">
      <path clip-path="url(#p067a35bddb)" d="M 120.388968 234.52 
L 120.388968 20.52 
" style="fill:none;stroke:#b0b0b0;stroke-dasharray:1.48,0.64;stroke-dashoffset:0;stroke-width:0.4;"/>
     </g>
     <g id="text_2">
      <!-- -40 -->
      <g transform="translate(112.092874 251.665625)scale(0.14 -0.14)">
       <defs>
        <path d="M 35.25 15.578125 
L 35.25 0 
L 28.46875 0 
L 28.46875 15.578125 
L 1.90625 15.578125 
L 1.90625 22.40625 
L 27.6875 68.796875 
L 35.25 68.796875 
L 35.25 22.515625 
L 43.21875 22.515625 
L 43.21875 15.578125 
z
M 28.46875 58.890625 
Q 28.375 58.640625 28.03125 57.90625 
L 27.34375 56.34375 
L 26.5625 54.59375 
Q 26.125 53.65625 25.78125 53.078125 
L 11.328125 27.09375 
Q 11.140625 26.703125 10.75 26.078125 
L 9.96875 24.8125 
L 9.1875 23.484375 
Q 8.796875 22.859375 8.546875 22.515625 
L 28.46875 22.515625 
z
" id="LiberationSansNarrow-52"/>
       </defs>
       <use xlink:href="#LiberationSansNarrow-45"/>
       <use x="27.294922" xlink:href="#LiberationSansNarrow-52"/>
       <use x="72.900391" xlink:href="#LiberationSansNarrow-48"/>
      </g>
     </g>
    </g>
    <g id="xtick_3">
     <g id="line2d_3">
      <path clip-path="url(#p067a35bddb)" d="M 161.143582 234.52 
L 161.143582 20.52 
" style="fill:none;stroke:#b0b0b0;stroke-dasharray:1.48,0.64;stroke-dashoffset:0;stroke-width:0.4;"/>
     </g>
     <g id="text_3">
      <!-- -20 -->
      <g transform="translate(152.847488 251.665625)scale(0.14 -0.14)">
       <defs>
        <path d="M 4.109375 0 
L 4.109375 6.203125 
Q 6.15625 11.921875 9.109375 16.28125 
Q 12.0625 20.65625 15.3125 24.1875 
Q 18.5625 27.734375 21.734375 30.765625 
Q 24.90625 33.796875 27.46875 36.8125 
Q 30.03125 39.84375 31.609375 43.15625 
Q 33.203125 46.484375 33.203125 50.6875 
Q 33.203125 53.609375 32.46875 55.828125 
Q 31.734375 58.0625 30.390625 59.5625 
Q 29.046875 61.078125 27.140625 61.828125 
Q 25.25 62.59375 22.90625 62.59375 
Q 20.75 62.59375 18.84375 61.859375 
Q 16.9375 61.140625 15.453125 59.671875 
Q 13.96875 58.203125 13.03125 56.03125 
Q 12.109375 53.859375 11.8125 50.984375 
L 4.4375 51.8125 
Q 4.78125 55.515625 6.125 58.78125 
Q 7.46875 62.0625 9.78125 64.53125 
Q 12.109375 67 15.359375 68.40625 
Q 18.609375 69.828125 22.90625 69.828125 
Q 27.09375 69.828125 30.390625 68.609375 
Q 33.6875 67.390625 35.9375 64.984375 
Q 38.1875 62.59375 39.40625 59.078125 
Q 40.625 55.5625 40.625 50.984375 
Q 40.625 47.515625 39.59375 44.390625 
Q 38.578125 41.265625 36.859375 38.421875 
Q 35.15625 35.59375 32.90625 32.953125 
Q 30.671875 30.328125 28.21875 27.828125 
L 23.296875 22.859375 
Q 20.796875 20.359375 18.625 17.859375 
Q 16.453125 15.375 14.734375 12.8125 
Q 13.03125 10.25 12.0625 7.46875 
L 41.5 7.46875 
L 41.5 0 
z
" id="LiberationSansNarrow-50"/>
       </defs>
       <use xlink:href="#LiberationSansNarrow-45"/>
       <use x="27.294922" xlink:href="#LiberationSansNarrow-50"/>
       <use x="72.900391" xlink:href="#LiberationSansNarrow-48"/>
      </g>
     </g>
    </g>
    <g id="xtick_4">
     <g id="line2d_4">
      <path clip-path="url(#p067a35bddb)" d="M 201.898196 234.52 
L 201.898196 20.52 
" style="fill:none;stroke:#b0b0b0;stroke-dasharray:1.48,0.64;stroke-dashoffset:0;stroke-width:0.4;"/>
     </g>
     <g id="text_4">
      <!-- 0 -->
      <g transform="translate(198.70554 251.665625)scale(0.14 -0.14)">
       <use xlink:href="#LiberationSansNarrow-48"/>
      </g>
     </g>
    </g>
    <g id="xtick_5">
     <g id="line2d_5">
      <path clip-path="url(#p067a35bddb)" d="M 242.65281 234.52 
L 242.65281 20.52 
" style="fill:none;stroke:#b0b0b0;stroke-dasharray:1.48,0.64;stroke-dashoffset:0;stroke-width:0.4;"/>
     </g>
     <g id="text_5">
      <!-- 20 -->
      <g transform="translate(236.267497 251.665625)scale(0.14 -0.14)">
       <use xlink:href="#LiberationSansNarrow-50"/>
       <use x="45.605469" xlink:href="#LiberationSansNarrow-48"/>
      </g>
     </g>
    </g>
    <g id="xtick_6">
     <g id="line2d_6">
      <path clip-path="url(#p067a35bddb)" d="M 283.407424 234.52 
L 283.407424 20.52 
" style="fill:none;stroke:#b0b0b0;stroke-dasharray:1.48,0.64;stroke-dashoffset:0;stroke-width:0.4;"/>
     </g>
     <g id="text_6">
      <!-- 40 -->
      <g transform="translate(277.022111 251.665625)scale(0.14 -0.14)">
       <use xlink:href="#LiberationSansNarrow-52"/>
       <use x="45.605469" xlink:href="#LiberationSansNarrow-48"/>
      </g>
     </g>
    </g>
    <g id="xtick_7">
     <g id="line2d_7">
      <path clip-path="url(#p067a35bddb)" d="M 324.162038 234.52 
L 324.162038 20.52 
" style="fill:none;stroke:#b0b0b0;stroke-dasharray:1.48,0.64;stroke-dashoffset:0;stroke-width:0.4;"/>
     </g>
     <g id="text_7">
      <!-- 60 -->
      <g transform="translate(317.776725 251.665625)scale(0.14 -0.14)">
       <use xlink:href="#LiberationSansNarrow-54"/>
       <use x="45.605469" xlink:href="#LiberationSansNarrow-48"/>
      </g>
     </g>
    </g>
    <g id="xtick_8">
     <g id="line2d_8">
      <path clip-path="url(#p067a35bddb)" d="M 364.916652 234.52 
L 364.916652 20.52 
" style="fill:none;stroke:#b0b0b0;stroke-dasharray:1.48,0.64;stroke-dashoffset:0;stroke-width:0.4;"/>
     </g>
     <g id="text_8">
      <!-- 80 -->
      <g transform="translate(358.531339 251.665625)scale(0.14 -0.14)">
       <defs>
        <path d="M 42.046875 19.1875 
Q 42.046875 14.796875 40.890625 11.109375 
Q 39.75 7.421875 37.40625 4.734375 
Q 35.0625 2.046875 31.421875 0.53125 
Q 27.78125 -0.984375 22.796875 -0.984375 
Q 17.828125 -0.984375 14.203125 0.53125 
Q 10.59375 2.046875 8.21875 4.703125 
Q 5.859375 7.375 4.703125 11.0625 
Q 3.5625 14.75 3.5625 19.09375 
Q 3.5625 22.859375 4.515625 25.78125 
Q 5.46875 28.71875 7.03125 30.828125 
Q 8.59375 32.953125 10.609375 34.25 
Q 12.640625 35.546875 14.796875 35.984375 
L 14.796875 36.1875 
Q 12.453125 36.859375 10.59375 38.375 
Q 8.734375 39.890625 7.46875 42.015625 
Q 6.203125 44.140625 5.546875 46.71875 
Q 4.890625 49.3125 4.890625 52.203125 
Q 4.890625 55.8125 6.03125 59 
Q 7.171875 62.203125 9.421875 64.625 
Q 11.671875 67.046875 14.984375 68.4375 
Q 18.3125 69.828125 22.65625 69.828125 
Q 27.25 69.828125 30.640625 68.40625 
Q 34.03125 67 36.25 64.578125 
Q 38.484375 62.15625 39.546875 58.9375 
Q 40.625 55.71875 40.625 52.09375 
Q 40.625 49.265625 39.96875 46.671875 
Q 39.3125 44.09375 38.0625 41.96875 
Q 36.8125 39.84375 34.9375 38.34375 
Q 33.0625 36.859375 30.609375 36.28125 
L 30.609375 36.078125 
Q 33.0625 35.59375 35.15625 34.296875 
Q 37.25 33.015625 38.765625 30.890625 
Q 40.28125 28.765625 41.15625 25.828125 
Q 42.046875 22.90625 42.046875 19.1875 
z
M 33.15625 51.609375 
Q 33.15625 54.203125 32.609375 56.34375 
Q 32.078125 58.5 30.828125 60.03125 
Q 29.59375 61.578125 27.59375 62.421875 
Q 25.59375 63.28125 22.65625 63.28125 
Q 19.828125 63.28125 17.875 62.421875 
Q 15.921875 61.578125 14.640625 60.03125 
Q 13.375 58.5 12.8125 56.34375 
Q 12.25 54.203125 12.25 51.609375 
Q 12.25 49.5625 12.6875 47.40625 
Q 13.140625 45.265625 14.3125 43.5 
Q 15.484375 41.75 17.5 40.625 
Q 19.53125 39.5 22.75 39.5 
Q 26.171875 39.5 28.21875 40.625 
Q 30.28125 41.75 31.375 43.5 
Q 32.46875 45.265625 32.8125 47.40625 
Q 33.15625 49.5625 33.15625 51.609375 
z
M 34.578125 20.015625 
Q 34.578125 22.515625 34.015625 24.828125 
Q 33.453125 27.15625 32.078125 28.9375 
Q 30.71875 30.71875 28.421875 31.8125 
Q 26.125 32.90625 22.65625 32.90625 
Q 19.484375 32.90625 17.265625 31.8125 
Q 15.046875 30.71875 13.671875 28.90625 
Q 12.3125 27.09375 11.671875 24.71875 
Q 11.03125 22.359375 11.03125 19.828125 
Q 11.03125 16.65625 11.671875 14.03125 
Q 12.3125 11.421875 13.703125 9.546875 
Q 15.09375 7.671875 17.375 6.640625 
Q 19.671875 5.609375 22.90625 5.609375 
Q 26.171875 5.609375 28.421875 6.640625 
Q 30.671875 7.671875 32.03125 9.546875 
Q 33.40625 11.421875 33.984375 14.078125 
Q 34.578125 16.75 34.578125 20.015625 
z
" id="LiberationSansNarrow-56"/>
       </defs>
       <use xlink:href="#LiberationSansNarrow-56"/>
       <use x="45.605469" xlink:href="#LiberationSansNarrow-48"/>
      </g>
     </g>
    </g>
    <g id="xtick_9">
     <g id="line2d_9">
      <path clip-path="url(#p067a35bddb)" d="M 405.671266 234.52 
L 405.671266 20.52 
" style="fill:none;stroke:#b0b0b0;stroke-dasharray:1.48,0.64;stroke-dashoffset:0;stroke-width:0.4;"/>
     </g>
     <g id="text_9">
      <!-- 100 -->
      <g transform="translate(396.093297 251.665625)scale(0.14 -0.14)">
       <defs>
        <path d="M 6.25 0 
L 6.25 7.46875 
L 20.609375 7.46875 
L 20.609375 60.40625 
L 7.90625 49.3125 
L 7.90625 57.625 
L 21.234375 68.796875 
L 27.875 68.796875 
L 27.875 7.46875 
L 41.609375 7.46875 
L 41.609375 0 
z
" id="LiberationSansNarrow-49"/>
       </defs>
       <use xlink:href="#LiberationSansNarrow-49"/>
       <use x="45.605469" xlink:href="#LiberationSansNarrow-48"/>
       <use x="91.210938" xlink:href="#LiberationSansNarrow-48"/>
      </g>
     </g>
    </g>
    <g id="xtick_10">
     <g id="line2d_10">
      <path clip-path="url(#p067a35bddb)" d="M 446.42588 234.52 
L 446.42588 20.52 
" style="fill:none;stroke:#b0b0b0;stroke-dasharray:1.48,0.64;stroke-dashoffset:0;stroke-width:0.4;"/>
     </g>
     <g id="text_10">
      <!-- 120 -->
      <g transform="translate(436.847911 251.665625)scale(0.14 -0.14)">
       <use xlink:href="#LiberationSansNarrow-49"/>
       <use x="45.605469" xlink:href="#LiberationSansNarrow-50"/>
       <use x="91.210938" xlink:href="#LiberationSansNarrow-48"/>
      </g>
     </g>
    </g>
    <g id="xtick_11">
     <g id="line2d_11">
      <path clip-path="url(#p067a35bddb)" d="M 487.180494 234.52 
L 487.180494 20.52 
" style="fill:none;stroke:#b0b0b0;stroke-dasharray:1.48,0.64;stroke-dashoffset:0;stroke-width:0.4;"/>
     </g>
     <g id="text_11">
      <!-- 140 -->
      <g transform="translate(477.602525 251.665625)scale(0.14 -0.14)">
       <use xlink:href="#LiberationSansNarrow-49"/>
       <use x="45.605469" xlink:href="#LiberationSansNarrow-52"/>
       <use x="91.210938" xlink:href="#LiberationSansNarrow-48"/>
      </g>
     </g>
    </g>
    <g id="text_12">
     <!-- доходность, %г -->
     <g transform="translate(255.965469 268.71625)scale(0.14 -0.14)">
      <defs>
       <path d="M 33.34375 46.4375 
L 21.140625 46.4375 
Q 20.171875 37.796875 19.1875 31.375 
Q 18.21875 24.953125 17.234375 20.21875 
Q 16.265625 15.484375 15.3125 12.15625 
Q 14.359375 8.84375 13.484375 6.390625 
L 33.34375 6.390625 
z
M 46.390625 -19.921875 
L 39.890625 -19.921875 
L 39.890625 0 
L 7.328125 0 
L 7.328125 -19.921875 
L 0.78125 -19.921875 
L 0.78125 6.390625 
L 5.5625 6.390625 
Q 6.78125 8.84375 7.921875 12.328125 
Q 9.078125 15.828125 10.21875 21.1875 
Q 11.375 26.5625 12.515625 34.25 
Q 13.671875 41.9375 14.796875 52.828125 
L 40.578125 52.828125 
L 40.578125 6.390625 
L 46.390625 6.390625 
z
" id="LiberationSansNarrow-1076"/>
       <path d="M 42.140625 26.46875 
Q 42.140625 12.59375 37.125 5.796875 
Q 32.125 -0.984375 22.609375 -0.984375 
Q 18.0625 -0.984375 14.515625 0.671875 
Q 10.984375 2.34375 8.515625 5.765625 
Q 6.0625 9.1875 4.765625 14.328125 
Q 3.46875 19.484375 3.46875 26.46875 
Q 3.46875 53.8125 22.859375 53.8125 
Q 27.875 53.8125 31.5625 52.09375 
Q 35.25 50.390625 37.59375 46.96875 
Q 39.9375 43.5625 41.03125 38.421875 
Q 42.140625 33.296875 42.140625 26.46875 
z
M 34.578125 26.46875 
Q 34.578125 32.625 33.8125 36.625 
Q 33.0625 40.625 31.546875 43.015625 
Q 30.03125 45.40625 27.859375 46.359375 
Q 25.6875 47.3125 23 47.3125 
Q 20.21875 47.3125 17.984375 46.3125 
Q 15.765625 45.3125 14.203125 42.890625 
Q 12.640625 40.484375 11.828125 36.46875 
Q 11.03125 32.46875 11.03125 26.46875 
Q 11.03125 20.3125 11.90625 16.28125 
Q 12.796875 12.25 14.328125 9.859375 
Q 15.875 7.46875 17.96875 6.484375 
Q 20.0625 5.515625 22.5625 5.515625 
Q 25.34375 5.515625 27.5625 6.46875 
Q 29.78125 7.421875 31.34375 9.8125 
Q 32.90625 12.203125 33.734375 16.25 
Q 34.578125 20.3125 34.578125 26.46875 
z
" id="LiberationSansNarrow-1086"/>
       <path d="M 32.078125 0 
L 20.40625 21.6875 
L 8.6875 0 
L 0.921875 0 
L 16.359375 27.15625 
L 1.65625 52.828125 
L 9.625 52.828125 
L 20.40625 32.28125 
L 31.15625 52.828125 
L 39.203125 52.828125 
L 24.515625 27.25 
L 40.140625 0 
z
" id="LiberationSansNarrow-1093"/>
       <path d="M 12.890625 52.828125 
L 12.890625 30.46875 
L 32.375 30.46875 
L 32.375 52.828125 
L 39.59375 52.828125 
L 39.59375 0 
L 32.375 0 
L 32.375 24.078125 
L 12.890625 24.078125 
L 12.890625 0 
L 5.671875 0 
L 5.671875 52.828125 
z
" id="LiberationSansNarrow-1085"/>
       <path d="M 11.03125 26.65625 
Q 11.03125 22.125 11.5625 18.3125 
Q 12.109375 14.5 13.375 11.734375 
Q 14.65625 8.984375 16.75 7.46875 
Q 18.84375 5.953125 21.96875 5.953125 
Q 25.828125 5.953125 28.390625 8.484375 
Q 30.953125 11.03125 31.546875 16.3125 
L 38.875 15.71875 
Q 38.53125 12.453125 37.296875 9.421875 
Q 36.078125 6.390625 34.03125 4.09375 
Q 31.984375 1.8125 29 0.40625 
Q 26.03125 -0.984375 22.171875 -0.984375 
Q 17.09375 -0.984375 13.5 1.109375 
Q 9.90625 3.21875 7.6875 6.90625 
Q 5.46875 10.59375 4.46875 15.59375 
Q 3.46875 20.609375 3.46875 26.46875 
Q 3.46875 31.78125 4.203125 35.859375 
Q 4.9375 39.9375 6.21875 42.984375 
Q 7.515625 46.046875 9.265625 48.125 
Q 11.03125 50.203125 13.109375 51.4375 
Q 15.1875 52.6875 17.453125 53.25 
Q 19.734375 53.8125 22.078125 53.8125 
Q 25.734375 53.8125 28.5625 52.59375 
Q 31.390625 51.375 33.46875 49.25 
Q 35.546875 47.125 36.8125 44.234375 
Q 38.09375 41.359375 38.625 38.03125 
L 31.203125 37.359375 
Q 30.671875 41.75 28.375 44.328125 
Q 26.078125 46.921875 21.875 46.921875 
Q 18.796875 46.921875 16.71875 45.671875 
Q 14.65625 44.4375 13.375 41.921875 
Q 12.109375 39.40625 11.5625 35.59375 
Q 11.03125 31.78125 11.03125 26.65625 
z
" id="LiberationSansNarrow-1089"/>
       <path d="M 1.421875 52.828125 
L 36.140625 52.828125 
L 36.140625 46.4375 
L 22.359375 46.4375 
L 22.359375 0 
L 15.1875 0 
L 15.1875 46.4375 
L 1.421875 46.4375 
z
" id="LiberationSansNarrow-1090"/>
       <path d="M 22.75 30.46875 
Q 30.953125 30.46875 35.15625 26.875 
Q 39.359375 23.296875 39.359375 15.53125 
Q 39.359375 11.921875 38.296875 9.03125 
Q 37.25 6.15625 35.171875 4.15625 
Q 33.109375 2.15625 30 1.078125 
Q 26.90625 0 22.796875 0 
L 5.671875 0 
L 5.671875 52.828125 
L 12.890625 52.828125 
L 12.890625 30.46875 
z
M 12.890625 6.203125 
L 21.6875 6.203125 
Q 24.46875 6.203125 26.390625 6.8125 
Q 28.328125 7.421875 29.5 8.609375 
Q 30.671875 9.8125 31.171875 11.546875 
Q 31.6875 13.28125 31.6875 15.53125 
Q 31.6875 20.125 29.359375 22.234375 
Q 27.046875 24.359375 21.734375 24.359375 
L 12.890625 24.359375 
z
" id="LiberationSansNarrow-1100"/>
       <path d="M 15.4375 10.6875 
L 15.4375 2.484375 
Q 15.4375 -0.09375 15.265625 -2.21875 
Q 15.09375 -4.34375 14.671875 -6.171875 
Q 14.265625 -8.015625 13.671875 -9.625 
Q 13.09375 -11.234375 12.3125 -12.796875 
L 7.375 -12.796875 
Q 9.1875 -9.625 10.15625 -6.390625 
Q 11.140625 -3.171875 11.140625 0 
L 7.625 0 
L 7.625 10.6875 
z
" id="LiberationSansNarrow-44"/>
       <path id="LiberationSansNarrow-32"/>
       <path d="M 69.96875 21.1875 
Q 69.96875 15.09375 68.9375 10.90625 
Q 67.921875 6.734375 66.1875 4.171875 
Q 64.453125 1.609375 62.125 0.5 
Q 59.8125 -0.59375 57.171875 -0.59375 
Q 54.546875 -0.59375 52.21875 0.5 
Q 49.90625 1.609375 48.21875 4.140625 
Q 46.53125 6.6875 45.546875 10.859375 
Q 44.578125 15.046875 44.578125 21.1875 
Q 44.578125 27.6875 45.53125 31.9375 
Q 46.484375 36.1875 48.1875 38.703125 
Q 49.90625 41.21875 52.25 42.21875 
Q 54.59375 43.21875 57.328125 43.21875 
Q 59.96875 43.21875 62.25 42.21875 
Q 64.546875 41.21875 66.25 38.703125 
Q 67.96875 36.1875 68.96875 31.9375 
Q 69.96875 27.6875 69.96875 21.1875 
z
M 21.09375 0 
L 14.890625 0 
L 51.8125 68.796875 
L 58.109375 68.796875 
z
M 15.765625 69.390625 
Q 18.3125 69.390625 20.609375 68.390625 
Q 22.90625 67.390625 24.609375 64.890625 
Q 26.3125 62.40625 27.3125 58.203125 
Q 28.328125 54 28.328125 47.609375 
Q 28.328125 41.453125 27.3125 37.25 
Q 26.3125 33.0625 24.609375 30.4375 
Q 22.90625 27.828125 20.578125 26.703125 
Q 18.265625 25.59375 15.625 25.59375 
Q 12.9375 25.59375 10.609375 26.703125 
Q 8.296875 27.828125 6.59375 30.421875 
Q 4.890625 33.015625 3.90625 37.203125 
Q 2.9375 41.40625 2.9375 47.609375 
Q 2.9375 54 3.90625 58.203125 
Q 4.890625 62.40625 6.609375 64.890625 
Q 8.34375 67.390625 10.6875 68.390625 
Q 13.03125 69.390625 15.765625 69.390625 
z
M 64.0625 21.1875 
Q 64.0625 26.03125 63.625 29.21875 
Q 63.1875 32.421875 62.328125 34.328125 
Q 61.46875 36.234375 60.203125 37.015625 
Q 58.9375 37.796875 57.328125 37.796875 
Q 55.671875 37.796875 54.375 36.984375 
Q 53.078125 36.1875 52.1875 34.28125 
Q 51.3125 32.375 50.875 29.171875 
Q 50.4375 25.984375 50.4375 21.1875 
Q 50.4375 16.546875 50.90625 13.421875 
Q 51.375 10.296875 52.21875 8.375 
Q 53.078125 6.453125 54.34375 5.609375 
Q 55.609375 4.78125 57.234375 4.78125 
Q 58.796875 4.78125 60.0625 5.609375 
Q 61.328125 6.453125 62.203125 8.375 
Q 63.09375 10.296875 63.578125 13.421875 
Q 64.0625 16.546875 64.0625 21.1875 
z
M 22.40625 47.609375 
Q 22.40625 52.390625 21.96875 55.5625 
Q 21.53125 58.734375 20.703125 60.640625 
Q 19.875 62.546875 18.625 63.328125 
Q 17.390625 64.109375 15.765625 64.109375 
Q 14.0625 64.109375 12.734375 63.296875 
Q 11.421875 62.5 10.546875 60.59375 
Q 9.671875 58.6875 9.234375 55.515625 
Q 8.796875 52.34375 8.796875 47.609375 
Q 8.796875 42.96875 9.25 39.796875 
Q 9.71875 36.625 10.5625 34.6875 
Q 11.421875 32.765625 12.71875 31.9375 
Q 14.015625 31.109375 15.671875 31.109375 
Q 17.1875 31.109375 18.421875 31.9375 
Q 19.671875 32.765625 20.546875 34.6875 
Q 21.4375 36.625 21.921875 39.796875 
Q 22.40625 42.96875 22.40625 47.609375 
z
" id="LiberationSansNarrow-37"/>
       <path d="M 27.546875 52.828125 
L 27.546875 46.4375 
L 12.890625 46.4375 
L 12.890625 0 
L 5.71875 0 
L 5.71875 52.828125 
z
" id="LiberationSansNarrow-1075"/>
      </defs>
      <use xlink:href="#LiberationSansNarrow-1076"/>
      <use x="47.802734" xlink:href="#LiberationSansNarrow-1086"/>
      <use x="92.283203" xlink:href="#LiberationSansNarrow-1093"/>
      <use x="132.173828" xlink:href="#LiberationSansNarrow-1086"/>
      <use x="175.529297" xlink:href="#LiberationSansNarrow-1076"/>
      <use x="223.332031" xlink:href="#LiberationSansNarrow-1085"/>
      <use x="268.595703" xlink:href="#LiberationSansNarrow-1086"/>
      <use x="314.201172" xlink:href="#LiberationSansNarrow-1089"/>
      <use x="355.216797" xlink:href="#LiberationSansNarrow-1090"/>
      <use x="392.765625" xlink:href="#LiberationSansNarrow-1100"/>
      <use x="435.490234" xlink:href="#LiberationSansNarrow-44"/>
      <use x="458.292969" xlink:href="#LiberationSansNarrow-32"/>
      <use x="481.095703" xlink:href="#LiberationSansNarrow-37"/>
      <use x="553.996094" xlink:href="#LiberationSansNarrow-1075"/>
     </g>
    </g>
   </g>
   <g id="matplotlib.axis_2">
    <g id="ytick_1">
     <g id="line2d_12">
      <path clip-path="url(#p067a35bddb)" d="M 62.12 234.52 
L 531.56 234.52 
" style="fill:none;stroke:#b0b0b0;stroke-dasharray:1.48,0.64;stroke-dashoffset:0;stroke-width:0.4;"/>
     </g>
     <g id="line2d_13">
      <defs>
       <path d="M 0 0 
L -3.5 0 
" id="mf29a136110" style="stroke:#000000;stroke-width:0.8;"/>
      </defs>
      <g>
       <use style="stroke:#000000;stroke-width:0.8;" x="62.12" xlink:href="#mf29a136110" y="234.52"/>
      </g>
     </g>
     <g id="text_13">
      <!-- 0.00 -->
      <g transform="translate(32.7725 239.592813)scale(0.14 -0.14)">
       <defs>
        <path d="M 7.46875 0 
L 7.46875 10.6875 
L 15.328125 10.6875 
L 15.328125 0 
z
" id="LiberationSansNarrow-46"/>
       </defs>
       <use xlink:href="#LiberationSansNarrow-48"/>
       <use x="45.605469" xlink:href="#LiberationSansNarrow-46"/>
       <use x="68.408203" xlink:href="#LiberationSansNarrow-48"/>
       <use x="114.013672" xlink:href="#LiberationSansNarrow-48"/>
      </g>
     </g>
    </g>
    <g id="ytick_2">
     <g id="line2d_14">
      <path clip-path="url(#p067a35bddb)" d="M 62.12 181.02 
L 531.56 181.02 
" style="fill:none;stroke:#b0b0b0;stroke-dasharray:1.48,0.64;stroke-dashoffset:0;stroke-width:0.4;"/>
     </g>
     <g id="line2d_15">
      <g>
       <use style="stroke:#000000;stroke-width:0.8;" x="62.12" xlink:href="#mf29a136110" y="181.02"/>
      </g>
     </g>
     <g id="text_14">
      <!-- 0.84 -->
      <g transform="translate(32.7725 186.092813)scale(0.14 -0.14)">
       <use xlink:href="#LiberationSansNarrow-48"/>
       <use x="45.605469" xlink:href="#LiberationSansNarrow-46"/>
       <use x="68.408203" xlink:href="#LiberationSansNarrow-56"/>
       <use x="114.013672" xlink:href="#LiberationSansNarrow-52"/>
      </g>
     </g>
    </g>
    <g id="ytick_3">
     <g id="line2d_16">
      <path clip-path="url(#p067a35bddb)" d="M 62.12 127.52 
L 531.56 127.52 
" style="fill:none;stroke:#b0b0b0;stroke-dasharray:1.48,0.64;stroke-dashoffset:0;stroke-width:0.4;"/>
     </g>
     <g id="line2d_17">
      <g>
       <use style="stroke:#000000;stroke-width:0.8;" x="62.12" xlink:href="#mf29a136110" y="127.52"/>
      </g>
     </g>
     <g id="text_15">
      <!-- 1.68 -->
      <g transform="translate(32.7725 132.592813)scale(0.14 -0.14)">
       <use xlink:href="#LiberationSansNarrow-49"/>
       <use x="45.605469" xlink:href="#LiberationSansNarrow-46"/>
       <use x="68.408203" xlink:href="#LiberationSansNarrow-54"/>
       <use x="114.013672" xlink:href="#LiberationSansNarrow-56"/>
      </g>
     </g>
    </g>
    <g id="ytick_4">
     <g id="line2d_18">
      <path clip-path="url(#p067a35bddb)" d="M 62.12 74.02 
L 531.56 74.02 
" style="fill:none;stroke:#b0b0b0;stroke-dasharray:1.48,0.64;stroke-dashoffset:0;stroke-width:0.4;"/>
     </g>
     <g id="line2d_19">
      <g>
       <use style="stroke:#000000;stroke-width:0.8;" x="62.12" xlink:href="#mf29a136110" y="74.02"/>
      </g>
     </g>
     <g id="text_16">
      <!-- 2.51 -->
      <g transform="translate(32.7725 79.092812)scale(0.14 -0.14)">
       <defs>
        <path d="M 42.140625 22.40625 
Q 42.140625 17.234375 40.859375 12.9375 
Q 39.59375 8.640625 37.078125 5.53125 
Q 34.578125 2.4375 30.8125 0.71875 
Q 27.046875 -0.984375 22.125 -0.984375 
Q 17.671875 -0.984375 14.375 0.28125 
Q 11.078125 1.5625 8.8125 3.78125 
Q 6.546875 6 5.203125 8.984375 
Q 3.859375 11.96875 3.265625 15.375 
L 10.546875 16.40625 
Q 10.984375 14.453125 11.78125 12.625 
Q 12.59375 10.796875 13.984375 9.34375 
Q 15.375 7.90625 17.40625 7.046875 
Q 19.4375 6.203125 22.3125 6.203125 
Q 25.09375 6.203125 27.390625 7.25 
Q 29.6875 8.296875 31.296875 10.34375 
Q 32.90625 12.40625 33.78125 15.375 
Q 34.671875 18.359375 34.671875 22.21875 
Q 34.671875 25.390625 33.84375 28.046875 
Q 33.015625 30.71875 31.453125 32.640625 
Q 29.890625 34.578125 27.609375 35.640625 
Q 25.34375 36.71875 22.46875 36.71875 
Q 20.65625 36.71875 19.140625 36.328125 
Q 17.625 35.9375 16.328125 35.25 
Q 15.046875 34.578125 13.96875 33.671875 
Q 12.890625 32.765625 11.96875 31.78125 
L 4.9375 31.78125 
L 6.78125 68.796875 
L 38.875 68.796875 
L 38.875 61.328125 
L 13.375 61.328125 
L 12.3125 39.5 
Q 14.203125 41.3125 17.078125 42.59375 
Q 19.96875 43.890625 23.921875 43.890625 
Q 28.125 43.890625 31.484375 42.328125 
Q 34.859375 40.765625 37.21875 37.90625 
Q 39.59375 35.0625 40.859375 31.109375 
Q 42.140625 27.15625 42.140625 22.40625 
z
" id="LiberationSansNarrow-53"/>
       </defs>
       <use xlink:href="#LiberationSansNarrow-50"/>
       <use x="45.605469" xlink:href="#LiberationSansNarrow-46"/>
       <use x="68.408203" xlink:href="#LiberationSansNarrow-53"/>
       <use x="114.013672" xlink:href="#LiberationSansNarrow-49"/>
      </g>
     </g>
    </g>
    <g id="ytick_5">
     <g id="line2d_20">
      <path clip-path="url(#p067a35bddb)" d="M 62.12 20.52 
L 531.56 20.52 
" style="fill:none;stroke:#b0b0b0;stroke-dasharray:1.48,0.64;stroke-dashoffset:0;stroke-width:0.4;"/>
     </g>
     <g id="line2d_21">
      <g>
       <use style="stroke:#000000;stroke-width:0.8;" x="62.12" xlink:href="#mf29a136110" y="20.52"/>
      </g>
     </g>
     <g id="text_17">
      <!-- 3.35 -->
      <g transform="translate(32.7725 25.592812)scale(0.14 -0.14)">
       <defs>
        <path d="M 42 19 
Q 42 14.265625 40.75 10.546875 
Q 39.5 6.84375 37.0625 4.265625 
Q 34.625 1.703125 31.046875 0.359375 
Q 27.484375 -0.984375 22.859375 -0.984375 
Q 17.625 -0.984375 14.03125 0.609375 
Q 10.453125 2.203125 8.125 4.8125 
Q 5.8125 7.421875 4.640625 10.765625 
Q 3.46875 14.109375 3.125 17.671875 
L 10.546875 18.5 
Q 10.890625 15.765625 11.734375 13.515625 
Q 12.59375 11.28125 14.078125 9.671875 
Q 15.578125 8.0625 17.75 7.171875 
Q 19.921875 6.296875 22.859375 6.296875 
Q 28.328125 6.296875 31.421875 9.5625 
Q 34.515625 12.84375 34.515625 19.28125 
Q 34.515625 23.09375 33.125 25.40625 
Q 31.734375 27.734375 29.6875 29.03125 
Q 27.640625 30.328125 25.21875 30.765625 
Q 22.796875 31.203125 20.75 31.203125 
L 16.65625 31.203125 
L 16.65625 38.8125 
L 20.5625 38.8125 
Q 22.609375 38.8125 24.828125 39.328125 
Q 27.046875 39.84375 28.859375 41.1875 
Q 30.671875 42.53125 31.859375 44.828125 
Q 33.0625 47.125 33.0625 50.6875 
Q 33.0625 56.203125 30.375 59.390625 
Q 27.6875 62.59375 22.46875 62.59375 
Q 17.671875 62.59375 14.734375 59.609375 
Q 11.8125 56.640625 11.328125 51.21875 
L 4.109375 51.90625 
Q 4.546875 56.453125 6.125 59.8125 
Q 7.71875 63.1875 10.171875 65.40625 
Q 12.640625 67.625 15.8125 68.71875 
Q 19 69.828125 22.5625 69.828125 
Q 27.296875 69.828125 30.6875 68.375 
Q 34.078125 66.9375 36.21875 64.46875 
Q 38.375 62.015625 39.40625 58.6875 
Q 40.4375 55.375 40.4375 51.609375 
Q 40.4375 48.578125 39.75 45.9375 
Q 39.0625 43.3125 37.625 41.203125 
Q 36.1875 39.109375 33.953125 37.59375 
Q 31.734375 36.078125 28.609375 35.296875 
L 28.609375 35.109375 
Q 32.03125 34.671875 34.546875 33.21875 
Q 37.0625 31.78125 38.71875 29.625 
Q 40.375 27.484375 41.1875 24.75 
Q 42 22.015625 42 19 
z
" id="LiberationSansNarrow-51"/>
       </defs>
       <use xlink:href="#LiberationSansNarrow-51"/>
       <use x="45.605469" xlink:href="#LiberationSansNarrow-46"/>
       <use x="68.408203" xlink:href="#LiberationSansNarrow-51"/>
       <use x="114.013672" xlink:href="#LiberationSansNarrow-53"/>
      </g>
     </g>
    </g>
    <g id="text_18">
     <!-- плотность вероятности -->
     <g transform="translate(25.8675 189.5225)rotate(-90)scale(0.14 -0.14)">
      <defs>
       <path d="M 38.71875 52.828125 
L 38.71875 0 
L 31.546875 0 
L 31.546875 46.4375 
L 12.890625 46.4375 
L 12.890625 0 
L 5.71875 0 
L 5.71875 52.828125 
z
" id="LiberationSansNarrow-1087"/>
       <path d="M 34.859375 0 
L 34.859375 46.4375 
L 19.875 46.4375 
Q 18.890625 37.453125 18.03125 30.4375 
Q 17.1875 23.4375 16.3125 18.15625 
Q 15.4375 12.890625 14.40625 9.25 
Q 13.375 5.609375 11.953125 3.34375 
Q 10.546875 1.078125 8.65625 0.046875 
Q 6.78125 -0.984375 4.203125 -0.984375 
Q 3.03125 -0.984375 2.078125 -0.78125 
Q 1.125 -0.59375 0.4375 -0.34375 
L 0.4375 5.953125 
Q 0.875 5.765625 1.625 5.640625 
Q 2.390625 5.515625 3.171875 5.515625 
Q 4.59375 5.515625 5.59375 6.53125 
Q 6.59375 7.5625 7.390625 9.859375 
Q 8.203125 12.15625 8.859375 15.796875 
Q 9.515625 19.4375 10.203125 24.703125 
Q 10.890625 29.984375 11.625 36.921875 
L 13.375 52.828125 
L 42.140625 52.828125 
L 42.140625 0 
z
" id="LiberationSansNarrow-1083"/>
       <path d="M 22.5625 52.828125 
Q 25.59375 52.828125 28.484375 52.234375 
Q 31.390625 51.65625 33.640625 50.140625 
Q 35.890625 48.640625 37.234375 46.09375 
Q 38.578125 43.5625 38.578125 39.59375 
Q 38.578125 37.015625 37.890625 35.03125 
Q 37.203125 33.0625 35.984375 31.640625 
Q 34.765625 30.21875 33.125 29.3125 
Q 31.5 28.421875 29.6875 27.984375 
L 29.6875 27.640625 
Q 31.84375 27.296875 33.734375 26.4375 
Q 35.640625 25.59375 37 24.09375 
Q 38.375 22.609375 39.171875 20.40625 
Q 39.984375 18.21875 39.984375 15.234375 
Q 39.984375 11.421875 38.765625 8.5625 
Q 37.546875 5.71875 35.375 3.8125 
Q 33.203125 1.90625 30.171875 0.953125 
Q 27.15625 0 23.484375 0 
L 5.671875 0 
L 5.671875 52.828125 
z
M 12.890625 6.5 
L 22.3125 6.5 
Q 25.09375 6.5 27 6.984375 
Q 28.90625 7.46875 30.078125 8.546875 
Q 31.25 9.625 31.78125 11.25 
Q 32.328125 12.890625 32.328125 15.1875 
Q 32.328125 17.625 31.765625 19.328125 
Q 31.203125 21.046875 29.953125 22.109375 
Q 28.71875 23.1875 26.703125 23.671875 
Q 24.703125 24.171875 21.875 24.171875 
L 12.890625 24.171875 
z
M 12.890625 46.140625 
L 12.890625 30.515625 
L 21.53125 30.515625 
Q 24.265625 30.515625 26.0625 30.984375 
Q 27.875 31.453125 29 32.390625 
Q 30.125 33.34375 30.5625 34.828125 
Q 31 36.328125 31 38.421875 
Q 31 42.4375 28.96875 44.28125 
Q 26.953125 46.140625 22.125 46.140625 
z
" id="LiberationSansNarrow-1074"/>
       <path d="M 10.6875 24.5625 
Q 10.6875 20.40625 11.5625 16.90625 
Q 12.453125 13.421875 13.90625 10.90625 
Q 15.375 8.40625 17.640625 7 
Q 19.921875 5.609375 23.140625 5.609375 
Q 27.828125 5.609375 30.65625 7.90625 
Q 33.5 10.203125 34.46875 13.71875 
L 40.828125 11.53125 
Q 40.140625 9.328125 38.921875 7.109375 
Q 37.703125 4.890625 35.640625 3.09375 
Q 33.59375 1.3125 30.53125 0.15625 
Q 27.484375 -0.984375 23.140625 -0.984375 
Q 13.53125 -0.984375 8.5 6 
Q 3.46875 12.984375 3.46875 26.765625 
Q 3.46875 34.1875 5 39.328125 
Q 6.546875 44.484375 9.171875 47.703125 
Q 11.8125 50.921875 15.328125 52.359375 
Q 18.84375 53.8125 22.859375 53.8125 
Q 28.328125 53.8125 31.984375 51.65625 
Q 39.0625 47.515625 41.015625 36.8125 
Q 41.9375 31.6875 41.9375 25.734375 
L 41.9375 24.5625 
z
M 34.71875 31.296875 
Q 34.71875 40.140625 31.421875 43.71875 
Q 28.125 47.3125 22.75 47.3125 
Q 18.953125 47.3125 15.328125 44.09375 
Q 10.9375 40.328125 10.6875 31.296875 
z
" id="LiberationSansNarrow-1077"/>
       <path d="M 42.140625 26.65625 
Q 42.140625 20.65625 41.359375 15.578125 
Q 40.578125 10.5 38.6875 6.828125 
Q 36.8125 3.171875 33.765625 1.09375 
Q 30.71875 -0.984375 26.21875 -0.984375 
Q 21.578125 -0.984375 18.078125 1.171875 
Q 14.59375 3.328125 12.796875 8.203125 
L 12.546875 8.203125 
Q 12.59375 8.109375 12.609375 7.328125 
Q 12.640625 6.546875 12.671875 5.375 
Q 12.703125 4.203125 12.71875 2.75 
Q 12.75 1.3125 12.75 -0.09375 
L 12.75 -20.75 
L 5.515625 -20.75 
L 5.515625 42.046875 
Q 5.515625 43.953125 5.484375 45.703125 
Q 5.46875 47.46875 5.4375 48.90625 
Q 5.421875 50.34375 5.375 51.359375 
Q 5.328125 52.390625 5.28125 52.828125 
L 12.25 52.828125 
Q 12.3125 52.6875 12.359375 51.8125 
L 12.5 49.703125 
Q 12.546875 48.4375 12.59375 47.015625 
Q 12.640625 45.609375 12.640625 44.34375 
L 12.796875 44.34375 
Q 13.765625 46.875 15.0625 48.65625 
Q 16.359375 50.4375 18.015625 51.578125 
Q 19.671875 52.734375 21.671875 53.25 
Q 23.6875 53.765625 26.21875 53.765625 
Q 30.71875 53.765625 33.765625 51.8125 
Q 36.8125 49.859375 38.6875 46.3125 
Q 40.578125 42.78125 41.359375 37.765625 
Q 42.140625 32.765625 42.140625 26.65625 
z
M 34.578125 26.46875 
Q 34.578125 31.34375 34.109375 35.15625 
Q 33.640625 38.96875 32.4375 41.59375 
Q 31.25 44.234375 29.296875 45.59375 
Q 27.34375 46.96875 24.359375 46.96875 
Q 21.96875 46.96875 19.84375 46.140625 
Q 17.71875 45.3125 16.125 42.96875 
Q 14.546875 40.625 13.640625 36.5 
Q 12.75 32.375 12.75 25.78125 
Q 12.75 20.171875 13.5 16.28125 
Q 14.265625 12.40625 15.71875 10.015625 
Q 17.1875 7.625 19.328125 6.5625 
Q 21.484375 5.515625 24.3125 5.515625 
Q 27.34375 5.515625 29.296875 6.921875 
Q 31.25 8.34375 32.4375 11.03125 
Q 33.640625 13.71875 34.109375 17.59375 
Q 34.578125 21.484375 34.578125 26.46875 
z
" id="LiberationSansNarrow-1088"/>
       <path d="M 21.4375 22.359375 
L 8.84375 0 
L 0.6875 0 
L 14.453125 23 
Q 9.234375 24.3125 6.859375 28.296875 
Q 4.5 32.28125 4.5 38.234375 
Q 4.5 45.515625 8.8125 49.171875 
Q 13.140625 52.828125 21.4375 52.828125 
L 38.71875 52.828125 
L 38.71875 0 
L 31.546875 0 
L 31.546875 22.359375 
z
M 31.546875 46.625 
L 22.171875 46.625 
Q 16.9375 46.625 14.546875 44.375 
Q 12.15625 42.140625 12.15625 37.59375 
Q 12.15625 33.015625 14.28125 30.734375 
Q 16.40625 28.46875 21.390625 28.46875 
L 31.546875 28.46875 
z
" id="LiberationSansNarrow-1103"/>
       <path d="M 12.640625 52.828125 
L 12.640625 23.921875 
Q 12.640625 22.796875 12.59375 20.921875 
Q 12.546875 19.046875 12.46875 17.046875 
Q 12.40625 15.046875 12.359375 13.234375 
Q 12.3125 11.421875 12.25 10.40625 
L 32.28125 52.828125 
L 40.140625 52.828125 
L 40.140625 0 
L 33.25 0 
L 33.25 32.234375 
Q 33.25 33.15625 33.296875 34.578125 
L 33.40625 37.40625 
Q 33.453125 38.875 33.5 40.234375 
L 33.640625 42.625 
L 13.375 0 
L 5.71875 0 
L 5.71875 52.828125 
z
" id="LiberationSansNarrow-1080"/>
      </defs>
      <use xlink:href="#LiberationSansNarrow-1087"/>
      <use x="44.433594" xlink:href="#LiberationSansNarrow-1083"/>
      <use x="93.361328" xlink:href="#LiberationSansNarrow-1086"/>
      <use x="136.716797" xlink:href="#LiberationSansNarrow-1090"/>
      <use x="174.265625" xlink:href="#LiberationSansNarrow-1085"/>
      <use x="219.529297" xlink:href="#LiberationSansNarrow-1086"/>
      <use x="265.134766" xlink:href="#LiberationSansNarrow-1089"/>
      <use x="306.150391" xlink:href="#LiberationSansNarrow-1090"/>
      <use x="343.699219" xlink:href="#LiberationSansNarrow-1100"/>
      <use x="386.423828" xlink:href="#LiberationSansNarrow-32"/>
      <use x="409.226562" xlink:href="#LiberationSansNarrow-1074"/>
      <use x="451.65625" xlink:href="#LiberationSansNarrow-1077"/>
      <use x="497.261719" xlink:href="#LiberationSansNarrow-1088"/>
      <use x="542.867188" xlink:href="#LiberationSansNarrow-1086"/>
      <use x="588.472656" xlink:href="#LiberationSansNarrow-1103"/>
      <use x="632.90625" xlink:href="#LiberationSansNarrow-1090"/>
      <use x="670.455078" xlink:href="#LiberationSansNarrow-1085"/>
      <use x="715.71875" xlink:href="#LiberationSansNarrow-1086"/>
      <use x="761.324219" xlink:href="#LiberationSansNarrow-1089"/>
      <use x="802.339844" xlink:href="#LiberationSansNarrow-1090"/>
      <use x="839.888672" xlink:href="#LiberationSansNarrow-1080"/>
     </g>
    </g>
   </g>
   <g id="line2d_22">
    <path clip-path="url(#p067a35bddb)" d="M 83.458182 234.302854 
L 85.001092 234.271452 
L 86.571899 234.235454 
L 88.171108 234.194178 
L 89.799232 234.146843 
L 91.456795 234.092546 
L 93.144328 234.030253 
L 94.862373 233.958771 
L 96.611483 233.87673 
L 98.392218 233.782552 
L 100.20515 233.674422 
L 102.050863 233.550253 
L 103.929948 233.40764 
L 105.843008 233.24382 
L 107.790659 233.055612 
L 109.773525 232.839358 
L 111.792243 232.590851 
L 113.847462 232.305255 
L 115.939842 231.977013 
L 118.070053 231.599741 
L 120.238782 231.166115 
L 122.446723 230.66773 
L 124.694586 230.094961 
L 126.983092 229.436789 
L 129.312978 228.68062 
L 131.684989 227.812088 
L 134.09989 226.814833 
L 136.558454 225.670274 
L 139.061472 224.357367 
L 141.609746 222.852366 
L 144.204097 221.128587 
L 146.845355 219.156206 
L 149.534371 216.902103 
L 152.272007 214.329784 
L 155.059141 211.399445 
L 157.896671 208.068207 
L 160.785505 204.290634 
L 163.726573 200.019611 
L 166.720818 195.207721 
L 169.769203 189.809272 
L 172.872705 183.783143 
L 176.032322 177.096654 
L 179.249068 169.730635 
L 182.523976 161.68584 
L 185.858097 152.99075 
L 189.252504 143.710629 
L 192.708284 133.957372 
L 196.226549 123.899263 
L 199.808427 113.769158 
L 203.45507 103.868986 
L 207.167647 94.567839 
L 210.947352 86.290715 
L 214.795398 79.495417 
L 218.71302 74.636642 
L 222.701477 72.119005 
L 226.76205 72.244453 
L 230.896042 75.163031 
L 235.10478 80.838019 
L 239.389617 89.035339 
L 243.751929 99.34243 
L 248.193115 111.214591 
L 252.714603 124.039574 
L 257.317844 137.206869 
L 262.004316 150.168128 
L 266.775524 162.479225 
L 271.633001 173.820367 
L 276.578306 183.996209 
L 281.613027 192.921373 
L 286.738782 200.597909 
L 291.957215 207.090423 
L 297.270003 212.502963 
L 302.678851 216.959887 
L 308.185497 220.591503 
L 313.791709 223.524227 
L 319.499287 225.874568 
L 325.310064 227.746012 
L 331.225906 229.22797 
L 337.248712 230.396048 
L 343.380417 231.3131 
L 349.622989 232.030676 
L 355.978434 232.590587 
L 362.448792 233.026438 
L 369.03614 233.365041 
L 375.742594 233.627652 
L 382.570308 233.831041 
L 389.521475 233.98838 
L 396.598325 234.109976 
L 403.803132 234.203876 
L 411.13821 234.276339 
L 418.605913 234.332231 
L 426.20864 234.375324 
L 433.948833 234.408536 
L 441.828976 234.434129 
L 449.8516 234.453845 
L 458.019281 234.469033 
L 466.334643 234.480732 
L 474.800355 234.489743 
L 483.419136 234.496684 
L 492.193753 234.502031 
L 501.127024 234.506149 
L 510.221818 234.509322 
" style="fill:none;stroke:#ff7f0e;stroke-linecap:square;stroke-width:1.5;"/>
   </g>
   <g id="line2d_23">
    <path clip-path="url(#p067a35bddb)" d="M 215.852429 234.52 
L 215.852429 42.996017 
" style="fill:none;stroke:#000000;stroke-dasharray:3.7,1.6;stroke-dashoffset:0;"/>
   </g>
  </g>
  <g id="axes_2">
   <g id="PolyCollection_1">
    <defs>
     <path d="M 83.458182 -68.515015 
L 83.458182 -53.48 
L 85.105095 -53.48 
L 86.783794 -53.48 
L 88.494891 -53.48 
L 90.239012 -53.48 
L 92.016794 -53.48 
L 93.828887 -53.48 
L 95.675953 -53.48 
L 97.558667 -53.48 
L 99.477717 -53.48 
L 101.433805 -53.48 
L 103.427645 -53.48 
L 105.459965 -53.48 
L 107.531509 -53.48 
L 109.643033 -53.48 
L 111.79531 -53.48 
L 113.989125 -53.48 
L 116.22528 -53.48 
L 118.504593 -53.48 
L 120.827896 -53.48 
L 123.196038 -53.48 
L 125.609885 -53.48 
L 128.070319 -53.48 
L 130.578239 -53.48 
L 133.134561 -53.48 
L 135.74022 -53.48 
L 138.396168 -53.48 
L 141.103375 -53.48 
L 143.86283 -53.48 
L 146.675543 -53.48 
L 149.54254 -53.48 
L 152.464871 -53.48 
L 155.443601 -53.48 
L 158.479821 -53.48 
L 161.574639 -53.48 
L 164.729186 -53.48 
L 167.944616 -53.48 
L 171.222103 -53.48 
L 174.562845 -53.48 
L 177.968062 -53.48 
L 181.439 -53.48 
L 184.976926 -53.48 
L 188.583134 -53.48 
L 192.258941 -53.48 
L 196.00569 -53.48 
L 199.824751 -53.48 
L 203.717519 -53.48 
L 207.685417 -53.48 
L 211.729894 -53.48 
L 215.852429 -53.48 
L 215.852429 -53.48 
L 215.852429 -53.48 
L 211.729894 -57.798646 
L 207.685417 -69.763595 
L 203.717519 -87.567528 
L 199.824751 -109.215809 
L 196.00569 -132.776292 
L 192.258941 -156.551345 
L 188.583134 -179.171917 
L 184.976926 -199.627241 
L 181.439 -217.249006 
L 177.968062 -231.668245 
L 174.562845 -242.759691 
L 171.222103 -250.583981 
L 167.944616 -255.33412 
L 164.729186 -257.289524 
L 161.574639 -256.778776 
L 158.479821 -254.150948 
L 155.443601 -249.75456 
L 152.464871 -243.92298 
L 149.54254 -236.964978 
L 146.675543 -229.159281 
L 143.86283 -220.752083 
L 141.103375 -211.956685 
L 138.396168 -202.954581 
L 135.74022 -193.897484 
L 133.134561 -184.909897 
L 130.578239 -176.091947 
L 128.070319 -167.522285 
L 125.609885 -159.260916 
L 123.196038 -151.351868 
L 120.827896 -143.825656 
L 118.504593 -136.701502 
L 116.22528 -129.98932 
L 113.989125 -123.691454 
L 111.79531 -117.80419 
L 109.643033 -112.319053 
L 107.531509 -107.223918 
L 105.459965 -102.503934 
L 103.427645 -98.142311 
L 101.433805 -94.120962 
L 99.477717 -90.421029 
L 97.558667 -87.02331 
L 95.675953 -83.908601 
L 93.828887 -81.057967 
L 92.016794 -78.452941 
L 90.239012 -76.075688 
L 88.494891 -73.90911 
L 86.783794 -71.93693 
L 85.105095 -70.143738 
L 83.458182 -68.515015 
z
" id="m0b5b5e6853" style="stroke:#1f77b4;stroke-opacity:0.3;"/>
    </defs>
    <g clip-path="url(#p067a35bddb)">
     <use style="fill:#1f77b4;fill-opacity:0.3;stroke:#1f77b4;stroke-opacity:0.3;" x="0" xlink:href="#m0b5b5e6853" y="288"/>
    </g>
   </g>
   <g id="matplotlib.axis_3">
    <g id="ytick_6">
     <g id="line2d_24">
      <defs>
       <path d="M 0 0 
L 3.5 0 
" id="md78f079f1f" style="stroke:#000000;stroke-width:0.8;"/>
      </defs>
      <g>
       <use style="stroke:#000000;stroke-width:0.8;" x="531.56" xlink:href="#md78f079f1f" y="234.52"/>
      </g>
     </g>
     <g id="text_19">
      <!-- 0.00 -->
      <g transform="translate(538.56 239.592813)scale(0.14 -0.14)">
       <use xlink:href="#LiberationSansNarrow-48"/>
       <use x="45.605469" xlink:href="#LiberationSansNarrow-46"/>
       <use x="68.408203" xlink:href="#LiberationSansNarrow-48"/>
       <use x="114.013672" xlink:href="#LiberationSansNarrow-48"/>
      </g>
     </g>
    </g>
    <g id="ytick_7">
     <g id="line2d_25">
      <g>
       <use style="stroke:#000000;stroke-width:0.8;" x="531.56" xlink:href="#md78f079f1f" y="181.02"/>
      </g>
     </g>
     <g id="text_20">
      <!-- 0.01 -->
      <g transform="translate(538.56 186.092813)scale(0.14 -0.14)">
       <use xlink:href="#LiberationSansNarrow-48"/>
       <use x="45.605469" xlink:href="#LiberationSansNarrow-46"/>
       <use x="68.408203" xlink:href="#LiberationSansNarrow-48"/>
       <use x="114.013672" xlink:href="#LiberationSansNarrow-49"/>
      </g>
     </g>
    </g>
    <g id="ytick_8">
     <g id="line2d_26">
      <g>
       <use style="stroke:#000000;stroke-width:0.8;" x="531.56" xlink:href="#md78f079f1f" y="127.52"/>
      </g>
     </g>
     <g id="text_21">
      <!-- 0.02 -->
      <g transform="translate(538.56 132.592813)scale(0.14 -0.14)">
       <use xlink:href="#LiberationSansNarrow-48"/>
       <use x="45.605469" xlink:href="#LiberationSansNarrow-46"/>
       <use x="68.408203" xlink:href="#LiberationSansNarrow-48"/>
       <use x="114.013672" xlink:href="#LiberationSansNarrow-50"/>
      </g>
     </g>
    </g>
    <g id="ytick_9">
     <g id="line2d_27">
      <g>
       <use style="stroke:#000000;stroke-width:0.8;" x="531.56" xlink:href="#md78f079f1f" y="74.02"/>
      </g>
     </g>
     <g id="text_22">
      <!-- 0.03 -->
      <g transform="translate(538.56 79.092812)scale(0.14 -0.14)">
       <use xlink:href="#LiberationSansNarrow-48"/>
       <use x="45.605469" xlink:href="#LiberationSansNarrow-46"/>
       <use x="68.408203" xlink:href="#LiberationSansNarrow-48"/>
       <use x="114.013672" xlink:href="#LiberationSansNarrow-51"/>
      </g>
     </g>
    </g>
    <g id="ytick_10">
     <g id="line2d_28">
      <g>
       <use style="stroke:#000000;stroke-width:0.8;" x="531.56" xlink:href="#md78f079f1f" y="20.52"/>
      </g>
     </g>
     <g id="text_23">
      <!-- 0.04 -->
      <g transform="translate(538.56 25.592812)scale(0.14 -0.14)">
       <use xlink:href="#LiberationSansNarrow-48"/>
       <use x="45.605469" xlink:href="#LiberationSansNarrow-46"/>
       <use x="68.408203" xlink:href="#LiberationSansNarrow-48"/>
       <use x="114.013672" xlink:href="#LiberationSansNarrow-52"/>
      </g>
     </g>
    </g>
   </g>
   <g id="line2d_29">
    <path clip-path="url(#p067a35bddb)" d="M 83.458182 219.484985 
L 85.105095 217.856262 
L 86.783794 216.06307 
L 88.494891 214.09089 
L 90.239012 211.924312 
L 92.016794 209.547059 
L 93.828887 206.942033 
L 95.675953 204.091399 
L 97.558667 200.97669 
L 99.477717 197.578971 
L 101.433805 193.879038 
L 103.427645 189.857689 
L 105.459965 185.496066 
L 107.531509 180.776082 
L 109.643033 175.680947 
L 111.79531 170.19581 
L 113.989125 164.308546 
L 116.22528 158.01068 
L 118.504593 151.298498 
L 120.827896 144.174344 
L 123.196038 136.648132 
L 125.609885 128.739084 
L 128.070319 120.477715 
L 130.578239 111.908053 
L 133.134561 103.090103 
L 135.74022 94.102516 
L 138.396168 85.045419 
L 141.103375 76.043315 
L 143.86283 67.247917 
L 146.675543 58.840719 
L 149.54254 51.035022 
L 152.464871 44.07702 
L 155.443601 38.24544 
L 158.479821 33.849052 
L 161.574639 31.221224 
L 164.729186 30.710476 
L 167.944616 32.66588 
L 171.222103 37.416019 
L 174.562845 45.240309 
L 177.968062 56.331755 
L 181.439 70.750994 
L 184.976926 88.372759 
L 188.583134 108.828083 
L 192.258941 131.448655 
L 196.00569 155.223708 
L 199.824751 178.784191 
L 203.717519 200.432472 
L 207.685417 218.236405 
L 211.729894 230.201354 
L 215.852429 234.52 
" style="fill:none;stroke:#1f77b4;stroke-linecap:square;stroke-width:1.5;"/>
   </g>
   <g id="legend_1">
    <g id="patch_103">
     <path d="M 276.1622 82.616506 
L 523.3966 82.616506 
Q 525.729 82.616506 525.729 80.284106 
L 525.729 28.6834 
Q 525.729 26.351 523.3966 26.351 
L 276.1622 26.351 
Q 273.8298 26.351 273.8298 28.6834 
L 273.8298 80.284106 
Q 273.8298 82.616506 276.1622 82.616506 
z
" style="fill:#ffffff;opacity:0.8;stroke:#cccccc;stroke-linejoin:miter;"/>
    </g>
    <g id="line2d_30">
     <path d="M 278.4946 35.79722 
L 301.8186 35.79722 
" style="fill:none;stroke:#ff7f0e;stroke-linecap:square;stroke-width:1.5;"/>
    </g>
    <g id="line2d_31"/>
    <g id="text_24">
     <!-- прибл. распределение $f(x)$ -->
     <g transform="translate(311.1482 39.87892)scale(0.11662 -0.11662)">
      <defs>
       <path d="M 35.9375 24.515625 
Q 35.9375 30.078125 35.15625 33.765625 
Q 34.375 37.453125 32.9375 39.671875 
Q 31.5 41.890625 29.390625 42.796875 
Q 27.296875 43.703125 24.703125 43.703125 
Q 21.921875 43.703125 19.65625 42.75 
Q 17.390625 41.796875 15.765625 39.546875 
Q 14.15625 37.3125 13.25 33.640625 
Q 12.359375 29.984375 12.359375 24.515625 
Q 12.359375 18.953125 13.25 15.28125 
Q 14.15625 11.625 15.6875 9.453125 
Q 17.234375 7.28125 19.328125 6.390625 
Q 21.4375 5.515625 23.921875 5.515625 
Q 26.703125 5.515625 28.921875 6.390625 
Q 31.15625 7.28125 32.71875 9.421875 
Q 34.28125 11.578125 35.109375 15.265625 
Q 35.9375 18.953125 35.9375 24.515625 
z
M 26.21875 50.140625 
Q 35.109375 50.140625 39.296875 43.765625 
Q 43.5 37.40625 43.5 24.609375 
Q 43.5 11.671875 38.5 5.34375 
Q 33.5 -0.984375 23.96875 -0.984375 
Q 19.4375 -0.984375 15.890625 0.71875 
Q 12.359375 2.4375 9.890625 6.25 
Q 7.421875 10.0625 6.09375 16.15625 
Q 4.78125 22.265625 4.78125 31.0625 
Q 4.78125 40.4375 5.953125 47.21875 
Q 7.125 54 9.6875 58.703125 
Q 12.25 63.421875 16.375 66.234375 
Q 20.515625 69.046875 26.375 70.40625 
Q 28.65625 70.953125 30.65625 71.359375 
Q 32.671875 71.78125 34.46875 72.125 
L 38.03125 72.75 
L 41.5 73.34375 
L 41.5 65.484375 
Q 38.03125 64.9375 34.8125 64.375 
Q 31.59375 63.8125 27.9375 62.984375 
Q 24.8125 62.3125 22.34375 61.5 
Q 19.875 60.6875 17.984375 59.46875 
Q 16.109375 58.25 14.765625 56.46875 
Q 13.421875 54.6875 12.546875 52.046875 
Q 11.671875 49.421875 11.203125 45.78125 
Q 10.75 42.140625 10.640625 37.203125 
Q 11.421875 39.890625 12.765625 42.25 
Q 14.109375 44.625 16.03125 46.375 
Q 17.96875 48.140625 20.484375 49.140625 
Q 23 50.140625 26.21875 50.140625 
z
" id="LiberationSansNarrow-1073"/>
       <path d="M 16.546875 -0.984375 
Q 10.015625 -0.984375 6.734375 3.21875 
Q 3.46875 7.421875 3.46875 14.75 
Q 3.46875 19.96875 5.09375 23.3125 
Q 6.734375 26.65625 9.34375 28.5625 
Q 11.96875 30.46875 15.328125 31.203125 
Q 18.703125 31.9375 22.171875 32.03125 
L 31.9375 32.234375 
L 31.9375 35.109375 
Q 31.9375 38.375 31.375 40.671875 
Q 30.8125 42.96875 29.640625 44.375 
Q 28.46875 45.796875 26.734375 46.453125 
Q 25 47.125 22.609375 47.125 
Q 20.515625 47.125 18.84375 46.75 
Q 17.1875 46.390625 15.9375 45.4375 
Q 14.703125 44.484375 13.9375 42.84375 
Q 13.1875 41.21875 12.9375 38.71875 
L 5.421875 39.546875 
Q 5.8125 42.671875 6.9375 45.28125 
Q 8.0625 47.90625 10.109375 49.796875 
Q 12.15625 51.703125 15.25 52.75 
Q 18.359375 53.8125 22.796875 53.8125 
Q 30.953125 53.8125 35.078125 49.234375 
Q 39.203125 44.671875 39.203125 36.03125 
L 39.203125 13.28125 
Q 39.203125 9.375 40.03125 7.390625 
Q 40.875 5.421875 43.265625 5.421875 
Q 43.84375 5.421875 44.453125 5.515625 
Q 45.0625 5.609375 45.609375 5.765625 
L 45.609375 0.296875 
Q 44.234375 -0.09375 42.890625 -0.28125 
Q 41.546875 -0.484375 40.046875 -0.484375 
Q 37.984375 -0.484375 36.515625 0.171875 
Q 35.0625 0.828125 34.15625 2.171875 
Q 33.25 3.515625 32.765625 5.484375 
Q 32.28125 7.46875 32.125 10.109375 
L 31.9375 10.109375 
Q 30.765625 7.5625 29.375 5.515625 
Q 27.984375 3.46875 26.140625 2.03125 
Q 24.3125 0.59375 21.9375 -0.1875 
Q 19.578125 -0.984375 16.546875 -0.984375 
z
M 18.21875 5.609375 
Q 21.6875 5.609375 24.25 7.140625 
Q 26.8125 8.6875 28.515625 11.078125 
Q 30.21875 13.484375 31.078125 16.3125 
Q 31.9375 19.140625 31.9375 21.734375 
L 31.9375 26.078125 
L 24.03125 25.875 
Q 21.390625 25.828125 19 25.40625 
Q 16.609375 25 14.8125 23.78125 
Q 13.03125 22.5625 11.953125 20.359375 
Q 10.890625 18.171875 10.890625 14.59375 
Q 10.890625 10.296875 12.796875 7.953125 
Q 14.703125 5.609375 18.21875 5.609375 
z
" id="LiberationSansNarrow-1072"/>
       <path d="M 47.796875 75.984375 
L 46.390625 68.5 
L 37.796875 68.5 
Q 32.90625 68.5 30.6875 66.578125 
Q 28.46875 64.65625 27.390625 59.515625 
L 26.421875 54.6875 
L 41.21875 54.6875 
L 39.890625 47.703125 
L 25.09375 47.703125 
L 15.828125 0 
L 6.78125 0 
L 16.109375 47.703125 
L 7.515625 47.703125 
L 8.796875 54.6875 
L 17.390625 54.6875 
L 18.109375 58.5 
Q 19.96875 68.171875 24.625 72.078125 
Q 29.296875 75.984375 39.3125 75.984375 
z
" id="DejaVuSans-Oblique-102"/>
       <path d="M 31 75.875 
Q 24.46875 64.65625 21.28125 53.65625 
Q 18.109375 42.671875 18.109375 31.390625 
Q 18.109375 20.125 21.3125 9.0625 
Q 24.515625 -2 31 -13.1875 
L 23.1875 -13.1875 
Q 15.875 -1.703125 12.234375 9.375 
Q 8.59375 20.453125 8.59375 31.390625 
Q 8.59375 42.28125 12.203125 53.3125 
Q 15.828125 64.359375 23.1875 75.875 
z
" id="DejaVuSans-40"/>
       <path d="M 60.015625 54.6875 
L 34.90625 27.875 
L 50.296875 0 
L 39.984375 0 
L 28.421875 21.6875 
L 8.296875 0 
L -2.59375 0 
L 24.3125 28.8125 
L 10.015625 54.6875 
L 20.3125 54.6875 
L 30.8125 34.90625 
L 49.125 54.6875 
z
" id="DejaVuSans-Oblique-120"/>
       <path d="M 8.015625 75.875 
L 15.828125 75.875 
Q 23.140625 64.359375 26.78125 53.3125 
Q 30.421875 42.28125 30.421875 31.390625 
Q 30.421875 20.453125 26.78125 9.375 
Q 23.140625 -1.703125 15.828125 -13.1875 
L 8.015625 -13.1875 
Q 14.5 -2 17.703125 9.0625 
Q 20.90625 20.125 20.90625 31.390625 
Q 20.90625 42.671875 17.703125 53.65625 
Q 14.5 64.65625 8.015625 75.875 
z
" id="DejaVuSans-41"/>
      </defs>
      <use transform="translate(0 0.015625)" xlink:href="#LiberationSansNarrow-1087"/>
      <use transform="translate(44.433594 0.015625)" xlink:href="#LiberationSansNarrow-1088"/>
      <use transform="translate(90.039062 0.015625)" xlink:href="#LiberationSansNarrow-1080"/>
      <use transform="translate(135.888672 0.015625)" xlink:href="#LiberationSansNarrow-1073"/>
      <use transform="translate(182.861328 0.015625)" xlink:href="#LiberationSansNarrow-1083"/>
      <use transform="translate(230.664062 0.015625)" xlink:href="#LiberationSansNarrow-46"/>
      <use transform="translate(253.466797 0.015625)" xlink:href="#LiberationSansNarrow-32"/>
      <use transform="translate(276.269531 0.015625)" xlink:href="#LiberationSansNarrow-1088"/>
      <use transform="translate(321.875 0.015625)" xlink:href="#LiberationSansNarrow-1072"/>
      <use transform="translate(367.480469 0.015625)" xlink:href="#LiberationSansNarrow-1089"/>
      <use transform="translate(408.496094 0.015625)" xlink:href="#LiberationSansNarrow-1087"/>
      <use transform="translate(452.929688 0.015625)" xlink:href="#LiberationSansNarrow-1088"/>
      <use transform="translate(498.535156 0.015625)" xlink:href="#LiberationSansNarrow-1077"/>
      <use transform="translate(544.140625 0.015625)" xlink:href="#LiberationSansNarrow-1076"/>
      <use transform="translate(591.943359 0.015625)" xlink:href="#LiberationSansNarrow-1077"/>
      <use transform="translate(637.548828 0.015625)" xlink:href="#LiberationSansNarrow-1083"/>
      <use transform="translate(685.351562 0.015625)" xlink:href="#LiberationSansNarrow-1077"/>
      <use transform="translate(730.957031 0.015625)" xlink:href="#LiberationSansNarrow-1085"/>
      <use transform="translate(776.220703 0.015625)" xlink:href="#LiberationSansNarrow-1080"/>
      <use transform="translate(822.070312 0.015625)" xlink:href="#LiberationSansNarrow-1077"/>
      <use transform="translate(867.675781 0.015625)" xlink:href="#LiberationSansNarrow-32"/>
      <use transform="translate(890.478516 0.015625)" xlink:href="#DejaVuSans-Oblique-102"/>
      <use transform="translate(925.683594 0.015625)" xlink:href="#DejaVuSans-40"/>
      <use transform="translate(964.697266 0.015625)" xlink:href="#DejaVuSans-Oblique-120"/>
      <use transform="translate(1023.876953 0.015625)" xlink:href="#DejaVuSans-41"/>
     </g>
    </g>
    <g id="line2d_32">
     <path d="M 278.4946 52.528546 
L 301.8186 52.528546 
" style="fill:none;stroke:#000000;stroke-dasharray:3.7,1.6;stroke-dashoffset:0;"/>
    </g>
    <g id="line2d_33"/>
    <g id="text_25">
     <!-- среднее $r_t$ -->
     <g transform="translate(311.1482 56.610246)scale(0.11662 -0.11662)">
      <defs>
       <path d="M 44.578125 46.390625 
Q 43.21875 47.125 41.453125 47.515625 
Q 39.703125 47.90625 37.703125 47.90625 
Q 30.515625 47.90625 25.140625 42.453125 
Q 19.78125 37.015625 18.015625 27.875 
L 12.5 0 
L 3.515625 0 
L 14.203125 54.6875 
L 23.1875 54.6875 
L 21.484375 46.1875 
Q 25.046875 50.921875 30 53.453125 
Q 34.96875 56 40.578125 56 
Q 42.046875 56 43.453125 55.828125 
Q 44.875 55.671875 46.296875 55.28125 
z
" id="DejaVuSans-Oblique-114"/>
       <path d="M 42.28125 54.6875 
L 40.921875 47.703125 
L 23 47.703125 
L 17.1875 18.015625 
Q 16.890625 16.359375 16.75 15.234375 
Q 16.609375 14.109375 16.609375 13.484375 
Q 16.609375 10.359375 18.484375 8.9375 
Q 20.359375 7.515625 24.515625 7.515625 
L 33.59375 7.515625 
L 32.078125 0 
L 23.484375 0 
Q 15.484375 0 11.546875 3.125 
Q 7.625 6.25 7.625 12.59375 
Q 7.625 13.71875 7.765625 15.0625 
Q 7.90625 16.40625 8.203125 18.015625 
L 14.015625 47.703125 
L 6.390625 47.703125 
L 7.8125 54.6875 
L 15.28125 54.6875 
L 18.3125 70.21875 
L 27.296875 70.21875 
L 24.3125 54.6875 
z
" id="DejaVuSans-Oblique-116"/>
      </defs>
      <use xlink:href="#LiberationSansNarrow-1089"/>
      <use transform="translate(41.015625 0)" xlink:href="#LiberationSansNarrow-1088"/>
      <use transform="translate(86.621094 0)" xlink:href="#LiberationSansNarrow-1077"/>
      <use transform="translate(132.226562 0)" xlink:href="#LiberationSansNarrow-1076"/>
      <use transform="translate(180.029297 0)" xlink:href="#LiberationSansNarrow-1085"/>
      <use transform="translate(225.292969 0)" xlink:href="#LiberationSansNarrow-1077"/>
      <use transform="translate(270.898438 0)" xlink:href="#LiberationSansNarrow-1077"/>
      <use transform="translate(316.503906 0)" xlink:href="#LiberationSansNarrow-32"/>
      <use transform="translate(339.306641 0)" xlink:href="#DejaVuSans-Oblique-114"/>
      <use transform="translate(380.419922 -16.40625)scale(0.7)" xlink:href="#DejaVuSans-Oblique-116"/>
     </g>
    </g>
    <g id="line2d_34">
     <path d="M 278.4946 71.420986 
L 301.8186 71.420986 
" style="fill:none;stroke:#1f77b4;stroke-linecap:square;stroke-width:1.5;"/>
    </g>
    <g id="line2d_35"/>
    <g id="text_26">
     <!-- распр. отставания (прав. шкала) $(r-r_t)^2 f(x)$ -->
     <g transform="translate(311.1482 75.502686)scale(0.11662 -0.11662)">
      <defs>
       <path d="M 5.078125 25.984375 
Q 5.078125 32.765625 5.921875 38.96875 
Q 6.78125 45.171875 8.5625 50.875 
Q 10.359375 56.59375 13.15625 61.953125 
Q 15.96875 67.328125 19.875 72.46875 
L 26.8125 72.46875 
Q 23.046875 67.328125 20.3125 61.9375 
Q 17.578125 56.546875 15.8125 50.796875 
Q 14.0625 45.0625 13.1875 38.859375 
Q 12.3125 32.671875 12.3125 25.875 
Q 12.3125 19.09375 13.1875 12.890625 
Q 14.0625 6.6875 15.8125 0.921875 
Q 17.578125 -4.828125 20.3125 -10.203125 
Q 23.046875 -15.578125 26.8125 -20.703125 
L 19.875 -20.703125 
Q 15.96875 -15.578125 13.15625 -10.203125 
Q 10.359375 -4.828125 8.5625 0.875 
Q 6.78125 6.59375 5.921875 12.765625 
Q 5.078125 18.953125 5.078125 25.78125 
z
" id="LiberationSansNarrow-40"/>
       <path d="M 5.671875 0 
L 5.671875 52.828125 
L 12.890625 52.828125 
L 12.890625 6.390625 
L 29.296875 6.390625 
L 29.296875 52.828125 
L 36.53125 52.828125 
L 36.53125 6.390625 
L 52.875 6.390625 
L 52.875 52.828125 
L 60.109375 52.828125 
L 60.109375 0 
z
" id="LiberationSansNarrow-1096"/>
       <path d="M 5.515625 52.828125 
L 12.703125 52.828125 
L 12.703125 29.6875 
Q 13.921875 29.6875 14.875 30.078125 
Q 15.828125 30.46875 16.875 31.6875 
Q 17.921875 32.90625 19.21875 35.15625 
Q 20.515625 37.40625 22.46875 41.15625 
L 28.375 52.828125 
L 35.890625 52.828125 
L 27.25 36.96875 
Q 25.4375 33.734375 24.109375 31.65625 
Q 22.796875 29.59375 22.125 28.90625 
L 36.234375 0 
L 28.21875 0 
L 17.140625 24.265625 
Q 16.359375 23.875 15.0625 23.578125 
Q 13.765625 23.296875 12.703125 23.296875 
L 12.703125 0 
L 5.515625 0 
z
" id="LiberationSansNarrow-1082"/>
       <path d="M 22.21875 25.78125 
Q 22.21875 18.953125 21.359375 12.765625 
Q 20.515625 6.59375 18.71875 0.875 
Q 16.9375 -4.828125 14.125 -10.203125 
Q 11.328125 -15.578125 7.421875 -20.703125 
L 0.484375 -20.703125 
Q 4.25 -15.578125 6.984375 -10.203125 
Q 9.71875 -4.828125 11.46875 0.921875 
Q 13.234375 6.6875 14.109375 12.890625 
Q 14.984375 19.09375 14.984375 25.875 
Q 14.984375 32.671875 14.109375 38.859375 
Q 13.234375 45.0625 11.46875 50.796875 
Q 9.71875 56.546875 6.984375 61.9375 
Q 4.25 67.328125 0.484375 72.46875 
L 7.421875 72.46875 
Q 11.328125 67.328125 14.125 61.953125 
Q 16.9375 56.59375 18.71875 50.875 
Q 20.515625 45.171875 21.359375 38.96875 
Q 22.21875 32.765625 22.21875 25.984375 
z
" id="LiberationSansNarrow-41"/>
       <path d="M 10.59375 35.5 
L 73.1875 35.5 
L 73.1875 27.203125 
L 10.59375 27.203125 
z
" id="DejaVuSans-8722"/>
       <path d="M 19.1875 8.296875 
L 53.609375 8.296875 
L 53.609375 0 
L 7.328125 0 
L 7.328125 8.296875 
Q 12.9375 14.109375 22.625 23.890625 
Q 32.328125 33.6875 34.8125 36.53125 
Q 39.546875 41.84375 41.421875 45.53125 
Q 43.3125 49.21875 43.3125 52.78125 
Q 43.3125 58.59375 39.234375 62.25 
Q 35.15625 65.921875 28.609375 65.921875 
Q 23.96875 65.921875 18.8125 64.3125 
Q 13.671875 62.703125 7.8125 59.421875 
L 7.8125 69.390625 
Q 13.765625 71.78125 18.9375 73 
Q 24.125 74.21875 28.421875 74.21875 
Q 39.75 74.21875 46.484375 68.546875 
Q 53.21875 62.890625 53.21875 53.421875 
Q 53.21875 48.921875 51.53125 44.890625 
Q 49.859375 40.875 45.40625 35.40625 
Q 44.1875 33.984375 37.640625 27.21875 
Q 31.109375 20.453125 19.1875 8.296875 
z
" id="DejaVuSans-50"/>
      </defs>
      <use transform="translate(0 0.765625)" xlink:href="#LiberationSansNarrow-1088"/>
      <use transform="translate(45.605469 0.765625)" xlink:href="#LiberationSansNarrow-1072"/>
      <use transform="translate(91.210938 0.765625)" xlink:href="#LiberationSansNarrow-1089"/>
      <use transform="translate(132.226562 0.765625)" xlink:href="#LiberationSansNarrow-1087"/>
      <use transform="translate(176.660156 0.765625)" xlink:href="#LiberationSansNarrow-1088"/>
      <use transform="translate(222.265625 0.765625)" xlink:href="#LiberationSansNarrow-46"/>
      <use transform="translate(245.068359 0.765625)" xlink:href="#LiberationSansNarrow-32"/>
      <use transform="translate(267.871094 0.765625)" xlink:href="#LiberationSansNarrow-1086"/>
      <use transform="translate(313.476562 0.765625)" xlink:href="#LiberationSansNarrow-1090"/>
      <use transform="translate(351.025391 0.765625)" xlink:href="#LiberationSansNarrow-1089"/>
      <use transform="translate(392.041016 0.765625)" xlink:href="#LiberationSansNarrow-1090"/>
      <use transform="translate(429.589844 0.765625)" xlink:href="#LiberationSansNarrow-1072"/>
      <use transform="translate(475.195312 0.765625)" xlink:href="#LiberationSansNarrow-1074"/>
      <use transform="translate(518.75 0.765625)" xlink:href="#LiberationSansNarrow-1072"/>
      <use transform="translate(564.355469 0.765625)" xlink:href="#LiberationSansNarrow-1085"/>
      <use transform="translate(609.619141 0.765625)" xlink:href="#LiberationSansNarrow-1080"/>
      <use transform="translate(655.46875 0.765625)" xlink:href="#LiberationSansNarrow-1103"/>
      <use transform="translate(699.902344 0.765625)" xlink:href="#LiberationSansNarrow-32"/>
      <use transform="translate(722.705078 0.765625)" xlink:href="#LiberationSansNarrow-40"/>
      <use transform="translate(750 0.765625)" xlink:href="#LiberationSansNarrow-1087"/>
      <use transform="translate(794.433594 0.765625)" xlink:href="#LiberationSansNarrow-1088"/>
      <use transform="translate(840.039062 0.765625)" xlink:href="#LiberationSansNarrow-1072"/>
      <use transform="translate(885.644531 0.765625)" xlink:href="#LiberationSansNarrow-1074"/>
      <use transform="translate(929.199219 0.765625)" xlink:href="#LiberationSansNarrow-46"/>
      <use transform="translate(952.001953 0.765625)" xlink:href="#LiberationSansNarrow-32"/>
      <use transform="translate(974.804688 0.765625)" xlink:href="#LiberationSansNarrow-1096"/>
      <use transform="translate(1040.576172 0.765625)" xlink:href="#LiberationSansNarrow-1082"/>
      <use transform="translate(1076.416016 0.765625)" xlink:href="#LiberationSansNarrow-1072"/>
      <use transform="translate(1122.021484 0.765625)" xlink:href="#LiberationSansNarrow-1083"/>
      <use transform="translate(1169.824219 0.765625)" xlink:href="#LiberationSansNarrow-1072"/>
      <use transform="translate(1215.429688 0.765625)" xlink:href="#LiberationSansNarrow-41"/>
      <use transform="translate(1242.724609 0.765625)" xlink:href="#LiberationSansNarrow-32"/>
      <use transform="translate(1265.527344 0.765625)" xlink:href="#DejaVuSans-40"/>
      <use transform="translate(1304.541016 0.765625)" xlink:href="#DejaVuSans-Oblique-114"/>
      <use transform="translate(1365.136719 0.765625)" xlink:href="#DejaVuSans-8722"/>
      <use transform="translate(1468.408203 0.765625)" xlink:href="#DejaVuSans-Oblique-114"/>
      <use transform="translate(1509.521484 -15.640625)scale(0.7)" xlink:href="#DejaVuSans-Oblique-116"/>
      <use transform="translate(1539.702148 0.765625)" xlink:href="#DejaVuSans-41"/>
      <use transform="translate(1579.672852 39.046875)scale(0.7)" xlink:href="#DejaVuSans-50"/>
      <use transform="translate(1626.943359 0.765625)" xlink:href="#DejaVuSans-Oblique-102"/>
      <use transform="translate(1662.148438 0.765625)" xlink:href="#DejaVuSans-40"/>
      <use transform="translate(1701.162109 0.765625)" xlink:href="#DejaVuSans-Oblique-120"/>
      <use transform="translate(1760.341797 0.765625)" xlink:href="#DejaVuSans-41"/>
     </g>
    </g>
   </g>
  </g>
 </g>
 <defs>
  <clipPath id="p067a35bddb">
   <rect height="214" width="469.44" x="62.12" y="20.52"/>
  </clipPath>
 </defs>
</svg>
