<?xml version="1.0" encoding="utf-8" standalone="no"?>
<!DOCTYPE svg PUBLIC "-//W3C//DTD SVG 1.1//EN"
  "http://www.w3.org/Graphics/SVG/1.1/DTD/svg11.dtd">
<!-- Created with matplotlib (https://matplotlib.org/) -->
<svg height="288pt" version="1.1" viewBox="0 0 576 288" width="576pt" xmlns="http://www.w3.org/2000/svg" xmlns:xlink="http://www.w3.org/1999/xlink">
 <defs>
  <style type="text/css">
*{stroke-linecap:butt;stroke-linejoin:round;}
  </style>
 </defs>
 <g id="figure_1">
  <g id="patch_1">
   <path d="M 0 288 
L 576 288 
L 576 0 
L 0 0 
z
" style="fill:#ffffff;"/>
  </g>
  <g id="axes_1">
   <g id="patch_2">
    <path d="M 54.07 252.2 
L 558.36 252.2 
L 558.36 17.64 
L 54.07 17.64 
z
" style="fill:#ffffff;"/>
   </g>
   <g id="matplotlib.axis_1">
    <g id="xtick_1">
     <g id="line2d_1">
      <path clip-path="url(#pa2fd8126b2)" d="M 104.628012 252.2 
L 104.628012 17.64 
" style="fill:none;stroke:#b0b0b0;stroke-dasharray:1.48,0.64;stroke-dashoffset:0;stroke-width:0.4;"/>
     </g>
     <g id="text_1">
      <!-- 1880 -->
      <defs>
       <path d="M 6.25 0 
L 6.25 7.46875 
L 20.609375 7.46875 
L 20.609375 60.40625 
L 7.90625 49.3125 
L 7.90625 57.625 
L 21.234375 68.796875 
L 27.875 68.796875 
L 27.875 7.46875 
L 41.609375 7.46875 
L 41.609375 0 
z
" id="LiberationSansNarrow-49"/>
       <path d="M 42.046875 19.1875 
Q 42.046875 14.796875 40.890625 11.109375 
Q 39.75 7.421875 37.40625 4.734375 
Q 35.0625 2.046875 31.421875 0.53125 
Q 27.78125 -0.984375 22.796875 -0.984375 
Q 17.828125 -0.984375 14.203125 0.53125 
Q 10.59375 2.046875 8.21875 4.703125 
Q 5.859375 7.375 4.703125 11.0625 
Q 3.5625 14.75 3.5625 19.09375 
Q 3.5625 22.859375 4.515625 25.78125 
Q 5.46875 28.71875 7.03125 30.828125 
Q 8.59375 32.953125 10.609375 34.25 
Q 12.640625 35.546875 14.796875 35.984375 
L 14.796875 36.1875 
Q 12.453125 36.859375 10.59375 38.375 
Q 8.734375 39.890625 7.46875 42.015625 
Q 6.203125 44.140625 5.546875 46.71875 
Q 4.890625 49.3125 4.890625 52.203125 
Q 4.890625 55.8125 6.03125 59 
Q 7.171875 62.203125 9.421875 64.625 
Q 11.671875 67.046875 14.984375 68.4375 
Q 18.3125 69.828125 22.65625 69.828125 
Q 27.25 69.828125 30.640625 68.40625 
Q 34.03125 67 36.25 64.578125 
Q 38.484375 62.15625 39.546875 58.9375 
Q 40.625 55.71875 40.625 52.09375 
Q 40.625 49.265625 39.96875 46.671875 
Q 39.3125 44.09375 38.0625 41.96875 
Q 36.8125 39.84375 34.9375 38.34375 
Q 33.0625 36.859375 30.609375 36.28125 
L 30.609375 36.078125 
Q 33.0625 35.59375 35.15625 34.296875 
Q 37.25 33.015625 38.765625 30.890625 
Q 40.28125 28.765625 41.15625 25.828125 
Q 42.046875 22.90625 42.046875 19.1875 
z
M 33.15625 51.609375 
Q 33.15625 54.203125 32.609375 56.34375 
Q 32.078125 58.5 30.828125 60.03125 
Q 29.59375 61.578125 27.59375 62.421875 
Q 25.59375 63.28125 22.65625 63.28125 
Q 19.828125 63.28125 17.875 62.421875 
Q 15.921875 61.578125 14.640625 60.03125 
Q 13.375 58.5 12.8125 56.34375 
Q 12.25 54.203125 12.25 51.609375 
Q 12.25 49.5625 12.6875 47.40625 
Q 13.140625 45.265625 14.3125 43.5 
Q 15.484375 41.75 17.5 40.625 
Q 19.53125 39.5 22.75 39.5 
Q 26.171875 39.5 28.21875 40.625 
Q 30.28125 41.75 31.375 43.5 
Q 32.46875 45.265625 32.8125 47.40625 
Q 33.15625 49.5625 33.15625 51.609375 
z
M 34.578125 20.015625 
Q 34.578125 22.515625 34.015625 24.828125 
Q 33.453125 27.15625 32.078125 28.9375 
Q 30.71875 30.71875 28.421875 31.8125 
Q 26.125 32.90625 22.65625 32.90625 
Q 19.484375 32.90625 17.265625 31.8125 
Q 15.046875 30.71875 13.671875 28.90625 
Q 12.3125 27.09375 11.671875 24.71875 
Q 11.03125 22.359375 11.03125 19.828125 
Q 11.03125 16.65625 11.671875 14.03125 
Q 12.3125 11.421875 13.703125 9.546875 
Q 15.09375 7.671875 17.375 6.640625 
Q 19.671875 5.609375 22.90625 5.609375 
Q 26.171875 5.609375 28.421875 6.640625 
Q 30.671875 7.671875 32.03125 9.546875 
Q 33.40625 11.421875 33.984375 14.078125 
Q 34.578125 16.75 34.578125 20.015625 
z
" id="LiberationSansNarrow-56"/>
       <path d="M 42.390625 34.421875 
Q 42.390625 24.515625 40.84375 17.75 
Q 39.3125 10.984375 36.640625 6.8125 
Q 33.984375 2.640625 30.390625 0.828125 
Q 26.8125 -0.984375 22.703125 -0.984375 
Q 18.609375 -0.984375 15.03125 0.828125 
Q 11.46875 2.640625 8.828125 6.78125 
Q 6.203125 10.9375 4.703125 17.703125 
Q 3.21875 24.46875 3.21875 34.421875 
Q 3.21875 44.828125 4.703125 51.640625 
Q 6.203125 58.453125 8.828125 62.5 
Q 11.46875 66.546875 15.078125 68.1875 
Q 18.703125 69.828125 22.953125 69.828125 
Q 27 69.828125 30.53125 68.1875 
Q 34.078125 66.546875 36.71875 62.5 
Q 39.359375 58.453125 40.875 51.640625 
Q 42.390625 44.828125 42.390625 34.421875 
z
M 35.0625 34.421875 
Q 35.0625 42.625 34.28125 48.0625 
Q 33.5 53.515625 31.9375 56.765625 
Q 30.375 60.015625 28.09375 61.359375 
Q 25.828125 62.703125 22.953125 62.703125 
Q 19.921875 62.703125 17.578125 61.328125 
Q 15.234375 59.96875 13.671875 56.71875 
Q 12.109375 53.46875 11.296875 48.015625 
Q 10.5 42.578125 10.5 34.421875 
Q 10.5 26.515625 11.296875 21.09375 
Q 12.109375 15.671875 13.6875 12.375 
Q 15.28125 9.078125 17.578125 7.640625 
Q 19.875 6.203125 22.796875 6.203125 
Q 25.640625 6.203125 27.90625 7.640625 
Q 30.171875 9.078125 31.75 12.375 
Q 33.34375 15.671875 34.203125 21.09375 
Q 35.0625 26.515625 35.0625 34.421875 
z
" id="LiberationSansNarrow-48"/>
      </defs>
      <g transform="translate(91.857387 269.345625)scale(0.14 -0.14)">
       <use xlink:href="#LiberationSansNarrow-49"/>
       <use x="45.605469" xlink:href="#LiberationSansNarrow-56"/>
       <use x="91.210938" xlink:href="#LiberationSansNarrow-56"/>
       <use x="136.816406" xlink:href="#LiberationSansNarrow-48"/>
      </g>
     </g>
    </g>
    <g id="xtick_2">
     <g id="line2d_2">
      <path clip-path="url(#pa2fd8126b2)" d="M 166.064126 252.2 
L 166.064126 17.64 
" style="fill:none;stroke:#b0b0b0;stroke-dasharray:1.48,0.64;stroke-dashoffset:0;stroke-width:0.4;"/>
     </g>
     <g id="text_2">
      <!-- 1900 -->
      <defs>
       <path d="M 41.703125 35.796875 
Q 41.703125 26.609375 40.28125 19.703125 
Q 38.875 12.796875 36.234375 8.203125 
Q 33.59375 3.609375 29.8125 1.3125 
Q 26.03125 -0.984375 21.296875 -0.984375 
Q 18.0625 -0.984375 15.453125 -0.171875 
Q 12.84375 0.640625 10.8125 2.34375 
Q 8.796875 4.046875 7.328125 6.78125 
Q 5.859375 9.515625 4.984375 13.375 
L 11.921875 14.703125 
Q 13.03125 10.25 15.40625 8.171875 
Q 17.78125 6.109375 21.4375 6.109375 
Q 24.359375 6.109375 26.78125 7.78125 
Q 29.203125 9.46875 30.875 12.84375 
Q 32.5625 16.21875 33.546875 21.296875 
Q 34.46875 26.375 34.578125 33.203125 
Q 33.734375 30.90625 32.265625 29.09375 
Q 30.8125 27.296875 28.953125 26.046875 
Q 27.09375 24.8125 24.9375 24.140625 
Q 22.796875 23.484375 20.5625 23.484375 
Q 16.703125 23.484375 13.625 25.171875 
Q 10.546875 26.859375 8.375 29.875 
Q 6.203125 32.90625 5.03125 37.171875 
Q 3.859375 41.453125 3.859375 46.6875 
Q 3.859375 52 5.09375 56.296875 
Q 6.34375 60.59375 8.765625 63.59375 
Q 11.1875 66.609375 14.671875 68.21875 
Q 18.171875 69.828125 22.609375 69.828125 
Q 32.03125 69.828125 36.859375 61.328125 
Q 41.703125 52.828125 41.703125 35.796875 
z
M 33.890625 44.28125 
Q 33.890625 48.09375 33.125 51.453125 
Q 32.375 54.828125 30.9375 57.3125 
Q 29.5 59.8125 27.34375 61.25 
Q 25.203125 62.703125 22.359375 62.703125 
Q 19.78125 62.703125 17.703125 61.578125 
Q 15.625 60.453125 14.1875 58.375 
Q 12.75 56.296875 11.96875 53.3125 
Q 11.1875 50.34375 11.1875 46.6875 
Q 11.1875 43.21875 11.859375 40.234375 
Q 12.546875 37.25 13.953125 35.078125 
Q 15.375 32.90625 17.453125 31.65625 
Q 19.53125 30.421875 22.3125 30.421875 
Q 24.3125 30.421875 26.359375 31.25 
Q 28.421875 32.078125 30.078125 33.78125 
Q 31.734375 35.5 32.8125 38.109375 
Q 33.890625 40.71875 33.890625 44.28125 
z
" id="LiberationSansNarrow-57"/>
      </defs>
      <g transform="translate(153.293501 269.345625)scale(0.14 -0.14)">
       <use xlink:href="#LiberationSansNarrow-49"/>
       <use x="45.605469" xlink:href="#LiberationSansNarrow-57"/>
       <use x="91.210938" xlink:href="#LiberationSansNarrow-48"/>
       <use x="136.816406" xlink:href="#LiberationSansNarrow-48"/>
      </g>
     </g>
    </g>
    <g id="xtick_3">
     <g id="line2d_3">
      <path clip-path="url(#pa2fd8126b2)" d="M 227.491831 252.2 
L 227.491831 17.64 
" style="fill:none;stroke:#b0b0b0;stroke-dasharray:1.48,0.64;stroke-dashoffset:0;stroke-width:0.4;"/>
     </g>
     <g id="text_3">
      <!-- 1920 -->
      <defs>
       <path d="M 4.109375 0 
L 4.109375 6.203125 
Q 6.15625 11.921875 9.109375 16.28125 
Q 12.0625 20.65625 15.3125 24.1875 
Q 18.5625 27.734375 21.734375 30.765625 
Q 24.90625 33.796875 27.46875 36.8125 
Q 30.03125 39.84375 31.609375 43.15625 
Q 33.203125 46.484375 33.203125 50.6875 
Q 33.203125 53.609375 32.46875 55.828125 
Q 31.734375 58.0625 30.390625 59.5625 
Q 29.046875 61.078125 27.140625 61.828125 
Q 25.25 62.59375 22.90625 62.59375 
Q 20.75 62.59375 18.84375 61.859375 
Q 16.9375 61.140625 15.453125 59.671875 
Q 13.96875 58.203125 13.03125 56.03125 
Q 12.109375 53.859375 11.8125 50.984375 
L 4.4375 51.8125 
Q 4.78125 55.515625 6.125 58.78125 
Q 7.46875 62.0625 9.78125 64.53125 
Q 12.109375 67 15.359375 68.40625 
Q 18.609375 69.828125 22.90625 69.828125 
Q 27.09375 69.828125 30.390625 68.609375 
Q 33.6875 67.390625 35.9375 64.984375 
Q 38.1875 62.59375 39.40625 59.078125 
Q 40.625 55.5625 40.625 50.984375 
Q 40.625 47.515625 39.59375 44.390625 
Q 38.578125 41.265625 36.859375 38.421875 
Q 35.15625 35.59375 32.90625 32.953125 
Q 30.671875 30.328125 28.21875 27.828125 
L 23.296875 22.859375 
Q 20.796875 20.359375 18.625 17.859375 
Q 16.453125 15.375 14.734375 12.8125 
Q 13.03125 10.25 12.0625 7.46875 
L 41.5 7.46875 
L 41.5 0 
z
" id="LiberationSansNarrow-50"/>
      </defs>
      <g transform="translate(214.721206 269.345625)scale(0.14 -0.14)">
       <use xlink:href="#LiberationSansNarrow-49"/>
       <use x="45.605469" xlink:href="#LiberationSansNarrow-57"/>
       <use x="91.210938" xlink:href="#LiberationSansNarrow-50"/>
       <use x="136.816406" xlink:href="#LiberationSansNarrow-48"/>
      </g>
     </g>
    </g>
    <g id="xtick_4">
     <g id="line2d_4">
      <path clip-path="url(#pa2fd8126b2)" d="M 288.927945 252.2 
L 288.927945 17.64 
" style="fill:none;stroke:#b0b0b0;stroke-dasharray:1.48,0.64;stroke-dashoffset:0;stroke-width:0.4;"/>
     </g>
     <g id="text_4">
      <!-- 1940 -->
      <defs>
       <path d="M 35.25 15.578125 
L 35.25 0 
L 28.46875 0 
L 28.46875 15.578125 
L 1.90625 15.578125 
L 1.90625 22.40625 
L 27.6875 68.796875 
L 35.25 68.796875 
L 35.25 22.515625 
L 43.21875 22.515625 
L 43.21875 15.578125 
z
M 28.46875 58.890625 
Q 28.375 58.640625 28.03125 57.90625 
L 27.34375 56.34375 
L 26.5625 54.59375 
Q 26.125 53.65625 25.78125 53.078125 
L 11.328125 27.09375 
Q 11.140625 26.703125 10.75 26.078125 
L 9.96875 24.8125 
L 9.1875 23.484375 
Q 8.796875 22.859375 8.546875 22.515625 
L 28.46875 22.515625 
z
" id="LiberationSansNarrow-52"/>
      </defs>
      <g transform="translate(276.15732 269.345625)scale(0.14 -0.14)">
       <use xlink:href="#LiberationSansNarrow-49"/>
       <use x="45.605469" xlink:href="#LiberationSansNarrow-57"/>
       <use x="91.210938" xlink:href="#LiberationSansNarrow-52"/>
       <use x="136.816406" xlink:href="#LiberationSansNarrow-48"/>
      </g>
     </g>
    </g>
    <g id="xtick_5">
     <g id="line2d_5">
      <path clip-path="url(#pa2fd8126b2)" d="M 350.36406 252.2 
L 350.36406 17.64 
" style="fill:none;stroke:#b0b0b0;stroke-dasharray:1.48,0.64;stroke-dashoffset:0;stroke-width:0.4;"/>
     </g>
     <g id="text_5">
      <!-- 1960 -->
      <defs>
       <path d="M 42 22.515625 
Q 42 17.328125 40.828125 13 
Q 39.65625 8.6875 37.359375 5.578125 
Q 35.0625 2.484375 31.640625 0.75 
Q 28.21875 -0.984375 23.78125 -0.984375 
Q 18.84375 -0.984375 15.15625 1.3125 
Q 11.46875 3.609375 9.03125 7.921875 
Q 6.59375 12.25 5.375 18.53125 
Q 4.15625 24.8125 4.15625 32.8125 
Q 4.15625 42 5.546875 48.921875 
Q 6.9375 55.859375 9.515625 60.5 
Q 12.109375 65.140625 15.859375 67.484375 
Q 19.625 69.828125 24.359375 69.828125 
Q 27.25 69.828125 29.765625 69.09375 
Q 32.28125 68.359375 34.328125 66.71875 
Q 36.375 65.09375 37.9375 62.40625 
Q 39.5 59.71875 40.4375 55.8125 
L 33.546875 54.296875 
Q 32.421875 58.734375 29.953125 60.71875 
Q 27.484375 62.703125 24.265625 62.703125 
Q 21.296875 62.703125 18.890625 60.984375 
Q 16.5 59.28125 14.8125 55.875 
Q 13.140625 52.484375 12.234375 47.359375 
Q 11.328125 42.234375 11.328125 35.40625 
Q 13.28125 39.84375 16.84375 42.15625 
Q 20.40625 44.484375 25.046875 44.484375 
Q 28.90625 44.484375 32 42.96875 
Q 35.109375 41.453125 37.328125 38.59375 
Q 39.546875 35.75 40.765625 31.671875 
Q 42 27.59375 42 22.515625 
z
M 34.671875 22.125 
Q 34.671875 25.6875 33.953125 28.5625 
Q 33.25 31.453125 31.8125 33.46875 
Q 30.375 35.5 28.25 36.59375 
Q 26.125 37.703125 23.296875 37.703125 
Q 21.34375 37.703125 19.328125 36.984375 
Q 17.328125 36.28125 15.71875 34.6875 
Q 14.109375 33.109375 13.078125 30.515625 
Q 12.0625 27.9375 12.0625 24.21875 
Q 12.0625 20.40625 12.859375 17.109375 
Q 13.671875 13.8125 15.15625 11.375 
Q 16.65625 8.9375 18.78125 7.515625 
Q 20.90625 6.109375 23.53125 6.109375 
Q 26.125 6.109375 28.203125 7.203125 
Q 30.28125 8.296875 31.71875 10.375 
Q 33.15625 12.453125 33.90625 15.421875 
Q 34.671875 18.40625 34.671875 22.125 
z
" id="LiberationSansNarrow-54"/>
      </defs>
      <g transform="translate(337.593435 269.345625)scale(0.14 -0.14)">
       <use xlink:href="#LiberationSansNarrow-49"/>
       <use x="45.605469" xlink:href="#LiberationSansNarrow-57"/>
       <use x="91.210938" xlink:href="#LiberationSansNarrow-54"/>
       <use x="136.816406" xlink:href="#LiberationSansNarrow-48"/>
      </g>
     </g>
    </g>
    <g id="xtick_6">
     <g id="line2d_6">
      <path clip-path="url(#pa2fd8126b2)" d="M 411.800175 252.2 
L 411.800175 17.64 
" style="fill:none;stroke:#b0b0b0;stroke-dasharray:1.48,0.64;stroke-dashoffset:0;stroke-width:0.4;"/>
     </g>
     <g id="text_6">
      <!-- 1980 -->
      <g transform="translate(399.02955 269.345625)scale(0.14 -0.14)">
       <use xlink:href="#LiberationSansNarrow-49"/>
       <use x="45.605469" xlink:href="#LiberationSansNarrow-57"/>
       <use x="91.210938" xlink:href="#LiberationSansNarrow-56"/>
       <use x="136.816406" xlink:href="#LiberationSansNarrow-48"/>
      </g>
     </g>
    </g>
    <g id="xtick_7">
     <g id="line2d_7">
      <path clip-path="url(#pa2fd8126b2)" d="M 473.236289 252.2 
L 473.236289 17.64 
" style="fill:none;stroke:#b0b0b0;stroke-dasharray:1.48,0.64;stroke-dashoffset:0;stroke-width:0.4;"/>
     </g>
     <g id="text_7">
      <!-- 2000 -->
      <g transform="translate(460.465664 269.345625)scale(0.14 -0.14)">
       <use xlink:href="#LiberationSansNarrow-50"/>
       <use x="45.605469" xlink:href="#LiberationSansNarrow-48"/>
       <use x="91.210938" xlink:href="#LiberationSansNarrow-48"/>
       <use x="136.816406" xlink:href="#LiberationSansNarrow-48"/>
      </g>
     </g>
    </g>
    <g id="xtick_8">
     <g id="line2d_8">
      <path clip-path="url(#pa2fd8126b2)" d="M 534.672404 252.2 
L 534.672404 17.64 
" style="fill:none;stroke:#b0b0b0;stroke-dasharray:1.48,0.64;stroke-dashoffset:0;stroke-width:0.4;"/>
     </g>
     <g id="text_8">
      <!-- 2020 -->
      <g transform="translate(521.901779 269.345625)scale(0.14 -0.14)">
       <use xlink:href="#LiberationSansNarrow-50"/>
       <use x="45.605469" xlink:href="#LiberationSansNarrow-48"/>
       <use x="91.210938" xlink:href="#LiberationSansNarrow-50"/>
       <use x="136.816406" xlink:href="#LiberationSansNarrow-48"/>
      </g>
     </g>
    </g>
   </g>
   <g id="matplotlib.axis_2">
    <g id="ytick_1">
     <g id="line2d_9">
      <path clip-path="url(#pa2fd8126b2)" d="M 54.07 241.284505 
L 558.36 241.284505 
" style="fill:none;stroke:#b0b0b0;stroke-dasharray:1.48,0.64;stroke-dashoffset:0;stroke-width:0.4;"/>
     </g>
     <g id="text_9">
      <!-- 1 -->
      <g transform="translate(40.684688 246.357318)scale(0.14 -0.14)">
       <use xlink:href="#LiberationSansNarrow-49"/>
      </g>
     </g>
    </g>
    <g id="ytick_2">
     <g id="line2d_10">
      <path clip-path="url(#pa2fd8126b2)" d="M 54.07 192.260945 
L 558.36 192.260945 
" style="fill:none;stroke:#b0b0b0;stroke-dasharray:1.48,0.64;stroke-dashoffset:0;stroke-width:0.4;"/>
     </g>
     <g id="text_10">
      <!-- 10 -->
      <g transform="translate(34.299375 197.333758)scale(0.14 -0.14)">
       <use xlink:href="#LiberationSansNarrow-49"/>
       <use x="45.605469" xlink:href="#LiberationSansNarrow-48"/>
      </g>
     </g>
    </g>
    <g id="ytick_3">
     <g id="line2d_11">
      <path clip-path="url(#pa2fd8126b2)" d="M 54.07 143.237386 
L 558.36 143.237386 
" style="fill:none;stroke:#b0b0b0;stroke-dasharray:1.48,0.64;stroke-dashoffset:0;stroke-width:0.4;"/>
     </g>
     <g id="text_11">
      <!-- 100 -->
      <g transform="translate(27.914063 148.310198)scale(0.14 -0.14)">
       <use xlink:href="#LiberationSansNarrow-49"/>
       <use x="45.605469" xlink:href="#LiberationSansNarrow-48"/>
       <use x="91.210938" xlink:href="#LiberationSansNarrow-48"/>
      </g>
     </g>
    </g>
    <g id="ytick_4">
     <g id="line2d_12">
      <path clip-path="url(#pa2fd8126b2)" d="M 54.07 94.213826 
L 558.36 94.213826 
" style="fill:none;stroke:#b0b0b0;stroke-dasharray:1.48,0.64;stroke-dashoffset:0;stroke-width:0.4;"/>
     </g>
     <g id="text_12">
      <!-- 1000 -->
      <g transform="translate(21.52875 99.286638)scale(0.14 -0.14)">
       <use xlink:href="#LiberationSansNarrow-49"/>
       <use x="45.605469" xlink:href="#LiberationSansNarrow-48"/>
       <use x="91.210938" xlink:href="#LiberationSansNarrow-48"/>
       <use x="136.816406" xlink:href="#LiberationSansNarrow-48"/>
      </g>
     </g>
    </g>
    <g id="ytick_5">
     <g id="line2d_13">
      <path clip-path="url(#pa2fd8126b2)" d="M 54.07 45.190266 
L 558.36 45.190266 
" style="fill:none;stroke:#b0b0b0;stroke-dasharray:1.48,0.64;stroke-dashoffset:0;stroke-width:0.4;"/>
     </g>
     <g id="text_13">
      <!-- 10000 -->
      <g transform="translate(15.143438 50.263078)scale(0.14 -0.14)">
       <use xlink:href="#LiberationSansNarrow-49"/>
       <use x="45.605469" xlink:href="#LiberationSansNarrow-48"/>
       <use x="91.210938" xlink:href="#LiberationSansNarrow-48"/>
       <use x="136.816406" xlink:href="#LiberationSansNarrow-48"/>
       <use x="182.421875" xlink:href="#LiberationSansNarrow-48"/>
      </g>
     </g>
    </g>
   </g>
   <g id="line2d_14">
    <path clip-path="url(#pa2fd8126b2)" d="M 76.992273 241.538182 
L 77.252987 241.538182 
L 77.488471 241.239717 
L 77.749186 239.761604 
L 78.00149 239.53861 
L 79.288243 239.53861 
L 79.548957 239.20982 
L 79.801261 239.146629 
L 80.061976 238.778103 
L 85.696774 238.735009 
L 85.949078 237.848695 
L 96.697244 237.848695 
L 96.949549 236.992631 
L 97.470978 233.008391 
L 97.723282 232.444294 
L 97.983996 232.237049 
L 98.236301 232.198669 
L 98.497015 231.582989 
L 98.75773 231.582989 
L 99.766947 227.897747 
L 100.279966 227.897747 
L 100.540681 227.380119 
L 100.792985 227.29201 
L 101.0537 227.02035 
L 101.566719 225.933028 
L 101.827433 225.345119 
L 102.062917 225.345119 
L 102.575936 223.305305 
L 103.088955 222.604787 
L 103.610384 222.244297 
L 103.862688 221.672557 
L 104.375707 221.672557 
L 104.636422 221.414706 
L 105.141031 221.31936 
L 105.654049 221.31936 
L 105.914764 220.711 
L 106.427783 219.020511 
L 106.688497 219.020511 
L 107.201516 217.889924 
L 112.05417 217.889924 
L 112.306475 216.756078 
L 118.201987 216.756078 
L 118.454291 216.399808 
L 118.715006 215.661803 
L 119.228025 215.661803 
L 119.741044 215.535472 
L 120.001758 215.535472 
L 120.497957 214.541081 
L 120.758671 214.541081 
L 121.27169 213.652737 
L 121.523994 213.02688 
L 121.784709 211.771993 
L 122.045423 211.6907 
L 122.297728 210.403414 
L 122.558442 209.82054 
L 122.810747 209.82054 
L 123.332176 208.864965 
L 123.828374 208.814202 
L 124.341393 208.489607 
L 129.715476 208.489607 
L 130.228495 207.784543 
L 130.48921 207.784543 
L 130.741514 207.5142 
L 132.028266 207.5142 
L 132.288981 207.077665 
L 138.167673 207.077665 
L 138.428387 206.144646 
L 138.924586 206.144646 
L 139.1853 205.624056 
L 139.698319 205.228221 
L 139.950624 205.228221 
L 140.211338 204.807155 
L 146.09844 204.807155 
L 146.359155 204.355602 
L 146.872174 203.21683 
L 147.132888 202.601826 
L 147.385193 202.601826 
L 147.645907 202.354306 
L 148.142106 201.228017 
L 149.168143 201.228017 
L 149.428858 200.963145 
L 150.202591 200.916798 
L 151.211809 200.830169 
L 152.498561 200.600616 
L 155.576675 200.600616 
L 155.837389 199.52102 
L 156.089693 199.52102 
L 156.350408 199.377136 
L 156.602712 199.377136 
L 156.863427 198.958007 
L 157.62034 198.958007 
L 157.872644 198.455485 
L 158.133359 197.415058 
L 158.385663 196.879011 
L 160.942348 196.879011 
L 161.203062 194.551234 
L 161.716081 193.609743 
L 162.2291 193.609743 
L 162.489814 193.098081 
L 165.811822 193.098081 
L 166.072536 192.974659 
L 168.107792 192.974659 
L 168.360096 191.875128 
L 168.620811 190.197883 
L 168.873115 189.630453 
L 177.569206 189.630453 
L 177.82992 189.215694 
L 178.603654 189.184962 
L 178.847548 188.916978 
L 179.108262 188.066675 
L 179.873586 187.730108 
L 190.117143 187.730108 
L 190.369447 186.284719 
L 230.30923 186.284719 
L 230.569944 184.802755 
L 230.830659 184.461109 
L 232.352895 184.461109 
L 232.61361 183.574073 
L 232.865914 183.164146 
L 233.378933 180.846268 
L 233.900362 179.694373 
L 234.39656 177.200281 
L 234.648865 176.689546 
L 238.231587 176.689546 
L 238.492301 176.547537 
L 239.00532 176.547537 
L 239.779054 174.31374 
L 240.796681 174.276158 
L 241.057396 173.769044 
L 241.3097 172.827805 
L 241.570415 172.405265 
L 265.631842 172.367704 
L 265.884146 171.110087 
L 266.144861 164.032985 
L 267.692327 164.032985 
L 267.927812 163.794802 
L 268.188526 161.539473 
L 268.44083 157.207142 
L 274.067218 157.207142 
L 274.580237 154.058182 
L 274.840951 153.897033 
L 295.832675 153.897033 
L 296.084979 153.76918 
L 296.597998 151.93451 
L 296.858713 151.93451 
L 297.119427 151.587554 
L 297.371732 150.221554 
L 297.632446 149.898386 
L 297.884751 149.803526 
L 298.40618 147.145756 
L 299.154683 145.724826 
L 300.702149 145.724826 
L 300.954454 145.351964 
L 301.215168 144.638653 
L 301.475883 144.638653 
L 301.719777 144.362001 
L 301.980492 144.362001 
L 302.493511 143.244572 
L 313.763106 143.244572 
L 314.267715 142.105093 
L 317.850437 142.105093 
L 318.102741 140.638522 
L 318.363456 139.861635 
L 318.62417 139.556959 
L 318.876474 138.718724 
L 319.137189 138.395741 
L 319.650208 136.894733 
L 319.910922 136.36555 
L 320.146406 136.165111 
L 320.659425 136.102464 
L 321.172444 136.102464 
L 321.693873 134.143384 
L 321.946178 133.548675 
L 322.459197 133.548675 
L 322.719911 132.252709 
L 322.980626 131.924904 
L 323.21611 131.924904 
L 323.476824 131.709032 
L 323.989843 131.709032 
L 324.242147 131.214267 
L 324.502862 130.423145 
L 325.276595 130.423145 
L 325.789614 129.077991 
L 326.050329 129.077991 
L 326.294223 128.955554 
L 326.807242 128.857086 
L 327.067956 128.25978 
L 327.320261 128.111626 
L 330.911393 128.046214 
L 331.676716 126.358436 
L 332.694344 123.621984 
L 332.946648 122.78376 
L 333.207363 122.526049 
L 333.459667 121.600529 
L 334.233401 119.875935 
L 335.007134 117.418511 
L 335.267848 116.738296 
L 335.503333 116.738296 
L 335.764047 115.96114 
L 336.016351 115.96114 
L 336.52937 113.740481 
L 343.963939 113.672396 
L 344.224654 113.333453 
L 344.485368 113.185085 
L 344.720852 112.826354 
L 344.981567 112.711095 
L 345.494586 111.397119 
L 345.74689 110.828494 
L 346.520623 108.388751 
L 347.294357 106.623737 
L 352.66844 106.51604 
L 353.181459 105.213298 
L 353.442173 104.975118 
L 357.781809 104.975118 
L 358.034113 104.65374 
L 358.807846 104.65374 
L 359.068561 103.841541 
L 396.182534 103.841541 
L 396.939447 99.285017 
L 406.156967 99.202156 
L 406.9307 99.148147 
L 419.470228 99.148147 
L 419.730942 99.023486 
L 420.243961 94.906473 
L 420.504676 93.929284 
L 420.75698 93.556277 
L 421.278409 92.35701 
L 421.513893 91.722751 
L 425.618044 91.722751 
L 425.878759 89.935463 
L 426.904796 89.765654 
L 427.426226 87.918925 
L 427.66171 87.918925 
L 427.922424 87.801922 
L 428.174728 87.308289 
L 429.209176 87.304676 
L 429.461481 87.067761 
L 429.9745 84.768543 
L 430.235214 84.667402 
L 430.992127 81.470417 
L 432.531184 81.470417 
L 433.044203 81.352222 
L 436.113906 81.352222 
L 436.374621 80.524094 
L 436.635335 80.138226 
L 437.392248 80.138226 
L 437.652963 79.602555 
L 438.165982 79.602555 
L 438.679001 79.067534 
L 438.939715 79.067534 
L 439.713448 77.539569 
L 439.948933 77.539569 
L 440.209647 77.266805 
L 444.818407 77.266805 
L 445.331426 76.009889 
L 445.59214 76.009889 
L 445.852855 73.709514 
L 446.088339 73.104096 
L 446.349053 72.761769 
L 446.862072 72.750727 
L 447.114377 72.616576 
L 447.375091 72.325655 
L 448.148825 72.325655 
L 448.401129 72.14342 
L 448.661844 71.193613 
L 449.940186 71.123621 
L 450.19249 70.935434 
L 450.966223 70.935434 
L 451.479242 69.763075 
L 451.739957 69.763075 
L 452.000671 69.474218 
L 452.749174 69.31831 
L 453.009889 69.164666 
L 455.566573 69.157073 
L 455.818878 68.953041 
L 456.331896 68.953041 
L 456.592611 68.711459 
L 457.618649 68.711459 
L 457.879363 68.28209 
L 458.888581 65.843877 
L 459.4016 64.479647 
L 459.662314 64.426361 
L 459.923029 63.692134 
L 460.175333 63.56818 
L 460.688352 62.425817 
L 460.949066 62.425817 
L 461.209781 61.548421 
L 462.479713 61.548421 
L 463.253446 60.000996 
L 501.385047 60.000996 
L 501.898066 56.280192 
L 502.411085 55.559885 
L 502.671799 53.94937 
L 503.184818 52.718228 
L 503.445533 52.340022 
L 505.480788 52.340022 
L 505.741503 52.186399 
L 506.254522 50.94173 
L 509.07192 50.94173 
L 509.584939 49.874033 
L 509.837244 49.492903 
L 510.097958 48.592927 
L 510.358673 48.303704 
L 511.3763 48.303704 
L 511.889319 47.074445 
L 512.663053 47.074445 
L 512.915357 46.558882 
L 513.176071 45.732906 
L 513.436786 45.416008 
L 514.185289 43.947025 
L 514.446004 43.947025 
L 514.698308 43.274217 
L 514.959022 43.245746 
L 515.219737 43.018081 
L 515.472041 42.517526 
L 515.732756 41.668678 
L 515.98506 41.345586 
L 516.506489 41.325241 
L 516.741973 40.917359 
L 517.002688 40.917359 
L 517.254992 40.667992 
L 517.515707 40.038385 
L 518.028726 39.926239 
L 518.541744 39.926239 
L 518.802459 39.679627 
L 522.645896 39.679627 
L 522.88979 38.459884 
L 523.150504 38.117488 
L 523.402809 38.117488 
L 523.663523 37.961607 
L 523.915828 37.281742 
L 524.689561 37.281742 
L 524.950276 36.994583 
L 525.20258 36.178714 
L 525.463294 35.998799 
L 525.959493 35.268733 
L 526.220208 35.268733 
L 526.985531 34.361518 
L 527.246245 34.361518 
L 527.50696 34.125117 
L 527.759264 33.537885 
L 528.019979 33.378173 
L 531.341986 33.378173 
L 531.863415 32.742335 
L 535.177013 32.742335 
L 535.437727 31.823109 
L 535.437727 31.823109 
" style="fill:none;stroke:#1f77b4;stroke-linecap:square;"/>
   </g>
   <g id="line2d_15">
    <path clip-path="url(#pa2fd8126b2)" d="M 76.992273 241.284505 
L 77.252987 241.538182 
L 77.488471 241.239717 
L 78.00149 238.647514 
L 78.262205 238.394447 
L 78.514509 238.696599 
L 78.775224 237.995459 
L 79.035938 238.185155 
L 79.288243 239.53861 
L 79.548957 239.20982 
L 79.801261 239.146629 
L 80.061976 238.520792 
L 80.32269 238.337008 
L 80.566585 237.876028 
L 81.079604 237.57528 
L 81.340318 237.529354 
L 81.592622 237.242152 
L 82.114051 237.983454 
L 82.366356 237.322079 
L 82.62707 237.927791 
L 82.879375 237.004676 
L 83.140089 236.733408 
L 83.897002 237.16989 
L 84.410021 236.101988 
L 84.92304 235.917583 
L 85.436059 238.778103 
L 85.696774 238.735009 
L 86.209792 236.290676 
L 86.470507 235.54237 
L 87.21901 236.124737 
L 87.479724 235.579614 
L 87.732029 235.619786 
L 88.253458 234.813342 
L 88.766477 233.89597 
L 89.018781 233.906773 
L 89.54021 233.698927 
L 89.775694 233.296107 
L 90.036409 233.074539 
L 90.288713 233.25433 
L 90.549428 233.196764 
L 90.801732 233.022572 
L 91.323161 232.870381 
L 91.575465 233.086671 
L 91.83618 232.439572 
L 92.088484 232.133745 
L 92.349199 231.39712 
L 92.609913 230.996729 
L 92.853808 230.925931 
L 93.114522 231.429449 
L 93.366826 231.330084 
L 93.627541 230.760326 
L 93.879845 230.887397 
L 94.14056 231.848131 
L 94.401274 233.234738 
L 95.427312 234.804691 
L 95.688027 235.381731 
L 95.923511 235.361467 
L 96.184225 237.383157 
L 96.697244 237.848695 
L 96.949549 236.992631 
L 97.470978 233.008391 
L 97.723282 232.444294 
L 97.983996 232.237049 
L 98.236301 232.198669 
L 98.497015 231.447 
L 98.75773 231.582989 
L 99.766947 227.854378 
L 100.019252 227.570347 
L 100.279966 227.897747 
L 100.540681 227.380119 
L 100.792985 227.29201 
L 101.0537 227.02035 
L 101.566719 225.933028 
L 101.827433 225.332564 
L 102.062917 225.345119 
L 102.575936 223.305305 
L 103.088955 222.604787 
L 103.610384 222.244297 
L 103.862688 221.138126 
L 104.123403 221.065934 
L 104.375707 221.672557 
L 104.636422 221.414706 
L 105.401745 220.289989 
L 105.654049 221.31936 
L 105.914764 220.711 
L 106.427783 218.844948 
L 106.688497 219.020511 
L 107.453821 216.664479 
L 107.714535 215.139708 
L 107.97525 215.344883 
L 108.210734 215.027522 
L 108.471448 215.227608 
L 108.723753 214.004108 
L 108.984467 213.666564 
L 109.497486 215.389341 
L 110.010505 216.394587 
L 110.271219 215.968949 
L 110.523524 216.500168 
L 110.784238 216.724268 
L 111.044953 217.295081 
L 111.280437 217.233714 
L 111.541151 217.331982 
L 112.05417 217.889924 
L 112.306475 216.440913 
L 112.567189 215.915296 
L 112.827904 215.03637 
L 113.080208 215.33042 
L 113.340923 215.960679 
L 113.593227 215.55285 
L 113.853942 215.564259 
L 114.114656 216.145191 
L 114.610855 214.845617 
L 114.863159 214.904519 
L 115.123874 213.993543 
L 115.376178 213.792916 
L 115.636892 214.670873 
L 115.897607 214.116515 
L 116.149911 214.591 
L 116.410626 213.951107 
L 116.923645 215.064997 
L 117.184359 214.391388 
L 117.428253 214.362651 
L 117.688968 214.787384 
L 118.201987 216.756078 
L 118.454291 216.399808 
L 118.715006 214.992204 
L 119.228025 215.661803 
L 119.488739 215.490079 
L 119.741044 215.169061 
L 120.001758 215.535472 
L 120.497957 214.362576 
L 120.758671 214.541081 
L 121.27169 213.652737 
L 121.523994 213.02688 
L 121.784709 211.771993 
L 122.045423 211.6907 
L 122.558442 209.238794 
L 122.810747 209.82054 
L 123.332176 208.755282 
L 123.56766 208.864965 
L 123.828374 208.814202 
L 124.080679 208.625074 
L 124.341393 207.329278 
L 124.593698 207.200393 
L 124.854412 207.231467 
L 125.628146 205.423231 
L 126.141164 206.841764 
L 126.401879 207.174453 
L 127.150382 205.627306 
L 127.663401 206.117567 
L 127.924115 206.832557 
L 128.18483 206.771959 
L 128.437134 207.665132 
L 128.697849 207.430421 
L 128.950153 207.961971 
L 129.210868 207.962176 
L 129.471582 207.756223 
L 129.715476 208.489607 
L 129.976191 208.07562 
L 130.228495 207.454733 
L 130.48921 207.784543 
L 131.002229 206.882082 
L 131.262943 206.285814 
L 131.515248 206.57619 
L 132.028266 207.5142 
L 132.288981 206.28083 
L 132.549695 205.708033 
L 132.78518 205.817212 
L 133.045894 205.780618 
L 133.298198 204.613918 
L 133.558913 204.184312 
L 133.811217 204.545197 
L 134.332646 203.87838 
L 134.584951 204.194983 
L 134.845665 204.319257 
L 135.09797 204.626572 
L 135.358684 203.790455 
L 135.854883 204.041491 
L 136.367902 202.839978 
L 136.880921 203.004042 
L 137.141635 204.21014 
L 137.40235 204.744799 
L 138.167673 207.077665 
L 138.428387 205.660265 
L 138.689102 205.577496 
L 138.924586 206.144646 
L 139.1853 205.624056 
L 139.698319 205.218394 
L 139.950624 205.228221 
L 140.211338 204.449318 
L 140.472053 202.456286 
L 140.985072 202.361993 
L 141.498091 200.647057 
L 141.758805 200.53693 
L 142.002699 199.675794 
L 142.263414 199.35597 
L 142.515718 199.283374 
L 142.776433 199.324425 
L 143.028737 199.818156 
L 143.289452 199.718728 
L 143.550166 200.177933 
L 143.802471 199.681277 
L 144.315489 200.647915 
L 144.576204 200.974112 
L 144.836918 201.532923 
L 145.072403 201.723136 
L 145.333117 201.38075 
L 145.585421 202.991451 
L 145.846136 203.390231 
L 146.09844 204.807155 
L 146.359155 204.355602 
L 147.132888 202.232829 
L 147.385193 202.601826 
L 147.645907 202.354306 
L 147.906622 201.665892 
L 148.142106 200.343335 
L 148.40282 199.971461 
L 148.655125 200.681076 
L 148.915839 200.878288 
L 149.168143 201.228017 
L 149.689573 200.840021 
L 150.202591 200.737928 
L 150.454896 200.541459 
L 150.976325 200.916798 
L 151.472523 200.761745 
L 151.724828 199.843664 
L 151.985542 199.647751 
L 152.759276 198.310665 
L 153.01158 198.548993 
L 153.524599 200.112191 
L 153.785313 199.97865 
L 154.046028 198.721305 
L 154.289922 198.981851 
L 154.802941 198.109327 
L 155.063656 198.102595 
L 155.576675 200.600616 
L 155.837389 199.43476 
L 156.089693 199.52102 
L 156.350408 198.663236 
L 156.602712 199.377136 
L 156.863427 198.684432 
L 157.124141 198.810208 
L 157.359625 198.683432 
L 157.62034 198.958007 
L 157.872644 198.455485 
L 158.385663 196.419725 
L 158.907092 195.502409 
L 159.159397 195.827318 
L 159.420111 196.520724 
L 159.93313 195.362933 
L 160.193845 195.641806 
L 160.429329 196.552205 
L 160.690043 196.848059 
L 160.942348 196.879011 
L 161.203062 194.551234 
L 161.455366 194.098651 
L 161.716081 193.254239 
L 161.976795 193.228879 
L 162.2291 193.609743 
L 162.742119 191.816008 
L 163.002833 190.199974 
L 163.759746 189.559765 
L 164.272765 191.115154 
L 164.785784 190.304113 
L 165.046499 191.292212 
L 165.298803 191.598703 
L 165.559518 191.404425 
L 165.811822 193.098081 
L 166.333251 192.56608 
L 166.821039 191.993501 
L 167.334058 192.739794 
L 167.586363 192.921713 
L 167.847077 192.292362 
L 168.107792 192.974659 
L 168.360096 191.875128 
L 168.873115 188.616156 
L 169.133829 188.196219 
L 169.630028 186.504619 
L 169.890743 184.460149 
L 170.143047 185.486093 
L 170.403761 183.405625 
L 170.656066 185.076677 
L 170.91678 184.979764 
L 171.429799 185.44626 
L 171.690514 185.183302 
L 171.942818 185.711145 
L 172.203533 184.937186 
L 172.960446 184.064688 
L 173.473465 184.605219 
L 173.725769 184.063942 
L 173.986484 183.1892 
L 174.247198 183.324607 
L 174.499502 185.374985 
L 174.760217 185.431441 
L 175.012521 186.091733 
L 175.273236 185.203292 
L 175.769434 185.321047 
L 176.030149 186.128635 
L 176.282453 185.974806 
L 176.795472 188.005586 
L 177.569206 189.630453 
L 177.82992 189.215694 
L 178.082225 188.164398 
L 178.342939 188.21568 
L 178.603654 189.184962 
L 178.847548 188.916978 
L 179.108262 188.066675 
L 179.621281 187.810129 
L 179.873586 186.862996 
L 180.395015 185.573453 
L 180.647319 184.289758 
L 180.908034 183.585473 
L 181.160338 183.312092 
L 181.421052 182.788459 
L 181.917251 180.916694 
L 182.177966 181.113531 
L 182.43027 181.87492 
L 182.690984 181.560754 
L 183.204003 180.245933 
L 183.717022 179.512311 
L 183.977737 179.806914 
L 184.230041 179.46794 
L 184.490756 178.685657 
L 184.75147 178.774979 
L 184.986954 179.236865 
L 185.247669 179.461087 
L 185.499973 180.199886 
L 186.012992 179.615268 
L 186.273706 178.516221 
L 186.534421 178.042094 
L 186.786725 179.0838 
L 187.04744 178.811729 
L 187.560459 179.470634 
L 187.821173 180.522266 
L 188.056657 182.402886 
L 188.317372 182.214332 
L 188.830391 184.13439 
L 189.082695 183.246219 
L 189.34341 184.79625 
L 189.604124 184.920403 
L 189.856429 187.459908 
L 190.117143 187.730108 
L 190.630162 184.866992 
L 190.890877 185.3027 
L 191.64779 182.151866 
L 191.908504 182.026795 
L 192.160809 181.403344 
L 192.421523 180.423474 
L 192.682238 180.566899 
L 192.934542 180.451886 
L 193.195256 179.208907 
L 193.708275 178.506152 
L 193.96899 179.267174 
L 194.465188 178.332862 
L 194.717493 177.780461 
L 194.978207 177.5495 
L 195.491226 176.806717 
L 195.751941 176.922861 
L 196.26496 177.416009 
L 196.517264 177.295511 
L 196.777979 177.47197 
L 197.038693 178.162192 
L 197.274177 177.970689 
L 197.534892 178.605952 
L 197.787196 178.472485 
L 198.300215 180.231291 
L 198.560929 179.424406 
L 198.821644 178.981511 
L 199.073948 177.303679 
L 199.334663 176.802924 
L 199.586967 177.311389 
L 199.847682 176.712377 
L 200.108396 175.592463 
L 200.34388 175.977286 
L 201.117614 174.248904 
L 201.369918 174.480404 
L 201.891347 177.416041 
L 202.143652 177.198741 
L 202.404366 176.052192 
L 202.65667 175.644579 
L 202.917385 175.752914 
L 203.178099 176.067794 
L 203.421994 175.811259 
L 203.935013 175.642771 
L 204.195727 175.345176 
L 204.448031 175.23521 
L 204.708746 174.877999 
L 205.482479 175.000352 
L 206.491697 176.756501 
L 206.752411 176.683933 
L 207.004716 176.952808 
L 207.26543 178.159649 
L 207.517735 177.987464 
L 207.778449 177.327873 
L 208.039164 177.242557 
L 208.552183 178.47302 
L 208.804487 178.181843 
L 209.325916 176.640131 
L 209.822115 177.14401 
L 210.335133 177.137519 
L 210.587438 178.455267 
L 210.848152 178.775472 
L 211.108867 178.675215 
L 211.361171 178.366346 
L 211.621886 178.478151 
L 211.87419 179.097786 
L 212.134905 178.626656 
L 212.395619 178.598853 
L 212.631103 177.747359 
L 212.891818 176.330066 
L 213.144122 176.948051 
L 213.404837 176.615843 
L 213.657141 176.600976 
L 214.691589 173.148739 
L 214.943893 173.023619 
L 215.204608 173.483897 
L 215.969931 174.220031 
L 216.222235 173.865091 
L 216.48295 173.764712 
L 216.735254 173.96412 
L 216.995969 173.901882 
L 217.508988 172.981436 
L 217.769702 172.776786 
L 218.543436 175.963486 
L 218.77892 175.204102 
L 219.291939 177.387859 
L 219.552653 177.169863 
L 219.804958 177.305278 
L 220.065672 178.136469 
L 221.09171 183.394483 
L 221.613139 181.808859 
L 221.848623 181.928012 
L 222.109338 182.274827 
L 222.361642 181.903985 
L 222.622356 182.017737 
L 222.874661 182.273741 
L 223.135375 182.354064 
L 223.39609 182.736016 
L 223.648394 182.126696 
L 223.909109 181.863087 
L 224.161413 182.41942 
L 224.422128 182.426089 
L 225.179041 180.908183 
L 225.431345 179.636351 
L 225.69206 178.971246 
L 225.944364 178.811009 
L 226.205078 180.542065 
L 226.465793 180.224168 
L 226.718097 179.424412 
L 227.491831 181.959787 
L 227.752545 183.891076 
L 227.99644 182.560327 
L 228.257154 183.263129 
L 228.509458 184.833955 
L 228.770173 185.39662 
L 229.022477 185.20532 
L 229.283192 185.413289 
L 229.543906 184.241223 
L 229.796211 183.992353 
L 230.056925 184.866753 
L 230.30923 186.284719 
L 230.569944 184.802755 
L 230.830659 184.14323 
L 231.066143 184.445818 
L 231.326857 183.993479 
L 231.579162 182.762308 
L 231.839876 184.275901 
L 232.352895 184.461109 
L 232.61361 183.574073 
L 232.865914 183.164146 
L 233.378933 180.846268 
L 233.900362 179.694373 
L 234.648865 176.290165 
L 234.909579 176.388235 
L 235.161884 176.263669 
L 235.683313 174.485259 
L 235.935617 174.054409 
L 236.196332 175.159288 
L 236.448636 175.231042 
L 236.709351 174.715274 
L 236.970065 173.731195 
L 237.205549 173.294667 
L 238.231587 176.689546 
L 238.492301 176.346249 
L 238.753016 176.226086 
L 239.00532 176.547537 
L 240.039768 173.880892 
L 240.544377 174.31374 
L 240.796681 174.276158 
L 241.057396 173.769044 
L 241.570415 171.884744 
L 242.083434 172.405265 
L 242.857167 169.115095 
L 243.117882 168.719471 
L 243.353366 169.310648 
L 243.61408 169.315207 
L 243.866385 168.673636 
L 244.127099 168.44787 
L 244.900832 167.065443 
L 245.153137 166.28859 
L 245.666156 165.363506 
L 245.92687 164.957539 
L 246.187585 164.838094 
L 246.423069 166.115253 
L 246.683783 166.737982 
L 246.936088 166.373909 
L 247.709821 162.931351 
L 247.970536 162.643861 
L 248.22284 163.156284 
L 248.483555 162.910292 
L 248.735859 162.342924 
L 248.996573 162.150837 
L 250.005791 159.707398 
L 250.266505 159.5916 
L 250.779524 157.36966 
L 251.040239 156.243302 
L 251.292543 156.613737 
L 251.805562 155.364207 
L 252.326991 155.128831 
L 253.083904 151.979672 
L 253.344619 152.845893 
L 253.596923 152.614811 
L 253.857638 151.865364 
L 254.118352 150.602109 
L 254.370657 149.983315 
L 254.631371 148.530085 
L 254.883675 148.258216 
L 255.14439 146.683852 
L 255.405104 146.511449 
L 255.640589 145.954724 
L 255.901303 145.89233 
L 256.414322 145.300711 
L 256.927341 142.44883 
L 257.188055 141.565337 
L 257.44036 143.877778 
L 257.701074 150.312978 
L 257.953379 149.280504 
L 258.214093 148.772095 
L 258.971006 145.051631 
L 259.223311 146.159985 
L 259.484025 148.213297 
L 259.997044 148.396321 
L 260.257759 148.451872 
L 260.510063 151.363789 
L 261.023082 153.684154 
L 261.283796 152.678508 
L 261.544511 150.751453 
L 261.779995 150.117652 
L 262.293014 153.756481 
L 262.553728 154.052374 
L 262.806033 153.251728 
L 263.066747 153.785769 
L 263.579766 159.667767 
L 263.840481 158.951302 
L 264.092785 163.020328 
L 264.614214 162.47708 
L 264.858108 162.09029 
L 265.118823 167.509051 
L 265.631842 172.367704 
L 265.884146 171.110087 
L 266.144861 162.182986 
L 266.405575 159.941405 
L 266.65788 162.784593 
L 266.918594 162.700814 
L 267.170898 163.11104 
L 267.431613 161.838036 
L 267.692327 164.032985 
L 267.927812 163.794802 
L 268.188526 161.539473 
L 268.701545 152.820074 
L 268.953849 151.7572 
L 269.214564 152.927829 
L 269.475278 153.031363 
L 269.727583 155.119625 
L 270.240602 154.047932 
L 270.762031 151.370472 
L 270.997515 152.413367 
L 271.258229 151.988777 
L 271.510534 154.181761 
L 271.771248 153.98271 
L 272.284267 155.68459 
L 272.544982 156.429627 
L 272.797286 156.017333 
L 273.310305 154.964482 
L 273.571019 155.193859 
L 273.831734 155.912063 
L 274.067218 157.207142 
L 275.35397 150.422786 
L 275.866989 149.286142 
L 276.127704 147.471864 
L 276.380008 147.408012 
L 277.145331 144.298138 
L 277.406046 144.208068 
L 277.65835 145.298726 
L 277.919065 144.502093 
L 278.171369 143.369554 
L 278.692798 142.730907 
L 278.945102 141.580356 
L 279.205817 140.928152 
L 279.458121 141.223235 
L 279.97955 139.961535 
L 280.215034 140.062012 
L 280.728053 142.46484 
L 280.988768 143.180668 
L 281.241072 142.015839 
L 281.501787 141.715453 
L 282.014806 148.216318 
L 282.27552 149.893195 
L 282.527825 149.960302 
L 282.788539 148.988574 
L 283.049254 149.223416 
L 283.545452 151.429726 
L 284.058471 150.343661 
L 284.310775 146.396701 
L 284.57149 146.177109 
L 284.832204 147.064221 
L 285.084509 144.587817 
L 285.345223 144.495696 
L 285.597528 145.050569 
L 285.858242 145.297911 
L 286.354441 145.184692 
L 286.615155 147.798185 
L 286.86746 146.945907 
L 287.380479 145.894411 
L 287.641193 146.12013 
L 287.901908 144.351511 
L 288.154212 143.905509 
L 288.667231 144.622457 
L 288.927945 144.500424 
L 289.18866 144.700589 
L 289.432554 144.730573 
L 289.693269 144.430361 
L 290.206288 149.396983 
L 290.719306 147.884093 
L 290.980021 146.897914 
L 291.232325 146.589091 
L 291.49304 145.993191 
L 291.745344 146.918289 
L 292.006059 146.765167 
L 292.266773 148.01148 
L 292.502257 147.912988 
L 293.015276 149.092492 
L 293.275991 148.678323 
L 293.528295 147.500884 
L 293.78901 147.771301 
L 294.049724 147.872127 
L 294.815047 151.327362 
L 295.075762 151.054467 
L 295.336476 151.720893 
L 295.832675 153.897033 
L 296.084979 153.76918 
L 296.597998 151.812684 
L 296.858713 151.93451 
L 297.119427 151.587554 
L 297.371732 150.221554 
L 297.632446 149.898386 
L 297.884751 149.803526 
L 298.40618 147.145756 
L 298.902378 146.143378 
L 299.415397 144.901825 
L 299.667702 144.261058 
L 299.928416 145.122161 
L 300.189131 144.709498 
L 300.441435 144.814982 
L 300.702149 145.724826 
L 300.954454 145.351964 
L 301.215168 144.587815 
L 301.475883 144.638653 
L 301.719777 143.961686 
L 301.980492 144.362001 
L 302.232796 143.899147 
L 302.745815 142.445452 
L 303.267244 142.930114 
L 303.519548 142.326966 
L 303.780263 142.386902 
L 304.032567 141.96219 
L 304.553996 140.477464 
L 304.78948 140.410056 
L 305.563214 138.834501 
L 305.815518 139.196517 
L 306.076233 139.04646 
L 306.589251 136.63745 
L 306.849966 135.885385 
L 307.10227 135.577061 
L 307.362985 134.682775 
L 307.623699 134.44065 
L 307.859183 135.249736 
L 308.119898 133.975113 
L 308.372202 133.980637 
L 308.632917 134.281383 
L 308.885221 136.045448 
L 309.145936 136.818093 
L 309.40665 140.329457 
L 309.919669 141.649918 
L 310.171974 141.139872 
L 310.432688 140.944983 
L 310.693403 140.057398 
L 310.928887 141.242582 
L 311.189601 141.951605 
L 311.441906 142.240321 
L 311.70262 141.519992 
L 311.954924 140.33719 
L 312.215639 140.954552 
L 312.476354 141.885279 
L 312.728658 141.25084 
L 312.989372 141.496139 
L 313.763106 143.244572 
L 314.007 142.750174 
L 314.520019 140.43048 
L 314.780733 139.656552 
L 315.293752 140.957751 
L 315.554467 141.100709 
L 315.806771 140.345783 
L 316.067486 141.276747 
L 316.31979 141.219228 
L 316.580505 140.785884 
L 316.841219 141.321642 
L 317.076703 141.005577 
L 317.589722 140.952438 
L 317.850437 142.105093 
L 318.102741 140.638522 
L 318.363456 139.861635 
L 318.62417 139.556959 
L 318.876474 138.718724 
L 319.137189 138.395741 
L 319.650208 136.894733 
L 319.910922 136.36555 
L 320.146406 136.165111 
L 320.92014 134.368148 
L 321.172444 136.102464 
L 321.693873 134.143384 
L 321.946178 133.335704 
L 322.206892 133.337755 
L 322.459197 133.548675 
L 322.719911 132.252709 
L 322.980626 131.607542 
L 323.21611 131.924904 
L 323.476824 131.519234 
L 323.729129 131.467177 
L 323.989843 131.709032 
L 324.242147 131.214267 
L 324.502862 130.188516 
L 324.763576 129.698791 
L 325.015881 129.776359 
L 325.276595 130.423145 
L 325.789614 128.955976 
L 326.050329 129.077991 
L 326.294223 128.918987 
L 326.554937 128.955554 
L 326.807242 128.857086 
L 327.320261 127.717692 
L 327.580975 127.531449 
L 328.093994 128.111626 
L 328.867728 126.125553 
L 329.128442 126.209492 
L 329.363926 126.087363 
L 329.624641 127.056153 
L 329.876945 126.923906 
L 330.13766 127.671504 
L 330.389964 127.269357 
L 330.650678 127.158555 
L 330.911393 128.046214 
L 331.676716 126.358436 
L 332.694344 123.621984 
L 332.946648 122.78376 
L 333.207363 122.526049 
L 333.459667 121.600529 
L 334.233401 119.875935 
L 335.267848 116.646101 
L 335.503333 116.738296 
L 335.764047 115.944845 
L 336.016351 115.96114 
L 336.52937 113.210212 
L 336.790085 113.27293 
L 337.050799 112.352824 
L 337.303104 113.37942 
L 337.563818 111.929564 
L 337.816123 111.588814 
L 338.076837 112.100304 
L 338.337552 111.898353 
L 338.581446 110.419922 
L 338.84216 110.185737 
L 339.094465 110.874734 
L 339.355179 111.086427 
L 339.607484 110.055221 
L 339.868198 110.037198 
L 340.128913 110.780097 
L 340.641932 111.214841 
L 340.894236 110.912664 
L 341.15495 111.311594 
L 341.415665 112.253741 
L 341.651149 111.989226 
L 341.911864 111.511593 
L 342.164168 110.722382 
L 342.677187 110.05043 
L 343.45092 113.280722 
L 343.711635 113.740481 
L 343.963939 113.672396 
L 344.224654 113.333453 
L 344.485368 113.185085 
L 344.720852 112.826354 
L 344.981567 112.711095 
L 345.494586 111.397119 
L 345.74689 110.828494 
L 346.520623 108.388751 
L 347.294357 106.427327 
L 347.555071 106.623737 
L 347.790555 106.035682 
L 348.303574 105.329601 
L 348.564289 105.531675 
L 348.816593 104.724974 
L 349.077308 104.792389 
L 349.338022 105.666072 
L 349.590327 105.700759 
L 349.851041 105.558797 
L 350.103346 104.835455 
L 350.36406 105.079491 
L 350.624775 105.931076 
L 350.868669 106.159826 
L 351.129383 105.898143 
L 351.381688 106.030845 
L 351.642402 105.272342 
L 351.894707 105.743551 
L 352.155421 105.429202 
L 352.66844 106.51604 
L 353.442173 104.091048 
L 353.938372 102.472317 
L 354.199087 101.861094 
L 354.451391 101.594323 
L 354.96441 101.972891 
L 355.225124 101.101354 
L 355.485839 101.287505 
L 355.738143 101.003505 
L 355.998858 100.01266 
L 356.251162 99.766442 
L 356.511877 100.51995 
L 356.772591 100.188761 
L 357.008075 100.116168 
L 357.26879 100.821274 
L 357.521094 102.403944 
L 357.781809 104.975118 
L 358.294828 103.843351 
L 358.555542 104.039432 
L 358.807846 104.65374 
L 359.320865 102.216513 
L 359.58158 101.353445 
L 359.842294 101.016998 
L 360.077778 101.109587 
L 360.338493 100.077315 
L 360.590797 99.600174 
L 360.851512 99.623349 
L 361.103816 99.953629 
L 361.625245 98.713235 
L 362.138264 98.740369 
L 362.390568 98.306404 
L 362.651283 97.610135 
L 363.155892 96.861751 
L 363.668911 96.246552 
L 363.929625 96.389451 
L 364.18193 95.632366 
L 364.442644 95.825153 
L 365.216377 94.934578 
L 365.468682 95.252916 
L 365.729396 94.66162 
L 365.990111 94.455064 
L 366.225595 94.451576 
L 366.738614 93.825315 
L 366.999328 94.939316 
L 367.251633 94.91699 
L 367.512347 94.471288 
L 368.025366 93.26343 
L 368.286081 93.035615 
L 368.538385 93.147147 
L 368.7991 92.730124 
L 369.059814 92.954704 
L 369.295298 93.856982 
L 369.556013 93.294938 
L 369.808317 94.385179 
L 370.321336 94.630756 
L 370.58205 96.022099 
L 370.842765 96.717151 
L 371.095069 96.967049 
L 371.355784 95.867424 
L 371.608088 95.715975 
L 372.365001 93.590614 
L 372.87802 92.867503 
L 373.138735 93.143044 
L 373.912468 92.176256 
L 374.164773 92.218712 
L 374.425487 92.902544 
L 374.677791 92.314533 
L 374.938506 92.443161 
L 375.19922 93.428797 
L 375.443115 93.824255 
L 375.703829 92.317999 
L 376.216848 91.350215 
L 376.469152 91.461821 
L 376.729867 91.937061 
L 377.242886 90.816437 
L 377.755905 90.288832 
L 378.016619 91.212021 
L 378.277334 91.381709 
L 378.512818 91.969385 
L 378.773532 91.609132 
L 379.025837 90.933995 
L 379.538856 93.160918 
L 379.79957 93.336326 
L 380.312589 93.090747 
L 380.573304 92.993642 
L 380.825608 94.20162 
L 381.086322 94.383185 
L 381.347037 95.184727 
L 381.582521 94.873315 
L 381.843236 95.630937 
L 382.09554 98.205233 
L 382.356254 98.37226 
L 382.608559 98.370808 
L 382.869273 97.690642 
L 383.129988 96.498309 
L 383.382292 96.084878 
L 383.643007 96.148983 
L 384.156026 93.933227 
L 384.912939 91.870147 
L 385.938977 93.239606 
L 386.199691 92.717964 
L 386.451995 93.169522 
L 386.71271 94.11848 
L 387.225729 91.833703 
L 387.486443 91.498233 
L 387.730338 91.00034 
L 387.991052 90.785855 
L 388.243356 91.002417 
L 388.504071 90.944078 
L 388.756375 91.153059 
L 389.01709 90.414733 
L 389.277804 90.723869 
L 389.530109 90.7358 
L 389.790823 89.697754 
L 390.043128 89.261991 
L 390.303842 89.102681 
L 390.800041 90.455229 
L 391.31306 91.650063 
L 391.573774 92.221446 
L 391.826079 92.013672 
L 392.086793 92.744442 
L 392.347508 92.371624 
L 392.599812 91.677501 
L 393.112831 94.957222 
L 393.373545 94.782273 
L 393.63426 95.585538 
L 393.869744 94.90432 
L 394.382763 96.88623 
L 394.643477 96.963317 
L 394.895782 99.689568 
L 395.156496 100.759355 
L 395.417211 103.248147 
L 395.669515 102.959006 
L 395.93023 102.345326 
L 396.182534 103.841541 
L 396.939447 99.201991 
L 397.200162 98.968945 
L 397.452466 97.710174 
L 397.713181 97.263635 
L 397.965485 97.408931 
L 398.226199 98.986344 
L 398.486914 99.285017 
L 398.739218 98.372183 
L 398.999933 98.097834 
L 399.252237 98.426408 
L 399.512952 96.529317 
L 399.773666 95.736645 
L 400.278275 95.449049 
L 400.530579 95.681214 
L 400.791294 95.603061 
L 401.043598 95.156147 
L 401.304313 95.386326 
L 401.565027 94.948408 
L 401.817332 95.727713 
L 402.078046 95.841011 
L 402.330351 95.124178 
L 402.591065 95.346933 
L 402.85178 96.071719 
L 403.087264 96.225758 
L 403.347978 96.657396 
L 403.600283 96.748615 
L 403.860997 96.698076 
L 404.113302 96.531621 
L 404.887035 97.903733 
L 405.147749 97.798729 
L 405.400054 97.882979 
L 405.660768 98.74953 
L 405.921483 99.091104 
L 406.156967 99.202156 
L 406.669986 97.430088 
L 407.183005 97.691359 
L 407.443719 96.287515 
L 407.704434 96.36265 
L 407.956738 97.14953 
L 408.217453 98.428714 
L 408.469757 98.118824 
L 408.730472 97.43625 
L 408.991186 97.908233 
L 409.487385 97.363311 
L 409.739689 98.036853 
L 410.000404 97.766126 
L 410.252708 97.699964 
L 410.513422 96.864184 
L 410.774137 96.768332 
L 411.026441 97.660424 
L 411.287156 97.92492 
L 411.53946 97.23333 
L 411.800175 96.844429 
L 412.060889 96.230023 
L 412.304783 98.496671 
L 412.565498 98.98096 
L 413.078517 96.972166 
L 413.330821 95.942776 
L 414.365269 93.674239 
L 414.617574 94.137468 
L 414.878288 94.306497 
L 415.139003 95.185892 
L 415.374487 94.468848 
L 415.635201 94.339273 
L 415.887506 94.850789 
L 416.14822 94.857711 
L 416.400524 95.522304 
L 416.661239 95.513948 
L 416.921953 97.556013 
L 417.174258 97.237719 
L 417.434972 96.669494 
L 417.687277 96.48809 
L 417.947991 97.598138 
L 418.44419 98.640138 
L 418.704904 97.600734 
L 418.957209 97.680392 
L 419.217923 99.091054 
L 419.470228 99.148147 
L 419.730942 99.023486 
L 420.243961 94.906473 
L 420.504676 93.929284 
L 420.75698 93.556277 
L 422.026912 90.041383 
L 422.287626 89.736488 
L 422.539931 89.671725 
L 422.800645 90.251971 
L 423.06136 89.665762 
L 423.313664 89.591497 
L 423.574379 89.876565 
L 423.826683 89.924196 
L 424.087398 89.717609 
L 424.348112 90.934061 
L 424.852721 90.876752 
L 425.105025 90.991443 
L 425.618044 91.722751 
L 425.878759 89.935463 
L 426.139473 89.74018 
L 426.391778 89.887744 
L 426.652492 89.615898 
L 426.904796 89.765654 
L 427.426226 87.737711 
L 427.66171 87.918925 
L 427.922424 87.801922 
L 428.687747 86.408432 
L 429.209176 87.304676 
L 429.461481 87.067761 
L 429.9745 84.768543 
L 430.235214 84.667402 
L 430.992127 81.446777 
L 431.244432 81.40098 
L 431.505146 80.862539 
L 431.757451 81.248518 
L 432.018165 80.808061 
L 432.27888 81.43232 
L 432.531184 81.470417 
L 432.791898 80.752259 
L 433.044203 80.411476 
L 433.801116 77.105054 
L 434.06183 77.40089 
L 434.314135 77.439154 
L 435.087868 74.764775 
L 435.348583 75.529449 
L 435.861602 81.067584 
L 436.113906 81.352222 
L 436.635335 79.88357 
L 436.879229 79.299297 
L 437.139944 79.5968 
L 437.392248 80.138226 
L 437.652963 78.991054 
L 437.905267 79.145656 
L 438.165982 79.602555 
L 438.426696 79.339299 
L 438.679001 78.617374 
L 438.939715 79.067534 
L 439.452734 77.986119 
L 439.713448 77.383866 
L 439.948933 77.539569 
L 440.97497 75.004141 
L 441.235685 74.06402 
L 441.748704 74.075437 
L 442.009418 74.51403 
L 442.261723 73.973651 
L 442.783152 75.308989 
L 443.018636 74.857325 
L 443.27935 74.848039 
L 443.792369 73.54616 
L 444.044673 73.591462 
L 444.566103 76.642406 
L 444.818407 77.266805 
L 445.079121 76.689875 
L 445.331426 75.73734 
L 445.59214 76.009889 
L 445.852855 73.709514 
L 446.349053 72.661055 
L 446.862072 72.750727 
L 447.114377 72.616576 
L 447.375091 72.117268 
L 447.635806 72.274693 
L 448.401129 72.14342 
L 448.661844 70.665938 
L 449.427167 71.167968 
L 449.679471 70.763535 
L 449.940186 71.123621 
L 450.19249 70.766628 
L 450.713919 70.607776 
L 450.966223 70.935434 
L 451.479242 69.688849 
L 451.739957 69.763075 
L 452.236155 69.096341 
L 452.49687 69.442313 
L 453.522908 68.839255 
L 454.035927 68.422791 
L 454.296641 68.435611 
L 454.80966 67.940258 
L 455.070375 68.028765 
L 455.305859 68.405548 
L 455.566573 69.157073 
L 456.079592 68.785318 
L 456.331896 68.953041 
L 456.592611 68.393909 
L 456.853325 68.277862 
L 457.618649 68.711459 
L 457.879363 68.28209 
L 458.888581 65.843877 
L 459.4016 64.479647 
L 459.662314 64.426361 
L 459.923029 63.692134 
L 460.175333 63.56818 
L 460.688352 62.336244 
L 460.949066 62.425817 
L 461.209781 61.275062 
L 461.71439 61.466908 
L 462.227409 60.756202 
L 462.479713 61.548421 
L 463.253446 59.795267 
L 463.514161 58.787711 
L 463.766465 58.534288 
L 464.287894 57.078906 
L 464.523378 57.265018 
L 464.784093 58.027875 
L 465.036397 56.139894 
L 465.549416 53.90146 
L 465.810131 53.867254 
L 466.32315 53.373684 
L 466.583864 53.60672 
L 466.836168 53.027263 
L 467.096883 53.016344 
L 467.593082 50.674629 
L 467.853796 50.001577 
L 468.366815 50.089087 
L 468.619119 49.185554 
L 469.140548 51.841724 
L 469.392853 51.620915 
L 469.653567 49.406361 
L 470.166586 47.542362 
L 470.427301 47.582311 
L 470.923499 46.302916 
L 471.436518 46.454415 
L 471.688823 45.577477 
L 471.949537 46.446676 
L 472.462556 46.986147 
L 472.72327 45.538602 
L 472.975575 44.949374 
L 473.236289 45.037795 
L 473.497004 45.697204 
L 473.740898 45.049815 
L 474.001613 44.761357 
L 474.253917 45.398737 
L 474.514632 44.847709 
L 475.02765 44.518229 
L 475.288365 44.859852 
L 475.540669 46.035593 
L 475.801384 46.212798 
L 476.053688 46.918701 
L 476.314403 46.956427 
L 476.575117 47.50076 
L 476.810601 49.573523 
L 477.071316 49.56284 
L 477.32362 48.243959 
L 478.097354 49.747187 
L 478.358068 52.37981 
L 479.123391 50.1634 
L 479.384106 50.27492 
L 479.64482 51.08407 
L 479.880305 50.176922 
L 480.654038 52.973734 
L 480.906342 55.417111 
L 481.167057 55.247295 
L 481.427771 56.318955 
L 481.680076 56.64658 
L 481.94079 55.282431 
L 482.453809 55.597527 
L 482.714524 57.169968 
L 482.950008 57.021117 
L 483.723741 53.588213 
L 483.976045 53.484769 
L 484.23676 53.600757 
L 484.749779 52.557486 
L 485.010493 52.243529 
L 485.523512 50.657365 
L 485.784227 50.541843 
L 486.028121 51.01367 
L 486.288836 50.876529 
L 486.54114 51.552677 
L 486.801854 51.020704 
L 487.314873 51.77599 
L 487.575588 51.237022 
L 487.827892 51.326851 
L 488.340911 49.695779 
L 488.601626 50.028858 
L 488.86234 49.796409 
L 489.097824 50.016245 
L 489.358539 50.676935 
L 490.123862 49.641526 
L 490.384577 49.684095 
L 490.645291 49.883006 
L 490.897595 50.490686 
L 491.410614 48.954835 
L 491.671329 48.806625 
L 491.932043 48.852761 
L 492.167527 48.656377 
L 492.428242 48.66737 
L 492.680546 48.940309 
L 492.941261 49.565057 
L 493.193565 49.475048 
L 493.714994 48.398403 
L 493.967299 47.527126 
L 494.480318 46.65316 
L 494.741032 46.57097 
L 495.001747 46.347647 
L 495.237231 47.072848 
L 495.75025 45.75998 
L 496.263268 45.600103 
L 496.523983 46.47299 
L 497.037002 45.305878 
L 497.297716 46.47863 
L 497.550021 46.202392 
L 497.810735 47.766826 
L 498.07145 48.16328 
L 498.315344 48.912389 
L 498.576058 48.157494 
L 498.828363 47.797977 
L 499.341382 50.377286 
L 499.602096 49.848148 
L 499.862811 50.874315 
L 500.115115 55.44747 
L 500.37583 56.946292 
L 500.628134 56.799807 
L 500.888849 57.126787 
L 501.385047 60.000996 
L 501.898066 56.280192 
L 502.411085 55.559885 
L 502.671799 53.94937 
L 503.184818 52.718228 
L 503.958552 51.575137 
L 504.219266 52.205809 
L 504.715465 50.251094 
L 504.967769 51.556043 
L 505.228484 52.301924 
L 505.480788 52.340022 
L 505.741503 52.186399 
L 507.288969 48.137508 
L 507.524454 48.581564 
L 507.785168 48.250774 
L 508.037472 48.21056 
L 508.298187 48.980432 
L 508.550491 48.34951 
L 508.811206 50.741516 
L 509.07192 50.94173 
L 509.584939 49.874033 
L 509.837244 49.492903 
L 510.358673 47.819123 
L 510.602567 47.375436 
L 510.863281 47.447311 
L 511.115586 48.089109 
L 511.3763 48.303704 
L 512.150034 46.527446 
L 512.402338 46.564618 
L 512.663053 47.074445 
L 512.915357 46.558882 
L 513.176071 45.732906 
L 513.436786 45.416008 
L 514.185289 43.65757 
L 514.446004 43.947025 
L 514.698308 43.274217 
L 514.959022 43.245746 
L 515.219737 43.018081 
L 515.472041 42.517526 
L 515.732756 41.668678 
L 515.98506 41.345586 
L 516.245775 41.219457 
L 516.506489 41.325241 
L 516.741973 40.89054 
L 517.002688 40.917359 
L 517.254992 40.667992 
L 517.768011 39.714079 
L 518.028726 39.769041 
L 518.28944 39.410043 
L 518.541744 39.926239 
L 518.802459 38.631095 
L 519.054763 38.375386 
L 519.315478 38.511769 
L 519.576192 38.010918 
L 519.811676 38.125049 
L 520.324695 37.882935 
L 520.58541 38.049833 
L 520.837714 38.067916 
L 521.098429 38.559073 
L 521.359143 39.505656 
L 521.872162 37.93784 
L 522.124467 38.100361 
L 522.385181 39.545162 
L 522.645896 39.679627 
L 522.88979 38.459884 
L 523.150504 37.966973 
L 523.402809 38.117488 
L 523.663523 37.961607 
L 523.915828 37.237365 
L 524.176542 37.003316 
L 524.689561 37.281742 
L 524.950276 36.994583 
L 525.20258 36.178714 
L 525.463294 35.998799 
L 525.959493 35.173196 
L 526.220208 35.268733 
L 526.985531 34.350752 
L 527.246245 34.361518 
L 527.50696 34.125117 
L 528.532998 31.691977 
L 528.793712 32.410695 
L 529.029196 32.444774 
L 529.289911 32.885647 
L 530.055234 31.817621 
L 530.576663 30.984661 
L 530.828967 31.856208 
L 531.089682 32.230351 
L 531.341986 33.378173 
L 531.602701 33.052665 
L 531.863415 31.937904 
L 532.098899 31.647274 
L 532.359614 30.982342 
L 532.611918 31.355438 
L 532.872633 31.062868 
L 533.124937 30.299709 
L 533.385652 30.975235 
L 533.646366 30.345711 
L 533.898671 30.391989 
L 534.411689 28.919912 
L 534.672404 28.301818 
L 534.933119 28.333621 
L 535.177013 32.742335 
L 535.437727 31.823109 
L 535.437727 31.823109 
" style="fill:none;stroke:#2ca02c;stroke-linecap:square;"/>
   </g>
   <g id="line2d_16">
    <path clip-path="url(#pa2fd8126b2)" d="M 76.992273 241.284505 
L 77.488471 241.239717 
L 78.00149 238.647514 
L 78.262205 238.394447 
L 78.514509 238.394447 
L 78.775224 237.995459 
L 80.32269 237.995459 
L 81.340318 237.529354 
L 81.592622 237.242152 
L 82.62707 237.242152 
L 83.140089 236.733408 
L 83.897002 236.733408 
L 84.149307 236.55389 
L 84.410021 236.101988 
L 85.436059 235.917583 
L 86.209792 235.917583 
L 86.470507 235.54237 
L 87.732029 235.54237 
L 87.992743 235.270767 
L 88.766477 233.89597 
L 89.018781 233.89597 
L 89.54021 233.698927 
L 89.775694 233.296107 
L 90.036409 233.074539 
L 91.062447 232.983086 
L 91.575465 232.870381 
L 92.853808 230.925931 
L 93.366826 230.925931 
L 93.627541 230.760326 
L 98.75773 230.760326 
L 98.993214 230.636152 
L 99.766947 227.854378 
L 100.019252 227.570347 
L 100.279966 227.570347 
L 101.0537 227.02035 
L 101.566719 225.933028 
L 101.827433 225.332564 
L 102.062917 225.332564 
L 102.575936 223.305305 
L 103.088955 222.604787 
L 103.610384 222.244297 
L 103.862688 221.138126 
L 104.375707 221.065934 
L 104.897136 220.972692 
L 105.401745 220.289989 
L 105.914764 220.289989 
L 106.427783 218.844948 
L 106.688497 218.844948 
L 106.940802 218.33202 
L 107.714535 215.139708 
L 107.97525 215.139708 
L 108.210734 215.027522 
L 108.471448 215.027522 
L 108.723753 214.004108 
L 108.984467 213.666564 
L 121.27169 213.652737 
L 121.523994 213.02688 
L 121.784709 211.771993 
L 122.045423 211.6907 
L 122.558442 209.238794 
L 123.071461 209.238432 
L 123.332176 208.755282 
L 123.828374 208.755282 
L 124.080679 208.625074 
L 124.341393 207.329278 
L 124.593698 207.200393 
L 124.854412 207.200393 
L 125.628146 205.423231 
L 133.045894 205.423231 
L 133.298198 204.613918 
L 133.558913 204.184312 
L 134.071932 204.184312 
L 134.332646 203.87838 
L 135.854883 203.790455 
L 136.115597 203.531672 
L 136.367902 202.839978 
L 140.211338 202.839978 
L 140.472053 202.456286 
L 140.985072 202.361993 
L 141.498091 200.647057 
L 141.758805 200.53693 
L 142.002699 199.675794 
L 142.263414 199.35597 
L 142.776433 199.283374 
L 152.237847 199.193591 
L 152.498561 198.514806 
L 152.759276 198.310665 
L 154.550637 198.310665 
L 154.802941 198.109327 
L 157.872644 198.102595 
L 158.133359 197.415058 
L 158.385663 196.419725 
L 158.907092 195.502409 
L 159.672416 195.502409 
L 159.93313 195.362933 
L 160.942348 195.362933 
L 161.716081 193.254239 
L 162.2291 193.228879 
L 162.489814 192.854371 
L 162.742119 191.816008 
L 163.002833 190.199974 
L 163.759746 189.559765 
L 168.620811 189.559765 
L 168.873115 188.616156 
L 169.133829 188.196219 
L 169.630028 186.504619 
L 169.890743 184.460149 
L 170.143047 184.460149 
L 170.403761 183.405625 
L 173.725769 183.405625 
L 173.986484 183.1892 
L 181.160338 183.1892 
L 181.421052 182.788459 
L 181.917251 180.916694 
L 182.943289 180.840306 
L 183.464718 179.871067 
L 183.717022 179.512311 
L 184.230041 179.46794 
L 184.490756 178.685657 
L 186.012992 178.685657 
L 186.273706 178.516221 
L 186.534421 178.042094 
L 194.465188 178.042094 
L 195.230512 177.173137 
L 195.491226 176.806717 
L 199.847682 176.712377 
L 200.108396 175.592463 
L 200.34388 175.592463 
L 200.604595 175.295677 
L 201.117614 174.248904 
L 214.17857 174.248904 
L 214.691589 173.148739 
L 214.943893 173.023619 
L 217.508988 172.981436 
L 217.769702 172.776786 
L 241.3097 172.776786 
L 241.570415 171.884744 
L 242.083434 171.884744 
L 242.344148 171.152642 
L 242.857167 169.115095 
L 243.117882 168.719471 
L 243.866385 168.673636 
L 244.127099 168.44787 
L 244.900832 167.065443 
L 245.153137 166.28859 
L 245.666156 165.363506 
L 245.92687 164.957539 
L 246.423069 164.838094 
L 247.196802 164.838094 
L 247.709821 162.931351 
L 247.970536 162.643861 
L 248.483555 162.643861 
L 248.996573 162.150837 
L 250.005791 159.707398 
L 250.266505 159.5916 
L 250.779524 157.36966 
L 251.040239 156.243302 
L 251.292543 156.243302 
L 251.553258 155.933955 
L 251.805562 155.364207 
L 252.326991 155.128831 
L 253.083904 151.979672 
L 253.596923 151.979672 
L 253.857638 151.865364 
L 254.118352 150.602109 
L 254.370657 149.983315 
L 254.631371 148.530085 
L 254.883675 148.258216 
L 255.14439 146.683852 
L 255.405104 146.511449 
L 255.640589 145.954724 
L 255.901303 145.89233 
L 256.414322 145.300711 
L 256.927341 142.44883 
L 257.188055 141.565337 
L 278.945102 141.565337 
L 279.205817 140.928152 
L 279.458121 140.928152 
L 279.718836 140.65211 
L 279.97955 139.961535 
L 304.78948 139.961535 
L 305.050195 139.80309 
L 305.302499 139.057256 
L 305.563214 138.834501 
L 306.076233 138.834501 
L 306.589251 136.63745 
L 306.849966 135.885385 
L 307.10227 135.577061 
L 307.362985 134.682775 
L 307.623699 134.44065 
L 307.859183 134.44065 
L 308.119898 133.975113 
L 321.693873 133.975113 
L 321.946178 133.335704 
L 322.459197 133.335704 
L 322.980626 131.607542 
L 323.476824 131.519234 
L 323.989843 131.467177 
L 324.242147 131.214267 
L 324.502862 130.188516 
L 324.763576 129.698791 
L 325.5289 129.698791 
L 325.789614 128.955976 
L 326.807242 128.857086 
L 327.320261 127.717692 
L 327.580975 127.531449 
L 328.093994 127.531449 
L 328.354709 127.34881 
L 328.607013 126.414436 
L 328.867728 126.125553 
L 331.676716 126.087363 
L 331.937431 125.726208 
L 332.433629 124.624326 
L 332.946648 122.78376 
L 333.207363 122.526049 
L 333.459667 121.600529 
L 334.233401 119.875935 
L 335.267848 116.646101 
L 335.503333 116.646101 
L 335.764047 115.944845 
L 336.016351 115.944845 
L 336.52937 113.210212 
L 336.790085 113.210212 
L 337.050799 112.352824 
L 337.303104 112.352824 
L 337.816123 111.588814 
L 338.337552 111.588814 
L 338.581446 110.419922 
L 338.84216 110.185737 
L 339.355179 110.185737 
L 339.868198 110.037198 
L 345.74689 110.037198 
L 346.007605 109.911116 
L 346.268319 109.29503 
L 346.781338 107.767148 
L 347.033642 107.238967 
L 347.294357 106.427327 
L 347.555071 106.427327 
L 348.303574 105.329601 
L 348.564289 105.329601 
L 348.816593 104.724974 
L 353.181459 104.724974 
L 353.702888 103.181837 
L 354.199087 101.861094 
L 354.451391 101.594323 
L 354.96441 101.594323 
L 355.225124 101.101354 
L 355.738143 101.003505 
L 355.998858 100.01266 
L 356.251162 99.766442 
L 360.338493 99.766442 
L 360.590797 99.600174 
L 361.103816 99.600174 
L 361.364531 99.319263 
L 361.625245 98.713235 
L 362.138264 98.675877 
L 362.390568 98.306404 
L 362.651283 97.610135 
L 363.155892 96.861751 
L 363.668911 96.246552 
L 363.929625 96.246552 
L 364.18193 95.632366 
L 364.442644 95.632366 
L 364.703359 95.479776 
L 364.955663 95.064842 
L 365.216377 94.934578 
L 365.468682 94.934578 
L 365.990111 94.455064 
L 366.225595 94.451576 
L 366.999328 93.825315 
L 367.773062 93.72047 
L 368.025366 93.26343 
L 368.286081 93.035615 
L 368.538385 93.035615 
L 368.7991 92.730124 
L 373.391039 92.730124 
L 373.912468 92.176256 
L 375.703829 92.176256 
L 376.216848 91.350215 
L 376.990581 91.265229 
L 377.5036 90.500377 
L 377.755905 90.288832 
L 389.530109 90.288832 
L 390.043128 89.261991 
L 390.303842 89.102681 
L 426.904796 89.102681 
L 427.165511 88.831473 
L 427.426226 87.737711 
L 427.922424 87.737711 
L 428.687747 86.408432 
L 429.461481 86.408432 
L 429.722195 85.805419 
L 429.9745 84.768543 
L 430.235214 84.667402 
L 430.992127 81.446777 
L 431.244432 81.40098 
L 431.505146 80.862539 
L 432.791898 80.752259 
L 433.044203 80.411476 
L 433.801116 77.105054 
L 434.314135 77.105054 
L 434.827154 75.981935 
L 435.087868 74.764775 
L 440.97497 74.764775 
L 441.235685 74.06402 
L 443.018636 73.973651 
L 443.531655 73.973651 
L 443.792369 73.54616 
L 445.852855 73.54616 
L 446.349053 72.661055 
L 447.114377 72.616576 
L 447.375091 72.117268 
L 448.401129 72.117268 
L 448.661844 70.665938 
L 450.966223 70.607776 
L 451.226938 70.387707 
L 451.479242 69.688849 
L 451.739957 69.688849 
L 452.000671 69.474218 
L 452.236155 69.096341 
L 453.262193 69.096341 
L 454.035927 68.422791 
L 454.296641 68.422791 
L 455.070375 67.940258 
L 457.879363 67.940258 
L 458.375562 67.104361 
L 459.4016 64.479647 
L 459.662314 64.426361 
L 459.923029 63.692134 
L 460.175333 63.56818 
L 460.688352 62.336244 
L 460.949066 62.336244 
L 461.209781 61.275062 
L 461.71439 61.275062 
L 462.227409 60.756202 
L 462.740427 60.756202 
L 463.001142 60.586188 
L 463.766465 58.534288 
L 464.287894 57.078906 
L 464.784093 57.078906 
L 465.549416 53.90146 
L 465.810131 53.867254 
L 467.096883 53.016344 
L 467.593082 50.674629 
L 467.853796 50.001577 
L 468.366815 50.001577 
L 468.619119 49.185554 
L 469.653567 49.185554 
L 469.905872 48.537939 
L 470.166586 47.542362 
L 470.427301 47.542362 
L 470.923499 46.302916 
L 471.436518 46.302916 
L 471.688823 45.577477 
L 472.72327 45.538602 
L 472.975575 44.949374 
L 473.740898 44.949374 
L 474.001613 44.761357 
L 474.766936 44.717062 
L 475.02765 44.518229 
L 513.932985 44.518229 
L 514.185289 43.65757 
L 514.446004 43.65757 
L 514.698308 43.274217 
L 514.959022 43.245746 
L 515.219737 43.018081 
L 515.472041 42.517526 
L 515.732756 41.668678 
L 515.98506 41.345586 
L 516.245775 41.219457 
L 516.506489 41.219457 
L 516.741973 40.89054 
L 517.002688 40.89054 
L 517.254992 40.667992 
L 517.768011 39.714079 
L 518.028726 39.714079 
L 518.28944 39.410043 
L 518.541744 39.410043 
L 518.802459 38.631095 
L 519.054763 38.375386 
L 519.315478 38.375386 
L 519.576192 38.010918 
L 520.072391 37.982068 
L 520.58541 37.882935 
L 523.663523 37.882935 
L 523.915828 37.237365 
L 524.176542 37.003316 
L 524.950276 36.994583 
L 525.20258 36.178714 
L 525.463294 35.998799 
L 525.959493 35.173196 
L 526.220208 35.173196 
L 526.985531 34.350752 
L 527.246245 34.350752 
L 527.50696 34.125117 
L 528.532998 31.691977 
L 530.055234 31.691977 
L 530.576663 30.984661 
L 532.872633 30.982342 
L 533.124937 30.299709 
L 533.898671 30.299709 
L 534.411689 28.919912 
L 534.672404 28.301818 
L 535.437727 28.301818 
L 535.437727 28.301818 
" style="fill:none;stroke:#d62728;stroke-linecap:square;"/>
   </g>
   <g id="legend_1">
    <g id="patch_3">
     <path d="M 63.87 88.991875 
L 152.065625 88.991875 
Q 154.865625 88.991875 154.865625 86.191875 
L 154.865625 27.44 
Q 154.865625 24.64 152.065625 24.64 
L 63.87 24.64 
Q 61.07 24.64 61.07 27.44 
L 61.07 86.191875 
Q 61.07 88.991875 63.87 88.991875 
z
" style="fill:#ffffff;opacity:0.8;stroke:#cccccc;stroke-linejoin:miter;"/>
    </g>
    <g id="line2d_17">
     <path d="M 66.67 35.485625 
L 94.67 35.485625 
" style="fill:none;stroke:#1f77b4;stroke-linecap:square;"/>
    </g>
    <g id="line2d_18"/>
    <g id="text_14">
     <!-- abs min -->
     <defs>
      <path d="M 16.546875 -0.984375 
Q 10.015625 -0.984375 6.734375 3.21875 
Q 3.46875 7.421875 3.46875 14.75 
Q 3.46875 19.96875 5.09375 23.3125 
Q 6.734375 26.65625 9.34375 28.5625 
Q 11.96875 30.46875 15.328125 31.203125 
Q 18.703125 31.9375 22.171875 32.03125 
L 31.9375 32.234375 
L 31.9375 35.109375 
Q 31.9375 38.375 31.375 40.671875 
Q 30.8125 42.96875 29.640625 44.375 
Q 28.46875 45.796875 26.734375 46.453125 
Q 25 47.125 22.609375 47.125 
Q 20.515625 47.125 18.84375 46.75 
Q 17.1875 46.390625 15.9375 45.4375 
Q 14.703125 44.484375 13.9375 42.84375 
Q 13.1875 41.21875 12.9375 38.71875 
L 5.421875 39.546875 
Q 5.8125 42.671875 6.9375 45.28125 
Q 8.0625 47.90625 10.109375 49.796875 
Q 12.15625 51.703125 15.25 52.75 
Q 18.359375 53.8125 22.796875 53.8125 
Q 30.953125 53.8125 35.078125 49.234375 
Q 39.203125 44.671875 39.203125 36.03125 
L 39.203125 13.28125 
Q 39.203125 9.375 40.03125 7.390625 
Q 40.875 5.421875 43.265625 5.421875 
Q 43.84375 5.421875 44.453125 5.515625 
Q 45.0625 5.609375 45.609375 5.765625 
L 45.609375 0.296875 
Q 44.234375 -0.09375 42.890625 -0.28125 
Q 41.546875 -0.484375 40.046875 -0.484375 
Q 37.984375 -0.484375 36.515625 0.171875 
Q 35.0625 0.828125 34.15625 2.171875 
Q 33.25 3.515625 32.765625 5.484375 
Q 32.28125 7.46875 32.125 10.109375 
L 31.9375 10.109375 
Q 30.765625 7.5625 29.375 5.515625 
Q 27.984375 3.46875 26.140625 2.03125 
Q 24.3125 0.59375 21.9375 -0.1875 
Q 19.578125 -0.984375 16.546875 -0.984375 
z
M 18.21875 5.609375 
Q 21.6875 5.609375 24.25 7.140625 
Q 26.8125 8.6875 28.515625 11.078125 
Q 30.21875 13.484375 31.078125 16.3125 
Q 31.9375 19.140625 31.9375 21.734375 
L 31.9375 26.078125 
L 24.03125 25.875 
Q 21.390625 25.828125 19 25.40625 
Q 16.609375 25 14.8125 23.78125 
Q 13.03125 22.5625 11.953125 20.359375 
Q 10.890625 18.171875 10.890625 14.59375 
Q 10.890625 10.296875 12.796875 7.953125 
Q 14.703125 5.609375 18.21875 5.609375 
z
" id="LiberationSansNarrow-97"/>
      <path d="M 42.140625 26.65625 
Q 42.140625 -0.984375 26.21875 -0.984375 
Q 21.296875 -0.984375 18.046875 1.1875 
Q 14.796875 3.375 12.75 8.203125 
L 12.640625 8.203125 
Q 12.640625 6.9375 12.59375 5.5625 
Q 12.546875 4.203125 12.5 3.03125 
L 12.359375 1.03125 
Q 12.3125 0.203125 12.25 0 
L 5.28125 0 
Q 5.328125 0.4375 5.375 1.484375 
Q 5.421875 2.546875 5.4375 4 
Q 5.46875 5.46875 5.484375 7.21875 
Q 5.515625 8.984375 5.515625 10.890625 
L 5.515625 72.46875 
L 12.75 72.46875 
L 12.75 51.8125 
Q 12.75 50.34375 12.71875 49 
Q 12.703125 47.65625 12.640625 46.625 
Q 12.59375 45.40625 12.546875 44.34375 
L 12.75 44.34375 
Q 14.75 49.421875 18.046875 51.609375 
Q 21.34375 53.8125 26.21875 53.8125 
Q 34.421875 53.8125 38.28125 47.0625 
Q 42.140625 40.328125 42.140625 26.65625 
z
M 34.578125 26.375 
Q 34.578125 31.84375 34.03125 35.75 
Q 33.5 39.65625 32.25 42.15625 
Q 31 44.671875 29.078125 45.84375 
Q 27.15625 47.015625 24.359375 47.015625 
Q 21.53125 47.015625 19.359375 45.890625 
Q 17.1875 44.78125 15.71875 42.28125 
Q 14.265625 39.796875 13.5 35.734375 
Q 12.75 31.6875 12.75 25.828125 
Q 12.75 20.171875 13.5 16.3125 
Q 14.265625 12.453125 15.71875 10.03125 
Q 17.1875 7.625 19.328125 6.5625 
Q 21.484375 5.515625 24.3125 5.515625 
Q 26.953125 5.515625 28.875 6.640625 
Q 30.8125 7.765625 32.078125 10.25 
Q 33.34375 12.75 33.953125 16.71875 
Q 34.578125 20.703125 34.578125 26.375 
z
" id="LiberationSansNarrow-98"/>
      <path d="M 38.03125 14.59375 
Q 38.03125 10.890625 36.859375 7.984375 
Q 35.6875 5.078125 33.4375 3.09375 
Q 31.203125 1.125 27.921875 0.0625 
Q 24.65625 -0.984375 20.453125 -0.984375 
Q 16.703125 -0.984375 13.671875 -0.265625 
Q 10.640625 0.4375 8.375 2 
Q 6.109375 3.5625 4.5625 6.125 
Q 3.03125 8.6875 2.296875 12.40625 
L 8.640625 13.921875 
Q 9.578125 9.671875 12.453125 7.6875 
Q 15.328125 5.71875 20.453125 5.71875 
Q 22.796875 5.71875 24.71875 6.109375 
Q 26.65625 6.5 28.078125 7.453125 
Q 29.5 8.40625 30.28125 9.984375 
Q 31.0625 11.578125 31.0625 13.921875 
Q 31.0625 16.3125 30.125 17.84375 
Q 29.203125 19.390625 27.5625 20.40625 
Q 25.921875 21.4375 23.578125 22.171875 
L 18.40625 23.875 
Q 15.828125 24.703125 13.25 25.734375 
Q 10.6875 26.765625 8.640625 28.4375 
Q 6.59375 30.125 5.296875 32.609375 
Q 4 35.109375 4 38.875 
Q 4 46.09375 8.21875 49.875 
Q 12.453125 53.65625 20.5625 53.65625 
Q 27.734375 53.65625 31.953125 50.578125 
Q 36.1875 47.515625 37.3125 40.71875 
L 30.8125 39.75 
Q 30.46875 41.796875 29.484375 43.1875 
Q 28.515625 44.578125 27.140625 45.4375 
Q 25.78125 46.296875 24.09375 46.65625 
Q 22.40625 47.015625 20.5625 47.015625 
Q 15.671875 47.015625 13.34375 45.203125 
Q 11.03125 43.40625 11.03125 39.75 
Q 11.03125 37.59375 11.890625 36.203125 
Q 12.75 34.8125 14.28125 33.859375 
Q 15.828125 32.90625 17.96875 32.234375 
L 22.75 30.71875 
Q 22.75 30.71875 26.265625 29.59375 
Q 28.078125 28.953125 29.78125 28.09375 
Q 31.5 27.25 32.984375 26.09375 
Q 34.46875 24.953125 35.59375 23.34375 
Q 36.71875 21.734375 37.375 19.578125 
Q 38.03125 17.4375 38.03125 14.59375 
z
" id="LiberationSansNarrow-115"/>
      <path id="LiberationSansNarrow-32"/>
      <path d="M 30.765625 0 
L 30.765625 33.5 
Q 30.765625 37.359375 30.34375 39.9375 
Q 29.9375 42.53125 29 44.109375 
Q 28.078125 45.703125 26.5625 46.359375 
Q 25.046875 47.015625 22.796875 47.015625 
Q 20.515625 47.015625 18.671875 45.921875 
Q 16.84375 44.828125 15.546875 42.75 
Q 14.265625 40.671875 13.546875 37.625 
Q 12.84375 34.578125 12.84375 30.609375 
L 12.84375 0 
L 5.671875 0 
L 5.671875 41.546875 
Q 5.671875 41.546875 5.671875 45.015625 
Q 5.671875 46.875 5.609375 48.5 
Q 5.5625 50.140625 5.515625 51.3125 
Q 5.46875 52.484375 5.46875 52.828125 
L 12.25 52.828125 
Q 12.3125 52.59375 12.328125 51.515625 
Q 12.359375 50.4375 12.421875 49.046875 
Q 12.5 47.65625 12.515625 46.21875 
Q 12.546875 44.78125 12.546875 43.796875 
L 12.703125 43.796875 
Q 13.671875 46.09375 14.796875 47.953125 
Q 15.921875 49.8125 17.40625 51.09375 
Q 18.890625 52.390625 20.84375 53.09375 
Q 22.796875 53.8125 25.34375 53.8125 
Q 30.28125 53.8125 33.125 51.421875 
Q 35.984375 49.03125 37.109375 43.796875 
L 37.25 43.796875 
Q 38.234375 46.09375 39.421875 47.953125 
Q 40.625 49.8125 42.203125 51.09375 
Q 43.796875 52.390625 45.796875 53.09375 
Q 47.796875 53.8125 50.390625 53.8125 
Q 53.65625 53.8125 56.03125 52.734375 
Q 58.40625 51.65625 59.9375 49.40625 
Q 61.46875 47.171875 62.171875 43.625 
Q 62.890625 40.09375 62.890625 35.203125 
L 62.890625 0 
L 55.765625 0 
L 55.765625 33.5 
Q 55.765625 37.359375 55.375 39.9375 
Q 54.984375 42.53125 54.03125 44.109375 
Q 53.078125 45.703125 51.5625 46.359375 
Q 50.046875 47.015625 47.859375 47.015625 
Q 45.5625 47.015625 43.71875 45.96875 
Q 41.890625 44.921875 40.578125 42.875 
Q 39.265625 40.828125 38.578125 37.75 
Q 37.890625 34.671875 37.890625 30.609375 
L 37.890625 0 
z
" id="LiberationSansNarrow-109"/>
      <path d="M 5.46875 64.0625 
L 5.46875 72.46875 
L 12.703125 72.46875 
L 12.703125 64.0625 
z
M 5.46875 0 
L 5.46875 52.828125 
L 12.703125 52.828125 
L 12.703125 0 
z
" id="LiberationSansNarrow-105"/>
      <path d="M 33.0625 0 
L 33.0625 33.5 
Q 33.0625 37.359375 32.59375 39.9375 
Q 32.125 42.53125 31.078125 44.109375 
Q 30.03125 45.703125 28.3125 46.359375 
Q 26.609375 47.015625 24.125 47.015625 
Q 21.578125 47.015625 19.5 45.921875 
Q 17.4375 44.828125 15.96875 42.75 
Q 14.5 40.671875 13.6875 37.625 
Q 12.890625 34.578125 12.890625 30.609375 
L 12.890625 0 
L 5.671875 0 
L 5.671875 41.546875 
Q 5.671875 41.546875 5.671875 45.015625 
Q 5.671875 46.875 5.609375 48.5 
Q 5.5625 50.140625 5.515625 51.3125 
Q 5.46875 52.484375 5.46875 52.828125 
L 12.25 52.828125 
Q 12.3125 52.59375 12.328125 51.515625 
Q 12.359375 50.4375 12.421875 49.046875 
Q 12.5 47.65625 12.515625 46.21875 
Q 12.546875 44.78125 12.546875 43.796875 
L 12.703125 43.796875 
Q 13.71875 46.09375 14.96875 47.953125 
Q 16.21875 49.8125 17.84375 51.09375 
Q 19.484375 52.390625 21.609375 53.09375 
Q 23.734375 53.8125 26.5625 53.8125 
Q 30.171875 53.8125 32.765625 52.734375 
Q 35.359375 51.65625 37.03125 49.40625 
Q 38.71875 47.171875 39.5 43.625 
Q 40.28125 40.09375 40.28125 35.203125 
L 40.28125 0 
z
" id="LiberationSansNarrow-110"/>
     </defs>
     <g transform="translate(105.87 40.385625)scale(0.14 -0.14)">
      <use xlink:href="#LiberationSansNarrow-97"/>
      <use x="45.605469" xlink:href="#LiberationSansNarrow-98"/>
      <use x="91.210938" xlink:href="#LiberationSansNarrow-115"/>
      <use x="132.226562" xlink:href="#LiberationSansNarrow-32"/>
      <use x="155.029297" xlink:href="#LiberationSansNarrow-109"/>
      <use x="223.339844" xlink:href="#LiberationSansNarrow-105"/>
      <use x="241.552734" xlink:href="#LiberationSansNarrow-110"/>
     </g>
    </g>
    <g id="line2d_19">
     <path d="M 66.67 55.53625 
L 94.67 55.53625 
" style="fill:none;stroke:#2ca02c;stroke-linecap:square;"/>
    </g>
    <g id="line2d_20"/>
    <g id="text_15">
     <!--  -->
     <defs>
      <path d="M 5.515625 52.828125 
L 12.703125 52.828125 
L 12.703125 29.6875 
Q 13.921875 29.6875 14.875 30.078125 
Q 15.828125 30.46875 16.875 31.6875 
Q 17.921875 32.90625 19.21875 35.15625 
Q 20.515625 37.40625 22.46875 41.15625 
L 28.375 52.828125 
L 35.890625 52.828125 
L 27.25 36.96875 
Q 25.4375 33.734375 24.109375 31.65625 
Q 22.796875 29.59375 22.125 28.90625 
L 36.234375 0 
L 28.21875 0 
L 17.140625 24.265625 
Q 16.359375 23.875 15.0625 23.578125 
Q 13.765625 23.296875 12.703125 23.296875 
L 12.703125 0 
L 5.515625 0 
z
" id="LiberationSansNarrow-1082"/>
      <path d="M 16.546875 -0.984375 
Q 10.015625 -0.984375 6.734375 3.21875 
Q 3.46875 7.421875 3.46875 14.75 
Q 3.46875 19.96875 5.09375 23.3125 
Q 6.734375 26.65625 9.34375 28.5625 
Q 11.96875 30.46875 15.328125 31.203125 
Q 18.703125 31.9375 22.171875 32.03125 
L 31.9375 32.234375 
L 31.9375 35.109375 
Q 31.9375 38.375 31.375 40.671875 
Q 30.8125 42.96875 29.640625 44.375 
Q 28.46875 45.796875 26.734375 46.453125 
Q 25 47.125 22.609375 47.125 
Q 20.515625 47.125 18.84375 46.75 
Q 17.1875 46.390625 15.9375 45.4375 
Q 14.703125 44.484375 13.9375 42.84375 
Q 13.1875 41.21875 12.9375 38.71875 
L 5.421875 39.546875 
Q 5.8125 42.671875 6.9375 45.28125 
Q 8.0625 47.90625 10.109375 49.796875 
Q 12.15625 51.703125 15.25 52.75 
Q 18.359375 53.8125 22.796875 53.8125 
Q 30.953125 53.8125 35.078125 49.234375 
Q 39.203125 44.671875 39.203125 36.03125 
L 39.203125 13.28125 
Q 39.203125 9.375 40.03125 7.390625 
Q 40.875 5.421875 43.265625 5.421875 
Q 43.84375 5.421875 44.453125 5.515625 
Q 45.0625 5.609375 45.609375 5.765625 
L 45.609375 0.296875 
Q 44.234375 -0.09375 42.890625 -0.28125 
Q 41.546875 -0.484375 40.046875 -0.484375 
Q 37.984375 -0.484375 36.515625 0.171875 
Q 35.0625 0.828125 34.15625 2.171875 
Q 33.25 3.515625 32.765625 5.484375 
Q 32.28125 7.46875 32.125 10.109375 
L 31.9375 10.109375 
Q 30.765625 7.5625 29.375 5.515625 
Q 27.984375 3.46875 26.140625 2.03125 
Q 24.3125 0.59375 21.9375 -0.1875 
Q 19.578125 -0.984375 16.546875 -0.984375 
z
M 18.21875 5.609375 
Q 21.6875 5.609375 24.25 7.140625 
Q 26.8125 8.6875 28.515625 11.078125 
Q 30.21875 13.484375 31.078125 16.3125 
Q 31.9375 19.140625 31.9375 21.734375 
L 31.9375 26.078125 
L 24.03125 25.875 
Q 21.390625 25.828125 19 25.40625 
Q 16.609375 25 14.8125 23.78125 
Q 13.03125 22.5625 11.953125 20.359375 
Q 10.890625 18.171875 10.890625 14.59375 
Q 10.890625 10.296875 12.796875 7.953125 
Q 14.703125 5.609375 18.21875 5.609375 
z
" id="LiberationSansNarrow-1072"/>
      <path d="M 38.71875 52.828125 
L 38.71875 0 
L 31.546875 0 
L 31.546875 46.4375 
L 12.890625 46.4375 
L 12.890625 0 
L 5.71875 0 
L 5.71875 52.828125 
z
" id="LiberationSansNarrow-1087"/>
      <path d="M 12.640625 52.828125 
L 12.640625 23.921875 
Q 12.640625 22.796875 12.59375 20.921875 
Q 12.546875 19.046875 12.46875 17.046875 
Q 12.40625 15.046875 12.359375 13.234375 
Q 12.3125 11.421875 12.25 10.40625 
L 32.28125 52.828125 
L 40.140625 52.828125 
L 40.140625 0 
L 33.25 0 
L 33.25 32.234375 
Q 33.25 33.15625 33.296875 34.578125 
L 33.40625 37.40625 
Q 33.453125 38.875 33.5 40.234375 
L 33.640625 42.625 
L 13.375 0 
L 5.71875 0 
L 5.71875 52.828125 
z
" id="LiberationSansNarrow-1080"/>
      <path d="M 1.421875 52.828125 
L 36.140625 52.828125 
L 36.140625 46.4375 
L 22.359375 46.4375 
L 22.359375 0 
L 15.1875 0 
L 15.1875 46.4375 
L 1.421875 46.4375 
z
" id="LiberationSansNarrow-1090"/>
      <path d="M 34.859375 0 
L 34.859375 46.4375 
L 19.875 46.4375 
Q 18.890625 37.453125 18.03125 30.4375 
Q 17.1875 23.4375 16.3125 18.15625 
Q 15.4375 12.890625 14.40625 9.25 
Q 13.375 5.609375 11.953125 3.34375 
Q 10.546875 1.078125 8.65625 0.046875 
Q 6.78125 -0.984375 4.203125 -0.984375 
Q 3.03125 -0.984375 2.078125 -0.78125 
Q 1.125 -0.59375 0.4375 -0.34375 
L 0.4375 5.953125 
Q 0.875 5.765625 1.625 5.640625 
Q 2.390625 5.515625 3.171875 5.515625 
Q 4.59375 5.515625 5.59375 6.53125 
Q 6.59375 7.5625 7.390625 9.859375 
Q 8.203125 12.15625 8.859375 15.796875 
Q 9.515625 19.4375 10.203125 24.703125 
Q 10.890625 29.984375 11.625 36.921875 
L 13.375 52.828125 
L 42.140625 52.828125 
L 42.140625 0 
z
" id="LiberationSansNarrow-1083"/>
     </defs>
     <g transform="translate(105.87 60.43625)scale(0.14 -0.14)">
      <use xlink:href="#LiberationSansNarrow-1082"/>
      <use x="35.871094" xlink:href="#LiberationSansNarrow-1072"/>
      <use x="81.476562" xlink:href="#LiberationSansNarrow-1087"/>
      <use x="125.910156" xlink:href="#LiberationSansNarrow-1080"/>
      <use x="171.759766" xlink:href="#LiberationSansNarrow-1090"/>
      <use x="209.292969" xlink:href="#LiberationSansNarrow-1072"/>
      <use x="254.898438" xlink:href="#LiberationSansNarrow-1083"/>
     </g>
    </g>
    <g id="line2d_21">
     <path d="M 66.67 75.586875 
L 94.67 75.586875 
" style="fill:none;stroke:#d62728;stroke-linecap:square;"/>
    </g>
    <g id="line2d_22"/>
    <g id="text_16">
     <!-- abs max -->
     <defs>
      <path d="M 32.078125 0 
L 20.40625 21.6875 
L 8.6875 0 
L 0.921875 0 
L 16.359375 27.15625 
L 1.65625 52.828125 
L 9.625 52.828125 
L 20.40625 32.28125 
L 31.15625 52.828125 
L 39.203125 52.828125 
L 24.515625 27.25 
L 40.140625 0 
z
" id="LiberationSansNarrow-120"/>
     </defs>
     <g transform="translate(105.87 80.486875)scale(0.14 -0.14)">
      <use xlink:href="#LiberationSansNarrow-97"/>
      <use x="45.605469" xlink:href="#LiberationSansNarrow-98"/>
      <use x="91.210938" xlink:href="#LiberationSansNarrow-115"/>
      <use x="132.226562" xlink:href="#LiberationSansNarrow-32"/>
      <use x="155.029297" xlink:href="#LiberationSansNarrow-109"/>
      <use x="223.339844" xlink:href="#LiberationSansNarrow-97"/>
      <use x="268.945312" xlink:href="#LiberationSansNarrow-120"/>
     </g>
    </g>
   </g>
  </g>
 </g>
 <defs>
  <clipPath id="pa2fd8126b2">
   <rect height="234.56" width="504.29" x="54.07" y="17.64"/>
  </clipPath>
 </defs>
</svg>
