<?xml version="1.0" encoding="utf-8" standalone="no"?>
<!DOCTYPE svg PUBLIC "-//W3C//DTD SVG 1.1//EN"
  "http://www.w3.org/Graphics/SVG/1.1/DTD/svg11.dtd">
<!-- Created with matplotlib (https://matplotlib.org/) -->
<svg height="288pt" version="1.1" viewBox="0 0 576 288" width="576pt" xmlns="http://www.w3.org/2000/svg" xmlns:xlink="http://www.w3.org/1999/xlink">
 <defs>
  <style type="text/css">
*{stroke-linecap:butt;stroke-linejoin:round;}
  </style>
 </defs>
 <g id="figure_1">
  <g id="patch_1">
   <path d="M 0 288 
L 576 288 
L 576 0 
L 0 0 
z
" style="fill:#ffffff;"/>
  </g>
  <g id="axes_1">
   <g id="patch_2">
    <path d="M 59.42 252.2 
L 558.36 252.2 
L 558.36 17.64 
L 59.42 17.64 
z
" style="fill:#ffffff;"/>
   </g>
   <g id="matplotlib.axis_1">
    <g id="xtick_1">
     <g id="line2d_1">
      <path clip-path="url(#pfb0563d17f)" d="M 109.875789 252.2 
L 109.875789 17.64 
" style="fill:none;stroke:#b0b0b0;stroke-dasharray:1.48,0.64;stroke-dashoffset:0;stroke-width:0.4;"/>
     </g>
     <g id="text_1">
      <!-- 1880 -->
      <defs>
       <path d="M 6.25 0 
L 6.25 7.46875 
L 20.609375 7.46875 
L 20.609375 60.40625 
L 7.90625 49.3125 
L 7.90625 57.625 
L 21.234375 68.796875 
L 27.875 68.796875 
L 27.875 7.46875 
L 41.609375 7.46875 
L 41.609375 0 
z
" id="LiberationSansNarrow-49"/>
       <path d="M 42.046875 19.1875 
Q 42.046875 14.796875 40.890625 11.109375 
Q 39.75 7.421875 37.40625 4.734375 
Q 35.0625 2.046875 31.421875 0.53125 
Q 27.78125 -0.984375 22.796875 -0.984375 
Q 17.828125 -0.984375 14.203125 0.53125 
Q 10.59375 2.046875 8.21875 4.703125 
Q 5.859375 7.375 4.703125 11.0625 
Q 3.5625 14.75 3.5625 19.09375 
Q 3.5625 22.859375 4.515625 25.78125 
Q 5.46875 28.71875 7.03125 30.828125 
Q 8.59375 32.953125 10.609375 34.25 
Q 12.640625 35.546875 14.796875 35.984375 
L 14.796875 36.1875 
Q 12.453125 36.859375 10.59375 38.375 
Q 8.734375 39.890625 7.46875 42.015625 
Q 6.203125 44.140625 5.546875 46.71875 
Q 4.890625 49.3125 4.890625 52.203125 
Q 4.890625 55.8125 6.03125 59 
Q 7.171875 62.203125 9.421875 64.625 
Q 11.671875 67.046875 14.984375 68.4375 
Q 18.3125 69.828125 22.65625 69.828125 
Q 27.25 69.828125 30.640625 68.40625 
Q 34.03125 67 36.25 64.578125 
Q 38.484375 62.15625 39.546875 58.9375 
Q 40.625 55.71875 40.625 52.09375 
Q 40.625 49.265625 39.96875 46.671875 
Q 39.3125 44.09375 38.0625 41.96875 
Q 36.8125 39.84375 34.9375 38.34375 
Q 33.0625 36.859375 30.609375 36.28125 
L 30.609375 36.078125 
Q 33.0625 35.59375 35.15625 34.296875 
Q 37.25 33.015625 38.765625 30.890625 
Q 40.28125 28.765625 41.15625 25.828125 
Q 42.046875 22.90625 42.046875 19.1875 
z
M 33.15625 51.609375 
Q 33.15625 54.203125 32.609375 56.34375 
Q 32.078125 58.5 30.828125 60.03125 
Q 29.59375 61.578125 27.59375 62.421875 
Q 25.59375 63.28125 22.65625 63.28125 
Q 19.828125 63.28125 17.875 62.421875 
Q 15.921875 61.578125 14.640625 60.03125 
Q 13.375 58.5 12.8125 56.34375 
Q 12.25 54.203125 12.25 51.609375 
Q 12.25 49.5625 12.6875 47.40625 
Q 13.140625 45.265625 14.3125 43.5 
Q 15.484375 41.75 17.5 40.625 
Q 19.53125 39.5 22.75 39.5 
Q 26.171875 39.5 28.21875 40.625 
Q 30.28125 41.75 31.375 43.5 
Q 32.46875 45.265625 32.8125 47.40625 
Q 33.15625 49.5625 33.15625 51.609375 
z
M 34.578125 20.015625 
Q 34.578125 22.515625 34.015625 24.828125 
Q 33.453125 27.15625 32.078125 28.9375 
Q 30.71875 30.71875 28.421875 31.8125 
Q 26.125 32.90625 22.65625 32.90625 
Q 19.484375 32.90625 17.265625 31.8125 
Q 15.046875 30.71875 13.671875 28.90625 
Q 12.3125 27.09375 11.671875 24.71875 
Q 11.03125 22.359375 11.03125 19.828125 
Q 11.03125 16.65625 11.671875 14.03125 
Q 12.3125 11.421875 13.703125 9.546875 
Q 15.09375 7.671875 17.375 6.640625 
Q 19.671875 5.609375 22.90625 5.609375 
Q 26.171875 5.609375 28.421875 6.640625 
Q 30.671875 7.671875 32.03125 9.546875 
Q 33.40625 11.421875 33.984375 14.078125 
Q 34.578125 16.75 34.578125 20.015625 
z
" id="LiberationSansNarrow-56"/>
       <path d="M 42.390625 34.421875 
Q 42.390625 24.515625 40.84375 17.75 
Q 39.3125 10.984375 36.640625 6.8125 
Q 33.984375 2.640625 30.390625 0.828125 
Q 26.8125 -0.984375 22.703125 -0.984375 
Q 18.609375 -0.984375 15.03125 0.828125 
Q 11.46875 2.640625 8.828125 6.78125 
Q 6.203125 10.9375 4.703125 17.703125 
Q 3.21875 24.46875 3.21875 34.421875 
Q 3.21875 44.828125 4.703125 51.640625 
Q 6.203125 58.453125 8.828125 62.5 
Q 11.46875 66.546875 15.078125 68.1875 
Q 18.703125 69.828125 22.953125 69.828125 
Q 27 69.828125 30.53125 68.1875 
Q 34.078125 66.546875 36.71875 62.5 
Q 39.359375 58.453125 40.875 51.640625 
Q 42.390625 44.828125 42.390625 34.421875 
z
M 35.0625 34.421875 
Q 35.0625 42.625 34.28125 48.0625 
Q 33.5 53.515625 31.9375 56.765625 
Q 30.375 60.015625 28.09375 61.359375 
Q 25.828125 62.703125 22.953125 62.703125 
Q 19.921875 62.703125 17.578125 61.328125 
Q 15.234375 59.96875 13.671875 56.71875 
Q 12.109375 53.46875 11.296875 48.015625 
Q 10.5 42.578125 10.5 34.421875 
Q 10.5 26.515625 11.296875 21.09375 
Q 12.109375 15.671875 13.6875 12.375 
Q 15.28125 9.078125 17.578125 7.640625 
Q 19.875 6.203125 22.796875 6.203125 
Q 25.640625 6.203125 27.90625 7.640625 
Q 30.171875 9.078125 31.75 12.375 
Q 33.34375 15.671875 34.203125 21.09375 
Q 35.0625 26.515625 35.0625 34.421875 
z
" id="LiberationSansNarrow-48"/>
      </defs>
      <g transform="translate(97.105164 269.345625)scale(0.14 -0.14)">
       <use xlink:href="#LiberationSansNarrow-49"/>
       <use x="45.605469" xlink:href="#LiberationSansNarrow-56"/>
       <use x="91.210938" xlink:href="#LiberationSansNarrow-56"/>
       <use x="136.816406" xlink:href="#LiberationSansNarrow-48"/>
      </g>
     </g>
    </g>
    <g id="xtick_2">
     <g id="line2d_2">
      <path clip-path="url(#pfb0563d17f)" d="M 171.625266 252.2 
L 171.625266 17.64 
" style="fill:none;stroke:#b0b0b0;stroke-dasharray:1.48,0.64;stroke-dashoffset:0;stroke-width:0.4;"/>
     </g>
     <g id="text_2">
      <!-- 1900 -->
      <defs>
       <path d="M 41.703125 35.796875 
Q 41.703125 26.609375 40.28125 19.703125 
Q 38.875 12.796875 36.234375 8.203125 
Q 33.59375 3.609375 29.8125 1.3125 
Q 26.03125 -0.984375 21.296875 -0.984375 
Q 18.0625 -0.984375 15.453125 -0.171875 
Q 12.84375 0.640625 10.8125 2.34375 
Q 8.796875 4.046875 7.328125 6.78125 
Q 5.859375 9.515625 4.984375 13.375 
L 11.921875 14.703125 
Q 13.03125 10.25 15.40625 8.171875 
Q 17.78125 6.109375 21.4375 6.109375 
Q 24.359375 6.109375 26.78125 7.78125 
Q 29.203125 9.46875 30.875 12.84375 
Q 32.5625 16.21875 33.546875 21.296875 
Q 34.46875 26.375 34.578125 33.203125 
Q 33.734375 30.90625 32.265625 29.09375 
Q 30.8125 27.296875 28.953125 26.046875 
Q 27.09375 24.8125 24.9375 24.140625 
Q 22.796875 23.484375 20.5625 23.484375 
Q 16.703125 23.484375 13.625 25.171875 
Q 10.546875 26.859375 8.375 29.875 
Q 6.203125 32.90625 5.03125 37.171875 
Q 3.859375 41.453125 3.859375 46.6875 
Q 3.859375 52 5.09375 56.296875 
Q 6.34375 60.59375 8.765625 63.59375 
Q 11.1875 66.609375 14.671875 68.21875 
Q 18.171875 69.828125 22.609375 69.828125 
Q 32.03125 69.828125 36.859375 61.328125 
Q 41.703125 52.828125 41.703125 35.796875 
z
M 33.890625 44.28125 
Q 33.890625 48.09375 33.125 51.453125 
Q 32.375 54.828125 30.9375 57.3125 
Q 29.5 59.8125 27.34375 61.25 
Q 25.203125 62.703125 22.359375 62.703125 
Q 19.78125 62.703125 17.703125 61.578125 
Q 15.625 60.453125 14.1875 58.375 
Q 12.75 56.296875 11.96875 53.3125 
Q 11.1875 50.34375 11.1875 46.6875 
Q 11.1875 43.21875 11.859375 40.234375 
Q 12.546875 37.25 13.953125 35.078125 
Q 15.375 32.90625 17.453125 31.65625 
Q 19.53125 30.421875 22.3125 30.421875 
Q 24.3125 30.421875 26.359375 31.25 
Q 28.421875 32.078125 30.078125 33.78125 
Q 31.734375 35.5 32.8125 38.109375 
Q 33.890625 40.71875 33.890625 44.28125 
z
" id="LiberationSansNarrow-57"/>
      </defs>
      <g transform="translate(158.854641 269.345625)scale(0.14 -0.14)">
       <use xlink:href="#LiberationSansNarrow-49"/>
       <use x="45.605469" xlink:href="#LiberationSansNarrow-57"/>
       <use x="91.210938" xlink:href="#LiberationSansNarrow-48"/>
       <use x="136.816406" xlink:href="#LiberationSansNarrow-48"/>
      </g>
     </g>
    </g>
    <g id="xtick_3">
     <g id="line2d_3">
      <path clip-path="url(#pfb0563d17f)" d="M 233.36629 252.2 
L 233.36629 17.64 
" style="fill:none;stroke:#b0b0b0;stroke-dasharray:1.48,0.64;stroke-dashoffset:0;stroke-width:0.4;"/>
     </g>
     <g id="text_3">
      <!-- 1920 -->
      <defs>
       <path d="M 4.109375 0 
L 4.109375 6.203125 
Q 6.15625 11.921875 9.109375 16.28125 
Q 12.0625 20.65625 15.3125 24.1875 
Q 18.5625 27.734375 21.734375 30.765625 
Q 24.90625 33.796875 27.46875 36.8125 
Q 30.03125 39.84375 31.609375 43.15625 
Q 33.203125 46.484375 33.203125 50.6875 
Q 33.203125 53.609375 32.46875 55.828125 
Q 31.734375 58.0625 30.390625 59.5625 
Q 29.046875 61.078125 27.140625 61.828125 
Q 25.25 62.59375 22.90625 62.59375 
Q 20.75 62.59375 18.84375 61.859375 
Q 16.9375 61.140625 15.453125 59.671875 
Q 13.96875 58.203125 13.03125 56.03125 
Q 12.109375 53.859375 11.8125 50.984375 
L 4.4375 51.8125 
Q 4.78125 55.515625 6.125 58.78125 
Q 7.46875 62.0625 9.78125 64.53125 
Q 12.109375 67 15.359375 68.40625 
Q 18.609375 69.828125 22.90625 69.828125 
Q 27.09375 69.828125 30.390625 68.609375 
Q 33.6875 67.390625 35.9375 64.984375 
Q 38.1875 62.59375 39.40625 59.078125 
Q 40.625 55.5625 40.625 50.984375 
Q 40.625 47.515625 39.59375 44.390625 
Q 38.578125 41.265625 36.859375 38.421875 
Q 35.15625 35.59375 32.90625 32.953125 
Q 30.671875 30.328125 28.21875 27.828125 
L 23.296875 22.859375 
Q 20.796875 20.359375 18.625 17.859375 
Q 16.453125 15.375 14.734375 12.8125 
Q 13.03125 10.25 12.0625 7.46875 
L 41.5 7.46875 
L 41.5 0 
z
" id="LiberationSansNarrow-50"/>
      </defs>
      <g transform="translate(220.595665 269.345625)scale(0.14 -0.14)">
       <use xlink:href="#LiberationSansNarrow-49"/>
       <use x="45.605469" xlink:href="#LiberationSansNarrow-57"/>
       <use x="91.210938" xlink:href="#LiberationSansNarrow-50"/>
       <use x="136.816406" xlink:href="#LiberationSansNarrow-48"/>
      </g>
     </g>
    </g>
    <g id="xtick_4">
     <g id="line2d_4">
      <path clip-path="url(#pfb0563d17f)" d="M 295.115767 252.2 
L 295.115767 17.64 
" style="fill:none;stroke:#b0b0b0;stroke-dasharray:1.48,0.64;stroke-dashoffset:0;stroke-width:0.4;"/>
     </g>
     <g id="text_4">
      <!-- 1940 -->
      <defs>
       <path d="M 35.25 15.578125 
L 35.25 0 
L 28.46875 0 
L 28.46875 15.578125 
L 1.90625 15.578125 
L 1.90625 22.40625 
L 27.6875 68.796875 
L 35.25 68.796875 
L 35.25 22.515625 
L 43.21875 22.515625 
L 43.21875 15.578125 
z
M 28.46875 58.890625 
Q 28.375 58.640625 28.03125 57.90625 
L 27.34375 56.34375 
L 26.5625 54.59375 
Q 26.125 53.65625 25.78125 53.078125 
L 11.328125 27.09375 
Q 11.140625 26.703125 10.75 26.078125 
L 9.96875 24.8125 
L 9.1875 23.484375 
Q 8.796875 22.859375 8.546875 22.515625 
L 28.46875 22.515625 
z
" id="LiberationSansNarrow-52"/>
      </defs>
      <g transform="translate(282.345142 269.345625)scale(0.14 -0.14)">
       <use xlink:href="#LiberationSansNarrow-49"/>
       <use x="45.605469" xlink:href="#LiberationSansNarrow-57"/>
       <use x="91.210938" xlink:href="#LiberationSansNarrow-52"/>
       <use x="136.816406" xlink:href="#LiberationSansNarrow-48"/>
      </g>
     </g>
    </g>
    <g id="xtick_5">
     <g id="line2d_5">
      <path clip-path="url(#pfb0563d17f)" d="M 356.865244 252.2 
L 356.865244 17.64 
" style="fill:none;stroke:#b0b0b0;stroke-dasharray:1.48,0.64;stroke-dashoffset:0;stroke-width:0.4;"/>
     </g>
     <g id="text_5">
      <!-- 1960 -->
      <defs>
       <path d="M 42 22.515625 
Q 42 17.328125 40.828125 13 
Q 39.65625 8.6875 37.359375 5.578125 
Q 35.0625 2.484375 31.640625 0.75 
Q 28.21875 -0.984375 23.78125 -0.984375 
Q 18.84375 -0.984375 15.15625 1.3125 
Q 11.46875 3.609375 9.03125 7.921875 
Q 6.59375 12.25 5.375 18.53125 
Q 4.15625 24.8125 4.15625 32.8125 
Q 4.15625 42 5.546875 48.921875 
Q 6.9375 55.859375 9.515625 60.5 
Q 12.109375 65.140625 15.859375 67.484375 
Q 19.625 69.828125 24.359375 69.828125 
Q 27.25 69.828125 29.765625 69.09375 
Q 32.28125 68.359375 34.328125 66.71875 
Q 36.375 65.09375 37.9375 62.40625 
Q 39.5 59.71875 40.4375 55.8125 
L 33.546875 54.296875 
Q 32.421875 58.734375 29.953125 60.71875 
Q 27.484375 62.703125 24.265625 62.703125 
Q 21.296875 62.703125 18.890625 60.984375 
Q 16.5 59.28125 14.8125 55.875 
Q 13.140625 52.484375 12.234375 47.359375 
Q 11.328125 42.234375 11.328125 35.40625 
Q 13.28125 39.84375 16.84375 42.15625 
Q 20.40625 44.484375 25.046875 44.484375 
Q 28.90625 44.484375 32 42.96875 
Q 35.109375 41.453125 37.328125 38.59375 
Q 39.546875 35.75 40.765625 31.671875 
Q 42 27.59375 42 22.515625 
z
M 34.671875 22.125 
Q 34.671875 25.6875 33.953125 28.5625 
Q 33.25 31.453125 31.8125 33.46875 
Q 30.375 35.5 28.25 36.59375 
Q 26.125 37.703125 23.296875 37.703125 
Q 21.34375 37.703125 19.328125 36.984375 
Q 17.328125 36.28125 15.71875 34.6875 
Q 14.109375 33.109375 13.078125 30.515625 
Q 12.0625 27.9375 12.0625 24.21875 
Q 12.0625 20.40625 12.859375 17.109375 
Q 13.671875 13.8125 15.15625 11.375 
Q 16.65625 8.9375 18.78125 7.515625 
Q 20.90625 6.109375 23.53125 6.109375 
Q 26.125 6.109375 28.203125 7.203125 
Q 30.28125 8.296875 31.71875 10.375 
Q 33.15625 12.453125 33.90625 15.421875 
Q 34.671875 18.40625 34.671875 22.125 
z
" id="LiberationSansNarrow-54"/>
      </defs>
      <g transform="translate(344.094619 269.345625)scale(0.14 -0.14)">
       <use xlink:href="#LiberationSansNarrow-49"/>
       <use x="45.605469" xlink:href="#LiberationSansNarrow-57"/>
       <use x="91.210938" xlink:href="#LiberationSansNarrow-54"/>
       <use x="136.816406" xlink:href="#LiberationSansNarrow-48"/>
      </g>
     </g>
    </g>
    <g id="xtick_6">
     <g id="line2d_6">
      <path clip-path="url(#pfb0563d17f)" d="M 418.614721 252.2 
L 418.614721 17.64 
" style="fill:none;stroke:#b0b0b0;stroke-dasharray:1.48,0.64;stroke-dashoffset:0;stroke-width:0.4;"/>
     </g>
     <g id="text_6">
      <!-- 1980 -->
      <g transform="translate(405.844096 269.345625)scale(0.14 -0.14)">
       <use xlink:href="#LiberationSansNarrow-49"/>
       <use x="45.605469" xlink:href="#LiberationSansNarrow-57"/>
       <use x="91.210938" xlink:href="#LiberationSansNarrow-56"/>
       <use x="136.816406" xlink:href="#LiberationSansNarrow-48"/>
      </g>
     </g>
    </g>
    <g id="xtick_7">
     <g id="line2d_7">
      <path clip-path="url(#pfb0563d17f)" d="M 480.364198 252.2 
L 480.364198 17.64 
" style="fill:none;stroke:#b0b0b0;stroke-dasharray:1.48,0.64;stroke-dashoffset:0;stroke-width:0.4;"/>
     </g>
     <g id="text_7">
      <!-- 2000 -->
      <g transform="translate(467.593573 269.345625)scale(0.14 -0.14)">
       <use xlink:href="#LiberationSansNarrow-50"/>
       <use x="45.605469" xlink:href="#LiberationSansNarrow-48"/>
       <use x="91.210938" xlink:href="#LiberationSansNarrow-48"/>
       <use x="136.816406" xlink:href="#LiberationSansNarrow-48"/>
      </g>
     </g>
    </g>
    <g id="xtick_8">
     <g id="line2d_8">
      <path clip-path="url(#pfb0563d17f)" d="M 542.113675 252.2 
L 542.113675 17.64 
" style="fill:none;stroke:#b0b0b0;stroke-dasharray:1.48,0.64;stroke-dashoffset:0;stroke-width:0.4;"/>
     </g>
     <g id="text_8">
      <!-- 2020 -->
      <g transform="translate(529.34305 269.345625)scale(0.14 -0.14)">
       <use xlink:href="#LiberationSansNarrow-50"/>
       <use x="45.605469" xlink:href="#LiberationSansNarrow-48"/>
       <use x="91.210938" xlink:href="#LiberationSansNarrow-50"/>
       <use x="136.816406" xlink:href="#LiberationSansNarrow-48"/>
      </g>
     </g>
    </g>
   </g>
   <g id="matplotlib.axis_2">
    <g id="ytick_1">
     <g id="line2d_9">
      <path clip-path="url(#pfb0563d17f)" d="M 59.42 239.913241 
L 558.36 239.913241 
" style="fill:none;stroke:#b0b0b0;stroke-dasharray:1.48,0.64;stroke-dashoffset:0;stroke-width:0.4;"/>
     </g>
     <g id="text_9">
      <!-- −80 -->
      <defs>
       <path d="M 4.046875 29.6875 
L 4.046875 36.8125 
L 43.890625 36.8125 
L 43.890625 29.6875 
z
" id="LiberationSansNarrow-8722"/>
      </defs>
      <g transform="translate(32.9425 244.986053)scale(0.14 -0.14)">
       <use xlink:href="#LiberationSansNarrow-8722"/>
       <use x="47.900391" xlink:href="#LiberationSansNarrow-56"/>
       <use x="93.505859" xlink:href="#LiberationSansNarrow-48"/>
      </g>
     </g>
    </g>
    <g id="ytick_2">
     <g id="line2d_10">
      <path clip-path="url(#pfb0563d17f)" d="M 59.42 187.010385 
L 558.36 187.010385 
" style="fill:none;stroke:#b0b0b0;stroke-dasharray:1.48,0.64;stroke-dashoffset:0;stroke-width:0.4;"/>
     </g>
     <g id="text_10">
      <!-- −60 -->
      <g transform="translate(32.9425 192.083198)scale(0.14 -0.14)">
       <use xlink:href="#LiberationSansNarrow-8722"/>
       <use x="47.900391" xlink:href="#LiberationSansNarrow-54"/>
       <use x="93.505859" xlink:href="#LiberationSansNarrow-48"/>
      </g>
     </g>
    </g>
    <g id="ytick_3">
     <g id="line2d_11">
      <path clip-path="url(#pfb0563d17f)" d="M 59.42 134.10753 
L 558.36 134.10753 
" style="fill:none;stroke:#b0b0b0;stroke-dasharray:1.48,0.64;stroke-dashoffset:0;stroke-width:0.4;"/>
     </g>
     <g id="text_11">
      <!-- −40 -->
      <g transform="translate(32.9425 139.180342)scale(0.14 -0.14)">
       <use xlink:href="#LiberationSansNarrow-8722"/>
       <use x="47.900391" xlink:href="#LiberationSansNarrow-52"/>
       <use x="93.505859" xlink:href="#LiberationSansNarrow-48"/>
      </g>
     </g>
    </g>
    <g id="ytick_4">
     <g id="line2d_12">
      <path clip-path="url(#pfb0563d17f)" d="M 59.42 81.204674 
L 558.36 81.204674 
" style="fill:none;stroke:#b0b0b0;stroke-dasharray:1.48,0.64;stroke-dashoffset:0;stroke-width:0.4;"/>
     </g>
     <g id="text_12">
      <!-- −20 -->
      <g transform="translate(32.9425 86.277486)scale(0.14 -0.14)">
       <use xlink:href="#LiberationSansNarrow-8722"/>
       <use x="47.900391" xlink:href="#LiberationSansNarrow-50"/>
       <use x="93.505859" xlink:href="#LiberationSansNarrow-48"/>
      </g>
     </g>
    </g>
    <g id="ytick_5">
     <g id="line2d_13">
      <path clip-path="url(#pfb0563d17f)" d="M 59.42 28.301818 
L 558.36 28.301818 
" style="fill:none;stroke:#b0b0b0;stroke-dasharray:1.48,0.64;stroke-dashoffset:0;stroke-width:0.4;"/>
     </g>
     <g id="text_13">
      <!-- 0 -->
      <g transform="translate(46.034688 33.374631)scale(0.14 -0.14)">
       <use xlink:href="#LiberationSansNarrow-48"/>
      </g>
     </g>
    </g>
    <g id="text_14">
     <!-- просадка от пред. максимума, % -->
     <defs>
      <path d="M 38.71875 52.828125 
L 38.71875 0 
L 31.546875 0 
L 31.546875 46.4375 
L 12.890625 46.4375 
L 12.890625 0 
L 5.71875 0 
L 5.71875 52.828125 
z
" id="LiberationSansNarrow-1087"/>
      <path d="M 42.140625 26.65625 
Q 42.140625 20.65625 41.359375 15.578125 
Q 40.578125 10.5 38.6875 6.828125 
Q 36.8125 3.171875 33.765625 1.09375 
Q 30.71875 -0.984375 26.21875 -0.984375 
Q 21.578125 -0.984375 18.078125 1.171875 
Q 14.59375 3.328125 12.796875 8.203125 
L 12.546875 8.203125 
Q 12.59375 8.109375 12.609375 7.328125 
Q 12.640625 6.546875 12.671875 5.375 
Q 12.703125 4.203125 12.71875 2.75 
Q 12.75 1.3125 12.75 -0.09375 
L 12.75 -20.75 
L 5.515625 -20.75 
L 5.515625 42.046875 
Q 5.515625 43.953125 5.484375 45.703125 
Q 5.46875 47.46875 5.4375 48.90625 
Q 5.421875 50.34375 5.375 51.359375 
Q 5.328125 52.390625 5.28125 52.828125 
L 12.25 52.828125 
Q 12.3125 52.6875 12.359375 51.8125 
L 12.5 49.703125 
Q 12.546875 48.4375 12.59375 47.015625 
Q 12.640625 45.609375 12.640625 44.34375 
L 12.796875 44.34375 
Q 13.765625 46.875 15.0625 48.65625 
Q 16.359375 50.4375 18.015625 51.578125 
Q 19.671875 52.734375 21.671875 53.25 
Q 23.6875 53.765625 26.21875 53.765625 
Q 30.71875 53.765625 33.765625 51.8125 
Q 36.8125 49.859375 38.6875 46.3125 
Q 40.578125 42.78125 41.359375 37.765625 
Q 42.140625 32.765625 42.140625 26.65625 
z
M 34.578125 26.46875 
Q 34.578125 31.34375 34.109375 35.15625 
Q 33.640625 38.96875 32.4375 41.59375 
Q 31.25 44.234375 29.296875 45.59375 
Q 27.34375 46.96875 24.359375 46.96875 
Q 21.96875 46.96875 19.84375 46.140625 
Q 17.71875 45.3125 16.125 42.96875 
Q 14.546875 40.625 13.640625 36.5 
Q 12.75 32.375 12.75 25.78125 
Q 12.75 20.171875 13.5 16.28125 
Q 14.265625 12.40625 15.71875 10.015625 
Q 17.1875 7.625 19.328125 6.5625 
Q 21.484375 5.515625 24.3125 5.515625 
Q 27.34375 5.515625 29.296875 6.921875 
Q 31.25 8.34375 32.4375 11.03125 
Q 33.640625 13.71875 34.109375 17.59375 
Q 34.578125 21.484375 34.578125 26.46875 
z
" id="LiberationSansNarrow-1088"/>
      <path d="M 42.140625 26.46875 
Q 42.140625 12.59375 37.125 5.796875 
Q 32.125 -0.984375 22.609375 -0.984375 
Q 18.0625 -0.984375 14.515625 0.671875 
Q 10.984375 2.34375 8.515625 5.765625 
Q 6.0625 9.1875 4.765625 14.328125 
Q 3.46875 19.484375 3.46875 26.46875 
Q 3.46875 53.8125 22.859375 53.8125 
Q 27.875 53.8125 31.5625 52.09375 
Q 35.25 50.390625 37.59375 46.96875 
Q 39.9375 43.5625 41.03125 38.421875 
Q 42.140625 33.296875 42.140625 26.46875 
z
M 34.578125 26.46875 
Q 34.578125 32.625 33.8125 36.625 
Q 33.0625 40.625 31.546875 43.015625 
Q 30.03125 45.40625 27.859375 46.359375 
Q 25.6875 47.3125 23 47.3125 
Q 20.21875 47.3125 17.984375 46.3125 
Q 15.765625 45.3125 14.203125 42.890625 
Q 12.640625 40.484375 11.828125 36.46875 
Q 11.03125 32.46875 11.03125 26.46875 
Q 11.03125 20.3125 11.90625 16.28125 
Q 12.796875 12.25 14.328125 9.859375 
Q 15.875 7.46875 17.96875 6.484375 
Q 20.0625 5.515625 22.5625 5.515625 
Q 25.34375 5.515625 27.5625 6.46875 
Q 29.78125 7.421875 31.34375 9.8125 
Q 32.90625 12.203125 33.734375 16.25 
Q 34.578125 20.3125 34.578125 26.46875 
z
" id="LiberationSansNarrow-1086"/>
      <path d="M 11.03125 26.65625 
Q 11.03125 22.125 11.5625 18.3125 
Q 12.109375 14.5 13.375 11.734375 
Q 14.65625 8.984375 16.75 7.46875 
Q 18.84375 5.953125 21.96875 5.953125 
Q 25.828125 5.953125 28.390625 8.484375 
Q 30.953125 11.03125 31.546875 16.3125 
L 38.875 15.71875 
Q 38.53125 12.453125 37.296875 9.421875 
Q 36.078125 6.390625 34.03125 4.09375 
Q 31.984375 1.8125 29 0.40625 
Q 26.03125 -0.984375 22.171875 -0.984375 
Q 17.09375 -0.984375 13.5 1.109375 
Q 9.90625 3.21875 7.6875 6.90625 
Q 5.46875 10.59375 4.46875 15.59375 
Q 3.46875 20.609375 3.46875 26.46875 
Q 3.46875 31.78125 4.203125 35.859375 
Q 4.9375 39.9375 6.21875 42.984375 
Q 7.515625 46.046875 9.265625 48.125 
Q 11.03125 50.203125 13.109375 51.4375 
Q 15.1875 52.6875 17.453125 53.25 
Q 19.734375 53.8125 22.078125 53.8125 
Q 25.734375 53.8125 28.5625 52.59375 
Q 31.390625 51.375 33.46875 49.25 
Q 35.546875 47.125 36.8125 44.234375 
Q 38.09375 41.359375 38.625 38.03125 
L 31.203125 37.359375 
Q 30.671875 41.75 28.375 44.328125 
Q 26.078125 46.921875 21.875 46.921875 
Q 18.796875 46.921875 16.71875 45.671875 
Q 14.65625 44.4375 13.375 41.921875 
Q 12.109375 39.40625 11.5625 35.59375 
Q 11.03125 31.78125 11.03125 26.65625 
z
" id="LiberationSansNarrow-1089"/>
      <path d="M 16.546875 -0.984375 
Q 10.015625 -0.984375 6.734375 3.21875 
Q 3.46875 7.421875 3.46875 14.75 
Q 3.46875 19.96875 5.09375 23.3125 
Q 6.734375 26.65625 9.34375 28.5625 
Q 11.96875 30.46875 15.328125 31.203125 
Q 18.703125 31.9375 22.171875 32.03125 
L 31.9375 32.234375 
L 31.9375 35.109375 
Q 31.9375 38.375 31.375 40.671875 
Q 30.8125 42.96875 29.640625 44.375 
Q 28.46875 45.796875 26.734375 46.453125 
Q 25 47.125 22.609375 47.125 
Q 20.515625 47.125 18.84375 46.75 
Q 17.1875 46.390625 15.9375 45.4375 
Q 14.703125 44.484375 13.9375 42.84375 
Q 13.1875 41.21875 12.9375 38.71875 
L 5.421875 39.546875 
Q 5.8125 42.671875 6.9375 45.28125 
Q 8.0625 47.90625 10.109375 49.796875 
Q 12.15625 51.703125 15.25 52.75 
Q 18.359375 53.8125 22.796875 53.8125 
Q 30.953125 53.8125 35.078125 49.234375 
Q 39.203125 44.671875 39.203125 36.03125 
L 39.203125 13.28125 
Q 39.203125 9.375 40.03125 7.390625 
Q 40.875 5.421875 43.265625 5.421875 
Q 43.84375 5.421875 44.453125 5.515625 
Q 45.0625 5.609375 45.609375 5.765625 
L 45.609375 0.296875 
Q 44.234375 -0.09375 42.890625 -0.28125 
Q 41.546875 -0.484375 40.046875 -0.484375 
Q 37.984375 -0.484375 36.515625 0.171875 
Q 35.0625 0.828125 34.15625 2.171875 
Q 33.25 3.515625 32.765625 5.484375 
Q 32.28125 7.46875 32.125 10.109375 
L 31.9375 10.109375 
Q 30.765625 7.5625 29.375 5.515625 
Q 27.984375 3.46875 26.140625 2.03125 
Q 24.3125 0.59375 21.9375 -0.1875 
Q 19.578125 -0.984375 16.546875 -0.984375 
z
M 18.21875 5.609375 
Q 21.6875 5.609375 24.25 7.140625 
Q 26.8125 8.6875 28.515625 11.078125 
Q 30.21875 13.484375 31.078125 16.3125 
Q 31.9375 19.140625 31.9375 21.734375 
L 31.9375 26.078125 
L 24.03125 25.875 
Q 21.390625 25.828125 19 25.40625 
Q 16.609375 25 14.8125 23.78125 
Q 13.03125 22.5625 11.953125 20.359375 
Q 10.890625 18.171875 10.890625 14.59375 
Q 10.890625 10.296875 12.796875 7.953125 
Q 14.703125 5.609375 18.21875 5.609375 
z
" id="LiberationSansNarrow-1072"/>
      <path d="M 33.34375 46.4375 
L 21.140625 46.4375 
Q 20.171875 37.796875 19.1875 31.375 
Q 18.21875 24.953125 17.234375 20.21875 
Q 16.265625 15.484375 15.3125 12.15625 
Q 14.359375 8.84375 13.484375 6.390625 
L 33.34375 6.390625 
z
M 46.390625 -19.921875 
L 39.890625 -19.921875 
L 39.890625 0 
L 7.328125 0 
L 7.328125 -19.921875 
L 0.78125 -19.921875 
L 0.78125 6.390625 
L 5.5625 6.390625 
Q 6.78125 8.84375 7.921875 12.328125 
Q 9.078125 15.828125 10.21875 21.1875 
Q 11.375 26.5625 12.515625 34.25 
Q 13.671875 41.9375 14.796875 52.828125 
L 40.578125 52.828125 
L 40.578125 6.390625 
L 46.390625 6.390625 
z
" id="LiberationSansNarrow-1076"/>
      <path d="M 5.515625 52.828125 
L 12.703125 52.828125 
L 12.703125 29.6875 
Q 13.921875 29.6875 14.875 30.078125 
Q 15.828125 30.46875 16.875 31.6875 
Q 17.921875 32.90625 19.21875 35.15625 
Q 20.515625 37.40625 22.46875 41.15625 
L 28.375 52.828125 
L 35.890625 52.828125 
L 27.25 36.96875 
Q 25.4375 33.734375 24.109375 31.65625 
Q 22.796875 29.59375 22.125 28.90625 
L 36.234375 0 
L 28.21875 0 
L 17.140625 24.265625 
Q 16.359375 23.875 15.0625 23.578125 
Q 13.765625 23.296875 12.703125 23.296875 
L 12.703125 0 
L 5.515625 0 
z
" id="LiberationSansNarrow-1082"/>
      <path id="LiberationSansNarrow-32"/>
      <path d="M 1.421875 52.828125 
L 36.140625 52.828125 
L 36.140625 46.4375 
L 22.359375 46.4375 
L 22.359375 0 
L 15.1875 0 
L 15.1875 46.4375 
L 1.421875 46.4375 
z
" id="LiberationSansNarrow-1090"/>
      <path d="M 10.6875 24.5625 
Q 10.6875 20.40625 11.5625 16.90625 
Q 12.453125 13.421875 13.90625 10.90625 
Q 15.375 8.40625 17.640625 7 
Q 19.921875 5.609375 23.140625 5.609375 
Q 27.828125 5.609375 30.65625 7.90625 
Q 33.5 10.203125 34.46875 13.71875 
L 40.828125 11.53125 
Q 40.140625 9.328125 38.921875 7.109375 
Q 37.703125 4.890625 35.640625 3.09375 
Q 33.59375 1.3125 30.53125 0.15625 
Q 27.484375 -0.984375 23.140625 -0.984375 
Q 13.53125 -0.984375 8.5 6 
Q 3.46875 12.984375 3.46875 26.765625 
Q 3.46875 34.1875 5 39.328125 
Q 6.546875 44.484375 9.171875 47.703125 
Q 11.8125 50.921875 15.328125 52.359375 
Q 18.84375 53.8125 22.859375 53.8125 
Q 28.328125 53.8125 31.984375 51.65625 
Q 39.0625 47.515625 41.015625 36.8125 
Q 41.9375 31.6875 41.9375 25.734375 
L 41.9375 24.5625 
z
M 34.71875 31.296875 
Q 34.71875 40.140625 31.421875 43.71875 
Q 28.125 47.3125 22.75 47.3125 
Q 18.953125 47.3125 15.328125 44.09375 
Q 10.9375 40.328125 10.6875 31.296875 
z
" id="LiberationSansNarrow-1077"/>
      <path d="M 7.46875 0 
L 7.46875 10.6875 
L 15.328125 10.6875 
L 15.328125 0 
z
" id="LiberationSansNarrow-46"/>
      <path d="M 31.546875 0 
L 25.390625 0 
L 12.40625 46.4375 
Q 12.453125 45.171875 12.515625 43.703125 
Q 12.59375 42.234375 12.59375 40.75 
Q 12.59375 39.265625 12.609375 37.859375 
Q 12.640625 36.46875 12.640625 35.359375 
L 12.640625 0 
L 5.671875 0 
L 5.671875 52.828125 
L 16.890625 52.828125 
L 25.734375 20.5625 
Q 26.65625 17.484375 27.390625 13.796875 
Q 28.125 10.109375 28.421875 6.59375 
Q 28.8125 10.109375 29.515625 13.796875 
Q 30.21875 17.484375 31.15625 20.5625 
L 39.984375 52.828125 
L 50.734375 52.828125 
L 50.734375 0 
L 43.796875 0 
L 43.796875 35.359375 
Q 43.796875 36.421875 43.8125 37.890625 
Q 43.84375 39.359375 43.921875 40.921875 
Q 44 42.484375 44.015625 43.9375 
Q 44.046875 45.40625 44.140625 46.53125 
z
" id="LiberationSansNarrow-1084"/>
      <path d="M 12.640625 52.828125 
L 12.640625 23.921875 
Q 12.640625 22.796875 12.59375 20.921875 
Q 12.546875 19.046875 12.46875 17.046875 
Q 12.40625 15.046875 12.359375 13.234375 
Q 12.3125 11.421875 12.25 10.40625 
L 32.28125 52.828125 
L 40.140625 52.828125 
L 40.140625 0 
L 33.25 0 
L 33.25 32.234375 
Q 33.25 33.15625 33.296875 34.578125 
L 33.40625 37.40625 
Q 33.453125 38.875 33.5 40.234375 
L 33.640625 42.625 
L 13.375 0 
L 5.71875 0 
L 5.71875 52.828125 
z
" id="LiberationSansNarrow-1080"/>
      <path d="M 24.171875 0 
Q 22.65625 -4.78125 21.0625 -8.609375 
Q 19.484375 -12.453125 17.53125 -15.15625 
Q 15.578125 -17.875 13.1875 -19.3125 
Q 10.796875 -20.75 7.671875 -20.75 
Q 6.296875 -20.75 5.125 -20.65625 
Q 3.953125 -20.5625 2.6875 -20.21875 
L 2.6875 -13.625 
Q 3.46875 -13.765625 4.421875 -13.84375 
Q 5.375 -13.921875 6.0625 -13.921875 
Q 9.234375 -13.921875 11.9375 -11.03125 
Q 14.65625 -8.15625 16.703125 -1.859375 
L 17.390625 0.25 
L 0.203125 52.828125 
L 7.90625 52.828125 
L 17.046875 23.640625 
Q 17.046875 23.640625 18.0625 20.125 
L 19.28125 15.71875 
Q 19.921875 13.53125 20.375 11.765625 
Q 20.84375 10.015625 20.953125 9.578125 
Q 21.046875 10.109375 21.484375 11.71875 
L 22.5625 15.234375 
L 23.734375 19.1875 
Q 24.359375 21.1875 24.75 22.65625 
L 33.25 52.828125 
L 40.875 52.828125 
z
" id="LiberationSansNarrow-1091"/>
      <path d="M 15.4375 10.6875 
L 15.4375 2.484375 
Q 15.4375 -0.09375 15.265625 -2.21875 
Q 15.09375 -4.34375 14.671875 -6.171875 
Q 14.265625 -8.015625 13.671875 -9.625 
Q 13.09375 -11.234375 12.3125 -12.796875 
L 7.375 -12.796875 
Q 9.1875 -9.625 10.15625 -6.390625 
Q 11.140625 -3.171875 11.140625 0 
L 7.625 0 
L 7.625 10.6875 
z
" id="LiberationSansNarrow-44"/>
      <path d="M 69.96875 21.1875 
Q 69.96875 15.09375 68.9375 10.90625 
Q 67.921875 6.734375 66.1875 4.171875 
Q 64.453125 1.609375 62.125 0.5 
Q 59.8125 -0.59375 57.171875 -0.59375 
Q 54.546875 -0.59375 52.21875 0.5 
Q 49.90625 1.609375 48.21875 4.140625 
Q 46.53125 6.6875 45.546875 10.859375 
Q 44.578125 15.046875 44.578125 21.1875 
Q 44.578125 27.6875 45.53125 31.9375 
Q 46.484375 36.1875 48.1875 38.703125 
Q 49.90625 41.21875 52.25 42.21875 
Q 54.59375 43.21875 57.328125 43.21875 
Q 59.96875 43.21875 62.25 42.21875 
Q 64.546875 41.21875 66.25 38.703125 
Q 67.96875 36.1875 68.96875 31.9375 
Q 69.96875 27.6875 69.96875 21.1875 
z
M 21.09375 0 
L 14.890625 0 
L 51.8125 68.796875 
L 58.109375 68.796875 
z
M 15.765625 69.390625 
Q 18.3125 69.390625 20.609375 68.390625 
Q 22.90625 67.390625 24.609375 64.890625 
Q 26.3125 62.40625 27.3125 58.203125 
Q 28.328125 54 28.328125 47.609375 
Q 28.328125 41.453125 27.3125 37.25 
Q 26.3125 33.0625 24.609375 30.4375 
Q 22.90625 27.828125 20.578125 26.703125 
Q 18.265625 25.59375 15.625 25.59375 
Q 12.9375 25.59375 10.609375 26.703125 
Q 8.296875 27.828125 6.59375 30.421875 
Q 4.890625 33.015625 3.90625 37.203125 
Q 2.9375 41.40625 2.9375 47.609375 
Q 2.9375 54 3.90625 58.203125 
Q 4.890625 62.40625 6.609375 64.890625 
Q 8.34375 67.390625 10.6875 68.390625 
Q 13.03125 69.390625 15.765625 69.390625 
z
M 64.0625 21.1875 
Q 64.0625 26.03125 63.625 29.21875 
Q 63.1875 32.421875 62.328125 34.328125 
Q 61.46875 36.234375 60.203125 37.015625 
Q 58.9375 37.796875 57.328125 37.796875 
Q 55.671875 37.796875 54.375 36.984375 
Q 53.078125 36.1875 52.1875 34.28125 
Q 51.3125 32.375 50.875 29.171875 
Q 50.4375 25.984375 50.4375 21.1875 
Q 50.4375 16.546875 50.90625 13.421875 
Q 51.375 10.296875 52.21875 8.375 
Q 53.078125 6.453125 54.34375 5.609375 
Q 55.609375 4.78125 57.234375 4.78125 
Q 58.796875 4.78125 60.0625 5.609375 
Q 61.328125 6.453125 62.203125 8.375 
Q 63.09375 10.296875 63.578125 13.421875 
Q 64.0625 16.546875 64.0625 21.1875 
z
M 22.40625 47.609375 
Q 22.40625 52.390625 21.96875 55.5625 
Q 21.53125 58.734375 20.703125 60.640625 
Q 19.875 62.546875 18.625 63.328125 
Q 17.390625 64.109375 15.765625 64.109375 
Q 14.0625 64.109375 12.734375 63.296875 
Q 11.421875 62.5 10.546875 60.59375 
Q 9.671875 58.6875 9.234375 55.515625 
Q 8.796875 52.34375 8.796875 47.609375 
Q 8.796875 42.96875 9.25 39.796875 
Q 9.71875 36.625 10.5625 34.6875 
Q 11.421875 32.765625 12.71875 31.9375 
Q 14.015625 31.109375 15.671875 31.109375 
Q 17.1875 31.109375 18.421875 31.9375 
Q 19.671875 32.765625 20.546875 34.6875 
Q 21.4375 36.625 21.921875 39.796875 
Q 22.40625 42.96875 22.40625 47.609375 
z
" id="LiberationSansNarrow-37"/>
     </defs>
     <g transform="translate(26.0375 222.554531)rotate(-90)scale(0.14 -0.14)">
      <use xlink:href="#LiberationSansNarrow-1087"/>
      <use x="44.433594" xlink:href="#LiberationSansNarrow-1088"/>
      <use x="90.039062" xlink:href="#LiberationSansNarrow-1086"/>
      <use x="135.644531" xlink:href="#LiberationSansNarrow-1089"/>
      <use x="176.660156" xlink:href="#LiberationSansNarrow-1072"/>
      <use x="222.265625" xlink:href="#LiberationSansNarrow-1076"/>
      <use x="270.068359" xlink:href="#LiberationSansNarrow-1082"/>
      <use x="305.939453" xlink:href="#LiberationSansNarrow-1072"/>
      <use x="351.544922" xlink:href="#LiberationSansNarrow-32"/>
      <use x="374.347656" xlink:href="#LiberationSansNarrow-1086"/>
      <use x="419.921875" xlink:href="#LiberationSansNarrow-1090"/>
      <use x="457.470703" xlink:href="#LiberationSansNarrow-32"/>
      <use x="480.273438" xlink:href="#LiberationSansNarrow-1087"/>
      <use x="524.707031" xlink:href="#LiberationSansNarrow-1088"/>
      <use x="570.3125" xlink:href="#LiberationSansNarrow-1077"/>
      <use x="615.886719" xlink:href="#LiberationSansNarrow-1076"/>
      <use x="663.689453" xlink:href="#LiberationSansNarrow-46"/>
      <use x="686.492188" xlink:href="#LiberationSansNarrow-32"/>
      <use x="709.294922" xlink:href="#LiberationSansNarrow-1084"/>
      <use x="765.691406" xlink:href="#LiberationSansNarrow-1072"/>
      <use x="811.296875" xlink:href="#LiberationSansNarrow-1082"/>
      <use x="847.152344" xlink:href="#LiberationSansNarrow-1089"/>
      <use x="888.167969" xlink:href="#LiberationSansNarrow-1080"/>
      <use x="934.017578" xlink:href="#LiberationSansNarrow-1084"/>
      <use x="990.429688" xlink:href="#LiberationSansNarrow-1091"/>
      <use x="1031.429688" xlink:href="#LiberationSansNarrow-1084"/>
      <use x="1087.826172" xlink:href="#LiberationSansNarrow-1072"/>
      <use x="1133.431641" xlink:href="#LiberationSansNarrow-44"/>
      <use x="1156.234375" xlink:href="#LiberationSansNarrow-32"/>
      <use x="1179.037109" xlink:href="#LiberationSansNarrow-37"/>
     </g>
    </g>
   </g>
   <g id="line2d_14">
    <path clip-path="url(#pfb0563d17f)" d="M 82.099091 28.301818 
L 82.361135 36.139241 
L 82.59782 39.887117 
L 82.859865 30.306128 
L 83.113456 28.301818 
L 83.891136 28.301818 
L 84.406772 38.474112 
L 84.668816 38.474112 
L 84.922407 44.212324 
L 85.446496 37.805996 
L 85.691634 38.474482 
L 85.953678 40.963746 
L 86.20727 37.830566 
L 86.722905 28.301818 
L 87.500585 28.301818 
L 87.76263 32.993047 
L 88.016221 28.301818 
L 88.278265 28.301818 
L 88.540309 31.871438 
L 89.039039 28.301818 
L 90.84799 28.301818 
L 91.363626 36.53257 
L 91.862355 36.53257 
L 92.1244 32.529019 
L 92.640035 28.301818 
L 92.893626 30.418365 
L 93.155671 28.301818 
L 94.186942 28.301818 
L 94.947716 34.313506 
L 95.20976 38.418501 
L 95.463351 34.043188 
L 95.725396 31.693105 
L 95.978987 33.76551 
L 96.241031 38.014298 
L 96.503076 37.910319 
L 96.756667 39.982724 
L 97.272303 39.801619 
L 97.534347 37.581729 
L 98.041529 37.581729 
L 98.303574 35.324481 
L 98.557165 28.301818 
L 99.072801 28.301818 
L 99.596889 33.201234 
L 99.850481 37.920482 
L 100.112525 40.217314 
L 100.366116 44.688999 
L 100.628161 56.480236 
L 100.890205 57.744045 
L 101.12689 54.794912 
L 101.642526 80.692151 
L 101.90457 76.796103 
L 102.158161 86.851343 
L 102.420206 87.11004 
L 103.197885 106.641204 
L 103.451477 115.239643 
L 103.713521 110.517251 
L 103.975565 109.495733 
L 104.212251 106.389905 
L 104.474295 105.188874 
L 104.989931 96.335201 
L 105.505566 102.46588 
L 105.76761 103.29665 
L 106.283246 100.795848 
L 106.536837 97.198743 
L 107.060926 98.140701 
L 107.559656 89.91743 
L 107.813247 88.17861 
L 108.075291 83.902203 
L 108.328882 84.483615 
L 108.590927 82.744794 
L 108.852971 88.040103 
L 109.368607 105.609911 
L 109.622198 109.557867 
L 109.884242 110.344347 
L 110.391425 103.24753 
L 111.169105 71.205449 
L 111.68474 61.570203 
L 111.946785 59.161894 
L 112.200376 54.393441 
L 112.716012 49.816739 
L 112.978056 42.641416 
L 113.2401 40.47061 
L 113.476785 35.797545 
L 113.73883 33.713827 
L 113.992421 28.301818 
L 114.508057 28.301818 
L 114.770101 29.042858 
L 115.032145 34.671605 
L 115.285737 32.869636 
L 115.547781 28.301818 
L 116.063416 28.301818 
L 116.325461 30.751526 
L 116.562146 30.751526 
L 117.339826 37.833809 
L 117.593417 35.515304 
L 117.855462 37.833809 
L 118.117506 30.751526 
L 118.371097 28.301818 
L 119.148777 28.301818 
L 119.410821 30.060538 
L 119.647507 28.301818 
L 121.718502 28.301818 
L 122.234138 31.742728 
L 122.74132 34.36698 
L 123.003365 30.307483 
L 123.256956 28.301818 
L 123.519 29.699624 
L 123.772591 28.301818 
L 124.034636 29.631453 
L 124.29668 28.301818 
L 125.065907 28.301818 
L 125.327951 33.250795 
L 125.589996 41.178084 
L 125.826681 40.331356 
L 126.088725 48.183053 
L 126.604361 46.857746 
L 127.119996 60.125519 
L 127.382041 62.509641 
L 127.635632 67.697126 
L 128.151268 85.64913 
L 128.413312 82.219193 
L 128.675356 83.633188 
L 129.174086 81.609223 
L 129.427677 77.81378 
L 129.689721 76.689588 
L 130.205357 85.050394 
L 130.983037 89.632787 
L 131.498672 96.182395 
L 131.760717 96.312442 
L 132.513038 89.76232 
L 133.028673 80.397521 
L 133.290717 80.716823 
L 133.552762 75.925551 
L 134.068397 76.662077 
L 134.584033 83.356766 
L 134.846077 82.313927 
L 135.091216 83.764489 
L 135.868896 80.716823 
L 136.122487 84.696893 
L 136.646575 87.578947 
L 137.162211 95.113005 
L 137.415802 96.563567 
L 137.677847 90.26129 
L 138.176576 86.859973 
L 138.43862 87.584214 
L 138.692212 83.288591 
L 139.469892 85.608426 
L 139.731936 88.899604 
L 140.247572 90.457618 
L 140.501163 93.649735 
L 140.763207 88.670608 
L 141.523981 88.670608 
L 141.777572 91.190801 
L 142.293208 91.190801 
L 142.555252 98.391763 
L 142.817297 100.67919 
L 143.070888 100.67919 
L 143.332932 96.049416 
L 143.586524 96.049416 
L 143.848568 93.649735 
L 144.609342 100.67919 
L 144.862933 98.391763 
L 145.124977 93.649735 
L 145.378569 91.190801 
L 145.640613 91.190801 
L 145.902657 88.670608 
L 146.156248 88.670608 
L 146.418293 86.086393 
L 146.671884 86.086393 
L 146.933928 79.077874 
L 147.195973 77.535334 
L 147.703155 65.396875 
L 148.218791 62.086406 
L 148.472382 66.497944 
L 148.734427 67.894458 
L 149.250062 64.61656 
L 149.512106 68.890241 
L 149.765698 70.111927 
L 150.027742 77.446021 
L 150.289786 79.214453 
L 150.526472 73.280448 
L 151.042107 66.214604 
L 151.557743 52.725454 
L 151.819787 41.943416 
L 152.081831 51.064941 
L 152.335423 53.433144 
L 152.851058 42.022954 
L 153.113103 38.458946 
L 153.375147 38.431528 
L 153.611832 34.608467 
L 154.643103 48.917474 
L 155.167192 65.987669 
L 155.420783 63.006534 
L 155.682828 66.612221 
L 155.936419 66.884421 
L 156.697193 72.263747 
L 156.959237 83.206008 
L 157.474873 92.181583 
L 157.990508 90.010861 
L 158.768188 95.166053 
L 159.021779 94.159837 
L 159.545868 90.230694 
L 159.791006 91.091386 
L 160.568686 84.733931 
L 161.346366 87.545853 
L 161.862002 101.078353 
L 162.115593 101.92675 
L 162.377637 96.312393 
L 162.876367 96.312393 
L 163.392003 90.357774 
L 163.907638 90.357774 
L 164.431727 104.61543 
L 164.685318 101.92675 
L 165.200954 101.92675 
L 165.462998 100.123907 
L 165.725042 101.165084 
L 166.223772 97.610182 
L 166.477363 108.889864 
L 166.739407 94.159837 
L 166.992999 89.518943 
L 168.032723 82.519667 
L 168.286314 83.704244 
L 168.548359 82.867797 
L 168.810403 87.704546 
L 169.047088 86.891014 
L 169.309132 88.871113 
L 169.562724 87.968258 
L 170.340404 93.539188 
L 170.602448 100.269783 
L 171.371675 104.993356 
L 172.38604 80.716823 
L 172.901676 59.114049 
L 173.155267 55.174415 
L 173.417311 45.36687 
L 173.679356 41.594891 
L 173.932947 31.619691 
L 174.194991 28.301818 
L 174.448582 28.301818 
L 174.710627 30.086859 
L 174.972671 28.301818 
L 175.987036 28.301818 
L 176.764716 33.868975 
L 177.018307 32.471483 
L 177.533943 36.021936 
L 177.795987 32.278463 
L 178.294717 30.897809 
L 179.072397 38.074509 
L 179.325988 37.447452 
L 179.588032 33.729782 
L 179.850077 36.114958 
L 180.103668 52.27121 
L 180.365712 43.479589 
L 180.881348 47.10876 
L 181.143392 45.923558 
L 181.380077 36.205241 
L 181.642122 34.903036 
L 181.895713 28.301818 
L 182.673393 28.301818 
L 182.935437 30.048038 
L 183.189029 28.301818 
L 183.704664 28.301818 
L 184.228753 45.025063 
L 184.735935 44.203285 
L 184.989527 40.922928 
L 185.505162 45.910912 
L 186.029251 56.534244 
L 186.282842 58.970901 
L 186.544886 66.678809 
L 186.798478 69.060721 
L 187.322566 66.678809 
L 187.559252 62.869753 
L 187.821296 61.628772 
L 188.074887 57.789491 
L 188.590523 55.278997 
L 188.852567 56.810849 
L 189.114611 52.84234 
L 189.368203 51.587093 
L 189.883838 54.624891 
L 190.906657 37.807148 
L 191.160248 36.429927 
L 191.675883 28.301818 
L 191.937928 30.13041 
L 192.199972 29.050159 
L 192.453563 30.872746 
L 192.969199 28.719986 
L 193.231243 28.301818 
L 193.493288 31.68867 
L 193.729973 28.301818 
L 193.992017 28.301818 
L 194.245608 31.68298 
L 194.507653 32.326647 
L 195.023288 28.301818 
L 195.285333 28.301818 
L 195.538924 28.992231 
L 195.800968 28.301818 
L 196.578648 28.301818 
L 196.823786 30.316351 
L 197.085831 35.193948 
L 197.601466 39.239105 
L 197.855058 43.966667 
L 198.379146 47.967846 
L 199.148373 61.482632 
L 199.410417 57.092317 
L 199.672462 57.607797 
L 199.909147 55.699296 
L 200.171191 58.718092 
L 200.686827 59.730043 
L 200.940418 57.898652 
L 201.464507 58.904819 
L 201.718098 61.687455 
L 202.233734 62.585006 
L 202.495778 59.050081 
L 202.757822 57.729369 
L 202.994508 60.868207 
L 203.256552 61.752708 
L 203.772188 52.446521 
L 204.025779 51.125809 
L 204.549867 43.692568 
L 205.065503 28.301818 
L 205.843183 28.301818 
L 206.079868 31.086753 
L 206.341912 28.301818 
L 206.857548 28.301818 
L 207.111139 31.144235 
L 207.373184 39.323149 
L 207.635228 41.934804 
L 207.888819 41.934804 
L 208.404455 36.654252 
L 208.928544 41.027361 
L 209.435726 52.558223 
L 209.689317 52.101363 
L 209.951362 49.307427 
L 210.204953 48.897307 
L 210.729042 52.779994 
L 211.244677 51.925415 
L 211.498269 49.157151 
L 211.760313 51.52326 
L 212.521087 51.52326 
L 212.774678 49.035705 
L 213.290314 53.960562 
L 213.552358 53.960562 
L 213.814402 56.349117 
L 214.067994 56.349117 
L 214.330038 58.690374 
L 214.583629 56.349117 
L 214.845673 58.812315 
L 215.107718 58.936719 
L 215.344403 61.424797 
L 215.606447 61.577128 
L 215.860039 66.400954 
L 216.122083 68.889033 
L 216.899763 82.719822 
L 217.153354 83.07847 
L 217.415398 87.549621 
L 217.66899 87.956089 
L 217.931034 87.56588 
L 218.429764 82.573464 
L 218.945399 85.907489 
L 219.985123 84.297875 
L 220.500759 87.533678 
L 220.75435 87.151045 
L 221.016395 84.012722 
L 221.523577 75.820108 
L 222.301257 67.022974 
L 222.554848 62.096578 
L 222.816893 59.286876 
L 223.594573 57.548587 
L 224.110208 52.47537 
L 224.372253 54.009079 
L 224.608938 49.575323 
L 224.870982 56.935593 
L 225.386618 55.970163 
L 225.640209 48.1128 
L 225.902253 47.746873 
L 226.164298 49.274369 
L 226.417889 48.941278 
L 226.679933 44.96367 
L 226.933525 44.698372 
L 227.457613 58.724967 
L 227.694298 60.571742 
L 228.471978 81.684865 
L 228.987614 97.679655 
L 230.018885 122.631528 
L 230.280929 123.616807 
L 230.542974 121.517422 
L 231.295295 131.52766 
L 231.557339 132.489619 
L 232.072974 141.600807 
L 232.335019 143.363652 
L 233.628334 159.752893 
L 233.873473 161.528909 
L 234.135517 165.821874 
L 234.651152 170.245493 
L 234.904744 170.058849 
L 235.166788 167.423559 
L 235.428832 165.961415 
L 235.944468 165.50112 
L 236.722148 158.4915 
L 236.958833 158.888134 
L 237.220877 158.551408 
L 237.474469 156.658321 
L 237.736513 157.060314 
L 237.990104 158.996271 
L 238.252149 160.137413 
L 238.514193 159.803421 
L 238.767784 160.985755 
L 239.28342 161.825236 
L 239.545464 157.500549 
L 239.807509 156.305388 
L 240.044194 153.431556 
L 240.821874 149.744134 
L 241.075465 149.364154 
L 241.337509 146.419057 
L 241.599554 145.17262 
L 242.36878 144.149726 
L 242.630825 142.766303 
L 243.129554 141.798618 
L 243.391599 142.196658 
L 243.64519 141.730254 
L 243.907234 142.126355 
L 244.160826 143.39165 
L 244.42287 142.056873 
L 244.938505 142.831561 
L 245.716185 141.407747 
L 246.485412 137.286896 
L 247.001048 136.330595 
L 247.254639 136.755957 
L 247.516683 135.374295 
L 248.032319 136.231191 
L 248.294363 135.772922 
L 248.547955 136.196589 
L 248.809999 135.000586 
L 249.072043 132.908739 
L 249.308729 132.637055 
L 249.570773 130.502825 
L 249.824364 130.273524 
L 250.34 131.608852 
L 251.11768 128.12976 
L 251.379724 129.752409 
L 252.157404 123.55726 
L 252.394089 120.530639 
L 252.656133 119.428996 
L 253.949449 104.9093 
L 254.465085 102.85763 
L 254.718676 100.770174 
L 255.47945 90.634551 
L 255.741494 88.726641 
L 255.995085 88.030936 
L 256.25713 88.482651 
L 256.510721 83.031386 
L 256.772765 79.921346 
L 257.288401 78.574521 
L 257.804036 73.548786 
L 258.066081 71.640876 
L 258.328125 67.152616 
L 258.835308 63.292165 
L 259.088899 62.736246 
L 259.604535 57.530299 
L 259.866579 55.628884 
L 260.128623 56.463022 
L 260.382214 53.169873 
L 260.644259 51.279512 
L 262.17426 32.006928 
L 262.436304 30.651195 
L 262.689895 30.834375 
L 262.951939 28.301818 
L 264.743985 28.301818 
L 265.006029 29.641469 
L 265.25962 28.301818 
L 266.0373 28.301818 
L 266.299344 29.679923 
L 266.552936 28.301818 
L 267.068571 28.301818 
L 267.59266 28.952875 
L 268.091389 33.005784 
L 268.607025 33.807319 
L 269.122661 41.491246 
L 269.638296 45.87566 
L 269.900341 46.477214 
L 270.415976 51.742117 
L 270.67802 56.520695 
L 273.247745 126.953817 
L 273.771834 125.151534 
L 274.008519 125.545304 
L 274.524155 128.994187 
L 274.786199 131.994986 
L 275.039791 138.564177 
L 275.563879 143.024867 
L 276.333106 147.963039 
L 276.59515 147.69967 
L 276.857195 148.496709 
L 277.609515 147.679868 
L 277.87156 148.503536 
L 278.387195 147.952229 
L 278.64924 149.826957 
L 278.902831 148.510262 
L 279.164875 148.220556 
L 279.418467 146.882046 
L 279.680511 149.028135 
L 279.942555 150.077683 
L 280.17924 150.077683 
L 280.441285 152.161574 
L 280.694876 153.211444 
L 281.472556 153.249647 
L 281.7346 153.249647 
L 282.765872 141.66508 
L 283.027916 138.516101 
L 284.56637 109.680446 
L 284.828414 103.472458 
L 285.597641 69.328523 
L 285.859685 67.831561 
L 286.121729 64.749581 
L 286.358415 63.295407 
L 287.136095 39.323246 
L 287.913775 63.63078 
L 288.167366 60.654347 
L 288.683001 51.394335 
L 288.945046 50.034314 
L 289.20709 50.366905 
L 289.443775 52.421661 
L 289.70582 58.194846 
L 289.959411 60.640377 
L 290.221455 64.749581 
L 290.999135 89.40542 
L 291.768362 134.512398 
L 292.030406 133.477837 
L 292.292451 131.289202 
L 292.529136 130.247198 
L 292.79118 128.019607 
L 293.306816 125.920183 
L 293.822451 119.622224 
L 294.084496 120.22522 
L 294.853723 100.368463 
L 295.115767 97.941944 
L 295.377811 98.299031 
L 295.622949 97.264469 
L 296.138585 93.125914 
L 296.400629 92.4874 
L 296.654221 88.987048 
L 297.178309 84.848493 
L 297.693945 84.848493 
L 297.947536 86.323441 
L 298.471625 84.268685 
L 299.223946 85.59565 
L 299.48599 88.839343 
L 299.739581 87.854046 
L 300.517261 93.051518 
L 301.032897 93.75996 
L 302.309306 114.193615 
L 302.571351 116.859622 
L 303.602622 134.084902 
L 304.118257 141.10609 
L 304.642346 141.10609 
L 305.141076 145.465573 
L 305.394667 146.307576 
L 305.656711 146.307576 
L 306.172347 142.93915 
L 306.434391 142.968106 
L 307.972845 137.973173 
L 308.234889 138.030341 
L 308.48848 137.202444 
L 309.004116 137.324196 
L 309.528205 135.687357 
L 310.04384 135.687357 
L 310.297432 136.570102 
L 311.058205 134.128759 
L 311.32025 134.128759 
L 311.573841 135.01528 
L 311.835885 136.758936 
L 312.613565 134.358056 
L 313.129201 134.358056 
L 313.382792 135.228705 
L 313.644837 133.636833 
L 313.906881 131.156964 
L 314.143566 131.340557 
L 314.659202 133.086239 
L 314.921246 134.79458 
L 315.174837 142.842045 
L 315.436882 145.09459 
L 315.698926 145.832847 
L 316.214561 149.32323 
L 316.468153 149.31051 
L 316.992241 147.962972 
L 317.228927 149.947328 
L 318.006607 142.695655 
L 318.260198 142.090618 
L 318.522242 142.168917 
L 318.784286 143.554468 
L 319.299922 137.92999 
L 319.553513 136.820497 
L 319.815558 138.183991 
L 320.32274 134.963406 
L 320.584785 137.616392 
L 320.838376 138.265764 
L 321.354011 140.245399 
L 321.616056 139.685781 
L 321.8781 138.503248 
L 323.408101 113.879967 
L 323.670145 112.204395 
L 323.923736 109.010348 
L 324.185781 107.355697 
L 324.439372 104.56763 
L 324.963461 103.719219 
L 325.732688 82.90192 
L 326.256776 78.310293 
L 326.493461 77.377863 
L 326.755506 75.536511 
L 327.271141 73.710632 
L 328.048821 55.945728 
L 328.818048 37.295304 
L 329.080092 38.467245 
L 329.342137 38.619272 
L 330.356502 31.073893 
L 330.872138 35.548678 
L 331.134182 39.739491 
L 331.903409 61.59782 
L 332.165453 61.051752 
L 332.427497 58.737412 
L 332.93468 57.429879 
L 333.188271 55.783821 
L 333.450316 55.038437 
L 333.703907 56.819543 
L 334.227995 56.819543 
L 334.997222 63.329792 
L 335.521311 61.59782 
L 335.757996 62.467062 
L 336.020041 61.923046 
L 336.535676 62.564595 
L 336.789267 62.564595 
L 337.051312 63.420549 
L 337.313356 63.420549 
L 337.566947 62.660683 
L 338.082583 58.574164 
L 338.843357 55.343241 
L 339.105401 55.538681 
L 339.358992 57.496651 
L 339.621037 58.574164 
L 340.136672 56.420754 
L 340.398717 54.457148 
L 341.167944 42.171481 
L 342.190762 38.374378 
L 342.706397 37.288793 
L 342.959989 35.539231 
L 343.484077 31.111317 
L 344.253304 28.301818 
L 346.577891 28.301818 
L 347.347118 44.490192 
L 347.609162 44.965436 
L 348.369936 48.572178 
L 348.885572 50.310568 
L 349.139163 50.632529 
L 349.916843 46.45695 
L 350.178887 45.937453 
L 350.432478 44.550495 
L 350.694523 47.20525 
L 350.956567 48.122505 
L 351.708888 55.206695 
L 351.970932 57.023524 
L 352.224523 57.836602 
L 352.486568 57.023524 
L 352.748612 57.023524 
L 353.002203 56.114428 
L 353.264248 56.026038 
L 353.517839 54.297599 
L 353.779883 54.214115 
L 354.278613 51.571673 
L 354.540657 51.497589 
L 354.794248 50.592986 
L 355.309884 50.452536 
L 355.571928 49.554128 
L 356.087564 49.421701 
L 356.6032 47.63577 
L 357.372426 32.898155 
L 357.634471 33.334597 
L 357.888062 32.888626 
L 358.150106 33.323626 
L 358.927786 33.323626 
L 359.181378 35.065187 
L 359.697013 35.065187 
L 360.457787 36.386986 
L 361.235467 36.386986 
L 361.489058 37.220751 
L 361.751103 35.488543 
L 362.013147 35.470538 
L 362.782374 28.301818 
L 367.406188 28.301818 
L 367.659779 28.764354 
L 367.921824 28.364081 
L 368.437459 28.301818 
L 377.448403 28.301818 
L 377.701994 30.516585 
L 378.21763 31.729228 
L 378.741718 29.909808 
L 378.978404 29.79954 
L 379.756083 32.169058 
L 380.533763 32.714748 
L 381.565035 35.650854 
L 382.072217 35.405201 
L 382.587853 34.58376 
L 383.103488 35.25714 
L 383.627577 34.450584 
L 383.881168 34.784214 
L 384.396804 33.98941 
L 384.658848 33.875736 
L 384.920893 34.486311 
L 385.157578 35.804025 
L 385.419622 36.395566 
L 385.673213 36.27778 
L 385.935258 36.861884 
L 386.450893 38.550686 
L 386.712938 38.697953 
L 387.482164 41.948388 
L 387.744209 42.348395 
L 388.242938 44.448503 
L 388.504983 46.124965 
L 388.758574 46.505086 
L 389.27421 48.520249 
L 389.536254 48.26393 
L 389.798298 49.257397 
L 390.567525 56.68912 
L 390.829569 57.441117 
L 392.35957 65.09695 
L 392.621614 65.900096 
L 392.883659 66.144373 
L 393.13725 67.186675 
L 393.399294 67.674035 
L 393.652886 69.255333 
L 393.91493 69.255333 
L 394.176974 70.337952 
L 395.715428 73.570613 
L 395.977472 73.854651 
L 396.231064 73.23921 
L 396.746699 70.985905 
L 397.008744 71.038019 
L 397.270788 72.124276 
L 397.507473 73.701961 
L 398.285153 74.777874 
L 398.538744 74.14382 
L 398.800789 76.917109 
L 399.578469 74.811531 
L 399.83206 73.851574 
L 400.094104 74.446571 
L 400.592834 77.424093 
L 400.854878 77.074499 
L 401.108469 78.50631 
L 401.370514 79.034166 
L 401.624105 78.947615 
L 402.148194 80.470646 
L 402.663829 83.793907 
L 402.91742 85.212835 
L 403.179465 84.669556 
L 403.441509 84.924856 
L 403.678194 84.388856 
L 403.940239 84.422683 
L 404.19383 84.847347 
L 404.455874 85.655024 
L 404.709466 87.94832 
L 404.97151 88.325609 
L 405.233554 89.449183 
L 406.002781 94.364834 
L 406.264825 94.542507 
L 406.52687 95.074018 
L 406.772008 95.249468 
L 407.034052 94.709145 
L 407.287644 94.875294 
L 407.549688 94.691434 
L 408.065323 93.633908 
L 408.327368 92.766686 
L 409.358639 83.224365 
L 409.620683 82.98924 
L 410.119413 80.981791 
L 410.635048 77.836706 
L 411.150684 75.028829 
L 411.928364 69.755478 
L 412.181955 67.742625 
L 412.706044 66.481258 
L 412.942729 66.220738 
L 413.204773 66.276236 
L 413.458365 66.682476 
L 413.720409 67.426988 
L 413.974 67.471785 
L 414.236045 66.833631 
L 414.498089 66.882351 
L 414.75168 68.15907 
L 415.267316 68.676637 
L 415.52936 68.746905 
L 416.02809 69.845831 
L 416.290134 70.393924 
L 416.80577 71.760258 
L 417.059361 71.859223 
L 417.321405 71.657183 
L 417.58345 71.755264 
L 417.837041 71.661589 
L 418.099085 71.86129 
L 418.352676 72.344771 
L 419.383948 76.781855 
L 419.637539 77.187435 
L 419.899583 77.845053 
L 420.153175 76.276922 
L 420.415219 76.279433 
L 420.677263 76.540044 
L 421.44649 79.182798 
L 421.708534 79.525619 
L 421.970579 80.347502 
L 422.469308 80.63362 
L 422.984944 81.724138 
L 423.238535 82.612866 
L 423.500579 82.801685 
L 423.762624 83.438257 
L 424.278259 82.213243 
L 424.793895 81.437229 
L 425.055939 81.158426 
L 425.292624 79.984308 
L 425.554669 79.935249 
L 425.80826 80.997925 
L 426.070304 82.692702 
L 426.323896 83.361069 
L 426.847984 83.401519 
L 427.101576 83.83799 
L 427.36362 83.208106 
L 427.617211 82.144518 
L 427.879256 82.167405 
L 428.1413 81.974749 
L 428.377985 81.567231 
L 428.893621 83.732197 
L 429.409256 84.298466 
L 429.671301 84.325376 
L 429.933345 84.766154 
L 430.186936 84.49513 
L 430.702572 83.33935 
L 430.964616 83.691633 
L 431.22666 83.835909 
L 431.471799 83.368147 
L 431.733843 83.126048 
L 432.249479 81.837864 
L 432.765114 82.116349 
L 433.027159 82.454677 
L 433.28075 81.632845 
L 434.05843 77.96704 
L 434.320474 77.756759 
L 434.557159 77.346414 
L 434.819204 77.607527 
L 435.072795 77.666161 
L 435.334839 77.524182 
L 436.112519 76.152157 
L 436.36611 76.398768 
L 436.881746 76.491472 
L 437.14379 75.991285 
L 437.904564 71.054982 
L 438.158155 70.933186 
L 438.4202 71.420015 
L 438.935835 69.459035 
L 439.451471 69.045957 
L 439.967107 68.548211 
L 440.229151 69.421669 
L 440.491195 69.685996 
L 440.72788 70.147246 
L 440.989925 69.7393 
L 441.759152 67.512147 
L 442.28324 67.434173 
L 442.536832 66.7227 
L 443.314512 63.71027 
L 443.576556 63.098898 
L 443.821694 62.885832 
L 444.33733 60.087847 
L 444.852965 57.758119 
L 445.11501 56.817696 
L 445.377054 56.47821 
L 445.89269 52.98227 
L 446.146281 50.648184 
L 446.408325 50.282844 
L 447.42269 46.386315 
L 447.684735 42.720523 
L 447.938326 42.0413 
L 448.462415 35.901524 
L 448.716006 35.539415 
L 449.231641 30.310196 
L 449.493686 31.109426 
L 450.25446 28.301818 
L 451.023686 28.301818 
L 451.547775 30.596758 
L 451.801366 30.037538 
L 452.063411 28.722965 
L 452.317002 28.301818 
L 452.579046 29.510765 
L 452.841091 29.758097 
L 453.077776 30.21937 
L 453.33982 30.174783 
L 453.855456 31.289235 
L 454.109047 30.742611 
L 454.371091 30.579955 
L 454.633136 30.802886 
L 455.402363 33.831165 
L 455.664407 33.358332 
L 455.926451 33.449485 
L 457.202861 35.63805 
L 457.464905 35.881986 
L 457.726949 35.919438 
L 457.980541 37.09985 
L 458.242585 37.530106 
L 458.496176 37.21198 
L 458.758221 37.988382 
L 459.25695 38.403226 
L 459.518994 38.839553 
L 460.288221 39.001807 
L 461.065901 40.864615 
L 461.327946 40.63586 
L 461.581537 40.234299 
L 461.843581 40.058357 
L 462.342311 40.05125 
L 462.857946 38.844645 
L 463.373582 38.938967 
L 463.89767 39.658567 
L 464.666897 35.277155 
L 465.190986 37.131183 
L 465.427671 38.168939 
L 466.205351 36.358512 
L 466.458942 34.822838 
L 467.236622 32.837427 
L 467.752258 29.828771 
L 468.014302 29.40319 
L 468.276347 28.301818 
L 476.247566 28.301818 
L 476.501157 28.510463 
L 476.763201 28.301818 
L 477.777567 28.301818 
L 478.039611 30.211669 
L 478.555247 30.211669 
L 478.808838 29.991316 
L 479.070882 29.614865 
L 479.586518 30.074239 
L 479.848562 29.967611 
L 480.102153 29.704868 
L 480.364198 30.117475 
L 480.626242 31.299989 
L 480.87138 33.076946 
L 481.387016 34.150118 
L 481.64906 35.808257 
L 482.42674 43.077826 
L 482.942376 44.464376 
L 483.195967 44.728263 
L 483.720056 50.286822 
L 484.734421 58.948473 
L 484.988012 58.040565 
L 485.250056 57.79144 
L 485.512101 58.597946 
L 485.765692 57.807114 
L 486.027736 57.409692 
L 486.281328 56.477125 
L 486.543372 57.060861 
L 486.805416 58.038772 
L 487.042101 59.401307 
L 487.304146 59.174681 
L 487.819781 56.256613 
L 488.597461 61.2123 
L 489.113097 58.96138 
L 489.366688 57.124297 
L 489.628732 57.431916 
L 490.127462 59.186217 
L 490.643098 58.776944 
L 490.905142 59.272467 
L 491.420778 56.386758 
L 491.682822 55.147082 
L 492.452049 42.469663 
L 493.48332 35.777259 
L 493.736911 34.559882 
L 493.998956 32.672719 
L 494.252547 29.645771 
L 494.514591 28.301818 
L 497.599952 28.301818 
L 497.861996 29.285766 
L 498.115587 28.301818 
L 502.240672 28.301818 
L 502.477357 28.580871 
L 502.739402 28.301818 
L 505.326033 28.301818 
L 506.086807 30.071937 
L 506.602442 32.391676 
L 506.864487 30.923696 
L 507.126531 30.136091 
L 507.380122 28.865947 
L 507.642166 28.301818 
L 507.895758 28.301818 
L 508.918576 47.531041 
L 510.465483 80.764025 
L 510.981118 89.550001 
L 511.741892 95.711096 
L 512.003936 95.633568 
L 512.257528 95.367348 
L 512.519572 94.755029 
L 514.590568 87.510498 
L 514.827253 87.447906 
L 515.342888 84.458532 
L 515.858524 79.362336 
L 516.382613 75.437605 
L 517.151839 63.415907 
L 518.183111 57.231195 
L 519.730018 37.570645 
L 520.245653 28.301818 
L 530.025824 28.301818 
L 530.533006 28.540071 
L 531.302233 28.301818 
L 532.595549 28.301818 
L 532.857593 28.530045 
L 533.119637 28.301818 
L 535.680909 28.301818 
L 535.680909 28.301818 
" style="fill:none;stroke:#1f77b4;stroke-linecap:square;stroke-width:1.5;"/>
   </g>
   <g id="line2d_15">
    <path clip-path="url(#pfb0563d17f)" d="M 82.099091 28.301818 
L 82.361135 32.670635 
L 82.859865 28.301818 
L 83.3755 28.301818 
L 83.629092 33.240881 
L 83.891136 28.301818 
L 84.15318 31.80449 
L 84.406772 49.093819 
L 84.668816 46.438892 
L 84.922407 46.807353 
L 85.184451 40.579284 
L 85.446496 39.541272 
L 85.691634 35.11158 
L 85.953678 33.712184 
L 86.20727 33.712184 
L 86.469314 34.339789 
L 86.722905 32.043669 
L 87.246994 43.409133 
L 87.500585 36.793954 
L 87.76263 45.216798 
L 88.016221 35.484183 
L 88.278265 33.453951 
L 89.039039 42.527503 
L 89.554675 32.392743 
L 89.808266 32.915681 
L 90.07031 32.915681 
L 90.585946 68.609675 
L 90.84799 69.718459 
L 91.101581 54.454257 
L 91.62567 37.943127 
L 92.377991 49.315838 
L 92.640035 44.538514 
L 92.893626 46.52514 
L 93.155671 43.981838 
L 93.933351 32.108115 
L 94.186942 33.819546 
L 94.448986 33.819546 
L 94.711031 34.390023 
L 94.947716 30.967161 
L 95.20976 29.717263 
L 95.463351 33.526228 
L 95.725396 34.404728 
L 95.978987 33.814748 
L 96.241031 34.838298 
L 96.503076 34.994709 
L 96.756667 39.124571 
L 97.018711 32.771654 
L 97.534347 28.301818 
L 97.796391 28.301818 
L 98.041529 28.887027 
L 98.303574 36.589413 
L 98.557165 36.97948 
L 98.819209 31.625435 
L 99.072801 34.77231 
L 99.850481 70.234703 
L 100.890205 93.866849 
L 101.12689 95.169176 
L 101.388934 114.508386 
L 101.90457 120.996697 
L 102.158161 115.120916 
L 102.68225 80.901835 
L 102.935841 76.323441 
L 103.197885 75.330219 
L 103.451477 75.997354 
L 103.713521 69.290207 
L 103.975565 71.827841 
L 104.989931 34.301742 
L 105.243522 31.957378 
L 105.505566 37.080201 
L 105.76761 31.891357 
L 106.021202 31.957378 
L 106.536837 28.301818 
L 107.060926 28.301818 
L 107.297611 29.587839 
L 107.559656 28.301818 
L 109.368607 28.301818 
L 109.622198 36.601826 
L 109.884242 34.31202 
L 110.146287 29.759111 
L 110.391425 28.301818 
L 110.653469 28.301818 
L 110.90706 41.857702 
L 111.422696 28.301818 
L 111.68474 28.301818 
L 111.946785 31.505966 
L 112.200376 28.301818 
L 112.978056 28.301818 
L 113.2401 31.793603 
L 113.476785 28.832246 
L 113.73883 32.282004 
L 113.992421 28.301818 
L 114.254465 28.301818 
L 114.770101 50.836529 
L 115.285737 63.900775 
L 115.547781 60.25814 
L 115.801372 67.02073 
L 116.063416 70.402025 
L 116.325461 77.300697 
L 116.562146 77.672917 
L 116.82419 79.647108 
L 117.339826 87.108759 
L 117.593417 73.543778 
L 117.855462 69.000719 
L 118.117506 60.550795 
L 118.371097 64.766533 
L 118.633141 72.47503 
L 118.886733 69.229343 
L 119.148777 70.377905 
L 119.410821 77.405209 
L 119.909551 65.919422 
L 120.163142 67.618983 
L 120.425187 58.853619 
L 120.678778 57.769708 
L 120.940822 68.434989 
L 121.202866 63.634697 
L 121.456458 69.85119 
L 121.718502 64.180166 
L 122.234138 78.139849 
L 122.496182 72.337788 
L 122.74132 73.166654 
L 123.003365 78.699212 
L 123.519 100.029055 
L 123.772591 97.934901 
L 124.034636 85.700207 
L 124.550271 94.496637 
L 124.812316 94.101712 
L 125.065907 92.279235 
L 125.327951 96.8999 
L 125.589996 93.188082 
L 125.826681 88.077165 
L 126.088725 90.893036 
L 126.342316 88.506429 
L 126.857952 79.37411 
L 127.119996 67.409873 
L 127.382041 67.600279 
L 127.897676 42.04569 
L 128.151268 49.747045 
L 128.675356 39.174273 
L 128.912041 41.446184 
L 129.174086 41.812279 
L 129.427677 40.562202 
L 129.689721 28.301818 
L 129.943313 28.301818 
L 130.205357 29.606677 
L 130.467401 28.301818 
L 130.983037 28.301818 
L 131.498672 46.999978 
L 131.760717 51.633427 
L 132.513038 35.960907 
L 133.028673 43.592645 
L 133.290717 52.726876 
L 133.552762 52.955244 
L 133.806353 63.740143 
L 134.068397 62.081774 
L 134.321989 68.662216 
L 134.584033 69.527917 
L 134.846077 68.236877 
L 135.091216 76.743666 
L 135.35326 73.370101 
L 135.606851 67.741295 
L 135.868896 72.110226 
L 136.122487 69.047338 
L 136.646575 58.598992 
L 136.900167 62.612944 
L 137.415802 74.191629 
L 137.677847 61.978021 
L 137.939891 56.521948 
L 138.176576 58.604235 
L 138.43862 59.05551 
L 138.692212 46.735734 
L 138.954256 42.57272 
L 139.207847 47.660848 
L 139.731936 41.550374 
L 139.985527 46.118842 
L 140.247572 48.403076 
L 140.501163 52.737657 
L 140.763207 43.960392 
L 141.261937 48.585962 
L 141.523981 43.497834 
L 141.777572 36.068213 
L 142.293208 39.722987 
L 142.555252 54.488999 
L 142.817297 61.211078 
L 143.332932 82.826391 
L 143.586524 87.730609 
L 143.848568 74.398869 
L 144.110612 74.355468 
L 144.347297 80.92084 
L 144.609342 76.448251 
L 144.862933 74.75341 
L 145.124977 73.947594 
L 145.378569 74.900188 
L 145.640613 67.59064 
L 145.902657 46.273177 
L 146.156248 46.273177 
L 146.418293 46.899566 
L 146.671884 39.404967 
L 146.933928 28.301818 
L 147.956747 28.301818 
L 148.218791 29.726491 
L 148.472382 36.65015 
L 148.734427 36.32571 
L 148.996471 42.71515 
L 149.250062 37.694876 
L 149.765698 50.776187 
L 150.027742 55.290719 
L 150.289786 62.301827 
L 150.526472 65.250762 
L 150.788516 62.44121 
L 151.042107 80.207537 
L 151.304151 85.118428 
L 151.557743 99.535653 
L 151.819787 96.40652 
L 152.597467 78.684691 
L 152.851058 83.389172 
L 153.113103 81.964533 
L 153.375147 76.0252 
L 153.611832 63.120512 
L 153.873876 60.064695 
L 154.127468 68.722843 
L 154.389512 71.77866 
L 154.643103 76.362386 
L 154.905148 74.540331 
L 155.167192 74.155216 
L 155.420783 74.936184 
L 155.682828 74.936184 
L 155.936419 73.815872 
L 156.460508 79.418203 
L 156.959237 79.524122 
L 157.212828 70.89253 
L 157.474873 69.617334 
L 157.728464 65.597174 
L 157.990508 59.024664 
L 158.252553 57.560417 
L 158.506144 60.976993 
L 159.021779 78.994939 
L 159.283824 78.450377 
L 159.545868 66.176329 
L 159.791006 69.741449 
L 160.053051 64.393649 
L 160.306642 62.033246 
L 160.568686 62.796333 
L 161.084322 89.951444 
L 161.346366 79.302381 
L 161.599957 80.931021 
L 161.862002 72.928075 
L 162.115593 80.960514 
L 162.377637 74.729506 
L 162.639682 76.796678 
L 162.876367 76.279885 
L 163.138411 79.866466 
L 163.392003 75.575209 
L 163.907638 55.341989 
L 164.431727 46.327817 
L 164.685318 50.838867 
L 164.947362 59.373334 
L 165.462998 47.826702 
L 165.725042 51.772338 
L 165.961728 62.661378 
L 166.223772 66.621029 
L 166.477363 67.630508 
L 166.739407 42.368166 
L 166.992999 37.786153 
L 167.255043 28.301818 
L 167.517087 28.803743 
L 167.770679 34.324914 
L 168.032723 28.301818 
L 169.047088 28.301818 
L 169.309132 28.614414 
L 169.824768 48.630801 
L 170.078359 43.507115 
L 170.340404 40.475403 
L 170.602448 52.578229 
L 170.856039 56.661436 
L 171.118084 55.126183 
L 171.371675 73.984366 
L 171.633719 71.076303 
L 171.895763 69.764947 
L 172.38604 65.0956 
L 172.901676 74.540654 
L 173.155267 77.202646 
L 173.417311 71.560784 
L 173.679356 79.410292 
L 173.932947 68.953398 
L 174.448582 33.721254 
L 174.710627 29.470127 
L 174.972671 28.301818 
L 175.471401 28.301818 
L 175.724992 41.625019 
L 175.987036 28.301818 
L 176.240627 49.124649 
L 176.502672 48.794436 
L 177.018307 55.667922 
L 177.280352 53.489903 
L 177.533943 60.143594 
L 177.795987 52.30512 
L 178.058032 50.23175 
L 178.294717 49.935554 
L 178.556761 44.632094 
L 179.072397 52.404587 
L 179.325988 46.973174 
L 179.588032 37.429083 
L 179.850077 39.826577 
L 180.103668 63.809055 
L 180.365712 65.20364 
L 180.619304 72.923212 
L 180.881348 64.263698 
L 181.380077 67.088661 
L 181.642122 76.307727 
L 181.895713 75.55956 
L 182.411349 96.99935 
L 183.189029 113.865318 
L 183.451073 111.181844 
L 183.704664 102.794275 
L 183.966708 104.054396 
L 184.228753 113.267435 
L 184.473891 111.787163 
L 184.735935 105.184705 
L 185.251571 104.529634 
L 185.505162 96.720518 
L 185.767207 92.425528 
L 186.029251 85.969442 
L 186.282842 73.818614 
L 186.544886 67.137241 
L 186.798478 64.927411 
L 187.060522 59.955295 
L 187.559252 39.990194 
L 187.821296 43.063216 
L 188.074887 52.625309 
L 188.336932 49.799535 
L 188.852567 35.79971 
L 189.368203 28.323653 
L 189.630247 32.726688 
L 189.883838 29.293908 
L 190.145883 28.301818 
L 190.407927 30.177806 
L 190.644612 36.609764 
L 190.906657 40.093741 
L 191.160248 49.527849 
L 191.675883 44.429149 
L 191.937928 32.053794 
L 192.199972 28.301818 
L 192.453563 41.792964 
L 192.715608 39.386077 
L 193.231243 48.829089 
L 193.493288 61.46199 
L 193.729973 81.977845 
L 193.992017 80.967842 
L 194.507653 100.977439 
L 194.761244 93.636674 
L 195.023288 108.562896 
L 195.285333 110.520434 
L 195.538924 131.998759 
L 195.800968 135.003034 
L 196.316604 114.151344 
L 196.578648 118.758845 
L 197.339422 93.807036 
L 197.601466 93.546212 
L 197.855058 88.488942 
L 198.117102 79.717322 
L 198.379146 82.039222 
L 198.632738 81.752022 
L 198.894782 69.857802 
L 199.410417 64.050281 
L 199.672462 72.954742 
L 199.909147 69.956633 
L 200.424783 59.582518 
L 200.686827 57.863185 
L 201.202463 51.193898 
L 201.464507 53.349663 
L 201.980142 60.486984 
L 202.233734 59.987524 
L 202.495778 62.769195 
L 202.757822 70.985156 
L 202.994508 69.795754 
L 203.256552 77.204237 
L 203.510143 76.715014 
L 204.025779 95.633038 
L 204.287823 88.87906 
L 204.549867 85.483078 
L 204.803459 69.371083 
L 205.065503 65.007691 
L 205.319094 71.369687 
L 205.581139 65.98646 
L 205.843183 54.707748 
L 206.079868 59.962935 
L 206.595504 48.242685 
L 206.857548 43.340897 
L 207.111139 47.042573 
L 207.635228 80.66799 
L 207.888819 79.444529 
L 208.150864 68.569968 
L 208.404455 65.209626 
L 208.666499 67.333771 
L 208.928544 71.61438 
L 209.173682 69.850579 
L 209.435726 69.659683 
L 209.689317 69.89238 
L 209.951362 67.684749 
L 210.204953 67.449748 
L 210.466997 64.540349 
L 210.729042 65.60489 
L 210.982633 66.065764 
L 211.244677 68.600575 
L 212.259042 90.031247 
L 212.521087 90.261684 
L 212.774678 93.761005 
L 213.036722 105.700985 
L 213.290314 105.08183 
L 213.552358 100.063417 
L 213.814402 100.184315 
L 214.330038 112.824008 
L 214.583629 111.249916 
L 215.107718 99.379088 
L 215.606447 105.700985 
L 216.122083 107.362927 
L 216.375674 119.379745 
L 216.637719 122.780458 
L 216.899763 122.780458 
L 217.153354 121.096936 
L 217.415398 122.780458 
L 217.66899 128.475494 
L 217.931034 125.56879 
L 218.193078 126.154602 
L 218.429764 120.137069 
L 218.691808 108.99163 
L 218.945399 115.059935 
L 219.207443 113.047601 
L 219.461035 113.718379 
L 220.500759 85.404602 
L 220.75435 84.9661 
L 221.016395 90.221801 
L 221.785622 99.583526 
L 222.039213 97.168343 
L 222.301257 97.097991 
L 222.554848 99.816298 
L 222.816893 100.136663 
L 223.332528 93.36749 
L 223.594573 92.319589 
L 224.372253 122.880088 
L 224.608938 117.610754 
L 225.124573 136.500374 
L 225.386618 135.778374 
L 225.640209 137.735374 
L 225.902253 144.637803 
L 226.679933 175.050673 
L 226.933525 180.725997 
L 227.457613 173.815645 
L 227.694298 175.385233 
L 227.956343 178.152429 
L 228.209934 176.942672 
L 228.471978 178.365556 
L 228.72557 180.500027 
L 228.987614 181.661508 
L 229.249658 184.360841 
L 229.503249 181.877805 
L 229.765294 181.148711 
L 230.018885 184.692108 
L 230.280929 185.376437 
L 231.041703 179.360898 
L 231.295295 172.953233 
L 231.557339 169.7462 
L 231.81093 169.389095 
L 232.072974 179.646632 
L 232.335019 178.506235 
L 232.58861 174.661584 
L 233.104246 186.234564 
L 233.36629 189.496595 
L 233.628334 199.010378 
L 233.873473 193.428593 
L 234.135517 197.144874 
L 234.389108 204.457923 
L 234.651152 207.238949 
L 234.904744 206.936092 
L 235.166788 208.269435 
L 235.428832 203.952549 
L 235.682424 203.392517 
L 235.944468 207.503076 
L 236.198059 213.54328 
L 236.460104 208.308664 
L 236.722148 206.166651 
L 236.958833 207.914422 
L 237.220877 206.60198 
L 237.474469 201.974316 
L 237.736513 208.771936 
L 238.252149 210.52263 
L 238.514193 207.517415 
L 238.767784 206.356011 
L 239.28342 197.39373 
L 239.807509 193.130817 
L 240.559829 177.467725 
L 240.821874 178.549538 
L 241.075465 178.423166 
L 241.337509 172.691615 
L 241.853145 167.596176 
L 242.115189 174.524934 
L 242.36878 175.492135 
L 242.630825 173.180716 
L 242.892869 168.072689 
L 243.129554 166.056362 
L 244.160826 186.991772 
L 244.42287 185.844663 
L 244.684914 185.810111 
L 244.938505 187.995084 
L 245.97823 176.356822 
L 246.485412 179.901805 
L 246.739004 180.300326 
L 247.001048 178.174881 
L 247.516683 168.743216 
L 248.032319 172.943134 
L 248.809999 154.708212 
L 249.072043 152.723598 
L 249.308729 157.18841 
L 249.570773 157.84413 
L 249.824364 154.316601 
L 250.086408 153.4476 
L 250.864088 145.963724 
L 251.11768 141.115427 
L 251.379724 139.00174 
L 251.89536 133.222154 
L 252.157404 132.969831 
L 252.394089 142.982638 
L 252.656133 147.983017 
L 252.909725 146.154388 
L 253.687405 122.536154 
L 253.949449 120.928284 
L 254.20304 125.75427 
L 254.465085 124.529147 
L 254.718676 120.701544 
L 254.98072 119.895924 
L 255.995085 102.02988 
L 256.25713 101.759983 
L 256.510721 94.139158 
L 257.03481 71.686837 
L 257.288401 76.332145 
L 257.804036 64.898926 
L 258.066081 63.985168 
L 258.328125 64.082117 
L 259.088899 30.224721 
L 259.350943 41.631322 
L 259.604535 39.782433 
L 259.866579 31.594496 
L 260.128623 28.301818 
L 263.213984 28.301818 
L 263.467575 56.274414 
L 263.729619 118.895846 
L 263.983211 110.914625 
L 264.245255 107.200443 
L 265.006029 73.858325 
L 265.25962 85.712173 
L 265.521664 105.539344 
L 266.0373 108.602606 
L 266.299344 109.800399 
L 266.552936 134.032752 
L 267.068571 151.972597 
L 267.330616 145.879311 
L 267.59266 132.646648 
L 267.829345 128.527204 
L 268.344981 155.883878 
L 268.607025 158.524017 
L 268.860616 154.070206 
L 269.122661 158.233551 
L 269.638296 192.241458 
L 269.900341 189.480703 
L 270.153932 208.299797 
L 270.67802 207.480229 
L 270.923159 206.557399 
L 271.185203 226.762613 
L 271.700839 241.538182 
L 271.95443 238.958161 
L 272.216474 211.268326 
L 272.478519 202.695069 
L 272.73211 214.548997 
L 272.994154 214.731374 
L 273.247745 216.702198 
L 273.50979 212.462113 
L 273.771834 220.866696 
L 274.008519 220.527734 
L 274.270564 212.869577 
L 274.786199 173.207413 
L 275.039791 167.484854 
L 275.301835 174.636807 
L 275.563879 175.633634 
L 275.81747 187.041756 
L 276.333106 182.3899 
L 276.857195 168.380203 
L 277.09388 174.755893 
L 277.355924 172.777231 
L 277.609515 184.978984 
L 277.87156 184.365369 
L 278.387195 193.530219 
L 278.64924 197.355324 
L 278.902831 195.890127 
L 279.164875 193.182698 
L 279.418467 191.784533 
L 279.680511 193.270291 
L 279.942555 196.984956 
L 280.17924 203.067779 
L 281.7346 168.918598 
L 281.988192 165.610396 
L 282.250236 154.666573 
L 282.503827 154.666573 
L 283.273054 134.235836 
L 283.535098 134.022403 
L 283.78869 142.452982 
L 284.050734 137.185997 
L 284.304325 129.154917 
L 284.828414 125.206884 
L 285.082005 116.434813 
L 285.34405 111.52663 
L 285.597641 114.659513 
L 286.121729 105.035712 
L 286.358415 106.564027 
L 286.87405 127.832123 
L 287.136095 134.025368 
L 287.389686 125.743435 
L 287.65173 124.029352 
L 288.167366 169.846883 
L 288.42941 179.888287 
L 288.683001 180.93158 
L 288.945046 176.369943 
L 289.20709 178.343681 
L 289.70582 190.990062 
L 290.221455 186.94985 
L 290.475046 165.901027 
L 290.737091 165.175206 
L 290.999135 170.981778 
L 291.252726 156.431279 
L 291.514771 156.32685 
L 291.768362 160.295167 
L 292.030406 162.279326 
L 292.529136 162.497201 
L 292.79118 178.079951 
L 293.044771 173.842236 
L 293.306816 171.723378 
L 293.560407 168.756977 
L 293.822451 170.558006 
L 294.084496 160.405522 
L 294.338087 158.10215 
L 294.853723 163.636909 
L 295.115767 163.443827 
L 295.377811 165.20335 
L 295.622949 165.934356 
L 295.884994 164.681203 
L 296.138585 182.329774 
L 296.400629 192.549044 
L 296.654221 188.49111 
L 296.916265 186.298092 
L 297.178309 181.807627 
L 297.431901 180.763333 
L 297.693945 178.152598 
L 297.947536 183.631809 
L 298.209581 183.424432 
L 298.471625 190.267891 
L 298.70831 190.37231 
L 299.223946 197.074628 
L 299.48599 195.746468 
L 299.739581 190.773639 
L 300.001626 192.633944 
L 300.26367 193.670394 
L 301.032897 210.188848 
L 301.294941 209.658354 
L 301.556985 212.775576 
L 302.055715 221.622477 
L 302.309306 221.688773 
L 302.824942 215.793035 
L 303.086986 216.702875 
L 303.349031 215.905414 
L 303.602622 211.22358 
L 303.864666 210.403882 
L 304.118257 210.458981 
L 304.642346 200.33736 
L 305.141076 196.69302 
L 305.394667 193.482836 
L 305.656711 191.728422 
L 305.910302 189.046866 
L 306.172347 193.602115 
L 306.434391 192.071718 
L 306.687982 192.995979 
L 306.950027 197.617281 
L 307.203618 196.356926 
L 307.465662 193.24805 
L 307.727707 193.920239 
L 307.972845 191.147458 
L 308.234889 193.482836 
L 308.48848 191.728422 
L 308.750525 187.567859 
L 309.004116 185.436697 
L 309.528205 188.740678 
L 309.781796 186.180093 
L 310.04384 186.923489 
L 310.297432 185.218597 
L 310.82152 178.319215 
L 311.058205 178.401351 
L 311.835885 170.927928 
L 312.089477 173.431926 
L 312.351521 173.028056 
L 312.867157 159.538775 
L 313.129201 155.176972 
L 313.382792 153.603652 
L 313.644837 148.06086 
L 313.906881 146.857236 
L 314.143566 152.766548 
L 314.40561 144.549028 
L 314.659202 145.034361 
L 314.921246 147.553103 
L 315.174837 159.536736 
L 315.436882 164.70912 
L 315.698926 184.670222 
L 316.214561 191.985328 
L 316.468153 189.931264 
L 316.730197 189.38726 
L 316.992241 185.375228 
L 317.228927 191.610164 
L 317.490971 195.348642 
L 317.744562 197.084363 
L 318.006607 194.196753 
L 318.260198 188.960572 
L 318.784286 197.086105 
L 319.037878 194.607041 
L 319.299922 196.171419 
L 320.077602 205.095387 
L 320.32274 203.470929 
L 320.838376 194.023247 
L 321.10042 190.778591 
L 321.616056 197.695817 
L 321.8781 198.769948 
L 322.131691 195.808017 
L 322.393736 200.443531 
L 322.647327 200.666886 
L 322.909371 199.24734 
L 323.171416 202.085363 
L 323.408101 201.225356 
L 323.923736 202.023934 
L 324.185781 207.358753 
L 324.439372 201.764221 
L 324.701416 198.891051 
L 324.963461 198.060602 
L 325.217052 194.793447 
L 325.479096 193.853868 
L 325.994732 187.800098 
L 326.256776 185.74706 
L 326.493461 185.333448 
L 327.009097 179.06294 
L 327.271141 177.698023 
L 327.524733 187.381385 
L 328.048821 178.491565 
L 328.302413 174.725954 
L 328.564457 175.440815 
L 328.818048 177.317162 
L 329.080092 170.732353 
L 329.342137 167.663333 
L 329.578822 170.245105 
L 329.840866 168.601758 
L 330.094458 169.024902 
L 330.356502 171.169939 
L 330.610093 169.024902 
L 330.872138 163.605862 
L 331.134182 161.291048 
L 331.387773 162.462676 
L 331.649817 167.049852 
L 332.165453 159.359243 
L 332.427497 160.790314 
L 332.672636 160.456775 
L 332.93468 161.345791 
L 333.188271 161.40117 
L 333.703907 155.485548 
L 333.965951 154.937978 
L 334.481587 159.975621 
L 335.259267 148.923354 
L 335.521311 150.14581 
L 335.757996 149.967648 
L 336.020041 157.002893 
L 336.273632 156.799715 
L 336.535676 162.162428 
L 336.789267 160.307637 
L 337.051312 160.256734 
L 337.313356 166.343921 
L 337.828992 159.658886 
L 338.082583 157.86534 
L 338.843357 148.40846 
L 339.358992 136.668886 
L 339.621037 135.418838 
L 339.874628 129.059902 
L 340.398717 121.247918 
L 340.652308 117.265572 
L 341.692032 91.365104 
L 341.928717 92.953057 
L 342.190762 86.053675 
L 342.444353 86.929787 
L 342.959989 59.930705 
L 343.222033 61.349075 
L 343.484077 51.82872 
L 343.737669 63.948743 
L 343.999713 48.513377 
L 344.253304 45.310587 
L 344.515348 51.966014 
L 344.777393 50.438539 
L 345.022531 33.745419 
L 345.284575 31.664913 
L 345.538167 40.808577 
L 345.800211 44.112835 
L 346.053802 32.535305 
L 346.315847 33.134948 
L 346.577891 42.886776 
L 347.093526 49.537329 
L 347.347118 46.816715 
L 347.609162 52.166831 
L 347.871206 63.380522 
L 348.107892 61.26077 
L 348.369936 56.745728 
L 348.623527 48.555692 
L 349.139163 42.207638 
L 349.916843 79.765327 
L 350.178887 85.097163 
L 350.432478 85.200121 
L 350.694523 82.613557 
L 350.956567 81.897887 
L 351.193252 79.047631 
L 351.455297 78.623776 
L 351.970932 66.431912 
L 352.224523 61.011601 
L 353.002203 35.066953 
L 353.264248 28.301818 
L 353.779883 28.301818 
L 354.041928 31.442911 
L 354.278613 28.301818 
L 354.794248 28.301818 
L 355.056293 31.48483 
L 355.309884 28.301818 
L 355.571928 29.807256 
L 355.833973 41.074616 
L 356.087564 42.150762 
L 356.349608 41.139305 
L 356.6032 33.091629 
L 356.865244 36.750223 
L 357.127288 47.515879 
L 357.372426 50.858084 
L 357.634471 48.566542 
L 357.888062 50.801734 
L 358.150106 42.708786 
L 358.403698 48.911238 
L 358.665742 45.984729 
L 359.181378 59.702648 
L 359.697013 46.383119 
L 359.959057 33.714381 
L 360.221102 28.301818 
L 360.973423 28.301818 
L 361.489058 34.253456 
L 361.751103 28.301818 
L 362.013147 31.244681 
L 362.266738 28.366851 
L 362.782374 28.301818 
L 363.044418 38.146439 
L 363.306462 34.766412 
L 363.543148 34.509171 
L 363.805192 43.568954 
L 364.320827 89.059762 
L 364.836463 79.18194 
L 365.098507 81.77676 
L 365.352099 88.435415 
L 365.867734 64.893613 
L 366.129779 56.088179 
L 366.391823 52.958975 
L 366.628508 54.652062 
L 366.890552 43.445622 
L 367.144144 38.440805 
L 367.406188 39.380541 
L 367.659779 43.953239 
L 368.183868 30.3337 
L 368.437459 30.539472 
L 368.699504 32.011927 
L 368.953095 28.301818 
L 370.237957 28.301818 
L 370.500002 30.722945 
L 370.753593 28.301818 
L 371.015637 31.338818 
L 371.277682 28.301818 
L 371.793317 28.301818 
L 372.046909 32.88376 
L 372.308953 28.301818 
L 372.570997 28.301818 
L 372.807682 28.903759 
L 373.069727 28.301818 
L 373.323318 28.301818 
L 373.585362 42.458511 
L 373.838954 42.84123 
L 374.100998 38.189713 
L 374.363042 29.681559 
L 374.616634 28.301818 
L 374.878678 28.301818 
L 375.132269 30.335432 
L 375.394313 28.301818 
L 375.656358 31.729598 
L 375.893043 43.241416 
L 376.155087 37.196314 
L 376.408679 50.647049 
L 376.670723 53.397522 
L 376.924314 54.74435 
L 377.186358 70.506542 
L 377.448403 78.334925 
L 377.701994 81.501769 
L 377.964038 70.926464 
L 378.21763 69.99496 
L 378.978404 48.573035 
L 379.494039 41.437956 
L 379.756083 45.332741 
L 380.533763 35.792455 
L 380.787355 36.956338 
L 381.049399 45.713616 
L 381.30299 39.423039 
L 381.565035 41.596474 
L 381.827079 53.637652 
L 382.072217 58.697265 
L 382.334261 42.136584 
L 382.849897 31.757441 
L 383.103488 33.770022 
L 383.365533 40.150134 
L 383.881168 28.301818 
L 384.396804 28.301818 
L 384.658848 40.1901 
L 384.920893 42.832863 
L 385.157578 50.283614 
L 385.419622 46.761951 
L 385.673213 39.444361 
L 386.188849 65.894472 
L 386.450893 68.384072 
L 386.712938 68.204736 
L 386.966529 67.021603 
L 387.228573 66.603486 
L 387.482164 79.731252 
L 387.744209 82.161031 
L 388.006253 90.578689 
L 388.242938 88.198376 
L 388.504983 95.97625 
L 388.758574 119.077271 
L 389.020618 121.040888 
L 389.27421 121.627882 
L 389.536254 116.654109 
L 389.798298 107.071291 
L 390.051889 104.008401 
L 390.313934 105.162364 
L 390.829569 85.70186 
L 391.590343 66.340862 
L 392.621614 82.674198 
L 392.883659 78.006299 
L 393.13725 83.080203 
L 393.399294 92.802773 
L 393.91493 71.207622 
L 394.176974 68.224474 
L 394.422113 63.442604 
L 394.684157 61.658237 
L 394.937748 64.545361 
L 395.199792 64.458446 
L 395.453384 67.231923 
L 395.715428 59.791613 
L 395.977472 63.696049 
L 396.231064 64.362472 
L 396.493108 53.463947 
L 396.746699 49.048036 
L 397.008744 47.757485 
L 397.507473 63.936921 
L 398.023109 77.509106 
L 398.285153 83.758055 
L 398.538744 82.239643 
L 398.800789 89.884965 
L 399.062833 86.822676 
L 399.316424 80.508584 
L 399.83206 111.93108 
L 400.094104 110.96726 
L 400.356149 118.247881 
L 400.592834 113.079198 
L 401.108469 130.134373 
L 401.370514 131.246457 
L 401.624105 151.259906 
L 401.886149 158.742626 
L 402.148194 174.11575 
L 402.401785 172.999583 
L 402.663829 169.992444 
L 402.91742 178.872791 
L 403.678194 152.645279 
L 403.940239 151.608474 
L 404.19383 143.488174 
L 404.455874 140.819086 
L 404.709466 142.355299 
L 404.97151 153.641641 
L 405.233554 156.085792 
L 405.487145 150.569408 
L 405.74919 149.206687 
L 406.002781 151.900682 
L 406.264825 139.21386 
L 406.52687 133.854708 
L 407.034052 132.661581 
L 407.287644 134.887808 
L 407.549688 134.790548 
L 407.803279 131.914825 
L 408.065323 134.138251 
L 408.327368 131.321557 
L 408.580959 137.640478 
L 408.843003 138.97216 
L 409.096595 134.198428 
L 409.358639 136.368335 
L 409.620683 142.133964 
L 409.857369 143.739702 
L 410.119413 147.259767 
L 410.373004 148.40797 
L 410.635048 148.589723 
L 410.88864 147.983688 
L 411.66632 158.640943 
L 411.928364 158.522041 
L 412.181955 159.607671 
L 412.444 165.496557 
L 412.706044 168.08647 
L 412.942729 169.292657 
L 413.458365 159.656738 
L 413.720409 160.748283 
L 413.974 162.384119 
L 414.236045 154.012897 
L 414.498089 155.05653 
L 414.75168 160.624659 
L 415.013725 168.918237 
L 415.267316 167.643929 
L 415.52936 164.096142 
L 415.791404 167.474864 
L 416.290134 165.304728 
L 416.543725 169.832372 
L 416.80577 168.79073 
L 417.059361 168.941877 
L 417.321405 164.501582 
L 417.58345 164.459302 
L 417.837041 170.290644 
L 418.099085 172.349998 
L 418.352676 168.893284 
L 418.614721 167.132149 
L 418.876765 163.967359 
L 419.121903 177.565806 
L 419.383948 180.696876 
L 419.637539 176.727312 
L 420.153175 165.090137 
L 421.192899 152.876184 
L 421.44649 156.421133 
L 421.708534 158.025296 
L 421.970579 164.019611 
L 422.207264 160.110628 
L 422.469308 159.816774 
L 422.7229 163.504551 
L 422.984944 164.062458 
L 423.238535 168.54829 
L 423.500579 169.013097 
L 423.762624 180.898932 
L 424.016215 179.722554 
L 424.278259 177.167556 
L 424.531851 176.692452 
L 424.793895 183.139445 
L 425.292624 189.436266 
L 425.554669 184.761967 
L 425.80826 185.685053 
L 426.070304 193.100577 
L 426.323896 193.883235 
L 426.58594 193.815017 
L 427.101576 173.667947 
L 427.36362 168.566362 
L 427.617211 166.882728 
L 427.879256 162.722673 
L 428.1413 160.603989 
L 428.893621 146.959937 
L 429.155665 145.361571 
L 429.409256 145.422421 
L 429.671301 149.91151 
L 429.933345 146.418257 
L 430.186936 146.41661 
L 430.448981 148.884085 
L 430.702572 149.722489 
L 430.964616 148.834494 
L 431.22666 157.373076 
L 431.471799 157.55116 
L 431.733843 158.036109 
L 431.987434 159.279875 
L 432.50307 164.836246 
L 432.765114 154.104303 
L 433.027159 153.337298 
L 433.28075 154.823209 
L 433.542794 153.567206 
L 433.796385 155.07441 
L 434.320474 142.342408 
L 434.557159 144.151117 
L 434.819204 143.856699 
L 435.58843 135.367121 
L 436.112519 142.932814 
L 436.36611 141.780958 
L 436.881746 125.588863 
L 437.14379 125.322566 
L 437.904564 99.585899 
L 438.158155 99.713386 
L 438.4202 95.295998 
L 438.673791 99.402612 
L 438.935835 95.897232 
L 439.19788 102.151388 
L 439.451471 103.043689 
L 439.713515 97.065947 
L 439.967107 94.450336 
L 440.72788 62.752384 
L 440.989925 66.48075 
L 441.243516 67.437146 
L 442.021196 38.937882 
L 442.28324 48.46624 
L 442.798876 105.623727 
L 443.052467 108.679929 
L 443.576556 96.634673 
L 443.821694 91.724698 
L 444.083738 95.089226 
L 444.33733 100.639907 
L 444.599374 90.544867 
L 444.852965 92.588833 
L 445.11501 97.43118 
L 445.377054 95.57117 
L 445.630645 89.33229 
L 445.89269 94.192186 
L 446.146281 90.49743 
L 446.670369 79.638471 
L 446.907055 81.795848 
L 447.42269 69.253813 
L 448.20037 47.549513 
L 448.462415 47.840606 
L 448.716006 48.940671 
L 448.97805 54.564157 
L 449.231641 49.068601 
L 449.75573 65.189161 
L 449.992415 60.939633 
L 450.25446 61.490938 
L 450.770095 48.196387 
L 451.023686 49.377764 
L 451.285731 71.215039 
L 451.801366 89.975584 
L 452.063411 85.046523 
L 452.317002 76.176662 
L 452.579046 79.59977 
L 452.841091 55.8652 
L 453.33982 45.205689 
L 453.593411 47.034995 
L 453.855456 47.563385 
L 454.109047 46.667628 
L 454.371091 41.46944 
L 454.633136 43.982451 
L 454.886727 44.550002 
L 455.148771 45.884915 
L 455.402363 44.407969 
L 455.664407 28.301818 
L 455.926451 31.485749 
L 456.171589 36.076282 
L 456.433634 36.4129 
L 456.687225 32.12946 
L 456.949269 37.154549 
L 457.202861 33.463828 
L 457.464905 32.405584 
L 457.726949 32.801036 
L 457.980541 37.420338 
L 458.242585 31.387147 
L 458.496176 28.301818 
L 458.758221 29.847999 
L 459.020265 28.301818 
L 459.25695 28.301818 
L 459.518994 33.185236 
L 460.03463 30.994396 
L 460.288221 31.444342 
L 460.550266 28.301818 
L 461.065901 28.301818 
L 461.327946 29.058745 
L 461.581537 28.301818 
L 461.843581 28.301818 
L 462.105625 29.989205 
L 462.342311 35.197724 
L 462.604355 44.743965 
L 463.119991 41.551141 
L 463.373582 44.118157 
L 463.635626 38.073939 
L 463.89767 37.267432 
L 464.413306 41.029226 
L 464.666897 44.207898 
L 464.928942 39.727874 
L 465.190986 31.702045 
L 465.427671 28.301818 
L 467.752258 28.301818 
L 468.014302 29.907861 
L 468.276347 28.301818 
L 468.521485 30.661613 
L 468.783529 31.627606 
L 469.03712 28.301818 
L 469.299165 28.301818 
L 469.552756 38.455331 
L 469.8148 31.604866 
L 470.076845 28.301818 
L 471.37016 28.301818 
L 471.606845 31.022003 
L 471.86889 40.666677 
L 472.122481 28.301818 
L 473.415797 28.301818 
L 473.677841 31.544041 
L 473.931432 28.301818 
L 474.193476 28.521268 
L 474.455521 28.301818 
L 474.95425 28.301818 
L 475.207842 29.686592 
L 475.469886 30.016564 
L 475.723477 28.301818 
L 476.247566 59.962537 
L 476.501157 57.838104 
L 476.763201 32.357328 
L 477.016793 28.301818 
L 477.278837 28.301818 
L 477.540881 29.086738 
L 477.777567 28.301818 
L 478.039611 28.301818 
L 478.293202 28.834905 
L 478.555247 30.721519 
L 478.808838 28.301818 
L 479.070882 39.157845 
L 479.586518 46.033296 
L 479.848562 28.917427 
L 480.102153 28.301818 
L 480.364198 29.655738 
L 480.626242 37.944064 
L 480.87138 30.319901 
L 481.133425 28.301818 
L 481.387016 36.362757 
L 481.64906 29.881644 
L 481.902651 28.509334 
L 482.164696 28.301818 
L 482.42674 32.756476 
L 482.680331 46.982527 
L 482.942376 49.262275 
L 483.195967 57.453275 
L 483.458011 58.105922 
L 483.720056 64.270394 
L 483.956741 85.727707 
L 484.218785 85.853136 
L 484.472376 72.840402 
L 485.250056 88.518562 
L 485.512101 112.53624 
L 485.765692 106.395107 
L 486.027736 96.871306 
L 486.281328 93.439452 
L 486.543372 94.709845 
L 486.805416 102.332637 
L 487.042101 94.256376 
L 487.819781 119.3769 
L 488.073373 138.436607 
L 488.335417 137.423468 
L 488.597461 145.286902 
L 488.851053 147.767936 
L 489.113097 138.382397 
L 489.628732 141.108468 
L 489.890777 152.151574 
L 490.127462 151.387926 
L 490.905142 127.323075 
L 491.158733 126.74342 
L 491.420778 127.874891 
L 491.936413 120.048281 
L 492.198457 117.717179 
L 492.714093 104.651985 
L 492.976137 103.871179 
L 493.221276 108.263188 
L 493.48332 107.316945 
L 493.736911 113.37197 
L 493.998956 109.076622 
L 494.514591 115.998032 
L 494.776635 111.716852 
L 495.030227 112.738045 
L 495.545862 98.911391 
L 495.807907 102.190223 
L 496.069951 100.36047 
L 496.306636 102.60686 
L 496.568681 108.695469 
L 496.822272 106.313818 
L 497.337907 100.345749 
L 497.599952 101.007698 
L 497.861996 103.067904 
L 498.115587 108.694707 
L 498.377632 100.132591 
L 498.631223 95.487401 
L 498.893267 94.394913 
L 499.155312 95.116456 
L 499.391997 93.572938 
L 499.654041 93.966584 
L 499.907632 96.796295 
L 500.169677 102.769613 
L 500.423268 102.260924 
L 500.685312 98.573788 
L 500.947357 92.977405 
L 501.200948 84.928943 
L 501.716584 76.841444 
L 501.978628 76.322108 
L 502.240672 74.35337 
L 502.477357 81.996187 
L 502.992993 69.211997 
L 503.255037 69.194061 
L 503.508629 68.174016 
L 503.770673 77.542161 
L 504.286309 66.068106 
L 504.548353 78.573023 
L 504.801944 76.110101 
L 505.063988 91.826543 
L 505.326033 95.881043 
L 505.571171 103.039326 
L 505.833215 96.515937 
L 506.086807 93.503359 
L 506.602442 116.930788 
L 506.864487 112.835489 
L 507.126531 121.660518 
L 507.380122 155.170693 
L 507.642166 164.905464 
L 507.895758 164.370814 
L 508.157802 166.67331 
L 508.656532 183.290284 
L 509.172167 162.974348 
L 509.687803 159.101959 
L 509.949847 148.864231 
L 510.465483 140.846965 
L 511.243163 133.263807 
L 511.505207 138.190102 
L 512.003936 123.823488 
L 512.257528 134.145438 
L 512.519572 139.877208 
L 512.773163 140.41194 
L 513.035208 139.567789 
L 513.297252 134.754801 
L 513.550843 127.98725 
L 513.812888 124.215945 
L 514.590568 109.130506 
L 514.827253 113.194211 
L 515.089297 110.646756 
L 515.342888 110.573722 
L 515.604933 117.333358 
L 515.858524 112.326771 
L 516.120568 131.822218 
L 516.382613 133.616428 
L 516.636204 128.75651 
L 517.151839 123.289775 
L 517.675928 110.017227 
L 517.921066 106.465448 
L 518.183111 107.402518 
L 518.436702 113.23123 
L 518.698746 115.352931 
L 519.476426 100.883772 
L 519.730018 101.55402 
L 519.992062 106.432111 
L 520.245653 102.205835 
L 520.507697 95.003132 
L 520.769742 92.380847 
L 521.006427 87.811553 
L 521.268471 84.968847 
L 521.522063 76.20536 
L 521.784107 79.500446 
L 522.037698 73.01009 
L 522.299742 73.088676 
L 522.561787 71.099382 
L 522.815378 66.197532 
L 523.077422 57.348995 
L 523.331014 54.128292 
L 523.593058 53.095063 
L 523.855102 54.675501 
L 524.091788 50.146651 
L 524.353832 50.847997 
L 524.607423 48.390657 
L 524.869467 41.444895 
L 525.123059 37.987546 
L 525.385103 39.057921 
L 525.647147 35.150883 
L 525.900739 41.754105 
L 526.162783 28.301818 
L 526.416374 28.301818 
L 526.678419 30.426471 
L 526.940463 28.301818 
L 527.177148 30.145907 
L 527.439192 28.804761 
L 527.692784 28.301818 
L 527.954828 30.803988 
L 528.208419 31.464282 
L 528.470464 37.876194 
L 528.732508 49.427745 
L 529.248144 31.709601 
L 529.501735 34.156361 
L 529.763779 51.615391 
L 530.025824 53.594956 
L 530.270962 39.920552 
L 530.533006 34.442744 
L 530.786597 36.72245 
L 531.048642 35.294392 
L 531.302233 28.301818 
L 531.564277 28.301818 
L 532.079913 32.655443 
L 532.341957 29.57885 
L 532.595549 28.301818 
L 533.356322 28.301818 
L 533.618367 29.920756 
L 533.871958 28.301818 
L 534.387594 28.301818 
L 534.649638 28.863708 
L 534.911682 28.301818 
L 535.680909 28.301818 
L 535.680909 28.301818 
" style="fill:none;stroke:#ff7f0e;stroke-linecap:square;stroke-opacity:0.7;stroke-width:1.5;"/>
   </g>
   <g id="legend_1">
    <g id="patch_3">
     <path d="M 69.22 245.2 
L 174.29 245.2 
Q 177.09 245.2 177.09 242.4 
L 177.09 203.69875 
Q 177.09 200.89875 174.29 200.89875 
L 69.22 200.89875 
Q 66.42 200.89875 66.42 203.69875 
L 66.42 242.4 
Q 66.42 245.2 69.22 245.2 
z
" style="fill:#ffffff;opacity:0.8;stroke:#cccccc;stroke-linejoin:miter;"/>
    </g>
    <g id="line2d_16">
     <path d="M 72.02 211.744375 
L 100.02 211.744375 
" style="fill:none;stroke:#1f77b4;stroke-linecap:square;stroke-width:1.5;"/>
    </g>
    <g id="line2d_17"/>
    <g id="text_15">
     <!-- дивиденды -->
     <defs>
      <path d="M 22.5625 52.828125 
Q 25.59375 52.828125 28.484375 52.234375 
Q 31.390625 51.65625 33.640625 50.140625 
Q 35.890625 48.640625 37.234375 46.09375 
Q 38.578125 43.5625 38.578125 39.59375 
Q 38.578125 37.015625 37.890625 35.03125 
Q 37.203125 33.0625 35.984375 31.640625 
Q 34.765625 30.21875 33.125 29.3125 
Q 31.5 28.421875 29.6875 27.984375 
L 29.6875 27.640625 
Q 31.84375 27.296875 33.734375 26.4375 
Q 35.640625 25.59375 37 24.09375 
Q 38.375 22.609375 39.171875 20.40625 
Q 39.984375 18.21875 39.984375 15.234375 
Q 39.984375 11.421875 38.765625 8.5625 
Q 37.546875 5.71875 35.375 3.8125 
Q 33.203125 1.90625 30.171875 0.953125 
Q 27.15625 0 23.484375 0 
L 5.671875 0 
L 5.671875 52.828125 
z
M 12.890625 6.5 
L 22.3125 6.5 
Q 25.09375 6.5 27 6.984375 
Q 28.90625 7.46875 30.078125 8.546875 
Q 31.25 9.625 31.78125 11.25 
Q 32.328125 12.890625 32.328125 15.1875 
Q 32.328125 17.625 31.765625 19.328125 
Q 31.203125 21.046875 29.953125 22.109375 
Q 28.71875 23.1875 26.703125 23.671875 
Q 24.703125 24.171875 21.875 24.171875 
L 12.890625 24.171875 
z
M 12.890625 46.140625 
L 12.890625 30.515625 
L 21.53125 30.515625 
Q 24.265625 30.515625 26.0625 30.984375 
Q 27.875 31.453125 29 32.390625 
Q 30.125 33.34375 30.5625 34.828125 
Q 31 36.328125 31 38.421875 
Q 31 42.4375 28.96875 44.28125 
Q 26.953125 46.140625 22.125 46.140625 
z
" id="LiberationSansNarrow-1074"/>
      <path d="M 12.890625 52.828125 
L 12.890625 30.46875 
L 32.375 30.46875 
L 32.375 52.828125 
L 39.59375 52.828125 
L 39.59375 0 
L 32.375 0 
L 32.375 24.078125 
L 12.890625 24.078125 
L 12.890625 0 
L 5.671875 0 
L 5.671875 52.828125 
z
" id="LiberationSansNarrow-1085"/>
      <path d="M 22.796875 30.46875 
Q 31.296875 30.46875 35.640625 26.875 
Q 39.984375 23.296875 39.984375 15.53125 
Q 39.984375 11.921875 38.90625 9.03125 
Q 37.84375 6.15625 35.671875 4.15625 
Q 33.5 2.15625 30.296875 1.078125 
Q 27.09375 0 22.859375 0 
L 5.859375 0 
L 5.859375 52.828125 
L 13.328125 52.828125 
L 13.328125 30.46875 
z
M 13.328125 6.203125 
L 21.734375 6.203125 
Q 24.609375 6.203125 26.578125 6.8125 
Q 28.5625 7.421875 29.78125 8.609375 
Q 31 9.8125 31.53125 11.546875 
Q 32.078125 13.28125 32.078125 15.53125 
Q 32.078125 20.125 29.65625 22.234375 
Q 27.25 24.359375 21.734375 24.359375 
L 13.328125 24.359375 
z
M 47.65625 0 
L 47.65625 52.828125 
L 55.125 52.828125 
L 55.125 0 
z
" id="LiberationSansNarrow-1099"/>
     </defs>
     <g transform="translate(111.22 216.644375)scale(0.14 -0.14)">
      <use xlink:href="#LiberationSansNarrow-1076"/>
      <use x="47.802734" xlink:href="#LiberationSansNarrow-1080"/>
      <use x="93.652344" xlink:href="#LiberationSansNarrow-1074"/>
      <use x="137.207031" xlink:href="#LiberationSansNarrow-1080"/>
      <use x="183.056641" xlink:href="#LiberationSansNarrow-1076"/>
      <use x="230.859375" xlink:href="#LiberationSansNarrow-1077"/>
      <use x="276.464844" xlink:href="#LiberationSansNarrow-1085"/>
      <use x="321.728516" xlink:href="#LiberationSansNarrow-1076"/>
      <use x="369.53125" xlink:href="#LiberationSansNarrow-1099"/>
     </g>
    </g>
    <g id="line2d_18">
     <path d="M 72.02 231.795 
L 100.02 231.795 
" style="fill:none;stroke:#ff7f0e;stroke-linecap:square;stroke-opacity:0.7;stroke-width:1.5;"/>
    </g>
    <g id="line2d_19"/>
    <g id="text_16">
     <!-- цена -->
     <defs>
      <path d="M 12.890625 52.828125 
L 12.890625 6.390625 
L 31.984375 6.390625 
L 31.984375 52.828125 
L 39.203125 52.828125 
L 39.203125 6.390625 
L 45.0625 6.390625 
L 45.0625 -19.921875 
L 38.578125 -19.921875 
L 38.578125 0 
L 5.671875 0 
L 5.671875 52.828125 
z
" id="LiberationSansNarrow-1094"/>
     </defs>
     <g transform="translate(111.22 236.695)scale(0.14 -0.14)">
      <use xlink:href="#LiberationSansNarrow-1094"/>
      <use x="46.957031" xlink:href="#LiberationSansNarrow-1077"/>
      <use x="92.5625" xlink:href="#LiberationSansNarrow-1085"/>
      <use x="137.826172" xlink:href="#LiberationSansNarrow-1072"/>
     </g>
    </g>
   </g>
  </g>
 </g>
 <defs>
  <clipPath id="pfb0563d17f">
   <rect height="234.56" width="498.94" x="59.42" y="17.64"/>
  </clipPath>
 </defs>
</svg>
