<?xml version="1.0" encoding="utf-8" standalone="no"?>
<!DOCTYPE svg PUBLIC "-//W3C//DTD SVG 1.1//EN"
  "http://www.w3.org/Graphics/SVG/1.1/DTD/svg11.dtd">
<!-- Created with matplotlib (https://matplotlib.org/) -->
<svg height="288pt" version="1.1" viewBox="0 0 576 288" width="576pt" xmlns="http://www.w3.org/2000/svg" xmlns:xlink="http://www.w3.org/1999/xlink">
 <defs>
  <style type="text/css">
*{stroke-linecap:butt;stroke-linejoin:round;}
  </style>
 </defs>
 <g id="figure_1">
  <g id="patch_1">
   <path d="M 0 288 
L 576 288 
L 576 0 
L 0 0 
z
" style="fill:#ffffff;"/>
  </g>
  <g id="axes_1">
   <g id="patch_2">
    <path d="M 28.51 252.2 
L 558.36 252.2 
L 558.36 17.64 
L 28.51 17.64 
z
" style="fill:#ffffff;"/>
   </g>
   <g id="PolyCollection_1">
    <defs>
     <path d="M 52.594091 -55.364712 
L 52.594091 -76.488034 
L 57.946111 -73.895162 
L 63.298131 -63.892139 
L 68.650152 -46.461818 
L 74.002172 -47.003618 
L 79.354192 -64.579712 
L 84.706212 -63.371517 
L 90.058232 -75.597922 
L 95.410253 -84.67689 
L 100.762273 -68.860408 
L 106.114293 -77.495448 
L 111.466313 -77.604294 
L 116.818333 -73.950067 
L 122.170354 -68.73218 
L 127.522374 -71.080592 
L 132.874394 -76.265859 
L 138.226414 -81.280803 
L 143.578434 -91.080126 
L 148.930455 -87.267424 
L 154.282475 -83.259112 
L 159.634495 -81.808985 
L 164.986515 -87.18513 
L 170.338535 -97.197249 
L 175.690556 -101.856498 
L 181.042576 -106.157276 
L 186.394596 -105.606804 
L 191.746616 -119.82296 
L 197.098636 -129.835579 
L 202.450657 -132.187206 
L 207.802677 -127.351534 
L 213.154697 -138.660497 
L 218.506717 -142.115827 
L 223.858737 -141.876169 
L 229.210758 -149.455892 
L 234.562778 -146.035604 
L 239.914798 -152.625492 
L 245.266818 -157.316387 
L 250.618838 -161.023462 
L 255.970859 -156.733457 
L 261.322879 -162.93979 
L 266.674899 -165.251537 
L 272.026919 -160.789674 
L 277.378939 -159.926341 
L 282.73096 -162.740863 
L 288.08298 -167.572561 
L 293.435 -160.994824 
L 298.78702 -147.527842 
L 304.13904 -154.553415 
L 309.491061 -159.695407 
L 314.843081 -155.436172 
L 320.195101 -155.329763 
L 325.547121 -158.135833 
L 330.899141 -163.162457 
L 336.251162 -157.633151 
L 341.603182 -161.271406 
L 346.955202 -166.981704 
L 352.307222 -167.624043 
L 357.659242 -175.821314 
L 363.011263 -180.370082 
L 368.363283 -181.822402 
L 373.715303 -185.741925 
L 379.067323 -193.625633 
L 384.419343 -190.796229 
L 389.771364 -198.028638 
L 395.123384 -199.639444 
L 400.475404 -201.815636 
L 405.827424 -201.40906 
L 411.179444 -211.385976 
L 416.531465 -217.522781 
L 421.883485 -226.372446 
L 427.235505 -234.459226 
L 432.587525 -240.44387 
L 437.939545 -236.237015 
L 443.291566 -230.609588 
L 448.643586 -221.641968 
L 453.995606 -229.386056 
L 459.347626 -232.25424 
L 464.699646 -232.87473 
L 470.051667 -236.539273 
L 475.403687 -237.675063 
L 480.755707 -220.480585 
L 486.107727 -228.459053 
L 491.459747 -232.341123 
L 496.811768 -232.499462 
L 502.163788 -236.601315 
L 507.515808 -245.69077 
L 512.867828 -249.534635 
L 518.219848 -250.039004 
L 523.571869 -252.762683 
L 528.923889 -258.783622 
L 534.275909 -256.434907 
L 534.275909 -259.698182 
L 534.275909 -259.698182 
L 528.923889 -257.42781 
L 523.571869 -255.157438 
L 518.219848 -252.887066 
L 512.867828 -250.616694 
L 507.515808 -248.346322 
L 502.163788 -246.07595 
L 496.811768 -243.805579 
L 491.459747 -241.535207 
L 486.107727 -239.264835 
L 480.755707 -236.994463 
L 475.403687 -234.724091 
L 470.051667 -232.453719 
L 464.699646 -230.183347 
L 459.347626 -227.912975 
L 453.995606 -225.642604 
L 448.643586 -223.372232 
L 443.291566 -221.10186 
L 437.939545 -218.831488 
L 432.587525 -216.561116 
L 427.235505 -214.290744 
L 421.883485 -212.020372 
L 416.531465 -209.75 
L 411.179444 -207.479628 
L 405.827424 -205.209257 
L 400.475404 -202.938885 
L 395.123384 -200.668513 
L 389.771364 -198.398141 
L 384.419343 -196.127769 
L 379.067323 -193.857397 
L 373.715303 -191.587025 
L 368.363283 -189.316653 
L 363.011263 -187.046281 
L 357.659242 -184.77591 
L 352.307222 -182.505538 
L 346.955202 -180.235166 
L 341.603182 -177.964794 
L 336.251162 -175.694422 
L 330.899141 -173.42405 
L 325.547121 -171.153678 
L 320.195101 -168.883306 
L 314.843081 -166.612934 
L 309.491061 -164.342563 
L 304.13904 -162.072191 
L 298.78702 -159.801819 
L 293.435 -157.531447 
L 288.08298 -155.261075 
L 282.73096 -152.990703 
L 277.378939 -150.720331 
L 272.026919 -148.449959 
L 266.674899 -146.179587 
L 261.322879 -143.909216 
L 255.970859 -141.638844 
L 250.618838 -139.368472 
L 245.266818 -137.0981 
L 239.914798 -134.827728 
L 234.562778 -132.557356 
L 229.210758 -130.286984 
L 223.858737 -128.016612 
L 218.506717 -125.74624 
L 213.154697 -123.475869 
L 207.802677 -121.205497 
L 202.450657 -118.935125 
L 197.098636 -116.664753 
L 191.746616 -114.394381 
L 186.394596 -112.124009 
L 181.042576 -109.853637 
L 175.690556 -107.583265 
L 170.338535 -105.312893 
L 164.986515 -103.042522 
L 159.634495 -100.77215 
L 154.282475 -98.501778 
L 148.930455 -96.231406 
L 143.578434 -93.961034 
L 138.226414 -91.690662 
L 132.874394 -89.42029 
L 127.522374 -87.149918 
L 122.170354 -84.879547 
L 116.818333 -82.609175 
L 111.466313 -80.338803 
L 106.114293 -78.068431 
L 100.762273 -75.798059 
L 95.410253 -73.527687 
L 90.058232 -71.257315 
L 84.706212 -68.986943 
L 79.354192 -66.716571 
L 74.002172 -64.4462 
L 68.650152 -62.175828 
L 63.298131 -59.905456 
L 57.946111 -57.635084 
L 52.594091 -55.364712 
z
" id="m7b7887d2cd" style="stroke:#7f7f7f;stroke-opacity:0.3;"/>
    </defs>
    <g clip-path="url(#p2683960070)">
     <use style="fill:#7f7f7f;fill-opacity:0.3;stroke:#7f7f7f;stroke-opacity:0.3;" x="0" xlink:href="#m7b7887d2cd" y="288"/>
    </g>
   </g>
   <g id="matplotlib.axis_1">
    <g id="xtick_1">
     <g id="line2d_1">
      <path clip-path="url(#p2683960070)" d="M 116.818333 252.2 
L 116.818333 17.64 
" style="fill:none;stroke:#b0b0b0;stroke-dasharray:1.48,0.64;stroke-dashoffset:0;stroke-width:0.4;"/>
     </g>
     <g id="text_1">
      <!-- 1940 -->
      <defs>
       <path d="M 6.25 0 
L 6.25 7.46875 
L 20.609375 7.46875 
L 20.609375 60.40625 
L 7.90625 49.3125 
L 7.90625 57.625 
L 21.234375 68.796875 
L 27.875 68.796875 
L 27.875 7.46875 
L 41.609375 7.46875 
L 41.609375 0 
z
" id="LiberationSansNarrow-49"/>
       <path d="M 41.703125 35.796875 
Q 41.703125 26.609375 40.28125 19.703125 
Q 38.875 12.796875 36.234375 8.203125 
Q 33.59375 3.609375 29.8125 1.3125 
Q 26.03125 -0.984375 21.296875 -0.984375 
Q 18.0625 -0.984375 15.453125 -0.171875 
Q 12.84375 0.640625 10.8125 2.34375 
Q 8.796875 4.046875 7.328125 6.78125 
Q 5.859375 9.515625 4.984375 13.375 
L 11.921875 14.703125 
Q 13.03125 10.25 15.40625 8.171875 
Q 17.78125 6.109375 21.4375 6.109375 
Q 24.359375 6.109375 26.78125 7.78125 
Q 29.203125 9.46875 30.875 12.84375 
Q 32.5625 16.21875 33.546875 21.296875 
Q 34.46875 26.375 34.578125 33.203125 
Q 33.734375 30.90625 32.265625 29.09375 
Q 30.8125 27.296875 28.953125 26.046875 
Q 27.09375 24.8125 24.9375 24.140625 
Q 22.796875 23.484375 20.5625 23.484375 
Q 16.703125 23.484375 13.625 25.171875 
Q 10.546875 26.859375 8.375 29.875 
Q 6.203125 32.90625 5.03125 37.171875 
Q 3.859375 41.453125 3.859375 46.6875 
Q 3.859375 52 5.09375 56.296875 
Q 6.34375 60.59375 8.765625 63.59375 
Q 11.1875 66.609375 14.671875 68.21875 
Q 18.171875 69.828125 22.609375 69.828125 
Q 32.03125 69.828125 36.859375 61.328125 
Q 41.703125 52.828125 41.703125 35.796875 
z
M 33.890625 44.28125 
Q 33.890625 48.09375 33.125 51.453125 
Q 32.375 54.828125 30.9375 57.3125 
Q 29.5 59.8125 27.34375 61.25 
Q 25.203125 62.703125 22.359375 62.703125 
Q 19.78125 62.703125 17.703125 61.578125 
Q 15.625 60.453125 14.1875 58.375 
Q 12.75 56.296875 11.96875 53.3125 
Q 11.1875 50.34375 11.1875 46.6875 
Q 11.1875 43.21875 11.859375 40.234375 
Q 12.546875 37.25 13.953125 35.078125 
Q 15.375 32.90625 17.453125 31.65625 
Q 19.53125 30.421875 22.3125 30.421875 
Q 24.3125 30.421875 26.359375 31.25 
Q 28.421875 32.078125 30.078125 33.78125 
Q 31.734375 35.5 32.8125 38.109375 
Q 33.890625 40.71875 33.890625 44.28125 
z
" id="LiberationSansNarrow-57"/>
       <path d="M 35.25 15.578125 
L 35.25 0 
L 28.46875 0 
L 28.46875 15.578125 
L 1.90625 15.578125 
L 1.90625 22.40625 
L 27.6875 68.796875 
L 35.25 68.796875 
L 35.25 22.515625 
L 43.21875 22.515625 
L 43.21875 15.578125 
z
M 28.46875 58.890625 
Q 28.375 58.640625 28.03125 57.90625 
L 27.34375 56.34375 
L 26.5625 54.59375 
Q 26.125 53.65625 25.78125 53.078125 
L 11.328125 27.09375 
Q 11.140625 26.703125 10.75 26.078125 
L 9.96875 24.8125 
L 9.1875 23.484375 
Q 8.796875 22.859375 8.546875 22.515625 
L 28.46875 22.515625 
z
" id="LiberationSansNarrow-52"/>
       <path d="M 42.390625 34.421875 
Q 42.390625 24.515625 40.84375 17.75 
Q 39.3125 10.984375 36.640625 6.8125 
Q 33.984375 2.640625 30.390625 0.828125 
Q 26.8125 -0.984375 22.703125 -0.984375 
Q 18.609375 -0.984375 15.03125 0.828125 
Q 11.46875 2.640625 8.828125 6.78125 
Q 6.203125 10.9375 4.703125 17.703125 
Q 3.21875 24.46875 3.21875 34.421875 
Q 3.21875 44.828125 4.703125 51.640625 
Q 6.203125 58.453125 8.828125 62.5 
Q 11.46875 66.546875 15.078125 68.1875 
Q 18.703125 69.828125 22.953125 69.828125 
Q 27 69.828125 30.53125 68.1875 
Q 34.078125 66.546875 36.71875 62.5 
Q 39.359375 58.453125 40.875 51.640625 
Q 42.390625 44.828125 42.390625 34.421875 
z
M 35.0625 34.421875 
Q 35.0625 42.625 34.28125 48.0625 
Q 33.5 53.515625 31.9375 56.765625 
Q 30.375 60.015625 28.09375 61.359375 
Q 25.828125 62.703125 22.953125 62.703125 
Q 19.921875 62.703125 17.578125 61.328125 
Q 15.234375 59.96875 13.671875 56.71875 
Q 12.109375 53.46875 11.296875 48.015625 
Q 10.5 42.578125 10.5 34.421875 
Q 10.5 26.515625 11.296875 21.09375 
Q 12.109375 15.671875 13.6875 12.375 
Q 15.28125 9.078125 17.578125 7.640625 
Q 19.875 6.203125 22.796875 6.203125 
Q 25.640625 6.203125 27.90625 7.640625 
Q 30.171875 9.078125 31.75 12.375 
Q 33.34375 15.671875 34.203125 21.09375 
Q 35.0625 26.515625 35.0625 34.421875 
z
" id="LiberationSansNarrow-48"/>
      </defs>
      <g transform="translate(104.047708 269.345625)scale(0.14 -0.14)">
       <use xlink:href="#LiberationSansNarrow-49"/>
       <use x="45.605469" xlink:href="#LiberationSansNarrow-57"/>
       <use x="91.210938" xlink:href="#LiberationSansNarrow-52"/>
       <use x="136.816406" xlink:href="#LiberationSansNarrow-48"/>
      </g>
     </g>
    </g>
    <g id="xtick_2">
     <g id="line2d_2">
      <path clip-path="url(#p2683960070)" d="M 223.858737 252.2 
L 223.858737 17.64 
" style="fill:none;stroke:#b0b0b0;stroke-dasharray:1.48,0.64;stroke-dashoffset:0;stroke-width:0.4;"/>
     </g>
     <g id="text_2">
      <!-- 1960 -->
      <defs>
       <path d="M 42 22.515625 
Q 42 17.328125 40.828125 13 
Q 39.65625 8.6875 37.359375 5.578125 
Q 35.0625 2.484375 31.640625 0.75 
Q 28.21875 -0.984375 23.78125 -0.984375 
Q 18.84375 -0.984375 15.15625 1.3125 
Q 11.46875 3.609375 9.03125 7.921875 
Q 6.59375 12.25 5.375 18.53125 
Q 4.15625 24.8125 4.15625 32.8125 
Q 4.15625 42 5.546875 48.921875 
Q 6.9375 55.859375 9.515625 60.5 
Q 12.109375 65.140625 15.859375 67.484375 
Q 19.625 69.828125 24.359375 69.828125 
Q 27.25 69.828125 29.765625 69.09375 
Q 32.28125 68.359375 34.328125 66.71875 
Q 36.375 65.09375 37.9375 62.40625 
Q 39.5 59.71875 40.4375 55.8125 
L 33.546875 54.296875 
Q 32.421875 58.734375 29.953125 60.71875 
Q 27.484375 62.703125 24.265625 62.703125 
Q 21.296875 62.703125 18.890625 60.984375 
Q 16.5 59.28125 14.8125 55.875 
Q 13.140625 52.484375 12.234375 47.359375 
Q 11.328125 42.234375 11.328125 35.40625 
Q 13.28125 39.84375 16.84375 42.15625 
Q 20.40625 44.484375 25.046875 44.484375 
Q 28.90625 44.484375 32 42.96875 
Q 35.109375 41.453125 37.328125 38.59375 
Q 39.546875 35.75 40.765625 31.671875 
Q 42 27.59375 42 22.515625 
z
M 34.671875 22.125 
Q 34.671875 25.6875 33.953125 28.5625 
Q 33.25 31.453125 31.8125 33.46875 
Q 30.375 35.5 28.25 36.59375 
Q 26.125 37.703125 23.296875 37.703125 
Q 21.34375 37.703125 19.328125 36.984375 
Q 17.328125 36.28125 15.71875 34.6875 
Q 14.109375 33.109375 13.078125 30.515625 
Q 12.0625 27.9375 12.0625 24.21875 
Q 12.0625 20.40625 12.859375 17.109375 
Q 13.671875 13.8125 15.15625 11.375 
Q 16.65625 8.9375 18.78125 7.515625 
Q 20.90625 6.109375 23.53125 6.109375 
Q 26.125 6.109375 28.203125 7.203125 
Q 30.28125 8.296875 31.71875 10.375 
Q 33.15625 12.453125 33.90625 15.421875 
Q 34.671875 18.40625 34.671875 22.125 
z
" id="LiberationSansNarrow-54"/>
      </defs>
      <g transform="translate(211.088112 269.345625)scale(0.14 -0.14)">
       <use xlink:href="#LiberationSansNarrow-49"/>
       <use x="45.605469" xlink:href="#LiberationSansNarrow-57"/>
       <use x="91.210938" xlink:href="#LiberationSansNarrow-54"/>
       <use x="136.816406" xlink:href="#LiberationSansNarrow-48"/>
      </g>
     </g>
    </g>
    <g id="xtick_3">
     <g id="line2d_3">
      <path clip-path="url(#p2683960070)" d="M 330.899141 252.2 
L 330.899141 17.64 
" style="fill:none;stroke:#b0b0b0;stroke-dasharray:1.48,0.64;stroke-dashoffset:0;stroke-width:0.4;"/>
     </g>
     <g id="text_3">
      <!-- 1980 -->
      <defs>
       <path d="M 42.046875 19.1875 
Q 42.046875 14.796875 40.890625 11.109375 
Q 39.75 7.421875 37.40625 4.734375 
Q 35.0625 2.046875 31.421875 0.53125 
Q 27.78125 -0.984375 22.796875 -0.984375 
Q 17.828125 -0.984375 14.203125 0.53125 
Q 10.59375 2.046875 8.21875 4.703125 
Q 5.859375 7.375 4.703125 11.0625 
Q 3.5625 14.75 3.5625 19.09375 
Q 3.5625 22.859375 4.515625 25.78125 
Q 5.46875 28.71875 7.03125 30.828125 
Q 8.59375 32.953125 10.609375 34.25 
Q 12.640625 35.546875 14.796875 35.984375 
L 14.796875 36.1875 
Q 12.453125 36.859375 10.59375 38.375 
Q 8.734375 39.890625 7.46875 42.015625 
Q 6.203125 44.140625 5.546875 46.71875 
Q 4.890625 49.3125 4.890625 52.203125 
Q 4.890625 55.8125 6.03125 59 
Q 7.171875 62.203125 9.421875 64.625 
Q 11.671875 67.046875 14.984375 68.4375 
Q 18.3125 69.828125 22.65625 69.828125 
Q 27.25 69.828125 30.640625 68.40625 
Q 34.03125 67 36.25 64.578125 
Q 38.484375 62.15625 39.546875 58.9375 
Q 40.625 55.71875 40.625 52.09375 
Q 40.625 49.265625 39.96875 46.671875 
Q 39.3125 44.09375 38.0625 41.96875 
Q 36.8125 39.84375 34.9375 38.34375 
Q 33.0625 36.859375 30.609375 36.28125 
L 30.609375 36.078125 
Q 33.0625 35.59375 35.15625 34.296875 
Q 37.25 33.015625 38.765625 30.890625 
Q 40.28125 28.765625 41.15625 25.828125 
Q 42.046875 22.90625 42.046875 19.1875 
z
M 33.15625 51.609375 
Q 33.15625 54.203125 32.609375 56.34375 
Q 32.078125 58.5 30.828125 60.03125 
Q 29.59375 61.578125 27.59375 62.421875 
Q 25.59375 63.28125 22.65625 63.28125 
Q 19.828125 63.28125 17.875 62.421875 
Q 15.921875 61.578125 14.640625 60.03125 
Q 13.375 58.5 12.8125 56.34375 
Q 12.25 54.203125 12.25 51.609375 
Q 12.25 49.5625 12.6875 47.40625 
Q 13.140625 45.265625 14.3125 43.5 
Q 15.484375 41.75 17.5 40.625 
Q 19.53125 39.5 22.75 39.5 
Q 26.171875 39.5 28.21875 40.625 
Q 30.28125 41.75 31.375 43.5 
Q 32.46875 45.265625 32.8125 47.40625 
Q 33.15625 49.5625 33.15625 51.609375 
z
M 34.578125 20.015625 
Q 34.578125 22.515625 34.015625 24.828125 
Q 33.453125 27.15625 32.078125 28.9375 
Q 30.71875 30.71875 28.421875 31.8125 
Q 26.125 32.90625 22.65625 32.90625 
Q 19.484375 32.90625 17.265625 31.8125 
Q 15.046875 30.71875 13.671875 28.90625 
Q 12.3125 27.09375 11.671875 24.71875 
Q 11.03125 22.359375 11.03125 19.828125 
Q 11.03125 16.65625 11.671875 14.03125 
Q 12.3125 11.421875 13.703125 9.546875 
Q 15.09375 7.671875 17.375 6.640625 
Q 19.671875 5.609375 22.90625 5.609375 
Q 26.171875 5.609375 28.421875 6.640625 
Q 30.671875 7.671875 32.03125 9.546875 
Q 33.40625 11.421875 33.984375 14.078125 
Q 34.578125 16.75 34.578125 20.015625 
z
" id="LiberationSansNarrow-56"/>
      </defs>
      <g transform="translate(318.128516 269.345625)scale(0.14 -0.14)">
       <use xlink:href="#LiberationSansNarrow-49"/>
       <use x="45.605469" xlink:href="#LiberationSansNarrow-57"/>
       <use x="91.210938" xlink:href="#LiberationSansNarrow-56"/>
       <use x="136.816406" xlink:href="#LiberationSansNarrow-48"/>
      </g>
     </g>
    </g>
    <g id="xtick_4">
     <g id="line2d_4">
      <path clip-path="url(#p2683960070)" d="M 437.939545 252.2 
L 437.939545 17.64 
" style="fill:none;stroke:#b0b0b0;stroke-dasharray:1.48,0.64;stroke-dashoffset:0;stroke-width:0.4;"/>
     </g>
     <g id="text_4">
      <!-- 2000 -->
      <defs>
       <path d="M 4.109375 0 
L 4.109375 6.203125 
Q 6.15625 11.921875 9.109375 16.28125 
Q 12.0625 20.65625 15.3125 24.1875 
Q 18.5625 27.734375 21.734375 30.765625 
Q 24.90625 33.796875 27.46875 36.8125 
Q 30.03125 39.84375 31.609375 43.15625 
Q 33.203125 46.484375 33.203125 50.6875 
Q 33.203125 53.609375 32.46875 55.828125 
Q 31.734375 58.0625 30.390625 59.5625 
Q 29.046875 61.078125 27.140625 61.828125 
Q 25.25 62.59375 22.90625 62.59375 
Q 20.75 62.59375 18.84375 61.859375 
Q 16.9375 61.140625 15.453125 59.671875 
Q 13.96875 58.203125 13.03125 56.03125 
Q 12.109375 53.859375 11.8125 50.984375 
L 4.4375 51.8125 
Q 4.78125 55.515625 6.125 58.78125 
Q 7.46875 62.0625 9.78125 64.53125 
Q 12.109375 67 15.359375 68.40625 
Q 18.609375 69.828125 22.90625 69.828125 
Q 27.09375 69.828125 30.390625 68.609375 
Q 33.6875 67.390625 35.9375 64.984375 
Q 38.1875 62.59375 39.40625 59.078125 
Q 40.625 55.5625 40.625 50.984375 
Q 40.625 47.515625 39.59375 44.390625 
Q 38.578125 41.265625 36.859375 38.421875 
Q 35.15625 35.59375 32.90625 32.953125 
Q 30.671875 30.328125 28.21875 27.828125 
L 23.296875 22.859375 
Q 20.796875 20.359375 18.625 17.859375 
Q 16.453125 15.375 14.734375 12.8125 
Q 13.03125 10.25 12.0625 7.46875 
L 41.5 7.46875 
L 41.5 0 
z
" id="LiberationSansNarrow-50"/>
      </defs>
      <g transform="translate(425.16892 269.345625)scale(0.14 -0.14)">
       <use xlink:href="#LiberationSansNarrow-50"/>
       <use x="45.605469" xlink:href="#LiberationSansNarrow-48"/>
       <use x="91.210938" xlink:href="#LiberationSansNarrow-48"/>
       <use x="136.816406" xlink:href="#LiberationSansNarrow-48"/>
      </g>
     </g>
    </g>
    <g id="xtick_5">
     <g id="line2d_5">
      <path clip-path="url(#p2683960070)" d="M 544.979949 252.2 
L 544.979949 17.64 
" style="fill:none;stroke:#b0b0b0;stroke-dasharray:1.48,0.64;stroke-dashoffset:0;stroke-width:0.4;"/>
     </g>
     <g id="text_5">
      <!-- 2020 -->
      <g transform="translate(532.209324 269.345625)scale(0.14 -0.14)">
       <use xlink:href="#LiberationSansNarrow-50"/>
       <use x="45.605469" xlink:href="#LiberationSansNarrow-48"/>
       <use x="91.210938" xlink:href="#LiberationSansNarrow-50"/>
       <use x="136.816406" xlink:href="#LiberationSansNarrow-48"/>
      </g>
     </g>
    </g>
   </g>
   <g id="matplotlib.axis_2">
    <g id="ytick_1">
     <g id="line2d_6">
      <path clip-path="url(#p2683960070)" d="M 28.51 224.073341 
L 558.36 224.073341 
" style="fill:none;stroke:#b0b0b0;stroke-dasharray:1.48,0.64;stroke-dashoffset:0;stroke-width:0.4;"/>
     </g>
     <g id="text_6">
      <!-- 0 -->
      <g transform="translate(15.124688 229.146153)scale(0.14 -0.14)">
       <use xlink:href="#LiberationSansNarrow-48"/>
      </g>
     </g>
    </g>
    <g id="ytick_2">
     <g id="line2d_7">
      <path clip-path="url(#p2683960070)" d="M 28.51 189.500512 
L 558.36 189.500512 
" style="fill:none;stroke:#b0b0b0;stroke-dasharray:1.48,0.64;stroke-dashoffset:0;stroke-width:0.4;"/>
     </g>
     <g id="text_7">
      <!-- 1 -->
      <g transform="translate(15.124688 194.573325)scale(0.14 -0.14)">
       <use xlink:href="#LiberationSansNarrow-49"/>
      </g>
     </g>
    </g>
    <g id="ytick_3">
     <g id="line2d_8">
      <path clip-path="url(#p2683960070)" d="M 28.51 154.927684 
L 558.36 154.927684 
" style="fill:none;stroke:#b0b0b0;stroke-dasharray:1.48,0.64;stroke-dashoffset:0;stroke-width:0.4;"/>
     </g>
     <g id="text_8">
      <!-- 2 -->
      <g transform="translate(15.124688 160.000496)scale(0.14 -0.14)">
       <use xlink:href="#LiberationSansNarrow-50"/>
      </g>
     </g>
    </g>
    <g id="ytick_4">
     <g id="line2d_9">
      <path clip-path="url(#p2683960070)" d="M 28.51 120.354855 
L 558.36 120.354855 
" style="fill:none;stroke:#b0b0b0;stroke-dasharray:1.48,0.64;stroke-dashoffset:0;stroke-width:0.4;"/>
     </g>
     <g id="text_9">
      <!-- 3 -->
      <defs>
       <path d="M 42 19 
Q 42 14.265625 40.75 10.546875 
Q 39.5 6.84375 37.0625 4.265625 
Q 34.625 1.703125 31.046875 0.359375 
Q 27.484375 -0.984375 22.859375 -0.984375 
Q 17.625 -0.984375 14.03125 0.609375 
Q 10.453125 2.203125 8.125 4.8125 
Q 5.8125 7.421875 4.640625 10.765625 
Q 3.46875 14.109375 3.125 17.671875 
L 10.546875 18.5 
Q 10.890625 15.765625 11.734375 13.515625 
Q 12.59375 11.28125 14.078125 9.671875 
Q 15.578125 8.0625 17.75 7.171875 
Q 19.921875 6.296875 22.859375 6.296875 
Q 28.328125 6.296875 31.421875 9.5625 
Q 34.515625 12.84375 34.515625 19.28125 
Q 34.515625 23.09375 33.125 25.40625 
Q 31.734375 27.734375 29.6875 29.03125 
Q 27.640625 30.328125 25.21875 30.765625 
Q 22.796875 31.203125 20.75 31.203125 
L 16.65625 31.203125 
L 16.65625 38.8125 
L 20.5625 38.8125 
Q 22.609375 38.8125 24.828125 39.328125 
Q 27.046875 39.84375 28.859375 41.1875 
Q 30.671875 42.53125 31.859375 44.828125 
Q 33.0625 47.125 33.0625 50.6875 
Q 33.0625 56.203125 30.375 59.390625 
Q 27.6875 62.59375 22.46875 62.59375 
Q 17.671875 62.59375 14.734375 59.609375 
Q 11.8125 56.640625 11.328125 51.21875 
L 4.109375 51.90625 
Q 4.546875 56.453125 6.125 59.8125 
Q 7.71875 63.1875 10.171875 65.40625 
Q 12.640625 67.625 15.8125 68.71875 
Q 19 69.828125 22.5625 69.828125 
Q 27.296875 69.828125 30.6875 68.375 
Q 34.078125 66.9375 36.21875 64.46875 
Q 38.375 62.015625 39.40625 58.6875 
Q 40.4375 55.375 40.4375 51.609375 
Q 40.4375 48.578125 39.75 45.9375 
Q 39.0625 43.3125 37.625 41.203125 
Q 36.1875 39.109375 33.953125 37.59375 
Q 31.734375 36.078125 28.609375 35.296875 
L 28.609375 35.109375 
Q 32.03125 34.671875 34.546875 33.21875 
Q 37.0625 31.78125 38.71875 29.625 
Q 40.375 27.484375 41.1875 24.75 
Q 42 22.015625 42 19 
z
" id="LiberationSansNarrow-51"/>
      </defs>
      <g transform="translate(15.124688 125.427668)scale(0.14 -0.14)">
       <use xlink:href="#LiberationSansNarrow-51"/>
      </g>
     </g>
    </g>
    <g id="ytick_5">
     <g id="line2d_10">
      <path clip-path="url(#p2683960070)" d="M 28.51 85.782027 
L 558.36 85.782027 
" style="fill:none;stroke:#b0b0b0;stroke-dasharray:1.48,0.64;stroke-dashoffset:0;stroke-width:0.4;"/>
     </g>
     <g id="text_10">
      <!-- 4 -->
      <g transform="translate(15.124688 90.854839)scale(0.14 -0.14)">
       <use xlink:href="#LiberationSansNarrow-52"/>
      </g>
     </g>
    </g>
    <g id="ytick_6">
     <g id="line2d_11">
      <path clip-path="url(#p2683960070)" d="M 28.51 51.209198 
L 558.36 51.209198 
" style="fill:none;stroke:#b0b0b0;stroke-dasharray:1.48,0.64;stroke-dashoffset:0;stroke-width:0.4;"/>
     </g>
     <g id="text_11">
      <!-- 5 -->
      <defs>
       <path d="M 42.140625 22.40625 
Q 42.140625 17.234375 40.859375 12.9375 
Q 39.59375 8.640625 37.078125 5.53125 
Q 34.578125 2.4375 30.8125 0.71875 
Q 27.046875 -0.984375 22.125 -0.984375 
Q 17.671875 -0.984375 14.375 0.28125 
Q 11.078125 1.5625 8.8125 3.78125 
Q 6.546875 6 5.203125 8.984375 
Q 3.859375 11.96875 3.265625 15.375 
L 10.546875 16.40625 
Q 10.984375 14.453125 11.78125 12.625 
Q 12.59375 10.796875 13.984375 9.34375 
Q 15.375 7.90625 17.40625 7.046875 
Q 19.4375 6.203125 22.3125 6.203125 
Q 25.09375 6.203125 27.390625 7.25 
Q 29.6875 8.296875 31.296875 10.34375 
Q 32.90625 12.40625 33.78125 15.375 
Q 34.671875 18.359375 34.671875 22.21875 
Q 34.671875 25.390625 33.84375 28.046875 
Q 33.015625 30.71875 31.453125 32.640625 
Q 29.890625 34.578125 27.609375 35.640625 
Q 25.34375 36.71875 22.46875 36.71875 
Q 20.65625 36.71875 19.140625 36.328125 
Q 17.625 35.9375 16.328125 35.25 
Q 15.046875 34.578125 13.96875 33.671875 
Q 12.890625 32.765625 11.96875 31.78125 
L 4.9375 31.78125 
L 6.78125 68.796875 
L 38.875 68.796875 
L 38.875 61.328125 
L 13.375 61.328125 
L 12.3125 39.5 
Q 14.203125 41.3125 17.078125 42.59375 
Q 19.96875 43.890625 23.921875 43.890625 
Q 28.125 43.890625 31.484375 42.328125 
Q 34.859375 40.765625 37.21875 37.90625 
Q 39.59375 35.0625 40.859375 31.109375 
Q 42.140625 27.15625 42.140625 22.40625 
z
" id="LiberationSansNarrow-53"/>
      </defs>
      <g transform="translate(15.124688 56.282011)scale(0.14 -0.14)">
       <use xlink:href="#LiberationSansNarrow-53"/>
      </g>
     </g>
    </g>
   </g>
   <g id="line2d_12">
    <path clip-path="url(#p2683960070)" d="M 52.594091 211.511966 
L 57.946111 214.104838 
L 63.298131 224.107861 
L 68.650152 241.538182 
L 74.002172 240.996382 
L 79.354192 223.420288 
L 84.706212 224.628483 
L 90.058232 212.402078 
L 95.410253 203.32311 
L 100.762273 219.139592 
L 106.114293 210.504552 
L 111.466313 210.395706 
L 116.818333 214.049933 
L 122.170354 219.26782 
L 127.522374 216.919408 
L 132.874394 211.734141 
L 138.226414 206.719197 
L 143.578434 196.919874 
L 148.930455 200.732576 
L 154.282475 204.740888 
L 159.634495 206.191015 
L 164.986515 200.81487 
L 170.338535 190.802751 
L 175.690556 186.143502 
L 181.042576 181.842724 
L 186.394596 182.393196 
L 191.746616 168.17704 
L 197.098636 158.164421 
L 202.450657 155.812794 
L 207.802677 160.648466 
L 213.154697 149.339503 
L 218.506717 145.884173 
L 223.858737 146.123831 
L 229.210758 138.544108 
L 234.562778 141.964396 
L 239.914798 135.374508 
L 245.266818 130.683613 
L 250.618838 126.976538 
L 255.970859 131.266543 
L 261.322879 125.06021 
L 266.674899 122.748463 
L 272.026919 127.210326 
L 277.378939 128.073659 
L 282.73096 125.259137 
L 288.08298 120.427439 
L 293.435 127.005176 
L 298.78702 140.472158 
L 304.13904 133.446585 
L 309.491061 128.304593 
L 314.843081 132.563828 
L 320.195101 132.670237 
L 325.547121 129.864167 
L 330.899141 124.837543 
L 336.251162 130.366849 
L 341.603182 126.728594 
L 346.955202 121.018296 
L 352.307222 120.375957 
L 357.659242 112.178686 
L 363.011263 107.629918 
L 368.363283 106.177598 
L 373.715303 102.258075 
L 379.067323 94.374367 
L 384.419343 97.203771 
L 389.771364 89.971362 
L 395.123384 88.360556 
L 400.475404 86.184364 
L 405.827424 86.59094 
L 411.179444 76.614024 
L 416.531465 70.477219 
L 421.883485 61.627554 
L 427.235505 53.540774 
L 432.587525 47.55613 
L 437.939545 51.762985 
L 443.291566 57.390412 
L 448.643586 66.358032 
L 453.995606 58.613944 
L 459.347626 55.74576 
L 464.699646 55.12527 
L 470.051667 51.460727 
L 475.403687 50.324937 
L 480.755707 67.519415 
L 486.107727 59.540947 
L 491.459747 55.658877 
L 496.811768 55.500538 
L 502.163788 51.398685 
L 507.515808 42.30923 
L 512.867828 38.465365 
L 518.219848 37.960996 
L 523.571869 35.237317 
L 528.923889 29.216378 
L 534.275909 31.565093 
" style="fill:none;stroke:#1f77b4;stroke-linecap:square;stroke-width:1.5;"/>
   </g>
   <g id="line2d_13">
    <path clip-path="url(#p2683960070)" d="M 52.594091 232.635288 
L 57.946111 230.364916 
L 63.298131 228.094544 
L 68.650152 225.824172 
L 74.002172 223.5538 
L 79.354192 221.283429 
L 84.706212 219.013057 
L 90.058232 216.742685 
L 95.410253 214.472313 
L 100.762273 212.201941 
L 106.114293 209.931569 
L 111.466313 207.661197 
L 116.818333 205.390825 
L 122.170354 203.120453 
L 127.522374 200.850082 
L 132.874394 198.57971 
L 138.226414 196.309338 
L 143.578434 194.038966 
L 148.930455 191.768594 
L 154.282475 189.498222 
L 159.634495 187.22785 
L 164.986515 184.957478 
L 170.338535 182.687107 
L 175.690556 180.416735 
L 181.042576 178.146363 
L 186.394596 175.875991 
L 191.746616 173.605619 
L 197.098636 171.335247 
L 202.450657 169.064875 
L 207.802677 166.794503 
L 213.154697 164.524131 
L 218.506717 162.25376 
L 223.858737 159.983388 
L 229.210758 157.713016 
L 234.562778 155.442644 
L 239.914798 153.172272 
L 245.266818 150.9019 
L 250.618838 148.631528 
L 255.970859 146.361156 
L 261.322879 144.090784 
L 266.674899 141.820413 
L 272.026919 139.550041 
L 277.378939 137.279669 
L 282.73096 135.009297 
L 288.08298 132.738925 
L 293.435 130.468553 
L 298.78702 128.198181 
L 304.13904 125.927809 
L 309.491061 123.657437 
L 314.843081 121.387066 
L 320.195101 119.116694 
L 325.547121 116.846322 
L 330.899141 114.57595 
L 336.251162 112.305578 
L 341.603182 110.035206 
L 346.955202 107.764834 
L 352.307222 105.494462 
L 357.659242 103.22409 
L 363.011263 100.953719 
L 368.363283 98.683347 
L 373.715303 96.412975 
L 379.067323 94.142603 
L 384.419343 91.872231 
L 389.771364 89.601859 
L 395.123384 87.331487 
L 400.475404 85.061115 
L 405.827424 82.790743 
L 411.179444 80.520372 
L 416.531465 78.25 
L 421.883485 75.979628 
L 427.235505 73.709256 
L 432.587525 71.438884 
L 437.939545 69.168512 
L 443.291566 66.89814 
L 448.643586 64.627768 
L 453.995606 62.357396 
L 459.347626 60.087025 
L 464.699646 57.816653 
L 470.051667 55.546281 
L 475.403687 53.275909 
L 480.755707 51.005537 
L 486.107727 48.735165 
L 491.459747 46.464793 
L 496.811768 44.194421 
L 502.163788 41.92405 
L 507.515808 39.653678 
L 512.867828 37.383306 
L 518.219848 35.112934 
L 523.571869 32.842562 
L 528.923889 30.57219 
L 534.275909 28.301818 
" style="fill:none;stroke:#000000;stroke-linecap:square;stroke-width:1.5;"/>
   </g>
  </g>
 </g>
 <defs>
  <clipPath id="p2683960070">
   <rect height="234.56" width="529.85" x="28.51" y="17.64"/>
  </clipPath>
 </defs>
</svg>
