<?xml version="1.0" encoding="utf-8" standalone="no"?>
<!DOCTYPE svg PUBLIC "-//W3C//DTD SVG 1.1//EN"
  "http://www.w3.org/Graphics/SVG/1.1/DTD/svg11.dtd">
<!-- Created with matplotlib (https://matplotlib.org/) -->
<svg height="288pt" version="1.1" viewBox="0 0 576 288" width="576pt" xmlns="http://www.w3.org/2000/svg" xmlns:xlink="http://www.w3.org/1999/xlink">
 <defs>
  <style type="text/css">
*{stroke-linecap:butt;stroke-linejoin:round;}
  </style>
 </defs>
 <g id="figure_1">
  <g id="patch_1">
   <path d="M 0 288 
L 576 288 
L 576 0 
L 0 0 
z
" style="fill:#ffffff;"/>
  </g>
  <g id="axes_1">
   <g id="patch_2">
    <path d="M 41.29 252.2 
L 558.36 252.2 
L 558.36 17.64 
L 41.29 17.64 
z
" style="fill:#ffffff;"/>
   </g>
   <g id="PolyCollection_1">
    <defs>
     <path d="M 64.793182 -47.098011 
L 64.793182 -47.098011 
L 70.016111 -47.018813 
L 75.23904 -46.763331 
L 80.46197 -46.461818 
L 85.684899 -46.469082 
L 90.907828 -46.778625 
L 96.130758 -46.751951 
L 101.353687 -47.070151 
L 106.576616 -47.390955 
L 111.799545 -46.881003 
L 117.022475 -47.13042 
L 122.245404 -47.133978 
L 127.468333 -47.02043 
L 132.691263 -46.877748 
L 137.914192 -46.939308 
L 143.137121 -47.09099 
L 148.360051 -47.260997 
L 153.58298 -47.673586 
L 158.805909 -47.499035 
L 164.028838 -47.335145 
L 169.251768 -47.28038 
L 174.474697 -47.495475 
L 179.697626 -47.997142 
L 184.920556 -48.284993 
L 190.143485 -48.587423 
L 195.366414 -48.546582 
L 200.589343 -49.840849 
L 205.812273 -51.130369 
L 211.035202 -51.491342 
L 216.258131 -50.774818 
L 221.481061 -52.621683 
L 226.70399 -53.317477 
L 231.926919 -53.266941 
L 237.149848 -55.047811 
L 242.372778 -54.195743 
L 247.595707 -55.916334 
L 252.818636 -57.357069 
L 258.041566 -58.6423 
L 263.264495 -57.167215 
L 268.487424 -59.362722 
L 273.710354 -60.286651 
L 278.933283 -58.557112 
L 284.156212 -58.247472 
L 289.379141 -59.286066 
L 294.602071 -61.278571 
L 299.825 -58.631834 
L 305.047929 -54.55715 
L 310.270859 -56.484908 
L 315.493788 -58.165949 
L 320.716717 -56.75602 
L 325.939646 -56.722971 
L 331.162576 -57.629424 
L 336.385505 -59.44905 
L 341.608434 -57.461585 
L 346.831364 -58.733278 
L 352.054293 -61.019708 
L 357.277222 -61.301337 
L 362.500152 -65.395001 
L 367.723081 -68.122026 
L 372.94601 -69.071031 
L 378.168939 -71.840394 
L 383.391869 -78.458286 
L 388.614798 -75.907874 
L 393.837727 -82.866496 
L 399.060657 -84.62472 
L 404.283586 -87.133983 
L 409.506515 -86.653104 
L 414.729444 -100.252018 
L 419.952374 -110.789149 
L 425.175303 -129.688633 
L 430.398232 -151.742198 
L 435.621162 -171.725842 
L 440.844091 -157.321754 
L 446.06702 -140.600005 
L 451.289949 -118.986905 
L 456.512879 -137.310726 
L 461.735808 -145.208851 
L 466.958737 -147.005424 
L 472.181667 -158.299251 
L 477.404596 -162.049724 
L 482.627525 -116.575889 
L 487.850455 -134.89499 
L 493.073384 -145.458475 
L 498.296313 -145.915018 
L 503.519242 -158.500954 
L 508.742172 -192.33013 
L 513.965101 -209.538026 
L 519.18803 -211.941276 
L 524.41096 -225.542867 
L 529.633889 -259.698182 
L 534.856818 -245.662808 
L 534.856818 -245.662808 
L 534.856818 -245.662808 
L 529.633889 -243.456532 
L 524.41096 -241.250257 
L 519.18803 -239.043981 
L 513.965101 -236.837706 
L 508.742172 -234.63143 
L 503.519242 -232.425154 
L 498.296313 -230.218879 
L 493.073384 -228.012603 
L 487.850455 -225.806328 
L 482.627525 -223.600052 
L 477.404596 -221.393777 
L 472.181667 -219.187501 
L 466.958737 -216.981226 
L 461.735808 -214.77495 
L 456.512879 -212.568675 
L 451.289949 -210.362399 
L 446.06702 -208.156124 
L 440.844091 -205.949848 
L 435.621162 -203.743573 
L 430.398232 -201.537297 
L 425.175303 -199.331022 
L 419.952374 -197.124746 
L 414.729444 -194.918471 
L 409.506515 -192.712195 
L 404.283586 -190.50592 
L 399.060657 -188.299644 
L 393.837727 -186.093369 
L 388.614798 -183.887093 
L 383.391869 -181.680818 
L 378.168939 -179.474542 
L 372.94601 -177.268267 
L 367.723081 -175.061991 
L 362.500152 -172.855715 
L 357.277222 -170.64944 
L 352.054293 -168.443164 
L 346.831364 -166.236889 
L 341.608434 -164.030613 
L 336.385505 -161.824338 
L 331.162576 -159.618062 
L 325.939646 -157.411787 
L 320.716717 -155.205511 
L 315.493788 -152.999236 
L 310.270859 -150.79296 
L 305.047929 -148.586685 
L 299.825 -146.380409 
L 294.602071 -144.174134 
L 289.379141 -141.967858 
L 284.156212 -139.761583 
L 278.933283 -137.555307 
L 273.710354 -135.349032 
L 268.487424 -133.142756 
L 263.264495 -130.936481 
L 258.041566 -128.730205 
L 252.818636 -126.52393 
L 247.595707 -124.317654 
L 242.372778 -122.111379 
L 237.149848 -119.905103 
L 231.926919 -117.698828 
L 226.70399 -115.492552 
L 221.481061 -113.286276 
L 216.258131 -111.080001 
L 211.035202 -108.873725 
L 205.812273 -106.66745 
L 200.589343 -104.461174 
L 195.366414 -102.254899 
L 190.143485 -100.048623 
L 184.920556 -97.842348 
L 179.697626 -95.636072 
L 174.474697 -93.429797 
L 169.251768 -91.223521 
L 164.028838 -89.017246 
L 158.805909 -86.81097 
L 153.58298 -84.604695 
L 148.360051 -82.398419 
L 143.137121 -80.192144 
L 137.914192 -77.985868 
L 132.691263 -75.779593 
L 127.468333 -73.573317 
L 122.245404 -71.367042 
L 117.022475 -69.160766 
L 111.799545 -66.954491 
L 106.576616 -64.748215 
L 101.353687 -62.54194 
L 96.130758 -60.335664 
L 90.907828 -58.129389 
L 85.684899 -55.923113 
L 80.46197 -53.716837 
L 75.23904 -51.510562 
L 70.016111 -49.304286 
L 64.793182 -47.098011 
z
" id="m5acd722e7d" style="stroke:#7f7f7f;stroke-opacity:0.3;"/>
    </defs>
    <g clip-path="url(#p957e33ae3b)">
     <use style="fill:#7f7f7f;fill-opacity:0.3;stroke:#7f7f7f;stroke-opacity:0.3;" x="0" xlink:href="#m5acd722e7d" y="288"/>
    </g>
   </g>
   <g id="matplotlib.axis_1">
    <g id="xtick_1">
     <g id="line2d_1">
      <path clip-path="url(#p957e33ae3b)" d="M 127.468333 252.2 
L 127.468333 17.64 
" style="fill:none;stroke:#b0b0b0;stroke-dasharray:1.48,0.64;stroke-dashoffset:0;stroke-width:0.4;"/>
     </g>
     <g id="text_1">
      <!-- 1940 -->
      <defs>
       <path d="M 6.25 0 
L 6.25 7.46875 
L 20.609375 7.46875 
L 20.609375 60.40625 
L 7.90625 49.3125 
L 7.90625 57.625 
L 21.234375 68.796875 
L 27.875 68.796875 
L 27.875 7.46875 
L 41.609375 7.46875 
L 41.609375 0 
z
" id="LiberationSansNarrow-49"/>
       <path d="M 41.703125 35.796875 
Q 41.703125 26.609375 40.28125 19.703125 
Q 38.875 12.796875 36.234375 8.203125 
Q 33.59375 3.609375 29.8125 1.3125 
Q 26.03125 -0.984375 21.296875 -0.984375 
Q 18.0625 -0.984375 15.453125 -0.171875 
Q 12.84375 0.640625 10.8125 2.34375 
Q 8.796875 4.046875 7.328125 6.78125 
Q 5.859375 9.515625 4.984375 13.375 
L 11.921875 14.703125 
Q 13.03125 10.25 15.40625 8.171875 
Q 17.78125 6.109375 21.4375 6.109375 
Q 24.359375 6.109375 26.78125 7.78125 
Q 29.203125 9.46875 30.875 12.84375 
Q 32.5625 16.21875 33.546875 21.296875 
Q 34.46875 26.375 34.578125 33.203125 
Q 33.734375 30.90625 32.265625 29.09375 
Q 30.8125 27.296875 28.953125 26.046875 
Q 27.09375 24.8125 24.9375 24.140625 
Q 22.796875 23.484375 20.5625 23.484375 
Q 16.703125 23.484375 13.625 25.171875 
Q 10.546875 26.859375 8.375 29.875 
Q 6.203125 32.90625 5.03125 37.171875 
Q 3.859375 41.453125 3.859375 46.6875 
Q 3.859375 52 5.09375 56.296875 
Q 6.34375 60.59375 8.765625 63.59375 
Q 11.1875 66.609375 14.671875 68.21875 
Q 18.171875 69.828125 22.609375 69.828125 
Q 32.03125 69.828125 36.859375 61.328125 
Q 41.703125 52.828125 41.703125 35.796875 
z
M 33.890625 44.28125 
Q 33.890625 48.09375 33.125 51.453125 
Q 32.375 54.828125 30.9375 57.3125 
Q 29.5 59.8125 27.34375 61.25 
Q 25.203125 62.703125 22.359375 62.703125 
Q 19.78125 62.703125 17.703125 61.578125 
Q 15.625 60.453125 14.1875 58.375 
Q 12.75 56.296875 11.96875 53.3125 
Q 11.1875 50.34375 11.1875 46.6875 
Q 11.1875 43.21875 11.859375 40.234375 
Q 12.546875 37.25 13.953125 35.078125 
Q 15.375 32.90625 17.453125 31.65625 
Q 19.53125 30.421875 22.3125 30.421875 
Q 24.3125 30.421875 26.359375 31.25 
Q 28.421875 32.078125 30.078125 33.78125 
Q 31.734375 35.5 32.8125 38.109375 
Q 33.890625 40.71875 33.890625 44.28125 
z
" id="LiberationSansNarrow-57"/>
       <path d="M 35.25 15.578125 
L 35.25 0 
L 28.46875 0 
L 28.46875 15.578125 
L 1.90625 15.578125 
L 1.90625 22.40625 
L 27.6875 68.796875 
L 35.25 68.796875 
L 35.25 22.515625 
L 43.21875 22.515625 
L 43.21875 15.578125 
z
M 28.46875 58.890625 
Q 28.375 58.640625 28.03125 57.90625 
L 27.34375 56.34375 
L 26.5625 54.59375 
Q 26.125 53.65625 25.78125 53.078125 
L 11.328125 27.09375 
Q 11.140625 26.703125 10.75 26.078125 
L 9.96875 24.8125 
L 9.1875 23.484375 
Q 8.796875 22.859375 8.546875 22.515625 
L 28.46875 22.515625 
z
" id="LiberationSansNarrow-52"/>
       <path d="M 42.390625 34.421875 
Q 42.390625 24.515625 40.84375 17.75 
Q 39.3125 10.984375 36.640625 6.8125 
Q 33.984375 2.640625 30.390625 0.828125 
Q 26.8125 -0.984375 22.703125 -0.984375 
Q 18.609375 -0.984375 15.03125 0.828125 
Q 11.46875 2.640625 8.828125 6.78125 
Q 6.203125 10.9375 4.703125 17.703125 
Q 3.21875 24.46875 3.21875 34.421875 
Q 3.21875 44.828125 4.703125 51.640625 
Q 6.203125 58.453125 8.828125 62.5 
Q 11.46875 66.546875 15.078125 68.1875 
Q 18.703125 69.828125 22.953125 69.828125 
Q 27 69.828125 30.53125 68.1875 
Q 34.078125 66.546875 36.71875 62.5 
Q 39.359375 58.453125 40.875 51.640625 
Q 42.390625 44.828125 42.390625 34.421875 
z
M 35.0625 34.421875 
Q 35.0625 42.625 34.28125 48.0625 
Q 33.5 53.515625 31.9375 56.765625 
Q 30.375 60.015625 28.09375 61.359375 
Q 25.828125 62.703125 22.953125 62.703125 
Q 19.921875 62.703125 17.578125 61.328125 
Q 15.234375 59.96875 13.671875 56.71875 
Q 12.109375 53.46875 11.296875 48.015625 
Q 10.5 42.578125 10.5 34.421875 
Q 10.5 26.515625 11.296875 21.09375 
Q 12.109375 15.671875 13.6875 12.375 
Q 15.28125 9.078125 17.578125 7.640625 
Q 19.875 6.203125 22.796875 6.203125 
Q 25.640625 6.203125 27.90625 7.640625 
Q 30.171875 9.078125 31.75 12.375 
Q 33.34375 15.671875 34.203125 21.09375 
Q 35.0625 26.515625 35.0625 34.421875 
z
" id="LiberationSansNarrow-48"/>
      </defs>
      <g transform="translate(114.697708 269.345625)scale(0.14 -0.14)">
       <use xlink:href="#LiberationSansNarrow-49"/>
       <use x="45.605469" xlink:href="#LiberationSansNarrow-57"/>
       <use x="91.210938" xlink:href="#LiberationSansNarrow-52"/>
       <use x="136.816406" xlink:href="#LiberationSansNarrow-48"/>
      </g>
     </g>
    </g>
    <g id="xtick_2">
     <g id="line2d_2">
      <path clip-path="url(#p957e33ae3b)" d="M 231.926919 252.2 
L 231.926919 17.64 
" style="fill:none;stroke:#b0b0b0;stroke-dasharray:1.48,0.64;stroke-dashoffset:0;stroke-width:0.4;"/>
     </g>
     <g id="text_2">
      <!-- 1960 -->
      <defs>
       <path d="M 42 22.515625 
Q 42 17.328125 40.828125 13 
Q 39.65625 8.6875 37.359375 5.578125 
Q 35.0625 2.484375 31.640625 0.75 
Q 28.21875 -0.984375 23.78125 -0.984375 
Q 18.84375 -0.984375 15.15625 1.3125 
Q 11.46875 3.609375 9.03125 7.921875 
Q 6.59375 12.25 5.375 18.53125 
Q 4.15625 24.8125 4.15625 32.8125 
Q 4.15625 42 5.546875 48.921875 
Q 6.9375 55.859375 9.515625 60.5 
Q 12.109375 65.140625 15.859375 67.484375 
Q 19.625 69.828125 24.359375 69.828125 
Q 27.25 69.828125 29.765625 69.09375 
Q 32.28125 68.359375 34.328125 66.71875 
Q 36.375 65.09375 37.9375 62.40625 
Q 39.5 59.71875 40.4375 55.8125 
L 33.546875 54.296875 
Q 32.421875 58.734375 29.953125 60.71875 
Q 27.484375 62.703125 24.265625 62.703125 
Q 21.296875 62.703125 18.890625 60.984375 
Q 16.5 59.28125 14.8125 55.875 
Q 13.140625 52.484375 12.234375 47.359375 
Q 11.328125 42.234375 11.328125 35.40625 
Q 13.28125 39.84375 16.84375 42.15625 
Q 20.40625 44.484375 25.046875 44.484375 
Q 28.90625 44.484375 32 42.96875 
Q 35.109375 41.453125 37.328125 38.59375 
Q 39.546875 35.75 40.765625 31.671875 
Q 42 27.59375 42 22.515625 
z
M 34.671875 22.125 
Q 34.671875 25.6875 33.953125 28.5625 
Q 33.25 31.453125 31.8125 33.46875 
Q 30.375 35.5 28.25 36.59375 
Q 26.125 37.703125 23.296875 37.703125 
Q 21.34375 37.703125 19.328125 36.984375 
Q 17.328125 36.28125 15.71875 34.6875 
Q 14.109375 33.109375 13.078125 30.515625 
Q 12.0625 27.9375 12.0625 24.21875 
Q 12.0625 20.40625 12.859375 17.109375 
Q 13.671875 13.8125 15.15625 11.375 
Q 16.65625 8.9375 18.78125 7.515625 
Q 20.90625 6.109375 23.53125 6.109375 
Q 26.125 6.109375 28.203125 7.203125 
Q 30.28125 8.296875 31.71875 10.375 
Q 33.15625 12.453125 33.90625 15.421875 
Q 34.671875 18.40625 34.671875 22.125 
z
" id="LiberationSansNarrow-54"/>
      </defs>
      <g transform="translate(219.156294 269.345625)scale(0.14 -0.14)">
       <use xlink:href="#LiberationSansNarrow-49"/>
       <use x="45.605469" xlink:href="#LiberationSansNarrow-57"/>
       <use x="91.210938" xlink:href="#LiberationSansNarrow-54"/>
       <use x="136.816406" xlink:href="#LiberationSansNarrow-48"/>
      </g>
     </g>
    </g>
    <g id="xtick_3">
     <g id="line2d_3">
      <path clip-path="url(#p957e33ae3b)" d="M 336.385505 252.2 
L 336.385505 17.64 
" style="fill:none;stroke:#b0b0b0;stroke-dasharray:1.48,0.64;stroke-dashoffset:0;stroke-width:0.4;"/>
     </g>
     <g id="text_3">
      <!-- 1980 -->
      <defs>
       <path d="M 42.046875 19.1875 
Q 42.046875 14.796875 40.890625 11.109375 
Q 39.75 7.421875 37.40625 4.734375 
Q 35.0625 2.046875 31.421875 0.53125 
Q 27.78125 -0.984375 22.796875 -0.984375 
Q 17.828125 -0.984375 14.203125 0.53125 
Q 10.59375 2.046875 8.21875 4.703125 
Q 5.859375 7.375 4.703125 11.0625 
Q 3.5625 14.75 3.5625 19.09375 
Q 3.5625 22.859375 4.515625 25.78125 
Q 5.46875 28.71875 7.03125 30.828125 
Q 8.59375 32.953125 10.609375 34.25 
Q 12.640625 35.546875 14.796875 35.984375 
L 14.796875 36.1875 
Q 12.453125 36.859375 10.59375 38.375 
Q 8.734375 39.890625 7.46875 42.015625 
Q 6.203125 44.140625 5.546875 46.71875 
Q 4.890625 49.3125 4.890625 52.203125 
Q 4.890625 55.8125 6.03125 59 
Q 7.171875 62.203125 9.421875 64.625 
Q 11.671875 67.046875 14.984375 68.4375 
Q 18.3125 69.828125 22.65625 69.828125 
Q 27.25 69.828125 30.640625 68.40625 
Q 34.03125 67 36.25 64.578125 
Q 38.484375 62.15625 39.546875 58.9375 
Q 40.625 55.71875 40.625 52.09375 
Q 40.625 49.265625 39.96875 46.671875 
Q 39.3125 44.09375 38.0625 41.96875 
Q 36.8125 39.84375 34.9375 38.34375 
Q 33.0625 36.859375 30.609375 36.28125 
L 30.609375 36.078125 
Q 33.0625 35.59375 35.15625 34.296875 
Q 37.25 33.015625 38.765625 30.890625 
Q 40.28125 28.765625 41.15625 25.828125 
Q 42.046875 22.90625 42.046875 19.1875 
z
M 33.15625 51.609375 
Q 33.15625 54.203125 32.609375 56.34375 
Q 32.078125 58.5 30.828125 60.03125 
Q 29.59375 61.578125 27.59375 62.421875 
Q 25.59375 63.28125 22.65625 63.28125 
Q 19.828125 63.28125 17.875 62.421875 
Q 15.921875 61.578125 14.640625 60.03125 
Q 13.375 58.5 12.8125 56.34375 
Q 12.25 54.203125 12.25 51.609375 
Q 12.25 49.5625 12.6875 47.40625 
Q 13.140625 45.265625 14.3125 43.5 
Q 15.484375 41.75 17.5 40.625 
Q 19.53125 39.5 22.75 39.5 
Q 26.171875 39.5 28.21875 40.625 
Q 30.28125 41.75 31.375 43.5 
Q 32.46875 45.265625 32.8125 47.40625 
Q 33.15625 49.5625 33.15625 51.609375 
z
M 34.578125 20.015625 
Q 34.578125 22.515625 34.015625 24.828125 
Q 33.453125 27.15625 32.078125 28.9375 
Q 30.71875 30.71875 28.421875 31.8125 
Q 26.125 32.90625 22.65625 32.90625 
Q 19.484375 32.90625 17.265625 31.8125 
Q 15.046875 30.71875 13.671875 28.90625 
Q 12.3125 27.09375 11.671875 24.71875 
Q 11.03125 22.359375 11.03125 19.828125 
Q 11.03125 16.65625 11.671875 14.03125 
Q 12.3125 11.421875 13.703125 9.546875 
Q 15.09375 7.671875 17.375 6.640625 
Q 19.671875 5.609375 22.90625 5.609375 
Q 26.171875 5.609375 28.421875 6.640625 
Q 30.671875 7.671875 32.03125 9.546875 
Q 33.40625 11.421875 33.984375 14.078125 
Q 34.578125 16.75 34.578125 20.015625 
z
" id="LiberationSansNarrow-56"/>
      </defs>
      <g transform="translate(323.61488 269.345625)scale(0.14 -0.14)">
       <use xlink:href="#LiberationSansNarrow-49"/>
       <use x="45.605469" xlink:href="#LiberationSansNarrow-57"/>
       <use x="91.210938" xlink:href="#LiberationSansNarrow-56"/>
       <use x="136.816406" xlink:href="#LiberationSansNarrow-48"/>
      </g>
     </g>
    </g>
    <g id="xtick_4">
     <g id="line2d_4">
      <path clip-path="url(#p957e33ae3b)" d="M 440.844091 252.2 
L 440.844091 17.64 
" style="fill:none;stroke:#b0b0b0;stroke-dasharray:1.48,0.64;stroke-dashoffset:0;stroke-width:0.4;"/>
     </g>
     <g id="text_4">
      <!-- 2000 -->
      <defs>
       <path d="M 4.109375 0 
L 4.109375 6.203125 
Q 6.15625 11.921875 9.109375 16.28125 
Q 12.0625 20.65625 15.3125 24.1875 
Q 18.5625 27.734375 21.734375 30.765625 
Q 24.90625 33.796875 27.46875 36.8125 
Q 30.03125 39.84375 31.609375 43.15625 
Q 33.203125 46.484375 33.203125 50.6875 
Q 33.203125 53.609375 32.46875 55.828125 
Q 31.734375 58.0625 30.390625 59.5625 
Q 29.046875 61.078125 27.140625 61.828125 
Q 25.25 62.59375 22.90625 62.59375 
Q 20.75 62.59375 18.84375 61.859375 
Q 16.9375 61.140625 15.453125 59.671875 
Q 13.96875 58.203125 13.03125 56.03125 
Q 12.109375 53.859375 11.8125 50.984375 
L 4.4375 51.8125 
Q 4.78125 55.515625 6.125 58.78125 
Q 7.46875 62.0625 9.78125 64.53125 
Q 12.109375 67 15.359375 68.40625 
Q 18.609375 69.828125 22.90625 69.828125 
Q 27.09375 69.828125 30.390625 68.609375 
Q 33.6875 67.390625 35.9375 64.984375 
Q 38.1875 62.59375 39.40625 59.078125 
Q 40.625 55.5625 40.625 50.984375 
Q 40.625 47.515625 39.59375 44.390625 
Q 38.578125 41.265625 36.859375 38.421875 
Q 35.15625 35.59375 32.90625 32.953125 
Q 30.671875 30.328125 28.21875 27.828125 
L 23.296875 22.859375 
Q 20.796875 20.359375 18.625 17.859375 
Q 16.453125 15.375 14.734375 12.8125 
Q 13.03125 10.25 12.0625 7.46875 
L 41.5 7.46875 
L 41.5 0 
z
" id="LiberationSansNarrow-50"/>
      </defs>
      <g transform="translate(428.073466 269.345625)scale(0.14 -0.14)">
       <use xlink:href="#LiberationSansNarrow-50"/>
       <use x="45.605469" xlink:href="#LiberationSansNarrow-48"/>
       <use x="91.210938" xlink:href="#LiberationSansNarrow-48"/>
       <use x="136.816406" xlink:href="#LiberationSansNarrow-48"/>
      </g>
     </g>
    </g>
    <g id="xtick_5">
     <g id="line2d_5">
      <path clip-path="url(#p957e33ae3b)" d="M 545.302677 252.2 
L 545.302677 17.64 
" style="fill:none;stroke:#b0b0b0;stroke-dasharray:1.48,0.64;stroke-dashoffset:0;stroke-width:0.4;"/>
     </g>
     <g id="text_5">
      <!-- 2020 -->
      <g transform="translate(532.532052 269.345625)scale(0.14 -0.14)">
       <use xlink:href="#LiberationSansNarrow-50"/>
       <use x="45.605469" xlink:href="#LiberationSansNarrow-48"/>
       <use x="91.210938" xlink:href="#LiberationSansNarrow-50"/>
       <use x="136.816406" xlink:href="#LiberationSansNarrow-48"/>
      </g>
     </g>
    </g>
   </g>
   <g id="matplotlib.axis_2">
    <g id="ytick_1">
     <g id="line2d_6">
      <path clip-path="url(#p957e33ae3b)" d="M 41.29 241.998087 
L 558.36 241.998087 
" style="fill:none;stroke:#b0b0b0;stroke-dasharray:1.48,0.64;stroke-dashoffset:0;stroke-width:0.4;"/>
     </g>
     <g id="text_6">
      <!-- 0 -->
      <g transform="translate(27.904688 247.070899)scale(0.14 -0.14)">
       <use xlink:href="#LiberationSansNarrow-48"/>
      </g>
     </g>
    </g>
    <g id="ytick_2">
     <g id="line2d_7">
      <path clip-path="url(#p957e33ae3b)" d="M 41.29 203.889162 
L 558.36 203.889162 
" style="fill:none;stroke:#b0b0b0;stroke-dasharray:1.48,0.64;stroke-dashoffset:0;stroke-width:0.4;"/>
     </g>
     <g id="text_7">
      <!-- 50 -->
      <defs>
       <path d="M 42.140625 22.40625 
Q 42.140625 17.234375 40.859375 12.9375 
Q 39.59375 8.640625 37.078125 5.53125 
Q 34.578125 2.4375 30.8125 0.71875 
Q 27.046875 -0.984375 22.125 -0.984375 
Q 17.671875 -0.984375 14.375 0.28125 
Q 11.078125 1.5625 8.8125 3.78125 
Q 6.546875 6 5.203125 8.984375 
Q 3.859375 11.96875 3.265625 15.375 
L 10.546875 16.40625 
Q 10.984375 14.453125 11.78125 12.625 
Q 12.59375 10.796875 13.984375 9.34375 
Q 15.375 7.90625 17.40625 7.046875 
Q 19.4375 6.203125 22.3125 6.203125 
Q 25.09375 6.203125 27.390625 7.25 
Q 29.6875 8.296875 31.296875 10.34375 
Q 32.90625 12.40625 33.78125 15.375 
Q 34.671875 18.359375 34.671875 22.21875 
Q 34.671875 25.390625 33.84375 28.046875 
Q 33.015625 30.71875 31.453125 32.640625 
Q 29.890625 34.578125 27.609375 35.640625 
Q 25.34375 36.71875 22.46875 36.71875 
Q 20.65625 36.71875 19.140625 36.328125 
Q 17.625 35.9375 16.328125 35.25 
Q 15.046875 34.578125 13.96875 33.671875 
Q 12.890625 32.765625 11.96875 31.78125 
L 4.9375 31.78125 
L 6.78125 68.796875 
L 38.875 68.796875 
L 38.875 61.328125 
L 13.375 61.328125 
L 12.3125 39.5 
Q 14.203125 41.3125 17.078125 42.59375 
Q 19.96875 43.890625 23.921875 43.890625 
Q 28.125 43.890625 31.484375 42.328125 
Q 34.859375 40.765625 37.21875 37.90625 
Q 39.59375 35.0625 40.859375 31.109375 
Q 42.140625 27.15625 42.140625 22.40625 
z
" id="LiberationSansNarrow-53"/>
      </defs>
      <g transform="translate(21.519375 208.961974)scale(0.14 -0.14)">
       <use xlink:href="#LiberationSansNarrow-53"/>
       <use x="45.605469" xlink:href="#LiberationSansNarrow-48"/>
      </g>
     </g>
    </g>
    <g id="ytick_3">
     <g id="line2d_8">
      <path clip-path="url(#p957e33ae3b)" d="M 41.29 165.780237 
L 558.36 165.780237 
" style="fill:none;stroke:#b0b0b0;stroke-dasharray:1.48,0.64;stroke-dashoffset:0;stroke-width:0.4;"/>
     </g>
     <g id="text_8">
      <!-- 100 -->
      <g transform="translate(15.134063 170.85305)scale(0.14 -0.14)">
       <use xlink:href="#LiberationSansNarrow-49"/>
       <use x="45.605469" xlink:href="#LiberationSansNarrow-48"/>
       <use x="91.210938" xlink:href="#LiberationSansNarrow-48"/>
      </g>
     </g>
    </g>
    <g id="ytick_4">
     <g id="line2d_9">
      <path clip-path="url(#p957e33ae3b)" d="M 41.29 127.671312 
L 558.36 127.671312 
" style="fill:none;stroke:#b0b0b0;stroke-dasharray:1.48,0.64;stroke-dashoffset:0;stroke-width:0.4;"/>
     </g>
     <g id="text_9">
      <!-- 150 -->
      <g transform="translate(15.134063 132.744125)scale(0.14 -0.14)">
       <use xlink:href="#LiberationSansNarrow-49"/>
       <use x="45.605469" xlink:href="#LiberationSansNarrow-53"/>
       <use x="91.210938" xlink:href="#LiberationSansNarrow-48"/>
      </g>
     </g>
    </g>
    <g id="ytick_5">
     <g id="line2d_10">
      <path clip-path="url(#p957e33ae3b)" d="M 41.29 89.562388 
L 558.36 89.562388 
" style="fill:none;stroke:#b0b0b0;stroke-dasharray:1.48,0.64;stroke-dashoffset:0;stroke-width:0.4;"/>
     </g>
     <g id="text_10">
      <!-- 200 -->
      <g transform="translate(15.134063 94.6352)scale(0.14 -0.14)">
       <use xlink:href="#LiberationSansNarrow-50"/>
       <use x="45.605469" xlink:href="#LiberationSansNarrow-48"/>
       <use x="91.210938" xlink:href="#LiberationSansNarrow-48"/>
      </g>
     </g>
    </g>
    <g id="ytick_6">
     <g id="line2d_11">
      <path clip-path="url(#p957e33ae3b)" d="M 41.29 51.453463 
L 558.36 51.453463 
" style="fill:none;stroke:#b0b0b0;stroke-dasharray:1.48,0.64;stroke-dashoffset:0;stroke-width:0.4;"/>
     </g>
     <g id="text_11">
      <!-- 250 -->
      <g transform="translate(15.134063 56.526275)scale(0.14 -0.14)">
       <use xlink:href="#LiberationSansNarrow-50"/>
       <use x="45.605469" xlink:href="#LiberationSansNarrow-53"/>
       <use x="91.210938" xlink:href="#LiberationSansNarrow-48"/>
      </g>
     </g>
    </g>
   </g>
   <g id="line2d_12">
    <path clip-path="url(#p957e33ae3b)" d="M 64.793182 240.901989 
L 70.016111 240.981187 
L 75.23904 241.236669 
L 80.46197 241.538182 
L 85.684899 241.530918 
L 90.907828 241.221375 
L 96.130758 241.248049 
L 101.353687 240.929849 
L 106.576616 240.609045 
L 111.799545 241.118997 
L 117.022475 240.86958 
L 122.245404 240.866022 
L 127.468333 240.97957 
L 132.691263 241.122252 
L 137.914192 241.060692 
L 143.137121 240.90901 
L 148.360051 240.739003 
L 153.58298 240.326414 
L 158.805909 240.500965 
L 164.028838 240.664855 
L 169.251768 240.71962 
L 174.474697 240.504525 
L 179.697626 240.002858 
L 184.920556 239.715007 
L 190.143485 239.412577 
L 195.366414 239.453418 
L 200.589343 238.159151 
L 205.812273 236.869631 
L 211.035202 236.508658 
L 216.258131 237.225182 
L 221.481061 235.378317 
L 226.70399 234.682523 
L 231.926919 234.733059 
L 237.149848 232.952189 
L 242.372778 233.804257 
L 247.595707 232.083666 
L 252.818636 230.642931 
L 258.041566 229.3577 
L 263.264495 230.832785 
L 268.487424 228.637278 
L 273.710354 227.713349 
L 278.933283 229.442888 
L 284.156212 229.752528 
L 289.379141 228.713934 
L 294.602071 226.721429 
L 299.825 229.368166 
L 305.047929 233.44285 
L 310.270859 231.515092 
L 315.493788 229.834051 
L 320.716717 231.24398 
L 325.939646 231.277029 
L 331.162576 230.370576 
L 336.385505 228.55095 
L 341.608434 230.538415 
L 346.831364 229.266722 
L 352.054293 226.980292 
L 357.277222 226.698663 
L 362.500152 222.604999 
L 367.723081 219.877974 
L 372.94601 218.928969 
L 378.168939 216.159606 
L 383.391869 209.541714 
L 388.614798 212.092126 
L 393.837727 205.133504 
L 399.060657 203.37528 
L 404.283586 200.866017 
L 409.506515 201.346896 
L 414.729444 187.747982 
L 419.952374 177.210851 
L 425.175303 158.311367 
L 430.398232 136.257802 
L 435.621162 116.274158 
L 440.844091 130.678246 
L 446.06702 147.399995 
L 451.289949 169.013095 
L 456.512879 150.689274 
L 461.735808 142.791149 
L 466.958737 140.994576 
L 472.181667 129.700749 
L 477.404596 125.950276 
L 482.627525 171.424111 
L 487.850455 153.10501 
L 493.073384 142.541525 
L 498.296313 142.084982 
L 503.519242 129.499046 
L 508.742172 95.66987 
L 513.965101 78.461974 
L 519.18803 76.058724 
L 524.41096 62.457133 
L 529.633889 28.301818 
L 534.856818 42.337192 
" style="fill:none;stroke:#1f77b4;stroke-linecap:square;stroke-width:1.5;"/>
   </g>
   <g id="line2d_13">
    <path clip-path="url(#p957e33ae3b)" d="M 64.793182 240.901989 
L 70.016111 238.695714 
L 75.23904 236.489438 
L 80.46197 234.283163 
L 85.684899 232.076887 
L 90.907828 229.870611 
L 96.130758 227.664336 
L 101.353687 225.45806 
L 106.576616 223.251785 
L 111.799545 221.045509 
L 117.022475 218.839234 
L 122.245404 216.632958 
L 127.468333 214.426683 
L 132.691263 212.220407 
L 137.914192 210.014132 
L 143.137121 207.807856 
L 148.360051 205.601581 
L 153.58298 203.395305 
L 158.805909 201.18903 
L 164.028838 198.982754 
L 169.251768 196.776479 
L 174.474697 194.570203 
L 179.697626 192.363928 
L 184.920556 190.157652 
L 190.143485 187.951377 
L 195.366414 185.745101 
L 200.589343 183.538826 
L 205.812273 181.33255 
L 211.035202 179.126275 
L 216.258131 176.919999 
L 221.481061 174.713724 
L 226.70399 172.507448 
L 231.926919 170.301172 
L 237.149848 168.094897 
L 242.372778 165.888621 
L 247.595707 163.682346 
L 252.818636 161.47607 
L 258.041566 159.269795 
L 263.264495 157.063519 
L 268.487424 154.857244 
L 273.710354 152.650968 
L 278.933283 150.444693 
L 284.156212 148.238417 
L 289.379141 146.032142 
L 294.602071 143.825866 
L 299.825 141.619591 
L 305.047929 139.413315 
L 310.270859 137.20704 
L 315.493788 135.000764 
L 320.716717 132.794489 
L 325.939646 130.588213 
L 331.162576 128.381938 
L 336.385505 126.175662 
L 341.608434 123.969387 
L 346.831364 121.763111 
L 352.054293 119.556836 
L 357.277222 117.35056 
L 362.500152 115.144285 
L 367.723081 112.938009 
L 372.94601 110.731733 
L 378.168939 108.525458 
L 383.391869 106.319182 
L 388.614798 104.112907 
L 393.837727 101.906631 
L 399.060657 99.700356 
L 404.283586 97.49408 
L 409.506515 95.287805 
L 414.729444 93.081529 
L 419.952374 90.875254 
L 425.175303 88.668978 
L 430.398232 86.462703 
L 435.621162 84.256427 
L 440.844091 82.050152 
L 446.06702 79.843876 
L 451.289949 77.637601 
L 456.512879 75.431325 
L 461.735808 73.22505 
L 466.958737 71.018774 
L 472.181667 68.812499 
L 477.404596 66.606223 
L 482.627525 64.399948 
L 487.850455 62.193672 
L 493.073384 59.987397 
L 498.296313 57.781121 
L 503.519242 55.574846 
L 508.742172 53.36857 
L 513.965101 51.162294 
L 519.18803 48.956019 
L 524.41096 46.749743 
L 529.633889 44.543468 
L 534.856818 42.337192 
" style="fill:none;stroke:#000000;stroke-linecap:square;stroke-width:1.5;"/>
   </g>
  </g>
 </g>
 <defs>
  <clipPath id="p957e33ae3b">
   <rect height="234.56" width="517.07" x="41.29" y="17.64"/>
  </clipPath>
 </defs>
</svg>
