<?xml version="1.0" encoding="utf-8" standalone="no"?>
<!DOCTYPE svg PUBLIC "-//W3C//DTD SVG 1.1//EN"
  "http://www.w3.org/Graphics/SVG/1.1/DTD/svg11.dtd">
<!-- Created with matplotlib (https://matplotlib.org/) -->
<svg height="288pt" version="1.1" viewBox="0 0 576 288" width="576pt" xmlns="http://www.w3.org/2000/svg" xmlns:xlink="http://www.w3.org/1999/xlink">
 <defs>
  <style type="text/css">
*{stroke-linecap:butt;stroke-linejoin:round;}
  </style>
 </defs>
 <g id="figure_1">
  <g id="patch_1">
   <path d="M 0 288 
L 576 288 
L 576 0 
L 0 0 
z
" style="fill:#ffffff;"/>
  </g>
  <g id="axes_1">
   <g id="patch_2">
    <path d="M 59.33 252.2 
L 558.36 252.2 
L 558.36 17.64 
L 59.33 17.64 
z
" style="fill:#ffffff;"/>
   </g>
   <g id="matplotlib.axis_1">
    <g id="xtick_1">
     <g id="line2d_1">
      <path clip-path="url(#p45fd149138)" d="M 82.013182 252.2 
L 82.013182 17.64 
" style="fill:none;stroke:#b0b0b0;stroke-dasharray:1.48,0.64;stroke-dashoffset:0;stroke-width:0.4;"/>
     </g>
     <g id="text_1">
      <!-- 0.0 -->
      <defs>
       <path d="M 42.390625 34.421875 
Q 42.390625 24.515625 40.84375 17.75 
Q 39.3125 10.984375 36.640625 6.8125 
Q 33.984375 2.640625 30.390625 0.828125 
Q 26.8125 -0.984375 22.703125 -0.984375 
Q 18.609375 -0.984375 15.03125 0.828125 
Q 11.46875 2.640625 8.828125 6.78125 
Q 6.203125 10.9375 4.703125 17.703125 
Q 3.21875 24.46875 3.21875 34.421875 
Q 3.21875 44.828125 4.703125 51.640625 
Q 6.203125 58.453125 8.828125 62.5 
Q 11.46875 66.546875 15.078125 68.1875 
Q 18.703125 69.828125 22.953125 69.828125 
Q 27 69.828125 30.53125 68.1875 
Q 34.078125 66.546875 36.71875 62.5 
Q 39.359375 58.453125 40.875 51.640625 
Q 42.390625 44.828125 42.390625 34.421875 
z
M 35.0625 34.421875 
Q 35.0625 42.625 34.28125 48.0625 
Q 33.5 53.515625 31.9375 56.765625 
Q 30.375 60.015625 28.09375 61.359375 
Q 25.828125 62.703125 22.953125 62.703125 
Q 19.921875 62.703125 17.578125 61.328125 
Q 15.234375 59.96875 13.671875 56.71875 
Q 12.109375 53.46875 11.296875 48.015625 
Q 10.5 42.578125 10.5 34.421875 
Q 10.5 26.515625 11.296875 21.09375 
Q 12.109375 15.671875 13.6875 12.375 
Q 15.28125 9.078125 17.578125 7.640625 
Q 19.875 6.203125 22.796875 6.203125 
Q 25.640625 6.203125 27.90625 7.640625 
Q 30.171875 9.078125 31.75 12.375 
Q 33.34375 15.671875 34.203125 21.09375 
Q 35.0625 26.515625 35.0625 34.421875 
z
" id="LiberationSansNarrow-48"/>
       <path d="M 7.46875 0 
L 7.46875 10.6875 
L 15.328125 10.6875 
L 15.328125 0 
z
" id="LiberationSansNarrow-46"/>
      </defs>
      <g transform="translate(74.032088 269.345625)scale(0.14 -0.14)">
       <use xlink:href="#LiberationSansNarrow-48"/>
       <use x="45.605469" xlink:href="#LiberationSansNarrow-46"/>
       <use x="68.408203" xlink:href="#LiberationSansNarrow-48"/>
      </g>
     </g>
    </g>
    <g id="xtick_2">
     <g id="line2d_2">
      <path clip-path="url(#p45fd149138)" d="M 172.745909 252.2 
L 172.745909 17.64 
" style="fill:none;stroke:#b0b0b0;stroke-dasharray:1.48,0.64;stroke-dashoffset:0;stroke-width:0.4;"/>
     </g>
     <g id="text_2">
      <!-- 0.2 -->
      <defs>
       <path d="M 4.109375 0 
L 4.109375 6.203125 
Q 6.15625 11.921875 9.109375 16.28125 
Q 12.0625 20.65625 15.3125 24.1875 
Q 18.5625 27.734375 21.734375 30.765625 
Q 24.90625 33.796875 27.46875 36.8125 
Q 30.03125 39.84375 31.609375 43.15625 
Q 33.203125 46.484375 33.203125 50.6875 
Q 33.203125 53.609375 32.46875 55.828125 
Q 31.734375 58.0625 30.390625 59.5625 
Q 29.046875 61.078125 27.140625 61.828125 
Q 25.25 62.59375 22.90625 62.59375 
Q 20.75 62.59375 18.84375 61.859375 
Q 16.9375 61.140625 15.453125 59.671875 
Q 13.96875 58.203125 13.03125 56.03125 
Q 12.109375 53.859375 11.8125 50.984375 
L 4.4375 51.8125 
Q 4.78125 55.515625 6.125 58.78125 
Q 7.46875 62.0625 9.78125 64.53125 
Q 12.109375 67 15.359375 68.40625 
Q 18.609375 69.828125 22.90625 69.828125 
Q 27.09375 69.828125 30.390625 68.609375 
Q 33.6875 67.390625 35.9375 64.984375 
Q 38.1875 62.59375 39.40625 59.078125 
Q 40.625 55.5625 40.625 50.984375 
Q 40.625 47.515625 39.59375 44.390625 
Q 38.578125 41.265625 36.859375 38.421875 
Q 35.15625 35.59375 32.90625 32.953125 
Q 30.671875 30.328125 28.21875 27.828125 
L 23.296875 22.859375 
Q 20.796875 20.359375 18.625 17.859375 
Q 16.453125 15.375 14.734375 12.8125 
Q 13.03125 10.25 12.0625 7.46875 
L 41.5 7.46875 
L 41.5 0 
z
" id="LiberationSansNarrow-50"/>
      </defs>
      <g transform="translate(164.764815 269.345625)scale(0.14 -0.14)">
       <use xlink:href="#LiberationSansNarrow-48"/>
       <use x="45.605469" xlink:href="#LiberationSansNarrow-46"/>
       <use x="68.408203" xlink:href="#LiberationSansNarrow-50"/>
      </g>
     </g>
    </g>
    <g id="xtick_3">
     <g id="line2d_3">
      <path clip-path="url(#p45fd149138)" d="M 263.478636 252.2 
L 263.478636 17.64 
" style="fill:none;stroke:#b0b0b0;stroke-dasharray:1.48,0.64;stroke-dashoffset:0;stroke-width:0.4;"/>
     </g>
     <g id="text_3">
      <!-- 0.4 -->
      <defs>
       <path d="M 35.25 15.578125 
L 35.25 0 
L 28.46875 0 
L 28.46875 15.578125 
L 1.90625 15.578125 
L 1.90625 22.40625 
L 27.6875 68.796875 
L 35.25 68.796875 
L 35.25 22.515625 
L 43.21875 22.515625 
L 43.21875 15.578125 
z
M 28.46875 58.890625 
Q 28.375 58.640625 28.03125 57.90625 
L 27.34375 56.34375 
L 26.5625 54.59375 
Q 26.125 53.65625 25.78125 53.078125 
L 11.328125 27.09375 
Q 11.140625 26.703125 10.75 26.078125 
L 9.96875 24.8125 
L 9.1875 23.484375 
Q 8.796875 22.859375 8.546875 22.515625 
L 28.46875 22.515625 
z
" id="LiberationSansNarrow-52"/>
      </defs>
      <g transform="translate(255.497543 269.345625)scale(0.14 -0.14)">
       <use xlink:href="#LiberationSansNarrow-48"/>
       <use x="45.605469" xlink:href="#LiberationSansNarrow-46"/>
       <use x="68.408203" xlink:href="#LiberationSansNarrow-52"/>
      </g>
     </g>
    </g>
    <g id="xtick_4">
     <g id="line2d_4">
      <path clip-path="url(#p45fd149138)" d="M 354.211364 252.2 
L 354.211364 17.64 
" style="fill:none;stroke:#b0b0b0;stroke-dasharray:1.48,0.64;stroke-dashoffset:0;stroke-width:0.4;"/>
     </g>
     <g id="text_4">
      <!-- 0.6 -->
      <defs>
       <path d="M 42 22.515625 
Q 42 17.328125 40.828125 13 
Q 39.65625 8.6875 37.359375 5.578125 
Q 35.0625 2.484375 31.640625 0.75 
Q 28.21875 -0.984375 23.78125 -0.984375 
Q 18.84375 -0.984375 15.15625 1.3125 
Q 11.46875 3.609375 9.03125 7.921875 
Q 6.59375 12.25 5.375 18.53125 
Q 4.15625 24.8125 4.15625 32.8125 
Q 4.15625 42 5.546875 48.921875 
Q 6.9375 55.859375 9.515625 60.5 
Q 12.109375 65.140625 15.859375 67.484375 
Q 19.625 69.828125 24.359375 69.828125 
Q 27.25 69.828125 29.765625 69.09375 
Q 32.28125 68.359375 34.328125 66.71875 
Q 36.375 65.09375 37.9375 62.40625 
Q 39.5 59.71875 40.4375 55.8125 
L 33.546875 54.296875 
Q 32.421875 58.734375 29.953125 60.71875 
Q 27.484375 62.703125 24.265625 62.703125 
Q 21.296875 62.703125 18.890625 60.984375 
Q 16.5 59.28125 14.8125 55.875 
Q 13.140625 52.484375 12.234375 47.359375 
Q 11.328125 42.234375 11.328125 35.40625 
Q 13.28125 39.84375 16.84375 42.15625 
Q 20.40625 44.484375 25.046875 44.484375 
Q 28.90625 44.484375 32 42.96875 
Q 35.109375 41.453125 37.328125 38.59375 
Q 39.546875 35.75 40.765625 31.671875 
Q 42 27.59375 42 22.515625 
z
M 34.671875 22.125 
Q 34.671875 25.6875 33.953125 28.5625 
Q 33.25 31.453125 31.8125 33.46875 
Q 30.375 35.5 28.25 36.59375 
Q 26.125 37.703125 23.296875 37.703125 
Q 21.34375 37.703125 19.328125 36.984375 
Q 17.328125 36.28125 15.71875 34.6875 
Q 14.109375 33.109375 13.078125 30.515625 
Q 12.0625 27.9375 12.0625 24.21875 
Q 12.0625 20.40625 12.859375 17.109375 
Q 13.671875 13.8125 15.15625 11.375 
Q 16.65625 8.9375 18.78125 7.515625 
Q 20.90625 6.109375 23.53125 6.109375 
Q 26.125 6.109375 28.203125 7.203125 
Q 30.28125 8.296875 31.71875 10.375 
Q 33.15625 12.453125 33.90625 15.421875 
Q 34.671875 18.40625 34.671875 22.125 
z
" id="LiberationSansNarrow-54"/>
      </defs>
      <g transform="translate(346.23027 269.345625)scale(0.14 -0.14)">
       <use xlink:href="#LiberationSansNarrow-48"/>
       <use x="45.605469" xlink:href="#LiberationSansNarrow-46"/>
       <use x="68.408203" xlink:href="#LiberationSansNarrow-54"/>
      </g>
     </g>
    </g>
    <g id="xtick_5">
     <g id="line2d_5">
      <path clip-path="url(#p45fd149138)" d="M 444.944091 252.2 
L 444.944091 17.64 
" style="fill:none;stroke:#b0b0b0;stroke-dasharray:1.48,0.64;stroke-dashoffset:0;stroke-width:0.4;"/>
     </g>
     <g id="text_5">
      <!-- 0.8 -->
      <defs>
       <path d="M 42.046875 19.1875 
Q 42.046875 14.796875 40.890625 11.109375 
Q 39.75 7.421875 37.40625 4.734375 
Q 35.0625 2.046875 31.421875 0.53125 
Q 27.78125 -0.984375 22.796875 -0.984375 
Q 17.828125 -0.984375 14.203125 0.53125 
Q 10.59375 2.046875 8.21875 4.703125 
Q 5.859375 7.375 4.703125 11.0625 
Q 3.5625 14.75 3.5625 19.09375 
Q 3.5625 22.859375 4.515625 25.78125 
Q 5.46875 28.71875 7.03125 30.828125 
Q 8.59375 32.953125 10.609375 34.25 
Q 12.640625 35.546875 14.796875 35.984375 
L 14.796875 36.1875 
Q 12.453125 36.859375 10.59375 38.375 
Q 8.734375 39.890625 7.46875 42.015625 
Q 6.203125 44.140625 5.546875 46.71875 
Q 4.890625 49.3125 4.890625 52.203125 
Q 4.890625 55.8125 6.03125 59 
Q 7.171875 62.203125 9.421875 64.625 
Q 11.671875 67.046875 14.984375 68.4375 
Q 18.3125 69.828125 22.65625 69.828125 
Q 27.25 69.828125 30.640625 68.40625 
Q 34.03125 67 36.25 64.578125 
Q 38.484375 62.15625 39.546875 58.9375 
Q 40.625 55.71875 40.625 52.09375 
Q 40.625 49.265625 39.96875 46.671875 
Q 39.3125 44.09375 38.0625 41.96875 
Q 36.8125 39.84375 34.9375 38.34375 
Q 33.0625 36.859375 30.609375 36.28125 
L 30.609375 36.078125 
Q 33.0625 35.59375 35.15625 34.296875 
Q 37.25 33.015625 38.765625 30.890625 
Q 40.28125 28.765625 41.15625 25.828125 
Q 42.046875 22.90625 42.046875 19.1875 
z
M 33.15625 51.609375 
Q 33.15625 54.203125 32.609375 56.34375 
Q 32.078125 58.5 30.828125 60.03125 
Q 29.59375 61.578125 27.59375 62.421875 
Q 25.59375 63.28125 22.65625 63.28125 
Q 19.828125 63.28125 17.875 62.421875 
Q 15.921875 61.578125 14.640625 60.03125 
Q 13.375 58.5 12.8125 56.34375 
Q 12.25 54.203125 12.25 51.609375 
Q 12.25 49.5625 12.6875 47.40625 
Q 13.140625 45.265625 14.3125 43.5 
Q 15.484375 41.75 17.5 40.625 
Q 19.53125 39.5 22.75 39.5 
Q 26.171875 39.5 28.21875 40.625 
Q 30.28125 41.75 31.375 43.5 
Q 32.46875 45.265625 32.8125 47.40625 
Q 33.15625 49.5625 33.15625 51.609375 
z
M 34.578125 20.015625 
Q 34.578125 22.515625 34.015625 24.828125 
Q 33.453125 27.15625 32.078125 28.9375 
Q 30.71875 30.71875 28.421875 31.8125 
Q 26.125 32.90625 22.65625 32.90625 
Q 19.484375 32.90625 17.265625 31.8125 
Q 15.046875 30.71875 13.671875 28.90625 
Q 12.3125 27.09375 11.671875 24.71875 
Q 11.03125 22.359375 11.03125 19.828125 
Q 11.03125 16.65625 11.671875 14.03125 
Q 12.3125 11.421875 13.703125 9.546875 
Q 15.09375 7.671875 17.375 6.640625 
Q 19.671875 5.609375 22.90625 5.609375 
Q 26.171875 5.609375 28.421875 6.640625 
Q 30.671875 7.671875 32.03125 9.546875 
Q 33.40625 11.421875 33.984375 14.078125 
Q 34.578125 16.75 34.578125 20.015625 
z
" id="LiberationSansNarrow-56"/>
      </defs>
      <g transform="translate(436.962997 269.345625)scale(0.14 -0.14)">
       <use xlink:href="#LiberationSansNarrow-48"/>
       <use x="45.605469" xlink:href="#LiberationSansNarrow-46"/>
       <use x="68.408203" xlink:href="#LiberationSansNarrow-56"/>
      </g>
     </g>
    </g>
    <g id="xtick_6">
     <g id="line2d_6">
      <path clip-path="url(#p45fd149138)" d="M 535.676818 252.2 
L 535.676818 17.64 
" style="fill:none;stroke:#b0b0b0;stroke-dasharray:1.48,0.64;stroke-dashoffset:0;stroke-width:0.4;"/>
     </g>
     <g id="text_6">
      <!-- 1.0 -->
      <defs>
       <path d="M 6.25 0 
L 6.25 7.46875 
L 20.609375 7.46875 
L 20.609375 60.40625 
L 7.90625 49.3125 
L 7.90625 57.625 
L 21.234375 68.796875 
L 27.875 68.796875 
L 27.875 7.46875 
L 41.609375 7.46875 
L 41.609375 0 
z
" id="LiberationSansNarrow-49"/>
      </defs>
      <g transform="translate(527.695724 269.345625)scale(0.14 -0.14)">
       <use xlink:href="#LiberationSansNarrow-49"/>
       <use x="45.605469" xlink:href="#LiberationSansNarrow-46"/>
       <use x="68.408203" xlink:href="#LiberationSansNarrow-48"/>
      </g>
     </g>
    </g>
   </g>
   <g id="matplotlib.axis_2">
    <g id="ytick_1">
     <g id="line2d_7">
      <path clip-path="url(#p45fd149138)" d="M 59.33 231.164236 
L 558.36 231.164236 
" style="fill:none;stroke:#b0b0b0;stroke-dasharray:1.48,0.64;stroke-dashoffset:0;stroke-width:0.4;"/>
     </g>
     <g id="text_7">
      <!-- −50 -->
      <defs>
       <path d="M 4.046875 29.6875 
L 4.046875 36.8125 
L 43.890625 36.8125 
L 43.890625 29.6875 
z
" id="LiberationSansNarrow-8722"/>
       <path d="M 42.140625 22.40625 
Q 42.140625 17.234375 40.859375 12.9375 
Q 39.59375 8.640625 37.078125 5.53125 
Q 34.578125 2.4375 30.8125 0.71875 
Q 27.046875 -0.984375 22.125 -0.984375 
Q 17.671875 -0.984375 14.375 0.28125 
Q 11.078125 1.5625 8.8125 3.78125 
Q 6.546875 6 5.203125 8.984375 
Q 3.859375 11.96875 3.265625 15.375 
L 10.546875 16.40625 
Q 10.984375 14.453125 11.78125 12.625 
Q 12.59375 10.796875 13.984375 9.34375 
Q 15.375 7.90625 17.40625 7.046875 
Q 19.4375 6.203125 22.3125 6.203125 
Q 25.09375 6.203125 27.390625 7.25 
Q 29.6875 8.296875 31.296875 10.34375 
Q 32.90625 12.40625 33.78125 15.375 
Q 34.671875 18.359375 34.671875 22.21875 
Q 34.671875 25.390625 33.84375 28.046875 
Q 33.015625 30.71875 31.453125 32.640625 
Q 29.890625 34.578125 27.609375 35.640625 
Q 25.34375 36.71875 22.46875 36.71875 
Q 20.65625 36.71875 19.140625 36.328125 
Q 17.625 35.9375 16.328125 35.25 
Q 15.046875 34.578125 13.96875 33.671875 
Q 12.890625 32.765625 11.96875 31.78125 
L 4.9375 31.78125 
L 6.78125 68.796875 
L 38.875 68.796875 
L 38.875 61.328125 
L 13.375 61.328125 
L 12.3125 39.5 
Q 14.203125 41.3125 17.078125 42.59375 
Q 19.96875 43.890625 23.921875 43.890625 
Q 28.125 43.890625 31.484375 42.328125 
Q 34.859375 40.765625 37.21875 37.90625 
Q 39.59375 35.0625 40.859375 31.109375 
Q 42.140625 27.15625 42.140625 22.40625 
z
" id="LiberationSansNarrow-53"/>
      </defs>
      <g transform="translate(32.8525 236.237049)scale(0.14 -0.14)">
       <use xlink:href="#LiberationSansNarrow-8722"/>
       <use x="47.900391" xlink:href="#LiberationSansNarrow-53"/>
       <use x="93.505859" xlink:href="#LiberationSansNarrow-48"/>
      </g>
     </g>
    </g>
    <g id="ytick_2">
     <g id="line2d_8">
      <path clip-path="url(#p45fd149138)" d="M 59.33 176.984312 
L 558.36 176.984312 
" style="fill:none;stroke:#b0b0b0;stroke-dasharray:1.48,0.64;stroke-dashoffset:0;stroke-width:0.4;"/>
     </g>
     <g id="text_8">
      <!-- 0 -->
      <g transform="translate(45.944688 182.057124)scale(0.14 -0.14)">
       <use xlink:href="#LiberationSansNarrow-48"/>
      </g>
     </g>
    </g>
    <g id="ytick_3">
     <g id="line2d_9">
      <path clip-path="url(#p45fd149138)" d="M 59.33 122.804387 
L 558.36 122.804387 
" style="fill:none;stroke:#b0b0b0;stroke-dasharray:1.48,0.64;stroke-dashoffset:0;stroke-width:0.4;"/>
     </g>
     <g id="text_9">
      <!-- 50 -->
      <g transform="translate(39.559375 127.8772)scale(0.14 -0.14)">
       <use xlink:href="#LiberationSansNarrow-53"/>
       <use x="45.605469" xlink:href="#LiberationSansNarrow-48"/>
      </g>
     </g>
    </g>
    <g id="ytick_4">
     <g id="line2d_10">
      <path clip-path="url(#p45fd149138)" d="M 59.33 68.624463 
L 558.36 68.624463 
" style="fill:none;stroke:#b0b0b0;stroke-dasharray:1.48,0.64;stroke-dashoffset:0;stroke-width:0.4;"/>
     </g>
     <g id="text_10">
      <!-- 100 -->
      <g transform="translate(33.174062 73.697275)scale(0.14 -0.14)">
       <use xlink:href="#LiberationSansNarrow-49"/>
       <use x="45.605469" xlink:href="#LiberationSansNarrow-48"/>
       <use x="91.210938" xlink:href="#LiberationSansNarrow-48"/>
      </g>
     </g>
    </g>
    <g id="text_11">
     <!-- %г -->
     <defs>
      <path d="M 69.96875 21.1875 
Q 69.96875 15.09375 68.9375 10.90625 
Q 67.921875 6.734375 66.1875 4.171875 
Q 64.453125 1.609375 62.125 0.5 
Q 59.8125 -0.59375 57.171875 -0.59375 
Q 54.546875 -0.59375 52.21875 0.5 
Q 49.90625 1.609375 48.21875 4.140625 
Q 46.53125 6.6875 45.546875 10.859375 
Q 44.578125 15.046875 44.578125 21.1875 
Q 44.578125 27.6875 45.53125 31.9375 
Q 46.484375 36.1875 48.1875 38.703125 
Q 49.90625 41.21875 52.25 42.21875 
Q 54.59375 43.21875 57.328125 43.21875 
Q 59.96875 43.21875 62.25 42.21875 
Q 64.546875 41.21875 66.25 38.703125 
Q 67.96875 36.1875 68.96875 31.9375 
Q 69.96875 27.6875 69.96875 21.1875 
z
M 21.09375 0 
L 14.890625 0 
L 51.8125 68.796875 
L 58.109375 68.796875 
z
M 15.765625 69.390625 
Q 18.3125 69.390625 20.609375 68.390625 
Q 22.90625 67.390625 24.609375 64.890625 
Q 26.3125 62.40625 27.3125 58.203125 
Q 28.328125 54 28.328125 47.609375 
Q 28.328125 41.453125 27.3125 37.25 
Q 26.3125 33.0625 24.609375 30.4375 
Q 22.90625 27.828125 20.578125 26.703125 
Q 18.265625 25.59375 15.625 25.59375 
Q 12.9375 25.59375 10.609375 26.703125 
Q 8.296875 27.828125 6.59375 30.421875 
Q 4.890625 33.015625 3.90625 37.203125 
Q 2.9375 41.40625 2.9375 47.609375 
Q 2.9375 54 3.90625 58.203125 
Q 4.890625 62.40625 6.609375 64.890625 
Q 8.34375 67.390625 10.6875 68.390625 
Q 13.03125 69.390625 15.765625 69.390625 
z
M 64.0625 21.1875 
Q 64.0625 26.03125 63.625 29.21875 
Q 63.1875 32.421875 62.328125 34.328125 
Q 61.46875 36.234375 60.203125 37.015625 
Q 58.9375 37.796875 57.328125 37.796875 
Q 55.671875 37.796875 54.375 36.984375 
Q 53.078125 36.1875 52.1875 34.28125 
Q 51.3125 32.375 50.875 29.171875 
Q 50.4375 25.984375 50.4375 21.1875 
Q 50.4375 16.546875 50.90625 13.421875 
Q 51.375 10.296875 52.21875 8.375 
Q 53.078125 6.453125 54.34375 5.609375 
Q 55.609375 4.78125 57.234375 4.78125 
Q 58.796875 4.78125 60.0625 5.609375 
Q 61.328125 6.453125 62.203125 8.375 
Q 63.09375 10.296875 63.578125 13.421875 
Q 64.0625 16.546875 64.0625 21.1875 
z
M 22.40625 47.609375 
Q 22.40625 52.390625 21.96875 55.5625 
Q 21.53125 58.734375 20.703125 60.640625 
Q 19.875 62.546875 18.625 63.328125 
Q 17.390625 64.109375 15.765625 64.109375 
Q 14.0625 64.109375 12.734375 63.296875 
Q 11.421875 62.5 10.546875 60.59375 
Q 9.671875 58.6875 9.234375 55.515625 
Q 8.796875 52.34375 8.796875 47.609375 
Q 8.796875 42.96875 9.25 39.796875 
Q 9.71875 36.625 10.5625 34.6875 
Q 11.421875 32.765625 12.71875 31.9375 
Q 14.015625 31.109375 15.671875 31.109375 
Q 17.1875 31.109375 18.421875 31.9375 
Q 19.671875 32.765625 20.546875 34.6875 
Q 21.4375 36.625 21.921875 39.796875 
Q 22.40625 42.96875 22.40625 47.609375 
z
" id="LiberationSansNarrow-37"/>
      <path d="M 27.546875 52.828125 
L 27.546875 46.4375 
L 12.890625 46.4375 
L 12.890625 0 
L 5.71875 0 
L 5.71875 52.828125 
z
" id="LiberationSansNarrow-1075"/>
     </defs>
     <g transform="translate(25.9475 142.119063)rotate(-90)scale(0.14 -0.14)">
      <use xlink:href="#LiberationSansNarrow-37"/>
      <use x="72.900391" xlink:href="#LiberationSansNarrow-1075"/>
     </g>
    </g>
   </g>
   <g id="line2d_11">
    <path clip-path="url(#p45fd149138)" d="M 82.013182 241.538182 
L 83.048944 224.944469 
L 83.566824 223.307519 
L 83.825765 222.545101 
L 84.084705 220.009767 
L 84.861527 217.02259 
L 85.120467 217.003035 
L 85.379407 216.548157 
L 85.638348 215.565672 
L 85.897288 215.075779 
L 86.156229 214.883539 
L 86.415169 214.876253 
L 86.67411 214.657098 
L 87.19199 214.533427 
L 87.709871 214.311456 
L 87.968812 214.29907 
L 88.745633 213.322964 
L 89.004573 213.079687 
L 89.263514 212.374011 
L 89.522454 212.227582 
L 90.040335 210.919429 
L 90.299276 210.887481 
L 90.558216 210.290898 
L 90.817156 208.859293 
L 91.593978 208.400539 
L 91.852918 207.361733 
L 92.62974 207.240319 
L 92.88868 206.907543 
L 93.14762 206.875692 
L 93.924442 206.076175 
L 94.183382 205.900175 
L 94.701263 205.825854 
L 95.478084 205.408268 
L 95.737025 204.932195 
L 95.995965 203.973217 
L 96.513846 203.926246 
L 96.772786 203.497947 
L 97.290667 203.115479 
L 98.067489 203.096488 
L 98.326429 202.656317 
L 98.84431 202.353037 
L 99.10325 202.052369 
L 100.397952 201.647314 
L 100.656893 201.395293 
L 100.915833 201.387892 
L 101.433714 200.971887 
L 104.79994 200.107078 
L 105.05888 200.060409 
L 105.317821 199.526832 
L 106.353582 199.212495 
L 106.612523 199.01995 
L 108.684046 198.727041 
L 109.460868 198.496303 
L 109.978748 198.368728 
L 110.496629 198.281587 
L 110.75557 198.069628 
L 111.532391 197.807059 
L 113.862855 196.911141 
L 114.121795 196.499335 
L 114.639676 196.430249 
L 115.416498 195.92565 
L 118.782723 195.241629 
L 120.595306 194.830751 
L 120.854247 194.290837 
L 121.631068 194.090975 
L 122.66683 193.956083 
L 122.92577 193.812951 
L 124.220472 193.728926 
L 124.738353 193.582538 
L 125.515174 193.349557 
L 127.327757 193.085312 
L 128.104579 192.791689 
L 129.399281 192.54457 
L 129.658221 192.247461 
L 132.247626 191.364919 
L 135.354911 191.136768 
L 137.944315 190.519025 
L 139.239017 190.361759 
L 140.533719 190.199169 
L 140.79266 190.184119 
L 141.0516 190.031784 
L 142.346302 189.858983 
L 143.123124 189.554346 
L 144.158885 189.431977 
L 144.935707 189.299801 
L 145.971468 189.199947 
L 147.00723 188.773444 
L 148.560873 188.653951 
L 150.114515 188.411956 
L 150.373456 188.335546 
L 150.632396 188.137634 
L 151.668158 187.887978 
L 152.444979 187.599748 
L 153.739681 187.419308 
L 155.034384 187.190747 
L 157.364847 187.005982 
L 157.882728 186.857437 
L 159.436371 186.688617 
L 160.472133 186.429421 
L 160.731073 186.283043 
L 160.990013 186.278674 
L 161.507894 186.139351 
L 165.13306 185.445542 
L 165.650941 185.337072 
L 165.909882 185.33192 
L 166.427763 185.096501 
L 167.722465 184.996139 
L 168.499286 184.849622 
L 169.276107 184.778962 
L 171.08869 184.548005 
L 171.606571 184.41597 
L 172.383392 184.267648 
L 172.642333 184.265901 
L 172.901273 183.997354 
L 174.972797 183.782143 
L 178.856903 183.228758 
L 179.633725 183.169162 
L 180.410546 182.939596 
L 181.446308 182.760049 
L 183.517831 182.586247 
L 184.035712 182.377131 
L 186.107235 182.201278 
L 186.884057 181.982063 
L 190.250282 181.593793 
L 191.027104 181.448053 
L 194.393329 181.057708 
L 196.982733 180.703273 
L 197.241674 180.701708 
L 197.500614 180.535077 
L 198.018495 180.526115 
L 198.277436 180.363867 
L 200.6079 180.071103 
L 201.384721 179.980608 
L 203.974125 179.771798 
L 204.492006 179.750633 
L 205.009887 179.590112 
L 207.599291 179.410066 
L 208.893993 179.138223 
L 209.411874 179.016593 
L 209.929755 178.936664 
L 213.03704 178.487024 
L 214.849623 178.311684 
L 225.725121 176.869198 
L 227.278764 176.741421 
L 228.573466 176.607981 
L 228.832407 176.479482 
L 230.127109 176.402763 
L 230.64499 176.252302 
L 232.198632 176.158864 
L 234.011215 175.959862 
L 234.788037 175.878656 
L 235.305917 175.798823 
L 236.082739 175.760847 
L 236.60062 175.576706 
L 238.931083 175.404803 
L 239.448964 175.28971 
L 240.225786 175.188712 
L 242.81519 174.978972 
L 243.850952 174.884607 
L 244.886713 174.840537 
L 246.181416 174.733772 
L 247.217177 174.558952 
L 247.993999 174.522267 
L 248.511879 174.267127 
L 251.619165 173.837527 
L 256.797973 173.447855 
L 257.315854 173.287789 
L 258.610556 173.171685 
L 259.646318 173.056236 
L 261.458901 172.923779 
L 264.566186 172.542044 
L 266.63771 172.373795 
L 267.15559 172.245302 
L 276.477446 171.471147 
L 277.254267 171.411757 
L 279.843672 171.297475 
L 280.361553 171.187427 
L 280.879433 171.097254 
L 281.397314 170.986408 
L 282.692016 170.866021 
L 283.209897 170.787231 
L 287.870825 170.363544 
L 288.647646 170.200054 
L 290.201289 170.033264 
L 290.71917 169.948106 
L 293.826455 169.658363 
L 294.862217 169.536232 
L 298.487383 169.33472 
L 305.737715 168.72507 
L 306.255596 168.599277 
L 315.318511 167.810315 
L 318.943677 167.603317 
L 322.827783 167.160706 
L 323.345664 167.057394 
L 325.417188 166.940251 
L 328.524473 166.68663 
L 329.042354 166.506168 
L 330.337056 166.361133 
L 330.854937 166.213865 
L 334.480103 165.991568 
L 335.256924 165.886537 
L 337.587388 165.773127 
L 339.141031 165.600797 
L 340.694673 165.50505 
L 341.471494 165.44455 
L 342.766197 165.293158 
L 343.284077 165.202675 
L 372.803287 162.228376 
L 375.133751 162.096928 
L 381.08938 161.299063 
L 382.643023 161.234022 
L 383.419844 161.106851 
L 384.714546 160.981534 
L 388.080772 160.659648 
L 389.375474 160.520814 
L 393.777462 160.009146 
L 395.331104 159.717287 
L 395.848985 159.648178 
L 397.143687 159.4317 
L 399.215211 159.298663 
L 399.733092 159.200636 
L 401.027794 159.038471 
L 404.135079 158.673147 
L 405.947662 158.372443 
L 407.242364 158.276226 
L 410.090709 158.0097 
L 410.86753 157.883237 
L 412.939054 157.669603 
L 413.456934 157.522207 
L 415.010577 157.379318 
L 417.0821 157.162166 
L 417.341041 157.129449 
L 417.599981 156.971789 
L 418.894683 156.817272 
L 419.671505 156.762107 
L 420.189386 156.675905 
L 420.707267 156.544401 
L 422.77879 156.355828 
L 423.296671 156.192603 
L 424.850313 156.062123 
L 426.921837 155.714426 
L 428.475479 155.58135 
L 429.770182 155.460716 
L 430.288062 155.383204 
L 437.797335 154.451986 
L 438.315216 154.392386 
L 438.833097 154.197379 
L 440.386739 154.000892 
L 441.422501 153.865502 
L 445.306608 153.270773 
L 445.824488 152.985046 
L 449.190714 152.532358 
L 449.967535 152.414756 
L 451.003297 152.339962 
L 451.521178 152.222146 
L 453.07482 152.155171 
L 453.851642 151.933199 
L 454.369523 151.807108 
L 454.887403 151.598366 
L 456.441046 151.499436 
L 457.735748 151.305021 
L 463.173497 150.305795 
L 463.950319 150.057545 
L 464.72714 149.955043 
L 465.245021 149.843933 
L 466.539723 149.684127 
L 467.316544 149.353799 
L 468.352306 149.194231 
L 470.423829 148.928792 
L 470.94171 148.764885 
L 471.977472 148.699326 
L 472.495353 148.621607 
L 473.272174 148.502741 
L 475.343698 148.148212 
L 475.861578 147.929347 
L 476.379459 147.927443 
L 476.6384 147.771189 
L 477.674161 147.627551 
L 478.709923 147.428411 
L 480.522506 146.633613 
L 480.781447 146.626555 
L 481.299328 146.463301 
L 481.817208 146.305231 
L 482.59403 146.221748 
L 483.111911 146.083072 
L 485.442374 145.697982 
L 486.219196 145.361086 
L 486.996017 145.156369 
L 487.772838 144.975911 
L 488.8086 144.794014 
L 489.326481 144.551433 
L 489.585421 144.522902 
L 489.844362 144.340285 
L 491.139064 144.064148 
L 492.174826 143.754622 
L 492.692707 143.649664 
L 493.728468 143.329992 
L 494.50529 143.164731 
L 495.02317 142.929619 
L 498.130456 142.099802 
L 498.648336 142.023127 
L 500.460919 141.899272 
L 500.9788 141.779763 
L 501.237741 141.77035 
L 501.755622 141.582258 
L 502.532443 141.514814 
L 503.309264 141.182829 
L 504.345026 141.067083 
L 505.121847 140.797084 
L 505.380788 140.727918 
L 505.898669 140.221563 
L 506.157609 139.80948 
L 507.193371 139.622058 
L 507.970192 138.877879 
L 508.488073 138.82481 
L 508.747013 138.572117 
L 510.041715 138.213849 
L 510.300656 138.165565 
L 511.595358 137.474684 
L 511.854298 137.405618 
L 512.113239 137.037091 
L 512.89006 136.716295 
L 513.149001 136.367672 
L 513.407941 136.210255 
L 513.666881 136.209666 
L 514.184762 135.888894 
L 514.702643 135.825574 
L 515.479465 135.57431 
L 516.515226 135.344185 
L 516.774167 135.326276 
L 517.033107 135.12179 
L 517.809928 135.006308 
L 518.068869 134.471705 
L 518.58675 134.407125 
L 518.84569 134.229173 
L 519.104631 133.865607 
L 523.506618 131.948403 
L 524.283439 130.938112 
L 524.54238 130.380017 
L 524.80132 130.30578 
L 525.319201 129.647114 
L 525.837082 129.26607 
L 526.872844 128.876267 
L 527.390724 128.262302 
L 528.167546 127.705416 
L 528.685427 127.500387 
L 528.944367 127.446604 
L 529.203307 126.320898 
L 529.980129 125.673656 
L 530.239069 124.326507 
L 530.75695 124.019095 
L 531.274831 122.25794 
L 531.533771 119.680198 
L 531.792712 119.333928 
L 532.051652 118.684183 
L 532.310593 118.520522 
L 532.569533 116.950598 
L 533.087414 115.815478 
L 533.346354 114.196878 
L 533.864235 113.095106 
L 534.899997 92.434045 
L 535.158937 90.602492 
L 535.676818 28.301818 
L 535.676818 28.301818 
" style="fill:none;stroke:#1f77b4;stroke-linecap:square;stroke-width:1.5;"/>
   </g>
   <g id="line2d_12">
    <path clip-path="url(#p45fd149138)" d="M 82.272122 232.437868 
L 82.790003 226.022733 
L 83.307884 222.82415 
L 84.084705 219.736299 
L 84.861527 217.554611 
L 85.897288 215.351823 
L 87.19199 213.232405 
L 88.486693 211.532718 
L 90.040335 209.843667 
L 91.852918 208.195182 
L 93.924442 206.600206 
L 96.513846 204.904899 
L 99.362191 203.307904 
L 102.728416 201.675913 
L 106.612523 200.039296 
L 111.273451 198.326156 
L 116.7112 196.57735 
L 122.92577 194.817819 
L 130.176102 193.000312 
L 138.721136 191.096407 
L 148.560873 189.137975 
L 159.954252 187.09963 
L 173.419154 184.922609 
L 189.214521 182.601043 
L 207.858232 180.091163 
L 230.386049 177.288912 
L 258.869497 173.979528 
L 301.076787 169.32386 
L 367.624478 161.977843 
L 396.366866 158.567766 
L 418.635743 155.709083 
L 436.761573 153.167157 
L 452.039059 150.807297 
L 464.98608 148.587447 
L 475.861578 146.505122 
L 485.183434 144.50082 
L 493.210587 142.549938 
L 499.943039 140.691031 
L 505.639728 138.897712 
L 510.559596 137.122522 
L 514.702643 135.399971 
L 518.327809 133.651555 
L 521.435094 131.896897 
L 524.024499 130.173267 
L 526.096022 128.545439 
L 527.908605 126.854946 
L 529.462248 125.111942 
L 530.75695 123.343436 
L 531.792712 121.607636 
L 532.828473 119.404848 
L 533.605295 117.22316 
L 534.123176 115.315554 
L 534.641056 112.719179 
L 535.158937 108.500873 
L 535.417878 104.521591 
L 535.417878 104.521591 
" style="fill:none;stroke:#ff7f0e;stroke-linecap:square;stroke-width:1.5;"/>
   </g>
   <g id="legend_1">
    <g id="patch_3">
     <path d="M 69.13 68.94125 
L 328.420937 68.94125 
Q 331.220937 68.94125 331.220937 66.14125 
L 331.220937 27.44 
Q 331.220937 24.64 328.420937 24.64 
L 69.13 24.64 
Q 66.33 24.64 66.33 27.44 
L 66.33 66.14125 
Q 66.33 68.94125 69.13 68.94125 
z
" style="fill:#ffffff;opacity:0.8;stroke:#cccccc;stroke-linejoin:miter;"/>
    </g>
    <g id="line2d_13">
     <path d="M 71.93 35.485625 
L 99.93 35.485625 
" style="fill:none;stroke:#1f77b4;stroke-linecap:square;stroke-width:1.5;"/>
    </g>
    <g id="line2d_14"/>
    <g id="text_12">
     <!-- годовые доходности -->
     <defs>
      <path d="M 42.140625 26.46875 
Q 42.140625 12.59375 37.125 5.796875 
Q 32.125 -0.984375 22.609375 -0.984375 
Q 18.0625 -0.984375 14.515625 0.671875 
Q 10.984375 2.34375 8.515625 5.765625 
Q 6.0625 9.1875 4.765625 14.328125 
Q 3.46875 19.484375 3.46875 26.46875 
Q 3.46875 53.8125 22.859375 53.8125 
Q 27.875 53.8125 31.5625 52.09375 
Q 35.25 50.390625 37.59375 46.96875 
Q 39.9375 43.5625 41.03125 38.421875 
Q 42.140625 33.296875 42.140625 26.46875 
z
M 34.578125 26.46875 
Q 34.578125 32.625 33.8125 36.625 
Q 33.0625 40.625 31.546875 43.015625 
Q 30.03125 45.40625 27.859375 46.359375 
Q 25.6875 47.3125 23 47.3125 
Q 20.21875 47.3125 17.984375 46.3125 
Q 15.765625 45.3125 14.203125 42.890625 
Q 12.640625 40.484375 11.828125 36.46875 
Q 11.03125 32.46875 11.03125 26.46875 
Q 11.03125 20.3125 11.90625 16.28125 
Q 12.796875 12.25 14.328125 9.859375 
Q 15.875 7.46875 17.96875 6.484375 
Q 20.0625 5.515625 22.5625 5.515625 
Q 25.34375 5.515625 27.5625 6.46875 
Q 29.78125 7.421875 31.34375 9.8125 
Q 32.90625 12.203125 33.734375 16.25 
Q 34.578125 20.3125 34.578125 26.46875 
z
" id="LiberationSansNarrow-1086"/>
      <path d="M 33.34375 46.4375 
L 21.140625 46.4375 
Q 20.171875 37.796875 19.1875 31.375 
Q 18.21875 24.953125 17.234375 20.21875 
Q 16.265625 15.484375 15.3125 12.15625 
Q 14.359375 8.84375 13.484375 6.390625 
L 33.34375 6.390625 
z
M 46.390625 -19.921875 
L 39.890625 -19.921875 
L 39.890625 0 
L 7.328125 0 
L 7.328125 -19.921875 
L 0.78125 -19.921875 
L 0.78125 6.390625 
L 5.5625 6.390625 
Q 6.78125 8.84375 7.921875 12.328125 
Q 9.078125 15.828125 10.21875 21.1875 
Q 11.375 26.5625 12.515625 34.25 
Q 13.671875 41.9375 14.796875 52.828125 
L 40.578125 52.828125 
L 40.578125 6.390625 
L 46.390625 6.390625 
z
" id="LiberationSansNarrow-1076"/>
      <path d="M 22.5625 52.828125 
Q 25.59375 52.828125 28.484375 52.234375 
Q 31.390625 51.65625 33.640625 50.140625 
Q 35.890625 48.640625 37.234375 46.09375 
Q 38.578125 43.5625 38.578125 39.59375 
Q 38.578125 37.015625 37.890625 35.03125 
Q 37.203125 33.0625 35.984375 31.640625 
Q 34.765625 30.21875 33.125 29.3125 
Q 31.5 28.421875 29.6875 27.984375 
L 29.6875 27.640625 
Q 31.84375 27.296875 33.734375 26.4375 
Q 35.640625 25.59375 37 24.09375 
Q 38.375 22.609375 39.171875 20.40625 
Q 39.984375 18.21875 39.984375 15.234375 
Q 39.984375 11.421875 38.765625 8.5625 
Q 37.546875 5.71875 35.375 3.8125 
Q 33.203125 1.90625 30.171875 0.953125 
Q 27.15625 0 23.484375 0 
L 5.671875 0 
L 5.671875 52.828125 
z
M 12.890625 6.5 
L 22.3125 6.5 
Q 25.09375 6.5 27 6.984375 
Q 28.90625 7.46875 30.078125 8.546875 
Q 31.25 9.625 31.78125 11.25 
Q 32.328125 12.890625 32.328125 15.1875 
Q 32.328125 17.625 31.765625 19.328125 
Q 31.203125 21.046875 29.953125 22.109375 
Q 28.71875 23.1875 26.703125 23.671875 
Q 24.703125 24.171875 21.875 24.171875 
L 12.890625 24.171875 
z
M 12.890625 46.140625 
L 12.890625 30.515625 
L 21.53125 30.515625 
Q 24.265625 30.515625 26.0625 30.984375 
Q 27.875 31.453125 29 32.390625 
Q 30.125 33.34375 30.5625 34.828125 
Q 31 36.328125 31 38.421875 
Q 31 42.4375 28.96875 44.28125 
Q 26.953125 46.140625 22.125 46.140625 
z
" id="LiberationSansNarrow-1074"/>
      <path d="M 22.796875 30.46875 
Q 31.296875 30.46875 35.640625 26.875 
Q 39.984375 23.296875 39.984375 15.53125 
Q 39.984375 11.921875 38.90625 9.03125 
Q 37.84375 6.15625 35.671875 4.15625 
Q 33.5 2.15625 30.296875 1.078125 
Q 27.09375 0 22.859375 0 
L 5.859375 0 
L 5.859375 52.828125 
L 13.328125 52.828125 
L 13.328125 30.46875 
z
M 13.328125 6.203125 
L 21.734375 6.203125 
Q 24.609375 6.203125 26.578125 6.8125 
Q 28.5625 7.421875 29.78125 8.609375 
Q 31 9.8125 31.53125 11.546875 
Q 32.078125 13.28125 32.078125 15.53125 
Q 32.078125 20.125 29.65625 22.234375 
Q 27.25 24.359375 21.734375 24.359375 
L 13.328125 24.359375 
z
M 47.65625 0 
L 47.65625 52.828125 
L 55.125 52.828125 
L 55.125 0 
z
" id="LiberationSansNarrow-1099"/>
      <path d="M 10.6875 24.5625 
Q 10.6875 20.40625 11.5625 16.90625 
Q 12.453125 13.421875 13.90625 10.90625 
Q 15.375 8.40625 17.640625 7 
Q 19.921875 5.609375 23.140625 5.609375 
Q 27.828125 5.609375 30.65625 7.90625 
Q 33.5 10.203125 34.46875 13.71875 
L 40.828125 11.53125 
Q 40.140625 9.328125 38.921875 7.109375 
Q 37.703125 4.890625 35.640625 3.09375 
Q 33.59375 1.3125 30.53125 0.15625 
Q 27.484375 -0.984375 23.140625 -0.984375 
Q 13.53125 -0.984375 8.5 6 
Q 3.46875 12.984375 3.46875 26.765625 
Q 3.46875 34.1875 5 39.328125 
Q 6.546875 44.484375 9.171875 47.703125 
Q 11.8125 50.921875 15.328125 52.359375 
Q 18.84375 53.8125 22.859375 53.8125 
Q 28.328125 53.8125 31.984375 51.65625 
Q 39.0625 47.515625 41.015625 36.8125 
Q 41.9375 31.6875 41.9375 25.734375 
L 41.9375 24.5625 
z
M 34.71875 31.296875 
Q 34.71875 40.140625 31.421875 43.71875 
Q 28.125 47.3125 22.75 47.3125 
Q 18.953125 47.3125 15.328125 44.09375 
Q 10.9375 40.328125 10.6875 31.296875 
z
" id="LiberationSansNarrow-1077"/>
      <path id="LiberationSansNarrow-32"/>
      <path d="M 32.078125 0 
L 20.40625 21.6875 
L 8.6875 0 
L 0.921875 0 
L 16.359375 27.15625 
L 1.65625 52.828125 
L 9.625 52.828125 
L 20.40625 32.28125 
L 31.15625 52.828125 
L 39.203125 52.828125 
L 24.515625 27.25 
L 40.140625 0 
z
" id="LiberationSansNarrow-1093"/>
      <path d="M 12.890625 52.828125 
L 12.890625 30.46875 
L 32.375 30.46875 
L 32.375 52.828125 
L 39.59375 52.828125 
L 39.59375 0 
L 32.375 0 
L 32.375 24.078125 
L 12.890625 24.078125 
L 12.890625 0 
L 5.671875 0 
L 5.671875 52.828125 
z
" id="LiberationSansNarrow-1085"/>
      <path d="M 11.03125 26.65625 
Q 11.03125 22.125 11.5625 18.3125 
Q 12.109375 14.5 13.375 11.734375 
Q 14.65625 8.984375 16.75 7.46875 
Q 18.84375 5.953125 21.96875 5.953125 
Q 25.828125 5.953125 28.390625 8.484375 
Q 30.953125 11.03125 31.546875 16.3125 
L 38.875 15.71875 
Q 38.53125 12.453125 37.296875 9.421875 
Q 36.078125 6.390625 34.03125 4.09375 
Q 31.984375 1.8125 29 0.40625 
Q 26.03125 -0.984375 22.171875 -0.984375 
Q 17.09375 -0.984375 13.5 1.109375 
Q 9.90625 3.21875 7.6875 6.90625 
Q 5.46875 10.59375 4.46875 15.59375 
Q 3.46875 20.609375 3.46875 26.46875 
Q 3.46875 31.78125 4.203125 35.859375 
Q 4.9375 39.9375 6.21875 42.984375 
Q 7.515625 46.046875 9.265625 48.125 
Q 11.03125 50.203125 13.109375 51.4375 
Q 15.1875 52.6875 17.453125 53.25 
Q 19.734375 53.8125 22.078125 53.8125 
Q 25.734375 53.8125 28.5625 52.59375 
Q 31.390625 51.375 33.46875 49.25 
Q 35.546875 47.125 36.8125 44.234375 
Q 38.09375 41.359375 38.625 38.03125 
L 31.203125 37.359375 
Q 30.671875 41.75 28.375 44.328125 
Q 26.078125 46.921875 21.875 46.921875 
Q 18.796875 46.921875 16.71875 45.671875 
Q 14.65625 44.4375 13.375 41.921875 
Q 12.109375 39.40625 11.5625 35.59375 
Q 11.03125 31.78125 11.03125 26.65625 
z
" id="LiberationSansNarrow-1089"/>
      <path d="M 1.421875 52.828125 
L 36.140625 52.828125 
L 36.140625 46.4375 
L 22.359375 46.4375 
L 22.359375 0 
L 15.1875 0 
L 15.1875 46.4375 
L 1.421875 46.4375 
z
" id="LiberationSansNarrow-1090"/>
      <path d="M 12.640625 52.828125 
L 12.640625 23.921875 
Q 12.640625 22.796875 12.59375 20.921875 
Q 12.546875 19.046875 12.46875 17.046875 
Q 12.40625 15.046875 12.359375 13.234375 
Q 12.3125 11.421875 12.25 10.40625 
L 32.28125 52.828125 
L 40.140625 52.828125 
L 40.140625 0 
L 33.25 0 
L 33.25 32.234375 
Q 33.25 33.15625 33.296875 34.578125 
L 33.40625 37.40625 
Q 33.453125 38.875 33.5 40.234375 
L 33.640625 42.625 
L 13.375 0 
L 5.71875 0 
L 5.71875 52.828125 
z
" id="LiberationSansNarrow-1080"/>
     </defs>
     <g transform="translate(111.13 40.385625)scale(0.14 -0.14)">
      <use xlink:href="#LiberationSansNarrow-1075"/>
      <use x="29.900391" xlink:href="#LiberationSansNarrow-1086"/>
      <use x="75.474609" xlink:href="#LiberationSansNarrow-1076"/>
      <use x="123.277344" xlink:href="#LiberationSansNarrow-1086"/>
      <use x="168.882812" xlink:href="#LiberationSansNarrow-1074"/>
      <use x="212.4375" xlink:href="#LiberationSansNarrow-1099"/>
      <use x="273.423828" xlink:href="#LiberationSansNarrow-1077"/>
      <use x="319.029297" xlink:href="#LiberationSansNarrow-32"/>
      <use x="341.832031" xlink:href="#LiberationSansNarrow-1076"/>
      <use x="389.634766" xlink:href="#LiberationSansNarrow-1086"/>
      <use x="435.224609" xlink:href="#LiberationSansNarrow-1093"/>
      <use x="476.224609" xlink:href="#LiberationSansNarrow-1086"/>
      <use x="521.798828" xlink:href="#LiberationSansNarrow-1076"/>
      <use x="569.601562" xlink:href="#LiberationSansNarrow-1085"/>
      <use x="614.865234" xlink:href="#LiberationSansNarrow-1086"/>
      <use x="660.470703" xlink:href="#LiberationSansNarrow-1089"/>
      <use x="701.486328" xlink:href="#LiberationSansNarrow-1090"/>
      <use x="739.035156" xlink:href="#LiberationSansNarrow-1080"/>
     </g>
    </g>
    <g id="line2d_15">
     <path d="M 71.93 55.53625 
L 99.93 55.53625 
" style="fill:none;stroke:#ff7f0e;stroke-linecap:square;stroke-width:1.5;"/>
    </g>
    <g id="line2d_16"/>
    <g id="text_13">
     <!-- они же при нормальном распределении -->
     <defs>
      <path d="M 23.828125 23.296875 
Q 22.796875 23.296875 21.484375 23.578125 
Q 20.171875 23.875 19.4375 24.265625 
L 8.296875 0 
L 0.296875 0 
L 14.40625 28.90625 
Q 13.71875 29.59375 12.390625 31.65625 
Q 11.078125 33.734375 9.28125 36.96875 
L 0.640625 52.828125 
L 8.15625 52.828125 
L 14.109375 41.15625 
Q 16.015625 37.40625 17.3125 35.15625 
Q 18.609375 32.90625 19.65625 31.6875 
Q 20.703125 30.46875 21.65625 30.078125 
Q 22.609375 29.6875 23.828125 29.6875 
L 23.828125 52.828125 
L 31 52.828125 
L 31 29.6875 
Q 32.234375 29.6875 33.171875 30.078125 
Q 34.125 30.46875 35.171875 31.6875 
Q 36.234375 32.90625 37.515625 35.15625 
Q 38.8125 37.40625 40.71875 41.15625 
L 46.6875 52.828125 
L 54.203125 52.828125 
L 45.5625 36.96875 
Q 43.75 33.734375 42.421875 31.65625 
Q 41.109375 29.59375 40.4375 28.90625 
L 54.546875 0 
L 46.53125 0 
L 35.40625 24.265625 
Q 34.625 23.875 33.34375 23.578125 
Q 32.078125 23.296875 31 23.296875 
L 31 0 
L 23.828125 0 
z
" id="LiberationSansNarrow-1078"/>
      <path d="M 38.71875 52.828125 
L 38.71875 0 
L 31.546875 0 
L 31.546875 46.4375 
L 12.890625 46.4375 
L 12.890625 0 
L 5.71875 0 
L 5.71875 52.828125 
z
" id="LiberationSansNarrow-1087"/>
      <path d="M 42.140625 26.65625 
Q 42.140625 20.65625 41.359375 15.578125 
Q 40.578125 10.5 38.6875 6.828125 
Q 36.8125 3.171875 33.765625 1.09375 
Q 30.71875 -0.984375 26.21875 -0.984375 
Q 21.578125 -0.984375 18.078125 1.171875 
Q 14.59375 3.328125 12.796875 8.203125 
L 12.546875 8.203125 
Q 12.59375 8.109375 12.609375 7.328125 
Q 12.640625 6.546875 12.671875 5.375 
Q 12.703125 4.203125 12.71875 2.75 
Q 12.75 1.3125 12.75 -0.09375 
L 12.75 -20.75 
L 5.515625 -20.75 
L 5.515625 42.046875 
Q 5.515625 43.953125 5.484375 45.703125 
Q 5.46875 47.46875 5.4375 48.90625 
Q 5.421875 50.34375 5.375 51.359375 
Q 5.328125 52.390625 5.28125 52.828125 
L 12.25 52.828125 
Q 12.3125 52.6875 12.359375 51.8125 
L 12.5 49.703125 
Q 12.546875 48.4375 12.59375 47.015625 
Q 12.640625 45.609375 12.640625 44.34375 
L 12.796875 44.34375 
Q 13.765625 46.875 15.0625 48.65625 
Q 16.359375 50.4375 18.015625 51.578125 
Q 19.671875 52.734375 21.671875 53.25 
Q 23.6875 53.765625 26.21875 53.765625 
Q 30.71875 53.765625 33.765625 51.8125 
Q 36.8125 49.859375 38.6875 46.3125 
Q 40.578125 42.78125 41.359375 37.765625 
Q 42.140625 32.765625 42.140625 26.65625 
z
M 34.578125 26.46875 
Q 34.578125 31.34375 34.109375 35.15625 
Q 33.640625 38.96875 32.4375 41.59375 
Q 31.25 44.234375 29.296875 45.59375 
Q 27.34375 46.96875 24.359375 46.96875 
Q 21.96875 46.96875 19.84375 46.140625 
Q 17.71875 45.3125 16.125 42.96875 
Q 14.546875 40.625 13.640625 36.5 
Q 12.75 32.375 12.75 25.78125 
Q 12.75 20.171875 13.5 16.28125 
Q 14.265625 12.40625 15.71875 10.015625 
Q 17.1875 7.625 19.328125 6.5625 
Q 21.484375 5.515625 24.3125 5.515625 
Q 27.34375 5.515625 29.296875 6.921875 
Q 31.25 8.34375 32.4375 11.03125 
Q 33.640625 13.71875 34.109375 17.59375 
Q 34.578125 21.484375 34.578125 26.46875 
z
" id="LiberationSansNarrow-1088"/>
      <path d="M 31.546875 0 
L 25.390625 0 
L 12.40625 46.4375 
Q 12.453125 45.171875 12.515625 43.703125 
Q 12.59375 42.234375 12.59375 40.75 
Q 12.59375 39.265625 12.609375 37.859375 
Q 12.640625 36.46875 12.640625 35.359375 
L 12.640625 0 
L 5.671875 0 
L 5.671875 52.828125 
L 16.890625 52.828125 
L 25.734375 20.5625 
Q 26.65625 17.484375 27.390625 13.796875 
Q 28.125 10.109375 28.421875 6.59375 
Q 28.8125 10.109375 29.515625 13.796875 
Q 30.21875 17.484375 31.15625 20.5625 
L 39.984375 52.828125 
L 50.734375 52.828125 
L 50.734375 0 
L 43.796875 0 
L 43.796875 35.359375 
Q 43.796875 36.421875 43.8125 37.890625 
Q 43.84375 39.359375 43.921875 40.921875 
Q 44 42.484375 44.015625 43.9375 
Q 44.046875 45.40625 44.140625 46.53125 
z
" id="LiberationSansNarrow-1084"/>
      <path d="M 16.546875 -0.984375 
Q 10.015625 -0.984375 6.734375 3.21875 
Q 3.46875 7.421875 3.46875 14.75 
Q 3.46875 19.96875 5.09375 23.3125 
Q 6.734375 26.65625 9.34375 28.5625 
Q 11.96875 30.46875 15.328125 31.203125 
Q 18.703125 31.9375 22.171875 32.03125 
L 31.9375 32.234375 
L 31.9375 35.109375 
Q 31.9375 38.375 31.375 40.671875 
Q 30.8125 42.96875 29.640625 44.375 
Q 28.46875 45.796875 26.734375 46.453125 
Q 25 47.125 22.609375 47.125 
Q 20.515625 47.125 18.84375 46.75 
Q 17.1875 46.390625 15.9375 45.4375 
Q 14.703125 44.484375 13.9375 42.84375 
Q 13.1875 41.21875 12.9375 38.71875 
L 5.421875 39.546875 
Q 5.8125 42.671875 6.9375 45.28125 
Q 8.0625 47.90625 10.109375 49.796875 
Q 12.15625 51.703125 15.25 52.75 
Q 18.359375 53.8125 22.796875 53.8125 
Q 30.953125 53.8125 35.078125 49.234375 
Q 39.203125 44.671875 39.203125 36.03125 
L 39.203125 13.28125 
Q 39.203125 9.375 40.03125 7.390625 
Q 40.875 5.421875 43.265625 5.421875 
Q 43.84375 5.421875 44.453125 5.515625 
Q 45.0625 5.609375 45.609375 5.765625 
L 45.609375 0.296875 
Q 44.234375 -0.09375 42.890625 -0.28125 
Q 41.546875 -0.484375 40.046875 -0.484375 
Q 37.984375 -0.484375 36.515625 0.171875 
Q 35.0625 0.828125 34.15625 2.171875 
Q 33.25 3.515625 32.765625 5.484375 
Q 32.28125 7.46875 32.125 10.109375 
L 31.9375 10.109375 
Q 30.765625 7.5625 29.375 5.515625 
Q 27.984375 3.46875 26.140625 2.03125 
Q 24.3125 0.59375 21.9375 -0.1875 
Q 19.578125 -0.984375 16.546875 -0.984375 
z
M 18.21875 5.609375 
Q 21.6875 5.609375 24.25 7.140625 
Q 26.8125 8.6875 28.515625 11.078125 
Q 30.21875 13.484375 31.078125 16.3125 
Q 31.9375 19.140625 31.9375 21.734375 
L 31.9375 26.078125 
L 24.03125 25.875 
Q 21.390625 25.828125 19 25.40625 
Q 16.609375 25 14.8125 23.78125 
Q 13.03125 22.5625 11.953125 20.359375 
Q 10.890625 18.171875 10.890625 14.59375 
Q 10.890625 10.296875 12.796875 7.953125 
Q 14.703125 5.609375 18.21875 5.609375 
z
" id="LiberationSansNarrow-1072"/>
      <path d="M 34.859375 0 
L 34.859375 46.4375 
L 19.875 46.4375 
Q 18.890625 37.453125 18.03125 30.4375 
Q 17.1875 23.4375 16.3125 18.15625 
Q 15.4375 12.890625 14.40625 9.25 
Q 13.375 5.609375 11.953125 3.34375 
Q 10.546875 1.078125 8.65625 0.046875 
Q 6.78125 -0.984375 4.203125 -0.984375 
Q 3.03125 -0.984375 2.078125 -0.78125 
Q 1.125 -0.59375 0.4375 -0.34375 
L 0.4375 5.953125 
Q 0.875 5.765625 1.625 5.640625 
Q 2.390625 5.515625 3.171875 5.515625 
Q 4.59375 5.515625 5.59375 6.53125 
Q 6.59375 7.5625 7.390625 9.859375 
Q 8.203125 12.15625 8.859375 15.796875 
Q 9.515625 19.4375 10.203125 24.703125 
Q 10.890625 29.984375 11.625 36.921875 
L 13.375 52.828125 
L 42.140625 52.828125 
L 42.140625 0 
z
" id="LiberationSansNarrow-1083"/>
      <path d="M 22.75 30.46875 
Q 30.953125 30.46875 35.15625 26.875 
Q 39.359375 23.296875 39.359375 15.53125 
Q 39.359375 11.921875 38.296875 9.03125 
Q 37.25 6.15625 35.171875 4.15625 
Q 33.109375 2.15625 30 1.078125 
Q 26.90625 0 22.796875 0 
L 5.671875 0 
L 5.671875 52.828125 
L 12.890625 52.828125 
L 12.890625 30.46875 
z
M 12.890625 6.203125 
L 21.6875 6.203125 
Q 24.46875 6.203125 26.390625 6.8125 
Q 28.328125 7.421875 29.5 8.609375 
Q 30.671875 9.8125 31.171875 11.546875 
Q 31.6875 13.28125 31.6875 15.53125 
Q 31.6875 20.125 29.359375 22.234375 
Q 27.046875 24.359375 21.734375 24.359375 
L 12.890625 24.359375 
z
" id="LiberationSansNarrow-1100"/>
     </defs>
     <g transform="translate(111.13 60.43625)scale(0.14 -0.14)">
      <use xlink:href="#LiberationSansNarrow-1086"/>
      <use x="45.605469" xlink:href="#LiberationSansNarrow-1085"/>
      <use x="90.869141" xlink:href="#LiberationSansNarrow-1080"/>
      <use x="136.71875" xlink:href="#LiberationSansNarrow-32"/>
      <use x="159.521484" xlink:href="#LiberationSansNarrow-1078"/>
      <use x="214.355469" xlink:href="#LiberationSansNarrow-1077"/>
      <use x="259.960938" xlink:href="#LiberationSansNarrow-32"/>
      <use x="282.763672" xlink:href="#LiberationSansNarrow-1087"/>
      <use x="327.197266" xlink:href="#LiberationSansNarrow-1088"/>
      <use x="372.802734" xlink:href="#LiberationSansNarrow-1080"/>
      <use x="418.652344" xlink:href="#LiberationSansNarrow-32"/>
      <use x="441.455078" xlink:href="#LiberationSansNarrow-1085"/>
      <use x="486.71875" xlink:href="#LiberationSansNarrow-1086"/>
      <use x="532.324219" xlink:href="#LiberationSansNarrow-1088"/>
      <use x="577.929688" xlink:href="#LiberationSansNarrow-1084"/>
      <use x="634.326172" xlink:href="#LiberationSansNarrow-1072"/>
      <use x="679.931641" xlink:href="#LiberationSansNarrow-1083"/>
      <use x="727.734375" xlink:href="#LiberationSansNarrow-1100"/>
      <use x="770.458984" xlink:href="#LiberationSansNarrow-1085"/>
      <use x="815.722656" xlink:href="#LiberationSansNarrow-1086"/>
      <use x="861.328125" xlink:href="#LiberationSansNarrow-1084"/>
      <use x="917.724609" xlink:href="#LiberationSansNarrow-32"/>
      <use x="940.527344" xlink:href="#LiberationSansNarrow-1088"/>
      <use x="986.132812" xlink:href="#LiberationSansNarrow-1072"/>
      <use x="1031.738281" xlink:href="#LiberationSansNarrow-1089"/>
      <use x="1072.753906" xlink:href="#LiberationSansNarrow-1087"/>
      <use x="1117.1875" xlink:href="#LiberationSansNarrow-1088"/>
      <use x="1162.792969" xlink:href="#LiberationSansNarrow-1077"/>
      <use x="1208.367188" xlink:href="#LiberationSansNarrow-1076"/>
      <use x="1256.169922" xlink:href="#LiberationSansNarrow-1077"/>
      <use x="1301.728516" xlink:href="#LiberationSansNarrow-1083"/>
      <use x="1349.53125" xlink:href="#LiberationSansNarrow-1077"/>
      <use x="1395.136719" xlink:href="#LiberationSansNarrow-1085"/>
      <use x="1440.400391" xlink:href="#LiberationSansNarrow-1080"/>
      <use x="1486.25" xlink:href="#LiberationSansNarrow-1080"/>
     </g>
    </g>
   </g>
  </g>
 </g>
 <defs>
  <clipPath id="p45fd149138">
   <rect height="234.56" width="499.03" x="59.33" y="17.64"/>
  </clipPath>
 </defs>
</svg>
