<?xml version="1.0" encoding="utf-8" standalone="no"?>
<!DOCTYPE svg PUBLIC "-//W3C//DTD SVG 1.1//EN"
  "http://www.w3.org/Graphics/SVG/1.1/DTD/svg11.dtd">
<!-- Created with matplotlib (https://matplotlib.org/) -->
<svg height="288pt" version="1.1" viewBox="0 0 576 288" width="576pt" xmlns="http://www.w3.org/2000/svg" xmlns:xlink="http://www.w3.org/1999/xlink">
 <metadata>
  <rdf:RDF xmlns:cc="http://creativecommons.org/ns#" xmlns:dc="http://purl.org/dc/elements/1.1/" xmlns:rdf="http://www.w3.org/1999/02/22-rdf-syntax-ns#">
   <cc:Work>
    <dc:type rdf:resource="http://purl.org/dc/dcmitype/StillImage"/>
    <dc:date>2021-08-21T14:16:37.401853</dc:date>
    <dc:format>image/svg+xml</dc:format>
    <dc:creator>
     <cc:Agent>
      <dc:title>Matplotlib v3.3.4, https://matplotlib.org/</dc:title>
     </cc:Agent>
    </dc:creator>
   </cc:Work>
  </rdf:RDF>
 </metadata>
 <defs>
  <style type="text/css">*{stroke-linecap:butt;stroke-linejoin:round;}</style>
 </defs>
 <g id="figure_1">
  <g id="patch_1">
   <path d="M 0 288 
L 576 288 
L 576 0 
L 0 0 
z
" style="fill:#ffffff;"/>
  </g>
  <g id="axes_1">
   <g id="patch_2">
    <path d="M 46.19 234.52 
L 560.88 234.52 
L 560.88 15.12 
L 46.19 15.12 
z
" style="fill:#ffffff;"/>
   </g>
   <g id="matplotlib.axis_1">
    <g id="xtick_1">
     <g id="line2d_1">
      <path clip-path="url(#pc2a510b90c)" d="M 69.585 234.52 
L 69.585 15.12 
" style="fill:none;stroke:#b0b0b0;stroke-dasharray:1.48,0.64;stroke-dashoffset:0;stroke-width:0.4;"/>
     </g>
     <g id="text_1">
      <!-- 0 -->
      <g transform="translate(66.392344 251.665625)scale(0.14 -0.14)">
       <defs>
        <path d="M 42.390625 34.421875 
Q 42.390625 24.515625 40.84375 17.75 
Q 39.3125 10.984375 36.640625 6.8125 
Q 33.984375 2.640625 30.390625 0.828125 
Q 26.8125 -0.984375 22.703125 -0.984375 
Q 18.609375 -0.984375 15.03125 0.828125 
Q 11.46875 2.640625 8.828125 6.78125 
Q 6.203125 10.9375 4.703125 17.703125 
Q 3.21875 24.46875 3.21875 34.421875 
Q 3.21875 44.828125 4.703125 51.640625 
Q 6.203125 58.453125 8.828125 62.5 
Q 11.46875 66.546875 15.078125 68.1875 
Q 18.703125 69.828125 22.953125 69.828125 
Q 27 69.828125 30.53125 68.1875 
Q 34.078125 66.546875 36.71875 62.5 
Q 39.359375 58.453125 40.875 51.640625 
Q 42.390625 44.828125 42.390625 34.421875 
z
M 35.0625 34.421875 
Q 35.0625 42.625 34.28125 48.0625 
Q 33.5 53.515625 31.9375 56.765625 
Q 30.375 60.015625 28.09375 61.359375 
Q 25.828125 62.703125 22.953125 62.703125 
Q 19.921875 62.703125 17.578125 61.328125 
Q 15.234375 59.96875 13.671875 56.71875 
Q 12.109375 53.46875 11.296875 48.015625 
Q 10.5 42.578125 10.5 34.421875 
Q 10.5 26.515625 11.296875 21.09375 
Q 12.109375 15.671875 13.6875 12.375 
Q 15.28125 9.078125 17.578125 7.640625 
Q 19.875 6.203125 22.796875 6.203125 
Q 25.640625 6.203125 27.90625 7.640625 
Q 30.171875 9.078125 31.75 12.375 
Q 33.34375 15.671875 34.203125 21.09375 
Q 35.0625 26.515625 35.0625 34.421875 
z
" id="LiberationSansNarrow-48"/>
       </defs>
       <use xlink:href="#LiberationSansNarrow-48"/>
      </g>
     </g>
    </g>
    <g id="xtick_2">
     <g id="line2d_2">
      <path clip-path="url(#pc2a510b90c)" d="M 134.752131 234.52 
L 134.752131 15.12 
" style="fill:none;stroke:#b0b0b0;stroke-dasharray:1.48,0.64;stroke-dashoffset:0;stroke-width:0.4;"/>
     </g>
     <g id="text_2">
      <!-- 50 -->
      <g transform="translate(128.366818 251.665625)scale(0.14 -0.14)">
       <defs>
        <path d="M 42.140625 22.40625 
Q 42.140625 17.234375 40.859375 12.9375 
Q 39.59375 8.640625 37.078125 5.53125 
Q 34.578125 2.4375 30.8125 0.71875 
Q 27.046875 -0.984375 22.125 -0.984375 
Q 17.671875 -0.984375 14.375 0.28125 
Q 11.078125 1.5625 8.8125 3.78125 
Q 6.546875 6 5.203125 8.984375 
Q 3.859375 11.96875 3.265625 15.375 
L 10.546875 16.40625 
Q 10.984375 14.453125 11.78125 12.625 
Q 12.59375 10.796875 13.984375 9.34375 
Q 15.375 7.90625 17.40625 7.046875 
Q 19.4375 6.203125 22.3125 6.203125 
Q 25.09375 6.203125 27.390625 7.25 
Q 29.6875 8.296875 31.296875 10.34375 
Q 32.90625 12.40625 33.78125 15.375 
Q 34.671875 18.359375 34.671875 22.21875 
Q 34.671875 25.390625 33.84375 28.046875 
Q 33.015625 30.71875 31.453125 32.640625 
Q 29.890625 34.578125 27.609375 35.640625 
Q 25.34375 36.71875 22.46875 36.71875 
Q 20.65625 36.71875 19.140625 36.328125 
Q 17.625 35.9375 16.328125 35.25 
Q 15.046875 34.578125 13.96875 33.671875 
Q 12.890625 32.765625 11.96875 31.78125 
L 4.9375 31.78125 
L 6.78125 68.796875 
L 38.875 68.796875 
L 38.875 61.328125 
L 13.375 61.328125 
L 12.3125 39.5 
Q 14.203125 41.3125 17.078125 42.59375 
Q 19.96875 43.890625 23.921875 43.890625 
Q 28.125 43.890625 31.484375 42.328125 
Q 34.859375 40.765625 37.21875 37.90625 
Q 39.59375 35.0625 40.859375 31.109375 
Q 42.140625 27.15625 42.140625 22.40625 
z
" id="LiberationSansNarrow-53"/>
       </defs>
       <use xlink:href="#LiberationSansNarrow-53"/>
       <use x="45.605469" xlink:href="#LiberationSansNarrow-48"/>
      </g>
     </g>
    </g>
    <g id="xtick_3">
     <g id="line2d_3">
      <path clip-path="url(#pc2a510b90c)" d="M 199.919262 234.52 
L 199.919262 15.12 
" style="fill:none;stroke:#b0b0b0;stroke-dasharray:1.48,0.64;stroke-dashoffset:0;stroke-width:0.4;"/>
     </g>
     <g id="text_3">
      <!-- 100 -->
      <g transform="translate(190.341293 251.665625)scale(0.14 -0.14)">
       <defs>
        <path d="M 6.25 0 
L 6.25 7.46875 
L 20.609375 7.46875 
L 20.609375 60.40625 
L 7.90625 49.3125 
L 7.90625 57.625 
L 21.234375 68.796875 
L 27.875 68.796875 
L 27.875 7.46875 
L 41.609375 7.46875 
L 41.609375 0 
z
" id="LiberationSansNarrow-49"/>
       </defs>
       <use xlink:href="#LiberationSansNarrow-49"/>
       <use x="45.605469" xlink:href="#LiberationSansNarrow-48"/>
       <use x="91.210938" xlink:href="#LiberationSansNarrow-48"/>
      </g>
     </g>
    </g>
    <g id="xtick_4">
     <g id="line2d_4">
      <path clip-path="url(#pc2a510b90c)" d="M 265.086393 234.52 
L 265.086393 15.12 
" style="fill:none;stroke:#b0b0b0;stroke-dasharray:1.48,0.64;stroke-dashoffset:0;stroke-width:0.4;"/>
     </g>
     <g id="text_4">
      <!-- 150 -->
      <g transform="translate(255.508424 251.665625)scale(0.14 -0.14)">
       <use xlink:href="#LiberationSansNarrow-49"/>
       <use x="45.605469" xlink:href="#LiberationSansNarrow-53"/>
       <use x="91.210938" xlink:href="#LiberationSansNarrow-48"/>
      </g>
     </g>
    </g>
    <g id="xtick_5">
     <g id="line2d_5">
      <path clip-path="url(#pc2a510b90c)" d="M 330.253524 234.52 
L 330.253524 15.12 
" style="fill:none;stroke:#b0b0b0;stroke-dasharray:1.48,0.64;stroke-dashoffset:0;stroke-width:0.4;"/>
     </g>
     <g id="text_5">
      <!-- 200 -->
      <g transform="translate(320.675555 251.665625)scale(0.14 -0.14)">
       <defs>
        <path d="M 4.109375 0 
L 4.109375 6.203125 
Q 6.15625 11.921875 9.109375 16.28125 
Q 12.0625 20.65625 15.3125 24.1875 
Q 18.5625 27.734375 21.734375 30.765625 
Q 24.90625 33.796875 27.46875 36.8125 
Q 30.03125 39.84375 31.609375 43.15625 
Q 33.203125 46.484375 33.203125 50.6875 
Q 33.203125 53.609375 32.46875 55.828125 
Q 31.734375 58.0625 30.390625 59.5625 
Q 29.046875 61.078125 27.140625 61.828125 
Q 25.25 62.59375 22.90625 62.59375 
Q 20.75 62.59375 18.84375 61.859375 
Q 16.9375 61.140625 15.453125 59.671875 
Q 13.96875 58.203125 13.03125 56.03125 
Q 12.109375 53.859375 11.8125 50.984375 
L 4.4375 51.8125 
Q 4.78125 55.515625 6.125 58.78125 
Q 7.46875 62.0625 9.78125 64.53125 
Q 12.109375 67 15.359375 68.40625 
Q 18.609375 69.828125 22.90625 69.828125 
Q 27.09375 69.828125 30.390625 68.609375 
Q 33.6875 67.390625 35.9375 64.984375 
Q 38.1875 62.59375 39.40625 59.078125 
Q 40.625 55.5625 40.625 50.984375 
Q 40.625 47.515625 39.59375 44.390625 
Q 38.578125 41.265625 36.859375 38.421875 
Q 35.15625 35.59375 32.90625 32.953125 
Q 30.671875 30.328125 28.21875 27.828125 
L 23.296875 22.859375 
Q 20.796875 20.359375 18.625 17.859375 
Q 16.453125 15.375 14.734375 12.8125 
Q 13.03125 10.25 12.0625 7.46875 
L 41.5 7.46875 
L 41.5 0 
z
" id="LiberationSansNarrow-50"/>
       </defs>
       <use xlink:href="#LiberationSansNarrow-50"/>
       <use x="45.605469" xlink:href="#LiberationSansNarrow-48"/>
       <use x="91.210938" xlink:href="#LiberationSansNarrow-48"/>
      </g>
     </g>
    </g>
    <g id="xtick_6">
     <g id="line2d_6">
      <path clip-path="url(#pc2a510b90c)" d="M 395.420655 234.52 
L 395.420655 15.12 
" style="fill:none;stroke:#b0b0b0;stroke-dasharray:1.48,0.64;stroke-dashoffset:0;stroke-width:0.4;"/>
     </g>
     <g id="text_6">
      <!-- 250 -->
      <g transform="translate(385.842686 251.665625)scale(0.14 -0.14)">
       <use xlink:href="#LiberationSansNarrow-50"/>
       <use x="45.605469" xlink:href="#LiberationSansNarrow-53"/>
       <use x="91.210938" xlink:href="#LiberationSansNarrow-48"/>
      </g>
     </g>
    </g>
    <g id="xtick_7">
     <g id="line2d_7">
      <path clip-path="url(#pc2a510b90c)" d="M 460.587786 234.52 
L 460.587786 15.12 
" style="fill:none;stroke:#b0b0b0;stroke-dasharray:1.48,0.64;stroke-dashoffset:0;stroke-width:0.4;"/>
     </g>
     <g id="text_7">
      <!-- 300 -->
      <g transform="translate(451.009817 251.665625)scale(0.14 -0.14)">
       <defs>
        <path d="M 42 19 
Q 42 14.265625 40.75 10.546875 
Q 39.5 6.84375 37.0625 4.265625 
Q 34.625 1.703125 31.046875 0.359375 
Q 27.484375 -0.984375 22.859375 -0.984375 
Q 17.625 -0.984375 14.03125 0.609375 
Q 10.453125 2.203125 8.125 4.8125 
Q 5.8125 7.421875 4.640625 10.765625 
Q 3.46875 14.109375 3.125 17.671875 
L 10.546875 18.5 
Q 10.890625 15.765625 11.734375 13.515625 
Q 12.59375 11.28125 14.078125 9.671875 
Q 15.578125 8.0625 17.75 7.171875 
Q 19.921875 6.296875 22.859375 6.296875 
Q 28.328125 6.296875 31.421875 9.5625 
Q 34.515625 12.84375 34.515625 19.28125 
Q 34.515625 23.09375 33.125 25.40625 
Q 31.734375 27.734375 29.6875 29.03125 
Q 27.640625 30.328125 25.21875 30.765625 
Q 22.796875 31.203125 20.75 31.203125 
L 16.65625 31.203125 
L 16.65625 38.8125 
L 20.5625 38.8125 
Q 22.609375 38.8125 24.828125 39.328125 
Q 27.046875 39.84375 28.859375 41.1875 
Q 30.671875 42.53125 31.859375 44.828125 
Q 33.0625 47.125 33.0625 50.6875 
Q 33.0625 56.203125 30.375 59.390625 
Q 27.6875 62.59375 22.46875 62.59375 
Q 17.671875 62.59375 14.734375 59.609375 
Q 11.8125 56.640625 11.328125 51.21875 
L 4.109375 51.90625 
Q 4.546875 56.453125 6.125 59.8125 
Q 7.71875 63.1875 10.171875 65.40625 
Q 12.640625 67.625 15.8125 68.71875 
Q 19 69.828125 22.5625 69.828125 
Q 27.296875 69.828125 30.6875 68.375 
Q 34.078125 66.9375 36.21875 64.46875 
Q 38.375 62.015625 39.40625 58.6875 
Q 40.4375 55.375 40.4375 51.609375 
Q 40.4375 48.578125 39.75 45.9375 
Q 39.0625 43.3125 37.625 41.203125 
Q 36.1875 39.109375 33.953125 37.59375 
Q 31.734375 36.078125 28.609375 35.296875 
L 28.609375 35.109375 
Q 32.03125 34.671875 34.546875 33.21875 
Q 37.0625 31.78125 38.71875 29.625 
Q 40.375 27.484375 41.1875 24.75 
Q 42 22.015625 42 19 
z
" id="LiberationSansNarrow-51"/>
       </defs>
       <use xlink:href="#LiberationSansNarrow-51"/>
       <use x="45.605469" xlink:href="#LiberationSansNarrow-48"/>
       <use x="91.210938" xlink:href="#LiberationSansNarrow-48"/>
      </g>
     </g>
    </g>
    <g id="xtick_8">
     <g id="line2d_8">
      <path clip-path="url(#pc2a510b90c)" d="M 525.754916 234.52 
L 525.754916 15.12 
" style="fill:none;stroke:#b0b0b0;stroke-dasharray:1.48,0.64;stroke-dashoffset:0;stroke-width:0.4;"/>
     </g>
     <g id="text_8">
      <!-- 350 -->
      <g transform="translate(516.176948 251.665625)scale(0.14 -0.14)">
       <use xlink:href="#LiberationSansNarrow-51"/>
       <use x="45.605469" xlink:href="#LiberationSansNarrow-53"/>
       <use x="91.210938" xlink:href="#LiberationSansNarrow-48"/>
      </g>
     </g>
    </g>
    <g id="text_9">
     <!-- Месяцы -->
     <g transform="translate(281.943281 268.71625)scale(0.14 -0.14)">
      <defs>
       <path d="M 54.6875 0 
L 54.6875 45.90625 
Q 54.6875 48.390625 54.734375 50.96875 
Q 54.78125 53.5625 54.828125 55.71875 
Q 54.9375 58.203125 55.078125 60.546875 
Q 54.546875 58.0625 53.90625 55.609375 
Q 53.90625 55.609375 52.734375 51.171875 
Q 52.15625 48.78125 51.515625 46.875 
L 36.96875 0 
L 31.59375 0 
L 16.796875 46.875 
Q 16.546875 47.609375 16.3125 48.578125 
L 15.765625 50.6875 
L 15.140625 52.9375 
L 14.546875 55.171875 
Q 13.875 57.765625 13.234375 60.546875 
Q 13.28125 57.8125 13.375 55.125 
Q 13.484375 52.828125 13.5 50.3125 
Q 13.53125 47.796875 13.53125 45.90625 
L 13.53125 0 
L 6.734375 0 
L 6.734375 68.796875 
L 16.796875 68.796875 
L 31.78125 21.09375 
Q 32.078125 20.125 32.46875 18.578125 
Q 32.859375 17.046875 33.21875 15.421875 
Q 33.59375 13.8125 33.890625 12.375 
Q 34.1875 10.9375 34.328125 10.15625 
Q 34.421875 10.9375 34.734375 12.40625 
Q 35.0625 13.875 35.5 15.484375 
L 36.328125 18.609375 
Q 36.71875 20.125 37.0625 21.09375 
L 51.765625 68.796875 
L 61.578125 68.796875 
L 61.578125 0 
z
" id="LiberationSansNarrow-1052"/>
       <path d="M 10.6875 24.5625 
Q 10.6875 20.40625 11.5625 16.90625 
Q 12.453125 13.421875 13.90625 10.90625 
Q 15.375 8.40625 17.640625 7 
Q 19.921875 5.609375 23.140625 5.609375 
Q 27.828125 5.609375 30.65625 7.90625 
Q 33.5 10.203125 34.46875 13.71875 
L 40.828125 11.53125 
Q 40.140625 9.328125 38.921875 7.109375 
Q 37.703125 4.890625 35.640625 3.09375 
Q 33.59375 1.3125 30.53125 0.15625 
Q 27.484375 -0.984375 23.140625 -0.984375 
Q 13.53125 -0.984375 8.5 6 
Q 3.46875 12.984375 3.46875 26.765625 
Q 3.46875 34.1875 5 39.328125 
Q 6.546875 44.484375 9.171875 47.703125 
Q 11.8125 50.921875 15.328125 52.359375 
Q 18.84375 53.8125 22.859375 53.8125 
Q 28.328125 53.8125 31.984375 51.65625 
Q 39.0625 47.515625 41.015625 36.8125 
Q 41.9375 31.6875 41.9375 25.734375 
L 41.9375 24.5625 
z
M 34.71875 31.296875 
Q 34.71875 40.140625 31.421875 43.71875 
Q 28.125 47.3125 22.75 47.3125 
Q 18.953125 47.3125 15.328125 44.09375 
Q 10.9375 40.328125 10.6875 31.296875 
z
" id="LiberationSansNarrow-1077"/>
       <path d="M 11.03125 26.65625 
Q 11.03125 22.125 11.5625 18.3125 
Q 12.109375 14.5 13.375 11.734375 
Q 14.65625 8.984375 16.75 7.46875 
Q 18.84375 5.953125 21.96875 5.953125 
Q 25.828125 5.953125 28.390625 8.484375 
Q 30.953125 11.03125 31.546875 16.3125 
L 38.875 15.71875 
Q 38.53125 12.453125 37.296875 9.421875 
Q 36.078125 6.390625 34.03125 4.09375 
Q 31.984375 1.8125 29 0.40625 
Q 26.03125 -0.984375 22.171875 -0.984375 
Q 17.09375 -0.984375 13.5 1.109375 
Q 9.90625 3.21875 7.6875 6.90625 
Q 5.46875 10.59375 4.46875 15.59375 
Q 3.46875 20.609375 3.46875 26.46875 
Q 3.46875 31.78125 4.203125 35.859375 
Q 4.9375 39.9375 6.21875 42.984375 
Q 7.515625 46.046875 9.265625 48.125 
Q 11.03125 50.203125 13.109375 51.4375 
Q 15.1875 52.6875 17.453125 53.25 
Q 19.734375 53.8125 22.078125 53.8125 
Q 25.734375 53.8125 28.5625 52.59375 
Q 31.390625 51.375 33.46875 49.25 
Q 35.546875 47.125 36.8125 44.234375 
Q 38.09375 41.359375 38.625 38.03125 
L 31.203125 37.359375 
Q 30.671875 41.75 28.375 44.328125 
Q 26.078125 46.921875 21.875 46.921875 
Q 18.796875 46.921875 16.71875 45.671875 
Q 14.65625 44.4375 13.375 41.921875 
Q 12.109375 39.40625 11.5625 35.59375 
Q 11.03125 31.78125 11.03125 26.65625 
z
" id="LiberationSansNarrow-1089"/>
       <path d="M 21.4375 22.359375 
L 8.84375 0 
L 0.6875 0 
L 14.453125 23 
Q 9.234375 24.3125 6.859375 28.296875 
Q 4.5 32.28125 4.5 38.234375 
Q 4.5 45.515625 8.8125 49.171875 
Q 13.140625 52.828125 21.4375 52.828125 
L 38.71875 52.828125 
L 38.71875 0 
L 31.546875 0 
L 31.546875 22.359375 
z
M 31.546875 46.625 
L 22.171875 46.625 
Q 16.9375 46.625 14.546875 44.375 
Q 12.15625 42.140625 12.15625 37.59375 
Q 12.15625 33.015625 14.28125 30.734375 
Q 16.40625 28.46875 21.390625 28.46875 
L 31.546875 28.46875 
z
" id="LiberationSansNarrow-1103"/>
       <path d="M 12.890625 52.828125 
L 12.890625 6.390625 
L 31.984375 6.390625 
L 31.984375 52.828125 
L 39.203125 52.828125 
L 39.203125 6.390625 
L 45.0625 6.390625 
L 45.0625 -19.921875 
L 38.578125 -19.921875 
L 38.578125 0 
L 5.671875 0 
L 5.671875 52.828125 
z
" id="LiberationSansNarrow-1094"/>
       <path d="M 22.796875 30.46875 
Q 31.296875 30.46875 35.640625 26.875 
Q 39.984375 23.296875 39.984375 15.53125 
Q 39.984375 11.921875 38.90625 9.03125 
Q 37.84375 6.15625 35.671875 4.15625 
Q 33.5 2.15625 30.296875 1.078125 
Q 27.09375 0 22.859375 0 
L 5.859375 0 
L 5.859375 52.828125 
L 13.328125 52.828125 
L 13.328125 30.46875 
z
M 13.328125 6.203125 
L 21.734375 6.203125 
Q 24.609375 6.203125 26.578125 6.8125 
Q 28.5625 7.421875 29.78125 8.609375 
Q 31 9.8125 31.53125 11.546875 
Q 32.078125 13.28125 32.078125 15.53125 
Q 32.078125 20.125 29.65625 22.234375 
Q 27.25 24.359375 21.734375 24.359375 
L 13.328125 24.359375 
z
M 47.65625 0 
L 47.65625 52.828125 
L 55.125 52.828125 
L 55.125 0 
z
" id="LiberationSansNarrow-1099"/>
      </defs>
      <use xlink:href="#LiberationSansNarrow-1052"/>
      <use x="69.435547" xlink:href="#LiberationSansNarrow-1077"/>
      <use x="115.041016" xlink:href="#LiberationSansNarrow-1089"/>
      <use x="156.056641" xlink:href="#LiberationSansNarrow-1103"/>
      <use x="200.490234" xlink:href="#LiberationSansNarrow-1094"/>
      <use x="247.462891" xlink:href="#LiberationSansNarrow-1099"/>
     </g>
    </g>
   </g>
   <g id="matplotlib.axis_2">
    <g id="ytick_1">
     <g id="line2d_9">
      <path clip-path="url(#pc2a510b90c)" d="M 46.19 221.308469 
L 560.88 221.308469 
" style="fill:none;stroke:#b0b0b0;stroke-dasharray:1.48,0.64;stroke-dashoffset:0;stroke-width:0.4;"/>
     </g>
     <g id="text_10">
      <!-- 1 -->
      <g transform="translate(32.804688 226.381281)scale(0.14 -0.14)">
       <use xlink:href="#LiberationSansNarrow-49"/>
      </g>
     </g>
    </g>
    <g id="ytick_2">
     <g id="line2d_10">
      <path clip-path="url(#pc2a510b90c)" d="M 46.19 146.72734 
L 560.88 146.72734 
" style="fill:none;stroke:#b0b0b0;stroke-dasharray:1.48,0.64;stroke-dashoffset:0;stroke-width:0.4;"/>
     </g>
     <g id="text_11">
      <!-- 2 -->
      <g transform="translate(32.804688 151.800152)scale(0.14 -0.14)">
       <use xlink:href="#LiberationSansNarrow-50"/>
      </g>
     </g>
    </g>
    <g id="ytick_3">
     <g id="line2d_11">
      <path clip-path="url(#pc2a510b90c)" d="M 46.19 72.14621 
L 560.88 72.14621 
" style="fill:none;stroke:#b0b0b0;stroke-dasharray:1.48,0.64;stroke-dashoffset:0;stroke-width:0.4;"/>
     </g>
     <g id="text_12">
      <!-- 4 -->
      <g transform="translate(32.804688 77.219023)scale(0.14 -0.14)">
       <defs>
        <path d="M 35.25 15.578125 
L 35.25 0 
L 28.46875 0 
L 28.46875 15.578125 
L 1.90625 15.578125 
L 1.90625 22.40625 
L 27.6875 68.796875 
L 35.25 68.796875 
L 35.25 22.515625 
L 43.21875 22.515625 
L 43.21875 15.578125 
z
M 28.46875 58.890625 
Q 28.375 58.640625 28.03125 57.90625 
L 27.34375 56.34375 
L 26.5625 54.59375 
Q 26.125 53.65625 25.78125 53.078125 
L 11.328125 27.09375 
Q 11.140625 26.703125 10.75 26.078125 
L 9.96875 24.8125 
L 9.1875 23.484375 
Q 8.796875 22.859375 8.546875 22.515625 
L 28.46875 22.515625 
z
" id="LiberationSansNarrow-52"/>
       </defs>
       <use xlink:href="#LiberationSansNarrow-52"/>
      </g>
     </g>
    </g>
    <g id="text_13">
     <!-- Размер портфеля -->
     <g transform="translate(25.899688 172.185938)rotate(-90)scale(0.14 -0.14)">
      <defs>
       <path d="M 50.34375 48.09375 
Q 50.34375 43.609375 49.125 39.71875 
Q 47.90625 35.84375 45.484375 32.984375 
Q 43.0625 30.125 39.421875 28.46875 
Q 35.796875 26.8125 30.953125 26.8125 
L 14.359375 26.8125 
L 14.359375 0 
L 6.734375 0 
L 6.734375 68.796875 
L 30.46875 68.796875 
Q 35.453125 68.796875 39.1875 67.3125 
Q 42.921875 65.828125 45.40625 63.109375 
Q 47.90625 60.40625 49.125 56.5625 
Q 50.34375 52.734375 50.34375 48.09375 
z
M 42.671875 48 
Q 42.671875 54.546875 39.40625 57.9375 
Q 36.140625 61.328125 29.546875 61.328125 
L 14.359375 61.328125 
L 14.359375 34.1875 
L 29.890625 34.1875 
Q 36.46875 34.1875 39.5625 37.75 
Q 42.671875 41.3125 42.671875 48 
z
" id="LiberationSansNarrow-1056"/>
       <path d="M 16.546875 -0.984375 
Q 10.015625 -0.984375 6.734375 3.21875 
Q 3.46875 7.421875 3.46875 14.75 
Q 3.46875 19.96875 5.09375 23.3125 
Q 6.734375 26.65625 9.34375 28.5625 
Q 11.96875 30.46875 15.328125 31.203125 
Q 18.703125 31.9375 22.171875 32.03125 
L 31.9375 32.234375 
L 31.9375 35.109375 
Q 31.9375 38.375 31.375 40.671875 
Q 30.8125 42.96875 29.640625 44.375 
Q 28.46875 45.796875 26.734375 46.453125 
Q 25 47.125 22.609375 47.125 
Q 20.515625 47.125 18.84375 46.75 
Q 17.1875 46.390625 15.9375 45.4375 
Q 14.703125 44.484375 13.9375 42.84375 
Q 13.1875 41.21875 12.9375 38.71875 
L 5.421875 39.546875 
Q 5.8125 42.671875 6.9375 45.28125 
Q 8.0625 47.90625 10.109375 49.796875 
Q 12.15625 51.703125 15.25 52.75 
Q 18.359375 53.8125 22.796875 53.8125 
Q 30.953125 53.8125 35.078125 49.234375 
Q 39.203125 44.671875 39.203125 36.03125 
L 39.203125 13.28125 
Q 39.203125 9.375 40.03125 7.390625 
Q 40.875 5.421875 43.265625 5.421875 
Q 43.84375 5.421875 44.453125 5.515625 
Q 45.0625 5.609375 45.609375 5.765625 
L 45.609375 0.296875 
Q 44.234375 -0.09375 42.890625 -0.28125 
Q 41.546875 -0.484375 40.046875 -0.484375 
Q 37.984375 -0.484375 36.515625 0.171875 
Q 35.0625 0.828125 34.15625 2.171875 
Q 33.25 3.515625 32.765625 5.484375 
Q 32.28125 7.46875 32.125 10.109375 
L 31.9375 10.109375 
Q 30.765625 7.5625 29.375 5.515625 
Q 27.984375 3.46875 26.140625 2.03125 
Q 24.3125 0.59375 21.9375 -0.1875 
Q 19.578125 -0.984375 16.546875 -0.984375 
z
M 18.21875 5.609375 
Q 21.6875 5.609375 24.25 7.140625 
Q 26.8125 8.6875 28.515625 11.078125 
Q 30.21875 13.484375 31.078125 16.3125 
Q 31.9375 19.140625 31.9375 21.734375 
L 31.9375 26.078125 
L 24.03125 25.875 
Q 21.390625 25.828125 19 25.40625 
Q 16.609375 25 14.8125 23.78125 
Q 13.03125 22.5625 11.953125 20.359375 
Q 10.890625 18.171875 10.890625 14.59375 
Q 10.890625 10.296875 12.796875 7.953125 
Q 14.703125 5.609375 18.21875 5.609375 
z
" id="LiberationSansNarrow-1072"/>
       <path d="M 18.3125 -0.984375 
Q 11.625 -0.984375 7.6875 2.0625 
Q 3.765625 5.125 1.953125 11.421875 
L 8.296875 13.578125 
Q 9.28125 9.765625 11.8125 7.65625 
Q 14.359375 5.5625 18.453125 5.5625 
Q 22.3125 5.5625 24.578125 7.859375 
Q 26.859375 10.15625 26.859375 14.59375 
Q 26.859375 17.484375 25.734375 19.390625 
Q 24.609375 21.296875 22.78125 22.390625 
Q 20.953125 23.484375 18.546875 23.921875 
Q 16.15625 24.359375 13.578125 24.359375 
L 13.578125 31.0625 
Q 16.109375 31.0625 18.40625 31.421875 
Q 20.703125 31.78125 22.4375 32.703125 
Q 24.171875 33.640625 25.140625 35.28125 
Q 26.125 36.921875 26.125 39.453125 
Q 26.125 43.0625 24.140625 45.15625 
Q 22.171875 47.265625 18.453125 47.265625 
Q 17.046875 47.265625 15.65625 46.921875 
Q 14.265625 46.578125 13.03125 45.765625 
Q 11.8125 44.96875 10.984375 43.625 
Q 10.15625 42.28125 9.859375 40.234375 
L 3.421875 41.21875 
Q 3.90625 44.53125 5.125 46.921875 
Q 6.34375 49.3125 8.296875 50.84375 
Q 10.25 52.390625 12.78125 53.09375 
Q 15.328125 53.8125 18.453125 53.8125 
Q 21.875 53.8125 24.625 52.78125 
Q 27.390625 51.765625 29.34375 49.90625 
Q 31.296875 48.046875 32.375 45.5 
Q 33.453125 42.96875 33.453125 39.890625 
Q 33.453125 37.109375 32.5625 34.953125 
Q 31.6875 32.8125 30.25 31.3125 
Q 28.8125 29.828125 27.046875 28.953125 
Q 25.296875 28.078125 23.53125 27.875 
L 23.53125 27.78125 
Q 25.78125 27.484375 27.75 26.484375 
Q 29.734375 25.484375 31.25 23.84375 
Q 32.765625 22.21875 33.609375 19.9375 
Q 34.46875 17.671875 34.46875 14.84375 
Q 34.46875 11.46875 33.484375 8.5625 
Q 32.515625 5.671875 30.484375 3.546875 
Q 28.46875 1.421875 25.4375 0.21875 
Q 22.40625 -0.984375 18.3125 -0.984375 
z
" id="LiberationSansNarrow-1079"/>
       <path d="M 31.546875 0 
L 25.390625 0 
L 12.40625 46.4375 
Q 12.453125 45.171875 12.515625 43.703125 
Q 12.59375 42.234375 12.59375 40.75 
Q 12.59375 39.265625 12.609375 37.859375 
Q 12.640625 36.46875 12.640625 35.359375 
L 12.640625 0 
L 5.671875 0 
L 5.671875 52.828125 
L 16.890625 52.828125 
L 25.734375 20.5625 
Q 26.65625 17.484375 27.390625 13.796875 
Q 28.125 10.109375 28.421875 6.59375 
Q 28.8125 10.109375 29.515625 13.796875 
Q 30.21875 17.484375 31.15625 20.5625 
L 39.984375 52.828125 
L 50.734375 52.828125 
L 50.734375 0 
L 43.796875 0 
L 43.796875 35.359375 
Q 43.796875 36.421875 43.8125 37.890625 
Q 43.84375 39.359375 43.921875 40.921875 
Q 44 42.484375 44.015625 43.9375 
Q 44.046875 45.40625 44.140625 46.53125 
z
" id="LiberationSansNarrow-1084"/>
       <path d="M 42.140625 26.65625 
Q 42.140625 20.65625 41.359375 15.578125 
Q 40.578125 10.5 38.6875 6.828125 
Q 36.8125 3.171875 33.765625 1.09375 
Q 30.71875 -0.984375 26.21875 -0.984375 
Q 21.578125 -0.984375 18.078125 1.171875 
Q 14.59375 3.328125 12.796875 8.203125 
L 12.546875 8.203125 
Q 12.59375 8.109375 12.609375 7.328125 
Q 12.640625 6.546875 12.671875 5.375 
Q 12.703125 4.203125 12.71875 2.75 
Q 12.75 1.3125 12.75 -0.09375 
L 12.75 -20.75 
L 5.515625 -20.75 
L 5.515625 42.046875 
Q 5.515625 43.953125 5.484375 45.703125 
Q 5.46875 47.46875 5.4375 48.90625 
Q 5.421875 50.34375 5.375 51.359375 
Q 5.328125 52.390625 5.28125 52.828125 
L 12.25 52.828125 
Q 12.3125 52.6875 12.359375 51.8125 
L 12.5 49.703125 
Q 12.546875 48.4375 12.59375 47.015625 
Q 12.640625 45.609375 12.640625 44.34375 
L 12.796875 44.34375 
Q 13.765625 46.875 15.0625 48.65625 
Q 16.359375 50.4375 18.015625 51.578125 
Q 19.671875 52.734375 21.671875 53.25 
Q 23.6875 53.765625 26.21875 53.765625 
Q 30.71875 53.765625 33.765625 51.8125 
Q 36.8125 49.859375 38.6875 46.3125 
Q 40.578125 42.78125 41.359375 37.765625 
Q 42.140625 32.765625 42.140625 26.65625 
z
M 34.578125 26.46875 
Q 34.578125 31.34375 34.109375 35.15625 
Q 33.640625 38.96875 32.4375 41.59375 
Q 31.25 44.234375 29.296875 45.59375 
Q 27.34375 46.96875 24.359375 46.96875 
Q 21.96875 46.96875 19.84375 46.140625 
Q 17.71875 45.3125 16.125 42.96875 
Q 14.546875 40.625 13.640625 36.5 
Q 12.75 32.375 12.75 25.78125 
Q 12.75 20.171875 13.5 16.28125 
Q 14.265625 12.40625 15.71875 10.015625 
Q 17.1875 7.625 19.328125 6.5625 
Q 21.484375 5.515625 24.3125 5.515625 
Q 27.34375 5.515625 29.296875 6.921875 
Q 31.25 8.34375 32.4375 11.03125 
Q 33.640625 13.71875 34.109375 17.59375 
Q 34.578125 21.484375 34.578125 26.46875 
z
" id="LiberationSansNarrow-1088"/>
       <path id="LiberationSansNarrow-32"/>
       <path d="M 38.71875 52.828125 
L 38.71875 0 
L 31.546875 0 
L 31.546875 46.4375 
L 12.890625 46.4375 
L 12.890625 0 
L 5.71875 0 
L 5.71875 52.828125 
z
" id="LiberationSansNarrow-1087"/>
       <path d="M 42.140625 26.46875 
Q 42.140625 12.59375 37.125 5.796875 
Q 32.125 -0.984375 22.609375 -0.984375 
Q 18.0625 -0.984375 14.515625 0.671875 
Q 10.984375 2.34375 8.515625 5.765625 
Q 6.0625 9.1875 4.765625 14.328125 
Q 3.46875 19.484375 3.46875 26.46875 
Q 3.46875 53.8125 22.859375 53.8125 
Q 27.875 53.8125 31.5625 52.09375 
Q 35.25 50.390625 37.59375 46.96875 
Q 39.9375 43.5625 41.03125 38.421875 
Q 42.140625 33.296875 42.140625 26.46875 
z
M 34.578125 26.46875 
Q 34.578125 32.625 33.8125 36.625 
Q 33.0625 40.625 31.546875 43.015625 
Q 30.03125 45.40625 27.859375 46.359375 
Q 25.6875 47.3125 23 47.3125 
Q 20.21875 47.3125 17.984375 46.3125 
Q 15.765625 45.3125 14.203125 42.890625 
Q 12.640625 40.484375 11.828125 36.46875 
Q 11.03125 32.46875 11.03125 26.46875 
Q 11.03125 20.3125 11.90625 16.28125 
Q 12.796875 12.25 14.328125 9.859375 
Q 15.875 7.46875 17.96875 6.484375 
Q 20.0625 5.515625 22.5625 5.515625 
Q 25.34375 5.515625 27.5625 6.46875 
Q 29.78125 7.421875 31.34375 9.8125 
Q 32.90625 12.203125 33.734375 16.25 
Q 34.578125 20.3125 34.578125 26.46875 
z
" id="LiberationSansNarrow-1086"/>
       <path d="M 1.421875 52.828125 
L 36.140625 52.828125 
L 36.140625 46.4375 
L 22.359375 46.4375 
L 22.359375 0 
L 15.1875 0 
L 15.1875 46.4375 
L 1.421875 46.4375 
z
" id="LiberationSansNarrow-1090"/>
       <path d="M 64.015625 26.65625 
Q 64.015625 20.65625 63.234375 15.578125 
Q 62.453125 10.5 60.734375 6.828125 
Q 59.03125 3.171875 56.21875 1.09375 
Q 53.421875 -0.984375 49.359375 -0.984375 
Q 45.171875 -0.984375 42.015625 1.171875 
Q 38.875 3.328125 37.15625 8.203125 
L 36.921875 8.203125 
Q 37.015625 6.5 37.0625 4.609375 
Q 37.109375 2.734375 37.109375 -0.09375 
L 37.109375 -20.75 
L 30.328125 -20.75 
L 30.328125 -0.09375 
Q 30.328125 2.546875 30.375 4.546875 
Q 30.421875 6.546875 30.515625 8.5 
L 30.328125 8.5 
Q 28.46875 3.421875 25.484375 1.21875 
Q 22.515625 -0.984375 18.0625 -0.984375 
Q 10.59375 -0.984375 7.03125 5.734375 
Q 3.46875 12.453125 3.46875 26.171875 
Q 3.46875 40.046875 7.15625 46.921875 
Q 10.84375 53.8125 18.0625 53.8125 
Q 22.5625 53.8125 25.53125 51.609375 
Q 28.515625 49.421875 30.328125 44.625 
L 30.515625 44.625 
Q 30.515625 45.125 30.46875 46.125 
Q 30.421875 47.125 30.375 48.25 
L 30.375 50.390625 
Q 30.328125 51.421875 30.328125 52 
L 30.328125 72.46875 
L 37.109375 72.46875 
L 37.109375 51.953125 
Q 37.109375 51.421875 37.078125 50.359375 
Q 37.0625 49.3125 37.0625 48.15625 
Q 37.0625 47.015625 37.03125 45.96875 
Q 37.015625 44.921875 37.015625 44.34375 
L 37.203125 44.34375 
Q 39.0625 49.421875 41.9375 51.59375 
Q 44.828125 53.765625 49.359375 53.765625 
Q 53.421875 53.765625 56.21875 51.8125 
Q 59.03125 49.859375 60.734375 46.3125 
Q 62.453125 42.78125 63.234375 37.765625 
Q 64.015625 32.765625 64.015625 26.65625 
z
M 11.03125 26.46875 
Q 11.03125 21 11.546875 17.09375 
Q 12.0625 13.1875 13.1875 10.671875 
Q 14.3125 8.15625 16.015625 6.984375 
Q 17.71875 5.8125 20.125 5.8125 
Q 22.515625 5.8125 24.390625 6.859375 
Q 26.265625 7.90625 27.5625 10.296875 
Q 28.859375 12.703125 29.53125 16.53125 
Q 30.21875 20.359375 30.328125 25.875 
L 30.328125 27.046875 
Q 30.328125 32.671875 29.640625 36.546875 
Q 28.953125 40.4375 27.65625 42.828125 
Q 26.375 45.21875 24.484375 46.265625 
Q 22.609375 47.3125 20.171875 47.3125 
Q 17.875 47.3125 16.15625 46.1875 
Q 14.453125 45.0625 13.296875 42.578125 
Q 12.15625 40.09375 11.59375 36.109375 
Q 11.03125 32.125 11.03125 26.46875 
z
M 56.453125 26.46875 
Q 56.453125 31.34375 55.984375 35.15625 
Q 55.515625 38.96875 54.46875 41.59375 
Q 53.421875 44.234375 51.65625 45.59375 
Q 49.90625 46.96875 47.3125 46.96875 
Q 45.21875 46.96875 43.375 46.140625 
Q 41.546875 45.3125 40.125 42.96875 
Q 38.71875 40.625 37.90625 36.5 
Q 37.109375 32.375 37.109375 25.78125 
L 37.109375 24.65625 
Q 37.15625 19.390625 37.859375 15.71875 
Q 38.578125 12.0625 39.859375 9.78125 
Q 41.15625 7.515625 43.015625 6.515625 
Q 44.875 5.515625 47.265625 5.515625 
Q 49.859375 5.515625 51.609375 6.921875 
Q 53.375 8.34375 54.4375 11.03125 
Q 55.515625 13.71875 55.984375 17.59375 
Q 56.453125 21.484375 56.453125 26.46875 
z
" id="LiberationSansNarrow-1092"/>
       <path d="M 34.859375 0 
L 34.859375 46.4375 
L 19.875 46.4375 
Q 18.890625 37.453125 18.03125 30.4375 
Q 17.1875 23.4375 16.3125 18.15625 
Q 15.4375 12.890625 14.40625 9.25 
Q 13.375 5.609375 11.953125 3.34375 
Q 10.546875 1.078125 8.65625 0.046875 
Q 6.78125 -0.984375 4.203125 -0.984375 
Q 3.03125 -0.984375 2.078125 -0.78125 
Q 1.125 -0.59375 0.4375 -0.34375 
L 0.4375 5.953125 
Q 0.875 5.765625 1.625 5.640625 
Q 2.390625 5.515625 3.171875 5.515625 
Q 4.59375 5.515625 5.59375 6.53125 
Q 6.59375 7.5625 7.390625 9.859375 
Q 8.203125 12.15625 8.859375 15.796875 
Q 9.515625 19.4375 10.203125 24.703125 
Q 10.890625 29.984375 11.625 36.921875 
L 13.375 52.828125 
L 42.140625 52.828125 
L 42.140625 0 
z
" id="LiberationSansNarrow-1083"/>
      </defs>
      <use xlink:href="#LiberationSansNarrow-1056"/>
      <use x="51.3125" xlink:href="#LiberationSansNarrow-1072"/>
      <use x="95.792969" xlink:href="#LiberationSansNarrow-1079"/>
      <use x="133.341797" xlink:href="#LiberationSansNarrow-1084"/>
      <use x="189.738281" xlink:href="#LiberationSansNarrow-1077"/>
      <use x="235.34375" xlink:href="#LiberationSansNarrow-1088"/>
      <use x="280.949219" xlink:href="#LiberationSansNarrow-32"/>
      <use x="303.751953" xlink:href="#LiberationSansNarrow-1087"/>
      <use x="348.185547" xlink:href="#LiberationSansNarrow-1086"/>
      <use x="393.791016" xlink:href="#LiberationSansNarrow-1088"/>
      <use x="437.146484" xlink:href="#LiberationSansNarrow-1090"/>
      <use x="474.695312" xlink:href="#LiberationSansNarrow-1092"/>
      <use x="542.175781" xlink:href="#LiberationSansNarrow-1077"/>
      <use x="584.40625" xlink:href="#LiberationSansNarrow-1083"/>
      <use x="632.208984" xlink:href="#LiberationSansNarrow-1103"/>
     </g>
    </g>
   </g>
   <g id="line2d_12">
    <path clip-path="url(#pc2a510b90c)" d="M 69.585 222.881114 
L 70.888343 224.547273 
L 72.191685 223.574753 
L 73.495028 220.385502 
L 74.79837 221.290364 
L 76.101713 217.947254 
L 77.405056 216.586643 
L 78.708398 214.687369 
L 80.011741 207.517 
L 81.315084 203.651849 
L 82.618426 204.615316 
L 83.921769 207.710608 
L 85.225111 209.554276 
L 86.528454 209.364151 
L 87.831797 213.323192 
L 91.741825 202.988151 
L 93.045167 205.044917 
L 94.34851 205.996616 
L 95.651852 209.2256 
L 96.955195 209.477146 
L 98.258538 209.472703 
L 99.56188 209.110945 
L 102.168565 211.774891 
L 103.471908 210.603686 
L 104.775251 204.166165 
L 106.078593 202.135151 
L 107.381936 202.163618 
L 108.685279 200.511324 
L 109.988621 197.265309 
L 111.291964 192.772499 
L 112.595306 189.14731 
L 113.898649 181.377818 
L 115.201992 175.026252 
L 116.505334 172.992549 
L 117.808677 172.893314 
L 119.112019 174.024914 
L 120.415362 173.064644 
L 121.718705 175.466125 
L 123.022047 178.303512 
L 124.32539 178.802167 
L 125.628733 180.668493 
L 126.932075 182.172621 
L 128.235418 184.838947 
L 129.53876 184.451648 
L 130.842103 185.699139 
L 132.145446 187.746395 
L 133.448788 187.471225 
L 136.055474 182.198806 
L 137.358816 180.818786 
L 138.662159 180.641219 
L 139.965501 180.351385 
L 142.572187 191.720511 
L 143.875529 195.484743 
L 145.178872 197.81069 
L 146.482214 196.390478 
L 147.785557 192.857427 
L 149.0889 192.824221 
L 150.392242 191.016613 
L 151.695585 192.127744 
L 152.998928 196.529913 
L 154.30227 195.833866 
L 155.605613 194.759568 
L 158.212298 186.206236 
L 159.515641 185.465824 
L 163.425669 175.710705 
L 164.729011 176.369493 
L 166.032354 174.19411 
L 167.335696 173.949115 
L 168.639039 175.316486 
L 169.942382 182.15983 
L 171.245724 183.355963 
L 172.549067 182.842885 
L 173.852409 184.306815 
L 175.155752 182.017931 
L 176.459095 177.585277 
L 177.762437 173.62205 
L 179.06578 168.670502 
L 180.369123 168.402474 
L 181.672465 168.921222 
L 182.975808 171.763893 
L 184.27915 172.819622 
L 185.582493 175.363998 
L 186.885836 176.938219 
L 189.492521 173.132366 
L 190.795864 172.496745 
L 192.099206 172.889165 
L 193.402549 172.929814 
L 194.705891 171.89517 
L 196.009234 170.692624 
L 197.312577 172.3449 
L 198.615919 170.463667 
L 199.919262 170.978008 
L 201.222604 170.995258 
L 202.525947 179.931411 
L 203.82929 187.530666 
L 205.132632 191.323084 
L 206.435975 188.634203 
L 207.739318 186.985814 
L 209.04266 186.901379 
L 211.649345 192.103754 
L 212.952688 190.493699 
L 214.256031 194.596224 
L 215.559373 195.3071 
L 216.862716 199.29751 
L 218.166058 199.647732 
L 219.469401 199.763636 
L 220.772744 195.475203 
L 222.076086 187.70518 
L 223.379429 180.873245 
L 224.682772 180.391626 
L 225.986114 175.64143 
L 227.289457 174.482721 
L 228.592799 170.606064 
L 229.896142 168.927797 
L 232.502827 159.350688 
L 233.80617 155.679055 
L 235.109513 153.899616 
L 236.412855 158.067656 
L 237.716198 157.40162 
L 239.01954 162.424453 
L 240.322883 169.527295 
L 241.626226 172.862004 
L 242.929568 174.014637 
L 244.232911 176.155529 
L 245.536253 180.675449 
L 246.839596 179.727739 
L 248.142939 182.460048 
L 249.446281 181.228918 
L 250.749624 180.393217 
L 252.052967 180.635126 
L 253.356309 181.629652 
L 254.659652 180.63928 
L 255.962994 178.768453 
L 257.266337 176.554667 
L 258.56968 177.397336 
L 259.873022 178.426141 
L 261.176365 180.421945 
L 262.479708 178.761932 
L 263.78305 174.443477 
L 265.086393 176.2061 
L 266.389735 175.616273 
L 267.693078 177.074579 
L 268.996421 177.256566 
L 270.299763 180.303331 
L 271.603106 181.419417 
L 272.906448 174.830817 
L 274.209791 175.369565 
L 275.513134 174.966523 
L 276.816476 171.800456 
L 278.119819 167.741902 
L 280.726504 160.780965 
L 282.029847 159.124525 
L 283.333189 156.029477 
L 284.636532 151.723703 
L 285.939875 151.649858 
L 287.243217 155.057609 
L 288.54656 152.917092 
L 289.849903 152.91535 
L 292.456588 151.988409 
L 293.75993 152.961043 
L 295.063273 151.02356 
L 296.366616 151.898079 
L 297.669958 148.789094 
L 298.973301 147.443192 
L 300.276643 150.62433 
L 301.579986 148.731239 
L 302.883329 144.499031 
L 304.186671 141.423987 
L 305.490014 136.104194 
L 306.793357 133.842955 
L 308.096699 135.040142 
L 309.400042 137.250531 
L 310.703384 137.445362 
L 312.006727 136.885624 
L 313.31007 136.554581 
L 314.613412 137.339716 
L 315.916755 140.978305 
L 317.220097 144.048471 
L 318.52344 143.35826 
L 319.826783 144.675856 
L 321.130125 145.616173 
L 322.433468 149.472606 
L 323.736811 147.102065 
L 325.040153 145.12838 
L 326.343496 145.369817 
L 327.646838 148.791585 
L 328.950181 153.08028 
L 330.253524 156.191827 
L 331.556866 156.136674 
L 332.860209 157.927778 
L 334.163552 158.857859 
L 335.466894 155.937111 
L 338.073579 160.178905 
L 339.376922 164.044089 
L 340.680265 171.73223 
L 341.983607 172.797394 
L 343.28695 174.899664 
L 344.590292 174.943817 
L 345.893635 175.826316 
L 348.50032 171.019442 
L 349.803663 173.565302 
L 351.107006 174.184182 
L 352.410348 175.383025 
L 353.713691 174.087597 
L 355.017033 173.073102 
L 356.320376 173.730036 
L 357.623719 176.52131 
L 358.927061 178.109064 
L 360.230404 177.827121 
L 361.533747 169.982176 
L 362.837089 164.866004 
L 364.140432 157.042271 
L 365.443774 152.699528 
L 366.747117 149.857044 
L 368.05046 149.674502 
L 369.353802 147.521601 
L 370.657145 145.594197 
L 371.960487 147.701596 
L 373.26383 149.135964 
L 374.567173 150.926236 
L 375.870515 149.599779 
L 377.173858 150.871481 
L 378.477201 149.301466 
L 379.780543 148.385403 
L 381.083886 152.586058 
L 383.690571 162.929678 
L 384.993914 163.733979 
L 386.297256 161.959512 
L 388.903942 157.054565 
L 390.207284 155.109592 
L 391.510627 153.783681 
L 394.117312 146.643673 
L 395.420655 143.696429 
L 396.723997 144.902543 
L 398.02734 146.643168 
L 399.330682 147.434301 
L 400.634025 145.624569 
L 401.937368 140.379831 
L 403.24071 141.692582 
L 404.544053 144.333906 
L 405.847396 144.916016 
L 407.150738 143.250228 
L 408.454081 139.760807 
L 409.757423 138.125182 
L 411.060766 136.861493 
L 412.364109 135.434082 
L 413.667451 132.510031 
L 414.970794 128.913254 
L 416.274136 123.23602 
L 417.577479 122.030065 
L 418.880822 119.256721 
L 420.184164 117.731201 
L 421.487507 116.763336 
L 422.79085 118.665796 
L 424.094192 121.831864 
L 425.397535 122.408139 
L 426.700877 119.340651 
L 428.00422 117.518462 
L 429.307563 120.655441 
L 430.610905 122.447799 
L 431.914248 125.284522 
L 433.217591 125.805543 
L 434.520933 125.578458 
L 437.127618 133.475447 
L 438.430961 135.378684 
L 439.734304 135.103926 
L 441.037646 127.487937 
L 442.340989 125.003658 
L 443.644331 126.601543 
L 444.947674 124.401568 
L 446.251017 125.16622 
L 447.554359 121.289503 
L 448.857702 120.211103 
L 450.161045 124.896706 
L 451.464387 126.251354 
L 452.76773 121.389392 
L 454.071072 119.47527 
L 455.374415 123.485448 
L 456.677758 124.633607 
L 460.587786 133.515107 
L 461.891128 141.052755 
L 463.194471 145.26774 
L 464.497813 146.48342 
L 465.801156 148.969637 
L 467.104499 149.047109 
L 468.407841 148.687906 
L 471.014526 145.362857 
L 472.317869 143.480693 
L 473.621212 139.899757 
L 474.924554 138.832563 
L 476.227897 132.898494 
L 477.53124 128.020728 
L 478.834582 121.819129 
L 480.137925 122.257846 
L 481.441267 124.37117 
L 482.74461 124.223788 
L 484.047953 126.669623 
L 485.351295 126.66169 
L 486.654638 121.300446 
L 487.957981 117.854791 
L 489.261323 117.395188 
L 491.868008 119.945046 
L 494.474694 103.823549 
L 495.778036 100.966861 
L 497.081379 99.608815 
L 498.384721 101.495518 
L 499.688064 98.775413 
L 500.991407 99.10798 
L 502.294749 99.837338 
L 503.598092 96.81763 
L 504.901435 94.29387 
L 506.204777 92.720304 
L 507.50812 87.09964 
L 508.811462 80.238102 
L 510.114805 82.676971 
L 511.418148 89.740308 
L 512.72149 92.294062 
L 514.024833 90.181501 
L 515.328175 87.525966 
L 516.631518 79.390005 
L 517.934861 73.554655 
L 519.238203 61.819956 
L 520.541546 55.162094 
L 521.844889 52.368422 
L 523.148231 52.503679 
L 524.451574 49.714226 
L 525.754916 48.61757 
L 527.058259 48.2805 
L 528.361602 52.206373 
L 529.664944 52.737295 
L 530.968287 55.519455 
L 532.27163 59.2659 
L 533.574972 62.524214 
L 534.878315 62.925627 
L 536.181657 63.528459 
L 537.485 63.817002 
L 537.485 63.817002 
" style="fill:none;stroke:#1f77b4;stroke-linecap:square;"/>
   </g>
   <g id="line2d_13">
    <path clip-path="url(#pc2a510b90c)" d="M 69.585 222.443268 
L 70.888343 220.415055 
L 74.79837 215.170632 
L 76.101713 214.251644 
L 77.405056 214.22997 
L 78.708398 211.946217 
L 81.315084 199.423732 
L 82.618426 197.328931 
L 83.921769 193.036918 
L 85.225111 186.72365 
L 87.831797 177.541481 
L 90.438482 167.757441 
L 91.741825 165.527953 
L 93.045167 164.545966 
L 94.34851 163.809198 
L 95.651852 161.512684 
L 96.955195 161.007572 
L 98.258538 158.918253 
L 99.56188 158.712516 
L 100.865223 161.903623 
L 102.168565 162.049968 
L 103.471908 162.474787 
L 104.775251 164.145699 
L 106.078593 164.503816 
L 107.381936 166.65213 
L 109.988621 179.412709 
L 111.291964 180.867452 
L 113.898649 187.558136 
L 115.201992 187.596835 
L 116.505334 190.22039 
L 117.808677 191.91118 
L 119.112019 188.202804 
L 120.415362 183.458392 
L 121.718705 182.26022 
L 123.022047 180.300589 
L 124.32539 181.061566 
L 125.628733 186.15615 
L 126.932075 187.194173 
L 128.235418 182.894854 
L 129.53876 184.810967 
L 130.842103 187.391136 
L 132.145446 189.271316 
L 133.448788 187.911598 
L 134.752131 187.592505 
L 136.055474 183.448313 
L 137.358816 179.749274 
L 138.662159 177.298615 
L 139.965501 173.449039 
L 141.268844 168.403915 
L 142.572187 166.584084 
L 143.875529 168.630313 
L 145.178872 168.463581 
L 146.482214 167.667667 
L 147.785557 165.687119 
L 149.0889 162.143078 
L 151.695585 156.825262 
L 152.998928 156.473763 
L 154.30227 153.264052 
L 155.605613 155.821148 
L 156.908955 151.595938 
L 158.212298 150.551775 
L 159.515641 152.583196 
L 160.818983 156.986592 
L 162.122326 155.400637 
L 163.425669 157.744658 
L 164.729011 161.741318 
L 166.032354 159.749496 
L 167.335696 161.446439 
L 168.639039 164.808465 
L 169.942382 164.010737 
L 171.245724 161.299628 
L 172.549067 158.88788 
L 173.852409 161.136151 
L 175.155752 164.059883 
L 176.459095 163.176669 
L 177.762437 158.763295 
L 179.06578 151.075936 
L 180.369123 145.222201 
L 181.672465 144.994602 
L 182.975808 143.054064 
L 184.27915 146.938564 
L 185.582493 152.801519 
L 186.885836 155.817245 
L 188.189178 156.464339 
L 189.492521 154.735262 
L 190.795864 154.271301 
L 192.099206 155.839727 
L 193.402549 157.645729 
L 194.705891 158.2657 
L 196.009234 162.254694 
L 197.312577 160.629874 
L 198.615919 162.86223 
L 199.919262 163.205823 
L 201.222604 165.141104 
L 202.525947 170.740302 
L 203.82929 172.181862 
L 205.132632 170.079889 
L 206.435975 167.572642 
L 207.739318 161.399056 
L 209.04266 150.945293 
L 210.346003 146.479768 
L 211.649345 148.505113 
L 212.952688 148.332302 
L 214.256031 147.128771 
L 215.559373 149.568054 
L 216.862716 148.435024 
L 218.166058 146.768293 
L 219.469401 150.643781 
L 220.772744 153.031884 
L 222.076086 147.443523 
L 223.379429 143.755498 
L 224.682772 144.788757 
L 225.986114 146.864014 
L 227.289457 146.8711 
L 228.592799 144.798038 
L 229.896142 142.058755 
L 231.199485 140.640035 
L 232.502827 136.722207 
L 233.80617 136.140209 
L 235.109513 134.616617 
L 236.412855 135.326401 
L 237.716198 136.174012 
L 239.01954 133.517406 
L 240.322883 128.939924 
L 241.626226 126.468088 
L 242.929568 120.765079 
L 244.232911 114.467893 
L 245.536253 111.707638 
L 248.142939 113.084271 
L 249.446281 109.75331 
L 250.749624 105.970887 
L 252.052967 101.677034 
L 253.356309 98.196175 
L 254.659652 95.48666 
L 255.962994 94.858716 
L 257.266337 96.126415 
L 259.873022 99.842837 
L 261.176365 102.779881 
L 262.479708 103.540335 
L 263.78305 103.932462 
L 265.086393 106.75067 
L 266.389735 113.714468 
L 267.693078 121.881465 
L 270.299763 130.106365 
L 271.603106 128.773389 
L 272.906448 129.941082 
L 274.209791 126.337976 
L 275.513134 125.501236 
L 276.816476 123.131908 
L 278.119819 123.465742 
L 279.423162 125.17779 
L 280.726504 127.58027 
L 282.029847 127.409973 
L 283.333189 128.856499 
L 284.636532 131.390949 
L 285.939875 130.870224 
L 287.243217 129.1306 
L 288.54656 128.672849 
L 289.849903 125.51616 
L 291.153245 127.903955 
L 292.456588 127.191004 
L 293.75993 123.922066 
L 295.063273 117.039102 
L 296.366616 117.282007 
L 297.669958 118.778583 
L 298.973301 119.357502 
L 300.276643 115.835999 
L 301.579986 116.992199 
L 302.883329 118.853741 
L 304.186671 118.715595 
L 305.490014 117.529729 
L 306.793357 118.987646 
L 309.400042 116.634974 
L 310.703384 116.137036 
L 312.006727 113.196395 
L 313.31007 112.404697 
L 314.613412 109.028838 
L 315.916755 108.402713 
L 317.220097 109.536397 
L 318.52344 111.009937 
L 319.826783 111.204558 
L 321.130125 110.337306 
L 322.433468 113.663521 
L 323.736811 115.347717 
L 325.040153 115.953612 
L 326.343496 120.125028 
L 327.646838 123.51808 
L 328.950181 126.212272 
L 330.253524 124.40348 
L 331.556866 119.870077 
L 332.860209 120.796177 
L 334.163552 118.090632 
L 335.466894 120.546154 
L 336.770237 119.568782 
L 338.073579 119.489095 
L 339.376922 115.637209 
L 340.680265 110.763633 
L 341.983607 107.507953 
L 343.28695 110.276732 
L 344.590292 116.486556 
L 345.893635 118.416803 
L 347.196978 122.966992 
L 348.50032 124.431073 
L 349.803663 121.452357 
L 351.107006 120.325429 
L 352.410348 120.484426 
L 353.713691 116.86648 
L 355.017033 114.188754 
L 356.320376 116.132162 
L 357.623719 112.795069 
L 358.927061 110.045682 
L 360.230404 111.81368 
L 361.533747 109.896757 
L 362.837089 110.20744 
L 364.140432 110.995025 
L 365.443774 107.994396 
L 366.747117 109.27204 
L 368.05046 108.951083 
L 369.353802 107.617519 
L 370.657145 108.231161 
L 371.960487 107.856645 
L 373.26383 109.72162 
L 374.567173 108.892221 
L 375.870515 110.225599 
L 377.173858 107.164081 
L 378.477201 106.322974 
L 381.083886 99.626389 
L 382.387228 97.160506 
L 383.690571 95.369028 
L 386.297256 105.965198 
L 387.600599 106.25258 
L 388.903942 105.683428 
L 390.207284 106.639951 
L 391.510627 105.876553 
L 392.813969 109.467426 
L 394.117312 112.557324 
L 395.420655 113.003004 
L 396.723997 110.105087 
L 398.02734 105.504374 
L 399.330682 104.704462 
L 400.634025 104.992622 
L 401.937368 106.04383 
L 403.24071 105.494978 
L 404.544053 103.876759 
L 405.847396 101.552526 
L 407.150738 98.569357 
L 408.454081 93.942057 
L 409.757423 92.338761 
L 411.060766 90.960578 
L 412.364109 86.740239 
L 413.667451 83.278756 
L 414.970794 81.455317 
L 416.274136 81.969557 
L 417.577479 83.996324 
L 418.880822 83.574944 
L 420.184164 86.836385 
L 421.487507 89.594907 
L 422.79085 86.429828 
L 424.094192 85.810311 
L 425.397535 82.810343 
L 426.700877 82.814317 
L 428.00422 80.925201 
L 429.307563 77.946746 
L 431.914248 72.779216 
L 433.217591 71.994017 
L 434.520933 72.507315 
L 435.824276 75.435645 
L 437.127618 77.110557 
L 438.430961 78.444867 
L 439.734304 81.129063 
L 441.037646 81.258385 
L 442.340989 82.119989 
L 443.644331 81.974105 
L 444.947674 83.344021 
L 446.251017 82.274216 
L 447.554359 82.791894 
L 448.857702 86.003487 
L 450.161045 84.68564 
L 451.464387 86.832831 
L 452.76773 89.669259 
L 454.071072 84.559618 
L 455.374415 78.540999 
L 456.677758 74.826019 
L 457.9811 73.372508 
L 459.284443 70.031468 
L 460.587786 68.266707 
L 461.891128 67.952573 
L 463.194471 68.656537 
L 464.497813 69.825215 
L 465.801156 73.083457 
L 467.104499 71.450835 
L 468.407841 67.992841 
L 469.711184 62.956862 
L 472.317869 49.240195 
L 473.621212 44.132007 
L 474.924554 42.158912 
L 476.227897 44.24178 
L 477.53124 42.671407 
L 478.834582 43.456055 
L 480.137925 42.044508 
L 481.441267 45.264499 
L 482.74461 46.929804 
L 484.047953 47.081088 
L 485.351295 45.687567 
L 486.654638 43.63553 
L 487.957981 43.647482 
L 489.261323 40.345832 
L 490.564666 44.035425 
L 491.868008 47.025553 
L 493.171351 48.275792 
L 494.474694 47.069623 
L 495.778036 46.619784 
L 497.081379 45.381174 
L 498.384721 46.163429 
L 499.688064 46.385043 
L 500.991407 42.052967 
L 502.294749 41.132267 
L 503.598092 41.419561 
L 504.901435 37.457341 
L 506.204777 37.28759 
L 507.50812 39.81754 
L 508.811462 43.623294 
L 510.114805 40.001665 
L 511.418148 37.57272 
L 512.72149 38.378765 
L 514.024833 42.241565 
L 515.328175 45.330284 
L 516.631518 42.832105 
L 517.934861 39.739719 
L 519.238203 62.924452 
L 520.541546 60.395777 
L 521.844889 59.00924 
L 523.148231 61.084153 
L 524.451574 59.177389 
L 525.754916 63.207333 
L 527.058259 64.824233 
L 528.361602 63.874585 
L 529.664944 64.418402 
L 530.968287 65.390269 
L 532.27163 70.47059 
L 533.574972 72.339967 
L 534.878315 70.153426 
L 536.181657 65.59102 
L 537.485 63.817002 
L 537.485 63.817002 
" style="fill:none;stroke:#ff7f0e;stroke-linecap:square;"/>
   </g>
   <g id="line2d_14">
    <path clip-path="url(#pc2a510b90c)" d="M 69.585 222.661745 
L 70.888343 222.445253 
L 72.191685 221.105213 
L 73.495028 218.60486 
L 74.79837 218.160189 
L 76.101713 216.049953 
L 77.405056 215.366141 
L 78.708398 213.272179 
L 80.011741 206.430934 
L 81.315084 201.475332 
L 82.618426 200.857909 
L 83.921769 200.008077 
L 86.528454 195.165236 
L 87.831797 194.364683 
L 90.438482 185.868012 
L 91.741825 183.098645 
L 93.045167 183.454567 
L 95.651852 183.500047 
L 96.955195 183.314332 
L 98.258538 182.095232 
L 99.56188 181.824318 
L 100.865223 184.115534 
L 102.168565 184.819353 
L 103.471908 184.437744 
L 104.775251 181.859074 
L 106.078593 180.951837 
L 107.381936 181.967021 
L 108.685279 183.940384 
L 109.988621 184.749853 
L 111.291964 182.704483 
L 112.595306 181.845766 
L 113.898649 178.1987 
L 115.201992 174.133131 
L 116.505334 174.377668 
L 117.808677 175.146639 
L 119.112019 173.876325 
L 120.415362 171.004845 
L 121.718705 171.5582 
L 123.022047 171.879323 
L 124.32539 172.515419 
L 125.628733 176.048982 
L 126.932075 177.311885 
L 128.235418 176.260833 
L 129.53876 177.090523 
L 132.145446 181.001662 
L 133.448788 180.181064 
L 134.752131 178.75333 
L 136.055474 175.306872 
L 137.358816 172.752464 
L 138.662159 171.411766 
L 139.965501 169.271015 
L 141.268844 169.173781 
L 142.572187 170.576108 
L 143.875529 173.368052 
L 145.178872 174.269128 
L 146.482214 173.204892 
L 147.785557 170.442492 
L 149.0889 168.637894 
L 150.392242 166.428764 
L 151.695585 165.56717 
L 152.998928 167.467444 
L 154.30227 165.433804 
L 155.605613 166.261332 
L 156.908955 162.017117 
L 158.212298 159.403151 
L 159.515641 160.075443 
L 160.818983 160.598661 
L 162.122326 158.094225 
L 163.425669 157.625042 
L 164.729011 159.884367 
L 166.032354 157.796925 
L 167.335696 158.473535 
L 168.639039 160.778314 
L 169.942382 163.89526 
L 171.245724 163.150447 
L 172.549067 161.685818 
L 173.852409 163.541405 
L 175.155752 163.792297 
L 176.459095 161.059821 
L 177.762437 156.880504 
L 179.06578 150.543661 
L 180.369123 147.374835 
L 181.672465 147.504694 
L 182.975808 147.802037 
L 184.27915 150.344533 
L 185.582493 154.607574 
L 186.885836 156.923515 
L 188.189178 156.33766 
L 189.492521 154.503238 
L 190.795864 153.954789 
L 193.402549 155.866268 
L 194.705891 155.65257 
L 196.009234 156.963241 
L 198.615919 157.106306 
L 199.919262 157.538252 
L 201.222604 158.472521 
L 202.525947 165.787424 
L 203.82929 170.306905 
L 205.132632 171.070536 
L 206.435975 168.47491 
L 207.739318 164.455681 
L 209.04266 158.690062 
L 210.346003 157.645368 
L 211.649345 159.944839 
L 212.952688 159.074121 
L 214.256031 160.381836 
L 215.559373 161.996176 
L 216.862716 163.247701 
L 218.166058 162.510302 
L 219.469401 164.620844 
L 220.772744 163.771283 
L 222.076086 157.113913 
L 223.379429 151.862418 
L 224.682772 152.136995 
L 225.986114 150.691319 
L 227.289457 150.093871 
L 228.592799 147.077994 
L 229.896142 144.890739 
L 231.199485 141.781198 
L 232.502827 137.313921 
L 233.80617 135.072001 
L 235.109513 133.410802 
L 236.412855 135.952937 
L 237.716198 135.993243 
L 239.01954 137.295791 
L 240.322883 138.423221 
L 241.626226 138.776339 
L 244.232911 133.80918 
L 245.536253 134.211714 
L 246.839596 134.150188 
L 248.142939 135.75805 
L 252.052967 128.362387 
L 253.356309 126.679484 
L 254.659652 124.654032 
L 255.962994 123.52809 
L 257.266337 123.026887 
L 259.873022 125.799957 
L 261.176365 128.252678 
L 262.479708 127.754064 
L 263.78305 125.644441 
L 265.086393 127.899459 
L 266.389735 130.701534 
L 267.693078 135.069205 
L 268.996421 136.864121 
L 270.299763 140.418196 
L 271.603106 140.48641 
L 272.906448 137.636237 
L 274.209791 136.138839 
L 275.513134 135.522152 
L 276.816476 132.747092 
L 278.119819 130.799357 
L 279.423162 129.766429 
L 280.726504 128.947624 
L 283.333189 126.870398 
L 284.636532 125.475004 
L 285.939875 125.210567 
L 287.243217 126.362552 
L 288.54656 125.056838 
L 289.849903 123.466831 
L 291.153245 124.419154 
L 292.456588 123.832292 
L 293.75993 122.653473 
L 295.063273 118.150707 
L 296.366616 118.696675 
L 297.669958 117.934162 
L 301.579986 116.924941 
L 302.883329 115.735619 
L 304.186671 114.108985 
L 305.490014 110.788264 
L 306.793357 110.293441 
L 308.096699 110.349605 
L 309.400042 110.90686 
L 310.703384 110.762286 
L 312.006727 109.022917 
L 313.31007 108.463148 
L 314.613412 107.142016 
L 315.916755 108.579599 
L 317.220097 110.641653 
L 318.52344 111.067005 
L 319.826783 111.820184 
L 321.130125 111.844409 
L 322.433468 115.43147 
L 323.736811 115.082701 
L 325.040153 114.379787 
L 326.343496 116.521373 
L 328.950181 123.440998 
L 330.253524 124.098777 
L 331.556866 121.763734 
L 332.860209 123.112724 
L 334.163552 122.153911 
L 335.466894 121.854154 
L 336.770237 122.426779 
L 338.073579 123.463378 
L 339.376922 123.333103 
L 340.680265 124.152499 
L 341.983607 122.812115 
L 343.28695 125.284432 
L 344.590292 128.664274 
L 345.893635 130.111081 
L 347.196978 131.303633 
L 349.803663 130.561023 
L 351.107006 130.299917 
L 352.410348 130.972107 
L 353.713691 128.48786 
L 355.017033 126.615591 
L 356.320376 127.932153 
L 357.623719 127.494041 
L 358.927061 126.752783 
L 360.230404 127.561926 
L 361.533747 122.790751 
L 362.837089 120.420103 
L 365.443774 113.085922 
L 366.747117 112.264064 
L 368.05046 112.013595 
L 369.353802 110.261224 
L 370.657145 109.561012 
L 371.960487 110.455476 
L 373.26383 112.099854 
L 374.567173 112.596549 
L 375.870515 112.567071 
L 377.173858 111.682208 
L 378.477201 110.473723 
L 379.780543 108.301704 
L 381.083886 108.619855 
L 382.387228 109.778449 
L 383.690571 111.2918 
L 384.993914 114.356333 
L 386.297256 116.258969 
L 387.600599 115.144231 
L 388.903942 113.660392 
L 390.207284 113.135902 
L 391.510627 112.084645 
L 392.813969 111.925608 
L 394.117312 111.360801 
L 395.420655 109.93511 
L 396.723997 109.261986 
L 398.02734 107.738536 
L 399.330682 107.704836 
L 400.634025 106.972483 
L 401.937368 104.868967 
L 404.544053 105.700412 
L 405.847396 104.771537 
L 407.150738 102.416828 
L 408.454081 98.329354 
L 409.757423 96.710719 
L 411.060766 95.386832 
L 412.364109 92.472904 
L 413.667451 89.279466 
L 416.274136 83.875963 
L 417.577479 84.206365 
L 418.880822 82.537983 
L 421.487507 83.918004 
L 422.79085 83.480097 
L 424.094192 84.864706 
L 425.397535 83.728395 
L 426.700877 82.109898 
L 428.00422 80.256125 
L 429.307563 80.248516 
L 430.610905 79.710034 
L 431.914248 79.672816 
L 433.217591 79.488581 
L 434.520933 79.659979 
L 435.824276 83.07525 
L 437.127618 85.764668 
L 438.430961 87.356634 
L 439.734304 88.680592 
L 441.037646 85.110558 
L 442.340989 84.348108 
L 443.644331 85.041573 
L 444.947674 84.596935 
L 446.251017 84.451755 
L 447.554359 82.709666 
L 448.857702 83.672482 
L 451.464387 87.159284 
L 452.76773 85.915921 
L 454.071072 82.476098 
L 455.374415 81.46449 
L 456.677758 80.122559 
L 457.9811 80.752108 
L 459.284443 80.392631 
L 460.587786 80.898368 
L 461.891128 84.282469 
L 463.194471 86.611628 
L 464.497813 87.802058 
L 465.801156 90.701649 
L 467.104499 89.85671 
L 468.407841 87.8039 
L 469.711184 84.290833 
L 471.014526 79.829882 
L 472.317869 74.91127 
L 473.621212 70.44304 
L 474.924554 68.847685 
L 476.227897 66.772821 
L 477.53124 63.461809 
L 478.834582 60.456825 
L 480.137925 60.041036 
L 481.441267 62.662623 
L 482.74461 63.340183 
L 484.047953 64.729638 
L 485.351295 64.079364 
L 486.654638 60.226948 
L 489.261323 56.578865 
L 491.868008 61.062555 
L 493.171351 57.562617 
L 494.474694 52.503534 
L 495.778036 50.737272 
L 497.081379 49.433303 
L 498.384721 50.817129 
L 499.688064 49.416529 
L 500.991407 47.606651 
L 502.294749 47.571858 
L 503.598092 46.058399 
L 504.901435 42.874688 
L 506.204777 41.940633 
L 507.50812 40.240996 
L 508.811462 38.247885 
L 510.114805 37.835937 
L 511.418148 40.22514 
L 512.72149 41.911201 
L 514.024833 42.682336 
L 515.328175 42.722481 
L 516.631518 37.158799 
L 517.934861 32.557618 
L 519.238203 33.798242 
L 520.541546 28.637883 
L 521.844889 26.35028 
L 523.148231 27.446624 
L 524.451574 25.092727 
L 525.754916 26.464731 
L 527.058259 27.059719 
L 528.361602 28.604772 
L 529.664944 29.14199 
L 530.968287 31.032588 
L 532.27163 35.431829 
L 533.574972 38.00592 
L 534.878315 37.116885 
L 536.181657 35.082162 
L 537.485 34.30761 
L 537.485 34.30761 
" style="fill:none;stroke:#2ca02c;stroke-linecap:square;"/>
   </g>
   <g id="legend_1">
    <g id="patch_3">
     <path d="M 54.3534 74.556112 
L 109.911897 74.556112 
Q 112.244297 74.556112 112.244297 72.223712 
L 112.244297 23.2834 
Q 112.244297 20.951 109.911897 20.951 
L 54.3534 20.951 
Q 52.021 20.951 52.021 23.2834 
L 52.021 72.223712 
Q 52.021 74.556112 54.3534 74.556112 
z
" style="fill:#ffffff;opacity:0.8;stroke:#cccccc;stroke-linejoin:miter;"/>
    </g>
    <g id="line2d_15">
     <path d="M 56.6858 29.985406 
L 80.0098 29.985406 
" style="fill:none;stroke:#1f77b4;stroke-linecap:square;"/>
    </g>
    <g id="line2d_16"/>
    <g id="text_14">
     <!-- А -->
     <g transform="translate(89.3394 34.067106)scale(0.11662 -0.11662)">
      <defs>
       <path d="M 46.734375 0 
L 40.28125 20.125 
L 14.546875 20.125 
L 8.109375 0 
L 0.140625 0 
L 23.1875 68.796875 
L 31.890625 68.796875 
L 54.546875 0 
z
M 30.765625 50.09375 
Q 30.125 52.046875 29.546875 54.046875 
L 28.515625 57.71875 
L 27.734375 60.453125 
Q 27.4375 61.53125 27.4375 61.765625 
Q 27.34375 61.53125 27.078125 60.40625 
Q 26.8125 59.28125 26.375 57.625 
L 25.296875 53.953125 
L 24.125 50 
L 16.890625 27.390625 
L 37.984375 27.390625 
z
" id="LiberationSansNarrow-1040"/>
      </defs>
      <use xlink:href="#LiberationSansNarrow-1040"/>
     </g>
    </g>
    <g id="line2d_17">
     <path d="M 56.6858 46.687576 
L 80.0098 46.687576 
" style="fill:none;stroke:#ff7f0e;stroke-linecap:square;"/>
    </g>
    <g id="line2d_18"/>
    <g id="text_15">
     <!-- Б -->
     <g transform="translate(89.3394 50.769276)scale(0.11662 -0.11662)">
      <defs>
       <path d="M 49.5625 20.171875 
Q 49.5625 15.921875 48.34375 12.25 
Q 47.125 8.59375 44.703125 5.859375 
Q 42.28125 3.125 38.640625 1.5625 
Q 35.015625 0 30.125 0 
L 6.734375 0 
L 6.734375 68.796875 
L 43.796875 68.796875 
L 43.796875 61.1875 
L 14.359375 61.1875 
L 14.359375 39.703125 
L 29.6875 39.703125 
Q 34.671875 39.703125 38.40625 38.28125 
Q 42.140625 36.859375 44.609375 34.296875 
Q 47.078125 31.734375 48.3125 28.140625 
Q 49.5625 24.5625 49.5625 20.171875 
z
M 41.890625 20.0625 
Q 41.890625 25.984375 38.59375 29.125 
Q 35.296875 32.28125 28.765625 32.28125 
L 14.359375 32.28125 
L 14.359375 7.375 
L 29.046875 7.375 
Q 35.59375 7.375 38.734375 10.6875 
Q 41.890625 14.015625 41.890625 20.0625 
z
" id="LiberationSansNarrow-1041"/>
      </defs>
      <use xlink:href="#LiberationSansNarrow-1041"/>
     </g>
    </g>
    <g id="line2d_19">
     <path d="M 56.6858 63.389747 
L 80.0098 63.389747 
" style="fill:none;stroke:#2ca02c;stroke-linecap:square;"/>
    </g>
    <g id="line2d_20"/>
    <g id="text_16">
     <!-- А+Б -->
     <g transform="translate(89.3394 67.471447)scale(0.11662 -0.11662)">
      <defs>
       <path d="M 26.859375 29.6875 
L 26.859375 8.796875 
L 21 8.796875 
L 21 29.6875 
L 4 29.6875 
L 4 36.8125 
L 21 36.8125 
L 21 57.71875 
L 26.859375 57.71875 
L 26.859375 36.8125 
L 43.84375 36.8125 
L 43.84375 29.6875 
z
" id="LiberationSansNarrow-43"/>
      </defs>
      <use xlink:href="#LiberationSansNarrow-1040"/>
      <use x="54.6875" xlink:href="#LiberationSansNarrow-43"/>
      <use x="102.587891" xlink:href="#LiberationSansNarrow-1041"/>
     </g>
    </g>
   </g>
  </g>
 </g>
 <defs>
  <clipPath id="pc2a510b90c">
   <rect height="219.4" width="514.69" x="46.19" y="15.12"/>
  </clipPath>
 </defs>
</svg>
