<?xml version="1.0" encoding="utf-8" standalone="no"?>
<!DOCTYPE svg PUBLIC "-//W3C//DTD SVG 1.1//EN"
  "http://www.w3.org/Graphics/SVG/1.1/DTD/svg11.dtd">
<!-- Created with matplotlib (https://matplotlib.org/) -->
<svg height="288pt" version="1.1" viewBox="0 0 576 288" width="576pt" xmlns="http://www.w3.org/2000/svg" xmlns:xlink="http://www.w3.org/1999/xlink">
 <metadata>
  <rdf:RDF xmlns:cc="http://creativecommons.org/ns#" xmlns:dc="http://purl.org/dc/elements/1.1/" xmlns:rdf="http://www.w3.org/1999/02/22-rdf-syntax-ns#">
   <cc:Work>
    <dc:type rdf:resource="http://purl.org/dc/dcmitype/StillImage"/>
    <dc:date>2021-08-21T14:12:13.658314</dc:date>
    <dc:format>image/svg+xml</dc:format>
    <dc:creator>
     <cc:Agent>
      <dc:title>Matplotlib v3.3.4, https://matplotlib.org/</dc:title>
     </cc:Agent>
    </dc:creator>
   </cc:Work>
  </rdf:RDF>
 </metadata>
 <defs>
  <style type="text/css">*{stroke-linecap:butt;stroke-linejoin:round;}</style>
 </defs>
 <g id="figure_1">
  <g id="patch_1">
   <path d="M 0 288 
L 576 288 
L 576 0 
L 0 0 
z
" style="fill:#ffffff;"/>
  </g>
  <g id="axes_1">
   <g id="patch_2">
    <path d="M 46.19 234.52 
L 560.88 234.52 
L 560.88 15.12 
L 46.19 15.12 
z
" style="fill:#ffffff;"/>
   </g>
   <g id="matplotlib.axis_1">
    <g id="xtick_1">
     <g id="line2d_1">
      <path clip-path="url(#pcef3ddc227)" d="M 69.585 234.52 
L 69.585 15.12 
" style="fill:none;stroke:#b0b0b0;stroke-dasharray:1.48,0.64;stroke-dashoffset:0;stroke-width:0.4;"/>
     </g>
     <g id="text_1">
      <!-- 0 -->
      <g transform="translate(66.392344 251.665625)scale(0.14 -0.14)">
       <defs>
        <path d="M 42.390625 34.421875 
Q 42.390625 24.515625 40.84375 17.75 
Q 39.3125 10.984375 36.640625 6.8125 
Q 33.984375 2.640625 30.390625 0.828125 
Q 26.8125 -0.984375 22.703125 -0.984375 
Q 18.609375 -0.984375 15.03125 0.828125 
Q 11.46875 2.640625 8.828125 6.78125 
Q 6.203125 10.9375 4.703125 17.703125 
Q 3.21875 24.46875 3.21875 34.421875 
Q 3.21875 44.828125 4.703125 51.640625 
Q 6.203125 58.453125 8.828125 62.5 
Q 11.46875 66.546875 15.078125 68.1875 
Q 18.703125 69.828125 22.953125 69.828125 
Q 27 69.828125 30.53125 68.1875 
Q 34.078125 66.546875 36.71875 62.5 
Q 39.359375 58.453125 40.875 51.640625 
Q 42.390625 44.828125 42.390625 34.421875 
z
M 35.0625 34.421875 
Q 35.0625 42.625 34.28125 48.0625 
Q 33.5 53.515625 31.9375 56.765625 
Q 30.375 60.015625 28.09375 61.359375 
Q 25.828125 62.703125 22.953125 62.703125 
Q 19.921875 62.703125 17.578125 61.328125 
Q 15.234375 59.96875 13.671875 56.71875 
Q 12.109375 53.46875 11.296875 48.015625 
Q 10.5 42.578125 10.5 34.421875 
Q 10.5 26.515625 11.296875 21.09375 
Q 12.109375 15.671875 13.6875 12.375 
Q 15.28125 9.078125 17.578125 7.640625 
Q 19.875 6.203125 22.796875 6.203125 
Q 25.640625 6.203125 27.90625 7.640625 
Q 30.171875 9.078125 31.75 12.375 
Q 33.34375 15.671875 34.203125 21.09375 
Q 35.0625 26.515625 35.0625 34.421875 
z
" id="LiberationSansNarrow-48"/>
       </defs>
       <use xlink:href="#LiberationSansNarrow-48"/>
      </g>
     </g>
    </g>
    <g id="xtick_2">
     <g id="line2d_2">
      <path clip-path="url(#pcef3ddc227)" d="M 134.752131 234.52 
L 134.752131 15.12 
" style="fill:none;stroke:#b0b0b0;stroke-dasharray:1.48,0.64;stroke-dashoffset:0;stroke-width:0.4;"/>
     </g>
     <g id="text_2">
      <!-- 50 -->
      <g transform="translate(128.366818 251.665625)scale(0.14 -0.14)">
       <defs>
        <path d="M 42.140625 22.40625 
Q 42.140625 17.234375 40.859375 12.9375 
Q 39.59375 8.640625 37.078125 5.53125 
Q 34.578125 2.4375 30.8125 0.71875 
Q 27.046875 -0.984375 22.125 -0.984375 
Q 17.671875 -0.984375 14.375 0.28125 
Q 11.078125 1.5625 8.8125 3.78125 
Q 6.546875 6 5.203125 8.984375 
Q 3.859375 11.96875 3.265625 15.375 
L 10.546875 16.40625 
Q 10.984375 14.453125 11.78125 12.625 
Q 12.59375 10.796875 13.984375 9.34375 
Q 15.375 7.90625 17.40625 7.046875 
Q 19.4375 6.203125 22.3125 6.203125 
Q 25.09375 6.203125 27.390625 7.25 
Q 29.6875 8.296875 31.296875 10.34375 
Q 32.90625 12.40625 33.78125 15.375 
Q 34.671875 18.359375 34.671875 22.21875 
Q 34.671875 25.390625 33.84375 28.046875 
Q 33.015625 30.71875 31.453125 32.640625 
Q 29.890625 34.578125 27.609375 35.640625 
Q 25.34375 36.71875 22.46875 36.71875 
Q 20.65625 36.71875 19.140625 36.328125 
Q 17.625 35.9375 16.328125 35.25 
Q 15.046875 34.578125 13.96875 33.671875 
Q 12.890625 32.765625 11.96875 31.78125 
L 4.9375 31.78125 
L 6.78125 68.796875 
L 38.875 68.796875 
L 38.875 61.328125 
L 13.375 61.328125 
L 12.3125 39.5 
Q 14.203125 41.3125 17.078125 42.59375 
Q 19.96875 43.890625 23.921875 43.890625 
Q 28.125 43.890625 31.484375 42.328125 
Q 34.859375 40.765625 37.21875 37.90625 
Q 39.59375 35.0625 40.859375 31.109375 
Q 42.140625 27.15625 42.140625 22.40625 
z
" id="LiberationSansNarrow-53"/>
       </defs>
       <use xlink:href="#LiberationSansNarrow-53"/>
       <use x="45.605469" xlink:href="#LiberationSansNarrow-48"/>
      </g>
     </g>
    </g>
    <g id="xtick_3">
     <g id="line2d_3">
      <path clip-path="url(#pcef3ddc227)" d="M 199.919262 234.52 
L 199.919262 15.12 
" style="fill:none;stroke:#b0b0b0;stroke-dasharray:1.48,0.64;stroke-dashoffset:0;stroke-width:0.4;"/>
     </g>
     <g id="text_3">
      <!-- 100 -->
      <g transform="translate(190.341293 251.665625)scale(0.14 -0.14)">
       <defs>
        <path d="M 6.25 0 
L 6.25 7.46875 
L 20.609375 7.46875 
L 20.609375 60.40625 
L 7.90625 49.3125 
L 7.90625 57.625 
L 21.234375 68.796875 
L 27.875 68.796875 
L 27.875 7.46875 
L 41.609375 7.46875 
L 41.609375 0 
z
" id="LiberationSansNarrow-49"/>
       </defs>
       <use xlink:href="#LiberationSansNarrow-49"/>
       <use x="45.605469" xlink:href="#LiberationSansNarrow-48"/>
       <use x="91.210938" xlink:href="#LiberationSansNarrow-48"/>
      </g>
     </g>
    </g>
    <g id="xtick_4">
     <g id="line2d_4">
      <path clip-path="url(#pcef3ddc227)" d="M 265.086393 234.52 
L 265.086393 15.12 
" style="fill:none;stroke:#b0b0b0;stroke-dasharray:1.48,0.64;stroke-dashoffset:0;stroke-width:0.4;"/>
     </g>
     <g id="text_4">
      <!-- 150 -->
      <g transform="translate(255.508424 251.665625)scale(0.14 -0.14)">
       <use xlink:href="#LiberationSansNarrow-49"/>
       <use x="45.605469" xlink:href="#LiberationSansNarrow-53"/>
       <use x="91.210938" xlink:href="#LiberationSansNarrow-48"/>
      </g>
     </g>
    </g>
    <g id="xtick_5">
     <g id="line2d_5">
      <path clip-path="url(#pcef3ddc227)" d="M 330.253524 234.52 
L 330.253524 15.12 
" style="fill:none;stroke:#b0b0b0;stroke-dasharray:1.48,0.64;stroke-dashoffset:0;stroke-width:0.4;"/>
     </g>
     <g id="text_5">
      <!-- 200 -->
      <g transform="translate(320.675555 251.665625)scale(0.14 -0.14)">
       <defs>
        <path d="M 4.109375 0 
L 4.109375 6.203125 
Q 6.15625 11.921875 9.109375 16.28125 
Q 12.0625 20.65625 15.3125 24.1875 
Q 18.5625 27.734375 21.734375 30.765625 
Q 24.90625 33.796875 27.46875 36.8125 
Q 30.03125 39.84375 31.609375 43.15625 
Q 33.203125 46.484375 33.203125 50.6875 
Q 33.203125 53.609375 32.46875 55.828125 
Q 31.734375 58.0625 30.390625 59.5625 
Q 29.046875 61.078125 27.140625 61.828125 
Q 25.25 62.59375 22.90625 62.59375 
Q 20.75 62.59375 18.84375 61.859375 
Q 16.9375 61.140625 15.453125 59.671875 
Q 13.96875 58.203125 13.03125 56.03125 
Q 12.109375 53.859375 11.8125 50.984375 
L 4.4375 51.8125 
Q 4.78125 55.515625 6.125 58.78125 
Q 7.46875 62.0625 9.78125 64.53125 
Q 12.109375 67 15.359375 68.40625 
Q 18.609375 69.828125 22.90625 69.828125 
Q 27.09375 69.828125 30.390625 68.609375 
Q 33.6875 67.390625 35.9375 64.984375 
Q 38.1875 62.59375 39.40625 59.078125 
Q 40.625 55.5625 40.625 50.984375 
Q 40.625 47.515625 39.59375 44.390625 
Q 38.578125 41.265625 36.859375 38.421875 
Q 35.15625 35.59375 32.90625 32.953125 
Q 30.671875 30.328125 28.21875 27.828125 
L 23.296875 22.859375 
Q 20.796875 20.359375 18.625 17.859375 
Q 16.453125 15.375 14.734375 12.8125 
Q 13.03125 10.25 12.0625 7.46875 
L 41.5 7.46875 
L 41.5 0 
z
" id="LiberationSansNarrow-50"/>
       </defs>
       <use xlink:href="#LiberationSansNarrow-50"/>
       <use x="45.605469" xlink:href="#LiberationSansNarrow-48"/>
       <use x="91.210938" xlink:href="#LiberationSansNarrow-48"/>
      </g>
     </g>
    </g>
    <g id="xtick_6">
     <g id="line2d_6">
      <path clip-path="url(#pcef3ddc227)" d="M 395.420655 234.52 
L 395.420655 15.12 
" style="fill:none;stroke:#b0b0b0;stroke-dasharray:1.48,0.64;stroke-dashoffset:0;stroke-width:0.4;"/>
     </g>
     <g id="text_6">
      <!-- 250 -->
      <g transform="translate(385.842686 251.665625)scale(0.14 -0.14)">
       <use xlink:href="#LiberationSansNarrow-50"/>
       <use x="45.605469" xlink:href="#LiberationSansNarrow-53"/>
       <use x="91.210938" xlink:href="#LiberationSansNarrow-48"/>
      </g>
     </g>
    </g>
    <g id="xtick_7">
     <g id="line2d_7">
      <path clip-path="url(#pcef3ddc227)" d="M 460.587786 234.52 
L 460.587786 15.12 
" style="fill:none;stroke:#b0b0b0;stroke-dasharray:1.48,0.64;stroke-dashoffset:0;stroke-width:0.4;"/>
     </g>
     <g id="text_7">
      <!-- 300 -->
      <g transform="translate(451.009817 251.665625)scale(0.14 -0.14)">
       <defs>
        <path d="M 42 19 
Q 42 14.265625 40.75 10.546875 
Q 39.5 6.84375 37.0625 4.265625 
Q 34.625 1.703125 31.046875 0.359375 
Q 27.484375 -0.984375 22.859375 -0.984375 
Q 17.625 -0.984375 14.03125 0.609375 
Q 10.453125 2.203125 8.125 4.8125 
Q 5.8125 7.421875 4.640625 10.765625 
Q 3.46875 14.109375 3.125 17.671875 
L 10.546875 18.5 
Q 10.890625 15.765625 11.734375 13.515625 
Q 12.59375 11.28125 14.078125 9.671875 
Q 15.578125 8.0625 17.75 7.171875 
Q 19.921875 6.296875 22.859375 6.296875 
Q 28.328125 6.296875 31.421875 9.5625 
Q 34.515625 12.84375 34.515625 19.28125 
Q 34.515625 23.09375 33.125 25.40625 
Q 31.734375 27.734375 29.6875 29.03125 
Q 27.640625 30.328125 25.21875 30.765625 
Q 22.796875 31.203125 20.75 31.203125 
L 16.65625 31.203125 
L 16.65625 38.8125 
L 20.5625 38.8125 
Q 22.609375 38.8125 24.828125 39.328125 
Q 27.046875 39.84375 28.859375 41.1875 
Q 30.671875 42.53125 31.859375 44.828125 
Q 33.0625 47.125 33.0625 50.6875 
Q 33.0625 56.203125 30.375 59.390625 
Q 27.6875 62.59375 22.46875 62.59375 
Q 17.671875 62.59375 14.734375 59.609375 
Q 11.8125 56.640625 11.328125 51.21875 
L 4.109375 51.90625 
Q 4.546875 56.453125 6.125 59.8125 
Q 7.71875 63.1875 10.171875 65.40625 
Q 12.640625 67.625 15.8125 68.71875 
Q 19 69.828125 22.5625 69.828125 
Q 27.296875 69.828125 30.6875 68.375 
Q 34.078125 66.9375 36.21875 64.46875 
Q 38.375 62.015625 39.40625 58.6875 
Q 40.4375 55.375 40.4375 51.609375 
Q 40.4375 48.578125 39.75 45.9375 
Q 39.0625 43.3125 37.625 41.203125 
Q 36.1875 39.109375 33.953125 37.59375 
Q 31.734375 36.078125 28.609375 35.296875 
L 28.609375 35.109375 
Q 32.03125 34.671875 34.546875 33.21875 
Q 37.0625 31.78125 38.71875 29.625 
Q 40.375 27.484375 41.1875 24.75 
Q 42 22.015625 42 19 
z
" id="LiberationSansNarrow-51"/>
       </defs>
       <use xlink:href="#LiberationSansNarrow-51"/>
       <use x="45.605469" xlink:href="#LiberationSansNarrow-48"/>
       <use x="91.210938" xlink:href="#LiberationSansNarrow-48"/>
      </g>
     </g>
    </g>
    <g id="xtick_8">
     <g id="line2d_8">
      <path clip-path="url(#pcef3ddc227)" d="M 525.754916 234.52 
L 525.754916 15.12 
" style="fill:none;stroke:#b0b0b0;stroke-dasharray:1.48,0.64;stroke-dashoffset:0;stroke-width:0.4;"/>
     </g>
     <g id="text_8">
      <!-- 350 -->
      <g transform="translate(516.176948 251.665625)scale(0.14 -0.14)">
       <use xlink:href="#LiberationSansNarrow-51"/>
       <use x="45.605469" xlink:href="#LiberationSansNarrow-53"/>
       <use x="91.210938" xlink:href="#LiberationSansNarrow-48"/>
      </g>
     </g>
    </g>
    <g id="text_9">
     <!-- Месяцы -->
     <g transform="translate(281.943281 268.71625)scale(0.14 -0.14)">
      <defs>
       <path d="M 54.6875 0 
L 54.6875 45.90625 
Q 54.6875 48.390625 54.734375 50.96875 
Q 54.78125 53.5625 54.828125 55.71875 
Q 54.9375 58.203125 55.078125 60.546875 
Q 54.546875 58.0625 53.90625 55.609375 
Q 53.90625 55.609375 52.734375 51.171875 
Q 52.15625 48.78125 51.515625 46.875 
L 36.96875 0 
L 31.59375 0 
L 16.796875 46.875 
Q 16.546875 47.609375 16.3125 48.578125 
L 15.765625 50.6875 
L 15.140625 52.9375 
L 14.546875 55.171875 
Q 13.875 57.765625 13.234375 60.546875 
Q 13.28125 57.8125 13.375 55.125 
Q 13.484375 52.828125 13.5 50.3125 
Q 13.53125 47.796875 13.53125 45.90625 
L 13.53125 0 
L 6.734375 0 
L 6.734375 68.796875 
L 16.796875 68.796875 
L 31.78125 21.09375 
Q 32.078125 20.125 32.46875 18.578125 
Q 32.859375 17.046875 33.21875 15.421875 
Q 33.59375 13.8125 33.890625 12.375 
Q 34.1875 10.9375 34.328125 10.15625 
Q 34.421875 10.9375 34.734375 12.40625 
Q 35.0625 13.875 35.5 15.484375 
L 36.328125 18.609375 
Q 36.71875 20.125 37.0625 21.09375 
L 51.765625 68.796875 
L 61.578125 68.796875 
L 61.578125 0 
z
" id="LiberationSansNarrow-1052"/>
       <path d="M 10.6875 24.5625 
Q 10.6875 20.40625 11.5625 16.90625 
Q 12.453125 13.421875 13.90625 10.90625 
Q 15.375 8.40625 17.640625 7 
Q 19.921875 5.609375 23.140625 5.609375 
Q 27.828125 5.609375 30.65625 7.90625 
Q 33.5 10.203125 34.46875 13.71875 
L 40.828125 11.53125 
Q 40.140625 9.328125 38.921875 7.109375 
Q 37.703125 4.890625 35.640625 3.09375 
Q 33.59375 1.3125 30.53125 0.15625 
Q 27.484375 -0.984375 23.140625 -0.984375 
Q 13.53125 -0.984375 8.5 6 
Q 3.46875 12.984375 3.46875 26.765625 
Q 3.46875 34.1875 5 39.328125 
Q 6.546875 44.484375 9.171875 47.703125 
Q 11.8125 50.921875 15.328125 52.359375 
Q 18.84375 53.8125 22.859375 53.8125 
Q 28.328125 53.8125 31.984375 51.65625 
Q 39.0625 47.515625 41.015625 36.8125 
Q 41.9375 31.6875 41.9375 25.734375 
L 41.9375 24.5625 
z
M 34.71875 31.296875 
Q 34.71875 40.140625 31.421875 43.71875 
Q 28.125 47.3125 22.75 47.3125 
Q 18.953125 47.3125 15.328125 44.09375 
Q 10.9375 40.328125 10.6875 31.296875 
z
" id="LiberationSansNarrow-1077"/>
       <path d="M 11.03125 26.65625 
Q 11.03125 22.125 11.5625 18.3125 
Q 12.109375 14.5 13.375 11.734375 
Q 14.65625 8.984375 16.75 7.46875 
Q 18.84375 5.953125 21.96875 5.953125 
Q 25.828125 5.953125 28.390625 8.484375 
Q 30.953125 11.03125 31.546875 16.3125 
L 38.875 15.71875 
Q 38.53125 12.453125 37.296875 9.421875 
Q 36.078125 6.390625 34.03125 4.09375 
Q 31.984375 1.8125 29 0.40625 
Q 26.03125 -0.984375 22.171875 -0.984375 
Q 17.09375 -0.984375 13.5 1.109375 
Q 9.90625 3.21875 7.6875 6.90625 
Q 5.46875 10.59375 4.46875 15.59375 
Q 3.46875 20.609375 3.46875 26.46875 
Q 3.46875 31.78125 4.203125 35.859375 
Q 4.9375 39.9375 6.21875 42.984375 
Q 7.515625 46.046875 9.265625 48.125 
Q 11.03125 50.203125 13.109375 51.4375 
Q 15.1875 52.6875 17.453125 53.25 
Q 19.734375 53.8125 22.078125 53.8125 
Q 25.734375 53.8125 28.5625 52.59375 
Q 31.390625 51.375 33.46875 49.25 
Q 35.546875 47.125 36.8125 44.234375 
Q 38.09375 41.359375 38.625 38.03125 
L 31.203125 37.359375 
Q 30.671875 41.75 28.375 44.328125 
Q 26.078125 46.921875 21.875 46.921875 
Q 18.796875 46.921875 16.71875 45.671875 
Q 14.65625 44.4375 13.375 41.921875 
Q 12.109375 39.40625 11.5625 35.59375 
Q 11.03125 31.78125 11.03125 26.65625 
z
" id="LiberationSansNarrow-1089"/>
       <path d="M 21.4375 22.359375 
L 8.84375 0 
L 0.6875 0 
L 14.453125 23 
Q 9.234375 24.3125 6.859375 28.296875 
Q 4.5 32.28125 4.5 38.234375 
Q 4.5 45.515625 8.8125 49.171875 
Q 13.140625 52.828125 21.4375 52.828125 
L 38.71875 52.828125 
L 38.71875 0 
L 31.546875 0 
L 31.546875 22.359375 
z
M 31.546875 46.625 
L 22.171875 46.625 
Q 16.9375 46.625 14.546875 44.375 
Q 12.15625 42.140625 12.15625 37.59375 
Q 12.15625 33.015625 14.28125 30.734375 
Q 16.40625 28.46875 21.390625 28.46875 
L 31.546875 28.46875 
z
" id="LiberationSansNarrow-1103"/>
       <path d="M 12.890625 52.828125 
L 12.890625 6.390625 
L 31.984375 6.390625 
L 31.984375 52.828125 
L 39.203125 52.828125 
L 39.203125 6.390625 
L 45.0625 6.390625 
L 45.0625 -19.921875 
L 38.578125 -19.921875 
L 38.578125 0 
L 5.671875 0 
L 5.671875 52.828125 
z
" id="LiberationSansNarrow-1094"/>
       <path d="M 22.796875 30.46875 
Q 31.296875 30.46875 35.640625 26.875 
Q 39.984375 23.296875 39.984375 15.53125 
Q 39.984375 11.921875 38.90625 9.03125 
Q 37.84375 6.15625 35.671875 4.15625 
Q 33.5 2.15625 30.296875 1.078125 
Q 27.09375 0 22.859375 0 
L 5.859375 0 
L 5.859375 52.828125 
L 13.328125 52.828125 
L 13.328125 30.46875 
z
M 13.328125 6.203125 
L 21.734375 6.203125 
Q 24.609375 6.203125 26.578125 6.8125 
Q 28.5625 7.421875 29.78125 8.609375 
Q 31 9.8125 31.53125 11.546875 
Q 32.078125 13.28125 32.078125 15.53125 
Q 32.078125 20.125 29.65625 22.234375 
Q 27.25 24.359375 21.734375 24.359375 
L 13.328125 24.359375 
z
M 47.65625 0 
L 47.65625 52.828125 
L 55.125 52.828125 
L 55.125 0 
z
" id="LiberationSansNarrow-1099"/>
      </defs>
      <use xlink:href="#LiberationSansNarrow-1052"/>
      <use x="69.435547" xlink:href="#LiberationSansNarrow-1077"/>
      <use x="115.041016" xlink:href="#LiberationSansNarrow-1089"/>
      <use x="156.056641" xlink:href="#LiberationSansNarrow-1103"/>
      <use x="200.490234" xlink:href="#LiberationSansNarrow-1094"/>
      <use x="247.462891" xlink:href="#LiberationSansNarrow-1099"/>
     </g>
    </g>
   </g>
   <g id="matplotlib.axis_2">
    <g id="ytick_1">
     <g id="line2d_9">
      <path clip-path="url(#pcef3ddc227)" d="M 46.19 220.884327 
L 560.88 220.884327 
" style="fill:none;stroke:#b0b0b0;stroke-dasharray:1.48,0.64;stroke-dashoffset:0;stroke-width:0.4;"/>
     </g>
     <g id="text_10">
      <!-- 1 -->
      <g transform="translate(32.804688 225.957139)scale(0.14 -0.14)">
       <use xlink:href="#LiberationSansNarrow-49"/>
      </g>
     </g>
    </g>
    <g id="ytick_2">
     <g id="line2d_10">
      <path clip-path="url(#pcef3ddc227)" d="M 46.19 137.303258 
L 560.88 137.303258 
" style="fill:none;stroke:#b0b0b0;stroke-dasharray:1.48,0.64;stroke-dashoffset:0;stroke-width:0.4;"/>
     </g>
     <g id="text_11">
      <!-- 2 -->
      <g transform="translate(32.804688 142.376071)scale(0.14 -0.14)">
       <use xlink:href="#LiberationSansNarrow-50"/>
      </g>
     </g>
    </g>
    <g id="ytick_3">
     <g id="line2d_11">
      <path clip-path="url(#pcef3ddc227)" d="M 46.19 53.722189 
L 560.88 53.722189 
" style="fill:none;stroke:#b0b0b0;stroke-dasharray:1.48,0.64;stroke-dashoffset:0;stroke-width:0.4;"/>
     </g>
     <g id="text_12">
      <!-- 4 -->
      <g transform="translate(32.804688 58.795002)scale(0.14 -0.14)">
       <defs>
        <path d="M 35.25 15.578125 
L 35.25 0 
L 28.46875 0 
L 28.46875 15.578125 
L 1.90625 15.578125 
L 1.90625 22.40625 
L 27.6875 68.796875 
L 35.25 68.796875 
L 35.25 22.515625 
L 43.21875 22.515625 
L 43.21875 15.578125 
z
M 28.46875 58.890625 
Q 28.375 58.640625 28.03125 57.90625 
L 27.34375 56.34375 
L 26.5625 54.59375 
Q 26.125 53.65625 25.78125 53.078125 
L 11.328125 27.09375 
Q 11.140625 26.703125 10.75 26.078125 
L 9.96875 24.8125 
L 9.1875 23.484375 
Q 8.796875 22.859375 8.546875 22.515625 
L 28.46875 22.515625 
z
" id="LiberationSansNarrow-52"/>
       </defs>
       <use xlink:href="#LiberationSansNarrow-52"/>
      </g>
     </g>
    </g>
    <g id="text_13">
     <!-- Размер портфеля -->
     <g transform="translate(25.899688 172.185938)rotate(-90)scale(0.14 -0.14)">
      <defs>
       <path d="M 50.34375 48.09375 
Q 50.34375 43.609375 49.125 39.71875 
Q 47.90625 35.84375 45.484375 32.984375 
Q 43.0625 30.125 39.421875 28.46875 
Q 35.796875 26.8125 30.953125 26.8125 
L 14.359375 26.8125 
L 14.359375 0 
L 6.734375 0 
L 6.734375 68.796875 
L 30.46875 68.796875 
Q 35.453125 68.796875 39.1875 67.3125 
Q 42.921875 65.828125 45.40625 63.109375 
Q 47.90625 60.40625 49.125 56.5625 
Q 50.34375 52.734375 50.34375 48.09375 
z
M 42.671875 48 
Q 42.671875 54.546875 39.40625 57.9375 
Q 36.140625 61.328125 29.546875 61.328125 
L 14.359375 61.328125 
L 14.359375 34.1875 
L 29.890625 34.1875 
Q 36.46875 34.1875 39.5625 37.75 
Q 42.671875 41.3125 42.671875 48 
z
" id="LiberationSansNarrow-1056"/>
       <path d="M 16.546875 -0.984375 
Q 10.015625 -0.984375 6.734375 3.21875 
Q 3.46875 7.421875 3.46875 14.75 
Q 3.46875 19.96875 5.09375 23.3125 
Q 6.734375 26.65625 9.34375 28.5625 
Q 11.96875 30.46875 15.328125 31.203125 
Q 18.703125 31.9375 22.171875 32.03125 
L 31.9375 32.234375 
L 31.9375 35.109375 
Q 31.9375 38.375 31.375 40.671875 
Q 30.8125 42.96875 29.640625 44.375 
Q 28.46875 45.796875 26.734375 46.453125 
Q 25 47.125 22.609375 47.125 
Q 20.515625 47.125 18.84375 46.75 
Q 17.1875 46.390625 15.9375 45.4375 
Q 14.703125 44.484375 13.9375 42.84375 
Q 13.1875 41.21875 12.9375 38.71875 
L 5.421875 39.546875 
Q 5.8125 42.671875 6.9375 45.28125 
Q 8.0625 47.90625 10.109375 49.796875 
Q 12.15625 51.703125 15.25 52.75 
Q 18.359375 53.8125 22.796875 53.8125 
Q 30.953125 53.8125 35.078125 49.234375 
Q 39.203125 44.671875 39.203125 36.03125 
L 39.203125 13.28125 
Q 39.203125 9.375 40.03125 7.390625 
Q 40.875 5.421875 43.265625 5.421875 
Q 43.84375 5.421875 44.453125 5.515625 
Q 45.0625 5.609375 45.609375 5.765625 
L 45.609375 0.296875 
Q 44.234375 -0.09375 42.890625 -0.28125 
Q 41.546875 -0.484375 40.046875 -0.484375 
Q 37.984375 -0.484375 36.515625 0.171875 
Q 35.0625 0.828125 34.15625 2.171875 
Q 33.25 3.515625 32.765625 5.484375 
Q 32.28125 7.46875 32.125 10.109375 
L 31.9375 10.109375 
Q 30.765625 7.5625 29.375 5.515625 
Q 27.984375 3.46875 26.140625 2.03125 
Q 24.3125 0.59375 21.9375 -0.1875 
Q 19.578125 -0.984375 16.546875 -0.984375 
z
M 18.21875 5.609375 
Q 21.6875 5.609375 24.25 7.140625 
Q 26.8125 8.6875 28.515625 11.078125 
Q 30.21875 13.484375 31.078125 16.3125 
Q 31.9375 19.140625 31.9375 21.734375 
L 31.9375 26.078125 
L 24.03125 25.875 
Q 21.390625 25.828125 19 25.40625 
Q 16.609375 25 14.8125 23.78125 
Q 13.03125 22.5625 11.953125 20.359375 
Q 10.890625 18.171875 10.890625 14.59375 
Q 10.890625 10.296875 12.796875 7.953125 
Q 14.703125 5.609375 18.21875 5.609375 
z
" id="LiberationSansNarrow-1072"/>
       <path d="M 18.3125 -0.984375 
Q 11.625 -0.984375 7.6875 2.0625 
Q 3.765625 5.125 1.953125 11.421875 
L 8.296875 13.578125 
Q 9.28125 9.765625 11.8125 7.65625 
Q 14.359375 5.5625 18.453125 5.5625 
Q 22.3125 5.5625 24.578125 7.859375 
Q 26.859375 10.15625 26.859375 14.59375 
Q 26.859375 17.484375 25.734375 19.390625 
Q 24.609375 21.296875 22.78125 22.390625 
Q 20.953125 23.484375 18.546875 23.921875 
Q 16.15625 24.359375 13.578125 24.359375 
L 13.578125 31.0625 
Q 16.109375 31.0625 18.40625 31.421875 
Q 20.703125 31.78125 22.4375 32.703125 
Q 24.171875 33.640625 25.140625 35.28125 
Q 26.125 36.921875 26.125 39.453125 
Q 26.125 43.0625 24.140625 45.15625 
Q 22.171875 47.265625 18.453125 47.265625 
Q 17.046875 47.265625 15.65625 46.921875 
Q 14.265625 46.578125 13.03125 45.765625 
Q 11.8125 44.96875 10.984375 43.625 
Q 10.15625 42.28125 9.859375 40.234375 
L 3.421875 41.21875 
Q 3.90625 44.53125 5.125 46.921875 
Q 6.34375 49.3125 8.296875 50.84375 
Q 10.25 52.390625 12.78125 53.09375 
Q 15.328125 53.8125 18.453125 53.8125 
Q 21.875 53.8125 24.625 52.78125 
Q 27.390625 51.765625 29.34375 49.90625 
Q 31.296875 48.046875 32.375 45.5 
Q 33.453125 42.96875 33.453125 39.890625 
Q 33.453125 37.109375 32.5625 34.953125 
Q 31.6875 32.8125 30.25 31.3125 
Q 28.8125 29.828125 27.046875 28.953125 
Q 25.296875 28.078125 23.53125 27.875 
L 23.53125 27.78125 
Q 25.78125 27.484375 27.75 26.484375 
Q 29.734375 25.484375 31.25 23.84375 
Q 32.765625 22.21875 33.609375 19.9375 
Q 34.46875 17.671875 34.46875 14.84375 
Q 34.46875 11.46875 33.484375 8.5625 
Q 32.515625 5.671875 30.484375 3.546875 
Q 28.46875 1.421875 25.4375 0.21875 
Q 22.40625 -0.984375 18.3125 -0.984375 
z
" id="LiberationSansNarrow-1079"/>
       <path d="M 31.546875 0 
L 25.390625 0 
L 12.40625 46.4375 
Q 12.453125 45.171875 12.515625 43.703125 
Q 12.59375 42.234375 12.59375 40.75 
Q 12.59375 39.265625 12.609375 37.859375 
Q 12.640625 36.46875 12.640625 35.359375 
L 12.640625 0 
L 5.671875 0 
L 5.671875 52.828125 
L 16.890625 52.828125 
L 25.734375 20.5625 
Q 26.65625 17.484375 27.390625 13.796875 
Q 28.125 10.109375 28.421875 6.59375 
Q 28.8125 10.109375 29.515625 13.796875 
Q 30.21875 17.484375 31.15625 20.5625 
L 39.984375 52.828125 
L 50.734375 52.828125 
L 50.734375 0 
L 43.796875 0 
L 43.796875 35.359375 
Q 43.796875 36.421875 43.8125 37.890625 
Q 43.84375 39.359375 43.921875 40.921875 
Q 44 42.484375 44.015625 43.9375 
Q 44.046875 45.40625 44.140625 46.53125 
z
" id="LiberationSansNarrow-1084"/>
       <path d="M 42.140625 26.65625 
Q 42.140625 20.65625 41.359375 15.578125 
Q 40.578125 10.5 38.6875 6.828125 
Q 36.8125 3.171875 33.765625 1.09375 
Q 30.71875 -0.984375 26.21875 -0.984375 
Q 21.578125 -0.984375 18.078125 1.171875 
Q 14.59375 3.328125 12.796875 8.203125 
L 12.546875 8.203125 
Q 12.59375 8.109375 12.609375 7.328125 
Q 12.640625 6.546875 12.671875 5.375 
Q 12.703125 4.203125 12.71875 2.75 
Q 12.75 1.3125 12.75 -0.09375 
L 12.75 -20.75 
L 5.515625 -20.75 
L 5.515625 42.046875 
Q 5.515625 43.953125 5.484375 45.703125 
Q 5.46875 47.46875 5.4375 48.90625 
Q 5.421875 50.34375 5.375 51.359375 
Q 5.328125 52.390625 5.28125 52.828125 
L 12.25 52.828125 
Q 12.3125 52.6875 12.359375 51.8125 
L 12.5 49.703125 
Q 12.546875 48.4375 12.59375 47.015625 
Q 12.640625 45.609375 12.640625 44.34375 
L 12.796875 44.34375 
Q 13.765625 46.875 15.0625 48.65625 
Q 16.359375 50.4375 18.015625 51.578125 
Q 19.671875 52.734375 21.671875 53.25 
Q 23.6875 53.765625 26.21875 53.765625 
Q 30.71875 53.765625 33.765625 51.8125 
Q 36.8125 49.859375 38.6875 46.3125 
Q 40.578125 42.78125 41.359375 37.765625 
Q 42.140625 32.765625 42.140625 26.65625 
z
M 34.578125 26.46875 
Q 34.578125 31.34375 34.109375 35.15625 
Q 33.640625 38.96875 32.4375 41.59375 
Q 31.25 44.234375 29.296875 45.59375 
Q 27.34375 46.96875 24.359375 46.96875 
Q 21.96875 46.96875 19.84375 46.140625 
Q 17.71875 45.3125 16.125 42.96875 
Q 14.546875 40.625 13.640625 36.5 
Q 12.75 32.375 12.75 25.78125 
Q 12.75 20.171875 13.5 16.28125 
Q 14.265625 12.40625 15.71875 10.015625 
Q 17.1875 7.625 19.328125 6.5625 
Q 21.484375 5.515625 24.3125 5.515625 
Q 27.34375 5.515625 29.296875 6.921875 
Q 31.25 8.34375 32.4375 11.03125 
Q 33.640625 13.71875 34.109375 17.59375 
Q 34.578125 21.484375 34.578125 26.46875 
z
" id="LiberationSansNarrow-1088"/>
       <path id="LiberationSansNarrow-32"/>
       <path d="M 38.71875 52.828125 
L 38.71875 0 
L 31.546875 0 
L 31.546875 46.4375 
L 12.890625 46.4375 
L 12.890625 0 
L 5.71875 0 
L 5.71875 52.828125 
z
" id="LiberationSansNarrow-1087"/>
       <path d="M 42.140625 26.46875 
Q 42.140625 12.59375 37.125 5.796875 
Q 32.125 -0.984375 22.609375 -0.984375 
Q 18.0625 -0.984375 14.515625 0.671875 
Q 10.984375 2.34375 8.515625 5.765625 
Q 6.0625 9.1875 4.765625 14.328125 
Q 3.46875 19.484375 3.46875 26.46875 
Q 3.46875 53.8125 22.859375 53.8125 
Q 27.875 53.8125 31.5625 52.09375 
Q 35.25 50.390625 37.59375 46.96875 
Q 39.9375 43.5625 41.03125 38.421875 
Q 42.140625 33.296875 42.140625 26.46875 
z
M 34.578125 26.46875 
Q 34.578125 32.625 33.8125 36.625 
Q 33.0625 40.625 31.546875 43.015625 
Q 30.03125 45.40625 27.859375 46.359375 
Q 25.6875 47.3125 23 47.3125 
Q 20.21875 47.3125 17.984375 46.3125 
Q 15.765625 45.3125 14.203125 42.890625 
Q 12.640625 40.484375 11.828125 36.46875 
Q 11.03125 32.46875 11.03125 26.46875 
Q 11.03125 20.3125 11.90625 16.28125 
Q 12.796875 12.25 14.328125 9.859375 
Q 15.875 7.46875 17.96875 6.484375 
Q 20.0625 5.515625 22.5625 5.515625 
Q 25.34375 5.515625 27.5625 6.46875 
Q 29.78125 7.421875 31.34375 9.8125 
Q 32.90625 12.203125 33.734375 16.25 
Q 34.578125 20.3125 34.578125 26.46875 
z
" id="LiberationSansNarrow-1086"/>
       <path d="M 1.421875 52.828125 
L 36.140625 52.828125 
L 36.140625 46.4375 
L 22.359375 46.4375 
L 22.359375 0 
L 15.1875 0 
L 15.1875 46.4375 
L 1.421875 46.4375 
z
" id="LiberationSansNarrow-1090"/>
       <path d="M 64.015625 26.65625 
Q 64.015625 20.65625 63.234375 15.578125 
Q 62.453125 10.5 60.734375 6.828125 
Q 59.03125 3.171875 56.21875 1.09375 
Q 53.421875 -0.984375 49.359375 -0.984375 
Q 45.171875 -0.984375 42.015625 1.171875 
Q 38.875 3.328125 37.15625 8.203125 
L 36.921875 8.203125 
Q 37.015625 6.5 37.0625 4.609375 
Q 37.109375 2.734375 37.109375 -0.09375 
L 37.109375 -20.75 
L 30.328125 -20.75 
L 30.328125 -0.09375 
Q 30.328125 2.546875 30.375 4.546875 
Q 30.421875 6.546875 30.515625 8.5 
L 30.328125 8.5 
Q 28.46875 3.421875 25.484375 1.21875 
Q 22.515625 -0.984375 18.0625 -0.984375 
Q 10.59375 -0.984375 7.03125 5.734375 
Q 3.46875 12.453125 3.46875 26.171875 
Q 3.46875 40.046875 7.15625 46.921875 
Q 10.84375 53.8125 18.0625 53.8125 
Q 22.5625 53.8125 25.53125 51.609375 
Q 28.515625 49.421875 30.328125 44.625 
L 30.515625 44.625 
Q 30.515625 45.125 30.46875 46.125 
Q 30.421875 47.125 30.375 48.25 
L 30.375 50.390625 
Q 30.328125 51.421875 30.328125 52 
L 30.328125 72.46875 
L 37.109375 72.46875 
L 37.109375 51.953125 
Q 37.109375 51.421875 37.078125 50.359375 
Q 37.0625 49.3125 37.0625 48.15625 
Q 37.0625 47.015625 37.03125 45.96875 
Q 37.015625 44.921875 37.015625 44.34375 
L 37.203125 44.34375 
Q 39.0625 49.421875 41.9375 51.59375 
Q 44.828125 53.765625 49.359375 53.765625 
Q 53.421875 53.765625 56.21875 51.8125 
Q 59.03125 49.859375 60.734375 46.3125 
Q 62.453125 42.78125 63.234375 37.765625 
Q 64.015625 32.765625 64.015625 26.65625 
z
M 11.03125 26.46875 
Q 11.03125 21 11.546875 17.09375 
Q 12.0625 13.1875 13.1875 10.671875 
Q 14.3125 8.15625 16.015625 6.984375 
Q 17.71875 5.8125 20.125 5.8125 
Q 22.515625 5.8125 24.390625 6.859375 
Q 26.265625 7.90625 27.5625 10.296875 
Q 28.859375 12.703125 29.53125 16.53125 
Q 30.21875 20.359375 30.328125 25.875 
L 30.328125 27.046875 
Q 30.328125 32.671875 29.640625 36.546875 
Q 28.953125 40.4375 27.65625 42.828125 
Q 26.375 45.21875 24.484375 46.265625 
Q 22.609375 47.3125 20.171875 47.3125 
Q 17.875 47.3125 16.15625 46.1875 
Q 14.453125 45.0625 13.296875 42.578125 
Q 12.15625 40.09375 11.59375 36.109375 
Q 11.03125 32.125 11.03125 26.46875 
z
M 56.453125 26.46875 
Q 56.453125 31.34375 55.984375 35.15625 
Q 55.515625 38.96875 54.46875 41.59375 
Q 53.421875 44.234375 51.65625 45.59375 
Q 49.90625 46.96875 47.3125 46.96875 
Q 45.21875 46.96875 43.375 46.140625 
Q 41.546875 45.3125 40.125 42.96875 
Q 38.71875 40.625 37.90625 36.5 
Q 37.109375 32.375 37.109375 25.78125 
L 37.109375 24.65625 
Q 37.15625 19.390625 37.859375 15.71875 
Q 38.578125 12.0625 39.859375 9.78125 
Q 41.15625 7.515625 43.015625 6.515625 
Q 44.875 5.515625 47.265625 5.515625 
Q 49.859375 5.515625 51.609375 6.921875 
Q 53.375 8.34375 54.4375 11.03125 
Q 55.515625 13.71875 55.984375 17.59375 
Q 56.453125 21.484375 56.453125 26.46875 
z
" id="LiberationSansNarrow-1092"/>
       <path d="M 34.859375 0 
L 34.859375 46.4375 
L 19.875 46.4375 
Q 18.890625 37.453125 18.03125 30.4375 
Q 17.1875 23.4375 16.3125 18.15625 
Q 15.4375 12.890625 14.40625 9.25 
Q 13.375 5.609375 11.953125 3.34375 
Q 10.546875 1.078125 8.65625 0.046875 
Q 6.78125 -0.984375 4.203125 -0.984375 
Q 3.03125 -0.984375 2.078125 -0.78125 
Q 1.125 -0.59375 0.4375 -0.34375 
L 0.4375 5.953125 
Q 0.875 5.765625 1.625 5.640625 
Q 2.390625 5.515625 3.171875 5.515625 
Q 4.59375 5.515625 5.59375 6.53125 
Q 6.59375 7.5625 7.390625 9.859375 
Q 8.203125 12.15625 8.859375 15.796875 
Q 9.515625 19.4375 10.203125 24.703125 
Q 10.890625 29.984375 11.625 36.921875 
L 13.375 52.828125 
L 42.140625 52.828125 
L 42.140625 0 
z
" id="LiberationSansNarrow-1083"/>
      </defs>
      <use xlink:href="#LiberationSansNarrow-1056"/>
      <use x="51.3125" xlink:href="#LiberationSansNarrow-1072"/>
      <use x="95.792969" xlink:href="#LiberationSansNarrow-1079"/>
      <use x="133.341797" xlink:href="#LiberationSansNarrow-1084"/>
      <use x="189.738281" xlink:href="#LiberationSansNarrow-1077"/>
      <use x="235.34375" xlink:href="#LiberationSansNarrow-1088"/>
      <use x="280.949219" xlink:href="#LiberationSansNarrow-32"/>
      <use x="303.751953" xlink:href="#LiberationSansNarrow-1087"/>
      <use x="348.185547" xlink:href="#LiberationSansNarrow-1086"/>
      <use x="393.791016" xlink:href="#LiberationSansNarrow-1088"/>
      <use x="437.146484" xlink:href="#LiberationSansNarrow-1090"/>
      <use x="474.695312" xlink:href="#LiberationSansNarrow-1092"/>
      <use x="542.175781" xlink:href="#LiberationSansNarrow-1077"/>
      <use x="584.40625" xlink:href="#LiberationSansNarrow-1083"/>
      <use x="632.208984" xlink:href="#LiberationSansNarrow-1103"/>
     </g>
    </g>
   </g>
   <g id="line2d_12">
    <path clip-path="url(#pcef3ddc227)" d="M 69.585 222.646748 
L 70.888343 224.513967 
L 72.191685 223.424091 
L 73.495028 219.849983 
L 74.79837 220.864038 
L 76.101713 217.117504 
L 77.405056 215.592703 
L 78.708398 213.464238 
L 80.011741 205.428598 
L 81.315084 201.097027 
L 82.618426 202.176758 
L 83.921769 205.645569 
L 85.225111 207.711718 
L 86.528454 207.498651 
L 87.831797 211.935442 
L 91.741825 200.353239 
L 93.045167 202.658201 
L 94.34851 203.724745 
L 95.651852 207.343381 
L 96.955195 207.625281 
L 98.258538 207.620302 
L 99.56188 207.21489 
L 102.168565 210.200302 
L 103.471908 208.887764 
L 104.775251 201.673407 
L 106.078593 199.397304 
L 107.381936 199.429206 
L 108.685279 197.577525 
L 109.988621 193.939803 
L 111.291964 188.904832 
L 112.595306 184.84218 
L 113.898649 176.135119 
L 115.201992 169.01709 
L 116.505334 166.737973 
L 117.808677 166.626763 
L 119.112019 167.894917 
L 120.415362 166.818767 
L 121.718705 169.510044 
L 123.022047 172.689826 
L 124.32539 173.248656 
L 125.628733 175.340197 
L 126.932075 177.025833 
L 128.235418 180.013913 
L 129.53876 179.579878 
L 130.842103 180.977907 
L 132.145446 183.272212 
L 133.448788 182.963837 
L 136.055474 177.055177 
L 137.358816 175.508627 
L 138.662159 175.309632 
L 139.965501 174.984823 
L 142.572187 187.725897 
L 143.875529 191.94437 
L 145.178872 194.550997 
L 146.482214 192.959403 
L 147.785557 189.000009 
L 149.0889 188.962795 
L 150.392242 186.937058 
L 151.695585 188.182272 
L 152.998928 193.115665 
L 154.30227 192.335624 
L 155.605613 191.131687 
L 158.212298 181.546197 
L 159.515641 180.716437 
L 163.425669 169.784138 
L 164.729011 170.522423 
L 166.032354 168.08453 
L 167.335696 167.809971 
L 168.639039 169.342347 
L 169.942382 177.011499 
L 171.245724 178.351973 
L 172.549067 177.77698 
L 173.852409 179.417567 
L 175.155752 176.852477 
L 176.459095 171.88492 
L 177.762437 167.443437 
L 179.06578 161.894371 
L 180.369123 161.593999 
L 181.672465 162.175346 
L 182.975808 165.361052 
L 184.27915 166.544179 
L 185.582493 169.395592 
L 186.885836 171.159779 
L 189.492521 166.894663 
L 190.795864 166.182339 
L 192.099206 166.622113 
L 193.402549 166.667667 
L 194.705891 165.50817 
L 196.009234 164.160508 
L 197.312577 166.01217 
L 198.615919 163.903923 
L 199.919262 164.480331 
L 201.222604 164.499663 
L 202.525947 174.514169 
L 203.82929 183.030451 
L 205.132632 187.280511 
L 206.435975 184.267155 
L 207.739318 182.419849 
L 209.04266 182.325225 
L 211.649345 188.155387 
L 212.952688 186.351041 
L 214.256031 190.948631 
L 215.559373 191.745291 
L 216.862716 196.217236 
L 218.166058 196.609721 
L 219.469401 196.739612 
L 220.772744 191.933679 
L 222.076086 183.226023 
L 223.379429 175.569657 
L 224.682772 175.029919 
L 225.986114 169.706503 
L 227.289457 168.407969 
L 228.592799 164.063504 
L 229.896142 162.182715 
L 232.502827 151.449906 
L 233.80617 147.335205 
L 235.109513 145.341036 
L 236.412855 150.012047 
L 237.716198 149.265638 
L 239.01954 154.894591 
L 240.322883 162.854556 
L 241.626226 166.591675 
L 242.929568 167.8834 
L 244.232911 170.28264 
L 245.536253 175.347993 
L 246.839596 174.28592 
L 248.142939 177.347945 
L 249.446281 175.968251 
L 250.749624 175.031703 
L 252.052967 175.302803 
L 253.356309 176.417342 
L 254.659652 175.307459 
L 255.962994 173.210874 
L 257.266337 170.729943 
L 258.56968 171.674299 
L 259.873022 172.827254 
L 261.176365 175.063898 
L 262.479708 173.203565 
L 263.78305 168.363989 
L 265.086393 170.339313 
L 266.389735 169.67831 
L 267.693078 171.312594 
L 268.996421 171.516542 
L 270.299763 174.93097 
L 271.603106 176.181737 
L 272.906448 168.798071 
L 274.209791 169.401831 
L 275.513134 168.950153 
L 276.816476 165.402026 
L 278.119819 160.853714 
L 280.726504 153.052778 
L 282.029847 151.196451 
L 283.333189 147.727914 
L 284.636532 142.902548 
L 285.939875 142.819792 
L 287.243217 146.638767 
L 288.54656 144.239948 
L 289.849903 144.237995 
L 292.456588 143.199197 
L 293.75993 144.289202 
L 295.063273 142.117917 
L 296.366616 143.097967 
L 297.669958 139.613811 
L 298.973301 138.105494 
L 300.276643 141.670511 
L 301.579986 139.548974 
L 302.883329 134.806052 
L 304.186671 131.359934 
L 305.490014 125.398184 
L 306.793357 122.864074 
L 308.096699 124.20573 
L 309.400042 126.682853 
L 310.703384 126.901195 
L 312.006727 126.273911 
L 313.31007 125.902921 
L 314.613412 126.782801 
L 315.916755 130.860469 
L 317.220097 134.301122 
L 318.52344 133.527621 
L 319.826783 135.004216 
L 321.130125 136.058003 
L 322.433468 140.379804 
L 323.736811 137.723202 
L 325.040153 135.511348 
L 326.343496 135.781919 
L 327.646838 139.616603 
L 328.950181 144.422828 
L 330.253524 147.909855 
L 331.556866 147.848047 
L 332.860209 149.855289 
L 334.163552 150.897606 
L 335.466894 147.624402 
L 338.073579 152.378067 
L 339.376922 156.709674 
L 340.680265 165.325567 
L 341.983607 166.519269 
L 343.28695 168.875226 
L 344.590292 168.924707 
L 345.893635 169.9137 
L 348.50032 164.526765 
L 349.803663 167.379842 
L 351.107006 168.073404 
L 352.410348 169.416916 
L 353.713691 167.965163 
L 355.017033 166.828247 
L 356.320376 167.564455 
L 357.623719 170.692561 
L 358.927061 172.471914 
L 360.230404 172.155948 
L 361.533747 163.364329 
L 362.837089 157.630772 
L 364.140432 148.862925 
L 365.443774 143.99613 
L 366.747117 140.810634 
L 368.05046 140.606063 
L 369.353802 138.193365 
L 370.657145 136.033376 
L 371.960487 138.395082 
L 373.26383 140.002539 
L 374.567173 142.008848 
L 375.870515 140.522324 
L 377.173858 141.947486 
L 378.477201 140.188013 
L 379.780543 139.161405 
L 381.083886 143.868967 
L 383.690571 155.460783 
L 384.993914 156.362142 
L 386.297256 154.373544 
L 388.903942 148.876702 
L 390.207284 146.697023 
L 391.510627 145.21111 
L 394.117312 137.209495 
L 395.420655 133.906598 
L 396.723997 135.258258 
L 398.02734 137.208929 
L 399.330682 138.095531 
L 400.634025 136.067413 
L 401.937368 130.189775 
L 403.24071 131.660941 
L 404.544053 134.621001 
L 405.847396 135.273357 
L 407.150738 133.406553 
L 408.454081 129.496052 
L 409.757423 127.663051 
L 411.060766 126.246869 
L 412.364109 124.647207 
L 413.667451 121.370302 
L 414.970794 117.339491 
L 416.274136 110.977168 
L 417.577479 109.625685 
L 418.880822 106.517674 
L 420.184164 104.808064 
L 421.487507 103.723404 
L 422.79085 105.85544 
L 424.094192 109.403568 
L 425.397535 110.049383 
L 426.700877 106.611732 
L 428.00422 104.569653 
L 429.307563 108.085181 
L 430.610905 110.09383 
L 431.914248 113.272868 
L 433.217591 113.856763 
L 434.520933 113.602275 
L 437.127618 122.452218 
L 438.430961 124.585125 
L 439.734304 124.27721 
L 441.037646 115.742177 
L 442.340989 112.958111 
L 443.644331 114.748819 
L 444.947674 112.283365 
L 446.251017 113.14029 
L 447.554359 108.795758 
L 448.857702 107.587224 
L 450.161045 112.838254 
L 451.464387 114.35637 
L 452.76773 108.907701 
L 454.071072 106.762596 
L 455.374415 111.256694 
L 456.677758 112.543405 
L 460.587786 122.496663 
L 461.891128 130.943903 
L 463.194471 135.667524 
L 464.497813 137.029904 
L 465.801156 139.816141 
L 467.104499 139.902961 
L 468.407841 139.500413 
L 471.014526 135.774119 
L 472.317869 133.664828 
L 473.621212 129.651769 
L 474.924554 128.455794 
L 476.227897 121.805642 
L 477.53124 116.339261 
L 478.834582 109.389295 
L 480.137925 109.880954 
L 481.441267 112.2493 
L 482.74461 112.084132 
L 484.047953 114.825113 
L 485.351295 114.816223 
L 486.654638 108.808022 
L 487.957981 104.946569 
L 489.261323 104.431504 
L 491.868008 107.289061 
L 494.474694 89.222132 
L 495.778036 86.020719 
L 497.081379 84.498793 
L 498.384721 86.61317 
L 499.688064 83.564822 
L 500.991407 83.937521 
L 502.294749 84.754893 
L 503.598092 81.370787 
L 504.901435 78.542477 
L 506.204777 76.779024 
L 507.50812 70.480096 
L 508.811462 62.790555 
L 510.114805 65.52373 
L 511.418148 73.439422 
L 512.72149 76.301345 
L 514.024833 73.933856 
L 515.328175 70.957868 
L 516.631518 61.840115 
L 517.934861 55.300595 
L 519.238203 42.149834 
L 520.541546 34.688547 
L 521.844889 31.557753 
L 523.148231 31.709332 
L 524.451574 28.583267 
L 525.754916 27.354274 
L 527.058259 26.976529 
L 528.361602 31.376149 
L 529.664944 31.97114 
L 530.968287 35.089031 
L 532.27163 39.287571 
L 533.574972 42.939077 
L 534.878315 43.388929 
L 536.181657 44.064507 
L 537.485 44.387869 
L 537.485 44.387869 
" style="fill:none;stroke:#1f77b4;stroke-linecap:square;"/>
   </g>
   <g id="line2d_13">
    <path clip-path="url(#pcef3ddc227)" d="M 69.585 222.434487 
L 70.888343 224.45411 
L 72.191685 224.547273 
L 73.495028 221.223743 
L 74.79837 222.849796 
L 76.101713 218.269406 
L 78.708398 212.892298 
L 80.011741 206.201664 
L 81.315084 201.949953 
L 82.618426 202.637941 
L 83.921769 205.837547 
L 85.225111 208.105228 
L 86.528454 207.039461 
L 87.831797 211.722115 
L 89.135139 207.397286 
L 90.438482 203.844443 
L 91.741825 200.887285 
L 93.045167 203.457584 
L 94.34851 203.957371 
L 95.651852 207.200783 
L 96.955195 206.795614 
L 98.258538 208.542108 
L 99.56188 207.645279 
L 102.168565 210.149743 
L 103.471908 208.389302 
L 104.775251 201.02011 
L 106.078593 199.039183 
L 107.381936 197.593999 
L 108.685279 195.261125 
L 109.988621 191.753078 
L 111.291964 186.529429 
L 112.595306 182.514541 
L 113.898649 174.665082 
L 115.201992 169.049299 
L 116.505334 166.736937 
L 117.808677 165.992402 
L 119.112019 166.459025 
L 120.415362 164.870318 
L 121.718705 167.947209 
L 123.022047 171.975853 
L 125.628733 173.69246 
L 126.932075 174.724587 
L 128.235418 178.831224 
L 130.842103 179.578791 
L 132.145446 181.563243 
L 133.448788 179.766266 
L 134.752131 178.613362 
L 136.055474 176.152755 
L 137.358816 175.917976 
L 138.662159 175.930113 
L 139.965501 176.626975 
L 142.572187 187.086013 
L 145.178872 193.744099 
L 146.482214 191.963189 
L 147.785557 187.288976 
L 149.0889 185.557194 
L 150.392242 185.118372 
L 151.695585 188.068589 
L 152.998928 191.741301 
L 154.30227 190.637663 
L 155.605613 188.924099 
L 156.908955 182.799486 
L 158.212298 178.695989 
L 159.515641 177.668171 
L 160.818983 173.986319 
L 162.122326 169.050825 
L 163.425669 165.044674 
L 164.729011 165.461135 
L 166.032354 162.61012 
L 167.335696 161.905401 
L 168.639039 164.696118 
L 169.942382 173.332531 
L 171.245724 174.760606 
L 172.549067 174.306018 
L 173.852409 176.952449 
L 175.155752 175.620043 
L 176.459095 170.356075 
L 179.06578 158.632979 
L 180.369123 158.521666 
L 181.672465 158.955425 
L 184.27915 162.800602 
L 185.582493 166.383998 
L 186.885836 167.654107 
L 188.189178 166.101456 
L 189.492521 163.630131 
L 190.795864 162.525185 
L 192.099206 162.347643 
L 193.402549 163.371 
L 194.705891 162.883713 
L 196.009234 162.577384 
L 197.312577 163.495454 
L 198.615919 161.157303 
L 199.919262 160.605311 
L 201.222604 160.840556 
L 203.82929 179.304348 
L 205.132632 183.484476 
L 206.435975 180.563841 
L 207.739318 179.228598 
L 209.04266 178.24478 
L 210.346003 179.822313 
L 211.649345 182.148589 
L 212.952688 179.9278 
L 214.256031 185.123988 
L 215.559373 186.755728 
L 216.862716 189.948888 
L 218.166058 190.091522 
L 219.469401 189.796437 
L 220.772744 185.458955 
L 222.076086 177.724697 
L 223.379429 171.992886 
L 224.682772 171.813037 
L 225.986114 165.747968 
L 227.289457 164.25291 
L 228.592799 160.819095 
L 229.896142 158.971871 
L 231.199485 152.881504 
L 232.502827 149.544482 
L 233.80617 143.940321 
L 235.109513 143.045301 
L 236.412855 148.412407 
L 237.716198 146.903778 
L 239.01954 151.828265 
L 240.322883 159.491813 
L 241.626226 163.556244 
L 242.929568 165.322254 
L 244.232911 169.309596 
L 245.536253 174.538587 
L 246.839596 173.291111 
L 248.142939 174.757527 
L 250.749624 171.674705 
L 252.052967 171.481979 
L 253.356309 172.770644 
L 254.659652 170.920473 
L 255.962994 167.852237 
L 257.266337 166.403348 
L 258.56968 166.319733 
L 259.873022 168.657049 
L 261.176365 171.44278 
L 262.479708 170.432166 
L 263.78305 165.242797 
L 265.086393 166.856003 
L 266.389735 165.707275 
L 267.693078 166.986933 
L 268.996421 167.370173 
L 270.299763 171.093614 
L 271.603106 172.600375 
L 272.906448 166.929363 
L 274.209791 167.857631 
L 275.513134 167.9751 
L 276.816476 164.918838 
L 278.119819 160.338643 
L 279.423162 157.416323 
L 280.726504 153.98142 
L 282.029847 152.464537 
L 283.333189 149.421308 
L 284.636532 144.67992 
L 285.939875 145.903987 
L 287.243217 150.691031 
L 288.54656 149.071425 
L 289.849903 149.346865 
L 291.153245 149.461649 
L 292.456588 148.797028 
L 293.75993 150.451662 
L 295.063273 148.870124 
L 296.366616 150.793933 
L 297.669958 146.568478 
L 298.973301 143.222199 
L 300.276643 147.03966 
L 301.579986 144.89823 
L 302.883329 141.485864 
L 304.186671 139.085288 
L 305.490014 133.667911 
L 306.793357 132.23495 
L 308.096699 134.92955 
L 309.400042 137.073762 
L 310.703384 137.687088 
L 312.006727 136.956909 
L 313.31007 137.328319 
L 314.613412 138.541005 
L 315.916755 143.141309 
L 317.220097 147.319795 
L 318.52344 145.976741 
L 319.826783 147.356216 
L 321.130125 148.905776 
L 322.433468 152.164473 
L 323.736811 149.760255 
L 325.040153 146.419521 
L 326.343496 146.345327 
L 327.646838 150.81158 
L 328.950181 155.775651 
L 330.253524 158.772911 
L 331.556866 159.090693 
L 332.860209 160.982887 
L 334.163552 160.906357 
L 335.466894 158.137042 
L 338.073579 163.118529 
L 339.376922 167.0282 
L 340.680265 175.109061 
L 341.983607 177.044796 
L 343.28695 179.778956 
L 344.590292 180.057516 
L 345.893635 179.057016 
L 347.196978 176.662009 
L 348.50032 174.678075 
L 349.803663 177.499829 
L 351.107006 179.020586 
L 352.410348 180.906841 
L 353.713691 179.642306 
L 355.017033 177.988084 
L 356.320376 179.610645 
L 357.623719 182.144188 
L 358.927061 185.259637 
L 360.230404 183.748775 
L 361.533747 175.441601 
L 362.837089 168.858674 
L 364.140432 159.86937 
L 366.747117 152.536728 
L 368.05046 153.007962 
L 369.353802 150.492008 
L 370.657145 150.418241 
L 371.960487 151.922488 
L 373.26383 154.508091 
L 374.567173 156.770444 
L 375.870515 155.362053 
L 377.173858 154.907807 
L 379.780543 151.881727 
L 381.083886 157.229339 
L 383.690571 169.322496 
L 384.993914 171.004124 
L 386.297256 168.664038 
L 387.600599 164.92627 
L 390.207284 160.546618 
L 391.510627 158.616406 
L 392.813969 154.680802 
L 394.117312 149.568235 
L 395.420655 145.887902 
L 398.02734 146.48645 
L 399.330682 148.079906 
L 400.634025 145.54085 
L 401.937368 138.684459 
L 403.24071 139.845591 
L 404.544053 143.96764 
L 405.847396 144.423901 
L 407.150738 143.72051 
L 408.454081 139.666306 
L 409.757423 137.400768 
L 411.060766 135.597062 
L 412.364109 134.288598 
L 413.667451 130.235523 
L 414.970794 125.025589 
L 416.274136 117.822728 
L 417.577479 115.663055 
L 418.880822 112.301916 
L 420.184164 111.22449 
L 421.487507 110.614165 
L 422.79085 112.162933 
L 424.094192 115.439686 
L 425.397535 114.542254 
L 426.700877 111.011429 
L 428.00422 108.794687 
L 429.307563 112.189331 
L 430.610905 114.00177 
L 431.914248 116.477886 
L 434.520933 116.668548 
L 435.824276 121.349835 
L 437.127618 125.114289 
L 438.430961 127.639137 
L 439.734304 128.200466 
L 441.037646 120.742357 
L 442.340989 117.869414 
L 443.644331 117.614214 
L 444.947674 113.849649 
L 446.251017 114.114302 
L 447.554359 109.925922 
L 448.857702 108.719317 
L 450.161045 113.883732 
L 451.464387 114.818395 
L 452.76773 109.232913 
L 454.071072 106.881085 
L 455.374415 110.94098 
L 456.677758 111.928285 
L 459.284443 117.484118 
L 460.587786 119.48963 
L 461.891128 127.681779 
L 463.194471 131.960432 
L 464.497813 134.640629 
L 465.801156 136.543827 
L 467.104499 136.015626 
L 468.407841 135.903917 
L 469.711184 134.441897 
L 471.014526 131.873618 
L 472.317869 131.018646 
L 473.621212 126.499435 
L 474.924554 126.010811 
L 476.227897 119.559683 
L 477.53124 115.140529 
L 478.834582 107.299064 
L 480.137925 108.723031 
L 481.441267 112.50218 
L 482.74461 110.511463 
L 484.047953 112.08405 
L 485.351295 111.93096 
L 486.654638 106.441339 
L 487.957981 103.399055 
L 489.261323 102.340039 
L 490.564666 102.349974 
L 491.868008 104.711476 
L 493.171351 96.567856 
L 494.474694 87.302326 
L 495.778036 82.829537 
L 497.081379 80.406418 
L 498.384721 82.935226 
L 499.688064 80.522411 
L 500.991407 80.13881 
L 502.294749 80.298924 
L 503.598092 76.840236 
L 504.901435 73.886239 
L 506.204777 72.175131 
L 507.50812 67.487898 
L 508.811462 60.931608 
L 510.114805 64.28155 
L 511.418148 72.90232 
L 512.72149 75.298579 
L 514.024833 71.070191 
L 515.328175 68.049479 
L 516.631518 58.999885 
L 517.934861 51.838183 
L 519.238203 38.349455 
L 520.541546 31.208499 
L 521.844889 27.588816 
L 523.148231 28.225274 
L 524.451574 25.45416 
L 525.754916 25.092727 
L 527.058259 26.36508 
L 528.361602 31.933397 
L 529.664944 32.357048 
L 530.968287 36.331274 
L 532.27163 41.351477 
L 533.574972 45.174546 
L 534.878315 44.494941 
L 537.485 44.387869 
L 537.485 44.387869 
" style="fill:none;stroke:#ff7f0e;stroke-linecap:square;"/>
   </g>
   <g id="line2d_14">
    <path clip-path="url(#pcef3ddc227)" d="M 69.585 222.540524 
L 70.888343 224.483964 
L 72.191685 223.982852 
L 73.495028 220.53332 
L 74.79837 221.850854 
L 76.101713 217.689383 
L 77.405056 215.579884 
L 78.708398 213.173497 
L 80.011741 205.808204 
L 81.315084 201.516422 
L 82.618426 202.400656 
L 83.921769 205.734972 
L 85.225111 207.901802 
L 86.528454 207.261234 
L 87.831797 211.821163 
L 89.135139 207.675599 
L 91.741825 200.611686 
L 93.045167 203.048983 
L 94.34851 203.832196 
L 95.651852 207.262959 
L 96.955195 207.19987 
L 98.258538 208.067977 
L 99.56188 207.4171 
L 102.168565 210.161657 
L 103.471908 208.624305 
L 104.775251 201.332182 
L 106.078593 199.204149 
L 107.381936 198.490571 
L 108.685279 196.395553 
L 109.988621 192.823372 
L 111.291964 187.692964 
L 112.595306 183.654468 
L 113.898649 175.379586 
L 115.201992 169.01392 
L 116.505334 166.718179 
L 117.808677 166.289431 
L 119.112019 167.15438 
L 120.415362 165.819847 
L 121.718705 168.705206 
L 123.022047 172.310733 
L 124.32539 173.00744 
L 126.932075 175.845999 
L 128.235418 179.396175 
L 129.53876 179.374877 
L 130.842103 180.249535 
L 132.145446 182.388714 
L 133.448788 181.330488 
L 134.752131 179.338724 
L 136.055474 176.569185 
L 137.358816 175.673602 
L 138.662159 175.579289 
L 139.965501 175.758874 
L 142.572187 187.36514 
L 143.875529 191.079541 
L 145.178872 194.105184 
L 146.482214 192.419091 
L 147.785557 188.101228 
L 149.0889 187.208265 
L 150.392242 185.978691 
L 151.695585 188.073288 
L 152.998928 192.375351 
L 154.30227 191.433041 
L 155.605613 189.973011 
L 156.908955 184.513683 
L 158.212298 180.061783 
L 159.515641 179.132152 
L 160.818983 175.479083 
L 162.122326 171.110191 
L 163.425669 167.345752 
L 164.729011 167.922587 
L 166.032354 165.277088 
L 167.335696 164.785979 
L 168.639039 166.948545 
L 169.942382 175.100173 
L 171.245724 176.484327 
L 172.549067 175.969341 
L 173.852409 178.109117 
L 175.155752 176.152644 
L 177.762437 165.928867 
L 179.06578 160.185273 
L 180.369123 159.979509 
L 181.672465 160.486956 
L 182.975808 163.011804 
L 184.27915 164.590868 
L 185.582493 167.808483 
L 186.885836 169.324983 
L 188.189178 167.505104 
L 189.492521 165.180307 
L 190.795864 164.271034 
L 192.099206 164.400356 
L 193.402549 164.935671 
L 196.009234 163.280647 
L 197.312577 164.667023 
L 198.615919 162.444086 
L 199.919262 162.454941 
L 201.222604 162.582391 
L 202.525947 172.373029 
L 203.82929 181.079271 
L 205.132632 185.294293 
L 206.435975 182.327375 
L 207.739318 180.735989 
L 209.04266 180.195323 
L 210.346003 182.442028 
L 211.649345 185.056235 
L 212.952688 183.041645 
L 214.256031 187.940698 
L 215.559373 189.156472 
L 216.862716 192.983224 
L 218.166058 193.249521 
L 219.469401 193.164402 
L 220.772744 188.59502 
L 222.076086 180.37693 
L 223.379429 173.680832 
L 224.682772 173.320394 
L 225.986114 167.625011 
L 227.289457 166.227832 
L 228.592799 162.338744 
L 229.896142 160.474738 
L 231.199485 154.837527 
L 232.502827 150.386911 
L 233.80617 145.52693 
L 235.109513 144.080237 
L 236.412855 149.096961 
L 237.716198 147.970794 
L 239.01954 153.247734 
L 240.322883 161.0594 
L 241.626226 164.959953 
L 242.929568 166.488033 
L 244.232911 169.673456 
L 245.536253 174.819761 
L 246.839596 173.665897 
L 248.142939 175.932672 
L 249.446281 174.478135 
L 250.749624 173.233341 
L 252.052967 173.272088 
L 253.356309 174.473793 
L 254.659652 172.992194 
L 255.962994 170.405762 
L 257.266337 168.438644 
L 258.56968 168.869023 
L 259.873022 170.61124 
L 261.176365 173.12045 
L 262.479708 171.680419 
L 263.78305 166.667569 
L 265.086393 168.463241 
L 266.389735 167.55978 
L 267.693078 169.01751 
L 268.996421 169.310653 
L 270.299763 172.878613 
L 271.603106 174.256434 
L 272.906448 167.723014 
L 274.209791 168.487658 
L 275.513134 168.317477 
L 276.816476 165.012124 
L 278.119819 160.448073 
L 280.726504 153.35647 
L 282.029847 151.666452 
L 283.333189 148.405918 
L 284.636532 143.621609 
L 285.939875 144.174209 
L 287.243217 148.461903 
L 288.54656 146.451431 
L 289.849903 146.587567 
L 291.153245 146.382256 
L 292.456588 145.791489 
L 293.75993 147.161339 
L 295.063273 145.281626 
L 296.366616 146.726427 
L 297.669958 142.876081 
L 298.973301 140.45284 
L 300.276643 144.143389 
L 301.579986 142.01196 
L 302.883329 137.927068 
L 304.186671 135.001454 
L 305.490014 129.310096 
L 306.793357 127.320417 
L 308.096699 129.327202 
L 309.400042 131.640432 
L 310.703384 132.052903 
L 312.006727 131.375026 
L 313.31007 131.367932 
L 314.613412 132.410711 
L 315.916755 136.74363 
L 317.220097 140.543505 
L 318.52344 139.492039 
L 321.130125 142.221318 
L 322.433468 146.010102 
L 323.736811 143.479908 
L 325.040153 140.700007 
L 326.343496 140.796848 
L 327.646838 144.948958 
L 328.950181 149.834465 
L 330.253524 153.074998 
L 331.556866 153.203934 
L 332.860209 155.153337 
L 334.163552 155.63057 
L 335.466894 152.608784 
L 338.073579 157.476041 
L 339.376922 161.596951 
L 340.680265 169.945079 
L 341.983607 171.509002 
L 343.28695 174.053359 
L 344.590292 174.216845 
L 345.893635 174.207522 
L 347.196978 171.621395 
L 348.50032 169.324782 
L 349.803663 172.162205 
L 351.107006 173.267946 
L 352.410348 174.881288 
L 355.017033 172.128086 
L 356.320376 173.303931 
L 357.623719 176.136397 
L 358.927061 178.576409 
L 360.230404 177.666643 
L 361.533747 169.115281 
L 362.837089 162.95899 
L 364.140432 154.080821 
L 365.443774 149.761403 
L 366.747117 146.383493 
L 368.05046 146.516417 
L 369.353802 144.052131 
L 370.657145 142.925415 
L 373.26383 146.952583 
L 374.567173 149.085507 
L 375.870515 147.637607 
L 377.173858 148.126378 
L 378.477201 146.482807 
L 379.780543 145.220372 
L 381.083886 150.246301 
L 383.690571 162.088204 
L 384.993914 163.377625 
L 386.297256 161.21396 
L 387.600599 157.933157 
L 388.903942 155.461574 
L 390.207284 153.316599 
L 391.510627 151.608577 
L 392.813969 147.674847 
L 394.117312 143.081519 
L 395.420655 139.588825 
L 396.723997 140.399121 
L 399.330682 142.769682 
L 400.634025 140.484573 
L 401.937368 134.112659 
L 403.24071 135.427057 
L 404.544053 138.971876 
L 405.847396 139.525469 
L 407.150738 138.241808 
L 408.454081 134.259235 
L 409.757423 132.208916 
L 412.364109 129.144421 
L 413.667451 125.478182 
L 414.970794 120.85303 
L 416.274136 114.065565 
L 417.577479 112.30395 
L 418.880822 109.06735 
L 420.184164 107.678059 
L 421.487507 106.833272 
L 422.79085 108.669642 
L 424.094192 112.080054 
L 425.397535 111.937775 
L 426.700877 108.452524 
L 428.00422 106.321153 
L 429.307563 109.776209 
L 430.610905 111.686624 
L 431.914248 114.512715 
L 433.217591 114.872682 
L 434.520933 114.772133 
L 435.824276 119.348048 
L 437.127618 123.418395 
L 438.430961 125.748224 
L 439.734304 125.875475 
L 441.037646 117.877173 
L 442.340989 115.048795 
L 443.644331 115.810782 
L 444.947674 112.692273 
L 446.251017 113.25074 
L 447.554359 108.984846 
L 448.857702 107.777283 
L 450.161045 112.984678 
L 451.464387 114.208161 
L 452.76773 108.690365 
L 454.071072 106.440721 
L 455.374415 110.714854 
L 456.677758 111.849702 
L 459.284443 117.981895 
L 460.587786 120.593278 
L 461.891128 128.912194 
L 463.194471 133.411561 
L 464.497813 135.434489 
L 465.801156 137.776492 
L 468.407841 137.297086 
L 469.711184 135.660329 
L 471.014526 133.416982 
L 472.317869 131.937079 
L 473.621212 127.669514 
L 474.924554 126.828176 
L 476.227897 120.277454 
L 477.53124 115.33198 
L 478.834582 107.936921 
L 480.137925 108.892245 
L 481.441267 111.958102 
L 482.74461 110.883462 
L 484.047953 113.039528 
L 485.351295 112.958407 
L 486.654638 107.209411 
L 487.957981 103.756019 
L 489.261323 102.969377 
L 490.564666 103.67367 
L 491.868008 105.579152 
L 493.171351 97.135552 
L 494.474694 87.839052 
L 495.778036 84.002728 
L 497.081379 82.029073 
L 498.384721 84.350831 
L 499.688064 81.619664 
L 500.991407 81.613723 
L 502.294749 82.101145 
L 503.598092 78.679586 
L 504.901435 75.788128 
L 506.204777 74.050969 
L 507.50812 68.552503 
L 508.811462 61.423138 
L 510.114805 64.460398 
L 511.418148 72.722685 
L 512.72149 75.355253 
L 515.328175 69.065835 
L 516.631518 59.981913 
L 517.934861 53.132774 
L 519.238203 39.813592 
L 520.541546 32.511724 
L 521.844889 29.13713 
L 523.148231 29.530661 
L 524.451574 26.581453 
L 525.754916 25.783169 
L 527.058259 26.218988 
L 528.361602 31.19199 
L 529.664944 31.702858 
L 530.968287 35.239666 
L 532.27163 39.838763 
L 533.574972 43.573843 
L 534.878315 43.470849 
L 536.181657 43.78271 
L 537.485 43.926445 
L 537.485 43.926445 
" style="fill:none;stroke:#2ca02c;stroke-linecap:square;"/>
   </g>
   <g id="legend_1">
    <g id="patch_3">
     <path d="M 54.3534 74.556112 
L 109.911897 74.556112 
Q 112.244297 74.556112 112.244297 72.223712 
L 112.244297 23.2834 
Q 112.244297 20.951 109.911897 20.951 
L 54.3534 20.951 
Q 52.021 20.951 52.021 23.2834 
L 52.021 72.223712 
Q 52.021 74.556112 54.3534 74.556112 
z
" style="fill:#ffffff;opacity:0.8;stroke:#cccccc;stroke-linejoin:miter;"/>
    </g>
    <g id="line2d_15">
     <path d="M 56.6858 29.985406 
L 80.0098 29.985406 
" style="fill:none;stroke:#1f77b4;stroke-linecap:square;"/>
    </g>
    <g id="line2d_16"/>
    <g id="text_14">
     <!-- А -->
     <g transform="translate(89.3394 34.067106)scale(0.11662 -0.11662)">
      <defs>
       <path d="M 46.734375 0 
L 40.28125 20.125 
L 14.546875 20.125 
L 8.109375 0 
L 0.140625 0 
L 23.1875 68.796875 
L 31.890625 68.796875 
L 54.546875 0 
z
M 30.765625 50.09375 
Q 30.125 52.046875 29.546875 54.046875 
L 28.515625 57.71875 
L 27.734375 60.453125 
Q 27.4375 61.53125 27.4375 61.765625 
Q 27.34375 61.53125 27.078125 60.40625 
Q 26.8125 59.28125 26.375 57.625 
L 25.296875 53.953125 
L 24.125 50 
L 16.890625 27.390625 
L 37.984375 27.390625 
z
" id="LiberationSansNarrow-1040"/>
      </defs>
      <use xlink:href="#LiberationSansNarrow-1040"/>
     </g>
    </g>
    <g id="line2d_17">
     <path d="M 56.6858 46.687576 
L 80.0098 46.687576 
" style="fill:none;stroke:#ff7f0e;stroke-linecap:square;"/>
    </g>
    <g id="line2d_18"/>
    <g id="text_15">
     <!-- Б -->
     <g transform="translate(89.3394 50.769276)scale(0.11662 -0.11662)">
      <defs>
       <path d="M 49.5625 20.171875 
Q 49.5625 15.921875 48.34375 12.25 
Q 47.125 8.59375 44.703125 5.859375 
Q 42.28125 3.125 38.640625 1.5625 
Q 35.015625 0 30.125 0 
L 6.734375 0 
L 6.734375 68.796875 
L 43.796875 68.796875 
L 43.796875 61.1875 
L 14.359375 61.1875 
L 14.359375 39.703125 
L 29.6875 39.703125 
Q 34.671875 39.703125 38.40625 38.28125 
Q 42.140625 36.859375 44.609375 34.296875 
Q 47.078125 31.734375 48.3125 28.140625 
Q 49.5625 24.5625 49.5625 20.171875 
z
M 41.890625 20.0625 
Q 41.890625 25.984375 38.59375 29.125 
Q 35.296875 32.28125 28.765625 32.28125 
L 14.359375 32.28125 
L 14.359375 7.375 
L 29.046875 7.375 
Q 35.59375 7.375 38.734375 10.6875 
Q 41.890625 14.015625 41.890625 20.0625 
z
" id="LiberationSansNarrow-1041"/>
      </defs>
      <use xlink:href="#LiberationSansNarrow-1041"/>
     </g>
    </g>
    <g id="line2d_19">
     <path d="M 56.6858 63.389747 
L 80.0098 63.389747 
" style="fill:none;stroke:#2ca02c;stroke-linecap:square;"/>
    </g>
    <g id="line2d_20"/>
    <g id="text_16">
     <!-- А+Б -->
     <g transform="translate(89.3394 67.471447)scale(0.11662 -0.11662)">
      <defs>
       <path d="M 26.859375 29.6875 
L 26.859375 8.796875 
L 21 8.796875 
L 21 29.6875 
L 4 29.6875 
L 4 36.8125 
L 21 36.8125 
L 21 57.71875 
L 26.859375 57.71875 
L 26.859375 36.8125 
L 43.84375 36.8125 
L 43.84375 29.6875 
z
" id="LiberationSansNarrow-43"/>
      </defs>
      <use xlink:href="#LiberationSansNarrow-1040"/>
      <use x="54.6875" xlink:href="#LiberationSansNarrow-43"/>
      <use x="102.587891" xlink:href="#LiberationSansNarrow-1041"/>
     </g>
    </g>
   </g>
  </g>
 </g>
 <defs>
  <clipPath id="pcef3ddc227">
   <rect height="219.4" width="514.69" x="46.19" y="15.12"/>
  </clipPath>
 </defs>
</svg>
