<?xml version="1.0" encoding="utf-8" standalone="no"?>
<!DOCTYPE svg PUBLIC "-//W3C//DTD SVG 1.1//EN"
  "http://www.w3.org/Graphics/SVG/1.1/DTD/svg11.dtd">
<!-- Created with matplotlib (https://matplotlib.org/) -->
<svg height="288pt" version="1.1" viewBox="0 0 576 288" width="576pt" xmlns="http://www.w3.org/2000/svg" xmlns:xlink="http://www.w3.org/1999/xlink">
 <metadata>
  <rdf:RDF xmlns:cc="http://creativecommons.org/ns#" xmlns:dc="http://purl.org/dc/elements/1.1/" xmlns:rdf="http://www.w3.org/1999/02/22-rdf-syntax-ns#">
   <cc:Work>
    <dc:type rdf:resource="http://purl.org/dc/dcmitype/StillImage"/>
    <dc:date>2021-08-21T16:11:59.918087</dc:date>
    <dc:format>image/svg+xml</dc:format>
    <dc:creator>
     <cc:Agent>
      <dc:title>Matplotlib v3.3.4, https://matplotlib.org/</dc:title>
     </cc:Agent>
    </dc:creator>
   </cc:Work>
  </rdf:RDF>
 </metadata>
 <defs>
  <style type="text/css">*{stroke-linecap:butt;stroke-linejoin:round;}</style>
 </defs>
 <g id="figure_1">
  <g id="patch_1">
   <path d="M 0 288 
L 576 288 
L 576 0 
L 0 0 
z
" style="fill:#ffffff;"/>
  </g>
  <g id="axes_1">
   <g id="patch_2">
    <path d="M 46.19 234.52 
L 560.88 234.52 
L 560.88 15.12 
L 46.19 15.12 
z
" style="fill:#ffffff;"/>
   </g>
   <g id="matplotlib.axis_1">
    <g id="xtick_1">
     <g id="line2d_1">
      <path clip-path="url(#p4ede2e941a)" d="M 69.585 234.52 
L 69.585 15.12 
" style="fill:none;stroke:#b0b0b0;stroke-dasharray:1.48,0.64;stroke-dashoffset:0;stroke-width:0.4;"/>
     </g>
     <g id="text_1">
      <!-- 0 -->
      <g transform="translate(66.392344 251.665625)scale(0.14 -0.14)">
       <defs>
        <path d="M 42.390625 34.421875 
Q 42.390625 24.515625 40.84375 17.75 
Q 39.3125 10.984375 36.640625 6.8125 
Q 33.984375 2.640625 30.390625 0.828125 
Q 26.8125 -0.984375 22.703125 -0.984375 
Q 18.609375 -0.984375 15.03125 0.828125 
Q 11.46875 2.640625 8.828125 6.78125 
Q 6.203125 10.9375 4.703125 17.703125 
Q 3.21875 24.46875 3.21875 34.421875 
Q 3.21875 44.828125 4.703125 51.640625 
Q 6.203125 58.453125 8.828125 62.5 
Q 11.46875 66.546875 15.078125 68.1875 
Q 18.703125 69.828125 22.953125 69.828125 
Q 27 69.828125 30.53125 68.1875 
Q 34.078125 66.546875 36.71875 62.5 
Q 39.359375 58.453125 40.875 51.640625 
Q 42.390625 44.828125 42.390625 34.421875 
z
M 35.0625 34.421875 
Q 35.0625 42.625 34.28125 48.0625 
Q 33.5 53.515625 31.9375 56.765625 
Q 30.375 60.015625 28.09375 61.359375 
Q 25.828125 62.703125 22.953125 62.703125 
Q 19.921875 62.703125 17.578125 61.328125 
Q 15.234375 59.96875 13.671875 56.71875 
Q 12.109375 53.46875 11.296875 48.015625 
Q 10.5 42.578125 10.5 34.421875 
Q 10.5 26.515625 11.296875 21.09375 
Q 12.109375 15.671875 13.6875 12.375 
Q 15.28125 9.078125 17.578125 7.640625 
Q 19.875 6.203125 22.796875 6.203125 
Q 25.640625 6.203125 27.90625 7.640625 
Q 30.171875 9.078125 31.75 12.375 
Q 33.34375 15.671875 34.203125 21.09375 
Q 35.0625 26.515625 35.0625 34.421875 
z
" id="LiberationSansNarrow-48"/>
       </defs>
       <use xlink:href="#LiberationSansNarrow-48"/>
      </g>
     </g>
    </g>
    <g id="xtick_2">
     <g id="line2d_2">
      <path clip-path="url(#p4ede2e941a)" d="M 134.752131 234.52 
L 134.752131 15.12 
" style="fill:none;stroke:#b0b0b0;stroke-dasharray:1.48,0.64;stroke-dashoffset:0;stroke-width:0.4;"/>
     </g>
     <g id="text_2">
      <!-- 50 -->
      <g transform="translate(128.366818 251.665625)scale(0.14 -0.14)">
       <defs>
        <path d="M 42.140625 22.40625 
Q 42.140625 17.234375 40.859375 12.9375 
Q 39.59375 8.640625 37.078125 5.53125 
Q 34.578125 2.4375 30.8125 0.71875 
Q 27.046875 -0.984375 22.125 -0.984375 
Q 17.671875 -0.984375 14.375 0.28125 
Q 11.078125 1.5625 8.8125 3.78125 
Q 6.546875 6 5.203125 8.984375 
Q 3.859375 11.96875 3.265625 15.375 
L 10.546875 16.40625 
Q 10.984375 14.453125 11.78125 12.625 
Q 12.59375 10.796875 13.984375 9.34375 
Q 15.375 7.90625 17.40625 7.046875 
Q 19.4375 6.203125 22.3125 6.203125 
Q 25.09375 6.203125 27.390625 7.25 
Q 29.6875 8.296875 31.296875 10.34375 
Q 32.90625 12.40625 33.78125 15.375 
Q 34.671875 18.359375 34.671875 22.21875 
Q 34.671875 25.390625 33.84375 28.046875 
Q 33.015625 30.71875 31.453125 32.640625 
Q 29.890625 34.578125 27.609375 35.640625 
Q 25.34375 36.71875 22.46875 36.71875 
Q 20.65625 36.71875 19.140625 36.328125 
Q 17.625 35.9375 16.328125 35.25 
Q 15.046875 34.578125 13.96875 33.671875 
Q 12.890625 32.765625 11.96875 31.78125 
L 4.9375 31.78125 
L 6.78125 68.796875 
L 38.875 68.796875 
L 38.875 61.328125 
L 13.375 61.328125 
L 12.3125 39.5 
Q 14.203125 41.3125 17.078125 42.59375 
Q 19.96875 43.890625 23.921875 43.890625 
Q 28.125 43.890625 31.484375 42.328125 
Q 34.859375 40.765625 37.21875 37.90625 
Q 39.59375 35.0625 40.859375 31.109375 
Q 42.140625 27.15625 42.140625 22.40625 
z
" id="LiberationSansNarrow-53"/>
       </defs>
       <use xlink:href="#LiberationSansNarrow-53"/>
       <use x="45.605469" xlink:href="#LiberationSansNarrow-48"/>
      </g>
     </g>
    </g>
    <g id="xtick_3">
     <g id="line2d_3">
      <path clip-path="url(#p4ede2e941a)" d="M 199.919262 234.52 
L 199.919262 15.12 
" style="fill:none;stroke:#b0b0b0;stroke-dasharray:1.48,0.64;stroke-dashoffset:0;stroke-width:0.4;"/>
     </g>
     <g id="text_3">
      <!-- 100 -->
      <g transform="translate(190.341293 251.665625)scale(0.14 -0.14)">
       <defs>
        <path d="M 6.25 0 
L 6.25 7.46875 
L 20.609375 7.46875 
L 20.609375 60.40625 
L 7.90625 49.3125 
L 7.90625 57.625 
L 21.234375 68.796875 
L 27.875 68.796875 
L 27.875 7.46875 
L 41.609375 7.46875 
L 41.609375 0 
z
" id="LiberationSansNarrow-49"/>
       </defs>
       <use xlink:href="#LiberationSansNarrow-49"/>
       <use x="45.605469" xlink:href="#LiberationSansNarrow-48"/>
       <use x="91.210938" xlink:href="#LiberationSansNarrow-48"/>
      </g>
     </g>
    </g>
    <g id="xtick_4">
     <g id="line2d_4">
      <path clip-path="url(#p4ede2e941a)" d="M 265.086393 234.52 
L 265.086393 15.12 
" style="fill:none;stroke:#b0b0b0;stroke-dasharray:1.48,0.64;stroke-dashoffset:0;stroke-width:0.4;"/>
     </g>
     <g id="text_4">
      <!-- 150 -->
      <g transform="translate(255.508424 251.665625)scale(0.14 -0.14)">
       <use xlink:href="#LiberationSansNarrow-49"/>
       <use x="45.605469" xlink:href="#LiberationSansNarrow-53"/>
       <use x="91.210938" xlink:href="#LiberationSansNarrow-48"/>
      </g>
     </g>
    </g>
    <g id="xtick_5">
     <g id="line2d_5">
      <path clip-path="url(#p4ede2e941a)" d="M 330.253524 234.52 
L 330.253524 15.12 
" style="fill:none;stroke:#b0b0b0;stroke-dasharray:1.48,0.64;stroke-dashoffset:0;stroke-width:0.4;"/>
     </g>
     <g id="text_5">
      <!-- 200 -->
      <g transform="translate(320.675555 251.665625)scale(0.14 -0.14)">
       <defs>
        <path d="M 4.109375 0 
L 4.109375 6.203125 
Q 6.15625 11.921875 9.109375 16.28125 
Q 12.0625 20.65625 15.3125 24.1875 
Q 18.5625 27.734375 21.734375 30.765625 
Q 24.90625 33.796875 27.46875 36.8125 
Q 30.03125 39.84375 31.609375 43.15625 
Q 33.203125 46.484375 33.203125 50.6875 
Q 33.203125 53.609375 32.46875 55.828125 
Q 31.734375 58.0625 30.390625 59.5625 
Q 29.046875 61.078125 27.140625 61.828125 
Q 25.25 62.59375 22.90625 62.59375 
Q 20.75 62.59375 18.84375 61.859375 
Q 16.9375 61.140625 15.453125 59.671875 
Q 13.96875 58.203125 13.03125 56.03125 
Q 12.109375 53.859375 11.8125 50.984375 
L 4.4375 51.8125 
Q 4.78125 55.515625 6.125 58.78125 
Q 7.46875 62.0625 9.78125 64.53125 
Q 12.109375 67 15.359375 68.40625 
Q 18.609375 69.828125 22.90625 69.828125 
Q 27.09375 69.828125 30.390625 68.609375 
Q 33.6875 67.390625 35.9375 64.984375 
Q 38.1875 62.59375 39.40625 59.078125 
Q 40.625 55.5625 40.625 50.984375 
Q 40.625 47.515625 39.59375 44.390625 
Q 38.578125 41.265625 36.859375 38.421875 
Q 35.15625 35.59375 32.90625 32.953125 
Q 30.671875 30.328125 28.21875 27.828125 
L 23.296875 22.859375 
Q 20.796875 20.359375 18.625 17.859375 
Q 16.453125 15.375 14.734375 12.8125 
Q 13.03125 10.25 12.0625 7.46875 
L 41.5 7.46875 
L 41.5 0 
z
" id="LiberationSansNarrow-50"/>
       </defs>
       <use xlink:href="#LiberationSansNarrow-50"/>
       <use x="45.605469" xlink:href="#LiberationSansNarrow-48"/>
       <use x="91.210938" xlink:href="#LiberationSansNarrow-48"/>
      </g>
     </g>
    </g>
    <g id="xtick_6">
     <g id="line2d_6">
      <path clip-path="url(#p4ede2e941a)" d="M 395.420655 234.52 
L 395.420655 15.12 
" style="fill:none;stroke:#b0b0b0;stroke-dasharray:1.48,0.64;stroke-dashoffset:0;stroke-width:0.4;"/>
     </g>
     <g id="text_6">
      <!-- 250 -->
      <g transform="translate(385.842686 251.665625)scale(0.14 -0.14)">
       <use xlink:href="#LiberationSansNarrow-50"/>
       <use x="45.605469" xlink:href="#LiberationSansNarrow-53"/>
       <use x="91.210938" xlink:href="#LiberationSansNarrow-48"/>
      </g>
     </g>
    </g>
    <g id="xtick_7">
     <g id="line2d_7">
      <path clip-path="url(#p4ede2e941a)" d="M 460.587786 234.52 
L 460.587786 15.12 
" style="fill:none;stroke:#b0b0b0;stroke-dasharray:1.48,0.64;stroke-dashoffset:0;stroke-width:0.4;"/>
     </g>
     <g id="text_7">
      <!-- 300 -->
      <g transform="translate(451.009817 251.665625)scale(0.14 -0.14)">
       <defs>
        <path d="M 42 19 
Q 42 14.265625 40.75 10.546875 
Q 39.5 6.84375 37.0625 4.265625 
Q 34.625 1.703125 31.046875 0.359375 
Q 27.484375 -0.984375 22.859375 -0.984375 
Q 17.625 -0.984375 14.03125 0.609375 
Q 10.453125 2.203125 8.125 4.8125 
Q 5.8125 7.421875 4.640625 10.765625 
Q 3.46875 14.109375 3.125 17.671875 
L 10.546875 18.5 
Q 10.890625 15.765625 11.734375 13.515625 
Q 12.59375 11.28125 14.078125 9.671875 
Q 15.578125 8.0625 17.75 7.171875 
Q 19.921875 6.296875 22.859375 6.296875 
Q 28.328125 6.296875 31.421875 9.5625 
Q 34.515625 12.84375 34.515625 19.28125 
Q 34.515625 23.09375 33.125 25.40625 
Q 31.734375 27.734375 29.6875 29.03125 
Q 27.640625 30.328125 25.21875 30.765625 
Q 22.796875 31.203125 20.75 31.203125 
L 16.65625 31.203125 
L 16.65625 38.8125 
L 20.5625 38.8125 
Q 22.609375 38.8125 24.828125 39.328125 
Q 27.046875 39.84375 28.859375 41.1875 
Q 30.671875 42.53125 31.859375 44.828125 
Q 33.0625 47.125 33.0625 50.6875 
Q 33.0625 56.203125 30.375 59.390625 
Q 27.6875 62.59375 22.46875 62.59375 
Q 17.671875 62.59375 14.734375 59.609375 
Q 11.8125 56.640625 11.328125 51.21875 
L 4.109375 51.90625 
Q 4.546875 56.453125 6.125 59.8125 
Q 7.71875 63.1875 10.171875 65.40625 
Q 12.640625 67.625 15.8125 68.71875 
Q 19 69.828125 22.5625 69.828125 
Q 27.296875 69.828125 30.6875 68.375 
Q 34.078125 66.9375 36.21875 64.46875 
Q 38.375 62.015625 39.40625 58.6875 
Q 40.4375 55.375 40.4375 51.609375 
Q 40.4375 48.578125 39.75 45.9375 
Q 39.0625 43.3125 37.625 41.203125 
Q 36.1875 39.109375 33.953125 37.59375 
Q 31.734375 36.078125 28.609375 35.296875 
L 28.609375 35.109375 
Q 32.03125 34.671875 34.546875 33.21875 
Q 37.0625 31.78125 38.71875 29.625 
Q 40.375 27.484375 41.1875 24.75 
Q 42 22.015625 42 19 
z
" id="LiberationSansNarrow-51"/>
       </defs>
       <use xlink:href="#LiberationSansNarrow-51"/>
       <use x="45.605469" xlink:href="#LiberationSansNarrow-48"/>
       <use x="91.210938" xlink:href="#LiberationSansNarrow-48"/>
      </g>
     </g>
    </g>
    <g id="xtick_8">
     <g id="line2d_8">
      <path clip-path="url(#p4ede2e941a)" d="M 525.754916 234.52 
L 525.754916 15.12 
" style="fill:none;stroke:#b0b0b0;stroke-dasharray:1.48,0.64;stroke-dashoffset:0;stroke-width:0.4;"/>
     </g>
     <g id="text_8">
      <!-- 350 -->
      <g transform="translate(516.176948 251.665625)scale(0.14 -0.14)">
       <use xlink:href="#LiberationSansNarrow-51"/>
       <use x="45.605469" xlink:href="#LiberationSansNarrow-53"/>
       <use x="91.210938" xlink:href="#LiberationSansNarrow-48"/>
      </g>
     </g>
    </g>
    <g id="text_9">
     <!-- Месяцы -->
     <g transform="translate(281.943281 268.71625)scale(0.14 -0.14)">
      <defs>
       <path d="M 54.6875 0 
L 54.6875 45.90625 
Q 54.6875 48.390625 54.734375 50.96875 
Q 54.78125 53.5625 54.828125 55.71875 
Q 54.9375 58.203125 55.078125 60.546875 
Q 54.546875 58.0625 53.90625 55.609375 
Q 53.90625 55.609375 52.734375 51.171875 
Q 52.15625 48.78125 51.515625 46.875 
L 36.96875 0 
L 31.59375 0 
L 16.796875 46.875 
Q 16.546875 47.609375 16.3125 48.578125 
L 15.765625 50.6875 
L 15.140625 52.9375 
L 14.546875 55.171875 
Q 13.875 57.765625 13.234375 60.546875 
Q 13.28125 57.8125 13.375 55.125 
Q 13.484375 52.828125 13.5 50.3125 
Q 13.53125 47.796875 13.53125 45.90625 
L 13.53125 0 
L 6.734375 0 
L 6.734375 68.796875 
L 16.796875 68.796875 
L 31.78125 21.09375 
Q 32.078125 20.125 32.46875 18.578125 
Q 32.859375 17.046875 33.21875 15.421875 
Q 33.59375 13.8125 33.890625 12.375 
Q 34.1875 10.9375 34.328125 10.15625 
Q 34.421875 10.9375 34.734375 12.40625 
Q 35.0625 13.875 35.5 15.484375 
L 36.328125 18.609375 
Q 36.71875 20.125 37.0625 21.09375 
L 51.765625 68.796875 
L 61.578125 68.796875 
L 61.578125 0 
z
" id="LiberationSansNarrow-1052"/>
       <path d="M 10.6875 24.5625 
Q 10.6875 20.40625 11.5625 16.90625 
Q 12.453125 13.421875 13.90625 10.90625 
Q 15.375 8.40625 17.640625 7 
Q 19.921875 5.609375 23.140625 5.609375 
Q 27.828125 5.609375 30.65625 7.90625 
Q 33.5 10.203125 34.46875 13.71875 
L 40.828125 11.53125 
Q 40.140625 9.328125 38.921875 7.109375 
Q 37.703125 4.890625 35.640625 3.09375 
Q 33.59375 1.3125 30.53125 0.15625 
Q 27.484375 -0.984375 23.140625 -0.984375 
Q 13.53125 -0.984375 8.5 6 
Q 3.46875 12.984375 3.46875 26.765625 
Q 3.46875 34.1875 5 39.328125 
Q 6.546875 44.484375 9.171875 47.703125 
Q 11.8125 50.921875 15.328125 52.359375 
Q 18.84375 53.8125 22.859375 53.8125 
Q 28.328125 53.8125 31.984375 51.65625 
Q 39.0625 47.515625 41.015625 36.8125 
Q 41.9375 31.6875 41.9375 25.734375 
L 41.9375 24.5625 
z
M 34.71875 31.296875 
Q 34.71875 40.140625 31.421875 43.71875 
Q 28.125 47.3125 22.75 47.3125 
Q 18.953125 47.3125 15.328125 44.09375 
Q 10.9375 40.328125 10.6875 31.296875 
z
" id="LiberationSansNarrow-1077"/>
       <path d="M 11.03125 26.65625 
Q 11.03125 22.125 11.5625 18.3125 
Q 12.109375 14.5 13.375 11.734375 
Q 14.65625 8.984375 16.75 7.46875 
Q 18.84375 5.953125 21.96875 5.953125 
Q 25.828125 5.953125 28.390625 8.484375 
Q 30.953125 11.03125 31.546875 16.3125 
L 38.875 15.71875 
Q 38.53125 12.453125 37.296875 9.421875 
Q 36.078125 6.390625 34.03125 4.09375 
Q 31.984375 1.8125 29 0.40625 
Q 26.03125 -0.984375 22.171875 -0.984375 
Q 17.09375 -0.984375 13.5 1.109375 
Q 9.90625 3.21875 7.6875 6.90625 
Q 5.46875 10.59375 4.46875 15.59375 
Q 3.46875 20.609375 3.46875 26.46875 
Q 3.46875 31.78125 4.203125 35.859375 
Q 4.9375 39.9375 6.21875 42.984375 
Q 7.515625 46.046875 9.265625 48.125 
Q 11.03125 50.203125 13.109375 51.4375 
Q 15.1875 52.6875 17.453125 53.25 
Q 19.734375 53.8125 22.078125 53.8125 
Q 25.734375 53.8125 28.5625 52.59375 
Q 31.390625 51.375 33.46875 49.25 
Q 35.546875 47.125 36.8125 44.234375 
Q 38.09375 41.359375 38.625 38.03125 
L 31.203125 37.359375 
Q 30.671875 41.75 28.375 44.328125 
Q 26.078125 46.921875 21.875 46.921875 
Q 18.796875 46.921875 16.71875 45.671875 
Q 14.65625 44.4375 13.375 41.921875 
Q 12.109375 39.40625 11.5625 35.59375 
Q 11.03125 31.78125 11.03125 26.65625 
z
" id="LiberationSansNarrow-1089"/>
       <path d="M 21.4375 22.359375 
L 8.84375 0 
L 0.6875 0 
L 14.453125 23 
Q 9.234375 24.3125 6.859375 28.296875 
Q 4.5 32.28125 4.5 38.234375 
Q 4.5 45.515625 8.8125 49.171875 
Q 13.140625 52.828125 21.4375 52.828125 
L 38.71875 52.828125 
L 38.71875 0 
L 31.546875 0 
L 31.546875 22.359375 
z
M 31.546875 46.625 
L 22.171875 46.625 
Q 16.9375 46.625 14.546875 44.375 
Q 12.15625 42.140625 12.15625 37.59375 
Q 12.15625 33.015625 14.28125 30.734375 
Q 16.40625 28.46875 21.390625 28.46875 
L 31.546875 28.46875 
z
" id="LiberationSansNarrow-1103"/>
       <path d="M 12.890625 52.828125 
L 12.890625 6.390625 
L 31.984375 6.390625 
L 31.984375 52.828125 
L 39.203125 52.828125 
L 39.203125 6.390625 
L 45.0625 6.390625 
L 45.0625 -19.921875 
L 38.578125 -19.921875 
L 38.578125 0 
L 5.671875 0 
L 5.671875 52.828125 
z
" id="LiberationSansNarrow-1094"/>
       <path d="M 22.796875 30.46875 
Q 31.296875 30.46875 35.640625 26.875 
Q 39.984375 23.296875 39.984375 15.53125 
Q 39.984375 11.921875 38.90625 9.03125 
Q 37.84375 6.15625 35.671875 4.15625 
Q 33.5 2.15625 30.296875 1.078125 
Q 27.09375 0 22.859375 0 
L 5.859375 0 
L 5.859375 52.828125 
L 13.328125 52.828125 
L 13.328125 30.46875 
z
M 13.328125 6.203125 
L 21.734375 6.203125 
Q 24.609375 6.203125 26.578125 6.8125 
Q 28.5625 7.421875 29.78125 8.609375 
Q 31 9.8125 31.53125 11.546875 
Q 32.078125 13.28125 32.078125 15.53125 
Q 32.078125 20.125 29.65625 22.234375 
Q 27.25 24.359375 21.734375 24.359375 
L 13.328125 24.359375 
z
M 47.65625 0 
L 47.65625 52.828125 
L 55.125 52.828125 
L 55.125 0 
z
" id="LiberationSansNarrow-1099"/>
      </defs>
      <use xlink:href="#LiberationSansNarrow-1052"/>
      <use x="69.435547" xlink:href="#LiberationSansNarrow-1077"/>
      <use x="115.041016" xlink:href="#LiberationSansNarrow-1089"/>
      <use x="156.056641" xlink:href="#LiberationSansNarrow-1103"/>
      <use x="200.490234" xlink:href="#LiberationSansNarrow-1094"/>
      <use x="247.462891" xlink:href="#LiberationSansNarrow-1099"/>
     </g>
    </g>
   </g>
   <g id="matplotlib.axis_2">
    <g id="ytick_1">
     <g id="line2d_9">
      <path clip-path="url(#p4ede2e941a)" d="M 46.19 199.746373 
L 560.88 199.746373 
" style="fill:none;stroke:#b0b0b0;stroke-dasharray:1.48,0.64;stroke-dashoffset:0;stroke-width:0.4;"/>
     </g>
     <g id="text_10">
      <!-- 1 -->
      <g transform="translate(32.804688 204.819186)scale(0.14 -0.14)">
       <use xlink:href="#LiberationSansNarrow-49"/>
      </g>
     </g>
    </g>
    <g id="ytick_2">
     <g id="line2d_10">
      <path clip-path="url(#p4ede2e941a)" d="M 46.19 137.316043 
L 560.88 137.316043 
" style="fill:none;stroke:#b0b0b0;stroke-dasharray:1.48,0.64;stroke-dashoffset:0;stroke-width:0.4;"/>
     </g>
     <g id="text_11">
      <!-- 2 -->
      <g transform="translate(32.804688 142.388856)scale(0.14 -0.14)">
       <use xlink:href="#LiberationSansNarrow-50"/>
      </g>
     </g>
    </g>
    <g id="ytick_3">
     <g id="line2d_11">
      <path clip-path="url(#p4ede2e941a)" d="M 46.19 74.885713 
L 560.88 74.885713 
" style="fill:none;stroke:#b0b0b0;stroke-dasharray:1.48,0.64;stroke-dashoffset:0;stroke-width:0.4;"/>
     </g>
     <g id="text_12">
      <!-- 4 -->
      <g transform="translate(32.804688 79.958526)scale(0.14 -0.14)">
       <defs>
        <path d="M 35.25 15.578125 
L 35.25 0 
L 28.46875 0 
L 28.46875 15.578125 
L 1.90625 15.578125 
L 1.90625 22.40625 
L 27.6875 68.796875 
L 35.25 68.796875 
L 35.25 22.515625 
L 43.21875 22.515625 
L 43.21875 15.578125 
z
M 28.46875 58.890625 
Q 28.375 58.640625 28.03125 57.90625 
L 27.34375 56.34375 
L 26.5625 54.59375 
Q 26.125 53.65625 25.78125 53.078125 
L 11.328125 27.09375 
Q 11.140625 26.703125 10.75 26.078125 
L 9.96875 24.8125 
L 9.1875 23.484375 
Q 8.796875 22.859375 8.546875 22.515625 
L 28.46875 22.515625 
z
" id="LiberationSansNarrow-52"/>
       </defs>
       <use xlink:href="#LiberationSansNarrow-52"/>
      </g>
     </g>
    </g>
    <g id="text_13">
     <!-- Размер портфеля -->
     <g transform="translate(25.899688 172.185938)rotate(-90)scale(0.14 -0.14)">
      <defs>
       <path d="M 50.34375 48.09375 
Q 50.34375 43.609375 49.125 39.71875 
Q 47.90625 35.84375 45.484375 32.984375 
Q 43.0625 30.125 39.421875 28.46875 
Q 35.796875 26.8125 30.953125 26.8125 
L 14.359375 26.8125 
L 14.359375 0 
L 6.734375 0 
L 6.734375 68.796875 
L 30.46875 68.796875 
Q 35.453125 68.796875 39.1875 67.3125 
Q 42.921875 65.828125 45.40625 63.109375 
Q 47.90625 60.40625 49.125 56.5625 
Q 50.34375 52.734375 50.34375 48.09375 
z
M 42.671875 48 
Q 42.671875 54.546875 39.40625 57.9375 
Q 36.140625 61.328125 29.546875 61.328125 
L 14.359375 61.328125 
L 14.359375 34.1875 
L 29.890625 34.1875 
Q 36.46875 34.1875 39.5625 37.75 
Q 42.671875 41.3125 42.671875 48 
z
" id="LiberationSansNarrow-1056"/>
       <path d="M 16.546875 -0.984375 
Q 10.015625 -0.984375 6.734375 3.21875 
Q 3.46875 7.421875 3.46875 14.75 
Q 3.46875 19.96875 5.09375 23.3125 
Q 6.734375 26.65625 9.34375 28.5625 
Q 11.96875 30.46875 15.328125 31.203125 
Q 18.703125 31.9375 22.171875 32.03125 
L 31.9375 32.234375 
L 31.9375 35.109375 
Q 31.9375 38.375 31.375 40.671875 
Q 30.8125 42.96875 29.640625 44.375 
Q 28.46875 45.796875 26.734375 46.453125 
Q 25 47.125 22.609375 47.125 
Q 20.515625 47.125 18.84375 46.75 
Q 17.1875 46.390625 15.9375 45.4375 
Q 14.703125 44.484375 13.9375 42.84375 
Q 13.1875 41.21875 12.9375 38.71875 
L 5.421875 39.546875 
Q 5.8125 42.671875 6.9375 45.28125 
Q 8.0625 47.90625 10.109375 49.796875 
Q 12.15625 51.703125 15.25 52.75 
Q 18.359375 53.8125 22.796875 53.8125 
Q 30.953125 53.8125 35.078125 49.234375 
Q 39.203125 44.671875 39.203125 36.03125 
L 39.203125 13.28125 
Q 39.203125 9.375 40.03125 7.390625 
Q 40.875 5.421875 43.265625 5.421875 
Q 43.84375 5.421875 44.453125 5.515625 
Q 45.0625 5.609375 45.609375 5.765625 
L 45.609375 0.296875 
Q 44.234375 -0.09375 42.890625 -0.28125 
Q 41.546875 -0.484375 40.046875 -0.484375 
Q 37.984375 -0.484375 36.515625 0.171875 
Q 35.0625 0.828125 34.15625 2.171875 
Q 33.25 3.515625 32.765625 5.484375 
Q 32.28125 7.46875 32.125 10.109375 
L 31.9375 10.109375 
Q 30.765625 7.5625 29.375 5.515625 
Q 27.984375 3.46875 26.140625 2.03125 
Q 24.3125 0.59375 21.9375 -0.1875 
Q 19.578125 -0.984375 16.546875 -0.984375 
z
M 18.21875 5.609375 
Q 21.6875 5.609375 24.25 7.140625 
Q 26.8125 8.6875 28.515625 11.078125 
Q 30.21875 13.484375 31.078125 16.3125 
Q 31.9375 19.140625 31.9375 21.734375 
L 31.9375 26.078125 
L 24.03125 25.875 
Q 21.390625 25.828125 19 25.40625 
Q 16.609375 25 14.8125 23.78125 
Q 13.03125 22.5625 11.953125 20.359375 
Q 10.890625 18.171875 10.890625 14.59375 
Q 10.890625 10.296875 12.796875 7.953125 
Q 14.703125 5.609375 18.21875 5.609375 
z
" id="LiberationSansNarrow-1072"/>
       <path d="M 18.3125 -0.984375 
Q 11.625 -0.984375 7.6875 2.0625 
Q 3.765625 5.125 1.953125 11.421875 
L 8.296875 13.578125 
Q 9.28125 9.765625 11.8125 7.65625 
Q 14.359375 5.5625 18.453125 5.5625 
Q 22.3125 5.5625 24.578125 7.859375 
Q 26.859375 10.15625 26.859375 14.59375 
Q 26.859375 17.484375 25.734375 19.390625 
Q 24.609375 21.296875 22.78125 22.390625 
Q 20.953125 23.484375 18.546875 23.921875 
Q 16.15625 24.359375 13.578125 24.359375 
L 13.578125 31.0625 
Q 16.109375 31.0625 18.40625 31.421875 
Q 20.703125 31.78125 22.4375 32.703125 
Q 24.171875 33.640625 25.140625 35.28125 
Q 26.125 36.921875 26.125 39.453125 
Q 26.125 43.0625 24.140625 45.15625 
Q 22.171875 47.265625 18.453125 47.265625 
Q 17.046875 47.265625 15.65625 46.921875 
Q 14.265625 46.578125 13.03125 45.765625 
Q 11.8125 44.96875 10.984375 43.625 
Q 10.15625 42.28125 9.859375 40.234375 
L 3.421875 41.21875 
Q 3.90625 44.53125 5.125 46.921875 
Q 6.34375 49.3125 8.296875 50.84375 
Q 10.25 52.390625 12.78125 53.09375 
Q 15.328125 53.8125 18.453125 53.8125 
Q 21.875 53.8125 24.625 52.78125 
Q 27.390625 51.765625 29.34375 49.90625 
Q 31.296875 48.046875 32.375 45.5 
Q 33.453125 42.96875 33.453125 39.890625 
Q 33.453125 37.109375 32.5625 34.953125 
Q 31.6875 32.8125 30.25 31.3125 
Q 28.8125 29.828125 27.046875 28.953125 
Q 25.296875 28.078125 23.53125 27.875 
L 23.53125 27.78125 
Q 25.78125 27.484375 27.75 26.484375 
Q 29.734375 25.484375 31.25 23.84375 
Q 32.765625 22.21875 33.609375 19.9375 
Q 34.46875 17.671875 34.46875 14.84375 
Q 34.46875 11.46875 33.484375 8.5625 
Q 32.515625 5.671875 30.484375 3.546875 
Q 28.46875 1.421875 25.4375 0.21875 
Q 22.40625 -0.984375 18.3125 -0.984375 
z
" id="LiberationSansNarrow-1079"/>
       <path d="M 31.546875 0 
L 25.390625 0 
L 12.40625 46.4375 
Q 12.453125 45.171875 12.515625 43.703125 
Q 12.59375 42.234375 12.59375 40.75 
Q 12.59375 39.265625 12.609375 37.859375 
Q 12.640625 36.46875 12.640625 35.359375 
L 12.640625 0 
L 5.671875 0 
L 5.671875 52.828125 
L 16.890625 52.828125 
L 25.734375 20.5625 
Q 26.65625 17.484375 27.390625 13.796875 
Q 28.125 10.109375 28.421875 6.59375 
Q 28.8125 10.109375 29.515625 13.796875 
Q 30.21875 17.484375 31.15625 20.5625 
L 39.984375 52.828125 
L 50.734375 52.828125 
L 50.734375 0 
L 43.796875 0 
L 43.796875 35.359375 
Q 43.796875 36.421875 43.8125 37.890625 
Q 43.84375 39.359375 43.921875 40.921875 
Q 44 42.484375 44.015625 43.9375 
Q 44.046875 45.40625 44.140625 46.53125 
z
" id="LiberationSansNarrow-1084"/>
       <path d="M 42.140625 26.65625 
Q 42.140625 20.65625 41.359375 15.578125 
Q 40.578125 10.5 38.6875 6.828125 
Q 36.8125 3.171875 33.765625 1.09375 
Q 30.71875 -0.984375 26.21875 -0.984375 
Q 21.578125 -0.984375 18.078125 1.171875 
Q 14.59375 3.328125 12.796875 8.203125 
L 12.546875 8.203125 
Q 12.59375 8.109375 12.609375 7.328125 
Q 12.640625 6.546875 12.671875 5.375 
Q 12.703125 4.203125 12.71875 2.75 
Q 12.75 1.3125 12.75 -0.09375 
L 12.75 -20.75 
L 5.515625 -20.75 
L 5.515625 42.046875 
Q 5.515625 43.953125 5.484375 45.703125 
Q 5.46875 47.46875 5.4375 48.90625 
Q 5.421875 50.34375 5.375 51.359375 
Q 5.328125 52.390625 5.28125 52.828125 
L 12.25 52.828125 
Q 12.3125 52.6875 12.359375 51.8125 
L 12.5 49.703125 
Q 12.546875 48.4375 12.59375 47.015625 
Q 12.640625 45.609375 12.640625 44.34375 
L 12.796875 44.34375 
Q 13.765625 46.875 15.0625 48.65625 
Q 16.359375 50.4375 18.015625 51.578125 
Q 19.671875 52.734375 21.671875 53.25 
Q 23.6875 53.765625 26.21875 53.765625 
Q 30.71875 53.765625 33.765625 51.8125 
Q 36.8125 49.859375 38.6875 46.3125 
Q 40.578125 42.78125 41.359375 37.765625 
Q 42.140625 32.765625 42.140625 26.65625 
z
M 34.578125 26.46875 
Q 34.578125 31.34375 34.109375 35.15625 
Q 33.640625 38.96875 32.4375 41.59375 
Q 31.25 44.234375 29.296875 45.59375 
Q 27.34375 46.96875 24.359375 46.96875 
Q 21.96875 46.96875 19.84375 46.140625 
Q 17.71875 45.3125 16.125 42.96875 
Q 14.546875 40.625 13.640625 36.5 
Q 12.75 32.375 12.75 25.78125 
Q 12.75 20.171875 13.5 16.28125 
Q 14.265625 12.40625 15.71875 10.015625 
Q 17.1875 7.625 19.328125 6.5625 
Q 21.484375 5.515625 24.3125 5.515625 
Q 27.34375 5.515625 29.296875 6.921875 
Q 31.25 8.34375 32.4375 11.03125 
Q 33.640625 13.71875 34.109375 17.59375 
Q 34.578125 21.484375 34.578125 26.46875 
z
" id="LiberationSansNarrow-1088"/>
       <path id="LiberationSansNarrow-32"/>
       <path d="M 38.71875 52.828125 
L 38.71875 0 
L 31.546875 0 
L 31.546875 46.4375 
L 12.890625 46.4375 
L 12.890625 0 
L 5.71875 0 
L 5.71875 52.828125 
z
" id="LiberationSansNarrow-1087"/>
       <path d="M 42.140625 26.46875 
Q 42.140625 12.59375 37.125 5.796875 
Q 32.125 -0.984375 22.609375 -0.984375 
Q 18.0625 -0.984375 14.515625 0.671875 
Q 10.984375 2.34375 8.515625 5.765625 
Q 6.0625 9.1875 4.765625 14.328125 
Q 3.46875 19.484375 3.46875 26.46875 
Q 3.46875 53.8125 22.859375 53.8125 
Q 27.875 53.8125 31.5625 52.09375 
Q 35.25 50.390625 37.59375 46.96875 
Q 39.9375 43.5625 41.03125 38.421875 
Q 42.140625 33.296875 42.140625 26.46875 
z
M 34.578125 26.46875 
Q 34.578125 32.625 33.8125 36.625 
Q 33.0625 40.625 31.546875 43.015625 
Q 30.03125 45.40625 27.859375 46.359375 
Q 25.6875 47.3125 23 47.3125 
Q 20.21875 47.3125 17.984375 46.3125 
Q 15.765625 45.3125 14.203125 42.890625 
Q 12.640625 40.484375 11.828125 36.46875 
Q 11.03125 32.46875 11.03125 26.46875 
Q 11.03125 20.3125 11.90625 16.28125 
Q 12.796875 12.25 14.328125 9.859375 
Q 15.875 7.46875 17.96875 6.484375 
Q 20.0625 5.515625 22.5625 5.515625 
Q 25.34375 5.515625 27.5625 6.46875 
Q 29.78125 7.421875 31.34375 9.8125 
Q 32.90625 12.203125 33.734375 16.25 
Q 34.578125 20.3125 34.578125 26.46875 
z
" id="LiberationSansNarrow-1086"/>
       <path d="M 1.421875 52.828125 
L 36.140625 52.828125 
L 36.140625 46.4375 
L 22.359375 46.4375 
L 22.359375 0 
L 15.1875 0 
L 15.1875 46.4375 
L 1.421875 46.4375 
z
" id="LiberationSansNarrow-1090"/>
       <path d="M 64.015625 26.65625 
Q 64.015625 20.65625 63.234375 15.578125 
Q 62.453125 10.5 60.734375 6.828125 
Q 59.03125 3.171875 56.21875 1.09375 
Q 53.421875 -0.984375 49.359375 -0.984375 
Q 45.171875 -0.984375 42.015625 1.171875 
Q 38.875 3.328125 37.15625 8.203125 
L 36.921875 8.203125 
Q 37.015625 6.5 37.0625 4.609375 
Q 37.109375 2.734375 37.109375 -0.09375 
L 37.109375 -20.75 
L 30.328125 -20.75 
L 30.328125 -0.09375 
Q 30.328125 2.546875 30.375 4.546875 
Q 30.421875 6.546875 30.515625 8.5 
L 30.328125 8.5 
Q 28.46875 3.421875 25.484375 1.21875 
Q 22.515625 -0.984375 18.0625 -0.984375 
Q 10.59375 -0.984375 7.03125 5.734375 
Q 3.46875 12.453125 3.46875 26.171875 
Q 3.46875 40.046875 7.15625 46.921875 
Q 10.84375 53.8125 18.0625 53.8125 
Q 22.5625 53.8125 25.53125 51.609375 
Q 28.515625 49.421875 30.328125 44.625 
L 30.515625 44.625 
Q 30.515625 45.125 30.46875 46.125 
Q 30.421875 47.125 30.375 48.25 
L 30.375 50.390625 
Q 30.328125 51.421875 30.328125 52 
L 30.328125 72.46875 
L 37.109375 72.46875 
L 37.109375 51.953125 
Q 37.109375 51.421875 37.078125 50.359375 
Q 37.0625 49.3125 37.0625 48.15625 
Q 37.0625 47.015625 37.03125 45.96875 
Q 37.015625 44.921875 37.015625 44.34375 
L 37.203125 44.34375 
Q 39.0625 49.421875 41.9375 51.59375 
Q 44.828125 53.765625 49.359375 53.765625 
Q 53.421875 53.765625 56.21875 51.8125 
Q 59.03125 49.859375 60.734375 46.3125 
Q 62.453125 42.78125 63.234375 37.765625 
Q 64.015625 32.765625 64.015625 26.65625 
z
M 11.03125 26.46875 
Q 11.03125 21 11.546875 17.09375 
Q 12.0625 13.1875 13.1875 10.671875 
Q 14.3125 8.15625 16.015625 6.984375 
Q 17.71875 5.8125 20.125 5.8125 
Q 22.515625 5.8125 24.390625 6.859375 
Q 26.265625 7.90625 27.5625 10.296875 
Q 28.859375 12.703125 29.53125 16.53125 
Q 30.21875 20.359375 30.328125 25.875 
L 30.328125 27.046875 
Q 30.328125 32.671875 29.640625 36.546875 
Q 28.953125 40.4375 27.65625 42.828125 
Q 26.375 45.21875 24.484375 46.265625 
Q 22.609375 47.3125 20.171875 47.3125 
Q 17.875 47.3125 16.15625 46.1875 
Q 14.453125 45.0625 13.296875 42.578125 
Q 12.15625 40.09375 11.59375 36.109375 
Q 11.03125 32.125 11.03125 26.46875 
z
M 56.453125 26.46875 
Q 56.453125 31.34375 55.984375 35.15625 
Q 55.515625 38.96875 54.46875 41.59375 
Q 53.421875 44.234375 51.65625 45.59375 
Q 49.90625 46.96875 47.3125 46.96875 
Q 45.21875 46.96875 43.375 46.140625 
Q 41.546875 45.3125 40.125 42.96875 
Q 38.71875 40.625 37.90625 36.5 
Q 37.109375 32.375 37.109375 25.78125 
L 37.109375 24.65625 
Q 37.15625 19.390625 37.859375 15.71875 
Q 38.578125 12.0625 39.859375 9.78125 
Q 41.15625 7.515625 43.015625 6.515625 
Q 44.875 5.515625 47.265625 5.515625 
Q 49.859375 5.515625 51.609375 6.921875 
Q 53.375 8.34375 54.4375 11.03125 
Q 55.515625 13.71875 55.984375 17.59375 
Q 56.453125 21.484375 56.453125 26.46875 
z
" id="LiberationSansNarrow-1092"/>
       <path d="M 34.859375 0 
L 34.859375 46.4375 
L 19.875 46.4375 
Q 18.890625 37.453125 18.03125 30.4375 
Q 17.1875 23.4375 16.3125 18.15625 
Q 15.4375 12.890625 14.40625 9.25 
Q 13.375 5.609375 11.953125 3.34375 
Q 10.546875 1.078125 8.65625 0.046875 
Q 6.78125 -0.984375 4.203125 -0.984375 
Q 3.03125 -0.984375 2.078125 -0.78125 
Q 1.125 -0.59375 0.4375 -0.34375 
L 0.4375 5.953125 
Q 0.875 5.765625 1.625 5.640625 
Q 2.390625 5.515625 3.171875 5.515625 
Q 4.59375 5.515625 5.59375 6.53125 
Q 6.59375 7.5625 7.390625 9.859375 
Q 8.203125 12.15625 8.859375 15.796875 
Q 9.515625 19.4375 10.203125 24.703125 
Q 10.890625 29.984375 11.625 36.921875 
L 13.375 52.828125 
L 42.140625 52.828125 
L 42.140625 0 
z
" id="LiberationSansNarrow-1083"/>
      </defs>
      <use xlink:href="#LiberationSansNarrow-1056"/>
      <use x="51.3125" xlink:href="#LiberationSansNarrow-1072"/>
      <use x="95.792969" xlink:href="#LiberationSansNarrow-1079"/>
      <use x="133.341797" xlink:href="#LiberationSansNarrow-1084"/>
      <use x="189.738281" xlink:href="#LiberationSansNarrow-1077"/>
      <use x="235.34375" xlink:href="#LiberationSansNarrow-1088"/>
      <use x="280.949219" xlink:href="#LiberationSansNarrow-32"/>
      <use x="303.751953" xlink:href="#LiberationSansNarrow-1087"/>
      <use x="348.185547" xlink:href="#LiberationSansNarrow-1086"/>
      <use x="393.791016" xlink:href="#LiberationSansNarrow-1088"/>
      <use x="437.146484" xlink:href="#LiberationSansNarrow-1090"/>
      <use x="474.695312" xlink:href="#LiberationSansNarrow-1092"/>
      <use x="542.175781" xlink:href="#LiberationSansNarrow-1077"/>
      <use x="584.40625" xlink:href="#LiberationSansNarrow-1083"/>
      <use x="632.208984" xlink:href="#LiberationSansNarrow-1103"/>
     </g>
    </g>
   </g>
   <g id="line2d_12">
    <path clip-path="url(#p4ede2e941a)" d="M 69.585 204.987768 
L 70.888343 208.919113 
L 72.191685 206.009461 
L 73.495028 204.260884 
L 74.79837 208.530199 
L 76.101713 209.423109 
L 77.405056 205.181472 
L 78.708398 199.415714 
L 80.011741 197.258644 
L 81.315084 199.157958 
L 82.618426 200.579405 
L 83.921769 202.816999 
L 86.528454 205.121513 
L 87.831797 203.116432 
L 89.135139 203.459043 
L 90.438482 204.262711 
L 91.741825 199.063041 
L 93.045167 195.801679 
L 94.34851 194.352762 
L 95.651852 195.969286 
L 96.955195 194.724467 
L 98.258538 194.540957 
L 99.56188 200.142642 
L 100.865223 199.037794 
L 102.168565 194.289525 
L 103.471908 195.158827 
L 104.775251 199.404225 
L 106.078593 198.911604 
L 107.381936 196.18572 
L 108.685279 192.698101 
L 109.988621 189.589147 
L 111.291964 190.837291 
L 112.595306 189.949593 
L 113.898649 183.705017 
L 115.201992 180.411702 
L 117.808677 186.204584 
L 119.112019 186.905623 
L 120.415362 186.861952 
L 121.718705 189.632565 
L 123.022047 189.562227 
L 124.32539 188.18922 
L 125.628733 186.447361 
L 126.932075 180.23034 
L 129.53876 184.70696 
L 130.842103 185.085826 
L 132.145446 189.076388 
L 133.448788 183.262927 
L 134.752131 175.58699 
L 136.055474 174.289358 
L 137.358816 175.919651 
L 138.662159 180.854739 
L 139.965501 186.232607 
L 141.268844 187.425304 
L 142.572187 186.685022 
L 143.875529 189.952995 
L 145.178872 187.594011 
L 146.482214 184.561942 
L 147.785557 184.670395 
L 149.0889 187.014606 
L 150.392242 193.69225 
L 151.695585 195.936813 
L 152.998928 200.765072 
L 154.30227 201.817032 
L 155.605613 197.548218 
L 156.908955 193.951217 
L 158.212298 191.541773 
L 162.122326 201.532643 
L 163.425669 208.963112 
L 164.729011 211.418768 
L 166.032354 208.612757 
L 168.639039 208.162667 
L 169.942382 208.977831 
L 171.245724 206.490154 
L 172.549067 201.996717 
L 175.155752 194.033178 
L 176.459095 191.506847 
L 177.762437 189.662963 
L 179.06578 194.5719 
L 180.369123 198.911358 
L 181.672465 200.250375 
L 182.975808 202.585117 
L 185.582493 202.047476 
L 186.885836 202.639274 
L 188.189178 202.021376 
L 189.492521 198.581302 
L 190.795864 199.960351 
L 192.099206 206.136618 
L 193.402549 209.351129 
L 194.705891 210.148731 
L 196.009234 206.86173 
L 197.312577 200.282561 
L 199.919262 180.621298 
L 201.222604 177.830099 
L 202.525947 180.427191 
L 203.82929 178.124242 
L 205.132632 175.363003 
L 206.435975 179.379214 
L 207.739318 179.392885 
L 209.04266 183.547659 
L 210.346003 192.353164 
L 211.649345 194.433708 
L 212.952688 194.13262 
L 214.256031 190.326271 
L 215.559373 184.644893 
L 216.862716 183.589278 
L 218.166058 185.094525 
L 219.469401 182.515459 
L 220.772744 178.252201 
L 222.076086 176.271166 
L 223.379429 176.982409 
L 224.682772 179.705403 
L 225.986114 180.37432 
L 227.289457 178.298303 
L 228.592799 178.442199 
L 229.896142 179.75573 
L 231.199485 185.181678 
L 232.502827 191.802393 
L 233.80617 189.369997 
L 235.109513 188.384663 
L 236.412855 190.794175 
L 237.716198 190.320914 
L 239.01954 187.963925 
L 240.322883 180.675753 
L 241.626226 177.406922 
L 242.929568 175.163983 
L 244.232911 166.108795 
L 245.536253 152.050796 
L 246.839596 146.512182 
L 248.142939 149.671352 
L 249.446281 151.501237 
L 250.749624 155.560827 
L 252.052967 161.166697 
L 253.356309 168.715909 
L 254.659652 171.085903 
L 255.962994 172.494889 
L 257.266337 172.718957 
L 258.56968 169.539459 
L 259.873022 165.557993 
L 262.479708 156.211197 
L 266.389735 147.990044 
L 267.693078 148.412727 
L 268.996421 145.027866 
L 270.299763 142.812847 
L 271.603106 143.595394 
L 272.906448 140.315607 
L 274.209791 135.894819 
L 275.513134 134.786664 
L 276.816476 128.957926 
L 278.119819 119.684157 
L 280.726504 114.52793 
L 283.333189 108.73769 
L 284.636532 103.332632 
L 285.939875 101.632105 
L 287.243217 106.067674 
L 288.54656 109.136604 
L 289.849903 110.487931 
L 291.153245 114.647675 
L 292.456588 119.833064 
L 293.75993 123.955949 
L 295.063273 128.817957 
L 296.366616 129.174582 
L 297.669958 124.83127 
L 298.973301 124.266509 
L 300.276643 125.591664 
L 301.579986 125.646661 
L 302.883329 129.277 
L 304.186671 132.044249 
L 305.490014 133.486588 
L 306.793357 134.74926 
L 308.096699 136.413452 
L 309.400042 137.003282 
L 310.703384 128.787956 
L 313.31007 119.352242 
L 314.613412 111.148051 
L 315.916755 105.545969 
L 317.220097 92.076861 
L 318.52344 81.199494 
L 319.826783 77.138812 
L 321.130125 73.522069 
L 322.433468 75.488598 
L 323.736811 79.179321 
L 325.040153 81.564335 
L 326.343496 77.174915 
L 327.646838 75.775749 
L 328.950181 78.640121 
L 330.253524 77.989949 
L 331.556866 81.981412 
L 332.860209 83.836818 
L 334.163552 80.933956 
L 335.466894 79.411654 
L 336.770237 78.668155 
L 338.073579 81.41466 
L 339.376922 88.631603 
L 340.680265 93.865259 
L 341.983607 94.701955 
L 343.28695 91.640923 
L 344.590292 84.332792 
L 345.893635 79.566576 
L 347.196978 77.502336 
L 348.50032 79.544864 
L 349.803663 85.204422 
L 351.107006 89.764671 
L 352.410348 97.02266 
L 353.713691 102.510643 
L 355.017033 103.200047 
L 356.320376 99.39901 
L 357.623719 96.176805 
L 358.927061 98.283246 
L 360.230404 98.309968 
L 361.533747 92.731606 
L 362.837089 90.971615 
L 364.140432 90.478527 
L 365.443774 86.620288 
L 366.747117 86.510453 
L 368.05046 84.928138 
L 369.353802 80.275479 
L 370.657145 80.352597 
L 371.960487 85.205878 
L 373.26383 87.683119 
L 374.567173 86.507745 
L 375.870515 81.626455 
L 377.173858 80.116048 
L 378.477201 80.46551 
L 379.780543 69.504121 
L 381.083886 60.645292 
L 382.387228 61.161574 
L 383.690571 59.539388 
L 384.993914 57.359531 
L 386.297256 59.133428 
L 387.600599 58.740428 
L 388.903942 60.076397 
L 390.207284 60.472796 
L 391.510627 51.461976 
L 392.813969 48.865812 
L 394.117312 49.316211 
L 395.420655 46.651394 
L 396.723997 45.824462 
L 398.02734 49.065048 
L 399.330682 54.203238 
L 400.634025 53.148878 
L 401.937368 50.795716 
L 403.24071 51.383866 
L 405.847396 50.568093 
L 407.150738 55.649845 
L 408.454081 57.636355 
L 409.757423 49.25375 
L 411.060766 43.967342 
L 412.364109 45.479138 
L 413.667451 49.714176 
L 414.970794 46.599179 
L 416.274136 36.243622 
L 417.577479 30.707828 
L 418.880822 31.159949 
L 420.184164 34.711795 
L 421.487507 38.63231 
L 422.79085 43.128272 
L 424.094192 46.272144 
L 425.397535 45.40331 
L 426.700877 38.006848 
L 428.00422 29.387688 
L 429.307563 29.12174 
L 430.610905 30.456351 
L 431.914248 30.991992 
L 433.217591 33.740979 
L 434.520933 30.682661 
L 435.824276 25.092727 
L 437.127618 29.217566 
L 438.430961 39.636479 
L 439.734304 40.905011 
L 441.037646 37.525887 
L 442.340989 41.048677 
L 443.644331 47.247568 
L 444.947674 46.721387 
L 446.251017 44.22519 
L 447.554359 44.067155 
L 448.857702 38.726688 
L 450.161045 39.462113 
L 451.464387 42.155181 
L 452.76773 42.368325 
L 454.071072 46.171274 
L 455.374415 45.751782 
L 456.677758 46.399195 
L 457.9811 49.84053 
L 459.284443 56.613046 
L 460.587786 58.869407 
L 461.891128 56.187193 
L 463.194471 56.054211 
L 464.497813 51.959863 
L 465.801156 53.089933 
L 467.104499 60.216173 
L 468.407841 60.52433 
L 471.014526 57.567828 
L 472.317869 55.794493 
L 473.621212 52.654782 
L 474.924554 50.302398 
L 476.227897 50.442492 
L 477.53124 50.879082 
L 478.834582 53.56899 
L 480.137925 48.799042 
L 481.441267 45.072367 
L 482.74461 48.758517 
L 484.047953 54.001655 
L 485.351295 55.348506 
L 486.654638 52.919351 
L 487.957981 56.047629 
L 489.261323 57.559796 
L 490.564666 54.351522 
L 491.868008 52.437597 
L 493.171351 57.021028 
L 494.474694 63.672366 
L 495.778036 67.817735 
L 497.081379 68.501503 
L 498.384721 65.561257 
L 499.688064 64.643782 
L 500.991407 62.694156 
L 502.294749 59.083786 
L 503.598092 58.941492 
L 504.901435 62.733005 
L 506.204777 63.824678 
L 507.50812 65.352117 
L 508.811462 69.541344 
L 510.114805 74.193901 
L 511.418148 71.84621 
L 512.72149 67.785269 
L 514.024833 66.783914 
L 515.328175 64.327376 
L 516.631518 61.122598 
L 517.934861 60.510282 
L 519.238203 60.734349 
L 520.541546 54.39296 
L 521.844889 53.405581 
L 523.148231 55.533246 
L 524.451574 54.149408 
L 525.754916 56.824429 
L 527.058259 63.30998 
L 528.361602 65.594224 
L 529.664944 62.260858 
L 530.968287 62.922366 
L 532.27163 65.577722 
L 533.574972 62.114562 
L 534.878315 57.514821 
L 536.181657 60.989851 
L 537.485 67.913504 
L 537.485 67.913504 
" style="fill:none;stroke:#1f77b4;stroke-linecap:square;"/>
   </g>
   <g id="line2d_13">
    <path clip-path="url(#p4ede2e941a)" d="M 69.585 192.309453 
L 70.888343 188.005648 
L 72.191685 188.871626 
L 73.495028 187.060816 
L 74.79837 183.597543 
L 76.101713 184.270313 
L 77.405056 182.65267 
L 78.708398 179.858725 
L 80.011741 176.571662 
L 81.315084 176.188945 
L 82.618426 176.657082 
L 83.921769 174.954627 
L 85.225111 179.640958 
L 86.528454 177.011714 
L 87.831797 169.756728 
L 89.135139 170.850684 
L 90.438482 175.229762 
L 91.741825 173.285578 
L 93.045167 164.005202 
L 94.34851 159.279193 
L 95.651852 158.901116 
L 96.955195 162.475752 
L 98.258538 168.486947 
L 99.56188 166.757076 
L 100.865223 162.249415 
L 102.168565 161.025536 
L 103.471908 164.150001 
L 104.775251 171.699818 
L 106.078593 171.086157 
L 109.988621 150.62744 
L 111.291964 149.982528 
L 112.595306 148.088246 
L 113.898649 147.686543 
L 115.201992 150.518898 
L 116.505334 152.029658 
L 117.808677 151.675904 
L 119.112019 149.163736 
L 120.415362 143.086757 
L 121.718705 143.086377 
L 123.022047 148.936586 
L 124.32539 148.661762 
L 125.628733 145.032437 
L 126.932075 142.907211 
L 128.235418 141.699481 
L 129.53876 137.838247 
L 130.842103 135.902194 
L 132.145446 134.836567 
L 133.448788 128.831459 
L 134.752131 128.746009 
L 136.055474 126.526941 
L 137.358816 120.677009 
L 139.965501 114.411078 
L 141.268844 117.134444 
L 142.572187 123.522484 
L 143.875529 128.469953 
L 145.178872 129.631519 
L 147.785557 135.858218 
L 149.0889 137.641734 
L 150.392242 136.095978 
L 151.695585 132.808056 
L 152.998928 133.589422 
L 154.30227 135.027029 
L 155.605613 134.500826 
L 156.908955 135.541835 
L 158.212298 137.875507 
L 159.515641 143.970446 
L 160.818983 154.202501 
L 162.122326 155.355658 
L 163.425669 153.137861 
L 164.729011 155.393574 
L 166.032354 155.154404 
L 167.335696 153.74588 
L 168.639039 156.017317 
L 169.942382 159.128576 
L 171.245724 161.647697 
L 172.549067 158.88662 
L 173.852409 152.16608 
L 175.155752 155.001 
L 176.459095 160.465474 
L 177.762437 160.894868 
L 180.369123 150.804244 
L 181.672465 157.863929 
L 182.975808 166.161201 
L 184.27915 171.097448 
L 185.582493 172.174447 
L 186.885836 171.966578 
L 188.189178 175.777917 
L 189.492521 178.482896 
L 190.795864 179.343153 
L 192.099206 180.037671 
L 193.402549 180.368852 
L 194.705891 182.632271 
L 196.009234 186.097664 
L 197.312577 187.424305 
L 198.615919 187.974093 
L 199.919262 188.657643 
L 201.222604 188.119059 
L 202.525947 186.942813 
L 203.82929 188.422274 
L 205.132632 190.50368 
L 206.435975 187.835102 
L 207.739318 186.665397 
L 209.04266 188.277578 
L 210.346003 186.327727 
L 211.649345 184.978378 
L 212.952688 186.673529 
L 214.256031 187.688068 
L 215.559373 187.806344 
L 216.862716 191.981979 
L 218.166058 195.57047 
L 219.469401 197.396688 
L 220.772744 199.771489 
L 222.076086 196.676245 
L 223.379429 196.827657 
L 225.986114 210.975877 
L 227.289457 214.84377 
L 229.896142 206.867907 
L 231.199485 206.59639 
L 232.502827 202.964157 
L 233.80617 195.277586 
L 235.109513 188.4514 
L 236.412855 186.055769 
L 237.716198 186.849864 
L 239.01954 183.447084 
L 240.322883 184.617275 
L 241.626226 192.589211 
L 242.929568 195.602004 
L 244.232911 196.409941 
L 245.536253 197.749913 
L 248.142939 189.453716 
L 249.446281 190.613713 
L 250.749624 193.190614 
L 252.052967 195.143594 
L 253.356309 197.790827 
L 255.962994 220.359498 
L 257.266337 224.547273 
L 258.56968 221.794865 
L 259.873022 217.740924 
L 261.176365 212.377064 
L 262.479708 206.39909 
L 263.78305 204.485943 
L 265.086393 207.168197 
L 266.389735 211.781648 
L 267.693078 211.280032 
L 268.996421 207.141628 
L 270.299763 201.717298 
L 271.603106 201.946265 
L 272.906448 206.736944 
L 274.209791 212.868971 
L 275.513134 213.153877 
L 276.816476 211.09882 
L 278.119819 203.479193 
L 279.423162 197.224255 
L 280.726504 202.676946 
L 282.029847 203.080445 
L 283.333189 202.222037 
L 284.636532 199.959986 
L 285.939875 200.303955 
L 287.243217 203.15448 
L 288.54656 202.849174 
L 289.849903 202.344617 
L 291.153245 196.847197 
L 292.456588 189.693812 
L 293.75993 183.294446 
L 295.063273 181.016884 
L 296.366616 177.246691 
L 297.669958 176.456654 
L 298.973301 178.326133 
L 300.276643 176.390733 
L 301.579986 177.112956 
L 302.883329 178.191322 
L 304.186671 182.805345 
L 305.490014 185.742774 
L 306.793357 185.931757 
L 308.096699 183.985345 
L 309.400042 183.003691 
L 310.703384 180.86519 
L 312.006727 172.99371 
L 313.31007 166.716311 
L 314.613412 164.166465 
L 315.916755 165.68071 
L 317.220097 162.530503 
L 318.52344 157.236523 
L 319.826783 161.054595 
L 321.130125 156.544999 
L 322.433468 147.15667 
L 323.736811 145.97059 
L 325.040153 147.049993 
L 326.343496 150.934313 
L 327.646838 156.716269 
L 328.950181 161.574358 
L 330.253524 162.37571 
L 331.556866 161.699061 
L 332.860209 159.739883 
L 334.163552 160.553827 
L 335.466894 163.530465 
L 336.770237 164.756573 
L 338.073579 160.161135 
L 339.376922 158.379046 
L 340.680265 161.157948 
L 341.983607 159.182735 
L 343.28695 160.627487 
L 344.590292 164.820367 
L 345.893635 165.061999 
L 347.196978 163.167865 
L 348.50032 159.540393 
L 351.107006 143.780276 
L 352.410348 142.498426 
L 353.713691 140.959512 
L 355.017033 143.030767 
L 356.320376 146.304903 
L 357.623719 145.110908 
L 358.927061 146.159922 
L 360.230404 146.853733 
L 361.533747 150.834792 
L 362.837089 157.522638 
L 364.140432 157.173109 
L 365.443774 156.98967 
L 366.747117 159.707709 
L 368.05046 160.780964 
L 369.353802 164.454174 
L 370.657145 162.270981 
L 371.960487 158.556073 
L 373.26383 155.226476 
L 374.567173 149.183239 
L 375.870515 147.447347 
L 377.173858 147.554048 
L 378.477201 146.218655 
L 379.780543 146.5153 
L 381.083886 145.035586 
L 382.387228 142.377254 
L 383.690571 143.342531 
L 384.993914 147.911125 
L 386.297256 146.820132 
L 387.600599 142.498074 
L 388.903942 141.427821 
L 390.207284 141.40056 
L 391.510627 141.80191 
L 392.813969 143.066744 
L 394.117312 147.716204 
L 395.420655 141.555054 
L 396.723997 138.142743 
L 398.02734 145.926273 
L 399.330682 145.230457 
L 401.937368 134.472715 
L 403.24071 132.096368 
L 404.544053 132.351267 
L 405.847396 133.157954 
L 407.150738 129.969683 
L 408.454081 122.386732 
L 409.757423 119.436683 
L 411.060766 122.035461 
L 412.364109 123.749378 
L 413.667451 124.580278 
L 416.274136 136.459474 
L 417.577479 134.997077 
L 418.880822 134.281043 
L 420.184164 135.818514 
L 421.487507 136.11373 
L 422.79085 128.457708 
L 424.094192 115.869489 
L 425.397535 109.414663 
L 426.700877 107.601309 
L 428.00422 108.781864 
L 430.610905 113.842353 
L 431.914248 114.306511 
L 433.217591 115.162136 
L 434.520933 120.097106 
L 435.824276 121.333143 
L 437.127618 115.160326 
L 438.430961 111.279546 
L 439.734304 109.455261 
L 441.037646 111.288112 
L 442.340989 116.531089 
L 443.644331 113.122382 
L 444.947674 106.345491 
L 446.251017 103.82718 
L 447.554359 105.467742 
L 451.464387 120.765465 
L 452.76773 129.126495 
L 454.071072 136.668223 
L 455.374415 139.843422 
L 456.677758 141.164196 
L 457.9811 135.189278 
L 459.284443 132.015625 
L 460.587786 136.285786 
L 461.891128 142.499972 
L 463.194471 148.160142 
L 464.497813 151.359343 
L 465.801156 155.56703 
L 467.104499 154.110723 
L 468.407841 150.90766 
L 469.711184 152.837157 
L 471.014526 150.233076 
L 472.317869 145.63721 
L 473.621212 145.908551 
L 474.924554 144.658278 
L 476.227897 141.453404 
L 477.53124 142.203756 
L 478.834582 141.008262 
L 480.137925 138.12272 
L 481.441267 137.777432 
L 482.74461 139.55944 
L 484.047953 142.478391 
L 485.351295 139.630412 
L 486.654638 137.737396 
L 487.957981 137.717115 
L 489.261323 139.253723 
L 490.564666 137.912114 
L 491.868008 139.554863 
L 493.171351 145.263289 
L 494.474694 143.036672 
L 495.778036 139.2738 
L 497.081379 137.503631 
L 499.688064 123.094361 
L 500.991407 122.911278 
L 502.294749 120.01299 
L 503.598092 116.246185 
L 504.901435 114.3682 
L 506.204777 113.135522 
L 507.50812 112.420726 
L 508.811462 111.868463 
L 510.114805 113.354658 
L 511.418148 112.827903 
L 512.72149 106.830608 
L 515.328175 99.474887 
L 516.631518 92.356118 
L 517.934861 87.430331 
L 519.238203 80.989457 
L 520.541546 78.080071 
L 521.844889 79.124685 
L 523.148231 80.83505 
L 524.451574 87.27015 
L 525.754916 90.439948 
L 527.058259 88.12824 
L 528.361602 82.895738 
L 529.664944 86.384934 
L 530.968287 92.653126 
L 532.27163 86.945685 
L 533.574972 82.746911 
L 534.878315 80.813597 
L 536.181657 74.786441 
L 537.485 67.913504 
L 537.485 67.913504 
" style="fill:none;stroke:#ff7f0e;stroke-linecap:square;"/>
   </g>
   <g id="line2d_14">
    <path clip-path="url(#p4ede2e941a)" d="M 69.585 198.203184 
L 70.888343 197.541046 
L 72.191685 196.698273 
L 73.495028 194.915618 
L 74.79837 194.786895 
L 76.101713 195.554465 
L 77.405056 192.78806 
L 78.708398 188.668899 
L 80.011741 185.882232 
L 81.315084 186.495824 
L 82.618426 187.377685 
L 83.921769 187.34295 
L 85.225111 190.222879 
L 86.528454 189.486306 
L 87.831797 184.776189 
L 89.135139 185.504369 
L 90.438482 188.107358 
L 91.741825 184.516593 
L 93.045167 178.180007 
L 94.34851 175.026985 
L 95.651852 175.595286 
L 96.955195 176.818861 
L 98.258538 179.701611 
L 99.56188 181.525155 
L 102.168565 175.699501 
L 103.471908 177.681508 
L 104.775251 183.527025 
L 106.078593 182.975751 
L 107.381936 178.122928 
L 108.685279 172.637138 
L 109.988621 168.026152 
L 111.291964 168.288543 
L 112.595306 166.87389 
L 113.898649 163.593448 
L 115.201992 163.303588 
L 116.505334 165.453699 
L 117.808677 166.730857 
L 119.112019 165.755332 
L 120.415362 162.462984 
L 121.718705 163.720376 
L 123.022047 166.786482 
L 124.32539 165.991907 
L 125.628733 163.246032 
L 126.932075 159.159251 
L 128.235418 159.53898 
L 129.53876 158.472096 
L 130.842103 157.570022 
L 132.145446 158.961547 
L 133.448788 153.049472 
L 134.752131 149.119425 
L 136.055474 147.364709 
L 137.358816 145.129136 
L 139.965501 146.304985 
L 141.268844 148.352285 
L 142.572187 151.452196 
L 143.875529 155.617165 
L 145.178872 155.104175 
L 146.482214 155.251504 
L 147.785557 156.77636 
L 149.0889 158.84383 
L 150.392242 161.275031 
L 151.695585 160.577944 
L 152.998928 163.209246 
L 154.30227 164.470154 
L 155.605613 162.190463 
L 156.908955 160.998917 
L 158.212298 160.987036 
L 159.515641 165.646368 
L 160.818983 172.358689 
L 164.729011 179.30339 
L 166.032354 177.83265 
L 167.335696 176.996248 
L 168.639039 178.05244 
L 169.942382 180.039052 
L 171.245724 180.036228 
L 172.549067 176.394226 
L 173.852409 171.080088 
L 175.155752 170.335155 
L 176.459095 171.469308 
L 177.762437 170.652555 
L 179.06578 170.201326 
L 180.369123 169.454416 
L 181.672465 173.869599 
L 182.975808 179.312234 
L 184.27915 181.669999 
L 185.582493 182.089328 
L 186.885836 182.277066 
L 188.189178 183.84275 
L 189.492521 183.32744 
L 190.795864 184.458822 
L 192.099206 187.934825 
L 193.402549 189.705956 
L 194.705891 191.230503 
L 196.009234 191.165776 
L 197.312577 188.186628 
L 199.919262 177.149062 
L 201.222604 175.242444 
L 202.525947 176.319917 
L 205.132632 174.580775 
L 206.435975 175.939419 
L 207.739318 175.478905 
L 210.346003 181.704688 
L 211.649345 181.935516 
L 212.952688 182.699983 
L 214.256031 181.402618 
L 215.559373 178.646316 
L 216.862716 180.153148 
L 218.166058 182.666802 
L 219.469401 182.166383 
L 220.772744 180.9137 
L 222.076086 178.423918 
L 223.379429 178.878678 
L 224.682772 183.425657 
L 225.986114 187.30848 
L 227.289457 187.996566 
L 228.592799 186.229447 
L 229.896142 184.881061 
L 231.199485 187.418557 
L 232.502827 188.550134 
L 233.80617 183.228736 
L 235.109513 178.9384 
L 236.412855 178.566215 
L 237.716198 178.822274 
L 239.01954 175.860504 
L 240.322883 173.268801 
L 241.626226 175.270087 
L 242.929568 175.415029 
L 244.232911 170.574866 
L 245.536253 162.462433 
L 246.839596 157.403949 
L 248.142939 157.68178 
L 249.446281 159.2413 
L 250.749624 162.696594 
L 252.052967 166.777765 
L 253.356309 172.215759 
L 254.659652 178.244056 
L 255.962994 183.376537 
L 257.266337 185.538857 
L 258.56968 182.5677 
L 259.873022 178.550865 
L 262.479708 168.221784 
L 263.78305 165.852979 
L 265.086393 165.752389 
L 266.389735 166.342684 
L 267.693078 166.341619 
L 270.299763 158.888274 
L 272.906448 159.984906 
L 274.209791 160.296961 
L 275.513134 159.808256 
L 276.816476 155.618607 
L 278.119819 147.055856 
L 279.423162 142.864278 
L 280.726504 143.639235 
L 282.029847 142.050565 
L 283.333189 140.020597 
L 284.636532 135.858055 
L 285.939875 134.954706 
L 287.243217 138.765596 
L 288.54656 140.115809 
L 289.849903 140.512259 
L 291.153245 139.44527 
L 292.456588 137.535856 
L 293.75993 135.310982 
L 295.063273 135.731619 
L 297.669958 131.349261 
L 298.973301 132.286935 
L 300.276643 131.571879 
L 301.579986 132.043217 
L 302.883329 134.06425 
L 304.186671 137.745419 
L 305.490014 139.921437 
L 306.793357 140.654023 
L 309.400042 140.290839 
L 310.703384 135.060581 
L 312.006727 128.733868 
L 314.613412 117.820513 
L 315.916755 115.555247 
L 318.52344 98.128719 
L 319.826783 97.835224 
L 322.433468 89.940787 
L 323.736811 91.068063 
L 325.040153 92.762078 
L 326.343496 92.561831 
L 327.646838 94.655511 
L 328.950181 98.478592 
L 330.253524 98.520569 
L 331.556866 100.22566 
L 332.860209 100.172356 
L 334.163552 99.090939 
L 335.466894 99.761938 
L 336.770237 99.967894 
L 338.073579 99.025628 
L 339.376922 101.496704 
L 340.680265 105.419121 
L 343.28695 104.056673 
L 344.590292 102.471347 
L 345.893635 100.127413 
L 347.196978 98.145372 
L 348.50032 97.358813 
L 349.803663 95.777842 
L 351.107006 93.666119 
L 352.410348 96.158172 
L 355.017033 99.071903 
L 356.320376 99.191666 
L 357.623719 97.082123 
L 358.927061 98.605395 
L 360.230404 98.998793 
L 361.533747 98.422681 
L 362.837089 100.885323 
L 364.140432 100.463936 
L 365.443774 98.403596 
L 366.747117 99.685503 
L 368.05046 99.390567 
L 369.353802 98.582333 
L 370.657145 97.601654 
L 371.960487 98.241725 
L 373.26383 97.770002 
L 374.567173 94.056802 
L 375.870515 90.787914 
L 377.173858 90.099218 
L 378.477201 89.584668 
L 381.083886 78.588972 
L 382.387228 77.489976 
L 383.690571 77.165738 
L 384.993914 78.244741 
L 386.297256 78.612404 
L 387.600599 76.247975 
L 390.207284 76.541036 
L 391.510627 72.080923 
L 392.813969 71.310221 
L 394.117312 73.697193 
L 395.420655 69.386122 
L 396.723997 67.323357 
L 398.02734 72.778142 
L 399.330682 74.978423 
L 400.634025 71.648883 
L 401.937368 67.755557 
L 403.24071 66.766092 
L 404.544053 66.724601 
L 405.847396 66.94182 
L 407.150738 67.476776 
L 408.454081 63.951966 
L 409.757423 58.61775 
L 411.060766 57.585176 
L 412.364109 59.205898 
L 413.667451 61.706705 
L 414.970794 63.050149 
L 416.274136 59.784429 
L 417.577479 55.993179 
L 418.880822 55.941292 
L 420.184164 58.612957 
L 421.487507 60.913408 
L 422.79085 59.571363 
L 424.094192 54.47076 
L 425.397535 50.588308 
L 426.700877 46.117744 
L 428.00422 42.36787 
L 429.307563 43.465823 
L 430.610905 45.397613 
L 431.914248 45.89829 
L 433.217591 47.711248 
L 434.520933 48.427485 
L 435.824276 45.932282 
L 437.127618 45.09539 
L 438.430961 48.056993 
L 439.734304 47.686137 
L 441.037646 46.994451 
L 442.340989 51.396009 
L 443.644331 52.431246 
L 444.947674 48.671304 
L 446.251017 46.163665 
L 447.554359 46.927261 
L 448.857702 46.597443 
L 450.161045 49.242145 
L 452.76773 57.057493 
L 454.071072 62.475891 
L 455.374415 63.574485 
L 456.677758 64.50504 
L 457.9811 63.745256 
L 459.284443 65.80748 
L 460.587786 69.059484 
L 461.891128 70.556387 
L 463.194471 73.052159 
L 464.497813 72.121632 
L 465.801156 74.560953 
L 467.104499 77.834903 
L 468.407841 76.533116 
L 469.711184 76.607071 
L 471.014526 74.5985 
L 472.317869 71.526788 
L 473.621212 69.924139 
L 474.924554 68.065043 
L 476.227897 66.5016 
L 478.834582 67.770361 
L 480.137925 63.968931 
L 481.441267 61.948443 
L 482.74461 64.663735 
L 484.047953 68.706865 
L 485.351295 67.839127 
L 486.654638 65.692222 
L 489.261323 68.660777 
L 490.564666 66.441702 
L 491.868008 66.271006 
L 493.171351 71.402319 
L 494.474694 73.511292 
L 495.778036 73.437236 
L 497.081379 72.795088 
L 498.384721 67.546982 
L 499.688064 63.00375 
L 500.991407 62.05122 
L 502.294749 58.841388 
L 503.598092 56.624546 
L 504.901435 57.084104 
L 506.204777 56.795258 
L 507.50812 57.187626 
L 508.811462 58.914242 
L 510.114805 61.894505 
L 511.418148 60.49935 
L 512.72149 55.415118 
L 514.024833 52.919066 
L 515.328175 49.863932 
L 516.631518 44.506422 
L 517.934861 41.470662 
L 519.238203 37.829348 
L 520.541546 33.446423 
L 521.844889 33.607346 
L 523.148231 35.525878 
L 524.451574 37.890963 
L 525.754916 40.802535 
L 527.058259 42.867459 
L 528.361602 41.217832 
L 529.664944 41.325952 
L 530.968287 44.728381 
L 532.27163 43.101358 
L 533.574972 39.260007 
L 534.878315 36.011391 
L 536.181657 34.42133 
L 537.485 33.468415 
L 537.485 33.468415 
" style="fill:none;stroke:#2ca02c;stroke-linecap:square;"/>
   </g>
   <g id="legend_1">
    <g id="patch_3">
     <path d="M 54.3534 74.556112 
L 109.911897 74.556112 
Q 112.244297 74.556112 112.244297 72.223712 
L 112.244297 23.2834 
Q 112.244297 20.951 109.911897 20.951 
L 54.3534 20.951 
Q 52.021 20.951 52.021 23.2834 
L 52.021 72.223712 
Q 52.021 74.556112 54.3534 74.556112 
z
" style="fill:#ffffff;opacity:0.8;stroke:#cccccc;stroke-linejoin:miter;"/>
    </g>
    <g id="line2d_15">
     <path d="M 56.6858 29.985406 
L 80.0098 29.985406 
" style="fill:none;stroke:#1f77b4;stroke-linecap:square;"/>
    </g>
    <g id="line2d_16"/>
    <g id="text_14">
     <!-- А -->
     <g transform="translate(89.3394 34.067106)scale(0.11662 -0.11662)">
      <defs>
       <path d="M 46.734375 0 
L 40.28125 20.125 
L 14.546875 20.125 
L 8.109375 0 
L 0.140625 0 
L 23.1875 68.796875 
L 31.890625 68.796875 
L 54.546875 0 
z
M 30.765625 50.09375 
Q 30.125 52.046875 29.546875 54.046875 
L 28.515625 57.71875 
L 27.734375 60.453125 
Q 27.4375 61.53125 27.4375 61.765625 
Q 27.34375 61.53125 27.078125 60.40625 
Q 26.8125 59.28125 26.375 57.625 
L 25.296875 53.953125 
L 24.125 50 
L 16.890625 27.390625 
L 37.984375 27.390625 
z
" id="LiberationSansNarrow-1040"/>
      </defs>
      <use xlink:href="#LiberationSansNarrow-1040"/>
     </g>
    </g>
    <g id="line2d_17">
     <path d="M 56.6858 46.687576 
L 80.0098 46.687576 
" style="fill:none;stroke:#ff7f0e;stroke-linecap:square;"/>
    </g>
    <g id="line2d_18"/>
    <g id="text_15">
     <!-- Б -->
     <g transform="translate(89.3394 50.769276)scale(0.11662 -0.11662)">
      <defs>
       <path d="M 49.5625 20.171875 
Q 49.5625 15.921875 48.34375 12.25 
Q 47.125 8.59375 44.703125 5.859375 
Q 42.28125 3.125 38.640625 1.5625 
Q 35.015625 0 30.125 0 
L 6.734375 0 
L 6.734375 68.796875 
L 43.796875 68.796875 
L 43.796875 61.1875 
L 14.359375 61.1875 
L 14.359375 39.703125 
L 29.6875 39.703125 
Q 34.671875 39.703125 38.40625 38.28125 
Q 42.140625 36.859375 44.609375 34.296875 
Q 47.078125 31.734375 48.3125 28.140625 
Q 49.5625 24.5625 49.5625 20.171875 
z
M 41.890625 20.0625 
Q 41.890625 25.984375 38.59375 29.125 
Q 35.296875 32.28125 28.765625 32.28125 
L 14.359375 32.28125 
L 14.359375 7.375 
L 29.046875 7.375 
Q 35.59375 7.375 38.734375 10.6875 
Q 41.890625 14.015625 41.890625 20.0625 
z
" id="LiberationSansNarrow-1041"/>
      </defs>
      <use xlink:href="#LiberationSansNarrow-1041"/>
     </g>
    </g>
    <g id="line2d_19">
     <path d="M 56.6858 63.389747 
L 80.0098 63.389747 
" style="fill:none;stroke:#2ca02c;stroke-linecap:square;"/>
    </g>
    <g id="line2d_20"/>
    <g id="text_16">
     <!-- А+Б -->
     <g transform="translate(89.3394 67.471447)scale(0.11662 -0.11662)">
      <defs>
       <path d="M 26.859375 29.6875 
L 26.859375 8.796875 
L 21 8.796875 
L 21 29.6875 
L 4 29.6875 
L 4 36.8125 
L 21 36.8125 
L 21 57.71875 
L 26.859375 57.71875 
L 26.859375 36.8125 
L 43.84375 36.8125 
L 43.84375 29.6875 
z
" id="LiberationSansNarrow-43"/>
      </defs>
      <use xlink:href="#LiberationSansNarrow-1040"/>
      <use x="54.6875" xlink:href="#LiberationSansNarrow-43"/>
      <use x="102.587891" xlink:href="#LiberationSansNarrow-1041"/>
     </g>
    </g>
   </g>
  </g>
 </g>
 <defs>
  <clipPath id="p4ede2e941a">
   <rect height="219.4" width="514.69" x="46.19" y="15.12"/>
  </clipPath>
 </defs>
</svg>
