<?xml version="1.0" encoding="utf-8" standalone="no"?>
<!DOCTYPE svg PUBLIC "-//W3C//DTD SVG 1.1//EN"
  "http://www.w3.org/Graphics/SVG/1.1/DTD/svg11.dtd">
<!-- Created with matplotlib (https://matplotlib.org/) -->
<svg height="288pt" version="1.1" viewBox="0 0 576 288" width="576pt" xmlns="http://www.w3.org/2000/svg" xmlns:xlink="http://www.w3.org/1999/xlink">
 <metadata>
  <rdf:RDF xmlns:cc="http://creativecommons.org/ns#" xmlns:dc="http://purl.org/dc/elements/1.1/" xmlns:rdf="http://www.w3.org/1999/02/22-rdf-syntax-ns#">
   <cc:Work>
    <dc:type rdf:resource="http://purl.org/dc/dcmitype/StillImage"/>
    <dc:date>2021-08-21T13:02:39.830184</dc:date>
    <dc:format>image/svg+xml</dc:format>
    <dc:creator>
     <cc:Agent>
      <dc:title>Matplotlib v3.3.4, https://matplotlib.org/</dc:title>
     </cc:Agent>
    </dc:creator>
   </cc:Work>
  </rdf:RDF>
 </metadata>
 <defs>
  <style type="text/css">*{stroke-linecap:butt;stroke-linejoin:round;}</style>
 </defs>
 <g id="figure_1">
  <g id="patch_1">
   <path d="M 0 288 
L 576 288 
L 576 0 
L 0 0 
z
" style="fill:#ffffff;"/>
  </g>
  <g id="axes_1">
   <g id="patch_2">
    <path d="M 46.19 234.52 
L 560.88 234.52 
L 560.88 15.12 
L 46.19 15.12 
z
" style="fill:#ffffff;"/>
   </g>
   <g id="matplotlib.axis_1">
    <g id="xtick_1">
     <g id="line2d_1">
      <path clip-path="url(#p72c62c2e5c)" d="M 69.585 234.52 
L 69.585 15.12 
" style="fill:none;stroke:#b0b0b0;stroke-dasharray:1.48,0.64;stroke-dashoffset:0;stroke-width:0.4;"/>
     </g>
     <g id="text_1">
      <!-- 0 -->
      <g transform="translate(66.392344 251.665625)scale(0.14 -0.14)">
       <defs>
        <path d="M 42.390625 34.421875 
Q 42.390625 24.515625 40.84375 17.75 
Q 39.3125 10.984375 36.640625 6.8125 
Q 33.984375 2.640625 30.390625 0.828125 
Q 26.8125 -0.984375 22.703125 -0.984375 
Q 18.609375 -0.984375 15.03125 0.828125 
Q 11.46875 2.640625 8.828125 6.78125 
Q 6.203125 10.9375 4.703125 17.703125 
Q 3.21875 24.46875 3.21875 34.421875 
Q 3.21875 44.828125 4.703125 51.640625 
Q 6.203125 58.453125 8.828125 62.5 
Q 11.46875 66.546875 15.078125 68.1875 
Q 18.703125 69.828125 22.953125 69.828125 
Q 27 69.828125 30.53125 68.1875 
Q 34.078125 66.546875 36.71875 62.5 
Q 39.359375 58.453125 40.875 51.640625 
Q 42.390625 44.828125 42.390625 34.421875 
z
M 35.0625 34.421875 
Q 35.0625 42.625 34.28125 48.0625 
Q 33.5 53.515625 31.9375 56.765625 
Q 30.375 60.015625 28.09375 61.359375 
Q 25.828125 62.703125 22.953125 62.703125 
Q 19.921875 62.703125 17.578125 61.328125 
Q 15.234375 59.96875 13.671875 56.71875 
Q 12.109375 53.46875 11.296875 48.015625 
Q 10.5 42.578125 10.5 34.421875 
Q 10.5 26.515625 11.296875 21.09375 
Q 12.109375 15.671875 13.6875 12.375 
Q 15.28125 9.078125 17.578125 7.640625 
Q 19.875 6.203125 22.796875 6.203125 
Q 25.640625 6.203125 27.90625 7.640625 
Q 30.171875 9.078125 31.75 12.375 
Q 33.34375 15.671875 34.203125 21.09375 
Q 35.0625 26.515625 35.0625 34.421875 
z
" id="LiberationSansNarrow-48"/>
       </defs>
       <use xlink:href="#LiberationSansNarrow-48"/>
      </g>
     </g>
    </g>
    <g id="xtick_2">
     <g id="line2d_2">
      <path clip-path="url(#p72c62c2e5c)" d="M 134.752131 234.52 
L 134.752131 15.12 
" style="fill:none;stroke:#b0b0b0;stroke-dasharray:1.48,0.64;stroke-dashoffset:0;stroke-width:0.4;"/>
     </g>
     <g id="text_2">
      <!-- 50 -->
      <g transform="translate(128.366818 251.665625)scale(0.14 -0.14)">
       <defs>
        <path d="M 42.140625 22.40625 
Q 42.140625 17.234375 40.859375 12.9375 
Q 39.59375 8.640625 37.078125 5.53125 
Q 34.578125 2.4375 30.8125 0.71875 
Q 27.046875 -0.984375 22.125 -0.984375 
Q 17.671875 -0.984375 14.375 0.28125 
Q 11.078125 1.5625 8.8125 3.78125 
Q 6.546875 6 5.203125 8.984375 
Q 3.859375 11.96875 3.265625 15.375 
L 10.546875 16.40625 
Q 10.984375 14.453125 11.78125 12.625 
Q 12.59375 10.796875 13.984375 9.34375 
Q 15.375 7.90625 17.40625 7.046875 
Q 19.4375 6.203125 22.3125 6.203125 
Q 25.09375 6.203125 27.390625 7.25 
Q 29.6875 8.296875 31.296875 10.34375 
Q 32.90625 12.40625 33.78125 15.375 
Q 34.671875 18.359375 34.671875 22.21875 
Q 34.671875 25.390625 33.84375 28.046875 
Q 33.015625 30.71875 31.453125 32.640625 
Q 29.890625 34.578125 27.609375 35.640625 
Q 25.34375 36.71875 22.46875 36.71875 
Q 20.65625 36.71875 19.140625 36.328125 
Q 17.625 35.9375 16.328125 35.25 
Q 15.046875 34.578125 13.96875 33.671875 
Q 12.890625 32.765625 11.96875 31.78125 
L 4.9375 31.78125 
L 6.78125 68.796875 
L 38.875 68.796875 
L 38.875 61.328125 
L 13.375 61.328125 
L 12.3125 39.5 
Q 14.203125 41.3125 17.078125 42.59375 
Q 19.96875 43.890625 23.921875 43.890625 
Q 28.125 43.890625 31.484375 42.328125 
Q 34.859375 40.765625 37.21875 37.90625 
Q 39.59375 35.0625 40.859375 31.109375 
Q 42.140625 27.15625 42.140625 22.40625 
z
" id="LiberationSansNarrow-53"/>
       </defs>
       <use xlink:href="#LiberationSansNarrow-53"/>
       <use x="45.605469" xlink:href="#LiberationSansNarrow-48"/>
      </g>
     </g>
    </g>
    <g id="xtick_3">
     <g id="line2d_3">
      <path clip-path="url(#p72c62c2e5c)" d="M 199.919262 234.52 
L 199.919262 15.12 
" style="fill:none;stroke:#b0b0b0;stroke-dasharray:1.48,0.64;stroke-dashoffset:0;stroke-width:0.4;"/>
     </g>
     <g id="text_3">
      <!-- 100 -->
      <g transform="translate(190.341293 251.665625)scale(0.14 -0.14)">
       <defs>
        <path d="M 6.25 0 
L 6.25 7.46875 
L 20.609375 7.46875 
L 20.609375 60.40625 
L 7.90625 49.3125 
L 7.90625 57.625 
L 21.234375 68.796875 
L 27.875 68.796875 
L 27.875 7.46875 
L 41.609375 7.46875 
L 41.609375 0 
z
" id="LiberationSansNarrow-49"/>
       </defs>
       <use xlink:href="#LiberationSansNarrow-49"/>
       <use x="45.605469" xlink:href="#LiberationSansNarrow-48"/>
       <use x="91.210938" xlink:href="#LiberationSansNarrow-48"/>
      </g>
     </g>
    </g>
    <g id="xtick_4">
     <g id="line2d_4">
      <path clip-path="url(#p72c62c2e5c)" d="M 265.086393 234.52 
L 265.086393 15.12 
" style="fill:none;stroke:#b0b0b0;stroke-dasharray:1.48,0.64;stroke-dashoffset:0;stroke-width:0.4;"/>
     </g>
     <g id="text_4">
      <!-- 150 -->
      <g transform="translate(255.508424 251.665625)scale(0.14 -0.14)">
       <use xlink:href="#LiberationSansNarrow-49"/>
       <use x="45.605469" xlink:href="#LiberationSansNarrow-53"/>
       <use x="91.210938" xlink:href="#LiberationSansNarrow-48"/>
      </g>
     </g>
    </g>
    <g id="xtick_5">
     <g id="line2d_5">
      <path clip-path="url(#p72c62c2e5c)" d="M 330.253524 234.52 
L 330.253524 15.12 
" style="fill:none;stroke:#b0b0b0;stroke-dasharray:1.48,0.64;stroke-dashoffset:0;stroke-width:0.4;"/>
     </g>
     <g id="text_5">
      <!-- 200 -->
      <g transform="translate(320.675555 251.665625)scale(0.14 -0.14)">
       <defs>
        <path d="M 4.109375 0 
L 4.109375 6.203125 
Q 6.15625 11.921875 9.109375 16.28125 
Q 12.0625 20.65625 15.3125 24.1875 
Q 18.5625 27.734375 21.734375 30.765625 
Q 24.90625 33.796875 27.46875 36.8125 
Q 30.03125 39.84375 31.609375 43.15625 
Q 33.203125 46.484375 33.203125 50.6875 
Q 33.203125 53.609375 32.46875 55.828125 
Q 31.734375 58.0625 30.390625 59.5625 
Q 29.046875 61.078125 27.140625 61.828125 
Q 25.25 62.59375 22.90625 62.59375 
Q 20.75 62.59375 18.84375 61.859375 
Q 16.9375 61.140625 15.453125 59.671875 
Q 13.96875 58.203125 13.03125 56.03125 
Q 12.109375 53.859375 11.8125 50.984375 
L 4.4375 51.8125 
Q 4.78125 55.515625 6.125 58.78125 
Q 7.46875 62.0625 9.78125 64.53125 
Q 12.109375 67 15.359375 68.40625 
Q 18.609375 69.828125 22.90625 69.828125 
Q 27.09375 69.828125 30.390625 68.609375 
Q 33.6875 67.390625 35.9375 64.984375 
Q 38.1875 62.59375 39.40625 59.078125 
Q 40.625 55.5625 40.625 50.984375 
Q 40.625 47.515625 39.59375 44.390625 
Q 38.578125 41.265625 36.859375 38.421875 
Q 35.15625 35.59375 32.90625 32.953125 
Q 30.671875 30.328125 28.21875 27.828125 
L 23.296875 22.859375 
Q 20.796875 20.359375 18.625 17.859375 
Q 16.453125 15.375 14.734375 12.8125 
Q 13.03125 10.25 12.0625 7.46875 
L 41.5 7.46875 
L 41.5 0 
z
" id="LiberationSansNarrow-50"/>
       </defs>
       <use xlink:href="#LiberationSansNarrow-50"/>
       <use x="45.605469" xlink:href="#LiberationSansNarrow-48"/>
       <use x="91.210938" xlink:href="#LiberationSansNarrow-48"/>
      </g>
     </g>
    </g>
    <g id="xtick_6">
     <g id="line2d_6">
      <path clip-path="url(#p72c62c2e5c)" d="M 395.420655 234.52 
L 395.420655 15.12 
" style="fill:none;stroke:#b0b0b0;stroke-dasharray:1.48,0.64;stroke-dashoffset:0;stroke-width:0.4;"/>
     </g>
     <g id="text_6">
      <!-- 250 -->
      <g transform="translate(385.842686 251.665625)scale(0.14 -0.14)">
       <use xlink:href="#LiberationSansNarrow-50"/>
       <use x="45.605469" xlink:href="#LiberationSansNarrow-53"/>
       <use x="91.210938" xlink:href="#LiberationSansNarrow-48"/>
      </g>
     </g>
    </g>
    <g id="xtick_7">
     <g id="line2d_7">
      <path clip-path="url(#p72c62c2e5c)" d="M 460.587786 234.52 
L 460.587786 15.12 
" style="fill:none;stroke:#b0b0b0;stroke-dasharray:1.48,0.64;stroke-dashoffset:0;stroke-width:0.4;"/>
     </g>
     <g id="text_7">
      <!-- 300 -->
      <g transform="translate(451.009817 251.665625)scale(0.14 -0.14)">
       <defs>
        <path d="M 42 19 
Q 42 14.265625 40.75 10.546875 
Q 39.5 6.84375 37.0625 4.265625 
Q 34.625 1.703125 31.046875 0.359375 
Q 27.484375 -0.984375 22.859375 -0.984375 
Q 17.625 -0.984375 14.03125 0.609375 
Q 10.453125 2.203125 8.125 4.8125 
Q 5.8125 7.421875 4.640625 10.765625 
Q 3.46875 14.109375 3.125 17.671875 
L 10.546875 18.5 
Q 10.890625 15.765625 11.734375 13.515625 
Q 12.59375 11.28125 14.078125 9.671875 
Q 15.578125 8.0625 17.75 7.171875 
Q 19.921875 6.296875 22.859375 6.296875 
Q 28.328125 6.296875 31.421875 9.5625 
Q 34.515625 12.84375 34.515625 19.28125 
Q 34.515625 23.09375 33.125 25.40625 
Q 31.734375 27.734375 29.6875 29.03125 
Q 27.640625 30.328125 25.21875 30.765625 
Q 22.796875 31.203125 20.75 31.203125 
L 16.65625 31.203125 
L 16.65625 38.8125 
L 20.5625 38.8125 
Q 22.609375 38.8125 24.828125 39.328125 
Q 27.046875 39.84375 28.859375 41.1875 
Q 30.671875 42.53125 31.859375 44.828125 
Q 33.0625 47.125 33.0625 50.6875 
Q 33.0625 56.203125 30.375 59.390625 
Q 27.6875 62.59375 22.46875 62.59375 
Q 17.671875 62.59375 14.734375 59.609375 
Q 11.8125 56.640625 11.328125 51.21875 
L 4.109375 51.90625 
Q 4.546875 56.453125 6.125 59.8125 
Q 7.71875 63.1875 10.171875 65.40625 
Q 12.640625 67.625 15.8125 68.71875 
Q 19 69.828125 22.5625 69.828125 
Q 27.296875 69.828125 30.6875 68.375 
Q 34.078125 66.9375 36.21875 64.46875 
Q 38.375 62.015625 39.40625 58.6875 
Q 40.4375 55.375 40.4375 51.609375 
Q 40.4375 48.578125 39.75 45.9375 
Q 39.0625 43.3125 37.625 41.203125 
Q 36.1875 39.109375 33.953125 37.59375 
Q 31.734375 36.078125 28.609375 35.296875 
L 28.609375 35.109375 
Q 32.03125 34.671875 34.546875 33.21875 
Q 37.0625 31.78125 38.71875 29.625 
Q 40.375 27.484375 41.1875 24.75 
Q 42 22.015625 42 19 
z
" id="LiberationSansNarrow-51"/>
       </defs>
       <use xlink:href="#LiberationSansNarrow-51"/>
       <use x="45.605469" xlink:href="#LiberationSansNarrow-48"/>
       <use x="91.210938" xlink:href="#LiberationSansNarrow-48"/>
      </g>
     </g>
    </g>
    <g id="xtick_8">
     <g id="line2d_8">
      <path clip-path="url(#p72c62c2e5c)" d="M 525.754916 234.52 
L 525.754916 15.12 
" style="fill:none;stroke:#b0b0b0;stroke-dasharray:1.48,0.64;stroke-dashoffset:0;stroke-width:0.4;"/>
     </g>
     <g id="text_8">
      <!-- 350 -->
      <g transform="translate(516.176948 251.665625)scale(0.14 -0.14)">
       <use xlink:href="#LiberationSansNarrow-51"/>
       <use x="45.605469" xlink:href="#LiberationSansNarrow-53"/>
       <use x="91.210938" xlink:href="#LiberationSansNarrow-48"/>
      </g>
     </g>
    </g>
    <g id="text_9">
     <!-- Месяцы -->
     <g transform="translate(281.943281 268.71625)scale(0.14 -0.14)">
      <defs>
       <path d="M 54.6875 0 
L 54.6875 45.90625 
Q 54.6875 48.390625 54.734375 50.96875 
Q 54.78125 53.5625 54.828125 55.71875 
Q 54.9375 58.203125 55.078125 60.546875 
Q 54.546875 58.0625 53.90625 55.609375 
Q 53.90625 55.609375 52.734375 51.171875 
Q 52.15625 48.78125 51.515625 46.875 
L 36.96875 0 
L 31.59375 0 
L 16.796875 46.875 
Q 16.546875 47.609375 16.3125 48.578125 
L 15.765625 50.6875 
L 15.140625 52.9375 
L 14.546875 55.171875 
Q 13.875 57.765625 13.234375 60.546875 
Q 13.28125 57.8125 13.375 55.125 
Q 13.484375 52.828125 13.5 50.3125 
Q 13.53125 47.796875 13.53125 45.90625 
L 13.53125 0 
L 6.734375 0 
L 6.734375 68.796875 
L 16.796875 68.796875 
L 31.78125 21.09375 
Q 32.078125 20.125 32.46875 18.578125 
Q 32.859375 17.046875 33.21875 15.421875 
Q 33.59375 13.8125 33.890625 12.375 
Q 34.1875 10.9375 34.328125 10.15625 
Q 34.421875 10.9375 34.734375 12.40625 
Q 35.0625 13.875 35.5 15.484375 
L 36.328125 18.609375 
Q 36.71875 20.125 37.0625 21.09375 
L 51.765625 68.796875 
L 61.578125 68.796875 
L 61.578125 0 
z
" id="LiberationSansNarrow-1052"/>
       <path d="M 10.6875 24.5625 
Q 10.6875 20.40625 11.5625 16.90625 
Q 12.453125 13.421875 13.90625 10.90625 
Q 15.375 8.40625 17.640625 7 
Q 19.921875 5.609375 23.140625 5.609375 
Q 27.828125 5.609375 30.65625 7.90625 
Q 33.5 10.203125 34.46875 13.71875 
L 40.828125 11.53125 
Q 40.140625 9.328125 38.921875 7.109375 
Q 37.703125 4.890625 35.640625 3.09375 
Q 33.59375 1.3125 30.53125 0.15625 
Q 27.484375 -0.984375 23.140625 -0.984375 
Q 13.53125 -0.984375 8.5 6 
Q 3.46875 12.984375 3.46875 26.765625 
Q 3.46875 34.1875 5 39.328125 
Q 6.546875 44.484375 9.171875 47.703125 
Q 11.8125 50.921875 15.328125 52.359375 
Q 18.84375 53.8125 22.859375 53.8125 
Q 28.328125 53.8125 31.984375 51.65625 
Q 39.0625 47.515625 41.015625 36.8125 
Q 41.9375 31.6875 41.9375 25.734375 
L 41.9375 24.5625 
z
M 34.71875 31.296875 
Q 34.71875 40.140625 31.421875 43.71875 
Q 28.125 47.3125 22.75 47.3125 
Q 18.953125 47.3125 15.328125 44.09375 
Q 10.9375 40.328125 10.6875 31.296875 
z
" id="LiberationSansNarrow-1077"/>
       <path d="M 11.03125 26.65625 
Q 11.03125 22.125 11.5625 18.3125 
Q 12.109375 14.5 13.375 11.734375 
Q 14.65625 8.984375 16.75 7.46875 
Q 18.84375 5.953125 21.96875 5.953125 
Q 25.828125 5.953125 28.390625 8.484375 
Q 30.953125 11.03125 31.546875 16.3125 
L 38.875 15.71875 
Q 38.53125 12.453125 37.296875 9.421875 
Q 36.078125 6.390625 34.03125 4.09375 
Q 31.984375 1.8125 29 0.40625 
Q 26.03125 -0.984375 22.171875 -0.984375 
Q 17.09375 -0.984375 13.5 1.109375 
Q 9.90625 3.21875 7.6875 6.90625 
Q 5.46875 10.59375 4.46875 15.59375 
Q 3.46875 20.609375 3.46875 26.46875 
Q 3.46875 31.78125 4.203125 35.859375 
Q 4.9375 39.9375 6.21875 42.984375 
Q 7.515625 46.046875 9.265625 48.125 
Q 11.03125 50.203125 13.109375 51.4375 
Q 15.1875 52.6875 17.453125 53.25 
Q 19.734375 53.8125 22.078125 53.8125 
Q 25.734375 53.8125 28.5625 52.59375 
Q 31.390625 51.375 33.46875 49.25 
Q 35.546875 47.125 36.8125 44.234375 
Q 38.09375 41.359375 38.625 38.03125 
L 31.203125 37.359375 
Q 30.671875 41.75 28.375 44.328125 
Q 26.078125 46.921875 21.875 46.921875 
Q 18.796875 46.921875 16.71875 45.671875 
Q 14.65625 44.4375 13.375 41.921875 
Q 12.109375 39.40625 11.5625 35.59375 
Q 11.03125 31.78125 11.03125 26.65625 
z
" id="LiberationSansNarrow-1089"/>
       <path d="M 21.4375 22.359375 
L 8.84375 0 
L 0.6875 0 
L 14.453125 23 
Q 9.234375 24.3125 6.859375 28.296875 
Q 4.5 32.28125 4.5 38.234375 
Q 4.5 45.515625 8.8125 49.171875 
Q 13.140625 52.828125 21.4375 52.828125 
L 38.71875 52.828125 
L 38.71875 0 
L 31.546875 0 
L 31.546875 22.359375 
z
M 31.546875 46.625 
L 22.171875 46.625 
Q 16.9375 46.625 14.546875 44.375 
Q 12.15625 42.140625 12.15625 37.59375 
Q 12.15625 33.015625 14.28125 30.734375 
Q 16.40625 28.46875 21.390625 28.46875 
L 31.546875 28.46875 
z
" id="LiberationSansNarrow-1103"/>
       <path d="M 12.890625 52.828125 
L 12.890625 6.390625 
L 31.984375 6.390625 
L 31.984375 52.828125 
L 39.203125 52.828125 
L 39.203125 6.390625 
L 45.0625 6.390625 
L 45.0625 -19.921875 
L 38.578125 -19.921875 
L 38.578125 0 
L 5.671875 0 
L 5.671875 52.828125 
z
" id="LiberationSansNarrow-1094"/>
       <path d="M 22.796875 30.46875 
Q 31.296875 30.46875 35.640625 26.875 
Q 39.984375 23.296875 39.984375 15.53125 
Q 39.984375 11.921875 38.90625 9.03125 
Q 37.84375 6.15625 35.671875 4.15625 
Q 33.5 2.15625 30.296875 1.078125 
Q 27.09375 0 22.859375 0 
L 5.859375 0 
L 5.859375 52.828125 
L 13.328125 52.828125 
L 13.328125 30.46875 
z
M 13.328125 6.203125 
L 21.734375 6.203125 
Q 24.609375 6.203125 26.578125 6.8125 
Q 28.5625 7.421875 29.78125 8.609375 
Q 31 9.8125 31.53125 11.546875 
Q 32.078125 13.28125 32.078125 15.53125 
Q 32.078125 20.125 29.65625 22.234375 
Q 27.25 24.359375 21.734375 24.359375 
L 13.328125 24.359375 
z
M 47.65625 0 
L 47.65625 52.828125 
L 55.125 52.828125 
L 55.125 0 
z
" id="LiberationSansNarrow-1099"/>
      </defs>
      <use xlink:href="#LiberationSansNarrow-1052"/>
      <use x="69.435547" xlink:href="#LiberationSansNarrow-1077"/>
      <use x="115.041016" xlink:href="#LiberationSansNarrow-1089"/>
      <use x="156.056641" xlink:href="#LiberationSansNarrow-1103"/>
      <use x="200.490234" xlink:href="#LiberationSansNarrow-1094"/>
      <use x="247.462891" xlink:href="#LiberationSansNarrow-1099"/>
     </g>
    </g>
   </g>
   <g id="matplotlib.axis_2">
    <g id="ytick_1">
     <g id="line2d_9">
      <path clip-path="url(#p72c62c2e5c)" d="M 46.19 220.868612 
L 560.88 220.868612 
" style="fill:none;stroke:#b0b0b0;stroke-dasharray:1.48,0.64;stroke-dashoffset:0;stroke-width:0.4;"/>
     </g>
     <g id="text_10">
      <!-- 1 -->
      <g transform="translate(32.804688 225.941424)scale(0.14 -0.14)">
       <use xlink:href="#LiberationSansNarrow-49"/>
      </g>
     </g>
    </g>
    <g id="ytick_2">
     <g id="line2d_10">
      <path clip-path="url(#p72c62c2e5c)" d="M 46.19 163.952465 
L 560.88 163.952465 
" style="fill:none;stroke:#b0b0b0;stroke-dasharray:1.48,0.64;stroke-dashoffset:0;stroke-width:0.4;"/>
     </g>
     <g id="text_11">
      <!-- 2 -->
      <g transform="translate(32.804688 169.025278)scale(0.14 -0.14)">
       <use xlink:href="#LiberationSansNarrow-50"/>
      </g>
     </g>
    </g>
    <g id="ytick_3">
     <g id="line2d_11">
      <path clip-path="url(#p72c62c2e5c)" d="M 46.19 107.036319 
L 560.88 107.036319 
" style="fill:none;stroke:#b0b0b0;stroke-dasharray:1.48,0.64;stroke-dashoffset:0;stroke-width:0.4;"/>
     </g>
     <g id="text_12">
      <!-- 3 -->
      <g transform="translate(32.804688 112.109131)scale(0.14 -0.14)">
       <use xlink:href="#LiberationSansNarrow-51"/>
      </g>
     </g>
    </g>
    <g id="ytick_4">
     <g id="line2d_12">
      <path clip-path="url(#p72c62c2e5c)" d="M 46.19 50.120172 
L 560.88 50.120172 
" style="fill:none;stroke:#b0b0b0;stroke-dasharray:1.48,0.64;stroke-dashoffset:0;stroke-width:0.4;"/>
     </g>
     <g id="text_13">
      <!-- 4 -->
      <g transform="translate(32.804688 55.192984)scale(0.14 -0.14)">
       <defs>
        <path d="M 35.25 15.578125 
L 35.25 0 
L 28.46875 0 
L 28.46875 15.578125 
L 1.90625 15.578125 
L 1.90625 22.40625 
L 27.6875 68.796875 
L 35.25 68.796875 
L 35.25 22.515625 
L 43.21875 22.515625 
L 43.21875 15.578125 
z
M 28.46875 58.890625 
Q 28.375 58.640625 28.03125 57.90625 
L 27.34375 56.34375 
L 26.5625 54.59375 
Q 26.125 53.65625 25.78125 53.078125 
L 11.328125 27.09375 
Q 11.140625 26.703125 10.75 26.078125 
L 9.96875 24.8125 
L 9.1875 23.484375 
Q 8.796875 22.859375 8.546875 22.515625 
L 28.46875 22.515625 
z
" id="LiberationSansNarrow-52"/>
       </defs>
       <use xlink:href="#LiberationSansNarrow-52"/>
      </g>
     </g>
    </g>
    <g id="text_14">
     <!-- Размер портфеля -->
     <g transform="translate(25.899688 172.185938)rotate(-90)scale(0.14 -0.14)">
      <defs>
       <path d="M 50.34375 48.09375 
Q 50.34375 43.609375 49.125 39.71875 
Q 47.90625 35.84375 45.484375 32.984375 
Q 43.0625 30.125 39.421875 28.46875 
Q 35.796875 26.8125 30.953125 26.8125 
L 14.359375 26.8125 
L 14.359375 0 
L 6.734375 0 
L 6.734375 68.796875 
L 30.46875 68.796875 
Q 35.453125 68.796875 39.1875 67.3125 
Q 42.921875 65.828125 45.40625 63.109375 
Q 47.90625 60.40625 49.125 56.5625 
Q 50.34375 52.734375 50.34375 48.09375 
z
M 42.671875 48 
Q 42.671875 54.546875 39.40625 57.9375 
Q 36.140625 61.328125 29.546875 61.328125 
L 14.359375 61.328125 
L 14.359375 34.1875 
L 29.890625 34.1875 
Q 36.46875 34.1875 39.5625 37.75 
Q 42.671875 41.3125 42.671875 48 
z
" id="LiberationSansNarrow-1056"/>
       <path d="M 16.546875 -0.984375 
Q 10.015625 -0.984375 6.734375 3.21875 
Q 3.46875 7.421875 3.46875 14.75 
Q 3.46875 19.96875 5.09375 23.3125 
Q 6.734375 26.65625 9.34375 28.5625 
Q 11.96875 30.46875 15.328125 31.203125 
Q 18.703125 31.9375 22.171875 32.03125 
L 31.9375 32.234375 
L 31.9375 35.109375 
Q 31.9375 38.375 31.375 40.671875 
Q 30.8125 42.96875 29.640625 44.375 
Q 28.46875 45.796875 26.734375 46.453125 
Q 25 47.125 22.609375 47.125 
Q 20.515625 47.125 18.84375 46.75 
Q 17.1875 46.390625 15.9375 45.4375 
Q 14.703125 44.484375 13.9375 42.84375 
Q 13.1875 41.21875 12.9375 38.71875 
L 5.421875 39.546875 
Q 5.8125 42.671875 6.9375 45.28125 
Q 8.0625 47.90625 10.109375 49.796875 
Q 12.15625 51.703125 15.25 52.75 
Q 18.359375 53.8125 22.796875 53.8125 
Q 30.953125 53.8125 35.078125 49.234375 
Q 39.203125 44.671875 39.203125 36.03125 
L 39.203125 13.28125 
Q 39.203125 9.375 40.03125 7.390625 
Q 40.875 5.421875 43.265625 5.421875 
Q 43.84375 5.421875 44.453125 5.515625 
Q 45.0625 5.609375 45.609375 5.765625 
L 45.609375 0.296875 
Q 44.234375 -0.09375 42.890625 -0.28125 
Q 41.546875 -0.484375 40.046875 -0.484375 
Q 37.984375 -0.484375 36.515625 0.171875 
Q 35.0625 0.828125 34.15625 2.171875 
Q 33.25 3.515625 32.765625 5.484375 
Q 32.28125 7.46875 32.125 10.109375 
L 31.9375 10.109375 
Q 30.765625 7.5625 29.375 5.515625 
Q 27.984375 3.46875 26.140625 2.03125 
Q 24.3125 0.59375 21.9375 -0.1875 
Q 19.578125 -0.984375 16.546875 -0.984375 
z
M 18.21875 5.609375 
Q 21.6875 5.609375 24.25 7.140625 
Q 26.8125 8.6875 28.515625 11.078125 
Q 30.21875 13.484375 31.078125 16.3125 
Q 31.9375 19.140625 31.9375 21.734375 
L 31.9375 26.078125 
L 24.03125 25.875 
Q 21.390625 25.828125 19 25.40625 
Q 16.609375 25 14.8125 23.78125 
Q 13.03125 22.5625 11.953125 20.359375 
Q 10.890625 18.171875 10.890625 14.59375 
Q 10.890625 10.296875 12.796875 7.953125 
Q 14.703125 5.609375 18.21875 5.609375 
z
" id="LiberationSansNarrow-1072"/>
       <path d="M 18.3125 -0.984375 
Q 11.625 -0.984375 7.6875 2.0625 
Q 3.765625 5.125 1.953125 11.421875 
L 8.296875 13.578125 
Q 9.28125 9.765625 11.8125 7.65625 
Q 14.359375 5.5625 18.453125 5.5625 
Q 22.3125 5.5625 24.578125 7.859375 
Q 26.859375 10.15625 26.859375 14.59375 
Q 26.859375 17.484375 25.734375 19.390625 
Q 24.609375 21.296875 22.78125 22.390625 
Q 20.953125 23.484375 18.546875 23.921875 
Q 16.15625 24.359375 13.578125 24.359375 
L 13.578125 31.0625 
Q 16.109375 31.0625 18.40625 31.421875 
Q 20.703125 31.78125 22.4375 32.703125 
Q 24.171875 33.640625 25.140625 35.28125 
Q 26.125 36.921875 26.125 39.453125 
Q 26.125 43.0625 24.140625 45.15625 
Q 22.171875 47.265625 18.453125 47.265625 
Q 17.046875 47.265625 15.65625 46.921875 
Q 14.265625 46.578125 13.03125 45.765625 
Q 11.8125 44.96875 10.984375 43.625 
Q 10.15625 42.28125 9.859375 40.234375 
L 3.421875 41.21875 
Q 3.90625 44.53125 5.125 46.921875 
Q 6.34375 49.3125 8.296875 50.84375 
Q 10.25 52.390625 12.78125 53.09375 
Q 15.328125 53.8125 18.453125 53.8125 
Q 21.875 53.8125 24.625 52.78125 
Q 27.390625 51.765625 29.34375 49.90625 
Q 31.296875 48.046875 32.375 45.5 
Q 33.453125 42.96875 33.453125 39.890625 
Q 33.453125 37.109375 32.5625 34.953125 
Q 31.6875 32.8125 30.25 31.3125 
Q 28.8125 29.828125 27.046875 28.953125 
Q 25.296875 28.078125 23.53125 27.875 
L 23.53125 27.78125 
Q 25.78125 27.484375 27.75 26.484375 
Q 29.734375 25.484375 31.25 23.84375 
Q 32.765625 22.21875 33.609375 19.9375 
Q 34.46875 17.671875 34.46875 14.84375 
Q 34.46875 11.46875 33.484375 8.5625 
Q 32.515625 5.671875 30.484375 3.546875 
Q 28.46875 1.421875 25.4375 0.21875 
Q 22.40625 -0.984375 18.3125 -0.984375 
z
" id="LiberationSansNarrow-1079"/>
       <path d="M 31.546875 0 
L 25.390625 0 
L 12.40625 46.4375 
Q 12.453125 45.171875 12.515625 43.703125 
Q 12.59375 42.234375 12.59375 40.75 
Q 12.59375 39.265625 12.609375 37.859375 
Q 12.640625 36.46875 12.640625 35.359375 
L 12.640625 0 
L 5.671875 0 
L 5.671875 52.828125 
L 16.890625 52.828125 
L 25.734375 20.5625 
Q 26.65625 17.484375 27.390625 13.796875 
Q 28.125 10.109375 28.421875 6.59375 
Q 28.8125 10.109375 29.515625 13.796875 
Q 30.21875 17.484375 31.15625 20.5625 
L 39.984375 52.828125 
L 50.734375 52.828125 
L 50.734375 0 
L 43.796875 0 
L 43.796875 35.359375 
Q 43.796875 36.421875 43.8125 37.890625 
Q 43.84375 39.359375 43.921875 40.921875 
Q 44 42.484375 44.015625 43.9375 
Q 44.046875 45.40625 44.140625 46.53125 
z
" id="LiberationSansNarrow-1084"/>
       <path d="M 42.140625 26.65625 
Q 42.140625 20.65625 41.359375 15.578125 
Q 40.578125 10.5 38.6875 6.828125 
Q 36.8125 3.171875 33.765625 1.09375 
Q 30.71875 -0.984375 26.21875 -0.984375 
Q 21.578125 -0.984375 18.078125 1.171875 
Q 14.59375 3.328125 12.796875 8.203125 
L 12.546875 8.203125 
Q 12.59375 8.109375 12.609375 7.328125 
Q 12.640625 6.546875 12.671875 5.375 
Q 12.703125 4.203125 12.71875 2.75 
Q 12.75 1.3125 12.75 -0.09375 
L 12.75 -20.75 
L 5.515625 -20.75 
L 5.515625 42.046875 
Q 5.515625 43.953125 5.484375 45.703125 
Q 5.46875 47.46875 5.4375 48.90625 
Q 5.421875 50.34375 5.375 51.359375 
Q 5.328125 52.390625 5.28125 52.828125 
L 12.25 52.828125 
Q 12.3125 52.6875 12.359375 51.8125 
L 12.5 49.703125 
Q 12.546875 48.4375 12.59375 47.015625 
Q 12.640625 45.609375 12.640625 44.34375 
L 12.796875 44.34375 
Q 13.765625 46.875 15.0625 48.65625 
Q 16.359375 50.4375 18.015625 51.578125 
Q 19.671875 52.734375 21.671875 53.25 
Q 23.6875 53.765625 26.21875 53.765625 
Q 30.71875 53.765625 33.765625 51.8125 
Q 36.8125 49.859375 38.6875 46.3125 
Q 40.578125 42.78125 41.359375 37.765625 
Q 42.140625 32.765625 42.140625 26.65625 
z
M 34.578125 26.46875 
Q 34.578125 31.34375 34.109375 35.15625 
Q 33.640625 38.96875 32.4375 41.59375 
Q 31.25 44.234375 29.296875 45.59375 
Q 27.34375 46.96875 24.359375 46.96875 
Q 21.96875 46.96875 19.84375 46.140625 
Q 17.71875 45.3125 16.125 42.96875 
Q 14.546875 40.625 13.640625 36.5 
Q 12.75 32.375 12.75 25.78125 
Q 12.75 20.171875 13.5 16.28125 
Q 14.265625 12.40625 15.71875 10.015625 
Q 17.1875 7.625 19.328125 6.5625 
Q 21.484375 5.515625 24.3125 5.515625 
Q 27.34375 5.515625 29.296875 6.921875 
Q 31.25 8.34375 32.4375 11.03125 
Q 33.640625 13.71875 34.109375 17.59375 
Q 34.578125 21.484375 34.578125 26.46875 
z
" id="LiberationSansNarrow-1088"/>
       <path id="LiberationSansNarrow-32"/>
       <path d="M 38.71875 52.828125 
L 38.71875 0 
L 31.546875 0 
L 31.546875 46.4375 
L 12.890625 46.4375 
L 12.890625 0 
L 5.71875 0 
L 5.71875 52.828125 
z
" id="LiberationSansNarrow-1087"/>
       <path d="M 42.140625 26.46875 
Q 42.140625 12.59375 37.125 5.796875 
Q 32.125 -0.984375 22.609375 -0.984375 
Q 18.0625 -0.984375 14.515625 0.671875 
Q 10.984375 2.34375 8.515625 5.765625 
Q 6.0625 9.1875 4.765625 14.328125 
Q 3.46875 19.484375 3.46875 26.46875 
Q 3.46875 53.8125 22.859375 53.8125 
Q 27.875 53.8125 31.5625 52.09375 
Q 35.25 50.390625 37.59375 46.96875 
Q 39.9375 43.5625 41.03125 38.421875 
Q 42.140625 33.296875 42.140625 26.46875 
z
M 34.578125 26.46875 
Q 34.578125 32.625 33.8125 36.625 
Q 33.0625 40.625 31.546875 43.015625 
Q 30.03125 45.40625 27.859375 46.359375 
Q 25.6875 47.3125 23 47.3125 
Q 20.21875 47.3125 17.984375 46.3125 
Q 15.765625 45.3125 14.203125 42.890625 
Q 12.640625 40.484375 11.828125 36.46875 
Q 11.03125 32.46875 11.03125 26.46875 
Q 11.03125 20.3125 11.90625 16.28125 
Q 12.796875 12.25 14.328125 9.859375 
Q 15.875 7.46875 17.96875 6.484375 
Q 20.0625 5.515625 22.5625 5.515625 
Q 25.34375 5.515625 27.5625 6.46875 
Q 29.78125 7.421875 31.34375 9.8125 
Q 32.90625 12.203125 33.734375 16.25 
Q 34.578125 20.3125 34.578125 26.46875 
z
" id="LiberationSansNarrow-1086"/>
       <path d="M 1.421875 52.828125 
L 36.140625 52.828125 
L 36.140625 46.4375 
L 22.359375 46.4375 
L 22.359375 0 
L 15.1875 0 
L 15.1875 46.4375 
L 1.421875 46.4375 
z
" id="LiberationSansNarrow-1090"/>
       <path d="M 64.015625 26.65625 
Q 64.015625 20.65625 63.234375 15.578125 
Q 62.453125 10.5 60.734375 6.828125 
Q 59.03125 3.171875 56.21875 1.09375 
Q 53.421875 -0.984375 49.359375 -0.984375 
Q 45.171875 -0.984375 42.015625 1.171875 
Q 38.875 3.328125 37.15625 8.203125 
L 36.921875 8.203125 
Q 37.015625 6.5 37.0625 4.609375 
Q 37.109375 2.734375 37.109375 -0.09375 
L 37.109375 -20.75 
L 30.328125 -20.75 
L 30.328125 -0.09375 
Q 30.328125 2.546875 30.375 4.546875 
Q 30.421875 6.546875 30.515625 8.5 
L 30.328125 8.5 
Q 28.46875 3.421875 25.484375 1.21875 
Q 22.515625 -0.984375 18.0625 -0.984375 
Q 10.59375 -0.984375 7.03125 5.734375 
Q 3.46875 12.453125 3.46875 26.171875 
Q 3.46875 40.046875 7.15625 46.921875 
Q 10.84375 53.8125 18.0625 53.8125 
Q 22.5625 53.8125 25.53125 51.609375 
Q 28.515625 49.421875 30.328125 44.625 
L 30.515625 44.625 
Q 30.515625 45.125 30.46875 46.125 
Q 30.421875 47.125 30.375 48.25 
L 30.375 50.390625 
Q 30.328125 51.421875 30.328125 52 
L 30.328125 72.46875 
L 37.109375 72.46875 
L 37.109375 51.953125 
Q 37.109375 51.421875 37.078125 50.359375 
Q 37.0625 49.3125 37.0625 48.15625 
Q 37.0625 47.015625 37.03125 45.96875 
Q 37.015625 44.921875 37.015625 44.34375 
L 37.203125 44.34375 
Q 39.0625 49.421875 41.9375 51.59375 
Q 44.828125 53.765625 49.359375 53.765625 
Q 53.421875 53.765625 56.21875 51.8125 
Q 59.03125 49.859375 60.734375 46.3125 
Q 62.453125 42.78125 63.234375 37.765625 
Q 64.015625 32.765625 64.015625 26.65625 
z
M 11.03125 26.46875 
Q 11.03125 21 11.546875 17.09375 
Q 12.0625 13.1875 13.1875 10.671875 
Q 14.3125 8.15625 16.015625 6.984375 
Q 17.71875 5.8125 20.125 5.8125 
Q 22.515625 5.8125 24.390625 6.859375 
Q 26.265625 7.90625 27.5625 10.296875 
Q 28.859375 12.703125 29.53125 16.53125 
Q 30.21875 20.359375 30.328125 25.875 
L 30.328125 27.046875 
Q 30.328125 32.671875 29.640625 36.546875 
Q 28.953125 40.4375 27.65625 42.828125 
Q 26.375 45.21875 24.484375 46.265625 
Q 22.609375 47.3125 20.171875 47.3125 
Q 17.875 47.3125 16.15625 46.1875 
Q 14.453125 45.0625 13.296875 42.578125 
Q 12.15625 40.09375 11.59375 36.109375 
Q 11.03125 32.125 11.03125 26.46875 
z
M 56.453125 26.46875 
Q 56.453125 31.34375 55.984375 35.15625 
Q 55.515625 38.96875 54.46875 41.59375 
Q 53.421875 44.234375 51.65625 45.59375 
Q 49.90625 46.96875 47.3125 46.96875 
Q 45.21875 46.96875 43.375 46.140625 
Q 41.546875 45.3125 40.125 42.96875 
Q 38.71875 40.625 37.90625 36.5 
Q 37.109375 32.375 37.109375 25.78125 
L 37.109375 24.65625 
Q 37.15625 19.390625 37.859375 15.71875 
Q 38.578125 12.0625 39.859375 9.78125 
Q 41.15625 7.515625 43.015625 6.515625 
Q 44.875 5.515625 47.265625 5.515625 
Q 49.859375 5.515625 51.609375 6.921875 
Q 53.375 8.34375 54.4375 11.03125 
Q 55.515625 13.71875 55.984375 17.59375 
Q 56.453125 21.484375 56.453125 26.46875 
z
" id="LiberationSansNarrow-1092"/>
       <path d="M 34.859375 0 
L 34.859375 46.4375 
L 19.875 46.4375 
Q 18.890625 37.453125 18.03125 30.4375 
Q 17.1875 23.4375 16.3125 18.15625 
Q 15.4375 12.890625 14.40625 9.25 
Q 13.375 5.609375 11.953125 3.34375 
Q 10.546875 1.078125 8.65625 0.046875 
Q 6.78125 -0.984375 4.203125 -0.984375 
Q 3.03125 -0.984375 2.078125 -0.78125 
Q 1.125 -0.59375 0.4375 -0.34375 
L 0.4375 5.953125 
Q 0.875 5.765625 1.625 5.640625 
Q 2.390625 5.515625 3.171875 5.515625 
Q 4.59375 5.515625 5.59375 6.53125 
Q 6.59375 7.5625 7.390625 9.859375 
Q 8.203125 12.15625 8.859375 15.796875 
Q 9.515625 19.4375 10.203125 24.703125 
Q 10.890625 29.984375 11.625 36.921875 
L 13.375 52.828125 
L 42.140625 52.828125 
L 42.140625 0 
z
" id="LiberationSansNarrow-1083"/>
      </defs>
      <use xlink:href="#LiberationSansNarrow-1056"/>
      <use x="51.3125" xlink:href="#LiberationSansNarrow-1072"/>
      <use x="95.792969" xlink:href="#LiberationSansNarrow-1079"/>
      <use x="133.341797" xlink:href="#LiberationSansNarrow-1084"/>
      <use x="189.738281" xlink:href="#LiberationSansNarrow-1077"/>
      <use x="235.34375" xlink:href="#LiberationSansNarrow-1088"/>
      <use x="280.949219" xlink:href="#LiberationSansNarrow-32"/>
      <use x="303.751953" xlink:href="#LiberationSansNarrow-1087"/>
      <use x="348.185547" xlink:href="#LiberationSansNarrow-1086"/>
      <use x="393.791016" xlink:href="#LiberationSansNarrow-1088"/>
      <use x="437.146484" xlink:href="#LiberationSansNarrow-1090"/>
      <use x="474.695312" xlink:href="#LiberationSansNarrow-1092"/>
      <use x="542.175781" xlink:href="#LiberationSansNarrow-1077"/>
      <use x="584.40625" xlink:href="#LiberationSansNarrow-1083"/>
      <use x="632.208984" xlink:href="#LiberationSansNarrow-1103"/>
     </g>
    </g>
   </g>
   <g id="line2d_13">
    <path clip-path="url(#p72c62c2e5c)" d="M 69.585 220.112675 
L 70.888343 218.454995 
L 72.191685 215.572215 
L 73.495028 213.260481 
L 74.79837 214.600745 
L 76.101713 216.240861 
L 77.405056 219.224135 
L 78.708398 221.419661 
L 80.011741 222.478331 
L 81.315084 223.301093 
L 82.618426 219.756318 
L 83.921769 222.478244 
L 85.225111 220.725626 
L 86.528454 221.275975 
L 87.831797 214.91372 
L 89.135139 212.913156 
L 90.438482 212.250288 
L 91.741825 210.604351 
L 93.045167 211.587744 
L 94.34851 209.126852 
L 95.651852 211.036752 
L 96.955195 211.828211 
L 98.258538 209.993292 
L 100.865223 202.411177 
L 102.168565 205.856932 
L 103.471908 206.488744 
L 107.381936 193.66347 
L 108.685279 191.275767 
L 109.988621 192.61155 
L 111.291964 188.753064 
L 112.595306 186.423705 
L 113.898649 188.404269 
L 115.201992 182.678765 
L 116.505334 180.103787 
L 117.808677 182.422314 
L 119.112019 182.277143 
L 120.415362 180.456798 
L 121.718705 179.121993 
L 123.022047 177.175165 
L 124.32539 177.683505 
L 125.628733 174.655896 
L 126.932075 168.073219 
L 128.235418 169.144856 
L 129.53876 166.288225 
L 130.842103 166.986274 
L 132.145446 165.987907 
L 133.448788 167.813392 
L 134.752131 170.543914 
L 136.055474 177.230725 
L 137.358816 175.457614 
L 138.662159 176.89538 
L 139.965501 173.115845 
L 141.268844 173.257364 
L 142.572187 174.844356 
L 143.875529 174.743056 
L 145.178872 176.413723 
L 146.482214 179.030378 
L 147.785557 179.815872 
L 149.0889 174.655508 
L 150.392242 172.17554 
L 151.695585 168.418824 
L 152.998928 172.246385 
L 154.30227 172.69205 
L 155.605613 171.501193 
L 156.908955 169.607248 
L 158.212298 166.884399 
L 160.818983 169.197502 
L 162.122326 174.472818 
L 163.425669 172.464645 
L 164.729011 174.629137 
L 166.032354 172.793283 
L 167.335696 174.169288 
L 168.639039 173.854752 
L 169.942382 171.32405 
L 171.245724 178.383523 
L 172.549067 177.652554 
L 173.852409 177.338105 
L 175.155752 183.425359 
L 176.459095 181.041557 
L 177.762437 175.597796 
L 180.369123 178.10836 
L 181.672465 177.031651 
L 182.975808 176.747651 
L 184.27915 177.932615 
L 185.582493 179.446404 
L 186.885836 177.926534 
L 188.189178 182.391676 
L 189.492521 182.570085 
L 190.795864 184.499332 
L 193.402549 182.708652 
L 194.705891 184.99849 
L 196.009234 179.844488 
L 197.312577 177.384193 
L 198.615919 179.199735 
L 199.919262 181.697651 
L 201.222604 180.298953 
L 202.525947 183.835881 
L 203.82929 183.950179 
L 205.132632 183.013292 
L 209.04266 177.542095 
L 210.346003 174.733203 
L 211.649345 173.543518 
L 212.952688 174.410825 
L 214.256031 173.830854 
L 215.559373 173.413977 
L 216.862716 175.243828 
L 218.166058 176.704227 
L 219.469401 176.556605 
L 220.772744 176.558338 
L 222.076086 176.83634 
L 223.379429 178.899536 
L 224.682772 180.2479 
L 225.986114 179.911704 
L 227.289457 178.40111 
L 228.592799 177.555375 
L 229.896142 174.797724 
L 231.199485 175.976339 
L 232.502827 174.100301 
L 233.80617 173.914935 
L 235.109513 173.224337 
L 236.412855 169.731091 
L 237.716198 166.720241 
L 239.01954 163.139428 
L 240.322883 153.69966 
L 241.626226 153.530847 
L 242.929568 157.190917 
L 244.232911 158.950536 
L 245.536253 156.990889 
L 246.839596 157.965079 
L 248.142939 159.972201 
L 249.446281 161.694404 
L 250.749624 160.085333 
L 252.052967 162.533217 
L 253.356309 159.446099 
L 254.659652 157.279356 
L 255.962994 158.654839 
L 257.266337 156.26796 
L 258.56968 155.920298 
L 259.873022 158.067252 
L 262.479708 154.267853 
L 263.78305 154.499674 
L 265.086393 155.703153 
L 266.389735 155.31977 
L 267.693078 155.914972 
L 268.996421 152.533804 
L 270.299763 148.568346 
L 271.603106 143.991037 
L 272.906448 136.563443 
L 274.209791 133.410381 
L 275.513134 132.851808 
L 276.816476 134.552646 
L 278.119819 125.510873 
L 279.423162 124.271295 
L 280.726504 128.906258 
L 282.029847 134.863971 
L 283.333189 123.596753 
L 284.636532 128.191452 
L 285.939875 126.518038 
L 287.243217 130.309808 
L 288.54656 130.314108 
L 289.849903 128.683214 
L 291.153245 124.821056 
L 292.456588 124.699541 
L 293.75993 127.466549 
L 295.063273 125.817158 
L 296.366616 130.539874 
L 297.669958 134.18871 
L 298.973301 137.022128 
L 300.276643 133.100678 
L 301.579986 143.07087 
L 302.883329 142.075392 
L 304.186671 140.640641 
L 306.793357 140.088128 
L 308.096699 138.309048 
L 309.400042 141.82977 
L 310.703384 143.978351 
L 312.006727 138.036645 
L 313.31007 137.745848 
L 314.613412 139.195398 
L 315.916755 146.178466 
L 317.220097 143.414516 
L 318.52344 141.436109 
L 321.130125 136.158012 
L 322.433468 135.032192 
L 323.736811 130.118415 
L 325.040153 131.913134 
L 326.343496 128.534756 
L 327.646838 127.333667 
L 328.950181 131.771118 
L 330.253524 135.229287 
L 331.556866 134.667825 
L 332.860209 139.375751 
L 334.163552 137.953917 
L 335.466894 135.295145 
L 336.770237 131.399962 
L 338.073579 137.71063 
L 339.376922 131.08861 
L 340.680265 128.518583 
L 341.983607 124.332482 
L 343.28695 121.463189 
L 344.590292 119.854233 
L 345.893635 118.829788 
L 347.196978 118.051129 
L 348.50032 117.44696 
L 349.803663 110.468496 
L 351.107006 106.524352 
L 352.410348 99.062511 
L 353.713691 100.355029 
L 355.017033 102.206179 
L 356.320376 96.843565 
L 357.623719 96.414588 
L 358.927061 90.162844 
L 360.230404 88.539424 
L 361.533747 91.300539 
L 362.837089 94.46773 
L 364.140432 89.854812 
L 365.443774 91.05686 
L 366.747117 93.521757 
L 368.05046 88.725812 
L 369.353802 80.922464 
L 370.657145 79.813913 
L 371.960487 79.360362 
L 373.26383 66.957853 
L 374.567173 74.19692 
L 375.870515 80.004283 
L 377.173858 83.666391 
L 378.477201 79.509885 
L 379.780543 78.390037 
L 381.083886 76.127128 
L 382.387228 86.296231 
L 383.690571 84.890977 
L 384.993914 84.146839 
L 387.600599 73.916041 
L 388.903942 75.782458 
L 390.207284 74.041927 
L 391.510627 75.076595 
L 392.813969 72.81431 
L 394.117312 74.324978 
L 395.420655 76.856254 
L 396.723997 70.901281 
L 398.02734 70.481355 
L 399.330682 62.799765 
L 400.634025 57.405191 
L 401.937368 54.391313 
L 403.24071 46.84826 
L 404.544053 56.371217 
L 405.847396 54.910972 
L 408.454081 43.203627 
L 409.757423 41.897552 
L 411.060766 47.544569 
L 412.364109 43.03375 
L 413.667451 43.482941 
L 414.970794 40.926464 
L 416.274136 36.892743 
L 417.577479 30.883161 
L 418.880822 31.303444 
L 420.184164 39.325353 
L 421.487507 36.048183 
L 422.79085 39.15702 
L 424.094192 26.5171 
L 425.397535 26.473943 
L 426.700877 25.092727 
L 428.00422 36.478406 
L 429.307563 33.794231 
L 430.610905 39.316621 
L 431.914248 36.552607 
L 433.217591 41.984315 
L 434.520933 55.823249 
L 435.824276 56.737047 
L 437.127618 53.825391 
L 439.734304 51.574866 
L 441.037646 65.127841 
L 442.340989 69.815097 
L 443.644331 72.644028 
L 444.947674 71.758724 
L 446.251017 67.195289 
L 447.554359 67.741364 
L 448.857702 72.247164 
L 450.161045 75.202308 
L 451.464387 71.906831 
L 452.76773 73.600876 
L 454.071072 72.720142 
L 455.374415 57.504833 
L 456.677758 60.398005 
L 457.9811 70.004984 
L 459.284443 76.271588 
L 460.587786 79.547784 
L 461.891128 71.806779 
L 463.194471 70.161026 
L 464.497813 73.276034 
L 465.801156 82.874904 
L 467.104499 88.187211 
L 468.407841 86.093568 
L 469.711184 86.897403 
L 471.014526 92.725667 
L 472.317869 92.315007 
L 473.621212 85.089215 
L 474.924554 74.779718 
L 476.227897 68.418887 
L 477.53124 69.410181 
L 478.834582 55.78375 
L 480.137925 60.464489 
L 484.047953 66.563038 
L 485.351295 58.076461 
L 486.654638 54.900747 
L 489.261323 46.463751 
L 490.564666 46.912758 
L 491.868008 35.822221 
L 493.171351 37.119975 
L 494.474694 46.462034 
L 495.778036 37.816466 
L 497.081379 42.205419 
L 498.384721 42.946529 
L 499.688064 46.616353 
L 500.991407 26.13491 
L 502.294749 37.286919 
L 503.598092 52.284282 
L 504.901435 48.732965 
L 506.204777 43.327494 
L 507.50812 42.254141 
L 508.811462 57.694881 
L 510.114805 51.415857 
L 511.418148 47.275241 
L 512.72149 39.548619 
L 514.024833 43.814784 
L 515.328175 56.845274 
L 516.631518 54.489854 
L 517.934861 55.027762 
L 519.238203 67.127553 
L 520.541546 57.637717 
L 521.844889 61.775692 
L 523.148231 68.367268 
L 524.451574 65.695913 
L 525.754916 57.120102 
L 527.058259 62.008566 
L 528.361602 70.247494 
L 529.664944 61.341038 
L 530.968287 64.910877 
L 532.27163 51.653556 
L 533.574972 55.723318 
L 534.878315 43.676368 
L 536.181657 26.787229 
L 537.485 31.796452 
L 537.485 31.796452 
" style="fill:none;stroke:#1f77b4;stroke-linecap:square;"/>
   </g>
   <g id="line2d_14">
    <path clip-path="url(#p72c62c2e5c)" d="M 69.585 220.343647 
L 70.888343 219.493387 
L 72.191685 216.710718 
L 73.495028 214.467603 
L 74.79837 215.93493 
L 76.101713 218.063467 
L 77.405056 221.501551 
L 78.708398 223.377621 
L 80.011741 224.384134 
L 81.315084 224.547273 
L 82.618426 221.114585 
L 83.921769 224.183622 
L 85.225111 222.334255 
L 86.528454 223.363403 
L 87.831797 217.541755 
L 89.135139 215.647881 
L 90.438482 215.573154 
L 91.741825 214.18277 
L 93.045167 215.328342 
L 94.34851 212.837192 
L 95.651852 214.716847 
L 96.955195 215.799429 
L 98.258538 213.703629 
L 99.56188 210.264334 
L 100.865223 206.229144 
L 102.168565 209.370135 
L 103.471908 209.630353 
L 104.775251 205.175938 
L 106.078593 201.210479 
L 108.685279 195.120493 
L 109.988621 196.16918 
L 111.291964 192.295049 
L 112.595306 189.150796 
L 113.898649 191.479033 
L 115.201992 186.805218 
L 116.505334 185.15871 
L 117.808677 186.399246 
L 119.112019 185.981243 
L 120.415362 184.145248 
L 121.718705 181.688524 
L 123.022047 179.612644 
L 124.32539 181.221487 
L 125.628733 178.636586 
L 126.932075 171.468499 
L 128.235418 172.922051 
L 129.53876 171.484681 
L 130.842103 171.532549 
L 132.145446 170.723432 
L 133.448788 173.040793 
L 134.752131 174.557439 
L 136.055474 181.009246 
L 137.358816 178.893782 
L 138.662159 179.416473 
L 139.965501 175.265312 
L 141.268844 174.784179 
L 142.572187 177.078508 
L 143.875529 177.831282 
L 145.178872 178.812981 
L 146.482214 182.307208 
L 147.785557 182.87822 
L 149.0889 177.784401 
L 151.695585 171.926124 
L 152.998928 174.545983 
L 154.30227 174.918543 
L 156.908955 173.457929 
L 158.212298 170.486886 
L 159.515641 173.385103 
L 160.818983 175.136043 
L 162.122326 179.036781 
L 163.425669 177.056718 
L 164.729011 178.956276 
L 166.032354 178.087617 
L 167.335696 178.925777 
L 168.639039 176.986912 
L 169.942382 173.832418 
L 171.245724 181.12907 
L 172.549067 179.212724 
L 173.852409 178.684315 
L 175.155752 184.47519 
L 176.459095 182.355597 
L 177.762437 177.472465 
L 179.06578 178.635898 
L 180.369123 178.678998 
L 181.672465 177.739213 
L 182.975808 177.432233 
L 184.27915 178.858708 
L 185.582493 179.542305 
L 186.885836 177.79732 
L 188.189178 181.596792 
L 189.492521 182.380045 
L 190.795864 184.238569 
L 192.099206 182.989674 
L 193.402549 181.980444 
L 194.705891 184.336872 
L 196.009234 178.744247 
L 197.312577 177.506263 
L 199.919262 182.563164 
L 201.222604 181.976038 
L 202.525947 185.137627 
L 203.82929 184.915897 
L 205.132632 184.328813 
L 206.435975 181.391128 
L 207.739318 179.304718 
L 210.346003 174.006075 
L 211.649345 172.027055 
L 212.952688 173.04481 
L 214.256031 172.238121 
L 215.559373 171.208214 
L 216.862716 173.063235 
L 218.166058 174.129536 
L 219.469401 173.324522 
L 220.772744 172.126541 
L 222.076086 171.597211 
L 223.379429 173.625795 
L 224.682772 174.780868 
L 225.986114 175.042379 
L 227.289457 172.816378 
L 228.592799 172.096209 
L 229.896142 169.152413 
L 231.199485 170.992911 
L 232.502827 169.286944 
L 233.80617 168.792676 
L 235.109513 166.915265 
L 239.01954 157.748513 
L 240.322883 147.802344 
L 241.626226 147.136521 
L 242.929568 151.247621 
L 244.232911 152.883327 
L 245.536253 150.171542 
L 246.839596 151.657649 
L 248.142939 153.662245 
L 249.446281 155.890276 
L 250.749624 153.817597 
L 252.052967 156.062547 
L 253.356309 153.508105 
L 254.659652 150.321007 
L 255.962994 152.138288 
L 257.266337 150.296212 
L 258.56968 150.839881 
L 259.873022 154.163995 
L 261.176365 153.430954 
L 262.479708 151.162726 
L 265.086393 151.589087 
L 266.389735 153.111502 
L 267.693078 153.423106 
L 268.996421 151.530707 
L 270.299763 149.267507 
L 271.603106 145.209359 
L 272.906448 139.155568 
L 274.209791 135.979425 
L 275.513134 134.57164 
L 276.816476 135.086896 
L 278.119819 125.456613 
L 279.423162 123.051543 
L 280.726504 128.080845 
L 282.029847 133.742916 
L 283.333189 123.047943 
L 284.636532 129.150689 
L 285.939875 128.203223 
L 287.243217 132.695781 
L 288.54656 133.012749 
L 289.849903 131.392568 
L 291.153245 127.125391 
L 292.456588 126.18375 
L 293.75993 129.39858 
L 295.063273 128.772928 
L 296.366616 133.601921 
L 297.669958 136.710932 
L 298.973301 139.291068 
L 300.276643 135.160849 
L 301.579986 144.828664 
L 302.883329 144.243826 
L 304.186671 140.567215 
L 305.490014 140.650236 
L 306.793357 139.301102 
L 308.096699 137.713594 
L 309.400042 140.04011 
L 310.703384 142.873011 
L 312.006727 135.921742 
L 313.31007 135.196028 
L 314.613412 136.127088 
L 315.916755 142.834292 
L 317.220097 138.953272 
L 318.52344 138.464349 
L 319.826783 135.175699 
L 321.130125 132.34422 
L 322.433468 133.75055 
L 323.736811 128.43658 
L 325.040153 128.753795 
L 326.343496 126.040613 
L 327.646838 125.580305 
L 328.950181 128.145502 
L 330.253524 131.504004 
L 331.556866 130.7471 
L 332.860209 134.941211 
L 334.163552 133.984983 
L 335.466894 130.027621 
L 336.770237 126.482032 
L 338.073579 133.092299 
L 339.376922 125.713522 
L 340.680265 123.035263 
L 341.983607 118.948074 
L 343.28695 117.456097 
L 344.590292 119.790818 
L 345.893635 118.302515 
L 347.196978 117.690722 
L 348.50032 118.611938 
L 349.803663 112.438607 
L 351.107006 107.785364 
L 352.410348 99.695777 
L 353.713691 101.782746 
L 355.017033 103.499086 
L 356.320376 95.654172 
L 357.623719 95.32022 
L 358.927061 85.623935 
L 360.230404 86.799388 
L 362.837089 92.737607 
L 364.140432 87.816319 
L 365.443774 88.972031 
L 366.747117 90.648876 
L 368.05046 85.994479 
L 369.353802 80.829291 
L 370.657145 79.746007 
L 371.960487 79.487599 
L 373.26383 68.384327 
L 374.567173 74.930997 
L 375.870515 80.216087 
L 377.173858 81.503721 
L 379.780543 77.556673 
L 381.083886 77.185322 
L 382.387228 86.789259 
L 383.690571 86.577249 
L 384.993914 83.441533 
L 386.297256 77.332129 
L 387.600599 72.411925 
L 388.903942 72.913358 
L 390.207284 74.381881 
L 391.510627 77.168595 
L 392.813969 75.230024 
L 394.117312 77.516313 
L 395.420655 77.09699 
L 396.723997 70.638121 
L 398.02734 69.873993 
L 399.330682 64.042871 
L 400.634025 56.840094 
L 401.937368 53.61535 
L 403.24071 46.753911 
L 404.544053 57.096261 
L 405.847396 55.705684 
L 407.150738 48.247951 
L 408.454081 43.11751 
L 409.757423 41.508272 
L 411.060766 46.042714 
L 412.364109 41.715589 
L 413.667451 41.295763 
L 414.970794 38.122485 
L 416.274136 31.933825 
L 417.577479 27.053178 
L 418.880822 28.870601 
L 420.184164 37.427505 
L 421.487507 35.310277 
L 422.79085 40.309667 
L 424.094192 30.515049 
L 425.397535 33.535069 
L 426.700877 31.072322 
L 428.00422 41.37652 
L 429.307563 39.692373 
L 430.610905 48.256379 
L 431.914248 48.431479 
L 433.217591 52.183035 
L 434.520933 64.85627 
L 435.824276 63.202626 
L 437.127618 60.949773 
L 438.430961 58.270893 
L 439.734304 58.872304 
L 441.037646 71.057974 
L 442.340989 75.610283 
L 443.644331 80.943698 
L 444.947674 82.005076 
L 446.251017 75.749033 
L 447.554359 74.697727 
L 448.857702 76.139139 
L 450.161045 79.271461 
L 451.464387 76.608544 
L 452.76773 76.743861 
L 454.071072 75.956809 
L 455.374415 62.119546 
L 456.677758 64.402619 
L 457.9811 74.098858 
L 459.284443 80.552609 
L 460.587786 84.514221 
L 461.891128 76.585893 
L 463.194471 74.411064 
L 464.497813 79.741989 
L 465.801156 89.997862 
L 467.104499 97.149293 
L 468.407841 95.20245 
L 469.711184 95.642594 
L 471.014526 99.469345 
L 472.317869 98.505156 
L 473.621212 91.00491 
L 474.924554 80.56591 
L 476.227897 73.059772 
L 477.53124 73.908758 
L 478.834582 61.497891 
L 481.441267 67.083019 
L 482.74461 67.802886 
L 484.047953 70.338649 
L 485.351295 62.668827 
L 487.957981 53.165345 
L 489.261323 51.208191 
L 490.564666 50.918036 
L 491.868008 43.896127 
L 493.171351 43.383013 
L 494.474694 51.949132 
L 495.778036 41.897611 
L 497.081379 45.004921 
L 498.384721 47.36133 
L 499.688064 49.318004 
L 500.991407 30.085278 
L 502.294749 42.584822 
L 503.598092 59.485616 
L 504.901435 58.668832 
L 506.204777 49.371079 
L 507.50812 49.014644 
L 508.811462 61.272703 
L 510.114805 56.521063 
L 511.418148 50.519818 
L 512.72149 42.136326 
L 514.024833 47.512912 
L 515.328175 58.508377 
L 516.631518 55.419972 
L 517.934861 56.601786 
L 519.238203 69.777705 
L 520.541546 60.552484 
L 521.844889 61.480259 
L 523.148231 68.960957 
L 524.451574 67.933317 
L 525.754916 61.768218 
L 527.058259 65.151247 
L 528.361602 73.311354 
L 529.664944 62.656158 
L 530.968287 64.453901 
L 532.27163 53.207487 
L 533.574972 55.887092 
L 534.878315 44.164014 
L 536.181657 28.340551 
L 537.485 31.796452 
L 537.485 31.796452 
" style="fill:none;stroke:#ff7f0e;stroke-linecap:square;"/>
   </g>
   <g id="line2d_15">
    <path clip-path="url(#p72c62c2e5c)" d="M 69.585 220.228277 
L 70.888343 218.976483 
L 72.191685 216.144095 
L 73.495028 213.866892 
L 74.79837 215.271397 
L 76.101713 217.159013 
L 77.405056 220.374134 
L 78.708398 222.407294 
L 80.011741 223.439586 
L 81.315084 223.927787 
L 82.618426 220.439473 
L 83.921769 223.337609 
L 85.225111 221.535691 
L 86.528454 222.32951 
L 87.831797 216.241764 
L 89.135139 214.295241 
L 90.438482 213.933333 
L 91.741825 212.418043 
L 93.045167 213.485238 
L 94.34851 211.007787 
L 95.651852 212.902886 
L 96.955195 213.844643 
L 98.258538 211.874564 
L 100.865223 204.344967 
L 102.168565 207.635523 
L 103.471908 208.077244 
L 106.078593 199.41183 
L 107.381936 195.874095 
L 108.685279 193.219977 
L 109.988621 194.409339 
L 111.291964 190.54203 
L 112.595306 187.79758 
L 113.898649 189.955105 
L 115.201992 184.76487 
L 116.505334 182.664822 
L 117.808677 184.431955 
L 119.112019 184.147507 
L 121.718705 180.413715 
L 123.022047 178.401377 
L 124.32539 179.468409 
L 125.628733 176.665827 
L 126.932075 169.784201 
L 128.235418 171.050161 
L 129.53876 168.917453 
L 130.842103 169.283221 
L 132.145446 168.381288 
L 134.752131 172.569812 
L 136.055474 179.138075 
L 137.358816 177.190369 
L 138.662159 178.163901 
L 139.965501 174.196154 
L 141.268844 174.02358 
L 142.572187 175.96756 
L 143.875529 176.298915 
L 145.178872 177.620535 
L 146.482214 180.682615 
L 147.785557 181.359202 
L 149.0889 176.232004 
L 150.392242 173.46545 
L 151.695585 170.186764 
L 152.998928 173.402517 
L 154.30227 173.811256 
L 155.605613 172.84047 
L 156.908955 171.550034 
L 158.212298 168.700513 
L 159.515641 170.751476 
L 160.818983 172.208519 
L 162.122326 176.780575 
L 163.425669 174.78627 
L 164.729011 176.815884 
L 166.032354 175.474691 
L 167.335696 176.575471 
L 168.639039 175.432812 
L 169.942382 172.58571 
L 171.245724 179.765909 
L 172.549067 178.435701 
L 173.852409 178.013481 
L 175.155752 183.951743 
L 176.459095 181.700824 
L 177.762437 176.539469 
L 179.06578 177.735909 
L 180.369123 178.394089 
L 181.672465 177.386055 
L 182.975808 177.090524 
L 184.27915 178.39674 
L 185.582493 179.494366 
L 186.885836 177.861948 
L 188.189178 181.995059 
L 189.492521 182.475112 
L 190.795864 184.369042 
L 193.402549 182.345243 
L 194.705891 184.668269 
L 196.009234 179.295904 
L 197.312577 177.445247 
L 198.615919 179.569655 
L 199.919262 182.131387 
L 201.222604 181.141133 
L 202.525947 184.489024 
L 203.82929 184.434287 
L 205.132632 183.673351 
L 206.435975 181.317329 
L 207.739318 179.344001 
L 209.04266 177.13802 
L 210.346003 174.370278 
L 211.649345 172.788024 
L 212.952688 173.730059 
L 215.559373 172.316862 
L 216.862716 174.159267 
L 218.166058 175.424977 
L 220.772744 174.366176 
L 222.076086 174.24991 
L 223.379429 176.296915 
L 224.682772 177.551651 
L 225.986114 177.506593 
L 227.289457 175.646907 
L 228.592799 174.861981 
L 229.896142 172.012725 
L 231.199485 173.514393 
L 232.502827 171.720923 
L 233.80617 171.384625 
L 235.109513 170.116003 
L 237.716198 163.769117 
L 239.01954 160.474934 
L 240.322883 150.785228 
L 241.626226 150.373792 
L 242.929568 154.255007 
L 244.232911 155.954695 
L 245.536253 153.628026 
L 246.839596 154.85181 
L 249.446281 158.827734 
L 250.749624 156.992111 
L 252.052967 159.342061 
L 254.659652 153.849006 
L 255.962994 155.439943 
L 257.266337 153.317895 
L 258.56968 153.406026 
L 259.873022 156.131277 
L 261.176365 154.802662 
L 262.479708 152.724926 
L 263.78305 152.972404 
L 265.086393 153.663164 
L 267.693078 154.675344 
L 268.996421 152.033255 
L 270.299763 148.918401 
L 271.603106 144.601591 
L 272.906448 137.865508 
L 274.209791 134.700669 
L 275.513134 133.71429 
L 276.816476 134.82002 
L 278.119819 125.483745 
L 279.423162 123.662625 
L 280.726504 128.494122 
L 282.029847 134.304538 
L 283.333189 123.322592 
L 284.636532 128.671842 
L 285.939875 127.36299 
L 287.243217 131.507659 
L 288.54656 131.669659 
L 289.849903 130.044102 
L 291.153245 125.977596 
L 292.456588 125.443453 
L 293.75993 128.435689 
L 295.063273 127.3023 
L 296.366616 132.078941 
L 297.669958 135.455408 
L 298.973301 138.161207 
L 300.276643 134.134457 
L 301.579986 143.952653 
L 302.883329 143.163975 
L 304.186671 140.603933 
L 305.490014 140.512766 
L 306.793357 139.695176 
L 308.096699 138.011638 
L 309.400042 140.937866 
L 310.703384 143.426818 
L 312.006727 136.983164 
L 313.31007 136.476689 
L 314.613412 137.669642 
L 315.916755 144.516868 
L 317.220097 141.202107 
L 318.52344 139.958238 
L 321.130125 134.263783 
L 322.433468 134.392803 
L 323.736811 129.279878 
L 325.040153 130.341927 
L 326.343496 127.292852 
L 327.646838 126.459525 
L 330.253524 133.378658 
L 331.556866 132.720708 
L 332.860209 137.175962 
L 334.163552 135.983336 
L 335.466894 132.685284 
L 336.770237 128.96131 
L 338.073579 135.420191 
L 339.376922 128.425244 
L 340.680265 125.80165 
L 341.983607 121.663489 
L 343.28695 119.472321 
L 344.590292 119.822528 
L 345.893635 118.56637 
L 347.196978 117.871027 
L 348.50032 118.030511 
L 349.803663 111.456468 
L 351.107006 107.156023 
L 352.410348 99.379425 
L 355.017033 102.853827 
L 356.320376 96.249842 
L 357.623719 95.868227 
L 358.927061 87.906952 
L 360.230404 87.671397 
L 361.533747 90.480369 
L 362.837089 93.6047 
L 364.140432 88.838315 
L 365.443774 90.017339 
L 366.747117 92.090872 
L 368.05046 87.365043 
L 369.353802 80.875883 
L 370.657145 79.779963 
L 371.960487 79.42399 
L 373.26383 67.672301 
L 374.567173 74.56429 
L 375.870515 80.110214 
L 377.173858 82.588051 
L 378.477201 79.525248 
L 379.780543 77.973789 
L 381.083886 76.656921 
L 382.387228 86.542904 
L 383.690571 85.735964 
L 384.993914 83.794507 
L 386.297256 78.16654 
L 387.600599 73.165365 
L 388.903942 74.352966 
L 390.207284 74.211975 
L 391.510627 76.125307 
L 392.813969 74.025747 
L 394.117312 75.926952 
L 395.420655 76.976658 
L 396.723997 70.769743 
L 398.02734 70.177896 
L 400.634025 57.122823 
L 401.937368 54.003668 
L 403.24071 46.80109 
L 404.544053 56.734036 
L 405.847396 55.308683 
L 407.150738 48.5508 
L 408.454081 43.160573 
L 409.757423 41.702992 
L 411.060766 46.794862 
L 412.364109 42.375592 
L 413.667451 42.391892 
L 414.970794 39.528599 
L 417.577479 28.975539 
L 418.880822 30.090009 
L 420.184164 38.37831 
L 421.487507 35.679511 
L 422.79085 39.734041 
L 424.094192 28.52409 
L 425.397535 30.02966 
L 426.700877 28.100424 
L 428.00422 38.940019 
L 429.307563 36.761343 
L 430.610905 43.829196 
L 431.914248 42.567019 
L 433.217591 47.14004 
L 434.520933 60.386671 
L 435.824276 59.993828 
L 437.127618 57.416371 
L 438.430961 55.510455 
L 439.734304 55.253496 
L 441.037646 68.113872 
L 442.340989 72.733162 
L 443.644331 76.836708 
L 444.947674 76.947233 
L 446.251017 71.516495 
L 447.554359 71.248831 
L 450.161045 77.247205 
L 451.464387 74.271265 
L 452.76773 75.178463 
L 454.071072 74.344912 
L 455.374415 59.824403 
L 456.677758 62.409619 
L 457.9811 72.062104 
L 459.284443 78.42359 
L 460.587786 82.046753 
L 461.891128 74.21036 
L 463.194471 72.297032 
L 464.497813 76.534978 
L 465.801156 86.46953 
L 467.104499 92.722495 
L 468.407841 90.703439 
L 469.711184 91.321261 
L 471.014526 96.128797 
L 472.317869 95.436347 
L 473.621212 88.070119 
L 474.924554 77.693729 
L 476.227897 70.752333 
L 477.53124 71.671742 
L 478.834582 58.659446 
L 480.137925 62.40778 
L 481.441267 64.794005 
L 482.74461 66.114324 
L 484.047953 68.459356 
L 485.351295 60.38477 
L 486.654638 56.452881 
L 487.957981 51.84885 
L 489.261323 48.848261 
L 490.564666 48.924159 
L 491.868008 39.893424 
L 493.171351 40.272137 
L 494.474694 49.222048 
L 495.778036 39.865789 
L 497.081379 43.609354 
L 498.384721 45.164403 
L 499.688064 47.971148 
L 500.991407 28.117907 
L 502.294749 39.950622 
L 503.598092 55.914164 
L 504.901435 53.755975 
L 506.204777 46.369015 
L 507.50812 45.659003 
L 508.811462 59.491122 
L 511.418148 48.903279 
L 512.72149 40.846005 
L 514.024833 45.671213 
L 515.328175 57.678397 
L 516.631518 54.955398 
L 517.934861 55.816169 
L 519.238203 68.456823 
L 520.541546 59.099957 
L 521.844889 61.628026 
L 523.148231 68.664323 
L 524.451574 66.817581 
L 525.754916 59.456529 
L 527.058259 63.58567 
L 528.361602 71.78512 
L 529.664944 61.9996 
L 530.968287 64.682512 
L 532.27163 52.431861 
L 533.574972 55.80522 
L 534.878315 43.920318 
L 536.181657 27.565095 
L 537.485 31.796452 
L 537.485 31.796452 
" style="fill:none;stroke:#2ca02c;stroke-linecap:square;"/>
   </g>
   <g id="legend_1">
    <g id="patch_3">
     <path d="M 54.3534 74.556112 
L 109.911897 74.556112 
Q 112.244297 74.556112 112.244297 72.223712 
L 112.244297 23.2834 
Q 112.244297 20.951 109.911897 20.951 
L 54.3534 20.951 
Q 52.021 20.951 52.021 23.2834 
L 52.021 72.223712 
Q 52.021 74.556112 54.3534 74.556112 
z
" style="fill:#ffffff;opacity:0.8;stroke:#cccccc;stroke-linejoin:miter;"/>
    </g>
    <g id="line2d_16">
     <path d="M 56.6858 29.985406 
L 80.0098 29.985406 
" style="fill:none;stroke:#1f77b4;stroke-linecap:square;"/>
    </g>
    <g id="line2d_17"/>
    <g id="text_15">
     <!-- А -->
     <g transform="translate(89.3394 34.067106)scale(0.11662 -0.11662)">
      <defs>
       <path d="M 46.734375 0 
L 40.28125 20.125 
L 14.546875 20.125 
L 8.109375 0 
L 0.140625 0 
L 23.1875 68.796875 
L 31.890625 68.796875 
L 54.546875 0 
z
M 30.765625 50.09375 
Q 30.125 52.046875 29.546875 54.046875 
L 28.515625 57.71875 
L 27.734375 60.453125 
Q 27.4375 61.53125 27.4375 61.765625 
Q 27.34375 61.53125 27.078125 60.40625 
Q 26.8125 59.28125 26.375 57.625 
L 25.296875 53.953125 
L 24.125 50 
L 16.890625 27.390625 
L 37.984375 27.390625 
z
" id="LiberationSansNarrow-1040"/>
      </defs>
      <use xlink:href="#LiberationSansNarrow-1040"/>
     </g>
    </g>
    <g id="line2d_18">
     <path d="M 56.6858 46.687576 
L 80.0098 46.687576 
" style="fill:none;stroke:#ff7f0e;stroke-linecap:square;"/>
    </g>
    <g id="line2d_19"/>
    <g id="text_16">
     <!-- Б -->
     <g transform="translate(89.3394 50.769276)scale(0.11662 -0.11662)">
      <defs>
       <path d="M 49.5625 20.171875 
Q 49.5625 15.921875 48.34375 12.25 
Q 47.125 8.59375 44.703125 5.859375 
Q 42.28125 3.125 38.640625 1.5625 
Q 35.015625 0 30.125 0 
L 6.734375 0 
L 6.734375 68.796875 
L 43.796875 68.796875 
L 43.796875 61.1875 
L 14.359375 61.1875 
L 14.359375 39.703125 
L 29.6875 39.703125 
Q 34.671875 39.703125 38.40625 38.28125 
Q 42.140625 36.859375 44.609375 34.296875 
Q 47.078125 31.734375 48.3125 28.140625 
Q 49.5625 24.5625 49.5625 20.171875 
z
M 41.890625 20.0625 
Q 41.890625 25.984375 38.59375 29.125 
Q 35.296875 32.28125 28.765625 32.28125 
L 14.359375 32.28125 
L 14.359375 7.375 
L 29.046875 7.375 
Q 35.59375 7.375 38.734375 10.6875 
Q 41.890625 14.015625 41.890625 20.0625 
z
" id="LiberationSansNarrow-1041"/>
      </defs>
      <use xlink:href="#LiberationSansNarrow-1041"/>
     </g>
    </g>
    <g id="line2d_20">
     <path d="M 56.6858 63.389747 
L 80.0098 63.389747 
" style="fill:none;stroke:#2ca02c;stroke-linecap:square;"/>
    </g>
    <g id="line2d_21"/>
    <g id="text_17">
     <!-- А+Б -->
     <g transform="translate(89.3394 67.471447)scale(0.11662 -0.11662)">
      <defs>
       <path d="M 26.859375 29.6875 
L 26.859375 8.796875 
L 21 8.796875 
L 21 29.6875 
L 4 29.6875 
L 4 36.8125 
L 21 36.8125 
L 21 57.71875 
L 26.859375 57.71875 
L 26.859375 36.8125 
L 43.84375 36.8125 
L 43.84375 29.6875 
z
" id="LiberationSansNarrow-43"/>
      </defs>
      <use xlink:href="#LiberationSansNarrow-1040"/>
      <use x="54.6875" xlink:href="#LiberationSansNarrow-43"/>
      <use x="102.587891" xlink:href="#LiberationSansNarrow-1041"/>
     </g>
    </g>
   </g>
  </g>
 </g>
 <defs>
  <clipPath id="p72c62c2e5c">
   <rect height="219.4" width="514.69" x="46.19" y="15.12"/>
  </clipPath>
 </defs>
</svg>
