<?xml version="1.0" encoding="utf-8" standalone="no"?>
<!DOCTYPE svg PUBLIC "-//W3C//DTD SVG 1.1//EN"
  "http://www.w3.org/Graphics/SVG/1.1/DTD/svg11.dtd">
<!-- Created with matplotlib (https://matplotlib.org/) -->
<svg height="288pt" version="1.1" viewBox="0 0 576 288" width="576pt" xmlns="http://www.w3.org/2000/svg" xmlns:xlink="http://www.w3.org/1999/xlink">
 <metadata>
  <rdf:RDF xmlns:cc="http://creativecommons.org/ns#" xmlns:dc="http://purl.org/dc/elements/1.1/" xmlns:rdf="http://www.w3.org/1999/02/22-rdf-syntax-ns#">
   <cc:Work>
    <dc:type rdf:resource="http://purl.org/dc/dcmitype/StillImage"/>
    <dc:date>2021-08-21T16:12:00.489502</dc:date>
    <dc:format>image/svg+xml</dc:format>
    <dc:creator>
     <cc:Agent>
      <dc:title>Matplotlib v3.3.4, https://matplotlib.org/</dc:title>
     </cc:Agent>
    </dc:creator>
   </cc:Work>
  </rdf:RDF>
 </metadata>
 <defs>
  <style type="text/css">*{stroke-linecap:butt;stroke-linejoin:round;}</style>
 </defs>
 <g id="figure_1">
  <g id="patch_1">
   <path d="M 0 288 
L 576 288 
L 576 0 
L 0 0 
z
" style="fill:#ffffff;"/>
  </g>
  <g id="axes_1">
   <g id="patch_2">
    <path d="M 46.19 234.52 
L 560.88 234.52 
L 560.88 20.116174 
L 46.19 20.116174 
z
" style="fill:#ffffff;"/>
   </g>
   <g id="matplotlib.axis_1">
    <g id="xtick_1">
     <g id="line2d_1">
      <path clip-path="url(#p456bb5000b)" d="M 69.585 234.52 
L 69.585 20.116174 
" style="fill:none;stroke:#b0b0b0;stroke-dasharray:1.48,0.64;stroke-dashoffset:0;stroke-width:0.4;"/>
     </g>
     <g id="text_1">
      <!-- 0 -->
      <g transform="translate(66.392344 251.665625)scale(0.14 -0.14)">
       <defs>
        <path d="M 42.390625 34.421875 
Q 42.390625 24.515625 40.84375 17.75 
Q 39.3125 10.984375 36.640625 6.8125 
Q 33.984375 2.640625 30.390625 0.828125 
Q 26.8125 -0.984375 22.703125 -0.984375 
Q 18.609375 -0.984375 15.03125 0.828125 
Q 11.46875 2.640625 8.828125 6.78125 
Q 6.203125 10.9375 4.703125 17.703125 
Q 3.21875 24.46875 3.21875 34.421875 
Q 3.21875 44.828125 4.703125 51.640625 
Q 6.203125 58.453125 8.828125 62.5 
Q 11.46875 66.546875 15.078125 68.1875 
Q 18.703125 69.828125 22.953125 69.828125 
Q 27 69.828125 30.53125 68.1875 
Q 34.078125 66.546875 36.71875 62.5 
Q 39.359375 58.453125 40.875 51.640625 
Q 42.390625 44.828125 42.390625 34.421875 
z
M 35.0625 34.421875 
Q 35.0625 42.625 34.28125 48.0625 
Q 33.5 53.515625 31.9375 56.765625 
Q 30.375 60.015625 28.09375 61.359375 
Q 25.828125 62.703125 22.953125 62.703125 
Q 19.921875 62.703125 17.578125 61.328125 
Q 15.234375 59.96875 13.671875 56.71875 
Q 12.109375 53.46875 11.296875 48.015625 
Q 10.5 42.578125 10.5 34.421875 
Q 10.5 26.515625 11.296875 21.09375 
Q 12.109375 15.671875 13.6875 12.375 
Q 15.28125 9.078125 17.578125 7.640625 
Q 19.875 6.203125 22.796875 6.203125 
Q 25.640625 6.203125 27.90625 7.640625 
Q 30.171875 9.078125 31.75 12.375 
Q 33.34375 15.671875 34.203125 21.09375 
Q 35.0625 26.515625 35.0625 34.421875 
z
" id="LiberationSansNarrow-48"/>
       </defs>
       <use xlink:href="#LiberationSansNarrow-48"/>
      </g>
     </g>
    </g>
    <g id="xtick_2">
     <g id="line2d_2">
      <path clip-path="url(#p456bb5000b)" d="M 134.752131 234.52 
L 134.752131 20.116174 
" style="fill:none;stroke:#b0b0b0;stroke-dasharray:1.48,0.64;stroke-dashoffset:0;stroke-width:0.4;"/>
     </g>
     <g id="text_2">
      <!-- 50 -->
      <g transform="translate(128.366818 251.665625)scale(0.14 -0.14)">
       <defs>
        <path d="M 42.140625 22.40625 
Q 42.140625 17.234375 40.859375 12.9375 
Q 39.59375 8.640625 37.078125 5.53125 
Q 34.578125 2.4375 30.8125 0.71875 
Q 27.046875 -0.984375 22.125 -0.984375 
Q 17.671875 -0.984375 14.375 0.28125 
Q 11.078125 1.5625 8.8125 3.78125 
Q 6.546875 6 5.203125 8.984375 
Q 3.859375 11.96875 3.265625 15.375 
L 10.546875 16.40625 
Q 10.984375 14.453125 11.78125 12.625 
Q 12.59375 10.796875 13.984375 9.34375 
Q 15.375 7.90625 17.40625 7.046875 
Q 19.4375 6.203125 22.3125 6.203125 
Q 25.09375 6.203125 27.390625 7.25 
Q 29.6875 8.296875 31.296875 10.34375 
Q 32.90625 12.40625 33.78125 15.375 
Q 34.671875 18.359375 34.671875 22.21875 
Q 34.671875 25.390625 33.84375 28.046875 
Q 33.015625 30.71875 31.453125 32.640625 
Q 29.890625 34.578125 27.609375 35.640625 
Q 25.34375 36.71875 22.46875 36.71875 
Q 20.65625 36.71875 19.140625 36.328125 
Q 17.625 35.9375 16.328125 35.25 
Q 15.046875 34.578125 13.96875 33.671875 
Q 12.890625 32.765625 11.96875 31.78125 
L 4.9375 31.78125 
L 6.78125 68.796875 
L 38.875 68.796875 
L 38.875 61.328125 
L 13.375 61.328125 
L 12.3125 39.5 
Q 14.203125 41.3125 17.078125 42.59375 
Q 19.96875 43.890625 23.921875 43.890625 
Q 28.125 43.890625 31.484375 42.328125 
Q 34.859375 40.765625 37.21875 37.90625 
Q 39.59375 35.0625 40.859375 31.109375 
Q 42.140625 27.15625 42.140625 22.40625 
z
" id="LiberationSansNarrow-53"/>
       </defs>
       <use xlink:href="#LiberationSansNarrow-53"/>
       <use x="45.605469" xlink:href="#LiberationSansNarrow-48"/>
      </g>
     </g>
    </g>
    <g id="xtick_3">
     <g id="line2d_3">
      <path clip-path="url(#p456bb5000b)" d="M 199.919262 234.52 
L 199.919262 20.116174 
" style="fill:none;stroke:#b0b0b0;stroke-dasharray:1.48,0.64;stroke-dashoffset:0;stroke-width:0.4;"/>
     </g>
     <g id="text_3">
      <!-- 100 -->
      <g transform="translate(190.341293 251.665625)scale(0.14 -0.14)">
       <defs>
        <path d="M 6.25 0 
L 6.25 7.46875 
L 20.609375 7.46875 
L 20.609375 60.40625 
L 7.90625 49.3125 
L 7.90625 57.625 
L 21.234375 68.796875 
L 27.875 68.796875 
L 27.875 7.46875 
L 41.609375 7.46875 
L 41.609375 0 
z
" id="LiberationSansNarrow-49"/>
       </defs>
       <use xlink:href="#LiberationSansNarrow-49"/>
       <use x="45.605469" xlink:href="#LiberationSansNarrow-48"/>
       <use x="91.210938" xlink:href="#LiberationSansNarrow-48"/>
      </g>
     </g>
    </g>
    <g id="xtick_4">
     <g id="line2d_4">
      <path clip-path="url(#p456bb5000b)" d="M 265.086393 234.52 
L 265.086393 20.116174 
" style="fill:none;stroke:#b0b0b0;stroke-dasharray:1.48,0.64;stroke-dashoffset:0;stroke-width:0.4;"/>
     </g>
     <g id="text_4">
      <!-- 150 -->
      <g transform="translate(255.508424 251.665625)scale(0.14 -0.14)">
       <use xlink:href="#LiberationSansNarrow-49"/>
       <use x="45.605469" xlink:href="#LiberationSansNarrow-53"/>
       <use x="91.210938" xlink:href="#LiberationSansNarrow-48"/>
      </g>
     </g>
    </g>
    <g id="xtick_5">
     <g id="line2d_5">
      <path clip-path="url(#p456bb5000b)" d="M 330.253524 234.52 
L 330.253524 20.116174 
" style="fill:none;stroke:#b0b0b0;stroke-dasharray:1.48,0.64;stroke-dashoffset:0;stroke-width:0.4;"/>
     </g>
     <g id="text_5">
      <!-- 200 -->
      <g transform="translate(320.675555 251.665625)scale(0.14 -0.14)">
       <defs>
        <path d="M 4.109375 0 
L 4.109375 6.203125 
Q 6.15625 11.921875 9.109375 16.28125 
Q 12.0625 20.65625 15.3125 24.1875 
Q 18.5625 27.734375 21.734375 30.765625 
Q 24.90625 33.796875 27.46875 36.8125 
Q 30.03125 39.84375 31.609375 43.15625 
Q 33.203125 46.484375 33.203125 50.6875 
Q 33.203125 53.609375 32.46875 55.828125 
Q 31.734375 58.0625 30.390625 59.5625 
Q 29.046875 61.078125 27.140625 61.828125 
Q 25.25 62.59375 22.90625 62.59375 
Q 20.75 62.59375 18.84375 61.859375 
Q 16.9375 61.140625 15.453125 59.671875 
Q 13.96875 58.203125 13.03125 56.03125 
Q 12.109375 53.859375 11.8125 50.984375 
L 4.4375 51.8125 
Q 4.78125 55.515625 6.125 58.78125 
Q 7.46875 62.0625 9.78125 64.53125 
Q 12.109375 67 15.359375 68.40625 
Q 18.609375 69.828125 22.90625 69.828125 
Q 27.09375 69.828125 30.390625 68.609375 
Q 33.6875 67.390625 35.9375 64.984375 
Q 38.1875 62.59375 39.40625 59.078125 
Q 40.625 55.5625 40.625 50.984375 
Q 40.625 47.515625 39.59375 44.390625 
Q 38.578125 41.265625 36.859375 38.421875 
Q 35.15625 35.59375 32.90625 32.953125 
Q 30.671875 30.328125 28.21875 27.828125 
L 23.296875 22.859375 
Q 20.796875 20.359375 18.625 17.859375 
Q 16.453125 15.375 14.734375 12.8125 
Q 13.03125 10.25 12.0625 7.46875 
L 41.5 7.46875 
L 41.5 0 
z
" id="LiberationSansNarrow-50"/>
       </defs>
       <use xlink:href="#LiberationSansNarrow-50"/>
       <use x="45.605469" xlink:href="#LiberationSansNarrow-48"/>
       <use x="91.210938" xlink:href="#LiberationSansNarrow-48"/>
      </g>
     </g>
    </g>
    <g id="xtick_6">
     <g id="line2d_6">
      <path clip-path="url(#p456bb5000b)" d="M 395.420655 234.52 
L 395.420655 20.116174 
" style="fill:none;stroke:#b0b0b0;stroke-dasharray:1.48,0.64;stroke-dashoffset:0;stroke-width:0.4;"/>
     </g>
     <g id="text_6">
      <!-- 250 -->
      <g transform="translate(385.842686 251.665625)scale(0.14 -0.14)">
       <use xlink:href="#LiberationSansNarrow-50"/>
       <use x="45.605469" xlink:href="#LiberationSansNarrow-53"/>
       <use x="91.210938" xlink:href="#LiberationSansNarrow-48"/>
      </g>
     </g>
    </g>
    <g id="xtick_7">
     <g id="line2d_7">
      <path clip-path="url(#p456bb5000b)" d="M 460.587786 234.52 
L 460.587786 20.116174 
" style="fill:none;stroke:#b0b0b0;stroke-dasharray:1.48,0.64;stroke-dashoffset:0;stroke-width:0.4;"/>
     </g>
     <g id="text_7">
      <!-- 300 -->
      <g transform="translate(451.009817 251.665625)scale(0.14 -0.14)">
       <defs>
        <path d="M 42 19 
Q 42 14.265625 40.75 10.546875 
Q 39.5 6.84375 37.0625 4.265625 
Q 34.625 1.703125 31.046875 0.359375 
Q 27.484375 -0.984375 22.859375 -0.984375 
Q 17.625 -0.984375 14.03125 0.609375 
Q 10.453125 2.203125 8.125 4.8125 
Q 5.8125 7.421875 4.640625 10.765625 
Q 3.46875 14.109375 3.125 17.671875 
L 10.546875 18.5 
Q 10.890625 15.765625 11.734375 13.515625 
Q 12.59375 11.28125 14.078125 9.671875 
Q 15.578125 8.0625 17.75 7.171875 
Q 19.921875 6.296875 22.859375 6.296875 
Q 28.328125 6.296875 31.421875 9.5625 
Q 34.515625 12.84375 34.515625 19.28125 
Q 34.515625 23.09375 33.125 25.40625 
Q 31.734375 27.734375 29.6875 29.03125 
Q 27.640625 30.328125 25.21875 30.765625 
Q 22.796875 31.203125 20.75 31.203125 
L 16.65625 31.203125 
L 16.65625 38.8125 
L 20.5625 38.8125 
Q 22.609375 38.8125 24.828125 39.328125 
Q 27.046875 39.84375 28.859375 41.1875 
Q 30.671875 42.53125 31.859375 44.828125 
Q 33.0625 47.125 33.0625 50.6875 
Q 33.0625 56.203125 30.375 59.390625 
Q 27.6875 62.59375 22.46875 62.59375 
Q 17.671875 62.59375 14.734375 59.609375 
Q 11.8125 56.640625 11.328125 51.21875 
L 4.109375 51.90625 
Q 4.546875 56.453125 6.125 59.8125 
Q 7.71875 63.1875 10.171875 65.40625 
Q 12.640625 67.625 15.8125 68.71875 
Q 19 69.828125 22.5625 69.828125 
Q 27.296875 69.828125 30.6875 68.375 
Q 34.078125 66.9375 36.21875 64.46875 
Q 38.375 62.015625 39.40625 58.6875 
Q 40.4375 55.375 40.4375 51.609375 
Q 40.4375 48.578125 39.75 45.9375 
Q 39.0625 43.3125 37.625 41.203125 
Q 36.1875 39.109375 33.953125 37.59375 
Q 31.734375 36.078125 28.609375 35.296875 
L 28.609375 35.109375 
Q 32.03125 34.671875 34.546875 33.21875 
Q 37.0625 31.78125 38.71875 29.625 
Q 40.375 27.484375 41.1875 24.75 
Q 42 22.015625 42 19 
z
" id="LiberationSansNarrow-51"/>
       </defs>
       <use xlink:href="#LiberationSansNarrow-51"/>
       <use x="45.605469" xlink:href="#LiberationSansNarrow-48"/>
       <use x="91.210938" xlink:href="#LiberationSansNarrow-48"/>
      </g>
     </g>
    </g>
    <g id="xtick_8">
     <g id="line2d_8">
      <path clip-path="url(#p456bb5000b)" d="M 525.754916 234.52 
L 525.754916 20.116174 
" style="fill:none;stroke:#b0b0b0;stroke-dasharray:1.48,0.64;stroke-dashoffset:0;stroke-width:0.4;"/>
     </g>
     <g id="text_8">
      <!-- 350 -->
      <g transform="translate(516.176948 251.665625)scale(0.14 -0.14)">
       <use xlink:href="#LiberationSansNarrow-51"/>
       <use x="45.605469" xlink:href="#LiberationSansNarrow-53"/>
       <use x="91.210938" xlink:href="#LiberationSansNarrow-48"/>
      </g>
     </g>
    </g>
    <g id="text_9">
     <!-- Месяцы -->
     <g transform="translate(281.943281 268.71625)scale(0.14 -0.14)">
      <defs>
       <path d="M 54.6875 0 
L 54.6875 45.90625 
Q 54.6875 48.390625 54.734375 50.96875 
Q 54.78125 53.5625 54.828125 55.71875 
Q 54.9375 58.203125 55.078125 60.546875 
Q 54.546875 58.0625 53.90625 55.609375 
Q 53.90625 55.609375 52.734375 51.171875 
Q 52.15625 48.78125 51.515625 46.875 
L 36.96875 0 
L 31.59375 0 
L 16.796875 46.875 
Q 16.546875 47.609375 16.3125 48.578125 
L 15.765625 50.6875 
L 15.140625 52.9375 
L 14.546875 55.171875 
Q 13.875 57.765625 13.234375 60.546875 
Q 13.28125 57.8125 13.375 55.125 
Q 13.484375 52.828125 13.5 50.3125 
Q 13.53125 47.796875 13.53125 45.90625 
L 13.53125 0 
L 6.734375 0 
L 6.734375 68.796875 
L 16.796875 68.796875 
L 31.78125 21.09375 
Q 32.078125 20.125 32.46875 18.578125 
Q 32.859375 17.046875 33.21875 15.421875 
Q 33.59375 13.8125 33.890625 12.375 
Q 34.1875 10.9375 34.328125 10.15625 
Q 34.421875 10.9375 34.734375 12.40625 
Q 35.0625 13.875 35.5 15.484375 
L 36.328125 18.609375 
Q 36.71875 20.125 37.0625 21.09375 
L 51.765625 68.796875 
L 61.578125 68.796875 
L 61.578125 0 
z
" id="LiberationSansNarrow-1052"/>
       <path d="M 10.6875 24.5625 
Q 10.6875 20.40625 11.5625 16.90625 
Q 12.453125 13.421875 13.90625 10.90625 
Q 15.375 8.40625 17.640625 7 
Q 19.921875 5.609375 23.140625 5.609375 
Q 27.828125 5.609375 30.65625 7.90625 
Q 33.5 10.203125 34.46875 13.71875 
L 40.828125 11.53125 
Q 40.140625 9.328125 38.921875 7.109375 
Q 37.703125 4.890625 35.640625 3.09375 
Q 33.59375 1.3125 30.53125 0.15625 
Q 27.484375 -0.984375 23.140625 -0.984375 
Q 13.53125 -0.984375 8.5 6 
Q 3.46875 12.984375 3.46875 26.765625 
Q 3.46875 34.1875 5 39.328125 
Q 6.546875 44.484375 9.171875 47.703125 
Q 11.8125 50.921875 15.328125 52.359375 
Q 18.84375 53.8125 22.859375 53.8125 
Q 28.328125 53.8125 31.984375 51.65625 
Q 39.0625 47.515625 41.015625 36.8125 
Q 41.9375 31.6875 41.9375 25.734375 
L 41.9375 24.5625 
z
M 34.71875 31.296875 
Q 34.71875 40.140625 31.421875 43.71875 
Q 28.125 47.3125 22.75 47.3125 
Q 18.953125 47.3125 15.328125 44.09375 
Q 10.9375 40.328125 10.6875 31.296875 
z
" id="LiberationSansNarrow-1077"/>
       <path d="M 11.03125 26.65625 
Q 11.03125 22.125 11.5625 18.3125 
Q 12.109375 14.5 13.375 11.734375 
Q 14.65625 8.984375 16.75 7.46875 
Q 18.84375 5.953125 21.96875 5.953125 
Q 25.828125 5.953125 28.390625 8.484375 
Q 30.953125 11.03125 31.546875 16.3125 
L 38.875 15.71875 
Q 38.53125 12.453125 37.296875 9.421875 
Q 36.078125 6.390625 34.03125 4.09375 
Q 31.984375 1.8125 29 0.40625 
Q 26.03125 -0.984375 22.171875 -0.984375 
Q 17.09375 -0.984375 13.5 1.109375 
Q 9.90625 3.21875 7.6875 6.90625 
Q 5.46875 10.59375 4.46875 15.59375 
Q 3.46875 20.609375 3.46875 26.46875 
Q 3.46875 31.78125 4.203125 35.859375 
Q 4.9375 39.9375 6.21875 42.984375 
Q 7.515625 46.046875 9.265625 48.125 
Q 11.03125 50.203125 13.109375 51.4375 
Q 15.1875 52.6875 17.453125 53.25 
Q 19.734375 53.8125 22.078125 53.8125 
Q 25.734375 53.8125 28.5625 52.59375 
Q 31.390625 51.375 33.46875 49.25 
Q 35.546875 47.125 36.8125 44.234375 
Q 38.09375 41.359375 38.625 38.03125 
L 31.203125 37.359375 
Q 30.671875 41.75 28.375 44.328125 
Q 26.078125 46.921875 21.875 46.921875 
Q 18.796875 46.921875 16.71875 45.671875 
Q 14.65625 44.4375 13.375 41.921875 
Q 12.109375 39.40625 11.5625 35.59375 
Q 11.03125 31.78125 11.03125 26.65625 
z
" id="LiberationSansNarrow-1089"/>
       <path d="M 21.4375 22.359375 
L 8.84375 0 
L 0.6875 0 
L 14.453125 23 
Q 9.234375 24.3125 6.859375 28.296875 
Q 4.5 32.28125 4.5 38.234375 
Q 4.5 45.515625 8.8125 49.171875 
Q 13.140625 52.828125 21.4375 52.828125 
L 38.71875 52.828125 
L 38.71875 0 
L 31.546875 0 
L 31.546875 22.359375 
z
M 31.546875 46.625 
L 22.171875 46.625 
Q 16.9375 46.625 14.546875 44.375 
Q 12.15625 42.140625 12.15625 37.59375 
Q 12.15625 33.015625 14.28125 30.734375 
Q 16.40625 28.46875 21.390625 28.46875 
L 31.546875 28.46875 
z
" id="LiberationSansNarrow-1103"/>
       <path d="M 12.890625 52.828125 
L 12.890625 6.390625 
L 31.984375 6.390625 
L 31.984375 52.828125 
L 39.203125 52.828125 
L 39.203125 6.390625 
L 45.0625 6.390625 
L 45.0625 -19.921875 
L 38.578125 -19.921875 
L 38.578125 0 
L 5.671875 0 
L 5.671875 52.828125 
z
" id="LiberationSansNarrow-1094"/>
       <path d="M 22.796875 30.46875 
Q 31.296875 30.46875 35.640625 26.875 
Q 39.984375 23.296875 39.984375 15.53125 
Q 39.984375 11.921875 38.90625 9.03125 
Q 37.84375 6.15625 35.671875 4.15625 
Q 33.5 2.15625 30.296875 1.078125 
Q 27.09375 0 22.859375 0 
L 5.859375 0 
L 5.859375 52.828125 
L 13.328125 52.828125 
L 13.328125 30.46875 
z
M 13.328125 6.203125 
L 21.734375 6.203125 
Q 24.609375 6.203125 26.578125 6.8125 
Q 28.5625 7.421875 29.78125 8.609375 
Q 31 9.8125 31.53125 11.546875 
Q 32.078125 13.28125 32.078125 15.53125 
Q 32.078125 20.125 29.65625 22.234375 
Q 27.25 24.359375 21.734375 24.359375 
L 13.328125 24.359375 
z
M 47.65625 0 
L 47.65625 52.828125 
L 55.125 52.828125 
L 55.125 0 
z
" id="LiberationSansNarrow-1099"/>
      </defs>
      <use xlink:href="#LiberationSansNarrow-1052"/>
      <use x="69.435547" xlink:href="#LiberationSansNarrow-1077"/>
      <use x="115.041016" xlink:href="#LiberationSansNarrow-1089"/>
      <use x="156.056641" xlink:href="#LiberationSansNarrow-1103"/>
      <use x="200.490234" xlink:href="#LiberationSansNarrow-1094"/>
      <use x="247.462891" xlink:href="#LiberationSansNarrow-1099"/>
     </g>
    </g>
   </g>
   <g id="matplotlib.axis_2">
    <g id="ytick_1">
     <g id="line2d_9">
      <path clip-path="url(#p456bb5000b)" d="M 46.19 194.889999 
L 560.88 194.889999 
" style="fill:none;stroke:#b0b0b0;stroke-dasharray:1.48,0.64;stroke-dashoffset:0;stroke-width:0.4;"/>
     </g>
     <g id="text_10">
      <!-- 1 -->
      <g transform="translate(32.804688 199.962812)scale(0.14 -0.14)">
       <use xlink:href="#LiberationSansNarrow-49"/>
      </g>
     </g>
    </g>
    <g id="ytick_2">
     <g id="line2d_10">
      <path clip-path="url(#p456bb5000b)" d="M 46.19 136.762201 
L 560.88 136.762201 
" style="fill:none;stroke:#b0b0b0;stroke-dasharray:1.48,0.64;stroke-dashoffset:0;stroke-width:0.4;"/>
     </g>
     <g id="text_11">
      <!-- 2 -->
      <g transform="translate(32.804688 141.835013)scale(0.14 -0.14)">
       <use xlink:href="#LiberationSansNarrow-50"/>
      </g>
     </g>
    </g>
    <g id="ytick_3">
     <g id="line2d_11">
      <path clip-path="url(#p456bb5000b)" d="M 46.19 78.634403 
L 560.88 78.634403 
" style="fill:none;stroke:#b0b0b0;stroke-dasharray:1.48,0.64;stroke-dashoffset:0;stroke-width:0.4;"/>
     </g>
     <g id="text_12">
      <!-- 4 -->
      <g transform="translate(32.804688 83.707215)scale(0.14 -0.14)">
       <defs>
        <path d="M 35.25 15.578125 
L 35.25 0 
L 28.46875 0 
L 28.46875 15.578125 
L 1.90625 15.578125 
L 1.90625 22.40625 
L 27.6875 68.796875 
L 35.25 68.796875 
L 35.25 22.515625 
L 43.21875 22.515625 
L 43.21875 15.578125 
z
M 28.46875 58.890625 
Q 28.375 58.640625 28.03125 57.90625 
L 27.34375 56.34375 
L 26.5625 54.59375 
Q 26.125 53.65625 25.78125 53.078125 
L 11.328125 27.09375 
Q 11.140625 26.703125 10.75 26.078125 
L 9.96875 24.8125 
L 9.1875 23.484375 
Q 8.796875 22.859375 8.546875 22.515625 
L 28.46875 22.515625 
z
" id="LiberationSansNarrow-52"/>
       </defs>
       <use xlink:href="#LiberationSansNarrow-52"/>
      </g>
     </g>
    </g>
    <g id="ytick_4">
     <g id="line2d_12">
      <path clip-path="url(#p456bb5000b)" d="M 46.19 20.506604 
L 560.88 20.506604 
" style="fill:none;stroke:#b0b0b0;stroke-dasharray:1.48,0.64;stroke-dashoffset:0;stroke-width:0.4;"/>
     </g>
     <g id="text_13">
      <!-- 8 -->
      <g transform="translate(32.804688 25.579417)scale(0.14 -0.14)">
       <defs>
        <path d="M 42.046875 19.1875 
Q 42.046875 14.796875 40.890625 11.109375 
Q 39.75 7.421875 37.40625 4.734375 
Q 35.0625 2.046875 31.421875 0.53125 
Q 27.78125 -0.984375 22.796875 -0.984375 
Q 17.828125 -0.984375 14.203125 0.53125 
Q 10.59375 2.046875 8.21875 4.703125 
Q 5.859375 7.375 4.703125 11.0625 
Q 3.5625 14.75 3.5625 19.09375 
Q 3.5625 22.859375 4.515625 25.78125 
Q 5.46875 28.71875 7.03125 30.828125 
Q 8.59375 32.953125 10.609375 34.25 
Q 12.640625 35.546875 14.796875 35.984375 
L 14.796875 36.1875 
Q 12.453125 36.859375 10.59375 38.375 
Q 8.734375 39.890625 7.46875 42.015625 
Q 6.203125 44.140625 5.546875 46.71875 
Q 4.890625 49.3125 4.890625 52.203125 
Q 4.890625 55.8125 6.03125 59 
Q 7.171875 62.203125 9.421875 64.625 
Q 11.671875 67.046875 14.984375 68.4375 
Q 18.3125 69.828125 22.65625 69.828125 
Q 27.25 69.828125 30.640625 68.40625 
Q 34.03125 67 36.25 64.578125 
Q 38.484375 62.15625 39.546875 58.9375 
Q 40.625 55.71875 40.625 52.09375 
Q 40.625 49.265625 39.96875 46.671875 
Q 39.3125 44.09375 38.0625 41.96875 
Q 36.8125 39.84375 34.9375 38.34375 
Q 33.0625 36.859375 30.609375 36.28125 
L 30.609375 36.078125 
Q 33.0625 35.59375 35.15625 34.296875 
Q 37.25 33.015625 38.765625 30.890625 
Q 40.28125 28.765625 41.15625 25.828125 
Q 42.046875 22.90625 42.046875 19.1875 
z
M 33.15625 51.609375 
Q 33.15625 54.203125 32.609375 56.34375 
Q 32.078125 58.5 30.828125 60.03125 
Q 29.59375 61.578125 27.59375 62.421875 
Q 25.59375 63.28125 22.65625 63.28125 
Q 19.828125 63.28125 17.875 62.421875 
Q 15.921875 61.578125 14.640625 60.03125 
Q 13.375 58.5 12.8125 56.34375 
Q 12.25 54.203125 12.25 51.609375 
Q 12.25 49.5625 12.6875 47.40625 
Q 13.140625 45.265625 14.3125 43.5 
Q 15.484375 41.75 17.5 40.625 
Q 19.53125 39.5 22.75 39.5 
Q 26.171875 39.5 28.21875 40.625 
Q 30.28125 41.75 31.375 43.5 
Q 32.46875 45.265625 32.8125 47.40625 
Q 33.15625 49.5625 33.15625 51.609375 
z
M 34.578125 20.015625 
Q 34.578125 22.515625 34.015625 24.828125 
Q 33.453125 27.15625 32.078125 28.9375 
Q 30.71875 30.71875 28.421875 31.8125 
Q 26.125 32.90625 22.65625 32.90625 
Q 19.484375 32.90625 17.265625 31.8125 
Q 15.046875 30.71875 13.671875 28.90625 
Q 12.3125 27.09375 11.671875 24.71875 
Q 11.03125 22.359375 11.03125 19.828125 
Q 11.03125 16.65625 11.671875 14.03125 
Q 12.3125 11.421875 13.703125 9.546875 
Q 15.09375 7.671875 17.375 6.640625 
Q 19.671875 5.609375 22.90625 5.609375 
Q 26.171875 5.609375 28.421875 6.640625 
Q 30.671875 7.671875 32.03125 9.546875 
Q 33.40625 11.421875 33.984375 14.078125 
Q 34.578125 16.75 34.578125 20.015625 
z
" id="LiberationSansNarrow-56"/>
       </defs>
       <use xlink:href="#LiberationSansNarrow-56"/>
      </g>
     </g>
    </g>
    <g id="text_14">
     <!-- Размер портфеля -->
     <g transform="translate(25.899688 174.684025)rotate(-90)scale(0.14 -0.14)">
      <defs>
       <path d="M 50.34375 48.09375 
Q 50.34375 43.609375 49.125 39.71875 
Q 47.90625 35.84375 45.484375 32.984375 
Q 43.0625 30.125 39.421875 28.46875 
Q 35.796875 26.8125 30.953125 26.8125 
L 14.359375 26.8125 
L 14.359375 0 
L 6.734375 0 
L 6.734375 68.796875 
L 30.46875 68.796875 
Q 35.453125 68.796875 39.1875 67.3125 
Q 42.921875 65.828125 45.40625 63.109375 
Q 47.90625 60.40625 49.125 56.5625 
Q 50.34375 52.734375 50.34375 48.09375 
z
M 42.671875 48 
Q 42.671875 54.546875 39.40625 57.9375 
Q 36.140625 61.328125 29.546875 61.328125 
L 14.359375 61.328125 
L 14.359375 34.1875 
L 29.890625 34.1875 
Q 36.46875 34.1875 39.5625 37.75 
Q 42.671875 41.3125 42.671875 48 
z
" id="LiberationSansNarrow-1056"/>
       <path d="M 16.546875 -0.984375 
Q 10.015625 -0.984375 6.734375 3.21875 
Q 3.46875 7.421875 3.46875 14.75 
Q 3.46875 19.96875 5.09375 23.3125 
Q 6.734375 26.65625 9.34375 28.5625 
Q 11.96875 30.46875 15.328125 31.203125 
Q 18.703125 31.9375 22.171875 32.03125 
L 31.9375 32.234375 
L 31.9375 35.109375 
Q 31.9375 38.375 31.375 40.671875 
Q 30.8125 42.96875 29.640625 44.375 
Q 28.46875 45.796875 26.734375 46.453125 
Q 25 47.125 22.609375 47.125 
Q 20.515625 47.125 18.84375 46.75 
Q 17.1875 46.390625 15.9375 45.4375 
Q 14.703125 44.484375 13.9375 42.84375 
Q 13.1875 41.21875 12.9375 38.71875 
L 5.421875 39.546875 
Q 5.8125 42.671875 6.9375 45.28125 
Q 8.0625 47.90625 10.109375 49.796875 
Q 12.15625 51.703125 15.25 52.75 
Q 18.359375 53.8125 22.796875 53.8125 
Q 30.953125 53.8125 35.078125 49.234375 
Q 39.203125 44.671875 39.203125 36.03125 
L 39.203125 13.28125 
Q 39.203125 9.375 40.03125 7.390625 
Q 40.875 5.421875 43.265625 5.421875 
Q 43.84375 5.421875 44.453125 5.515625 
Q 45.0625 5.609375 45.609375 5.765625 
L 45.609375 0.296875 
Q 44.234375 -0.09375 42.890625 -0.28125 
Q 41.546875 -0.484375 40.046875 -0.484375 
Q 37.984375 -0.484375 36.515625 0.171875 
Q 35.0625 0.828125 34.15625 2.171875 
Q 33.25 3.515625 32.765625 5.484375 
Q 32.28125 7.46875 32.125 10.109375 
L 31.9375 10.109375 
Q 30.765625 7.5625 29.375 5.515625 
Q 27.984375 3.46875 26.140625 2.03125 
Q 24.3125 0.59375 21.9375 -0.1875 
Q 19.578125 -0.984375 16.546875 -0.984375 
z
M 18.21875 5.609375 
Q 21.6875 5.609375 24.25 7.140625 
Q 26.8125 8.6875 28.515625 11.078125 
Q 30.21875 13.484375 31.078125 16.3125 
Q 31.9375 19.140625 31.9375 21.734375 
L 31.9375 26.078125 
L 24.03125 25.875 
Q 21.390625 25.828125 19 25.40625 
Q 16.609375 25 14.8125 23.78125 
Q 13.03125 22.5625 11.953125 20.359375 
Q 10.890625 18.171875 10.890625 14.59375 
Q 10.890625 10.296875 12.796875 7.953125 
Q 14.703125 5.609375 18.21875 5.609375 
z
" id="LiberationSansNarrow-1072"/>
       <path d="M 18.3125 -0.984375 
Q 11.625 -0.984375 7.6875 2.0625 
Q 3.765625 5.125 1.953125 11.421875 
L 8.296875 13.578125 
Q 9.28125 9.765625 11.8125 7.65625 
Q 14.359375 5.5625 18.453125 5.5625 
Q 22.3125 5.5625 24.578125 7.859375 
Q 26.859375 10.15625 26.859375 14.59375 
Q 26.859375 17.484375 25.734375 19.390625 
Q 24.609375 21.296875 22.78125 22.390625 
Q 20.953125 23.484375 18.546875 23.921875 
Q 16.15625 24.359375 13.578125 24.359375 
L 13.578125 31.0625 
Q 16.109375 31.0625 18.40625 31.421875 
Q 20.703125 31.78125 22.4375 32.703125 
Q 24.171875 33.640625 25.140625 35.28125 
Q 26.125 36.921875 26.125 39.453125 
Q 26.125 43.0625 24.140625 45.15625 
Q 22.171875 47.265625 18.453125 47.265625 
Q 17.046875 47.265625 15.65625 46.921875 
Q 14.265625 46.578125 13.03125 45.765625 
Q 11.8125 44.96875 10.984375 43.625 
Q 10.15625 42.28125 9.859375 40.234375 
L 3.421875 41.21875 
Q 3.90625 44.53125 5.125 46.921875 
Q 6.34375 49.3125 8.296875 50.84375 
Q 10.25 52.390625 12.78125 53.09375 
Q 15.328125 53.8125 18.453125 53.8125 
Q 21.875 53.8125 24.625 52.78125 
Q 27.390625 51.765625 29.34375 49.90625 
Q 31.296875 48.046875 32.375 45.5 
Q 33.453125 42.96875 33.453125 39.890625 
Q 33.453125 37.109375 32.5625 34.953125 
Q 31.6875 32.8125 30.25 31.3125 
Q 28.8125 29.828125 27.046875 28.953125 
Q 25.296875 28.078125 23.53125 27.875 
L 23.53125 27.78125 
Q 25.78125 27.484375 27.75 26.484375 
Q 29.734375 25.484375 31.25 23.84375 
Q 32.765625 22.21875 33.609375 19.9375 
Q 34.46875 17.671875 34.46875 14.84375 
Q 34.46875 11.46875 33.484375 8.5625 
Q 32.515625 5.671875 30.484375 3.546875 
Q 28.46875 1.421875 25.4375 0.21875 
Q 22.40625 -0.984375 18.3125 -0.984375 
z
" id="LiberationSansNarrow-1079"/>
       <path d="M 31.546875 0 
L 25.390625 0 
L 12.40625 46.4375 
Q 12.453125 45.171875 12.515625 43.703125 
Q 12.59375 42.234375 12.59375 40.75 
Q 12.59375 39.265625 12.609375 37.859375 
Q 12.640625 36.46875 12.640625 35.359375 
L 12.640625 0 
L 5.671875 0 
L 5.671875 52.828125 
L 16.890625 52.828125 
L 25.734375 20.5625 
Q 26.65625 17.484375 27.390625 13.796875 
Q 28.125 10.109375 28.421875 6.59375 
Q 28.8125 10.109375 29.515625 13.796875 
Q 30.21875 17.484375 31.15625 20.5625 
L 39.984375 52.828125 
L 50.734375 52.828125 
L 50.734375 0 
L 43.796875 0 
L 43.796875 35.359375 
Q 43.796875 36.421875 43.8125 37.890625 
Q 43.84375 39.359375 43.921875 40.921875 
Q 44 42.484375 44.015625 43.9375 
Q 44.046875 45.40625 44.140625 46.53125 
z
" id="LiberationSansNarrow-1084"/>
       <path d="M 42.140625 26.65625 
Q 42.140625 20.65625 41.359375 15.578125 
Q 40.578125 10.5 38.6875 6.828125 
Q 36.8125 3.171875 33.765625 1.09375 
Q 30.71875 -0.984375 26.21875 -0.984375 
Q 21.578125 -0.984375 18.078125 1.171875 
Q 14.59375 3.328125 12.796875 8.203125 
L 12.546875 8.203125 
Q 12.59375 8.109375 12.609375 7.328125 
Q 12.640625 6.546875 12.671875 5.375 
Q 12.703125 4.203125 12.71875 2.75 
Q 12.75 1.3125 12.75 -0.09375 
L 12.75 -20.75 
L 5.515625 -20.75 
L 5.515625 42.046875 
Q 5.515625 43.953125 5.484375 45.703125 
Q 5.46875 47.46875 5.4375 48.90625 
Q 5.421875 50.34375 5.375 51.359375 
Q 5.328125 52.390625 5.28125 52.828125 
L 12.25 52.828125 
Q 12.3125 52.6875 12.359375 51.8125 
L 12.5 49.703125 
Q 12.546875 48.4375 12.59375 47.015625 
Q 12.640625 45.609375 12.640625 44.34375 
L 12.796875 44.34375 
Q 13.765625 46.875 15.0625 48.65625 
Q 16.359375 50.4375 18.015625 51.578125 
Q 19.671875 52.734375 21.671875 53.25 
Q 23.6875 53.765625 26.21875 53.765625 
Q 30.71875 53.765625 33.765625 51.8125 
Q 36.8125 49.859375 38.6875 46.3125 
Q 40.578125 42.78125 41.359375 37.765625 
Q 42.140625 32.765625 42.140625 26.65625 
z
M 34.578125 26.46875 
Q 34.578125 31.34375 34.109375 35.15625 
Q 33.640625 38.96875 32.4375 41.59375 
Q 31.25 44.234375 29.296875 45.59375 
Q 27.34375 46.96875 24.359375 46.96875 
Q 21.96875 46.96875 19.84375 46.140625 
Q 17.71875 45.3125 16.125 42.96875 
Q 14.546875 40.625 13.640625 36.5 
Q 12.75 32.375 12.75 25.78125 
Q 12.75 20.171875 13.5 16.28125 
Q 14.265625 12.40625 15.71875 10.015625 
Q 17.1875 7.625 19.328125 6.5625 
Q 21.484375 5.515625 24.3125 5.515625 
Q 27.34375 5.515625 29.296875 6.921875 
Q 31.25 8.34375 32.4375 11.03125 
Q 33.640625 13.71875 34.109375 17.59375 
Q 34.578125 21.484375 34.578125 26.46875 
z
" id="LiberationSansNarrow-1088"/>
       <path id="LiberationSansNarrow-32"/>
       <path d="M 38.71875 52.828125 
L 38.71875 0 
L 31.546875 0 
L 31.546875 46.4375 
L 12.890625 46.4375 
L 12.890625 0 
L 5.71875 0 
L 5.71875 52.828125 
z
" id="LiberationSansNarrow-1087"/>
       <path d="M 42.140625 26.46875 
Q 42.140625 12.59375 37.125 5.796875 
Q 32.125 -0.984375 22.609375 -0.984375 
Q 18.0625 -0.984375 14.515625 0.671875 
Q 10.984375 2.34375 8.515625 5.765625 
Q 6.0625 9.1875 4.765625 14.328125 
Q 3.46875 19.484375 3.46875 26.46875 
Q 3.46875 53.8125 22.859375 53.8125 
Q 27.875 53.8125 31.5625 52.09375 
Q 35.25 50.390625 37.59375 46.96875 
Q 39.9375 43.5625 41.03125 38.421875 
Q 42.140625 33.296875 42.140625 26.46875 
z
M 34.578125 26.46875 
Q 34.578125 32.625 33.8125 36.625 
Q 33.0625 40.625 31.546875 43.015625 
Q 30.03125 45.40625 27.859375 46.359375 
Q 25.6875 47.3125 23 47.3125 
Q 20.21875 47.3125 17.984375 46.3125 
Q 15.765625 45.3125 14.203125 42.890625 
Q 12.640625 40.484375 11.828125 36.46875 
Q 11.03125 32.46875 11.03125 26.46875 
Q 11.03125 20.3125 11.90625 16.28125 
Q 12.796875 12.25 14.328125 9.859375 
Q 15.875 7.46875 17.96875 6.484375 
Q 20.0625 5.515625 22.5625 5.515625 
Q 25.34375 5.515625 27.5625 6.46875 
Q 29.78125 7.421875 31.34375 9.8125 
Q 32.90625 12.203125 33.734375 16.25 
Q 34.578125 20.3125 34.578125 26.46875 
z
" id="LiberationSansNarrow-1086"/>
       <path d="M 1.421875 52.828125 
L 36.140625 52.828125 
L 36.140625 46.4375 
L 22.359375 46.4375 
L 22.359375 0 
L 15.1875 0 
L 15.1875 46.4375 
L 1.421875 46.4375 
z
" id="LiberationSansNarrow-1090"/>
       <path d="M 64.015625 26.65625 
Q 64.015625 20.65625 63.234375 15.578125 
Q 62.453125 10.5 60.734375 6.828125 
Q 59.03125 3.171875 56.21875 1.09375 
Q 53.421875 -0.984375 49.359375 -0.984375 
Q 45.171875 -0.984375 42.015625 1.171875 
Q 38.875 3.328125 37.15625 8.203125 
L 36.921875 8.203125 
Q 37.015625 6.5 37.0625 4.609375 
Q 37.109375 2.734375 37.109375 -0.09375 
L 37.109375 -20.75 
L 30.328125 -20.75 
L 30.328125 -0.09375 
Q 30.328125 2.546875 30.375 4.546875 
Q 30.421875 6.546875 30.515625 8.5 
L 30.328125 8.5 
Q 28.46875 3.421875 25.484375 1.21875 
Q 22.515625 -0.984375 18.0625 -0.984375 
Q 10.59375 -0.984375 7.03125 5.734375 
Q 3.46875 12.453125 3.46875 26.171875 
Q 3.46875 40.046875 7.15625 46.921875 
Q 10.84375 53.8125 18.0625 53.8125 
Q 22.5625 53.8125 25.53125 51.609375 
Q 28.515625 49.421875 30.328125 44.625 
L 30.515625 44.625 
Q 30.515625 45.125 30.46875 46.125 
Q 30.421875 47.125 30.375 48.25 
L 30.375 50.390625 
Q 30.328125 51.421875 30.328125 52 
L 30.328125 72.46875 
L 37.109375 72.46875 
L 37.109375 51.953125 
Q 37.109375 51.421875 37.078125 50.359375 
Q 37.0625 49.3125 37.0625 48.15625 
Q 37.0625 47.015625 37.03125 45.96875 
Q 37.015625 44.921875 37.015625 44.34375 
L 37.203125 44.34375 
Q 39.0625 49.421875 41.9375 51.59375 
Q 44.828125 53.765625 49.359375 53.765625 
Q 53.421875 53.765625 56.21875 51.8125 
Q 59.03125 49.859375 60.734375 46.3125 
Q 62.453125 42.78125 63.234375 37.765625 
Q 64.015625 32.765625 64.015625 26.65625 
z
M 11.03125 26.46875 
Q 11.03125 21 11.546875 17.09375 
Q 12.0625 13.1875 13.1875 10.671875 
Q 14.3125 8.15625 16.015625 6.984375 
Q 17.71875 5.8125 20.125 5.8125 
Q 22.515625 5.8125 24.390625 6.859375 
Q 26.265625 7.90625 27.5625 10.296875 
Q 28.859375 12.703125 29.53125 16.53125 
Q 30.21875 20.359375 30.328125 25.875 
L 30.328125 27.046875 
Q 30.328125 32.671875 29.640625 36.546875 
Q 28.953125 40.4375 27.65625 42.828125 
Q 26.375 45.21875 24.484375 46.265625 
Q 22.609375 47.3125 20.171875 47.3125 
Q 17.875 47.3125 16.15625 46.1875 
Q 14.453125 45.0625 13.296875 42.578125 
Q 12.15625 40.09375 11.59375 36.109375 
Q 11.03125 32.125 11.03125 26.46875 
z
M 56.453125 26.46875 
Q 56.453125 31.34375 55.984375 35.15625 
Q 55.515625 38.96875 54.46875 41.59375 
Q 53.421875 44.234375 51.65625 45.59375 
Q 49.90625 46.96875 47.3125 46.96875 
Q 45.21875 46.96875 43.375 46.140625 
Q 41.546875 45.3125 40.125 42.96875 
Q 38.71875 40.625 37.90625 36.5 
Q 37.109375 32.375 37.109375 25.78125 
L 37.109375 24.65625 
Q 37.15625 19.390625 37.859375 15.71875 
Q 38.578125 12.0625 39.859375 9.78125 
Q 41.15625 7.515625 43.015625 6.515625 
Q 44.875 5.515625 47.265625 5.515625 
Q 49.859375 5.515625 51.609375 6.921875 
Q 53.375 8.34375 54.4375 11.03125 
Q 55.515625 13.71875 55.984375 17.59375 
Q 56.453125 21.484375 56.453125 26.46875 
z
" id="LiberationSansNarrow-1092"/>
       <path d="M 34.859375 0 
L 34.859375 46.4375 
L 19.875 46.4375 
Q 18.890625 37.453125 18.03125 30.4375 
Q 17.1875 23.4375 16.3125 18.15625 
Q 15.4375 12.890625 14.40625 9.25 
Q 13.375 5.609375 11.953125 3.34375 
Q 10.546875 1.078125 8.65625 0.046875 
Q 6.78125 -0.984375 4.203125 -0.984375 
Q 3.03125 -0.984375 2.078125 -0.78125 
Q 1.125 -0.59375 0.4375 -0.34375 
L 0.4375 5.953125 
Q 0.875 5.765625 1.625 5.640625 
Q 2.390625 5.515625 3.171875 5.515625 
Q 4.59375 5.515625 5.59375 6.53125 
Q 6.59375 7.5625 7.390625 9.859375 
Q 8.203125 12.15625 8.859375 15.796875 
Q 9.515625 19.4375 10.203125 24.703125 
Q 10.890625 29.984375 11.625 36.921875 
L 13.375 52.828125 
L 42.140625 52.828125 
L 42.140625 0 
z
" id="LiberationSansNarrow-1083"/>
      </defs>
      <use xlink:href="#LiberationSansNarrow-1056"/>
      <use x="51.3125" xlink:href="#LiberationSansNarrow-1072"/>
      <use x="95.792969" xlink:href="#LiberationSansNarrow-1079"/>
      <use x="133.341797" xlink:href="#LiberationSansNarrow-1084"/>
      <use x="189.738281" xlink:href="#LiberationSansNarrow-1077"/>
      <use x="235.34375" xlink:href="#LiberationSansNarrow-1088"/>
      <use x="280.949219" xlink:href="#LiberationSansNarrow-32"/>
      <use x="303.751953" xlink:href="#LiberationSansNarrow-1087"/>
      <use x="348.185547" xlink:href="#LiberationSansNarrow-1086"/>
      <use x="393.791016" xlink:href="#LiberationSansNarrow-1088"/>
      <use x="437.146484" xlink:href="#LiberationSansNarrow-1090"/>
      <use x="474.695312" xlink:href="#LiberationSansNarrow-1092"/>
      <use x="542.175781" xlink:href="#LiberationSansNarrow-1077"/>
      <use x="584.40625" xlink:href="#LiberationSansNarrow-1083"/>
      <use x="632.208984" xlink:href="#LiberationSansNarrow-1103"/>
     </g>
    </g>
   </g>
   <g id="line2d_13">
    <path clip-path="url(#p456bb5000b)" d="M 69.585 199.770171 
L 70.888343 203.430578 
L 72.191685 200.721452 
L 73.495028 199.093382 
L 74.79837 203.068467 
L 76.101713 203.89984 
L 77.405056 199.950525 
L 78.708398 194.582127 
L 80.011741 192.573717 
L 81.315084 194.342136 
L 82.618426 195.66562 
L 83.921769 197.749006 
L 86.528454 199.894698 
L 87.831797 198.027802 
L 89.135139 198.346801 
L 90.438482 199.095082 
L 91.741825 194.25376 
L 93.045167 191.217163 
L 94.34851 189.868101 
L 95.651852 191.373218 
L 96.955195 190.214189 
L 98.258538 190.043326 
L 99.56188 195.258958 
L 100.865223 194.230253 
L 102.168565 189.809222 
L 103.471908 190.618614 
L 104.775251 194.571431 
L 106.078593 194.112759 
L 107.381936 191.574736 
L 108.685279 188.327475 
L 109.988621 185.432781 
L 111.291964 186.594907 
L 112.595306 185.768386 
L 113.898649 179.95417 
L 115.201992 176.887821 
L 117.808677 182.281474 
L 119.112019 182.934199 
L 120.415362 182.893538 
L 121.718705 185.473207 
L 123.022047 185.407717 
L 124.32539 184.129334 
L 125.628733 182.507519 
L 126.932075 176.718959 
L 129.53876 180.887062 
L 130.842103 181.239818 
L 132.145446 184.95536 
L 133.448788 179.542547 
L 134.752131 172.395616 
L 136.055474 171.187414 
L 137.358816 172.705351 
L 138.662159 177.300325 
L 139.965501 182.307565 
L 141.268844 183.418065 
L 142.572187 182.728801 
L 143.875529 185.771554 
L 145.178872 183.575145 
L 146.482214 180.752038 
L 147.785557 180.853017 
L 149.0889 183.035671 
L 150.392242 189.25311 
L 151.695585 191.342983 
L 152.998928 195.838491 
L 154.30227 196.817953 
L 155.605613 192.843334 
L 156.908955 189.494229 
L 158.212298 187.250838 
L 162.122326 196.553163 
L 163.425669 203.471545 
L 164.729011 205.757963 
L 166.032354 203.145335 
L 168.639039 202.726264 
L 169.942382 203.485249 
L 171.245724 201.169016 
L 172.549067 196.985255 
L 175.155752 189.570542 
L 176.459095 187.218319 
L 177.762437 185.50151 
L 179.06578 190.072136 
L 180.369123 194.11253 
L 181.672465 195.359267 
L 182.975808 197.533104 
L 185.582493 197.032515 
L 186.885836 197.583528 
L 188.189178 197.008214 
L 189.492521 193.805222 
L 190.795864 195.08923 
L 192.099206 200.839845 
L 193.402549 203.83282 
L 194.705891 204.575454 
L 196.009234 201.514984 
L 197.312577 195.389234 
L 199.919262 177.082973 
L 201.222604 174.484136 
L 202.525947 176.902243 
L 203.82929 174.758007 
L 205.132632 172.187065 
L 206.435975 175.926489 
L 207.739318 175.939219 
L 209.04266 179.807657 
L 210.346003 188.00631 
L 211.649345 189.943469 
L 212.952688 189.66313 
L 214.256031 186.119105 
L 215.559373 180.829273 
L 216.862716 179.846408 
L 218.166058 181.247917 
L 219.469401 178.846593 
L 220.772744 174.877148 
L 222.076086 173.032641 
L 223.379429 173.694867 
L 224.682772 176.230199 
L 225.986114 176.853016 
L 227.289457 174.920072 
L 228.592799 175.054051 
L 229.896142 176.277057 
L 231.199485 181.329063 
L 232.502827 187.493497 
L 233.80617 185.228735 
L 235.109513 184.311307 
L 236.412855 186.554763 
L 237.716198 186.114117 
L 239.01954 183.919566 
L 240.322883 177.133675 
L 241.626226 174.090123 
L 242.929568 172.001761 
L 244.232911 163.570633 
L 245.536253 150.481474 
L 246.839596 145.324566 
L 248.142939 148.266014 
L 249.446281 149.969789 
L 250.749624 153.749602 
L 252.052967 158.969131 
L 253.356309 165.998071 
L 254.659652 168.204732 
L 255.962994 169.516614 
L 257.266337 169.72524 
L 258.56968 166.764865 
L 259.873022 163.057791 
L 262.479708 154.355151 
L 266.389735 146.700577 
L 267.693078 147.094131 
L 268.996421 143.942545 
L 270.299763 141.880179 
L 271.603106 142.608795 
L 272.906448 139.555043 
L 274.209791 135.438924 
L 275.513134 134.407139 
L 276.816476 128.980102 
L 278.119819 120.345457 
L 280.726504 115.544584 
L 283.333189 110.153391 
L 284.636532 105.120835 
L 285.939875 103.537504 
L 287.243217 107.667386 
L 288.54656 110.524813 
L 289.849903 111.78301 
L 291.153245 115.656076 
L 292.456588 120.484101 
L 293.75993 124.322849 
L 295.063273 128.84978 
L 296.366616 129.181827 
L 297.669958 125.137844 
L 298.973301 124.612005 
L 300.276643 125.845834 
L 301.579986 125.897041 
L 302.883329 129.277187 
L 304.186671 131.853724 
L 305.490014 133.196661 
L 306.793357 134.372313 
L 308.096699 135.921814 
L 309.400042 136.470994 
L 310.703384 128.821846 
L 313.31007 120.036416 
L 314.613412 112.397636 
L 315.916755 107.181635 
L 317.220097 94.640783 
L 318.52344 84.513054 
L 319.826783 80.732224 
L 321.130125 77.364737 
L 322.433468 79.195738 
L 323.736811 82.632106 
L 325.040153 84.852751 
L 326.343496 80.765838 
L 327.646838 79.463099 
L 328.950181 82.130067 
L 330.253524 81.524702 
L 331.556866 85.241085 
L 332.860209 86.968621 
L 334.163552 84.265816 
L 335.466894 82.848428 
L 336.770237 82.156168 
L 338.073579 84.713392 
L 339.376922 91.432963 
L 340.680265 96.305929 
L 341.983607 97.084962 
L 343.28695 94.234888 
L 344.590292 87.430414 
L 345.893635 82.992672 
L 347.196978 81.070695 
L 348.50032 82.972457 
L 349.803663 88.241973 
L 351.107006 92.487942 
L 352.410348 99.24573 
L 353.713691 104.355495 
L 355.017033 104.997387 
L 356.320376 101.458308 
L 357.623719 98.458169 
L 358.927061 100.41944 
L 360.230404 100.44432 
L 361.533747 95.250404 
L 362.837089 93.611707 
L 364.140432 93.152601 
L 365.443774 89.560261 
L 366.747117 89.457996 
L 368.05046 87.98473 
L 369.353802 83.65272 
L 370.657145 83.724523 
L 371.960487 88.243329 
L 373.26383 90.549845 
L 374.567173 89.455475 
L 375.870515 84.91059 
L 377.173858 83.504277 
L 378.477201 83.829655 
L 379.780543 73.623695 
L 381.083886 65.375393 
L 382.387228 65.856095 
L 383.690571 64.345705 
L 384.993914 62.316078 
L 386.297256 63.967723 
L 387.600599 63.601808 
L 388.903942 64.845705 
L 390.207284 65.214785 
L 391.510627 56.824967 
L 392.813969 54.407724 
L 394.117312 54.827082 
L 395.420655 52.345917 
L 396.723997 51.575975 
L 398.02734 54.593229 
L 399.330682 59.377308 
L 400.634025 58.395612 
L 401.937368 56.204623 
L 403.24071 56.75224 
L 405.847396 55.992688 
L 407.150738 60.724219 
L 408.454081 62.573824 
L 409.757423 54.768926 
L 411.060766 49.846843 
L 412.364109 51.25445 
L 413.667451 55.19762 
L 414.970794 52.297301 
L 416.274136 42.655421 
L 417.577479 37.501139 
L 418.880822 37.922101 
L 420.184164 41.229164 
L 421.487507 44.879487 
L 422.79085 49.065599 
L 424.094192 51.992804 
L 425.397535 51.183848 
L 426.700877 44.29713 
L 428.00422 36.27198 
L 429.307563 36.02436 
L 430.610905 37.266993 
L 431.914248 37.76572 
L 433.217591 40.325254 
L 434.520933 37.477707 
L 435.824276 32.273016 
L 437.127618 36.113583 
L 438.430961 45.814451 
L 439.734304 46.995559 
L 441.037646 43.849316 
L 442.340989 47.129325 
L 443.644331 52.901004 
L 444.947674 52.411086 
L 446.251017 50.08692 
L 447.554359 49.939777 
L 448.857702 44.96736 
L 450.161045 45.652102 
L 451.464387 48.159571 
L 452.76773 48.358026 
L 454.071072 51.898886 
L 455.374415 51.508304 
L 456.677758 52.111099 
L 457.9811 55.315267 
L 459.284443 61.621039 
L 460.587786 63.721897 
L 461.891128 61.224535 
L 463.194471 61.100717 
L 464.497813 57.288541 
L 465.801156 58.340729 
L 467.104499 64.975848 
L 468.407841 65.262767 
L 471.014526 62.51002 
L 472.317869 60.858899 
L 473.621212 57.935568 
L 474.924554 55.745304 
L 476.227897 55.875743 
L 477.53124 56.282244 
L 478.834582 58.786771 
L 480.137925 54.345555 
L 481.441267 50.875713 
L 482.74461 54.307823 
L 484.047953 59.189618 
L 485.351295 60.443648 
L 486.654638 58.181904 
L 487.957981 61.094588 
L 489.261323 62.502541 
L 490.564666 59.515372 
L 491.868008 57.73335 
L 493.171351 62.000904 
L 494.474694 68.193849 
L 495.778036 72.053531 
L 497.081379 72.690175 
L 498.384721 69.952562 
L 499.688064 69.098318 
L 500.991407 67.283055 
L 502.294749 63.921501 
L 503.598092 63.789014 
L 504.901435 67.319227 
L 506.204777 68.335664 
L 507.50812 69.757836 
L 508.811462 73.658353 
L 510.114805 77.990268 
L 511.418148 75.804373 
L 512.72149 72.023302 
L 514.024833 71.090957 
L 515.328175 68.803718 
L 516.631518 65.819804 
L 517.934861 65.249687 
L 519.238203 65.458312 
L 520.541546 59.553955 
L 521.844889 58.634623 
L 523.148231 60.615656 
L 524.451574 59.327188 
L 525.754916 61.817854 
L 527.058259 67.856438 
L 528.361602 69.983258 
L 529.664944 66.879618 
L 530.968287 67.495538 
L 532.27163 69.967893 
L 533.574972 66.743405 
L 534.878315 62.460665 
L 536.181657 65.696206 
L 537.485 72.1427 
L 537.485 72.1427 
" style="fill:none;stroke:#1f77b4;stroke-linecap:square;"/>
   </g>
   <g id="line2d_14">
    <path clip-path="url(#p456bb5000b)" d="M 69.585 185.834671 
L 70.888343 181.719314 
L 72.191685 185.932492 
L 73.495028 186.31829 
L 74.79837 181.505568 
L 76.101713 182.397872 
L 77.405056 186.989641 
L 78.708398 193.52153 
L 80.011741 194.189502 
L 81.315084 192.642953 
L 82.618426 191.771041 
L 83.921769 189.727401 
L 85.225111 189.066364 
L 91.741825 189.868332 
L 93.045167 190.712761 
L 94.34851 191.842546 
L 95.651852 188.003402 
L 96.955195 192.836412 
L 98.258538 189.917551 
L 99.56188 181.802203 
L 100.865223 186.702432 
L 102.168565 192.931257 
L 103.471908 190.049451 
L 104.775251 183.598417 
L 106.078593 186.969473 
L 107.381936 189.91197 
L 108.685279 192.498899 
L 109.988621 193.605802 
L 111.291964 192.959043 
L 112.595306 194.035765 
L 113.898649 200.907859 
L 115.201992 202.520772 
L 117.808677 194.155476 
L 120.415362 194.17975 
L 121.718705 190.891873 
L 123.022047 192.619981 
L 124.32539 193.085692 
L 125.628733 196.220027 
L 126.932075 203.108522 
L 128.235418 193.898162 
L 129.53876 192.882669 
L 130.842103 187.530597 
L 132.145446 183.41239 
L 133.448788 195.620297 
L 134.752131 204.219993 
L 136.055474 205.230512 
L 137.358816 204.345197 
L 138.662159 201.410685 
L 139.965501 199.044779 
L 141.268844 198.911337 
L 142.572187 199.574613 
L 143.875529 195.010296 
L 145.178872 204.791018 
L 146.482214 207.014728 
L 147.785557 207.111479 
L 149.0889 208.026067 
L 150.392242 207.999174 
L 151.695585 207.620157 
L 152.998928 204.56592 
L 154.30227 207.505703 
L 155.605613 212.156087 
L 156.908955 218.47216 
L 158.212298 221.060232 
L 159.515641 218.896082 
L 160.818983 217.871198 
L 162.122326 219.89506 
L 163.425669 223.782383 
L 164.729011 224.050149 
L 166.032354 223.00282 
L 167.335696 223.249823 
L 168.639039 223.00779 
L 169.942382 223.917204 
L 171.245724 219.101282 
L 172.549067 216.278121 
L 175.155752 216.613941 
L 177.762437 216.957021 
L 180.369123 216.954258 
L 181.672465 217.018721 
L 182.975808 216.650335 
L 184.27915 217.842788 
L 185.582493 217.196713 
L 186.885836 216.826455 
L 188.189178 218.118759 
L 189.492521 224.774372 
L 190.795864 219.079737 
L 192.099206 212.215042 
L 193.402549 210.099508 
L 194.705891 210.131987 
L 196.009234 210.539035 
L 197.312577 208.257819 
L 198.615919 199.224006 
L 199.919262 193.007591 
L 201.222604 191.907673 
L 202.525947 191.950392 
L 205.132632 192.321614 
L 206.435975 192.319795 
L 207.739318 192.485543 
L 209.04266 192.408979 
L 210.346003 191.092441 
L 211.649345 190.401814 
L 212.952688 190.813753 
L 214.256031 193.441685 
L 215.559373 194.805326 
L 218.166058 195.005734 
L 219.469401 197.062904 
L 220.772744 200.250511 
L 222.076086 202.374998 
L 223.379429 199.787943 
L 224.682772 195.146995 
L 225.986114 194.900198 
L 227.289457 197.281597 
L 228.592799 197.282378 
L 229.896142 196.928697 
L 231.199485 200.515388 
L 232.502827 202.326326 
L 233.80617 202.548973 
L 237.716198 202.846775 
L 239.01954 203.041713 
L 240.322883 199.882084 
L 241.626226 199.568373 
L 242.929568 194.832539 
L 245.536253 176.895261 
L 246.839596 176.402401 
L 248.142939 177.368959 
L 249.446281 178.799002 
L 250.749624 180.762201 
L 252.052967 183.886868 
L 253.356309 187.579937 
L 254.659652 188.025215 
L 255.962994 189.457232 
L 257.266337 188.84196 
L 258.56968 187.729286 
L 259.873022 185.519611 
L 261.176365 182.704082 
L 262.479708 177.721784 
L 263.78305 176.232541 
L 265.086393 172.656653 
L 266.389735 171.088106 
L 267.693078 171.606678 
L 268.996421 167.151738 
L 270.299763 166.709933 
L 271.603106 166.942825 
L 274.209791 159.228487 
L 275.513134 159.020363 
L 278.119819 143.287995 
L 279.423162 141.877023 
L 280.726504 138.439352 
L 282.029847 136.611567 
L 285.939875 137.167377 
L 288.54656 137.21726 
L 289.849903 138.422637 
L 291.153245 142.288519 
L 292.456588 147.575115 
L 293.75993 150.359458 
L 295.063273 150.797733 
L 296.366616 153.056568 
L 297.669958 155.978323 
L 298.973301 156.034518 
L 300.276643 154.793747 
L 302.883329 155.073894 
L 304.186671 154.180224 
L 305.490014 155.67841 
L 306.793357 155.668977 
L 308.096699 157.365647 
L 309.400042 156.799899 
L 310.703384 152.547317 
L 312.006727 151.363564 
L 314.613412 137.562939 
L 315.916755 132.198843 
L 317.220097 116.489091 
L 318.52344 109.486516 
L 319.826783 107.06752 
L 322.433468 104.854311 
L 323.736811 101.626984 
L 325.040153 99.586039 
L 326.343496 109.112564 
L 327.646838 107.215884 
L 328.950181 104.936352 
L 330.253524 105.874553 
L 331.556866 97.681679 
L 332.860209 98.241095 
L 334.163552 101.567055 
L 335.466894 103.35796 
L 336.770237 103.991126 
L 338.073579 102.224862 
L 339.376922 98.164394 
L 340.680265 96.629428 
L 341.983607 96.728199 
L 343.28695 96.956288 
L 344.590292 99.977783 
L 345.893635 101.544408 
L 347.196978 100.829546 
L 348.50032 102.663983 
L 349.803663 105.309362 
L 351.107006 107.595425 
L 352.410348 114.959291 
L 353.713691 118.652459 
L 355.017033 119.046415 
L 356.320376 116.676878 
L 357.623719 116.009669 
L 358.927061 117.217744 
L 360.230404 116.922813 
L 361.533747 111.027093 
L 362.837089 111.62685 
L 364.140432 109.44667 
L 365.443774 107.048446 
L 366.747117 106.866365 
L 368.05046 108.617582 
L 369.353802 112.771103 
L 370.657145 109.576364 
L 371.960487 100.578622 
L 373.26383 97.320794 
L 374.567173 99.078551 
L 375.870515 102.630339 
L 377.173858 103.97312 
L 378.477201 102.891409 
L 379.780543 90.4583 
L 381.083886 84.768465 
L 382.387228 84.966526 
L 383.690571 86.393287 
L 384.993914 87.4003 
L 386.297256 84.746506 
L 387.600599 86.861426 
L 388.903942 85.997169 
L 390.207284 84.883197 
L 391.510627 85.255285 
L 394.117312 85.519445 
L 395.420655 85.777547 
L 396.723997 86.906552 
L 398.02734 79.447115 
L 399.330682 73.077843 
L 400.634025 78.123039 
L 401.937368 81.591344 
L 403.24071 80.452047 
L 404.544053 81.340275 
L 405.847396 81.341783 
L 407.150738 74.891259 
L 408.454081 73.688726 
L 409.757423 74.888232 
L 411.060766 75.086978 
L 412.364109 75.162303 
L 413.667451 77.391034 
L 414.970794 70.112708 
L 416.274136 63.516605 
L 417.577479 61.34449 
L 418.880822 62.267338 
L 420.184164 62.998284 
L 422.79085 63.007317 
L 424.094192 63.792113 
L 425.397535 62.998499 
L 428.00422 55.380149 
L 429.307563 54.374404 
L 430.610905 55.573987 
L 431.914248 54.752042 
L 433.217591 53.276673 
L 434.520933 60.511086 
L 435.824276 67.046781 
L 437.127618 64.221752 
L 438.430961 62.052534 
L 439.734304 64.292371 
L 441.037646 65.704143 
L 442.340989 63.240559 
L 443.644331 58.710428 
L 444.947674 61.219262 
L 446.251017 62.477833 
L 447.554359 63.378108 
L 448.857702 73.850427 
L 450.161045 71.287006 
L 451.464387 71.480446 
L 452.76773 69.389929 
L 454.071072 66.878324 
L 455.374415 66.757223 
L 456.677758 68.081256 
L 457.9811 68.736252 
L 459.284443 68.644468 
L 460.587786 70.752439 
L 463.194471 72.314072 
L 464.497813 82.927296 
L 465.801156 78.191275 
L 467.104499 70.203834 
L 468.407841 70.149486 
L 469.711184 70.950791 
L 471.014526 69.741779 
L 472.317869 69.382081 
L 473.621212 67.403191 
L 474.924554 66.389414 
L 476.227897 67.152973 
L 477.53124 66.635257 
L 478.834582 64.460246 
L 480.137925 72.068841 
L 481.441267 73.13734 
L 482.74461 70.69703 
L 484.047953 67.582387 
L 485.351295 69.865656 
L 486.654638 71.660728 
L 487.957981 71.625451 
L 491.868008 71.974859 
L 493.171351 78.261416 
L 494.474694 82.691433 
L 495.778036 84.843165 
L 497.081379 84.67219 
L 498.384721 84.334237 
L 499.688064 84.161799 
L 500.991407 87.433292 
L 502.294749 90.066097 
L 503.598092 89.85999 
L 504.901435 85.855899 
L 506.204777 86.352902 
L 507.50812 83.250878 
L 508.811462 79.778538 
L 510.114805 74.203352 
L 511.418148 80.060841 
L 512.72149 82.949693 
L 514.024833 82.496293 
L 515.328175 82.949 
L 516.631518 78.417795 
L 517.934861 78.075203 
L 519.238203 79.258753 
L 520.541546 79.54828 
L 521.844889 79.638546 
L 523.148231 80.001652 
L 524.451574 80.957875 
L 525.754916 81.294514 
L 527.058259 81.249041 
L 528.361602 81.336004 
L 529.664944 83.433769 
L 530.968287 82.104203 
L 532.27163 82.101554 
L 533.574972 88.25461 
L 534.878315 95.076389 
L 536.181657 82.481271 
L 537.485 72.1427 
L 537.485 72.1427 
" style="fill:none;stroke:#ff7f0e;stroke-linecap:square;"/>
   </g>
   <g id="line2d_15">
    <path clip-path="url(#p456bb5000b)" d="M 69.585 192.224819 
L 70.888343 191.496856 
L 72.191685 192.553283 
L 73.495028 192.008696 
L 74.79837 191.028072 
L 76.101713 191.893795 
L 78.708398 193.16375 
L 80.011741 192.480639 
L 85.225111 192.889158 
L 86.528454 193.493448 
L 87.831797 192.669186 
L 89.135139 192.851236 
L 90.438482 193.299801 
L 91.741825 190.94805 
L 93.045167 189.765051 
L 94.34851 189.581631 
L 95.651852 188.488711 
L 96.955195 190.135825 
L 98.258538 188.655599 
L 99.56188 186.989815 
L 100.865223 188.820828 
L 102.168565 189.200078 
L 103.471908 188.305407 
L 104.775251 187.133327 
L 106.078593 188.517472 
L 107.381936 188.527335 
L 108.685279 187.891694 
L 109.988621 186.741191 
L 111.291964 187.105265 
L 112.595306 187.107792 
L 113.898649 186.353299 
L 115.201992 185.090961 
L 116.505334 184.230602 
L 117.808677 183.18246 
L 119.112019 183.513034 
L 120.415362 183.47554 
L 121.718705 182.769552 
L 123.022047 183.698961 
L 124.32539 183.379048 
L 125.628733 184.304041 
L 126.932075 184.825415 
L 128.235418 180.880059 
L 129.53876 181.318008 
L 130.842103 178.490851 
L 132.145446 178.106707 
L 133.448788 180.990729 
L 134.752131 180.527668 
L 136.055474 180.246921 
L 137.358816 180.743473 
L 138.662159 181.972192 
L 139.965501 183.522178 
L 141.268844 184.044799 
L 142.572187 183.989302 
L 143.875529 183.295366 
L 145.178872 186.556018 
L 146.482214 185.957249 
L 147.785557 186.056114 
L 149.0889 187.599925 
L 150.392242 190.555369 
L 151.695585 191.337389 
L 152.998928 191.664794 
L 154.30227 193.715175 
L 155.605613 194.231654 
L 156.908955 195.63691 
L 158.212298 195.700627 
L 159.515641 196.162397 
L 160.818983 197.245322 
L 162.122326 199.772738 
L 163.425669 205.148205 
L 164.729011 206.394918 
L 166.032354 204.581197 
L 167.335696 204.611965 
L 168.639039 204.377993 
L 169.942382 205.213497 
L 172.549067 198.12008 
L 175.155752 194.539861 
L 176.459095 193.415009 
L 177.762437 192.584379 
L 179.06578 194.780908 
L 180.369123 196.722425 
L 181.672465 197.343538 
L 182.975808 198.152924 
L 184.27915 198.660973 
L 185.582493 198.209197 
L 186.885836 198.266093 
L 188.189178 198.682112 
L 189.492521 200.422716 
L 190.795864 198.062201 
L 192.099206 196.753569 
L 193.402549 196.811544 
L 194.705891 197.197597 
L 196.009234 195.842386 
L 197.312577 191.563276 
L 198.615919 182.438249 
L 199.919262 174.698643 
L 201.222604 172.799485 
L 202.525947 174.092026 
L 203.82929 173.054647 
L 205.132632 171.729331 
L 206.435975 173.71094 
L 207.739318 173.795495 
L 209.04266 175.765896 
L 210.346003 178.937334 
L 211.649345 179.46564 
L 212.952688 179.555036 
L 214.256031 179.194082 
L 215.559373 177.20372 
L 216.862716 176.760384 
L 218.166058 177.509711 
L 219.469401 177.263031 
L 220.772744 176.600132 
L 222.076086 176.542695 
L 224.682772 174.792926 
L 227.289457 175.15861 
L 228.592799 175.227305 
L 229.896142 175.670122 
L 231.199485 179.990648 
L 232.502827 183.92534 
L 233.80617 182.916122 
L 235.109513 182.50358 
L 236.412855 183.646927 
L 237.716198 183.495424 
L 239.01954 182.494155 
L 240.322883 177.479981 
L 241.626226 175.779136 
L 242.929568 172.367689 
L 244.232911 163.645771 
L 245.536253 152.592565 
L 246.839596 149.651963 
L 248.142939 151.64336 
L 249.446281 153.215229 
L 250.749624 156.109823 
L 252.052967 160.295468 
L 253.356309 165.644872 
L 255.962994 168.328423 
L 257.266337 168.123076 
L 258.56968 166.080913 
L 259.873022 163.111285 
L 261.176365 159.476331 
L 262.479708 154.8485 
L 263.78305 152.78115 
L 265.086393 149.779442 
L 266.389735 147.68707 
L 267.693078 148.14143 
L 268.996421 144.350865 
L 270.299763 143.075166 
L 271.603106 143.562411 
L 272.906448 140.135733 
L 274.209791 136.118984 
L 275.513134 135.498345 
L 276.816476 128.804395 
L 278.119819 120.588202 
L 279.423162 118.686971 
L 280.726504 115.760219 
L 282.029847 113.466415 
L 283.333189 112.216766 
L 284.636532 109.710487 
L 285.939875 108.936041 
L 287.243217 111.05465 
L 288.54656 112.495117 
L 289.849903 113.726456 
L 291.153245 117.595869 
L 292.456588 122.656446 
L 293.75993 125.957168 
L 295.063273 128.348026 
L 296.366616 129.675652 
L 297.669958 129.086288 
L 298.973301 128.848095 
L 301.579986 128.914363 
L 302.883329 130.661426 
L 304.186671 131.466965 
L 305.490014 132.88906 
L 306.793357 133.456275 
L 308.096699 135.08127 
L 309.400042 135.054819 
L 310.703384 129.124926 
L 312.006727 126.294577 
L 313.31007 120.779217 
L 314.613412 113.401853 
L 315.916755 108.111461 
L 317.220097 93.948865 
L 318.52344 85.391383 
L 319.826783 82.285941 
L 321.130125 80.011943 
L 322.433468 80.393081 
L 325.040153 80.338801 
L 326.343496 82.921727 
L 327.646838 81.326938 
L 330.253524 81.657988 
L 331.556866 78.975613 
L 332.860209 80.071484 
L 334.163552 80.520855 
L 335.466894 80.676931 
L 336.770237 80.629475 
L 338.073579 81.027664 
L 339.376922 82.017986 
L 340.680265 83.363765 
L 341.983607 83.766989 
L 343.28695 82.589451 
L 344.590292 80.837177 
L 347.196978 78.051973 
L 348.50032 79.920552 
L 349.803663 83.87617 
L 351.107006 87.130735 
L 352.410348 94.194009 
L 353.713691 98.583777 
L 355.017033 99.09947 
L 356.320376 96.151607 
L 357.623719 94.314566 
L 358.927061 95.898636 
L 360.230404 95.763048 
L 361.533747 90.21553 
L 362.837089 89.689735 
L 364.140432 88.366125 
L 365.443774 85.369345 
L 366.747117 85.227153 
L 368.05046 85.335904 
L 369.353802 84.952926 
L 370.657145 83.472836 
L 371.960487 81.025799 
L 373.26383 80.372607 
L 374.567173 80.771125 
L 375.870515 80.268987 
L 377.173858 80.212796 
L 378.477201 79.84123 
L 379.780543 68.517356 
L 381.083886 61.533759 
L 382.387228 61.872903 
L 383.690571 61.807847 
L 386.297256 60.761751 
L 387.600599 61.607663 
L 388.903942 61.808533 
L 390.207284 61.437305 
L 391.510627 57.192611 
L 392.813969 55.952239 
L 394.117312 56.247674 
L 395.420655 55.021769 
L 396.723997 55.111349 
L 398.02734 52.56347 
L 399.330682 51.055643 
L 400.634025 53.366928 
L 401.937368 54.173154 
L 403.24071 53.818917 
L 404.544053 54.126177 
L 405.847396 53.934539 
L 407.150738 52.373272 
L 408.454081 52.477992 
L 409.757423 49.582501 
L 411.060766 47.374687 
L 412.364109 48.070855 
L 413.667451 51.148043 
L 414.970794 45.979241 
L 416.274136 37.88791 
L 417.577479 34.225285 
L 418.880822 34.896535 
L 420.184164 36.899116 
L 421.487507 38.66438 
L 424.094192 42.413711 
L 425.397535 41.612978 
L 428.00422 30.490199 
L 429.307563 29.861803 
L 430.610905 31.082808 
L 431.914248 30.912846 
L 433.217591 31.380904 
L 434.520933 33.456384 
L 435.824276 33.575184 
L 437.127618 34.261621 
L 438.430961 37.925895 
L 439.734304 39.642084 
L 441.037646 38.737529 
L 442.340989 39.094433 
L 443.644331 39.307642 
L 444.947674 40.290295 
L 446.251017 39.687239 
L 447.554359 40.04 
L 448.857702 41.734227 
L 450.161045 40.985972 
L 451.464387 42.456792 
L 452.76773 41.61435 
L 454.071072 42.29427 
L 455.374415 42.030853 
L 456.677758 42.972447 
L 457.9811 44.959832 
L 459.284443 48.08998 
L 460.587786 50.194394 
L 461.891128 49.316659 
L 463.194471 49.621033 
L 464.497813 52.224294 
L 465.801156 50.603284 
L 467.104499 49.84886 
L 468.407841 49.962971 
L 469.711184 49.693411 
L 471.014526 48.382586 
L 472.317869 47.371403 
L 473.621212 44.913411 
L 474.924554 43.298694 
L 476.227897 43.744498 
L 477.53124 43.688089 
L 478.834582 43.783525 
L 480.137925 45.113067 
L 481.441267 43.755468 
L 482.74461 44.351905 
L 484.047953 45.181816 
L 485.351295 46.954214 
L 486.654638 46.686599 
L 487.957981 48.124307 
L 489.261323 48.881193 
L 490.564666 47.472406 
L 491.868008 46.586217 
L 494.474694 57.162568 
L 495.778036 60.170104 
L 497.081379 60.401859 
L 498.384721 58.850117 
L 499.688064 58.331425 
L 500.991407 58.942555 
L 502.294749 58.333651 
L 504.901435 58.067495 
L 506.204777 58.832863 
L 507.50812 57.931933 
L 508.811462 57.884968 
L 510.114805 56.622964 
L 511.418148 58.787983 
L 512.72149 58.482784 
L 514.024833 57.799347 
L 515.328175 56.913702 
L 516.631518 53.131154 
L 517.934861 52.67832 
L 519.238203 53.386661 
L 520.541546 50.542741 
L 521.844889 50.11922 
L 523.148231 51.283485 
L 524.451574 51.113169 
L 525.754916 52.517014 
L 527.058259 55.375615 
L 528.361602 56.423882 
L 530.968287 55.596031 
L 532.27163 56.765497 
L 533.574972 58.215599 
L 534.878315 59.101335 
L 536.181657 54.222486 
L 537.485 51.230901 
L 537.485 51.230901 
" style="fill:none;stroke:#2ca02c;stroke-linecap:square;"/>
   </g>
   <g id="legend_1">
    <g id="patch_3">
     <path d="M 54.3534 79.552286 
L 109.911897 79.552286 
Q 112.244297 79.552286 112.244297 77.219886 
L 112.244297 28.279574 
Q 112.244297 25.947174 109.911897 25.947174 
L 54.3534 25.947174 
Q 52.021 25.947174 52.021 28.279574 
L 52.021 77.219886 
Q 52.021 79.552286 54.3534 79.552286 
z
" style="fill:#ffffff;opacity:0.8;stroke:#cccccc;stroke-linejoin:miter;"/>
    </g>
    <g id="line2d_16">
     <path d="M 56.6858 34.98158 
L 80.0098 34.98158 
" style="fill:none;stroke:#1f77b4;stroke-linecap:square;"/>
    </g>
    <g id="line2d_17"/>
    <g id="text_15">
     <!-- А -->
     <g transform="translate(89.3394 39.06328)scale(0.11662 -0.11662)">
      <defs>
       <path d="M 46.734375 0 
L 40.28125 20.125 
L 14.546875 20.125 
L 8.109375 0 
L 0.140625 0 
L 23.1875 68.796875 
L 31.890625 68.796875 
L 54.546875 0 
z
M 30.765625 50.09375 
Q 30.125 52.046875 29.546875 54.046875 
L 28.515625 57.71875 
L 27.734375 60.453125 
Q 27.4375 61.53125 27.4375 61.765625 
Q 27.34375 61.53125 27.078125 60.40625 
Q 26.8125 59.28125 26.375 57.625 
L 25.296875 53.953125 
L 24.125 50 
L 16.890625 27.390625 
L 37.984375 27.390625 
z
" id="LiberationSansNarrow-1040"/>
      </defs>
      <use xlink:href="#LiberationSansNarrow-1040"/>
     </g>
    </g>
    <g id="line2d_18">
     <path d="M 56.6858 51.68375 
L 80.0098 51.68375 
" style="fill:none;stroke:#ff7f0e;stroke-linecap:square;"/>
    </g>
    <g id="line2d_19"/>
    <g id="text_16">
     <!-- Б -->
     <g transform="translate(89.3394 55.76545)scale(0.11662 -0.11662)">
      <defs>
       <path d="M 49.5625 20.171875 
Q 49.5625 15.921875 48.34375 12.25 
Q 47.125 8.59375 44.703125 5.859375 
Q 42.28125 3.125 38.640625 1.5625 
Q 35.015625 0 30.125 0 
L 6.734375 0 
L 6.734375 68.796875 
L 43.796875 68.796875 
L 43.796875 61.1875 
L 14.359375 61.1875 
L 14.359375 39.703125 
L 29.6875 39.703125 
Q 34.671875 39.703125 38.40625 38.28125 
Q 42.140625 36.859375 44.609375 34.296875 
Q 47.078125 31.734375 48.3125 28.140625 
Q 49.5625 24.5625 49.5625 20.171875 
z
M 41.890625 20.0625 
Q 41.890625 25.984375 38.59375 29.125 
Q 35.296875 32.28125 28.765625 32.28125 
L 14.359375 32.28125 
L 14.359375 7.375 
L 29.046875 7.375 
Q 35.59375 7.375 38.734375 10.6875 
Q 41.890625 14.015625 41.890625 20.0625 
z
" id="LiberationSansNarrow-1041"/>
      </defs>
      <use xlink:href="#LiberationSansNarrow-1041"/>
     </g>
    </g>
    <g id="line2d_20">
     <path d="M 56.6858 68.385921 
L 80.0098 68.385921 
" style="fill:none;stroke:#2ca02c;stroke-linecap:square;"/>
    </g>
    <g id="line2d_21"/>
    <g id="text_17">
     <!-- А+Б -->
     <g transform="translate(89.3394 72.467621)scale(0.11662 -0.11662)">
      <defs>
       <path d="M 26.859375 29.6875 
L 26.859375 8.796875 
L 21 8.796875 
L 21 29.6875 
L 4 29.6875 
L 4 36.8125 
L 21 36.8125 
L 21 57.71875 
L 26.859375 57.71875 
L 26.859375 36.8125 
L 43.84375 36.8125 
L 43.84375 29.6875 
z
" id="LiberationSansNarrow-43"/>
      </defs>
      <use xlink:href="#LiberationSansNarrow-1040"/>
      <use x="54.6875" xlink:href="#LiberationSansNarrow-43"/>
      <use x="102.587891" xlink:href="#LiberationSansNarrow-1041"/>
     </g>
    </g>
   </g>
  </g>
 </g>
 <defs>
  <clipPath id="p456bb5000b">
   <rect height="214.403826" width="514.69" x="46.19" y="20.116174"/>
  </clipPath>
 </defs>
</svg>
