<?xml version="1.0" encoding="utf-8" standalone="no"?>
<!DOCTYPE svg PUBLIC "-//W3C//DTD SVG 1.1//EN"
  "http://www.w3.org/Graphics/SVG/1.1/DTD/svg11.dtd">
<!-- Created with matplotlib (https://matplotlib.org/) -->
<svg height="288pt" version="1.1" viewBox="0 0 576 288" width="576pt" xmlns="http://www.w3.org/2000/svg" xmlns:xlink="http://www.w3.org/1999/xlink">
 <metadata>
  <rdf:RDF xmlns:cc="http://creativecommons.org/ns#" xmlns:dc="http://purl.org/dc/elements/1.1/" xmlns:rdf="http://www.w3.org/1999/02/22-rdf-syntax-ns#">
   <cc:Work>
    <dc:type rdf:resource="http://purl.org/dc/dcmitype/StillImage"/>
    <dc:date>2021-08-22T13:44:05.050134</dc:date>
    <dc:format>image/svg+xml</dc:format>
    <dc:creator>
     <cc:Agent>
      <dc:title>Matplotlib v3.3.4, https://matplotlib.org/</dc:title>
     </cc:Agent>
    </dc:creator>
   </cc:Work>
  </rdf:RDF>
 </metadata>
 <defs>
  <style type="text/css">*{stroke-linecap:butt;stroke-linejoin:round;}</style>
 </defs>
 <g id="figure_1">
  <g id="patch_1">
   <path d="M 0 288 
L 576 288 
L 576 0 
L 0 0 
z
" style="fill:#ffffff;"/>
  </g>
  <g id="axes_1">
   <g id="patch_2">
    <path d="M 46.19 234.52 
L 560.88 234.52 
L 560.88 15.12 
L 46.19 15.12 
z
" style="fill:#ffffff;"/>
   </g>
   <g id="matplotlib.axis_1">
    <g id="xtick_1">
     <g id="line2d_1">
      <path clip-path="url(#p22fe70653d)" d="M 69.585 234.52 
L 69.585 15.12 
" style="fill:none;stroke:#b0b0b0;stroke-dasharray:1.48,0.64;stroke-dashoffset:0;stroke-width:0.4;"/>
     </g>
     <g id="text_1">
      <!-- 0 -->
      <g transform="translate(66.392344 251.665625)scale(0.14 -0.14)">
       <defs>
        <path d="M 42.390625 34.421875 
Q 42.390625 24.515625 40.84375 17.75 
Q 39.3125 10.984375 36.640625 6.8125 
Q 33.984375 2.640625 30.390625 0.828125 
Q 26.8125 -0.984375 22.703125 -0.984375 
Q 18.609375 -0.984375 15.03125 0.828125 
Q 11.46875 2.640625 8.828125 6.78125 
Q 6.203125 10.9375 4.703125 17.703125 
Q 3.21875 24.46875 3.21875 34.421875 
Q 3.21875 44.828125 4.703125 51.640625 
Q 6.203125 58.453125 8.828125 62.5 
Q 11.46875 66.546875 15.078125 68.1875 
Q 18.703125 69.828125 22.953125 69.828125 
Q 27 69.828125 30.53125 68.1875 
Q 34.078125 66.546875 36.71875 62.5 
Q 39.359375 58.453125 40.875 51.640625 
Q 42.390625 44.828125 42.390625 34.421875 
z
M 35.0625 34.421875 
Q 35.0625 42.625 34.28125 48.0625 
Q 33.5 53.515625 31.9375 56.765625 
Q 30.375 60.015625 28.09375 61.359375 
Q 25.828125 62.703125 22.953125 62.703125 
Q 19.921875 62.703125 17.578125 61.328125 
Q 15.234375 59.96875 13.671875 56.71875 
Q 12.109375 53.46875 11.296875 48.015625 
Q 10.5 42.578125 10.5 34.421875 
Q 10.5 26.515625 11.296875 21.09375 
Q 12.109375 15.671875 13.6875 12.375 
Q 15.28125 9.078125 17.578125 7.640625 
Q 19.875 6.203125 22.796875 6.203125 
Q 25.640625 6.203125 27.90625 7.640625 
Q 30.171875 9.078125 31.75 12.375 
Q 33.34375 15.671875 34.203125 21.09375 
Q 35.0625 26.515625 35.0625 34.421875 
z
" id="LiberationSansNarrow-48"/>
       </defs>
       <use xlink:href="#LiberationSansNarrow-48"/>
      </g>
     </g>
    </g>
    <g id="xtick_2">
     <g id="line2d_2">
      <path clip-path="url(#p22fe70653d)" d="M 134.752131 234.52 
L 134.752131 15.12 
" style="fill:none;stroke:#b0b0b0;stroke-dasharray:1.48,0.64;stroke-dashoffset:0;stroke-width:0.4;"/>
     </g>
     <g id="text_2">
      <!-- 50 -->
      <g transform="translate(128.366818 251.665625)scale(0.14 -0.14)">
       <defs>
        <path d="M 42.140625 22.40625 
Q 42.140625 17.234375 40.859375 12.9375 
Q 39.59375 8.640625 37.078125 5.53125 
Q 34.578125 2.4375 30.8125 0.71875 
Q 27.046875 -0.984375 22.125 -0.984375 
Q 17.671875 -0.984375 14.375 0.28125 
Q 11.078125 1.5625 8.8125 3.78125 
Q 6.546875 6 5.203125 8.984375 
Q 3.859375 11.96875 3.265625 15.375 
L 10.546875 16.40625 
Q 10.984375 14.453125 11.78125 12.625 
Q 12.59375 10.796875 13.984375 9.34375 
Q 15.375 7.90625 17.40625 7.046875 
Q 19.4375 6.203125 22.3125 6.203125 
Q 25.09375 6.203125 27.390625 7.25 
Q 29.6875 8.296875 31.296875 10.34375 
Q 32.90625 12.40625 33.78125 15.375 
Q 34.671875 18.359375 34.671875 22.21875 
Q 34.671875 25.390625 33.84375 28.046875 
Q 33.015625 30.71875 31.453125 32.640625 
Q 29.890625 34.578125 27.609375 35.640625 
Q 25.34375 36.71875 22.46875 36.71875 
Q 20.65625 36.71875 19.140625 36.328125 
Q 17.625 35.9375 16.328125 35.25 
Q 15.046875 34.578125 13.96875 33.671875 
Q 12.890625 32.765625 11.96875 31.78125 
L 4.9375 31.78125 
L 6.78125 68.796875 
L 38.875 68.796875 
L 38.875 61.328125 
L 13.375 61.328125 
L 12.3125 39.5 
Q 14.203125 41.3125 17.078125 42.59375 
Q 19.96875 43.890625 23.921875 43.890625 
Q 28.125 43.890625 31.484375 42.328125 
Q 34.859375 40.765625 37.21875 37.90625 
Q 39.59375 35.0625 40.859375 31.109375 
Q 42.140625 27.15625 42.140625 22.40625 
z
" id="LiberationSansNarrow-53"/>
       </defs>
       <use xlink:href="#LiberationSansNarrow-53"/>
       <use x="45.605469" xlink:href="#LiberationSansNarrow-48"/>
      </g>
     </g>
    </g>
    <g id="xtick_3">
     <g id="line2d_3">
      <path clip-path="url(#p22fe70653d)" d="M 199.919262 234.52 
L 199.919262 15.12 
" style="fill:none;stroke:#b0b0b0;stroke-dasharray:1.48,0.64;stroke-dashoffset:0;stroke-width:0.4;"/>
     </g>
     <g id="text_3">
      <!-- 100 -->
      <g transform="translate(190.341293 251.665625)scale(0.14 -0.14)">
       <defs>
        <path d="M 6.25 0 
L 6.25 7.46875 
L 20.609375 7.46875 
L 20.609375 60.40625 
L 7.90625 49.3125 
L 7.90625 57.625 
L 21.234375 68.796875 
L 27.875 68.796875 
L 27.875 7.46875 
L 41.609375 7.46875 
L 41.609375 0 
z
" id="LiberationSansNarrow-49"/>
       </defs>
       <use xlink:href="#LiberationSansNarrow-49"/>
       <use x="45.605469" xlink:href="#LiberationSansNarrow-48"/>
       <use x="91.210938" xlink:href="#LiberationSansNarrow-48"/>
      </g>
     </g>
    </g>
    <g id="xtick_4">
     <g id="line2d_4">
      <path clip-path="url(#p22fe70653d)" d="M 265.086393 234.52 
L 265.086393 15.12 
" style="fill:none;stroke:#b0b0b0;stroke-dasharray:1.48,0.64;stroke-dashoffset:0;stroke-width:0.4;"/>
     </g>
     <g id="text_4">
      <!-- 150 -->
      <g transform="translate(255.508424 251.665625)scale(0.14 -0.14)">
       <use xlink:href="#LiberationSansNarrow-49"/>
       <use x="45.605469" xlink:href="#LiberationSansNarrow-53"/>
       <use x="91.210938" xlink:href="#LiberationSansNarrow-48"/>
      </g>
     </g>
    </g>
    <g id="xtick_5">
     <g id="line2d_5">
      <path clip-path="url(#p22fe70653d)" d="M 330.253524 234.52 
L 330.253524 15.12 
" style="fill:none;stroke:#b0b0b0;stroke-dasharray:1.48,0.64;stroke-dashoffset:0;stroke-width:0.4;"/>
     </g>
     <g id="text_5">
      <!-- 200 -->
      <g transform="translate(320.675555 251.665625)scale(0.14 -0.14)">
       <defs>
        <path d="M 4.109375 0 
L 4.109375 6.203125 
Q 6.15625 11.921875 9.109375 16.28125 
Q 12.0625 20.65625 15.3125 24.1875 
Q 18.5625 27.734375 21.734375 30.765625 
Q 24.90625 33.796875 27.46875 36.8125 
Q 30.03125 39.84375 31.609375 43.15625 
Q 33.203125 46.484375 33.203125 50.6875 
Q 33.203125 53.609375 32.46875 55.828125 
Q 31.734375 58.0625 30.390625 59.5625 
Q 29.046875 61.078125 27.140625 61.828125 
Q 25.25 62.59375 22.90625 62.59375 
Q 20.75 62.59375 18.84375 61.859375 
Q 16.9375 61.140625 15.453125 59.671875 
Q 13.96875 58.203125 13.03125 56.03125 
Q 12.109375 53.859375 11.8125 50.984375 
L 4.4375 51.8125 
Q 4.78125 55.515625 6.125 58.78125 
Q 7.46875 62.0625 9.78125 64.53125 
Q 12.109375 67 15.359375 68.40625 
Q 18.609375 69.828125 22.90625 69.828125 
Q 27.09375 69.828125 30.390625 68.609375 
Q 33.6875 67.390625 35.9375 64.984375 
Q 38.1875 62.59375 39.40625 59.078125 
Q 40.625 55.5625 40.625 50.984375 
Q 40.625 47.515625 39.59375 44.390625 
Q 38.578125 41.265625 36.859375 38.421875 
Q 35.15625 35.59375 32.90625 32.953125 
Q 30.671875 30.328125 28.21875 27.828125 
L 23.296875 22.859375 
Q 20.796875 20.359375 18.625 17.859375 
Q 16.453125 15.375 14.734375 12.8125 
Q 13.03125 10.25 12.0625 7.46875 
L 41.5 7.46875 
L 41.5 0 
z
" id="LiberationSansNarrow-50"/>
       </defs>
       <use xlink:href="#LiberationSansNarrow-50"/>
       <use x="45.605469" xlink:href="#LiberationSansNarrow-48"/>
       <use x="91.210938" xlink:href="#LiberationSansNarrow-48"/>
      </g>
     </g>
    </g>
    <g id="xtick_6">
     <g id="line2d_6">
      <path clip-path="url(#p22fe70653d)" d="M 395.420655 234.52 
L 395.420655 15.12 
" style="fill:none;stroke:#b0b0b0;stroke-dasharray:1.48,0.64;stroke-dashoffset:0;stroke-width:0.4;"/>
     </g>
     <g id="text_6">
      <!-- 250 -->
      <g transform="translate(385.842686 251.665625)scale(0.14 -0.14)">
       <use xlink:href="#LiberationSansNarrow-50"/>
       <use x="45.605469" xlink:href="#LiberationSansNarrow-53"/>
       <use x="91.210938" xlink:href="#LiberationSansNarrow-48"/>
      </g>
     </g>
    </g>
    <g id="xtick_7">
     <g id="line2d_7">
      <path clip-path="url(#p22fe70653d)" d="M 460.587786 234.52 
L 460.587786 15.12 
" style="fill:none;stroke:#b0b0b0;stroke-dasharray:1.48,0.64;stroke-dashoffset:0;stroke-width:0.4;"/>
     </g>
     <g id="text_7">
      <!-- 300 -->
      <g transform="translate(451.009817 251.665625)scale(0.14 -0.14)">
       <defs>
        <path d="M 42 19 
Q 42 14.265625 40.75 10.546875 
Q 39.5 6.84375 37.0625 4.265625 
Q 34.625 1.703125 31.046875 0.359375 
Q 27.484375 -0.984375 22.859375 -0.984375 
Q 17.625 -0.984375 14.03125 0.609375 
Q 10.453125 2.203125 8.125 4.8125 
Q 5.8125 7.421875 4.640625 10.765625 
Q 3.46875 14.109375 3.125 17.671875 
L 10.546875 18.5 
Q 10.890625 15.765625 11.734375 13.515625 
Q 12.59375 11.28125 14.078125 9.671875 
Q 15.578125 8.0625 17.75 7.171875 
Q 19.921875 6.296875 22.859375 6.296875 
Q 28.328125 6.296875 31.421875 9.5625 
Q 34.515625 12.84375 34.515625 19.28125 
Q 34.515625 23.09375 33.125 25.40625 
Q 31.734375 27.734375 29.6875 29.03125 
Q 27.640625 30.328125 25.21875 30.765625 
Q 22.796875 31.203125 20.75 31.203125 
L 16.65625 31.203125 
L 16.65625 38.8125 
L 20.5625 38.8125 
Q 22.609375 38.8125 24.828125 39.328125 
Q 27.046875 39.84375 28.859375 41.1875 
Q 30.671875 42.53125 31.859375 44.828125 
Q 33.0625 47.125 33.0625 50.6875 
Q 33.0625 56.203125 30.375 59.390625 
Q 27.6875 62.59375 22.46875 62.59375 
Q 17.671875 62.59375 14.734375 59.609375 
Q 11.8125 56.640625 11.328125 51.21875 
L 4.109375 51.90625 
Q 4.546875 56.453125 6.125 59.8125 
Q 7.71875 63.1875 10.171875 65.40625 
Q 12.640625 67.625 15.8125 68.71875 
Q 19 69.828125 22.5625 69.828125 
Q 27.296875 69.828125 30.6875 68.375 
Q 34.078125 66.9375 36.21875 64.46875 
Q 38.375 62.015625 39.40625 58.6875 
Q 40.4375 55.375 40.4375 51.609375 
Q 40.4375 48.578125 39.75 45.9375 
Q 39.0625 43.3125 37.625 41.203125 
Q 36.1875 39.109375 33.953125 37.59375 
Q 31.734375 36.078125 28.609375 35.296875 
L 28.609375 35.109375 
Q 32.03125 34.671875 34.546875 33.21875 
Q 37.0625 31.78125 38.71875 29.625 
Q 40.375 27.484375 41.1875 24.75 
Q 42 22.015625 42 19 
z
" id="LiberationSansNarrow-51"/>
       </defs>
       <use xlink:href="#LiberationSansNarrow-51"/>
       <use x="45.605469" xlink:href="#LiberationSansNarrow-48"/>
       <use x="91.210938" xlink:href="#LiberationSansNarrow-48"/>
      </g>
     </g>
    </g>
    <g id="xtick_8">
     <g id="line2d_8">
      <path clip-path="url(#p22fe70653d)" d="M 525.754916 234.52 
L 525.754916 15.12 
" style="fill:none;stroke:#b0b0b0;stroke-dasharray:1.48,0.64;stroke-dashoffset:0;stroke-width:0.4;"/>
     </g>
     <g id="text_8">
      <!-- 350 -->
      <g transform="translate(516.176948 251.665625)scale(0.14 -0.14)">
       <use xlink:href="#LiberationSansNarrow-51"/>
       <use x="45.605469" xlink:href="#LiberationSansNarrow-53"/>
       <use x="91.210938" xlink:href="#LiberationSansNarrow-48"/>
      </g>
     </g>
    </g>
    <g id="text_9">
     <!-- Месяцы -->
     <g transform="translate(281.943281 268.71625)scale(0.14 -0.14)">
      <defs>
       <path d="M 54.6875 0 
L 54.6875 45.90625 
Q 54.6875 48.390625 54.734375 50.96875 
Q 54.78125 53.5625 54.828125 55.71875 
Q 54.9375 58.203125 55.078125 60.546875 
Q 54.546875 58.0625 53.90625 55.609375 
Q 53.90625 55.609375 52.734375 51.171875 
Q 52.15625 48.78125 51.515625 46.875 
L 36.96875 0 
L 31.59375 0 
L 16.796875 46.875 
Q 16.546875 47.609375 16.3125 48.578125 
L 15.765625 50.6875 
L 15.140625 52.9375 
L 14.546875 55.171875 
Q 13.875 57.765625 13.234375 60.546875 
Q 13.28125 57.8125 13.375 55.125 
Q 13.484375 52.828125 13.5 50.3125 
Q 13.53125 47.796875 13.53125 45.90625 
L 13.53125 0 
L 6.734375 0 
L 6.734375 68.796875 
L 16.796875 68.796875 
L 31.78125 21.09375 
Q 32.078125 20.125 32.46875 18.578125 
Q 32.859375 17.046875 33.21875 15.421875 
Q 33.59375 13.8125 33.890625 12.375 
Q 34.1875 10.9375 34.328125 10.15625 
Q 34.421875 10.9375 34.734375 12.40625 
Q 35.0625 13.875 35.5 15.484375 
L 36.328125 18.609375 
Q 36.71875 20.125 37.0625 21.09375 
L 51.765625 68.796875 
L 61.578125 68.796875 
L 61.578125 0 
z
" id="LiberationSansNarrow-1052"/>
       <path d="M 10.6875 24.5625 
Q 10.6875 20.40625 11.5625 16.90625 
Q 12.453125 13.421875 13.90625 10.90625 
Q 15.375 8.40625 17.640625 7 
Q 19.921875 5.609375 23.140625 5.609375 
Q 27.828125 5.609375 30.65625 7.90625 
Q 33.5 10.203125 34.46875 13.71875 
L 40.828125 11.53125 
Q 40.140625 9.328125 38.921875 7.109375 
Q 37.703125 4.890625 35.640625 3.09375 
Q 33.59375 1.3125 30.53125 0.15625 
Q 27.484375 -0.984375 23.140625 -0.984375 
Q 13.53125 -0.984375 8.5 6 
Q 3.46875 12.984375 3.46875 26.765625 
Q 3.46875 34.1875 5 39.328125 
Q 6.546875 44.484375 9.171875 47.703125 
Q 11.8125 50.921875 15.328125 52.359375 
Q 18.84375 53.8125 22.859375 53.8125 
Q 28.328125 53.8125 31.984375 51.65625 
Q 39.0625 47.515625 41.015625 36.8125 
Q 41.9375 31.6875 41.9375 25.734375 
L 41.9375 24.5625 
z
M 34.71875 31.296875 
Q 34.71875 40.140625 31.421875 43.71875 
Q 28.125 47.3125 22.75 47.3125 
Q 18.953125 47.3125 15.328125 44.09375 
Q 10.9375 40.328125 10.6875 31.296875 
z
" id="LiberationSansNarrow-1077"/>
       <path d="M 11.03125 26.65625 
Q 11.03125 22.125 11.5625 18.3125 
Q 12.109375 14.5 13.375 11.734375 
Q 14.65625 8.984375 16.75 7.46875 
Q 18.84375 5.953125 21.96875 5.953125 
Q 25.828125 5.953125 28.390625 8.484375 
Q 30.953125 11.03125 31.546875 16.3125 
L 38.875 15.71875 
Q 38.53125 12.453125 37.296875 9.421875 
Q 36.078125 6.390625 34.03125 4.09375 
Q 31.984375 1.8125 29 0.40625 
Q 26.03125 -0.984375 22.171875 -0.984375 
Q 17.09375 -0.984375 13.5 1.109375 
Q 9.90625 3.21875 7.6875 6.90625 
Q 5.46875 10.59375 4.46875 15.59375 
Q 3.46875 20.609375 3.46875 26.46875 
Q 3.46875 31.78125 4.203125 35.859375 
Q 4.9375 39.9375 6.21875 42.984375 
Q 7.515625 46.046875 9.265625 48.125 
Q 11.03125 50.203125 13.109375 51.4375 
Q 15.1875 52.6875 17.453125 53.25 
Q 19.734375 53.8125 22.078125 53.8125 
Q 25.734375 53.8125 28.5625 52.59375 
Q 31.390625 51.375 33.46875 49.25 
Q 35.546875 47.125 36.8125 44.234375 
Q 38.09375 41.359375 38.625 38.03125 
L 31.203125 37.359375 
Q 30.671875 41.75 28.375 44.328125 
Q 26.078125 46.921875 21.875 46.921875 
Q 18.796875 46.921875 16.71875 45.671875 
Q 14.65625 44.4375 13.375 41.921875 
Q 12.109375 39.40625 11.5625 35.59375 
Q 11.03125 31.78125 11.03125 26.65625 
z
" id="LiberationSansNarrow-1089"/>
       <path d="M 21.4375 22.359375 
L 8.84375 0 
L 0.6875 0 
L 14.453125 23 
Q 9.234375 24.3125 6.859375 28.296875 
Q 4.5 32.28125 4.5 38.234375 
Q 4.5 45.515625 8.8125 49.171875 
Q 13.140625 52.828125 21.4375 52.828125 
L 38.71875 52.828125 
L 38.71875 0 
L 31.546875 0 
L 31.546875 22.359375 
z
M 31.546875 46.625 
L 22.171875 46.625 
Q 16.9375 46.625 14.546875 44.375 
Q 12.15625 42.140625 12.15625 37.59375 
Q 12.15625 33.015625 14.28125 30.734375 
Q 16.40625 28.46875 21.390625 28.46875 
L 31.546875 28.46875 
z
" id="LiberationSansNarrow-1103"/>
       <path d="M 12.890625 52.828125 
L 12.890625 6.390625 
L 31.984375 6.390625 
L 31.984375 52.828125 
L 39.203125 52.828125 
L 39.203125 6.390625 
L 45.0625 6.390625 
L 45.0625 -19.921875 
L 38.578125 -19.921875 
L 38.578125 0 
L 5.671875 0 
L 5.671875 52.828125 
z
" id="LiberationSansNarrow-1094"/>
       <path d="M 22.796875 30.46875 
Q 31.296875 30.46875 35.640625 26.875 
Q 39.984375 23.296875 39.984375 15.53125 
Q 39.984375 11.921875 38.90625 9.03125 
Q 37.84375 6.15625 35.671875 4.15625 
Q 33.5 2.15625 30.296875 1.078125 
Q 27.09375 0 22.859375 0 
L 5.859375 0 
L 5.859375 52.828125 
L 13.328125 52.828125 
L 13.328125 30.46875 
z
M 13.328125 6.203125 
L 21.734375 6.203125 
Q 24.609375 6.203125 26.578125 6.8125 
Q 28.5625 7.421875 29.78125 8.609375 
Q 31 9.8125 31.53125 11.546875 
Q 32.078125 13.28125 32.078125 15.53125 
Q 32.078125 20.125 29.65625 22.234375 
Q 27.25 24.359375 21.734375 24.359375 
L 13.328125 24.359375 
z
M 47.65625 0 
L 47.65625 52.828125 
L 55.125 52.828125 
L 55.125 0 
z
" id="LiberationSansNarrow-1099"/>
      </defs>
      <use xlink:href="#LiberationSansNarrow-1052"/>
      <use x="69.435547" xlink:href="#LiberationSansNarrow-1077"/>
      <use x="115.041016" xlink:href="#LiberationSansNarrow-1089"/>
      <use x="156.056641" xlink:href="#LiberationSansNarrow-1103"/>
      <use x="200.490234" xlink:href="#LiberationSansNarrow-1094"/>
      <use x="247.462891" xlink:href="#LiberationSansNarrow-1099"/>
     </g>
    </g>
   </g>
   <g id="matplotlib.axis_2">
    <g id="ytick_1">
     <g id="line2d_9">
      <path clip-path="url(#p22fe70653d)" d="M 46.19 186.570052 
L 560.88 186.570052 
" style="fill:none;stroke:#b0b0b0;stroke-dasharray:1.48,0.64;stroke-dashoffset:0;stroke-width:0.4;"/>
     </g>
     <g id="text_10">
      <!-- 1 -->
      <g transform="translate(32.804688 191.642864)scale(0.14 -0.14)">
       <use xlink:href="#LiberationSansNarrow-49"/>
      </g>
     </g>
    </g>
    <g id="ytick_2">
     <g id="line2d_10">
      <path clip-path="url(#p22fe70653d)" d="M 46.19 136.4617 
L 560.88 136.4617 
" style="fill:none;stroke:#b0b0b0;stroke-dasharray:1.48,0.64;stroke-dashoffset:0;stroke-width:0.4;"/>
     </g>
     <g id="text_11">
      <!-- 2 -->
      <g transform="translate(32.804688 141.534512)scale(0.14 -0.14)">
       <use xlink:href="#LiberationSansNarrow-50"/>
      </g>
     </g>
    </g>
    <g id="ytick_3">
     <g id="line2d_11">
      <path clip-path="url(#p22fe70653d)" d="M 46.19 86.353348 
L 560.88 86.353348 
" style="fill:none;stroke:#b0b0b0;stroke-dasharray:1.48,0.64;stroke-dashoffset:0;stroke-width:0.4;"/>
     </g>
     <g id="text_12">
      <!-- 4 -->
      <g transform="translate(32.804688 91.426161)scale(0.14 -0.14)">
       <defs>
        <path d="M 35.25 15.578125 
L 35.25 0 
L 28.46875 0 
L 28.46875 15.578125 
L 1.90625 15.578125 
L 1.90625 22.40625 
L 27.6875 68.796875 
L 35.25 68.796875 
L 35.25 22.515625 
L 43.21875 22.515625 
L 43.21875 15.578125 
z
M 28.46875 58.890625 
Q 28.375 58.640625 28.03125 57.90625 
L 27.34375 56.34375 
L 26.5625 54.59375 
Q 26.125 53.65625 25.78125 53.078125 
L 11.328125 27.09375 
Q 11.140625 26.703125 10.75 26.078125 
L 9.96875 24.8125 
L 9.1875 23.484375 
Q 8.796875 22.859375 8.546875 22.515625 
L 28.46875 22.515625 
z
" id="LiberationSansNarrow-52"/>
       </defs>
       <use xlink:href="#LiberationSansNarrow-52"/>
      </g>
     </g>
    </g>
    <g id="text_13">
     <!-- Размер портфеля -->
     <g transform="translate(25.899688 172.185938)rotate(-90)scale(0.14 -0.14)">
      <defs>
       <path d="M 50.34375 48.09375 
Q 50.34375 43.609375 49.125 39.71875 
Q 47.90625 35.84375 45.484375 32.984375 
Q 43.0625 30.125 39.421875 28.46875 
Q 35.796875 26.8125 30.953125 26.8125 
L 14.359375 26.8125 
L 14.359375 0 
L 6.734375 0 
L 6.734375 68.796875 
L 30.46875 68.796875 
Q 35.453125 68.796875 39.1875 67.3125 
Q 42.921875 65.828125 45.40625 63.109375 
Q 47.90625 60.40625 49.125 56.5625 
Q 50.34375 52.734375 50.34375 48.09375 
z
M 42.671875 48 
Q 42.671875 54.546875 39.40625 57.9375 
Q 36.140625 61.328125 29.546875 61.328125 
L 14.359375 61.328125 
L 14.359375 34.1875 
L 29.890625 34.1875 
Q 36.46875 34.1875 39.5625 37.75 
Q 42.671875 41.3125 42.671875 48 
z
" id="LiberationSansNarrow-1056"/>
       <path d="M 16.546875 -0.984375 
Q 10.015625 -0.984375 6.734375 3.21875 
Q 3.46875 7.421875 3.46875 14.75 
Q 3.46875 19.96875 5.09375 23.3125 
Q 6.734375 26.65625 9.34375 28.5625 
Q 11.96875 30.46875 15.328125 31.203125 
Q 18.703125 31.9375 22.171875 32.03125 
L 31.9375 32.234375 
L 31.9375 35.109375 
Q 31.9375 38.375 31.375 40.671875 
Q 30.8125 42.96875 29.640625 44.375 
Q 28.46875 45.796875 26.734375 46.453125 
Q 25 47.125 22.609375 47.125 
Q 20.515625 47.125 18.84375 46.75 
Q 17.1875 46.390625 15.9375 45.4375 
Q 14.703125 44.484375 13.9375 42.84375 
Q 13.1875 41.21875 12.9375 38.71875 
L 5.421875 39.546875 
Q 5.8125 42.671875 6.9375 45.28125 
Q 8.0625 47.90625 10.109375 49.796875 
Q 12.15625 51.703125 15.25 52.75 
Q 18.359375 53.8125 22.796875 53.8125 
Q 30.953125 53.8125 35.078125 49.234375 
Q 39.203125 44.671875 39.203125 36.03125 
L 39.203125 13.28125 
Q 39.203125 9.375 40.03125 7.390625 
Q 40.875 5.421875 43.265625 5.421875 
Q 43.84375 5.421875 44.453125 5.515625 
Q 45.0625 5.609375 45.609375 5.765625 
L 45.609375 0.296875 
Q 44.234375 -0.09375 42.890625 -0.28125 
Q 41.546875 -0.484375 40.046875 -0.484375 
Q 37.984375 -0.484375 36.515625 0.171875 
Q 35.0625 0.828125 34.15625 2.171875 
Q 33.25 3.515625 32.765625 5.484375 
Q 32.28125 7.46875 32.125 10.109375 
L 31.9375 10.109375 
Q 30.765625 7.5625 29.375 5.515625 
Q 27.984375 3.46875 26.140625 2.03125 
Q 24.3125 0.59375 21.9375 -0.1875 
Q 19.578125 -0.984375 16.546875 -0.984375 
z
M 18.21875 5.609375 
Q 21.6875 5.609375 24.25 7.140625 
Q 26.8125 8.6875 28.515625 11.078125 
Q 30.21875 13.484375 31.078125 16.3125 
Q 31.9375 19.140625 31.9375 21.734375 
L 31.9375 26.078125 
L 24.03125 25.875 
Q 21.390625 25.828125 19 25.40625 
Q 16.609375 25 14.8125 23.78125 
Q 13.03125 22.5625 11.953125 20.359375 
Q 10.890625 18.171875 10.890625 14.59375 
Q 10.890625 10.296875 12.796875 7.953125 
Q 14.703125 5.609375 18.21875 5.609375 
z
" id="LiberationSansNarrow-1072"/>
       <path d="M 18.3125 -0.984375 
Q 11.625 -0.984375 7.6875 2.0625 
Q 3.765625 5.125 1.953125 11.421875 
L 8.296875 13.578125 
Q 9.28125 9.765625 11.8125 7.65625 
Q 14.359375 5.5625 18.453125 5.5625 
Q 22.3125 5.5625 24.578125 7.859375 
Q 26.859375 10.15625 26.859375 14.59375 
Q 26.859375 17.484375 25.734375 19.390625 
Q 24.609375 21.296875 22.78125 22.390625 
Q 20.953125 23.484375 18.546875 23.921875 
Q 16.15625 24.359375 13.578125 24.359375 
L 13.578125 31.0625 
Q 16.109375 31.0625 18.40625 31.421875 
Q 20.703125 31.78125 22.4375 32.703125 
Q 24.171875 33.640625 25.140625 35.28125 
Q 26.125 36.921875 26.125 39.453125 
Q 26.125 43.0625 24.140625 45.15625 
Q 22.171875 47.265625 18.453125 47.265625 
Q 17.046875 47.265625 15.65625 46.921875 
Q 14.265625 46.578125 13.03125 45.765625 
Q 11.8125 44.96875 10.984375 43.625 
Q 10.15625 42.28125 9.859375 40.234375 
L 3.421875 41.21875 
Q 3.90625 44.53125 5.125 46.921875 
Q 6.34375 49.3125 8.296875 50.84375 
Q 10.25 52.390625 12.78125 53.09375 
Q 15.328125 53.8125 18.453125 53.8125 
Q 21.875 53.8125 24.625 52.78125 
Q 27.390625 51.765625 29.34375 49.90625 
Q 31.296875 48.046875 32.375 45.5 
Q 33.453125 42.96875 33.453125 39.890625 
Q 33.453125 37.109375 32.5625 34.953125 
Q 31.6875 32.8125 30.25 31.3125 
Q 28.8125 29.828125 27.046875 28.953125 
Q 25.296875 28.078125 23.53125 27.875 
L 23.53125 27.78125 
Q 25.78125 27.484375 27.75 26.484375 
Q 29.734375 25.484375 31.25 23.84375 
Q 32.765625 22.21875 33.609375 19.9375 
Q 34.46875 17.671875 34.46875 14.84375 
Q 34.46875 11.46875 33.484375 8.5625 
Q 32.515625 5.671875 30.484375 3.546875 
Q 28.46875 1.421875 25.4375 0.21875 
Q 22.40625 -0.984375 18.3125 -0.984375 
z
" id="LiberationSansNarrow-1079"/>
       <path d="M 31.546875 0 
L 25.390625 0 
L 12.40625 46.4375 
Q 12.453125 45.171875 12.515625 43.703125 
Q 12.59375 42.234375 12.59375 40.75 
Q 12.59375 39.265625 12.609375 37.859375 
Q 12.640625 36.46875 12.640625 35.359375 
L 12.640625 0 
L 5.671875 0 
L 5.671875 52.828125 
L 16.890625 52.828125 
L 25.734375 20.5625 
Q 26.65625 17.484375 27.390625 13.796875 
Q 28.125 10.109375 28.421875 6.59375 
Q 28.8125 10.109375 29.515625 13.796875 
Q 30.21875 17.484375 31.15625 20.5625 
L 39.984375 52.828125 
L 50.734375 52.828125 
L 50.734375 0 
L 43.796875 0 
L 43.796875 35.359375 
Q 43.796875 36.421875 43.8125 37.890625 
Q 43.84375 39.359375 43.921875 40.921875 
Q 44 42.484375 44.015625 43.9375 
Q 44.046875 45.40625 44.140625 46.53125 
z
" id="LiberationSansNarrow-1084"/>
       <path d="M 42.140625 26.65625 
Q 42.140625 20.65625 41.359375 15.578125 
Q 40.578125 10.5 38.6875 6.828125 
Q 36.8125 3.171875 33.765625 1.09375 
Q 30.71875 -0.984375 26.21875 -0.984375 
Q 21.578125 -0.984375 18.078125 1.171875 
Q 14.59375 3.328125 12.796875 8.203125 
L 12.546875 8.203125 
Q 12.59375 8.109375 12.609375 7.328125 
Q 12.640625 6.546875 12.671875 5.375 
Q 12.703125 4.203125 12.71875 2.75 
Q 12.75 1.3125 12.75 -0.09375 
L 12.75 -20.75 
L 5.515625 -20.75 
L 5.515625 42.046875 
Q 5.515625 43.953125 5.484375 45.703125 
Q 5.46875 47.46875 5.4375 48.90625 
Q 5.421875 50.34375 5.375 51.359375 
Q 5.328125 52.390625 5.28125 52.828125 
L 12.25 52.828125 
Q 12.3125 52.6875 12.359375 51.8125 
L 12.5 49.703125 
Q 12.546875 48.4375 12.59375 47.015625 
Q 12.640625 45.609375 12.640625 44.34375 
L 12.796875 44.34375 
Q 13.765625 46.875 15.0625 48.65625 
Q 16.359375 50.4375 18.015625 51.578125 
Q 19.671875 52.734375 21.671875 53.25 
Q 23.6875 53.765625 26.21875 53.765625 
Q 30.71875 53.765625 33.765625 51.8125 
Q 36.8125 49.859375 38.6875 46.3125 
Q 40.578125 42.78125 41.359375 37.765625 
Q 42.140625 32.765625 42.140625 26.65625 
z
M 34.578125 26.46875 
Q 34.578125 31.34375 34.109375 35.15625 
Q 33.640625 38.96875 32.4375 41.59375 
Q 31.25 44.234375 29.296875 45.59375 
Q 27.34375 46.96875 24.359375 46.96875 
Q 21.96875 46.96875 19.84375 46.140625 
Q 17.71875 45.3125 16.125 42.96875 
Q 14.546875 40.625 13.640625 36.5 
Q 12.75 32.375 12.75 25.78125 
Q 12.75 20.171875 13.5 16.28125 
Q 14.265625 12.40625 15.71875 10.015625 
Q 17.1875 7.625 19.328125 6.5625 
Q 21.484375 5.515625 24.3125 5.515625 
Q 27.34375 5.515625 29.296875 6.921875 
Q 31.25 8.34375 32.4375 11.03125 
Q 33.640625 13.71875 34.109375 17.59375 
Q 34.578125 21.484375 34.578125 26.46875 
z
" id="LiberationSansNarrow-1088"/>
       <path id="LiberationSansNarrow-32"/>
       <path d="M 38.71875 52.828125 
L 38.71875 0 
L 31.546875 0 
L 31.546875 46.4375 
L 12.890625 46.4375 
L 12.890625 0 
L 5.71875 0 
L 5.71875 52.828125 
z
" id="LiberationSansNarrow-1087"/>
       <path d="M 42.140625 26.46875 
Q 42.140625 12.59375 37.125 5.796875 
Q 32.125 -0.984375 22.609375 -0.984375 
Q 18.0625 -0.984375 14.515625 0.671875 
Q 10.984375 2.34375 8.515625 5.765625 
Q 6.0625 9.1875 4.765625 14.328125 
Q 3.46875 19.484375 3.46875 26.46875 
Q 3.46875 53.8125 22.859375 53.8125 
Q 27.875 53.8125 31.5625 52.09375 
Q 35.25 50.390625 37.59375 46.96875 
Q 39.9375 43.5625 41.03125 38.421875 
Q 42.140625 33.296875 42.140625 26.46875 
z
M 34.578125 26.46875 
Q 34.578125 32.625 33.8125 36.625 
Q 33.0625 40.625 31.546875 43.015625 
Q 30.03125 45.40625 27.859375 46.359375 
Q 25.6875 47.3125 23 47.3125 
Q 20.21875 47.3125 17.984375 46.3125 
Q 15.765625 45.3125 14.203125 42.890625 
Q 12.640625 40.484375 11.828125 36.46875 
Q 11.03125 32.46875 11.03125 26.46875 
Q 11.03125 20.3125 11.90625 16.28125 
Q 12.796875 12.25 14.328125 9.859375 
Q 15.875 7.46875 17.96875 6.484375 
Q 20.0625 5.515625 22.5625 5.515625 
Q 25.34375 5.515625 27.5625 6.46875 
Q 29.78125 7.421875 31.34375 9.8125 
Q 32.90625 12.203125 33.734375 16.25 
Q 34.578125 20.3125 34.578125 26.46875 
z
" id="LiberationSansNarrow-1086"/>
       <path d="M 1.421875 52.828125 
L 36.140625 52.828125 
L 36.140625 46.4375 
L 22.359375 46.4375 
L 22.359375 0 
L 15.1875 0 
L 15.1875 46.4375 
L 1.421875 46.4375 
z
" id="LiberationSansNarrow-1090"/>
       <path d="M 64.015625 26.65625 
Q 64.015625 20.65625 63.234375 15.578125 
Q 62.453125 10.5 60.734375 6.828125 
Q 59.03125 3.171875 56.21875 1.09375 
Q 53.421875 -0.984375 49.359375 -0.984375 
Q 45.171875 -0.984375 42.015625 1.171875 
Q 38.875 3.328125 37.15625 8.203125 
L 36.921875 8.203125 
Q 37.015625 6.5 37.0625 4.609375 
Q 37.109375 2.734375 37.109375 -0.09375 
L 37.109375 -20.75 
L 30.328125 -20.75 
L 30.328125 -0.09375 
Q 30.328125 2.546875 30.375 4.546875 
Q 30.421875 6.546875 30.515625 8.5 
L 30.328125 8.5 
Q 28.46875 3.421875 25.484375 1.21875 
Q 22.515625 -0.984375 18.0625 -0.984375 
Q 10.59375 -0.984375 7.03125 5.734375 
Q 3.46875 12.453125 3.46875 26.171875 
Q 3.46875 40.046875 7.15625 46.921875 
Q 10.84375 53.8125 18.0625 53.8125 
Q 22.5625 53.8125 25.53125 51.609375 
Q 28.515625 49.421875 30.328125 44.625 
L 30.515625 44.625 
Q 30.515625 45.125 30.46875 46.125 
Q 30.421875 47.125 30.375 48.25 
L 30.375 50.390625 
Q 30.328125 51.421875 30.328125 52 
L 30.328125 72.46875 
L 37.109375 72.46875 
L 37.109375 51.953125 
Q 37.109375 51.421875 37.078125 50.359375 
Q 37.0625 49.3125 37.0625 48.15625 
Q 37.0625 47.015625 37.03125 45.96875 
Q 37.015625 44.921875 37.015625 44.34375 
L 37.203125 44.34375 
Q 39.0625 49.421875 41.9375 51.59375 
Q 44.828125 53.765625 49.359375 53.765625 
Q 53.421875 53.765625 56.21875 51.8125 
Q 59.03125 49.859375 60.734375 46.3125 
Q 62.453125 42.78125 63.234375 37.765625 
Q 64.015625 32.765625 64.015625 26.65625 
z
M 11.03125 26.46875 
Q 11.03125 21 11.546875 17.09375 
Q 12.0625 13.1875 13.1875 10.671875 
Q 14.3125 8.15625 16.015625 6.984375 
Q 17.71875 5.8125 20.125 5.8125 
Q 22.515625 5.8125 24.390625 6.859375 
Q 26.265625 7.90625 27.5625 10.296875 
Q 28.859375 12.703125 29.53125 16.53125 
Q 30.21875 20.359375 30.328125 25.875 
L 30.328125 27.046875 
Q 30.328125 32.671875 29.640625 36.546875 
Q 28.953125 40.4375 27.65625 42.828125 
Q 26.375 45.21875 24.484375 46.265625 
Q 22.609375 47.3125 20.171875 47.3125 
Q 17.875 47.3125 16.15625 46.1875 
Q 14.453125 45.0625 13.296875 42.578125 
Q 12.15625 40.09375 11.59375 36.109375 
Q 11.03125 32.125 11.03125 26.46875 
z
M 56.453125 26.46875 
Q 56.453125 31.34375 55.984375 35.15625 
Q 55.515625 38.96875 54.46875 41.59375 
Q 53.421875 44.234375 51.65625 45.59375 
Q 49.90625 46.96875 47.3125 46.96875 
Q 45.21875 46.96875 43.375 46.140625 
Q 41.546875 45.3125 40.125 42.96875 
Q 38.71875 40.625 37.90625 36.5 
Q 37.109375 32.375 37.109375 25.78125 
L 37.109375 24.65625 
Q 37.15625 19.390625 37.859375 15.71875 
Q 38.578125 12.0625 39.859375 9.78125 
Q 41.15625 7.515625 43.015625 6.515625 
Q 44.875 5.515625 47.265625 5.515625 
Q 49.859375 5.515625 51.609375 6.921875 
Q 53.375 8.34375 54.4375 11.03125 
Q 55.515625 13.71875 55.984375 17.59375 
Q 56.453125 21.484375 56.453125 26.46875 
z
" id="LiberationSansNarrow-1092"/>
       <path d="M 34.859375 0 
L 34.859375 46.4375 
L 19.875 46.4375 
Q 18.890625 37.453125 18.03125 30.4375 
Q 17.1875 23.4375 16.3125 18.15625 
Q 15.4375 12.890625 14.40625 9.25 
Q 13.375 5.609375 11.953125 3.34375 
Q 10.546875 1.078125 8.65625 0.046875 
Q 6.78125 -0.984375 4.203125 -0.984375 
Q 3.03125 -0.984375 2.078125 -0.78125 
Q 1.125 -0.59375 0.4375 -0.34375 
L 0.4375 5.953125 
Q 0.875 5.765625 1.625 5.640625 
Q 2.390625 5.515625 3.171875 5.515625 
Q 4.59375 5.515625 5.59375 6.53125 
Q 6.59375 7.5625 7.390625 9.859375 
Q 8.203125 12.15625 8.859375 15.796875 
Q 9.515625 19.4375 10.203125 24.703125 
Q 10.890625 29.984375 11.625 36.921875 
L 13.375 52.828125 
L 42.140625 52.828125 
L 42.140625 0 
z
" id="LiberationSansNarrow-1083"/>
      </defs>
      <use xlink:href="#LiberationSansNarrow-1056"/>
      <use x="51.3125" xlink:href="#LiberationSansNarrow-1072"/>
      <use x="95.792969" xlink:href="#LiberationSansNarrow-1079"/>
      <use x="133.341797" xlink:href="#LiberationSansNarrow-1084"/>
      <use x="189.738281" xlink:href="#LiberationSansNarrow-1077"/>
      <use x="235.34375" xlink:href="#LiberationSansNarrow-1088"/>
      <use x="280.949219" xlink:href="#LiberationSansNarrow-32"/>
      <use x="303.751953" xlink:href="#LiberationSansNarrow-1087"/>
      <use x="348.185547" xlink:href="#LiberationSansNarrow-1086"/>
      <use x="393.791016" xlink:href="#LiberationSansNarrow-1088"/>
      <use x="437.146484" xlink:href="#LiberationSansNarrow-1090"/>
      <use x="474.695312" xlink:href="#LiberationSansNarrow-1092"/>
      <use x="542.175781" xlink:href="#LiberationSansNarrow-1077"/>
      <use x="584.40625" xlink:href="#LiberationSansNarrow-1083"/>
      <use x="632.208984" xlink:href="#LiberationSansNarrow-1103"/>
     </g>
    </g>
   </g>
   <g id="line2d_12">
    <path clip-path="url(#p22fe70653d)" d="M 69.585 185.598143 
L 70.888343 190.637303 
L 72.191685 192.19552 
L 73.495028 194.435708 
L 74.79837 198.73408 
L 76.101713 197.719096 
L 77.405056 199.410018 
L 78.708398 202.562529 
L 80.011741 201.885919 
L 81.315084 201.540463 
L 82.618426 203.192455 
L 83.921769 205.170103 
L 85.225111 206.407928 
L 87.831797 210.343027 
L 89.135139 217.867028 
L 90.438482 224.547273 
L 91.741825 221.795667 
L 93.045167 217.154239 
L 94.34851 214.352259 
L 95.651852 213.143958 
L 96.955195 213.906528 
L 98.258538 214.428635 
L 100.865223 211.877813 
L 102.168565 207.595591 
L 103.471908 205.44417 
L 104.775251 205.157084 
L 106.078593 201.303666 
L 109.988621 192.169905 
L 111.291964 192.097085 
L 112.595306 188.840205 
L 113.898649 187.204605 
L 115.201992 189.094283 
L 116.505334 192.65155 
L 119.112019 206.224089 
L 120.415362 208.37102 
L 121.718705 207.056546 
L 123.022047 208.976748 
L 124.32539 212.976498 
L 125.628733 215.460402 
L 126.932075 218.674154 
L 128.235418 215.614626 
L 129.53876 211.096659 
L 130.842103 213.153978 
L 132.145446 212.425926 
L 133.448788 209.049196 
L 134.752131 204.956262 
L 136.055474 203.935584 
L 137.358816 204.887004 
L 138.662159 204.758372 
L 139.965501 203.255859 
L 141.268844 196.350653 
L 142.572187 187.029815 
L 143.875529 180.085003 
L 145.178872 180.055272 
L 146.482214 181.672344 
L 147.785557 182.872744 
L 149.0889 185.758886 
L 150.392242 187.607548 
L 151.695585 191.438442 
L 152.998928 193.746424 
L 154.30227 193.259964 
L 155.605613 195.832896 
L 156.908955 196.913902 
L 158.212298 195.308074 
L 159.515641 194.992184 
L 160.818983 191.969647 
L 162.122326 184.45941 
L 163.425669 180.482467 
L 164.729011 179.045816 
L 166.032354 176.350131 
L 167.335696 172.505245 
L 168.639039 170.912482 
L 169.942382 173.578658 
L 171.245724 174.998631 
L 172.549067 176.782021 
L 173.852409 179.778764 
L 175.155752 181.42799 
L 176.459095 184.124567 
L 177.762437 187.630825 
L 179.06578 188.40436 
L 180.369123 187.329167 
L 181.672465 187.276716 
L 182.975808 188.840384 
L 185.582493 178.72894 
L 186.885836 178.885671 
L 188.189178 178.275711 
L 189.492521 182.327764 
L 190.795864 186.999631 
L 192.099206 187.617411 
L 193.402549 187.813276 
L 194.705891 187.808944 
L 196.009234 182.336193 
L 197.312577 178.407644 
L 199.919262 182.932109 
L 201.222604 186.816066 
L 203.82929 192.725302 
L 205.132632 198.106822 
L 206.435975 201.985843 
L 207.739318 203.677373 
L 209.04266 206.97194 
L 210.346003 210.82354 
L 211.649345 212.912484 
L 212.952688 212.323898 
L 214.256031 211.449892 
L 215.559373 213.94344 
L 216.862716 213.686901 
L 218.166058 213.072912 
L 219.469401 214.222455 
L 220.772744 213.684361 
L 222.076086 214.665816 
L 223.379429 211.75714 
L 224.682772 205.646997 
L 225.986114 206.273945 
L 227.289457 206.494912 
L 228.592799 201.49781 
L 229.896142 199.085348 
L 231.199485 200.417602 
L 232.502827 202.13716 
L 233.80617 201.162858 
L 235.109513 198.703441 
L 236.412855 198.757585 
L 237.716198 199.633655 
L 239.01954 200.094179 
L 241.626226 206.713643 
L 242.929568 204.214259 
L 245.536253 198.402369 
L 246.839596 193.392483 
L 248.142939 193.26101 
L 249.446281 193.911354 
L 250.749624 193.20028 
L 253.356309 195.44293 
L 254.659652 193.436586 
L 255.962994 193.646068 
L 257.266337 195.103141 
L 258.56968 195.541412 
L 259.873022 197.407631 
L 261.176365 198.521746 
L 262.479708 200.912977 
L 263.78305 201.965814 
L 265.086393 198.278087 
L 267.693078 187.053842 
L 268.996421 181.108525 
L 270.299763 176.742034 
L 271.603106 176.360476 
L 272.906448 178.185167 
L 274.209791 181.566201 
L 275.513134 185.932384 
L 276.816476 188.500979 
L 278.119819 187.896451 
L 279.423162 184.341448 
L 280.726504 183.026983 
L 282.029847 181.436243 
L 283.333189 179.392165 
L 284.636532 176.447365 
L 285.939875 173.2158 
L 287.243217 172.436481 
L 288.54656 173.51997 
L 291.153245 171.852756 
L 292.456588 170.921264 
L 293.75993 171.401755 
L 295.063273 173.259129 
L 296.366616 170.642206 
L 298.973301 163.167099 
L 300.276643 160.798412 
L 301.579986 159.727487 
L 302.883329 160.171444 
L 304.186671 160.906317 
L 305.490014 160.366094 
L 306.793357 161.925495 
L 308.096699 162.24702 
L 309.400042 162.426598 
L 310.703384 162.740484 
L 312.006727 161.49875 
L 313.31007 164.241763 
L 314.613412 164.015745 
L 315.916755 161.251402 
L 317.220097 160.972712 
L 318.52344 163.38337 
L 319.826783 162.168476 
L 321.130125 158.141281 
L 322.433468 157.213952 
L 323.736811 157.117146 
L 325.040153 159.346471 
L 326.343496 165.34044 
L 327.646838 169.912715 
L 328.950181 171.463929 
L 330.253524 172.461815 
L 331.556866 171.974386 
L 332.860209 175.207838 
L 334.163552 176.327884 
L 335.466894 171.991726 
L 336.770237 166.44155 
L 338.073579 162.483394 
L 339.376922 161.800447 
L 340.680265 160.651489 
L 341.983607 159.889287 
L 343.28695 165.614035 
L 344.590292 174.462508 
L 345.893635 178.88803 
L 347.196978 178.943576 
L 348.50032 175.045994 
L 349.803663 173.113446 
L 351.107006 171.622421 
L 352.410348 170.334799 
L 353.713691 172.99054 
L 355.017033 171.429496 
L 356.320376 164.898119 
L 357.623719 162.508422 
L 358.927061 164.269364 
L 360.230404 163.457524 
L 361.533747 166.184514 
L 362.837089 173.472353 
L 364.140432 175.717494 
L 365.443774 172.141161 
L 368.05046 157.921919 
L 369.353802 154.473062 
L 370.657145 154.658752 
L 373.26383 148.007872 
L 374.567173 149.506841 
L 375.870515 150.079091 
L 377.173858 148.06236 
L 378.477201 145.375248 
L 379.780543 146.486249 
L 381.083886 150.395381 
L 382.387228 151.317517 
L 383.690571 152.092754 
L 384.993914 159.463287 
L 386.297256 166.006841 
L 387.600599 166.665165 
L 388.903942 164.615621 
L 390.207284 163.649471 
L 391.510627 165.646974 
L 392.813969 165.395023 
L 394.117312 163.206164 
L 395.420655 163.484809 
L 396.723997 164.517479 
L 398.02734 164.925306 
L 399.330682 164.886712 
L 400.634025 163.92885 
L 401.937368 158.640548 
L 403.24071 154.672839 
L 404.544053 154.054107 
L 405.847396 152.443373 
L 407.150738 156.673351 
L 408.454081 159.594357 
L 409.757423 154.013424 
L 411.060766 149.412633 
L 412.364109 145.860538 
L 413.667451 147.274576 
L 414.970794 149.724229 
L 416.274136 146.813331 
L 417.577479 141.553465 
L 418.880822 140.321651 
L 420.184164 138.48997 
L 421.487507 130.732253 
L 422.79085 126.90067 
L 424.094192 124.402211 
L 425.397535 122.290797 
L 426.700877 121.310029 
L 428.00422 119.896397 
L 429.307563 116.840904 
L 430.610905 116.730675 
L 431.914248 118.236875 
L 433.217591 116.702564 
L 434.520933 119.938447 
L 435.824276 121.676739 
L 437.127618 119.687633 
L 438.430961 122.640539 
L 439.734304 123.946165 
L 441.037646 119.136944 
L 442.340989 117.126861 
L 443.644331 114.02495 
L 444.947674 110.261299 
L 446.251017 112.668011 
L 447.554359 107.676774 
L 448.857702 98.02452 
L 451.464387 98.441185 
L 452.76773 93.994436 
L 454.071072 93.51959 
L 455.374415 94.04445 
L 456.677758 92.187919 
L 457.9811 93.041014 
L 459.284443 93.590469 
L 460.587786 94.455997 
L 461.891128 99.626719 
L 463.194471 100.450483 
L 464.497813 96.181567 
L 465.801156 92.827347 
L 467.104499 95.377793 
L 468.407841 101.129063 
L 469.711184 101.377355 
L 471.014526 99.700869 
L 472.317869 100.799823 
L 473.621212 101.327436 
L 474.924554 96.611855 
L 476.227897 88.292938 
L 477.53124 84.90968 
L 478.834582 82.159763 
L 480.137925 75.928198 
L 481.441267 77.743587 
L 482.74461 83.234885 
L 484.047953 78.648843 
L 485.351295 71.80381 
L 486.654638 69.477645 
L 487.957981 69.028818 
L 489.261323 71.548755 
L 490.564666 71.909514 
L 491.868008 68.794267 
L 493.171351 66.557935 
L 495.778036 74.416286 
L 497.081379 71.878604 
L 498.384721 73.047965 
L 499.688064 82.229881 
L 500.991407 89.541171 
L 502.294749 89.629325 
L 503.598092 89.346278 
L 504.901435 90.137271 
L 506.204777 88.098662 
L 507.50812 86.867247 
L 508.811462 87.954712 
L 510.114805 85.479823 
L 511.418148 82.023654 
L 512.72149 81.125693 
L 514.024833 79.803522 
L 515.328175 77.49386 
L 516.631518 76.528098 
L 517.934861 79.626736 
L 519.238203 83.647148 
L 520.541546 84.933353 
L 521.844889 85.35773 
L 523.148231 87.233411 
L 524.451574 87.504831 
L 525.754916 87.643905 
L 527.058259 89.927342 
L 528.361602 91.422165 
L 529.664944 91.892742 
L 530.968287 91.661433 
L 533.574972 90.032653 
L 534.878315 87.662371 
L 536.181657 84.953983 
L 537.485 80.757255 
L 537.485 80.757255 
" style="fill:none;stroke:#1f77b4;stroke-linecap:square;"/>
   </g>
   <g id="line2d_13">
    <path clip-path="url(#p22fe70653d)" d="M 69.585 177.059785 
L 70.888343 175.261262 
L 72.191685 170.965576 
L 73.495028 164.899874 
L 74.79837 166.112675 
L 77.405056 156.624222 
L 78.708398 157.080576 
L 80.011741 155.073194 
L 81.315084 151.06145 
L 82.618426 147.863391 
L 83.921769 145.733046 
L 85.225111 142.390368 
L 86.528454 139.548794 
L 87.831797 130.445478 
L 89.135139 125.471867 
L 90.438482 130.690223 
L 91.741825 132.755627 
L 93.045167 131.713357 
L 94.34851 129.940894 
L 95.651852 126.873052 
L 96.955195 125.213987 
L 98.258538 125.394006 
L 99.56188 124.778764 
L 100.865223 127.421943 
L 102.168565 126.029529 
L 103.471908 123.758218 
L 104.775251 126.579068 
L 106.078593 126.473009 
L 107.381936 127.062673 
L 108.685279 127.227414 
L 109.988621 124.387744 
L 111.291964 126.751574 
L 112.595306 125.510215 
L 115.201992 117.063821 
L 116.505334 109.879758 
L 117.808677 105.37663 
L 119.112019 105.442025 
L 120.415362 106.978204 
L 121.718705 102.931097 
L 123.022047 98.376823 
L 124.32539 96.717085 
L 125.628733 93.393419 
L 126.932075 97.566014 
L 128.235418 99.859424 
L 129.53876 93.93079 
L 130.842103 94.860458 
L 132.145446 97.217899 
L 133.448788 98.901427 
L 134.752131 96.729294 
L 136.055474 94.076879 
L 137.358816 93.764577 
L 138.662159 94.403059 
L 141.268844 106.021696 
L 142.572187 107.645264 
L 143.875529 102.822678 
L 145.178872 100.051203 
L 146.482214 98.687364 
L 147.785557 95.197837 
L 149.0889 93.83742 
L 150.392242 89.666854 
L 151.695585 88.339452 
L 152.998928 89.31279 
L 154.30227 85.270945 
L 155.605613 84.64407 
L 156.908955 86.213695 
L 158.212298 84.823128 
L 159.515641 87.219162 
L 160.818983 93.156782 
L 162.122326 92.589835 
L 163.425669 91.1587 
L 164.729011 92.586574 
L 166.032354 94.608029 
L 167.335696 93.450526 
L 168.639039 88.768833 
L 169.942382 87.900005 
L 171.245724 85.926407 
L 172.549067 82.797076 
L 173.852409 81.877885 
L 175.155752 79.025543 
L 176.459095 75.857769 
L 177.762437 76.233904 
L 179.06578 77.160633 
L 180.369123 75.899115 
L 181.672465 73.398864 
L 182.975808 79.206601 
L 184.27915 81.468884 
L 185.582493 77.718292 
L 186.885836 77.812206 
L 188.189178 72.22474 
L 189.492521 68.572546 
L 190.795864 69.846089 
L 193.402549 68.780323 
L 194.705891 74.302122 
L 196.009234 75.00674 
L 197.312577 69.659265 
L 198.615919 67.680578 
L 199.919262 63.980616 
L 201.222604 62.287992 
L 202.525947 59.91414 
L 203.82929 54.940407 
L 205.132632 53.0013 
L 206.435975 52.686744 
L 209.04266 46.269211 
L 210.346003 45.507276 
L 211.649345 46.77548 
L 212.952688 46.861453 
L 214.256031 42.99544 
L 215.559373 44.132888 
L 216.862716 44.128272 
L 218.166058 41.939162 
L 219.469401 42.651557 
L 220.772744 40.704651 
L 222.076086 44.004532 
L 223.379429 48.72563 
L 224.682772 44.052243 
L 225.986114 43.638698 
L 227.289457 48.883443 
L 228.592799 48.278012 
L 229.896142 44.91264 
L 231.199485 43.226011 
L 233.80617 46.532513 
L 235.109513 44.599796 
L 236.412855 43.161781 
L 237.716198 42.659948 
L 239.01954 38.54372 
L 240.322883 36.469463 
L 241.626226 40.602931 
L 244.232911 43.23844 
L 245.536253 46.753509 
L 246.839596 43.631618 
L 248.142939 42.38231 
L 249.446281 43.112577 
L 250.749624 40.977714 
L 252.052967 39.970322 
L 253.356309 42.420431 
L 255.962994 38.689809 
L 257.266337 38.603481 
L 258.56968 36.337122 
L 259.873022 35.72742 
L 261.176365 33.257995 
L 262.479708 33.021085 
L 263.78305 37.377723 
L 265.086393 41.095876 
L 267.693078 47.168776 
L 268.996421 48.361216 
L 270.299763 45.955044 
L 271.603106 43.31158 
L 274.209791 36.780515 
L 275.513134 35.985505 
L 276.816476 37.757983 
L 278.119819 41.071603 
L 279.423162 40.199963 
L 280.726504 40.906206 
L 282.029847 41.971303 
L 284.636532 45.447297 
L 285.939875 44.172207 
L 287.243217 42.182818 
L 288.54656 43.371731 
L 291.153245 43.8177 
L 292.456588 42.435864 
L 293.75993 40.301067 
L 295.063273 43.989595 
L 296.366616 46.498106 
L 297.669958 48.189899 
L 298.973301 48.492504 
L 300.276643 48.069274 
L 301.579986 46.673021 
L 302.883329 45.805898 
L 304.186671 46.54337 
L 305.490014 44.198378 
L 306.793357 44.435477 
L 308.096699 44.138001 
L 309.400042 43.612231 
L 310.703384 44.918938 
L 312.006727 40.859858 
L 313.31007 42.396891 
L 314.613412 45.124952 
L 315.916755 43.623213 
L 317.220097 40.493823 
L 318.52344 42.970425 
L 319.826783 46.576796 
L 321.130125 45.106469 
L 322.433468 44.450103 
L 323.736811 41.642544 
L 325.040153 35.905134 
L 326.343496 33.895291 
L 327.646838 34.492677 
L 328.950181 34.013888 
L 330.253524 34.900498 
L 331.556866 30.758177 
L 332.860209 31.098459 
L 334.163552 36.401172 
L 335.466894 39.999862 
L 336.770237 41.122369 
L 338.073579 39.452844 
L 339.376922 40.15752 
L 340.680265 40.1663 
L 343.28695 26.137485 
L 344.590292 25.941405 
L 345.893635 28.181338 
L 347.196978 32.417208 
L 348.50032 32.212367 
L 351.107006 33.049996 
L 352.410348 29.151835 
L 353.713691 32.232629 
L 355.017033 38.542339 
L 356.320376 37.384158 
L 357.623719 33.884002 
L 358.927061 35.626282 
L 360.230404 31.931627 
L 361.533747 25.092727 
L 362.837089 26.511808 
L 364.140432 31.653698 
L 365.443774 37.681632 
L 366.747117 41.26627 
L 368.05046 41.090018 
L 369.353802 38.79156 
L 370.657145 42.616847 
L 371.960487 44.179308 
L 373.26383 40.534628 
L 374.567173 40.599157 
L 375.870515 43.062368 
L 377.173858 44.824449 
L 378.477201 41.929445 
L 379.780543 38.023324 
L 381.083886 39.064056 
L 382.387228 38.589151 
L 383.690571 30.598894 
L 384.993914 27.260744 
L 387.600599 32.66359 
L 388.903942 32.4886 
L 390.207284 29.585656 
L 391.510627 30.891346 
L 392.813969 33.114935 
L 394.117312 31.467448 
L 395.420655 30.36306 
L 396.723997 30.390366 
L 398.02734 30.571013 
L 399.330682 31.538605 
L 400.634025 36.872059 
L 401.937368 38.278179 
L 403.24071 36.65557 
L 404.544053 38.041159 
L 405.847396 32.285541 
L 407.150738 31.299906 
L 408.454081 39.16299 
L 409.757423 41.131197 
L 411.060766 42.471857 
L 412.364109 38.807438 
L 413.667451 36.776923 
L 416.274136 45.60237 
L 417.577479 43.966718 
L 418.880822 45.279879 
L 420.184164 52.937536 
L 421.487507 52.831119 
L 422.79085 53.436965 
L 424.094192 54.360027 
L 425.397535 54.228769 
L 426.700877 55.224876 
L 428.00422 57.829974 
L 430.610905 54.39298 
L 431.914248 56.935243 
L 433.217591 52.388285 
L 434.520933 52.220373 
L 435.824276 55.412315 
L 437.127618 50.934154 
L 438.430961 51.100609 
L 439.734304 57.233917 
L 441.037646 56.767088 
L 443.644331 61.587178 
L 444.947674 56.736608 
L 446.251017 63.705761 
L 447.554359 71.761416 
L 448.857702 66.068803 
L 450.161045 65.9539 
L 451.464387 71.074459 
L 452.76773 69.099108 
L 454.071072 68.23751 
L 455.374415 70.625911 
L 456.677758 68.619378 
L 457.9811 68.484366 
L 459.284443 67.823819 
L 460.587786 62.490059 
L 461.891128 64.485222 
L 463.194471 69.773131 
L 464.497813 71.161281 
L 467.104499 61.381501 
L 468.407841 64.36209 
L 469.711184 66.412595 
L 471.014526 64.251276 
L 472.317869 64.30029 
L 473.621212 69.939821 
L 474.924554 76.687926 
L 476.227897 75.842824 
L 477.53124 77.067595 
L 478.834582 82.57608 
L 481.441267 71.922631 
L 482.74461 80.226766 
L 484.047953 85.399149 
L 485.351295 84.205885 
L 486.654638 83.445159 
L 487.957981 80.397679 
L 489.261323 81.459408 
L 490.564666 85.224419 
L 491.868008 86.041132 
L 493.171351 80.313363 
L 494.474694 78.290631 
L 495.778036 83.377365 
L 497.081379 80.687405 
L 498.384721 71.056057 
L 499.688064 68.051541 
L 500.991407 72.137086 
L 502.294749 72.57147 
L 503.598092 71.587575 
L 504.901435 74.400628 
L 506.204777 74.710525 
L 507.50812 72.863015 
L 508.811462 76.340139 
L 510.114805 78.917231 
L 511.418148 78.059028 
L 512.72149 79.122678 
L 514.024833 81.062115 
L 515.328175 80.931641 
L 516.631518 76.978503 
L 517.934861 74.278831 
L 519.238203 75.182689 
L 520.541546 75.518607 
L 521.844889 73.734341 
L 523.148231 74.578263 
L 524.451574 74.668777 
L 525.754916 72.268981 
L 527.058259 71.968513 
L 528.361602 72.379819 
L 529.664944 73.006675 
L 530.968287 73.841358 
L 532.27163 74.487735 
L 533.574972 76.778716 
L 534.878315 78.60322 
L 536.181657 81.916575 
L 537.485 80.757255 
L 537.485 80.757255 
" style="fill:none;stroke:#ff7f0e;stroke-linecap:square;"/>
   </g>
   <g id="line2d_14">
    <path clip-path="url(#p22fe70653d)" d="M 69.585 181.202978 
L 70.888343 182.541247 
L 72.191685 180.804 
L 73.495028 178.169742 
L 74.79837 180.598726 
L 76.101713 177.293114 
L 77.405056 174.896899 
L 78.708398 176.30216 
L 80.011741 174.75472 
L 81.315084 171.981638 
L 82.618426 170.358923 
L 83.921769 169.50768 
L 85.225111 168.41898 
L 86.528454 167.873711 
L 87.831797 163.728896 
L 89.135139 163.863363 
L 90.438482 169.645364 
L 91.741825 169.826931 
L 93.045167 167.326923 
L 95.651852 162.82663 
L 96.955195 162.146427 
L 98.258538 162.463151 
L 99.56188 161.61127 
L 100.865223 162.233358 
L 102.168565 159.341781 
L 103.471908 157.133239 
L 104.775251 158.310895 
L 106.078593 156.179373 
L 107.381936 154.771212 
L 108.685279 153.031112 
L 109.988621 150.154173 
L 111.291964 151.11671 
L 112.595306 148.701115 
L 113.898649 145.956866 
L 115.201992 145.225235 
L 116.505334 143.21252 
L 117.808677 143.844574 
L 119.112019 146.559176 
L 120.415362 148.340172 
L 121.718705 145.373295 
L 123.022047 143.280663 
L 124.32539 143.661943 
L 125.628733 142.327726 
L 126.932075 146.179079 
L 128.235418 146.626578 
L 129.53876 141.193105 
L 130.842103 142.514093 
L 132.145446 143.312327 
L 133.448788 142.367514 
L 134.752131 139.174573 
L 136.055474 137.390156 
L 137.358816 137.743782 
L 138.662159 137.978684 
L 139.965501 139.909302 
L 141.268844 138.349195 
L 142.572187 133.257685 
L 143.875529 127.087894 
L 145.178872 126.054168 
L 146.482214 126.552138 
L 147.785557 125.369549 
L 149.0889 126.032437 
L 150.392242 124.623415 
L 151.695585 125.56392 
L 152.998928 127.109319 
L 154.30227 124.562035 
L 155.605613 125.243962 
L 156.908955 126.615942 
L 158.212298 125.13805 
L 159.515641 126.420669 
L 160.818983 128.503179 
L 162.122326 124.760503 
L 163.425669 122.045258 
L 164.729011 122.001473 
L 166.032354 121.537757 
L 167.335696 118.93018 
L 168.639039 115.913097 
L 169.942382 116.908959 
L 171.245724 116.68487 
L 172.549067 116.017691 
L 173.852409 117.001323 
L 175.155752 116.270985 
L 176.459095 115.763135 
L 177.762437 117.510896 
L 179.06578 118.360987 
L 181.672465 115.905679 
L 182.975808 119.596649 
L 184.27915 118.09656 
L 185.582493 113.615779 
L 186.885836 113.743348 
L 188.189178 110.779351 
L 189.492521 111.01907 
L 190.795864 113.944105 
L 192.099206 113.962971 
L 193.402549 113.774554 
L 194.705891 116.480496 
L 196.009234 113.912639 
L 197.312577 109.32847 
L 198.615919 109.566465 
L 199.919262 108.934106 
L 201.222604 109.977583 
L 202.525947 110.091022 
L 203.82929 108.704286 
L 205.132632 109.862712 
L 206.435975 111.241541 
L 207.739318 109.850791 
L 209.04266 109.136604 
L 211.649345 112.308959 
L 212.952688 112.069537 
L 214.256031 109.634842 
L 215.559373 111.410852 
L 216.862716 111.28809 
L 218.166058 109.834089 
L 219.469401 110.748987 
L 220.772744 109.450226 
L 222.076086 111.679856 
L 223.379429 112.748036 
L 224.682772 107.364272 
L 225.986114 107.469102 
L 227.289457 110.176398 
L 229.896142 104.418436 
L 231.199485 104.30294 
L 232.502827 105.951454 
L 233.80617 106.278503 
L 235.109513 104.069282 
L 236.412855 103.412127 
L 237.716198 103.624536 
L 239.01954 101.833598 
L 240.322883 102.475757 
L 241.626226 106.119132 
L 242.929568 105.491177 
L 244.232911 104.636987 
L 245.536253 104.62907 
L 246.839596 100.456674 
L 248.142939 99.830814 
L 249.446281 100.516648 
L 250.749624 99.170081 
L 252.052967 99.345804 
L 253.356309 101.052646 
L 254.659652 99.14454 
L 255.962994 98.376258 
L 257.266337 99.057512 
L 258.56968 98.116387 
L 259.873022 98.697697 
L 261.176365 97.914636 
L 262.479708 98.886401 
L 263.78305 101.719792 
L 265.086393 101.886734 
L 266.389735 100.576896 
L 267.693078 98.927584 
L 268.996421 96.093656 
L 270.299763 92.551456 
L 271.603106 91.217642 
L 272.906448 90.511844 
L 274.209791 90.317043 
L 275.513134 91.847942 
L 276.816476 93.971086 
L 278.119819 95.537989 
L 279.423162 93.439767 
L 282.029847 93.01423 
L 283.333189 92.966395 
L 284.636532 92.321687 
L 285.939875 90.047882 
L 287.243217 88.677754 
L 288.54656 89.813936 
L 291.153245 89.194822 
L 292.456588 88.041263 
L 293.75993 87.218275 
L 295.063273 89.990792 
L 296.366616 89.873737 
L 297.669958 88.649313 
L 298.973301 86.779046 
L 300.276643 85.272214 
L 301.579986 84.058065 
L 302.883329 83.921165 
L 304.186671 84.657338 
L 305.490014 83.209115 
L 306.793357 84.096102 
L 308.096699 84.100777 
L 309.400042 83.917692 
L 310.703384 84.741555 
L 312.006727 82.04377 
L 313.31007 84.155137 
L 314.613412 85.46744 
L 315.916755 83.351397 
L 317.220097 81.601159 
L 318.52344 84.046175 
L 319.826783 85.201728 
L 321.130125 82.399065 
L 322.433468 81.600183 
L 323.736811 80.206962 
L 325.040153 78.479223 
L 326.343496 80.276896 
L 327.646838 82.68325 
L 328.950181 83.107444 
L 330.253524 84.043145 
L 331.556866 81.489805 
L 332.860209 83.055804 
L 334.163552 86.577368 
L 335.466894 86.09982 
L 336.770237 83.626465 
L 338.073579 80.688448 
L 339.376922 80.615317 
L 340.680265 79.970133 
L 341.983607 76.401742 
L 343.28695 76.088249 
L 344.590292 80.287152 
L 345.893635 83.546772 
L 347.196978 85.817945 
L 348.50032 83.82741 
L 349.803663 83.079041 
L 351.107006 82.542112 
L 352.410348 79.954779 
L 353.713691 82.823748 
L 355.017033 85.09821 
L 356.320376 81.062516 
L 357.623719 78.165184 
L 358.927061 79.917559 
L 360.230404 77.767901 
L 361.533747 75.850286 
L 362.837089 80.13207 
L 364.140432 83.87584 
L 365.443774 85.060746 
L 366.747117 83.014093 
L 368.05046 79.119349 
L 369.353802 76.173654 
L 370.657145 77.92164 
L 371.960487 76.563755 
L 373.26383 73.168596 
L 374.567173 74.079239 
L 375.870515 75.42561 
L 377.173858 74.920165 
L 378.477201 72.151139 
L 379.780543 71.241799 
L 381.083886 73.958056 
L 382.387228 74.178296 
L 383.690571 70.39573 
L 384.993914 71.839736 
L 386.297256 76.238523 
L 387.600599 78.007668 
L 388.903942 77.035234 
L 390.207284 74.956007 
L 391.510627 76.552853 
L 392.813969 77.727131 
L 394.117312 75.847409 
L 395.420655 75.334335 
L 396.723997 75.787424 
L 398.02734 76.081572 
L 399.330682 76.54511 
L 400.634025 78.647553 
L 401.937368 76.465745 
L 403.24071 73.549877 
L 404.544053 73.815248 
L 405.847396 70.36106 
L 407.150738 72.187713 
L 408.454081 77.388321 
L 411.060766 73.005219 
L 412.364109 69.407379 
L 413.667451 69.078626 
L 414.970794 72.620256 
L 416.274136 73.222241 
L 417.577479 69.678642 
L 418.880822 69.624978 
L 420.184164 71.990737 
L 421.487507 67.395456 
L 422.79085 65.308632 
L 424.094192 64.111371 
L 425.397535 62.735644 
L 426.700877 62.476757 
L 428.00422 62.492228 
L 429.307563 60.141768 
L 430.610905 59.190743 
L 431.914248 61.21409 
L 433.217591 58.165731 
L 434.520933 59.653236 
L 435.824276 62.143101 
L 437.127618 58.862643 
L 438.430961 60.344543 
L 439.734304 64.18177 
L 441.037646 61.580899 
L 442.340989 61.719532 
L 443.644331 61.274916 
L 444.947674 56.965763 
L 446.251017 61.634854 
L 447.554359 62.716938 
L 448.857702 54.792536 
L 450.161045 54.865407 
L 451.464387 57.145226 
L 452.76773 53.711794 
L 454.071072 53.079722 
L 455.374415 54.357586 
L 456.677758 52.440871 
L 457.9811 52.895647 
L 459.284443 52.952902 
L 460.587786 50.652355 
L 461.891128 54.149866 
L 463.194471 57.315875 
L 464.497813 55.916219 
L 465.801156 51.863956 
L 467.104499 50.50836 
L 468.407841 54.7823 
L 469.711184 55.994539 
L 471.014526 54.059831 
L 472.317869 54.596811 
L 473.621212 57.824768 
L 474.924554 58.836636 
L 476.227897 54.158086 
L 477.53124 52.923276 
L 478.834582 53.841634 
L 480.137925 47.913753 
L 481.441267 46.676488 
L 482.74461 53.423918 
L 484.047953 52.987364 
L 485.351295 48.39957 
L 486.654638 46.679955 
L 487.957981 45.21983 
L 489.261323 47.162533 
L 490.564666 48.85994 
L 491.868008 47.683944 
L 493.171351 43.728287 
L 494.474694 44.668241 
L 495.778036 49.157027 
L 497.081379 46.540873 
L 498.384721 41.940608 
L 499.688064 44.13448 
L 500.991407 49.512537 
L 502.294749 49.809845 
L 503.598092 49.103011 
L 504.901435 51.112274 
L 506.204777 50.471559 
L 507.50812 48.93144 
L 508.811462 51.208952 
L 510.114805 51.184966 
L 511.418148 48.954865 
L 512.72149 48.967252 
L 514.024833 49.129474 
L 515.328175 47.791283 
L 516.631518 45.489635 
L 517.934861 45.908027 
L 519.238203 48.439974 
L 520.541546 49.26565 
L 521.844889 48.607616 
L 523.148231 49.965577 
L 524.451574 50.145842 
L 525.754916 48.993691 
L 528.361602 50.867442 
L 529.664944 51.420122 
L 530.968287 51.7466 
L 532.27163 51.713997 
L 533.574972 52.462668 
L 534.878315 52.183007 
L 536.181657 52.369465 
L 537.485 49.585478 
L 537.485 49.585478 
" style="fill:none;stroke:#2ca02c;stroke-linecap:square;"/>
   </g>
   <g id="legend_1">
    <g id="patch_3">
     <path d="M 54.3534 74.556112 
L 109.911897 74.556112 
Q 112.244297 74.556112 112.244297 72.223712 
L 112.244297 23.2834 
Q 112.244297 20.951 109.911897 20.951 
L 54.3534 20.951 
Q 52.021 20.951 52.021 23.2834 
L 52.021 72.223712 
Q 52.021 74.556112 54.3534 74.556112 
z
" style="fill:#ffffff;opacity:0.8;stroke:#cccccc;stroke-linejoin:miter;"/>
    </g>
    <g id="line2d_15">
     <path d="M 56.6858 29.985406 
L 80.0098 29.985406 
" style="fill:none;stroke:#1f77b4;stroke-linecap:square;"/>
    </g>
    <g id="line2d_16"/>
    <g id="text_14">
     <!-- А -->
     <g transform="translate(89.3394 34.067106)scale(0.11662 -0.11662)">
      <defs>
       <path d="M 46.734375 0 
L 40.28125 20.125 
L 14.546875 20.125 
L 8.109375 0 
L 0.140625 0 
L 23.1875 68.796875 
L 31.890625 68.796875 
L 54.546875 0 
z
M 30.765625 50.09375 
Q 30.125 52.046875 29.546875 54.046875 
L 28.515625 57.71875 
L 27.734375 60.453125 
Q 27.4375 61.53125 27.4375 61.765625 
Q 27.34375 61.53125 27.078125 60.40625 
Q 26.8125 59.28125 26.375 57.625 
L 25.296875 53.953125 
L 24.125 50 
L 16.890625 27.390625 
L 37.984375 27.390625 
z
" id="LiberationSansNarrow-1040"/>
      </defs>
      <use xlink:href="#LiberationSansNarrow-1040"/>
     </g>
    </g>
    <g id="line2d_17">
     <path d="M 56.6858 46.687576 
L 80.0098 46.687576 
" style="fill:none;stroke:#ff7f0e;stroke-linecap:square;"/>
    </g>
    <g id="line2d_18"/>
    <g id="text_15">
     <!-- Б -->
     <g transform="translate(89.3394 50.769276)scale(0.11662 -0.11662)">
      <defs>
       <path d="M 49.5625 20.171875 
Q 49.5625 15.921875 48.34375 12.25 
Q 47.125 8.59375 44.703125 5.859375 
Q 42.28125 3.125 38.640625 1.5625 
Q 35.015625 0 30.125 0 
L 6.734375 0 
L 6.734375 68.796875 
L 43.796875 68.796875 
L 43.796875 61.1875 
L 14.359375 61.1875 
L 14.359375 39.703125 
L 29.6875 39.703125 
Q 34.671875 39.703125 38.40625 38.28125 
Q 42.140625 36.859375 44.609375 34.296875 
Q 47.078125 31.734375 48.3125 28.140625 
Q 49.5625 24.5625 49.5625 20.171875 
z
M 41.890625 20.0625 
Q 41.890625 25.984375 38.59375 29.125 
Q 35.296875 32.28125 28.765625 32.28125 
L 14.359375 32.28125 
L 14.359375 7.375 
L 29.046875 7.375 
Q 35.59375 7.375 38.734375 10.6875 
Q 41.890625 14.015625 41.890625 20.0625 
z
" id="LiberationSansNarrow-1041"/>
      </defs>
      <use xlink:href="#LiberationSansNarrow-1041"/>
     </g>
    </g>
    <g id="line2d_19">
     <path d="M 56.6858 63.389747 
L 80.0098 63.389747 
" style="fill:none;stroke:#2ca02c;stroke-linecap:square;"/>
    </g>
    <g id="line2d_20"/>
    <g id="text_16">
     <!-- А+Б -->
     <g transform="translate(89.3394 67.471447)scale(0.11662 -0.11662)">
      <defs>
       <path d="M 26.859375 29.6875 
L 26.859375 8.796875 
L 21 8.796875 
L 21 29.6875 
L 4 29.6875 
L 4 36.8125 
L 21 36.8125 
L 21 57.71875 
L 26.859375 57.71875 
L 26.859375 36.8125 
L 43.84375 36.8125 
L 43.84375 29.6875 
z
" id="LiberationSansNarrow-43"/>
      </defs>
      <use xlink:href="#LiberationSansNarrow-1040"/>
      <use x="54.6875" xlink:href="#LiberationSansNarrow-43"/>
      <use x="102.587891" xlink:href="#LiberationSansNarrow-1041"/>
     </g>
    </g>
   </g>
  </g>
 </g>
 <defs>
  <clipPath id="p22fe70653d">
   <rect height="219.4" width="514.69" x="46.19" y="15.12"/>
  </clipPath>
 </defs>
</svg>
