<?xml version="1.0" encoding="utf-8" standalone="no"?>
<!DOCTYPE svg PUBLIC "-//W3C//DTD SVG 1.1//EN"
  "http://www.w3.org/Graphics/SVG/1.1/DTD/svg11.dtd">
<!-- Created with matplotlib (https://matplotlib.org/) -->
<svg height="288pt" version="1.1" viewBox="0 0 576 288" width="576pt" xmlns="http://www.w3.org/2000/svg" xmlns:xlink="http://www.w3.org/1999/xlink">
 <metadata>
  <rdf:RDF xmlns:cc="http://creativecommons.org/ns#" xmlns:dc="http://purl.org/dc/elements/1.1/" xmlns:rdf="http://www.w3.org/1999/02/22-rdf-syntax-ns#">
   <cc:Work>
    <dc:type rdf:resource="http://purl.org/dc/dcmitype/StillImage"/>
    <dc:date>2021-08-22T15:19:20.364681</dc:date>
    <dc:format>image/svg+xml</dc:format>
    <dc:creator>
     <cc:Agent>
      <dc:title>Matplotlib v3.3.4, https://matplotlib.org/</dc:title>
     </cc:Agent>
    </dc:creator>
   </cc:Work>
  </rdf:RDF>
 </metadata>
 <defs>
  <style type="text/css">*{stroke-linecap:butt;stroke-linejoin:round;}</style>
 </defs>
 <g id="figure_1">
  <g id="patch_1">
   <path d="M 0 288 
L 576 288 
L 576 0 
L 0 0 
z
" style="fill:#ffffff;"/>
  </g>
  <g id="axes_1">
   <g id="patch_2">
    <path d="M 62.12 234.52 
L 560.88 234.52 
L 560.88 15.12 
L 62.12 15.12 
z
" style="fill:#ffffff;"/>
   </g>
   <g id="matplotlib.axis_1">
    <g id="xtick_1">
     <g id="line2d_1">
      <path clip-path="url(#p0534d08b1f)" d="M 84.790909 234.52 
L 84.790909 15.12 
" style="fill:none;stroke:#b0b0b0;stroke-dasharray:1.48,0.64;stroke-dashoffset:0;stroke-width:0.4;"/>
     </g>
     <g id="text_1">
      <!-- 0 -->
      <g transform="translate(81.598253 251.665625)scale(0.14 -0.14)">
       <defs>
        <path d="M 42.390625 34.421875 
Q 42.390625 24.515625 40.84375 17.75 
Q 39.3125 10.984375 36.640625 6.8125 
Q 33.984375 2.640625 30.390625 0.828125 
Q 26.8125 -0.984375 22.703125 -0.984375 
Q 18.609375 -0.984375 15.03125 0.828125 
Q 11.46875 2.640625 8.828125 6.78125 
Q 6.203125 10.9375 4.703125 17.703125 
Q 3.21875 24.46875 3.21875 34.421875 
Q 3.21875 44.828125 4.703125 51.640625 
Q 6.203125 58.453125 8.828125 62.5 
Q 11.46875 66.546875 15.078125 68.1875 
Q 18.703125 69.828125 22.953125 69.828125 
Q 27 69.828125 30.53125 68.1875 
Q 34.078125 66.546875 36.71875 62.5 
Q 39.359375 58.453125 40.875 51.640625 
Q 42.390625 44.828125 42.390625 34.421875 
z
M 35.0625 34.421875 
Q 35.0625 42.625 34.28125 48.0625 
Q 33.5 53.515625 31.9375 56.765625 
Q 30.375 60.015625 28.09375 61.359375 
Q 25.828125 62.703125 22.953125 62.703125 
Q 19.921875 62.703125 17.578125 61.328125 
Q 15.234375 59.96875 13.671875 56.71875 
Q 12.109375 53.46875 11.296875 48.015625 
Q 10.5 42.578125 10.5 34.421875 
Q 10.5 26.515625 11.296875 21.09375 
Q 12.109375 15.671875 13.6875 12.375 
Q 15.28125 9.078125 17.578125 7.640625 
Q 19.875 6.203125 22.796875 6.203125 
Q 25.640625 6.203125 27.90625 7.640625 
Q 30.171875 9.078125 31.75 12.375 
Q 33.34375 15.671875 34.203125 21.09375 
Q 35.0625 26.515625 35.0625 34.421875 
z
" id="LiberationSansNarrow-48"/>
       </defs>
       <use xlink:href="#LiberationSansNarrow-48"/>
      </g>
     </g>
    </g>
    <g id="xtick_2">
     <g id="line2d_2">
      <path clip-path="url(#p0534d08b1f)" d="M 160.423633 234.52 
L 160.423633 15.12 
" style="fill:none;stroke:#b0b0b0;stroke-dasharray:1.48,0.64;stroke-dashoffset:0;stroke-width:0.4;"/>
     </g>
     <g id="text_2">
      <!-- 200 -->
      <g transform="translate(150.845665 251.665625)scale(0.14 -0.14)">
       <defs>
        <path d="M 4.109375 0 
L 4.109375 6.203125 
Q 6.15625 11.921875 9.109375 16.28125 
Q 12.0625 20.65625 15.3125 24.1875 
Q 18.5625 27.734375 21.734375 30.765625 
Q 24.90625 33.796875 27.46875 36.8125 
Q 30.03125 39.84375 31.609375 43.15625 
Q 33.203125 46.484375 33.203125 50.6875 
Q 33.203125 53.609375 32.46875 55.828125 
Q 31.734375 58.0625 30.390625 59.5625 
Q 29.046875 61.078125 27.140625 61.828125 
Q 25.25 62.59375 22.90625 62.59375 
Q 20.75 62.59375 18.84375 61.859375 
Q 16.9375 61.140625 15.453125 59.671875 
Q 13.96875 58.203125 13.03125 56.03125 
Q 12.109375 53.859375 11.8125 50.984375 
L 4.4375 51.8125 
Q 4.78125 55.515625 6.125 58.78125 
Q 7.46875 62.0625 9.78125 64.53125 
Q 12.109375 67 15.359375 68.40625 
Q 18.609375 69.828125 22.90625 69.828125 
Q 27.09375 69.828125 30.390625 68.609375 
Q 33.6875 67.390625 35.9375 64.984375 
Q 38.1875 62.59375 39.40625 59.078125 
Q 40.625 55.5625 40.625 50.984375 
Q 40.625 47.515625 39.59375 44.390625 
Q 38.578125 41.265625 36.859375 38.421875 
Q 35.15625 35.59375 32.90625 32.953125 
Q 30.671875 30.328125 28.21875 27.828125 
L 23.296875 22.859375 
Q 20.796875 20.359375 18.625 17.859375 
Q 16.453125 15.375 14.734375 12.8125 
Q 13.03125 10.25 12.0625 7.46875 
L 41.5 7.46875 
L 41.5 0 
z
" id="LiberationSansNarrow-50"/>
       </defs>
       <use xlink:href="#LiberationSansNarrow-50"/>
       <use x="45.605469" xlink:href="#LiberationSansNarrow-48"/>
       <use x="91.210938" xlink:href="#LiberationSansNarrow-48"/>
      </g>
     </g>
    </g>
    <g id="xtick_3">
     <g id="line2d_3">
      <path clip-path="url(#p0534d08b1f)" d="M 236.056358 234.52 
L 236.056358 15.12 
" style="fill:none;stroke:#b0b0b0;stroke-dasharray:1.48,0.64;stroke-dashoffset:0;stroke-width:0.4;"/>
     </g>
     <g id="text_3">
      <!-- 400 -->
      <g transform="translate(226.478389 251.665625)scale(0.14 -0.14)">
       <defs>
        <path d="M 35.25 15.578125 
L 35.25 0 
L 28.46875 0 
L 28.46875 15.578125 
L 1.90625 15.578125 
L 1.90625 22.40625 
L 27.6875 68.796875 
L 35.25 68.796875 
L 35.25 22.515625 
L 43.21875 22.515625 
L 43.21875 15.578125 
z
M 28.46875 58.890625 
Q 28.375 58.640625 28.03125 57.90625 
L 27.34375 56.34375 
L 26.5625 54.59375 
Q 26.125 53.65625 25.78125 53.078125 
L 11.328125 27.09375 
Q 11.140625 26.703125 10.75 26.078125 
L 9.96875 24.8125 
L 9.1875 23.484375 
Q 8.796875 22.859375 8.546875 22.515625 
L 28.46875 22.515625 
z
" id="LiberationSansNarrow-52"/>
       </defs>
       <use xlink:href="#LiberationSansNarrow-52"/>
       <use x="45.605469" xlink:href="#LiberationSansNarrow-48"/>
       <use x="91.210938" xlink:href="#LiberationSansNarrow-48"/>
      </g>
     </g>
    </g>
    <g id="xtick_4">
     <g id="line2d_4">
      <path clip-path="url(#p0534d08b1f)" d="M 311.689082 234.52 
L 311.689082 15.12 
" style="fill:none;stroke:#b0b0b0;stroke-dasharray:1.48,0.64;stroke-dashoffset:0;stroke-width:0.4;"/>
     </g>
     <g id="text_4">
      <!-- 600 -->
      <g transform="translate(302.111113 251.665625)scale(0.14 -0.14)">
       <defs>
        <path d="M 42 22.515625 
Q 42 17.328125 40.828125 13 
Q 39.65625 8.6875 37.359375 5.578125 
Q 35.0625 2.484375 31.640625 0.75 
Q 28.21875 -0.984375 23.78125 -0.984375 
Q 18.84375 -0.984375 15.15625 1.3125 
Q 11.46875 3.609375 9.03125 7.921875 
Q 6.59375 12.25 5.375 18.53125 
Q 4.15625 24.8125 4.15625 32.8125 
Q 4.15625 42 5.546875 48.921875 
Q 6.9375 55.859375 9.515625 60.5 
Q 12.109375 65.140625 15.859375 67.484375 
Q 19.625 69.828125 24.359375 69.828125 
Q 27.25 69.828125 29.765625 69.09375 
Q 32.28125 68.359375 34.328125 66.71875 
Q 36.375 65.09375 37.9375 62.40625 
Q 39.5 59.71875 40.4375 55.8125 
L 33.546875 54.296875 
Q 32.421875 58.734375 29.953125 60.71875 
Q 27.484375 62.703125 24.265625 62.703125 
Q 21.296875 62.703125 18.890625 60.984375 
Q 16.5 59.28125 14.8125 55.875 
Q 13.140625 52.484375 12.234375 47.359375 
Q 11.328125 42.234375 11.328125 35.40625 
Q 13.28125 39.84375 16.84375 42.15625 
Q 20.40625 44.484375 25.046875 44.484375 
Q 28.90625 44.484375 32 42.96875 
Q 35.109375 41.453125 37.328125 38.59375 
Q 39.546875 35.75 40.765625 31.671875 
Q 42 27.59375 42 22.515625 
z
M 34.671875 22.125 
Q 34.671875 25.6875 33.953125 28.5625 
Q 33.25 31.453125 31.8125 33.46875 
Q 30.375 35.5 28.25 36.59375 
Q 26.125 37.703125 23.296875 37.703125 
Q 21.34375 37.703125 19.328125 36.984375 
Q 17.328125 36.28125 15.71875 34.6875 
Q 14.109375 33.109375 13.078125 30.515625 
Q 12.0625 27.9375 12.0625 24.21875 
Q 12.0625 20.40625 12.859375 17.109375 
Q 13.671875 13.8125 15.15625 11.375 
Q 16.65625 8.9375 18.78125 7.515625 
Q 20.90625 6.109375 23.53125 6.109375 
Q 26.125 6.109375 28.203125 7.203125 
Q 30.28125 8.296875 31.71875 10.375 
Q 33.15625 12.453125 33.90625 15.421875 
Q 34.671875 18.40625 34.671875 22.125 
z
" id="LiberationSansNarrow-54"/>
       </defs>
       <use xlink:href="#LiberationSansNarrow-54"/>
       <use x="45.605469" xlink:href="#LiberationSansNarrow-48"/>
       <use x="91.210938" xlink:href="#LiberationSansNarrow-48"/>
      </g>
     </g>
    </g>
    <g id="xtick_5">
     <g id="line2d_5">
      <path clip-path="url(#p0534d08b1f)" d="M 387.321806 234.52 
L 387.321806 15.12 
" style="fill:none;stroke:#b0b0b0;stroke-dasharray:1.48,0.64;stroke-dashoffset:0;stroke-width:0.4;"/>
     </g>
     <g id="text_5">
      <!-- 800 -->
      <g transform="translate(377.743837 251.665625)scale(0.14 -0.14)">
       <defs>
        <path d="M 42.046875 19.1875 
Q 42.046875 14.796875 40.890625 11.109375 
Q 39.75 7.421875 37.40625 4.734375 
Q 35.0625 2.046875 31.421875 0.53125 
Q 27.78125 -0.984375 22.796875 -0.984375 
Q 17.828125 -0.984375 14.203125 0.53125 
Q 10.59375 2.046875 8.21875 4.703125 
Q 5.859375 7.375 4.703125 11.0625 
Q 3.5625 14.75 3.5625 19.09375 
Q 3.5625 22.859375 4.515625 25.78125 
Q 5.46875 28.71875 7.03125 30.828125 
Q 8.59375 32.953125 10.609375 34.25 
Q 12.640625 35.546875 14.796875 35.984375 
L 14.796875 36.1875 
Q 12.453125 36.859375 10.59375 38.375 
Q 8.734375 39.890625 7.46875 42.015625 
Q 6.203125 44.140625 5.546875 46.71875 
Q 4.890625 49.3125 4.890625 52.203125 
Q 4.890625 55.8125 6.03125 59 
Q 7.171875 62.203125 9.421875 64.625 
Q 11.671875 67.046875 14.984375 68.4375 
Q 18.3125 69.828125 22.65625 69.828125 
Q 27.25 69.828125 30.640625 68.40625 
Q 34.03125 67 36.25 64.578125 
Q 38.484375 62.15625 39.546875 58.9375 
Q 40.625 55.71875 40.625 52.09375 
Q 40.625 49.265625 39.96875 46.671875 
Q 39.3125 44.09375 38.0625 41.96875 
Q 36.8125 39.84375 34.9375 38.34375 
Q 33.0625 36.859375 30.609375 36.28125 
L 30.609375 36.078125 
Q 33.0625 35.59375 35.15625 34.296875 
Q 37.25 33.015625 38.765625 30.890625 
Q 40.28125 28.765625 41.15625 25.828125 
Q 42.046875 22.90625 42.046875 19.1875 
z
M 33.15625 51.609375 
Q 33.15625 54.203125 32.609375 56.34375 
Q 32.078125 58.5 30.828125 60.03125 
Q 29.59375 61.578125 27.59375 62.421875 
Q 25.59375 63.28125 22.65625 63.28125 
Q 19.828125 63.28125 17.875 62.421875 
Q 15.921875 61.578125 14.640625 60.03125 
Q 13.375 58.5 12.8125 56.34375 
Q 12.25 54.203125 12.25 51.609375 
Q 12.25 49.5625 12.6875 47.40625 
Q 13.140625 45.265625 14.3125 43.5 
Q 15.484375 41.75 17.5 40.625 
Q 19.53125 39.5 22.75 39.5 
Q 26.171875 39.5 28.21875 40.625 
Q 30.28125 41.75 31.375 43.5 
Q 32.46875 45.265625 32.8125 47.40625 
Q 33.15625 49.5625 33.15625 51.609375 
z
M 34.578125 20.015625 
Q 34.578125 22.515625 34.015625 24.828125 
Q 33.453125 27.15625 32.078125 28.9375 
Q 30.71875 30.71875 28.421875 31.8125 
Q 26.125 32.90625 22.65625 32.90625 
Q 19.484375 32.90625 17.265625 31.8125 
Q 15.046875 30.71875 13.671875 28.90625 
Q 12.3125 27.09375 11.671875 24.71875 
Q 11.03125 22.359375 11.03125 19.828125 
Q 11.03125 16.65625 11.671875 14.03125 
Q 12.3125 11.421875 13.703125 9.546875 
Q 15.09375 7.671875 17.375 6.640625 
Q 19.671875 5.609375 22.90625 5.609375 
Q 26.171875 5.609375 28.421875 6.640625 
Q 30.671875 7.671875 32.03125 9.546875 
Q 33.40625 11.421875 33.984375 14.078125 
Q 34.578125 16.75 34.578125 20.015625 
z
" id="LiberationSansNarrow-56"/>
       </defs>
       <use xlink:href="#LiberationSansNarrow-56"/>
       <use x="45.605469" xlink:href="#LiberationSansNarrow-48"/>
       <use x="91.210938" xlink:href="#LiberationSansNarrow-48"/>
      </g>
     </g>
    </g>
    <g id="xtick_6">
     <g id="line2d_6">
      <path clip-path="url(#p0534d08b1f)" d="M 462.95453 234.52 
L 462.95453 15.12 
" style="fill:none;stroke:#b0b0b0;stroke-dasharray:1.48,0.64;stroke-dashoffset:0;stroke-width:0.4;"/>
     </g>
     <g id="text_6">
      <!-- 1000 -->
      <g transform="translate(450.183905 251.665625)scale(0.14 -0.14)">
       <defs>
        <path d="M 6.25 0 
L 6.25 7.46875 
L 20.609375 7.46875 
L 20.609375 60.40625 
L 7.90625 49.3125 
L 7.90625 57.625 
L 21.234375 68.796875 
L 27.875 68.796875 
L 27.875 7.46875 
L 41.609375 7.46875 
L 41.609375 0 
z
" id="LiberationSansNarrow-49"/>
       </defs>
       <use xlink:href="#LiberationSansNarrow-49"/>
       <use x="45.605469" xlink:href="#LiberationSansNarrow-48"/>
       <use x="91.210938" xlink:href="#LiberationSansNarrow-48"/>
       <use x="136.816406" xlink:href="#LiberationSansNarrow-48"/>
      </g>
     </g>
    </g>
    <g id="xtick_7">
     <g id="line2d_7">
      <path clip-path="url(#p0534d08b1f)" d="M 538.587255 234.52 
L 538.587255 15.12 
" style="fill:none;stroke:#b0b0b0;stroke-dasharray:1.48,0.64;stroke-dashoffset:0;stroke-width:0.4;"/>
     </g>
     <g id="text_7">
      <!-- 1200 -->
      <g transform="translate(525.81663 251.665625)scale(0.14 -0.14)">
       <use xlink:href="#LiberationSansNarrow-49"/>
       <use x="45.605469" xlink:href="#LiberationSansNarrow-50"/>
       <use x="91.210938" xlink:href="#LiberationSansNarrow-48"/>
       <use x="136.816406" xlink:href="#LiberationSansNarrow-48"/>
      </g>
     </g>
    </g>
    <g id="text_8">
     <!-- Месяцы -->
     <g transform="translate(289.908281 268.71625)scale(0.14 -0.14)">
      <defs>
       <path d="M 54.6875 0 
L 54.6875 45.90625 
Q 54.6875 48.390625 54.734375 50.96875 
Q 54.78125 53.5625 54.828125 55.71875 
Q 54.9375 58.203125 55.078125 60.546875 
Q 54.546875 58.0625 53.90625 55.609375 
Q 53.90625 55.609375 52.734375 51.171875 
Q 52.15625 48.78125 51.515625 46.875 
L 36.96875 0 
L 31.59375 0 
L 16.796875 46.875 
Q 16.546875 47.609375 16.3125 48.578125 
L 15.765625 50.6875 
L 15.140625 52.9375 
L 14.546875 55.171875 
Q 13.875 57.765625 13.234375 60.546875 
Q 13.28125 57.8125 13.375 55.125 
Q 13.484375 52.828125 13.5 50.3125 
Q 13.53125 47.796875 13.53125 45.90625 
L 13.53125 0 
L 6.734375 0 
L 6.734375 68.796875 
L 16.796875 68.796875 
L 31.78125 21.09375 
Q 32.078125 20.125 32.46875 18.578125 
Q 32.859375 17.046875 33.21875 15.421875 
Q 33.59375 13.8125 33.890625 12.375 
Q 34.1875 10.9375 34.328125 10.15625 
Q 34.421875 10.9375 34.734375 12.40625 
Q 35.0625 13.875 35.5 15.484375 
L 36.328125 18.609375 
Q 36.71875 20.125 37.0625 21.09375 
L 51.765625 68.796875 
L 61.578125 68.796875 
L 61.578125 0 
z
" id="LiberationSansNarrow-1052"/>
       <path d="M 10.6875 24.5625 
Q 10.6875 20.40625 11.5625 16.90625 
Q 12.453125 13.421875 13.90625 10.90625 
Q 15.375 8.40625 17.640625 7 
Q 19.921875 5.609375 23.140625 5.609375 
Q 27.828125 5.609375 30.65625 7.90625 
Q 33.5 10.203125 34.46875 13.71875 
L 40.828125 11.53125 
Q 40.140625 9.328125 38.921875 7.109375 
Q 37.703125 4.890625 35.640625 3.09375 
Q 33.59375 1.3125 30.53125 0.15625 
Q 27.484375 -0.984375 23.140625 -0.984375 
Q 13.53125 -0.984375 8.5 6 
Q 3.46875 12.984375 3.46875 26.765625 
Q 3.46875 34.1875 5 39.328125 
Q 6.546875 44.484375 9.171875 47.703125 
Q 11.8125 50.921875 15.328125 52.359375 
Q 18.84375 53.8125 22.859375 53.8125 
Q 28.328125 53.8125 31.984375 51.65625 
Q 39.0625 47.515625 41.015625 36.8125 
Q 41.9375 31.6875 41.9375 25.734375 
L 41.9375 24.5625 
z
M 34.71875 31.296875 
Q 34.71875 40.140625 31.421875 43.71875 
Q 28.125 47.3125 22.75 47.3125 
Q 18.953125 47.3125 15.328125 44.09375 
Q 10.9375 40.328125 10.6875 31.296875 
z
" id="LiberationSansNarrow-1077"/>
       <path d="M 11.03125 26.65625 
Q 11.03125 22.125 11.5625 18.3125 
Q 12.109375 14.5 13.375 11.734375 
Q 14.65625 8.984375 16.75 7.46875 
Q 18.84375 5.953125 21.96875 5.953125 
Q 25.828125 5.953125 28.390625 8.484375 
Q 30.953125 11.03125 31.546875 16.3125 
L 38.875 15.71875 
Q 38.53125 12.453125 37.296875 9.421875 
Q 36.078125 6.390625 34.03125 4.09375 
Q 31.984375 1.8125 29 0.40625 
Q 26.03125 -0.984375 22.171875 -0.984375 
Q 17.09375 -0.984375 13.5 1.109375 
Q 9.90625 3.21875 7.6875 6.90625 
Q 5.46875 10.59375 4.46875 15.59375 
Q 3.46875 20.609375 3.46875 26.46875 
Q 3.46875 31.78125 4.203125 35.859375 
Q 4.9375 39.9375 6.21875 42.984375 
Q 7.515625 46.046875 9.265625 48.125 
Q 11.03125 50.203125 13.109375 51.4375 
Q 15.1875 52.6875 17.453125 53.25 
Q 19.734375 53.8125 22.078125 53.8125 
Q 25.734375 53.8125 28.5625 52.59375 
Q 31.390625 51.375 33.46875 49.25 
Q 35.546875 47.125 36.8125 44.234375 
Q 38.09375 41.359375 38.625 38.03125 
L 31.203125 37.359375 
Q 30.671875 41.75 28.375 44.328125 
Q 26.078125 46.921875 21.875 46.921875 
Q 18.796875 46.921875 16.71875 45.671875 
Q 14.65625 44.4375 13.375 41.921875 
Q 12.109375 39.40625 11.5625 35.59375 
Q 11.03125 31.78125 11.03125 26.65625 
z
" id="LiberationSansNarrow-1089"/>
       <path d="M 21.4375 22.359375 
L 8.84375 0 
L 0.6875 0 
L 14.453125 23 
Q 9.234375 24.3125 6.859375 28.296875 
Q 4.5 32.28125 4.5 38.234375 
Q 4.5 45.515625 8.8125 49.171875 
Q 13.140625 52.828125 21.4375 52.828125 
L 38.71875 52.828125 
L 38.71875 0 
L 31.546875 0 
L 31.546875 22.359375 
z
M 31.546875 46.625 
L 22.171875 46.625 
Q 16.9375 46.625 14.546875 44.375 
Q 12.15625 42.140625 12.15625 37.59375 
Q 12.15625 33.015625 14.28125 30.734375 
Q 16.40625 28.46875 21.390625 28.46875 
L 31.546875 28.46875 
z
" id="LiberationSansNarrow-1103"/>
       <path d="M 12.890625 52.828125 
L 12.890625 6.390625 
L 31.984375 6.390625 
L 31.984375 52.828125 
L 39.203125 52.828125 
L 39.203125 6.390625 
L 45.0625 6.390625 
L 45.0625 -19.921875 
L 38.578125 -19.921875 
L 38.578125 0 
L 5.671875 0 
L 5.671875 52.828125 
z
" id="LiberationSansNarrow-1094"/>
       <path d="M 22.796875 30.46875 
Q 31.296875 30.46875 35.640625 26.875 
Q 39.984375 23.296875 39.984375 15.53125 
Q 39.984375 11.921875 38.90625 9.03125 
Q 37.84375 6.15625 35.671875 4.15625 
Q 33.5 2.15625 30.296875 1.078125 
Q 27.09375 0 22.859375 0 
L 5.859375 0 
L 5.859375 52.828125 
L 13.328125 52.828125 
L 13.328125 30.46875 
z
M 13.328125 6.203125 
L 21.734375 6.203125 
Q 24.609375 6.203125 26.578125 6.8125 
Q 28.5625 7.421875 29.78125 8.609375 
Q 31 9.8125 31.53125 11.546875 
Q 32.078125 13.28125 32.078125 15.53125 
Q 32.078125 20.125 29.65625 22.234375 
Q 27.25 24.359375 21.734375 24.359375 
L 13.328125 24.359375 
z
M 47.65625 0 
L 47.65625 52.828125 
L 55.125 52.828125 
L 55.125 0 
z
" id="LiberationSansNarrow-1099"/>
      </defs>
      <use xlink:href="#LiberationSansNarrow-1052"/>
      <use x="69.435547" xlink:href="#LiberationSansNarrow-1077"/>
      <use x="115.041016" xlink:href="#LiberationSansNarrow-1089"/>
      <use x="156.056641" xlink:href="#LiberationSansNarrow-1103"/>
      <use x="200.490234" xlink:href="#LiberationSansNarrow-1094"/>
      <use x="247.462891" xlink:href="#LiberationSansNarrow-1099"/>
     </g>
    </g>
   </g>
   <g id="matplotlib.axis_2">
    <g id="ytick_1">
     <g id="line2d_8">
      <path clip-path="url(#p0534d08b1f)" d="M 62.12 205.639454 
L 560.88 205.639454 
" style="fill:none;stroke:#b0b0b0;stroke-dasharray:1.48,0.64;stroke-dashoffset:0;stroke-width:0.4;"/>
     </g>
     <g id="text_9">
      <!-- 0.01 -->
      <g transform="translate(32.7725 210.712267)scale(0.14 -0.14)">
       <defs>
        <path d="M 7.46875 0 
L 7.46875 10.6875 
L 15.328125 10.6875 
L 15.328125 0 
z
" id="LiberationSansNarrow-46"/>
       </defs>
       <use xlink:href="#LiberationSansNarrow-48"/>
       <use x="45.605469" xlink:href="#LiberationSansNarrow-46"/>
       <use x="68.408203" xlink:href="#LiberationSansNarrow-48"/>
       <use x="114.013672" xlink:href="#LiberationSansNarrow-49"/>
      </g>
     </g>
    </g>
    <g id="ytick_2">
     <g id="line2d_9">
      <path clip-path="url(#p0534d08b1f)" d="M 62.12 149.649238 
L 560.88 149.649238 
" style="fill:none;stroke:#b0b0b0;stroke-dasharray:1.48,0.64;stroke-dashoffset:0;stroke-width:0.4;"/>
     </g>
     <g id="text_10">
      <!-- 0.1 -->
      <g transform="translate(39.157813 154.72205)scale(0.14 -0.14)">
       <use xlink:href="#LiberationSansNarrow-48"/>
       <use x="45.605469" xlink:href="#LiberationSansNarrow-46"/>
       <use x="68.408203" xlink:href="#LiberationSansNarrow-49"/>
      </g>
     </g>
    </g>
    <g id="ytick_3">
     <g id="line2d_10">
      <path clip-path="url(#p0534d08b1f)" d="M 62.12 93.659021 
L 560.88 93.659021 
" style="fill:none;stroke:#b0b0b0;stroke-dasharray:1.48,0.64;stroke-dashoffset:0;stroke-width:0.4;"/>
     </g>
     <g id="text_11">
      <!-- 1 -->
      <g transform="translate(48.734688 98.731834)scale(0.14 -0.14)">
       <use xlink:href="#LiberationSansNarrow-49"/>
      </g>
     </g>
    </g>
    <g id="ytick_4">
     <g id="line2d_11">
      <path clip-path="url(#p0534d08b1f)" d="M 62.12 37.668804 
L 560.88 37.668804 
" style="fill:none;stroke:#b0b0b0;stroke-dasharray:1.48,0.64;stroke-dashoffset:0;stroke-width:0.4;"/>
     </g>
     <g id="text_12">
      <!-- 10 -->
      <g transform="translate(42.349375 42.741617)scale(0.14 -0.14)">
       <use xlink:href="#LiberationSansNarrow-49"/>
       <use x="45.605469" xlink:href="#LiberationSansNarrow-48"/>
      </g>
     </g>
    </g>
    <g id="text_13">
     <!-- Размер портфеля -->
     <g transform="translate(25.8675 172.185938)rotate(-90)scale(0.14 -0.14)">
      <defs>
       <path d="M 50.34375 48.09375 
Q 50.34375 43.609375 49.125 39.71875 
Q 47.90625 35.84375 45.484375 32.984375 
Q 43.0625 30.125 39.421875 28.46875 
Q 35.796875 26.8125 30.953125 26.8125 
L 14.359375 26.8125 
L 14.359375 0 
L 6.734375 0 
L 6.734375 68.796875 
L 30.46875 68.796875 
Q 35.453125 68.796875 39.1875 67.3125 
Q 42.921875 65.828125 45.40625 63.109375 
Q 47.90625 60.40625 49.125 56.5625 
Q 50.34375 52.734375 50.34375 48.09375 
z
M 42.671875 48 
Q 42.671875 54.546875 39.40625 57.9375 
Q 36.140625 61.328125 29.546875 61.328125 
L 14.359375 61.328125 
L 14.359375 34.1875 
L 29.890625 34.1875 
Q 36.46875 34.1875 39.5625 37.75 
Q 42.671875 41.3125 42.671875 48 
z
" id="LiberationSansNarrow-1056"/>
       <path d="M 16.546875 -0.984375 
Q 10.015625 -0.984375 6.734375 3.21875 
Q 3.46875 7.421875 3.46875 14.75 
Q 3.46875 19.96875 5.09375 23.3125 
Q 6.734375 26.65625 9.34375 28.5625 
Q 11.96875 30.46875 15.328125 31.203125 
Q 18.703125 31.9375 22.171875 32.03125 
L 31.9375 32.234375 
L 31.9375 35.109375 
Q 31.9375 38.375 31.375 40.671875 
Q 30.8125 42.96875 29.640625 44.375 
Q 28.46875 45.796875 26.734375 46.453125 
Q 25 47.125 22.609375 47.125 
Q 20.515625 47.125 18.84375 46.75 
Q 17.1875 46.390625 15.9375 45.4375 
Q 14.703125 44.484375 13.9375 42.84375 
Q 13.1875 41.21875 12.9375 38.71875 
L 5.421875 39.546875 
Q 5.8125 42.671875 6.9375 45.28125 
Q 8.0625 47.90625 10.109375 49.796875 
Q 12.15625 51.703125 15.25 52.75 
Q 18.359375 53.8125 22.796875 53.8125 
Q 30.953125 53.8125 35.078125 49.234375 
Q 39.203125 44.671875 39.203125 36.03125 
L 39.203125 13.28125 
Q 39.203125 9.375 40.03125 7.390625 
Q 40.875 5.421875 43.265625 5.421875 
Q 43.84375 5.421875 44.453125 5.515625 
Q 45.0625 5.609375 45.609375 5.765625 
L 45.609375 0.296875 
Q 44.234375 -0.09375 42.890625 -0.28125 
Q 41.546875 -0.484375 40.046875 -0.484375 
Q 37.984375 -0.484375 36.515625 0.171875 
Q 35.0625 0.828125 34.15625 2.171875 
Q 33.25 3.515625 32.765625 5.484375 
Q 32.28125 7.46875 32.125 10.109375 
L 31.9375 10.109375 
Q 30.765625 7.5625 29.375 5.515625 
Q 27.984375 3.46875 26.140625 2.03125 
Q 24.3125 0.59375 21.9375 -0.1875 
Q 19.578125 -0.984375 16.546875 -0.984375 
z
M 18.21875 5.609375 
Q 21.6875 5.609375 24.25 7.140625 
Q 26.8125 8.6875 28.515625 11.078125 
Q 30.21875 13.484375 31.078125 16.3125 
Q 31.9375 19.140625 31.9375 21.734375 
L 31.9375 26.078125 
L 24.03125 25.875 
Q 21.390625 25.828125 19 25.40625 
Q 16.609375 25 14.8125 23.78125 
Q 13.03125 22.5625 11.953125 20.359375 
Q 10.890625 18.171875 10.890625 14.59375 
Q 10.890625 10.296875 12.796875 7.953125 
Q 14.703125 5.609375 18.21875 5.609375 
z
" id="LiberationSansNarrow-1072"/>
       <path d="M 18.3125 -0.984375 
Q 11.625 -0.984375 7.6875 2.0625 
Q 3.765625 5.125 1.953125 11.421875 
L 8.296875 13.578125 
Q 9.28125 9.765625 11.8125 7.65625 
Q 14.359375 5.5625 18.453125 5.5625 
Q 22.3125 5.5625 24.578125 7.859375 
Q 26.859375 10.15625 26.859375 14.59375 
Q 26.859375 17.484375 25.734375 19.390625 
Q 24.609375 21.296875 22.78125 22.390625 
Q 20.953125 23.484375 18.546875 23.921875 
Q 16.15625 24.359375 13.578125 24.359375 
L 13.578125 31.0625 
Q 16.109375 31.0625 18.40625 31.421875 
Q 20.703125 31.78125 22.4375 32.703125 
Q 24.171875 33.640625 25.140625 35.28125 
Q 26.125 36.921875 26.125 39.453125 
Q 26.125 43.0625 24.140625 45.15625 
Q 22.171875 47.265625 18.453125 47.265625 
Q 17.046875 47.265625 15.65625 46.921875 
Q 14.265625 46.578125 13.03125 45.765625 
Q 11.8125 44.96875 10.984375 43.625 
Q 10.15625 42.28125 9.859375 40.234375 
L 3.421875 41.21875 
Q 3.90625 44.53125 5.125 46.921875 
Q 6.34375 49.3125 8.296875 50.84375 
Q 10.25 52.390625 12.78125 53.09375 
Q 15.328125 53.8125 18.453125 53.8125 
Q 21.875 53.8125 24.625 52.78125 
Q 27.390625 51.765625 29.34375 49.90625 
Q 31.296875 48.046875 32.375 45.5 
Q 33.453125 42.96875 33.453125 39.890625 
Q 33.453125 37.109375 32.5625 34.953125 
Q 31.6875 32.8125 30.25 31.3125 
Q 28.8125 29.828125 27.046875 28.953125 
Q 25.296875 28.078125 23.53125 27.875 
L 23.53125 27.78125 
Q 25.78125 27.484375 27.75 26.484375 
Q 29.734375 25.484375 31.25 23.84375 
Q 32.765625 22.21875 33.609375 19.9375 
Q 34.46875 17.671875 34.46875 14.84375 
Q 34.46875 11.46875 33.484375 8.5625 
Q 32.515625 5.671875 30.484375 3.546875 
Q 28.46875 1.421875 25.4375 0.21875 
Q 22.40625 -0.984375 18.3125 -0.984375 
z
" id="LiberationSansNarrow-1079"/>
       <path d="M 31.546875 0 
L 25.390625 0 
L 12.40625 46.4375 
Q 12.453125 45.171875 12.515625 43.703125 
Q 12.59375 42.234375 12.59375 40.75 
Q 12.59375 39.265625 12.609375 37.859375 
Q 12.640625 36.46875 12.640625 35.359375 
L 12.640625 0 
L 5.671875 0 
L 5.671875 52.828125 
L 16.890625 52.828125 
L 25.734375 20.5625 
Q 26.65625 17.484375 27.390625 13.796875 
Q 28.125 10.109375 28.421875 6.59375 
Q 28.8125 10.109375 29.515625 13.796875 
Q 30.21875 17.484375 31.15625 20.5625 
L 39.984375 52.828125 
L 50.734375 52.828125 
L 50.734375 0 
L 43.796875 0 
L 43.796875 35.359375 
Q 43.796875 36.421875 43.8125 37.890625 
Q 43.84375 39.359375 43.921875 40.921875 
Q 44 42.484375 44.015625 43.9375 
Q 44.046875 45.40625 44.140625 46.53125 
z
" id="LiberationSansNarrow-1084"/>
       <path d="M 42.140625 26.65625 
Q 42.140625 20.65625 41.359375 15.578125 
Q 40.578125 10.5 38.6875 6.828125 
Q 36.8125 3.171875 33.765625 1.09375 
Q 30.71875 -0.984375 26.21875 -0.984375 
Q 21.578125 -0.984375 18.078125 1.171875 
Q 14.59375 3.328125 12.796875 8.203125 
L 12.546875 8.203125 
Q 12.59375 8.109375 12.609375 7.328125 
Q 12.640625 6.546875 12.671875 5.375 
Q 12.703125 4.203125 12.71875 2.75 
Q 12.75 1.3125 12.75 -0.09375 
L 12.75 -20.75 
L 5.515625 -20.75 
L 5.515625 42.046875 
Q 5.515625 43.953125 5.484375 45.703125 
Q 5.46875 47.46875 5.4375 48.90625 
Q 5.421875 50.34375 5.375 51.359375 
Q 5.328125 52.390625 5.28125 52.828125 
L 12.25 52.828125 
Q 12.3125 52.6875 12.359375 51.8125 
L 12.5 49.703125 
Q 12.546875 48.4375 12.59375 47.015625 
Q 12.640625 45.609375 12.640625 44.34375 
L 12.796875 44.34375 
Q 13.765625 46.875 15.0625 48.65625 
Q 16.359375 50.4375 18.015625 51.578125 
Q 19.671875 52.734375 21.671875 53.25 
Q 23.6875 53.765625 26.21875 53.765625 
Q 30.71875 53.765625 33.765625 51.8125 
Q 36.8125 49.859375 38.6875 46.3125 
Q 40.578125 42.78125 41.359375 37.765625 
Q 42.140625 32.765625 42.140625 26.65625 
z
M 34.578125 26.46875 
Q 34.578125 31.34375 34.109375 35.15625 
Q 33.640625 38.96875 32.4375 41.59375 
Q 31.25 44.234375 29.296875 45.59375 
Q 27.34375 46.96875 24.359375 46.96875 
Q 21.96875 46.96875 19.84375 46.140625 
Q 17.71875 45.3125 16.125 42.96875 
Q 14.546875 40.625 13.640625 36.5 
Q 12.75 32.375 12.75 25.78125 
Q 12.75 20.171875 13.5 16.28125 
Q 14.265625 12.40625 15.71875 10.015625 
Q 17.1875 7.625 19.328125 6.5625 
Q 21.484375 5.515625 24.3125 5.515625 
Q 27.34375 5.515625 29.296875 6.921875 
Q 31.25 8.34375 32.4375 11.03125 
Q 33.640625 13.71875 34.109375 17.59375 
Q 34.578125 21.484375 34.578125 26.46875 
z
" id="LiberationSansNarrow-1088"/>
       <path id="LiberationSansNarrow-32"/>
       <path d="M 38.71875 52.828125 
L 38.71875 0 
L 31.546875 0 
L 31.546875 46.4375 
L 12.890625 46.4375 
L 12.890625 0 
L 5.71875 0 
L 5.71875 52.828125 
z
" id="LiberationSansNarrow-1087"/>
       <path d="M 42.140625 26.46875 
Q 42.140625 12.59375 37.125 5.796875 
Q 32.125 -0.984375 22.609375 -0.984375 
Q 18.0625 -0.984375 14.515625 0.671875 
Q 10.984375 2.34375 8.515625 5.765625 
Q 6.0625 9.1875 4.765625 14.328125 
Q 3.46875 19.484375 3.46875 26.46875 
Q 3.46875 53.8125 22.859375 53.8125 
Q 27.875 53.8125 31.5625 52.09375 
Q 35.25 50.390625 37.59375 46.96875 
Q 39.9375 43.5625 41.03125 38.421875 
Q 42.140625 33.296875 42.140625 26.46875 
z
M 34.578125 26.46875 
Q 34.578125 32.625 33.8125 36.625 
Q 33.0625 40.625 31.546875 43.015625 
Q 30.03125 45.40625 27.859375 46.359375 
Q 25.6875 47.3125 23 47.3125 
Q 20.21875 47.3125 17.984375 46.3125 
Q 15.765625 45.3125 14.203125 42.890625 
Q 12.640625 40.484375 11.828125 36.46875 
Q 11.03125 32.46875 11.03125 26.46875 
Q 11.03125 20.3125 11.90625 16.28125 
Q 12.796875 12.25 14.328125 9.859375 
Q 15.875 7.46875 17.96875 6.484375 
Q 20.0625 5.515625 22.5625 5.515625 
Q 25.34375 5.515625 27.5625 6.46875 
Q 29.78125 7.421875 31.34375 9.8125 
Q 32.90625 12.203125 33.734375 16.25 
Q 34.578125 20.3125 34.578125 26.46875 
z
" id="LiberationSansNarrow-1086"/>
       <path d="M 1.421875 52.828125 
L 36.140625 52.828125 
L 36.140625 46.4375 
L 22.359375 46.4375 
L 22.359375 0 
L 15.1875 0 
L 15.1875 46.4375 
L 1.421875 46.4375 
z
" id="LiberationSansNarrow-1090"/>
       <path d="M 64.015625 26.65625 
Q 64.015625 20.65625 63.234375 15.578125 
Q 62.453125 10.5 60.734375 6.828125 
Q 59.03125 3.171875 56.21875 1.09375 
Q 53.421875 -0.984375 49.359375 -0.984375 
Q 45.171875 -0.984375 42.015625 1.171875 
Q 38.875 3.328125 37.15625 8.203125 
L 36.921875 8.203125 
Q 37.015625 6.5 37.0625 4.609375 
Q 37.109375 2.734375 37.109375 -0.09375 
L 37.109375 -20.75 
L 30.328125 -20.75 
L 30.328125 -0.09375 
Q 30.328125 2.546875 30.375 4.546875 
Q 30.421875 6.546875 30.515625 8.5 
L 30.328125 8.5 
Q 28.46875 3.421875 25.484375 1.21875 
Q 22.515625 -0.984375 18.0625 -0.984375 
Q 10.59375 -0.984375 7.03125 5.734375 
Q 3.46875 12.453125 3.46875 26.171875 
Q 3.46875 40.046875 7.15625 46.921875 
Q 10.84375 53.8125 18.0625 53.8125 
Q 22.5625 53.8125 25.53125 51.609375 
Q 28.515625 49.421875 30.328125 44.625 
L 30.515625 44.625 
Q 30.515625 45.125 30.46875 46.125 
Q 30.421875 47.125 30.375 48.25 
L 30.375 50.390625 
Q 30.328125 51.421875 30.328125 52 
L 30.328125 72.46875 
L 37.109375 72.46875 
L 37.109375 51.953125 
Q 37.109375 51.421875 37.078125 50.359375 
Q 37.0625 49.3125 37.0625 48.15625 
Q 37.0625 47.015625 37.03125 45.96875 
Q 37.015625 44.921875 37.015625 44.34375 
L 37.203125 44.34375 
Q 39.0625 49.421875 41.9375 51.59375 
Q 44.828125 53.765625 49.359375 53.765625 
Q 53.421875 53.765625 56.21875 51.8125 
Q 59.03125 49.859375 60.734375 46.3125 
Q 62.453125 42.78125 63.234375 37.765625 
Q 64.015625 32.765625 64.015625 26.65625 
z
M 11.03125 26.46875 
Q 11.03125 21 11.546875 17.09375 
Q 12.0625 13.1875 13.1875 10.671875 
Q 14.3125 8.15625 16.015625 6.984375 
Q 17.71875 5.8125 20.125 5.8125 
Q 22.515625 5.8125 24.390625 6.859375 
Q 26.265625 7.90625 27.5625 10.296875 
Q 28.859375 12.703125 29.53125 16.53125 
Q 30.21875 20.359375 30.328125 25.875 
L 30.328125 27.046875 
Q 30.328125 32.671875 29.640625 36.546875 
Q 28.953125 40.4375 27.65625 42.828125 
Q 26.375 45.21875 24.484375 46.265625 
Q 22.609375 47.3125 20.171875 47.3125 
Q 17.875 47.3125 16.15625 46.1875 
Q 14.453125 45.0625 13.296875 42.578125 
Q 12.15625 40.09375 11.59375 36.109375 
Q 11.03125 32.125 11.03125 26.46875 
z
M 56.453125 26.46875 
Q 56.453125 31.34375 55.984375 35.15625 
Q 55.515625 38.96875 54.46875 41.59375 
Q 53.421875 44.234375 51.65625 45.59375 
Q 49.90625 46.96875 47.3125 46.96875 
Q 45.21875 46.96875 43.375 46.140625 
Q 41.546875 45.3125 40.125 42.96875 
Q 38.71875 40.625 37.90625 36.5 
Q 37.109375 32.375 37.109375 25.78125 
L 37.109375 24.65625 
Q 37.15625 19.390625 37.859375 15.71875 
Q 38.578125 12.0625 39.859375 9.78125 
Q 41.15625 7.515625 43.015625 6.515625 
Q 44.875 5.515625 47.265625 5.515625 
Q 49.859375 5.515625 51.609375 6.921875 
Q 53.375 8.34375 54.4375 11.03125 
Q 55.515625 13.71875 55.984375 17.59375 
Q 56.453125 21.484375 56.453125 26.46875 
z
" id="LiberationSansNarrow-1092"/>
       <path d="M 34.859375 0 
L 34.859375 46.4375 
L 19.875 46.4375 
Q 18.890625 37.453125 18.03125 30.4375 
Q 17.1875 23.4375 16.3125 18.15625 
Q 15.4375 12.890625 14.40625 9.25 
Q 13.375 5.609375 11.953125 3.34375 
Q 10.546875 1.078125 8.65625 0.046875 
Q 6.78125 -0.984375 4.203125 -0.984375 
Q 3.03125 -0.984375 2.078125 -0.78125 
Q 1.125 -0.59375 0.4375 -0.34375 
L 0.4375 5.953125 
Q 0.875 5.765625 1.625 5.640625 
Q 2.390625 5.515625 3.171875 5.515625 
Q 4.59375 5.515625 5.59375 6.53125 
Q 6.59375 7.5625 7.390625 9.859375 
Q 8.203125 12.15625 8.859375 15.796875 
Q 9.515625 19.4375 10.203125 24.703125 
Q 10.890625 29.984375 11.625 36.921875 
L 13.375 52.828125 
L 42.140625 52.828125 
L 42.140625 0 
z
" id="LiberationSansNarrow-1083"/>
      </defs>
      <use xlink:href="#LiberationSansNarrow-1056"/>
      <use x="51.3125" xlink:href="#LiberationSansNarrow-1072"/>
      <use x="95.792969" xlink:href="#LiberationSansNarrow-1079"/>
      <use x="133.341797" xlink:href="#LiberationSansNarrow-1084"/>
      <use x="189.738281" xlink:href="#LiberationSansNarrow-1077"/>
      <use x="235.34375" xlink:href="#LiberationSansNarrow-1088"/>
      <use x="280.949219" xlink:href="#LiberationSansNarrow-32"/>
      <use x="303.751953" xlink:href="#LiberationSansNarrow-1087"/>
      <use x="348.185547" xlink:href="#LiberationSansNarrow-1086"/>
      <use x="393.791016" xlink:href="#LiberationSansNarrow-1088"/>
      <use x="437.146484" xlink:href="#LiberationSansNarrow-1090"/>
      <use x="474.695312" xlink:href="#LiberationSansNarrow-1092"/>
      <use x="542.175781" xlink:href="#LiberationSansNarrow-1077"/>
      <use x="584.40625" xlink:href="#LiberationSansNarrow-1083"/>
      <use x="632.208984" xlink:href="#LiberationSansNarrow-1103"/>
     </g>
    </g>
   </g>
   <g id="line2d_12">
    <path clip-path="url(#p0534d08b1f)" d="M 84.790909 92.957741 
L 85.169073 93.032543 
L 85.547236 93.856171 
L 85.9254 95.011952 
L 86.303564 95.400583 
L 86.681727 95.590065 
L 87.059891 96.438053 
L 87.438054 98.62391 
L 88.572545 108.428649 
L 88.950709 110.150948 
L 89.328873 110.494509 
L 89.707036 111.028477 
L 90.463363 115.001454 
L 90.841527 116.082608 
L 91.219691 115.193044 
L 91.597854 113.457237 
L 91.976018 112.422316 
L 92.354182 112.581256 
L 93.488672 116.110866 
L 94.245 115.908561 
L 94.623163 116.247132 
L 95.001327 117.013331 
L 95.37949 117.176652 
L 95.757654 116.629264 
L 96.135818 115.726071 
L 97.648472 110.163049 
L 98.026636 110.810376 
L 98.782963 111.40358 
L 99.161127 111.379429 
L 99.53929 110.888233 
L 99.917454 110.658059 
L 100.295618 112.417643 
L 101.430108 122.097073 
L 101.808272 120.309858 
L 102.564599 115.019742 
L 102.942763 113.910091 
L 103.320927 113.862269 
L 103.69909 112.826918 
L 104.077254 110.740842 
L 104.833581 104.946416 
L 105.211745 103.988889 
L 105.589908 104.582355 
L 105.968072 105.422184 
L 106.346235 105.380906 
L 106.724399 104.417771 
L 107.85889 100.726623 
L 108.237054 99.791532 
L 108.615217 100.417945 
L 108.993381 101.881967 
L 110.127872 110.319865 
L 110.506035 111.909379 
L 110.884199 112.822392 
L 111.262363 113.412143 
L 111.640526 113.327374 
L 112.01869 112.520388 
L 112.396853 111.258034 
L 112.775017 110.430204 
L 113.153181 110.626634 
L 113.531344 111.783588 
L 114.287672 114.785288 
L 114.665835 116.0971 
L 115.043999 118.091146 
L 116.17849 127.354367 
L 116.556653 127.149999 
L 116.934817 125.100155 
L 118.069308 115.616649 
L 118.825635 108.631979 
L 119.581962 102.448248 
L 119.960126 100.626639 
L 120.338289 99.689403 
L 120.716453 99.138727 
L 121.094617 98.866833 
L 121.47278 98.920654 
L 121.850944 101.555636 
L 122.985435 115.535361 
L 123.363598 117.458079 
L 123.741762 117.449551 
L 124.119926 116.782815 
L 124.498089 116.857357 
L 124.876253 118.175678 
L 125.254417 120.27937 
L 125.63258 121.023392 
L 126.010744 120.0346 
L 126.767071 114.7245 
L 127.145235 112.049801 
L 127.523398 111.052212 
L 128.279726 112.603683 
L 128.657889 113.01045 
L 129.036053 113.028921 
L 129.79238 113.254488 
L 130.170544 113.806616 
L 130.548707 114.095374 
L 130.926871 114.854562 
L 131.305034 114.989422 
L 132.061362 111.463496 
L 132.439525 109.536308 
L 132.817689 108.22211 
L 133.195853 107.780678 
L 133.95218 108.540107 
L 134.330343 108.639715 
L 135.086671 107.056333 
L 135.464834 107.123762 
L 135.842998 108.657695 
L 136.977489 116.155601 
L 137.355652 116.519042 
L 137.733816 115.730622 
L 138.11198 115.45428 
L 138.868307 117.007785 
L 139.246471 116.883001 
L 139.624634 114.485912 
L 140.380961 108.62595 
L 140.759125 107.833829 
L 141.137289 108.932215 
L 141.893616 113.14721 
L 142.27178 115.075226 
L 143.40627 117.670693 
L 143.784434 117.693902 
L 144.162598 116.616905 
L 144.918925 111.695721 
L 145.297088 109.292458 
L 145.675252 108.443013 
L 146.053416 109.797166 
L 146.809743 114.357976 
L 147.56607 117.274021 
L 148.322397 122.06936 
L 149.078725 127.567274 
L 149.456888 128.905965 
L 149.835052 127.930384 
L 150.591379 122.826348 
L 150.969543 122.098246 
L 151.347706 122.624182 
L 152.482197 125.504801 
L 153.238525 126.298823 
L 153.994852 127.621718 
L 154.751179 129.860282 
L 155.129343 131.229654 
L 155.507506 131.98121 
L 155.88567 131.342552 
L 156.263833 129.125793 
L 157.020161 123.344198 
L 157.398324 121.899914 
L 157.776488 121.553152 
L 158.154652 121.660218 
L 158.532815 122.79334 
L 158.910979 124.970481 
L 159.667306 130.114172 
L 160.423633 132.016647 
L 160.801797 132.04664 
L 161.179961 131.691206 
L 161.558124 130.57132 
L 162.692615 126.164043 
L 163.070779 126.352747 
L 163.827106 128.622777 
L 164.20527 128.73421 
L 164.583433 127.974934 
L 164.961597 128.114961 
L 165.33976 130.425576 
L 165.717924 133.832166 
L 166.096088 135.951098 
L 166.474251 137.017667 
L 166.852415 136.426868 
L 167.230579 135.428904 
L 167.608742 135.304219 
L 167.986906 135.881174 
L 168.743233 139.62828 
L 169.121397 140.071625 
L 169.49956 139.336211 
L 170.255887 135.900457 
L 171.012215 130.846537 
L 171.390378 129.738512 
L 171.768542 129.263855 
L 172.146706 129.188098 
L 172.903033 128.605666 
L 173.281196 129.635751 
L 174.415687 137.745024 
L 174.793851 138.379766 
L 175.550178 136.197262 
L 175.928342 134.754377 
L 177.440996 126.872011 
L 178.575487 118.631324 
L 178.953651 118.615946 
L 179.331814 121.307931 
L 180.466305 136.913197 
L 180.844469 138.944894 
L 181.222632 139.175759 
L 181.600796 138.969523 
L 181.97896 139.811137 
L 182.735287 143.263348 
L 183.113451 143.980727 
L 183.491614 142.417781 
L 184.247941 137.159722 
L 184.626105 135.775672 
L 185.004269 135.543298 
L 185.382432 136.038177 
L 185.760596 137.277344 
L 186.13876 139.289039 
L 186.516923 140.440772 
L 186.895087 139.920653 
L 187.27325 138.55824 
L 187.651414 137.951409 
L 188.029578 138.639276 
L 188.407741 140.432139 
L 188.785905 141.658432 
L 189.164069 141.741166 
L 189.542232 139.72728 
L 190.676723 128.331637 
L 192.189378 119.437441 
L 192.567541 118.175429 
L 192.945705 118.464157 
L 193.702032 123.050491 
L 195.59285 136.554351 
L 196.349177 139.074372 
L 197.105505 140.249906 
L 197.483668 141.099192 
L 197.861832 141.181058 
L 198.618159 140.273232 
L 198.996323 140.434247 
L 199.75265 142.728258 
L 200.130814 143.568046 
L 201.265304 146.778455 
L 201.643468 147.048004 
L 202.021632 146.952766 
L 202.399795 145.872119 
L 203.156123 142.840162 
L 203.534286 142.616207 
L 203.91245 143.069095 
L 204.290613 142.946313 
L 205.803268 139.109842 
L 206.181431 139.485947 
L 206.559595 140.445159 
L 206.937759 140.529647 
L 207.315922 138.405734 
L 208.07225 133.152101 
L 208.450413 132.427847 
L 208.828577 133.330365 
L 209.20674 134.955352 
L 210.719395 143.167367 
L 211.853886 147.910651 
L 212.232049 147.609593 
L 212.610213 146.675794 
L 213.36654 143.15952 
L 214.122868 142.069847 
L 214.501031 140.722651 
L 214.879195 140.076069 
L 215.257358 139.862946 
L 215.635522 140.160886 
L 216.391849 141.147155 
L 217.148177 144.473636 
L 217.52634 144.845492 
L 218.660831 143.490891 
L 219.038995 144.918273 
L 220.173485 153.951373 
L 220.551649 153.762073 
L 220.929813 153.710634 
L 221.307976 155.956366 
L 222.064304 162.465711 
L 222.442467 163.351267 
L 222.820631 161.039837 
L 223.955122 147.887019 
L 224.333285 145.993559 
L 224.711449 145.181982 
L 225.089613 143.614912 
L 225.467776 141.208868 
L 225.84594 139.703823 
L 226.224103 138.938369 
L 226.602267 139.759137 
L 227.736758 146.781322 
L 228.114922 147.720234 
L 228.493085 148.172975 
L 228.871249 149.490137 
L 230.383903 160.908725 
L 230.762067 160.604084 
L 231.14023 158.967147 
L 231.896558 154.288916 
L 232.652885 151.146721 
L 233.031049 148.135225 
L 233.787376 139.769922 
L 234.165539 137.581489 
L 234.543703 138.264077 
L 234.921867 141.64634 
L 235.678194 150.994274 
L 236.056358 153.2725 
L 236.434521 153.368854 
L 236.812685 153.900989 
L 237.569012 159.144874 
L 237.947176 160.314312 
L 238.325339 158.981948 
L 239.081667 152.040986 
L 239.837994 145.842432 
L 240.972485 139.75569 
L 241.350648 137.176249 
L 241.728812 136.459232 
L 242.106976 138.187269 
L 242.485139 141.455731 
L 243.241466 149.851795 
L 243.61963 152.249431 
L 243.997794 152.834528 
L 244.375957 152.863596 
L 244.754121 153.750709 
L 245.132284 155.658839 
L 245.510448 156.637992 
L 245.888612 155.630752 
L 246.266775 153.080468 
L 247.023103 146.668696 
L 247.401266 145.865252 
L 247.77943 146.260335 
L 248.535757 149.381422 
L 248.913921 150.054114 
L 249.670248 149.747719 
L 250.048412 150.385996 
L 251.182902 156.966373 
L 251.561066 158.328102 
L 251.93923 157.768954 
L 252.317393 154.050796 
L 253.451884 136.387671 
L 253.830048 133.491279 
L 254.586375 130.017542 
L 254.964539 129.305438 
L 255.342702 128.953106 
L 255.720866 131.145387 
L 256.099029 137.48187 
L 257.23352 162.335734 
L 257.611684 165.329625 
L 257.989848 166.858687 
L 258.368011 167.762931 
L 258.746175 167.826768 
L 259.124338 166.859203 
L 259.880666 160.857723 
L 260.636993 155.640581 
L 261.015157 154.475662 
L 261.39332 154.581447 
L 261.771484 154.979148 
L 262.149647 156.110441 
L 262.527811 158.157941 
L 263.662302 167.860391 
L 264.040466 169.255614 
L 264.418629 169.695856 
L 264.796793 170.442062 
L 265.174956 170.842699 
L 265.55312 169.990182 
L 265.931284 167.66096 
L 267.065775 155.930249 
L 267.443938 153.474566 
L 268.200265 150.532441 
L 269.334756 144.638646 
L 269.71292 143.57329 
L 270.091083 144.413014 
L 270.847411 148.278822 
L 271.225574 149.356019 
L 271.603738 151.104858 
L 271.981902 153.612601 
L 272.738229 160.115275 
L 273.494556 163.610888 
L 273.87272 164.75294 
L 274.250883 164.618686 
L 274.629047 163.83497 
L 275.007211 162.782652 
L 276.519865 152.316207 
L 277.276192 150.073822 
L 278.410683 142.202034 
L 278.788847 140.894147 
L 279.16701 140.981102 
L 280.301501 144.5138 
L 280.679665 145.011659 
L 281.057828 146.204774 
L 282.570483 159.132782 
L 282.948647 160.430434 
L 283.32681 160.445757 
L 284.083137 157.173255 
L 284.461301 157.245518 
L 284.839465 158.494283 
L 285.217628 158.998561 
L 285.973956 158.268042 
L 286.352119 158.269171 
L 286.730283 159.194056 
L 287.48661 162.966761 
L 287.864774 164.189682 
L 288.242937 164.231883 
L 288.621101 163.835474 
L 288.999265 164.023461 
L 290.133755 167.917585 
L 290.511919 168.810089 
L 290.890083 169.245491 
L 291.268246 169.87807 
L 291.64641 170.753092 
L 292.024574 170.741786 
L 292.402737 170.2607 
L 292.780901 168.374735 
L 294.293555 154.755487 
L 295.80621 138.319189 
L 296.184373 136.340344 
L 296.562537 135.713279 
L 296.940701 135.977196 
L 297.318864 136.400932 
L 298.075191 135.5404 
L 298.453355 136.137176 
L 299.209682 139.897043 
L 299.587846 140.037152 
L 299.96601 139.043001 
L 300.722337 135.800537 
L 301.478664 134.398065 
L 301.856828 133.638002 
L 302.613155 131.228476 
L 302.991319 131.931901 
L 303.747646 137.907542 
L 304.503973 143.475122 
L 305.2603 148.916596 
L 306.016627 155.773389 
L 306.394791 157.995032 
L 306.772955 158.573811 
L 307.151118 157.148274 
L 307.529282 154.779659 
L 307.907446 153.777776 
L 308.285609 153.512928 
L 308.663773 153.51006 
L 309.041936 153.658147 
L 309.4201 152.896155 
L 309.798264 152.53682 
L 310.176427 153.003062 
L 310.554591 152.975007 
L 310.932755 153.569549 
L 311.310918 153.457994 
L 311.689082 153.097545 
L 312.067245 153.663119 
L 312.823573 157.765049 
L 313.201736 160.135114 
L 314.714391 165.043331 
L 315.092554 165.514506 
L 315.470718 164.273244 
L 316.605209 157.844237 
L 316.983373 156.210178 
L 317.361536 155.171811 
L 317.7397 153.598547 
L 318.117863 152.642375 
L 318.496027 154.016132 
L 318.874191 157.583356 
L 319.252354 162.262081 
L 319.630518 164.505615 
L 320.008681 164.119038 
L 320.765009 161.006619 
L 321.8995 158.204286 
L 323.03399 153.084851 
L 323.412154 153.293714 
L 323.790318 155.003036 
L 324.546645 162.672696 
L 325.302972 169.466661 
L 325.681136 170.29777 
L 326.437463 169.182733 
L 326.815627 169.552711 
L 327.19379 170.437439 
L 327.571954 170.626362 
L 327.950118 168.504088 
L 328.328281 164.427168 
L 329.084608 154.257928 
L 329.462772 152.862292 
L 329.840936 154.416867 
L 330.219099 156.745076 
L 330.597263 157.207905 
L 330.975426 157.043376 
L 331.35359 157.276367 
L 331.731754 158.776277 
L 332.109917 161.31919 
L 333.244408 173.180828 
L 334.000735 177.880734 
L 334.757063 181.932221 
L 335.891554 187.348728 
L 336.269717 188.585788 
L 336.647881 187.369276 
L 337.026044 183.542929 
L 338.160535 165.327009 
L 338.538699 163.269359 
L 338.916863 162.069839 
L 339.295026 159.994849 
L 340.051353 153.827092 
L 340.429517 152.816993 
L 340.807681 154.732408 
L 341.942172 165.81198 
L 342.698499 168.1881 
L 343.83299 171.301589 
L 344.211153 172.955224 
L 344.589317 173.731466 
L 344.96748 172.342641 
L 346.101971 163.695052 
L 346.480135 161.831765 
L 346.858299 161.034928 
L 347.236462 161.125326 
L 349.12728 168.715275 
L 349.883608 172.290415 
L 350.639935 174.769319 
L 351.018098 175.562173 
L 351.396262 175.412459 
L 351.774426 175.041913 
L 352.530753 175.271852 
L 352.908917 174.779763 
L 353.28708 173.667255 
L 353.665244 171.903962 
L 355.177898 162.215237 
L 355.556062 160.877285 
L 355.934225 160.120918 
L 356.312389 160.196939 
L 356.690553 160.961095 
L 357.825044 164.710725 
L 358.581371 167.58798 
L 358.959534 168.444905 
L 359.337698 167.665766 
L 359.715862 165.893212 
L 360.472189 160.748403 
L 360.850353 159.266634 
L 361.228516 158.626679 
L 361.60668 158.528603 
L 362.363007 157.048788 
L 362.741171 157.084127 
L 363.119334 158.165503 
L 364.253825 162.26073 
L 365.010152 164.503972 
L 365.388316 164.502823 
L 365.76648 164.925298 
L 366.522807 167.949171 
L 366.900971 170.209626 
L 368.035461 179.626309 
L 368.413625 181.682032 
L 368.791789 181.594749 
L 369.169952 180.745641 
L 369.926279 178.452133 
L 370.304443 178.723656 
L 370.682607 179.246212 
L 371.06077 178.213427 
L 371.438934 176.705453 
L 371.817098 173.976962 
L 372.195261 170.360154 
L 372.573425 168.616799 
L 372.951588 169.327745 
L 373.329752 172.373425 
L 373.707916 176.32627 
L 374.086079 178.887247 
L 374.464243 179.614369 
L 374.842407 179.377444 
L 375.22057 178.741911 
L 375.598734 179.819498 
L 375.976897 183.390027 
L 376.733225 192.676135 
L 377.111388 194.127536 
L 377.489552 192.644203 
L 378.245879 187.042418 
L 378.624043 186.859457 
L 379.38037 188.087849 
L 379.758534 188.218516 
L 380.136697 186.275273 
L 380.893024 180.683775 
L 381.271188 178.83098 
L 381.649352 178.954221 
L 382.027515 180.23661 
L 382.405679 180.984978 
L 382.783843 181.029711 
L 383.162006 179.912671 
L 383.54017 178.445018 
L 383.918333 178.093989 
L 384.296497 178.18958 
L 384.674661 178.044909 
L 385.052824 178.379268 
L 385.430988 178.553096 
L 385.809152 177.343773 
L 386.943642 171.295464 
L 387.321806 170.350998 
L 387.69997 168.905166 
L 388.456297 165.256643 
L 389.212624 161.685749 
L 389.590788 161.275825 
L 389.968951 162.601 
L 392.237933 180.103621 
L 392.616097 181.88901 
L 393.372424 183.454716 
L 394.128751 184.419326 
L 394.506915 183.778919 
L 394.885078 181.667463 
L 395.641406 175.502056 
L 396.019569 172.334575 
L 396.397733 170.24094 
L 396.775897 169.734738 
L 397.15406 169.614964 
L 397.532224 168.827218 
L 397.910387 166.454955 
L 398.666715 160.641019 
L 399.044878 159.185379 
L 399.423042 159.417834 
L 399.801206 160.95426 
L 400.557533 165.452833 
L 400.935696 166.769853 
L 401.31386 167.628611 
L 401.692024 169.09217 
L 403.582842 179.483633 
L 403.961005 179.802894 
L 404.339169 179.962993 
L 405.095496 180.610926 
L 405.47366 180.652322 
L 405.851823 180.385872 
L 406.229987 179.705283 
L 407.742642 172.52674 
L 408.120805 172.096524 
L 408.498969 173.529489 
L 409.255296 178.670224 
L 409.63346 178.960782 
L 410.011623 178.284325 
L 410.389787 178.243197 
L 411.524278 182.041656 
L 411.902441 181.731373 
L 412.280605 178.913783 
L 413.036932 171.59632 
L 413.415096 170.512545 
L 413.79326 171.186304 
L 414.171423 170.808407 
L 414.92775 168.027646 
L 415.305914 167.602238 
L 415.684078 168.506323 
L 416.062241 171.176324 
L 417.196732 183.595547 
L 418.331223 189.286432 
L 419.08755 191.385985 
L 419.465714 192.066223 
L 419.843877 192.021749 
L 420.222041 190.967579 
L 421.734696 180.128563 
L 422.112859 177.938114 
L 422.491023 176.480799 
L 423.24735 176.286358 
L 423.625514 175.076598 
L 424.003677 174.261781 
L 424.381841 174.539269 
L 424.760005 175.144971 
L 425.516332 178.716686 
L 426.272659 183.402258 
L 426.650823 185.489383 
L 427.028986 186.655014 
L 428.163477 191.47531 
L 429.297968 200.48759 
L 429.676132 202.355829 
L 430.054295 201.796331 
L 430.810622 197.926898 
L 431.188786 196.585679 
L 431.56695 196.42229 
L 431.945113 196.790777 
L 432.323277 197.646912 
L 432.701441 199.265168 
L 433.079604 200.129364 
L 433.457768 200.356403 
L 433.835931 200.18339 
L 434.214095 199.34526 
L 434.592259 197.609758 
L 434.970422 195.045922 
L 435.72675 187.22763 
L 436.483077 177.85557 
L 436.86124 175.175667 
L 437.239404 174.489821 
L 437.617568 174.700413 
L 437.995731 176.008684 
L 438.752059 180.819323 
L 439.886549 190.274343 
L 440.264713 192.585943 
L 440.642877 192.852341 
L 441.02104 191.328866 
L 442.155531 184.756355 
L 442.533695 183.77208 
L 442.911858 183.588178 
L 444.046349 184.359654 
L 444.424513 185.158563 
L 445.559004 189.336426 
L 445.937167 191.272467 
L 446.315331 192.203814 
L 446.693495 192.089071 
L 447.071658 192.395469 
L 447.449822 194.267096 
L 448.584313 202.770365 
L 448.962476 203.691636 
L 449.34064 203.95564 
L 449.718804 203.70696 
L 450.096967 203.123885 
L 450.475131 201.874362 
L 450.853294 199.231143 
L 451.987785 188.689888 
L 452.365949 186.911041 
L 452.744113 186.764416 
L 453.122276 187.262702 
L 453.50044 188.562211 
L 453.878603 191.282165 
L 455.013094 202.484349 
L 455.769421 205.542442 
L 456.147585 206.686218 
L 456.525749 206.707885 
L 456.903912 206.367306 
L 457.282076 205.049861 
L 458.038403 198.883054 
L 458.79473 193.198344 
L 459.172894 191.99692 
L 459.551058 190.002611 
L 460.685549 181.59123 
L 461.063712 180.303073 
L 461.441876 180.003947 
L 461.820039 181.174346 
L 462.576367 185.497602 
L 463.332694 188.251271 
L 463.710858 190.543894 
L 465.223512 204.344964 
L 465.601676 205.483116 
L 465.979839 203.885936 
L 466.736167 196.93209 
L 468.626985 177.157281 
L 469.005148 175.876998 
L 469.383312 176.071495 
L 469.761475 178.198415 
L 470.895966 189.03078 
L 471.652294 196.497164 
L 472.030457 198.405007 
L 472.408621 197.861915 
L 472.786784 195.236177 
L 473.543112 186.145309 
L 473.921275 180.867289 
L 474.299439 177.236536 
L 474.677603 175.222734 
L 475.055766 174.035641 
L 475.43393 173.663668 
L 475.812093 173.850034 
L 476.190257 175.820183 
L 477.702912 188.922385 
L 478.081075 190.455476 
L 478.459239 190.090338 
L 478.837402 189.412137 
L 479.215566 188.414116 
L 479.59373 188.421061 
L 479.971893 189.026859 
L 480.350057 189.058041 
L 480.72822 189.248688 
L 481.106384 188.936265 
L 481.484548 188.259573 
L 481.862711 189.264141 
L 482.240875 191.264982 
L 482.997202 196.678146 
L 483.375366 197.796087 
L 483.753529 198.042153 
L 484.131693 199.029148 
L 484.509857 200.756763 
L 485.266184 205.97764 
L 485.644348 206.334734 
L 486.400675 204.062637 
L 486.778838 202.958228 
L 487.157002 203.611777 
L 487.535166 205.486075 
L 487.913329 205.439051 
L 488.291493 203.12178 
L 488.669657 199.790734 
L 489.04782 198.605885 
L 489.425984 200.425268 
L 489.804147 203.389301 
L 490.182311 204.643184 
L 490.560475 203.219493 
L 491.316802 199.517911 
L 491.694966 200.433735 
L 492.451293 204.524911 
L 492.829456 204.998356 
L 493.20762 203.205726 
L 493.585784 200.574057 
L 493.963947 198.870283 
L 494.342111 199.227835 
L 494.720274 200.170506 
L 495.098438 200.226877 
L 495.476602 198.628588 
L 496.232929 194.615687 
L 496.611093 193.582307 
L 496.989256 193.074817 
L 497.36742 193.999456 
L 497.745583 195.292351 
L 498.123747 195.810279 
L 498.501911 194.631382 
L 498.880074 192.464419 
L 499.258238 191.512354 
L 499.636402 192.83753 
L 500.392729 199.198558 
L 500.770892 202.22771 
L 501.905383 206.057132 
L 502.283547 209.586197 
L 503.039874 218.155767 
L 503.418038 219.680165 
L 503.796201 218.098545 
L 504.552529 211.406207 
L 504.930692 209.230202 
L 506.065183 205.288168 
L 507.199674 199.035685 
L 507.577838 198.758502 
L 507.956001 200.176113 
L 508.712328 204.26017 
L 509.090492 205.298192 
L 509.468656 204.449986 
L 510.603147 196.463638 
L 512.115801 187.596641 
L 512.493965 186.744484 
L 512.872128 186.666189 
L 513.250292 187.744191 
L 513.628456 190.543848 
L 514.762946 203.408674 
L 515.14111 205.904199 
L 515.519274 206.976198 
L 515.897437 206.946469 
L 516.653765 204.908956 
L 517.410092 201.784163 
L 518.166419 195.739475 
L 518.544583 195.045437 
L 518.922746 196.252091 
L 520.813564 210.75358 
L 521.569892 218.335653 
L 521.948055 220.738406 
L 522.326219 221.169057 
L 523.082546 220.696079 
L 523.46071 220.741109 
L 523.838873 221.129513 
L 524.217037 221.114731 
L 524.595201 219.971677 
L 525.351528 216.337686 
L 525.729691 215.345923 
L 526.107855 216.212646 
L 526.864182 219.85034 
L 527.242346 220.883778 
L 527.998673 219.729922 
L 528.376837 220.178924 
L 528.755 220.886507 
L 529.511328 224.160793 
L 529.889491 224.547273 
L 530.267655 223.030718 
L 530.645818 220.305989 
L 531.023982 219.495684 
L 531.402146 220.91374 
L 531.780309 222.771911 
L 532.158473 223.090919 
L 532.536637 220.950693 
L 533.292964 213.215099 
L 533.671127 209.12931 
L 534.049291 206.386704 
L 535.561946 200.969234 
L 535.940109 201.389371 
L 536.696436 206.011832 
L 537.452764 210.877161 
L 537.830927 212.268003 
L 538.209091 212.298366 
L 538.209091 212.298366 
" style="fill:none;stroke:#1f77b4;stroke-linecap:square;"/>
   </g>
   <g id="line2d_13">
    <path clip-path="url(#p0534d08b1f)" d="M 84.790909 94.239861 
L 85.169073 94.316165 
L 85.547236 94.237259 
L 87.059891 92.616 
L 87.438054 91.609647 
L 88.950709 85.437386 
L 89.707036 84.484606 
L 90.463363 82.875266 
L 90.841527 82.236588 
L 91.219691 82.535018 
L 91.976018 84.836857 
L 92.354182 85.224554 
L 92.732345 85.10686 
L 93.488672 84.167611 
L 93.866836 84.314447 
L 95.37949 84.229345 
L 95.757654 84.513543 
L 96.135818 85.042502 
L 96.892145 86.781349 
L 97.648472 88.556039 
L 98.026636 88.304415 
L 98.404799 88.244932 
L 98.782963 87.996353 
L 99.161127 87.881626 
L 99.917454 89.364329 
L 100.295618 88.907249 
L 100.673781 87.693416 
L 101.430108 84.678329 
L 101.808272 85.326406 
L 102.942763 89.174306 
L 103.320927 89.473615 
L 103.69909 90.257504 
L 104.455417 93.311303 
L 104.833581 95.16083 
L 105.211745 95.960138 
L 105.589908 96.091296 
L 105.968072 96.082171 
L 106.346235 96.185536 
L 106.724399 96.901326 
L 107.85889 100.163665 
L 108.237054 101.059457 
L 108.615217 101.064532 
L 108.993381 100.861892 
L 110.127872 97.103633 
L 110.506035 96.11525 
L 110.884199 95.640422 
L 111.262363 95.435698 
L 111.640526 95.496015 
L 112.01869 95.892539 
L 112.775017 97.023741 
L 113.153181 97.13215 
L 113.531344 96.805908 
L 114.665835 94.783087 
L 115.043999 93.659075 
L 116.17849 89.444496 
L 116.556653 89.495274 
L 116.934817 90.622212 
L 119.581962 103.699643 
L 119.960126 104.76625 
L 120.716453 106.171299 
L 121.47278 106.373333 
L 121.850944 105.535548 
L 122.607271 101.527966 
L 122.985435 99.091698 
L 123.363598 97.884392 
L 124.119926 97.594504 
L 124.498089 97.728131 
L 124.876253 97.353677 
L 125.254417 96.43636 
L 125.63258 95.954812 
L 126.010744 96.186359 
L 126.388907 97.10257 
L 127.145235 100.03101 
L 127.523398 100.837756 
L 128.279726 101.117517 
L 129.036053 100.883368 
L 129.79238 101.208577 
L 130.170544 100.94542 
L 130.926871 101.053439 
L 131.305034 101.095642 
L 132.817689 104.842987 
L 133.195853 104.918329 
L 133.574016 104.815475 
L 134.330343 104.993593 
L 134.708507 105.405302 
L 135.086671 106.090088 
L 135.464834 106.356977 
L 135.842998 105.894254 
L 136.221162 104.825273 
L 136.977489 102.089596 
L 137.355652 101.650217 
L 137.733816 101.722622 
L 138.11198 101.908778 
L 138.868307 101.506576 
L 139.246471 101.588251 
L 139.624634 102.719451 
L 140.380961 105.956188 
L 140.759125 106.890535 
L 141.137289 107.008661 
L 141.893616 105.466258 
L 142.649943 103.636408 
L 143.40627 102.939099 
L 143.784434 103.193029 
L 144.162598 103.694169 
L 144.918925 106.06839 
L 145.297088 107.397799 
L 145.675252 108.153945 
L 146.053416 107.802271 
L 147.56607 104.203346 
L 148.322397 101.520262 
L 149.078725 98.730262 
L 149.456888 98.35303 
L 149.835052 98.888823 
L 150.969543 102.755884 
L 151.347706 102.854794 
L 151.72587 102.483596 
L 152.104034 101.901952 
L 152.482197 101.689393 
L 152.860361 101.725675 
L 153.238525 101.526402 
L 153.994852 101.466504 
L 155.129343 100.213312 
L 155.507506 99.767163 
L 155.88567 100.114744 
L 156.263833 101.193059 
L 157.020161 104.140864 
L 157.398324 104.922874 
L 157.776488 105.265555 
L 158.154652 105.221947 
L 158.532815 104.758472 
L 158.910979 103.884456 
L 159.667306 101.318789 
L 160.04547 100.807234 
L 160.423633 100.618938 
L 161.179961 101.821989 
L 161.558124 102.485704 
L 162.692615 105.288659 
L 163.070779 105.732878 
L 163.448942 105.943968 
L 163.827106 105.894713 
L 164.20527 106.20089 
L 164.583433 106.918989 
L 164.961597 107.364642 
L 165.33976 106.874925 
L 166.096088 104.696644 
L 166.474251 103.85057 
L 166.852415 103.911604 
L 167.230579 104.577528 
L 167.986906 104.510146 
L 168.365069 103.933435 
L 168.743233 103.058226 
L 169.121397 102.817255 
L 169.49956 103.036636 
L 170.255887 105.313362 
L 171.012215 108.430489 
L 171.768542 109.934477 
L 172.146706 110.013514 
L 172.524869 110.235944 
L 172.903033 110.75408 
L 173.281196 110.650399 
L 174.037524 108.566364 
L 174.415687 107.975482 
L 174.793851 107.730944 
L 175.550178 109.140158 
L 175.928342 109.553162 
L 177.062833 112.141344 
L 178.575487 118.173427 
L 178.953651 118.498855 
L 179.331814 117.728285 
L 180.088142 112.83606 
L 180.466305 110.451797 
L 180.844469 108.934041 
L 181.222632 108.429634 
L 181.600796 108.552899 
L 181.97896 108.52361 
L 183.113451 107.300322 
L 183.491614 108.07117 
L 184.626105 111.991108 
L 185.004269 112.307882 
L 185.382432 112.039693 
L 186.516923 110.030547 
L 186.895087 110.374616 
L 187.651414 111.54019 
L 188.029578 111.417666 
L 188.785905 109.597505 
L 189.164069 109.413684 
L 189.542232 110.07042 
L 191.054887 117.146492 
L 191.43305 118.091294 
L 192.189378 120.514538 
L 192.567541 121.710429 
L 192.945705 122.415674 
L 193.323868 121.972344 
L 193.702032 121.218115 
L 194.080196 120.021427 
L 194.836523 116.806074 
L 195.59285 114.402304 
L 196.349177 113.656573 
L 197.483668 112.624267 
L 197.861832 112.903387 
L 198.618159 113.651961 
L 198.996323 114.04048 
L 200.887141 112.549123 
L 201.643468 112.237487 
L 202.021632 112.257666 
L 203.156123 114.253298 
L 203.534286 114.696497 
L 204.290613 114.944815 
L 204.668777 115.289759 
L 205.425104 116.343469 
L 205.803268 116.506715 
L 206.181431 116.277624 
L 206.559595 115.870526 
L 206.937759 115.930898 
L 207.315922 116.960069 
L 208.07225 119.719934 
L 208.450413 120.616898 
L 208.828577 120.345032 
L 209.963068 117.864114 
L 210.719395 115.805484 
L 211.853886 113.992067 
L 212.610213 114.736921 
L 213.744704 116.869954 
L 214.501031 118.000064 
L 215.257358 118.118038 
L 215.635522 118.05768 
L 216.013686 117.495384 
L 216.391849 117.227769 
L 217.52634 115.680068 
L 217.904504 115.618451 
L 218.282667 115.90307 
L 218.660831 116.370824 
L 219.038995 115.937956 
L 220.173485 111.731011 
L 220.551649 111.415789 
L 220.929813 111.408128 
L 221.307976 110.631033 
L 221.68614 109.497114 
L 222.064304 107.793767 
L 222.442467 106.954228 
L 222.820631 108.043106 
L 223.198794 110.028954 
L 223.955122 114.823949 
L 224.333285 116.287023 
L 225.089613 117.578428 
L 225.467776 118.765708 
L 226.224103 119.814243 
L 226.602267 119.63414 
L 227.358594 117.397359 
L 228.114922 116.311179 
L 228.871249 116.460966 
L 229.627576 114.605561 
L 230.383903 112.266932 
L 230.762067 112.357011 
L 231.14023 112.965586 
L 233.031049 119.714529 
L 233.787376 123.805538 
L 234.165539 124.935712 
L 234.543703 124.791259 
L 234.921867 123.468825 
L 235.678194 119.127407 
L 236.056358 118.063251 
L 236.434521 117.833017 
L 236.812685 117.938426 
L 237.190848 117.190322 
L 237.569012 116.188969 
L 237.947176 115.561898 
L 238.325339 116.076106 
L 238.703503 117.726933 
L 239.45983 121.975812 
L 240.216157 125.061282 
L 241.728812 129.903558 
L 242.106976 129.554207 
L 242.485139 128.486794 
L 243.241466 124.750692 
L 243.61963 124.045952 
L 243.997794 123.918947 
L 244.754121 124.28715 
L 245.510448 123.786213 
L 245.888612 124.352471 
L 246.266775 125.575804 
L 247.023103 128.570973 
L 247.401266 128.817702 
L 247.77943 128.771479 
L 248.157593 128.075436 
L 248.535757 127.079823 
L 248.913921 126.816144 
L 249.670248 126.790769 
L 250.048412 126.438927 
L 250.426575 125.4214 
L 251.182902 123.047601 
L 251.561066 122.316445 
L 251.93923 122.837088 
L 252.317393 124.932762 
L 253.830048 136.665543 
L 254.586375 138.427094 
L 254.964539 138.745927 
L 255.342702 138.798472 
L 255.720866 137.851455 
L 256.099029 134.896279 
L 257.23352 122.679653 
L 257.611684 121.164244 
L 257.989848 120.43707 
L 258.368011 120.134985 
L 258.746175 120.223144 
L 259.124338 120.544514 
L 259.502502 121.816217 
L 260.636993 127.007423 
L 261.015157 127.804353 
L 261.39332 127.956857 
L 261.771484 127.884827 
L 262.149647 127.537173 
L 262.527811 126.757246 
L 262.905975 125.66449 
L 263.284138 123.983772 
L 264.040466 121.897504 
L 264.418629 121.492597 
L 264.796793 121.338407 
L 265.174956 121.043854 
L 265.55312 121.60668 
L 265.931284 122.78288 
L 267.822102 133.118314 
L 269.334756 138.482729 
L 269.71292 139.402598 
L 270.091083 139.44534 
L 270.469247 138.590695 
L 271.225574 137.533052 
L 272.360065 134.598354 
L 272.738229 133.105441 
L 273.494556 131.6087 
L 273.87272 131.079239 
L 274.250883 131.197138 
L 275.007211 132.334004 
L 275.763538 135.811323 
L 276.898029 139.55039 
L 277.276192 140.259147 
L 278.410683 144.959532 
L 278.788847 145.996584 
L 279.16701 146.260725 
L 279.923338 145.566466 
L 280.301501 145.253727 
L 281.057828 145.07601 
L 281.814156 142.604077 
L 282.570483 139.620858 
L 282.948647 139.024629 
L 283.32681 139.233191 
L 284.461301 141.961977 
L 285.217628 142.292064 
L 286.352119 143.858107 
L 286.730283 143.692341 
L 287.108446 142.698304 
L 287.864774 141.651372 
L 288.242937 141.595309 
L 288.621101 142.105549 
L 288.999265 142.401411 
L 289.377428 142.061613 
L 290.133755 141.131744 
L 290.511919 140.863602 
L 290.890083 140.989532 
L 291.268246 140.971755 
L 291.64641 140.651722 
L 292.024574 140.660468 
L 292.402737 140.858979 
L 292.780901 141.712624 
L 294.293555 149.827704 
L 295.80621 159.005953 
L 296.184373 160.372398 
L 296.562537 161.010777 
L 297.697028 160.610365 
L 298.075191 160.52332 
L 298.453355 160.322023 
L 298.831519 159.740625 
L 299.209682 158.813387 
L 299.587846 158.645153 
L 299.96601 158.999916 
L 300.722337 161.019254 
L 301.1005 161.252415 
L 302.234991 162.579294 
L 302.613155 163.365357 
L 302.991319 163.194278 
L 303.369482 162.166749 
L 306.394791 151.127713 
L 306.772955 150.671883 
L 307.151118 151.210115 
L 307.529282 152.344013 
L 307.907446 152.98203 
L 308.285609 153.318606 
L 308.663773 153.488293 
L 309.041936 153.20178 
L 309.798264 154.41067 
L 310.176427 154.512732 
L 310.554591 155.111791 
L 310.932755 154.944338 
L 311.310918 154.932147 
L 311.689082 155.216287 
L 312.067245 154.787942 
L 312.823573 153.327752 
L 313.201736 152.229739 
L 313.5799 151.504181 
L 313.958064 151.154234 
L 314.336227 150.561118 
L 314.714391 150.522841 
L 315.092554 150.664007 
L 315.470718 151.582822 
L 316.605209 155.700258 
L 316.983373 156.859229 
L 317.361536 157.63253 
L 318.117863 159.694311 
L 318.496027 159.334506 
L 318.874191 158.126224 
L 319.252354 156.242069 
L 319.630518 154.968204 
L 320.008681 155.0028 
L 320.386845 155.720493 
L 320.765009 156.709305 
L 321.143172 157.197678 
L 321.521336 157.293169 
L 321.8995 157.821672 
L 323.03399 160.180114 
L 323.412154 160.181029 
L 323.790318 159.64986 
L 324.168481 158.128797 
L 325.302972 152.602448 
L 325.681136 151.960498 
L 326.437463 152.599913 
L 326.815627 152.637587 
L 327.571954 152.201247 
L 327.950118 152.970692 
L 328.328281 154.703711 
L 329.084608 159.723862 
L 329.462772 160.751832 
L 329.840936 160.577296 
L 330.219099 159.604303 
L 330.597263 159.260968 
L 330.975426 159.173558 
L 331.35359 159.273542 
L 331.731754 158.897854 
L 332.109917 157.595743 
L 332.866245 153.85018 
L 333.622572 151.072471 
L 334.378899 149.22745 
L 335.135226 147.324752 
L 336.269717 145.569875 
L 336.647881 146.212172 
L 337.026044 147.699326 
L 338.160535 156.924973 
L 338.538699 158.401847 
L 339.295026 159.748594 
L 339.67319 160.8956 
L 340.051353 162.675501 
L 340.429517 163.522857 
L 340.807681 162.771511 
L 341.185844 161.442146 
L 341.564008 159.584472 
L 341.942172 158.326113 
L 342.320335 157.797899 
L 343.454826 156.91687 
L 344.211153 155.897006 
L 344.589317 155.808372 
L 344.96748 156.434342 
L 345.723808 159.545325 
L 346.480135 162.397414 
L 346.858299 162.944556 
L 347.236462 163.26194 
L 347.614626 162.822058 
L 349.505444 159.172041 
L 349.883608 158.456875 
L 350.261771 158.018493 
L 350.639935 157.753086 
L 351.018098 157.689446 
L 351.396262 157.844684 
L 351.774426 158.160167 
L 352.530753 158.266645 
L 352.908917 158.614394 
L 353.28708 159.347271 
L 353.665244 160.420735 
L 355.177898 166.331684 
L 355.934225 168.267951 
L 356.312389 168.772235 
L 356.690553 169.023139 
L 357.44688 168.606932 
L 358.959534 166.851102 
L 359.337698 167.086294 
L 359.715862 167.941282 
L 361.228516 173.368228 
L 362.363007 174.895657 
L 362.741171 174.820032 
L 363.119334 174.485099 
L 363.497498 173.776915 
L 364.253825 172.076686 
L 364.631989 171.419163 
L 365.010152 171.009764 
L 365.76648 171.39136 
L 366.522807 171.1001 
L 366.900971 170.093957 
L 367.657298 167.115836 
L 368.413625 164.367041 
L 368.791789 164.532782 
L 369.548116 165.528295 
L 369.926279 166.343508 
L 370.304443 166.418678 
L 370.682607 166.369292 
L 371.438934 167.913279 
L 371.817098 169.366885 
L 372.195261 171.340942 
L 372.573425 172.134793 
L 372.951588 172.088475 
L 373.329752 171.22594 
L 373.707916 169.65967 
L 374.086079 168.647015 
L 374.464243 168.54952 
L 374.842407 168.94455 
L 375.22057 169.535771 
L 375.598734 169.308929 
L 375.976897 168.03264 
L 377.111388 163.036441 
L 377.489552 163.570692 
L 377.867716 164.708907 
L 378.245879 166.341215 
L 378.624043 166.789202 
L 379.758534 166.810988 
L 380.136697 168.166131 
L 380.893024 171.466239 
L 381.271188 172.946625 
L 381.649352 173.418483 
L 382.027515 172.964463 
L 382.405679 172.829284 
L 382.783843 172.943399 
L 383.918333 175.159853 
L 384.674661 175.56375 
L 385.052824 175.580871 
L 385.430988 175.850205 
L 387.321806 181.200105 
L 387.69997 182.006164 
L 388.078133 183.289521 
L 388.456297 184.12665 
L 389.212624 186.266076 
L 389.590788 186.470311 
L 389.968951 186.130455 
L 391.85977 179.899495 
L 392.616097 178.22756 
L 393.372424 177.672056 
L 394.128751 177.332753 
L 394.506915 177.817442 
L 395.263242 180.842331 
L 396.019569 185.126756 
L 396.397733 186.523816 
L 396.775897 187.275651 
L 397.532224 188.03575 
L 397.910387 188.920608 
L 398.666715 192.154818 
L 399.044878 193.331765 
L 399.423042 193.627919 
L 399.801206 192.958353 
L 400.935696 190.059968 
L 402.070187 188.240796 
L 402.826515 186.051147 
L 403.582842 184.137799 
L 404.339169 183.563272 
L 404.717333 183.418486 
L 405.095496 183.517413 
L 405.47366 183.415871 
L 405.851823 183.563755 
L 406.229987 184.112067 
L 407.364478 187.514596 
L 407.742642 188.859951 
L 408.120805 189.419302 
L 408.498969 189.087938 
L 409.255296 187.051456 
L 409.63346 186.68226 
L 410.389787 187.2792 
L 410.767951 187.073711 
L 411.524278 185.899264 
L 411.902441 185.829988 
L 412.658769 189.0494 
L 413.036932 190.727501 
L 413.415096 191.667375 
L 413.79326 191.545165 
L 414.171423 191.591064 
L 414.549587 192.055333 
L 414.92775 192.974046 
L 415.305914 193.577008 
L 415.684078 193.370817 
L 416.062241 192.28171 
L 417.196732 186.620879 
L 417.574896 185.506869 
L 419.08755 182.953731 
L 419.465714 182.510101 
L 419.843877 182.739578 
L 420.222041 183.235074 
L 420.978368 186.284327 
L 421.734696 189.418678 
L 422.491023 191.428927 
L 422.869186 191.759557 
L 423.24735 191.808239 
L 423.625514 192.211145 
L 424.003677 192.292475 
L 424.760005 192.10327 
L 426.650823 186.568364 
L 427.028986 186.22847 
L 427.785314 185.246843 
L 428.163477 184.750077 
L 429.676132 179.840436 
L 430.054295 180.057518 
L 431.188786 183.816199 
L 431.56695 184.248756 
L 431.945113 184.058649 
L 432.323277 183.66834 
L 432.701441 182.849324 
L 433.457768 182.400164 
L 433.835931 182.530744 
L 434.592259 183.820501 
L 434.970422 184.812822 
L 435.348586 186.379693 
L 436.86124 194.324348 
L 437.239404 194.903769 
L 437.617568 194.993632 
L 437.995731 194.423407 
L 438.752059 192.770125 
L 440.264713 187.623775 
L 440.642877 187.460006 
L 441.02104 188.133562 
L 441.399204 189.355461 
L 442.155531 192.341663 
L 442.533695 193.098556 
L 442.911858 193.591377 
L 443.290022 193.745713 
L 444.424513 193.444727 
L 445.18084 192.931415 
L 445.937167 191.425493 
L 446.315331 191.130673 
L 447.071658 190.935134 
L 447.449822 190.435193 
L 447.827985 189.282946 
L 448.206149 187.609399 
L 448.584313 186.464653 
L 448.962476 186.042791 
L 449.34064 185.980637 
L 449.718804 186.075007 
L 450.096967 186.345727 
L 450.475131 186.977936 
L 450.853294 188.237416 
L 452.365949 195.745132 
L 453.122276 196.653019 
L 453.50044 196.388069 
L 453.878603 195.240763 
L 455.013094 189.909685 
L 455.391258 188.988308 
L 455.769421 188.76704 
L 456.147585 188.285068 
L 456.903912 188.590594 
L 457.282076 189.289123 
L 458.416567 194.221749 
L 458.79473 195.903401 
L 459.551058 198.089167 
L 460.685549 203.038586 
L 461.063712 204.035895 
L 461.441876 204.487205 
L 461.820039 204.486492 
L 462.198203 203.638435 
L 462.95453 202.535144 
L 463.710858 201.19149 
L 464.467185 197.804354 
L 465.223512 194.568495 
L 465.601676 193.778101 
L 465.979839 194.539726 
L 466.736167 198.260297 
L 468.248821 207.973595 
L 468.626985 209.71439 
L 469.005148 210.208273 
L 469.383312 210.139688 
L 469.761475 209.16276 
L 471.652294 200.663492 
L 472.030457 199.774725 
L 472.408621 199.894505 
L 472.786784 201.212715 
L 473.164948 202.95368 
L 474.299439 209.898781 
L 474.677603 211.224691 
L 475.055766 211.997601 
L 475.43393 211.937599 
L 475.812093 211.697006 
L 476.190257 210.855445 
L 478.081075 203.988554 
L 478.459239 204.05583 
L 478.837402 204.345788 
L 479.59373 205.714429 
L 479.971893 205.518489 
L 480.350057 205.837888 
L 481.106384 206.191141 
L 481.484548 206.920579 
L 481.862711 206.673002 
L 482.240875 205.971534 
L 482.619039 205.030277 
L 482.997202 203.612478 
L 483.375366 203.139369 
L 483.753529 202.999012 
L 484.509857 202.119776 
L 485.266184 200.263429 
L 485.644348 200.197653 
L 486.400675 200.889659 
L 486.778838 201.584198 
L 487.157002 201.473663 
L 487.535166 200.436441 
L 487.913329 200.539289 
L 488.291493 201.195395 
L 489.04782 203.173378 
L 489.425984 202.749122 
L 489.804147 201.506238 
L 490.182311 200.745043 
L 490.560475 201.321377 
L 491.316802 203.603664 
L 491.694966 203.6661 
L 492.829456 201.701756 
L 493.20762 202.528026 
L 493.963947 204.619639 
L 494.342111 204.974793 
L 494.720274 204.781015 
L 495.098438 204.858246 
L 495.476602 205.574067 
L 496.232929 208.183625 
L 496.611093 209.087391 
L 496.989256 209.666446 
L 497.36742 209.445061 
L 497.745583 209.025476 
L 498.123747 208.978174 
L 498.501911 209.30784 
L 499.258238 211.122685 
L 499.636402 211.039415 
L 500.014565 210.071795 
L 500.770892 207.153432 
L 501.905383 205.56186 
L 502.283547 204.310481 
L 503.039874 200.511441 
L 503.418038 199.377693 
L 503.796201 199.909747 
L 504.930692 204.508326 
L 505.687019 206.358783 
L 506.065183 207.212163 
L 507.199674 211.293822 
L 507.577838 212.16524 
L 507.956001 212.241925 
L 509.090492 209.933904 
L 509.468656 210.101443 
L 510.224983 212.650414 
L 510.98131 215.525023 
L 512.493965 219.420096 
L 512.872128 219.835824 
L 513.250292 219.606163 
L 513.628456 218.551154 
L 514.006619 216.777295 
L 514.762946 212.333363 
L 515.14111 211.008128 
L 515.519274 210.319409 
L 515.897437 210.274199 
L 516.653765 210.983387 
L 517.410092 212.335921 
L 517.788255 213.36617 
L 518.166419 214.938631 
L 518.544583 215.358179 
L 518.922746 215.283129 
L 519.30091 214.429754 
L 519.679073 212.623051 
L 520.435401 210.562139 
L 521.569892 206.007766 
L 521.948055 204.960402 
L 522.326219 204.831335 
L 523.082546 205.090899 
L 523.46071 205.106407 
L 523.838873 205.000057 
L 524.217037 205.215277 
L 524.595201 205.827377 
L 525.729691 208.604111 
L 526.107855 208.427901 
L 527.242346 206.316331 
L 527.998673 206.750971 
L 528.755 206.08562 
L 529.511328 204.323083 
L 529.889491 204.378082 
L 530.267655 205.016983 
L 530.645818 206.130678 
L 531.023982 206.667683 
L 531.402146 206.328962 
L 532.158473 205.21302 
L 532.536637 206.252431 
L 534.049291 214.664124 
L 534.805618 216.604931 
L 535.183782 217.215381 
L 535.561946 217.498825 
L 535.940109 217.438621 
L 536.318273 216.669962 
L 537.452764 213.131345 
L 537.830927 212.451556 
L 538.209091 212.298366 
L 538.209091 212.298366 
" style="fill:none;stroke:#ff7f0e;stroke-linecap:square;"/>
   </g>
   <g id="line2d_14">
    <path clip-path="url(#p0534d08b1f)" d="M 84.790909 93.590352 
L 85.169073 93.665885 
L 85.9254 94.426939 
L 86.681727 94.328021 
L 87.059891 94.452009 
L 87.816218 95.248873 
L 88.194382 95.350264 
L 89.328873 94.712053 
L 89.707036 94.72615 
L 90.463363 95.643812 
L 90.841527 95.720186 
L 91.219691 95.527844 
L 91.976018 95.574039 
L 92.354182 95.853836 
L 93.110509 96.656059 
L 93.488672 96.858357 
L 94.623163 96.96013 
L 95.001327 97.31846 
L 95.37949 97.416935 
L 96.135818 97.095249 
L 96.513981 96.831294 
L 96.892145 96.397208 
L 97.270309 95.786779 
L 97.648472 95.533537 
L 98.026636 95.821524 
L 98.782963 95.95992 
L 99.161127 95.889599 
L 99.917454 96.26777 
L 100.295618 96.921389 
L 101.051945 98.606343 
L 101.430108 98.526086 
L 102.186436 97.963064 
L 102.564599 97.657356 
L 103.69909 97.598051 
L 104.077254 97.061587 
L 104.833581 94.712472 
L 105.211745 94.32022 
L 105.968072 95.334234 
L 106.346235 95.339962 
L 107.102563 94.345731 
L 107.480726 94.372568 
L 107.85889 94.094352 
L 108.237054 93.973452 
L 108.615217 94.327371 
L 110.127872 97.122983 
L 111.640526 97.333811 
L 112.01869 97.121135 
L 112.396853 96.745463 
L 112.775017 96.548576 
L 113.153181 96.70495 
L 114.287672 98.082269 
L 115.043999 98.573939 
L 115.422162 99.047946 
L 115.800326 99.319168 
L 116.556653 99.228335 
L 116.934817 98.706721 
L 117.691144 96.681013 
L 118.447471 93.005311 
L 119.960126 85.461153 
L 120.338289 84.766079 
L 120.716453 84.387733 
L 121.47278 84.378807 
L 122.607271 86.716803 
L 123.363598 85.933204 
L 123.741762 85.836888 
L 124.119926 85.546075 
L 124.876253 85.709637 
L 125.254417 85.487701 
L 125.63258 85.611218 
L 126.010744 85.240316 
L 126.767071 83.469109 
L 127.145235 82.458495 
L 127.523398 82.13226 
L 128.279726 83.213813 
L 128.657889 83.416384 
L 129.036053 83.38927 
L 130.548707 83.991149 
L 130.926871 84.359487 
L 131.305034 84.446303 
L 131.683198 84.156285 
L 132.439525 82.970511 
L 132.817689 82.569768 
L 133.195853 82.339829 
L 134.330343 82.87706 
L 135.086671 82.596718 
L 135.464834 82.758182 
L 136.599325 84.532186 
L 136.977489 84.629089 
L 137.355652 84.503249 
L 137.733816 84.239216 
L 138.11198 84.24161 
L 139.246471 84.580382 
L 139.624634 83.876024 
L 140.380961 81.799306 
L 140.759125 81.633588 
L 141.137289 82.379792 
L 141.515452 83.559537 
L 142.27178 84.961067 
L 142.649943 85.11143 
L 143.40627 85.646826 
L 143.784434 85.785123 
L 144.162598 85.480651 
L 144.540761 84.826481 
L 145.297088 82.849613 
L 145.675252 82.58355 
L 146.053416 83.317085 
L 146.431579 84.58323 
L 146.809743 85.386457 
L 147.56607 86.066436 
L 148.322397 87.036124 
L 149.456888 87.952103 
L 149.835052 87.934038 
L 150.213216 87.644663 
L 150.591379 87.515295 
L 151.347706 88.010201 
L 152.482197 88.648016 
L 153.616688 89.267452 
L 155.129343 90.506813 
L 155.507506 90.564291 
L 155.88567 90.498211 
L 156.263833 90.123304 
L 157.020161 88.684267 
L 157.398324 88.32766 
L 158.154652 88.343537 
L 158.532815 88.710624 
L 159.289142 89.998254 
L 160.801797 90.843971 
L 161.179961 91.118163 
L 161.558124 91.066916 
L 161.936288 90.755371 
L 162.314451 90.272244 
L 162.692615 89.998482 
L 163.070779 90.295811 
L 163.827106 91.649894 
L 164.20527 91.847823 
L 164.583433 91.732216 
L 164.961597 92.00265 
L 165.717924 94.290236 
L 166.096088 94.810692 
L 166.474251 94.902139 
L 167.230579 94.489202 
L 167.608742 94.408031 
L 167.986906 94.682411 
L 168.365069 95.310194 
L 168.743233 95.685111 
L 169.121397 95.746672 
L 170.255887 95.091441 
L 171.012215 93.916898 
L 171.390378 93.662952 
L 172.146706 93.707992 
L 172.903033 93.686641 
L 173.281196 94.236976 
L 174.037524 96.478089 
L 174.415687 97.128133 
L 174.793851 97.284863 
L 175.172015 97.199498 
L 175.550178 96.951937 
L 176.684669 95.058376 
L 177.062833 94.378456 
L 177.440996 93.293977 
L 178.575487 88.775185 
L 178.953651 88.840255 
L 179.331814 90.673875 
L 179.709978 93.625537 
L 180.088142 94.901807 
L 180.466305 95.100126 
L 181.222632 94.469094 
L 181.600796 94.491201 
L 182.357123 94.905114 
L 182.735287 95.015823 
L 183.113451 95.004478 
L 184.247941 95.461758 
L 184.626105 95.296116 
L 185.382432 95.456922 
L 185.760596 95.745469 
L 186.13876 96.27839 
L 186.516923 96.593181 
L 186.895087 96.5379 
L 187.27325 96.245609 
L 187.651414 96.190588 
L 188.785905 96.901782 
L 189.164069 96.850873 
L 189.542232 96.142964 
L 190.298559 93.093823 
L 191.054887 90.207088 
L 192.189378 85.994144 
L 192.567541 85.213266 
L 192.945705 85.579704 
L 193.323868 87.143088 
L 194.080196 88.559804 
L 194.836523 88.803207 
L 195.214686 88.786326 
L 195.59285 88.620239 
L 196.727341 88.637334 
L 197.105505 88.609551 
L 197.483668 88.421485 
L 197.861832 88.655892 
L 198.618159 88.562165 
L 198.996323 88.832794 
L 199.75265 89.6 
L 201.265304 91.017099 
L 202.021632 91.007791 
L 202.399795 90.902449 
L 203.156123 89.951246 
L 203.534286 90.028799 
L 203.91245 90.345044 
L 204.290613 90.322187 
L 205.803268 88.764694 
L 206.181431 88.899782 
L 206.559595 89.301536 
L 206.937759 89.376018 
L 207.315922 88.777575 
L 208.07225 86.946323 
L 208.450413 86.836999 
L 208.828577 87.296615 
L 209.584904 88.893775 
L 210.341231 90.107025 
L 211.475722 91.443402 
L 211.853886 91.787195 
L 212.232049 91.823756 
L 212.610213 91.557393 
L 213.36654 90.537005 
L 214.122868 90.280454 
L 214.879195 89.397039 
L 215.257358 89.286121 
L 216.013686 89.521401 
L 216.391849 89.621606 
L 217.148177 90.539873 
L 217.52634 90.515932 
L 218.282667 90.134127 
L 218.660831 90.288033 
L 219.795322 91.534986 
L 220.173485 91.45991 
L 220.551649 91.184112 
L 220.929813 91.154553 
L 221.68614 92.664284 
L 222.064304 92.952172 
L 222.820631 92.558147 
L 223.198794 91.803131 
L 223.955122 89.510323 
L 224.333285 88.923278 
L 224.711449 88.643256 
L 225.467776 87.173597 
L 225.84594 86.599222 
L 226.224103 86.384131 
L 226.602267 86.770061 
L 227.358594 88.479119 
L 227.736758 88.952976 
L 228.493085 89.356881 
L 230.383903 92.420265 
L 230.762067 92.343649 
L 231.14023 91.974034 
L 231.518394 91.434082 
L 232.652885 90.462987 
L 233.031049 89.287265 
L 234.165539 83.531204 
L 234.543703 83.796755 
L 235.30003 85.329691 
L 235.678194 85.481727 
L 236.434521 85.27404 
L 237.190848 85.604801 
L 237.569012 85.494233 
L 237.947176 85.256982 
L 238.325339 85.370181 
L 238.703503 85.874904 
L 239.45983 83.693165 
L 239.837994 82.530453 
L 240.594321 80.892808 
L 241.350648 77.839732 
L 241.728812 77.444116 
L 242.106976 78.711896 
L 243.241466 85.506155 
L 243.61963 86.30316 
L 244.375957 86.617625 
L 244.754121 87.126141 
L 245.132284 87.827933 
L 245.510448 88.109502 
L 245.888612 88.000896 
L 246.266775 87.503362 
L 247.023103 85.57348 
L 247.401266 85.214484 
L 247.77943 85.424149 
L 248.157593 85.832512 
L 248.913921 86.173856 
L 249.670248 86.024104 
L 250.048412 86.106924 
L 250.426575 86.447969 
L 250.804739 86.584828 
L 251.561066 86.507868 
L 251.93923 86.679619 
L 252.317393 86.711344 
L 252.695557 84.607279 
L 253.451884 79.058358 
L 254.208211 75.974823 
L 254.586375 74.823975 
L 254.964539 74.290229 
L 255.342702 74.006248 
L 255.720866 75.643127 
L 256.855357 88.242879 
L 257.23352 89.180269 
L 257.611684 89.348171 
L 259.124338 89.463079 
L 259.502502 89.364396 
L 260.258829 88.860671 
L 261.015157 88.323789 
L 261.771484 88.613361 
L 262.149647 88.986799 
L 262.527811 89.523026 
L 262.905975 90.308897 
L 263.284138 90.717183 
L 263.662302 90.866025 
L 264.418629 90.457723 
L 264.796793 90.562701 
L 265.174956 90.463606 
L 265.931284 90.730399 
L 266.309447 89.648737 
L 267.443938 85.46111 
L 268.200265 83.990479 
L 269.334756 80.060068 
L 269.71292 79.319117 
L 270.091083 80.031264 
L 270.469247 81.634856 
L 270.847411 82.25129 
L 271.603738 82.677601 
L 272.360065 83.846542 
L 273.494556 83.823753 
L 273.87272 83.73594 
L 274.250883 83.78864 
L 275.007211 84.118247 
L 275.385374 83.506149 
L 276.141701 81.137912 
L 276.519865 80.580867 
L 276.898029 80.235007 
L 277.276192 79.600415 
L 278.410683 74.864849 
L 278.788847 74.015797 
L 279.16701 74.135993 
L 279.545174 74.991722 
L 280.301501 75.783927 
L 280.679665 75.980276 
L 281.057828 76.462691 
L 281.814156 77.899599 
L 282.192319 78.011863 
L 282.570483 77.619228 
L 282.948647 77.532217 
L 284.083137 78.122691 
L 284.461301 78.56886 
L 284.839465 79.296339 
L 285.217628 79.611042 
L 285.973956 79.722982 
L 286.730283 80.409758 
L 287.864774 81.671939 
L 288.242937 81.65843 
L 288.621101 81.772331 
L 288.999265 82.014196 
L 289.755592 82.857163 
L 290.511919 83.440542 
L 291.64641 84.145733 
L 292.402737 84.060349 
L 292.780901 83.720661 
L 293.159064 83.133906 
L 293.915392 81.120349 
L 294.293555 79.731031 
L 294.671719 77.473475 
L 295.80621 69.324916 
L 296.184373 67.821746 
L 296.562537 67.360406 
L 296.940701 67.570649 
L 297.318864 67.923931 
L 298.075191 67.266125 
L 298.453355 67.463245 
L 298.831519 68.090876 
L 299.209682 68.420861 
L 299.587846 68.388194 
L 301.856828 67.003282 
L 302.234991 66.516396 
L 302.613155 66.352259 
L 302.991319 66.631262 
L 303.747646 68.125235 
L 304.125809 68.343067 
L 305.2603 68.279897 
L 306.016627 67.596338 
L 306.394791 67.141932 
L 306.772955 66.86746 
L 307.151118 66.403988 
L 307.529282 65.653168 
L 307.907446 65.365845 
L 309.041936 65.390706 
L 309.4201 65.185394 
L 309.798264 65.230365 
L 310.932755 66.061826 
L 311.689082 65.95025 
L 312.067245 66.020374 
L 313.201736 67.528426 
L 313.5799 67.549977 
L 315.848882 68.795179 
L 316.983373 67.295211 
L 317.361536 66.96915 
L 317.7397 66.372405 
L 318.117863 66.103238 
L 318.496027 66.872353 
L 319.252354 70.4424 
L 319.630518 70.971336 
L 320.008681 70.796764 
L 320.386845 70.28352 
L 321.521336 69.474935 
L 321.8995 69.016816 
L 323.03399 66.874845 
L 323.412154 67.008271 
L 323.790318 67.878526 
L 324.546645 70.594545 
L 324.924809 71.460116 
L 325.302972 71.9742 
L 325.681136 71.991274 
L 326.437463 71.843261 
L 327.19379 72.332153 
L 327.571954 72.270627 
L 327.950118 71.728037 
L 328.328281 70.565913 
L 329.084608 66.413522 
L 329.462772 65.776004 
L 330.219099 67.013785 
L 330.597263 67.028686 
L 330.975426 66.907292 
L 331.35359 67.065851 
L 331.731754 67.497128 
L 332.488081 67.966679 
L 332.866245 67.943698 
L 333.244408 67.776347 
L 333.622572 67.327991 
L 334.000735 67.075827 
L 334.378899 67.639727 
L 336.269717 68.87404 
L 336.647881 68.855767 
L 337.026044 68.271091 
L 337.404208 66.881084 
L 338.160535 62.275074 
L 338.538699 61.266892 
L 338.916863 60.986021 
L 339.295026 60.193393 
L 340.051353 57.728059 
L 340.429517 57.375208 
L 340.807681 58.336792 
L 341.564008 61.764924 
L 341.942172 62.46511 
L 344.589317 64.762153 
L 344.96748 64.484888 
L 345.723808 62.980936 
L 346.480135 61.508518 
L 346.858299 61.206845 
L 347.236462 61.379171 
L 347.614626 62.149568 
L 349.505444 63.685705 
L 350.261771 64.010609 
L 351.396262 64.474119 
L 352.530753 64.714127 
L 352.908917 64.638445 
L 353.28708 64.415458 
L 353.665244 63.95156 
L 354.043407 63.182183 
L 355.177898 59.996359 
L 355.556062 59.353873 
L 355.934225 59.025743 
L 356.312389 59.213387 
L 357.068716 60.313733 
L 358.581371 61.94417 
L 358.959534 62.023312 
L 359.715862 61.583273 
L 360.472189 60.688096 
L 360.850353 60.505386 
L 361.984843 60.742296 
L 362.363007 60.545529 
L 362.741171 60.528861 
L 363.497498 61.333438 
L 365.76648 62.430812 
L 366.900971 64.202264 
L 367.657298 64.8559 
L 368.035461 64.826528 
L 368.413625 64.498784 
L 370.304443 65.075615 
L 370.682607 65.310518 
L 371.06077 65.1666 
L 371.438934 64.750435 
L 371.817098 63.873251 
L 372.195261 62.458688 
L 372.573425 61.615297 
L 372.951588 62.063966 
L 373.707916 65.334356 
L 374.086079 66.24967 
L 374.464243 66.578487 
L 375.22057 66.617542 
L 375.598734 67.050619 
L 376.355061 69.0298 
L 376.733225 69.180902 
L 377.111388 68.937581 
L 377.489552 68.849763 
L 377.867716 68.647563 
L 378.245879 68.640217 
L 379.002206 69.095789 
L 379.38037 69.376465 
L 379.758534 69.408649 
L 380.136697 69.065372 
L 381.271188 66.594822 
L 381.649352 66.838622 
L 382.027515 67.509245 
L 382.405679 67.935389 
L 382.783843 68.005695 
L 383.162006 67.570216 
L 383.54017 66.921418 
L 383.918333 66.842801 
L 384.296497 67.013254 
L 384.674661 67.019155 
L 385.430988 67.417256 
L 385.809152 67.331468 
L 386.187315 66.742598 
L 386.943642 65.357021 
L 387.321806 65.027634 
L 387.69997 64.373044 
L 388.456297 62.541321 
L 389.212624 61.658348 
L 389.590788 61.517701 
L 389.968951 62.103968 
L 390.725279 63.818601 
L 392.237933 65.37091 
L 392.99426 65.365153 
L 393.750588 65.822422 
L 394.128751 65.922324 
L 394.506915 65.864204 
L 394.885078 65.516703 
L 395.263242 64.723692 
L 396.397733 61.234938 
L 396.775897 61.094044 
L 397.15406 61.120238 
L 397.532224 60.650371 
L 397.910387 59.852174 
L 398.666715 57.846584 
L 399.044878 57.347985 
L 399.423042 57.602784 
L 399.801206 58.343077 
L 400.179369 59.452464 
L 400.557533 60.160006 
L 400.935696 60.548259 
L 401.31386 60.743487 
L 402.070187 61.960111 
L 402.826515 62.980248 
L 403.204678 63.192662 
L 403.582842 63.234684 
L 404.339169 63.051335 
L 404.717333 63.084799 
L 405.095496 63.257202 
L 405.851823 63.205619 
L 406.229987 63.301733 
L 406.608151 63.264844 
L 407.742642 61.970638 
L 408.120805 61.938316 
L 408.498969 62.655084 
L 409.255296 64.558906 
L 409.63346 64.525499 
L 410.011623 64.294913 
L 410.389787 64.448976 
L 411.146114 65.426648 
L 411.524278 65.647584 
L 411.902441 65.461596 
L 412.280605 64.738248 
L 413.036932 61.911301 
L 413.415096 61.543782 
L 413.79326 61.940405 
L 414.171423 61.710799 
L 414.92775 60.299332 
L 415.305914 60.188254 
L 416.062241 61.470452 
L 416.818569 62.693457 
L 417.196732 62.548643 
L 417.574896 62.272654 
L 417.953059 62.257489 
L 418.331223 62.039255 
L 418.709387 61.994817 
L 419.465714 61.461155 
L 420.222041 61.81895 
L 421.356532 59.242438 
L 422.112859 56.862394 
L 422.491023 56.118749 
L 423.24735 56.084951 
L 424.003677 54.731301 
L 424.381841 54.898688 
L 424.760005 55.3339 
L 426.272659 56.373143 
L 427.40715 56.744696 
L 428.163477 57.046308 
L 428.919804 56.597296 
L 429.297968 56.089695 
L 429.676132 56.457177 
L 430.054295 56.306118 
L 430.810622 55.547541 
L 431.188786 55.364481 
L 431.945113 55.585641 
L 432.323277 55.898152 
L 432.701441 56.407803 
L 433.079604 56.730144 
L 433.835931 56.740232 
L 434.214095 56.622199 
L 434.592259 56.021648 
L 434.970422 55.03064 
L 435.348586 53.537615 
L 435.72675 51.445597 
L 436.86124 43.74895 
L 437.239404 43.28658 
L 437.617568 43.47626 
L 437.995731 44.447891 
L 438.373895 45.998053 
L 439.130222 47.580662 
L 439.508386 48.003134 
L 439.886549 48.20884 
L 441.02104 48.111322 
L 442.911858 48.566091 
L 443.290022 48.781636 
L 444.046349 48.950105 
L 444.802676 49.704599 
L 445.559004 50.499454 
L 446.315331 51.018259 
L 446.693495 50.920349 
L 447.071658 50.97224 
L 447.449822 51.356489 
L 447.827985 52.234501 
L 448.206149 52.72799 
L 449.34064 52.959398 
L 450.475131 52.807518 
L 450.853294 52.476901 
L 451.231458 51.906376 
L 451.987785 50.075712 
L 452.365949 49.819738 
L 452.744113 49.986836 
L 453.50044 50.994165 
L 454.256767 52.626564 
L 454.634931 53.108243 
L 455.391258 52.963591 
L 455.769421 53.190936 
L 456.147585 53.160046 
L 456.525749 53.276254 
L 456.903912 53.181765 
L 457.282076 52.841176 
L 457.66024 52.024959 
L 458.79473 48.059862 
L 459.172894 47.479568 
L 459.551058 46.340838 
L 461.063712 39.748034 
L 461.441876 39.821232 
L 462.576367 41.724352 
L 463.332694 42.166245 
L 463.710858 42.576473 
L 464.089021 42.786744 
L 464.467185 42.668839 
L 465.979839 40.808579 
L 466.358003 39.8344 
L 467.11433 36.51823 
L 468.626985 26.133318 
L 469.005148 25.092727 
L 469.383312 25.252631 
L 469.761475 26.946061 
L 470.139639 29.555071 
L 470.517803 30.310116 
L 470.895966 30.800242 
L 471.652294 31.267539 
L 472.408621 31.100894 
L 472.786784 31.275508 
L 473.164948 31.114653 
L 473.543112 30.550362 
L 474.299439 28.342009 
L 474.677603 27.707935 
L 475.43393 27.258331 
L 475.812093 27.240248 
L 476.946584 29.050179 
L 477.324748 29.268173 
L 477.702912 29.31267 
L 478.459239 29.142023 
L 478.837402 29.149402 
L 480.350057 30.07243 
L 480.72822 30.230052 
L 481.484548 30.195548 
L 481.862711 30.590733 
L 482.997202 32.279007 
L 483.375366 32.430748 
L 483.753529 32.438417 
L 484.131693 32.693545 
L 485.266184 34.457638 
L 485.644348 34.556758 
L 486.022511 34.404099 
L 486.400675 34.055789 
L 486.778838 33.983591 
L 487.535166 34.367956 
L 487.913329 34.410962 
L 488.291493 33.833674 
L 488.669657 32.586792 
L 489.04782 32.348577 
L 489.804147 34.122846 
L 490.182311 34.349219 
L 490.560475 33.945518 
L 490.938638 33.375305 
L 491.316802 33.050534 
L 491.694966 33.588455 
L 492.451293 35.038107 
L 492.829456 35.015493 
L 493.20762 34.497072 
L 493.585784 33.5617 
L 493.963947 32.992149 
L 494.720274 33.8212 
L 495.098438 33.886318 
L 495.476602 33.231454 
L 496.232929 31.631437 
L 496.611093 31.22661 
L 496.989256 31.057017 
L 497.745583 32.046543 
L 498.123747 32.270269 
L 498.501911 31.869272 
L 498.880074 31.250734 
L 499.258238 31.131167 
L 499.636402 31.802142 
L 500.392729 33.614097 
L 500.770892 34.028756 
L 501.149056 34.214963 
L 501.52722 34.244731 
L 501.905383 34.428655 
L 502.661711 36.197833 
L 503.039874 36.471294 
L 503.418038 36.184711 
L 504.174365 35.87765 
L 504.552529 35.542752 
L 505.687019 35.051207 
L 506.065183 34.83925 
L 507.199674 33.364406 
L 507.577838 33.574092 
L 508.712328 35.849429 
L 509.090492 36.056002 
L 509.468656 35.718035 
L 510.98131 32.072292 
L 511.359474 31.401383 
L 512.115801 29.830338 
L 512.493965 29.586359 
L 512.872128 29.696877 
L 513.250292 30.269915 
L 514.384783 33.945525 
L 514.762946 34.268623 
L 515.14111 34.310449 
L 516.275601 33.895018 
L 517.031928 32.927481 
L 517.410092 32.352078 
L 518.166419 29.627104 
L 518.544583 29.30878 
L 518.922746 30.082005 
L 519.679073 32.955032 
L 520.435401 34.44264 
L 521.569892 35.875304 
L 522.704382 35.933107 
L 523.838873 36.000535 
L 524.595201 36.251755 
L 525.729691 35.046638 
L 526.107855 35.465185 
L 526.864182 36.760739 
L 527.242346 36.951362 
L 527.998673 36.585694 
L 528.376837 36.61761 
L 529.133164 37.155932 
L 529.889491 37.721642 
L 530.267655 37.324618 
L 530.645818 36.475354 
L 531.023982 36.287523 
L 531.780309 37.523693 
L 532.158473 37.453774 
L 532.536637 36.873444 
L 532.9148 35.824018 
L 533.671127 32.138288 
L 534.049291 31.523074 
L 534.427455 31.199478 
L 534.805618 30.652286 
L 535.183782 29.885615 
L 535.561946 29.512465 
L 535.940109 29.752703 
L 537.0746 32.540681 
L 537.452764 33.091397 
L 537.830927 33.391642 
L 538.209091 33.323209 
L 538.209091 33.323209 
" style="fill:none;stroke:#2ca02c;stroke-linecap:square;"/>
   </g>
   <g id="legend_1">
    <g id="patch_3">
     <path d="M 70.2834 74.556112 
L 125.841897 74.556112 
Q 128.174297 74.556112 128.174297 72.223712 
L 128.174297 23.2834 
Q 128.174297 20.951 125.841897 20.951 
L 70.2834 20.951 
Q 67.951 20.951 67.951 23.2834 
L 67.951 72.223712 
Q 67.951 74.556112 70.2834 74.556112 
z
" style="fill:#ffffff;opacity:0.8;stroke:#cccccc;stroke-linejoin:miter;"/>
    </g>
    <g id="line2d_15">
     <path d="M 72.6158 29.985406 
L 95.9398 29.985406 
" style="fill:none;stroke:#1f77b4;stroke-linecap:square;"/>
    </g>
    <g id="line2d_16"/>
    <g id="text_14">
     <!-- А -->
     <g transform="translate(105.2694 34.067106)scale(0.11662 -0.11662)">
      <defs>
       <path d="M 46.734375 0 
L 40.28125 20.125 
L 14.546875 20.125 
L 8.109375 0 
L 0.140625 0 
L 23.1875 68.796875 
L 31.890625 68.796875 
L 54.546875 0 
z
M 30.765625 50.09375 
Q 30.125 52.046875 29.546875 54.046875 
L 28.515625 57.71875 
L 27.734375 60.453125 
Q 27.4375 61.53125 27.4375 61.765625 
Q 27.34375 61.53125 27.078125 60.40625 
Q 26.8125 59.28125 26.375 57.625 
L 25.296875 53.953125 
L 24.125 50 
L 16.890625 27.390625 
L 37.984375 27.390625 
z
" id="LiberationSansNarrow-1040"/>
      </defs>
      <use xlink:href="#LiberationSansNarrow-1040"/>
     </g>
    </g>
    <g id="line2d_17">
     <path d="M 72.6158 46.687576 
L 95.9398 46.687576 
" style="fill:none;stroke:#ff7f0e;stroke-linecap:square;"/>
    </g>
    <g id="line2d_18"/>
    <g id="text_15">
     <!-- Б -->
     <g transform="translate(105.2694 50.769276)scale(0.11662 -0.11662)">
      <defs>
       <path d="M 49.5625 20.171875 
Q 49.5625 15.921875 48.34375 12.25 
Q 47.125 8.59375 44.703125 5.859375 
Q 42.28125 3.125 38.640625 1.5625 
Q 35.015625 0 30.125 0 
L 6.734375 0 
L 6.734375 68.796875 
L 43.796875 68.796875 
L 43.796875 61.1875 
L 14.359375 61.1875 
L 14.359375 39.703125 
L 29.6875 39.703125 
Q 34.671875 39.703125 38.40625 38.28125 
Q 42.140625 36.859375 44.609375 34.296875 
Q 47.078125 31.734375 48.3125 28.140625 
Q 49.5625 24.5625 49.5625 20.171875 
z
M 41.890625 20.0625 
Q 41.890625 25.984375 38.59375 29.125 
Q 35.296875 32.28125 28.765625 32.28125 
L 14.359375 32.28125 
L 14.359375 7.375 
L 29.046875 7.375 
Q 35.59375 7.375 38.734375 10.6875 
Q 41.890625 14.015625 41.890625 20.0625 
z
" id="LiberationSansNarrow-1041"/>
      </defs>
      <use xlink:href="#LiberationSansNarrow-1041"/>
     </g>
    </g>
    <g id="line2d_19">
     <path d="M 72.6158 63.389747 
L 95.9398 63.389747 
" style="fill:none;stroke:#2ca02c;stroke-linecap:square;"/>
    </g>
    <g id="line2d_20"/>
    <g id="text_16">
     <!-- А+Б -->
     <g transform="translate(105.2694 67.471447)scale(0.11662 -0.11662)">
      <defs>
       <path d="M 26.859375 29.6875 
L 26.859375 8.796875 
L 21 8.796875 
L 21 29.6875 
L 4 29.6875 
L 4 36.8125 
L 21 36.8125 
L 21 57.71875 
L 26.859375 57.71875 
L 26.859375 36.8125 
L 43.84375 36.8125 
L 43.84375 29.6875 
z
" id="LiberationSansNarrow-43"/>
      </defs>
      <use xlink:href="#LiberationSansNarrow-1040"/>
      <use x="54.6875" xlink:href="#LiberationSansNarrow-43"/>
      <use x="102.587891" xlink:href="#LiberationSansNarrow-1041"/>
     </g>
    </g>
   </g>
  </g>
 </g>
 <defs>
  <clipPath id="p0534d08b1f">
   <rect height="219.4" width="498.76" x="62.12" y="15.12"/>
  </clipPath>
 </defs>
</svg>
