<?xml version="1.0" encoding="utf-8" standalone="no"?>
<!DOCTYPE svg PUBLIC "-//W3C//DTD SVG 1.1//EN"
  "http://www.w3.org/Graphics/SVG/1.1/DTD/svg11.dtd">
<!-- Created with matplotlib (https://matplotlib.org/) -->
<svg height="288pt" version="1.1" viewBox="0 0 576 288" width="576pt" xmlns="http://www.w3.org/2000/svg" xmlns:xlink="http://www.w3.org/1999/xlink">
 <metadata>
  <rdf:RDF xmlns:cc="http://creativecommons.org/ns#" xmlns:dc="http://purl.org/dc/elements/1.1/" xmlns:rdf="http://www.w3.org/1999/02/22-rdf-syntax-ns#">
   <cc:Work>
    <dc:type rdf:resource="http://purl.org/dc/dcmitype/StillImage"/>
    <dc:date>2021-08-21T16:51:39.410278</dc:date>
    <dc:format>image/svg+xml</dc:format>
    <dc:creator>
     <cc:Agent>
      <dc:title>Matplotlib v3.3.4, https://matplotlib.org/</dc:title>
     </cc:Agent>
    </dc:creator>
   </cc:Work>
  </rdf:RDF>
 </metadata>
 <defs>
  <style type="text/css">*{stroke-linecap:butt;stroke-linejoin:round;}</style>
 </defs>
 <g id="figure_1">
  <g id="patch_1">
   <path d="M 0 288 
L 576 288 
L 576 0 
L 0 0 
z
" style="fill:#ffffff;"/>
  </g>
  <g id="axes_1">
   <g id="patch_2">
    <path d="M 46.19 234.52 
L 560.88 234.52 
L 560.88 15.12 
L 46.19 15.12 
z
" style="fill:#ffffff;"/>
   </g>
   <g id="matplotlib.axis_1">
    <g id="xtick_1">
     <g id="line2d_1">
      <path clip-path="url(#pa83b196c1b)" d="M 69.585 234.52 
L 69.585 15.12 
" style="fill:none;stroke:#b0b0b0;stroke-dasharray:1.48,0.64;stroke-dashoffset:0;stroke-width:0.4;"/>
     </g>
     <g id="text_1">
      <!-- 0 -->
      <g transform="translate(66.392344 251.665625)scale(0.14 -0.14)">
       <defs>
        <path d="M 42.390625 34.421875 
Q 42.390625 24.515625 40.84375 17.75 
Q 39.3125 10.984375 36.640625 6.8125 
Q 33.984375 2.640625 30.390625 0.828125 
Q 26.8125 -0.984375 22.703125 -0.984375 
Q 18.609375 -0.984375 15.03125 0.828125 
Q 11.46875 2.640625 8.828125 6.78125 
Q 6.203125 10.9375 4.703125 17.703125 
Q 3.21875 24.46875 3.21875 34.421875 
Q 3.21875 44.828125 4.703125 51.640625 
Q 6.203125 58.453125 8.828125 62.5 
Q 11.46875 66.546875 15.078125 68.1875 
Q 18.703125 69.828125 22.953125 69.828125 
Q 27 69.828125 30.53125 68.1875 
Q 34.078125 66.546875 36.71875 62.5 
Q 39.359375 58.453125 40.875 51.640625 
Q 42.390625 44.828125 42.390625 34.421875 
z
M 35.0625 34.421875 
Q 35.0625 42.625 34.28125 48.0625 
Q 33.5 53.515625 31.9375 56.765625 
Q 30.375 60.015625 28.09375 61.359375 
Q 25.828125 62.703125 22.953125 62.703125 
Q 19.921875 62.703125 17.578125 61.328125 
Q 15.234375 59.96875 13.671875 56.71875 
Q 12.109375 53.46875 11.296875 48.015625 
Q 10.5 42.578125 10.5 34.421875 
Q 10.5 26.515625 11.296875 21.09375 
Q 12.109375 15.671875 13.6875 12.375 
Q 15.28125 9.078125 17.578125 7.640625 
Q 19.875 6.203125 22.796875 6.203125 
Q 25.640625 6.203125 27.90625 7.640625 
Q 30.171875 9.078125 31.75 12.375 
Q 33.34375 15.671875 34.203125 21.09375 
Q 35.0625 26.515625 35.0625 34.421875 
z
" id="LiberationSansNarrow-48"/>
       </defs>
       <use xlink:href="#LiberationSansNarrow-48"/>
      </g>
     </g>
    </g>
    <g id="xtick_2">
     <g id="line2d_2">
      <path clip-path="url(#pa83b196c1b)" d="M 134.752131 234.52 
L 134.752131 15.12 
" style="fill:none;stroke:#b0b0b0;stroke-dasharray:1.48,0.64;stroke-dashoffset:0;stroke-width:0.4;"/>
     </g>
     <g id="text_2">
      <!-- 50 -->
      <g transform="translate(128.366818 251.665625)scale(0.14 -0.14)">
       <defs>
        <path d="M 42.140625 22.40625 
Q 42.140625 17.234375 40.859375 12.9375 
Q 39.59375 8.640625 37.078125 5.53125 
Q 34.578125 2.4375 30.8125 0.71875 
Q 27.046875 -0.984375 22.125 -0.984375 
Q 17.671875 -0.984375 14.375 0.28125 
Q 11.078125 1.5625 8.8125 3.78125 
Q 6.546875 6 5.203125 8.984375 
Q 3.859375 11.96875 3.265625 15.375 
L 10.546875 16.40625 
Q 10.984375 14.453125 11.78125 12.625 
Q 12.59375 10.796875 13.984375 9.34375 
Q 15.375 7.90625 17.40625 7.046875 
Q 19.4375 6.203125 22.3125 6.203125 
Q 25.09375 6.203125 27.390625 7.25 
Q 29.6875 8.296875 31.296875 10.34375 
Q 32.90625 12.40625 33.78125 15.375 
Q 34.671875 18.359375 34.671875 22.21875 
Q 34.671875 25.390625 33.84375 28.046875 
Q 33.015625 30.71875 31.453125 32.640625 
Q 29.890625 34.578125 27.609375 35.640625 
Q 25.34375 36.71875 22.46875 36.71875 
Q 20.65625 36.71875 19.140625 36.328125 
Q 17.625 35.9375 16.328125 35.25 
Q 15.046875 34.578125 13.96875 33.671875 
Q 12.890625 32.765625 11.96875 31.78125 
L 4.9375 31.78125 
L 6.78125 68.796875 
L 38.875 68.796875 
L 38.875 61.328125 
L 13.375 61.328125 
L 12.3125 39.5 
Q 14.203125 41.3125 17.078125 42.59375 
Q 19.96875 43.890625 23.921875 43.890625 
Q 28.125 43.890625 31.484375 42.328125 
Q 34.859375 40.765625 37.21875 37.90625 
Q 39.59375 35.0625 40.859375 31.109375 
Q 42.140625 27.15625 42.140625 22.40625 
z
" id="LiberationSansNarrow-53"/>
       </defs>
       <use xlink:href="#LiberationSansNarrow-53"/>
       <use x="45.605469" xlink:href="#LiberationSansNarrow-48"/>
      </g>
     </g>
    </g>
    <g id="xtick_3">
     <g id="line2d_3">
      <path clip-path="url(#pa83b196c1b)" d="M 199.919262 234.52 
L 199.919262 15.12 
" style="fill:none;stroke:#b0b0b0;stroke-dasharray:1.48,0.64;stroke-dashoffset:0;stroke-width:0.4;"/>
     </g>
     <g id="text_3">
      <!-- 100 -->
      <g transform="translate(190.341293 251.665625)scale(0.14 -0.14)">
       <defs>
        <path d="M 6.25 0 
L 6.25 7.46875 
L 20.609375 7.46875 
L 20.609375 60.40625 
L 7.90625 49.3125 
L 7.90625 57.625 
L 21.234375 68.796875 
L 27.875 68.796875 
L 27.875 7.46875 
L 41.609375 7.46875 
L 41.609375 0 
z
" id="LiberationSansNarrow-49"/>
       </defs>
       <use xlink:href="#LiberationSansNarrow-49"/>
       <use x="45.605469" xlink:href="#LiberationSansNarrow-48"/>
       <use x="91.210938" xlink:href="#LiberationSansNarrow-48"/>
      </g>
     </g>
    </g>
    <g id="xtick_4">
     <g id="line2d_4">
      <path clip-path="url(#pa83b196c1b)" d="M 265.086393 234.52 
L 265.086393 15.12 
" style="fill:none;stroke:#b0b0b0;stroke-dasharray:1.48,0.64;stroke-dashoffset:0;stroke-width:0.4;"/>
     </g>
     <g id="text_4">
      <!-- 150 -->
      <g transform="translate(255.508424 251.665625)scale(0.14 -0.14)">
       <use xlink:href="#LiberationSansNarrow-49"/>
       <use x="45.605469" xlink:href="#LiberationSansNarrow-53"/>
       <use x="91.210938" xlink:href="#LiberationSansNarrow-48"/>
      </g>
     </g>
    </g>
    <g id="xtick_5">
     <g id="line2d_5">
      <path clip-path="url(#pa83b196c1b)" d="M 330.253524 234.52 
L 330.253524 15.12 
" style="fill:none;stroke:#b0b0b0;stroke-dasharray:1.48,0.64;stroke-dashoffset:0;stroke-width:0.4;"/>
     </g>
     <g id="text_5">
      <!-- 200 -->
      <g transform="translate(320.675555 251.665625)scale(0.14 -0.14)">
       <defs>
        <path d="M 4.109375 0 
L 4.109375 6.203125 
Q 6.15625 11.921875 9.109375 16.28125 
Q 12.0625 20.65625 15.3125 24.1875 
Q 18.5625 27.734375 21.734375 30.765625 
Q 24.90625 33.796875 27.46875 36.8125 
Q 30.03125 39.84375 31.609375 43.15625 
Q 33.203125 46.484375 33.203125 50.6875 
Q 33.203125 53.609375 32.46875 55.828125 
Q 31.734375 58.0625 30.390625 59.5625 
Q 29.046875 61.078125 27.140625 61.828125 
Q 25.25 62.59375 22.90625 62.59375 
Q 20.75 62.59375 18.84375 61.859375 
Q 16.9375 61.140625 15.453125 59.671875 
Q 13.96875 58.203125 13.03125 56.03125 
Q 12.109375 53.859375 11.8125 50.984375 
L 4.4375 51.8125 
Q 4.78125 55.515625 6.125 58.78125 
Q 7.46875 62.0625 9.78125 64.53125 
Q 12.109375 67 15.359375 68.40625 
Q 18.609375 69.828125 22.90625 69.828125 
Q 27.09375 69.828125 30.390625 68.609375 
Q 33.6875 67.390625 35.9375 64.984375 
Q 38.1875 62.59375 39.40625 59.078125 
Q 40.625 55.5625 40.625 50.984375 
Q 40.625 47.515625 39.59375 44.390625 
Q 38.578125 41.265625 36.859375 38.421875 
Q 35.15625 35.59375 32.90625 32.953125 
Q 30.671875 30.328125 28.21875 27.828125 
L 23.296875 22.859375 
Q 20.796875 20.359375 18.625 17.859375 
Q 16.453125 15.375 14.734375 12.8125 
Q 13.03125 10.25 12.0625 7.46875 
L 41.5 7.46875 
L 41.5 0 
z
" id="LiberationSansNarrow-50"/>
       </defs>
       <use xlink:href="#LiberationSansNarrow-50"/>
       <use x="45.605469" xlink:href="#LiberationSansNarrow-48"/>
       <use x="91.210938" xlink:href="#LiberationSansNarrow-48"/>
      </g>
     </g>
    </g>
    <g id="xtick_6">
     <g id="line2d_6">
      <path clip-path="url(#pa83b196c1b)" d="M 395.420655 234.52 
L 395.420655 15.12 
" style="fill:none;stroke:#b0b0b0;stroke-dasharray:1.48,0.64;stroke-dashoffset:0;stroke-width:0.4;"/>
     </g>
     <g id="text_6">
      <!-- 250 -->
      <g transform="translate(385.842686 251.665625)scale(0.14 -0.14)">
       <use xlink:href="#LiberationSansNarrow-50"/>
       <use x="45.605469" xlink:href="#LiberationSansNarrow-53"/>
       <use x="91.210938" xlink:href="#LiberationSansNarrow-48"/>
      </g>
     </g>
    </g>
    <g id="xtick_7">
     <g id="line2d_7">
      <path clip-path="url(#pa83b196c1b)" d="M 460.587786 234.52 
L 460.587786 15.12 
" style="fill:none;stroke:#b0b0b0;stroke-dasharray:1.48,0.64;stroke-dashoffset:0;stroke-width:0.4;"/>
     </g>
     <g id="text_7">
      <!-- 300 -->
      <g transform="translate(451.009817 251.665625)scale(0.14 -0.14)">
       <defs>
        <path d="M 42 19 
Q 42 14.265625 40.75 10.546875 
Q 39.5 6.84375 37.0625 4.265625 
Q 34.625 1.703125 31.046875 0.359375 
Q 27.484375 -0.984375 22.859375 -0.984375 
Q 17.625 -0.984375 14.03125 0.609375 
Q 10.453125 2.203125 8.125 4.8125 
Q 5.8125 7.421875 4.640625 10.765625 
Q 3.46875 14.109375 3.125 17.671875 
L 10.546875 18.5 
Q 10.890625 15.765625 11.734375 13.515625 
Q 12.59375 11.28125 14.078125 9.671875 
Q 15.578125 8.0625 17.75 7.171875 
Q 19.921875 6.296875 22.859375 6.296875 
Q 28.328125 6.296875 31.421875 9.5625 
Q 34.515625 12.84375 34.515625 19.28125 
Q 34.515625 23.09375 33.125 25.40625 
Q 31.734375 27.734375 29.6875 29.03125 
Q 27.640625 30.328125 25.21875 30.765625 
Q 22.796875 31.203125 20.75 31.203125 
L 16.65625 31.203125 
L 16.65625 38.8125 
L 20.5625 38.8125 
Q 22.609375 38.8125 24.828125 39.328125 
Q 27.046875 39.84375 28.859375 41.1875 
Q 30.671875 42.53125 31.859375 44.828125 
Q 33.0625 47.125 33.0625 50.6875 
Q 33.0625 56.203125 30.375 59.390625 
Q 27.6875 62.59375 22.46875 62.59375 
Q 17.671875 62.59375 14.734375 59.609375 
Q 11.8125 56.640625 11.328125 51.21875 
L 4.109375 51.90625 
Q 4.546875 56.453125 6.125 59.8125 
Q 7.71875 63.1875 10.171875 65.40625 
Q 12.640625 67.625 15.8125 68.71875 
Q 19 69.828125 22.5625 69.828125 
Q 27.296875 69.828125 30.6875 68.375 
Q 34.078125 66.9375 36.21875 64.46875 
Q 38.375 62.015625 39.40625 58.6875 
Q 40.4375 55.375 40.4375 51.609375 
Q 40.4375 48.578125 39.75 45.9375 
Q 39.0625 43.3125 37.625 41.203125 
Q 36.1875 39.109375 33.953125 37.59375 
Q 31.734375 36.078125 28.609375 35.296875 
L 28.609375 35.109375 
Q 32.03125 34.671875 34.546875 33.21875 
Q 37.0625 31.78125 38.71875 29.625 
Q 40.375 27.484375 41.1875 24.75 
Q 42 22.015625 42 19 
z
" id="LiberationSansNarrow-51"/>
       </defs>
       <use xlink:href="#LiberationSansNarrow-51"/>
       <use x="45.605469" xlink:href="#LiberationSansNarrow-48"/>
       <use x="91.210938" xlink:href="#LiberationSansNarrow-48"/>
      </g>
     </g>
    </g>
    <g id="xtick_8">
     <g id="line2d_8">
      <path clip-path="url(#pa83b196c1b)" d="M 525.754916 234.52 
L 525.754916 15.12 
" style="fill:none;stroke:#b0b0b0;stroke-dasharray:1.48,0.64;stroke-dashoffset:0;stroke-width:0.4;"/>
     </g>
     <g id="text_8">
      <!-- 350 -->
      <g transform="translate(516.176948 251.665625)scale(0.14 -0.14)">
       <use xlink:href="#LiberationSansNarrow-51"/>
       <use x="45.605469" xlink:href="#LiberationSansNarrow-53"/>
       <use x="91.210938" xlink:href="#LiberationSansNarrow-48"/>
      </g>
     </g>
    </g>
    <g id="text_9">
     <!-- Месяцы -->
     <g transform="translate(281.943281 268.71625)scale(0.14 -0.14)">
      <defs>
       <path d="M 54.6875 0 
L 54.6875 45.90625 
Q 54.6875 48.390625 54.734375 50.96875 
Q 54.78125 53.5625 54.828125 55.71875 
Q 54.9375 58.203125 55.078125 60.546875 
Q 54.546875 58.0625 53.90625 55.609375 
Q 53.90625 55.609375 52.734375 51.171875 
Q 52.15625 48.78125 51.515625 46.875 
L 36.96875 0 
L 31.59375 0 
L 16.796875 46.875 
Q 16.546875 47.609375 16.3125 48.578125 
L 15.765625 50.6875 
L 15.140625 52.9375 
L 14.546875 55.171875 
Q 13.875 57.765625 13.234375 60.546875 
Q 13.28125 57.8125 13.375 55.125 
Q 13.484375 52.828125 13.5 50.3125 
Q 13.53125 47.796875 13.53125 45.90625 
L 13.53125 0 
L 6.734375 0 
L 6.734375 68.796875 
L 16.796875 68.796875 
L 31.78125 21.09375 
Q 32.078125 20.125 32.46875 18.578125 
Q 32.859375 17.046875 33.21875 15.421875 
Q 33.59375 13.8125 33.890625 12.375 
Q 34.1875 10.9375 34.328125 10.15625 
Q 34.421875 10.9375 34.734375 12.40625 
Q 35.0625 13.875 35.5 15.484375 
L 36.328125 18.609375 
Q 36.71875 20.125 37.0625 21.09375 
L 51.765625 68.796875 
L 61.578125 68.796875 
L 61.578125 0 
z
" id="LiberationSansNarrow-1052"/>
       <path d="M 10.6875 24.5625 
Q 10.6875 20.40625 11.5625 16.90625 
Q 12.453125 13.421875 13.90625 10.90625 
Q 15.375 8.40625 17.640625 7 
Q 19.921875 5.609375 23.140625 5.609375 
Q 27.828125 5.609375 30.65625 7.90625 
Q 33.5 10.203125 34.46875 13.71875 
L 40.828125 11.53125 
Q 40.140625 9.328125 38.921875 7.109375 
Q 37.703125 4.890625 35.640625 3.09375 
Q 33.59375 1.3125 30.53125 0.15625 
Q 27.484375 -0.984375 23.140625 -0.984375 
Q 13.53125 -0.984375 8.5 6 
Q 3.46875 12.984375 3.46875 26.765625 
Q 3.46875 34.1875 5 39.328125 
Q 6.546875 44.484375 9.171875 47.703125 
Q 11.8125 50.921875 15.328125 52.359375 
Q 18.84375 53.8125 22.859375 53.8125 
Q 28.328125 53.8125 31.984375 51.65625 
Q 39.0625 47.515625 41.015625 36.8125 
Q 41.9375 31.6875 41.9375 25.734375 
L 41.9375 24.5625 
z
M 34.71875 31.296875 
Q 34.71875 40.140625 31.421875 43.71875 
Q 28.125 47.3125 22.75 47.3125 
Q 18.953125 47.3125 15.328125 44.09375 
Q 10.9375 40.328125 10.6875 31.296875 
z
" id="LiberationSansNarrow-1077"/>
       <path d="M 11.03125 26.65625 
Q 11.03125 22.125 11.5625 18.3125 
Q 12.109375 14.5 13.375 11.734375 
Q 14.65625 8.984375 16.75 7.46875 
Q 18.84375 5.953125 21.96875 5.953125 
Q 25.828125 5.953125 28.390625 8.484375 
Q 30.953125 11.03125 31.546875 16.3125 
L 38.875 15.71875 
Q 38.53125 12.453125 37.296875 9.421875 
Q 36.078125 6.390625 34.03125 4.09375 
Q 31.984375 1.8125 29 0.40625 
Q 26.03125 -0.984375 22.171875 -0.984375 
Q 17.09375 -0.984375 13.5 1.109375 
Q 9.90625 3.21875 7.6875 6.90625 
Q 5.46875 10.59375 4.46875 15.59375 
Q 3.46875 20.609375 3.46875 26.46875 
Q 3.46875 31.78125 4.203125 35.859375 
Q 4.9375 39.9375 6.21875 42.984375 
Q 7.515625 46.046875 9.265625 48.125 
Q 11.03125 50.203125 13.109375 51.4375 
Q 15.1875 52.6875 17.453125 53.25 
Q 19.734375 53.8125 22.078125 53.8125 
Q 25.734375 53.8125 28.5625 52.59375 
Q 31.390625 51.375 33.46875 49.25 
Q 35.546875 47.125 36.8125 44.234375 
Q 38.09375 41.359375 38.625 38.03125 
L 31.203125 37.359375 
Q 30.671875 41.75 28.375 44.328125 
Q 26.078125 46.921875 21.875 46.921875 
Q 18.796875 46.921875 16.71875 45.671875 
Q 14.65625 44.4375 13.375 41.921875 
Q 12.109375 39.40625 11.5625 35.59375 
Q 11.03125 31.78125 11.03125 26.65625 
z
" id="LiberationSansNarrow-1089"/>
       <path d="M 21.4375 22.359375 
L 8.84375 0 
L 0.6875 0 
L 14.453125 23 
Q 9.234375 24.3125 6.859375 28.296875 
Q 4.5 32.28125 4.5 38.234375 
Q 4.5 45.515625 8.8125 49.171875 
Q 13.140625 52.828125 21.4375 52.828125 
L 38.71875 52.828125 
L 38.71875 0 
L 31.546875 0 
L 31.546875 22.359375 
z
M 31.546875 46.625 
L 22.171875 46.625 
Q 16.9375 46.625 14.546875 44.375 
Q 12.15625 42.140625 12.15625 37.59375 
Q 12.15625 33.015625 14.28125 30.734375 
Q 16.40625 28.46875 21.390625 28.46875 
L 31.546875 28.46875 
z
" id="LiberationSansNarrow-1103"/>
       <path d="M 12.890625 52.828125 
L 12.890625 6.390625 
L 31.984375 6.390625 
L 31.984375 52.828125 
L 39.203125 52.828125 
L 39.203125 6.390625 
L 45.0625 6.390625 
L 45.0625 -19.921875 
L 38.578125 -19.921875 
L 38.578125 0 
L 5.671875 0 
L 5.671875 52.828125 
z
" id="LiberationSansNarrow-1094"/>
       <path d="M 22.796875 30.46875 
Q 31.296875 30.46875 35.640625 26.875 
Q 39.984375 23.296875 39.984375 15.53125 
Q 39.984375 11.921875 38.90625 9.03125 
Q 37.84375 6.15625 35.671875 4.15625 
Q 33.5 2.15625 30.296875 1.078125 
Q 27.09375 0 22.859375 0 
L 5.859375 0 
L 5.859375 52.828125 
L 13.328125 52.828125 
L 13.328125 30.46875 
z
M 13.328125 6.203125 
L 21.734375 6.203125 
Q 24.609375 6.203125 26.578125 6.8125 
Q 28.5625 7.421875 29.78125 8.609375 
Q 31 9.8125 31.53125 11.546875 
Q 32.078125 13.28125 32.078125 15.53125 
Q 32.078125 20.125 29.65625 22.234375 
Q 27.25 24.359375 21.734375 24.359375 
L 13.328125 24.359375 
z
M 47.65625 0 
L 47.65625 52.828125 
L 55.125 52.828125 
L 55.125 0 
z
" id="LiberationSansNarrow-1099"/>
      </defs>
      <use xlink:href="#LiberationSansNarrow-1052"/>
      <use x="69.435547" xlink:href="#LiberationSansNarrow-1077"/>
      <use x="115.041016" xlink:href="#LiberationSansNarrow-1089"/>
      <use x="156.056641" xlink:href="#LiberationSansNarrow-1103"/>
      <use x="200.490234" xlink:href="#LiberationSansNarrow-1094"/>
      <use x="247.462891" xlink:href="#LiberationSansNarrow-1099"/>
     </g>
    </g>
   </g>
   <g id="matplotlib.axis_2">
    <g id="ytick_1">
     <g id="line2d_9">
      <path clip-path="url(#pa83b196c1b)" d="M 46.19 209.672796 
L 560.88 209.672796 
" style="fill:none;stroke:#b0b0b0;stroke-dasharray:1.48,0.64;stroke-dashoffset:0;stroke-width:0.4;"/>
     </g>
     <g id="text_10">
      <!-- 1 -->
      <g transform="translate(32.804688 214.745608)scale(0.14 -0.14)">
       <use xlink:href="#LiberationSansNarrow-49"/>
      </g>
     </g>
    </g>
    <g id="ytick_2">
     <g id="line2d_10">
      <path clip-path="url(#pa83b196c1b)" d="M 46.19 134.596609 
L 560.88 134.596609 
" style="fill:none;stroke:#b0b0b0;stroke-dasharray:1.48,0.64;stroke-dashoffset:0;stroke-width:0.4;"/>
     </g>
     <g id="text_11">
      <!-- 2 -->
      <g transform="translate(32.804688 139.669421)scale(0.14 -0.14)">
       <use xlink:href="#LiberationSansNarrow-50"/>
      </g>
     </g>
    </g>
    <g id="ytick_3">
     <g id="line2d_11">
      <path clip-path="url(#pa83b196c1b)" d="M 46.19 59.520422 
L 560.88 59.520422 
" style="fill:none;stroke:#b0b0b0;stroke-dasharray:1.48,0.64;stroke-dashoffset:0;stroke-width:0.4;"/>
     </g>
     <g id="text_12">
      <!-- 4 -->
      <g transform="translate(32.804688 64.593234)scale(0.14 -0.14)">
       <defs>
        <path d="M 35.25 15.578125 
L 35.25 0 
L 28.46875 0 
L 28.46875 15.578125 
L 1.90625 15.578125 
L 1.90625 22.40625 
L 27.6875 68.796875 
L 35.25 68.796875 
L 35.25 22.515625 
L 43.21875 22.515625 
L 43.21875 15.578125 
z
M 28.46875 58.890625 
Q 28.375 58.640625 28.03125 57.90625 
L 27.34375 56.34375 
L 26.5625 54.59375 
Q 26.125 53.65625 25.78125 53.078125 
L 11.328125 27.09375 
Q 11.140625 26.703125 10.75 26.078125 
L 9.96875 24.8125 
L 9.1875 23.484375 
Q 8.796875 22.859375 8.546875 22.515625 
L 28.46875 22.515625 
z
" id="LiberationSansNarrow-52"/>
       </defs>
       <use xlink:href="#LiberationSansNarrow-52"/>
      </g>
     </g>
    </g>
    <g id="text_13">
     <!-- Размер портфеля -->
     <g transform="translate(25.899688 172.185938)rotate(-90)scale(0.14 -0.14)">
      <defs>
       <path d="M 50.34375 48.09375 
Q 50.34375 43.609375 49.125 39.71875 
Q 47.90625 35.84375 45.484375 32.984375 
Q 43.0625 30.125 39.421875 28.46875 
Q 35.796875 26.8125 30.953125 26.8125 
L 14.359375 26.8125 
L 14.359375 0 
L 6.734375 0 
L 6.734375 68.796875 
L 30.46875 68.796875 
Q 35.453125 68.796875 39.1875 67.3125 
Q 42.921875 65.828125 45.40625 63.109375 
Q 47.90625 60.40625 49.125 56.5625 
Q 50.34375 52.734375 50.34375 48.09375 
z
M 42.671875 48 
Q 42.671875 54.546875 39.40625 57.9375 
Q 36.140625 61.328125 29.546875 61.328125 
L 14.359375 61.328125 
L 14.359375 34.1875 
L 29.890625 34.1875 
Q 36.46875 34.1875 39.5625 37.75 
Q 42.671875 41.3125 42.671875 48 
z
" id="LiberationSansNarrow-1056"/>
       <path d="M 16.546875 -0.984375 
Q 10.015625 -0.984375 6.734375 3.21875 
Q 3.46875 7.421875 3.46875 14.75 
Q 3.46875 19.96875 5.09375 23.3125 
Q 6.734375 26.65625 9.34375 28.5625 
Q 11.96875 30.46875 15.328125 31.203125 
Q 18.703125 31.9375 22.171875 32.03125 
L 31.9375 32.234375 
L 31.9375 35.109375 
Q 31.9375 38.375 31.375 40.671875 
Q 30.8125 42.96875 29.640625 44.375 
Q 28.46875 45.796875 26.734375 46.453125 
Q 25 47.125 22.609375 47.125 
Q 20.515625 47.125 18.84375 46.75 
Q 17.1875 46.390625 15.9375 45.4375 
Q 14.703125 44.484375 13.9375 42.84375 
Q 13.1875 41.21875 12.9375 38.71875 
L 5.421875 39.546875 
Q 5.8125 42.671875 6.9375 45.28125 
Q 8.0625 47.90625 10.109375 49.796875 
Q 12.15625 51.703125 15.25 52.75 
Q 18.359375 53.8125 22.796875 53.8125 
Q 30.953125 53.8125 35.078125 49.234375 
Q 39.203125 44.671875 39.203125 36.03125 
L 39.203125 13.28125 
Q 39.203125 9.375 40.03125 7.390625 
Q 40.875 5.421875 43.265625 5.421875 
Q 43.84375 5.421875 44.453125 5.515625 
Q 45.0625 5.609375 45.609375 5.765625 
L 45.609375 0.296875 
Q 44.234375 -0.09375 42.890625 -0.28125 
Q 41.546875 -0.484375 40.046875 -0.484375 
Q 37.984375 -0.484375 36.515625 0.171875 
Q 35.0625 0.828125 34.15625 2.171875 
Q 33.25 3.515625 32.765625 5.484375 
Q 32.28125 7.46875 32.125 10.109375 
L 31.9375 10.109375 
Q 30.765625 7.5625 29.375 5.515625 
Q 27.984375 3.46875 26.140625 2.03125 
Q 24.3125 0.59375 21.9375 -0.1875 
Q 19.578125 -0.984375 16.546875 -0.984375 
z
M 18.21875 5.609375 
Q 21.6875 5.609375 24.25 7.140625 
Q 26.8125 8.6875 28.515625 11.078125 
Q 30.21875 13.484375 31.078125 16.3125 
Q 31.9375 19.140625 31.9375 21.734375 
L 31.9375 26.078125 
L 24.03125 25.875 
Q 21.390625 25.828125 19 25.40625 
Q 16.609375 25 14.8125 23.78125 
Q 13.03125 22.5625 11.953125 20.359375 
Q 10.890625 18.171875 10.890625 14.59375 
Q 10.890625 10.296875 12.796875 7.953125 
Q 14.703125 5.609375 18.21875 5.609375 
z
" id="LiberationSansNarrow-1072"/>
       <path d="M 18.3125 -0.984375 
Q 11.625 -0.984375 7.6875 2.0625 
Q 3.765625 5.125 1.953125 11.421875 
L 8.296875 13.578125 
Q 9.28125 9.765625 11.8125 7.65625 
Q 14.359375 5.5625 18.453125 5.5625 
Q 22.3125 5.5625 24.578125 7.859375 
Q 26.859375 10.15625 26.859375 14.59375 
Q 26.859375 17.484375 25.734375 19.390625 
Q 24.609375 21.296875 22.78125 22.390625 
Q 20.953125 23.484375 18.546875 23.921875 
Q 16.15625 24.359375 13.578125 24.359375 
L 13.578125 31.0625 
Q 16.109375 31.0625 18.40625 31.421875 
Q 20.703125 31.78125 22.4375 32.703125 
Q 24.171875 33.640625 25.140625 35.28125 
Q 26.125 36.921875 26.125 39.453125 
Q 26.125 43.0625 24.140625 45.15625 
Q 22.171875 47.265625 18.453125 47.265625 
Q 17.046875 47.265625 15.65625 46.921875 
Q 14.265625 46.578125 13.03125 45.765625 
Q 11.8125 44.96875 10.984375 43.625 
Q 10.15625 42.28125 9.859375 40.234375 
L 3.421875 41.21875 
Q 3.90625 44.53125 5.125 46.921875 
Q 6.34375 49.3125 8.296875 50.84375 
Q 10.25 52.390625 12.78125 53.09375 
Q 15.328125 53.8125 18.453125 53.8125 
Q 21.875 53.8125 24.625 52.78125 
Q 27.390625 51.765625 29.34375 49.90625 
Q 31.296875 48.046875 32.375 45.5 
Q 33.453125 42.96875 33.453125 39.890625 
Q 33.453125 37.109375 32.5625 34.953125 
Q 31.6875 32.8125 30.25 31.3125 
Q 28.8125 29.828125 27.046875 28.953125 
Q 25.296875 28.078125 23.53125 27.875 
L 23.53125 27.78125 
Q 25.78125 27.484375 27.75 26.484375 
Q 29.734375 25.484375 31.25 23.84375 
Q 32.765625 22.21875 33.609375 19.9375 
Q 34.46875 17.671875 34.46875 14.84375 
Q 34.46875 11.46875 33.484375 8.5625 
Q 32.515625 5.671875 30.484375 3.546875 
Q 28.46875 1.421875 25.4375 0.21875 
Q 22.40625 -0.984375 18.3125 -0.984375 
z
" id="LiberationSansNarrow-1079"/>
       <path d="M 31.546875 0 
L 25.390625 0 
L 12.40625 46.4375 
Q 12.453125 45.171875 12.515625 43.703125 
Q 12.59375 42.234375 12.59375 40.75 
Q 12.59375 39.265625 12.609375 37.859375 
Q 12.640625 36.46875 12.640625 35.359375 
L 12.640625 0 
L 5.671875 0 
L 5.671875 52.828125 
L 16.890625 52.828125 
L 25.734375 20.5625 
Q 26.65625 17.484375 27.390625 13.796875 
Q 28.125 10.109375 28.421875 6.59375 
Q 28.8125 10.109375 29.515625 13.796875 
Q 30.21875 17.484375 31.15625 20.5625 
L 39.984375 52.828125 
L 50.734375 52.828125 
L 50.734375 0 
L 43.796875 0 
L 43.796875 35.359375 
Q 43.796875 36.421875 43.8125 37.890625 
Q 43.84375 39.359375 43.921875 40.921875 
Q 44 42.484375 44.015625 43.9375 
Q 44.046875 45.40625 44.140625 46.53125 
z
" id="LiberationSansNarrow-1084"/>
       <path d="M 42.140625 26.65625 
Q 42.140625 20.65625 41.359375 15.578125 
Q 40.578125 10.5 38.6875 6.828125 
Q 36.8125 3.171875 33.765625 1.09375 
Q 30.71875 -0.984375 26.21875 -0.984375 
Q 21.578125 -0.984375 18.078125 1.171875 
Q 14.59375 3.328125 12.796875 8.203125 
L 12.546875 8.203125 
Q 12.59375 8.109375 12.609375 7.328125 
Q 12.640625 6.546875 12.671875 5.375 
Q 12.703125 4.203125 12.71875 2.75 
Q 12.75 1.3125 12.75 -0.09375 
L 12.75 -20.75 
L 5.515625 -20.75 
L 5.515625 42.046875 
Q 5.515625 43.953125 5.484375 45.703125 
Q 5.46875 47.46875 5.4375 48.90625 
Q 5.421875 50.34375 5.375 51.359375 
Q 5.328125 52.390625 5.28125 52.828125 
L 12.25 52.828125 
Q 12.3125 52.6875 12.359375 51.8125 
L 12.5 49.703125 
Q 12.546875 48.4375 12.59375 47.015625 
Q 12.640625 45.609375 12.640625 44.34375 
L 12.796875 44.34375 
Q 13.765625 46.875 15.0625 48.65625 
Q 16.359375 50.4375 18.015625 51.578125 
Q 19.671875 52.734375 21.671875 53.25 
Q 23.6875 53.765625 26.21875 53.765625 
Q 30.71875 53.765625 33.765625 51.8125 
Q 36.8125 49.859375 38.6875 46.3125 
Q 40.578125 42.78125 41.359375 37.765625 
Q 42.140625 32.765625 42.140625 26.65625 
z
M 34.578125 26.46875 
Q 34.578125 31.34375 34.109375 35.15625 
Q 33.640625 38.96875 32.4375 41.59375 
Q 31.25 44.234375 29.296875 45.59375 
Q 27.34375 46.96875 24.359375 46.96875 
Q 21.96875 46.96875 19.84375 46.140625 
Q 17.71875 45.3125 16.125 42.96875 
Q 14.546875 40.625 13.640625 36.5 
Q 12.75 32.375 12.75 25.78125 
Q 12.75 20.171875 13.5 16.28125 
Q 14.265625 12.40625 15.71875 10.015625 
Q 17.1875 7.625 19.328125 6.5625 
Q 21.484375 5.515625 24.3125 5.515625 
Q 27.34375 5.515625 29.296875 6.921875 
Q 31.25 8.34375 32.4375 11.03125 
Q 33.640625 13.71875 34.109375 17.59375 
Q 34.578125 21.484375 34.578125 26.46875 
z
" id="LiberationSansNarrow-1088"/>
       <path id="LiberationSansNarrow-32"/>
       <path d="M 38.71875 52.828125 
L 38.71875 0 
L 31.546875 0 
L 31.546875 46.4375 
L 12.890625 46.4375 
L 12.890625 0 
L 5.71875 0 
L 5.71875 52.828125 
z
" id="LiberationSansNarrow-1087"/>
       <path d="M 42.140625 26.46875 
Q 42.140625 12.59375 37.125 5.796875 
Q 32.125 -0.984375 22.609375 -0.984375 
Q 18.0625 -0.984375 14.515625 0.671875 
Q 10.984375 2.34375 8.515625 5.765625 
Q 6.0625 9.1875 4.765625 14.328125 
Q 3.46875 19.484375 3.46875 26.46875 
Q 3.46875 53.8125 22.859375 53.8125 
Q 27.875 53.8125 31.5625 52.09375 
Q 35.25 50.390625 37.59375 46.96875 
Q 39.9375 43.5625 41.03125 38.421875 
Q 42.140625 33.296875 42.140625 26.46875 
z
M 34.578125 26.46875 
Q 34.578125 32.625 33.8125 36.625 
Q 33.0625 40.625 31.546875 43.015625 
Q 30.03125 45.40625 27.859375 46.359375 
Q 25.6875 47.3125 23 47.3125 
Q 20.21875 47.3125 17.984375 46.3125 
Q 15.765625 45.3125 14.203125 42.890625 
Q 12.640625 40.484375 11.828125 36.46875 
Q 11.03125 32.46875 11.03125 26.46875 
Q 11.03125 20.3125 11.90625 16.28125 
Q 12.796875 12.25 14.328125 9.859375 
Q 15.875 7.46875 17.96875 6.484375 
Q 20.0625 5.515625 22.5625 5.515625 
Q 25.34375 5.515625 27.5625 6.46875 
Q 29.78125 7.421875 31.34375 9.8125 
Q 32.90625 12.203125 33.734375 16.25 
Q 34.578125 20.3125 34.578125 26.46875 
z
" id="LiberationSansNarrow-1086"/>
       <path d="M 1.421875 52.828125 
L 36.140625 52.828125 
L 36.140625 46.4375 
L 22.359375 46.4375 
L 22.359375 0 
L 15.1875 0 
L 15.1875 46.4375 
L 1.421875 46.4375 
z
" id="LiberationSansNarrow-1090"/>
       <path d="M 64.015625 26.65625 
Q 64.015625 20.65625 63.234375 15.578125 
Q 62.453125 10.5 60.734375 6.828125 
Q 59.03125 3.171875 56.21875 1.09375 
Q 53.421875 -0.984375 49.359375 -0.984375 
Q 45.171875 -0.984375 42.015625 1.171875 
Q 38.875 3.328125 37.15625 8.203125 
L 36.921875 8.203125 
Q 37.015625 6.5 37.0625 4.609375 
Q 37.109375 2.734375 37.109375 -0.09375 
L 37.109375 -20.75 
L 30.328125 -20.75 
L 30.328125 -0.09375 
Q 30.328125 2.546875 30.375 4.546875 
Q 30.421875 6.546875 30.515625 8.5 
L 30.328125 8.5 
Q 28.46875 3.421875 25.484375 1.21875 
Q 22.515625 -0.984375 18.0625 -0.984375 
Q 10.59375 -0.984375 7.03125 5.734375 
Q 3.46875 12.453125 3.46875 26.171875 
Q 3.46875 40.046875 7.15625 46.921875 
Q 10.84375 53.8125 18.0625 53.8125 
Q 22.5625 53.8125 25.53125 51.609375 
Q 28.515625 49.421875 30.328125 44.625 
L 30.515625 44.625 
Q 30.515625 45.125 30.46875 46.125 
Q 30.421875 47.125 30.375 48.25 
L 30.375 50.390625 
Q 30.328125 51.421875 30.328125 52 
L 30.328125 72.46875 
L 37.109375 72.46875 
L 37.109375 51.953125 
Q 37.109375 51.421875 37.078125 50.359375 
Q 37.0625 49.3125 37.0625 48.15625 
Q 37.0625 47.015625 37.03125 45.96875 
Q 37.015625 44.921875 37.015625 44.34375 
L 37.203125 44.34375 
Q 39.0625 49.421875 41.9375 51.59375 
Q 44.828125 53.765625 49.359375 53.765625 
Q 53.421875 53.765625 56.21875 51.8125 
Q 59.03125 49.859375 60.734375 46.3125 
Q 62.453125 42.78125 63.234375 37.765625 
Q 64.015625 32.765625 64.015625 26.65625 
z
M 11.03125 26.46875 
Q 11.03125 21 11.546875 17.09375 
Q 12.0625 13.1875 13.1875 10.671875 
Q 14.3125 8.15625 16.015625 6.984375 
Q 17.71875 5.8125 20.125 5.8125 
Q 22.515625 5.8125 24.390625 6.859375 
Q 26.265625 7.90625 27.5625 10.296875 
Q 28.859375 12.703125 29.53125 16.53125 
Q 30.21875 20.359375 30.328125 25.875 
L 30.328125 27.046875 
Q 30.328125 32.671875 29.640625 36.546875 
Q 28.953125 40.4375 27.65625 42.828125 
Q 26.375 45.21875 24.484375 46.265625 
Q 22.609375 47.3125 20.171875 47.3125 
Q 17.875 47.3125 16.15625 46.1875 
Q 14.453125 45.0625 13.296875 42.578125 
Q 12.15625 40.09375 11.59375 36.109375 
Q 11.03125 32.125 11.03125 26.46875 
z
M 56.453125 26.46875 
Q 56.453125 31.34375 55.984375 35.15625 
Q 55.515625 38.96875 54.46875 41.59375 
Q 53.421875 44.234375 51.65625 45.59375 
Q 49.90625 46.96875 47.3125 46.96875 
Q 45.21875 46.96875 43.375 46.140625 
Q 41.546875 45.3125 40.125 42.96875 
Q 38.71875 40.625 37.90625 36.5 
Q 37.109375 32.375 37.109375 25.78125 
L 37.109375 24.65625 
Q 37.15625 19.390625 37.859375 15.71875 
Q 38.578125 12.0625 39.859375 9.78125 
Q 41.15625 7.515625 43.015625 6.515625 
Q 44.875 5.515625 47.265625 5.515625 
Q 49.859375 5.515625 51.609375 6.921875 
Q 53.375 8.34375 54.4375 11.03125 
Q 55.515625 13.71875 55.984375 17.59375 
Q 56.453125 21.484375 56.453125 26.46875 
z
" id="LiberationSansNarrow-1092"/>
       <path d="M 34.859375 0 
L 34.859375 46.4375 
L 19.875 46.4375 
Q 18.890625 37.453125 18.03125 30.4375 
Q 17.1875 23.4375 16.3125 18.15625 
Q 15.4375 12.890625 14.40625 9.25 
Q 13.375 5.609375 11.953125 3.34375 
Q 10.546875 1.078125 8.65625 0.046875 
Q 6.78125 -0.984375 4.203125 -0.984375 
Q 3.03125 -0.984375 2.078125 -0.78125 
Q 1.125 -0.59375 0.4375 -0.34375 
L 0.4375 5.953125 
Q 0.875 5.765625 1.625 5.640625 
Q 2.390625 5.515625 3.171875 5.515625 
Q 4.59375 5.515625 5.59375 6.53125 
Q 6.59375 7.5625 7.390625 9.859375 
Q 8.203125 12.15625 8.859375 15.796875 
Q 9.515625 19.4375 10.203125 24.703125 
Q 10.890625 29.984375 11.625 36.921875 
L 13.375 52.828125 
L 42.140625 52.828125 
L 42.140625 0 
z
" id="LiberationSansNarrow-1083"/>
      </defs>
      <use xlink:href="#LiberationSansNarrow-1056"/>
      <use x="51.3125" xlink:href="#LiberationSansNarrow-1072"/>
      <use x="95.792969" xlink:href="#LiberationSansNarrow-1079"/>
      <use x="133.341797" xlink:href="#LiberationSansNarrow-1084"/>
      <use x="189.738281" xlink:href="#LiberationSansNarrow-1077"/>
      <use x="235.34375" xlink:href="#LiberationSansNarrow-1088"/>
      <use x="280.949219" xlink:href="#LiberationSansNarrow-32"/>
      <use x="303.751953" xlink:href="#LiberationSansNarrow-1087"/>
      <use x="348.185547" xlink:href="#LiberationSansNarrow-1086"/>
      <use x="393.791016" xlink:href="#LiberationSansNarrow-1088"/>
      <use x="437.146484" xlink:href="#LiberationSansNarrow-1090"/>
      <use x="474.695312" xlink:href="#LiberationSansNarrow-1092"/>
      <use x="542.175781" xlink:href="#LiberationSansNarrow-1077"/>
      <use x="584.40625" xlink:href="#LiberationSansNarrow-1083"/>
      <use x="632.208984" xlink:href="#LiberationSansNarrow-1103"/>
     </g>
    </g>
   </g>
   <g id="line2d_12">
    <path clip-path="url(#pa83b196c1b)" d="M 69.585 213.664261 
L 70.888343 211.128261 
L 72.191685 207.92955 
L 73.495028 210.116345 
L 74.79837 207.678749 
L 76.101713 207.884587 
L 77.405056 200.405666 
L 78.708398 202.346227 
L 80.011741 197.929832 
L 81.315084 200.343846 
L 82.618426 206.405258 
L 83.921769 198.306924 
L 85.225111 197.057402 
L 86.528454 201.038213 
L 87.831797 202.679352 
L 89.135139 197.741451 
L 90.438482 189.507454 
L 91.741825 187.695822 
L 93.045167 185.254898 
L 94.34851 191.076586 
L 95.651852 194.766213 
L 96.955195 188.23951 
L 98.258538 187.565881 
L 99.56188 189.909595 
L 100.865223 193.292828 
L 102.168565 197.798184 
L 103.471908 191.440786 
L 104.775251 190.341264 
L 106.078593 181.439994 
L 108.685279 177.428862 
L 109.988621 173.650183 
L 111.291964 176.64874 
L 112.595306 177.705437 
L 113.898649 174.682168 
L 116.505334 171.685057 
L 117.808677 166.88852 
L 119.112019 173.083051 
L 120.415362 175.79095 
L 121.718705 174.420693 
L 123.022047 171.235742 
L 124.32539 170.382284 
L 125.628733 167.917284 
L 126.932075 160.176336 
L 128.235418 164.456431 
L 129.53876 160.74426 
L 130.842103 156.50619 
L 132.145446 163.267192 
L 133.448788 150.806483 
L 134.752131 147.897737 
L 136.055474 142.8538 
L 137.358816 143.932256 
L 138.662159 150.544401 
L 139.965501 158.394486 
L 141.268844 160.361896 
L 142.572187 160.041184 
L 143.875529 167.018675 
L 145.178872 164.035425 
L 146.482214 167.021627 
L 147.785557 160.858949 
L 149.0889 163.658165 
L 150.392242 166.987895 
L 151.695585 169.331739 
L 152.998928 169.973505 
L 154.30227 173.078704 
L 155.605613 171.090406 
L 156.908955 178.532206 
L 158.212298 183.656961 
L 159.515641 181.540999 
L 160.818983 183.588876 
L 162.122326 188.071291 
L 164.729011 189.884201 
L 166.032354 191.360772 
L 167.335696 193.503481 
L 168.639039 194.898169 
L 169.942382 189.84709 
L 171.245724 183.603153 
L 172.549067 190.449878 
L 173.852409 187.849608 
L 175.155752 187.30539 
L 176.459095 177.194596 
L 177.762437 178.142381 
L 179.06578 190.219072 
L 180.369123 194.779315 
L 181.672465 199.784429 
L 182.975808 198.288167 
L 184.27915 200.039191 
L 185.582493 203.717886 
L 186.885836 204.3674 
L 188.189178 204.80416 
L 189.492521 203.043293 
L 190.795864 205.09181 
L 192.099206 210.75445 
L 193.402549 214.234473 
L 194.705891 214.25599 
L 196.009234 213.238738 
L 197.312577 210.090736 
L 198.615919 204.125907 
L 199.919262 199.060272 
L 201.222604 201.488937 
L 202.525947 202.924148 
L 203.82929 196.897628 
L 205.132632 198.724945 
L 206.435975 200.969405 
L 207.739318 197.113093 
L 209.04266 201.601558 
L 210.346003 206.515904 
L 211.649345 207.214353 
L 212.952688 207.16907 
L 214.256031 210.934725 
L 215.559373 207.725826 
L 216.862716 211.200234 
L 218.166058 211.884445 
L 219.469401 205.455489 
L 220.772744 208.613875 
L 222.076086 212.985741 
L 223.379429 219.367128 
L 224.682772 220.691063 
L 225.986114 214.906255 
L 227.289457 213.496913 
L 228.592799 213.948548 
L 229.896142 208.981905 
L 231.199485 206.371556 
L 232.502827 204.736933 
L 233.80617 203.374666 
L 235.109513 204.538025 
L 236.412855 199.536335 
L 237.716198 206.750328 
L 239.01954 209.761886 
L 240.322883 205.894131 
L 241.626226 206.608603 
L 242.929568 205.448652 
L 244.232911 193.823067 
L 245.536253 187.758866 
L 246.839596 187.622626 
L 248.142939 191.84695 
L 249.446281 192.689762 
L 250.749624 198.934548 
L 252.052967 214.430366 
L 253.356309 222.128473 
L 254.659652 224.547273 
L 255.962994 219.684691 
L 257.266337 219.116751 
L 258.56968 209.783329 
L 259.873022 206.721351 
L 261.176365 202.698176 
L 262.479708 206.315067 
L 263.78305 206.340794 
L 265.086393 203.03125 
L 266.389735 197.61152 
L 267.693078 194.365849 
L 268.996421 195.958626 
L 270.299763 199.031891 
L 271.603106 204.881114 
L 272.906448 197.642131 
L 274.209791 198.009255 
L 275.513134 184.22834 
L 276.816476 184.68959 
L 278.119819 184.649908 
L 279.423162 180.748684 
L 280.726504 180.94008 
L 282.029847 174.706279 
L 283.333189 178.742647 
L 284.636532 174.650728 
L 285.939875 175.519015 
L 287.243217 176.175019 
L 288.54656 170.694236 
L 291.153245 164.243467 
L 292.456588 168.583958 
L 293.75993 162.888978 
L 295.063273 171.791632 
L 296.366616 167.439309 
L 297.669958 166.294689 
L 298.973301 166.795793 
L 300.276643 168.56702 
L 301.579986 174.119607 
L 302.883329 175.254669 
L 304.186671 177.304671 
L 305.490014 174.155725 
L 306.793357 177.108384 
L 308.096699 172.436244 
L 309.400042 166.313463 
L 310.703384 158.112284 
L 312.006727 156.918845 
L 313.31007 155.926305 
L 314.613412 145.596332 
L 315.916755 141.938155 
L 317.220097 141.009999 
L 318.52344 124.122964 
L 319.826783 121.063683 
L 321.130125 118.804264 
L 322.433468 122.778973 
L 323.736811 127.54139 
L 325.040153 134.057396 
L 326.343496 132.75632 
L 328.950181 133.127773 
L 330.253524 130.581541 
L 331.556866 136.663606 
L 332.860209 137.449543 
L 334.163552 137.249956 
L 335.466894 128.749858 
L 336.770237 133.660807 
L 338.073579 134.391617 
L 339.376922 136.158809 
L 340.680265 142.133515 
L 341.983607 144.584053 
L 343.28695 140.834641 
L 344.590292 136.197336 
L 345.893635 130.134965 
L 347.196978 121.743493 
L 348.50032 119.007513 
L 349.803663 124.066733 
L 351.107006 121.396371 
L 352.410348 133.179591 
L 353.713691 132.031754 
L 355.017033 133.582899 
L 356.320376 131.419528 
L 357.623719 131.390332 
L 358.927061 137.661921 
L 360.230404 142.026326 
L 361.533747 133.63884 
L 362.837089 138.891622 
L 364.140432 136.823575 
L 365.443774 137.90598 
L 366.747117 141.008003 
L 368.05046 133.636749 
L 369.353802 132.057785 
L 370.657145 127.276614 
L 371.960487 126.172143 
L 373.26383 127.802752 
L 374.567173 126.381286 
L 375.870515 122.374518 
L 377.173858 124.33805 
L 378.477201 119.928836 
L 379.780543 113.585069 
L 381.083886 112.320028 
L 382.387228 117.917327 
L 383.690571 109.847187 
L 384.993914 109.613234 
L 386.297256 108.698378 
L 387.600599 109.895164 
L 388.903942 110.025176 
L 390.207284 112.458379 
L 391.510627 111.383935 
L 392.813969 98.824304 
L 394.117312 105.785801 
L 395.420655 108.866975 
L 396.723997 103.39833 
L 398.02734 102.537088 
L 399.330682 99.807425 
L 400.634025 99.970952 
L 401.937368 98.37821 
L 403.24071 100.809342 
L 404.544053 93.596527 
L 405.847396 89.149235 
L 407.150738 92.291014 
L 408.454081 95.882443 
L 409.757423 90.183904 
L 411.060766 91.143786 
L 412.364109 98.547997 
L 413.667451 102.899911 
L 414.970794 95.754415 
L 416.274136 94.323495 
L 417.577479 91.285919 
L 418.880822 93.310712 
L 420.184164 82.299002 
L 421.487507 78.202022 
L 422.79085 76.78922 
L 424.094192 78.921114 
L 425.397535 78.999004 
L 426.700877 77.710586 
L 428.00422 75.032191 
L 429.307563 75.52209 
L 430.610905 77.073662 
L 431.914248 83.629573 
L 433.217591 80.826901 
L 434.520933 73.399136 
L 435.824276 70.572226 
L 437.127618 71.53708 
L 438.430961 81.189089 
L 439.734304 83.433379 
L 441.037646 74.398362 
L 442.340989 74.525609 
L 443.644331 75.691132 
L 446.251017 81.421911 
L 447.554359 84.824521 
L 448.857702 86.190946 
L 450.161045 96.044579 
L 451.464387 99.347276 
L 452.76773 101.760883 
L 454.071072 103.790198 
L 455.374415 93.823699 
L 456.677758 99.358522 
L 457.9811 102.56055 
L 459.284443 113.971293 
L 460.587786 114.54965 
L 461.891128 117.757161 
L 463.194471 119.885419 
L 464.497813 112.975162 
L 465.801156 114.554559 
L 467.104499 120.711087 
L 468.407841 113.137843 
L 469.711184 113.076786 
L 471.014526 112.139486 
L 472.317869 109.629759 
L 473.621212 104.842616 
L 474.924554 108.279288 
L 476.227897 102.42148 
L 477.53124 104.319528 
L 478.834582 103.755023 
L 480.137925 104.81691 
L 481.441267 104.246354 
L 482.74461 101.744083 
L 484.047953 105.916891 
L 485.351295 104.23031 
L 486.654638 107.103451 
L 487.957981 103.454551 
L 489.261323 111.498961 
L 490.564666 110.404012 
L 491.868008 105.977537 
L 493.171351 107.109819 
L 494.474694 109.003207 
L 495.778036 101.248238 
L 497.081379 99.920205 
L 498.384721 99.345882 
L 499.688064 94.113958 
L 500.991407 92.235208 
L 502.294749 88.437059 
L 503.598092 89.183305 
L 506.204777 90.259144 
L 507.50812 93.26344 
L 508.811462 92.614013 
L 510.114805 88.617635 
L 511.418148 86.977418 
L 512.72149 80.01987 
L 514.024833 74.489352 
L 515.328175 70.839452 
L 516.631518 62.124397 
L 517.934861 65.125875 
L 519.238203 63.636261 
L 520.541546 63.745952 
L 521.844889 70.588981 
L 523.148231 69.50114 
L 524.451574 66.960423 
L 525.754916 62.984209 
L 527.058259 77.098529 
L 528.361602 75.804322 
L 529.664944 67.239609 
L 530.968287 68.937425 
L 532.27163 66.261262 
L 533.574972 58.638362 
L 534.878315 52.055269 
L 536.181657 48.333728 
L 537.485 51.135925 
L 537.485 51.135925 
" style="fill:none;stroke:#1f77b4;stroke-linecap:square;"/>
   </g>
   <g id="line2d_13">
    <path clip-path="url(#pa83b196c1b)" d="M 69.585 201.394596 
L 70.888343 202.292867 
L 72.191685 207.261135 
L 74.79837 198.152412 
L 76.101713 193.340398 
L 77.405056 194.07199 
L 78.708398 194.186182 
L 80.011741 193.547221 
L 81.315084 196.475277 
L 82.618426 195.48526 
L 83.921769 197.423396 
L 85.225111 194.624475 
L 86.528454 197.793596 
L 87.831797 190.876813 
L 89.135139 188.272014 
L 90.438482 188.707327 
L 91.741825 186.178451 
L 93.045167 185.236579 
L 94.34851 178.794568 
L 95.651852 183.360233 
L 96.955195 189.448804 
L 99.56188 182.848007 
L 100.865223 184.423795 
L 102.168565 187.399072 
L 103.471908 185.133238 
L 104.775251 188.500289 
L 106.078593 181.584054 
L 108.685279 177.147287 
L 109.988621 172.379046 
L 111.291964 165.353007 
L 112.595306 165.993772 
L 113.898649 168.905915 
L 115.201992 172.171119 
L 116.505334 171.705171 
L 117.808677 172.344387 
L 119.112019 174.432912 
L 120.415362 167.964806 
L 121.718705 170.541223 
L 123.022047 168.686835 
L 124.32539 162.468188 
L 125.628733 169.855404 
L 126.932075 163.748609 
L 128.235418 169.124337 
L 129.53876 167.329188 
L 130.842103 157.874846 
L 132.145446 154.265289 
L 133.448788 152.058898 
L 134.752131 154.994816 
L 136.055474 158.387009 
L 137.358816 159.268362 
L 138.662159 156.68225 
L 139.965501 155.399919 
L 141.268844 162.435545 
L 142.572187 156.27456 
L 143.875529 162.496589 
L 145.178872 158.569523 
L 146.482214 168.360938 
L 147.785557 171.60204 
L 149.0889 173.754234 
L 150.392242 178.702563 
L 151.695585 173.020932 
L 152.998928 171.596826 
L 154.30227 168.524897 
L 155.605613 167.985352 
L 156.908955 173.998065 
L 158.212298 175.042645 
L 159.515641 183.310141 
L 160.818983 194.29933 
L 162.122326 190.775489 
L 163.425669 189.004223 
L 164.729011 191.129334 
L 166.032354 189.154045 
L 167.335696 191.506702 
L 168.639039 186.223221 
L 169.942382 187.033549 
L 171.245724 182.550196 
L 172.549067 179.891161 
L 173.852409 173.920136 
L 175.155752 176.736543 
L 176.459095 185.541199 
L 177.762437 185.305894 
L 179.06578 184.689645 
L 180.369123 184.569804 
L 181.672465 186.948669 
L 182.975808 191.093473 
L 184.27915 193.170657 
L 185.582493 192.211259 
L 186.885836 188.044017 
L 188.189178 196.515484 
L 189.492521 200.302414 
L 190.795864 202.789656 
L 192.099206 202.199917 
L 193.402549 198.102884 
L 194.705891 193.437118 
L 196.009234 185.477448 
L 197.312577 180.101061 
L 198.615919 181.870172 
L 199.919262 184.687688 
L 201.222604 178.196441 
L 202.525947 179.576036 
L 203.82929 184.941084 
L 205.132632 181.24936 
L 206.435975 190.430829 
L 207.739318 193.428592 
L 209.04266 194.257888 
L 210.346003 192.301904 
L 211.649345 187.015582 
L 212.952688 184.107533 
L 214.256031 186.47399 
L 215.559373 186.80953 
L 216.862716 184.957653 
L 218.166058 183.526469 
L 219.469401 184.008901 
L 220.772744 186.552075 
L 222.076086 187.118582 
L 223.379429 186.779952 
L 224.682772 187.924003 
L 225.986114 193.277439 
L 227.289457 194.362232 
L 228.592799 200.555689 
L 229.896142 201.095753 
L 231.199485 195.440429 
L 232.502827 197.378993 
L 233.80617 193.634769 
L 235.109513 190.42949 
L 236.412855 186.604 
L 237.716198 178.916672 
L 239.01954 179.796422 
L 241.626226 170.774526 
L 242.929568 157.464358 
L 244.232911 163.555884 
L 245.536253 163.379397 
L 246.839596 164.287345 
L 248.142939 166.081751 
L 249.446281 172.479892 
L 250.749624 179.617859 
L 252.052967 178.046556 
L 253.356309 183.919625 
L 254.659652 185.805561 
L 255.962994 188.850927 
L 257.266337 185.35586 
L 258.56968 181.13179 
L 259.873022 175.065554 
L 261.176365 172.479189 
L 262.479708 165.946092 
L 263.78305 165.321075 
L 265.086393 167.613703 
L 266.389735 163.560307 
L 267.693078 165.243807 
L 268.996421 162.218325 
L 270.299763 155.801581 
L 271.603106 153.932012 
L 272.906448 156.953621 
L 274.209791 149.888178 
L 275.513134 144.556635 
L 276.816476 144.798514 
L 278.119819 135.516985 
L 279.423162 134.340609 
L 280.726504 132.50897 
L 282.029847 127.804423 
L 283.333189 129.499717 
L 284.636532 133.108652 
L 285.939875 133.798739 
L 287.243217 136.970465 
L 289.849903 144.622042 
L 291.153245 143.935117 
L 292.456588 146.3805 
L 293.75993 138.674951 
L 295.063273 136.467743 
L 296.366616 134.943822 
L 297.669958 136.965662 
L 298.973301 135.895625 
L 300.276643 142.009295 
L 301.579986 140.043465 
L 302.883329 145.088654 
L 304.186671 145.01083 
L 305.490014 150.730893 
L 306.793357 146.897572 
L 308.096699 136.937884 
L 309.400042 138.358288 
L 310.703384 128.207604 
L 312.006727 120.447691 
L 313.31007 113.583555 
L 314.613412 96.282627 
L 315.916755 96.888828 
L 317.220097 88.606413 
L 318.52344 87.28914 
L 319.826783 92.340798 
L 321.130125 91.493058 
L 322.433468 89.248712 
L 323.736811 81.27385 
L 325.040153 87.372754 
L 326.343496 88.295731 
L 327.646838 90.878134 
L 328.950181 99.002101 
L 330.253524 95.641649 
L 331.556866 94.353374 
L 332.860209 91.951247 
L 334.163552 93.112246 
L 335.466894 98.183778 
L 336.770237 105.875829 
L 338.073579 103.970547 
L 339.376922 104.798156 
L 340.680265 100.339073 
L 341.983607 93.148255 
L 343.28695 93.23302 
L 344.590292 92.825919 
L 345.893635 97.765764 
L 347.196978 100.560617 
L 348.50032 102.16453 
L 349.803663 106.173675 
L 351.107006 103.761656 
L 352.410348 104.190043 
L 353.713691 96.611822 
L 355.017033 99.967191 
L 356.320376 102.393587 
L 357.623719 100.273619 
L 358.927061 94.027135 
L 360.230404 98.265953 
L 361.533747 95.794783 
L 362.837089 97.361037 
L 364.140432 97.377946 
L 365.443774 94.708891 
L 366.747117 91.712966 
L 368.05046 96.253626 
L 369.353802 101.689253 
L 370.657145 99.893484 
L 371.960487 97.072508 
L 373.26383 89.317068 
L 374.567173 90.244615 
L 375.870515 87.089736 
L 377.173858 72.836181 
L 378.477201 72.632825 
L 379.780543 73.425704 
L 381.083886 69.351297 
L 382.387228 68.075221 
L 383.690571 71.892107 
L 384.993914 70.419704 
L 386.297256 74.663185 
L 387.600599 68.200856 
L 388.903942 58.833984 
L 390.207284 63.859914 
L 391.510627 59.764086 
L 392.813969 60.595531 
L 394.117312 61.571265 
L 395.420655 63.381658 
L 396.723997 65.745879 
L 398.02734 65.300725 
L 399.330682 63.973365 
L 400.634025 62.827253 
L 401.937368 58.716397 
L 403.24071 59.223781 
L 404.544053 66.046493 
L 405.847396 62.850896 
L 407.150738 51.450281 
L 408.454081 49.319907 
L 409.757423 49.865284 
L 411.060766 56.538917 
L 412.364109 46.806722 
L 413.667451 41.497001 
L 414.970794 42.042301 
L 416.274136 47.353899 
L 417.577479 48.380859 
L 418.880822 52.586317 
L 420.184164 56.036335 
L 421.487507 58.081042 
L 422.79085 50.318197 
L 424.094192 37.060637 
L 425.397535 29.543838 
L 426.700877 33.715272 
L 428.00422 31.776524 
L 429.307563 36.356325 
L 430.610905 38.260591 
L 431.914248 32.644078 
L 433.217591 30.247012 
L 434.520933 42.165053 
L 435.824276 48.544987 
L 437.127618 40.895626 
L 438.430961 39.255971 
L 441.037646 49.397091 
L 442.340989 46.945195 
L 443.644331 45.079783 
L 444.947674 41.760114 
L 446.251017 33.372646 
L 447.554359 43.127827 
L 448.857702 40.954918 
L 450.161045 47.714307 
L 451.464387 51.451813 
L 452.76773 53.553004 
L 454.071072 59.29825 
L 455.374415 62.939252 
L 456.677758 71.486873 
L 457.9811 63.339381 
L 459.284443 63.747028 
L 460.587786 64.705267 
L 461.891128 62.284591 
L 463.194471 71.575372 
L 464.497813 76.841265 
L 465.801156 75.446424 
L 467.104499 74.996756 
L 468.407841 70.811413 
L 469.711184 72.449098 
L 471.014526 65.000752 
L 472.317869 65.373438 
L 473.621212 64.042181 
L 474.924554 65.405871 
L 476.227897 65.979457 
L 477.53124 57.530381 
L 478.834582 59.737748 
L 480.137925 61.212333 
L 481.441267 66.819124 
L 482.74461 64.242944 
L 484.047953 65.287097 
L 485.351295 68.283033 
L 486.654638 65.700161 
L 487.957981 62.758505 
L 489.261323 63.633906 
L 490.564666 69.527041 
L 493.171351 79.76051 
L 495.778036 72.370652 
L 497.081379 72.392941 
L 498.384721 64.688052 
L 499.688064 60.482228 
L 500.991407 62.242403 
L 502.294749 64.615139 
L 503.598092 60.896799 
L 504.901435 64.792645 
L 506.204777 66.122695 
L 507.50812 71.226171 
L 508.811462 61.963892 
L 510.114805 65.651235 
L 511.418148 60.546345 
L 512.72149 58.202721 
L 514.024833 51.631931 
L 515.328175 54.075872 
L 517.934861 39.315092 
L 519.238203 40.077399 
L 520.541546 39.040417 
L 521.844889 37.702287 
L 523.148231 44.490944 
L 524.451574 52.002535 
L 525.754916 51.759826 
L 527.058259 46.424311 
L 528.361602 49.064367 
L 529.664944 51.051276 
L 530.968287 48.382904 
L 532.27163 42.435316 
L 533.574972 49.656109 
L 534.878315 50.809282 
L 536.181657 53.698325 
L 537.485 51.135925 
L 537.485 51.135925 
" style="fill:none;stroke:#ff7f0e;stroke-linecap:square;"/>
   </g>
   <g id="line2d_14">
    <path clip-path="url(#pa83b196c1b)" d="M 69.585 207.182321 
L 70.888343 206.433454 
L 72.191685 207.330832 
L 73.495028 206.123081 
L 74.79837 202.491072 
L 76.101713 200.019787 
L 77.405056 196.766118 
L 78.708398 197.759112 
L 80.011741 195.26964 
L 81.315084 197.945265 
L 82.618426 200.303382 
L 83.921769 197.24375 
L 85.225111 195.213988 
L 86.528454 198.784531 
L 87.831797 195.931209 
L 90.438482 188.30506 
L 91.741825 186.133756 
L 93.045167 184.439365 
L 94.34851 183.80685 
L 95.651852 187.955756 
L 96.955195 187.675754 
L 98.258538 185.714233 
L 99.56188 185.126296 
L 100.865223 187.598267 
L 102.168565 191.326797 
L 103.471908 187.00806 
L 104.775251 188.088013 
L 106.078593 180.146258 
L 108.685279 175.92907 
L 109.988621 171.668833 
L 111.291964 169.557134 
L 112.595306 170.401401 
L 113.898649 170.32823 
L 115.201992 171.121619 
L 116.505334 170.159436 
L 117.808677 168.000203 
L 119.112019 172.163696 
L 120.415362 170.138386 
L 121.718705 170.767988 
L 123.022047 168.253174 
L 124.32539 164.63113 
L 125.628733 167.02616 
L 126.932075 160.085166 
L 128.235418 164.898829 
L 129.53876 162.111762 
L 130.842103 155.293687 
L 132.145446 156.621361 
L 133.448788 149.290562 
L 134.752131 149.226888 
L 136.055474 148.125599 
L 137.358816 149.111849 
L 138.662159 151.226104 
L 139.965501 154.418021 
L 141.268844 158.911292 
L 142.572187 155.601231 
L 143.875529 162.190723 
L 145.178872 158.720681 
L 146.482214 165.10995 
L 147.785557 163.445178 
L 149.0889 165.933954 
L 150.392242 170.034251 
L 151.695585 168.408885 
L 152.998928 168.019069 
L 154.30227 167.951702 
L 155.605613 166.70264 
L 156.908955 173.410528 
L 159.515641 179.466987 
L 160.818983 185.792241 
L 162.122326 186.29675 
L 163.425669 185.843801 
L 164.729011 187.367756 
L 166.032354 187.079276 
L 167.335696 189.329237 
L 169.942382 185.163859 
L 171.245724 179.81548 
L 172.549067 181.618691 
L 173.852409 177.203884 
L 175.155752 178.442807 
L 176.459095 177.543448 
L 177.762437 177.911864 
L 179.06578 183.270642 
L 180.369123 185.303576 
L 181.672465 188.874677 
L 182.975808 190.385625 
L 184.27915 192.310278 
L 185.582493 193.470548 
L 186.885836 191.451581 
L 188.189178 196.191774 
L 189.492521 197.331544 
L 192.099206 201.919017 
L 193.402549 201.204669 
L 194.705891 198.831841 
L 197.312577 189.823828 
L 198.615919 187.835262 
L 199.919262 186.679197 
L 201.222604 184.500528 
L 202.525947 185.907005 
L 203.82929 185.466506 
L 205.132632 184.517182 
L 206.435975 190.140613 
L 207.739318 189.51464 
L 209.04266 192.247701 
L 210.346003 193.617971 
L 211.649345 191.146666 
L 212.952688 189.566323 
L 214.256031 192.577214 
L 215.559373 191.251428 
L 216.862716 191.830941 
L 218.166058 191.355169 
L 219.469401 188.606567 
L 220.772744 191.436479 
L 222.076086 193.743363 
L 223.379429 196.374958 
L 224.682772 197.598444 
L 225.986114 197.09666 
L 227.289457 196.85601 
L 228.592799 199.922472 
L 229.896142 197.394323 
L 231.199485 193.414438 
L 232.502827 193.357803 
L 233.80617 190.930684 
L 235.109513 190.097403 
L 236.412855 185.630115 
L 237.716198 185.563099 
L 239.01954 187.522538 
L 240.322883 183.264514 
L 241.626226 181.379039 
L 242.929568 173.661762 
L 244.232911 170.874853 
L 245.536253 167.667915 
L 246.839596 168.035898 
L 248.142939 171.073234 
L 249.446281 174.558623 
L 253.356309 194.721142 
L 254.659652 196.863689 
L 255.962994 195.956549 
L 257.266337 193.905271 
L 258.56968 187.10079 
L 259.873022 182.530983 
L 261.176365 179.224174 
L 262.479708 177.542828 
L 263.78305 177.227895 
L 265.086393 176.778699 
L 266.389735 172.052282 
L 268.996421 170.504389 
L 270.299763 168.561408 
L 271.603106 170.193885 
L 272.906448 167.842378 
L 274.209791 164.541732 
L 275.513134 154.765765 
L 276.816476 155.122924 
L 278.119819 150.501059 
L 279.423162 147.933703 
L 280.726504 147.125339 
L 282.029847 141.641881 
L 283.333189 144.516931 
L 284.636532 144.108337 
L 285.939875 144.891318 
L 287.243217 146.737053 
L 288.54656 145.756687 
L 289.849903 145.690104 
L 291.153245 143.676095 
L 292.456588 147.143246 
L 293.75993 140.512437 
L 295.063273 143.959662 
L 296.366616 140.977755 
L 297.669958 141.344237 
L 298.973301 141.089871 
L 300.276643 144.905705 
L 301.579986 146.788063 
L 302.883329 149.796662 
L 304.186671 150.772301 
L 305.490014 151.919905 
L 306.793357 151.478873 
L 308.096699 144.097894 
L 309.400042 141.708214 
L 310.703384 132.533458 
L 312.006727 127.961246 
L 313.31007 123.868056 
L 314.613412 109.74532 
L 315.916755 108.365595 
L 317.220097 103.384154 
L 318.52344 94.521547 
L 319.826783 95.36596 
L 321.130125 93.781372 
L 322.433468 94.693971 
L 323.736811 92.810577 
L 325.040153 99.108555 
L 326.343496 98.958641 
L 327.646838 100.395337 
L 328.950181 104.476241 
L 330.253524 101.526459 
L 331.556866 103.83021 
L 332.860209 102.958391 
L 334.163552 103.462026 
L 335.466894 101.323163 
L 336.770237 107.51989 
L 338.073579 107.016002 
L 339.376922 108.34108 
L 340.680265 109.155321 
L 341.983607 106.622833 
L 343.28695 104.821162 
L 344.590292 102.291478 
L 345.893635 101.43165 
L 347.196978 98.042863 
L 348.50032 97.204853 
L 349.803663 101.802336 
L 351.107006 99.260991 
L 352.410348 105.076225 
L 353.713691 100.453624 
L 355.017033 102.972242 
L 356.320376 103.221591 
L 357.623719 102.083273 
L 358.927061 101.355537 
L 360.230404 105.649686 
L 361.533747 100.492036 
L 362.837089 103.701215 
L 365.443774 101.767585 
L 366.747117 101.734829 
L 368.05046 100.159718 
L 369.353802 101.880589 
L 370.657145 98.483342 
L 371.960487 96.576393 
L 373.26383 93.616031 
L 374.567173 93.330805 
L 375.870515 89.73443 
L 377.173858 83.278711 
L 378.477201 81.012212 
L 381.083886 75.51849 
L 382.387228 77.570093 
L 383.690571 75.305932 
L 384.993914 74.463544 
L 386.297256 76.021553 
L 387.600599 73.41131 
L 388.903942 68.612729 
L 390.207284 72.375979 
L 391.510627 69.730543 
L 392.813969 63.719968 
L 394.117312 67.671372 
L 395.420655 70.109775 
L 396.723997 68.461466 
L 398.02734 67.807869 
L 399.330682 65.773472 
L 400.634025 65.283717 
L 401.937368 62.42024 
L 403.24071 63.872036 
L 404.544053 63.349943 
L 405.847396 59.495725 
L 407.150738 55.259297 
L 408.454081 55.872218 
L 409.757423 53.33406 
L 411.060766 57.110627 
L 412.364109 55.39016 
L 413.667451 54.69594 
L 414.970794 51.430826 
L 416.274136 53.296917 
L 417.577479 52.208758 
L 418.880822 55.26848 
L 420.184164 50.641064 
L 421.487507 49.169838 
L 422.79085 44.950725 
L 424.094192 39.738625 
L 425.397535 36.059244 
L 426.700877 37.403178 
L 428.00422 35.080127 
L 429.307563 37.576373 
L 430.610905 39.300676 
L 431.914248 39.553292 
L 433.217591 36.960277 
L 434.520933 38.669166 
L 435.824276 39.995997 
L 437.127618 36.904267 
L 438.430961 40.944913 
L 439.734304 44.494883 
L 441.037646 41.99576 
L 442.340989 40.926588 
L 444.947674 40.370188 
L 446.251017 37.137109 
L 447.554359 43.878403 
L 448.857702 43.355869 
L 450.161045 51.536113 
L 451.464387 55.073525 
L 452.76773 57.318262 
L 454.071072 61.324433 
L 455.374415 58.170261 
L 456.677758 65.192433 
L 457.9811 62.494274 
L 459.284443 67.906721 
L 460.587786 68.674686 
L 461.891128 68.999938 
L 463.194471 74.677812 
L 464.497813 73.460187 
L 465.801156 73.62871 
L 467.104499 76.550898 
L 468.407841 70.609873 
L 469.711184 71.360583 
L 471.014526 67.214128 
L 472.317869 66.105913 
L 473.621212 62.971589 
L 474.924554 65.406929 
L 476.227897 62.669374 
L 477.53124 59.300352 
L 478.834582 60.129102 
L 480.137925 61.398034 
L 481.441267 63.838515 
L 482.74461 61.300206 
L 484.047953 63.924888 
L 485.351295 64.504733 
L 486.654638 64.668381 
L 487.957981 61.369549 
L 489.261323 65.746872 
L 490.564666 68.113764 
L 491.868008 68.185684 
L 493.171351 71.250809 
L 494.474694 70.388646 
L 495.778036 64.612215 
L 497.081379 63.917788 
L 498.384721 59.880511 
L 499.688064 55.144484 
L 500.991407 54.993855 
L 502.294749 54.038729 
L 503.598092 52.68228 
L 504.901435 54.782758 
L 506.204777 55.679289 
L 507.50812 59.723005 
L 508.811462 54.6377 
L 510.114805 54.462432 
L 511.418148 51.071529 
L 512.72149 46.396245 
L 514.024833 40.348662 
L 515.328175 39.64202 
L 516.631518 31.613951 
L 517.934861 29.335253 
L 520.541546 28.503446 
L 523.148231 33.798027 
L 524.451574 35.868424 
L 525.754916 33.572907 
L 527.058259 38.061631 
L 528.361602 38.678753 
L 529.664944 34.983972 
L 530.968287 34.622841 
L 532.27163 30.379342 
L 533.574972 29.362597 
L 534.878315 26.086631 
L 536.181657 25.092727 
L 537.485 25.616739 
L 537.485 25.616739 
" style="fill:none;stroke:#2ca02c;stroke-linecap:square;"/>
   </g>
   <g id="legend_1">
    <g id="patch_3">
     <path d="M 54.3534 74.556112 
L 109.911897 74.556112 
Q 112.244297 74.556112 112.244297 72.223712 
L 112.244297 23.2834 
Q 112.244297 20.951 109.911897 20.951 
L 54.3534 20.951 
Q 52.021 20.951 52.021 23.2834 
L 52.021 72.223712 
Q 52.021 74.556112 54.3534 74.556112 
z
" style="fill:#ffffff;opacity:0.8;stroke:#cccccc;stroke-linejoin:miter;"/>
    </g>
    <g id="line2d_15">
     <path d="M 56.6858 29.985406 
L 80.0098 29.985406 
" style="fill:none;stroke:#1f77b4;stroke-linecap:square;"/>
    </g>
    <g id="line2d_16"/>
    <g id="text_14">
     <!-- А -->
     <g transform="translate(89.3394 34.067106)scale(0.11662 -0.11662)">
      <defs>
       <path d="M 46.734375 0 
L 40.28125 20.125 
L 14.546875 20.125 
L 8.109375 0 
L 0.140625 0 
L 23.1875 68.796875 
L 31.890625 68.796875 
L 54.546875 0 
z
M 30.765625 50.09375 
Q 30.125 52.046875 29.546875 54.046875 
L 28.515625 57.71875 
L 27.734375 60.453125 
Q 27.4375 61.53125 27.4375 61.765625 
Q 27.34375 61.53125 27.078125 60.40625 
Q 26.8125 59.28125 26.375 57.625 
L 25.296875 53.953125 
L 24.125 50 
L 16.890625 27.390625 
L 37.984375 27.390625 
z
" id="LiberationSansNarrow-1040"/>
      </defs>
      <use xlink:href="#LiberationSansNarrow-1040"/>
     </g>
    </g>
    <g id="line2d_17">
     <path d="M 56.6858 46.687576 
L 80.0098 46.687576 
" style="fill:none;stroke:#ff7f0e;stroke-linecap:square;"/>
    </g>
    <g id="line2d_18"/>
    <g id="text_15">
     <!-- Б -->
     <g transform="translate(89.3394 50.769276)scale(0.11662 -0.11662)">
      <defs>
       <path d="M 49.5625 20.171875 
Q 49.5625 15.921875 48.34375 12.25 
Q 47.125 8.59375 44.703125 5.859375 
Q 42.28125 3.125 38.640625 1.5625 
Q 35.015625 0 30.125 0 
L 6.734375 0 
L 6.734375 68.796875 
L 43.796875 68.796875 
L 43.796875 61.1875 
L 14.359375 61.1875 
L 14.359375 39.703125 
L 29.6875 39.703125 
Q 34.671875 39.703125 38.40625 38.28125 
Q 42.140625 36.859375 44.609375 34.296875 
Q 47.078125 31.734375 48.3125 28.140625 
Q 49.5625 24.5625 49.5625 20.171875 
z
M 41.890625 20.0625 
Q 41.890625 25.984375 38.59375 29.125 
Q 35.296875 32.28125 28.765625 32.28125 
L 14.359375 32.28125 
L 14.359375 7.375 
L 29.046875 7.375 
Q 35.59375 7.375 38.734375 10.6875 
Q 41.890625 14.015625 41.890625 20.0625 
z
" id="LiberationSansNarrow-1041"/>
      </defs>
      <use xlink:href="#LiberationSansNarrow-1041"/>
     </g>
    </g>
    <g id="line2d_19">
     <path d="M 56.6858 63.389747 
L 80.0098 63.389747 
" style="fill:none;stroke:#2ca02c;stroke-linecap:square;"/>
    </g>
    <g id="line2d_20"/>
    <g id="text_16">
     <!-- А+Б -->
     <g transform="translate(89.3394 67.471447)scale(0.11662 -0.11662)">
      <defs>
       <path d="M 26.859375 29.6875 
L 26.859375 8.796875 
L 21 8.796875 
L 21 29.6875 
L 4 29.6875 
L 4 36.8125 
L 21 36.8125 
L 21 57.71875 
L 26.859375 57.71875 
L 26.859375 36.8125 
L 43.84375 36.8125 
L 43.84375 29.6875 
z
" id="LiberationSansNarrow-43"/>
      </defs>
      <use xlink:href="#LiberationSansNarrow-1040"/>
      <use x="54.6875" xlink:href="#LiberationSansNarrow-43"/>
      <use x="102.587891" xlink:href="#LiberationSansNarrow-1041"/>
     </g>
    </g>
   </g>
  </g>
 </g>
 <defs>
  <clipPath id="pa83b196c1b">
   <rect height="219.4" width="514.69" x="46.19" y="15.12"/>
  </clipPath>
 </defs>
</svg>
