<?xml version="1.0" encoding="utf-8" standalone="no"?>
<!DOCTYPE svg PUBLIC "-//W3C//DTD SVG 1.1//EN"
  "http://www.w3.org/Graphics/SVG/1.1/DTD/svg11.dtd">
<!-- Created with matplotlib (https://matplotlib.org/) -->
<svg height="288pt" version="1.1" viewBox="0 0 576 288" width="576pt" xmlns="http://www.w3.org/2000/svg" xmlns:xlink="http://www.w3.org/1999/xlink">
 <metadata>
  <rdf:RDF xmlns:cc="http://creativecommons.org/ns#" xmlns:dc="http://purl.org/dc/elements/1.1/" xmlns:rdf="http://www.w3.org/1999/02/22-rdf-syntax-ns#">
   <cc:Work>
    <dc:type rdf:resource="http://purl.org/dc/dcmitype/StillImage"/>
    <dc:date>2021-08-21T16:31:38.390304</dc:date>
    <dc:format>image/svg+xml</dc:format>
    <dc:creator>
     <cc:Agent>
      <dc:title>Matplotlib v3.3.4, https://matplotlib.org/</dc:title>
     </cc:Agent>
    </dc:creator>
   </cc:Work>
  </rdf:RDF>
 </metadata>
 <defs>
  <style type="text/css">*{stroke-linecap:butt;stroke-linejoin:round;}</style>
 </defs>
 <g id="figure_1">
  <g id="patch_1">
   <path d="M 0 288 
L 576 288 
L 576 0 
L 0 0 
z
" style="fill:#ffffff;"/>
  </g>
  <g id="axes_1">
   <g id="patch_2">
    <path d="M 46.19 234.52 
L 560.88 234.52 
L 560.88 15.12 
L 46.19 15.12 
z
" style="fill:#ffffff;"/>
   </g>
   <g id="matplotlib.axis_1">
    <g id="xtick_1">
     <g id="line2d_1">
      <path clip-path="url(#pee1061426d)" d="M 69.585 234.52 
L 69.585 15.12 
" style="fill:none;stroke:#b0b0b0;stroke-dasharray:1.48,0.64;stroke-dashoffset:0;stroke-width:0.4;"/>
     </g>
     <g id="text_1">
      <!-- 0 -->
      <g transform="translate(66.392344 251.665625)scale(0.14 -0.14)">
       <defs>
        <path d="M 42.390625 34.421875 
Q 42.390625 24.515625 40.84375 17.75 
Q 39.3125 10.984375 36.640625 6.8125 
Q 33.984375 2.640625 30.390625 0.828125 
Q 26.8125 -0.984375 22.703125 -0.984375 
Q 18.609375 -0.984375 15.03125 0.828125 
Q 11.46875 2.640625 8.828125 6.78125 
Q 6.203125 10.9375 4.703125 17.703125 
Q 3.21875 24.46875 3.21875 34.421875 
Q 3.21875 44.828125 4.703125 51.640625 
Q 6.203125 58.453125 8.828125 62.5 
Q 11.46875 66.546875 15.078125 68.1875 
Q 18.703125 69.828125 22.953125 69.828125 
Q 27 69.828125 30.53125 68.1875 
Q 34.078125 66.546875 36.71875 62.5 
Q 39.359375 58.453125 40.875 51.640625 
Q 42.390625 44.828125 42.390625 34.421875 
z
M 35.0625 34.421875 
Q 35.0625 42.625 34.28125 48.0625 
Q 33.5 53.515625 31.9375 56.765625 
Q 30.375 60.015625 28.09375 61.359375 
Q 25.828125 62.703125 22.953125 62.703125 
Q 19.921875 62.703125 17.578125 61.328125 
Q 15.234375 59.96875 13.671875 56.71875 
Q 12.109375 53.46875 11.296875 48.015625 
Q 10.5 42.578125 10.5 34.421875 
Q 10.5 26.515625 11.296875 21.09375 
Q 12.109375 15.671875 13.6875 12.375 
Q 15.28125 9.078125 17.578125 7.640625 
Q 19.875 6.203125 22.796875 6.203125 
Q 25.640625 6.203125 27.90625 7.640625 
Q 30.171875 9.078125 31.75 12.375 
Q 33.34375 15.671875 34.203125 21.09375 
Q 35.0625 26.515625 35.0625 34.421875 
z
" id="LiberationSansNarrow-48"/>
       </defs>
       <use xlink:href="#LiberationSansNarrow-48"/>
      </g>
     </g>
    </g>
    <g id="xtick_2">
     <g id="line2d_2">
      <path clip-path="url(#pee1061426d)" d="M 134.752131 234.52 
L 134.752131 15.12 
" style="fill:none;stroke:#b0b0b0;stroke-dasharray:1.48,0.64;stroke-dashoffset:0;stroke-width:0.4;"/>
     </g>
     <g id="text_2">
      <!-- 50 -->
      <g transform="translate(128.366818 251.665625)scale(0.14 -0.14)">
       <defs>
        <path d="M 42.140625 22.40625 
Q 42.140625 17.234375 40.859375 12.9375 
Q 39.59375 8.640625 37.078125 5.53125 
Q 34.578125 2.4375 30.8125 0.71875 
Q 27.046875 -0.984375 22.125 -0.984375 
Q 17.671875 -0.984375 14.375 0.28125 
Q 11.078125 1.5625 8.8125 3.78125 
Q 6.546875 6 5.203125 8.984375 
Q 3.859375 11.96875 3.265625 15.375 
L 10.546875 16.40625 
Q 10.984375 14.453125 11.78125 12.625 
Q 12.59375 10.796875 13.984375 9.34375 
Q 15.375 7.90625 17.40625 7.046875 
Q 19.4375 6.203125 22.3125 6.203125 
Q 25.09375 6.203125 27.390625 7.25 
Q 29.6875 8.296875 31.296875 10.34375 
Q 32.90625 12.40625 33.78125 15.375 
Q 34.671875 18.359375 34.671875 22.21875 
Q 34.671875 25.390625 33.84375 28.046875 
Q 33.015625 30.71875 31.453125 32.640625 
Q 29.890625 34.578125 27.609375 35.640625 
Q 25.34375 36.71875 22.46875 36.71875 
Q 20.65625 36.71875 19.140625 36.328125 
Q 17.625 35.9375 16.328125 35.25 
Q 15.046875 34.578125 13.96875 33.671875 
Q 12.890625 32.765625 11.96875 31.78125 
L 4.9375 31.78125 
L 6.78125 68.796875 
L 38.875 68.796875 
L 38.875 61.328125 
L 13.375 61.328125 
L 12.3125 39.5 
Q 14.203125 41.3125 17.078125 42.59375 
Q 19.96875 43.890625 23.921875 43.890625 
Q 28.125 43.890625 31.484375 42.328125 
Q 34.859375 40.765625 37.21875 37.90625 
Q 39.59375 35.0625 40.859375 31.109375 
Q 42.140625 27.15625 42.140625 22.40625 
z
" id="LiberationSansNarrow-53"/>
       </defs>
       <use xlink:href="#LiberationSansNarrow-53"/>
       <use x="45.605469" xlink:href="#LiberationSansNarrow-48"/>
      </g>
     </g>
    </g>
    <g id="xtick_3">
     <g id="line2d_3">
      <path clip-path="url(#pee1061426d)" d="M 199.919262 234.52 
L 199.919262 15.12 
" style="fill:none;stroke:#b0b0b0;stroke-dasharray:1.48,0.64;stroke-dashoffset:0;stroke-width:0.4;"/>
     </g>
     <g id="text_3">
      <!-- 100 -->
      <g transform="translate(190.341293 251.665625)scale(0.14 -0.14)">
       <defs>
        <path d="M 6.25 0 
L 6.25 7.46875 
L 20.609375 7.46875 
L 20.609375 60.40625 
L 7.90625 49.3125 
L 7.90625 57.625 
L 21.234375 68.796875 
L 27.875 68.796875 
L 27.875 7.46875 
L 41.609375 7.46875 
L 41.609375 0 
z
" id="LiberationSansNarrow-49"/>
       </defs>
       <use xlink:href="#LiberationSansNarrow-49"/>
       <use x="45.605469" xlink:href="#LiberationSansNarrow-48"/>
       <use x="91.210938" xlink:href="#LiberationSansNarrow-48"/>
      </g>
     </g>
    </g>
    <g id="xtick_4">
     <g id="line2d_4">
      <path clip-path="url(#pee1061426d)" d="M 265.086393 234.52 
L 265.086393 15.12 
" style="fill:none;stroke:#b0b0b0;stroke-dasharray:1.48,0.64;stroke-dashoffset:0;stroke-width:0.4;"/>
     </g>
     <g id="text_4">
      <!-- 150 -->
      <g transform="translate(255.508424 251.665625)scale(0.14 -0.14)">
       <use xlink:href="#LiberationSansNarrow-49"/>
       <use x="45.605469" xlink:href="#LiberationSansNarrow-53"/>
       <use x="91.210938" xlink:href="#LiberationSansNarrow-48"/>
      </g>
     </g>
    </g>
    <g id="xtick_5">
     <g id="line2d_5">
      <path clip-path="url(#pee1061426d)" d="M 330.253524 234.52 
L 330.253524 15.12 
" style="fill:none;stroke:#b0b0b0;stroke-dasharray:1.48,0.64;stroke-dashoffset:0;stroke-width:0.4;"/>
     </g>
     <g id="text_5">
      <!-- 200 -->
      <g transform="translate(320.675555 251.665625)scale(0.14 -0.14)">
       <defs>
        <path d="M 4.109375 0 
L 4.109375 6.203125 
Q 6.15625 11.921875 9.109375 16.28125 
Q 12.0625 20.65625 15.3125 24.1875 
Q 18.5625 27.734375 21.734375 30.765625 
Q 24.90625 33.796875 27.46875 36.8125 
Q 30.03125 39.84375 31.609375 43.15625 
Q 33.203125 46.484375 33.203125 50.6875 
Q 33.203125 53.609375 32.46875 55.828125 
Q 31.734375 58.0625 30.390625 59.5625 
Q 29.046875 61.078125 27.140625 61.828125 
Q 25.25 62.59375 22.90625 62.59375 
Q 20.75 62.59375 18.84375 61.859375 
Q 16.9375 61.140625 15.453125 59.671875 
Q 13.96875 58.203125 13.03125 56.03125 
Q 12.109375 53.859375 11.8125 50.984375 
L 4.4375 51.8125 
Q 4.78125 55.515625 6.125 58.78125 
Q 7.46875 62.0625 9.78125 64.53125 
Q 12.109375 67 15.359375 68.40625 
Q 18.609375 69.828125 22.90625 69.828125 
Q 27.09375 69.828125 30.390625 68.609375 
Q 33.6875 67.390625 35.9375 64.984375 
Q 38.1875 62.59375 39.40625 59.078125 
Q 40.625 55.5625 40.625 50.984375 
Q 40.625 47.515625 39.59375 44.390625 
Q 38.578125 41.265625 36.859375 38.421875 
Q 35.15625 35.59375 32.90625 32.953125 
Q 30.671875 30.328125 28.21875 27.828125 
L 23.296875 22.859375 
Q 20.796875 20.359375 18.625 17.859375 
Q 16.453125 15.375 14.734375 12.8125 
Q 13.03125 10.25 12.0625 7.46875 
L 41.5 7.46875 
L 41.5 0 
z
" id="LiberationSansNarrow-50"/>
       </defs>
       <use xlink:href="#LiberationSansNarrow-50"/>
       <use x="45.605469" xlink:href="#LiberationSansNarrow-48"/>
       <use x="91.210938" xlink:href="#LiberationSansNarrow-48"/>
      </g>
     </g>
    </g>
    <g id="xtick_6">
     <g id="line2d_6">
      <path clip-path="url(#pee1061426d)" d="M 395.420655 234.52 
L 395.420655 15.12 
" style="fill:none;stroke:#b0b0b0;stroke-dasharray:1.48,0.64;stroke-dashoffset:0;stroke-width:0.4;"/>
     </g>
     <g id="text_6">
      <!-- 250 -->
      <g transform="translate(385.842686 251.665625)scale(0.14 -0.14)">
       <use xlink:href="#LiberationSansNarrow-50"/>
       <use x="45.605469" xlink:href="#LiberationSansNarrow-53"/>
       <use x="91.210938" xlink:href="#LiberationSansNarrow-48"/>
      </g>
     </g>
    </g>
    <g id="xtick_7">
     <g id="line2d_7">
      <path clip-path="url(#pee1061426d)" d="M 460.587786 234.52 
L 460.587786 15.12 
" style="fill:none;stroke:#b0b0b0;stroke-dasharray:1.48,0.64;stroke-dashoffset:0;stroke-width:0.4;"/>
     </g>
     <g id="text_7">
      <!-- 300 -->
      <g transform="translate(451.009817 251.665625)scale(0.14 -0.14)">
       <defs>
        <path d="M 42 19 
Q 42 14.265625 40.75 10.546875 
Q 39.5 6.84375 37.0625 4.265625 
Q 34.625 1.703125 31.046875 0.359375 
Q 27.484375 -0.984375 22.859375 -0.984375 
Q 17.625 -0.984375 14.03125 0.609375 
Q 10.453125 2.203125 8.125 4.8125 
Q 5.8125 7.421875 4.640625 10.765625 
Q 3.46875 14.109375 3.125 17.671875 
L 10.546875 18.5 
Q 10.890625 15.765625 11.734375 13.515625 
Q 12.59375 11.28125 14.078125 9.671875 
Q 15.578125 8.0625 17.75 7.171875 
Q 19.921875 6.296875 22.859375 6.296875 
Q 28.328125 6.296875 31.421875 9.5625 
Q 34.515625 12.84375 34.515625 19.28125 
Q 34.515625 23.09375 33.125 25.40625 
Q 31.734375 27.734375 29.6875 29.03125 
Q 27.640625 30.328125 25.21875 30.765625 
Q 22.796875 31.203125 20.75 31.203125 
L 16.65625 31.203125 
L 16.65625 38.8125 
L 20.5625 38.8125 
Q 22.609375 38.8125 24.828125 39.328125 
Q 27.046875 39.84375 28.859375 41.1875 
Q 30.671875 42.53125 31.859375 44.828125 
Q 33.0625 47.125 33.0625 50.6875 
Q 33.0625 56.203125 30.375 59.390625 
Q 27.6875 62.59375 22.46875 62.59375 
Q 17.671875 62.59375 14.734375 59.609375 
Q 11.8125 56.640625 11.328125 51.21875 
L 4.109375 51.90625 
Q 4.546875 56.453125 6.125 59.8125 
Q 7.71875 63.1875 10.171875 65.40625 
Q 12.640625 67.625 15.8125 68.71875 
Q 19 69.828125 22.5625 69.828125 
Q 27.296875 69.828125 30.6875 68.375 
Q 34.078125 66.9375 36.21875 64.46875 
Q 38.375 62.015625 39.40625 58.6875 
Q 40.4375 55.375 40.4375 51.609375 
Q 40.4375 48.578125 39.75 45.9375 
Q 39.0625 43.3125 37.625 41.203125 
Q 36.1875 39.109375 33.953125 37.59375 
Q 31.734375 36.078125 28.609375 35.296875 
L 28.609375 35.109375 
Q 32.03125 34.671875 34.546875 33.21875 
Q 37.0625 31.78125 38.71875 29.625 
Q 40.375 27.484375 41.1875 24.75 
Q 42 22.015625 42 19 
z
" id="LiberationSansNarrow-51"/>
       </defs>
       <use xlink:href="#LiberationSansNarrow-51"/>
       <use x="45.605469" xlink:href="#LiberationSansNarrow-48"/>
       <use x="91.210938" xlink:href="#LiberationSansNarrow-48"/>
      </g>
     </g>
    </g>
    <g id="xtick_8">
     <g id="line2d_8">
      <path clip-path="url(#pee1061426d)" d="M 525.754916 234.52 
L 525.754916 15.12 
" style="fill:none;stroke:#b0b0b0;stroke-dasharray:1.48,0.64;stroke-dashoffset:0;stroke-width:0.4;"/>
     </g>
     <g id="text_8">
      <!-- 350 -->
      <g transform="translate(516.176948 251.665625)scale(0.14 -0.14)">
       <use xlink:href="#LiberationSansNarrow-51"/>
       <use x="45.605469" xlink:href="#LiberationSansNarrow-53"/>
       <use x="91.210938" xlink:href="#LiberationSansNarrow-48"/>
      </g>
     </g>
    </g>
    <g id="text_9">
     <!-- Месяцы -->
     <g transform="translate(281.943281 268.71625)scale(0.14 -0.14)">
      <defs>
       <path d="M 54.6875 0 
L 54.6875 45.90625 
Q 54.6875 48.390625 54.734375 50.96875 
Q 54.78125 53.5625 54.828125 55.71875 
Q 54.9375 58.203125 55.078125 60.546875 
Q 54.546875 58.0625 53.90625 55.609375 
Q 53.90625 55.609375 52.734375 51.171875 
Q 52.15625 48.78125 51.515625 46.875 
L 36.96875 0 
L 31.59375 0 
L 16.796875 46.875 
Q 16.546875 47.609375 16.3125 48.578125 
L 15.765625 50.6875 
L 15.140625 52.9375 
L 14.546875 55.171875 
Q 13.875 57.765625 13.234375 60.546875 
Q 13.28125 57.8125 13.375 55.125 
Q 13.484375 52.828125 13.5 50.3125 
Q 13.53125 47.796875 13.53125 45.90625 
L 13.53125 0 
L 6.734375 0 
L 6.734375 68.796875 
L 16.796875 68.796875 
L 31.78125 21.09375 
Q 32.078125 20.125 32.46875 18.578125 
Q 32.859375 17.046875 33.21875 15.421875 
Q 33.59375 13.8125 33.890625 12.375 
Q 34.1875 10.9375 34.328125 10.15625 
Q 34.421875 10.9375 34.734375 12.40625 
Q 35.0625 13.875 35.5 15.484375 
L 36.328125 18.609375 
Q 36.71875 20.125 37.0625 21.09375 
L 51.765625 68.796875 
L 61.578125 68.796875 
L 61.578125 0 
z
" id="LiberationSansNarrow-1052"/>
       <path d="M 10.6875 24.5625 
Q 10.6875 20.40625 11.5625 16.90625 
Q 12.453125 13.421875 13.90625 10.90625 
Q 15.375 8.40625 17.640625 7 
Q 19.921875 5.609375 23.140625 5.609375 
Q 27.828125 5.609375 30.65625 7.90625 
Q 33.5 10.203125 34.46875 13.71875 
L 40.828125 11.53125 
Q 40.140625 9.328125 38.921875 7.109375 
Q 37.703125 4.890625 35.640625 3.09375 
Q 33.59375 1.3125 30.53125 0.15625 
Q 27.484375 -0.984375 23.140625 -0.984375 
Q 13.53125 -0.984375 8.5 6 
Q 3.46875 12.984375 3.46875 26.765625 
Q 3.46875 34.1875 5 39.328125 
Q 6.546875 44.484375 9.171875 47.703125 
Q 11.8125 50.921875 15.328125 52.359375 
Q 18.84375 53.8125 22.859375 53.8125 
Q 28.328125 53.8125 31.984375 51.65625 
Q 39.0625 47.515625 41.015625 36.8125 
Q 41.9375 31.6875 41.9375 25.734375 
L 41.9375 24.5625 
z
M 34.71875 31.296875 
Q 34.71875 40.140625 31.421875 43.71875 
Q 28.125 47.3125 22.75 47.3125 
Q 18.953125 47.3125 15.328125 44.09375 
Q 10.9375 40.328125 10.6875 31.296875 
z
" id="LiberationSansNarrow-1077"/>
       <path d="M 11.03125 26.65625 
Q 11.03125 22.125 11.5625 18.3125 
Q 12.109375 14.5 13.375 11.734375 
Q 14.65625 8.984375 16.75 7.46875 
Q 18.84375 5.953125 21.96875 5.953125 
Q 25.828125 5.953125 28.390625 8.484375 
Q 30.953125 11.03125 31.546875 16.3125 
L 38.875 15.71875 
Q 38.53125 12.453125 37.296875 9.421875 
Q 36.078125 6.390625 34.03125 4.09375 
Q 31.984375 1.8125 29 0.40625 
Q 26.03125 -0.984375 22.171875 -0.984375 
Q 17.09375 -0.984375 13.5 1.109375 
Q 9.90625 3.21875 7.6875 6.90625 
Q 5.46875 10.59375 4.46875 15.59375 
Q 3.46875 20.609375 3.46875 26.46875 
Q 3.46875 31.78125 4.203125 35.859375 
Q 4.9375 39.9375 6.21875 42.984375 
Q 7.515625 46.046875 9.265625 48.125 
Q 11.03125 50.203125 13.109375 51.4375 
Q 15.1875 52.6875 17.453125 53.25 
Q 19.734375 53.8125 22.078125 53.8125 
Q 25.734375 53.8125 28.5625 52.59375 
Q 31.390625 51.375 33.46875 49.25 
Q 35.546875 47.125 36.8125 44.234375 
Q 38.09375 41.359375 38.625 38.03125 
L 31.203125 37.359375 
Q 30.671875 41.75 28.375 44.328125 
Q 26.078125 46.921875 21.875 46.921875 
Q 18.796875 46.921875 16.71875 45.671875 
Q 14.65625 44.4375 13.375 41.921875 
Q 12.109375 39.40625 11.5625 35.59375 
Q 11.03125 31.78125 11.03125 26.65625 
z
" id="LiberationSansNarrow-1089"/>
       <path d="M 21.4375 22.359375 
L 8.84375 0 
L 0.6875 0 
L 14.453125 23 
Q 9.234375 24.3125 6.859375 28.296875 
Q 4.5 32.28125 4.5 38.234375 
Q 4.5 45.515625 8.8125 49.171875 
Q 13.140625 52.828125 21.4375 52.828125 
L 38.71875 52.828125 
L 38.71875 0 
L 31.546875 0 
L 31.546875 22.359375 
z
M 31.546875 46.625 
L 22.171875 46.625 
Q 16.9375 46.625 14.546875 44.375 
Q 12.15625 42.140625 12.15625 37.59375 
Q 12.15625 33.015625 14.28125 30.734375 
Q 16.40625 28.46875 21.390625 28.46875 
L 31.546875 28.46875 
z
" id="LiberationSansNarrow-1103"/>
       <path d="M 12.890625 52.828125 
L 12.890625 6.390625 
L 31.984375 6.390625 
L 31.984375 52.828125 
L 39.203125 52.828125 
L 39.203125 6.390625 
L 45.0625 6.390625 
L 45.0625 -19.921875 
L 38.578125 -19.921875 
L 38.578125 0 
L 5.671875 0 
L 5.671875 52.828125 
z
" id="LiberationSansNarrow-1094"/>
       <path d="M 22.796875 30.46875 
Q 31.296875 30.46875 35.640625 26.875 
Q 39.984375 23.296875 39.984375 15.53125 
Q 39.984375 11.921875 38.90625 9.03125 
Q 37.84375 6.15625 35.671875 4.15625 
Q 33.5 2.15625 30.296875 1.078125 
Q 27.09375 0 22.859375 0 
L 5.859375 0 
L 5.859375 52.828125 
L 13.328125 52.828125 
L 13.328125 30.46875 
z
M 13.328125 6.203125 
L 21.734375 6.203125 
Q 24.609375 6.203125 26.578125 6.8125 
Q 28.5625 7.421875 29.78125 8.609375 
Q 31 9.8125 31.53125 11.546875 
Q 32.078125 13.28125 32.078125 15.53125 
Q 32.078125 20.125 29.65625 22.234375 
Q 27.25 24.359375 21.734375 24.359375 
L 13.328125 24.359375 
z
M 47.65625 0 
L 47.65625 52.828125 
L 55.125 52.828125 
L 55.125 0 
z
" id="LiberationSansNarrow-1099"/>
      </defs>
      <use xlink:href="#LiberationSansNarrow-1052"/>
      <use x="69.435547" xlink:href="#LiberationSansNarrow-1077"/>
      <use x="115.041016" xlink:href="#LiberationSansNarrow-1089"/>
      <use x="156.056641" xlink:href="#LiberationSansNarrow-1103"/>
      <use x="200.490234" xlink:href="#LiberationSansNarrow-1094"/>
      <use x="247.462891" xlink:href="#LiberationSansNarrow-1099"/>
     </g>
    </g>
   </g>
   <g id="matplotlib.axis_2">
    <g id="ytick_1">
     <g id="line2d_9">
      <path clip-path="url(#pee1061426d)" d="M 46.19 213.120064 
L 560.88 213.120064 
" style="fill:none;stroke:#b0b0b0;stroke-dasharray:1.48,0.64;stroke-dashoffset:0;stroke-width:0.4;"/>
     </g>
     <g id="text_10">
      <!-- 1 -->
      <g transform="translate(32.804688 218.192877)scale(0.14 -0.14)">
       <use xlink:href="#LiberationSansNarrow-49"/>
      </g>
     </g>
    </g>
    <g id="ytick_2">
     <g id="line2d_10">
      <path clip-path="url(#pee1061426d)" d="M 46.19 155.262721 
L 560.88 155.262721 
" style="fill:none;stroke:#b0b0b0;stroke-dasharray:1.48,0.64;stroke-dashoffset:0;stroke-width:0.4;"/>
     </g>
     <g id="text_11">
      <!-- 2 -->
      <g transform="translate(32.804688 160.335534)scale(0.14 -0.14)">
       <use xlink:href="#LiberationSansNarrow-50"/>
      </g>
     </g>
    </g>
    <g id="ytick_3">
     <g id="line2d_11">
      <path clip-path="url(#pee1061426d)" d="M 46.19 97.405378 
L 560.88 97.405378 
" style="fill:none;stroke:#b0b0b0;stroke-dasharray:1.48,0.64;stroke-dashoffset:0;stroke-width:0.4;"/>
     </g>
     <g id="text_12">
      <!-- 4 -->
      <g transform="translate(32.804688 102.478191)scale(0.14 -0.14)">
       <defs>
        <path d="M 35.25 15.578125 
L 35.25 0 
L 28.46875 0 
L 28.46875 15.578125 
L 1.90625 15.578125 
L 1.90625 22.40625 
L 27.6875 68.796875 
L 35.25 68.796875 
L 35.25 22.515625 
L 43.21875 22.515625 
L 43.21875 15.578125 
z
M 28.46875 58.890625 
Q 28.375 58.640625 28.03125 57.90625 
L 27.34375 56.34375 
L 26.5625 54.59375 
Q 26.125 53.65625 25.78125 53.078125 
L 11.328125 27.09375 
Q 11.140625 26.703125 10.75 26.078125 
L 9.96875 24.8125 
L 9.1875 23.484375 
Q 8.796875 22.859375 8.546875 22.515625 
L 28.46875 22.515625 
z
" id="LiberationSansNarrow-52"/>
       </defs>
       <use xlink:href="#LiberationSansNarrow-52"/>
      </g>
     </g>
    </g>
    <g id="ytick_4">
     <g id="line2d_12">
      <path clip-path="url(#pee1061426d)" d="M 46.19 39.548035 
L 560.88 39.548035 
" style="fill:none;stroke:#b0b0b0;stroke-dasharray:1.48,0.64;stroke-dashoffset:0;stroke-width:0.4;"/>
     </g>
     <g id="text_13">
      <!-- 8 -->
      <g transform="translate(32.804688 44.620848)scale(0.14 -0.14)">
       <defs>
        <path d="M 42.046875 19.1875 
Q 42.046875 14.796875 40.890625 11.109375 
Q 39.75 7.421875 37.40625 4.734375 
Q 35.0625 2.046875 31.421875 0.53125 
Q 27.78125 -0.984375 22.796875 -0.984375 
Q 17.828125 -0.984375 14.203125 0.53125 
Q 10.59375 2.046875 8.21875 4.703125 
Q 5.859375 7.375 4.703125 11.0625 
Q 3.5625 14.75 3.5625 19.09375 
Q 3.5625 22.859375 4.515625 25.78125 
Q 5.46875 28.71875 7.03125 30.828125 
Q 8.59375 32.953125 10.609375 34.25 
Q 12.640625 35.546875 14.796875 35.984375 
L 14.796875 36.1875 
Q 12.453125 36.859375 10.59375 38.375 
Q 8.734375 39.890625 7.46875 42.015625 
Q 6.203125 44.140625 5.546875 46.71875 
Q 4.890625 49.3125 4.890625 52.203125 
Q 4.890625 55.8125 6.03125 59 
Q 7.171875 62.203125 9.421875 64.625 
Q 11.671875 67.046875 14.984375 68.4375 
Q 18.3125 69.828125 22.65625 69.828125 
Q 27.25 69.828125 30.640625 68.40625 
Q 34.03125 67 36.25 64.578125 
Q 38.484375 62.15625 39.546875 58.9375 
Q 40.625 55.71875 40.625 52.09375 
Q 40.625 49.265625 39.96875 46.671875 
Q 39.3125 44.09375 38.0625 41.96875 
Q 36.8125 39.84375 34.9375 38.34375 
Q 33.0625 36.859375 30.609375 36.28125 
L 30.609375 36.078125 
Q 33.0625 35.59375 35.15625 34.296875 
Q 37.25 33.015625 38.765625 30.890625 
Q 40.28125 28.765625 41.15625 25.828125 
Q 42.046875 22.90625 42.046875 19.1875 
z
M 33.15625 51.609375 
Q 33.15625 54.203125 32.609375 56.34375 
Q 32.078125 58.5 30.828125 60.03125 
Q 29.59375 61.578125 27.59375 62.421875 
Q 25.59375 63.28125 22.65625 63.28125 
Q 19.828125 63.28125 17.875 62.421875 
Q 15.921875 61.578125 14.640625 60.03125 
Q 13.375 58.5 12.8125 56.34375 
Q 12.25 54.203125 12.25 51.609375 
Q 12.25 49.5625 12.6875 47.40625 
Q 13.140625 45.265625 14.3125 43.5 
Q 15.484375 41.75 17.5 40.625 
Q 19.53125 39.5 22.75 39.5 
Q 26.171875 39.5 28.21875 40.625 
Q 30.28125 41.75 31.375 43.5 
Q 32.46875 45.265625 32.8125 47.40625 
Q 33.15625 49.5625 33.15625 51.609375 
z
M 34.578125 20.015625 
Q 34.578125 22.515625 34.015625 24.828125 
Q 33.453125 27.15625 32.078125 28.9375 
Q 30.71875 30.71875 28.421875 31.8125 
Q 26.125 32.90625 22.65625 32.90625 
Q 19.484375 32.90625 17.265625 31.8125 
Q 15.046875 30.71875 13.671875 28.90625 
Q 12.3125 27.09375 11.671875 24.71875 
Q 11.03125 22.359375 11.03125 19.828125 
Q 11.03125 16.65625 11.671875 14.03125 
Q 12.3125 11.421875 13.703125 9.546875 
Q 15.09375 7.671875 17.375 6.640625 
Q 19.671875 5.609375 22.90625 5.609375 
Q 26.171875 5.609375 28.421875 6.640625 
Q 30.671875 7.671875 32.03125 9.546875 
Q 33.40625 11.421875 33.984375 14.078125 
Q 34.578125 16.75 34.578125 20.015625 
z
" id="LiberationSansNarrow-56"/>
       </defs>
       <use xlink:href="#LiberationSansNarrow-56"/>
      </g>
     </g>
    </g>
    <g id="text_14">
     <!-- Размер портфеля -->
     <g transform="translate(25.899688 172.185938)rotate(-90)scale(0.14 -0.14)">
      <defs>
       <path d="M 50.34375 48.09375 
Q 50.34375 43.609375 49.125 39.71875 
Q 47.90625 35.84375 45.484375 32.984375 
Q 43.0625 30.125 39.421875 28.46875 
Q 35.796875 26.8125 30.953125 26.8125 
L 14.359375 26.8125 
L 14.359375 0 
L 6.734375 0 
L 6.734375 68.796875 
L 30.46875 68.796875 
Q 35.453125 68.796875 39.1875 67.3125 
Q 42.921875 65.828125 45.40625 63.109375 
Q 47.90625 60.40625 49.125 56.5625 
Q 50.34375 52.734375 50.34375 48.09375 
z
M 42.671875 48 
Q 42.671875 54.546875 39.40625 57.9375 
Q 36.140625 61.328125 29.546875 61.328125 
L 14.359375 61.328125 
L 14.359375 34.1875 
L 29.890625 34.1875 
Q 36.46875 34.1875 39.5625 37.75 
Q 42.671875 41.3125 42.671875 48 
z
" id="LiberationSansNarrow-1056"/>
       <path d="M 16.546875 -0.984375 
Q 10.015625 -0.984375 6.734375 3.21875 
Q 3.46875 7.421875 3.46875 14.75 
Q 3.46875 19.96875 5.09375 23.3125 
Q 6.734375 26.65625 9.34375 28.5625 
Q 11.96875 30.46875 15.328125 31.203125 
Q 18.703125 31.9375 22.171875 32.03125 
L 31.9375 32.234375 
L 31.9375 35.109375 
Q 31.9375 38.375 31.375 40.671875 
Q 30.8125 42.96875 29.640625 44.375 
Q 28.46875 45.796875 26.734375 46.453125 
Q 25 47.125 22.609375 47.125 
Q 20.515625 47.125 18.84375 46.75 
Q 17.1875 46.390625 15.9375 45.4375 
Q 14.703125 44.484375 13.9375 42.84375 
Q 13.1875 41.21875 12.9375 38.71875 
L 5.421875 39.546875 
Q 5.8125 42.671875 6.9375 45.28125 
Q 8.0625 47.90625 10.109375 49.796875 
Q 12.15625 51.703125 15.25 52.75 
Q 18.359375 53.8125 22.796875 53.8125 
Q 30.953125 53.8125 35.078125 49.234375 
Q 39.203125 44.671875 39.203125 36.03125 
L 39.203125 13.28125 
Q 39.203125 9.375 40.03125 7.390625 
Q 40.875 5.421875 43.265625 5.421875 
Q 43.84375 5.421875 44.453125 5.515625 
Q 45.0625 5.609375 45.609375 5.765625 
L 45.609375 0.296875 
Q 44.234375 -0.09375 42.890625 -0.28125 
Q 41.546875 -0.484375 40.046875 -0.484375 
Q 37.984375 -0.484375 36.515625 0.171875 
Q 35.0625 0.828125 34.15625 2.171875 
Q 33.25 3.515625 32.765625 5.484375 
Q 32.28125 7.46875 32.125 10.109375 
L 31.9375 10.109375 
Q 30.765625 7.5625 29.375 5.515625 
Q 27.984375 3.46875 26.140625 2.03125 
Q 24.3125 0.59375 21.9375 -0.1875 
Q 19.578125 -0.984375 16.546875 -0.984375 
z
M 18.21875 5.609375 
Q 21.6875 5.609375 24.25 7.140625 
Q 26.8125 8.6875 28.515625 11.078125 
Q 30.21875 13.484375 31.078125 16.3125 
Q 31.9375 19.140625 31.9375 21.734375 
L 31.9375 26.078125 
L 24.03125 25.875 
Q 21.390625 25.828125 19 25.40625 
Q 16.609375 25 14.8125 23.78125 
Q 13.03125 22.5625 11.953125 20.359375 
Q 10.890625 18.171875 10.890625 14.59375 
Q 10.890625 10.296875 12.796875 7.953125 
Q 14.703125 5.609375 18.21875 5.609375 
z
" id="LiberationSansNarrow-1072"/>
       <path d="M 18.3125 -0.984375 
Q 11.625 -0.984375 7.6875 2.0625 
Q 3.765625 5.125 1.953125 11.421875 
L 8.296875 13.578125 
Q 9.28125 9.765625 11.8125 7.65625 
Q 14.359375 5.5625 18.453125 5.5625 
Q 22.3125 5.5625 24.578125 7.859375 
Q 26.859375 10.15625 26.859375 14.59375 
Q 26.859375 17.484375 25.734375 19.390625 
Q 24.609375 21.296875 22.78125 22.390625 
Q 20.953125 23.484375 18.546875 23.921875 
Q 16.15625 24.359375 13.578125 24.359375 
L 13.578125 31.0625 
Q 16.109375 31.0625 18.40625 31.421875 
Q 20.703125 31.78125 22.4375 32.703125 
Q 24.171875 33.640625 25.140625 35.28125 
Q 26.125 36.921875 26.125 39.453125 
Q 26.125 43.0625 24.140625 45.15625 
Q 22.171875 47.265625 18.453125 47.265625 
Q 17.046875 47.265625 15.65625 46.921875 
Q 14.265625 46.578125 13.03125 45.765625 
Q 11.8125 44.96875 10.984375 43.625 
Q 10.15625 42.28125 9.859375 40.234375 
L 3.421875 41.21875 
Q 3.90625 44.53125 5.125 46.921875 
Q 6.34375 49.3125 8.296875 50.84375 
Q 10.25 52.390625 12.78125 53.09375 
Q 15.328125 53.8125 18.453125 53.8125 
Q 21.875 53.8125 24.625 52.78125 
Q 27.390625 51.765625 29.34375 49.90625 
Q 31.296875 48.046875 32.375 45.5 
Q 33.453125 42.96875 33.453125 39.890625 
Q 33.453125 37.109375 32.5625 34.953125 
Q 31.6875 32.8125 30.25 31.3125 
Q 28.8125 29.828125 27.046875 28.953125 
Q 25.296875 28.078125 23.53125 27.875 
L 23.53125 27.78125 
Q 25.78125 27.484375 27.75 26.484375 
Q 29.734375 25.484375 31.25 23.84375 
Q 32.765625 22.21875 33.609375 19.9375 
Q 34.46875 17.671875 34.46875 14.84375 
Q 34.46875 11.46875 33.484375 8.5625 
Q 32.515625 5.671875 30.484375 3.546875 
Q 28.46875 1.421875 25.4375 0.21875 
Q 22.40625 -0.984375 18.3125 -0.984375 
z
" id="LiberationSansNarrow-1079"/>
       <path d="M 31.546875 0 
L 25.390625 0 
L 12.40625 46.4375 
Q 12.453125 45.171875 12.515625 43.703125 
Q 12.59375 42.234375 12.59375 40.75 
Q 12.59375 39.265625 12.609375 37.859375 
Q 12.640625 36.46875 12.640625 35.359375 
L 12.640625 0 
L 5.671875 0 
L 5.671875 52.828125 
L 16.890625 52.828125 
L 25.734375 20.5625 
Q 26.65625 17.484375 27.390625 13.796875 
Q 28.125 10.109375 28.421875 6.59375 
Q 28.8125 10.109375 29.515625 13.796875 
Q 30.21875 17.484375 31.15625 20.5625 
L 39.984375 52.828125 
L 50.734375 52.828125 
L 50.734375 0 
L 43.796875 0 
L 43.796875 35.359375 
Q 43.796875 36.421875 43.8125 37.890625 
Q 43.84375 39.359375 43.921875 40.921875 
Q 44 42.484375 44.015625 43.9375 
Q 44.046875 45.40625 44.140625 46.53125 
z
" id="LiberationSansNarrow-1084"/>
       <path d="M 42.140625 26.65625 
Q 42.140625 20.65625 41.359375 15.578125 
Q 40.578125 10.5 38.6875 6.828125 
Q 36.8125 3.171875 33.765625 1.09375 
Q 30.71875 -0.984375 26.21875 -0.984375 
Q 21.578125 -0.984375 18.078125 1.171875 
Q 14.59375 3.328125 12.796875 8.203125 
L 12.546875 8.203125 
Q 12.59375 8.109375 12.609375 7.328125 
Q 12.640625 6.546875 12.671875 5.375 
Q 12.703125 4.203125 12.71875 2.75 
Q 12.75 1.3125 12.75 -0.09375 
L 12.75 -20.75 
L 5.515625 -20.75 
L 5.515625 42.046875 
Q 5.515625 43.953125 5.484375 45.703125 
Q 5.46875 47.46875 5.4375 48.90625 
Q 5.421875 50.34375 5.375 51.359375 
Q 5.328125 52.390625 5.28125 52.828125 
L 12.25 52.828125 
Q 12.3125 52.6875 12.359375 51.8125 
L 12.5 49.703125 
Q 12.546875 48.4375 12.59375 47.015625 
Q 12.640625 45.609375 12.640625 44.34375 
L 12.796875 44.34375 
Q 13.765625 46.875 15.0625 48.65625 
Q 16.359375 50.4375 18.015625 51.578125 
Q 19.671875 52.734375 21.671875 53.25 
Q 23.6875 53.765625 26.21875 53.765625 
Q 30.71875 53.765625 33.765625 51.8125 
Q 36.8125 49.859375 38.6875 46.3125 
Q 40.578125 42.78125 41.359375 37.765625 
Q 42.140625 32.765625 42.140625 26.65625 
z
M 34.578125 26.46875 
Q 34.578125 31.34375 34.109375 35.15625 
Q 33.640625 38.96875 32.4375 41.59375 
Q 31.25 44.234375 29.296875 45.59375 
Q 27.34375 46.96875 24.359375 46.96875 
Q 21.96875 46.96875 19.84375 46.140625 
Q 17.71875 45.3125 16.125 42.96875 
Q 14.546875 40.625 13.640625 36.5 
Q 12.75 32.375 12.75 25.78125 
Q 12.75 20.171875 13.5 16.28125 
Q 14.265625 12.40625 15.71875 10.015625 
Q 17.1875 7.625 19.328125 6.5625 
Q 21.484375 5.515625 24.3125 5.515625 
Q 27.34375 5.515625 29.296875 6.921875 
Q 31.25 8.34375 32.4375 11.03125 
Q 33.640625 13.71875 34.109375 17.59375 
Q 34.578125 21.484375 34.578125 26.46875 
z
" id="LiberationSansNarrow-1088"/>
       <path id="LiberationSansNarrow-32"/>
       <path d="M 38.71875 52.828125 
L 38.71875 0 
L 31.546875 0 
L 31.546875 46.4375 
L 12.890625 46.4375 
L 12.890625 0 
L 5.71875 0 
L 5.71875 52.828125 
z
" id="LiberationSansNarrow-1087"/>
       <path d="M 42.140625 26.46875 
Q 42.140625 12.59375 37.125 5.796875 
Q 32.125 -0.984375 22.609375 -0.984375 
Q 18.0625 -0.984375 14.515625 0.671875 
Q 10.984375 2.34375 8.515625 5.765625 
Q 6.0625 9.1875 4.765625 14.328125 
Q 3.46875 19.484375 3.46875 26.46875 
Q 3.46875 53.8125 22.859375 53.8125 
Q 27.875 53.8125 31.5625 52.09375 
Q 35.25 50.390625 37.59375 46.96875 
Q 39.9375 43.5625 41.03125 38.421875 
Q 42.140625 33.296875 42.140625 26.46875 
z
M 34.578125 26.46875 
Q 34.578125 32.625 33.8125 36.625 
Q 33.0625 40.625 31.546875 43.015625 
Q 30.03125 45.40625 27.859375 46.359375 
Q 25.6875 47.3125 23 47.3125 
Q 20.21875 47.3125 17.984375 46.3125 
Q 15.765625 45.3125 14.203125 42.890625 
Q 12.640625 40.484375 11.828125 36.46875 
Q 11.03125 32.46875 11.03125 26.46875 
Q 11.03125 20.3125 11.90625 16.28125 
Q 12.796875 12.25 14.328125 9.859375 
Q 15.875 7.46875 17.96875 6.484375 
Q 20.0625 5.515625 22.5625 5.515625 
Q 25.34375 5.515625 27.5625 6.46875 
Q 29.78125 7.421875 31.34375 9.8125 
Q 32.90625 12.203125 33.734375 16.25 
Q 34.578125 20.3125 34.578125 26.46875 
z
" id="LiberationSansNarrow-1086"/>
       <path d="M 1.421875 52.828125 
L 36.140625 52.828125 
L 36.140625 46.4375 
L 22.359375 46.4375 
L 22.359375 0 
L 15.1875 0 
L 15.1875 46.4375 
L 1.421875 46.4375 
z
" id="LiberationSansNarrow-1090"/>
       <path d="M 64.015625 26.65625 
Q 64.015625 20.65625 63.234375 15.578125 
Q 62.453125 10.5 60.734375 6.828125 
Q 59.03125 3.171875 56.21875 1.09375 
Q 53.421875 -0.984375 49.359375 -0.984375 
Q 45.171875 -0.984375 42.015625 1.171875 
Q 38.875 3.328125 37.15625 8.203125 
L 36.921875 8.203125 
Q 37.015625 6.5 37.0625 4.609375 
Q 37.109375 2.734375 37.109375 -0.09375 
L 37.109375 -20.75 
L 30.328125 -20.75 
L 30.328125 -0.09375 
Q 30.328125 2.546875 30.375 4.546875 
Q 30.421875 6.546875 30.515625 8.5 
L 30.328125 8.5 
Q 28.46875 3.421875 25.484375 1.21875 
Q 22.515625 -0.984375 18.0625 -0.984375 
Q 10.59375 -0.984375 7.03125 5.734375 
Q 3.46875 12.453125 3.46875 26.171875 
Q 3.46875 40.046875 7.15625 46.921875 
Q 10.84375 53.8125 18.0625 53.8125 
Q 22.5625 53.8125 25.53125 51.609375 
Q 28.515625 49.421875 30.328125 44.625 
L 30.515625 44.625 
Q 30.515625 45.125 30.46875 46.125 
Q 30.421875 47.125 30.375 48.25 
L 30.375 50.390625 
Q 30.328125 51.421875 30.328125 52 
L 30.328125 72.46875 
L 37.109375 72.46875 
L 37.109375 51.953125 
Q 37.109375 51.421875 37.078125 50.359375 
Q 37.0625 49.3125 37.0625 48.15625 
Q 37.0625 47.015625 37.03125 45.96875 
Q 37.015625 44.921875 37.015625 44.34375 
L 37.203125 44.34375 
Q 39.0625 49.421875 41.9375 51.59375 
Q 44.828125 53.765625 49.359375 53.765625 
Q 53.421875 53.765625 56.21875 51.8125 
Q 59.03125 49.859375 60.734375 46.3125 
Q 62.453125 42.78125 63.234375 37.765625 
Q 64.015625 32.765625 64.015625 26.65625 
z
M 11.03125 26.46875 
Q 11.03125 21 11.546875 17.09375 
Q 12.0625 13.1875 13.1875 10.671875 
Q 14.3125 8.15625 16.015625 6.984375 
Q 17.71875 5.8125 20.125 5.8125 
Q 22.515625 5.8125 24.390625 6.859375 
Q 26.265625 7.90625 27.5625 10.296875 
Q 28.859375 12.703125 29.53125 16.53125 
Q 30.21875 20.359375 30.328125 25.875 
L 30.328125 27.046875 
Q 30.328125 32.671875 29.640625 36.546875 
Q 28.953125 40.4375 27.65625 42.828125 
Q 26.375 45.21875 24.484375 46.265625 
Q 22.609375 47.3125 20.171875 47.3125 
Q 17.875 47.3125 16.15625 46.1875 
Q 14.453125 45.0625 13.296875 42.578125 
Q 12.15625 40.09375 11.59375 36.109375 
Q 11.03125 32.125 11.03125 26.46875 
z
M 56.453125 26.46875 
Q 56.453125 31.34375 55.984375 35.15625 
Q 55.515625 38.96875 54.46875 41.59375 
Q 53.421875 44.234375 51.65625 45.59375 
Q 49.90625 46.96875 47.3125 46.96875 
Q 45.21875 46.96875 43.375 46.140625 
Q 41.546875 45.3125 40.125 42.96875 
Q 38.71875 40.625 37.90625 36.5 
Q 37.109375 32.375 37.109375 25.78125 
L 37.109375 24.65625 
Q 37.15625 19.390625 37.859375 15.71875 
Q 38.578125 12.0625 39.859375 9.78125 
Q 41.15625 7.515625 43.015625 6.515625 
Q 44.875 5.515625 47.265625 5.515625 
Q 49.859375 5.515625 51.609375 6.921875 
Q 53.375 8.34375 54.4375 11.03125 
Q 55.515625 13.71875 55.984375 17.59375 
Q 56.453125 21.484375 56.453125 26.46875 
z
" id="LiberationSansNarrow-1092"/>
       <path d="M 34.859375 0 
L 34.859375 46.4375 
L 19.875 46.4375 
Q 18.890625 37.453125 18.03125 30.4375 
Q 17.1875 23.4375 16.3125 18.15625 
Q 15.4375 12.890625 14.40625 9.25 
Q 13.375 5.609375 11.953125 3.34375 
Q 10.546875 1.078125 8.65625 0.046875 
Q 6.78125 -0.984375 4.203125 -0.984375 
Q 3.03125 -0.984375 2.078125 -0.78125 
Q 1.125 -0.59375 0.4375 -0.34375 
L 0.4375 5.953125 
Q 0.875 5.765625 1.625 5.640625 
Q 2.390625 5.515625 3.171875 5.515625 
Q 4.59375 5.515625 5.59375 6.53125 
Q 6.59375 7.5625 7.390625 9.859375 
Q 8.203125 12.15625 8.859375 15.796875 
Q 9.515625 19.4375 10.203125 24.703125 
Q 10.890625 29.984375 11.625 36.921875 
L 13.375 52.828125 
L 42.140625 52.828125 
L 42.140625 0 
z
" id="LiberationSansNarrow-1083"/>
      </defs>
      <use xlink:href="#LiberationSansNarrow-1056"/>
      <use x="51.3125" xlink:href="#LiberationSansNarrow-1072"/>
      <use x="95.792969" xlink:href="#LiberationSansNarrow-1079"/>
      <use x="133.341797" xlink:href="#LiberationSansNarrow-1084"/>
      <use x="189.738281" xlink:href="#LiberationSansNarrow-1077"/>
      <use x="235.34375" xlink:href="#LiberationSansNarrow-1088"/>
      <use x="280.949219" xlink:href="#LiberationSansNarrow-32"/>
      <use x="303.751953" xlink:href="#LiberationSansNarrow-1087"/>
      <use x="348.185547" xlink:href="#LiberationSansNarrow-1086"/>
      <use x="393.791016" xlink:href="#LiberationSansNarrow-1088"/>
      <use x="437.146484" xlink:href="#LiberationSansNarrow-1090"/>
      <use x="474.695312" xlink:href="#LiberationSansNarrow-1092"/>
      <use x="542.175781" xlink:href="#LiberationSansNarrow-1077"/>
      <use x="584.40625" xlink:href="#LiberationSansNarrow-1083"/>
      <use x="632.208984" xlink:href="#LiberationSansNarrow-1103"/>
     </g>
    </g>
   </g>
   <g id="line2d_13">
    <path clip-path="url(#pee1061426d)" d="M 69.585 217.97753 
L 70.888343 221.620906 
L 72.191685 218.924384 
L 73.495028 217.30389 
L 74.79837 221.260479 
L 76.101713 222.087984 
L 77.405056 218.157045 
L 78.708398 212.813625 
L 80.011741 210.814559 
L 81.315084 212.57475 
L 82.618426 213.892076 
L 83.921769 215.965769 
L 86.528454 218.101478 
L 87.831797 216.243268 
L 89.135139 216.560783 
L 90.438482 217.305582 
L 91.741825 212.486786 
L 93.045167 209.464317 
L 94.34851 208.121532 
L 95.651852 209.619646 
L 96.955195 208.46601 
L 98.258538 208.295942 
L 99.56188 213.487306 
L 100.865223 212.463388 
L 102.168565 208.062927 
L 103.471908 208.868553 
L 104.775251 212.802978 
L 106.078593 212.346441 
L 107.381936 209.820227 
L 108.685279 206.588074 
L 109.988621 203.706849 
L 111.291964 204.863567 
L 112.595306 204.040892 
L 113.898649 198.253728 
L 115.201992 195.201647 
L 117.808677 200.570204 
L 119.112019 201.219892 
L 120.415362 201.17942 
L 121.718705 203.747087 
L 123.022047 203.681901 
L 124.32539 202.409466 
L 125.628733 200.795197 
L 126.932075 195.03357 
L 129.53876 199.182279 
L 130.842103 199.533394 
L 132.145446 203.231649 
L 133.448788 197.844021 
L 134.752131 190.730343 
L 136.055474 189.527762 
L 137.358816 191.038636 
L 138.662159 195.612231 
L 139.965501 200.596174 
L 141.268844 201.701506 
L 142.572187 201.01545 
L 143.875529 204.044045 
L 145.178872 201.857856 
L 146.482214 199.047884 
L 147.785557 199.148393 
L 149.0889 201.320892 
L 150.392242 207.509403 
L 151.695585 209.589552 
L 152.998928 214.064144 
L 154.30227 215.039048 
L 155.605613 211.082922 
L 156.908955 207.7494 
L 158.212298 205.516446 
L 162.122326 214.77549 
L 163.425669 221.661682 
L 164.729011 223.937462 
L 166.032354 221.336991 
L 168.639039 220.919869 
L 169.942382 221.675322 
L 171.245724 219.369867 
L 172.549067 215.205571 
L 175.155752 207.825357 
L 176.459095 205.484079 
L 177.762437 203.775258 
L 179.06578 208.324618 
L 180.369123 212.346213 
L 181.672465 213.587148 
L 182.975808 215.750872 
L 185.582493 215.252612 
L 186.885836 215.801061 
L 188.189178 215.228424 
L 189.492521 212.040334 
L 190.795864 213.318368 
L 192.099206 219.042227 
L 193.402549 222.021277 
L 194.705891 222.760455 
L 196.009234 219.714225 
L 197.312577 213.616976 
L 199.919262 195.39589 
L 201.222604 192.809145 
L 202.525947 195.216001 
L 203.82929 193.081742 
L 205.132632 190.522762 
L 206.435975 194.244788 
L 207.739318 194.257458 
L 209.04266 198.107897 
L 210.346003 206.268404 
L 211.649345 208.196549 
L 212.952688 207.917515 
L 214.256031 204.389979 
L 215.559373 199.124759 
L 216.862716 198.146468 
L 218.166058 199.541456 
L 219.469401 197.151305 
L 220.772744 193.200328 
L 222.076086 191.364403 
L 223.379429 192.023548 
L 224.682772 194.547084 
L 225.986114 195.167003 
L 227.289457 193.243053 
L 228.592799 193.376409 
L 229.896142 194.593724 
L 231.199485 199.622224 
L 232.502827 205.757976 
L 233.80617 203.503751 
L 235.109513 202.590593 
L 236.412855 204.82361 
L 237.716198 204.385014 
L 239.01954 202.200674 
L 240.322883 195.446356 
L 241.626226 192.416966 
L 242.929568 190.33832 
L 244.232911 181.94642 
L 245.536253 168.918162 
L 246.839596 163.785248 
L 248.142939 166.71301 
L 249.446281 168.408857 
L 250.749624 172.171084 
L 252.052967 177.366328 
L 253.356309 184.362564 
L 254.659652 186.558957 
L 255.962994 187.864736 
L 257.266337 188.072391 
L 258.56968 185.12579 
L 259.873022 181.435964 
L 262.479708 172.773815 
L 266.389735 165.154857 
L 267.693078 165.546579 
L 268.996421 162.409657 
L 270.299763 160.356887 
L 271.603106 161.082113 
L 272.906448 158.042569 
L 274.209791 153.945601 
L 275.513134 152.918618 
L 276.816476 147.516831 
L 278.119819 138.922361 
L 280.726504 134.143825 
L 283.333189 128.777717 
L 284.636532 123.768576 
L 285.939875 122.192612 
L 287.243217 126.303278 
L 288.54656 129.14741 
L 289.849903 130.399753 
L 291.153245 134.254798 
L 292.456588 139.06036 
L 293.75993 142.881247 
L 295.063273 147.387115 
L 296.366616 147.717617 
L 297.669958 143.69245 
L 298.973301 143.169058 
L 300.276643 144.397146 
L 301.579986 144.448114 
L 302.883329 147.812533 
L 304.186671 150.377083 
L 305.490014 151.713772 
L 306.793357 152.883953 
L 308.096699 154.426244 
L 309.400042 154.97287 
L 310.703384 147.359311 
L 313.31007 138.614758 
L 314.613412 131.01152 
L 315.916755 125.819787 
L 317.220097 113.337284 
L 318.52344 103.256678 
L 319.826783 99.493439 
L 321.130125 96.14162 
L 322.433468 97.964102 
L 323.736811 101.384481 
L 325.040153 103.594794 
L 326.343496 99.526897 
L 327.646838 98.230219 
L 328.950181 100.884778 
L 330.253524 100.28223 
L 331.556866 103.981321 
L 332.860209 105.70082 
L 334.163552 103.01059 
L 335.466894 101.599796 
L 336.770237 100.910758 
L 338.073579 103.456083 
L 339.376922 110.14439 
L 340.680265 114.994683 
L 341.983607 115.770092 
L 343.28695 112.933278 
L 344.590292 106.160464 
L 345.893635 101.74337 
L 347.196978 99.830335 
L 348.50032 101.723249 
L 349.803663 106.968247 
L 351.107006 111.19446 
L 352.410348 117.920806 
L 353.713691 123.006797 
L 355.017033 123.645702 
L 356.320376 120.123089 
L 357.623719 117.136909 
L 358.927061 119.089055 
L 360.230404 119.113819 
L 361.533747 113.944069 
L 362.837089 112.312996 
L 364.140432 111.856027 
L 365.443774 108.280402 
L 366.747117 108.178612 
L 368.05046 106.712201 
L 369.353802 102.400347 
L 370.657145 102.471816 
L 371.960487 106.969596 
L 373.26383 109.265381 
L 374.567173 108.176102 
L 375.870515 103.652364 
L 377.173858 102.252594 
L 378.477201 102.576458 
L 379.780543 92.417984 
L 381.083886 84.20806 
L 382.387228 84.686525 
L 383.690571 83.183162 
L 384.993914 81.162979 
L 386.297256 82.806939 
L 387.600599 82.442727 
L 388.903942 83.680836 
L 390.207284 84.048199 
L 391.510627 75.697417 
L 392.813969 73.291421 
L 394.117312 73.708828 
L 395.420655 71.239207 
L 396.723997 70.472847 
L 398.02734 73.476062 
L 399.330682 78.237883 
L 400.634025 77.260754 
L 401.937368 75.07996 
L 403.24071 75.625028 
L 405.847396 74.86901 
L 407.150738 79.578526 
L 408.454081 81.419526 
L 409.757423 73.650942 
L 411.060766 68.75176 
L 412.364109 70.152818 
L 413.667451 74.077642 
L 414.970794 71.190817 
L 416.274136 61.593799 
L 417.577479 56.463498 
L 418.880822 56.882502 
L 420.184164 60.174178 
L 421.487507 63.807517 
L 422.79085 67.974152 
L 424.094192 70.887737 
L 425.397535 70.082545 
L 426.700877 63.227869 
L 428.00422 55.240058 
L 429.307563 54.99359 
L 430.610905 56.230442 
L 431.914248 56.726848 
L 433.217591 59.274473 
L 434.520933 56.440175 
L 435.824276 51.259701 
L 437.127618 55.082398 
L 438.430961 64.738131 
L 439.734304 65.913743 
L 441.037646 62.782138 
L 442.340989 66.046886 
L 443.644331 71.791711 
L 444.947674 71.304073 
L 446.251017 68.990721 
L 447.554359 68.844262 
L 448.857702 63.894981 
L 450.161045 64.576537 
L 451.464387 67.07234 
L 452.76773 67.26987 
L 454.071072 70.794256 
L 455.374415 70.405492 
L 456.677758 71.005481 
L 457.9811 74.194741 
L 459.284443 80.471174 
L 460.587786 82.562257 
L 461.891128 80.076515 
L 463.194471 79.953273 
L 464.497813 76.158834 
L 465.801156 77.206126 
L 467.104499 83.810374 
L 468.407841 84.095958 
L 471.014526 81.356019 
L 472.317869 79.71258 
L 473.621212 76.802851 
L 474.924554 74.622777 
L 476.227897 74.752609 
L 477.53124 75.157219 
L 478.834582 77.650093 
L 480.137925 73.229541 
L 481.441267 69.775843 
L 482.74461 73.191985 
L 484.047953 78.051066 
L 485.351295 79.299261 
L 486.654638 77.04804 
L 487.957981 79.947173 
L 489.261323 81.348575 
L 490.564666 78.375305 
L 491.868008 76.601574 
L 493.171351 80.849271 
L 494.474694 87.013402 
L 495.778036 90.855126 
L 497.081379 91.488808 
L 498.384721 88.763933 
L 499.688064 87.913663 
L 500.991407 86.106846 
L 502.294749 82.760933 
L 503.598092 82.629062 
L 504.901435 86.142849 
L 506.204777 87.154557 
L 507.50812 88.570113 
L 508.811462 92.452481 
L 510.114805 96.764241 
L 511.418148 94.588516 
L 512.72149 90.825038 
L 514.024833 89.897031 
L 515.328175 87.620433 
L 516.631518 84.650403 
L 517.934861 84.082939 
L 519.238203 84.290593 
L 520.541546 78.413707 
L 521.844889 77.498653 
L 523.148231 79.470469 
L 524.451574 78.187996 
L 525.754916 80.667073 
L 527.058259 86.677561 
L 528.361602 88.794485 
L 529.664944 85.705286 
L 530.968287 86.31834 
L 532.27163 88.779192 
L 533.574972 85.569707 
L 534.878315 81.306894 
L 536.181657 84.52738 
L 537.485 90.94388 
L 537.485 90.94388 
" style="fill:none;stroke:#1f77b4;stroke-linecap:square;"/>
   </g>
   <g id="line2d_14">
    <path clip-path="url(#pee1061426d)" d="M 69.585 221.237574 
L 70.888343 224.547273 
L 72.191685 219.800619 
L 73.495028 218.732664 
L 74.79837 222.664579 
L 76.101713 221.109473 
L 77.405056 215.996267 
L 78.708398 209.01708 
L 80.011741 207.677733 
L 81.315084 208.468285 
L 82.618426 208.589096 
L 83.921769 209.847302 
L 85.225111 209.791007 
L 87.831797 208.12253 
L 91.741825 205.731521 
L 93.045167 204.299293 
L 94.34851 202.527204 
L 95.651852 205.571914 
L 96.955195 200.172645 
L 98.258538 202.317858 
L 99.56188 209.520535 
L 100.865223 204.055844 
L 102.168565 197.298102 
L 103.471908 199.407253 
L 104.775251 204.990141 
L 106.078593 201.013714 
L 107.381936 197.455361 
L 108.685279 194.351074 
L 109.988621 192.622478 
L 111.291964 192.52223 
L 112.595306 190.821657 
L 113.898649 183.536636 
L 115.201992 181.288457 
L 117.808677 188.029897 
L 120.415362 186.60595 
L 121.718705 189.071289 
L 123.022047 186.712317 
L 124.32539 185.567502 
L 125.628733 181.856039 
L 126.932075 174.533872 
L 128.235418 182.83069 
L 129.53876 183.178134 
L 130.842103 187.718801 
L 132.145446 191.031273 
L 133.448788 178.45441 
L 134.752131 169.416273 
L 136.055474 167.737938 
L 137.358816 167.8592 
L 138.662159 169.883226 
L 139.965501 171.379279 
L 141.268844 170.802395 
L 142.572187 169.473141 
L 143.875529 173.166143 
L 145.178872 162.923622 
L 146.482214 160.018663 
L 147.785557 159.293576 
L 149.0889 157.510017 
L 150.392242 156.645373 
L 151.695585 156.260487 
L 152.998928 158.395684 
L 154.30227 154.822518 
L 155.605613 149.625576 
L 156.908955 142.78292 
L 158.212298 139.568167 
L 159.515641 140.877405 
L 160.818983 141.116171 
L 162.122326 138.254996 
L 163.425669 133.402032 
L 164.729011 132.430917 
L 166.032354 132.870194 
L 167.335696 131.921345 
L 168.639039 131.496971 
L 169.942382 129.83771 
L 171.245724 134.106147 
L 172.549067 136.34368 
L 173.852409 135.692781 
L 179.06578 132.462852 
L 181.672465 130.797117 
L 182.975808 130.399888 
L 184.27915 128.548521 
L 185.582493 128.489221 
L 186.885836 128.154014 
L 188.189178 126.200725 
L 189.492521 119.027614 
L 190.795864 123.87434 
L 192.099206 129.830322 
L 193.402549 131.136687 
L 194.705891 130.405737 
L 196.009234 129.452859 
L 197.312577 131.285278 
L 198.615919 139.98169 
L 199.919262 145.810586 
L 201.222604 146.259438 
L 206.435975 143.000096 
L 209.04266 141.325618 
L 210.346003 141.68829 
L 211.649345 141.628775 
L 212.952688 140.545482 
L 214.256031 137.404546 
L 215.559373 135.547517 
L 218.166058 133.915679 
L 219.469401 131.301022 
L 220.772744 127.570619 
L 222.076086 124.819437 
L 223.379429 126.660194 
L 224.682772 130.490659 
L 225.986114 130.049268 
L 227.289457 127.061969 
L 228.592799 126.332948 
L 229.896142 125.961976 
L 231.199485 121.432212 
L 232.502827 118.746908 
L 236.412855 116.333512 
L 239.01954 114.749494 
L 240.322883 117.50739 
L 241.626226 117.159888 
L 242.929568 121.342543 
L 245.536253 138.732753 
L 246.839596 138.577381 
L 248.142939 136.856835 
L 249.446281 134.639218 
L 250.749624 131.84981 
L 252.052967 127.814768 
L 253.356309 123.170136 
L 254.659652 122.008644 
L 255.962994 119.78891 
L 257.266337 119.764822 
L 258.56968 120.274179 
L 259.873022 121.960031 
L 261.176365 124.222718 
L 262.479708 128.68394 
L 263.78305 129.534731 
L 265.086393 132.542284 
L 266.389735 133.475043 
L 267.693078 132.250551 
L 268.996421 136.166694 
L 270.299763 135.934851 
L 271.603106 135.005639 
L 274.209791 141.60221 
L 275.513134 141.128832 
L 278.119819 156.012861 
L 279.423162 156.782751 
L 280.726504 159.647442 
L 282.029847 160.851548 
L 285.939875 158.565263 
L 288.54656 156.875719 
L 289.849903 154.908125 
L 291.153245 150.202818 
L 292.456588 144.050084 
L 293.75993 140.449312 
L 295.063273 139.119176 
L 296.366616 136.241592 
L 297.669958 132.771193 
L 298.973301 132.020246 
L 300.276643 132.516704 
L 301.579986 131.741767 
L 302.883329 130.676167 
L 304.186671 130.843113 
L 305.490014 128.552416 
L 306.793357 127.878586 
L 308.096699 125.375021 
L 309.400042 125.297819 
L 310.703384 129.174617 
L 312.006727 129.760204 
L 314.613412 142.638831 
L 315.916755 147.49468 
L 317.220097 163.043827 
L 318.52344 169.597534 
L 319.826783 171.507876 
L 321.130125 172.024897 
L 322.433468 172.321334 
L 323.736811 174.708606 
L 325.040153 175.983646 
L 326.343496 166.016429 
L 327.646838 167.166808 
L 328.950181 168.689796 
L 330.253524 167.081136 
L 331.556866 174.359266 
L 332.860209 173.119257 
L 334.163552 169.196733 
L 335.466894 166.777364 
L 336.770237 165.468091 
L 338.073579 166.407351 
L 339.376922 169.476875 
L 340.680265 170.17344 
L 343.28695 168.59008 
L 344.590292 165.159049 
L 345.893635 163.037789 
L 347.196978 163.139486 
L 348.50032 160.488171 
L 349.803663 156.967148 
L 351.107006 153.83148 
L 352.410348 145.503696 
L 353.713691 140.985782 
L 355.017033 139.879332 
L 356.320376 141.736631 
L 357.623719 141.768243 
L 358.927061 139.788678 
L 360.230404 139.421035 
L 361.533747 144.842601 
L 362.837089 143.534197 
L 364.140432 145.099141 
L 365.443774 146.910699 
L 366.747117 146.384426 
L 368.05046 144.040614 
L 369.353802 139.37629 
L 370.657145 141.808409 
L 371.960487 149.908498 
L 373.26383 152.402922 
L 374.567173 150.015704 
L 375.870515 145.989265 
L 377.173858 143.942501 
L 378.477201 144.363641 
L 379.780543 156.5486 
L 381.083886 161.734219 
L 382.387228 160.826275 
L 383.690571 158.795458 
L 384.993914 157.159614 
L 386.297256 159.018975 
L 387.600599 156.287971 
L 388.903942 156.332472 
L 390.207284 156.823523 
L 392.813969 155.299873 
L 395.420655 153.622118 
L 396.723997 151.840964 
L 398.02734 158.410799 
L 399.330682 163.914113 
L 400.634025 158.272605 
L 401.937368 154.182082 
L 403.24071 154.594549 
L 404.544053 153.051343 
L 405.847396 152.352993 
L 407.150738 157.860125 
L 408.454081 158.378048 
L 409.757423 156.834412 
L 412.364109 155.230814 
L 413.667451 152.134113 
L 416.274136 165.152958 
L 417.577479 166.798529 
L 420.184164 163.583006 
L 422.79085 161.8778 
L 424.094192 160.300559 
L 425.397535 160.467735 
L 426.700877 164.039009 
L 428.00422 167.270256 
L 429.307563 167.515943 
L 430.610905 165.634158 
L 431.914248 165.696577 
L 433.217591 166.393637 
L 434.520933 158.6524 
L 435.824276 151.626367 
L 437.127618 153.504683 
L 438.430961 154.617776 
L 439.734304 151.73704 
L 441.037646 149.725361 
L 442.340989 151.31211 
L 443.644331 154.927714 
L 444.947674 151.81785 
L 446.251017 149.920572 
L 447.554359 148.348825 
L 448.857702 137.461116 
L 450.161045 139.173856 
L 451.464387 138.290908 
L 452.76773 139.60464 
L 454.071072 141.304695 
L 455.374415 140.772418 
L 456.677758 138.699601 
L 457.9811 137.233334 
L 459.284443 136.343812 
L 460.587786 133.566696 
L 463.194471 130.696226 
L 464.497813 119.612828 
L 465.801156 123.49731 
L 467.104499 130.539341 
L 468.407841 129.941469 
L 469.711184 128.471817 
L 471.014526 129.070725 
L 472.317869 128.772542 
L 473.621212 130.210886 
L 474.924554 130.559643 
L 476.227897 129.125284 
L 477.53124 128.905214 
L 478.834582 130.284131 
L 480.137925 122.269381 
L 481.441267 120.544813 
L 482.74461 122.163916 
L 484.047953 124.355202 
L 485.351295 121.416329 
L 486.654638 118.989752 
L 490.564666 116.599107 
L 491.868008 115.928017 
L 493.171351 108.744017 
L 494.474694 103.430061 
L 495.778036 100.438458 
L 497.081379 99.937878 
L 498.384721 99.686043 
L 499.688064 99.176759 
L 500.991407 95.328169 
L 502.294749 92.127668 
L 503.598092 91.618256 
L 504.901435 94.75992 
L 506.204777 93.585008 
L 507.50812 95.871596 
L 508.811462 98.514349 
L 510.114805 103.179592 
L 511.418148 96.849035 
L 512.72149 93.328979 
L 514.024833 93.182671 
L 515.328175 92.087274 
L 516.631518 96.076711 
L 517.934861 95.667095 
L 519.238203 93.857475 
L 521.844889 92.294408 
L 523.148231 91.198504 
L 524.451574 89.60982 
L 525.754916 88.429268 
L 528.361602 86.736506 
L 529.664944 84.100526 
L 530.968287 84.634294 
L 532.27163 83.899513 
L 533.574972 77.221795 
L 534.878315 69.886962 
L 536.181657 81.534826 
L 537.485 90.94388 
L 537.485 90.94388 
" style="fill:none;stroke:#ff7f0e;stroke-linecap:square;"/>
   </g>
   <g id="line2d_15">
    <path clip-path="url(#pee1061426d)" d="M 69.585 219.575725 
L 70.888343 223.055187 
L 72.191685 219.338979 
L 73.495028 217.99239 
L 74.79837 221.936746 
L 76.101713 221.565963 
L 77.405056 217.036239 
L 78.708398 210.856339 
L 80.011741 209.19333 
L 81.315084 210.456778 
L 82.618426 211.156849 
L 83.921769 212.807861 
L 85.225111 213.305719 
L 86.528454 213.378077 
L 87.831797 212.068776 
L 89.135139 211.798371 
L 90.438482 211.751466 
L 91.741825 208.970208 
L 93.045167 206.738318 
L 94.34851 205.181556 
L 95.651852 207.443376 
L 96.955195 204.139269 
L 98.258538 205.125868 
L 99.56188 211.309928 
L 100.865223 208.006573 
L 102.168565 202.379502 
L 103.471908 203.858334 
L 104.775251 208.635977 
L 106.078593 206.34189 
L 108.685279 200.108612 
L 109.988621 197.828258 
L 111.291964 198.324992 
L 112.595306 197.039065 
L 113.898649 190.454811 
L 115.201992 187.8286 
L 117.808677 193.879362 
L 119.112019 193.827543 
L 120.415362 193.470625 
L 121.718705 195.986894 
L 124.32539 193.546314 
L 125.628733 190.851888 
L 126.932075 184.279222 
L 128.235418 189.438612 
L 129.53876 190.67015 
L 130.842103 193.089709 
L 132.145446 196.594627 
L 133.448788 187.449385 
L 134.752131 179.318783 
L 136.055474 177.864128 
L 137.358816 178.632969 
L 139.965501 184.884633 
L 141.268844 185.053119 
L 142.572187 184.007636 
L 143.875529 187.406206 
L 145.178872 180.54317 
L 146.482214 177.678029 
L 147.785557 177.363699 
L 149.0889 177.501528 
L 150.392242 179.913873 
L 151.695585 180.656187 
L 152.998928 183.844881 
L 154.30227 182.25868 
L 155.605613 177.599294 
L 156.908955 172.240774 
L 158.212298 169.438443 
L 159.515641 171.449812 
L 160.818983 172.901968 
L 162.122326 172.337572 
L 164.729011 173.449109 
L 166.032354 172.477089 
L 167.335696 171.877667 
L 168.639039 171.545493 
L 169.942382 170.983122 
L 171.245724 172.136603 
L 172.549067 171.218113 
L 175.155752 166.775172 
L 176.459095 165.191029 
L 177.762437 163.920782 
L 179.06578 165.670605 
L 180.369123 167.113959 
L 181.672465 167.24316 
L 182.975808 168.012331 
L 184.27915 166.873846 
L 185.582493 166.738236 
L 186.885836 166.799474 
L 188.189178 165.459959 
L 189.492521 160.011559 
L 190.795864 163.276203 
L 192.099206 169.129121 
L 193.402549 171.169908 
L 194.705891 171.167549 
L 196.009234 169.164088 
L 197.312577 166.82872 
L 198.615919 165.192209 
L 199.919262 161.774906 
L 201.222604 160.312091 
L 202.525947 161.487998 
L 203.82929 159.867031 
L 205.132632 157.96026 
L 206.435975 159.927177 
L 207.739318 159.629923 
L 209.04266 161.590222 
L 210.346003 165.669825 
L 211.649345 166.545952 
L 212.952688 165.839314 
L 215.559373 159.025076 
L 216.862716 158.133606 
L 218.166058 158.36219 
L 219.469401 155.853695 
L 220.772744 152.018845 
L 222.076086 149.69856 
L 223.379429 150.978853 
L 224.682772 154.184308 
L 225.986114 154.270199 
L 227.289457 151.807808 
L 228.592799 151.502261 
L 229.896142 151.903674 
L 231.199485 151.749394 
L 232.502827 152.871956 
L 233.80617 151.455337 
L 235.109513 150.594526 
L 236.412855 151.076831 
L 237.716198 150.428351 
L 239.01954 149.04417 
L 241.626226 145.730573 
L 242.929568 146.615027 
L 244.232911 145.419143 
L 245.536253 140.252822 
L 246.839596 136.847701 
L 248.142939 138.102802 
L 249.446281 138.347878 
L 252.052967 140.917603 
L 253.356309 142.675326 
L 254.659652 143.32714 
L 255.962994 142.974188 
L 257.266337 143.06581 
L 261.176365 139.304197 
L 262.479708 138.77821 
L 263.78305 137.620937 
L 265.086393 137.375514 
L 266.389735 136.17669 
L 267.693078 135.926268 
L 268.996421 135.450227 
L 270.299763 134.075123 
L 271.603106 134.176961 
L 272.906448 134.157009 
L 275.513134 132.70923 
L 276.816476 132.71907 
L 278.119819 130.090755 
L 279.423162 128.857849 
L 280.726504 128.304538 
L 282.029847 126.897289 
L 283.333189 124.913087 
L 284.636532 121.279055 
L 285.939875 119.950813 
L 287.243217 122.398884 
L 288.54656 123.366798 
L 289.849903 122.942747 
L 291.153245 122.122573 
L 292.456588 120.589338 
L 293.75993 119.957496 
L 295.063273 120.864757 
L 296.366616 119.18807 
L 297.669958 115.509138 
L 298.973301 114.843582 
L 300.276643 115.613084 
L 301.579986 115.144466 
L 302.883329 115.667437 
L 304.186671 117.015969 
L 305.490014 116.473535 
L 306.793357 116.678283 
L 308.096699 116.053511 
L 309.400042 116.26484 
L 312.006727 112.44924 
L 313.31007 112.942866 
L 314.613412 111.25806 
L 315.916755 109.94276 
L 317.220097 106.146007 
L 318.52344 100.538794 
L 319.826783 99.515972 
L 321.130125 97.988121 
L 322.433468 99.084192 
L 323.736811 102.009613 
L 325.040153 103.769224 
L 326.343496 96.754294 
L 327.646838 96.662121 
L 328.950181 98.755857 
L 330.253524 97.651633 
L 331.556866 103.096977 
L 332.860209 103.346273 
L 334.163552 100.039325 
L 335.466894 98.121197 
L 336.770237 97.119016 
L 338.073579 98.84575 
L 339.376922 103.650423 
L 340.680265 106.287111 
L 341.983607 106.206624 
L 343.28695 104.469963 
L 344.590292 99.439935 
L 345.893635 96.204385 
L 347.196978 95.316074 
L 348.50032 94.835935 
L 351.107006 95.657309 
L 352.410348 93.851924 
L 353.713691 93.226061 
L 356.320376 92.438515 
L 357.623719 91.188767 
L 358.927061 90.833536 
L 360.230404 90.627563 
L 361.533747 91.356739 
L 362.837089 89.905071 
L 364.140432 90.560188 
L 365.443774 89.861304 
L 366.747117 89.546732 
L 368.05046 87.6382 
L 369.353802 83.148364 
L 370.657145 84.395165 
L 371.960487 90.647624 
L 373.26383 93.040047 
L 374.567173 91.314273 
L 375.870515 87.033665 
L 377.173858 85.316326 
L 378.477201 85.687908 
L 379.780543 85.007816 
L 381.083886 81.962775 
L 382.387228 81.74228 
L 384.993914 78.145913 
L 386.297256 79.898422 
L 387.600599 78.324725 
L 388.903942 78.948609 
L 390.207284 79.379575 
L 391.510627 74.782265 
L 392.813969 73.151891 
L 394.117312 72.974752 
L 395.420655 71.275698 
L 396.723997 70.013617 
L 399.330682 79.88505 
L 401.937368 73.422135 
L 403.24071 73.899951 
L 404.544053 72.941132 
L 405.847396 72.384926 
L 407.150738 77.500623 
L 408.454081 78.662614 
L 409.757423 73.972659 
L 411.060766 71.060757 
L 413.667451 71.63978 
L 414.970794 73.515837 
L 416.274136 70.957947 
L 417.577479 68.706886 
L 418.880822 68.223816 
L 420.184164 69.363036 
L 421.487507 70.939231 
L 422.79085 72.728562 
L 424.094192 73.455026 
L 425.397535 73.120567 
L 426.700877 70.989026 
L 428.00422 67.712887 
L 429.307563 67.711771 
L 430.610905 67.364773 
L 431.914248 67.640208 
L 433.217591 69.235339 
L 434.520933 63.803447 
L 435.824276 57.635826 
L 437.127618 60.407261 
L 438.430961 65.228237 
L 439.734304 64.059877 
L 441.037646 61.571755 
L 442.340989 63.864131 
L 443.644331 68.361901 
L 444.947674 66.542557 
L 446.251017 64.439991 
L 447.554359 63.565388 
L 448.857702 55.47687 
L 450.161045 56.700366 
L 452.76773 58.178089 
L 454.071072 60.721455 
L 455.374415 60.255456 
L 456.677758 59.395778 
L 457.9811 59.978389 
L 459.284443 62.091851 
L 460.587786 61.677874 
L 461.891128 59.727692 
L 463.194471 58.930029 
L 464.497813 51.220499 
L 465.801156 53.767716 
L 467.104499 60.602832 
L 468.407841 60.420188 
L 469.711184 59.014179 
L 471.014526 58.65967 
L 472.317869 57.716293 
L 473.621212 57.012694 
L 474.924554 56.096549 
L 476.227897 55.436958 
L 477.53124 55.525133 
L 478.834582 57.450011 
L 480.137925 51.158156 
L 481.441267 48.595778 
L 482.74461 51.075936 
L 484.047953 54.524236 
L 485.351295 53.505984 
L 486.654638 51.159752 
L 487.957981 52.011343 
L 489.261323 52.176007 
L 490.564666 50.417345 
L 491.868008 49.191294 
L 493.171351 47.369939 
L 494.474694 47.049583 
L 495.778036 46.894163 
L 497.081379 46.860622 
L 498.384721 45.572705 
L 499.688064 44.920226 
L 502.294749 38.656165 
L 503.598092 38.3028 
L 504.901435 41.597869 
L 506.204777 41.310532 
L 507.50812 43.159331 
L 508.811462 46.420523 
L 510.114805 50.909041 
L 511.418148 46.60402 
L 512.72149 42.965115 
L 514.024833 42.435319 
L 515.328175 40.756269 
L 516.631518 41.161869 
L 517.934861 40.670893 
L 519.238203 39.888858 
L 520.541546 36.451696 
L 521.844889 35.581918 
L 523.148231 35.991691 
L 524.451574 34.553019 
L 525.754916 35.125233 
L 527.058259 37.408412 
L 528.361602 37.908577 
L 529.664944 35.068179 
L 532.27163 36.313276 
L 533.574972 31.130795 
L 534.878315 25.092727 
L 537.485 41.019242 
L 537.485 41.019242 
" style="fill:none;stroke:#2ca02c;stroke-linecap:square;"/>
   </g>
   <g id="legend_1">
    <g id="patch_3">
     <path d="M 54.3534 74.556112 
L 109.911897 74.556112 
Q 112.244297 74.556112 112.244297 72.223712 
L 112.244297 23.2834 
Q 112.244297 20.951 109.911897 20.951 
L 54.3534 20.951 
Q 52.021 20.951 52.021 23.2834 
L 52.021 72.223712 
Q 52.021 74.556112 54.3534 74.556112 
z
" style="fill:#ffffff;opacity:0.8;stroke:#cccccc;stroke-linejoin:miter;"/>
    </g>
    <g id="line2d_16">
     <path d="M 56.6858 29.985406 
L 80.0098 29.985406 
" style="fill:none;stroke:#1f77b4;stroke-linecap:square;"/>
    </g>
    <g id="line2d_17"/>
    <g id="text_15">
     <!-- А -->
     <g transform="translate(89.3394 34.067106)scale(0.11662 -0.11662)">
      <defs>
       <path d="M 46.734375 0 
L 40.28125 20.125 
L 14.546875 20.125 
L 8.109375 0 
L 0.140625 0 
L 23.1875 68.796875 
L 31.890625 68.796875 
L 54.546875 0 
z
M 30.765625 50.09375 
Q 30.125 52.046875 29.546875 54.046875 
L 28.515625 57.71875 
L 27.734375 60.453125 
Q 27.4375 61.53125 27.4375 61.765625 
Q 27.34375 61.53125 27.078125 60.40625 
Q 26.8125 59.28125 26.375 57.625 
L 25.296875 53.953125 
L 24.125 50 
L 16.890625 27.390625 
L 37.984375 27.390625 
z
" id="LiberationSansNarrow-1040"/>
      </defs>
      <use xlink:href="#LiberationSansNarrow-1040"/>
     </g>
    </g>
    <g id="line2d_18">
     <path d="M 56.6858 46.687576 
L 80.0098 46.687576 
" style="fill:none;stroke:#ff7f0e;stroke-linecap:square;"/>
    </g>
    <g id="line2d_19"/>
    <g id="text_16">
     <!-- Б -->
     <g transform="translate(89.3394 50.769276)scale(0.11662 -0.11662)">
      <defs>
       <path d="M 49.5625 20.171875 
Q 49.5625 15.921875 48.34375 12.25 
Q 47.125 8.59375 44.703125 5.859375 
Q 42.28125 3.125 38.640625 1.5625 
Q 35.015625 0 30.125 0 
L 6.734375 0 
L 6.734375 68.796875 
L 43.796875 68.796875 
L 43.796875 61.1875 
L 14.359375 61.1875 
L 14.359375 39.703125 
L 29.6875 39.703125 
Q 34.671875 39.703125 38.40625 38.28125 
Q 42.140625 36.859375 44.609375 34.296875 
Q 47.078125 31.734375 48.3125 28.140625 
Q 49.5625 24.5625 49.5625 20.171875 
z
M 41.890625 20.0625 
Q 41.890625 25.984375 38.59375 29.125 
Q 35.296875 32.28125 28.765625 32.28125 
L 14.359375 32.28125 
L 14.359375 7.375 
L 29.046875 7.375 
Q 35.59375 7.375 38.734375 10.6875 
Q 41.890625 14.015625 41.890625 20.0625 
z
" id="LiberationSansNarrow-1041"/>
      </defs>
      <use xlink:href="#LiberationSansNarrow-1041"/>
     </g>
    </g>
    <g id="line2d_20">
     <path d="M 56.6858 63.389747 
L 80.0098 63.389747 
" style="fill:none;stroke:#2ca02c;stroke-linecap:square;"/>
    </g>
    <g id="line2d_21"/>
    <g id="text_17">
     <!-- А+Б -->
     <g transform="translate(89.3394 67.471447)scale(0.11662 -0.11662)">
      <defs>
       <path d="M 26.859375 29.6875 
L 26.859375 8.796875 
L 21 8.796875 
L 21 29.6875 
L 4 29.6875 
L 4 36.8125 
L 21 36.8125 
L 21 57.71875 
L 26.859375 57.71875 
L 26.859375 36.8125 
L 43.84375 36.8125 
L 43.84375 29.6875 
z
" id="LiberationSansNarrow-43"/>
      </defs>
      <use xlink:href="#LiberationSansNarrow-1040"/>
      <use x="54.6875" xlink:href="#LiberationSansNarrow-43"/>
      <use x="102.587891" xlink:href="#LiberationSansNarrow-1041"/>
     </g>
    </g>
   </g>
  </g>
 </g>
 <defs>
  <clipPath id="pee1061426d">
   <rect height="219.4" width="514.69" x="46.19" y="15.12"/>
  </clipPath>
 </defs>
</svg>
