<svg xmlns="http://www.w3.org/2000/svg" width="147" height="41" viewBox="0 0 147 41"><defs><linearGradient id="a" x1="38" x2="38" y1="25" y2="53" gradientUnits="userSpaceOnUse"><stop offset="0" stop-color="#08cbff"/><stop offset="1" stop-color="#71e1ff"/></linearGradient></defs><path fill="#3e4447" d="M107 8h10.67v2.38h-.77s-.13-1.22-1.35-1.22h-1.86v10.99h-2.64V9.16h-1.93c-1.02 0-1.28.83-1.35 1.22H107zM130.16 8h1.92v12.15h-2.57v-8.49l-6.36 8.49h-1.93v-9.9c0-1.41-1.22-1.61-1.22-1.61V8h3.79v8.55zM74.09 20.15h-3.35l-2.38-4.5s-.7-1.35-1.47-1.35h-.97v5.85h-2.63v-9.9c0-1.42-1.29-1.54-1.29-1.54V8h3.92v5.08h1.16s.77-.07 1.41-1.1C70.55 8.64 70.29 8 71.19 8h2.57v.83c-1.79 0-2.31 3.67-4.05 4.83.84.32 1.16 1.09 3.03 4.5 0 0 .45 1.15 1.35 1.15zM145.7 17.71a6.51 6.51 0 0 1-5.4 2.83c-3.21 0-6.3-2.51-6.3-5.79v-.71c0-3.53 2.83-6.04 6.3-6.04a6.19 6.19 0 0 1 6.17 6.24h-9.32v1.99c0 1.73 1.42 3.15 3.47 3.15 1.81 0 3.03-.77 3.99-1.8zm-8.55-4.7h6.3v-.64a3.16 3.16 0 0 0-6.3 0zM85.84 16.16c0 1.55-1.1 3.03-2.77 3.09h-.25c-1.48 0-2.77-1.09-2.96-2.25v-5.21a3.05 3.05 0 0 1 2.96-2.57h.51s2.44.13 2.51 3.09zm-5.98-6.62V8.19H76v.71s1.22.19 1.22 1.54v15.43h2.64v-6.81a4.38 4.38 0 0 0 3.34 1.48c3.41-.07 5.72-2.7 5.72-5.98v-.78c0-3.53-2.18-5.78-5.53-5.78-1.48 0-2.89.64-3.53 1.54zM45.77 16.1a3.26 3.26 0 0 1-3.34 3.28 3.21 3.21 0 0 1-3.28-3.28v-3.86c0-1.74 1.48-3.08 3.28-3.08 1.99 0 3.34 1.41 3.34 3.15zM36 13.85v1.03c0 2.7 2.64 5.66 6.43 5.66 3.54 0 6.49-2.64 6.49-5.73v-.83c0-3.09-2.44-5.98-6.49-5.98C37.87 8 36 11.53 36 13.85zM105.86 8H102v.71s1.29.19 1.29 1.6v9.84h2.57zM93.86 18.93v-5.08h2.25c1.22 0 2.18.96 2.18 2.38v.51c0 1.16-1.09 2.19-2.25 2.19zm0-6.3V8H90v.71s1.16.12 1.16 1.54v9.9h5.97c2.32 0 3.99-1.41 3.99-3.41v-.57c0-2.19-1.61-3.54-4.11-3.54zM50 8h10.67v2.38h-.77s-.13-1.22-1.35-1.22h-1.86v10.99h-2.64V9.16h-1.93c-1.03 0-1.28.83-1.34 1.22H50z"/><path fill="url(#a)" d="M47.78 39.88c0 3.45-1.8 6.55-4.69 8.08l-.66.31c-.22.1-.46.16-.7.16-.45 0-.8-.19-1.02-.54-.17-.29-.21-.6-.15-.96.1-.49.49-.74.6-.8a4.86 4.86 0 0 0 2.8-4.44v-5.03a4.85 4.85 0 0 0-2.78-4.43s-.51-.24-.62-.81c-.06-.36-.02-.67.15-.96.22-.34.57-.54 1.02-.54.24 0 .48.05.69.15l.65.31a9.05 9.05 0 0 1 4.71 8.08zm-11.99 7.05c.07.36.02.67-.15.96-.21.35-.57.54-1.02.54a1.7 1.7 0 0 1-.69-.16l-.67-.31a9.04 9.04 0 0 1-4.68-8.08v-1.42c0-3.44 1.8-6.54 4.7-8.08l.65-.31c.22-.1.46-.15.69-.15.45 0 .81.2 1.02.54.17.29.22.6.15.96-.11.57-.62.81-.62.81a4.86 4.86 0 0 0-2.78 4.43v5.03c0 1.92 1.1 3.66 2.8 4.44.12.06.5.31.6.8zM24 39.17a14.18 14.18 0 1 0 28.36 0 14.18 14.18 0 0 0-28.36 0z" transform="translate(-24 -25)"/><path fill="#3e4447" d="M37.85 37.27v2.2h.7c.85 0 1.35-.36 1.35-1.13 0-.71-.45-1.07-1.3-1.07zM37 40.21V34h3.21l.13.78h-2.49v1.74h.8c1.31 0 2.1.64 2.1 1.79 0 1.27-.9 1.9-2.25 1.9zM42.85 34.75v2.19h.7c.85 0 1.35-.35 1.35-1.12 0-.71-.45-1.07-1.3-1.07zm0 2.94v2.52H42V34h1.65c1.31 0 2.1.64 2.1 1.79 0 1.27-.89 1.9-2.25 1.9zM47.87 37.22c0 1.5.77 2.45 1.99 2.45 1.24 0 1.99-.95 1.99-2.45 0-1.49-.76-2.45-1.99-2.45s-1.99.96-1.99 2.45zm-.87.01c0-1.92 1.13-3.23 2.87-3.23 1.76 0 2.85 1.3 2.85 3.21 0 1.92-1.11 3.24-2.87 3.24-1.74 0-2.85-1.3-2.85-3.22zM58.72 40.28l-2.87-3.22v3.15H55V34h.85v2.79L58.42 34h1.08l-2.73 2.92 2.89 3.16zM61 40.21V34h3.35v.78h-2.5v1.8h1.94l.13.77h-2.07v2.09h2.59v.77zM65.85 34.75v2.19h.7c.85 0 1.35-.35 1.35-1.12 0-.71-.45-1.07-1.3-1.07zm0 2.94v2.52H65V34h1.65c1.31 0 2.1.64 2.1 1.79 0 1.27-.9 1.9-2.25 1.9z"/></svg>
