<?xml version="1.0" encoding="utf-8" standalone="no"?>
<!DOCTYPE svg PUBLIC "-//W3C//DTD SVG 1.1//EN"
  "http://www.w3.org/Graphics/SVG/1.1/DTD/svg11.dtd">
<!-- Created with matplotlib (http://matplotlib.org/) -->
<svg height="288pt" version="1.1" viewBox="0 0 504 288" width="504pt" xmlns="http://www.w3.org/2000/svg" xmlns:xlink="http://www.w3.org/1999/xlink">
 <defs>
  <style type="text/css">
*{stroke-linecap:butt;stroke-linejoin:round;}
  </style>
 </defs>
 <g id="figure_1">
  <g id="patch_1">
   <path d="M 0 288 
L 504 288 
L 504 0 
L 0 0 
z
" style="fill:#ffffff;"/>
  </g>
  <g id="axes_1">
   <g id="patch_2">
    <path d="M 33.73 260.12 
L 490.68 260.12 
L 490.68 13.32 
L 33.73 13.32 
z
" style="fill:#e5e5e5;"/>
   </g>
   <g id="matplotlib.axis_1">
    <g id="xtick_1">
     <g id="line2d_1">
      <path clip-path="url(#p8301ab20d1)" d="M 49.550899 260.12 
L 49.550899 13.32 
" style="fill:none;stroke:#ffffff;stroke-linecap:square;stroke-width:0.8;"/>
     </g>
     <g id="line2d_2">
      <defs>
       <path d="M 0 0 
L 0 3.5 
" id="m273f140910" style="stroke:#555555;stroke-width:0.8;"/>
      </defs>
      <g>
       <use style="fill:#555555;stroke:#555555;stroke-width:0.8;" x="49.550899" xlink:href="#m273f140910" y="260.12"/>
      </g>
     </g>
     <g id="text_1">
      <!-- 9.15 -->
      <defs>
       <path d="M 10.984375 1.515625 
L 10.984375 10.5 
Q 14.703125 8.734375 18.5 7.8125 
Q 22.3125 6.890625 25.984375 6.890625 
Q 35.75 6.890625 40.890625 13.453125 
Q 46.046875 20.015625 46.78125 33.40625 
Q 43.953125 29.203125 39.59375 26.953125 
Q 35.25 24.703125 29.984375 24.703125 
Q 19.046875 24.703125 12.671875 31.3125 
Q 6.296875 37.9375 6.296875 49.421875 
Q 6.296875 60.640625 12.9375 67.421875 
Q 19.578125 74.21875 30.609375 74.21875 
Q 43.265625 74.21875 49.921875 64.515625 
Q 56.59375 54.828125 56.59375 36.375 
Q 56.59375 19.140625 48.40625 8.859375 
Q 40.234375 -1.421875 26.421875 -1.421875 
Q 22.703125 -1.421875 18.890625 -0.6875 
Q 15.09375 0.046875 10.984375 1.515625 
z
M 30.609375 32.421875 
Q 37.25 32.421875 41.125 36.953125 
Q 45.015625 41.5 45.015625 49.421875 
Q 45.015625 57.28125 41.125 61.84375 
Q 37.25 66.40625 30.609375 66.40625 
Q 23.96875 66.40625 20.09375 61.84375 
Q 16.21875 57.28125 16.21875 49.421875 
Q 16.21875 41.5 20.09375 36.953125 
Q 23.96875 32.421875 30.609375 32.421875 
z
" id="DejaVuSans-39"/>
       <path d="M 10.6875 12.40625 
L 21 12.40625 
L 21 0 
L 10.6875 0 
z
" id="DejaVuSans-2e"/>
       <path d="M 12.40625 8.296875 
L 28.515625 8.296875 
L 28.515625 63.921875 
L 10.984375 60.40625 
L 10.984375 69.390625 
L 28.421875 72.90625 
L 38.28125 72.90625 
L 38.28125 8.296875 
L 54.390625 8.296875 
L 54.390625 0 
L 12.40625 0 
z
" id="DejaVuSans-31"/>
       <path d="M 10.796875 72.90625 
L 49.515625 72.90625 
L 49.515625 64.59375 
L 19.828125 64.59375 
L 19.828125 46.734375 
Q 21.96875 47.46875 24.109375 47.828125 
Q 26.265625 48.1875 28.421875 48.1875 
Q 40.625 48.1875 47.75 41.5 
Q 54.890625 34.8125 54.890625 23.390625 
Q 54.890625 11.625 47.5625 5.09375 
Q 40.234375 -1.421875 26.90625 -1.421875 
Q 22.3125 -1.421875 17.546875 -0.640625 
Q 12.796875 0.140625 7.71875 1.703125 
L 7.71875 11.625 
Q 12.109375 9.234375 16.796875 8.0625 
Q 21.484375 6.890625 26.703125 6.890625 
Q 35.15625 6.890625 40.078125 11.328125 
Q 45.015625 15.765625 45.015625 23.390625 
Q 45.015625 31 40.078125 35.4375 
Q 35.15625 39.890625 26.703125 39.890625 
Q 22.75 39.890625 18.8125 39.015625 
Q 14.890625 38.140625 10.796875 36.28125 
z
" id="DejaVuSans-35"/>
      </defs>
      <g style="fill:#555555;" transform="translate(38.418087 274.718437)scale(0.1 -0.1)">
       <use xlink:href="#DejaVuSans-39"/>
       <use x="63.623047" xlink:href="#DejaVuSans-2e"/>
       <use x="95.410156" xlink:href="#DejaVuSans-31"/>
       <use x="159.033203" xlink:href="#DejaVuSans-35"/>
      </g>
     </g>
    </g>
    <g id="xtick_2">
     <g id="line2d_3">
      <path clip-path="url(#p8301ab20d1)" d="M 82.076547 260.12 
L 82.076547 13.32 
" style="fill:none;stroke:#ffffff;stroke-linecap:square;stroke-width:0.8;"/>
     </g>
     <g id="line2d_4">
      <g>
       <use style="fill:#555555;stroke:#555555;stroke-width:0.8;" x="82.076547" xlink:href="#m273f140910" y="260.12"/>
      </g>
     </g>
     <g id="text_2">
      <!-- 12.15 -->
      <defs>
       <path d="M 19.1875 8.296875 
L 53.609375 8.296875 
L 53.609375 0 
L 7.328125 0 
L 7.328125 8.296875 
Q 12.9375 14.109375 22.625 23.890625 
Q 32.328125 33.6875 34.8125 36.53125 
Q 39.546875 41.84375 41.421875 45.53125 
Q 43.3125 49.21875 43.3125 52.78125 
Q 43.3125 58.59375 39.234375 62.25 
Q 35.15625 65.921875 28.609375 65.921875 
Q 23.96875 65.921875 18.8125 64.3125 
Q 13.671875 62.703125 7.8125 59.421875 
L 7.8125 69.390625 
Q 13.765625 71.78125 18.9375 73 
Q 24.125 74.21875 28.421875 74.21875 
Q 39.75 74.21875 46.484375 68.546875 
Q 53.21875 62.890625 53.21875 53.421875 
Q 53.21875 48.921875 51.53125 44.890625 
Q 49.859375 40.875 45.40625 35.40625 
Q 44.1875 33.984375 37.640625 27.21875 
Q 31.109375 20.453125 19.1875 8.296875 
z
" id="DejaVuSans-32"/>
      </defs>
      <g style="fill:#555555;" transform="translate(67.762485 274.718437)scale(0.1 -0.1)">
       <use xlink:href="#DejaVuSans-31"/>
       <use x="63.623047" xlink:href="#DejaVuSans-32"/>
       <use x="127.246094" xlink:href="#DejaVuSans-2e"/>
       <use x="159.033203" xlink:href="#DejaVuSans-31"/>
       <use x="222.65625" xlink:href="#DejaVuSans-35"/>
      </g>
     </g>
    </g>
    <g id="xtick_3">
     <g id="line2d_5">
      <path clip-path="url(#p8301ab20d1)" d="M 114.248656 260.12 
L 114.248656 13.32 
" style="fill:none;stroke:#ffffff;stroke-linecap:square;stroke-width:0.8;"/>
     </g>
     <g id="line2d_6">
      <g>
       <use style="fill:#555555;stroke:#555555;stroke-width:0.8;" x="114.248656" xlink:href="#m273f140910" y="260.12"/>
      </g>
     </g>
     <g id="text_3">
      <!-- 3.16 -->
      <defs>
       <path d="M 40.578125 39.3125 
Q 47.65625 37.796875 51.625 33 
Q 55.609375 28.21875 55.609375 21.1875 
Q 55.609375 10.40625 48.1875 4.484375 
Q 40.765625 -1.421875 27.09375 -1.421875 
Q 22.515625 -1.421875 17.65625 -0.515625 
Q 12.796875 0.390625 7.625 2.203125 
L 7.625 11.71875 
Q 11.71875 9.328125 16.59375 8.109375 
Q 21.484375 6.890625 26.8125 6.890625 
Q 36.078125 6.890625 40.9375 10.546875 
Q 45.796875 14.203125 45.796875 21.1875 
Q 45.796875 27.640625 41.28125 31.265625 
Q 36.765625 34.90625 28.71875 34.90625 
L 20.21875 34.90625 
L 20.21875 43.015625 
L 29.109375 43.015625 
Q 36.375 43.015625 40.234375 45.921875 
Q 44.09375 48.828125 44.09375 54.296875 
Q 44.09375 59.90625 40.109375 62.90625 
Q 36.140625 65.921875 28.71875 65.921875 
Q 24.65625 65.921875 20.015625 65.03125 
Q 15.375 64.15625 9.8125 62.3125 
L 9.8125 71.09375 
Q 15.4375 72.65625 20.34375 73.4375 
Q 25.25 74.21875 29.59375 74.21875 
Q 40.828125 74.21875 47.359375 69.109375 
Q 53.90625 64.015625 53.90625 55.328125 
Q 53.90625 49.265625 50.4375 45.09375 
Q 46.96875 40.921875 40.578125 39.3125 
z
" id="DejaVuSans-33"/>
       <path d="M 33.015625 40.375 
Q 26.375 40.375 22.484375 35.828125 
Q 18.609375 31.296875 18.609375 23.390625 
Q 18.609375 15.53125 22.484375 10.953125 
Q 26.375 6.390625 33.015625 6.390625 
Q 39.65625 6.390625 43.53125 10.953125 
Q 47.40625 15.53125 47.40625 23.390625 
Q 47.40625 31.296875 43.53125 35.828125 
Q 39.65625 40.375 33.015625 40.375 
z
M 52.59375 71.296875 
L 52.59375 62.3125 
Q 48.875 64.0625 45.09375 64.984375 
Q 41.3125 65.921875 37.59375 65.921875 
Q 27.828125 65.921875 22.671875 59.328125 
Q 17.53125 52.734375 16.796875 39.40625 
Q 19.671875 43.65625 24.015625 45.921875 
Q 28.375 48.1875 33.59375 48.1875 
Q 44.578125 48.1875 50.953125 41.515625 
Q 57.328125 34.859375 57.328125 23.390625 
Q 57.328125 12.15625 50.6875 5.359375 
Q 44.046875 -1.421875 33.015625 -1.421875 
Q 20.359375 -1.421875 13.671875 8.265625 
Q 6.984375 17.96875 6.984375 36.375 
Q 6.984375 53.65625 15.1875 63.9375 
Q 23.390625 74.21875 37.203125 74.21875 
Q 40.921875 74.21875 44.703125 73.484375 
Q 48.484375 72.75 52.59375 71.296875 
z
" id="DejaVuSans-36"/>
      </defs>
      <g style="fill:#555555;" transform="translate(103.115843 274.718437)scale(0.1 -0.1)">
       <use xlink:href="#DejaVuSans-33"/>
       <use x="63.623047" xlink:href="#DejaVuSans-2e"/>
       <use x="95.410156" xlink:href="#DejaVuSans-31"/>
       <use x="159.033203" xlink:href="#DejaVuSans-36"/>
      </g>
     </g>
    </g>
    <g id="xtick_4">
     <g id="line2d_7">
      <path clip-path="url(#p8301ab20d1)" d="M 146.420764 260.12 
L 146.420764 13.32 
" style="fill:none;stroke:#ffffff;stroke-linecap:square;stroke-width:0.8;"/>
     </g>
     <g id="line2d_8">
      <g>
       <use style="fill:#555555;stroke:#555555;stroke-width:0.8;" x="146.420764" xlink:href="#m273f140910" y="260.12"/>
      </g>
     </g>
     <g id="text_4">
      <!-- 6.16 -->
      <g style="fill:#555555;" transform="translate(135.287952 274.718437)scale(0.1 -0.1)">
       <use xlink:href="#DejaVuSans-36"/>
       <use x="63.623047" xlink:href="#DejaVuSans-2e"/>
       <use x="95.410156" xlink:href="#DejaVuSans-31"/>
       <use x="159.033203" xlink:href="#DejaVuSans-36"/>
      </g>
     </g>
    </g>
    <g id="xtick_5">
     <g id="line2d_9">
      <path clip-path="url(#p8301ab20d1)" d="M 178.946412 260.12 
L 178.946412 13.32 
" style="fill:none;stroke:#ffffff;stroke-linecap:square;stroke-width:0.8;"/>
     </g>
     <g id="line2d_10">
      <g>
       <use style="fill:#555555;stroke:#555555;stroke-width:0.8;" x="178.946412" xlink:href="#m273f140910" y="260.12"/>
      </g>
     </g>
     <g id="text_5">
      <!-- 9.16 -->
      <g style="fill:#555555;" transform="translate(167.813599 274.718437)scale(0.1 -0.1)">
       <use xlink:href="#DejaVuSans-39"/>
       <use x="63.623047" xlink:href="#DejaVuSans-2e"/>
       <use x="95.410156" xlink:href="#DejaVuSans-31"/>
       <use x="159.033203" xlink:href="#DejaVuSans-36"/>
      </g>
     </g>
    </g>
    <g id="xtick_6">
     <g id="line2d_11">
      <path clip-path="url(#p8301ab20d1)" d="M 211.47206 260.12 
L 211.47206 13.32 
" style="fill:none;stroke:#ffffff;stroke-linecap:square;stroke-width:0.8;"/>
     </g>
     <g id="line2d_12">
      <g>
       <use style="fill:#555555;stroke:#555555;stroke-width:0.8;" x="211.47206" xlink:href="#m273f140910" y="260.12"/>
      </g>
     </g>
     <g id="text_6">
      <!-- 12.16 -->
      <g style="fill:#555555;" transform="translate(197.157997 274.718437)scale(0.1 -0.1)">
       <use xlink:href="#DejaVuSans-31"/>
       <use x="63.623047" xlink:href="#DejaVuSans-32"/>
       <use x="127.246094" xlink:href="#DejaVuSans-2e"/>
       <use x="159.033203" xlink:href="#DejaVuSans-31"/>
       <use x="222.65625" xlink:href="#DejaVuSans-36"/>
      </g>
     </g>
    </g>
    <g id="xtick_7">
     <g id="line2d_13">
      <path clip-path="url(#p8301ab20d1)" d="M 243.290629 260.12 
L 243.290629 13.32 
" style="fill:none;stroke:#ffffff;stroke-linecap:square;stroke-width:0.8;"/>
     </g>
     <g id="line2d_14">
      <g>
       <use style="fill:#555555;stroke:#555555;stroke-width:0.8;" x="243.290629" xlink:href="#m273f140910" y="260.12"/>
      </g>
     </g>
     <g id="text_7">
      <!-- 3.17 -->
      <defs>
       <path d="M 8.203125 72.90625 
L 55.078125 72.90625 
L 55.078125 68.703125 
L 28.609375 0 
L 18.3125 0 
L 43.21875 64.59375 
L 8.203125 64.59375 
z
" id="DejaVuSans-37"/>
      </defs>
      <g style="fill:#555555;" transform="translate(232.157816 274.718437)scale(0.1 -0.1)">
       <use xlink:href="#DejaVuSans-33"/>
       <use x="63.623047" xlink:href="#DejaVuSans-2e"/>
       <use x="95.410156" xlink:href="#DejaVuSans-31"/>
       <use x="159.033203" xlink:href="#DejaVuSans-37"/>
      </g>
     </g>
    </g>
    <g id="xtick_8">
     <g id="line2d_15">
      <path clip-path="url(#p8301ab20d1)" d="M 275.462737 260.12 
L 275.462737 13.32 
" style="fill:none;stroke:#ffffff;stroke-linecap:square;stroke-width:0.8;"/>
     </g>
     <g id="line2d_16">
      <g>
       <use style="fill:#555555;stroke:#555555;stroke-width:0.8;" x="275.462737" xlink:href="#m273f140910" y="260.12"/>
      </g>
     </g>
     <g id="text_8">
      <!-- 6.17 -->
      <g style="fill:#555555;" transform="translate(264.329924 274.718437)scale(0.1 -0.1)">
       <use xlink:href="#DejaVuSans-36"/>
       <use x="63.623047" xlink:href="#DejaVuSans-2e"/>
       <use x="95.410156" xlink:href="#DejaVuSans-31"/>
       <use x="159.033203" xlink:href="#DejaVuSans-37"/>
      </g>
     </g>
    </g>
    <g id="xtick_9">
     <g id="line2d_17">
      <path clip-path="url(#p8301ab20d1)" d="M 307.988385 260.12 
L 307.988385 13.32 
" style="fill:none;stroke:#ffffff;stroke-linecap:square;stroke-width:0.8;"/>
     </g>
     <g id="line2d_18">
      <g>
       <use style="fill:#555555;stroke:#555555;stroke-width:0.8;" x="307.988385" xlink:href="#m273f140910" y="260.12"/>
      </g>
     </g>
     <g id="text_9">
      <!-- 9.17 -->
      <g style="fill:#555555;" transform="translate(296.855572 274.718437)scale(0.1 -0.1)">
       <use xlink:href="#DejaVuSans-39"/>
       <use x="63.623047" xlink:href="#DejaVuSans-2e"/>
       <use x="95.410156" xlink:href="#DejaVuSans-31"/>
       <use x="159.033203" xlink:href="#DejaVuSans-37"/>
      </g>
     </g>
    </g>
    <g id="xtick_10">
     <g id="line2d_19">
      <path clip-path="url(#p8301ab20d1)" d="M 340.514033 260.12 
L 340.514033 13.32 
" style="fill:none;stroke:#ffffff;stroke-linecap:square;stroke-width:0.8;"/>
     </g>
     <g id="line2d_20">
      <g>
       <use style="fill:#555555;stroke:#555555;stroke-width:0.8;" x="340.514033" xlink:href="#m273f140910" y="260.12"/>
      </g>
     </g>
     <g id="text_10">
      <!-- 12.17 -->
      <g style="fill:#555555;" transform="translate(326.19997 274.718437)scale(0.1 -0.1)">
       <use xlink:href="#DejaVuSans-31"/>
       <use x="63.623047" xlink:href="#DejaVuSans-32"/>
       <use x="127.246094" xlink:href="#DejaVuSans-2e"/>
       <use x="159.033203" xlink:href="#DejaVuSans-31"/>
       <use x="222.65625" xlink:href="#DejaVuSans-37"/>
      </g>
     </g>
    </g>
    <g id="xtick_11">
     <g id="line2d_21">
      <path clip-path="url(#p8301ab20d1)" d="M 372.332602 260.12 
L 372.332602 13.32 
" style="fill:none;stroke:#ffffff;stroke-linecap:square;stroke-width:0.8;"/>
     </g>
     <g id="line2d_22">
      <g>
       <use style="fill:#555555;stroke:#555555;stroke-width:0.8;" x="372.332602" xlink:href="#m273f140910" y="260.12"/>
      </g>
     </g>
     <g id="text_11">
      <!-- 3.18 -->
      <defs>
       <path d="M 31.78125 34.625 
Q 24.75 34.625 20.71875 30.859375 
Q 16.703125 27.09375 16.703125 20.515625 
Q 16.703125 13.921875 20.71875 10.15625 
Q 24.75 6.390625 31.78125 6.390625 
Q 38.8125 6.390625 42.859375 10.171875 
Q 46.921875 13.96875 46.921875 20.515625 
Q 46.921875 27.09375 42.890625 30.859375 
Q 38.875 34.625 31.78125 34.625 
z
M 21.921875 38.8125 
Q 15.578125 40.375 12.03125 44.71875 
Q 8.5 49.078125 8.5 55.328125 
Q 8.5 64.0625 14.71875 69.140625 
Q 20.953125 74.21875 31.78125 74.21875 
Q 42.671875 74.21875 48.875 69.140625 
Q 55.078125 64.0625 55.078125 55.328125 
Q 55.078125 49.078125 51.53125 44.71875 
Q 48 40.375 41.703125 38.8125 
Q 48.828125 37.15625 52.796875 32.3125 
Q 56.78125 27.484375 56.78125 20.515625 
Q 56.78125 9.90625 50.3125 4.234375 
Q 43.84375 -1.421875 31.78125 -1.421875 
Q 19.734375 -1.421875 13.25 4.234375 
Q 6.78125 9.90625 6.78125 20.515625 
Q 6.78125 27.484375 10.78125 32.3125 
Q 14.796875 37.15625 21.921875 38.8125 
z
M 18.3125 54.390625 
Q 18.3125 48.734375 21.84375 45.5625 
Q 25.390625 42.390625 31.78125 42.390625 
Q 38.140625 42.390625 41.71875 45.5625 
Q 45.3125 48.734375 45.3125 54.390625 
Q 45.3125 60.0625 41.71875 63.234375 
Q 38.140625 66.40625 31.78125 66.40625 
Q 25.390625 66.40625 21.84375 63.234375 
Q 18.3125 60.0625 18.3125 54.390625 
z
" id="DejaVuSans-38"/>
      </defs>
      <g style="fill:#555555;" transform="translate(361.199789 274.718437)scale(0.1 -0.1)">
       <use xlink:href="#DejaVuSans-33"/>
       <use x="63.623047" xlink:href="#DejaVuSans-2e"/>
       <use x="95.410156" xlink:href="#DejaVuSans-31"/>
       <use x="159.033203" xlink:href="#DejaVuSans-38"/>
      </g>
     </g>
    </g>
    <g id="xtick_12">
     <g id="line2d_23">
      <path clip-path="url(#p8301ab20d1)" d="M 404.50471 260.12 
L 404.50471 13.32 
" style="fill:none;stroke:#ffffff;stroke-linecap:square;stroke-width:0.8;"/>
     </g>
     <g id="line2d_24">
      <g>
       <use style="fill:#555555;stroke:#555555;stroke-width:0.8;" x="404.50471" xlink:href="#m273f140910" y="260.12"/>
      </g>
     </g>
     <g id="text_12">
      <!-- 6.18 -->
      <g style="fill:#555555;" transform="translate(393.371897 274.718437)scale(0.1 -0.1)">
       <use xlink:href="#DejaVuSans-36"/>
       <use x="63.623047" xlink:href="#DejaVuSans-2e"/>
       <use x="95.410156" xlink:href="#DejaVuSans-31"/>
       <use x="159.033203" xlink:href="#DejaVuSans-38"/>
      </g>
     </g>
    </g>
    <g id="xtick_13">
     <g id="line2d_25">
      <path clip-path="url(#p8301ab20d1)" d="M 437.030358 260.12 
L 437.030358 13.32 
" style="fill:none;stroke:#ffffff;stroke-linecap:square;stroke-width:0.8;"/>
     </g>
     <g id="line2d_26">
      <g>
       <use style="fill:#555555;stroke:#555555;stroke-width:0.8;" x="437.030358" xlink:href="#m273f140910" y="260.12"/>
      </g>
     </g>
     <g id="text_13">
      <!-- 9.18 -->
      <g style="fill:#555555;" transform="translate(425.897545 274.718437)scale(0.1 -0.1)">
       <use xlink:href="#DejaVuSans-39"/>
       <use x="63.623047" xlink:href="#DejaVuSans-2e"/>
       <use x="95.410156" xlink:href="#DejaVuSans-31"/>
       <use x="159.033203" xlink:href="#DejaVuSans-38"/>
      </g>
     </g>
    </g>
    <g id="xtick_14">
     <g id="line2d_27">
      <path clip-path="url(#p8301ab20d1)" d="M 469.556006 260.12 
L 469.556006 13.32 
" style="fill:none;stroke:#ffffff;stroke-linecap:square;stroke-width:0.8;"/>
     </g>
     <g id="line2d_28">
      <g>
       <use style="fill:#555555;stroke:#555555;stroke-width:0.8;" x="469.556006" xlink:href="#m273f140910" y="260.12"/>
      </g>
     </g>
     <g id="text_14">
      <!-- 12.18 -->
      <g style="fill:#555555;" transform="translate(455.241943 274.718437)scale(0.1 -0.1)">
       <use xlink:href="#DejaVuSans-31"/>
       <use x="63.623047" xlink:href="#DejaVuSans-32"/>
       <use x="127.246094" xlink:href="#DejaVuSans-2e"/>
       <use x="159.033203" xlink:href="#DejaVuSans-31"/>
       <use x="222.65625" xlink:href="#DejaVuSans-38"/>
      </g>
     </g>
    </g>
   </g>
   <g id="matplotlib.axis_2">
    <g id="ytick_1">
     <g id="line2d_29">
      <path clip-path="url(#p8301ab20d1)" d="M 33.73 247.080692 
L 490.68 247.080692 
" style="fill:none;stroke:#ffffff;stroke-linecap:square;stroke-width:0.8;"/>
     </g>
     <g id="line2d_30">
      <defs>
       <path d="M 0 0 
L -3.5 0 
" id="m2f28cf4eb2" style="stroke:#555555;stroke-width:0.8;"/>
      </defs>
      <g>
       <use style="fill:#555555;stroke:#555555;stroke-width:0.8;" x="33.73" xlink:href="#m2f28cf4eb2" y="247.080692"/>
      </g>
     </g>
     <g id="text_15">
      <!-- 0.9 -->
      <defs>
       <path d="M 31.78125 66.40625 
Q 24.171875 66.40625 20.328125 58.90625 
Q 16.5 51.421875 16.5 36.375 
Q 16.5 21.390625 20.328125 13.890625 
Q 24.171875 6.390625 31.78125 6.390625 
Q 39.453125 6.390625 43.28125 13.890625 
Q 47.125 21.390625 47.125 36.375 
Q 47.125 51.421875 43.28125 58.90625 
Q 39.453125 66.40625 31.78125 66.40625 
z
M 31.78125 74.21875 
Q 44.046875 74.21875 50.515625 64.515625 
Q 56.984375 54.828125 56.984375 36.375 
Q 56.984375 17.96875 50.515625 8.265625 
Q 44.046875 -1.421875 31.78125 -1.421875 
Q 19.53125 -1.421875 13.0625 8.265625 
Q 6.59375 17.96875 6.59375 36.375 
Q 6.59375 54.828125 13.0625 64.515625 
Q 19.53125 74.21875 31.78125 74.21875 
z
" id="DejaVuSans-30"/>
      </defs>
      <g style="fill:#555555;" transform="translate(10.826875 250.879911)scale(0.1 -0.1)">
       <use xlink:href="#DejaVuSans-30"/>
       <use x="63.623047" xlink:href="#DejaVuSans-2e"/>
       <use x="95.410156" xlink:href="#DejaVuSans-39"/>
      </g>
     </g>
    </g>
    <g id="ytick_2">
     <g id="line2d_31">
      <path clip-path="url(#p8301ab20d1)" d="M 33.73 203.231944 
L 490.68 203.231944 
" style="fill:none;stroke:#ffffff;stroke-linecap:square;stroke-width:0.8;"/>
     </g>
     <g id="line2d_32">
      <g>
       <use style="fill:#555555;stroke:#555555;stroke-width:0.8;" x="33.73" xlink:href="#m2f28cf4eb2" y="203.231944"/>
      </g>
     </g>
     <g id="text_16">
      <!-- 1.0 -->
      <g style="fill:#555555;" transform="translate(10.826875 207.031163)scale(0.1 -0.1)">
       <use xlink:href="#DejaVuSans-31"/>
       <use x="63.623047" xlink:href="#DejaVuSans-2e"/>
       <use x="95.410156" xlink:href="#DejaVuSans-30"/>
      </g>
     </g>
    </g>
    <g id="ytick_3">
     <g id="line2d_33">
      <path clip-path="url(#p8301ab20d1)" d="M 33.73 159.383196 
L 490.68 159.383196 
" style="fill:none;stroke:#ffffff;stroke-linecap:square;stroke-width:0.8;"/>
     </g>
     <g id="line2d_34">
      <g>
       <use style="fill:#555555;stroke:#555555;stroke-width:0.8;" x="33.73" xlink:href="#m2f28cf4eb2" y="159.383196"/>
      </g>
     </g>
     <g id="text_17">
      <!-- 1.1 -->
      <g style="fill:#555555;" transform="translate(10.826875 163.182415)scale(0.1 -0.1)">
       <use xlink:href="#DejaVuSans-31"/>
       <use x="63.623047" xlink:href="#DejaVuSans-2e"/>
       <use x="95.410156" xlink:href="#DejaVuSans-31"/>
      </g>
     </g>
    </g>
    <g id="ytick_4">
     <g id="line2d_35">
      <path clip-path="url(#p8301ab20d1)" d="M 33.73 115.534448 
L 490.68 115.534448 
" style="fill:none;stroke:#ffffff;stroke-linecap:square;stroke-width:0.8;"/>
     </g>
     <g id="line2d_36">
      <g>
       <use style="fill:#555555;stroke:#555555;stroke-width:0.8;" x="33.73" xlink:href="#m2f28cf4eb2" y="115.534448"/>
      </g>
     </g>
     <g id="text_18">
      <!-- 1.2 -->
      <g style="fill:#555555;" transform="translate(10.826875 119.333667)scale(0.1 -0.1)">
       <use xlink:href="#DejaVuSans-31"/>
       <use x="63.623047" xlink:href="#DejaVuSans-2e"/>
       <use x="95.410156" xlink:href="#DejaVuSans-32"/>
      </g>
     </g>
    </g>
    <g id="ytick_5">
     <g id="line2d_37">
      <path clip-path="url(#p8301ab20d1)" d="M 33.73 71.6857 
L 490.68 71.6857 
" style="fill:none;stroke:#ffffff;stroke-linecap:square;stroke-width:0.8;"/>
     </g>
     <g id="line2d_38">
      <g>
       <use style="fill:#555555;stroke:#555555;stroke-width:0.8;" x="33.73" xlink:href="#m2f28cf4eb2" y="71.6857"/>
      </g>
     </g>
     <g id="text_19">
      <!-- 1.3 -->
      <g style="fill:#555555;" transform="translate(10.826875 75.484919)scale(0.1 -0.1)">
       <use xlink:href="#DejaVuSans-31"/>
       <use x="63.623047" xlink:href="#DejaVuSans-2e"/>
       <use x="95.410156" xlink:href="#DejaVuSans-33"/>
      </g>
     </g>
    </g>
    <g id="ytick_6">
     <g id="line2d_39">
      <path clip-path="url(#p8301ab20d1)" d="M 33.73 27.836952 
L 490.68 27.836952 
" style="fill:none;stroke:#ffffff;stroke-linecap:square;stroke-width:0.8;"/>
     </g>
     <g id="line2d_40">
      <g>
       <use style="fill:#555555;stroke:#555555;stroke-width:0.8;" x="33.73" xlink:href="#m2f28cf4eb2" y="27.836952"/>
      </g>
     </g>
     <g id="text_20">
      <!-- 1.4 -->
      <defs>
       <path d="M 37.796875 64.3125 
L 12.890625 25.390625 
L 37.796875 25.390625 
z
M 35.203125 72.90625 
L 47.609375 72.90625 
L 47.609375 25.390625 
L 58.015625 25.390625 
L 58.015625 17.1875 
L 47.609375 17.1875 
L 47.609375 0 
L 37.796875 0 
L 37.796875 17.1875 
L 4.890625 17.1875 
L 4.890625 26.703125 
z
" id="DejaVuSans-34"/>
      </defs>
      <g style="fill:#555555;" transform="translate(10.826875 31.636171)scale(0.1 -0.1)">
       <use xlink:href="#DejaVuSans-31"/>
       <use x="63.623047" xlink:href="#DejaVuSans-2e"/>
       <use x="95.410156" xlink:href="#DejaVuSans-34"/>
      </g>
     </g>
    </g>
   </g>
   <g id="line2d_41">
    <path clip-path="url(#p8301ab20d1)" d="M 54.500455 218.448582 
L 54.853994 226.704083 
L 55.207534 203.491029 
L 56.621692 202.370754 
L 56.975232 201.836387 
L 57.328772 200.254386 
L 57.682311 200.823727 
L 58.74293 200.10965 
L 59.09647 198.134685 
L 59.45001 194.889141 
L 59.803549 209.536597 
L 60.157089 194.843345 
L 61.217708 194.918379 
L 61.571248 195.260969 
L 61.924787 192.121636 
L 62.278327 192.121636 
L 62.631867 196.057587 
L 63.692485 195.314658 
L 64.046025 195.500226 
L 64.399565 197.50243 
L 64.753104 197.496931 
L 65.106644 195.351456 
L 66.167263 194.638343 
L 66.520803 193.22273 
L 66.874342 195.003419 
L 67.227882 201.407413 
L 67.581422 190.617229 
L 68.642041 191.724322 
L 68.99558 189.939871 
L 69.34912 186.035666 
L 70.056199 189.532999 
L 71.823897 189.347615 
L 72.177437 186.912308 
L 72.530977 183.648637 
L 73.591596 184.349647 
L 73.945135 183.423544 
L 74.298675 184.627788 
L 74.652215 209.342357 
L 75.005754 186.136597 
L 76.066373 185.420153 
L 76.419913 184.658474 
L 76.773453 185.601651 
L 77.126992 191.246117 
L 77.480532 181.049169 
L 78.541151 181.577424 
L 79.24823 182.301551 
L 79.60177 181.678495 
L 81.015928 179.893676 
L 81.369468 177.896585 
L 82.076547 171.658627 
L 83.490706 171.658627 
L 83.844246 173.183274 
L 84.197785 172.961303 
L 84.551325 170.718001 
L 85.965484 170.718001 
L 86.319023 172.516712 
L 86.672563 172.746856 
L 87.026103 172.834597 
L 87.379642 175.501496 
L 88.793801 172.970871 
L 89.14734 174.239362 
L 89.50088 179.53109 
L 89.85442 161.941744 
L 90.915039 165.71421 
L 91.268578 168.770836 
L 91.622118 165.464552 
L 91.975658 175.996339 
L 92.329197 169.01602 
L 93.389816 171.07457 
L 93.743356 168.546488 
L 94.096896 163.162949 
L 94.803975 165.47897 
L 95.864594 164.613439 
L 96.571673 163.123222 
L 96.925213 169.647074 
L 97.278752 159.543104 
L 98.692911 161.660963 
L 99.046451 161.732051 
L 99.39999 156.065556 
L 99.75353 161.546395 
L 100.814149 158.597891 
L 101.167689 159.43435 
L 101.521228 159.43435 
L 101.874768 157.55758 
L 102.228308 157.96133 
L 103.288926 158.794439 
L 103.642466 156.435841 
L 103.996006 157.381255 
L 104.349545 164.859065 
L 104.703085 155.081353 
L 105.763704 154.267941 
L 106.117244 153.662451 
L 106.470783 153.662451 
L 106.824323 154.988289 
L 107.177863 157.344589 
L 108.238482 157.92312 
L 108.592021 157.324848 
L 108.945561 157.948693 
L 109.65264 150.134153 
L 111.420338 158.874857 
L 111.773878 159.860323 
L 113.188037 149.204314 
L 113.541576 153.852738 
L 113.895116 152.658245 
L 114.248656 177.684002 
L 114.602195 154.384079 
L 115.662814 156.422116 
L 116.016354 153.870944 
L 116.369894 153.565441 
L 117.076973 155.548535 
L 118.491132 155.441448 
L 118.844671 157.049259 
L 119.198211 155.55713 
L 119.55175 153.239627 
L 120.612369 153.501684 
L 120.965909 150.981539 
L 121.319449 151.879658 
L 121.672988 156.776877 
L 122.026528 151.069745 
L 123.087147 150.459055 
L 123.440687 149.72037 
L 123.794226 148.209728 
L 124.147766 158.984304 
L 124.501306 151.143038 
L 125.561925 152.355206 
L 126.269004 152.355206 
L 126.622544 153.112636 
L 126.976083 154.633223 
L 128.036702 153.093453 
L 128.390242 153.093453 
L 128.743781 154.417023 
L 129.097321 154.003375 
L 129.450861 156.66403 
L 130.51148 154.339239 
L 130.865019 153.926886 
L 131.218559 152.371347 
L 131.572099 153.741607 
L 131.925638 151.694879 
L 132.986257 175.637569 
L 133.693337 175.556918 
L 134.046876 171.451417 
L 134.400416 176.317488 
L 135.814574 173.795194 
L 136.168114 176.320628 
L 136.521654 187.24091 
L 136.875193 176.298038 
L 137.935812 174.507501 
L 138.642892 172.237741 
L 138.996431 171.63647 
L 139.349971 175.686803 
L 140.76413 175.987081 
L 141.471209 173.788678 
L 141.824749 173.564502 
L 142.885368 170.906315 
L 143.238907 172.14504 
L 143.592447 174.729414 
L 143.945986 174.584244 
L 144.299526 174.859334 
L 145.360145 172.304727 
L 145.713685 176.773275 
L 146.067224 177.736476 
L 146.420764 176.628219 
L 146.774304 176.300164 
L 148.542002 173.150745 
L 148.895542 181.605811 
L 149.249081 171.709188 
L 150.3097 175.096591 
L 150.66324 172.360742 
L 151.016779 170.609374 
L 151.370319 171.242009 
L 151.723859 172.345066 
L 152.784478 173.253375 
L 153.138017 174.561511 
L 153.491557 176.470816 
L 153.845097 176.982137 
L 154.198636 174.22388 
L 155.259255 171.034209 
L 155.612795 169.37451 
L 155.966335 164.106028 
L 156.319874 164.387416 
L 156.673414 163.164126 
L 157.734033 162.030774 
L 158.087573 161.391841 
L 158.441112 159.002823 
L 158.794652 159.500398 
L 159.148191 158.440464 
L 160.20881 158.526344 
L 160.56235 159.115242 
L 160.91589 156.649651 
L 161.269429 166.892782 
L 161.622969 156.089534 
L 162.683588 154.067066 
L 163.037128 152.943623 
L 163.744207 155.167862 
L 164.097747 156.434927 
L 165.158366 156.909579 
L 165.865445 154.745565 
L 166.218985 154.560917 
L 166.572524 155.114525 
L 167.633143 154.703819 
L 167.986683 155.307763 
L 168.340222 154.633841 
L 168.693762 155.196017 
L 169.047302 155.096649 
L 170.46146 154.361474 
L 171.16854 152.981523 
L 171.522079 152.21956 
L 172.582698 153.813917 
L 172.936238 154.967447 
L 173.289778 156.740655 
L 173.643317 157.574475 
L 173.996857 157.968815 
L 175.057476 158.217272 
L 175.764555 160.02937 
L 176.118095 157.360877 
L 176.471634 156.894239 
L 177.532253 157.504505 
L 177.885793 157.202515 
L 178.239333 158.148327 
L 178.592872 164.868715 
L 178.946412 159.088257 
L 180.007031 160.255952 
L 180.360571 160.952566 
L 180.71411 162.215936 
L 181.06765 165.776038 
L 181.42119 167.417021 
L 182.481809 166.648746 
L 182.835348 164.617803 
L 183.188888 167.453063 
L 183.542427 175.243486 
L 183.895967 175.464772 
L 184.956586 178.497502 
L 185.310126 178.889656 
L 185.663665 178.154038 
L 186.017205 187.879952 
L 186.370745 179.571697 
L 187.784903 181.064895 
L 188.138443 180.297233 
L 188.491983 179.892617 
L 188.845522 178.781077 
L 189.906141 176.199089 
L 190.259681 174.078455 
L 190.96676 171.969772 
L 191.3203 174.625545 
L 192.734458 173.48861 
L 193.087998 173.687939 
L 193.441538 171.375552 
L 193.795077 166.959623 
L 194.855696 167.419328 
L 195.209236 167.76908 
L 195.562776 167.65952 
L 195.916315 177.344047 
L 196.269855 170.139989 
L 197.330474 170.32195 
L 197.684014 171.155371 
L 198.744632 164.954351 
L 199.805251 164.030379 
L 200.512331 161.759416 
L 200.86587 160.182127 
L 201.21941 160.754917 
L 202.280029 160.778542 
L 202.987108 157.03577 
L 203.340648 156.03479 
L 203.694188 152.73393 
L 205.108346 152.620612 
L 205.461886 154.064145 
L 205.815426 153.80811 
L 206.168965 153.059491 
L 207.229584 155.05546 
L 207.936663 158.467934 
L 208.290203 156.816338 
L 208.643743 161.599414 
L 210.057901 161.528383 
L 210.411441 163.499657 
L 210.764981 161.640026 
L 211.11852 161.263055 
L 212.532679 163.99407 
L 212.886219 155.176306 
L 213.239758 159.330334 
L 213.593298 158.343985 
L 214.653917 160.078744 
L 215.007456 159.732914 
L 215.360996 156.938659 
L 215.714536 151.927246 
L 216.068075 150.596472 
L 217.482234 156.322655 
L 217.835774 159.133203 
L 218.189313 159.354544 
L 218.542853 157.369479 
L 219.603472 157.295218 
L 219.957012 158.15566 
L 220.310551 155.890111 
L 220.664091 161.599668 
L 221.017631 158.315853 
L 222.07825 155.61933 
L 222.431789 155.615825 
L 222.785329 152.26188 
L 223.138868 154.540924 
L 223.492408 154.368897 
L 224.553027 155.032075 
L 224.906567 155.450673 
L 225.260106 154.745218 
L 225.613646 153.682774 
L 225.967186 155.097234 
L 227.027805 156.807993 
L 227.381344 156.516554 
L 227.734884 158.465374 
L 228.088424 164.384266 
L 228.441963 164.213301 
L 229.856122 164.387482 
L 230.209662 166.027555 
L 230.563201 165.416868 
L 230.916741 165.416868 
L 231.97736 166.794048 
L 232.330899 169.018942 
L 232.684439 174.319994 
L 233.391518 170.704853 
L 234.452137 174.156589 
L 234.805677 174.032907 
L 235.159217 176.058159 
L 235.512756 176.058159 
L 235.866296 181.525014 
L 236.926915 187.108121 
L 237.280455 185.925417 
L 237.633994 182.48359 
L 237.987534 183.396425 
L 238.341074 182.232537 
L 239.401692 179.672276 
L 239.755232 179.56944 
L 240.108772 179.902909 
L 240.462311 180.959907 
L 240.815851 180.010843 
L 242.23001 187.383337 
L 242.937089 184.487278 
L 243.290629 186.171257 
L 244.351248 186.456679 
L 245.058327 184.943444 
L 245.411867 182.998461 
L 245.765406 182.484047 
L 246.826025 181.777739 
L 247.179565 183.960204 
L 247.533104 187.77487 
L 247.886644 189.915054 
L 249.300803 193.659693 
L 249.654342 193.509874 
L 250.007882 191.347728 
L 250.361422 192.310221 
L 250.714961 194.551571 
L 251.77558 191.377664 
L 252.836199 184.390497 
L 253.189739 185.092136 
L 254.250358 182.83868 
L 254.603897 182.83868 
L 254.957437 179.072492 
L 255.310977 180.981316 
L 255.664516 181.869614 
L 257.078675 182.07861 
L 257.432215 182.07861 
L 257.785754 178.620635 
L 258.139294 181.727819 
L 259.199913 183.688058 
L 259.553453 180.106543 
L 259.906992 181.062793 
L 260.260532 181.53729 
L 260.614072 180.967985 
L 261.674691 181.997908 
L 262.02823 183.559659 
L 262.38177 182.251333 
L 262.735309 182.240326 
L 263.088849 181.378368 
L 264.856547 184.660714 
L 265.210087 183.037143 
L 265.563627 186.238987 
L 266.624246 187.243417 
L 266.977785 184.738829 
L 267.684865 189.121366 
L 268.038404 191.147395 
L 269.452563 190.766084 
L 269.806103 191.888682 
L 270.159642 191.251256 
L 270.513182 195.164286 
L 271.573801 193.221274 
L 271.92734 193.789904 
L 272.28088 190.1535 
L 272.987959 191.616668 
L 274.048578 189.310166 
L 274.402118 188.147513 
L 274.755658 190.111353 
L 275.109197 186.686927 
L 275.462737 184.74052 
L 276.523356 185.15298 
L 277.230435 182.813486 
L 277.583975 179.292779 
L 277.937515 178.049566 
L 278.998133 178.748922 
L 279.351673 177.236519 
L 279.705213 173.87868 
L 280.058752 175.109154 
L 280.412292 173.877896 
L 281.472911 174.921326 
L 281.826451 175.74515 
L 282.53353 175.420768 
L 282.88707 172.017919 
L 283.947689 173.43222 
L 284.301228 172.523495 
L 284.654768 171.24988 
L 285.008308 168.759557 
L 285.361847 167.91641 
L 286.422466 168.103434 
L 286.776006 167.481306 
L 287.836625 159.638074 
L 288.897244 158.598117 
L 289.250783 156.017942 
L 289.604323 154.497986 
L 289.957863 153.577675 
L 290.311402 154.740362 
L 291.372021 157.507509 
L 291.725561 171.761014 
L 292.079101 153.130783 
L 292.43264 152.035859 
L 292.78618 153.691959 
L 293.846799 155.973492 
L 294.200338 172.637184 
L 294.553878 171.520635 
L 294.907418 151.930499 
L 295.260957 165.905154 
L 296.321576 145.291938 
L 296.675116 145.97546 
L 297.028656 164.674916 
L 297.382195 144.947126 
L 297.735735 159.392155 
L 299.149894 142.052623 
L 299.503433 140.705429 
L 299.856973 140.59278 
L 300.210513 138.838003 
L 301.271132 154.374239 
L 301.624671 152.638331 
L 301.978211 153.416508 
L 302.33175 152.795036 
L 302.68529 135.795165 
L 303.745909 152.356121 
L 304.099449 150.26719 
L 304.452988 134.050207 
L 304.806528 150.844395 
L 305.160068 132.20136 
L 306.220687 132.767935 
L 306.574226 148.781049 
L 306.927766 128.054594 
L 307.281306 147.318066 
L 307.634845 128.965278 
L 308.695464 137.945252 
L 309.049004 137.871178 
L 309.402544 133.679046 
L 309.756083 152.872853 
L 310.109623 137.363853 
L 311.170242 135.429546 
L 311.523781 133.727447 
L 311.877321 150.476282 
L 312.230861 149.357799 
L 312.5844 146.976565 
L 313.645019 144.33352 
L 313.998559 127.417017 
L 314.352099 127.920532 
L 314.705638 145.667841 
L 315.059178 130.88804 
L 316.119797 148.042724 
L 316.473337 131.395055 
L 316.826876 131.59496 
L 317.180416 147.141188 
L 317.533956 134.523713 
L 318.594574 133.832946 
L 318.948114 133.754567 
L 319.301654 132.989356 
L 319.655193 146.737818 
L 320.008733 131.496656 
L 321.069352 145.828132 
L 321.422892 145.828132 
L 321.776431 124.523357 
L 322.129971 122.434999 
L 322.483511 138.740619 
L 323.54413 121.992566 
L 323.897669 136.371349 
L 324.251209 119.749595 
L 324.958288 126.943007 
L 326.018907 127.467795 
L 326.372447 142.538381 
L 326.725986 141.767265 
L 327.433066 142.804862 
L 328.493685 126.626335 
L 328.847224 126.63687 
L 329.200764 144.276647 
L 329.554304 128.013704 
L 329.907843 145.845177 
L 330.968462 130.79301 
L 331.322002 146.4681 
L 331.675542 142.421538 
L 332.029081 144.887468 
L 332.382621 158.496681 
L 333.44324 147.548634 
L 334.150319 143.686479 
L 334.857398 147.44493 
L 335.918017 146.512647 
L 336.271557 145.77672 
L 336.625097 150.836255 
L 336.978636 152.703671 
L 337.332176 160.63693 
L 338.392795 141.43383 
L 338.746335 153.93853 
L 339.099874 138.851295 
L 339.453414 140.667939 
L 339.806954 157.523796 
L 341.221112 155.744498 
L 341.574652 155.744498 
L 341.928191 137.113523 
L 342.281731 132.163505 
L 343.34235 131.289154 
L 343.69589 131.578174 
L 344.049429 125.530127 
L 344.402969 124.193828 
L 344.756509 121.132587 
L 346.170667 118.913145 
L 346.524207 117.880791 
L 346.877747 121.980652 
L 347.231286 117.57546 
L 348.291905 115.437369 
L 348.645445 110.937281 
L 348.998985 110.118093 
L 349.352524 113.298079 
L 349.706064 111.580863 
L 350.766683 113.128668 
L 351.120222 114.425008 
L 351.473762 113.995667 
L 351.827302 114.134585 
L 352.180841 111.80863 
L 353.24146 112.565389 
L 353.595 117.215817 
L 353.94854 123.848794 
L 354.302079 121.589133 
L 355.716238 127.574485 
L 356.423317 119.347199 
L 356.776857 117.00029 
L 357.130397 115.901755 
L 358.544555 115.781798 
L 358.898095 114.417053 
L 359.605174 108.115279 
L 360.665793 108.115279 
L 361.019333 104.45272 
L 361.726412 108.48083 
L 362.079952 109.886871 
L 363.140571 109.621146 
L 363.84765 105.295455 
L 364.20119 108.974657 
L 364.554729 108.974657 
L 365.615348 107.804537 
L 366.322427 102.278263 
L 366.675967 104.190324 
L 367.029507 108.25927 
L 368.090126 106.825824 
L 368.443665 107.571364 
L 368.797205 108.721047 
L 369.150745 107.01727 
L 369.504284 105.925299 
L 370.564903 110.454967 
L 370.918443 110.481598 
L 371.625522 113.402621 
L 373.039681 110.730997 
L 373.393221 107.79782 
L 373.74676 110.116461 
L 374.1003 110.05085 
L 374.453839 108.267471 
L 375.514458 107.501739 
L 376.221538 132.380049 
L 376.575077 132.327325 
L 376.928617 133.13862 
L 377.989236 130.497217 
L 378.342776 133.570301 
L 378.696315 131.758368 
L 379.049855 124.104424 
L 379.403395 122.981481 
L 380.464014 125.973994 
L 380.817553 125.431587 
L 381.171093 124.271892 
L 381.524632 124.671285 
L 381.878172 120.865922 
L 382.938791 116.693395 
L 383.292331 113.569177 
L 383.64587 113.569177 
L 384.35295 117.793651 
L 385.413569 120.919424 
L 385.767108 118.12788 
L 386.120648 119.170323 
L 386.474188 119.170323 
L 386.827727 117.771777 
L 387.888346 116.410259 
L 388.241886 114.575425 
L 388.595426 113.455259 
L 388.948965 114.883783 
L 389.302505 114.681405 
L 390.363124 124.564992 
L 390.716663 124.111197 
L 391.070203 122.022207 
L 391.423743 126.337942 
L 391.777282 127.958674 
L 392.837901 126.504347 
L 393.544981 127.232251 
L 393.89852 128.675163 
L 394.25206 127.689494 
L 395.312679 128.288203 
L 395.666219 124.403543 
L 396.373298 123.362236 
L 396.726838 120.961961 
L 397.787456 126.846547 
L 398.140996 127.724712 
L 398.494536 127.009925 
L 398.848075 126.819653 
L 399.201615 129.216277 
L 400.262234 130.366169 
L 400.969313 138.411076 
L 401.322853 137.538786 
L 401.676393 135.83783 
L 402.737012 136.344953 
L 403.090551 141.650894 
L 403.444091 141.154794 
L 404.15117 142.01086 
L 405.211789 137.862566 
L 405.565329 131.853482 
L 405.918868 132.44909 
L 406.272408 131.982482 
L 406.625948 128.743757 
L 407.686567 130.778351 
L 408.393646 124.811544 
L 408.747186 127.128142 
L 409.100725 128.187222 
L 410.161344 125.866198 
L 410.514884 124.259383 
L 410.868424 127.238777 
L 411.221963 126.42542 
L 411.575503 126.80252 
L 412.636122 129.666842 
L 412.989662 128.704054 
L 413.343201 125.732089 
L 413.696741 125.114341 
L 414.05028 123.037855 
L 415.110899 121.067368 
L 415.817979 120.975535 
L 416.171518 118.012931 
L 416.525058 119.940154 
L 417.585677 121.501612 
L 417.939217 122.578362 
L 418.292756 113.820911 
L 418.646296 113.639483 
L 418.999836 116.442062 
L 420.060455 122.464237 
L 420.413994 125.559649 
L 420.767534 124.785089 
L 421.121074 126.693327 
L 421.474613 127.540704 
L 422.535232 129.641238 
L 423.242311 127.845533 
L 423.595851 124.968134 
L 423.949391 126.62674 
L 425.01001 129.187316 
L 425.363549 127.617913 
L 425.717089 124.213419 
L 426.070629 123.727329 
L 426.424168 122.509223 
L 427.838327 123.336948 
L 428.191867 120.827451 
L 428.545406 120.920991 
L 428.898946 116.102247 
L 429.959565 118.322478 
L 430.313104 123.734868 
L 430.666644 126.054492 
L 431.020184 126.430915 
L 431.373723 120.19449 
L 432.434342 119.724798 
L 432.787882 120.971391 
L 433.141422 119.138638 
L 433.494961 116.274629 
L 433.848501 111.761526 
L 434.90912 111.183774 
L 435.26266 108.345316 
L 435.616199 106.954235 
L 435.969739 106.174347 
L 436.323279 106.510402 
L 437.383897 107.878942 
L 437.737437 107.390653 
L 438.090977 108.218231 
L 438.444516 105.223689 
L 438.798056 106.111161 
L 440.212215 113.794051 
L 440.565754 110.799021 
L 440.919294 113.944354 
L 441.272834 125.185559 
L 442.333453 123.665534 
L 442.686992 122.540162 
L 443.040532 123.73719 
L 443.394072 121.637628 
L 443.747611 122.478841 
L 444.80823 124.319397 
L 445.16177 127.857938 
L 445.515309 134.782278 
L 445.868849 131.152392 
L 446.222389 134.613847 
L 447.283008 134.587585 
L 447.636547 135.496186 
L 447.990087 133.71933 
L 448.343627 129.517348 
L 448.697166 129.550672 
L 449.757785 126.576164 
L 450.111325 126.578739 
L 450.464865 122.891089 
L 450.818404 121.830286 
L 451.171944 119.635696 
L 452.232563 123.771968 
L 452.939642 120.949201 
L 453.293182 122.599705 
L 453.646721 121.113072 
L 454.70734 121.613224 
L 455.06088 122.578267 
L 455.41442 125.248713 
L 456.121499 125.071682 
L 457.535658 130.909409 
L 457.889197 130.350298 
L 458.242737 127.292486 
L 458.596277 122.912767 
L 459.656896 124.006674 
L 460.010435 121.890285 
L 460.717515 122.0151 
L 461.071054 120.169061 
L 462.131673 118.474832 
L 462.485213 121.606609 
L 462.838752 123.71882 
L 463.192292 127.766084 
L 463.545832 129.304591 
L 464.606451 131.50719 
L 464.95999 130.390488 
L 465.31353 133.295276 
L 465.66707 134.991674 
L 466.020609 137.623543 
L 467.081228 136.545201 
L 467.434768 136.611955 
L 467.788308 143.066054 
L 468.141847 140.464035 
L 468.495387 136.874253 
L 468.848926 136.17948 
L 469.556006 135.147311 
L 469.909545 135.147311 
L 469.909545 135.147311 
" style="fill:none;opacity:0.7;stroke:#e24a33;stroke-linecap:square;stroke-width:1.5;"/>
   </g>
   <g id="line2d_42">
    <path clip-path="url(#p8301ab20d1)" d="M 54.500455 205.862869 
L 54.853994 189.721291 
L 55.207534 197.840233 
L 56.268153 213.784257 
L 56.621692 211.339121 
L 56.975232 214.752527 
L 57.682311 199.915916 
L 58.74293 210.434907 
L 59.09647 225.01645 
L 59.45001 209.992482 
L 59.803549 204.199974 
L 60.157089 208.32863 
L 61.217708 202.788308 
L 61.571248 187.585765 
L 61.924787 186.195928 
L 62.278327 191.588733 
L 62.631867 206.33066 
L 63.692485 203.369005 
L 64.046025 203.213784 
L 64.399565 206.827905 
L 64.753104 217.210683 
L 65.106644 218.649188 
L 66.167263 198.885996 
L 66.520803 182.586504 
L 66.874342 180.460225 
L 67.227882 182.581807 
L 67.581422 177.174373 
L 68.642041 173.905845 
L 68.99558 182.578171 
L 69.34912 179.987587 
L 70.056199 191.508811 
L 71.116818 191.72088 
L 71.470358 194.152301 
L 71.823897 203.6575 
L 72.177437 199.062946 
L 73.945135 220.018218 
L 74.298675 211.516184 
L 74.652215 211.057251 
L 75.005754 221.560463 
L 76.066373 225.90694 
L 76.419913 203.013876 
L 76.773453 198.859819 
L 77.126992 199.679663 
L 77.480532 210.289035 
L 78.541151 212.077483 
L 78.894691 210.142373 
L 79.24823 196.007537 
L 79.60177 198.346145 
L 81.015928 215.540767 
L 81.369468 206.799 
L 82.076547 197.898379 
L 83.490706 207.165954 
L 83.844246 202.786579 
L 84.197785 209.554704 
L 84.551325 222.891893 
L 84.904865 226.275956 
L 85.965484 235.231778 
L 86.319023 219.248925 
L 86.672563 215.591433 
L 87.026103 219.494341 
L 87.379642 243.820178 
L 88.793801 227.838643 
L 89.14734 246.467911 
L 89.50088 233.531925 
L 89.85442 179.14661 
L 91.268578 212.037449 
L 91.622118 173.289387 
L 92.329197 177.979799 
L 93.389816 201.915484 
L 93.743356 214.011204 
L 94.450435 171.399215 
L 94.803975 196.352778 
L 95.864594 202.626514 
L 96.218133 219.614775 
L 96.571673 202.752426 
L 96.925213 211.810244 
L 97.278752 199.683822 
L 98.692911 193.344564 
L 99.046451 186.996679 
L 99.39999 174.447822 
L 99.75353 198.695998 
L 100.814149 168.649965 
L 101.521228 182.334662 
L 101.874768 179.651254 
L 102.228308 176.105898 
L 103.288926 178.923291 
L 103.642466 161.297344 
L 103.996006 173.789263 
L 104.349545 171.670636 
L 104.703085 154.886942 
L 105.763704 147.313663 
L 106.117244 155.30406 
L 106.470783 149.910542 
L 106.824323 158.500539 
L 107.177863 156.793119 
L 108.238482 165.801279 
L 108.592021 177.939779 
L 108.945561 165.252489 
L 109.299101 144.068691 
L 109.65264 156.105901 
L 110.713259 157.406064 
L 111.066799 153.584868 
L 111.420338 171.367064 
L 111.773878 179.046258 
L 113.188037 173.118503 
L 113.541576 181.05013 
L 113.895116 161.292334 
L 114.248656 166.17203 
L 114.602195 173.783588 
L 115.662814 179.258564 
L 116.016354 176.844506 
L 116.369894 166.552803 
L 116.723433 170.217385 
L 117.076973 162.256144 
L 118.137592 152.250534 
L 118.491132 146.481137 
L 118.844671 145.712172 
L 119.198211 157.403708 
L 119.55175 158.930712 
L 120.612369 170.598193 
L 120.965909 134.475143 
L 121.319449 141.61438 
L 122.026528 152.032394 
L 123.087147 145.351287 
L 123.440687 142.316644 
L 123.794226 142.982944 
L 124.147766 140.689358 
L 124.501306 141.062275 
L 125.561925 151.975692 
L 125.915464 165.145566 
L 126.269004 170.579949 
L 126.622544 157.487263 
L 126.976083 162.054175 
L 128.036702 166.547941 
L 128.390242 165.527135 
L 128.743781 152.725582 
L 129.097321 151.000967 
L 129.450861 161.91709 
L 130.51148 153.27799 
L 130.865019 158.900652 
L 131.572099 176.071166 
L 131.925638 170.393202 
L 132.986257 189.770894 
L 133.693337 169.387229 
L 134.046876 172.454983 
L 134.400416 178.394283 
L 135.814574 179.114632 
L 136.168114 190.443777 
L 136.521654 189.914591 
L 136.875193 178.929281 
L 137.935812 168.822515 
L 138.289352 164.14457 
L 138.642892 161.620885 
L 138.996431 171.685972 
L 139.349971 190.503063 
L 140.41059 192.225719 
L 140.76413 197.882963 
L 141.117669 183.03616 
L 141.471209 192.042702 
L 141.824749 183.161799 
L 142.885368 174.3107 
L 143.238907 182.83694 
L 143.592447 186.588481 
L 143.945986 182.05042 
L 144.299526 196.30861 
L 145.360145 196.998007 
L 146.067224 182.426152 
L 146.420764 186.167394 
L 146.774304 181.293856 
L 148.188462 190.399533 
L 148.542002 188.827142 
L 148.895542 184.382094 
L 149.249081 182.874778 
L 150.3097 175.64818 
L 150.66324 167.79903 
L 151.016779 171.539202 
L 151.370319 164.780365 
L 151.723859 165.607608 
L 152.784478 166.109549 
L 153.138017 169.116937 
L 153.491557 173.827214 
L 153.845097 170.554827 
L 154.198636 170.893639 
L 155.259255 168.784716 
L 155.612795 172.170298 
L 155.966335 166.571196 
L 156.319874 166.53694 
L 156.673414 163.533477 
L 157.734033 161.730836 
L 158.087573 175.006843 
L 158.794652 159.15764 
L 159.148191 156.382308 
L 160.20881 152.881568 
L 160.56235 156.135608 
L 160.91589 160.574535 
L 161.269429 159.326939 
L 161.622969 156.848293 
L 162.683588 150.48797 
L 163.390667 155.467716 
L 163.744207 153.696668 
L 164.097747 160.639628 
L 165.158366 161.930124 
L 165.511905 155.254396 
L 165.865445 157.25554 
L 166.572524 151.960092 
L 167.633143 157.48293 
L 167.986683 152.144474 
L 168.340222 160.010309 
L 168.693762 159.000196 
L 169.047302 149.963765 
L 170.46146 138.448272 
L 170.815 132.166702 
L 171.16854 133.223822 
L 171.522079 147.741732 
L 172.582698 150.204503 
L 172.936238 149.763276 
L 173.289778 151.778355 
L 173.643317 150.369771 
L 173.996857 152.685686 
L 175.057476 150.388896 
L 175.411015 152.348201 
L 176.118095 138.297276 
L 176.471634 149.673084 
L 177.532253 150.447866 
L 177.885793 152.163921 
L 178.239333 151.602554 
L 178.592872 144.684883 
L 178.946412 154.201874 
L 180.007031 147.140248 
L 180.360571 156.089156 
L 180.71411 157.648478 
L 181.06765 151.474357 
L 181.42119 153.564928 
L 182.481809 147.065841 
L 182.835348 149.537245 
L 183.542427 170.478893 
L 183.895967 165.105237 
L 184.956586 172.899529 
L 185.310126 169.289733 
L 185.663665 167.035794 
L 186.370745 174.120492 
L 187.431364 172.179427 
L 187.784903 168.618244 
L 188.138443 175.785392 
L 188.845522 171.418249 
L 189.906141 171.62524 
L 190.259681 167.654591 
L 190.613221 176.058473 
L 190.96676 178.885866 
L 191.3203 185.597343 
L 192.734458 170.536128 
L 193.087998 161.467126 
L 193.441538 159.055904 
L 193.795077 175.463562 
L 194.855696 166.167623 
L 195.209236 149.369413 
L 195.916315 153.704067 
L 196.269855 153.251379 
L 197.330474 140.540221 
L 197.684014 142.296562 
L 198.037553 150.087785 
L 198.744632 139.703344 
L 199.805251 141.114754 
L 200.158791 145.486754 
L 200.512331 130.725087 
L 200.86587 122.039901 
L 201.21941 132.071347 
L 202.280029 117.52446 
L 202.633569 122.483976 
L 202.987108 119.349851 
L 203.340648 105.809417 
L 203.694188 103.983822 
L 204.754807 84.69394 
L 205.108346 91.374621 
L 205.461886 112.990641 
L 205.815426 113.217614 
L 206.168965 108.398159 
L 207.229584 108.917238 
L 207.583124 102.82681 
L 207.936663 102.878081 
L 208.290203 116.676828 
L 208.643743 121.907817 
L 210.411441 108.303181 
L 210.764981 107.239885 
L 211.11852 110.014245 
L 212.532679 104.010373 
L 212.886219 105.337278 
L 213.239758 108.45941 
L 213.593298 109.708262 
L 214.653917 127.311564 
L 215.007456 122.400187 
L 215.360996 122.439639 
L 215.714536 115.449371 
L 216.068075 128.128209 
L 217.835774 142.021 
L 218.189313 152.168437 
L 218.542853 149.7697 
L 219.603472 147.472328 
L 219.957012 141.720752 
L 220.310551 142.86231 
L 220.664091 150.149776 
L 221.017631 131.594872 
L 222.07825 135.157635 
L 222.431789 142.98866 
L 222.785329 142.590792 
L 223.138868 133.991793 
L 223.492408 135.380163 
L 224.553027 143.16782 
L 224.906567 150.172477 
L 225.260106 151.890232 
L 225.613646 150.123106 
L 225.967186 152.134843 
L 227.027805 152.091084 
L 227.381344 158.184632 
L 227.734884 160.946335 
L 228.088424 174.137154 
L 228.441963 180.039118 
L 229.856122 167.934698 
L 230.209662 178.317721 
L 230.563201 178.040203 
L 230.916741 187.113406 
L 231.97736 189.950971 
L 232.330899 196.63953 
L 232.684439 190.790356 
L 233.037979 191.761149 
L 233.391518 187.122602 
L 234.452137 183.206046 
L 235.512756 213.16071 
L 235.866296 205.758962 
L 236.926915 197.56272 
L 237.280455 200.716514 
L 237.633994 196.40165 
L 237.987534 186.349515 
L 238.341074 185.350342 
L 239.401692 185.551221 
L 239.755232 186.971001 
L 240.108772 191.986043 
L 240.462311 186.497999 
L 240.815851 185.431052 
L 241.87647 197.281056 
L 242.23001 194.453514 
L 242.583549 194.720785 
L 242.937089 189.25938 
L 243.290629 201.772241 
L 244.351248 202.449508 
L 244.704787 196.414341 
L 245.058327 185.743149 
L 245.411867 192.53239 
L 245.765406 203.363964 
L 246.826025 212.038742 
L 247.179565 207.20686 
L 247.533104 217.161914 
L 247.886644 214.6608 
L 249.300803 216.761733 
L 250.007882 225.673736 
L 250.714961 216.457991 
L 252.12912 202.945046 
L 252.48266 206.575638 
L 252.836199 205.942531 
L 253.189739 198.77266 
L 254.250358 197.046447 
L 254.603897 197.150351 
L 254.957437 207.023002 
L 255.310977 213.165307 
L 255.664516 210.831749 
L 256.725135 199.326309 
L 257.078675 197.333868 
L 257.432215 192.139289 
L 257.785754 196.910768 
L 258.139294 207.444545 
L 259.553453 203.40994 
L 260.260532 219.802249 
L 260.614072 209.796744 
L 261.674691 213.015933 
L 262.02823 213.030041 
L 262.38177 215.009009 
L 262.735309 218.702233 
L 263.088849 224.123416 
L 264.503008 217.491273 
L 264.856547 229.111882 
L 265.210087 232.827881 
L 265.563627 232.29645 
L 266.624246 231.449286 
L 266.977785 231.629064 
L 267.684865 238.157911 
L 268.038404 234.280864 
L 269.099023 234.580194 
L 269.452563 232.847392 
L 270.159642 248.901818 
L 270.513182 243.040085 
L 271.573801 236.566932 
L 271.92734 243.230792 
L 272.28088 244.804335 
L 272.63442 230.857578 
L 272.987959 222.142632 
L 274.048578 227.69456 
L 274.755658 224.651111 
L 275.109197 221.957022 
L 275.462737 221.737694 
L 276.523356 218.071886 
L 277.230435 218.073566 
L 277.583975 215.428188 
L 277.937515 211.051246 
L 278.998133 206.632325 
L 279.351673 207.118207 
L 279.705213 193.721072 
L 280.058752 193.607259 
L 280.412292 189.766773 
L 281.472911 194.862394 
L 281.826451 202.498169 
L 282.17999 193.536849 
L 282.53353 193.55407 
L 282.88707 199.746422 
L 283.947689 208.162347 
L 284.654768 197.270858 
L 285.008308 194.9563 
L 285.361847 202.586673 
L 286.422466 202.633611 
L 286.776006 195.265938 
L 287.129545 195.291213 
L 287.483085 188.483422 
L 287.836625 187.938707 
L 288.897244 188.407365 
L 289.250783 183.639386 
L 289.604323 188.499193 
L 289.957863 191.010286 
L 290.311402 195.849808 
L 291.372021 191.547445 
L 291.725561 196.156042 
L 292.079101 192.087194 
L 292.43264 194.441713 
L 292.78618 199.666754 
L 294.200338 195.489933 
L 294.553878 194.059491 
L 295.260957 185.825625 
L 296.321576 181.587035 
L 296.675116 188.871861 
L 297.028656 183.728684 
L 297.382195 173.696298 
L 297.735735 171.980102 
L 299.149894 181.401266 
L 299.503433 177.843982 
L 299.856973 176.262165 
L 300.210513 177.299767 
L 301.624671 173.527679 
L 301.978211 174.088098 
L 302.33175 170.231239 
L 302.68529 169.319986 
L 303.745909 172.612537 
L 304.099449 175.372669 
L 304.452988 169.943869 
L 304.806528 167.433736 
L 305.160068 166.188015 
L 306.220687 164.283077 
L 306.574226 164.430398 
L 306.927766 167.710006 
L 307.281306 162.903966 
L 307.634845 155.711387 
L 308.695464 166.860871 
L 309.049004 168.243177 
L 309.402544 165.381385 
L 309.756083 164.172338 
L 310.109623 167.888306 
L 311.170242 167.821529 
L 311.523781 160.633765 
L 311.877321 159.016784 
L 312.230861 159.867222 
L 312.5844 157.397671 
L 313.645019 156.348136 
L 313.998559 165.388004 
L 314.352099 162.152185 
L 314.705638 168.39663 
L 315.059178 167.410802 
L 316.473337 169.818824 
L 316.826876 173.710298 
L 317.180416 174.534968 
L 317.533956 174.023869 
L 318.594574 165.534995 
L 318.948114 171.808042 
L 319.301654 164.895335 
L 319.655193 166.793833 
L 320.008733 169.348211 
L 321.069352 161.335874 
L 321.422892 151.958695 
L 321.776431 148.016022 
L 322.129971 139.727588 
L 322.483511 139.107047 
L 323.54413 141.918909 
L 323.897669 148.404653 
L 324.251209 150.884324 
L 324.958288 140.277362 
L 326.018907 146.332275 
L 326.372447 140.664081 
L 326.725986 131.51768 
L 327.433066 140.082765 
L 328.493685 142.784069 
L 328.847224 144.27522 
L 329.907843 158.580721 
L 330.968462 153.295056 
L 331.322002 149.637056 
L 331.675542 147.715532 
L 332.029081 163.490809 
L 333.796779 150.504514 
L 334.150319 154.866647 
L 334.503859 149.114781 
L 334.857398 153.386065 
L 335.918017 152.369183 
L 336.271557 158.273189 
L 336.625097 160.771191 
L 336.978636 161.20185 
L 337.332176 149.443999 
L 338.392795 151.680043 
L 338.746335 153.225522 
L 339.099874 155.404751 
L 339.453414 158.990023 
L 339.806954 154.256985 
L 341.221112 149.650978 
L 341.574652 140.16724 
L 341.928191 127.57052 
L 342.281731 125.471066 
L 343.34235 120.620605 
L 343.69589 120.475815 
L 344.049429 124.054267 
L 344.402969 119.947018 
L 344.756509 113.595343 
L 346.170667 122.347936 
L 346.524207 116.747536 
L 346.877747 107.657402 
L 347.231286 110.360093 
L 348.291905 105.625825 
L 348.645445 107.973378 
L 348.998985 105.48225 
L 349.352524 99.743814 
L 349.706064 113.234445 
L 350.766683 119.091941 
L 351.120222 113.559871 
L 351.473762 111.789459 
L 351.827302 109.065803 
L 352.180841 115.475896 
L 353.24146 129.148574 
L 353.94854 120.956244 
L 354.302079 137.841835 
L 354.655619 145.171564 
L 356.069778 118.584475 
L 356.423317 113.041245 
L 356.776857 104.482761 
L 357.130397 115.074207 
L 358.544555 117.027965 
L 359.251634 98.618854 
L 359.605174 98.305675 
L 360.665793 86.104553 
L 361.372872 113.841172 
L 361.726412 113.416252 
L 362.079952 118.004619 
L 363.49411 104.31762 
L 363.84765 117.668848 
L 364.20119 114.770785 
L 364.554729 107.487755 
L 365.615348 107.344951 
L 366.322427 118.100823 
L 366.675967 124.888335 
L 367.029507 120.850542 
L 368.090126 119.723917 
L 368.443665 116.70229 
L 368.797205 103.825958 
L 369.504284 120.348608 
L 370.918443 125.570048 
L 371.271983 129.557681 
L 371.625522 117.135829 
L 373.393221 124.068949 
L 373.74676 120.376855 
L 374.1003 111.457116 
L 374.453839 118.620146 
L 375.514458 179.565274 
L 375.867998 176.207219 
L 376.575077 120.602323 
L 376.928617 144.049227 
L 377.989236 152.513154 
L 378.696315 128.877179 
L 379.049855 127.640679 
L 379.403395 139.223308 
L 380.464014 134.474463 
L 380.817553 127.386847 
L 381.171093 133.722024 
L 381.524632 128.474337 
L 381.878172 114.739986 
L 382.938791 122.911456 
L 383.292331 130.346878 
L 383.64587 131.269341 
L 383.99941 130.650238 
L 384.35295 114.277895 
L 385.413569 116.801788 
L 385.767108 123.737959 
L 386.120648 117.552947 
L 386.474188 102.689112 
L 386.827727 101.420561 
L 387.888346 106.099481 
L 388.241886 116.762623 
L 388.595426 108.780261 
L 388.948965 108.716674 
L 389.302505 117.314613 
L 390.363124 119.694984 
L 390.716663 112.870823 
L 391.070203 131.119184 
L 391.423743 128.038149 
L 391.777282 132.815115 
L 392.837901 130.655335 
L 393.191441 133.105544 
L 393.544981 123.255431 
L 393.89852 123.884898 
L 394.25206 125.283396 
L 395.312679 120.531827 
L 395.666219 127.51452 
L 396.019758 125.739815 
L 396.373298 127.131276 
L 396.726838 138.872987 
L 397.787456 137.149554 
L 398.140996 139.284977 
L 398.848075 133.03354 
L 399.201615 149.146068 
L 400.262234 152.449613 
L 400.615774 149.771111 
L 400.969313 134.16873 
L 401.322853 139.61148 
L 401.676393 130.254118 
L 402.737012 134.377229 
L 403.090551 141.93521 
L 403.444091 139.19875 
L 403.797631 135.214025 
L 404.15117 122.547496 
L 405.211789 125.56735 
L 405.565329 123.915363 
L 405.918868 123.201531 
L 406.272408 112.96291 
L 406.625948 109.034108 
L 407.686567 98.807186 
L 408.040106 96.530465 
L 408.393646 108.794406 
L 408.747186 114.477521 
L 409.100725 111.516432 
L 410.161344 111.016845 
L 410.868424 119.198316 
L 411.221963 126.502466 
L 411.575503 126.723212 
L 412.636122 119.358453 
L 412.989662 118.613119 
L 413.696741 113.021423 
L 414.05028 115.319297 
L 415.110899 108.581931 
L 415.464439 103.608522 
L 416.171518 119.293606 
L 416.525058 115.712092 
L 417.585677 116.079823 
L 417.939217 118.246383 
L 418.292756 136.71481 
L 418.646296 141.742104 
L 418.999836 139.851532 
L 420.060455 137.319989 
L 420.413994 116.227207 
L 420.767534 139.763094 
L 421.474613 136.02734 
L 422.535232 133.38515 
L 422.888772 127.025602 
L 423.242311 133.746267 
L 423.595851 135.158352 
L 423.949391 122.733689 
L 425.01001 118.858774 
L 425.363549 123.238731 
L 425.717089 120.042778 
L 426.070629 120.709462 
L 426.424168 114.979775 
L 427.838327 123.204557 
L 428.191867 121.857157 
L 428.898946 134.36113 
L 429.959565 132.057534 
L 431.020184 103.817214 
L 431.373723 108.662703 
L 432.434342 108.586905 
L 432.787882 103.96501 
L 433.141422 101.821264 
L 433.494961 104.506679 
L 433.848501 110.075116 
L 434.90912 102.807144 
L 435.26266 98.617381 
L 435.616199 105.035294 
L 435.969739 95.958269 
L 436.323279 93.368616 
L 437.383897 91.832673 
L 437.737437 97.951659 
L 438.090977 95.256712 
L 438.444516 108.6828 
L 438.798056 102.426961 
L 439.858675 99.421767 
L 440.212215 94.91184 
L 440.565754 109.4443 
L 440.919294 117.369793 
L 441.272834 103.676578 
L 442.333453 109.133746 
L 442.686992 103.773885 
L 443.040532 107.129875 
L 443.394072 117.166489 
L 443.747611 115.447341 
L 444.80823 120.024292 
L 445.16177 127.298567 
L 445.515309 122.237975 
L 445.868849 122.784203 
L 446.222389 131.340984 
L 447.283008 129.939466 
L 447.636547 127.479594 
L 447.990087 117.877573 
L 448.343627 116.417481 
L 449.757785 107.29492 
L 450.111325 105.93417 
L 450.464865 96.431651 
L 450.818404 101.791149 
L 451.171944 115.501357 
L 452.232563 113.51295 
L 452.586103 112.466088 
L 452.939642 107.340298 
L 453.293182 94.200548 
L 453.646721 107.931792 
L 454.70734 111.513779 
L 455.06088 122.193887 
L 455.41442 116.79761 
L 456.121499 125.508738 
L 457.182118 141.932444 
L 458.242737 105.412072 
L 458.596277 116.757323 
L 459.656896 101.689064 
L 460.010435 109.033821 
L 460.717515 110.50149 
L 461.071054 99.874493 
L 462.131673 108.851758 
L 462.485213 114.137826 
L 462.838752 115.272793 
L 463.192292 115.004285 
L 463.545832 122.378625 
L 464.606451 122.229477 
L 464.95999 125.757084 
L 465.31353 124.463931 
L 465.66707 129.458641 
L 466.020609 130.877603 
L 467.081228 128.718674 
L 467.434768 125.675951 
L 467.788308 124.9045 
L 468.141847 128.134675 
L 468.495387 119.235239 
L 468.848926 114.310385 
L 469.556006 111.452969 
L 469.909545 111.452969 
L 469.909545 111.452969 
" style="fill:none;opacity:0.7;stroke:#348abd;stroke-linecap:square;stroke-width:1.5;"/>
   </g>
   <g id="line2d_43">
    <path clip-path="url(#p8301ab20d1)" d="M 54.500455 205.862869 
L 54.853994 197.128937 
L 55.207534 199.836863 
L 56.268153 205.805134 
L 56.621692 204.259122 
L 56.975232 200.163547 
L 57.328772 194.726002 
L 57.682311 186.019666 
L 58.74293 189.408845 
L 59.09647 189.686896 
L 59.45001 179.80934 
L 59.803549 163.982633 
L 60.157089 172.711542 
L 61.217708 169.130325 
L 61.571248 170.738501 
L 61.924787 170.502272 
L 62.278327 171.788884 
L 62.631867 176.558609 
L 63.692485 170.395968 
L 64.046025 170.690184 
L 64.399565 171.741797 
L 64.753104 175.778475 
L 65.106644 174.869395 
L 66.520803 162.083297 
L 66.874342 165.754364 
L 67.227882 168.174342 
L 67.581422 165.230971 
L 68.642041 166.104601 
L 68.99558 162.200227 
L 69.34912 160.290962 
L 70.056199 159.935267 
L 71.116818 156.102958 
L 71.470358 150.723734 
L 71.823897 155.05747 
L 72.177437 157.749713 
L 72.530977 147.915273 
L 73.591596 147.41828 
L 73.945135 144.67377 
L 74.298675 140.432433 
L 74.652215 141.526162 
L 75.005754 149.808544 
L 76.066373 153.30166 
L 76.419913 138.54264 
L 76.773453 128.978389 
L 77.126992 131.918545 
L 77.480532 140.681431 
L 78.541151 136.415011 
L 78.894691 132.576282 
L 79.24823 126.954113 
L 79.60177 126.938134 
L 81.015928 134.917355 
L 81.723008 113.961181 
L 82.076547 115.347162 
L 83.490706 128.04042 
L 83.844246 125.045395 
L 84.197785 130.559841 
L 84.551325 139.082166 
L 84.904865 143.709674 
L 85.965484 149.108432 
L 86.319023 125.411083 
L 86.672563 124.277245 
L 87.026103 128.595327 
L 87.379642 136.909842 
L 88.793801 119.946252 
L 89.14734 131.933953 
L 89.50088 118.604118 
L 89.85442 82.384386 
L 90.915039 105.545278 
L 91.268578 122.653773 
L 91.622118 95.578188 
L 91.975658 116.301489 
L 92.329197 118.41225 
L 93.389816 129.735393 
L 93.743356 128.480381 
L 94.096896 121.327808 
L 94.450435 107.082408 
L 94.803975 131.134313 
L 95.864594 138.820852 
L 96.218133 140.285985 
L 96.571673 123.814327 
L 96.925213 132.782976 
L 97.278752 124.932337 
L 98.692911 124.290888 
L 99.046451 125.238084 
L 99.39999 113.458215 
L 99.75353 132.833532 
L 100.814149 113.230144 
L 101.167689 116.275408 
L 101.521228 121.237557 
L 101.874768 118.783754 
L 102.228308 114.474412 
L 103.288926 126.1381 
L 103.642466 116.430031 
L 103.996006 124.445974 
L 104.349545 125.365806 
L 104.703085 120.752554 
L 105.763704 125.33787 
L 106.117244 128.162799 
L 106.470783 128.046706 
L 107.177863 137.58686 
L 108.238482 140.085467 
L 108.592021 142.69357 
L 108.945561 137.718925 
L 109.299101 130.962744 
L 109.65264 145.457185 
L 110.713259 146.401168 
L 111.066799 143.388093 
L 111.420338 152.616633 
L 111.773878 156.518367 
L 113.188037 148.806385 
L 113.541576 152.213355 
L 113.895116 139.318908 
L 114.248656 148.564738 
L 114.602195 147.503967 
L 115.662814 150.517141 
L 116.016354 142.705903 
L 116.369894 140.759689 
L 117.076973 149.616643 
L 118.137592 151.699764 
L 118.491132 154.213639 
L 118.844671 154.009028 
L 119.198211 156.800191 
L 119.55175 152.163207 
L 120.612369 154.649414 
L 120.965909 134.765063 
L 121.319449 152.896193 
L 121.672988 151.64918 
L 122.026528 161.110405 
L 123.087147 153.455626 
L 123.440687 148.451671 
L 123.794226 149.760403 
L 124.147766 160.656373 
L 124.501306 166.274591 
L 125.561925 169.199733 
L 125.915464 172.060449 
L 126.269004 171.749521 
L 126.622544 160.550254 
L 126.976083 163.520147 
L 128.036702 158.861356 
L 128.390242 154.897736 
L 128.743781 154.023106 
L 129.097321 157.205828 
L 129.450861 168.44762 
L 130.51148 167.52811 
L 130.865019 169.20776 
L 131.218559 173.200745 
L 131.572099 172.212776 
L 131.925638 159.666985 
L 132.986257 180.322683 
L 133.339797 171.632531 
L 133.693337 167.922577 
L 134.046876 174.91949 
L 134.400416 178.650835 
L 135.814574 172.259984 
L 136.168114 173.431394 
L 136.521654 168.13474 
L 136.875193 167.885766 
L 137.935812 164.060901 
L 138.289352 169.923012 
L 138.996431 178.351599 
L 139.349971 188.447055 
L 140.41059 183.28583 
L 140.76413 186.636165 
L 141.117669 175.95803 
L 141.471209 179.813929 
L 142.885368 177.191387 
L 143.238907 187.060836 
L 143.592447 186.098204 
L 143.945986 186.413771 
L 144.299526 189.2821 
L 145.360145 195.629887 
L 145.713685 194.291958 
L 146.067224 187.959711 
L 146.420764 186.961071 
L 146.774304 183.524632 
L 148.188462 190.269592 
L 148.895542 180.82695 
L 149.249081 180.130154 
L 150.66324 173.558575 
L 151.016779 174.580428 
L 151.370319 172.196821 
L 151.723859 174.235098 
L 153.138017 178.12579 
L 153.491557 177.178653 
L 154.198636 171.888376 
L 155.612795 163.701003 
L 155.966335 157.69009 
L 156.319874 156.20776 
L 156.673414 154.076301 
L 157.734033 146.713425 
L 158.087573 157.782249 
L 158.441112 151.014099 
L 158.794652 152.429965 
L 159.148191 150.158559 
L 160.20881 155.24348 
L 160.91589 161.7055 
L 161.269429 160.106577 
L 161.622969 159.305888 
L 162.683588 162.022833 
L 163.390667 167.97161 
L 163.744207 165.955859 
L 164.097747 169.938786 
L 165.158366 166.888238 
L 165.511905 162.850636 
L 165.865445 161.126178 
L 166.218985 161.735858 
L 166.572524 160.80325 
L 167.633143 161.577473 
L 167.986683 159.171911 
L 168.340222 162.364888 
L 168.693762 160.312364 
L 169.047302 157.170676 
L 170.46146 160.373774 
L 170.815 159.286326 
L 171.16854 163.107311 
L 171.522079 173.545715 
L 172.582698 173.430633 
L 172.936238 168.545442 
L 173.289778 170.813938 
L 173.643317 168.211448 
L 173.996857 166.500249 
L 175.057476 166.291967 
L 175.411015 166.786439 
L 175.764555 166.340545 
L 176.118095 163.35366 
L 176.471634 169.77934 
L 177.532253 173.104387 
L 177.885793 170.937077 
L 178.239333 171.873872 
L 178.592872 170.642542 
L 178.946412 174.787419 
L 180.007031 174.545828 
L 180.360571 181.780753 
L 180.71411 181.241906 
L 181.06765 181.781513 
L 181.42119 182.58843 
L 182.481809 180.890156 
L 183.542427 191.90168 
L 183.895967 183.329717 
L 184.956586 189.741898 
L 185.310126 186.460355 
L 185.663665 187.642098 
L 186.370745 192.513276 
L 187.431364 189.177156 
L 188.138443 194.652555 
L 188.491983 192.759821 
L 188.845522 189.323232 
L 189.906141 190.396101 
L 190.259681 191.300284 
L 190.613221 193.814707 
L 190.96676 194.040235 
L 191.3203 193.881528 
L 192.734458 181.470745 
L 193.087998 180.24141 
L 193.441538 174.703093 
L 193.795077 179.801969 
L 194.855696 165.619977 
L 195.209236 158.609563 
L 195.562776 160.311231 
L 195.916315 166.171923 
L 196.269855 162.817764 
L 197.330474 159.660777 
L 197.684014 163.718033 
L 198.037553 169.14915 
L 198.744632 159.479673 
L 199.805251 160.353326 
L 200.158791 158.385856 
L 200.512331 157.596077 
L 200.86587 157.88454 
L 201.21941 169.832894 
L 202.280029 163.835987 
L 202.633569 164.90718 
L 203.340648 156.862915 
L 203.694188 158.744293 
L 204.754807 158.534259 
L 205.108346 168.960974 
L 205.461886 174.683747 
L 205.815426 176.572495 
L 206.168965 170.535938 
L 207.229584 169.292565 
L 207.583124 167.559529 
L 207.936663 167.772955 
L 208.290203 174.662459 
L 208.643743 176.257054 
L 210.057901 174.058905 
L 210.411441 176.3706 
L 211.11852 184.222355 
L 212.532679 179.138773 
L 212.886219 176.416758 
L 213.239758 176.725342 
L 213.593298 175.08985 
L 214.653917 187.896057 
L 215.007456 185.744464 
L 215.360996 186.084024 
L 215.714536 185.497348 
L 216.068075 188.147347 
L 217.482234 191.135906 
L 217.835774 192.56801 
L 218.189313 194.506818 
L 218.542853 192.364678 
L 219.603472 191.162975 
L 219.957012 190.157641 
L 220.310551 188.643348 
L 220.664091 190.626703 
L 221.017631 187.281779 
L 222.07825 185.820141 
L 222.431789 187.70295 
L 223.492408 184.952248 
L 224.553027 190.212013 
L 224.906567 194.294083 
L 225.260106 191.291884 
L 225.613646 186.119203 
L 225.967186 187.980156 
L 227.027805 186.677701 
L 227.381344 192.01469 
L 227.734884 191.963773 
L 228.088424 199.772603 
L 228.441963 196.809566 
L 229.856122 186.378631 
L 230.209662 188.078378 
L 230.563201 190.993845 
L 230.916741 191.238832 
L 231.97736 189.849048 
L 232.330899 186.893858 
L 232.684439 181.185025 
L 233.037979 178.770249 
L 233.391518 179.935475 
L 234.452137 177.140129 
L 234.805677 182.239143 
L 235.512756 184.320928 
L 235.866296 178.263825 
L 236.926915 178.223628 
L 237.280455 178.81403 
L 237.987534 175.187118 
L 238.341074 182.271428 
L 239.401692 185.981303 
L 239.755232 193.460955 
L 240.108772 197.226123 
L 240.462311 192.865623 
L 240.815851 194.645164 
L 241.87647 201.978277 
L 242.23001 198.411113 
L 242.583549 197.590637 
L 242.937089 195.720144 
L 243.290629 200.400382 
L 244.351248 205.754287 
L 244.704787 204.178293 
L 245.058327 199.255483 
L 245.411867 205.786674 
L 245.765406 201.388717 
L 247.179565 195.972537 
L 247.886644 202.6749 
L 249.300803 205.822208 
L 249.654342 206.051094 
L 250.007882 207.632301 
L 250.361422 204.721299 
L 250.714961 203.017845 
L 251.77558 202.103489 
L 252.12912 198.839356 
L 252.48266 199.652065 
L 252.836199 196.835162 
L 253.189739 191.706056 
L 254.250358 191.125899 
L 254.603897 191.206133 
L 254.957437 192.121854 
L 255.310977 190.891325 
L 255.664516 185.492484 
L 256.725135 177.161967 
L 257.078675 177.026214 
L 257.432215 177.229844 
L 257.785754 182.116524 
L 258.139294 190.634514 
L 259.199913 194.461293 
L 259.553453 193.239748 
L 259.906992 200.838781 
L 260.260532 198.227673 
L 260.614072 189.512335 
L 261.674691 189.878299 
L 262.02823 193.967919 
L 262.38177 192.670798 
L 262.735309 192.688714 
L 263.088849 194.030963 
L 264.503008 189.291648 
L 264.856547 191.2392 
L 265.210087 187.536748 
L 265.563627 186.490166 
L 266.624246 184.69003 
L 266.977785 186.171552 
L 267.331325 186.020464 
L 267.684865 186.018114 
L 268.038404 183.322153 
L 269.099023 184.283307 
L 269.452563 182.032944 
L 269.806103 182.806202 
L 270.159642 184.360138 
L 270.513182 180.514413 
L 271.573801 171.880636 
L 271.92734 173.704874 
L 272.28088 169.911069 
L 272.63442 158.293677 
L 272.987959 163.037994 
L 274.048578 170.1411 
L 274.402118 173.41105 
L 274.755658 173.130324 
L 275.109197 170.113818 
L 275.462737 173.135397 
L 276.523356 173.201514 
L 277.230435 174.133468 
L 277.583975 173.647356 
L 277.937515 167.965949 
L 278.998133 165.204696 
L 279.351673 166.957967 
L 279.705213 159.451169 
L 280.058752 159.580376 
L 280.412292 161.141571 
L 281.472911 162.624821 
L 281.826451 170.902537 
L 282.17999 165.944547 
L 282.53353 166.12851 
L 282.88707 168.177255 
L 283.947689 169.215049 
L 284.301228 161.756114 
L 284.654768 160.497292 
L 285.008308 160.967121 
L 285.361847 165.452582 
L 286.422466 163.589529 
L 286.776006 159.215265 
L 287.129545 161.205011 
L 287.483085 155.281612 
L 287.836625 153.159231 
L 288.897244 158.322595 
L 289.250783 157.749943 
L 290.311402 165.807138 
L 291.372021 160.054465 
L 291.725561 162.364894 
L 292.079101 160.504331 
L 292.78618 173.294667 
L 293.846799 173.718896 
L 294.200338 171.47591 
L 294.553878 172.242984 
L 294.907418 171.783713 
L 295.260957 170.687581 
L 296.321576 171.307266 
L 296.675116 177.236249 
L 297.028656 174.633422 
L 297.382195 170.301806 
L 297.735735 169.711245 
L 299.149894 179.183824 
L 299.503433 177.656745 
L 299.856973 181.611568 
L 300.210513 183.438675 
L 301.271132 180.975152 
L 301.624671 177.543199 
L 301.978211 176.492182 
L 302.33175 173.111402 
L 302.68529 171.892611 
L 303.745909 172.372719 
L 304.099449 171.379473 
L 304.452988 168.033089 
L 305.160068 167.45228 
L 306.220687 173.065041 
L 306.574226 172.950021 
L 306.927766 172.532669 
L 307.634845 163.140291 
L 308.695464 169.516643 
L 309.049004 169.764514 
L 309.402544 167.927448 
L 309.756083 167.437347 
L 310.109623 168.468215 
L 311.170242 167.175444 
L 311.523781 161.983947 
L 311.877321 163.698656 
L 312.5844 166.323818 
L 313.645019 166.494489 
L 313.998559 170.737757 
L 314.352099 167.769242 
L 314.705638 169.499378 
L 315.059178 164.494047 
L 316.119797 164.409282 
L 316.473337 165.262057 
L 316.826876 166.79682 
L 317.180416 165.190551 
L 317.533956 162.327328 
L 318.594574 159.21563 
L 318.948114 160.754451 
L 319.301654 157.5287 
L 319.655193 158.679987 
L 320.008733 157.505338 
L 321.069352 153.307672 
L 321.776431 152.947794 
L 322.129971 148.831779 
L 322.483511 147.91877 
L 323.54413 147.495469 
L 323.897669 149.741799 
L 324.251209 147.562014 
L 324.604749 138.786005 
L 324.958288 141.101524 
L 326.372447 145.053881 
L 326.725986 142.288835 
L 327.433066 149.803856 
L 328.493685 149.114169 
L 328.847224 148.614186 
L 329.554304 142.347158 
L 329.907843 143.659997 
L 331.322002 138.155567 
L 331.675542 133.34644 
L 332.029081 150.399222 
L 332.382621 145.296791 
L 333.44324 143.248566 
L 333.796779 141.946862 
L 334.150319 144.796198 
L 334.503859 143.498022 
L 334.857398 145.027686 
L 335.918017 139.531988 
L 336.271557 142.172665 
L 336.625097 143.431929 
L 336.978636 141.890304 
L 337.332176 132.546152 
L 338.392795 134.908906 
L 338.746335 140.139228 
L 339.099874 143.691097 
L 339.453414 145.52167 
L 339.806954 144.173242 
L 341.221112 143.474972 
L 342.281731 134.833445 
L 343.34235 133.374606 
L 343.69589 131.282985 
L 344.049429 138.023728 
L 344.402969 136.462429 
L 344.756509 132.146781 
L 346.170667 135.96863 
L 346.524207 135.00907 
L 347.231286 129.350442 
L 348.291905 127.922521 
L 348.645445 124.667114 
L 348.998985 126.088865 
L 349.352524 126.173535 
L 349.706064 126.847823 
L 351.120222 127.72251 
L 351.473762 129.511639 
L 351.827302 130.713015 
L 352.180841 137.362362 
L 353.595 158.955003 
L 353.94854 143.256251 
L 354.302079 158.605903 
L 354.655619 161.084451 
L 355.716238 145.534527 
L 356.069778 145.67876 
L 356.423317 143.717465 
L 356.776857 138.292894 
L 357.130397 141.740412 
L 358.544555 147.04041 
L 358.898095 145.047016 
L 359.251634 145.673679 
L 359.605174 141.741345 
L 360.665793 135.047008 
L 361.372872 149.969419 
L 361.726412 151.322494 
L 362.079952 155.02311 
L 363.140571 147.606557 
L 363.49411 140.034036 
L 363.84765 146.354511 
L 364.554729 133.82583 
L 365.615348 130.361641 
L 365.968888 133.478063 
L 366.322427 134.016777 
L 366.675967 135.520914 
L 367.029507 134.16658 
L 368.443665 136.5791 
L 368.797205 133.747135 
L 369.504284 160.330503 
L 370.564903 156.217416 
L 370.918443 156.384632 
L 371.271983 158.99619 
L 371.625522 152.128204 
L 373.039681 161.407035 
L 373.393221 160.91367 
L 373.74676 156.180071 
L 374.1003 144.902008 
L 374.453839 153.814836 
L 375.514458 150.105592 
L 375.867998 144.313299 
L 376.221538 113.938287 
L 376.575077 96.509582 
L 376.928617 114.008972 
L 377.989236 116.733575 
L 378.342776 104.154438 
L 378.696315 112.426583 
L 379.049855 112.405461 
L 379.403395 121.2393 
L 380.464014 118.674534 
L 380.817553 118.829309 
L 381.171093 123.903043 
L 381.878172 108.153114 
L 382.938791 113.80821 
L 383.292331 118.875888 
L 383.64587 117.656075 
L 383.99941 123.636133 
L 384.35295 105.601421 
L 385.413569 101.747957 
L 385.767108 107.563831 
L 386.474188 94.864214 
L 386.827727 96.942223 
L 387.888346 102.045192 
L 388.241886 106.499817 
L 388.948965 99.153906 
L 389.302505 104.734234 
L 390.363124 112.929575 
L 390.716663 106.742125 
L 391.070203 119.645266 
L 391.423743 117.16955 
L 391.777282 118.32631 
L 392.837901 116.099954 
L 393.191441 116.31401 
L 393.544981 108.672454 
L 394.25206 111.292171 
L 395.312679 106.602324 
L 395.666219 108.724805 
L 396.019758 105.452703 
L 396.373298 103.29201 
L 396.726838 104.695071 
L 397.787456 97.381512 
L 398.494536 97.742228 
L 398.848075 90.88616 
L 399.201615 100.424957 
L 400.262234 97.822382 
L 400.615774 93.258801 
L 400.969313 85.155748 
L 401.322853 91.723484 
L 401.676393 89.573746 
L 402.737012 101.781706 
L 403.090551 107.97762 
L 403.444091 109.487351 
L 403.797631 109.23318 
L 404.15117 103.410091 
L 405.211789 111.339152 
L 405.565329 105.960952 
L 406.272408 104.419153 
L 406.625948 99.750452 
L 407.686567 95.118286 
L 408.040106 95.029587 
L 408.393646 100.855795 
L 408.747186 101.373744 
L 409.100725 98.578819 
L 410.514884 97.20356 
L 411.575503 87.614578 
L 412.636122 86.225298 
L 412.989662 84.925262 
L 413.343201 84.686844 
L 413.696741 81.689551 
L 414.05028 85.857007 
L 415.110899 88.571679 
L 415.464439 88.932149 
L 415.817979 92.768329 
L 416.171518 91.261459 
L 416.525058 81.985418 
L 417.585677 76.965953 
L 417.939217 83.852434 
L 418.292756 83.847986 
L 418.646296 83.352829 
L 418.999836 64.286209 
L 420.060455 64.039236 
L 420.413994 51.9249 
L 420.767534 68.658348 
L 421.121074 66.116552 
L 421.474613 61.100967 
L 422.535232 59.110382 
L 422.888772 54.410078 
L 423.242311 55.136699 
L 423.595851 51.276096 
L 423.949391 41.576868 
L 425.01001 43.327047 
L 425.363549 45.539526 
L 425.717089 43.72675 
L 426.070629 37.696746 
L 426.424168 39.179591 
L 427.838327 43.419757 
L 428.191867 40.160821 
L 428.545406 39.580934 
L 428.898946 42.471693 
L 429.959565 34.049396 
L 430.313104 27.076735 
L 430.666644 24.538182 
L 431.020184 24.891912 
L 431.373723 32.940851 
L 432.434342 37.522062 
L 432.787882 44.490096 
L 433.141422 46.963476 
L 433.494961 53.842846 
L 433.848501 56.066274 
L 434.90912 61.182007 
L 435.26266 61.710955 
L 435.616199 65.126942 
L 435.969739 65.614293 
L 436.323279 65.712692 
L 437.383897 65.209331 
L 437.737437 65.760482 
L 438.090977 67.774884 
L 438.444516 71.539866 
L 438.798056 67.082471 
L 439.858675 66.254849 
L 440.212215 61.37965 
L 440.919294 94.414874 
L 441.272834 89.338918 
L 442.333453 94.033463 
L 442.686992 90.400995 
L 443.040532 90.452449 
L 443.394072 95.142433 
L 443.747611 92.725317 
L 444.80823 94.937168 
L 445.16177 107.305189 
L 445.515309 112.212263 
L 445.868849 110.009135 
L 446.222389 113.731704 
L 447.283008 117.766136 
L 447.636547 115.149086 
L 447.990087 103.462233 
L 448.343627 104.16804 
L 448.697166 103.011191 
L 449.757785 103.066991 
L 450.111325 99.916226 
L 450.464865 86.946966 
L 450.818404 83.851618 
L 451.171944 87.813804 
L 452.232563 88.519343 
L 452.586103 85.859853 
L 452.939642 88.147169 
L 453.293182 88.130455 
L 453.646721 93.950772 
L 454.70734 103.554563 
L 455.06088 114.666233 
L 455.41442 116.042267 
L 456.121499 120.101057 
L 457.182118 119.231708 
L 457.535658 111.578835 
L 457.889197 100.586004 
L 458.242737 94.191703 
L 458.596277 94.981793 
L 459.656896 87.737567 
L 460.010435 98.80519 
L 460.717515 110.743426 
L 461.071054 109.996481 
L 462.131673 118.578902 
L 462.485213 117.352142 
L 462.838752 111.298949 
L 463.192292 114.670953 
L 463.545832 123.644376 
L 464.606451 131.870395 
L 465.31353 134.882833 
L 465.66707 144.599637 
L 466.020609 146.411771 
L 467.081228 156.616309 
L 467.434768 153.749255 
L 468.141847 137.675767 
L 468.495387 126.78743 
L 468.848926 121.93565 
L 469.556006 122.516675 
L 469.909545 122.516675 
L 469.909545 122.516675 
" style="fill:none;opacity:0.7;stroke:#988ed5;stroke-linecap:square;stroke-width:1.5;"/>
   </g>
   <g id="patch_3">
    <path d="M 33.73 260.12 
L 33.73 13.32 
" style="fill:none;stroke:#ffffff;stroke-linecap:square;stroke-linejoin:miter;"/>
   </g>
   <g id="patch_4">
    <path d="M 490.68 260.12 
L 490.68 13.32 
" style="fill:none;stroke:#ffffff;stroke-linecap:square;stroke-linejoin:miter;"/>
   </g>
   <g id="patch_5">
    <path d="M 33.73 260.12 
L 490.68 260.12 
" style="fill:none;stroke:#ffffff;stroke-linecap:square;stroke-linejoin:miter;"/>
   </g>
   <g id="patch_6">
    <path d="M 33.73 13.32 
L 490.68 13.32 
" style="fill:none;stroke:#ffffff;stroke-linecap:square;stroke-linejoin:miter;"/>
   </g>
   <g id="legend_1">
    <g id="patch_7">
     <path d="M 42.73 67.524687 
L 171.300313 67.524687 
Q 173.300313 67.524687 173.300313 65.524687 
L 173.300313 22.32 
Q 173.300313 20.32 171.300313 20.32 
L 42.73 20.32 
Q 40.73 20.32 40.73 22.32 
L 40.73 65.524687 
Q 40.73 67.524687 42.73 67.524687 
z
" style="fill:#454545;opacity:0.5;stroke:#454545;stroke-linejoin:miter;stroke-width:0.5;"/>
    </g>
    <g id="patch_8">
     <path d="M 40.73 65.524687 
L 169.300313 65.524687 
Q 171.300313 65.524687 171.300313 63.524687 
L 171.300313 20.32 
Q 171.300313 18.32 169.300313 18.32 
L 40.73 18.32 
Q 38.73 18.32 38.73 20.32 
L 38.73 63.524687 
Q 38.73 65.524687 40.73 65.524687 
z
" style="fill:#e5e5e5;stroke:#cccccc;stroke-linejoin:miter;stroke-width:0.5;"/>
    </g>
    <g id="line2d_44">
     <path d="M 42.73 26.418437 
L 62.73 26.418437 
" style="fill:none;opacity:0.7;stroke:#e24a33;stroke-linecap:square;stroke-width:1.5;"/>
    </g>
    <g id="line2d_45"/>
    <g id="text_21">
     <!--   -->
     <defs>
      <path d="M 9.078125 54.6875 
L 22.21875 54.6875 
L 37.75 18.0625 
L 53.328125 54.6875 
L 66.359375 54.6875 
L 66.359375 0 
L 57.328125 0 
L 57.328125 46.09375 
L 42.234375 10.5 
L 33.25 10.5 
L 18.109375 46.09375 
L 18.109375 0 
L 9.078125 0 
z
" id="DejaVuSans-43c"/>
      <path d="M 30.609375 48.390625 
Q 23.390625 48.390625 19.1875 42.75 
Q 14.984375 37.109375 14.984375 27.296875 
Q 14.984375 17.484375 19.15625 11.84375 
Q 23.34375 6.203125 30.609375 6.203125 
Q 37.796875 6.203125 41.984375 11.859375 
Q 46.1875 17.53125 46.1875 27.296875 
Q 46.1875 37.015625 41.984375 42.703125 
Q 37.796875 48.390625 30.609375 48.390625 
z
M 30.609375 56 
Q 42.328125 56 49.015625 48.375 
Q 55.71875 40.765625 55.71875 27.296875 
Q 55.71875 13.875 49.015625 6.21875 
Q 42.328125 -1.421875 30.609375 -1.421875 
Q 18.84375 -1.421875 12.171875 6.21875 
Q 5.515625 13.875 5.515625 27.296875 
Q 5.515625 40.765625 12.171875 48.375 
Q 18.84375 56 30.609375 56 
z
" id="DejaVuSans-43e"/>
      <path d="M 55.90625 54.6875 
L 55.90625 0 
L 46.96875 0 
L 46.96875 43.890625 
L 20.609375 0 
L 9.078125 0 
L 9.078125 54.6875 
L 18.015625 54.6875 
L 18.015625 10.890625 
L 44.34375 54.6875 
z
M 17.21875 75.515625 
L 22.984375 75.515625 
Q 23.515625 71.859375 25.875 70.015625 
Q 28.25 68.1875 32.5 68.1875 
Q 36.703125 68.1875 39.046875 70 
Q 41.390625 71.8125 42.015625 75.515625 
L 47.78125 75.515625 
Q 47.296875 68.53125 43.4375 65.015625 
Q 39.578125 61.5 32.5 61.5 
Q 25.421875 61.5 21.5625 65.015625 
Q 17.703125 68.53125 17.21875 75.515625 
z
" id="DejaVuSans-439"/>
      <path id="DejaVuSans-20"/>
      <path d="M 56.296875 54.6875 
L 56.296875 0 
L 47.265625 0 
L 47.265625 47.515625 
L 18.109375 47.515625 
L 18.109375 0 
L 9.078125 0 
L 9.078125 54.6875 
z
" id="DejaVuSans-43f"/>
      <path d="M 18.109375 8.203125 
L 18.109375 -20.796875 
L 9.078125 -20.796875 
L 9.078125 54.6875 
L 18.109375 54.6875 
L 18.109375 46.390625 
Q 20.953125 51.265625 25.265625 53.625 
Q 29.59375 56 35.59375 56 
Q 45.5625 56 51.78125 48.09375 
Q 58.015625 40.1875 58.015625 27.296875 
Q 58.015625 14.40625 51.78125 6.484375 
Q 45.5625 -1.421875 35.59375 -1.421875 
Q 29.59375 -1.421875 25.265625 0.953125 
Q 20.953125 3.328125 18.109375 8.203125 
z
M 48.6875 27.296875 
Q 48.6875 37.203125 44.609375 42.84375 
Q 40.53125 48.484375 33.40625 48.484375 
Q 26.265625 48.484375 22.1875 42.84375 
Q 18.109375 37.203125 18.109375 27.296875 
Q 18.109375 17.390625 22.1875 11.75 
Q 26.265625 6.109375 33.40625 6.109375 
Q 40.53125 6.109375 44.609375 11.75 
Q 48.6875 17.390625 48.6875 27.296875 
z
" id="DejaVuSans-440"/>
      <path d="M 2.9375 54.6875 
L 55.328125 54.6875 
L 55.328125 47.515625 
L 33.546875 47.515625 
L 33.546875 0 
L 24.703125 0 
L 24.703125 47.515625 
L 2.9375 47.515625 
z
" id="DejaVuSans-442"/>
      <path d="M 14.796875 27.296875 
Q 14.796875 15.828125 18.328125 10.96875 
Q 21.875 6.109375 27.875 6.109375 
Q 32.671875 6.109375 38.234375 14.3125 
L 38.234375 40.28125 
Q 32.671875 48.484375 27.875 48.484375 
Q 21.875 48.484375 18.328125 43.625 
Q 14.796875 38.765625 14.796875 27.296875 
z
M 38.234375 -20.796875 
L 38.234375 6.984375 
Q 35.453125 2.390625 32.25 0.484375 
Q 29.046875 -1.421875 25 -1.421875 
Q 16.84375 -1.421875 11.15625 6.125 
Q 5.46875 13.671875 5.46875 27.09375 
Q 5.46875 40.53125 11.15625 48.265625 
Q 16.84375 56 25 56 
Q 29.046875 56 32.25 54.140625 
Q 35.453125 52.296875 38.234375 47.703125 
L 38.234375 72.90625 
L 47.265625 72.90625 
L 47.265625 47.703125 
Q 50.046875 52.296875 53.25 54.140625 
Q 56.453125 56 60.5 56 
Q 68.65625 56 74.34375 48.265625 
Q 80.03125 40.53125 80.03125 27.09375 
Q 80.03125 13.671875 74.34375 6.125 
Q 68.65625 -1.421875 60.5 -1.421875 
Q 56.453125 -1.421875 53.25 0.484375 
Q 50.046875 2.390625 47.265625 6.984375 
L 47.265625 -20.796875 
z
M 70.703125 27.296875 
Q 70.703125 38.765625 67.15625 43.625 
Q 63.625 48.484375 57.625 48.484375 
Q 52.828125 48.484375 47.265625 40.28125 
L 47.265625 14.3125 
Q 52.828125 6.109375 57.625 6.109375 
Q 63.625 6.109375 67.15625 10.96875 
Q 70.703125 15.828125 70.703125 27.296875 
z
" id="DejaVuSans-444"/>
      <path d="M 56.203125 29.59375 
L 56.203125 25.203125 
L 14.890625 25.203125 
Q 15.484375 15.921875 20.484375 11.0625 
Q 25.484375 6.203125 34.421875 6.203125 
Q 39.59375 6.203125 44.453125 7.46875 
Q 49.3125 8.734375 54.109375 11.28125 
L 54.109375 2.78125 
Q 49.265625 0.734375 44.1875 -0.34375 
Q 39.109375 -1.421875 33.890625 -1.421875 
Q 20.796875 -1.421875 13.15625 6.1875 
Q 5.515625 13.8125 5.515625 26.8125 
Q 5.515625 40.234375 12.765625 48.109375 
Q 20.015625 56 32.328125 56 
Q 43.359375 56 49.78125 48.890625 
Q 56.203125 41.796875 56.203125 29.59375 
z
M 47.21875 32.234375 
Q 47.125 39.59375 43.09375 43.984375 
Q 39.0625 48.390625 32.421875 48.390625 
Q 24.90625 48.390625 20.390625 44.140625 
Q 15.875 39.890625 15.1875 32.171875 
z
" id="DejaVuSans-435"/>
      <path d="M 3.71875 0 
L 3.71875 7.46875 
Q 12.59375 8.84375 15.328125 14.984375 
Q 18.65625 23.640625 18.65625 45.75 
L 18.65625 54.6875 
L 55.609375 54.6875 
L 55.609375 0 
L 46.625 0 
L 46.625 47.515625 
L 27.640625 47.515625 
L 27.640625 42.09375 
Q 27.640625 21 23.34375 11.53125 
Q 18.75 1.421875 3.71875 0 
z
" id="DejaVuSans-43b"/>
      <path d="M 43.453125 16.21875 
Q 43.453125 20.609375 40.25 22.90625 
Q 37.0625 25.203125 30.90625 25.203125 
L 18.109375 25.203125 
L 18.109375 7.171875 
L 30.90625 7.171875 
Q 37.0625 7.171875 40.25 9.484375 
Q 43.453125 11.8125 43.453125 16.21875 
z
M 9.078125 54.6875 
L 18.109375 54.6875 
L 18.109375 32.375 
L 31.296875 32.375 
Q 41.75 32.375 47.390625 28.390625 
Q 53.03125 24.421875 53.03125 16.21875 
Q 53.03125 8.015625 47.390625 4 
Q 41.75 0 31.296875 0 
L 9.078125 0 
z
" id="DejaVuSans-44c"/>
     </defs>
     <g transform="translate(70.73 29.918437)scale(0.1 -0.1)">
      <use xlink:href="#DejaVuSans-43c"/>
      <use x="75.439453" xlink:href="#DejaVuSans-43e"/>
      <use x="136.621094" xlink:href="#DejaVuSans-439"/>
      <use x="201.611328" xlink:href="#DejaVuSans-20"/>
      <use x="233.398438" xlink:href="#DejaVuSans-43f"/>
      <use x="298.779297" xlink:href="#DejaVuSans-43e"/>
      <use x="359.960938" xlink:href="#DejaVuSans-440"/>
      <use x="423.4375" xlink:href="#DejaVuSans-442"/>
      <use x="481.689453" xlink:href="#DejaVuSans-444"/>
      <use x="567.1875" xlink:href="#DejaVuSans-435"/>
      <use x="628.710938" xlink:href="#DejaVuSans-43b"/>
      <use x="692.626953" xlink:href="#DejaVuSans-44c"/>
     </g>
    </g>
    <g id="line2d_46">
     <path d="M 42.73 41.266875 
L 62.73 41.266875 
" style="fill:none;opacity:0.7;stroke:#348abd;stroke-linecap:square;stroke-width:1.5;"/>
    </g>
    <g id="line2d_47"/>
    <g id="text_22">
     <!--   -->
     <defs>
      <path d="M 64.984375 72.90625 
L 64.984375 0 
L 55.421875 0 
L 55.421875 60.984375 
L 23.09375 0 
L 9.8125 0 
L 9.8125 72.90625 
L 19.390625 72.90625 
L 19.390625 11.921875 
L 51.703125 72.90625 
z
" id="DejaVuSans-418"/>
      <path d="M 9.078125 54.6875 
L 18.109375 54.6875 
L 18.109375 32.375 
L 47.265625 32.375 
L 47.265625 54.6875 
L 56.296875 54.6875 
L 56.296875 0 
L 47.265625 0 
L 47.265625 25.203125 
L 18.109375 25.203125 
L 18.109375 0 
L 9.078125 0 
z
" id="DejaVuSans-43d"/>
      <path d="M 21.625 7.171875 
L 47.703125 7.171875 
L 47.703125 47.515625 
L 28.8125 47.515625 
L 28.8125 40.671875 
Q 28.8125 20.5625 23.046875 9.8125 
z
M 8.59375 7.171875 
Q 13.03125 9.125 14.984375 13.28125 
Q 19.78125 23.578125 19.78125 44.34375 
L 19.78125 54.6875 
L 56.734375 54.6875 
L 56.734375 7.171875 
L 63.921875 7.171875 
L 63.921875 -13.8125 
L 56.734375 -13.8125 
L 56.734375 0 
L 12.40625 0 
L 12.40625 -13.8125 
L 5.21875 -13.8125 
L 5.21875 7.171875 
z
" id="DejaVuSans-434"/>
      <path d="M 9.078125 54.6875 
L 18.015625 54.6875 
L 18.015625 29 
L 43.359375 54.6875 
L 54.390625 54.6875 
L 33.5 33.546875 
L 57.078125 0 
L 47.015625 0 
L 27.640625 27.59375 
L 18.015625 17.828125 
L 18.015625 0 
L 9.078125 0 
z
" id="DejaVuSans-43a"/>
      <path d="M 48.78125 52.59375 
L 48.78125 44.1875 
Q 44.96875 46.296875 41.140625 47.34375 
Q 37.3125 48.390625 33.40625 48.390625 
Q 24.65625 48.390625 19.8125 42.84375 
Q 14.984375 37.3125 14.984375 27.296875 
Q 14.984375 17.28125 19.8125 11.734375 
Q 24.65625 6.203125 33.40625 6.203125 
Q 37.3125 6.203125 41.140625 7.25 
Q 44.96875 8.296875 48.78125 10.40625 
L 48.78125 2.09375 
Q 45.015625 0.34375 40.984375 -0.53125 
Q 36.96875 -1.421875 32.421875 -1.421875 
Q 20.0625 -1.421875 12.78125 6.34375 
Q 5.515625 14.109375 5.515625 27.296875 
Q 5.515625 40.671875 12.859375 48.328125 
Q 20.21875 56 33.015625 56 
Q 37.15625 56 41.109375 55.140625 
Q 45.0625 54.296875 48.78125 52.59375 
z
" id="DejaVuSans-441"/>
      <path d="M 9.8125 72.90625 
L 24.515625 72.90625 
L 43.109375 23.296875 
L 61.8125 72.90625 
L 76.515625 72.90625 
L 76.515625 0 
L 66.890625 0 
L 66.890625 64.015625 
L 48.09375 14.015625 
L 38.1875 14.015625 
L 19.390625 64.015625 
L 19.390625 0 
L 9.8125 0 
z
" id="DejaVuSans-41c"/>
      <path d="M 31.109375 56 
Q 42.828125 56 49.515625 48.375 
Q 56.203125 40.765625 56.203125 27.296875 
Q 56.203125 13.875 49.515625 6.21875 
Q 42.828125 -1.421875 31.109375 -1.421875 
Q 19.34375 -1.421875 12.84375 6 
Q 6.34375 13.421875 6 27.296875 
L 5.71875 38.484375 
Q 5.46875 44.28125 5.46875 46.296875 
Q 5.46875 54.109375 8.296875 59.859375 
Q 12.75 68.890625 20.4375 72.796875 
Q 28.125 76.703125 41.015625 76.8125 
Q 46.96875 76.859375 49.609375 77.6875 
L 52.09375 70.5625 
Q 49.703125 69.578125 47.515625 69.53125 
L 35.296875 68.703125 
Q 29.15625 68.265625 25.4375 66.109375 
Q 15.71875 60.40625 14.796875 52.9375 
L 14.453125 50.203125 
Q 20.796875 56 31.109375 56 
z
M 31.109375 48.390625 
Q 23.875 48.390625 19.671875 42.75 
Q 15.484375 37.109375 15.484375 27.296875 
Q 15.484375 17.484375 19.65625 11.84375 
Q 23.828125 6.203125 31.109375 6.203125 
Q 38.28125 6.203125 42.484375 11.859375 
Q 46.6875 17.53125 46.6875 27.296875 
Q 46.6875 37.015625 42.484375 42.703125 
Q 38.28125 48.390625 31.109375 48.390625 
z
" id="DejaVuSans-431"/>
      <path d="M 55.90625 54.6875 
L 55.90625 0 
L 46.96875 0 
L 46.96875 43.890625 
L 20.609375 0 
L 9.078125 0 
L 9.078125 54.6875 
L 18.015625 54.6875 
L 18.015625 10.890625 
L 44.34375 54.6875 
z
" id="DejaVuSans-438"/>
      <path d="M 40.578125 54.6875 
L 49.515625 54.6875 
L 49.515625 29 
L 73.390625 54.6875 
L 83.84375 54.6875 
L 64.203125 33.640625 
L 86.671875 0 
L 77.046875 0 
L 58.640625 27.640625 
L 49.515625 17.828125 
L 49.515625 0 
L 40.578125 0 
L 40.578125 17.828125 
L 31.453125 27.640625 
L 13.03125 0 
L 3.421875 0 
L 25.875 33.640625 
L 6.25 54.6875 
L 16.703125 54.6875 
L 40.578125 29 
z
" id="DejaVuSans-436"/>
     </defs>
     <g transform="translate(70.73 44.766875)scale(0.1 -0.1)">
      <use xlink:href="#DejaVuSans-418"/>
      <use x="74.804688" xlink:href="#DejaVuSans-43d"/>
      <use x="140.185547" xlink:href="#DejaVuSans-434"/>
      <use x="209.326172" xlink:href="#DejaVuSans-435"/>
      <use x="270.849609" xlink:href="#DejaVuSans-43a"/>
      <use x="331.25" xlink:href="#DejaVuSans-441"/>
      <use x="386.230469" xlink:href="#DejaVuSans-20"/>
      <use x="418.017578" xlink:href="#DejaVuSans-41c"/>
      <use x="504.296875" xlink:href="#DejaVuSans-43e"/>
      <use x="565.478516" xlink:href="#DejaVuSans-441"/>
      <use x="620.458984" xlink:href="#DejaVuSans-431"/>
      <use x="682.128906" xlink:href="#DejaVuSans-438"/>
      <use x="747.119141" xlink:href="#DejaVuSans-440"/>
      <use x="810.595703" xlink:href="#DejaVuSans-436"/>
      <use x="900.683594" xlink:href="#DejaVuSans-438"/>
     </g>
    </g>
    <g id="line2d_48">
     <path d="M 42.73 55.945 
L 62.73 55.945 
" style="fill:none;opacity:0.7;stroke:#988ed5;stroke-linecap:square;stroke-width:1.5;"/>
    </g>
    <g id="line2d_49"/>
    <g id="text_23">
     <!-- SnP500 -->
     <defs>
      <path d="M 53.515625 70.515625 
L 53.515625 60.890625 
Q 47.90625 63.578125 42.921875 64.890625 
Q 37.9375 66.21875 33.296875 66.21875 
Q 25.25 66.21875 20.875 63.09375 
Q 16.5 59.96875 16.5 54.203125 
Q 16.5 49.359375 19.40625 46.890625 
Q 22.3125 44.4375 30.421875 42.921875 
L 36.375 41.703125 
Q 47.40625 39.59375 52.65625 34.296875 
Q 57.90625 29 57.90625 20.125 
Q 57.90625 9.515625 50.796875 4.046875 
Q 43.703125 -1.421875 29.984375 -1.421875 
Q 24.8125 -1.421875 18.96875 -0.25 
Q 13.140625 0.921875 6.890625 3.21875 
L 6.890625 13.375 
Q 12.890625 10.015625 18.65625 8.296875 
Q 24.421875 6.59375 29.984375 6.59375 
Q 38.421875 6.59375 43.015625 9.90625 
Q 47.609375 13.234375 47.609375 19.390625 
Q 47.609375 24.75 44.3125 27.78125 
Q 41.015625 30.8125 33.5 32.328125 
L 27.484375 33.5 
Q 16.453125 35.6875 11.515625 40.375 
Q 6.59375 45.0625 6.59375 53.421875 
Q 6.59375 63.09375 13.40625 68.65625 
Q 20.21875 74.21875 32.171875 74.21875 
Q 37.3125 74.21875 42.625 73.28125 
Q 47.953125 72.359375 53.515625 70.515625 
z
" id="DejaVuSans-53"/>
      <path d="M 54.890625 33.015625 
L 54.890625 0 
L 45.90625 0 
L 45.90625 32.71875 
Q 45.90625 40.484375 42.875 44.328125 
Q 39.84375 48.1875 33.796875 48.1875 
Q 26.515625 48.1875 22.3125 43.546875 
Q 18.109375 38.921875 18.109375 30.90625 
L 18.109375 0 
L 9.078125 0 
L 9.078125 54.6875 
L 18.109375 54.6875 
L 18.109375 46.1875 
Q 21.34375 51.125 25.703125 53.5625 
Q 30.078125 56 35.796875 56 
Q 45.21875 56 50.046875 50.171875 
Q 54.890625 44.34375 54.890625 33.015625 
z
" id="DejaVuSans-6e"/>
      <path d="M 19.671875 64.796875 
L 19.671875 37.40625 
L 32.078125 37.40625 
Q 38.96875 37.40625 42.71875 40.96875 
Q 46.484375 44.53125 46.484375 51.125 
Q 46.484375 57.671875 42.71875 61.234375 
Q 38.96875 64.796875 32.078125 64.796875 
z
M 9.8125 72.90625 
L 32.078125 72.90625 
Q 44.34375 72.90625 50.609375 67.359375 
Q 56.890625 61.8125 56.890625 51.125 
Q 56.890625 40.328125 50.609375 34.8125 
Q 44.34375 29.296875 32.078125 29.296875 
L 19.671875 29.296875 
L 19.671875 0 
L 9.8125 0 
z
" id="DejaVuSans-50"/>
     </defs>
     <g transform="translate(70.73 59.445)scale(0.1 -0.1)">
      <use xlink:href="#DejaVuSans-53"/>
      <use x="63.476562" xlink:href="#DejaVuSans-6e"/>
      <use x="126.855469" xlink:href="#DejaVuSans-50"/>
      <use x="187.158203" xlink:href="#DejaVuSans-35"/>
      <use x="250.78125" xlink:href="#DejaVuSans-30"/>
      <use x="314.404297" xlink:href="#DejaVuSans-30"/>
     </g>
    </g>
   </g>
  </g>
 </g>
 <defs>
  <clipPath id="p8301ab20d1">
   <rect height="246.8" width="456.95" x="33.73" y="13.32"/>
  </clipPath>
 </defs>
</svg>
