<?xml version="1.0" encoding="utf-8"?>
<!-- Generator: Adobe Illustrator 22.1.0, SVG Export Plug-In . SVG Version: 6.00 Build 0)  -->
<svg version="1.1" id="Слой_1" xmlns="http://www.w3.org/2000/svg" xmlns:xlink="http://www.w3.org/1999/xlink" x="0px" y="0px"
	 viewBox="0 0 1221.5 294.5" style="enable-background:new 0 0 1221.5 294.5;" xml:space="preserve">
<style type="text/css">
	.st0{fill:#EE2E24;}
</style>
<g>
	<path class="st0" d="M68.4,153.8l-33.4,75.1H10.6l36.7-80.3c-8.6-4.4-15.5-10.8-20.8-19.3c-5.3-8.5-7.9-20-7.9-34.7
		c0-10.2,1.5-19.2,4.5-27c3-7.8,7.1-14.2,12.3-19.3c5.2-5.1,11.3-9,18.2-11.5c6.9-2.6,14.3-3.8,21.9-3.8H107v196H85.9v-75.1H68.4z
		 M85.9,50.5H74.7c-4.2,0-8.3,0.8-12.3,2.3c-4,1.6-7.6,4-10.7,7.4c-3.1,3.4-5.6,7.9-7.5,13.5c-1.9,5.6-2.9,12.5-2.9,20.8
		c0,7.9,0.9,14.5,2.6,19.8c1.7,5.3,4.1,9.6,7.1,12.9c3,3.3,6.6,5.6,10.7,7c4.1,1.4,8.4,2.1,13,2.1h11.2V50.5z"/>
	<path d="M208.7,90.8v138.1h-21.1V167h-31.8v61.9h-21.4V90.8h21.4v58.7h31.8V90.8H208.7z M318.6,256h-19.2v-27.1h-59.2V256H221
		v-44.7h8.5c3.1-7.3,5.6-15.4,7.4-24.3c1.8-8.9,3.2-18,4.2-27.4c1-9.4,1.6-19,1.9-28.8c0.3-9.8,0.4-19.2,0.4-28.4V90.8h64.1v120.6
		h11V256z M286.5,108.3h-23.8v2.5c0,7.3-0.1,15.3-0.4,23.9c-0.3,8.7-0.9,17.5-1.8,26.4c-0.9,8.9-2.2,17.7-3.8,26.4
		c-1.6,8.7-3.9,16.6-6.9,23.9h36.7V108.3z M411.5,219.6c-4.4,3.5-9.4,6.2-15.1,8.2c-5.7,2-12,3-18.9,3c-14.3,0-25.5-5.5-33.7-16.6
		c-8.2-11.1-12.3-27.3-12.3-48.6c0-11.1,0.8-21.4,2.3-30.7c1.6-9.3,4-17.4,7.4-24.3c3.4-6.9,7.7-12.2,13-16
		c5.3-3.8,11.6-5.8,18.9-5.8c5.7,0,10.9,1.1,15.6,3.4c4.7,2.3,8.8,6,12.1,11.1c3.3,5.1,5.8,11.7,7.7,19.9c1.8,8.1,2.7,18,2.7,29.7
		v11.8h-57.6c0,15.7,2.1,27.6,6.4,35.6c4.3,8,10.7,12.1,19.3,12.1c6,0,11.4-1,16-3.2c4.7-2.1,8.4-4.2,11.1-6.2L411.5,219.6z
		 M373.1,106.4c-6.6,0-11.2,3.7-14,11.1s-4.5,17.3-5.2,29.7h35.4c0-5.8-0.3-11.3-0.8-16.3c-0.5-5-1.4-9.4-2.6-13
		c-1.2-3.7-2.8-6.5-4.9-8.5C378.9,107.4,376.2,106.4,373.1,106.4z M454.5,160.1v68.8h-21.4V90.8h21.4v63.9l33.2-63.9h21.7l-34.3,65
		l39.2,73.2H491L454.5,160.1z M564.4,230.8c-14.8,0-26.4-5.9-34.8-17.7c-8.4-11.8-12.6-29.6-12.6-53.3c0-10.8,1-20.6,3.2-29.3
		c2.1-8.8,5.2-16.2,9.3-22.3c4.1-6.1,9.2-10.9,15.3-14.3c6.1-3.4,13.2-5.1,21.2-5.1c6.2,0,11.2,0.7,15.1,2.1
		c3.8,1.4,7.3,3.1,10.4,5.1l-3,20.3c-2.9-2.6-6.4-4.9-10.3-6.9c-3.9-2-8.1-3-12.5-3c-7.7,0-14,4.3-18.9,13
		c-4.9,8.6-7.4,21.8-7.4,39.4c0,17.4,2.1,30.9,6.2,40.4c4.1,9.5,10.6,14.2,19.3,14.2c5.3,0,9.9-0.9,13.7-2.7c3.8-1.8,7-3.8,9.6-6.1
		l4.9,15.9c-3.7,3.1-7.8,5.6-12.3,7.5C576.3,229.9,570.8,230.8,564.4,230.8z"/>
	<path d="M738.5,228.9h-83.9l-1.9,32.6H642V218h5.8c4.7-4,8.4-11.2,11-21.4c2.6-10.2,4.6-22.4,6-36.5c1.5-14.6,2.5-32.6,3-53.9
		c0.5-21.3,1-45.7,1.4-73.1h68.5v185h13.4v43.6h-10.7L738.5,228.9z M723.9,43.9h-42.5c-0.4,25.1-0.9,47.2-1.6,66.1
		c-0.7,19-1.6,35.6-2.7,49.9c-1.3,14.9-3.1,27.1-5.3,36.7c-2.3,9.6-5.3,16.7-8.9,21.3h61.1V43.9z"/>
	<path d="M777.4,162c0.4,19.1,3,33.6,7.9,43.6c4.9,10,12.4,15,22.5,15c4.6,0,8.6-0.7,12.1-2.2c3.5-1.5,6.4-3.3,8.8-5.3
		c2.7-2,5.1-4.6,7.1-7.5l4.1,10.4c-2.2,3.1-4.8,5.8-7.9,7.9c-2.7,2-6.1,3.8-10.1,5.3c-4,1.5-8.8,2.3-14.3,2.3
		c-14.6,0-25.4-6.3-32.3-18.9c-6.9-12.6-10.4-30.2-10.4-52.9c0-11.3,1-21.4,3-30.3c2-8.9,4.8-16.4,8.4-22.6
		c3.6-6.2,7.8-10.9,12.7-14.1c4.9-3.2,10.3-4.8,16.2-4.8c6,0,11.4,1.6,16.2,4.7c4.7,3.1,8.7,7.8,11.8,14c3.1,6.2,5.3,13.9,6.6,23.2
		c1.3,9.2,1.4,20,0.3,32.2H777.4z M805.1,99c-7.3,0-13.6,4.5-18.8,13.5s-8.1,22.1-8.6,39.4h50.2c1.1-18.4-0.7-31.8-5.3-40.2
		S812,99,805.1,99z"/>
	<path d="M924.3,162.9h-47.1v66.1h-12.9V90.8h12.9v61.1h47.1V90.8h12.9v138.1h-12.9V162.9z"/>
	<path d="M967.6,90.8h12.9V142h10.1c13.2,0,23.7,3.6,31.5,10.7c7.9,7.1,11.8,17.9,11.8,32.3c0,14.6-4.1,25.6-12.3,32.9
		c-8.2,7.3-18.8,11-31.8,11h-22.2V90.8z M980.5,152.2v66.6h8.2c9.7,0,17.5-2.6,23.6-7.8s9-13.7,9-25.6c0-11.7-2.7-20.1-8.2-25.4
		c-5.5-5.2-13.2-7.8-23-7.8H980.5z"/>
	<path d="M1068.7,101.7v127.2h-12.6V90.8h58.4v11H1068.7z"/>
	<path d="M1198.6,132.7c0-3.7,0.1-7,0.3-10c0.2-3,0.5-6,0.8-8.9h-0.8c-0.9,3.1-2,6.1-3.3,8.9c-1.3,2.8-2.7,5.8-4.1,8.9l-44.9,97.3
		h-11V90.8h12.1v95.9c0,3.7-0.1,7-0.3,10.1c-0.2,3.1-0.5,6.2-0.8,9.3h0.8c0.9-3.1,2-6.2,3.3-9.2c1.3-3,2.6-6.1,4.1-9.2l44.9-97h11.2
		v138.1h-12.3V132.7z"/>
</g>
</svg>
