<?xml version="1.0" encoding="utf-8" standalone="no"?>
<!DOCTYPE svg PUBLIC "-//W3C//DTD SVG 1.1//EN"
  "http://www.w3.org/Graphics/SVG/1.1/DTD/svg11.dtd">
<svg xmlns:xlink="http://www.w3.org/1999/xlink" width="576pt" height="432pt" viewBox="0 0 576 432" xmlns="http://www.w3.org/2000/svg" version="1.1">
 <metadata>
  <rdf:RDF xmlns:dc="http://purl.org/dc/elements/1.1/" xmlns:cc="http://creativecommons.org/ns#" xmlns:rdf="http://www.w3.org/1999/02/22-rdf-syntax-ns#">
   <cc:Work>
    <dc:type rdf:resource="http://purl.org/dc/dcmitype/StillImage"/>
    <dc:date>2025-02-26T15:53:40.959389</dc:date>
    <dc:format>image/svg+xml</dc:format>
    <dc:creator>
     <cc:Agent>
      <dc:title>Matplotlib v3.6.3, https://matplotlib.org/</dc:title>
     </cc:Agent>
    </dc:creator>
   </cc:Work>
  </rdf:RDF>
 </metadata>
 <defs>
  <style type="text/css">*{stroke-linejoin: round; stroke-linecap: butt}</style>
 </defs>
 <g id="figure_1">
  <g id="patch_1">
   <path d="M 0 432 
L 576 432 
L 576 0 
L 0 0 
z
" style="fill: #ffffff"/>
  </g>
  <g id="axes_1">
   <g id="patch_2">
    <path d="M 81.875 350.44 
L 550.08 350.44 
L 550.08 34.56 
L 81.875 34.56 
z
" style="fill: #ffffff"/>
   </g>
   <g id="matplotlib.axis_1">
    <g id="xtick_1">
     <g id="line2d_1">
      <path d="M 101.447644 350.44 
L 101.447644 34.56 
" clip-path="url(#p6d07e663f2)" style="fill: none; stroke-dasharray: 1.48,0.64; stroke-dashoffset: 0; stroke: #b0b0b0; stroke-width: 0.4"/>
     </g>
     <g id="text_1">
      <!-- 0 -->
      <g transform="translate(95.974519 374.8325) scale(0.24 -0.24)">
       <defs>
        <path id="LiberationSansNarrow-30" d="M 2713 2203 
Q 2713 1569 2614 1136 
Q 2516 703 2345 436 
Q 2175 169 1945 53 
Q 1716 -63 1453 -63 
Q 1191 -63 962 53 
Q 734 169 565 434 
Q 397 700 301 1133 
Q 206 1566 206 2203 
Q 206 2869 301 3305 
Q 397 3741 565 4000 
Q 734 4259 965 4364 
Q 1197 4469 1469 4469 
Q 1728 4469 1954 4364 
Q 2181 4259 2350 4000 
Q 2519 3741 2616 3305 
Q 2713 2869 2713 2203 
z
M 2244 2203 
Q 2244 2728 2194 3076 
Q 2144 3425 2044 3633 
Q 1944 3841 1798 3927 
Q 1653 4013 1469 4013 
Q 1275 4013 1125 3925 
Q 975 3838 875 3630 
Q 775 3422 723 3073 
Q 672 2725 672 2203 
Q 672 1697 723 1350 
Q 775 1003 876 792 
Q 978 581 1125 489 
Q 1272 397 1459 397 
Q 1641 397 1786 489 
Q 1931 581 2032 792 
Q 2134 1003 2189 1350 
Q 2244 1697 2244 2203 
z
" transform="scale(0.015625)"/>
       </defs>
       <use xlink:href="#LiberationSansNarrow-30"/>
      </g>
     </g>
    </g>
    <g id="xtick_2">
     <g id="line2d_2">
      <path d="M 186.917706 350.44 
L 186.917706 34.56 
" clip-path="url(#p6d07e663f2)" style="fill: none; stroke-dasharray: 1.48,0.64; stroke-dashoffset: 0; stroke: #b0b0b0; stroke-width: 0.4"/>
     </g>
     <g id="text_2">
      <!-- 10 -->
      <g transform="translate(175.971456 374.8325) scale(0.24 -0.24)">
       <defs>
        <path id="LiberationSansNarrow-31" d="M 400 0 
L 400 478 
L 1319 478 
L 1319 3866 
L 506 3156 
L 506 3688 
L 1359 4403 
L 1784 4403 
L 1784 478 
L 2663 478 
L 2663 0 
L 400 0 
z
" transform="scale(0.015625)"/>
       </defs>
       <use xlink:href="#LiberationSansNarrow-31"/>
       <use xlink:href="#LiberationSansNarrow-30" x="45.605469"/>
      </g>
     </g>
    </g>
    <g id="xtick_3">
     <g id="line2d_3">
      <path d="M 272.387768 350.44 
L 272.387768 34.56 
" clip-path="url(#p6d07e663f2)" style="fill: none; stroke-dasharray: 1.48,0.64; stroke-dashoffset: 0; stroke: #b0b0b0; stroke-width: 0.4"/>
     </g>
     <g id="text_3">
      <!-- 20 -->
      <g transform="translate(261.441518 374.8325) scale(0.24 -0.24)">
       <defs>
        <path id="LiberationSansNarrow-32" d="M 263 0 
L 263 397 
Q 394 763 583 1042 
Q 772 1322 980 1548 
Q 1188 1775 1391 1969 
Q 1594 2163 1758 2356 
Q 1922 2550 2023 2762 
Q 2125 2975 2125 3244 
Q 2125 3431 2078 3573 
Q 2031 3716 1945 3812 
Q 1859 3909 1737 3957 
Q 1616 4006 1466 4006 
Q 1328 4006 1206 3959 
Q 1084 3913 989 3819 
Q 894 3725 834 3586 
Q 775 3447 756 3263 
L 284 3316 
Q 306 3553 392 3762 
Q 478 3972 626 4130 
Q 775 4288 983 4378 
Q 1191 4469 1466 4469 
Q 1734 4469 1945 4391 
Q 2156 4313 2300 4159 
Q 2444 4006 2522 3781 
Q 2600 3556 2600 3263 
Q 2600 3041 2534 2841 
Q 2469 2641 2359 2459 
Q 2250 2278 2106 2109 
Q 1963 1941 1806 1781 
L 1491 1463 
Q 1331 1303 1192 1143 
Q 1053 984 943 820 
Q 834 656 772 478 
L 2656 478 
L 2656 0 
L 263 0 
z
" transform="scale(0.015625)"/>
       </defs>
       <use xlink:href="#LiberationSansNarrow-32"/>
       <use xlink:href="#LiberationSansNarrow-30" x="45.605469"/>
      </g>
     </g>
    </g>
    <g id="xtick_4">
     <g id="line2d_4">
      <path d="M 357.85783 350.44 
L 357.85783 34.56 
" clip-path="url(#p6d07e663f2)" style="fill: none; stroke-dasharray: 1.48,0.64; stroke-dashoffset: 0; stroke: #b0b0b0; stroke-width: 0.4"/>
     </g>
     <g id="text_4">
      <!-- 30 -->
      <g transform="translate(346.91158 374.8325) scale(0.24 -0.24)">
       <defs>
        <path id="LiberationSansNarrow-33" d="M 2688 1216 
Q 2688 913 2608 675 
Q 2528 438 2372 273 
Q 2216 109 1987 23 
Q 1759 -63 1463 -63 
Q 1128 -63 898 39 
Q 669 141 520 308 
Q 372 475 297 689 
Q 222 903 200 1131 
L 675 1184 
Q 697 1009 751 865 
Q 806 722 901 619 
Q 997 516 1136 459 
Q 1275 403 1463 403 
Q 1813 403 2011 612 
Q 2209 822 2209 1234 
Q 2209 1478 2120 1626 
Q 2031 1775 1900 1858 
Q 1769 1941 1614 1969 
Q 1459 1997 1328 1997 
L 1066 1997 
L 1066 2484 
L 1316 2484 
Q 1447 2484 1589 2517 
Q 1731 2550 1847 2636 
Q 1963 2722 2039 2869 
Q 2116 3016 2116 3244 
Q 2116 3597 1944 3801 
Q 1772 4006 1438 4006 
Q 1131 4006 943 3815 
Q 756 3625 725 3278 
L 263 3322 
Q 291 3613 392 3828 
Q 494 4044 651 4186 
Q 809 4328 1012 4398 
Q 1216 4469 1444 4469 
Q 1747 4469 1964 4376 
Q 2181 4284 2318 4126 
Q 2456 3969 2522 3756 
Q 2588 3544 2588 3303 
Q 2588 3109 2544 2940 
Q 2500 2772 2408 2637 
Q 2316 2503 2173 2406 
Q 2031 2309 1831 2259 
L 1831 2247 
Q 2050 2219 2211 2126 
Q 2372 2034 2478 1896 
Q 2584 1759 2636 1584 
Q 2688 1409 2688 1216 
z
" transform="scale(0.015625)"/>
       </defs>
       <use xlink:href="#LiberationSansNarrow-33"/>
       <use xlink:href="#LiberationSansNarrow-30" x="45.605469"/>
      </g>
     </g>
    </g>
    <g id="xtick_5">
     <g id="line2d_5">
      <path d="M 443.327892 350.44 
L 443.327892 34.56 
" clip-path="url(#p6d07e663f2)" style="fill: none; stroke-dasharray: 1.48,0.64; stroke-dashoffset: 0; stroke: #b0b0b0; stroke-width: 0.4"/>
     </g>
     <g id="text_5">
      <!-- 40 -->
      <g transform="translate(432.381642 374.8325) scale(0.24 -0.24)">
       <defs>
        <path id="LiberationSansNarrow-34" d="M 2256 997 
L 2256 0 
L 1822 0 
L 1822 997 
L 122 997 
L 122 1434 
L 1772 4403 
L 2256 4403 
L 2256 1441 
L 2766 1441 
L 2766 997 
L 2256 997 
z
M 1822 3769 
Q 1816 3753 1794 3706 
L 1750 3606 
L 1700 3494 
Q 1672 3434 1650 3397 
L 725 1734 
Q 713 1709 688 1669 
L 638 1588 
L 588 1503 
Q 563 1463 547 1441 
L 1822 1441 
L 1822 3769 
z
" transform="scale(0.015625)"/>
       </defs>
       <use xlink:href="#LiberationSansNarrow-34"/>
       <use xlink:href="#LiberationSansNarrow-30" x="45.605469"/>
      </g>
     </g>
    </g>
    <g id="xtick_6">
     <g id="line2d_6">
      <path d="M 528.797955 350.44 
L 528.797955 34.56 
" clip-path="url(#p6d07e663f2)" style="fill: none; stroke-dasharray: 1.48,0.64; stroke-dashoffset: 0; stroke: #b0b0b0; stroke-width: 0.4"/>
     </g>
     <g id="text_6">
      <!-- 50 -->
      <g transform="translate(517.851705 374.8325) scale(0.24 -0.24)">
       <defs>
        <path id="LiberationSansNarrow-35" d="M 2697 1434 
Q 2697 1103 2615 828 
Q 2534 553 2373 354 
Q 2213 156 1972 46 
Q 1731 -63 1416 -63 
Q 1131 -63 920 18 
Q 709 100 564 242 
Q 419 384 333 575 
Q 247 766 209 984 
L 675 1050 
Q 703 925 754 808 
Q 806 691 895 598 
Q 984 506 1114 451 
Q 1244 397 1428 397 
Q 1606 397 1753 464 
Q 1900 531 2003 662 
Q 2106 794 2162 984 
Q 2219 1175 2219 1422 
Q 2219 1625 2166 1795 
Q 2113 1966 2013 2089 
Q 1913 2213 1767 2281 
Q 1622 2350 1438 2350 
Q 1322 2350 1225 2325 
Q 1128 2300 1045 2256 
Q 963 2213 894 2155 
Q 825 2097 766 2034 
L 316 2034 
L 434 4403 
L 2488 4403 
L 2488 3925 
L 856 3925 
L 788 2528 
Q 909 2644 1093 2726 
Q 1278 2809 1531 2809 
Q 1800 2809 2015 2709 
Q 2231 2609 2382 2426 
Q 2534 2244 2615 1991 
Q 2697 1738 2697 1434 
z
" transform="scale(0.015625)"/>
       </defs>
       <use xlink:href="#LiberationSansNarrow-35"/>
       <use xlink:href="#LiberationSansNarrow-30" x="45.605469"/>
      </g>
     </g>
    </g>
    <g id="text_7">
     <!-- цена -->
     <g transform="translate(294.098125 401.205) scale(0.24 -0.24)">
      <defs>
       <path id="LiberationSansNarrow-446" d="M 825 3381 
L 825 409 
L 2047 409 
L 2047 3381 
L 2509 3381 
L 2509 409 
L 2884 409 
L 2884 -1275 
L 2469 -1275 
L 2469 0 
L 363 0 
L 363 3381 
L 825 3381 
z
" transform="scale(0.015625)"/>
       <path id="LiberationSansNarrow-435" d="M 684 1572 
Q 684 1306 740 1082 
Q 797 859 890 698 
Q 984 538 1129 448 
Q 1275 359 1481 359 
Q 1781 359 1962 506 
Q 2144 653 2206 878 
L 2613 738 
Q 2569 597 2491 455 
Q 2413 313 2281 198 
Q 2150 84 1954 10 
Q 1759 -63 1481 -63 
Q 866 -63 544 384 
Q 222 831 222 1713 
Q 222 2188 320 2517 
Q 419 2847 587 3053 
Q 756 3259 981 3351 
Q 1206 3444 1463 3444 
Q 1813 3444 2047 3306 
Q 2500 3041 2625 2356 
Q 2684 2028 2684 1647 
L 2684 1572 
L 684 1572 
z
M 2222 2003 
Q 2222 2569 2011 2798 
Q 1800 3028 1456 3028 
Q 1213 3028 981 2822 
Q 700 2581 684 2003 
L 2222 2003 
z
" transform="scale(0.015625)"/>
       <path id="LiberationSansNarrow-43d" d="M 825 3381 
L 825 1950 
L 2072 1950 
L 2072 3381 
L 2534 3381 
L 2534 0 
L 2072 0 
L 2072 1541 
L 825 1541 
L 825 0 
L 363 0 
L 363 3381 
L 825 3381 
z
" transform="scale(0.015625)"/>
       <path id="LiberationSansNarrow-430" d="M 1059 -63 
Q 641 -63 431 206 
Q 222 475 222 944 
Q 222 1278 326 1492 
Q 431 1706 598 1828 
Q 766 1950 981 1997 
Q 1197 2044 1419 2050 
L 2044 2063 
L 2044 2247 
Q 2044 2456 2008 2603 
Q 1972 2750 1897 2840 
Q 1822 2931 1711 2973 
Q 1600 3016 1447 3016 
Q 1313 3016 1206 2992 
Q 1100 2969 1020 2908 
Q 941 2847 892 2742 
Q 844 2638 828 2478 
L 347 2531 
Q 372 2731 444 2898 
Q 516 3066 647 3187 
Q 778 3309 976 3376 
Q 1175 3444 1459 3444 
Q 1981 3444 2245 3151 
Q 2509 2859 2509 2306 
L 2509 850 
Q 2509 600 2562 473 
Q 2616 347 2769 347 
Q 2806 347 2845 353 
Q 2884 359 2919 369 
L 2919 19 
Q 2831 -6 2745 -18 
Q 2659 -31 2563 -31 
Q 2431 -31 2337 11 
Q 2244 53 2186 139 
Q 2128 225 2097 351 
Q 2066 478 2056 647 
L 2044 647 
Q 1969 484 1880 353 
Q 1791 222 1673 130 
Q 1556 38 1404 -12 
Q 1253 -63 1059 -63 
z
M 1166 359 
Q 1388 359 1552 457 
Q 1716 556 1825 709 
Q 1934 863 1989 1044 
Q 2044 1225 2044 1391 
L 2044 1669 
L 1538 1656 
Q 1369 1653 1216 1626 
Q 1063 1600 948 1522 
Q 834 1444 765 1303 
Q 697 1163 697 934 
Q 697 659 819 509 
Q 941 359 1166 359 
z
" transform="scale(0.015625)"/>
      </defs>
      <use xlink:href="#LiberationSansNarrow-446"/>
      <use xlink:href="#LiberationSansNarrow-435" x="45.847656"/>
      <use xlink:href="#LiberationSansNarrow-43d" x="91.453125"/>
      <use xlink:href="#LiberationSansNarrow-430" x="136.716797"/>
     </g>
    </g>
   </g>
   <g id="matplotlib.axis_2">
    <g id="ytick_1">
     <g id="line2d_7">
      <path d="M 81.875 338.290769 
L 550.08 338.290769 
" clip-path="url(#p6d07e663f2)" style="fill: none; stroke-dasharray: 1.48,0.64; stroke-dashoffset: 0; stroke: #b0b0b0; stroke-width: 0.4"/>
     </g>
     <g id="text_8">
      <!-- 0 -->
      <g transform="translate(63.92875 346.987019) scale(0.24 -0.24)">
       <use xlink:href="#LiberationSansNarrow-30"/>
      </g>
     </g>
    </g>
    <g id="ytick_2">
     <g id="line2d_8">
      <path d="M 81.875 277.544615 
L 550.08 277.544615 
" clip-path="url(#p6d07e663f2)" style="fill: none; stroke-dasharray: 1.48,0.64; stroke-dashoffset: 0; stroke: #b0b0b0; stroke-width: 0.4"/>
     </g>
     <g id="text_9">
      <!-- 10 -->
      <g transform="translate(52.9825 286.240865) scale(0.24 -0.24)">
       <use xlink:href="#LiberationSansNarrow-31"/>
       <use xlink:href="#LiberationSansNarrow-30" x="45.605469"/>
      </g>
     </g>
    </g>
    <g id="ytick_3">
     <g id="line2d_9">
      <path d="M 81.875 216.798462 
L 550.08 216.798462 
" clip-path="url(#p6d07e663f2)" style="fill: none; stroke-dasharray: 1.48,0.64; stroke-dashoffset: 0; stroke: #b0b0b0; stroke-width: 0.4"/>
     </g>
     <g id="text_10">
      <!-- 20 -->
      <g transform="translate(52.9825 225.494712) scale(0.24 -0.24)">
       <use xlink:href="#LiberationSansNarrow-32"/>
       <use xlink:href="#LiberationSansNarrow-30" x="45.605469"/>
      </g>
     </g>
    </g>
    <g id="ytick_4">
     <g id="line2d_10">
      <path d="M 81.875 156.052308 
L 550.08 156.052308 
" clip-path="url(#p6d07e663f2)" style="fill: none; stroke-dasharray: 1.48,0.64; stroke-dashoffset: 0; stroke: #b0b0b0; stroke-width: 0.4"/>
     </g>
     <g id="text_11">
      <!-- 30 -->
      <g transform="translate(52.9825 164.748558) scale(0.24 -0.24)">
       <use xlink:href="#LiberationSansNarrow-33"/>
       <use xlink:href="#LiberationSansNarrow-30" x="45.605469"/>
      </g>
     </g>
    </g>
    <g id="ytick_5">
     <g id="line2d_11">
      <path d="M 81.875 95.306154 
L 550.08 95.306154 
" clip-path="url(#p6d07e663f2)" style="fill: none; stroke-dasharray: 1.48,0.64; stroke-dashoffset: 0; stroke: #b0b0b0; stroke-width: 0.4"/>
     </g>
     <g id="text_12">
      <!-- 40 -->
      <g transform="translate(52.9825 104.002404) scale(0.24 -0.24)">
       <use xlink:href="#LiberationSansNarrow-34"/>
       <use xlink:href="#LiberationSansNarrow-30" x="45.605469"/>
      </g>
     </g>
    </g>
    <g id="ytick_6">
     <g id="line2d_12">
      <path d="M 81.875 34.56 
L 550.08 34.56 
" clip-path="url(#p6d07e663f2)" style="fill: none; stroke-dasharray: 1.48,0.64; stroke-dashoffset: 0; stroke: #b0b0b0; stroke-width: 0.4"/>
     </g>
     <g id="text_13">
      <!-- 50 -->
      <g transform="translate(52.9825 43.25625) scale(0.24 -0.24)">
       <use xlink:href="#LiberationSansNarrow-35"/>
       <use xlink:href="#LiberationSansNarrow-30" x="45.605469"/>
      </g>
     </g>
    </g>
    <g id="text_14">
     <!-- предложение,спрос,прибыль -->
     <g transform="translate(44.0025 325.62875) rotate(-90) scale(0.24 -0.24)">
      <defs>
       <path id="LiberationSansNarrow-43f" d="M 2478 3381 
L 2478 0 
L 2019 0 
L 2019 2972 
L 825 2972 
L 825 0 
L 366 0 
L 366 3381 
L 2478 3381 
z
" transform="scale(0.015625)"/>
       <path id="LiberationSansNarrow-440" d="M 2697 1706 
Q 2697 1322 2647 997 
Q 2597 672 2476 437 
Q 2356 203 2161 70 
Q 1966 -63 1678 -63 
Q 1381 -63 1157 75 
Q 934 213 819 525 
L 803 525 
Q 806 519 807 469 
Q 809 419 811 344 
Q 813 269 814 176 
Q 816 84 816 -6 
L 816 -1328 
L 353 -1328 
L 353 2691 
Q 353 2813 351 2925 
Q 350 3038 348 3130 
Q 347 3222 344 3287 
Q 341 3353 338 3381 
L 784 3381 
Q 788 3372 791 3316 
L 800 3181 
Q 803 3100 806 3009 
Q 809 2919 809 2838 
L 819 2838 
Q 881 3000 964 3114 
Q 1047 3228 1153 3301 
Q 1259 3375 1387 3408 
Q 1516 3441 1678 3441 
Q 1966 3441 2161 3316 
Q 2356 3191 2476 2964 
Q 2597 2738 2647 2417 
Q 2697 2097 2697 1706 
z
M 2213 1694 
Q 2213 2006 2183 2250 
Q 2153 2494 2076 2662 
Q 2000 2831 1875 2918 
Q 1750 3006 1559 3006 
Q 1406 3006 1270 2953 
Q 1134 2900 1032 2750 
Q 931 2600 873 2336 
Q 816 2072 816 1650 
Q 816 1291 864 1042 
Q 913 794 1006 641 
Q 1100 488 1237 420 
Q 1375 353 1556 353 
Q 1750 353 1875 443 
Q 2000 534 2076 706 
Q 2153 878 2183 1126 
Q 2213 1375 2213 1694 
z
" transform="scale(0.015625)"/>
       <path id="LiberationSansNarrow-434" d="M 2134 2972 
L 1353 2972 
Q 1291 2419 1228 2008 
Q 1166 1597 1103 1294 
Q 1041 991 980 778 
Q 919 566 863 409 
L 2134 409 
L 2134 2972 
z
M 2969 -1275 
L 2553 -1275 
L 2553 0 
L 469 0 
L 469 -1275 
L 50 -1275 
L 50 409 
L 356 409 
Q 434 566 507 789 
Q 581 1013 654 1356 
Q 728 1700 801 2192 
Q 875 2684 947 3381 
L 2597 3381 
L 2597 409 
L 2969 409 
L 2969 -1275 
z
" transform="scale(0.015625)"/>
       <path id="LiberationSansNarrow-43b" d="M 2231 0 
L 2231 2972 
L 1272 2972 
Q 1209 2397 1154 1948 
Q 1100 1500 1044 1162 
Q 988 825 922 592 
Q 856 359 765 214 
Q 675 69 554 3 
Q 434 -63 269 -63 
Q 194 -63 133 -50 
Q 72 -38 28 -22 
L 28 381 
Q 56 369 104 361 
Q 153 353 203 353 
Q 294 353 358 418 
Q 422 484 473 631 
Q 525 778 567 1011 
Q 609 1244 653 1581 
Q 697 1919 744 2363 
L 856 3381 
L 2697 3381 
L 2697 0 
L 2231 0 
z
" transform="scale(0.015625)"/>
       <path id="LiberationSansNarrow-43e" d="M 2697 1694 
Q 2697 806 2376 371 
Q 2056 -63 1447 -63 
Q 1156 -63 929 43 
Q 703 150 545 369 
Q 388 588 305 917 
Q 222 1247 222 1694 
Q 222 3444 1463 3444 
Q 1784 3444 2020 3334 
Q 2256 3225 2406 3006 
Q 2556 2788 2626 2459 
Q 2697 2131 2697 1694 
z
M 2213 1694 
Q 2213 2088 2164 2344 
Q 2116 2600 2019 2753 
Q 1922 2906 1783 2967 
Q 1644 3028 1472 3028 
Q 1294 3028 1151 2964 
Q 1009 2900 909 2745 
Q 809 2591 757 2334 
Q 706 2078 706 1694 
Q 706 1300 762 1042 
Q 819 784 917 631 
Q 1016 478 1150 415 
Q 1284 353 1444 353 
Q 1622 353 1764 414 
Q 1906 475 2006 628 
Q 2106 781 2159 1040 
Q 2213 1300 2213 1694 
z
" transform="scale(0.015625)"/>
       <path id="LiberationSansNarrow-436" d="M 1525 1491 
Q 1459 1491 1375 1509 
Q 1291 1528 1244 1553 
L 531 0 
L 19 0 
L 922 1850 
Q 878 1894 793 2026 
Q 709 2159 594 2366 
L 41 3381 
L 522 3381 
L 903 2634 
Q 1025 2394 1108 2250 
Q 1191 2106 1258 2028 
Q 1325 1950 1386 1925 
Q 1447 1900 1525 1900 
L 1525 3381 
L 1984 3381 
L 1984 1900 
Q 2063 1900 2123 1925 
Q 2184 1950 2251 2028 
Q 2319 2106 2401 2250 
Q 2484 2394 2606 2634 
L 2988 3381 
L 3469 3381 
L 2916 2366 
Q 2800 2159 2715 2026 
Q 2631 1894 2588 1850 
L 3491 0 
L 2978 0 
L 2266 1553 
Q 2216 1528 2134 1509 
Q 2053 1491 1984 1491 
L 1984 0 
L 1525 0 
L 1525 1491 
z
" transform="scale(0.015625)"/>
       <path id="LiberationSansNarrow-438" d="M 809 3381 
L 809 1531 
Q 809 1459 806 1339 
Q 803 1219 798 1091 
Q 794 963 791 847 
Q 788 731 784 666 
L 2066 3381 
L 2569 3381 
L 2569 0 
L 2128 0 
L 2128 2063 
Q 2128 2122 2131 2213 
L 2138 2394 
Q 2141 2488 2144 2575 
L 2153 2728 
L 856 0 
L 366 0 
L 366 3381 
L 809 3381 
z
" transform="scale(0.015625)"/>
       <path id="LiberationSansNarrow-2c" d="M 988 684 
L 988 159 
Q 988 -6 977 -142 
Q 966 -278 939 -395 
Q 913 -513 875 -616 
Q 838 -719 788 -819 
L 472 -819 
Q 588 -616 650 -409 
Q 713 -203 713 0 
L 488 0 
L 488 684 
L 988 684 
z
" transform="scale(0.015625)"/>
       <path id="LiberationSansNarrow-441" d="M 706 1706 
Q 706 1416 740 1172 
Q 775 928 856 751 
Q 938 575 1072 478 
Q 1206 381 1406 381 
Q 1653 381 1817 543 
Q 1981 706 2019 1044 
L 2488 1006 
Q 2466 797 2387 603 
Q 2309 409 2178 262 
Q 2047 116 1856 26 
Q 1666 -63 1419 -63 
Q 1094 -63 864 71 
Q 634 206 492 442 
Q 350 678 286 998 
Q 222 1319 222 1694 
Q 222 2034 269 2295 
Q 316 2556 398 2751 
Q 481 2947 593 3080 
Q 706 3213 839 3292 
Q 972 3372 1117 3408 
Q 1263 3444 1413 3444 
Q 1647 3444 1828 3366 
Q 2009 3288 2142 3152 
Q 2275 3016 2356 2831 
Q 2438 2647 2472 2434 
L 1997 2391 
Q 1963 2672 1816 2837 
Q 1669 3003 1400 3003 
Q 1203 3003 1070 2923 
Q 938 2844 856 2683 
Q 775 2522 740 2278 
Q 706 2034 706 1706 
z
" transform="scale(0.015625)"/>
       <path id="LiberationSansNarrow-431" d="M 2300 1569 
Q 2300 1925 2250 2161 
Q 2200 2397 2108 2539 
Q 2016 2681 1881 2739 
Q 1747 2797 1581 2797 
Q 1403 2797 1258 2736 
Q 1113 2675 1009 2531 
Q 906 2388 848 2153 
Q 791 1919 791 1569 
Q 791 1213 848 978 
Q 906 744 1004 605 
Q 1103 466 1237 409 
Q 1372 353 1531 353 
Q 1709 353 1851 409 
Q 1994 466 2094 603 
Q 2194 741 2247 977 
Q 2300 1213 2300 1569 
z
M 1678 3209 
Q 2247 3209 2515 2801 
Q 2784 2394 2784 1575 
Q 2784 747 2464 342 
Q 2144 -63 1534 -63 
Q 1244 -63 1017 46 
Q 791 156 633 400 
Q 475 644 390 1034 
Q 306 1425 306 1988 
Q 306 2588 381 3022 
Q 456 3456 620 3757 
Q 784 4059 1048 4239 
Q 1313 4419 1688 4506 
Q 1834 4541 1962 4567 
Q 2091 4594 2206 4616 
L 2434 4656 
L 2656 4694 
L 2656 4191 
Q 2434 4156 2228 4120 
Q 2022 4084 1788 4031 
Q 1588 3988 1430 3936 
Q 1272 3884 1151 3806 
Q 1031 3728 945 3614 
Q 859 3500 803 3331 
Q 747 3163 717 2930 
Q 688 2697 681 2381 
Q 731 2553 817 2704 
Q 903 2856 1026 2968 
Q 1150 3081 1311 3145 
Q 1472 3209 1678 3209 
z
" transform="scale(0.015625)"/>
       <path id="LiberationSansNarrow-44b" d="M 1459 1950 
Q 2003 1950 2281 1720 
Q 2559 1491 2559 994 
Q 2559 763 2490 578 
Q 2422 394 2283 266 
Q 2144 138 1939 69 
Q 1734 0 1463 0 
L 375 0 
L 375 3381 
L 853 3381 
L 853 1950 
L 1459 1950 
z
M 853 397 
L 1391 397 
Q 1575 397 1701 436 
Q 1828 475 1906 551 
Q 1984 628 2018 739 
Q 2053 850 2053 994 
Q 2053 1288 1898 1423 
Q 1744 1559 1391 1559 
L 853 1559 
L 853 397 
z
M 3050 0 
L 3050 3381 
L 3528 3381 
L 3528 0 
L 3050 0 
z
" transform="scale(0.015625)"/>
       <path id="LiberationSansNarrow-44c" d="M 1456 1950 
Q 1981 1950 2250 1720 
Q 2519 1491 2519 994 
Q 2519 763 2451 578 
Q 2384 394 2251 266 
Q 2119 138 1920 69 
Q 1722 0 1459 0 
L 363 0 
L 363 3381 
L 825 3381 
L 825 1950 
L 1456 1950 
z
M 825 397 
L 1388 397 
Q 1566 397 1689 436 
Q 1813 475 1888 551 
Q 1963 628 1995 739 
Q 2028 850 2028 994 
Q 2028 1288 1879 1423 
Q 1731 1559 1391 1559 
L 825 1559 
L 825 397 
z
" transform="scale(0.015625)"/>
      </defs>
      <use xlink:href="#LiberationSansNarrow-43f"/>
      <use xlink:href="#LiberationSansNarrow-440" x="44.433594"/>
      <use xlink:href="#LiberationSansNarrow-435" x="90.039062"/>
      <use xlink:href="#LiberationSansNarrow-434" x="133.394531"/>
      <use xlink:href="#LiberationSansNarrow-43b" x="181.197266"/>
      <use xlink:href="#LiberationSansNarrow-43e" x="230.125"/>
      <use xlink:href="#LiberationSansNarrow-436" x="274.605469"/>
      <use xlink:href="#LiberationSansNarrow-435" x="329.439453"/>
      <use xlink:href="#LiberationSansNarrow-43d" x="375.044922"/>
      <use xlink:href="#LiberationSansNarrow-438" x="420.308594"/>
      <use xlink:href="#LiberationSansNarrow-435" x="466.158203"/>
      <use xlink:href="#LiberationSansNarrow-2c" x="511.763672"/>
      <use xlink:href="#LiberationSansNarrow-441" x="534.566406"/>
      <use xlink:href="#LiberationSansNarrow-43f" x="575.582031"/>
      <use xlink:href="#LiberationSansNarrow-440" x="620.015625"/>
      <use xlink:href="#LiberationSansNarrow-43e" x="665.621094"/>
      <use xlink:href="#LiberationSansNarrow-441" x="711.226562"/>
      <use xlink:href="#LiberationSansNarrow-2c" x="752.242188"/>
      <use xlink:href="#LiberationSansNarrow-43f" x="775.044922"/>
      <use xlink:href="#LiberationSansNarrow-440" x="819.478516"/>
      <use xlink:href="#LiberationSansNarrow-438" x="865.083984"/>
      <use xlink:href="#LiberationSansNarrow-431" x="910.933594"/>
      <use xlink:href="#LiberationSansNarrow-44b" x="957.90625"/>
      <use xlink:href="#LiberationSansNarrow-43b" x="1018.892578"/>
      <use xlink:href="#LiberationSansNarrow-44c" x="1066.695312"/>
     </g>
    </g>
   </g>
   <g id="line2d_13">
    <path d="M 115.961479 -1 
L 117.657838 37.858083 
L 119.363814 69.171662 
L 121.069789 94.794069 
L 122.775765 116.130516 
L 124.48174 134.161202 
L 126.187716 149.590223 
L 127.893691 162.93609 
L 129.599667 174.588899 
L 131.305643 184.84764 
L 133.011618 193.945232 
L 134.717594 202.065759 
L 136.423569 209.356586 
L 138.129545 215.937045 
L 139.835521 221.904778 
L 142.394484 229.880161 
L 144.953447 236.87341 
L 147.512411 243.053169 
L 150.071374 248.551793 
L 152.630337 253.47458 
L 155.189301 257.906318 
L 157.748264 261.916035 
L 160.307228 265.560482 
L 162.866191 268.886735 
L 166.278142 272.893907 
L 169.690093 276.481424 
L 173.102045 279.711081 
L 176.513996 282.633183 
L 179.925947 285.289088 
L 184.190886 288.286346 
L 188.455825 290.975849 
L 192.720764 293.40207 
L 196.985703 295.601359 
L 202.10363 297.982826 
L 207.221556 300.122912 
L 213.192471 302.360205 
L 219.163385 304.359804 
L 225.987288 306.399205 
L 232.81119 308.216723 
L 240.48808 310.038133 
L 249.017958 311.829218 
L 258.400824 313.564017 
L 268.636677 315.22406 
L 279.725519 316.797276 
L 292.520336 318.375062 
L 306.16814 319.830554 
L 321.521921 321.242198 
L 338.581677 322.586384 
L 358.200396 323.901207 
L 380.378078 325.154601 
L 405.114724 326.32676 
L 434.116309 327.468929 
L 467.382833 328.546044 
L 505.767284 329.558706 
L 528.797955 330.074933 
L 528.797955 330.074933 
" clip-path="url(#p6d07e663f2)" style="fill: none; stroke: #2ca02c; stroke-width: 1.5; stroke-linecap: square"/>
   </g>
   <g id="line2d_14">
    <path d="M 103.157045 338.290769 
L 142.394484 338.290769 
L 143.247472 310.262683 
L 149.218386 304.501722 
L 155.189301 298.444778 
L 162.013203 291.185967 
L 168.837106 283.591951 
L 175.661008 275.683592 
L 183.337898 266.432911 
L 191.014788 256.828336 
L 198.691678 246.888429 
L 207.221556 235.4704 
L 215.751434 223.677726 
L 224.281312 211.527465 
L 233.664178 197.767179 
L 243.047044 183.610422 
L 252.429909 169.073191 
L 262.665763 152.797331 
L 272.901616 136.102602 
L 283.13747 119.004209 
L 294.226311 100.041419 
L 305.315153 80.637069 
L 316.403994 60.805743 
L 328.345823 38.986731 
L 340.287652 16.703335 
L 349.606946 -1 
L 349.606946 -1 
" clip-path="url(#p6d07e663f2)" style="fill: none; stroke: #d62728; stroke-width: 1.5; stroke-linecap: square"/>
   </g>
   <g id="line2d_15">
    <path d="M 103.157045 337.971666 
L 105.716009 337.141782 
L 108.274972 336.073082 
L 111.686923 334.379423 
L 115.098875 332.440314 
L 119.363814 329.730402 
L 123.628753 326.747583 
L 128.746679 322.854037 
L 133.864606 318.655792 
L 138.982533 314.182927 
L 144.953447 308.648242 
L 150.924362 302.80041 
L 156.895276 296.662786 
L 163.719179 289.318012 
L 170.543081 281.643591 
L 177.366984 273.65952 
L 185.043874 264.328449 
L 192.720764 254.647844 
L 201.250642 243.503463 
L 209.78052 231.971118 
L 218.310398 220.069471 
L 227.693263 206.570683 
L 237.076129 192.664261 
L 246.458995 178.367389 
L 256.694848 162.343526 
L 266.930702 145.891192 
L 277.166555 129.026506 
L 288.255397 110.308004 
L 299.344238 91.13952 
L 310.433079 71.53637 
L 322.374908 49.955211 
L 334.316738 27.902173 
L 346.258567 5.391939 
L 349.606946 -1 
L 349.606946 -1 
" clip-path="url(#p6d07e663f2)" style="fill: none; stroke-dasharray: 1.5,2.475; stroke-dashoffset: 0; stroke: #d62728; stroke-width: 1.5"/>
   </g>
   <g id="line2d_16">
    <path d="M 129.353427 433 
L 130.452655 421.25766 
L 132.15863 405.016461 
L 133.864606 390.721234 
L 135.570582 378.062602 
L 137.276557 366.79229 
L 138.982533 356.708873 
L 140.688508 347.647323 
L 142.394484 339.471213 
L 144.10046 332.06684 
L 145.806435 325.338727 
L 148.365399 316.341319 
L 150.924362 308.462782 
L 153.483325 301.525188 
L 156.042289 295.385487 
L 158.601252 289.927452 
L 161.160215 285.055748 
L 163.719179 280.691498 
L 166.278142 276.768921 
L 168.837106 273.232764 
L 171.396069 270.036302 
L 173.955032 267.13978 
L 176.513996 264.509181 
L 179.925947 261.365376 
L 183.337898 258.584057 
L 186.749849 256.116503 
L 190.1618 253.921972 
L 193.573752 251.966164 
L 197.838691 249.813251 
L 202.10363 247.94071 
L 206.368569 246.309301 
L 211.486495 244.624329 
L 216.604422 243.193329 
L 221.722349 241.978335 
L 227.693263 240.792486 
L 234.517166 239.693759 
L 241.341068 238.822541 
L 249.017958 238.066598 
L 257.547836 237.454483 
L 266.930702 237.004646 
L 278.019543 236.711918 
L 289.961372 236.621601 
L 304.462165 236.748537 
L 321.521921 237.140172 
L 341.993628 237.849321 
L 367.583262 238.971661 
L 402.555761 240.743505 
L 467.382833 244.296128 
L 528.797955 247.661393 
L 528.797955 247.661393 
" clip-path="url(#p6d07e663f2)" style="fill: none; stroke: #7f7f7f; stroke-width: 1.5; stroke-linecap: square"/>
   </g>
   <g id="legend_1">
    <g id="patch_3">
     <path d="M 333.65625 157.0875 
L 533.28 157.0875 
Q 538.08 157.0875 538.08 152.2875 
L 538.08 51.36 
Q 538.08 46.56 533.28 46.56 
L 333.65625 46.56 
Q 328.85625 46.56 328.85625 51.36 
L 328.85625 152.2875 
Q 328.85625 157.0875 333.65625 157.0875 
z
" style="fill: #ffffff; opacity: 0.8; stroke: #cccccc; stroke-linejoin: miter"/>
    </g>
    <g id="line2d_17">
     <path d="M 338.45625 65.1525 
L 362.45625 65.1525 
L 386.45625 65.1525 
" style="fill: none; stroke: #2ca02c; stroke-width: 1.5; stroke-linecap: square"/>
    </g>
    <g id="text_15">
     <!-- спрос -->
     <g transform="translate(405.65625 73.5525) scale(0.24 -0.24)">
      <use xlink:href="#LiberationSansNarrow-441"/>
      <use xlink:href="#LiberationSansNarrow-43f" x="41.015625"/>
      <use xlink:href="#LiberationSansNarrow-440" x="85.449219"/>
      <use xlink:href="#LiberationSansNarrow-43e" x="131.054688"/>
      <use xlink:href="#LiberationSansNarrow-441" x="176.660156"/>
     </g>
    </g>
    <g id="line2d_18">
     <path d="M 338.45625 99.525 
L 362.45625 99.525 
L 386.45625 99.525 
" style="fill: none; stroke: #d62728; stroke-width: 1.5; stroke-linecap: square"/>
    </g>
    <g id="text_16">
     <!-- предложение -->
     <g transform="translate(405.65625 107.925) scale(0.24 -0.24)">
      <use xlink:href="#LiberationSansNarrow-43f"/>
      <use xlink:href="#LiberationSansNarrow-440" x="44.433594"/>
      <use xlink:href="#LiberationSansNarrow-435" x="90.039062"/>
      <use xlink:href="#LiberationSansNarrow-434" x="133.394531"/>
      <use xlink:href="#LiberationSansNarrow-43b" x="181.197266"/>
      <use xlink:href="#LiberationSansNarrow-43e" x="230.125"/>
      <use xlink:href="#LiberationSansNarrow-436" x="274.605469"/>
      <use xlink:href="#LiberationSansNarrow-435" x="329.439453"/>
      <use xlink:href="#LiberationSansNarrow-43d" x="375.044922"/>
      <use xlink:href="#LiberationSansNarrow-438" x="420.308594"/>
      <use xlink:href="#LiberationSansNarrow-435" x="466.158203"/>
     </g>
    </g>
    <g id="line2d_19">
     <path d="M 338.45625 134.1075 
L 362.45625 134.1075 
L 386.45625 134.1075 
" style="fill: none; stroke: #7f7f7f; stroke-width: 1.5; stroke-linecap: square"/>
    </g>
    <g id="text_17">
     <!-- прибыль -->
     <g transform="translate(405.65625 142.5075) scale(0.24 -0.24)">
      <use xlink:href="#LiberationSansNarrow-43f"/>
      <use xlink:href="#LiberationSansNarrow-440" x="44.433594"/>
      <use xlink:href="#LiberationSansNarrow-438" x="90.039062"/>
      <use xlink:href="#LiberationSansNarrow-431" x="135.888672"/>
      <use xlink:href="#LiberationSansNarrow-44b" x="182.861328"/>
      <use xlink:href="#LiberationSansNarrow-43b" x="243.847656"/>
      <use xlink:href="#LiberationSansNarrow-44c" x="291.650391"/>
     </g>
    </g>
   </g>
  </g>
 </g>
 <defs>
  <clipPath id="p6d07e663f2">
   <rect x="81.875" y="34.56" width="468.205" height="315.88"/>
  </clipPath>
 </defs>
</svg>
