<?xml version="1.0" encoding="utf-8" standalone="no"?>
<!DOCTYPE svg PUBLIC "-//W3C//DTD SVG 1.1//EN"
  "http://www.w3.org/Graphics/SVG/1.1/DTD/svg11.dtd">
<svg xmlns:xlink="http://www.w3.org/1999/xlink" width="576pt" height="432pt" viewBox="0 0 576 432" xmlns="http://www.w3.org/2000/svg" version="1.1">
 <metadata>
  <rdf:RDF xmlns:dc="http://purl.org/dc/elements/1.1/" xmlns:cc="http://creativecommons.org/ns#" xmlns:rdf="http://www.w3.org/1999/02/22-rdf-syntax-ns#">
   <cc:Work>
    <dc:type rdf:resource="http://purl.org/dc/dcmitype/StillImage"/>
    <dc:date>2025-02-18T15:41:36.028682</dc:date>
    <dc:format>image/svg+xml</dc:format>
    <dc:creator>
     <cc:Agent>
      <dc:title>Matplotlib v3.6.3, https://matplotlib.org/</dc:title>
     </cc:Agent>
    </dc:creator>
   </cc:Work>
  </rdf:RDF>
 </metadata>
 <defs>
  <style type="text/css">*{stroke-linejoin: round; stroke-linecap: butt}</style>
 </defs>
 <g id="figure_1">
  <g id="patch_1">
   <path d="M 0 432 
L 576 432 
L 576 0 
L 0 0 
z
" style="fill: #ffffff"/>
  </g>
  <g id="axes_1">
   <g id="patch_2">
    <path d="M 60.37 379.085 
L 550.08 379.085 
L 550.08 34.56 
L 60.37 34.56 
z
" style="fill: #ffffff"/>
   </g>
   <g id="patch_3">
    <path d="M 82.629546 379.085 
L 82.629546 379.085 
L 82.629546 -50825905.801587 
L 82.629546 -50825905.801587 
z
" clip-path="url(#pa59ba57369)" style="fill: #1f77b4; opacity: 0.3"/>
   </g>
   <g id="patch_4">
    <path d="M 82.629546 379.085 
L 82.629546 379.085 
L 82.629546 -135536380.612565 
L 82.629546 -135536380.612565 
z
" clip-path="url(#pa59ba57369)" style="fill: #1f77b4; opacity: 0.3"/>
   </g>
   <g id="patch_5">
    <path d="M 82.629546 379.085 
L 82.629547 379.085 
L 82.629547 -542146659.705258 
L 82.629546 -542146659.705258 
z
" clip-path="url(#pa59ba57369)" style="fill: #1f77b4; opacity: 0.3"/>
   </g>
   <g id="patch_6">
    <path d="M 82.629547 379.085 
L 82.629547 379.085 
L 82.629547 -1033467413.60893 
L 82.629547 -1033467413.60893 
z
" clip-path="url(#pa59ba57369)" style="fill: #1f77b4; opacity: 0.3"/>
   </g>
   <g id="patch_7">
    <path d="M 82.629547 379.085 
L 82.629547 379.085 
L 82.629547 -1643382832.247971 
L 82.629547 -1643382832.247971 
z
" clip-path="url(#pa59ba57369)" style="fill: #1f77b4; opacity: 0.3"/>
   </g>
   <g id="patch_8">
    <path d="M 82.629547 379.085 
L 82.629547 379.085 
L 82.629547 -2524371770.282141 
L 82.629547 -2524371770.282141 
z
" clip-path="url(#pa59ba57369)" style="fill: #1f77b4; opacity: 0.3"/>
   </g>
   <g id="patch_9">
    <path d="M 82.629547 379.085 
L 82.629547 379.085 
L 82.629547 -3998334031.993155 
L 82.629547 -3998334031.993155 
z
" clip-path="url(#pa59ba57369)" style="fill: #1f77b4; opacity: 0.3"/>
   </g>
   <g id="patch_10">
    <path d="M 82.629547 379.085 
L 82.629548 379.085 
L 82.629548 -4777670400.254152 
L 82.629547 -4777670400.254152 
z
" clip-path="url(#pa59ba57369)" style="fill: #1f77b4; opacity: 0.3"/>
   </g>
   <g id="patch_11">
    <path d="M 82.629548 379.085 
L 82.629548 379.085 
L 82.629548 -6149980092.191994 
L 82.629548 -6149980092.191994 
z
" clip-path="url(#pa59ba57369)" style="fill: #1f77b4; opacity: 0.3"/>
   </g>
   <g id="patch_12">
    <path d="M 82.629548 379.085 
L 82.629548 379.085 
L 82.629548 -6963200650.377381 
L 82.629548 -6963200650.377381 
z
" clip-path="url(#pa59ba57369)" style="fill: #1f77b4; opacity: 0.3"/>
   </g>
   <g id="patch_13">
    <path d="M 82.629548 379.085 
L 82.629548 379.085 
L 82.629548 -8149147297.731071 
L 82.629548 -8149147297.731071 
z
" clip-path="url(#pa59ba57369)" style="fill: #1f77b4; opacity: 0.3"/>
   </g>
   <g id="patch_14">
    <path d="M 82.629548 379.085 
L 82.629548 379.085 
L 82.629548 -8013610538.033495 
L 82.629548 -8013610538.033495 
z
" clip-path="url(#pa59ba57369)" style="fill: #1f77b4; opacity: 0.3"/>
   </g>
   <g id="patch_15">
    <path d="M 82.629548 379.085 
L 82.629549 379.085 
L 82.629549 -8301626152.390844 
L 82.629548 -8301626152.390844 
z
" clip-path="url(#pa59ba57369)" style="fill: #1f77b4; opacity: 0.3"/>
   </g>
   <g id="patch_16">
    <path d="M 82.629549 379.085 
L 82.629549 379.085 
L 82.629549 -8199973582.617645 
L 82.629549 -8199973582.617645 
z
" clip-path="url(#pa59ba57369)" style="fill: #1f77b4; opacity: 0.3"/>
   </g>
   <g id="patch_17">
    <path d="M 82.629549 379.085 
L 82.629549 379.085 
L 82.629549 -7607000258.940825 
L 82.629549 -7607000258.940825 
z
" clip-path="url(#pa59ba57369)" style="fill: #1f77b4; opacity: 0.3"/>
   </g>
   <g id="patch_18">
    <path d="M 82.629549 379.085 
L 82.629549 379.085 
L 82.629549 -7640884448.865193 
L 82.629549 -7640884448.865193 
z
" clip-path="url(#pa59ba57369)" style="fill: #1f77b4; opacity: 0.3"/>
   </g>
   <g id="patch_19">
    <path d="M 82.629549 379.085 
L 82.629549 379.085 
L 82.629549 -7640884448.865193 
L 82.629549 -7640884448.865193 
z
" clip-path="url(#pa59ba57369)" style="fill: #1f77b4; opacity: 0.3"/>
   </g>
   <g id="patch_20">
    <path d="M 82.629549 379.085 
L 82.62955 379.085 
L 82.62955 -7115679505.037152 
L 82.629549 -7115679505.037152 
z
" clip-path="url(#pa59ba57369)" style="fill: #1f77b4; opacity: 0.3"/>
   </g>
   <g id="patch_21">
    <path d="M 82.62955 379.085 
L 82.62955 379.085 
L 82.62955 -6946258555.415196 
L 82.62955 -6946258555.415196 
z
" clip-path="url(#pa59ba57369)" style="fill: #1f77b4; opacity: 0.3"/>
   </g>
   <g id="patch_22">
    <path d="M 82.62955 379.085 
L 82.62955 379.085 
L 82.62955 -6116095902.267593 
L 82.62955 -6116095902.267593 
z
" clip-path="url(#pa59ba57369)" style="fill: #1f77b4; opacity: 0.3"/>
   </g>
   <g id="patch_23">
    <path d="M 82.62955 379.085 
L 82.62955 379.085 
L 82.62955 -5607833053.401727 
L 82.62955 -5607833053.401727 
z
" clip-path="url(#pa59ba57369)" style="fill: #1f77b4; opacity: 0.3"/>
   </g>
   <g id="patch_24">
    <path d="M 82.62955 379.085 
L 82.62955 379.085 
L 82.62955 -5794196097.985895 
L 82.62955 -5794196097.985895 
z
" clip-path="url(#pa59ba57369)" style="fill: #1f77b4; opacity: 0.3"/>
   </g>
   <g id="patch_25">
    <path d="M 82.62955 379.085 
L 82.629551 379.085 
L 82.629551 -5319817439.044419 
L 82.62955 -5319817439.044419 
z
" clip-path="url(#pa59ba57369)" style="fill: #1f77b4; opacity: 0.3"/>
   </g>
   <g id="patch_26">
    <path d="M 82.629551 379.085 
L 82.629551 379.085 
L 82.629551 -4997917634.762687 
L 82.629551 -4997917634.762687 
z
" clip-path="url(#pa59ba57369)" style="fill: #1f77b4; opacity: 0.3"/>
   </g>
   <g id="patch_27">
    <path d="M 82.629551 379.085 
L 82.629551 379.085 
L 82.629551 -4116928696.728519 
L 82.629551 -4116928696.728519 
z
" clip-path="url(#pa59ba57369)" style="fill: #1f77b4; opacity: 0.3"/>
   </g>
   <g id="patch_28">
    <path d="M 82.629551 379.085 
L 82.629551 379.085 
L 82.629551 -4235523361.463914 
L 82.629551 -4235523361.463914 
z
" clip-path="url(#pa59ba57369)" style="fill: #1f77b4; opacity: 0.3"/>
   </g>
   <g id="patch_29">
    <path d="M 82.629551 379.085 
L 82.629551 379.085 
L 82.629551 -3151229283.883372 
L 82.629551 -3151229283.883372 
z
" clip-path="url(#pa59ba57369)" style="fill: #1f77b4; opacity: 0.3"/>
   </g>
   <g id="patch_30">
    <path d="M 82.629551 379.085 
L 82.629552 379.085 
L 82.629552 -3269823948.618741 
L 82.629551 -3269823948.618741 
z
" clip-path="url(#pa59ba57369)" style="fill: #1f77b4; opacity: 0.3"/>
   </g>
   <g id="patch_31">
    <path d="M 82.629552 379.085 
L 82.629552 379.085 
L 82.629552 -2812387384.639461 
L 82.629552 -2812387384.639461 
z
" clip-path="url(#pa59ba57369)" style="fill: #1f77b4; opacity: 0.3"/>
   </g>
   <g id="patch_32">
    <path d="M 82.629552 379.085 
L 82.629552 379.085 
L 82.629552 -2575198055.168739 
L 82.629552 -2575198055.168739 
z
" clip-path="url(#pa59ba57369)" style="fill: #1f77b4; opacity: 0.3"/>
   </g>
   <g id="patch_33">
    <path d="M 82.629552 379.085 
L 82.629552 379.085 
L 82.629552 -2541313865.244332 
L 82.629552 -2541313865.244332 
z
" clip-path="url(#pa59ba57369)" style="fill: #1f77b4; opacity: 0.3"/>
   </g>
   <g id="patch_34">
    <path d="M 82.629552 379.085 
L 82.629552 379.085 
L 82.629552 -1728093307.058946 
L 82.629552 -1728093307.058946 
z
" clip-path="url(#pa59ba57369)" style="fill: #1f77b4; opacity: 0.3"/>
   </g>
   <g id="patch_35">
    <path d="M 82.629552 379.085 
L 82.629553 379.085 
L 82.629553 -2219414060.962617 
L 82.629552 -2219414060.962617 
z
" clip-path="url(#pa59ba57369)" style="fill: #1f77b4; opacity: 0.3"/>
   </g>
   <g id="patch_36">
    <path d="M 82.629553 379.085 
L 82.629553 379.085 
L 82.629553 -1711151212.09675 
L 82.629553 -1711151212.09675 
z
" clip-path="url(#pa59ba57369)" style="fill: #1f77b4; opacity: 0.3"/>
   </g>
   <g id="patch_37">
    <path d="M 82.629553 379.085 
L 82.629553 379.085 
L 82.629553 -1829745876.83213 
L 82.629553 -1829745876.83213 
z
" clip-path="url(#pa59ba57369)" style="fill: #1f77b4; opacity: 0.3"/>
   </g>
   <g id="patch_38">
    <path d="M 82.629553 379.085 
L 82.629553 379.085 
L 82.629553 -1287598838.041862 
L 82.629553 -1287598838.041862 
z
" clip-path="url(#pa59ba57369)" style="fill: #1f77b4; opacity: 0.3"/>
   </g>
   <g id="patch_39">
    <path d="M 82.629553 379.085 
L 82.629553 379.085 
L 82.629553 -1270656743.079666 
L 82.629553 -1270656743.079666 
z
" clip-path="url(#pa59ba57369)" style="fill: #1f77b4; opacity: 0.3"/>
   </g>
   <g id="patch_40">
    <path d="M 82.629553 379.085 
L 82.629554 379.085 
L 82.629554 -1101235793.457717 
L 82.629553 -1101235793.457717 
z
" clip-path="url(#pa59ba57369)" style="fill: #1f77b4; opacity: 0.3"/>
   </g>
   <g id="patch_41">
    <path d="M 82.629554 379.085 
L 82.629554 379.085 
L 82.629554 -999583223.684537 
L 82.629554 -999583223.684537 
z
" clip-path="url(#pa59ba57369)" style="fill: #1f77b4; opacity: 0.3"/>
   </g>
   <g id="patch_42">
    <path d="M 82.629554 379.085 
L 82.629554 379.085 
L 82.629554 -948756938.797951 
L 82.629554 -948756938.797951 
z
" clip-path="url(#pa59ba57369)" style="fill: #1f77b4; opacity: 0.3"/>
   </g>
   <g id="patch_43">
    <path d="M 82.629554 379.085 
L 82.629554 379.085 
L 82.629554 -779335989.175995 
L 82.629554 -779335989.175995 
z
" clip-path="url(#pa59ba57369)" style="fill: #1f77b4; opacity: 0.3"/>
   </g>
   <g id="patch_44">
    <path d="M 82.629554 379.085 
L 82.629554 379.085 
L 82.629554 -880988558.949169 
L 82.629554 -880988558.949169 
z
" clip-path="url(#pa59ba57369)" style="fill: #1f77b4; opacity: 0.3"/>
   </g>
   <g id="patch_45">
    <path d="M 82.629554 379.085 
L 82.629555 379.085 
L 82.629555 -643799229.478435 
L 82.629554 -643799229.478435 
z
" clip-path="url(#pa59ba57369)" style="fill: #1f77b4; opacity: 0.3"/>
   </g>
   <g id="patch_46">
    <path d="M 82.629555 379.085 
L 82.629555 379.085 
L 82.629555 -643799229.478431 
L 82.629555 -643799229.478431 
z
" clip-path="url(#pa59ba57369)" style="fill: #1f77b4; opacity: 0.3"/>
   </g>
   <g id="patch_47">
    <path d="M 82.629555 379.085 
L 82.629555 379.085 
L 82.629555 -559088754.667453 
L 82.629555 -559088754.667453 
z
" clip-path="url(#pa59ba57369)" style="fill: #1f77b4; opacity: 0.3"/>
   </g>
   <g id="patch_48">
    <path d="M 82.629555 379.085 
L 82.629555 379.085 
L 82.629555 -457436184.894283 
L 82.629555 -457436184.894283 
z
" clip-path="url(#pa59ba57369)" style="fill: #1f77b4; opacity: 0.3"/>
   </g>
   <g id="patch_49">
    <path d="M 82.629555 379.085 
L 82.629555 379.085 
L 82.629555 -406609900.007693 
L 82.629555 -406609900.007693 
z
" clip-path="url(#pa59ba57369)" style="fill: #1f77b4; opacity: 0.3"/>
   </g>
   <g id="patch_50">
    <path d="M 82.629555 379.085 
L 82.629556 379.085 
L 82.629556 -406609900.007693 
L 82.629555 -406609900.007693 
z
" clip-path="url(#pa59ba57369)" style="fill: #1f77b4; opacity: 0.3"/>
   </g>
   <g id="patch_51">
    <path d="M 82.629556 379.085 
L 82.629556 379.085 
L 82.629556 -440494089.932084 
L 82.629556 -440494089.932084 
z
" clip-path="url(#pa59ba57369)" style="fill: #1f77b4; opacity: 0.3"/>
   </g>
   <g id="patch_52">
    <path d="M 82.629556 379.085 
L 82.629556 379.085 
L 82.629556 -355783615.121107 
L 82.629556 -355783615.121107 
z
" clip-path="url(#pa59ba57369)" style="fill: #1f77b4; opacity: 0.3"/>
   </g>
   <g id="patch_53">
    <path d="M 82.629556 379.085 
L 82.629556 379.085 
L 82.629556 -372725710.083304 
L 82.629556 -372725710.083304 
z
" clip-path="url(#pa59ba57369)" style="fill: #1f77b4; opacity: 0.3"/>
   </g>
   <g id="patch_54">
    <path d="M 82.629556 379.085 
L 82.629556 379.085 
L 82.629556 -389667805.0455 
L 82.629556 -389667805.0455 
z
" clip-path="url(#pa59ba57369)" style="fill: #1f77b4; opacity: 0.3"/>
   </g>
   <g id="patch_55">
    <path d="M 82.629556 379.085 
L 82.629557 379.085 
L 82.629557 -152478475.57476 
L 82.629556 -152478475.57476 
z
" clip-path="url(#pa59ba57369)" style="fill: #1f77b4; opacity: 0.3"/>
   </g>
   <g id="patch_56">
    <path d="M 82.629557 379.085 
L 82.629557 379.085 
L 82.629557 -101652190.688173 
L 82.629557 -101652190.688173 
z
" clip-path="url(#pa59ba57369)" style="fill: #1f77b4; opacity: 0.3"/>
   </g>
   <g id="patch_57">
    <path d="M 82.629557 379.085 
L 82.629557 379.085 
L 82.629557 -203304760.461347 
L 82.629557 -203304760.461347 
z
" clip-path="url(#pa59ba57369)" style="fill: #1f77b4; opacity: 0.3"/>
   </g>
   <g id="patch_58">
    <path d="M 82.629557 379.085 
L 82.629557 379.085 
L 82.629557 -101652190.688173 
L 82.629557 -101652190.688173 
z
" clip-path="url(#pa59ba57369)" style="fill: #1f77b4; opacity: 0.3"/>
   </g>
   <g id="patch_59">
    <path d="M 82.629557 379.085 
L 82.629557 379.085 
L 82.629557 -101652190.688173 
L 82.629557 -101652190.688173 
z
" clip-path="url(#pa59ba57369)" style="fill: #1f77b4; opacity: 0.3"/>
   </g>
   <g id="patch_60">
    <path d="M 82.629557 379.085 
L 82.629558 379.085 
L 82.629558 -220246855.423542 
L 82.629557 -220246855.423542 
z
" clip-path="url(#pa59ba57369)" style="fill: #1f77b4; opacity: 0.3"/>
   </g>
   <g id="patch_61">
    <path d="M 82.629558 379.085 
L 82.629558 379.085 
L 82.629558 -84710095.725978 
L 82.629558 -84710095.725978 
z
" clip-path="url(#pa59ba57369)" style="fill: #1f77b4; opacity: 0.3"/>
   </g>
   <g id="patch_62">
    <path d="M 82.629558 379.085 
L 82.629558 379.085 
L 82.629558 -50825905.801587 
L 82.629558 -50825905.801587 
z
" clip-path="url(#pa59ba57369)" style="fill: #1f77b4; opacity: 0.3"/>
   </g>
   <g id="patch_63">
    <path d="M 82.629558 379.085 
L 82.629558 379.085 
L 82.629558 -118594285.650369 
L 82.629558 -118594285.650369 
z
" clip-path="url(#pa59ba57369)" style="fill: #1f77b4; opacity: 0.3"/>
   </g>
   <g id="patch_64">
    <path d="M 82.629558 379.085 
L 82.629558 379.085 
L 82.629558 -169420570.536955 
L 82.629558 -169420570.536955 
z
" clip-path="url(#pa59ba57369)" style="fill: #1f77b4; opacity: 0.3"/>
   </g>
   <g id="patch_65">
    <path d="M 82.629558 379.085 
L 82.629559 379.085 
L 82.629559 -67768000.763782 
L 82.629558 -67768000.763782 
z
" clip-path="url(#pa59ba57369)" style="fill: #1f77b4; opacity: 0.3"/>
   </g>
   <g id="patch_66">
    <path d="M 82.629559 379.085 
L 82.629559 379.085 
L 82.629559 -33883810.839391 
L 82.629559 -33883810.839391 
z
" clip-path="url(#pa59ba57369)" style="fill: #1f77b4; opacity: 0.3"/>
   </g>
   <g id="patch_67">
    <path d="M 82.629559 379.085 
L 82.629559 379.085 
L 82.629559 -16941715.877196 
L 82.629559 -16941715.877196 
z
" clip-path="url(#pa59ba57369)" style="fill: #1f77b4; opacity: 0.3"/>
   </g>
   <g id="patch_68">
    <path d="M 82.629559 379.085 
L 82.629559 379.085 
L 82.629559 -50825905.801587 
L 82.629559 -50825905.801587 
z
" clip-path="url(#pa59ba57369)" style="fill: #1f77b4; opacity: 0.3"/>
   </g>
   <g id="patch_69">
    <path d="M 82.629559 379.085 
L 82.629559 379.085 
L 82.629559 -16941715.877196 
L 82.629559 -16941715.877196 
z
" clip-path="url(#pa59ba57369)" style="fill: #1f77b4; opacity: 0.3"/>
   </g>
   <g id="patch_70">
    <path d="M 82.629559 379.085 
L 82.62956 379.085 
L 82.62956 -33883810.839391 
L 82.629559 -33883810.839391 
z
" clip-path="url(#pa59ba57369)" style="fill: #1f77b4; opacity: 0.3"/>
   </g>
   <g id="patch_71">
    <path d="M 82.62956 379.085 
L 82.62956 379.085 
L 82.62956 -67768000.763783 
L 82.62956 -67768000.763783 
z
" clip-path="url(#pa59ba57369)" style="fill: #1f77b4; opacity: 0.3"/>
   </g>
   <g id="patch_72">
    <path d="M 82.62956 379.085 
L 82.62956 379.085 
L 82.62956 -50825905.801587 
L 82.62956 -50825905.801587 
z
" clip-path="url(#pa59ba57369)" style="fill: #1f77b4; opacity: 0.3"/>
   </g>
   <g id="patch_73">
    <path d="M 82.62956 379.085 
L 82.62956 379.085 
L 82.62956 -16941715.877196 
L 82.62956 -16941715.877196 
z
" clip-path="url(#pa59ba57369)" style="fill: #1f77b4; opacity: 0.3"/>
   </g>
   <g id="patch_74">
    <path d="M 82.62956 379.085 
L 82.62956 379.085 
L 82.62956 -67768000.763782 
L 82.62956 -67768000.763782 
z
" clip-path="url(#pa59ba57369)" style="fill: #1f77b4; opacity: 0.3"/>
   </g>
   <g id="patch_75">
    <path d="M 82.62956 379.085 
L 82.629561 379.085 
L 82.629561 379.085 
L 82.62956 379.085 
z
" clip-path="url(#pa59ba57369)" style="fill: #1f77b4; opacity: 0.3"/>
   </g>
   <g id="patch_76">
    <path d="M 82.629561 379.085 
L 82.629561 379.085 
L 82.629561 -33883810.839391 
L 82.629561 -33883810.839391 
z
" clip-path="url(#pa59ba57369)" style="fill: #1f77b4; opacity: 0.3"/>
   </g>
   <g id="patch_77">
    <path d="M 82.629561 379.085 
L 82.629561 379.085 
L 82.629561 -33883810.839391 
L 82.629561 -33883810.839391 
z
" clip-path="url(#pa59ba57369)" style="fill: #1f77b4; opacity: 0.3"/>
   </g>
   <g id="patch_78">
    <path d="M 82.629561 379.085 
L 82.629561 379.085 
L 82.629561 -33883810.839392 
L 82.629561 -33883810.839392 
z
" clip-path="url(#pa59ba57369)" style="fill: #1f77b4; opacity: 0.3"/>
   </g>
   <g id="patch_79">
    <path d="M 82.629561 379.085 
L 82.629561 379.085 
L 82.629561 -33883810.839391 
L 82.629561 -33883810.839391 
z
" clip-path="url(#pa59ba57369)" style="fill: #1f77b4; opacity: 0.3"/>
   </g>
   <g id="patch_80">
    <path d="M 82.629561 379.085 
L 82.629561 379.085 
L 82.629561 -16941715.877196 
L 82.629561 -16941715.877196 
z
" clip-path="url(#pa59ba57369)" style="fill: #1f77b4; opacity: 0.3"/>
   </g>
   <g id="patch_81">
    <path d="M 82.629561 379.085 
L 82.629562 379.085 
L 82.629562 -16941715.877196 
L 82.629561 -16941715.877196 
z
" clip-path="url(#pa59ba57369)" style="fill: #1f77b4; opacity: 0.3"/>
   </g>
   <g id="patch_82">
    <path d="M 82.629562 379.085 
L 82.629562 379.085 
L 82.629562 379.085 
L 82.629562 379.085 
z
" clip-path="url(#pa59ba57369)" style="fill: #1f77b4; opacity: 0.3"/>
   </g>
   <g id="patch_83">
    <path d="M 82.629562 379.085 
L 82.629562 379.085 
L 82.629562 -16941715.877196 
L 82.629562 -16941715.877196 
z
" clip-path="url(#pa59ba57369)" style="fill: #1f77b4; opacity: 0.3"/>
   </g>
   <g id="patch_84">
    <path d="M 82.629562 379.085 
L 82.629562 379.085 
L 82.629562 -16941715.877196 
L 82.629562 -16941715.877196 
z
" clip-path="url(#pa59ba57369)" style="fill: #1f77b4; opacity: 0.3"/>
   </g>
   <g id="patch_85">
    <path d="M 82.629562 379.085 
L 82.629562 379.085 
L 82.629562 379.085 
L 82.629562 379.085 
z
" clip-path="url(#pa59ba57369)" style="fill: #1f77b4; opacity: 0.3"/>
   </g>
   <g id="patch_86">
    <path d="M 82.629562 379.085 
L 82.629563 379.085 
L 82.629563 -16941715.877196 
L 82.629562 -16941715.877196 
z
" clip-path="url(#pa59ba57369)" style="fill: #1f77b4; opacity: 0.3"/>
   </g>
   <g id="patch_87">
    <path d="M 82.629563 379.085 
L 82.629563 379.085 
L 82.629563 379.085 
L 82.629563 379.085 
z
" clip-path="url(#pa59ba57369)" style="fill: #1f77b4; opacity: 0.3"/>
   </g>
   <g id="patch_88">
    <path d="M 82.629563 379.085 
L 82.629563 379.085 
L 82.629563 379.085 
L 82.629563 379.085 
z
" clip-path="url(#pa59ba57369)" style="fill: #1f77b4; opacity: 0.3"/>
   </g>
   <g id="patch_89">
    <path d="M 82.629563 379.085 
L 82.629563 379.085 
L 82.629563 379.085 
L 82.629563 379.085 
z
" clip-path="url(#pa59ba57369)" style="fill: #1f77b4; opacity: 0.3"/>
   </g>
   <g id="patch_90">
    <path d="M 82.629563 379.085 
L 82.629563 379.085 
L 82.629563 379.085 
L 82.629563 379.085 
z
" clip-path="url(#pa59ba57369)" style="fill: #1f77b4; opacity: 0.3"/>
   </g>
   <g id="patch_91">
    <path d="M 82.629563 379.085 
L 82.629564 379.085 
L 82.629564 -50825905.801587 
L 82.629563 -50825905.801587 
z
" clip-path="url(#pa59ba57369)" style="fill: #1f77b4; opacity: 0.3"/>
   </g>
   <g id="patch_92">
    <path d="M 82.629564 379.085 
L 82.629564 379.085 
L 82.629564 379.085 
L 82.629564 379.085 
z
" clip-path="url(#pa59ba57369)" style="fill: #1f77b4; opacity: 0.3"/>
   </g>
   <g id="patch_93">
    <path d="M 82.629564 379.085 
L 82.629564 379.085 
L 82.629564 379.085 
L 82.629564 379.085 
z
" clip-path="url(#pa59ba57369)" style="fill: #1f77b4; opacity: 0.3"/>
   </g>
   <g id="patch_94">
    <path d="M 82.629564 379.085 
L 82.629564 379.085 
L 82.629564 379.085 
L 82.629564 379.085 
z
" clip-path="url(#pa59ba57369)" style="fill: #1f77b4; opacity: 0.3"/>
   </g>
   <g id="patch_95">
    <path d="M 82.629564 379.085 
L 82.629564 379.085 
L 82.629564 379.085 
L 82.629564 379.085 
z
" clip-path="url(#pa59ba57369)" style="fill: #1f77b4; opacity: 0.3"/>
   </g>
   <g id="patch_96">
    <path d="M 82.629564 379.085 
L 82.629565 379.085 
L 82.629565 379.085 
L 82.629564 379.085 
z
" clip-path="url(#pa59ba57369)" style="fill: #1f77b4; opacity: 0.3"/>
   </g>
   <g id="patch_97">
    <path d="M 82.629565 379.085 
L 82.629565 379.085 
L 82.629565 379.085 
L 82.629565 379.085 
z
" clip-path="url(#pa59ba57369)" style="fill: #1f77b4; opacity: 0.3"/>
   </g>
   <g id="patch_98">
    <path d="M 82.629565 379.085 
L 82.629565 379.085 
L 82.629565 379.085 
L 82.629565 379.085 
z
" clip-path="url(#pa59ba57369)" style="fill: #1f77b4; opacity: 0.3"/>
   </g>
   <g id="patch_99">
    <path d="M 82.629565 379.085 
L 82.629565 379.085 
L 82.629565 379.085 
L 82.629565 379.085 
z
" clip-path="url(#pa59ba57369)" style="fill: #1f77b4; opacity: 0.3"/>
   </g>
   <g id="patch_100">
    <path d="M 82.629565 379.085 
L 82.629565 379.085 
L 82.629565 379.085 
L 82.629565 379.085 
z
" clip-path="url(#pa59ba57369)" style="fill: #1f77b4; opacity: 0.3"/>
   </g>
   <g id="patch_101">
    <path d="M 82.629565 379.085 
L 82.629566 379.085 
L 82.629566 379.085 
L 82.629565 379.085 
z
" clip-path="url(#pa59ba57369)" style="fill: #1f77b4; opacity: 0.3"/>
   </g>
   <g id="patch_102">
    <path d="M 82.629566 379.085 
L 82.629566 379.085 
L 82.629566 -16941715.877196 
L 82.629566 -16941715.877196 
z
" clip-path="url(#pa59ba57369)" style="fill: #1f77b4; opacity: 0.3"/>
   </g>
   <g id="matplotlib.axis_1">
    <g id="xtick_1">
     <g id="line2d_1">
      <path d="M 82.629545 379.085 
L 82.629545 34.56 
" clip-path="url(#pa59ba57369)" style="fill: none; stroke-dasharray: 1.48,0.64; stroke-dashoffset: 0; stroke: #b0b0b0; stroke-width: 0.4"/>
     </g>
    </g>
    <g id="xtick_2">
     <g id="line2d_2">
      <path d="M 171.676632 379.085 
L 171.676632 34.56 
" clip-path="url(#pa59ba57369)" style="fill: none; stroke-dasharray: 1.48,0.64; stroke-dashoffset: 0; stroke: #b0b0b0; stroke-width: 0.4"/>
     </g>
    </g>
    <g id="xtick_3">
     <g id="line2d_3">
      <path d="M 260.723719 379.085 
L 260.723719 34.56 
" clip-path="url(#pa59ba57369)" style="fill: none; stroke-dasharray: 1.48,0.64; stroke-dashoffset: 0; stroke: #b0b0b0; stroke-width: 0.4"/>
     </g>
    </g>
    <g id="xtick_4">
     <g id="line2d_4">
      <path d="M 349.770805 379.085 
L 349.770805 34.56 
" clip-path="url(#pa59ba57369)" style="fill: none; stroke-dasharray: 1.48,0.64; stroke-dashoffset: 0; stroke: #b0b0b0; stroke-width: 0.4"/>
     </g>
    </g>
    <g id="xtick_5">
     <g id="line2d_5">
      <path d="M 438.817892 379.085 
L 438.817892 34.56 
" clip-path="url(#pa59ba57369)" style="fill: none; stroke-dasharray: 1.48,0.64; stroke-dashoffset: 0; stroke: #b0b0b0; stroke-width: 0.4"/>
     </g>
    </g>
    <g id="xtick_6">
     <g id="line2d_6">
      <path d="M 527.864978 379.085 
L 527.864978 34.56 
" clip-path="url(#pa59ba57369)" style="fill: none; stroke-dasharray: 1.48,0.64; stroke-dashoffset: 0; stroke: #b0b0b0; stroke-width: 0.4"/>
     </g>
    </g>
    <g id="text_1">
     <!-- доля благ -->
     <g transform="translate(260.585 400.48875) scale(0.24 -0.24)">
      <defs>
       <path id="LiberationSansNarrow-434" d="M 2134 2972 
L 1353 2972 
Q 1291 2419 1228 2008 
Q 1166 1597 1103 1294 
Q 1041 991 980 778 
Q 919 566 863 409 
L 2134 409 
L 2134 2972 
z
M 2969 -1275 
L 2553 -1275 
L 2553 0 
L 469 0 
L 469 -1275 
L 50 -1275 
L 50 409 
L 356 409 
Q 434 566 507 789 
Q 581 1013 654 1356 
Q 728 1700 801 2192 
Q 875 2684 947 3381 
L 2597 3381 
L 2597 409 
L 2969 409 
L 2969 -1275 
z
" transform="scale(0.015625)"/>
       <path id="LiberationSansNarrow-43e" d="M 2697 1694 
Q 2697 806 2376 371 
Q 2056 -63 1447 -63 
Q 1156 -63 929 43 
Q 703 150 545 369 
Q 388 588 305 917 
Q 222 1247 222 1694 
Q 222 3444 1463 3444 
Q 1784 3444 2020 3334 
Q 2256 3225 2406 3006 
Q 2556 2788 2626 2459 
Q 2697 2131 2697 1694 
z
M 2213 1694 
Q 2213 2088 2164 2344 
Q 2116 2600 2019 2753 
Q 1922 2906 1783 2967 
Q 1644 3028 1472 3028 
Q 1294 3028 1151 2964 
Q 1009 2900 909 2745 
Q 809 2591 757 2334 
Q 706 2078 706 1694 
Q 706 1300 762 1042 
Q 819 784 917 631 
Q 1016 478 1150 415 
Q 1284 353 1444 353 
Q 1622 353 1764 414 
Q 1906 475 2006 628 
Q 2106 781 2159 1040 
Q 2213 1300 2213 1694 
z
" transform="scale(0.015625)"/>
       <path id="LiberationSansNarrow-43b" d="M 2231 0 
L 2231 2972 
L 1272 2972 
Q 1209 2397 1154 1948 
Q 1100 1500 1044 1162 
Q 988 825 922 592 
Q 856 359 765 214 
Q 675 69 554 3 
Q 434 -63 269 -63 
Q 194 -63 133 -50 
Q 72 -38 28 -22 
L 28 381 
Q 56 369 104 361 
Q 153 353 203 353 
Q 294 353 358 418 
Q 422 484 473 631 
Q 525 778 567 1011 
Q 609 1244 653 1581 
Q 697 1919 744 2363 
L 856 3381 
L 2697 3381 
L 2697 0 
L 2231 0 
z
" transform="scale(0.015625)"/>
       <path id="LiberationSansNarrow-44f" d="M 1372 1431 
L 566 0 
L 44 0 
L 925 1472 
Q 591 1556 439 1811 
Q 288 2066 288 2447 
Q 288 2913 564 3147 
Q 841 3381 1372 3381 
L 2478 3381 
L 2478 0 
L 2019 0 
L 2019 1431 
L 1372 1431 
z
M 2019 2984 
L 1419 2984 
Q 1084 2984 931 2840 
Q 778 2697 778 2406 
Q 778 2113 914 1967 
Q 1050 1822 1369 1822 
L 2019 1822 
L 2019 2984 
z
" transform="scale(0.015625)"/>
       <path id="LiberationSansNarrow-20" transform="scale(0.015625)"/>
       <path id="LiberationSansNarrow-431" d="M 2300 1569 
Q 2300 1925 2250 2161 
Q 2200 2397 2108 2539 
Q 2016 2681 1881 2739 
Q 1747 2797 1581 2797 
Q 1403 2797 1258 2736 
Q 1113 2675 1009 2531 
Q 906 2388 848 2153 
Q 791 1919 791 1569 
Q 791 1213 848 978 
Q 906 744 1004 605 
Q 1103 466 1237 409 
Q 1372 353 1531 353 
Q 1709 353 1851 409 
Q 1994 466 2094 603 
Q 2194 741 2247 977 
Q 2300 1213 2300 1569 
z
M 1678 3209 
Q 2247 3209 2515 2801 
Q 2784 2394 2784 1575 
Q 2784 747 2464 342 
Q 2144 -63 1534 -63 
Q 1244 -63 1017 46 
Q 791 156 633 400 
Q 475 644 390 1034 
Q 306 1425 306 1988 
Q 306 2588 381 3022 
Q 456 3456 620 3757 
Q 784 4059 1048 4239 
Q 1313 4419 1688 4506 
Q 1834 4541 1962 4567 
Q 2091 4594 2206 4616 
L 2434 4656 
L 2656 4694 
L 2656 4191 
Q 2434 4156 2228 4120 
Q 2022 4084 1788 4031 
Q 1588 3988 1430 3936 
Q 1272 3884 1151 3806 
Q 1031 3728 945 3614 
Q 859 3500 803 3331 
Q 747 3163 717 2930 
Q 688 2697 681 2381 
Q 731 2553 817 2704 
Q 903 2856 1026 2968 
Q 1150 3081 1311 3145 
Q 1472 3209 1678 3209 
z
" transform="scale(0.015625)"/>
       <path id="LiberationSansNarrow-430" d="M 1059 -63 
Q 641 -63 431 206 
Q 222 475 222 944 
Q 222 1278 326 1492 
Q 431 1706 598 1828 
Q 766 1950 981 1997 
Q 1197 2044 1419 2050 
L 2044 2063 
L 2044 2247 
Q 2044 2456 2008 2603 
Q 1972 2750 1897 2840 
Q 1822 2931 1711 2973 
Q 1600 3016 1447 3016 
Q 1313 3016 1206 2992 
Q 1100 2969 1020 2908 
Q 941 2847 892 2742 
Q 844 2638 828 2478 
L 347 2531 
Q 372 2731 444 2898 
Q 516 3066 647 3187 
Q 778 3309 976 3376 
Q 1175 3444 1459 3444 
Q 1981 3444 2245 3151 
Q 2509 2859 2509 2306 
L 2509 850 
Q 2509 600 2562 473 
Q 2616 347 2769 347 
Q 2806 347 2845 353 
Q 2884 359 2919 369 
L 2919 19 
Q 2831 -6 2745 -18 
Q 2659 -31 2563 -31 
Q 2431 -31 2337 11 
Q 2244 53 2186 139 
Q 2128 225 2097 351 
Q 2066 478 2056 647 
L 2044 647 
Q 1969 484 1880 353 
Q 1791 222 1673 130 
Q 1556 38 1404 -12 
Q 1253 -63 1059 -63 
z
M 1166 359 
Q 1388 359 1552 457 
Q 1716 556 1825 709 
Q 1934 863 1989 1044 
Q 2044 1225 2044 1391 
L 2044 1669 
L 1538 1656 
Q 1369 1653 1216 1626 
Q 1063 1600 948 1522 
Q 834 1444 765 1303 
Q 697 1163 697 934 
Q 697 659 819 509 
Q 941 359 1166 359 
z
" transform="scale(0.015625)"/>
       <path id="LiberationSansNarrow-433" d="M 1763 3381 
L 1763 2972 
L 825 2972 
L 825 0 
L 366 0 
L 366 3381 
L 1763 3381 
z
" transform="scale(0.015625)"/>
      </defs>
      <use xlink:href="#LiberationSansNarrow-434"/>
      <use xlink:href="#LiberationSansNarrow-43e" x="47.802734"/>
      <use xlink:href="#LiberationSansNarrow-43b" x="91.158203"/>
      <use xlink:href="#LiberationSansNarrow-44f" x="138.960938"/>
      <use xlink:href="#LiberationSansNarrow-20" x="183.394531"/>
      <use xlink:href="#LiberationSansNarrow-431" x="206.197266"/>
      <use xlink:href="#LiberationSansNarrow-43b" x="248.669922"/>
      <use xlink:href="#LiberationSansNarrow-430" x="296.472656"/>
      <use xlink:href="#LiberationSansNarrow-433" x="342.078125"/>
     </g>
    </g>
   </g>
   <g id="matplotlib.axis_2">
    <g id="ytick_1">
     <g id="line2d_7">
      <path d="M 60.37 379.085 
L 550.08 379.085 
" clip-path="url(#pa59ba57369)" style="fill: none; stroke-dasharray: 1.48,0.64; stroke-dashoffset: 0; stroke: #b0b0b0; stroke-width: 0.4"/>
     </g>
    </g>
    <g id="ytick_2">
     <g id="line2d_8">
      <path d="M 60.37 303.850641 
L 550.08 303.850641 
" clip-path="url(#pa59ba57369)" style="fill: none; stroke-dasharray: 1.48,0.64; stroke-dashoffset: 0; stroke: #b0b0b0; stroke-width: 0.4"/>
     </g>
    </g>
    <g id="ytick_3">
     <g id="line2d_9">
      <path d="M 60.37 228.616281 
L 550.08 228.616281 
" clip-path="url(#pa59ba57369)" style="fill: none; stroke-dasharray: 1.48,0.64; stroke-dashoffset: 0; stroke: #b0b0b0; stroke-width: 0.4"/>
     </g>
    </g>
    <g id="ytick_4">
     <g id="line2d_10">
      <path d="M 60.37 153.381922 
L 550.08 153.381922 
" clip-path="url(#pa59ba57369)" style="fill: none; stroke-dasharray: 1.48,0.64; stroke-dashoffset: 0; stroke: #b0b0b0; stroke-width: 0.4"/>
     </g>
    </g>
    <g id="ytick_5">
     <g id="line2d_11">
      <path d="M 60.37 78.147563 
L 550.08 78.147563 
" clip-path="url(#pa59ba57369)" style="fill: none; stroke-dasharray: 1.48,0.64; stroke-dashoffset: 0; stroke: #b0b0b0; stroke-width: 0.4"/>
     </g>
    </g>
    <g id="text_2">
     <!-- доля населения -->
     <g transform="translate(51.39 279.934375) rotate(-90) scale(0.24 -0.24)">
      <defs>
       <path id="LiberationSansNarrow-43d" d="M 825 3381 
L 825 1950 
L 2072 1950 
L 2072 3381 
L 2534 3381 
L 2534 0 
L 2072 0 
L 2072 1541 
L 825 1541 
L 825 0 
L 363 0 
L 363 3381 
L 825 3381 
z
" transform="scale(0.015625)"/>
       <path id="LiberationSansNarrow-441" d="M 706 1706 
Q 706 1416 740 1172 
Q 775 928 856 751 
Q 938 575 1072 478 
Q 1206 381 1406 381 
Q 1653 381 1817 543 
Q 1981 706 2019 1044 
L 2488 1006 
Q 2466 797 2387 603 
Q 2309 409 2178 262 
Q 2047 116 1856 26 
Q 1666 -63 1419 -63 
Q 1094 -63 864 71 
Q 634 206 492 442 
Q 350 678 286 998 
Q 222 1319 222 1694 
Q 222 2034 269 2295 
Q 316 2556 398 2751 
Q 481 2947 593 3080 
Q 706 3213 839 3292 
Q 972 3372 1117 3408 
Q 1263 3444 1413 3444 
Q 1647 3444 1828 3366 
Q 2009 3288 2142 3152 
Q 2275 3016 2356 2831 
Q 2438 2647 2472 2434 
L 1997 2391 
Q 1963 2672 1816 2837 
Q 1669 3003 1400 3003 
Q 1203 3003 1070 2923 
Q 938 2844 856 2683 
Q 775 2522 740 2278 
Q 706 2034 706 1706 
z
" transform="scale(0.015625)"/>
       <path id="LiberationSansNarrow-435" d="M 684 1572 
Q 684 1306 740 1082 
Q 797 859 890 698 
Q 984 538 1129 448 
Q 1275 359 1481 359 
Q 1781 359 1962 506 
Q 2144 653 2206 878 
L 2613 738 
Q 2569 597 2491 455 
Q 2413 313 2281 198 
Q 2150 84 1954 10 
Q 1759 -63 1481 -63 
Q 866 -63 544 384 
Q 222 831 222 1713 
Q 222 2188 320 2517 
Q 419 2847 587 3053 
Q 756 3259 981 3351 
Q 1206 3444 1463 3444 
Q 1813 3444 2047 3306 
Q 2500 3041 2625 2356 
Q 2684 2028 2684 1647 
L 2684 1572 
L 684 1572 
z
M 2222 2003 
Q 2222 2569 2011 2798 
Q 1800 3028 1456 3028 
Q 1213 3028 981 2822 
Q 700 2581 684 2003 
L 2222 2003 
z
" transform="scale(0.015625)"/>
       <path id="LiberationSansNarrow-438" d="M 809 3381 
L 809 1531 
Q 809 1459 806 1339 
Q 803 1219 798 1091 
Q 794 963 791 847 
Q 788 731 784 666 
L 2066 3381 
L 2569 3381 
L 2569 0 
L 2128 0 
L 2128 2063 
Q 2128 2122 2131 2213 
L 2138 2394 
Q 2141 2488 2144 2575 
L 2153 2728 
L 856 0 
L 366 0 
L 366 3381 
L 809 3381 
z
" transform="scale(0.015625)"/>
      </defs>
      <use xlink:href="#LiberationSansNarrow-434"/>
      <use xlink:href="#LiberationSansNarrow-43e" x="47.802734"/>
      <use xlink:href="#LiberationSansNarrow-43b" x="91.158203"/>
      <use xlink:href="#LiberationSansNarrow-44f" x="138.960938"/>
      <use xlink:href="#LiberationSansNarrow-20" x="183.394531"/>
      <use xlink:href="#LiberationSansNarrow-43d" x="206.197266"/>
      <use xlink:href="#LiberationSansNarrow-430" x="251.460938"/>
      <use xlink:href="#LiberationSansNarrow-441" x="297.066406"/>
      <use xlink:href="#LiberationSansNarrow-435" x="338.082031"/>
      <use xlink:href="#LiberationSansNarrow-43b" x="380.3125"/>
      <use xlink:href="#LiberationSansNarrow-435" x="428.115234"/>
      <use xlink:href="#LiberationSansNarrow-43d" x="473.720703"/>
      <use xlink:href="#LiberationSansNarrow-438" x="518.984375"/>
      <use xlink:href="#LiberationSansNarrow-44f" x="564.833984"/>
     </g>
    </g>
   </g>
  </g>
  <g id="axes_2">
   <g id="matplotlib.axis_3">
    <g id="ytick_6">
     <g id="line2d_12">
      <path d="M 60.37 379.085 
L 550.08 379.085 
" clip-path="url(#pa59ba57369)" style="fill: none; stroke-dasharray: 1.48,0.64; stroke-dashoffset: 0; stroke: #b0b0b0; stroke-width: 0.4"/>
     </g>
     <g id="text_3">
      <!-- 0.0 -->
      <g transform="translate(26.00625 387.78125) scale(0.24 -0.24)">
       <defs>
        <path id="LiberationSansNarrow-30" d="M 2713 2203 
Q 2713 1569 2614 1136 
Q 2516 703 2345 436 
Q 2175 169 1945 53 
Q 1716 -63 1453 -63 
Q 1191 -63 962 53 
Q 734 169 565 434 
Q 397 700 301 1133 
Q 206 1566 206 2203 
Q 206 2869 301 3305 
Q 397 3741 565 4000 
Q 734 4259 965 4364 
Q 1197 4469 1469 4469 
Q 1728 4469 1954 4364 
Q 2181 4259 2350 4000 
Q 2519 3741 2616 3305 
Q 2713 2869 2713 2203 
z
M 2244 2203 
Q 2244 2728 2194 3076 
Q 2144 3425 2044 3633 
Q 1944 3841 1798 3927 
Q 1653 4013 1469 4013 
Q 1275 4013 1125 3925 
Q 975 3838 875 3630 
Q 775 3422 723 3073 
Q 672 2725 672 2203 
Q 672 1697 723 1350 
Q 775 1003 876 792 
Q 978 581 1125 489 
Q 1272 397 1459 397 
Q 1641 397 1786 489 
Q 1931 581 2032 792 
Q 2134 1003 2189 1350 
Q 2244 1697 2244 2203 
z
" transform="scale(0.015625)"/>
        <path id="LiberationSansNarrow-2e" d="M 478 0 
L 478 684 
L 981 684 
L 981 0 
L 478 0 
z
" transform="scale(0.015625)"/>
       </defs>
       <use xlink:href="#LiberationSansNarrow-30"/>
       <use xlink:href="#LiberationSansNarrow-2e" x="45.605469"/>
       <use xlink:href="#LiberationSansNarrow-30" x="68.408203"/>
      </g>
     </g>
    </g>
    <g id="ytick_7">
     <g id="line2d_13">
      <path d="M 60.37 310.18 
L 550.08 310.18 
" clip-path="url(#pa59ba57369)" style="fill: none; stroke-dasharray: 1.48,0.64; stroke-dashoffset: 0; stroke: #b0b0b0; stroke-width: 0.4"/>
     </g>
     <g id="text_4">
      <!-- 0.2 -->
      <g transform="translate(26.00625 318.87625) scale(0.24 -0.24)">
       <defs>
        <path id="LiberationSansNarrow-32" d="M 263 0 
L 263 397 
Q 394 763 583 1042 
Q 772 1322 980 1548 
Q 1188 1775 1391 1969 
Q 1594 2163 1758 2356 
Q 1922 2550 2023 2762 
Q 2125 2975 2125 3244 
Q 2125 3431 2078 3573 
Q 2031 3716 1945 3812 
Q 1859 3909 1737 3957 
Q 1616 4006 1466 4006 
Q 1328 4006 1206 3959 
Q 1084 3913 989 3819 
Q 894 3725 834 3586 
Q 775 3447 756 3263 
L 284 3316 
Q 306 3553 392 3762 
Q 478 3972 626 4130 
Q 775 4288 983 4378 
Q 1191 4469 1466 4469 
Q 1734 4469 1945 4391 
Q 2156 4313 2300 4159 
Q 2444 4006 2522 3781 
Q 2600 3556 2600 3263 
Q 2600 3041 2534 2841 
Q 2469 2641 2359 2459 
Q 2250 2278 2106 2109 
Q 1963 1941 1806 1781 
L 1491 1463 
Q 1331 1303 1192 1143 
Q 1053 984 943 820 
Q 834 656 772 478 
L 2656 478 
L 2656 0 
L 263 0 
z
" transform="scale(0.015625)"/>
       </defs>
       <use xlink:href="#LiberationSansNarrow-30"/>
       <use xlink:href="#LiberationSansNarrow-2e" x="45.605469"/>
       <use xlink:href="#LiberationSansNarrow-32" x="68.408203"/>
      </g>
     </g>
    </g>
    <g id="ytick_8">
     <g id="line2d_14">
      <path d="M 60.37 241.275 
L 550.08 241.275 
" clip-path="url(#pa59ba57369)" style="fill: none; stroke-dasharray: 1.48,0.64; stroke-dashoffset: 0; stroke: #b0b0b0; stroke-width: 0.4"/>
     </g>
     <g id="text_5">
      <!-- 0.4 -->
      <g transform="translate(26.00625 249.97125) scale(0.24 -0.24)">
       <defs>
        <path id="LiberationSansNarrow-34" d="M 2256 997 
L 2256 0 
L 1822 0 
L 1822 997 
L 122 997 
L 122 1434 
L 1772 4403 
L 2256 4403 
L 2256 1441 
L 2766 1441 
L 2766 997 
L 2256 997 
z
M 1822 3769 
Q 1816 3753 1794 3706 
L 1750 3606 
L 1700 3494 
Q 1672 3434 1650 3397 
L 725 1734 
Q 713 1709 688 1669 
L 638 1588 
L 588 1503 
Q 563 1463 547 1441 
L 1822 1441 
L 1822 3769 
z
" transform="scale(0.015625)"/>
       </defs>
       <use xlink:href="#LiberationSansNarrow-30"/>
       <use xlink:href="#LiberationSansNarrow-2e" x="45.605469"/>
       <use xlink:href="#LiberationSansNarrow-34" x="68.408203"/>
      </g>
     </g>
    </g>
    <g id="ytick_9">
     <g id="line2d_15">
      <path d="M 60.37 172.37 
L 550.08 172.37 
" clip-path="url(#pa59ba57369)" style="fill: none; stroke-dasharray: 1.48,0.64; stroke-dashoffset: 0; stroke: #b0b0b0; stroke-width: 0.4"/>
     </g>
     <g id="text_6">
      <!-- 0.6 -->
      <g transform="translate(26.00625 181.06625) scale(0.24 -0.24)">
       <defs>
        <path id="LiberationSansNarrow-36" d="M 2688 1441 
Q 2688 1109 2613 832 
Q 2538 556 2391 357 
Q 2244 159 2025 48 
Q 1806 -63 1522 -63 
Q 1206 -63 970 84 
Q 734 231 578 507 
Q 422 784 344 1186 
Q 266 1588 266 2100 
Q 266 2688 355 3131 
Q 444 3575 609 3872 
Q 775 4169 1015 4319 
Q 1256 4469 1559 4469 
Q 1744 4469 1905 4422 
Q 2066 4375 2197 4270 
Q 2328 4166 2428 3994 
Q 2528 3822 2588 3572 
L 2147 3475 
Q 2075 3759 1917 3886 
Q 1759 4013 1553 4013 
Q 1363 4013 1209 3903 
Q 1056 3794 948 3576 
Q 841 3359 783 3031 
Q 725 2703 725 2266 
Q 850 2550 1078 2698 
Q 1306 2847 1603 2847 
Q 1850 2847 2048 2750 
Q 2247 2653 2389 2470 
Q 2531 2288 2609 2027 
Q 2688 1766 2688 1441 
z
M 2219 1416 
Q 2219 1644 2173 1828 
Q 2128 2013 2036 2142 
Q 1944 2272 1808 2342 
Q 1672 2413 1491 2413 
Q 1366 2413 1237 2367 
Q 1109 2322 1006 2220 
Q 903 2119 837 1953 
Q 772 1788 772 1550 
Q 772 1306 823 1095 
Q 875 884 970 728 
Q 1066 572 1202 481 
Q 1338 391 1506 391 
Q 1672 391 1805 461 
Q 1938 531 2030 664 
Q 2122 797 2170 987 
Q 2219 1178 2219 1416 
z
" transform="scale(0.015625)"/>
       </defs>
       <use xlink:href="#LiberationSansNarrow-30"/>
       <use xlink:href="#LiberationSansNarrow-2e" x="45.605469"/>
       <use xlink:href="#LiberationSansNarrow-36" x="68.408203"/>
      </g>
     </g>
    </g>
    <g id="ytick_10">
     <g id="line2d_16">
      <path d="M 60.37 103.465 
L 550.08 103.465 
" clip-path="url(#pa59ba57369)" style="fill: none; stroke-dasharray: 1.48,0.64; stroke-dashoffset: 0; stroke: #b0b0b0; stroke-width: 0.4"/>
     </g>
     <g id="text_7">
      <!-- 0.8 -->
      <g transform="translate(26.00625 112.16125) scale(0.24 -0.24)">
       <defs>
        <path id="LiberationSansNarrow-38" d="M 2691 1228 
Q 2691 947 2617 711 
Q 2544 475 2394 303 
Q 2244 131 2011 34 
Q 1778 -63 1459 -63 
Q 1141 -63 909 34 
Q 678 131 526 301 
Q 375 472 301 708 
Q 228 944 228 1222 
Q 228 1463 289 1650 
Q 350 1838 450 1973 
Q 550 2109 679 2192 
Q 809 2275 947 2303 
L 947 2316 
Q 797 2359 678 2456 
Q 559 2553 478 2689 
Q 397 2825 355 2990 
Q 313 3156 313 3341 
Q 313 3572 386 3776 
Q 459 3981 603 4136 
Q 747 4291 959 4380 
Q 1172 4469 1450 4469 
Q 1744 4469 1961 4378 
Q 2178 4288 2320 4133 
Q 2463 3978 2531 3772 
Q 2600 3566 2600 3334 
Q 2600 3153 2558 2987 
Q 2516 2822 2436 2686 
Q 2356 2550 2236 2454 
Q 2116 2359 1959 2322 
L 1959 2309 
Q 2116 2278 2250 2195 
Q 2384 2113 2481 1977 
Q 2578 1841 2634 1653 
Q 2691 1466 2691 1228 
z
M 2122 3303 
Q 2122 3469 2087 3606 
Q 2053 3744 1973 3842 
Q 1894 3941 1766 3995 
Q 1638 4050 1450 4050 
Q 1269 4050 1144 3995 
Q 1019 3941 937 3842 
Q 856 3744 820 3606 
Q 784 3469 784 3303 
Q 784 3172 812 3034 
Q 841 2897 916 2784 
Q 991 2672 1120 2600 
Q 1250 2528 1456 2528 
Q 1675 2528 1806 2600 
Q 1938 2672 2008 2784 
Q 2078 2897 2100 3034 
Q 2122 3172 2122 3303 
z
M 2213 1281 
Q 2213 1441 2177 1589 
Q 2141 1738 2053 1852 
Q 1966 1966 1819 2036 
Q 1672 2106 1450 2106 
Q 1247 2106 1105 2036 
Q 963 1966 875 1850 
Q 788 1734 747 1582 
Q 706 1431 706 1269 
Q 706 1066 747 898 
Q 788 731 877 611 
Q 966 491 1112 425 
Q 1259 359 1466 359 
Q 1675 359 1819 425 
Q 1963 491 2050 611 
Q 2138 731 2175 901 
Q 2213 1072 2213 1281 
z
" transform="scale(0.015625)"/>
       </defs>
       <use xlink:href="#LiberationSansNarrow-30"/>
       <use xlink:href="#LiberationSansNarrow-2e" x="45.605469"/>
       <use xlink:href="#LiberationSansNarrow-38" x="68.408203"/>
      </g>
     </g>
    </g>
    <g id="ytick_11">
     <g id="line2d_17">
      <path d="M 60.37 34.56 
L 550.08 34.56 
" clip-path="url(#pa59ba57369)" style="fill: none; stroke-dasharray: 1.48,0.64; stroke-dashoffset: 0; stroke: #b0b0b0; stroke-width: 0.4"/>
     </g>
     <g id="text_8">
      <!-- 1.0 -->
      <g transform="translate(26.00625 43.25625) scale(0.24 -0.24)">
       <defs>
        <path id="LiberationSansNarrow-31" d="M 400 0 
L 400 478 
L 1319 478 
L 1319 3866 
L 506 3156 
L 506 3688 
L 1359 4403 
L 1784 4403 
L 1784 478 
L 2663 478 
L 2663 0 
L 400 0 
z
" transform="scale(0.015625)"/>
       </defs>
       <use xlink:href="#LiberationSansNarrow-31"/>
       <use xlink:href="#LiberationSansNarrow-2e" x="45.605469"/>
       <use xlink:href="#LiberationSansNarrow-30" x="68.408203"/>
      </g>
     </g>
    </g>
   </g>
   <g id="line2d_18">
    <path d="M 82.629545 379.080222 
L 84.232393 378.788298 
L 88.284035 377.847391 
L 93.804955 376.333552 
L 101.195863 374.038113 
L 110.011525 371.047225 
L 119.361469 367.633485 
L 129.735454 363.588672 
L 140.777293 359.042995 
L 152.041749 354.155519 
L 163.662394 348.876282 
L 175.995416 343.031906 
L 188.061296 337.07566 
L 200.483364 330.698036 
L 213.128051 323.95999 
L 225.950831 316.866009 
L 238.684565 309.56634 
L 250.349733 302.638462 
L 262.638231 295.080687 
L 275.416488 286.967284 
L 287.660462 278.922782 
L 300.127054 270.46018 
L 312.148411 262.049513 
L 324.525956 253.111282 
L 336.948025 243.864076 
L 348.479622 234.993682 
L 360.100267 225.772074 
L 371.186629 216.679103 
L 382.540133 207.075862 
L 393.448401 197.571796 
L 404.312146 187.815495 
L 414.641608 178.251343 
L 424.34774 168.968508 
L 434.454584 158.991547 
L 443.44834 149.810889 
L 452.709237 140.005738 
L 460.990616 130.911616 
L 468.82676 121.991741 
L 476.262191 113.206405 
L 483.920241 103.780885 
L 491.088531 94.580903 
L 496.876592 86.817157 
L 502.397511 79.083475 
L 507.740337 71.215921 
L 512.81602 63.327892 
L 516.912186 56.570592 
L 520.785735 49.718092 
L 523.902383 43.782691 
L 526.084036 39.117306 
L 527.330696 36.018454 
L 527.820455 34.56 
L 527.820455 34.56 
" clip-path="url(#pa59ba57369)" style="fill: none; stroke: #1f77b4; stroke-width: 1.5; stroke-linecap: square"/>
   </g>
  </g>
 </g>
 <defs>
  <clipPath id="pa59ba57369">
   <rect x="60.37" y="34.56" width="489.71" height="344.525"/>
  </clipPath>
 </defs>
</svg>
