<?xml version="1.0" encoding="utf-8" standalone="no"?>
<!DOCTYPE svg PUBLIC "-//W3C//DTD SVG 1.1//EN"
  "http://www.w3.org/Graphics/SVG/1.1/DTD/svg11.dtd">
<!-- Created with matplotlib (https://matplotlib.org/) -->
<svg height="288pt" version="1.1" viewBox="0 0 576 288" width="576pt" xmlns="http://www.w3.org/2000/svg" xmlns:xlink="http://www.w3.org/1999/xlink">
 <metadata>
  <rdf:RDF xmlns:cc="http://creativecommons.org/ns#" xmlns:dc="http://purl.org/dc/elements/1.1/" xmlns:rdf="http://www.w3.org/1999/02/22-rdf-syntax-ns#">
   <cc:Work>
    <dc:type rdf:resource="http://purl.org/dc/dcmitype/StillImage"/>
    <dc:date>2022-01-28T17:07:18.172088</dc:date>
    <dc:format>image/svg+xml</dc:format>
    <dc:creator>
     <cc:Agent>
      <dc:title>Matplotlib v3.3.4, https://matplotlib.org/</dc:title>
     </cc:Agent>
    </dc:creator>
   </cc:Work>
  </rdf:RDF>
 </metadata>
 <defs>
  <style type="text/css">*{stroke-linecap:butt;stroke-linejoin:round;}</style>
 </defs>
 <g id="figure_1">
  <g id="patch_1">
   <path d="M 0 288 
L 576 288 
L 576 0 
L 0 0 
z
" style="fill:#ffffff;"/>
  </g>
  <g id="axes_1">
   <g id="patch_2">
    <path d="M 52.94 234.52 
L 560.88 234.52 
L 560.88 15.12 
L 52.94 15.12 
z
" style="fill:#ffffff;"/>
   </g>
   <g id="matplotlib.axis_1">
    <g id="xtick_1">
     <g id="line2d_1">
      <path clip-path="url(#p62d847eac1)" d="M 76.028182 234.52 
L 76.028182 15.12 
" style="fill:none;stroke:#b0b0b0;stroke-dasharray:1.48,0.64;stroke-dashoffset:0;stroke-width:0.4;"/>
     </g>
     <g id="text_1">
      <!-- 0 -->
      <g transform="translate(72.835526 251.665625)scale(0.14 -0.14)">
       <defs>
        <path d="M 42.390625 34.421875 
Q 42.390625 24.515625 40.84375 17.75 
Q 39.3125 10.984375 36.640625 6.8125 
Q 33.984375 2.640625 30.390625 0.828125 
Q 26.8125 -0.984375 22.703125 -0.984375 
Q 18.609375 -0.984375 15.03125 0.828125 
Q 11.46875 2.640625 8.828125 6.78125 
Q 6.203125 10.9375 4.703125 17.703125 
Q 3.21875 24.46875 3.21875 34.421875 
Q 3.21875 44.828125 4.703125 51.640625 
Q 6.203125 58.453125 8.828125 62.5 
Q 11.46875 66.546875 15.078125 68.1875 
Q 18.703125 69.828125 22.953125 69.828125 
Q 27 69.828125 30.53125 68.1875 
Q 34.078125 66.546875 36.71875 62.5 
Q 39.359375 58.453125 40.875 51.640625 
Q 42.390625 44.828125 42.390625 34.421875 
z
M 35.0625 34.421875 
Q 35.0625 42.625 34.28125 48.0625 
Q 33.5 53.515625 31.9375 56.765625 
Q 30.375 60.015625 28.09375 61.359375 
Q 25.828125 62.703125 22.953125 62.703125 
Q 19.921875 62.703125 17.578125 61.328125 
Q 15.234375 59.96875 13.671875 56.71875 
Q 12.109375 53.46875 11.296875 48.015625 
Q 10.5 42.578125 10.5 34.421875 
Q 10.5 26.515625 11.296875 21.09375 
Q 12.109375 15.671875 13.6875 12.375 
Q 15.28125 9.078125 17.578125 7.640625 
Q 19.875 6.203125 22.796875 6.203125 
Q 25.640625 6.203125 27.90625 7.640625 
Q 30.171875 9.078125 31.75 12.375 
Q 33.34375 15.671875 34.203125 21.09375 
Q 35.0625 26.515625 35.0625 34.421875 
z
" id="LiberationSansNarrow-48"/>
       </defs>
       <use xlink:href="#LiberationSansNarrow-48"/>
      </g>
     </g>
    </g>
    <g id="xtick_2">
     <g id="line2d_2">
      <path clip-path="url(#p62d847eac1)" d="M 168.565985 234.52 
L 168.565985 15.12 
" style="fill:none;stroke:#b0b0b0;stroke-dasharray:1.48,0.64;stroke-dashoffset:0;stroke-width:0.4;"/>
     </g>
     <g id="text_2">
      <!-- 100 -->
      <g transform="translate(158.988016 251.665625)scale(0.14 -0.14)">
       <defs>
        <path d="M 6.25 0 
L 6.25 7.46875 
L 20.609375 7.46875 
L 20.609375 60.40625 
L 7.90625 49.3125 
L 7.90625 57.625 
L 21.234375 68.796875 
L 27.875 68.796875 
L 27.875 7.46875 
L 41.609375 7.46875 
L 41.609375 0 
z
" id="LiberationSansNarrow-49"/>
       </defs>
       <use xlink:href="#LiberationSansNarrow-49"/>
       <use x="45.605469" xlink:href="#LiberationSansNarrow-48"/>
       <use x="91.210938" xlink:href="#LiberationSansNarrow-48"/>
      </g>
     </g>
    </g>
    <g id="xtick_3">
     <g id="line2d_3">
      <path clip-path="url(#p62d847eac1)" d="M 261.103788 234.52 
L 261.103788 15.12 
" style="fill:none;stroke:#b0b0b0;stroke-dasharray:1.48,0.64;stroke-dashoffset:0;stroke-width:0.4;"/>
     </g>
     <g id="text_3">
      <!-- 200 -->
      <g transform="translate(251.525819 251.665625)scale(0.14 -0.14)">
       <defs>
        <path d="M 4.109375 0 
L 4.109375 6.203125 
Q 6.15625 11.921875 9.109375 16.28125 
Q 12.0625 20.65625 15.3125 24.1875 
Q 18.5625 27.734375 21.734375 30.765625 
Q 24.90625 33.796875 27.46875 36.8125 
Q 30.03125 39.84375 31.609375 43.15625 
Q 33.203125 46.484375 33.203125 50.6875 
Q 33.203125 53.609375 32.46875 55.828125 
Q 31.734375 58.0625 30.390625 59.5625 
Q 29.046875 61.078125 27.140625 61.828125 
Q 25.25 62.59375 22.90625 62.59375 
Q 20.75 62.59375 18.84375 61.859375 
Q 16.9375 61.140625 15.453125 59.671875 
Q 13.96875 58.203125 13.03125 56.03125 
Q 12.109375 53.859375 11.8125 50.984375 
L 4.4375 51.8125 
Q 4.78125 55.515625 6.125 58.78125 
Q 7.46875 62.0625 9.78125 64.53125 
Q 12.109375 67 15.359375 68.40625 
Q 18.609375 69.828125 22.90625 69.828125 
Q 27.09375 69.828125 30.390625 68.609375 
Q 33.6875 67.390625 35.9375 64.984375 
Q 38.1875 62.59375 39.40625 59.078125 
Q 40.625 55.5625 40.625 50.984375 
Q 40.625 47.515625 39.59375 44.390625 
Q 38.578125 41.265625 36.859375 38.421875 
Q 35.15625 35.59375 32.90625 32.953125 
Q 30.671875 30.328125 28.21875 27.828125 
L 23.296875 22.859375 
Q 20.796875 20.359375 18.625 17.859375 
Q 16.453125 15.375 14.734375 12.8125 
Q 13.03125 10.25 12.0625 7.46875 
L 41.5 7.46875 
L 41.5 0 
z
" id="LiberationSansNarrow-50"/>
       </defs>
       <use xlink:href="#LiberationSansNarrow-50"/>
       <use x="45.605469" xlink:href="#LiberationSansNarrow-48"/>
       <use x="91.210938" xlink:href="#LiberationSansNarrow-48"/>
      </g>
     </g>
    </g>
    <g id="xtick_4">
     <g id="line2d_4">
      <path clip-path="url(#p62d847eac1)" d="M 353.64159 234.52 
L 353.64159 15.12 
" style="fill:none;stroke:#b0b0b0;stroke-dasharray:1.48,0.64;stroke-dashoffset:0;stroke-width:0.4;"/>
     </g>
     <g id="text_4">
      <!-- 300 -->
      <g transform="translate(344.063622 251.665625)scale(0.14 -0.14)">
       <defs>
        <path d="M 42 19 
Q 42 14.265625 40.75 10.546875 
Q 39.5 6.84375 37.0625 4.265625 
Q 34.625 1.703125 31.046875 0.359375 
Q 27.484375 -0.984375 22.859375 -0.984375 
Q 17.625 -0.984375 14.03125 0.609375 
Q 10.453125 2.203125 8.125 4.8125 
Q 5.8125 7.421875 4.640625 10.765625 
Q 3.46875 14.109375 3.125 17.671875 
L 10.546875 18.5 
Q 10.890625 15.765625 11.734375 13.515625 
Q 12.59375 11.28125 14.078125 9.671875 
Q 15.578125 8.0625 17.75 7.171875 
Q 19.921875 6.296875 22.859375 6.296875 
Q 28.328125 6.296875 31.421875 9.5625 
Q 34.515625 12.84375 34.515625 19.28125 
Q 34.515625 23.09375 33.125 25.40625 
Q 31.734375 27.734375 29.6875 29.03125 
Q 27.640625 30.328125 25.21875 30.765625 
Q 22.796875 31.203125 20.75 31.203125 
L 16.65625 31.203125 
L 16.65625 38.8125 
L 20.5625 38.8125 
Q 22.609375 38.8125 24.828125 39.328125 
Q 27.046875 39.84375 28.859375 41.1875 
Q 30.671875 42.53125 31.859375 44.828125 
Q 33.0625 47.125 33.0625 50.6875 
Q 33.0625 56.203125 30.375 59.390625 
Q 27.6875 62.59375 22.46875 62.59375 
Q 17.671875 62.59375 14.734375 59.609375 
Q 11.8125 56.640625 11.328125 51.21875 
L 4.109375 51.90625 
Q 4.546875 56.453125 6.125 59.8125 
Q 7.71875 63.1875 10.171875 65.40625 
Q 12.640625 67.625 15.8125 68.71875 
Q 19 69.828125 22.5625 69.828125 
Q 27.296875 69.828125 30.6875 68.375 
Q 34.078125 66.9375 36.21875 64.46875 
Q 38.375 62.015625 39.40625 58.6875 
Q 40.4375 55.375 40.4375 51.609375 
Q 40.4375 48.578125 39.75 45.9375 
Q 39.0625 43.3125 37.625 41.203125 
Q 36.1875 39.109375 33.953125 37.59375 
Q 31.734375 36.078125 28.609375 35.296875 
L 28.609375 35.109375 
Q 32.03125 34.671875 34.546875 33.21875 
Q 37.0625 31.78125 38.71875 29.625 
Q 40.375 27.484375 41.1875 24.75 
Q 42 22.015625 42 19 
z
" id="LiberationSansNarrow-51"/>
       </defs>
       <use xlink:href="#LiberationSansNarrow-51"/>
       <use x="45.605469" xlink:href="#LiberationSansNarrow-48"/>
       <use x="91.210938" xlink:href="#LiberationSansNarrow-48"/>
      </g>
     </g>
    </g>
    <g id="xtick_5">
     <g id="line2d_5">
      <path clip-path="url(#p62d847eac1)" d="M 446.179393 234.52 
L 446.179393 15.12 
" style="fill:none;stroke:#b0b0b0;stroke-dasharray:1.48,0.64;stroke-dashoffset:0;stroke-width:0.4;"/>
     </g>
     <g id="text_5">
      <!-- 400 -->
      <g transform="translate(436.601425 251.665625)scale(0.14 -0.14)">
       <defs>
        <path d="M 35.25 15.578125 
L 35.25 0 
L 28.46875 0 
L 28.46875 15.578125 
L 1.90625 15.578125 
L 1.90625 22.40625 
L 27.6875 68.796875 
L 35.25 68.796875 
L 35.25 22.515625 
L 43.21875 22.515625 
L 43.21875 15.578125 
z
M 28.46875 58.890625 
Q 28.375 58.640625 28.03125 57.90625 
L 27.34375 56.34375 
L 26.5625 54.59375 
Q 26.125 53.65625 25.78125 53.078125 
L 11.328125 27.09375 
Q 11.140625 26.703125 10.75 26.078125 
L 9.96875 24.8125 
L 9.1875 23.484375 
Q 8.796875 22.859375 8.546875 22.515625 
L 28.46875 22.515625 
z
" id="LiberationSansNarrow-52"/>
       </defs>
       <use xlink:href="#LiberationSansNarrow-52"/>
       <use x="45.605469" xlink:href="#LiberationSansNarrow-48"/>
       <use x="91.210938" xlink:href="#LiberationSansNarrow-48"/>
      </g>
     </g>
    </g>
    <g id="xtick_6">
     <g id="line2d_6">
      <path clip-path="url(#p62d847eac1)" d="M 538.717196 234.52 
L 538.717196 15.12 
" style="fill:none;stroke:#b0b0b0;stroke-dasharray:1.48,0.64;stroke-dashoffset:0;stroke-width:0.4;"/>
     </g>
     <g id="text_6">
      <!-- 500 -->
      <g transform="translate(529.139227 251.665625)scale(0.14 -0.14)">
       <defs>
        <path d="M 42.140625 22.40625 
Q 42.140625 17.234375 40.859375 12.9375 
Q 39.59375 8.640625 37.078125 5.53125 
Q 34.578125 2.4375 30.8125 0.71875 
Q 27.046875 -0.984375 22.125 -0.984375 
Q 17.671875 -0.984375 14.375 0.28125 
Q 11.078125 1.5625 8.8125 3.78125 
Q 6.546875 6 5.203125 8.984375 
Q 3.859375 11.96875 3.265625 15.375 
L 10.546875 16.40625 
Q 10.984375 14.453125 11.78125 12.625 
Q 12.59375 10.796875 13.984375 9.34375 
Q 15.375 7.90625 17.40625 7.046875 
Q 19.4375 6.203125 22.3125 6.203125 
Q 25.09375 6.203125 27.390625 7.25 
Q 29.6875 8.296875 31.296875 10.34375 
Q 32.90625 12.40625 33.78125 15.375 
Q 34.671875 18.359375 34.671875 22.21875 
Q 34.671875 25.390625 33.84375 28.046875 
Q 33.015625 30.71875 31.453125 32.640625 
Q 29.890625 34.578125 27.609375 35.640625 
Q 25.34375 36.71875 22.46875 36.71875 
Q 20.65625 36.71875 19.140625 36.328125 
Q 17.625 35.9375 16.328125 35.25 
Q 15.046875 34.578125 13.96875 33.671875 
Q 12.890625 32.765625 11.96875 31.78125 
L 4.9375 31.78125 
L 6.78125 68.796875 
L 38.875 68.796875 
L 38.875 61.328125 
L 13.375 61.328125 
L 12.3125 39.5 
Q 14.203125 41.3125 17.078125 42.59375 
Q 19.96875 43.890625 23.921875 43.890625 
Q 28.125 43.890625 31.484375 42.328125 
Q 34.859375 40.765625 37.21875 37.90625 
Q 39.59375 35.0625 40.859375 31.109375 
Q 42.140625 27.15625 42.140625 22.40625 
z
" id="LiberationSansNarrow-53"/>
       </defs>
       <use xlink:href="#LiberationSansNarrow-53"/>
       <use x="45.605469" xlink:href="#LiberationSansNarrow-48"/>
       <use x="91.210938" xlink:href="#LiberationSansNarrow-48"/>
      </g>
     </g>
    </g>
    <g id="text_7">
     <!-- Месяцы -->
     <g transform="translate(285.318281 268.71625)scale(0.14 -0.14)">
      <defs>
       <path d="M 54.6875 0 
L 54.6875 45.90625 
Q 54.6875 48.390625 54.734375 50.96875 
Q 54.78125 53.5625 54.828125 55.71875 
Q 54.9375 58.203125 55.078125 60.546875 
Q 54.546875 58.0625 53.90625 55.609375 
Q 53.90625 55.609375 52.734375 51.171875 
Q 52.15625 48.78125 51.515625 46.875 
L 36.96875 0 
L 31.59375 0 
L 16.796875 46.875 
Q 16.546875 47.609375 16.3125 48.578125 
L 15.765625 50.6875 
L 15.140625 52.9375 
L 14.546875 55.171875 
Q 13.875 57.765625 13.234375 60.546875 
Q 13.28125 57.8125 13.375 55.125 
Q 13.484375 52.828125 13.5 50.3125 
Q 13.53125 47.796875 13.53125 45.90625 
L 13.53125 0 
L 6.734375 0 
L 6.734375 68.796875 
L 16.796875 68.796875 
L 31.78125 21.09375 
Q 32.078125 20.125 32.46875 18.578125 
Q 32.859375 17.046875 33.21875 15.421875 
Q 33.59375 13.8125 33.890625 12.375 
Q 34.1875 10.9375 34.328125 10.15625 
Q 34.421875 10.9375 34.734375 12.40625 
Q 35.0625 13.875 35.5 15.484375 
L 36.328125 18.609375 
Q 36.71875 20.125 37.0625 21.09375 
L 51.765625 68.796875 
L 61.578125 68.796875 
L 61.578125 0 
z
" id="LiberationSansNarrow-1052"/>
       <path d="M 10.6875 24.5625 
Q 10.6875 20.40625 11.5625 16.90625 
Q 12.453125 13.421875 13.90625 10.90625 
Q 15.375 8.40625 17.640625 7 
Q 19.921875 5.609375 23.140625 5.609375 
Q 27.828125 5.609375 30.65625 7.90625 
Q 33.5 10.203125 34.46875 13.71875 
L 40.828125 11.53125 
Q 40.140625 9.328125 38.921875 7.109375 
Q 37.703125 4.890625 35.640625 3.09375 
Q 33.59375 1.3125 30.53125 0.15625 
Q 27.484375 -0.984375 23.140625 -0.984375 
Q 13.53125 -0.984375 8.5 6 
Q 3.46875 12.984375 3.46875 26.765625 
Q 3.46875 34.1875 5 39.328125 
Q 6.546875 44.484375 9.171875 47.703125 
Q 11.8125 50.921875 15.328125 52.359375 
Q 18.84375 53.8125 22.859375 53.8125 
Q 28.328125 53.8125 31.984375 51.65625 
Q 39.0625 47.515625 41.015625 36.8125 
Q 41.9375 31.6875 41.9375 25.734375 
L 41.9375 24.5625 
z
M 34.71875 31.296875 
Q 34.71875 40.140625 31.421875 43.71875 
Q 28.125 47.3125 22.75 47.3125 
Q 18.953125 47.3125 15.328125 44.09375 
Q 10.9375 40.328125 10.6875 31.296875 
z
" id="LiberationSansNarrow-1077"/>
       <path d="M 11.03125 26.65625 
Q 11.03125 22.125 11.5625 18.3125 
Q 12.109375 14.5 13.375 11.734375 
Q 14.65625 8.984375 16.75 7.46875 
Q 18.84375 5.953125 21.96875 5.953125 
Q 25.828125 5.953125 28.390625 8.484375 
Q 30.953125 11.03125 31.546875 16.3125 
L 38.875 15.71875 
Q 38.53125 12.453125 37.296875 9.421875 
Q 36.078125 6.390625 34.03125 4.09375 
Q 31.984375 1.8125 29 0.40625 
Q 26.03125 -0.984375 22.171875 -0.984375 
Q 17.09375 -0.984375 13.5 1.109375 
Q 9.90625 3.21875 7.6875 6.90625 
Q 5.46875 10.59375 4.46875 15.59375 
Q 3.46875 20.609375 3.46875 26.46875 
Q 3.46875 31.78125 4.203125 35.859375 
Q 4.9375 39.9375 6.21875 42.984375 
Q 7.515625 46.046875 9.265625 48.125 
Q 11.03125 50.203125 13.109375 51.4375 
Q 15.1875 52.6875 17.453125 53.25 
Q 19.734375 53.8125 22.078125 53.8125 
Q 25.734375 53.8125 28.5625 52.59375 
Q 31.390625 51.375 33.46875 49.25 
Q 35.546875 47.125 36.8125 44.234375 
Q 38.09375 41.359375 38.625 38.03125 
L 31.203125 37.359375 
Q 30.671875 41.75 28.375 44.328125 
Q 26.078125 46.921875 21.875 46.921875 
Q 18.796875 46.921875 16.71875 45.671875 
Q 14.65625 44.4375 13.375 41.921875 
Q 12.109375 39.40625 11.5625 35.59375 
Q 11.03125 31.78125 11.03125 26.65625 
z
" id="LiberationSansNarrow-1089"/>
       <path d="M 21.4375 22.359375 
L 8.84375 0 
L 0.6875 0 
L 14.453125 23 
Q 9.234375 24.3125 6.859375 28.296875 
Q 4.5 32.28125 4.5 38.234375 
Q 4.5 45.515625 8.8125 49.171875 
Q 13.140625 52.828125 21.4375 52.828125 
L 38.71875 52.828125 
L 38.71875 0 
L 31.546875 0 
L 31.546875 22.359375 
z
M 31.546875 46.625 
L 22.171875 46.625 
Q 16.9375 46.625 14.546875 44.375 
Q 12.15625 42.140625 12.15625 37.59375 
Q 12.15625 33.015625 14.28125 30.734375 
Q 16.40625 28.46875 21.390625 28.46875 
L 31.546875 28.46875 
z
" id="LiberationSansNarrow-1103"/>
       <path d="M 12.890625 52.828125 
L 12.890625 6.390625 
L 31.984375 6.390625 
L 31.984375 52.828125 
L 39.203125 52.828125 
L 39.203125 6.390625 
L 45.0625 6.390625 
L 45.0625 -19.921875 
L 38.578125 -19.921875 
L 38.578125 0 
L 5.671875 0 
L 5.671875 52.828125 
z
" id="LiberationSansNarrow-1094"/>
       <path d="M 22.796875 30.46875 
Q 31.296875 30.46875 35.640625 26.875 
Q 39.984375 23.296875 39.984375 15.53125 
Q 39.984375 11.921875 38.90625 9.03125 
Q 37.84375 6.15625 35.671875 4.15625 
Q 33.5 2.15625 30.296875 1.078125 
Q 27.09375 0 22.859375 0 
L 5.859375 0 
L 5.859375 52.828125 
L 13.328125 52.828125 
L 13.328125 30.46875 
z
M 13.328125 6.203125 
L 21.734375 6.203125 
Q 24.609375 6.203125 26.578125 6.8125 
Q 28.5625 7.421875 29.78125 8.609375 
Q 31 9.8125 31.53125 11.546875 
Q 32.078125 13.28125 32.078125 15.53125 
Q 32.078125 20.125 29.65625 22.234375 
Q 27.25 24.359375 21.734375 24.359375 
L 13.328125 24.359375 
z
M 47.65625 0 
L 47.65625 52.828125 
L 55.125 52.828125 
L 55.125 0 
z
" id="LiberationSansNarrow-1099"/>
      </defs>
      <use xlink:href="#LiberationSansNarrow-1052"/>
      <use x="69.435547" xlink:href="#LiberationSansNarrow-1077"/>
      <use x="115.041016" xlink:href="#LiberationSansNarrow-1089"/>
      <use x="156.056641" xlink:href="#LiberationSansNarrow-1103"/>
      <use x="200.490234" xlink:href="#LiberationSansNarrow-1094"/>
      <use x="247.462891" xlink:href="#LiberationSansNarrow-1099"/>
     </g>
    </g>
   </g>
   <g id="matplotlib.axis_2">
    <g id="ytick_1">
     <g id="line2d_7">
      <path clip-path="url(#p62d847eac1)" d="M 52.94 192.528175 
L 560.88 192.528175 
" style="fill:none;stroke:#b0b0b0;stroke-dasharray:1.48,0.64;stroke-dashoffset:0;stroke-width:0.4;"/>
     </g>
     <g id="text_8">
      <!-- −5 -->
      <g transform="translate(32.847813 197.600988)scale(0.14 -0.14)">
       <defs>
        <path d="M 4.046875 29.6875 
L 4.046875 36.8125 
L 43.890625 36.8125 
L 43.890625 29.6875 
z
" id="LiberationSansNarrow-8722"/>
       </defs>
       <use xlink:href="#LiberationSansNarrow-8722"/>
       <use x="47.900391" xlink:href="#LiberationSansNarrow-53"/>
      </g>
     </g>
    </g>
    <g id="ytick_2">
     <g id="line2d_8">
      <path clip-path="url(#p62d847eac1)" d="M 52.94 142.223533 
L 560.88 142.223533 
" style="fill:none;stroke:#b0b0b0;stroke-dasharray:1.48,0.64;stroke-dashoffset:0;stroke-width:0.4;"/>
     </g>
     <g id="text_9">
      <!-- 0 -->
      <g transform="translate(39.554688 147.296346)scale(0.14 -0.14)">
       <use xlink:href="#LiberationSansNarrow-48"/>
      </g>
     </g>
    </g>
    <g id="ytick_3">
     <g id="line2d_9">
      <path clip-path="url(#p62d847eac1)" d="M 52.94 91.918891 
L 560.88 91.918891 
" style="fill:none;stroke:#b0b0b0;stroke-dasharray:1.48,0.64;stroke-dashoffset:0;stroke-width:0.4;"/>
     </g>
     <g id="text_10">
      <!-- 5 -->
      <g transform="translate(39.554688 96.991703)scale(0.14 -0.14)">
       <use xlink:href="#LiberationSansNarrow-53"/>
      </g>
     </g>
    </g>
    <g id="ytick_4">
     <g id="line2d_10">
      <path clip-path="url(#p62d847eac1)" d="M 52.94 41.614249 
L 560.88 41.614249 
" style="fill:none;stroke:#b0b0b0;stroke-dasharray:1.48,0.64;stroke-dashoffset:0;stroke-width:0.4;"/>
     </g>
     <g id="text_11">
      <!-- 10 -->
      <g transform="translate(33.169375 46.687061)scale(0.14 -0.14)">
       <use xlink:href="#LiberationSansNarrow-49"/>
       <use x="45.605469" xlink:href="#LiberationSansNarrow-48"/>
      </g>
     </g>
    </g>
    <g id="text_12">
     <!-- Денежный поток, у.е. -->
     <g transform="translate(25.942813 180.405469)rotate(-90)scale(0.14 -0.14)">
      <defs>
       <path d="M 46.96875 7.8125 
L 54 7.8125 
L 54 -19.921875 
L 46.78125 -19.921875 
L 46.78125 0 
L 7.8125 0 
L 7.8125 -19.921875 
L 0.59375 -19.921875 
L 0.59375 7.8125 
L 6.34375 7.8125 
Q 8.015625 10.296875 9.328125 13.671875 
Q 10.640625 17.046875 11.734375 21.453125 
Q 12.84375 25.875 13.71875 31.4375 
Q 14.59375 37.015625 15.328125 43.890625 
L 18.015625 68.796875 
L 46.96875 68.796875 
z
M 39.546875 7.8125 
L 39.546875 60.984375 
L 24.5625 60.984375 
L 22.5625 43.015625 
Q 21.828125 36.46875 21.046875 31.078125 
Q 20.265625 25.6875 19.328125 21.34375 
Q 18.40625 17 17.328125 13.640625 
Q 16.265625 10.296875 14.984375 7.8125 
z
" id="LiberationSansNarrow-1044"/>
       <path d="M 12.890625 52.828125 
L 12.890625 30.46875 
L 32.375 30.46875 
L 32.375 52.828125 
L 39.59375 52.828125 
L 39.59375 0 
L 32.375 0 
L 32.375 24.078125 
L 12.890625 24.078125 
L 12.890625 0 
L 5.671875 0 
L 5.671875 52.828125 
z
" id="LiberationSansNarrow-1085"/>
       <path d="M 23.828125 23.296875 
Q 22.796875 23.296875 21.484375 23.578125 
Q 20.171875 23.875 19.4375 24.265625 
L 8.296875 0 
L 0.296875 0 
L 14.40625 28.90625 
Q 13.71875 29.59375 12.390625 31.65625 
Q 11.078125 33.734375 9.28125 36.96875 
L 0.640625 52.828125 
L 8.15625 52.828125 
L 14.109375 41.15625 
Q 16.015625 37.40625 17.3125 35.15625 
Q 18.609375 32.90625 19.65625 31.6875 
Q 20.703125 30.46875 21.65625 30.078125 
Q 22.609375 29.6875 23.828125 29.6875 
L 23.828125 52.828125 
L 31 52.828125 
L 31 29.6875 
Q 32.234375 29.6875 33.171875 30.078125 
Q 34.125 30.46875 35.171875 31.6875 
Q 36.234375 32.90625 37.515625 35.15625 
Q 38.8125 37.40625 40.71875 41.15625 
L 46.6875 52.828125 
L 54.203125 52.828125 
L 45.5625 36.96875 
Q 43.75 33.734375 42.421875 31.65625 
Q 41.109375 29.59375 40.4375 28.90625 
L 54.546875 0 
L 46.53125 0 
L 35.40625 24.265625 
Q 34.625 23.875 33.34375 23.578125 
Q 32.078125 23.296875 31 23.296875 
L 31 0 
L 23.828125 0 
z
" id="LiberationSansNarrow-1078"/>
       <path d="M 12.640625 52.828125 
L 12.640625 23.921875 
Q 12.640625 22.796875 12.59375 20.921875 
Q 12.546875 19.046875 12.46875 17.046875 
Q 12.40625 15.046875 12.359375 13.234375 
Q 12.3125 11.421875 12.25 10.40625 
L 32.28125 52.828125 
L 40.140625 52.828125 
L 40.140625 0 
L 33.25 0 
L 33.25 32.234375 
Q 33.25 33.15625 33.296875 34.578125 
L 33.40625 37.40625 
Q 33.453125 38.875 33.5 40.234375 
L 33.640625 42.625 
L 13.375 0 
L 5.71875 0 
L 5.71875 52.828125 
z
M 25.046875 58.59375 
Q 20.609375 58.59375 17.765625 59.984375 
Q 14.9375 61.375 13.328125 63.59375 
Q 11.71875 65.828125 11.078125 68.625 
Q 10.453125 71.4375 10.359375 74.21875 
L 16.890625 74.21875 
Q 17.140625 69.1875 19.234375 66.84375 
Q 21.34375 64.5 25.046875 64.5 
Q 28.765625 64.5 30.828125 66.84375 
Q 32.90625 69.1875 33.15625 74.21875 
L 39.75 74.21875 
Q 39.65625 71.4375 39.015625 68.625 
Q 38.375 65.828125 36.734375 63.59375 
Q 35.109375 61.375 32.296875 59.984375 
Q 29.5 58.59375 25.046875 58.59375 
z
" id="LiberationSansNarrow-1081"/>
       <path id="LiberationSansNarrow-32"/>
       <path d="M 38.71875 52.828125 
L 38.71875 0 
L 31.546875 0 
L 31.546875 46.4375 
L 12.890625 46.4375 
L 12.890625 0 
L 5.71875 0 
L 5.71875 52.828125 
z
" id="LiberationSansNarrow-1087"/>
       <path d="M 42.140625 26.46875 
Q 42.140625 12.59375 37.125 5.796875 
Q 32.125 -0.984375 22.609375 -0.984375 
Q 18.0625 -0.984375 14.515625 0.671875 
Q 10.984375 2.34375 8.515625 5.765625 
Q 6.0625 9.1875 4.765625 14.328125 
Q 3.46875 19.484375 3.46875 26.46875 
Q 3.46875 53.8125 22.859375 53.8125 
Q 27.875 53.8125 31.5625 52.09375 
Q 35.25 50.390625 37.59375 46.96875 
Q 39.9375 43.5625 41.03125 38.421875 
Q 42.140625 33.296875 42.140625 26.46875 
z
M 34.578125 26.46875 
Q 34.578125 32.625 33.8125 36.625 
Q 33.0625 40.625 31.546875 43.015625 
Q 30.03125 45.40625 27.859375 46.359375 
Q 25.6875 47.3125 23 47.3125 
Q 20.21875 47.3125 17.984375 46.3125 
Q 15.765625 45.3125 14.203125 42.890625 
Q 12.640625 40.484375 11.828125 36.46875 
Q 11.03125 32.46875 11.03125 26.46875 
Q 11.03125 20.3125 11.90625 16.28125 
Q 12.796875 12.25 14.328125 9.859375 
Q 15.875 7.46875 17.96875 6.484375 
Q 20.0625 5.515625 22.5625 5.515625 
Q 25.34375 5.515625 27.5625 6.46875 
Q 29.78125 7.421875 31.34375 9.8125 
Q 32.90625 12.203125 33.734375 16.25 
Q 34.578125 20.3125 34.578125 26.46875 
z
" id="LiberationSansNarrow-1086"/>
       <path d="M 1.421875 52.828125 
L 36.140625 52.828125 
L 36.140625 46.4375 
L 22.359375 46.4375 
L 22.359375 0 
L 15.1875 0 
L 15.1875 46.4375 
L 1.421875 46.4375 
z
" id="LiberationSansNarrow-1090"/>
       <path d="M 5.515625 52.828125 
L 12.703125 52.828125 
L 12.703125 29.6875 
Q 13.921875 29.6875 14.875 30.078125 
Q 15.828125 30.46875 16.875 31.6875 
Q 17.921875 32.90625 19.21875 35.15625 
Q 20.515625 37.40625 22.46875 41.15625 
L 28.375 52.828125 
L 35.890625 52.828125 
L 27.25 36.96875 
Q 25.4375 33.734375 24.109375 31.65625 
Q 22.796875 29.59375 22.125 28.90625 
L 36.234375 0 
L 28.21875 0 
L 17.140625 24.265625 
Q 16.359375 23.875 15.0625 23.578125 
Q 13.765625 23.296875 12.703125 23.296875 
L 12.703125 0 
L 5.515625 0 
z
" id="LiberationSansNarrow-1082"/>
       <path d="M 15.4375 10.6875 
L 15.4375 2.484375 
Q 15.4375 -0.09375 15.265625 -2.21875 
Q 15.09375 -4.34375 14.671875 -6.171875 
Q 14.265625 -8.015625 13.671875 -9.625 
Q 13.09375 -11.234375 12.3125 -12.796875 
L 7.375 -12.796875 
Q 9.1875 -9.625 10.15625 -6.390625 
Q 11.140625 -3.171875 11.140625 0 
L 7.625 0 
L 7.625 10.6875 
z
" id="LiberationSansNarrow-44"/>
       <path d="M 24.171875 0 
Q 22.65625 -4.78125 21.0625 -8.609375 
Q 19.484375 -12.453125 17.53125 -15.15625 
Q 15.578125 -17.875 13.1875 -19.3125 
Q 10.796875 -20.75 7.671875 -20.75 
Q 6.296875 -20.75 5.125 -20.65625 
Q 3.953125 -20.5625 2.6875 -20.21875 
L 2.6875 -13.625 
Q 3.46875 -13.765625 4.421875 -13.84375 
Q 5.375 -13.921875 6.0625 -13.921875 
Q 9.234375 -13.921875 11.9375 -11.03125 
Q 14.65625 -8.15625 16.703125 -1.859375 
L 17.390625 0.25 
L 0.203125 52.828125 
L 7.90625 52.828125 
L 17.046875 23.640625 
Q 17.046875 23.640625 18.0625 20.125 
L 19.28125 15.71875 
Q 19.921875 13.53125 20.375 11.765625 
Q 20.84375 10.015625 20.953125 9.578125 
Q 21.046875 10.109375 21.484375 11.71875 
L 22.5625 15.234375 
L 23.734375 19.1875 
Q 24.359375 21.1875 24.75 22.65625 
L 33.25 52.828125 
L 40.875 52.828125 
z
" id="LiberationSansNarrow-1091"/>
       <path d="M 7.46875 0 
L 7.46875 10.6875 
L 15.328125 10.6875 
L 15.328125 0 
z
" id="LiberationSansNarrow-46"/>
      </defs>
      <use xlink:href="#LiberationSansNarrow-1044"/>
      <use x="55.517578" xlink:href="#LiberationSansNarrow-1077"/>
      <use x="101.123047" xlink:href="#LiberationSansNarrow-1085"/>
      <use x="146.386719" xlink:href="#LiberationSansNarrow-1077"/>
      <use x="190.867188" xlink:href="#LiberationSansNarrow-1078"/>
      <use x="245.701172" xlink:href="#LiberationSansNarrow-1085"/>
      <use x="290.964844" xlink:href="#LiberationSansNarrow-1099"/>
      <use x="351.951172" xlink:href="#LiberationSansNarrow-1081"/>
      <use x="397.800781" xlink:href="#LiberationSansNarrow-32"/>
      <use x="420.603516" xlink:href="#LiberationSansNarrow-1087"/>
      <use x="465.037109" xlink:href="#LiberationSansNarrow-1086"/>
      <use x="508.392578" xlink:href="#LiberationSansNarrow-1090"/>
      <use x="544.816406" xlink:href="#LiberationSansNarrow-1086"/>
      <use x="590.421875" xlink:href="#LiberationSansNarrow-1082"/>
      <use x="626.261719" xlink:href="#LiberationSansNarrow-44"/>
      <use x="649.064453" xlink:href="#LiberationSansNarrow-32"/>
      <use x="671.867188" xlink:href="#LiberationSansNarrow-1091"/>
      <use x="702.882812" xlink:href="#LiberationSansNarrow-46"/>
      <use x="725.685547" xlink:href="#LiberationSansNarrow-1077"/>
      <use x="771.291016" xlink:href="#LiberationSansNarrow-46"/>
     </g>
    </g>
   </g>
   <g id="line2d_11">
    <path clip-path="url(#p62d847eac1)" d="M 76.028182 224.547273 
L 76.95356 214.14354 
L 77.878938 197.022182 
L 78.804316 187.282005 
L 79.729694 191.579789 
L 80.655072 184.516594 
L 81.58045 190.951918 
L 82.505828 176.078749 
L 83.431206 152.291063 
L 84.356584 154.582464 
L 85.281962 143.570958 
L 86.20734 138.355876 
L 87.132718 129.699113 
L 88.058096 137.832876 
L 88.983474 143.096316 
L 89.908852 149.437557 
L 90.83423 151.875873 
L 91.759608 157.59222 
L 92.684986 145.749332 
L 93.610364 165.187844 
L 94.535742 161.325965 
L 95.46112 159.987916 
L 96.386498 148.198908 
L 97.311876 140.776312 
L 98.237255 141.908824 
L 99.162633 136.246374 
L 100.088011 126.654776 
L 101.013389 140.00641 
L 101.938767 166.194188 
L 102.864145 164.124813 
L 103.789523 174.316732 
L 104.714901 166.906578 
L 105.640279 166.369841 
L 106.565657 163.614484 
L 107.491035 159.806732 
L 108.416413 168.548179 
L 109.341791 166.060324 
L 110.267169 148.868332 
L 111.192547 149.855405 
L 112.117925 147.745367 
L 113.043303 137.410007 
L 113.968681 130.013877 
L 114.894059 118.924739 
L 115.819437 118.192177 
L 116.744815 112.44717 
L 117.670193 116.913633 
L 118.595571 114.738289 
L 119.520949 124.449744 
L 121.371705 119.591377 
L 122.297083 118.886202 
L 123.222461 121.261953 
L 124.147839 113.854911 
L 125.073217 138.580115 
L 125.998595 143.250126 
L 126.923973 150.965945 
L 127.849351 152.735727 
L 129.700107 114.787483 
L 130.625486 112.60901 
L 131.550864 105.256448 
L 133.40162 86.509022 
L 134.326998 70.455099 
L 135.252376 72.447946 
L 136.177754 70.543183 
L 137.103132 68.198824 
L 138.02851 55.999939 
L 139.879266 38.507985 
L 140.804644 25.092727 
L 142.6554 42.93577 
L 143.580778 50.047686 
L 144.506156 41.418923 
L 145.431534 38.49471 
L 146.356912 45.373674 
L 147.28229 46.952514 
L 148.207668 44.547642 
L 149.133046 46.804032 
L 150.058424 57.015073 
L 150.983802 60.307722 
L 152.834558 78.928937 
L 153.759936 73.361725 
L 154.685314 84.863812 
L 155.610692 80.0454 
L 156.53607 83.528202 
L 157.461448 66.596336 
L 159.312204 84.369578 
L 160.237582 88.037518 
L 161.16296 87.689471 
L 162.088338 95.786395 
L 163.939095 84.024525 
L 164.864473 83.729325 
L 165.789851 94.232027 
L 166.715229 102.484785 
L 167.640607 97.784115 
L 168.565985 112.319138 
L 169.491363 98.175279 
L 170.416741 102.797884 
L 171.342119 101.909165 
L 172.267497 125.887452 
L 173.192875 112.69176 
L 174.118253 119.817463 
L 175.043631 118.682011 
L 175.969009 131.964238 
L 176.894387 122.925979 
L 177.819765 119.283747 
L 178.745143 135.251323 
L 179.670521 136.500121 
L 180.595899 136.727606 
L 181.521277 131.747935 
L 182.446655 125.588504 
L 183.372033 136.803687 
L 184.297411 139.187931 
L 185.222789 143.482014 
L 186.148167 128.448154 
L 187.073545 131.101496 
L 187.998923 141.600633 
L 188.924301 138.095275 
L 189.849679 131.271908 
L 190.775057 135.731983 
L 191.700435 147.142079 
L 193.551191 131.175838 
L 194.47657 145.990791 
L 195.401948 144.622769 
L 196.327326 146.415471 
L 197.252704 153.159728 
L 198.178082 158.063239 
L 199.10346 147.080379 
L 200.028838 152.155437 
L 200.954216 148.099513 
L 201.879594 140.551221 
L 202.804972 148.089132 
L 203.73035 151.749411 
L 204.655728 156.578477 
L 205.581106 175.471395 
L 206.506484 185.527619 
L 207.431862 190.008083 
L 208.35724 187.30507 
L 209.282618 185.545488 
L 210.207996 178.318874 
L 211.133374 165.969804 
L 212.058752 167.217396 
L 212.98413 166.674327 
L 213.909508 171.133606 
L 214.834886 149.597139 
L 215.760264 145.353093 
L 216.685642 154.436629 
L 217.61102 165.032105 
L 218.536398 178.211495 
L 219.461776 176.56463 
L 220.387154 166.611911 
L 221.312532 166.832436 
L 223.163288 154.036171 
L 224.088666 152.729786 
L 225.014044 156.80467 
L 225.939422 139.67614 
L 226.864801 134.45027 
L 227.790179 130.106334 
L 228.715557 131.04872 
L 229.640935 146.856906 
L 230.566313 153.270993 
L 231.491691 155.673026 
L 232.417069 147.69492 
L 233.342447 154.063903 
L 234.267825 164.248468 
L 235.193203 164.634273 
L 236.118581 168.631158 
L 237.043959 178.528006 
L 237.969337 182.837528 
L 238.894715 173.079944 
L 240.745471 177.551408 
L 241.670849 173.677612 
L 242.596227 176.150259 
L 243.521605 180.123334 
L 244.446983 200.458908 
L 245.372361 194.306915 
L 246.297739 195.506235 
L 247.223117 183.519813 
L 248.148495 187.607643 
L 249.073873 181.357433 
L 249.999251 191.116299 
L 250.924629 183.104477 
L 251.850007 173.697276 
L 253.700763 158.91123 
L 254.626141 161.128282 
L 255.551519 156.162519 
L 256.476897 165.342993 
L 257.402275 159.722705 
L 258.327653 158.567004 
L 259.253032 158.041094 
L 260.17841 148.244935 
L 262.029166 155.80147 
L 262.954544 157.930196 
L 263.879922 148.276816 
L 264.8053 152.403557 
L 266.656056 135.346231 
L 267.581434 141.677003 
L 268.506812 135.937943 
L 269.43219 147.147116 
L 270.357568 152.863392 
L 271.282946 140.532488 
L 272.208324 137.470878 
L 273.133702 146.817147 
L 274.05908 139.833616 
L 274.984458 133.78694 
L 275.909836 145.109399 
L 276.835214 162.495605 
L 277.760592 168.441005 
L 278.68597 163.927985 
L 279.611348 154.405954 
L 280.536726 165.02748 
L 281.462104 158.911471 
L 282.387482 156.660713 
L 283.31286 152.88079 
L 284.238238 157.05566 
L 285.163616 154.784082 
L 286.088994 147.246509 
L 287.014372 147.553611 
L 287.93975 143.366534 
L 288.865128 148.082983 
L 289.790506 154.484025 
L 290.715884 154.435969 
L 291.641263 167.472944 
L 292.566641 168.628882 
L 293.492019 174.640469 
L 294.417397 178.361092 
L 295.342775 170.726963 
L 296.268153 184.262058 
L 297.193531 179.744573 
L 298.118909 176.315846 
L 299.044287 170.935944 
L 299.969665 170.305918 
L 300.895043 165.810526 
L 301.820421 172.330139 
L 302.745799 187.843193 
L 303.671177 174.637602 
L 304.596555 184.670714 
L 305.521933 190.360148 
L 307.372689 177.302519 
L 308.298067 175.981637 
L 309.223445 163.841978 
L 310.148823 155.237617 
L 311.074201 145.476031 
L 311.999579 138.977849 
L 312.924957 148.720219 
L 313.850335 154.40035 
L 314.775713 172.692824 
L 315.701091 173.830947 
L 316.626469 176.098021 
L 317.551847 177.865898 
L 318.477225 172.267628 
L 319.402603 172.160299 
L 320.327981 178.812795 
L 321.253359 178.092039 
L 322.178737 169.279566 
L 323.104116 152.617302 
L 324.029494 161.677489 
L 324.954872 145.482602 
L 325.88025 152.991385 
L 326.805628 141.031879 
L 327.731006 136.947696 
L 328.656384 125.753935 
L 329.581762 129.002052 
L 330.50714 112.660089 
L 331.432518 120.312168 
L 332.357896 122.832914 
L 333.283274 120.886494 
L 334.208652 128.46115 
L 335.13403 134.74765 
L 336.059408 135.911639 
L 336.984786 138.701112 
L 337.910164 156.591365 
L 338.835542 162.525435 
L 339.76092 158.302442 
L 340.686298 152.303597 
L 341.611676 171.45599 
L 342.537054 165.841899 
L 343.462432 168.251529 
L 344.38781 163.736788 
L 345.313188 155.186008 
L 346.238566 164.663234 
L 347.163944 172.302001 
L 348.089322 168.901489 
L 349.0147 160.032517 
L 349.940078 142.772104 
L 350.865456 143.971025 
L 351.790834 136.708653 
L 352.716212 149.829971 
L 353.64159 150.001326 
L 354.566968 160.235331 
L 355.492347 144.84569 
L 356.417725 136.129573 
L 357.343103 138.832567 
L 358.268481 136.911167 
L 359.193859 140.366012 
L 360.119237 123.449 
L 361.044615 125.96516 
L 361.969993 127.369801 
L 363.820749 102.255788 
L 364.746127 103.295691 
L 365.671505 115.02522 
L 366.596883 121.933159 
L 367.522261 120.055633 
L 368.447639 117.038324 
L 369.373017 119.312107 
L 371.223773 128.190737 
L 372.149151 128.283084 
L 373.074529 127.800096 
L 373.999907 128.046157 
L 374.925285 133.333797 
L 375.850663 127.894352 
L 376.776041 121.218355 
L 377.701419 137.184419 
L 378.626797 136.233357 
L 379.552175 135.749382 
L 381.402931 125.449082 
L 382.328309 120.73162 
L 383.253687 139.183579 
L 384.179065 131.607907 
L 385.104443 129.700564 
L 386.029821 128.864843 
L 386.955199 128.835114 
L 387.880578 130.664304 
L 388.805956 142.706923 
L 389.731334 122.247214 
L 390.656712 113.006347 
L 391.58209 109.224941 
L 392.507468 117.923595 
L 393.432846 130.132143 
L 395.283602 119.75294 
L 396.20898 124.245379 
L 397.134358 112.466824 
L 398.059736 107.818818 
L 398.985114 101.311492 
L 400.83587 91.361615 
L 401.761248 97.704828 
L 402.686626 102.061124 
L 403.612004 103.720529 
L 404.537382 106.232004 
L 406.388138 110.308988 
L 407.313516 107.586637 
L 408.238894 113.126991 
L 409.164272 120.342795 
L 410.08965 116.613181 
L 411.015028 114.692688 
L 411.940406 115.105267 
L 412.865784 111.298035 
L 413.791162 114.098978 
L 414.71654 115.197878 
L 415.641918 122.770667 
L 416.567296 121.488448 
L 417.492674 118.6679 
L 418.418052 121.198974 
L 419.34343 121.855941 
L 420.268809 117.928999 
L 421.194187 123.281626 
L 422.119565 119.534754 
L 423.044943 107.405725 
L 423.970321 101.058784 
L 424.895699 101.555704 
L 425.821077 112.951828 
L 426.746455 121.13995 
L 427.671833 122.808798 
L 428.597211 125.062085 
L 429.522589 129.711062 
L 430.447967 129.858104 
L 431.373345 127.238184 
L 432.298723 131.79515 
L 433.224101 120.689259 
L 434.149479 116.16764 
L 435.074857 121.399841 
L 436.000235 122.938009 
L 436.925613 122.580978 
L 437.850991 117.387409 
L 438.776369 118.030488 
L 439.701747 125.107928 
L 440.627125 123.602598 
L 441.552503 130.044245 
L 442.477881 117.252256 
L 443.403259 117.598872 
L 444.328637 116.879835 
L 445.254015 128.113163 
L 446.179393 135.32829 
L 447.104771 131.150925 
L 448.030149 131.403099 
L 448.955527 129.661369 
L 449.880905 132.637353 
L 450.806283 125.838386 
L 451.731662 115.891681 
L 452.65704 120.503484 
L 453.582418 108.391434 
L 455.433174 91.018827 
L 456.358552 94.481241 
L 457.28393 106.750311 
L 458.209308 98.616003 
L 459.134686 102.561082 
L 460.985442 116.60565 
L 461.91082 116.751051 
L 462.836198 119.688657 
L 463.761576 112.140719 
L 464.686954 122.857868 
L 465.612332 127.452119 
L 466.53771 116.495072 
L 467.463088 113.977341 
L 468.388466 114.09467 
L 469.313844 112.833695 
L 470.239222 110.730041 
L 471.1646 115.828464 
L 472.089978 115.026955 
L 473.015356 117.082018 
L 473.940734 111.60976 
L 474.866112 112.342271 
L 475.79149 112.237614 
L 476.716868 111.079396 
L 477.642246 102.406659 
L 478.567624 111.605808 
L 479.493002 112.110337 
L 480.41838 115.004694 
L 481.343758 110.524169 
L 482.269136 111.189545 
L 483.194514 106.121812 
L 484.119893 107.576328 
L 485.045271 104.434307 
L 485.970649 106.494362 
L 486.896027 109.71701 
L 487.821405 111.095627 
L 488.746783 110.097514 
L 489.672161 108.360738 
L 490.597539 111.162938 
L 491.522917 113.42764 
L 492.448295 107.643219 
L 493.373673 105.401652 
L 494.299051 103.650166 
L 495.224429 103.729142 
L 496.149807 105.277335 
L 497.075185 108.869482 
L 498.000563 106.500679 
L 499.851319 106.082776 
L 500.776697 109.492428 
L 501.702075 108.536953 
L 502.627453 110.202338 
L 503.552831 109.492374 
L 504.478209 109.908332 
L 505.403587 109.792523 
L 506.328965 110.230533 
L 507.254343 110.421191 
L 508.179721 113.567503 
L 509.105099 113.49613 
L 510.030477 112.316047 
L 510.955855 113.815609 
L 511.881233 114.744575 
L 512.806611 114.11611 
L 513.731989 115.301467 
L 514.657367 113.016307 
L 515.582745 112.341903 
L 516.508124 111.190951 
L 517.433502 111.327406 
L 518.35888 112.2702 
L 519.284258 111.910133 
L 520.209636 112.338002 
L 521.135014 111.651815 
L 522.060392 112.725882 
L 522.98577 112.491567 
L 523.911148 111.129627 
L 524.836526 111.88553 
L 525.761904 112.302797 
L 526.687282 112.984571 
L 528.538038 112.590577 
L 529.463416 112.733225 
L 530.388794 111.368046 
L 532.23955 110.493652 
L 533.164928 110.423224 
L 535.015684 109.816079 
L 535.941062 109.19727 
L 537.791818 110.078101 
L 537.791818 110.078101 
" style="fill:none;stroke:#1f77b4;stroke-linecap:square;stroke-width:1.5;"/>
   </g>
  </g>
 </g>
 <defs>
  <clipPath id="p62d847eac1">
   <rect height="219.4" width="507.94" x="52.94" y="15.12"/>
  </clipPath>
 </defs>
</svg>
