<?xml version="1.0" encoding="utf-8" standalone="no"?>
<!DOCTYPE svg PUBLIC "-//W3C//DTD SVG 1.1//EN"
  "http://www.w3.org/Graphics/SVG/1.1/DTD/svg11.dtd">
<!-- Created with matplotlib (https://matplotlib.org/) -->
<svg height="288pt" version="1.1" viewBox="0 0 576 288" width="576pt" xmlns="http://www.w3.org/2000/svg" xmlns:xlink="http://www.w3.org/1999/xlink">
 <metadata>
  <rdf:RDF xmlns:cc="http://creativecommons.org/ns#" xmlns:dc="http://purl.org/dc/elements/1.1/" xmlns:rdf="http://www.w3.org/1999/02/22-rdf-syntax-ns#">
   <cc:Work>
    <dc:type rdf:resource="http://purl.org/dc/dcmitype/StillImage"/>
    <dc:date>2022-01-28T17:07:18.362163</dc:date>
    <dc:format>image/svg+xml</dc:format>
    <dc:creator>
     <cc:Agent>
      <dc:title>Matplotlib v3.3.4, https://matplotlib.org/</dc:title>
     </cc:Agent>
    </dc:creator>
   </cc:Work>
  </rdf:RDF>
 </metadata>
 <defs>
  <style type="text/css">*{stroke-linecap:butt;stroke-linejoin:round;}</style>
 </defs>
 <g id="figure_1">
  <g id="patch_1">
   <path d="M 0 288 
L 576 288 
L 576 0 
L 0 0 
z
" style="fill:#ffffff;"/>
  </g>
  <g id="axes_1">
   <g id="patch_2">
    <path d="M 58.97 234.52 
L 560.88 234.52 
L 560.88 15.12 
L 58.97 15.12 
z
" style="fill:#ffffff;"/>
   </g>
   <g id="matplotlib.axis_1">
    <g id="xtick_1">
     <g id="line2d_1">
      <path clip-path="url(#p32878092fc)" d="M 81.784091 234.52 
L 81.784091 15.12 
" style="fill:none;stroke:#b0b0b0;stroke-dasharray:1.48,0.64;stroke-dashoffset:0;stroke-width:0.4;"/>
     </g>
     <g id="text_1">
      <!-- 0 -->
      <g transform="translate(78.591435 251.665625)scale(0.14 -0.14)">
       <defs>
        <path d="M 42.390625 34.421875 
Q 42.390625 24.515625 40.84375 17.75 
Q 39.3125 10.984375 36.640625 6.8125 
Q 33.984375 2.640625 30.390625 0.828125 
Q 26.8125 -0.984375 22.703125 -0.984375 
Q 18.609375 -0.984375 15.03125 0.828125 
Q 11.46875 2.640625 8.828125 6.78125 
Q 6.203125 10.9375 4.703125 17.703125 
Q 3.21875 24.46875 3.21875 34.421875 
Q 3.21875 44.828125 4.703125 51.640625 
Q 6.203125 58.453125 8.828125 62.5 
Q 11.46875 66.546875 15.078125 68.1875 
Q 18.703125 69.828125 22.953125 69.828125 
Q 27 69.828125 30.53125 68.1875 
Q 34.078125 66.546875 36.71875 62.5 
Q 39.359375 58.453125 40.875 51.640625 
Q 42.390625 44.828125 42.390625 34.421875 
z
M 35.0625 34.421875 
Q 35.0625 42.625 34.28125 48.0625 
Q 33.5 53.515625 31.9375 56.765625 
Q 30.375 60.015625 28.09375 61.359375 
Q 25.828125 62.703125 22.953125 62.703125 
Q 19.921875 62.703125 17.578125 61.328125 
Q 15.234375 59.96875 13.671875 56.71875 
Q 12.109375 53.46875 11.296875 48.015625 
Q 10.5 42.578125 10.5 34.421875 
Q 10.5 26.515625 11.296875 21.09375 
Q 12.109375 15.671875 13.6875 12.375 
Q 15.28125 9.078125 17.578125 7.640625 
Q 19.875 6.203125 22.796875 6.203125 
Q 25.640625 6.203125 27.90625 7.640625 
Q 30.171875 9.078125 31.75 12.375 
Q 33.34375 15.671875 34.203125 21.09375 
Q 35.0625 26.515625 35.0625 34.421875 
z
" id="LiberationSansNarrow-48"/>
       </defs>
       <use xlink:href="#LiberationSansNarrow-48"/>
      </g>
     </g>
    </g>
    <g id="xtick_2">
     <g id="line2d_2">
      <path clip-path="url(#p32878092fc)" d="M 158.085398 234.52 
L 158.085398 15.12 
" style="fill:none;stroke:#b0b0b0;stroke-dasharray:1.48,0.64;stroke-dashoffset:0;stroke-width:0.4;"/>
     </g>
     <g id="text_2">
      <!-- 50 -->
      <g transform="translate(151.700086 251.665625)scale(0.14 -0.14)">
       <defs>
        <path d="M 42.140625 22.40625 
Q 42.140625 17.234375 40.859375 12.9375 
Q 39.59375 8.640625 37.078125 5.53125 
Q 34.578125 2.4375 30.8125 0.71875 
Q 27.046875 -0.984375 22.125 -0.984375 
Q 17.671875 -0.984375 14.375 0.28125 
Q 11.078125 1.5625 8.8125 3.78125 
Q 6.546875 6 5.203125 8.984375 
Q 3.859375 11.96875 3.265625 15.375 
L 10.546875 16.40625 
Q 10.984375 14.453125 11.78125 12.625 
Q 12.59375 10.796875 13.984375 9.34375 
Q 15.375 7.90625 17.40625 7.046875 
Q 19.4375 6.203125 22.3125 6.203125 
Q 25.09375 6.203125 27.390625 7.25 
Q 29.6875 8.296875 31.296875 10.34375 
Q 32.90625 12.40625 33.78125 15.375 
Q 34.671875 18.359375 34.671875 22.21875 
Q 34.671875 25.390625 33.84375 28.046875 
Q 33.015625 30.71875 31.453125 32.640625 
Q 29.890625 34.578125 27.609375 35.640625 
Q 25.34375 36.71875 22.46875 36.71875 
Q 20.65625 36.71875 19.140625 36.328125 
Q 17.625 35.9375 16.328125 35.25 
Q 15.046875 34.578125 13.96875 33.671875 
Q 12.890625 32.765625 11.96875 31.78125 
L 4.9375 31.78125 
L 6.78125 68.796875 
L 38.875 68.796875 
L 38.875 61.328125 
L 13.375 61.328125 
L 12.3125 39.5 
Q 14.203125 41.3125 17.078125 42.59375 
Q 19.96875 43.890625 23.921875 43.890625 
Q 28.125 43.890625 31.484375 42.328125 
Q 34.859375 40.765625 37.21875 37.90625 
Q 39.59375 35.0625 40.859375 31.109375 
Q 42.140625 27.15625 42.140625 22.40625 
z
" id="LiberationSansNarrow-53"/>
       </defs>
       <use xlink:href="#LiberationSansNarrow-53"/>
       <use x="45.605469" xlink:href="#LiberationSansNarrow-48"/>
      </g>
     </g>
    </g>
    <g id="xtick_3">
     <g id="line2d_3">
      <path clip-path="url(#p32878092fc)" d="M 234.386706 234.52 
L 234.386706 15.12 
" style="fill:none;stroke:#b0b0b0;stroke-dasharray:1.48,0.64;stroke-dashoffset:0;stroke-width:0.4;"/>
     </g>
     <g id="text_3">
      <!-- 100 -->
      <g transform="translate(224.808737 251.665625)scale(0.14 -0.14)">
       <defs>
        <path d="M 6.25 0 
L 6.25 7.46875 
L 20.609375 7.46875 
L 20.609375 60.40625 
L 7.90625 49.3125 
L 7.90625 57.625 
L 21.234375 68.796875 
L 27.875 68.796875 
L 27.875 7.46875 
L 41.609375 7.46875 
L 41.609375 0 
z
" id="LiberationSansNarrow-49"/>
       </defs>
       <use xlink:href="#LiberationSansNarrow-49"/>
       <use x="45.605469" xlink:href="#LiberationSansNarrow-48"/>
       <use x="91.210938" xlink:href="#LiberationSansNarrow-48"/>
      </g>
     </g>
    </g>
    <g id="xtick_4">
     <g id="line2d_4">
      <path clip-path="url(#p32878092fc)" d="M 310.688013 234.52 
L 310.688013 15.12 
" style="fill:none;stroke:#b0b0b0;stroke-dasharray:1.48,0.64;stroke-dashoffset:0;stroke-width:0.4;"/>
     </g>
     <g id="text_4">
      <!-- 150 -->
      <g transform="translate(301.110044 251.665625)scale(0.14 -0.14)">
       <use xlink:href="#LiberationSansNarrow-49"/>
       <use x="45.605469" xlink:href="#LiberationSansNarrow-53"/>
       <use x="91.210938" xlink:href="#LiberationSansNarrow-48"/>
      </g>
     </g>
    </g>
    <g id="xtick_5">
     <g id="line2d_5">
      <path clip-path="url(#p32878092fc)" d="M 386.98932 234.52 
L 386.98932 15.12 
" style="fill:none;stroke:#b0b0b0;stroke-dasharray:1.48,0.64;stroke-dashoffset:0;stroke-width:0.4;"/>
     </g>
     <g id="text_5">
      <!-- 200 -->
      <g transform="translate(377.411352 251.665625)scale(0.14 -0.14)">
       <defs>
        <path d="M 4.109375 0 
L 4.109375 6.203125 
Q 6.15625 11.921875 9.109375 16.28125 
Q 12.0625 20.65625 15.3125 24.1875 
Q 18.5625 27.734375 21.734375 30.765625 
Q 24.90625 33.796875 27.46875 36.8125 
Q 30.03125 39.84375 31.609375 43.15625 
Q 33.203125 46.484375 33.203125 50.6875 
Q 33.203125 53.609375 32.46875 55.828125 
Q 31.734375 58.0625 30.390625 59.5625 
Q 29.046875 61.078125 27.140625 61.828125 
Q 25.25 62.59375 22.90625 62.59375 
Q 20.75 62.59375 18.84375 61.859375 
Q 16.9375 61.140625 15.453125 59.671875 
Q 13.96875 58.203125 13.03125 56.03125 
Q 12.109375 53.859375 11.8125 50.984375 
L 4.4375 51.8125 
Q 4.78125 55.515625 6.125 58.78125 
Q 7.46875 62.0625 9.78125 64.53125 
Q 12.109375 67 15.359375 68.40625 
Q 18.609375 69.828125 22.90625 69.828125 
Q 27.09375 69.828125 30.390625 68.609375 
Q 33.6875 67.390625 35.9375 64.984375 
Q 38.1875 62.59375 39.40625 59.078125 
Q 40.625 55.5625 40.625 50.984375 
Q 40.625 47.515625 39.59375 44.390625 
Q 38.578125 41.265625 36.859375 38.421875 
Q 35.15625 35.59375 32.90625 32.953125 
Q 30.671875 30.328125 28.21875 27.828125 
L 23.296875 22.859375 
Q 20.796875 20.359375 18.625 17.859375 
Q 16.453125 15.375 14.734375 12.8125 
Q 13.03125 10.25 12.0625 7.46875 
L 41.5 7.46875 
L 41.5 0 
z
" id="LiberationSansNarrow-50"/>
       </defs>
       <use xlink:href="#LiberationSansNarrow-50"/>
       <use x="45.605469" xlink:href="#LiberationSansNarrow-48"/>
       <use x="91.210938" xlink:href="#LiberationSansNarrow-48"/>
      </g>
     </g>
    </g>
    <g id="xtick_6">
     <g id="line2d_6">
      <path clip-path="url(#p32878092fc)" d="M 463.290628 234.52 
L 463.290628 15.12 
" style="fill:none;stroke:#b0b0b0;stroke-dasharray:1.48,0.64;stroke-dashoffset:0;stroke-width:0.4;"/>
     </g>
     <g id="text_6">
      <!-- 250 -->
      <g transform="translate(453.712659 251.665625)scale(0.14 -0.14)">
       <use xlink:href="#LiberationSansNarrow-50"/>
       <use x="45.605469" xlink:href="#LiberationSansNarrow-53"/>
       <use x="91.210938" xlink:href="#LiberationSansNarrow-48"/>
      </g>
     </g>
    </g>
    <g id="xtick_7">
     <g id="line2d_7">
      <path clip-path="url(#p32878092fc)" d="M 539.591935 234.52 
L 539.591935 15.12 
" style="fill:none;stroke:#b0b0b0;stroke-dasharray:1.48,0.64;stroke-dashoffset:0;stroke-width:0.4;"/>
     </g>
     <g id="text_7">
      <!-- 300 -->
      <g transform="translate(530.013966 251.665625)scale(0.14 -0.14)">
       <defs>
        <path d="M 42 19 
Q 42 14.265625 40.75 10.546875 
Q 39.5 6.84375 37.0625 4.265625 
Q 34.625 1.703125 31.046875 0.359375 
Q 27.484375 -0.984375 22.859375 -0.984375 
Q 17.625 -0.984375 14.03125 0.609375 
Q 10.453125 2.203125 8.125 4.8125 
Q 5.8125 7.421875 4.640625 10.765625 
Q 3.46875 14.109375 3.125 17.671875 
L 10.546875 18.5 
Q 10.890625 15.765625 11.734375 13.515625 
Q 12.59375 11.28125 14.078125 9.671875 
Q 15.578125 8.0625 17.75 7.171875 
Q 19.921875 6.296875 22.859375 6.296875 
Q 28.328125 6.296875 31.421875 9.5625 
Q 34.515625 12.84375 34.515625 19.28125 
Q 34.515625 23.09375 33.125 25.40625 
Q 31.734375 27.734375 29.6875 29.03125 
Q 27.640625 30.328125 25.21875 30.765625 
Q 22.796875 31.203125 20.75 31.203125 
L 16.65625 31.203125 
L 16.65625 38.8125 
L 20.5625 38.8125 
Q 22.609375 38.8125 24.828125 39.328125 
Q 27.046875 39.84375 28.859375 41.1875 
Q 30.671875 42.53125 31.859375 44.828125 
Q 33.0625 47.125 33.0625 50.6875 
Q 33.0625 56.203125 30.375 59.390625 
Q 27.6875 62.59375 22.46875 62.59375 
Q 17.671875 62.59375 14.734375 59.609375 
Q 11.8125 56.640625 11.328125 51.21875 
L 4.109375 51.90625 
Q 4.546875 56.453125 6.125 59.8125 
Q 7.71875 63.1875 10.171875 65.40625 
Q 12.640625 67.625 15.8125 68.71875 
Q 19 69.828125 22.5625 69.828125 
Q 27.296875 69.828125 30.6875 68.375 
Q 34.078125 66.9375 36.21875 64.46875 
Q 38.375 62.015625 39.40625 58.6875 
Q 40.4375 55.375 40.4375 51.609375 
Q 40.4375 48.578125 39.75 45.9375 
Q 39.0625 43.3125 37.625 41.203125 
Q 36.1875 39.109375 33.953125 37.59375 
Q 31.734375 36.078125 28.609375 35.296875 
L 28.609375 35.109375 
Q 32.03125 34.671875 34.546875 33.21875 
Q 37.0625 31.78125 38.71875 29.625 
Q 40.375 27.484375 41.1875 24.75 
Q 42 22.015625 42 19 
z
" id="LiberationSansNarrow-51"/>
       </defs>
       <use xlink:href="#LiberationSansNarrow-51"/>
       <use x="45.605469" xlink:href="#LiberationSansNarrow-48"/>
       <use x="91.210938" xlink:href="#LiberationSansNarrow-48"/>
      </g>
     </g>
    </g>
    <g id="text_8">
     <!-- Месяцы -->
     <g transform="translate(288.333281 268.71625)scale(0.14 -0.14)">
      <defs>
       <path d="M 54.6875 0 
L 54.6875 45.90625 
Q 54.6875 48.390625 54.734375 50.96875 
Q 54.78125 53.5625 54.828125 55.71875 
Q 54.9375 58.203125 55.078125 60.546875 
Q 54.546875 58.0625 53.90625 55.609375 
Q 53.90625 55.609375 52.734375 51.171875 
Q 52.15625 48.78125 51.515625 46.875 
L 36.96875 0 
L 31.59375 0 
L 16.796875 46.875 
Q 16.546875 47.609375 16.3125 48.578125 
L 15.765625 50.6875 
L 15.140625 52.9375 
L 14.546875 55.171875 
Q 13.875 57.765625 13.234375 60.546875 
Q 13.28125 57.8125 13.375 55.125 
Q 13.484375 52.828125 13.5 50.3125 
Q 13.53125 47.796875 13.53125 45.90625 
L 13.53125 0 
L 6.734375 0 
L 6.734375 68.796875 
L 16.796875 68.796875 
L 31.78125 21.09375 
Q 32.078125 20.125 32.46875 18.578125 
Q 32.859375 17.046875 33.21875 15.421875 
Q 33.59375 13.8125 33.890625 12.375 
Q 34.1875 10.9375 34.328125 10.15625 
Q 34.421875 10.9375 34.734375 12.40625 
Q 35.0625 13.875 35.5 15.484375 
L 36.328125 18.609375 
Q 36.71875 20.125 37.0625 21.09375 
L 51.765625 68.796875 
L 61.578125 68.796875 
L 61.578125 0 
z
" id="LiberationSansNarrow-1052"/>
       <path d="M 10.6875 24.5625 
Q 10.6875 20.40625 11.5625 16.90625 
Q 12.453125 13.421875 13.90625 10.90625 
Q 15.375 8.40625 17.640625 7 
Q 19.921875 5.609375 23.140625 5.609375 
Q 27.828125 5.609375 30.65625 7.90625 
Q 33.5 10.203125 34.46875 13.71875 
L 40.828125 11.53125 
Q 40.140625 9.328125 38.921875 7.109375 
Q 37.703125 4.890625 35.640625 3.09375 
Q 33.59375 1.3125 30.53125 0.15625 
Q 27.484375 -0.984375 23.140625 -0.984375 
Q 13.53125 -0.984375 8.5 6 
Q 3.46875 12.984375 3.46875 26.765625 
Q 3.46875 34.1875 5 39.328125 
Q 6.546875 44.484375 9.171875 47.703125 
Q 11.8125 50.921875 15.328125 52.359375 
Q 18.84375 53.8125 22.859375 53.8125 
Q 28.328125 53.8125 31.984375 51.65625 
Q 39.0625 47.515625 41.015625 36.8125 
Q 41.9375 31.6875 41.9375 25.734375 
L 41.9375 24.5625 
z
M 34.71875 31.296875 
Q 34.71875 40.140625 31.421875 43.71875 
Q 28.125 47.3125 22.75 47.3125 
Q 18.953125 47.3125 15.328125 44.09375 
Q 10.9375 40.328125 10.6875 31.296875 
z
" id="LiberationSansNarrow-1077"/>
       <path d="M 11.03125 26.65625 
Q 11.03125 22.125 11.5625 18.3125 
Q 12.109375 14.5 13.375 11.734375 
Q 14.65625 8.984375 16.75 7.46875 
Q 18.84375 5.953125 21.96875 5.953125 
Q 25.828125 5.953125 28.390625 8.484375 
Q 30.953125 11.03125 31.546875 16.3125 
L 38.875 15.71875 
Q 38.53125 12.453125 37.296875 9.421875 
Q 36.078125 6.390625 34.03125 4.09375 
Q 31.984375 1.8125 29 0.40625 
Q 26.03125 -0.984375 22.171875 -0.984375 
Q 17.09375 -0.984375 13.5 1.109375 
Q 9.90625 3.21875 7.6875 6.90625 
Q 5.46875 10.59375 4.46875 15.59375 
Q 3.46875 20.609375 3.46875 26.46875 
Q 3.46875 31.78125 4.203125 35.859375 
Q 4.9375 39.9375 6.21875 42.984375 
Q 7.515625 46.046875 9.265625 48.125 
Q 11.03125 50.203125 13.109375 51.4375 
Q 15.1875 52.6875 17.453125 53.25 
Q 19.734375 53.8125 22.078125 53.8125 
Q 25.734375 53.8125 28.5625 52.59375 
Q 31.390625 51.375 33.46875 49.25 
Q 35.546875 47.125 36.8125 44.234375 
Q 38.09375 41.359375 38.625 38.03125 
L 31.203125 37.359375 
Q 30.671875 41.75 28.375 44.328125 
Q 26.078125 46.921875 21.875 46.921875 
Q 18.796875 46.921875 16.71875 45.671875 
Q 14.65625 44.4375 13.375 41.921875 
Q 12.109375 39.40625 11.5625 35.59375 
Q 11.03125 31.78125 11.03125 26.65625 
z
" id="LiberationSansNarrow-1089"/>
       <path d="M 21.4375 22.359375 
L 8.84375 0 
L 0.6875 0 
L 14.453125 23 
Q 9.234375 24.3125 6.859375 28.296875 
Q 4.5 32.28125 4.5 38.234375 
Q 4.5 45.515625 8.8125 49.171875 
Q 13.140625 52.828125 21.4375 52.828125 
L 38.71875 52.828125 
L 38.71875 0 
L 31.546875 0 
L 31.546875 22.359375 
z
M 31.546875 46.625 
L 22.171875 46.625 
Q 16.9375 46.625 14.546875 44.375 
Q 12.15625 42.140625 12.15625 37.59375 
Q 12.15625 33.015625 14.28125 30.734375 
Q 16.40625 28.46875 21.390625 28.46875 
L 31.546875 28.46875 
z
" id="LiberationSansNarrow-1103"/>
       <path d="M 12.890625 52.828125 
L 12.890625 6.390625 
L 31.984375 6.390625 
L 31.984375 52.828125 
L 39.203125 52.828125 
L 39.203125 6.390625 
L 45.0625 6.390625 
L 45.0625 -19.921875 
L 38.578125 -19.921875 
L 38.578125 0 
L 5.671875 0 
L 5.671875 52.828125 
z
" id="LiberationSansNarrow-1094"/>
       <path d="M 22.796875 30.46875 
Q 31.296875 30.46875 35.640625 26.875 
Q 39.984375 23.296875 39.984375 15.53125 
Q 39.984375 11.921875 38.90625 9.03125 
Q 37.84375 6.15625 35.671875 4.15625 
Q 33.5 2.15625 30.296875 1.078125 
Q 27.09375 0 22.859375 0 
L 5.859375 0 
L 5.859375 52.828125 
L 13.328125 52.828125 
L 13.328125 30.46875 
z
M 13.328125 6.203125 
L 21.734375 6.203125 
Q 24.609375 6.203125 26.578125 6.8125 
Q 28.5625 7.421875 29.78125 8.609375 
Q 31 9.8125 31.53125 11.546875 
Q 32.078125 13.28125 32.078125 15.53125 
Q 32.078125 20.125 29.65625 22.234375 
Q 27.25 24.359375 21.734375 24.359375 
L 13.328125 24.359375 
z
M 47.65625 0 
L 47.65625 52.828125 
L 55.125 52.828125 
L 55.125 0 
z
" id="LiberationSansNarrow-1099"/>
      </defs>
      <use xlink:href="#LiberationSansNarrow-1052"/>
      <use x="69.435547" xlink:href="#LiberationSansNarrow-1077"/>
      <use x="115.041016" xlink:href="#LiberationSansNarrow-1089"/>
      <use x="156.056641" xlink:href="#LiberationSansNarrow-1103"/>
      <use x="200.490234" xlink:href="#LiberationSansNarrow-1094"/>
      <use x="247.462891" xlink:href="#LiberationSansNarrow-1099"/>
     </g>
    </g>
   </g>
   <g id="matplotlib.axis_2">
    <g id="ytick_1">
     <g id="line2d_8">
      <path clip-path="url(#p32878092fc)" d="M 58.97 209.922808 
L 560.88 209.922808 
" style="fill:none;stroke:#b0b0b0;stroke-dasharray:1.48,0.64;stroke-dashoffset:0;stroke-width:0.4;"/>
     </g>
     <g id="text_9">
      <!-- 100 -->
      <g transform="translate(32.814063 214.99562)scale(0.14 -0.14)">
       <use xlink:href="#LiberationSansNarrow-49"/>
       <use x="45.605469" xlink:href="#LiberationSansNarrow-48"/>
       <use x="91.210938" xlink:href="#LiberationSansNarrow-48"/>
      </g>
     </g>
    </g>
    <g id="ytick_2">
     <g id="line2d_9">
      <path clip-path="url(#p32878092fc)" d="M 58.97 176.570576 
L 560.88 176.570576 
" style="fill:none;stroke:#b0b0b0;stroke-dasharray:1.48,0.64;stroke-dashoffset:0;stroke-width:0.4;"/>
     </g>
     <g id="text_10">
      <!-- 200 -->
      <g transform="translate(32.814063 181.643388)scale(0.14 -0.14)">
       <use xlink:href="#LiberationSansNarrow-50"/>
       <use x="45.605469" xlink:href="#LiberationSansNarrow-48"/>
       <use x="91.210938" xlink:href="#LiberationSansNarrow-48"/>
      </g>
     </g>
    </g>
    <g id="ytick_3">
     <g id="line2d_10">
      <path clip-path="url(#p32878092fc)" d="M 58.97 143.218343 
L 560.88 143.218343 
" style="fill:none;stroke:#b0b0b0;stroke-dasharray:1.48,0.64;stroke-dashoffset:0;stroke-width:0.4;"/>
     </g>
     <g id="text_11">
      <!-- 300 -->
      <g transform="translate(32.814063 148.291156)scale(0.14 -0.14)">
       <use xlink:href="#LiberationSansNarrow-51"/>
       <use x="45.605469" xlink:href="#LiberationSansNarrow-48"/>
       <use x="91.210938" xlink:href="#LiberationSansNarrow-48"/>
      </g>
     </g>
    </g>
    <g id="ytick_4">
     <g id="line2d_11">
      <path clip-path="url(#p32878092fc)" d="M 58.97 109.866111 
L 560.88 109.866111 
" style="fill:none;stroke:#b0b0b0;stroke-dasharray:1.48,0.64;stroke-dashoffset:0;stroke-width:0.4;"/>
     </g>
     <g id="text_12">
      <!-- 400 -->
      <g transform="translate(32.814063 114.938924)scale(0.14 -0.14)">
       <defs>
        <path d="M 35.25 15.578125 
L 35.25 0 
L 28.46875 0 
L 28.46875 15.578125 
L 1.90625 15.578125 
L 1.90625 22.40625 
L 27.6875 68.796875 
L 35.25 68.796875 
L 35.25 22.515625 
L 43.21875 22.515625 
L 43.21875 15.578125 
z
M 28.46875 58.890625 
Q 28.375 58.640625 28.03125 57.90625 
L 27.34375 56.34375 
L 26.5625 54.59375 
Q 26.125 53.65625 25.78125 53.078125 
L 11.328125 27.09375 
Q 11.140625 26.703125 10.75 26.078125 
L 9.96875 24.8125 
L 9.1875 23.484375 
Q 8.796875 22.859375 8.546875 22.515625 
L 28.46875 22.515625 
z
" id="LiberationSansNarrow-52"/>
       </defs>
       <use xlink:href="#LiberationSansNarrow-52"/>
       <use x="45.605469" xlink:href="#LiberationSansNarrow-48"/>
       <use x="91.210938" xlink:href="#LiberationSansNarrow-48"/>
      </g>
     </g>
    </g>
    <g id="ytick_5">
     <g id="line2d_12">
      <path clip-path="url(#p32878092fc)" d="M 58.97 76.513879 
L 560.88 76.513879 
" style="fill:none;stroke:#b0b0b0;stroke-dasharray:1.48,0.64;stroke-dashoffset:0;stroke-width:0.4;"/>
     </g>
     <g id="text_13">
      <!-- 500 -->
      <g transform="translate(32.814063 81.586691)scale(0.14 -0.14)">
       <use xlink:href="#LiberationSansNarrow-53"/>
       <use x="45.605469" xlink:href="#LiberationSansNarrow-48"/>
       <use x="91.210938" xlink:href="#LiberationSansNarrow-48"/>
      </g>
     </g>
    </g>
    <g id="ytick_6">
     <g id="line2d_13">
      <path clip-path="url(#p32878092fc)" d="M 58.97 43.161647 
L 560.88 43.161647 
" style="fill:none;stroke:#b0b0b0;stroke-dasharray:1.48,0.64;stroke-dashoffset:0;stroke-width:0.4;"/>
     </g>
     <g id="text_14">
      <!-- 600 -->
      <g transform="translate(32.814063 48.234459)scale(0.14 -0.14)">
       <defs>
        <path d="M 42 22.515625 
Q 42 17.328125 40.828125 13 
Q 39.65625 8.6875 37.359375 5.578125 
Q 35.0625 2.484375 31.640625 0.75 
Q 28.21875 -0.984375 23.78125 -0.984375 
Q 18.84375 -0.984375 15.15625 1.3125 
Q 11.46875 3.609375 9.03125 7.921875 
Q 6.59375 12.25 5.375 18.53125 
Q 4.15625 24.8125 4.15625 32.8125 
Q 4.15625 42 5.546875 48.921875 
Q 6.9375 55.859375 9.515625 60.5 
Q 12.109375 65.140625 15.859375 67.484375 
Q 19.625 69.828125 24.359375 69.828125 
Q 27.25 69.828125 29.765625 69.09375 
Q 32.28125 68.359375 34.328125 66.71875 
Q 36.375 65.09375 37.9375 62.40625 
Q 39.5 59.71875 40.4375 55.8125 
L 33.546875 54.296875 
Q 32.421875 58.734375 29.953125 60.71875 
Q 27.484375 62.703125 24.265625 62.703125 
Q 21.296875 62.703125 18.890625 60.984375 
Q 16.5 59.28125 14.8125 55.875 
Q 13.140625 52.484375 12.234375 47.359375 
Q 11.328125 42.234375 11.328125 35.40625 
Q 13.28125 39.84375 16.84375 42.15625 
Q 20.40625 44.484375 25.046875 44.484375 
Q 28.90625 44.484375 32 42.96875 
Q 35.109375 41.453125 37.328125 38.59375 
Q 39.546875 35.75 40.765625 31.671875 
Q 42 27.59375 42 22.515625 
z
M 34.671875 22.125 
Q 34.671875 25.6875 33.953125 28.5625 
Q 33.25 31.453125 31.8125 33.46875 
Q 30.375 35.5 28.25 36.59375 
Q 26.125 37.703125 23.296875 37.703125 
Q 21.34375 37.703125 19.328125 36.984375 
Q 17.328125 36.28125 15.71875 34.6875 
Q 14.109375 33.109375 13.078125 30.515625 
Q 12.0625 27.9375 12.0625 24.21875 
Q 12.0625 20.40625 12.859375 17.109375 
Q 13.671875 13.8125 15.15625 11.375 
Q 16.65625 8.9375 18.78125 7.515625 
Q 20.90625 6.109375 23.53125 6.109375 
Q 26.125 6.109375 28.203125 7.203125 
Q 30.28125 8.296875 31.71875 10.375 
Q 33.15625 12.453125 33.90625 15.421875 
Q 34.671875 18.40625 34.671875 22.125 
z
" id="LiberationSansNarrow-54"/>
       </defs>
       <use xlink:href="#LiberationSansNarrow-54"/>
       <use x="45.605469" xlink:href="#LiberationSansNarrow-48"/>
       <use x="91.210938" xlink:href="#LiberationSansNarrow-48"/>
      </g>
     </g>
    </g>
    <g id="text_15">
     <!-- Дисконтированный денежный поток -->
     <g transform="translate(25.909063 220.830469)rotate(-90)scale(0.14 -0.14)">
      <defs>
       <path d="M 46.96875 7.8125 
L 54 7.8125 
L 54 -19.921875 
L 46.78125 -19.921875 
L 46.78125 0 
L 7.8125 0 
L 7.8125 -19.921875 
L 0.59375 -19.921875 
L 0.59375 7.8125 
L 6.34375 7.8125 
Q 8.015625 10.296875 9.328125 13.671875 
Q 10.640625 17.046875 11.734375 21.453125 
Q 12.84375 25.875 13.71875 31.4375 
Q 14.59375 37.015625 15.328125 43.890625 
L 18.015625 68.796875 
L 46.96875 68.796875 
z
M 39.546875 7.8125 
L 39.546875 60.984375 
L 24.5625 60.984375 
L 22.5625 43.015625 
Q 21.828125 36.46875 21.046875 31.078125 
Q 20.265625 25.6875 19.328125 21.34375 
Q 18.40625 17 17.328125 13.640625 
Q 16.265625 10.296875 14.984375 7.8125 
z
" id="LiberationSansNarrow-1044"/>
       <path d="M 12.640625 52.828125 
L 12.640625 23.921875 
Q 12.640625 22.796875 12.59375 20.921875 
Q 12.546875 19.046875 12.46875 17.046875 
Q 12.40625 15.046875 12.359375 13.234375 
Q 12.3125 11.421875 12.25 10.40625 
L 32.28125 52.828125 
L 40.140625 52.828125 
L 40.140625 0 
L 33.25 0 
L 33.25 32.234375 
Q 33.25 33.15625 33.296875 34.578125 
L 33.40625 37.40625 
Q 33.453125 38.875 33.5 40.234375 
L 33.640625 42.625 
L 13.375 0 
L 5.71875 0 
L 5.71875 52.828125 
z
" id="LiberationSansNarrow-1080"/>
       <path d="M 5.515625 52.828125 
L 12.703125 52.828125 
L 12.703125 29.6875 
Q 13.921875 29.6875 14.875 30.078125 
Q 15.828125 30.46875 16.875 31.6875 
Q 17.921875 32.90625 19.21875 35.15625 
Q 20.515625 37.40625 22.46875 41.15625 
L 28.375 52.828125 
L 35.890625 52.828125 
L 27.25 36.96875 
Q 25.4375 33.734375 24.109375 31.65625 
Q 22.796875 29.59375 22.125 28.90625 
L 36.234375 0 
L 28.21875 0 
L 17.140625 24.265625 
Q 16.359375 23.875 15.0625 23.578125 
Q 13.765625 23.296875 12.703125 23.296875 
L 12.703125 0 
L 5.515625 0 
z
" id="LiberationSansNarrow-1082"/>
       <path d="M 42.140625 26.46875 
Q 42.140625 12.59375 37.125 5.796875 
Q 32.125 -0.984375 22.609375 -0.984375 
Q 18.0625 -0.984375 14.515625 0.671875 
Q 10.984375 2.34375 8.515625 5.765625 
Q 6.0625 9.1875 4.765625 14.328125 
Q 3.46875 19.484375 3.46875 26.46875 
Q 3.46875 53.8125 22.859375 53.8125 
Q 27.875 53.8125 31.5625 52.09375 
Q 35.25 50.390625 37.59375 46.96875 
Q 39.9375 43.5625 41.03125 38.421875 
Q 42.140625 33.296875 42.140625 26.46875 
z
M 34.578125 26.46875 
Q 34.578125 32.625 33.8125 36.625 
Q 33.0625 40.625 31.546875 43.015625 
Q 30.03125 45.40625 27.859375 46.359375 
Q 25.6875 47.3125 23 47.3125 
Q 20.21875 47.3125 17.984375 46.3125 
Q 15.765625 45.3125 14.203125 42.890625 
Q 12.640625 40.484375 11.828125 36.46875 
Q 11.03125 32.46875 11.03125 26.46875 
Q 11.03125 20.3125 11.90625 16.28125 
Q 12.796875 12.25 14.328125 9.859375 
Q 15.875 7.46875 17.96875 6.484375 
Q 20.0625 5.515625 22.5625 5.515625 
Q 25.34375 5.515625 27.5625 6.46875 
Q 29.78125 7.421875 31.34375 9.8125 
Q 32.90625 12.203125 33.734375 16.25 
Q 34.578125 20.3125 34.578125 26.46875 
z
" id="LiberationSansNarrow-1086"/>
       <path d="M 12.890625 52.828125 
L 12.890625 30.46875 
L 32.375 30.46875 
L 32.375 52.828125 
L 39.59375 52.828125 
L 39.59375 0 
L 32.375 0 
L 32.375 24.078125 
L 12.890625 24.078125 
L 12.890625 0 
L 5.671875 0 
L 5.671875 52.828125 
z
" id="LiberationSansNarrow-1085"/>
       <path d="M 1.421875 52.828125 
L 36.140625 52.828125 
L 36.140625 46.4375 
L 22.359375 46.4375 
L 22.359375 0 
L 15.1875 0 
L 15.1875 46.4375 
L 1.421875 46.4375 
z
" id="LiberationSansNarrow-1090"/>
       <path d="M 42.140625 26.65625 
Q 42.140625 20.65625 41.359375 15.578125 
Q 40.578125 10.5 38.6875 6.828125 
Q 36.8125 3.171875 33.765625 1.09375 
Q 30.71875 -0.984375 26.21875 -0.984375 
Q 21.578125 -0.984375 18.078125 1.171875 
Q 14.59375 3.328125 12.796875 8.203125 
L 12.546875 8.203125 
Q 12.59375 8.109375 12.609375 7.328125 
Q 12.640625 6.546875 12.671875 5.375 
Q 12.703125 4.203125 12.71875 2.75 
Q 12.75 1.3125 12.75 -0.09375 
L 12.75 -20.75 
L 5.515625 -20.75 
L 5.515625 42.046875 
Q 5.515625 43.953125 5.484375 45.703125 
Q 5.46875 47.46875 5.4375 48.90625 
Q 5.421875 50.34375 5.375 51.359375 
Q 5.328125 52.390625 5.28125 52.828125 
L 12.25 52.828125 
Q 12.3125 52.6875 12.359375 51.8125 
L 12.5 49.703125 
Q 12.546875 48.4375 12.59375 47.015625 
Q 12.640625 45.609375 12.640625 44.34375 
L 12.796875 44.34375 
Q 13.765625 46.875 15.0625 48.65625 
Q 16.359375 50.4375 18.015625 51.578125 
Q 19.671875 52.734375 21.671875 53.25 
Q 23.6875 53.765625 26.21875 53.765625 
Q 30.71875 53.765625 33.765625 51.8125 
Q 36.8125 49.859375 38.6875 46.3125 
Q 40.578125 42.78125 41.359375 37.765625 
Q 42.140625 32.765625 42.140625 26.65625 
z
M 34.578125 26.46875 
Q 34.578125 31.34375 34.109375 35.15625 
Q 33.640625 38.96875 32.4375 41.59375 
Q 31.25 44.234375 29.296875 45.59375 
Q 27.34375 46.96875 24.359375 46.96875 
Q 21.96875 46.96875 19.84375 46.140625 
Q 17.71875 45.3125 16.125 42.96875 
Q 14.546875 40.625 13.640625 36.5 
Q 12.75 32.375 12.75 25.78125 
Q 12.75 20.171875 13.5 16.28125 
Q 14.265625 12.40625 15.71875 10.015625 
Q 17.1875 7.625 19.328125 6.5625 
Q 21.484375 5.515625 24.3125 5.515625 
Q 27.34375 5.515625 29.296875 6.921875 
Q 31.25 8.34375 32.4375 11.03125 
Q 33.640625 13.71875 34.109375 17.59375 
Q 34.578125 21.484375 34.578125 26.46875 
z
" id="LiberationSansNarrow-1088"/>
       <path d="M 22.5625 52.828125 
Q 25.59375 52.828125 28.484375 52.234375 
Q 31.390625 51.65625 33.640625 50.140625 
Q 35.890625 48.640625 37.234375 46.09375 
Q 38.578125 43.5625 38.578125 39.59375 
Q 38.578125 37.015625 37.890625 35.03125 
Q 37.203125 33.0625 35.984375 31.640625 
Q 34.765625 30.21875 33.125 29.3125 
Q 31.5 28.421875 29.6875 27.984375 
L 29.6875 27.640625 
Q 31.84375 27.296875 33.734375 26.4375 
Q 35.640625 25.59375 37 24.09375 
Q 38.375 22.609375 39.171875 20.40625 
Q 39.984375 18.21875 39.984375 15.234375 
Q 39.984375 11.421875 38.765625 8.5625 
Q 37.546875 5.71875 35.375 3.8125 
Q 33.203125 1.90625 30.171875 0.953125 
Q 27.15625 0 23.484375 0 
L 5.671875 0 
L 5.671875 52.828125 
z
M 12.890625 6.5 
L 22.3125 6.5 
Q 25.09375 6.5 27 6.984375 
Q 28.90625 7.46875 30.078125 8.546875 
Q 31.25 9.625 31.78125 11.25 
Q 32.328125 12.890625 32.328125 15.1875 
Q 32.328125 17.625 31.765625 19.328125 
Q 31.203125 21.046875 29.953125 22.109375 
Q 28.71875 23.1875 26.703125 23.671875 
Q 24.703125 24.171875 21.875 24.171875 
L 12.890625 24.171875 
z
M 12.890625 46.140625 
L 12.890625 30.515625 
L 21.53125 30.515625 
Q 24.265625 30.515625 26.0625 30.984375 
Q 27.875 31.453125 29 32.390625 
Q 30.125 33.34375 30.5625 34.828125 
Q 31 36.328125 31 38.421875 
Q 31 42.4375 28.96875 44.28125 
Q 26.953125 46.140625 22.125 46.140625 
z
" id="LiberationSansNarrow-1074"/>
       <path d="M 16.546875 -0.984375 
Q 10.015625 -0.984375 6.734375 3.21875 
Q 3.46875 7.421875 3.46875 14.75 
Q 3.46875 19.96875 5.09375 23.3125 
Q 6.734375 26.65625 9.34375 28.5625 
Q 11.96875 30.46875 15.328125 31.203125 
Q 18.703125 31.9375 22.171875 32.03125 
L 31.9375 32.234375 
L 31.9375 35.109375 
Q 31.9375 38.375 31.375 40.671875 
Q 30.8125 42.96875 29.640625 44.375 
Q 28.46875 45.796875 26.734375 46.453125 
Q 25 47.125 22.609375 47.125 
Q 20.515625 47.125 18.84375 46.75 
Q 17.1875 46.390625 15.9375 45.4375 
Q 14.703125 44.484375 13.9375 42.84375 
Q 13.1875 41.21875 12.9375 38.71875 
L 5.421875 39.546875 
Q 5.8125 42.671875 6.9375 45.28125 
Q 8.0625 47.90625 10.109375 49.796875 
Q 12.15625 51.703125 15.25 52.75 
Q 18.359375 53.8125 22.796875 53.8125 
Q 30.953125 53.8125 35.078125 49.234375 
Q 39.203125 44.671875 39.203125 36.03125 
L 39.203125 13.28125 
Q 39.203125 9.375 40.03125 7.390625 
Q 40.875 5.421875 43.265625 5.421875 
Q 43.84375 5.421875 44.453125 5.515625 
Q 45.0625 5.609375 45.609375 5.765625 
L 45.609375 0.296875 
Q 44.234375 -0.09375 42.890625 -0.28125 
Q 41.546875 -0.484375 40.046875 -0.484375 
Q 37.984375 -0.484375 36.515625 0.171875 
Q 35.0625 0.828125 34.15625 2.171875 
Q 33.25 3.515625 32.765625 5.484375 
Q 32.28125 7.46875 32.125 10.109375 
L 31.9375 10.109375 
Q 30.765625 7.5625 29.375 5.515625 
Q 27.984375 3.46875 26.140625 2.03125 
Q 24.3125 0.59375 21.9375 -0.1875 
Q 19.578125 -0.984375 16.546875 -0.984375 
z
M 18.21875 5.609375 
Q 21.6875 5.609375 24.25 7.140625 
Q 26.8125 8.6875 28.515625 11.078125 
Q 30.21875 13.484375 31.078125 16.3125 
Q 31.9375 19.140625 31.9375 21.734375 
L 31.9375 26.078125 
L 24.03125 25.875 
Q 21.390625 25.828125 19 25.40625 
Q 16.609375 25 14.8125 23.78125 
Q 13.03125 22.5625 11.953125 20.359375 
Q 10.890625 18.171875 10.890625 14.59375 
Q 10.890625 10.296875 12.796875 7.953125 
Q 14.703125 5.609375 18.21875 5.609375 
z
" id="LiberationSansNarrow-1072"/>
       <path d="M 12.640625 52.828125 
L 12.640625 23.921875 
Q 12.640625 22.796875 12.59375 20.921875 
Q 12.546875 19.046875 12.46875 17.046875 
Q 12.40625 15.046875 12.359375 13.234375 
Q 12.3125 11.421875 12.25 10.40625 
L 32.28125 52.828125 
L 40.140625 52.828125 
L 40.140625 0 
L 33.25 0 
L 33.25 32.234375 
Q 33.25 33.15625 33.296875 34.578125 
L 33.40625 37.40625 
Q 33.453125 38.875 33.5 40.234375 
L 33.640625 42.625 
L 13.375 0 
L 5.71875 0 
L 5.71875 52.828125 
z
M 25.046875 58.59375 
Q 20.609375 58.59375 17.765625 59.984375 
Q 14.9375 61.375 13.328125 63.59375 
Q 11.71875 65.828125 11.078125 68.625 
Q 10.453125 71.4375 10.359375 74.21875 
L 16.890625 74.21875 
Q 17.140625 69.1875 19.234375 66.84375 
Q 21.34375 64.5 25.046875 64.5 
Q 28.765625 64.5 30.828125 66.84375 
Q 32.90625 69.1875 33.15625 74.21875 
L 39.75 74.21875 
Q 39.65625 71.4375 39.015625 68.625 
Q 38.375 65.828125 36.734375 63.59375 
Q 35.109375 61.375 32.296875 59.984375 
Q 29.5 58.59375 25.046875 58.59375 
z
" id="LiberationSansNarrow-1081"/>
       <path id="LiberationSansNarrow-32"/>
       <path d="M 33.34375 46.4375 
L 21.140625 46.4375 
Q 20.171875 37.796875 19.1875 31.375 
Q 18.21875 24.953125 17.234375 20.21875 
Q 16.265625 15.484375 15.3125 12.15625 
Q 14.359375 8.84375 13.484375 6.390625 
L 33.34375 6.390625 
z
M 46.390625 -19.921875 
L 39.890625 -19.921875 
L 39.890625 0 
L 7.328125 0 
L 7.328125 -19.921875 
L 0.78125 -19.921875 
L 0.78125 6.390625 
L 5.5625 6.390625 
Q 6.78125 8.84375 7.921875 12.328125 
Q 9.078125 15.828125 10.21875 21.1875 
Q 11.375 26.5625 12.515625 34.25 
Q 13.671875 41.9375 14.796875 52.828125 
L 40.578125 52.828125 
L 40.578125 6.390625 
L 46.390625 6.390625 
z
" id="LiberationSansNarrow-1076"/>
       <path d="M 23.828125 23.296875 
Q 22.796875 23.296875 21.484375 23.578125 
Q 20.171875 23.875 19.4375 24.265625 
L 8.296875 0 
L 0.296875 0 
L 14.40625 28.90625 
Q 13.71875 29.59375 12.390625 31.65625 
Q 11.078125 33.734375 9.28125 36.96875 
L 0.640625 52.828125 
L 8.15625 52.828125 
L 14.109375 41.15625 
Q 16.015625 37.40625 17.3125 35.15625 
Q 18.609375 32.90625 19.65625 31.6875 
Q 20.703125 30.46875 21.65625 30.078125 
Q 22.609375 29.6875 23.828125 29.6875 
L 23.828125 52.828125 
L 31 52.828125 
L 31 29.6875 
Q 32.234375 29.6875 33.171875 30.078125 
Q 34.125 30.46875 35.171875 31.6875 
Q 36.234375 32.90625 37.515625 35.15625 
Q 38.8125 37.40625 40.71875 41.15625 
L 46.6875 52.828125 
L 54.203125 52.828125 
L 45.5625 36.96875 
Q 43.75 33.734375 42.421875 31.65625 
Q 41.109375 29.59375 40.4375 28.90625 
L 54.546875 0 
L 46.53125 0 
L 35.40625 24.265625 
Q 34.625 23.875 33.34375 23.578125 
Q 32.078125 23.296875 31 23.296875 
L 31 0 
L 23.828125 0 
z
" id="LiberationSansNarrow-1078"/>
       <path d="M 38.71875 52.828125 
L 38.71875 0 
L 31.546875 0 
L 31.546875 46.4375 
L 12.890625 46.4375 
L 12.890625 0 
L 5.71875 0 
L 5.71875 52.828125 
z
" id="LiberationSansNarrow-1087"/>
      </defs>
      <use xlink:href="#LiberationSansNarrow-1044"/>
      <use x="55.517578" xlink:href="#LiberationSansNarrow-1080"/>
      <use x="101.367188" xlink:href="#LiberationSansNarrow-1089"/>
      <use x="142.382812" xlink:href="#LiberationSansNarrow-1082"/>
      <use x="179.347656" xlink:href="#LiberationSansNarrow-1086"/>
      <use x="224.953125" xlink:href="#LiberationSansNarrow-1085"/>
      <use x="270.216797" xlink:href="#LiberationSansNarrow-1090"/>
      <use x="307.765625" xlink:href="#LiberationSansNarrow-1080"/>
      <use x="353.615234" xlink:href="#LiberationSansNarrow-1088"/>
      <use x="399.220703" xlink:href="#LiberationSansNarrow-1086"/>
      <use x="444.826172" xlink:href="#LiberationSansNarrow-1074"/>
      <use x="487.255859" xlink:href="#LiberationSansNarrow-1072"/>
      <use x="532.861328" xlink:href="#LiberationSansNarrow-1085"/>
      <use x="578.125" xlink:href="#LiberationSansNarrow-1085"/>
      <use x="623.388672" xlink:href="#LiberationSansNarrow-1099"/>
      <use x="684.375" xlink:href="#LiberationSansNarrow-1081"/>
      <use x="730.224609" xlink:href="#LiberationSansNarrow-32"/>
      <use x="753.027344" xlink:href="#LiberationSansNarrow-1076"/>
      <use x="800.830078" xlink:href="#LiberationSansNarrow-1077"/>
      <use x="846.435547" xlink:href="#LiberationSansNarrow-1085"/>
      <use x="891.699219" xlink:href="#LiberationSansNarrow-1077"/>
      <use x="936.179688" xlink:href="#LiberationSansNarrow-1078"/>
      <use x="991.013672" xlink:href="#LiberationSansNarrow-1085"/>
      <use x="1036.277344" xlink:href="#LiberationSansNarrow-1099"/>
      <use x="1097.263672" xlink:href="#LiberationSansNarrow-1081"/>
      <use x="1143.113281" xlink:href="#LiberationSansNarrow-32"/>
      <use x="1165.916016" xlink:href="#LiberationSansNarrow-1087"/>
      <use x="1210.349609" xlink:href="#LiberationSansNarrow-1086"/>
      <use x="1253.705078" xlink:href="#LiberationSansNarrow-1090"/>
      <use x="1290.128906" xlink:href="#LiberationSansNarrow-1086"/>
      <use x="1335.734375" xlink:href="#LiberationSansNarrow-1082"/>
     </g>
    </g>
   </g>
   <g id="line2d_14">
    <path clip-path="url(#p32878092fc)" d="M 81.784091 158.884615 
L 83.310117 155.792564 
L 84.836143 153.033953 
L 86.362169 150.833791 
L 90.940248 145.103302 
L 92.466274 143.072164 
L 93.9923 141.527667 
L 97.044352 139.930069 
L 98.570379 139.454611 
L 100.096405 139.150774 
L 101.622431 139.13384 
L 103.148457 138.846077 
L 104.674483 138.381902 
L 107.726535 136.943517 
L 109.252562 135.988871 
L 110.778588 135.424477 
L 113.83064 133.120331 
L 115.356666 132.070005 
L 116.882692 131.407741 
L 121.460771 130.261632 
L 122.986797 130.309002 
L 124.512823 129.912115 
L 127.564875 127.435128 
L 129.090901 125.884131 
L 133.66898 122.062892 
L 135.195006 120.972525 
L 138.247058 118.27777 
L 142.825137 116.046819 
L 144.351163 115.676936 
L 145.877189 115.551717 
L 148.929241 116.063914 
L 150.455268 116.525074 
L 153.50732 117.2276 
L 156.559372 117.437088 
L 161.137451 118.095105 
L 162.663477 118.517868 
L 164.189503 118.11933 
L 165.715529 117.563674 
L 168.767581 115.87173 
L 170.293607 115.61978 
L 173.34566 116.456697 
L 174.871686 117.158861 
L 176.397712 118.180083 
L 177.923738 119.5135 
L 184.027843 127.059262 
L 185.553869 129.445273 
L 187.079895 132.122921 
L 188.605921 135.11231 
L 190.131947 138.560726 
L 191.657974 141.730872 
L 203.866183 164.685645 
L 206.918235 169.604484 
L 208.444261 171.730142 
L 209.970287 173.539013 
L 211.496313 175.540744 
L 213.02234 177.16793 
L 216.074392 180.648195 
L 217.600418 182.904757 
L 219.126444 184.861707 
L 222.178497 188.111568 
L 223.704523 189.697071 
L 225.230549 191.019647 
L 226.756575 192.537398 
L 229.808627 196.006304 
L 231.334653 197.40691 
L 232.86068 198.538631 
L 234.386706 199.831546 
L 235.912732 200.646 
L 237.438758 201.934674 
L 240.49081 204.249338 
L 242.016836 204.630532 
L 243.542863 205.452578 
L 246.594915 206.669363 
L 248.120941 206.858355 
L 249.646967 207.349003 
L 251.172993 207.962939 
L 257.277098 208.330265 
L 258.803124 208.738415 
L 261.855176 208.73223 
L 263.381202 208.546409 
L 266.433255 209.087106 
L 267.959281 208.965392 
L 269.485307 208.959858 
L 271.011333 209.18144 
L 272.537359 209.255476 
L 274.063386 208.949998 
L 275.589412 208.90936 
L 277.115438 209.13393 
L 281.693516 208.35919 
L 283.219542 207.849659 
L 284.745569 207.174775 
L 286.271595 206.862681 
L 287.797621 206.380346 
L 289.323647 206.031016 
L 290.849673 205.931501 
L 292.375699 205.580647 
L 293.901725 205.106486 
L 295.427752 204.469597 
L 296.953778 203.201141 
L 300.00583 199.828296 
L 303.057882 196.516424 
L 304.583908 195.120041 
L 309.161987 192.069117 
L 310.688013 190.893389 
L 312.214039 190.429677 
L 313.740065 190.10531 
L 315.266092 189.477215 
L 316.792118 188.493797 
L 319.84417 185.690204 
L 322.896222 183.574908 
L 324.422248 182.73247 
L 329.000327 180.739447 
L 330.526353 180.563681 
L 332.052379 180.561143 
L 335.104431 180.814472 
L 336.630458 180.399982 
L 342.734562 177.944639 
L 345.786614 175.916838 
L 347.312641 174.757112 
L 354.942771 167.398377 
L 357.994824 164.583971 
L 359.52085 162.994468 
L 362.572902 158.64366 
L 364.098928 156.517334 
L 368.677007 151.22241 
L 370.203033 149.211296 
L 371.729059 147.458504 
L 373.255085 146.011558 
L 374.781111 144.820452 
L 379.35919 141.928552 
L 380.885216 140.736666 
L 385.463294 137.789349 
L 386.98932 137.149383 
L 388.515347 136.380275 
L 391.567399 134.51091 
L 393.093425 133.856222 
L 394.619451 133.061434 
L 396.145477 132.549814 
L 397.671503 132.317393 
L 399.19753 131.873263 
L 400.723556 131.618326 
L 402.249582 130.989191 
L 403.775608 130.16715 
L 409.879713 128.412737 
L 411.405739 128.214985 
L 412.931765 127.639502 
L 414.457791 126.482863 
L 417.509843 123.908687 
L 419.03587 123.005795 
L 420.561896 121.745566 
L 423.613948 119.692291 
L 425.139974 118.8226 
L 428.192026 116.869421 
L 434.296131 114.167981 
L 437.348183 112.273483 
L 440.400236 109.456524 
L 444.978314 104.531888 
L 448.030366 100.719047 
L 449.556393 98.990186 
L 452.608445 95.890718 
L 454.134471 94.491444 
L 455.660497 92.869312 
L 457.186523 90.724017 
L 458.712549 89.009376 
L 460.238576 86.953605 
L 461.764602 84.699875 
L 463.290628 82.662727 
L 466.34268 79.025162 
L 467.868706 77.621145 
L 469.394732 76.497703 
L 470.920759 75.694527 
L 472.446785 75.104318 
L 473.972811 74.187343 
L 475.498837 73.077464 
L 478.550889 69.585537 
L 489.233072 56.734566 
L 490.759099 55.611323 
L 492.285125 54.1818 
L 493.811151 53.285422 
L 495.337177 52.135354 
L 496.863203 51.378607 
L 498.389229 50.754663 
L 501.441282 50.137636 
L 502.967308 50.317016 
L 507.545386 49.988909 
L 509.071412 49.641678 
L 512.123465 48.484714 
L 513.649491 47.790344 
L 515.175517 46.497542 
L 518.227569 43.640439 
L 519.753595 42.47308 
L 521.279621 40.663304 
L 525.8577 35.741126 
L 527.383726 34.444901 
L 528.909752 32.827794 
L 531.961804 29.176912 
L 533.487831 27.692005 
L 536.539883 25.815228 
L 538.065909 25.092727 
L 538.065909 25.092727 
" style="fill:none;stroke:#1f77b4;stroke-linecap:square;stroke-width:1.5;"/>
   </g>
   <g id="line2d_15">
    <path clip-path="url(#p32878092fc)" d="M 81.784091 221.81822 
L 83.310117 219.266942 
L 84.836143 216.973556 
L 86.362169 215.1808 
L 87.888196 213.654669 
L 89.414222 211.921542 
L 90.940248 210.365127 
L 92.466274 208.526683 
L 93.9923 207.130295 
L 97.044352 205.773986 
L 98.570379 205.400766 
L 100.096405 205.197229 
L 101.622431 205.289313 
L 103.148457 205.109555 
L 104.674483 204.745767 
L 107.726535 203.456765 
L 109.252562 202.539318 
L 110.778588 201.997898 
L 113.83064 199.625561 
L 115.356666 198.487092 
L 116.882692 197.71367 
L 121.460771 196.145213 
L 122.986797 196.039951 
L 124.512823 195.474755 
L 127.564875 192.514736 
L 129.090901 190.634516 
L 135.195006 183.828464 
L 138.247058 179.806667 
L 141.299111 176.733634 
L 142.825137 175.16463 
L 144.351163 173.892955 
L 145.877189 172.829526 
L 148.929241 171.392838 
L 150.455268 170.84949 
L 153.50732 169.472221 
L 156.559372 167.474917 
L 159.611424 165.620069 
L 161.137451 164.573843 
L 162.663477 163.745907 
L 164.189503 162.035807 
L 165.715529 160.099348 
L 168.767581 155.39475 
L 170.293607 153.52497 
L 173.34566 150.986348 
L 174.871686 149.938961 
L 176.397712 149.18221 
L 177.923738 148.719733 
L 184.027843 149.095864 
L 185.553869 149.715543 
L 187.079895 150.659783 
L 188.605921 151.96173 
L 190.131947 153.787754 
L 191.657974 155.392904 
L 193.184 156.758991 
L 194.710026 157.943077 
L 196.236052 159.481156 
L 199.288104 162.741331 
L 202.340157 166.030806 
L 203.866183 167.753796 
L 206.918235 170.605438 
L 208.444261 171.768188 
L 209.970287 172.648527 
L 211.496313 173.764767 
L 213.02234 174.537337 
L 216.074392 176.421254 
L 217.600418 177.956504 
L 219.126444 179.242291 
L 223.704523 182.311072 
L 225.230549 183.119663 
L 226.756575 184.165964 
L 229.808627 186.851146 
L 231.334653 187.93185 
L 232.86068 188.779997 
L 234.386706 189.833229 
L 235.912732 190.435885 
L 240.49081 193.676964 
L 242.016836 194.001375 
L 243.542863 194.802582 
L 246.594915 196.066653 
L 248.120941 196.311433 
L 249.646967 196.886256 
L 251.172993 197.618573 
L 255.751072 198.232084 
L 257.277098 198.621484 
L 258.803124 199.247738 
L 261.855176 199.730863 
L 263.381202 199.809456 
L 266.433255 200.969469 
L 267.959281 201.188943 
L 269.485307 201.546777 
L 271.011333 202.163346 
L 272.537359 202.659829 
L 274.063386 202.791264 
L 275.589412 203.212533 
L 277.115438 203.934984 
L 283.219542 204.836903 
L 284.745569 204.740803 
L 286.271595 205.028506 
L 287.797621 205.161534 
L 289.323647 205.448785 
L 290.849673 206.017319 
L 293.901725 206.595092 
L 295.427752 206.684138 
L 296.953778 206.133297 
L 298.479804 205.221089 
L 301.531856 203.085563 
L 303.057882 202.072495 
L 304.583908 201.27575 
L 309.161987 200.00071 
L 310.688013 199.402093 
L 312.214039 199.531399 
L 313.740065 199.821862 
L 315.266092 199.820015 
L 316.792118 199.461507 
L 319.84417 197.855176 
L 322.896222 196.903927 
L 324.422248 196.642722 
L 329.000327 196.452506 
L 330.526353 196.914668 
L 332.052379 197.586232 
L 335.104431 199.317816 
L 336.630458 199.690398 
L 339.68251 199.977635 
L 341.208536 200.378446 
L 342.734562 200.586002 
L 345.786614 200.326572 
L 347.312641 200.05911 
L 348.838667 199.448892 
L 350.364693 198.674617 
L 353.416745 197.666005 
L 356.468798 196.513225 
L 357.994824 195.899112 
L 359.52085 195.132654 
L 361.046876 193.642528 
L 364.098928 190.897801 
L 365.624954 189.847872 
L 367.150981 188.623696 
L 368.677007 187.575047 
L 370.203033 186.156465 
L 371.729059 184.966231 
L 373.255085 184.062087 
L 374.781111 183.402801 
L 379.35919 182.085364 
L 380.885216 181.404547 
L 385.463294 179.962317 
L 386.98932 179.828192 
L 388.515347 179.56858 
L 391.567399 178.712616 
L 393.093425 178.570799 
L 394.619451 178.29206 
L 396.145477 178.310422 
L 397.671503 178.63297 
L 399.19753 178.761979 
L 400.723556 179.106224 
L 402.249582 179.089473 
L 403.775608 178.886411 
L 405.301634 179.112521 
L 406.82766 179.465652 
L 408.353687 179.522683 
L 409.879713 179.835218 
L 411.405739 180.381603 
L 412.931765 180.571849 
L 414.457791 180.181777 
L 415.983817 179.582326 
L 417.509843 179.125967 
L 419.03587 178.991683 
L 420.561896 178.497356 
L 423.613948 177.992678 
L 425.139974 177.91347 
L 428.192026 177.567305 
L 431.244079 177.845829 
L 432.770105 178.152254 
L 434.296131 178.32138 
L 437.348183 178.270593 
L 440.400236 177.311089 
L 441.926262 176.592904 
L 443.452288 175.729439 
L 444.978314 175.106794 
L 448.030366 173.024644 
L 449.556393 172.136172 
L 452.608445 170.688487 
L 454.134471 170.105806 
L 455.660497 169.287282 
L 457.186523 167.912588 
L 458.712549 166.950305 
L 460.238576 165.615206 
L 461.764602 164.041809 
L 463.290628 162.651117 
L 466.34268 160.223462 
L 467.868706 159.39688 
L 469.394732 158.847063 
L 470.920759 158.625563 
L 472.446785 158.633429 
L 473.972811 158.319466 
L 475.498837 157.810599 
L 478.550889 155.443221 
L 484.654994 150.059213 
L 487.707046 146.844268 
L 489.233072 145.475073 
L 490.759099 144.63913 
L 492.285125 143.470486 
L 493.811151 142.827437 
L 495.337177 141.913421 
L 496.863203 141.38948 
L 498.389229 140.999985 
L 501.441282 140.89527 
L 502.967308 141.369981 
L 507.545386 142.075281 
L 509.071412 142.115907 
L 512.123465 141.766904 
L 513.649491 141.488553 
L 515.175517 140.596783 
L 518.227569 138.47649 
L 519.753595 137.65555 
L 522.805648 134.802626 
L 525.8577 131.961762 
L 527.383726 130.851639 
L 528.909752 129.384563 
L 531.961804 125.894021 
L 533.487831 124.430393 
L 538.065909 121.797384 
L 538.065909 121.797384 
" style="fill:none;stroke:#ff7f0e;stroke-linecap:square;stroke-width:1.5;"/>
   </g>
   <g id="line2d_16">
    <path clip-path="url(#p32878092fc)" d="M 81.784091 161.613668 
L 83.310117 160.905783 
L 84.836143 159.963762 
L 86.362169 159.257299 
L 87.888196 159.008376 
L 89.414222 158.374385 
L 90.940248 158.180366 
L 92.466274 157.271537 
L 93.9923 156.060781 
L 95.518326 155.711404 
L 97.044352 154.917552 
L 100.096405 153.594856 
L 103.148457 153.17354 
L 104.674483 152.948513 
L 107.726535 152.339581 
L 109.252562 151.501816 
L 110.778588 151.698694 
L 113.83064 150.616693 
L 115.356666 149.764452 
L 116.882692 149.054212 
L 118.408718 148.625841 
L 119.934745 147.970318 
L 121.460771 147.183418 
L 122.986797 147.15729 
L 124.512823 147.555036 
L 126.038849 147.010779 
L 127.564875 146.86798 
L 129.090901 146.135232 
L 132.142954 145.035635 
L 133.66898 144.406452 
L 135.195006 144.188754 
L 136.721032 143.593051 
L 138.247058 142.504471 
L 141.299111 141.420537 
L 145.877189 138.877783 
L 147.403215 138.324536 
L 148.929241 137.60624 
L 150.455268 137.228371 
L 151.981294 136.631629 
L 153.50732 136.430548 
L 158.085398 134.680025 
L 159.611424 134.238634 
L 161.137451 133.47367 
L 162.663477 133.775652 
L 167.241555 132.678967 
L 170.293607 130.362639 
L 171.819634 129.762315 
L 176.397712 127.328507 
L 177.923738 126.282782 
L 179.449764 125.843085 
L 182.501817 124.713592 
L 184.027843 123.826972 
L 187.079895 122.313575 
L 188.605921 121.420048 
L 193.184 120.98208 
L 194.710026 120.297674 
L 196.236052 119.814639 
L 197.762078 119.669301 
L 199.288104 119.360084 
L 200.81413 118.930459 
L 202.340157 118.66739 
L 203.866183 118.679792 
L 205.392209 118.473257 
L 208.444261 118.488002 
L 209.970287 118.014086 
L 211.496313 118.114328 
L 213.02234 117.680293 
L 214.548366 117.528891 
L 216.074392 116.707733 
L 219.126444 116.804042 
L 220.65247 116.690238 
L 222.178497 116.449806 
L 223.704523 116.495906 
L 226.756575 115.67864 
L 228.282601 115.465486 
L 231.334653 115.700774 
L 232.86068 115.359317 
L 234.386706 115.660893 
L 235.912732 115.015137 
L 237.438758 114.996841 
L 238.964784 114.800574 
L 240.49081 115.433527 
L 242.016836 114.835736 
L 243.542863 114.915015 
L 245.068889 114.722876 
L 246.594915 115.011295 
L 248.120941 114.560567 
L 249.646967 114.290756 
L 251.172993 114.673562 
L 254.225046 114.430341 
L 257.277098 113.77024 
L 258.803124 113.99872 
L 261.855176 113.933623 
L 263.381202 113.291145 
L 264.907229 113.236304 
L 266.433255 113.442494 
L 269.485307 112.815344 
L 271.011333 112.82173 
L 272.537359 113.058817 
L 275.589412 112.244508 
L 277.115438 112.593963 
L 280.16749 112.321565 
L 283.219542 112.41582 
L 284.745569 111.901941 
L 286.271595 111.919092 
L 287.797621 111.631547 
L 289.323647 111.22678 
L 290.849673 111.321711 
L 293.901725 111.288351 
L 295.427752 111.753638 
L 296.953778 111.920722 
L 298.479804 111.896295 
L 301.531856 111.380827 
L 303.057882 110.947243 
L 304.583908 110.338055 
L 309.161987 109.88461 
L 310.688013 108.95332 
L 312.214039 108.593353 
L 315.266092 108.801869 
L 316.792118 109.011461 
L 318.318144 108.723641 
L 319.84417 108.154764 
L 321.370196 107.918769 
L 324.422248 106.995638 
L 325.948275 106.698438 
L 327.474301 106.57712 
L 329.000327 105.749821 
L 332.052379 104.912143 
L 333.578405 104.683749 
L 335.104431 104.948622 
L 336.630458 104.900358 
L 338.156484 104.716481 
L 339.68251 104.185544 
L 341.208536 104.12835 
L 342.734562 104.194891 
L 344.260588 103.932428 
L 345.786614 103.785431 
L 347.312641 103.829207 
L 348.838667 103.681563 
L 350.364693 103.06077 
L 353.416745 102.597498 
L 354.942771 102.15424 
L 357.994824 101.720901 
L 359.52085 102.061916 
L 361.046876 101.51543 
L 362.572902 101.20402 
L 364.098928 100.446677 
L 365.624954 100.214995 
L 367.150981 99.632805 
L 368.677007 99.574353 
L 374.781111 96.906754 
L 376.307137 96.567717 
L 377.833164 95.986238 
L 379.35919 95.870048 
L 380.885216 95.258264 
L 383.937268 94.33915 
L 385.463294 93.576705 
L 390.041373 92.566601 
L 391.567399 91.795286 
L 393.093425 91.478068 
L 396.145477 89.995855 
L 397.671503 89.745316 
L 399.19753 89.092817 
L 400.723556 89.001098 
L 402.249582 88.724678 
L 403.775608 87.846578 
L 405.301634 87.274035 
L 406.82766 87.111511 
L 409.879713 85.727991 
L 411.405739 85.625906 
L 412.931765 85.722447 
L 414.457791 85.434924 
L 415.983817 84.795061 
L 417.509843 83.984107 
L 419.03587 83.837171 
L 420.561896 83.130152 
L 423.613948 81.908764 
L 425.139974 81.530762 
L 426.666 80.934858 
L 428.192026 80.160481 
L 429.718053 79.643278 
L 431.244079 78.974157 
L 435.822157 77.733073 
L 437.348183 77.621677 
L 438.874209 77.11067 
L 441.926262 76.315977 
L 443.452288 75.493515 
L 444.978314 75.366509 
L 452.608445 71.764016 
L 454.134471 71.362784 
L 455.660497 71.252955 
L 457.186523 70.182195 
L 458.712549 69.874688 
L 460.238576 69.414658 
L 463.290628 67.657365 
L 464.816654 66.939514 
L 467.868706 64.882949 
L 470.920759 62.956557 
L 472.446785 62.581715 
L 473.972811 62.068404 
L 475.498837 61.96859 
L 480.076915 59.977625 
L 481.602942 59.055698 
L 483.128968 58.308578 
L 484.654994 57.778316 
L 486.18102 56.995446 
L 487.707046 55.936217 
L 489.233072 54.609832 
L 490.759099 54.131491 
L 492.285125 52.810008 
L 493.811151 52.270587 
L 495.337177 51.081016 
L 496.863203 50.149373 
L 498.389229 48.979457 
L 499.915255 48.28724 
L 501.441282 46.9441 
L 502.967308 46.397112 
L 504.493334 45.679711 
L 506.01936 44.813562 
L 509.071412 43.667588 
L 512.123465 42.184614 
L 513.649491 41.966541 
L 515.175517 41.346753 
L 518.227569 39.356826 
L 519.753595 39.15853 
L 521.279621 38.131709 
L 522.805648 37.364111 
L 524.331674 36.359842 
L 525.8577 35.215245 
L 528.909752 34.042904 
L 530.435778 33.049158 
L 531.961804 31.866775 
L 533.487831 30.400053 
L 535.013857 29.541459 
L 536.539883 28.398387 
L 538.065909 27.928041 
L 538.065909 27.928041 
" style="fill:none;stroke:#1f77b4;stroke-linecap:square;stroke-width:0.7;"/>
   </g>
   <g id="line2d_17">
    <path clip-path="url(#p32878092fc)" d="M 81.784091 224.547273 
L 83.310117 224.380161 
L 84.836143 223.903364 
L 86.362169 223.604308 
L 87.888196 223.714349 
L 89.414222 223.383248 
L 90.940248 223.442191 
L 92.466274 222.726057 
L 93.9923 221.66341 
L 95.518326 221.445051 
L 97.044352 220.76147 
L 98.570379 220.260036 
L 100.096405 219.641311 
L 103.148457 219.437019 
L 104.674483 219.312378 
L 107.726535 218.852829 
L 109.252562 218.052263 
L 110.778588 218.272116 
L 113.83064 217.121923 
L 116.882692 215.360141 
L 118.408718 214.805787 
L 119.934745 214.007385 
L 121.460771 213.066999 
L 122.986797 212.888239 
L 124.512823 213.117676 
L 126.038849 212.356185 
L 127.564875 211.947587 
L 129.090901 210.885617 
L 130.616928 209.988992 
L 133.66898 207.821852 
L 135.195006 207.044693 
L 136.721032 205.820152 
L 138.247058 204.033368 
L 139.773085 202.795081 
L 141.299111 201.396384 
L 147.403215 194.639991 
L 148.929241 192.935164 
L 150.455268 191.552787 
L 151.981294 189.927354 
L 153.50732 188.67517 
L 159.611424 181.939061 
L 161.137451 179.952408 
L 162.663477 179.003692 
L 165.715529 175.680977 
L 167.241555 173.752059 
L 170.293607 168.267829 
L 171.819634 166.002769 
L 174.871686 160.934335 
L 176.397712 158.330634 
L 177.923738 155.489015 
L 180.975791 150.898633 
L 182.501817 148.537652 
L 185.553869 143.344394 
L 188.605921 138.269468 
L 193.184 133.128171 
L 194.710026 130.970559 
L 196.236052 129.070001 
L 199.288104 125.96132 
L 200.81413 124.290504 
L 202.340157 122.849635 
L 203.866183 121.747942 
L 205.392209 120.48145 
L 208.444261 118.526048 
L 209.970287 117.1236 
L 211.496313 116.338351 
L 213.02234 115.0497 
L 214.548366 114.082116 
L 216.074392 112.480791 
L 220.65247 110.441676 
L 222.178497 109.611599 
L 223.704523 109.109906 
L 226.756575 107.307206 
L 228.282601 106.674715 
L 231.334653 106.225714 
L 232.86068 105.600683 
L 234.386706 105.662577 
L 235.912732 104.805022 
L 237.438758 104.621714 
L 238.964784 104.303656 
L 240.49081 104.861154 
L 242.016836 104.206579 
L 243.542863 104.265019 
L 245.068889 104.080785 
L 246.594915 104.408585 
L 248.120941 104.013645 
L 249.646967 103.828009 
L 251.172993 104.329196 
L 254.225046 104.369623 
L 257.277098 104.061458 
L 258.803124 104.508043 
L 261.855176 104.932256 
L 263.381202 104.554192 
L 264.907229 104.794572 
L 266.433255 105.324857 
L 269.485307 105.402263 
L 271.011333 105.803635 
L 272.537359 106.46317 
L 275.589412 106.547681 
L 277.115438 107.395017 
L 278.641464 107.723898 
L 280.16749 108.178247 
L 283.219542 109.403064 
L 284.745569 109.467969 
L 286.271595 110.084917 
L 289.323647 110.644549 
L 292.375699 112.063936 
L 293.901725 112.776958 
L 295.427752 113.968178 
L 296.953778 114.852879 
L 298.479804 115.524741 
L 301.531856 116.319813 
L 303.057882 116.503314 
L 304.583908 116.493764 
L 309.161987 117.816203 
L 310.688013 117.462023 
L 312.214039 117.695075 
L 315.266092 119.144668 
L 316.792118 119.97917 
L 318.318144 120.298368 
L 319.84417 120.319736 
L 321.370196 120.668711 
L 324.422248 120.90589 
L 325.948275 121.199565 
L 327.474301 121.680728 
L 329.000327 121.46288 
L 332.052379 121.937232 
L 333.578405 122.426061 
L 335.104431 123.451966 
L 338.156484 124.813097 
L 339.68251 125.105243 
L 341.208536 125.898566 
L 342.734562 126.836254 
L 344.260588 127.453707 
L 345.786614 128.195165 
L 347.312641 129.131205 
L 348.838667 129.867351 
L 350.364693 130.115974 
L 353.416745 131.379157 
L 354.942771 131.78665 
L 357.994824 133.036042 
L 359.52085 134.200102 
L 361.046876 134.436553 
L 362.572902 134.873638 
L 364.098928 134.827144 
L 365.624954 135.281708 
L 367.150981 135.354832 
L 368.677007 135.92699 
L 371.729059 135.71675 
L 374.781111 135.489103 
L 376.307137 135.678912 
L 377.833164 135.620318 
L 379.35919 136.02686 
L 380.885216 135.926145 
L 383.937268 136.01437 
L 385.463294 135.749673 
L 390.041373 136.263464 
L 391.567399 135.996992 
L 393.093425 136.192646 
L 396.145477 135.756463 
L 397.671503 136.060893 
L 399.19753 135.981534 
L 400.723556 136.488996 
L 402.249582 136.824959 
L 403.775608 136.565839 
L 405.301634 136.634397 
L 406.82766 137.139808 
L 409.879713 137.150472 
L 411.405739 137.792525 
L 412.931765 138.654795 
L 414.457791 139.133839 
L 415.983817 139.253896 
L 417.509843 139.201387 
L 419.03587 139.823059 
L 420.561896 139.881942 
L 423.613948 140.209151 
L 425.139974 140.621631 
L 426.666 140.82388 
L 428.192026 140.858365 
L 429.718053 141.170455 
L 431.244079 141.351473 
L 435.822157 142.80054 
L 437.348183 143.618787 
L 438.874209 144.037346 
L 441.926262 145.089041 
L 443.452288 145.170472 
L 444.978314 145.941414 
L 452.608445 146.561785 
L 454.134471 146.977146 
L 455.660497 147.670925 
L 457.186523 147.370765 
L 458.712549 147.815617 
L 460.238576 148.07626 
L 464.816654 147.546606 
L 467.868706 146.658684 
L 470.920759 145.887593 
L 472.446785 146.110826 
L 473.972811 146.200528 
L 475.498837 146.701725 
L 480.076915 146.352001 
L 481.602942 145.911233 
L 483.128968 145.614982 
L 484.654994 145.503958 
L 486.18102 145.098899 
L 487.707046 144.374977 
L 489.233072 143.350338 
L 490.759099 143.159299 
L 492.285125 142.098694 
L 493.811151 141.812602 
L 495.337177 140.859082 
L 496.863203 140.160246 
L 498.389229 139.224779 
L 499.915255 138.782603 
L 501.441282 137.701733 
L 502.967308 137.450078 
L 504.493334 137.053025 
L 506.01936 136.530206 
L 509.071412 136.141817 
L 512.123465 135.466804 
L 513.649491 135.66475 
L 515.175517 135.445994 
L 518.227569 134.192877 
L 519.753595 134.341 
L 521.279621 133.623672 
L 522.805648 133.133866 
L 524.331674 132.371186 
L 525.8577 131.435881 
L 528.909752 130.599673 
L 530.435778 129.708705 
L 531.961804 128.583884 
L 533.487831 127.138441 
L 535.013857 126.284628 
L 536.539883 125.12759 
L 538.065909 124.632697 
L 538.065909 124.632697 
" style="fill:none;stroke:#ff7f0e;stroke-linecap:square;stroke-width:0.7;"/>
   </g>
   <g id="legend_1">
    <g id="patch_3">
     <path d="M 68.77 66.42125 
L 140.73875 66.42125 
Q 143.53875 66.42125 143.53875 63.62125 
L 143.53875 24.92 
Q 143.53875 22.12 140.73875 22.12 
L 68.77 22.12 
Q 65.97 22.12 65.97 24.92 
L 65.97 63.62125 
Q 65.97 66.42125 68.77 66.42125 
z
" style="fill:#ffffff;opacity:0.8;stroke:#cccccc;stroke-linejoin:miter;"/>
    </g>
    <g id="line2d_18">
     <path d="M 71.57 32.965625 
L 99.57 32.965625 
" style="fill:none;stroke:#1f77b4;stroke-linecap:square;stroke-width:1.5;"/>
    </g>
    <g id="line2d_19"/>
    <g id="text_16">
     <!-- 5%г -->
     <g transform="translate(110.77 37.865625)scale(0.14 -0.14)">
      <defs>
       <path d="M 69.96875 21.1875 
Q 69.96875 15.09375 68.9375 10.90625 
Q 67.921875 6.734375 66.1875 4.171875 
Q 64.453125 1.609375 62.125 0.5 
Q 59.8125 -0.59375 57.171875 -0.59375 
Q 54.546875 -0.59375 52.21875 0.5 
Q 49.90625 1.609375 48.21875 4.140625 
Q 46.53125 6.6875 45.546875 10.859375 
Q 44.578125 15.046875 44.578125 21.1875 
Q 44.578125 27.6875 45.53125 31.9375 
Q 46.484375 36.1875 48.1875 38.703125 
Q 49.90625 41.21875 52.25 42.21875 
Q 54.59375 43.21875 57.328125 43.21875 
Q 59.96875 43.21875 62.25 42.21875 
Q 64.546875 41.21875 66.25 38.703125 
Q 67.96875 36.1875 68.96875 31.9375 
Q 69.96875 27.6875 69.96875 21.1875 
z
M 21.09375 0 
L 14.890625 0 
L 51.8125 68.796875 
L 58.109375 68.796875 
z
M 15.765625 69.390625 
Q 18.3125 69.390625 20.609375 68.390625 
Q 22.90625 67.390625 24.609375 64.890625 
Q 26.3125 62.40625 27.3125 58.203125 
Q 28.328125 54 28.328125 47.609375 
Q 28.328125 41.453125 27.3125 37.25 
Q 26.3125 33.0625 24.609375 30.4375 
Q 22.90625 27.828125 20.578125 26.703125 
Q 18.265625 25.59375 15.625 25.59375 
Q 12.9375 25.59375 10.609375 26.703125 
Q 8.296875 27.828125 6.59375 30.421875 
Q 4.890625 33.015625 3.90625 37.203125 
Q 2.9375 41.40625 2.9375 47.609375 
Q 2.9375 54 3.90625 58.203125 
Q 4.890625 62.40625 6.609375 64.890625 
Q 8.34375 67.390625 10.6875 68.390625 
Q 13.03125 69.390625 15.765625 69.390625 
z
M 64.0625 21.1875 
Q 64.0625 26.03125 63.625 29.21875 
Q 63.1875 32.421875 62.328125 34.328125 
Q 61.46875 36.234375 60.203125 37.015625 
Q 58.9375 37.796875 57.328125 37.796875 
Q 55.671875 37.796875 54.375 36.984375 
Q 53.078125 36.1875 52.1875 34.28125 
Q 51.3125 32.375 50.875 29.171875 
Q 50.4375 25.984375 50.4375 21.1875 
Q 50.4375 16.546875 50.90625 13.421875 
Q 51.375 10.296875 52.21875 8.375 
Q 53.078125 6.453125 54.34375 5.609375 
Q 55.609375 4.78125 57.234375 4.78125 
Q 58.796875 4.78125 60.0625 5.609375 
Q 61.328125 6.453125 62.203125 8.375 
Q 63.09375 10.296875 63.578125 13.421875 
Q 64.0625 16.546875 64.0625 21.1875 
z
M 22.40625 47.609375 
Q 22.40625 52.390625 21.96875 55.5625 
Q 21.53125 58.734375 20.703125 60.640625 
Q 19.875 62.546875 18.625 63.328125 
Q 17.390625 64.109375 15.765625 64.109375 
Q 14.0625 64.109375 12.734375 63.296875 
Q 11.421875 62.5 10.546875 60.59375 
Q 9.671875 58.6875 9.234375 55.515625 
Q 8.796875 52.34375 8.796875 47.609375 
Q 8.796875 42.96875 9.25 39.796875 
Q 9.71875 36.625 10.5625 34.6875 
Q 11.421875 32.765625 12.71875 31.9375 
Q 14.015625 31.109375 15.671875 31.109375 
Q 17.1875 31.109375 18.421875 31.9375 
Q 19.671875 32.765625 20.546875 34.6875 
Q 21.4375 36.625 21.921875 39.796875 
Q 22.40625 42.96875 22.40625 47.609375 
z
" id="LiberationSansNarrow-37"/>
       <path d="M 27.546875 52.828125 
L 27.546875 46.4375 
L 12.890625 46.4375 
L 12.890625 0 
L 5.71875 0 
L 5.71875 52.828125 
z
" id="LiberationSansNarrow-1075"/>
      </defs>
      <use xlink:href="#LiberationSansNarrow-53"/>
      <use x="45.605469" xlink:href="#LiberationSansNarrow-37"/>
      <use x="118.505859" xlink:href="#LiberationSansNarrow-1075"/>
     </g>
    </g>
    <g id="line2d_20">
     <path d="M 71.57 53.01625 
L 99.57 53.01625 
" style="fill:none;stroke:#ff7f0e;stroke-linecap:square;stroke-width:1.5;"/>
    </g>
    <g id="line2d_21"/>
    <g id="text_17">
     <!-- 50%г -->
     <g transform="translate(110.77 57.91625)scale(0.14 -0.14)">
      <use xlink:href="#LiberationSansNarrow-53"/>
      <use x="45.605469" xlink:href="#LiberationSansNarrow-48"/>
      <use x="91.210938" xlink:href="#LiberationSansNarrow-37"/>
      <use x="164.111328" xlink:href="#LiberationSansNarrow-1075"/>
     </g>
    </g>
   </g>
  </g>
 </g>
 <defs>
  <clipPath id="p32878092fc">
   <rect height="219.4" width="501.91" x="58.97" y="15.12"/>
  </clipPath>
 </defs>
</svg>
