<?xml version="1.0" encoding="utf-8" standalone="no"?>
<!DOCTYPE svg PUBLIC "-//W3C//DTD SVG 1.1//EN"
  "http://www.w3.org/Graphics/SVG/1.1/DTD/svg11.dtd">
<!-- Created with matplotlib (https://matplotlib.org/) -->
<svg height="288pt" version="1.1" viewBox="0 0 576 288" width="576pt" xmlns="http://www.w3.org/2000/svg" xmlns:xlink="http://www.w3.org/1999/xlink">
 <defs>
  <style type="text/css">
*{stroke-linecap:butt;stroke-linejoin:round;}
  </style>
 </defs>
 <g id="figure_1">
  <g id="patch_1">
   <path d="M 0 288 
L 576 288 
L 576 0 
L 0 0 
z
" style="fill:#ffffff;"/>
  </g>
  <g id="axes_1">
   <g id="patch_2">
    <path d="M 62.12 252.2 
L 558.36 252.2 
L 558.36 17.64 
L 62.12 17.64 
z
" style="fill:#ffffff;"/>
   </g>
   <g id="PolyCollection_1">
    <defs>
     <path d="M 84.676364 -78.359231 
L 84.676364 -78.359231 
L 88.404688 -96.278912 
L 92.133013 -99.025424 
L 103.317986 -111.340629 
L 107.046311 -142.663993 
L 110.774636 -145.106263 
L 114.50296 -141.711229 
L 118.231285 -169.853233 
L 129.416258 -176.591151 
L 133.144583 -191.351091 
L 136.872908 -172.096531 
L 140.601232 -223.318188 
L 144.329557 -234.579643 
L 155.51453 -231.21947 
L 159.242855 -207.20821 
L 162.97118 -255.863272 
L 166.699504 -224.237227 
L 170.427829 -209.871007 
L 181.612802 -221.339872 
L 185.341127 -209.679546 
L 189.069452 -179.830582 
L 192.797776 -131.514566 
L 196.526101 -176.08516 
L 207.711074 -160.37316 
L 211.439399 -192.925292 
L 215.167724 -188.124908 
L 218.896048 -138.633752 
L 222.624373 -112.082507 
L 233.809346 -71.894014 
L 237.537671 -66.325755 
L 241.265995 -98.900832 
L 244.99432 -95.14466 
L 248.722645 -53.034018 
L 259.907618 -77.146201 
L 263.635943 -59.108924 
L 267.364267 -123.629383 
L 271.092592 -128.879106 
L 274.820917 -148.968459 
L 289.734215 -186.976202 
L 293.462539 -222.397652 
L 297.190864 -215.560152 
L 300.919189 -177.327118 
L 312.104162 -165.203747 
L 315.832487 -145.940752 
L 319.560811 -150.865159 
L 323.289136 -156.275481 
L 327.017461 -142.886979 
L 338.202434 -146.15785 
L 341.930759 -106.462462 
L 345.659083 -129.054587 
L 349.387408 -141.925861 
L 353.115733 -109.95795 
L 364.300706 -74.009587 
L 368.029031 -107.932231 
L 371.757355 -159.231808 
L 375.48568 -174.113712 
L 379.214005 -169.110712 
L 390.398978 -224.606036 
L 394.127303 -223.002951 
L 397.855627 -229.166832 
L 401.583952 -192.177023 
L 405.312276 -213.881277 
L 416.49725 -174.825408 
L 420.225575 -171.038825 
L 423.953899 -147.920926 
L 427.682224 -155.822441 
L 431.410548 -143.6152 
L 442.595522 -136.485375 
L 446.323847 -126.743402 
L 450.052171 -135.103054 
L 453.780496 -137.406087 
L 457.50882 -128.930395 
L 468.693794 -106.126652 
L 472.422119 -72.939809 
L 476.150443 -96.5773 
L 479.878768 -112.916916 
L 483.607092 -146.858212 
L 487.335417 -159.463103 
L 528.346987 -219.014395 
L 532.075312 -240.089834 
L 535.803636 -250.590915 
L 535.803636 -247.301084 
L 535.803636 -247.301084 
L 532.075312 -235.972824 
L 528.346987 -213.283887 
L 487.335417 -156.437653 
L 483.607092 -144.157021 
L 479.878768 -109.030236 
L 476.150443 -87.103643 
L 472.422119 -66.129681 
L 468.693794 -102.330773 
L 457.50882 -130.930807 
L 453.780496 -137.443892 
L 450.052171 -133.34437 
L 446.323847 -123.909014 
L 442.595522 -133.972697 
L 431.410548 -140.110987 
L 427.682224 -154.589466 
L 423.953899 -145.3869 
L 420.225575 -172.302476 
L 416.49725 -175.191154 
L 405.312276 -213.452141 
L 401.583952 -192.436977 
L 397.855627 -229.137493 
L 394.127303 -226.752863 
L 390.398978 -224.352146 
L 379.214005 -168.412789 
L 375.48568 -175.198265 
L 371.757355 -155.628333 
L 368.029031 -107.440811 
L 364.300706 -72.580238 
L 353.115733 -112.322743 
L 349.387408 -142.545099 
L 345.659083 -129.433884 
L 341.930759 -110.749837 
L 338.202434 -147.349221 
L 327.017461 -146.098677 
L 323.289136 -156.000794 
L 319.560811 -152.775859 
L 315.832487 -148.656638 
L 312.104162 -169.88099 
L 300.919189 -180.682438 
L 297.190864 -219.607205 
L 293.462539 -226.990026 
L 289.734215 -190.521529 
L 274.820917 -152.058679 
L 271.092592 -130.974183 
L 267.364267 -123.445073 
L 263.635943 -62.661275 
L 259.907618 -82.499452 
L 248.722645 -54.766542 
L 244.99432 -99.260069 
L 241.265995 -104.894309 
L 237.537671 -69.179355 
L 233.809346 -72.646734 
L 222.624373 -114.403968 
L 218.896048 -152.811713 
L 215.167724 -189.531462 
L 211.439399 -195.296999 
L 207.711074 -163.817689 
L 196.526101 -179.454446 
L 192.797776 -134.47092 
L 189.069452 -183.710971 
L 185.341127 -212.547648 
L 181.612802 -222.45937 
L 170.427829 -213.052519 
L 166.699504 -228.461366 
L 162.97118 -259.698182 
L 159.242855 -211.734045 
L 155.51453 -236.271733 
L 144.329557 -239.675554 
L 140.601232 -229.562598 
L 136.872908 -177.835193 
L 133.144583 -196.475429 
L 129.416258 -180.838558 
L 118.231285 -175.30493 
L 114.50296 -146.522777 
L 110.774636 -150.458679 
L 107.046311 -148.412444 
L 103.317986 -116.040161 
L 92.133013 -100.759305 
L 88.404688 -97.415958 
L 84.676364 -78.359231 
z
" id="mb47df31aa4" style="stroke:#d62728;"/>
    </defs>
    <g clip-path="url(#p255cfc6536)">
     <use style="fill:#d62728;stroke:#d62728;" x="0" xlink:href="#mb47df31aa4" y="288"/>
    </g>
   </g>
   <g id="matplotlib.axis_1">
    <g id="xtick_1">
     <g id="line2d_1">
      <path clip-path="url(#p255cfc6536)" d="M 155.51453 252.2 
L 155.51453 17.64 
" style="fill:none;stroke:#b0b0b0;stroke-dasharray:1.48,0.64;stroke-dashoffset:0;stroke-width:0.4;"/>
     </g>
     <g id="text_1">
      <!-- 2018-10 -->
      <defs>
       <path d="M 4.109375 0 
L 4.109375 6.203125 
Q 6.15625 11.921875 9.109375 16.28125 
Q 12.0625 20.65625 15.3125 24.1875 
Q 18.5625 27.734375 21.734375 30.765625 
Q 24.90625 33.796875 27.46875 36.8125 
Q 30.03125 39.84375 31.609375 43.15625 
Q 33.203125 46.484375 33.203125 50.6875 
Q 33.203125 53.609375 32.46875 55.828125 
Q 31.734375 58.0625 30.390625 59.5625 
Q 29.046875 61.078125 27.140625 61.828125 
Q 25.25 62.59375 22.90625 62.59375 
Q 20.75 62.59375 18.84375 61.859375 
Q 16.9375 61.140625 15.453125 59.671875 
Q 13.96875 58.203125 13.03125 56.03125 
Q 12.109375 53.859375 11.8125 50.984375 
L 4.4375 51.8125 
Q 4.78125 55.515625 6.125 58.78125 
Q 7.46875 62.0625 9.78125 64.53125 
Q 12.109375 67 15.359375 68.40625 
Q 18.609375 69.828125 22.90625 69.828125 
Q 27.09375 69.828125 30.390625 68.609375 
Q 33.6875 67.390625 35.9375 64.984375 
Q 38.1875 62.59375 39.40625 59.078125 
Q 40.625 55.5625 40.625 50.984375 
Q 40.625 47.515625 39.59375 44.390625 
Q 38.578125 41.265625 36.859375 38.421875 
Q 35.15625 35.59375 32.90625 32.953125 
Q 30.671875 30.328125 28.21875 27.828125 
L 23.296875 22.859375 
Q 20.796875 20.359375 18.625 17.859375 
Q 16.453125 15.375 14.734375 12.8125 
Q 13.03125 10.25 12.0625 7.46875 
L 41.5 7.46875 
L 41.5 0 
z
" id="LiberationSansNarrow-50"/>
       <path d="M 42.390625 34.421875 
Q 42.390625 24.515625 40.84375 17.75 
Q 39.3125 10.984375 36.640625 6.8125 
Q 33.984375 2.640625 30.390625 0.828125 
Q 26.8125 -0.984375 22.703125 -0.984375 
Q 18.609375 -0.984375 15.03125 0.828125 
Q 11.46875 2.640625 8.828125 6.78125 
Q 6.203125 10.9375 4.703125 17.703125 
Q 3.21875 24.46875 3.21875 34.421875 
Q 3.21875 44.828125 4.703125 51.640625 
Q 6.203125 58.453125 8.828125 62.5 
Q 11.46875 66.546875 15.078125 68.1875 
Q 18.703125 69.828125 22.953125 69.828125 
Q 27 69.828125 30.53125 68.1875 
Q 34.078125 66.546875 36.71875 62.5 
Q 39.359375 58.453125 40.875 51.640625 
Q 42.390625 44.828125 42.390625 34.421875 
z
M 35.0625 34.421875 
Q 35.0625 42.625 34.28125 48.0625 
Q 33.5 53.515625 31.9375 56.765625 
Q 30.375 60.015625 28.09375 61.359375 
Q 25.828125 62.703125 22.953125 62.703125 
Q 19.921875 62.703125 17.578125 61.328125 
Q 15.234375 59.96875 13.671875 56.71875 
Q 12.109375 53.46875 11.296875 48.015625 
Q 10.5 42.578125 10.5 34.421875 
Q 10.5 26.515625 11.296875 21.09375 
Q 12.109375 15.671875 13.6875 12.375 
Q 15.28125 9.078125 17.578125 7.640625 
Q 19.875 6.203125 22.796875 6.203125 
Q 25.640625 6.203125 27.90625 7.640625 
Q 30.171875 9.078125 31.75 12.375 
Q 33.34375 15.671875 34.203125 21.09375 
Q 35.0625 26.515625 35.0625 34.421875 
z
" id="LiberationSansNarrow-48"/>
       <path d="M 6.25 0 
L 6.25 7.46875 
L 20.609375 7.46875 
L 20.609375 60.40625 
L 7.90625 49.3125 
L 7.90625 57.625 
L 21.234375 68.796875 
L 27.875 68.796875 
L 27.875 7.46875 
L 41.609375 7.46875 
L 41.609375 0 
z
" id="LiberationSansNarrow-49"/>
       <path d="M 42.046875 19.1875 
Q 42.046875 14.796875 40.890625 11.109375 
Q 39.75 7.421875 37.40625 4.734375 
Q 35.0625 2.046875 31.421875 0.53125 
Q 27.78125 -0.984375 22.796875 -0.984375 
Q 17.828125 -0.984375 14.203125 0.53125 
Q 10.59375 2.046875 8.21875 4.703125 
Q 5.859375 7.375 4.703125 11.0625 
Q 3.5625 14.75 3.5625 19.09375 
Q 3.5625 22.859375 4.515625 25.78125 
Q 5.46875 28.71875 7.03125 30.828125 
Q 8.59375 32.953125 10.609375 34.25 
Q 12.640625 35.546875 14.796875 35.984375 
L 14.796875 36.1875 
Q 12.453125 36.859375 10.59375 38.375 
Q 8.734375 39.890625 7.46875 42.015625 
Q 6.203125 44.140625 5.546875 46.71875 
Q 4.890625 49.3125 4.890625 52.203125 
Q 4.890625 55.8125 6.03125 59 
Q 7.171875 62.203125 9.421875 64.625 
Q 11.671875 67.046875 14.984375 68.4375 
Q 18.3125 69.828125 22.65625 69.828125 
Q 27.25 69.828125 30.640625 68.40625 
Q 34.03125 67 36.25 64.578125 
Q 38.484375 62.15625 39.546875 58.9375 
Q 40.625 55.71875 40.625 52.09375 
Q 40.625 49.265625 39.96875 46.671875 
Q 39.3125 44.09375 38.0625 41.96875 
Q 36.8125 39.84375 34.9375 38.34375 
Q 33.0625 36.859375 30.609375 36.28125 
L 30.609375 36.078125 
Q 33.0625 35.59375 35.15625 34.296875 
Q 37.25 33.015625 38.765625 30.890625 
Q 40.28125 28.765625 41.15625 25.828125 
Q 42.046875 22.90625 42.046875 19.1875 
z
M 33.15625 51.609375 
Q 33.15625 54.203125 32.609375 56.34375 
Q 32.078125 58.5 30.828125 60.03125 
Q 29.59375 61.578125 27.59375 62.421875 
Q 25.59375 63.28125 22.65625 63.28125 
Q 19.828125 63.28125 17.875 62.421875 
Q 15.921875 61.578125 14.640625 60.03125 
Q 13.375 58.5 12.8125 56.34375 
Q 12.25 54.203125 12.25 51.609375 
Q 12.25 49.5625 12.6875 47.40625 
Q 13.140625 45.265625 14.3125 43.5 
Q 15.484375 41.75 17.5 40.625 
Q 19.53125 39.5 22.75 39.5 
Q 26.171875 39.5 28.21875 40.625 
Q 30.28125 41.75 31.375 43.5 
Q 32.46875 45.265625 32.8125 47.40625 
Q 33.15625 49.5625 33.15625 51.609375 
z
M 34.578125 20.015625 
Q 34.578125 22.515625 34.015625 24.828125 
Q 33.453125 27.15625 32.078125 28.9375 
Q 30.71875 30.71875 28.421875 31.8125 
Q 26.125 32.90625 22.65625 32.90625 
Q 19.484375 32.90625 17.265625 31.8125 
Q 15.046875 30.71875 13.671875 28.90625 
Q 12.3125 27.09375 11.671875 24.71875 
Q 11.03125 22.359375 11.03125 19.828125 
Q 11.03125 16.65625 11.671875 14.03125 
Q 12.3125 11.421875 13.703125 9.546875 
Q 15.09375 7.671875 17.375 6.640625 
Q 19.671875 5.609375 22.90625 5.609375 
Q 26.171875 5.609375 28.421875 6.640625 
Q 30.671875 7.671875 32.03125 9.546875 
Q 33.40625 11.421875 33.984375 14.078125 
Q 34.578125 16.75 34.578125 20.015625 
z
" id="LiberationSansNarrow-56"/>
       <path d="M 3.65625 22.65625 
L 3.65625 30.46875 
L 23.640625 30.46875 
L 23.640625 22.65625 
z
" id="LiberationSansNarrow-45"/>
      </defs>
      <g transform="translate(134.447812 269.345625)scale(0.14 -0.14)">
       <use xlink:href="#LiberationSansNarrow-50"/>
       <use x="45.605469" xlink:href="#LiberationSansNarrow-48"/>
       <use x="91.210938" xlink:href="#LiberationSansNarrow-49"/>
       <use x="136.816406" xlink:href="#LiberationSansNarrow-56"/>
       <use x="182.421875" xlink:href="#LiberationSansNarrow-45"/>
       <use x="209.716797" xlink:href="#LiberationSansNarrow-49"/>
       <use x="255.322266" xlink:href="#LiberationSansNarrow-48"/>
      </g>
     </g>
    </g>
    <g id="xtick_2">
     <g id="line2d_2">
      <path clip-path="url(#p255cfc6536)" d="M 271.092592 252.2 
L 271.092592 17.64 
" style="fill:none;stroke:#b0b0b0;stroke-dasharray:1.48,0.64;stroke-dashoffset:0;stroke-width:0.4;"/>
     </g>
     <g id="text_2">
      <!-- 2018-11 -->
      <g transform="translate(250.032436 269.345625)scale(0.14 -0.14)">
       <use xlink:href="#LiberationSansNarrow-50"/>
       <use x="45.605469" xlink:href="#LiberationSansNarrow-48"/>
       <use x="91.210938" xlink:href="#LiberationSansNarrow-49"/>
       <use x="136.816406" xlink:href="#LiberationSansNarrow-56"/>
       <use x="182.421875" xlink:href="#LiberationSansNarrow-45"/>
       <use x="209.716797" xlink:href="#LiberationSansNarrow-49"/>
       <use x="255.228516" xlink:href="#LiberationSansNarrow-49"/>
      </g>
     </g>
    </g>
    <g id="xtick_3">
     <g id="line2d_3">
      <path clip-path="url(#p255cfc6536)" d="M 382.942329 252.2 
L 382.942329 17.64 
" style="fill:none;stroke:#b0b0b0;stroke-dasharray:1.48,0.64;stroke-dashoffset:0;stroke-width:0.4;"/>
     </g>
     <g id="text_3">
      <!-- 2018-12 -->
      <g transform="translate(361.87561 269.345625)scale(0.14 -0.14)">
       <use xlink:href="#LiberationSansNarrow-50"/>
       <use x="45.605469" xlink:href="#LiberationSansNarrow-48"/>
       <use x="91.210938" xlink:href="#LiberationSansNarrow-49"/>
       <use x="136.816406" xlink:href="#LiberationSansNarrow-56"/>
       <use x="182.421875" xlink:href="#LiberationSansNarrow-45"/>
       <use x="209.716797" xlink:href="#LiberationSansNarrow-49"/>
       <use x="255.322266" xlink:href="#LiberationSansNarrow-50"/>
      </g>
     </g>
    </g>
    <g id="xtick_4">
     <g id="line2d_4">
      <path clip-path="url(#p255cfc6536)" d="M 498.520391 252.2 
L 498.520391 17.64 
" style="fill:none;stroke:#b0b0b0;stroke-dasharray:1.48,0.64;stroke-dashoffset:0;stroke-width:0.4;"/>
     </g>
     <g id="text_4">
      <!-- 2019-01 -->
      <defs>
       <path d="M 41.703125 35.796875 
Q 41.703125 26.609375 40.28125 19.703125 
Q 38.875 12.796875 36.234375 8.203125 
Q 33.59375 3.609375 29.8125 1.3125 
Q 26.03125 -0.984375 21.296875 -0.984375 
Q 18.0625 -0.984375 15.453125 -0.171875 
Q 12.84375 0.640625 10.8125 2.34375 
Q 8.796875 4.046875 7.328125 6.78125 
Q 5.859375 9.515625 4.984375 13.375 
L 11.921875 14.703125 
Q 13.03125 10.25 15.40625 8.171875 
Q 17.78125 6.109375 21.4375 6.109375 
Q 24.359375 6.109375 26.78125 7.78125 
Q 29.203125 9.46875 30.875 12.84375 
Q 32.5625 16.21875 33.546875 21.296875 
Q 34.46875 26.375 34.578125 33.203125 
Q 33.734375 30.90625 32.265625 29.09375 
Q 30.8125 27.296875 28.953125 26.046875 
Q 27.09375 24.8125 24.9375 24.140625 
Q 22.796875 23.484375 20.5625 23.484375 
Q 16.703125 23.484375 13.625 25.171875 
Q 10.546875 26.859375 8.375 29.875 
Q 6.203125 32.90625 5.03125 37.171875 
Q 3.859375 41.453125 3.859375 46.6875 
Q 3.859375 52 5.09375 56.296875 
Q 6.34375 60.59375 8.765625 63.59375 
Q 11.1875 66.609375 14.671875 68.21875 
Q 18.171875 69.828125 22.609375 69.828125 
Q 32.03125 69.828125 36.859375 61.328125 
Q 41.703125 52.828125 41.703125 35.796875 
z
M 33.890625 44.28125 
Q 33.890625 48.09375 33.125 51.453125 
Q 32.375 54.828125 30.9375 57.3125 
Q 29.5 59.8125 27.34375 61.25 
Q 25.203125 62.703125 22.359375 62.703125 
Q 19.78125 62.703125 17.703125 61.578125 
Q 15.625 60.453125 14.1875 58.375 
Q 12.75 56.296875 11.96875 53.3125 
Q 11.1875 50.34375 11.1875 46.6875 
Q 11.1875 43.21875 11.859375 40.234375 
Q 12.546875 37.25 13.953125 35.078125 
Q 15.375 32.90625 17.453125 31.65625 
Q 19.53125 30.421875 22.3125 30.421875 
Q 24.3125 30.421875 26.359375 31.25 
Q 28.421875 32.078125 30.078125 33.78125 
Q 31.734375 35.5 32.8125 38.109375 
Q 33.890625 40.71875 33.890625 44.28125 
z
" id="LiberationSansNarrow-57"/>
      </defs>
      <g transform="translate(477.453672 269.345625)scale(0.14 -0.14)">
       <use xlink:href="#LiberationSansNarrow-50"/>
       <use x="45.605469" xlink:href="#LiberationSansNarrow-48"/>
       <use x="91.210938" xlink:href="#LiberationSansNarrow-49"/>
       <use x="136.816406" xlink:href="#LiberationSansNarrow-57"/>
       <use x="182.421875" xlink:href="#LiberationSansNarrow-45"/>
       <use x="209.716797" xlink:href="#LiberationSansNarrow-48"/>
       <use x="255.322266" xlink:href="#LiberationSansNarrow-49"/>
      </g>
     </g>
    </g>
   </g>
   <g id="matplotlib.axis_2">
    <g id="ytick_1">
     <g id="line2d_5">
      <path clip-path="url(#p255cfc6536)" d="M 62.12 209.640769 
L 558.36 209.640769 
" style="fill:none;stroke:#b0b0b0;stroke-dasharray:1.48,0.64;stroke-dashoffset:0;stroke-width:0.4;"/>
     </g>
     <g id="text_5">
      <!-- 0.00 -->
      <defs>
       <path d="M 7.46875 0 
L 7.46875 10.6875 
L 15.328125 10.6875 
L 15.328125 0 
z
" id="LiberationSansNarrow-46"/>
      </defs>
      <g transform="translate(32.7725 214.713581)scale(0.14 -0.14)">
       <use xlink:href="#LiberationSansNarrow-48"/>
       <use x="45.605469" xlink:href="#LiberationSansNarrow-46"/>
       <use x="68.408203" xlink:href="#LiberationSansNarrow-48"/>
       <use x="114.013672" xlink:href="#LiberationSansNarrow-48"/>
      </g>
     </g>
    </g>
    <g id="ytick_2">
     <g id="line2d_6">
      <path clip-path="url(#p255cfc6536)" d="M 62.12 156.012398 
L 558.36 156.012398 
" style="fill:none;stroke:#b0b0b0;stroke-dasharray:1.48,0.64;stroke-dashoffset:0;stroke-width:0.4;"/>
     </g>
     <g id="text_6">
      <!-- 0.02 -->
      <g transform="translate(32.7725 161.085211)scale(0.14 -0.14)">
       <use xlink:href="#LiberationSansNarrow-48"/>
       <use x="45.605469" xlink:href="#LiberationSansNarrow-46"/>
       <use x="68.408203" xlink:href="#LiberationSansNarrow-48"/>
       <use x="114.013672" xlink:href="#LiberationSansNarrow-50"/>
      </g>
     </g>
    </g>
    <g id="ytick_3">
     <g id="line2d_7">
      <path clip-path="url(#p255cfc6536)" d="M 62.12 102.384028 
L 558.36 102.384028 
" style="fill:none;stroke:#b0b0b0;stroke-dasharray:1.48,0.64;stroke-dashoffset:0;stroke-width:0.4;"/>
     </g>
     <g id="text_7">
      <!-- 0.04 -->
      <defs>
       <path d="M 35.25 15.578125 
L 35.25 0 
L 28.46875 0 
L 28.46875 15.578125 
L 1.90625 15.578125 
L 1.90625 22.40625 
L 27.6875 68.796875 
L 35.25 68.796875 
L 35.25 22.515625 
L 43.21875 22.515625 
L 43.21875 15.578125 
z
M 28.46875 58.890625 
Q 28.375 58.640625 28.03125 57.90625 
L 27.34375 56.34375 
L 26.5625 54.59375 
Q 26.125 53.65625 25.78125 53.078125 
L 11.328125 27.09375 
Q 11.140625 26.703125 10.75 26.078125 
L 9.96875 24.8125 
L 9.1875 23.484375 
Q 8.796875 22.859375 8.546875 22.515625 
L 28.46875 22.515625 
z
" id="LiberationSansNarrow-52"/>
      </defs>
      <g transform="translate(32.7725 107.45684)scale(0.14 -0.14)">
       <use xlink:href="#LiberationSansNarrow-48"/>
       <use x="45.605469" xlink:href="#LiberationSansNarrow-46"/>
       <use x="68.408203" xlink:href="#LiberationSansNarrow-48"/>
       <use x="114.013672" xlink:href="#LiberationSansNarrow-52"/>
      </g>
     </g>
    </g>
    <g id="ytick_4">
     <g id="line2d_8">
      <path clip-path="url(#p255cfc6536)" d="M 62.12 48.755657 
L 558.36 48.755657 
" style="fill:none;stroke:#b0b0b0;stroke-dasharray:1.48,0.64;stroke-dashoffset:0;stroke-width:0.4;"/>
     </g>
     <g id="text_8">
      <!-- 0.06 -->
      <defs>
       <path d="M 42 22.515625 
Q 42 17.328125 40.828125 13 
Q 39.65625 8.6875 37.359375 5.578125 
Q 35.0625 2.484375 31.640625 0.75 
Q 28.21875 -0.984375 23.78125 -0.984375 
Q 18.84375 -0.984375 15.15625 1.3125 
Q 11.46875 3.609375 9.03125 7.921875 
Q 6.59375 12.25 5.375 18.53125 
Q 4.15625 24.8125 4.15625 32.8125 
Q 4.15625 42 5.546875 48.921875 
Q 6.9375 55.859375 9.515625 60.5 
Q 12.109375 65.140625 15.859375 67.484375 
Q 19.625 69.828125 24.359375 69.828125 
Q 27.25 69.828125 29.765625 69.09375 
Q 32.28125 68.359375 34.328125 66.71875 
Q 36.375 65.09375 37.9375 62.40625 
Q 39.5 59.71875 40.4375 55.8125 
L 33.546875 54.296875 
Q 32.421875 58.734375 29.953125 60.71875 
Q 27.484375 62.703125 24.265625 62.703125 
Q 21.296875 62.703125 18.890625 60.984375 
Q 16.5 59.28125 14.8125 55.875 
Q 13.140625 52.484375 12.234375 47.359375 
Q 11.328125 42.234375 11.328125 35.40625 
Q 13.28125 39.84375 16.84375 42.15625 
Q 20.40625 44.484375 25.046875 44.484375 
Q 28.90625 44.484375 32 42.96875 
Q 35.109375 41.453125 37.328125 38.59375 
Q 39.546875 35.75 40.765625 31.671875 
Q 42 27.59375 42 22.515625 
z
M 34.671875 22.125 
Q 34.671875 25.6875 33.953125 28.5625 
Q 33.25 31.453125 31.8125 33.46875 
Q 30.375 35.5 28.25 36.59375 
Q 26.125 37.703125 23.296875 37.703125 
Q 21.34375 37.703125 19.328125 36.984375 
Q 17.328125 36.28125 15.71875 34.6875 
Q 14.109375 33.109375 13.078125 30.515625 
Q 12.0625 27.9375 12.0625 24.21875 
Q 12.0625 20.40625 12.859375 17.109375 
Q 13.671875 13.8125 15.15625 11.375 
Q 16.65625 8.9375 18.78125 7.515625 
Q 20.90625 6.109375 23.53125 6.109375 
Q 26.125 6.109375 28.203125 7.203125 
Q 30.28125 8.296875 31.71875 10.375 
Q 33.15625 12.453125 33.90625 15.421875 
Q 34.671875 18.40625 34.671875 22.125 
z
" id="LiberationSansNarrow-54"/>
      </defs>
      <g transform="translate(32.7725 53.82847)scale(0.14 -0.14)">
       <use xlink:href="#LiberationSansNarrow-48"/>
       <use x="45.605469" xlink:href="#LiberationSansNarrow-46"/>
       <use x="68.408203" xlink:href="#LiberationSansNarrow-48"/>
       <use x="114.013672" xlink:href="#LiberationSansNarrow-54"/>
      </g>
     </g>
    </g>
    <g id="text_9">
     <!-- логарифм относительной цены -->
     <defs>
      <path d="M 34.859375 0 
L 34.859375 46.4375 
L 19.875 46.4375 
Q 18.890625 37.453125 18.03125 30.4375 
Q 17.1875 23.4375 16.3125 18.15625 
Q 15.4375 12.890625 14.40625 9.25 
Q 13.375 5.609375 11.953125 3.34375 
Q 10.546875 1.078125 8.65625 0.046875 
Q 6.78125 -0.984375 4.203125 -0.984375 
Q 3.03125 -0.984375 2.078125 -0.78125 
Q 1.125 -0.59375 0.4375 -0.34375 
L 0.4375 5.953125 
Q 0.875 5.765625 1.625 5.640625 
Q 2.390625 5.515625 3.171875 5.515625 
Q 4.59375 5.515625 5.59375 6.53125 
Q 6.59375 7.5625 7.390625 9.859375 
Q 8.203125 12.15625 8.859375 15.796875 
Q 9.515625 19.4375 10.203125 24.703125 
Q 10.890625 29.984375 11.625 36.921875 
L 13.375 52.828125 
L 42.140625 52.828125 
L 42.140625 0 
z
" id="LiberationSansNarrow-1083"/>
      <path d="M 42.140625 26.46875 
Q 42.140625 12.59375 37.125 5.796875 
Q 32.125 -0.984375 22.609375 -0.984375 
Q 18.0625 -0.984375 14.515625 0.671875 
Q 10.984375 2.34375 8.515625 5.765625 
Q 6.0625 9.1875 4.765625 14.328125 
Q 3.46875 19.484375 3.46875 26.46875 
Q 3.46875 53.8125 22.859375 53.8125 
Q 27.875 53.8125 31.5625 52.09375 
Q 35.25 50.390625 37.59375 46.96875 
Q 39.9375 43.5625 41.03125 38.421875 
Q 42.140625 33.296875 42.140625 26.46875 
z
M 34.578125 26.46875 
Q 34.578125 32.625 33.8125 36.625 
Q 33.0625 40.625 31.546875 43.015625 
Q 30.03125 45.40625 27.859375 46.359375 
Q 25.6875 47.3125 23 47.3125 
Q 20.21875 47.3125 17.984375 46.3125 
Q 15.765625 45.3125 14.203125 42.890625 
Q 12.640625 40.484375 11.828125 36.46875 
Q 11.03125 32.46875 11.03125 26.46875 
Q 11.03125 20.3125 11.90625 16.28125 
Q 12.796875 12.25 14.328125 9.859375 
Q 15.875 7.46875 17.96875 6.484375 
Q 20.0625 5.515625 22.5625 5.515625 
Q 25.34375 5.515625 27.5625 6.46875 
Q 29.78125 7.421875 31.34375 9.8125 
Q 32.90625 12.203125 33.734375 16.25 
Q 34.578125 20.3125 34.578125 26.46875 
z
" id="LiberationSansNarrow-1086"/>
      <path d="M 27.546875 52.828125 
L 27.546875 46.4375 
L 12.890625 46.4375 
L 12.890625 0 
L 5.71875 0 
L 5.71875 52.828125 
z
" id="LiberationSansNarrow-1075"/>
      <path d="M 16.546875 -0.984375 
Q 10.015625 -0.984375 6.734375 3.21875 
Q 3.46875 7.421875 3.46875 14.75 
Q 3.46875 19.96875 5.09375 23.3125 
Q 6.734375 26.65625 9.34375 28.5625 
Q 11.96875 30.46875 15.328125 31.203125 
Q 18.703125 31.9375 22.171875 32.03125 
L 31.9375 32.234375 
L 31.9375 35.109375 
Q 31.9375 38.375 31.375 40.671875 
Q 30.8125 42.96875 29.640625 44.375 
Q 28.46875 45.796875 26.734375 46.453125 
Q 25 47.125 22.609375 47.125 
Q 20.515625 47.125 18.84375 46.75 
Q 17.1875 46.390625 15.9375 45.4375 
Q 14.703125 44.484375 13.9375 42.84375 
Q 13.1875 41.21875 12.9375 38.71875 
L 5.421875 39.546875 
Q 5.8125 42.671875 6.9375 45.28125 
Q 8.0625 47.90625 10.109375 49.796875 
Q 12.15625 51.703125 15.25 52.75 
Q 18.359375 53.8125 22.796875 53.8125 
Q 30.953125 53.8125 35.078125 49.234375 
Q 39.203125 44.671875 39.203125 36.03125 
L 39.203125 13.28125 
Q 39.203125 9.375 40.03125 7.390625 
Q 40.875 5.421875 43.265625 5.421875 
Q 43.84375 5.421875 44.453125 5.515625 
Q 45.0625 5.609375 45.609375 5.765625 
L 45.609375 0.296875 
Q 44.234375 -0.09375 42.890625 -0.28125 
Q 41.546875 -0.484375 40.046875 -0.484375 
Q 37.984375 -0.484375 36.515625 0.171875 
Q 35.0625 0.828125 34.15625 2.171875 
Q 33.25 3.515625 32.765625 5.484375 
Q 32.28125 7.46875 32.125 10.109375 
L 31.9375 10.109375 
Q 30.765625 7.5625 29.375 5.515625 
Q 27.984375 3.46875 26.140625 2.03125 
Q 24.3125 0.59375 21.9375 -0.1875 
Q 19.578125 -0.984375 16.546875 -0.984375 
z
M 18.21875 5.609375 
Q 21.6875 5.609375 24.25 7.140625 
Q 26.8125 8.6875 28.515625 11.078125 
Q 30.21875 13.484375 31.078125 16.3125 
Q 31.9375 19.140625 31.9375 21.734375 
L 31.9375 26.078125 
L 24.03125 25.875 
Q 21.390625 25.828125 19 25.40625 
Q 16.609375 25 14.8125 23.78125 
Q 13.03125 22.5625 11.953125 20.359375 
Q 10.890625 18.171875 10.890625 14.59375 
Q 10.890625 10.296875 12.796875 7.953125 
Q 14.703125 5.609375 18.21875 5.609375 
z
" id="LiberationSansNarrow-1072"/>
      <path d="M 42.140625 26.65625 
Q 42.140625 20.65625 41.359375 15.578125 
Q 40.578125 10.5 38.6875 6.828125 
Q 36.8125 3.171875 33.765625 1.09375 
Q 30.71875 -0.984375 26.21875 -0.984375 
Q 21.578125 -0.984375 18.078125 1.171875 
Q 14.59375 3.328125 12.796875 8.203125 
L 12.546875 8.203125 
Q 12.59375 8.109375 12.609375 7.328125 
Q 12.640625 6.546875 12.671875 5.375 
Q 12.703125 4.203125 12.71875 2.75 
Q 12.75 1.3125 12.75 -0.09375 
L 12.75 -20.75 
L 5.515625 -20.75 
L 5.515625 42.046875 
Q 5.515625 43.953125 5.484375 45.703125 
Q 5.46875 47.46875 5.4375 48.90625 
Q 5.421875 50.34375 5.375 51.359375 
Q 5.328125 52.390625 5.28125 52.828125 
L 12.25 52.828125 
Q 12.3125 52.6875 12.359375 51.8125 
L 12.5 49.703125 
Q 12.546875 48.4375 12.59375 47.015625 
Q 12.640625 45.609375 12.640625 44.34375 
L 12.796875 44.34375 
Q 13.765625 46.875 15.0625 48.65625 
Q 16.359375 50.4375 18.015625 51.578125 
Q 19.671875 52.734375 21.671875 53.25 
Q 23.6875 53.765625 26.21875 53.765625 
Q 30.71875 53.765625 33.765625 51.8125 
Q 36.8125 49.859375 38.6875 46.3125 
Q 40.578125 42.78125 41.359375 37.765625 
Q 42.140625 32.765625 42.140625 26.65625 
z
M 34.578125 26.46875 
Q 34.578125 31.34375 34.109375 35.15625 
Q 33.640625 38.96875 32.4375 41.59375 
Q 31.25 44.234375 29.296875 45.59375 
Q 27.34375 46.96875 24.359375 46.96875 
Q 21.96875 46.96875 19.84375 46.140625 
Q 17.71875 45.3125 16.125 42.96875 
Q 14.546875 40.625 13.640625 36.5 
Q 12.75 32.375 12.75 25.78125 
Q 12.75 20.171875 13.5 16.28125 
Q 14.265625 12.40625 15.71875 10.015625 
Q 17.1875 7.625 19.328125 6.5625 
Q 21.484375 5.515625 24.3125 5.515625 
Q 27.34375 5.515625 29.296875 6.921875 
Q 31.25 8.34375 32.4375 11.03125 
Q 33.640625 13.71875 34.109375 17.59375 
Q 34.578125 21.484375 34.578125 26.46875 
z
" id="LiberationSansNarrow-1088"/>
      <path d="M 12.640625 52.828125 
L 12.640625 23.921875 
Q 12.640625 22.796875 12.59375 20.921875 
Q 12.546875 19.046875 12.46875 17.046875 
Q 12.40625 15.046875 12.359375 13.234375 
Q 12.3125 11.421875 12.25 10.40625 
L 32.28125 52.828125 
L 40.140625 52.828125 
L 40.140625 0 
L 33.25 0 
L 33.25 32.234375 
Q 33.25 33.15625 33.296875 34.578125 
L 33.40625 37.40625 
Q 33.453125 38.875 33.5 40.234375 
L 33.640625 42.625 
L 13.375 0 
L 5.71875 0 
L 5.71875 52.828125 
z
" id="LiberationSansNarrow-1080"/>
      <path d="M 64.015625 26.65625 
Q 64.015625 20.65625 63.234375 15.578125 
Q 62.453125 10.5 60.734375 6.828125 
Q 59.03125 3.171875 56.21875 1.09375 
Q 53.421875 -0.984375 49.359375 -0.984375 
Q 45.171875 -0.984375 42.015625 1.171875 
Q 38.875 3.328125 37.15625 8.203125 
L 36.921875 8.203125 
Q 37.015625 6.5 37.0625 4.609375 
Q 37.109375 2.734375 37.109375 -0.09375 
L 37.109375 -20.75 
L 30.328125 -20.75 
L 30.328125 -0.09375 
Q 30.328125 2.546875 30.375 4.546875 
Q 30.421875 6.546875 30.515625 8.5 
L 30.328125 8.5 
Q 28.46875 3.421875 25.484375 1.21875 
Q 22.515625 -0.984375 18.0625 -0.984375 
Q 10.59375 -0.984375 7.03125 5.734375 
Q 3.46875 12.453125 3.46875 26.171875 
Q 3.46875 40.046875 7.15625 46.921875 
Q 10.84375 53.8125 18.0625 53.8125 
Q 22.5625 53.8125 25.53125 51.609375 
Q 28.515625 49.421875 30.328125 44.625 
L 30.515625 44.625 
Q 30.515625 45.125 30.46875 46.125 
Q 30.421875 47.125 30.375 48.25 
L 30.375 50.390625 
Q 30.328125 51.421875 30.328125 52 
L 30.328125 72.46875 
L 37.109375 72.46875 
L 37.109375 51.953125 
Q 37.109375 51.421875 37.078125 50.359375 
Q 37.0625 49.3125 37.0625 48.15625 
Q 37.0625 47.015625 37.03125 45.96875 
Q 37.015625 44.921875 37.015625 44.34375 
L 37.203125 44.34375 
Q 39.0625 49.421875 41.9375 51.59375 
Q 44.828125 53.765625 49.359375 53.765625 
Q 53.421875 53.765625 56.21875 51.8125 
Q 59.03125 49.859375 60.734375 46.3125 
Q 62.453125 42.78125 63.234375 37.765625 
Q 64.015625 32.765625 64.015625 26.65625 
z
M 11.03125 26.46875 
Q 11.03125 21 11.546875 17.09375 
Q 12.0625 13.1875 13.1875 10.671875 
Q 14.3125 8.15625 16.015625 6.984375 
Q 17.71875 5.8125 20.125 5.8125 
Q 22.515625 5.8125 24.390625 6.859375 
Q 26.265625 7.90625 27.5625 10.296875 
Q 28.859375 12.703125 29.53125 16.53125 
Q 30.21875 20.359375 30.328125 25.875 
L 30.328125 27.046875 
Q 30.328125 32.671875 29.640625 36.546875 
Q 28.953125 40.4375 27.65625 42.828125 
Q 26.375 45.21875 24.484375 46.265625 
Q 22.609375 47.3125 20.171875 47.3125 
Q 17.875 47.3125 16.15625 46.1875 
Q 14.453125 45.0625 13.296875 42.578125 
Q 12.15625 40.09375 11.59375 36.109375 
Q 11.03125 32.125 11.03125 26.46875 
z
M 56.453125 26.46875 
Q 56.453125 31.34375 55.984375 35.15625 
Q 55.515625 38.96875 54.46875 41.59375 
Q 53.421875 44.234375 51.65625 45.59375 
Q 49.90625 46.96875 47.3125 46.96875 
Q 45.21875 46.96875 43.375 46.140625 
Q 41.546875 45.3125 40.125 42.96875 
Q 38.71875 40.625 37.90625 36.5 
Q 37.109375 32.375 37.109375 25.78125 
L 37.109375 24.65625 
Q 37.15625 19.390625 37.859375 15.71875 
Q 38.578125 12.0625 39.859375 9.78125 
Q 41.15625 7.515625 43.015625 6.515625 
Q 44.875 5.515625 47.265625 5.515625 
Q 49.859375 5.515625 51.609375 6.921875 
Q 53.375 8.34375 54.4375 11.03125 
Q 55.515625 13.71875 55.984375 17.59375 
Q 56.453125 21.484375 56.453125 26.46875 
z
" id="LiberationSansNarrow-1092"/>
      <path d="M 31.546875 0 
L 25.390625 0 
L 12.40625 46.4375 
Q 12.453125 45.171875 12.515625 43.703125 
Q 12.59375 42.234375 12.59375 40.75 
Q 12.59375 39.265625 12.609375 37.859375 
Q 12.640625 36.46875 12.640625 35.359375 
L 12.640625 0 
L 5.671875 0 
L 5.671875 52.828125 
L 16.890625 52.828125 
L 25.734375 20.5625 
Q 26.65625 17.484375 27.390625 13.796875 
Q 28.125 10.109375 28.421875 6.59375 
Q 28.8125 10.109375 29.515625 13.796875 
Q 30.21875 17.484375 31.15625 20.5625 
L 39.984375 52.828125 
L 50.734375 52.828125 
L 50.734375 0 
L 43.796875 0 
L 43.796875 35.359375 
Q 43.796875 36.421875 43.8125 37.890625 
Q 43.84375 39.359375 43.921875 40.921875 
Q 44 42.484375 44.015625 43.9375 
Q 44.046875 45.40625 44.140625 46.53125 
z
" id="LiberationSansNarrow-1084"/>
      <path id="LiberationSansNarrow-32"/>
      <path d="M 1.421875 52.828125 
L 36.140625 52.828125 
L 36.140625 46.4375 
L 22.359375 46.4375 
L 22.359375 0 
L 15.1875 0 
L 15.1875 46.4375 
L 1.421875 46.4375 
z
" id="LiberationSansNarrow-1090"/>
      <path d="M 12.890625 52.828125 
L 12.890625 30.46875 
L 32.375 30.46875 
L 32.375 52.828125 
L 39.59375 52.828125 
L 39.59375 0 
L 32.375 0 
L 32.375 24.078125 
L 12.890625 24.078125 
L 12.890625 0 
L 5.671875 0 
L 5.671875 52.828125 
z
" id="LiberationSansNarrow-1085"/>
      <path d="M 11.03125 26.65625 
Q 11.03125 22.125 11.5625 18.3125 
Q 12.109375 14.5 13.375 11.734375 
Q 14.65625 8.984375 16.75 7.46875 
Q 18.84375 5.953125 21.96875 5.953125 
Q 25.828125 5.953125 28.390625 8.484375 
Q 30.953125 11.03125 31.546875 16.3125 
L 38.875 15.71875 
Q 38.53125 12.453125 37.296875 9.421875 
Q 36.078125 6.390625 34.03125 4.09375 
Q 31.984375 1.8125 29 0.40625 
Q 26.03125 -0.984375 22.171875 -0.984375 
Q 17.09375 -0.984375 13.5 1.109375 
Q 9.90625 3.21875 7.6875 6.90625 
Q 5.46875 10.59375 4.46875 15.59375 
Q 3.46875 20.609375 3.46875 26.46875 
Q 3.46875 31.78125 4.203125 35.859375 
Q 4.9375 39.9375 6.21875 42.984375 
Q 7.515625 46.046875 9.265625 48.125 
Q 11.03125 50.203125 13.109375 51.4375 
Q 15.1875 52.6875 17.453125 53.25 
Q 19.734375 53.8125 22.078125 53.8125 
Q 25.734375 53.8125 28.5625 52.59375 
Q 31.390625 51.375 33.46875 49.25 
Q 35.546875 47.125 36.8125 44.234375 
Q 38.09375 41.359375 38.625 38.03125 
L 31.203125 37.359375 
Q 30.671875 41.75 28.375 44.328125 
Q 26.078125 46.921875 21.875 46.921875 
Q 18.796875 46.921875 16.71875 45.671875 
Q 14.65625 44.4375 13.375 41.921875 
Q 12.109375 39.40625 11.5625 35.59375 
Q 11.03125 31.78125 11.03125 26.65625 
z
" id="LiberationSansNarrow-1089"/>
      <path d="M 10.6875 24.5625 
Q 10.6875 20.40625 11.5625 16.90625 
Q 12.453125 13.421875 13.90625 10.90625 
Q 15.375 8.40625 17.640625 7 
Q 19.921875 5.609375 23.140625 5.609375 
Q 27.828125 5.609375 30.65625 7.90625 
Q 33.5 10.203125 34.46875 13.71875 
L 40.828125 11.53125 
Q 40.140625 9.328125 38.921875 7.109375 
Q 37.703125 4.890625 35.640625 3.09375 
Q 33.59375 1.3125 30.53125 0.15625 
Q 27.484375 -0.984375 23.140625 -0.984375 
Q 13.53125 -0.984375 8.5 6 
Q 3.46875 12.984375 3.46875 26.765625 
Q 3.46875 34.1875 5 39.328125 
Q 6.546875 44.484375 9.171875 47.703125 
Q 11.8125 50.921875 15.328125 52.359375 
Q 18.84375 53.8125 22.859375 53.8125 
Q 28.328125 53.8125 31.984375 51.65625 
Q 39.0625 47.515625 41.015625 36.8125 
Q 41.9375 31.6875 41.9375 25.734375 
L 41.9375 24.5625 
z
M 34.71875 31.296875 
Q 34.71875 40.140625 31.421875 43.71875 
Q 28.125 47.3125 22.75 47.3125 
Q 18.953125 47.3125 15.328125 44.09375 
Q 10.9375 40.328125 10.6875 31.296875 
z
" id="LiberationSansNarrow-1077"/>
      <path d="M 22.75 30.46875 
Q 30.953125 30.46875 35.15625 26.875 
Q 39.359375 23.296875 39.359375 15.53125 
Q 39.359375 11.921875 38.296875 9.03125 
Q 37.25 6.15625 35.171875 4.15625 
Q 33.109375 2.15625 30 1.078125 
Q 26.90625 0 22.796875 0 
L 5.671875 0 
L 5.671875 52.828125 
L 12.890625 52.828125 
L 12.890625 30.46875 
z
M 12.890625 6.203125 
L 21.6875 6.203125 
Q 24.46875 6.203125 26.390625 6.8125 
Q 28.328125 7.421875 29.5 8.609375 
Q 30.671875 9.8125 31.171875 11.546875 
Q 31.6875 13.28125 31.6875 15.53125 
Q 31.6875 20.125 29.359375 22.234375 
Q 27.046875 24.359375 21.734375 24.359375 
L 12.890625 24.359375 
z
" id="LiberationSansNarrow-1100"/>
      <path d="M 12.640625 52.828125 
L 12.640625 23.921875 
Q 12.640625 22.796875 12.59375 20.921875 
Q 12.546875 19.046875 12.46875 17.046875 
Q 12.40625 15.046875 12.359375 13.234375 
Q 12.3125 11.421875 12.25 10.40625 
L 32.28125 52.828125 
L 40.140625 52.828125 
L 40.140625 0 
L 33.25 0 
L 33.25 32.234375 
Q 33.25 33.15625 33.296875 34.578125 
L 33.40625 37.40625 
Q 33.453125 38.875 33.5 40.234375 
L 33.640625 42.625 
L 13.375 0 
L 5.71875 0 
L 5.71875 52.828125 
z
M 25.046875 58.59375 
Q 20.609375 58.59375 17.765625 59.984375 
Q 14.9375 61.375 13.328125 63.59375 
Q 11.71875 65.828125 11.078125 68.625 
Q 10.453125 71.4375 10.359375 74.21875 
L 16.890625 74.21875 
Q 17.140625 69.1875 19.234375 66.84375 
Q 21.34375 64.5 25.046875 64.5 
Q 28.765625 64.5 30.828125 66.84375 
Q 32.90625 69.1875 33.15625 74.21875 
L 39.75 74.21875 
Q 39.65625 71.4375 39.015625 68.625 
Q 38.375 65.828125 36.734375 63.59375 
Q 35.109375 61.375 32.296875 59.984375 
Q 29.5 58.59375 25.046875 58.59375 
z
" id="LiberationSansNarrow-1081"/>
      <path d="M 12.890625 52.828125 
L 12.890625 6.390625 
L 31.984375 6.390625 
L 31.984375 52.828125 
L 39.203125 52.828125 
L 39.203125 6.390625 
L 45.0625 6.390625 
L 45.0625 -19.921875 
L 38.578125 -19.921875 
L 38.578125 0 
L 5.671875 0 
L 5.671875 52.828125 
z
" id="LiberationSansNarrow-1094"/>
      <path d="M 22.796875 30.46875 
Q 31.296875 30.46875 35.640625 26.875 
Q 39.984375 23.296875 39.984375 15.53125 
Q 39.984375 11.921875 38.90625 9.03125 
Q 37.84375 6.15625 35.671875 4.15625 
Q 33.5 2.15625 30.296875 1.078125 
Q 27.09375 0 22.859375 0 
L 5.859375 0 
L 5.859375 52.828125 
L 13.328125 52.828125 
L 13.328125 30.46875 
z
M 13.328125 6.203125 
L 21.734375 6.203125 
Q 24.609375 6.203125 26.578125 6.8125 
Q 28.5625 7.421875 29.78125 8.609375 
Q 31 9.8125 31.53125 11.546875 
Q 32.078125 13.28125 32.078125 15.53125 
Q 32.078125 20.125 29.65625 22.234375 
Q 27.25 24.359375 21.734375 24.359375 
L 13.328125 24.359375 
z
M 47.65625 0 
L 47.65625 52.828125 
L 55.125 52.828125 
L 55.125 0 
z
" id="LiberationSansNarrow-1099"/>
     </defs>
     <g transform="translate(25.8675 218.910156)rotate(-90)scale(0.14 -0.14)">
      <use xlink:href="#LiberationSansNarrow-1083"/>
      <use x="47.818359" xlink:href="#LiberationSansNarrow-1086"/>
      <use x="93.423828" xlink:href="#LiberationSansNarrow-1075"/>
      <use x="123.324219" xlink:href="#LiberationSansNarrow-1072"/>
      <use x="168.929688" xlink:href="#LiberationSansNarrow-1088"/>
      <use x="214.535156" xlink:href="#LiberationSansNarrow-1080"/>
      <use x="260.384766" xlink:href="#LiberationSansNarrow-1092"/>
      <use x="327.865234" xlink:href="#LiberationSansNarrow-1084"/>
      <use x="384.261719" xlink:href="#LiberationSansNarrow-32"/>
      <use x="407.064453" xlink:href="#LiberationSansNarrow-1086"/>
      <use x="452.638672" xlink:href="#LiberationSansNarrow-1090"/>
      <use x="490.1875" xlink:href="#LiberationSansNarrow-1085"/>
      <use x="535.451172" xlink:href="#LiberationSansNarrow-1086"/>
      <use x="581.056641" xlink:href="#LiberationSansNarrow-1089"/>
      <use x="622.072266" xlink:href="#LiberationSansNarrow-1080"/>
      <use x="667.921875" xlink:href="#LiberationSansNarrow-1090"/>
      <use x="705.455078" xlink:href="#LiberationSansNarrow-1077"/>
      <use x="751.013672" xlink:href="#LiberationSansNarrow-1083"/>
      <use x="798.816406" xlink:href="#LiberationSansNarrow-1100"/>
      <use x="841.541016" xlink:href="#LiberationSansNarrow-1085"/>
      <use x="886.804688" xlink:href="#LiberationSansNarrow-1086"/>
      <use x="932.410156" xlink:href="#LiberationSansNarrow-1081"/>
      <use x="978.259766" xlink:href="#LiberationSansNarrow-32"/>
      <use x="1001.0625" xlink:href="#LiberationSansNarrow-1094"/>
      <use x="1048.019531" xlink:href="#LiberationSansNarrow-1077"/>
      <use x="1093.625" xlink:href="#LiberationSansNarrow-1085"/>
      <use x="1138.888672" xlink:href="#LiberationSansNarrow-1099"/>
     </g>
    </g>
   </g>
   <g id="line2d_9">
    <path clip-path="url(#p255cfc6536)" d="M 84.676364 209.640769 
L 88.404688 191.870457 
L 92.133013 189.273313 
L 103.317986 177.406212 
L 107.046311 146.232216 
L 110.774636 143.939314 
L 114.50296 147.483717 
L 118.231285 119.491081 
L 129.416258 113.201267 
L 133.144583 98.590695 
L 136.872908 117.994624 
L 140.601232 66.922334 
L 144.329557 55.810247 
L 155.51453 59.618526 
L 159.242855 83.779153 
L 162.97118 35.27346 
L 166.699504 67.048873 
L 170.427829 81.564462 
L 181.612802 70.5437 
L 185.341127 82.353395 
L 189.069452 112.351727 
L 192.797776 160.817111 
L 196.526101 116.395886 
L 207.711074 132.55599 
L 211.439399 100.153226 
L 215.167724 105.102978 
L 218.896048 154.743502 
L 222.624373 181.444116 
L 233.809346 222.080713 
L 237.537671 227.79834 
L 241.265995 195.372631 
L 244.99432 199.278172 
L 248.722645 241.538182 
L 259.907618 217.874103 
L 263.635943 236.060749 
L 267.364267 171.689658 
L 271.092592 166.589304 
L 274.820917 146.649318 
L 289.734215 109.239048 
L 293.462539 73.966966 
L 297.190864 80.953834 
L 300.919189 119.336236 
L 312.104162 131.907712 
L 315.832487 151.320075 
L 319.560811 146.545036 
L 323.289136 141.284083 
L 327.017461 154.821953 
L 338.202434 151.999187 
L 341.930759 191.843942 
L 345.659083 169.401186 
L 349.387408 156.67928 
L 353.115733 188.796559 
L 364.300706 225.193026 
L 368.029031 191.419751 
L 371.757355 140.269542 
L 375.48568 125.537006 
L 379.214005 130.689375 
L 390.398978 75.642155 
L 394.127303 77.394608 
L 397.855627 71.380095 
L 401.583952 108.519273 
L 405.312276 86.964387 
L 416.49725 126.46836 
L 420.225575 130.404312 
L 423.953899 153.671578 
L 427.682224 145.919432 
L 431.410548 158.276041 
L 442.595522 165.85397 
L 446.323847 175.745311 
L 450.052171 167.535028 
L 453.780496 165.381363 
L 457.50882 174.006423 
L 468.693794 197.258271 
L 472.422119 230.594481 
L 476.150443 207.106359 
L 479.878768 190.916111 
L 483.607092 157.124184 
L 487.335417 144.668661 
L 528.346987 86.760418 
L 532.075312 65.834348 
L 535.803636 55.482635 
" style="fill:none;stroke:#2ca02c;stroke-dasharray:3.7,1.6;stroke-dashoffset:0;"/>
   </g>
   <g id="line2d_10">
    <path clip-path="url(#p255cfc6536)" d="M 84.676364 209.640769 
L 88.404688 191.721088 
L 92.133013 188.974576 
L 103.317986 176.659371 
L 107.046311 145.336007 
L 110.774636 142.893737 
L 114.50296 146.288771 
L 118.231285 118.146767 
L 129.416258 111.408849 
L 133.144583 96.648909 
L 136.872908 115.903469 
L 140.601232 64.681812 
L 144.329557 53.420357 
L 155.51453 56.78053 
L 159.242855 80.79179 
L 162.97118 32.136728 
L 166.699504 63.762773 
L 170.427829 78.128993 
L 181.612802 66.660128 
L 185.341127 78.320454 
L 189.069452 108.169418 
L 192.797776 156.485434 
L 196.526101 111.91484 
L 207.711074 127.62684 
L 211.439399 95.074708 
L 215.167724 99.875092 
L 218.896048 149.366248 
L 222.624373 175.917493 
L 233.809346 216.105986 
L 237.537671 221.674245 
L 241.265995 189.099168 
L 244.99432 192.85534 
L 248.722645 234.965982 
L 259.907618 210.853799 
L 263.635943 228.891076 
L 267.364267 164.370617 
L 271.092592 159.120894 
L 274.820917 139.031541 
L 289.734215 101.023798 
L 293.462539 65.602348 
L 297.190864 72.439848 
L 300.919189 110.672882 
L 312.104162 122.796253 
L 315.832487 142.059248 
L 319.560811 137.134841 
L 323.289136 131.724519 
L 327.017461 145.113021 
L 338.202434 141.84215 
L 341.930759 181.537538 
L 345.659083 158.945413 
L 349.387408 146.074139 
L 353.115733 178.04205 
L 364.300706 213.990413 
L 368.029031 180.067769 
L 371.757355 128.768192 
L 375.48568 113.886288 
L 379.214005 118.889288 
L 390.398978 63.393964 
L 394.127303 64.997049 
L 397.855627 58.833168 
L 401.583952 95.822977 
L 405.312276 74.118723 
L 416.49725 113.174592 
L 420.225575 116.961175 
L 423.953899 140.079074 
L 427.682224 132.177559 
L 431.410548 144.3848 
L 442.595522 151.514625 
L 446.323847 161.256598 
L 450.052171 152.896946 
L 453.780496 150.593913 
L 457.50882 159.069605 
L 468.693794 181.873348 
L 472.422119 215.060191 
L 476.150443 191.4227 
L 479.878768 175.083084 
L 483.607092 141.141788 
L 487.335417 128.536897 
L 528.346987 68.985605 
L 532.075312 47.910166 
L 535.803636 37.409085 
" style="fill:none;stroke:#2ca02c;stroke-linecap:square;"/>
   </g>
   <g id="line2d_11">
    <path clip-path="url(#p255cfc6536)" d="M 84.676364 209.640769 
L 88.404688 190.584042 
L 92.133013 187.240695 
L 103.317986 171.959839 
L 107.046311 139.587556 
L 110.774636 137.541321 
L 114.50296 141.477223 
L 118.231285 112.69507 
L 129.416258 107.161442 
L 133.144583 91.524571 
L 136.872908 110.164807 
L 140.601232 58.437402 
L 144.329557 48.324446 
L 155.51453 51.728267 
L 159.242855 76.265955 
L 162.97118 28.301818 
L 166.699504 59.538634 
L 170.427829 74.947481 
L 181.612802 65.54063 
L 185.341127 75.452352 
L 189.069452 104.289029 
L 192.797776 153.52908 
L 196.526101 108.545554 
L 207.711074 124.182311 
L 211.439399 92.703001 
L 215.167724 98.468538 
L 218.896048 135.188287 
L 222.624373 173.596032 
L 233.809346 215.353266 
L 237.537671 218.820645 
L 241.265995 183.105691 
L 244.99432 188.739931 
L 248.722645 233.233458 
L 259.907618 205.500548 
L 263.635943 225.338725 
L 267.364267 164.554927 
L 271.092592 157.025817 
L 274.820917 135.941321 
L 289.734215 97.478471 
L 293.462539 61.009974 
L 297.190864 68.392795 
L 300.919189 107.317562 
L 312.104162 118.11901 
L 315.832487 139.343362 
L 319.560811 135.224141 
L 323.289136 131.999206 
L 327.017461 141.901323 
L 338.202434 140.650779 
L 341.930759 177.250163 
L 345.659083 158.566116 
L 349.387408 145.454901 
L 353.115733 175.677257 
L 364.300706 215.419762 
L 368.029031 180.559189 
L 371.757355 132.371667 
L 375.48568 112.801735 
L 379.214005 119.587211 
L 390.398978 63.647854 
L 394.127303 61.247137 
L 397.855627 58.862507 
L 401.583952 95.563023 
L 405.312276 74.547859 
L 416.49725 112.808846 
L 420.225575 115.697524 
L 423.953899 142.6131 
L 427.682224 133.410534 
L 431.410548 147.889013 
L 442.595522 154.027303 
L 446.323847 164.090986 
L 450.052171 154.65563 
L 453.780496 150.556108 
L 457.50882 157.069193 
L 468.693794 185.669227 
L 472.422119 221.870319 
L 476.150443 200.896357 
L 479.878768 178.969764 
L 483.607092 143.842979 
L 487.335417 131.562347 
L 528.346987 74.716113 
L 532.075312 52.027176 
L 535.803636 40.698916 
" style="fill:none;stroke:#1f77b4;stroke-linecap:square;"/>
   </g>
   <g id="line2d_12">
    <path clip-path="url(#p255cfc6536)" d="M 84.676364 209.640769 
L 88.404688 208.793672 
L 92.133013 207.946576 
L 103.317986 205.405286 
L 107.046311 204.55819 
L 110.774636 203.711094 
L 114.50296 202.863997 
L 118.231285 202.016901 
L 129.416258 199.475611 
L 133.144583 198.628515 
L 136.872908 197.781419 
L 140.601232 196.934322 
L 144.329557 196.087226 
L 155.51453 193.545936 
L 159.242855 192.69884 
L 162.97118 191.851744 
L 166.699504 191.004647 
L 170.427829 190.157551 
L 181.612802 187.616261 
L 185.341127 186.769165 
L 189.069452 185.922069 
L 192.797776 185.074972 
L 196.526101 184.227876 
L 207.711074 181.686586 
L 211.439399 180.83949 
L 215.167724 179.992394 
L 218.896048 179.145297 
L 222.624373 178.298201 
L 233.809346 175.756911 
L 237.537671 174.909815 
L 241.265995 174.062719 
L 244.99432 173.215622 
L 248.722645 172.368526 
L 259.907618 169.827236 
L 263.635943 168.98014 
L 267.364267 168.133044 
L 271.092592 167.285947 
L 274.820917 166.438851 
L 289.734215 163.050465 
L 293.462539 162.203369 
L 297.190864 161.356272 
L 300.919189 160.509176 
L 312.104162 157.967886 
L 315.832487 157.12079 
L 319.560811 156.273694 
L 323.289136 155.426597 
L 327.017461 154.579501 
L 338.202434 152.038211 
L 341.930759 151.191115 
L 345.659083 150.344019 
L 349.387408 149.496922 
L 353.115733 148.649826 
L 364.300706 146.108536 
L 368.029031 145.26144 
L 371.757355 144.414344 
L 375.48568 143.567247 
L 379.214005 142.720151 
L 390.398978 140.178861 
L 394.127303 139.331765 
L 397.855627 138.484669 
L 401.583952 137.637572 
L 405.312276 136.790476 
L 416.49725 134.249186 
L 420.225575 133.40209 
L 423.953899 132.554994 
L 427.682224 131.707897 
L 431.410548 130.860801 
L 442.595522 128.319511 
L 446.323847 127.472415 
L 450.052171 126.625319 
L 453.780496 125.778222 
L 457.50882 124.931126 
L 468.693794 122.389836 
L 472.422119 121.54274 
L 476.150443 120.695643 
L 479.878768 119.848547 
L 483.607092 119.001451 
L 487.335417 118.154354 
L 528.346987 108.836293 
L 532.075312 107.989197 
L 535.803636 107.142101 
" style="fill:none;stroke:#7f7f7f;stroke-dasharray:3.7,1.6;stroke-dashoffset:0;"/>
   </g>
   <g id="line2d_13">
    <path clip-path="url(#p255cfc6536)" d="M 84.676364 209.640769 
L 88.404688 208.644304 
L 92.133013 207.647839 
L 103.317986 204.658445 
L 107.046311 203.661981 
L 110.774636 202.665516 
L 114.50296 201.669052 
L 118.231285 200.672587 
L 129.416258 197.683193 
L 133.144583 196.686729 
L 136.872908 195.690264 
L 140.601232 194.693799 
L 144.329557 193.697335 
L 155.51453 190.707941 
L 159.242855 189.711476 
L 162.97118 188.715012 
L 166.699504 187.718547 
L 170.427829 186.722083 
L 181.612802 183.732689 
L 185.341127 182.736224 
L 189.069452 181.739759 
L 192.797776 180.743295 
L 196.526101 179.74683 
L 207.711074 176.757436 
L 211.439399 175.760972 
L 215.167724 174.764507 
L 218.896048 173.768043 
L 222.624373 172.771578 
L 233.809346 169.782184 
L 237.537671 168.78572 
L 241.265995 167.789255 
L 244.99432 166.79279 
L 248.722645 165.796326 
L 259.907618 162.806932 
L 263.635943 161.810467 
L 267.364267 160.814003 
L 271.092592 159.817538 
L 274.820917 158.821073 
L 289.734215 154.835215 
L 293.462539 153.83875 
L 297.190864 152.842286 
L 300.919189 151.845821 
L 312.104162 148.856427 
L 315.832487 147.859963 
L 319.560811 146.863498 
L 323.289136 145.867033 
L 327.017461 144.870569 
L 338.202434 141.881175 
L 341.930759 140.88471 
L 345.659083 139.888246 
L 349.387408 138.891781 
L 353.115733 137.895317 
L 364.300706 134.905923 
L 368.029031 133.909458 
L 371.757355 132.912994 
L 375.48568 131.916529 
L 379.214005 130.920064 
L 390.398978 127.93067 
L 394.127303 126.934206 
L 397.855627 125.937741 
L 401.583952 124.941277 
L 405.312276 123.944812 
L 416.49725 120.955418 
L 420.225575 119.958954 
L 423.953899 118.962489 
L 427.682224 117.966024 
L 431.410548 116.96956 
L 442.595522 113.980166 
L 446.323847 112.983701 
L 450.052171 111.987237 
L 453.780496 110.990772 
L 457.50882 109.994307 
L 468.693794 107.004914 
L 472.422119 106.008449 
L 476.150443 105.011984 
L 479.878768 104.01552 
L 483.607092 103.019055 
L 487.335417 102.022591 
L 528.346987 91.06148 
L 532.075312 90.065015 
L 535.803636 89.068551 
" style="fill:none;stroke:#d62728;stroke-dasharray:3.7,1.6;stroke-dashoffset:0;"/>
   </g>
   <g id="legend_1">
    <g id="patch_3">
     <path d="M 116.94 245.2 
L 548.56 245.2 
Q 551.36 245.2 551.36 242.4 
L 551.36 203.69875 
Q 551.36 200.89875 548.56 200.89875 
L 116.94 200.89875 
Q 114.14 200.89875 114.14 203.69875 
L 114.14 242.4 
Q 114.14 245.2 116.94 245.2 
z
" style="fill:#ffffff;opacity:0.8;stroke:#cccccc;stroke-linejoin:miter;"/>
    </g>
    <g id="line2d_14">
     <path d="M 119.74 211.744375 
L 147.74 211.744375 
" style="fill:none;stroke:#2ca02c;stroke-dasharray:3.7,1.6;stroke-dashoffset:0;"/>
    </g>
    <g id="line2d_15"/>
    <g id="text_10">
     <!-- sbmx -->
     <defs>
      <path d="M 38.03125 14.59375 
Q 38.03125 10.890625 36.859375 7.984375 
Q 35.6875 5.078125 33.4375 3.09375 
Q 31.203125 1.125 27.921875 0.0625 
Q 24.65625 -0.984375 20.453125 -0.984375 
Q 16.703125 -0.984375 13.671875 -0.265625 
Q 10.640625 0.4375 8.375 2 
Q 6.109375 3.5625 4.5625 6.125 
Q 3.03125 8.6875 2.296875 12.40625 
L 8.640625 13.921875 
Q 9.578125 9.671875 12.453125 7.6875 
Q 15.328125 5.71875 20.453125 5.71875 
Q 22.796875 5.71875 24.71875 6.109375 
Q 26.65625 6.5 28.078125 7.453125 
Q 29.5 8.40625 30.28125 9.984375 
Q 31.0625 11.578125 31.0625 13.921875 
Q 31.0625 16.3125 30.125 17.84375 
Q 29.203125 19.390625 27.5625 20.40625 
Q 25.921875 21.4375 23.578125 22.171875 
L 18.40625 23.875 
Q 15.828125 24.703125 13.25 25.734375 
Q 10.6875 26.765625 8.640625 28.4375 
Q 6.59375 30.125 5.296875 32.609375 
Q 4 35.109375 4 38.875 
Q 4 46.09375 8.21875 49.875 
Q 12.453125 53.65625 20.5625 53.65625 
Q 27.734375 53.65625 31.953125 50.578125 
Q 36.1875 47.515625 37.3125 40.71875 
L 30.8125 39.75 
Q 30.46875 41.796875 29.484375 43.1875 
Q 28.515625 44.578125 27.140625 45.4375 
Q 25.78125 46.296875 24.09375 46.65625 
Q 22.40625 47.015625 20.5625 47.015625 
Q 15.671875 47.015625 13.34375 45.203125 
Q 11.03125 43.40625 11.03125 39.75 
Q 11.03125 37.59375 11.890625 36.203125 
Q 12.75 34.8125 14.28125 33.859375 
Q 15.828125 32.90625 17.96875 32.234375 
L 22.75 30.71875 
Q 22.75 30.71875 26.265625 29.59375 
Q 28.078125 28.953125 29.78125 28.09375 
Q 31.5 27.25 32.984375 26.09375 
Q 34.46875 24.953125 35.59375 23.34375 
Q 36.71875 21.734375 37.375 19.578125 
Q 38.03125 17.4375 38.03125 14.59375 
z
" id="LiberationSansNarrow-115"/>
      <path d="M 42.140625 26.65625 
Q 42.140625 -0.984375 26.21875 -0.984375 
Q 21.296875 -0.984375 18.046875 1.1875 
Q 14.796875 3.375 12.75 8.203125 
L 12.640625 8.203125 
Q 12.640625 6.9375 12.59375 5.5625 
Q 12.546875 4.203125 12.5 3.03125 
L 12.359375 1.03125 
Q 12.3125 0.203125 12.25 0 
L 5.28125 0 
Q 5.328125 0.4375 5.375 1.484375 
Q 5.421875 2.546875 5.4375 4 
Q 5.46875 5.46875 5.484375 7.21875 
Q 5.515625 8.984375 5.515625 10.890625 
L 5.515625 72.46875 
L 12.75 72.46875 
L 12.75 51.8125 
Q 12.75 50.34375 12.71875 49 
Q 12.703125 47.65625 12.640625 46.625 
Q 12.59375 45.40625 12.546875 44.34375 
L 12.75 44.34375 
Q 14.75 49.421875 18.046875 51.609375 
Q 21.34375 53.8125 26.21875 53.8125 
Q 34.421875 53.8125 38.28125 47.0625 
Q 42.140625 40.328125 42.140625 26.65625 
z
M 34.578125 26.375 
Q 34.578125 31.84375 34.03125 35.75 
Q 33.5 39.65625 32.25 42.15625 
Q 31 44.671875 29.078125 45.84375 
Q 27.15625 47.015625 24.359375 47.015625 
Q 21.53125 47.015625 19.359375 45.890625 
Q 17.1875 44.78125 15.71875 42.28125 
Q 14.265625 39.796875 13.5 35.734375 
Q 12.75 31.6875 12.75 25.828125 
Q 12.75 20.171875 13.5 16.3125 
Q 14.265625 12.453125 15.71875 10.03125 
Q 17.1875 7.625 19.328125 6.5625 
Q 21.484375 5.515625 24.3125 5.515625 
Q 26.953125 5.515625 28.875 6.640625 
Q 30.8125 7.765625 32.078125 10.25 
Q 33.34375 12.75 33.953125 16.71875 
Q 34.578125 20.703125 34.578125 26.375 
z
" id="LiberationSansNarrow-98"/>
      <path d="M 30.765625 0 
L 30.765625 33.5 
Q 30.765625 37.359375 30.34375 39.9375 
Q 29.9375 42.53125 29 44.109375 
Q 28.078125 45.703125 26.5625 46.359375 
Q 25.046875 47.015625 22.796875 47.015625 
Q 20.515625 47.015625 18.671875 45.921875 
Q 16.84375 44.828125 15.546875 42.75 
Q 14.265625 40.671875 13.546875 37.625 
Q 12.84375 34.578125 12.84375 30.609375 
L 12.84375 0 
L 5.671875 0 
L 5.671875 41.546875 
Q 5.671875 41.546875 5.671875 45.015625 
Q 5.671875 46.875 5.609375 48.5 
Q 5.5625 50.140625 5.515625 51.3125 
Q 5.46875 52.484375 5.46875 52.828125 
L 12.25 52.828125 
Q 12.3125 52.59375 12.328125 51.515625 
Q 12.359375 50.4375 12.421875 49.046875 
Q 12.5 47.65625 12.515625 46.21875 
Q 12.546875 44.78125 12.546875 43.796875 
L 12.703125 43.796875 
Q 13.671875 46.09375 14.796875 47.953125 
Q 15.921875 49.8125 17.40625 51.09375 
Q 18.890625 52.390625 20.84375 53.09375 
Q 22.796875 53.8125 25.34375 53.8125 
Q 30.28125 53.8125 33.125 51.421875 
Q 35.984375 49.03125 37.109375 43.796875 
L 37.25 43.796875 
Q 38.234375 46.09375 39.421875 47.953125 
Q 40.625 49.8125 42.203125 51.09375 
Q 43.796875 52.390625 45.796875 53.09375 
Q 47.796875 53.8125 50.390625 53.8125 
Q 53.65625 53.8125 56.03125 52.734375 
Q 58.40625 51.65625 59.9375 49.40625 
Q 61.46875 47.171875 62.171875 43.625 
Q 62.890625 40.09375 62.890625 35.203125 
L 62.890625 0 
L 55.765625 0 
L 55.765625 33.5 
Q 55.765625 37.359375 55.375 39.9375 
Q 54.984375 42.53125 54.03125 44.109375 
Q 53.078125 45.703125 51.5625 46.359375 
Q 50.046875 47.015625 47.859375 47.015625 
Q 45.5625 47.015625 43.71875 45.96875 
Q 41.890625 44.921875 40.578125 42.875 
Q 39.265625 40.828125 38.578125 37.75 
Q 37.890625 34.671875 37.890625 30.609375 
L 37.890625 0 
z
" id="LiberationSansNarrow-109"/>
      <path d="M 32.078125 0 
L 20.40625 21.6875 
L 8.6875 0 
L 0.921875 0 
L 16.359375 27.15625 
L 1.65625 52.828125 
L 9.625 52.828125 
L 20.40625 32.28125 
L 31.15625 52.828125 
L 39.203125 52.828125 
L 24.515625 27.25 
L 40.140625 0 
z
" id="LiberationSansNarrow-120"/>
     </defs>
     <g transform="translate(158.94 216.644375)scale(0.14 -0.14)">
      <use xlink:href="#LiberationSansNarrow-115"/>
      <use x="41.015625" xlink:href="#LiberationSansNarrow-98"/>
      <use x="86.621094" xlink:href="#LiberationSansNarrow-109"/>
      <use x="154.931641" xlink:href="#LiberationSansNarrow-120"/>
     </g>
    </g>
    <g id="line2d_16">
     <path d="M 119.74 231.795 
L 147.74 231.795 
" style="fill:none;stroke:#2ca02c;stroke-linecap:square;"/>
    </g>
    <g id="line2d_17"/>
    <g id="text_11">
     <!-- скорр. sbmx -->
     <defs>
      <path d="M 5.515625 52.828125 
L 12.703125 52.828125 
L 12.703125 29.6875 
Q 13.921875 29.6875 14.875 30.078125 
Q 15.828125 30.46875 16.875 31.6875 
Q 17.921875 32.90625 19.21875 35.15625 
Q 20.515625 37.40625 22.46875 41.15625 
L 28.375 52.828125 
L 35.890625 52.828125 
L 27.25 36.96875 
Q 25.4375 33.734375 24.109375 31.65625 
Q 22.796875 29.59375 22.125 28.90625 
L 36.234375 0 
L 28.21875 0 
L 17.140625 24.265625 
Q 16.359375 23.875 15.0625 23.578125 
Q 13.765625 23.296875 12.703125 23.296875 
L 12.703125 0 
L 5.515625 0 
z
" id="LiberationSansNarrow-1082"/>
     </defs>
     <g transform="translate(158.94 236.695)scale(0.14 -0.14)">
      <use xlink:href="#LiberationSansNarrow-1089"/>
      <use x="41.015625" xlink:href="#LiberationSansNarrow-1082"/>
      <use x="76.871094" xlink:href="#LiberationSansNarrow-1086"/>
      <use x="122.476562" xlink:href="#LiberationSansNarrow-1088"/>
      <use x="168.082031" xlink:href="#LiberationSansNarrow-1088"/>
      <use x="213.6875" xlink:href="#LiberationSansNarrow-46"/>
      <use x="236.490234" xlink:href="#LiberationSansNarrow-32"/>
      <use x="259.292969" xlink:href="#LiberationSansNarrow-115"/>
      <use x="300.308594" xlink:href="#LiberationSansNarrow-98"/>
      <use x="345.914062" xlink:href="#LiberationSansNarrow-109"/>
      <use x="414.224609" xlink:href="#LiberationSansNarrow-120"/>
     </g>
    </g>
    <g id="line2d_18">
     <path d="M 250.675 211.744375 
L 278.675 211.744375 
" style="fill:none;stroke:#1f77b4;stroke-linecap:square;"/>
    </g>
    <g id="line2d_19"/>
    <g id="text_12">
     <!-- индекс -->
     <defs>
      <path d="M 33.34375 46.4375 
L 21.140625 46.4375 
Q 20.171875 37.796875 19.1875 31.375 
Q 18.21875 24.953125 17.234375 20.21875 
Q 16.265625 15.484375 15.3125 12.15625 
Q 14.359375 8.84375 13.484375 6.390625 
L 33.34375 6.390625 
z
M 46.390625 -19.921875 
L 39.890625 -19.921875 
L 39.890625 0 
L 7.328125 0 
L 7.328125 -19.921875 
L 0.78125 -19.921875 
L 0.78125 6.390625 
L 5.5625 6.390625 
Q 6.78125 8.84375 7.921875 12.328125 
Q 9.078125 15.828125 10.21875 21.1875 
Q 11.375 26.5625 12.515625 34.25 
Q 13.671875 41.9375 14.796875 52.828125 
L 40.578125 52.828125 
L 40.578125 6.390625 
L 46.390625 6.390625 
z
" id="LiberationSansNarrow-1076"/>
     </defs>
     <g transform="translate(289.875 216.644375)scale(0.14 -0.14)">
      <use xlink:href="#LiberationSansNarrow-1080"/>
      <use x="45.849609" xlink:href="#LiberationSansNarrow-1085"/>
      <use x="91.113281" xlink:href="#LiberationSansNarrow-1076"/>
      <use x="138.916016" xlink:href="#LiberationSansNarrow-1077"/>
      <use x="184.521484" xlink:href="#LiberationSansNarrow-1082"/>
      <use x="220.376953" xlink:href="#LiberationSansNarrow-1089"/>
     </g>
    </g>
    <g id="line2d_20">
     <path d="M 250.675 231.795 
L 278.675 231.795 
" style="fill:none;stroke:#7f7f7f;stroke-dasharray:3.7,1.6;stroke-dashoffset:0;"/>
    </g>
    <g id="line2d_21"/>
    <g id="text_13">
     <!-- тренд фонда -->
     <g transform="translate(289.875 236.695)scale(0.14 -0.14)">
      <use xlink:href="#LiberationSansNarrow-1090"/>
      <use x="37.548828" xlink:href="#LiberationSansNarrow-1088"/>
      <use x="83.154297" xlink:href="#LiberationSansNarrow-1077"/>
      <use x="128.759766" xlink:href="#LiberationSansNarrow-1085"/>
      <use x="174.023438" xlink:href="#LiberationSansNarrow-1076"/>
      <use x="221.826172" xlink:href="#LiberationSansNarrow-32"/>
      <use x="244.628906" xlink:href="#LiberationSansNarrow-1092"/>
      <use x="312.109375" xlink:href="#LiberationSansNarrow-1086"/>
      <use x="357.714844" xlink:href="#LiberationSansNarrow-1085"/>
      <use x="402.978516" xlink:href="#LiberationSansNarrow-1076"/>
      <use x="450.78125" xlink:href="#LiberationSansNarrow-1072"/>
     </g>
    </g>
    <g id="line2d_22">
     <path d="M 387.369688 211.744375 
L 415.369688 211.744375 
" style="fill:none;stroke:#d62728;stroke-dasharray:3.7,1.6;stroke-dashoffset:0;"/>
    </g>
    <g id="line2d_23"/>
    <g id="text_14">
     <!-- тренд индекса -->
     <g transform="translate(426.569688 216.644375)scale(0.14 -0.14)">
      <use xlink:href="#LiberationSansNarrow-1090"/>
      <use x="37.548828" xlink:href="#LiberationSansNarrow-1088"/>
      <use x="83.154297" xlink:href="#LiberationSansNarrow-1077"/>
      <use x="128.759766" xlink:href="#LiberationSansNarrow-1085"/>
      <use x="174.023438" xlink:href="#LiberationSansNarrow-1076"/>
      <use x="221.826172" xlink:href="#LiberationSansNarrow-32"/>
      <use x="244.628906" xlink:href="#LiberationSansNarrow-1080"/>
      <use x="290.478516" xlink:href="#LiberationSansNarrow-1085"/>
      <use x="335.742188" xlink:href="#LiberationSansNarrow-1076"/>
      <use x="383.544922" xlink:href="#LiberationSansNarrow-1077"/>
      <use x="429.150391" xlink:href="#LiberationSansNarrow-1082"/>
      <use x="465.005859" xlink:href="#LiberationSansNarrow-1089"/>
      <use x="506.021484" xlink:href="#LiberationSansNarrow-1072"/>
     </g>
    </g>
    <g id="patch_4">
     <path d="M 387.369688 236.695 
L 415.369688 236.695 
L 415.369688 226.895 
L 387.369688 226.895 
z
" style="fill:#d62728;stroke:#d62728;stroke-linejoin:miter;"/>
    </g>
    <g id="text_15">
     <!-- ошибка отслеживания -->
     <defs>
      <path d="M 5.671875 0 
L 5.671875 52.828125 
L 12.890625 52.828125 
L 12.890625 6.390625 
L 29.296875 6.390625 
L 29.296875 52.828125 
L 36.53125 52.828125 
L 36.53125 6.390625 
L 52.875 6.390625 
L 52.875 52.828125 
L 60.109375 52.828125 
L 60.109375 0 
z
" id="LiberationSansNarrow-1096"/>
      <path d="M 35.9375 24.515625 
Q 35.9375 30.078125 35.15625 33.765625 
Q 34.375 37.453125 32.9375 39.671875 
Q 31.5 41.890625 29.390625 42.796875 
Q 27.296875 43.703125 24.703125 43.703125 
Q 21.921875 43.703125 19.65625 42.75 
Q 17.390625 41.796875 15.765625 39.546875 
Q 14.15625 37.3125 13.25 33.640625 
Q 12.359375 29.984375 12.359375 24.515625 
Q 12.359375 18.953125 13.25 15.28125 
Q 14.15625 11.625 15.6875 9.453125 
Q 17.234375 7.28125 19.328125 6.390625 
Q 21.4375 5.515625 23.921875 5.515625 
Q 26.703125 5.515625 28.921875 6.390625 
Q 31.15625 7.28125 32.71875 9.421875 
Q 34.28125 11.578125 35.109375 15.265625 
Q 35.9375 18.953125 35.9375 24.515625 
z
M 26.21875 50.140625 
Q 35.109375 50.140625 39.296875 43.765625 
Q 43.5 37.40625 43.5 24.609375 
Q 43.5 11.671875 38.5 5.34375 
Q 33.5 -0.984375 23.96875 -0.984375 
Q 19.4375 -0.984375 15.890625 0.71875 
Q 12.359375 2.4375 9.890625 6.25 
Q 7.421875 10.0625 6.09375 16.15625 
Q 4.78125 22.265625 4.78125 31.0625 
Q 4.78125 40.4375 5.953125 47.21875 
Q 7.125 54 9.6875 58.703125 
Q 12.25 63.421875 16.375 66.234375 
Q 20.515625 69.046875 26.375 70.40625 
Q 28.65625 70.953125 30.65625 71.359375 
Q 32.671875 71.78125 34.46875 72.125 
L 38.03125 72.75 
L 41.5 73.34375 
L 41.5 65.484375 
Q 38.03125 64.9375 34.8125 64.375 
Q 31.59375 63.8125 27.9375 62.984375 
Q 24.8125 62.3125 22.34375 61.5 
Q 19.875 60.6875 17.984375 59.46875 
Q 16.109375 58.25 14.765625 56.46875 
Q 13.421875 54.6875 12.546875 52.046875 
Q 11.671875 49.421875 11.203125 45.78125 
Q 10.75 42.140625 10.640625 37.203125 
Q 11.421875 39.890625 12.765625 42.25 
Q 14.109375 44.625 16.03125 46.375 
Q 17.96875 48.140625 20.484375 49.140625 
Q 23 50.140625 26.21875 50.140625 
z
" id="LiberationSansNarrow-1073"/>
      <path d="M 23.828125 23.296875 
Q 22.796875 23.296875 21.484375 23.578125 
Q 20.171875 23.875 19.4375 24.265625 
L 8.296875 0 
L 0.296875 0 
L 14.40625 28.90625 
Q 13.71875 29.59375 12.390625 31.65625 
Q 11.078125 33.734375 9.28125 36.96875 
L 0.640625 52.828125 
L 8.15625 52.828125 
L 14.109375 41.15625 
Q 16.015625 37.40625 17.3125 35.15625 
Q 18.609375 32.90625 19.65625 31.6875 
Q 20.703125 30.46875 21.65625 30.078125 
Q 22.609375 29.6875 23.828125 29.6875 
L 23.828125 52.828125 
L 31 52.828125 
L 31 29.6875 
Q 32.234375 29.6875 33.171875 30.078125 
Q 34.125 30.46875 35.171875 31.6875 
Q 36.234375 32.90625 37.515625 35.15625 
Q 38.8125 37.40625 40.71875 41.15625 
L 46.6875 52.828125 
L 54.203125 52.828125 
L 45.5625 36.96875 
Q 43.75 33.734375 42.421875 31.65625 
Q 41.109375 29.59375 40.4375 28.90625 
L 54.546875 0 
L 46.53125 0 
L 35.40625 24.265625 
Q 34.625 23.875 33.34375 23.578125 
Q 32.078125 23.296875 31 23.296875 
L 31 0 
L 23.828125 0 
z
" id="LiberationSansNarrow-1078"/>
      <path d="M 22.5625 52.828125 
Q 25.59375 52.828125 28.484375 52.234375 
Q 31.390625 51.65625 33.640625 50.140625 
Q 35.890625 48.640625 37.234375 46.09375 
Q 38.578125 43.5625 38.578125 39.59375 
Q 38.578125 37.015625 37.890625 35.03125 
Q 37.203125 33.0625 35.984375 31.640625 
Q 34.765625 30.21875 33.125 29.3125 
Q 31.5 28.421875 29.6875 27.984375 
L 29.6875 27.640625 
Q 31.84375 27.296875 33.734375 26.4375 
Q 35.640625 25.59375 37 24.09375 
Q 38.375 22.609375 39.171875 20.40625 
Q 39.984375 18.21875 39.984375 15.234375 
Q 39.984375 11.421875 38.765625 8.5625 
Q 37.546875 5.71875 35.375 3.8125 
Q 33.203125 1.90625 30.171875 0.953125 
Q 27.15625 0 23.484375 0 
L 5.671875 0 
L 5.671875 52.828125 
z
M 12.890625 6.5 
L 22.3125 6.5 
Q 25.09375 6.5 27 6.984375 
Q 28.90625 7.46875 30.078125 8.546875 
Q 31.25 9.625 31.78125 11.25 
Q 32.328125 12.890625 32.328125 15.1875 
Q 32.328125 17.625 31.765625 19.328125 
Q 31.203125 21.046875 29.953125 22.109375 
Q 28.71875 23.1875 26.703125 23.671875 
Q 24.703125 24.171875 21.875 24.171875 
L 12.890625 24.171875 
z
M 12.890625 46.140625 
L 12.890625 30.515625 
L 21.53125 30.515625 
Q 24.265625 30.515625 26.0625 30.984375 
Q 27.875 31.453125 29 32.390625 
Q 30.125 33.34375 30.5625 34.828125 
Q 31 36.328125 31 38.421875 
Q 31 42.4375 28.96875 44.28125 
Q 26.953125 46.140625 22.125 46.140625 
z
" id="LiberationSansNarrow-1074"/>
      <path d="M 21.4375 22.359375 
L 8.84375 0 
L 0.6875 0 
L 14.453125 23 
Q 9.234375 24.3125 6.859375 28.296875 
Q 4.5 32.28125 4.5 38.234375 
Q 4.5 45.515625 8.8125 49.171875 
Q 13.140625 52.828125 21.4375 52.828125 
L 38.71875 52.828125 
L 38.71875 0 
L 31.546875 0 
L 31.546875 22.359375 
z
M 31.546875 46.625 
L 22.171875 46.625 
Q 16.9375 46.625 14.546875 44.375 
Q 12.15625 42.140625 12.15625 37.59375 
Q 12.15625 33.015625 14.28125 30.734375 
Q 16.40625 28.46875 21.390625 28.46875 
L 31.546875 28.46875 
z
" id="LiberationSansNarrow-1103"/>
     </defs>
     <g transform="translate(426.569688 236.695)scale(0.14 -0.14)">
      <use xlink:href="#LiberationSansNarrow-1086"/>
      <use x="45.605469" xlink:href="#LiberationSansNarrow-1096"/>
      <use x="111.376953" xlink:href="#LiberationSansNarrow-1080"/>
      <use x="157.226562" xlink:href="#LiberationSansNarrow-1073"/>
      <use x="204.199219" xlink:href="#LiberationSansNarrow-1082"/>
      <use x="240.070312" xlink:href="#LiberationSansNarrow-1072"/>
      <use x="285.675781" xlink:href="#LiberationSansNarrow-32"/>
      <use x="308.478516" xlink:href="#LiberationSansNarrow-1086"/>
      <use x="354.052734" xlink:href="#LiberationSansNarrow-1090"/>
      <use x="391.585938" xlink:href="#LiberationSansNarrow-1089"/>
      <use x="432.601562" xlink:href="#LiberationSansNarrow-1083"/>
      <use x="480.404297" xlink:href="#LiberationSansNarrow-1077"/>
      <use x="525.994141" xlink:href="#LiberationSansNarrow-1078"/>
      <use x="580.828125" xlink:href="#LiberationSansNarrow-1080"/>
      <use x="626.677734" xlink:href="#LiberationSansNarrow-1074"/>
      <use x="670.216797" xlink:href="#LiberationSansNarrow-1072"/>
      <use x="715.822266" xlink:href="#LiberationSansNarrow-1085"/>
      <use x="761.085938" xlink:href="#LiberationSansNarrow-1080"/>
      <use x="806.935547" xlink:href="#LiberationSansNarrow-1103"/>
     </g>
    </g>
   </g>
  </g>
 </g>
 <defs>
  <clipPath id="p255cfc6536">
   <rect height="234.56" width="496.24" x="62.12" y="17.64"/>
  </clipPath>
 </defs>
</svg>
