<?xml version="1.0" encoding="utf-8" standalone="no"?>
<!DOCTYPE svg PUBLIC "-//W3C//DTD SVG 1.1//EN"
  "http://www.w3.org/Graphics/SVG/1.1/DTD/svg11.dtd">
<!-- Created with matplotlib (https://matplotlib.org/) -->
<svg height="288pt" version="1.1" viewBox="0 0 504 288" width="504pt" xmlns="http://www.w3.org/2000/svg" xmlns:xlink="http://www.w3.org/1999/xlink">
 <defs>
  <style type="text/css">
*{stroke-linecap:butt;stroke-linejoin:round;}
  </style>
 </defs>
 <g id="figure_1">
  <g id="patch_1">
   <path d="M 0 288 
L 504 288 
L 504 0 
L 0 0 
z
" style="fill:#ffffff;"/>
  </g>
  <g id="axes_1">
   <g id="patch_2">
    <path d="M 52.94 252.2 
L 476.15 252.2 
L 476.15 17.64 
L 52.94 17.64 
z
" style="fill:#ffffff;"/>
   </g>
   <g id="matplotlib.axis_1">
    <g id="xtick_1">
     <g id="line2d_1">
      <path clip-path="url(#pec3d7b1f7c)" d="M 56.742464 252.2 
L 56.742464 17.64 
" style="fill:none;stroke:#b0b0b0;stroke-dasharray:1.48,0.64;stroke-dashoffset:0;stroke-width:0.4;"/>
     </g>
     <g id="text_1">
      <!-- 2017-01 -->
      <defs>
       <path d="M 4.109375 0 
L 4.109375 6.203125 
Q 6.15625 11.921875 9.109375 16.28125 
Q 12.0625 20.65625 15.3125 24.1875 
Q 18.5625 27.734375 21.734375 30.765625 
Q 24.90625 33.796875 27.46875 36.8125 
Q 30.03125 39.84375 31.609375 43.15625 
Q 33.203125 46.484375 33.203125 50.6875 
Q 33.203125 53.609375 32.46875 55.828125 
Q 31.734375 58.0625 30.390625 59.5625 
Q 29.046875 61.078125 27.140625 61.828125 
Q 25.25 62.59375 22.90625 62.59375 
Q 20.75 62.59375 18.84375 61.859375 
Q 16.9375 61.140625 15.453125 59.671875 
Q 13.96875 58.203125 13.03125 56.03125 
Q 12.109375 53.859375 11.8125 50.984375 
L 4.4375 51.8125 
Q 4.78125 55.515625 6.125 58.78125 
Q 7.46875 62.0625 9.78125 64.53125 
Q 12.109375 67 15.359375 68.40625 
Q 18.609375 69.828125 22.90625 69.828125 
Q 27.09375 69.828125 30.390625 68.609375 
Q 33.6875 67.390625 35.9375 64.984375 
Q 38.1875 62.59375 39.40625 59.078125 
Q 40.625 55.5625 40.625 50.984375 
Q 40.625 47.515625 39.59375 44.390625 
Q 38.578125 41.265625 36.859375 38.421875 
Q 35.15625 35.59375 32.90625 32.953125 
Q 30.671875 30.328125 28.21875 27.828125 
L 23.296875 22.859375 
Q 20.796875 20.359375 18.625 17.859375 
Q 16.453125 15.375 14.734375 12.8125 
Q 13.03125 10.25 12.0625 7.46875 
L 41.5 7.46875 
L 41.5 0 
z
" id="LiberationSansNarrow-50"/>
       <path d="M 42.390625 34.421875 
Q 42.390625 24.515625 40.84375 17.75 
Q 39.3125 10.984375 36.640625 6.8125 
Q 33.984375 2.640625 30.390625 0.828125 
Q 26.8125 -0.984375 22.703125 -0.984375 
Q 18.609375 -0.984375 15.03125 0.828125 
Q 11.46875 2.640625 8.828125 6.78125 
Q 6.203125 10.9375 4.703125 17.703125 
Q 3.21875 24.46875 3.21875 34.421875 
Q 3.21875 44.828125 4.703125 51.640625 
Q 6.203125 58.453125 8.828125 62.5 
Q 11.46875 66.546875 15.078125 68.1875 
Q 18.703125 69.828125 22.953125 69.828125 
Q 27 69.828125 30.53125 68.1875 
Q 34.078125 66.546875 36.71875 62.5 
Q 39.359375 58.453125 40.875 51.640625 
Q 42.390625 44.828125 42.390625 34.421875 
z
M 35.0625 34.421875 
Q 35.0625 42.625 34.28125 48.0625 
Q 33.5 53.515625 31.9375 56.765625 
Q 30.375 60.015625 28.09375 61.359375 
Q 25.828125 62.703125 22.953125 62.703125 
Q 19.921875 62.703125 17.578125 61.328125 
Q 15.234375 59.96875 13.671875 56.71875 
Q 12.109375 53.46875 11.296875 48.015625 
Q 10.5 42.578125 10.5 34.421875 
Q 10.5 26.515625 11.296875 21.09375 
Q 12.109375 15.671875 13.6875 12.375 
Q 15.28125 9.078125 17.578125 7.640625 
Q 19.875 6.203125 22.796875 6.203125 
Q 25.640625 6.203125 27.90625 7.640625 
Q 30.171875 9.078125 31.75 12.375 
Q 33.34375 15.671875 34.203125 21.09375 
Q 35.0625 26.515625 35.0625 34.421875 
z
" id="LiberationSansNarrow-48"/>
       <path d="M 6.25 0 
L 6.25 7.46875 
L 20.609375 7.46875 
L 20.609375 60.40625 
L 7.90625 49.3125 
L 7.90625 57.625 
L 21.234375 68.796875 
L 27.875 68.796875 
L 27.875 7.46875 
L 41.609375 7.46875 
L 41.609375 0 
z
" id="LiberationSansNarrow-49"/>
       <path d="M 41.5 61.671875 
Q 37.25 53.765625 33.6875 46.453125 
Q 30.125 39.15625 27.5625 31.75 
Q 25 24.359375 23.5625 16.578125 
Q 22.125 8.796875 22.125 0 
L 14.59375 0 
Q 14.59375 8.25 16.203125 16.1875 
Q 17.828125 24.125 20.53125 31.765625 
Q 23.25 39.40625 26.859375 46.78125 
Q 30.46875 54.15625 34.515625 61.328125 
L 4.203125 61.328125 
L 4.203125 68.796875 
L 41.5 68.796875 
z
" id="LiberationSansNarrow-55"/>
       <path d="M 3.65625 22.65625 
L 3.65625 30.46875 
L 23.640625 30.46875 
L 23.640625 22.65625 
z
" id="LiberationSansNarrow-45"/>
      </defs>
      <g transform="translate(35.675745 269.345625)scale(0.14 -0.14)">
       <use xlink:href="#LiberationSansNarrow-50"/>
       <use x="45.605469" xlink:href="#LiberationSansNarrow-48"/>
       <use x="91.210938" xlink:href="#LiberationSansNarrow-49"/>
       <use x="136.816406" xlink:href="#LiberationSansNarrow-55"/>
       <use x="182.421875" xlink:href="#LiberationSansNarrow-45"/>
       <use x="209.716797" xlink:href="#LiberationSansNarrow-48"/>
       <use x="255.322266" xlink:href="#LiberationSansNarrow-49"/>
      </g>
     </g>
    </g>
    <g id="xtick_2">
     <g id="line2d_2">
      <path clip-path="url(#pec3d7b1f7c)" d="M 107.535521 252.2 
L 107.535521 17.64 
" style="fill:none;stroke:#b0b0b0;stroke-dasharray:1.48,0.64;stroke-dashoffset:0;stroke-width:0.4;"/>
     </g>
     <g id="text_2">
      <!-- 2017-07 -->
      <g transform="translate(86.468802 269.345625)scale(0.14 -0.14)">
       <use xlink:href="#LiberationSansNarrow-50"/>
       <use x="45.605469" xlink:href="#LiberationSansNarrow-48"/>
       <use x="91.210938" xlink:href="#LiberationSansNarrow-49"/>
       <use x="136.816406" xlink:href="#LiberationSansNarrow-55"/>
       <use x="182.421875" xlink:href="#LiberationSansNarrow-45"/>
       <use x="209.716797" xlink:href="#LiberationSansNarrow-48"/>
       <use x="255.322266" xlink:href="#LiberationSansNarrow-55"/>
      </g>
     </g>
    </g>
    <g id="xtick_3">
     <g id="line2d_3">
      <path clip-path="url(#pec3d7b1f7c)" d="M 159.170453 252.2 
L 159.170453 17.64 
" style="fill:none;stroke:#b0b0b0;stroke-dasharray:1.48,0.64;stroke-dashoffset:0;stroke-width:0.4;"/>
     </g>
     <g id="text_3">
      <!-- 2018-01 -->
      <defs>
       <path d="M 42.046875 19.1875 
Q 42.046875 14.796875 40.890625 11.109375 
Q 39.75 7.421875 37.40625 4.734375 
Q 35.0625 2.046875 31.421875 0.53125 
Q 27.78125 -0.984375 22.796875 -0.984375 
Q 17.828125 -0.984375 14.203125 0.53125 
Q 10.59375 2.046875 8.21875 4.703125 
Q 5.859375 7.375 4.703125 11.0625 
Q 3.5625 14.75 3.5625 19.09375 
Q 3.5625 22.859375 4.515625 25.78125 
Q 5.46875 28.71875 7.03125 30.828125 
Q 8.59375 32.953125 10.609375 34.25 
Q 12.640625 35.546875 14.796875 35.984375 
L 14.796875 36.1875 
Q 12.453125 36.859375 10.59375 38.375 
Q 8.734375 39.890625 7.46875 42.015625 
Q 6.203125 44.140625 5.546875 46.71875 
Q 4.890625 49.3125 4.890625 52.203125 
Q 4.890625 55.8125 6.03125 59 
Q 7.171875 62.203125 9.421875 64.625 
Q 11.671875 67.046875 14.984375 68.4375 
Q 18.3125 69.828125 22.65625 69.828125 
Q 27.25 69.828125 30.640625 68.40625 
Q 34.03125 67 36.25 64.578125 
Q 38.484375 62.15625 39.546875 58.9375 
Q 40.625 55.71875 40.625 52.09375 
Q 40.625 49.265625 39.96875 46.671875 
Q 39.3125 44.09375 38.0625 41.96875 
Q 36.8125 39.84375 34.9375 38.34375 
Q 33.0625 36.859375 30.609375 36.28125 
L 30.609375 36.078125 
Q 33.0625 35.59375 35.15625 34.296875 
Q 37.25 33.015625 38.765625 30.890625 
Q 40.28125 28.765625 41.15625 25.828125 
Q 42.046875 22.90625 42.046875 19.1875 
z
M 33.15625 51.609375 
Q 33.15625 54.203125 32.609375 56.34375 
Q 32.078125 58.5 30.828125 60.03125 
Q 29.59375 61.578125 27.59375 62.421875 
Q 25.59375 63.28125 22.65625 63.28125 
Q 19.828125 63.28125 17.875 62.421875 
Q 15.921875 61.578125 14.640625 60.03125 
Q 13.375 58.5 12.8125 56.34375 
Q 12.25 54.203125 12.25 51.609375 
Q 12.25 49.5625 12.6875 47.40625 
Q 13.140625 45.265625 14.3125 43.5 
Q 15.484375 41.75 17.5 40.625 
Q 19.53125 39.5 22.75 39.5 
Q 26.171875 39.5 28.21875 40.625 
Q 30.28125 41.75 31.375 43.5 
Q 32.46875 45.265625 32.8125 47.40625 
Q 33.15625 49.5625 33.15625 51.609375 
z
M 34.578125 20.015625 
Q 34.578125 22.515625 34.015625 24.828125 
Q 33.453125 27.15625 32.078125 28.9375 
Q 30.71875 30.71875 28.421875 31.8125 
Q 26.125 32.90625 22.65625 32.90625 
Q 19.484375 32.90625 17.265625 31.8125 
Q 15.046875 30.71875 13.671875 28.90625 
Q 12.3125 27.09375 11.671875 24.71875 
Q 11.03125 22.359375 11.03125 19.828125 
Q 11.03125 16.65625 11.671875 14.03125 
Q 12.3125 11.421875 13.703125 9.546875 
Q 15.09375 7.671875 17.375 6.640625 
Q 19.671875 5.609375 22.90625 5.609375 
Q 26.171875 5.609375 28.421875 6.640625 
Q 30.671875 7.671875 32.03125 9.546875 
Q 33.40625 11.421875 33.984375 14.078125 
Q 34.578125 16.75 34.578125 20.015625 
z
" id="LiberationSansNarrow-56"/>
      </defs>
      <g transform="translate(138.103734 269.345625)scale(0.14 -0.14)">
       <use xlink:href="#LiberationSansNarrow-50"/>
       <use x="45.605469" xlink:href="#LiberationSansNarrow-48"/>
       <use x="91.210938" xlink:href="#LiberationSansNarrow-49"/>
       <use x="136.816406" xlink:href="#LiberationSansNarrow-56"/>
       <use x="182.421875" xlink:href="#LiberationSansNarrow-45"/>
       <use x="209.716797" xlink:href="#LiberationSansNarrow-48"/>
       <use x="255.322266" xlink:href="#LiberationSansNarrow-49"/>
      </g>
     </g>
    </g>
    <g id="xtick_4">
     <g id="line2d_4">
      <path clip-path="url(#pec3d7b1f7c)" d="M 209.96351 252.2 
L 209.96351 17.64 
" style="fill:none;stroke:#b0b0b0;stroke-dasharray:1.48,0.64;stroke-dashoffset:0;stroke-width:0.4;"/>
     </g>
     <g id="text_4">
      <!-- 2018-07 -->
      <g transform="translate(188.896791 269.345625)scale(0.14 -0.14)">
       <use xlink:href="#LiberationSansNarrow-50"/>
       <use x="45.605469" xlink:href="#LiberationSansNarrow-48"/>
       <use x="91.210938" xlink:href="#LiberationSansNarrow-49"/>
       <use x="136.816406" xlink:href="#LiberationSansNarrow-56"/>
       <use x="182.421875" xlink:href="#LiberationSansNarrow-45"/>
       <use x="209.716797" xlink:href="#LiberationSansNarrow-48"/>
       <use x="255.322266" xlink:href="#LiberationSansNarrow-55"/>
      </g>
     </g>
    </g>
    <g id="xtick_5">
     <g id="line2d_5">
      <path clip-path="url(#pec3d7b1f7c)" d="M 261.598441 252.2 
L 261.598441 17.64 
" style="fill:none;stroke:#b0b0b0;stroke-dasharray:1.48,0.64;stroke-dashoffset:0;stroke-width:0.4;"/>
     </g>
     <g id="text_5">
      <!-- 2019-01 -->
      <defs>
       <path d="M 41.703125 35.796875 
Q 41.703125 26.609375 40.28125 19.703125 
Q 38.875 12.796875 36.234375 8.203125 
Q 33.59375 3.609375 29.8125 1.3125 
Q 26.03125 -0.984375 21.296875 -0.984375 
Q 18.0625 -0.984375 15.453125 -0.171875 
Q 12.84375 0.640625 10.8125 2.34375 
Q 8.796875 4.046875 7.328125 6.78125 
Q 5.859375 9.515625 4.984375 13.375 
L 11.921875 14.703125 
Q 13.03125 10.25 15.40625 8.171875 
Q 17.78125 6.109375 21.4375 6.109375 
Q 24.359375 6.109375 26.78125 7.78125 
Q 29.203125 9.46875 30.875 12.84375 
Q 32.5625 16.21875 33.546875 21.296875 
Q 34.46875 26.375 34.578125 33.203125 
Q 33.734375 30.90625 32.265625 29.09375 
Q 30.8125 27.296875 28.953125 26.046875 
Q 27.09375 24.8125 24.9375 24.140625 
Q 22.796875 23.484375 20.5625 23.484375 
Q 16.703125 23.484375 13.625 25.171875 
Q 10.546875 26.859375 8.375 29.875 
Q 6.203125 32.90625 5.03125 37.171875 
Q 3.859375 41.453125 3.859375 46.6875 
Q 3.859375 52 5.09375 56.296875 
Q 6.34375 60.59375 8.765625 63.59375 
Q 11.1875 66.609375 14.671875 68.21875 
Q 18.171875 69.828125 22.609375 69.828125 
Q 32.03125 69.828125 36.859375 61.328125 
Q 41.703125 52.828125 41.703125 35.796875 
z
M 33.890625 44.28125 
Q 33.890625 48.09375 33.125 51.453125 
Q 32.375 54.828125 30.9375 57.3125 
Q 29.5 59.8125 27.34375 61.25 
Q 25.203125 62.703125 22.359375 62.703125 
Q 19.78125 62.703125 17.703125 61.578125 
Q 15.625 60.453125 14.1875 58.375 
Q 12.75 56.296875 11.96875 53.3125 
Q 11.1875 50.34375 11.1875 46.6875 
Q 11.1875 43.21875 11.859375 40.234375 
Q 12.546875 37.25 13.953125 35.078125 
Q 15.375 32.90625 17.453125 31.65625 
Q 19.53125 30.421875 22.3125 30.421875 
Q 24.3125 30.421875 26.359375 31.25 
Q 28.421875 32.078125 30.078125 33.78125 
Q 31.734375 35.5 32.8125 38.109375 
Q 33.890625 40.71875 33.890625 44.28125 
z
" id="LiberationSansNarrow-57"/>
      </defs>
      <g transform="translate(240.531723 269.345625)scale(0.14 -0.14)">
       <use xlink:href="#LiberationSansNarrow-50"/>
       <use x="45.605469" xlink:href="#LiberationSansNarrow-48"/>
       <use x="91.210938" xlink:href="#LiberationSansNarrow-49"/>
       <use x="136.816406" xlink:href="#LiberationSansNarrow-57"/>
       <use x="182.421875" xlink:href="#LiberationSansNarrow-45"/>
       <use x="209.716797" xlink:href="#LiberationSansNarrow-48"/>
       <use x="255.322266" xlink:href="#LiberationSansNarrow-49"/>
      </g>
     </g>
    </g>
    <g id="xtick_6">
     <g id="line2d_6">
      <path clip-path="url(#pec3d7b1f7c)" d="M 312.391499 252.2 
L 312.391499 17.64 
" style="fill:none;stroke:#b0b0b0;stroke-dasharray:1.48,0.64;stroke-dashoffset:0;stroke-width:0.4;"/>
     </g>
     <g id="text_6">
      <!-- 2019-07 -->
      <g transform="translate(291.32478 269.345625)scale(0.14 -0.14)">
       <use xlink:href="#LiberationSansNarrow-50"/>
       <use x="45.605469" xlink:href="#LiberationSansNarrow-48"/>
       <use x="91.210938" xlink:href="#LiberationSansNarrow-49"/>
       <use x="136.816406" xlink:href="#LiberationSansNarrow-57"/>
       <use x="182.421875" xlink:href="#LiberationSansNarrow-45"/>
       <use x="209.716797" xlink:href="#LiberationSansNarrow-48"/>
       <use x="255.322266" xlink:href="#LiberationSansNarrow-55"/>
      </g>
     </g>
    </g>
    <g id="xtick_7">
     <g id="line2d_7">
      <path clip-path="url(#pec3d7b1f7c)" d="M 364.02643 252.2 
L 364.02643 17.64 
" style="fill:none;stroke:#b0b0b0;stroke-dasharray:1.48,0.64;stroke-dashoffset:0;stroke-width:0.4;"/>
     </g>
     <g id="text_7">
      <!-- 2020-01 -->
      <g transform="translate(342.959712 269.345625)scale(0.14 -0.14)">
       <use xlink:href="#LiberationSansNarrow-50"/>
       <use x="45.605469" xlink:href="#LiberationSansNarrow-48"/>
       <use x="91.210938" xlink:href="#LiberationSansNarrow-50"/>
       <use x="136.816406" xlink:href="#LiberationSansNarrow-48"/>
       <use x="182.421875" xlink:href="#LiberationSansNarrow-45"/>
       <use x="209.716797" xlink:href="#LiberationSansNarrow-48"/>
       <use x="255.322266" xlink:href="#LiberationSansNarrow-49"/>
      </g>
     </g>
    </g>
    <g id="xtick_8">
     <g id="line2d_8">
      <path clip-path="url(#pec3d7b1f7c)" d="M 415.100112 252.2 
L 415.100112 17.64 
" style="fill:none;stroke:#b0b0b0;stroke-dasharray:1.48,0.64;stroke-dashoffset:0;stroke-width:0.4;"/>
     </g>
     <g id="text_8">
      <!-- 2020-07 -->
      <g transform="translate(394.033394 269.345625)scale(0.14 -0.14)">
       <use xlink:href="#LiberationSansNarrow-50"/>
       <use x="45.605469" xlink:href="#LiberationSansNarrow-48"/>
       <use x="91.210938" xlink:href="#LiberationSansNarrow-50"/>
       <use x="136.816406" xlink:href="#LiberationSansNarrow-48"/>
       <use x="182.421875" xlink:href="#LiberationSansNarrow-45"/>
       <use x="209.716797" xlink:href="#LiberationSansNarrow-48"/>
       <use x="255.322266" xlink:href="#LiberationSansNarrow-55"/>
      </g>
     </g>
    </g>
    <g id="xtick_9">
     <g id="line2d_9">
      <path clip-path="url(#pec3d7b1f7c)" d="M 466.735044 252.2 
L 466.735044 17.64 
" style="fill:none;stroke:#b0b0b0;stroke-dasharray:1.48,0.64;stroke-dashoffset:0;stroke-width:0.4;"/>
     </g>
     <g id="text_9">
      <!-- 2021-01 -->
      <g transform="translate(445.668325 269.345625)scale(0.14 -0.14)">
       <use xlink:href="#LiberationSansNarrow-50"/>
       <use x="45.605469" xlink:href="#LiberationSansNarrow-48"/>
       <use x="91.210938" xlink:href="#LiberationSansNarrow-50"/>
       <use x="136.816406" xlink:href="#LiberationSansNarrow-49"/>
       <use x="182.421875" xlink:href="#LiberationSansNarrow-45"/>
       <use x="209.716797" xlink:href="#LiberationSansNarrow-48"/>
       <use x="255.322266" xlink:href="#LiberationSansNarrow-49"/>
      </g>
     </g>
    </g>
   </g>
   <g id="matplotlib.axis_2">
    <g id="ytick_1">
     <g id="line2d_10">
      <path clip-path="url(#pec3d7b1f7c)" d="M 52.94 212.270619 
L 476.15 212.270619 
" style="fill:none;stroke:#b0b0b0;stroke-dasharray:1.48,0.64;stroke-dashoffset:0;stroke-width:0.4;"/>
     </g>
     <g id="text_10">
      <!-- −3 -->
      <defs>
       <path d="M 4.046875 29.6875 
L 4.046875 36.8125 
L 43.890625 36.8125 
L 43.890625 29.6875 
z
" id="LiberationSansNarrow-8722"/>
       <path d="M 42 19 
Q 42 14.265625 40.75 10.546875 
Q 39.5 6.84375 37.0625 4.265625 
Q 34.625 1.703125 31.046875 0.359375 
Q 27.484375 -0.984375 22.859375 -0.984375 
Q 17.625 -0.984375 14.03125 0.609375 
Q 10.453125 2.203125 8.125 4.8125 
Q 5.8125 7.421875 4.640625 10.765625 
Q 3.46875 14.109375 3.125 17.671875 
L 10.546875 18.5 
Q 10.890625 15.765625 11.734375 13.515625 
Q 12.59375 11.28125 14.078125 9.671875 
Q 15.578125 8.0625 17.75 7.171875 
Q 19.921875 6.296875 22.859375 6.296875 
Q 28.328125 6.296875 31.421875 9.5625 
Q 34.515625 12.84375 34.515625 19.28125 
Q 34.515625 23.09375 33.125 25.40625 
Q 31.734375 27.734375 29.6875 29.03125 
Q 27.640625 30.328125 25.21875 30.765625 
Q 22.796875 31.203125 20.75 31.203125 
L 16.65625 31.203125 
L 16.65625 38.8125 
L 20.5625 38.8125 
Q 22.609375 38.8125 24.828125 39.328125 
Q 27.046875 39.84375 28.859375 41.1875 
Q 30.671875 42.53125 31.859375 44.828125 
Q 33.0625 47.125 33.0625 50.6875 
Q 33.0625 56.203125 30.375 59.390625 
Q 27.6875 62.59375 22.46875 62.59375 
Q 17.671875 62.59375 14.734375 59.609375 
Q 11.8125 56.640625 11.328125 51.21875 
L 4.109375 51.90625 
Q 4.546875 56.453125 6.125 59.8125 
Q 7.71875 63.1875 10.171875 65.40625 
Q 12.640625 67.625 15.8125 68.71875 
Q 19 69.828125 22.5625 69.828125 
Q 27.296875 69.828125 30.6875 68.375 
Q 34.078125 66.9375 36.21875 64.46875 
Q 38.375 62.015625 39.40625 58.6875 
Q 40.4375 55.375 40.4375 51.609375 
Q 40.4375 48.578125 39.75 45.9375 
Q 39.0625 43.3125 37.625 41.203125 
Q 36.1875 39.109375 33.953125 37.59375 
Q 31.734375 36.078125 28.609375 35.296875 
L 28.609375 35.109375 
Q 32.03125 34.671875 34.546875 33.21875 
Q 37.0625 31.78125 38.71875 29.625 
Q 40.375 27.484375 41.1875 24.75 
Q 42 22.015625 42 19 
z
" id="LiberationSansNarrow-51"/>
      </defs>
      <g transform="translate(32.847813 217.343432)scale(0.14 -0.14)">
       <use xlink:href="#LiberationSansNarrow-8722"/>
       <use x="47.900391" xlink:href="#LiberationSansNarrow-51"/>
      </g>
     </g>
    </g>
    <g id="ytick_2">
     <g id="line2d_11">
      <path clip-path="url(#pec3d7b1f7c)" d="M 52.94 165.832567 
L 476.15 165.832567 
" style="fill:none;stroke:#b0b0b0;stroke-dasharray:1.48,0.64;stroke-dashoffset:0;stroke-width:0.4;"/>
     </g>
     <g id="text_11">
      <!-- −2 -->
      <g transform="translate(32.847813 170.90538)scale(0.14 -0.14)">
       <use xlink:href="#LiberationSansNarrow-8722"/>
       <use x="47.900391" xlink:href="#LiberationSansNarrow-50"/>
      </g>
     </g>
    </g>
    <g id="ytick_3">
     <g id="line2d_12">
      <path clip-path="url(#pec3d7b1f7c)" d="M 52.94 119.394515 
L 476.15 119.394515 
" style="fill:none;stroke:#b0b0b0;stroke-dasharray:1.48,0.64;stroke-dashoffset:0;stroke-width:0.4;"/>
     </g>
     <g id="text_12">
      <!-- −1 -->
      <g transform="translate(32.847813 124.467328)scale(0.14 -0.14)">
       <use xlink:href="#LiberationSansNarrow-8722"/>
       <use x="47.900391" xlink:href="#LiberationSansNarrow-49"/>
      </g>
     </g>
    </g>
    <g id="ytick_4">
     <g id="line2d_13">
      <path clip-path="url(#pec3d7b1f7c)" d="M 52.94 72.956463 
L 476.15 72.956463 
" style="fill:none;stroke:#b0b0b0;stroke-dasharray:1.48,0.64;stroke-dashoffset:0;stroke-width:0.4;"/>
     </g>
     <g id="text_13">
      <!-- 0 -->
      <g transform="translate(39.554688 78.029276)scale(0.14 -0.14)">
       <use xlink:href="#LiberationSansNarrow-48"/>
      </g>
     </g>
    </g>
    <g id="ytick_5">
     <g id="line2d_14">
      <path clip-path="url(#pec3d7b1f7c)" d="M 52.94 26.518412 
L 476.15 26.518412 
" style="fill:none;stroke:#b0b0b0;stroke-dasharray:1.48,0.64;stroke-dashoffset:0;stroke-width:0.4;"/>
     </g>
     <g id="text_14">
      <!-- 1 -->
      <g transform="translate(39.554688 31.591224)scale(0.14 -0.14)">
       <use xlink:href="#LiberationSansNarrow-49"/>
      </g>
     </g>
    </g>
    <g id="text_15">
     <!-- скорость отставания, %г -->
     <defs>
      <path d="M 11.03125 26.65625 
Q 11.03125 22.125 11.5625 18.3125 
Q 12.109375 14.5 13.375 11.734375 
Q 14.65625 8.984375 16.75 7.46875 
Q 18.84375 5.953125 21.96875 5.953125 
Q 25.828125 5.953125 28.390625 8.484375 
Q 30.953125 11.03125 31.546875 16.3125 
L 38.875 15.71875 
Q 38.53125 12.453125 37.296875 9.421875 
Q 36.078125 6.390625 34.03125 4.09375 
Q 31.984375 1.8125 29 0.40625 
Q 26.03125 -0.984375 22.171875 -0.984375 
Q 17.09375 -0.984375 13.5 1.109375 
Q 9.90625 3.21875 7.6875 6.90625 
Q 5.46875 10.59375 4.46875 15.59375 
Q 3.46875 20.609375 3.46875 26.46875 
Q 3.46875 31.78125 4.203125 35.859375 
Q 4.9375 39.9375 6.21875 42.984375 
Q 7.515625 46.046875 9.265625 48.125 
Q 11.03125 50.203125 13.109375 51.4375 
Q 15.1875 52.6875 17.453125 53.25 
Q 19.734375 53.8125 22.078125 53.8125 
Q 25.734375 53.8125 28.5625 52.59375 
Q 31.390625 51.375 33.46875 49.25 
Q 35.546875 47.125 36.8125 44.234375 
Q 38.09375 41.359375 38.625 38.03125 
L 31.203125 37.359375 
Q 30.671875 41.75 28.375 44.328125 
Q 26.078125 46.921875 21.875 46.921875 
Q 18.796875 46.921875 16.71875 45.671875 
Q 14.65625 44.4375 13.375 41.921875 
Q 12.109375 39.40625 11.5625 35.59375 
Q 11.03125 31.78125 11.03125 26.65625 
z
" id="LiberationSansNarrow-1089"/>
      <path d="M 5.515625 52.828125 
L 12.703125 52.828125 
L 12.703125 29.6875 
Q 13.921875 29.6875 14.875 30.078125 
Q 15.828125 30.46875 16.875 31.6875 
Q 17.921875 32.90625 19.21875 35.15625 
Q 20.515625 37.40625 22.46875 41.15625 
L 28.375 52.828125 
L 35.890625 52.828125 
L 27.25 36.96875 
Q 25.4375 33.734375 24.109375 31.65625 
Q 22.796875 29.59375 22.125 28.90625 
L 36.234375 0 
L 28.21875 0 
L 17.140625 24.265625 
Q 16.359375 23.875 15.0625 23.578125 
Q 13.765625 23.296875 12.703125 23.296875 
L 12.703125 0 
L 5.515625 0 
z
" id="LiberationSansNarrow-1082"/>
      <path d="M 42.140625 26.46875 
Q 42.140625 12.59375 37.125 5.796875 
Q 32.125 -0.984375 22.609375 -0.984375 
Q 18.0625 -0.984375 14.515625 0.671875 
Q 10.984375 2.34375 8.515625 5.765625 
Q 6.0625 9.1875 4.765625 14.328125 
Q 3.46875 19.484375 3.46875 26.46875 
Q 3.46875 53.8125 22.859375 53.8125 
Q 27.875 53.8125 31.5625 52.09375 
Q 35.25 50.390625 37.59375 46.96875 
Q 39.9375 43.5625 41.03125 38.421875 
Q 42.140625 33.296875 42.140625 26.46875 
z
M 34.578125 26.46875 
Q 34.578125 32.625 33.8125 36.625 
Q 33.0625 40.625 31.546875 43.015625 
Q 30.03125 45.40625 27.859375 46.359375 
Q 25.6875 47.3125 23 47.3125 
Q 20.21875 47.3125 17.984375 46.3125 
Q 15.765625 45.3125 14.203125 42.890625 
Q 12.640625 40.484375 11.828125 36.46875 
Q 11.03125 32.46875 11.03125 26.46875 
Q 11.03125 20.3125 11.90625 16.28125 
Q 12.796875 12.25 14.328125 9.859375 
Q 15.875 7.46875 17.96875 6.484375 
Q 20.0625 5.515625 22.5625 5.515625 
Q 25.34375 5.515625 27.5625 6.46875 
Q 29.78125 7.421875 31.34375 9.8125 
Q 32.90625 12.203125 33.734375 16.25 
Q 34.578125 20.3125 34.578125 26.46875 
z
" id="LiberationSansNarrow-1086"/>
      <path d="M 42.140625 26.65625 
Q 42.140625 20.65625 41.359375 15.578125 
Q 40.578125 10.5 38.6875 6.828125 
Q 36.8125 3.171875 33.765625 1.09375 
Q 30.71875 -0.984375 26.21875 -0.984375 
Q 21.578125 -0.984375 18.078125 1.171875 
Q 14.59375 3.328125 12.796875 8.203125 
L 12.546875 8.203125 
Q 12.59375 8.109375 12.609375 7.328125 
Q 12.640625 6.546875 12.671875 5.375 
Q 12.703125 4.203125 12.71875 2.75 
Q 12.75 1.3125 12.75 -0.09375 
L 12.75 -20.75 
L 5.515625 -20.75 
L 5.515625 42.046875 
Q 5.515625 43.953125 5.484375 45.703125 
Q 5.46875 47.46875 5.4375 48.90625 
Q 5.421875 50.34375 5.375 51.359375 
Q 5.328125 52.390625 5.28125 52.828125 
L 12.25 52.828125 
Q 12.3125 52.6875 12.359375 51.8125 
L 12.5 49.703125 
Q 12.546875 48.4375 12.59375 47.015625 
Q 12.640625 45.609375 12.640625 44.34375 
L 12.796875 44.34375 
Q 13.765625 46.875 15.0625 48.65625 
Q 16.359375 50.4375 18.015625 51.578125 
Q 19.671875 52.734375 21.671875 53.25 
Q 23.6875 53.765625 26.21875 53.765625 
Q 30.71875 53.765625 33.765625 51.8125 
Q 36.8125 49.859375 38.6875 46.3125 
Q 40.578125 42.78125 41.359375 37.765625 
Q 42.140625 32.765625 42.140625 26.65625 
z
M 34.578125 26.46875 
Q 34.578125 31.34375 34.109375 35.15625 
Q 33.640625 38.96875 32.4375 41.59375 
Q 31.25 44.234375 29.296875 45.59375 
Q 27.34375 46.96875 24.359375 46.96875 
Q 21.96875 46.96875 19.84375 46.140625 
Q 17.71875 45.3125 16.125 42.96875 
Q 14.546875 40.625 13.640625 36.5 
Q 12.75 32.375 12.75 25.78125 
Q 12.75 20.171875 13.5 16.28125 
Q 14.265625 12.40625 15.71875 10.015625 
Q 17.1875 7.625 19.328125 6.5625 
Q 21.484375 5.515625 24.3125 5.515625 
Q 27.34375 5.515625 29.296875 6.921875 
Q 31.25 8.34375 32.4375 11.03125 
Q 33.640625 13.71875 34.109375 17.59375 
Q 34.578125 21.484375 34.578125 26.46875 
z
" id="LiberationSansNarrow-1088"/>
      <path d="M 1.421875 52.828125 
L 36.140625 52.828125 
L 36.140625 46.4375 
L 22.359375 46.4375 
L 22.359375 0 
L 15.1875 0 
L 15.1875 46.4375 
L 1.421875 46.4375 
z
" id="LiberationSansNarrow-1090"/>
      <path d="M 22.75 30.46875 
Q 30.953125 30.46875 35.15625 26.875 
Q 39.359375 23.296875 39.359375 15.53125 
Q 39.359375 11.921875 38.296875 9.03125 
Q 37.25 6.15625 35.171875 4.15625 
Q 33.109375 2.15625 30 1.078125 
Q 26.90625 0 22.796875 0 
L 5.671875 0 
L 5.671875 52.828125 
L 12.890625 52.828125 
L 12.890625 30.46875 
z
M 12.890625 6.203125 
L 21.6875 6.203125 
Q 24.46875 6.203125 26.390625 6.8125 
Q 28.328125 7.421875 29.5 8.609375 
Q 30.671875 9.8125 31.171875 11.546875 
Q 31.6875 13.28125 31.6875 15.53125 
Q 31.6875 20.125 29.359375 22.234375 
Q 27.046875 24.359375 21.734375 24.359375 
L 12.890625 24.359375 
z
" id="LiberationSansNarrow-1100"/>
      <path id="LiberationSansNarrow-32"/>
      <path d="M 16.546875 -0.984375 
Q 10.015625 -0.984375 6.734375 3.21875 
Q 3.46875 7.421875 3.46875 14.75 
Q 3.46875 19.96875 5.09375 23.3125 
Q 6.734375 26.65625 9.34375 28.5625 
Q 11.96875 30.46875 15.328125 31.203125 
Q 18.703125 31.9375 22.171875 32.03125 
L 31.9375 32.234375 
L 31.9375 35.109375 
Q 31.9375 38.375 31.375 40.671875 
Q 30.8125 42.96875 29.640625 44.375 
Q 28.46875 45.796875 26.734375 46.453125 
Q 25 47.125 22.609375 47.125 
Q 20.515625 47.125 18.84375 46.75 
Q 17.1875 46.390625 15.9375 45.4375 
Q 14.703125 44.484375 13.9375 42.84375 
Q 13.1875 41.21875 12.9375 38.71875 
L 5.421875 39.546875 
Q 5.8125 42.671875 6.9375 45.28125 
Q 8.0625 47.90625 10.109375 49.796875 
Q 12.15625 51.703125 15.25 52.75 
Q 18.359375 53.8125 22.796875 53.8125 
Q 30.953125 53.8125 35.078125 49.234375 
Q 39.203125 44.671875 39.203125 36.03125 
L 39.203125 13.28125 
Q 39.203125 9.375 40.03125 7.390625 
Q 40.875 5.421875 43.265625 5.421875 
Q 43.84375 5.421875 44.453125 5.515625 
Q 45.0625 5.609375 45.609375 5.765625 
L 45.609375 0.296875 
Q 44.234375 -0.09375 42.890625 -0.28125 
Q 41.546875 -0.484375 40.046875 -0.484375 
Q 37.984375 -0.484375 36.515625 0.171875 
Q 35.0625 0.828125 34.15625 2.171875 
Q 33.25 3.515625 32.765625 5.484375 
Q 32.28125 7.46875 32.125 10.109375 
L 31.9375 10.109375 
Q 30.765625 7.5625 29.375 5.515625 
Q 27.984375 3.46875 26.140625 2.03125 
Q 24.3125 0.59375 21.9375 -0.1875 
Q 19.578125 -0.984375 16.546875 -0.984375 
z
M 18.21875 5.609375 
Q 21.6875 5.609375 24.25 7.140625 
Q 26.8125 8.6875 28.515625 11.078125 
Q 30.21875 13.484375 31.078125 16.3125 
Q 31.9375 19.140625 31.9375 21.734375 
L 31.9375 26.078125 
L 24.03125 25.875 
Q 21.390625 25.828125 19 25.40625 
Q 16.609375 25 14.8125 23.78125 
Q 13.03125 22.5625 11.953125 20.359375 
Q 10.890625 18.171875 10.890625 14.59375 
Q 10.890625 10.296875 12.796875 7.953125 
Q 14.703125 5.609375 18.21875 5.609375 
z
" id="LiberationSansNarrow-1072"/>
      <path d="M 22.5625 52.828125 
Q 25.59375 52.828125 28.484375 52.234375 
Q 31.390625 51.65625 33.640625 50.140625 
Q 35.890625 48.640625 37.234375 46.09375 
Q 38.578125 43.5625 38.578125 39.59375 
Q 38.578125 37.015625 37.890625 35.03125 
Q 37.203125 33.0625 35.984375 31.640625 
Q 34.765625 30.21875 33.125 29.3125 
Q 31.5 28.421875 29.6875 27.984375 
L 29.6875 27.640625 
Q 31.84375 27.296875 33.734375 26.4375 
Q 35.640625 25.59375 37 24.09375 
Q 38.375 22.609375 39.171875 20.40625 
Q 39.984375 18.21875 39.984375 15.234375 
Q 39.984375 11.421875 38.765625 8.5625 
Q 37.546875 5.71875 35.375 3.8125 
Q 33.203125 1.90625 30.171875 0.953125 
Q 27.15625 0 23.484375 0 
L 5.671875 0 
L 5.671875 52.828125 
z
M 12.890625 6.5 
L 22.3125 6.5 
Q 25.09375 6.5 27 6.984375 
Q 28.90625 7.46875 30.078125 8.546875 
Q 31.25 9.625 31.78125 11.25 
Q 32.328125 12.890625 32.328125 15.1875 
Q 32.328125 17.625 31.765625 19.328125 
Q 31.203125 21.046875 29.953125 22.109375 
Q 28.71875 23.1875 26.703125 23.671875 
Q 24.703125 24.171875 21.875 24.171875 
L 12.890625 24.171875 
z
M 12.890625 46.140625 
L 12.890625 30.515625 
L 21.53125 30.515625 
Q 24.265625 30.515625 26.0625 30.984375 
Q 27.875 31.453125 29 32.390625 
Q 30.125 33.34375 30.5625 34.828125 
Q 31 36.328125 31 38.421875 
Q 31 42.4375 28.96875 44.28125 
Q 26.953125 46.140625 22.125 46.140625 
z
" id="LiberationSansNarrow-1074"/>
      <path d="M 12.890625 52.828125 
L 12.890625 30.46875 
L 32.375 30.46875 
L 32.375 52.828125 
L 39.59375 52.828125 
L 39.59375 0 
L 32.375 0 
L 32.375 24.078125 
L 12.890625 24.078125 
L 12.890625 0 
L 5.671875 0 
L 5.671875 52.828125 
z
" id="LiberationSansNarrow-1085"/>
      <path d="M 12.640625 52.828125 
L 12.640625 23.921875 
Q 12.640625 22.796875 12.59375 20.921875 
Q 12.546875 19.046875 12.46875 17.046875 
Q 12.40625 15.046875 12.359375 13.234375 
Q 12.3125 11.421875 12.25 10.40625 
L 32.28125 52.828125 
L 40.140625 52.828125 
L 40.140625 0 
L 33.25 0 
L 33.25 32.234375 
Q 33.25 33.15625 33.296875 34.578125 
L 33.40625 37.40625 
Q 33.453125 38.875 33.5 40.234375 
L 33.640625 42.625 
L 13.375 0 
L 5.71875 0 
L 5.71875 52.828125 
z
" id="LiberationSansNarrow-1080"/>
      <path d="M 21.4375 22.359375 
L 8.84375 0 
L 0.6875 0 
L 14.453125 23 
Q 9.234375 24.3125 6.859375 28.296875 
Q 4.5 32.28125 4.5 38.234375 
Q 4.5 45.515625 8.8125 49.171875 
Q 13.140625 52.828125 21.4375 52.828125 
L 38.71875 52.828125 
L 38.71875 0 
L 31.546875 0 
L 31.546875 22.359375 
z
M 31.546875 46.625 
L 22.171875 46.625 
Q 16.9375 46.625 14.546875 44.375 
Q 12.15625 42.140625 12.15625 37.59375 
Q 12.15625 33.015625 14.28125 30.734375 
Q 16.40625 28.46875 21.390625 28.46875 
L 31.546875 28.46875 
z
" id="LiberationSansNarrow-1103"/>
      <path d="M 15.4375 10.6875 
L 15.4375 2.484375 
Q 15.4375 -0.09375 15.265625 -2.21875 
Q 15.09375 -4.34375 14.671875 -6.171875 
Q 14.265625 -8.015625 13.671875 -9.625 
Q 13.09375 -11.234375 12.3125 -12.796875 
L 7.375 -12.796875 
Q 9.1875 -9.625 10.15625 -6.390625 
Q 11.140625 -3.171875 11.140625 0 
L 7.625 0 
L 7.625 10.6875 
z
" id="LiberationSansNarrow-44"/>
      <path d="M 69.96875 21.1875 
Q 69.96875 15.09375 68.9375 10.90625 
Q 67.921875 6.734375 66.1875 4.171875 
Q 64.453125 1.609375 62.125 0.5 
Q 59.8125 -0.59375 57.171875 -0.59375 
Q 54.546875 -0.59375 52.21875 0.5 
Q 49.90625 1.609375 48.21875 4.140625 
Q 46.53125 6.6875 45.546875 10.859375 
Q 44.578125 15.046875 44.578125 21.1875 
Q 44.578125 27.6875 45.53125 31.9375 
Q 46.484375 36.1875 48.1875 38.703125 
Q 49.90625 41.21875 52.25 42.21875 
Q 54.59375 43.21875 57.328125 43.21875 
Q 59.96875 43.21875 62.25 42.21875 
Q 64.546875 41.21875 66.25 38.703125 
Q 67.96875 36.1875 68.96875 31.9375 
Q 69.96875 27.6875 69.96875 21.1875 
z
M 21.09375 0 
L 14.890625 0 
L 51.8125 68.796875 
L 58.109375 68.796875 
z
M 15.765625 69.390625 
Q 18.3125 69.390625 20.609375 68.390625 
Q 22.90625 67.390625 24.609375 64.890625 
Q 26.3125 62.40625 27.3125 58.203125 
Q 28.328125 54 28.328125 47.609375 
Q 28.328125 41.453125 27.3125 37.25 
Q 26.3125 33.0625 24.609375 30.4375 
Q 22.90625 27.828125 20.578125 26.703125 
Q 18.265625 25.59375 15.625 25.59375 
Q 12.9375 25.59375 10.609375 26.703125 
Q 8.296875 27.828125 6.59375 30.421875 
Q 4.890625 33.015625 3.90625 37.203125 
Q 2.9375 41.40625 2.9375 47.609375 
Q 2.9375 54 3.90625 58.203125 
Q 4.890625 62.40625 6.609375 64.890625 
Q 8.34375 67.390625 10.6875 68.390625 
Q 13.03125 69.390625 15.765625 69.390625 
z
M 64.0625 21.1875 
Q 64.0625 26.03125 63.625 29.21875 
Q 63.1875 32.421875 62.328125 34.328125 
Q 61.46875 36.234375 60.203125 37.015625 
Q 58.9375 37.796875 57.328125 37.796875 
Q 55.671875 37.796875 54.375 36.984375 
Q 53.078125 36.1875 52.1875 34.28125 
Q 51.3125 32.375 50.875 29.171875 
Q 50.4375 25.984375 50.4375 21.1875 
Q 50.4375 16.546875 50.90625 13.421875 
Q 51.375 10.296875 52.21875 8.375 
Q 53.078125 6.453125 54.34375 5.609375 
Q 55.609375 4.78125 57.234375 4.78125 
Q 58.796875 4.78125 60.0625 5.609375 
Q 61.328125 6.453125 62.203125 8.375 
Q 63.09375 10.296875 63.578125 13.421875 
Q 64.0625 16.546875 64.0625 21.1875 
z
M 22.40625 47.609375 
Q 22.40625 52.390625 21.96875 55.5625 
Q 21.53125 58.734375 20.703125 60.640625 
Q 19.875 62.546875 18.625 63.328125 
Q 17.390625 64.109375 15.765625 64.109375 
Q 14.0625 64.109375 12.734375 63.296875 
Q 11.421875 62.5 10.546875 60.59375 
Q 9.671875 58.6875 9.234375 55.515625 
Q 8.796875 52.34375 8.796875 47.609375 
Q 8.796875 42.96875 9.25 39.796875 
Q 9.71875 36.625 10.5625 34.6875 
Q 11.421875 32.765625 12.71875 31.9375 
Q 14.015625 31.109375 15.671875 31.109375 
Q 17.1875 31.109375 18.421875 31.9375 
Q 19.671875 32.765625 20.546875 34.6875 
Q 21.4375 36.625 21.921875 39.796875 
Q 22.40625 42.96875 22.40625 47.609375 
z
" id="LiberationSansNarrow-37"/>
      <path d="M 27.546875 52.828125 
L 27.546875 46.4375 
L 12.890625 46.4375 
L 12.890625 0 
L 5.71875 0 
L 5.71875 52.828125 
z
" id="LiberationSansNarrow-1075"/>
     </defs>
     <g transform="translate(25.942813 200.593125)rotate(-90)scale(0.14 -0.14)">
      <use xlink:href="#LiberationSansNarrow-1089"/>
      <use x="41.015625" xlink:href="#LiberationSansNarrow-1082"/>
      <use x="76.871094" xlink:href="#LiberationSansNarrow-1086"/>
      <use x="122.476562" xlink:href="#LiberationSansNarrow-1088"/>
      <use x="168.082031" xlink:href="#LiberationSansNarrow-1086"/>
      <use x="213.6875" xlink:href="#LiberationSansNarrow-1089"/>
      <use x="254.703125" xlink:href="#LiberationSansNarrow-1090"/>
      <use x="292.251953" xlink:href="#LiberationSansNarrow-1100"/>
      <use x="334.976562" xlink:href="#LiberationSansNarrow-32"/>
      <use x="357.779297" xlink:href="#LiberationSansNarrow-1086"/>
      <use x="403.353516" xlink:href="#LiberationSansNarrow-1090"/>
      <use x="440.886719" xlink:href="#LiberationSansNarrow-1089"/>
      <use x="481.902344" xlink:href="#LiberationSansNarrow-1090"/>
      <use x="519.435547" xlink:href="#LiberationSansNarrow-1072"/>
      <use x="565.041016" xlink:href="#LiberationSansNarrow-1074"/>
      <use x="608.580078" xlink:href="#LiberationSansNarrow-1072"/>
      <use x="654.185547" xlink:href="#LiberationSansNarrow-1085"/>
      <use x="699.449219" xlink:href="#LiberationSansNarrow-1080"/>
      <use x="745.298828" xlink:href="#LiberationSansNarrow-1103"/>
      <use x="789.732422" xlink:href="#LiberationSansNarrow-44"/>
      <use x="812.535156" xlink:href="#LiberationSansNarrow-32"/>
      <use x="835.337891" xlink:href="#LiberationSansNarrow-37"/>
      <use x="908.238281" xlink:href="#LiberationSansNarrow-1075"/>
     </g>
    </g>
   </g>
   <g id="line2d_15">
    <path clip-path="url(#pec3d7b1f7c)" d="M 72.176818 87.981825 
L 72.457443 46.563714 
L 72.738067 83.741681 
L 73.018692 63.079646 
L 73.299317 82.762226 
L 73.579941 84.616689 
L 73.860566 83.367243 
L 74.141191 106.678155 
L 74.421815 84.773664 
L 74.70244 90.006206 
L 74.983064 85.409888 
L 75.263689 92.942607 
L 75.544314 95.583905 
L 75.824938 96.45752 
L 76.105563 48.903584 
L 76.386188 82.470576 
L 76.666812 84.100214 
L 76.947437 97.193103 
L 77.228061 103.825017 
L 77.508686 102.128436 
L 77.789311 89.220935 
L 78.069935 116.117426 
L 78.35056 113.348531 
L 78.631185 126.360764 
L 78.911809 107.984623 
L 79.192434 109.71649 
L 79.473058 154.343718 
L 79.753683 82.821499 
L 80.034308 112.594074 
L 80.314932 101.98293 
L 80.595557 106.672869 
L 81.156806 121.677352 
L 81.437431 117.719924 
L 81.718056 93.213316 
L 81.99868 104.277903 
L 82.279305 103.095925 
L 82.559929 107.748411 
L 82.840554 103.943525 
L 83.121179 103.668576 
L 83.963053 126.784182 
L 84.243677 94.203666 
L 84.524302 108.200924 
L 84.804926 99.489884 
L 85.085551 114.048458 
L 85.366176 96.733436 
L 85.6468 133.480544 
L 85.927425 88.885097 
L 86.20805 90.265452 
L 86.488674 83.34224 
L 86.769299 114.11144 
L 87.049923 100.120931 
L 87.330548 101.852806 
L 87.611173 137.054998 
L 87.891797 150.113238 
L 88.172422 65.863387 
L 88.453047 119.679674 
L 88.733671 120.691904 
L 89.014296 116.452391 
L 89.29492 125.331048 
L 89.575545 127.26509 
L 89.85617 77.014705 
L 90.136794 110.14914 
L 90.417419 90.074889 
L 90.698044 90.074889 
L 90.978668 95.02542 
L 91.259293 97.751899 
L 91.539917 84.002455 
L 91.820542 140.790883 
L 92.101167 162.485382 
L 92.381791 114.372052 
L 92.943041 114.372052 
L 93.223665 170.013961 
L 93.50429 60.258083 
L 93.784914 130.710664 
L 94.065539 142.638741 
L 94.626788 88.412114 
L 94.907413 73.905492 
L 95.188038 109.947644 
L 95.468662 69.092567 
L 96.029911 82.198727 
L 96.310536 74.605049 
L 96.871785 96.7 
L 97.15241 95.065224 
L 97.433035 100.958369 
L 97.713659 86.401534 
L 97.994284 61.06425 
L 98.274908 61.909416 
L 98.555533 65.240713 
L 98.836158 58.631428 
L 99.116782 105.038775 
L 99.397407 107.639237 
L 99.678032 95.758489 
L 99.958656 163.349254 
L 100.239281 124.991876 
L 100.519906 104.141087 
L 100.80053 102.218882 
L 101.081155 83.81216 
L 101.361779 122.791804 
L 101.642404 128.456554 
L 101.923029 83.961773 
L 102.203653 117.696295 
L 102.484278 117.696295 
L 102.764903 181.276355 
L 103.326152 111.21612 
L 103.606776 134.894845 
L 103.887401 102.862581 
L 104.168026 85.604896 
L 104.729275 98.585881 
L 105.0099 114.653018 
L 105.290524 141.105918 
L 105.571149 90.309767 
L 105.851773 114.389618 
L 106.132398 97.829015 
L 106.413023 109.881268 
L 106.693647 106.725196 
L 106.974272 111.298425 
L 107.254897 121.071638 
L 107.535521 182.509849 
L 107.816146 122.226654 
L 108.09677 98.14766 
L 108.377395 105.506635 
L 108.65802 98.765125 
L 108.938644 81.281549 
L 109.219269 148.430053 
L 109.499894 153.297947 
L 109.780518 162.436919 
L 110.341767 69.90593 
L 110.622392 94.76166 
L 110.903017 81.029816 
L 111.183641 59.302287 
L 111.464266 69.969796 
L 112.025515 131.716032 
L 112.586764 124.868235 
L 113.148014 69.635621 
L 113.428638 95.690102 
L 113.709263 89.810314 
L 113.989888 106.446015 
L 114.270512 113.091658 
L 114.551137 131.294068 
L 114.831761 103.163559 
L 115.112386 115.758827 
L 115.393011 94.931413 
L 115.673635 99.921853 
L 115.95426 73.366632 
L 116.234885 61.175918 
L 116.515509 83.219941 
L 116.796134 95.820216 
L 117.076759 119.457282 
L 117.357383 112.222284 
L 117.638008 79.573704 
L 117.918632 81.288743 
L 118.199257 93.839735 
L 118.479882 89.496655 
L 118.760506 117.97098 
L 119.041131 209.312933 
L 119.321756 112.184738 
L 119.60238 122.463459 
L 119.883005 127.782087 
L 120.163629 136.324021 
L 120.444254 87.728497 
L 120.724879 98.017992 
L 121.005503 121.671358 
L 121.286128 115.82609 
L 121.566753 98.830577 
L 121.847377 127.010254 
L 122.128002 136.997731 
L 122.408626 129.580194 
L 122.689251 98.916901 
L 122.969876 153.704361 
L 123.2505 125.874258 
L 123.531125 138.998531 
L 123.81175 121.030173 
L 124.092374 118.88071 
L 124.372999 133.959384 
L 124.653623 134.379361 
L 125.214873 101.926831 
L 125.495497 107.389469 
L 125.776122 129.720244 
L 126.056747 132.571758 
L 126.337371 158.688973 
L 126.89862 82.850979 
L 127.179245 135.091697 
L 127.45987 110.007464 
L 127.740494 115.6145 
L 128.021119 116.115599 
L 128.301744 107.645838 
L 128.582368 116.218763 
L 128.862993 100.956105 
L 129.143617 96.70058 
L 129.704867 85.482703 
L 129.985491 129.865833 
L 130.266116 129.702965 
L 130.546741 172.553425 
L 130.827365 142.407018 
L 131.10799 145.204013 
L 131.388614 155.537608 
L 131.949864 131.042857 
L 132.230488 124.341385 
L 132.511113 122.569613 
L 132.791738 97.68232 
L 133.072362 126.96498 
L 133.352987 123.789555 
L 133.633611 135.569449 
L 133.914236 127.311478 
L 134.194861 127.254848 
L 134.475485 163.442199 
L 134.75611 134.550306 
L 135.036735 138.716461 
L 135.317359 134.507212 
L 135.597984 134.908788 
L 135.878609 133.487762 
L 136.159233 127.42702 
L 136.439858 149.855284 
L 136.720482 126.102065 
L 137.001107 135.628936 
L 137.281732 150.693419 
L 137.842981 138.713868 
L 138.123606 147.404516 
L 138.40423 115.687237 
L 138.684855 145.492204 
L 139.246104 124.917367 
L 139.807353 114.609389 
L 140.087978 77.495516 
L 140.368603 128.849825 
L 140.649227 118.648438 
L 140.929852 184.555366 
L 141.210476 147.433015 
L 141.491101 147.433015 
L 141.771726 114.614537 
L 142.05235 112.491446 
L 142.332975 141.867494 
L 142.6136 136.208337 
L 142.894224 120.002169 
L 143.174849 174.464707 
L 143.455473 144.77862 
L 143.736098 144.77862 
L 144.016723 153.845586 
L 144.297347 121.549574 
L 144.577972 146.81267 
L 144.858597 103.771876 
L 145.419846 123.39043 
L 145.70047 125.822642 
L 145.981095 111.041731 
L 146.26172 110.330726 
L 146.542344 143.415782 
L 146.822969 120.380586 
L 147.103594 119.375744 
L 147.384218 122.366682 
L 147.664843 114.205276 
L 147.945467 129.811697 
L 148.226092 125.380533 
L 148.506717 137.272551 
L 148.787341 154.54836 
L 149.067966 129.945925 
L 149.348591 121.933599 
L 149.629215 128.304631 
L 150.190464 120.982284 
L 150.471089 139.381923 
L 150.751714 137.551063 
L 151.032338 99.97518 
L 151.312963 113.951433 
L 151.593588 99.835391 
L 151.874212 113.993963 
L 152.154837 111.263774 
L 152.435462 123.315226 
L 152.716086 146.946893 
L 152.996711 109.001839 
L 153.277335 171.897038 
L 153.55796 182.42627 
L 153.838585 176.456655 
L 154.399834 113.150145 
L 154.680459 145.273517 
L 154.961083 126.857919 
L 155.241708 138.57042 
L 155.522332 142.87084 
L 156.083582 125.343178 
L 156.644831 160.332711 
L 156.925456 155.477568 
L 157.20608 146.917073 
L 157.486705 132.414266 
L 158.047954 148.186425 
L 158.328579 176.992987 
L 158.609203 146.104962 
L 158.889828 150.829738 
L 159.170453 160.627558 
L 159.731702 160.627558 
L 160.012326 151.123182 
L 160.292951 156.005926 
L 160.573576 152.577146 
L 160.8542 159.21921 
L 161.134825 122.169542 
L 161.41545 122.169542 
L 161.696074 114.854496 
L 161.976699 140.626503 
L 162.257323 134.17307 
L 162.537948 135.450554 
L 162.818573 131.339122 
L 163.099197 146.101958 
L 163.379822 134.212354 
L 163.660447 150.427381 
L 163.941071 127.771001 
L 164.221696 117.782194 
L 164.50232 128.505851 
L 164.782945 130.576076 
L 165.06357 114.799036 
L 165.344194 134.331589 
L 165.624819 125.944865 
L 165.905444 131.165694 
L 166.186068 149.224134 
L 166.466693 127.110374 
L 166.747317 125.40128 
L 167.027942 122.085789 
L 167.308567 120.99602 
L 167.589191 116.377883 
L 167.869816 115.85946 
L 168.431065 138.64167 
L 168.71169 132.813132 
L 168.992315 150.678738 
L 169.272939 128.217292 
L 169.553564 122.003726 
L 169.834188 110.345749 
L 170.114813 112.350221 
L 170.395438 112.49898 
L 170.676062 101.421474 
L 170.956687 118.100183 
L 171.237312 113.476979 
L 171.517936 130.20072 
L 171.798561 140.251241 
L 172.079185 113.945837 
L 172.35981 123.926035 
L 172.640435 123.926035 
L 172.921059 115.00721 
L 173.201684 113.150004 
L 173.482309 127.487675 
L 173.762933 160.18096 
L 174.043558 124.294726 
L 174.324182 129.548065 
L 174.604807 130.785058 
L 175.166056 122.331081 
L 175.727306 106.206858 
L 176.00793 106.509379 
L 176.569179 119.468766 
L 176.849804 133.629548 
L 177.130429 136.621661 
L 177.411053 137.3831 
L 177.691678 123.27757 
L 177.972303 116.673622 
L 178.252927 141.172034 
L 178.533552 133.194953 
L 178.814176 112.978594 
L 179.094801 114.639468 
L 179.375426 101.898636 
L 179.65605 114.165548 
L 179.936675 115.790872 
L 180.2173 72.429657 
L 180.497924 130.426891 
L 180.778549 128.673494 
L 181.339798 135.107457 
L 181.620423 115.599292 
L 181.901047 110.220355 
L 182.462297 131.31175 
L 182.742921 129.036341 
L 183.023546 101.324685 
L 183.30417 113.335184 
L 183.584795 108.926098 
L 183.86542 133.263416 
L 184.146044 111.325667 
L 184.426669 125.437484 
L 184.707294 120.306153 
L 185.268543 134.977751 
L 185.829792 115.65107 
L 186.110417 100.173393 
L 186.391041 91.211736 
L 186.671666 129.418363 
L 186.952291 241.538182 
L 187.232915 118.413961 
L 187.51354 94.315282 
L 187.794165 149.627367 
L 188.074789 91.925216 
L 188.355414 59.242691 
L 188.636038 84.640795 
L 188.916663 93.180389 
L 189.197288 112.004912 
L 189.477912 114.262933 
L 189.758537 113.953484 
L 190.039162 103.744883 
L 190.319786 101.800929 
L 190.881035 141.538288 
L 191.16166 121.229694 
L 191.442285 164.804509 
L 191.722909 148.603562 
L 192.003534 153.753967 
L 192.284159 147.547458 
L 192.845408 98.609801 
L 193.126032 98.609801 
L 193.406657 129.209659 
L 193.687282 102.590461 
L 194.248531 141.111486 
L 194.80978 54.010433 
L 195.090405 138.904338 
L 195.371029 159.620684 
L 195.651654 136.245684 
L 196.212903 150.223098 
L 196.493528 150.496557 
L 196.774153 155.315818 
L 197.054777 148.401843 
L 197.335402 134.706804 
L 197.616026 108.304568 
L 197.896651 142.945112 
L 198.177276 144.628432 
L 198.4579 149.940999 
L 198.738525 142.629939 
L 199.299774 135.655574 
L 199.580399 134.55262 
L 199.861023 116.980743 
L 200.141648 114.72801 
L 200.422273 107.264451 
L 200.702897 111.694512 
L 200.983522 127.206551 
L 201.264147 125.986956 
L 201.544771 145.968223 
L 202.10602 107.41188 
L 202.386645 111.281929 
L 202.66727 151.693648 
L 202.947894 149.689771 
L 203.228519 141.916655 
L 203.509144 64.80544 
L 203.789768 85.902408 
L 204.070393 141.31312 
L 204.351018 137.027429 
L 204.631642 122.451424 
L 204.912267 122.451424 
L 205.192891 122.724136 
L 205.473516 119.323099 
L 205.754141 134.023274 
L 206.034765 116.066408 
L 206.31539 144.208313 
L 206.596015 137.788558 
L 206.876639 144.195206 
L 207.157264 129.616756 
L 207.437888 139.684685 
L 207.718513 109.441304 
L 207.999138 108.44388 
L 208.279762 116.971717 
L 208.841012 145.550854 
L 209.121636 111.856662 
L 209.402261 137.449028 
L 209.682885 146.956575 
L 209.96351 111.262988 
L 210.244135 96.970243 
L 210.524759 88.546153 
L 210.805384 84.693599 
L 211.086009 137.439796 
L 211.366633 129.119387 
L 211.927882 100.34367 
L 212.208507 100.295765 
L 212.489132 123.211173 
L 212.769756 126.529374 
L 213.050381 122.992048 
L 213.61163 130.64967 
L 213.892255 130.250294 
L 214.453504 146.148516 
L 214.734129 118.367885 
L 215.014753 142.798133 
L 215.295378 113.206366 
L 215.576003 125.091072 
L 215.856627 110.855886 
L 216.137252 125.786304 
L 216.417876 133.746213 
L 216.698501 119.692566 
L 216.979126 150.697195 
L 217.25975 130.275316 
L 217.540375 129.118373 
L 217.821 129.568748 
L 218.101624 137.863617 
L 218.382249 150.388417 
L 218.943498 121.338606 
L 219.504747 131.586665 
L 219.785372 28.301818 
L 220.065997 123.612836 
L 220.346621 120.959984 
L 220.90787 107.086645 
L 221.188495 154.541661 
L 221.749744 107.531602 
L 222.310994 93.425791 
L 222.591618 109.599326 
L 222.872243 112.078975 
L 223.152868 94.96508 
L 223.433492 106.29618 
L 223.714117 89.212148 
L 223.994741 94.393177 
L 224.836615 113.867414 
L 225.11724 82.745256 
L 225.397865 98.150859 
L 225.678489 91.791114 
L 225.959114 117.858326 
L 226.239738 129.043769 
L 226.520363 122.934627 
L 226.800988 122.704248 
L 227.081612 102.869421 
L 227.362237 125.386973 
L 227.642862 179.582747 
L 227.923486 127.899181 
L 228.204111 123.057715 
L 228.484735 115.431011 
L 228.76536 101.82766 
L 229.045985 113.051333 
L 229.326609 118.678207 
L 229.607234 117.186637 
L 229.887859 154.9807 
L 230.168483 177.494589 
L 230.449108 174.081718 
L 230.729732 118.650642 
L 231.010357 116.010911 
L 231.290982 108.964737 
L 231.571606 121.73737 
L 231.852231 108.119256 
L 232.132856 128.385809 
L 232.41348 125.219159 
L 232.694105 139.852962 
L 232.974729 127.344501 
L 233.255354 141.53352 
L 233.535979 163.574685 
L 234.097228 125.745557 
L 234.377853 129.449167 
L 234.658477 130.84111 
L 234.939102 149.629112 
L 235.219726 127.7855 
L 235.500351 128.806349 
L 235.780976 131.323202 
L 236.0616 124.417514 
L 236.342225 131.076061 
L 236.62285 131.637035 
L 236.903474 137.37323 
L 237.184099 119.439483 
L 237.464723 125.34842 
L 237.745348 116.884345 
L 238.025973 115.106118 
L 238.306597 114.996258 
L 238.587222 130.215426 
L 238.867847 119.401794 
L 239.148471 146.342507 
L 239.429096 134.286279 
L 239.709721 133.834485 
L 239.990345 127.198083 
L 240.27097 142.936907 
L 240.551594 137.286834 
L 240.832219 175.821104 
L 241.112844 115.20142 
L 241.393468 115.261716 
L 241.674093 87.771272 
L 241.954718 117.669819 
L 242.235342 100.946648 
L 242.796591 166.804846 
L 243.077216 154.27648 
L 243.357841 151.176462 
L 243.638465 165.152599 
L 243.91909 159.797704 
L 244.199715 168.073614 
L 244.480339 169.448979 
L 244.760964 138.009463 
L 245.041588 168.23431 
L 245.322213 149.103354 
L 245.602838 160.793324 
L 245.883462 160.793324 
L 246.164087 153.562145 
L 246.444712 153.616146 
L 247.005961 179.256162 
L 247.286585 156.993294 
L 247.56721 164.58405 
L 247.847835 137.764293 
L 248.128459 147.304331 
L 248.409084 165.591215 
L 248.689709 131.96638 
L 248.970333 146.352634 
L 249.250958 141.57501 
L 249.531582 145.363983 
L 249.812207 147.525065 
L 250.092832 166.489016 
L 250.373456 142.325909 
L 250.654081 147.422719 
L 250.934706 155.477588 
L 251.21533 150.00622 
L 251.495955 147.914628 
L 251.776579 157.280479 
L 252.057204 144.710976 
L 252.337829 166.116466 
L 252.618453 142.872194 
L 252.899078 194.38562 
L 253.740952 141.203327 
L 254.021576 152.372852 
L 254.302201 141.881169 
L 254.582826 143.013966 
L 254.86345 153.509905 
L 255.144075 142.2776 
L 255.4247 143.186841 
L 255.705324 142.88216 
L 255.985949 147.078492 
L 256.266574 142.478583 
L 256.547198 155.165423 
L 256.827823 176.94307 
L 257.108447 150.354033 
L 257.389072 146.243408 
L 257.669697 124.187578 
L 257.950321 135.896865 
L 258.230946 155.249605 
L 258.511571 148.389757 
L 258.792195 126.994344 
L 259.07282 124.510685 
L 259.353444 117.889113 
L 259.634069 135.36514 
L 259.914694 126.726144 
L 260.195318 144.960617 
L 260.756568 159.789063 
L 261.037192 149.124304 
L 261.317817 155.113918 
L 262.159691 155.113918 
L 262.440315 160.164844 
L 262.72094 168.177299 
L 263.001565 166.161822 
L 263.562814 166.197915 
L 263.843438 161.50437 
L 264.124063 170.624124 
L 264.404688 163.398849 
L 265.246562 188.956347 
L 265.527186 179.863832 
L 265.807811 176.742035 
L 266.088435 155.009798 
L 266.36906 174.007488 
L 266.649685 174.763405 
L 266.930309 163.03312 
L 267.210934 169.643833 
L 267.491559 157.662143 
L 267.772183 163.494474 
L 268.052808 163.726586 
L 268.333432 166.68124 
L 268.614057 178.335253 
L 269.455931 159.653575 
L 269.736556 159.471721 
L 270.01718 180.412255 
L 270.297805 175.509422 
L 270.578429 161.176158 
L 270.859054 171.220737 
L 271.139679 176.867674 
L 271.420303 171.528854 
L 271.700928 172.593387 
L 271.981553 181.626639 
L 272.262177 156.741827 
L 272.823426 188.163468 
L 273.384676 168.120163 
L 273.6653 181.398092 
L 273.945925 168.585277 
L 274.22655 150.080208 
L 274.507174 151.21539 
L 274.787799 167.650962 
L 275.068424 167.650962 
L 275.349048 167.041091 
L 276.190922 180.5187 
L 276.471547 196.544412 
L 277.032796 182.870978 
L 277.313421 191.97964 
L 277.594045 190.8655 
L 277.87467 191.457506 
L 278.155294 154.352487 
L 278.435919 144.861414 
L 278.716544 144.861414 
L 278.997168 136.544564 
L 279.277793 148.310768 
L 279.558418 147.939608 
L 279.839042 159.868063 
L 280.119667 158.714206 
L 280.400291 164.788334 
L 280.680916 161.46855 
L 280.961541 154.476341 
L 281.242165 158.071507 
L 281.52279 131.853123 
L 281.803415 157.091358 
L 282.084039 148.20824 
L 282.364664 178.896307 
L 282.645288 176.719854 
L 282.925913 168.336936 
L 283.206538 152.858309 
L 283.487162 158.916562 
L 283.767787 186.08142 
L 284.048412 164.384597 
L 284.329036 181.492891 
L 284.609661 157.683406 
L 284.890285 167.298746 
L 285.17091 168.547905 
L 285.732159 141.246343 
L 286.012784 143.367942 
L 286.293409 193.141577 
L 286.574033 188.84865 
L 286.854658 201.375766 
L 287.135282 177.956451 
L 287.415907 175.441998 
L 287.696532 50.526461 
L 287.977156 197.451238 
L 288.257781 172.288173 
L 288.538406 131.18913 
L 288.81903 191.98591 
L 289.380279 210.50959 
L 289.941529 158.357931 
L 290.222153 170.061989 
L 290.502778 174.557492 
L 290.783403 175.845358 
L 291.064027 159.908799 
L 291.344652 175.114267 
L 291.625277 150.519709 
L 291.905901 179.033634 
L 292.186526 127.845918 
L 292.46715 139.222539 
L 292.747775 131.350682 
L 293.0284 130.277133 
L 293.309024 139.918899 
L 293.589649 161.156922 
L 293.870274 149.379633 
L 294.150898 126.838589 
L 294.431523 153.317899 
L 294.712147 146.60648 
L 294.992772 150.029679 
L 295.273397 146.264817 
L 295.554021 194.686575 
L 295.834646 109.131959 
L 296.115271 88.64093 
L 296.395895 126.64565 
L 296.67652 111.503499 
L 296.957144 127.87962 
L 297.237769 124.129215 
L 297.518394 102.314368 
L 297.799018 109.298094 
L 298.360268 141.421808 
L 298.640892 118.064004 
L 298.921517 106.834792 
L 299.202141 116.80242 
L 299.482766 121.765147 
L 300.044015 126.42911 
L 300.32464 134.045541 
L 300.885889 119.822857 
L 301.166514 133.798948 
L 301.447138 115.919264 
L 301.727763 107.337292 
L 302.008388 131.908248 
L 302.289012 113.783704 
L 302.569637 151.903813 
L 303.130886 172.172428 
L 303.411511 121.612073 
L 303.692135 120.841922 
L 304.253385 151.845697 
L 304.534009 156.887541 
L 304.814634 126.234238 
L 305.095259 139.423435 
L 305.375883 140.056216 
L 305.656508 151.758872 
L 305.937132 131.92389 
L 306.217757 129.076679 
L 306.498382 128.038098 
L 307.059631 151.083923 
L 307.340256 157.485037 
L 307.62088 137.7479 
L 307.901505 134.706135 
L 308.18213 127.771072 
L 308.462754 145.339785 
L 308.743379 149.937297 
L 309.024003 172.037941 
L 309.304628 148.732908 
L 309.585253 139.835265 
L 309.865877 171.403734 
L 310.427127 137.659105 
L 310.707751 126.694309 
L 310.988376 139.82123 
L 311.269 138.739559 
L 311.549625 147.503803 
L 311.83025 140.297886 
L 312.110874 124.031807 
L 312.391499 158.429975 
L 312.672124 160.319719 
L 312.952748 168.107694 
L 313.233373 141.610289 
L 313.513997 138.879072 
L 313.794622 151.637464 
L 314.075247 151.523744 
L 314.636496 130.783707 
L 315.197745 120.290884 
L 315.47837 156.659306 
L 315.758994 105.825096 
L 316.600868 142.904626 
L 316.881493 156.543537 
L 317.162118 150.089611 
L 317.442742 159.618367 
L 317.723367 146.712785 
L 318.003991 145.416326 
L 318.284616 148.27265 
L 318.565241 140.951738 
L 318.845865 145.654154 
L 319.12649 141.751592 
L 319.407115 152.95011 
L 319.687739 146.360161 
L 319.968364 145.976656 
L 320.248988 134.862586 
L 320.529613 138.328182 
L 320.810238 144.942548 
L 321.090862 142.109089 
L 321.371487 150.934626 
L 321.652112 148.750646 
L 321.932736 149.689123 
L 322.213361 150.122378 
L 322.493985 132.396043 
L 323.055235 151.115303 
L 323.335859 131.807446 
L 323.616484 122.114866 
L 323.897109 146.530327 
L 324.177733 144.612312 
L 324.458358 155.297575 
L 325.019607 128.546627 
L 325.300232 127.967706 
L 325.580856 118.998609 
L 325.861481 134.85099 
L 326.142106 134.7083 
L 326.42273 143.14117 
L 326.703355 146.860201 
L 326.98398 131.531934 
L 327.264604 135.32103 
L 327.545229 132.992666 
L 327.825853 126.546452 
L 328.106478 110.618617 
L 328.387103 110.646198 
L 328.667727 139.046797 
L 328.948352 120.724097 
L 329.509601 148.853372 
L 329.790226 146.131485 
L 330.07085 146.978383 
L 330.351475 137.284215 
L 330.6321 133.395171 
L 330.912724 116.679051 
L 331.193349 132.265676 
L 331.473974 120.429847 
L 331.754598 123.230146 
L 332.035223 124.779581 
L 332.315847 142.545061 
L 332.596472 145.706094 
L 332.877097 122.716725 
L 333.157721 123.454991 
L 333.438346 125.451812 
L 333.718971 144.647022 
L 333.999595 114.27641 
L 334.28022 120.849547 
L 334.560844 113.603304 
L 334.841469 137.082497 
L 335.122094 113.033854 
L 335.402718 147.746214 
L 335.683343 129.007074 
L 335.963968 141.52772 
L 336.244592 122.450922 
L 336.525217 116.898028 
L 336.805841 147.9312 
L 337.367091 131.431843 
L 337.647715 131.751245 
L 337.92834 141.377091 
L 338.208965 142.632376 
L 338.489589 133.517075 
L 338.770214 149.253641 
L 339.050838 129.830327 
L 339.331463 143.554198 
L 339.612088 145.633508 
L 339.892712 139.719321 
L 340.173337 127.908524 
L 340.453962 145.390203 
L 340.734586 128.891435 
L 341.015211 126.042453 
L 341.295835 132.596769 
L 341.57646 130.67997 
L 341.857085 155.743232 
L 342.137709 160.202329 
L 342.418334 157.40359 
L 342.698959 119.650003 
L 342.979583 130.110019 
L 343.260208 144.783895 
L 343.540833 119.803993 
L 343.821457 115.894926 
L 344.102082 103.693518 
L 344.663331 126.774493 
L 344.943956 123.32683 
L 345.22458 107.930988 
L 345.505205 130.481716 
L 345.78583 120.912737 
L 346.066454 130.590581 
L 346.347079 147.640492 
L 346.627703 138.231313 
L 346.908328 140.428219 
L 347.188953 131.50535 
L 347.469577 132.219705 
L 347.750202 115.213396 
L 348.030827 115.213396 
L 348.311451 123.395223 
L 348.592076 154.634456 
L 348.8727 132.26945 
L 349.153325 124.48898 
L 349.43395 142.658713 
L 349.714574 139.171802 
L 349.995199 139.573296 
L 350.275824 137.511842 
L 350.556448 132.504002 
L 350.837073 123.016678 
L 351.117697 125.71776 
L 351.398322 124.827974 
L 351.678947 125.049444 
L 351.959571 135.555169 
L 352.240196 137.496754 
L 352.520821 121.401075 
L 352.801445 129.540558 
L 353.08207 122.204175 
L 353.362694 131.491988 
L 353.643319 106.175903 
L 353.923944 98.549481 
L 354.204568 103.606025 
L 354.485193 129.400248 
L 354.765818 111.062625 
L 355.607691 134.742276 
L 356.168941 131.687891 
L 356.449565 136.388298 
L 356.73019 135.580524 
L 357.010815 135.964537 
L 357.291439 131.387107 
L 357.572064 122.269831 
L 357.852688 117.238076 
L 358.133313 116.957357 
L 358.413938 135.268765 
L 358.694562 121.034113 
L 358.975187 121.711315 
L 359.255812 120.848981 
L 359.536436 134.233198 
L 359.817061 132.534964 
L 360.097685 145.068708 
L 360.37831 131.700676 
L 360.658935 143.568518 
L 360.939559 115.460672 
L 361.220184 109.210542 
L 361.500809 97.611905 
L 361.781433 116.593749 
L 362.062058 111.63886 
L 362.342683 103.601316 
L 362.903932 122.47276 
L 363.184556 124.691084 
L 363.745806 107.444259 
L 364.307055 107.444259 
L 364.868304 116.874394 
L 365.429553 100.270445 
L 365.710178 107.079314 
L 365.990803 107.079314 
L 366.271427 105.730318 
L 366.552052 101.642033 
L 366.832677 116.144265 
L 367.113301 105.344368 
L 367.393926 107.219659 
L 367.67455 102.507817 
L 367.955175 84.198663 
L 368.2358 116.124195 
L 368.516424 107.821079 
L 368.797049 107.345573 
L 369.077674 108.982598 
L 369.358298 97.678457 
L 369.638923 95.953359 
L 369.919547 91.874467 
L 370.200172 89.883767 
L 370.480797 97.574392 
L 370.761421 96.852076 
L 371.042046 108.080663 
L 371.322671 101.042532 
L 372.164544 117.325668 
L 372.445169 114.851499 
L 373.006418 131.212109 
L 373.287043 113.000842 
L 373.567668 113.814832 
L 373.848292 115.327429 
L 374.128917 122.836194 
L 374.409541 109.023335 
L 374.690166 131.116676 
L 374.970791 135.430307 
L 375.251415 121.903999 
L 375.53204 114.468996 
L 375.812665 115.990735 
L 376.093289 125.377459 
L 376.654538 110.46587 
L 376.935163 114.739901 
L 377.215788 110.934016 
L 377.496412 118.086404 
L 377.777037 112.352939 
L 378.057662 112.616952 
L 378.338286 106.501277 
L 378.618911 92.817168 
L 378.899536 129.660043 
L 379.18016 140.30532 
L 379.460785 140.30532 
L 379.741409 144.105902 
L 380.022034 132.166708 
L 380.302659 141.780544 
L 380.583283 144.108584 
L 380.863908 157.88724 
L 381.144533 157.88724 
L 381.425157 116.462339 
L 381.986406 134.995194 
L 382.267031 162.960389 
L 382.547656 124.673834 
L 382.82828 130.009938 
L 383.108905 111.150884 
L 383.38953 111.150884 
L 383.670154 49.223399 
L 383.950779 105.302574 
L 384.231403 43.281527 
L 384.512028 32.168748 
L 384.792653 42.331704 
L 385.073277 33.054684 
L 385.353902 75.798116 
L 385.634527 57.056279 
L 385.915151 71.255073 
L 386.195776 74.531342 
L 386.4764 106.878509 
L 386.757025 96.643877 
L 387.318274 36.625553 
L 387.598899 67.809359 
L 387.879524 113.211397 
L 388.160148 101.404322 
L 388.440773 103.982389 
L 388.721397 81.544921 
L 389.002022 100.587207 
L 389.282647 176.74188 
L 389.563271 128.554333 
L 389.843896 128.641374 
L 390.124521 118.988223 
L 390.405145 127.779058 
L 390.68577 132.236974 
L 390.966394 117.167771 
L 391.247019 90.961109 
L 391.808268 165.434714 
L 392.088893 64.861092 
L 392.369518 109.877242 
L 392.650142 101.415447 
L 392.930767 109.209192 
L 393.492016 97.353606 
L 393.772641 109.027635 
L 394.33389 94.14727 
L 394.614515 106.066979 
L 394.895139 98.106842 
L 395.175764 110.543472 
L 395.456389 100.286072 
L 395.737013 121.727901 
L 396.017638 89.849151 
L 396.298262 109.326385 
L 396.578887 111.021476 
L 396.859512 131.413415 
L 397.140136 119.883125 
L 397.420761 140.21203 
L 397.701386 126.676605 
L 397.98201 129.127882 
L 398.262635 145.991954 
L 398.543259 145.991954 
L 399.104509 116.784996 
L 399.385133 128.659101 
L 399.665758 172.449548 
L 399.946383 123.441599 
L 400.227007 101.605553 
L 400.507632 102.594471 
L 400.788256 100.646135 
L 401.068881 100.646135 
L 401.349506 89.395381 
L 401.63013 134.84239 
L 401.910755 128.711559 
L 402.19138 128.361429 
L 402.472004 121.424995 
L 402.752629 118.903642 
L 403.033253 138.945643 
L 403.313878 137.663662 
L 403.594503 142.236047 
L 403.875127 102.981437 
L 404.155752 125.75179 
L 404.436377 128.535161 
L 404.717001 118.088497 
L 404.997626 122.1193 
L 405.27825 118.038952 
L 405.558875 147.606392 
L 405.8395 136.858138 
L 406.120124 137.128864 
L 406.400749 125.388704 
L 406.681374 138.364781 
L 406.961998 86.837414 
L 407.242623 151.484995 
L 407.523247 128.820984 
L 407.803872 156.098991 
L 408.084497 118.069653 
L 408.365121 131.476131 
L 408.926371 142.870367 
L 409.206995 157.675826 
L 409.48762 146.731033 
L 409.768244 130.72523 
L 410.048869 136.532186 
L 410.329494 134.521907 
L 410.610118 129.148918 
L 410.890743 119.222862 
L 411.171368 102.616987 
L 411.451992 137.090188 
L 411.732617 111.889135 
L 412.013241 137.673913 
L 412.293866 132.706609 
L 412.574491 139.450441 
L 412.855115 129.082918 
L 413.13574 129.568531 
L 413.416365 127.666033 
L 413.696989 114.213865 
L 413.977614 148.606147 
L 414.258239 148.031289 
L 414.538863 142.526627 
L 415.100112 92.090068 
L 415.380737 100.86609 
L 415.661362 152.609264 
L 415.941986 131.556598 
L 416.222611 122.909852 
L 416.503236 142.69635 
L 416.78386 150.259035 
L 417.064485 132.30569 
L 417.345109 134.177441 
L 417.625734 118.000519 
L 417.906359 127.103347 
L 418.186983 131.566934 
L 418.467608 125.522466 
L 418.748233 111.395499 
L 419.028857 113.928441 
L 419.309482 125.872057 
L 419.590106 123.760526 
L 419.870731 117.751549 
L 420.712605 131.553101 
L 420.99323 108.57135 
L 421.273854 124.553527 
L 421.554479 123.977831 
L 421.835103 143.197904 
L 422.115728 140.668315 
L 422.396353 141.817135 
L 422.676977 134.978205 
L 422.957602 148.083174 
L 423.238227 175.371739 
L 423.518851 160.453978 
L 423.799476 152.161891 
L 424.0801 155.427395 
L 424.360725 152.666929 
L 424.64135 147.471759 
L 424.921974 151.858407 
L 425.202599 154.285676 
L 425.483224 162.3491 
L 426.044473 148.281114 
L 426.325097 155.094647 
L 426.605722 152.063689 
L 426.886347 158.894798 
L 427.166971 175.58953 
L 427.447596 161.460952 
L 427.728221 141.460317 
L 428.008845 143.765836 
L 428.28947 143.474971 
L 428.570094 153.828959 
L 428.850719 149.699254 
L 429.131344 149.763341 
L 429.411968 120.719046 
L 429.692593 144.607702 
L 429.973218 134.719638 
L 430.253842 137.116303 
L 430.534467 147.626532 
L 430.815092 145.588851 
L 431.095716 173.189954 
L 431.376341 163.585876 
L 431.93759 133.556624 
L 432.498839 171.73782 
L 432.779464 157.70376 
L 433.060089 151.750349 
L 433.340713 152.486782 
L 433.621338 142.678544 
L 433.901962 145.098484 
L 434.463212 133.147654 
L 434.743836 137.383925 
L 435.024461 127.379446 
L 435.305086 142.840524 
L 435.58571 141.220868 
L 435.866335 161.447461 
L 436.146959 133.707365 
L 436.427584 122.301577 
L 436.708209 131.765792 
L 436.988833 154.130884 
L 437.269458 159.051206 
L 437.550083 161.235361 
L 437.830707 161.59039 
L 438.111332 171.889926 
L 438.391956 149.666402 
L 438.672581 109.804779 
L 438.953206 137.916302 
L 439.23383 138.950037 
L 439.514455 81.597335 
L 439.79508 101.335079 
L 440.075704 78.655381 
L 440.356329 132.020321 
L 440.636953 117.86203 
L 440.917578 123.562263 
L 441.198203 126.6194 
L 441.478827 155.771656 
L 441.759452 142.917269 
L 442.320701 151.042667 
L 442.601326 146.565083 
L 442.88195 81.568363 
L 443.162575 160.627475 
L 443.4432 133.337867 
L 443.723824 139.528899 
L 444.004449 118.846405 
L 444.565698 148.994871 
L 444.846323 172.550346 
L 445.126947 134.450142 
L 445.407572 116.790552 
L 445.688197 111.880188 
L 446.249446 142.218677 
L 446.530071 138.721877 
L 446.810695 126.278578 
L 447.09132 127.906815 
L 447.933194 144.505375 
L 448.213818 133.032253 
L 448.494443 135.729617 
L 448.775068 106.491374 
L 449.055692 115.432994 
L 449.336317 108.582831 
L 449.616942 121.489444 
L 449.897566 119.009561 
L 450.178191 129.762055 
L 450.458815 124.388594 
L 450.73944 123.985769 
L 451.020065 170.274423 
L 451.300689 140.1654 
L 451.581314 130.583041 
L 451.861939 145.78625 
L 452.142563 148.935218 
L 452.703812 170.956307 
L 452.984437 141.06434 
L 453.265062 150.417923 
L 453.545686 154.891572 
L 453.826311 154.742679 
L 454.106936 147.406856 
L 454.38756 153.89159 
L 454.668185 154.224261 
L 454.948809 146.293083 
L 455.510059 163.830379 
L 455.790683 156.24748 
L 456.071308 158.862117 
L 456.913182 181.750244 
L 456.913182 181.750244 
" style="fill:none;stroke:#1f77b4;stroke-linecap:square;stroke-width:1.5;"/>
   </g>
   <g id="line2d_16">
    <path clip-path="url(#pec3d7b1f7c)" d="M 72.176818 96.959647 
L 72.457443 97.33159 
L 72.738067 98.393519 
L 73.018692 98.494133 
L 73.579941 99.262187 
L 74.141191 99.739809 
L 74.421815 99.708767 
L 74.983064 100.210756 
L 75.544314 100.794404 
L 75.824938 100.924246 
L 76.105563 100.684369 
L 76.386188 100.99892 
L 76.666812 100.755593 
L 77.508686 100.538861 
L 77.789311 100.207924 
L 78.35056 100.808171 
L 78.631185 101.093855 
L 79.192434 100.627366 
L 79.473058 101.24591 
L 79.753683 100.978076 
L 80.034308 100.969474 
L 80.595557 100.183891 
L 81.156806 99.782289 
L 81.437431 99.586367 
L 81.718056 99.240938 
L 81.99868 99.182522 
L 82.840554 98.44779 
L 83.121179 98.104531 
L 83.401803 97.963999 
L 83.682428 97.649463 
L 84.243677 96.416958 
L 84.524302 96.323953 
L 84.804926 95.847854 
L 85.366176 95.419768 
L 85.6468 95.709155 
L 86.488674 93.426631 
L 86.769299 93.313318 
L 87.330548 92.54686 
L 87.611173 92.58259 
L 87.891797 92.14279 
L 88.172422 91.053378 
L 88.453047 91.375559 
L 90.978668 86.463196 
L 91.539917 85.781065 
L 91.820542 86.202741 
L 92.101167 86.145193 
L 92.381791 85.712486 
L 93.223665 86.664147 
L 93.50429 85.38908 
L 93.784914 86.216299 
L 94.065539 86.494829 
L 94.346164 86.565824 
L 94.626788 86.842927 
L 94.907413 86.877071 
L 95.188038 87.056225 
L 95.468662 86.648751 
L 95.749287 86.791683 
L 96.591161 86.934846 
L 97.15241 87.568378 
L 97.433035 87.596897 
L 97.713659 87.406193 
L 97.994284 87.367548 
L 98.836158 88.494087 
L 99.116782 89.217287 
L 99.678032 90.113513 
L 99.958656 90.941342 
L 100.239281 90.62344 
L 100.80053 90.538418 
L 101.081155 90.168411 
L 101.361779 90.111118 
L 101.923029 89.01559 
L 102.203653 89.129036 
L 102.484278 88.674275 
L 102.764903 89.289798 
L 103.045527 89.459044 
L 103.606776 88.5873 
L 103.887401 87.82068 
L 104.168026 87.588977 
L 105.0099 88.064086 
L 105.290524 87.901386 
L 105.571149 87.11568 
L 105.851773 86.706897 
L 106.132398 85.891519 
L 106.974272 84.971588 
L 107.254897 84.934398 
L 107.535521 84.602486 
L 107.816146 83.078577 
L 108.09677 82.56947 
L 108.377395 82.584536 
L 108.938644 82.473792 
L 109.499894 84.129084 
L 110.061143 85.626413 
L 110.341767 86.089469 
L 110.903017 87.500052 
L 111.183641 88.163939 
L 111.744891 90.530378 
L 112.025515 91.092935 
L 112.867389 91.076991 
L 113.148014 91.665615 
L 113.428638 92.661043 
L 114.270512 93.986995 
L 114.551137 94.650039 
L 114.831761 94.899312 
L 115.393011 95.770831 
L 116.234885 97.094458 
L 117.076759 99.606851 
L 117.638008 99.813635 
L 118.199257 101.267832 
L 118.760506 102.84568 
L 119.041131 105.013649 
L 120.163629 107.842041 
L 120.444254 107.691257 
L 120.724879 108.019549 
L 121.566753 111.044374 
L 122.128002 113.583903 
L 124.092374 120.722732 
L 124.653623 123.250851 
L 125.495497 125.905968 
L 125.776122 126.555702 
L 126.056747 126.873293 
L 126.617996 128.261094 
L 126.89862 128.504474 
L 127.45987 130.165953 
L 128.301744 133.577048 
L 128.862993 135.141534 
L 129.143617 135.449359 
L 129.704867 135.030919 
L 130.546741 137.104215 
L 130.827365 136.994615 
L 132.230488 139.136477 
L 133.072362 141.111791 
L 133.914236 143.036889 
L 136.439858 146.723535 
L 136.720482 146.834332 
L 137.281732 147.908592 
L 138.684855 149.21919 
L 138.965479 149.322819 
L 139.526729 150.070331 
L 139.807353 150.540479 
L 140.087978 150.386828 
L 140.368603 150.833322 
L 140.649227 151.015025 
L 140.929852 151.822651 
L 141.210476 151.965232 
L 141.491101 152.730484 
L 142.05235 153.102869 
L 142.6136 153.813908 
L 143.174849 154.196981 
L 143.455473 153.474892 
L 143.736098 153.248869 
L 144.016723 153.169362 
L 144.297347 152.731956 
L 144.577972 152.808113 
L 144.858597 152.577981 
L 145.139221 152.87073 
L 145.70047 152.975948 
L 146.26172 152.545561 
L 146.542344 152.845213 
L 146.822969 152.831102 
L 147.384218 153.324983 
L 147.664843 153.386375 
L 147.945467 153.706095 
L 148.506717 153.933971 
L 148.787341 153.841702 
L 149.067966 153.386171 
L 149.348591 153.340399 
L 149.90984 153.647121 
L 150.471089 153.588421 
L 151.032338 153.214131 
L 151.312963 153.685346 
L 151.593588 153.682369 
L 151.874212 153.91396 
L 152.996711 153.034515 
L 153.277335 153.417332 
L 153.838585 152.28911 
L 154.399834 150.672679 
L 154.680459 150.733336 
L 154.961083 150.231411 
L 155.522332 149.707391 
L 155.802957 149.236167 
L 156.083582 148.543149 
L 156.364206 148.237849 
L 156.644831 148.115058 
L 157.767329 146.965991 
L 158.328579 146.80262 
L 158.609203 146.393313 
L 159.170453 146.743084 
L 160.012326 146.638595 
L 160.292951 146.807204 
L 160.8542 146.666434 
L 161.134825 146.45023 
L 161.696074 147.131095 
L 161.976699 147.413888 
L 162.257323 147.30105 
L 163.099197 147.380336 
L 163.379822 146.983736 
L 164.50232 146.577689 
L 165.06357 145.746567 
L 165.344194 145.900348 
L 166.186068 145.884422 
L 166.466693 145.679062 
L 168.150441 146.065389 
L 168.431065 146.206578 
L 168.992315 146.292851 
L 169.834188 144.636244 
L 170.114813 144.667868 
L 170.956687 143.83066 
L 171.237312 143.278254 
L 171.798561 142.766804 
L 172.079185 142.127255 
L 173.201684 140.943594 
L 173.482309 140.965278 
L 173.762933 141.190259 
L 174.043558 140.785269 
L 174.604807 140.526385 
L 175.446681 139.810759 
L 176.00793 138.779901 
L 176.849804 137.858343 
L 177.972303 135.718065 
L 178.252927 135.579604 
L 178.814176 134.875162 
L 179.094801 134.95115 
L 179.65605 134.563009 
L 180.2173 133.700805 
L 180.497924 134.183824 
L 181.901047 131.915157 
L 182.462297 131.55677 
L 182.742921 131.184176 
L 183.584795 129.026771 
L 184.426669 127.652142 
L 184.987918 126.599305 
L 185.268543 126.299834 
L 186.671666 123.274679 
L 186.952291 124.073066 
L 187.51354 121.555035 
L 187.794165 121.556471 
L 188.636038 118.165119 
L 189.197288 116.340272 
L 190.881035 111.940783 
L 191.16166 110.937575 
L 191.442285 110.665196 
L 192.003534 109.928291 
L 192.564783 109.37167 
L 193.126032 109.106446 
L 193.406657 109.483377 
L 194.248531 109.315435 
L 194.80978 108.106981 
L 195.371029 109.540734 
L 196.212903 108.850495 
L 197.335402 107.660378 
L 197.616026 107.182877 
L 197.896651 107.297406 
L 198.4579 107.099682 
L 199.299774 105.943786 
L 199.861023 104.956823 
L 200.422273 104.799388 
L 200.702897 104.93371 
L 200.983522 105.324864 
L 201.544771 105.306559 
L 201.825396 104.591536 
L 202.386645 102.847591 
L 202.947894 102.596646 
L 203.228519 102.312131 
L 203.509144 101.805559 
L 204.070393 102.55745 
L 204.631642 101.489718 
L 205.192891 100.345386 
L 206.034765 99.261909 
L 206.31539 99.08104 
L 207.157264 96.926282 
L 207.437888 96.521374 
L 207.999138 95.210118 
L 208.560387 94.284482 
L 208.841012 94.074933 
L 209.121636 93.414865 
L 209.682885 93.103145 
L 209.96351 93.100822 
L 211.086009 95.643834 
L 211.366633 95.6679 
L 211.647258 95.520455 
L 211.927882 95.027096 
L 212.208507 94.775566 
L 213.050381 95.142681 
L 213.331006 95.131355 
L 213.892255 95.524133 
L 214.453504 96.05447 
L 214.734129 95.850915 
L 215.576003 96.713933 
L 215.856627 96.621519 
L 216.417876 96.785897 
L 216.698501 96.565303 
L 216.979126 96.660318 
L 217.25975 96.567585 
L 218.382249 97.3856 
L 218.943498 97.285471 
L 219.504747 97.709391 
L 219.785372 98.064984 
L 220.065997 100.143998 
L 221.188495 101.741727 
L 221.46912 101.384357 
L 221.749744 101.502536 
L 222.310994 102.308264 
L 225.959114 110.783598 
L 227.081612 112.224443 
L 227.642862 114.4541 
L 227.923486 114.584904 
L 228.484735 116.289266 
L 229.326609 117.920011 
L 229.887859 118.623322 
L 230.449108 118.754534 
L 230.729732 118.583903 
L 231.852231 120.529464 
L 232.694105 123.238788 
L 232.974729 123.64273 
L 235.219726 129.706575 
L 236.342225 132.408792 
L 236.903474 133.670983 
L 237.745348 134.867607 
L 238.867847 136.918441 
L 239.148471 137.631645 
L 239.429096 137.984163 
L 240.832219 140.679734 
L 241.112844 140.106164 
L 241.674093 140.147346 
L 242.235342 141.816283 
L 244.480339 148.102642 
L 244.760964 148.514553 
L 245.041588 149.234475 
L 245.322213 149.59518 
L 245.883462 150.744271 
L 247.005961 152.282262 
L 247.286585 152.784587 
L 247.56721 153.656814 
L 248.128459 154.375103 
L 248.409084 154.977287 
L 248.689709 155.127841 
L 249.250958 155.869297 
L 249.812207 156.534425 
L 250.092832 157.163911 
L 252.337829 159.876844 
L 252.618453 159.851738 
L 252.899078 160.482135 
L 253.179703 160.651905 
L 253.740952 161.331049 
L 254.86345 162.875962 
L 255.144075 162.70959 
L 256.266574 162.812696 
L 256.827823 163.191615 
L 257.108447 163.159466 
L 257.389072 163.570811 
L 257.669697 163.673224 
L 258.511571 164.472124 
L 258.792195 164.503679 
L 259.353444 164.864776 
L 260.475943 167.513213 
L 261.317817 170.266203 
L 263.562814 175.926755 
L 264.685312 178.513585 
L 265.246562 180.04081 
L 266.088435 181.08044 
L 266.649685 182.485987 
L 270.01718 189.006681 
L 270.578429 188.912604 
L 270.859054 189.220181 
L 271.139679 189.348199 
L 272.262177 189.005502 
L 272.823426 189.754652 
L 273.384676 189.942388 
L 273.6653 190.237688 
L 273.945925 190.273956 
L 274.22655 190.197474 
L 274.507174 190.582109 
L 274.787799 191.167783 
L 276.471547 192.820867 
L 276.752171 192.738533 
L 277.032796 192.776022 
L 277.87467 193.619642 
L 278.155294 193.345599 
L 278.997168 191.9432 
L 279.558418 191.634667 
L 279.839042 191.696393 
L 280.119667 191.544894 
L 281.242165 189.986423 
L 281.52279 189.27107 
L 282.084039 188.727309 
L 282.364664 188.800702 
L 283.767787 188.002042 
L 284.048412 187.201093 
L 285.451535 184.942276 
L 286.012784 183.769667 
L 286.293409 183.994775 
L 286.854658 183.884567 
L 287.415907 182.533796 
L 287.696532 181.638043 
L 287.977156 183.028737 
L 288.538406 181.063253 
L 288.81903 180.82072 
L 290.222153 175.338185 
L 290.783403 173.882834 
L 291.625277 171.091341 
L 291.905901 170.682239 
L 292.186526 169.790919 
L 292.46715 169.629816 
L 293.309024 168.726654 
L 293.589649 168.508942 
L 294.150898 167.098102 
L 294.431523 166.96377 
L 295.273397 165.456581 
L 295.554021 164.954938 
L 295.834646 163.591407 
L 296.395895 163.007589 
L 296.67652 162.073536 
L 297.237769 161.188389 
L 298.079643 159.162378 
L 298.640892 157.627746 
L 301.166514 151.131573 
L 301.727763 149.487436 
L 302.008388 149.058338 
L 303.692135 144.56413 
L 304.253385 143.956758 
L 304.534009 143.36135 
L 304.814634 142.378241 
L 305.375883 141.050516 
L 306.217757 138.195114 
L 306.779006 136.59641 
L 307.340256 135.557253 
L 309.304628 129.693959 
L 309.585253 129.256585 
L 309.865877 129.087475 
L 310.146502 128.465409 
L 310.707751 127.904043 
L 310.988376 127.870822 
L 311.549625 127.411154 
L 312.110874 126.520517 
L 312.391499 126.345147 
L 313.233373 124.324919 
L 314.075247 123.599749 
L 315.197745 122.478572 
L 315.47837 122.482752 
L 315.758994 121.678264 
L 316.039619 121.393198 
L 316.600868 120.439214 
L 317.723367 119.455181 
L 318.284616 119.450433 
L 318.845865 119.176128 
L 319.12649 119.214237 
L 319.407115 119.369058 
L 320.248988 118.61687 
L 320.810238 118.694182 
L 321.371487 118.670461 
L 322.213361 118.221164 
L 322.77461 117.399846 
L 323.055235 117.096457 
L 323.335859 116.598347 
L 323.616484 116.411944 
L 323.897109 116.430648 
L 324.177733 116.031238 
L 324.458358 115.838142 
L 325.580856 114.321251 
L 325.861481 114.067046 
L 326.42273 113.152758 
L 328.106478 111.220913 
L 328.387103 111.258326 
L 328.667727 111.769602 
L 329.509601 112.103146 
L 330.351475 111.382544 
L 330.912724 110.634093 
L 331.193349 110.88924 
L 331.473974 110.688989 
L 332.315847 109.661246 
L 332.877097 109.339236 
L 333.438346 109.588088 
L 333.718971 109.785024 
L 333.999595 109.651889 
L 334.841469 110.940053 
L 335.122094 110.73405 
L 335.963968 111.762992 
L 336.525217 111.606702 
L 337.086466 112.027884 
L 337.92834 112.207989 
L 338.208965 112.106748 
L 338.489589 111.845326 
L 338.770214 111.813897 
L 339.050838 111.416149 
L 339.331463 111.389608 
L 339.892712 111.575583 
L 340.173337 111.542286 
L 340.453962 111.798465 
L 341.015211 111.618141 
L 341.295835 111.780341 
L 341.857085 111.783997 
L 342.418334 111.0486 
L 342.698959 110.508879 
L 343.260208 110.274897 
L 343.540833 110.283094 
L 344.663331 112.069117 
L 345.505205 113.563294 
L 345.78583 113.657714 
L 346.066454 114.071237 
L 346.627703 115.296728 
L 346.908328 115.735161 
L 347.750202 116.39382 
L 348.311451 117.530877 
L 348.592076 118.234735 
L 348.8727 118.261083 
L 349.153325 118.484523 
L 349.43395 118.875686 
L 350.556448 119.232779 
L 351.117697 119.764056 
L 351.678947 119.752324 
L 352.801445 120.34397 
L 353.08207 120.2828 
L 353.362694 120.342912 
L 353.643319 120.241395 
L 354.204568 120.709152 
L 354.485193 121.005866 
L 354.765818 120.769866 
L 355.607691 120.910459 
L 356.73019 120.06793 
L 357.572064 119.869977 
L 358.413938 119.91159 
L 358.694562 119.457559 
L 359.255812 119.199458 
L 359.536436 119.119267 
L 359.817061 118.779654 
L 360.37831 118.573737 
L 360.658935 118.844681 
L 360.939559 118.797929 
L 361.500809 119.412379 
L 361.781433 120.077436 
L 362.903932 121.656324 
L 364.58768 124.673517 
L 365.429553 126.036336 
L 366.271427 128.173229 
L 366.832677 128.943048 
L 367.393926 129.949082 
L 367.67455 130.427659 
L 367.955175 130.597829 
L 368.2358 131.097605 
L 369.077674 131.98333 
L 369.358298 132.260497 
L 369.919547 133.060618 
L 371.042046 133.765998 
L 371.322671 133.711326 
L 371.88392 134.118305 
L 372.725794 134.81261 
L 373.567668 136.072239 
L 374.128917 137.219662 
L 374.409541 137.572563 
L 374.970791 138.712772 
L 375.53204 139.539963 
L 376.373914 141.199176 
L 377.777037 144.014153 
L 378.899536 146.664452 
L 379.18016 146.66062 
L 380.022034 146.198662 
L 380.302659 146.406466 
L 380.583283 146.870489 
L 381.144533 148.003644 
L 381.425157 147.743703 
L 381.705782 147.668089 
L 382.267031 147.959691 
L 382.547656 147.524591 
L 383.108905 147.497424 
L 383.38953 147.749473 
L 383.670154 146.967068 
L 383.950779 146.857601 
L 385.634527 139.554648 
L 387.318274 135.092755 
L 387.598899 135.047802 
L 387.879524 135.361514 
L 388.160148 135.031755 
L 389.002022 133.481249 
L 389.282647 134.114746 
L 389.563271 133.923624 
L 389.843896 133.878489 
L 390.405145 134.041197 
L 390.966394 133.356131 
L 391.247019 132.783958 
L 391.527644 132.747644 
L 391.808268 133.151472 
L 392.088893 131.847262 
L 393.211391 130.255814 
L 394.33389 128.028194 
L 395.456389 125.921729 
L 395.737013 125.797246 
L 396.298262 124.720796 
L 396.859512 123.866028 
L 397.420761 122.233576 
L 397.98201 121.268376 
L 398.262635 120.841566 
L 399.385133 118.08575 
L 399.665758 118.073628 
L 400.227007 116.088765 
L 401.63013 110.565356 
L 402.472004 108.198895 
L 402.752629 107.367069 
L 403.875127 105.595614 
L 404.155752 105.408628 
L 404.997626 104.446947 
L 405.27825 104.195322 
L 405.558875 104.142753 
L 406.120124 103.502052 
L 406.681374 102.559114 
L 406.961998 101.095596 
L 407.523247 100.157274 
L 407.803872 100.442048 
L 408.365121 100.066988 
L 408.926371 99.221652 
L 409.768244 98.622703 
L 410.329494 99.014709 
L 410.890743 99.277647 
L 411.171368 99.085737 
L 411.451992 99.285261 
L 411.732617 99.091749 
L 412.013241 99.390197 
L 412.574491 99.735396 
L 413.696989 99.335539 
L 414.538863 100.667963 
L 414.819488 100.659014 
L 415.380737 99.974545 
L 415.661362 100.273774 
L 416.222611 100.119296 
L 416.503236 100.20257 
L 416.78386 100.073892 
L 417.064485 99.635187 
L 417.345109 99.444818 
L 417.625734 99.42971 
L 418.467608 100.555293 
L 419.028857 100.969646 
L 420.151356 102.294656 
L 420.712605 102.970438 
L 420.99323 102.872049 
L 421.273854 103.0969 
L 421.554479 103.477262 
L 422.396353 105.471157 
L 422.957602 106.716098 
L 423.238227 107.602588 
L 424.921974 110.48188 
L 425.763848 112.369752 
L 426.886347 113.378182 
L 427.447596 114.718259 
L 428.008845 115.228786 
L 428.28947 115.400083 
L 429.131344 116.273501 
L 429.411968 116.516482 
L 429.692593 117.244864 
L 430.253842 118.069862 
L 431.376341 120.634354 
L 431.93759 121.131895 
L 432.498839 121.974263 
L 432.779464 122.075304 
L 433.060089 122.366877 
L 433.621338 123.49849 
L 435.58571 126.603691 
L 435.866335 127.229823 
L 436.146959 127.50574 
L 436.708209 128.754281 
L 436.988833 129.50661 
L 437.269458 129.92027 
L 437.550083 130.675963 
L 438.111332 132.969216 
L 438.391956 133.548234 
L 438.672581 133.449339 
L 439.23383 134.110841 
L 440.075704 132.403556 
L 440.636953 133.277822 
L 440.917578 133.485806 
L 441.198203 133.836193 
L 441.478827 134.578212 
L 441.759452 134.922691 
L 442.601326 136.534151 
L 442.88195 135.999485 
L 443.162575 136.819927 
L 443.4432 136.987527 
L 444.004449 136.928266 
L 444.285074 137.427847 
L 445.126947 139.45787 
L 445.688197 140.148684 
L 446.810695 141.891659 
L 448.213818 145.968301 
L 448.494443 146.497775 
L 448.775068 146.530375 
L 449.336317 147.255596 
L 449.616942 147.734173 
L 449.897566 147.991791 
L 450.73944 149.222589 
L 451.020065 150.346881 
L 452.423188 152.971775 
L 452.984437 154.565688 
L 453.545686 155.87814 
L 454.38756 157.261867 
L 454.668185 157.618993 
L 454.948809 157.791496 
L 456.351933 160.173118 
L 456.913182 161.698008 
L 456.913182 161.698008 
" style="fill:none;stroke:#ff7f0e;stroke-linecap:square;stroke-width:1.5;"/>
   </g>
   <g id="legend_1">
    <g id="patch_3">
     <path d="M 62.74 245.2 
L 454.009375 245.2 
Q 456.809375 245.2 456.809375 242.4 
L 456.809375 223.504375 
Q 456.809375 220.704375 454.009375 220.704375 
L 62.74 220.704375 
Q 59.94 220.704375 59.94 223.504375 
L 59.94 242.4 
Q 59.94 245.2 62.74 245.2 
z
" style="fill:#ffffff;opacity:0.8;stroke:#cccccc;stroke-linejoin:miter;"/>
    </g>
    <g id="line2d_17">
     <path d="M 65.54 231.795 
L 93.54 231.795 
" style="fill:none;stroke:#1f77b4;stroke-linecap:square;stroke-width:1.5;"/>
    </g>
    <g id="line2d_18"/>
    <g id="text_16">
     <!-- «наивный» расчёт -->
     <defs>
      <path d="M 35.5 6.890625 
L 21.921875 24.703125 
L 21.921875 27.78125 
L 35.5 45.90625 
L 42.1875 45.90625 
L 42.1875 44.390625 
L 28.65625 26.21875 
L 42.28125 8.296875 
L 42.28125 6.890625 
z
M 16.796875 6.890625 
L 3.328125 24.703125 
L 3.328125 27.78125 
L 16.796875 45.90625 
L 23.484375 45.90625 
L 23.484375 44.390625 
L 10.0625 26.21875 
L 23.53125 8.296875 
L 23.53125 6.890625 
z
" id="LiberationSansNarrow-171"/>
      <path d="M 22.796875 30.46875 
Q 31.296875 30.46875 35.640625 26.875 
Q 39.984375 23.296875 39.984375 15.53125 
Q 39.984375 11.921875 38.90625 9.03125 
Q 37.84375 6.15625 35.671875 4.15625 
Q 33.5 2.15625 30.296875 1.078125 
Q 27.09375 0 22.859375 0 
L 5.859375 0 
L 5.859375 52.828125 
L 13.328125 52.828125 
L 13.328125 30.46875 
z
M 13.328125 6.203125 
L 21.734375 6.203125 
Q 24.609375 6.203125 26.578125 6.8125 
Q 28.5625 7.421875 29.78125 8.609375 
Q 31 9.8125 31.53125 11.546875 
Q 32.078125 13.28125 32.078125 15.53125 
Q 32.078125 20.125 29.65625 22.234375 
Q 27.25 24.359375 21.734375 24.359375 
L 13.328125 24.359375 
z
M 47.65625 0 
L 47.65625 52.828125 
L 55.125 52.828125 
L 55.125 0 
z
" id="LiberationSansNarrow-1099"/>
      <path d="M 12.640625 52.828125 
L 12.640625 23.921875 
Q 12.640625 22.796875 12.59375 20.921875 
Q 12.546875 19.046875 12.46875 17.046875 
Q 12.40625 15.046875 12.359375 13.234375 
Q 12.3125 11.421875 12.25 10.40625 
L 32.28125 52.828125 
L 40.140625 52.828125 
L 40.140625 0 
L 33.25 0 
L 33.25 32.234375 
Q 33.25 33.15625 33.296875 34.578125 
L 33.40625 37.40625 
Q 33.453125 38.875 33.5 40.234375 
L 33.640625 42.625 
L 13.375 0 
L 5.71875 0 
L 5.71875 52.828125 
z
M 25.046875 58.59375 
Q 20.609375 58.59375 17.765625 59.984375 
Q 14.9375 61.375 13.328125 63.59375 
Q 11.71875 65.828125 11.078125 68.625 
Q 10.453125 71.4375 10.359375 74.21875 
L 16.890625 74.21875 
Q 17.140625 69.1875 19.234375 66.84375 
Q 21.34375 64.5 25.046875 64.5 
Q 28.765625 64.5 30.828125 66.84375 
Q 32.90625 69.1875 33.15625 74.21875 
L 39.75 74.21875 
Q 39.65625 71.4375 39.015625 68.625 
Q 38.375 65.828125 36.734375 63.59375 
Q 35.109375 61.375 32.296875 59.984375 
Q 29.5 58.59375 25.046875 58.59375 
z
" id="LiberationSansNarrow-1081"/>
      <path d="M 28.765625 6.890625 
L 22.015625 6.890625 
L 22.015625 8.296875 
L 35.546875 26.21875 
L 22.125 44.390625 
L 22.125 45.90625 
L 28.765625 45.90625 
L 42.28125 27.78125 
L 42.28125 24.703125 
z
M 10.109375 6.890625 
L 3.328125 6.890625 
L 3.328125 8.296875 
L 16.84375 26.21875 
L 3.421875 44.390625 
L 3.421875 45.90625 
L 10.109375 45.90625 
L 23.53125 27.78125 
L 23.53125 24.703125 
z
" id="LiberationSansNarrow-187"/>
      <path d="M 12.109375 52.828125 
L 12.109375 33.203125 
Q 12.109375 31.546875 12.421875 30.09375 
Q 12.75 28.65625 13.53125 27.578125 
Q 14.3125 26.515625 15.578125 25.90625 
Q 16.84375 25.296875 18.75 25.296875 
Q 21.53125 25.296875 24.171875 25.921875 
Q 26.8125 26.5625 29.78125 27.59375 
L 29.78125 52.828125 
L 37.015625 52.828125 
L 37.015625 0 
L 29.78125 0 
L 29.78125 22.515625 
Q 29.78125 22.515625 26.65625 21 
Q 25.046875 20.265625 23.28125 19.671875 
Q 21.53125 19.09375 19.671875 18.703125 
Q 17.828125 18.3125 15.765625 18.3125 
Q 13.140625 18.3125 11.109375 19.3125 
Q 9.078125 20.3125 7.703125 22.171875 
Q 6.34375 24.03125 5.609375 26.703125 
Q 4.890625 29.390625 4.890625 32.765625 
L 4.890625 52.828125 
z
" id="LiberationSansNarrow-1095"/>
      <path d="M 10.6875 24.5625 
Q 10.6875 20.40625 11.5625 16.90625 
Q 12.453125 13.421875 13.90625 10.90625 
Q 15.375 8.40625 17.640625 7 
Q 19.921875 5.609375 23.140625 5.609375 
Q 27.828125 5.609375 30.65625 7.90625 
Q 33.5 10.203125 34.46875 13.71875 
L 40.828125 11.53125 
Q 40.140625 9.328125 38.921875 7.109375 
Q 37.703125 4.890625 35.640625 3.09375 
Q 33.59375 1.3125 30.53125 0.15625 
Q 27.484375 -0.984375 23.140625 -0.984375 
Q 13.53125 -0.984375 8.5 6 
Q 3.46875 12.984375 3.46875 26.765625 
Q 3.46875 34.1875 5 39.328125 
Q 6.546875 44.484375 9.171875 47.703125 
Q 11.8125 50.921875 15.328125 52.359375 
Q 18.84375 53.8125 22.859375 53.8125 
Q 28.328125 53.8125 31.984375 51.65625 
Q 39.0625 47.515625 41.015625 36.8125 
Q 41.9375 31.6875 41.9375 25.734375 
L 41.9375 24.5625 
z
M 34.71875 31.296875 
Q 34.71875 40.140625 31.421875 43.71875 
Q 28.125 47.3125 22.75 47.3125 
Q 18.953125 47.3125 15.328125 44.09375 
Q 10.9375 40.328125 10.6875 31.296875 
z
M 29.6875 59.515625 
L 29.6875 68.5 
L 36.1875 68.5 
L 36.1875 59.515625 
z
M 13.921875 59.515625 
L 13.921875 68.5 
L 20.515625 68.5 
L 20.515625 59.515625 
z
" id="LiberationSansNarrow-1105"/>
     </defs>
     <g transform="translate(104.74 236.695)scale(0.14 -0.14)">
      <use xlink:href="#LiberationSansNarrow-171"/>
      <use x="45.605469" xlink:href="#LiberationSansNarrow-1085"/>
      <use x="90.869141" xlink:href="#LiberationSansNarrow-1072"/>
      <use x="136.474609" xlink:href="#LiberationSansNarrow-1080"/>
      <use x="182.324219" xlink:href="#LiberationSansNarrow-1074"/>
      <use x="225.878906" xlink:href="#LiberationSansNarrow-1085"/>
      <use x="271.142578" xlink:href="#LiberationSansNarrow-1099"/>
      <use x="332.128906" xlink:href="#LiberationSansNarrow-1081"/>
      <use x="377.978516" xlink:href="#LiberationSansNarrow-187"/>
      <use x="423.583984" xlink:href="#LiberationSansNarrow-32"/>
      <use x="446.386719" xlink:href="#LiberationSansNarrow-1088"/>
      <use x="491.992188" xlink:href="#LiberationSansNarrow-1072"/>
      <use x="537.597656" xlink:href="#LiberationSansNarrow-1089"/>
      <use x="578.597656" xlink:href="#LiberationSansNarrow-1095"/>
      <use x="621.322266" xlink:href="#LiberationSansNarrow-1105"/>
      <use x="666.927734" xlink:href="#LiberationSansNarrow-1090"/>
     </g>
    </g>
    <g id="line2d_19">
     <path d="M 231.367813 231.795 
L 259.367813 231.795 
" style="fill:none;stroke:#ff7f0e;stroke-linecap:square;stroke-width:1.5;"/>
    </g>
    <g id="line2d_20"/>
    <g id="text_17">
     <!-- характерная скорость отставания -->
     <defs>
      <path d="M 32.078125 0 
L 20.40625 21.6875 
L 8.6875 0 
L 0.921875 0 
L 16.359375 27.15625 
L 1.65625 52.828125 
L 9.625 52.828125 
L 20.40625 32.28125 
L 31.15625 52.828125 
L 39.203125 52.828125 
L 24.515625 27.25 
L 40.140625 0 
z
" id="LiberationSansNarrow-1093"/>
      <path d="M 10.6875 24.5625 
Q 10.6875 20.40625 11.5625 16.90625 
Q 12.453125 13.421875 13.90625 10.90625 
Q 15.375 8.40625 17.640625 7 
Q 19.921875 5.609375 23.140625 5.609375 
Q 27.828125 5.609375 30.65625 7.90625 
Q 33.5 10.203125 34.46875 13.71875 
L 40.828125 11.53125 
Q 40.140625 9.328125 38.921875 7.109375 
Q 37.703125 4.890625 35.640625 3.09375 
Q 33.59375 1.3125 30.53125 0.15625 
Q 27.484375 -0.984375 23.140625 -0.984375 
Q 13.53125 -0.984375 8.5 6 
Q 3.46875 12.984375 3.46875 26.765625 
Q 3.46875 34.1875 5 39.328125 
Q 6.546875 44.484375 9.171875 47.703125 
Q 11.8125 50.921875 15.328125 52.359375 
Q 18.84375 53.8125 22.859375 53.8125 
Q 28.328125 53.8125 31.984375 51.65625 
Q 39.0625 47.515625 41.015625 36.8125 
Q 41.9375 31.6875 41.9375 25.734375 
L 41.9375 24.5625 
z
M 34.71875 31.296875 
Q 34.71875 40.140625 31.421875 43.71875 
Q 28.125 47.3125 22.75 47.3125 
Q 18.953125 47.3125 15.328125 44.09375 
Q 10.9375 40.328125 10.6875 31.296875 
z
" id="LiberationSansNarrow-1077"/>
     </defs>
     <g transform="translate(270.567813 236.695)scale(0.14 -0.14)">
      <use xlink:href="#LiberationSansNarrow-1093"/>
      <use x="41" xlink:href="#LiberationSansNarrow-1072"/>
      <use x="86.605469" xlink:href="#LiberationSansNarrow-1088"/>
      <use x="132.210938" xlink:href="#LiberationSansNarrow-1072"/>
      <use x="177.816406" xlink:href="#LiberationSansNarrow-1082"/>
      <use x="213.671875" xlink:href="#LiberationSansNarrow-1090"/>
      <use x="251.205078" xlink:href="#LiberationSansNarrow-1077"/>
      <use x="296.810547" xlink:href="#LiberationSansNarrow-1088"/>
      <use x="342.416016" xlink:href="#LiberationSansNarrow-1085"/>
      <use x="387.679688" xlink:href="#LiberationSansNarrow-1072"/>
      <use x="433.285156" xlink:href="#LiberationSansNarrow-1103"/>
      <use x="477.71875" xlink:href="#LiberationSansNarrow-32"/>
      <use x="500.521484" xlink:href="#LiberationSansNarrow-1089"/>
      <use x="541.537109" xlink:href="#LiberationSansNarrow-1082"/>
      <use x="577.392578" xlink:href="#LiberationSansNarrow-1086"/>
      <use x="622.998047" xlink:href="#LiberationSansNarrow-1088"/>
      <use x="668.603516" xlink:href="#LiberationSansNarrow-1086"/>
      <use x="714.208984" xlink:href="#LiberationSansNarrow-1089"/>
      <use x="755.224609" xlink:href="#LiberationSansNarrow-1090"/>
      <use x="792.773438" xlink:href="#LiberationSansNarrow-1100"/>
      <use x="835.498047" xlink:href="#LiberationSansNarrow-32"/>
      <use x="858.300781" xlink:href="#LiberationSansNarrow-1086"/>
      <use x="903.875" xlink:href="#LiberationSansNarrow-1090"/>
      <use x="941.408203" xlink:href="#LiberationSansNarrow-1089"/>
      <use x="982.423828" xlink:href="#LiberationSansNarrow-1090"/>
      <use x="1019.957031" xlink:href="#LiberationSansNarrow-1072"/>
      <use x="1065.5625" xlink:href="#LiberationSansNarrow-1074"/>
      <use x="1109.101562" xlink:href="#LiberationSansNarrow-1072"/>
      <use x="1154.707031" xlink:href="#LiberationSansNarrow-1085"/>
      <use x="1199.970703" xlink:href="#LiberationSansNarrow-1080"/>
      <use x="1245.820312" xlink:href="#LiberationSansNarrow-1103"/>
     </g>
    </g>
   </g>
  </g>
 </g>
 <defs>
  <clipPath id="pec3d7b1f7c">
   <rect height="234.56" width="423.21" x="52.94" y="17.64"/>
  </clipPath>
 </defs>
</svg>
