<?xml version="1.0" encoding="utf-8" standalone="no"?>
<!DOCTYPE svg PUBLIC "-//W3C//DTD SVG 1.1//EN"
  "http://www.w3.org/Graphics/SVG/1.1/DTD/svg11.dtd">
<!-- Created with matplotlib (https://matplotlib.org/) -->
<svg height="288pt" version="1.1" viewBox="0 0 576 288" width="576pt" xmlns="http://www.w3.org/2000/svg" xmlns:xlink="http://www.w3.org/1999/xlink">
 <defs>
  <style type="text/css">
*{stroke-linecap:butt;stroke-linejoin:round;}
  </style>
 </defs>
 <g id="figure_1">
  <g id="patch_1">
   <path d="M 0 288 
L 576 288 
L 576 0 
L 0 0 
z
" style="fill:#ffffff;"/>
  </g>
  <g id="axes_1">
   <g id="patch_2">
    <path d="M 34.9 252.2 
L 558.36 252.2 
L 558.36 17.64 
L 34.9 17.64 
z
" style="fill:#ffffff;"/>
   </g>
   <g id="PolyCollection_1">
    <defs>
     <path d="M 177.931106 146.793855 
L 177.931106 -139.584441 
L 178.942976 -139.584441 
L 179.922205 -139.584441 
L 180.934076 -139.584441 
L 181.913305 -139.584441 
L 182.925175 -139.584441 
L 183.937045 -139.584441 
L 184.850992 -139.584441 
L 185.862862 -139.584441 
L 186.842091 -139.584441 
L 187.853962 -139.584441 
L 188.833191 -139.584441 
L 189.845061 -139.584441 
L 190.856931 -139.584441 
L 191.83616 -139.584441 
L 192.84803 -139.584441 
L 193.827259 -139.584441 
L 194.83913 -139.584441 
L 195.851 -139.584441 
L 196.764947 -139.584441 
L 197.776817 -139.584441 
L 198.756046 -139.584441 
L 199.767916 -139.584441 
L 200.747145 -139.584441 
L 201.759016 -139.584441 
L 202.770886 -139.584441 
L 203.750115 -139.584441 
L 204.761985 -139.584441 
L 205.741214 -139.584441 
L 206.753084 -139.584441 
L 207.764954 -139.584441 
L 208.711543 -139.584441 
L 209.723413 -139.584441 
L 210.702642 -139.584441 
L 211.714512 -139.584441 
L 212.693741 -139.584441 
L 213.705611 -139.584441 
L 214.717481 -139.584441 
L 215.696711 -139.584441 
L 216.708581 -139.584441 
L 217.68781 -139.584441 
L 218.69968 -139.584441 
L 219.71155 -139.584441 
L 220.625497 -139.584441 
L 221.637367 -139.584441 
L 222.616597 -139.584441 
L 223.628467 -139.584441 
L 224.607696 -139.584441 
L 225.619566 -139.584441 
L 226.631436 -139.584441 
L 227.610665 -139.584441 
L 228.622535 -139.584441 
L 229.601764 -139.584441 
L 230.613635 -139.584441 
L 231.625505 -139.584441 
L 232.539452 -139.584441 
L 233.551322 -139.584441 
L 234.530551 -139.584441 
L 235.542421 -139.584441 
L 236.521651 -139.584441 
L 237.533521 -139.584441 
L 238.545391 -139.584441 
L 239.52462 -139.584441 
L 240.53649 -139.584441 
L 241.515719 -139.584441 
L 242.527589 -139.584441 
L 243.539459 -139.584441 
L 244.453407 -139.584441 
L 245.465277 -139.584441 
L 246.444506 -139.584441 
L 247.456376 -139.584441 
L 248.435605 -139.584441 
L 249.447475 -139.584441 
L 250.459345 -139.584441 
L 251.438575 -139.584441 
L 252.450445 -139.584441 
L 253.429674 -139.584441 
L 254.441544 -139.584441 
L 255.453414 -139.584441 
L 256.400002 -139.584441 
L 257.411872 -139.584441 
L 258.391102 -139.584441 
L 259.402972 -139.584441 
L 260.382201 -139.584441 
L 261.394071 -139.584441 
L 262.405941 -139.584441 
L 263.38517 -139.584441 
L 264.39704 -139.584441 
L 265.37627 -139.584441 
L 266.38814 -139.584441 
L 267.40001 -139.584441 
L 268.313957 -139.584441 
L 269.325827 -139.584441 
L 270.305056 -139.584441 
L 271.316926 -139.584441 
L 272.296156 -139.584441 
L 273.308026 -139.584441 
L 274.319896 -139.584441 
L 275.299125 -139.584441 
L 276.310995 -139.584441 
L 277.290224 -139.584441 
L 278.302094 -139.584441 
L 279.313964 -139.584441 
L 280.227912 -139.584441 
L 281.239782 -139.584441 
L 282.219011 -139.584441 
L 283.230881 -139.584441 
L 284.21011 -139.584441 
L 285.22198 -139.584441 
L 286.23385 -139.584441 
L 287.21308 -139.584441 
L 288.22495 -139.584441 
L 289.204179 -139.584441 
L 290.216049 -139.584441 
L 291.227919 -139.584441 
L 292.141866 -139.584441 
L 293.153737 -139.584441 
L 294.132966 -139.584441 
L 295.144836 -139.584441 
L 296.124065 -139.584441 
L 297.135935 -139.584441 
L 298.147805 -139.584441 
L 299.127034 -139.584441 
L 300.138904 -139.584441 
L 301.118134 -139.584441 
L 302.130004 -139.584441 
L 303.141874 -139.584441 
L 304.088462 -139.584441 
L 305.100332 -139.584441 
L 306.079561 -139.584441 
L 307.091431 -139.584441 
L 308.070661 -139.584441 
L 309.082531 -139.584441 
L 310.094401 -139.584441 
L 311.07363 -139.584441 
L 312.0855 -139.584441 
L 313.064729 -139.584441 
L 314.076599 -139.584441 
L 315.08847 -139.584441 
L 316.002417 -139.584441 
L 317.014287 -139.584441 
L 317.993516 -139.584441 
L 319.005386 -139.584441 
L 319.984615 -139.584441 
L 320.996485 -139.584441 
L 322.008356 -139.584441 
L 322.987585 -139.584441 
L 323.999455 -139.584441 
L 324.978684 -139.584441 
L 325.990554 -139.584441 
L 327.002424 -139.584441 
L 327.916371 -139.584441 
L 328.928242 -139.584441 
L 329.907471 -139.584441 
L 330.919341 -139.584441 
L 331.89857 -139.584441 
L 332.91044 -139.584441 
L 333.92231 -139.584441 
L 334.901539 -139.584441 
L 335.91341 -139.584441 
L 336.892639 -139.584441 
L 337.904509 -139.584441 
L 338.916379 -139.584441 
L 339.830326 -139.584441 
L 340.842196 -139.584441 
L 341.821425 -139.584441 
L 342.833296 -139.584441 
L 343.812525 -139.584441 
L 344.824395 -139.584441 
L 345.836265 -139.584441 
L 346.815494 -139.584441 
L 347.827364 -139.584441 
L 348.806593 -139.584441 
L 349.818463 -139.584441 
L 350.830334 -139.584441 
L 351.776922 -139.584441 
L 352.788792 -139.584441 
L 353.768021 -139.584441 
L 354.779891 -139.584441 
L 355.75912 -139.584441 
L 356.77099 -139.584441 
L 357.782861 -139.584441 
L 358.76209 -139.584441 
L 359.77396 -139.584441 
L 360.753189 -139.584441 
L 361.765059 -139.584441 
L 362.776929 -139.584441 
L 363.690876 -139.584441 
L 364.702747 -139.584441 
L 365.681976 -139.584441 
L 366.693846 -139.584441 
L 367.673075 -139.584441 
L 368.684945 -139.584441 
L 369.696815 -139.584441 
L 370.676044 -139.584441 
L 371.687915 -139.584441 
L 372.667144 -139.584441 
L 373.679014 -139.584441 
L 374.690884 -139.584441 
L 375.604831 -139.584441 
L 376.616701 -139.584441 
L 377.59593 -139.584441 
L 378.607801 -139.584441 
L 379.58703 -139.584441 
L 380.5989 -139.584441 
L 381.61077 -139.584441 
L 382.589999 -139.584441 
L 383.601869 -139.584441 
L 384.581098 -139.584441 
L 385.592969 -139.584441 
L 385.592969 146.793855 
L 385.592969 146.793855 
L 384.581098 146.793855 
L 383.601869 146.793855 
L 382.589999 146.793855 
L 381.61077 146.793855 
L 380.5989 146.793855 
L 379.58703 146.793855 
L 378.607801 146.793855 
L 377.59593 146.793855 
L 376.616701 146.793855 
L 375.604831 146.793855 
L 374.690884 146.793855 
L 373.679014 146.793855 
L 372.667144 146.793855 
L 371.687915 146.793855 
L 370.676044 146.793855 
L 369.696815 146.793855 
L 368.684945 146.793855 
L 367.673075 146.793855 
L 366.693846 146.793855 
L 365.681976 146.793855 
L 364.702747 146.793855 
L 363.690876 146.793855 
L 362.776929 146.793855 
L 361.765059 146.793855 
L 360.753189 146.793855 
L 359.77396 146.793855 
L 358.76209 146.793855 
L 357.782861 146.793855 
L 356.77099 146.793855 
L 355.75912 146.793855 
L 354.779891 146.793855 
L 353.768021 146.793855 
L 352.788792 146.793855 
L 351.776922 146.793855 
L 350.830334 146.793855 
L 349.818463 146.793855 
L 348.806593 146.793855 
L 347.827364 146.793855 
L 346.815494 146.793855 
L 345.836265 146.793855 
L 344.824395 146.793855 
L 343.812525 146.793855 
L 342.833296 146.793855 
L 341.821425 146.793855 
L 340.842196 146.793855 
L 339.830326 146.793855 
L 338.916379 146.793855 
L 337.904509 146.793855 
L 336.892639 146.793855 
L 335.91341 146.793855 
L 334.901539 146.793855 
L 333.92231 146.793855 
L 332.91044 146.793855 
L 331.89857 146.793855 
L 330.919341 146.793855 
L 329.907471 146.793855 
L 328.928242 146.793855 
L 327.916371 146.793855 
L 327.002424 146.793855 
L 325.990554 146.793855 
L 324.978684 146.793855 
L 323.999455 146.793855 
L 322.987585 146.793855 
L 322.008356 146.793855 
L 320.996485 146.793855 
L 319.984615 146.793855 
L 319.005386 146.793855 
L 317.993516 146.793855 
L 317.014287 146.793855 
L 316.002417 146.793855 
L 315.08847 146.793855 
L 314.076599 146.793855 
L 313.064729 146.793855 
L 312.0855 146.793855 
L 311.07363 146.793855 
L 310.094401 146.793855 
L 309.082531 146.793855 
L 308.070661 146.793855 
L 307.091431 146.793855 
L 306.079561 146.793855 
L 305.100332 146.793855 
L 304.088462 146.793855 
L 303.141874 146.793855 
L 302.130004 146.793855 
L 301.118134 146.793855 
L 300.138904 146.793855 
L 299.127034 146.793855 
L 298.147805 146.793855 
L 297.135935 146.793855 
L 296.124065 146.793855 
L 295.144836 146.793855 
L 294.132966 146.793855 
L 293.153737 146.793855 
L 292.141866 146.793855 
L 291.227919 146.793855 
L 290.216049 146.793855 
L 289.204179 146.793855 
L 288.22495 146.793855 
L 287.21308 146.793855 
L 286.23385 146.793855 
L 285.22198 146.793855 
L 284.21011 146.793855 
L 283.230881 146.793855 
L 282.219011 146.793855 
L 281.239782 146.793855 
L 280.227912 146.793855 
L 279.313964 146.793855 
L 278.302094 146.793855 
L 277.290224 146.793855 
L 276.310995 146.793855 
L 275.299125 146.793855 
L 274.319896 146.793855 
L 273.308026 146.793855 
L 272.296156 146.793855 
L 271.316926 146.793855 
L 270.305056 146.793855 
L 269.325827 146.793855 
L 268.313957 146.793855 
L 267.40001 146.793855 
L 266.38814 146.793855 
L 265.37627 146.793855 
L 264.39704 146.793855 
L 263.38517 146.793855 
L 262.405941 146.793855 
L 261.394071 146.793855 
L 260.382201 146.793855 
L 259.402972 146.793855 
L 258.391102 146.793855 
L 257.411872 146.793855 
L 256.400002 146.793855 
L 255.453414 146.793855 
L 254.441544 146.793855 
L 253.429674 146.793855 
L 252.450445 146.793855 
L 251.438575 146.793855 
L 250.459345 146.793855 
L 249.447475 146.793855 
L 248.435605 146.793855 
L 247.456376 146.793855 
L 246.444506 146.793855 
L 245.465277 146.793855 
L 244.453407 146.793855 
L 243.539459 146.793855 
L 242.527589 146.793855 
L 241.515719 146.793855 
L 240.53649 146.793855 
L 239.52462 146.793855 
L 238.545391 146.793855 
L 237.533521 146.793855 
L 236.521651 146.793855 
L 235.542421 146.793855 
L 234.530551 146.793855 
L 233.551322 146.793855 
L 232.539452 146.793855 
L 231.625505 146.793855 
L 230.613635 146.793855 
L 229.601764 146.793855 
L 228.622535 146.793855 
L 227.610665 146.793855 
L 226.631436 146.793855 
L 225.619566 146.793855 
L 224.607696 146.793855 
L 223.628467 146.793855 
L 222.616597 146.793855 
L 221.637367 146.793855 
L 220.625497 146.793855 
L 219.71155 146.793855 
L 218.69968 146.793855 
L 217.68781 146.793855 
L 216.708581 146.793855 
L 215.696711 146.793855 
L 214.717481 146.793855 
L 213.705611 146.793855 
L 212.693741 146.793855 
L 211.714512 146.793855 
L 210.702642 146.793855 
L 209.723413 146.793855 
L 208.711543 146.793855 
L 207.764954 146.793855 
L 206.753084 146.793855 
L 205.741214 146.793855 
L 204.761985 146.793855 
L 203.750115 146.793855 
L 202.770886 146.793855 
L 201.759016 146.793855 
L 200.747145 146.793855 
L 199.767916 146.793855 
L 198.756046 146.793855 
L 197.776817 146.793855 
L 196.764947 146.793855 
L 195.851 146.793855 
L 194.83913 146.793855 
L 193.827259 146.793855 
L 192.84803 146.793855 
L 191.83616 146.793855 
L 190.856931 146.793855 
L 189.845061 146.793855 
L 188.833191 146.793855 
L 187.853962 146.793855 
L 186.842091 146.793855 
L 185.862862 146.793855 
L 184.850992 146.793855 
L 183.937045 146.793855 
L 182.925175 146.793855 
L 181.913305 146.793855 
L 180.934076 146.793855 
L 179.922205 146.793855 
L 178.942976 146.793855 
L 177.931106 146.793855 
z
" id="m518cde7ff6" style="stroke:#1f77b4;stroke-opacity:0.3;"/>
    </defs>
    <g clip-path="url(#p616686872b)">
     <use style="fill:#1f77b4;fill-opacity:0.3;stroke:#1f77b4;stroke-opacity:0.3;" x="0" xlink:href="#m518cde7ff6" y="288"/>
    </g>
   </g>
   <g id="PolyCollection_2">
    <defs>
     <path d="M 177.931106 146.793855 
L 177.931106 -74.715201 
L 178.942976 -74.715201 
L 179.922205 -74.715201 
L 180.934076 -74.715201 
L 181.913305 -74.715201 
L 182.925175 -74.715201 
L 183.937045 -74.715201 
L 184.850992 -74.715201 
L 185.862862 -74.715201 
L 186.842091 -74.715201 
L 187.853962 -74.715201 
L 188.833191 -74.715201 
L 189.845061 -74.715201 
L 190.856931 -74.715201 
L 191.83616 -74.715201 
L 192.84803 -74.715201 
L 193.827259 -74.715201 
L 194.83913 -74.715201 
L 195.851 -74.715201 
L 196.764947 -74.715201 
L 197.776817 -74.715201 
L 198.756046 -74.715201 
L 199.767916 -74.715201 
L 200.747145 -74.715201 
L 201.759016 -74.715201 
L 202.770886 -74.715201 
L 203.750115 -74.715201 
L 204.761985 -74.715201 
L 205.741214 -74.715201 
L 206.753084 -74.715201 
L 207.764954 -74.715201 
L 208.711543 -74.715201 
L 209.723413 -74.715201 
L 210.702642 -74.715201 
L 211.714512 -74.715201 
L 212.693741 -74.715201 
L 213.705611 -74.715201 
L 214.717481 -74.715201 
L 215.696711 -74.715201 
L 216.708581 -74.715201 
L 217.68781 -74.715201 
L 218.69968 -74.715201 
L 219.71155 -74.715201 
L 220.625497 -74.715201 
L 221.637367 -74.715201 
L 222.616597 -74.715201 
L 223.628467 -74.715201 
L 224.607696 -74.715201 
L 225.619566 -74.715201 
L 226.631436 -74.715201 
L 227.610665 -74.715201 
L 228.622535 -74.715201 
L 229.601764 -74.715201 
L 230.613635 -74.715201 
L 231.625505 -74.715201 
L 232.539452 -74.715201 
L 233.551322 -74.715201 
L 234.530551 -74.715201 
L 235.542421 -74.715201 
L 236.521651 -74.715201 
L 237.533521 -74.715201 
L 238.545391 -74.715201 
L 239.52462 -74.715201 
L 240.53649 -74.715201 
L 241.515719 -74.715201 
L 242.527589 -74.715201 
L 243.539459 -74.715201 
L 244.453407 -74.715201 
L 245.465277 -74.715201 
L 246.444506 -74.715201 
L 247.456376 -74.715201 
L 248.435605 -74.715201 
L 249.447475 -74.715201 
L 250.459345 -74.715201 
L 251.438575 -74.715201 
L 252.450445 -74.715201 
L 253.429674 -74.715201 
L 254.441544 -74.715201 
L 255.453414 -74.715201 
L 256.400002 -74.715201 
L 257.411872 -74.715201 
L 258.391102 -74.715201 
L 259.402972 -74.715201 
L 260.382201 -74.715201 
L 261.394071 -74.715201 
L 262.405941 -74.715201 
L 263.38517 -74.715201 
L 264.39704 -74.715201 
L 265.37627 -74.715201 
L 266.38814 -74.715201 
L 267.40001 -74.715201 
L 268.313957 -74.715201 
L 269.325827 -74.715201 
L 270.305056 -74.715201 
L 271.316926 -74.715201 
L 272.296156 -74.715201 
L 273.308026 -74.715201 
L 274.319896 -74.715201 
L 275.299125 -74.715201 
L 276.310995 -74.715201 
L 277.290224 -74.715201 
L 278.302094 -74.715201 
L 279.313964 -74.715201 
L 280.227912 -74.715201 
L 281.239782 -74.715201 
L 282.219011 -74.715201 
L 283.230881 -74.715201 
L 284.21011 -74.715201 
L 285.22198 -74.715201 
L 286.23385 -74.715201 
L 287.21308 -74.715201 
L 288.22495 -74.715201 
L 289.204179 -74.715201 
L 290.216049 -74.715201 
L 291.227919 -74.715201 
L 292.141866 -74.715201 
L 293.153737 -74.715201 
L 294.132966 -74.715201 
L 295.144836 -74.715201 
L 296.124065 -74.715201 
L 297.135935 -74.715201 
L 298.147805 -74.715201 
L 299.127034 -74.715201 
L 300.138904 -74.715201 
L 301.118134 -74.715201 
L 302.130004 -74.715201 
L 303.141874 -74.715201 
L 304.088462 -74.715201 
L 305.100332 -74.715201 
L 306.079561 -74.715201 
L 307.091431 -74.715201 
L 308.070661 -74.715201 
L 309.082531 -74.715201 
L 310.094401 -74.715201 
L 311.07363 -74.715201 
L 312.0855 -74.715201 
L 313.064729 -74.715201 
L 314.076599 -74.715201 
L 315.08847 -74.715201 
L 316.002417 -74.715201 
L 317.014287 -74.715201 
L 317.993516 -74.715201 
L 319.005386 -74.715201 
L 319.984615 -74.715201 
L 320.996485 -74.715201 
L 322.008356 -74.715201 
L 322.987585 -74.715201 
L 323.999455 -74.715201 
L 324.978684 -74.715201 
L 325.990554 -74.715201 
L 327.002424 -74.715201 
L 327.916371 -74.715201 
L 328.928242 -74.715201 
L 329.907471 -74.715201 
L 330.919341 -74.715201 
L 331.89857 -74.715201 
L 332.91044 -74.715201 
L 333.92231 -74.715201 
L 334.901539 -74.715201 
L 335.91341 -74.715201 
L 336.892639 -74.715201 
L 337.904509 -74.715201 
L 338.916379 -74.715201 
L 339.830326 -74.715201 
L 340.842196 -74.715201 
L 341.821425 -74.715201 
L 342.833296 -74.715201 
L 343.812525 -74.715201 
L 344.824395 -74.715201 
L 345.836265 -74.715201 
L 346.815494 -74.715201 
L 347.827364 -74.715201 
L 348.806593 -74.715201 
L 349.818463 -74.715201 
L 350.830334 -74.715201 
L 351.776922 -74.715201 
L 352.788792 -74.715201 
L 353.768021 -74.715201 
L 354.779891 -74.715201 
L 355.75912 -74.715201 
L 356.77099 -74.715201 
L 357.782861 -74.715201 
L 358.76209 -74.715201 
L 359.77396 -74.715201 
L 360.753189 -74.715201 
L 361.765059 -74.715201 
L 362.776929 -74.715201 
L 363.690876 -74.715201 
L 364.702747 -74.715201 
L 365.681976 -74.715201 
L 366.693846 -74.715201 
L 367.673075 -74.715201 
L 368.684945 -74.715201 
L 369.696815 -74.715201 
L 370.676044 -74.715201 
L 371.687915 -74.715201 
L 372.667144 -74.715201 
L 373.679014 -74.715201 
L 374.690884 -74.715201 
L 375.604831 -74.715201 
L 376.616701 -74.715201 
L 377.59593 -74.715201 
L 378.607801 -74.715201 
L 379.58703 -74.715201 
L 380.5989 -74.715201 
L 381.61077 -74.715201 
L 382.589999 -74.715201 
L 383.601869 -74.715201 
L 384.581098 -74.715201 
L 385.592969 -74.715201 
L 386.604839 -74.715201 
L 387.518786 -74.715201 
L 388.530656 -74.715201 
L 389.509885 -74.715201 
L 390.521755 -74.715201 
L 391.500984 -74.715201 
L 392.512855 -74.715201 
L 393.524725 -74.715201 
L 394.503954 -74.715201 
L 395.515824 -74.715201 
L 396.495053 -74.715201 
L 397.506923 -74.715201 
L 398.518793 -74.715201 
L 399.465382 -74.715201 
L 400.477252 -74.715201 
L 401.456481 -74.715201 
L 402.468351 -74.715201 
L 403.44758 -74.715201 
L 404.45945 -74.715201 
L 405.47132 -74.715201 
L 406.450549 -74.715201 
L 407.46242 -74.715201 
L 408.441649 -74.715201 
L 409.453519 -74.715201 
L 410.465389 -74.715201 
L 411.379336 -74.715201 
L 412.391206 -74.715201 
L 413.370435 -74.715201 
L 414.382306 -74.715201 
L 415.361535 -74.715201 
L 416.373405 -74.715201 
L 417.385275 -74.715201 
L 418.364504 -74.715201 
L 419.376374 -74.715201 
L 420.355603 -74.715201 
L 421.367474 -74.715201 
L 422.379344 -74.715201 
L 423.293291 -74.715201 
L 424.305161 -74.715201 
L 425.28439 -74.715201 
L 426.29626 -74.715201 
L 427.275489 -74.715201 
L 428.28736 -74.715201 
L 429.29923 -74.715201 
L 430.278459 -74.715201 
L 431.290329 -74.715201 
L 432.269558 -74.715201 
L 433.281428 -74.715201 
L 434.293298 -74.715201 
L 435.207246 -74.715201 
L 436.219116 -74.715201 
L 437.198345 -74.715201 
L 438.210215 -74.715201 
L 439.189444 -74.715201 
L 440.201314 -74.715201 
L 441.213184 -74.715201 
L 442.192414 -74.715201 
L 443.204284 -74.715201 
L 444.183513 -74.715201 
L 445.195383 -74.715201 
L 446.207253 -74.715201 
L 446.207253 146.793855 
L 446.207253 146.793855 
L 445.195383 146.793855 
L 444.183513 146.793855 
L 443.204284 146.793855 
L 442.192414 146.793855 
L 441.213184 146.793855 
L 440.201314 146.793855 
L 439.189444 146.793855 
L 438.210215 146.793855 
L 437.198345 146.793855 
L 436.219116 146.793855 
L 435.207246 146.793855 
L 434.293298 146.793855 
L 433.281428 146.793855 
L 432.269558 146.793855 
L 431.290329 146.793855 
L 430.278459 146.793855 
L 429.29923 146.793855 
L 428.28736 146.793855 
L 427.275489 146.793855 
L 426.29626 146.793855 
L 425.28439 146.793855 
L 424.305161 146.793855 
L 423.293291 146.793855 
L 422.379344 146.793855 
L 421.367474 146.793855 
L 420.355603 146.793855 
L 419.376374 146.793855 
L 418.364504 146.793855 
L 417.385275 146.793855 
L 416.373405 146.793855 
L 415.361535 146.793855 
L 414.382306 146.793855 
L 413.370435 146.793855 
L 412.391206 146.793855 
L 411.379336 146.793855 
L 410.465389 146.793855 
L 409.453519 146.793855 
L 408.441649 146.793855 
L 407.46242 146.793855 
L 406.450549 146.793855 
L 405.47132 146.793855 
L 404.45945 146.793855 
L 403.44758 146.793855 
L 402.468351 146.793855 
L 401.456481 146.793855 
L 400.477252 146.793855 
L 399.465382 146.793855 
L 398.518793 146.793855 
L 397.506923 146.793855 
L 396.495053 146.793855 
L 395.515824 146.793855 
L 394.503954 146.793855 
L 393.524725 146.793855 
L 392.512855 146.793855 
L 391.500984 146.793855 
L 390.521755 146.793855 
L 389.509885 146.793855 
L 388.530656 146.793855 
L 387.518786 146.793855 
L 386.604839 146.793855 
L 385.592969 146.793855 
L 384.581098 146.793855 
L 383.601869 146.793855 
L 382.589999 146.793855 
L 381.61077 146.793855 
L 380.5989 146.793855 
L 379.58703 146.793855 
L 378.607801 146.793855 
L 377.59593 146.793855 
L 376.616701 146.793855 
L 375.604831 146.793855 
L 374.690884 146.793855 
L 373.679014 146.793855 
L 372.667144 146.793855 
L 371.687915 146.793855 
L 370.676044 146.793855 
L 369.696815 146.793855 
L 368.684945 146.793855 
L 367.673075 146.793855 
L 366.693846 146.793855 
L 365.681976 146.793855 
L 364.702747 146.793855 
L 363.690876 146.793855 
L 362.776929 146.793855 
L 361.765059 146.793855 
L 360.753189 146.793855 
L 359.77396 146.793855 
L 358.76209 146.793855 
L 357.782861 146.793855 
L 356.77099 146.793855 
L 355.75912 146.793855 
L 354.779891 146.793855 
L 353.768021 146.793855 
L 352.788792 146.793855 
L 351.776922 146.793855 
L 350.830334 146.793855 
L 349.818463 146.793855 
L 348.806593 146.793855 
L 347.827364 146.793855 
L 346.815494 146.793855 
L 345.836265 146.793855 
L 344.824395 146.793855 
L 343.812525 146.793855 
L 342.833296 146.793855 
L 341.821425 146.793855 
L 340.842196 146.793855 
L 339.830326 146.793855 
L 338.916379 146.793855 
L 337.904509 146.793855 
L 336.892639 146.793855 
L 335.91341 146.793855 
L 334.901539 146.793855 
L 333.92231 146.793855 
L 332.91044 146.793855 
L 331.89857 146.793855 
L 330.919341 146.793855 
L 329.907471 146.793855 
L 328.928242 146.793855 
L 327.916371 146.793855 
L 327.002424 146.793855 
L 325.990554 146.793855 
L 324.978684 146.793855 
L 323.999455 146.793855 
L 322.987585 146.793855 
L 322.008356 146.793855 
L 320.996485 146.793855 
L 319.984615 146.793855 
L 319.005386 146.793855 
L 317.993516 146.793855 
L 317.014287 146.793855 
L 316.002417 146.793855 
L 315.08847 146.793855 
L 314.076599 146.793855 
L 313.064729 146.793855 
L 312.0855 146.793855 
L 311.07363 146.793855 
L 310.094401 146.793855 
L 309.082531 146.793855 
L 308.070661 146.793855 
L 307.091431 146.793855 
L 306.079561 146.793855 
L 305.100332 146.793855 
L 304.088462 146.793855 
L 303.141874 146.793855 
L 302.130004 146.793855 
L 301.118134 146.793855 
L 300.138904 146.793855 
L 299.127034 146.793855 
L 298.147805 146.793855 
L 297.135935 146.793855 
L 296.124065 146.793855 
L 295.144836 146.793855 
L 294.132966 146.793855 
L 293.153737 146.793855 
L 292.141866 146.793855 
L 291.227919 146.793855 
L 290.216049 146.793855 
L 289.204179 146.793855 
L 288.22495 146.793855 
L 287.21308 146.793855 
L 286.23385 146.793855 
L 285.22198 146.793855 
L 284.21011 146.793855 
L 283.230881 146.793855 
L 282.219011 146.793855 
L 281.239782 146.793855 
L 280.227912 146.793855 
L 279.313964 146.793855 
L 278.302094 146.793855 
L 277.290224 146.793855 
L 276.310995 146.793855 
L 275.299125 146.793855 
L 274.319896 146.793855 
L 273.308026 146.793855 
L 272.296156 146.793855 
L 271.316926 146.793855 
L 270.305056 146.793855 
L 269.325827 146.793855 
L 268.313957 146.793855 
L 267.40001 146.793855 
L 266.38814 146.793855 
L 265.37627 146.793855 
L 264.39704 146.793855 
L 263.38517 146.793855 
L 262.405941 146.793855 
L 261.394071 146.793855 
L 260.382201 146.793855 
L 259.402972 146.793855 
L 258.391102 146.793855 
L 257.411872 146.793855 
L 256.400002 146.793855 
L 255.453414 146.793855 
L 254.441544 146.793855 
L 253.429674 146.793855 
L 252.450445 146.793855 
L 251.438575 146.793855 
L 250.459345 146.793855 
L 249.447475 146.793855 
L 248.435605 146.793855 
L 247.456376 146.793855 
L 246.444506 146.793855 
L 245.465277 146.793855 
L 244.453407 146.793855 
L 243.539459 146.793855 
L 242.527589 146.793855 
L 241.515719 146.793855 
L 240.53649 146.793855 
L 239.52462 146.793855 
L 238.545391 146.793855 
L 237.533521 146.793855 
L 236.521651 146.793855 
L 235.542421 146.793855 
L 234.530551 146.793855 
L 233.551322 146.793855 
L 232.539452 146.793855 
L 231.625505 146.793855 
L 230.613635 146.793855 
L 229.601764 146.793855 
L 228.622535 146.793855 
L 227.610665 146.793855 
L 226.631436 146.793855 
L 225.619566 146.793855 
L 224.607696 146.793855 
L 223.628467 146.793855 
L 222.616597 146.793855 
L 221.637367 146.793855 
L 220.625497 146.793855 
L 219.71155 146.793855 
L 218.69968 146.793855 
L 217.68781 146.793855 
L 216.708581 146.793855 
L 215.696711 146.793855 
L 214.717481 146.793855 
L 213.705611 146.793855 
L 212.693741 146.793855 
L 211.714512 146.793855 
L 210.702642 146.793855 
L 209.723413 146.793855 
L 208.711543 146.793855 
L 207.764954 146.793855 
L 206.753084 146.793855 
L 205.741214 146.793855 
L 204.761985 146.793855 
L 203.750115 146.793855 
L 202.770886 146.793855 
L 201.759016 146.793855 
L 200.747145 146.793855 
L 199.767916 146.793855 
L 198.756046 146.793855 
L 197.776817 146.793855 
L 196.764947 146.793855 
L 195.851 146.793855 
L 194.83913 146.793855 
L 193.827259 146.793855 
L 192.84803 146.793855 
L 191.83616 146.793855 
L 190.856931 146.793855 
L 189.845061 146.793855 
L 188.833191 146.793855 
L 187.853962 146.793855 
L 186.842091 146.793855 
L 185.862862 146.793855 
L 184.850992 146.793855 
L 183.937045 146.793855 
L 182.925175 146.793855 
L 181.913305 146.793855 
L 180.934076 146.793855 
L 179.922205 146.793855 
L 178.942976 146.793855 
L 177.931106 146.793855 
z
" id="m6568422ebf" style="stroke:#ff7f0e;stroke-opacity:0.3;"/>
    </defs>
    <g clip-path="url(#p616686872b)">
     <use style="fill:#ff7f0e;fill-opacity:0.3;stroke:#ff7f0e;stroke-opacity:0.3;" x="0" xlink:href="#m6568422ebf" y="288"/>
    </g>
   </g>
   <g id="PolyCollection_3">
    <path clip-path="url(#p616686872b)" d="M 177.931106 434.793855 
L 177.931106 201.74387 
L 178.942976 201.521007 
L 179.922205 201.297931 
L 180.934076 201.074641 
L 181.913305 200.851138 
L 182.925175 200.627421 
L 183.937045 200.403491 
L 184.850992 200.179346 
L 185.862862 199.954986 
L 186.842091 199.730413 
L 187.853962 199.505624 
L 188.833191 199.28062 
L 189.845061 199.055402 
L 190.856931 198.829968 
L 191.83616 198.604318 
L 192.84803 198.378452 
L 193.827259 198.152371 
L 194.83913 197.926073 
L 195.851 197.699559 
L 196.764947 197.472829 
L 197.776817 197.245881 
L 198.756046 197.018717 
L 199.767916 196.791335 
L 200.747145 196.563736 
L 201.759016 196.335919 
L 202.770886 196.107884 
L 203.750115 195.879631 
L 204.761985 195.65116 
L 205.741214 195.422471 
L 206.753084 195.193562 
L 207.764954 194.964435 
L 208.711543 194.735089 
L 209.723413 194.505524 
L 210.702642 194.275738 
L 211.714512 194.045734 
L 212.693741 193.815509 
L 213.705611 193.585064 
L 214.717481 193.354399 
L 215.696711 193.123513 
L 216.708581 192.892406 
L 217.68781 192.661078 
L 218.69968 192.429529 
L 219.71155 192.197759 
L 220.625497 191.965767 
L 221.637367 191.733553 
L 222.616597 191.501117 
L 223.628467 191.268459 
L 224.607696 191.035578 
L 225.619566 190.802475 
L 226.631436 190.569149 
L 227.610665 190.335599 
L 228.622535 190.101827 
L 229.601764 189.86783 
L 230.613635 189.63361 
L 231.625505 189.399166 
L 232.539452 189.164498 
L 233.551322 188.929605 
L 234.530551 188.694488 
L 235.542421 188.459146 
L 236.521651 188.223579 
L 237.533521 187.987786 
L 238.545391 187.751768 
L 239.52462 187.515525 
L 240.53649 187.279055 
L 241.515719 187.042359 
L 242.527589 186.805437 
L 243.539459 186.568289 
L 244.453407 186.330913 
L 245.465277 186.093311 
L 246.444506 185.855481 
L 247.456376 185.617424 
L 248.435605 185.37914 
L 249.447475 185.140627 
L 250.459345 184.901887 
L 251.438575 184.662918 
L 252.450445 184.42372 
L 253.429674 184.184294 
L 254.441544 183.944639 
L 255.453414 183.704754 
L 256.400002 183.464641 
L 257.411872 183.224297 
L 258.391102 182.983724 
L 259.402972 182.742921 
L 260.382201 182.501887 
L 261.394071 182.260623 
L 262.405941 182.019128 
L 263.38517 181.777403 
L 264.39704 181.535446 
L 265.37627 181.293258 
L 266.38814 181.050838 
L 267.40001 180.808186 
L 268.313957 180.565302 
L 269.325827 180.322186 
L 270.305056 180.078838 
L 271.316926 179.835257 
L 272.296156 179.591443 
L 273.308026 179.347395 
L 274.319896 179.103115 
L 275.299125 178.858601 
L 276.310995 178.613852 
L 277.290224 178.36887 
L 278.302094 178.123654 
L 279.313964 177.878203 
L 280.227912 177.632517 
L 281.239782 177.386597 
L 282.219011 177.140441 
L 283.230881 176.89405 
L 284.21011 176.647423 
L 285.22198 176.400561 
L 286.23385 176.153462 
L 287.21308 175.906127 
L 288.22495 175.658555 
L 289.204179 175.410747 
L 290.216049 175.162702 
L 291.227919 174.91442 
L 292.141866 174.6659 
L 293.153737 174.417142 
L 294.132966 174.168147 
L 295.144836 173.918913 
L 296.124065 173.669441 
L 297.135935 173.419731 
L 298.147805 173.169782 
L 299.127034 172.919594 
L 300.138904 172.669166 
L 301.118134 172.418499 
L 302.130004 172.167593 
L 303.141874 171.916446 
L 304.088462 171.665059 
L 305.100332 171.413432 
L 306.079561 171.161564 
L 307.091431 170.909455 
L 308.070661 170.657106 
L 309.082531 170.404515 
L 310.094401 170.151682 
L 311.07363 169.898608 
L 312.0855 169.645291 
L 313.064729 169.391733 
L 314.076599 169.137931 
L 315.08847 168.883888 
L 316.002417 168.629601 
L 317.014287 168.375071 
L 317.993516 168.120297 
L 319.005386 167.86528 
L 319.984615 167.61002 
L 320.996485 167.354515 
L 322.008356 167.098765 
L 322.987585 166.842771 
L 323.999455 166.586533 
L 324.978684 166.330049 
L 325.990554 166.07332 
L 327.002424 165.816346 
L 327.916371 165.559125 
L 328.928242 165.301659 
L 329.907471 165.043947 
L 330.919341 164.785988 
L 331.89857 164.527782 
L 332.91044 164.26933 
L 333.92231 164.01063 
L 334.901539 163.751683 
L 335.91341 163.492488 
L 336.892639 163.233046 
L 337.904509 162.973355 
L 338.916379 162.713416 
L 339.830326 162.453229 
L 340.842196 162.192792 
L 341.821425 161.932107 
L 342.833296 161.671172 
L 343.812525 161.409988 
L 344.824395 161.148554 
L 345.836265 160.88687 
L 346.815494 160.624936 
L 347.827364 160.362751 
L 348.806593 160.100316 
L 349.818463 159.837629 
L 350.830334 159.574692 
L 351.776922 159.311503 
L 352.788792 159.048062 
L 353.768021 158.784369 
L 354.779891 158.520424 
L 355.75912 158.256227 
L 356.77099 157.991777 
L 357.782861 157.727074 
L 358.76209 157.462118 
L 359.77396 157.196909 
L 360.753189 156.931446 
L 361.765059 156.665729 
L 362.776929 156.399759 
L 363.690876 156.133533 
L 364.702747 155.867054 
L 365.681976 155.600319 
L 366.693846 155.333329 
L 367.673075 155.066084 
L 368.684945 154.798584 
L 369.696815 154.530827 
L 370.676044 154.262815 
L 371.687915 153.994546 
L 372.667144 153.726021 
L 373.679014 153.457239 
L 374.690884 153.188199 
L 375.604831 152.918903 
L 376.616701 152.649349 
L 377.59593 152.379537 
L 378.607801 152.109468 
L 379.58703 151.83914 
L 380.5989 151.568553 
L 381.61077 151.297708 
L 382.589999 151.026604 
L 383.601869 150.75524 
L 384.581098 150.483617 
L 385.592969 150.211734 
L 386.604839 149.939592 
L 387.518786 149.667189 
L 388.530656 149.394525 
L 389.509885 149.121601 
L 390.521755 148.848416 
L 391.500984 148.574969 
L 392.512855 148.301261 
L 393.524725 148.027291 
L 394.503954 147.75306 
L 395.515824 147.478566 
L 396.495053 147.203809 
L 397.506923 146.92879 
L 398.518793 146.653508 
L 399.465382 146.377962 
L 400.477252 146.102154 
L 401.456481 145.826081 
L 402.468351 145.549744 
L 403.44758 145.273143 
L 404.45945 144.996278 
L 405.47132 144.719147 
L 406.450549 144.441752 
L 406.450549 434.793855 
L 406.450549 434.793855 
L 405.47132 434.793855 
L 404.45945 434.793855 
L 403.44758 434.793855 
L 402.468351 434.793855 
L 401.456481 434.793855 
L 400.477252 434.793855 
L 399.465382 434.793855 
L 398.518793 434.793855 
L 397.506923 434.793855 
L 396.495053 434.793855 
L 395.515824 434.793855 
L 394.503954 434.793855 
L 393.524725 434.793855 
L 392.512855 434.793855 
L 391.500984 434.793855 
L 390.521755 434.793855 
L 389.509885 434.793855 
L 388.530656 434.793855 
L 387.518786 434.793855 
L 386.604839 434.793855 
L 385.592969 434.793855 
L 384.581098 434.793855 
L 383.601869 434.793855 
L 382.589999 434.793855 
L 381.61077 434.793855 
L 380.5989 434.793855 
L 379.58703 434.793855 
L 378.607801 434.793855 
L 377.59593 434.793855 
L 376.616701 434.793855 
L 375.604831 434.793855 
L 374.690884 434.793855 
L 373.679014 434.793855 
L 372.667144 434.793855 
L 371.687915 434.793855 
L 370.676044 434.793855 
L 369.696815 434.793855 
L 368.684945 434.793855 
L 367.673075 434.793855 
L 366.693846 434.793855 
L 365.681976 434.793855 
L 364.702747 434.793855 
L 363.690876 434.793855 
L 362.776929 434.793855 
L 361.765059 434.793855 
L 360.753189 434.793855 
L 359.77396 434.793855 
L 358.76209 434.793855 
L 357.782861 434.793855 
L 356.77099 434.793855 
L 355.75912 434.793855 
L 354.779891 434.793855 
L 353.768021 434.793855 
L 352.788792 434.793855 
L 351.776922 434.793855 
L 350.830334 434.793855 
L 349.818463 434.793855 
L 348.806593 434.793855 
L 347.827364 434.793855 
L 346.815494 434.793855 
L 345.836265 434.793855 
L 344.824395 434.793855 
L 343.812525 434.793855 
L 342.833296 434.793855 
L 341.821425 434.793855 
L 340.842196 434.793855 
L 339.830326 434.793855 
L 338.916379 434.793855 
L 337.904509 434.793855 
L 336.892639 434.793855 
L 335.91341 434.793855 
L 334.901539 434.793855 
L 333.92231 434.793855 
L 332.91044 434.793855 
L 331.89857 434.793855 
L 330.919341 434.793855 
L 329.907471 434.793855 
L 328.928242 434.793855 
L 327.916371 434.793855 
L 327.002424 434.793855 
L 325.990554 434.793855 
L 324.978684 434.793855 
L 323.999455 434.793855 
L 322.987585 434.793855 
L 322.008356 434.793855 
L 320.996485 434.793855 
L 319.984615 434.793855 
L 319.005386 434.793855 
L 317.993516 434.793855 
L 317.014287 434.793855 
L 316.002417 434.793855 
L 315.08847 434.793855 
L 314.076599 434.793855 
L 313.064729 434.793855 
L 312.0855 434.793855 
L 311.07363 434.793855 
L 310.094401 434.793855 
L 309.082531 434.793855 
L 308.070661 434.793855 
L 307.091431 434.793855 
L 306.079561 434.793855 
L 305.100332 434.793855 
L 304.088462 434.793855 
L 303.141874 434.793855 
L 302.130004 434.793855 
L 301.118134 434.793855 
L 300.138904 434.793855 
L 299.127034 434.793855 
L 298.147805 434.793855 
L 297.135935 434.793855 
L 296.124065 434.793855 
L 295.144836 434.793855 
L 294.132966 434.793855 
L 293.153737 434.793855 
L 292.141866 434.793855 
L 291.227919 434.793855 
L 290.216049 434.793855 
L 289.204179 434.793855 
L 288.22495 434.793855 
L 287.21308 434.793855 
L 286.23385 434.793855 
L 285.22198 434.793855 
L 284.21011 434.793855 
L 283.230881 434.793855 
L 282.219011 434.793855 
L 281.239782 434.793855 
L 280.227912 434.793855 
L 279.313964 434.793855 
L 278.302094 434.793855 
L 277.290224 434.793855 
L 276.310995 434.793855 
L 275.299125 434.793855 
L 274.319896 434.793855 
L 273.308026 434.793855 
L 272.296156 434.793855 
L 271.316926 434.793855 
L 270.305056 434.793855 
L 269.325827 434.793855 
L 268.313957 434.793855 
L 267.40001 434.793855 
L 266.38814 434.793855 
L 265.37627 434.793855 
L 264.39704 434.793855 
L 263.38517 434.793855 
L 262.405941 434.793855 
L 261.394071 434.793855 
L 260.382201 434.793855 
L 259.402972 434.793855 
L 258.391102 434.793855 
L 257.411872 434.793855 
L 256.400002 434.793855 
L 255.453414 434.793855 
L 254.441544 434.793855 
L 253.429674 434.793855 
L 252.450445 434.793855 
L 251.438575 434.793855 
L 250.459345 434.793855 
L 249.447475 434.793855 
L 248.435605 434.793855 
L 247.456376 434.793855 
L 246.444506 434.793855 
L 245.465277 434.793855 
L 244.453407 434.793855 
L 243.539459 434.793855 
L 242.527589 434.793855 
L 241.515719 434.793855 
L 240.53649 434.793855 
L 239.52462 434.793855 
L 238.545391 434.793855 
L 237.533521 434.793855 
L 236.521651 434.793855 
L 235.542421 434.793855 
L 234.530551 434.793855 
L 233.551322 434.793855 
L 232.539452 434.793855 
L 231.625505 434.793855 
L 230.613635 434.793855 
L 229.601764 434.793855 
L 228.622535 434.793855 
L 227.610665 434.793855 
L 226.631436 434.793855 
L 225.619566 434.793855 
L 224.607696 434.793855 
L 223.628467 434.793855 
L 222.616597 434.793855 
L 221.637367 434.793855 
L 220.625497 434.793855 
L 219.71155 434.793855 
L 218.69968 434.793855 
L 217.68781 434.793855 
L 216.708581 434.793855 
L 215.696711 434.793855 
L 214.717481 434.793855 
L 213.705611 434.793855 
L 212.693741 434.793855 
L 211.714512 434.793855 
L 210.702642 434.793855 
L 209.723413 434.793855 
L 208.711543 434.793855 
L 207.764954 434.793855 
L 206.753084 434.793855 
L 205.741214 434.793855 
L 204.761985 434.793855 
L 203.750115 434.793855 
L 202.770886 434.793855 
L 201.759016 434.793855 
L 200.747145 434.793855 
L 199.767916 434.793855 
L 198.756046 434.793855 
L 197.776817 434.793855 
L 196.764947 434.793855 
L 195.851 434.793855 
L 194.83913 434.793855 
L 193.827259 434.793855 
L 192.84803 434.793855 
L 191.83616 434.793855 
L 190.856931 434.793855 
L 189.845061 434.793855 
L 188.833191 434.793855 
L 187.853962 434.793855 
L 186.842091 434.793855 
L 185.862862 434.793855 
L 184.850992 434.793855 
L 183.937045 434.793855 
L 182.925175 434.793855 
L 181.913305 434.793855 
L 180.934076 434.793855 
L 179.922205 434.793855 
L 178.942976 434.793855 
L 177.931106 434.793855 
z
" style="fill:#2ca02c;fill-opacity:0.3;stroke:#2ca02c;stroke-opacity:0.3;"/>
   </g>
   <g id="matplotlib.axis_1">
    <g id="xtick_1">
     <g id="line2d_1">
      <path clip-path="url(#p616686872b)" d="M 51.77375 252.2 
L 51.77375 17.64 
" style="fill:none;stroke:#b0b0b0;stroke-dasharray:1.48,0.64;stroke-dashoffset:0;stroke-width:0.4;"/>
     </g>
     <g id="text_1">
      <!-- 1955 -->
      <defs>
       <path d="M 6.25 0 
L 6.25 7.46875 
L 20.609375 7.46875 
L 20.609375 60.40625 
L 7.90625 49.3125 
L 7.90625 57.625 
L 21.234375 68.796875 
L 27.875 68.796875 
L 27.875 7.46875 
L 41.609375 7.46875 
L 41.609375 0 
z
" id="LiberationSansNarrow-49"/>
       <path d="M 41.703125 35.796875 
Q 41.703125 26.609375 40.28125 19.703125 
Q 38.875 12.796875 36.234375 8.203125 
Q 33.59375 3.609375 29.8125 1.3125 
Q 26.03125 -0.984375 21.296875 -0.984375 
Q 18.0625 -0.984375 15.453125 -0.171875 
Q 12.84375 0.640625 10.8125 2.34375 
Q 8.796875 4.046875 7.328125 6.78125 
Q 5.859375 9.515625 4.984375 13.375 
L 11.921875 14.703125 
Q 13.03125 10.25 15.40625 8.171875 
Q 17.78125 6.109375 21.4375 6.109375 
Q 24.359375 6.109375 26.78125 7.78125 
Q 29.203125 9.46875 30.875 12.84375 
Q 32.5625 16.21875 33.546875 21.296875 
Q 34.46875 26.375 34.578125 33.203125 
Q 33.734375 30.90625 32.265625 29.09375 
Q 30.8125 27.296875 28.953125 26.046875 
Q 27.09375 24.8125 24.9375 24.140625 
Q 22.796875 23.484375 20.5625 23.484375 
Q 16.703125 23.484375 13.625 25.171875 
Q 10.546875 26.859375 8.375 29.875 
Q 6.203125 32.90625 5.03125 37.171875 
Q 3.859375 41.453125 3.859375 46.6875 
Q 3.859375 52 5.09375 56.296875 
Q 6.34375 60.59375 8.765625 63.59375 
Q 11.1875 66.609375 14.671875 68.21875 
Q 18.171875 69.828125 22.609375 69.828125 
Q 32.03125 69.828125 36.859375 61.328125 
Q 41.703125 52.828125 41.703125 35.796875 
z
M 33.890625 44.28125 
Q 33.890625 48.09375 33.125 51.453125 
Q 32.375 54.828125 30.9375 57.3125 
Q 29.5 59.8125 27.34375 61.25 
Q 25.203125 62.703125 22.359375 62.703125 
Q 19.78125 62.703125 17.703125 61.578125 
Q 15.625 60.453125 14.1875 58.375 
Q 12.75 56.296875 11.96875 53.3125 
Q 11.1875 50.34375 11.1875 46.6875 
Q 11.1875 43.21875 11.859375 40.234375 
Q 12.546875 37.25 13.953125 35.078125 
Q 15.375 32.90625 17.453125 31.65625 
Q 19.53125 30.421875 22.3125 30.421875 
Q 24.3125 30.421875 26.359375 31.25 
Q 28.421875 32.078125 30.078125 33.78125 
Q 31.734375 35.5 32.8125 38.109375 
Q 33.890625 40.71875 33.890625 44.28125 
z
" id="LiberationSansNarrow-57"/>
       <path d="M 42.140625 22.40625 
Q 42.140625 17.234375 40.859375 12.9375 
Q 39.59375 8.640625 37.078125 5.53125 
Q 34.578125 2.4375 30.8125 0.71875 
Q 27.046875 -0.984375 22.125 -0.984375 
Q 17.671875 -0.984375 14.375 0.28125 
Q 11.078125 1.5625 8.8125 3.78125 
Q 6.546875 6 5.203125 8.984375 
Q 3.859375 11.96875 3.265625 15.375 
L 10.546875 16.40625 
Q 10.984375 14.453125 11.78125 12.625 
Q 12.59375 10.796875 13.984375 9.34375 
Q 15.375 7.90625 17.40625 7.046875 
Q 19.4375 6.203125 22.3125 6.203125 
Q 25.09375 6.203125 27.390625 7.25 
Q 29.6875 8.296875 31.296875 10.34375 
Q 32.90625 12.40625 33.78125 15.375 
Q 34.671875 18.359375 34.671875 22.21875 
Q 34.671875 25.390625 33.84375 28.046875 
Q 33.015625 30.71875 31.453125 32.640625 
Q 29.890625 34.578125 27.609375 35.640625 
Q 25.34375 36.71875 22.46875 36.71875 
Q 20.65625 36.71875 19.140625 36.328125 
Q 17.625 35.9375 16.328125 35.25 
Q 15.046875 34.578125 13.96875 33.671875 
Q 12.890625 32.765625 11.96875 31.78125 
L 4.9375 31.78125 
L 6.78125 68.796875 
L 38.875 68.796875 
L 38.875 61.328125 
L 13.375 61.328125 
L 12.3125 39.5 
Q 14.203125 41.3125 17.078125 42.59375 
Q 19.96875 43.890625 23.921875 43.890625 
Q 28.125 43.890625 31.484375 42.328125 
Q 34.859375 40.765625 37.21875 37.90625 
Q 39.59375 35.0625 40.859375 31.109375 
Q 42.140625 27.15625 42.140625 22.40625 
z
" id="LiberationSansNarrow-53"/>
      </defs>
      <g transform="translate(39.003125 269.345625)scale(0.14 -0.14)">
       <use xlink:href="#LiberationSansNarrow-49"/>
       <use x="45.605469" xlink:href="#LiberationSansNarrow-57"/>
       <use x="91.210938" xlink:href="#LiberationSansNarrow-53"/>
       <use x="136.816406" xlink:href="#LiberationSansNarrow-53"/>
      </g>
     </g>
    </g>
    <g id="xtick_2">
     <g id="line2d_2">
      <path clip-path="url(#p616686872b)" d="M 111.376165 252.2 
L 111.376165 17.64 
" style="fill:none;stroke:#b0b0b0;stroke-dasharray:1.48,0.64;stroke-dashoffset:0;stroke-width:0.4;"/>
     </g>
     <g id="text_2">
      <!-- 1960 -->
      <defs>
       <path d="M 42 22.515625 
Q 42 17.328125 40.828125 13 
Q 39.65625 8.6875 37.359375 5.578125 
Q 35.0625 2.484375 31.640625 0.75 
Q 28.21875 -0.984375 23.78125 -0.984375 
Q 18.84375 -0.984375 15.15625 1.3125 
Q 11.46875 3.609375 9.03125 7.921875 
Q 6.59375 12.25 5.375 18.53125 
Q 4.15625 24.8125 4.15625 32.8125 
Q 4.15625 42 5.546875 48.921875 
Q 6.9375 55.859375 9.515625 60.5 
Q 12.109375 65.140625 15.859375 67.484375 
Q 19.625 69.828125 24.359375 69.828125 
Q 27.25 69.828125 29.765625 69.09375 
Q 32.28125 68.359375 34.328125 66.71875 
Q 36.375 65.09375 37.9375 62.40625 
Q 39.5 59.71875 40.4375 55.8125 
L 33.546875 54.296875 
Q 32.421875 58.734375 29.953125 60.71875 
Q 27.484375 62.703125 24.265625 62.703125 
Q 21.296875 62.703125 18.890625 60.984375 
Q 16.5 59.28125 14.8125 55.875 
Q 13.140625 52.484375 12.234375 47.359375 
Q 11.328125 42.234375 11.328125 35.40625 
Q 13.28125 39.84375 16.84375 42.15625 
Q 20.40625 44.484375 25.046875 44.484375 
Q 28.90625 44.484375 32 42.96875 
Q 35.109375 41.453125 37.328125 38.59375 
Q 39.546875 35.75 40.765625 31.671875 
Q 42 27.59375 42 22.515625 
z
M 34.671875 22.125 
Q 34.671875 25.6875 33.953125 28.5625 
Q 33.25 31.453125 31.8125 33.46875 
Q 30.375 35.5 28.25 36.59375 
Q 26.125 37.703125 23.296875 37.703125 
Q 21.34375 37.703125 19.328125 36.984375 
Q 17.328125 36.28125 15.71875 34.6875 
Q 14.109375 33.109375 13.078125 30.515625 
Q 12.0625 27.9375 12.0625 24.21875 
Q 12.0625 20.40625 12.859375 17.109375 
Q 13.671875 13.8125 15.15625 11.375 
Q 16.65625 8.9375 18.78125 7.515625 
Q 20.90625 6.109375 23.53125 6.109375 
Q 26.125 6.109375 28.203125 7.203125 
Q 30.28125 8.296875 31.71875 10.375 
Q 33.15625 12.453125 33.90625 15.421875 
Q 34.671875 18.40625 34.671875 22.125 
z
" id="LiberationSansNarrow-54"/>
       <path d="M 42.390625 34.421875 
Q 42.390625 24.515625 40.84375 17.75 
Q 39.3125 10.984375 36.640625 6.8125 
Q 33.984375 2.640625 30.390625 0.828125 
Q 26.8125 -0.984375 22.703125 -0.984375 
Q 18.609375 -0.984375 15.03125 0.828125 
Q 11.46875 2.640625 8.828125 6.78125 
Q 6.203125 10.9375 4.703125 17.703125 
Q 3.21875 24.46875 3.21875 34.421875 
Q 3.21875 44.828125 4.703125 51.640625 
Q 6.203125 58.453125 8.828125 62.5 
Q 11.46875 66.546875 15.078125 68.1875 
Q 18.703125 69.828125 22.953125 69.828125 
Q 27 69.828125 30.53125 68.1875 
Q 34.078125 66.546875 36.71875 62.5 
Q 39.359375 58.453125 40.875 51.640625 
Q 42.390625 44.828125 42.390625 34.421875 
z
M 35.0625 34.421875 
Q 35.0625 42.625 34.28125 48.0625 
Q 33.5 53.515625 31.9375 56.765625 
Q 30.375 60.015625 28.09375 61.359375 
Q 25.828125 62.703125 22.953125 62.703125 
Q 19.921875 62.703125 17.578125 61.328125 
Q 15.234375 59.96875 13.671875 56.71875 
Q 12.109375 53.46875 11.296875 48.015625 
Q 10.5 42.578125 10.5 34.421875 
Q 10.5 26.515625 11.296875 21.09375 
Q 12.109375 15.671875 13.6875 12.375 
Q 15.28125 9.078125 17.578125 7.640625 
Q 19.875 6.203125 22.796875 6.203125 
Q 25.640625 6.203125 27.90625 7.640625 
Q 30.171875 9.078125 31.75 12.375 
Q 33.34375 15.671875 34.203125 21.09375 
Q 35.0625 26.515625 35.0625 34.421875 
z
" id="LiberationSansNarrow-48"/>
      </defs>
      <g transform="translate(98.60554 269.345625)scale(0.14 -0.14)">
       <use xlink:href="#LiberationSansNarrow-49"/>
       <use x="45.605469" xlink:href="#LiberationSansNarrow-57"/>
       <use x="91.210938" xlink:href="#LiberationSansNarrow-54"/>
       <use x="136.816406" xlink:href="#LiberationSansNarrow-48"/>
      </g>
     </g>
    </g>
    <g id="xtick_3">
     <g id="line2d_3">
      <path clip-path="url(#p616686872b)" d="M 171.01122 252.2 
L 171.01122 17.64 
" style="fill:none;stroke:#b0b0b0;stroke-dasharray:1.48,0.64;stroke-dashoffset:0;stroke-width:0.4;"/>
     </g>
     <g id="text_3">
      <!-- 1965 -->
      <g transform="translate(158.240595 269.345625)scale(0.14 -0.14)">
       <use xlink:href="#LiberationSansNarrow-49"/>
       <use x="45.605469" xlink:href="#LiberationSansNarrow-57"/>
       <use x="91.210938" xlink:href="#LiberationSansNarrow-54"/>
       <use x="136.816406" xlink:href="#LiberationSansNarrow-53"/>
      </g>
     </g>
    </g>
    <g id="xtick_4">
     <g id="line2d_4">
      <path clip-path="url(#p616686872b)" d="M 230.613635 252.2 
L 230.613635 17.64 
" style="fill:none;stroke:#b0b0b0;stroke-dasharray:1.48,0.64;stroke-dashoffset:0;stroke-width:0.4;"/>
     </g>
     <g id="text_4">
      <!-- 1970 -->
      <defs>
       <path d="M 41.5 61.671875 
Q 37.25 53.765625 33.6875 46.453125 
Q 30.125 39.15625 27.5625 31.75 
Q 25 24.359375 23.5625 16.578125 
Q 22.125 8.796875 22.125 0 
L 14.59375 0 
Q 14.59375 8.25 16.203125 16.1875 
Q 17.828125 24.125 20.53125 31.765625 
Q 23.25 39.40625 26.859375 46.78125 
Q 30.46875 54.15625 34.515625 61.328125 
L 4.203125 61.328125 
L 4.203125 68.796875 
L 41.5 68.796875 
z
" id="LiberationSansNarrow-55"/>
      </defs>
      <g transform="translate(217.84301 269.345625)scale(0.14 -0.14)">
       <use xlink:href="#LiberationSansNarrow-49"/>
       <use x="45.605469" xlink:href="#LiberationSansNarrow-57"/>
       <use x="91.210938" xlink:href="#LiberationSansNarrow-55"/>
       <use x="136.816406" xlink:href="#LiberationSansNarrow-48"/>
      </g>
     </g>
    </g>
    <g id="xtick_5">
     <g id="line2d_5">
      <path clip-path="url(#p616686872b)" d="M 290.216049 252.2 
L 290.216049 17.64 
" style="fill:none;stroke:#b0b0b0;stroke-dasharray:1.48,0.64;stroke-dashoffset:0;stroke-width:0.4;"/>
     </g>
     <g id="text_5">
      <!-- 1975 -->
      <g transform="translate(277.445424 269.345625)scale(0.14 -0.14)">
       <use xlink:href="#LiberationSansNarrow-49"/>
       <use x="45.605469" xlink:href="#LiberationSansNarrow-57"/>
       <use x="91.210938" xlink:href="#LiberationSansNarrow-55"/>
       <use x="136.816406" xlink:href="#LiberationSansNarrow-53"/>
      </g>
     </g>
    </g>
    <g id="xtick_6">
     <g id="line2d_6">
      <path clip-path="url(#p616686872b)" d="M 349.818463 252.2 
L 349.818463 17.64 
" style="fill:none;stroke:#b0b0b0;stroke-dasharray:1.48,0.64;stroke-dashoffset:0;stroke-width:0.4;"/>
     </g>
     <g id="text_6">
      <!-- 1980 -->
      <defs>
       <path d="M 42.046875 19.1875 
Q 42.046875 14.796875 40.890625 11.109375 
Q 39.75 7.421875 37.40625 4.734375 
Q 35.0625 2.046875 31.421875 0.53125 
Q 27.78125 -0.984375 22.796875 -0.984375 
Q 17.828125 -0.984375 14.203125 0.53125 
Q 10.59375 2.046875 8.21875 4.703125 
Q 5.859375 7.375 4.703125 11.0625 
Q 3.5625 14.75 3.5625 19.09375 
Q 3.5625 22.859375 4.515625 25.78125 
Q 5.46875 28.71875 7.03125 30.828125 
Q 8.59375 32.953125 10.609375 34.25 
Q 12.640625 35.546875 14.796875 35.984375 
L 14.796875 36.1875 
Q 12.453125 36.859375 10.59375 38.375 
Q 8.734375 39.890625 7.46875 42.015625 
Q 6.203125 44.140625 5.546875 46.71875 
Q 4.890625 49.3125 4.890625 52.203125 
Q 4.890625 55.8125 6.03125 59 
Q 7.171875 62.203125 9.421875 64.625 
Q 11.671875 67.046875 14.984375 68.4375 
Q 18.3125 69.828125 22.65625 69.828125 
Q 27.25 69.828125 30.640625 68.40625 
Q 34.03125 67 36.25 64.578125 
Q 38.484375 62.15625 39.546875 58.9375 
Q 40.625 55.71875 40.625 52.09375 
Q 40.625 49.265625 39.96875 46.671875 
Q 39.3125 44.09375 38.0625 41.96875 
Q 36.8125 39.84375 34.9375 38.34375 
Q 33.0625 36.859375 30.609375 36.28125 
L 30.609375 36.078125 
Q 33.0625 35.59375 35.15625 34.296875 
Q 37.25 33.015625 38.765625 30.890625 
Q 40.28125 28.765625 41.15625 25.828125 
Q 42.046875 22.90625 42.046875 19.1875 
z
M 33.15625 51.609375 
Q 33.15625 54.203125 32.609375 56.34375 
Q 32.078125 58.5 30.828125 60.03125 
Q 29.59375 61.578125 27.59375 62.421875 
Q 25.59375 63.28125 22.65625 63.28125 
Q 19.828125 63.28125 17.875 62.421875 
Q 15.921875 61.578125 14.640625 60.03125 
Q 13.375 58.5 12.8125 56.34375 
Q 12.25 54.203125 12.25 51.609375 
Q 12.25 49.5625 12.6875 47.40625 
Q 13.140625 45.265625 14.3125 43.5 
Q 15.484375 41.75 17.5 40.625 
Q 19.53125 39.5 22.75 39.5 
Q 26.171875 39.5 28.21875 40.625 
Q 30.28125 41.75 31.375 43.5 
Q 32.46875 45.265625 32.8125 47.40625 
Q 33.15625 49.5625 33.15625 51.609375 
z
M 34.578125 20.015625 
Q 34.578125 22.515625 34.015625 24.828125 
Q 33.453125 27.15625 32.078125 28.9375 
Q 30.71875 30.71875 28.421875 31.8125 
Q 26.125 32.90625 22.65625 32.90625 
Q 19.484375 32.90625 17.265625 31.8125 
Q 15.046875 30.71875 13.671875 28.90625 
Q 12.3125 27.09375 11.671875 24.71875 
Q 11.03125 22.359375 11.03125 19.828125 
Q 11.03125 16.65625 11.671875 14.03125 
Q 12.3125 11.421875 13.703125 9.546875 
Q 15.09375 7.671875 17.375 6.640625 
Q 19.671875 5.609375 22.90625 5.609375 
Q 26.171875 5.609375 28.421875 6.640625 
Q 30.671875 7.671875 32.03125 9.546875 
Q 33.40625 11.421875 33.984375 14.078125 
Q 34.578125 16.75 34.578125 20.015625 
z
" id="LiberationSansNarrow-56"/>
      </defs>
      <g transform="translate(337.047838 269.345625)scale(0.14 -0.14)">
       <use xlink:href="#LiberationSansNarrow-49"/>
       <use x="45.605469" xlink:href="#LiberationSansNarrow-57"/>
       <use x="91.210938" xlink:href="#LiberationSansNarrow-56"/>
       <use x="136.816406" xlink:href="#LiberationSansNarrow-48"/>
      </g>
     </g>
    </g>
    <g id="xtick_7">
     <g id="line2d_7">
      <path clip-path="url(#p616686872b)" d="M 409.453519 252.2 
L 409.453519 17.64 
" style="fill:none;stroke:#b0b0b0;stroke-dasharray:1.48,0.64;stroke-dashoffset:0;stroke-width:0.4;"/>
     </g>
     <g id="text_7">
      <!-- 1985 -->
      <g transform="translate(396.682894 269.345625)scale(0.14 -0.14)">
       <use xlink:href="#LiberationSansNarrow-49"/>
       <use x="45.605469" xlink:href="#LiberationSansNarrow-57"/>
       <use x="91.210938" xlink:href="#LiberationSansNarrow-56"/>
       <use x="136.816406" xlink:href="#LiberationSansNarrow-53"/>
      </g>
     </g>
    </g>
    <g id="xtick_8">
     <g id="line2d_8">
      <path clip-path="url(#p616686872b)" d="M 469.055933 252.2 
L 469.055933 17.64 
" style="fill:none;stroke:#b0b0b0;stroke-dasharray:1.48,0.64;stroke-dashoffset:0;stroke-width:0.4;"/>
     </g>
     <g id="text_8">
      <!-- 1990 -->
      <g transform="translate(456.285308 269.345625)scale(0.14 -0.14)">
       <use xlink:href="#LiberationSansNarrow-49"/>
       <use x="45.605469" xlink:href="#LiberationSansNarrow-57"/>
       <use x="91.210938" xlink:href="#LiberationSansNarrow-57"/>
       <use x="136.816406" xlink:href="#LiberationSansNarrow-48"/>
      </g>
     </g>
    </g>
    <g id="xtick_9">
     <g id="line2d_9">
      <path clip-path="url(#p616686872b)" d="M 528.658348 252.2 
L 528.658348 17.64 
" style="fill:none;stroke:#b0b0b0;stroke-dasharray:1.48,0.64;stroke-dashoffset:0;stroke-width:0.4;"/>
     </g>
     <g id="text_9">
      <!-- 1995 -->
      <g transform="translate(515.887723 269.345625)scale(0.14 -0.14)">
       <use xlink:href="#LiberationSansNarrow-49"/>
       <use x="45.605469" xlink:href="#LiberationSansNarrow-57"/>
       <use x="91.210938" xlink:href="#LiberationSansNarrow-57"/>
       <use x="136.816406" xlink:href="#LiberationSansNarrow-53"/>
      </g>
     </g>
    </g>
   </g>
   <g id="matplotlib.axis_2">
    <g id="ytick_1">
     <g id="line2d_10">
      <path clip-path="url(#p616686872b)" d="M 34.9 231.577616 
L 558.36 231.577616 
" style="fill:none;stroke:#b0b0b0;stroke-dasharray:1.48,0.64;stroke-dashoffset:0;stroke-width:0.4;"/>
     </g>
     <g id="text_10">
      <!-- 30 -->
      <defs>
       <path d="M 42 19 
Q 42 14.265625 40.75 10.546875 
Q 39.5 6.84375 37.0625 4.265625 
Q 34.625 1.703125 31.046875 0.359375 
Q 27.484375 -0.984375 22.859375 -0.984375 
Q 17.625 -0.984375 14.03125 0.609375 
Q 10.453125 2.203125 8.125 4.8125 
Q 5.8125 7.421875 4.640625 10.765625 
Q 3.46875 14.109375 3.125 17.671875 
L 10.546875 18.5 
Q 10.890625 15.765625 11.734375 13.515625 
Q 12.59375 11.28125 14.078125 9.671875 
Q 15.578125 8.0625 17.75 7.171875 
Q 19.921875 6.296875 22.859375 6.296875 
Q 28.328125 6.296875 31.421875 9.5625 
Q 34.515625 12.84375 34.515625 19.28125 
Q 34.515625 23.09375 33.125 25.40625 
Q 31.734375 27.734375 29.6875 29.03125 
Q 27.640625 30.328125 25.21875 30.765625 
Q 22.796875 31.203125 20.75 31.203125 
L 16.65625 31.203125 
L 16.65625 38.8125 
L 20.5625 38.8125 
Q 22.609375 38.8125 24.828125 39.328125 
Q 27.046875 39.84375 28.859375 41.1875 
Q 30.671875 42.53125 31.859375 44.828125 
Q 33.0625 47.125 33.0625 50.6875 
Q 33.0625 56.203125 30.375 59.390625 
Q 27.6875 62.59375 22.46875 62.59375 
Q 17.671875 62.59375 14.734375 59.609375 
Q 11.8125 56.640625 11.328125 51.21875 
L 4.109375 51.90625 
Q 4.546875 56.453125 6.125 59.8125 
Q 7.71875 63.1875 10.171875 65.40625 
Q 12.640625 67.625 15.8125 68.71875 
Q 19 69.828125 22.5625 69.828125 
Q 27.296875 69.828125 30.6875 68.375 
Q 34.078125 66.9375 36.21875 64.46875 
Q 38.375 62.015625 39.40625 58.6875 
Q 40.4375 55.375 40.4375 51.609375 
Q 40.4375 48.578125 39.75 45.9375 
Q 39.0625 43.3125 37.625 41.203125 
Q 36.1875 39.109375 33.953125 37.59375 
Q 31.734375 36.078125 28.609375 35.296875 
L 28.609375 35.109375 
Q 32.03125 34.671875 34.546875 33.21875 
Q 37.0625 31.78125 38.71875 29.625 
Q 40.375 27.484375 41.1875 24.75 
Q 42 22.015625 42 19 
z
" id="LiberationSansNarrow-51"/>
      </defs>
      <g transform="translate(15.129375 236.650429)scale(0.14 -0.14)">
       <use xlink:href="#LiberationSansNarrow-51"/>
       <use x="45.605469" xlink:href="#LiberationSansNarrow-48"/>
      </g>
     </g>
    </g>
    <g id="ytick_2">
     <g id="line2d_11">
      <path clip-path="url(#p616686872b)" d="M 34.9 197.708243 
L 558.36 197.708243 
" style="fill:none;stroke:#b0b0b0;stroke-dasharray:1.48,0.64;stroke-dashoffset:0;stroke-width:0.4;"/>
     </g>
     <g id="text_11">
      <!-- 35 -->
      <g transform="translate(15.129375 202.781056)scale(0.14 -0.14)">
       <use xlink:href="#LiberationSansNarrow-51"/>
       <use x="45.605469" xlink:href="#LiberationSansNarrow-53"/>
      </g>
     </g>
    </g>
    <g id="ytick_3">
     <g id="line2d_12">
      <path clip-path="url(#p616686872b)" d="M 34.9 163.83887 
L 558.36 163.83887 
" style="fill:none;stroke:#b0b0b0;stroke-dasharray:1.48,0.64;stroke-dashoffset:0;stroke-width:0.4;"/>
     </g>
     <g id="text_12">
      <!-- 40 -->
      <defs>
       <path d="M 35.25 15.578125 
L 35.25 0 
L 28.46875 0 
L 28.46875 15.578125 
L 1.90625 15.578125 
L 1.90625 22.40625 
L 27.6875 68.796875 
L 35.25 68.796875 
L 35.25 22.515625 
L 43.21875 22.515625 
L 43.21875 15.578125 
z
M 28.46875 58.890625 
Q 28.375 58.640625 28.03125 57.90625 
L 27.34375 56.34375 
L 26.5625 54.59375 
Q 26.125 53.65625 25.78125 53.078125 
L 11.328125 27.09375 
Q 11.140625 26.703125 10.75 26.078125 
L 9.96875 24.8125 
L 9.1875 23.484375 
Q 8.796875 22.859375 8.546875 22.515625 
L 28.46875 22.515625 
z
" id="LiberationSansNarrow-52"/>
      </defs>
      <g transform="translate(15.129375 168.911683)scale(0.14 -0.14)">
       <use xlink:href="#LiberationSansNarrow-52"/>
       <use x="45.605469" xlink:href="#LiberationSansNarrow-48"/>
      </g>
     </g>
    </g>
    <g id="ytick_4">
     <g id="line2d_13">
      <path clip-path="url(#p616686872b)" d="M 34.9 129.969497 
L 558.36 129.969497 
" style="fill:none;stroke:#b0b0b0;stroke-dasharray:1.48,0.64;stroke-dashoffset:0;stroke-width:0.4;"/>
     </g>
     <g id="text_13">
      <!-- 45 -->
      <g transform="translate(15.129375 135.04231)scale(0.14 -0.14)">
       <use xlink:href="#LiberationSansNarrow-52"/>
       <use x="45.605469" xlink:href="#LiberationSansNarrow-53"/>
      </g>
     </g>
    </g>
    <g id="ytick_5">
     <g id="line2d_14">
      <path clip-path="url(#p616686872b)" d="M 34.9 96.100124 
L 558.36 96.100124 
" style="fill:none;stroke:#b0b0b0;stroke-dasharray:1.48,0.64;stroke-dashoffset:0;stroke-width:0.4;"/>
     </g>
     <g id="text_14">
      <!-- 50 -->
      <g transform="translate(15.129375 101.172937)scale(0.14 -0.14)">
       <use xlink:href="#LiberationSansNarrow-53"/>
       <use x="45.605469" xlink:href="#LiberationSansNarrow-48"/>
      </g>
     </g>
    </g>
    <g id="ytick_6">
     <g id="line2d_15">
      <path clip-path="url(#p616686872b)" d="M 34.9 62.230751 
L 558.36 62.230751 
" style="fill:none;stroke:#b0b0b0;stroke-dasharray:1.48,0.64;stroke-dashoffset:0;stroke-width:0.4;"/>
     </g>
     <g id="text_15">
      <!-- 55 -->
      <g transform="translate(15.129375 67.303564)scale(0.14 -0.14)">
       <use xlink:href="#LiberationSansNarrow-53"/>
       <use x="45.605469" xlink:href="#LiberationSansNarrow-53"/>
      </g>
     </g>
    </g>
    <g id="ytick_7">
     <g id="line2d_16">
      <path clip-path="url(#p616686872b)" d="M 34.9 28.361378 
L 558.36 28.361378 
" style="fill:none;stroke:#b0b0b0;stroke-dasharray:1.48,0.64;stroke-dashoffset:0;stroke-width:0.4;"/>
     </g>
     <g id="text_16">
      <!-- 60 -->
      <g transform="translate(15.129375 33.434191)scale(0.14 -0.14)">
       <use xlink:href="#LiberationSansNarrow-54"/>
       <use x="45.605469" xlink:href="#LiberationSansNarrow-48"/>
      </g>
     </g>
    </g>
   </g>
   <g id="line2d_17">
    <path clip-path="url(#p616686872b)" d="M 58.693636 204.356558 
L 61.696606 192.029604 
L 62.675835 187.016968 
L 65.646163 182.225702 
L 67.637263 188.172955 
L 68.649133 192.009547 
L 69.628362 196.90615 
L 70.640232 199.169994 
L 71.652102 203.15439 
L 72.631331 205.108678 
L 73.643201 206.219972 
L 74.622431 208.156072 
L 75.634301 208.377393 
L 77.560118 210.446405 
L 80.563087 211.535972 
L 81.542317 212.033238 
L 83.566057 209.872829 
L 84.545286 212.033238 
L 85.557156 214.971053 
L 86.536385 217.123855 
L 87.548255 223.563546 
L 88.560126 228.480428 
L 89.474073 234.796535 
L 91.465172 244.37479 
L 92.477042 248.817901 
L 93.456271 250.513644 
L 94.468141 250.933457 
L 95.480012 251.991552 
L 96.459241 251.780187 
L 97.471111 252.2 
L 98.45034 251.356822 
L 99.46221 247.350937 
L 102.399898 231.958672 
L 103.379127 225.844526 
L 104.390997 220.4688 
L 105.370226 220.57458 
L 106.382096 219.946371 
L 107.393966 220.053574 
L 108.373195 221.615689 
L 110.364295 223.279725 
L 111.376165 222.557834 
L 112.388035 223.279725 
L 113.334623 223.279725 
L 114.346493 226.69107 
L 115.325722 229.38604 
L 116.337592 232.765231 
L 119.340562 232.145511 
L 120.319791 233.505567 
L 122.31089 233.505567 
L 125.248578 244.585657 
L 128.251547 248.27902 
L 129.230776 249.11461 
L 130.242646 248.085017 
L 131.254517 248.299538 
L 134.224845 239.739143 
L 135.236715 236.070403 
L 136.248585 233.074061 
L 137.162532 229.417509 
L 138.174403 228.073075 
L 140.165502 224.02349 
L 141.144731 223.508296 
L 142.156601 222.29749 
L 143.168471 221.789669 
L 146.1388 213.341911 
L 148.16254 211.732613 
L 149.076487 211.662251 
L 151.067586 206.449632 
L 153.058686 202.958126 
L 155.082426 198.178008 
L 156.061655 197.755092 
L 157.073525 196.563942 
L 158.052754 196.147618 
L 163.014182 180.712787 
L 165.005281 176.644865 
L 166.017152 173.051103 
L 167.029022 171.139985 
L 168.008251 169.566909 
L 169.020121 168.84955 
L 169.99935 167.281516 
L 172.02309 162.185847 
L 172.937038 160.517397 
L 173.948908 158.275381 
L 174.928137 155.159288 
L 175.940007 153.833337 
L 179.922205 142.567667 
L 180.934076 138.517007 
L 182.925175 132.526543 
L 183.937045 131.54951 
L 184.850992 129.636922 
L 185.862862 129.254773 
L 186.842091 126.983107 
L 187.853962 125.668485 
L 188.833191 125.678749 
L 189.845061 126.634786 
L 190.856931 125.69965 
L 191.83616 126.835416 
L 193.827259 125.348405 
L 195.851 129.065653 
L 199.767916 141.18443 
L 202.770886 145.443774 
L 205.741214 146.381057 
L 206.753084 146.100008 
L 208.711543 143.861652 
L 210.702642 140.939958 
L 211.714512 140.343056 
L 212.693741 140.453631 
L 214.717481 138.995107 
L 215.696711 138.939022 
L 217.68781 137.160811 
L 218.69968 136.966313 
L 219.71155 137.605366 
L 220.625497 139.058805 
L 221.637367 140.35114 
L 222.616597 140.824419 
L 223.628467 142.096513 
L 225.619566 143.608388 
L 226.631436 143.569024 
L 229.601764 153.556176 
L 230.613635 156.726607 
L 233.551322 168.294152 
L 234.530551 170.726742 
L 235.542421 173.821582 
L 236.521651 177.668285 
L 237.533521 180.177139 
L 238.545391 183.97179 
L 241.515719 198.35366 
L 242.527589 196.970968 
L 244.453407 195.408527 
L 245.465277 194.480821 
L 246.444506 194.155875 
L 247.456376 194.428088 
L 249.447475 192.309431 
L 250.459345 190.660745 
L 251.438575 187.221136 
L 252.450445 183.184624 
L 253.429674 180.392131 
L 254.441544 178.75548 
L 255.453414 178.367094 
L 256.400002 177.361691 
L 259.402972 172.175369 
L 260.382201 170.947921 
L 262.405941 167.263361 
L 263.38517 164.480957 
L 265.37627 157.696032 
L 266.38814 152.892043 
L 269.325827 142.669118 
L 271.316926 134.737351 
L 272.296156 129.065605 
L 273.308026 128.251864 
L 274.319896 122.707399 
L 275.299125 119.14257 
L 277.290224 110.801174 
L 278.302094 110.957818 
L 280.227912 113.970928 
L 281.239782 110.466863 
L 282.219011 109.690214 
L 284.21011 105.671799 
L 286.23385 104.534692 
L 287.21308 110.398565 
L 289.204179 120.58283 
L 290.216049 126.953066 
L 292.141866 140.668063 
L 294.132966 154.696195 
L 295.144836 162.376172 
L 296.124065 167.648277 
L 297.135935 170.392175 
L 298.147805 174.084812 
L 299.127034 173.281811 
L 300.138904 172.962203 
L 301.118134 171.702183 
L 304.088462 150.614123 
L 305.100332 145.196482 
L 307.091431 136.062772 
L 309.082531 132.793862 
L 311.07363 128.431833 
L 312.0855 125.164795 
L 313.064729 122.446605 
L 314.076599 122.271399 
L 315.08847 123.68651 
L 316.002417 124.029941 
L 317.014287 123.155738 
L 317.993516 121.256465 
L 319.984615 118.539389 
L 322.008356 114.824699 
L 322.987585 114.076835 
L 323.999455 113.853134 
L 324.978684 113.114421 
L 327.002424 116.622468 
L 327.916371 118.842373 
L 328.928242 118.349185 
L 329.907471 118.352176 
L 330.919341 118.84326 
L 331.89857 118.084374 
L 332.91044 116.372181 
L 333.92231 115.641003 
L 334.901539 111.570149 
L 339.830326 85.264839 
L 340.842196 83.335256 
L 341.821425 81.945668 
L 342.833296 80.098182 
L 343.812525 78.542074 
L 344.824395 76.537353 
L 345.836265 75.05072 
L 346.815494 76.050051 
L 347.827364 77.507335 
L 348.806593 79.399552 
L 350.830334 82.643576 
L 351.776922 84.637522 
L 354.779891 103.409421 
L 355.75912 105.627523 
L 357.782861 115.089312 
L 358.76209 116.80749 
L 359.77396 118.123609 
L 360.753189 119.783794 
L 361.765059 124.005135 
L 362.776929 128.856779 
L 363.690876 132.589117 
L 364.702747 131.673938 
L 365.681976 131.107515 
L 366.693846 130.887689 
L 367.673075 132.469199 
L 368.684945 133.04093 
L 369.696815 134.248416 
L 370.676044 134.302784 
L 372.667144 135.049938 
L 374.690884 144.061671 
L 375.604831 147.312114 
L 376.616701 152.646823 
L 378.607801 166.824499 
L 379.58703 172.023598 
L 381.61077 180.717638 
L 382.589999 187.222977 
L 384.581098 197.227862 
L 385.592969 199.088522 
L 387.518786 202.078028 
L 388.530656 202.675313 
L 389.509885 203.032629 
L 390.521755 202.686092 
L 395.515824 184.893525 
L 396.495053 180.73447 
L 398.518793 168.77433 
L 399.465382 161.962557 
L 400.477252 157.711417 
L 402.468351 148.22877 
L 404.45945 146.209662 
L 405.47132 145.487449 
L 406.450549 145.846559 
L 408.441649 144.91805 
L 409.453519 146.915948 
L 411.379336 152.224967 
L 413.370435 163.484842 
L 414.382306 168.673773 
L 417.385275 176.830235 
L 419.376374 185.442343 
L 420.355603 189.595772 
L 421.367474 190.769043 
L 422.379344 190.602746 
L 423.293291 189.986344 
L 424.305161 188.466297 
L 425.28439 188.076942 
L 426.29626 188.368398 
L 427.275489 187.586069 
L 428.28736 187.257535 
L 429.29923 187.603298 
L 432.269558 194.416639 
L 433.281428 192.520054 
L 435.207246 187.702045 
L 437.198345 197.238843 
L 438.210215 201.739933 
L 439.189444 194.617072 
L 441.213184 181.81026 
L 444.183513 156.618112 
L 447.153841 142.081886 
L 450.156811 97.922626 
L 452.14791 89.859784 
L 453.15978 86.753475 
L 454.139009 82.672583 
L 456.130108 73.247836 
L 459.067796 60.42032 
L 460.079666 61.561335 
L 461.058895 62.388526 
L 462.070765 62.007234 
L 465.073735 87.143991 
L 466.052964 92.650198 
L 468.044063 102.105121 
L 469.055933 110.971338 
L 470.067803 118.364974 
L 470.981751 125.929792 
L 471.993621 128.354394 
L 472.97285 131.005375 
L 473.98472 134.572815 
L 474.963949 133.473208 
L 475.975819 133.990575 
L 476.987689 134.272296 
L 477.966919 137.904796 
L 478.978789 140.399353 
L 479.958018 142.226869 
L 480.969888 146.101307 
L 481.981758 148.660661 
L 482.895705 150.262635 
L 484.886805 166.176294 
L 485.898675 172.991443 
L 487.889774 188.644455 
L 488.901644 196.539633 
L 491.871973 222.358075 
L 492.883843 221.64693 
L 493.895713 221.402058 
L 494.842301 221.59604 
L 496.8334 214.633963 
L 497.84527 211.712442 
L 499.83637 204.228216 
L 501.827469 196.894911 
L 502.839339 192.708644 
L 503.818568 188.01352 
L 504.830438 186.008987 
L 506.756256 181.354389 
L 508.747355 186.734067 
L 509.759225 189.237218 
L 510.738454 184.663995 
L 512.762195 176.768367 
L 513.741424 171.661804 
L 515.732523 159.386678 
L 518.67021 151.7874 
L 521.67318 122.455124 
L 523.664279 107.069438 
L 524.676149 99.229323 
L 527.646478 59.832386 
L 529.670218 47.011129 
L 530.584165 40.416351 
L 532.575264 27.384062 
L 533.587134 20.647164 
L 534.566364 17.64 
L 534.566364 17.64 
" style="fill:none;stroke:#000000;stroke-linecap:square;stroke-width:1.5;"/>
   </g>
   <g id="line2d_18">
    <path clip-path="url(#p616686872b)" d="M 177.931106 148.415559 
L 534.566364 148.415559 
" style="fill:none;stroke:#1f77b4;stroke-dasharray:5.55,2.4;stroke-dashoffset:0;stroke-width:1.5;"/>
   </g>
   <g id="line2d_19">
    <defs>
     <path d="M 0 3 
C 0.795609 3 1.55874 2.683901 2.12132 2.12132 
C 2.683901 1.55874 3 0.795609 3 0 
C 3 -0.795609 2.683901 -1.55874 2.12132 -2.12132 
C 1.55874 -2.683901 0.795609 -3 0 -3 
C -0.795609 -3 -1.55874 -2.683901 -2.12132 -2.12132 
C -2.683901 -1.55874 -3 -0.795609 -3 0 
C -3 0.795609 -2.683901 1.55874 -2.12132 2.12132 
C -1.55874 2.683901 -0.795609 3 0 3 
z
" id="m8b882b1aeb" style="stroke:#1f77b4;"/>
    </defs>
    <g clip-path="url(#p616686872b)">
     <use style="fill:#1f77b4;stroke:#1f77b4;" x="177.931106" xlink:href="#m8b882b1aeb" y="148.415559"/>
    </g>
   </g>
   <g id="line2d_20">
    <path clip-path="url(#p616686872b)" d="M 177.931106 213.284799 
L 534.566364 213.284799 
" style="fill:none;stroke:#ff7f0e;stroke-dasharray:5.55,2.4;stroke-dashoffset:0;stroke-width:1.5;"/>
   </g>
   <g id="line2d_21">
    <path clip-path="url(#p616686872b)" d="M 58.693636 213.284799 
L 59.705506 213.284799 
L 60.684736 213.284799 
L 61.696606 213.284799 
L 62.675835 213.284799 
L 63.687705 213.284799 
L 64.699575 213.284799 
L 65.646163 213.284799 
L 66.658033 213.284799 
L 67.637263 213.284799 
L 68.649133 213.284799 
L 69.628362 213.284799 
L 70.640232 213.284799 
L 71.652102 213.284799 
L 72.631331 213.284799 
L 73.643201 213.284799 
L 74.622431 213.284799 
L 75.634301 213.284799 
L 76.646171 213.284799 
L 77.560118 213.284799 
L 78.571988 213.284799 
L 79.551217 213.284799 
L 80.563087 213.284799 
L 81.542317 213.284799 
L 82.554187 213.284799 
L 83.566057 213.284799 
L 84.545286 213.284799 
L 85.557156 213.284799 
L 86.536385 213.284799 
L 87.548255 213.284799 
L 88.560126 213.284799 
L 89.474073 213.284799 
L 90.485943 213.284799 
L 91.465172 213.284799 
L 92.477042 213.284799 
L 93.456271 213.284799 
L 94.468141 213.284799 
L 95.480012 213.284799 
L 96.459241 213.284799 
L 97.471111 213.284799 
L 98.45034 213.284799 
L 99.46221 213.284799 
L 100.47408 213.284799 
L 101.388027 213.284799 
L 102.399898 213.284799 
L 103.379127 213.284799 
L 104.390997 213.284799 
L 105.370226 213.284799 
L 106.382096 213.284799 
L 107.393966 213.284799 
L 108.373195 213.284799 
L 109.385066 213.284799 
L 110.364295 213.284799 
L 111.376165 213.284799 
L 112.388035 213.284799 
L 113.334623 213.284799 
L 114.346493 213.284799 
L 115.325722 213.284799 
L 116.337592 213.284799 
L 117.316822 213.284799 
L 118.328692 213.284799 
L 119.340562 213.284799 
L 120.319791 213.284799 
L 121.331661 213.284799 
L 122.31089 213.284799 
L 123.32276 213.284799 
L 124.334631 213.284799 
L 125.248578 213.284799 
L 126.260448 213.284799 
L 127.239677 213.284799 
L 128.251547 213.284799 
L 129.230776 213.284799 
L 130.242646 213.284799 
L 131.254517 213.284799 
L 132.233746 213.284799 
L 133.245616 213.284799 
L 134.224845 213.284799 
L 135.236715 213.284799 
L 136.248585 213.284799 
L 137.162532 213.284799 
L 138.174403 213.284799 
L 139.153632 213.284799 
L 140.165502 213.284799 
L 141.144731 213.284799 
L 142.156601 213.284799 
L 143.168471 213.284799 
L 144.1477 213.284799 
L 145.159571 213.284799 
L 146.1388 213.284799 
L 147.15067 213.284799 
L 148.16254 213.284799 
L 149.076487 213.284799 
L 150.088357 213.284799 
L 151.067586 213.284799 
L 152.079457 213.284799 
L 153.058686 213.284799 
L 154.070556 213.284799 
L 155.082426 213.284799 
L 156.061655 213.284799 
L 157.073525 213.284799 
L 158.052754 213.284799 
L 159.064625 213.284799 
L 160.076495 213.284799 
L 161.023083 213.284799 
L 162.034953 213.284799 
L 163.014182 213.284799 
L 164.026052 213.284799 
L 165.005281 213.284799 
L 166.017152 213.284799 
L 167.029022 213.284799 
L 168.008251 213.284799 
L 169.020121 213.284799 
L 169.99935 213.284799 
L 171.01122 213.284799 
L 172.02309 213.284799 
L 172.937038 213.284799 
L 173.948908 213.284799 
L 174.928137 213.284799 
L 175.940007 213.284799 
L 176.919236 213.284799 
" style="fill:none;stroke:#ff7f0e;stroke-linecap:square;stroke-width:1.5;"/>
   </g>
   <g id="line2d_22">
    <path clip-path="url(#p616686872b)" d="M 177.931106 201.74387 
L 195.851 197.699559 
L 201.759016 196.335919 
L 219.71155 192.197759 
L 225.619566 190.802475 
L 243.539459 186.568289 
L 249.447475 185.140627 
L 267.40001 180.808186 
L 273.308026 179.347395 
L 291.227919 174.91442 
L 297.135935 173.419731 
L 315.08847 168.883888 
L 320.996485 167.354515 
L 338.916379 162.713416 
L 343.812525 161.409988 
L 362.776929 156.399759 
L 367.673075 155.066084 
L 384.581098 150.483617 
L 400.477252 146.102154 
L 448.165711 132.548452 
L 495.854171 118.358421 
L 534.566364 106.339896 
L 534.566364 106.339896 
" style="fill:none;stroke:#2ca02c;stroke-dasharray:5.55,2.4;stroke-dashoffset:0;stroke-width:1.5;"/>
   </g>
   <g id="line2d_23">
    <path clip-path="url(#p616686872b)" d="M 58.693636 226.998628 
L 59.705506 226.799916 
L 60.684736 226.601014 
L 61.696606 226.401921 
L 62.675835 226.202638 
L 63.687705 226.003165 
L 64.699575 225.8035 
L 65.646163 225.603645 
L 66.658033 225.403599 
L 67.637263 225.203361 
L 68.649133 225.002932 
L 69.628362 224.802312 
L 70.640232 224.601499 
L 71.652102 224.400494 
L 72.631331 224.199297 
L 73.643201 223.997908 
L 74.622431 223.796326 
L 75.634301 223.594552 
L 76.646171 223.392584 
L 77.560118 223.190423 
L 78.571988 222.988069 
L 79.551217 222.785522 
L 80.563087 222.582781 
L 81.542317 222.379845 
L 82.554187 222.176716 
L 83.566057 221.973393 
L 84.545286 221.769875 
L 85.557156 221.566162 
L 86.536385 221.362255 
L 87.548255 221.158153 
L 88.560126 220.953855 
L 89.474073 220.749362 
L 90.485943 220.544674 
L 91.465172 220.33979 
L 92.477042 220.13471 
L 93.456271 219.929434 
L 94.468141 219.723961 
L 95.480012 219.518292 
L 96.459241 219.312427 
L 97.471111 219.106364 
L 98.45034 218.900104 
L 99.46221 218.693648 
L 100.47408 218.486993 
L 101.388027 218.280142 
L 102.399898 218.073092 
L 103.379127 217.865844 
L 104.390997 217.658398 
L 105.370226 217.450754 
L 106.382096 217.242911 
L 107.393966 217.03487 
L 108.373195 216.826629 
L 109.385066 216.618189 
L 110.364295 216.40955 
L 111.376165 216.200712 
L 112.388035 215.991674 
L 113.334623 215.782436 
L 114.346493 215.572997 
L 115.325722 215.363359 
L 116.337592 215.15352 
L 117.316822 214.94348 
L 118.328692 214.73324 
L 119.340562 214.522798 
L 120.319791 214.312155 
L 121.331661 214.101311 
L 122.31089 213.890265 
L 123.32276 213.679018 
L 124.334631 213.467568 
L 125.248578 213.255916 
L 126.260448 213.044062 
L 127.239677 212.832005 
L 128.251547 212.619745 
L 129.230776 212.407282 
L 130.242646 212.194617 
L 131.254517 211.981747 
L 132.233746 211.768675 
L 133.245616 211.555398 
L 134.224845 211.341918 
L 135.236715 211.128233 
L 136.248585 210.914344 
L 137.162532 210.70025 
L 138.174403 210.485952 
L 139.153632 210.271449 
L 140.165502 210.056741 
L 141.144731 209.841827 
L 142.156601 209.626708 
L 143.168471 209.411383 
L 144.1477 209.195852 
L 145.159571 208.980115 
L 146.1388 208.764172 
L 147.15067 208.548022 
L 148.16254 208.331666 
L 149.076487 208.115103 
L 150.088357 207.898332 
L 151.067586 207.681355 
L 152.079457 207.464169 
L 153.058686 207.246777 
L 154.070556 207.029176 
L 155.082426 206.811367 
L 156.061655 206.59335 
L 157.073525 206.375124 
L 158.052754 206.15669 
L 159.064625 205.938047 
L 160.076495 205.719194 
L 161.023083 205.500133 
L 162.034953 205.280862 
L 163.014182 205.061381 
L 164.026052 204.84169 
L 165.005281 204.62179 
L 166.017152 204.401679 
L 167.029022 204.181357 
L 168.008251 203.960825 
L 169.020121 203.740082 
L 169.99935 203.519128 
L 171.01122 203.297962 
L 172.02309 203.076585 
L 172.937038 202.854996 
L 173.948908 202.633196 
L 174.928137 202.411183 
L 175.940007 202.188958 
L 176.919236 201.966521 
" style="fill:none;stroke:#2ca02c;stroke-linecap:square;stroke-width:1.5;"/>
   </g>
   <g id="legend_1">
    <g id="patch_3">
     <path d="M 44.7 109.165 
L 190.27375 109.165 
Q 193.07375 109.165 193.07375 106.365 
L 193.07375 27.44 
Q 193.07375 24.64 190.27375 24.64 
L 44.7 24.64 
Q 41.9 24.64 41.9 27.44 
L 41.9 106.365 
Q 41.9 109.165 44.7 109.165 
z
" style="fill:#ffffff;opacity:0.8;stroke:#cccccc;stroke-linejoin:miter;"/>
    </g>
    <g id="line2d_24">
     <path d="M 47.5 35.608125 
L 75.5 35.608125 
" style="fill:none;stroke:#000000;stroke-linecap:square;stroke-width:1.5;"/>
    </g>
    <g id="line2d_25"/>
    <g id="text_17">
     <!--   -->
     <defs>
      <path d="M 42.140625 26.65625 
Q 42.140625 20.65625 41.359375 15.578125 
Q 40.578125 10.5 38.6875 6.828125 
Q 36.8125 3.171875 33.765625 1.09375 
Q 30.71875 -0.984375 26.21875 -0.984375 
Q 21.578125 -0.984375 18.078125 1.171875 
Q 14.59375 3.328125 12.796875 8.203125 
L 12.546875 8.203125 
Q 12.59375 8.109375 12.609375 7.328125 
Q 12.640625 6.546875 12.671875 5.375 
Q 12.703125 4.203125 12.71875 2.75 
Q 12.75 1.3125 12.75 -0.09375 
L 12.75 -20.75 
L 5.515625 -20.75 
L 5.515625 42.046875 
Q 5.515625 43.953125 5.484375 45.703125 
Q 5.46875 47.46875 5.4375 48.90625 
Q 5.421875 50.34375 5.375 51.359375 
Q 5.328125 52.390625 5.28125 52.828125 
L 12.25 52.828125 
Q 12.3125 52.6875 12.359375 51.8125 
L 12.5 49.703125 
Q 12.546875 48.4375 12.59375 47.015625 
Q 12.640625 45.609375 12.640625 44.34375 
L 12.796875 44.34375 
Q 13.765625 46.875 15.0625 48.65625 
Q 16.359375 50.4375 18.015625 51.578125 
Q 19.671875 52.734375 21.671875 53.25 
Q 23.6875 53.765625 26.21875 53.765625 
Q 30.71875 53.765625 33.765625 51.8125 
Q 36.8125 49.859375 38.6875 46.3125 
Q 40.578125 42.78125 41.359375 37.765625 
Q 42.140625 32.765625 42.140625 26.65625 
z
M 34.578125 26.46875 
Q 34.578125 31.34375 34.109375 35.15625 
Q 33.640625 38.96875 32.4375 41.59375 
Q 31.25 44.234375 29.296875 45.59375 
Q 27.34375 46.96875 24.359375 46.96875 
Q 21.96875 46.96875 19.84375 46.140625 
Q 17.71875 45.3125 16.125 42.96875 
Q 14.546875 40.625 13.640625 36.5 
Q 12.75 32.375 12.75 25.78125 
Q 12.75 20.171875 13.5 16.28125 
Q 14.265625 12.40625 15.71875 10.015625 
Q 17.1875 7.625 19.328125 6.5625 
Q 21.484375 5.515625 24.3125 5.515625 
Q 27.34375 5.515625 29.296875 6.921875 
Q 31.25 8.34375 32.4375 11.03125 
Q 33.640625 13.71875 34.109375 17.59375 
Q 34.578125 21.484375 34.578125 26.46875 
z
" id="LiberationSansNarrow-1088"/>
      <path d="M 10.6875 24.5625 
Q 10.6875 20.40625 11.5625 16.90625 
Q 12.453125 13.421875 13.90625 10.90625 
Q 15.375 8.40625 17.640625 7 
Q 19.921875 5.609375 23.140625 5.609375 
Q 27.828125 5.609375 30.65625 7.90625 
Q 33.5 10.203125 34.46875 13.71875 
L 40.828125 11.53125 
Q 40.140625 9.328125 38.921875 7.109375 
Q 37.703125 4.890625 35.640625 3.09375 
Q 33.59375 1.3125 30.53125 0.15625 
Q 27.484375 -0.984375 23.140625 -0.984375 
Q 13.53125 -0.984375 8.5 6 
Q 3.46875 12.984375 3.46875 26.765625 
Q 3.46875 34.1875 5 39.328125 
Q 6.546875 44.484375 9.171875 47.703125 
Q 11.8125 50.921875 15.328125 52.359375 
Q 18.84375 53.8125 22.859375 53.8125 
Q 28.328125 53.8125 31.984375 51.65625 
Q 39.0625 47.515625 41.015625 36.8125 
Q 41.9375 31.6875 41.9375 25.734375 
L 41.9375 24.5625 
z
M 34.71875 31.296875 
Q 34.71875 40.140625 31.421875 43.71875 
Q 28.125 47.3125 22.75 47.3125 
Q 18.953125 47.3125 15.328125 44.09375 
Q 10.9375 40.328125 10.6875 31.296875 
z
" id="LiberationSansNarrow-1077"/>
      <path d="M 16.546875 -0.984375 
Q 10.015625 -0.984375 6.734375 3.21875 
Q 3.46875 7.421875 3.46875 14.75 
Q 3.46875 19.96875 5.09375 23.3125 
Q 6.734375 26.65625 9.34375 28.5625 
Q 11.96875 30.46875 15.328125 31.203125 
Q 18.703125 31.9375 22.171875 32.03125 
L 31.9375 32.234375 
L 31.9375 35.109375 
Q 31.9375 38.375 31.375 40.671875 
Q 30.8125 42.96875 29.640625 44.375 
Q 28.46875 45.796875 26.734375 46.453125 
Q 25 47.125 22.609375 47.125 
Q 20.515625 47.125 18.84375 46.75 
Q 17.1875 46.390625 15.9375 45.4375 
Q 14.703125 44.484375 13.9375 42.84375 
Q 13.1875 41.21875 12.9375 38.71875 
L 5.421875 39.546875 
Q 5.8125 42.671875 6.9375 45.28125 
Q 8.0625 47.90625 10.109375 49.796875 
Q 12.15625 51.703125 15.25 52.75 
Q 18.359375 53.8125 22.796875 53.8125 
Q 30.953125 53.8125 35.078125 49.234375 
Q 39.203125 44.671875 39.203125 36.03125 
L 39.203125 13.28125 
Q 39.203125 9.375 40.03125 7.390625 
Q 40.875 5.421875 43.265625 5.421875 
Q 43.84375 5.421875 44.453125 5.515625 
Q 45.0625 5.609375 45.609375 5.765625 
L 45.609375 0.296875 
Q 44.234375 -0.09375 42.890625 -0.28125 
Q 41.546875 -0.484375 40.046875 -0.484375 
Q 37.984375 -0.484375 36.515625 0.171875 
Q 35.0625 0.828125 34.15625 2.171875 
Q 33.25 3.515625 32.765625 5.484375 
Q 32.28125 7.46875 32.125 10.109375 
L 31.9375 10.109375 
Q 30.765625 7.5625 29.375 5.515625 
Q 27.984375 3.46875 26.140625 2.03125 
Q 24.3125 0.59375 21.9375 -0.1875 
Q 19.578125 -0.984375 16.546875 -0.984375 
z
M 18.21875 5.609375 
Q 21.6875 5.609375 24.25 7.140625 
Q 26.8125 8.6875 28.515625 11.078125 
Q 30.21875 13.484375 31.078125 16.3125 
Q 31.9375 19.140625 31.9375 21.734375 
L 31.9375 26.078125 
L 24.03125 25.875 
Q 21.390625 25.828125 19 25.40625 
Q 16.609375 25 14.8125 23.78125 
Q 13.03125 22.5625 11.953125 20.359375 
Q 10.890625 18.171875 10.890625 14.59375 
Q 10.890625 10.296875 12.796875 7.953125 
Q 14.703125 5.609375 18.21875 5.609375 
z
" id="LiberationSansNarrow-1072"/>
      <path d="M 34.859375 0 
L 34.859375 46.4375 
L 19.875 46.4375 
Q 18.890625 37.453125 18.03125 30.4375 
Q 17.1875 23.4375 16.3125 18.15625 
Q 15.4375 12.890625 14.40625 9.25 
Q 13.375 5.609375 11.953125 3.34375 
Q 10.546875 1.078125 8.65625 0.046875 
Q 6.78125 -0.984375 4.203125 -0.984375 
Q 3.03125 -0.984375 2.078125 -0.78125 
Q 1.125 -0.59375 0.4375 -0.34375 
L 0.4375 5.953125 
Q 0.875 5.765625 1.625 5.640625 
Q 2.390625 5.515625 3.171875 5.515625 
Q 4.59375 5.515625 5.59375 6.53125 
Q 6.59375 7.5625 7.390625 9.859375 
Q 8.203125 12.15625 8.859375 15.796875 
Q 9.515625 19.4375 10.203125 24.703125 
Q 10.890625 29.984375 11.625 36.921875 
L 13.375 52.828125 
L 42.140625 52.828125 
L 42.140625 0 
z
" id="LiberationSansNarrow-1083"/>
      <path d="M 22.75 30.46875 
Q 30.953125 30.46875 35.15625 26.875 
Q 39.359375 23.296875 39.359375 15.53125 
Q 39.359375 11.921875 38.296875 9.03125 
Q 37.25 6.15625 35.171875 4.15625 
Q 33.109375 2.15625 30 1.078125 
Q 26.90625 0 22.796875 0 
L 5.671875 0 
L 5.671875 52.828125 
L 12.890625 52.828125 
L 12.890625 30.46875 
z
M 12.890625 6.203125 
L 21.6875 6.203125 
Q 24.46875 6.203125 26.390625 6.8125 
Q 28.328125 7.421875 29.5 8.609375 
Q 30.671875 9.8125 31.171875 11.546875 
Q 31.6875 13.28125 31.6875 15.53125 
Q 31.6875 20.125 29.359375 22.234375 
Q 27.046875 24.359375 21.734375 24.359375 
L 12.890625 24.359375 
z
" id="LiberationSansNarrow-1100"/>
      <path d="M 12.890625 52.828125 
L 12.890625 30.46875 
L 32.375 30.46875 
L 32.375 52.828125 
L 39.59375 52.828125 
L 39.59375 0 
L 32.375 0 
L 32.375 24.078125 
L 12.890625 24.078125 
L 12.890625 0 
L 5.671875 0 
L 5.671875 52.828125 
z
" id="LiberationSansNarrow-1085"/>
      <path d="M 21.4375 22.359375 
L 8.84375 0 
L 0.6875 0 
L 14.453125 23 
Q 9.234375 24.3125 6.859375 28.296875 
Q 4.5 32.28125 4.5 38.234375 
Q 4.5 45.515625 8.8125 49.171875 
Q 13.140625 52.828125 21.4375 52.828125 
L 38.71875 52.828125 
L 38.71875 0 
L 31.546875 0 
L 31.546875 22.359375 
z
M 31.546875 46.625 
L 22.171875 46.625 
Q 16.9375 46.625 14.546875 44.375 
Q 12.15625 42.140625 12.15625 37.59375 
Q 12.15625 33.015625 14.28125 30.734375 
Q 16.40625 28.46875 21.390625 28.46875 
L 31.546875 28.46875 
z
" id="LiberationSansNarrow-1103"/>
      <path id="LiberationSansNarrow-32"/>
      <path d="M 38.71875 52.828125 
L 38.71875 0 
L 31.546875 0 
L 31.546875 46.4375 
L 12.890625 46.4375 
L 12.890625 0 
L 5.71875 0 
L 5.71875 52.828125 
z
" id="LiberationSansNarrow-1087"/>
      <path d="M 12.640625 52.828125 
L 12.640625 23.921875 
Q 12.640625 22.796875 12.59375 20.921875 
Q 12.546875 19.046875 12.46875 17.046875 
Q 12.40625 15.046875 12.359375 13.234375 
Q 12.3125 11.421875 12.25 10.40625 
L 32.28125 52.828125 
L 40.140625 52.828125 
L 40.140625 0 
L 33.25 0 
L 33.25 32.234375 
Q 33.25 33.15625 33.296875 34.578125 
L 33.40625 37.40625 
Q 33.453125 38.875 33.5 40.234375 
L 33.640625 42.625 
L 13.375 0 
L 5.71875 0 
L 5.71875 52.828125 
z
" id="LiberationSansNarrow-1080"/>
      <path d="M 35.9375 24.515625 
Q 35.9375 30.078125 35.15625 33.765625 
Q 34.375 37.453125 32.9375 39.671875 
Q 31.5 41.890625 29.390625 42.796875 
Q 27.296875 43.703125 24.703125 43.703125 
Q 21.921875 43.703125 19.65625 42.75 
Q 17.390625 41.796875 15.765625 39.546875 
Q 14.15625 37.3125 13.25 33.640625 
Q 12.359375 29.984375 12.359375 24.515625 
Q 12.359375 18.953125 13.25 15.28125 
Q 14.15625 11.625 15.6875 9.453125 
Q 17.234375 7.28125 19.328125 6.390625 
Q 21.4375 5.515625 23.921875 5.515625 
Q 26.703125 5.515625 28.921875 6.390625 
Q 31.15625 7.28125 32.71875 9.421875 
Q 34.28125 11.578125 35.109375 15.265625 
Q 35.9375 18.953125 35.9375 24.515625 
z
M 26.21875 50.140625 
Q 35.109375 50.140625 39.296875 43.765625 
Q 43.5 37.40625 43.5 24.609375 
Q 43.5 11.671875 38.5 5.34375 
Q 33.5 -0.984375 23.96875 -0.984375 
Q 19.4375 -0.984375 15.890625 0.71875 
Q 12.359375 2.4375 9.890625 6.25 
Q 7.421875 10.0625 6.09375 16.15625 
Q 4.78125 22.265625 4.78125 31.0625 
Q 4.78125 40.4375 5.953125 47.21875 
Q 7.125 54 9.6875 58.703125 
Q 12.25 63.421875 16.375 66.234375 
Q 20.515625 69.046875 26.375 70.40625 
Q 28.65625 70.953125 30.65625 71.359375 
Q 32.671875 71.78125 34.46875 72.125 
L 38.03125 72.75 
L 41.5 73.34375 
L 41.5 65.484375 
Q 38.03125 64.9375 34.8125 64.375 
Q 31.59375 63.8125 27.9375 62.984375 
Q 24.8125 62.3125 22.34375 61.5 
Q 19.875 60.6875 17.984375 59.46875 
Q 16.109375 58.25 14.765625 56.46875 
Q 13.421875 54.6875 12.546875 52.046875 
Q 11.671875 49.421875 11.203125 45.78125 
Q 10.75 42.140625 10.640625 37.203125 
Q 11.421875 39.890625 12.765625 42.25 
Q 14.109375 44.625 16.03125 46.375 
Q 17.96875 48.140625 20.484375 49.140625 
Q 23 50.140625 26.21875 50.140625 
z
" id="LiberationSansNarrow-1073"/>
      <path d="M 22.796875 30.46875 
Q 31.296875 30.46875 35.640625 26.875 
Q 39.984375 23.296875 39.984375 15.53125 
Q 39.984375 11.921875 38.90625 9.03125 
Q 37.84375 6.15625 35.671875 4.15625 
Q 33.5 2.15625 30.296875 1.078125 
Q 27.09375 0 22.859375 0 
L 5.859375 0 
L 5.859375 52.828125 
L 13.328125 52.828125 
L 13.328125 30.46875 
z
M 13.328125 6.203125 
L 21.734375 6.203125 
Q 24.609375 6.203125 26.578125 6.8125 
Q 28.5625 7.421875 29.78125 8.609375 
Q 31 9.8125 31.53125 11.546875 
Q 32.078125 13.28125 32.078125 15.53125 
Q 32.078125 20.125 29.65625 22.234375 
Q 27.25 24.359375 21.734375 24.359375 
L 13.328125 24.359375 
z
M 47.65625 0 
L 47.65625 52.828125 
L 55.125 52.828125 
L 55.125 0 
z
" id="LiberationSansNarrow-1099"/>
     </defs>
     <g transform="translate(86.7 40.508125)scale(0.14 -0.14)">
      <use xlink:href="#LiberationSansNarrow-1088"/>
      <use x="45.605469" xlink:href="#LiberationSansNarrow-1077"/>
      <use x="91.210938" xlink:href="#LiberationSansNarrow-1072"/>
      <use x="136.816406" xlink:href="#LiberationSansNarrow-1083"/>
      <use x="184.619141" xlink:href="#LiberationSansNarrow-1100"/>
      <use x="227.34375" xlink:href="#LiberationSansNarrow-1085"/>
      <use x="272.607422" xlink:href="#LiberationSansNarrow-1072"/>
      <use x="318.212891" xlink:href="#LiberationSansNarrow-1103"/>
      <use x="362.646484" xlink:href="#LiberationSansNarrow-32"/>
      <use x="385.449219" xlink:href="#LiberationSansNarrow-1087"/>
      <use x="429.882812" xlink:href="#LiberationSansNarrow-1088"/>
      <use x="475.488281" xlink:href="#LiberationSansNarrow-1080"/>
      <use x="521.337891" xlink:href="#LiberationSansNarrow-1073"/>
      <use x="568.310547" xlink:href="#LiberationSansNarrow-1099"/>
      <use x="629.296875" xlink:href="#LiberationSansNarrow-1083"/>
      <use x="677.099609" xlink:href="#LiberationSansNarrow-1100"/>
     </g>
    </g>
    <g id="line2d_26"/>
    <g id="line2d_27">
     <g>
      <use style="fill:#1f77b4;stroke:#1f77b4;" x="61.5" xlink:href="#m8b882b1aeb" y="55.65875"/>
     </g>
    </g>
    <g id="text_18">
     <!-- P/E -->
     <defs>
      <path d="M 50.34375 48.09375 
Q 50.34375 43.609375 49.125 39.71875 
Q 47.90625 35.84375 45.484375 32.984375 
Q 43.0625 30.125 39.421875 28.46875 
Q 35.796875 26.8125 30.953125 26.8125 
L 14.359375 26.8125 
L 14.359375 0 
L 6.734375 0 
L 6.734375 68.796875 
L 30.46875 68.796875 
Q 35.453125 68.796875 39.1875 67.3125 
Q 42.921875 65.828125 45.40625 63.109375 
Q 47.90625 60.40625 49.125 56.5625 
Q 50.34375 52.734375 50.34375 48.09375 
z
M 42.671875 48 
Q 42.671875 54.546875 39.40625 57.9375 
Q 36.140625 61.328125 29.546875 61.328125 
L 14.359375 61.328125 
L 14.359375 34.1875 
L 29.890625 34.1875 
Q 36.46875 34.1875 39.5625 37.75 
Q 42.671875 41.3125 42.671875 48 
z
" id="LiberationSansNarrow-80"/>
      <path d="M 0 -0.984375 
L 16.453125 72.46875 
L 22.796875 72.46875 
L 6.5 -0.984375 
z
" id="LiberationSansNarrow-47"/>
      <path d="M 6.734375 0 
L 6.734375 68.796875 
L 49.515625 68.796875 
L 49.515625 61.1875 
L 14.359375 61.1875 
L 14.359375 39.109375 
L 47.125 39.109375 
L 47.125 31.59375 
L 14.359375 31.59375 
L 14.359375 7.625 
L 51.171875 7.625 
L 51.171875 0 
z
" id="LiberationSansNarrow-69"/>
     </defs>
     <g transform="translate(86.7 60.55875)scale(0.14 -0.14)">
      <use xlink:href="#LiberationSansNarrow-80"/>
      <use x="54.6875" xlink:href="#LiberationSansNarrow-47"/>
      <use x="77.490234" xlink:href="#LiberationSansNarrow-69"/>
     </g>
    </g>
    <g id="line2d_28">
     <path d="M 47.5 75.709375 
L 75.5 75.709375 
" style="fill:none;stroke:#ff7f0e;stroke-linecap:square;stroke-width:1.5;"/>
    </g>
    <g id="line2d_29"/>
    <g id="text_19">
     <!-- CAPE -->
     <defs>
      <path d="M 31.6875 62.203125 
Q 26.90625 62.203125 23.1875 60.25 
Q 19.484375 58.296875 16.984375 54.6875 
Q 14.5 51.078125 13.203125 46 
Q 11.921875 40.921875 11.921875 34.71875 
Q 11.921875 28.515625 13.3125 23.359375 
Q 14.703125 18.21875 17.265625 14.5 
Q 19.828125 10.796875 23.578125 8.734375 
Q 27.34375 6.6875 32.03125 6.6875 
Q 35.296875 6.6875 37.984375 7.734375 
Q 40.671875 8.796875 42.859375 10.6875 
Q 45.0625 12.59375 46.765625 15.203125 
Q 48.484375 17.828125 49.8125 21 
L 56.0625 17.1875 
Q 54.546875 13.328125 52.296875 10 
Q 50.046875 6.6875 47.015625 4.25 
Q 44 1.8125 40.1875 0.40625 
Q 36.375 -0.984375 31.640625 -0.984375 
Q 24.8125 -0.984375 19.65625 1.671875 
Q 14.5 4.34375 11.0625 9.109375 
Q 7.625 13.875 5.890625 20.40625 
Q 4.15625 26.953125 4.15625 34.71875 
Q 4.15625 42.78125 5.984375 49.265625 
Q 7.8125 55.765625 11.296875 60.328125 
Q 14.796875 64.890625 19.921875 67.359375 
Q 25.046875 69.828125 31.59375 69.828125 
Q 40.578125 69.828125 46.625 65.53125 
Q 52.6875 61.234375 55.515625 52.78125 
L 48.296875 49.859375 
Q 47.515625 52.296875 46.140625 54.515625 
Q 44.78125 56.734375 42.71875 58.4375 
Q 40.671875 60.15625 37.9375 61.171875 
Q 35.203125 62.203125 31.6875 62.203125 
z
" id="LiberationSansNarrow-67"/>
      <path d="M 46.734375 0 
L 40.28125 20.125 
L 14.546875 20.125 
L 8.109375 0 
L 0.140625 0 
L 23.1875 68.796875 
L 31.890625 68.796875 
L 54.546875 0 
z
M 30.765625 50.09375 
Q 30.125 52.046875 29.546875 54.046875 
L 28.515625 57.71875 
L 27.734375 60.453125 
Q 27.4375 61.53125 27.4375 61.765625 
Q 27.34375 61.53125 27.078125 60.40625 
Q 26.8125 59.28125 26.375 57.625 
L 25.296875 53.953125 
L 24.125 50 
L 16.890625 27.390625 
L 37.984375 27.390625 
z
" id="LiberationSansNarrow-65"/>
     </defs>
     <g transform="translate(86.7 80.609375)scale(0.14 -0.14)">
      <use xlink:href="#LiberationSansNarrow-67"/>
      <use x="59.179688" xlink:href="#LiberationSansNarrow-65"/>
      <use x="113.867188" xlink:href="#LiberationSansNarrow-80"/>
      <use x="168.554688" xlink:href="#LiberationSansNarrow-69"/>
     </g>
    </g>
    <g id="line2d_30">
     <path d="M 47.5 95.76 
L 75.5 95.76 
" style="fill:none;stroke:#2ca02c;stroke-linecap:square;stroke-width:1.5;"/>
    </g>
    <g id="line2d_31"/>
    <g id="text_20">
     <!-- T -->
     <defs>
      <path d="M 28.8125 61.1875 
L 28.8125 0 
L 21.234375 0 
L 21.234375 61.1875 
L 1.859375 61.1875 
L 1.859375 68.796875 
L 48.1875 68.796875 
L 48.1875 61.1875 
z
" id="LiberationSansNarrow-84"/>
     </defs>
     <g transform="translate(86.7 100.66)scale(0.14 -0.14)">
      <use xlink:href="#LiberationSansNarrow-84"/>
     </g>
    </g>
   </g>
  </g>
 </g>
 <defs>
  <clipPath id="p616686872b">
   <rect height="234.56" width="523.46" x="34.9" y="17.64"/>
  </clipPath>
 </defs>
</svg>
