<?xml version="1.0" encoding="utf-8" standalone="no"?>
<!DOCTYPE svg PUBLIC "-//W3C//DTD SVG 1.1//EN"
  "http://www.w3.org/Graphics/SVG/1.1/DTD/svg11.dtd">
<!-- Created with matplotlib (https://matplotlib.org/) -->
<svg height="288pt" version="1.1" viewBox="0 0 576 288" width="576pt" xmlns="http://www.w3.org/2000/svg" xmlns:xlink="http://www.w3.org/1999/xlink">
 <defs>
  <style type="text/css">
*{stroke-linecap:butt;stroke-linejoin:round;}
  </style>
 </defs>
 <g id="figure_1">
  <g id="patch_1">
   <path d="M 0 288 
L 576 288 
L 576 0 
L 0 0 
z
" style="fill:#ffffff;"/>
  </g>
  <g id="axes_1">
   <g id="patch_2">
    <path d="M 52.94 234.52 
L 558.36 234.52 
L 558.36 17.64 
L 52.94 17.64 
z
" style="fill:#ffffff;"/>
   </g>
   <g id="matplotlib.axis_1">
    <g id="xtick_1">
     <g id="line2d_1">
      <path clip-path="url(#p55c6f32325)" d="M 75.913636 234.52 
L 75.913636 17.64 
" style="fill:none;stroke:#b0b0b0;stroke-dasharray:1.48,0.64;stroke-dashoffset:0;stroke-width:0.4;"/>
     </g>
     <g id="text_1">
      <!-- 0 -->
      <defs>
       <path d="M 42.390625 34.421875 
Q 42.390625 24.515625 40.84375 17.75 
Q 39.3125 10.984375 36.640625 6.8125 
Q 33.984375 2.640625 30.390625 0.828125 
Q 26.8125 -0.984375 22.703125 -0.984375 
Q 18.609375 -0.984375 15.03125 0.828125 
Q 11.46875 2.640625 8.828125 6.78125 
Q 6.203125 10.9375 4.703125 17.703125 
Q 3.21875 24.46875 3.21875 34.421875 
Q 3.21875 44.828125 4.703125 51.640625 
Q 6.203125 58.453125 8.828125 62.5 
Q 11.46875 66.546875 15.078125 68.1875 
Q 18.703125 69.828125 22.953125 69.828125 
Q 27 69.828125 30.53125 68.1875 
Q 34.078125 66.546875 36.71875 62.5 
Q 39.359375 58.453125 40.875 51.640625 
Q 42.390625 44.828125 42.390625 34.421875 
z
M 35.0625 34.421875 
Q 35.0625 42.625 34.28125 48.0625 
Q 33.5 53.515625 31.9375 56.765625 
Q 30.375 60.015625 28.09375 61.359375 
Q 25.828125 62.703125 22.953125 62.703125 
Q 19.921875 62.703125 17.578125 61.328125 
Q 15.234375 59.96875 13.671875 56.71875 
Q 12.109375 53.46875 11.296875 48.015625 
Q 10.5 42.578125 10.5 34.421875 
Q 10.5 26.515625 11.296875 21.09375 
Q 12.109375 15.671875 13.6875 12.375 
Q 15.28125 9.078125 17.578125 7.640625 
Q 19.875 6.203125 22.796875 6.203125 
Q 25.640625 6.203125 27.90625 7.640625 
Q 30.171875 9.078125 31.75 12.375 
Q 33.34375 15.671875 34.203125 21.09375 
Q 35.0625 26.515625 35.0625 34.421875 
z
" id="LiberationSansNarrow-48"/>
      </defs>
      <g transform="translate(72.72098 251.665625)scale(0.14 -0.14)">
       <use xlink:href="#LiberationSansNarrow-48"/>
      </g>
     </g>
    </g>
    <g id="xtick_2">
     <g id="line2d_2">
      <path clip-path="url(#p55c6f32325)" d="M 167.808182 234.52 
L 167.808182 17.64 
" style="fill:none;stroke:#b0b0b0;stroke-dasharray:1.48,0.64;stroke-dashoffset:0;stroke-width:0.4;"/>
     </g>
     <g id="text_2">
      <!-- 20 -->
      <defs>
       <path d="M 4.109375 0 
L 4.109375 6.203125 
Q 6.15625 11.921875 9.109375 16.28125 
Q 12.0625 20.65625 15.3125 24.1875 
Q 18.5625 27.734375 21.734375 30.765625 
Q 24.90625 33.796875 27.46875 36.8125 
Q 30.03125 39.84375 31.609375 43.15625 
Q 33.203125 46.484375 33.203125 50.6875 
Q 33.203125 53.609375 32.46875 55.828125 
Q 31.734375 58.0625 30.390625 59.5625 
Q 29.046875 61.078125 27.140625 61.828125 
Q 25.25 62.59375 22.90625 62.59375 
Q 20.75 62.59375 18.84375 61.859375 
Q 16.9375 61.140625 15.453125 59.671875 
Q 13.96875 58.203125 13.03125 56.03125 
Q 12.109375 53.859375 11.8125 50.984375 
L 4.4375 51.8125 
Q 4.78125 55.515625 6.125 58.78125 
Q 7.46875 62.0625 9.78125 64.53125 
Q 12.109375 67 15.359375 68.40625 
Q 18.609375 69.828125 22.90625 69.828125 
Q 27.09375 69.828125 30.390625 68.609375 
Q 33.6875 67.390625 35.9375 64.984375 
Q 38.1875 62.59375 39.40625 59.078125 
Q 40.625 55.5625 40.625 50.984375 
Q 40.625 47.515625 39.59375 44.390625 
Q 38.578125 41.265625 36.859375 38.421875 
Q 35.15625 35.59375 32.90625 32.953125 
Q 30.671875 30.328125 28.21875 27.828125 
L 23.296875 22.859375 
Q 20.796875 20.359375 18.625 17.859375 
Q 16.453125 15.375 14.734375 12.8125 
Q 13.03125 10.25 12.0625 7.46875 
L 41.5 7.46875 
L 41.5 0 
z
" id="LiberationSansNarrow-50"/>
      </defs>
      <g transform="translate(161.422869 251.665625)scale(0.14 -0.14)">
       <use xlink:href="#LiberationSansNarrow-50"/>
       <use x="45.605469" xlink:href="#LiberationSansNarrow-48"/>
      </g>
     </g>
    </g>
    <g id="xtick_3">
     <g id="line2d_3">
      <path clip-path="url(#p55c6f32325)" d="M 259.702727 234.52 
L 259.702727 17.64 
" style="fill:none;stroke:#b0b0b0;stroke-dasharray:1.48,0.64;stroke-dashoffset:0;stroke-width:0.4;"/>
     </g>
     <g id="text_3">
      <!-- 40 -->
      <defs>
       <path d="M 35.25 15.578125 
L 35.25 0 
L 28.46875 0 
L 28.46875 15.578125 
L 1.90625 15.578125 
L 1.90625 22.40625 
L 27.6875 68.796875 
L 35.25 68.796875 
L 35.25 22.515625 
L 43.21875 22.515625 
L 43.21875 15.578125 
z
M 28.46875 58.890625 
Q 28.375 58.640625 28.03125 57.90625 
L 27.34375 56.34375 
L 26.5625 54.59375 
Q 26.125 53.65625 25.78125 53.078125 
L 11.328125 27.09375 
Q 11.140625 26.703125 10.75 26.078125 
L 9.96875 24.8125 
L 9.1875 23.484375 
Q 8.796875 22.859375 8.546875 22.515625 
L 28.46875 22.515625 
z
" id="LiberationSansNarrow-52"/>
      </defs>
      <g transform="translate(253.317415 251.665625)scale(0.14 -0.14)">
       <use xlink:href="#LiberationSansNarrow-52"/>
       <use x="45.605469" xlink:href="#LiberationSansNarrow-48"/>
      </g>
     </g>
    </g>
    <g id="xtick_4">
     <g id="line2d_4">
      <path clip-path="url(#p55c6f32325)" d="M 351.597273 234.52 
L 351.597273 17.64 
" style="fill:none;stroke:#b0b0b0;stroke-dasharray:1.48,0.64;stroke-dashoffset:0;stroke-width:0.4;"/>
     </g>
     <g id="text_4">
      <!-- 60 -->
      <defs>
       <path d="M 42 22.515625 
Q 42 17.328125 40.828125 13 
Q 39.65625 8.6875 37.359375 5.578125 
Q 35.0625 2.484375 31.640625 0.75 
Q 28.21875 -0.984375 23.78125 -0.984375 
Q 18.84375 -0.984375 15.15625 1.3125 
Q 11.46875 3.609375 9.03125 7.921875 
Q 6.59375 12.25 5.375 18.53125 
Q 4.15625 24.8125 4.15625 32.8125 
Q 4.15625 42 5.546875 48.921875 
Q 6.9375 55.859375 9.515625 60.5 
Q 12.109375 65.140625 15.859375 67.484375 
Q 19.625 69.828125 24.359375 69.828125 
Q 27.25 69.828125 29.765625 69.09375 
Q 32.28125 68.359375 34.328125 66.71875 
Q 36.375 65.09375 37.9375 62.40625 
Q 39.5 59.71875 40.4375 55.8125 
L 33.546875 54.296875 
Q 32.421875 58.734375 29.953125 60.71875 
Q 27.484375 62.703125 24.265625 62.703125 
Q 21.296875 62.703125 18.890625 60.984375 
Q 16.5 59.28125 14.8125 55.875 
Q 13.140625 52.484375 12.234375 47.359375 
Q 11.328125 42.234375 11.328125 35.40625 
Q 13.28125 39.84375 16.84375 42.15625 
Q 20.40625 44.484375 25.046875 44.484375 
Q 28.90625 44.484375 32 42.96875 
Q 35.109375 41.453125 37.328125 38.59375 
Q 39.546875 35.75 40.765625 31.671875 
Q 42 27.59375 42 22.515625 
z
M 34.671875 22.125 
Q 34.671875 25.6875 33.953125 28.5625 
Q 33.25 31.453125 31.8125 33.46875 
Q 30.375 35.5 28.25 36.59375 
Q 26.125 37.703125 23.296875 37.703125 
Q 21.34375 37.703125 19.328125 36.984375 
Q 17.328125 36.28125 15.71875 34.6875 
Q 14.109375 33.109375 13.078125 30.515625 
Q 12.0625 27.9375 12.0625 24.21875 
Q 12.0625 20.40625 12.859375 17.109375 
Q 13.671875 13.8125 15.15625 11.375 
Q 16.65625 8.9375 18.78125 7.515625 
Q 20.90625 6.109375 23.53125 6.109375 
Q 26.125 6.109375 28.203125 7.203125 
Q 30.28125 8.296875 31.71875 10.375 
Q 33.15625 12.453125 33.90625 15.421875 
Q 34.671875 18.40625 34.671875 22.125 
z
" id="LiberationSansNarrow-54"/>
      </defs>
      <g transform="translate(345.21196 251.665625)scale(0.14 -0.14)">
       <use xlink:href="#LiberationSansNarrow-54"/>
       <use x="45.605469" xlink:href="#LiberationSansNarrow-48"/>
      </g>
     </g>
    </g>
    <g id="xtick_5">
     <g id="line2d_5">
      <path clip-path="url(#p55c6f32325)" d="M 443.491818 234.52 
L 443.491818 17.64 
" style="fill:none;stroke:#b0b0b0;stroke-dasharray:1.48,0.64;stroke-dashoffset:0;stroke-width:0.4;"/>
     </g>
     <g id="text_5">
      <!-- 80 -->
      <defs>
       <path d="M 42.046875 19.1875 
Q 42.046875 14.796875 40.890625 11.109375 
Q 39.75 7.421875 37.40625 4.734375 
Q 35.0625 2.046875 31.421875 0.53125 
Q 27.78125 -0.984375 22.796875 -0.984375 
Q 17.828125 -0.984375 14.203125 0.53125 
Q 10.59375 2.046875 8.21875 4.703125 
Q 5.859375 7.375 4.703125 11.0625 
Q 3.5625 14.75 3.5625 19.09375 
Q 3.5625 22.859375 4.515625 25.78125 
Q 5.46875 28.71875 7.03125 30.828125 
Q 8.59375 32.953125 10.609375 34.25 
Q 12.640625 35.546875 14.796875 35.984375 
L 14.796875 36.1875 
Q 12.453125 36.859375 10.59375 38.375 
Q 8.734375 39.890625 7.46875 42.015625 
Q 6.203125 44.140625 5.546875 46.71875 
Q 4.890625 49.3125 4.890625 52.203125 
Q 4.890625 55.8125 6.03125 59 
Q 7.171875 62.203125 9.421875 64.625 
Q 11.671875 67.046875 14.984375 68.4375 
Q 18.3125 69.828125 22.65625 69.828125 
Q 27.25 69.828125 30.640625 68.40625 
Q 34.03125 67 36.25 64.578125 
Q 38.484375 62.15625 39.546875 58.9375 
Q 40.625 55.71875 40.625 52.09375 
Q 40.625 49.265625 39.96875 46.671875 
Q 39.3125 44.09375 38.0625 41.96875 
Q 36.8125 39.84375 34.9375 38.34375 
Q 33.0625 36.859375 30.609375 36.28125 
L 30.609375 36.078125 
Q 33.0625 35.59375 35.15625 34.296875 
Q 37.25 33.015625 38.765625 30.890625 
Q 40.28125 28.765625 41.15625 25.828125 
Q 42.046875 22.90625 42.046875 19.1875 
z
M 33.15625 51.609375 
Q 33.15625 54.203125 32.609375 56.34375 
Q 32.078125 58.5 30.828125 60.03125 
Q 29.59375 61.578125 27.59375 62.421875 
Q 25.59375 63.28125 22.65625 63.28125 
Q 19.828125 63.28125 17.875 62.421875 
Q 15.921875 61.578125 14.640625 60.03125 
Q 13.375 58.5 12.8125 56.34375 
Q 12.25 54.203125 12.25 51.609375 
Q 12.25 49.5625 12.6875 47.40625 
Q 13.140625 45.265625 14.3125 43.5 
Q 15.484375 41.75 17.5 40.625 
Q 19.53125 39.5 22.75 39.5 
Q 26.171875 39.5 28.21875 40.625 
Q 30.28125 41.75 31.375 43.5 
Q 32.46875 45.265625 32.8125 47.40625 
Q 33.15625 49.5625 33.15625 51.609375 
z
M 34.578125 20.015625 
Q 34.578125 22.515625 34.015625 24.828125 
Q 33.453125 27.15625 32.078125 28.9375 
Q 30.71875 30.71875 28.421875 31.8125 
Q 26.125 32.90625 22.65625 32.90625 
Q 19.484375 32.90625 17.265625 31.8125 
Q 15.046875 30.71875 13.671875 28.90625 
Q 12.3125 27.09375 11.671875 24.71875 
Q 11.03125 22.359375 11.03125 19.828125 
Q 11.03125 16.65625 11.671875 14.03125 
Q 12.3125 11.421875 13.703125 9.546875 
Q 15.09375 7.671875 17.375 6.640625 
Q 19.671875 5.609375 22.90625 5.609375 
Q 26.171875 5.609375 28.421875 6.640625 
Q 30.671875 7.671875 32.03125 9.546875 
Q 33.40625 11.421875 33.984375 14.078125 
Q 34.578125 16.75 34.578125 20.015625 
z
" id="LiberationSansNarrow-56"/>
      </defs>
      <g transform="translate(437.106506 251.665625)scale(0.14 -0.14)">
       <use xlink:href="#LiberationSansNarrow-56"/>
       <use x="45.605469" xlink:href="#LiberationSansNarrow-48"/>
      </g>
     </g>
    </g>
    <g id="xtick_6">
     <g id="line2d_6">
      <path clip-path="url(#p55c6f32325)" d="M 535.386364 234.52 
L 535.386364 17.64 
" style="fill:none;stroke:#b0b0b0;stroke-dasharray:1.48,0.64;stroke-dashoffset:0;stroke-width:0.4;"/>
     </g>
     <g id="text_6">
      <!-- 100 -->
      <defs>
       <path d="M 6.25 0 
L 6.25 7.46875 
L 20.609375 7.46875 
L 20.609375 60.40625 
L 7.90625 49.3125 
L 7.90625 57.625 
L 21.234375 68.796875 
L 27.875 68.796875 
L 27.875 7.46875 
L 41.609375 7.46875 
L 41.609375 0 
z
" id="LiberationSansNarrow-49"/>
      </defs>
      <g transform="translate(525.808395 251.665625)scale(0.14 -0.14)">
       <use xlink:href="#LiberationSansNarrow-49"/>
       <use x="45.605469" xlink:href="#LiberationSansNarrow-48"/>
       <use x="91.210938" xlink:href="#LiberationSansNarrow-48"/>
      </g>
     </g>
    </g>
    <g id="text_7">
     <!-- процент случаев -->
     <defs>
      <path d="M 38.71875 52.828125 
L 38.71875 0 
L 31.546875 0 
L 31.546875 46.4375 
L 12.890625 46.4375 
L 12.890625 0 
L 5.71875 0 
L 5.71875 52.828125 
z
" id="LiberationSansNarrow-1087"/>
      <path d="M 42.140625 26.65625 
Q 42.140625 20.65625 41.359375 15.578125 
Q 40.578125 10.5 38.6875 6.828125 
Q 36.8125 3.171875 33.765625 1.09375 
Q 30.71875 -0.984375 26.21875 -0.984375 
Q 21.578125 -0.984375 18.078125 1.171875 
Q 14.59375 3.328125 12.796875 8.203125 
L 12.546875 8.203125 
Q 12.59375 8.109375 12.609375 7.328125 
Q 12.640625 6.546875 12.671875 5.375 
Q 12.703125 4.203125 12.71875 2.75 
Q 12.75 1.3125 12.75 -0.09375 
L 12.75 -20.75 
L 5.515625 -20.75 
L 5.515625 42.046875 
Q 5.515625 43.953125 5.484375 45.703125 
Q 5.46875 47.46875 5.4375 48.90625 
Q 5.421875 50.34375 5.375 51.359375 
Q 5.328125 52.390625 5.28125 52.828125 
L 12.25 52.828125 
Q 12.3125 52.6875 12.359375 51.8125 
L 12.5 49.703125 
Q 12.546875 48.4375 12.59375 47.015625 
Q 12.640625 45.609375 12.640625 44.34375 
L 12.796875 44.34375 
Q 13.765625 46.875 15.0625 48.65625 
Q 16.359375 50.4375 18.015625 51.578125 
Q 19.671875 52.734375 21.671875 53.25 
Q 23.6875 53.765625 26.21875 53.765625 
Q 30.71875 53.765625 33.765625 51.8125 
Q 36.8125 49.859375 38.6875 46.3125 
Q 40.578125 42.78125 41.359375 37.765625 
Q 42.140625 32.765625 42.140625 26.65625 
z
M 34.578125 26.46875 
Q 34.578125 31.34375 34.109375 35.15625 
Q 33.640625 38.96875 32.4375 41.59375 
Q 31.25 44.234375 29.296875 45.59375 
Q 27.34375 46.96875 24.359375 46.96875 
Q 21.96875 46.96875 19.84375 46.140625 
Q 17.71875 45.3125 16.125 42.96875 
Q 14.546875 40.625 13.640625 36.5 
Q 12.75 32.375 12.75 25.78125 
Q 12.75 20.171875 13.5 16.28125 
Q 14.265625 12.40625 15.71875 10.015625 
Q 17.1875 7.625 19.328125 6.5625 
Q 21.484375 5.515625 24.3125 5.515625 
Q 27.34375 5.515625 29.296875 6.921875 
Q 31.25 8.34375 32.4375 11.03125 
Q 33.640625 13.71875 34.109375 17.59375 
Q 34.578125 21.484375 34.578125 26.46875 
z
" id="LiberationSansNarrow-1088"/>
      <path d="M 42.140625 26.46875 
Q 42.140625 12.59375 37.125 5.796875 
Q 32.125 -0.984375 22.609375 -0.984375 
Q 18.0625 -0.984375 14.515625 0.671875 
Q 10.984375 2.34375 8.515625 5.765625 
Q 6.0625 9.1875 4.765625 14.328125 
Q 3.46875 19.484375 3.46875 26.46875 
Q 3.46875 53.8125 22.859375 53.8125 
Q 27.875 53.8125 31.5625 52.09375 
Q 35.25 50.390625 37.59375 46.96875 
Q 39.9375 43.5625 41.03125 38.421875 
Q 42.140625 33.296875 42.140625 26.46875 
z
M 34.578125 26.46875 
Q 34.578125 32.625 33.8125 36.625 
Q 33.0625 40.625 31.546875 43.015625 
Q 30.03125 45.40625 27.859375 46.359375 
Q 25.6875 47.3125 23 47.3125 
Q 20.21875 47.3125 17.984375 46.3125 
Q 15.765625 45.3125 14.203125 42.890625 
Q 12.640625 40.484375 11.828125 36.46875 
Q 11.03125 32.46875 11.03125 26.46875 
Q 11.03125 20.3125 11.90625 16.28125 
Q 12.796875 12.25 14.328125 9.859375 
Q 15.875 7.46875 17.96875 6.484375 
Q 20.0625 5.515625 22.5625 5.515625 
Q 25.34375 5.515625 27.5625 6.46875 
Q 29.78125 7.421875 31.34375 9.8125 
Q 32.90625 12.203125 33.734375 16.25 
Q 34.578125 20.3125 34.578125 26.46875 
z
" id="LiberationSansNarrow-1086"/>
      <path d="M 12.890625 52.828125 
L 12.890625 6.390625 
L 31.984375 6.390625 
L 31.984375 52.828125 
L 39.203125 52.828125 
L 39.203125 6.390625 
L 45.0625 6.390625 
L 45.0625 -19.921875 
L 38.578125 -19.921875 
L 38.578125 0 
L 5.671875 0 
L 5.671875 52.828125 
z
" id="LiberationSansNarrow-1094"/>
      <path d="M 10.6875 24.5625 
Q 10.6875 20.40625 11.5625 16.90625 
Q 12.453125 13.421875 13.90625 10.90625 
Q 15.375 8.40625 17.640625 7 
Q 19.921875 5.609375 23.140625 5.609375 
Q 27.828125 5.609375 30.65625 7.90625 
Q 33.5 10.203125 34.46875 13.71875 
L 40.828125 11.53125 
Q 40.140625 9.328125 38.921875 7.109375 
Q 37.703125 4.890625 35.640625 3.09375 
Q 33.59375 1.3125 30.53125 0.15625 
Q 27.484375 -0.984375 23.140625 -0.984375 
Q 13.53125 -0.984375 8.5 6 
Q 3.46875 12.984375 3.46875 26.765625 
Q 3.46875 34.1875 5 39.328125 
Q 6.546875 44.484375 9.171875 47.703125 
Q 11.8125 50.921875 15.328125 52.359375 
Q 18.84375 53.8125 22.859375 53.8125 
Q 28.328125 53.8125 31.984375 51.65625 
Q 39.0625 47.515625 41.015625 36.8125 
Q 41.9375 31.6875 41.9375 25.734375 
L 41.9375 24.5625 
z
M 34.71875 31.296875 
Q 34.71875 40.140625 31.421875 43.71875 
Q 28.125 47.3125 22.75 47.3125 
Q 18.953125 47.3125 15.328125 44.09375 
Q 10.9375 40.328125 10.6875 31.296875 
z
" id="LiberationSansNarrow-1077"/>
      <path d="M 12.890625 52.828125 
L 12.890625 30.46875 
L 32.375 30.46875 
L 32.375 52.828125 
L 39.59375 52.828125 
L 39.59375 0 
L 32.375 0 
L 32.375 24.078125 
L 12.890625 24.078125 
L 12.890625 0 
L 5.671875 0 
L 5.671875 52.828125 
z
" id="LiberationSansNarrow-1085"/>
      <path d="M 1.421875 52.828125 
L 36.140625 52.828125 
L 36.140625 46.4375 
L 22.359375 46.4375 
L 22.359375 0 
L 15.1875 0 
L 15.1875 46.4375 
L 1.421875 46.4375 
z
" id="LiberationSansNarrow-1090"/>
      <path id="LiberationSansNarrow-32"/>
      <path d="M 11.03125 26.65625 
Q 11.03125 22.125 11.5625 18.3125 
Q 12.109375 14.5 13.375 11.734375 
Q 14.65625 8.984375 16.75 7.46875 
Q 18.84375 5.953125 21.96875 5.953125 
Q 25.828125 5.953125 28.390625 8.484375 
Q 30.953125 11.03125 31.546875 16.3125 
L 38.875 15.71875 
Q 38.53125 12.453125 37.296875 9.421875 
Q 36.078125 6.390625 34.03125 4.09375 
Q 31.984375 1.8125 29 0.40625 
Q 26.03125 -0.984375 22.171875 -0.984375 
Q 17.09375 -0.984375 13.5 1.109375 
Q 9.90625 3.21875 7.6875 6.90625 
Q 5.46875 10.59375 4.46875 15.59375 
Q 3.46875 20.609375 3.46875 26.46875 
Q 3.46875 31.78125 4.203125 35.859375 
Q 4.9375 39.9375 6.21875 42.984375 
Q 7.515625 46.046875 9.265625 48.125 
Q 11.03125 50.203125 13.109375 51.4375 
Q 15.1875 52.6875 17.453125 53.25 
Q 19.734375 53.8125 22.078125 53.8125 
Q 25.734375 53.8125 28.5625 52.59375 
Q 31.390625 51.375 33.46875 49.25 
Q 35.546875 47.125 36.8125 44.234375 
Q 38.09375 41.359375 38.625 38.03125 
L 31.203125 37.359375 
Q 30.671875 41.75 28.375 44.328125 
Q 26.078125 46.921875 21.875 46.921875 
Q 18.796875 46.921875 16.71875 45.671875 
Q 14.65625 44.4375 13.375 41.921875 
Q 12.109375 39.40625 11.5625 35.59375 
Q 11.03125 31.78125 11.03125 26.65625 
z
" id="LiberationSansNarrow-1089"/>
      <path d="M 34.859375 0 
L 34.859375 46.4375 
L 19.875 46.4375 
Q 18.890625 37.453125 18.03125 30.4375 
Q 17.1875 23.4375 16.3125 18.15625 
Q 15.4375 12.890625 14.40625 9.25 
Q 13.375 5.609375 11.953125 3.34375 
Q 10.546875 1.078125 8.65625 0.046875 
Q 6.78125 -0.984375 4.203125 -0.984375 
Q 3.03125 -0.984375 2.078125 -0.78125 
Q 1.125 -0.59375 0.4375 -0.34375 
L 0.4375 5.953125 
Q 0.875 5.765625 1.625 5.640625 
Q 2.390625 5.515625 3.171875 5.515625 
Q 4.59375 5.515625 5.59375 6.53125 
Q 6.59375 7.5625 7.390625 9.859375 
Q 8.203125 12.15625 8.859375 15.796875 
Q 9.515625 19.4375 10.203125 24.703125 
Q 10.890625 29.984375 11.625 36.921875 
L 13.375 52.828125 
L 42.140625 52.828125 
L 42.140625 0 
z
" id="LiberationSansNarrow-1083"/>
      <path d="M 24.171875 0 
Q 22.65625 -4.78125 21.0625 -8.609375 
Q 19.484375 -12.453125 17.53125 -15.15625 
Q 15.578125 -17.875 13.1875 -19.3125 
Q 10.796875 -20.75 7.671875 -20.75 
Q 6.296875 -20.75 5.125 -20.65625 
Q 3.953125 -20.5625 2.6875 -20.21875 
L 2.6875 -13.625 
Q 3.46875 -13.765625 4.421875 -13.84375 
Q 5.375 -13.921875 6.0625 -13.921875 
Q 9.234375 -13.921875 11.9375 -11.03125 
Q 14.65625 -8.15625 16.703125 -1.859375 
L 17.390625 0.25 
L 0.203125 52.828125 
L 7.90625 52.828125 
L 17.046875 23.640625 
Q 17.046875 23.640625 18.0625 20.125 
L 19.28125 15.71875 
Q 19.921875 13.53125 20.375 11.765625 
Q 20.84375 10.015625 20.953125 9.578125 
Q 21.046875 10.109375 21.484375 11.71875 
L 22.5625 15.234375 
L 23.734375 19.1875 
Q 24.359375 21.1875 24.75 22.65625 
L 33.25 52.828125 
L 40.875 52.828125 
z
" id="LiberationSansNarrow-1091"/>
      <path d="M 12.109375 52.828125 
L 12.109375 33.203125 
Q 12.109375 31.546875 12.421875 30.09375 
Q 12.75 28.65625 13.53125 27.578125 
Q 14.3125 26.515625 15.578125 25.90625 
Q 16.84375 25.296875 18.75 25.296875 
Q 21.53125 25.296875 24.171875 25.921875 
Q 26.8125 26.5625 29.78125 27.59375 
L 29.78125 52.828125 
L 37.015625 52.828125 
L 37.015625 0 
L 29.78125 0 
L 29.78125 22.515625 
Q 29.78125 22.515625 26.65625 21 
Q 25.046875 20.265625 23.28125 19.671875 
Q 21.53125 19.09375 19.671875 18.703125 
Q 17.828125 18.3125 15.765625 18.3125 
Q 13.140625 18.3125 11.109375 19.3125 
Q 9.078125 20.3125 7.703125 22.171875 
Q 6.34375 24.03125 5.609375 26.703125 
Q 4.890625 29.390625 4.890625 32.765625 
L 4.890625 52.828125 
z
" id="LiberationSansNarrow-1095"/>
      <path d="M 16.546875 -0.984375 
Q 10.015625 -0.984375 6.734375 3.21875 
Q 3.46875 7.421875 3.46875 14.75 
Q 3.46875 19.96875 5.09375 23.3125 
Q 6.734375 26.65625 9.34375 28.5625 
Q 11.96875 30.46875 15.328125 31.203125 
Q 18.703125 31.9375 22.171875 32.03125 
L 31.9375 32.234375 
L 31.9375 35.109375 
Q 31.9375 38.375 31.375 40.671875 
Q 30.8125 42.96875 29.640625 44.375 
Q 28.46875 45.796875 26.734375 46.453125 
Q 25 47.125 22.609375 47.125 
Q 20.515625 47.125 18.84375 46.75 
Q 17.1875 46.390625 15.9375 45.4375 
Q 14.703125 44.484375 13.9375 42.84375 
Q 13.1875 41.21875 12.9375 38.71875 
L 5.421875 39.546875 
Q 5.8125 42.671875 6.9375 45.28125 
Q 8.0625 47.90625 10.109375 49.796875 
Q 12.15625 51.703125 15.25 52.75 
Q 18.359375 53.8125 22.796875 53.8125 
Q 30.953125 53.8125 35.078125 49.234375 
Q 39.203125 44.671875 39.203125 36.03125 
L 39.203125 13.28125 
Q 39.203125 9.375 40.03125 7.390625 
Q 40.875 5.421875 43.265625 5.421875 
Q 43.84375 5.421875 44.453125 5.515625 
Q 45.0625 5.609375 45.609375 5.765625 
L 45.609375 0.296875 
Q 44.234375 -0.09375 42.890625 -0.28125 
Q 41.546875 -0.484375 40.046875 -0.484375 
Q 37.984375 -0.484375 36.515625 0.171875 
Q 35.0625 0.828125 34.15625 2.171875 
Q 33.25 3.515625 32.765625 5.484375 
Q 32.28125 7.46875 32.125 10.109375 
L 31.9375 10.109375 
Q 30.765625 7.5625 29.375 5.515625 
Q 27.984375 3.46875 26.140625 2.03125 
Q 24.3125 0.59375 21.9375 -0.1875 
Q 19.578125 -0.984375 16.546875 -0.984375 
z
M 18.21875 5.609375 
Q 21.6875 5.609375 24.25 7.140625 
Q 26.8125 8.6875 28.515625 11.078125 
Q 30.21875 13.484375 31.078125 16.3125 
Q 31.9375 19.140625 31.9375 21.734375 
L 31.9375 26.078125 
L 24.03125 25.875 
Q 21.390625 25.828125 19 25.40625 
Q 16.609375 25 14.8125 23.78125 
Q 13.03125 22.5625 11.953125 20.359375 
Q 10.890625 18.171875 10.890625 14.59375 
Q 10.890625 10.296875 12.796875 7.953125 
Q 14.703125 5.609375 18.21875 5.609375 
z
" id="LiberationSansNarrow-1072"/>
      <path d="M 22.5625 52.828125 
Q 25.59375 52.828125 28.484375 52.234375 
Q 31.390625 51.65625 33.640625 50.140625 
Q 35.890625 48.640625 37.234375 46.09375 
Q 38.578125 43.5625 38.578125 39.59375 
Q 38.578125 37.015625 37.890625 35.03125 
Q 37.203125 33.0625 35.984375 31.640625 
Q 34.765625 30.21875 33.125 29.3125 
Q 31.5 28.421875 29.6875 27.984375 
L 29.6875 27.640625 
Q 31.84375 27.296875 33.734375 26.4375 
Q 35.640625 25.59375 37 24.09375 
Q 38.375 22.609375 39.171875 20.40625 
Q 39.984375 18.21875 39.984375 15.234375 
Q 39.984375 11.421875 38.765625 8.5625 
Q 37.546875 5.71875 35.375 3.8125 
Q 33.203125 1.90625 30.171875 0.953125 
Q 27.15625 0 23.484375 0 
L 5.671875 0 
L 5.671875 52.828125 
z
M 12.890625 6.5 
L 22.3125 6.5 
Q 25.09375 6.5 27 6.984375 
Q 28.90625 7.46875 30.078125 8.546875 
Q 31.25 9.625 31.78125 11.25 
Q 32.328125 12.890625 32.328125 15.1875 
Q 32.328125 17.625 31.765625 19.328125 
Q 31.203125 21.046875 29.953125 22.109375 
Q 28.71875 23.1875 26.703125 23.671875 
Q 24.703125 24.171875 21.875 24.171875 
L 12.890625 24.171875 
z
M 12.890625 46.140625 
L 12.890625 30.515625 
L 21.53125 30.515625 
Q 24.265625 30.515625 26.0625 30.984375 
Q 27.875 31.453125 29 32.390625 
Q 30.125 33.34375 30.5625 34.828125 
Q 31 36.328125 31 38.421875 
Q 31 42.4375 28.96875 44.28125 
Q 26.953125 46.140625 22.125 46.140625 
z
" id="LiberationSansNarrow-1074"/>
     </defs>
     <g transform="translate(260.769063 268.71625)scale(0.14 -0.14)">
      <use xlink:href="#LiberationSansNarrow-1087"/>
      <use x="44.433594" xlink:href="#LiberationSansNarrow-1088"/>
      <use x="90.039062" xlink:href="#LiberationSansNarrow-1086"/>
      <use x="135.644531" xlink:href="#LiberationSansNarrow-1094"/>
      <use x="182.601562" xlink:href="#LiberationSansNarrow-1077"/>
      <use x="228.207031" xlink:href="#LiberationSansNarrow-1085"/>
      <use x="273.470703" xlink:href="#LiberationSansNarrow-1090"/>
      <use x="311.019531" xlink:href="#LiberationSansNarrow-32"/>
      <use x="333.822266" xlink:href="#LiberationSansNarrow-1089"/>
      <use x="374.837891" xlink:href="#LiberationSansNarrow-1083"/>
      <use x="422.640625" xlink:href="#LiberationSansNarrow-1091"/>
      <use x="463.65625" xlink:href="#LiberationSansNarrow-1095"/>
      <use x="506.380859" xlink:href="#LiberationSansNarrow-1072"/>
      <use x="551.986328" xlink:href="#LiberationSansNarrow-1077"/>
      <use x="597.591797" xlink:href="#LiberationSansNarrow-1074"/>
     </g>
    </g>
   </g>
   <g id="matplotlib.axis_2">
    <g id="ytick_1">
     <g id="line2d_7">
      <path clip-path="url(#p55c6f32325)" d="M 52.94 205.482442 
L 558.36 205.482442 
" style="fill:none;stroke:#b0b0b0;stroke-dasharray:1.48,0.64;stroke-dashoffset:0;stroke-width:0.4;"/>
     </g>
     <g id="text_8">
      <!-- −5 -->
      <defs>
       <path d="M 4.046875 29.6875 
L 4.046875 36.8125 
L 43.890625 36.8125 
L 43.890625 29.6875 
z
" id="LiberationSansNarrow-8722"/>
       <path d="M 42.140625 22.40625 
Q 42.140625 17.234375 40.859375 12.9375 
Q 39.59375 8.640625 37.078125 5.53125 
Q 34.578125 2.4375 30.8125 0.71875 
Q 27.046875 -0.984375 22.125 -0.984375 
Q 17.671875 -0.984375 14.375 0.28125 
Q 11.078125 1.5625 8.8125 3.78125 
Q 6.546875 6 5.203125 8.984375 
Q 3.859375 11.96875 3.265625 15.375 
L 10.546875 16.40625 
Q 10.984375 14.453125 11.78125 12.625 
Q 12.59375 10.796875 13.984375 9.34375 
Q 15.375 7.90625 17.40625 7.046875 
Q 19.4375 6.203125 22.3125 6.203125 
Q 25.09375 6.203125 27.390625 7.25 
Q 29.6875 8.296875 31.296875 10.34375 
Q 32.90625 12.40625 33.78125 15.375 
Q 34.671875 18.359375 34.671875 22.21875 
Q 34.671875 25.390625 33.84375 28.046875 
Q 33.015625 30.71875 31.453125 32.640625 
Q 29.890625 34.578125 27.609375 35.640625 
Q 25.34375 36.71875 22.46875 36.71875 
Q 20.65625 36.71875 19.140625 36.328125 
Q 17.625 35.9375 16.328125 35.25 
Q 15.046875 34.578125 13.96875 33.671875 
Q 12.890625 32.765625 11.96875 31.78125 
L 4.9375 31.78125 
L 6.78125 68.796875 
L 38.875 68.796875 
L 38.875 61.328125 
L 13.375 61.328125 
L 12.3125 39.5 
Q 14.203125 41.3125 17.078125 42.59375 
Q 19.96875 43.890625 23.921875 43.890625 
Q 28.125 43.890625 31.484375 42.328125 
Q 34.859375 40.765625 37.21875 37.90625 
Q 39.59375 35.0625 40.859375 31.109375 
Q 42.140625 27.15625 42.140625 22.40625 
z
" id="LiberationSansNarrow-53"/>
      </defs>
      <g transform="translate(32.847813 210.555255)scale(0.14 -0.14)">
       <use xlink:href="#LiberationSansNarrow-8722"/>
       <use x="47.900391" xlink:href="#LiberationSansNarrow-53"/>
      </g>
     </g>
    </g>
    <g id="ytick_2">
     <g id="line2d_8">
      <path clip-path="url(#p55c6f32325)" d="M 52.94 146.051774 
L 558.36 146.051774 
" style="fill:none;stroke:#b0b0b0;stroke-dasharray:1.48,0.64;stroke-dashoffset:0;stroke-width:0.4;"/>
     </g>
     <g id="text_9">
      <!-- 0 -->
      <g transform="translate(39.554688 151.124587)scale(0.14 -0.14)">
       <use xlink:href="#LiberationSansNarrow-48"/>
      </g>
     </g>
    </g>
    <g id="ytick_3">
     <g id="line2d_9">
      <path clip-path="url(#p55c6f32325)" d="M 52.94 86.621106 
L 558.36 86.621106 
" style="fill:none;stroke:#b0b0b0;stroke-dasharray:1.48,0.64;stroke-dashoffset:0;stroke-width:0.4;"/>
     </g>
     <g id="text_10">
      <!-- 5 -->
      <g transform="translate(39.554688 91.693919)scale(0.14 -0.14)">
       <use xlink:href="#LiberationSansNarrow-53"/>
      </g>
     </g>
    </g>
    <g id="ytick_4">
     <g id="line2d_10">
      <path clip-path="url(#p55c6f32325)" d="M 52.94 27.190438 
L 558.36 27.190438 
" style="fill:none;stroke:#b0b0b0;stroke-dasharray:1.48,0.64;stroke-dashoffset:0;stroke-width:0.4;"/>
     </g>
     <g id="text_11">
      <!-- 10 -->
      <g transform="translate(33.169375 32.26325)scale(0.14 -0.14)">
       <use xlink:href="#LiberationSansNarrow-49"/>
       <use x="45.605469" xlink:href="#LiberationSansNarrow-48"/>
      </g>
     </g>
    </g>
    <g id="text_12">
     <!-- завышение доходности моделью, %г -->
     <defs>
      <path d="M 18.3125 -0.984375 
Q 11.625 -0.984375 7.6875 2.0625 
Q 3.765625 5.125 1.953125 11.421875 
L 8.296875 13.578125 
Q 9.28125 9.765625 11.8125 7.65625 
Q 14.359375 5.5625 18.453125 5.5625 
Q 22.3125 5.5625 24.578125 7.859375 
Q 26.859375 10.15625 26.859375 14.59375 
Q 26.859375 17.484375 25.734375 19.390625 
Q 24.609375 21.296875 22.78125 22.390625 
Q 20.953125 23.484375 18.546875 23.921875 
Q 16.15625 24.359375 13.578125 24.359375 
L 13.578125 31.0625 
Q 16.109375 31.0625 18.40625 31.421875 
Q 20.703125 31.78125 22.4375 32.703125 
Q 24.171875 33.640625 25.140625 35.28125 
Q 26.125 36.921875 26.125 39.453125 
Q 26.125 43.0625 24.140625 45.15625 
Q 22.171875 47.265625 18.453125 47.265625 
Q 17.046875 47.265625 15.65625 46.921875 
Q 14.265625 46.578125 13.03125 45.765625 
Q 11.8125 44.96875 10.984375 43.625 
Q 10.15625 42.28125 9.859375 40.234375 
L 3.421875 41.21875 
Q 3.90625 44.53125 5.125 46.921875 
Q 6.34375 49.3125 8.296875 50.84375 
Q 10.25 52.390625 12.78125 53.09375 
Q 15.328125 53.8125 18.453125 53.8125 
Q 21.875 53.8125 24.625 52.78125 
Q 27.390625 51.765625 29.34375 49.90625 
Q 31.296875 48.046875 32.375 45.5 
Q 33.453125 42.96875 33.453125 39.890625 
Q 33.453125 37.109375 32.5625 34.953125 
Q 31.6875 32.8125 30.25 31.3125 
Q 28.8125 29.828125 27.046875 28.953125 
Q 25.296875 28.078125 23.53125 27.875 
L 23.53125 27.78125 
Q 25.78125 27.484375 27.75 26.484375 
Q 29.734375 25.484375 31.25 23.84375 
Q 32.765625 22.21875 33.609375 19.9375 
Q 34.46875 17.671875 34.46875 14.84375 
Q 34.46875 11.46875 33.484375 8.5625 
Q 32.515625 5.671875 30.484375 3.546875 
Q 28.46875 1.421875 25.4375 0.21875 
Q 22.40625 -0.984375 18.3125 -0.984375 
z
" id="LiberationSansNarrow-1079"/>
      <path d="M 22.796875 30.46875 
Q 31.296875 30.46875 35.640625 26.875 
Q 39.984375 23.296875 39.984375 15.53125 
Q 39.984375 11.921875 38.90625 9.03125 
Q 37.84375 6.15625 35.671875 4.15625 
Q 33.5 2.15625 30.296875 1.078125 
Q 27.09375 0 22.859375 0 
L 5.859375 0 
L 5.859375 52.828125 
L 13.328125 52.828125 
L 13.328125 30.46875 
z
M 13.328125 6.203125 
L 21.734375 6.203125 
Q 24.609375 6.203125 26.578125 6.8125 
Q 28.5625 7.421875 29.78125 8.609375 
Q 31 9.8125 31.53125 11.546875 
Q 32.078125 13.28125 32.078125 15.53125 
Q 32.078125 20.125 29.65625 22.234375 
Q 27.25 24.359375 21.734375 24.359375 
L 13.328125 24.359375 
z
M 47.65625 0 
L 47.65625 52.828125 
L 55.125 52.828125 
L 55.125 0 
z
" id="LiberationSansNarrow-1099"/>
      <path d="M 5.671875 0 
L 5.671875 52.828125 
L 12.890625 52.828125 
L 12.890625 6.390625 
L 29.296875 6.390625 
L 29.296875 52.828125 
L 36.53125 52.828125 
L 36.53125 6.390625 
L 52.875 6.390625 
L 52.875 52.828125 
L 60.109375 52.828125 
L 60.109375 0 
z
" id="LiberationSansNarrow-1096"/>
      <path d="M 12.640625 52.828125 
L 12.640625 23.921875 
Q 12.640625 22.796875 12.59375 20.921875 
Q 12.546875 19.046875 12.46875 17.046875 
Q 12.40625 15.046875 12.359375 13.234375 
Q 12.3125 11.421875 12.25 10.40625 
L 32.28125 52.828125 
L 40.140625 52.828125 
L 40.140625 0 
L 33.25 0 
L 33.25 32.234375 
Q 33.25 33.15625 33.296875 34.578125 
L 33.40625 37.40625 
Q 33.453125 38.875 33.5 40.234375 
L 33.640625 42.625 
L 13.375 0 
L 5.71875 0 
L 5.71875 52.828125 
z
" id="LiberationSansNarrow-1080"/>
      <path d="M 33.34375 46.4375 
L 21.140625 46.4375 
Q 20.171875 37.796875 19.1875 31.375 
Q 18.21875 24.953125 17.234375 20.21875 
Q 16.265625 15.484375 15.3125 12.15625 
Q 14.359375 8.84375 13.484375 6.390625 
L 33.34375 6.390625 
z
M 46.390625 -19.921875 
L 39.890625 -19.921875 
L 39.890625 0 
L 7.328125 0 
L 7.328125 -19.921875 
L 0.78125 -19.921875 
L 0.78125 6.390625 
L 5.5625 6.390625 
Q 6.78125 8.84375 7.921875 12.328125 
Q 9.078125 15.828125 10.21875 21.1875 
Q 11.375 26.5625 12.515625 34.25 
Q 13.671875 41.9375 14.796875 52.828125 
L 40.578125 52.828125 
L 40.578125 6.390625 
L 46.390625 6.390625 
z
" id="LiberationSansNarrow-1076"/>
      <path d="M 32.078125 0 
L 20.40625 21.6875 
L 8.6875 0 
L 0.921875 0 
L 16.359375 27.15625 
L 1.65625 52.828125 
L 9.625 52.828125 
L 20.40625 32.28125 
L 31.15625 52.828125 
L 39.203125 52.828125 
L 24.515625 27.25 
L 40.140625 0 
z
" id="LiberationSansNarrow-1093"/>
      <path d="M 31.546875 0 
L 25.390625 0 
L 12.40625 46.4375 
Q 12.453125 45.171875 12.515625 43.703125 
Q 12.59375 42.234375 12.59375 40.75 
Q 12.59375 39.265625 12.609375 37.859375 
Q 12.640625 36.46875 12.640625 35.359375 
L 12.640625 0 
L 5.671875 0 
L 5.671875 52.828125 
L 16.890625 52.828125 
L 25.734375 20.5625 
Q 26.65625 17.484375 27.390625 13.796875 
Q 28.125 10.109375 28.421875 6.59375 
Q 28.8125 10.109375 29.515625 13.796875 
Q 30.21875 17.484375 31.15625 20.5625 
L 39.984375 52.828125 
L 50.734375 52.828125 
L 50.734375 0 
L 43.796875 0 
L 43.796875 35.359375 
Q 43.796875 36.421875 43.8125 37.890625 
Q 43.84375 39.359375 43.921875 40.921875 
Q 44 42.484375 44.015625 43.9375 
Q 44.046875 45.40625 44.140625 46.53125 
z
" id="LiberationSansNarrow-1084"/>
      <path d="M 22.75 30.46875 
Q 30.953125 30.46875 35.15625 26.875 
Q 39.359375 23.296875 39.359375 15.53125 
Q 39.359375 11.921875 38.296875 9.03125 
Q 37.25 6.15625 35.171875 4.15625 
Q 33.109375 2.15625 30 1.078125 
Q 26.90625 0 22.796875 0 
L 5.671875 0 
L 5.671875 52.828125 
L 12.890625 52.828125 
L 12.890625 30.46875 
z
M 12.890625 6.203125 
L 21.6875 6.203125 
Q 24.46875 6.203125 26.390625 6.8125 
Q 28.328125 7.421875 29.5 8.609375 
Q 30.671875 9.8125 31.171875 11.546875 
Q 31.6875 13.28125 31.6875 15.53125 
Q 31.6875 20.125 29.359375 22.234375 
Q 27.046875 24.359375 21.734375 24.359375 
L 12.890625 24.359375 
z
" id="LiberationSansNarrow-1100"/>
      <path d="M 58.0625 26.46875 
Q 58.0625 12.59375 53.34375 5.796875 
Q 48.640625 -0.984375 39.703125 -0.984375 
Q 35.59375 -0.984375 32.390625 0.53125 
Q 29.203125 2.046875 26.875 5.171875 
Q 24.5625 8.296875 23.265625 12.984375 
Q 21.96875 17.671875 21.78125 24.078125 
L 12.890625 24.078125 
L 12.890625 0 
L 5.671875 0 
L 5.671875 52.828125 
L 12.890625 52.828125 
L 12.890625 30.46875 
L 21.828125 30.46875 
Q 23.140625 53.8125 39.9375 53.8125 
Q 49.421875 53.8125 53.734375 46.96875 
Q 58.0625 40.140625 58.0625 26.46875 
z
M 50.484375 26.46875 
Q 50.484375 32.625 49.78125 36.625 
Q 49.078125 40.625 47.734375 43.015625 
Q 46.390625 45.40625 44.4375 46.359375 
Q 42.484375 47.3125 40.046875 47.3125 
Q 37.5 47.3125 35.546875 46.3125 
Q 33.59375 45.3125 32.171875 42.890625 
Q 30.765625 40.484375 30.03125 36.46875 
Q 29.296875 32.46875 29.296875 26.46875 
Q 29.296875 20.3125 30.078125 16.28125 
Q 30.859375 12.25 32.25 9.859375 
Q 33.640625 7.46875 35.515625 6.484375 
Q 37.40625 5.515625 39.65625 5.515625 
Q 42.140625 5.515625 44.140625 6.46875 
Q 46.140625 7.421875 47.53125 9.8125 
Q 48.921875 12.203125 49.703125 16.25 
Q 50.484375 20.3125 50.484375 26.46875 
z
" id="LiberationSansNarrow-1102"/>
      <path d="M 15.4375 10.6875 
L 15.4375 2.484375 
Q 15.4375 -0.09375 15.265625 -2.21875 
Q 15.09375 -4.34375 14.671875 -6.171875 
Q 14.265625 -8.015625 13.671875 -9.625 
Q 13.09375 -11.234375 12.3125 -12.796875 
L 7.375 -12.796875 
Q 9.1875 -9.625 10.15625 -6.390625 
Q 11.140625 -3.171875 11.140625 0 
L 7.625 0 
L 7.625 10.6875 
z
" id="LiberationSansNarrow-44"/>
      <path d="M 69.96875 21.1875 
Q 69.96875 15.09375 68.9375 10.90625 
Q 67.921875 6.734375 66.1875 4.171875 
Q 64.453125 1.609375 62.125 0.5 
Q 59.8125 -0.59375 57.171875 -0.59375 
Q 54.546875 -0.59375 52.21875 0.5 
Q 49.90625 1.609375 48.21875 4.140625 
Q 46.53125 6.6875 45.546875 10.859375 
Q 44.578125 15.046875 44.578125 21.1875 
Q 44.578125 27.6875 45.53125 31.9375 
Q 46.484375 36.1875 48.1875 38.703125 
Q 49.90625 41.21875 52.25 42.21875 
Q 54.59375 43.21875 57.328125 43.21875 
Q 59.96875 43.21875 62.25 42.21875 
Q 64.546875 41.21875 66.25 38.703125 
Q 67.96875 36.1875 68.96875 31.9375 
Q 69.96875 27.6875 69.96875 21.1875 
z
M 21.09375 0 
L 14.890625 0 
L 51.8125 68.796875 
L 58.109375 68.796875 
z
M 15.765625 69.390625 
Q 18.3125 69.390625 20.609375 68.390625 
Q 22.90625 67.390625 24.609375 64.890625 
Q 26.3125 62.40625 27.3125 58.203125 
Q 28.328125 54 28.328125 47.609375 
Q 28.328125 41.453125 27.3125 37.25 
Q 26.3125 33.0625 24.609375 30.4375 
Q 22.90625 27.828125 20.578125 26.703125 
Q 18.265625 25.59375 15.625 25.59375 
Q 12.9375 25.59375 10.609375 26.703125 
Q 8.296875 27.828125 6.59375 30.421875 
Q 4.890625 33.015625 3.90625 37.203125 
Q 2.9375 41.40625 2.9375 47.609375 
Q 2.9375 54 3.90625 58.203125 
Q 4.890625 62.40625 6.609375 64.890625 
Q 8.34375 67.390625 10.6875 68.390625 
Q 13.03125 69.390625 15.765625 69.390625 
z
M 64.0625 21.1875 
Q 64.0625 26.03125 63.625 29.21875 
Q 63.1875 32.421875 62.328125 34.328125 
Q 61.46875 36.234375 60.203125 37.015625 
Q 58.9375 37.796875 57.328125 37.796875 
Q 55.671875 37.796875 54.375 36.984375 
Q 53.078125 36.1875 52.1875 34.28125 
Q 51.3125 32.375 50.875 29.171875 
Q 50.4375 25.984375 50.4375 21.1875 
Q 50.4375 16.546875 50.90625 13.421875 
Q 51.375 10.296875 52.21875 8.375 
Q 53.078125 6.453125 54.34375 5.609375 
Q 55.609375 4.78125 57.234375 4.78125 
Q 58.796875 4.78125 60.0625 5.609375 
Q 61.328125 6.453125 62.203125 8.375 
Q 63.09375 10.296875 63.578125 13.421875 
Q 64.0625 16.546875 64.0625 21.1875 
z
M 22.40625 47.609375 
Q 22.40625 52.390625 21.96875 55.5625 
Q 21.53125 58.734375 20.703125 60.640625 
Q 19.875 62.546875 18.625 63.328125 
Q 17.390625 64.109375 15.765625 64.109375 
Q 14.0625 64.109375 12.734375 63.296875 
Q 11.421875 62.5 10.546875 60.59375 
Q 9.671875 58.6875 9.234375 55.515625 
Q 8.796875 52.34375 8.796875 47.609375 
Q 8.796875 42.96875 9.25 39.796875 
Q 9.71875 36.625 10.5625 34.6875 
Q 11.421875 32.765625 12.71875 31.9375 
Q 14.015625 31.109375 15.671875 31.109375 
Q 17.1875 31.109375 18.421875 31.9375 
Q 19.671875 32.765625 20.546875 34.6875 
Q 21.4375 36.625 21.921875 39.796875 
Q 22.40625 42.96875 22.40625 47.609375 
z
" id="LiberationSansNarrow-37"/>
      <path d="M 27.546875 52.828125 
L 27.546875 46.4375 
L 12.890625 46.4375 
L 12.890625 0 
L 5.71875 0 
L 5.71875 52.828125 
z
" id="LiberationSansNarrow-1075"/>
     </defs>
     <g transform="translate(25.942813 225.493125)rotate(-90)scale(0.14 -0.14)">
      <use xlink:href="#LiberationSansNarrow-1079"/>
      <use x="37.548828" xlink:href="#LiberationSansNarrow-1072"/>
      <use x="83.154297" xlink:href="#LiberationSansNarrow-1074"/>
      <use x="126.708984" xlink:href="#LiberationSansNarrow-1099"/>
      <use x="187.695312" xlink:href="#LiberationSansNarrow-1096"/>
      <use x="253.466797" xlink:href="#LiberationSansNarrow-1077"/>
      <use x="299.072266" xlink:href="#LiberationSansNarrow-1085"/>
      <use x="344.335938" xlink:href="#LiberationSansNarrow-1080"/>
      <use x="390.185547" xlink:href="#LiberationSansNarrow-1077"/>
      <use x="435.791016" xlink:href="#LiberationSansNarrow-32"/>
      <use x="458.59375" xlink:href="#LiberationSansNarrow-1076"/>
      <use x="506.396484" xlink:href="#LiberationSansNarrow-1086"/>
      <use x="551.986328" xlink:href="#LiberationSansNarrow-1093"/>
      <use x="592.986328" xlink:href="#LiberationSansNarrow-1086"/>
      <use x="638.560547" xlink:href="#LiberationSansNarrow-1076"/>
      <use x="686.363281" xlink:href="#LiberationSansNarrow-1085"/>
      <use x="731.626953" xlink:href="#LiberationSansNarrow-1086"/>
      <use x="777.232422" xlink:href="#LiberationSansNarrow-1089"/>
      <use x="818.248047" xlink:href="#LiberationSansNarrow-1090"/>
      <use x="855.796875" xlink:href="#LiberationSansNarrow-1080"/>
      <use x="901.646484" xlink:href="#LiberationSansNarrow-32"/>
      <use x="924.449219" xlink:href="#LiberationSansNarrow-1084"/>
      <use x="980.845703" xlink:href="#LiberationSansNarrow-1086"/>
      <use x="1026.419922" xlink:href="#LiberationSansNarrow-1076"/>
      <use x="1074.222656" xlink:href="#LiberationSansNarrow-1077"/>
      <use x="1119.78125" xlink:href="#LiberationSansNarrow-1083"/>
      <use x="1167.583984" xlink:href="#LiberationSansNarrow-1100"/>
      <use x="1210.308594" xlink:href="#LiberationSansNarrow-1102"/>
      <use x="1271.783203" xlink:href="#LiberationSansNarrow-44"/>
      <use x="1294.585938" xlink:href="#LiberationSansNarrow-32"/>
      <use x="1317.388672" xlink:href="#LiberationSansNarrow-37"/>
      <use x="1390.289062" xlink:href="#LiberationSansNarrow-1075"/>
     </g>
    </g>
   </g>
   <g id="line2d_11">
    <path clip-path="url(#p55c6f32325)" d="M 75.913636 224.661818 
L 76.556256 222.662652 
L 76.877565 222.514262 
L 77.198875 222.072582 
L 77.841494 221.850997 
L 78.162804 220.890979 
L 78.805423 220.807373 
L 79.126732 220.773862 
L 79.769352 220.416348 
L 80.411971 217.029358 
L 80.73328 216.76287 
L 81.05459 216.733044 
L 81.3759 216.519431 
L 82.018519 215.590081 
L 82.339828 213.829753 
L 82.982448 213.179381 
L 83.303757 211.874687 
L 83.625067 211.686244 
L 83.946376 211.637771 
L 84.267686 209.352999 
L 84.588996 208.64572 
L 84.910305 207.484309 
L 85.552924 206.831882 
L 85.874234 206.716723 
L 86.195544 205.822245 
L 86.516853 205.374913 
L 86.838163 205.152107 
L 87.159472 205.099997 
L 87.480782 204.592983 
L 87.802092 203.833827 
L 88.123401 203.752329 
L 88.444711 203.196678 
L 88.76602 203.066453 
L 89.40864 202.285324 
L 89.729949 202.042322 
L 90.051259 201.973686 
L 90.372568 201.146482 
L 91.015188 201.085974 
L 91.657807 200.968111 
L 91.979116 200.898594 
L 92.943045 200.122814 
L 93.264355 200.1156 
L 93.585664 199.838873 
L 93.906974 199.23353 
L 94.228284 199.030775 
L 94.870903 198.303606 
L 95.192212 198.276068 
L 95.513522 197.46344 
L 95.834832 197.323047 
L 96.156141 196.726689 
L 96.477451 196.516472 
L 97.12007 196.402959 
L 97.762689 196.260295 
L 98.405308 196.144783 
L 98.726618 195.151318 
L 99.047928 195.034716 
L 99.369237 194.746128 
L 100.011856 194.585431 
L 100.333166 194.178529 
L 100.975785 193.716878 
L 101.618404 193.085663 
L 102.261024 192.55675 
L 102.903643 192.529083 
L 103.224952 192.126098 
L 103.546262 192.024497 
L 103.867572 191.694845 
L 104.510191 191.502837 
L 104.8315 191.205458 
L 105.47412 190.941155 
L 105.795429 190.706977 
L 106.438048 190.576067 
L 107.723287 189.66626 
L 108.044596 189.253482 
L 108.687216 189.178358 
L 109.008525 188.867324 
L 109.651144 188.838787 
L 109.972454 188.56996 
L 110.293764 188.452381 
L 110.615073 188.101375 
L 110.936383 187.970956 
L 111.257692 187.602547 
L 112.86424 187.456295 
L 113.18555 187.126072 
L 115.756027 186.26283 
L 116.077336 185.975037 
L 117.362575 185.7193 
L 118.326503 185.601211 
L 118.969123 185.337983 
L 119.290432 185.319555 
L 119.611742 184.883705 
L 120.254361 184.779374 
L 122.824838 183.997645 
L 125.074005 183.734543 
L 126.359243 183.636684 
L 127.965791 183.396529 
L 128.287101 183.262787 
L 128.92972 183.157565 
L 129.893649 182.971846 
L 130.857578 182.934012 
L 131.500197 182.763071 
L 132.142816 182.625414 
L 132.785435 182.460553 
L 133.428055 182.21174 
L 133.749364 181.789316 
L 135.034603 181.500072 
L 135.355912 181.281055 
L 135.677222 181.250634 
L 135.998531 180.961224 
L 136.319841 180.925142 
L 136.641151 180.739446 
L 137.28377 180.623618 
L 139.532937 179.991936 
L 141.139485 179.746605 
L 141.782104 179.595936 
L 142.424723 179.487899 
L 143.709962 179.351156 
L 144.352581 179.112023 
L 145.31651 179.050697 
L 146.280439 178.931645 
L 147.244367 178.695823 
L 148.529606 178.494105 
L 150.778773 178.223396 
L 152.706631 178.030768 
L 153.34925 177.569016 
L 155.598417 177.231187 
L 156.241036 177.187612 
L 156.562346 177.021022 
L 157.204965 176.981599 
L 157.526275 176.813727 
L 157.847584 176.808588 
L 158.490203 176.674454 
L 160.096751 176.398943 
L 160.739371 176.226499 
L 161.703299 176.133013 
L 162.345919 176.098084 
L 162.988538 175.941662 
L 164.273776 175.822167 
L 164.916395 175.656379 
L 166.201634 175.57134 
L 166.522943 175.412361 
L 167.808182 175.233892 
L 170.057349 174.77303 
L 171.663897 174.627257 
L 172.627826 174.394638 
L 174.234374 174.314023 
L 175.840922 174.052359 
L 176.483541 173.939027 
L 176.804851 173.917307 
L 177.44747 173.740417 
L 178.732708 173.603985 
L 179.375327 173.521374 
L 180.017947 173.444731 
L 182.267114 172.957179 
L 183.231043 172.925553 
L 183.873662 172.798075 
L 184.837591 172.625984 
L 186.122829 172.208961 
L 187.086758 172.145922 
L 187.729377 171.97922 
L 190.299854 171.784056 
L 190.942473 171.580565 
L 192.549021 171.326166 
L 193.19164 171.23677 
L 194.476879 171.20422 
L 196.083427 170.779706 
L 198.332594 170.636007 
L 198.975213 170.506416 
L 200.903071 170.32979 
L 202.188309 170.248947 
L 202.830928 170.1624 
L 205.401405 169.669429 
L 206.044024 169.624396 
L 206.686643 169.509802 
L 208.614501 169.201017 
L 213.755455 168.522974 
L 214.398074 168.374022 
L 216.004622 168.194676 
L 219.217718 167.9944 
L 221.466885 167.747119 
L 223.716052 167.645085 
L 225.965219 167.440868 
L 226.929148 167.242597 
L 229.178315 167.04411 
L 230.463554 166.890145 
L 235.283198 166.605825 
L 237.211055 166.501988 
L 237.853675 166.338989 
L 240.424151 166.212234 
L 242.994628 166.105604 
L 244.279866 166.014636 
L 244.922486 165.951435 
L 245.243795 165.744475 
L 246.207724 165.647186 
L 247.171653 165.428077 
L 247.814272 165.350837 
L 248.778201 165.287015 
L 250.063439 165.143574 
L 250.706058 165.048434 
L 254.240464 164.878851 
L 258.417489 164.565996 
L 259.060108 164.416079 
L 260.024037 164.300575 
L 261.630585 164.137007 
L 262.273204 164.016938 
L 264.522371 163.872547 
L 265.16499 163.730463 
L 267.735467 163.382499 
L 269.342015 163.286596 
L 270.627254 163.045852 
L 274.161659 162.703634 
L 277.053446 162.370742 
L 278.981303 162.260943 
L 281.55178 161.902606 
L 282.194399 161.895863 
L 282.837018 161.716384 
L 286.692734 161.401483 
L 287.014043 161.227427 
L 296.332022 160.184068 
L 298.581189 159.838909 
L 301.472975 159.596868 
L 302.758214 159.486271 
L 304.686071 159.371645 
L 305.007381 159.20326 
L 305.32869 159.189829 
L 305.65 159.035205 
L 306.292619 158.928365 
L 307.899167 158.672934 
L 312.718811 158.326311 
L 314.646669 158.157664 
L 315.289288 158.024406 
L 315.931907 157.912565 
L 319.145003 157.648272 
L 322.03679 157.479218 
L 323.322028 157.274841 
L 324.285957 157.155416 
L 325.249886 156.988491 
L 326.213814 156.8901 
L 326.856434 156.769424 
L 337.78096 155.648804 
L 341.315366 155.266245 
L 352.561202 154.140573 
L 355.452988 153.797377 
L 356.095607 153.718755 
L 357.059536 153.598433 
L 357.702155 153.473821 
L 362.521799 152.848662 
L 363.485728 152.736326 
L 367.341443 152.392618 
L 368.305372 152.254965 
L 368.626682 151.98073 
L 370.554539 151.653554 
L 371.839777 151.52378 
L 374.088945 151.054121 
L 378.908589 150.680835 
L 379.551208 150.535743 
L 380.515137 150.414632 
L 380.836446 150.207306 
L 381.800375 150.045959 
L 385.013471 149.644023 
L 385.9774 149.600234 
L 386.298709 149.381655 
L 387.262638 149.241459 
L 387.583948 148.941076 
L 388.226567 148.881911 
L 389.190496 148.530757 
L 390.475734 148.340097 
L 390.797044 148.274643 
L 391.439663 147.995305 
L 393.046211 147.613834 
L 393.68883 147.295649 
L 394.652759 147.252541 
L 394.974069 146.961642 
L 395.937997 146.808022 
L 396.580617 146.498223 
L 398.187165 146.085755 
L 398.508474 146.029365 
L 398.829784 145.790465 
L 399.472403 145.732757 
L 403.649428 144.262084 
L 404.613357 143.994288 
L 405.255976 143.808525 
L 408.790381 143.592002 
L 410.396929 143.207024 
L 412.003477 142.753514 
L 413.288716 142.544112 
L 413.931335 142.352254 
L 414.573954 142.314777 
L 414.895264 142.075005 
L 415.216573 142.051555 
L 415.859193 141.720283 
L 416.823121 141.624082 
L 418.10836 141.509934 
L 418.750979 141.194464 
L 419.393598 141.068228 
L 420.036217 140.886379 
L 422.606694 140.502583 
L 423.570623 140.375836 
L 424.213242 140.262524 
L 424.855861 140.208827 
L 425.498481 139.998989 
L 427.105029 139.932839 
L 427.747648 139.758548 
L 428.711577 139.665127 
L 429.675505 139.567995 
L 430.318125 139.465518 
L 430.960744 139.185361 
L 433.531221 138.963452 
L 434.17384 138.827836 
L 434.816459 138.714483 
L 442.849199 137.684621 
L 443.491818 137.596079 
L 445.740985 137.191567 
L 446.062295 136.96573 
L 446.704914 136.882231 
L 448.954081 136.564334 
L 450.23932 136.465816 
L 450.881939 136.255119 
L 451.845868 136.009124 
L 452.809797 135.894185 
L 457.95075 135.456479 
L 458.593369 135.262429 
L 458.914679 135.255916 
L 459.557298 135.103772 
L 460.842537 134.970402 
L 464.055633 134.589889 
L 469.196586 134.022053 
L 469.839205 133.802201 
L 471.445753 133.51814 
L 471.767063 133.307205 
L 472.730992 133.20314 
L 475.301469 132.958962 
L 475.622778 132.758108 
L 478.193255 132.356768 
L 479.478493 132.161899 
L 479.799803 131.934956 
L 480.763732 131.792876 
L 481.727661 131.345689 
L 482.691589 131.240938 
L 483.334209 130.877279 
L 483.655518 130.838396 
L 484.298137 130.410251 
L 484.940757 130.265908 
L 485.583376 130.069836 
L 486.547305 129.910611 
L 486.868614 129.633493 
L 490.08171 128.542623 
L 490.40302 128.245207 
L 491.045639 128.191998 
L 491.366949 127.965444 
L 492.009568 127.861425 
L 493.294806 127.685286 
L 493.616116 127.379628 
L 493.937425 126.808678 
L 494.580045 126.670666 
L 494.901354 125.972519 
L 495.222664 125.964507 
L 495.543973 125.705882 
L 495.865283 125.656838 
L 496.186592 124.846659 
L 496.507902 124.460427 
L 497.471831 124.375352 
L 497.79314 123.876626 
L 498.11445 123.86097 
L 498.757069 123.355976 
L 499.720998 122.952542 
L 501.006236 121.850263 
L 501.327546 121.333633 
L 501.970165 121.251484 
L 502.291475 121.133202 
L 502.612784 120.216656 
L 502.934094 120.028607 
L 503.255404 119.055485 
L 504.540642 118.562238 
L 504.861952 118.456839 
L 505.504571 117.646604 
L 505.82588 117.555119 
L 506.789809 115.790164 
L 507.432428 115.247246 
L 507.753738 115.090157 
L 508.075048 114.716469 
L 509.038976 114.355387 
L 509.360286 114.322003 
L 509.681596 114.015034 
L 510.645524 113.845855 
L 510.966834 112.039014 
L 511.288144 111.71256 
L 512.252072 111.498974 
L 512.573382 110.918503 
L 513.537311 110.804533 
L 514.50124 109.542099 
L 514.822549 109.41212 
L 515.143859 108.683757 
L 515.465168 108.372771 
L 515.786478 107.577646 
L 516.429097 107.057373 
L 518.035645 105.90672 
L 518.678264 105.851965 
L 518.999574 105.236916 
L 519.642193 105.116588 
L 519.963503 104.778785 
L 520.284812 104.624341 
L 520.606122 104.250434 
L 521.570051 103.847059 
L 522.53398 102.022351 
L 522.855289 101.871911 
L 523.497908 101.091409 
L 524.140528 99.644726 
L 524.461837 99.457389 
L 524.783147 99.114331 
L 525.425766 96.95911 
L 525.747076 96.877876 
L 526.389695 95.147155 
L 526.711004 95.101064 
L 527.032314 93.825303 
L 527.674933 90.254985 
L 527.996243 89.879149 
L 528.317552 88.172641 
L 528.638862 87.44962 
L 529.281481 78.102337 
L 529.602791 75.923466 
L 529.9241 72.326986 
L 530.24541 72.127068 
L 530.56672 69.146438 
L 530.888029 68.168386 
L 531.209339 67.926814 
L 531.530648 64.273631 
L 531.851958 63.515659 
L 532.173268 61.380944 
L 532.815887 58.54389 
L 533.137196 54.597578 
L 533.458506 52.232572 
L 533.779816 50.943412 
L 534.101125 47.579816 
L 534.422435 46.096279 
L 534.743744 38.992816 
L 535.065054 34.681931 
L 535.386364 27.498182 
L 535.386364 27.498182 
" style="fill:none;stroke:#1f77b4;stroke-linecap:square;stroke-width:1.5;"/>
   </g>
   <g id="line2d_12">
    <path clip-path="url(#p55c6f32325)" d="M 75.913636 205.004881 
L 76.264379 204.432748 
L 76.615121 202.807945 
L 76.965864 202.718942 
L 77.316607 202.459184 
L 77.667349 201.649129 
L 78.018092 200.344484 
L 78.368834 199.888117 
L 79.421062 199.66812 
L 79.771804 199.516208 
L 80.473289 198.908004 
L 81.174774 198.663471 
L 81.525517 198.240844 
L 82.577745 197.953582 
L 82.928487 197.796831 
L 83.629972 197.70544 
L 83.980715 197.307333 
L 84.331457 197.273228 
L 84.6822 196.923004 
L 85.383685 196.756358 
L 86.08517 196.299925 
L 87.137398 196.087611 
L 88.540368 195.590737 
L 89.241853 195.520057 
L 89.943338 194.946749 
L 90.644823 194.842363 
L 93.450763 194.274675 
L 95.555219 193.881942 
L 97.659674 193.136383 
L 99.413387 192.895222 
L 100.114872 192.860835 
L 100.465614 192.662796 
L 101.167099 192.507372 
L 101.517842 192.361199 
L 102.570069 192.275824 
L 103.622297 192.025484 
L 104.323782 191.941954 
L 105.025267 191.79994 
L 106.428237 191.489385 
L 107.480465 191.382204 
L 111.689375 190.712336 
L 115.898286 189.940724 
L 118.002741 189.832237 
L 119.405711 189.665938 
L 121.510167 189.433381 
L 121.860909 189.427432 
L 122.211652 189.250195 
L 122.562394 189.237434 
L 122.913137 188.839706 
L 123.263879 188.828016 
L 123.614622 188.590066 
L 128.525017 187.838183 
L 129.226502 187.713816 
L 129.927988 187.621872 
L 130.27873 187.330725 
L 133.786155 186.871438 
L 134.136898 186.609258 
L 135.890611 186.254735 
L 136.942838 185.84372 
L 139.398036 185.645571 
L 140.099521 185.25021 
L 141.151749 185.112126 
L 142.905461 184.822498 
L 143.606947 184.781389 
L 143.957689 184.553015 
L 145.711402 184.43465 
L 147.114372 183.945197 
L 147.815857 183.845699 
L 148.1666 183.558472 
L 149.56957 183.477132 
L 150.271055 183.38495 
L 151.674025 183.253846 
L 152.726253 182.631572 
L 153.076995 182.617988 
L 154.129223 182.280065 
L 156.233678 182.062864 
L 156.584421 181.863646 
L 158.338133 181.535802 
L 158.688876 181.242238 
L 159.039618 181.11283 
L 159.390361 180.854602 
L 160.091846 180.760842 
L 160.442588 180.334948 
L 161.144074 180.210869 
L 162.547044 179.931149 
L 163.950014 179.780177 
L 165.002241 179.685906 
L 165.352984 179.45749 
L 165.703727 179.457225 
L 166.405212 179.243601 
L 167.808182 179.068809 
L 168.509667 178.977011 
L 169.211152 178.904203 
L 169.912637 178.813323 
L 170.26338 178.515099 
L 172.017092 178.378879 
L 172.718577 178.24449 
L 174.823033 177.920044 
L 175.524518 177.704781 
L 177.27823 177.626552 
L 177.979715 177.227239 
L 180.434913 176.650654 
L 181.837883 176.554971 
L 182.188626 176.281886 
L 186.046794 175.937274 
L 186.397536 175.79392 
L 186.748279 175.783795 
L 187.099022 175.61715 
L 187.449764 175.583744 
L 187.800507 175.293958 
L 190.606447 175.152441 
L 193.061645 174.909669 
L 193.412387 174.678974 
L 194.113872 174.47874 
L 194.464615 174.274725 
L 196.919813 173.981378 
L 197.270555 173.789725 
L 197.97204 173.714957 
L 198.322783 173.467963 
L 199.37501 173.261598 
L 200.076495 173.056125 
L 202.180951 172.815908 
L 202.882436 172.693339 
L 203.583921 172.641067 
L 203.934663 172.452555 
L 205.688376 172.238363 
L 208.845059 171.739105 
L 209.546544 171.65919 
L 210.949514 171.111246 
L 214.106197 170.681663 
L 214.45694 170.543683 
L 214.807682 170.537883 
L 215.158425 170.394867 
L 216.210652 170.272115 
L 217.26288 170.008803 
L 217.964365 169.827937 
L 218.315108 169.824982 
L 218.66585 169.581889 
L 220.06882 169.459973 
L 225.329958 168.737106 
L 226.732929 168.434341 
L 230.941839 168.024138 
L 232.695552 167.562047 
L 233.046294 167.371527 
L 234.449264 167.251711 
L 235.852235 166.918634 
L 242.516343 166.315439 
L 243.217828 166.123099 
L 244.620798 165.920054 
L 244.971541 165.74075 
L 248.478966 165.313591 
L 248.829709 165.040678 
L 249.531194 164.892292 
L 250.232679 164.758945 
L 250.934164 164.661074 
L 251.635649 164.478085 
L 252.687876 164.306085 
L 255.493817 164.142221 
L 256.195302 164.028375 
L 274.083171 162.61998 
L 274.784656 162.505046 
L 278.642824 162.291607 
L 279.34431 162.192345 
L 286.008418 161.522139 
L 287.411388 161.344307 
L 289.866586 161.231605 
L 290.568071 161.12282 
L 292.321783 160.919675 
L 293.023269 160.828709 
L 305.299257 160.007589 
L 306.702228 159.881378 
L 307.05297 159.711403 
L 309.85891 159.479259 
L 311.963366 159.154246 
L 312.664851 159.037794 
L 314.769306 158.781238 
L 315.470791 158.689207 
L 316.523019 158.57659 
L 316.873761 158.531597 
L 317.224504 158.32481 
L 318.627474 158.18544 
L 319.679702 158.052428 
L 323.187127 157.703803 
L 324.239355 157.395699 
L 327.396037 156.938842 
L 328.097523 156.819058 
L 328.799008 156.779028 
L 329.500493 156.577258 
L 330.903463 156.457871 
L 331.254205 156.291616 
L 334.761631 155.943849 
L 337.216829 155.362396 
L 343.530194 154.770577 
L 343.880937 154.504478 
L 344.933164 154.394966 
L 346.336135 154.322949 
L 347.739105 154.051206 
L 349.142075 153.933412 
L 349.492817 153.717646 
L 350.895788 153.435113 
L 351.24653 153.185987 
L 352.298758 153.0886 
L 353.000243 152.94699 
L 355.806183 152.706829 
L 356.156926 152.551782 
L 358.612124 152.378772 
L 359.664351 152.236948 
L 361.067321 152.044986 
L 361.418064 151.902336 
L 363.171777 151.786598 
L 373.694053 150.834282 
L 374.74628 150.477206 
L 376.850736 150.327283 
L 384.216329 149.618535 
L 385.268557 149.439635 
L 387.022269 149.313279 
L 388.425239 149.177497 
L 395.089348 148.498205 
L 395.790833 148.086627 
L 401.402713 147.35061 
L 401.753456 147.091223 
L 402.805684 147.016103 
L 403.857911 146.466859 
L 405.962366 146.313165 
L 408.066822 146.088707 
L 410.522019 145.808994 
L 411.574247 145.64336 
L 412.275732 145.533815 
L 412.977217 145.341843 
L 414.029445 145.194255 
L 414.380187 144.934066 
L 416.1339 144.755943 
L 417.887613 144.698661 
L 418.238355 144.566893 
L 418.93984 144.508223 
L 419.992068 144.32743 
L 420.342811 144.276609 
L 420.693553 144.081974 
L 422.447266 143.873885 
L 424.902464 143.595483 
L 426.656176 143.355767 
L 428.059146 143.250626 
L 428.760632 143.191732 
L 429.111374 142.970416 
L 430.163602 142.802518 
L 430.514344 142.59709 
L 431.566572 142.453846 
L 431.917314 142.251366 
L 433.320285 142.14881 
L 434.02177 141.981611 
L 436.126225 141.862157 
L 436.476967 141.672535 
L 437.879938 141.562263 
L 438.932165 141.406764 
L 444.894788 140.151782 
L 445.596273 140.032691 
L 446.999244 139.973948 
L 448.051471 139.957851 
L 448.402214 139.790641 
L 449.805184 139.677199 
L 451.208154 139.442543 
L 452.611124 139.306604 
L 453.663352 139.190246 
L 454.014094 139.03186 
L 456.469292 138.855736 
L 457.170777 138.658549 
L 457.872262 138.565545 
L 458.223005 138.351658 
L 459.275232 138.006166 
L 461.73043 137.407701 
L 462.081173 137.393089 
L 462.782658 136.891933 
L 463.1334 136.875543 
L 463.484143 136.615425 
L 464.185628 136.48628 
L 466.290083 136.299669 
L 466.991568 136.143397 
L 470.148251 135.791338 
L 470.849736 135.670896 
L 482.073498 134.18694 
L 484.177953 133.338763 
L 485.580923 133.201876 
L 490.491319 131.940972 
L 491.543546 131.837204 
L 494.349486 130.797533 
L 495.050972 130.647495 
L 495.401714 130.59465 
L 495.752457 130.388167 
L 496.103199 129.925408 
L 496.804684 129.902053 
L 497.155427 129.643648 
L 497.506169 129.624341 
L 498.207654 129.416115 
L 499.961367 129.148544 
L 501.013595 128.811231 
L 502.416565 128.067012 
L 502.767307 128.043973 
L 503.11805 127.740135 
L 503.468793 127.727639 
L 505.222505 126.96419 
L 505.92399 126.630791 
L 506.625475 126.504292 
L 506.976218 125.514339 
L 507.32696 125.453357 
L 508.028446 125.060727 
L 508.729931 124.917688 
L 509.080673 124.512853 
L 509.431416 124.473589 
L 509.782158 124.10516 
L 510.132901 123.972425 
L 510.483643 123.971079 
L 510.834386 123.641056 
L 511.185128 123.519226 
L 511.535871 123.130934 
L 511.886613 123.097295 
L 512.237356 122.420524 
L 512.588099 122.008163 
L 512.938841 121.134193 
L 513.289584 120.617607 
L 513.640326 119.468131 
L 513.991069 118.806119 
L 514.341811 118.67623 
L 514.692554 117.707901 
L 515.744781 117.237974 
L 516.095524 113.659807 
L 516.797009 111.448365 
L 517.147752 107.521829 
L 517.498494 107.252297 
L 517.849237 105.766074 
L 518.199979 101.167419 
L 518.550722 101.077139 
L 518.901464 99.6735 
L 519.602949 95.40323 
L 519.953692 94.482134 
L 520.655177 94.158605 
L 521.00592 93.556363 
L 521.356662 93.257766 
L 521.707405 92.12169 
L 523.110375 91.340853 
L 523.81186 90.724268 
L 524.864087 90.383063 
L 525.21483 88.729554 
L 525.916315 88.11601 
L 526.267058 87.445933 
L 526.968543 86.803228 
L 527.319285 86.662027 
L 528.02077 85.674485 
L 528.371513 85.485786 
L 528.722255 84.505687 
L 529.42374 83.703819 
L 529.774483 83.075542 
L 530.125226 81.609632 
L 530.475968 81.347422 
L 530.826711 79.091396 
L 531.177453 78.648667 
L 531.528196 78.504799 
L 531.878938 78.090607 
L 532.229681 76.831941 
L 532.931166 76.496165 
L 533.281908 74.945963 
L 533.632651 74.817082 
L 533.983393 74.177796 
L 534.334136 69.852965 
L 535.035621 65.755247 
L 535.386364 59.905354 
L 535.386364 59.905354 
" style="fill:none;stroke:#ff7f0e;stroke-linecap:square;stroke-width:1.5;"/>
   </g>
   <g id="line2d_13">
    <path clip-path="url(#p55c6f32325)" d="M 75.913636 214.656275 
L 76.249018 214.564246 
L 76.584399 213.04209 
L 78.93207 211.220586 
L 79.267452 210.668465 
L 79.602833 210.479516 
L 79.938215 209.63843 
L 80.94436 209.271584 
L 82.285886 208.838198 
L 82.621267 208.384459 
L 83.292031 208.197139 
L 83.627412 207.361296 
L 83.962794 206.097429 
L 84.298175 205.944635 
L 84.633557 204.126309 
L 84.968938 204.020556 
L 85.30432 200.884758 
L 85.975083 199.415964 
L 86.310464 198.659087 
L 86.981228 198.394795 
L 87.316609 198.073143 
L 87.987372 195.053022 
L 88.322754 194.336868 
L 88.658135 193.180682 
L 88.993517 192.899424 
L 89.328898 189.051797 
L 89.66428 188.791678 
L 89.999662 188.742804 
L 90.335043 188.176395 
L 90.670425 187.290037 
L 91.005806 187.102846 
L 91.676569 186.051476 
L 92.011951 185.073873 
L 92.347332 183.093851 
L 93.018096 182.583219 
L 94.02424 182.185105 
L 95.030385 182.065865 
L 97.713437 181.75127 
L 98.3842 181.618983 
L 98.719582 181.597939 
L 99.390345 181.268494 
L 99.725727 180.956431 
L 101.402634 180.614704 
L 102.408779 180.503731 
L 103.079542 180.413512 
L 104.421068 180.269119 
L 105.762595 180.053018 
L 106.768739 179.990078 
L 107.774884 179.699277 
L 108.781029 179.571006 
L 109.787173 179.478118 
L 110.122555 179.259692 
L 110.457936 179.223503 
L 110.793318 179.063933 
L 111.128699 179.060171 
L 111.464081 178.909565 
L 112.134844 178.806175 
L 112.805607 178.565405 
L 113.811752 178.489753 
L 114.817896 178.337858 
L 116.159423 178.144241 
L 117.165567 178.041849 
L 117.500949 177.864177 
L 117.83633 177.838368 
L 118.171712 177.595074 
L 118.507094 177.559664 
L 119.177857 177.245319 
L 119.84862 177.126289 
L 121.525528 176.961839 
L 122.196291 176.839552 
L 123.537817 176.702541 
L 125.214725 176.468649 
L 126.556251 176.438105 
L 127.562395 176.216659 
L 129.574685 176.093352 
L 136.617697 174.788542 
L 139.971513 174.469665 
L 142.654565 174.006071 
L 143.66071 173.879169 
L 145.002236 173.79464 
L 147.349907 173.648405 
L 148.356052 173.487883 
L 150.368341 173.276119 
L 150.703723 173.102385 
L 165.125129 171.480263 
L 166.466656 171.412891 
L 167.137419 171.285068 
L 168.478945 171.190274 
L 177.534247 170.600698 
L 178.875773 170.449215 
L 180.888062 170.239738 
L 184.241878 169.877275 
L 185.918786 169.720665 
L 187.595693 169.600726 
L 187.931075 169.437873 
L 188.93722 169.380952 
L 189.272601 169.181064 
L 189.943364 169.150577 
L 190.278746 169.023442 
L 191.284891 168.918214 
L 196.650995 168.551292 
L 196.986377 168.369579 
L 198.327903 168.261884 
L 199.669429 168.159451 
L 200.004811 167.970137 
L 204.02939 167.862109 
L 209.060113 167.217004 
L 209.395494 167.017224 
L 210.401639 166.948361 
L 211.072402 166.820031 
L 216.773889 165.949776 
L 218.115415 165.773272 
L 218.450796 165.757801 
L 218.786178 165.539509 
L 219.121559 165.531122 
L 220.127704 165.099691 
L 220.463086 165.087527 
L 220.798467 164.958158 
L 223.146138 164.82049 
L 226.835335 164.369667 
L 227.506098 164.258211 
L 228.176861 164.213117 
L 229.183006 163.970618 
L 231.195295 163.903951 
L 231.530677 163.659435 
L 233.207585 163.428386 
L 235.219874 163.227576 
L 240.92136 162.779911 
L 241.592123 162.508893 
L 243.269031 162.400441 
L 244.610557 162.25715 
L 246.622847 162.133028 
L 256.684293 160.886725 
L 257.355056 160.574316 
L 259.702727 160.337746 
L 260.708872 160.211656 
L 262.050398 160.04981 
L 263.391924 159.88891 
L 271.1057 159.021968 
L 272.447226 158.922926 
L 281.83791 157.777897 
L 282.173291 157.569961 
L 283.514818 157.409486 
L 284.520962 157.252901 
L 285.191725 157.159575 
L 287.539396 156.813943 
L 288.210159 156.609534 
L 289.216304 156.504163 
L 290.893212 156.204348 
L 292.234738 156.100374 
L 294.91779 155.822315 
L 295.253172 155.588252 
L 298.271606 154.912986 
L 301.29004 154.462419 
L 302.966948 154.344935 
L 303.973092 154.203127 
L 307.662289 153.674033 
L 309.339197 153.563899 
L 311.686868 153.293733 
L 312.02225 153.050546 
L 312.693013 152.982793 
L 313.363776 152.927159 
L 313.699157 152.796552 
L 315.040683 152.641118 
L 315.376065 152.489578 
L 316.046828 152.479848 
L 316.717591 152.335861 
L 319.400644 152.007564 
L 319.736025 151.843995 
L 321.077551 151.683138 
L 322.083696 151.569333 
L 330.803616 150.393883 
L 332.145143 149.93966 
L 334.828195 149.778356 
L 335.163577 149.616601 
L 338.182011 149.335535 
L 338.517392 149.144851 
L 340.1943 148.975765 
L 343.212734 148.531323 
L 343.548115 148.325524 
L 357.298759 147.166267 
L 357.634141 147.00531 
L 359.311048 146.906399 
L 361.658719 146.433078 
L 362.329482 146.380639 
L 362.664864 146.192882 
L 364.677153 146.034324 
L 365.683298 145.88446 
L 367.360206 145.791489 
L 372.055547 145.087368 
L 372.390929 144.800347 
L 374.7386 144.494964 
L 375.073981 144.239468 
L 377.757034 143.966677 
L 378.092415 143.67701 
L 381.446231 143.221817 
L 381.781612 143.086482 
L 382.452376 142.976448 
L 383.793902 142.785779 
L 384.129283 142.538211 
L 386.476954 142.144891 
L 386.812336 141.922394 
L 388.153862 141.70165 
L 389.495388 141.382526 
L 389.83077 141.345599 
L 390.166151 140.99271 
L 392.849204 140.692379 
L 393.184585 140.506427 
L 396.538401 140.166674 
L 397.209164 140.014634 
L 399.221453 139.658727 
L 399.892216 139.549711 
L 402.239887 139.217259 
L 402.91065 139.058319 
L 403.916795 138.993028 
L 404.587558 138.778049 
L 407.27061 138.469436 
L 412.972097 137.942517 
L 413.978242 137.808955 
L 415.655149 137.766997 
L 416.325912 137.613587 
L 416.661294 137.609071 
L 417.332057 137.457048 
L 422.027399 137.05771 
L 423.033543 136.91248 
L 423.704307 136.796241 
L 426.387359 136.536021 
L 427.393504 136.381363 
L 428.399648 136.193493 
L 429.070411 136.028269 
L 430.076556 135.935511 
L 431.418082 135.896442 
L 432.088845 135.6703 
L 433.430372 135.568599 
L 437.790332 135.18209 
L 439.802621 135.050864 
L 440.808766 134.916916 
L 441.479529 134.749987 
L 443.156437 134.556881 
L 444.497963 134.287628 
L 445.168726 134.167207 
L 446.174871 134.097763 
L 446.510252 133.808907 
L 448.522541 133.553144 
L 449.528686 133.475714 
L 451.205594 133.229934 
L 451.876357 133.119473 
L 452.54712 133.07645 
L 453.888646 132.765867 
L 458.248607 132.39314 
L 458.91937 132.174257 
L 461.26704 131.942962 
L 461.602422 131.867088 
L 461.937804 131.650347 
L 463.950093 131.528319 
L 464.956238 131.400263 
L 465.627001 131.191779 
L 466.968527 131.01096 
L 467.303908 130.773037 
L 468.310053 130.653537 
L 468.980816 130.42782 
L 472.334632 129.873149 
L 473.340776 129.734475 
L 474.346921 129.606082 
L 478.036118 129.222145 
L 480.048407 129.048311 
L 480.719171 128.878058 
L 485.414512 128.130511 
L 485.749894 127.91061 
L 489.103709 127.515869 
L 490.780617 127.092974 
L 492.122143 126.850488 
L 493.46367 126.634659 
L 493.799051 126.246284 
L 494.469814 126.152585 
L 495.140577 125.996724 
L 496.146722 125.697237 
L 496.482104 125.684444 
L 497.152867 125.410015 
L 497.488248 125.111708 
L 499.165156 124.588411 
L 499.500537 124.081184 
L 500.506682 123.750178 
L 500.842064 123.311759 
L 501.177445 122.629416 
L 501.512827 122.293552 
L 502.18359 122.055954 
L 502.518971 121.268251 
L 503.860498 119.924331 
L 504.531261 119.883764 
L 505.537405 119.288011 
L 505.872787 118.569215 
L 506.54355 118.367725 
L 507.549695 117.53692 
L 508.220458 117.396162 
L 508.891221 117.277225 
L 509.561984 116.848796 
L 509.897366 116.73724 
L 510.568129 116.052729 
L 510.90351 116.040832 
L 511.238892 115.885877 
L 511.574273 115.157631 
L 512.245036 114.695196 
L 512.580418 114.627352 
L 512.9158 114.3022 
L 513.251181 114.269815 
L 513.586563 113.94925 
L 514.257326 113.710208 
L 514.592707 113.411716 
L 514.928089 113.379034 
L 515.598852 112.996954 
L 515.934234 112.726947 
L 516.604997 112.48048 
L 517.27576 112.271245 
L 517.611141 112.195582 
L 517.946523 111.222645 
L 518.952668 110.997263 
L 519.288049 110.512503 
L 519.623431 110.28839 
L 520.294194 109.320543 
L 520.629575 109.274358 
L 521.63572 108.491821 
L 521.971102 108.433082 
L 522.306483 108.049586 
L 523.312628 107.831904 
L 524.989536 106.456827 
L 525.660299 105.325764 
L 525.99568 104.955155 
L 526.331062 103.65216 
L 526.666443 103.605443 
L 527.001825 103.052431 
L 527.337206 102.783979 
L 527.672588 102.73413 
L 528.007969 102.417702 
L 528.343351 101.729855 
L 528.678733 101.652478 
L 529.014114 100.390823 
L 529.349496 100.108339 
L 529.684877 99.209468 
L 530.020259 99.164754 
L 530.691022 98.5997 
L 531.026403 98.486978 
L 531.361785 98.232145 
L 531.697167 98.207902 
L 532.032548 97.195891 
L 532.703311 97.145123 
L 533.038693 96.896645 
L 534.380219 96.513415 
L 534.715601 96.122555 
L 535.386364 95.090724 
L 535.386364 95.090724 
" style="fill:none;stroke:#2ca02c;stroke-linecap:square;stroke-width:1.5;"/>
   </g>
   <g id="legend_1">
    <g id="patch_3">
     <path d="M 62.74 88.991875 
L 138.795 88.991875 
Q 141.595 88.991875 141.595 86.191875 
L 141.595 27.44 
Q 141.595 24.64 138.795 24.64 
L 62.74 24.64 
Q 59.94 24.64 59.94 27.44 
L 59.94 86.191875 
Q 59.94 88.991875 62.74 88.991875 
z
" style="fill:#ffffff;opacity:0.8;stroke:#cccccc;stroke-linejoin:miter;"/>
    </g>
    <g id="line2d_14">
     <path d="M 65.54 35.485625 
L 93.54 35.485625 
" style="fill:none;stroke:#1f77b4;stroke-linecap:square;stroke-width:1.5;"/>
    </g>
    <g id="line2d_15"/>
    <g id="text_13">
     <!-- P/E -->
     <defs>
      <path d="M 50.34375 48.09375 
Q 50.34375 43.609375 49.125 39.71875 
Q 47.90625 35.84375 45.484375 32.984375 
Q 43.0625 30.125 39.421875 28.46875 
Q 35.796875 26.8125 30.953125 26.8125 
L 14.359375 26.8125 
L 14.359375 0 
L 6.734375 0 
L 6.734375 68.796875 
L 30.46875 68.796875 
Q 35.453125 68.796875 39.1875 67.3125 
Q 42.921875 65.828125 45.40625 63.109375 
Q 47.90625 60.40625 49.125 56.5625 
Q 50.34375 52.734375 50.34375 48.09375 
z
M 42.671875 48 
Q 42.671875 54.546875 39.40625 57.9375 
Q 36.140625 61.328125 29.546875 61.328125 
L 14.359375 61.328125 
L 14.359375 34.1875 
L 29.890625 34.1875 
Q 36.46875 34.1875 39.5625 37.75 
Q 42.671875 41.3125 42.671875 48 
z
" id="LiberationSansNarrow-80"/>
      <path d="M 0 -0.984375 
L 16.453125 72.46875 
L 22.796875 72.46875 
L 6.5 -0.984375 
z
" id="LiberationSansNarrow-47"/>
      <path d="M 6.734375 0 
L 6.734375 68.796875 
L 49.515625 68.796875 
L 49.515625 61.1875 
L 14.359375 61.1875 
L 14.359375 39.109375 
L 47.125 39.109375 
L 47.125 31.59375 
L 14.359375 31.59375 
L 14.359375 7.625 
L 51.171875 7.625 
L 51.171875 0 
z
" id="LiberationSansNarrow-69"/>
     </defs>
     <g transform="translate(104.74 40.385625)scale(0.14 -0.14)">
      <use xlink:href="#LiberationSansNarrow-80"/>
      <use x="54.6875" xlink:href="#LiberationSansNarrow-47"/>
      <use x="77.490234" xlink:href="#LiberationSansNarrow-69"/>
     </g>
    </g>
    <g id="line2d_16">
     <path d="M 65.54 55.53625 
L 93.54 55.53625 
" style="fill:none;stroke:#ff7f0e;stroke-linecap:square;stroke-width:1.5;"/>
    </g>
    <g id="line2d_17"/>
    <g id="text_14">
     <!-- CAPE -->
     <defs>
      <path d="M 31.6875 62.203125 
Q 26.90625 62.203125 23.1875 60.25 
Q 19.484375 58.296875 16.984375 54.6875 
Q 14.5 51.078125 13.203125 46 
Q 11.921875 40.921875 11.921875 34.71875 
Q 11.921875 28.515625 13.3125 23.359375 
Q 14.703125 18.21875 17.265625 14.5 
Q 19.828125 10.796875 23.578125 8.734375 
Q 27.34375 6.6875 32.03125 6.6875 
Q 35.296875 6.6875 37.984375 7.734375 
Q 40.671875 8.796875 42.859375 10.6875 
Q 45.0625 12.59375 46.765625 15.203125 
Q 48.484375 17.828125 49.8125 21 
L 56.0625 17.1875 
Q 54.546875 13.328125 52.296875 10 
Q 50.046875 6.6875 47.015625 4.25 
Q 44 1.8125 40.1875 0.40625 
Q 36.375 -0.984375 31.640625 -0.984375 
Q 24.8125 -0.984375 19.65625 1.671875 
Q 14.5 4.34375 11.0625 9.109375 
Q 7.625 13.875 5.890625 20.40625 
Q 4.15625 26.953125 4.15625 34.71875 
Q 4.15625 42.78125 5.984375 49.265625 
Q 7.8125 55.765625 11.296875 60.328125 
Q 14.796875 64.890625 19.921875 67.359375 
Q 25.046875 69.828125 31.59375 69.828125 
Q 40.578125 69.828125 46.625 65.53125 
Q 52.6875 61.234375 55.515625 52.78125 
L 48.296875 49.859375 
Q 47.515625 52.296875 46.140625 54.515625 
Q 44.78125 56.734375 42.71875 58.4375 
Q 40.671875 60.15625 37.9375 61.171875 
Q 35.203125 62.203125 31.6875 62.203125 
z
" id="LiberationSansNarrow-67"/>
      <path d="M 46.734375 0 
L 40.28125 20.125 
L 14.546875 20.125 
L 8.109375 0 
L 0.140625 0 
L 23.1875 68.796875 
L 31.890625 68.796875 
L 54.546875 0 
z
M 30.765625 50.09375 
Q 30.125 52.046875 29.546875 54.046875 
L 28.515625 57.71875 
L 27.734375 60.453125 
Q 27.4375 61.53125 27.4375 61.765625 
Q 27.34375 61.53125 27.078125 60.40625 
Q 26.8125 59.28125 26.375 57.625 
L 25.296875 53.953125 
L 24.125 50 
L 16.890625 27.390625 
L 37.984375 27.390625 
z
" id="LiberationSansNarrow-65"/>
     </defs>
     <g transform="translate(104.74 60.43625)scale(0.14 -0.14)">
      <use xlink:href="#LiberationSansNarrow-67"/>
      <use x="59.179688" xlink:href="#LiberationSansNarrow-65"/>
      <use x="113.867188" xlink:href="#LiberationSansNarrow-80"/>
      <use x="168.554688" xlink:href="#LiberationSansNarrow-69"/>
     </g>
    </g>
    <g id="line2d_18">
     <path d="M 65.54 75.586875 
L 93.54 75.586875 
" style="fill:none;stroke:#2ca02c;stroke-linecap:square;stroke-width:1.5;"/>
    </g>
    <g id="line2d_19"/>
    <g id="text_15">
     <!-- T -->
     <defs>
      <path d="M 28.8125 61.1875 
L 28.8125 0 
L 21.234375 0 
L 21.234375 61.1875 
L 1.859375 61.1875 
L 1.859375 68.796875 
L 48.1875 68.796875 
L 48.1875 61.1875 
z
" id="LiberationSansNarrow-84"/>
     </defs>
     <g transform="translate(104.74 80.486875)scale(0.14 -0.14)">
      <use xlink:href="#LiberationSansNarrow-84"/>
     </g>
    </g>
   </g>
  </g>
 </g>
 <defs>
  <clipPath id="p55c6f32325">
   <rect height="216.88" width="505.42" x="52.94" y="17.64"/>
  </clipPath>
 </defs>
</svg>
