<?xml version="1.0" encoding="utf-8" standalone="no"?>
<!DOCTYPE svg PUBLIC "-//W3C//DTD SVG 1.1//EN"
  "http://www.w3.org/Graphics/SVG/1.1/DTD/svg11.dtd">
<!-- Created with matplotlib (https://matplotlib.org/) -->
<svg height="288pt" version="1.1" viewBox="0 0 576 288" width="576pt" xmlns="http://www.w3.org/2000/svg" xmlns:xlink="http://www.w3.org/1999/xlink">
 <defs>
  <style type="text/css">
*{stroke-linecap:butt;stroke-linejoin:round;}
  </style>
 </defs>
 <g id="figure_1">
  <g id="patch_1">
   <path d="M 0 288 
L 576 288 
L 576 0 
L 0 0 
z
" style="fill:#ffffff;"/>
  </g>
  <g id="axes_1">
   <g id="patch_2">
    <path d="M 44.44 252.2 
L 558.36 252.2 
L 558.36 17.64 
L 44.44 17.64 
z
" style="fill:#ffffff;"/>
   </g>
   <g id="matplotlib.axis_1">
    <g id="xtick_1">
     <g id="line2d_1">
      <path clip-path="url(#p35b3313240)" d="M 99.101028 252.2 
L 99.101028 17.64 
" style="fill:none;stroke:#b0b0b0;stroke-dasharray:1.48,0.64;stroke-dashoffset:0;stroke-width:0.4;"/>
     </g>
     <g id="text_1">
      <!-- 2004 -->
      <defs>
       <path d="M 4.109375 0 
L 4.109375 6.203125 
Q 6.15625 11.921875 9.109375 16.28125 
Q 12.0625 20.65625 15.3125 24.1875 
Q 18.5625 27.734375 21.734375 30.765625 
Q 24.90625 33.796875 27.46875 36.8125 
Q 30.03125 39.84375 31.609375 43.15625 
Q 33.203125 46.484375 33.203125 50.6875 
Q 33.203125 53.609375 32.46875 55.828125 
Q 31.734375 58.0625 30.390625 59.5625 
Q 29.046875 61.078125 27.140625 61.828125 
Q 25.25 62.59375 22.90625 62.59375 
Q 20.75 62.59375 18.84375 61.859375 
Q 16.9375 61.140625 15.453125 59.671875 
Q 13.96875 58.203125 13.03125 56.03125 
Q 12.109375 53.859375 11.8125 50.984375 
L 4.4375 51.8125 
Q 4.78125 55.515625 6.125 58.78125 
Q 7.46875 62.0625 9.78125 64.53125 
Q 12.109375 67 15.359375 68.40625 
Q 18.609375 69.828125 22.90625 69.828125 
Q 27.09375 69.828125 30.390625 68.609375 
Q 33.6875 67.390625 35.9375 64.984375 
Q 38.1875 62.59375 39.40625 59.078125 
Q 40.625 55.5625 40.625 50.984375 
Q 40.625 47.515625 39.59375 44.390625 
Q 38.578125 41.265625 36.859375 38.421875 
Q 35.15625 35.59375 32.90625 32.953125 
Q 30.671875 30.328125 28.21875 27.828125 
L 23.296875 22.859375 
Q 20.796875 20.359375 18.625 17.859375 
Q 16.453125 15.375 14.734375 12.8125 
Q 13.03125 10.25 12.0625 7.46875 
L 41.5 7.46875 
L 41.5 0 
z
" id="LiberationSansNarrow-50"/>
       <path d="M 42.390625 34.421875 
Q 42.390625 24.515625 40.84375 17.75 
Q 39.3125 10.984375 36.640625 6.8125 
Q 33.984375 2.640625 30.390625 0.828125 
Q 26.8125 -0.984375 22.703125 -0.984375 
Q 18.609375 -0.984375 15.03125 0.828125 
Q 11.46875 2.640625 8.828125 6.78125 
Q 6.203125 10.9375 4.703125 17.703125 
Q 3.21875 24.46875 3.21875 34.421875 
Q 3.21875 44.828125 4.703125 51.640625 
Q 6.203125 58.453125 8.828125 62.5 
Q 11.46875 66.546875 15.078125 68.1875 
Q 18.703125 69.828125 22.953125 69.828125 
Q 27 69.828125 30.53125 68.1875 
Q 34.078125 66.546875 36.71875 62.5 
Q 39.359375 58.453125 40.875 51.640625 
Q 42.390625 44.828125 42.390625 34.421875 
z
M 35.0625 34.421875 
Q 35.0625 42.625 34.28125 48.0625 
Q 33.5 53.515625 31.9375 56.765625 
Q 30.375 60.015625 28.09375 61.359375 
Q 25.828125 62.703125 22.953125 62.703125 
Q 19.921875 62.703125 17.578125 61.328125 
Q 15.234375 59.96875 13.671875 56.71875 
Q 12.109375 53.46875 11.296875 48.015625 
Q 10.5 42.578125 10.5 34.421875 
Q 10.5 26.515625 11.296875 21.09375 
Q 12.109375 15.671875 13.6875 12.375 
Q 15.28125 9.078125 17.578125 7.640625 
Q 19.875 6.203125 22.796875 6.203125 
Q 25.640625 6.203125 27.90625 7.640625 
Q 30.171875 9.078125 31.75 12.375 
Q 33.34375 15.671875 34.203125 21.09375 
Q 35.0625 26.515625 35.0625 34.421875 
z
" id="LiberationSansNarrow-48"/>
       <path d="M 35.25 15.578125 
L 35.25 0 
L 28.46875 0 
L 28.46875 15.578125 
L 1.90625 15.578125 
L 1.90625 22.40625 
L 27.6875 68.796875 
L 35.25 68.796875 
L 35.25 22.515625 
L 43.21875 22.515625 
L 43.21875 15.578125 
z
M 28.46875 58.890625 
Q 28.375 58.640625 28.03125 57.90625 
L 27.34375 56.34375 
L 26.5625 54.59375 
Q 26.125 53.65625 25.78125 53.078125 
L 11.328125 27.09375 
Q 11.140625 26.703125 10.75 26.078125 
L 9.96875 24.8125 
L 9.1875 23.484375 
Q 8.796875 22.859375 8.546875 22.515625 
L 28.46875 22.515625 
z
" id="LiberationSansNarrow-52"/>
      </defs>
      <g transform="translate(86.330403 269.345625)scale(0.14 -0.14)">
       <use xlink:href="#LiberationSansNarrow-50"/>
       <use x="45.605469" xlink:href="#LiberationSansNarrow-48"/>
       <use x="91.210938" xlink:href="#LiberationSansNarrow-48"/>
       <use x="136.816406" xlink:href="#LiberationSansNarrow-52"/>
      </g>
     </g>
    </g>
    <g id="xtick_2">
     <g id="line2d_2">
      <path clip-path="url(#p35b3313240)" d="M 161.78884 252.2 
L 161.78884 17.64 
" style="fill:none;stroke:#b0b0b0;stroke-dasharray:1.48,0.64;stroke-dashoffset:0;stroke-width:0.4;"/>
     </g>
     <g id="text_2">
      <!-- 2006 -->
      <defs>
       <path d="M 42 22.515625 
Q 42 17.328125 40.828125 13 
Q 39.65625 8.6875 37.359375 5.578125 
Q 35.0625 2.484375 31.640625 0.75 
Q 28.21875 -0.984375 23.78125 -0.984375 
Q 18.84375 -0.984375 15.15625 1.3125 
Q 11.46875 3.609375 9.03125 7.921875 
Q 6.59375 12.25 5.375 18.53125 
Q 4.15625 24.8125 4.15625 32.8125 
Q 4.15625 42 5.546875 48.921875 
Q 6.9375 55.859375 9.515625 60.5 
Q 12.109375 65.140625 15.859375 67.484375 
Q 19.625 69.828125 24.359375 69.828125 
Q 27.25 69.828125 29.765625 69.09375 
Q 32.28125 68.359375 34.328125 66.71875 
Q 36.375 65.09375 37.9375 62.40625 
Q 39.5 59.71875 40.4375 55.8125 
L 33.546875 54.296875 
Q 32.421875 58.734375 29.953125 60.71875 
Q 27.484375 62.703125 24.265625 62.703125 
Q 21.296875 62.703125 18.890625 60.984375 
Q 16.5 59.28125 14.8125 55.875 
Q 13.140625 52.484375 12.234375 47.359375 
Q 11.328125 42.234375 11.328125 35.40625 
Q 13.28125 39.84375 16.84375 42.15625 
Q 20.40625 44.484375 25.046875 44.484375 
Q 28.90625 44.484375 32 42.96875 
Q 35.109375 41.453125 37.328125 38.59375 
Q 39.546875 35.75 40.765625 31.671875 
Q 42 27.59375 42 22.515625 
z
M 34.671875 22.125 
Q 34.671875 25.6875 33.953125 28.5625 
Q 33.25 31.453125 31.8125 33.46875 
Q 30.375 35.5 28.25 36.59375 
Q 26.125 37.703125 23.296875 37.703125 
Q 21.34375 37.703125 19.328125 36.984375 
Q 17.328125 36.28125 15.71875 34.6875 
Q 14.109375 33.109375 13.078125 30.515625 
Q 12.0625 27.9375 12.0625 24.21875 
Q 12.0625 20.40625 12.859375 17.109375 
Q 13.671875 13.8125 15.15625 11.375 
Q 16.65625 8.9375 18.78125 7.515625 
Q 20.90625 6.109375 23.53125 6.109375 
Q 26.125 6.109375 28.203125 7.203125 
Q 30.28125 8.296875 31.71875 10.375 
Q 33.15625 12.453125 33.90625 15.421875 
Q 34.671875 18.40625 34.671875 22.125 
z
" id="LiberationSansNarrow-54"/>
      </defs>
      <g transform="translate(149.018215 269.345625)scale(0.14 -0.14)">
       <use xlink:href="#LiberationSansNarrow-50"/>
       <use x="45.605469" xlink:href="#LiberationSansNarrow-48"/>
       <use x="91.210938" xlink:href="#LiberationSansNarrow-48"/>
       <use x="136.816406" xlink:href="#LiberationSansNarrow-54"/>
      </g>
     </g>
    </g>
    <g id="xtick_3">
     <g id="line2d_3">
      <path clip-path="url(#p35b3313240)" d="M 224.390896 252.2 
L 224.390896 17.64 
" style="fill:none;stroke:#b0b0b0;stroke-dasharray:1.48,0.64;stroke-dashoffset:0;stroke-width:0.4;"/>
     </g>
     <g id="text_3">
      <!-- 2008 -->
      <defs>
       <path d="M 42.046875 19.1875 
Q 42.046875 14.796875 40.890625 11.109375 
Q 39.75 7.421875 37.40625 4.734375 
Q 35.0625 2.046875 31.421875 0.53125 
Q 27.78125 -0.984375 22.796875 -0.984375 
Q 17.828125 -0.984375 14.203125 0.53125 
Q 10.59375 2.046875 8.21875 4.703125 
Q 5.859375 7.375 4.703125 11.0625 
Q 3.5625 14.75 3.5625 19.09375 
Q 3.5625 22.859375 4.515625 25.78125 
Q 5.46875 28.71875 7.03125 30.828125 
Q 8.59375 32.953125 10.609375 34.25 
Q 12.640625 35.546875 14.796875 35.984375 
L 14.796875 36.1875 
Q 12.453125 36.859375 10.59375 38.375 
Q 8.734375 39.890625 7.46875 42.015625 
Q 6.203125 44.140625 5.546875 46.71875 
Q 4.890625 49.3125 4.890625 52.203125 
Q 4.890625 55.8125 6.03125 59 
Q 7.171875 62.203125 9.421875 64.625 
Q 11.671875 67.046875 14.984375 68.4375 
Q 18.3125 69.828125 22.65625 69.828125 
Q 27.25 69.828125 30.640625 68.40625 
Q 34.03125 67 36.25 64.578125 
Q 38.484375 62.15625 39.546875 58.9375 
Q 40.625 55.71875 40.625 52.09375 
Q 40.625 49.265625 39.96875 46.671875 
Q 39.3125 44.09375 38.0625 41.96875 
Q 36.8125 39.84375 34.9375 38.34375 
Q 33.0625 36.859375 30.609375 36.28125 
L 30.609375 36.078125 
Q 33.0625 35.59375 35.15625 34.296875 
Q 37.25 33.015625 38.765625 30.890625 
Q 40.28125 28.765625 41.15625 25.828125 
Q 42.046875 22.90625 42.046875 19.1875 
z
M 33.15625 51.609375 
Q 33.15625 54.203125 32.609375 56.34375 
Q 32.078125 58.5 30.828125 60.03125 
Q 29.59375 61.578125 27.59375 62.421875 
Q 25.59375 63.28125 22.65625 63.28125 
Q 19.828125 63.28125 17.875 62.421875 
Q 15.921875 61.578125 14.640625 60.03125 
Q 13.375 58.5 12.8125 56.34375 
Q 12.25 54.203125 12.25 51.609375 
Q 12.25 49.5625 12.6875 47.40625 
Q 13.140625 45.265625 14.3125 43.5 
Q 15.484375 41.75 17.5 40.625 
Q 19.53125 39.5 22.75 39.5 
Q 26.171875 39.5 28.21875 40.625 
Q 30.28125 41.75 31.375 43.5 
Q 32.46875 45.265625 32.8125 47.40625 
Q 33.15625 49.5625 33.15625 51.609375 
z
M 34.578125 20.015625 
Q 34.578125 22.515625 34.015625 24.828125 
Q 33.453125 27.15625 32.078125 28.9375 
Q 30.71875 30.71875 28.421875 31.8125 
Q 26.125 32.90625 22.65625 32.90625 
Q 19.484375 32.90625 17.265625 31.8125 
Q 15.046875 30.71875 13.671875 28.90625 
Q 12.3125 27.09375 11.671875 24.71875 
Q 11.03125 22.359375 11.03125 19.828125 
Q 11.03125 16.65625 11.671875 14.03125 
Q 12.3125 11.421875 13.703125 9.546875 
Q 15.09375 7.671875 17.375 6.640625 
Q 19.671875 5.609375 22.90625 5.609375 
Q 26.171875 5.609375 28.421875 6.640625 
Q 30.671875 7.671875 32.03125 9.546875 
Q 33.40625 11.421875 33.984375 14.078125 
Q 34.578125 16.75 34.578125 20.015625 
z
" id="LiberationSansNarrow-56"/>
      </defs>
      <g transform="translate(211.620271 269.345625)scale(0.14 -0.14)">
       <use xlink:href="#LiberationSansNarrow-50"/>
       <use x="45.605469" xlink:href="#LiberationSansNarrow-48"/>
       <use x="91.210938" xlink:href="#LiberationSansNarrow-48"/>
       <use x="136.816406" xlink:href="#LiberationSansNarrow-56"/>
      </g>
     </g>
    </g>
    <g id="xtick_4">
     <g id="line2d_4">
      <path clip-path="url(#p35b3313240)" d="M 287.078708 252.2 
L 287.078708 17.64 
" style="fill:none;stroke:#b0b0b0;stroke-dasharray:1.48,0.64;stroke-dashoffset:0;stroke-width:0.4;"/>
     </g>
     <g id="text_4">
      <!-- 2010 -->
      <defs>
       <path d="M 6.25 0 
L 6.25 7.46875 
L 20.609375 7.46875 
L 20.609375 60.40625 
L 7.90625 49.3125 
L 7.90625 57.625 
L 21.234375 68.796875 
L 27.875 68.796875 
L 27.875 7.46875 
L 41.609375 7.46875 
L 41.609375 0 
z
" id="LiberationSansNarrow-49"/>
      </defs>
      <g transform="translate(274.308083 269.345625)scale(0.14 -0.14)">
       <use xlink:href="#LiberationSansNarrow-50"/>
       <use x="45.605469" xlink:href="#LiberationSansNarrow-48"/>
       <use x="91.210938" xlink:href="#LiberationSansNarrow-49"/>
       <use x="136.816406" xlink:href="#LiberationSansNarrow-48"/>
      </g>
     </g>
    </g>
    <g id="xtick_5">
     <g id="line2d_5">
      <path clip-path="url(#p35b3313240)" d="M 349.680764 252.2 
L 349.680764 17.64 
" style="fill:none;stroke:#b0b0b0;stroke-dasharray:1.48,0.64;stroke-dashoffset:0;stroke-width:0.4;"/>
     </g>
     <g id="text_5">
      <!-- 2012 -->
      <g transform="translate(336.910139 269.345625)scale(0.14 -0.14)">
       <use xlink:href="#LiberationSansNarrow-50"/>
       <use x="45.605469" xlink:href="#LiberationSansNarrow-48"/>
       <use x="91.210938" xlink:href="#LiberationSansNarrow-49"/>
       <use x="136.816406" xlink:href="#LiberationSansNarrow-50"/>
      </g>
     </g>
    </g>
    <g id="xtick_6">
     <g id="line2d_6">
      <path clip-path="url(#p35b3313240)" d="M 412.368576 252.2 
L 412.368576 17.64 
" style="fill:none;stroke:#b0b0b0;stroke-dasharray:1.48,0.64;stroke-dashoffset:0;stroke-width:0.4;"/>
     </g>
     <g id="text_6">
      <!-- 2014 -->
      <g transform="translate(399.597951 269.345625)scale(0.14 -0.14)">
       <use xlink:href="#LiberationSansNarrow-50"/>
       <use x="45.605469" xlink:href="#LiberationSansNarrow-48"/>
       <use x="91.210938" xlink:href="#LiberationSansNarrow-49"/>
       <use x="136.816406" xlink:href="#LiberationSansNarrow-52"/>
      </g>
     </g>
    </g>
    <g id="xtick_7">
     <g id="line2d_7">
      <path clip-path="url(#p35b3313240)" d="M 474.970631 252.2 
L 474.970631 17.64 
" style="fill:none;stroke:#b0b0b0;stroke-dasharray:1.48,0.64;stroke-dashoffset:0;stroke-width:0.4;"/>
     </g>
     <g id="text_7">
      <!-- 2016 -->
      <g transform="translate(462.200006 269.345625)scale(0.14 -0.14)">
       <use xlink:href="#LiberationSansNarrow-50"/>
       <use x="45.605469" xlink:href="#LiberationSansNarrow-48"/>
       <use x="91.210938" xlink:href="#LiberationSansNarrow-49"/>
       <use x="136.816406" xlink:href="#LiberationSansNarrow-54"/>
      </g>
     </g>
    </g>
    <g id="xtick_8">
     <g id="line2d_8">
      <path clip-path="url(#p35b3313240)" d="M 537.658443 252.2 
L 537.658443 17.64 
" style="fill:none;stroke:#b0b0b0;stroke-dasharray:1.48,0.64;stroke-dashoffset:0;stroke-width:0.4;"/>
     </g>
     <g id="text_8">
      <!-- 2018 -->
      <g transform="translate(524.887818 269.345625)scale(0.14 -0.14)">
       <use xlink:href="#LiberationSansNarrow-50"/>
       <use x="45.605469" xlink:href="#LiberationSansNarrow-48"/>
       <use x="91.210938" xlink:href="#LiberationSansNarrow-49"/>
       <use x="136.816406" xlink:href="#LiberationSansNarrow-56"/>
      </g>
     </g>
    </g>
   </g>
   <g id="matplotlib.axis_2">
    <g id="ytick_1">
     <g id="line2d_9">
      <path clip-path="url(#p35b3313240)" d="M 44.44 239.717386 
L 558.36 239.717386 
" style="fill:none;stroke:#b0b0b0;stroke-dasharray:1.48,0.64;stroke-dashoffset:0;stroke-width:0.4;"/>
     </g>
     <g id="text_9">
      <!-- 0.65 -->
      <defs>
       <path d="M 7.46875 0 
L 7.46875 10.6875 
L 15.328125 10.6875 
L 15.328125 0 
z
" id="LiberationSansNarrow-46"/>
       <path d="M 42.140625 22.40625 
Q 42.140625 17.234375 40.859375 12.9375 
Q 39.59375 8.640625 37.078125 5.53125 
Q 34.578125 2.4375 30.8125 0.71875 
Q 27.046875 -0.984375 22.125 -0.984375 
Q 17.671875 -0.984375 14.375 0.28125 
Q 11.078125 1.5625 8.8125 3.78125 
Q 6.546875 6 5.203125 8.984375 
Q 3.859375 11.96875 3.265625 15.375 
L 10.546875 16.40625 
Q 10.984375 14.453125 11.78125 12.625 
Q 12.59375 10.796875 13.984375 9.34375 
Q 15.375 7.90625 17.40625 7.046875 
Q 19.4375 6.203125 22.3125 6.203125 
Q 25.09375 6.203125 27.390625 7.25 
Q 29.6875 8.296875 31.296875 10.34375 
Q 32.90625 12.40625 33.78125 15.375 
Q 34.671875 18.359375 34.671875 22.21875 
Q 34.671875 25.390625 33.84375 28.046875 
Q 33.015625 30.71875 31.453125 32.640625 
Q 29.890625 34.578125 27.609375 35.640625 
Q 25.34375 36.71875 22.46875 36.71875 
Q 20.65625 36.71875 19.140625 36.328125 
Q 17.625 35.9375 16.328125 35.25 
Q 15.046875 34.578125 13.96875 33.671875 
Q 12.890625 32.765625 11.96875 31.78125 
L 4.9375 31.78125 
L 6.78125 68.796875 
L 38.875 68.796875 
L 38.875 61.328125 
L 13.375 61.328125 
L 12.3125 39.5 
Q 14.203125 41.3125 17.078125 42.59375 
Q 19.96875 43.890625 23.921875 43.890625 
Q 28.125 43.890625 31.484375 42.328125 
Q 34.859375 40.765625 37.21875 37.90625 
Q 39.59375 35.0625 40.859375 31.109375 
Q 42.140625 27.15625 42.140625 22.40625 
z
" id="LiberationSansNarrow-53"/>
      </defs>
      <g transform="translate(15.0925 244.790199)scale(0.14 -0.14)">
       <use xlink:href="#LiberationSansNarrow-48"/>
       <use x="45.605469" xlink:href="#LiberationSansNarrow-46"/>
       <use x="68.408203" xlink:href="#LiberationSansNarrow-54"/>
       <use x="114.013672" xlink:href="#LiberationSansNarrow-53"/>
      </g>
     </g>
    </g>
    <g id="ytick_2">
     <g id="line2d_10">
      <path clip-path="url(#p35b3313240)" d="M 44.44 172.537039 
L 558.36 172.537039 
" style="fill:none;stroke:#b0b0b0;stroke-dasharray:1.48,0.64;stroke-dashoffset:0;stroke-width:0.4;"/>
     </g>
     <g id="text_10">
      <!-- 1 -->
      <g transform="translate(31.054688 177.609852)scale(0.14 -0.14)">
       <use xlink:href="#LiberationSansNarrow-49"/>
      </g>
     </g>
    </g>
    <g id="ytick_3">
     <g id="line2d_11">
      <path clip-path="url(#p35b3313240)" d="M 44.44 109.30499 
L 558.36 109.30499 
" style="fill:none;stroke:#b0b0b0;stroke-dasharray:1.48,0.64;stroke-dashoffset:0;stroke-width:0.4;"/>
     </g>
     <g id="text_11">
      <!-- 1.5 -->
      <g transform="translate(21.477813 114.377803)scale(0.14 -0.14)">
       <use xlink:href="#LiberationSansNarrow-49"/>
       <use x="45.605469" xlink:href="#LiberationSansNarrow-46"/>
       <use x="68.408203" xlink:href="#LiberationSansNarrow-53"/>
      </g>
     </g>
    </g>
    <g id="ytick_4">
     <g id="line2d_12">
      <path clip-path="url(#p35b3313240)" d="M 44.44 64.441138 
L 558.36 64.441138 
" style="fill:none;stroke:#b0b0b0;stroke-dasharray:1.48,0.64;stroke-dashoffset:0;stroke-width:0.4;"/>
     </g>
     <g id="text_12">
      <!-- 2 -->
      <g transform="translate(31.054688 69.51395)scale(0.14 -0.14)">
       <use xlink:href="#LiberationSansNarrow-50"/>
      </g>
     </g>
    </g>
    <g id="ytick_5">
     <g id="line2d_13">
      <path clip-path="url(#p35b3313240)" d="M 44.44 29.64203 
L 558.36 29.64203 
" style="fill:none;stroke:#b0b0b0;stroke-dasharray:1.48,0.64;stroke-dashoffset:0;stroke-width:0.4;"/>
     </g>
     <g id="text_13">
      <!-- 2.5 -->
      <g transform="translate(21.477813 34.714842)scale(0.14 -0.14)">
       <use xlink:href="#LiberationSansNarrow-50"/>
       <use x="45.605469" xlink:href="#LiberationSansNarrow-46"/>
       <use x="68.408203" xlink:href="#LiberationSansNarrow-53"/>
      </g>
     </g>
    </g>
   </g>
   <g id="line2d_14">
    <path clip-path="url(#p35b3313240)" d="M 67.8 172.537039 
L 70.458443 182.928455 
L 72.859618 189.841101 
L 75.518062 184.348686 
L 78.090749 175.472223 
L 80.749192 170.232204 
L 83.32188 168.654094 
L 85.980323 170.323496 
L 88.638767 161.723067 
L 91.211454 163.411737 
L 93.869897 158.382007 
L 96.442584 150.251545 
L 99.101028 150.873841 
L 101.759471 148.88687 
L 104.246402 144.314289 
L 106.904846 143.72541 
L 112.135977 148.049345 
L 114.708664 149.960683 
L 117.367107 154.741255 
L 120.025551 155.452136 
L 122.598238 154.160463 
L 125.256681 151.663883 
L 127.829369 148.433288 
L 130.487812 148.33559 
L 133.146256 147.403511 
L 135.54743 148.868367 
L 138.205874 155.361475 
L 140.778561 158.320208 
L 143.437004 153.550016 
L 146.009692 152.897629 
L 148.668135 151.927219 
L 151.326579 157.700671 
L 153.899266 156.912313 
L 159.130396 137.906635 
L 161.78884 142.745379 
L 164.447283 143.753393 
L 166.848458 142.323652 
L 169.506902 141.162459 
L 172.079589 143.673992 
L 174.738032 141.384561 
L 177.31072 145.57274 
L 179.969163 150.230957 
L 182.627606 142.887692 
L 185.200294 138.200144 
L 187.858737 134.566983 
L 190.431424 135.625864 
L 193.089868 133.454384 
L 195.748311 129.135124 
L 198.149486 133.691666 
L 200.80793 135.773492 
L 203.380617 131.799006 
L 206.03906 127.413 
L 208.611747 129.09644 
L 211.270191 131.003146 
L 213.928634 126.133929 
L 216.501322 125.637061 
L 221.732452 123.178968 
L 224.390896 127.405706 
L 227.049339 127.231461 
L 229.53627 136.430936 
L 232.194714 134.419718 
L 234.767401 131.081712 
L 237.425844 133.552669 
L 239.998532 150.852812 
L 242.656975 150.780574 
L 245.315419 143.592302 
L 247.888106 146.749084 
L 250.546549 167.595721 
L 253.119236 191.129998 
L 255.77768 176.584891 
L 258.436123 191.717073 
L 260.837298 204.415514 
L 263.495742 189.480587 
L 266.068429 173.028413 
L 268.726872 173.40162 
L 271.299559 176.314655 
L 273.958003 165.400202 
L 276.616446 164.073239 
L 279.189134 161.732338 
L 281.847577 162.644246 
L 284.420264 158.530308 
L 287.078708 158.301722 
L 289.737151 157.167226 
L 294.796769 146.085843 
L 297.369457 142.355253 
L 300.0279 151.941453 
L 302.600587 153.744985 
L 305.259031 148.561854 
L 307.917474 149.421885 
L 310.490162 140.600219 
L 313.148605 136.676097 
L 315.721292 135.258465 
L 318.379736 133.050049 
L 321.038179 126.041349 
L 323.439354 126.491089 
L 326.097797 118.372624 
L 328.670485 117.192054 
L 331.328928 121.932984 
L 333.901615 118.143078 
L 336.560059 121.899002 
L 339.218502 128.986498 
L 341.791189 136.53643 
L 347.02232 118.886157 
L 349.680764 118.225299 
L 352.339207 112.033205 
L 354.826138 106.803452 
L 357.484581 104.629025 
L 360.057269 102.866861 
L 362.715712 115.533899 
L 365.288399 111.882924 
L 367.946843 112.240157 
L 370.605286 107.744677 
L 373.177974 102.366985 
L 375.836417 100.784251 
L 378.409104 100.231654 
L 381.067548 97.981719 
L 383.725991 89.807548 
L 386.127166 88.739175 
L 388.785609 83.988755 
L 391.358297 84.820783 
L 394.01674 75.786253 
L 396.589427 77.496947 
L 399.247871 70.277914 
L 401.906314 74.827752 
L 404.479001 65.42149 
L 407.137445 60.795532 
L 409.710132 59.129123 
L 412.368576 54.110271 
L 415.027019 54.95196 
L 417.428194 49.91183 
L 420.086637 52.324227 
L 422.659325 52.636104 
L 425.317768 55.094423 
L 427.890455 54.935982 
L 430.548899 60.995451 
L 433.207342 56.562265 
L 435.780029 56.963008 
L 438.438473 51.640496 
L 441.01116 44.787946 
L 443.669604 42.618994 
L 446.328047 43.480746 
L 448.729222 32.076948 
L 451.387665 33.867822 
L 453.960352 28.827932 
L 456.618796 25.808535 
L 459.191483 29.366256 
L 461.849927 20.944899 
L 464.50837 32.548733 
L 467.081057 41.966515 
L 469.739501 56.736792 
L 472.312188 54.63137 
L 474.970631 56.557922 
L 477.629075 62.379479 
L 480.116006 66.721353 
L 482.774449 75.509445 
L 485.347137 76.467576 
L 488.00558 78.010929 
L 490.578267 80.716758 
L 493.236711 74.56035 
L 495.895154 73.344306 
L 498.467841 76.291059 
L 501.126285 80.241722 
L 503.698972 71.134919 
L 506.357416 71.566615 
L 509.015859 69.64828 
L 511.417034 61.623092 
L 514.075477 64.323689 
L 516.648164 62.752144 
L 519.306608 58.248659 
L 521.879295 58.420823 
L 524.537739 56.674774 
L 527.196182 58.188511 
L 529.768869 53.942767 
L 532.427313 50.098049 
L 535 47.195025 
L 535 47.195025 
" style="fill:none;stroke:#1f77b4;stroke-linecap:square;stroke-width:1.5;"/>
   </g>
   <g id="line2d_15">
    <path clip-path="url(#p35b3313240)" d="M 67.8 172.537039 
L 70.458443 178.100174 
L 72.859618 180.934735 
L 75.518062 176.897938 
L 78.090749 166.555857 
L 80.749192 159.74116 
L 83.32188 157.051613 
L 85.980323 158.336218 
L 88.638767 154.682908 
L 91.211454 153.324012 
L 93.869897 148.981589 
L 96.442584 146.483559 
L 99.101028 140.934768 
L 101.759471 139.792766 
L 104.246402 137.043339 
L 106.904846 140.22548 
L 109.477533 144.664102 
L 112.135977 143.321834 
L 114.708664 142.916576 
L 117.367107 147.334223 
L 120.025551 146.93208 
L 122.598238 144.162627 
L 125.256681 144.244298 
L 127.829369 136.294605 
L 130.487812 134.230386 
L 133.146256 137.214776 
L 135.54743 136.718323 
L 138.205874 142.877173 
L 140.778561 144.721815 
L 143.437004 137.714939 
L 146.009692 139.58727 
L 148.668135 134.294404 
L 151.326579 138.102967 
L 153.899266 137.500472 
L 156.557709 138.199428 
L 159.130396 129.713114 
L 161.78884 130.621582 
L 164.447283 124.141268 
L 166.848458 125.002221 
L 169.506902 124.067567 
L 172.079589 122.193882 
L 174.738032 128.344749 
L 177.31072 131.95939 
L 179.969163 138.864853 
L 182.627606 132.373578 
L 185.200294 130.15353 
L 187.858737 127.352221 
L 190.431424 122.535438 
L 193.089868 122.958482 
L 195.748311 118.431148 
L 198.149486 124.197109 
L 200.80793 123.10944 
L 203.380617 116.851315 
L 206.03906 109.61357 
L 208.611747 111.457804 
L 211.270191 113.702459 
L 213.928634 112.668431 
L 216.501322 101.391982 
L 219.159765 100.139771 
L 221.732452 102.366334 
L 224.390896 102.594716 
L 227.049339 115.312362 
L 229.53627 121.532441 
L 232.194714 120.448841 
L 234.767401 115.144598 
L 237.425844 114.26738 
L 239.998532 128.259784 
L 242.656975 135.032367 
L 245.315419 134.267741 
L 247.888106 164.738253 
L 253.119236 231.26936 
L 255.77768 208.873321 
L 258.436123 221.880364 
L 260.837298 234.576323 
L 263.495742 211.164439 
L 266.068429 194.787516 
L 268.726872 181.984218 
L 271.299559 188.211702 
L 273.958003 176.193272 
L 276.616446 176.561249 
L 279.189134 170.372278 
L 281.847577 173.845533 
L 284.420264 162.475194 
L 287.078708 159.861112 
L 289.737151 163.952747 
L 292.138326 160.73312 
L 294.796769 151.583653 
L 297.369457 151.020408 
L 300.0279 167.648811 
L 302.600587 175.085156 
L 305.259031 167.011453 
L 307.917474 171.918314 
L 310.490162 159.809994 
L 313.148605 155.186086 
L 318.379736 144.147208 
L 321.038179 139.50418 
L 323.439354 139.803215 
L 326.097797 138.526942 
L 328.670485 136.044949 
L 331.328928 142.95307 
L 333.901615 143.112286 
L 336.560059 148.580757 
L 339.218502 162.783492 
L 341.791189 179.707546 
L 344.449633 168.009335 
L 347.02232 166.638587 
L 349.680764 167.789005 
L 352.339207 157.549749 
L 354.826138 150.172787 
L 357.484581 146.460154 
L 360.057269 147.794967 
L 362.715712 164.064828 
L 365.288399 154.138053 
L 367.946843 154.330269 
L 373.177974 143.442034 
L 375.836417 145.407771 
L 378.409104 145.198995 
L 381.067548 146.220964 
L 383.725991 138.39836 
L 386.127166 138.604903 
L 388.785609 135.090087 
L 391.358297 134.584417 
L 394.01674 127.747785 
L 396.589427 129.333992 
L 399.247871 118.354011 
L 401.906314 123.745711 
L 404.479001 115.340778 
L 407.137445 109.766725 
L 409.710132 104.718032 
L 412.368576 101.521841 
L 415.027019 105.063149 
L 417.428194 98.163203 
L 420.086637 98.922035 
L 422.659325 102.309395 
L 425.317768 98.35415 
L 427.890455 92.835138 
L 430.548899 96.757239 
L 433.207342 89.090952 
L 435.780029 93.439845 
L 438.438473 85.826584 
L 441.01116 83.097276 
L 443.669604 81.67735 
L 446.328047 86.244436 
L 448.729222 77.471693 
L 451.387665 79.864592 
L 453.960352 77.981575 
L 456.618796 77.238315 
L 459.191483 77.878335 
L 461.849927 74.778871 
L 464.50837 89.724129 
L 467.081057 89.995684 
L 469.739501 77.430273 
L 472.312188 73.065562 
L 474.970631 77.893678 
L 477.629075 88.478999 
L 480.116006 87.719784 
L 482.774449 81.430409 
L 485.347137 81.742459 
L 488.00558 79.718211 
L 490.578267 82.184955 
L 493.236711 77.125526 
L 495.895154 76.486814 
L 498.467841 76.236725 
L 501.126285 80.180079 
L 503.698972 75.295815 
L 506.357416 73.778397 
L 509.015859 69.842316 
L 511.417034 61.964883 
L 514.075477 65.161581 
L 516.648164 62.654509 
L 519.306608 58.81274 
L 521.879295 58.83538 
L 524.537739 54.363202 
L 527.196182 53.41343 
L 529.768869 49.934394 
L 532.427313 44.609528 
L 535 41.767328 
L 535 41.767328 
" style="fill:none;stroke:#ff7f0e;stroke-linecap:square;stroke-width:1.5;"/>
   </g>
   <g id="line2d_16">
    <path clip-path="url(#p35b3313240)" d="M 67.8 172.537039 
L 70.458443 184.121307 
L 72.859618 183.076917 
L 80.749192 158.03118 
L 83.32188 157.315113 
L 85.980323 158.208656 
L 88.638767 153.901978 
L 91.211454 150.642031 
L 93.869897 148.383147 
L 96.442584 143.547182 
L 99.101028 136.833658 
L 101.759471 136.02718 
L 104.246402 139.529795 
L 106.904846 138.566821 
L 109.477533 143.570589 
L 112.135977 139.712947 
L 114.708664 143.041287 
L 117.367107 145.348137 
L 120.025551 141.441725 
L 122.598238 142.147367 
L 125.256681 135.001267 
L 127.829369 130.276321 
L 130.487812 132.76591 
L 133.146256 131.106683 
L 135.54743 132.765484 
L 138.205874 137.660549 
L 140.778561 135.477998 
L 143.437004 132.241072 
L 146.009692 130.214487 
L 148.668135 130.575893 
L 151.326579 132.08309 
L 153.899266 136.593719 
L 156.557709 129.326299 
L 159.130396 125.43406 
L 161.78884 124.396852 
L 164.447283 124.787236 
L 166.848458 123.397758 
L 169.506902 123.529173 
L 172.079589 125.58417 
L 174.738032 130.223332 
L 177.31072 129.618992 
L 179.969163 126.44524 
L 182.627606 121.83344 
L 185.200294 115.498001 
L 190.431424 109.195478 
L 193.089868 108.646264 
L 195.748311 107.061138 
L 198.149486 112.435411 
L 200.80793 107.111197 
L 203.380617 102.911075 
L 206.03906 102.72812 
L 208.611747 101.8471 
L 211.270191 108.3094 
L 216.501322 99.860514 
L 219.159765 108.523063 
L 221.732452 106.556888 
L 224.390896 118.100002 
L 227.049339 121.075376 
L 229.53627 126.639802 
L 232.194714 121.167073 
L 234.767401 118.593757 
L 237.425844 126.993204 
L 239.998532 137.664104 
L 242.656975 133.856766 
L 245.315419 141.467857 
L 247.888106 175.161796 
L 250.546549 186.2888 
L 253.119236 185.32694 
L 255.77768 187.83696 
L 258.436123 199.552317 
L 260.837298 209.192087 
L 263.495742 191.576605 
L 266.068429 182.079745 
L 268.726872 179.106275 
L 271.299559 176.979977 
L 273.958003 165.245147 
L 276.616446 159.838856 
L 279.189134 156.369067 
L 281.847577 153.327538 
L 284.420264 149.697035 
L 287.078708 148.199674 
L 289.737151 152.899998 
L 292.138326 144.606026 
L 294.796769 138.693893 
L 297.369457 148.339216 
L 300.0279 153.886451 
L 302.600587 154.240872 
L 305.259031 153.188341 
L 307.917474 148.180024 
L 310.490162 141.463103 
L 313.148605 137.759673 
L 315.721292 132.407027 
L 318.379736 127.904028 
L 321.038179 123.896068 
L 323.439354 127.218426 
L 326.097797 124.857211 
L 328.670485 124.62859 
L 331.328928 130.348303 
L 333.901615 125.789847 
L 336.560059 143.422057 
L 339.218502 144.972334 
L 341.791189 140.087906 
L 347.02232 134.586374 
L 349.680764 128.061126 
L 352.339207 122.459921 
L 354.826138 119.278974 
L 357.484581 119.88295 
L 360.057269 124.673825 
L 362.715712 126.332405 
L 365.288399 121.666064 
L 367.946843 117.413115 
L 370.605286 113.542116 
L 373.177974 113.897686 
L 375.836417 117.727515 
L 378.409104 114.032242 
L 381.067548 108.055588 
L 383.725991 105.812112 
L 386.127166 102.110411 
L 388.785609 99.776688 
L 391.358297 93.156054 
L 394.01674 95.362152 
L 396.589427 90.507244 
L 399.247871 90.380619 
L 401.906314 88.792761 
L 404.479001 85.202835 
L 407.137445 79.055465 
L 409.710132 76.764361 
L 412.368576 75.917801 
L 415.027019 76.774072 
L 417.428194 73.663457 
L 420.086637 73.940572 
L 422.659325 72.191289 
L 425.317768 67.651564 
L 427.890455 65.352068 
L 430.548899 65.836824 
L 433.207342 63.283623 
L 435.780029 67.155702 
L 438.438473 57.736033 
L 441.01116 55.942299 
L 443.669604 57.027172 
L 446.328047 53.433614 
L 448.729222 54.352651 
L 451.387665 53.386551 
L 453.960352 52.741514 
L 456.618796 54.050023 
L 459.191483 54.268507 
L 461.849927 57.961664 
L 464.50837 65.002609 
L 467.081057 58.429982 
L 469.739501 53.680279 
L 472.312188 54.965256 
L 474.970631 65.666918 
L 477.629075 66.753426 
L 480.116006 57.8969 
L 482.774449 54.371711 
L 485.347137 55.568998 
L 488.00558 54.518026 
L 490.578267 49.295989 
L 493.236711 47.669605 
L 498.467841 49.897541 
L 501.126285 47.884256 
L 503.698972 41.988733 
L 506.357416 40.757246 
L 509.015859 37.366932 
L 511.417034 34.875404 
L 514.075477 35.664374 
L 519.306608 30.747611 
L 521.879295 29.192348 
L 524.537739 29.358746 
L 527.196182 27.7107 
L 529.768869 23.488835 
L 532.427313 21.116976 
L 535 16.767846 
L 535 16.767846 
" style="fill:none;stroke:#2ca02c;stroke-linecap:square;stroke-width:1.5;"/>
   </g>
   <g id="legend_1">
    <g id="patch_3">
     <path d="M 51.44 88.991875 
L 152.79125 88.991875 
L 152.79125 24.64 
L 51.44 24.64 
z
" style="fill:#ffffff;opacity:0.8;stroke:#cccccc;stroke-linejoin:miter;"/>
    </g>
    <g id="line2d_17">
     <path d="M 57.04 35.485625 
L 85.04 35.485625 
" style="fill:none;stroke:#1f77b4;stroke-linecap:square;stroke-width:1.5;"/>
    </g>
    <g id="line2d_18"/>
    <g id="text_14">
     <!-- секвойя -->
     <defs>
      <path d="M 11.03125 26.65625 
Q 11.03125 22.125 11.5625 18.3125 
Q 12.109375 14.5 13.375 11.734375 
Q 14.65625 8.984375 16.75 7.46875 
Q 18.84375 5.953125 21.96875 5.953125 
Q 25.828125 5.953125 28.390625 8.484375 
Q 30.953125 11.03125 31.546875 16.3125 
L 38.875 15.71875 
Q 38.53125 12.453125 37.296875 9.421875 
Q 36.078125 6.390625 34.03125 4.09375 
Q 31.984375 1.8125 29 0.40625 
Q 26.03125 -0.984375 22.171875 -0.984375 
Q 17.09375 -0.984375 13.5 1.109375 
Q 9.90625 3.21875 7.6875 6.90625 
Q 5.46875 10.59375 4.46875 15.59375 
Q 3.46875 20.609375 3.46875 26.46875 
Q 3.46875 31.78125 4.203125 35.859375 
Q 4.9375 39.9375 6.21875 42.984375 
Q 7.515625 46.046875 9.265625 48.125 
Q 11.03125 50.203125 13.109375 51.4375 
Q 15.1875 52.6875 17.453125 53.25 
Q 19.734375 53.8125 22.078125 53.8125 
Q 25.734375 53.8125 28.5625 52.59375 
Q 31.390625 51.375 33.46875 49.25 
Q 35.546875 47.125 36.8125 44.234375 
Q 38.09375 41.359375 38.625 38.03125 
L 31.203125 37.359375 
Q 30.671875 41.75 28.375 44.328125 
Q 26.078125 46.921875 21.875 46.921875 
Q 18.796875 46.921875 16.71875 45.671875 
Q 14.65625 44.4375 13.375 41.921875 
Q 12.109375 39.40625 11.5625 35.59375 
Q 11.03125 31.78125 11.03125 26.65625 
z
" id="LiberationSansNarrow-1089"/>
      <path d="M 10.6875 24.5625 
Q 10.6875 20.40625 11.5625 16.90625 
Q 12.453125 13.421875 13.90625 10.90625 
Q 15.375 8.40625 17.640625 7 
Q 19.921875 5.609375 23.140625 5.609375 
Q 27.828125 5.609375 30.65625 7.90625 
Q 33.5 10.203125 34.46875 13.71875 
L 40.828125 11.53125 
Q 40.140625 9.328125 38.921875 7.109375 
Q 37.703125 4.890625 35.640625 3.09375 
Q 33.59375 1.3125 30.53125 0.15625 
Q 27.484375 -0.984375 23.140625 -0.984375 
Q 13.53125 -0.984375 8.5 6 
Q 3.46875 12.984375 3.46875 26.765625 
Q 3.46875 34.1875 5 39.328125 
Q 6.546875 44.484375 9.171875 47.703125 
Q 11.8125 50.921875 15.328125 52.359375 
Q 18.84375 53.8125 22.859375 53.8125 
Q 28.328125 53.8125 31.984375 51.65625 
Q 39.0625 47.515625 41.015625 36.8125 
Q 41.9375 31.6875 41.9375 25.734375 
L 41.9375 24.5625 
z
M 34.71875 31.296875 
Q 34.71875 40.140625 31.421875 43.71875 
Q 28.125 47.3125 22.75 47.3125 
Q 18.953125 47.3125 15.328125 44.09375 
Q 10.9375 40.328125 10.6875 31.296875 
z
" id="LiberationSansNarrow-1077"/>
      <path d="M 5.515625 52.828125 
L 12.703125 52.828125 
L 12.703125 29.6875 
Q 13.921875 29.6875 14.875 30.078125 
Q 15.828125 30.46875 16.875 31.6875 
Q 17.921875 32.90625 19.21875 35.15625 
Q 20.515625 37.40625 22.46875 41.15625 
L 28.375 52.828125 
L 35.890625 52.828125 
L 27.25 36.96875 
Q 25.4375 33.734375 24.109375 31.65625 
Q 22.796875 29.59375 22.125 28.90625 
L 36.234375 0 
L 28.21875 0 
L 17.140625 24.265625 
Q 16.359375 23.875 15.0625 23.578125 
Q 13.765625 23.296875 12.703125 23.296875 
L 12.703125 0 
L 5.515625 0 
z
" id="LiberationSansNarrow-1082"/>
      <path d="M 22.5625 52.828125 
Q 25.59375 52.828125 28.484375 52.234375 
Q 31.390625 51.65625 33.640625 50.140625 
Q 35.890625 48.640625 37.234375 46.09375 
Q 38.578125 43.5625 38.578125 39.59375 
Q 38.578125 37.015625 37.890625 35.03125 
Q 37.203125 33.0625 35.984375 31.640625 
Q 34.765625 30.21875 33.125 29.3125 
Q 31.5 28.421875 29.6875 27.984375 
L 29.6875 27.640625 
Q 31.84375 27.296875 33.734375 26.4375 
Q 35.640625 25.59375 37 24.09375 
Q 38.375 22.609375 39.171875 20.40625 
Q 39.984375 18.21875 39.984375 15.234375 
Q 39.984375 11.421875 38.765625 8.5625 
Q 37.546875 5.71875 35.375 3.8125 
Q 33.203125 1.90625 30.171875 0.953125 
Q 27.15625 0 23.484375 0 
L 5.671875 0 
L 5.671875 52.828125 
z
M 12.890625 6.5 
L 22.3125 6.5 
Q 25.09375 6.5 27 6.984375 
Q 28.90625 7.46875 30.078125 8.546875 
Q 31.25 9.625 31.78125 11.25 
Q 32.328125 12.890625 32.328125 15.1875 
Q 32.328125 17.625 31.765625 19.328125 
Q 31.203125 21.046875 29.953125 22.109375 
Q 28.71875 23.1875 26.703125 23.671875 
Q 24.703125 24.171875 21.875 24.171875 
L 12.890625 24.171875 
z
M 12.890625 46.140625 
L 12.890625 30.515625 
L 21.53125 30.515625 
Q 24.265625 30.515625 26.0625 30.984375 
Q 27.875 31.453125 29 32.390625 
Q 30.125 33.34375 30.5625 34.828125 
Q 31 36.328125 31 38.421875 
Q 31 42.4375 28.96875 44.28125 
Q 26.953125 46.140625 22.125 46.140625 
z
" id="LiberationSansNarrow-1074"/>
      <path d="M 42.140625 26.46875 
Q 42.140625 12.59375 37.125 5.796875 
Q 32.125 -0.984375 22.609375 -0.984375 
Q 18.0625 -0.984375 14.515625 0.671875 
Q 10.984375 2.34375 8.515625 5.765625 
Q 6.0625 9.1875 4.765625 14.328125 
Q 3.46875 19.484375 3.46875 26.46875 
Q 3.46875 53.8125 22.859375 53.8125 
Q 27.875 53.8125 31.5625 52.09375 
Q 35.25 50.390625 37.59375 46.96875 
Q 39.9375 43.5625 41.03125 38.421875 
Q 42.140625 33.296875 42.140625 26.46875 
z
M 34.578125 26.46875 
Q 34.578125 32.625 33.8125 36.625 
Q 33.0625 40.625 31.546875 43.015625 
Q 30.03125 45.40625 27.859375 46.359375 
Q 25.6875 47.3125 23 47.3125 
Q 20.21875 47.3125 17.984375 46.3125 
Q 15.765625 45.3125 14.203125 42.890625 
Q 12.640625 40.484375 11.828125 36.46875 
Q 11.03125 32.46875 11.03125 26.46875 
Q 11.03125 20.3125 11.90625 16.28125 
Q 12.796875 12.25 14.328125 9.859375 
Q 15.875 7.46875 17.96875 6.484375 
Q 20.0625 5.515625 22.5625 5.515625 
Q 25.34375 5.515625 27.5625 6.46875 
Q 29.78125 7.421875 31.34375 9.8125 
Q 32.90625 12.203125 33.734375 16.25 
Q 34.578125 20.3125 34.578125 26.46875 
z
" id="LiberationSansNarrow-1086"/>
      <path d="M 12.640625 52.828125 
L 12.640625 23.921875 
Q 12.640625 22.796875 12.59375 20.921875 
Q 12.546875 19.046875 12.46875 17.046875 
Q 12.40625 15.046875 12.359375 13.234375 
Q 12.3125 11.421875 12.25 10.40625 
L 32.28125 52.828125 
L 40.140625 52.828125 
L 40.140625 0 
L 33.25 0 
L 33.25 32.234375 
Q 33.25 33.15625 33.296875 34.578125 
L 33.40625 37.40625 
Q 33.453125 38.875 33.5 40.234375 
L 33.640625 42.625 
L 13.375 0 
L 5.71875 0 
L 5.71875 52.828125 
z
M 25.046875 58.59375 
Q 20.609375 58.59375 17.765625 59.984375 
Q 14.9375 61.375 13.328125 63.59375 
Q 11.71875 65.828125 11.078125 68.625 
Q 10.453125 71.4375 10.359375 74.21875 
L 16.890625 74.21875 
Q 17.140625 69.1875 19.234375 66.84375 
Q 21.34375 64.5 25.046875 64.5 
Q 28.765625 64.5 30.828125 66.84375 
Q 32.90625 69.1875 33.15625 74.21875 
L 39.75 74.21875 
Q 39.65625 71.4375 39.015625 68.625 
Q 38.375 65.828125 36.734375 63.59375 
Q 35.109375 61.375 32.296875 59.984375 
Q 29.5 58.59375 25.046875 58.59375 
z
" id="LiberationSansNarrow-1081"/>
      <path d="M 21.4375 22.359375 
L 8.84375 0 
L 0.6875 0 
L 14.453125 23 
Q 9.234375 24.3125 6.859375 28.296875 
Q 4.5 32.28125 4.5 38.234375 
Q 4.5 45.515625 8.8125 49.171875 
Q 13.140625 52.828125 21.4375 52.828125 
L 38.71875 52.828125 
L 38.71875 0 
L 31.546875 0 
L 31.546875 22.359375 
z
M 31.546875 46.625 
L 22.171875 46.625 
Q 16.9375 46.625 14.546875 44.375 
Q 12.15625 42.140625 12.15625 37.59375 
Q 12.15625 33.015625 14.28125 30.734375 
Q 16.40625 28.46875 21.390625 28.46875 
L 31.546875 28.46875 
z
" id="LiberationSansNarrow-1103"/>
     </defs>
     <g transform="translate(96.24 40.385625)scale(0.14 -0.14)">
      <use xlink:href="#LiberationSansNarrow-1089"/>
      <use x="41.015625" xlink:href="#LiberationSansNarrow-1077"/>
      <use x="86.621094" xlink:href="#LiberationSansNarrow-1082"/>
      <use x="122.460938" xlink:href="#LiberationSansNarrow-1074"/>
      <use x="166" xlink:href="#LiberationSansNarrow-1086"/>
      <use x="211.605469" xlink:href="#LiberationSansNarrow-1081"/>
      <use x="257.455078" xlink:href="#LiberationSansNarrow-1103"/>
     </g>
    </g>
    <g id="line2d_19">
     <path d="M 57.04 55.53625 
L 85.04 55.53625 
" style="fill:none;stroke:#ff7f0e;stroke-linecap:square;stroke-width:1.5;"/>
    </g>
    <g id="line2d_20"/>
    <g id="text_15">
     <!-- магеллан -->
     <defs>
      <path d="M 31.546875 0 
L 25.390625 0 
L 12.40625 46.4375 
Q 12.453125 45.171875 12.515625 43.703125 
Q 12.59375 42.234375 12.59375 40.75 
Q 12.59375 39.265625 12.609375 37.859375 
Q 12.640625 36.46875 12.640625 35.359375 
L 12.640625 0 
L 5.671875 0 
L 5.671875 52.828125 
L 16.890625 52.828125 
L 25.734375 20.5625 
Q 26.65625 17.484375 27.390625 13.796875 
Q 28.125 10.109375 28.421875 6.59375 
Q 28.8125 10.109375 29.515625 13.796875 
Q 30.21875 17.484375 31.15625 20.5625 
L 39.984375 52.828125 
L 50.734375 52.828125 
L 50.734375 0 
L 43.796875 0 
L 43.796875 35.359375 
Q 43.796875 36.421875 43.8125 37.890625 
Q 43.84375 39.359375 43.921875 40.921875 
Q 44 42.484375 44.015625 43.9375 
Q 44.046875 45.40625 44.140625 46.53125 
z
" id="LiberationSansNarrow-1084"/>
      <path d="M 16.546875 -0.984375 
Q 10.015625 -0.984375 6.734375 3.21875 
Q 3.46875 7.421875 3.46875 14.75 
Q 3.46875 19.96875 5.09375 23.3125 
Q 6.734375 26.65625 9.34375 28.5625 
Q 11.96875 30.46875 15.328125 31.203125 
Q 18.703125 31.9375 22.171875 32.03125 
L 31.9375 32.234375 
L 31.9375 35.109375 
Q 31.9375 38.375 31.375 40.671875 
Q 30.8125 42.96875 29.640625 44.375 
Q 28.46875 45.796875 26.734375 46.453125 
Q 25 47.125 22.609375 47.125 
Q 20.515625 47.125 18.84375 46.75 
Q 17.1875 46.390625 15.9375 45.4375 
Q 14.703125 44.484375 13.9375 42.84375 
Q 13.1875 41.21875 12.9375 38.71875 
L 5.421875 39.546875 
Q 5.8125 42.671875 6.9375 45.28125 
Q 8.0625 47.90625 10.109375 49.796875 
Q 12.15625 51.703125 15.25 52.75 
Q 18.359375 53.8125 22.796875 53.8125 
Q 30.953125 53.8125 35.078125 49.234375 
Q 39.203125 44.671875 39.203125 36.03125 
L 39.203125 13.28125 
Q 39.203125 9.375 40.03125 7.390625 
Q 40.875 5.421875 43.265625 5.421875 
Q 43.84375 5.421875 44.453125 5.515625 
Q 45.0625 5.609375 45.609375 5.765625 
L 45.609375 0.296875 
Q 44.234375 -0.09375 42.890625 -0.28125 
Q 41.546875 -0.484375 40.046875 -0.484375 
Q 37.984375 -0.484375 36.515625 0.171875 
Q 35.0625 0.828125 34.15625 2.171875 
Q 33.25 3.515625 32.765625 5.484375 
Q 32.28125 7.46875 32.125 10.109375 
L 31.9375 10.109375 
Q 30.765625 7.5625 29.375 5.515625 
Q 27.984375 3.46875 26.140625 2.03125 
Q 24.3125 0.59375 21.9375 -0.1875 
Q 19.578125 -0.984375 16.546875 -0.984375 
z
M 18.21875 5.609375 
Q 21.6875 5.609375 24.25 7.140625 
Q 26.8125 8.6875 28.515625 11.078125 
Q 30.21875 13.484375 31.078125 16.3125 
Q 31.9375 19.140625 31.9375 21.734375 
L 31.9375 26.078125 
L 24.03125 25.875 
Q 21.390625 25.828125 19 25.40625 
Q 16.609375 25 14.8125 23.78125 
Q 13.03125 22.5625 11.953125 20.359375 
Q 10.890625 18.171875 10.890625 14.59375 
Q 10.890625 10.296875 12.796875 7.953125 
Q 14.703125 5.609375 18.21875 5.609375 
z
" id="LiberationSansNarrow-1072"/>
      <path d="M 27.546875 52.828125 
L 27.546875 46.4375 
L 12.890625 46.4375 
L 12.890625 0 
L 5.71875 0 
L 5.71875 52.828125 
z
" id="LiberationSansNarrow-1075"/>
      <path d="M 34.859375 0 
L 34.859375 46.4375 
L 19.875 46.4375 
Q 18.890625 37.453125 18.03125 30.4375 
Q 17.1875 23.4375 16.3125 18.15625 
Q 15.4375 12.890625 14.40625 9.25 
Q 13.375 5.609375 11.953125 3.34375 
Q 10.546875 1.078125 8.65625 0.046875 
Q 6.78125 -0.984375 4.203125 -0.984375 
Q 3.03125 -0.984375 2.078125 -0.78125 
Q 1.125 -0.59375 0.4375 -0.34375 
L 0.4375 5.953125 
Q 0.875 5.765625 1.625 5.640625 
Q 2.390625 5.515625 3.171875 5.515625 
Q 4.59375 5.515625 5.59375 6.53125 
Q 6.59375 7.5625 7.390625 9.859375 
Q 8.203125 12.15625 8.859375 15.796875 
Q 9.515625 19.4375 10.203125 24.703125 
Q 10.890625 29.984375 11.625 36.921875 
L 13.375 52.828125 
L 42.140625 52.828125 
L 42.140625 0 
z
" id="LiberationSansNarrow-1083"/>
      <path d="M 12.890625 52.828125 
L 12.890625 30.46875 
L 32.375 30.46875 
L 32.375 52.828125 
L 39.59375 52.828125 
L 39.59375 0 
L 32.375 0 
L 32.375 24.078125 
L 12.890625 24.078125 
L 12.890625 0 
L 5.671875 0 
L 5.671875 52.828125 
z
" id="LiberationSansNarrow-1085"/>
     </defs>
     <g transform="translate(96.24 60.43625)scale(0.14 -0.14)">
      <use xlink:href="#LiberationSansNarrow-1084"/>
      <use x="56.396484" xlink:href="#LiberationSansNarrow-1072"/>
      <use x="102.001953" xlink:href="#LiberationSansNarrow-1075"/>
      <use x="131.902344" xlink:href="#LiberationSansNarrow-1077"/>
      <use x="177.460938" xlink:href="#LiberationSansNarrow-1083"/>
      <use x="225.263672" xlink:href="#LiberationSansNarrow-1083"/>
      <use x="273.066406" xlink:href="#LiberationSansNarrow-1072"/>
      <use x="318.671875" xlink:href="#LiberationSansNarrow-1085"/>
     </g>
    </g>
    <g id="line2d_21">
     <path d="M 57.04 75.586875 
L 85.04 75.586875 
" style="fill:none;stroke:#2ca02c;stroke-linecap:square;stroke-width:1.5;"/>
    </g>
    <g id="line2d_22"/>
    <g id="text_16">
     <!-- индекс -->
     <defs>
      <path d="M 12.640625 52.828125 
L 12.640625 23.921875 
Q 12.640625 22.796875 12.59375 20.921875 
Q 12.546875 19.046875 12.46875 17.046875 
Q 12.40625 15.046875 12.359375 13.234375 
Q 12.3125 11.421875 12.25 10.40625 
L 32.28125 52.828125 
L 40.140625 52.828125 
L 40.140625 0 
L 33.25 0 
L 33.25 32.234375 
Q 33.25 33.15625 33.296875 34.578125 
L 33.40625 37.40625 
Q 33.453125 38.875 33.5 40.234375 
L 33.640625 42.625 
L 13.375 0 
L 5.71875 0 
L 5.71875 52.828125 
z
" id="LiberationSansNarrow-1080"/>
      <path d="M 33.34375 46.4375 
L 21.140625 46.4375 
Q 20.171875 37.796875 19.1875 31.375 
Q 18.21875 24.953125 17.234375 20.21875 
Q 16.265625 15.484375 15.3125 12.15625 
Q 14.359375 8.84375 13.484375 6.390625 
L 33.34375 6.390625 
z
M 46.390625 -19.921875 
L 39.890625 -19.921875 
L 39.890625 0 
L 7.328125 0 
L 7.328125 -19.921875 
L 0.78125 -19.921875 
L 0.78125 6.390625 
L 5.5625 6.390625 
Q 6.78125 8.84375 7.921875 12.328125 
Q 9.078125 15.828125 10.21875 21.1875 
Q 11.375 26.5625 12.515625 34.25 
Q 13.671875 41.9375 14.796875 52.828125 
L 40.578125 52.828125 
L 40.578125 6.390625 
L 46.390625 6.390625 
z
" id="LiberationSansNarrow-1076"/>
     </defs>
     <g transform="translate(96.24 80.486875)scale(0.14 -0.14)">
      <use xlink:href="#LiberationSansNarrow-1080"/>
      <use x="45.849609" xlink:href="#LiberationSansNarrow-1085"/>
      <use x="91.113281" xlink:href="#LiberationSansNarrow-1076"/>
      <use x="138.916016" xlink:href="#LiberationSansNarrow-1077"/>
      <use x="184.521484" xlink:href="#LiberationSansNarrow-1082"/>
      <use x="220.376953" xlink:href="#LiberationSansNarrow-1089"/>
     </g>
    </g>
   </g>
  </g>
 </g>
 <defs>
  <clipPath id="p35b3313240">
   <rect height="234.56" width="513.92" x="44.44" y="17.64"/>
  </clipPath>
 </defs>
</svg>
