<?xml version="1.0" encoding="utf-8" standalone="no"?>
<!DOCTYPE svg PUBLIC "-//W3C//DTD SVG 1.1//EN"
  "http://www.w3.org/Graphics/SVG/1.1/DTD/svg11.dtd">
<!-- Created with matplotlib (https://matplotlib.org/) -->
<svg height="288pt" version="1.1" viewBox="0 0 576 288" width="576pt" xmlns="http://www.w3.org/2000/svg" xmlns:xlink="http://www.w3.org/1999/xlink">
 <defs>
  <style type="text/css">
*{stroke-linecap:butt;stroke-linejoin:round;}
  </style>
 </defs>
 <g id="figure_1">
  <g id="patch_1">
   <path d="M 0 288 
L 576 288 
L 576 0 
L 0 0 
z
" style="fill:#ffffff;"/>
  </g>
  <g id="axes_1">
   <g id="patch_2">
    <path d="M 38.05 252.2 
L 558.36 252.2 
L 558.36 17.64 
L 38.05 17.64 
z
" style="fill:#ffffff;"/>
   </g>
   <g id="matplotlib.axis_1">
    <g id="xtick_1">
     <g id="line2d_1">
      <path clip-path="url(#p0c3762d9b4)" d="M 73.820379 252.2 
L 73.820379 17.64 
" style="fill:none;stroke:#b0b0b0;stroke-dasharray:1.48,0.64;stroke-dashoffset:0;stroke-width:0.4;"/>
     </g>
     <g id="text_1">
      <!-- 1980 -->
      <defs>
       <path d="M 6.25 0 
L 6.25 7.46875 
L 20.609375 7.46875 
L 20.609375 60.40625 
L 7.90625 49.3125 
L 7.90625 57.625 
L 21.234375 68.796875 
L 27.875 68.796875 
L 27.875 7.46875 
L 41.609375 7.46875 
L 41.609375 0 
z
" id="LiberationSansNarrow-49"/>
       <path d="M 41.703125 35.796875 
Q 41.703125 26.609375 40.28125 19.703125 
Q 38.875 12.796875 36.234375 8.203125 
Q 33.59375 3.609375 29.8125 1.3125 
Q 26.03125 -0.984375 21.296875 -0.984375 
Q 18.0625 -0.984375 15.453125 -0.171875 
Q 12.84375 0.640625 10.8125 2.34375 
Q 8.796875 4.046875 7.328125 6.78125 
Q 5.859375 9.515625 4.984375 13.375 
L 11.921875 14.703125 
Q 13.03125 10.25 15.40625 8.171875 
Q 17.78125 6.109375 21.4375 6.109375 
Q 24.359375 6.109375 26.78125 7.78125 
Q 29.203125 9.46875 30.875 12.84375 
Q 32.5625 16.21875 33.546875 21.296875 
Q 34.46875 26.375 34.578125 33.203125 
Q 33.734375 30.90625 32.265625 29.09375 
Q 30.8125 27.296875 28.953125 26.046875 
Q 27.09375 24.8125 24.9375 24.140625 
Q 22.796875 23.484375 20.5625 23.484375 
Q 16.703125 23.484375 13.625 25.171875 
Q 10.546875 26.859375 8.375 29.875 
Q 6.203125 32.90625 5.03125 37.171875 
Q 3.859375 41.453125 3.859375 46.6875 
Q 3.859375 52 5.09375 56.296875 
Q 6.34375 60.59375 8.765625 63.59375 
Q 11.1875 66.609375 14.671875 68.21875 
Q 18.171875 69.828125 22.609375 69.828125 
Q 32.03125 69.828125 36.859375 61.328125 
Q 41.703125 52.828125 41.703125 35.796875 
z
M 33.890625 44.28125 
Q 33.890625 48.09375 33.125 51.453125 
Q 32.375 54.828125 30.9375 57.3125 
Q 29.5 59.8125 27.34375 61.25 
Q 25.203125 62.703125 22.359375 62.703125 
Q 19.78125 62.703125 17.703125 61.578125 
Q 15.625 60.453125 14.1875 58.375 
Q 12.75 56.296875 11.96875 53.3125 
Q 11.1875 50.34375 11.1875 46.6875 
Q 11.1875 43.21875 11.859375 40.234375 
Q 12.546875 37.25 13.953125 35.078125 
Q 15.375 32.90625 17.453125 31.65625 
Q 19.53125 30.421875 22.3125 30.421875 
Q 24.3125 30.421875 26.359375 31.25 
Q 28.421875 32.078125 30.078125 33.78125 
Q 31.734375 35.5 32.8125 38.109375 
Q 33.890625 40.71875 33.890625 44.28125 
z
" id="LiberationSansNarrow-57"/>
       <path d="M 42.046875 19.1875 
Q 42.046875 14.796875 40.890625 11.109375 
Q 39.75 7.421875 37.40625 4.734375 
Q 35.0625 2.046875 31.421875 0.53125 
Q 27.78125 -0.984375 22.796875 -0.984375 
Q 17.828125 -0.984375 14.203125 0.53125 
Q 10.59375 2.046875 8.21875 4.703125 
Q 5.859375 7.375 4.703125 11.0625 
Q 3.5625 14.75 3.5625 19.09375 
Q 3.5625 22.859375 4.515625 25.78125 
Q 5.46875 28.71875 7.03125 30.828125 
Q 8.59375 32.953125 10.609375 34.25 
Q 12.640625 35.546875 14.796875 35.984375 
L 14.796875 36.1875 
Q 12.453125 36.859375 10.59375 38.375 
Q 8.734375 39.890625 7.46875 42.015625 
Q 6.203125 44.140625 5.546875 46.71875 
Q 4.890625 49.3125 4.890625 52.203125 
Q 4.890625 55.8125 6.03125 59 
Q 7.171875 62.203125 9.421875 64.625 
Q 11.671875 67.046875 14.984375 68.4375 
Q 18.3125 69.828125 22.65625 69.828125 
Q 27.25 69.828125 30.640625 68.40625 
Q 34.03125 67 36.25 64.578125 
Q 38.484375 62.15625 39.546875 58.9375 
Q 40.625 55.71875 40.625 52.09375 
Q 40.625 49.265625 39.96875 46.671875 
Q 39.3125 44.09375 38.0625 41.96875 
Q 36.8125 39.84375 34.9375 38.34375 
Q 33.0625 36.859375 30.609375 36.28125 
L 30.609375 36.078125 
Q 33.0625 35.59375 35.15625 34.296875 
Q 37.25 33.015625 38.765625 30.890625 
Q 40.28125 28.765625 41.15625 25.828125 
Q 42.046875 22.90625 42.046875 19.1875 
z
M 33.15625 51.609375 
Q 33.15625 54.203125 32.609375 56.34375 
Q 32.078125 58.5 30.828125 60.03125 
Q 29.59375 61.578125 27.59375 62.421875 
Q 25.59375 63.28125 22.65625 63.28125 
Q 19.828125 63.28125 17.875 62.421875 
Q 15.921875 61.578125 14.640625 60.03125 
Q 13.375 58.5 12.8125 56.34375 
Q 12.25 54.203125 12.25 51.609375 
Q 12.25 49.5625 12.6875 47.40625 
Q 13.140625 45.265625 14.3125 43.5 
Q 15.484375 41.75 17.5 40.625 
Q 19.53125 39.5 22.75 39.5 
Q 26.171875 39.5 28.21875 40.625 
Q 30.28125 41.75 31.375 43.5 
Q 32.46875 45.265625 32.8125 47.40625 
Q 33.15625 49.5625 33.15625 51.609375 
z
M 34.578125 20.015625 
Q 34.578125 22.515625 34.015625 24.828125 
Q 33.453125 27.15625 32.078125 28.9375 
Q 30.71875 30.71875 28.421875 31.8125 
Q 26.125 32.90625 22.65625 32.90625 
Q 19.484375 32.90625 17.265625 31.8125 
Q 15.046875 30.71875 13.671875 28.90625 
Q 12.3125 27.09375 11.671875 24.71875 
Q 11.03125 22.359375 11.03125 19.828125 
Q 11.03125 16.65625 11.671875 14.03125 
Q 12.3125 11.421875 13.703125 9.546875 
Q 15.09375 7.671875 17.375 6.640625 
Q 19.671875 5.609375 22.90625 5.609375 
Q 26.171875 5.609375 28.421875 6.640625 
Q 30.671875 7.671875 32.03125 9.546875 
Q 33.40625 11.421875 33.984375 14.078125 
Q 34.578125 16.75 34.578125 20.015625 
z
" id="LiberationSansNarrow-56"/>
       <path d="M 42.390625 34.421875 
Q 42.390625 24.515625 40.84375 17.75 
Q 39.3125 10.984375 36.640625 6.8125 
Q 33.984375 2.640625 30.390625 0.828125 
Q 26.8125 -0.984375 22.703125 -0.984375 
Q 18.609375 -0.984375 15.03125 0.828125 
Q 11.46875 2.640625 8.828125 6.78125 
Q 6.203125 10.9375 4.703125 17.703125 
Q 3.21875 24.46875 3.21875 34.421875 
Q 3.21875 44.828125 4.703125 51.640625 
Q 6.203125 58.453125 8.828125 62.5 
Q 11.46875 66.546875 15.078125 68.1875 
Q 18.703125 69.828125 22.953125 69.828125 
Q 27 69.828125 30.53125 68.1875 
Q 34.078125 66.546875 36.71875 62.5 
Q 39.359375 58.453125 40.875 51.640625 
Q 42.390625 44.828125 42.390625 34.421875 
z
M 35.0625 34.421875 
Q 35.0625 42.625 34.28125 48.0625 
Q 33.5 53.515625 31.9375 56.765625 
Q 30.375 60.015625 28.09375 61.359375 
Q 25.828125 62.703125 22.953125 62.703125 
Q 19.921875 62.703125 17.578125 61.328125 
Q 15.234375 59.96875 13.671875 56.71875 
Q 12.109375 53.46875 11.296875 48.015625 
Q 10.5 42.578125 10.5 34.421875 
Q 10.5 26.515625 11.296875 21.09375 
Q 12.109375 15.671875 13.6875 12.375 
Q 15.28125 9.078125 17.578125 7.640625 
Q 19.875 6.203125 22.796875 6.203125 
Q 25.640625 6.203125 27.90625 7.640625 
Q 30.171875 9.078125 31.75 12.375 
Q 33.34375 15.671875 34.203125 21.09375 
Q 35.0625 26.515625 35.0625 34.421875 
z
" id="LiberationSansNarrow-48"/>
      </defs>
      <g transform="translate(61.049754 269.345625)scale(0.14 -0.14)">
       <use xlink:href="#LiberationSansNarrow-49"/>
       <use x="45.605469" xlink:href="#LiberationSansNarrow-57"/>
       <use x="91.210938" xlink:href="#LiberationSansNarrow-56"/>
       <use x="136.816406" xlink:href="#LiberationSansNarrow-48"/>
      </g>
     </g>
    </g>
    <g id="xtick_2">
     <g id="line2d_2">
      <path clip-path="url(#p0c3762d9b4)" d="M 134.486409 252.2 
L 134.486409 17.64 
" style="fill:none;stroke:#b0b0b0;stroke-dasharray:1.48,0.64;stroke-dashoffset:0;stroke-width:0.4;"/>
     </g>
     <g id="text_2">
      <!-- 1985 -->
      <defs>
       <path d="M 42.140625 22.40625 
Q 42.140625 17.234375 40.859375 12.9375 
Q 39.59375 8.640625 37.078125 5.53125 
Q 34.578125 2.4375 30.8125 0.71875 
Q 27.046875 -0.984375 22.125 -0.984375 
Q 17.671875 -0.984375 14.375 0.28125 
Q 11.078125 1.5625 8.8125 3.78125 
Q 6.546875 6 5.203125 8.984375 
Q 3.859375 11.96875 3.265625 15.375 
L 10.546875 16.40625 
Q 10.984375 14.453125 11.78125 12.625 
Q 12.59375 10.796875 13.984375 9.34375 
Q 15.375 7.90625 17.40625 7.046875 
Q 19.4375 6.203125 22.3125 6.203125 
Q 25.09375 6.203125 27.390625 7.25 
Q 29.6875 8.296875 31.296875 10.34375 
Q 32.90625 12.40625 33.78125 15.375 
Q 34.671875 18.359375 34.671875 22.21875 
Q 34.671875 25.390625 33.84375 28.046875 
Q 33.015625 30.71875 31.453125 32.640625 
Q 29.890625 34.578125 27.609375 35.640625 
Q 25.34375 36.71875 22.46875 36.71875 
Q 20.65625 36.71875 19.140625 36.328125 
Q 17.625 35.9375 16.328125 35.25 
Q 15.046875 34.578125 13.96875 33.671875 
Q 12.890625 32.765625 11.96875 31.78125 
L 4.9375 31.78125 
L 6.78125 68.796875 
L 38.875 68.796875 
L 38.875 61.328125 
L 13.375 61.328125 
L 12.3125 39.5 
Q 14.203125 41.3125 17.078125 42.59375 
Q 19.96875 43.890625 23.921875 43.890625 
Q 28.125 43.890625 31.484375 42.328125 
Q 34.859375 40.765625 37.21875 37.90625 
Q 39.59375 35.0625 40.859375 31.109375 
Q 42.140625 27.15625 42.140625 22.40625 
z
" id="LiberationSansNarrow-53"/>
      </defs>
      <g transform="translate(121.715784 269.345625)scale(0.14 -0.14)">
       <use xlink:href="#LiberationSansNarrow-49"/>
       <use x="45.605469" xlink:href="#LiberationSansNarrow-57"/>
       <use x="91.210938" xlink:href="#LiberationSansNarrow-56"/>
       <use x="136.816406" xlink:href="#LiberationSansNarrow-53"/>
      </g>
     </g>
    </g>
    <g id="xtick_3">
     <g id="line2d_3">
      <path clip-path="url(#p0c3762d9b4)" d="M 195.119235 252.2 
L 195.119235 17.64 
" style="fill:none;stroke:#b0b0b0;stroke-dasharray:1.48,0.64;stroke-dashoffset:0;stroke-width:0.4;"/>
     </g>
     <g id="text_3">
      <!-- 1990 -->
      <g transform="translate(182.34861 269.345625)scale(0.14 -0.14)">
       <use xlink:href="#LiberationSansNarrow-49"/>
       <use x="45.605469" xlink:href="#LiberationSansNarrow-57"/>
       <use x="91.210938" xlink:href="#LiberationSansNarrow-57"/>
       <use x="136.816406" xlink:href="#LiberationSansNarrow-48"/>
      </g>
     </g>
    </g>
    <g id="xtick_4">
     <g id="line2d_4">
      <path clip-path="url(#p0c3762d9b4)" d="M 255.752061 252.2 
L 255.752061 17.64 
" style="fill:none;stroke:#b0b0b0;stroke-dasharray:1.48,0.64;stroke-dashoffset:0;stroke-width:0.4;"/>
     </g>
     <g id="text_4">
      <!-- 1995 -->
      <g transform="translate(242.981436 269.345625)scale(0.14 -0.14)">
       <use xlink:href="#LiberationSansNarrow-49"/>
       <use x="45.605469" xlink:href="#LiberationSansNarrow-57"/>
       <use x="91.210938" xlink:href="#LiberationSansNarrow-57"/>
       <use x="136.816406" xlink:href="#LiberationSansNarrow-53"/>
      </g>
     </g>
    </g>
    <g id="xtick_5">
     <g id="line2d_5">
      <path clip-path="url(#p0c3762d9b4)" d="M 316.384886 252.2 
L 316.384886 17.64 
" style="fill:none;stroke:#b0b0b0;stroke-dasharray:1.48,0.64;stroke-dashoffset:0;stroke-width:0.4;"/>
     </g>
     <g id="text_5">
      <!-- 2000 -->
      <defs>
       <path d="M 4.109375 0 
L 4.109375 6.203125 
Q 6.15625 11.921875 9.109375 16.28125 
Q 12.0625 20.65625 15.3125 24.1875 
Q 18.5625 27.734375 21.734375 30.765625 
Q 24.90625 33.796875 27.46875 36.8125 
Q 30.03125 39.84375 31.609375 43.15625 
Q 33.203125 46.484375 33.203125 50.6875 
Q 33.203125 53.609375 32.46875 55.828125 
Q 31.734375 58.0625 30.390625 59.5625 
Q 29.046875 61.078125 27.140625 61.828125 
Q 25.25 62.59375 22.90625 62.59375 
Q 20.75 62.59375 18.84375 61.859375 
Q 16.9375 61.140625 15.453125 59.671875 
Q 13.96875 58.203125 13.03125 56.03125 
Q 12.109375 53.859375 11.8125 50.984375 
L 4.4375 51.8125 
Q 4.78125 55.515625 6.125 58.78125 
Q 7.46875 62.0625 9.78125 64.53125 
Q 12.109375 67 15.359375 68.40625 
Q 18.609375 69.828125 22.90625 69.828125 
Q 27.09375 69.828125 30.390625 68.609375 
Q 33.6875 67.390625 35.9375 64.984375 
Q 38.1875 62.59375 39.40625 59.078125 
Q 40.625 55.5625 40.625 50.984375 
Q 40.625 47.515625 39.59375 44.390625 
Q 38.578125 41.265625 36.859375 38.421875 
Q 35.15625 35.59375 32.90625 32.953125 
Q 30.671875 30.328125 28.21875 27.828125 
L 23.296875 22.859375 
Q 20.796875 20.359375 18.625 17.859375 
Q 16.453125 15.375 14.734375 12.8125 
Q 13.03125 10.25 12.0625 7.46875 
L 41.5 7.46875 
L 41.5 0 
z
" id="LiberationSansNarrow-50"/>
      </defs>
      <g transform="translate(303.614261 269.345625)scale(0.14 -0.14)">
       <use xlink:href="#LiberationSansNarrow-50"/>
       <use x="45.605469" xlink:href="#LiberationSansNarrow-48"/>
       <use x="91.210938" xlink:href="#LiberationSansNarrow-48"/>
       <use x="136.816406" xlink:href="#LiberationSansNarrow-48"/>
      </g>
     </g>
    </g>
    <g id="xtick_6">
     <g id="line2d_6">
      <path clip-path="url(#p0c3762d9b4)" d="M 377.050917 252.2 
L 377.050917 17.64 
" style="fill:none;stroke:#b0b0b0;stroke-dasharray:1.48,0.64;stroke-dashoffset:0;stroke-width:0.4;"/>
     </g>
     <g id="text_6">
      <!-- 2005 -->
      <g transform="translate(364.280292 269.345625)scale(0.14 -0.14)">
       <use xlink:href="#LiberationSansNarrow-50"/>
       <use x="45.605469" xlink:href="#LiberationSansNarrow-48"/>
       <use x="91.210938" xlink:href="#LiberationSansNarrow-48"/>
       <use x="136.816406" xlink:href="#LiberationSansNarrow-53"/>
      </g>
     </g>
    </g>
    <g id="xtick_7">
     <g id="line2d_7">
      <path clip-path="url(#p0c3762d9b4)" d="M 437.683742 252.2 
L 437.683742 17.64 
" style="fill:none;stroke:#b0b0b0;stroke-dasharray:1.48,0.64;stroke-dashoffset:0;stroke-width:0.4;"/>
     </g>
     <g id="text_7">
      <!-- 2010 -->
      <g transform="translate(424.913117 269.345625)scale(0.14 -0.14)">
       <use xlink:href="#LiberationSansNarrow-50"/>
       <use x="45.605469" xlink:href="#LiberationSansNarrow-48"/>
       <use x="91.210938" xlink:href="#LiberationSansNarrow-49"/>
       <use x="136.816406" xlink:href="#LiberationSansNarrow-48"/>
      </g>
     </g>
    </g>
    <g id="xtick_8">
     <g id="line2d_8">
      <path clip-path="url(#p0c3762d9b4)" d="M 498.316568 252.2 
L 498.316568 17.64 
" style="fill:none;stroke:#b0b0b0;stroke-dasharray:1.48,0.64;stroke-dashoffset:0;stroke-width:0.4;"/>
     </g>
     <g id="text_8">
      <!-- 2015 -->
      <g transform="translate(485.545943 269.345625)scale(0.14 -0.14)">
       <use xlink:href="#LiberationSansNarrow-50"/>
       <use x="45.605469" xlink:href="#LiberationSansNarrow-48"/>
       <use x="91.210938" xlink:href="#LiberationSansNarrow-49"/>
       <use x="136.816406" xlink:href="#LiberationSansNarrow-53"/>
      </g>
     </g>
    </g>
   </g>
   <g id="matplotlib.axis_2">
    <g id="ytick_1">
     <g id="line2d_9">
      <path clip-path="url(#p0c3762d9b4)" d="M 38.05 242.541787 
L 558.36 242.541787 
" style="fill:none;stroke:#b0b0b0;stroke-dasharray:1.48,0.64;stroke-dashoffset:0;stroke-width:0.4;"/>
     </g>
     <g id="text_9">
      <!-- 0.0 -->
      <defs>
       <path d="M 7.46875 0 
L 7.46875 10.6875 
L 15.328125 10.6875 
L 15.328125 0 
z
" id="LiberationSansNarrow-46"/>
      </defs>
      <g transform="translate(15.087812 247.6146)scale(0.14 -0.14)">
       <use xlink:href="#LiberationSansNarrow-48"/>
       <use x="45.605469" xlink:href="#LiberationSansNarrow-46"/>
       <use x="68.408203" xlink:href="#LiberationSansNarrow-48"/>
      </g>
     </g>
    </g>
    <g id="ytick_2">
     <g id="line2d_10">
      <path clip-path="url(#p0c3762d9b4)" d="M 38.05 207.192289 
L 558.36 207.192289 
" style="fill:none;stroke:#b0b0b0;stroke-dasharray:1.48,0.64;stroke-dashoffset:0;stroke-width:0.4;"/>
     </g>
     <g id="text_10">
      <!-- 0.5 -->
      <g transform="translate(15.087812 212.265101)scale(0.14 -0.14)">
       <use xlink:href="#LiberationSansNarrow-48"/>
       <use x="45.605469" xlink:href="#LiberationSansNarrow-46"/>
       <use x="68.408203" xlink:href="#LiberationSansNarrow-53"/>
      </g>
     </g>
    </g>
    <g id="ytick_3">
     <g id="line2d_11">
      <path clip-path="url(#p0c3762d9b4)" d="M 38.05 171.84279 
L 558.36 171.84279 
" style="fill:none;stroke:#b0b0b0;stroke-dasharray:1.48,0.64;stroke-dashoffset:0;stroke-width:0.4;"/>
     </g>
     <g id="text_11">
      <!-- 1.0 -->
      <g transform="translate(15.087812 176.915603)scale(0.14 -0.14)">
       <use xlink:href="#LiberationSansNarrow-49"/>
       <use x="45.605469" xlink:href="#LiberationSansNarrow-46"/>
       <use x="68.408203" xlink:href="#LiberationSansNarrow-48"/>
      </g>
     </g>
    </g>
    <g id="ytick_4">
     <g id="line2d_12">
      <path clip-path="url(#p0c3762d9b4)" d="M 38.05 136.493292 
L 558.36 136.493292 
" style="fill:none;stroke:#b0b0b0;stroke-dasharray:1.48,0.64;stroke-dashoffset:0;stroke-width:0.4;"/>
     </g>
     <g id="text_12">
      <!-- 1.5 -->
      <g transform="translate(15.087812 141.566104)scale(0.14 -0.14)">
       <use xlink:href="#LiberationSansNarrow-49"/>
       <use x="45.605469" xlink:href="#LiberationSansNarrow-46"/>
       <use x="68.408203" xlink:href="#LiberationSansNarrow-53"/>
      </g>
     </g>
    </g>
    <g id="ytick_5">
     <g id="line2d_13">
      <path clip-path="url(#p0c3762d9b4)" d="M 38.05 101.143793 
L 558.36 101.143793 
" style="fill:none;stroke:#b0b0b0;stroke-dasharray:1.48,0.64;stroke-dashoffset:0;stroke-width:0.4;"/>
     </g>
     <g id="text_13">
      <!-- 2.0 -->
      <g transform="translate(15.087812 106.216606)scale(0.14 -0.14)">
       <use xlink:href="#LiberationSansNarrow-50"/>
       <use x="45.605469" xlink:href="#LiberationSansNarrow-46"/>
       <use x="68.408203" xlink:href="#LiberationSansNarrow-48"/>
      </g>
     </g>
    </g>
    <g id="ytick_6">
     <g id="line2d_14">
      <path clip-path="url(#p0c3762d9b4)" d="M 38.05 65.794295 
L 558.36 65.794295 
" style="fill:none;stroke:#b0b0b0;stroke-dasharray:1.48,0.64;stroke-dashoffset:0;stroke-width:0.4;"/>
     </g>
     <g id="text_14">
      <!-- 2.5 -->
      <g transform="translate(15.087812 70.867107)scale(0.14 -0.14)">
       <use xlink:href="#LiberationSansNarrow-50"/>
       <use x="45.605469" xlink:href="#LiberationSansNarrow-46"/>
       <use x="68.408203" xlink:href="#LiberationSansNarrow-53"/>
      </g>
     </g>
    </g>
    <g id="ytick_7">
     <g id="line2d_15">
      <path clip-path="url(#p0c3762d9b4)" d="M 38.05 30.444796 
L 558.36 30.444796 
" style="fill:none;stroke:#b0b0b0;stroke-dasharray:1.48,0.64;stroke-dashoffset:0;stroke-width:0.4;"/>
     </g>
     <g id="text_15">
      <!-- 3.0 -->
      <defs>
       <path d="M 42 19 
Q 42 14.265625 40.75 10.546875 
Q 39.5 6.84375 37.0625 4.265625 
Q 34.625 1.703125 31.046875 0.359375 
Q 27.484375 -0.984375 22.859375 -0.984375 
Q 17.625 -0.984375 14.03125 0.609375 
Q 10.453125 2.203125 8.125 4.8125 
Q 5.8125 7.421875 4.640625 10.765625 
Q 3.46875 14.109375 3.125 17.671875 
L 10.546875 18.5 
Q 10.890625 15.765625 11.734375 13.515625 
Q 12.59375 11.28125 14.078125 9.671875 
Q 15.578125 8.0625 17.75 7.171875 
Q 19.921875 6.296875 22.859375 6.296875 
Q 28.328125 6.296875 31.421875 9.5625 
Q 34.515625 12.84375 34.515625 19.28125 
Q 34.515625 23.09375 33.125 25.40625 
Q 31.734375 27.734375 29.6875 29.03125 
Q 27.640625 30.328125 25.21875 30.765625 
Q 22.796875 31.203125 20.75 31.203125 
L 16.65625 31.203125 
L 16.65625 38.8125 
L 20.5625 38.8125 
Q 22.609375 38.8125 24.828125 39.328125 
Q 27.046875 39.84375 28.859375 41.1875 
Q 30.671875 42.53125 31.859375 44.828125 
Q 33.0625 47.125 33.0625 50.6875 
Q 33.0625 56.203125 30.375 59.390625 
Q 27.6875 62.59375 22.46875 62.59375 
Q 17.671875 62.59375 14.734375 59.609375 
Q 11.8125 56.640625 11.328125 51.21875 
L 4.109375 51.90625 
Q 4.546875 56.453125 6.125 59.8125 
Q 7.71875 63.1875 10.171875 65.40625 
Q 12.640625 67.625 15.8125 68.71875 
Q 19 69.828125 22.5625 69.828125 
Q 27.296875 69.828125 30.6875 68.375 
Q 34.078125 66.9375 36.21875 64.46875 
Q 38.375 62.015625 39.40625 58.6875 
Q 40.4375 55.375 40.4375 51.609375 
Q 40.4375 48.578125 39.75 45.9375 
Q 39.0625 43.3125 37.625 41.203125 
Q 36.1875 39.109375 33.953125 37.59375 
Q 31.734375 36.078125 28.609375 35.296875 
L 28.609375 35.109375 
Q 32.03125 34.671875 34.546875 33.21875 
Q 37.0625 31.78125 38.71875 29.625 
Q 40.375 27.484375 41.1875 24.75 
Q 42 22.015625 42 19 
z
" id="LiberationSansNarrow-51"/>
      </defs>
      <g transform="translate(15.087812 35.517609)scale(0.14 -0.14)">
       <use xlink:href="#LiberationSansNarrow-51"/>
       <use x="45.605469" xlink:href="#LiberationSansNarrow-46"/>
       <use x="68.408203" xlink:href="#LiberationSansNarrow-48"/>
      </g>
     </g>
    </g>
   </g>
   <g id="line2d_16">
    <path clip-path="url(#p0c3762d9b4)" d="M 61.700455 191.852193 
L 73.820379 188.574332 
L 85.973508 182.347224 
L 98.093432 177.603611 
L 110.213356 179.415518 
L 122.33328 180.44943 
L 134.486409 167.917633 
L 146.606333 148.332122 
L 158.726258 139.859848 
L 170.846182 142.113777 
L 182.999311 145.623235 
L 195.119235 147.771895 
L 207.239159 146.583615 
L 219.359083 142.349451 
L 231.512212 130.913056 
L 243.632136 120.124888 
L 255.752061 119.727871 
L 267.871985 127.181309 
L 280.025114 135.950884 
L 292.145038 136.790358 
L 304.264962 130.942205 
L 316.384886 135.344643 
L 328.538015 141.761189 
L 340.657939 137.469748 
L 352.777864 126.399944 
L 364.897788 108.746551 
L 377.050917 87.233132 
L 389.170841 69.7543 
L 401.290765 71.088743 
L 413.410689 80.856321 
L 425.563818 76.061682 
L 437.683742 77.540656 
L 449.803667 86.233251 
L 461.923591 80.37649 
L 474.07672 67.425336 
L 486.196644 61.130035 
L 498.316568 51.997319 
L 510.436492 31.396264 
L 522.589621 28.301818 
L 534.709545 48.358975 
" style="fill:none;stroke:#1f77b4;stroke-linecap:square;"/>
   </g>
   <g id="line2d_17">
    <path clip-path="url(#p0c3762d9b4)" d="M 61.700455 215.67638 
L 73.820379 216.670712 
L 85.973508 217.291812 
L 98.093432 216.777772 
L 110.213356 214.282972 
L 122.33328 206.948096 
L 134.486409 195.431777 
L 146.606333 189.836298 
L 158.726258 191.387 
L 170.846182 191.696629 
L 182.999311 190.92938 
L 195.119235 192.581738 
L 207.239159 191.712528 
L 219.359083 185.744985 
L 231.512212 176.9569 
L 243.632136 169.429301 
L 255.752061 159.8046 
L 267.871985 140.38803 
L 280.025114 110.589292 
L 292.145038 85.553776 
L 304.264962 70.839014 
L 316.384886 70.019225 
L 328.538015 86.339271 
L 340.657939 96.940998 
L 352.777864 95.84234 
L 364.897788 88.709365 
L 377.050917 74.465649 
L 389.170841 63.057549 
L 401.290765 74.700956 
L 413.410689 98.656052 
L 425.563818 106.309117 
L 437.683742 108.179563 
L 449.803667 113.753752 
L 461.923591 108.104025 
L 474.07672 95.937779 
L 486.196644 90.226522 
L 498.316568 88.413095 
L 510.436492 85.684718 
L 522.589621 84.04819 
L 534.709545 88.658552 
" style="fill:none;stroke:#ff7f0e;stroke-linecap:square;"/>
   </g>
   <g id="line2d_18">
    <path clip-path="url(#p0c3762d9b4)" d="M 110.213356 182.308505 
L 122.33328 192.969516 
L 134.486409 193.185296 
L 146.606333 186.178756 
L 158.726258 179.735298 
L 170.846182 173.500665 
L 182.999311 169.014997 
L 195.119235 169.545593 
L 207.239159 166.991912 
L 219.359083 149.223476 
L 231.512212 122.375936 
L 243.632136 114.731625 
L 255.752061 124.20897 
L 267.871985 139.330597 
L 280.025114 151.439061 
L 292.145038 142.2061 
L 304.264962 123.530357 
L 316.384886 128.122652 
L 328.538015 144.918844 
L 340.657939 148.896815 
L 352.777864 134.579901 
L 364.897788 113.332308 
L 377.050917 91.188816 
L 389.170841 70.46594 
L 401.290765 72.232577 
L 413.410689 89.045328 
L 425.563818 81.83297 
L 437.683742 70.518045 
L 449.803667 71.686161 
L 461.923591 70.484507 
L 474.07672 71.392433 
L 486.196644 79.128105 
L 498.316568 89.029406 
L 510.436492 92.682685 
L 522.589621 93.541457 
L 534.709545 99.339056 
" style="fill:none;stroke:#2ca02c;stroke-linecap:square;"/>
   </g>
   <g id="line2d_19">
    <path clip-path="url(#p0c3762d9b4)" d="M 122.33328 209.687519 
L 134.486409 207.113814 
L 146.606333 205.025131 
L 158.726258 204.661364 
L 170.846182 203.907943 
L 182.999311 202.702866 
L 195.119235 200.996005 
L 207.239159 197.077399 
L 219.359083 193.065685 
L 231.512212 190.398508 
L 243.632136 186.697181 
L 255.752061 178.442941 
L 267.871985 166.991234 
L 280.025114 154.730995 
L 292.145038 144.245272 
L 304.264962 139.158772 
L 316.384886 142.016007 
L 328.538015 151.269587 
L 340.657939 158.483539 
L 352.777864 156.31409 
L 364.897788 151.104313 
L 377.050917 148.062992 
L 389.170841 147.85044 
L 401.290765 156.188925 
L 413.410689 168.334077 
L 425.563818 169.977999 
L 437.683742 166.645042 
L 449.803667 164.526944 
L 461.923591 157.405908 
L 474.07672 146.791337 
L 486.196644 141.286157 
L 498.316568 140.407921 
L 510.436492 137.234626 
L 522.589621 133.768893 
L 534.709545 134.422134 
" style="fill:none;stroke:#d62728;stroke-linecap:square;"/>
   </g>
   <g id="line2d_20">
    <path clip-path="url(#p0c3762d9b4)" d="M 61.700455 226.724991 
L 73.820379 220.624688 
L 85.973508 217.816425 
L 98.093432 215.307042 
L 110.213356 211.218089 
L 122.33328 204.509826 
L 134.486409 194.080894 
L 146.606333 181.171349 
L 158.726258 168.033081 
L 170.846182 158.149581 
L 182.999311 158.341529 
L 195.119235 170.506078 
L 207.239159 184.584416 
L 219.359083 193.743112 
L 231.512212 195.555927 
L 243.632136 194.589958 
L 255.752061 196.299406 
L 267.871985 200.084861 
L 280.025114 201.527965 
L 292.145038 195.460084 
L 304.264962 189.419236 
L 316.384886 194.015653 
L 328.538015 201.349142 
L 340.657939 202.084681 
L 352.777864 196.345218 
L 364.897788 187.603864 
L 377.050917 178.797428 
L 389.170841 175.358234 
L 401.290765 180.948712 
L 413.410689 190.944175 
L 425.563818 196.413891 
L 437.683742 198.455065 
L 449.803667 199.95556 
L 461.923591 195.839227 
L 474.07672 185.791301 
L 486.196644 176.36549 
L 498.316568 169.665703 
L 510.436492 165.051725 
L 522.589621 161.968081 
L 534.709545 162.948033 
" style="fill:none;stroke:#9467bd;stroke-linecap:square;"/>
   </g>
   <g id="line2d_21">
    <path clip-path="url(#p0c3762d9b4)" d="M 110.213356 223.071758 
L 122.33328 220.71189 
L 134.486409 213.074949 
L 146.606333 200.989033 
L 158.726258 195.066565 
L 170.846182 200.001862 
L 182.999311 208.219884 
L 195.119235 212.815542 
L 207.239159 212.222015 
L 219.359083 207.6776 
L 231.512212 200.681739 
L 243.632136 195.800967 
L 255.752061 193.226781 
L 267.871985 191.154773 
L 280.025114 188.624219 
L 292.145038 181.865105 
L 304.264962 175.077481 
L 316.384886 173.974779 
L 328.538015 173.077202 
L 340.657939 167.948849 
L 352.777864 160.001422 
L 364.897788 155.394948 
L 377.050917 151.896669 
L 389.170841 147.085563 
L 401.290765 152.956912 
L 413.410689 163.835431 
L 425.563818 161.52657 
L 437.683742 162.133904 
L 449.803667 172.289529 
L 461.923591 178.827198 
L 474.07672 180.353867 
L 486.196644 179.849834 
L 498.316568 176.587088 
L 510.436492 171.240328 
L 522.589621 170.176003 
L 534.709545 174.28117 
" style="fill:none;stroke:#8c564b;stroke-linecap:square;"/>
   </g>
   <g id="line2d_22">
    <path clip-path="url(#p0c3762d9b4)" d="M 110.213356 238.485786 
L 122.33328 237.832845 
L 134.486409 236.072923 
L 146.606333 231.741237 
L 158.726258 223.279665 
L 170.846182 213.208589 
L 182.999311 209.18962 
L 195.119235 213.278144 
L 207.239159 218.304179 
L 219.359083 219.215555 
L 231.512212 217.305949 
L 243.632136 216.706112 
L 255.752061 220.266452 
L 267.871985 226.00666 
L 280.025114 227.313497 
L 292.145038 219.528159 
L 304.264962 212.122028 
L 316.384886 212.718702 
L 328.538015 213.369979 
L 340.657939 211.381519 
L 352.777864 207.168976 
L 364.897788 199.611758 
L 377.050917 190.351963 
L 389.170841 184.114049 
L 401.290765 185.110537 
L 413.410689 188.875975 
L 425.563818 183.783645 
L 437.683742 178.301515 
L 449.803667 178.033744 
L 461.923591 177.319835 
L 474.07672 177.500588 
L 486.196644 179.190844 
L 498.316568 178.939596 
L 510.436492 175.296943 
L 522.589621 172.412381 
L 534.709545 174.808613 
" style="fill:none;stroke:#e377c2;stroke-linecap:square;"/>
   </g>
   <g id="line2d_23">
    <path clip-path="url(#p0c3762d9b4)" d="M 61.700455 231.170204 
L 73.820379 231.842694 
L 85.973508 231.842442 
L 98.093432 230.22714 
L 110.213356 227.087095 
L 122.33328 222.408732 
L 134.486409 217.177985 
L 146.606333 214.869563 
L 158.726258 214.265832 
L 170.846182 211.265376 
L 182.999311 208.56281 
L 195.119235 209.210254 
L 207.239159 208.923479 
L 219.359083 207.556571 
L 231.512212 205.10196 
L 243.632136 200.734472 
L 255.752061 193.452802 
L 267.871985 180.786627 
L 280.025114 163.987945 
L 292.145038 148.26998 
L 304.264962 139.584388 
L 316.384886 143.503903 
L 328.538015 158.917171 
L 340.657939 174.365177 
L 352.777864 181.55589 
L 364.897788 182.134089 
L 377.050917 177.986513 
L 389.170841 173.279867 
L 401.290765 179.242736 
L 413.410689 193.124837 
L 425.563818 196.58836 
L 437.683742 193.053654 
L 449.803667 190.917317 
L 461.923591 186.591837 
L 474.07672 181.13453 
" style="fill:none;stroke:#7f7f7f;stroke-linecap:square;"/>
   </g>
   <g id="line2d_24">
    <path clip-path="url(#p0c3762d9b4)" d="M 134.486409 219.208787 
L 146.606333 229.872999 
L 158.726258 232.250141 
L 170.846182 230.370142 
L 182.999311 227.959381 
L 195.119235 227.861953 
L 207.239159 229.437659 
L 219.359083 229.623759 
L 231.512212 226.908637 
L 243.632136 223.513809 
L 255.752061 220.831069 
L 267.871985 218.219548 
L 280.025114 216.980491 
L 292.145038 217.265944 
L 304.264962 216.432846 
L 316.384886 215.492021 
L 328.538015 215.724963 
L 340.657939 215.449997 
L 352.777864 211.686595 
L 364.897788 204.944488 
L 377.050917 196.854316 
L 389.170841 190.322469 
L 401.290765 193.272714 
L 413.410689 202.356275 
L 425.563818 203.278439 
L 437.683742 201.99397 
L 449.803667 205.669343 
L 461.923591 208.173713 
L 474.07672 208.507616 
L 486.196644 208.256428 
L 498.316568 205.0691 
L 510.436492 199.533128 
L 522.589621 196.304131 
L 534.709545 196.796313 
" style="fill:none;stroke:#bcbd22;stroke-linecap:square;"/>
   </g>
   <g id="line2d_25">
    <path clip-path="url(#p0c3762d9b4)" d="M 61.700455 236.001985 
L 73.820379 236.694573 
L 85.973508 236.699721 
L 98.093432 236.051975 
L 110.213356 234.810435 
L 122.33328 232.131811 
L 134.486409 228.475248 
L 146.606333 227.338813 
L 158.726258 228.494371 
L 170.846182 228.301295 
L 182.999311 227.156702 
L 195.119235 227.631404 
L 207.239159 228.938872 
L 219.359083 229.366603 
L 231.512212 228.255063 
L 243.632136 226.898585 
L 255.752061 225.369657 
L 267.871985 221.82282 
L 280.025114 215.477822 
L 292.145038 207.449828 
L 304.264962 200.866717 
L 316.384886 200.117101 
L 328.538015 205.701345 
L 340.657939 211.897302 
L 352.777864 213.296858 
L 364.897788 212.197534 
L 377.050917 209.785586 
L 389.170841 206.330998 
L 401.290765 207.393743 
L 413.410689 213.175311 
L 425.563818 215.650436 
L 437.683742 215.640704 
L 449.803667 215.533787 
L 461.923591 212.770169 
L 474.07672 209.593556 
L 486.196644 208.509981 
L 498.316568 207.395814 
L 510.436492 205.545438 
L 522.589621 205.029242 
L 534.709545 207.237119 
" style="fill:none;stroke:#17becf;stroke-linecap:square;"/>
   </g>
   <g id="line2d_26">
    <path clip-path="url(#p0c3762d9b4)" d="M 85.973508 240.661063 
L 98.093432 241.404796 
L 110.213356 241.538182 
L 122.33328 241.393299 
L 134.486409 241.283678 
L 146.606333 241.373742 
L 158.726258 241.329581 
L 170.846182 240.847872 
L 182.999311 240.125609 
L 195.119235 238.974108 
L 207.239159 237.018337 
L 219.359083 234.676756 
L 231.512212 232.455024 
L 243.632136 231.780759 
L 255.752061 231.594105 
L 267.871985 230.696032 
L 280.025114 230.022667 
L 292.145038 230.103619 
L 304.264962 230.277595 
L 316.384886 231.11811 
L 328.538015 231.449642 
L 340.657939 229.244497 
L 352.777864 226.175753 
L 364.897788 225.207619 
L 377.050917 225.906227 
L 389.170841 227.341492 
L 401.290765 229.722421 
L 413.410689 232.166772 
L 425.563818 233.037309 
L 437.683742 233.774576 
L 449.803667 235.604472 
L 461.923591 236.633515 
L 474.07672 236.040408 
L 486.196644 235.302539 
L 498.316568 234.911342 
L 510.436492 233.981342 
L 522.589621 233.51621 
L 534.709545 234.490655 
" style="fill:none;stroke:#1f77b4;stroke-linecap:square;"/>
   </g>
   <g id="line2d_27">
    <path clip-path="url(#p0c3762d9b4)" d="M 122.33328 221.36344 
L 134.486409 217.653108 
L 146.606333 213.819962 
L 158.726258 210.791879 
L 170.846182 208.134399 
L 182.999311 207.430761 
L 195.119235 209.394662 
L 207.239159 210.559848 
L 219.359083 209.641954 
L 231.512212 207.17403 
L 243.632136 204.908769 
L 255.752061 202.320658 
L 267.871985 198.159162 
L 280.025114 192.065427 
L 292.145038 183.926211 
L 304.264962 177.757084 
L 316.384886 179.113791 
L 328.538015 185.363082 
L 340.657939 189.218753 
L 352.777864 187.397229 
L 364.897788 183.803902 
L 377.050917 180.147125 
L 389.170841 177.134581 
L 401.290765 181.346465 
L 413.410689 190.849728 
L 425.563818 193.330692 
L 437.683742 192.982456 
L 449.803667 194.761211 
L 461.923591 193.592876 
L 474.07672 189.713431 
L 486.196644 186.53835 
L 498.316568 183.966796 
L 510.436492 181.031341 
L 522.589621 179.892404 
L 534.709545 182.050455 
" style="fill:none;stroke:#000000;stroke-linecap:square;stroke-width:2;"/>
   </g>
   <g id="legend_1">
    <g id="patch_3">
     <path d="M 46.2134 115.724709 
L 247.980577 115.724709 
Q 250.312977 115.724709 250.312977 113.392309 
L 250.312977 25.8034 
Q 250.312977 23.471 247.980577 23.471 
L 46.2134 23.471 
Q 43.881 23.471 43.881 25.8034 
L 43.881 113.392309 
Q 43.881 115.724709 46.2134 115.724709 
z
" style="fill:#ffffff;opacity:0.8;stroke:#cccccc;stroke-linejoin:miter;"/>
    </g>
    <g id="line2d_28">
     <path d="M 48.5458 32.505406 
L 71.8698 32.505406 
" style="fill:none;stroke:#1f77b4;stroke-linecap:square;"/>
    </g>
    <g id="line2d_29"/>
    <g id="text_16">
     <!-- ЮАР -->
     <defs>
      <path d="M 78.90625 34.71875 
Q 78.90625 26.65625 77.09375 20.0625 
Q 75.296875 13.484375 71.890625 8.796875 
Q 68.5 4.109375 63.59375 1.5625 
Q 58.6875 -0.984375 52.484375 -0.984375 
Q 46.234375 -0.984375 41.453125 1.4375 
Q 36.671875 3.859375 33.375 8.21875 
Q 30.078125 12.59375 28.265625 18.625 
Q 26.46875 24.65625 26.171875 31.890625 
L 14.359375 31.890625 
L 14.359375 0 
L 6.734375 0 
L 6.734375 68.796875 
L 14.359375 68.796875 
L 14.359375 39.703125 
L 26.3125 39.703125 
Q 26.859375 46.625 28.8125 52.21875 
Q 30.765625 57.8125 34.078125 61.71875 
Q 37.40625 65.625 42.0625 67.71875 
Q 46.734375 69.828125 52.546875 69.828125 
Q 58.890625 69.828125 63.796875 67.328125 
Q 68.703125 64.84375 72.046875 60.25 
Q 75.390625 55.671875 77.140625 49.171875 
Q 78.90625 42.671875 78.90625 34.71875 
z
M 71.09375 34.71875 
Q 71.09375 40.921875 69.890625 46 
Q 68.703125 51.078125 66.359375 54.6875 
Q 64.015625 58.296875 60.546875 60.25 
Q 57.078125 62.203125 52.546875 62.203125 
Q 47.90625 62.203125 44.40625 60.25 
Q 40.921875 58.296875 38.578125 54.6875 
Q 36.234375 51.078125 35.0625 46 
Q 33.890625 40.921875 33.890625 34.71875 
Q 33.890625 28.515625 35.078125 23.359375 
Q 36.28125 18.21875 38.625 14.484375 
Q 40.96875 10.75 44.4375 8.671875 
Q 47.90625 6.59375 52.484375 6.59375 
Q 57.328125 6.59375 60.84375 8.6875 
Q 64.359375 10.796875 66.65625 14.53125 
Q 68.953125 18.265625 70.015625 23.4375 
Q 71.09375 28.609375 71.09375 34.71875 
z
" id="LiberationSansNarrow-1070"/>
      <path d="M 46.734375 0 
L 40.28125 20.125 
L 14.546875 20.125 
L 8.109375 0 
L 0.140625 0 
L 23.1875 68.796875 
L 31.890625 68.796875 
L 54.546875 0 
z
M 30.765625 50.09375 
Q 30.125 52.046875 29.546875 54.046875 
L 28.515625 57.71875 
L 27.734375 60.453125 
Q 27.4375 61.53125 27.4375 61.765625 
Q 27.34375 61.53125 27.078125 60.40625 
Q 26.8125 59.28125 26.375 57.625 
L 25.296875 53.953125 
L 24.125 50 
L 16.890625 27.390625 
L 37.984375 27.390625 
z
" id="LiberationSansNarrow-1040"/>
      <path d="M 50.34375 48.09375 
Q 50.34375 43.609375 49.125 39.71875 
Q 47.90625 35.84375 45.484375 32.984375 
Q 43.0625 30.125 39.421875 28.46875 
Q 35.796875 26.8125 30.953125 26.8125 
L 14.359375 26.8125 
L 14.359375 0 
L 6.734375 0 
L 6.734375 68.796875 
L 30.46875 68.796875 
Q 35.453125 68.796875 39.1875 67.3125 
Q 42.921875 65.828125 45.40625 63.109375 
Q 47.90625 60.40625 49.125 56.5625 
Q 50.34375 52.734375 50.34375 48.09375 
z
M 42.671875 48 
Q 42.671875 54.546875 39.40625 57.9375 
Q 36.140625 61.328125 29.546875 61.328125 
L 14.359375 61.328125 
L 14.359375 34.1875 
L 29.890625 34.1875 
Q 36.46875 34.1875 39.5625 37.75 
Q 42.671875 41.3125 42.671875 48 
z
" id="LiberationSansNarrow-1056"/>
     </defs>
     <g transform="translate(81.1994 36.587106)scale(0.11662 -0.11662)">
      <use xlink:href="#LiberationSansNarrow-1070"/>
      <use x="82.765625" xlink:href="#LiberationSansNarrow-1040"/>
      <use x="137.453125" xlink:href="#LiberationSansNarrow-1056"/>
     </g>
    </g>
    <g id="line2d_30">
     <path d="M 48.5458 47.079261 
L 71.8698 47.079261 
" style="fill:none;stroke:#ff7f0e;stroke-linecap:square;"/>
    </g>
    <g id="line2d_31"/>
    <g id="text_17">
     <!-- Швейцария -->
     <defs>
      <path d="M 6.734375 0 
L 6.734375 68.796875 
L 14.40625 68.796875 
L 14.40625 7.8125 
L 33.984375 7.8125 
L 33.984375 68.796875 
L 41.40625 68.796875 
L 41.40625 7.8125 
L 61.03125 7.8125 
L 61.03125 68.796875 
L 68.453125 68.796875 
L 68.453125 0 
z
" id="LiberationSansNarrow-1064"/>
      <path d="M 22.5625 52.828125 
Q 25.59375 52.828125 28.484375 52.234375 
Q 31.390625 51.65625 33.640625 50.140625 
Q 35.890625 48.640625 37.234375 46.09375 
Q 38.578125 43.5625 38.578125 39.59375 
Q 38.578125 37.015625 37.890625 35.03125 
Q 37.203125 33.0625 35.984375 31.640625 
Q 34.765625 30.21875 33.125 29.3125 
Q 31.5 28.421875 29.6875 27.984375 
L 29.6875 27.640625 
Q 31.84375 27.296875 33.734375 26.4375 
Q 35.640625 25.59375 37 24.09375 
Q 38.375 22.609375 39.171875 20.40625 
Q 39.984375 18.21875 39.984375 15.234375 
Q 39.984375 11.421875 38.765625 8.5625 
Q 37.546875 5.71875 35.375 3.8125 
Q 33.203125 1.90625 30.171875 0.953125 
Q 27.15625 0 23.484375 0 
L 5.671875 0 
L 5.671875 52.828125 
z
M 12.890625 6.5 
L 22.3125 6.5 
Q 25.09375 6.5 27 6.984375 
Q 28.90625 7.46875 30.078125 8.546875 
Q 31.25 9.625 31.78125 11.25 
Q 32.328125 12.890625 32.328125 15.1875 
Q 32.328125 17.625 31.765625 19.328125 
Q 31.203125 21.046875 29.953125 22.109375 
Q 28.71875 23.1875 26.703125 23.671875 
Q 24.703125 24.171875 21.875 24.171875 
L 12.890625 24.171875 
z
M 12.890625 46.140625 
L 12.890625 30.515625 
L 21.53125 30.515625 
Q 24.265625 30.515625 26.0625 30.984375 
Q 27.875 31.453125 29 32.390625 
Q 30.125 33.34375 30.5625 34.828125 
Q 31 36.328125 31 38.421875 
Q 31 42.4375 28.96875 44.28125 
Q 26.953125 46.140625 22.125 46.140625 
z
" id="LiberationSansNarrow-1074"/>
      <path d="M 10.6875 24.5625 
Q 10.6875 20.40625 11.5625 16.90625 
Q 12.453125 13.421875 13.90625 10.90625 
Q 15.375 8.40625 17.640625 7 
Q 19.921875 5.609375 23.140625 5.609375 
Q 27.828125 5.609375 30.65625 7.90625 
Q 33.5 10.203125 34.46875 13.71875 
L 40.828125 11.53125 
Q 40.140625 9.328125 38.921875 7.109375 
Q 37.703125 4.890625 35.640625 3.09375 
Q 33.59375 1.3125 30.53125 0.15625 
Q 27.484375 -0.984375 23.140625 -0.984375 
Q 13.53125 -0.984375 8.5 6 
Q 3.46875 12.984375 3.46875 26.765625 
Q 3.46875 34.1875 5 39.328125 
Q 6.546875 44.484375 9.171875 47.703125 
Q 11.8125 50.921875 15.328125 52.359375 
Q 18.84375 53.8125 22.859375 53.8125 
Q 28.328125 53.8125 31.984375 51.65625 
Q 39.0625 47.515625 41.015625 36.8125 
Q 41.9375 31.6875 41.9375 25.734375 
L 41.9375 24.5625 
z
M 34.71875 31.296875 
Q 34.71875 40.140625 31.421875 43.71875 
Q 28.125 47.3125 22.75 47.3125 
Q 18.953125 47.3125 15.328125 44.09375 
Q 10.9375 40.328125 10.6875 31.296875 
z
" id="LiberationSansNarrow-1077"/>
      <path d="M 12.640625 52.828125 
L 12.640625 23.921875 
Q 12.640625 22.796875 12.59375 20.921875 
Q 12.546875 19.046875 12.46875 17.046875 
Q 12.40625 15.046875 12.359375 13.234375 
Q 12.3125 11.421875 12.25 10.40625 
L 32.28125 52.828125 
L 40.140625 52.828125 
L 40.140625 0 
L 33.25 0 
L 33.25 32.234375 
Q 33.25 33.15625 33.296875 34.578125 
L 33.40625 37.40625 
Q 33.453125 38.875 33.5 40.234375 
L 33.640625 42.625 
L 13.375 0 
L 5.71875 0 
L 5.71875 52.828125 
z
M 25.046875 58.59375 
Q 20.609375 58.59375 17.765625 59.984375 
Q 14.9375 61.375 13.328125 63.59375 
Q 11.71875 65.828125 11.078125 68.625 
Q 10.453125 71.4375 10.359375 74.21875 
L 16.890625 74.21875 
Q 17.140625 69.1875 19.234375 66.84375 
Q 21.34375 64.5 25.046875 64.5 
Q 28.765625 64.5 30.828125 66.84375 
Q 32.90625 69.1875 33.15625 74.21875 
L 39.75 74.21875 
Q 39.65625 71.4375 39.015625 68.625 
Q 38.375 65.828125 36.734375 63.59375 
Q 35.109375 61.375 32.296875 59.984375 
Q 29.5 58.59375 25.046875 58.59375 
z
" id="LiberationSansNarrow-1081"/>
      <path d="M 12.890625 52.828125 
L 12.890625 6.390625 
L 31.984375 6.390625 
L 31.984375 52.828125 
L 39.203125 52.828125 
L 39.203125 6.390625 
L 45.0625 6.390625 
L 45.0625 -19.921875 
L 38.578125 -19.921875 
L 38.578125 0 
L 5.671875 0 
L 5.671875 52.828125 
z
" id="LiberationSansNarrow-1094"/>
      <path d="M 16.546875 -0.984375 
Q 10.015625 -0.984375 6.734375 3.21875 
Q 3.46875 7.421875 3.46875 14.75 
Q 3.46875 19.96875 5.09375 23.3125 
Q 6.734375 26.65625 9.34375 28.5625 
Q 11.96875 30.46875 15.328125 31.203125 
Q 18.703125 31.9375 22.171875 32.03125 
L 31.9375 32.234375 
L 31.9375 35.109375 
Q 31.9375 38.375 31.375 40.671875 
Q 30.8125 42.96875 29.640625 44.375 
Q 28.46875 45.796875 26.734375 46.453125 
Q 25 47.125 22.609375 47.125 
Q 20.515625 47.125 18.84375 46.75 
Q 17.1875 46.390625 15.9375 45.4375 
Q 14.703125 44.484375 13.9375 42.84375 
Q 13.1875 41.21875 12.9375 38.71875 
L 5.421875 39.546875 
Q 5.8125 42.671875 6.9375 45.28125 
Q 8.0625 47.90625 10.109375 49.796875 
Q 12.15625 51.703125 15.25 52.75 
Q 18.359375 53.8125 22.796875 53.8125 
Q 30.953125 53.8125 35.078125 49.234375 
Q 39.203125 44.671875 39.203125 36.03125 
L 39.203125 13.28125 
Q 39.203125 9.375 40.03125 7.390625 
Q 40.875 5.421875 43.265625 5.421875 
Q 43.84375 5.421875 44.453125 5.515625 
Q 45.0625 5.609375 45.609375 5.765625 
L 45.609375 0.296875 
Q 44.234375 -0.09375 42.890625 -0.28125 
Q 41.546875 -0.484375 40.046875 -0.484375 
Q 37.984375 -0.484375 36.515625 0.171875 
Q 35.0625 0.828125 34.15625 2.171875 
Q 33.25 3.515625 32.765625 5.484375 
Q 32.28125 7.46875 32.125 10.109375 
L 31.9375 10.109375 
Q 30.765625 7.5625 29.375 5.515625 
Q 27.984375 3.46875 26.140625 2.03125 
Q 24.3125 0.59375 21.9375 -0.1875 
Q 19.578125 -0.984375 16.546875 -0.984375 
z
M 18.21875 5.609375 
Q 21.6875 5.609375 24.25 7.140625 
Q 26.8125 8.6875 28.515625 11.078125 
Q 30.21875 13.484375 31.078125 16.3125 
Q 31.9375 19.140625 31.9375 21.734375 
L 31.9375 26.078125 
L 24.03125 25.875 
Q 21.390625 25.828125 19 25.40625 
Q 16.609375 25 14.8125 23.78125 
Q 13.03125 22.5625 11.953125 20.359375 
Q 10.890625 18.171875 10.890625 14.59375 
Q 10.890625 10.296875 12.796875 7.953125 
Q 14.703125 5.609375 18.21875 5.609375 
z
" id="LiberationSansNarrow-1072"/>
      <path d="M 42.140625 26.65625 
Q 42.140625 20.65625 41.359375 15.578125 
Q 40.578125 10.5 38.6875 6.828125 
Q 36.8125 3.171875 33.765625 1.09375 
Q 30.71875 -0.984375 26.21875 -0.984375 
Q 21.578125 -0.984375 18.078125 1.171875 
Q 14.59375 3.328125 12.796875 8.203125 
L 12.546875 8.203125 
Q 12.59375 8.109375 12.609375 7.328125 
Q 12.640625 6.546875 12.671875 5.375 
Q 12.703125 4.203125 12.71875 2.75 
Q 12.75 1.3125 12.75 -0.09375 
L 12.75 -20.75 
L 5.515625 -20.75 
L 5.515625 42.046875 
Q 5.515625 43.953125 5.484375 45.703125 
Q 5.46875 47.46875 5.4375 48.90625 
Q 5.421875 50.34375 5.375 51.359375 
Q 5.328125 52.390625 5.28125 52.828125 
L 12.25 52.828125 
Q 12.3125 52.6875 12.359375 51.8125 
L 12.5 49.703125 
Q 12.546875 48.4375 12.59375 47.015625 
Q 12.640625 45.609375 12.640625 44.34375 
L 12.796875 44.34375 
Q 13.765625 46.875 15.0625 48.65625 
Q 16.359375 50.4375 18.015625 51.578125 
Q 19.671875 52.734375 21.671875 53.25 
Q 23.6875 53.765625 26.21875 53.765625 
Q 30.71875 53.765625 33.765625 51.8125 
Q 36.8125 49.859375 38.6875 46.3125 
Q 40.578125 42.78125 41.359375 37.765625 
Q 42.140625 32.765625 42.140625 26.65625 
z
M 34.578125 26.46875 
Q 34.578125 31.34375 34.109375 35.15625 
Q 33.640625 38.96875 32.4375 41.59375 
Q 31.25 44.234375 29.296875 45.59375 
Q 27.34375 46.96875 24.359375 46.96875 
Q 21.96875 46.96875 19.84375 46.140625 
Q 17.71875 45.3125 16.125 42.96875 
Q 14.546875 40.625 13.640625 36.5 
Q 12.75 32.375 12.75 25.78125 
Q 12.75 20.171875 13.5 16.28125 
Q 14.265625 12.40625 15.71875 10.015625 
Q 17.1875 7.625 19.328125 6.5625 
Q 21.484375 5.515625 24.3125 5.515625 
Q 27.34375 5.515625 29.296875 6.921875 
Q 31.25 8.34375 32.4375 11.03125 
Q 33.640625 13.71875 34.109375 17.59375 
Q 34.578125 21.484375 34.578125 26.46875 
z
" id="LiberationSansNarrow-1088"/>
      <path d="M 12.640625 52.828125 
L 12.640625 23.921875 
Q 12.640625 22.796875 12.59375 20.921875 
Q 12.546875 19.046875 12.46875 17.046875 
Q 12.40625 15.046875 12.359375 13.234375 
Q 12.3125 11.421875 12.25 10.40625 
L 32.28125 52.828125 
L 40.140625 52.828125 
L 40.140625 0 
L 33.25 0 
L 33.25 32.234375 
Q 33.25 33.15625 33.296875 34.578125 
L 33.40625 37.40625 
Q 33.453125 38.875 33.5 40.234375 
L 33.640625 42.625 
L 13.375 0 
L 5.71875 0 
L 5.71875 52.828125 
z
" id="LiberationSansNarrow-1080"/>
      <path d="M 21.4375 22.359375 
L 8.84375 0 
L 0.6875 0 
L 14.453125 23 
Q 9.234375 24.3125 6.859375 28.296875 
Q 4.5 32.28125 4.5 38.234375 
Q 4.5 45.515625 8.8125 49.171875 
Q 13.140625 52.828125 21.4375 52.828125 
L 38.71875 52.828125 
L 38.71875 0 
L 31.546875 0 
L 31.546875 22.359375 
z
M 31.546875 46.625 
L 22.171875 46.625 
Q 16.9375 46.625 14.546875 44.375 
Q 12.15625 42.140625 12.15625 37.59375 
Q 12.15625 33.015625 14.28125 30.734375 
Q 16.40625 28.46875 21.390625 28.46875 
L 31.546875 28.46875 
z
" id="LiberationSansNarrow-1103"/>
     </defs>
     <g transform="translate(81.1994 51.160961)scale(0.11662 -0.11662)">
      <use xlink:href="#LiberationSansNarrow-1064"/>
      <use x="75.195312" xlink:href="#LiberationSansNarrow-1074"/>
      <use x="118.734375" xlink:href="#LiberationSansNarrow-1077"/>
      <use x="164.339844" xlink:href="#LiberationSansNarrow-1081"/>
      <use x="210.189453" xlink:href="#LiberationSansNarrow-1094"/>
      <use x="257.162109" xlink:href="#LiberationSansNarrow-1072"/>
      <use x="302.767578" xlink:href="#LiberationSansNarrow-1088"/>
      <use x="348.373047" xlink:href="#LiberationSansNarrow-1080"/>
      <use x="394.222656" xlink:href="#LiberationSansNarrow-1103"/>
     </g>
    </g>
    <g id="line2d_32">
     <path d="M 48.5458 61.449032 
L 71.8698 61.449032 
" style="fill:none;stroke:#2ca02c;stroke-linecap:square;"/>
    </g>
    <g id="line2d_33"/>
    <g id="text_18">
     <!-- Сингапур -->
     <defs>
      <path d="M 31.6875 62.203125 
Q 26.90625 62.203125 23.1875 60.25 
Q 19.484375 58.296875 16.984375 54.6875 
Q 14.5 51.078125 13.203125 46 
Q 11.921875 40.921875 11.921875 34.71875 
Q 11.921875 28.515625 13.3125 23.359375 
Q 14.703125 18.21875 17.265625 14.5 
Q 19.828125 10.796875 23.578125 8.734375 
Q 27.34375 6.6875 32.03125 6.6875 
Q 35.296875 6.6875 37.984375 7.734375 
Q 40.671875 8.796875 42.859375 10.6875 
Q 45.0625 12.59375 46.765625 15.203125 
Q 48.484375 17.828125 49.8125 21 
L 56.0625 17.1875 
Q 54.546875 13.328125 52.296875 10 
Q 50.046875 6.6875 47.015625 4.25 
Q 44 1.8125 40.1875 0.40625 
Q 36.375 -0.984375 31.640625 -0.984375 
Q 24.8125 -0.984375 19.65625 1.671875 
Q 14.5 4.34375 11.0625 9.109375 
Q 7.625 13.875 5.890625 20.40625 
Q 4.15625 26.953125 4.15625 34.71875 
Q 4.15625 42.78125 5.984375 49.265625 
Q 7.8125 55.765625 11.296875 60.328125 
Q 14.796875 64.890625 19.921875 67.359375 
Q 25.046875 69.828125 31.59375 69.828125 
Q 40.578125 69.828125 46.625 65.53125 
Q 52.6875 61.234375 55.515625 52.78125 
L 48.296875 49.859375 
Q 47.515625 52.296875 46.140625 54.515625 
Q 44.78125 56.734375 42.71875 58.4375 
Q 40.671875 60.15625 37.9375 61.171875 
Q 35.203125 62.203125 31.6875 62.203125 
z
" id="LiberationSansNarrow-1057"/>
      <path d="M 12.890625 52.828125 
L 12.890625 30.46875 
L 32.375 30.46875 
L 32.375 52.828125 
L 39.59375 52.828125 
L 39.59375 0 
L 32.375 0 
L 32.375 24.078125 
L 12.890625 24.078125 
L 12.890625 0 
L 5.671875 0 
L 5.671875 52.828125 
z
" id="LiberationSansNarrow-1085"/>
      <path d="M 27.546875 52.828125 
L 27.546875 46.4375 
L 12.890625 46.4375 
L 12.890625 0 
L 5.71875 0 
L 5.71875 52.828125 
z
" id="LiberationSansNarrow-1075"/>
      <path d="M 38.71875 52.828125 
L 38.71875 0 
L 31.546875 0 
L 31.546875 46.4375 
L 12.890625 46.4375 
L 12.890625 0 
L 5.71875 0 
L 5.71875 52.828125 
z
" id="LiberationSansNarrow-1087"/>
      <path d="M 24.171875 0 
Q 22.65625 -4.78125 21.0625 -8.609375 
Q 19.484375 -12.453125 17.53125 -15.15625 
Q 15.578125 -17.875 13.1875 -19.3125 
Q 10.796875 -20.75 7.671875 -20.75 
Q 6.296875 -20.75 5.125 -20.65625 
Q 3.953125 -20.5625 2.6875 -20.21875 
L 2.6875 -13.625 
Q 3.46875 -13.765625 4.421875 -13.84375 
Q 5.375 -13.921875 6.0625 -13.921875 
Q 9.234375 -13.921875 11.9375 -11.03125 
Q 14.65625 -8.15625 16.703125 -1.859375 
L 17.390625 0.25 
L 0.203125 52.828125 
L 7.90625 52.828125 
L 17.046875 23.640625 
Q 17.046875 23.640625 18.0625 20.125 
L 19.28125 15.71875 
Q 19.921875 13.53125 20.375 11.765625 
Q 20.84375 10.015625 20.953125 9.578125 
Q 21.046875 10.109375 21.484375 11.71875 
L 22.5625 15.234375 
L 23.734375 19.1875 
Q 24.359375 21.1875 24.75 22.65625 
L 33.25 52.828125 
L 40.875 52.828125 
z
" id="LiberationSansNarrow-1091"/>
     </defs>
     <g transform="translate(81.1994 65.530732)scale(0.11662 -0.11662)">
      <use xlink:href="#LiberationSansNarrow-1057"/>
      <use x="59.179688" xlink:href="#LiberationSansNarrow-1080"/>
      <use x="105.029297" xlink:href="#LiberationSansNarrow-1085"/>
      <use x="150.292969" xlink:href="#LiberationSansNarrow-1075"/>
      <use x="180.193359" xlink:href="#LiberationSansNarrow-1072"/>
      <use x="225.798828" xlink:href="#LiberationSansNarrow-1087"/>
      <use x="270.232422" xlink:href="#LiberationSansNarrow-1091"/>
      <use x="311.232422" xlink:href="#LiberationSansNarrow-1088"/>
     </g>
    </g>
    <g id="line2d_34">
     <path d="M 48.5458 75.818803 
L 71.8698 75.818803 
" style="fill:none;stroke:#d62728;stroke-linecap:square;"/>
    </g>
    <g id="line2d_35"/>
    <g id="text_19">
     <!-- США -->
     <g transform="translate(81.1994 79.900503)scale(0.11662 -0.11662)">
      <use xlink:href="#LiberationSansNarrow-1057"/>
      <use x="59.179688" xlink:href="#LiberationSansNarrow-1064"/>
      <use x="134.375" xlink:href="#LiberationSansNarrow-1040"/>
     </g>
    </g>
    <g id="line2d_36">
     <path d="M 48.5458 90.188573 
L 71.8698 90.188573 
" style="fill:none;stroke:#9467bd;stroke-linecap:square;"/>
    </g>
    <g id="line2d_37"/>
    <g id="text_20">
     <!-- Япония -->
     <defs>
      <path d="M 3.859375 0 
L 19.828125 29.640625 
Q 16.15625 30.421875 13.5625 32.328125 
Q 10.984375 34.234375 9.328125 36.859375 
Q 7.671875 39.5 6.890625 42.671875 
Q 6.109375 45.84375 6.109375 49.125 
Q 6.109375 53.71875 7.421875 57.375 
Q 8.734375 61.03125 11.25 63.5625 
Q 13.765625 66.109375 17.46875 67.453125 
Q 21.1875 68.796875 25.984375 68.796875 
L 52.484375 68.796875 
L 52.484375 0 
L 44.875 0 
L 44.875 28.5625 
L 27.296875 28.5625 
L 12.640625 0 
z
M 13.765625 49.03125 
Q 13.765625 46.234375 14.5 43.84375 
Q 15.234375 41.453125 16.765625 39.6875 
Q 18.3125 37.9375 20.703125 36.9375 
Q 23.09375 35.9375 26.421875 35.9375 
L 44.875 35.9375 
L 44.875 61.328125 
L 26.703125 61.328125 
Q 23.6875 61.328125 21.28125 60.5625 
Q 18.890625 59.8125 17.203125 58.265625 
Q 15.53125 56.734375 14.640625 54.4375 
Q 13.765625 52.15625 13.765625 49.03125 
z
" id="LiberationSansNarrow-1071"/>
      <path d="M 42.140625 26.46875 
Q 42.140625 12.59375 37.125 5.796875 
Q 32.125 -0.984375 22.609375 -0.984375 
Q 18.0625 -0.984375 14.515625 0.671875 
Q 10.984375 2.34375 8.515625 5.765625 
Q 6.0625 9.1875 4.765625 14.328125 
Q 3.46875 19.484375 3.46875 26.46875 
Q 3.46875 53.8125 22.859375 53.8125 
Q 27.875 53.8125 31.5625 52.09375 
Q 35.25 50.390625 37.59375 46.96875 
Q 39.9375 43.5625 41.03125 38.421875 
Q 42.140625 33.296875 42.140625 26.46875 
z
M 34.578125 26.46875 
Q 34.578125 32.625 33.8125 36.625 
Q 33.0625 40.625 31.546875 43.015625 
Q 30.03125 45.40625 27.859375 46.359375 
Q 25.6875 47.3125 23 47.3125 
Q 20.21875 47.3125 17.984375 46.3125 
Q 15.765625 45.3125 14.203125 42.890625 
Q 12.640625 40.484375 11.828125 36.46875 
Q 11.03125 32.46875 11.03125 26.46875 
Q 11.03125 20.3125 11.90625 16.28125 
Q 12.796875 12.25 14.328125 9.859375 
Q 15.875 7.46875 17.96875 6.484375 
Q 20.0625 5.515625 22.5625 5.515625 
Q 25.34375 5.515625 27.5625 6.46875 
Q 29.78125 7.421875 31.34375 9.8125 
Q 32.90625 12.203125 33.734375 16.25 
Q 34.578125 20.3125 34.578125 26.46875 
z
" id="LiberationSansNarrow-1086"/>
     </defs>
     <g transform="translate(81.1994 94.270273)scale(0.11662 -0.11662)">
      <use xlink:href="#LiberationSansNarrow-1071"/>
      <use x="59.179688" xlink:href="#LiberationSansNarrow-1087"/>
      <use x="103.613281" xlink:href="#LiberationSansNarrow-1086"/>
      <use x="149.21875" xlink:href="#LiberationSansNarrow-1085"/>
      <use x="194.482422" xlink:href="#LiberationSansNarrow-1080"/>
      <use x="240.332031" xlink:href="#LiberationSansNarrow-1103"/>
     </g>
    </g>
    <g id="line2d_38">
     <path d="M 48.5458 104.558344 
L 71.8698 104.558344 
" style="fill:none;stroke:#8c564b;stroke-linecap:square;"/>
    </g>
    <g id="line2d_39"/>
    <g id="text_21">
     <!-- Австралия -->
     <defs>
      <path d="M 11.03125 26.65625 
Q 11.03125 22.125 11.5625 18.3125 
Q 12.109375 14.5 13.375 11.734375 
Q 14.65625 8.984375 16.75 7.46875 
Q 18.84375 5.953125 21.96875 5.953125 
Q 25.828125 5.953125 28.390625 8.484375 
Q 30.953125 11.03125 31.546875 16.3125 
L 38.875 15.71875 
Q 38.53125 12.453125 37.296875 9.421875 
Q 36.078125 6.390625 34.03125 4.09375 
Q 31.984375 1.8125 29 0.40625 
Q 26.03125 -0.984375 22.171875 -0.984375 
Q 17.09375 -0.984375 13.5 1.109375 
Q 9.90625 3.21875 7.6875 6.90625 
Q 5.46875 10.59375 4.46875 15.59375 
Q 3.46875 20.609375 3.46875 26.46875 
Q 3.46875 31.78125 4.203125 35.859375 
Q 4.9375 39.9375 6.21875 42.984375 
Q 7.515625 46.046875 9.265625 48.125 
Q 11.03125 50.203125 13.109375 51.4375 
Q 15.1875 52.6875 17.453125 53.25 
Q 19.734375 53.8125 22.078125 53.8125 
Q 25.734375 53.8125 28.5625 52.59375 
Q 31.390625 51.375 33.46875 49.25 
Q 35.546875 47.125 36.8125 44.234375 
Q 38.09375 41.359375 38.625 38.03125 
L 31.203125 37.359375 
Q 30.671875 41.75 28.375 44.328125 
Q 26.078125 46.921875 21.875 46.921875 
Q 18.796875 46.921875 16.71875 45.671875 
Q 14.65625 44.4375 13.375 41.921875 
Q 12.109375 39.40625 11.5625 35.59375 
Q 11.03125 31.78125 11.03125 26.65625 
z
" id="LiberationSansNarrow-1089"/>
      <path d="M 1.421875 52.828125 
L 36.140625 52.828125 
L 36.140625 46.4375 
L 22.359375 46.4375 
L 22.359375 0 
L 15.1875 0 
L 15.1875 46.4375 
L 1.421875 46.4375 
z
" id="LiberationSansNarrow-1090"/>
      <path d="M 34.859375 0 
L 34.859375 46.4375 
L 19.875 46.4375 
Q 18.890625 37.453125 18.03125 30.4375 
Q 17.1875 23.4375 16.3125 18.15625 
Q 15.4375 12.890625 14.40625 9.25 
Q 13.375 5.609375 11.953125 3.34375 
Q 10.546875 1.078125 8.65625 0.046875 
Q 6.78125 -0.984375 4.203125 -0.984375 
Q 3.03125 -0.984375 2.078125 -0.78125 
Q 1.125 -0.59375 0.4375 -0.34375 
L 0.4375 5.953125 
Q 0.875 5.765625 1.625 5.640625 
Q 2.390625 5.515625 3.171875 5.515625 
Q 4.59375 5.515625 5.59375 6.53125 
Q 6.59375 7.5625 7.390625 9.859375 
Q 8.203125 12.15625 8.859375 15.796875 
Q 9.515625 19.4375 10.203125 24.703125 
Q 10.890625 29.984375 11.625 36.921875 
L 13.375 52.828125 
L 42.140625 52.828125 
L 42.140625 0 
z
" id="LiberationSansNarrow-1083"/>
     </defs>
     <g transform="translate(81.1994 108.640044)scale(0.11662 -0.11662)">
      <use xlink:href="#LiberationSansNarrow-1040"/>
      <use x="54.6875" xlink:href="#LiberationSansNarrow-1074"/>
      <use x="98.226562" xlink:href="#LiberationSansNarrow-1089"/>
      <use x="139.242188" xlink:href="#LiberationSansNarrow-1090"/>
      <use x="176.791016" xlink:href="#LiberationSansNarrow-1088"/>
      <use x="222.396484" xlink:href="#LiberationSansNarrow-1072"/>
      <use x="268.001953" xlink:href="#LiberationSansNarrow-1083"/>
      <use x="315.804688" xlink:href="#LiberationSansNarrow-1080"/>
      <use x="361.654297" xlink:href="#LiberationSansNarrow-1103"/>
     </g>
    </g>
    <g id="line2d_40">
     <path d="M 155.681314 32.505406 
L 179.005314 32.505406 
" style="fill:none;stroke:#e377c2;stroke-linecap:square;"/>
    </g>
    <g id="line2d_41"/>
    <g id="text_22">
     <!-- Ю. Корея -->
     <defs>
      <path id="LiberationSansNarrow-32"/>
      <path d="M 6.734375 68.796875 
L 14.359375 68.796875 
L 14.359375 38.578125 
Q 16.65625 38.578125 18.265625 39.15625 
Q 19.875 39.75 21.390625 41.40625 
Q 22.90625 43.0625 24.703125 46.0625 
Q 26.515625 49.078125 29.15625 53.90625 
L 37.359375 68.796875 
L 45.359375 68.796875 
L 34.03125 48.78125 
Q 28.8125 39.546875 26.859375 37.84375 
L 47.21875 0 
L 38.328125 0 
L 21.296875 33.34375 
Q 20.609375 32.953125 19.671875 32.640625 
Q 18.75 32.328125 17.796875 32.046875 
Q 16.84375 31.78125 15.9375 31.640625 
Q 15.046875 31.5 14.359375 31.5 
L 14.359375 0 
L 6.734375 0 
z
" id="LiberationSansNarrow-1050"/>
     </defs>
     <g transform="translate(188.334914 36.587106)scale(0.11662 -0.11662)">
      <use xlink:href="#LiberationSansNarrow-1070"/>
      <use x="82.8125" xlink:href="#LiberationSansNarrow-46"/>
      <use x="105.615234" xlink:href="#LiberationSansNarrow-32"/>
      <use x="128.417969" xlink:href="#LiberationSansNarrow-1050"/>
      <use x="176.123047" xlink:href="#LiberationSansNarrow-1086"/>
      <use x="221.728516" xlink:href="#LiberationSansNarrow-1088"/>
      <use x="267.333984" xlink:href="#LiberationSansNarrow-1077"/>
      <use x="312.939453" xlink:href="#LiberationSansNarrow-1103"/>
     </g>
    </g>
    <g id="line2d_42">
     <path d="M 155.681314 46.875176 
L 179.005314 46.875176 
" style="fill:none;stroke:#7f7f7f;stroke-linecap:square;"/>
    </g>
    <g id="line2d_43"/>
    <g id="text_23">
     <!-- Нидерланды -->
     <defs>
      <path d="M 44.875 0 
L 44.875 31.890625 
L 14.359375 31.890625 
L 14.359375 0 
L 6.734375 0 
L 6.734375 68.796875 
L 14.359375 68.796875 
L 14.359375 39.703125 
L 44.875 39.703125 
L 44.875 68.796875 
L 52.484375 68.796875 
L 52.484375 0 
z
" id="LiberationSansNarrow-1053"/>
      <path d="M 33.34375 46.4375 
L 21.140625 46.4375 
Q 20.171875 37.796875 19.1875 31.375 
Q 18.21875 24.953125 17.234375 20.21875 
Q 16.265625 15.484375 15.3125 12.15625 
Q 14.359375 8.84375 13.484375 6.390625 
L 33.34375 6.390625 
z
M 46.390625 -19.921875 
L 39.890625 -19.921875 
L 39.890625 0 
L 7.328125 0 
L 7.328125 -19.921875 
L 0.78125 -19.921875 
L 0.78125 6.390625 
L 5.5625 6.390625 
Q 6.78125 8.84375 7.921875 12.328125 
Q 9.078125 15.828125 10.21875 21.1875 
Q 11.375 26.5625 12.515625 34.25 
Q 13.671875 41.9375 14.796875 52.828125 
L 40.578125 52.828125 
L 40.578125 6.390625 
L 46.390625 6.390625 
z
" id="LiberationSansNarrow-1076"/>
      <path d="M 22.796875 30.46875 
Q 31.296875 30.46875 35.640625 26.875 
Q 39.984375 23.296875 39.984375 15.53125 
Q 39.984375 11.921875 38.90625 9.03125 
Q 37.84375 6.15625 35.671875 4.15625 
Q 33.5 2.15625 30.296875 1.078125 
Q 27.09375 0 22.859375 0 
L 5.859375 0 
L 5.859375 52.828125 
L 13.328125 52.828125 
L 13.328125 30.46875 
z
M 13.328125 6.203125 
L 21.734375 6.203125 
Q 24.609375 6.203125 26.578125 6.8125 
Q 28.5625 7.421875 29.78125 8.609375 
Q 31 9.8125 31.53125 11.546875 
Q 32.078125 13.28125 32.078125 15.53125 
Q 32.078125 20.125 29.65625 22.234375 
Q 27.25 24.359375 21.734375 24.359375 
L 13.328125 24.359375 
z
M 47.65625 0 
L 47.65625 52.828125 
L 55.125 52.828125 
L 55.125 0 
z
" id="LiberationSansNarrow-1099"/>
     </defs>
     <g transform="translate(188.334914 50.956876)scale(0.11662 -0.11662)">
      <use xlink:href="#LiberationSansNarrow-1053"/>
      <use x="59.179688" xlink:href="#LiberationSansNarrow-1080"/>
      <use x="105.029297" xlink:href="#LiberationSansNarrow-1076"/>
      <use x="152.832031" xlink:href="#LiberationSansNarrow-1077"/>
      <use x="198.4375" xlink:href="#LiberationSansNarrow-1088"/>
      <use x="243.996094" xlink:href="#LiberationSansNarrow-1083"/>
      <use x="291.798828" xlink:href="#LiberationSansNarrow-1072"/>
      <use x="337.404297" xlink:href="#LiberationSansNarrow-1085"/>
      <use x="382.667969" xlink:href="#LiberationSansNarrow-1076"/>
      <use x="430.470703" xlink:href="#LiberationSansNarrow-1099"/>
     </g>
    </g>
    <g id="line2d_44">
     <path d="M 155.681314 61.244947 
L 179.005314 61.244947 
" style="fill:none;stroke:#bcbd22;stroke-linecap:square;"/>
    </g>
    <g id="line2d_45"/>
    <g id="text_24">
     <!-- Норвегия -->
     <g transform="translate(188.334914 65.326647)scale(0.11662 -0.11662)">
      <use xlink:href="#LiberationSansNarrow-1053"/>
      <use x="59.179688" xlink:href="#LiberationSansNarrow-1086"/>
      <use x="104.785156" xlink:href="#LiberationSansNarrow-1088"/>
      <use x="150.390625" xlink:href="#LiberationSansNarrow-1074"/>
      <use x="193.929688" xlink:href="#LiberationSansNarrow-1077"/>
      <use x="239.535156" xlink:href="#LiberationSansNarrow-1075"/>
      <use x="269.466797" xlink:href="#LiberationSansNarrow-1080"/>
      <use x="315.316406" xlink:href="#LiberationSansNarrow-1103"/>
     </g>
    </g>
    <g id="line2d_46">
     <path d="M 155.681314 75.614717 
L 179.005314 75.614717 
" style="fill:none;stroke:#17becf;stroke-linecap:square;"/>
    </g>
    <g id="line2d_47"/>
    <g id="text_25">
     <!-- Германия -->
     <defs>
      <path d="M 41.609375 68.84375 
L 41.609375 61.234375 
L 13.921875 61.234375 
L 13.921875 0.046875 
L 6.546875 0.046875 
L 6.546875 68.84375 
z
" id="LiberationSansNarrow-1043"/>
      <path d="M 31.546875 0 
L 25.390625 0 
L 12.40625 46.4375 
Q 12.453125 45.171875 12.515625 43.703125 
Q 12.59375 42.234375 12.59375 40.75 
Q 12.59375 39.265625 12.609375 37.859375 
Q 12.640625 36.46875 12.640625 35.359375 
L 12.640625 0 
L 5.671875 0 
L 5.671875 52.828125 
L 16.890625 52.828125 
L 25.734375 20.5625 
Q 26.65625 17.484375 27.390625 13.796875 
Q 28.125 10.109375 28.421875 6.59375 
Q 28.8125 10.109375 29.515625 13.796875 
Q 30.21875 17.484375 31.15625 20.5625 
L 39.984375 52.828125 
L 50.734375 52.828125 
L 50.734375 0 
L 43.796875 0 
L 43.796875 35.359375 
Q 43.796875 36.421875 43.8125 37.890625 
Q 43.84375 39.359375 43.921875 40.921875 
Q 44 42.484375 44.015625 43.9375 
Q 44.046875 45.40625 44.140625 46.53125 
z
" id="LiberationSansNarrow-1084"/>
     </defs>
     <g transform="translate(188.334914 79.696417)scale(0.11662 -0.11662)">
      <use xlink:href="#LiberationSansNarrow-1043"/>
      <use x="43.705078" xlink:href="#LiberationSansNarrow-1077"/>
      <use x="89.310547" xlink:href="#LiberationSansNarrow-1088"/>
      <use x="134.916016" xlink:href="#LiberationSansNarrow-1084"/>
      <use x="191.3125" xlink:href="#LiberationSansNarrow-1072"/>
      <use x="236.917969" xlink:href="#LiberationSansNarrow-1085"/>
      <use x="282.181641" xlink:href="#LiberationSansNarrow-1080"/>
      <use x="328.03125" xlink:href="#LiberationSansNarrow-1103"/>
     </g>
    </g>
    <g id="line2d_48">
     <path d="M 155.681314 89.984488 
L 179.005314 89.984488 
" style="fill:none;stroke:#1f77b4;stroke-linecap:square;"/>
    </g>
    <g id="line2d_49"/>
    <g id="text_26">
     <!-- Аргентина -->
     <g transform="translate(188.334914 94.066188)scale(0.11662 -0.11662)">
      <use xlink:href="#LiberationSansNarrow-1040"/>
      <use x="54.6875" xlink:href="#LiberationSansNarrow-1088"/>
      <use x="100.292969" xlink:href="#LiberationSansNarrow-1075"/>
      <use x="130.193359" xlink:href="#LiberationSansNarrow-1077"/>
      <use x="175.798828" xlink:href="#LiberationSansNarrow-1085"/>
      <use x="221.0625" xlink:href="#LiberationSansNarrow-1090"/>
      <use x="258.611328" xlink:href="#LiberationSansNarrow-1080"/>
      <use x="304.460938" xlink:href="#LiberationSansNarrow-1085"/>
      <use x="349.724609" xlink:href="#LiberationSansNarrow-1072"/>
     </g>
    </g>
    <g id="line2d_50">
     <path d="M 155.681314 104.354259 
L 179.005314 104.354259 
" style="fill:none;stroke:#000000;stroke-linecap:square;stroke-width:2;"/>
    </g>
    <g id="line2d_51"/>
    <g id="text_27">
     <!-- Весь мир -->
     <defs>
      <path d="M 50.34375 19.390625 
Q 50.34375 14.15625 48.671875 10.46875 
Q 47.015625 6.78125 44.15625 4.46875 
Q 41.3125 2.15625 37.546875 1.078125 
Q 33.796875 0 29.640625 0 
L 6.734375 0 
L 6.734375 68.796875 
L 27.25 68.796875 
Q 31.9375 68.796875 35.59375 67.84375 
Q 39.265625 66.890625 41.828125 64.84375 
Q 44.390625 62.796875 45.734375 59.640625 
Q 47.078125 56.5 47.078125 52.09375 
Q 47.078125 49.21875 46.40625 46.671875 
Q 45.75 44.140625 44.40625 42.0625 
Q 43.0625 39.984375 41.03125 38.5 
Q 39.015625 37.015625 36.328125 36.28125 
Q 39.75 35.796875 42.375 34.375 
Q 45.015625 32.953125 46.765625 30.75 
Q 48.53125 28.5625 49.4375 25.65625 
Q 50.34375 22.75 50.34375 19.390625 
z
M 39.40625 50.984375 
Q 39.40625 56.546875 36.28125 58.9375 
Q 33.15625 61.328125 27.25 61.328125 
L 14.359375 61.328125 
L 14.359375 39.546875 
L 27.25 39.546875 
Q 30.609375 39.546875 32.921875 40.34375 
Q 35.25 41.15625 36.6875 42.640625 
Q 38.140625 44.140625 38.765625 46.234375 
Q 39.40625 48.34375 39.40625 50.984375 
z
M 42.625 20.125 
Q 42.625 23.390625 41.640625 25.6875 
Q 40.671875 27.984375 38.84375 29.4375 
Q 37.015625 30.90625 34.421875 31.59375 
Q 31.84375 32.28125 28.609375 32.28125 
L 14.359375 32.28125 
L 14.359375 7.46875 
L 29.25 7.46875 
Q 32.171875 7.46875 34.609375 8.046875 
Q 37.0625 8.640625 38.84375 10.109375 
Q 40.625 11.578125 41.625 14.015625 
Q 42.625 16.453125 42.625 20.125 
z
" id="LiberationSansNarrow-1042"/>
      <path d="M 22.75 30.46875 
Q 30.953125 30.46875 35.15625 26.875 
Q 39.359375 23.296875 39.359375 15.53125 
Q 39.359375 11.921875 38.296875 9.03125 
Q 37.25 6.15625 35.171875 4.15625 
Q 33.109375 2.15625 30 1.078125 
Q 26.90625 0 22.796875 0 
L 5.671875 0 
L 5.671875 52.828125 
L 12.890625 52.828125 
L 12.890625 30.46875 
z
M 12.890625 6.203125 
L 21.6875 6.203125 
Q 24.46875 6.203125 26.390625 6.8125 
Q 28.328125 7.421875 29.5 8.609375 
Q 30.671875 9.8125 31.171875 11.546875 
Q 31.6875 13.28125 31.6875 15.53125 
Q 31.6875 20.125 29.359375 22.234375 
Q 27.046875 24.359375 21.734375 24.359375 
L 12.890625 24.359375 
z
" id="LiberationSansNarrow-1100"/>
     </defs>
     <g transform="translate(188.334914 108.435959)scale(0.11662 -0.11662)">
      <use xlink:href="#LiberationSansNarrow-1042"/>
      <use x="54.6875" xlink:href="#LiberationSansNarrow-1077"/>
      <use x="100.292969" xlink:href="#LiberationSansNarrow-1089"/>
      <use x="141.308594" xlink:href="#LiberationSansNarrow-1100"/>
      <use x="184.033203" xlink:href="#LiberationSansNarrow-32"/>
      <use x="206.835938" xlink:href="#LiberationSansNarrow-1084"/>
      <use x="263.232422" xlink:href="#LiberationSansNarrow-1080"/>
      <use x="309.082031" xlink:href="#LiberationSansNarrow-1088"/>
     </g>
    </g>
   </g>
  </g>
 </g>
 <defs>
  <clipPath id="p0c3762d9b4">
   <rect height="234.56" width="520.31" x="38.05" y="17.64"/>
  </clipPath>
 </defs>
</svg>
