<?xml version="1.0" encoding="utf-8" standalone="no"?>
<!DOCTYPE svg PUBLIC "-//W3C//DTD SVG 1.1//EN"
  "http://www.w3.org/Graphics/SVG/1.1/DTD/svg11.dtd">
<!-- Created with matplotlib (https://matplotlib.org/) -->
<svg height="288pt" version="1.1" viewBox="0 0 576 288" width="576pt" xmlns="http://www.w3.org/2000/svg" xmlns:xlink="http://www.w3.org/1999/xlink">
 <defs>
  <style type="text/css">
*{stroke-linecap:butt;stroke-linejoin:round;}
  </style>
 </defs>
 <g id="figure_1">
  <g id="patch_1">
   <path d="M 0 288 
L 576 288 
L 576 0 
L 0 0 
z
" style="fill:#ffffff;"/>
  </g>
  <g id="axes_1">
   <g id="patch_2">
    <path d="M 41.65 252.2 
L 558.36 252.2 
L 558.36 17.64 
L 41.65 17.64 
z
" style="fill:#ffffff;"/>
   </g>
   <g id="matplotlib.axis_1">
    <g id="xtick_1">
     <g id="line2d_1">
      <path clip-path="url(#pee778a841c)" d="M 87.936281 252.2 
L 87.936281 17.64 
" style="fill:none;stroke:#b0b0b0;stroke-dasharray:1.48,0.64;stroke-dashoffset:0;stroke-width:0.4;"/>
     </g>
     <g id="text_1">
      <!-- 1920 -->
      <defs>
       <path d="M 6.25 0 
L 6.25 7.46875 
L 20.609375 7.46875 
L 20.609375 60.40625 
L 7.90625 49.3125 
L 7.90625 57.625 
L 21.234375 68.796875 
L 27.875 68.796875 
L 27.875 7.46875 
L 41.609375 7.46875 
L 41.609375 0 
z
" id="LiberationSansNarrow-49"/>
       <path d="M 41.703125 35.796875 
Q 41.703125 26.609375 40.28125 19.703125 
Q 38.875 12.796875 36.234375 8.203125 
Q 33.59375 3.609375 29.8125 1.3125 
Q 26.03125 -0.984375 21.296875 -0.984375 
Q 18.0625 -0.984375 15.453125 -0.171875 
Q 12.84375 0.640625 10.8125 2.34375 
Q 8.796875 4.046875 7.328125 6.78125 
Q 5.859375 9.515625 4.984375 13.375 
L 11.921875 14.703125 
Q 13.03125 10.25 15.40625 8.171875 
Q 17.78125 6.109375 21.4375 6.109375 
Q 24.359375 6.109375 26.78125 7.78125 
Q 29.203125 9.46875 30.875 12.84375 
Q 32.5625 16.21875 33.546875 21.296875 
Q 34.46875 26.375 34.578125 33.203125 
Q 33.734375 30.90625 32.265625 29.09375 
Q 30.8125 27.296875 28.953125 26.046875 
Q 27.09375 24.8125 24.9375 24.140625 
Q 22.796875 23.484375 20.5625 23.484375 
Q 16.703125 23.484375 13.625 25.171875 
Q 10.546875 26.859375 8.375 29.875 
Q 6.203125 32.90625 5.03125 37.171875 
Q 3.859375 41.453125 3.859375 46.6875 
Q 3.859375 52 5.09375 56.296875 
Q 6.34375 60.59375 8.765625 63.59375 
Q 11.1875 66.609375 14.671875 68.21875 
Q 18.171875 69.828125 22.609375 69.828125 
Q 32.03125 69.828125 36.859375 61.328125 
Q 41.703125 52.828125 41.703125 35.796875 
z
M 33.890625 44.28125 
Q 33.890625 48.09375 33.125 51.453125 
Q 32.375 54.828125 30.9375 57.3125 
Q 29.5 59.8125 27.34375 61.25 
Q 25.203125 62.703125 22.359375 62.703125 
Q 19.78125 62.703125 17.703125 61.578125 
Q 15.625 60.453125 14.1875 58.375 
Q 12.75 56.296875 11.96875 53.3125 
Q 11.1875 50.34375 11.1875 46.6875 
Q 11.1875 43.21875 11.859375 40.234375 
Q 12.546875 37.25 13.953125 35.078125 
Q 15.375 32.90625 17.453125 31.65625 
Q 19.53125 30.421875 22.3125 30.421875 
Q 24.3125 30.421875 26.359375 31.25 
Q 28.421875 32.078125 30.078125 33.78125 
Q 31.734375 35.5 32.8125 38.109375 
Q 33.890625 40.71875 33.890625 44.28125 
z
" id="LiberationSansNarrow-57"/>
       <path d="M 4.109375 0 
L 4.109375 6.203125 
Q 6.15625 11.921875 9.109375 16.28125 
Q 12.0625 20.65625 15.3125 24.1875 
Q 18.5625 27.734375 21.734375 30.765625 
Q 24.90625 33.796875 27.46875 36.8125 
Q 30.03125 39.84375 31.609375 43.15625 
Q 33.203125 46.484375 33.203125 50.6875 
Q 33.203125 53.609375 32.46875 55.828125 
Q 31.734375 58.0625 30.390625 59.5625 
Q 29.046875 61.078125 27.140625 61.828125 
Q 25.25 62.59375 22.90625 62.59375 
Q 20.75 62.59375 18.84375 61.859375 
Q 16.9375 61.140625 15.453125 59.671875 
Q 13.96875 58.203125 13.03125 56.03125 
Q 12.109375 53.859375 11.8125 50.984375 
L 4.4375 51.8125 
Q 4.78125 55.515625 6.125 58.78125 
Q 7.46875 62.0625 9.78125 64.53125 
Q 12.109375 67 15.359375 68.40625 
Q 18.609375 69.828125 22.90625 69.828125 
Q 27.09375 69.828125 30.390625 68.609375 
Q 33.6875 67.390625 35.9375 64.984375 
Q 38.1875 62.59375 39.40625 59.078125 
Q 40.625 55.5625 40.625 50.984375 
Q 40.625 47.515625 39.59375 44.390625 
Q 38.578125 41.265625 36.859375 38.421875 
Q 35.15625 35.59375 32.90625 32.953125 
Q 30.671875 30.328125 28.21875 27.828125 
L 23.296875 22.859375 
Q 20.796875 20.359375 18.625 17.859375 
Q 16.453125 15.375 14.734375 12.8125 
Q 13.03125 10.25 12.0625 7.46875 
L 41.5 7.46875 
L 41.5 0 
z
" id="LiberationSansNarrow-50"/>
       <path d="M 42.390625 34.421875 
Q 42.390625 24.515625 40.84375 17.75 
Q 39.3125 10.984375 36.640625 6.8125 
Q 33.984375 2.640625 30.390625 0.828125 
Q 26.8125 -0.984375 22.703125 -0.984375 
Q 18.609375 -0.984375 15.03125 0.828125 
Q 11.46875 2.640625 8.828125 6.78125 
Q 6.203125 10.9375 4.703125 17.703125 
Q 3.21875 24.46875 3.21875 34.421875 
Q 3.21875 44.828125 4.703125 51.640625 
Q 6.203125 58.453125 8.828125 62.5 
Q 11.46875 66.546875 15.078125 68.1875 
Q 18.703125 69.828125 22.953125 69.828125 
Q 27 69.828125 30.53125 68.1875 
Q 34.078125 66.546875 36.71875 62.5 
Q 39.359375 58.453125 40.875 51.640625 
Q 42.390625 44.828125 42.390625 34.421875 
z
M 35.0625 34.421875 
Q 35.0625 42.625 34.28125 48.0625 
Q 33.5 53.515625 31.9375 56.765625 
Q 30.375 60.015625 28.09375 61.359375 
Q 25.828125 62.703125 22.953125 62.703125 
Q 19.921875 62.703125 17.578125 61.328125 
Q 15.234375 59.96875 13.671875 56.71875 
Q 12.109375 53.46875 11.296875 48.015625 
Q 10.5 42.578125 10.5 34.421875 
Q 10.5 26.515625 11.296875 21.09375 
Q 12.109375 15.671875 13.6875 12.375 
Q 15.28125 9.078125 17.578125 7.640625 
Q 19.875 6.203125 22.796875 6.203125 
Q 25.640625 6.203125 27.90625 7.640625 
Q 30.171875 9.078125 31.75 12.375 
Q 33.34375 15.671875 34.203125 21.09375 
Q 35.0625 26.515625 35.0625 34.421875 
z
" id="LiberationSansNarrow-48"/>
      </defs>
      <g transform="translate(75.165656 269.345625)scale(0.14 -0.14)">
       <use xlink:href="#LiberationSansNarrow-49"/>
       <use x="45.605469" xlink:href="#LiberationSansNarrow-57"/>
       <use x="91.210938" xlink:href="#LiberationSansNarrow-50"/>
       <use x="136.816406" xlink:href="#LiberationSansNarrow-48"/>
      </g>
     </g>
    </g>
    <g id="xtick_2">
     <g id="line2d_2">
      <path clip-path="url(#pee778a841c)" d="M 179.14662 252.2 
L 179.14662 17.64 
" style="fill:none;stroke:#b0b0b0;stroke-dasharray:1.48,0.64;stroke-dashoffset:0;stroke-width:0.4;"/>
     </g>
     <g id="text_2">
      <!-- 1940 -->
      <defs>
       <path d="M 35.25 15.578125 
L 35.25 0 
L 28.46875 0 
L 28.46875 15.578125 
L 1.90625 15.578125 
L 1.90625 22.40625 
L 27.6875 68.796875 
L 35.25 68.796875 
L 35.25 22.515625 
L 43.21875 22.515625 
L 43.21875 15.578125 
z
M 28.46875 58.890625 
Q 28.375 58.640625 28.03125 57.90625 
L 27.34375 56.34375 
L 26.5625 54.59375 
Q 26.125 53.65625 25.78125 53.078125 
L 11.328125 27.09375 
Q 11.140625 26.703125 10.75 26.078125 
L 9.96875 24.8125 
L 9.1875 23.484375 
Q 8.796875 22.859375 8.546875 22.515625 
L 28.46875 22.515625 
z
" id="LiberationSansNarrow-52"/>
      </defs>
      <g transform="translate(166.375995 269.345625)scale(0.14 -0.14)">
       <use xlink:href="#LiberationSansNarrow-49"/>
       <use x="45.605469" xlink:href="#LiberationSansNarrow-57"/>
       <use x="91.210938" xlink:href="#LiberationSansNarrow-52"/>
       <use x="136.816406" xlink:href="#LiberationSansNarrow-48"/>
      </g>
     </g>
    </g>
    <g id="xtick_3">
     <g id="line2d_3">
      <path clip-path="url(#pee778a841c)" d="M 270.356958 252.2 
L 270.356958 17.64 
" style="fill:none;stroke:#b0b0b0;stroke-dasharray:1.48,0.64;stroke-dashoffset:0;stroke-width:0.4;"/>
     </g>
     <g id="text_3">
      <!-- 1960 -->
      <defs>
       <path d="M 42 22.515625 
Q 42 17.328125 40.828125 13 
Q 39.65625 8.6875 37.359375 5.578125 
Q 35.0625 2.484375 31.640625 0.75 
Q 28.21875 -0.984375 23.78125 -0.984375 
Q 18.84375 -0.984375 15.15625 1.3125 
Q 11.46875 3.609375 9.03125 7.921875 
Q 6.59375 12.25 5.375 18.53125 
Q 4.15625 24.8125 4.15625 32.8125 
Q 4.15625 42 5.546875 48.921875 
Q 6.9375 55.859375 9.515625 60.5 
Q 12.109375 65.140625 15.859375 67.484375 
Q 19.625 69.828125 24.359375 69.828125 
Q 27.25 69.828125 29.765625 69.09375 
Q 32.28125 68.359375 34.328125 66.71875 
Q 36.375 65.09375 37.9375 62.40625 
Q 39.5 59.71875 40.4375 55.8125 
L 33.546875 54.296875 
Q 32.421875 58.734375 29.953125 60.71875 
Q 27.484375 62.703125 24.265625 62.703125 
Q 21.296875 62.703125 18.890625 60.984375 
Q 16.5 59.28125 14.8125 55.875 
Q 13.140625 52.484375 12.234375 47.359375 
Q 11.328125 42.234375 11.328125 35.40625 
Q 13.28125 39.84375 16.84375 42.15625 
Q 20.40625 44.484375 25.046875 44.484375 
Q 28.90625 44.484375 32 42.96875 
Q 35.109375 41.453125 37.328125 38.59375 
Q 39.546875 35.75 40.765625 31.671875 
Q 42 27.59375 42 22.515625 
z
M 34.671875 22.125 
Q 34.671875 25.6875 33.953125 28.5625 
Q 33.25 31.453125 31.8125 33.46875 
Q 30.375 35.5 28.25 36.59375 
Q 26.125 37.703125 23.296875 37.703125 
Q 21.34375 37.703125 19.328125 36.984375 
Q 17.328125 36.28125 15.71875 34.6875 
Q 14.109375 33.109375 13.078125 30.515625 
Q 12.0625 27.9375 12.0625 24.21875 
Q 12.0625 20.40625 12.859375 17.109375 
Q 13.671875 13.8125 15.15625 11.375 
Q 16.65625 8.9375 18.78125 7.515625 
Q 20.90625 6.109375 23.53125 6.109375 
Q 26.125 6.109375 28.203125 7.203125 
Q 30.28125 8.296875 31.71875 10.375 
Q 33.15625 12.453125 33.90625 15.421875 
Q 34.671875 18.40625 34.671875 22.125 
z
" id="LiberationSansNarrow-54"/>
      </defs>
      <g transform="translate(257.586333 269.345625)scale(0.14 -0.14)">
       <use xlink:href="#LiberationSansNarrow-49"/>
       <use x="45.605469" xlink:href="#LiberationSansNarrow-57"/>
       <use x="91.210938" xlink:href="#LiberationSansNarrow-54"/>
       <use x="136.816406" xlink:href="#LiberationSansNarrow-48"/>
      </g>
     </g>
    </g>
    <g id="xtick_4">
     <g id="line2d_4">
      <path clip-path="url(#pee778a841c)" d="M 361.567296 252.2 
L 361.567296 17.64 
" style="fill:none;stroke:#b0b0b0;stroke-dasharray:1.48,0.64;stroke-dashoffset:0;stroke-width:0.4;"/>
     </g>
     <g id="text_4">
      <!-- 1980 -->
      <defs>
       <path d="M 42.046875 19.1875 
Q 42.046875 14.796875 40.890625 11.109375 
Q 39.75 7.421875 37.40625 4.734375 
Q 35.0625 2.046875 31.421875 0.53125 
Q 27.78125 -0.984375 22.796875 -0.984375 
Q 17.828125 -0.984375 14.203125 0.53125 
Q 10.59375 2.046875 8.21875 4.703125 
Q 5.859375 7.375 4.703125 11.0625 
Q 3.5625 14.75 3.5625 19.09375 
Q 3.5625 22.859375 4.515625 25.78125 
Q 5.46875 28.71875 7.03125 30.828125 
Q 8.59375 32.953125 10.609375 34.25 
Q 12.640625 35.546875 14.796875 35.984375 
L 14.796875 36.1875 
Q 12.453125 36.859375 10.59375 38.375 
Q 8.734375 39.890625 7.46875 42.015625 
Q 6.203125 44.140625 5.546875 46.71875 
Q 4.890625 49.3125 4.890625 52.203125 
Q 4.890625 55.8125 6.03125 59 
Q 7.171875 62.203125 9.421875 64.625 
Q 11.671875 67.046875 14.984375 68.4375 
Q 18.3125 69.828125 22.65625 69.828125 
Q 27.25 69.828125 30.640625 68.40625 
Q 34.03125 67 36.25 64.578125 
Q 38.484375 62.15625 39.546875 58.9375 
Q 40.625 55.71875 40.625 52.09375 
Q 40.625 49.265625 39.96875 46.671875 
Q 39.3125 44.09375 38.0625 41.96875 
Q 36.8125 39.84375 34.9375 38.34375 
Q 33.0625 36.859375 30.609375 36.28125 
L 30.609375 36.078125 
Q 33.0625 35.59375 35.15625 34.296875 
Q 37.25 33.015625 38.765625 30.890625 
Q 40.28125 28.765625 41.15625 25.828125 
Q 42.046875 22.90625 42.046875 19.1875 
z
M 33.15625 51.609375 
Q 33.15625 54.203125 32.609375 56.34375 
Q 32.078125 58.5 30.828125 60.03125 
Q 29.59375 61.578125 27.59375 62.421875 
Q 25.59375 63.28125 22.65625 63.28125 
Q 19.828125 63.28125 17.875 62.421875 
Q 15.921875 61.578125 14.640625 60.03125 
Q 13.375 58.5 12.8125 56.34375 
Q 12.25 54.203125 12.25 51.609375 
Q 12.25 49.5625 12.6875 47.40625 
Q 13.140625 45.265625 14.3125 43.5 
Q 15.484375 41.75 17.5 40.625 
Q 19.53125 39.5 22.75 39.5 
Q 26.171875 39.5 28.21875 40.625 
Q 30.28125 41.75 31.375 43.5 
Q 32.46875 45.265625 32.8125 47.40625 
Q 33.15625 49.5625 33.15625 51.609375 
z
M 34.578125 20.015625 
Q 34.578125 22.515625 34.015625 24.828125 
Q 33.453125 27.15625 32.078125 28.9375 
Q 30.71875 30.71875 28.421875 31.8125 
Q 26.125 32.90625 22.65625 32.90625 
Q 19.484375 32.90625 17.265625 31.8125 
Q 15.046875 30.71875 13.671875 28.90625 
Q 12.3125 27.09375 11.671875 24.71875 
Q 11.03125 22.359375 11.03125 19.828125 
Q 11.03125 16.65625 11.671875 14.03125 
Q 12.3125 11.421875 13.703125 9.546875 
Q 15.09375 7.671875 17.375 6.640625 
Q 19.671875 5.609375 22.90625 5.609375 
Q 26.171875 5.609375 28.421875 6.640625 
Q 30.671875 7.671875 32.03125 9.546875 
Q 33.40625 11.421875 33.984375 14.078125 
Q 34.578125 16.75 34.578125 20.015625 
z
" id="LiberationSansNarrow-56"/>
      </defs>
      <g transform="translate(348.796671 269.345625)scale(0.14 -0.14)">
       <use xlink:href="#LiberationSansNarrow-49"/>
       <use x="45.605469" xlink:href="#LiberationSansNarrow-57"/>
       <use x="91.210938" xlink:href="#LiberationSansNarrow-56"/>
       <use x="136.816406" xlink:href="#LiberationSansNarrow-48"/>
      </g>
     </g>
    </g>
    <g id="xtick_5">
     <g id="line2d_5">
      <path clip-path="url(#pee778a841c)" d="M 452.777634 252.2 
L 452.777634 17.64 
" style="fill:none;stroke:#b0b0b0;stroke-dasharray:1.48,0.64;stroke-dashoffset:0;stroke-width:0.4;"/>
     </g>
     <g id="text_5">
      <!-- 2000 -->
      <g transform="translate(440.007009 269.345625)scale(0.14 -0.14)">
       <use xlink:href="#LiberationSansNarrow-50"/>
       <use x="45.605469" xlink:href="#LiberationSansNarrow-48"/>
       <use x="91.210938" xlink:href="#LiberationSansNarrow-48"/>
       <use x="136.816406" xlink:href="#LiberationSansNarrow-48"/>
      </g>
     </g>
    </g>
    <g id="xtick_6">
     <g id="line2d_6">
      <path clip-path="url(#pee778a841c)" d="M 543.987973 252.2 
L 543.987973 17.64 
" style="fill:none;stroke:#b0b0b0;stroke-dasharray:1.48,0.64;stroke-dashoffset:0;stroke-width:0.4;"/>
     </g>
     <g id="text_6">
      <!-- 2020 -->
      <g transform="translate(531.217348 269.345625)scale(0.14 -0.14)">
       <use xlink:href="#LiberationSansNarrow-50"/>
       <use x="45.605469" xlink:href="#LiberationSansNarrow-48"/>
       <use x="91.210938" xlink:href="#LiberationSansNarrow-50"/>
       <use x="136.816406" xlink:href="#LiberationSansNarrow-48"/>
      </g>
     </g>
    </g>
   </g>
   <g id="matplotlib.axis_2">
    <g id="ytick_1">
     <g id="line2d_7">
      <path clip-path="url(#pee778a841c)" d="M 41.65 246.296809 
L 558.36 246.296809 
" style="fill:none;stroke:#b0b0b0;stroke-dasharray:1.48,0.64;stroke-dashoffset:0;stroke-width:0.4;"/>
     </g>
     <g id="text_7">
      <!-- −10 -->
      <defs>
       <path d="M 4.046875 29.6875 
L 4.046875 36.8125 
L 43.890625 36.8125 
L 43.890625 29.6875 
z
" id="LiberationSansNarrow-8722"/>
      </defs>
      <g transform="translate(15.1725 251.369622)scale(0.14 -0.14)">
       <use xlink:href="#LiberationSansNarrow-8722"/>
       <use x="47.900391" xlink:href="#LiberationSansNarrow-49"/>
       <use x="93.505859" xlink:href="#LiberationSansNarrow-48"/>
      </g>
     </g>
    </g>
    <g id="ytick_2">
     <g id="line2d_8">
      <path clip-path="url(#pee778a841c)" d="M 41.65 202.164108 
L 558.36 202.164108 
" style="fill:none;stroke:#b0b0b0;stroke-dasharray:1.48,0.64;stroke-dashoffset:0;stroke-width:0.4;"/>
     </g>
     <g id="text_8">
      <!-- −5 -->
      <defs>
       <path d="M 42.140625 22.40625 
Q 42.140625 17.234375 40.859375 12.9375 
Q 39.59375 8.640625 37.078125 5.53125 
Q 34.578125 2.4375 30.8125 0.71875 
Q 27.046875 -0.984375 22.125 -0.984375 
Q 17.671875 -0.984375 14.375 0.28125 
Q 11.078125 1.5625 8.8125 3.78125 
Q 6.546875 6 5.203125 8.984375 
Q 3.859375 11.96875 3.265625 15.375 
L 10.546875 16.40625 
Q 10.984375 14.453125 11.78125 12.625 
Q 12.59375 10.796875 13.984375 9.34375 
Q 15.375 7.90625 17.40625 7.046875 
Q 19.4375 6.203125 22.3125 6.203125 
Q 25.09375 6.203125 27.390625 7.25 
Q 29.6875 8.296875 31.296875 10.34375 
Q 32.90625 12.40625 33.78125 15.375 
Q 34.671875 18.359375 34.671875 22.21875 
Q 34.671875 25.390625 33.84375 28.046875 
Q 33.015625 30.71875 31.453125 32.640625 
Q 29.890625 34.578125 27.609375 35.640625 
Q 25.34375 36.71875 22.46875 36.71875 
Q 20.65625 36.71875 19.140625 36.328125 
Q 17.625 35.9375 16.328125 35.25 
Q 15.046875 34.578125 13.96875 33.671875 
Q 12.890625 32.765625 11.96875 31.78125 
L 4.9375 31.78125 
L 6.78125 68.796875 
L 38.875 68.796875 
L 38.875 61.328125 
L 13.375 61.328125 
L 12.3125 39.5 
Q 14.203125 41.3125 17.078125 42.59375 
Q 19.96875 43.890625 23.921875 43.890625 
Q 28.125 43.890625 31.484375 42.328125 
Q 34.859375 40.765625 37.21875 37.90625 
Q 39.59375 35.0625 40.859375 31.109375 
Q 42.140625 27.15625 42.140625 22.40625 
z
" id="LiberationSansNarrow-53"/>
      </defs>
      <g transform="translate(21.557813 207.236921)scale(0.14 -0.14)">
       <use xlink:href="#LiberationSansNarrow-8722"/>
       <use x="47.900391" xlink:href="#LiberationSansNarrow-53"/>
      </g>
     </g>
    </g>
    <g id="ytick_3">
     <g id="line2d_9">
      <path clip-path="url(#pee778a841c)" d="M 41.65 158.031407 
L 558.36 158.031407 
" style="fill:none;stroke:#b0b0b0;stroke-dasharray:1.48,0.64;stroke-dashoffset:0;stroke-width:0.4;"/>
     </g>
     <g id="text_9">
      <!-- 0 -->
      <g transform="translate(28.264688 163.104219)scale(0.14 -0.14)">
       <use xlink:href="#LiberationSansNarrow-48"/>
      </g>
     </g>
    </g>
    <g id="ytick_4">
     <g id="line2d_10">
      <path clip-path="url(#pee778a841c)" d="M 41.65 113.898705 
L 558.36 113.898705 
" style="fill:none;stroke:#b0b0b0;stroke-dasharray:1.48,0.64;stroke-dashoffset:0;stroke-width:0.4;"/>
     </g>
     <g id="text_10">
      <!-- 5 -->
      <g transform="translate(28.264688 118.971518)scale(0.14 -0.14)">
       <use xlink:href="#LiberationSansNarrow-53"/>
      </g>
     </g>
    </g>
    <g id="ytick_5">
     <g id="line2d_11">
      <path clip-path="url(#pee778a841c)" d="M 41.65 69.766004 
L 558.36 69.766004 
" style="fill:none;stroke:#b0b0b0;stroke-dasharray:1.48,0.64;stroke-dashoffset:0;stroke-width:0.4;"/>
     </g>
     <g id="text_11">
      <!-- 10 -->
      <g transform="translate(21.879375 74.838817)scale(0.14 -0.14)">
       <use xlink:href="#LiberationSansNarrow-49"/>
       <use x="45.605469" xlink:href="#LiberationSansNarrow-48"/>
      </g>
     </g>
    </g>
    <g id="ytick_6">
     <g id="line2d_12">
      <path clip-path="url(#pee778a841c)" d="M 41.65 25.633303 
L 558.36 25.633303 
" style="fill:none;stroke:#b0b0b0;stroke-dasharray:1.48,0.64;stroke-dashoffset:0;stroke-width:0.4;"/>
     </g>
     <g id="text_12">
      <!-- 15 -->
      <g transform="translate(21.879375 30.706115)scale(0.14 -0.14)">
       <use xlink:href="#LiberationSansNarrow-49"/>
       <use x="45.605469" xlink:href="#LiberationSansNarrow-53"/>
      </g>
     </g>
    </g>
   </g>
   <g id="line2d_13">
    <path clip-path="url(#pee778a841c)" d="M 65.136818 135.057197 
L 69.694214 128.001029 
L 74.264095 127.161536 
L 78.82149 122.461073 
L 83.378886 132.637054 
L 87.936281 140.320167 
L 92.506163 154.766699 
L 97.063558 150.508242 
L 101.620953 135.442721 
L 106.178349 138.237103 
L 110.74823 131.862214 
L 115.305626 135.666761 
L 119.863021 140.912256 
L 124.420417 137.614326 
L 128.990298 127.668895 
L 133.547693 138.239901 
L 138.105089 157.436109 
L 142.662484 170.514904 
L 147.232366 170.289831 
L 151.789761 154.83276 
L 156.347156 148.244648 
L 160.904552 131.043466 
L 165.474433 133.706839 
L 170.031829 147.285149 
L 174.589224 141.781766 
L 179.14662 137.98908 
L 183.716501 127.08087 
L 188.273896 118.860068 
L 192.831292 112.837608 
L 197.388687 113.030677 
L 201.958569 105.61891 
L 206.515964 100.756716 
L 211.073359 95.539537 
L 215.630755 99.685298 
L 220.200636 109.175789 
L 224.758032 106.606111 
L 229.315427 109.761717 
L 233.872822 113.233834 
L 238.442704 105.577559 
L 243.000099 111.076045 
L 247.557495 111.741102 
L 252.11489 121.792107 
L 256.684772 129.021945 
L 261.242167 138.007281 
L 265.799562 138.227177 
L 270.356958 136.092923 
L 274.926839 133.474774 
L 279.484235 125.042073 
L 284.04163 122.399327 
L 288.599025 117.814104 
L 293.168907 120.586388 
L 297.726302 120.325711 
L 302.283698 119.898799 
L 306.841093 119.916033 
L 311.410975 117.24746 
L 315.96837 123.381529 
L 320.525765 124.638637 
L 325.083161 122.345645 
L 329.653042 116.636412 
L 334.210438 121.304337 
L 338.767833 124.585616 
L 343.325228 123.235057 
L 347.89511 123.860397 
L 352.452505 122.953954 
L 357.009901 124.952628 
L 361.567296 132.110819 
L 366.137178 136.264337 
L 370.694573 139.90507 
L 375.251968 140.330407 
L 379.809364 138.604908 
L 384.379245 135.958129 
L 388.936641 136.832161 
L 393.494036 137.882107 
L 398.051431 140.078416 
L 402.621313 137.79622 
L 407.178708 136.00557 
L 411.736104 139.847006 
L 416.293499 141.236404 
L 420.86338 143.464617 
L 425.420776 142.652776 
L 429.978171 138.699194 
L 434.535567 137.220303 
L 439.105448 133.028685 
L 443.662844 133.473325 
L 448.220239 134.684624 
L 452.777634 134.790248 
L 457.347516 136.048598 
L 461.904911 137.39501 
L 466.462307 138.29467 
L 471.019702 137.340289 
L 475.589583 135.457586 
L 480.146979 132.938546 
L 484.704374 133.357557 
L 489.26177 135.926958 
L 493.831651 139.183162 
L 498.389047 139.699537 
L 502.946442 139.242559 
L 507.503837 140.338035 
L 512.073719 136.419777 
L 516.631114 129.280076 
L 521.18851 126.230967 
L 525.745905 128.487488 
L 530.315786 124.781395 
L 534.873182 121.565786 
" style="fill:none;stroke:#1f77b4;stroke-linecap:square;stroke-width:1.5;"/>
   </g>
   <g id="line2d_14">
    <path clip-path="url(#pee778a841c)" d="M 65.136818 160.505069 
L 69.694214 159.344356 
L 74.264095 171.392159 
L 78.82149 194.923104 
L 83.378886 188.583214 
L 87.936281 202.614635 
L 92.506163 222.417416 
L 97.063558 210.36244 
L 101.620953 181.318662 
L 106.178349 197.459414 
L 110.74823 187.551311 
L 115.305626 178.478296 
L 119.863021 173.511828 
L 124.420417 154.16428 
L 128.990298 124.937788 
L 133.547693 125.738148 
L 138.105089 151.322012 
L 142.662484 177.988531 
L 147.232366 154.195531 
L 151.789761 127.029726 
L 156.347156 134.323301 
L 160.904552 98.437059 
L 165.474433 93.362877 
L 170.031829 133.707455 
L 174.589224 124.503623 
L 179.14662 136.021611 
L 183.716501 154.665355 
L 188.273896 175.353275 
L 192.831292 188.615809 
L 197.388687 201.544746 
L 201.958569 187.875228 
L 206.515964 158.911161 
L 211.073359 146.30885 
L 215.630755 150.365168 
L 220.200636 170.954881 
L 224.758032 154.87796 
L 229.315427 168.407243 
L 233.872822 176.221807 
L 238.442704 145.489522 
L 243.000099 154.5935 
L 247.557495 133.574499 
L 252.11489 110.346182 
L 256.684772 93.236168 
L 261.242167 104.771282 
L 265.799562 94.953401 
L 270.356958 99.65564 
L 274.926839 115.550282 
L 279.484235 85.790322 
L 284.04163 82.623279 
L 288.599025 74.768508 
L 293.168907 75.153082 
L 297.726302 80.887337 
L 302.283698 95.047778 
L 306.841093 94.604893 
L 311.410975 90.386787 
L 315.96837 123.034465 
L 320.525765 136.905034 
L 325.083161 132.769795 
L 329.653042 118.381256 
L 334.210438 153.746298 
L 338.767833 178.510325 
L 343.325228 166.235566 
L 347.89511 173.226896 
L 352.452505 180.882436 
L 357.009901 188.533356 
L 361.567296 196.07325 
L 366.137178 195.582728 
L 370.694573 199.646674 
L 375.251968 194.675358 
L 379.809364 190.502392 
L 384.379245 180.368326 
L 388.936641 170.43741 
L 393.494036 161.268819 
L 398.051431 172.606285 
L 402.621313 150.147717 
L 407.178708 118.925242 
L 411.736104 138.521693 
L 416.293499 126.31968 
L 420.86338 112.874868 
L 425.420776 109.942791 
L 429.978171 111.200823 
L 434.535567 99.902239 
L 439.105448 74.670947 
L 443.662844 71.920318 
L 448.220239 62.739398 
L 452.777634 55.583892 
L 457.347516 72.320257 
L 461.904911 97.449798 
L 466.462307 108.25326 
L 471.019702 100.10304 
L 475.589583 107.053368 
L 480.146979 98.387851 
L 484.704374 106.687549 
L 489.26177 112.104006 
L 493.831651 143.988738 
L 498.389047 127.147141 
L 502.946442 135.33164 
L 507.503837 147.664183 
L 512.073719 153.579371 
L 516.631114 156.576463 
L 521.18851 156.42944 
L 525.745905 154.502921 
L 530.315786 135.678695 
L 534.873182 108.098995 
" style="fill:none;stroke:#ff7f0e;stroke-linecap:square;"/>
   </g>
   <g id="line2d_15">
    <path clip-path="url(#pee778a841c)" d="M 65.136818 164.475199 
L 69.694214 136.430796 
L 74.264095 116.472981 
L 78.82149 144.830006 
L 83.378886 161.776906 
L 87.936281 171.1651 
L 92.506163 198.081201 
L 97.063558 241.538182 
L 101.620953 191.154741 
L 106.178349 167.691106 
L 110.74823 176.961052 
L 115.305626 164.435497 
L 119.863021 154.011261 
L 124.420417 162.63622 
L 128.990298 141.639599 
L 133.547693 127.258277 
L 138.105089 182.30702 
L 142.662484 222.309526 
L 147.232366 216.695291 
L 151.789761 191.125551 
L 156.347156 165.521544 
L 160.904552 138.028587 
L 165.474433 74.321782 
L 170.031829 123.319193 
L 174.589224 168.23031 
L 179.14662 146.749479 
L 183.716501 154.006815 
L 188.273896 157.108962 
L 192.831292 161.499794 
L 197.388687 182.321493 
L 201.958569 189.511732 
L 206.515964 165.945629 
L 211.073359 144.005843 
L 215.630755 111.291172 
L 220.200636 93.702872 
L 224.758032 105.703085 
L 229.315427 116.239739 
L 233.872822 145.780675 
L 238.442704 147.489818 
L 243.000099 116.912882 
L 247.557495 130.468264 
L 252.11489 122.088344 
L 256.684772 125.17349 
L 261.242167 120.57606 
L 265.799562 119.500322 
L 270.356958 110.651513 
L 274.926839 113.700532 
L 279.484235 114.427413 
L 284.04163 124.570673 
L 288.599025 139.588597 
L 293.168907 134.632837 
L 297.726302 134.843451 
L 302.283698 121.707836 
L 306.841093 124.932791 
L 311.410975 125.151923 
L 315.96837 136.795322 
L 320.525765 160.817748 
L 325.083161 150.766778 
L 329.653042 140.884135 
L 334.210438 125.264338 
L 338.767833 135.874906 
L 343.325228 139.397342 
L 347.89511 130.983089 
L 352.452505 136.336975 
L 357.009901 137.777839 
L 361.567296 142.003282 
L 366.137178 156.393946 
L 370.694573 160.441967 
L 375.251968 169.883672 
L 379.809364 166.000757 
L 384.379245 155.988735 
L 388.936641 156.515255 
L 393.494036 161.277054 
L 398.051431 157.758011 
L 402.621313 150.80536 
L 407.178708 155.048134 
L 411.736104 154.152854 
L 416.293499 180.265699 
L 420.86338 172.705128 
L 425.420776 169.771015 
L 429.978171 153.591867 
L 434.535567 142.492974 
L 439.105448 132.56153 
L 443.662844 119.120861 
L 448.220239 128.835853 
L 452.777634 120.968061 
L 457.347516 113.828991 
L 461.904911 154.835912 
L 466.462307 157.101222 
L 471.019702 140.258706 
L 475.589583 124.278802 
L 480.146979 108.508335 
L 484.704374 81.353343 
L 489.26177 109.156289 
L 493.831651 212.956722 
L 498.389047 146.988564 
L 502.946442 129.07457 
L 507.503837 131.275242 
L 512.073719 132.343129 
L 516.631114 120.769795 
L 521.18851 134.247248 
L 525.745905 141.601597 
L 530.315786 94.224517 
L 534.873182 93.673509 
" style="fill:none;stroke:#2ca02c;stroke-linecap:square;"/>
   </g>
   <g id="line2d_16">
    <path clip-path="url(#pee778a841c)" d="M 65.136818 118.107505 
L 69.694214 116.418 
L 74.264095 128.16176 
L 78.82149 150.394323 
L 83.378886 141.884084 
L 87.936281 155.738131 
L 92.506163 174.777092 
L 97.063558 160.223299 
L 101.620953 129.523159 
L 106.178349 146.067505 
L 110.74823 134.629641 
L 115.305626 124.937816 
L 119.863021 119.625609 
L 124.420417 99.291977 
L 128.990298 69.441171 
L 133.547693 71.538922 
L 138.105089 98.614606 
L 142.662484 125.536496 
L 147.232366 99.179278 
L 151.789761 72.214308 
L 156.347156 80.866673 
L 160.904552 44.64042 
L 165.474433 41.469691 
L 170.031829 83.98494 
L 174.589224 74.405451 
L 179.14662 87.310432 
L 183.716501 106.291222 
L 188.273896 126.823992 
L 192.831292 139.224892 
L 197.388687 152.219282 
L 201.958569 137.010722 
L 206.515964 106.866379 
L 211.073359 95.623711 
L 215.630755 102.821785 
L 220.200636 124.210797 
L 224.758032 105.978829 
L 229.315427 118.614462 
L 233.872822 125.106131 
L 238.442704 92.525261 
L 243.000099 102.246803 
L 247.557495 79.916528 
L 252.11489 56.830835 
L 256.684772 41.061935 
L 261.242167 55.383386 
L 265.799562 46.002682 
L 270.356958 52.164126 
L 274.926839 69.299297 
L 279.484235 38.924433 
L 284.04163 36.777877 
L 288.599025 30.258783 
L 293.168907 33.236804 
L 297.726302 41.751216 
L 302.283698 58.570482 
L 306.841093 59.852891 
L 311.410975 57.294912 
L 315.96837 92.013558 
L 320.525765 106.365231 
L 325.083161 102.522427 
L 329.653042 88.455782 
L 334.210438 125.252559 
L 338.767833 149.943886 
L 343.325228 136.882739 
L 347.89511 143.617687 
L 352.452505 150.80523 
L 357.009901 157.550689 
L 361.567296 164.043731 
L 366.137178 162.377488 
L 370.694573 165.576913 
L 375.251968 158.969417 
L 379.809364 153.89144 
L 384.379245 142.553318 
L 388.936641 132.047188 
L 393.494036 122.338685 
L 398.051431 134.000407 
L 402.621313 110.367411 
L 407.178708 78.656692 
L 411.736104 99.457778 
L 416.293499 87.112413 
L 420.86338 74.169745 
L 425.420776 72.626443 
L 429.978171 75.452446 
L 434.535567 65.370809 
L 439.105448 41.263667 
L 443.662844 40.988333 
L 448.220239 33.41933 
L 452.777634 28.301818 
L 457.347516 47.401755 
L 461.904911 74.434984 
L 466.462307 86.378881 
L 471.019702 79.173641 
L 475.589583 87.242753 
L 480.146979 79.551383 
L 484.704374 88.860621 
L 489.26177 95.095165 
L 493.831651 127.633163 
L 498.389047 110.627223 
L 502.946442 119.247508 
L 507.503837 131.873702 
L 512.073719 137.669977 
L 516.631114 140.381881 
L 521.18851 139.809082 
L 525.745905 137.308465 
L 530.315786 117.679557 
L 534.873182 89.425001 
" style="fill:none;stroke:#d62728;stroke-linecap:square;"/>
   </g>
   <g id="line2d_17">
    <path clip-path="url(#pee778a841c)" d="M 274.926839 104.544762 
L 279.484235 87.826845 
L 284.04163 80.000032 
L 288.599025 70.154754 
L 293.168907 71.035998 
L 297.726302 77.548873 
L 302.283698 84.392057 
L 306.841093 80.072394 
L 311.410975 74.448094 
L 315.96837 105.805788 
L 320.525765 116.660926 
L 325.083161 107.496685 
L 329.653042 102.59626 
L 334.210438 135.074555 
L 338.767833 150.539351 
L 343.325228 150.60337 
L 347.89511 156.462308 
L 352.452505 168.222902 
L 357.009901 168.762643 
L 361.567296 179.985347 
L 366.137178 170.030585 
L 370.694573 186.82558 
L 375.251968 169.6895 
L 379.809364 181.778879 
L 384.379245 165.295512 
L 388.936641 157.9203 
L 393.494036 149.875407 
L 398.051431 163.0661 
L 402.621313 142.00101 
L 407.178708 122.943165 
L 411.736104 129.332053 
L 416.293499 118.420594 
L 420.86338 101.472769 
L 425.420776 105.630305 
L 429.978171 95.407192 
L 434.535567 95.587154 
L 439.105448 74.198242 
L 443.662844 71.173593 
L 448.220239 61.164184 
L 452.777634 46.517248 
L 457.347516 83.559723 
L 461.904911 97.220778 
L 466.462307 107.729915 
L 471.019702 92.984006 
L 475.589583 93.766268 
L 480.146979 93.102274 
L 484.704374 96.692914 
L 489.26177 108.570097 
L 493.831651 136.470136 
L 498.389047 121.963344 
L 502.946442 127.820249 
L 507.503837 129.54892 
L 512.073719 144.432855 
L 516.631114 141.252582 
L 521.18851 152.699129 
L 525.745905 133.564212 
L 530.315786 128.981014 
L 534.873182 104.713639 
" style="fill:none;stroke:#9467bd;stroke-linecap:square;"/>
   </g>
   <g id="legend_1">
    <g id="patch_3">
     <path d="M 222.663863 246.369 
L 550.1966 246.369 
Q 552.529 246.369 552.529 244.0366 
L 552.529 214.028816 
Q 552.529 211.696416 550.1966 211.696416 
L 222.663863 211.696416 
Q 220.331463 211.696416 220.331463 214.028816 
L 220.331463 244.0366 
Q 220.331463 246.369 222.663863 246.369 
z
" style="fill:#ffffff;opacity:0.8;stroke:#cccccc;stroke-linejoin:miter;"/>
    </g>
    <g id="line2d_18">
     <path d="M 224.996263 220.832864 
L 248.320263 220.832864 
" style="fill:none;stroke:#1f77b4;stroke-linecap:square;stroke-width:1.5;"/>
    </g>
    <g id="line2d_19"/>
    <g id="text_13">
     <!-- ВВП -->
     <defs>
      <path d="M 50.34375 19.390625 
Q 50.34375 14.15625 48.671875 10.46875 
Q 47.015625 6.78125 44.15625 4.46875 
Q 41.3125 2.15625 37.546875 1.078125 
Q 33.796875 0 29.640625 0 
L 6.734375 0 
L 6.734375 68.796875 
L 27.25 68.796875 
Q 31.9375 68.796875 35.59375 67.84375 
Q 39.265625 66.890625 41.828125 64.84375 
Q 44.390625 62.796875 45.734375 59.640625 
Q 47.078125 56.5 47.078125 52.09375 
Q 47.078125 49.21875 46.40625 46.671875 
Q 45.75 44.140625 44.40625 42.0625 
Q 43.0625 39.984375 41.03125 38.5 
Q 39.015625 37.015625 36.328125 36.28125 
Q 39.75 35.796875 42.375 34.375 
Q 45.015625 32.953125 46.765625 30.75 
Q 48.53125 28.5625 49.4375 25.65625 
Q 50.34375 22.75 50.34375 19.390625 
z
M 39.40625 50.984375 
Q 39.40625 56.546875 36.28125 58.9375 
Q 33.15625 61.328125 27.25 61.328125 
L 14.359375 61.328125 
L 14.359375 39.546875 
L 27.25 39.546875 
Q 30.609375 39.546875 32.921875 40.34375 
Q 35.25 41.15625 36.6875 42.640625 
Q 38.140625 44.140625 38.765625 46.234375 
Q 39.40625 48.34375 39.40625 50.984375 
z
M 42.625 20.125 
Q 42.625 23.390625 41.640625 25.6875 
Q 40.671875 27.984375 38.84375 29.4375 
Q 37.015625 30.90625 34.421875 31.59375 
Q 31.84375 32.28125 28.609375 32.28125 
L 14.359375 32.28125 
L 14.359375 7.46875 
L 29.25 7.46875 
Q 32.171875 7.46875 34.609375 8.046875 
Q 37.0625 8.640625 38.84375 10.109375 
Q 40.625 11.578125 41.625 14.015625 
Q 42.625 16.453125 42.625 20.125 
z
" id="LiberationSansNarrow-1042"/>
      <path d="M 44.78125 0 
L 44.78125 60.9375 
L 14.265625 60.9375 
L 14.265625 0 
L 6.640625 0 
L 6.640625 68.796875 
L 52.390625 68.796875 
L 52.390625 0 
z
" id="LiberationSansNarrow-1055"/>
     </defs>
     <g transform="translate(257.649863 224.914564)scale(0.11662 -0.11662)">
      <use xlink:href="#LiberationSansNarrow-1042"/>
      <use x="54.6875" xlink:href="#LiberationSansNarrow-1042"/>
      <use x="109.375" xlink:href="#LiberationSansNarrow-1055"/>
     </g>
    </g>
    <g id="line2d_20">
     <path d="M 224.996263 235.202635 
L 248.320263 235.202635 
" style="fill:none;stroke:#ff7f0e;stroke-linecap:square;"/>
    </g>
    <g id="line2d_21"/>
    <g id="text_14">
     <!-- Цена -->
     <defs>
      <path d="M 59.1875 7.8125 
L 59.1875 -19.921875 
L 51.953125 -19.921875 
L 51.953125 0 
L 6.734375 0 
L 6.734375 68.796875 
L 14.40625 68.796875 
L 14.40625 7.8125 
L 44.734375 7.8125 
L 44.734375 68.796875 
L 52.15625 68.796875 
L 52.15625 7.8125 
z
" id="LiberationSansNarrow-1062"/>
      <path d="M 10.6875 24.5625 
Q 10.6875 20.40625 11.5625 16.90625 
Q 12.453125 13.421875 13.90625 10.90625 
Q 15.375 8.40625 17.640625 7 
Q 19.921875 5.609375 23.140625 5.609375 
Q 27.828125 5.609375 30.65625 7.90625 
Q 33.5 10.203125 34.46875 13.71875 
L 40.828125 11.53125 
Q 40.140625 9.328125 38.921875 7.109375 
Q 37.703125 4.890625 35.640625 3.09375 
Q 33.59375 1.3125 30.53125 0.15625 
Q 27.484375 -0.984375 23.140625 -0.984375 
Q 13.53125 -0.984375 8.5 6 
Q 3.46875 12.984375 3.46875 26.765625 
Q 3.46875 34.1875 5 39.328125 
Q 6.546875 44.484375 9.171875 47.703125 
Q 11.8125 50.921875 15.328125 52.359375 
Q 18.84375 53.8125 22.859375 53.8125 
Q 28.328125 53.8125 31.984375 51.65625 
Q 39.0625 47.515625 41.015625 36.8125 
Q 41.9375 31.6875 41.9375 25.734375 
L 41.9375 24.5625 
z
M 34.71875 31.296875 
Q 34.71875 40.140625 31.421875 43.71875 
Q 28.125 47.3125 22.75 47.3125 
Q 18.953125 47.3125 15.328125 44.09375 
Q 10.9375 40.328125 10.6875 31.296875 
z
" id="LiberationSansNarrow-1077"/>
      <path d="M 12.890625 52.828125 
L 12.890625 30.46875 
L 32.375 30.46875 
L 32.375 52.828125 
L 39.59375 52.828125 
L 39.59375 0 
L 32.375 0 
L 32.375 24.078125 
L 12.890625 24.078125 
L 12.890625 0 
L 5.671875 0 
L 5.671875 52.828125 
z
" id="LiberationSansNarrow-1085"/>
      <path d="M 16.546875 -0.984375 
Q 10.015625 -0.984375 6.734375 3.21875 
Q 3.46875 7.421875 3.46875 14.75 
Q 3.46875 19.96875 5.09375 23.3125 
Q 6.734375 26.65625 9.34375 28.5625 
Q 11.96875 30.46875 15.328125 31.203125 
Q 18.703125 31.9375 22.171875 32.03125 
L 31.9375 32.234375 
L 31.9375 35.109375 
Q 31.9375 38.375 31.375 40.671875 
Q 30.8125 42.96875 29.640625 44.375 
Q 28.46875 45.796875 26.734375 46.453125 
Q 25 47.125 22.609375 47.125 
Q 20.515625 47.125 18.84375 46.75 
Q 17.1875 46.390625 15.9375 45.4375 
Q 14.703125 44.484375 13.9375 42.84375 
Q 13.1875 41.21875 12.9375 38.71875 
L 5.421875 39.546875 
Q 5.8125 42.671875 6.9375 45.28125 
Q 8.0625 47.90625 10.109375 49.796875 
Q 12.15625 51.703125 15.25 52.75 
Q 18.359375 53.8125 22.796875 53.8125 
Q 30.953125 53.8125 35.078125 49.234375 
Q 39.203125 44.671875 39.203125 36.03125 
L 39.203125 13.28125 
Q 39.203125 9.375 40.03125 7.390625 
Q 40.875 5.421875 43.265625 5.421875 
Q 43.84375 5.421875 44.453125 5.515625 
Q 45.0625 5.609375 45.609375 5.765625 
L 45.609375 0.296875 
Q 44.234375 -0.09375 42.890625 -0.28125 
Q 41.546875 -0.484375 40.046875 -0.484375 
Q 37.984375 -0.484375 36.515625 0.171875 
Q 35.0625 0.828125 34.15625 2.171875 
Q 33.25 3.515625 32.765625 5.484375 
Q 32.28125 7.46875 32.125 10.109375 
L 31.9375 10.109375 
Q 30.765625 7.5625 29.375 5.515625 
Q 27.984375 3.46875 26.140625 2.03125 
Q 24.3125 0.59375 21.9375 -0.1875 
Q 19.578125 -0.984375 16.546875 -0.984375 
z
M 18.21875 5.609375 
Q 21.6875 5.609375 24.25 7.140625 
Q 26.8125 8.6875 28.515625 11.078125 
Q 30.21875 13.484375 31.078125 16.3125 
Q 31.9375 19.140625 31.9375 21.734375 
L 31.9375 26.078125 
L 24.03125 25.875 
Q 21.390625 25.828125 19 25.40625 
Q 16.609375 25 14.8125 23.78125 
Q 13.03125 22.5625 11.953125 20.359375 
Q 10.890625 18.171875 10.890625 14.59375 
Q 10.890625 10.296875 12.796875 7.953125 
Q 14.703125 5.609375 18.21875 5.609375 
z
" id="LiberationSansNarrow-1072"/>
     </defs>
     <g transform="translate(257.649863 239.284335)scale(0.11662 -0.11662)">
      <use xlink:href="#LiberationSansNarrow-1062"/>
      <use x="60.693359" xlink:href="#LiberationSansNarrow-1077"/>
      <use x="106.298828" xlink:href="#LiberationSansNarrow-1085"/>
      <use x="151.5625" xlink:href="#LiberationSansNarrow-1072"/>
     </g>
    </g>
    <g id="line2d_22">
     <path d="M 303.968048 220.832864 
L 327.292048 220.832864 
" style="fill:none;stroke:#2ca02c;stroke-linecap:square;"/>
    </g>
    <g id="line2d_23"/>
    <g id="text_15">
     <!-- Прибыль на акцию -->
     <defs>
      <path d="M 42.140625 26.65625 
Q 42.140625 20.65625 41.359375 15.578125 
Q 40.578125 10.5 38.6875 6.828125 
Q 36.8125 3.171875 33.765625 1.09375 
Q 30.71875 -0.984375 26.21875 -0.984375 
Q 21.578125 -0.984375 18.078125 1.171875 
Q 14.59375 3.328125 12.796875 8.203125 
L 12.546875 8.203125 
Q 12.59375 8.109375 12.609375 7.328125 
Q 12.640625 6.546875 12.671875 5.375 
Q 12.703125 4.203125 12.71875 2.75 
Q 12.75 1.3125 12.75 -0.09375 
L 12.75 -20.75 
L 5.515625 -20.75 
L 5.515625 42.046875 
Q 5.515625 43.953125 5.484375 45.703125 
Q 5.46875 47.46875 5.4375 48.90625 
Q 5.421875 50.34375 5.375 51.359375 
Q 5.328125 52.390625 5.28125 52.828125 
L 12.25 52.828125 
Q 12.3125 52.6875 12.359375 51.8125 
L 12.5 49.703125 
Q 12.546875 48.4375 12.59375 47.015625 
Q 12.640625 45.609375 12.640625 44.34375 
L 12.796875 44.34375 
Q 13.765625 46.875 15.0625 48.65625 
Q 16.359375 50.4375 18.015625 51.578125 
Q 19.671875 52.734375 21.671875 53.25 
Q 23.6875 53.765625 26.21875 53.765625 
Q 30.71875 53.765625 33.765625 51.8125 
Q 36.8125 49.859375 38.6875 46.3125 
Q 40.578125 42.78125 41.359375 37.765625 
Q 42.140625 32.765625 42.140625 26.65625 
z
M 34.578125 26.46875 
Q 34.578125 31.34375 34.109375 35.15625 
Q 33.640625 38.96875 32.4375 41.59375 
Q 31.25 44.234375 29.296875 45.59375 
Q 27.34375 46.96875 24.359375 46.96875 
Q 21.96875 46.96875 19.84375 46.140625 
Q 17.71875 45.3125 16.125 42.96875 
Q 14.546875 40.625 13.640625 36.5 
Q 12.75 32.375 12.75 25.78125 
Q 12.75 20.171875 13.5 16.28125 
Q 14.265625 12.40625 15.71875 10.015625 
Q 17.1875 7.625 19.328125 6.5625 
Q 21.484375 5.515625 24.3125 5.515625 
Q 27.34375 5.515625 29.296875 6.921875 
Q 31.25 8.34375 32.4375 11.03125 
Q 33.640625 13.71875 34.109375 17.59375 
Q 34.578125 21.484375 34.578125 26.46875 
z
" id="LiberationSansNarrow-1088"/>
      <path d="M 12.640625 52.828125 
L 12.640625 23.921875 
Q 12.640625 22.796875 12.59375 20.921875 
Q 12.546875 19.046875 12.46875 17.046875 
Q 12.40625 15.046875 12.359375 13.234375 
Q 12.3125 11.421875 12.25 10.40625 
L 32.28125 52.828125 
L 40.140625 52.828125 
L 40.140625 0 
L 33.25 0 
L 33.25 32.234375 
Q 33.25 33.15625 33.296875 34.578125 
L 33.40625 37.40625 
Q 33.453125 38.875 33.5 40.234375 
L 33.640625 42.625 
L 13.375 0 
L 5.71875 0 
L 5.71875 52.828125 
z
" id="LiberationSansNarrow-1080"/>
      <path d="M 35.9375 24.515625 
Q 35.9375 30.078125 35.15625 33.765625 
Q 34.375 37.453125 32.9375 39.671875 
Q 31.5 41.890625 29.390625 42.796875 
Q 27.296875 43.703125 24.703125 43.703125 
Q 21.921875 43.703125 19.65625 42.75 
Q 17.390625 41.796875 15.765625 39.546875 
Q 14.15625 37.3125 13.25 33.640625 
Q 12.359375 29.984375 12.359375 24.515625 
Q 12.359375 18.953125 13.25 15.28125 
Q 14.15625 11.625 15.6875 9.453125 
Q 17.234375 7.28125 19.328125 6.390625 
Q 21.4375 5.515625 23.921875 5.515625 
Q 26.703125 5.515625 28.921875 6.390625 
Q 31.15625 7.28125 32.71875 9.421875 
Q 34.28125 11.578125 35.109375 15.265625 
Q 35.9375 18.953125 35.9375 24.515625 
z
M 26.21875 50.140625 
Q 35.109375 50.140625 39.296875 43.765625 
Q 43.5 37.40625 43.5 24.609375 
Q 43.5 11.671875 38.5 5.34375 
Q 33.5 -0.984375 23.96875 -0.984375 
Q 19.4375 -0.984375 15.890625 0.71875 
Q 12.359375 2.4375 9.890625 6.25 
Q 7.421875 10.0625 6.09375 16.15625 
Q 4.78125 22.265625 4.78125 31.0625 
Q 4.78125 40.4375 5.953125 47.21875 
Q 7.125 54 9.6875 58.703125 
Q 12.25 63.421875 16.375 66.234375 
Q 20.515625 69.046875 26.375 70.40625 
Q 28.65625 70.953125 30.65625 71.359375 
Q 32.671875 71.78125 34.46875 72.125 
L 38.03125 72.75 
L 41.5 73.34375 
L 41.5 65.484375 
Q 38.03125 64.9375 34.8125 64.375 
Q 31.59375 63.8125 27.9375 62.984375 
Q 24.8125 62.3125 22.34375 61.5 
Q 19.875 60.6875 17.984375 59.46875 
Q 16.109375 58.25 14.765625 56.46875 
Q 13.421875 54.6875 12.546875 52.046875 
Q 11.671875 49.421875 11.203125 45.78125 
Q 10.75 42.140625 10.640625 37.203125 
Q 11.421875 39.890625 12.765625 42.25 
Q 14.109375 44.625 16.03125 46.375 
Q 17.96875 48.140625 20.484375 49.140625 
Q 23 50.140625 26.21875 50.140625 
z
" id="LiberationSansNarrow-1073"/>
      <path d="M 22.796875 30.46875 
Q 31.296875 30.46875 35.640625 26.875 
Q 39.984375 23.296875 39.984375 15.53125 
Q 39.984375 11.921875 38.90625 9.03125 
Q 37.84375 6.15625 35.671875 4.15625 
Q 33.5 2.15625 30.296875 1.078125 
Q 27.09375 0 22.859375 0 
L 5.859375 0 
L 5.859375 52.828125 
L 13.328125 52.828125 
L 13.328125 30.46875 
z
M 13.328125 6.203125 
L 21.734375 6.203125 
Q 24.609375 6.203125 26.578125 6.8125 
Q 28.5625 7.421875 29.78125 8.609375 
Q 31 9.8125 31.53125 11.546875 
Q 32.078125 13.28125 32.078125 15.53125 
Q 32.078125 20.125 29.65625 22.234375 
Q 27.25 24.359375 21.734375 24.359375 
L 13.328125 24.359375 
z
M 47.65625 0 
L 47.65625 52.828125 
L 55.125 52.828125 
L 55.125 0 
z
" id="LiberationSansNarrow-1099"/>
      <path d="M 34.859375 0 
L 34.859375 46.4375 
L 19.875 46.4375 
Q 18.890625 37.453125 18.03125 30.4375 
Q 17.1875 23.4375 16.3125 18.15625 
Q 15.4375 12.890625 14.40625 9.25 
Q 13.375 5.609375 11.953125 3.34375 
Q 10.546875 1.078125 8.65625 0.046875 
Q 6.78125 -0.984375 4.203125 -0.984375 
Q 3.03125 -0.984375 2.078125 -0.78125 
Q 1.125 -0.59375 0.4375 -0.34375 
L 0.4375 5.953125 
Q 0.875 5.765625 1.625 5.640625 
Q 2.390625 5.515625 3.171875 5.515625 
Q 4.59375 5.515625 5.59375 6.53125 
Q 6.59375 7.5625 7.390625 9.859375 
Q 8.203125 12.15625 8.859375 15.796875 
Q 9.515625 19.4375 10.203125 24.703125 
Q 10.890625 29.984375 11.625 36.921875 
L 13.375 52.828125 
L 42.140625 52.828125 
L 42.140625 0 
z
" id="LiberationSansNarrow-1083"/>
      <path d="M 22.75 30.46875 
Q 30.953125 30.46875 35.15625 26.875 
Q 39.359375 23.296875 39.359375 15.53125 
Q 39.359375 11.921875 38.296875 9.03125 
Q 37.25 6.15625 35.171875 4.15625 
Q 33.109375 2.15625 30 1.078125 
Q 26.90625 0 22.796875 0 
L 5.671875 0 
L 5.671875 52.828125 
L 12.890625 52.828125 
L 12.890625 30.46875 
z
M 12.890625 6.203125 
L 21.6875 6.203125 
Q 24.46875 6.203125 26.390625 6.8125 
Q 28.328125 7.421875 29.5 8.609375 
Q 30.671875 9.8125 31.171875 11.546875 
Q 31.6875 13.28125 31.6875 15.53125 
Q 31.6875 20.125 29.359375 22.234375 
Q 27.046875 24.359375 21.734375 24.359375 
L 12.890625 24.359375 
z
" id="LiberationSansNarrow-1100"/>
      <path id="LiberationSansNarrow-32"/>
      <path d="M 5.515625 52.828125 
L 12.703125 52.828125 
L 12.703125 29.6875 
Q 13.921875 29.6875 14.875 30.078125 
Q 15.828125 30.46875 16.875 31.6875 
Q 17.921875 32.90625 19.21875 35.15625 
Q 20.515625 37.40625 22.46875 41.15625 
L 28.375 52.828125 
L 35.890625 52.828125 
L 27.25 36.96875 
Q 25.4375 33.734375 24.109375 31.65625 
Q 22.796875 29.59375 22.125 28.90625 
L 36.234375 0 
L 28.21875 0 
L 17.140625 24.265625 
Q 16.359375 23.875 15.0625 23.578125 
Q 13.765625 23.296875 12.703125 23.296875 
L 12.703125 0 
L 5.515625 0 
z
" id="LiberationSansNarrow-1082"/>
      <path d="M 12.890625 52.828125 
L 12.890625 6.390625 
L 31.984375 6.390625 
L 31.984375 52.828125 
L 39.203125 52.828125 
L 39.203125 6.390625 
L 45.0625 6.390625 
L 45.0625 -19.921875 
L 38.578125 -19.921875 
L 38.578125 0 
L 5.671875 0 
L 5.671875 52.828125 
z
" id="LiberationSansNarrow-1094"/>
      <path d="M 58.0625 26.46875 
Q 58.0625 12.59375 53.34375 5.796875 
Q 48.640625 -0.984375 39.703125 -0.984375 
Q 35.59375 -0.984375 32.390625 0.53125 
Q 29.203125 2.046875 26.875 5.171875 
Q 24.5625 8.296875 23.265625 12.984375 
Q 21.96875 17.671875 21.78125 24.078125 
L 12.890625 24.078125 
L 12.890625 0 
L 5.671875 0 
L 5.671875 52.828125 
L 12.890625 52.828125 
L 12.890625 30.46875 
L 21.828125 30.46875 
Q 23.140625 53.8125 39.9375 53.8125 
Q 49.421875 53.8125 53.734375 46.96875 
Q 58.0625 40.140625 58.0625 26.46875 
z
M 50.484375 26.46875 
Q 50.484375 32.625 49.78125 36.625 
Q 49.078125 40.625 47.734375 43.015625 
Q 46.390625 45.40625 44.4375 46.359375 
Q 42.484375 47.3125 40.046875 47.3125 
Q 37.5 47.3125 35.546875 46.3125 
Q 33.59375 45.3125 32.171875 42.890625 
Q 30.765625 40.484375 30.03125 36.46875 
Q 29.296875 32.46875 29.296875 26.46875 
Q 29.296875 20.3125 30.078125 16.28125 
Q 30.859375 12.25 32.25 9.859375 
Q 33.640625 7.46875 35.515625 6.484375 
Q 37.40625 5.515625 39.65625 5.515625 
Q 42.140625 5.515625 44.140625 6.46875 
Q 46.140625 7.421875 47.53125 9.8125 
Q 48.921875 12.203125 49.703125 16.25 
Q 50.484375 20.3125 50.484375 26.46875 
z
" id="LiberationSansNarrow-1102"/>
     </defs>
     <g transform="translate(336.621647 224.914564)scale(0.11662 -0.11662)">
      <use xlink:href="#LiberationSansNarrow-1055"/>
      <use x="59.179688" xlink:href="#LiberationSansNarrow-1088"/>
      <use x="104.785156" xlink:href="#LiberationSansNarrow-1080"/>
      <use x="150.634766" xlink:href="#LiberationSansNarrow-1073"/>
      <use x="197.607422" xlink:href="#LiberationSansNarrow-1099"/>
      <use x="258.59375" xlink:href="#LiberationSansNarrow-1083"/>
      <use x="306.396484" xlink:href="#LiberationSansNarrow-1100"/>
      <use x="349.121094" xlink:href="#LiberationSansNarrow-32"/>
      <use x="371.923828" xlink:href="#LiberationSansNarrow-1085"/>
      <use x="417.1875" xlink:href="#LiberationSansNarrow-1072"/>
      <use x="462.792969" xlink:href="#LiberationSansNarrow-32"/>
      <use x="485.595703" xlink:href="#LiberationSansNarrow-1072"/>
      <use x="531.201172" xlink:href="#LiberationSansNarrow-1082"/>
      <use x="567.041016" xlink:href="#LiberationSansNarrow-1094"/>
      <use x="614.013672" xlink:href="#LiberationSansNarrow-1080"/>
      <use x="659.863281" xlink:href="#LiberationSansNarrow-1102"/>
     </g>
    </g>
    <g id="line2d_24">
     <path d="M 303.968048 235.202635 
L 327.292048 235.202635 
" style="fill:none;stroke:#d62728;stroke-linecap:square;"/>
    </g>
    <g id="line2d_25"/>
    <g id="text_16">
     <!-- Полная доходность -->
     <defs>
      <path d="M 42.140625 26.46875 
Q 42.140625 12.59375 37.125 5.796875 
Q 32.125 -0.984375 22.609375 -0.984375 
Q 18.0625 -0.984375 14.515625 0.671875 
Q 10.984375 2.34375 8.515625 5.765625 
Q 6.0625 9.1875 4.765625 14.328125 
Q 3.46875 19.484375 3.46875 26.46875 
Q 3.46875 53.8125 22.859375 53.8125 
Q 27.875 53.8125 31.5625 52.09375 
Q 35.25 50.390625 37.59375 46.96875 
Q 39.9375 43.5625 41.03125 38.421875 
Q 42.140625 33.296875 42.140625 26.46875 
z
M 34.578125 26.46875 
Q 34.578125 32.625 33.8125 36.625 
Q 33.0625 40.625 31.546875 43.015625 
Q 30.03125 45.40625 27.859375 46.359375 
Q 25.6875 47.3125 23 47.3125 
Q 20.21875 47.3125 17.984375 46.3125 
Q 15.765625 45.3125 14.203125 42.890625 
Q 12.640625 40.484375 11.828125 36.46875 
Q 11.03125 32.46875 11.03125 26.46875 
Q 11.03125 20.3125 11.90625 16.28125 
Q 12.796875 12.25 14.328125 9.859375 
Q 15.875 7.46875 17.96875 6.484375 
Q 20.0625 5.515625 22.5625 5.515625 
Q 25.34375 5.515625 27.5625 6.46875 
Q 29.78125 7.421875 31.34375 9.8125 
Q 32.90625 12.203125 33.734375 16.25 
Q 34.578125 20.3125 34.578125 26.46875 
z
" id="LiberationSansNarrow-1086"/>
      <path d="M 21.4375 22.359375 
L 8.84375 0 
L 0.6875 0 
L 14.453125 23 
Q 9.234375 24.3125 6.859375 28.296875 
Q 4.5 32.28125 4.5 38.234375 
Q 4.5 45.515625 8.8125 49.171875 
Q 13.140625 52.828125 21.4375 52.828125 
L 38.71875 52.828125 
L 38.71875 0 
L 31.546875 0 
L 31.546875 22.359375 
z
M 31.546875 46.625 
L 22.171875 46.625 
Q 16.9375 46.625 14.546875 44.375 
Q 12.15625 42.140625 12.15625 37.59375 
Q 12.15625 33.015625 14.28125 30.734375 
Q 16.40625 28.46875 21.390625 28.46875 
L 31.546875 28.46875 
z
" id="LiberationSansNarrow-1103"/>
      <path d="M 33.34375 46.4375 
L 21.140625 46.4375 
Q 20.171875 37.796875 19.1875 31.375 
Q 18.21875 24.953125 17.234375 20.21875 
Q 16.265625 15.484375 15.3125 12.15625 
Q 14.359375 8.84375 13.484375 6.390625 
L 33.34375 6.390625 
z
M 46.390625 -19.921875 
L 39.890625 -19.921875 
L 39.890625 0 
L 7.328125 0 
L 7.328125 -19.921875 
L 0.78125 -19.921875 
L 0.78125 6.390625 
L 5.5625 6.390625 
Q 6.78125 8.84375 7.921875 12.328125 
Q 9.078125 15.828125 10.21875 21.1875 
Q 11.375 26.5625 12.515625 34.25 
Q 13.671875 41.9375 14.796875 52.828125 
L 40.578125 52.828125 
L 40.578125 6.390625 
L 46.390625 6.390625 
z
" id="LiberationSansNarrow-1076"/>
      <path d="M 32.078125 0 
L 20.40625 21.6875 
L 8.6875 0 
L 0.921875 0 
L 16.359375 27.15625 
L 1.65625 52.828125 
L 9.625 52.828125 
L 20.40625 32.28125 
L 31.15625 52.828125 
L 39.203125 52.828125 
L 24.515625 27.25 
L 40.140625 0 
z
" id="LiberationSansNarrow-1093"/>
      <path d="M 11.03125 26.65625 
Q 11.03125 22.125 11.5625 18.3125 
Q 12.109375 14.5 13.375 11.734375 
Q 14.65625 8.984375 16.75 7.46875 
Q 18.84375 5.953125 21.96875 5.953125 
Q 25.828125 5.953125 28.390625 8.484375 
Q 30.953125 11.03125 31.546875 16.3125 
L 38.875 15.71875 
Q 38.53125 12.453125 37.296875 9.421875 
Q 36.078125 6.390625 34.03125 4.09375 
Q 31.984375 1.8125 29 0.40625 
Q 26.03125 -0.984375 22.171875 -0.984375 
Q 17.09375 -0.984375 13.5 1.109375 
Q 9.90625 3.21875 7.6875 6.90625 
Q 5.46875 10.59375 4.46875 15.59375 
Q 3.46875 20.609375 3.46875 26.46875 
Q 3.46875 31.78125 4.203125 35.859375 
Q 4.9375 39.9375 6.21875 42.984375 
Q 7.515625 46.046875 9.265625 48.125 
Q 11.03125 50.203125 13.109375 51.4375 
Q 15.1875 52.6875 17.453125 53.25 
Q 19.734375 53.8125 22.078125 53.8125 
Q 25.734375 53.8125 28.5625 52.59375 
Q 31.390625 51.375 33.46875 49.25 
Q 35.546875 47.125 36.8125 44.234375 
Q 38.09375 41.359375 38.625 38.03125 
L 31.203125 37.359375 
Q 30.671875 41.75 28.375 44.328125 
Q 26.078125 46.921875 21.875 46.921875 
Q 18.796875 46.921875 16.71875 45.671875 
Q 14.65625 44.4375 13.375 41.921875 
Q 12.109375 39.40625 11.5625 35.59375 
Q 11.03125 31.78125 11.03125 26.65625 
z
" id="LiberationSansNarrow-1089"/>
      <path d="M 1.421875 52.828125 
L 36.140625 52.828125 
L 36.140625 46.4375 
L 22.359375 46.4375 
L 22.359375 0 
L 15.1875 0 
L 15.1875 46.4375 
L 1.421875 46.4375 
z
" id="LiberationSansNarrow-1090"/>
     </defs>
     <g transform="translate(336.621647 239.284335)scale(0.11662 -0.11662)">
      <use xlink:href="#LiberationSansNarrow-1055"/>
      <use x="59.179688" xlink:href="#LiberationSansNarrow-1086"/>
      <use x="104.753906" xlink:href="#LiberationSansNarrow-1083"/>
      <use x="152.556641" xlink:href="#LiberationSansNarrow-1085"/>
      <use x="197.820312" xlink:href="#LiberationSansNarrow-1072"/>
      <use x="243.425781" xlink:href="#LiberationSansNarrow-1103"/>
      <use x="287.859375" xlink:href="#LiberationSansNarrow-32"/>
      <use x="310.662109" xlink:href="#LiberationSansNarrow-1076"/>
      <use x="358.464844" xlink:href="#LiberationSansNarrow-1086"/>
      <use x="404.054688" xlink:href="#LiberationSansNarrow-1093"/>
      <use x="445.054688" xlink:href="#LiberationSansNarrow-1086"/>
      <use x="490.628906" xlink:href="#LiberationSansNarrow-1076"/>
      <use x="538.431641" xlink:href="#LiberationSansNarrow-1085"/>
      <use x="583.695312" xlink:href="#LiberationSansNarrow-1086"/>
      <use x="629.300781" xlink:href="#LiberationSansNarrow-1089"/>
      <use x="670.316406" xlink:href="#LiberationSansNarrow-1090"/>
      <use x="707.865234" xlink:href="#LiberationSansNarrow-1100"/>
     </g>
    </g>
    <g id="line2d_26">
     <path d="M 447.479891 220.832864 
L 470.803891 220.832864 
" style="fill:none;stroke:#9467bd;stroke-linecap:square;"/>
    </g>
    <g id="line2d_27"/>
    <g id="text_17">
     <!-- Капитализация -->
     <defs>
      <path d="M 6.734375 68.796875 
L 14.359375 68.796875 
L 14.359375 38.578125 
Q 16.65625 38.578125 18.265625 39.15625 
Q 19.875 39.75 21.390625 41.40625 
Q 22.90625 43.0625 24.703125 46.0625 
Q 26.515625 49.078125 29.15625 53.90625 
L 37.359375 68.796875 
L 45.359375 68.796875 
L 34.03125 48.78125 
Q 28.8125 39.546875 26.859375 37.84375 
L 47.21875 0 
L 38.328125 0 
L 21.296875 33.34375 
Q 20.609375 32.953125 19.671875 32.640625 
Q 18.75 32.328125 17.796875 32.046875 
Q 16.84375 31.78125 15.9375 31.640625 
Q 15.046875 31.5 14.359375 31.5 
L 14.359375 0 
L 6.734375 0 
z
" id="LiberationSansNarrow-1050"/>
      <path d="M 38.71875 52.828125 
L 38.71875 0 
L 31.546875 0 
L 31.546875 46.4375 
L 12.890625 46.4375 
L 12.890625 0 
L 5.71875 0 
L 5.71875 52.828125 
z
" id="LiberationSansNarrow-1087"/>
      <path d="M 18.3125 -0.984375 
Q 11.625 -0.984375 7.6875 2.0625 
Q 3.765625 5.125 1.953125 11.421875 
L 8.296875 13.578125 
Q 9.28125 9.765625 11.8125 7.65625 
Q 14.359375 5.5625 18.453125 5.5625 
Q 22.3125 5.5625 24.578125 7.859375 
Q 26.859375 10.15625 26.859375 14.59375 
Q 26.859375 17.484375 25.734375 19.390625 
Q 24.609375 21.296875 22.78125 22.390625 
Q 20.953125 23.484375 18.546875 23.921875 
Q 16.15625 24.359375 13.578125 24.359375 
L 13.578125 31.0625 
Q 16.109375 31.0625 18.40625 31.421875 
Q 20.703125 31.78125 22.4375 32.703125 
Q 24.171875 33.640625 25.140625 35.28125 
Q 26.125 36.921875 26.125 39.453125 
Q 26.125 43.0625 24.140625 45.15625 
Q 22.171875 47.265625 18.453125 47.265625 
Q 17.046875 47.265625 15.65625 46.921875 
Q 14.265625 46.578125 13.03125 45.765625 
Q 11.8125 44.96875 10.984375 43.625 
Q 10.15625 42.28125 9.859375 40.234375 
L 3.421875 41.21875 
Q 3.90625 44.53125 5.125 46.921875 
Q 6.34375 49.3125 8.296875 50.84375 
Q 10.25 52.390625 12.78125 53.09375 
Q 15.328125 53.8125 18.453125 53.8125 
Q 21.875 53.8125 24.625 52.78125 
Q 27.390625 51.765625 29.34375 49.90625 
Q 31.296875 48.046875 32.375 45.5 
Q 33.453125 42.96875 33.453125 39.890625 
Q 33.453125 37.109375 32.5625 34.953125 
Q 31.6875 32.8125 30.25 31.3125 
Q 28.8125 29.828125 27.046875 28.953125 
Q 25.296875 28.078125 23.53125 27.875 
L 23.53125 27.78125 
Q 25.78125 27.484375 27.75 26.484375 
Q 29.734375 25.484375 31.25 23.84375 
Q 32.765625 22.21875 33.609375 19.9375 
Q 34.46875 17.671875 34.46875 14.84375 
Q 34.46875 11.46875 33.484375 8.5625 
Q 32.515625 5.671875 30.484375 3.546875 
Q 28.46875 1.421875 25.4375 0.21875 
Q 22.40625 -0.984375 18.3125 -0.984375 
z
" id="LiberationSansNarrow-1079"/>
     </defs>
     <g transform="translate(480.133491 224.914564)scale(0.11662 -0.11662)">
      <use xlink:href="#LiberationSansNarrow-1050"/>
      <use x="47.705078" xlink:href="#LiberationSansNarrow-1072"/>
      <use x="93.310547" xlink:href="#LiberationSansNarrow-1087"/>
      <use x="137.744141" xlink:href="#LiberationSansNarrow-1080"/>
      <use x="183.59375" xlink:href="#LiberationSansNarrow-1090"/>
      <use x="221.126953" xlink:href="#LiberationSansNarrow-1072"/>
      <use x="266.732422" xlink:href="#LiberationSansNarrow-1083"/>
      <use x="314.535156" xlink:href="#LiberationSansNarrow-1080"/>
      <use x="360.384766" xlink:href="#LiberationSansNarrow-1079"/>
      <use x="397.933594" xlink:href="#LiberationSansNarrow-1072"/>
      <use x="443.539062" xlink:href="#LiberationSansNarrow-1094"/>
      <use x="490.511719" xlink:href="#LiberationSansNarrow-1080"/>
      <use x="536.361328" xlink:href="#LiberationSansNarrow-1103"/>
     </g>
    </g>
   </g>
  </g>
 </g>
 <defs>
  <clipPath id="pee778a841c">
   <rect height="234.56" width="516.71" x="41.65" y="17.64"/>
  </clipPath>
 </defs>
</svg>
