<?xml version="1.0" encoding="utf-8" standalone="no"?>
<!DOCTYPE svg PUBLIC "-//W3C//DTD SVG 1.1//EN"
  "http://www.w3.org/Graphics/SVG/1.1/DTD/svg11.dtd">
<!-- Created with matplotlib (https://matplotlib.org/) -->
<svg height="216pt" version="1.1" viewBox="0 0 432 216" width="432pt" xmlns="http://www.w3.org/2000/svg" xmlns:xlink="http://www.w3.org/1999/xlink">
 <metadata>
  <rdf:RDF xmlns:cc="http://creativecommons.org/ns#" xmlns:dc="http://purl.org/dc/elements/1.1/" xmlns:rdf="http://www.w3.org/1999/02/22-rdf-syntax-ns#">
   <cc:Work>
    <dc:type rdf:resource="http://purl.org/dc/dcmitype/StillImage"/>
    <dc:date>2021-12-01T12:18:40.459373</dc:date>
    <dc:format>image/svg+xml</dc:format>
    <dc:creator>
     <cc:Agent>
      <dc:title>Matplotlib v3.3.4, https://matplotlib.org/</dc:title>
     </cc:Agent>
    </dc:creator>
   </cc:Work>
  </rdf:RDF>
 </metadata>
 <defs>
  <style type="text/css">*{stroke-linecap:butt;stroke-linejoin:round;}</style>
 </defs>
 <g id="figure_1">
  <g id="patch_1">
   <path d="M 0 216 
L 432 216 
L 432 0 
L 0 0 
z
" style="fill:#ffffff;"/>
  </g>
  <g id="axes_1">
   <g id="patch_2">
    <path d="M 46.19 180.2 
L 416.88 180.2 
L 416.88 15.12 
L 46.19 15.12 
z
" style="fill:#ffffff;"/>
   </g>
   <g id="matplotlib.axis_1">
    <g id="xtick_1">
     <g id="line2d_1">
      <path clip-path="url(#p456576e549)" d="M 49.349929 180.2 
L 49.349929 15.12 
" style="fill:none;stroke:#b0b0b0;stroke-dasharray:1.48,0.64;stroke-dashoffset:0;stroke-width:0.4;"/>
     </g>
     <g id="text_1">
      <!-- 1950 -->
      <g transform="translate(36.579304 197.345625)scale(0.14 -0.14)">
       <defs>
        <path d="M 6.25 0 
L 6.25 7.46875 
L 20.609375 7.46875 
L 20.609375 60.40625 
L 7.90625 49.3125 
L 7.90625 57.625 
L 21.234375 68.796875 
L 27.875 68.796875 
L 27.875 7.46875 
L 41.609375 7.46875 
L 41.609375 0 
z
" id="LiberationSansNarrow-49"/>
        <path d="M 41.703125 35.796875 
Q 41.703125 26.609375 40.28125 19.703125 
Q 38.875 12.796875 36.234375 8.203125 
Q 33.59375 3.609375 29.8125 1.3125 
Q 26.03125 -0.984375 21.296875 -0.984375 
Q 18.0625 -0.984375 15.453125 -0.171875 
Q 12.84375 0.640625 10.8125 2.34375 
Q 8.796875 4.046875 7.328125 6.78125 
Q 5.859375 9.515625 4.984375 13.375 
L 11.921875 14.703125 
Q 13.03125 10.25 15.40625 8.171875 
Q 17.78125 6.109375 21.4375 6.109375 
Q 24.359375 6.109375 26.78125 7.78125 
Q 29.203125 9.46875 30.875 12.84375 
Q 32.5625 16.21875 33.546875 21.296875 
Q 34.46875 26.375 34.578125 33.203125 
Q 33.734375 30.90625 32.265625 29.09375 
Q 30.8125 27.296875 28.953125 26.046875 
Q 27.09375 24.8125 24.9375 24.140625 
Q 22.796875 23.484375 20.5625 23.484375 
Q 16.703125 23.484375 13.625 25.171875 
Q 10.546875 26.859375 8.375 29.875 
Q 6.203125 32.90625 5.03125 37.171875 
Q 3.859375 41.453125 3.859375 46.6875 
Q 3.859375 52 5.09375 56.296875 
Q 6.34375 60.59375 8.765625 63.59375 
Q 11.1875 66.609375 14.671875 68.21875 
Q 18.171875 69.828125 22.609375 69.828125 
Q 32.03125 69.828125 36.859375 61.328125 
Q 41.703125 52.828125 41.703125 35.796875 
z
M 33.890625 44.28125 
Q 33.890625 48.09375 33.125 51.453125 
Q 32.375 54.828125 30.9375 57.3125 
Q 29.5 59.8125 27.34375 61.25 
Q 25.203125 62.703125 22.359375 62.703125 
Q 19.78125 62.703125 17.703125 61.578125 
Q 15.625 60.453125 14.1875 58.375 
Q 12.75 56.296875 11.96875 53.3125 
Q 11.1875 50.34375 11.1875 46.6875 
Q 11.1875 43.21875 11.859375 40.234375 
Q 12.546875 37.25 13.953125 35.078125 
Q 15.375 32.90625 17.453125 31.65625 
Q 19.53125 30.421875 22.3125 30.421875 
Q 24.3125 30.421875 26.359375 31.25 
Q 28.421875 32.078125 30.078125 33.78125 
Q 31.734375 35.5 32.8125 38.109375 
Q 33.890625 40.71875 33.890625 44.28125 
z
" id="LiberationSansNarrow-57"/>
        <path d="M 42.140625 22.40625 
Q 42.140625 17.234375 40.859375 12.9375 
Q 39.59375 8.640625 37.078125 5.53125 
Q 34.578125 2.4375 30.8125 0.71875 
Q 27.046875 -0.984375 22.125 -0.984375 
Q 17.671875 -0.984375 14.375 0.28125 
Q 11.078125 1.5625 8.8125 3.78125 
Q 6.546875 6 5.203125 8.984375 
Q 3.859375 11.96875 3.265625 15.375 
L 10.546875 16.40625 
Q 10.984375 14.453125 11.78125 12.625 
Q 12.59375 10.796875 13.984375 9.34375 
Q 15.375 7.90625 17.40625 7.046875 
Q 19.4375 6.203125 22.3125 6.203125 
Q 25.09375 6.203125 27.390625 7.25 
Q 29.6875 8.296875 31.296875 10.34375 
Q 32.90625 12.40625 33.78125 15.375 
Q 34.671875 18.359375 34.671875 22.21875 
Q 34.671875 25.390625 33.84375 28.046875 
Q 33.015625 30.71875 31.453125 32.640625 
Q 29.890625 34.578125 27.609375 35.640625 
Q 25.34375 36.71875 22.46875 36.71875 
Q 20.65625 36.71875 19.140625 36.328125 
Q 17.625 35.9375 16.328125 35.25 
Q 15.046875 34.578125 13.96875 33.671875 
Q 12.890625 32.765625 11.96875 31.78125 
L 4.9375 31.78125 
L 6.78125 68.796875 
L 38.875 68.796875 
L 38.875 61.328125 
L 13.375 61.328125 
L 12.3125 39.5 
Q 14.203125 41.3125 17.078125 42.59375 
Q 19.96875 43.890625 23.921875 43.890625 
Q 28.125 43.890625 31.484375 42.328125 
Q 34.859375 40.765625 37.21875 37.90625 
Q 39.59375 35.0625 40.859375 31.109375 
Q 42.140625 27.15625 42.140625 22.40625 
z
" id="LiberationSansNarrow-53"/>
        <path d="M 42.390625 34.421875 
Q 42.390625 24.515625 40.84375 17.75 
Q 39.3125 10.984375 36.640625 6.8125 
Q 33.984375 2.640625 30.390625 0.828125 
Q 26.8125 -0.984375 22.703125 -0.984375 
Q 18.609375 -0.984375 15.03125 0.828125 
Q 11.46875 2.640625 8.828125 6.78125 
Q 6.203125 10.9375 4.703125 17.703125 
Q 3.21875 24.46875 3.21875 34.421875 
Q 3.21875 44.828125 4.703125 51.640625 
Q 6.203125 58.453125 8.828125 62.5 
Q 11.46875 66.546875 15.078125 68.1875 
Q 18.703125 69.828125 22.953125 69.828125 
Q 27 69.828125 30.53125 68.1875 
Q 34.078125 66.546875 36.71875 62.5 
Q 39.359375 58.453125 40.875 51.640625 
Q 42.390625 44.828125 42.390625 34.421875 
z
M 35.0625 34.421875 
Q 35.0625 42.625 34.28125 48.0625 
Q 33.5 53.515625 31.9375 56.765625 
Q 30.375 60.015625 28.09375 61.359375 
Q 25.828125 62.703125 22.953125 62.703125 
Q 19.921875 62.703125 17.578125 61.328125 
Q 15.234375 59.96875 13.671875 56.71875 
Q 12.109375 53.46875 11.296875 48.015625 
Q 10.5 42.578125 10.5 34.421875 
Q 10.5 26.515625 11.296875 21.09375 
Q 12.109375 15.671875 13.6875 12.375 
Q 15.28125 9.078125 17.578125 7.640625 
Q 19.875 6.203125 22.796875 6.203125 
Q 25.640625 6.203125 27.90625 7.640625 
Q 30.171875 9.078125 31.75 12.375 
Q 33.34375 15.671875 34.203125 21.09375 
Q 35.0625 26.515625 35.0625 34.421875 
z
" id="LiberationSansNarrow-48"/>
       </defs>
       <use xlink:href="#LiberationSansNarrow-49"/>
       <use x="45.605469" xlink:href="#LiberationSansNarrow-57"/>
       <use x="91.210938" xlink:href="#LiberationSansNarrow-53"/>
       <use x="136.816406" xlink:href="#LiberationSansNarrow-48"/>
      </g>
     </g>
    </g>
    <g id="xtick_2">
     <g id="line2d_2">
      <path clip-path="url(#p456576e549)" d="M 99.145227 180.2 
L 99.145227 15.12 
" style="fill:none;stroke:#b0b0b0;stroke-dasharray:1.48,0.64;stroke-dashoffset:0;stroke-width:0.4;"/>
     </g>
     <g id="text_2">
      <!-- 1960 -->
      <g transform="translate(86.374602 197.345625)scale(0.14 -0.14)">
       <defs>
        <path d="M 42 22.515625 
Q 42 17.328125 40.828125 13 
Q 39.65625 8.6875 37.359375 5.578125 
Q 35.0625 2.484375 31.640625 0.75 
Q 28.21875 -0.984375 23.78125 -0.984375 
Q 18.84375 -0.984375 15.15625 1.3125 
Q 11.46875 3.609375 9.03125 7.921875 
Q 6.59375 12.25 5.375 18.53125 
Q 4.15625 24.8125 4.15625 32.8125 
Q 4.15625 42 5.546875 48.921875 
Q 6.9375 55.859375 9.515625 60.5 
Q 12.109375 65.140625 15.859375 67.484375 
Q 19.625 69.828125 24.359375 69.828125 
Q 27.25 69.828125 29.765625 69.09375 
Q 32.28125 68.359375 34.328125 66.71875 
Q 36.375 65.09375 37.9375 62.40625 
Q 39.5 59.71875 40.4375 55.8125 
L 33.546875 54.296875 
Q 32.421875 58.734375 29.953125 60.71875 
Q 27.484375 62.703125 24.265625 62.703125 
Q 21.296875 62.703125 18.890625 60.984375 
Q 16.5 59.28125 14.8125 55.875 
Q 13.140625 52.484375 12.234375 47.359375 
Q 11.328125 42.234375 11.328125 35.40625 
Q 13.28125 39.84375 16.84375 42.15625 
Q 20.40625 44.484375 25.046875 44.484375 
Q 28.90625 44.484375 32 42.96875 
Q 35.109375 41.453125 37.328125 38.59375 
Q 39.546875 35.75 40.765625 31.671875 
Q 42 27.59375 42 22.515625 
z
M 34.671875 22.125 
Q 34.671875 25.6875 33.953125 28.5625 
Q 33.25 31.453125 31.8125 33.46875 
Q 30.375 35.5 28.25 36.59375 
Q 26.125 37.703125 23.296875 37.703125 
Q 21.34375 37.703125 19.328125 36.984375 
Q 17.328125 36.28125 15.71875 34.6875 
Q 14.109375 33.109375 13.078125 30.515625 
Q 12.0625 27.9375 12.0625 24.21875 
Q 12.0625 20.40625 12.859375 17.109375 
Q 13.671875 13.8125 15.15625 11.375 
Q 16.65625 8.9375 18.78125 7.515625 
Q 20.90625 6.109375 23.53125 6.109375 
Q 26.125 6.109375 28.203125 7.203125 
Q 30.28125 8.296875 31.71875 10.375 
Q 33.15625 12.453125 33.90625 15.421875 
Q 34.671875 18.40625 34.671875 22.125 
z
" id="LiberationSansNarrow-54"/>
       </defs>
       <use xlink:href="#LiberationSansNarrow-49"/>
       <use x="45.605469" xlink:href="#LiberationSansNarrow-57"/>
       <use x="91.210938" xlink:href="#LiberationSansNarrow-54"/>
       <use x="136.816406" xlink:href="#LiberationSansNarrow-48"/>
      </g>
     </g>
    </g>
    <g id="xtick_3">
     <g id="line2d_3">
      <path clip-path="url(#p456576e549)" d="M 148.954161 180.2 
L 148.954161 15.12 
" style="fill:none;stroke:#b0b0b0;stroke-dasharray:1.48,0.64;stroke-dashoffset:0;stroke-width:0.4;"/>
     </g>
     <g id="text_3">
      <!-- 1970 -->
      <g transform="translate(136.183536 197.345625)scale(0.14 -0.14)">
       <defs>
        <path d="M 41.5 61.671875 
Q 37.25 53.765625 33.6875 46.453125 
Q 30.125 39.15625 27.5625 31.75 
Q 25 24.359375 23.5625 16.578125 
Q 22.125 8.796875 22.125 0 
L 14.59375 0 
Q 14.59375 8.25 16.203125 16.1875 
Q 17.828125 24.125 20.53125 31.765625 
Q 23.25 39.40625 26.859375 46.78125 
Q 30.46875 54.15625 34.515625 61.328125 
L 4.203125 61.328125 
L 4.203125 68.796875 
L 41.5 68.796875 
z
" id="LiberationSansNarrow-55"/>
       </defs>
       <use xlink:href="#LiberationSansNarrow-49"/>
       <use x="45.605469" xlink:href="#LiberationSansNarrow-57"/>
       <use x="91.210938" xlink:href="#LiberationSansNarrow-55"/>
       <use x="136.816406" xlink:href="#LiberationSansNarrow-48"/>
      </g>
     </g>
    </g>
    <g id="xtick_4">
     <g id="line2d_4">
      <path clip-path="url(#p456576e549)" d="M 198.749459 180.2 
L 198.749459 15.12 
" style="fill:none;stroke:#b0b0b0;stroke-dasharray:1.48,0.64;stroke-dashoffset:0;stroke-width:0.4;"/>
     </g>
     <g id="text_4">
      <!-- 1980 -->
      <g transform="translate(185.978834 197.345625)scale(0.14 -0.14)">
       <defs>
        <path d="M 42.046875 19.1875 
Q 42.046875 14.796875 40.890625 11.109375 
Q 39.75 7.421875 37.40625 4.734375 
Q 35.0625 2.046875 31.421875 0.53125 
Q 27.78125 -0.984375 22.796875 -0.984375 
Q 17.828125 -0.984375 14.203125 0.53125 
Q 10.59375 2.046875 8.21875 4.703125 
Q 5.859375 7.375 4.703125 11.0625 
Q 3.5625 14.75 3.5625 19.09375 
Q 3.5625 22.859375 4.515625 25.78125 
Q 5.46875 28.71875 7.03125 30.828125 
Q 8.59375 32.953125 10.609375 34.25 
Q 12.640625 35.546875 14.796875 35.984375 
L 14.796875 36.1875 
Q 12.453125 36.859375 10.59375 38.375 
Q 8.734375 39.890625 7.46875 42.015625 
Q 6.203125 44.140625 5.546875 46.71875 
Q 4.890625 49.3125 4.890625 52.203125 
Q 4.890625 55.8125 6.03125 59 
Q 7.171875 62.203125 9.421875 64.625 
Q 11.671875 67.046875 14.984375 68.4375 
Q 18.3125 69.828125 22.65625 69.828125 
Q 27.25 69.828125 30.640625 68.40625 
Q 34.03125 67 36.25 64.578125 
Q 38.484375 62.15625 39.546875 58.9375 
Q 40.625 55.71875 40.625 52.09375 
Q 40.625 49.265625 39.96875 46.671875 
Q 39.3125 44.09375 38.0625 41.96875 
Q 36.8125 39.84375 34.9375 38.34375 
Q 33.0625 36.859375 30.609375 36.28125 
L 30.609375 36.078125 
Q 33.0625 35.59375 35.15625 34.296875 
Q 37.25 33.015625 38.765625 30.890625 
Q 40.28125 28.765625 41.15625 25.828125 
Q 42.046875 22.90625 42.046875 19.1875 
z
M 33.15625 51.609375 
Q 33.15625 54.203125 32.609375 56.34375 
Q 32.078125 58.5 30.828125 60.03125 
Q 29.59375 61.578125 27.59375 62.421875 
Q 25.59375 63.28125 22.65625 63.28125 
Q 19.828125 63.28125 17.875 62.421875 
Q 15.921875 61.578125 14.640625 60.03125 
Q 13.375 58.5 12.8125 56.34375 
Q 12.25 54.203125 12.25 51.609375 
Q 12.25 49.5625 12.6875 47.40625 
Q 13.140625 45.265625 14.3125 43.5 
Q 15.484375 41.75 17.5 40.625 
Q 19.53125 39.5 22.75 39.5 
Q 26.171875 39.5 28.21875 40.625 
Q 30.28125 41.75 31.375 43.5 
Q 32.46875 45.265625 32.8125 47.40625 
Q 33.15625 49.5625 33.15625 51.609375 
z
M 34.578125 20.015625 
Q 34.578125 22.515625 34.015625 24.828125 
Q 33.453125 27.15625 32.078125 28.9375 
Q 30.71875 30.71875 28.421875 31.8125 
Q 26.125 32.90625 22.65625 32.90625 
Q 19.484375 32.90625 17.265625 31.8125 
Q 15.046875 30.71875 13.671875 28.90625 
Q 12.3125 27.09375 11.671875 24.71875 
Q 11.03125 22.359375 11.03125 19.828125 
Q 11.03125 16.65625 11.671875 14.03125 
Q 12.3125 11.421875 13.703125 9.546875 
Q 15.09375 7.671875 17.375 6.640625 
Q 19.671875 5.609375 22.90625 5.609375 
Q 26.171875 5.609375 28.421875 6.640625 
Q 30.671875 7.671875 32.03125 9.546875 
Q 33.40625 11.421875 33.984375 14.078125 
Q 34.578125 16.75 34.578125 20.015625 
z
" id="LiberationSansNarrow-56"/>
       </defs>
       <use xlink:href="#LiberationSansNarrow-49"/>
       <use x="45.605469" xlink:href="#LiberationSansNarrow-57"/>
       <use x="91.210938" xlink:href="#LiberationSansNarrow-56"/>
       <use x="136.816406" xlink:href="#LiberationSansNarrow-48"/>
      </g>
     </g>
    </g>
    <g id="xtick_5">
     <g id="line2d_5">
      <path clip-path="url(#p456576e549)" d="M 248.558393 180.2 
L 248.558393 15.12 
" style="fill:none;stroke:#b0b0b0;stroke-dasharray:1.48,0.64;stroke-dashoffset:0;stroke-width:0.4;"/>
     </g>
     <g id="text_5">
      <!-- 1990 -->
      <g transform="translate(235.787768 197.345625)scale(0.14 -0.14)">
       <use xlink:href="#LiberationSansNarrow-49"/>
       <use x="45.605469" xlink:href="#LiberationSansNarrow-57"/>
       <use x="91.210938" xlink:href="#LiberationSansNarrow-57"/>
       <use x="136.816406" xlink:href="#LiberationSansNarrow-48"/>
      </g>
     </g>
    </g>
    <g id="xtick_6">
     <g id="line2d_6">
      <path clip-path="url(#p456576e549)" d="M 298.353691 180.2 
L 298.353691 15.12 
" style="fill:none;stroke:#b0b0b0;stroke-dasharray:1.48,0.64;stroke-dashoffset:0;stroke-width:0.4;"/>
     </g>
     <g id="text_6">
      <!-- 2000 -->
      <g transform="translate(285.583066 197.345625)scale(0.14 -0.14)">
       <defs>
        <path d="M 4.109375 0 
L 4.109375 6.203125 
Q 6.15625 11.921875 9.109375 16.28125 
Q 12.0625 20.65625 15.3125 24.1875 
Q 18.5625 27.734375 21.734375 30.765625 
Q 24.90625 33.796875 27.46875 36.8125 
Q 30.03125 39.84375 31.609375 43.15625 
Q 33.203125 46.484375 33.203125 50.6875 
Q 33.203125 53.609375 32.46875 55.828125 
Q 31.734375 58.0625 30.390625 59.5625 
Q 29.046875 61.078125 27.140625 61.828125 
Q 25.25 62.59375 22.90625 62.59375 
Q 20.75 62.59375 18.84375 61.859375 
Q 16.9375 61.140625 15.453125 59.671875 
Q 13.96875 58.203125 13.03125 56.03125 
Q 12.109375 53.859375 11.8125 50.984375 
L 4.4375 51.8125 
Q 4.78125 55.515625 6.125 58.78125 
Q 7.46875 62.0625 9.78125 64.53125 
Q 12.109375 67 15.359375 68.40625 
Q 18.609375 69.828125 22.90625 69.828125 
Q 27.09375 69.828125 30.390625 68.609375 
Q 33.6875 67.390625 35.9375 64.984375 
Q 38.1875 62.59375 39.40625 59.078125 
Q 40.625 55.5625 40.625 50.984375 
Q 40.625 47.515625 39.59375 44.390625 
Q 38.578125 41.265625 36.859375 38.421875 
Q 35.15625 35.59375 32.90625 32.953125 
Q 30.671875 30.328125 28.21875 27.828125 
L 23.296875 22.859375 
Q 20.796875 20.359375 18.625 17.859375 
Q 16.453125 15.375 14.734375 12.8125 
Q 13.03125 10.25 12.0625 7.46875 
L 41.5 7.46875 
L 41.5 0 
z
" id="LiberationSansNarrow-50"/>
       </defs>
       <use xlink:href="#LiberationSansNarrow-50"/>
       <use x="45.605469" xlink:href="#LiberationSansNarrow-48"/>
       <use x="91.210938" xlink:href="#LiberationSansNarrow-48"/>
       <use x="136.816406" xlink:href="#LiberationSansNarrow-48"/>
      </g>
     </g>
    </g>
    <g id="xtick_7">
     <g id="line2d_7">
      <path clip-path="url(#p456576e549)" d="M 348.162625 180.2 
L 348.162625 15.12 
" style="fill:none;stroke:#b0b0b0;stroke-dasharray:1.48,0.64;stroke-dashoffset:0;stroke-width:0.4;"/>
     </g>
     <g id="text_7">
      <!-- 2010 -->
      <g transform="translate(335.392 197.345625)scale(0.14 -0.14)">
       <use xlink:href="#LiberationSansNarrow-50"/>
       <use x="45.605469" xlink:href="#LiberationSansNarrow-48"/>
       <use x="91.210938" xlink:href="#LiberationSansNarrow-49"/>
       <use x="136.816406" xlink:href="#LiberationSansNarrow-48"/>
      </g>
     </g>
    </g>
    <g id="xtick_8">
     <g id="line2d_8">
      <path clip-path="url(#p456576e549)" d="M 397.957923 180.2 
L 397.957923 15.12 
" style="fill:none;stroke:#b0b0b0;stroke-dasharray:1.48,0.64;stroke-dashoffset:0;stroke-width:0.4;"/>
     </g>
     <g id="text_8">
      <!-- 2020 -->
      <g transform="translate(385.187298 197.345625)scale(0.14 -0.14)">
       <use xlink:href="#LiberationSansNarrow-50"/>
       <use x="45.605469" xlink:href="#LiberationSansNarrow-48"/>
       <use x="91.210938" xlink:href="#LiberationSansNarrow-50"/>
       <use x="136.816406" xlink:href="#LiberationSansNarrow-48"/>
      </g>
     </g>
    </g>
   </g>
   <g id="matplotlib.axis_2">
    <g id="ytick_1">
     <g id="line2d_9">
      <path clip-path="url(#p456576e549)" d="M 46.19 162.105166 
L 416.88 162.105166 
" style="fill:none;stroke:#b0b0b0;stroke-dasharray:1.48,0.64;stroke-dashoffset:0;stroke-width:0.4;"/>
     </g>
     <g id="text_9">
      <!-- 0 -->
      <g transform="translate(32.804688 167.177978)scale(0.14 -0.14)">
       <use xlink:href="#LiberationSansNarrow-48"/>
      </g>
     </g>
    </g>
    <g id="ytick_2">
     <g id="line2d_10">
      <path clip-path="url(#p456576e549)" d="M 46.19 123.188846 
L 416.88 123.188846 
" style="fill:none;stroke:#b0b0b0;stroke-dasharray:1.48,0.64;stroke-dashoffset:0;stroke-width:0.4;"/>
     </g>
     <g id="text_10">
      <!-- 1 -->
      <g transform="translate(32.804688 128.261659)scale(0.14 -0.14)">
       <use xlink:href="#LiberationSansNarrow-49"/>
      </g>
     </g>
    </g>
    <g id="ytick_3">
     <g id="line2d_11">
      <path clip-path="url(#p456576e549)" d="M 46.19 84.272527 
L 416.88 84.272527 
" style="fill:none;stroke:#b0b0b0;stroke-dasharray:1.48,0.64;stroke-dashoffset:0;stroke-width:0.4;"/>
     </g>
     <g id="text_11">
      <!-- 2 -->
      <g transform="translate(32.804688 89.345339)scale(0.14 -0.14)">
       <use xlink:href="#LiberationSansNarrow-50"/>
      </g>
     </g>
    </g>
    <g id="ytick_4">
     <g id="line2d_12">
      <path clip-path="url(#p456576e549)" d="M 46.19 45.356207 
L 416.88 45.356207 
" style="fill:none;stroke:#b0b0b0;stroke-dasharray:1.48,0.64;stroke-dashoffset:0;stroke-width:0.4;"/>
     </g>
     <g id="text_12">
      <!-- 3 -->
      <g transform="translate(32.804688 50.42902)scale(0.14 -0.14)">
       <defs>
        <path d="M 42 19 
Q 42 14.265625 40.75 10.546875 
Q 39.5 6.84375 37.0625 4.265625 
Q 34.625 1.703125 31.046875 0.359375 
Q 27.484375 -0.984375 22.859375 -0.984375 
Q 17.625 -0.984375 14.03125 0.609375 
Q 10.453125 2.203125 8.125 4.8125 
Q 5.8125 7.421875 4.640625 10.765625 
Q 3.46875 14.109375 3.125 17.671875 
L 10.546875 18.5 
Q 10.890625 15.765625 11.734375 13.515625 
Q 12.59375 11.28125 14.078125 9.671875 
Q 15.578125 8.0625 17.75 7.171875 
Q 19.921875 6.296875 22.859375 6.296875 
Q 28.328125 6.296875 31.421875 9.5625 
Q 34.515625 12.84375 34.515625 19.28125 
Q 34.515625 23.09375 33.125 25.40625 
Q 31.734375 27.734375 29.6875 29.03125 
Q 27.640625 30.328125 25.21875 30.765625 
Q 22.796875 31.203125 20.75 31.203125 
L 16.65625 31.203125 
L 16.65625 38.8125 
L 20.5625 38.8125 
Q 22.609375 38.8125 24.828125 39.328125 
Q 27.046875 39.84375 28.859375 41.1875 
Q 30.671875 42.53125 31.859375 44.828125 
Q 33.0625 47.125 33.0625 50.6875 
Q 33.0625 56.203125 30.375 59.390625 
Q 27.6875 62.59375 22.46875 62.59375 
Q 17.671875 62.59375 14.734375 59.609375 
Q 11.8125 56.640625 11.328125 51.21875 
L 4.109375 51.90625 
Q 4.546875 56.453125 6.125 59.8125 
Q 7.71875 63.1875 10.171875 65.40625 
Q 12.640625 67.625 15.8125 68.71875 
Q 19 69.828125 22.5625 69.828125 
Q 27.296875 69.828125 30.6875 68.375 
Q 34.078125 66.9375 36.21875 64.46875 
Q 38.375 62.015625 39.40625 58.6875 
Q 40.4375 55.375 40.4375 51.609375 
Q 40.4375 48.578125 39.75 45.9375 
Q 39.0625 43.3125 37.625 41.203125 
Q 36.1875 39.109375 33.953125 37.59375 
Q 31.734375 36.078125 28.609375 35.296875 
L 28.609375 35.109375 
Q 32.03125 34.671875 34.546875 33.21875 
Q 37.0625 31.78125 38.71875 29.625 
Q 40.375 27.484375 41.1875 24.75 
Q 42 22.015625 42 19 
z
" id="LiberationSansNarrow-51"/>
       </defs>
       <use xlink:href="#LiberationSansNarrow-51"/>
      </g>
     </g>
    </g>
    <g id="text_13">
     <!-- премия, %г -->
     <g transform="translate(25.899688 127.813594)rotate(-90)scale(0.14 -0.14)">
      <defs>
       <path d="M 38.71875 52.828125 
L 38.71875 0 
L 31.546875 0 
L 31.546875 46.4375 
L 12.890625 46.4375 
L 12.890625 0 
L 5.71875 0 
L 5.71875 52.828125 
z
" id="LiberationSansNarrow-1087"/>
       <path d="M 42.140625 26.65625 
Q 42.140625 20.65625 41.359375 15.578125 
Q 40.578125 10.5 38.6875 6.828125 
Q 36.8125 3.171875 33.765625 1.09375 
Q 30.71875 -0.984375 26.21875 -0.984375 
Q 21.578125 -0.984375 18.078125 1.171875 
Q 14.59375 3.328125 12.796875 8.203125 
L 12.546875 8.203125 
Q 12.59375 8.109375 12.609375 7.328125 
Q 12.640625 6.546875 12.671875 5.375 
Q 12.703125 4.203125 12.71875 2.75 
Q 12.75 1.3125 12.75 -0.09375 
L 12.75 -20.75 
L 5.515625 -20.75 
L 5.515625 42.046875 
Q 5.515625 43.953125 5.484375 45.703125 
Q 5.46875 47.46875 5.4375 48.90625 
Q 5.421875 50.34375 5.375 51.359375 
Q 5.328125 52.390625 5.28125 52.828125 
L 12.25 52.828125 
Q 12.3125 52.6875 12.359375 51.8125 
L 12.5 49.703125 
Q 12.546875 48.4375 12.59375 47.015625 
Q 12.640625 45.609375 12.640625 44.34375 
L 12.796875 44.34375 
Q 13.765625 46.875 15.0625 48.65625 
Q 16.359375 50.4375 18.015625 51.578125 
Q 19.671875 52.734375 21.671875 53.25 
Q 23.6875 53.765625 26.21875 53.765625 
Q 30.71875 53.765625 33.765625 51.8125 
Q 36.8125 49.859375 38.6875 46.3125 
Q 40.578125 42.78125 41.359375 37.765625 
Q 42.140625 32.765625 42.140625 26.65625 
z
M 34.578125 26.46875 
Q 34.578125 31.34375 34.109375 35.15625 
Q 33.640625 38.96875 32.4375 41.59375 
Q 31.25 44.234375 29.296875 45.59375 
Q 27.34375 46.96875 24.359375 46.96875 
Q 21.96875 46.96875 19.84375 46.140625 
Q 17.71875 45.3125 16.125 42.96875 
Q 14.546875 40.625 13.640625 36.5 
Q 12.75 32.375 12.75 25.78125 
Q 12.75 20.171875 13.5 16.28125 
Q 14.265625 12.40625 15.71875 10.015625 
Q 17.1875 7.625 19.328125 6.5625 
Q 21.484375 5.515625 24.3125 5.515625 
Q 27.34375 5.515625 29.296875 6.921875 
Q 31.25 8.34375 32.4375 11.03125 
Q 33.640625 13.71875 34.109375 17.59375 
Q 34.578125 21.484375 34.578125 26.46875 
z
" id="LiberationSansNarrow-1088"/>
       <path d="M 10.6875 24.5625 
Q 10.6875 20.40625 11.5625 16.90625 
Q 12.453125 13.421875 13.90625 10.90625 
Q 15.375 8.40625 17.640625 7 
Q 19.921875 5.609375 23.140625 5.609375 
Q 27.828125 5.609375 30.65625 7.90625 
Q 33.5 10.203125 34.46875 13.71875 
L 40.828125 11.53125 
Q 40.140625 9.328125 38.921875 7.109375 
Q 37.703125 4.890625 35.640625 3.09375 
Q 33.59375 1.3125 30.53125 0.15625 
Q 27.484375 -0.984375 23.140625 -0.984375 
Q 13.53125 -0.984375 8.5 6 
Q 3.46875 12.984375 3.46875 26.765625 
Q 3.46875 34.1875 5 39.328125 
Q 6.546875 44.484375 9.171875 47.703125 
Q 11.8125 50.921875 15.328125 52.359375 
Q 18.84375 53.8125 22.859375 53.8125 
Q 28.328125 53.8125 31.984375 51.65625 
Q 39.0625 47.515625 41.015625 36.8125 
Q 41.9375 31.6875 41.9375 25.734375 
L 41.9375 24.5625 
z
M 34.71875 31.296875 
Q 34.71875 40.140625 31.421875 43.71875 
Q 28.125 47.3125 22.75 47.3125 
Q 18.953125 47.3125 15.328125 44.09375 
Q 10.9375 40.328125 10.6875 31.296875 
z
" id="LiberationSansNarrow-1077"/>
       <path d="M 31.546875 0 
L 25.390625 0 
L 12.40625 46.4375 
Q 12.453125 45.171875 12.515625 43.703125 
Q 12.59375 42.234375 12.59375 40.75 
Q 12.59375 39.265625 12.609375 37.859375 
Q 12.640625 36.46875 12.640625 35.359375 
L 12.640625 0 
L 5.671875 0 
L 5.671875 52.828125 
L 16.890625 52.828125 
L 25.734375 20.5625 
Q 26.65625 17.484375 27.390625 13.796875 
Q 28.125 10.109375 28.421875 6.59375 
Q 28.8125 10.109375 29.515625 13.796875 
Q 30.21875 17.484375 31.15625 20.5625 
L 39.984375 52.828125 
L 50.734375 52.828125 
L 50.734375 0 
L 43.796875 0 
L 43.796875 35.359375 
Q 43.796875 36.421875 43.8125 37.890625 
Q 43.84375 39.359375 43.921875 40.921875 
Q 44 42.484375 44.015625 43.9375 
Q 44.046875 45.40625 44.140625 46.53125 
z
" id="LiberationSansNarrow-1084"/>
       <path d="M 12.640625 52.828125 
L 12.640625 23.921875 
Q 12.640625 22.796875 12.59375 20.921875 
Q 12.546875 19.046875 12.46875 17.046875 
Q 12.40625 15.046875 12.359375 13.234375 
Q 12.3125 11.421875 12.25 10.40625 
L 32.28125 52.828125 
L 40.140625 52.828125 
L 40.140625 0 
L 33.25 0 
L 33.25 32.234375 
Q 33.25 33.15625 33.296875 34.578125 
L 33.40625 37.40625 
Q 33.453125 38.875 33.5 40.234375 
L 33.640625 42.625 
L 13.375 0 
L 5.71875 0 
L 5.71875 52.828125 
z
" id="LiberationSansNarrow-1080"/>
       <path d="M 21.4375 22.359375 
L 8.84375 0 
L 0.6875 0 
L 14.453125 23 
Q 9.234375 24.3125 6.859375 28.296875 
Q 4.5 32.28125 4.5 38.234375 
Q 4.5 45.515625 8.8125 49.171875 
Q 13.140625 52.828125 21.4375 52.828125 
L 38.71875 52.828125 
L 38.71875 0 
L 31.546875 0 
L 31.546875 22.359375 
z
M 31.546875 46.625 
L 22.171875 46.625 
Q 16.9375 46.625 14.546875 44.375 
Q 12.15625 42.140625 12.15625 37.59375 
Q 12.15625 33.015625 14.28125 30.734375 
Q 16.40625 28.46875 21.390625 28.46875 
L 31.546875 28.46875 
z
" id="LiberationSansNarrow-1103"/>
       <path d="M 15.4375 10.6875 
L 15.4375 2.484375 
Q 15.4375 -0.09375 15.265625 -2.21875 
Q 15.09375 -4.34375 14.671875 -6.171875 
Q 14.265625 -8.015625 13.671875 -9.625 
Q 13.09375 -11.234375 12.3125 -12.796875 
L 7.375 -12.796875 
Q 9.1875 -9.625 10.15625 -6.390625 
Q 11.140625 -3.171875 11.140625 0 
L 7.625 0 
L 7.625 10.6875 
z
" id="LiberationSansNarrow-44"/>
       <path id="LiberationSansNarrow-32"/>
       <path d="M 69.96875 21.1875 
Q 69.96875 15.09375 68.9375 10.90625 
Q 67.921875 6.734375 66.1875 4.171875 
Q 64.453125 1.609375 62.125 0.5 
Q 59.8125 -0.59375 57.171875 -0.59375 
Q 54.546875 -0.59375 52.21875 0.5 
Q 49.90625 1.609375 48.21875 4.140625 
Q 46.53125 6.6875 45.546875 10.859375 
Q 44.578125 15.046875 44.578125 21.1875 
Q 44.578125 27.6875 45.53125 31.9375 
Q 46.484375 36.1875 48.1875 38.703125 
Q 49.90625 41.21875 52.25 42.21875 
Q 54.59375 43.21875 57.328125 43.21875 
Q 59.96875 43.21875 62.25 42.21875 
Q 64.546875 41.21875 66.25 38.703125 
Q 67.96875 36.1875 68.96875 31.9375 
Q 69.96875 27.6875 69.96875 21.1875 
z
M 21.09375 0 
L 14.890625 0 
L 51.8125 68.796875 
L 58.109375 68.796875 
z
M 15.765625 69.390625 
Q 18.3125 69.390625 20.609375 68.390625 
Q 22.90625 67.390625 24.609375 64.890625 
Q 26.3125 62.40625 27.3125 58.203125 
Q 28.328125 54 28.328125 47.609375 
Q 28.328125 41.453125 27.3125 37.25 
Q 26.3125 33.0625 24.609375 30.4375 
Q 22.90625 27.828125 20.578125 26.703125 
Q 18.265625 25.59375 15.625 25.59375 
Q 12.9375 25.59375 10.609375 26.703125 
Q 8.296875 27.828125 6.59375 30.421875 
Q 4.890625 33.015625 3.90625 37.203125 
Q 2.9375 41.40625 2.9375 47.609375 
Q 2.9375 54 3.90625 58.203125 
Q 4.890625 62.40625 6.609375 64.890625 
Q 8.34375 67.390625 10.6875 68.390625 
Q 13.03125 69.390625 15.765625 69.390625 
z
M 64.0625 21.1875 
Q 64.0625 26.03125 63.625 29.21875 
Q 63.1875 32.421875 62.328125 34.328125 
Q 61.46875 36.234375 60.203125 37.015625 
Q 58.9375 37.796875 57.328125 37.796875 
Q 55.671875 37.796875 54.375 36.984375 
Q 53.078125 36.1875 52.1875 34.28125 
Q 51.3125 32.375 50.875 29.171875 
Q 50.4375 25.984375 50.4375 21.1875 
Q 50.4375 16.546875 50.90625 13.421875 
Q 51.375 10.296875 52.21875 8.375 
Q 53.078125 6.453125 54.34375 5.609375 
Q 55.609375 4.78125 57.234375 4.78125 
Q 58.796875 4.78125 60.0625 5.609375 
Q 61.328125 6.453125 62.203125 8.375 
Q 63.09375 10.296875 63.578125 13.421875 
Q 64.0625 16.546875 64.0625 21.1875 
z
M 22.40625 47.609375 
Q 22.40625 52.390625 21.96875 55.5625 
Q 21.53125 58.734375 20.703125 60.640625 
Q 19.875 62.546875 18.625 63.328125 
Q 17.390625 64.109375 15.765625 64.109375 
Q 14.0625 64.109375 12.734375 63.296875 
Q 11.421875 62.5 10.546875 60.59375 
Q 9.671875 58.6875 9.234375 55.515625 
Q 8.796875 52.34375 8.796875 47.609375 
Q 8.796875 42.96875 9.25 39.796875 
Q 9.71875 36.625 10.5625 34.6875 
Q 11.421875 32.765625 12.71875 31.9375 
Q 14.015625 31.109375 15.671875 31.109375 
Q 17.1875 31.109375 18.421875 31.9375 
Q 19.671875 32.765625 20.546875 34.6875 
Q 21.4375 36.625 21.921875 39.796875 
Q 22.40625 42.96875 22.40625 47.609375 
z
" id="LiberationSansNarrow-37"/>
       <path d="M 27.546875 52.828125 
L 27.546875 46.4375 
L 12.890625 46.4375 
L 12.890625 0 
L 5.71875 0 
L 5.71875 52.828125 
z
" id="LiberationSansNarrow-1075"/>
      </defs>
      <use xlink:href="#LiberationSansNarrow-1087"/>
      <use x="44.433594" xlink:href="#LiberationSansNarrow-1088"/>
      <use x="90.039062" xlink:href="#LiberationSansNarrow-1077"/>
      <use x="135.644531" xlink:href="#LiberationSansNarrow-1084"/>
      <use x="192.041016" xlink:href="#LiberationSansNarrow-1080"/>
      <use x="237.890625" xlink:href="#LiberationSansNarrow-1103"/>
      <use x="282.324219" xlink:href="#LiberationSansNarrow-44"/>
      <use x="305.126953" xlink:href="#LiberationSansNarrow-32"/>
      <use x="327.929688" xlink:href="#LiberationSansNarrow-37"/>
      <use x="400.830078" xlink:href="#LiberationSansNarrow-1075"/>
     </g>
    </g>
   </g>
   <g id="line2d_13">
    <path clip-path="url(#p456576e549)" d="M 63.039545 156.211726 
L 63.462233 160.320523 
L 63.871285 165.489931 
L 64.293972 157.931295 
L 64.71666 156.76216 
L 65.098442 164.313164 
L 65.521129 159.087543 
L 66.352869 159.678336 
L 66.761921 157.439494 
L 67.184609 172.696364 
L 67.607296 162.359174 
L 68.016348 155.926003 
L 68.439036 160.970051 
L 68.848088 170.773437 
L 69.270775 160.149007 
L 69.693463 163.001163 
L 70.075245 155.855664 
L 70.497932 156.130428 
L 70.906984 137.735317 
L 71.329672 144.617255 
L 71.738724 130.310731 
L 72.161411 133.280838 
L 72.584099 116.198759 
L 72.993151 114.891523 
L 73.415838 147.217502 
L 73.824891 125.945889 
L 74.247578 129.758748 
L 74.670265 122.60353 
L 75.052048 121.372982 
L 75.474735 98.090215 
L 75.883787 107.992904 
L 76.306475 104.323751 
L 76.715527 123.617105 
L 77.138214 111.121415 
L 77.560902 92.660723 
L 77.969954 90.636615 
L 78.392641 104.25099 
L 78.801694 91.781748 
L 79.647068 105.958598 
L 80.042486 97.562463 
L 80.465173 81.259582 
L 80.874225 72.878042 
L 81.296913 99.707531 
L 81.705965 78.034513 
L 82.128652 86.04985 
L 82.55134 43.250059 
L 82.960392 80.731622 
L 83.383079 60.348917 
L 83.792131 57.193753 
L 84.214819 61.715378 
L 84.637506 61.425699 
L 85.019288 38.267957 
L 85.441976 49.395736 
L 85.851028 35.85537 
L 86.273715 68.089158 
L 86.682768 131.107488 
L 87.105455 132.09305 
L 87.528142 119.567641 
L 87.937195 102.850056 
L 88.359882 91.086785 
L 88.768934 113.750953 
L 89.191622 106.855659 
L 89.614309 94.457869 
L 89.996091 106.683981 
L 90.418779 148.701227 
L 90.827831 146.885846 
L 91.250518 147.902654 
L 91.65957 116.251708 
L 92.082258 132.437378 
L 92.504945 116.425439 
L 92.913997 123.293871 
L 93.336685 125.72946 
L 93.745737 117.341478 
L 94.168424 119.780044 
L 94.591112 101.621267 
L 94.972894 115.974099 
L 95.395581 111.401567 
L 95.804634 121.120099 
L 96.227321 120.242754 
L 96.636373 120.190481 
L 97.059061 130.864314 
L 97.481748 135.364153 
L 97.8908 130.854751 
L 98.313488 132.386878 
L 99.567915 126.657919 
L 99.963332 134.90829 
L 100.386019 137.842323 
L 100.795072 131.529923 
L 101.217759 136.340976 
L 101.626811 132.560088 
L 102.049499 122.799208 
L 102.472186 123.94508 
L 102.881238 124.501385 
L 103.303926 123.391286 
L 103.712978 123.514343 
L 104.135665 116.356112 
L 104.558353 114.819133 
L 104.940135 108.938082 
L 105.362822 99.985581 
L 105.771874 116.091366 
L 106.194562 116.992345 
L 106.603614 107.960971 
L 107.026301 110.117214 
L 107.448989 109.193446 
L 107.858041 105.176884 
L 108.280728 103.065258 
L 108.689781 98.399745 
L 109.535155 82.791828 
L 109.916938 78.259527 
L 110.339625 80.699643 
L 110.748677 80.620329 
L 111.171365 68.968635 
L 111.580417 73.970819 
L 112.003104 69.147322 
L 112.425792 78.128854 
L 112.834844 80.496709 
L 113.666584 61.072493 
L 114.089271 61.310991 
L 114.511958 76.915528 
L 114.89374 35.447456 
L 115.316428 61.944974 
L 115.72548 48.399728 
L 116.148167 86.357305 
L 116.979907 58.449419 
L 117.402594 69.799647 
L 117.811647 62.435003 
L 118.234334 63.583148 
L 118.643386 75.395178 
L 119.066074 67.008738 
L 119.488761 77.148655 
L 119.884178 51.721726 
L 120.306866 73.214021 
L 120.715918 78.464741 
L 121.138605 62.791792 
L 121.547658 72.11174 
L 121.970345 58.780599 
L 122.393032 58.540252 
L 122.802085 59.952433 
L 123.224772 60.313425 
L 123.633824 63.932169 
L 124.056512 63.513713 
L 124.479199 65.489171 
L 124.860981 66.476453 
L 125.283668 60.536673 
L 125.692721 47.11607 
L 126.115408 74.784764 
L 126.52446 72.637614 
L 126.947148 75.673861 
L 127.369835 74.094285 
L 127.778887 74.240247 
L 128.201575 77.718493 
L 128.610627 78.051603 
L 129.033314 65.856074 
L 129.456002 77.71988 
L 129.837784 76.48605 
L 130.260471 73.383717 
L 130.669524 80.816371 
L 131.092211 81.935551 
L 131.501263 82.282151 
L 131.923951 85.281119 
L 132.346638 80.179823 
L 132.75569 66.546718 
L 133.178378 81.800991 
L 133.58743 76.032777 
L 134.010117 72.436507 
L 134.432805 85.745116 
L 134.814587 85.344672 
L 135.237274 82.748465 
L 135.646326 99.878073 
L 136.478066 84.683217 
L 136.900753 90.260815 
L 137.323441 90.499819 
L 137.732493 101.771269 
L 138.15518 90.923888 
L 138.98692 103.166896 
L 139.409607 102.96172 
L 139.805025 110.182586 
L 140.227712 105.177703 
L 140.636764 109.766316 
L 141.059452 109.530665 
L 141.468504 96.527737 
L 141.891191 99.752914 
L 142.313879 98.504294 
L 142.722931 99.868973 
L 143.145618 90.875598 
L 143.554671 104.285029 
L 143.977358 96.393477 
L 144.400045 106.129606 
L 144.781827 97.676915 
L 145.204515 97.623224 
L 145.613567 105.340161 
L 146.036254 110.57574 
L 146.445307 106.744453 
L 146.867994 107.550912 
L 147.290681 118.124515 
L 147.699734 111.402476 
L 148.122421 123.928204 
L 148.954161 133.190982 
L 149.75863 115.222342 
L 150.181318 130.527182 
L 150.59037 112.804391 
L 151.013057 122.041182 
L 151.42211 109.648605 
L 151.844797 107.984312 
L 152.267484 111.228585 
L 152.676537 117.941437 
L 153.099224 113.022059 
L 153.508276 110.792265 
L 153.930964 115.794833 
L 154.353651 111.013402 
L 154.735433 121.354464 
L 155.15812 116.753968 
L 155.567173 127.453572 
L 155.98986 122.08298 
L 156.398912 126.100899 
L 156.8216 115.366948 
L 157.244287 129.401401 
L 157.653339 131.484985 
L 158.076027 125.98671 
L 158.485079 124.648807 
L 158.907766 132.251859 
L 159.330454 127.76486 
L 159.725871 137.350617 
L 160.148558 140.283311 
L 160.557611 136.305049 
L 160.980298 137.71851 
L 161.38935 136.540193 
L 161.812038 129.902702 
L 162.234725 131.358596 
L 163.066465 121.407448 
L 163.475517 130.673218 
L 163.898204 130.981617 
L 164.320892 131.758357 
L 164.702674 140.782165 
L 165.125361 131.802157 
L 165.534413 135.830874 
L 165.957101 122.952583 
L 166.366153 117.630508 
L 166.788841 125.691725 
L 167.211528 112.076085 
L 167.62058 124.400394 
L 168.043268 125.892149 
L 168.875007 107.331865 
L 169.297695 100.640277 
L 169.679477 115.134385 
L 170.511216 110.290579 
L 170.933904 123.205989 
L 171.342956 109.331724 
L 171.765643 110.510546 
L 172.597383 99.507707 
L 173.02007 112.479084 
L 173.429123 110.285224 
L 173.85181 94.748784 
L 174.274497 106.033178 
L 174.656279 107.625694 
L 175.078967 112.337179 
L 175.488019 113.477 
L 175.910707 91.832259 
L 176.319759 114.206558 
L 176.742446 105.279189 
L 177.165134 111.129431 
L 177.574186 102.737362 
L 177.996873 101.250905 
L 178.405925 106.018048 
L 178.828613 102.668746 
L 179.2513 103.288746 
L 179.646717 99.70523 
L 180.069405 103.029661 
L 180.478457 98.730349 
L 180.901144 85.96801 
L 181.310197 93.636036 
L 181.732884 90.646211 
L 182.155571 88.559902 
L 182.564624 81.029081 
L 182.987311 82.71229 
L 183.819051 68.870012 
L 184.241738 66.331683 
L 184.62352 74.052248 
L 185.046208 61.156736 
L 185.45526 64.064222 
L 185.877947 61.516809 
L 186.287 61.751079 
L 186.709687 62.607285 
L 187.132374 56.211873 
L 187.964114 59.999023 
L 188.373166 57.154949 
L 188.795854 61.578936 
L 189.218541 60.803448 
L 189.600323 49.141312 
L 190.02301 54.434683 
L 190.432063 62.37813 
L 190.85475 65.035219 
L 191.68649 53.999846 
L 192.109177 56.629943 
L 192.518229 68.313299 
L 192.940917 53.109605 
L 193.349969 48.99714 
L 193.772656 53.900415 
L 194.195344 52.703067 
L 194.577126 50.993389 
L 194.999813 52.366321 
L 195.408866 53.128001 
L 195.831553 48.404034 
L 196.240605 51.795909 
L 196.663293 45.088497 
L 197.08598 51.973599 
L 197.495032 52.83742 
L 197.91772 56.293685 
L 198.326772 72.976617 
L 198.749459 72.58678 
L 199.172147 81.283856 
L 199.567564 81.805053 
L 199.990251 67.334081 
L 200.399303 66.362262 
L 200.821991 70.571093 
L 201.231043 63.119018 
L 201.65373 70.62 
L 202.076418 68.077083 
L 202.48547 81.035725 
L 202.908157 82.051268 
L 203.31721 81.55326 
L 203.739897 78.713371 
L 204.162584 74.2069 
L 204.544367 68.267997 
L 204.967054 68.093465 
L 205.376106 58.496454 
L 205.798794 62.175125 
L 206.207846 58.006181 
L 206.630533 63.62114 
L 207.053221 54.012245 
L 207.462273 53.57359 
L 207.88496 52.619538 
L 208.294013 57.837836 
L 208.7167 49.711566 
L 209.139387 51.924167 
L 209.521169 48.378758 
L 209.943857 51.088821 
L 210.352909 49.038171 
L 210.775596 38.113011 
L 211.184649 40.31584 
L 211.607336 22.623636 
L 212.030023 37.410137 
L 212.439076 38.929642 
L 212.861763 43.793566 
L 213.270815 32.614515 
L 213.693503 43.059129 
L 214.11619 40.23544 
L 214.497972 43.110806 
L 214.92066 43.183142 
L 215.329712 48.656492 
L 215.752399 50.536386 
L 216.161452 61.28549 
L 216.584139 48.988254 
L 217.006826 56.794444 
L 217.415879 55.347037 
L 217.838566 50.010007 
L 218.247618 53.995059 
L 218.670306 53.042506 
L 219.092993 54.404619 
L 219.48841 49.077386 
L 219.911098 50.2413 
L 220.32015 57.33148 
L 220.742837 53.354098 
L 221.151889 51.122929 
L 221.574577 46.89825 
L 221.997264 44.186101 
L 222.406316 44.487699 
L 222.829004 44.637806 
L 223.238056 36.145857 
L 223.660743 32.586901 
L 224.083431 43.914109 
L 224.8879 35.682656 
L 225.296953 33.25999 
L 225.71964 32.495758 
L 226.128692 43.174195 
L 226.55138 40.938549 
L 226.974067 40.933299 
L 227.383119 36.792267 
L 227.805807 36.570722 
L 228.214859 41.071022 
L 228.637546 49.918763 
L 229.060234 44.58194 
L 229.442016 44.066902 
L 229.864703 50.142608 
L 230.273755 44.059116 
L 230.696443 41.340528 
L 231.105495 47.895092 
L 231.528182 31.432678 
L 231.95087 38.041899 
L 232.359922 33.031337 
L 232.782609 35.335953 
L 233.191662 44.086854 
L 233.614349 45.509604 
L 234.037036 54.848009 
L 234.418819 55.812424 
L 234.841506 53.004575 
L 235.250558 57.664507 
L 235.673246 67.797328 
L 236.082298 70.897193 
L 236.504985 72.36593 
L 236.927673 65.593219 
L 237.336725 77.052076 
L 237.759412 71.81659 
L 238.168465 57.564473 
L 238.591152 55.908202 
L 239.013839 52.586571 
L 239.409257 69.057447 
L 240.240996 63.096683 
L 240.663684 63.350466 
L 241.072736 62.712996 
L 241.495423 66.246149 
L 241.918111 58.676874 
L 242.327163 68.267282 
L 242.74985 61.174475 
L 243.158902 60.499367 
L 243.58159 55.356078 
L 244.004277 63.414494 
L 244.386059 60.596475 
L 244.808747 58.580261 
L 245.217799 60.190188 
L 245.640486 67.65779 
L 246.049539 63.845348 
L 246.472226 72.17541 
L 246.894913 75.071668 
L 247.303966 77.060774 
L 247.726653 68.565347 
L 248.135705 71.653424 
L 248.558393 79.217078 
L 248.98108 70.762612 
L 249.362862 74.309895 
L 249.78555 85.02906 
L 250.194602 74.198837 
L 251.026341 83.262338 
L 251.449029 84.32434 
L 252.280768 81.235983 
L 252.703456 73.078903 
L 253.112508 81.223002 
L 253.535196 77.103379 
L 253.957883 82.822016 
L 254.339665 82.870636 
L 254.762352 78.892989 
L 255.171405 72.639767 
L 255.594092 76.553508 
L 256.003144 71.337877 
L 256.425832 70.734331 
L 256.848519 74.263444 
L 257.257571 80.639904 
L 258.089311 64.537531 
L 258.511998 86.867953 
L 258.934686 76.720891 
L 259.330103 79.865949 
L 260.161843 66.177305 
L 260.58453 65.553902 
L 260.993582 67.240033 
L 261.41627 67.473222 
L 261.838957 69.441318 
L 262.248009 63.022899 
L 262.670697 70.111533 
L 263.079749 71.275418 
L 263.502436 69.900359 
L 263.925124 69.565592 
L 264.306906 70.455712 
L 264.729593 68.958517 
L 265.561333 63.675818 
L 265.970385 63.994018 
L 266.393072 65.96542 
L 266.81576 69.194284 
L 267.224812 69.934621 
L 267.647499 78.335758 
L 268.056552 71.762995 
L 268.479239 77.902749 
L 268.901926 77.913209 
L 269.283709 88.380579 
L 269.706396 77.361485 
L 270.115448 74.17353 
L 270.538136 75.910789 
L 270.947188 68.06662 
L 271.369875 71.46419 
L 271.792563 69.404855 
L 272.201615 69.961145 
L 272.624302 65.899774 
L 273.033355 66.110691 
L 273.456042 56.068499 
L 273.878729 73.704894 
L 274.260511 76.000648 
L 274.683199 69.911433 
L 275.092251 82.122092 
L 275.514938 78.170919 
L 275.923991 92.96707 
L 276.346678 96.18495 
L 276.769365 87.797559 
L 277.178418 82.217684 
L 277.601105 90.231242 
L 278.010157 87.924794 
L 278.432845 84.010281 
L 278.855532 88.816144 
L 279.250949 87.308976 
L 279.673637 86.562913 
L 280.082689 82.585825 
L 280.505376 83.695917 
L 280.914429 79.847696 
L 281.337116 85.383597 
L 281.759803 77.916382 
L 282.168856 76.525673 
L 282.591543 81.571271 
L 283.000595 85.095309 
L 283.423283 78.795085 
L 283.84597 78.472921 
L 284.227752 76.195964 
L 284.650439 62.863081 
L 285.059492 71.100117 
L 285.482179 69.392217 
L 285.891231 69.296726 
L 286.313919 79.047549 
L 286.736606 74.84074 
L 287.145658 82.841741 
L 287.977398 69.716351 
L 288.400085 71.292098 
L 288.822773 70.98928 
L 289.204555 72.893539 
L 289.627242 82.395419 
L 290.036295 83.090371 
L 290.458982 84.748407 
L 290.868034 94.7327 
L 291.290722 94.827571 
L 292.122461 67.760351 
L 292.545149 69.281012 
L 293.799576 116.472965 
L 294.181358 110.86062 
L 294.604045 100.146043 
L 295.013097 98.787268 
L 295.435785 88.202718 
L 295.844837 114.070209 
L 296.267524 107.386526 
L 296.690212 121.456525 
L 297.099264 124.259887 
L 297.521951 131.570912 
L 297.931004 147.237687 
L 298.353691 171.193197 
L 298.776378 167.770488 
L 299.171796 152.744491 
L 299.594483 150.874726 
L 300.003535 139.21616 
L 300.426223 161.179661 
L 300.835275 149.376276 
L 301.257962 144.782557 
L 302.089702 128.360228 
L 302.512389 130.763533 
L 302.921442 113.68852 
L 303.344129 115.577397 
L 303.766816 105.229871 
L 304.148598 92.065304 
L 304.571286 85.827528 
L 304.980338 89.291027 
L 305.403025 91.756306 
L 305.812078 85.603041 
L 306.234765 90.645142 
L 306.657453 80.549982 
L 307.066505 93.074608 
L 307.489192 99.976211 
L 307.898244 103.117489 
L 308.320932 104.6731 
L 308.743619 98.704656 
L 309.125401 96.396853 
L 309.548089 95.492155 
L 309.957141 90.271368 
L 310.379828 93.957077 
L 310.788881 83.703202 
L 311.211568 84.222116 
L 311.634255 102.26351 
L 312.043308 87.717057 
L 312.465995 90.764383 
L 313.297735 99.223445 
L 313.720422 94.505827 
L 314.102204 101.016872 
L 314.933944 84.376919 
L 315.356631 85.979252 
L 315.765683 93.204766 
L 316.188371 85.897101 
L 316.611058 93.992262 
L 317.02011 79.583439 
L 317.442798 92.185935 
L 317.85185 82.597843 
L 318.274537 89.840864 
L 318.697225 87.911751 
L 319.092642 91.220028 
L 319.515329 90.845939 
L 319.924382 88.717472 
L 320.347069 91.576465 
L 320.756121 88.059104 
L 321.178809 80.694042 
L 321.601496 81.298304 
L 322.010548 73.760397 
L 322.433236 81.102821 
L 322.842288 72.257629 
L 323.264975 73.441846 
L 323.687663 62.430226 
L 324.069445 66.678416 
L 324.492132 75.677486 
L 324.901185 77.243273 
L 325.323872 73.330242 
L 326.155612 70.701713 
L 326.578299 65.964088 
L 326.987351 57.266154 
L 327.410039 54.973172 
L 327.819091 59.998735 
L 328.241778 62.714195 
L 328.664466 68.10083 
L 329.046248 69.52291 
L 329.468935 68.583272 
L 329.877987 76.924803 
L 330.300675 71.923183 
L 330.709727 69.221478 
L 331.132414 63.568786 
L 331.555102 73.948628 
L 332.386841 83.268159 
L 332.795894 77.116325 
L 333.218581 85.263161 
L 333.641268 90.210714 
L 334.023051 88.831223 
L 334.85479 83.222364 
L 335.277478 93.940957 
L 335.68653 96.334905 
L 336.109217 103.414287 
L 336.531905 86.936314 
L 336.940957 91.610884 
L 337.363644 88.288216 
L 337.772696 94.658025 
L 338.195384 90.560969 
L 338.618071 97.085258 
L 339.013488 90.449722 
L 339.436176 98.826923 
L 339.845228 99.219703 
L 340.267915 108.913207 
L 340.676968 88.709916 
L 341.099655 99.157198 
L 341.522342 91.102753 
L 341.931395 78.174256 
L 342.354082 85.455794 
L 342.763134 83.023344 
L 343.185822 111.987567 
L 343.608509 130.391374 
L 343.990291 104.332521 
L 344.412979 108.452004 
L 344.822031 103.78642 
L 345.244718 116.820227 
L 345.653771 103.621579 
L 346.076458 109.400681 
L 346.499145 112.2009 
L 346.908198 121.665899 
L 347.330885 114.089136 
L 348.162625 127.033986 
L 348.585312 114.585679 
L 348.967094 115.681949 
L 349.389781 119.15223 
L 349.798834 127.538281 
L 350.221521 128.268657 
L 350.630573 109.967151 
L 351.053261 115.910287 
L 351.475948 108.239518 
L 351.885 116.917698 
L 352.307688 120.888041 
L 352.71674 115.882198 
L 353.139427 119.556963 
L 353.562115 119.539877 
L 354.366584 104.084421 
L 354.775637 111.504075 
L 355.198324 105.84274 
L 355.607376 113.517872 
L 356.030064 109.308235 
L 356.452751 107.601293 
L 356.861803 109.387053 
L 357.284491 108.086406 
L 357.693543 97.751521 
L 358.11623 111.540008 
L 358.538918 103.423284 
L 358.934335 102.224569 
L 359.357022 100.367462 
L 359.766074 101.55631 
L 360.188762 92.260148 
L 360.597814 91.458261 
L 361.443189 94.788885 
L 361.852241 90.297733 
L 362.274928 96.224271 
L 362.683981 107.248977 
L 363.106668 111.914162 
L 363.529355 110.294668 
L 363.911138 99.630645 
L 364.333825 101.415595 
L 364.742877 117.468561 
L 365.165565 110.76032 
L 365.574617 111.701715 
L 365.997304 118.31253 
L 366.419992 117.157473 
L 366.829044 112.088898 
L 367.251731 118.441655 
L 367.660784 114.793583 
L 368.083471 125.586503 
L 368.506158 112.220239 
L 368.88794 118.51808 
L 369.310628 117.232208 
L 369.71968 118.254773 
L 370.142367 115.528695 
L 370.55142 125.036864 
L 370.974107 114.059542 
L 371.396794 117.429732 
L 371.805847 105.801557 
L 372.228534 116.414143 
L 372.637586 118.518614 
L 373.060274 116.752571 
L 373.482961 121.72974 
L 373.864743 122.241154 
L 374.287431 113.672654 
L 374.696483 119.696438 
L 375.11917 116.18402 
L 375.528223 114.577237 
L 375.95091 118.909509 
L 376.373597 114.529971 
L 376.78265 112.872339 
L 377.205337 121.925945 
L 377.614389 116.656245 
L 378.037077 113.678965 
L 378.459764 102.80474 
L 378.855181 101.752767 
L 379.277869 102.949427 
L 379.686921 105.050999 
L 380.109608 95.374237 
L 380.51866 102.015754 
L 380.941348 102.492927 
L 381.364035 103.822055 
L 381.773087 107.27088 
L 382.195775 96.074785 
L 382.604827 105.915158 
L 383.027514 95.753681 
L 383.450202 97.768064 
L 383.831984 100.586945 
L 384.254671 110.591757 
L 384.663724 111.709593 
L 385.495463 121.740364 
L 385.918151 120.070016 
L 386.340838 117.242432 
L 386.74989 120.990444 
L 387.172578 114.677218 
L 387.58163 115.6977 
L 388.004317 120.508903 
L 388.427005 129.37478 
L 388.808787 132.812068 
L 389.231474 129.857952 
L 389.640526 130.892086 
L 390.063214 135.315559 
L 390.472266 133.231925 
L 390.894953 138.785163 
L 391.317641 138.163539 
L 391.726693 137.872022 
L 392.14938 124.879778 
L 392.558433 130.095352 
L 392.98112 125.254957 
L 393.78559 119.939877 
L 394.208277 132.245135 
L 394.617329 137.422001 
L 395.040017 125.576483 
L 395.449069 136.858021 
L 395.871756 137.436411 
L 396.294444 130.709453 
L 396.703496 132.148467 
L 397.126183 132.139457 
L 397.535236 134.218303 
L 398.38061 163.854045 
L 398.776028 158.268658 
L 399.198715 146.50344 
L 400.030455 159.743141 
L 400.030455 159.743141 
" style="fill:none;stroke:#1f77b4;stroke-linecap:square;stroke-width:1.5;"/>
   </g>
  </g>
 </g>
 <defs>
  <clipPath id="p456576e549">
   <rect height="165.08" width="370.69" x="46.19" y="15.12"/>
  </clipPath>
 </defs>
</svg>
