<?xml version="1.0" encoding="utf-8" standalone="no"?>
<!DOCTYPE svg PUBLIC "-//W3C//DTD SVG 1.1//EN"
  "http://www.w3.org/Graphics/SVG/1.1/DTD/svg11.dtd">
<!-- Created with matplotlib (https://matplotlib.org/) -->
<svg height="216pt" version="1.1" viewBox="0 0 432 216" width="432pt" xmlns="http://www.w3.org/2000/svg" xmlns:xlink="http://www.w3.org/1999/xlink">
 <metadata>
  <rdf:RDF xmlns:cc="http://creativecommons.org/ns#" xmlns:dc="http://purl.org/dc/elements/1.1/" xmlns:rdf="http://www.w3.org/1999/02/22-rdf-syntax-ns#">
   <cc:Work>
    <dc:type rdf:resource="http://purl.org/dc/dcmitype/StillImage"/>
    <dc:date>2021-11-29T15:19:09.468482</dc:date>
    <dc:format>image/svg+xml</dc:format>
    <dc:creator>
     <cc:Agent>
      <dc:title>Matplotlib v3.3.4, https://matplotlib.org/</dc:title>
     </cc:Agent>
    </dc:creator>
   </cc:Work>
  </rdf:RDF>
 </metadata>
 <defs>
  <style type="text/css">*{stroke-linecap:butt;stroke-linejoin:round;}</style>
 </defs>
 <g id="figure_1">
  <g id="patch_1">
   <path d="M 0 216 
L 432 216 
L 432 0 
L 0 0 
z
" style="fill:#ffffff;"/>
  </g>
  <g id="axes_1">
   <g id="patch_2">
    <path d="M 15.12 200.88 
L 416.88 200.88 
L 416.88 15.12 
L 15.12 15.12 
z
" style="fill:#ffffff;"/>
   </g>
   <g id="matplotlib.axis_1">
    <g id="xtick_1">
     <g id="line2d_1">
      <path clip-path="url(#p938fd307b2)" d="M 43.627138 200.88 
L 43.627138 15.12 
" style="fill:none;stroke:#b0b0b0;stroke-dasharray:1.48,0.64;stroke-dashoffset:0;stroke-width:0.4;"/>
     </g>
    </g>
    <g id="xtick_2">
     <g id="line2d_2">
      <path clip-path="url(#p938fd307b2)" d="M 132.374899 200.88 
L 132.374899 15.12 
" style="fill:none;stroke:#b0b0b0;stroke-dasharray:1.48,0.64;stroke-dashoffset:0;stroke-width:0.4;"/>
     </g>
    </g>
    <g id="xtick_3">
     <g id="line2d_3">
      <path clip-path="url(#p938fd307b2)" d="M 221.12266 200.88 
L 221.12266 15.12 
" style="fill:none;stroke:#b0b0b0;stroke-dasharray:1.48,0.64;stroke-dashoffset:0;stroke-width:0.4;"/>
     </g>
    </g>
    <g id="xtick_4">
     <g id="line2d_4">
      <path clip-path="url(#p938fd307b2)" d="M 309.870421 200.88 
L 309.870421 15.12 
" style="fill:none;stroke:#b0b0b0;stroke-dasharray:1.48,0.64;stroke-dashoffset:0;stroke-width:0.4;"/>
     </g>
    </g>
    <g id="xtick_5">
     <g id="line2d_5">
      <path clip-path="url(#p938fd307b2)" d="M 398.618182 200.88 
L 398.618182 15.12 
" style="fill:none;stroke:#b0b0b0;stroke-dasharray:1.48,0.64;stroke-dashoffset:0;stroke-width:0.4;"/>
     </g>
    </g>
   </g>
   <g id="matplotlib.axis_2">
    <g id="ytick_1">
     <g id="line2d_6">
      <path clip-path="url(#p938fd307b2)" d="M 15.12 192.436364 
L 416.88 192.436364 
" style="fill:none;stroke:#b0b0b0;stroke-dasharray:1.48,0.64;stroke-dashoffset:0;stroke-width:0.4;"/>
     </g>
    </g>
    <g id="ytick_2">
     <g id="line2d_7">
      <path clip-path="url(#p938fd307b2)" d="M 15.12 146.474962 
L 416.88 146.474962 
" style="fill:none;stroke:#b0b0b0;stroke-dasharray:1.48,0.64;stroke-dashoffset:0;stroke-width:0.4;"/>
     </g>
    </g>
    <g id="ytick_3">
     <g id="line2d_8">
      <path clip-path="url(#p938fd307b2)" d="M 15.12 100.51356 
L 416.88 100.51356 
" style="fill:none;stroke:#b0b0b0;stroke-dasharray:1.48,0.64;stroke-dashoffset:0;stroke-width:0.4;"/>
     </g>
    </g>
    <g id="ytick_4">
     <g id="line2d_9">
      <path clip-path="url(#p938fd307b2)" d="M 15.12 54.552158 
L 416.88 54.552158 
" style="fill:none;stroke:#b0b0b0;stroke-dasharray:1.48,0.64;stroke-dashoffset:0;stroke-width:0.4;"/>
     </g>
    </g>
   </g>
   <g id="line2d_10">
    <path clip-path="url(#p938fd307b2)" d="M 43.627138 192.436364 
L 134.604742 192.331953 
L 141.74024 192.109197 
L 147.091864 191.713951 
L 150.659613 191.248421 
L 154.227363 190.530294 
L 157.795112 189.452254 
L 159.578986 188.736782 
L 161.362861 187.877846 
L 163.146736 186.853874 
L 164.93061 185.641741 
L 166.714485 184.217042 
L 168.498359 182.554477 
L 170.282234 180.628348 
L 172.066108 178.413162 
L 173.849983 175.884357 
L 175.633858 173.019132 
L 177.417732 169.797366 
L 179.201607 166.20262 
L 180.985481 162.223175 
L 182.769356 157.853093 
L 184.553231 153.093247 
L 186.337105 147.952279 
L 189.904854 136.605277 
L 193.472604 124.064043 
L 198.824227 103.948092 
L 204.175851 84.071134 
L 207.7436 72.147486 
L 209.527475 66.864298 
L 211.31135 62.151546 
L 213.095224 58.089422 
L 214.879099 54.748721 
L 216.662973 52.188792 
L 218.446848 50.455786 
L 220.230722 49.581268 
L 222.014597 49.581268 
L 223.798472 50.455786 
L 225.582346 52.188792 
L 227.366221 54.748721 
L 229.150095 58.089422 
L 230.93397 62.151546 
L 232.717845 66.864298 
L 234.501719 72.147486 
L 236.285594 77.913787 
L 239.853343 90.525143 
L 250.556591 130.462068 
L 254.12434 142.447442 
L 255.908214 147.952279 
L 257.692089 153.093247 
L 259.475964 157.853093 
L 261.259838 162.223175 
L 263.043713 166.20262 
L 264.827587 169.797366 
L 266.611462 173.019132 
L 268.395337 175.884357 
L 270.179211 178.413162 
L 271.963086 180.628348 
L 273.74696 182.554477 
L 275.530835 184.217042 
L 277.314709 185.641741 
L 279.098584 186.853874 
L 280.882459 187.877846 
L 282.666333 188.736782 
L 284.450208 189.452254 
L 288.017957 190.530294 
L 291.585706 191.248421 
L 295.153455 191.713951 
L 300.505079 192.109197 
L 307.640578 192.331953 
L 320.1277 192.425194 
L 386.13106 192.436364 
L 398.618182 192.436364 
L 398.618182 192.436364 
" style="fill:none;stroke:#1f77b4;stroke-linecap:square;stroke-width:1.5;"/>
   </g>
   <g id="line2d_11">
    <path clip-path="url(#p938fd307b2)" d="M 33.381818 192.436364 
L 167.172413 192.393046 
L 170.740162 192.136349 
L 172.524036 191.757219 
L 174.307911 191.028107 
L 176.091786 189.73897 
L 177.87566 187.627483 
L 179.659535 184.401827 
L 181.443409 179.777651 
L 183.227284 173.523068 
L 185.011159 165.502547 
L 186.795033 155.710251 
L 188.578908 144.28583 
L 190.362782 131.509796 
L 193.930532 103.574959 
L 197.498281 75.788209 
L 199.282155 63.173824 
L 201.06603 51.951349 
L 202.849905 42.413798 
L 204.633779 34.754379 
L 206.417654 29.068613 
L 208.201528 25.363423 
L 209.985403 23.57078 
L 211.769278 23.563636 
L 213.553152 25.172292 
L 215.337027 28.199815 
L 217.120901 32.435618 
L 218.904776 37.666721 
L 220.68865 43.686549 
L 224.2564 57.334563 
L 234.959647 100.956802 
L 238.527396 114.022802 
L 242.095146 125.793991 
L 245.662895 136.192254 
L 247.446769 140.880292 
L 249.230644 145.238407 
L 251.014519 149.278429 
L 252.798393 153.01419 
L 254.582268 156.460876 
L 256.366142 159.634495 
L 258.150017 162.551448 
L 259.933892 165.22819 
L 261.717766 167.680964 
L 263.501641 169.925604 
L 265.285515 171.977386 
L 267.06939 173.850919 
L 270.637139 177.117972 
L 274.204888 179.828369 
L 277.772637 182.071059 
L 281.340387 183.922792 
L 284.908136 185.449067 
L 288.475885 186.705306 
L 292.043634 187.738093 
L 295.611383 188.586375 
L 300.963007 189.58225 
L 306.314631 190.321732 
L 313.450129 191.019564 
L 320.585628 191.487591 
L 329.505001 191.861879 
L 341.992123 192.151905 
L 361.614743 192.342158 
L 388.372862 192.415498 
L 388.372862 192.415498 
" style="fill:none;stroke:#ff7f0e;stroke-linecap:square;stroke-width:1.5;"/>
   </g>
  </g>
 </g>
 <defs>
  <clipPath id="p938fd307b2">
   <rect height="185.76" width="401.76" x="15.12" y="15.12"/>
  </clipPath>
 </defs>
</svg>
